<?xml version="1.0" encoding="UTF-8" standalone="no"?>
<!DOCTYPE svg PUBLIC "-//W3C//DTD SVG 1.1//EN"
 "http://www.w3.org/Graphics/SVG/1.1/DTD/svg11.dtd">
<!-- Generated by graphviz version 2.40.1 (20161225.0304)
 -->
<!-- Title: twoDegreesRelationshipsDiagram Pages: 1 -->
<svg width="1491pt" height="1209pt"
 viewBox="0.00 0.00 1491.00 1208.74" xmlns="http://www.w3.org/2000/svg" xmlns:xlink="http://www.w3.org/1999/xlink">
<g id="graph0" class="graph" transform="scale(1 1) rotate(0) translate(4 1204.7404)">
<title>twoDegreesRelationshipsDiagram</title>
<polygon fill="#ffffff" stroke="transparent" points="-4,4 -4,-1204.7404 1487,-1204.7404 1487,4 -4,4"/>
<text text-anchor="middle" x="72.4936" y="-7.3" font-family="Helvetica,sans-Serif" font-size="11.00" fill="#000000">Generated by SchemaSpy</text>
<!-- AspNetUserClaims -->
<g id="node1" class="node">
<title>AspNetUserClaims</title>
<g id="a_node1"><a xlink:href="../../tables/AspNetUserClaims.html" xlink:title="AspNetUserClaims" target="_top">
<polygon fill="#ffffff" stroke="transparent" points="259,-1135.7404 259,-1196.7404 406,-1196.7404 406,-1135.7404 259,-1135.7404"/>
<polygon fill="#f5f5f5" stroke="transparent" points="259.5,-1173.2404 259.5,-1196.2404 406.5,-1196.2404 406.5,-1173.2404 259.5,-1173.2404"/>
<polygon fill="none" stroke="#000000" points="259.5,-1173.2404 259.5,-1196.2404 406.5,-1196.2404 406.5,-1173.2404 259.5,-1173.2404"/>
<text text-anchor="start" x="264.5" y="-1181.8404" font-family="Helvetica,sans-Serif" font-weight="bold" font-size="11.00" fill="#000000">AspNetUserClaims</text>
<text text-anchor="start" x="372.0219" y="-1181.3404" font-family="Helvetica,sans-Serif" font-size="11.00" fill="#000000">[table]</text>
<polygon fill="none" stroke="#000000" points="259.5,-1154.2404 259.5,-1173.2404 406.5,-1173.2404 406.5,-1154.2404 259.5,-1154.2404"/>
<text text-anchor="start" x="262.5" y="-1160.3404" font-family="Helvetica,sans-Serif" font-size="11.00" fill="#000000">...</text>
<polygon fill="#ffffff" stroke="transparent" points="259.5,-1135.2404 259.5,-1154.2404 318.5,-1154.2404 318.5,-1135.2404 259.5,-1135.2404"/>
<polygon fill="none" stroke="#000000" points="259.5,-1135.2404 259.5,-1154.2404 318.5,-1154.2404 318.5,-1135.2404 259.5,-1135.2404"/>
<text text-anchor="start" x="262.5" y="-1141.3404" font-family="Helvetica,sans-Serif" font-size="11.00" fill="#000000">&lt; 1</text>
<polygon fill="#ffffff" stroke="transparent" points="318.5,-1135.2404 318.5,-1154.2404 375.5,-1154.2404 375.5,-1135.2404 318.5,-1135.2404"/>
<polygon fill="none" stroke="#000000" points="318.5,-1135.2404 318.5,-1154.2404 375.5,-1154.2404 375.5,-1135.2404 318.5,-1135.2404"/>
<text text-anchor="start" x="340.1105" y="-1141.3404" font-family="Helvetica,sans-Serif" font-size="11.00" fill="#000000">0 rows</text>
<polygon fill="#ffffff" stroke="transparent" points="375.5,-1135.2404 375.5,-1154.2404 406.5,-1154.2404 406.5,-1135.2404 375.5,-1135.2404"/>
<polygon fill="none" stroke="#000000" points="375.5,-1135.2404 375.5,-1154.2404 406.5,-1154.2404 406.5,-1135.2404 375.5,-1135.2404"/>
<text text-anchor="start" x="397.3862" y="-1141.3404" font-family="Helvetica,sans-Serif" font-size="11.00" fill="#000000"> &#160;</text>
</a>
</g>
</g>
<!-- AspNetUsers -->
<g id="node2" class="node">
<title>AspNetUsers</title>
<g id="a_node2"><a xlink:href="../../tables/AspNetUsers.html" xlink:title="AspNetUsers" target="_top">
<polygon fill="#ffffff" stroke="transparent" points="8,-454.7404 8,-581.7404 171,-581.7404 171,-454.7404 8,-454.7404"/>
<polygon fill="#f5f5f5" stroke="transparent" points="8.5,-558.2404 8.5,-581.2404 171.5,-581.2404 171.5,-558.2404 8.5,-558.2404"/>
<polygon fill="none" stroke="#000000" points="8.5,-558.2404 8.5,-581.2404 171.5,-581.2404 171.5,-558.2404 8.5,-558.2404"/>
<text text-anchor="start" x="13.5" y="-566.8404" font-family="Helvetica,sans-Serif" font-weight="bold" font-size="11.00" fill="#000000">AspNetUsers</text>
<text text-anchor="start" x="136.5437" y="-566.3404" font-family="Helvetica,sans-Serif" font-size="11.00" fill="#000000">[table]</text>
<polygon fill="none" stroke="#000000" points="8.5,-536.2404 8.5,-558.2404 171.5,-558.2404 171.5,-536.2404 8.5,-536.2404"/>
<image xlink:href="../../images/primaryKeys.png" width="11px" height="12px" preserveAspectRatio="xMinYMin meet" x="13.5" y="-553.24"/>
<text text-anchor="start" x="28.5" y="-543.3404" font-family="Helvetica,sans-Serif" font-size="11.00" fill="#000000">Id</text>
<polygon fill="#ffffff" stroke="transparent" points="8.5,-514.2404 8.5,-536.2404 171.5,-536.2404 171.5,-514.2404 8.5,-514.2404"/>
<polygon fill="none" stroke="#000000" points="8.5,-514.2404 8.5,-536.2404 171.5,-536.2404 171.5,-514.2404 8.5,-514.2404"/>
<text text-anchor="start" x="28.5" y="-521.3404" font-family="Helvetica,sans-Serif" font-size="11.00" fill="#000000">NormalizedUserName</text>
<polygon fill="#ffffff" stroke="transparent" points="8.5,-492.2404 8.5,-514.2404 171.5,-514.2404 171.5,-492.2404 8.5,-492.2404"/>
<polygon fill="none" stroke="#000000" points="8.5,-492.2404 8.5,-514.2404 171.5,-514.2404 171.5,-492.2404 8.5,-492.2404"/>
<text text-anchor="start" x="28.5" y="-499.3404" font-family="Helvetica,sans-Serif" font-size="11.00" fill="#000000">NormalizedEmail</text>
<polygon fill="none" stroke="#000000" points="8.5,-473.2404 8.5,-492.2404 171.5,-492.2404 171.5,-473.2404 8.5,-473.2404"/>
<text text-anchor="start" x="11.5" y="-479.3404" font-family="Helvetica,sans-Serif" font-size="11.00" fill="#000000">...</text>
<polygon fill="#ffffff" stroke="transparent" points="8.5,-454.2404 8.5,-473.2404 66.5,-473.2404 66.5,-454.2404 8.5,-454.2404"/>
<polygon fill="none" stroke="#000000" points="8.5,-454.2404 8.5,-473.2404 66.5,-473.2404 66.5,-454.2404 8.5,-454.2404"/>
<text text-anchor="start" x="11.5" y="-460.3404" font-family="Helvetica,sans-Serif" font-size="11.00" fill="#000000"> &#160;</text>
<polygon fill="#ffffff" stroke="transparent" points="66.5,-454.2404 66.5,-473.2404 121.5,-473.2404 121.5,-454.2404 66.5,-454.2404"/>
<polygon fill="none" stroke="#000000" points="66.5,-454.2404 66.5,-473.2404 121.5,-473.2404 121.5,-454.2404 66.5,-454.2404"/>
<text text-anchor="start" x="91.6105" y="-460.3404" font-family="Helvetica,sans-Serif" font-size="11.00" fill="#000000">1 row</text>
<polygon fill="#ffffff" stroke="transparent" points="121.5,-454.2404 121.5,-473.2404 171.5,-473.2404 171.5,-454.2404 121.5,-454.2404"/>
<polygon fill="none" stroke="#000000" points="121.5,-454.2404 121.5,-473.2404 171.5,-473.2404 171.5,-454.2404 121.5,-454.2404"/>
<text text-anchor="start" x="146.7904" y="-460.3404" font-family="Helvetica,sans-Serif" font-size="11.00" fill="#000000">29 &gt;</text>
</a>
</g>
</g>
<!-- AspNetUserClaims&#45;&gt;AspNetUsers -->
<g id="edge1" class="edge">
<title>AspNetUserClaims:w&#45;&gt;AspNetUsers:e</title>
<path fill="none" stroke="#000000" d="M245.1936,-1161.5354C229.0601,-1157.1218 222.0059,-1144.3197 212,-1125.2404 182.0993,-1068.2256 235.8797,-547.2404 171.5,-547.2404"/>
<polygon fill="#000000" stroke="#000000" points="251.5562,-1162.2936 259.0739,-1166.8151 255.5281,-1162.767 259.5,-1163.2404 259.5,-1163.2404 259.5,-1163.2404 255.5281,-1162.767 259.9261,-1159.6657 251.5562,-1162.2936 251.5562,-1162.2936"/>
<ellipse fill="none" stroke="#000000" cx="248.3787" cy="-1161.9149" rx="3.2" ry="3.2"/>
</g>
<!-- AspNetUserLogins -->
<g id="node3" class="node">
<title>AspNetUserLogins</title>
<g id="a_node3"><a xlink:href="../../tables/AspNetUserLogins.html" xlink:title="AspNetUserLogins" target="_top">
<polygon fill="#ffffff" stroke="transparent" points="259,-1053.7404 259,-1114.7404 406,-1114.7404 406,-1053.7404 259,-1053.7404"/>
<polygon fill="#f5f5f5" stroke="transparent" points="259.5,-1091.2404 259.5,-1114.2404 406.5,-1114.2404 406.5,-1091.2404 259.5,-1091.2404"/>
<polygon fill="none" stroke="#000000" points="259.5,-1091.2404 259.5,-1114.2404 406.5,-1114.2404 406.5,-1091.2404 259.5,-1091.2404"/>
<text text-anchor="start" x="264.5" y="-1099.8404" font-family="Helvetica,sans-Serif" font-weight="bold" font-size="11.00" fill="#000000">AspNetUserLogins</text>
<text text-anchor="start" x="372.0219" y="-1099.3404" font-family="Helvetica,sans-Serif" font-size="11.00" fill="#000000">[table]</text>
<polygon fill="none" stroke="#000000" points="259.5,-1072.2404 259.5,-1091.2404 406.5,-1091.2404 406.5,-1072.2404 259.5,-1072.2404"/>
<text text-anchor="start" x="262.5" y="-1078.3404" font-family="Helvetica,sans-Serif" font-size="11.00" fill="#000000">...</text>
<polygon fill="#ffffff" stroke="transparent" points="259.5,-1053.2404 259.5,-1072.2404 318.5,-1072.2404 318.5,-1053.2404 259.5,-1053.2404"/>
<polygon fill="none" stroke="#000000" points="259.5,-1053.2404 259.5,-1072.2404 318.5,-1072.2404 318.5,-1053.2404 259.5,-1053.2404"/>
<text text-anchor="start" x="262.5" y="-1059.3404" font-family="Helvetica,sans-Serif" font-size="11.00" fill="#000000">&lt; 1</text>
<polygon fill="#ffffff" stroke="transparent" points="318.5,-1053.2404 318.5,-1072.2404 375.5,-1072.2404 375.5,-1053.2404 318.5,-1053.2404"/>
<polygon fill="none" stroke="#000000" points="318.5,-1053.2404 318.5,-1072.2404 375.5,-1072.2404 375.5,-1053.2404 318.5,-1053.2404"/>
<text text-anchor="start" x="340.1105" y="-1059.3404" font-family="Helvetica,sans-Serif" font-size="11.00" fill="#000000">0 rows</text>
<polygon fill="#ffffff" stroke="transparent" points="375.5,-1053.2404 375.5,-1072.2404 406.5,-1072.2404 406.5,-1053.2404 375.5,-1053.2404"/>
<polygon fill="none" stroke="#000000" points="375.5,-1053.2404 375.5,-1072.2404 406.5,-1072.2404 406.5,-1053.2404 375.5,-1053.2404"/>
<text text-anchor="start" x="397.3862" y="-1059.3404" font-family="Helvetica,sans-Serif" font-size="11.00" fill="#000000"> &#160;</text>
</a>
</g>
</g>
<!-- AspNetUserLogins&#45;&gt;AspNetUsers -->
<g id="edge2" class="edge">
<title>AspNetUserLogins:w&#45;&gt;AspNetUsers:e</title>
<path fill="none" stroke="#000000" d="M244.7362,-1079.3955C228.9673,-1074.8459 222.0164,-1062.0753 212,-1043.2404 186.0373,-994.4201 226.7945,-547.2404 171.5,-547.2404"/>
<polygon fill="#000000" stroke="#000000" points="251.5617,-1080.2484 259.0536,-1084.8126 255.5309,-1080.7444 259.5,-1081.2404 259.5,-1081.2404 259.5,-1081.2404 255.5309,-1080.7444 259.9464,-1077.6682 251.5617,-1080.2484 251.5617,-1080.2484"/>
<ellipse fill="none" stroke="#000000" cx="248.3864" cy="-1079.8516" rx="3.2" ry="3.2"/>
</g>
<!-- AspNetUserRoles -->
<g id="node4" class="node">
<title>AspNetUserRoles</title>
<g id="a_node4"><a xlink:href="../../tables/AspNetUserRoles.html" xlink:title="AspNetUserRoles" target="_top">
<polygon fill="#ffffff" stroke="transparent" points="262.5,-971.7404 262.5,-1032.7404 402.5,-1032.7404 402.5,-971.7404 262.5,-971.7404"/>
<polygon fill="#f5f5f5" stroke="transparent" points="262.5,-1009.2404 262.5,-1032.2404 402.5,-1032.2404 402.5,-1009.2404 262.5,-1009.2404"/>
<polygon fill="none" stroke="#000000" points="262.5,-1009.2404 262.5,-1032.2404 402.5,-1032.2404 402.5,-1009.2404 262.5,-1009.2404"/>
<text text-anchor="start" x="267.5" y="-1017.8404" font-family="Helvetica,sans-Serif" font-weight="bold" font-size="11.00" fill="#000000">AspNetUserRoles</text>
<text text-anchor="start" x="368.0219" y="-1017.3404" font-family="Helvetica,sans-Serif" font-size="11.00" fill="#000000">[table]</text>
<polygon fill="none" stroke="#000000" points="262.5,-990.2404 262.5,-1009.2404 402.5,-1009.2404 402.5,-990.2404 262.5,-990.2404"/>
<text text-anchor="start" x="265.5" y="-996.3404" font-family="Helvetica,sans-Serif" font-size="11.00" fill="#000000">...</text>
<polygon fill="#ffffff" stroke="transparent" points="262.5,-971.2404 262.5,-990.2404 320.5,-990.2404 320.5,-971.2404 262.5,-971.2404"/>
<polygon fill="none" stroke="#000000" points="262.5,-971.2404 262.5,-990.2404 320.5,-990.2404 320.5,-971.2404 262.5,-971.2404"/>
<text text-anchor="start" x="265.5" y="-977.3404" font-family="Helvetica,sans-Serif" font-size="11.00" fill="#000000">&lt; 2</text>
<polygon fill="#ffffff" stroke="transparent" points="320.5,-971.2404 320.5,-990.2404 371.5,-990.2404 371.5,-971.2404 320.5,-971.2404"/>
<polygon fill="none" stroke="#000000" points="320.5,-971.2404 320.5,-990.2404 371.5,-990.2404 371.5,-971.2404 320.5,-971.2404"/>
<text text-anchor="start" x="341.6105" y="-977.3404" font-family="Helvetica,sans-Serif" font-size="11.00" fill="#000000">1 row</text>
<polygon fill="#ffffff" stroke="transparent" points="371.5,-971.2404 371.5,-990.2404 402.5,-990.2404 402.5,-971.2404 371.5,-971.2404"/>
<polygon fill="none" stroke="#000000" points="371.5,-971.2404 371.5,-990.2404 402.5,-990.2404 402.5,-971.2404 371.5,-971.2404"/>
<text text-anchor="start" x="393.3862" y="-977.3404" font-family="Helvetica,sans-Serif" font-size="11.00" fill="#000000"> &#160;</text>
</a>
</g>
</g>
<!-- AspNetUserRoles&#45;&gt;AspNetUsers -->
<g id="edge3" class="edge">
<title>AspNetUserRoles:w&#45;&gt;AspNetUsers:e</title>
<path fill="none" stroke="#000000" d="M248.0825,-997.7134C230.8343,-993.5449 223.066,-980.9491 212,-961.2404 189.3716,-920.939 217.7196,-547.2404 171.5,-547.2404"/>
<polygon fill="#000000" stroke="#000000" points="254.5445,-998.3978 262.1208,-1002.8204 258.5222,-998.8191 262.5,-999.2404 262.5,-999.2404 262.5,-999.2404 258.5222,-998.8191 262.8792,-995.6605 254.5445,-998.3978 254.5445,-998.3978"/>
<ellipse fill="none" stroke="#000000" cx="251.3623" cy="-998.0607" rx="3.2" ry="3.2"/>
</g>
<!-- AspNetUserTokens -->
<g id="node5" class="node">
<title>AspNetUserTokens</title>
<g id="a_node5"><a xlink:href="../../tables/AspNetUserTokens.html" xlink:title="AspNetUserTokens" target="_top">
<polygon fill="#ffffff" stroke="transparent" points="220,-816.2404 220,-950.2404 445,-950.2404 445,-816.2404 220,-816.2404"/>
<polygon fill="#f5f5f5" stroke="transparent" points="222.5,-925.2404 222.5,-948.2404 443.5,-948.2404 443.5,-925.2404 222.5,-925.2404"/>
<polygon fill="none" stroke="#000000" points="222.5,-925.2404 222.5,-948.2404 443.5,-948.2404 443.5,-925.2404 222.5,-925.2404"/>
<text text-anchor="start" x="227.5" y="-933.8404" font-family="Helvetica,sans-Serif" font-weight="bold" font-size="11.00" fill="#000000">AspNetUserTokens</text>
<text text-anchor="start" x="408.5437" y="-933.3404" font-family="Helvetica,sans-Serif" font-size="11.00" fill="#000000">[table]</text>
<polygon fill="none" stroke="#000000" points="222.5,-903.2404 222.5,-925.2404 353.5,-925.2404 353.5,-903.2404 222.5,-903.2404"/>
<image xlink:href="../../images/primaryKeys.png" width="11px" height="12px" preserveAspectRatio="xMinYMin meet" x="227.5" y="-920.24"/>
<text text-anchor="start" x="242.5" y="-910.3404" font-family="Helvetica,sans-Serif" font-size="11.00" fill="#000000">UserId</text>
<polygon fill="none" stroke="#000000" points="353.5,-903.2404 353.5,-925.2404 443.5,-925.2404 443.5,-903.2404 353.5,-903.2404"/>
<text text-anchor="start" x="356.0043" y="-910.9404" font-family="Helvetica,sans-Serif" font-size="11.00" fill="#000000">text[2147483647]</text>
<polygon fill="none" stroke="#000000" points="222.5,-881.2404 222.5,-903.2404 353.5,-903.2404 353.5,-881.2404 222.5,-881.2404"/>
<image xlink:href="../../images/primaryKeys.png" width="11px" height="12px" preserveAspectRatio="xMinYMin meet" x="227.5" y="-898.24"/>
<text text-anchor="start" x="242.5" y="-888.3404" font-family="Helvetica,sans-Serif" font-size="11.00" fill="#000000">LoginProvider</text>
<polygon fill="none" stroke="#000000" points="353.5,-881.2404 353.5,-903.2404 443.5,-903.2404 443.5,-881.2404 353.5,-881.2404"/>
<text text-anchor="start" x="356.0043" y="-888.9404" font-family="Helvetica,sans-Serif" font-size="11.00" fill="#000000">text[2147483647]</text>
<polygon fill="none" stroke="#000000" points="222.5,-859.2404 222.5,-881.2404 353.5,-881.2404 353.5,-859.2404 222.5,-859.2404"/>
<image xlink:href="../../images/primaryKeys.png" width="11px" height="12px" preserveAspectRatio="xMinYMin meet" x="227.5" y="-876.24"/>
<text text-anchor="start" x="242.5" y="-866.3404" font-family="Helvetica,sans-Serif" font-size="11.00" fill="#000000">Name</text>
<polygon fill="none" stroke="#000000" points="353.5,-859.2404 353.5,-881.2404 443.5,-881.2404 443.5,-859.2404 353.5,-859.2404"/>
<text text-anchor="start" x="356.0043" y="-866.9404" font-family="Helvetica,sans-Serif" font-size="11.00" fill="#000000">text[2147483647]</text>
<polygon fill="none" stroke="#000000" points="222.5,-837.2404 222.5,-859.2404 353.5,-859.2404 353.5,-837.2404 222.5,-837.2404"/>
<text text-anchor="start" x="242.5" y="-844.3404" font-family="Helvetica,sans-Serif" font-size="11.00" fill="#000000">Value</text>
<polygon fill="none" stroke="#000000" points="353.5,-837.2404 353.5,-859.2404 443.5,-859.2404 443.5,-837.2404 353.5,-837.2404"/>
<text text-anchor="start" x="356.0043" y="-844.9404" font-family="Helvetica,sans-Serif" font-size="11.00" fill="#000000">text[2147483647]</text>
<polygon fill="#ffffff" stroke="transparent" points="222.5,-818.2404 222.5,-837.2404 279.5,-837.2404 279.5,-818.2404 222.5,-818.2404"/>
<polygon fill="none" stroke="#000000" points="222.5,-818.2404 222.5,-837.2404 279.5,-837.2404 279.5,-818.2404 222.5,-818.2404"/>
<text text-anchor="start" x="225.5" y="-824.3404" font-family="Helvetica,sans-Serif" font-size="11.00" fill="#000000">&lt; 1</text>
<polygon fill="#ffffff" stroke="transparent" points="279.5,-818.2404 279.5,-837.2404 353.5,-837.2404 353.5,-818.2404 279.5,-818.2404"/>
<polygon fill="none" stroke="#000000" points="279.5,-818.2404 279.5,-837.2404 353.5,-837.2404 353.5,-818.2404 279.5,-818.2404"/>
<text text-anchor="start" x="318.1105" y="-824.3404" font-family="Helvetica,sans-Serif" font-size="11.00" fill="#000000">0 rows</text>
<polygon fill="#ffffff" stroke="transparent" points="353.5,-818.2404 353.5,-837.2404 443.5,-837.2404 443.5,-818.2404 353.5,-818.2404"/>
<polygon fill="none" stroke="#000000" points="353.5,-818.2404 353.5,-837.2404 443.5,-837.2404 443.5,-818.2404 353.5,-818.2404"/>
<text text-anchor="start" x="424.9053" y="-824.3404" font-family="Helvetica,sans-Serif" font-size="11.00" fill="#000000">0 &gt;</text>
<polygon fill="none" stroke="#000000" stroke-width="2" points="221,-817.2404 221,-949.2404 444,-949.2404 444,-817.2404 221,-817.2404"/>
</a>
</g>
</g>
<!-- AspNetUserTokens&#45;&gt;AspNetUsers -->
<g id="edge4" class="edge">
<title>AspNetUserTokens:w&#45;&gt;AspNetUsers:e</title>
<path fill="none" stroke="#000000" d="M208.5749,-909.6002C154.3943,-867.1166 248.3714,-547.2404 171.5,-547.2404"/>
<polygon fill="#000000" stroke="#000000" points="214.9103,-911.7113 221.3619,-917.6558 218.7051,-912.9759 222.5,-914.2404 222.5,-914.2404 222.5,-914.2404 218.7051,-912.9759 223.6381,-910.8251 214.9103,-911.7113 214.9103,-911.7113"/>
<ellipse fill="none" stroke="#000000" cx="211.8744" cy="-910.6996" rx="3.2" ry="3.2"/>
</g>
<!-- Competencies -->
<g id="node6" class="node">
<title>Competencies</title>
<g id="a_node6"><a xlink:href="../../tables/Competencies.html" xlink:title="Competencies" target="_top">
<polygon fill="#ffffff" stroke="transparent" points="272,-655.7404 272,-716.7404 393,-716.7404 393,-655.7404 272,-655.7404"/>
<polygon fill="#f5f5f5" stroke="transparent" points="272.5,-693.2404 272.5,-716.2404 393.5,-716.2404 393.5,-693.2404 272.5,-693.2404"/>
<polygon fill="none" stroke="#000000" points="272.5,-693.2404 272.5,-716.2404 393.5,-716.2404 393.5,-693.2404 272.5,-693.2404"/>
<text text-anchor="start" x="277.5" y="-701.8404" font-family="Helvetica,sans-Serif" font-weight="bold" font-size="11.00" fill="#000000">Competencies</text>
<text text-anchor="start" x="359.0219" y="-701.3404" font-family="Helvetica,sans-Serif" font-size="11.00" fill="#000000">[table]</text>
<polygon fill="none" stroke="#000000" points="272.5,-674.2404 272.5,-693.2404 393.5,-693.2404 393.5,-674.2404 272.5,-674.2404"/>
<text text-anchor="start" x="275.5" y="-680.3404" font-family="Helvetica,sans-Serif" font-size="11.00" fill="#000000">...</text>
<polygon fill="#ffffff" stroke="transparent" points="272.5,-655.2404 272.5,-674.2404 313.5,-674.2404 313.5,-655.2404 272.5,-655.2404"/>
<polygon fill="none" stroke="#000000" points="272.5,-655.2404 272.5,-674.2404 313.5,-674.2404 313.5,-655.2404 272.5,-655.2404"/>
<text text-anchor="start" x="275.5" y="-661.3404" font-family="Helvetica,sans-Serif" font-size="11.00" fill="#000000">&lt; 2</text>
<polygon fill="#ffffff" stroke="transparent" points="313.5,-655.2404 313.5,-674.2404 361.5,-674.2404 361.5,-655.2404 313.5,-655.2404"/>
<polygon fill="none" stroke="#000000" points="313.5,-655.2404 313.5,-674.2404 361.5,-674.2404 361.5,-655.2404 313.5,-655.2404"/>
<text text-anchor="start" x="326.1105" y="-661.3404" font-family="Helvetica,sans-Serif" font-size="11.00" fill="#000000">5 rows</text>
<polygon fill="#ffffff" stroke="transparent" points="361.5,-655.2404 361.5,-674.2404 393.5,-674.2404 393.5,-655.2404 361.5,-655.2404"/>
<polygon fill="none" stroke="#000000" points="361.5,-655.2404 361.5,-674.2404 393.5,-674.2404 393.5,-655.2404 361.5,-655.2404"/>
<text text-anchor="start" x="374.9053" y="-661.3404" font-family="Helvetica,sans-Serif" font-size="11.00" fill="#000000">4 &gt;</text>
</a>
</g>
</g>
<!-- Competencies&#45;&gt;AspNetUsers -->
<g id="edge5" class="edge">
<title>Competencies:w&#45;&gt;AspNetUsers:e</title>
<path fill="none" stroke="#000000" d="M258.2895,-679.4353C237.0864,-671.5405 229.32,-656.424 212,-635.2404 183.2057,-600.023 216.9905,-541.2404 171.5,-547.2404"/>
<polygon fill="#000000" stroke="#000000" points="264.7722,-681.1712 271.5688,-686.7179 268.6361,-682.2058 272.5,-683.2404 272.5,-683.2404 272.5,-683.2404 268.6361,-682.2058 273.4312,-679.7629 264.7722,-681.1712 264.7722,-681.1712"/>
<ellipse fill="none" stroke="#000000" cx="261.6811" cy="-680.3434" rx="3.2" ry="3.2"/>
</g>
<!-- Competencies&#45;&gt;AspNetUsers -->
<g id="edge6" class="edge">
<title>Competencies:w&#45;&gt;AspNetUsers:e</title>
<path fill="none" stroke="#000000" d="M257.9931,-684.8362C237.0136,-684.3991 229.2391,-669.325 212,-648.2404 183.2057,-613.023 216.9905,-554.2404 171.5,-547.2404"/>
<polygon fill="#000000" stroke="#000000" points="264.548,-684.1152 272.8937,-686.8188 268.524,-683.6778 272.5,-683.2404 272.5,-683.2404 272.5,-683.2404 268.524,-683.6778 272.1063,-679.662 264.548,-684.1152 264.548,-684.1152"/>
<ellipse fill="none" stroke="#000000" cx="261.3672" cy="-684.4652" rx="3.2" ry="3.2"/>
</g>
<!-- CompetencyLevelDescriptions -->
<g id="node7" class="node">
<title>CompetencyLevelDescriptions</title>
<g id="a_node7"><a xlink:href="../../tables/CompetencyLevelDescriptions.html" xlink:title="CompetencyLevelDescriptions" target="_top">
<polygon fill="#ffffff" stroke="transparent" points="494,-771.7404 494,-832.7404 708,-832.7404 708,-771.7404 494,-771.7404"/>
<polygon fill="#f5f5f5" stroke="transparent" points="494,-809.2404 494,-832.2404 708,-832.2404 708,-809.2404 494,-809.2404"/>
<polygon fill="none" stroke="#000000" points="494,-809.2404 494,-832.2404 708,-832.2404 708,-809.2404 494,-809.2404"/>
<text text-anchor="start" x="499" y="-817.8404" font-family="Helvetica,sans-Serif" font-weight="bold" font-size="11.00" fill="#000000">CompetencyLevelDescriptions</text>
<text text-anchor="start" x="673.5219" y="-817.3404" font-family="Helvetica,sans-Serif" font-size="11.00" fill="#000000">[table]</text>
<polygon fill="none" stroke="#000000" points="494,-790.2404 494,-809.2404 708,-809.2404 708,-790.2404 494,-790.2404"/>
<text text-anchor="start" x="497" y="-796.3404" font-family="Helvetica,sans-Serif" font-size="11.00" fill="#000000">...</text>
<polygon fill="#ffffff" stroke="transparent" points="494,-771.2404 494,-790.2404 583,-790.2404 583,-771.2404 494,-771.2404"/>
<polygon fill="none" stroke="#000000" points="494,-771.2404 494,-790.2404 583,-790.2404 583,-771.2404 494,-771.2404"/>
<text text-anchor="start" x="497" y="-777.3404" font-family="Helvetica,sans-Serif" font-size="11.00" fill="#000000">&lt; 3</text>
<polygon fill="#ffffff" stroke="transparent" points="583,-771.2404 583,-790.2404 661,-790.2404 661,-771.2404 583,-771.2404"/>
<polygon fill="none" stroke="#000000" points="583,-771.2404 583,-790.2404 661,-790.2404 661,-771.2404 583,-771.2404"/>
<text text-anchor="start" x="619.4956" y="-777.3404" font-family="Helvetica,sans-Serif" font-size="11.00" fill="#000000">20 rows</text>
<polygon fill="#ffffff" stroke="transparent" points="661,-771.2404 661,-790.2404 708,-790.2404 708,-771.2404 661,-771.2404"/>
<polygon fill="none" stroke="#000000" points="661,-771.2404 661,-790.2404 708,-790.2404 708,-771.2404 661,-771.2404"/>
<text text-anchor="start" x="698.8862" y="-777.3404" font-family="Helvetica,sans-Serif" font-size="11.00" fill="#000000"> &#160;</text>
</a>
</g>
</g>
<!-- CompetencyLevelDescriptions&#45;&gt;AspNetUsers -->
<g id="edge8" class="edge">
<title>CompetencyLevelDescriptions:w&#45;&gt;AspNetUsers:e</title>
<path fill="none" stroke="#000000" d="M479.5819,-799.3249C407.7835,-800.0083 254.8147,-803.6261 212,-763.2404 140.9487,-696.2202 269.1729,-547.2404 171.5,-547.2404"/>
<polygon fill="#000000" stroke="#000000" points="486.0001,-799.2874 494.0211,-802.8404 490.0001,-799.2639 494,-799.2404 494,-799.2404 494,-799.2404 490.0001,-799.2639 493.9789,-795.6405 486.0001,-799.2874 486.0001,-799.2874"/>
<ellipse fill="none" stroke="#000000" cx="482.8002" cy="-799.3061" rx="3.2" ry="3.2"/>
</g>
<!-- CompetencyLevelDescriptions&#45;&gt;AspNetUsers -->
<g id="edge9" class="edge">
<title>CompetencyLevelDescriptions:w&#45;&gt;AspNetUsers:e</title>
<path fill="none" stroke="#000000" d="M479.5589,-799.2756C407.6623,-799.5212 254.6819,-799.9269 212,-759.2404 142.5664,-693.0528 267.4262,-547.2404 171.5,-547.2404"/>
<polygon fill="#000000" stroke="#000000" points="486,-799.26 494.0088,-802.8404 490,-799.2502 494,-799.2404 494,-799.2404 494,-799.2404 490,-799.2502 493.9912,-795.6404 486,-799.26 486,-799.26"/>
<ellipse fill="none" stroke="#000000" cx="482.8" cy="-799.2678" rx="3.2" ry="3.2"/>
</g>
<!-- CompetencyLevelDescriptions&#45;&gt;Competencies -->
<g id="edge7" class="edge">
<title>CompetencyLevelDescriptions:w&#45;&gt;Competencies:e</title>
<path fill="none" stroke="#000000" d="M479.5092,-797.128C430.8726,-781.4062 456.2511,-683.2404 393.5,-683.2404"/>
<polygon fill="#000000" stroke="#000000" points="486.0837,-798.0864 493.4807,-802.8028 490.0418,-798.6634 494,-799.2404 494,-799.2404 494,-799.2404 490.0418,-798.6634 494.5193,-795.6781 486.0837,-798.0864 486.0837,-798.0864"/>
<ellipse fill="none" stroke="#000000" cx="482.9171" cy="-797.6247" rx="3.2" ry="3.2"/>
</g>
<!-- Coordinators -->
<g id="node8" class="node">
<title>Coordinators</title>
<g id="a_node8"><a xlink:href="../../tables/Coordinators.html" xlink:title="Coordinators" target="_top">
<polygon fill="#ffffff" stroke="transparent" points="544,-154.7404 544,-215.7404 658,-215.7404 658,-154.7404 544,-154.7404"/>
<polygon fill="#f5f5f5" stroke="transparent" points="544,-192.2404 544,-215.2404 658,-215.2404 658,-192.2404 544,-192.2404"/>
<polygon fill="none" stroke="#000000" points="544,-192.2404 544,-215.2404 658,-215.2404 658,-192.2404 544,-192.2404"/>
<text text-anchor="start" x="549" y="-200.8404" font-family="Helvetica,sans-Serif" font-weight="bold" font-size="11.00" fill="#000000">Coordinators</text>
<text text-anchor="start" x="623.5219" y="-200.3404" font-family="Helvetica,sans-Serif" font-size="11.00" fill="#000000">[table]</text>
<polygon fill="none" stroke="#000000" points="544,-173.2404 544,-192.2404 658,-192.2404 658,-173.2404 544,-173.2404"/>
<text text-anchor="start" x="547" y="-179.3404" font-family="Helvetica,sans-Serif" font-size="11.00" fill="#000000">...</text>
<polygon fill="#ffffff" stroke="transparent" points="544,-154.2404 544,-173.2404 586,-173.2404 586,-154.2404 544,-154.2404"/>
<polygon fill="none" stroke="#000000" points="544,-154.2404 544,-173.2404 586,-173.2404 586,-154.2404 544,-154.2404"/>
<text text-anchor="start" x="547" y="-160.3404" font-family="Helvetica,sans-Serif" font-size="11.00" fill="#000000">&lt; 2</text>
<polygon fill="#ffffff" stroke="transparent" points="586,-154.2404 586,-173.2404 635,-173.2404 635,-154.2404 586,-154.2404"/>
<polygon fill="none" stroke="#000000" points="586,-154.2404 586,-173.2404 635,-173.2404 635,-154.2404 586,-154.2404"/>
<text text-anchor="start" x="599.6105" y="-160.3404" font-family="Helvetica,sans-Serif" font-size="11.00" fill="#000000">0 rows</text>
<polygon fill="#ffffff" stroke="transparent" points="635,-154.2404 635,-173.2404 658,-173.2404 658,-154.2404 635,-154.2404"/>
<polygon fill="none" stroke="#000000" points="635,-154.2404 635,-173.2404 658,-173.2404 658,-154.2404 635,-154.2404"/>
<text text-anchor="start" x="648.8862" y="-160.3404" font-family="Helvetica,sans-Serif" font-size="11.00" fill="#000000"> &#160;</text>
</a>
</g>
</g>
<!-- Coordinators&#45;&gt;AspNetUsers -->
<g id="edge11" class="edge">
<title>Coordinators:w&#45;&gt;AspNetUsers:e</title>
<path fill="none" stroke="#000000" d="M533.2054,-182.1394C391.0684,-179.4924 313.996,-126.5463 212,-230.2404 162.1997,-280.8699 242.517,-547.2404 171.5,-547.2404"/>
<polygon fill="#000000" stroke="#000000" points="543.2375,-178.2331 543.1626,-186.2328 541.5626,-186.2178 541.6376,-178.2181 543.2375,-178.2331"/>
<polyline fill="none" stroke="#000000" points="544,-182.2404 540.0002,-182.203 "/>
<ellipse fill="none" stroke="#000000" cx="536.8003" cy="-182.173" rx="3.2" ry="3.2"/>
</g>
<!-- TechnicalCareers -->
<g id="node9" class="node">
<title>TechnicalCareers</title>
<g id="a_node9"><a xlink:href="../../tables/TechnicalCareers.html" xlink:title="TechnicalCareers" target="_top">
<polygon fill="#ffffff" stroke="transparent" points="263,-294.7404 263,-355.7404 402,-355.7404 402,-294.7404 263,-294.7404"/>
<polygon fill="#f5f5f5" stroke="transparent" points="263.5,-332.2404 263.5,-355.2404 402.5,-355.2404 402.5,-332.2404 263.5,-332.2404"/>
<polygon fill="none" stroke="#000000" points="263.5,-332.2404 263.5,-355.2404 402.5,-355.2404 402.5,-332.2404 263.5,-332.2404"/>
<text text-anchor="start" x="268.5" y="-340.8404" font-family="Helvetica,sans-Serif" font-weight="bold" font-size="11.00" fill="#000000">TechnicalCareers</text>
<text text-anchor="start" x="368.0219" y="-340.3404" font-family="Helvetica,sans-Serif" font-size="11.00" fill="#000000">[table]</text>
<polygon fill="none" stroke="#000000" points="263.5,-313.2404 263.5,-332.2404 402.5,-332.2404 402.5,-313.2404 263.5,-313.2404"/>
<text text-anchor="start" x="266.5" y="-319.3404" font-family="Helvetica,sans-Serif" font-size="11.00" fill="#000000">...</text>
<polygon fill="#ffffff" stroke="transparent" points="263.5,-294.2404 263.5,-313.2404 313.5,-313.2404 313.5,-294.2404 263.5,-294.2404"/>
<polygon fill="none" stroke="#000000" points="263.5,-294.2404 263.5,-313.2404 313.5,-313.2404 313.5,-294.2404 263.5,-294.2404"/>
<text text-anchor="start" x="266.5" y="-300.3404" font-family="Helvetica,sans-Serif" font-size="11.00" fill="#000000">&lt; 2</text>
<polygon fill="#ffffff" stroke="transparent" points="313.5,-294.2404 313.5,-313.2404 366.5,-313.2404 366.5,-294.2404 313.5,-294.2404"/>
<polygon fill="none" stroke="#000000" points="313.5,-294.2404 313.5,-313.2404 366.5,-313.2404 366.5,-294.2404 313.5,-294.2404"/>
<text text-anchor="start" x="331.1105" y="-300.3404" font-family="Helvetica,sans-Serif" font-size="11.00" fill="#000000">6 rows</text>
<polygon fill="#ffffff" stroke="transparent" points="366.5,-294.2404 366.5,-313.2404 402.5,-313.2404 402.5,-294.2404 366.5,-294.2404"/>
<polygon fill="none" stroke="#000000" points="366.5,-294.2404 366.5,-313.2404 402.5,-313.2404 402.5,-294.2404 366.5,-294.2404"/>
<text text-anchor="start" x="383.9053" y="-300.3404" font-family="Helvetica,sans-Serif" font-size="11.00" fill="#000000">6 &gt;</text>
</a>
</g>
</g>
<!-- Coordinators&#45;&gt;TechnicalCareers -->
<g id="edge10" class="edge">
<title>Coordinators:w&#45;&gt;TechnicalCareers:e</title>
<path fill="none" stroke="#000000" d="M529.2383,-183.718C459.3687,-198.6803 485.6117,-322.2404 402.5,-322.2404"/>
<polygon fill="#000000" stroke="#000000" points="536.0398,-183.0372 544.3586,-185.8225 540.0199,-182.6388 544,-182.2404 544,-182.2404 544,-182.2404 540.0199,-182.6388 543.6414,-178.6583 536.0398,-183.0372 536.0398,-183.0372"/>
<ellipse fill="none" stroke="#000000" cx="532.8557" cy="-183.356" rx="3.2" ry="3.2"/>
</g>
<!-- TechnicalCareers&#45;&gt;AspNetUsers -->
<g id="edge48" class="edge">
<title>TechnicalCareers:w&#45;&gt;AspNetUsers:e</title>
<path fill="none" stroke="#000000" d="M249.0005,-321.4907C230.2054,-323.9485 224.8146,-342.0014 212,-364.2404 171.7094,-434.1626 252.1997,-541.2404 171.5,-547.2404"/>
<polygon fill="#000000" stroke="#000000" points="255.5107,-321.8273 263.3141,-325.8356 259.5053,-322.0339 263.5,-322.2404 263.5,-322.2404 263.5,-322.2404 259.5053,-322.0339 263.6859,-318.6452 255.5107,-321.8273 255.5107,-321.8273"/>
<ellipse fill="none" stroke="#000000" cx="252.3149" cy="-321.662" rx="3.2" ry="3.2"/>
</g>
<!-- TechnicalCareers&#45;&gt;AspNetUsers -->
<g id="edge49" class="edge">
<title>TechnicalCareers:w&#45;&gt;AspNetUsers:e</title>
<path fill="none" stroke="#000000" d="M249.8143,-326.907C230.3579,-336.4335 224.9977,-354.6837 212,-377.2404 171.7094,-447.1626 252.1997,-554.2404 171.5,-547.2404"/>
<polygon fill="#000000" stroke="#000000" points="255.9281,-324.8224 264.6619,-325.6478 259.714,-323.5314 263.5,-322.2404 263.5,-322.2404 263.5,-322.2404 259.714,-323.5314 262.3381,-318.8331 255.9281,-324.8224 255.9281,-324.8224"/>
<ellipse fill="none" stroke="#000000" cx="252.8993" cy="-325.8551" rx="3.2" ry="3.2"/>
</g>
<!-- EvaluationPeriods -->
<g id="node10" class="node">
<title>EvaluationPeriods</title>
<g id="a_node10"><a xlink:href="../../tables/EvaluationPeriods.html" xlink:title="EvaluationPeriods" target="_top">
<polygon fill="#ffffff" stroke="transparent" points="529.5,-346.7404 529.5,-407.7404 672.5,-407.7404 672.5,-346.7404 529.5,-346.7404"/>
<polygon fill="#f5f5f5" stroke="transparent" points="530,-384.2404 530,-407.2404 673,-407.2404 673,-384.2404 530,-384.2404"/>
<polygon fill="none" stroke="#000000" points="530,-384.2404 530,-407.2404 673,-407.2404 673,-384.2404 530,-384.2404"/>
<text text-anchor="start" x="535" y="-392.8404" font-family="Helvetica,sans-Serif" font-weight="bold" font-size="11.00" fill="#000000">EvaluationPeriods</text>
<text text-anchor="start" x="638.5219" y="-392.3404" font-family="Helvetica,sans-Serif" font-size="11.00" fill="#000000">[table]</text>
<polygon fill="none" stroke="#000000" points="530,-365.2404 530,-384.2404 673,-384.2404 673,-365.2404 530,-365.2404"/>
<text text-anchor="start" x="533" y="-371.3404" font-family="Helvetica,sans-Serif" font-size="11.00" fill="#000000">...</text>
<polygon fill="#ffffff" stroke="transparent" points="530,-346.2404 530,-365.2404 582,-365.2404 582,-346.2404 530,-346.2404"/>
<polygon fill="none" stroke="#000000" points="530,-346.2404 530,-365.2404 582,-365.2404 582,-346.2404 530,-346.2404"/>
<text text-anchor="start" x="533" y="-352.3404" font-family="Helvetica,sans-Serif" font-size="11.00" fill="#000000">&lt; 2</text>
<polygon fill="#ffffff" stroke="transparent" points="582,-346.2404 582,-365.2404 636,-365.2404 636,-346.2404 582,-346.2404"/>
<polygon fill="none" stroke="#000000" points="582,-346.2404 582,-365.2404 636,-365.2404 636,-346.2404 582,-346.2404"/>
<text text-anchor="start" x="600.6105" y="-352.3404" font-family="Helvetica,sans-Serif" font-size="11.00" fill="#000000">0 rows</text>
<polygon fill="#ffffff" stroke="transparent" points="636,-346.2404 636,-365.2404 673,-365.2404 673,-346.2404 636,-346.2404"/>
<polygon fill="none" stroke="#000000" points="636,-346.2404 636,-365.2404 673,-365.2404 673,-346.2404 636,-346.2404"/>
<text text-anchor="start" x="654.4053" y="-352.3404" font-family="Helvetica,sans-Serif" font-size="11.00" fill="#000000">3 &gt;</text>
</a>
</g>
</g>
<!-- EvaluationPeriods&#45;&gt;AspNetUsers -->
<g id="edge12" class="edge">
<title>EvaluationPeriods:w&#45;&gt;AspNetUsers:e</title>
<path fill="none" stroke="#000000" d="M515.3074,-374.1425C435.3709,-373.2433 263.0783,-367.3882 212,-410.2404 163.3574,-451.0492 234.9938,-547.2404 171.5,-547.2404"/>
<polygon fill="#000000" stroke="#000000" points="522.0002,-374.1871 529.976,-377.8403 526.0001,-374.2138 530,-374.2404 530,-374.2404 530,-374.2404 526.0001,-374.2138 530.024,-370.6405 522.0002,-374.1871 522.0002,-374.1871"/>
<ellipse fill="none" stroke="#000000" cx="518.8002" cy="-374.1657" rx="3.2" ry="3.2"/>
</g>
<!-- EvaluationPeriods&#45;&gt;AspNetUsers -->
<g id="edge13" class="edge">
<title>EvaluationPeriods:w&#45;&gt;AspNetUsers:e</title>
<path fill="none" stroke="#000000" d="M515.2898,-374.1855C435.2762,-373.7061 263.0629,-371.2161 212,-414.2404 164.7463,-454.0552 233.291,-547.2404 171.5,-547.2404"/>
<polygon fill="#000000" stroke="#000000" points="522.0001,-374.2105 529.9865,-377.8404 526,-374.2255 530,-374.2404 530,-374.2404 530,-374.2404 526,-374.2255 530.0135,-370.6405 522.0001,-374.2105 522.0001,-374.2105"/>
<ellipse fill="none" stroke="#000000" cx="518.8001" cy="-374.1985" rx="3.2" ry="3.2"/>
</g>
<!-- FormQuestions -->
<g id="node11" class="node">
<title>FormQuestions</title>
<g id="a_node11"><a xlink:href="../../tables/FormQuestions.html" xlink:title="FormQuestions" target="_top">
<polygon fill="#ffffff" stroke="transparent" points="537.5,-616.7404 537.5,-677.7404 664.5,-677.7404 664.5,-616.7404 537.5,-616.7404"/>
<polygon fill="#f5f5f5" stroke="transparent" points="538,-654.2404 538,-677.2404 665,-677.2404 665,-654.2404 538,-654.2404"/>
<polygon fill="none" stroke="#000000" points="538,-654.2404 538,-677.2404 665,-677.2404 665,-654.2404 538,-654.2404"/>
<text text-anchor="start" x="543" y="-662.8404" font-family="Helvetica,sans-Serif" font-weight="bold" font-size="11.00" fill="#000000">FormQuestions</text>
<text text-anchor="start" x="630.5219" y="-662.3404" font-family="Helvetica,sans-Serif" font-size="11.00" fill="#000000">[table]</text>
<polygon fill="none" stroke="#000000" points="538,-635.2404 538,-654.2404 665,-654.2404 665,-635.2404 538,-635.2404"/>
<text text-anchor="start" x="541" y="-641.3404" font-family="Helvetica,sans-Serif" font-size="11.00" fill="#000000">...</text>
<polygon fill="#ffffff" stroke="transparent" points="538,-616.2404 538,-635.2404 582,-635.2404 582,-616.2404 538,-616.2404"/>
<polygon fill="none" stroke="#000000" points="538,-616.2404 538,-635.2404 582,-635.2404 582,-616.2404 538,-616.2404"/>
<text text-anchor="start" x="541" y="-622.3404" font-family="Helvetica,sans-Serif" font-size="11.00" fill="#000000">&lt; 3</text>
<polygon fill="#ffffff" stroke="transparent" points="582,-616.2404 582,-635.2404 632,-635.2404 632,-616.2404 582,-616.2404"/>
<polygon fill="none" stroke="#000000" points="582,-616.2404 582,-635.2404 632,-635.2404 632,-616.2404 582,-616.2404"/>
<text text-anchor="start" x="596.6105" y="-622.3404" font-family="Helvetica,sans-Serif" font-size="11.00" fill="#000000">0 rows</text>
<polygon fill="#ffffff" stroke="transparent" points="632,-616.2404 632,-635.2404 665,-635.2404 665,-616.2404 632,-616.2404"/>
<polygon fill="none" stroke="#000000" points="632,-616.2404 632,-635.2404 665,-635.2404 665,-616.2404 632,-616.2404"/>
<text text-anchor="start" x="646.4053" y="-622.3404" font-family="Helvetica,sans-Serif" font-size="11.00" fill="#000000">1 &gt;</text>
</a>
</g>
</g>
<!-- FormQuestions&#45;&gt;AspNetUsers -->
<g id="edge15" class="edge">
<title>FormQuestions:w&#45;&gt;AspNetUsers:e</title>
<path fill="none" stroke="#000000" d="M523.5002,-644.18C442.4133,-643.5243 271.1333,-637.055 212,-602.2404 185.8404,-586.839 201.8567,-547.2404 171.5,-547.2404"/>
<polygon fill="#000000" stroke="#000000" points="530.0001,-644.2071 537.985,-647.8404 534,-644.2237 538,-644.2404 538,-644.2404 538,-644.2404 534,-644.2237 538.015,-640.6405 530.0001,-644.2071 530.0001,-644.2071"/>
<ellipse fill="none" stroke="#000000" cx="526.8001" cy="-644.1937" rx="3.2" ry="3.2"/>
</g>
<!-- FormQuestions&#45;&gt;AspNetUsers -->
<g id="edge16" class="edge">
<title>FormQuestions:w&#45;&gt;AspNetUsers:e</title>
<path fill="none" stroke="#000000" d="M523.4868,-644.1305C442.371,-642.9737 271.6501,-632.3871 212,-598.2404 186.8803,-583.8607 200.4444,-547.2404 171.5,-547.2404"/>
<polygon fill="#000000" stroke="#000000" points="530.0002,-644.1798 537.9727,-647.8403 534.0001,-644.2101 538,-644.2404 538,-644.2404 538,-644.2404 534.0001,-644.2101 538.0273,-640.6405 530.0002,-644.1798 530.0002,-644.1798"/>
<ellipse fill="none" stroke="#000000" cx="526.8003" cy="-644.1555" rx="3.2" ry="3.2"/>
</g>
<!-- FormQuestions&#45;&gt;Competencies -->
<g id="edge14" class="edge">
<title>FormQuestions:w&#45;&gt;Competencies:e</title>
<path fill="none" stroke="#000000" d="M523.365,-644.9173C469.3532,-650.0961 454.8233,-683.2404 393.5,-683.2404"/>
<polygon fill="#000000" stroke="#000000" points="530.0085,-644.6101 538.1664,-647.8366 534.0043,-644.4253 538,-644.2404 538,-644.2404 538,-644.2404 534.0043,-644.4253 537.8336,-640.6443 530.0085,-644.6101 530.0085,-644.6101"/>
<ellipse fill="none" stroke="#000000" cx="526.812" cy="-644.758" rx="3.2" ry="3.2"/>
</g>
<!-- ProfessorCompetencyAssignments -->
<g id="node12" class="node">
<title>ProfessorCompetencyAssignments</title>
<g id="a_node12"><a xlink:href="../../tables/ProfessorCompetencyAssignments.html" xlink:title="ProfessorCompetencyAssignments" target="_top">
<polygon fill="#ffffff" stroke="transparent" points="757,-490.7404 757,-551.7404 999,-551.7404 999,-490.7404 757,-490.7404"/>
<polygon fill="#f5f5f5" stroke="transparent" points="757,-528.2404 757,-551.2404 999,-551.2404 999,-528.2404 757,-528.2404"/>
<polygon fill="none" stroke="#000000" points="757,-528.2404 757,-551.2404 999,-551.2404 999,-528.2404 757,-528.2404"/>
<text text-anchor="start" x="762" y="-536.8404" font-family="Helvetica,sans-Serif" font-weight="bold" font-size="11.00" fill="#000000">ProfessorCompetencyAssignments</text>
<text text-anchor="start" x="964.5219" y="-536.3404" font-family="Helvetica,sans-Serif" font-size="11.00" fill="#000000">[table]</text>
<polygon fill="none" stroke="#000000" points="757,-509.2404 757,-528.2404 999,-528.2404 999,-509.2404 757,-509.2404"/>
<text text-anchor="start" x="760" y="-515.3404" font-family="Helvetica,sans-Serif" font-size="11.00" fill="#000000">...</text>
<polygon fill="#ffffff" stroke="transparent" points="757,-490.2404 757,-509.2404 859,-509.2404 859,-490.2404 757,-490.2404"/>
<polygon fill="none" stroke="#000000" points="757,-490.2404 757,-509.2404 859,-509.2404 859,-490.2404 757,-490.2404"/>
<text text-anchor="start" x="760" y="-496.3404" font-family="Helvetica,sans-Serif" font-size="11.00" fill="#000000">&lt; 7</text>
<polygon fill="#ffffff" stroke="transparent" points="859,-490.2404 859,-509.2404 937,-509.2404 937,-490.2404 859,-490.2404"/>
<polygon fill="none" stroke="#000000" points="859,-490.2404 859,-509.2404 937,-509.2404 937,-490.2404 859,-490.2404"/>
<text text-anchor="start" x="901.6105" y="-496.3404" font-family="Helvetica,sans-Serif" font-size="11.00" fill="#000000">0 rows</text>
<polygon fill="#ffffff" stroke="transparent" points="937,-490.2404 937,-509.2404 999,-509.2404 999,-490.2404 937,-490.2404"/>
<polygon fill="none" stroke="#000000" points="937,-490.2404 937,-509.2404 999,-509.2404 999,-490.2404 937,-490.2404"/>
<text text-anchor="start" x="980.4053" y="-496.3404" font-family="Helvetica,sans-Serif" font-size="11.00" fill="#000000">1 &gt;</text>
</a>
</g>
</g>
<!-- ProfessorCompetencyAssignments&#45;&gt;AspNetUsers -->
<g id="edge18" class="edge">
<title>ProfessorCompetencyAssignments:w&#45;&gt;AspNetUsers:e</title>
<path fill="none" stroke="#000000" d="M742.3194,-518.509C641.5472,-521.4325 232.946,-547.2404 171.5,-547.2404"/>
<polygon fill="#000000" stroke="#000000" points="749.0013,-518.3868 757.0659,-521.8398 753.0007,-518.3136 757,-518.2404 757,-518.2404 757,-518.2404 753.0007,-518.3136 756.9341,-514.641 749.0013,-518.3868 749.0013,-518.3868"/>
<ellipse fill="none" stroke="#000000" cx="745.8019" cy="-518.4454" rx="3.2" ry="3.2"/>
</g>
<!-- ProfessorCompetencyAssignments&#45;&gt;AspNetUsers -->
<g id="edge23" class="edge">
<title>ProfessorCompetencyAssignments:w&#45;&gt;AspNetUsers:e</title>
<path fill="none" stroke="#000000" d="M742.3262,-518.2716C493.9343,-519.3344 427.0797,-547.2404 171.5,-547.2404"/>
<polygon fill="#000000" stroke="#000000" points="749,-518.2575 757.0077,-521.8404 753,-518.2489 757,-518.2404 757,-518.2404 757,-518.2404 753,-518.2489 756.9923,-514.6404 749,-518.2575 749,-518.2575"/>
<ellipse fill="none" stroke="#000000" cx="745.8" cy="-518.2643" rx="3.2" ry="3.2"/>
</g>
<!-- ProfessorCompetencyAssignments&#45;&gt;Competencies -->
<g id="edge17" class="edge">
<title>ProfessorCompetencyAssignments:w&#45;&gt;Competencies:e</title>
<path fill="none" stroke="#000000" d="M742.4583,-520.1751C692.9178,-535.9304 772.5294,-643.7238 716,-688.2404 659.6892,-732.5849 465.1753,-683.2404 393.5,-683.2404"/>
<polygon fill="#000000" stroke="#000000" points="749.0699,-519.2955 757.4748,-521.809 753.0349,-518.768 757,-518.2404 757,-518.2404 757,-518.2404 753.0349,-518.768 756.5252,-514.6719 749.0699,-519.2955 749.0699,-519.2955"/>
<ellipse fill="none" stroke="#000000" cx="745.8978" cy="-519.7175" rx="3.2" ry="3.2"/>
</g>
<!-- ProfessorCompetencyAssignments&#45;&gt;TechnicalCareers -->
<g id="edge22" class="edge">
<title>ProfessorCompetencyAssignments:w&#45;&gt;TechnicalCareers:e</title>
<path fill="none" stroke="#000000" d="M742.5229,-516.5003C687.7174,-500.987 775.2353,-385.8229 716,-336.2404 662.5249,-291.4795 472.2361,-322.2404 402.5,-322.2404"/>
<polygon fill="#000000" stroke="#000000" points="749.0572,-517.2857 756.5704,-521.8147 753.0286,-517.7631 757,-518.2404 757,-518.2404 757,-518.2404 753.0286,-517.7631 757.4296,-514.6662 749.0572,-517.2857 749.0572,-517.2857"/>
<ellipse fill="none" stroke="#000000" cx="745.88" cy="-516.9038" rx="3.2" ry="3.2"/>
</g>
<!-- ProfessorCompetencyAssignments&#45;&gt;EvaluationPeriods -->
<g id="edge19" class="edge">
<title>ProfessorCompetencyAssignments:w&#45;&gt;EvaluationPeriods:e</title>
<path fill="none" stroke="#000000" d="M742.5292,-515.5899C716.3855,-503.5835 739.0865,-453.3628 716,-418.2404 700.9809,-395.3913 700.3433,-374.2404 673,-374.2404"/>
<polygon fill="#000000" stroke="#000000" points="749.1309,-516.7991 756.3514,-521.7815 753.0655,-517.5197 757,-518.2404 757,-518.2404 757,-518.2404 753.0655,-517.5197 757.6486,-514.6993 749.1309,-516.7991 749.1309,-516.7991"/>
<ellipse fill="none" stroke="#000000" cx="745.9833" cy="-516.2225" rx="3.2" ry="3.2"/>
</g>
<!-- Professors -->
<g id="node13" class="node">
<title>Professors</title>
<g id="a_node13"><a xlink:href="../../tables/Professors.html" xlink:title="Professors" target="_top">
<polygon fill="#ffffff" stroke="transparent" points="282,-455.7404 282,-516.7404 383,-516.7404 383,-455.7404 282,-455.7404"/>
<polygon fill="#f5f5f5" stroke="transparent" points="282.5,-493.2404 282.5,-516.2404 383.5,-516.2404 383.5,-493.2404 282.5,-493.2404"/>
<polygon fill="none" stroke="#000000" points="282.5,-493.2404 282.5,-516.2404 383.5,-516.2404 383.5,-493.2404 282.5,-493.2404"/>
<text text-anchor="start" x="287.5" y="-501.8404" font-family="Helvetica,sans-Serif" font-weight="bold" font-size="11.00" fill="#000000">Professors</text>
<text text-anchor="start" x="349.0219" y="-501.3404" font-family="Helvetica,sans-Serif" font-size="11.00" fill="#000000">[table]</text>
<polygon fill="none" stroke="#000000" points="282.5,-474.2404 282.5,-493.2404 383.5,-493.2404 383.5,-474.2404 282.5,-474.2404"/>
<text text-anchor="start" x="285.5" y="-480.3404" font-family="Helvetica,sans-Serif" font-size="11.00" fill="#000000">...</text>
<polygon fill="#ffffff" stroke="transparent" points="282.5,-455.2404 282.5,-474.2404 313.5,-474.2404 313.5,-455.2404 282.5,-455.2404"/>
<polygon fill="none" stroke="#000000" points="282.5,-455.2404 282.5,-474.2404 313.5,-474.2404 313.5,-455.2404 282.5,-455.2404"/>
<text text-anchor="start" x="285.5" y="-461.3404" font-family="Helvetica,sans-Serif" font-size="11.00" fill="#000000">&lt; 1</text>
<polygon fill="#ffffff" stroke="transparent" points="313.5,-455.2404 313.5,-474.2404 356.5,-474.2404 356.5,-455.2404 313.5,-455.2404"/>
<polygon fill="none" stroke="#000000" points="313.5,-455.2404 313.5,-474.2404 356.5,-474.2404 356.5,-455.2404 313.5,-455.2404"/>
<text text-anchor="start" x="321.1105" y="-461.3404" font-family="Helvetica,sans-Serif" font-size="11.00" fill="#000000">0 rows</text>
<polygon fill="#ffffff" stroke="transparent" points="356.5,-455.2404 356.5,-474.2404 383.5,-474.2404 383.5,-455.2404 356.5,-455.2404"/>
<polygon fill="none" stroke="#000000" points="356.5,-455.2404 356.5,-474.2404 383.5,-474.2404 383.5,-455.2404 356.5,-455.2404"/>
<text text-anchor="start" x="364.9053" y="-461.3404" font-family="Helvetica,sans-Serif" font-size="11.00" fill="#000000">2 &gt;</text>
</a>
</g>
</g>
<!-- ProfessorCompetencyAssignments&#45;&gt;Professors -->
<g id="edge20" class="edge">
<title>ProfessorCompetencyAssignments:w&#45;&gt;Professors:e</title>
<path fill="none" stroke="#000000" d="M742.5905,-518.2193C633.6473,-517.887 600.9897,-513.5625 486,-500.2404 440.129,-494.9261 429.6779,-483.2404 383.5,-483.2404"/>
<polygon fill="#000000" stroke="#000000" points="749,-518.2286 756.9947,-521.8404 753,-518.2345 757,-518.2404 757,-518.2404 757,-518.2404 753,-518.2345 757.0053,-514.6404 749,-518.2286 749,-518.2286"/>
<ellipse fill="none" stroke="#000000" cx="745.8" cy="-518.2239" rx="3.2" ry="3.2"/>
</g>
<!-- Subjects -->
<g id="node14" class="node">
<title>Subjects</title>
<g id="a_node14"><a xlink:href="../../tables/Subjects.html" xlink:title="Subjects" target="_top">
<polygon fill="#ffffff" stroke="transparent" points="556.5,-428.7404 556.5,-489.7404 645.5,-489.7404 645.5,-428.7404 556.5,-428.7404"/>
<polygon fill="#f5f5f5" stroke="transparent" points="557,-466.2404 557,-489.2404 646,-489.2404 646,-466.2404 557,-466.2404"/>
<polygon fill="none" stroke="#000000" points="557,-466.2404 557,-489.2404 646,-489.2404 646,-466.2404 557,-466.2404"/>
<text text-anchor="start" x="562" y="-474.8404" font-family="Helvetica,sans-Serif" font-weight="bold" font-size="11.00" fill="#000000">Subjects</text>
<text text-anchor="start" x="611.5219" y="-474.3404" font-family="Helvetica,sans-Serif" font-size="11.00" fill="#000000">[table]</text>
<polygon fill="none" stroke="#000000" points="557,-447.2404 557,-466.2404 646,-466.2404 646,-447.2404 557,-447.2404"/>
<text text-anchor="start" x="560" y="-453.3404" font-family="Helvetica,sans-Serif" font-size="11.00" fill="#000000">...</text>
<polygon fill="#ffffff" stroke="transparent" points="557,-428.2404 557,-447.2404 582,-447.2404 582,-428.2404 557,-428.2404"/>
<polygon fill="none" stroke="#000000" points="557,-428.2404 557,-447.2404 582,-447.2404 582,-428.2404 557,-428.2404"/>
<text text-anchor="start" x="560" y="-434.3404" font-family="Helvetica,sans-Serif" font-size="11.00" fill="#000000">&lt; 4</text>
<polygon fill="#ffffff" stroke="transparent" points="582,-428.2404 582,-447.2404 622,-447.2404 622,-428.2404 582,-428.2404"/>
<polygon fill="none" stroke="#000000" points="582,-428.2404 582,-447.2404 622,-447.2404 622,-428.2404 582,-428.2404"/>
<text text-anchor="start" x="586.6105" y="-434.3404" font-family="Helvetica,sans-Serif" font-size="11.00" fill="#000000">0 rows</text>
<polygon fill="#ffffff" stroke="transparent" points="622,-428.2404 622,-447.2404 646,-447.2404 646,-428.2404 622,-428.2404"/>
<polygon fill="none" stroke="#000000" points="622,-428.2404 622,-447.2404 646,-447.2404 646,-428.2404 622,-428.2404"/>
<text text-anchor="start" x="627.4053" y="-434.3404" font-family="Helvetica,sans-Serif" font-size="11.00" fill="#000000">3 &gt;</text>
</a>
</g>
</g>
<!-- ProfessorCompetencyAssignments&#45;&gt;Subjects -->
<g id="edge21" class="edge">
<title>ProfessorCompetencyAssignments:w&#45;&gt;Subjects:e</title>
<path fill="none" stroke="#000000" d="M742.5539,-516.7078C700.356,-507.1603 697.2098,-456.2404 646,-456.2404"/>
<polygon fill="#000000" stroke="#000000" points="749.0446,-517.3964 756.6202,-521.8203 753.0223,-517.8184 757,-518.2404 757,-518.2404 757,-518.2404 753.0223,-517.8184 757.3798,-514.6605 749.0446,-517.3964 749.0446,-517.3964"/>
<ellipse fill="none" stroke="#000000" cx="745.8625" cy="-517.0588" rx="3.2" ry="3.2"/>
</g>
<!-- Professors&#45;&gt;AspNetUsers -->
<g id="edge24" class="edge">
<title>Professors:w&#45;&gt;AspNetUsers:e</title>
<path fill="none" stroke="#000000" d="M272.3062,-485.3698C242.5087,-496.4748 196.8588,-547.2404 171.5,-547.2404"/>
<polygon fill="#000000" stroke="#000000" points="280.899,-479.4885 282.5348,-487.3195 280.9686,-487.6467 279.3328,-479.8157 280.899,-479.4885"/>
<polyline fill="none" stroke="#000000" points="282.5,-483.2404 278.5845,-484.0584 "/>
<ellipse fill="none" stroke="#000000" cx="275.4521" cy="-484.7127" rx="3.2" ry="3.2"/>
</g>
<!-- Subjects&#45;&gt;AspNetUsers -->
<g id="edge44" class="edge">
<title>Subjects:w&#45;&gt;AspNetUsers:e</title>
<path fill="none" stroke="#000000" d="M542.4397,-455.9471C399.3563,-450.1681 334.8352,-361.8494 212,-445.2404 171.6448,-472.637 220.2761,-547.2404 171.5,-547.2404"/>
<polygon fill="#000000" stroke="#000000" points="549.0016,-456.0792 556.9275,-459.8397 553.0008,-456.1598 557,-456.2404 557,-456.2404 557,-456.2404 553.0008,-456.1598 557.0725,-452.6412 549.0016,-456.0792 549.0016,-456.0792"/>
<ellipse fill="none" stroke="#000000" cx="545.8023" cy="-456.0147" rx="3.2" ry="3.2"/>
</g>
<!-- Subjects&#45;&gt;AspNetUsers -->
<g id="edge47" class="edge">
<title>Subjects:w&#45;&gt;AspNetUsers:e</title>
<path fill="none" stroke="#000000" d="M542.4456,-455.962C399.4346,-450.4786 335.3754,-366.7314 212,-449.2404 172.8248,-475.4394 218.6284,-547.2404 171.5,-547.2404"/>
<polygon fill="#000000" stroke="#000000" points="549.0015,-456.0874 556.9311,-459.8398 553.0007,-456.1639 557,-456.2404 557,-456.2404 557,-456.2404 553.0007,-456.1639 557.0689,-452.6411 549.0015,-456.0874 549.0015,-456.0874"/>
<ellipse fill="none" stroke="#000000" cx="545.802" cy="-456.0261" rx="3.2" ry="3.2"/>
</g>
<!-- Subjects&#45;&gt;TechnicalCareers -->
<g id="edge46" class="edge">
<title>Subjects:w&#45;&gt;TechnicalCareers:e</title>
<path fill="none" stroke="#000000" d="M542.4569,-455.1803C518.5257,-451.3074 509.72,-437.1554 486,-418.2404 441.788,-382.9845 459.048,-322.2404 402.5,-322.2404"/>
<polygon fill="#000000" stroke="#000000" points="549.0212,-455.6588 556.7383,-459.8309 553.0106,-455.9496 557,-456.2404 557,-456.2404 557,-456.2404 553.0106,-455.9496 557.2617,-452.65 549.0212,-455.6588 549.0212,-455.6588"/>
<ellipse fill="none" stroke="#000000" cx="545.8296" cy="-455.4261" rx="3.2" ry="3.2"/>
</g>
<!-- Subjects&#45;&gt;Professors -->
<g id="edge45" class="edge">
<title>Subjects:w&#45;&gt;Professors:e</title>
<path fill="none" stroke="#000000" d="M542.2196,-456.5818C476.3797,-459.7073 456.3569,-483.2404 383.5,-483.2404"/>
<polygon fill="#000000" stroke="#000000" points="549.0021,-456.4252 557.0831,-459.8395 553.0011,-456.3328 557,-456.2404 557,-456.2404 557,-456.2404 553.0011,-456.3328 556.9169,-452.6414 549.0021,-456.4252 549.0021,-456.4252"/>
<ellipse fill="none" stroke="#000000" cx="545.803" cy="-456.4991" rx="3.2" ry="3.2"/>
</g>
<!-- QuestionResponses -->
<g id="node15" class="node">
<title>QuestionResponses</title>
<g id="a_node15"><a xlink:href="../../tables/QuestionResponses.html" xlink:title="QuestionResponses" target="_top">
<polygon fill="#ffffff" stroke="transparent" points="1320,-682.7404 1320,-743.7404 1475,-743.7404 1475,-682.7404 1320,-682.7404"/>
<polygon fill="#f5f5f5" stroke="transparent" points="1320.5,-720.2404 1320.5,-743.2404 1475.5,-743.2404 1475.5,-720.2404 1320.5,-720.2404"/>
<polygon fill="none" stroke="#000000" points="1320.5,-720.2404 1320.5,-743.2404 1475.5,-743.2404 1475.5,-720.2404 1320.5,-720.2404"/>
<text text-anchor="start" x="1325.5" y="-728.8404" font-family="Helvetica,sans-Serif" font-weight="bold" font-size="11.00" fill="#000000">QuestionResponses</text>
<text text-anchor="start" x="1441.0219" y="-728.3404" font-family="Helvetica,sans-Serif" font-size="11.00" fill="#000000">[table]</text>
<polygon fill="none" stroke="#000000" points="1320.5,-701.2404 1320.5,-720.2404 1475.5,-720.2404 1475.5,-701.2404 1320.5,-701.2404"/>
<text text-anchor="start" x="1323.5" y="-707.3404" font-family="Helvetica,sans-Serif" font-size="11.00" fill="#000000">...</text>
<polygon fill="#ffffff" stroke="transparent" points="1320.5,-682.2404 1320.5,-701.2404 1383.5,-701.2404 1383.5,-682.2404 1320.5,-682.2404"/>
<polygon fill="none" stroke="#000000" points="1320.5,-682.2404 1320.5,-701.2404 1383.5,-701.2404 1383.5,-682.2404 1320.5,-682.2404"/>
<text text-anchor="start" x="1323.5" y="-688.3404" font-family="Helvetica,sans-Serif" font-size="11.00" fill="#000000">&lt; 4</text>
<polygon fill="#ffffff" stroke="transparent" points="1383.5,-682.2404 1383.5,-701.2404 1442.5,-701.2404 1442.5,-682.2404 1383.5,-682.2404"/>
<polygon fill="none" stroke="#000000" points="1383.5,-682.2404 1383.5,-701.2404 1442.5,-701.2404 1442.5,-682.2404 1383.5,-682.2404"/>
<text text-anchor="start" x="1407.1105" y="-688.3404" font-family="Helvetica,sans-Serif" font-size="11.00" fill="#000000">0 rows</text>
<polygon fill="#ffffff" stroke="transparent" points="1442.5,-682.2404 1442.5,-701.2404 1475.5,-701.2404 1475.5,-682.2404 1442.5,-682.2404"/>
<polygon fill="none" stroke="#000000" points="1442.5,-682.2404 1442.5,-701.2404 1475.5,-701.2404 1475.5,-682.2404 1442.5,-682.2404"/>
<text text-anchor="start" x="1466.3862" y="-688.3404" font-family="Helvetica,sans-Serif" font-size="11.00" fill="#000000"> &#160;</text>
</a>
</g>
</g>
<!-- QuestionResponses&#45;&gt;AspNetUsers -->
<g id="edge25" class="edge">
<title>QuestionResponses:w&#45;&gt;AspNetUsers:e</title>
<path fill="none" stroke="#000000" d="M1306.0057,-710.5328C1139.992,-716.2047 305.0415,-801.6737 212,-727.2404 147.9688,-676.0154 253.5,-547.2404 171.5,-547.2404"/>
<polygon fill="#000000" stroke="#000000" points="1312.5016,-710.4018 1320.5726,-713.8397 1316.5008,-710.3211 1320.5,-710.2404 1320.5,-710.2404 1320.5,-710.2404 1316.5008,-710.3211 1320.4274,-706.6412 1312.5016,-710.4018 1312.5016,-710.4018"/>
<ellipse fill="none" stroke="#000000" cx="1309.3023" cy="-710.4664" rx="3.2" ry="3.2"/>
</g>
<!-- QuestionResponses&#45;&gt;AspNetUsers -->
<g id="edge28" class="edge">
<title>QuestionResponses:w&#45;&gt;AspNetUsers:e</title>
<path fill="none" stroke="#000000" d="M1306.0068,-710.5195C1140.0091,-715.9322 305.2176,-797.4436 212,-723.2404 149.2007,-673.2508 251.7665,-547.2404 171.5,-547.2404"/>
<polygon fill="#000000" stroke="#000000" points="1312.5015,-710.3945 1320.5693,-713.8398 1316.5007,-710.3175 1320.5,-710.2404 1320.5,-710.2404 1320.5,-710.2404 1316.5007,-710.3175 1320.4307,-706.6411 1312.5015,-710.3945 1312.5015,-710.3945"/>
<ellipse fill="none" stroke="#000000" cx="1309.3021" cy="-710.4561" rx="3.2" ry="3.2"/>
</g>
<!-- QuestionResponses&#45;&gt;FormQuestions -->
<g id="edge26" class="edge">
<title>QuestionResponses:w&#45;&gt;FormQuestions:e</title>
<path fill="none" stroke="#000000" d="M1306.0991,-710.1865C1025.3117,-708.0672 952.9453,-644.2404 665,-644.2404"/>
<polygon fill="#000000" stroke="#000000" points="1312.5001,-710.2104 1320.4865,-713.8404 1316.5,-710.2254 1320.5,-710.2404 1320.5,-710.2404 1320.5,-710.2404 1316.5,-710.2254 1320.5135,-706.6405 1312.5001,-710.2104 1312.5001,-710.2104"/>
<ellipse fill="none" stroke="#000000" cx="1309.3001" cy="-710.1984" rx="3.2" ry="3.2"/>
</g>
<!-- StudentCompetencyEvaluations -->
<g id="node16" class="node">
<title>StudentCompetencyEvaluations</title>
<g id="a_node16"><a xlink:href="../../tables/StudentCompetencyEvaluations.html" xlink:title="StudentCompetencyEvaluations" target="_top">
<polygon fill="#ffffff" stroke="transparent" points="1048,-540.7404 1048,-601.7404 1271,-601.7404 1271,-540.7404 1048,-540.7404"/>
<polygon fill="#f5f5f5" stroke="transparent" points="1048.5,-578.2404 1048.5,-601.2404 1271.5,-601.2404 1271.5,-578.2404 1048.5,-578.2404"/>
<polygon fill="none" stroke="#000000" points="1048.5,-578.2404 1048.5,-601.2404 1271.5,-601.2404 1271.5,-578.2404 1048.5,-578.2404"/>
<text text-anchor="start" x="1053.5" y="-586.8404" font-family="Helvetica,sans-Serif" font-weight="bold" font-size="11.00" fill="#000000">StudentCompetencyEvaluations</text>
<text text-anchor="start" x="1237.0219" y="-586.3404" font-family="Helvetica,sans-Serif" font-size="11.00" fill="#000000">[table]</text>
<polygon fill="none" stroke="#000000" points="1048.5,-559.2404 1048.5,-578.2404 1271.5,-578.2404 1271.5,-559.2404 1048.5,-559.2404"/>
<text text-anchor="start" x="1051.5" y="-565.3404" font-family="Helvetica,sans-Serif" font-size="11.00" fill="#000000">...</text>
<polygon fill="#ffffff" stroke="transparent" points="1048.5,-540.2404 1048.5,-559.2404 1140.5,-559.2404 1140.5,-540.2404 1048.5,-540.2404"/>
<polygon fill="none" stroke="#000000" points="1048.5,-540.2404 1048.5,-559.2404 1140.5,-559.2404 1140.5,-540.2404 1048.5,-540.2404"/>
<text text-anchor="start" x="1051.5" y="-546.3404" font-family="Helvetica,sans-Serif" font-size="11.00" fill="#000000">&lt; 5</text>
<polygon fill="#ffffff" stroke="transparent" points="1140.5,-540.2404 1140.5,-559.2404 1214.5,-559.2404 1214.5,-540.2404 1140.5,-540.2404"/>
<polygon fill="none" stroke="#000000" points="1140.5,-540.2404 1140.5,-559.2404 1214.5,-559.2404 1214.5,-540.2404 1140.5,-540.2404"/>
<text text-anchor="start" x="1179.1105" y="-546.3404" font-family="Helvetica,sans-Serif" font-size="11.00" fill="#000000">0 rows</text>
<polygon fill="#ffffff" stroke="transparent" points="1214.5,-540.2404 1214.5,-559.2404 1271.5,-559.2404 1271.5,-540.2404 1214.5,-540.2404"/>
<polygon fill="none" stroke="#000000" points="1214.5,-540.2404 1214.5,-559.2404 1271.5,-559.2404 1271.5,-540.2404 1214.5,-540.2404"/>
<text text-anchor="start" x="1252.9053" y="-546.3404" font-family="Helvetica,sans-Serif" font-size="11.00" fill="#000000">1 &gt;</text>
</a>
</g>
</g>
<!-- QuestionResponses&#45;&gt;StudentCompetencyEvaluations -->
<g id="edge27" class="edge">
<title>QuestionResponses:w&#45;&gt;StudentCompetencyEvaluations:e</title>
<path fill="none" stroke="#000000" d="M1305.9494,-707.0078C1267.7041,-685.871 1332.2647,-568.2404 1271.5,-568.2404"/>
<polygon fill="#000000" stroke="#000000" points="1312.6904,-708.5053 1319.7192,-713.7547 1316.5952,-709.3729 1320.5,-710.2404 1320.5,-710.2404 1320.5,-710.2404 1316.5952,-709.3729 1321.2808,-706.7261 1312.6904,-708.5053 1312.6904,-708.5053"/>
<ellipse fill="none" stroke="#000000" cx="1309.5666" cy="-707.8113" rx="3.2" ry="3.2"/>
</g>
<!-- StudentCompetencyEvaluations&#45;&gt;AspNetUsers -->
<g id="edge29" class="edge">
<title>StudentCompetencyEvaluations:w&#45;&gt;AspNetUsers:e</title>
<path fill="none" stroke="#000000" d="M1033.9372,-568.2591C674.1139,-569.1835 575.9247,-603.9348 212,-557.2404 193.6102,-554.8809 190.0406,-547.2404 171.5,-547.2404"/>
<polygon fill="#000000" stroke="#000000" points="1040.5,-568.2507 1048.5046,-571.8404 1044.5,-568.2456 1048.5,-568.2404 1048.5,-568.2404 1048.5,-568.2404 1044.5,-568.2456 1048.4954,-564.6404 1040.5,-568.2507 1040.5,-568.2507"/>
<ellipse fill="none" stroke="#000000" cx="1037.3" cy="-568.2549" rx="3.2" ry="3.2"/>
</g>
<!-- StudentCompetencyEvaluations&#45;&gt;AspNetUsers -->
<g id="edge33" class="edge">
<title>StudentCompetencyEvaluations:w&#45;&gt;AspNetUsers:e</title>
<path fill="none" stroke="#000000" d="M1033.9371,-568.2484C674.1335,-568.6449 577.6872,-583.4798 212,-553.2404 193.8654,-551.7408 189.6965,-547.2404 171.5,-547.2404"/>
<polygon fill="#000000" stroke="#000000" points="1040.5,-568.2449 1048.502,-571.8404 1044.5,-568.2427 1048.5,-568.2404 1048.5,-568.2404 1048.5,-568.2404 1044.5,-568.2427 1048.498,-564.6404 1040.5,-568.2449 1040.5,-568.2449"/>
<ellipse fill="none" stroke="#000000" cx="1037.3" cy="-568.2467" rx="3.2" ry="3.2"/>
</g>
<!-- StudentCompetencyEvaluations&#45;&gt;ProfessorCompetencyAssignments -->
<g id="edge30" class="edge">
<title>StudentCompetencyEvaluations:w&#45;&gt;ProfessorCompetencyAssignments:e</title>
<path fill="none" stroke="#000000" d="M1034.5883,-563.2634C1020.6334,-550.6165 1024.1628,-518.2404 999,-518.2404"/>
<polygon fill="#000000" stroke="#000000" points="1040.9675,-565.5456 1047.2873,-571.63 1044.7338,-566.893 1048.5,-568.2404 1048.5,-568.2404 1048.5,-568.2404 1044.7338,-566.893 1049.7127,-564.8508 1040.9675,-565.5456 1040.9675,-565.5456"/>
<ellipse fill="none" stroke="#000000" cx="1037.9545" cy="-564.4677" rx="3.2" ry="3.2"/>
</g>
<!-- StudentCompetencyEvaluations&#45;&gt;Subjects -->
<g id="edge32" class="edge">
<title>StudentCompetencyEvaluations:w&#45;&gt;Subjects:e</title>
<path fill="none" stroke="#000000" d="M1034.3441,-564.5627C1014.561,-550.6636 1037.5673,-501.0746 1007,-480.2404 874.1293,-389.6779 806.7986,-456.2404 646,-456.2404"/>
<polygon fill="#000000" stroke="#000000" points="1040.757,-566.2287 1047.5947,-571.7248 1044.6285,-567.2346 1048.5,-568.2404 1048.5,-568.2404 1048.5,-568.2404 1044.6285,-567.2346 1049.4053,-564.7561 1040.757,-566.2287 1040.757,-566.2287"/>
<ellipse fill="none" stroke="#000000" cx="1037.6599" cy="-565.4241" rx="3.2" ry="3.2"/>
</g>
<!-- Students -->
<g id="node17" class="node">
<title>Students</title>
<g id="a_node17"><a xlink:href="../../tables/Students.html" xlink:title="Students" target="_top">
<polygon fill="#ffffff" stroke="transparent" points="556,-236.7404 556,-297.7404 646,-297.7404 646,-236.7404 556,-236.7404"/>
<polygon fill="#f5f5f5" stroke="transparent" points="556,-274.2404 556,-297.2404 646,-297.2404 646,-274.2404 556,-274.2404"/>
<polygon fill="none" stroke="#000000" points="556,-274.2404 556,-297.2404 646,-297.2404 646,-274.2404 556,-274.2404"/>
<text text-anchor="start" x="561" y="-282.8404" font-family="Helvetica,sans-Serif" font-weight="bold" font-size="11.00" fill="#000000">Students</text>
<text text-anchor="start" x="611.5219" y="-282.3404" font-family="Helvetica,sans-Serif" font-size="11.00" fill="#000000">[table]</text>
<polygon fill="none" stroke="#000000" points="556,-255.2404 556,-274.2404 646,-274.2404 646,-255.2404 556,-255.2404"/>
<text text-anchor="start" x="559" y="-261.3404" font-family="Helvetica,sans-Serif" font-size="11.00" fill="#000000">...</text>
<polygon fill="#ffffff" stroke="transparent" points="556,-236.2404 556,-255.2404 582,-255.2404 582,-236.2404 556,-236.2404"/>
<polygon fill="none" stroke="#000000" points="556,-236.2404 556,-255.2404 582,-255.2404 582,-236.2404 556,-236.2404"/>
<text text-anchor="start" x="559" y="-242.3404" font-family="Helvetica,sans-Serif" font-size="11.00" fill="#000000">&lt; 2</text>
<polygon fill="#ffffff" stroke="transparent" points="582,-236.2404 582,-255.2404 622,-255.2404 622,-236.2404 582,-236.2404"/>
<polygon fill="none" stroke="#000000" points="582,-236.2404 582,-255.2404 622,-255.2404 622,-236.2404 582,-236.2404"/>
<text text-anchor="start" x="586.6105" y="-242.3404" font-family="Helvetica,sans-Serif" font-size="11.00" fill="#000000">0 rows</text>
<polygon fill="#ffffff" stroke="transparent" points="622,-236.2404 622,-255.2404 646,-255.2404 646,-236.2404 622,-236.2404"/>
<polygon fill="none" stroke="#000000" points="622,-236.2404 622,-255.2404 646,-255.2404 646,-236.2404 622,-236.2404"/>
<text text-anchor="start" x="627.4053" y="-242.3404" font-family="Helvetica,sans-Serif" font-size="11.00" fill="#000000">3 &gt;</text>
</a>
</g>
</g>
<!-- StudentCompetencyEvaluations&#45;&gt;Students -->
<g id="edge31" class="edge">
<title>StudentCompetencyEvaluations:w&#45;&gt;Students:e</title>
<path fill="none" stroke="#000000" d="M1034.1817,-566.1638C995.1975,-552.4601 1045.2597,-474.22 1007,-430.2404 949.047,-363.6233 734.2972,-264.2404 646,-264.2404"/>
<polygon fill="#000000" stroke="#000000" points="1040.5828,-567.0921 1047.9833,-571.8032 1044.5414,-567.6663 1048.5,-568.2404 1048.5,-568.2404 1048.5,-568.2404 1044.5414,-567.6663 1049.0167,-564.6777 1040.5828,-567.0921 1040.5828,-567.0921"/>
<ellipse fill="none" stroke="#000000" cx="1037.416" cy="-566.6328" rx="3.2" ry="3.2"/>
</g>
<!-- Students&#45;&gt;AspNetUsers -->
<g id="edge39" class="edge">
<title>Students:w&#45;&gt;AspNetUsers:e</title>
<path fill="none" stroke="#000000" d="M545.355,-264.107C399.1978,-260.45 322.6412,-183.6122 212,-284.2404 168.2538,-324.0276 230.6334,-547.2404 171.5,-547.2404"/>
<polygon fill="#000000" stroke="#000000" points="555.2502,-260.2307 555.1499,-268.2301 553.55,-268.21 553.6503,-260.2106 555.2502,-260.2307"/>
<polyline fill="none" stroke="#000000" points="556,-264.2404 552.0003,-264.1903 "/>
<ellipse fill="none" stroke="#000000" cx="548.8006" cy="-264.1501" rx="3.2" ry="3.2"/>
</g>
<!-- Students&#45;&gt;TechnicalCareers -->
<g id="edge38" class="edge">
<title>Students:w&#45;&gt;TechnicalCareers:e</title>
<path fill="none" stroke="#000000" d="M541.5393,-265.0603C481.6729,-272.1099 470.302,-322.2404 402.5,-322.2404"/>
<polygon fill="#000000" stroke="#000000" points="548.0128,-264.6933 556.2038,-267.8347 552.0064,-264.4669 556,-264.2404 556,-264.2404 556,-264.2404 552.0064,-264.4669 555.7962,-260.6462 548.0128,-264.6933 548.0128,-264.6933"/>
<ellipse fill="none" stroke="#000000" cx="544.818" cy="-264.8745" rx="3.2" ry="3.2"/>
</g>
<!-- StudentEvaluationReport -->
<g id="node18" class="node">
<title>StudentEvaluationReport</title>
<g id="a_node18"><a xlink:href="../../tables/StudentEvaluationReport.html" xlink:title="StudentEvaluationReport" target="_top">
<polygon fill="#ffffff" stroke="transparent" points="786.5,-82.7404 786.5,-143.7404 969.5,-143.7404 969.5,-82.7404 786.5,-82.7404"/>
<polygon fill="#f5f5f5" stroke="transparent" points="787,-120.2404 787,-143.2404 970,-143.2404 970,-120.2404 787,-120.2404"/>
<polygon fill="none" stroke="#000000" points="787,-120.2404 787,-143.2404 970,-143.2404 970,-120.2404 787,-120.2404"/>
<text text-anchor="start" x="792" y="-128.8404" font-family="Helvetica,sans-Serif" font-weight="bold" font-size="11.00" fill="#000000">StudentEvaluationReport</text>
<text text-anchor="start" x="935.5219" y="-128.3404" font-family="Helvetica,sans-Serif" font-size="11.00" fill="#000000">[table]</text>
<polygon fill="none" stroke="#000000" points="787,-101.2404 787,-120.2404 970,-120.2404 970,-101.2404 787,-101.2404"/>
<text text-anchor="start" x="790" y="-107.3404" font-family="Helvetica,sans-Serif" font-size="11.00" fill="#000000">...</text>
<polygon fill="#ffffff" stroke="transparent" points="787,-82.2404 787,-101.2404 864,-101.2404 864,-82.2404 787,-82.2404"/>
<polygon fill="none" stroke="#000000" points="787,-82.2404 787,-101.2404 864,-101.2404 864,-82.2404 787,-82.2404"/>
<text text-anchor="start" x="790" y="-88.3404" font-family="Helvetica,sans-Serif" font-size="11.00" fill="#000000">&lt; 4</text>
<polygon fill="#ffffff" stroke="transparent" points="864,-82.2404 864,-101.2404 930,-101.2404 930,-82.2404 864,-82.2404"/>
<polygon fill="none" stroke="#000000" points="864,-82.2404 864,-101.2404 930,-101.2404 930,-82.2404 864,-82.2404"/>
<text text-anchor="start" x="894.6105" y="-88.3404" font-family="Helvetica,sans-Serif" font-size="11.00" fill="#000000">0 rows</text>
<polygon fill="#ffffff" stroke="transparent" points="930,-82.2404 930,-101.2404 970,-101.2404 970,-82.2404 930,-82.2404"/>
<polygon fill="none" stroke="#000000" points="930,-82.2404 930,-101.2404 970,-101.2404 970,-82.2404 930,-82.2404"/>
<text text-anchor="start" x="960.8862" y="-88.3404" font-family="Helvetica,sans-Serif" font-size="11.00" fill="#000000"> &#160;</text>
</a>
</g>
</g>
<!-- StudentEvaluationReport&#45;&gt;AspNetUsers -->
<g id="edge34" class="edge">
<title>StudentEvaluationReport:w&#45;&gt;AspNetUsers:e</title>
<path fill="none" stroke="#000000" d="M772.5349,-110.0576C526.4446,-103.8405 397.1337,57.7882 212,-111.2404 140.1397,-176.8495 268.806,-547.2404 171.5,-547.2404"/>
<polygon fill="#000000" stroke="#000000" points="779.0006,-110.1393 786.9545,-113.8401 783.0003,-110.1899 787,-110.2404 787,-110.2404 787,-110.2404 783.0003,-110.1899 787.0455,-106.6407 779.0006,-110.1393 779.0006,-110.1393"/>
<ellipse fill="none" stroke="#000000" cx="775.8009" cy="-110.0988" rx="3.2" ry="3.2"/>
</g>
<!-- StudentEvaluationReport&#45;&gt;AspNetUsers -->
<g id="edge37" class="edge">
<title>StudentEvaluationReport:w&#45;&gt;AspNetUsers:e</title>
<path fill="none" stroke="#000000" d="M772.5333,-110.0607C526.3971,-103.949 396.1224,54.9027 212,-115.2404 141.1848,-180.679 267.921,-547.2404 171.5,-547.2404"/>
<polygon fill="#000000" stroke="#000000" points="779.0006,-110.141 786.9553,-113.8401 783.0003,-110.1907 787,-110.2404 787,-110.2404 787,-110.2404 783.0003,-110.1907 787.0447,-106.6407 779.0006,-110.141 779.0006,-110.141"/>
<ellipse fill="none" stroke="#000000" cx="775.8009" cy="-110.1012" rx="3.2" ry="3.2"/>
</g>
<!-- StudentEvaluationReport&#45;&gt;EvaluationPeriods -->
<g id="edge35" class="edge">
<title>StudentEvaluationReport:w&#45;&gt;EvaluationPeriods:e</title>
<path fill="none" stroke="#000000" d="M772.5965,-111.5364C670.3579,-131.4526 795.5634,-374.2404 673,-374.2404"/>
<polygon fill="#000000" stroke="#000000" points="779.0322,-110.9574 787.3226,-113.8259 783.0161,-110.5989 787,-110.2404 787,-110.2404 787,-110.2404 783.0161,-110.5989 786.6774,-106.6549 779.0322,-110.9574 779.0322,-110.9574"/>
<ellipse fill="none" stroke="#000000" cx="775.8451" cy="-111.2441" rx="3.2" ry="3.2"/>
</g>
<!-- StudentEvaluationReport&#45;&gt;Students -->
<g id="edge36" class="edge">
<title>StudentEvaluationReport:w&#45;&gt;Students:e</title>
<path fill="none" stroke="#000000" d="M772.591,-112.0379C732.0145,-123.6204 755.8125,-188.4425 716,-226.2404 690.3276,-250.6138 681.3997,-264.2404 646,-264.2404"/>
<polygon fill="#000000" stroke="#000000" points="779.0615,-111.2308 787.4457,-113.8127 783.0308,-110.7356 787,-110.2404 787,-110.2404 787,-110.2404 783.0308,-110.7356 786.5543,-106.6681 779.0615,-111.2308 779.0615,-111.2308"/>
<ellipse fill="none" stroke="#000000" cx="775.8861" cy="-111.6269" rx="3.2" ry="3.2"/>
</g>
<!-- StudentSubjects -->
<g id="node19" class="node">
<title>StudentSubjects</title>
<g id="a_node19"><a xlink:href="../../tables/StudentSubjects.html" xlink:title="StudentSubjects" target="_top">
<polygon fill="#ffffff" stroke="transparent" points="811.5,-212.7404 811.5,-273.7404 944.5,-273.7404 944.5,-212.7404 811.5,-212.7404"/>
<polygon fill="#f5f5f5" stroke="transparent" points="812,-250.2404 812,-273.2404 945,-273.2404 945,-250.2404 812,-250.2404"/>
<polygon fill="none" stroke="#000000" points="812,-250.2404 812,-273.2404 945,-273.2404 945,-250.2404 812,-250.2404"/>
<text text-anchor="start" x="817" y="-258.8404" font-family="Helvetica,sans-Serif" font-weight="bold" font-size="11.00" fill="#000000">StudentSubjects</text>
<text text-anchor="start" x="910.5219" y="-258.3404" font-family="Helvetica,sans-Serif" font-size="11.00" fill="#000000">[table]</text>
<polygon fill="none" stroke="#000000" points="812,-231.2404 812,-250.2404 945,-250.2404 945,-231.2404 812,-231.2404"/>
<text text-anchor="start" x="815" y="-237.3404" font-family="Helvetica,sans-Serif" font-size="11.00" fill="#000000">...</text>
<polygon fill="#ffffff" stroke="transparent" points="812,-212.2404 812,-231.2404 864,-231.2404 864,-212.2404 812,-212.2404"/>
<polygon fill="none" stroke="#000000" points="812,-212.2404 812,-231.2404 864,-231.2404 864,-212.2404 812,-212.2404"/>
<text text-anchor="start" x="815" y="-218.3404" font-family="Helvetica,sans-Serif" font-size="11.00" fill="#000000">&lt; 4</text>
<polygon fill="#ffffff" stroke="transparent" points="864,-212.2404 864,-231.2404 917,-231.2404 917,-212.2404 864,-212.2404"/>
<polygon fill="none" stroke="#000000" points="864,-212.2404 864,-231.2404 917,-231.2404 917,-212.2404 864,-212.2404"/>
<text text-anchor="start" x="881.6105" y="-218.3404" font-family="Helvetica,sans-Serif" font-size="11.00" fill="#000000">0 rows</text>
<polygon fill="#ffffff" stroke="transparent" points="917,-212.2404 917,-231.2404 945,-231.2404 945,-212.2404 917,-212.2404"/>
<polygon fill="none" stroke="#000000" points="917,-212.2404 917,-231.2404 945,-231.2404 945,-212.2404 917,-212.2404"/>
<text text-anchor="start" x="935.8862" y="-218.3404" font-family="Helvetica,sans-Serif" font-size="11.00" fill="#000000"> &#160;</text>
</a>
</g>
</g>
<!-- StudentSubjects&#45;&gt;AspNetUsers -->
<g id="edge40" class="edge">
<title>StudentSubjects:w&#45;&gt;AspNetUsers:e</title>
<path fill="none" stroke="#000000" d="M797.5708,-238.5639C754.6574,-227.5417 766.7382,-165.2569 716,-144.2404 612.4441,-101.3461 292.5353,-86.2801 212,-164.2404 150.5068,-223.7676 257.0856,-547.2404 171.5,-547.2404"/>
<polygon fill="#000000" stroke="#000000" points="804.0535,-239.3171 811.5845,-243.8164 808.0267,-239.7787 812,-240.2404 812,-240.2404 812,-240.2404 808.0267,-239.7787 812.4155,-236.6645 804.0535,-239.3171 804.0535,-239.3171"/>
<ellipse fill="none" stroke="#000000" cx="800.8748" cy="-238.9477" rx="3.2" ry="3.2"/>
</g>
<!-- StudentSubjects&#45;&gt;AspNetUsers -->
<g id="edge43" class="edge">
<title>StudentSubjects:w&#45;&gt;AspNetUsers:e</title>
<path fill="none" stroke="#000000" d="M797.5569,-238.5629C755.5828,-227.7989 765.8014,-168.2509 716,-148.2404 611.9937,-106.45 292.5783,-90.3245 212,-168.2404 151.1093,-227.1192 256.2017,-547.2404 171.5,-547.2404"/>
<polygon fill="#000000" stroke="#000000" points="804.0534,-239.3174 811.5846,-243.8164 808.0267,-239.7789 812,-240.2404 812,-240.2404 812,-240.2404 808.0267,-239.7789 812.4154,-236.6645 804.0534,-239.3174 804.0534,-239.3174"/>
<ellipse fill="none" stroke="#000000" cx="800.8748" cy="-238.9482" rx="3.2" ry="3.2"/>
</g>
<!-- StudentSubjects&#45;&gt;Subjects -->
<g id="edge42" class="edge">
<title>StudentSubjects:w&#45;&gt;Subjects:e</title>
<path fill="none" stroke="#000000" d="M797.2333,-241.4615C728.6189,-253.9023 775.6273,-358.45 716,-418.2404 691.0029,-443.3059 681.3997,-456.2404 646,-456.2404"/>
<polygon fill="#000000" stroke="#000000" points="804.0272,-240.8997 812.2967,-243.8282 808.0136,-240.5701 812,-240.2404 812,-240.2404 812,-240.2404 808.0136,-240.5701 811.7033,-236.6527 804.0272,-240.8997 804.0272,-240.8997"/>
<ellipse fill="none" stroke="#000000" cx="800.8381" cy="-241.1634" rx="3.2" ry="3.2"/>
</g>
<!-- StudentSubjects&#45;&gt;Students -->
<g id="edge41" class="edge">
<title>StudentSubjects:w&#45;&gt;Students:e</title>
<path fill="none" stroke="#000000" d="M797.4836,-240.5616C734.8739,-243.4095 715.449,-264.2404 646,-264.2404"/>
<polygon fill="#000000" stroke="#000000" points="804.002,-240.4174 812.0796,-243.8395 808.001,-240.3289 812,-240.2404 812,-240.2404 812,-240.2404 808.001,-240.3289 811.9204,-236.6413 804.002,-240.4174 804.002,-240.4174"/>
<ellipse fill="none" stroke="#000000" cx="800.8027" cy="-240.4882" rx="3.2" ry="3.2"/>
</g>
</g>
</svg>
