<?xml version="1.0" encoding="UTF-8" standalone="no"?>
<!DOCTYPE svg PUBLIC "-//W3C//DTD SVG 1.1//EN"
 "http://www.w3.org/Graphics/SVG/1.1/DTD/svg11.dtd">
<!-- Generated by graphviz version 2.40.1 (20161225.0304)
 -->
<!-- Title: oneDegreeRelationshipsDiagram Pages: 1 -->
<svg width="426pt" height="184pt"
 viewBox="0.00 0.00 426.00 184.20" xmlns="http://www.w3.org/2000/svg" xmlns:xlink="http://www.w3.org/1999/xlink">
<g id="graph0" class="graph" transform="scale(1 1) rotate(0) translate(4 180.2)">
<title>oneDegreeRelationshipsDiagram</title>
<polygon fill="#ffffff" stroke="transparent" points="-4,4 -4,-180.2 422,-180.2 422,4 -4,4"/>
<text text-anchor="middle" x="72.4936" y="-7.3" font-family="Helvetica,sans-Serif" font-size="11.00" fill="#000000">Generated by SchemaSpy</text>
<!-- AspNetRoleClaims -->
<g id="node1" class="node">
<title>AspNetRoleClaims</title>
<g id="a_node1"><a xlink:href="../../tables/AspNetRoleClaims.html" xlink:title="AspNetRoleClaims" target="_top">
<polygon fill="#ffffff" stroke="transparent" points="188,-38.2 188,-172.2 410,-172.2 410,-38.2 188,-38.2"/>
<polygon fill="#f5f5f5" stroke="transparent" points="190,-147.2 190,-170.2 408,-170.2 408,-147.2 190,-147.2"/>
<polygon fill="none" stroke="#000000" points="190,-147.2 190,-170.2 408,-170.2 408,-147.2 190,-147.2"/>
<text text-anchor="start" x="195" y="-155.8" font-family="Helvetica,sans-Serif" font-weight="bold" font-size="11.00" fill="#000000">AspNetRoleClaims</text>
<text text-anchor="start" x="373.0437" y="-155.3" font-family="Helvetica,sans-Serif" font-size="11.00" fill="#000000">[table]</text>
<polygon fill="none" stroke="#000000" points="190,-125.2 190,-147.2 318,-147.2 318,-125.2 190,-125.2"/>
<image xlink:href="../../images/primaryKeys.png" width="11px" height="12px" preserveAspectRatio="xMinYMin meet" x="195" y="-142.2"/>
<text text-anchor="start" x="210" y="-132.3" font-family="Helvetica,sans-Serif" font-size="11.00" fill="#000000">Id</text>
<polygon fill="none" stroke="#000000" points="318,-125.2 318,-147.2 408,-147.2 408,-125.2 318,-125.2"/>
<text text-anchor="start" x="321" y="-132.9" font-family="Helvetica,sans-Serif" font-size="11.00" fill="#000000">int4[10]</text>
<polygon fill="#ffffff" stroke="transparent" points="190,-103.2 190,-125.2 318,-125.2 318,-103.2 190,-103.2"/>
<polygon fill="none" stroke="#000000" points="190,-103.2 190,-125.2 318,-125.2 318,-103.2 190,-103.2"/>
<image xlink:href="../../images/foreignKeys.png" width="11px" height="12px" preserveAspectRatio="xMinYMin meet" x="195" y="-120.2"/>
<text text-anchor="start" x="210" y="-110.3" font-family="Helvetica,sans-Serif" font-size="11.00" fill="#000000">RoleId</text>
<polygon fill="none" stroke="#000000" points="318,-103.2 318,-125.2 408,-125.2 408,-103.2 318,-103.2"/>
<text text-anchor="start" x="320.5043" y="-110.9" font-family="Helvetica,sans-Serif" font-size="11.00" fill="#000000">text[2147483647]</text>
<polygon fill="none" stroke="#000000" points="190,-81.2 190,-103.2 318,-103.2 318,-81.2 190,-81.2"/>
<text text-anchor="start" x="210" y="-88.3" font-family="Helvetica,sans-Serif" font-size="11.00" fill="#000000">ClaimType</text>
<polygon fill="none" stroke="#000000" points="318,-81.2 318,-103.2 408,-103.2 408,-81.2 318,-81.2"/>
<text text-anchor="start" x="320.5043" y="-88.9" font-family="Helvetica,sans-Serif" font-size="11.00" fill="#000000">text[2147483647]</text>
<polygon fill="none" stroke="#000000" points="190,-59.2 190,-81.2 318,-81.2 318,-59.2 190,-59.2"/>
<text text-anchor="start" x="210" y="-66.3" font-family="Helvetica,sans-Serif" font-size="11.00" fill="#000000">ClaimValue</text>
<polygon fill="none" stroke="#000000" points="318,-59.2 318,-81.2 408,-81.2 408,-59.2 318,-59.2"/>
<text text-anchor="start" x="320.5043" y="-66.9" font-family="Helvetica,sans-Serif" font-size="11.00" fill="#000000">text[2147483647]</text>
<polygon fill="#ffffff" stroke="transparent" points="190,-40.2 190,-59.2 245,-59.2 245,-40.2 190,-40.2"/>
<polygon fill="none" stroke="#000000" points="190,-40.2 190,-59.2 245,-59.2 245,-40.2 190,-40.2"/>
<text text-anchor="start" x="193" y="-46.3" font-family="Helvetica,sans-Serif" font-size="11.00" fill="#000000">&lt; 1</text>
<polygon fill="#ffffff" stroke="transparent" points="245,-40.2 245,-59.2 318,-59.2 318,-40.2 245,-40.2"/>
<polygon fill="none" stroke="#000000" points="245,-40.2 245,-59.2 318,-59.2 318,-40.2 245,-40.2"/>
<text text-anchor="start" x="282.6105" y="-46.3" font-family="Helvetica,sans-Serif" font-size="11.00" fill="#000000">0 rows</text>
<polygon fill="#ffffff" stroke="transparent" points="318,-40.2 318,-59.2 408,-59.2 408,-40.2 318,-40.2"/>
<polygon fill="none" stroke="#000000" points="318,-40.2 318,-59.2 408,-59.2 408,-40.2 318,-40.2"/>
<text text-anchor="start" x="389.4053" y="-46.3" font-family="Helvetica,sans-Serif" font-size="11.00" fill="#000000">0 &gt;</text>
<polygon fill="none" stroke="#000000" stroke-width="2" points="189,-39.2 189,-171.2 409,-171.2 409,-39.2 189,-39.2"/>
</a>
</g>
</g>
<!-- AspNetRoles -->
<g id="node2" class="node">
<title>AspNetRoles</title>
<g id="a_node2"><a xlink:href="../../tables/AspNetRoles.html" xlink:title="AspNetRoles" target="_top">
<polygon fill="#ffffff" stroke="transparent" points="8,-43.7 8,-148.7 139,-148.7 139,-43.7 8,-43.7"/>
<polygon fill="#f5f5f5" stroke="transparent" points="8.5,-125.2 8.5,-148.2 139.5,-148.2 139.5,-125.2 8.5,-125.2"/>
<polygon fill="none" stroke="#000000" points="8.5,-125.2 8.5,-148.2 139.5,-148.2 139.5,-125.2 8.5,-125.2"/>
<text text-anchor="start" x="13.5" y="-133.8" font-family="Helvetica,sans-Serif" font-weight="bold" font-size="11.00" fill="#000000">AspNetRoles</text>
<text text-anchor="start" x="104.5437" y="-133.3" font-family="Helvetica,sans-Serif" font-size="11.00" fill="#000000">[table]</text>
<polygon fill="none" stroke="#000000" points="8.5,-103.2 8.5,-125.2 139.5,-125.2 139.5,-103.2 8.5,-103.2"/>
<image xlink:href="../../images/primaryKeys.png" width="11px" height="12px" preserveAspectRatio="xMinYMin meet" x="13.5" y="-120.2"/>
<text text-anchor="start" x="28.5" y="-110.3" font-family="Helvetica,sans-Serif" font-size="11.00" fill="#000000">Id</text>
<polygon fill="#ffffff" stroke="transparent" points="8.5,-81.2 8.5,-103.2 139.5,-103.2 139.5,-81.2 8.5,-81.2"/>
<polygon fill="none" stroke="#000000" points="8.5,-81.2 8.5,-103.2 139.5,-103.2 139.5,-81.2 8.5,-81.2"/>
<text text-anchor="start" x="28.5" y="-88.3" font-family="Helvetica,sans-Serif" font-size="11.00" fill="#000000">NormalizedName</text>
<polygon fill="none" stroke="#000000" points="8.5,-62.2 8.5,-81.2 139.5,-81.2 139.5,-62.2 8.5,-62.2"/>
<text text-anchor="start" x="11.5" y="-68.3" font-family="Helvetica,sans-Serif" font-size="11.00" fill="#000000">...</text>
<polygon fill="#ffffff" stroke="transparent" points="8.5,-43.2 8.5,-62.2 50.5,-62.2 50.5,-43.2 8.5,-43.2"/>
<polygon fill="none" stroke="#000000" points="8.5,-43.2 8.5,-62.2 50.5,-62.2 50.5,-43.2 8.5,-43.2"/>
<text text-anchor="start" x="11.5" y="-49.3" font-family="Helvetica,sans-Serif" font-size="11.00" fill="#000000"> &#160;</text>
<polygon fill="#ffffff" stroke="transparent" points="50.5,-43.2 50.5,-62.2 103.5,-62.2 103.5,-43.2 50.5,-43.2"/>
<polygon fill="none" stroke="#000000" points="50.5,-43.2 50.5,-62.2 103.5,-62.2 103.5,-43.2 50.5,-43.2"/>
<text text-anchor="start" x="68.1105" y="-49.3" font-family="Helvetica,sans-Serif" font-size="11.00" fill="#000000">4 rows</text>
<polygon fill="#ffffff" stroke="transparent" points="103.5,-43.2 103.5,-62.2 139.5,-62.2 139.5,-43.2 103.5,-43.2"/>
<polygon fill="none" stroke="#000000" points="103.5,-43.2 103.5,-62.2 139.5,-62.2 139.5,-43.2 103.5,-43.2"/>
<text text-anchor="start" x="120.9053" y="-49.3" font-family="Helvetica,sans-Serif" font-size="11.00" fill="#000000">2 &gt;</text>
</a>
</g>
</g>
<!-- AspNetRoleClaims&#45;&gt;AspNetRoles -->
<g id="edge1" class="edge">
<title>AspNetRoleClaims:w&#45;&gt;AspNetRoles:e</title>
<path fill="none" stroke="#000000" d="M175.4203,-114.2C163.5435,-114.2 156.158,-114.2 139.5,-114.2"/>
<polygon fill="#000000" stroke="#000000" points="182,-114.2001 190,-117.8 186,-114.2 190,-114.2 190,-114.2 190,-114.2 186,-114.2 190,-110.6 182,-114.2001 182,-114.2001"/>
<ellipse fill="none" stroke="#000000" cx="178.8" cy="-114.2001" rx="3.2" ry="3.2"/>
</g>
</g>
</svg>
