<?xml version="1.0" encoding="UTF-8" standalone="no"?>
<!DOCTYPE svg PUBLIC "-//W3C//DTD SVG 1.1//EN"
 "http://www.w3.org/Graphics/SVG/1.1/DTD/svg11.dtd">
<!-- Generated by graphviz version 2.40.1 (20161225.0304)
 -->
<!-- Title: twoDegreesRelationshipsDiagram Pages: 1 -->
<svg width="1489pt" height="1209pt"
 viewBox="0.00 0.00 1489.00 1208.97" xmlns="http://www.w3.org/2000/svg" xmlns:xlink="http://www.w3.org/1999/xlink">
<g id="graph0" class="graph" transform="scale(1 1) rotate(0) translate(4 1204.9736)">
<title>twoDegreesRelationshipsDiagram</title>
<polygon fill="#ffffff" stroke="transparent" points="-4,4 -4,-1204.9736 1485,-1204.9736 1485,4 -4,4"/>
<text text-anchor="middle" x="72.4936" y="-7.3" font-family="Helvetica,sans-Serif" font-size="11.00" fill="#000000">Generated by SchemaSpy</text>
<!-- AspNetUserClaims -->
<g id="node1" class="node">
<title>AspNetUserClaims</title>
<g id="a_node1"><a xlink:href="../../tables/AspNetUserClaims.html" xlink:title="AspNetUserClaims" target="_top">
<polygon fill="#ffffff" stroke="transparent" points="220,-1062.9736 220,-1196.9736 443,-1196.9736 443,-1062.9736 220,-1062.9736"/>
<polygon fill="#f5f5f5" stroke="transparent" points="222.5,-1171.9736 222.5,-1194.9736 441.5,-1194.9736 441.5,-1171.9736 222.5,-1171.9736"/>
<polygon fill="none" stroke="#000000" points="222.5,-1171.9736 222.5,-1194.9736 441.5,-1194.9736 441.5,-1171.9736 222.5,-1171.9736"/>
<text text-anchor="start" x="227.5" y="-1180.5736" font-family="Helvetica,sans-Serif" font-weight="bold" font-size="11.00" fill="#000000">AspNetUserClaims</text>
<text text-anchor="start" x="406.5437" y="-1180.0736" font-family="Helvetica,sans-Serif" font-size="11.00" fill="#000000">[table]</text>
<polygon fill="none" stroke="#000000" points="222.5,-1149.9736 222.5,-1171.9736 351.5,-1171.9736 351.5,-1149.9736 222.5,-1149.9736"/>
<image xlink:href="../../images/primaryKeys.png" width="11px" height="12px" preserveAspectRatio="xMinYMin meet" x="227.5" y="-1166.97"/>
<text text-anchor="start" x="242.5" y="-1157.0736" font-family="Helvetica,sans-Serif" font-size="11.00" fill="#000000">Id</text>
<polygon fill="none" stroke="#000000" points="351.5,-1149.9736 351.5,-1171.9736 441.5,-1171.9736 441.5,-1149.9736 351.5,-1149.9736"/>
<text text-anchor="start" x="354.5" y="-1157.6736" font-family="Helvetica,sans-Serif" font-size="11.00" fill="#000000">int4[10]</text>
<polygon fill="#ffffff" stroke="transparent" points="222.5,-1127.9736 222.5,-1149.9736 351.5,-1149.9736 351.5,-1127.9736 222.5,-1127.9736"/>
<polygon fill="none" stroke="#000000" points="222.5,-1127.9736 222.5,-1149.9736 351.5,-1149.9736 351.5,-1127.9736 222.5,-1127.9736"/>
<image xlink:href="../../images/foreignKeys.png" width="11px" height="12px" preserveAspectRatio="xMinYMin meet" x="227.5" y="-1144.97"/>
<text text-anchor="start" x="242.5" y="-1135.0736" font-family="Helvetica,sans-Serif" font-size="11.00" fill="#000000">UserId</text>
<polygon fill="none" stroke="#000000" points="351.5,-1127.9736 351.5,-1149.9736 441.5,-1149.9736 441.5,-1127.9736 351.5,-1127.9736"/>
<text text-anchor="start" x="354.0043" y="-1135.6736" font-family="Helvetica,sans-Serif" font-size="11.00" fill="#000000">text[2147483647]</text>
<polygon fill="none" stroke="#000000" points="222.5,-1105.9736 222.5,-1127.9736 351.5,-1127.9736 351.5,-1105.9736 222.5,-1105.9736"/>
<text text-anchor="start" x="242.5" y="-1113.0736" font-family="Helvetica,sans-Serif" font-size="11.00" fill="#000000">ClaimType</text>
<polygon fill="none" stroke="#000000" points="351.5,-1105.9736 351.5,-1127.9736 441.5,-1127.9736 441.5,-1105.9736 351.5,-1105.9736"/>
<text text-anchor="start" x="354.0043" y="-1113.6736" font-family="Helvetica,sans-Serif" font-size="11.00" fill="#000000">text[2147483647]</text>
<polygon fill="none" stroke="#000000" points="222.5,-1083.9736 222.5,-1105.9736 351.5,-1105.9736 351.5,-1083.9736 222.5,-1083.9736"/>
<text text-anchor="start" x="242.5" y="-1091.0736" font-family="Helvetica,sans-Serif" font-size="11.00" fill="#000000">ClaimValue</text>
<polygon fill="none" stroke="#000000" points="351.5,-1083.9736 351.5,-1105.9736 441.5,-1105.9736 441.5,-1083.9736 351.5,-1083.9736"/>
<text text-anchor="start" x="354.0043" y="-1091.6736" font-family="Helvetica,sans-Serif" font-size="11.00" fill="#000000">text[2147483647]</text>
<polygon fill="#ffffff" stroke="transparent" points="222.5,-1064.9736 222.5,-1083.9736 278.5,-1083.9736 278.5,-1064.9736 222.5,-1064.9736"/>
<polygon fill="none" stroke="#000000" points="222.5,-1064.9736 222.5,-1083.9736 278.5,-1083.9736 278.5,-1064.9736 222.5,-1064.9736"/>
<text text-anchor="start" x="225.5" y="-1071.0736" font-family="Helvetica,sans-Serif" font-size="11.00" fill="#000000">&lt; 1</text>
<polygon fill="#ffffff" stroke="transparent" points="278.5,-1064.9736 278.5,-1083.9736 351.5,-1083.9736 351.5,-1064.9736 278.5,-1064.9736"/>
<polygon fill="none" stroke="#000000" points="278.5,-1064.9736 278.5,-1083.9736 351.5,-1083.9736 351.5,-1064.9736 278.5,-1064.9736"/>
<text text-anchor="start" x="316.1105" y="-1071.0736" font-family="Helvetica,sans-Serif" font-size="11.00" fill="#000000">0 rows</text>
<polygon fill="#ffffff" stroke="transparent" points="351.5,-1064.9736 351.5,-1083.9736 441.5,-1083.9736 441.5,-1064.9736 351.5,-1064.9736"/>
<polygon fill="none" stroke="#000000" points="351.5,-1064.9736 351.5,-1083.9736 441.5,-1083.9736 441.5,-1064.9736 351.5,-1064.9736"/>
<text text-anchor="start" x="422.9053" y="-1071.0736" font-family="Helvetica,sans-Serif" font-size="11.00" fill="#000000">0 &gt;</text>
<polygon fill="none" stroke="#000000" stroke-width="2" points="221,-1063.9736 221,-1195.9736 442,-1195.9736 442,-1063.9736 221,-1063.9736"/>
</a>
</g>
</g>
<!-- AspNetUsers -->
<g id="node2" class="node">
<title>AspNetUsers</title>
<g id="a_node2"><a xlink:href="../../tables/AspNetUsers.html" xlink:title="AspNetUsers" target="_top">
<polygon fill="#ffffff" stroke="transparent" points="8,-454.4736 8,-581.4736 171,-581.4736 171,-454.4736 8,-454.4736"/>
<polygon fill="#f5f5f5" stroke="transparent" points="8.5,-557.9736 8.5,-580.9736 171.5,-580.9736 171.5,-557.9736 8.5,-557.9736"/>
<polygon fill="none" stroke="#000000" points="8.5,-557.9736 8.5,-580.9736 171.5,-580.9736 171.5,-557.9736 8.5,-557.9736"/>
<text text-anchor="start" x="13.5" y="-566.5736" font-family="Helvetica,sans-Serif" font-weight="bold" font-size="11.00" fill="#000000">AspNetUsers</text>
<text text-anchor="start" x="136.5437" y="-566.0736" font-family="Helvetica,sans-Serif" font-size="11.00" fill="#000000">[table]</text>
<polygon fill="none" stroke="#000000" points="8.5,-535.9736 8.5,-557.9736 171.5,-557.9736 171.5,-535.9736 8.5,-535.9736"/>
<image xlink:href="../../images/primaryKeys.png" width="11px" height="12px" preserveAspectRatio="xMinYMin meet" x="13.5" y="-552.974"/>
<text text-anchor="start" x="28.5" y="-543.0736" font-family="Helvetica,sans-Serif" font-size="11.00" fill="#000000">Id</text>
<polygon fill="#ffffff" stroke="transparent" points="8.5,-513.9736 8.5,-535.9736 171.5,-535.9736 171.5,-513.9736 8.5,-513.9736"/>
<polygon fill="none" stroke="#000000" points="8.5,-513.9736 8.5,-535.9736 171.5,-535.9736 171.5,-513.9736 8.5,-513.9736"/>
<text text-anchor="start" x="28.5" y="-521.0736" font-family="Helvetica,sans-Serif" font-size="11.00" fill="#000000">NormalizedUserName</text>
<polygon fill="#ffffff" stroke="transparent" points="8.5,-491.9736 8.5,-513.9736 171.5,-513.9736 171.5,-491.9736 8.5,-491.9736"/>
<polygon fill="none" stroke="#000000" points="8.5,-491.9736 8.5,-513.9736 171.5,-513.9736 171.5,-491.9736 8.5,-491.9736"/>
<text text-anchor="start" x="28.5" y="-499.0736" font-family="Helvetica,sans-Serif" font-size="11.00" fill="#000000">NormalizedEmail</text>
<polygon fill="none" stroke="#000000" points="8.5,-472.9736 8.5,-491.9736 171.5,-491.9736 171.5,-472.9736 8.5,-472.9736"/>
<text text-anchor="start" x="11.5" y="-479.0736" font-family="Helvetica,sans-Serif" font-size="11.00" fill="#000000">...</text>
<polygon fill="#ffffff" stroke="transparent" points="8.5,-453.9736 8.5,-472.9736 66.5,-472.9736 66.5,-453.9736 8.5,-453.9736"/>
<polygon fill="none" stroke="#000000" points="8.5,-453.9736 8.5,-472.9736 66.5,-472.9736 66.5,-453.9736 8.5,-453.9736"/>
<text text-anchor="start" x="11.5" y="-460.0736" font-family="Helvetica,sans-Serif" font-size="11.00" fill="#000000"> &#160;</text>
<polygon fill="#ffffff" stroke="transparent" points="66.5,-453.9736 66.5,-472.9736 121.5,-472.9736 121.5,-453.9736 66.5,-453.9736"/>
<polygon fill="none" stroke="#000000" points="66.5,-453.9736 66.5,-472.9736 121.5,-472.9736 121.5,-453.9736 66.5,-453.9736"/>
<text text-anchor="start" x="91.6105" y="-460.0736" font-family="Helvetica,sans-Serif" font-size="11.00" fill="#000000">1 row</text>
<polygon fill="#ffffff" stroke="transparent" points="121.5,-453.9736 121.5,-472.9736 171.5,-472.9736 171.5,-453.9736 121.5,-453.9736"/>
<polygon fill="none" stroke="#000000" points="121.5,-453.9736 121.5,-472.9736 171.5,-472.9736 171.5,-453.9736 121.5,-453.9736"/>
<text text-anchor="start" x="146.7904" y="-460.0736" font-family="Helvetica,sans-Serif" font-size="11.00" fill="#000000">29 &gt;</text>
</a>
</g>
</g>
<!-- AspNetUserClaims&#45;&gt;AspNetUsers -->
<g id="edge1" class="edge">
<title>AspNetUserClaims:w&#45;&gt;AspNetUsers:e</title>
<path fill="none" stroke="#000000" d="M210.6526,-1130.6049C167.1482,-1058.6503 232.8793,-546.9736 171.5,-546.9736"/>
<polygon fill="#000000" stroke="#000000" points="215.9658,-1134.358 220.423,-1141.914 219.2329,-1136.6658 222.5,-1138.9736 222.5,-1138.9736 222.5,-1138.9736 219.2329,-1136.6658 224.577,-1136.0332 215.9658,-1134.358 215.9658,-1134.358"/>
<ellipse fill="none" stroke="#000000" cx="213.3521" cy="-1132.5117" rx="3.2" ry="3.2"/>
</g>
<!-- AspNetUserLogins -->
<g id="node3" class="node">
<title>AspNetUserLogins</title>
<g id="a_node3"><a xlink:href="../../tables/AspNetUserLogins.html" xlink:title="AspNetUserLogins" target="_top">
<polygon fill="#ffffff" stroke="transparent" points="258,-980.4736 258,-1041.4736 405,-1041.4736 405,-980.4736 258,-980.4736"/>
<polygon fill="#f5f5f5" stroke="transparent" points="258.5,-1017.9736 258.5,-1040.9736 405.5,-1040.9736 405.5,-1017.9736 258.5,-1017.9736"/>
<polygon fill="none" stroke="#000000" points="258.5,-1017.9736 258.5,-1040.9736 405.5,-1040.9736 405.5,-1017.9736 258.5,-1017.9736"/>
<text text-anchor="start" x="263.5" y="-1026.5736" font-family="Helvetica,sans-Serif" font-weight="bold" font-size="11.00" fill="#000000">AspNetUserLogins</text>
<text text-anchor="start" x="371.0219" y="-1026.0736" font-family="Helvetica,sans-Serif" font-size="11.00" fill="#000000">[table]</text>
<polygon fill="none" stroke="#000000" points="258.5,-998.9736 258.5,-1017.9736 405.5,-1017.9736 405.5,-998.9736 258.5,-998.9736"/>
<text text-anchor="start" x="261.5" y="-1005.0736" font-family="Helvetica,sans-Serif" font-size="11.00" fill="#000000">...</text>
<polygon fill="#ffffff" stroke="transparent" points="258.5,-979.9736 258.5,-998.9736 317.5,-998.9736 317.5,-979.9736 258.5,-979.9736"/>
<polygon fill="none" stroke="#000000" points="258.5,-979.9736 258.5,-998.9736 317.5,-998.9736 317.5,-979.9736 258.5,-979.9736"/>
<text text-anchor="start" x="261.5" y="-986.0736" font-family="Helvetica,sans-Serif" font-size="11.00" fill="#000000">&lt; 1</text>
<polygon fill="#ffffff" stroke="transparent" points="317.5,-979.9736 317.5,-998.9736 374.5,-998.9736 374.5,-979.9736 317.5,-979.9736"/>
<polygon fill="none" stroke="#000000" points="317.5,-979.9736 317.5,-998.9736 374.5,-998.9736 374.5,-979.9736 317.5,-979.9736"/>
<text text-anchor="start" x="339.1105" y="-986.0736" font-family="Helvetica,sans-Serif" font-size="11.00" fill="#000000">0 rows</text>
<polygon fill="#ffffff" stroke="transparent" points="374.5,-979.9736 374.5,-998.9736 405.5,-998.9736 405.5,-979.9736 374.5,-979.9736"/>
<polygon fill="none" stroke="#000000" points="374.5,-979.9736 374.5,-998.9736 405.5,-998.9736 405.5,-979.9736 374.5,-979.9736"/>
<text text-anchor="start" x="396.3862" y="-986.0736" font-family="Helvetica,sans-Serif" font-size="11.00" fill="#000000"> &#160;</text>
</a>
</g>
</g>
<!-- AspNetUserLogins&#45;&gt;AspNetUsers -->
<g id="edge2" class="edge">
<title>AspNetUserLogins:w&#45;&gt;AspNetUsers:e</title>
<path fill="none" stroke="#000000" d="M243.9744,-1006.0942C228.5199,-1001.47 221.9216,-988.55 212,-969.9736 189.7564,-928.3266 218.7149,-546.9736 171.5,-546.9736"/>
<polygon fill="#000000" stroke="#000000" points="250.5661,-1006.947 258.038,-1011.5438 254.5331,-1007.4603 258.5,-1007.9736 258.5,-1007.9736 258.5,-1007.9736 254.5331,-1007.4603 258.962,-1004.4033 250.5661,-1006.947 250.5661,-1006.947"/>
<ellipse fill="none" stroke="#000000" cx="247.3926" cy="-1006.5364" rx="3.2" ry="3.2"/>
</g>
<!-- AspNetUserRoles -->
<g id="node4" class="node">
<title>AspNetUserRoles</title>
<g id="a_node4"><a xlink:href="../../tables/AspNetUserRoles.html" xlink:title="AspNetUserRoles" target="_top">
<polygon fill="#ffffff" stroke="transparent" points="261.5,-898.4736 261.5,-959.4736 401.5,-959.4736 401.5,-898.4736 261.5,-898.4736"/>
<polygon fill="#f5f5f5" stroke="transparent" points="261.5,-935.9736 261.5,-958.9736 401.5,-958.9736 401.5,-935.9736 261.5,-935.9736"/>
<polygon fill="none" stroke="#000000" points="261.5,-935.9736 261.5,-958.9736 401.5,-958.9736 401.5,-935.9736 261.5,-935.9736"/>
<text text-anchor="start" x="266.5" y="-944.5736" font-family="Helvetica,sans-Serif" font-weight="bold" font-size="11.00" fill="#000000">AspNetUserRoles</text>
<text text-anchor="start" x="367.0219" y="-944.0736" font-family="Helvetica,sans-Serif" font-size="11.00" fill="#000000">[table]</text>
<polygon fill="none" stroke="#000000" points="261.5,-916.9736 261.5,-935.9736 401.5,-935.9736 401.5,-916.9736 261.5,-916.9736"/>
<text text-anchor="start" x="264.5" y="-923.0736" font-family="Helvetica,sans-Serif" font-size="11.00" fill="#000000">...</text>
<polygon fill="#ffffff" stroke="transparent" points="261.5,-897.9736 261.5,-916.9736 319.5,-916.9736 319.5,-897.9736 261.5,-897.9736"/>
<polygon fill="none" stroke="#000000" points="261.5,-897.9736 261.5,-916.9736 319.5,-916.9736 319.5,-897.9736 261.5,-897.9736"/>
<text text-anchor="start" x="264.5" y="-904.0736" font-family="Helvetica,sans-Serif" font-size="11.00" fill="#000000">&lt; 2</text>
<polygon fill="#ffffff" stroke="transparent" points="319.5,-897.9736 319.5,-916.9736 370.5,-916.9736 370.5,-897.9736 319.5,-897.9736"/>
<polygon fill="none" stroke="#000000" points="319.5,-897.9736 319.5,-916.9736 370.5,-916.9736 370.5,-897.9736 319.5,-897.9736"/>
<text text-anchor="start" x="340.6105" y="-904.0736" font-family="Helvetica,sans-Serif" font-size="11.00" fill="#000000">1 row</text>
<polygon fill="#ffffff" stroke="transparent" points="370.5,-897.9736 370.5,-916.9736 401.5,-916.9736 401.5,-897.9736 370.5,-897.9736"/>
<polygon fill="none" stroke="#000000" points="370.5,-897.9736 370.5,-916.9736 401.5,-916.9736 401.5,-897.9736 370.5,-897.9736"/>
<text text-anchor="start" x="392.3862" y="-904.0736" font-family="Helvetica,sans-Serif" font-size="11.00" fill="#000000"> &#160;</text>
</a>
</g>
</g>
<!-- AspNetUserRoles&#45;&gt;AspNetUsers -->
<g id="edge3" class="edge">
<title>AspNetUserRoles:w&#45;&gt;AspNetUsers:e</title>
<path fill="none" stroke="#000000" d="M246.8228,-924.2849C230.26,-919.9085 222.927,-907.1849 212,-887.9736 174.272,-821.642 247.8104,-546.9736 171.5,-546.9736"/>
<polygon fill="#000000" stroke="#000000" points="253.5524,-925.0591 261.0885,-929.55 257.5262,-925.5164 261.5,-925.9736 261.5,-925.9736 261.5,-925.9736 257.5262,-925.5164 261.9115,-922.3972 253.5524,-925.0591 253.5524,-925.0591"/>
<ellipse fill="none" stroke="#000000" cx="250.3734" cy="-924.6933" rx="3.2" ry="3.2"/>
</g>
<!-- AspNetUserTokens -->
<g id="node5" class="node">
<title>AspNetUserTokens</title>
<g id="a_node5"><a xlink:href="../../tables/AspNetUserTokens.html" xlink:title="AspNetUserTokens" target="_top">
<polygon fill="#ffffff" stroke="transparent" points="257,-816.4736 257,-877.4736 406,-877.4736 406,-816.4736 257,-816.4736"/>
<polygon fill="#f5f5f5" stroke="transparent" points="257.5,-853.9736 257.5,-876.9736 406.5,-876.9736 406.5,-853.9736 257.5,-853.9736"/>
<polygon fill="none" stroke="#000000" points="257.5,-853.9736 257.5,-876.9736 406.5,-876.9736 406.5,-853.9736 257.5,-853.9736"/>
<text text-anchor="start" x="262.5" y="-862.5736" font-family="Helvetica,sans-Serif" font-weight="bold" font-size="11.00" fill="#000000">AspNetUserTokens</text>
<text text-anchor="start" x="372.0219" y="-862.0736" font-family="Helvetica,sans-Serif" font-size="11.00" fill="#000000">[table]</text>
<polygon fill="none" stroke="#000000" points="257.5,-834.9736 257.5,-853.9736 406.5,-853.9736 406.5,-834.9736 257.5,-834.9736"/>
<text text-anchor="start" x="260.5" y="-841.0736" font-family="Helvetica,sans-Serif" font-size="11.00" fill="#000000">...</text>
<polygon fill="#ffffff" stroke="transparent" points="257.5,-815.9736 257.5,-834.9736 317.5,-834.9736 317.5,-815.9736 257.5,-815.9736"/>
<polygon fill="none" stroke="#000000" points="257.5,-815.9736 257.5,-834.9736 317.5,-834.9736 317.5,-815.9736 257.5,-815.9736"/>
<text text-anchor="start" x="260.5" y="-822.0736" font-family="Helvetica,sans-Serif" font-size="11.00" fill="#000000">&lt; 1</text>
<polygon fill="#ffffff" stroke="transparent" points="317.5,-815.9736 317.5,-834.9736 374.5,-834.9736 374.5,-815.9736 317.5,-815.9736"/>
<polygon fill="none" stroke="#000000" points="317.5,-815.9736 317.5,-834.9736 374.5,-834.9736 374.5,-815.9736 317.5,-815.9736"/>
<text text-anchor="start" x="339.1105" y="-822.0736" font-family="Helvetica,sans-Serif" font-size="11.00" fill="#000000">0 rows</text>
<polygon fill="#ffffff" stroke="transparent" points="374.5,-815.9736 374.5,-834.9736 406.5,-834.9736 406.5,-815.9736 374.5,-815.9736"/>
<polygon fill="none" stroke="#000000" points="374.5,-815.9736 374.5,-834.9736 406.5,-834.9736 406.5,-815.9736 374.5,-815.9736"/>
<text text-anchor="start" x="397.3862" y="-822.0736" font-family="Helvetica,sans-Serif" font-size="11.00" fill="#000000"> &#160;</text>
</a>
</g>
</g>
<!-- AspNetUserTokens&#45;&gt;AspNetUsers -->
<g id="edge4" class="edge">
<title>AspNetUserTokens:w&#45;&gt;AspNetUsers:e</title>
<path fill="none" stroke="#000000" d="M242.8053,-841.7113C227.5175,-836.2006 222.2475,-821.1191 212,-801.9736 184.9239,-751.387 228.8769,-546.9736 171.5,-546.9736"/>
<polygon fill="#000000" stroke="#000000" points="249.5932,-842.7562 256.9522,-847.5317 253.5466,-843.3649 257.5,-843.9736 257.5,-843.9736 257.5,-843.9736 253.5466,-843.3649 258.0478,-840.4155 249.5932,-842.7562 249.5932,-842.7562"/>
<ellipse fill="none" stroke="#000000" cx="246.4304" cy="-842.2693" rx="3.2" ry="3.2"/>
</g>
<!-- Competencies -->
<g id="node6" class="node">
<title>Competencies</title>
<g id="a_node6"><a xlink:href="../../tables/Competencies.html" xlink:title="Competencies" target="_top">
<polygon fill="#ffffff" stroke="transparent" points="271,-655.4736 271,-716.4736 392,-716.4736 392,-655.4736 271,-655.4736"/>
<polygon fill="#f5f5f5" stroke="transparent" points="271.5,-692.9736 271.5,-715.9736 392.5,-715.9736 392.5,-692.9736 271.5,-692.9736"/>
<polygon fill="none" stroke="#000000" points="271.5,-692.9736 271.5,-715.9736 392.5,-715.9736 392.5,-692.9736 271.5,-692.9736"/>
<text text-anchor="start" x="276.5" y="-701.5736" font-family="Helvetica,sans-Serif" font-weight="bold" font-size="11.00" fill="#000000">Competencies</text>
<text text-anchor="start" x="358.0219" y="-701.0736" font-family="Helvetica,sans-Serif" font-size="11.00" fill="#000000">[table]</text>
<polygon fill="none" stroke="#000000" points="271.5,-673.9736 271.5,-692.9736 392.5,-692.9736 392.5,-673.9736 271.5,-673.9736"/>
<text text-anchor="start" x="274.5" y="-680.0736" font-family="Helvetica,sans-Serif" font-size="11.00" fill="#000000">...</text>
<polygon fill="#ffffff" stroke="transparent" points="271.5,-654.9736 271.5,-673.9736 312.5,-673.9736 312.5,-654.9736 271.5,-654.9736"/>
<polygon fill="none" stroke="#000000" points="271.5,-654.9736 271.5,-673.9736 312.5,-673.9736 312.5,-654.9736 271.5,-654.9736"/>
<text text-anchor="start" x="274.5" y="-661.0736" font-family="Helvetica,sans-Serif" font-size="11.00" fill="#000000">&lt; 2</text>
<polygon fill="#ffffff" stroke="transparent" points="312.5,-654.9736 312.5,-673.9736 360.5,-673.9736 360.5,-654.9736 312.5,-654.9736"/>
<polygon fill="none" stroke="#000000" points="312.5,-654.9736 312.5,-673.9736 360.5,-673.9736 360.5,-654.9736 312.5,-654.9736"/>
<text text-anchor="start" x="325.1105" y="-661.0736" font-family="Helvetica,sans-Serif" font-size="11.00" fill="#000000">5 rows</text>
<polygon fill="#ffffff" stroke="transparent" points="360.5,-654.9736 360.5,-673.9736 392.5,-673.9736 392.5,-654.9736 360.5,-654.9736"/>
<polygon fill="none" stroke="#000000" points="360.5,-654.9736 360.5,-673.9736 392.5,-673.9736 392.5,-654.9736 360.5,-654.9736"/>
<text text-anchor="start" x="373.9053" y="-661.0736" font-family="Helvetica,sans-Serif" font-size="11.00" fill="#000000">4 &gt;</text>
</a>
</g>
</g>
<!-- Competencies&#45;&gt;AspNetUsers -->
<g id="edge5" class="edge">
<title>Competencies:w&#45;&gt;AspNetUsers:e</title>
<path fill="none" stroke="#000000" d="M257.4644,-679.1549C236.5519,-671.2183 229.0452,-655.9884 212,-634.9736 183.3438,-599.6437 216.9905,-540.9736 171.5,-546.9736"/>
<polygon fill="#000000" stroke="#000000" points="263.7806,-680.8733 270.5549,-686.4473 267.6403,-681.9234 271.5,-682.9736 271.5,-682.9736 271.5,-682.9736 267.6403,-681.9234 272.4451,-679.4999 263.7806,-680.8733 263.7806,-680.8733"/>
<ellipse fill="none" stroke="#000000" cx="260.6929" cy="-680.0332" rx="3.2" ry="3.2"/>
</g>
<!-- Competencies&#45;&gt;AspNetUsers -->
<g id="edge6" class="edge">
<title>Competencies:w&#45;&gt;AspNetUsers:e</title>
<path fill="none" stroke="#000000" d="M257.1721,-684.5552C236.4815,-684.0759 228.9655,-668.8902 212,-647.9736 183.3438,-612.6437 216.9905,-553.9736 171.5,-546.9736"/>
<polygon fill="#000000" stroke="#000000" points="263.5483,-683.8514 271.895,-686.5519 267.5241,-683.4125 271.5,-682.9736 271.5,-682.9736 271.5,-682.9736 267.5241,-683.4125 271.105,-679.3953 263.5483,-683.8514 263.5483,-683.8514"/>
<ellipse fill="none" stroke="#000000" cx="260.3676" cy="-684.2025" rx="3.2" ry="3.2"/>
</g>
<!-- CompetencyLevelDescriptions -->
<g id="node7" class="node">
<title>CompetencyLevelDescriptions</title>
<g id="a_node7"><a xlink:href="../../tables/CompetencyLevelDescriptions.html" xlink:title="CompetencyLevelDescriptions" target="_top">
<polygon fill="#ffffff" stroke="transparent" points="492,-771.4736 492,-832.4736 706,-832.4736 706,-771.4736 492,-771.4736"/>
<polygon fill="#f5f5f5" stroke="transparent" points="492,-808.9736 492,-831.9736 706,-831.9736 706,-808.9736 492,-808.9736"/>
<polygon fill="none" stroke="#000000" points="492,-808.9736 492,-831.9736 706,-831.9736 706,-808.9736 492,-808.9736"/>
<text text-anchor="start" x="497" y="-817.5736" font-family="Helvetica,sans-Serif" font-weight="bold" font-size="11.00" fill="#000000">CompetencyLevelDescriptions</text>
<text text-anchor="start" x="671.5219" y="-817.0736" font-family="Helvetica,sans-Serif" font-size="11.00" fill="#000000">[table]</text>
<polygon fill="none" stroke="#000000" points="492,-789.9736 492,-808.9736 706,-808.9736 706,-789.9736 492,-789.9736"/>
<text text-anchor="start" x="495" y="-796.0736" font-family="Helvetica,sans-Serif" font-size="11.00" fill="#000000">...</text>
<polygon fill="#ffffff" stroke="transparent" points="492,-770.9736 492,-789.9736 581,-789.9736 581,-770.9736 492,-770.9736"/>
<polygon fill="none" stroke="#000000" points="492,-770.9736 492,-789.9736 581,-789.9736 581,-770.9736 492,-770.9736"/>
<text text-anchor="start" x="495" y="-777.0736" font-family="Helvetica,sans-Serif" font-size="11.00" fill="#000000">&lt; 3</text>
<polygon fill="#ffffff" stroke="transparent" points="581,-770.9736 581,-789.9736 659,-789.9736 659,-770.9736 581,-770.9736"/>
<polygon fill="none" stroke="#000000" points="581,-770.9736 581,-789.9736 659,-789.9736 659,-770.9736 581,-770.9736"/>
<text text-anchor="start" x="617.4956" y="-777.0736" font-family="Helvetica,sans-Serif" font-size="11.00" fill="#000000">20 rows</text>
<polygon fill="#ffffff" stroke="transparent" points="659,-770.9736 659,-789.9736 706,-789.9736 706,-770.9736 659,-770.9736"/>
<polygon fill="none" stroke="#000000" points="659,-770.9736 659,-789.9736 706,-789.9736 706,-770.9736 659,-770.9736"/>
<text text-anchor="start" x="696.8862" y="-777.0736" font-family="Helvetica,sans-Serif" font-size="11.00" fill="#000000"> &#160;</text>
</a>
</g>
</g>
<!-- CompetencyLevelDescriptions&#45;&gt;AspNetUsers -->
<g id="edge8" class="edge">
<title>CompetencyLevelDescriptions:w&#45;&gt;AspNetUsers:e</title>
<path fill="none" stroke="#000000" d="M477.2333,-799.0585C405.7505,-799.7195 254.4089,-803.0124 212,-762.9736 140.9787,-695.9215 269.1729,-546.9736 171.5,-546.9736"/>
<polygon fill="#000000" stroke="#000000" points="484.0001,-799.0197 492.0207,-802.5735 488.0001,-798.9966 492,-798.9736 492,-798.9736 492,-798.9736 488.0001,-798.9966 491.9793,-795.3736 484.0001,-799.0197 484.0001,-799.0197"/>
<ellipse fill="none" stroke="#000000" cx="480.8002" cy="-799.0381" rx="3.2" ry="3.2"/>
</g>
<!-- CompetencyLevelDescriptions&#45;&gt;AspNetUsers -->
<g id="edge9" class="edge">
<title>CompetencyLevelDescriptions:w&#45;&gt;AspNetUsers:e</title>
<path fill="none" stroke="#000000" d="M477.2095,-799.0064C405.6285,-799.2191 254.2763,-799.3135 212,-758.9736 142.5993,-692.7515 267.4262,-546.9736 171.5,-546.9736"/>
<polygon fill="#000000" stroke="#000000" points="484,-798.9914 492.008,-802.5736 488,-798.9825 492,-798.9736 492,-798.9736 492,-798.9736 488,-798.9825 491.992,-795.3736 484,-798.9914 484,-798.9914"/>
<ellipse fill="none" stroke="#000000" cx="480.8" cy="-798.9985" rx="3.2" ry="3.2"/>
</g>
<!-- CompetencyLevelDescriptions&#45;&gt;Competencies -->
<g id="edge7" class="edge">
<title>CompetencyLevelDescriptions:w&#45;&gt;Competencies:e</title>
<path fill="none" stroke="#000000" d="M477.5813,-796.8612C429.2292,-781.1393 454.9842,-682.9736 392.5,-682.9736"/>
<polygon fill="#000000" stroke="#000000" points="484.0845,-797.8139 491.4781,-802.5356 488.0422,-798.3937 492,-798.9736 492,-798.9736 492,-798.9736 488.0422,-798.3937 492.5219,-795.4116 484.0845,-797.8139 484.0845,-797.8139"/>
<ellipse fill="none" stroke="#000000" cx="480.9183" cy="-797.35" rx="3.2" ry="3.2"/>
</g>
<!-- Coordinators -->
<g id="node8" class="node">
<title>Coordinators</title>
<g id="a_node8"><a xlink:href="../../tables/Coordinators.html" xlink:title="Coordinators" target="_top">
<polygon fill="#ffffff" stroke="transparent" points="542,-154.4736 542,-215.4736 656,-215.4736 656,-154.4736 542,-154.4736"/>
<polygon fill="#f5f5f5" stroke="transparent" points="542,-191.9736 542,-214.9736 656,-214.9736 656,-191.9736 542,-191.9736"/>
<polygon fill="none" stroke="#000000" points="542,-191.9736 542,-214.9736 656,-214.9736 656,-191.9736 542,-191.9736"/>
<text text-anchor="start" x="547" y="-200.5736" font-family="Helvetica,sans-Serif" font-weight="bold" font-size="11.00" fill="#000000">Coordinators</text>
<text text-anchor="start" x="621.5219" y="-200.0736" font-family="Helvetica,sans-Serif" font-size="11.00" fill="#000000">[table]</text>
<polygon fill="none" stroke="#000000" points="542,-172.9736 542,-191.9736 656,-191.9736 656,-172.9736 542,-172.9736"/>
<text text-anchor="start" x="545" y="-179.0736" font-family="Helvetica,sans-Serif" font-size="11.00" fill="#000000">...</text>
<polygon fill="#ffffff" stroke="transparent" points="542,-153.9736 542,-172.9736 584,-172.9736 584,-153.9736 542,-153.9736"/>
<polygon fill="none" stroke="#000000" points="542,-153.9736 542,-172.9736 584,-172.9736 584,-153.9736 542,-153.9736"/>
<text text-anchor="start" x="545" y="-160.0736" font-family="Helvetica,sans-Serif" font-size="11.00" fill="#000000">&lt; 2</text>
<polygon fill="#ffffff" stroke="transparent" points="584,-153.9736 584,-172.9736 633,-172.9736 633,-153.9736 584,-153.9736"/>
<polygon fill="none" stroke="#000000" points="584,-153.9736 584,-172.9736 633,-172.9736 633,-153.9736 584,-153.9736"/>
<text text-anchor="start" x="597.6105" y="-160.0736" font-family="Helvetica,sans-Serif" font-size="11.00" fill="#000000">0 rows</text>
<polygon fill="#ffffff" stroke="transparent" points="633,-153.9736 633,-172.9736 656,-172.9736 656,-153.9736 633,-153.9736"/>
<polygon fill="none" stroke="#000000" points="633,-153.9736 633,-172.9736 656,-172.9736 656,-153.9736 633,-153.9736"/>
<text text-anchor="start" x="646.8862" y="-160.0736" font-family="Helvetica,sans-Serif" font-size="11.00" fill="#000000"> &#160;</text>
</a>
</g>
</g>
<!-- Coordinators&#45;&gt;AspNetUsers -->
<g id="edge11" class="edge">
<title>Coordinators:w&#45;&gt;AspNetUsers:e</title>
<path fill="none" stroke="#000000" d="M531.2691,-181.8736C389.9706,-179.2533 313.3499,-126.8478 212,-229.9736 162.2214,-280.6244 242.517,-546.9736 171.5,-546.9736"/>
<polygon fill="#000000" stroke="#000000" points="541.2373,-177.9663 541.1627,-185.966 539.5628,-185.951 539.6374,-177.9514 541.2373,-177.9663"/>
<polyline fill="none" stroke="#000000" points="542,-181.9736 538.0002,-181.9363 "/>
<ellipse fill="none" stroke="#000000" cx="534.8003" cy="-181.9064" rx="3.2" ry="3.2"/>
</g>
<!-- TechnicalCareers -->
<g id="node9" class="node">
<title>TechnicalCareers</title>
<g id="a_node9"><a xlink:href="../../tables/TechnicalCareers.html" xlink:title="TechnicalCareers" target="_top">
<polygon fill="#ffffff" stroke="transparent" points="262,-294.4736 262,-355.4736 401,-355.4736 401,-294.4736 262,-294.4736"/>
<polygon fill="#f5f5f5" stroke="transparent" points="262.5,-331.9736 262.5,-354.9736 401.5,-354.9736 401.5,-331.9736 262.5,-331.9736"/>
<polygon fill="none" stroke="#000000" points="262.5,-331.9736 262.5,-354.9736 401.5,-354.9736 401.5,-331.9736 262.5,-331.9736"/>
<text text-anchor="start" x="267.5" y="-340.5736" font-family="Helvetica,sans-Serif" font-weight="bold" font-size="11.00" fill="#000000">TechnicalCareers</text>
<text text-anchor="start" x="367.0219" y="-340.0736" font-family="Helvetica,sans-Serif" font-size="11.00" fill="#000000">[table]</text>
<polygon fill="none" stroke="#000000" points="262.5,-312.9736 262.5,-331.9736 401.5,-331.9736 401.5,-312.9736 262.5,-312.9736"/>
<text text-anchor="start" x="265.5" y="-319.0736" font-family="Helvetica,sans-Serif" font-size="11.00" fill="#000000">...</text>
<polygon fill="#ffffff" stroke="transparent" points="262.5,-293.9736 262.5,-312.9736 312.5,-312.9736 312.5,-293.9736 262.5,-293.9736"/>
<polygon fill="none" stroke="#000000" points="262.5,-293.9736 262.5,-312.9736 312.5,-312.9736 312.5,-293.9736 262.5,-293.9736"/>
<text text-anchor="start" x="265.5" y="-300.0736" font-family="Helvetica,sans-Serif" font-size="11.00" fill="#000000">&lt; 2</text>
<polygon fill="#ffffff" stroke="transparent" points="312.5,-293.9736 312.5,-312.9736 365.5,-312.9736 365.5,-293.9736 312.5,-293.9736"/>
<polygon fill="none" stroke="#000000" points="312.5,-293.9736 312.5,-312.9736 365.5,-312.9736 365.5,-293.9736 312.5,-293.9736"/>
<text text-anchor="start" x="330.1105" y="-300.0736" font-family="Helvetica,sans-Serif" font-size="11.00" fill="#000000">6 rows</text>
<polygon fill="#ffffff" stroke="transparent" points="365.5,-293.9736 365.5,-312.9736 401.5,-312.9736 401.5,-293.9736 365.5,-293.9736"/>
<polygon fill="none" stroke="#000000" points="365.5,-293.9736 365.5,-312.9736 401.5,-312.9736 401.5,-293.9736 365.5,-293.9736"/>
<text text-anchor="start" x="382.9053" y="-300.0736" font-family="Helvetica,sans-Serif" font-size="11.00" fill="#000000">6 &gt;</text>
</a>
</g>
</g>
<!-- Coordinators&#45;&gt;TechnicalCareers -->
<g id="edge10" class="edge">
<title>Coordinators:w&#45;&gt;TechnicalCareers:e</title>
<path fill="none" stroke="#000000" d="M527.2961,-183.4511C457.7286,-198.4135 484.3154,-321.9736 401.5,-321.9736"/>
<polygon fill="#000000" stroke="#000000" points="534.0401,-182.7735 542.36,-185.5555 538.02,-182.3735 542,-181.9736 542,-181.9736 542,-181.9736 538.02,-182.3735 541.64,-178.3916 534.0401,-182.7735 534.0401,-182.7735"/>
<ellipse fill="none" stroke="#000000" cx="530.8561" cy="-183.0935" rx="3.2" ry="3.2"/>
</g>
<!-- TechnicalCareers&#45;&gt;AspNetUsers -->
<g id="edge48" class="edge">
<title>TechnicalCareers:w&#45;&gt;AspNetUsers:e</title>
<path fill="none" stroke="#000000" d="M247.9163,-321.277C229.6152,-323.9151 224.5143,-342.0079 212,-363.9736 172.0521,-434.0921 252.1997,-540.9736 171.5,-546.9736"/>
<polygon fill="#000000" stroke="#000000" points="254.5091,-321.5918 262.3282,-325.5695 258.5046,-321.7827 262.5,-321.9736 262.5,-321.9736 262.5,-321.9736 258.5046,-321.7827 262.6718,-318.3777 254.5091,-321.5918 254.5091,-321.5918"/>
<ellipse fill="none" stroke="#000000" cx="251.3128" cy="-321.4392" rx="3.2" ry="3.2"/>
</g>
<!-- TechnicalCareers&#45;&gt;AspNetUsers -->
<g id="edge49" class="edge">
<title>TechnicalCareers:w&#45;&gt;AspNetUsers:e</title>
<path fill="none" stroke="#000000" d="M248.7126,-326.79C229.7601,-336.3965 224.694,-354.6926 212,-376.9736 172.0521,-447.0921 252.1997,-553.9736 171.5,-546.9736"/>
<polygon fill="#000000" stroke="#000000" points="254.9476,-324.6119 263.6873,-325.3722 258.7238,-323.2928 262.5,-321.9736 262.5,-321.9736 262.5,-321.9736 258.7238,-323.2928 261.3127,-318.575 254.9476,-324.6119 254.9476,-324.6119"/>
<ellipse fill="none" stroke="#000000" cx="251.9266" cy="-325.6673" rx="3.2" ry="3.2"/>
</g>
<!-- EvaluationPeriods -->
<g id="node10" class="node">
<title>EvaluationPeriods</title>
<g id="a_node10"><a xlink:href="../../tables/EvaluationPeriods.html" xlink:title="EvaluationPeriods" target="_top">
<polygon fill="#ffffff" stroke="transparent" points="527.5,-346.4736 527.5,-407.4736 670.5,-407.4736 670.5,-346.4736 527.5,-346.4736"/>
<polygon fill="#f5f5f5" stroke="transparent" points="528,-383.9736 528,-406.9736 671,-406.9736 671,-383.9736 528,-383.9736"/>
<polygon fill="none" stroke="#000000" points="528,-383.9736 528,-406.9736 671,-406.9736 671,-383.9736 528,-383.9736"/>
<text text-anchor="start" x="533" y="-392.5736" font-family="Helvetica,sans-Serif" font-weight="bold" font-size="11.00" fill="#000000">EvaluationPeriods</text>
<text text-anchor="start" x="636.5219" y="-392.0736" font-family="Helvetica,sans-Serif" font-size="11.00" fill="#000000">[table]</text>
<polygon fill="none" stroke="#000000" points="528,-364.9736 528,-383.9736 671,-383.9736 671,-364.9736 528,-364.9736"/>
<text text-anchor="start" x="531" y="-371.0736" font-family="Helvetica,sans-Serif" font-size="11.00" fill="#000000">...</text>
<polygon fill="#ffffff" stroke="transparent" points="528,-345.9736 528,-364.9736 580,-364.9736 580,-345.9736 528,-345.9736"/>
<polygon fill="none" stroke="#000000" points="528,-345.9736 528,-364.9736 580,-364.9736 580,-345.9736 528,-345.9736"/>
<text text-anchor="start" x="531" y="-352.0736" font-family="Helvetica,sans-Serif" font-size="11.00" fill="#000000">&lt; 2</text>
<polygon fill="#ffffff" stroke="transparent" points="580,-345.9736 580,-364.9736 634,-364.9736 634,-345.9736 580,-345.9736"/>
<polygon fill="none" stroke="#000000" points="580,-345.9736 580,-364.9736 634,-364.9736 634,-345.9736 580,-345.9736"/>
<text text-anchor="start" x="598.6105" y="-352.0736" font-family="Helvetica,sans-Serif" font-size="11.00" fill="#000000">0 rows</text>
<polygon fill="#ffffff" stroke="transparent" points="634,-345.9736 634,-364.9736 671,-364.9736 671,-345.9736 634,-345.9736"/>
<polygon fill="none" stroke="#000000" points="634,-345.9736 634,-364.9736 671,-364.9736 671,-345.9736 634,-345.9736"/>
<text text-anchor="start" x="652.4053" y="-352.0736" font-family="Helvetica,sans-Serif" font-size="11.00" fill="#000000">3 &gt;</text>
</a>
</g>
</g>
<!-- EvaluationPeriods&#45;&gt;AspNetUsers -->
<g id="edge12" class="edge">
<title>EvaluationPeriods:w&#45;&gt;AspNetUsers:e</title>
<path fill="none" stroke="#000000" d="M513.3945,-373.8893C433.9365,-373.123 262.7404,-368.3255 212,-410.9736 163.721,-451.5528 234.5677,-546.9736 171.5,-546.9736"/>
<polygon fill="#000000" stroke="#000000" points="520.0001,-373.9274 527.9792,-377.5735 524.0001,-373.9505 528,-373.9736 528,-373.9736 528,-373.9736 524.0001,-373.9505 528.0208,-370.3736 520.0001,-373.9274 520.0001,-373.9274"/>
<ellipse fill="none" stroke="#000000" cx="516.8002" cy="-373.9089" rx="3.2" ry="3.2"/>
</g>
<!-- EvaluationPeriods&#45;&gt;AspNetUsers -->
<g id="edge13" class="edge">
<title>EvaluationPeriods:w&#45;&gt;AspNetUsers:e</title>
<path fill="none" stroke="#000000" d="M513.3764,-373.9322C433.8394,-373.5859 262.7288,-372.1532 212,-414.9736 165.1067,-454.5564 232.8659,-546.9736 171.5,-546.9736"/>
<polygon fill="#000000" stroke="#000000" points="520,-373.9509 527.9898,-377.5736 524,-373.9622 528,-373.9736 528,-373.9736 528,-373.9736 524,-373.9622 528.0102,-370.3736 520,-373.9509 520,-373.9509"/>
<ellipse fill="none" stroke="#000000" cx="516.8" cy="-373.9418" rx="3.2" ry="3.2"/>
</g>
<!-- FormQuestions -->
<g id="node11" class="node">
<title>FormQuestions</title>
<g id="a_node11"><a xlink:href="../../tables/FormQuestions.html" xlink:title="FormQuestions" target="_top">
<polygon fill="#ffffff" stroke="transparent" points="535.5,-616.4736 535.5,-677.4736 662.5,-677.4736 662.5,-616.4736 535.5,-616.4736"/>
<polygon fill="#f5f5f5" stroke="transparent" points="536,-653.9736 536,-676.9736 663,-676.9736 663,-653.9736 536,-653.9736"/>
<polygon fill="none" stroke="#000000" points="536,-653.9736 536,-676.9736 663,-676.9736 663,-653.9736 536,-653.9736"/>
<text text-anchor="start" x="541" y="-662.5736" font-family="Helvetica,sans-Serif" font-weight="bold" font-size="11.00" fill="#000000">FormQuestions</text>
<text text-anchor="start" x="628.5219" y="-662.0736" font-family="Helvetica,sans-Serif" font-size="11.00" fill="#000000">[table]</text>
<polygon fill="none" stroke="#000000" points="536,-634.9736 536,-653.9736 663,-653.9736 663,-634.9736 536,-634.9736"/>
<text text-anchor="start" x="539" y="-641.0736" font-family="Helvetica,sans-Serif" font-size="11.00" fill="#000000">...</text>
<polygon fill="#ffffff" stroke="transparent" points="536,-615.9736 536,-634.9736 580,-634.9736 580,-615.9736 536,-615.9736"/>
<polygon fill="none" stroke="#000000" points="536,-615.9736 536,-634.9736 580,-634.9736 580,-615.9736 536,-615.9736"/>
<text text-anchor="start" x="539" y="-622.0736" font-family="Helvetica,sans-Serif" font-size="11.00" fill="#000000">&lt; 3</text>
<polygon fill="#ffffff" stroke="transparent" points="580,-615.9736 580,-634.9736 630,-634.9736 630,-615.9736 580,-615.9736"/>
<polygon fill="none" stroke="#000000" points="580,-615.9736 580,-634.9736 630,-634.9736 630,-615.9736 580,-615.9736"/>
<text text-anchor="start" x="594.6105" y="-622.0736" font-family="Helvetica,sans-Serif" font-size="11.00" fill="#000000">0 rows</text>
<polygon fill="#ffffff" stroke="transparent" points="630,-615.9736 630,-634.9736 663,-634.9736 663,-615.9736 630,-615.9736"/>
<polygon fill="none" stroke="#000000" points="630,-615.9736 630,-634.9736 663,-634.9736 663,-615.9736 630,-615.9736"/>
<text text-anchor="start" x="644.4053" y="-622.0736" font-family="Helvetica,sans-Serif" font-size="11.00" fill="#000000">1 &gt;</text>
</a>
</g>
</g>
<!-- FormQuestions&#45;&gt;AspNetUsers -->
<g id="edge15" class="edge">
<title>FormQuestions:w&#45;&gt;AspNetUsers:e</title>
<path fill="none" stroke="#000000" d="M521.5878,-643.9111C440.9923,-643.2348 270.7629,-636.601 212,-601.9736 185.8464,-586.5619 201.8567,-546.9736 171.5,-546.9736"/>
<polygon fill="#000000" stroke="#000000" points="528.0001,-643.9389 535.9844,-647.5736 532,-643.9562 536,-643.9736 536,-643.9736 536,-643.9736 532,-643.9562 536.0156,-640.3736 528.0001,-643.9389 528.0001,-643.9389"/>
<ellipse fill="none" stroke="#000000" cx="524.8001" cy="-643.925" rx="3.2" ry="3.2"/>
</g>
<!-- FormQuestions&#45;&gt;AspNetUsers -->
<g id="edge16" class="edge">
<title>FormQuestions:w&#45;&gt;AspNetUsers:e</title>
<path fill="none" stroke="#000000" d="M521.5743,-643.8617C440.949,-642.6851 271.2769,-631.9402 212,-597.9736 186.8864,-583.5831 200.4444,-546.9736 171.5,-546.9736"/>
<polygon fill="#000000" stroke="#000000" points="528.0002,-643.9115 535.972,-647.5735 532.0001,-643.9425 536,-643.9736 536,-643.9736 536,-643.9736 532.0001,-643.9425 536.028,-640.3737 528.0002,-643.9115 528.0002,-643.9115"/>
<ellipse fill="none" stroke="#000000" cx="524.8003" cy="-643.8866" rx="3.2" ry="3.2"/>
</g>
<!-- FormQuestions&#45;&gt;Competencies -->
<g id="edge14" class="edge">
<title>FormQuestions:w&#45;&gt;Competencies:e</title>
<path fill="none" stroke="#000000" d="M521.4606,-644.6505C467.8061,-649.8293 453.4278,-682.9736 392.5,-682.9736"/>
<polygon fill="#000000" stroke="#000000" points="528.0087,-644.3457 536.1674,-647.5697 532.0043,-644.1596 536,-643.9736 536,-643.9736 536,-643.9736 532.0043,-644.1596 535.8326,-640.3775 528.0087,-644.3457 528.0087,-644.3457"/>
<ellipse fill="none" stroke="#000000" cx="524.8121" cy="-644.4945" rx="3.2" ry="3.2"/>
</g>
<!-- ProfessorCompetencyAssignments -->
<g id="node12" class="node">
<title>ProfessorCompetencyAssignments</title>
<g id="a_node12"><a xlink:href="../../tables/ProfessorCompetencyAssignments.html" xlink:title="ProfessorCompetencyAssignments" target="_top">
<polygon fill="#ffffff" stroke="transparent" points="755,-490.4736 755,-551.4736 997,-551.4736 997,-490.4736 755,-490.4736"/>
<polygon fill="#f5f5f5" stroke="transparent" points="755,-527.9736 755,-550.9736 997,-550.9736 997,-527.9736 755,-527.9736"/>
<polygon fill="none" stroke="#000000" points="755,-527.9736 755,-550.9736 997,-550.9736 997,-527.9736 755,-527.9736"/>
<text text-anchor="start" x="760" y="-536.5736" font-family="Helvetica,sans-Serif" font-weight="bold" font-size="11.00" fill="#000000">ProfessorCompetencyAssignments</text>
<text text-anchor="start" x="962.5219" y="-536.0736" font-family="Helvetica,sans-Serif" font-size="11.00" fill="#000000">[table]</text>
<polygon fill="none" stroke="#000000" points="755,-508.9736 755,-527.9736 997,-527.9736 997,-508.9736 755,-508.9736"/>
<text text-anchor="start" x="758" y="-515.0736" font-family="Helvetica,sans-Serif" font-size="11.00" fill="#000000">...</text>
<polygon fill="#ffffff" stroke="transparent" points="755,-489.9736 755,-508.9736 857,-508.9736 857,-489.9736 755,-489.9736"/>
<polygon fill="none" stroke="#000000" points="755,-489.9736 755,-508.9736 857,-508.9736 857,-489.9736 755,-489.9736"/>
<text text-anchor="start" x="758" y="-496.0736" font-family="Helvetica,sans-Serif" font-size="11.00" fill="#000000">&lt; 7</text>
<polygon fill="#ffffff" stroke="transparent" points="857,-489.9736 857,-508.9736 935,-508.9736 935,-489.9736 857,-489.9736"/>
<polygon fill="none" stroke="#000000" points="857,-489.9736 857,-508.9736 935,-508.9736 935,-489.9736 857,-489.9736"/>
<text text-anchor="start" x="899.6105" y="-496.0736" font-family="Helvetica,sans-Serif" font-size="11.00" fill="#000000">0 rows</text>
<polygon fill="#ffffff" stroke="transparent" points="935,-489.9736 935,-508.9736 997,-508.9736 997,-489.9736 935,-489.9736"/>
<polygon fill="none" stroke="#000000" points="935,-489.9736 935,-508.9736 997,-508.9736 997,-489.9736 935,-489.9736"/>
<text text-anchor="start" x="978.4053" y="-496.0736" font-family="Helvetica,sans-Serif" font-size="11.00" fill="#000000">1 &gt;</text>
</a>
</g>
</g>
<!-- ProfessorCompetencyAssignments&#45;&gt;AspNetUsers -->
<g id="edge18" class="edge">
<title>ProfessorCompetencyAssignments:w&#45;&gt;AspNetUsers:e</title>
<path fill="none" stroke="#000000" d="M740.3695,-518.2422C639.9412,-521.1657 232.7366,-546.9736 171.5,-546.9736"/>
<polygon fill="#000000" stroke="#000000" points="747.0013,-518.1205 755.0661,-521.573 751.0007,-518.047 755,-517.9736 755,-517.9736 755,-517.9736 751.0007,-518.047 754.9339,-514.3742 747.0013,-518.1205 747.0013,-518.1205"/>
<ellipse fill="none" stroke="#000000" cx="743.8019" cy="-518.1792" rx="3.2" ry="3.2"/>
</g>
<!-- ProfessorCompetencyAssignments&#45;&gt;AspNetUsers -->
<g id="edge23" class="edge">
<title>ProfessorCompetencyAssignments:w&#45;&gt;AspNetUsers:e</title>
<path fill="none" stroke="#000000" d="M740.3762,-518.0047C492.8308,-519.0676 426.2089,-546.9736 171.5,-546.9736"/>
<polygon fill="#000000" stroke="#000000" points="747,-517.9907 755.0077,-521.5736 751,-517.9821 755,-517.9736 755,-517.9736 755,-517.9736 751,-517.9821 754.9923,-514.3736 747,-517.9907 747,-517.9907"/>
<ellipse fill="none" stroke="#000000" cx="743.8" cy="-517.9975" rx="3.2" ry="3.2"/>
</g>
<!-- ProfessorCompetencyAssignments&#45;&gt;Competencies -->
<g id="edge17" class="edge">
<title>ProfessorCompetencyAssignments:w&#45;&gt;Competencies:e</title>
<path fill="none" stroke="#000000" d="M740.4583,-519.9082C690.9178,-535.6636 770.5294,-643.457 714,-687.9736 657.8637,-732.1806 463.9531,-682.9736 392.5,-682.9736"/>
<polygon fill="#000000" stroke="#000000" points="747.0699,-519.0287 755.4748,-521.5421 751.0349,-518.5011 755,-517.9736 755,-517.9736 755,-517.9736 751.0349,-518.5011 754.5252,-514.405 747.0699,-519.0287 747.0699,-519.0287"/>
<ellipse fill="none" stroke="#000000" cx="743.8978" cy="-519.4507" rx="3.2" ry="3.2"/>
</g>
<!-- ProfessorCompetencyAssignments&#45;&gt;TechnicalCareers -->
<g id="edge22" class="edge">
<title>ProfessorCompetencyAssignments:w&#45;&gt;TechnicalCareers:e</title>
<path fill="none" stroke="#000000" d="M740.5229,-516.2336C685.7169,-500.7207 773.2317,-385.5603 714,-335.9736 660.6984,-291.3513 471.0141,-321.9736 401.5,-321.9736"/>
<polygon fill="#000000" stroke="#000000" points="747.0572,-517.0189 754.5704,-521.5479 751.0286,-517.4962 755,-517.9736 755,-517.9736 755,-517.9736 751.0286,-517.4962 755.4296,-514.3993 747.0572,-517.0189 747.0572,-517.0189"/>
<ellipse fill="none" stroke="#000000" cx="743.88" cy="-516.637" rx="3.2" ry="3.2"/>
</g>
<!-- ProfessorCompetencyAssignments&#45;&gt;EvaluationPeriods -->
<g id="edge19" class="edge">
<title>ProfessorCompetencyAssignments:w&#45;&gt;EvaluationPeriods:e</title>
<path fill="none" stroke="#000000" d="M740.5292,-515.3231C714.3855,-503.3167 737.0865,-453.096 714,-417.9736 698.9809,-395.1245 698.3433,-373.9736 671,-373.9736"/>
<polygon fill="#000000" stroke="#000000" points="747.1309,-516.5322 754.3514,-521.5147 751.0655,-517.2529 755,-517.9736 755,-517.9736 755,-517.9736 751.0655,-517.2529 755.6486,-514.4325 747.1309,-516.5322 747.1309,-516.5322"/>
<ellipse fill="none" stroke="#000000" cx="743.9833" cy="-515.9557" rx="3.2" ry="3.2"/>
</g>
<!-- Professors -->
<g id="node13" class="node">
<title>Professors</title>
<g id="a_node13"><a xlink:href="../../tables/Professors.html" xlink:title="Professors" target="_top">
<polygon fill="#ffffff" stroke="transparent" points="281,-455.4736 281,-516.4736 382,-516.4736 382,-455.4736 281,-455.4736"/>
<polygon fill="#f5f5f5" stroke="transparent" points="281.5,-492.9736 281.5,-515.9736 382.5,-515.9736 382.5,-492.9736 281.5,-492.9736"/>
<polygon fill="none" stroke="#000000" points="281.5,-492.9736 281.5,-515.9736 382.5,-515.9736 382.5,-492.9736 281.5,-492.9736"/>
<text text-anchor="start" x="286.5" y="-501.5736" font-family="Helvetica,sans-Serif" font-weight="bold" font-size="11.00" fill="#000000">Professors</text>
<text text-anchor="start" x="348.0219" y="-501.0736" font-family="Helvetica,sans-Serif" font-size="11.00" fill="#000000">[table]</text>
<polygon fill="none" stroke="#000000" points="281.5,-473.9736 281.5,-492.9736 382.5,-492.9736 382.5,-473.9736 281.5,-473.9736"/>
<text text-anchor="start" x="284.5" y="-480.0736" font-family="Helvetica,sans-Serif" font-size="11.00" fill="#000000">...</text>
<polygon fill="#ffffff" stroke="transparent" points="281.5,-454.9736 281.5,-473.9736 312.5,-473.9736 312.5,-454.9736 281.5,-454.9736"/>
<polygon fill="none" stroke="#000000" points="281.5,-454.9736 281.5,-473.9736 312.5,-473.9736 312.5,-454.9736 281.5,-454.9736"/>
<text text-anchor="start" x="284.5" y="-461.0736" font-family="Helvetica,sans-Serif" font-size="11.00" fill="#000000">&lt; 1</text>
<polygon fill="#ffffff" stroke="transparent" points="312.5,-454.9736 312.5,-473.9736 355.5,-473.9736 355.5,-454.9736 312.5,-454.9736"/>
<polygon fill="none" stroke="#000000" points="312.5,-454.9736 312.5,-473.9736 355.5,-473.9736 355.5,-454.9736 312.5,-454.9736"/>
<text text-anchor="start" x="320.1105" y="-461.0736" font-family="Helvetica,sans-Serif" font-size="11.00" fill="#000000">0 rows</text>
<polygon fill="#ffffff" stroke="transparent" points="355.5,-454.9736 355.5,-473.9736 382.5,-473.9736 382.5,-454.9736 355.5,-454.9736"/>
<polygon fill="none" stroke="#000000" points="355.5,-454.9736 355.5,-473.9736 382.5,-473.9736 382.5,-454.9736 355.5,-454.9736"/>
<text text-anchor="start" x="363.9053" y="-461.0736" font-family="Helvetica,sans-Serif" font-size="11.00" fill="#000000">2 &gt;</text>
</a>
</g>
</g>
<!-- ProfessorCompetencyAssignments&#45;&gt;Professors -->
<g id="edge20" class="edge">
<title>ProfessorCompetencyAssignments:w&#45;&gt;Professors:e</title>
<path fill="none" stroke="#000000" d="M740.5904,-517.9529C631.6464,-517.6276 598.9791,-513.3871 484,-499.9736 438.5686,-494.6736 428.2395,-482.9736 382.5,-482.9736"/>
<polygon fill="#000000" stroke="#000000" points="747,-517.9621 754.9948,-521.5736 751,-517.9678 755,-517.9736 755,-517.9736 755,-517.9736 751,-517.9678 755.0052,-514.3736 747,-517.9621 747,-517.9621"/>
<ellipse fill="none" stroke="#000000" cx="743.8" cy="-517.9574" rx="3.2" ry="3.2"/>
</g>
<!-- Subjects -->
<g id="node14" class="node">
<title>Subjects</title>
<g id="a_node14"><a xlink:href="../../tables/Subjects.html" xlink:title="Subjects" target="_top">
<polygon fill="#ffffff" stroke="transparent" points="554.5,-428.4736 554.5,-489.4736 643.5,-489.4736 643.5,-428.4736 554.5,-428.4736"/>
<polygon fill="#f5f5f5" stroke="transparent" points="555,-465.9736 555,-488.9736 644,-488.9736 644,-465.9736 555,-465.9736"/>
<polygon fill="none" stroke="#000000" points="555,-465.9736 555,-488.9736 644,-488.9736 644,-465.9736 555,-465.9736"/>
<text text-anchor="start" x="560" y="-474.5736" font-family="Helvetica,sans-Serif" font-weight="bold" font-size="11.00" fill="#000000">Subjects</text>
<text text-anchor="start" x="609.5219" y="-474.0736" font-family="Helvetica,sans-Serif" font-size="11.00" fill="#000000">[table]</text>
<polygon fill="none" stroke="#000000" points="555,-446.9736 555,-465.9736 644,-465.9736 644,-446.9736 555,-446.9736"/>
<text text-anchor="start" x="558" y="-453.0736" font-family="Helvetica,sans-Serif" font-size="11.00" fill="#000000">...</text>
<polygon fill="#ffffff" stroke="transparent" points="555,-427.9736 555,-446.9736 580,-446.9736 580,-427.9736 555,-427.9736"/>
<polygon fill="none" stroke="#000000" points="555,-427.9736 555,-446.9736 580,-446.9736 580,-427.9736 555,-427.9736"/>
<text text-anchor="start" x="558" y="-434.0736" font-family="Helvetica,sans-Serif" font-size="11.00" fill="#000000">&lt; 4</text>
<polygon fill="#ffffff" stroke="transparent" points="580,-427.9736 580,-446.9736 620,-446.9736 620,-427.9736 580,-427.9736"/>
<polygon fill="none" stroke="#000000" points="580,-427.9736 580,-446.9736 620,-446.9736 620,-427.9736 580,-427.9736"/>
<text text-anchor="start" x="584.6105" y="-434.0736" font-family="Helvetica,sans-Serif" font-size="11.00" fill="#000000">0 rows</text>
<polygon fill="#ffffff" stroke="transparent" points="620,-427.9736 620,-446.9736 644,-446.9736 644,-427.9736 620,-427.9736"/>
<polygon fill="none" stroke="#000000" points="620,-427.9736 620,-446.9736 644,-446.9736 644,-427.9736 620,-427.9736"/>
<text text-anchor="start" x="625.4053" y="-434.0736" font-family="Helvetica,sans-Serif" font-size="11.00" fill="#000000">3 &gt;</text>
</a>
</g>
</g>
<!-- ProfessorCompetencyAssignments&#45;&gt;Subjects -->
<g id="edge21" class="edge">
<title>ProfessorCompetencyAssignments:w&#45;&gt;Subjects:e</title>
<path fill="none" stroke="#000000" d="M740.5539,-516.441C698.356,-506.8935 695.2098,-455.9736 644,-455.9736"/>
<polygon fill="#000000" stroke="#000000" points="747.0446,-517.1295 754.6202,-521.5535 751.0223,-517.5516 755,-517.9736 755,-517.9736 755,-517.9736 751.0223,-517.5516 755.3798,-514.3937 747.0446,-517.1295 747.0446,-517.1295"/>
<ellipse fill="none" stroke="#000000" cx="743.8625" cy="-516.7919" rx="3.2" ry="3.2"/>
</g>
<!-- Professors&#45;&gt;AspNetUsers -->
<g id="edge24" class="edge">
<title>Professors:w&#45;&gt;AspNetUsers:e</title>
<path fill="none" stroke="#000000" d="M270.9865,-483.7828C225.09,-491.1914 224.3055,-546.9736 171.5,-546.9736"/>
<polygon fill="#000000" stroke="#000000" points="280.3954,-479.0468 281.0094,-487.0232 279.4141,-487.146 278.8001,-479.1696 280.3954,-479.0468"/>
<polyline fill="none" stroke="#000000" points="281.5,-482.9736 277.5118,-483.2806 "/>
<ellipse fill="none" stroke="#000000" cx="274.3212" cy="-483.5262" rx="3.2" ry="3.2"/>
</g>
<!-- Subjects&#45;&gt;AspNetUsers -->
<g id="edge44" class="edge">
<title>Subjects:w&#45;&gt;AspNetUsers:e</title>
<path fill="none" stroke="#000000" d="M540.524,-455.6817C398.2694,-449.9323 334.1238,-362.0655 212,-444.9736 171.6448,-472.3701 220.2761,-546.9736 171.5,-546.9736"/>
<polygon fill="#000000" stroke="#000000" points="547.0016,-455.8123 554.9274,-459.5729 551.0008,-455.8929 555,-455.9736 555,-455.9736 555,-455.9736 551.0008,-455.8929 555.0726,-452.3743 547.0016,-455.8123 547.0016,-455.8123"/>
<ellipse fill="none" stroke="#000000" cx="543.8023" cy="-455.7478" rx="3.2" ry="3.2"/>
</g>
<!-- Subjects&#45;&gt;AspNetUsers -->
<g id="edge47" class="edge">
<title>Subjects:w&#45;&gt;AspNetUsers:e</title>
<path fill="none" stroke="#000000" d="M540.5299,-455.6967C398.3477,-450.2425 334.6605,-366.9426 212,-448.9736 172.8248,-475.1726 218.6284,-546.9736 171.5,-546.9736"/>
<polygon fill="#000000" stroke="#000000" points="547.0015,-455.8205 554.9311,-459.5729 551.0007,-455.897 555,-455.9736 555,-455.9736 555,-455.9736 551.0007,-455.897 555.0689,-452.3742 547.0015,-455.8205 547.0015,-455.8205"/>
<ellipse fill="none" stroke="#000000" cx="543.8021" cy="-455.7592" rx="3.2" ry="3.2"/>
</g>
<!-- Subjects&#45;&gt;TechnicalCareers -->
<g id="edge46" class="edge">
<title>Subjects:w&#45;&gt;TechnicalCareers:e</title>
<path fill="none" stroke="#000000" d="M540.453,-454.9184C516.5085,-451.0621 507.6635,-436.9592 484,-417.9736 440.12,-382.768 457.7573,-321.9736 401.5,-321.9736"/>
<polygon fill="#000000" stroke="#000000" points="547.021,-455.3948 554.7395,-459.5642 551.0105,-455.6842 555,-455.9736 555,-455.9736 555,-455.9736 551.0105,-455.6842 555.2605,-452.383 547.021,-455.3948 547.021,-455.3948"/>
<ellipse fill="none" stroke="#000000" cx="543.8293" cy="-455.1632" rx="3.2" ry="3.2"/>
</g>
<!-- Subjects&#45;&gt;Professors -->
<g id="edge45" class="edge">
<title>Subjects:w&#45;&gt;Professors:e</title>
<path fill="none" stroke="#000000" d="M540.303,-456.315C474.8363,-459.4405 454.947,-482.9736 382.5,-482.9736"/>
<polygon fill="#000000" stroke="#000000" points="547.0022,-456.1594 555.0836,-459.5726 551.0011,-456.0665 555,-455.9736 555,-455.9736 555,-455.9736 551.0011,-456.0665 554.9164,-452.3746 547.0022,-456.1594 547.0022,-456.1594"/>
<ellipse fill="none" stroke="#000000" cx="543.803" cy="-456.2337" rx="3.2" ry="3.2"/>
</g>
<!-- QuestionResponses -->
<g id="node15" class="node">
<title>QuestionResponses</title>
<g id="a_node15"><a xlink:href="../../tables/QuestionResponses.html" xlink:title="QuestionResponses" target="_top">
<polygon fill="#ffffff" stroke="transparent" points="1318,-682.4736 1318,-743.4736 1473,-743.4736 1473,-682.4736 1318,-682.4736"/>
<polygon fill="#f5f5f5" stroke="transparent" points="1318.5,-719.9736 1318.5,-742.9736 1473.5,-742.9736 1473.5,-719.9736 1318.5,-719.9736"/>
<polygon fill="none" stroke="#000000" points="1318.5,-719.9736 1318.5,-742.9736 1473.5,-742.9736 1473.5,-719.9736 1318.5,-719.9736"/>
<text text-anchor="start" x="1323.5" y="-728.5736" font-family="Helvetica,sans-Serif" font-weight="bold" font-size="11.00" fill="#000000">QuestionResponses</text>
<text text-anchor="start" x="1439.0219" y="-728.0736" font-family="Helvetica,sans-Serif" font-size="11.00" fill="#000000">[table]</text>
<polygon fill="none" stroke="#000000" points="1318.5,-700.9736 1318.5,-719.9736 1473.5,-719.9736 1473.5,-700.9736 1318.5,-700.9736"/>
<text text-anchor="start" x="1321.5" y="-707.0736" font-family="Helvetica,sans-Serif" font-size="11.00" fill="#000000">...</text>
<polygon fill="#ffffff" stroke="transparent" points="1318.5,-681.9736 1318.5,-700.9736 1381.5,-700.9736 1381.5,-681.9736 1318.5,-681.9736"/>
<polygon fill="none" stroke="#000000" points="1318.5,-681.9736 1318.5,-700.9736 1381.5,-700.9736 1381.5,-681.9736 1318.5,-681.9736"/>
<text text-anchor="start" x="1321.5" y="-688.0736" font-family="Helvetica,sans-Serif" font-size="11.00" fill="#000000">&lt; 4</text>
<polygon fill="#ffffff" stroke="transparent" points="1381.5,-681.9736 1381.5,-700.9736 1440.5,-700.9736 1440.5,-681.9736 1381.5,-681.9736"/>
<polygon fill="none" stroke="#000000" points="1381.5,-681.9736 1381.5,-700.9736 1440.5,-700.9736 1440.5,-681.9736 1381.5,-681.9736"/>
<text text-anchor="start" x="1405.1105" y="-688.0736" font-family="Helvetica,sans-Serif" font-size="11.00" fill="#000000">0 rows</text>
<polygon fill="#ffffff" stroke="transparent" points="1440.5,-681.9736 1440.5,-700.9736 1473.5,-700.9736 1473.5,-681.9736 1440.5,-681.9736"/>
<polygon fill="none" stroke="#000000" points="1440.5,-681.9736 1440.5,-700.9736 1473.5,-700.9736 1473.5,-681.9736 1440.5,-681.9736"/>
<text text-anchor="start" x="1464.3862" y="-688.0736" font-family="Helvetica,sans-Serif" font-size="11.00" fill="#000000"> &#160;</text>
</a>
</g>
</g>
<!-- QuestionResponses&#45;&gt;AspNetUsers -->
<g id="edge25" class="edge">
<title>QuestionResponses:w&#45;&gt;AspNetUsers:e</title>
<path fill="none" stroke="#000000" d="M1304.0319,-710.2655C1138.3176,-715.9291 304.8737,-801.2725 212,-726.9736 147.9688,-675.7486 253.5,-546.9736 171.5,-546.9736"/>
<polygon fill="#000000" stroke="#000000" points="1310.5016,-710.135 1318.5727,-713.5729 1314.5008,-710.0543 1318.5,-709.9736 1318.5,-709.9736 1318.5,-709.9736 1314.5008,-710.0543 1318.4273,-706.3743 1310.5016,-710.135 1310.5016,-710.135"/>
<ellipse fill="none" stroke="#000000" cx="1307.3023" cy="-710.1996" rx="3.2" ry="3.2"/>
</g>
<!-- QuestionResponses&#45;&gt;AspNetUsers -->
<g id="edge28" class="edge">
<title>QuestionResponses:w&#45;&gt;AspNetUsers:e</title>
<path fill="none" stroke="#000000" d="M1304.033,-710.2522C1138.3347,-715.6566 305.0495,-797.0429 212,-722.9736 149.2007,-672.984 251.7665,-546.9736 171.5,-546.9736"/>
<polygon fill="#000000" stroke="#000000" points="1310.5015,-710.1277 1318.5694,-713.5729 1314.5007,-710.0506 1318.5,-709.9736 1318.5,-709.9736 1318.5,-709.9736 1314.5007,-710.0506 1318.4306,-706.3743 1310.5015,-710.1277 1310.5015,-710.1277"/>
<ellipse fill="none" stroke="#000000" cx="1307.3021" cy="-710.1893" rx="3.2" ry="3.2"/>
</g>
<!-- QuestionResponses&#45;&gt;FormQuestions -->
<g id="edge26" class="edge">
<title>QuestionResponses:w&#45;&gt;FormQuestions:e</title>
<path fill="none" stroke="#000000" d="M1304.0991,-709.9196C1023.3117,-707.8004 950.9453,-643.9736 663,-643.9736"/>
<polygon fill="#000000" stroke="#000000" points="1310.5001,-709.9436 1318.4865,-713.5736 1314.5,-709.9586 1318.5,-709.9736 1318.5,-709.9736 1318.5,-709.9736 1314.5,-709.9586 1318.5135,-706.3736 1310.5001,-709.9436 1310.5001,-709.9436"/>
<ellipse fill="none" stroke="#000000" cx="1307.3001" cy="-709.9315" rx="3.2" ry="3.2"/>
</g>
<!-- StudentCompetencyEvaluations -->
<g id="node16" class="node">
<title>StudentCompetencyEvaluations</title>
<g id="a_node16"><a xlink:href="../../tables/StudentCompetencyEvaluations.html" xlink:title="StudentCompetencyEvaluations" target="_top">
<polygon fill="#ffffff" stroke="transparent" points="1046,-540.4736 1046,-601.4736 1269,-601.4736 1269,-540.4736 1046,-540.4736"/>
<polygon fill="#f5f5f5" stroke="transparent" points="1046.5,-577.9736 1046.5,-600.9736 1269.5,-600.9736 1269.5,-577.9736 1046.5,-577.9736"/>
<polygon fill="none" stroke="#000000" points="1046.5,-577.9736 1046.5,-600.9736 1269.5,-600.9736 1269.5,-577.9736 1046.5,-577.9736"/>
<text text-anchor="start" x="1051.5" y="-586.5736" font-family="Helvetica,sans-Serif" font-weight="bold" font-size="11.00" fill="#000000">StudentCompetencyEvaluations</text>
<text text-anchor="start" x="1235.0219" y="-586.0736" font-family="Helvetica,sans-Serif" font-size="11.00" fill="#000000">[table]</text>
<polygon fill="none" stroke="#000000" points="1046.5,-558.9736 1046.5,-577.9736 1269.5,-577.9736 1269.5,-558.9736 1046.5,-558.9736"/>
<text text-anchor="start" x="1049.5" y="-565.0736" font-family="Helvetica,sans-Serif" font-size="11.00" fill="#000000">...</text>
<polygon fill="#ffffff" stroke="transparent" points="1046.5,-539.9736 1046.5,-558.9736 1138.5,-558.9736 1138.5,-539.9736 1046.5,-539.9736"/>
<polygon fill="none" stroke="#000000" points="1046.5,-539.9736 1046.5,-558.9736 1138.5,-558.9736 1138.5,-539.9736 1046.5,-539.9736"/>
<text text-anchor="start" x="1049.5" y="-546.0736" font-family="Helvetica,sans-Serif" font-size="11.00" fill="#000000">&lt; 5</text>
<polygon fill="#ffffff" stroke="transparent" points="1138.5,-539.9736 1138.5,-558.9736 1212.5,-558.9736 1212.5,-539.9736 1138.5,-539.9736"/>
<polygon fill="none" stroke="#000000" points="1138.5,-539.9736 1138.5,-558.9736 1212.5,-558.9736 1212.5,-539.9736 1138.5,-539.9736"/>
<text text-anchor="start" x="1177.1105" y="-546.0736" font-family="Helvetica,sans-Serif" font-size="11.00" fill="#000000">0 rows</text>
<polygon fill="#ffffff" stroke="transparent" points="1212.5,-539.9736 1212.5,-558.9736 1269.5,-558.9736 1269.5,-539.9736 1212.5,-539.9736"/>
<polygon fill="none" stroke="#000000" points="1212.5,-539.9736 1212.5,-558.9736 1269.5,-558.9736 1269.5,-539.9736 1212.5,-539.9736"/>
<text text-anchor="start" x="1250.9053" y="-546.0736" font-family="Helvetica,sans-Serif" font-size="11.00" fill="#000000">1 &gt;</text>
</a>
</g>
</g>
<!-- QuestionResponses&#45;&gt;StudentCompetencyEvaluations -->
<g id="edge27" class="edge">
<title>QuestionResponses:w&#45;&gt;StudentCompetencyEvaluations:e</title>
<path fill="none" stroke="#000000" d="M1303.9494,-706.7409C1265.7041,-685.6042 1330.2647,-567.9736 1269.5,-567.9736"/>
<polygon fill="#000000" stroke="#000000" points="1310.6904,-708.2385 1317.7192,-713.4879 1314.5952,-709.106 1318.5,-709.9736 1318.5,-709.9736 1318.5,-709.9736 1314.5952,-709.106 1319.2808,-706.4593 1310.6904,-708.2385 1310.6904,-708.2385"/>
<ellipse fill="none" stroke="#000000" cx="1307.5666" cy="-707.5445" rx="3.2" ry="3.2"/>
</g>
<!-- StudentCompetencyEvaluations&#45;&gt;AspNetUsers -->
<g id="edge29" class="edge">
<title>StudentCompetencyEvaluations:w&#45;&gt;AspNetUsers:e</title>
<path fill="none" stroke="#000000" d="M1031.972,-567.9922C673.0089,-568.9139 575.054,-603.562 212,-556.9736 193.6102,-554.6137 190.0406,-546.9736 171.5,-546.9736"/>
<polygon fill="#000000" stroke="#000000" points="1038.5,-567.9839 1046.5046,-571.5736 1042.5,-567.9787 1046.5,-567.9736 1046.5,-567.9736 1046.5,-567.9736 1042.5,-567.9787 1046.4954,-564.3736 1038.5,-567.9839 1038.5,-567.9839"/>
<ellipse fill="none" stroke="#000000" cx="1035.3" cy="-567.988" rx="3.2" ry="3.2"/>
</g>
<!-- StudentCompetencyEvaluations&#45;&gt;AspNetUsers -->
<g id="edge33" class="edge">
<title>StudentCompetencyEvaluations:w&#45;&gt;AspNetUsers:e</title>
<path fill="none" stroke="#000000" d="M1031.9719,-567.9816C673.0283,-568.3763 576.8126,-583.1485 212,-552.9736 193.8655,-551.4736 189.6965,-546.9736 171.5,-546.9736"/>
<polygon fill="#000000" stroke="#000000" points="1038.5,-567.978 1046.502,-571.5736 1042.5,-567.9758 1046.5,-567.9736 1046.5,-567.9736 1046.5,-567.9736 1042.5,-567.9758 1046.498,-564.3736 1038.5,-567.978 1038.5,-567.978"/>
<ellipse fill="none" stroke="#000000" cx="1035.3" cy="-567.9798" rx="3.2" ry="3.2"/>
</g>
<!-- StudentCompetencyEvaluations&#45;&gt;ProfessorCompetencyAssignments -->
<g id="edge30" class="edge">
<title>StudentCompetencyEvaluations:w&#45;&gt;ProfessorCompetencyAssignments:e</title>
<path fill="none" stroke="#000000" d="M1032.5883,-562.9966C1018.6334,-550.3497 1022.1628,-517.9736 997,-517.9736"/>
<polygon fill="#000000" stroke="#000000" points="1038.9675,-565.2788 1045.2873,-571.3632 1042.7338,-566.6262 1046.5,-567.9736 1046.5,-567.9736 1046.5,-567.9736 1042.7338,-566.6262 1047.7127,-564.584 1038.9675,-565.2788 1038.9675,-565.2788"/>
<ellipse fill="none" stroke="#000000" cx="1035.9545" cy="-564.2008" rx="3.2" ry="3.2"/>
</g>
<!-- StudentCompetencyEvaluations&#45;&gt;Subjects -->
<g id="edge32" class="edge">
<title>StudentCompetencyEvaluations:w&#45;&gt;Subjects:e</title>
<path fill="none" stroke="#000000" d="M1032.3441,-564.2958C1012.561,-550.3967 1035.5673,-500.8078 1005,-479.9736 872.1293,-389.4111 804.7986,-455.9736 644,-455.9736"/>
<polygon fill="#000000" stroke="#000000" points="1038.757,-565.9619 1045.5947,-571.4579 1042.6285,-566.9677 1046.5,-567.9736 1046.5,-567.9736 1046.5,-567.9736 1042.6285,-566.9677 1047.4053,-564.4893 1038.757,-565.9619 1038.757,-565.9619"/>
<ellipse fill="none" stroke="#000000" cx="1035.6599" cy="-565.1572" rx="3.2" ry="3.2"/>
</g>
<!-- Students -->
<g id="node17" class="node">
<title>Students</title>
<g id="a_node17"><a xlink:href="../../tables/Students.html" xlink:title="Students" target="_top">
<polygon fill="#ffffff" stroke="transparent" points="554,-236.4736 554,-297.4736 644,-297.4736 644,-236.4736 554,-236.4736"/>
<polygon fill="#f5f5f5" stroke="transparent" points="554,-273.9736 554,-296.9736 644,-296.9736 644,-273.9736 554,-273.9736"/>
<polygon fill="none" stroke="#000000" points="554,-273.9736 554,-296.9736 644,-296.9736 644,-273.9736 554,-273.9736"/>
<text text-anchor="start" x="559" y="-282.5736" font-family="Helvetica,sans-Serif" font-weight="bold" font-size="11.00" fill="#000000">Students</text>
<text text-anchor="start" x="609.5219" y="-282.0736" font-family="Helvetica,sans-Serif" font-size="11.00" fill="#000000">[table]</text>
<polygon fill="none" stroke="#000000" points="554,-254.9736 554,-273.9736 644,-273.9736 644,-254.9736 554,-254.9736"/>
<text text-anchor="start" x="557" y="-261.0736" font-family="Helvetica,sans-Serif" font-size="11.00" fill="#000000">...</text>
<polygon fill="#ffffff" stroke="transparent" points="554,-235.9736 554,-254.9736 580,-254.9736 580,-235.9736 554,-235.9736"/>
<polygon fill="none" stroke="#000000" points="554,-235.9736 554,-254.9736 580,-254.9736 580,-235.9736 554,-235.9736"/>
<text text-anchor="start" x="557" y="-242.0736" font-family="Helvetica,sans-Serif" font-size="11.00" fill="#000000">&lt; 2</text>
<polygon fill="#ffffff" stroke="transparent" points="580,-235.9736 580,-254.9736 620,-254.9736 620,-235.9736 580,-235.9736"/>
<polygon fill="none" stroke="#000000" points="580,-235.9736 580,-254.9736 620,-254.9736 620,-235.9736 580,-235.9736"/>
<text text-anchor="start" x="584.6105" y="-242.0736" font-family="Helvetica,sans-Serif" font-size="11.00" fill="#000000">0 rows</text>
<polygon fill="#ffffff" stroke="transparent" points="620,-235.9736 620,-254.9736 644,-254.9736 644,-235.9736 620,-235.9736"/>
<polygon fill="none" stroke="#000000" points="620,-235.9736 620,-254.9736 644,-254.9736 644,-235.9736 620,-235.9736"/>
<text text-anchor="start" x="625.4053" y="-242.0736" font-family="Helvetica,sans-Serif" font-size="11.00" fill="#000000">3 &gt;</text>
</a>
</g>
</g>
<!-- StudentCompetencyEvaluations&#45;&gt;Students -->
<g id="edge31" class="edge">
<title>StudentCompetencyEvaluations:w&#45;&gt;Students:e</title>
<path fill="none" stroke="#000000" d="M1032.1817,-565.897C993.1975,-552.1932 1043.2597,-473.9532 1005,-429.9736 947.047,-363.3565 732.2972,-263.9736 644,-263.9736"/>
<polygon fill="#000000" stroke="#000000" points="1038.5828,-566.8253 1045.9833,-571.5363 1042.5414,-567.3994 1046.5,-567.9736 1046.5,-567.9736 1046.5,-567.9736 1042.5414,-567.3994 1047.0167,-564.4109 1038.5828,-566.8253 1038.5828,-566.8253"/>
<ellipse fill="none" stroke="#000000" cx="1035.416" cy="-566.366" rx="3.2" ry="3.2"/>
</g>
<!-- Students&#45;&gt;AspNetUsers -->
<g id="edge39" class="edge">
<title>Students:w&#45;&gt;AspNetUsers:e</title>
<path fill="none" stroke="#000000" d="M543.4166,-263.8411C398.1059,-260.2096 321.9831,-183.9098 212,-283.9736 168.2605,-323.7682 230.6334,-546.9736 171.5,-546.9736"/>
<polygon fill="#000000" stroke="#000000" points="553.2502,-259.9639 553.15,-267.9633 551.5501,-267.9432 551.6503,-259.9438 553.2502,-259.9639"/>
<polyline fill="none" stroke="#000000" points="554,-263.9736 550.0003,-263.9235 "/>
<ellipse fill="none" stroke="#000000" cx="546.8006" cy="-263.8834" rx="3.2" ry="3.2"/>
</g>
<!-- Students&#45;&gt;TechnicalCareers -->
<g id="edge38" class="edge">
<title>Students:w&#45;&gt;TechnicalCareers:e</title>
<path fill="none" stroke="#000000" d="M539.2491,-264.8385C480.0662,-272.0535 468.774,-321.9736 401.5,-321.9736"/>
<polygon fill="#000000" stroke="#000000" points="546.0137,-264.4419 554.2107,-267.5674 550.0069,-264.2077 554,-263.9736 554,-263.9736 554,-263.9736 550.0069,-264.2077 553.7893,-260.3798 546.0137,-264.4419 546.0137,-264.4419"/>
<ellipse fill="none" stroke="#000000" cx="542.8192" cy="-264.6292" rx="3.2" ry="3.2"/>
</g>
<!-- StudentEvaluationReport -->
<g id="node18" class="node">
<title>StudentEvaluationReport</title>
<g id="a_node18"><a xlink:href="../../tables/StudentEvaluationReport.html" xlink:title="StudentEvaluationReport" target="_top">
<polygon fill="#ffffff" stroke="transparent" points="784.5,-82.4736 784.5,-143.4736 967.5,-143.4736 967.5,-82.4736 784.5,-82.4736"/>
<polygon fill="#f5f5f5" stroke="transparent" points="785,-119.9736 785,-142.9736 968,-142.9736 968,-119.9736 785,-119.9736"/>
<polygon fill="none" stroke="#000000" points="785,-119.9736 785,-142.9736 968,-142.9736 968,-119.9736 785,-119.9736"/>
<text text-anchor="start" x="790" y="-128.5736" font-family="Helvetica,sans-Serif" font-weight="bold" font-size="11.00" fill="#000000">StudentEvaluationReport</text>
<text text-anchor="start" x="933.5219" y="-128.0736" font-family="Helvetica,sans-Serif" font-size="11.00" fill="#000000">[table]</text>
<polygon fill="none" stroke="#000000" points="785,-100.9736 785,-119.9736 968,-119.9736 968,-100.9736 785,-100.9736"/>
<text text-anchor="start" x="788" y="-107.0736" font-family="Helvetica,sans-Serif" font-size="11.00" fill="#000000">...</text>
<polygon fill="#ffffff" stroke="transparent" points="785,-81.9736 785,-100.9736 862,-100.9736 862,-81.9736 785,-81.9736"/>
<polygon fill="none" stroke="#000000" points="785,-81.9736 785,-100.9736 862,-100.9736 862,-81.9736 785,-81.9736"/>
<text text-anchor="start" x="788" y="-88.0736" font-family="Helvetica,sans-Serif" font-size="11.00" fill="#000000">&lt; 4</text>
<polygon fill="#ffffff" stroke="transparent" points="862,-81.9736 862,-100.9736 928,-100.9736 928,-81.9736 862,-81.9736"/>
<polygon fill="none" stroke="#000000" points="862,-81.9736 862,-100.9736 928,-100.9736 928,-81.9736 862,-81.9736"/>
<text text-anchor="start" x="892.6105" y="-88.0736" font-family="Helvetica,sans-Serif" font-size="11.00" fill="#000000">0 rows</text>
<polygon fill="#ffffff" stroke="transparent" points="928,-81.9736 928,-100.9736 968,-100.9736 968,-81.9736 928,-81.9736"/>
<polygon fill="none" stroke="#000000" points="928,-81.9736 928,-100.9736 968,-100.9736 968,-81.9736 928,-81.9736"/>
<text text-anchor="start" x="958.8862" y="-88.0736" font-family="Helvetica,sans-Serif" font-size="11.00" fill="#000000"> &#160;</text>
</a>
</g>
</g>
<!-- StudentEvaluationReport&#45;&gt;AspNetUsers -->
<g id="edge34" class="edge">
<title>StudentEvaluationReport:w&#45;&gt;AspNetUsers:e</title>
<path fill="none" stroke="#000000" d="M770.5852,-109.7914C525.3508,-103.5961 396.4893,57.4677 212,-110.9736 140.1399,-176.5829 268.806,-546.9736 171.5,-546.9736"/>
<polygon fill="#000000" stroke="#000000" points="777.0006,-109.8724 784.9545,-113.5733 781.0003,-109.923 785,-109.9736 785,-109.9736 785,-109.9736 781.0003,-109.923 785.0455,-106.3739 777.0006,-109.8724 777.0006,-109.8724"/>
<ellipse fill="none" stroke="#000000" cx="773.8009" cy="-109.832" rx="3.2" ry="3.2"/>
</g>
<!-- StudentEvaluationReport&#45;&gt;AspNetUsers -->
<g id="edge37" class="edge">
<title>StudentEvaluationReport:w&#45;&gt;AspNetUsers:e</title>
<path fill="none" stroke="#000000" d="M770.5836,-109.7945C525.3032,-103.7043 395.473,54.5876 212,-114.9736 141.1883,-180.416 267.921,-546.9736 171.5,-546.9736"/>
<polygon fill="#000000" stroke="#000000" points="777.0006,-109.8742 784.9553,-113.5733 781.0003,-109.9239 785,-109.9736 785,-109.9736 785,-109.9736 781.0003,-109.9239 785.0447,-106.3739 777.0006,-109.8742 777.0006,-109.8742"/>
<ellipse fill="none" stroke="#000000" cx="773.8009" cy="-109.8344" rx="3.2" ry="3.2"/>
</g>
<!-- StudentEvaluationReport&#45;&gt;EvaluationPeriods -->
<g id="edge35" class="edge">
<title>StudentEvaluationReport:w&#45;&gt;EvaluationPeriods:e</title>
<path fill="none" stroke="#000000" d="M770.5965,-111.2695C668.3579,-131.1857 793.5634,-373.9736 671,-373.9736"/>
<polygon fill="#000000" stroke="#000000" points="777.0322,-110.6905 785.3226,-113.5591 781.0161,-110.3321 785,-109.9736 785,-109.9736 785,-109.9736 781.0161,-110.3321 784.6774,-106.3881 777.0322,-110.6905 777.0322,-110.6905"/>
<ellipse fill="none" stroke="#000000" cx="773.8451" cy="-110.9773" rx="3.2" ry="3.2"/>
</g>
<!-- StudentEvaluationReport&#45;&gt;Students -->
<g id="edge36" class="edge">
<title>StudentEvaluationReport:w&#45;&gt;Students:e</title>
<path fill="none" stroke="#000000" d="M770.591,-111.7711C730.0145,-123.3535 753.8125,-188.1757 714,-225.9736 688.3276,-250.347 679.3997,-263.9736 644,-263.9736"/>
<polygon fill="#000000" stroke="#000000" points="777.0615,-110.9639 785.4457,-113.5459 781.0308,-110.4688 785,-109.9736 785,-109.9736 785,-109.9736 781.0308,-110.4688 784.5543,-106.4013 777.0615,-110.9639 777.0615,-110.9639"/>
<ellipse fill="none" stroke="#000000" cx="773.8861" cy="-111.3601" rx="3.2" ry="3.2"/>
</g>
<!-- StudentSubjects -->
<g id="node19" class="node">
<title>StudentSubjects</title>
<g id="a_node19"><a xlink:href="../../tables/StudentSubjects.html" xlink:title="StudentSubjects" target="_top">
<polygon fill="#ffffff" stroke="transparent" points="809.5,-212.4736 809.5,-273.4736 942.5,-273.4736 942.5,-212.4736 809.5,-212.4736"/>
<polygon fill="#f5f5f5" stroke="transparent" points="810,-249.9736 810,-272.9736 943,-272.9736 943,-249.9736 810,-249.9736"/>
<polygon fill="none" stroke="#000000" points="810,-249.9736 810,-272.9736 943,-272.9736 943,-249.9736 810,-249.9736"/>
<text text-anchor="start" x="815" y="-258.5736" font-family="Helvetica,sans-Serif" font-weight="bold" font-size="11.00" fill="#000000">StudentSubjects</text>
<text text-anchor="start" x="908.5219" y="-258.0736" font-family="Helvetica,sans-Serif" font-size="11.00" fill="#000000">[table]</text>
<polygon fill="none" stroke="#000000" points="810,-230.9736 810,-249.9736 943,-249.9736 943,-230.9736 810,-230.9736"/>
<text text-anchor="start" x="813" y="-237.0736" font-family="Helvetica,sans-Serif" font-size="11.00" fill="#000000">...</text>
<polygon fill="#ffffff" stroke="transparent" points="810,-211.9736 810,-230.9736 862,-230.9736 862,-211.9736 810,-211.9736"/>
<polygon fill="none" stroke="#000000" points="810,-211.9736 810,-230.9736 862,-230.9736 862,-211.9736 810,-211.9736"/>
<text text-anchor="start" x="813" y="-218.0736" font-family="Helvetica,sans-Serif" font-size="11.00" fill="#000000">&lt; 4</text>
<polygon fill="#ffffff" stroke="transparent" points="862,-211.9736 862,-230.9736 915,-230.9736 915,-211.9736 862,-211.9736"/>
<polygon fill="none" stroke="#000000" points="862,-211.9736 862,-230.9736 915,-230.9736 915,-211.9736 862,-211.9736"/>
<text text-anchor="start" x="879.6105" y="-218.0736" font-family="Helvetica,sans-Serif" font-size="11.00" fill="#000000">0 rows</text>
<polygon fill="#ffffff" stroke="transparent" points="915,-211.9736 915,-230.9736 943,-230.9736 943,-211.9736 915,-211.9736"/>
<polygon fill="none" stroke="#000000" points="915,-211.9736 915,-230.9736 943,-230.9736 943,-211.9736 915,-211.9736"/>
<text text-anchor="start" x="933.8862" y="-218.0736" font-family="Helvetica,sans-Serif" font-size="11.00" fill="#000000"> &#160;</text>
</a>
</g>
</g>
<!-- StudentSubjects&#45;&gt;AspNetUsers -->
<g id="edge40" class="edge">
<title>StudentSubjects:w&#45;&gt;AspNetUsers:e</title>
<path fill="none" stroke="#000000" d="M795.5708,-238.297C752.6574,-227.2749 764.7382,-164.99 714,-143.9736 610.8543,-101.2493 292.1955,-86.3007 212,-163.9736 150.5226,-223.5171 257.0856,-546.9736 171.5,-546.9736"/>
<polygon fill="#000000" stroke="#000000" points="802.0535,-239.0502 809.5845,-243.5495 806.0267,-239.5119 810,-239.9736 810,-239.9736 810,-239.9736 806.0267,-239.5119 810.4155,-236.3976 802.0535,-239.0502 802.0535,-239.0502"/>
<ellipse fill="none" stroke="#000000" cx="798.8748" cy="-238.6809" rx="3.2" ry="3.2"/>
</g>
<!-- StudentSubjects&#45;&gt;AspNetUsers -->
<g id="edge43" class="edge">
<title>StudentSubjects:w&#45;&gt;AspNetUsers:e</title>
<path fill="none" stroke="#000000" d="M795.5569,-238.296C753.5828,-227.532 763.8014,-167.9841 714,-147.9736 610.4057,-106.3488 292.2383,-90.3449 212,-167.9736 151.1251,-226.8686 256.2017,-546.9736 171.5,-546.9736"/>
<polygon fill="#000000" stroke="#000000" points="802.0534,-239.0505 809.5846,-243.5495 806.0267,-239.5121 810,-239.9736 810,-239.9736 810,-239.9736 806.0267,-239.5121 810.4154,-236.3976 802.0534,-239.0505 802.0534,-239.0505"/>
<ellipse fill="none" stroke="#000000" cx="798.8748" cy="-238.6813" rx="3.2" ry="3.2"/>
</g>
<!-- StudentSubjects&#45;&gt;Subjects -->
<g id="edge42" class="edge">
<title>StudentSubjects:w&#45;&gt;Subjects:e</title>
<path fill="none" stroke="#000000" d="M795.2333,-241.1946C726.6189,-253.6355 773.6273,-358.1832 714,-417.9736 689.0029,-443.0391 679.3997,-455.9736 644,-455.9736"/>
<polygon fill="#000000" stroke="#000000" points="802.0272,-240.6329 810.2967,-243.5613 806.0136,-240.3032 810,-239.9736 810,-239.9736 810,-239.9736 806.0136,-240.3032 809.7033,-236.3858 802.0272,-240.6329 802.0272,-240.6329"/>
<ellipse fill="none" stroke="#000000" cx="798.8381" cy="-240.8966" rx="3.2" ry="3.2"/>
</g>
<!-- StudentSubjects&#45;&gt;Students -->
<g id="edge41" class="edge">
<title>StudentSubjects:w&#45;&gt;Students:e</title>
<path fill="none" stroke="#000000" d="M795.4836,-240.2947C732.8739,-243.1427 713.449,-263.9736 644,-263.9736"/>
<polygon fill="#000000" stroke="#000000" points="802.002,-240.1506 810.0796,-243.5727 806.001,-240.0621 810,-239.9736 810,-239.9736 810,-239.9736 806.001,-240.0621 809.9204,-236.3745 802.002,-240.1506 802.002,-240.1506"/>
<ellipse fill="none" stroke="#000000" cx="798.8027" cy="-240.2214" rx="3.2" ry="3.2"/>
</g>
</g>
</svg>
