<?xml version="1.0" encoding="UTF-8" standalone="no"?>
<!DOCTYPE svg PUBLIC "-//W3C//DTD SVG 1.1//EN"
 "http://www.w3.org/Graphics/SVG/1.1/DTD/svg11.dtd">
<!-- Generated by graphviz version 2.40.1 (20161225.0304)
 -->
<!-- Title: oneDegreeRelationshipsDiagram Pages: 1 -->
<svg width="475pt" height="245pt"
 viewBox="0.00 0.00 475.00 244.70" xmlns="http://www.w3.org/2000/svg" xmlns:xlink="http://www.w3.org/1999/xlink">
<g id="graph0" class="graph" transform="scale(1 1) rotate(0) translate(4 240.7)">
<title>oneDegreeRelationshipsDiagram</title>
<polygon fill="#ffffff" stroke="transparent" points="-4,4 -4,-240.7 471,-240.7 471,4 -4,4"/>
<text text-anchor="middle" x="72.4936" y="-7.3" font-family="Helvetica,sans-Serif" font-size="11.00" fill="#000000">Generated by SchemaSpy</text>
<!-- AspNetUserLogins -->
<g id="node1" class="node">
<title>AspNetUserLogins</title>
<g id="a_node1"><a xlink:href="../../tables/AspNetUserLogins.html" xlink:title="AspNetUserLogins" target="_top">
<polygon fill="#ffffff" stroke="transparent" points="220,-98.7 220,-232.7 459,-232.7 459,-98.7 220,-98.7"/>
<polygon fill="#f5f5f5" stroke="transparent" points="222.5,-207.7 222.5,-230.7 457.5,-230.7 457.5,-207.7 222.5,-207.7"/>
<polygon fill="none" stroke="#000000" points="222.5,-207.7 222.5,-230.7 457.5,-230.7 457.5,-207.7 222.5,-207.7"/>
<text text-anchor="start" x="227.5" y="-216.3" font-family="Helvetica,sans-Serif" font-weight="bold" font-size="11.00" fill="#000000">AspNetUserLogins</text>
<text text-anchor="start" x="422.5437" y="-215.8" font-family="Helvetica,sans-Serif" font-size="11.00" fill="#000000">[table]</text>
<polygon fill="none" stroke="#000000" points="222.5,-185.7 222.5,-207.7 367.5,-207.7 367.5,-185.7 222.5,-185.7"/>
<image xlink:href="../../images/primaryKeys.png" width="11px" height="12px" preserveAspectRatio="xMinYMin meet" x="227.5" y="-202.7"/>
<text text-anchor="start" x="242.5" y="-192.8" font-family="Helvetica,sans-Serif" font-size="11.00" fill="#000000">LoginProvider</text>
<polygon fill="none" stroke="#000000" points="367.5,-185.7 367.5,-207.7 457.5,-207.7 457.5,-185.7 367.5,-185.7"/>
<text text-anchor="start" x="370.0043" y="-193.4" font-family="Helvetica,sans-Serif" font-size="11.00" fill="#000000">text[2147483647]</text>
<polygon fill="none" stroke="#000000" points="222.5,-163.7 222.5,-185.7 367.5,-185.7 367.5,-163.7 222.5,-163.7"/>
<image xlink:href="../../images/primaryKeys.png" width="11px" height="12px" preserveAspectRatio="xMinYMin meet" x="227.5" y="-180.7"/>
<text text-anchor="start" x="242.5" y="-170.8" font-family="Helvetica,sans-Serif" font-size="11.00" fill="#000000">ProviderKey</text>
<polygon fill="none" stroke="#000000" points="367.5,-163.7 367.5,-185.7 457.5,-185.7 457.5,-163.7 367.5,-163.7"/>
<text text-anchor="start" x="370.0043" y="-171.4" font-family="Helvetica,sans-Serif" font-size="11.00" fill="#000000">text[2147483647]</text>
<polygon fill="none" stroke="#000000" points="222.5,-141.7 222.5,-163.7 367.5,-163.7 367.5,-141.7 222.5,-141.7"/>
<text text-anchor="start" x="242.5" y="-148.8" font-family="Helvetica,sans-Serif" font-size="11.00" fill="#000000">ProviderDisplayName</text>
<polygon fill="none" stroke="#000000" points="367.5,-141.7 367.5,-163.7 457.5,-163.7 457.5,-141.7 367.5,-141.7"/>
<text text-anchor="start" x="370.0043" y="-149.4" font-family="Helvetica,sans-Serif" font-size="11.00" fill="#000000">text[2147483647]</text>
<polygon fill="#ffffff" stroke="transparent" points="222.5,-119.7 222.5,-141.7 367.5,-141.7 367.5,-119.7 222.5,-119.7"/>
<polygon fill="none" stroke="#000000" points="222.5,-119.7 222.5,-141.7 367.5,-141.7 367.5,-119.7 222.5,-119.7"/>
<image xlink:href="../../images/foreignKeys.png" width="11px" height="12px" preserveAspectRatio="xMinYMin meet" x="227.5" y="-136.7"/>
<text text-anchor="start" x="242.5" y="-126.8" font-family="Helvetica,sans-Serif" font-size="11.00" fill="#000000">UserId</text>
<polygon fill="none" stroke="#000000" points="367.5,-119.7 367.5,-141.7 457.5,-141.7 457.5,-119.7 367.5,-119.7"/>
<text text-anchor="start" x="370.0043" y="-127.4" font-family="Helvetica,sans-Serif" font-size="11.00" fill="#000000">text[2147483647]</text>
<polygon fill="#ffffff" stroke="transparent" points="222.5,-100.7 222.5,-119.7 286.5,-119.7 286.5,-100.7 222.5,-100.7"/>
<polygon fill="none" stroke="#000000" points="222.5,-100.7 222.5,-119.7 286.5,-119.7 286.5,-100.7 222.5,-100.7"/>
<text text-anchor="start" x="225.5" y="-106.8" font-family="Helvetica,sans-Serif" font-size="11.00" fill="#000000">&lt; 1</text>
<polygon fill="#ffffff" stroke="transparent" points="286.5,-100.7 286.5,-119.7 367.5,-119.7 367.5,-100.7 286.5,-100.7"/>
<polygon fill="none" stroke="#000000" points="286.5,-100.7 286.5,-119.7 367.5,-119.7 367.5,-100.7 286.5,-100.7"/>
<text text-anchor="start" x="332.1105" y="-106.8" font-family="Helvetica,sans-Serif" font-size="11.00" fill="#000000">0 rows</text>
<polygon fill="#ffffff" stroke="transparent" points="367.5,-100.7 367.5,-119.7 457.5,-119.7 457.5,-100.7 367.5,-100.7"/>
<polygon fill="none" stroke="#000000" points="367.5,-100.7 367.5,-119.7 457.5,-119.7 457.5,-100.7 367.5,-100.7"/>
<text text-anchor="start" x="438.9053" y="-106.8" font-family="Helvetica,sans-Serif" font-size="11.00" fill="#000000">0 &gt;</text>
<polygon fill="none" stroke="#000000" stroke-width="2" points="221,-99.7 221,-231.7 458,-231.7 458,-99.7 221,-99.7"/>
</a>
</g>
</g>
<!-- AspNetUsers -->
<g id="node2" class="node">
<title>AspNetUsers</title>
<g id="a_node2"><a xlink:href="../../tables/AspNetUsers.html" xlink:title="AspNetUsers" target="_top">
<polygon fill="#ffffff" stroke="transparent" points="8,-38.2 8,-165.2 171,-165.2 171,-38.2 8,-38.2"/>
<polygon fill="#f5f5f5" stroke="transparent" points="8.5,-141.7 8.5,-164.7 171.5,-164.7 171.5,-141.7 8.5,-141.7"/>
<polygon fill="none" stroke="#000000" points="8.5,-141.7 8.5,-164.7 171.5,-164.7 171.5,-141.7 8.5,-141.7"/>
<text text-anchor="start" x="13.5" y="-150.3" font-family="Helvetica,sans-Serif" font-weight="bold" font-size="11.00" fill="#000000">AspNetUsers</text>
<text text-anchor="start" x="136.5437" y="-149.8" font-family="Helvetica,sans-Serif" font-size="11.00" fill="#000000">[table]</text>
<polygon fill="none" stroke="#000000" points="8.5,-119.7 8.5,-141.7 171.5,-141.7 171.5,-119.7 8.5,-119.7"/>
<image xlink:href="../../images/primaryKeys.png" width="11px" height="12px" preserveAspectRatio="xMinYMin meet" x="13.5" y="-136.7"/>
<text text-anchor="start" x="28.5" y="-126.8" font-family="Helvetica,sans-Serif" font-size="11.00" fill="#000000">Id</text>
<polygon fill="#ffffff" stroke="transparent" points="8.5,-97.7 8.5,-119.7 171.5,-119.7 171.5,-97.7 8.5,-97.7"/>
<polygon fill="none" stroke="#000000" points="8.5,-97.7 8.5,-119.7 171.5,-119.7 171.5,-97.7 8.5,-97.7"/>
<text text-anchor="start" x="28.5" y="-104.8" font-family="Helvetica,sans-Serif" font-size="11.00" fill="#000000">NormalizedUserName</text>
<polygon fill="#ffffff" stroke="transparent" points="8.5,-75.7 8.5,-97.7 171.5,-97.7 171.5,-75.7 8.5,-75.7"/>
<polygon fill="none" stroke="#000000" points="8.5,-75.7 8.5,-97.7 171.5,-97.7 171.5,-75.7 8.5,-75.7"/>
<text text-anchor="start" x="28.5" y="-82.8" font-family="Helvetica,sans-Serif" font-size="11.00" fill="#000000">NormalizedEmail</text>
<polygon fill="none" stroke="#000000" points="8.5,-56.7 8.5,-75.7 171.5,-75.7 171.5,-56.7 8.5,-56.7"/>
<text text-anchor="start" x="11.5" y="-62.8" font-family="Helvetica,sans-Serif" font-size="11.00" fill="#000000">...</text>
<polygon fill="#ffffff" stroke="transparent" points="8.5,-37.7 8.5,-56.7 63.5,-56.7 63.5,-37.7 8.5,-37.7"/>
<polygon fill="none" stroke="#000000" points="8.5,-37.7 8.5,-56.7 63.5,-56.7 63.5,-37.7 8.5,-37.7"/>
<text text-anchor="start" x="11.5" y="-43.8" font-family="Helvetica,sans-Serif" font-size="11.00" fill="#000000"> &#160;</text>
<polygon fill="#ffffff" stroke="transparent" points="63.5,-37.7 63.5,-56.7 122.5,-56.7 122.5,-37.7 63.5,-37.7"/>
<polygon fill="none" stroke="#000000" points="63.5,-37.7 63.5,-56.7 122.5,-56.7 122.5,-37.7 63.5,-37.7"/>
<text text-anchor="start" x="87.1105" y="-43.8" font-family="Helvetica,sans-Serif" font-size="11.00" fill="#000000">0 rows</text>
<polygon fill="#ffffff" stroke="transparent" points="122.5,-37.7 122.5,-56.7 171.5,-56.7 171.5,-37.7 122.5,-37.7"/>
<polygon fill="none" stroke="#000000" points="122.5,-37.7 122.5,-56.7 171.5,-56.7 171.5,-37.7 122.5,-37.7"/>
<text text-anchor="start" x="146.7904" y="-43.8" font-family="Helvetica,sans-Serif" font-size="11.00" fill="#000000">29 &gt;</text>
</a>
</g>
</g>
<!-- AspNetUserLogins&#45;&gt;AspNetUsers -->
<g id="edge1" class="edge">
<title>AspNetUserLogins:w&#45;&gt;AspNetUsers:e</title>
<path fill="none" stroke="#000000" d="M207.776,-130.7C195.7815,-130.7 188.3229,-130.7 171.5,-130.7"/>
<polygon fill="#000000" stroke="#000000" points="214.5,-130.7001 222.5,-134.3 218.5,-130.7 222.5,-130.7 222.5,-130.7 222.5,-130.7 218.5,-130.7 222.5,-127.1 214.5,-130.7001 214.5,-130.7001"/>
<ellipse fill="none" stroke="#000000" cx="211.3" cy="-130.7001" rx="3.2" ry="3.2"/>
</g>
</g>
</svg>
