<?xml version="1.0" encoding="UTF-8" standalone="no"?>
<!DOCTYPE svg PUBLIC "-//W3C//DTD SVG 1.1//EN"
 "http://www.w3.org/Graphics/SVG/1.1/DTD/svg11.dtd">
<!-- Generated by graphviz version 2.40.1 (20161225.0304)
 -->
<!-- Title: oneDegreeRelationshipsDiagram Pages: 1 -->
<svg width="444pt" height="268pt"
 viewBox="0.00 0.00 444.00 267.70" xmlns="http://www.w3.org/2000/svg" xmlns:xlink="http://www.w3.org/1999/xlink">
<g id="graph0" class="graph" transform="scale(1 1) rotate(0) translate(4 263.7)">
<title>oneDegreeRelationshipsDiagram</title>
<polygon fill="#ffffff" stroke="transparent" points="-4,4 -4,-263.7 440,-263.7 440,4 -4,4"/>
<text text-anchor="middle" x="72.4936" y="-7.3" font-family="Helvetica,sans-Serif" font-size="11.00" fill="#000000">Generated by SchemaSpy</text>
<!-- AspNetRoleClaims -->
<g id="node1" class="node">
<title>AspNetRoleClaims</title>
<g id="a_node1"><a xlink:href="../../tables/AspNetRoleClaims.html" xlink:title="AspNetRoleClaims" target="_top">
<polygon fill="#ffffff" stroke="transparent" points="282,-150.7 282,-255.7 428,-255.7 428,-150.7 282,-150.7"/>
<polygon fill="#f5f5f5" stroke="transparent" points="282,-232.2 282,-255.2 428,-255.2 428,-232.2 282,-232.2"/>
<polygon fill="none" stroke="#000000" points="282,-232.2 282,-255.2 428,-255.2 428,-232.2 282,-232.2"/>
<text text-anchor="start" x="287" y="-240.8" font-family="Helvetica,sans-Serif" font-weight="bold" font-size="11.00" fill="#000000">AspNetRoleClaims</text>
<text text-anchor="start" x="393.5219" y="-240.3" font-family="Helvetica,sans-Serif" font-size="11.00" fill="#000000">[table]</text>
<polygon fill="none" stroke="#000000" points="282,-210.2 282,-232.2 428,-232.2 428,-210.2 282,-210.2"/>
<image xlink:href="../../images/primaryKeys.png" width="11px" height="12px" preserveAspectRatio="xMinYMin meet" x="287" y="-227.2"/>
<text text-anchor="start" x="311" y="-217.3" font-family="Helvetica,sans-Serif" font-size="11.00" fill="#000000">Id</text>
<polygon fill="#ffffff" stroke="transparent" points="282,-188.2 282,-210.2 428,-210.2 428,-188.2 282,-188.2"/>
<polygon fill="none" stroke="#000000" points="282,-188.2 282,-210.2 428,-210.2 428,-188.2 282,-188.2"/>
<image xlink:href="../../images/foreignKeys.png" width="11px" height="12px" preserveAspectRatio="xMinYMin meet" x="287" y="-205.2"/>
<text text-anchor="start" x="311" y="-195.3" font-family="Helvetica,sans-Serif" font-size="11.00" fill="#000000">RoleId</text>
<polygon fill="none" stroke="#000000" points="282,-169.2 282,-188.2 428,-188.2 428,-169.2 282,-169.2"/>
<text text-anchor="start" x="285" y="-175.3" font-family="Helvetica,sans-Serif" font-size="11.00" fill="#000000">...</text>
<polygon fill="#ffffff" stroke="transparent" points="282,-150.2 282,-169.2 340,-169.2 340,-150.2 282,-150.2"/>
<polygon fill="none" stroke="#000000" points="282,-150.2 282,-169.2 340,-169.2 340,-150.2 282,-150.2"/>
<text text-anchor="start" x="285" y="-156.3" font-family="Helvetica,sans-Serif" font-size="11.00" fill="#000000">&lt; 1</text>
<polygon fill="#ffffff" stroke="transparent" points="340,-150.2 340,-169.2 397,-169.2 397,-150.2 340,-150.2"/>
<polygon fill="none" stroke="#000000" points="340,-150.2 340,-169.2 397,-169.2 397,-150.2 340,-150.2"/>
<text text-anchor="start" x="361.6105" y="-156.3" font-family="Helvetica,sans-Serif" font-size="11.00" fill="#000000">0 rows</text>
<polygon fill="#ffffff" stroke="transparent" points="397,-150.2 397,-169.2 428,-169.2 428,-150.2 397,-150.2"/>
<polygon fill="none" stroke="#000000" points="397,-150.2 397,-169.2 428,-169.2 428,-150.2 397,-150.2"/>
<text text-anchor="start" x="418.8862" y="-156.3" font-family="Helvetica,sans-Serif" font-size="11.00" fill="#000000"> &#160;</text>
</a>
</g>
</g>
<!-- AspNetRoles -->
<g id="node2" class="node">
<title>AspNetRoles</title>
<g id="a_node2"><a xlink:href="../../tables/AspNetRoles.html" xlink:title="AspNetRoles" target="_top">
<polygon fill="#ffffff" stroke="transparent" points="8,-38.2 8,-172.2 233,-172.2 233,-38.2 8,-38.2"/>
<polygon fill="#f5f5f5" stroke="transparent" points="10.5,-147.2 10.5,-170.2 231.5,-170.2 231.5,-147.2 10.5,-147.2"/>
<polygon fill="none" stroke="#000000" points="10.5,-147.2 10.5,-170.2 231.5,-170.2 231.5,-147.2 10.5,-147.2"/>
<text text-anchor="start" x="15.5" y="-155.8" font-family="Helvetica,sans-Serif" font-weight="bold" font-size="11.00" fill="#000000">AspNetRoles</text>
<text text-anchor="start" x="196.5437" y="-155.3" font-family="Helvetica,sans-Serif" font-size="11.00" fill="#000000">[table]</text>
<polygon fill="none" stroke="#000000" points="10.5,-125.2 10.5,-147.2 141.5,-147.2 141.5,-125.2 10.5,-125.2"/>
<image xlink:href="../../images/primaryKeys.png" width="11px" height="12px" preserveAspectRatio="xMinYMin meet" x="15.5" y="-142.2"/>
<text text-anchor="start" x="30.5" y="-132.3" font-family="Helvetica,sans-Serif" font-size="11.00" fill="#000000">Id</text>
<polygon fill="none" stroke="#000000" points="141.5,-125.2 141.5,-147.2 231.5,-147.2 231.5,-125.2 141.5,-125.2"/>
<text text-anchor="start" x="144.0042" y="-132.9" font-family="Helvetica,sans-Serif" font-size="11.00" fill="#000000">text[2147483647]</text>
<polygon fill="none" stroke="#000000" points="10.5,-103.2 10.5,-125.2 141.5,-125.2 141.5,-103.2 10.5,-103.2"/>
<text text-anchor="start" x="30.5" y="-110.3" font-family="Helvetica,sans-Serif" font-size="11.00" fill="#000000">Name</text>
<polygon fill="none" stroke="#000000" points="141.5,-103.2 141.5,-125.2 231.5,-125.2 231.5,-103.2 141.5,-103.2"/>
<text text-anchor="start" x="144.5" y="-110.9" font-family="Helvetica,sans-Serif" font-size="11.00" fill="#000000">varchar[256]</text>
<polygon fill="#ffffff" stroke="transparent" points="10.5,-81.2 10.5,-103.2 141.5,-103.2 141.5,-81.2 10.5,-81.2"/>
<polygon fill="none" stroke="#000000" points="10.5,-81.2 10.5,-103.2 141.5,-103.2 141.5,-81.2 10.5,-81.2"/>
<text text-anchor="start" x="30.5" y="-88.3" font-family="Helvetica,sans-Serif" font-size="11.00" fill="#000000">NormalizedName</text>
<polygon fill="none" stroke="#000000" points="141.5,-81.2 141.5,-103.2 231.5,-103.2 231.5,-81.2 141.5,-81.2"/>
<text text-anchor="start" x="144.5" y="-88.9" font-family="Helvetica,sans-Serif" font-size="11.00" fill="#000000">varchar[256]</text>
<polygon fill="none" stroke="#000000" points="10.5,-59.2 10.5,-81.2 141.5,-81.2 141.5,-59.2 10.5,-59.2"/>
<text text-anchor="start" x="30.5" y="-66.3" font-family="Helvetica,sans-Serif" font-size="11.00" fill="#000000">ConcurrencyStamp</text>
<polygon fill="none" stroke="#000000" points="141.5,-59.2 141.5,-81.2 231.5,-81.2 231.5,-59.2 141.5,-59.2"/>
<text text-anchor="start" x="144.0042" y="-66.9" font-family="Helvetica,sans-Serif" font-size="11.00" fill="#000000">text[2147483647]</text>
<polygon fill="#ffffff" stroke="transparent" points="10.5,-40.2 10.5,-59.2 67.5,-59.2 67.5,-40.2 10.5,-40.2"/>
<polygon fill="none" stroke="#000000" points="10.5,-40.2 10.5,-59.2 67.5,-59.2 67.5,-40.2 10.5,-40.2"/>
<text text-anchor="start" x="13.5" y="-46.3" font-family="Helvetica,sans-Serif" font-size="11.00" fill="#000000">&lt; 0</text>
<polygon fill="#ffffff" stroke="transparent" points="67.5,-40.2 67.5,-59.2 141.5,-59.2 141.5,-40.2 67.5,-40.2"/>
<polygon fill="none" stroke="#000000" points="67.5,-40.2 67.5,-59.2 141.5,-59.2 141.5,-40.2 67.5,-40.2"/>
<text text-anchor="start" x="106.1105" y="-46.3" font-family="Helvetica,sans-Serif" font-size="11.00" fill="#000000">0 rows</text>
<polygon fill="#ffffff" stroke="transparent" points="141.5,-40.2 141.5,-59.2 231.5,-59.2 231.5,-40.2 141.5,-40.2"/>
<polygon fill="none" stroke="#000000" points="141.5,-40.2 141.5,-59.2 231.5,-59.2 231.5,-40.2 141.5,-40.2"/>
<text text-anchor="start" x="212.9053" y="-46.3" font-family="Helvetica,sans-Serif" font-size="11.00" fill="#000000">2 &gt;</text>
<polygon fill="none" stroke="#000000" stroke-width="2" points="9,-39.2 9,-171.2 232,-171.2 232,-39.2 9,-39.2"/>
</a>
</g>
</g>
<!-- AspNetRoleClaims&#45;&gt;AspNetRoles -->
<g id="edge1" class="edge">
<title>AspNetRoleClaims:w&#45;&gt;AspNetRoles:e</title>
<path fill="none" stroke="#000000" d="M267.9816,-194.2565C251.738,-179.4048 261.2175,-136.2 231.5,-136.2"/>
<polygon fill="#000000" stroke="#000000" points="274.4554,-196.5394 280.8027,-202.5951 278.2277,-197.8697 282,-199.2 282,-199.2 282,-199.2 278.2277,-197.8697 283.1973,-195.8049 274.4554,-196.5394 274.4554,-196.5394"/>
<ellipse fill="none" stroke="#000000" cx="271.4375" cy="-195.4752" rx="3.2" ry="3.2"/>
</g>
<!-- AspNetUserRoles -->
<g id="node3" class="node">
<title>AspNetUserRoles</title>
<g id="a_node3"><a xlink:href="../../tables/AspNetUserRoles.html" xlink:title="AspNetUserRoles" target="_top">
<polygon fill="#ffffff" stroke="transparent" points="285,-43.2 285,-129.2 425,-129.2 425,-43.2 285,-43.2"/>
<polygon fill="#f5f5f5" stroke="transparent" points="285,-106.2 285,-129.2 425,-129.2 425,-106.2 285,-106.2"/>
<polygon fill="none" stroke="#000000" points="285,-106.2 285,-129.2 425,-129.2 425,-106.2 285,-106.2"/>
<text text-anchor="start" x="290" y="-114.8" font-family="Helvetica,sans-Serif" font-weight="bold" font-size="11.00" fill="#000000">AspNetUserRoles</text>
<text text-anchor="start" x="390.5219" y="-114.3" font-family="Helvetica,sans-Serif" font-size="11.00" fill="#000000">[table]</text>
<polygon fill="none" stroke="#000000" points="285,-84.2 285,-106.2 425,-106.2 425,-84.2 285,-84.2"/>
<image xlink:href="../../images/primaryKeys.png" width="11px" height="12px" preserveAspectRatio="xMinYMin meet" x="290" y="-101.2"/>
<text text-anchor="start" x="314" y="-91.3" font-family="Helvetica,sans-Serif" font-size="11.00" fill="#000000">UserId</text>
<polygon fill="none" stroke="#000000" points="285,-62.2 285,-84.2 425,-84.2 425,-62.2 285,-62.2"/>
<image xlink:href="../../images/primaryKeys.png" width="11px" height="12px" preserveAspectRatio="xMinYMin meet" x="290" y="-79.2"/>
<text text-anchor="start" x="314" y="-69.3" font-family="Helvetica,sans-Serif" font-size="11.00" fill="#000000">RoleId</text>
<polygon fill="#ffffff" stroke="transparent" points="285,-43.2 285,-62.2 340,-62.2 340,-43.2 285,-43.2"/>
<polygon fill="none" stroke="#000000" points="285,-43.2 285,-62.2 340,-62.2 340,-43.2 285,-43.2"/>
<text text-anchor="start" x="288" y="-49.3" font-family="Helvetica,sans-Serif" font-size="11.00" fill="#000000">&lt; 2</text>
<polygon fill="#ffffff" stroke="transparent" points="340,-43.2 340,-62.2 395,-62.2 395,-43.2 340,-43.2"/>
<polygon fill="none" stroke="#000000" points="340,-43.2 340,-62.2 395,-62.2 395,-43.2 340,-43.2"/>
<text text-anchor="start" x="359.6105" y="-49.3" font-family="Helvetica,sans-Serif" font-size="11.00" fill="#000000">0 rows</text>
<polygon fill="#ffffff" stroke="transparent" points="395,-43.2 395,-62.2 425,-62.2 425,-43.2 395,-43.2"/>
<polygon fill="none" stroke="#000000" points="395,-43.2 395,-62.2 425,-62.2 425,-43.2 395,-43.2"/>
<text text-anchor="start" x="415.8862" y="-49.3" font-family="Helvetica,sans-Serif" font-size="11.00" fill="#000000"> &#160;</text>
</a>
</g>
</g>
<!-- AspNetUserRoles&#45;&gt;AspNetRoles -->
<g id="edge2" class="edge">
<title>AspNetUserRoles:w&#45;&gt;AspNetRoles:e</title>
<path fill="none" stroke="#000000" d="M270.9979,-77.7308C253.2918,-92.1761 262.2073,-136.2 231.5,-136.2"/>
<polygon fill="#000000" stroke="#000000" points="277.3886,-75.6629 286.1083,-76.6252 281.1943,-74.4315 285,-73.2 285,-73.2 285,-73.2 281.1943,-74.4315 283.8917,-69.7748 277.3886,-75.6629 277.3886,-75.6629"/>
<ellipse fill="none" stroke="#000000" cx="274.344" cy="-76.6481" rx="3.2" ry="3.2"/>
</g>
</g>
</svg>
