<?xml version="1.0" encoding="UTF-8" standalone="no"?>
<!DOCTYPE svg PUBLIC "-//W3C//DTD SVG 1.1//EN"
 "http://www.w3.org/Graphics/SVG/1.1/DTD/svg11.dtd">
<!-- Generated by graphviz version 2.40.1 (20161225.0304)
 -->
<!-- Title: twoDegreesRelationshipsDiagram Pages: 1 -->
<svg width="1226pt" height="1213pt"
 viewBox="0.00 0.00 1226.00 1213.20" xmlns="http://www.w3.org/2000/svg" xmlns:xlink="http://www.w3.org/1999/xlink">
<g id="graph0" class="graph" transform="scale(1 1) rotate(0) translate(4 1209.2046)">
<title>twoDegreesRelationshipsDiagram</title>
<polygon fill="#ffffff" stroke="transparent" points="-4,4 -4,-1209.2046 1222,-1209.2046 1222,4 -4,4"/>
<text text-anchor="middle" x="72.4936" y="-7.3" font-family="Helvetica,sans-Serif" font-size="11.00" fill="#000000">Generated by SchemaSpy</text>
<!-- AspNetUserClaims -->
<g id="node1" class="node">
<title>AspNetUserClaims</title>
<g id="a_node1"><a xlink:href="../../tables/AspNetUserClaims.html" xlink:title="AspNetUserClaims" target="_top">
<polygon fill="#ffffff" stroke="transparent" points="220,-1067.2046 220,-1201.2046 443,-1201.2046 443,-1067.2046 220,-1067.2046"/>
<polygon fill="#f5f5f5" stroke="transparent" points="222.5,-1176.2046 222.5,-1199.2046 441.5,-1199.2046 441.5,-1176.2046 222.5,-1176.2046"/>
<polygon fill="none" stroke="#000000" points="222.5,-1176.2046 222.5,-1199.2046 441.5,-1199.2046 441.5,-1176.2046 222.5,-1176.2046"/>
<text text-anchor="start" x="227.5" y="-1184.8046" font-family="Helvetica,sans-Serif" font-weight="bold" font-size="11.00" fill="#000000">AspNetUserClaims</text>
<text text-anchor="start" x="406.5437" y="-1184.3046" font-family="Helvetica,sans-Serif" font-size="11.00" fill="#000000">[table]</text>
<polygon fill="none" stroke="#000000" points="222.5,-1154.2046 222.5,-1176.2046 351.5,-1176.2046 351.5,-1154.2046 222.5,-1154.2046"/>
<image xlink:href="../../images/primaryKeys.png" width="11px" height="12px" preserveAspectRatio="xMinYMin meet" x="227.5" y="-1171.2"/>
<text text-anchor="start" x="242.5" y="-1161.3046" font-family="Helvetica,sans-Serif" font-size="11.00" fill="#000000">Id</text>
<polygon fill="none" stroke="#000000" points="351.5,-1154.2046 351.5,-1176.2046 441.5,-1176.2046 441.5,-1154.2046 351.5,-1154.2046"/>
<text text-anchor="start" x="354.5" y="-1161.9046" font-family="Helvetica,sans-Serif" font-size="11.00" fill="#000000">int4[10]</text>
<polygon fill="#ffffff" stroke="transparent" points="222.5,-1132.2046 222.5,-1154.2046 351.5,-1154.2046 351.5,-1132.2046 222.5,-1132.2046"/>
<polygon fill="none" stroke="#000000" points="222.5,-1132.2046 222.5,-1154.2046 351.5,-1154.2046 351.5,-1132.2046 222.5,-1132.2046"/>
<image xlink:href="../../images/foreignKeys.png" width="11px" height="12px" preserveAspectRatio="xMinYMin meet" x="227.5" y="-1149.2"/>
<text text-anchor="start" x="242.5" y="-1139.3046" font-family="Helvetica,sans-Serif" font-size="11.00" fill="#000000">UserId</text>
<polygon fill="none" stroke="#000000" points="351.5,-1132.2046 351.5,-1154.2046 441.5,-1154.2046 441.5,-1132.2046 351.5,-1132.2046"/>
<text text-anchor="start" x="354.0043" y="-1139.9046" font-family="Helvetica,sans-Serif" font-size="11.00" fill="#000000">text[2147483647]</text>
<polygon fill="none" stroke="#000000" points="222.5,-1110.2046 222.5,-1132.2046 351.5,-1132.2046 351.5,-1110.2046 222.5,-1110.2046"/>
<text text-anchor="start" x="242.5" y="-1117.3046" font-family="Helvetica,sans-Serif" font-size="11.00" fill="#000000">ClaimType</text>
<polygon fill="none" stroke="#000000" points="351.5,-1110.2046 351.5,-1132.2046 441.5,-1132.2046 441.5,-1110.2046 351.5,-1110.2046"/>
<text text-anchor="start" x="354.0043" y="-1117.9046" font-family="Helvetica,sans-Serif" font-size="11.00" fill="#000000">text[2147483647]</text>
<polygon fill="none" stroke="#000000" points="222.5,-1088.2046 222.5,-1110.2046 351.5,-1110.2046 351.5,-1088.2046 222.5,-1088.2046"/>
<text text-anchor="start" x="242.5" y="-1095.3046" font-family="Helvetica,sans-Serif" font-size="11.00" fill="#000000">ClaimValue</text>
<polygon fill="none" stroke="#000000" points="351.5,-1088.2046 351.5,-1110.2046 441.5,-1110.2046 441.5,-1088.2046 351.5,-1088.2046"/>
<text text-anchor="start" x="354.0043" y="-1095.9046" font-family="Helvetica,sans-Serif" font-size="11.00" fill="#000000">text[2147483647]</text>
<polygon fill="#ffffff" stroke="transparent" points="222.5,-1069.2046 222.5,-1088.2046 278.5,-1088.2046 278.5,-1069.2046 222.5,-1069.2046"/>
<polygon fill="none" stroke="#000000" points="222.5,-1069.2046 222.5,-1088.2046 278.5,-1088.2046 278.5,-1069.2046 222.5,-1069.2046"/>
<text text-anchor="start" x="225.5" y="-1075.3046" font-family="Helvetica,sans-Serif" font-size="11.00" fill="#000000">&lt; 1</text>
<polygon fill="#ffffff" stroke="transparent" points="278.5,-1069.2046 278.5,-1088.2046 351.5,-1088.2046 351.5,-1069.2046 278.5,-1069.2046"/>
<polygon fill="none" stroke="#000000" points="278.5,-1069.2046 278.5,-1088.2046 351.5,-1088.2046 351.5,-1069.2046 278.5,-1069.2046"/>
<text text-anchor="start" x="316.1105" y="-1075.3046" font-family="Helvetica,sans-Serif" font-size="11.00" fill="#000000">0 rows</text>
<polygon fill="#ffffff" stroke="transparent" points="351.5,-1069.2046 351.5,-1088.2046 441.5,-1088.2046 441.5,-1069.2046 351.5,-1069.2046"/>
<polygon fill="none" stroke="#000000" points="351.5,-1069.2046 351.5,-1088.2046 441.5,-1088.2046 441.5,-1069.2046 351.5,-1069.2046"/>
<text text-anchor="start" x="422.9053" y="-1075.3046" font-family="Helvetica,sans-Serif" font-size="11.00" fill="#000000">0 &gt;</text>
<polygon fill="none" stroke="#000000" stroke-width="2" points="221,-1068.2046 221,-1200.2046 442,-1200.2046 442,-1068.2046 221,-1068.2046"/>
</a>
</g>
</g>
<!-- AspNetUsers -->
<g id="node2" class="node">
<title>AspNetUsers</title>
<g id="a_node2"><a xlink:href="../../tables/AspNetUsers.html" xlink:title="AspNetUsers" target="_top">
<polygon fill="#ffffff" stroke="transparent" points="8,-458.7046 8,-585.7046 171,-585.7046 171,-458.7046 8,-458.7046"/>
<polygon fill="#f5f5f5" stroke="transparent" points="8.5,-562.2046 8.5,-585.2046 171.5,-585.2046 171.5,-562.2046 8.5,-562.2046"/>
<polygon fill="none" stroke="#000000" points="8.5,-562.2046 8.5,-585.2046 171.5,-585.2046 171.5,-562.2046 8.5,-562.2046"/>
<text text-anchor="start" x="13.5" y="-570.8046" font-family="Helvetica,sans-Serif" font-weight="bold" font-size="11.00" fill="#000000">AspNetUsers</text>
<text text-anchor="start" x="136.5437" y="-570.3046" font-family="Helvetica,sans-Serif" font-size="11.00" fill="#000000">[table]</text>
<polygon fill="none" stroke="#000000" points="8.5,-540.2046 8.5,-562.2046 171.5,-562.2046 171.5,-540.2046 8.5,-540.2046"/>
<image xlink:href="../../images/primaryKeys.png" width="11px" height="12px" preserveAspectRatio="xMinYMin meet" x="13.5" y="-557.205"/>
<text text-anchor="start" x="28.5" y="-547.3046" font-family="Helvetica,sans-Serif" font-size="11.00" fill="#000000">Id</text>
<polygon fill="#ffffff" stroke="transparent" points="8.5,-518.2046 8.5,-540.2046 171.5,-540.2046 171.5,-518.2046 8.5,-518.2046"/>
<polygon fill="none" stroke="#000000" points="8.5,-518.2046 8.5,-540.2046 171.5,-540.2046 171.5,-518.2046 8.5,-518.2046"/>
<text text-anchor="start" x="28.5" y="-525.3046" font-family="Helvetica,sans-Serif" font-size="11.00" fill="#000000">NormalizedUserName</text>
<polygon fill="#ffffff" stroke="transparent" points="8.5,-496.2046 8.5,-518.2046 171.5,-518.2046 171.5,-496.2046 8.5,-496.2046"/>
<polygon fill="none" stroke="#000000" points="8.5,-496.2046 8.5,-518.2046 171.5,-518.2046 171.5,-496.2046 8.5,-496.2046"/>
<text text-anchor="start" x="28.5" y="-503.3046" font-family="Helvetica,sans-Serif" font-size="11.00" fill="#000000">NormalizedEmail</text>
<polygon fill="none" stroke="#000000" points="8.5,-477.2046 8.5,-496.2046 171.5,-496.2046 171.5,-477.2046 8.5,-477.2046"/>
<text text-anchor="start" x="11.5" y="-483.3046" font-family="Helvetica,sans-Serif" font-size="11.00" fill="#000000">...</text>
<polygon fill="#ffffff" stroke="transparent" points="8.5,-458.2046 8.5,-477.2046 63.5,-477.2046 63.5,-458.2046 8.5,-458.2046"/>
<polygon fill="none" stroke="#000000" points="8.5,-458.2046 8.5,-477.2046 63.5,-477.2046 63.5,-458.2046 8.5,-458.2046"/>
<text text-anchor="start" x="11.5" y="-464.3046" font-family="Helvetica,sans-Serif" font-size="11.00" fill="#000000"> &#160;</text>
<polygon fill="#ffffff" stroke="transparent" points="63.5,-458.2046 63.5,-477.2046 122.5,-477.2046 122.5,-458.2046 63.5,-458.2046"/>
<polygon fill="none" stroke="#000000" points="63.5,-458.2046 63.5,-477.2046 122.5,-477.2046 122.5,-458.2046 63.5,-458.2046"/>
<text text-anchor="start" x="87.1105" y="-464.3046" font-family="Helvetica,sans-Serif" font-size="11.00" fill="#000000">0 rows</text>
<polygon fill="#ffffff" stroke="transparent" points="122.5,-458.2046 122.5,-477.2046 171.5,-477.2046 171.5,-458.2046 122.5,-458.2046"/>
<polygon fill="none" stroke="#000000" points="122.5,-458.2046 122.5,-477.2046 171.5,-477.2046 171.5,-458.2046 122.5,-458.2046"/>
<text text-anchor="start" x="146.7904" y="-464.3046" font-family="Helvetica,sans-Serif" font-size="11.00" fill="#000000">29 &gt;</text>
</a>
</g>
</g>
<!-- AspNetUserClaims&#45;&gt;AspNetUsers -->
<g id="edge1" class="edge">
<title>AspNetUserClaims:w&#45;&gt;AspNetUsers:e</title>
<path fill="none" stroke="#000000" d="M210.6526,-1134.8359C167.1482,-1062.8813 232.8793,-551.2046 171.5,-551.2046"/>
<polygon fill="#000000" stroke="#000000" points="215.9658,-1138.589 220.423,-1146.145 219.2329,-1140.8968 222.5,-1143.2046 222.5,-1143.2046 222.5,-1143.2046 219.2329,-1140.8968 224.577,-1140.2642 215.9658,-1138.589 215.9658,-1138.589"/>
<ellipse fill="none" stroke="#000000" cx="213.3521" cy="-1136.7427" rx="3.2" ry="3.2"/>
</g>
<!-- AspNetUserLogins -->
<g id="node3" class="node">
<title>AspNetUserLogins</title>
<g id="a_node3"><a xlink:href="../../tables/AspNetUserLogins.html" xlink:title="AspNetUserLogins" target="_top">
<polygon fill="#ffffff" stroke="transparent" points="258,-984.7046 258,-1045.7046 405,-1045.7046 405,-984.7046 258,-984.7046"/>
<polygon fill="#f5f5f5" stroke="transparent" points="258.5,-1022.2046 258.5,-1045.2046 405.5,-1045.2046 405.5,-1022.2046 258.5,-1022.2046"/>
<polygon fill="none" stroke="#000000" points="258.5,-1022.2046 258.5,-1045.2046 405.5,-1045.2046 405.5,-1022.2046 258.5,-1022.2046"/>
<text text-anchor="start" x="263.5" y="-1030.8046" font-family="Helvetica,sans-Serif" font-weight="bold" font-size="11.00" fill="#000000">AspNetUserLogins</text>
<text text-anchor="start" x="371.0219" y="-1030.3046" font-family="Helvetica,sans-Serif" font-size="11.00" fill="#000000">[table]</text>
<polygon fill="none" stroke="#000000" points="258.5,-1003.2046 258.5,-1022.2046 405.5,-1022.2046 405.5,-1003.2046 258.5,-1003.2046"/>
<text text-anchor="start" x="261.5" y="-1009.3046" font-family="Helvetica,sans-Serif" font-size="11.00" fill="#000000">...</text>
<polygon fill="#ffffff" stroke="transparent" points="258.5,-984.2046 258.5,-1003.2046 317.5,-1003.2046 317.5,-984.2046 258.5,-984.2046"/>
<polygon fill="none" stroke="#000000" points="258.5,-984.2046 258.5,-1003.2046 317.5,-1003.2046 317.5,-984.2046 258.5,-984.2046"/>
<text text-anchor="start" x="261.5" y="-990.3046" font-family="Helvetica,sans-Serif" font-size="11.00" fill="#000000">&lt; 1</text>
<polygon fill="#ffffff" stroke="transparent" points="317.5,-984.2046 317.5,-1003.2046 374.5,-1003.2046 374.5,-984.2046 317.5,-984.2046"/>
<polygon fill="none" stroke="#000000" points="317.5,-984.2046 317.5,-1003.2046 374.5,-1003.2046 374.5,-984.2046 317.5,-984.2046"/>
<text text-anchor="start" x="339.1105" y="-990.3046" font-family="Helvetica,sans-Serif" font-size="11.00" fill="#000000">0 rows</text>
<polygon fill="#ffffff" stroke="transparent" points="374.5,-984.2046 374.5,-1003.2046 405.5,-1003.2046 405.5,-984.2046 374.5,-984.2046"/>
<polygon fill="none" stroke="#000000" points="374.5,-984.2046 374.5,-1003.2046 405.5,-1003.2046 405.5,-984.2046 374.5,-984.2046"/>
<text text-anchor="start" x="396.3862" y="-990.3046" font-family="Helvetica,sans-Serif" font-size="11.00" fill="#000000"> &#160;</text>
</a>
</g>
</g>
<!-- AspNetUserLogins&#45;&gt;AspNetUsers -->
<g id="edge2" class="edge">
<title>AspNetUserLogins:w&#45;&gt;AspNetUsers:e</title>
<path fill="none" stroke="#000000" d="M243.9744,-1010.3251C228.5199,-1005.701 221.9216,-992.781 212,-974.2046 189.7564,-932.5576 218.7149,-551.2046 171.5,-551.2046"/>
<polygon fill="#000000" stroke="#000000" points="250.5661,-1011.178 258.038,-1015.7748 254.5331,-1011.6913 258.5,-1012.2046 258.5,-1012.2046 258.5,-1012.2046 254.5331,-1011.6913 258.962,-1008.6343 250.5661,-1011.178 250.5661,-1011.178"/>
<ellipse fill="none" stroke="#000000" cx="247.3926" cy="-1010.7674" rx="3.2" ry="3.2"/>
</g>
<!-- AspNetUserRoles -->
<g id="node4" class="node">
<title>AspNetUserRoles</title>
<g id="a_node4"><a xlink:href="../../tables/AspNetUserRoles.html" xlink:title="AspNetUserRoles" target="_top">
<polygon fill="#ffffff" stroke="transparent" points="261.5,-902.7046 261.5,-963.7046 401.5,-963.7046 401.5,-902.7046 261.5,-902.7046"/>
<polygon fill="#f5f5f5" stroke="transparent" points="261.5,-940.2046 261.5,-963.2046 401.5,-963.2046 401.5,-940.2046 261.5,-940.2046"/>
<polygon fill="none" stroke="#000000" points="261.5,-940.2046 261.5,-963.2046 401.5,-963.2046 401.5,-940.2046 261.5,-940.2046"/>
<text text-anchor="start" x="266.5" y="-948.8046" font-family="Helvetica,sans-Serif" font-weight="bold" font-size="11.00" fill="#000000">AspNetUserRoles</text>
<text text-anchor="start" x="367.0219" y="-948.3046" font-family="Helvetica,sans-Serif" font-size="11.00" fill="#000000">[table]</text>
<polygon fill="none" stroke="#000000" points="261.5,-921.2046 261.5,-940.2046 401.5,-940.2046 401.5,-921.2046 261.5,-921.2046"/>
<text text-anchor="start" x="264.5" y="-927.3046" font-family="Helvetica,sans-Serif" font-size="11.00" fill="#000000">...</text>
<polygon fill="#ffffff" stroke="transparent" points="261.5,-902.2046 261.5,-921.2046 316.5,-921.2046 316.5,-902.2046 261.5,-902.2046"/>
<polygon fill="none" stroke="#000000" points="261.5,-902.2046 261.5,-921.2046 316.5,-921.2046 316.5,-902.2046 261.5,-902.2046"/>
<text text-anchor="start" x="264.5" y="-908.3046" font-family="Helvetica,sans-Serif" font-size="11.00" fill="#000000">&lt; 2</text>
<polygon fill="#ffffff" stroke="transparent" points="316.5,-902.2046 316.5,-921.2046 371.5,-921.2046 371.5,-902.2046 316.5,-902.2046"/>
<polygon fill="none" stroke="#000000" points="316.5,-902.2046 316.5,-921.2046 371.5,-921.2046 371.5,-902.2046 316.5,-902.2046"/>
<text text-anchor="start" x="336.1105" y="-908.3046" font-family="Helvetica,sans-Serif" font-size="11.00" fill="#000000">0 rows</text>
<polygon fill="#ffffff" stroke="transparent" points="371.5,-902.2046 371.5,-921.2046 401.5,-921.2046 401.5,-902.2046 371.5,-902.2046"/>
<polygon fill="none" stroke="#000000" points="371.5,-902.2046 371.5,-921.2046 401.5,-921.2046 401.5,-902.2046 371.5,-902.2046"/>
<text text-anchor="start" x="392.3862" y="-908.3046" font-family="Helvetica,sans-Serif" font-size="11.00" fill="#000000"> &#160;</text>
</a>
</g>
</g>
<!-- AspNetUserRoles&#45;&gt;AspNetUsers -->
<g id="edge3" class="edge">
<title>AspNetUserRoles:w&#45;&gt;AspNetUsers:e</title>
<path fill="none" stroke="#000000" d="M246.8228,-928.5159C230.26,-924.1395 222.927,-911.4159 212,-892.2046 174.272,-825.873 247.8104,-551.2046 171.5,-551.2046"/>
<polygon fill="#000000" stroke="#000000" points="253.5524,-929.2901 261.0885,-933.781 257.5262,-929.7473 261.5,-930.2046 261.5,-930.2046 261.5,-930.2046 257.5262,-929.7473 261.9115,-926.6282 253.5524,-929.2901 253.5524,-929.2901"/>
<ellipse fill="none" stroke="#000000" cx="250.3734" cy="-928.9243" rx="3.2" ry="3.2"/>
</g>
<!-- AspNetUserTokens -->
<g id="node5" class="node">
<title>AspNetUserTokens</title>
<g id="a_node5"><a xlink:href="../../tables/AspNetUserTokens.html" xlink:title="AspNetUserTokens" target="_top">
<polygon fill="#ffffff" stroke="transparent" points="257,-820.7046 257,-881.7046 406,-881.7046 406,-820.7046 257,-820.7046"/>
<polygon fill="#f5f5f5" stroke="transparent" points="257.5,-858.2046 257.5,-881.2046 406.5,-881.2046 406.5,-858.2046 257.5,-858.2046"/>
<polygon fill="none" stroke="#000000" points="257.5,-858.2046 257.5,-881.2046 406.5,-881.2046 406.5,-858.2046 257.5,-858.2046"/>
<text text-anchor="start" x="262.5" y="-866.8046" font-family="Helvetica,sans-Serif" font-weight="bold" font-size="11.00" fill="#000000">AspNetUserTokens</text>
<text text-anchor="start" x="372.0219" y="-866.3046" font-family="Helvetica,sans-Serif" font-size="11.00" fill="#000000">[table]</text>
<polygon fill="none" stroke="#000000" points="257.5,-839.2046 257.5,-858.2046 406.5,-858.2046 406.5,-839.2046 257.5,-839.2046"/>
<text text-anchor="start" x="260.5" y="-845.3046" font-family="Helvetica,sans-Serif" font-size="11.00" fill="#000000">...</text>
<polygon fill="#ffffff" stroke="transparent" points="257.5,-820.2046 257.5,-839.2046 317.5,-839.2046 317.5,-820.2046 257.5,-820.2046"/>
<polygon fill="none" stroke="#000000" points="257.5,-820.2046 257.5,-839.2046 317.5,-839.2046 317.5,-820.2046 257.5,-820.2046"/>
<text text-anchor="start" x="260.5" y="-826.3046" font-family="Helvetica,sans-Serif" font-size="11.00" fill="#000000">&lt; 1</text>
<polygon fill="#ffffff" stroke="transparent" points="317.5,-820.2046 317.5,-839.2046 374.5,-839.2046 374.5,-820.2046 317.5,-820.2046"/>
<polygon fill="none" stroke="#000000" points="317.5,-820.2046 317.5,-839.2046 374.5,-839.2046 374.5,-820.2046 317.5,-820.2046"/>
<text text-anchor="start" x="339.1105" y="-826.3046" font-family="Helvetica,sans-Serif" font-size="11.00" fill="#000000">0 rows</text>
<polygon fill="#ffffff" stroke="transparent" points="374.5,-820.2046 374.5,-839.2046 406.5,-839.2046 406.5,-820.2046 374.5,-820.2046"/>
<polygon fill="none" stroke="#000000" points="374.5,-820.2046 374.5,-839.2046 406.5,-839.2046 406.5,-820.2046 374.5,-820.2046"/>
<text text-anchor="start" x="397.3862" y="-826.3046" font-family="Helvetica,sans-Serif" font-size="11.00" fill="#000000"> &#160;</text>
</a>
</g>
</g>
<!-- AspNetUserTokens&#45;&gt;AspNetUsers -->
<g id="edge4" class="edge">
<title>AspNetUserTokens:w&#45;&gt;AspNetUsers:e</title>
<path fill="none" stroke="#000000" d="M242.8053,-845.9423C227.5175,-840.4316 222.2475,-825.3501 212,-806.2046 184.9239,-755.618 228.8769,-551.2046 171.5,-551.2046"/>
<polygon fill="#000000" stroke="#000000" points="249.5932,-846.9872 256.9522,-851.7627 253.5466,-847.5959 257.5,-848.2046 257.5,-848.2046 257.5,-848.2046 253.5466,-847.5959 258.0478,-844.6465 249.5932,-846.9872 249.5932,-846.9872"/>
<ellipse fill="none" stroke="#000000" cx="246.4304" cy="-846.5003" rx="3.2" ry="3.2"/>
</g>
<!-- Competencies -->
<g id="node6" class="node">
<title>Competencies</title>
<g id="a_node6"><a xlink:href="../../tables/Competencies.html" xlink:title="Competencies" target="_top">
<polygon fill="#ffffff" stroke="transparent" points="271,-698.7046 271,-759.7046 392,-759.7046 392,-698.7046 271,-698.7046"/>
<polygon fill="#f5f5f5" stroke="transparent" points="271.5,-736.2046 271.5,-759.2046 392.5,-759.2046 392.5,-736.2046 271.5,-736.2046"/>
<polygon fill="none" stroke="#000000" points="271.5,-736.2046 271.5,-759.2046 392.5,-759.2046 392.5,-736.2046 271.5,-736.2046"/>
<text text-anchor="start" x="276.5" y="-744.8046" font-family="Helvetica,sans-Serif" font-weight="bold" font-size="11.00" fill="#000000">Competencies</text>
<text text-anchor="start" x="358.0219" y="-744.3046" font-family="Helvetica,sans-Serif" font-size="11.00" fill="#000000">[table]</text>
<polygon fill="none" stroke="#000000" points="271.5,-717.2046 271.5,-736.2046 392.5,-736.2046 392.5,-717.2046 271.5,-717.2046"/>
<text text-anchor="start" x="274.5" y="-723.3046" font-family="Helvetica,sans-Serif" font-size="11.00" fill="#000000">...</text>
<polygon fill="#ffffff" stroke="transparent" points="271.5,-698.2046 271.5,-717.2046 312.5,-717.2046 312.5,-698.2046 271.5,-698.2046"/>
<polygon fill="none" stroke="#000000" points="271.5,-698.2046 271.5,-717.2046 312.5,-717.2046 312.5,-698.2046 271.5,-698.2046"/>
<text text-anchor="start" x="274.5" y="-704.3046" font-family="Helvetica,sans-Serif" font-size="11.00" fill="#000000">&lt; 2</text>
<polygon fill="#ffffff" stroke="transparent" points="312.5,-698.2046 312.5,-717.2046 360.5,-717.2046 360.5,-698.2046 312.5,-698.2046"/>
<polygon fill="none" stroke="#000000" points="312.5,-698.2046 312.5,-717.2046 360.5,-717.2046 360.5,-698.2046 312.5,-698.2046"/>
<text text-anchor="start" x="325.1105" y="-704.3046" font-family="Helvetica,sans-Serif" font-size="11.00" fill="#000000">0 rows</text>
<polygon fill="#ffffff" stroke="transparent" points="360.5,-698.2046 360.5,-717.2046 392.5,-717.2046 392.5,-698.2046 360.5,-698.2046"/>
<polygon fill="none" stroke="#000000" points="360.5,-698.2046 360.5,-717.2046 392.5,-717.2046 392.5,-698.2046 360.5,-698.2046"/>
<text text-anchor="start" x="373.9053" y="-704.3046" font-family="Helvetica,sans-Serif" font-size="11.00" fill="#000000">4 &gt;</text>
</a>
</g>
</g>
<!-- Competencies&#45;&gt;AspNetUsers -->
<g id="edge5" class="edge">
<title>Competencies:w&#45;&gt;AspNetUsers:e</title>
<path fill="none" stroke="#000000" d="M257.368,-722.4597C236.1599,-714.7495 227.8507,-700.1344 212,-678.2046 175.8031,-628.1256 233.291,-545.2046 171.5,-551.2046"/>
<polygon fill="#000000" stroke="#000000" points="263.7669,-724.1554 270.5778,-729.6845 267.6334,-725.18 271.5,-726.2046 271.5,-726.2046 271.5,-726.2046 267.6334,-725.18 272.4222,-722.7247 263.7669,-724.1554 263.7669,-724.1554"/>
<ellipse fill="none" stroke="#000000" cx="260.6737" cy="-723.3357" rx="3.2" ry="3.2"/>
</g>
<!-- Competencies&#45;&gt;AspNetUsers -->
<g id="edge6" class="edge">
<title>Competencies:w&#45;&gt;AspNetUsers:e</title>
<path fill="none" stroke="#000000" d="M257.0715,-727.8633C236.0821,-727.6128 227.7767,-713.0319 212,-691.2046 175.8031,-641.1256 233.291,-558.2046 171.5,-551.2046"/>
<polygon fill="#000000" stroke="#000000" points="263.5523,-727.1183 271.9112,-729.781 267.5262,-726.6614 271.5,-726.2046 271.5,-726.2046 271.5,-726.2046 267.5262,-726.6614 271.0888,-722.6281 263.5523,-727.1183 263.5523,-727.1183"/>
<ellipse fill="none" stroke="#000000" cx="260.3733" cy="-727.4838" rx="3.2" ry="3.2"/>
</g>
<!-- CompetencyLevelDescriptions -->
<g id="node7" class="node">
<title>CompetencyLevelDescriptions</title>
<g id="a_node7"><a xlink:href="../../tables/CompetencyLevelDescriptions.html" xlink:title="CompetencyLevelDescriptions" target="_top">
<polygon fill="#ffffff" stroke="transparent" points="506,-762.7046 506,-823.7046 720,-823.7046 720,-762.7046 506,-762.7046"/>
<polygon fill="#f5f5f5" stroke="transparent" points="506,-800.2046 506,-823.2046 720,-823.2046 720,-800.2046 506,-800.2046"/>
<polygon fill="none" stroke="#000000" points="506,-800.2046 506,-823.2046 720,-823.2046 720,-800.2046 506,-800.2046"/>
<text text-anchor="start" x="511" y="-808.8046" font-family="Helvetica,sans-Serif" font-weight="bold" font-size="11.00" fill="#000000">CompetencyLevelDescriptions</text>
<text text-anchor="start" x="685.5219" y="-808.3046" font-family="Helvetica,sans-Serif" font-size="11.00" fill="#000000">[table]</text>
<polygon fill="none" stroke="#000000" points="506,-781.2046 506,-800.2046 720,-800.2046 720,-781.2046 506,-781.2046"/>
<text text-anchor="start" x="509" y="-787.3046" font-family="Helvetica,sans-Serif" font-size="11.00" fill="#000000">...</text>
<polygon fill="#ffffff" stroke="transparent" points="506,-762.2046 506,-781.2046 598,-781.2046 598,-762.2046 506,-762.2046"/>
<polygon fill="none" stroke="#000000" points="506,-762.2046 506,-781.2046 598,-781.2046 598,-762.2046 506,-762.2046"/>
<text text-anchor="start" x="509" y="-768.3046" font-family="Helvetica,sans-Serif" font-size="11.00" fill="#000000">&lt; 3</text>
<polygon fill="#ffffff" stroke="transparent" points="598,-762.2046 598,-781.2046 672,-781.2046 672,-762.2046 598,-762.2046"/>
<polygon fill="none" stroke="#000000" points="598,-762.2046 598,-781.2046 672,-781.2046 672,-762.2046 598,-762.2046"/>
<text text-anchor="start" x="636.6105" y="-768.3046" font-family="Helvetica,sans-Serif" font-size="11.00" fill="#000000">0 rows</text>
<polygon fill="#ffffff" stroke="transparent" points="672,-762.2046 672,-781.2046 720,-781.2046 720,-762.2046 672,-762.2046"/>
<polygon fill="none" stroke="#000000" points="672,-762.2046 672,-781.2046 720,-781.2046 720,-762.2046 672,-762.2046"/>
<text text-anchor="start" x="710.8862" y="-768.3046" font-family="Helvetica,sans-Serif" font-size="11.00" fill="#000000"> &#160;</text>
</a>
</g>
</g>
<!-- CompetencyLevelDescriptions&#45;&gt;AspNetUsers -->
<g id="edge8" class="edge">
<title>CompetencyLevelDescriptions:w&#45;&gt;AspNetUsers:e</title>
<path fill="none" stroke="#000000" d="M491.516,-790.4898C417.2354,-793.0387 257.6412,-810.8796 212,-770.2046 138.1032,-704.3484 270.4837,-551.2046 171.5,-551.2046"/>
<polygon fill="#000000" stroke="#000000" points="498.0016,-790.3622 506.0709,-793.8039 502.0008,-790.2834 506,-790.2046 506,-790.2046 506,-790.2046 502.0008,-790.2834 505.9291,-786.6053 498.0016,-790.3622 498.0016,-790.3622"/>
<ellipse fill="none" stroke="#000000" cx="494.8022" cy="-790.4252" rx="3.2" ry="3.2"/>
</g>
<!-- CompetencyLevelDescriptions&#45;&gt;AspNetUsers -->
<g id="edge9" class="edge">
<title>CompetencyLevelDescriptions:w&#45;&gt;AspNetUsers:e</title>
<path fill="none" stroke="#000000" d="M491.5023,-790.4429C417.156,-792.5614 257.4791,-807.1534 212,-766.2046 139.7389,-701.1416 268.7361,-551.2046 171.5,-551.2046"/>
<polygon fill="#000000" stroke="#000000" points="498.0011,-790.3361 506.0592,-793.8041 502.0005,-790.2703 506,-790.2046 506,-790.2046 506,-790.2046 502.0005,-790.2703 505.9408,-786.6051 498.0011,-790.3361 498.0011,-790.3361"/>
<ellipse fill="none" stroke="#000000" cx="494.8015" cy="-790.3887" rx="3.2" ry="3.2"/>
</g>
<!-- CompetencyLevelDescriptions&#45;&gt;Competencies -->
<g id="edge7" class="edge">
<title>CompetencyLevelDescriptions:w&#45;&gt;Competencies:e</title>
<path fill="none" stroke="#000000" d="M491.4813,-788.6857C448.0075,-778.9939 445.0953,-726.2046 392.5,-726.2046"/>
<polygon fill="#000000" stroke="#000000" points="498.0434,-789.3721 505.6254,-793.785 502.0217,-789.7884 506,-790.2046 506,-790.2046 506,-790.2046 502.0217,-789.7884 506.3746,-786.6241 498.0434,-789.3721 498.0434,-789.3721"/>
<ellipse fill="none" stroke="#000000" cx="494.8608" cy="-789.0392" rx="3.2" ry="3.2"/>
</g>
<!-- Coordinators -->
<g id="node8" class="node">
<title>Coordinators</title>
<g id="a_node8"><a xlink:href="../../tables/Coordinators.html" xlink:title="Coordinators" target="_top">
<polygon fill="#ffffff" stroke="transparent" points="556,-122.7046 556,-183.7046 670,-183.7046 670,-122.7046 556,-122.7046"/>
<polygon fill="#f5f5f5" stroke="transparent" points="556,-160.2046 556,-183.2046 670,-183.2046 670,-160.2046 556,-160.2046"/>
<polygon fill="none" stroke="#000000" points="556,-160.2046 556,-183.2046 670,-183.2046 670,-160.2046 556,-160.2046"/>
<text text-anchor="start" x="561" y="-168.8046" font-family="Helvetica,sans-Serif" font-weight="bold" font-size="11.00" fill="#000000">Coordinators</text>
<text text-anchor="start" x="635.5219" y="-168.3046" font-family="Helvetica,sans-Serif" font-size="11.00" fill="#000000">[table]</text>
<polygon fill="none" stroke="#000000" points="556,-141.2046 556,-160.2046 670,-160.2046 670,-141.2046 556,-141.2046"/>
<text text-anchor="start" x="559" y="-147.3046" font-family="Helvetica,sans-Serif" font-size="11.00" fill="#000000">...</text>
<polygon fill="#ffffff" stroke="transparent" points="556,-122.2046 556,-141.2046 598,-141.2046 598,-122.2046 556,-122.2046"/>
<polygon fill="none" stroke="#000000" points="556,-122.2046 556,-141.2046 598,-141.2046 598,-122.2046 556,-122.2046"/>
<text text-anchor="start" x="559" y="-128.3046" font-family="Helvetica,sans-Serif" font-size="11.00" fill="#000000">&lt; 2</text>
<polygon fill="#ffffff" stroke="transparent" points="598,-122.2046 598,-141.2046 647,-141.2046 647,-122.2046 598,-122.2046"/>
<polygon fill="none" stroke="#000000" points="598,-122.2046 598,-141.2046 647,-141.2046 647,-122.2046 598,-122.2046"/>
<text text-anchor="start" x="611.6105" y="-128.3046" font-family="Helvetica,sans-Serif" font-size="11.00" fill="#000000">0 rows</text>
<polygon fill="#ffffff" stroke="transparent" points="647,-122.2046 647,-141.2046 670,-141.2046 670,-122.2046 647,-122.2046"/>
<polygon fill="none" stroke="#000000" points="647,-122.2046 647,-141.2046 670,-141.2046 670,-122.2046 647,-122.2046"/>
<text text-anchor="start" x="660.8862" y="-128.3046" font-family="Helvetica,sans-Serif" font-size="11.00" fill="#000000"> &#160;</text>
</a>
</g>
</g>
<!-- Coordinators&#45;&gt;AspNetUsers -->
<g id="edge11" class="edge">
<title>Coordinators:w&#45;&gt;AspNetUsers:e</title>
<path fill="none" stroke="#000000" d="M545.3404,-150.0738C398.9206,-146.4878 319.6767,-71.2064 212,-175.2046 151.552,-233.5876 255.5389,-551.2046 171.5,-551.2046"/>
<polygon fill="#000000" stroke="#000000" points="555.2492,-146.1951 555.1509,-154.1945 553.5511,-154.1748 553.6493,-146.1754 555.2492,-146.1951"/>
<polyline fill="none" stroke="#000000" points="556,-150.2046 552.0003,-150.1555 "/>
<ellipse fill="none" stroke="#000000" cx="548.8005" cy="-150.1162" rx="3.2" ry="3.2"/>
</g>
<!-- TechnicalCareers -->
<g id="node9" class="node">
<title>TechnicalCareers</title>
<g id="a_node9"><a xlink:href="../../tables/TechnicalCareers.html" xlink:title="TechnicalCareers" target="_top">
<polygon fill="#ffffff" stroke="transparent" points="262,-228.7046 262,-289.7046 401,-289.7046 401,-228.7046 262,-228.7046"/>
<polygon fill="#f5f5f5" stroke="transparent" points="262.5,-266.2046 262.5,-289.2046 401.5,-289.2046 401.5,-266.2046 262.5,-266.2046"/>
<polygon fill="none" stroke="#000000" points="262.5,-266.2046 262.5,-289.2046 401.5,-289.2046 401.5,-266.2046 262.5,-266.2046"/>
<text text-anchor="start" x="267.5" y="-274.8046" font-family="Helvetica,sans-Serif" font-weight="bold" font-size="11.00" fill="#000000">TechnicalCareers</text>
<text text-anchor="start" x="367.0219" y="-274.3046" font-family="Helvetica,sans-Serif" font-size="11.00" fill="#000000">[table]</text>
<polygon fill="none" stroke="#000000" points="262.5,-247.2046 262.5,-266.2046 401.5,-266.2046 401.5,-247.2046 262.5,-247.2046"/>
<text text-anchor="start" x="265.5" y="-253.3046" font-family="Helvetica,sans-Serif" font-size="11.00" fill="#000000">...</text>
<polygon fill="#ffffff" stroke="transparent" points="262.5,-228.2046 262.5,-247.2046 312.5,-247.2046 312.5,-228.2046 262.5,-228.2046"/>
<polygon fill="none" stroke="#000000" points="262.5,-228.2046 262.5,-247.2046 312.5,-247.2046 312.5,-228.2046 262.5,-228.2046"/>
<text text-anchor="start" x="265.5" y="-234.3046" font-family="Helvetica,sans-Serif" font-size="11.00" fill="#000000">&lt; 2</text>
<polygon fill="#ffffff" stroke="transparent" points="312.5,-228.2046 312.5,-247.2046 365.5,-247.2046 365.5,-228.2046 312.5,-228.2046"/>
<polygon fill="none" stroke="#000000" points="312.5,-228.2046 312.5,-247.2046 365.5,-247.2046 365.5,-228.2046 312.5,-228.2046"/>
<text text-anchor="start" x="330.1105" y="-234.3046" font-family="Helvetica,sans-Serif" font-size="11.00" fill="#000000">0 rows</text>
<polygon fill="#ffffff" stroke="transparent" points="365.5,-228.2046 365.5,-247.2046 401.5,-247.2046 401.5,-228.2046 365.5,-228.2046"/>
<polygon fill="none" stroke="#000000" points="365.5,-228.2046 365.5,-247.2046 401.5,-247.2046 401.5,-228.2046 365.5,-228.2046"/>
<text text-anchor="start" x="382.9053" y="-234.3046" font-family="Helvetica,sans-Serif" font-size="11.00" fill="#000000">6 &gt;</text>
</a>
</g>
</g>
<!-- Coordinators&#45;&gt;TechnicalCareers -->
<g id="edge10" class="edge">
<title>Coordinators:w&#45;&gt;TechnicalCareers:e</title>
<path fill="none" stroke="#000000" d="M541.3478,-151.6394C516.8599,-156.9717 510.4203,-176.2645 484,-194.2046 446.0544,-219.9706 447.3667,-256.2046 401.5,-256.2046"/>
<polygon fill="#000000" stroke="#000000" points="548.0381,-150.9843 556.3509,-153.7874 552.019,-150.5944 556,-150.2046 556,-150.2046 556,-150.2046 552.019,-150.5944 555.6491,-146.6217 548.0381,-150.9843 548.0381,-150.9843"/>
<ellipse fill="none" stroke="#000000" cx="544.8533" cy="-151.2962" rx="3.2" ry="3.2"/>
</g>
<!-- TechnicalCareers&#45;&gt;AspNetUsers -->
<g id="edge46" class="edge">
<title>TechnicalCareers:w&#45;&gt;AspNetUsers:e</title>
<path fill="none" stroke="#000000" d="M248.1126,-255.4342C229.4141,-257.8359 223.8794,-275.7521 212,-298.2046 185.9876,-347.3691 227.1218,-545.2046 171.5,-551.2046"/>
<polygon fill="#000000" stroke="#000000" points="254.5114,-255.7768 262.3075,-259.7994 258.5057,-255.9907 262.5,-256.2046 262.5,-256.2046 262.5,-256.2046 258.5057,-255.9907 262.6925,-252.6097 254.5114,-255.7768 254.5114,-255.7768"/>
<ellipse fill="none" stroke="#000000" cx="251.316" cy="-255.6057" rx="3.2" ry="3.2"/>
</g>
<!-- TechnicalCareers&#45;&gt;AspNetUsers -->
<g id="edge47" class="edge">
<title>TechnicalCareers:w&#45;&gt;AspNetUsers:e</title>
<path fill="none" stroke="#000000" d="M248.6504,-260.9869C229.519,-270.4951 223.9925,-288.5383 212,-311.2046 185.9876,-360.3691 227.1218,-558.2046 171.5,-551.2046"/>
<polygon fill="#000000" stroke="#000000" points="254.9381,-258.8157 263.675,-259.6074 258.7191,-257.5102 262.5,-256.2046 262.5,-256.2046 262.5,-256.2046 258.7191,-257.5102 261.325,-252.8017 254.9381,-258.8157 254.9381,-258.8157"/>
<ellipse fill="none" stroke="#000000" cx="251.9134" cy="-259.8602" rx="3.2" ry="3.2"/>
</g>
<!-- EvaluationPeriods -->
<g id="node10" class="node">
<title>EvaluationPeriods</title>
<g id="a_node10"><a xlink:href="../../tables/EvaluationPeriods.html" xlink:title="EvaluationPeriods" target="_top">
<polygon fill="#ffffff" stroke="transparent" points="260,-459.7046 260,-520.7046 403,-520.7046 403,-459.7046 260,-459.7046"/>
<polygon fill="#f5f5f5" stroke="transparent" points="260.5,-497.2046 260.5,-520.2046 403.5,-520.2046 403.5,-497.2046 260.5,-497.2046"/>
<polygon fill="none" stroke="#000000" points="260.5,-497.2046 260.5,-520.2046 403.5,-520.2046 403.5,-497.2046 260.5,-497.2046"/>
<text text-anchor="start" x="265.5" y="-505.8046" font-family="Helvetica,sans-Serif" font-weight="bold" font-size="11.00" fill="#000000">EvaluationPeriods</text>
<text text-anchor="start" x="369.0219" y="-505.3046" font-family="Helvetica,sans-Serif" font-size="11.00" fill="#000000">[table]</text>
<polygon fill="none" stroke="#000000" points="260.5,-478.2046 260.5,-497.2046 403.5,-497.2046 403.5,-478.2046 260.5,-478.2046"/>
<text text-anchor="start" x="263.5" y="-484.3046" font-family="Helvetica,sans-Serif" font-size="11.00" fill="#000000">...</text>
<polygon fill="#ffffff" stroke="transparent" points="260.5,-459.2046 260.5,-478.2046 312.5,-478.2046 312.5,-459.2046 260.5,-459.2046"/>
<polygon fill="none" stroke="#000000" points="260.5,-459.2046 260.5,-478.2046 312.5,-478.2046 312.5,-459.2046 260.5,-459.2046"/>
<text text-anchor="start" x="263.5" y="-465.3046" font-family="Helvetica,sans-Serif" font-size="11.00" fill="#000000">&lt; 2</text>
<polygon fill="#ffffff" stroke="transparent" points="312.5,-459.2046 312.5,-478.2046 366.5,-478.2046 366.5,-459.2046 312.5,-459.2046"/>
<polygon fill="none" stroke="#000000" points="312.5,-459.2046 312.5,-478.2046 366.5,-478.2046 366.5,-459.2046 312.5,-459.2046"/>
<text text-anchor="start" x="331.1105" y="-465.3046" font-family="Helvetica,sans-Serif" font-size="11.00" fill="#000000">0 rows</text>
<polygon fill="#ffffff" stroke="transparent" points="366.5,-459.2046 366.5,-478.2046 403.5,-478.2046 403.5,-459.2046 366.5,-459.2046"/>
<polygon fill="none" stroke="#000000" points="366.5,-459.2046 366.5,-478.2046 403.5,-478.2046 403.5,-459.2046 366.5,-459.2046"/>
<text text-anchor="start" x="384.9053" y="-465.3046" font-family="Helvetica,sans-Serif" font-size="11.00" fill="#000000">3 &gt;</text>
</a>
</g>
</g>
<!-- EvaluationPeriods&#45;&gt;AspNetUsers -->
<g id="edge12" class="edge">
<title>EvaluationPeriods:w&#45;&gt;AspNetUsers:e</title>
<path fill="none" stroke="#000000" d="M245.977,-487.6743C212.9581,-494.9603 214.7018,-545.8843 171.5,-551.2046"/>
<polygon fill="#000000" stroke="#000000" points="252.5042,-487.4632 260.6164,-490.8027 256.5021,-487.3339 260.5,-487.2046 260.5,-487.2046 260.5,-487.2046 256.5021,-487.3339 260.3836,-483.6065 252.5042,-487.4632 252.5042,-487.4632"/>
<ellipse fill="none" stroke="#000000" cx="249.3059" cy="-487.5667" rx="3.2" ry="3.2"/>
</g>
<!-- EvaluationPeriods&#45;&gt;AspNetUsers -->
<g id="edge13" class="edge">
<title>EvaluationPeriods:w&#45;&gt;AspNetUsers:e</title>
<path fill="none" stroke="#000000" d="M246.4154,-491.3796C212.9419,-507.3552 214.8921,-557.439 171.5,-551.2046"/>
<polygon fill="#000000" stroke="#000000" points="252.8299,-489.4782 261.5231,-490.6561 256.6649,-488.3414 260.5,-487.2046 260.5,-487.2046 260.5,-487.2046 256.6649,-488.3414 259.4769,-483.753 252.8299,-489.4782 252.8299,-489.4782"/>
<ellipse fill="none" stroke="#000000" cx="249.7618" cy="-490.3877" rx="3.2" ry="3.2"/>
</g>
<!-- FormQuestions -->
<g id="node11" class="node">
<title>FormQuestions</title>
<g id="a_node11"><a xlink:href="../../tables/FormQuestions.html" xlink:title="FormQuestions" target="_top">
<polygon fill="#ffffff" stroke="transparent" points="549.5,-659.7046 549.5,-720.7046 676.5,-720.7046 676.5,-659.7046 549.5,-659.7046"/>
<polygon fill="#f5f5f5" stroke="transparent" points="550,-697.2046 550,-720.2046 677,-720.2046 677,-697.2046 550,-697.2046"/>
<polygon fill="none" stroke="#000000" points="550,-697.2046 550,-720.2046 677,-720.2046 677,-697.2046 550,-697.2046"/>
<text text-anchor="start" x="555" y="-705.8046" font-family="Helvetica,sans-Serif" font-weight="bold" font-size="11.00" fill="#000000">FormQuestions</text>
<text text-anchor="start" x="642.5219" y="-705.3046" font-family="Helvetica,sans-Serif" font-size="11.00" fill="#000000">[table]</text>
<polygon fill="none" stroke="#000000" points="550,-678.2046 550,-697.2046 677,-697.2046 677,-678.2046 550,-678.2046"/>
<text text-anchor="start" x="553" y="-684.3046" font-family="Helvetica,sans-Serif" font-size="11.00" fill="#000000">...</text>
<polygon fill="#ffffff" stroke="transparent" points="550,-659.2046 550,-678.2046 594,-678.2046 594,-659.2046 550,-659.2046"/>
<polygon fill="none" stroke="#000000" points="550,-659.2046 550,-678.2046 594,-678.2046 594,-659.2046 550,-659.2046"/>
<text text-anchor="start" x="553" y="-665.3046" font-family="Helvetica,sans-Serif" font-size="11.00" fill="#000000">&lt; 3</text>
<polygon fill="#ffffff" stroke="transparent" points="594,-659.2046 594,-678.2046 644,-678.2046 644,-659.2046 594,-659.2046"/>
<polygon fill="none" stroke="#000000" points="594,-659.2046 594,-678.2046 644,-678.2046 644,-659.2046 594,-659.2046"/>
<text text-anchor="start" x="608.6105" y="-665.3046" font-family="Helvetica,sans-Serif" font-size="11.00" fill="#000000">0 rows</text>
<polygon fill="#ffffff" stroke="transparent" points="644,-659.2046 644,-678.2046 677,-678.2046 677,-659.2046 644,-659.2046"/>
<polygon fill="none" stroke="#000000" points="644,-659.2046 644,-678.2046 677,-678.2046 677,-659.2046 644,-659.2046"/>
<text text-anchor="start" x="658.4053" y="-665.3046" font-family="Helvetica,sans-Serif" font-size="11.00" fill="#000000">1 &gt;</text>
</a>
</g>
</g>
<!-- FormQuestions&#45;&gt;AspNetUsers -->
<g id="edge15" class="edge">
<title>FormQuestions:w&#45;&gt;AspNetUsers:e</title>
<path fill="none" stroke="#000000" d="M535.4505,-687.2294C451.1507,-687.439 268.9902,-687.9741 212,-645.2046 175.6159,-617.8993 216.9905,-551.2046 171.5,-551.2046"/>
<polygon fill="#000000" stroke="#000000" points="542,-687.2183 550.0062,-690.8046 546,-687.2114 550,-687.2046 550,-687.2046 550,-687.2046 546,-687.2114 549.9938,-683.6046 542,-687.2183 542,-687.2183"/>
<ellipse fill="none" stroke="#000000" cx="538.8" cy="-687.2238" rx="3.2" ry="3.2"/>
</g>
<!-- FormQuestions&#45;&gt;AspNetUsers -->
<g id="edge16" class="edge">
<title>FormQuestions:w&#45;&gt;AspNetUsers:e</title>
<path fill="none" stroke="#000000" d="M535.4345,-687.1892C451.0702,-686.9768 269.1707,-683.9133 212,-641.2046 176.8594,-614.9532 215.3634,-551.2046 171.5,-551.2046"/>
<polygon fill="#000000" stroke="#000000" points="542,-687.1961 549.9962,-690.8046 546,-687.2003 550,-687.2046 550,-687.2046 550,-687.2046 546,-687.2003 550.0038,-683.6046 542,-687.1961 542,-687.1961"/>
<ellipse fill="none" stroke="#000000" cx="538.8" cy="-687.1927" rx="3.2" ry="3.2"/>
</g>
<!-- FormQuestions&#45;&gt;Competencies -->
<g id="edge14" class="edge">
<title>FormQuestions:w&#45;&gt;Competencies:e</title>
<path fill="none" stroke="#000000" d="M535.2434,-687.7862C475.6604,-692.6376 459.4027,-726.2046 392.5,-726.2046"/>
<polygon fill="#000000" stroke="#000000" points="542.0062,-687.5197 550.1418,-690.8018 546.0031,-687.3621 550,-687.2046 550,-687.2046 550,-687.2046 546.0031,-687.3621 549.8582,-683.6074 542.0062,-687.5197 542.0062,-687.5197"/>
<ellipse fill="none" stroke="#000000" cx="538.8087" cy="-687.6457" rx="3.2" ry="3.2"/>
</g>
<!-- ProfessorCompetencyAssignments -->
<g id="node12" class="node">
<title>ProfessorCompetencyAssignments</title>
<g id="a_node12"><a xlink:href="../../tables/ProfessorCompetencyAssignments.html" xlink:title="ProfessorCompetencyAssignments" target="_top">
<polygon fill="#ffffff" stroke="transparent" points="492,-498.7046 492,-559.7046 734,-559.7046 734,-498.7046 492,-498.7046"/>
<polygon fill="#f5f5f5" stroke="transparent" points="492,-536.2046 492,-559.2046 734,-559.2046 734,-536.2046 492,-536.2046"/>
<polygon fill="none" stroke="#000000" points="492,-536.2046 492,-559.2046 734,-559.2046 734,-536.2046 492,-536.2046"/>
<text text-anchor="start" x="497" y="-544.8046" font-family="Helvetica,sans-Serif" font-weight="bold" font-size="11.00" fill="#000000">ProfessorCompetencyAssignments</text>
<text text-anchor="start" x="699.5219" y="-544.3046" font-family="Helvetica,sans-Serif" font-size="11.00" fill="#000000">[table]</text>
<polygon fill="none" stroke="#000000" points="492,-517.2046 492,-536.2046 734,-536.2046 734,-517.2046 492,-517.2046"/>
<text text-anchor="start" x="495" y="-523.3046" font-family="Helvetica,sans-Serif" font-size="11.00" fill="#000000">...</text>
<polygon fill="#ffffff" stroke="transparent" points="492,-498.2046 492,-517.2046 594,-517.2046 594,-498.2046 492,-498.2046"/>
<polygon fill="none" stroke="#000000" points="492,-498.2046 492,-517.2046 594,-517.2046 594,-498.2046 492,-498.2046"/>
<text text-anchor="start" x="495" y="-504.3046" font-family="Helvetica,sans-Serif" font-size="11.00" fill="#000000">&lt; 6</text>
<polygon fill="#ffffff" stroke="transparent" points="594,-498.2046 594,-517.2046 672,-517.2046 672,-498.2046 594,-498.2046"/>
<polygon fill="none" stroke="#000000" points="594,-498.2046 594,-517.2046 672,-517.2046 672,-498.2046 594,-498.2046"/>
<text text-anchor="start" x="636.6105" y="-504.3046" font-family="Helvetica,sans-Serif" font-size="11.00" fill="#000000">0 rows</text>
<polygon fill="#ffffff" stroke="transparent" points="672,-498.2046 672,-517.2046 734,-517.2046 734,-498.2046 672,-498.2046"/>
<polygon fill="none" stroke="#000000" points="672,-498.2046 672,-517.2046 734,-517.2046 734,-498.2046 672,-498.2046"/>
<text text-anchor="start" x="715.4053" y="-504.3046" font-family="Helvetica,sans-Serif" font-size="11.00" fill="#000000">1 &gt;</text>
</a>
</g>
</g>
<!-- ProfessorCompetencyAssignments&#45;&gt;AspNetUsers -->
<g id="edge18" class="edge">
<title>ProfessorCompetencyAssignments:w&#45;&gt;AspNetUsers:e</title>
<path fill="none" stroke="#000000" d="M477.462,-527.0829C469.2778,-528.1685 463.2765,-530.0175 451,-531.2046 327.0383,-543.1908 296.0398,-551.2046 171.5,-551.2046"/>
<polygon fill="#000000" stroke="#000000" points="484.0146,-526.6871 492.2171,-529.798 488.0073,-526.4458 492,-526.2046 492,-526.2046 492,-526.2046 488.0073,-526.4458 491.7829,-522.6111 484.0146,-526.6871 484.0146,-526.6871"/>
<ellipse fill="none" stroke="#000000" cx="480.8204" cy="-526.8801" rx="3.2" ry="3.2"/>
</g>
<!-- ProfessorCompetencyAssignments&#45;&gt;AspNetUsers -->
<g id="edge22" class="edge">
<title>ProfessorCompetencyAssignments:w&#45;&gt;AspNetUsers:e</title>
<path fill="none" stroke="#000000" d="M477.4128,-526.4853C398.7734,-529.2319 238.4737,-551.2046 171.5,-551.2046"/>
<polygon fill="#000000" stroke="#000000" points="484.0015,-526.3586 492.0693,-529.8039 488.0007,-526.2816 492,-526.2046 492,-526.2046 492,-526.2046 488.0007,-526.2816 491.9307,-522.6053 484.0015,-526.3586 484.0015,-526.3586"/>
<ellipse fill="none" stroke="#000000" cx="480.8021" cy="-526.4202" rx="3.2" ry="3.2"/>
</g>
<!-- ProfessorCompetencyAssignments&#45;&gt;Competencies -->
<g id="edge17" class="edge">
<title>ProfessorCompetencyAssignments:w&#45;&gt;Competencies:e</title>
<path fill="none" stroke="#000000" d="M478.3009,-531.9745C441.805,-564.7666 437.0992,-726.2046 392.5,-726.2046"/>
<polygon fill="#000000" stroke="#000000" points="484.6273,-529.3099 493.3974,-529.5223 488.3136,-527.7573 492,-526.2046 492,-526.2046 492,-526.2046 488.3136,-527.7573 490.6026,-522.8869 484.6273,-529.3099 484.6273,-529.3099"/>
<ellipse fill="none" stroke="#000000" cx="481.6782" cy="-530.5521" rx="3.2" ry="3.2"/>
</g>
<!-- ProfessorCompetencyAssignments&#45;&gt;TechnicalCareers -->
<g id="edge21" class="edge">
<title>ProfessorCompetencyAssignments:w&#45;&gt;TechnicalCareers:e</title>
<path fill="none" stroke="#000000" d="M477.4766,-524.6854C427.0936,-512.6013 473.224,-430.8557 451,-367.2046 433.1941,-316.2073 455.5165,-256.2046 401.5,-256.2046"/>
<polygon fill="#000000" stroke="#000000" points="484.0434,-525.3723 491.6255,-529.7851 488.0217,-525.7884 492,-526.2046 492,-526.2046 492,-526.2046 488.0217,-525.7884 492.3745,-522.6241 484.0434,-525.3723 484.0434,-525.3723"/>
<ellipse fill="none" stroke="#000000" cx="480.8608" cy="-525.0394" rx="3.2" ry="3.2"/>
</g>
<!-- ProfessorCompetencyAssignments&#45;&gt;EvaluationPeriods -->
<g id="edge19" class="edge">
<title>ProfessorCompetencyAssignments:w&#45;&gt;EvaluationPeriods:e</title>
<path fill="none" stroke="#000000" d="M477.6194,-524.5288C447.7514,-517.064 441.1103,-487.2046 403.5,-487.2046"/>
<polygon fill="#000000" stroke="#000000" points="484.0538,-525.2786 491.5833,-529.7804 488.0269,-525.7416 492,-526.2046 492,-526.2046 492,-526.2046 488.0269,-525.7416 492.4167,-522.6288 484.0538,-525.2786 484.0538,-525.2786"/>
<ellipse fill="none" stroke="#000000" cx="480.8753" cy="-524.9081" rx="3.2" ry="3.2"/>
</g>
<!-- Professors -->
<g id="node13" class="node">
<title>Professors</title>
<g id="a_node13"><a xlink:href="../../tables/Professors.html" xlink:title="Professors" target="_top">
<polygon fill="#ffffff" stroke="transparent" points="281,-377.7046 281,-438.7046 382,-438.7046 382,-377.7046 281,-377.7046"/>
<polygon fill="#f5f5f5" stroke="transparent" points="281.5,-415.2046 281.5,-438.2046 382.5,-438.2046 382.5,-415.2046 281.5,-415.2046"/>
<polygon fill="none" stroke="#000000" points="281.5,-415.2046 281.5,-438.2046 382.5,-438.2046 382.5,-415.2046 281.5,-415.2046"/>
<text text-anchor="start" x="286.5" y="-423.8046" font-family="Helvetica,sans-Serif" font-weight="bold" font-size="11.00" fill="#000000">Professors</text>
<text text-anchor="start" x="348.0219" y="-423.3046" font-family="Helvetica,sans-Serif" font-size="11.00" fill="#000000">[table]</text>
<polygon fill="none" stroke="#000000" points="281.5,-396.2046 281.5,-415.2046 382.5,-415.2046 382.5,-396.2046 281.5,-396.2046"/>
<text text-anchor="start" x="284.5" y="-402.3046" font-family="Helvetica,sans-Serif" font-size="11.00" fill="#000000">...</text>
<polygon fill="#ffffff" stroke="transparent" points="281.5,-377.2046 281.5,-396.2046 312.5,-396.2046 312.5,-377.2046 281.5,-377.2046"/>
<polygon fill="none" stroke="#000000" points="281.5,-377.2046 281.5,-396.2046 312.5,-396.2046 312.5,-377.2046 281.5,-377.2046"/>
<text text-anchor="start" x="284.5" y="-383.3046" font-family="Helvetica,sans-Serif" font-size="11.00" fill="#000000">&lt; 1</text>
<polygon fill="#ffffff" stroke="transparent" points="312.5,-377.2046 312.5,-396.2046 355.5,-396.2046 355.5,-377.2046 312.5,-377.2046"/>
<polygon fill="none" stroke="#000000" points="312.5,-377.2046 312.5,-396.2046 355.5,-396.2046 355.5,-377.2046 312.5,-377.2046"/>
<text text-anchor="start" x="320.1105" y="-383.3046" font-family="Helvetica,sans-Serif" font-size="11.00" fill="#000000">0 rows</text>
<polygon fill="#ffffff" stroke="transparent" points="355.5,-377.2046 355.5,-396.2046 382.5,-396.2046 382.5,-377.2046 355.5,-377.2046"/>
<polygon fill="none" stroke="#000000" points="355.5,-377.2046 355.5,-396.2046 382.5,-396.2046 382.5,-377.2046 355.5,-377.2046"/>
<text text-anchor="start" x="363.9053" y="-383.3046" font-family="Helvetica,sans-Serif" font-size="11.00" fill="#000000">2 &gt;</text>
</a>
</g>
</g>
<!-- ProfessorCompetencyAssignments&#45;&gt;Professors -->
<g id="edge20" class="edge">
<title>ProfessorCompetencyAssignments:w&#45;&gt;Professors:e</title>
<path fill="none" stroke="#000000" d="M477.49,-522.5915C459.7639,-510.8321 472.9627,-473.0388 451,-449.2046 426.4801,-422.5952 418.684,-405.2046 382.5,-405.2046"/>
<polygon fill="#000000" stroke="#000000" points="484.237,-524.2715 491.1301,-529.6979 488.1185,-525.2381 492,-526.2046 492,-526.2046 492,-526.2046 488.1185,-525.2381 492.8699,-522.7113 484.237,-524.2715 484.237,-524.2715"/>
<ellipse fill="none" stroke="#000000" cx="481.1319" cy="-523.4983" rx="3.2" ry="3.2"/>
</g>
<!-- Professors&#45;&gt;AspNetUsers -->
<g id="edge23" class="edge">
<title>Professors:w&#45;&gt;AspNetUsers:e</title>
<path fill="none" stroke="#000000" d="M270.7842,-405.7295C242.7617,-408.6857 232.8717,-424.0281 212,-449.2046 180.8701,-486.7551 220.2761,-551.2046 171.5,-551.2046"/>
<polygon fill="#000000" stroke="#000000" points="280.5052,-401.2485 280.8967,-409.2389 279.2986,-409.3172 278.9071,-401.3268 280.5052,-401.2485"/>
<polyline fill="none" stroke="#000000" points="281.5,-405.2046 277.5048,-405.4003 "/>
<ellipse fill="none" stroke="#000000" cx="274.3086" cy="-405.5569" rx="3.2" ry="3.2"/>
</g>
<!-- QuestionResponses -->
<g id="node14" class="node">
<title>QuestionResponses</title>
<g id="a_node14"><a xlink:href="../../tables/QuestionResponses.html" xlink:title="QuestionResponses" target="_top">
<polygon fill="#ffffff" stroke="transparent" points="1055,-601.7046 1055,-662.7046 1210,-662.7046 1210,-601.7046 1055,-601.7046"/>
<polygon fill="#f5f5f5" stroke="transparent" points="1055.5,-639.2046 1055.5,-662.2046 1210.5,-662.2046 1210.5,-639.2046 1055.5,-639.2046"/>
<polygon fill="none" stroke="#000000" points="1055.5,-639.2046 1055.5,-662.2046 1210.5,-662.2046 1210.5,-639.2046 1055.5,-639.2046"/>
<text text-anchor="start" x="1060.5" y="-647.8046" font-family="Helvetica,sans-Serif" font-weight="bold" font-size="11.00" fill="#000000">QuestionResponses</text>
<text text-anchor="start" x="1176.0219" y="-647.3046" font-family="Helvetica,sans-Serif" font-size="11.00" fill="#000000">[table]</text>
<polygon fill="none" stroke="#000000" points="1055.5,-620.2046 1055.5,-639.2046 1210.5,-639.2046 1210.5,-620.2046 1055.5,-620.2046"/>
<text text-anchor="start" x="1058.5" y="-626.3046" font-family="Helvetica,sans-Serif" font-size="11.00" fill="#000000">...</text>
<polygon fill="#ffffff" stroke="transparent" points="1055.5,-601.2046 1055.5,-620.2046 1118.5,-620.2046 1118.5,-601.2046 1055.5,-601.2046"/>
<polygon fill="none" stroke="#000000" points="1055.5,-601.2046 1055.5,-620.2046 1118.5,-620.2046 1118.5,-601.2046 1055.5,-601.2046"/>
<text text-anchor="start" x="1058.5" y="-607.3046" font-family="Helvetica,sans-Serif" font-size="11.00" fill="#000000">&lt; 4</text>
<polygon fill="#ffffff" stroke="transparent" points="1118.5,-601.2046 1118.5,-620.2046 1177.5,-620.2046 1177.5,-601.2046 1118.5,-601.2046"/>
<polygon fill="none" stroke="#000000" points="1118.5,-601.2046 1118.5,-620.2046 1177.5,-620.2046 1177.5,-601.2046 1118.5,-601.2046"/>
<text text-anchor="start" x="1142.1105" y="-607.3046" font-family="Helvetica,sans-Serif" font-size="11.00" fill="#000000">0 rows</text>
<polygon fill="#ffffff" stroke="transparent" points="1177.5,-601.2046 1177.5,-620.2046 1210.5,-620.2046 1210.5,-601.2046 1177.5,-601.2046"/>
<polygon fill="none" stroke="#000000" points="1177.5,-601.2046 1177.5,-620.2046 1210.5,-620.2046 1210.5,-601.2046 1177.5,-601.2046"/>
<text text-anchor="start" x="1201.3862" y="-607.3046" font-family="Helvetica,sans-Serif" font-size="11.00" fill="#000000"> &#160;</text>
</a>
</g>
</g>
<!-- QuestionResponses&#45;&gt;AspNetUsers -->
<g id="edge24" class="edge">
<title>QuestionResponses:w&#45;&gt;AspNetUsers:e</title>
<path fill="none" stroke="#000000" d="M1041.0499,-629.2306C676.9804,-630.5419 567.255,-680.5259 212,-574.2046 192.169,-568.2695 192.2001,-551.2046 171.5,-551.2046"/>
<polygon fill="#000000" stroke="#000000" points="1047.5,-629.219 1055.5065,-632.8046 1051.5,-629.2118 1055.5,-629.2046 1055.5,-629.2046 1055.5,-629.2046 1051.5,-629.2118 1055.4935,-625.6046 1047.5,-629.219 1047.5,-629.219"/>
<ellipse fill="none" stroke="#000000" cx="1044.3" cy="-629.2248" rx="3.2" ry="3.2"/>
</g>
<!-- QuestionResponses&#45;&gt;AspNetUsers -->
<g id="edge27" class="edge">
<title>QuestionResponses:w&#45;&gt;AspNetUsers:e</title>
<path fill="none" stroke="#000000" d="M1041.0473,-629.2221C676.961,-630.102 571.0178,-663.5012 212,-570.2046 192.7568,-565.2039 191.3824,-551.2046 171.5,-551.2046"/>
<polygon fill="#000000" stroke="#000000" points="1047.5,-629.2143 1055.5044,-632.8046 1051.5,-629.2095 1055.5,-629.2046 1055.5,-629.2046 1055.5,-629.2046 1051.5,-629.2095 1055.4956,-625.6046 1047.5,-629.2143 1047.5,-629.2143"/>
<ellipse fill="none" stroke="#000000" cx="1044.3" cy="-629.2182" rx="3.2" ry="3.2"/>
</g>
<!-- QuestionResponses&#45;&gt;FormQuestions -->
<g id="edge25" class="edge">
<title>QuestionResponses:w&#45;&gt;FormQuestions:e</title>
<path fill="none" stroke="#000000" d="M1041.2669,-631.8233C1032.6302,-635.4296 1027.331,-641.8576 1014,-645.2046 867.607,-681.9595 827.9365,-687.2046 677,-687.2046"/>
<polygon fill="#000000" stroke="#000000" points="1047.6321,-630.6523 1056.1515,-632.7452 1051.566,-629.9284 1055.5,-629.2046 1055.5,-629.2046 1055.5,-629.2046 1051.566,-629.9284 1054.8485,-625.664 1047.6321,-630.6523 1047.6321,-630.6523"/>
<ellipse fill="none" stroke="#000000" cx="1044.4849" cy="-631.2313" rx="3.2" ry="3.2"/>
</g>
<!-- StudentCompetencyEvaluations -->
<g id="node15" class="node">
<title>StudentCompetencyEvaluations</title>
<g id="a_node15"><a xlink:href="../../tables/StudentCompetencyEvaluations.html" xlink:title="StudentCompetencyEvaluations" target="_top">
<polygon fill="#ffffff" stroke="transparent" points="783,-537.7046 783,-598.7046 1006,-598.7046 1006,-537.7046 783,-537.7046"/>
<polygon fill="#f5f5f5" stroke="transparent" points="783.5,-575.2046 783.5,-598.2046 1006.5,-598.2046 1006.5,-575.2046 783.5,-575.2046"/>
<polygon fill="none" stroke="#000000" points="783.5,-575.2046 783.5,-598.2046 1006.5,-598.2046 1006.5,-575.2046 783.5,-575.2046"/>
<text text-anchor="start" x="788.5" y="-583.8046" font-family="Helvetica,sans-Serif" font-weight="bold" font-size="11.00" fill="#000000">StudentCompetencyEvaluations</text>
<text text-anchor="start" x="972.0219" y="-583.3046" font-family="Helvetica,sans-Serif" font-size="11.00" fill="#000000">[table]</text>
<polygon fill="none" stroke="#000000" points="783.5,-556.2046 783.5,-575.2046 1006.5,-575.2046 1006.5,-556.2046 783.5,-556.2046"/>
<text text-anchor="start" x="786.5" y="-562.3046" font-family="Helvetica,sans-Serif" font-size="11.00" fill="#000000">...</text>
<polygon fill="#ffffff" stroke="transparent" points="783.5,-537.2046 783.5,-556.2046 875.5,-556.2046 875.5,-537.2046 783.5,-537.2046"/>
<polygon fill="none" stroke="#000000" points="783.5,-537.2046 783.5,-556.2046 875.5,-556.2046 875.5,-537.2046 783.5,-537.2046"/>
<text text-anchor="start" x="786.5" y="-543.3046" font-family="Helvetica,sans-Serif" font-size="11.00" fill="#000000">&lt; 4</text>
<polygon fill="#ffffff" stroke="transparent" points="875.5,-537.2046 875.5,-556.2046 949.5,-556.2046 949.5,-537.2046 875.5,-537.2046"/>
<polygon fill="none" stroke="#000000" points="875.5,-537.2046 875.5,-556.2046 949.5,-556.2046 949.5,-537.2046 875.5,-537.2046"/>
<text text-anchor="start" x="914.1105" y="-543.3046" font-family="Helvetica,sans-Serif" font-size="11.00" fill="#000000">0 rows</text>
<polygon fill="#ffffff" stroke="transparent" points="949.5,-537.2046 949.5,-556.2046 1006.5,-556.2046 1006.5,-537.2046 949.5,-537.2046"/>
<polygon fill="none" stroke="#000000" points="949.5,-537.2046 949.5,-556.2046 1006.5,-556.2046 1006.5,-537.2046 949.5,-537.2046"/>
<text text-anchor="start" x="987.9053" y="-543.3046" font-family="Helvetica,sans-Serif" font-size="11.00" fill="#000000">1 &gt;</text>
</a>
</g>
</g>
<!-- QuestionResponses&#45;&gt;StudentCompetencyEvaluations -->
<g id="edge26" class="edge">
<title>QuestionResponses:w&#45;&gt;StudentCompetencyEvaluations:e</title>
<path fill="none" stroke="#000000" d="M1041.6165,-624.1826C1025.7339,-609.0952 1036.1667,-565.2046 1006.5,-565.2046"/>
<polygon fill="#000000" stroke="#000000" points="1047.977,-626.4833 1054.2754,-632.5899 1051.7385,-627.844 1055.5,-629.2046 1055.5,-629.2046 1055.5,-629.2046 1051.7385,-627.844 1056.7246,-625.8192 1047.977,-626.4833 1047.977,-626.4833"/>
<ellipse fill="none" stroke="#000000" cx="1044.9678" cy="-625.3948" rx="3.2" ry="3.2"/>
</g>
<!-- StudentCompetencyEvaluations&#45;&gt;AspNetUsers -->
<g id="edge28" class="edge">
<title>StudentCompetencyEvaluations:w&#45;&gt;AspNetUsers:e</title>
<path fill="none" stroke="#000000" d="M769.0864,-566.1821C760.6642,-567.41 754.6044,-569.448 742,-570.2046 506.7735,-584.3238 446.9558,-573.2774 212,-555.2046 193.9657,-553.8174 189.5876,-551.2046 171.5,-551.2046"/>
<polygon fill="#000000" stroke="#000000" points="775.5183,-565.7459 783.7436,-568.7963 779.5092,-565.4753 783.5,-565.2046 783.5,-565.2046 783.5,-565.2046 779.5092,-565.4753 783.2564,-561.6128 775.5183,-565.7459 775.5183,-565.7459"/>
<ellipse fill="none" stroke="#000000" cx="772.3257" cy="-565.9625" rx="3.2" ry="3.2"/>
</g>
<!-- StudentCompetencyEvaluations&#45;&gt;AspNetUsers -->
<g id="edge31" class="edge">
<title>StudentCompetencyEvaluations:w&#45;&gt;AspNetUsers:e</title>
<path fill="none" stroke="#000000" d="M768.833,-565.4087C760.5395,-565.6552 754.3951,-566.0553 742,-566.2046 627.3417,-567.5858 598.6337,-568.9542 484,-566.2046 344.9912,-562.8703 310.5488,-551.2046 171.5,-551.2046"/>
<polygon fill="#000000" stroke="#000000" points="775.5008,-565.316 783.5501,-568.8042 779.5004,-565.2603 783.5,-565.2046 783.5,-565.2046 783.5,-565.2046 779.5004,-565.2603 783.4499,-561.6049 775.5008,-565.316 775.5008,-565.316"/>
<ellipse fill="none" stroke="#000000" cx="772.3011" cy="-565.3605" rx="3.2" ry="3.2"/>
</g>
<!-- StudentCompetencyEvaluations&#45;&gt;ProfessorCompetencyAssignments -->
<g id="edge29" class="edge">
<title>StudentCompetencyEvaluations:w&#45;&gt;ProfessorCompetencyAssignments:e</title>
<path fill="none" stroke="#000000" d="M769.7365,-560.7308C756.7048,-550.4867 756.1,-526.2046 734,-526.2046"/>
<polygon fill="#000000" stroke="#000000" points="775.8918,-562.7315 782.3871,-568.6283 779.6959,-563.9681 783.5,-565.2046 783.5,-565.2046 783.5,-565.2046 779.6959,-563.9681 784.6129,-561.7809 775.8918,-562.7315 775.8918,-562.7315"/>
<ellipse fill="none" stroke="#000000" cx="772.8486" cy="-561.7423" rx="3.2" ry="3.2"/>
</g>
<!-- Students -->
<g id="node16" class="node">
<title>Students</title>
<g id="a_node16"><a xlink:href="../../tables/Students.html" xlink:title="Students" target="_top">
<polygon fill="#ffffff" stroke="transparent" points="568,-286.7046 568,-347.7046 658,-347.7046 658,-286.7046 568,-286.7046"/>
<polygon fill="#f5f5f5" stroke="transparent" points="568,-324.2046 568,-347.2046 658,-347.2046 658,-324.2046 568,-324.2046"/>
<polygon fill="none" stroke="#000000" points="568,-324.2046 568,-347.2046 658,-347.2046 658,-324.2046 568,-324.2046"/>
<text text-anchor="start" x="573" y="-332.8046" font-family="Helvetica,sans-Serif" font-weight="bold" font-size="11.00" fill="#000000">Students</text>
<text text-anchor="start" x="623.5219" y="-332.3046" font-family="Helvetica,sans-Serif" font-size="11.00" fill="#000000">[table]</text>
<polygon fill="none" stroke="#000000" points="568,-305.2046 568,-324.2046 658,-324.2046 658,-305.2046 568,-305.2046"/>
<text text-anchor="start" x="571" y="-311.3046" font-family="Helvetica,sans-Serif" font-size="11.00" fill="#000000">...</text>
<polygon fill="#ffffff" stroke="transparent" points="568,-286.2046 568,-305.2046 594,-305.2046 594,-286.2046 568,-286.2046"/>
<polygon fill="none" stroke="#000000" points="568,-286.2046 568,-305.2046 594,-305.2046 594,-286.2046 568,-286.2046"/>
<text text-anchor="start" x="571" y="-292.3046" font-family="Helvetica,sans-Serif" font-size="11.00" fill="#000000">&lt; 2</text>
<polygon fill="#ffffff" stroke="transparent" points="594,-286.2046 594,-305.2046 634,-305.2046 634,-286.2046 594,-286.2046"/>
<polygon fill="none" stroke="#000000" points="594,-286.2046 594,-305.2046 634,-305.2046 634,-286.2046 594,-286.2046"/>
<text text-anchor="start" x="598.6105" y="-292.3046" font-family="Helvetica,sans-Serif" font-size="11.00" fill="#000000">0 rows</text>
<polygon fill="#ffffff" stroke="transparent" points="634,-286.2046 634,-305.2046 658,-305.2046 658,-286.2046 634,-286.2046"/>
<polygon fill="none" stroke="#000000" points="634,-286.2046 634,-305.2046 658,-305.2046 658,-286.2046 634,-286.2046"/>
<text text-anchor="start" x="639.4053" y="-292.3046" font-family="Helvetica,sans-Serif" font-size="11.00" fill="#000000">3 &gt;</text>
</a>
</g>
</g>
<!-- StudentCompetencyEvaluations&#45;&gt;Students -->
<g id="edge30" class="edge">
<title>StudentCompetencyEvaluations:w&#45;&gt;Students:e</title>
<path fill="none" stroke="#000000" d="M774.0778,-554.0956C745.2303,-505.5195 671.6111,-314.2046 658,-314.2046"/>
<polygon fill="#000000" stroke="#000000" points="778.3253,-559.1035 780.7545,-567.5332 780.9127,-562.154 783.5,-565.2046 783.5,-565.2046 783.5,-565.2046 780.9127,-562.154 786.2455,-562.876 778.3253,-559.1035 778.3253,-559.1035"/>
<ellipse fill="none" stroke="#000000" cx="776.2555" cy="-556.6631" rx="3.2" ry="3.2"/>
</g>
<!-- Students&#45;&gt;AspNetUsers -->
<g id="edge37" class="edge">
<title>Students:w&#45;&gt;AspNetUsers:e</title>
<path fill="none" stroke="#000000" d="M557.5787,-314.0358C471.2496,-311.4705 269.1903,-281.2236 212,-331.2046 137.139,-396.6287 270.9208,-551.2046 171.5,-551.2046"/>
<polygon fill="#000000" stroke="#000000" points="567.2649,-310.1921 567.1353,-318.1911 565.5355,-318.1652 565.6651,-310.1662 567.2649,-310.1921"/>
<polyline fill="none" stroke="#000000" points="568,-314.2046 564.0005,-314.1398 "/>
<ellipse fill="none" stroke="#000000" cx="560.8009" cy="-314.0879" rx="3.2" ry="3.2"/>
</g>
<!-- Students&#45;&gt;TechnicalCareers -->
<g id="edge36" class="edge">
<title>Students:w&#45;&gt;TechnicalCareers:e</title>
<path fill="none" stroke="#000000" d="M553.2561,-313.4713C488.0377,-306.7572 474.6576,-256.2046 401.5,-256.2046"/>
<polygon fill="#000000" stroke="#000000" points="560.0099,-313.8071 567.8211,-317.8001 564.0049,-314.0059 568,-314.2046 568,-314.2046 568,-314.2046 564.0049,-314.0059 568.1789,-310.609 560.0099,-313.8071 560.0099,-313.8071"/>
<ellipse fill="none" stroke="#000000" cx="556.8138" cy="-313.6481" rx="3.2" ry="3.2"/>
</g>
<!-- StudentEvaluationReport -->
<g id="node17" class="node">
<title>StudentEvaluationReport</title>
<g id="a_node17"><a xlink:href="../../tables/StudentEvaluationReport.html" xlink:title="StudentEvaluationReport" target="_top">
<polygon fill="#ffffff" stroke="transparent" points="803,-350.7046 803,-411.7046 986,-411.7046 986,-350.7046 803,-350.7046"/>
<polygon fill="#f5f5f5" stroke="transparent" points="803.5,-388.2046 803.5,-411.2046 986.5,-411.2046 986.5,-388.2046 803.5,-388.2046"/>
<polygon fill="none" stroke="#000000" points="803.5,-388.2046 803.5,-411.2046 986.5,-411.2046 986.5,-388.2046 803.5,-388.2046"/>
<text text-anchor="start" x="808.5" y="-396.8046" font-family="Helvetica,sans-Serif" font-weight="bold" font-size="11.00" fill="#000000">StudentEvaluationReport</text>
<text text-anchor="start" x="952.0219" y="-396.3046" font-family="Helvetica,sans-Serif" font-size="11.00" fill="#000000">[table]</text>
<polygon fill="none" stroke="#000000" points="803.5,-369.2046 803.5,-388.2046 986.5,-388.2046 986.5,-369.2046 803.5,-369.2046"/>
<text text-anchor="start" x="806.5" y="-375.3046" font-family="Helvetica,sans-Serif" font-size="11.00" fill="#000000">...</text>
<polygon fill="#ffffff" stroke="transparent" points="803.5,-350.2046 803.5,-369.2046 880.5,-369.2046 880.5,-350.2046 803.5,-350.2046"/>
<polygon fill="none" stroke="#000000" points="803.5,-350.2046 803.5,-369.2046 880.5,-369.2046 880.5,-350.2046 803.5,-350.2046"/>
<text text-anchor="start" x="806.5" y="-356.3046" font-family="Helvetica,sans-Serif" font-size="11.00" fill="#000000">&lt; 4</text>
<polygon fill="#ffffff" stroke="transparent" points="880.5,-350.2046 880.5,-369.2046 946.5,-369.2046 946.5,-350.2046 880.5,-350.2046"/>
<polygon fill="none" stroke="#000000" points="880.5,-350.2046 880.5,-369.2046 946.5,-369.2046 946.5,-350.2046 880.5,-350.2046"/>
<text text-anchor="start" x="911.1105" y="-356.3046" font-family="Helvetica,sans-Serif" font-size="11.00" fill="#000000">0 rows</text>
<polygon fill="#ffffff" stroke="transparent" points="946.5,-350.2046 946.5,-369.2046 986.5,-369.2046 986.5,-350.2046 946.5,-350.2046"/>
<polygon fill="none" stroke="#000000" points="946.5,-350.2046 946.5,-369.2046 986.5,-369.2046 986.5,-350.2046 946.5,-350.2046"/>
<text text-anchor="start" x="977.3862" y="-356.3046" font-family="Helvetica,sans-Serif" font-size="11.00" fill="#000000"> &#160;</text>
</a>
</g>
</g>
<!-- StudentEvaluationReport&#45;&gt;AspNetUsers -->
<g id="edge32" class="edge">
<title>StudentEvaluationReport:w&#45;&gt;AspNetUsers:e</title>
<path fill="none" stroke="#000000" d="M788.919,-377.7413C696.2455,-373.9111 235.7655,-348.1012 212,-367.2046 146.7358,-419.6659 255.2353,-551.2046 171.5,-551.2046"/>
<polygon fill="#000000" stroke="#000000" points="795.504,-377.9505 803.3856,-381.8028 799.502,-378.0775 803.5,-378.2046 803.5,-378.2046 803.5,-378.2046 799.502,-378.0775 803.6144,-374.6064 795.504,-377.9505 795.504,-377.9505"/>
<ellipse fill="none" stroke="#000000" cx="792.3057" cy="-377.8488" rx="3.2" ry="3.2"/>
</g>
<!-- StudentEvaluationReport&#45;&gt;AspNetUsers -->
<g id="edge35" class="edge">
<title>StudentEvaluationReport:w&#45;&gt;AspNetUsers:e</title>
<path fill="none" stroke="#000000" d="M788.8683,-377.7815C686.2647,-373.1304 260.4671,-332.4309 212,-371.2046 147.9688,-422.4296 253.5,-551.2046 171.5,-551.2046"/>
<polygon fill="#000000" stroke="#000000" points="795.5033,-377.9733 803.3959,-381.8031 799.5017,-378.0889 803.5,-378.2046 803.5,-378.2046 803.5,-378.2046 799.5017,-378.0889 803.6041,-374.6061 795.5033,-377.9733 795.5033,-377.9733"/>
<ellipse fill="none" stroke="#000000" cx="792.3047" cy="-377.8808" rx="3.2" ry="3.2"/>
</g>
<!-- StudentEvaluationReport&#45;&gt;EvaluationPeriods -->
<g id="edge33" class="edge">
<title>StudentEvaluationReport:w&#45;&gt;EvaluationPeriods:e</title>
<path fill="none" stroke="#000000" d="M789.3439,-381.7078C718.695,-400.3648 408.6396,-487.2046 403.5,-487.2046"/>
<polygon fill="#000000" stroke="#000000" points="795.7343,-380.1264 804.3648,-381.6992 799.6171,-379.1655 803.5,-378.2046 803.5,-378.2046 803.5,-378.2046 799.6171,-379.1655 802.6352,-374.71 795.7343,-380.1264 795.7343,-380.1264"/>
<ellipse fill="none" stroke="#000000" cx="792.628" cy="-380.8951" rx="3.2" ry="3.2"/>
</g>
<!-- StudentEvaluationReport&#45;&gt;Students -->
<g id="edge34" class="edge">
<title>StudentEvaluationReport:w&#45;&gt;Students:e</title>
<path fill="none" stroke="#000000" d="M788.8138,-377.1993C731.8634,-369.0571 723.4028,-314.2046 658,-314.2046"/>
<polygon fill="#000000" stroke="#000000" points="795.5187,-377.6582 803.2541,-381.7962 799.5093,-377.9314 803.5,-378.2046 803.5,-378.2046 803.5,-378.2046 799.5093,-377.9314 803.7459,-374.613 795.5187,-377.6582 795.5187,-377.6582"/>
<ellipse fill="none" stroke="#000000" cx="792.3261" cy="-377.4397" rx="3.2" ry="3.2"/>
</g>
<!-- StudentSubjects -->
<g id="node18" class="node">
<title>StudentSubjects</title>
<g id="a_node18"><a xlink:href="../../tables/StudentSubjects.html" xlink:title="StudentSubjects" target="_top">
<polygon fill="#ffffff" stroke="transparent" points="828,-134.7046 828,-195.7046 961,-195.7046 961,-134.7046 828,-134.7046"/>
<polygon fill="#f5f5f5" stroke="transparent" points="828.5,-172.2046 828.5,-195.2046 961.5,-195.2046 961.5,-172.2046 828.5,-172.2046"/>
<polygon fill="none" stroke="#000000" points="828.5,-172.2046 828.5,-195.2046 961.5,-195.2046 961.5,-172.2046 828.5,-172.2046"/>
<text text-anchor="start" x="833.5" y="-180.8046" font-family="Helvetica,sans-Serif" font-weight="bold" font-size="11.00" fill="#000000">StudentSubjects</text>
<text text-anchor="start" x="927.0219" y="-180.3046" font-family="Helvetica,sans-Serif" font-size="11.00" fill="#000000">[table]</text>
<polygon fill="none" stroke="#000000" points="828.5,-153.2046 828.5,-172.2046 961.5,-172.2046 961.5,-153.2046 828.5,-153.2046"/>
<text text-anchor="start" x="831.5" y="-159.3046" font-family="Helvetica,sans-Serif" font-size="11.00" fill="#000000">...</text>
<polygon fill="#ffffff" stroke="transparent" points="828.5,-134.2046 828.5,-153.2046 880.5,-153.2046 880.5,-134.2046 828.5,-134.2046"/>
<polygon fill="none" stroke="#000000" points="828.5,-134.2046 828.5,-153.2046 880.5,-153.2046 880.5,-134.2046 828.5,-134.2046"/>
<text text-anchor="start" x="831.5" y="-140.3046" font-family="Helvetica,sans-Serif" font-size="11.00" fill="#000000">&lt; 4</text>
<polygon fill="#ffffff" stroke="transparent" points="880.5,-134.2046 880.5,-153.2046 933.5,-153.2046 933.5,-134.2046 880.5,-134.2046"/>
<polygon fill="none" stroke="#000000" points="880.5,-134.2046 880.5,-153.2046 933.5,-153.2046 933.5,-134.2046 880.5,-134.2046"/>
<text text-anchor="start" x="898.1105" y="-140.3046" font-family="Helvetica,sans-Serif" font-size="11.00" fill="#000000">0 rows</text>
<polygon fill="#ffffff" stroke="transparent" points="933.5,-134.2046 933.5,-153.2046 961.5,-153.2046 961.5,-134.2046 933.5,-134.2046"/>
<polygon fill="none" stroke="#000000" points="933.5,-134.2046 933.5,-153.2046 961.5,-153.2046 961.5,-134.2046 933.5,-134.2046"/>
<text text-anchor="start" x="952.3862" y="-140.3046" font-family="Helvetica,sans-Serif" font-size="11.00" fill="#000000"> &#160;</text>
</a>
</g>
</g>
<!-- StudentSubjects&#45;&gt;AspNetUsers -->
<g id="edge38" class="edge">
<title>StudentSubjects:w&#45;&gt;AspNetUsers:e</title>
<path fill="none" stroke="#000000" d="M813.7932,-160.528C783.611,-153.0023 779.5278,-122.2705 742,-112.2046 628.2359,-81.6903 298.1987,-37.9352 212,-118.2046 141.2745,-184.0651 268.1422,-551.2046 171.5,-551.2046"/>
<polygon fill="#000000" stroke="#000000" points="820.5515,-161.2984 828.0922,-165.7814 824.5257,-161.7515 828.5,-162.2046 828.5,-162.2046 828.5,-162.2046 824.5257,-161.7515 828.9078,-158.6278 820.5515,-161.2984 820.5515,-161.2984"/>
<ellipse fill="none" stroke="#000000" cx="817.3721" cy="-160.9359" rx="3.2" ry="3.2"/>
</g>
<!-- StudentSubjects&#45;&gt;AspNetUsers -->
<g id="edge41" class="edge">
<title>StudentSubjects:w&#45;&gt;AspNetUsers:e</title>
<path fill="none" stroke="#000000" d="M814.0146,-160.6601C784.1312,-153.7279 778.9677,-125.4229 742,-116.2046 513.4286,-59.2075 384.4668,38.2596 212,-122.2046 141.8939,-187.4317 267.2572,-551.2046 171.5,-551.2046"/>
<polygon fill="#000000" stroke="#000000" points="820.5451,-161.3564 828.1183,-165.7843 824.5225,-161.7805 828.5,-162.2046 828.5,-162.2046 828.5,-162.2046 824.5225,-161.7805 828.8817,-158.6249 820.5451,-161.3564 820.5451,-161.3564"/>
<ellipse fill="none" stroke="#000000" cx="817.3631" cy="-161.0171" rx="3.2" ry="3.2"/>
</g>
<!-- StudentSubjects&#45;&gt;Students -->
<g id="edge39" class="edge">
<title>StudentSubjects:w&#45;&gt;Students:e</title>
<path fill="none" stroke="#000000" d="M814.0003,-163.7825C768.944,-174.726 787.4495,-239.9546 742,-276.2046 709.9657,-301.7548 698.9758,-314.2046 658,-314.2046"/>
<polygon fill="#000000" stroke="#000000" points="820.547,-163.0701 828.8895,-165.7835 824.5235,-162.6373 828.5,-162.2046 828.5,-162.2046 828.5,-162.2046 824.5235,-162.6373 828.1105,-158.6257 820.547,-163.0701 820.547,-163.0701"/>
<ellipse fill="none" stroke="#000000" cx="817.3657" cy="-163.4163" rx="3.2" ry="3.2"/>
</g>
<!-- Subjects -->
<g id="node19" class="node">
<title>Subjects</title>
<g id="a_node19"><a xlink:href="../../tables/Subjects.html" xlink:title="Subjects" target="_top">
<polygon fill="#ffffff" stroke="transparent" points="568.5,-204.7046 568.5,-265.7046 657.5,-265.7046 657.5,-204.7046 568.5,-204.7046"/>
<polygon fill="#f5f5f5" stroke="transparent" points="569,-242.2046 569,-265.2046 658,-265.2046 658,-242.2046 569,-242.2046"/>
<polygon fill="none" stroke="#000000" points="569,-242.2046 569,-265.2046 658,-265.2046 658,-242.2046 569,-242.2046"/>
<text text-anchor="start" x="574" y="-250.8046" font-family="Helvetica,sans-Serif" font-weight="bold" font-size="11.00" fill="#000000">Subjects</text>
<text text-anchor="start" x="623.5219" y="-250.3046" font-family="Helvetica,sans-Serif" font-size="11.00" fill="#000000">[table]</text>
<polygon fill="none" stroke="#000000" points="569,-223.2046 569,-242.2046 658,-242.2046 658,-223.2046 569,-223.2046"/>
<text text-anchor="start" x="572" y="-229.3046" font-family="Helvetica,sans-Serif" font-size="11.00" fill="#000000">...</text>
<polygon fill="#ffffff" stroke="transparent" points="569,-204.2046 569,-223.2046 594,-223.2046 594,-204.2046 569,-204.2046"/>
<polygon fill="none" stroke="#000000" points="569,-204.2046 569,-223.2046 594,-223.2046 594,-204.2046 569,-204.2046"/>
<text text-anchor="start" x="572" y="-210.3046" font-family="Helvetica,sans-Serif" font-size="11.00" fill="#000000">&lt; 4</text>
<polygon fill="#ffffff" stroke="transparent" points="594,-204.2046 594,-223.2046 634,-223.2046 634,-204.2046 594,-204.2046"/>
<polygon fill="none" stroke="#000000" points="594,-204.2046 594,-223.2046 634,-223.2046 634,-204.2046 594,-204.2046"/>
<text text-anchor="start" x="598.6105" y="-210.3046" font-family="Helvetica,sans-Serif" font-size="11.00" fill="#000000">0 rows</text>
<polygon fill="#ffffff" stroke="transparent" points="634,-204.2046 634,-223.2046 658,-223.2046 658,-204.2046 634,-204.2046"/>
<polygon fill="none" stroke="#000000" points="634,-204.2046 634,-223.2046 658,-223.2046 658,-204.2046 634,-204.2046"/>
<text text-anchor="start" x="639.4053" y="-210.3046" font-family="Helvetica,sans-Serif" font-size="11.00" fill="#000000">1 &gt;</text>
</a>
</g>
</g>
<!-- StudentSubjects&#45;&gt;Subjects -->
<g id="edge40" class="edge">
<title>StudentSubjects:w&#45;&gt;Subjects:e</title>
<path fill="none" stroke="#000000" d="M813.9859,-162.9907C745.4568,-170.6811 734.7959,-232.2046 658,-232.2046"/>
<polygon fill="#000000" stroke="#000000" points="820.5117,-162.6373 828.6947,-165.7993 824.5059,-162.4209 828.5,-162.2046 828.5,-162.2046 828.5,-162.2046 824.5059,-162.4209 828.3053,-158.6099 820.5117,-162.6373 820.5117,-162.6373"/>
<ellipse fill="none" stroke="#000000" cx="817.3164" cy="-162.8104" rx="3.2" ry="3.2"/>
</g>
<!-- Subjects&#45;&gt;AspNetUsers -->
<g id="edge42" class="edge">
<title>Subjects:w&#45;&gt;AspNetUsers:e</title>
<path fill="none" stroke="#000000" d="M554.3427,-231.8656C405.2137,-224.9686 327.1508,-116.2101 212,-218.2046 156.1972,-267.6318 246.0453,-551.2046 171.5,-551.2046"/>
<polygon fill="#000000" stroke="#000000" points="561.0021,-232.0196 568.9167,-235.8036 565.0011,-232.1121 569,-232.2046 569,-232.2046 569,-232.2046 565.0011,-232.1121 569.0833,-228.6055 561.0021,-232.0196 561.0021,-232.0196"/>
<ellipse fill="none" stroke="#000000" cx="557.803" cy="-231.9456" rx="3.2" ry="3.2"/>
</g>
<!-- Subjects&#45;&gt;AspNetUsers -->
<g id="edge45" class="edge">
<title>Subjects:w&#45;&gt;AspNetUsers:e</title>
<path fill="none" stroke="#000000" d="M554.348,-231.8774C405.2716,-225.2223 327.1817,-120.3323 212,-222.2046 156.8221,-271.0066 245.163,-551.2046 171.5,-551.2046"/>
<polygon fill="#000000" stroke="#000000" points="561.002,-232.026 568.9196,-235.8037 565.001,-232.1153 569,-232.2046 569,-232.2046 569,-232.2046 565.001,-232.1153 569.0804,-228.6055 561.002,-232.026 561.002,-232.026"/>
<ellipse fill="none" stroke="#000000" cx="557.8028" cy="-231.9545" rx="3.2" ry="3.2"/>
</g>
<!-- Subjects&#45;&gt;TechnicalCareers -->
<g id="edge44" class="edge">
<title>Subjects:w&#45;&gt;TechnicalCareers:e</title>
<path fill="none" stroke="#000000" d="M554.3547,-232.5257C491.1871,-235.3737 471.5638,-256.2046 401.5,-256.2046"/>
<polygon fill="#000000" stroke="#000000" points="561.0019,-232.38 569.0789,-235.8037 565.001,-232.2923 569,-232.2046 569,-232.2046 569,-232.2046 565.001,-232.2923 568.9211,-228.6054 561.0019,-232.38 561.0019,-232.38"/>
<ellipse fill="none" stroke="#000000" cx="557.8027" cy="-232.4502" rx="3.2" ry="3.2"/>
</g>
<!-- Subjects&#45;&gt;Professors -->
<g id="edge43" class="edge">
<title>Subjects:w&#45;&gt;Professors:e</title>
<path fill="none" stroke="#000000" d="M554.4789,-232.9834C523.6805,-236.5873 512.6857,-252.4856 484,-276.2046 427.7774,-322.6927 455.4529,-405.2046 382.5,-405.2046"/>
<polygon fill="#000000" stroke="#000000" points="561.0115,-232.6331 569.1928,-235.7994 565.0057,-232.4188 569,-232.2046 569,-232.2046 569,-232.2046 565.0057,-232.4188 568.8072,-228.6098 561.0115,-232.6331 561.0115,-232.6331"/>
<ellipse fill="none" stroke="#000000" cx="557.8161" cy="-232.8045" rx="3.2" ry="3.2"/>
</g>
</g>
</svg>
