<?xml version="1.0" encoding="UTF-8" standalone="no"?>
<!DOCTYPE svg PUBLIC "-//W3C//DTD SVG 1.1//EN"
 "http://www.w3.org/Graphics/SVG/1.1/DTD/svg11.dtd">
<!-- Generated by graphviz version 2.40.1 (20161225.0304)
 -->
<!-- Title: twoDegreesRelationshipsDiagram Pages: 1 -->
<svg width="1242pt" height="1139pt"
 viewBox="0.00 0.00 1242.00 1138.69" xmlns="http://www.w3.org/2000/svg" xmlns:xlink="http://www.w3.org/1999/xlink">
<g id="graph0" class="graph" transform="scale(1 1) rotate(0) translate(4 1134.6858)">
<title>twoDegreesRelationshipsDiagram</title>
<polygon fill="#ffffff" stroke="transparent" points="-4,4 -4,-1134.6858 1238,-1134.6858 1238,4 -4,4"/>
<text text-anchor="middle" x="72.4936" y="-7.3" font-family="Helvetica,sans-Serif" font-size="11.00" fill="#000000">Generated by SchemaSpy</text>
<!-- AspNetUserClaims -->
<g id="node1" class="node">
<title>AspNetUserClaims</title>
<g id="a_node1"><a xlink:href="../../tables/AspNetUserClaims.html" xlink:title="AspNetUserClaims" target="_top">
<polygon fill="#ffffff" stroke="transparent" points="266,-1065.6858 266,-1126.6858 413,-1126.6858 413,-1065.6858 266,-1065.6858"/>
<polygon fill="#f5f5f5" stroke="transparent" points="266.5,-1103.1858 266.5,-1126.1858 413.5,-1126.1858 413.5,-1103.1858 266.5,-1103.1858"/>
<polygon fill="none" stroke="#000000" points="266.5,-1103.1858 266.5,-1126.1858 413.5,-1126.1858 413.5,-1103.1858 266.5,-1103.1858"/>
<text text-anchor="start" x="271.5" y="-1111.7858" font-family="Helvetica,sans-Serif" font-weight="bold" font-size="11.00" fill="#000000">AspNetUserClaims</text>
<text text-anchor="start" x="379.0219" y="-1111.2858" font-family="Helvetica,sans-Serif" font-size="11.00" fill="#000000">[table]</text>
<polygon fill="none" stroke="#000000" points="266.5,-1084.1858 266.5,-1103.1858 413.5,-1103.1858 413.5,-1084.1858 266.5,-1084.1858"/>
<text text-anchor="start" x="269.5" y="-1090.2858" font-family="Helvetica,sans-Serif" font-size="11.00" fill="#000000">...</text>
<polygon fill="#ffffff" stroke="transparent" points="266.5,-1065.1858 266.5,-1084.1858 325.5,-1084.1858 325.5,-1065.1858 266.5,-1065.1858"/>
<polygon fill="none" stroke="#000000" points="266.5,-1065.1858 266.5,-1084.1858 325.5,-1084.1858 325.5,-1065.1858 266.5,-1065.1858"/>
<text text-anchor="start" x="269.5" y="-1071.2858" font-family="Helvetica,sans-Serif" font-size="11.00" fill="#000000">&lt; 1</text>
<polygon fill="#ffffff" stroke="transparent" points="325.5,-1065.1858 325.5,-1084.1858 382.5,-1084.1858 382.5,-1065.1858 325.5,-1065.1858"/>
<polygon fill="none" stroke="#000000" points="325.5,-1065.1858 325.5,-1084.1858 382.5,-1084.1858 382.5,-1065.1858 325.5,-1065.1858"/>
<text text-anchor="start" x="347.1105" y="-1071.2858" font-family="Helvetica,sans-Serif" font-size="11.00" fill="#000000">0 rows</text>
<polygon fill="#ffffff" stroke="transparent" points="382.5,-1065.1858 382.5,-1084.1858 413.5,-1084.1858 413.5,-1065.1858 382.5,-1065.1858"/>
<polygon fill="none" stroke="#000000" points="382.5,-1065.1858 382.5,-1084.1858 413.5,-1084.1858 413.5,-1065.1858 382.5,-1065.1858"/>
<text text-anchor="start" x="404.3862" y="-1071.2858" font-family="Helvetica,sans-Serif" font-size="11.00" fill="#000000"> &#160;</text>
</a>
</g>
</g>
<!-- AspNetUsers -->
<g id="node2" class="node">
<title>AspNetUsers</title>
<g id="a_node2"><a xlink:href="../../tables/AspNetUsers.html" xlink:title="AspNetUsers" target="_top">
<polygon fill="#ffffff" stroke="transparent" points="8,-383.6858 8,-510.6858 171,-510.6858 171,-383.6858 8,-383.6858"/>
<polygon fill="#f5f5f5" stroke="transparent" points="8.5,-487.1858 8.5,-510.1858 171.5,-510.1858 171.5,-487.1858 8.5,-487.1858"/>
<polygon fill="none" stroke="#000000" points="8.5,-487.1858 8.5,-510.1858 171.5,-510.1858 171.5,-487.1858 8.5,-487.1858"/>
<text text-anchor="start" x="13.5" y="-495.7858" font-family="Helvetica,sans-Serif" font-weight="bold" font-size="11.00" fill="#000000">AspNetUsers</text>
<text text-anchor="start" x="136.5437" y="-495.2858" font-family="Helvetica,sans-Serif" font-size="11.00" fill="#000000">[table]</text>
<polygon fill="none" stroke="#000000" points="8.5,-465.1858 8.5,-487.1858 171.5,-487.1858 171.5,-465.1858 8.5,-465.1858"/>
<image xlink:href="../../images/primaryKeys.png" width="11px" height="12px" preserveAspectRatio="xMinYMin meet" x="13.5" y="-482.186"/>
<text text-anchor="start" x="28.5" y="-472.2858" font-family="Helvetica,sans-Serif" font-size="11.00" fill="#000000">Id</text>
<polygon fill="#ffffff" stroke="transparent" points="8.5,-443.1858 8.5,-465.1858 171.5,-465.1858 171.5,-443.1858 8.5,-443.1858"/>
<polygon fill="none" stroke="#000000" points="8.5,-443.1858 8.5,-465.1858 171.5,-465.1858 171.5,-443.1858 8.5,-443.1858"/>
<text text-anchor="start" x="28.5" y="-450.2858" font-family="Helvetica,sans-Serif" font-size="11.00" fill="#000000">NormalizedUserName</text>
<polygon fill="#ffffff" stroke="transparent" points="8.5,-421.1858 8.5,-443.1858 171.5,-443.1858 171.5,-421.1858 8.5,-421.1858"/>
<polygon fill="none" stroke="#000000" points="8.5,-421.1858 8.5,-443.1858 171.5,-443.1858 171.5,-421.1858 8.5,-421.1858"/>
<text text-anchor="start" x="28.5" y="-428.2858" font-family="Helvetica,sans-Serif" font-size="11.00" fill="#000000">NormalizedEmail</text>
<polygon fill="none" stroke="#000000" points="8.5,-402.1858 8.5,-421.1858 171.5,-421.1858 171.5,-402.1858 8.5,-402.1858"/>
<text text-anchor="start" x="11.5" y="-408.2858" font-family="Helvetica,sans-Serif" font-size="11.00" fill="#000000">...</text>
<polygon fill="#ffffff" stroke="transparent" points="8.5,-383.1858 8.5,-402.1858 63.5,-402.1858 63.5,-383.1858 8.5,-383.1858"/>
<polygon fill="none" stroke="#000000" points="8.5,-383.1858 8.5,-402.1858 63.5,-402.1858 63.5,-383.1858 8.5,-383.1858"/>
<text text-anchor="start" x="11.5" y="-389.2858" font-family="Helvetica,sans-Serif" font-size="11.00" fill="#000000"> &#160;</text>
<polygon fill="#ffffff" stroke="transparent" points="63.5,-383.1858 63.5,-402.1858 122.5,-402.1858 122.5,-383.1858 63.5,-383.1858"/>
<polygon fill="none" stroke="#000000" points="63.5,-383.1858 63.5,-402.1858 122.5,-402.1858 122.5,-383.1858 63.5,-383.1858"/>
<text text-anchor="start" x="87.1105" y="-389.2858" font-family="Helvetica,sans-Serif" font-size="11.00" fill="#000000">0 rows</text>
<polygon fill="#ffffff" stroke="transparent" points="122.5,-383.1858 122.5,-402.1858 171.5,-402.1858 171.5,-383.1858 122.5,-383.1858"/>
<polygon fill="none" stroke="#000000" points="122.5,-383.1858 122.5,-402.1858 171.5,-402.1858 171.5,-383.1858 122.5,-383.1858"/>
<text text-anchor="start" x="146.7904" y="-389.2858" font-family="Helvetica,sans-Serif" font-size="11.00" fill="#000000">29 &gt;</text>
</a>
</g>
</g>
<!-- AspNetUserClaims&#45;&gt;AspNetUsers -->
<g id="edge1" class="edge">
<title>AspNetUserClaims:w&#45;&gt;AspNetUsers:e</title>
<path fill="none" stroke="#000000" d="M252.0258,-1091.9341C233.0104,-1088.2135 223.8922,-1076.156 212,-1055.1858 180.1869,-999.0881 235.9905,-476.1858 171.5,-476.1858"/>
<polygon fill="#000000" stroke="#000000" points="258.5297,-1092.4965 266.1898,-1096.7724 262.5149,-1092.8411 266.5,-1093.1858 266.5,-1093.1858 266.5,-1093.1858 262.5149,-1092.8411 266.8102,-1089.5992 258.5297,-1092.4965 258.5297,-1092.4965"/>
<ellipse fill="none" stroke="#000000" cx="255.3416" cy="-1092.2207" rx="3.2" ry="3.2"/>
</g>
<!-- AspNetUserLogins -->
<g id="node3" class="node">
<title>AspNetUserLogins</title>
<g id="a_node3"><a xlink:href="../../tables/AspNetUserLogins.html" xlink:title="AspNetUserLogins" target="_top">
<polygon fill="#ffffff" stroke="transparent" points="220,-910.1858 220,-1044.1858 459,-1044.1858 459,-910.1858 220,-910.1858"/>
<polygon fill="#f5f5f5" stroke="transparent" points="222.5,-1019.1858 222.5,-1042.1858 457.5,-1042.1858 457.5,-1019.1858 222.5,-1019.1858"/>
<polygon fill="none" stroke="#000000" points="222.5,-1019.1858 222.5,-1042.1858 457.5,-1042.1858 457.5,-1019.1858 222.5,-1019.1858"/>
<text text-anchor="start" x="227.5" y="-1027.7858" font-family="Helvetica,sans-Serif" font-weight="bold" font-size="11.00" fill="#000000">AspNetUserLogins</text>
<text text-anchor="start" x="422.5437" y="-1027.2858" font-family="Helvetica,sans-Serif" font-size="11.00" fill="#000000">[table]</text>
<polygon fill="none" stroke="#000000" points="222.5,-997.1858 222.5,-1019.1858 367.5,-1019.1858 367.5,-997.1858 222.5,-997.1858"/>
<image xlink:href="../../images/primaryKeys.png" width="11px" height="12px" preserveAspectRatio="xMinYMin meet" x="227.5" y="-1014.19"/>
<text text-anchor="start" x="242.5" y="-1004.2858" font-family="Helvetica,sans-Serif" font-size="11.00" fill="#000000">LoginProvider</text>
<polygon fill="none" stroke="#000000" points="367.5,-997.1858 367.5,-1019.1858 457.5,-1019.1858 457.5,-997.1858 367.5,-997.1858"/>
<text text-anchor="start" x="370.0043" y="-1004.8858" font-family="Helvetica,sans-Serif" font-size="11.00" fill="#000000">text[2147483647]</text>
<polygon fill="none" stroke="#000000" points="222.5,-975.1858 222.5,-997.1858 367.5,-997.1858 367.5,-975.1858 222.5,-975.1858"/>
<image xlink:href="../../images/primaryKeys.png" width="11px" height="12px" preserveAspectRatio="xMinYMin meet" x="227.5" y="-992.186"/>
<text text-anchor="start" x="242.5" y="-982.2858" font-family="Helvetica,sans-Serif" font-size="11.00" fill="#000000">ProviderKey</text>
<polygon fill="none" stroke="#000000" points="367.5,-975.1858 367.5,-997.1858 457.5,-997.1858 457.5,-975.1858 367.5,-975.1858"/>
<text text-anchor="start" x="370.0043" y="-982.8858" font-family="Helvetica,sans-Serif" font-size="11.00" fill="#000000">text[2147483647]</text>
<polygon fill="none" stroke="#000000" points="222.5,-953.1858 222.5,-975.1858 367.5,-975.1858 367.5,-953.1858 222.5,-953.1858"/>
<text text-anchor="start" x="242.5" y="-960.2858" font-family="Helvetica,sans-Serif" font-size="11.00" fill="#000000">ProviderDisplayName</text>
<polygon fill="none" stroke="#000000" points="367.5,-953.1858 367.5,-975.1858 457.5,-975.1858 457.5,-953.1858 367.5,-953.1858"/>
<text text-anchor="start" x="370.0043" y="-960.8858" font-family="Helvetica,sans-Serif" font-size="11.00" fill="#000000">text[2147483647]</text>
<polygon fill="#ffffff" stroke="transparent" points="222.5,-931.1858 222.5,-953.1858 367.5,-953.1858 367.5,-931.1858 222.5,-931.1858"/>
<polygon fill="none" stroke="#000000" points="222.5,-931.1858 222.5,-953.1858 367.5,-953.1858 367.5,-931.1858 222.5,-931.1858"/>
<image xlink:href="../../images/foreignKeys.png" width="11px" height="12px" preserveAspectRatio="xMinYMin meet" x="227.5" y="-948.186"/>
<text text-anchor="start" x="242.5" y="-938.2858" font-family="Helvetica,sans-Serif" font-size="11.00" fill="#000000">UserId</text>
<polygon fill="none" stroke="#000000" points="367.5,-931.1858 367.5,-953.1858 457.5,-953.1858 457.5,-931.1858 367.5,-931.1858"/>
<text text-anchor="start" x="370.0043" y="-938.8858" font-family="Helvetica,sans-Serif" font-size="11.00" fill="#000000">text[2147483647]</text>
<polygon fill="#ffffff" stroke="transparent" points="222.5,-912.1858 222.5,-931.1858 286.5,-931.1858 286.5,-912.1858 222.5,-912.1858"/>
<polygon fill="none" stroke="#000000" points="222.5,-912.1858 222.5,-931.1858 286.5,-931.1858 286.5,-912.1858 222.5,-912.1858"/>
<text text-anchor="start" x="225.5" y="-918.2858" font-family="Helvetica,sans-Serif" font-size="11.00" fill="#000000">&lt; 1</text>
<polygon fill="#ffffff" stroke="transparent" points="286.5,-912.1858 286.5,-931.1858 367.5,-931.1858 367.5,-912.1858 286.5,-912.1858"/>
<polygon fill="none" stroke="#000000" points="286.5,-912.1858 286.5,-931.1858 367.5,-931.1858 367.5,-912.1858 286.5,-912.1858"/>
<text text-anchor="start" x="332.1105" y="-918.2858" font-family="Helvetica,sans-Serif" font-size="11.00" fill="#000000">0 rows</text>
<polygon fill="#ffffff" stroke="transparent" points="367.5,-912.1858 367.5,-931.1858 457.5,-931.1858 457.5,-912.1858 367.5,-912.1858"/>
<polygon fill="none" stroke="#000000" points="367.5,-912.1858 367.5,-931.1858 457.5,-931.1858 457.5,-912.1858 367.5,-912.1858"/>
<text text-anchor="start" x="438.9053" y="-918.2858" font-family="Helvetica,sans-Serif" font-size="11.00" fill="#000000">0 &gt;</text>
<polygon fill="none" stroke="#000000" stroke-width="2" points="221,-911.1858 221,-1043.1858 458,-1043.1858 458,-911.1858 221,-911.1858"/>
</a>
</g>
</g>
<!-- AspNetUserLogins&#45;&gt;AspNetUsers -->
<g id="edge2" class="edge">
<title>AspNetUserLogins:w&#45;&gt;AspNetUsers:e</title>
<path fill="none" stroke="#000000" d="M208.1245,-938.4348C134.1941,-894.3333 270.1803,-476.1858 171.5,-476.1858"/>
<polygon fill="#000000" stroke="#000000" points="214.7592,-940.1659 221.5911,-945.6692 218.6296,-941.1759 222.5,-942.1858 222.5,-942.1858 222.5,-942.1858 218.6296,-941.1759 223.4089,-938.7024 214.7592,-940.1659 214.7592,-940.1659"/>
<ellipse fill="none" stroke="#000000" cx="211.6629" cy="-939.358" rx="3.2" ry="3.2"/>
</g>
<!-- AspNetUserRoles -->
<g id="node4" class="node">
<title>AspNetUserRoles</title>
<g id="a_node4"><a xlink:href="../../tables/AspNetUserRoles.html" xlink:title="AspNetUserRoles" target="_top">
<polygon fill="#ffffff" stroke="transparent" points="269.5,-827.6858 269.5,-888.6858 409.5,-888.6858 409.5,-827.6858 269.5,-827.6858"/>
<polygon fill="#f5f5f5" stroke="transparent" points="269.5,-865.1858 269.5,-888.1858 409.5,-888.1858 409.5,-865.1858 269.5,-865.1858"/>
<polygon fill="none" stroke="#000000" points="269.5,-865.1858 269.5,-888.1858 409.5,-888.1858 409.5,-865.1858 269.5,-865.1858"/>
<text text-anchor="start" x="274.5" y="-873.7858" font-family="Helvetica,sans-Serif" font-weight="bold" font-size="11.00" fill="#000000">AspNetUserRoles</text>
<text text-anchor="start" x="375.0219" y="-873.2858" font-family="Helvetica,sans-Serif" font-size="11.00" fill="#000000">[table]</text>
<polygon fill="none" stroke="#000000" points="269.5,-846.1858 269.5,-865.1858 409.5,-865.1858 409.5,-846.1858 269.5,-846.1858"/>
<text text-anchor="start" x="272.5" y="-852.2858" font-family="Helvetica,sans-Serif" font-size="11.00" fill="#000000">...</text>
<polygon fill="#ffffff" stroke="transparent" points="269.5,-827.1858 269.5,-846.1858 324.5,-846.1858 324.5,-827.1858 269.5,-827.1858"/>
<polygon fill="none" stroke="#000000" points="269.5,-827.1858 269.5,-846.1858 324.5,-846.1858 324.5,-827.1858 269.5,-827.1858"/>
<text text-anchor="start" x="272.5" y="-833.2858" font-family="Helvetica,sans-Serif" font-size="11.00" fill="#000000">&lt; 2</text>
<polygon fill="#ffffff" stroke="transparent" points="324.5,-827.1858 324.5,-846.1858 379.5,-846.1858 379.5,-827.1858 324.5,-827.1858"/>
<polygon fill="none" stroke="#000000" points="324.5,-827.1858 324.5,-846.1858 379.5,-846.1858 379.5,-827.1858 324.5,-827.1858"/>
<text text-anchor="start" x="344.1105" y="-833.2858" font-family="Helvetica,sans-Serif" font-size="11.00" fill="#000000">0 rows</text>
<polygon fill="#ffffff" stroke="transparent" points="379.5,-827.1858 379.5,-846.1858 409.5,-846.1858 409.5,-827.1858 379.5,-827.1858"/>
<polygon fill="none" stroke="#000000" points="379.5,-827.1858 379.5,-846.1858 409.5,-846.1858 409.5,-827.1858 379.5,-827.1858"/>
<text text-anchor="start" x="400.3862" y="-833.2858" font-family="Helvetica,sans-Serif" font-size="11.00" fill="#000000"> &#160;</text>
</a>
</g>
</g>
<!-- AspNetUserRoles&#45;&gt;AspNetUsers -->
<g id="edge3" class="edge">
<title>AspNetUserRoles:w&#45;&gt;AspNetUsers:e</title>
<path fill="none" stroke="#000000" d="M255.0491,-854.0682C234.9108,-850.556 225.2507,-838.6766 212,-817.1858 171.95,-752.2299 247.8104,-476.1858 171.5,-476.1858"/>
<polygon fill="#000000" stroke="#000000" points="261.5238,-854.5689 269.2224,-858.7751 265.5119,-854.8774 269.5,-855.1858 269.5,-855.1858 269.5,-855.1858 265.5119,-854.8774 269.7776,-851.5965 261.5238,-854.5689 261.5238,-854.5689"/>
<ellipse fill="none" stroke="#000000" cx="258.3333" cy="-854.3222" rx="3.2" ry="3.2"/>
</g>
<!-- AspNetUserTokens -->
<g id="node5" class="node">
<title>AspNetUserTokens</title>
<g id="a_node5"><a xlink:href="../../tables/AspNetUserTokens.html" xlink:title="AspNetUserTokens" target="_top">
<polygon fill="#ffffff" stroke="transparent" points="265,-745.6858 265,-806.6858 414,-806.6858 414,-745.6858 265,-745.6858"/>
<polygon fill="#f5f5f5" stroke="transparent" points="265.5,-783.1858 265.5,-806.1858 414.5,-806.1858 414.5,-783.1858 265.5,-783.1858"/>
<polygon fill="none" stroke="#000000" points="265.5,-783.1858 265.5,-806.1858 414.5,-806.1858 414.5,-783.1858 265.5,-783.1858"/>
<text text-anchor="start" x="270.5" y="-791.7858" font-family="Helvetica,sans-Serif" font-weight="bold" font-size="11.00" fill="#000000">AspNetUserTokens</text>
<text text-anchor="start" x="380.0219" y="-791.2858" font-family="Helvetica,sans-Serif" font-size="11.00" fill="#000000">[table]</text>
<polygon fill="none" stroke="#000000" points="265.5,-764.1858 265.5,-783.1858 414.5,-783.1858 414.5,-764.1858 265.5,-764.1858"/>
<text text-anchor="start" x="268.5" y="-770.2858" font-family="Helvetica,sans-Serif" font-size="11.00" fill="#000000">...</text>
<polygon fill="#ffffff" stroke="transparent" points="265.5,-745.1858 265.5,-764.1858 325.5,-764.1858 325.5,-745.1858 265.5,-745.1858"/>
<polygon fill="none" stroke="#000000" points="265.5,-745.1858 265.5,-764.1858 325.5,-764.1858 325.5,-745.1858 265.5,-745.1858"/>
<text text-anchor="start" x="268.5" y="-751.2858" font-family="Helvetica,sans-Serif" font-size="11.00" fill="#000000">&lt; 1</text>
<polygon fill="#ffffff" stroke="transparent" points="325.5,-745.1858 325.5,-764.1858 382.5,-764.1858 382.5,-745.1858 325.5,-745.1858"/>
<polygon fill="none" stroke="#000000" points="325.5,-745.1858 325.5,-764.1858 382.5,-764.1858 382.5,-745.1858 325.5,-745.1858"/>
<text text-anchor="start" x="347.1105" y="-751.2858" font-family="Helvetica,sans-Serif" font-size="11.00" fill="#000000">0 rows</text>
<polygon fill="#ffffff" stroke="transparent" points="382.5,-745.1858 382.5,-764.1858 414.5,-764.1858 414.5,-745.1858 382.5,-745.1858"/>
<polygon fill="none" stroke="#000000" points="382.5,-745.1858 382.5,-764.1858 414.5,-764.1858 414.5,-745.1858 382.5,-745.1858"/>
<text text-anchor="start" x="405.3862" y="-751.2858" font-family="Helvetica,sans-Serif" font-size="11.00" fill="#000000"> &#160;</text>
</a>
</g>
</g>
<!-- AspNetUserTokens&#45;&gt;AspNetUsers -->
<g id="edge4" class="edge">
<title>AspNetUserTokens:w&#45;&gt;AspNetUsers:e</title>
<path fill="none" stroke="#000000" d="M250.9193,-771.6101C232.1021,-766.9921 224.5056,-752.4624 212,-731.1858 182.9261,-681.7205 228.8769,-476.1858 171.5,-476.1858"/>
<polygon fill="#000000" stroke="#000000" points="257.5463,-772.3262 265.1132,-776.765 261.5232,-772.756 265.5,-773.1858 265.5,-773.1858 265.5,-773.1858 261.5232,-772.756 265.8868,-769.6066 257.5463,-772.3262 257.5463,-772.3262"/>
<ellipse fill="none" stroke="#000000" cx="254.3648" cy="-771.9824" rx="3.2" ry="3.2"/>
</g>
<!-- Competencies -->
<g id="node6" class="node">
<title>Competencies</title>
<g id="a_node6"><a xlink:href="../../tables/Competencies.html" xlink:title="Competencies" target="_top">
<polygon fill="#ffffff" stroke="transparent" points="279,-623.6858 279,-684.6858 400,-684.6858 400,-623.6858 279,-623.6858"/>
<polygon fill="#f5f5f5" stroke="transparent" points="279.5,-661.1858 279.5,-684.1858 400.5,-684.1858 400.5,-661.1858 279.5,-661.1858"/>
<polygon fill="none" stroke="#000000" points="279.5,-661.1858 279.5,-684.1858 400.5,-684.1858 400.5,-661.1858 279.5,-661.1858"/>
<text text-anchor="start" x="284.5" y="-669.7858" font-family="Helvetica,sans-Serif" font-weight="bold" font-size="11.00" fill="#000000">Competencies</text>
<text text-anchor="start" x="366.0219" y="-669.2858" font-family="Helvetica,sans-Serif" font-size="11.00" fill="#000000">[table]</text>
<polygon fill="none" stroke="#000000" points="279.5,-642.1858 279.5,-661.1858 400.5,-661.1858 400.5,-642.1858 279.5,-642.1858"/>
<text text-anchor="start" x="282.5" y="-648.2858" font-family="Helvetica,sans-Serif" font-size="11.00" fill="#000000">...</text>
<polygon fill="#ffffff" stroke="transparent" points="279.5,-623.1858 279.5,-642.1858 320.5,-642.1858 320.5,-623.1858 279.5,-623.1858"/>
<polygon fill="none" stroke="#000000" points="279.5,-623.1858 279.5,-642.1858 320.5,-642.1858 320.5,-623.1858 279.5,-623.1858"/>
<text text-anchor="start" x="282.5" y="-629.2858" font-family="Helvetica,sans-Serif" font-size="11.00" fill="#000000">&lt; 2</text>
<polygon fill="#ffffff" stroke="transparent" points="320.5,-623.1858 320.5,-642.1858 368.5,-642.1858 368.5,-623.1858 320.5,-623.1858"/>
<polygon fill="none" stroke="#000000" points="320.5,-623.1858 320.5,-642.1858 368.5,-642.1858 368.5,-623.1858 320.5,-623.1858"/>
<text text-anchor="start" x="333.1105" y="-629.2858" font-family="Helvetica,sans-Serif" font-size="11.00" fill="#000000">0 rows</text>
<polygon fill="#ffffff" stroke="transparent" points="368.5,-623.1858 368.5,-642.1858 400.5,-642.1858 400.5,-623.1858 368.5,-623.1858"/>
<polygon fill="none" stroke="#000000" points="368.5,-623.1858 368.5,-642.1858 400.5,-642.1858 400.5,-623.1858 368.5,-623.1858"/>
<text text-anchor="start" x="381.9053" y="-629.2858" font-family="Helvetica,sans-Serif" font-size="11.00" fill="#000000">4 &gt;</text>
</a>
</g>
</g>
<!-- Competencies&#45;&gt;AspNetUsers -->
<g id="edge5" class="edge">
<title>Competencies:w&#45;&gt;AspNetUsers:e</title>
<path fill="none" stroke="#000000" d="M265.2812,-647.9668C240.7665,-640.727 230.3262,-627.0494 212,-603.1858 174.3647,-554.1786 233.291,-470.1858 171.5,-476.1858"/>
<polygon fill="#000000" stroke="#000000" points="271.6974,-649.4193 278.7051,-654.6969 275.5987,-650.3026 279.5,-651.1858 279.5,-651.1858 279.5,-651.1858 275.5987,-650.3026 280.2949,-647.6747 271.6974,-649.4193 271.6974,-649.4193"/>
<ellipse fill="none" stroke="#000000" cx="268.5764" cy="-648.7128" rx="3.2" ry="3.2"/>
</g>
<!-- Competencies&#45;&gt;AspNetUsers -->
<g id="edge6" class="edge">
<title>Competencies:w&#45;&gt;AspNetUsers:e</title>
<path fill="none" stroke="#000000" d="M264.9447,-652.949C240.6706,-653.6013 230.2421,-639.9399 212,-616.1858 174.3647,-567.1786 233.291,-483.1858 171.5,-476.1858"/>
<polygon fill="#000000" stroke="#000000" points="271.5581,-652.1479 279.933,-654.7597 275.529,-651.6669 279.5,-651.1858 279.5,-651.1858 279.5,-651.1858 275.529,-651.6669 279.067,-647.6119 271.5581,-652.1479 271.5581,-652.1479"/>
<ellipse fill="none" stroke="#000000" cx="268.3813" cy="-652.5328" rx="3.2" ry="3.2"/>
</g>
<!-- CompetencyLevelDescriptions -->
<g id="node7" class="node">
<title>CompetencyLevelDescriptions</title>
<g id="a_node7"><a xlink:href="../../tables/CompetencyLevelDescriptions.html" xlink:title="CompetencyLevelDescriptions" target="_top">
<polygon fill="#ffffff" stroke="transparent" points="522,-687.6858 522,-748.6858 736,-748.6858 736,-687.6858 522,-687.6858"/>
<polygon fill="#f5f5f5" stroke="transparent" points="522,-725.1858 522,-748.1858 736,-748.1858 736,-725.1858 522,-725.1858"/>
<polygon fill="none" stroke="#000000" points="522,-725.1858 522,-748.1858 736,-748.1858 736,-725.1858 522,-725.1858"/>
<text text-anchor="start" x="527" y="-733.7858" font-family="Helvetica,sans-Serif" font-weight="bold" font-size="11.00" fill="#000000">CompetencyLevelDescriptions</text>
<text text-anchor="start" x="701.5219" y="-733.2858" font-family="Helvetica,sans-Serif" font-size="11.00" fill="#000000">[table]</text>
<polygon fill="none" stroke="#000000" points="522,-706.1858 522,-725.1858 736,-725.1858 736,-706.1858 522,-706.1858"/>
<text text-anchor="start" x="525" y="-712.2858" font-family="Helvetica,sans-Serif" font-size="11.00" fill="#000000">...</text>
<polygon fill="#ffffff" stroke="transparent" points="522,-687.1858 522,-706.1858 614,-706.1858 614,-687.1858 522,-687.1858"/>
<polygon fill="none" stroke="#000000" points="522,-687.1858 522,-706.1858 614,-706.1858 614,-687.1858 522,-687.1858"/>
<text text-anchor="start" x="525" y="-693.2858" font-family="Helvetica,sans-Serif" font-size="11.00" fill="#000000">&lt; 3</text>
<polygon fill="#ffffff" stroke="transparent" points="614,-687.1858 614,-706.1858 688,-706.1858 688,-687.1858 614,-687.1858"/>
<polygon fill="none" stroke="#000000" points="614,-687.1858 614,-706.1858 688,-706.1858 688,-687.1858 614,-687.1858"/>
<text text-anchor="start" x="652.6105" y="-693.2858" font-family="Helvetica,sans-Serif" font-size="11.00" fill="#000000">0 rows</text>
<polygon fill="#ffffff" stroke="transparent" points="688,-687.1858 688,-706.1858 736,-706.1858 736,-687.1858 688,-687.1858"/>
<polygon fill="none" stroke="#000000" points="688,-687.1858 688,-706.1858 736,-706.1858 736,-687.1858 688,-687.1858"/>
<text text-anchor="start" x="726.8862" y="-693.2858" font-family="Helvetica,sans-Serif" font-size="11.00" fill="#000000"> &#160;</text>
</a>
</g>
</g>
<!-- CompetencyLevelDescriptions&#45;&gt;AspNetUsers -->
<g id="edge8" class="edge">
<title>CompetencyLevelDescriptions:w&#45;&gt;AspNetUsers:e</title>
<path fill="none" stroke="#000000" d="M507.2216,-715.4817C429.1315,-718.2188 260.2897,-738.0699 212,-695.1858 137.9882,-629.4589 270.4837,-476.1858 171.5,-476.1858"/>
<polygon fill="#000000" stroke="#000000" points="514.0016,-715.346 522.0721,-718.7851 518.0008,-715.2659 522,-715.1858 522,-715.1858 522,-715.1858 518.0008,-715.2659 521.9279,-711.5865 514.0016,-715.346 514.0016,-715.346"/>
<ellipse fill="none" stroke="#000000" cx="510.8022" cy="-715.4101" rx="3.2" ry="3.2"/>
</g>
<!-- CompetencyLevelDescriptions&#45;&gt;AspNetUsers -->
<g id="edge9" class="edge">
<title>CompetencyLevelDescriptions:w&#45;&gt;AspNetUsers:e</title>
<path fill="none" stroke="#000000" d="M507.2089,-715.4373C429.0557,-717.7544 260.1289,-734.3384 212,-691.1858 139.6028,-626.2742 268.7361,-476.1858 171.5,-476.1858"/>
<polygon fill="#000000" stroke="#000000" points="514.0012,-715.3219 522.0612,-718.7853 518.0006,-715.2538 522,-715.1858 522,-715.1858 522,-715.1858 518.0006,-715.2538 521.9388,-711.5863 514.0012,-715.3219 514.0012,-715.3219"/>
<ellipse fill="none" stroke="#000000" cx="510.8016" cy="-715.3763" rx="3.2" ry="3.2"/>
</g>
<!-- CompetencyLevelDescriptions&#45;&gt;Competencies -->
<g id="edge7" class="edge">
<title>CompetencyLevelDescriptions:w&#45;&gt;Competencies:e</title>
<path fill="none" stroke="#000000" d="M507.5514,-713.8491C460.609,-704.6585 456.2884,-651.1858 400.5,-651.1858"/>
<polygon fill="#000000" stroke="#000000" points="514.034,-714.4488 521.6683,-718.7705 518.017,-714.8173 522,-715.1858 522,-715.1858 522,-715.1858 518.017,-714.8173 522.3317,-711.6011 514.034,-714.4488 514.034,-714.4488"/>
<ellipse fill="none" stroke="#000000" cx="510.8476" cy="-714.154" rx="3.2" ry="3.2"/>
</g>
<!-- Coordinators -->
<g id="node8" class="node">
<title>Coordinators</title>
<g id="a_node8"><a xlink:href="../../tables/Coordinators.html" xlink:title="Coordinators" target="_top">
<polygon fill="#ffffff" stroke="transparent" points="572,-47.6858 572,-108.6858 686,-108.6858 686,-47.6858 572,-47.6858"/>
<polygon fill="#f5f5f5" stroke="transparent" points="572,-85.1858 572,-108.1858 686,-108.1858 686,-85.1858 572,-85.1858"/>
<polygon fill="none" stroke="#000000" points="572,-85.1858 572,-108.1858 686,-108.1858 686,-85.1858 572,-85.1858"/>
<text text-anchor="start" x="577" y="-93.7858" font-family="Helvetica,sans-Serif" font-weight="bold" font-size="11.00" fill="#000000">Coordinators</text>
<text text-anchor="start" x="651.5219" y="-93.2858" font-family="Helvetica,sans-Serif" font-size="11.00" fill="#000000">[table]</text>
<polygon fill="none" stroke="#000000" points="572,-66.1858 572,-85.1858 686,-85.1858 686,-66.1858 572,-66.1858"/>
<text text-anchor="start" x="575" y="-72.2858" font-family="Helvetica,sans-Serif" font-size="11.00" fill="#000000">...</text>
<polygon fill="#ffffff" stroke="transparent" points="572,-47.1858 572,-66.1858 614,-66.1858 614,-47.1858 572,-47.1858"/>
<polygon fill="none" stroke="#000000" points="572,-47.1858 572,-66.1858 614,-66.1858 614,-47.1858 572,-47.1858"/>
<text text-anchor="start" x="575" y="-53.2858" font-family="Helvetica,sans-Serif" font-size="11.00" fill="#000000">&lt; 2</text>
<polygon fill="#ffffff" stroke="transparent" points="614,-47.1858 614,-66.1858 663,-66.1858 663,-47.1858 614,-47.1858"/>
<polygon fill="none" stroke="#000000" points="614,-47.1858 614,-66.1858 663,-66.1858 663,-47.1858 614,-47.1858"/>
<text text-anchor="start" x="627.6105" y="-53.2858" font-family="Helvetica,sans-Serif" font-size="11.00" fill="#000000">0 rows</text>
<polygon fill="#ffffff" stroke="transparent" points="663,-47.1858 663,-66.1858 686,-66.1858 686,-47.1858 663,-47.1858"/>
<polygon fill="none" stroke="#000000" points="663,-47.1858 663,-66.1858 686,-66.1858 686,-47.1858 663,-47.1858"/>
<text text-anchor="start" x="676.8862" y="-53.2858" font-family="Helvetica,sans-Serif" font-size="11.00" fill="#000000"> &#160;</text>
</a>
</g>
</g>
<!-- Coordinators&#45;&gt;AspNetUsers -->
<g id="edge11" class="edge">
<title>Coordinators:w&#45;&gt;AspNetUsers:e</title>
<path fill="none" stroke="#000000" d="M561.3112,-75.056C407.8888,-71.3371 325.1747,10.2313 212,-98.1858 150.9946,-156.6267 255.9808,-476.1858 171.5,-476.1858"/>
<polygon fill="#000000" stroke="#000000" points="571.2487,-71.1764 571.1515,-79.1758 569.5516,-79.1563 569.6488,-71.1569 571.2487,-71.1764"/>
<polyline fill="none" stroke="#000000" points="572,-75.1858 568.0003,-75.1372 "/>
<ellipse fill="none" stroke="#000000" cx="564.8005" cy="-75.0983" rx="3.2" ry="3.2"/>
</g>
<!-- TechnicalCareers -->
<g id="node9" class="node">
<title>TechnicalCareers</title>
<g id="a_node9"><a xlink:href="../../tables/TechnicalCareers.html" xlink:title="TechnicalCareers" target="_top">
<polygon fill="#ffffff" stroke="transparent" points="270,-153.6858 270,-214.6858 409,-214.6858 409,-153.6858 270,-153.6858"/>
<polygon fill="#f5f5f5" stroke="transparent" points="270.5,-191.1858 270.5,-214.1858 409.5,-214.1858 409.5,-191.1858 270.5,-191.1858"/>
<polygon fill="none" stroke="#000000" points="270.5,-191.1858 270.5,-214.1858 409.5,-214.1858 409.5,-191.1858 270.5,-191.1858"/>
<text text-anchor="start" x="275.5" y="-199.7858" font-family="Helvetica,sans-Serif" font-weight="bold" font-size="11.00" fill="#000000">TechnicalCareers</text>
<text text-anchor="start" x="375.0219" y="-199.2858" font-family="Helvetica,sans-Serif" font-size="11.00" fill="#000000">[table]</text>
<polygon fill="none" stroke="#000000" points="270.5,-172.1858 270.5,-191.1858 409.5,-191.1858 409.5,-172.1858 270.5,-172.1858"/>
<text text-anchor="start" x="273.5" y="-178.2858" font-family="Helvetica,sans-Serif" font-size="11.00" fill="#000000">...</text>
<polygon fill="#ffffff" stroke="transparent" points="270.5,-153.1858 270.5,-172.1858 320.5,-172.1858 320.5,-153.1858 270.5,-153.1858"/>
<polygon fill="none" stroke="#000000" points="270.5,-153.1858 270.5,-172.1858 320.5,-172.1858 320.5,-153.1858 270.5,-153.1858"/>
<text text-anchor="start" x="273.5" y="-159.2858" font-family="Helvetica,sans-Serif" font-size="11.00" fill="#000000">&lt; 2</text>
<polygon fill="#ffffff" stroke="transparent" points="320.5,-153.1858 320.5,-172.1858 373.5,-172.1858 373.5,-153.1858 320.5,-153.1858"/>
<polygon fill="none" stroke="#000000" points="320.5,-153.1858 320.5,-172.1858 373.5,-172.1858 373.5,-153.1858 320.5,-153.1858"/>
<text text-anchor="start" x="338.1105" y="-159.2858" font-family="Helvetica,sans-Serif" font-size="11.00" fill="#000000">0 rows</text>
<polygon fill="#ffffff" stroke="transparent" points="373.5,-153.1858 373.5,-172.1858 409.5,-172.1858 409.5,-153.1858 373.5,-153.1858"/>
<polygon fill="none" stroke="#000000" points="373.5,-153.1858 373.5,-172.1858 409.5,-172.1858 409.5,-153.1858 373.5,-153.1858"/>
<text text-anchor="start" x="390.9053" y="-159.2858" font-family="Helvetica,sans-Serif" font-size="11.00" fill="#000000">6 &gt;</text>
</a>
</g>
</g>
<!-- Coordinators&#45;&gt;TechnicalCareers -->
<g id="edge10" class="edge">
<title>Coordinators:w&#45;&gt;TechnicalCareers:e</title>
<path fill="none" stroke="#000000" d="M557.3524,-76.3045C486.6239,-87.6332 490.5085,-181.1858 409.5,-181.1858"/>
<polygon fill="#000000" stroke="#000000" points="564.0232,-75.7951 572.2742,-78.7753 568.0116,-75.4904 572,-75.1858 572,-75.1858 572,-75.1858 568.0116,-75.4904 571.7258,-71.5963 564.0232,-75.7951 564.0232,-75.7951"/>
<ellipse fill="none" stroke="#000000" cx="560.8325" cy="-76.0388" rx="3.2" ry="3.2"/>
</g>
<!-- TechnicalCareers&#45;&gt;AspNetUsers -->
<g id="edge46" class="edge">
<title>TechnicalCareers:w&#45;&gt;AspNetUsers:e</title>
<path fill="none" stroke="#000000" d="M255.8597,-180.1761C233.986,-181.6524 226.0449,-198.8311 212,-223.1858 184.2133,-271.3697 227.1218,-470.1858 171.5,-476.1858"/>
<polygon fill="#000000" stroke="#000000" points="262.519,-180.6353 270.2523,-184.7773 266.5095,-180.9106 270.5,-181.1858 270.5,-181.1858 270.5,-181.1858 266.5095,-180.9106 270.7477,-177.5943 262.519,-180.6353 262.519,-180.6353"/>
<ellipse fill="none" stroke="#000000" cx="259.3265" cy="-180.4151" rx="3.2" ry="3.2"/>
</g>
<!-- TechnicalCareers&#45;&gt;AspNetUsers -->
<g id="edge47" class="edge">
<title>TechnicalCareers:w&#45;&gt;AspNetUsers:e</title>
<path fill="none" stroke="#000000" d="M256.4766,-185.33C234.1339,-194.332 226.1762,-211.6035 212,-236.1858 184.2133,-284.3697 227.1218,-483.1858 171.5,-476.1858"/>
<polygon fill="#000000" stroke="#000000" points="262.828,-183.4531 271.5203,-184.6382 266.664,-182.3194 270.5,-181.1858 270.5,-181.1858 270.5,-181.1858 266.664,-182.3194 269.4797,-177.7334 262.828,-183.4531 262.828,-183.4531"/>
<ellipse fill="none" stroke="#000000" cx="259.7592" cy="-184.36" rx="3.2" ry="3.2"/>
</g>
<!-- EvaluationPeriods -->
<g id="node10" class="node">
<title>EvaluationPeriods</title>
<g id="a_node10"><a xlink:href="../../tables/EvaluationPeriods.html" xlink:title="EvaluationPeriods" target="_top">
<polygon fill="#ffffff" stroke="transparent" points="268,-384.6858 268,-445.6858 411,-445.6858 411,-384.6858 268,-384.6858"/>
<polygon fill="#f5f5f5" stroke="transparent" points="268.5,-422.1858 268.5,-445.1858 411.5,-445.1858 411.5,-422.1858 268.5,-422.1858"/>
<polygon fill="none" stroke="#000000" points="268.5,-422.1858 268.5,-445.1858 411.5,-445.1858 411.5,-422.1858 268.5,-422.1858"/>
<text text-anchor="start" x="273.5" y="-430.7858" font-family="Helvetica,sans-Serif" font-weight="bold" font-size="11.00" fill="#000000">EvaluationPeriods</text>
<text text-anchor="start" x="377.0219" y="-430.2858" font-family="Helvetica,sans-Serif" font-size="11.00" fill="#000000">[table]</text>
<polygon fill="none" stroke="#000000" points="268.5,-403.1858 268.5,-422.1858 411.5,-422.1858 411.5,-403.1858 268.5,-403.1858"/>
<text text-anchor="start" x="271.5" y="-409.2858" font-family="Helvetica,sans-Serif" font-size="11.00" fill="#000000">...</text>
<polygon fill="#ffffff" stroke="transparent" points="268.5,-384.1858 268.5,-403.1858 320.5,-403.1858 320.5,-384.1858 268.5,-384.1858"/>
<polygon fill="none" stroke="#000000" points="268.5,-384.1858 268.5,-403.1858 320.5,-403.1858 320.5,-384.1858 268.5,-384.1858"/>
<text text-anchor="start" x="271.5" y="-390.2858" font-family="Helvetica,sans-Serif" font-size="11.00" fill="#000000">&lt; 2</text>
<polygon fill="#ffffff" stroke="transparent" points="320.5,-384.1858 320.5,-403.1858 374.5,-403.1858 374.5,-384.1858 320.5,-384.1858"/>
<polygon fill="none" stroke="#000000" points="320.5,-384.1858 320.5,-403.1858 374.5,-403.1858 374.5,-384.1858 320.5,-384.1858"/>
<text text-anchor="start" x="339.1105" y="-390.2858" font-family="Helvetica,sans-Serif" font-size="11.00" fill="#000000">0 rows</text>
<polygon fill="#ffffff" stroke="transparent" points="374.5,-384.1858 374.5,-403.1858 411.5,-403.1858 411.5,-384.1858 374.5,-384.1858"/>
<polygon fill="none" stroke="#000000" points="374.5,-384.1858 374.5,-403.1858 411.5,-403.1858 411.5,-384.1858 374.5,-384.1858"/>
<text text-anchor="start" x="392.9053" y="-390.2858" font-family="Helvetica,sans-Serif" font-size="11.00" fill="#000000">3 &gt;</text>
</a>
</g>
</g>
<!-- EvaluationPeriods&#45;&gt;AspNetUsers -->
<g id="edge12" class="edge">
<title>EvaluationPeriods:w&#45;&gt;AspNetUsers:e</title>
<path fill="none" stroke="#000000" d="M253.9556,-412.4732C217.5347,-419.0406 217.7019,-470.8186 171.5,-476.1858"/>
<polygon fill="#000000" stroke="#000000" points="260.5016,-412.3439 268.5711,-415.7851 264.5008,-412.2648 268.5,-412.1858 268.5,-412.1858 268.5,-412.1858 264.5008,-412.2648 268.4289,-408.5865 260.5016,-412.3439 260.5016,-412.3439"/>
<ellipse fill="none" stroke="#000000" cx="257.3022" cy="-412.4071" rx="3.2" ry="3.2"/>
</g>
<!-- EvaluationPeriods&#45;&gt;AspNetUsers -->
<g id="edge13" class="edge">
<title>EvaluationPeriods:w&#45;&gt;AspNetUsers:e</title>
<path fill="none" stroke="#000000" d="M254.4349,-415.9484C217.5323,-431.4534 217.9037,-482.4749 171.5,-476.1858"/>
<polygon fill="#000000" stroke="#000000" points="260.7717,-414.2532 269.4303,-415.6635 264.6359,-413.2195 268.5,-412.1858 268.5,-412.1858 268.5,-412.1858 264.6359,-413.2195 267.5697,-408.7081 260.7717,-414.2532 260.7717,-414.2532"/>
<ellipse fill="none" stroke="#000000" cx="257.6804" cy="-415.0802" rx="3.2" ry="3.2"/>
</g>
<!-- FormQuestions -->
<g id="node11" class="node">
<title>FormQuestions</title>
<g id="a_node11"><a xlink:href="../../tables/FormQuestions.html" xlink:title="FormQuestions" target="_top">
<polygon fill="#ffffff" stroke="transparent" points="565.5,-584.6858 565.5,-645.6858 692.5,-645.6858 692.5,-584.6858 565.5,-584.6858"/>
<polygon fill="#f5f5f5" stroke="transparent" points="566,-622.1858 566,-645.1858 693,-645.1858 693,-622.1858 566,-622.1858"/>
<polygon fill="none" stroke="#000000" points="566,-622.1858 566,-645.1858 693,-645.1858 693,-622.1858 566,-622.1858"/>
<text text-anchor="start" x="571" y="-630.7858" font-family="Helvetica,sans-Serif" font-weight="bold" font-size="11.00" fill="#000000">FormQuestions</text>
<text text-anchor="start" x="658.5219" y="-630.2858" font-family="Helvetica,sans-Serif" font-size="11.00" fill="#000000">[table]</text>
<polygon fill="none" stroke="#000000" points="566,-603.1858 566,-622.1858 693,-622.1858 693,-603.1858 566,-603.1858"/>
<text text-anchor="start" x="569" y="-609.2858" font-family="Helvetica,sans-Serif" font-size="11.00" fill="#000000">...</text>
<polygon fill="#ffffff" stroke="transparent" points="566,-584.1858 566,-603.1858 610,-603.1858 610,-584.1858 566,-584.1858"/>
<polygon fill="none" stroke="#000000" points="566,-584.1858 566,-603.1858 610,-603.1858 610,-584.1858 566,-584.1858"/>
<text text-anchor="start" x="569" y="-590.2858" font-family="Helvetica,sans-Serif" font-size="11.00" fill="#000000">&lt; 3</text>
<polygon fill="#ffffff" stroke="transparent" points="610,-584.1858 610,-603.1858 660,-603.1858 660,-584.1858 610,-584.1858"/>
<polygon fill="none" stroke="#000000" points="610,-584.1858 610,-603.1858 660,-603.1858 660,-584.1858 610,-584.1858"/>
<text text-anchor="start" x="624.6105" y="-590.2858" font-family="Helvetica,sans-Serif" font-size="11.00" fill="#000000">0 rows</text>
<polygon fill="#ffffff" stroke="transparent" points="660,-584.1858 660,-603.1858 693,-603.1858 693,-584.1858 660,-584.1858"/>
<polygon fill="none" stroke="#000000" points="660,-584.1858 660,-603.1858 693,-603.1858 693,-584.1858 660,-584.1858"/>
<text text-anchor="start" x="674.4053" y="-590.2858" font-family="Helvetica,sans-Serif" font-size="11.00" fill="#000000">1 &gt;</text>
</a>
</g>
</g>
<!-- FormQuestions&#45;&gt;AspNetUsers -->
<g id="edge15" class="edge">
<title>FormQuestions:w&#45;&gt;AspNetUsers:e</title>
<path fill="none" stroke="#000000" d="M551.5917,-612.2257C463.717,-612.6207 271.9575,-614.9234 212,-570.1858 175.5405,-542.9813 216.9905,-476.1858 171.5,-476.1858"/>
<polygon fill="#000000" stroke="#000000" points="558,-612.208 566.01,-615.7858 562,-612.1969 566,-612.1858 566,-612.1858 566,-612.1858 562,-612.1969 565.99,-608.5858 558,-612.208 558,-612.208"/>
<ellipse fill="none" stroke="#000000" cx="554.8" cy="-612.2169" rx="3.2" ry="3.2"/>
</g>
<!-- FormQuestions&#45;&gt;AspNetUsers -->
<g id="edge16" class="edge">
<title>FormQuestions:w&#45;&gt;AspNetUsers:e</title>
<path fill="none" stroke="#000000" d="M551.5772,-612.1891C463.6407,-612.1783 272.1503,-610.8378 212,-566.1858 176.7802,-540.0407 215.3634,-476.1858 171.5,-476.1858"/>
<polygon fill="#000000" stroke="#000000" points="558,-612.1877 566.0009,-615.7858 562,-612.1868 566,-612.1858 566,-612.1858 566,-612.1858 562,-612.1868 565.9991,-608.5858 558,-612.1877 558,-612.1877"/>
<ellipse fill="none" stroke="#000000" cx="554.8" cy="-612.1885" rx="3.2" ry="3.2"/>
</g>
<!-- FormQuestions&#45;&gt;Competencies -->
<g id="edge14" class="edge">
<title>FormQuestions:w&#45;&gt;Competencies:e</title>
<path fill="none" stroke="#000000" d="M551.3212,-612.7076C488.1805,-617.3356 470.9043,-651.1858 400.5,-651.1858"/>
<polygon fill="#000000" stroke="#000000" points="558.0051,-612.4701 566.1279,-615.7835 562.0025,-612.3279 566,-612.1858 566,-612.1858 566,-612.1858 562.0025,-612.3279 565.8721,-608.5881 558.0051,-612.4701 558.0051,-612.4701"/>
<ellipse fill="none" stroke="#000000" cx="554.8071" cy="-612.5838" rx="3.2" ry="3.2"/>
</g>
<!-- ProfessorCompetencyAssignments -->
<g id="node12" class="node">
<title>ProfessorCompetencyAssignments</title>
<g id="a_node12"><a xlink:href="../../tables/ProfessorCompetencyAssignments.html" xlink:title="ProfessorCompetencyAssignments" target="_top">
<polygon fill="#ffffff" stroke="transparent" points="508,-423.6858 508,-484.6858 750,-484.6858 750,-423.6858 508,-423.6858"/>
<polygon fill="#f5f5f5" stroke="transparent" points="508,-461.1858 508,-484.1858 750,-484.1858 750,-461.1858 508,-461.1858"/>
<polygon fill="none" stroke="#000000" points="508,-461.1858 508,-484.1858 750,-484.1858 750,-461.1858 508,-461.1858"/>
<text text-anchor="start" x="513" y="-469.7858" font-family="Helvetica,sans-Serif" font-weight="bold" font-size="11.00" fill="#000000">ProfessorCompetencyAssignments</text>
<text text-anchor="start" x="715.5219" y="-469.2858" font-family="Helvetica,sans-Serif" font-size="11.00" fill="#000000">[table]</text>
<polygon fill="none" stroke="#000000" points="508,-442.1858 508,-461.1858 750,-461.1858 750,-442.1858 508,-442.1858"/>
<text text-anchor="start" x="511" y="-448.2858" font-family="Helvetica,sans-Serif" font-size="11.00" fill="#000000">...</text>
<polygon fill="#ffffff" stroke="transparent" points="508,-423.1858 508,-442.1858 610,-442.1858 610,-423.1858 508,-423.1858"/>
<polygon fill="none" stroke="#000000" points="508,-423.1858 508,-442.1858 610,-442.1858 610,-423.1858 508,-423.1858"/>
<text text-anchor="start" x="511" y="-429.2858" font-family="Helvetica,sans-Serif" font-size="11.00" fill="#000000">&lt; 6</text>
<polygon fill="#ffffff" stroke="transparent" points="610,-423.1858 610,-442.1858 688,-442.1858 688,-423.1858 610,-423.1858"/>
<polygon fill="none" stroke="#000000" points="610,-423.1858 610,-442.1858 688,-442.1858 688,-423.1858 610,-423.1858"/>
<text text-anchor="start" x="652.6105" y="-429.2858" font-family="Helvetica,sans-Serif" font-size="11.00" fill="#000000">0 rows</text>
<polygon fill="#ffffff" stroke="transparent" points="688,-423.1858 688,-442.1858 750,-442.1858 750,-423.1858 688,-423.1858"/>
<polygon fill="none" stroke="#000000" points="688,-423.1858 688,-442.1858 750,-442.1858 750,-423.1858 688,-423.1858"/>
<text text-anchor="start" x="731.4053" y="-429.2858" font-family="Helvetica,sans-Serif" font-size="11.00" fill="#000000">1 &gt;</text>
</a>
</g>
</g>
<!-- ProfessorCompetencyAssignments&#45;&gt;AspNetUsers -->
<g id="edge18" class="edge">
<title>ProfessorCompetencyAssignments:w&#45;&gt;AspNetUsers:e</title>
<path fill="none" stroke="#000000" d="M493.4627,-452.0717C485.2793,-453.1653 479.2788,-455.0224 467,-456.1858 335.9531,-468.6022 303.1338,-476.1858 171.5,-476.1858"/>
<polygon fill="#000000" stroke="#000000" points="500.0148,-451.6725 508.219,-454.7791 504.0074,-451.4291 508,-451.1858 508,-451.1858 508,-451.1858 504.0074,-451.4291 507.781,-447.5925 500.0148,-451.6725 500.0148,-451.6725"/>
<ellipse fill="none" stroke="#000000" cx="496.8207" cy="-451.8672" rx="3.2" ry="3.2"/>
</g>
<!-- ProfessorCompetencyAssignments&#45;&gt;AspNetUsers -->
<g id="edge22" class="edge">
<title>ProfessorCompetencyAssignments:w&#45;&gt;AspNetUsers:e</title>
<path fill="none" stroke="#000000" d="M493.4592,-451.4414C411.1884,-454.0756 242.0171,-476.1858 171.5,-476.1858"/>
<polygon fill="#000000" stroke="#000000" points="500.0012,-451.3264 508.0633,-454.7852 504.0006,-451.2561 508,-451.1858 508,-451.1858 508,-451.1858 504.0006,-451.2561 507.9367,-447.5864 500.0012,-451.3264 500.0012,-451.3264"/>
<ellipse fill="none" stroke="#000000" cx="496.8017" cy="-451.3827" rx="3.2" ry="3.2"/>
</g>
<!-- ProfessorCompetencyAssignments&#45;&gt;Competencies -->
<g id="edge17" class="edge">
<title>ProfessorCompetencyAssignments:w&#45;&gt;Competencies:e</title>
<path fill="none" stroke="#000000" d="M494.391,-456.5353C455.8378,-488.341 446.0303,-651.1858 400.5,-651.1858"/>
<polygon fill="#000000" stroke="#000000" points="500.5546,-454.1125 509.317,-454.5362 504.2773,-452.6492 508,-451.1858 508,-451.1858 508,-451.1858 504.2773,-452.6492 506.683,-447.8354 500.5546,-454.1125 500.5546,-454.1125"/>
<ellipse fill="none" stroke="#000000" cx="497.5764" cy="-455.2832" rx="3.2" ry="3.2"/>
</g>
<!-- ProfessorCompetencyAssignments&#45;&gt;TechnicalCareers -->
<g id="edge21" class="edge">
<title>ProfessorCompetencyAssignments:w&#45;&gt;TechnicalCareers:e</title>
<path fill="none" stroke="#000000" d="M493.5088,-449.6549C443.3756,-437.4794 491.0754,-355.16 467,-292.1858 447.1597,-240.2895 465.0596,-181.1858 409.5,-181.1858"/>
<polygon fill="#000000" stroke="#000000" points="500.0443,-450.3453 507.6218,-454.7659 504.0221,-450.7655 508,-451.1858 508,-451.1858 508,-451.1858 504.0221,-450.7655 508.3782,-447.6057 500.0443,-450.3453 500.0443,-450.3453"/>
<ellipse fill="none" stroke="#000000" cx="496.862" cy="-450.0091" rx="3.2" ry="3.2"/>
</g>
<!-- ProfessorCompetencyAssignments&#45;&gt;EvaluationPeriods -->
<g id="edge19" class="edge">
<title>ProfessorCompetencyAssignments:w&#45;&gt;EvaluationPeriods:e</title>
<path fill="none" stroke="#000000" d="M493.3427,-449.7046C460.2271,-442.5808 452.3381,-412.1858 411.5,-412.1858"/>
<polygon fill="#000000" stroke="#000000" points="500.0405,-450.3814 507.638,-454.7676 504.0203,-450.7836 508,-451.1858 508,-451.1858 508,-451.1858 504.0203,-450.7836 508.362,-447.604 500.0405,-450.3814 500.0405,-450.3814"/>
<ellipse fill="none" stroke="#000000" cx="496.8568" cy="-450.0596" rx="3.2" ry="3.2"/>
</g>
<!-- Professors -->
<g id="node13" class="node">
<title>Professors</title>
<g id="a_node13"><a xlink:href="../../tables/Professors.html" xlink:title="Professors" target="_top">
<polygon fill="#ffffff" stroke="transparent" points="289,-302.6858 289,-363.6858 390,-363.6858 390,-302.6858 289,-302.6858"/>
<polygon fill="#f5f5f5" stroke="transparent" points="289.5,-340.1858 289.5,-363.1858 390.5,-363.1858 390.5,-340.1858 289.5,-340.1858"/>
<polygon fill="none" stroke="#000000" points="289.5,-340.1858 289.5,-363.1858 390.5,-363.1858 390.5,-340.1858 289.5,-340.1858"/>
<text text-anchor="start" x="294.5" y="-348.7858" font-family="Helvetica,sans-Serif" font-weight="bold" font-size="11.00" fill="#000000">Professors</text>
<text text-anchor="start" x="356.0219" y="-348.2858" font-family="Helvetica,sans-Serif" font-size="11.00" fill="#000000">[table]</text>
<polygon fill="none" stroke="#000000" points="289.5,-321.1858 289.5,-340.1858 390.5,-340.1858 390.5,-321.1858 289.5,-321.1858"/>
<text text-anchor="start" x="292.5" y="-327.2858" font-family="Helvetica,sans-Serif" font-size="11.00" fill="#000000">...</text>
<polygon fill="#ffffff" stroke="transparent" points="289.5,-302.1858 289.5,-321.1858 320.5,-321.1858 320.5,-302.1858 289.5,-302.1858"/>
<polygon fill="none" stroke="#000000" points="289.5,-302.1858 289.5,-321.1858 320.5,-321.1858 320.5,-302.1858 289.5,-302.1858"/>
<text text-anchor="start" x="292.5" y="-308.2858" font-family="Helvetica,sans-Serif" font-size="11.00" fill="#000000">&lt; 1</text>
<polygon fill="#ffffff" stroke="transparent" points="320.5,-302.1858 320.5,-321.1858 363.5,-321.1858 363.5,-302.1858 320.5,-302.1858"/>
<polygon fill="none" stroke="#000000" points="320.5,-302.1858 320.5,-321.1858 363.5,-321.1858 363.5,-302.1858 320.5,-302.1858"/>
<text text-anchor="start" x="328.1105" y="-308.2858" font-family="Helvetica,sans-Serif" font-size="11.00" fill="#000000">0 rows</text>
<polygon fill="#ffffff" stroke="transparent" points="363.5,-302.1858 363.5,-321.1858 390.5,-321.1858 390.5,-302.1858 363.5,-302.1858"/>
<polygon fill="none" stroke="#000000" points="363.5,-302.1858 363.5,-321.1858 390.5,-321.1858 390.5,-302.1858 363.5,-302.1858"/>
<text text-anchor="start" x="371.9053" y="-308.2858" font-family="Helvetica,sans-Serif" font-size="11.00" fill="#000000">2 &gt;</text>
</a>
</g>
</g>
<!-- ProfessorCompetencyAssignments&#45;&gt;Professors -->
<g id="edge20" class="edge">
<title>ProfessorCompetencyAssignments:w&#45;&gt;Professors:e</title>
<path fill="none" stroke="#000000" d="M493.5366,-447.5287C475.9534,-435.6344 489.5401,-397.4747 467,-374.1858 439.7221,-346.0018 429.7227,-330.1858 390.5,-330.1858"/>
<polygon fill="#000000" stroke="#000000" points="500.2441,-449.2247 507.1175,-454.676 504.122,-450.2052 508,-451.1858 508,-451.1858 508,-451.1858 504.122,-450.2052 508.8825,-447.6956 500.2441,-449.2247 500.2441,-449.2247"/>
<ellipse fill="none" stroke="#000000" cx="497.1417" cy="-448.4402" rx="3.2" ry="3.2"/>
</g>
<!-- Professors&#45;&gt;AspNetUsers -->
<g id="edge23" class="edge">
<title>Professors:w&#45;&gt;AspNetUsers:e</title>
<path fill="none" stroke="#000000" d="M279.0565,-330.5595C247.5385,-332.9723 235.5661,-347.1098 212,-374.1858 179.9773,-410.9779 220.2761,-476.1858 171.5,-476.1858"/>
<polygon fill="#000000" stroke="#000000" points="288.5574,-326.217 288.8436,-334.2119 287.2446,-334.2691 286.9584,-326.2742 288.5574,-326.217"/>
<polyline fill="none" stroke="#000000" points="289.5,-330.1858 285.5026,-330.3289 "/>
<ellipse fill="none" stroke="#000000" cx="282.3046" cy="-330.4434" rx="3.2" ry="3.2"/>
</g>
<!-- QuestionResponses -->
<g id="node14" class="node">
<title>QuestionResponses</title>
<g id="a_node14"><a xlink:href="../../tables/QuestionResponses.html" xlink:title="QuestionResponses" target="_top">
<polygon fill="#ffffff" stroke="transparent" points="1071,-526.6858 1071,-587.6858 1226,-587.6858 1226,-526.6858 1071,-526.6858"/>
<polygon fill="#f5f5f5" stroke="transparent" points="1071.5,-564.1858 1071.5,-587.1858 1226.5,-587.1858 1226.5,-564.1858 1071.5,-564.1858"/>
<polygon fill="none" stroke="#000000" points="1071.5,-564.1858 1071.5,-587.1858 1226.5,-587.1858 1226.5,-564.1858 1071.5,-564.1858"/>
<text text-anchor="start" x="1076.5" y="-572.7858" font-family="Helvetica,sans-Serif" font-weight="bold" font-size="11.00" fill="#000000">QuestionResponses</text>
<text text-anchor="start" x="1192.0219" y="-572.2858" font-family="Helvetica,sans-Serif" font-size="11.00" fill="#000000">[table]</text>
<polygon fill="none" stroke="#000000" points="1071.5,-545.1858 1071.5,-564.1858 1226.5,-564.1858 1226.5,-545.1858 1071.5,-545.1858"/>
<text text-anchor="start" x="1074.5" y="-551.2858" font-family="Helvetica,sans-Serif" font-size="11.00" fill="#000000">...</text>
<polygon fill="#ffffff" stroke="transparent" points="1071.5,-526.1858 1071.5,-545.1858 1134.5,-545.1858 1134.5,-526.1858 1071.5,-526.1858"/>
<polygon fill="none" stroke="#000000" points="1071.5,-526.1858 1071.5,-545.1858 1134.5,-545.1858 1134.5,-526.1858 1071.5,-526.1858"/>
<text text-anchor="start" x="1074.5" y="-532.2858" font-family="Helvetica,sans-Serif" font-size="11.00" fill="#000000">&lt; 4</text>
<polygon fill="#ffffff" stroke="transparent" points="1134.5,-526.1858 1134.5,-545.1858 1193.5,-545.1858 1193.5,-526.1858 1134.5,-526.1858"/>
<polygon fill="none" stroke="#000000" points="1134.5,-526.1858 1134.5,-545.1858 1193.5,-545.1858 1193.5,-526.1858 1134.5,-526.1858"/>
<text text-anchor="start" x="1158.1105" y="-532.2858" font-family="Helvetica,sans-Serif" font-size="11.00" fill="#000000">0 rows</text>
<polygon fill="#ffffff" stroke="transparent" points="1193.5,-526.1858 1193.5,-545.1858 1226.5,-545.1858 1226.5,-526.1858 1193.5,-526.1858"/>
<polygon fill="none" stroke="#000000" points="1193.5,-526.1858 1193.5,-545.1858 1226.5,-545.1858 1226.5,-526.1858 1193.5,-526.1858"/>
<text text-anchor="start" x="1217.3862" y="-532.2858" font-family="Helvetica,sans-Serif" font-size="11.00" fill="#000000"> &#160;</text>
</a>
</g>
</g>
<!-- QuestionResponses&#45;&gt;AspNetUsers -->
<g id="edge24" class="edge">
<title>QuestionResponses:w&#45;&gt;AspNetUsers:e</title>
<path fill="none" stroke="#000000" d="M1057.0523,-554.2117C685.8858,-555.5439 574.1203,-607.3234 212,-499.1858 192.1654,-493.2627 192.2001,-476.1858 171.5,-476.1858"/>
<polygon fill="#000000" stroke="#000000" points="1063.5,-554.2002 1071.5065,-557.7858 1067.5,-554.193 1071.5,-554.1858 1071.5,-554.1858 1071.5,-554.1858 1067.5,-554.193 1071.4935,-550.5858 1063.5,-554.2002 1063.5,-554.2002"/>
<ellipse fill="none" stroke="#000000" cx="1060.3" cy="-554.206" rx="3.2" ry="3.2"/>
</g>
<!-- QuestionResponses&#45;&gt;AspNetUsers -->
<g id="edge27" class="edge">
<title>QuestionResponses:w&#45;&gt;AspNetUsers:e</title>
<path fill="none" stroke="#000000" d="M1057.0497,-554.2034C685.8683,-555.1054 577.9471,-590.03 212,-495.1858 192.7535,-490.1976 191.3824,-476.1858 171.5,-476.1858"/>
<polygon fill="#000000" stroke="#000000" points="1063.5,-554.1956 1071.5044,-557.7858 1067.5,-554.1907 1071.5,-554.1858 1071.5,-554.1858 1071.5,-554.1858 1067.5,-554.1907 1071.4956,-550.5858 1063.5,-554.1956 1063.5,-554.1956"/>
<ellipse fill="none" stroke="#000000" cx="1060.3" cy="-554.1995" rx="3.2" ry="3.2"/>
</g>
<!-- QuestionResponses&#45;&gt;FormQuestions -->
<g id="edge25" class="edge">
<title>QuestionResponses:w&#45;&gt;FormQuestions:e</title>
<path fill="none" stroke="#000000" d="M1057.2669,-556.8046C1048.6302,-560.4109 1043.331,-566.8388 1030,-570.1858 883.607,-606.9407 843.9365,-612.1858 693,-612.1858"/>
<polygon fill="#000000" stroke="#000000" points="1063.6321,-555.6335 1072.1515,-557.7264 1067.566,-554.9096 1071.5,-554.1858 1071.5,-554.1858 1071.5,-554.1858 1067.566,-554.9096 1070.8485,-550.6452 1063.6321,-555.6335 1063.6321,-555.6335"/>
<ellipse fill="none" stroke="#000000" cx="1060.4849" cy="-556.2125" rx="3.2" ry="3.2"/>
</g>
<!-- StudentCompetencyEvaluations -->
<g id="node15" class="node">
<title>StudentCompetencyEvaluations</title>
<g id="a_node15"><a xlink:href="../../tables/StudentCompetencyEvaluations.html" xlink:title="StudentCompetencyEvaluations" target="_top">
<polygon fill="#ffffff" stroke="transparent" points="799,-462.6858 799,-523.6858 1022,-523.6858 1022,-462.6858 799,-462.6858"/>
<polygon fill="#f5f5f5" stroke="transparent" points="799.5,-500.1858 799.5,-523.1858 1022.5,-523.1858 1022.5,-500.1858 799.5,-500.1858"/>
<polygon fill="none" stroke="#000000" points="799.5,-500.1858 799.5,-523.1858 1022.5,-523.1858 1022.5,-500.1858 799.5,-500.1858"/>
<text text-anchor="start" x="804.5" y="-508.7858" font-family="Helvetica,sans-Serif" font-weight="bold" font-size="11.00" fill="#000000">StudentCompetencyEvaluations</text>
<text text-anchor="start" x="988.0219" y="-508.2858" font-family="Helvetica,sans-Serif" font-size="11.00" fill="#000000">[table]</text>
<polygon fill="none" stroke="#000000" points="799.5,-481.1858 799.5,-500.1858 1022.5,-500.1858 1022.5,-481.1858 799.5,-481.1858"/>
<text text-anchor="start" x="802.5" y="-487.2858" font-family="Helvetica,sans-Serif" font-size="11.00" fill="#000000">...</text>
<polygon fill="#ffffff" stroke="transparent" points="799.5,-462.1858 799.5,-481.1858 891.5,-481.1858 891.5,-462.1858 799.5,-462.1858"/>
<polygon fill="none" stroke="#000000" points="799.5,-462.1858 799.5,-481.1858 891.5,-481.1858 891.5,-462.1858 799.5,-462.1858"/>
<text text-anchor="start" x="802.5" y="-468.2858" font-family="Helvetica,sans-Serif" font-size="11.00" fill="#000000">&lt; 4</text>
<polygon fill="#ffffff" stroke="transparent" points="891.5,-462.1858 891.5,-481.1858 965.5,-481.1858 965.5,-462.1858 891.5,-462.1858"/>
<polygon fill="none" stroke="#000000" points="891.5,-462.1858 891.5,-481.1858 965.5,-481.1858 965.5,-462.1858 891.5,-462.1858"/>
<text text-anchor="start" x="930.1105" y="-468.2858" font-family="Helvetica,sans-Serif" font-size="11.00" fill="#000000">0 rows</text>
<polygon fill="#ffffff" stroke="transparent" points="965.5,-462.1858 965.5,-481.1858 1022.5,-481.1858 1022.5,-462.1858 965.5,-462.1858"/>
<polygon fill="none" stroke="#000000" points="965.5,-462.1858 965.5,-481.1858 1022.5,-481.1858 1022.5,-462.1858 965.5,-462.1858"/>
<text text-anchor="start" x="1003.9053" y="-468.2858" font-family="Helvetica,sans-Serif" font-size="11.00" fill="#000000">1 &gt;</text>
</a>
</g>
</g>
<!-- QuestionResponses&#45;&gt;StudentCompetencyEvaluations -->
<g id="edge26" class="edge">
<title>QuestionResponses:w&#45;&gt;StudentCompetencyEvaluations:e</title>
<path fill="none" stroke="#000000" d="M1057.6165,-549.1638C1041.7339,-534.0764 1052.1667,-490.1858 1022.5,-490.1858"/>
<polygon fill="#000000" stroke="#000000" points="1063.977,-551.4646 1070.2754,-557.5711 1067.7385,-552.8252 1071.5,-554.1858 1071.5,-554.1858 1071.5,-554.1858 1067.7385,-552.8252 1072.7246,-550.8005 1063.977,-551.4646 1063.977,-551.4646"/>
<ellipse fill="none" stroke="#000000" cx="1060.9678" cy="-550.3761" rx="3.2" ry="3.2"/>
</g>
<!-- StudentCompetencyEvaluations&#45;&gt;AspNetUsers -->
<g id="edge28" class="edge">
<title>StudentCompetencyEvaluations:w&#45;&gt;AspNetUsers:e</title>
<path fill="none" stroke="#000000" d="M785.0864,-491.1633C776.6642,-492.3912 770.6044,-494.4292 758,-495.1858 515.6779,-509.7309 454.0714,-498.434 212,-480.1858 193.9636,-478.8262 189.5876,-476.1858 171.5,-476.1858"/>
<polygon fill="#000000" stroke="#000000" points="791.5183,-490.7271 799.7436,-493.7776 795.5092,-490.4565 799.5,-490.1858 799.5,-490.1858 799.5,-490.1858 795.5092,-490.4565 799.2564,-486.5941 791.5183,-490.7271 791.5183,-490.7271"/>
<ellipse fill="none" stroke="#000000" cx="788.3257" cy="-490.9437" rx="3.2" ry="3.2"/>
</g>
<!-- StudentCompetencyEvaluations&#45;&gt;AspNetUsers -->
<g id="edge31" class="edge">
<title>StudentCompetencyEvaluations:w&#45;&gt;AspNetUsers:e</title>
<path fill="none" stroke="#000000" d="M784.833,-490.3899C776.5395,-490.6364 770.3951,-491.0365 758,-491.1858 643.3417,-492.567 614.6368,-493.8017 500,-491.1858 353.8859,-487.8516 317.6521,-476.1858 171.5,-476.1858"/>
<polygon fill="#000000" stroke="#000000" points="791.5008,-490.2972 799.5501,-493.7855 795.5004,-490.2415 799.5,-490.1858 799.5,-490.1858 799.5,-490.1858 795.5004,-490.2415 799.4499,-486.5862 791.5008,-490.2972 791.5008,-490.2972"/>
<ellipse fill="none" stroke="#000000" cx="788.3011" cy="-490.3417" rx="3.2" ry="3.2"/>
</g>
<!-- StudentCompetencyEvaluations&#45;&gt;ProfessorCompetencyAssignments -->
<g id="edge29" class="edge">
<title>StudentCompetencyEvaluations:w&#45;&gt;ProfessorCompetencyAssignments:e</title>
<path fill="none" stroke="#000000" d="M785.7365,-485.712C772.7048,-475.468 772.1,-451.1858 750,-451.1858"/>
<polygon fill="#000000" stroke="#000000" points="791.8918,-487.7127 798.3871,-493.6095 795.6959,-488.9493 799.5,-490.1858 799.5,-490.1858 799.5,-490.1858 795.6959,-488.9493 800.6129,-486.7621 791.8918,-487.7127 791.8918,-487.7127"/>
<ellipse fill="none" stroke="#000000" cx="788.8486" cy="-486.7235" rx="3.2" ry="3.2"/>
</g>
<!-- Students -->
<g id="node16" class="node">
<title>Students</title>
<g id="a_node16"><a xlink:href="../../tables/Students.html" xlink:title="Students" target="_top">
<polygon fill="#ffffff" stroke="transparent" points="584,-211.6858 584,-272.6858 674,-272.6858 674,-211.6858 584,-211.6858"/>
<polygon fill="#f5f5f5" stroke="transparent" points="584,-249.1858 584,-272.1858 674,-272.1858 674,-249.1858 584,-249.1858"/>
<polygon fill="none" stroke="#000000" points="584,-249.1858 584,-272.1858 674,-272.1858 674,-249.1858 584,-249.1858"/>
<text text-anchor="start" x="589" y="-257.7858" font-family="Helvetica,sans-Serif" font-weight="bold" font-size="11.00" fill="#000000">Students</text>
<text text-anchor="start" x="639.5219" y="-257.2858" font-family="Helvetica,sans-Serif" font-size="11.00" fill="#000000">[table]</text>
<polygon fill="none" stroke="#000000" points="584,-230.1858 584,-249.1858 674,-249.1858 674,-230.1858 584,-230.1858"/>
<text text-anchor="start" x="587" y="-236.2858" font-family="Helvetica,sans-Serif" font-size="11.00" fill="#000000">...</text>
<polygon fill="#ffffff" stroke="transparent" points="584,-211.1858 584,-230.1858 610,-230.1858 610,-211.1858 584,-211.1858"/>
<polygon fill="none" stroke="#000000" points="584,-211.1858 584,-230.1858 610,-230.1858 610,-211.1858 584,-211.1858"/>
<text text-anchor="start" x="587" y="-217.2858" font-family="Helvetica,sans-Serif" font-size="11.00" fill="#000000">&lt; 2</text>
<polygon fill="#ffffff" stroke="transparent" points="610,-211.1858 610,-230.1858 650,-230.1858 650,-211.1858 610,-211.1858"/>
<polygon fill="none" stroke="#000000" points="610,-211.1858 610,-230.1858 650,-230.1858 650,-211.1858 610,-211.1858"/>
<text text-anchor="start" x="614.6105" y="-217.2858" font-family="Helvetica,sans-Serif" font-size="11.00" fill="#000000">0 rows</text>
<polygon fill="#ffffff" stroke="transparent" points="650,-211.1858 650,-230.1858 674,-230.1858 674,-211.1858 650,-211.1858"/>
<polygon fill="none" stroke="#000000" points="650,-211.1858 650,-230.1858 674,-230.1858 674,-211.1858 650,-211.1858"/>
<text text-anchor="start" x="655.4053" y="-217.2858" font-family="Helvetica,sans-Serif" font-size="11.00" fill="#000000">3 &gt;</text>
</a>
</g>
</g>
<!-- StudentCompetencyEvaluations&#45;&gt;Students -->
<g id="edge30" class="edge">
<title>StudentCompetencyEvaluations:w&#45;&gt;Students:e</title>
<path fill="none" stroke="#000000" d="M790.0778,-479.0768C761.2303,-430.5007 687.6111,-239.1858 674,-239.1858"/>
<polygon fill="#000000" stroke="#000000" points="794.3253,-484.0847 796.7545,-492.5144 796.9127,-487.1353 799.5,-490.1858 799.5,-490.1858 799.5,-490.1858 796.9127,-487.1353 802.2455,-487.8572 794.3253,-484.0847 794.3253,-484.0847"/>
<ellipse fill="none" stroke="#000000" cx="792.2555" cy="-481.6443" rx="3.2" ry="3.2"/>
</g>
<!-- Students&#45;&gt;AspNetUsers -->
<g id="edge37" class="edge">
<title>Students:w&#45;&gt;AspNetUsers:e</title>
<path fill="none" stroke="#000000" d="M573.3866,-239.0143C483.3426,-236.3387 271.8693,-203.9717 212,-256.1858 137.072,-321.5332 270.9208,-476.1858 171.5,-476.1858"/>
<polygon fill="#000000" stroke="#000000" points="583.2648,-235.1734 583.1354,-243.1723 581.5356,-243.1465 581.665,-235.1475 583.2648,-235.1734"/>
<polyline fill="none" stroke="#000000" points="584,-239.1858 580.0005,-239.1211 "/>
<ellipse fill="none" stroke="#000000" cx="576.8009" cy="-239.0694" rx="3.2" ry="3.2"/>
</g>
<!-- Students&#45;&gt;TechnicalCareers -->
<g id="edge36" class="edge">
<title>Students:w&#45;&gt;TechnicalCareers:e</title>
<path fill="none" stroke="#000000" d="M569.4699,-238.5344C500.6159,-232.1624 486.1194,-181.1858 409.5,-181.1858"/>
<polygon fill="#000000" stroke="#000000" points="576.008,-238.8275 583.8388,-242.7822 580.004,-239.0066 584,-239.1858 584,-239.1858 584,-239.1858 580.004,-239.0066 584.1612,-235.5894 576.008,-238.8275 576.008,-238.8275"/>
<ellipse fill="none" stroke="#000000" cx="572.8112" cy="-238.6841" rx="3.2" ry="3.2"/>
</g>
<!-- StudentEvaluationReport -->
<g id="node17" class="node">
<title>StudentEvaluationReport</title>
<g id="a_node17"><a xlink:href="../../tables/StudentEvaluationReport.html" xlink:title="StudentEvaluationReport" target="_top">
<polygon fill="#ffffff" stroke="transparent" points="819,-275.6858 819,-336.6858 1002,-336.6858 1002,-275.6858 819,-275.6858"/>
<polygon fill="#f5f5f5" stroke="transparent" points="819.5,-313.1858 819.5,-336.1858 1002.5,-336.1858 1002.5,-313.1858 819.5,-313.1858"/>
<polygon fill="none" stroke="#000000" points="819.5,-313.1858 819.5,-336.1858 1002.5,-336.1858 1002.5,-313.1858 819.5,-313.1858"/>
<text text-anchor="start" x="824.5" y="-321.7858" font-family="Helvetica,sans-Serif" font-weight="bold" font-size="11.00" fill="#000000">StudentEvaluationReport</text>
<text text-anchor="start" x="968.0219" y="-321.2858" font-family="Helvetica,sans-Serif" font-size="11.00" fill="#000000">[table]</text>
<polygon fill="none" stroke="#000000" points="819.5,-294.1858 819.5,-313.1858 1002.5,-313.1858 1002.5,-294.1858 819.5,-294.1858"/>
<text text-anchor="start" x="822.5" y="-300.2858" font-family="Helvetica,sans-Serif" font-size="11.00" fill="#000000">...</text>
<polygon fill="#ffffff" stroke="transparent" points="819.5,-275.1858 819.5,-294.1858 896.5,-294.1858 896.5,-275.1858 819.5,-275.1858"/>
<polygon fill="none" stroke="#000000" points="819.5,-275.1858 819.5,-294.1858 896.5,-294.1858 896.5,-275.1858 819.5,-275.1858"/>
<text text-anchor="start" x="822.5" y="-281.2858" font-family="Helvetica,sans-Serif" font-size="11.00" fill="#000000">&lt; 4</text>
<polygon fill="#ffffff" stroke="transparent" points="896.5,-275.1858 896.5,-294.1858 962.5,-294.1858 962.5,-275.1858 896.5,-275.1858"/>
<polygon fill="none" stroke="#000000" points="896.5,-275.1858 896.5,-294.1858 962.5,-294.1858 962.5,-275.1858 896.5,-275.1858"/>
<text text-anchor="start" x="927.1105" y="-281.2858" font-family="Helvetica,sans-Serif" font-size="11.00" fill="#000000">0 rows</text>
<polygon fill="#ffffff" stroke="transparent" points="962.5,-275.1858 962.5,-294.1858 1002.5,-294.1858 1002.5,-275.1858 962.5,-275.1858"/>
<polygon fill="none" stroke="#000000" points="962.5,-275.1858 962.5,-294.1858 1002.5,-294.1858 1002.5,-275.1858 962.5,-275.1858"/>
<text text-anchor="start" x="993.3862" y="-281.2858" font-family="Helvetica,sans-Serif" font-size="11.00" fill="#000000"> &#160;</text>
</a>
</g>
</g>
<!-- StudentEvaluationReport&#45;&gt;AspNetUsers -->
<g id="edge32" class="edge">
<title>StudentEvaluationReport:w&#45;&gt;AspNetUsers:e</title>
<path fill="none" stroke="#000000" d="M804.824,-302.7266C710.3406,-298.873 236.4339,-272.5452 212,-292.1858 146.7358,-344.6471 255.2353,-476.1858 171.5,-476.1858"/>
<polygon fill="#000000" stroke="#000000" points="811.5039,-302.9356 819.3874,-306.784 815.502,-303.0607 819.5,-303.1858 819.5,-303.1858 819.5,-303.1858 815.502,-303.0607 819.6126,-299.5876 811.5039,-302.9356 811.5039,-302.9356"/>
<ellipse fill="none" stroke="#000000" cx="808.3055" cy="-302.8355" rx="3.2" ry="3.2"/>
</g>
<!-- StudentEvaluationReport&#45;&gt;AspNetUsers -->
<g id="edge35" class="edge">
<title>StudentEvaluationReport:w&#45;&gt;AspNetUsers:e</title>
<path fill="none" stroke="#000000" d="M804.7985,-302.7676C699.9986,-298.081 261.8294,-256.3222 212,-296.1858 147.9688,-347.4108 253.5,-476.1858 171.5,-476.1858"/>
<polygon fill="#000000" stroke="#000000" points="811.5032,-302.9583 819.3976,-306.7843 815.5016,-303.072 819.5,-303.1858 819.5,-303.1858 819.5,-303.1858 815.5016,-303.072 819.6024,-299.5873 811.5032,-302.9583 811.5032,-302.9583"/>
<ellipse fill="none" stroke="#000000" cx="808.3045" cy="-302.8673" rx="3.2" ry="3.2"/>
</g>
<!-- StudentEvaluationReport&#45;&gt;EvaluationPeriods -->
<g id="edge33" class="edge">
<title>StudentEvaluationReport:w&#45;&gt;EvaluationPeriods:e</title>
<path fill="none" stroke="#000000" d="M805.2555,-306.8124C733.376,-325.7256 414.1119,-412.1858 411.5,-412.1858"/>
<polygon fill="#000000" stroke="#000000" points="811.7473,-305.1597 820.3882,-306.6745 815.6237,-304.1727 819.5,-303.1858 819.5,-303.1858 819.5,-303.1858 815.6237,-304.1727 818.6118,-299.6971 811.7473,-305.1597 811.7473,-305.1597"/>
<ellipse fill="none" stroke="#000000" cx="808.6462" cy="-305.9492" rx="3.2" ry="3.2"/>
</g>
<!-- StudentEvaluationReport&#45;&gt;Students -->
<g id="edge34" class="edge">
<title>StudentEvaluationReport:w&#45;&gt;Students:e</title>
<path fill="none" stroke="#000000" d="M804.8138,-302.1805C747.8634,-294.0383 739.4028,-239.1858 674,-239.1858"/>
<polygon fill="#000000" stroke="#000000" points="811.5187,-302.6394 819.2541,-306.7774 815.5093,-302.9126 819.5,-303.1858 819.5,-303.1858 819.5,-303.1858 815.5093,-302.9126 819.7459,-299.5942 811.5187,-302.6394 811.5187,-302.6394"/>
<ellipse fill="none" stroke="#000000" cx="808.3261" cy="-302.4209" rx="3.2" ry="3.2"/>
</g>
<!-- StudentSubjects -->
<g id="node18" class="node">
<title>StudentSubjects</title>
<g id="a_node18"><a xlink:href="../../tables/StudentSubjects.html" xlink:title="StudentSubjects" target="_top">
<polygon fill="#ffffff" stroke="transparent" points="844,-59.6858 844,-120.6858 977,-120.6858 977,-59.6858 844,-59.6858"/>
<polygon fill="#f5f5f5" stroke="transparent" points="844.5,-97.1858 844.5,-120.1858 977.5,-120.1858 977.5,-97.1858 844.5,-97.1858"/>
<polygon fill="none" stroke="#000000" points="844.5,-97.1858 844.5,-120.1858 977.5,-120.1858 977.5,-97.1858 844.5,-97.1858"/>
<text text-anchor="start" x="849.5" y="-105.7858" font-family="Helvetica,sans-Serif" font-weight="bold" font-size="11.00" fill="#000000">StudentSubjects</text>
<text text-anchor="start" x="943.0219" y="-105.2858" font-family="Helvetica,sans-Serif" font-size="11.00" fill="#000000">[table]</text>
<polygon fill="none" stroke="#000000" points="844.5,-78.1858 844.5,-97.1858 977.5,-97.1858 977.5,-78.1858 844.5,-78.1858"/>
<text text-anchor="start" x="847.5" y="-84.2858" font-family="Helvetica,sans-Serif" font-size="11.00" fill="#000000">...</text>
<polygon fill="#ffffff" stroke="transparent" points="844.5,-59.1858 844.5,-78.1858 896.5,-78.1858 896.5,-59.1858 844.5,-59.1858"/>
<polygon fill="none" stroke="#000000" points="844.5,-59.1858 844.5,-78.1858 896.5,-78.1858 896.5,-59.1858 844.5,-59.1858"/>
<text text-anchor="start" x="847.5" y="-65.2858" font-family="Helvetica,sans-Serif" font-size="11.00" fill="#000000">&lt; 4</text>
<polygon fill="#ffffff" stroke="transparent" points="896.5,-59.1858 896.5,-78.1858 949.5,-78.1858 949.5,-59.1858 896.5,-59.1858"/>
<polygon fill="none" stroke="#000000" points="896.5,-59.1858 896.5,-78.1858 949.5,-78.1858 949.5,-59.1858 896.5,-59.1858"/>
<text text-anchor="start" x="914.1105" y="-65.2858" font-family="Helvetica,sans-Serif" font-size="11.00" fill="#000000">0 rows</text>
<polygon fill="#ffffff" stroke="transparent" points="949.5,-59.1858 949.5,-78.1858 977.5,-78.1858 977.5,-59.1858 949.5,-59.1858"/>
<polygon fill="none" stroke="#000000" points="949.5,-59.1858 949.5,-78.1858 977.5,-78.1858 977.5,-59.1858 949.5,-59.1858"/>
<text text-anchor="start" x="968.3862" y="-65.2858" font-family="Helvetica,sans-Serif" font-size="11.00" fill="#000000"> &#160;</text>
</a>
</g>
</g>
<!-- StudentSubjects&#45;&gt;AspNetUsers -->
<g id="edge38" class="edge">
<title>StudentSubjects:w&#45;&gt;AspNetUsers:e</title>
<path fill="none" stroke="#000000" d="M829.7932,-85.5092C799.611,-77.9835 795.5278,-47.2517 758,-37.1858 735.8102,-31.234 215.4653,-36.0047 212,-39.1858 140.1546,-105.1389 269.0273,-476.1858 171.5,-476.1858"/>
<polygon fill="#000000" stroke="#000000" points="836.5515,-86.2796 844.0922,-90.7626 840.5257,-86.7327 844.5,-87.1858 844.5,-87.1858 844.5,-87.1858 840.5257,-86.7327 844.9078,-83.609 836.5515,-86.2796 836.5515,-86.2796"/>
<ellipse fill="none" stroke="#000000" cx="833.3721" cy="-85.9171" rx="3.2" ry="3.2"/>
</g>
<!-- StudentSubjects&#45;&gt;AspNetUsers -->
<g id="edge41" class="edge">
<title>StudentSubjects:w&#45;&gt;AspNetUsers:e</title>
<path fill="none" stroke="#000000" d="M830.0146,-85.6413C800.1312,-78.7091 794.9677,-50.4041 758,-41.1858 735.4535,-35.5636 215.0672,-40.3726 212,-43.1858 140.7789,-108.5101 268.1422,-476.1858 171.5,-476.1858"/>
<polygon fill="#000000" stroke="#000000" points="836.5451,-86.3376 844.1183,-90.7655 840.5225,-86.7617 844.5,-87.1858 844.5,-87.1858 844.5,-87.1858 840.5225,-86.7617 844.8817,-83.6061 836.5451,-86.3376 836.5451,-86.3376"/>
<ellipse fill="none" stroke="#000000" cx="833.3631" cy="-85.9983" rx="3.2" ry="3.2"/>
</g>
<!-- StudentSubjects&#45;&gt;Students -->
<g id="edge39" class="edge">
<title>StudentSubjects:w&#45;&gt;Students:e</title>
<path fill="none" stroke="#000000" d="M830.0003,-88.7637C784.944,-99.7072 803.4495,-164.9359 758,-201.1858 725.9657,-226.736 714.9758,-239.1858 674,-239.1858"/>
<polygon fill="#000000" stroke="#000000" points="836.547,-88.0513 844.8895,-90.7647 840.5235,-87.6186 844.5,-87.1858 844.5,-87.1858 844.5,-87.1858 840.5235,-87.6186 844.1105,-83.6069 836.547,-88.0513 836.547,-88.0513"/>
<ellipse fill="none" stroke="#000000" cx="833.3657" cy="-88.3975" rx="3.2" ry="3.2"/>
</g>
<!-- Subjects -->
<g id="node19" class="node">
<title>Subjects</title>
<g id="a_node19"><a xlink:href="../../tables/Subjects.html" xlink:title="Subjects" target="_top">
<polygon fill="#ffffff" stroke="transparent" points="584.5,-129.6858 584.5,-190.6858 673.5,-190.6858 673.5,-129.6858 584.5,-129.6858"/>
<polygon fill="#f5f5f5" stroke="transparent" points="585,-167.1858 585,-190.1858 674,-190.1858 674,-167.1858 585,-167.1858"/>
<polygon fill="none" stroke="#000000" points="585,-167.1858 585,-190.1858 674,-190.1858 674,-167.1858 585,-167.1858"/>
<text text-anchor="start" x="590" y="-175.7858" font-family="Helvetica,sans-Serif" font-weight="bold" font-size="11.00" fill="#000000">Subjects</text>
<text text-anchor="start" x="639.5219" y="-175.2858" font-family="Helvetica,sans-Serif" font-size="11.00" fill="#000000">[table]</text>
<polygon fill="none" stroke="#000000" points="585,-148.1858 585,-167.1858 674,-167.1858 674,-148.1858 585,-148.1858"/>
<text text-anchor="start" x="588" y="-154.2858" font-family="Helvetica,sans-Serif" font-size="11.00" fill="#000000">...</text>
<polygon fill="#ffffff" stroke="transparent" points="585,-129.1858 585,-148.1858 610,-148.1858 610,-129.1858 585,-129.1858"/>
<polygon fill="none" stroke="#000000" points="585,-129.1858 585,-148.1858 610,-148.1858 610,-129.1858 585,-129.1858"/>
<text text-anchor="start" x="588" y="-135.2858" font-family="Helvetica,sans-Serif" font-size="11.00" fill="#000000">&lt; 4</text>
<polygon fill="#ffffff" stroke="transparent" points="610,-129.1858 610,-148.1858 650,-148.1858 650,-129.1858 610,-129.1858"/>
<polygon fill="none" stroke="#000000" points="610,-129.1858 610,-148.1858 650,-148.1858 650,-129.1858 610,-129.1858"/>
<text text-anchor="start" x="614.6105" y="-135.2858" font-family="Helvetica,sans-Serif" font-size="11.00" fill="#000000">0 rows</text>
<polygon fill="#ffffff" stroke="transparent" points="650,-129.1858 650,-148.1858 674,-148.1858 674,-129.1858 650,-129.1858"/>
<polygon fill="none" stroke="#000000" points="650,-129.1858 650,-148.1858 674,-148.1858 674,-129.1858 650,-129.1858"/>
<text text-anchor="start" x="655.4053" y="-135.2858" font-family="Helvetica,sans-Serif" font-size="11.00" fill="#000000">1 &gt;</text>
</a>
</g>
</g>
<!-- StudentSubjects&#45;&gt;Subjects -->
<g id="edge40" class="edge">
<title>StudentSubjects:w&#45;&gt;Subjects:e</title>
<path fill="none" stroke="#000000" d="M829.9859,-87.9719C761.4568,-95.6624 750.7959,-157.1858 674,-157.1858"/>
<polygon fill="#000000" stroke="#000000" points="836.5117,-87.6185 844.6947,-90.7805 840.5059,-87.4022 844.5,-87.1858 844.5,-87.1858 844.5,-87.1858 840.5059,-87.4022 844.3053,-83.5911 836.5117,-87.6185 836.5117,-87.6185"/>
<ellipse fill="none" stroke="#000000" cx="833.3164" cy="-87.7916" rx="3.2" ry="3.2"/>
</g>
<!-- Subjects&#45;&gt;AspNetUsers -->
<g id="edge42" class="edge">
<title>Subjects:w&#45;&gt;AspNetUsers:e</title>
<path fill="none" stroke="#000000" d="M570.1581,-156.8548C414.0471,-149.8927 332.4251,-36.5196 212,-143.1858 156.1972,-192.613 246.0453,-476.1858 171.5,-476.1858"/>
<polygon fill="#000000" stroke="#000000" points="577.002,-157.0074 584.9197,-160.7849 581.001,-157.0966 585,-157.1858 585,-157.1858 585,-157.1858 581.001,-157.0966 585.0803,-153.5867 577.002,-157.0074 577.002,-157.0074"/>
<ellipse fill="none" stroke="#000000" cx="573.8028" cy="-156.936" rx="3.2" ry="3.2"/>
</g>
<!-- Subjects&#45;&gt;AspNetUsers -->
<g id="edge45" class="edge">
<title>Subjects:w&#45;&gt;AspNetUsers:e</title>
<path fill="none" stroke="#000000" d="M570.1631,-156.8659C414.103,-150.1387 332.4613,-40.644 212,-147.1858 156.8221,-195.9878 245.163,-476.1858 171.5,-476.1858"/>
<polygon fill="#000000" stroke="#000000" points="577.0019,-157.0133 584.9224,-160.785 581.0009,-157.0996 585,-157.1858 585,-157.1858 585,-157.1858 581.0009,-157.0996 585.0776,-153.5866 577.0019,-157.0133 577.0019,-157.0133"/>
<ellipse fill="none" stroke="#000000" cx="573.8026" cy="-156.9443" rx="3.2" ry="3.2"/>
</g>
<!-- Subjects&#45;&gt;TechnicalCareers -->
<g id="edge44" class="edge">
<title>Subjects:w&#45;&gt;TechnicalCareers:e</title>
<path fill="none" stroke="#000000" d="M570.5013,-157.4721C503.6955,-160.1799 483.1518,-181.1858 409.5,-181.1858"/>
<polygon fill="#000000" stroke="#000000" points="577.0016,-157.3438 585.0711,-160.7851 581.0008,-157.2648 585,-157.1858 585,-157.1858 585,-157.1858 581.0008,-157.2648 584.9289,-153.5865 577.0016,-157.3438 577.0016,-157.3438"/>
<ellipse fill="none" stroke="#000000" cx="573.8022" cy="-157.407" rx="3.2" ry="3.2"/>
</g>
<!-- Subjects&#45;&gt;Professors -->
<g id="edge43" class="edge">
<title>Subjects:w&#45;&gt;Professors:e</title>
<path fill="none" stroke="#000000" d="M570.4993,-157.9898C539.7895,-161.7028 529.1215,-178.0039 500,-201.1858 441.1625,-248.0228 465.7034,-330.1858 390.5,-330.1858"/>
<polygon fill="#000000" stroke="#000000" points="577.0123,-157.6287 585.1993,-160.7803 581.0061,-157.4073 585,-157.1858 585,-157.1858 585,-157.1858 581.0061,-157.4073 584.8007,-153.5913 577.0123,-157.6287 577.0123,-157.6287"/>
<ellipse fill="none" stroke="#000000" cx="573.8172" cy="-157.8059" rx="3.2" ry="3.2"/>
</g>
</g>
</svg>
