<?xml version="1.0" encoding="UTF-8" standalone="no"?>
<!DOCTYPE svg PUBLIC "-//W3C//DTD SVG 1.1//EN"
 "http://www.w3.org/Graphics/SVG/1.1/DTD/svg11.dtd">
<!-- Generated by graphviz version 2.40.1 (20161225.0304)
 -->
<!-- Title: twoDegreesRelationshipsDiagram Pages: 1 -->
<svg width="444pt" height="289pt"
 viewBox="0.00 0.00 444.00 289.20" xmlns="http://www.w3.org/2000/svg" xmlns:xlink="http://www.w3.org/1999/xlink">
<g id="graph0" class="graph" transform="scale(1 1) rotate(0) translate(4 285.2)">
<title>twoDegreesRelationshipsDiagram</title>
<polygon fill="#ffffff" stroke="transparent" points="-4,4 -4,-285.2 440,-285.2 440,4 -4,4"/>
<text text-anchor="middle" x="72.4936" y="-7.3" font-family="Helvetica,sans-Serif" font-size="11.00" fill="#000000">Generated by SchemaSpy</text>
<!-- AspNetRoleClaims -->
<g id="node1" class="node">
<title>AspNetRoleClaims</title>
<g id="a_node1"><a xlink:href="../../tables/AspNetRoleClaims.html" xlink:title="AspNetRoleClaims" target="_top">
<polygon fill="#ffffff" stroke="transparent" points="282,-64.7 282,-169.7 428,-169.7 428,-64.7 282,-64.7"/>
<polygon fill="#f5f5f5" stroke="transparent" points="282,-146.2 282,-169.2 428,-169.2 428,-146.2 282,-146.2"/>
<polygon fill="none" stroke="#000000" points="282,-146.2 282,-169.2 428,-169.2 428,-146.2 282,-146.2"/>
<text text-anchor="start" x="287" y="-154.8" font-family="Helvetica,sans-Serif" font-weight="bold" font-size="11.00" fill="#000000">AspNetRoleClaims</text>
<text text-anchor="start" x="393.5219" y="-154.3" font-family="Helvetica,sans-Serif" font-size="11.00" fill="#000000">[table]</text>
<polygon fill="none" stroke="#000000" points="282,-124.2 282,-146.2 428,-146.2 428,-124.2 282,-124.2"/>
<image xlink:href="../../images/primaryKeys.png" width="11px" height="12px" preserveAspectRatio="xMinYMin meet" x="287" y="-141.2"/>
<text text-anchor="start" x="311" y="-131.3" font-family="Helvetica,sans-Serif" font-size="11.00" fill="#000000">Id</text>
<polygon fill="#ffffff" stroke="transparent" points="282,-102.2 282,-124.2 428,-124.2 428,-102.2 282,-102.2"/>
<polygon fill="none" stroke="#000000" points="282,-102.2 282,-124.2 428,-124.2 428,-102.2 282,-102.2"/>
<image xlink:href="../../images/foreignKeys.png" width="11px" height="12px" preserveAspectRatio="xMinYMin meet" x="287" y="-119.2"/>
<text text-anchor="start" x="311" y="-109.3" font-family="Helvetica,sans-Serif" font-size="11.00" fill="#000000">RoleId</text>
<polygon fill="none" stroke="#000000" points="282,-83.2 282,-102.2 428,-102.2 428,-83.2 282,-83.2"/>
<text text-anchor="start" x="285" y="-89.3" font-family="Helvetica,sans-Serif" font-size="11.00" fill="#000000">...</text>
<polygon fill="#ffffff" stroke="transparent" points="282,-64.2 282,-83.2 340,-83.2 340,-64.2 282,-64.2"/>
<polygon fill="none" stroke="#000000" points="282,-64.2 282,-83.2 340,-83.2 340,-64.2 282,-64.2"/>
<text text-anchor="start" x="285" y="-70.3" font-family="Helvetica,sans-Serif" font-size="11.00" fill="#000000">&lt; 1</text>
<polygon fill="#ffffff" stroke="transparent" points="340,-64.2 340,-83.2 397,-83.2 397,-64.2 340,-64.2"/>
<polygon fill="none" stroke="#000000" points="340,-64.2 340,-83.2 397,-83.2 397,-64.2 340,-64.2"/>
<text text-anchor="start" x="361.6105" y="-70.3" font-family="Helvetica,sans-Serif" font-size="11.00" fill="#000000">0 rows</text>
<polygon fill="#ffffff" stroke="transparent" points="397,-64.2 397,-83.2 428,-83.2 428,-64.2 397,-64.2"/>
<polygon fill="none" stroke="#000000" points="397,-64.2 397,-83.2 428,-83.2 428,-64.2 397,-64.2"/>
<text text-anchor="start" x="418.8862" y="-70.3" font-family="Helvetica,sans-Serif" font-size="11.00" fill="#000000"> &#160;</text>
</a>
</g>
</g>
<!-- AspNetRoles -->
<g id="node2" class="node">
<title>AspNetRoles</title>
<g id="a_node2"><a xlink:href="../../tables/AspNetRoles.html" xlink:title="AspNetRoles" target="_top">
<polygon fill="#ffffff" stroke="transparent" points="8,-38.2 8,-172.2 233,-172.2 233,-38.2 8,-38.2"/>
<polygon fill="#f5f5f5" stroke="transparent" points="10.5,-147.2 10.5,-170.2 231.5,-170.2 231.5,-147.2 10.5,-147.2"/>
<polygon fill="none" stroke="#000000" points="10.5,-147.2 10.5,-170.2 231.5,-170.2 231.5,-147.2 10.5,-147.2"/>
<text text-anchor="start" x="15.5" y="-155.8" font-family="Helvetica,sans-Serif" font-weight="bold" font-size="11.00" fill="#000000">AspNetRoles</text>
<text text-anchor="start" x="196.5437" y="-155.3" font-family="Helvetica,sans-Serif" font-size="11.00" fill="#000000">[table]</text>
<polygon fill="none" stroke="#000000" points="10.5,-125.2 10.5,-147.2 141.5,-147.2 141.5,-125.2 10.5,-125.2"/>
<image xlink:href="../../images/primaryKeys.png" width="11px" height="12px" preserveAspectRatio="xMinYMin meet" x="15.5" y="-142.2"/>
<text text-anchor="start" x="30.5" y="-132.3" font-family="Helvetica,sans-Serif" font-size="11.00" fill="#000000">Id</text>
<polygon fill="none" stroke="#000000" points="141.5,-125.2 141.5,-147.2 231.5,-147.2 231.5,-125.2 141.5,-125.2"/>
<text text-anchor="start" x="144.0042" y="-132.9" font-family="Helvetica,sans-Serif" font-size="11.00" fill="#000000">text[2147483647]</text>
<polygon fill="none" stroke="#000000" points="10.5,-103.2 10.5,-125.2 141.5,-125.2 141.5,-103.2 10.5,-103.2"/>
<text text-anchor="start" x="30.5" y="-110.3" font-family="Helvetica,sans-Serif" font-size="11.00" fill="#000000">Name</text>
<polygon fill="none" stroke="#000000" points="141.5,-103.2 141.5,-125.2 231.5,-125.2 231.5,-103.2 141.5,-103.2"/>
<text text-anchor="start" x="144.5" y="-110.9" font-family="Helvetica,sans-Serif" font-size="11.00" fill="#000000">varchar[256]</text>
<polygon fill="#ffffff" stroke="transparent" points="10.5,-81.2 10.5,-103.2 141.5,-103.2 141.5,-81.2 10.5,-81.2"/>
<polygon fill="none" stroke="#000000" points="10.5,-81.2 10.5,-103.2 141.5,-103.2 141.5,-81.2 10.5,-81.2"/>
<text text-anchor="start" x="30.5" y="-88.3" font-family="Helvetica,sans-Serif" font-size="11.00" fill="#000000">NormalizedName</text>
<polygon fill="none" stroke="#000000" points="141.5,-81.2 141.5,-103.2 231.5,-103.2 231.5,-81.2 141.5,-81.2"/>
<text text-anchor="start" x="144.5" y="-88.9" font-family="Helvetica,sans-Serif" font-size="11.00" fill="#000000">varchar[256]</text>
<polygon fill="none" stroke="#000000" points="10.5,-59.2 10.5,-81.2 141.5,-81.2 141.5,-59.2 10.5,-59.2"/>
<text text-anchor="start" x="30.5" y="-66.3" font-family="Helvetica,sans-Serif" font-size="11.00" fill="#000000">ConcurrencyStamp</text>
<polygon fill="none" stroke="#000000" points="141.5,-59.2 141.5,-81.2 231.5,-81.2 231.5,-59.2 141.5,-59.2"/>
<text text-anchor="start" x="144.0042" y="-66.9" font-family="Helvetica,sans-Serif" font-size="11.00" fill="#000000">text[2147483647]</text>
<polygon fill="#ffffff" stroke="transparent" points="10.5,-40.2 10.5,-59.2 67.5,-59.2 67.5,-40.2 10.5,-40.2"/>
<polygon fill="none" stroke="#000000" points="10.5,-40.2 10.5,-59.2 67.5,-59.2 67.5,-40.2 10.5,-40.2"/>
<text text-anchor="start" x="13.5" y="-46.3" font-family="Helvetica,sans-Serif" font-size="11.00" fill="#000000">&lt; 0</text>
<polygon fill="#ffffff" stroke="transparent" points="67.5,-40.2 67.5,-59.2 141.5,-59.2 141.5,-40.2 67.5,-40.2"/>
<polygon fill="none" stroke="#000000" points="67.5,-40.2 67.5,-59.2 141.5,-59.2 141.5,-40.2 67.5,-40.2"/>
<text text-anchor="start" x="106.1105" y="-46.3" font-family="Helvetica,sans-Serif" font-size="11.00" fill="#000000">0 rows</text>
<polygon fill="#ffffff" stroke="transparent" points="141.5,-40.2 141.5,-59.2 231.5,-59.2 231.5,-40.2 141.5,-40.2"/>
<polygon fill="none" stroke="#000000" points="141.5,-40.2 141.5,-59.2 231.5,-59.2 231.5,-40.2 141.5,-40.2"/>
<text text-anchor="start" x="212.9053" y="-46.3" font-family="Helvetica,sans-Serif" font-size="11.00" fill="#000000">2 &gt;</text>
<polygon fill="none" stroke="#000000" stroke-width="2" points="9,-39.2 9,-171.2 232,-171.2 232,-39.2 9,-39.2"/>
</a>
</g>
</g>
<!-- AspNetRoleClaims&#45;&gt;AspNetRoles -->
<g id="edge1" class="edge">
<title>AspNetRoleClaims:w&#45;&gt;AspNetRoles:e</title>
<path fill="none" stroke="#000000" d="M267.925,-116.3981C255.4965,-122.7178 250.3824,-136.2 231.5,-136.2"/>
<polygon fill="#000000" stroke="#000000" points="274.1988,-114.9726 282.7977,-116.7105 278.0994,-114.0863 282,-113.2 282,-113.2 282,-113.2 278.0994,-114.0863 281.2023,-109.6895 274.1988,-114.9726 274.1988,-114.9726"/>
<ellipse fill="none" stroke="#000000" cx="271.0784" cy="-115.6816" rx="3.2" ry="3.2"/>
</g>
<!-- AspNetUserRoles -->
<g id="node3" class="node">
<title>AspNetUserRoles</title>
<g id="a_node3"><a xlink:href="../../tables/AspNetUserRoles.html" xlink:title="AspNetUserRoles" target="_top">
<polygon fill="#ffffff" stroke="transparent" points="285,-191.2 285,-277.2 425,-277.2 425,-191.2 285,-191.2"/>
<polygon fill="#f5f5f5" stroke="transparent" points="285,-254.2 285,-277.2 425,-277.2 425,-254.2 285,-254.2"/>
<polygon fill="none" stroke="#000000" points="285,-254.2 285,-277.2 425,-277.2 425,-254.2 285,-254.2"/>
<text text-anchor="start" x="290" y="-262.8" font-family="Helvetica,sans-Serif" font-weight="bold" font-size="11.00" fill="#000000">AspNetUserRoles</text>
<text text-anchor="start" x="390.5219" y="-262.3" font-family="Helvetica,sans-Serif" font-size="11.00" fill="#000000">[table]</text>
<polygon fill="none" stroke="#000000" points="285,-232.2 285,-254.2 425,-254.2 425,-232.2 285,-232.2"/>
<image xlink:href="../../images/primaryKeys.png" width="11px" height="12px" preserveAspectRatio="xMinYMin meet" x="290" y="-249.2"/>
<text text-anchor="start" x="314" y="-239.3" font-family="Helvetica,sans-Serif" font-size="11.00" fill="#000000">UserId</text>
<polygon fill="none" stroke="#000000" points="285,-210.2 285,-232.2 425,-232.2 425,-210.2 285,-210.2"/>
<image xlink:href="../../images/primaryKeys.png" width="11px" height="12px" preserveAspectRatio="xMinYMin meet" x="290" y="-227.2"/>
<text text-anchor="start" x="314" y="-217.3" font-family="Helvetica,sans-Serif" font-size="11.00" fill="#000000">RoleId</text>
<polygon fill="#ffffff" stroke="transparent" points="285,-191.2 285,-210.2 340,-210.2 340,-191.2 285,-191.2"/>
<polygon fill="none" stroke="#000000" points="285,-191.2 285,-210.2 340,-210.2 340,-191.2 285,-191.2"/>
<text text-anchor="start" x="288" y="-197.3" font-family="Helvetica,sans-Serif" font-size="11.00" fill="#000000">&lt; 2</text>
<polygon fill="#ffffff" stroke="transparent" points="340,-191.2 340,-210.2 395,-210.2 395,-191.2 340,-191.2"/>
<polygon fill="none" stroke="#000000" points="340,-191.2 340,-210.2 395,-210.2 395,-191.2 340,-191.2"/>
<text text-anchor="start" x="359.6105" y="-197.3" font-family="Helvetica,sans-Serif" font-size="11.00" fill="#000000">0 rows</text>
<polygon fill="#ffffff" stroke="transparent" points="395,-191.2 395,-210.2 425,-210.2 425,-191.2 395,-191.2"/>
<polygon fill="none" stroke="#000000" points="395,-191.2 395,-210.2 425,-210.2 425,-191.2 395,-191.2"/>
<text text-anchor="start" x="415.8862" y="-197.3" font-family="Helvetica,sans-Serif" font-size="11.00" fill="#000000"> &#160;</text>
</a>
</g>
</g>
<!-- AspNetUserRoles&#45;&gt;AspNetRoles -->
<g id="edge2" class="edge">
<title>AspNetUserRoles:w&#45;&gt;AspNetRoles:e</title>
<path fill="none" stroke="#000000" d="M271.0931,-217.1003C248.4466,-200.1212 270.2094,-136.2 231.5,-136.2"/>
<polygon fill="#000000" stroke="#000000" points="277.3265,-218.9378 283.982,-224.6531 281.1632,-220.0689 285,-221.2 285,-221.2 285,-221.2 281.1632,-220.0689 286.018,-217.7469 277.3265,-218.9378 277.3265,-218.9378"/>
<ellipse fill="none" stroke="#000000" cx="274.2571" cy="-218.033" rx="3.2" ry="3.2"/>
</g>
<!-- AspNetUsers -->
<g id="node4" class="node">
<title>AspNetUsers</title>
<g id="a_node4"><a xlink:href="../../tables/AspNetUsers.html" xlink:title="AspNetUsers" target="_top">
<polygon fill="#ffffff" stroke="transparent" points="63.5,-215.7 63.5,-276.7 177.5,-276.7 177.5,-215.7 63.5,-215.7"/>
<polygon fill="#f5f5f5" stroke="transparent" points="63.5,-253.2 63.5,-276.2 177.5,-276.2 177.5,-253.2 63.5,-253.2"/>
<polygon fill="none" stroke="#000000" points="63.5,-253.2 63.5,-276.2 177.5,-276.2 177.5,-253.2 63.5,-253.2"/>
<text text-anchor="start" x="68.5" y="-261.8" font-family="Helvetica,sans-Serif" font-weight="bold" font-size="11.00" fill="#000000">AspNetUsers</text>
<text text-anchor="start" x="143.0219" y="-261.3" font-family="Helvetica,sans-Serif" font-size="11.00" fill="#000000">[table]</text>
<polygon fill="none" stroke="#000000" points="63.5,-234.2 63.5,-253.2 177.5,-253.2 177.5,-234.2 63.5,-234.2"/>
<text text-anchor="start" x="66.5" y="-240.3" font-family="Helvetica,sans-Serif" font-size="11.00" fill="#000000">...</text>
<polygon fill="#ffffff" stroke="transparent" points="63.5,-215.2 63.5,-234.2 93.5,-234.2 93.5,-215.2 63.5,-215.2"/>
<polygon fill="none" stroke="#000000" points="63.5,-215.2 63.5,-234.2 93.5,-234.2 93.5,-215.2 63.5,-215.2"/>
<text text-anchor="start" x="66.5" y="-221.3" font-family="Helvetica,sans-Serif" font-size="11.00" fill="#000000"> &#160;</text>
<polygon fill="#ffffff" stroke="transparent" points="93.5,-215.2 93.5,-234.2 140.5,-234.2 140.5,-215.2 93.5,-215.2"/>
<polygon fill="none" stroke="#000000" points="93.5,-215.2 93.5,-234.2 140.5,-234.2 140.5,-215.2 93.5,-215.2"/>
<text text-anchor="start" x="105.1105" y="-221.3" font-family="Helvetica,sans-Serif" font-size="11.00" fill="#000000">0 rows</text>
<polygon fill="#ffffff" stroke="transparent" points="140.5,-215.2 140.5,-234.2 177.5,-234.2 177.5,-215.2 140.5,-215.2"/>
<polygon fill="none" stroke="#000000" points="140.5,-215.2 140.5,-234.2 177.5,-234.2 177.5,-215.2 140.5,-215.2"/>
<text text-anchor="start" x="152.7904" y="-221.3" font-family="Helvetica,sans-Serif" font-size="11.00" fill="#000000">29 &gt;</text>
</a>
</g>
</g>
<!-- AspNetUserRoles&#45;&gt;AspNetUsers -->
<g id="edge3" class="edge">
<title>AspNetUserRoles:w&#45;&gt;AspNetUsers:e</title>
<path fill="none" stroke="#000000" d="M270.5152,-243.2C234.1807,-243.2 220.0521,-243.2 177.5,-243.2"/>
<polygon fill="#000000" stroke="#000000" points="277,-243.2001 285,-246.8 281,-243.2 285,-243.2 285,-243.2 285,-243.2 281,-243.2 285,-239.6 277,-243.2001 277,-243.2001"/>
<ellipse fill="none" stroke="#000000" cx="273.8" cy="-243.2001" rx="3.2" ry="3.2"/>
</g>
</g>
</svg>
