<?xml version="1.0" encoding="UTF-8" standalone="no"?>
<!DOCTYPE svg PUBLIC "-//W3C//DTD SVG 1.1//EN"
 "http://www.w3.org/Graphics/SVG/1.1/DTD/svg11.dtd">
<!-- Generated by graphviz version 2.40.1 (20161225.0304)
 -->
<!-- Title: twoDegreesRelationshipsDiagram Pages: 1 -->
<svg width="1219pt" height="1193pt"
 viewBox="0.00 0.00 1219.00 1193.41" xmlns="http://www.w3.org/2000/svg" xmlns:xlink="http://www.w3.org/1999/xlink">
<g id="graph0" class="graph" transform="scale(1 1) rotate(0) translate(4 1189.4091)">
<title>twoDegreesRelationshipsDiagram</title>
<polygon fill="#ffffff" stroke="transparent" points="-4,4 -4,-1189.4091 1215,-1189.4091 1215,4 -4,4"/>
<text text-anchor="middle" x="72.4936" y="-7.3" font-family="Helvetica,sans-Serif" font-size="11.00" fill="#000000">Generated by SchemaSpy</text>
<!-- AspNetRoleClaims -->
<g id="node1" class="node">
<title>AspNetRoleClaims</title>
<g id="a_node1"><a xlink:href="../../tables/AspNetRoleClaims.html" xlink:title="AspNetRoleClaims" target="_top">
<polygon fill="#ffffff" stroke="transparent" points="255,-1120.4091 255,-1181.4091 401,-1181.4091 401,-1120.4091 255,-1120.4091"/>
<polygon fill="#f5f5f5" stroke="transparent" points="255,-1157.9091 255,-1180.9091 401,-1180.9091 401,-1157.9091 255,-1157.9091"/>
<polygon fill="none" stroke="#000000" points="255,-1157.9091 255,-1180.9091 401,-1180.9091 401,-1157.9091 255,-1157.9091"/>
<text text-anchor="start" x="260" y="-1166.5091" font-family="Helvetica,sans-Serif" font-weight="bold" font-size="11.00" fill="#000000">AspNetRoleClaims</text>
<text text-anchor="start" x="366.5219" y="-1166.0091" font-family="Helvetica,sans-Serif" font-size="11.00" fill="#000000">[table]</text>
<polygon fill="none" stroke="#000000" points="255,-1138.9091 255,-1157.9091 401,-1157.9091 401,-1138.9091 255,-1138.9091"/>
<text text-anchor="start" x="258" y="-1145.0091" font-family="Helvetica,sans-Serif" font-size="11.00" fill="#000000">...</text>
<polygon fill="#ffffff" stroke="transparent" points="255,-1119.9091 255,-1138.9091 313,-1138.9091 313,-1119.9091 255,-1119.9091"/>
<polygon fill="none" stroke="#000000" points="255,-1119.9091 255,-1138.9091 313,-1138.9091 313,-1119.9091 255,-1119.9091"/>
<text text-anchor="start" x="258" y="-1126.0091" font-family="Helvetica,sans-Serif" font-size="11.00" fill="#000000">&lt; 1</text>
<polygon fill="#ffffff" stroke="transparent" points="313,-1119.9091 313,-1138.9091 370,-1138.9091 370,-1119.9091 313,-1119.9091"/>
<polygon fill="none" stroke="#000000" points="313,-1119.9091 313,-1138.9091 370,-1138.9091 370,-1119.9091 313,-1119.9091"/>
<text text-anchor="start" x="334.6105" y="-1126.0091" font-family="Helvetica,sans-Serif" font-size="11.00" fill="#000000">0 rows</text>
<polygon fill="#ffffff" stroke="transparent" points="370,-1119.9091 370,-1138.9091 401,-1138.9091 401,-1119.9091 370,-1119.9091"/>
<polygon fill="none" stroke="#000000" points="370,-1119.9091 370,-1138.9091 401,-1138.9091 401,-1119.9091 370,-1119.9091"/>
<text text-anchor="start" x="391.8862" y="-1126.0091" font-family="Helvetica,sans-Serif" font-size="11.00" fill="#000000"> &#160;</text>
</a>
</g>
</g>
<!-- AspNetRoles -->
<g id="node2" class="node">
<title>AspNetRoles</title>
<g id="a_node2"><a xlink:href="../../tables/AspNetRoles.html" xlink:title="AspNetRoles" target="_top">
<polygon fill="#ffffff" stroke="transparent" points="24,-1023.4091 24,-1128.4091 155,-1128.4091 155,-1023.4091 24,-1023.4091"/>
<polygon fill="#f5f5f5" stroke="transparent" points="24.5,-1104.9091 24.5,-1127.9091 155.5,-1127.9091 155.5,-1104.9091 24.5,-1104.9091"/>
<polygon fill="none" stroke="#000000" points="24.5,-1104.9091 24.5,-1127.9091 155.5,-1127.9091 155.5,-1104.9091 24.5,-1104.9091"/>
<text text-anchor="start" x="29.5" y="-1113.5091" font-family="Helvetica,sans-Serif" font-weight="bold" font-size="11.00" fill="#000000">AspNetRoles</text>
<text text-anchor="start" x="120.5437" y="-1113.0091" font-family="Helvetica,sans-Serif" font-size="11.00" fill="#000000">[table]</text>
<polygon fill="none" stroke="#000000" points="24.5,-1082.9091 24.5,-1104.9091 155.5,-1104.9091 155.5,-1082.9091 24.5,-1082.9091"/>
<image xlink:href="../../images/primaryKeys.png" width="11px" height="12px" preserveAspectRatio="xMinYMin meet" x="29.5" y="-1099.91"/>
<text text-anchor="start" x="44.5" y="-1090.0091" font-family="Helvetica,sans-Serif" font-size="11.00" fill="#000000">Id</text>
<polygon fill="#ffffff" stroke="transparent" points="24.5,-1060.9091 24.5,-1082.9091 155.5,-1082.9091 155.5,-1060.9091 24.5,-1060.9091"/>
<polygon fill="none" stroke="#000000" points="24.5,-1060.9091 24.5,-1082.9091 155.5,-1082.9091 155.5,-1060.9091 24.5,-1060.9091"/>
<text text-anchor="start" x="44.5" y="-1068.0091" font-family="Helvetica,sans-Serif" font-size="11.00" fill="#000000">NormalizedName</text>
<polygon fill="none" stroke="#000000" points="24.5,-1041.9091 24.5,-1060.9091 155.5,-1060.9091 155.5,-1041.9091 24.5,-1041.9091"/>
<text text-anchor="start" x="27.5" y="-1048.0091" font-family="Helvetica,sans-Serif" font-size="11.00" fill="#000000">...</text>
<polygon fill="#ffffff" stroke="transparent" points="24.5,-1022.9091 24.5,-1041.9091 66.5,-1041.9091 66.5,-1022.9091 24.5,-1022.9091"/>
<polygon fill="none" stroke="#000000" points="24.5,-1022.9091 24.5,-1041.9091 66.5,-1041.9091 66.5,-1022.9091 24.5,-1022.9091"/>
<text text-anchor="start" x="27.5" y="-1029.0091" font-family="Helvetica,sans-Serif" font-size="11.00" fill="#000000"> &#160;</text>
<polygon fill="#ffffff" stroke="transparent" points="66.5,-1022.9091 66.5,-1041.9091 119.5,-1041.9091 119.5,-1022.9091 66.5,-1022.9091"/>
<polygon fill="none" stroke="#000000" points="66.5,-1022.9091 66.5,-1041.9091 119.5,-1041.9091 119.5,-1022.9091 66.5,-1022.9091"/>
<text text-anchor="start" x="84.1105" y="-1029.0091" font-family="Helvetica,sans-Serif" font-size="11.00" fill="#000000">0 rows</text>
<polygon fill="#ffffff" stroke="transparent" points="119.5,-1022.9091 119.5,-1041.9091 155.5,-1041.9091 155.5,-1022.9091 119.5,-1022.9091"/>
<polygon fill="none" stroke="#000000" points="119.5,-1022.9091 119.5,-1041.9091 155.5,-1041.9091 155.5,-1022.9091 119.5,-1022.9091"/>
<text text-anchor="start" x="136.9053" y="-1029.0091" font-family="Helvetica,sans-Serif" font-size="11.00" fill="#000000">2 &gt;</text>
</a>
</g>
</g>
<!-- AspNetRoleClaims&#45;&gt;AspNetRoles -->
<g id="edge1" class="edge">
<title>AspNetRoleClaims:w&#45;&gt;AspNetRoles:e</title>
<path fill="none" stroke="#000000" d="M240.6761,-1146.2338C204.3511,-1137.1191 200.5084,-1093.9091 155.5,-1093.9091"/>
<polygon fill="#000000" stroke="#000000" points="247.0542,-1146.9797 254.5818,-1151.4847 251.0271,-1147.4444 255,-1147.9091 255,-1147.9091 255,-1147.9091 251.0271,-1147.4444 255.4182,-1144.3335 247.0542,-1146.9797 247.0542,-1146.9797"/>
<ellipse fill="none" stroke="#000000" cx="243.8758" cy="-1146.6079" rx="3.2" ry="3.2"/>
</g>
<!-- AspNetUserClaims -->
<g id="node3" class="node">
<title>AspNetUserClaims</title>
<g id="a_node3"><a xlink:href="../../tables/AspNetUserClaims.html" xlink:title="AspNetUserClaims" target="_top">
<polygon fill="#ffffff" stroke="transparent" points="254.5,-648.4091 254.5,-709.4091 401.5,-709.4091 401.5,-648.4091 254.5,-648.4091"/>
<polygon fill="#f5f5f5" stroke="transparent" points="255,-685.9091 255,-708.9091 402,-708.9091 402,-685.9091 255,-685.9091"/>
<polygon fill="none" stroke="#000000" points="255,-685.9091 255,-708.9091 402,-708.9091 402,-685.9091 255,-685.9091"/>
<text text-anchor="start" x="260" y="-694.5091" font-family="Helvetica,sans-Serif" font-weight="bold" font-size="11.00" fill="#000000">AspNetUserClaims</text>
<text text-anchor="start" x="367.5219" y="-694.0091" font-family="Helvetica,sans-Serif" font-size="11.00" fill="#000000">[table]</text>
<polygon fill="none" stroke="#000000" points="255,-666.9091 255,-685.9091 402,-685.9091 402,-666.9091 255,-666.9091"/>
<text text-anchor="start" x="258" y="-673.0091" font-family="Helvetica,sans-Serif" font-size="11.00" fill="#000000">...</text>
<polygon fill="#ffffff" stroke="transparent" points="255,-647.9091 255,-666.9091 314,-666.9091 314,-647.9091 255,-647.9091"/>
<polygon fill="none" stroke="#000000" points="255,-647.9091 255,-666.9091 314,-666.9091 314,-647.9091 255,-647.9091"/>
<text text-anchor="start" x="258" y="-654.0091" font-family="Helvetica,sans-Serif" font-size="11.00" fill="#000000">&lt; 1</text>
<polygon fill="#ffffff" stroke="transparent" points="314,-647.9091 314,-666.9091 371,-666.9091 371,-647.9091 314,-647.9091"/>
<polygon fill="none" stroke="#000000" points="314,-647.9091 314,-666.9091 371,-666.9091 371,-647.9091 314,-647.9091"/>
<text text-anchor="start" x="335.6105" y="-654.0091" font-family="Helvetica,sans-Serif" font-size="11.00" fill="#000000">0 rows</text>
<polygon fill="#ffffff" stroke="transparent" points="371,-647.9091 371,-666.9091 402,-666.9091 402,-647.9091 371,-647.9091"/>
<polygon fill="none" stroke="#000000" points="371,-647.9091 371,-666.9091 402,-666.9091 402,-647.9091 371,-647.9091"/>
<text text-anchor="start" x="392.8862" y="-654.0091" font-family="Helvetica,sans-Serif" font-size="11.00" fill="#000000"> &#160;</text>
</a>
</g>
</g>
<!-- AspNetUsers -->
<g id="node4" class="node">
<title>AspNetUsers</title>
<g id="a_node4"><a xlink:href="../../tables/AspNetUsers.html" xlink:title="AspNetUsers" target="_top">
<polygon fill="#ffffff" stroke="transparent" points="8,-501.4091 8,-628.4091 171,-628.4091 171,-501.4091 8,-501.4091"/>
<polygon fill="#f5f5f5" stroke="transparent" points="8.5,-604.9091 8.5,-627.9091 171.5,-627.9091 171.5,-604.9091 8.5,-604.9091"/>
<polygon fill="none" stroke="#000000" points="8.5,-604.9091 8.5,-627.9091 171.5,-627.9091 171.5,-604.9091 8.5,-604.9091"/>
<text text-anchor="start" x="13.5" y="-613.5091" font-family="Helvetica,sans-Serif" font-weight="bold" font-size="11.00" fill="#000000">AspNetUsers</text>
<text text-anchor="start" x="136.5437" y="-613.0091" font-family="Helvetica,sans-Serif" font-size="11.00" fill="#000000">[table]</text>
<polygon fill="none" stroke="#000000" points="8.5,-582.9091 8.5,-604.9091 171.5,-604.9091 171.5,-582.9091 8.5,-582.9091"/>
<image xlink:href="../../images/primaryKeys.png" width="11px" height="12px" preserveAspectRatio="xMinYMin meet" x="13.5" y="-599.909"/>
<text text-anchor="start" x="28.5" y="-590.0091" font-family="Helvetica,sans-Serif" font-size="11.00" fill="#000000">Id</text>
<polygon fill="#ffffff" stroke="transparent" points="8.5,-560.9091 8.5,-582.9091 171.5,-582.9091 171.5,-560.9091 8.5,-560.9091"/>
<polygon fill="none" stroke="#000000" points="8.5,-560.9091 8.5,-582.9091 171.5,-582.9091 171.5,-560.9091 8.5,-560.9091"/>
<text text-anchor="start" x="28.5" y="-568.0091" font-family="Helvetica,sans-Serif" font-size="11.00" fill="#000000">NormalizedUserName</text>
<polygon fill="#ffffff" stroke="transparent" points="8.5,-538.9091 8.5,-560.9091 171.5,-560.9091 171.5,-538.9091 8.5,-538.9091"/>
<polygon fill="none" stroke="#000000" points="8.5,-538.9091 8.5,-560.9091 171.5,-560.9091 171.5,-538.9091 8.5,-538.9091"/>
<text text-anchor="start" x="28.5" y="-546.0091" font-family="Helvetica,sans-Serif" font-size="11.00" fill="#000000">NormalizedEmail</text>
<polygon fill="none" stroke="#000000" points="8.5,-519.9091 8.5,-538.9091 171.5,-538.9091 171.5,-519.9091 8.5,-519.9091"/>
<text text-anchor="start" x="11.5" y="-526.0091" font-family="Helvetica,sans-Serif" font-size="11.00" fill="#000000">...</text>
<polygon fill="#ffffff" stroke="transparent" points="8.5,-500.9091 8.5,-519.9091 63.5,-519.9091 63.5,-500.9091 8.5,-500.9091"/>
<polygon fill="none" stroke="#000000" points="8.5,-500.9091 8.5,-519.9091 63.5,-519.9091 63.5,-500.9091 8.5,-500.9091"/>
<text text-anchor="start" x="11.5" y="-507.0091" font-family="Helvetica,sans-Serif" font-size="11.00" fill="#000000"> &#160;</text>
<polygon fill="#ffffff" stroke="transparent" points="63.5,-500.9091 63.5,-519.9091 122.5,-519.9091 122.5,-500.9091 63.5,-500.9091"/>
<polygon fill="none" stroke="#000000" points="63.5,-500.9091 63.5,-519.9091 122.5,-519.9091 122.5,-500.9091 63.5,-500.9091"/>
<text text-anchor="start" x="87.1105" y="-507.0091" font-family="Helvetica,sans-Serif" font-size="11.00" fill="#000000">0 rows</text>
<polygon fill="#ffffff" stroke="transparent" points="122.5,-500.9091 122.5,-519.9091 171.5,-519.9091 171.5,-500.9091 122.5,-500.9091"/>
<polygon fill="none" stroke="#000000" points="122.5,-500.9091 122.5,-519.9091 171.5,-519.9091 171.5,-500.9091 122.5,-500.9091"/>
<text text-anchor="start" x="146.7904" y="-507.0091" font-family="Helvetica,sans-Serif" font-size="11.00" fill="#000000">29 &gt;</text>
</a>
</g>
</g>
<!-- AspNetUserClaims&#45;&gt;AspNetUsers -->
<g id="edge2" class="edge">
<title>AspNetUserClaims:w&#45;&gt;AspNetUsers:e</title>
<path fill="none" stroke="#000000" d="M240.8075,-672.8776C228.7931,-666.5904 225.9466,-651.576 212,-637.9091 193.0168,-619.3065 198.0786,-593.9091 171.5,-593.9091"/>
<polygon fill="#000000" stroke="#000000" points="247.1765,-674.238 254.248,-679.4297 251.0882,-675.0735 255,-675.9091 255,-675.9091 255,-675.9091 251.0882,-675.0735 255.752,-672.3885 247.1765,-674.238 247.1765,-674.238"/>
<ellipse fill="none" stroke="#000000" cx="244.0471" cy="-673.5695" rx="3.2" ry="3.2"/>
</g>
<!-- AspNetUserLogins -->
<g id="node5" class="node">
<title>AspNetUserLogins</title>
<g id="a_node5"><a xlink:href="../../tables/AspNetUserLogins.html" xlink:title="AspNetUserLogins" target="_top">
<polygon fill="#ffffff" stroke="transparent" points="254.5,-566.4091 254.5,-627.4091 401.5,-627.4091 401.5,-566.4091 254.5,-566.4091"/>
<polygon fill="#f5f5f5" stroke="transparent" points="255,-603.9091 255,-626.9091 402,-626.9091 402,-603.9091 255,-603.9091"/>
<polygon fill="none" stroke="#000000" points="255,-603.9091 255,-626.9091 402,-626.9091 402,-603.9091 255,-603.9091"/>
<text text-anchor="start" x="260" y="-612.5091" font-family="Helvetica,sans-Serif" font-weight="bold" font-size="11.00" fill="#000000">AspNetUserLogins</text>
<text text-anchor="start" x="367.5219" y="-612.0091" font-family="Helvetica,sans-Serif" font-size="11.00" fill="#000000">[table]</text>
<polygon fill="none" stroke="#000000" points="255,-584.9091 255,-603.9091 402,-603.9091 402,-584.9091 255,-584.9091"/>
<text text-anchor="start" x="258" y="-591.0091" font-family="Helvetica,sans-Serif" font-size="11.00" fill="#000000">...</text>
<polygon fill="#ffffff" stroke="transparent" points="255,-565.9091 255,-584.9091 314,-584.9091 314,-565.9091 255,-565.9091"/>
<polygon fill="none" stroke="#000000" points="255,-565.9091 255,-584.9091 314,-584.9091 314,-565.9091 255,-565.9091"/>
<text text-anchor="start" x="258" y="-572.0091" font-family="Helvetica,sans-Serif" font-size="11.00" fill="#000000">&lt; 1</text>
<polygon fill="#ffffff" stroke="transparent" points="314,-565.9091 314,-584.9091 371,-584.9091 371,-565.9091 314,-565.9091"/>
<polygon fill="none" stroke="#000000" points="314,-565.9091 314,-584.9091 371,-584.9091 371,-565.9091 314,-565.9091"/>
<text text-anchor="start" x="335.6105" y="-572.0091" font-family="Helvetica,sans-Serif" font-size="11.00" fill="#000000">0 rows</text>
<polygon fill="#ffffff" stroke="transparent" points="371,-565.9091 371,-584.9091 402,-584.9091 402,-565.9091 371,-565.9091"/>
<polygon fill="none" stroke="#000000" points="371,-565.9091 371,-584.9091 402,-584.9091 402,-565.9091 371,-565.9091"/>
<text text-anchor="start" x="392.8862" y="-572.0091" font-family="Helvetica,sans-Serif" font-size="11.00" fill="#000000"> &#160;</text>
</a>
</g>
</g>
<!-- AspNetUserLogins&#45;&gt;AspNetUsers -->
<g id="edge3" class="edge">
<title>AspNetUserLogins:w&#45;&gt;AspNetUsers:e</title>
<path fill="none" stroke="#000000" d="M240.485,-593.9091C214.6256,-593.9091 203.2474,-593.9091 171.5,-593.9091"/>
<polygon fill="#000000" stroke="#000000" points="247,-593.9091 255,-597.5091 251,-593.9091 255,-593.9091 255,-593.9091 255,-593.9091 251,-593.9091 255,-590.3091 247,-593.9091 247,-593.9091"/>
<ellipse fill="none" stroke="#000000" cx="243.8" cy="-593.9092" rx="3.2" ry="3.2"/>
</g>
<!-- AspNetUserRoles -->
<g id="node6" class="node">
<title>AspNetUserRoles</title>
<g id="a_node6"><a xlink:href="../../tables/AspNetUserRoles.html" xlink:title="AspNetUserRoles" target="_top">
<polygon fill="#ffffff" stroke="transparent" points="220,-1008.9091 220,-1098.9091 436,-1098.9091 436,-1008.9091 220,-1008.9091"/>
<polygon fill="#f5f5f5" stroke="transparent" points="222,-1073.9091 222,-1096.9091 434,-1096.9091 434,-1073.9091 222,-1073.9091"/>
<polygon fill="none" stroke="#000000" points="222,-1073.9091 222,-1096.9091 434,-1096.9091 434,-1073.9091 222,-1073.9091"/>
<text text-anchor="start" x="227" y="-1082.5091" font-family="Helvetica,sans-Serif" font-weight="bold" font-size="11.00" fill="#000000">AspNetUserRoles</text>
<text text-anchor="start" x="399.0437" y="-1082.0091" font-family="Helvetica,sans-Serif" font-size="11.00" fill="#000000">[table]</text>
<polygon fill="none" stroke="#000000" points="222,-1051.9091 222,-1073.9091 344,-1073.9091 344,-1051.9091 222,-1051.9091"/>
<image xlink:href="../../images/primaryKeys.png" width="11px" height="12px" preserveAspectRatio="xMinYMin meet" x="227" y="-1068.91"/>
<text text-anchor="start" x="242" y="-1059.0091" font-family="Helvetica,sans-Serif" font-size="11.00" fill="#000000">UserId</text>
<polygon fill="none" stroke="#000000" points="344,-1051.9091 344,-1073.9091 434,-1073.9091 434,-1051.9091 344,-1051.9091"/>
<text text-anchor="start" x="346.5043" y="-1059.6091" font-family="Helvetica,sans-Serif" font-size="11.00" fill="#000000">text[2147483647]</text>
<polygon fill="none" stroke="#000000" points="222,-1029.9091 222,-1051.9091 344,-1051.9091 344,-1029.9091 222,-1029.9091"/>
<image xlink:href="../../images/primaryKeys.png" width="11px" height="12px" preserveAspectRatio="xMinYMin meet" x="227" y="-1046.91"/>
<text text-anchor="start" x="242" y="-1037.0091" font-family="Helvetica,sans-Serif" font-size="11.00" fill="#000000">RoleId</text>
<polygon fill="none" stroke="#000000" points="344,-1029.9091 344,-1051.9091 434,-1051.9091 434,-1029.9091 344,-1029.9091"/>
<text text-anchor="start" x="346.5043" y="-1037.6091" font-family="Helvetica,sans-Serif" font-size="11.00" fill="#000000">text[2147483647]</text>
<polygon fill="#ffffff" stroke="transparent" points="222,-1010.9091 222,-1029.9091 274,-1029.9091 274,-1010.9091 222,-1010.9091"/>
<polygon fill="none" stroke="#000000" points="222,-1010.9091 222,-1029.9091 274,-1029.9091 274,-1010.9091 222,-1010.9091"/>
<text text-anchor="start" x="225" y="-1017.0091" font-family="Helvetica,sans-Serif" font-size="11.00" fill="#000000">&lt; 2</text>
<polygon fill="#ffffff" stroke="transparent" points="274,-1010.9091 274,-1029.9091 344,-1029.9091 344,-1010.9091 274,-1010.9091"/>
<polygon fill="none" stroke="#000000" points="274,-1010.9091 274,-1029.9091 344,-1029.9091 344,-1010.9091 274,-1010.9091"/>
<text text-anchor="start" x="308.6105" y="-1017.0091" font-family="Helvetica,sans-Serif" font-size="11.00" fill="#000000">0 rows</text>
<polygon fill="#ffffff" stroke="transparent" points="344,-1010.9091 344,-1029.9091 434,-1029.9091 434,-1010.9091 344,-1010.9091"/>
<polygon fill="none" stroke="#000000" points="344,-1010.9091 344,-1029.9091 434,-1029.9091 434,-1010.9091 344,-1010.9091"/>
<text text-anchor="start" x="415.4053" y="-1017.0091" font-family="Helvetica,sans-Serif" font-size="11.00" fill="#000000">0 &gt;</text>
<polygon fill="none" stroke="#000000" stroke-width="2" points="221,-1009.9091 221,-1097.9091 435,-1097.9091 435,-1009.9091 221,-1009.9091"/>
</a>
</g>
</g>
<!-- AspNetUserRoles&#45;&gt;AspNetRoles -->
<g id="edge4" class="edge">
<title>AspNetUserRoles:w&#45;&gt;AspNetRoles:e</title>
<path fill="none" stroke="#000000" d="M207.6596,-1044.2245C185.8869,-1055.8275 187.5364,-1093.9091 155.5,-1093.9091"/>
<polygon fill="#000000" stroke="#000000" points="214.2056,-1042.7111 222.8109,-1044.4166 218.1028,-1041.8101 222,-1040.9091 222,-1040.9091 222,-1040.9091 218.1028,-1041.8101 221.1891,-1037.4016 214.2056,-1042.7111 214.2056,-1042.7111"/>
<ellipse fill="none" stroke="#000000" cx="211.0878" cy="-1043.432" rx="3.2" ry="3.2"/>
</g>
<!-- AspNetUserRoles&#45;&gt;AspNetUsers -->
<g id="edge5" class="edge">
<title>AspNetUserRoles:w&#45;&gt;AspNetUsers:e</title>
<path fill="none" stroke="#000000" d="M208.0036,-1059.4036C132.6582,-1016.4857 271.0015,-593.9091 171.5,-593.9091"/>
<polygon fill="#000000" stroke="#000000" points="214.2397,-1060.9654 221.1254,-1066.4012 218.1198,-1061.9373 222,-1062.9091 222,-1062.9091 222,-1062.9091 218.1198,-1061.9373 222.8746,-1059.417 214.2397,-1060.9654 214.2397,-1060.9654"/>
<ellipse fill="none" stroke="#000000" cx="211.1356" cy="-1060.188" rx="3.2" ry="3.2"/>
</g>
<!-- AspNetUserTokens -->
<g id="node7" class="node">
<title>AspNetUserTokens</title>
<g id="a_node7"><a xlink:href="../../tables/AspNetUserTokens.html" xlink:title="AspNetUserTokens" target="_top">
<polygon fill="#ffffff" stroke="transparent" points="253.5,-484.4091 253.5,-545.4091 402.5,-545.4091 402.5,-484.4091 253.5,-484.4091"/>
<polygon fill="#f5f5f5" stroke="transparent" points="254,-521.9091 254,-544.9091 403,-544.9091 403,-521.9091 254,-521.9091"/>
<polygon fill="none" stroke="#000000" points="254,-521.9091 254,-544.9091 403,-544.9091 403,-521.9091 254,-521.9091"/>
<text text-anchor="start" x="259" y="-530.5091" font-family="Helvetica,sans-Serif" font-weight="bold" font-size="11.00" fill="#000000">AspNetUserTokens</text>
<text text-anchor="start" x="368.5219" y="-530.0091" font-family="Helvetica,sans-Serif" font-size="11.00" fill="#000000">[table]</text>
<polygon fill="none" stroke="#000000" points="254,-502.9091 254,-521.9091 403,-521.9091 403,-502.9091 254,-502.9091"/>
<text text-anchor="start" x="257" y="-509.0091" font-family="Helvetica,sans-Serif" font-size="11.00" fill="#000000">...</text>
<polygon fill="#ffffff" stroke="transparent" points="254,-483.9091 254,-502.9091 314,-502.9091 314,-483.9091 254,-483.9091"/>
<polygon fill="none" stroke="#000000" points="254,-483.9091 254,-502.9091 314,-502.9091 314,-483.9091 254,-483.9091"/>
<text text-anchor="start" x="257" y="-490.0091" font-family="Helvetica,sans-Serif" font-size="11.00" fill="#000000">&lt; 1</text>
<polygon fill="#ffffff" stroke="transparent" points="314,-483.9091 314,-502.9091 371,-502.9091 371,-483.9091 314,-483.9091"/>
<polygon fill="none" stroke="#000000" points="314,-483.9091 314,-502.9091 371,-502.9091 371,-483.9091 314,-483.9091"/>
<text text-anchor="start" x="335.6105" y="-490.0091" font-family="Helvetica,sans-Serif" font-size="11.00" fill="#000000">0 rows</text>
<polygon fill="#ffffff" stroke="transparent" points="371,-483.9091 371,-502.9091 403,-502.9091 403,-483.9091 371,-483.9091"/>
<polygon fill="none" stroke="#000000" points="371,-483.9091 371,-502.9091 403,-502.9091 403,-483.9091 371,-483.9091"/>
<text text-anchor="start" x="393.8862" y="-490.0091" font-family="Helvetica,sans-Serif" font-size="11.00" fill="#000000"> &#160;</text>
</a>
</g>
</g>
<!-- AspNetUserTokens&#45;&gt;AspNetUsers -->
<g id="edge6" class="edge">
<title>AspNetUserTokens:w&#45;&gt;AspNetUsers:e</title>
<path fill="none" stroke="#000000" d="M239.452,-514.6374C206.0048,-528.8656 217.5432,-593.9091 171.5,-593.9091"/>
<polygon fill="#000000" stroke="#000000" points="246.1371,-513.3837 254.6636,-515.4474 250.0685,-512.6464 254,-511.9091 254,-511.9091 254,-511.9091 250.0685,-512.6464 253.3364,-508.3708 246.1371,-513.3837 246.1371,-513.3837"/>
<ellipse fill="none" stroke="#000000" cx="242.9919" cy="-513.9736" rx="3.2" ry="3.2"/>
</g>
<!-- Competencies -->
<g id="node8" class="node">
<title>Competencies</title>
<g id="a_node8"><a xlink:href="../../tables/Competencies.html" xlink:title="Competencies" target="_top">
<polygon fill="#ffffff" stroke="transparent" points="267.5,-770.4091 267.5,-831.4091 388.5,-831.4091 388.5,-770.4091 267.5,-770.4091"/>
<polygon fill="#f5f5f5" stroke="transparent" points="268,-807.9091 268,-830.9091 389,-830.9091 389,-807.9091 268,-807.9091"/>
<polygon fill="none" stroke="#000000" points="268,-807.9091 268,-830.9091 389,-830.9091 389,-807.9091 268,-807.9091"/>
<text text-anchor="start" x="273" y="-816.5091" font-family="Helvetica,sans-Serif" font-weight="bold" font-size="11.00" fill="#000000">Competencies</text>
<text text-anchor="start" x="354.5219" y="-816.0091" font-family="Helvetica,sans-Serif" font-size="11.00" fill="#000000">[table]</text>
<polygon fill="none" stroke="#000000" points="268,-788.9091 268,-807.9091 389,-807.9091 389,-788.9091 268,-788.9091"/>
<text text-anchor="start" x="271" y="-795.0091" font-family="Helvetica,sans-Serif" font-size="11.00" fill="#000000">...</text>
<polygon fill="#ffffff" stroke="transparent" points="268,-769.9091 268,-788.9091 309,-788.9091 309,-769.9091 268,-769.9091"/>
<polygon fill="none" stroke="#000000" points="268,-769.9091 268,-788.9091 309,-788.9091 309,-769.9091 268,-769.9091"/>
<text text-anchor="start" x="271" y="-776.0091" font-family="Helvetica,sans-Serif" font-size="11.00" fill="#000000">&lt; 2</text>
<polygon fill="#ffffff" stroke="transparent" points="309,-769.9091 309,-788.9091 357,-788.9091 357,-769.9091 309,-769.9091"/>
<polygon fill="none" stroke="#000000" points="309,-769.9091 309,-788.9091 357,-788.9091 357,-769.9091 309,-769.9091"/>
<text text-anchor="start" x="321.6105" y="-776.0091" font-family="Helvetica,sans-Serif" font-size="11.00" fill="#000000">0 rows</text>
<polygon fill="#ffffff" stroke="transparent" points="357,-769.9091 357,-788.9091 389,-788.9091 389,-769.9091 357,-769.9091"/>
<polygon fill="none" stroke="#000000" points="357,-769.9091 357,-788.9091 389,-788.9091 389,-769.9091 357,-769.9091"/>
<text text-anchor="start" x="370.4053" y="-776.0091" font-family="Helvetica,sans-Serif" font-size="11.00" fill="#000000">4 &gt;</text>
</a>
</g>
</g>
<!-- Competencies&#45;&gt;AspNetUsers -->
<g id="edge7" class="edge">
<title>Competencies:w&#45;&gt;AspNetUsers:e</title>
<path fill="none" stroke="#000000" d="M253.8675,-793.9231C233.9674,-786.0904 226.2512,-771.3726 212,-749.9091 170.9477,-688.081 245.7159,-587.9091 171.5,-593.9091"/>
<polygon fill="#000000" stroke="#000000" points="260.3004,-795.7374 267.0227,-801.3739 264.1502,-796.8233 268,-797.9091 268,-797.9091 268,-797.9091 264.1502,-796.8233 268.9773,-794.4443 260.3004,-795.7374 260.3004,-795.7374"/>
<ellipse fill="none" stroke="#000000" cx="257.2205" cy="-794.8688" rx="3.2" ry="3.2"/>
</g>
<!-- Competencies&#45;&gt;AspNetUsers -->
<g id="edge8" class="edge">
<title>Competencies:w&#45;&gt;AspNetUsers:e</title>
<path fill="none" stroke="#000000" d="M253.5867,-799.5328C233.8945,-798.9514 226.184,-784.2713 212,-762.9091 170.9477,-701.081 245.7159,-600.9091 171.5,-593.9091"/>
<polygon fill="#000000" stroke="#000000" points="260.0503,-798.8047 268.403,-801.4865 264.0251,-798.3569 268,-797.9091 268,-797.9091 268,-797.9091 264.0251,-798.3569 267.597,-794.3317 260.0503,-798.8047 260.0503,-798.8047"/>
<ellipse fill="none" stroke="#000000" cx="256.8704" cy="-799.163" rx="3.2" ry="3.2"/>
</g>
<!-- CompetencyLevelDescriptions -->
<g id="node9" class="node">
<title>CompetencyLevelDescriptions</title>
<g id="a_node9"><a xlink:href="../../tables/CompetencyLevelDescriptions.html" xlink:title="CompetencyLevelDescriptions" target="_top">
<polygon fill="#ffffff" stroke="transparent" points="499,-848.4091 499,-909.4091 713,-909.4091 713,-848.4091 499,-848.4091"/>
<polygon fill="#f5f5f5" stroke="transparent" points="499,-885.9091 499,-908.9091 713,-908.9091 713,-885.9091 499,-885.9091"/>
<polygon fill="none" stroke="#000000" points="499,-885.9091 499,-908.9091 713,-908.9091 713,-885.9091 499,-885.9091"/>
<text text-anchor="start" x="504" y="-894.5091" font-family="Helvetica,sans-Serif" font-weight="bold" font-size="11.00" fill="#000000">CompetencyLevelDescriptions</text>
<text text-anchor="start" x="678.5219" y="-894.0091" font-family="Helvetica,sans-Serif" font-size="11.00" fill="#000000">[table]</text>
<polygon fill="none" stroke="#000000" points="499,-866.9091 499,-885.9091 713,-885.9091 713,-866.9091 499,-866.9091"/>
<text text-anchor="start" x="502" y="-873.0091" font-family="Helvetica,sans-Serif" font-size="11.00" fill="#000000">...</text>
<polygon fill="#ffffff" stroke="transparent" points="499,-847.9091 499,-866.9091 591,-866.9091 591,-847.9091 499,-847.9091"/>
<polygon fill="none" stroke="#000000" points="499,-847.9091 499,-866.9091 591,-866.9091 591,-847.9091 499,-847.9091"/>
<text text-anchor="start" x="502" y="-854.0091" font-family="Helvetica,sans-Serif" font-size="11.00" fill="#000000">&lt; 3</text>
<polygon fill="#ffffff" stroke="transparent" points="591,-847.9091 591,-866.9091 665,-866.9091 665,-847.9091 591,-847.9091"/>
<polygon fill="none" stroke="#000000" points="591,-847.9091 591,-866.9091 665,-866.9091 665,-847.9091 591,-847.9091"/>
<text text-anchor="start" x="629.6105" y="-854.0091" font-family="Helvetica,sans-Serif" font-size="11.00" fill="#000000">0 rows</text>
<polygon fill="#ffffff" stroke="transparent" points="665,-847.9091 665,-866.9091 713,-866.9091 713,-847.9091 665,-847.9091"/>
<polygon fill="none" stroke="#000000" points="665,-847.9091 665,-866.9091 713,-866.9091 713,-847.9091 665,-847.9091"/>
<text text-anchor="start" x="703.8862" y="-854.0091" font-family="Helvetica,sans-Serif" font-size="11.00" fill="#000000"> &#160;</text>
</a>
</g>
</g>
<!-- CompetencyLevelDescriptions&#45;&gt;AspNetUsers -->
<g id="edge10" class="edge">
<title>CompetencyLevelDescriptions:w&#45;&gt;AspNetUsers:e</title>
<path fill="none" stroke="#000000" d="M484.3368,-876.2575C366.4041,-881.8523 304.0422,-951.8838 212,-870.9091 165.2925,-829.8178 233.71,-593.9091 171.5,-593.9091"/>
<polygon fill="#000000" stroke="#000000" points="491.0023,-876.0992 499.0855,-879.5081 495.0011,-876.0041 499,-875.9091 499,-875.9091 499,-875.9091 495.0011,-876.0041 498.9145,-872.3101 491.0023,-876.0992 491.0023,-876.0992"/>
<ellipse fill="none" stroke="#000000" cx="487.8032" cy="-876.1752" rx="3.2" ry="3.2"/>
</g>
<!-- CompetencyLevelDescriptions&#45;&gt;AspNetUsers -->
<g id="edge11" class="edge">
<title>CompetencyLevelDescriptions:w&#45;&gt;AspNetUsers:e</title>
<path fill="none" stroke="#000000" d="M484.33,-876.2423C366.3289,-881.5904 303.5927,-948.4546 212,-866.9091 166.1932,-826.127 232.8306,-593.9091 171.5,-593.9091"/>
<polygon fill="#000000" stroke="#000000" points="491.0021,-876.0908 499.0818,-879.5082 495.001,-875.9999 499,-875.9091 499,-875.9091 499,-875.9091 495.001,-875.9999 498.9182,-872.31 491.0021,-876.0908 491.0021,-876.0908"/>
<ellipse fill="none" stroke="#000000" cx="487.8029" cy="-876.1635" rx="3.2" ry="3.2"/>
</g>
<!-- CompetencyLevelDescriptions&#45;&gt;Competencies -->
<g id="edge9" class="edge">
<title>CompetencyLevelDescriptions:w&#45;&gt;Competencies:e</title>
<path fill="none" stroke="#000000" d="M484.4353,-874.1334C440.2767,-862.5231 443.5479,-797.9091 389,-797.9091"/>
<polygon fill="#000000" stroke="#000000" points="491.0588,-874.9409 498.5643,-879.4826 495.0294,-875.425 499,-875.9091 499,-875.9091 499,-875.9091 495.0294,-875.425 499.4357,-872.3356 491.0588,-874.9409 491.0588,-874.9409"/>
<ellipse fill="none" stroke="#000000" cx="487.8823" cy="-874.5536" rx="3.2" ry="3.2"/>
</g>
<!-- Coordinators -->
<g id="node10" class="node">
<title>Coordinators</title>
<g id="a_node10"><a xlink:href="../../tables/Coordinators.html" xlink:title="Coordinators" target="_top">
<polygon fill="#ffffff" stroke="transparent" points="549,-253.4091 549,-314.4091 663,-314.4091 663,-253.4091 549,-253.4091"/>
<polygon fill="#f5f5f5" stroke="transparent" points="549,-290.9091 549,-313.9091 663,-313.9091 663,-290.9091 549,-290.9091"/>
<polygon fill="none" stroke="#000000" points="549,-290.9091 549,-313.9091 663,-313.9091 663,-290.9091 549,-290.9091"/>
<text text-anchor="start" x="554" y="-299.5091" font-family="Helvetica,sans-Serif" font-weight="bold" font-size="11.00" fill="#000000">Coordinators</text>
<text text-anchor="start" x="628.5219" y="-299.0091" font-family="Helvetica,sans-Serif" font-size="11.00" fill="#000000">[table]</text>
<polygon fill="none" stroke="#000000" points="549,-271.9091 549,-290.9091 663,-290.9091 663,-271.9091 549,-271.9091"/>
<text text-anchor="start" x="552" y="-278.0091" font-family="Helvetica,sans-Serif" font-size="11.00" fill="#000000">...</text>
<polygon fill="#ffffff" stroke="transparent" points="549,-252.9091 549,-271.9091 591,-271.9091 591,-252.9091 549,-252.9091"/>
<polygon fill="none" stroke="#000000" points="549,-252.9091 549,-271.9091 591,-271.9091 591,-252.9091 549,-252.9091"/>
<text text-anchor="start" x="552" y="-259.0091" font-family="Helvetica,sans-Serif" font-size="11.00" fill="#000000">&lt; 2</text>
<polygon fill="#ffffff" stroke="transparent" points="591,-252.9091 591,-271.9091 640,-271.9091 640,-252.9091 591,-252.9091"/>
<polygon fill="none" stroke="#000000" points="591,-252.9091 591,-271.9091 640,-271.9091 640,-252.9091 591,-252.9091"/>
<text text-anchor="start" x="604.6105" y="-259.0091" font-family="Helvetica,sans-Serif" font-size="11.00" fill="#000000">0 rows</text>
<polygon fill="#ffffff" stroke="transparent" points="640,-252.9091 640,-271.9091 663,-271.9091 663,-252.9091 640,-252.9091"/>
<polygon fill="none" stroke="#000000" points="640,-252.9091 640,-271.9091 663,-271.9091 663,-252.9091 640,-252.9091"/>
<text text-anchor="start" x="653.8862" y="-259.0091" font-family="Helvetica,sans-Serif" font-size="11.00" fill="#000000"> &#160;</text>
</a>
</g>
</g>
<!-- Coordinators&#45;&gt;AspNetUsers -->
<g id="edge13" class="edge">
<title>Coordinators:w&#45;&gt;AspNetUsers:e</title>
<path fill="none" stroke="#000000" d="M538.3867,-280.5726C456.2638,-275.7967 265.7039,-222.5002 212,-269.9091 157.6031,-317.9297 244.0603,-593.9091 171.5,-593.9091"/>
<polygon fill="#000000" stroke="#000000" points="548.3272,-276.8857 548.0736,-284.8817 546.4744,-284.831 546.728,-276.835 548.3272,-276.8857"/>
<polyline fill="none" stroke="#000000" points="549,-280.9091 545.002,-280.7823 "/>
<ellipse fill="none" stroke="#000000" cx="541.8036" cy="-280.6808" rx="3.2" ry="3.2"/>
</g>
<!-- TechnicalCareers -->
<g id="node11" class="node">
<title>TechnicalCareers</title>
<g id="a_node11"><a xlink:href="../../tables/TechnicalCareers.html" xlink:title="TechnicalCareers" target="_top">
<polygon fill="#ffffff" stroke="transparent" points="258.5,-170.4091 258.5,-231.4091 397.5,-231.4091 397.5,-170.4091 258.5,-170.4091"/>
<polygon fill="#f5f5f5" stroke="transparent" points="259,-207.9091 259,-230.9091 398,-230.9091 398,-207.9091 259,-207.9091"/>
<polygon fill="none" stroke="#000000" points="259,-207.9091 259,-230.9091 398,-230.9091 398,-207.9091 259,-207.9091"/>
<text text-anchor="start" x="264" y="-216.5091" font-family="Helvetica,sans-Serif" font-weight="bold" font-size="11.00" fill="#000000">TechnicalCareers</text>
<text text-anchor="start" x="363.5219" y="-216.0091" font-family="Helvetica,sans-Serif" font-size="11.00" fill="#000000">[table]</text>
<polygon fill="none" stroke="#000000" points="259,-188.9091 259,-207.9091 398,-207.9091 398,-188.9091 259,-188.9091"/>
<text text-anchor="start" x="262" y="-195.0091" font-family="Helvetica,sans-Serif" font-size="11.00" fill="#000000">...</text>
<polygon fill="#ffffff" stroke="transparent" points="259,-169.9091 259,-188.9091 309,-188.9091 309,-169.9091 259,-169.9091"/>
<polygon fill="none" stroke="#000000" points="259,-169.9091 259,-188.9091 309,-188.9091 309,-169.9091 259,-169.9091"/>
<text text-anchor="start" x="262" y="-176.0091" font-family="Helvetica,sans-Serif" font-size="11.00" fill="#000000">&lt; 2</text>
<polygon fill="#ffffff" stroke="transparent" points="309,-169.9091 309,-188.9091 362,-188.9091 362,-169.9091 309,-169.9091"/>
<polygon fill="none" stroke="#000000" points="309,-169.9091 309,-188.9091 362,-188.9091 362,-169.9091 309,-169.9091"/>
<text text-anchor="start" x="326.6105" y="-176.0091" font-family="Helvetica,sans-Serif" font-size="11.00" fill="#000000">0 rows</text>
<polygon fill="#ffffff" stroke="transparent" points="362,-169.9091 362,-188.9091 398,-188.9091 398,-169.9091 362,-169.9091"/>
<polygon fill="none" stroke="#000000" points="362,-169.9091 362,-188.9091 398,-188.9091 398,-169.9091 362,-169.9091"/>
<text text-anchor="start" x="379.4053" y="-176.0091" font-family="Helvetica,sans-Serif" font-size="11.00" fill="#000000">6 &gt;</text>
</a>
</g>
</g>
<!-- Coordinators&#45;&gt;TechnicalCareers -->
<g id="edge12" class="edge">
<title>Coordinators:w&#45;&gt;TechnicalCareers:e</title>
<path fill="none" stroke="#000000" d="M534.3485,-279.7985C472.3464,-269.9493 469.3462,-197.9091 398,-197.9091"/>
<polygon fill="#000000" stroke="#000000" points="541.0229,-280.3044 548.7279,-284.4988 545.0114,-280.6067 549,-280.9091 549,-280.9091 549,-280.9091 545.0114,-280.6067 549.2721,-277.3194 541.0229,-280.3044 541.0229,-280.3044"/>
<ellipse fill="none" stroke="#000000" cx="537.832" cy="-280.0625" rx="3.2" ry="3.2"/>
</g>
<!-- TechnicalCareers&#45;&gt;AspNetUsers -->
<g id="edge48" class="edge">
<title>TechnicalCareers:w&#45;&gt;AspNetUsers:e</title>
<path fill="none" stroke="#000000" d="M244.178,-197.332C227.1433,-200.3585 222.35,-218.227 212,-239.9091 178.4609,-310.1699 249.3553,-587.9091 171.5,-593.9091"/>
<polygon fill="#000000" stroke="#000000" points="251.0061,-197.5978 258.8599,-201.5064 255.003,-197.7534 259,-197.9091 259,-197.9091 259,-197.9091 255.003,-197.7534 259.1401,-194.3118 251.0061,-197.5978 251.0061,-197.5978"/>
<ellipse fill="none" stroke="#000000" cx="247.8085" cy="-197.4733" rx="3.2" ry="3.2"/>
</g>
<!-- TechnicalCareers&#45;&gt;AspNetUsers -->
<g id="edge49" class="edge">
<title>TechnicalCareers:w&#45;&gt;AspNetUsers:e</title>
<path fill="none" stroke="#000000" d="M245.4403,-202.859C227.3727,-212.4933 222.6012,-230.7007 212,-252.9091 178.4609,-323.1699 249.3553,-600.9091 171.5,-593.9091"/>
<polygon fill="#000000" stroke="#000000" points="251.4851,-200.6524 260.2345,-201.2908 255.2425,-199.2808 259,-197.9091 259,-197.9091 259,-197.9091 255.2425,-199.2808 257.7655,-194.5274 251.4851,-200.6524 251.4851,-200.6524"/>
<ellipse fill="none" stroke="#000000" cx="248.4791" cy="-201.7498" rx="3.2" ry="3.2"/>
</g>
<!-- EvaluationPeriods -->
<g id="node12" class="node">
<title>EvaluationPeriods</title>
<g id="a_node12"><a xlink:href="../../tables/EvaluationPeriods.html" xlink:title="EvaluationPeriods" target="_top">
<polygon fill="#ffffff" stroke="transparent" points="256.5,-402.4091 256.5,-463.4091 399.5,-463.4091 399.5,-402.4091 256.5,-402.4091"/>
<polygon fill="#f5f5f5" stroke="transparent" points="257,-439.9091 257,-462.9091 400,-462.9091 400,-439.9091 257,-439.9091"/>
<polygon fill="none" stroke="#000000" points="257,-439.9091 257,-462.9091 400,-462.9091 400,-439.9091 257,-439.9091"/>
<text text-anchor="start" x="262" y="-448.5091" font-family="Helvetica,sans-Serif" font-weight="bold" font-size="11.00" fill="#000000">EvaluationPeriods</text>
<text text-anchor="start" x="365.5219" y="-448.0091" font-family="Helvetica,sans-Serif" font-size="11.00" fill="#000000">[table]</text>
<polygon fill="none" stroke="#000000" points="257,-420.9091 257,-439.9091 400,-439.9091 400,-420.9091 257,-420.9091"/>
<text text-anchor="start" x="260" y="-427.0091" font-family="Helvetica,sans-Serif" font-size="11.00" fill="#000000">...</text>
<polygon fill="#ffffff" stroke="transparent" points="257,-401.9091 257,-420.9091 309,-420.9091 309,-401.9091 257,-401.9091"/>
<polygon fill="none" stroke="#000000" points="257,-401.9091 257,-420.9091 309,-420.9091 309,-401.9091 257,-401.9091"/>
<text text-anchor="start" x="260" y="-408.0091" font-family="Helvetica,sans-Serif" font-size="11.00" fill="#000000">&lt; 2</text>
<polygon fill="#ffffff" stroke="transparent" points="309,-401.9091 309,-420.9091 363,-420.9091 363,-401.9091 309,-401.9091"/>
<polygon fill="none" stroke="#000000" points="309,-401.9091 309,-420.9091 363,-420.9091 363,-401.9091 309,-401.9091"/>
<text text-anchor="start" x="327.6105" y="-408.0091" font-family="Helvetica,sans-Serif" font-size="11.00" fill="#000000">0 rows</text>
<polygon fill="#ffffff" stroke="transparent" points="363,-401.9091 363,-420.9091 400,-420.9091 400,-401.9091 363,-401.9091"/>
<polygon fill="none" stroke="#000000" points="363,-401.9091 363,-420.9091 400,-420.9091 400,-401.9091 363,-401.9091"/>
<text text-anchor="start" x="381.4053" y="-408.0091" font-family="Helvetica,sans-Serif" font-size="11.00" fill="#000000">3 &gt;</text>
</a>
</g>
</g>
<!-- EvaluationPeriods&#45;&gt;AspNetUsers -->
<g id="edge14" class="edge">
<title>EvaluationPeriods:w&#45;&gt;AspNetUsers:e</title>
<path fill="none" stroke="#000000" d="M242.3846,-429.4097C227.5566,-432.63 223.744,-449.2214 212,-467.9091 182.0493,-515.5683 227.7889,-587.9091 171.5,-593.9091"/>
<polygon fill="#000000" stroke="#000000" points="249.0047,-429.6358 256.877,-433.507 253.0023,-429.7725 257,-429.9091 257,-429.9091 257,-429.9091 253.0023,-429.7725 257.123,-426.3112 249.0047,-429.6358 249.0047,-429.6358"/>
<ellipse fill="none" stroke="#000000" cx="245.8065" cy="-429.5265" rx="3.2" ry="3.2"/>
</g>
<!-- EvaluationPeriods&#45;&gt;AspNetUsers -->
<g id="edge15" class="edge">
<title>EvaluationPeriods:w&#45;&gt;AspNetUsers:e</title>
<path fill="none" stroke="#000000" d="M243.2786,-435.4605C227.7045,-444.9737 223.9765,-461.8514 212,-480.9091 182.0493,-528.5683 227.7889,-600.9091 171.5,-593.9091"/>
<polygon fill="#000000" stroke="#000000" points="249.584,-432.9095 258.3502,-433.2463 253.292,-431.4093 257,-429.9091 257,-429.9091 257,-429.9091 253.292,-431.4093 255.6498,-426.5719 249.584,-432.9095 249.584,-432.9095"/>
<ellipse fill="none" stroke="#000000" cx="246.6175" cy="-434.1097" rx="3.2" ry="3.2"/>
</g>
<!-- FormQuestions -->
<g id="node13" class="node">
<title>FormQuestions</title>
<g id="a_node13"><a xlink:href="../../tables/FormQuestions.html" xlink:title="FormQuestions" target="_top">
<polygon fill="#ffffff" stroke="transparent" points="542.5,-766.4091 542.5,-827.4091 669.5,-827.4091 669.5,-766.4091 542.5,-766.4091"/>
<polygon fill="#f5f5f5" stroke="transparent" points="543,-803.9091 543,-826.9091 670,-826.9091 670,-803.9091 543,-803.9091"/>
<polygon fill="none" stroke="#000000" points="543,-803.9091 543,-826.9091 670,-826.9091 670,-803.9091 543,-803.9091"/>
<text text-anchor="start" x="548" y="-812.5091" font-family="Helvetica,sans-Serif" font-weight="bold" font-size="11.00" fill="#000000">FormQuestions</text>
<text text-anchor="start" x="635.5219" y="-812.0091" font-family="Helvetica,sans-Serif" font-size="11.00" fill="#000000">[table]</text>
<polygon fill="none" stroke="#000000" points="543,-784.9091 543,-803.9091 670,-803.9091 670,-784.9091 543,-784.9091"/>
<text text-anchor="start" x="546" y="-791.0091" font-family="Helvetica,sans-Serif" font-size="11.00" fill="#000000">...</text>
<polygon fill="#ffffff" stroke="transparent" points="543,-765.9091 543,-784.9091 587,-784.9091 587,-765.9091 543,-765.9091"/>
<polygon fill="none" stroke="#000000" points="543,-765.9091 543,-784.9091 587,-784.9091 587,-765.9091 543,-765.9091"/>
<text text-anchor="start" x="546" y="-772.0091" font-family="Helvetica,sans-Serif" font-size="11.00" fill="#000000">&lt; 3</text>
<polygon fill="#ffffff" stroke="transparent" points="587,-765.9091 587,-784.9091 637,-784.9091 637,-765.9091 587,-765.9091"/>
<polygon fill="none" stroke="#000000" points="587,-765.9091 587,-784.9091 637,-784.9091 637,-765.9091 587,-765.9091"/>
<text text-anchor="start" x="601.6105" y="-772.0091" font-family="Helvetica,sans-Serif" font-size="11.00" fill="#000000">0 rows</text>
<polygon fill="#ffffff" stroke="transparent" points="637,-765.9091 637,-784.9091 670,-784.9091 670,-765.9091 637,-765.9091"/>
<polygon fill="none" stroke="#000000" points="637,-765.9091 637,-784.9091 670,-784.9091 670,-765.9091 637,-765.9091"/>
<text text-anchor="start" x="651.4053" y="-772.0091" font-family="Helvetica,sans-Serif" font-size="11.00" fill="#000000">1 &gt;</text>
</a>
</g>
</g>
<!-- FormQuestions&#45;&gt;AspNetUsers -->
<g id="edge17" class="edge">
<title>FormQuestions:w&#45;&gt;AspNetUsers:e</title>
<path fill="none" stroke="#000000" d="M528.5023,-795.1563C493.0258,-801.7027 486.4459,-832.1618 444,-841.9091 343.5046,-864.9869 290.5667,-908.6861 212,-841.9091 169.4512,-805.7451 227.3412,-593.9091 171.5,-593.9091"/>
<polygon fill="#000000" stroke="#000000" points="535.0294,-794.5948 543.3086,-797.4958 539.0147,-794.252 543,-793.9091 543,-793.9091 543,-793.9091 539.0147,-794.252 542.6914,-790.3223 535.0294,-794.5948 535.0294,-794.5948"/>
<ellipse fill="none" stroke="#000000" cx="531.8412" cy="-794.8691" rx="3.2" ry="3.2"/>
</g>
<!-- FormQuestions&#45;&gt;AspNetUsers -->
<g id="edge18" class="edge">
<title>FormQuestions:w&#45;&gt;AspNetUsers:e</title>
<path fill="none" stroke="#000000" d="M528.2183,-795.1339C493.4443,-801.3051 485.7654,-829.0459 444,-837.9091 343.1351,-859.3141 290.6537,-904.5837 212,-837.9091 170.0731,-802.3678 226.4641,-593.9091 171.5,-593.9091"/>
<polygon fill="#000000" stroke="#000000" points="535.0273,-794.5697 543.2973,-797.4968 539.0137,-794.2394 543,-793.9091 543,-793.9091 543,-793.9091 539.0137,-794.2394 542.7027,-790.3214 535.0273,-794.5697 535.0273,-794.5697"/>
<ellipse fill="none" stroke="#000000" cx="531.8382" cy="-794.834" rx="3.2" ry="3.2"/>
</g>
<!-- FormQuestions&#45;&gt;Competencies -->
<g id="edge16" class="edge">
<title>FormQuestions:w&#45;&gt;Competencies:e</title>
<path fill="none" stroke="#000000" d="M528.5627,-793.9719C471.7162,-794.4808 452.386,-797.9091 389,-797.9091"/>
<polygon fill="#000000" stroke="#000000" points="535.0001,-793.944 543.0157,-797.5091 539,-793.9265 543,-793.9091 543,-793.9091 543,-793.9091 539,-793.9265 542.9843,-790.3091 535.0001,-793.944 535.0001,-793.944"/>
<ellipse fill="none" stroke="#000000" cx="531.8001" cy="-793.9579" rx="3.2" ry="3.2"/>
</g>
<!-- ProfessorCompetencyAssignments -->
<g id="node14" class="node">
<title>ProfessorCompetencyAssignments</title>
<g id="a_node14"><a xlink:href="../../tables/ProfessorCompetencyAssignments.html" xlink:title="ProfessorCompetencyAssignments" target="_top">
<polygon fill="#ffffff" stroke="transparent" points="485,-684.4091 485,-745.4091 727,-745.4091 727,-684.4091 485,-684.4091"/>
<polygon fill="#f5f5f5" stroke="transparent" points="485,-721.9091 485,-744.9091 727,-744.9091 727,-721.9091 485,-721.9091"/>
<polygon fill="none" stroke="#000000" points="485,-721.9091 485,-744.9091 727,-744.9091 727,-721.9091 485,-721.9091"/>
<text text-anchor="start" x="490" y="-730.5091" font-family="Helvetica,sans-Serif" font-weight="bold" font-size="11.00" fill="#000000">ProfessorCompetencyAssignments</text>
<text text-anchor="start" x="692.5219" y="-730.0091" font-family="Helvetica,sans-Serif" font-size="11.00" fill="#000000">[table]</text>
<polygon fill="none" stroke="#000000" points="485,-702.9091 485,-721.9091 727,-721.9091 727,-702.9091 485,-702.9091"/>
<text text-anchor="start" x="488" y="-709.0091" font-family="Helvetica,sans-Serif" font-size="11.00" fill="#000000">...</text>
<polygon fill="#ffffff" stroke="transparent" points="485,-683.9091 485,-702.9091 587,-702.9091 587,-683.9091 485,-683.9091"/>
<polygon fill="none" stroke="#000000" points="485,-683.9091 485,-702.9091 587,-702.9091 587,-683.9091 485,-683.9091"/>
<text text-anchor="start" x="488" y="-690.0091" font-family="Helvetica,sans-Serif" font-size="11.00" fill="#000000">&lt; 6</text>
<polygon fill="#ffffff" stroke="transparent" points="587,-683.9091 587,-702.9091 665,-702.9091 665,-683.9091 587,-683.9091"/>
<polygon fill="none" stroke="#000000" points="587,-683.9091 587,-702.9091 665,-702.9091 665,-683.9091 587,-683.9091"/>
<text text-anchor="start" x="629.6105" y="-690.0091" font-family="Helvetica,sans-Serif" font-size="11.00" fill="#000000">0 rows</text>
<polygon fill="#ffffff" stroke="transparent" points="665,-683.9091 665,-702.9091 727,-702.9091 727,-683.9091 665,-683.9091"/>
<polygon fill="none" stroke="#000000" points="665,-683.9091 665,-702.9091 727,-702.9091 727,-683.9091 665,-683.9091"/>
<text text-anchor="start" x="708.4053" y="-690.0091" font-family="Helvetica,sans-Serif" font-size="11.00" fill="#000000">1 &gt;</text>
</a>
</g>
</g>
<!-- ProfessorCompetencyAssignments&#45;&gt;AspNetUsers -->
<g id="edge20" class="edge">
<title>ProfessorCompetencyAssignments:w&#45;&gt;AspNetUsers:e</title>
<path fill="none" stroke="#000000" d="M470.4144,-713.5402C462.2752,-715.5103 456.4161,-718.7091 444,-719.9091 341.3671,-729.8285 295.3227,-780.6481 212,-719.9091 164.4669,-685.2594 230.3218,-593.9091 171.5,-593.9091"/>
<polygon fill="#000000" stroke="#000000" points="477.0496,-712.7983 485.4001,-715.4868 481.0248,-712.3537 485,-711.9091 485,-711.9091 485,-711.9091 481.0248,-712.3537 484.5999,-708.3314 477.0496,-712.7983 477.0496,-712.7983"/>
<ellipse fill="none" stroke="#000000" cx="473.8694" cy="-713.1539" rx="3.2" ry="3.2"/>
</g>
<!-- ProfessorCompetencyAssignments&#45;&gt;AspNetUsers -->
<g id="edge24" class="edge">
<title>ProfessorCompetencyAssignments:w&#45;&gt;AspNetUsers:e</title>
<path fill="none" stroke="#000000" d="M470.4868,-712.7253C462.3063,-713.711 456.2866,-715.3112 444,-715.9091 341.0108,-720.9211 295.611,-776.2507 212,-715.9091 165.6728,-682.475 228.6319,-593.9091 171.5,-593.9091"/>
<polygon fill="#000000" stroke="#000000" points="477.0126,-712.3584 485.2022,-715.5034 481.0063,-712.1337 485,-711.9091 485,-711.9091 485,-711.9091 481.0063,-712.1337 484.7978,-708.3148 477.0126,-712.3584 477.0126,-712.3584"/>
<ellipse fill="none" stroke="#000000" cx="473.8177" cy="-712.5381" rx="3.2" ry="3.2"/>
</g>
<!-- ProfessorCompetencyAssignments&#45;&gt;Competencies -->
<g id="edge19" class="edge">
<title>ProfessorCompetencyAssignments:w&#45;&gt;Competencies:e</title>
<path fill="none" stroke="#000000" d="M470.7809,-715.762C459.4722,-723.6741 459.1619,-742.164 444,-755.9091 421.2131,-776.5666 419.7567,-797.9091 389,-797.9091"/>
<polygon fill="#000000" stroke="#000000" points="477.2784,-714.0014 485.9415,-715.3838 481.1392,-712.9553 485,-711.9091 485,-711.9091 485,-711.9091 481.1392,-712.9553 484.0585,-708.4344 477.2784,-714.0014 477.2784,-714.0014"/>
<ellipse fill="none" stroke="#000000" cx="474.1898" cy="-714.8383" rx="3.2" ry="3.2"/>
</g>
<!-- ProfessorCompetencyAssignments&#45;&gt;TechnicalCareers -->
<g id="edge23" class="edge">
<title>ProfessorCompetencyAssignments:w&#45;&gt;TechnicalCareers:e</title>
<path fill="none" stroke="#000000" d="M473.407,-702.8751C439.7239,-643.6847 458.5682,-312.3702 444,-269.9091 431.6767,-233.991 435.9733,-197.9091 398,-197.9091"/>
<polygon fill="#000000" stroke="#000000" points="478.6897,-706.9917 482.7872,-714.7487 481.8449,-709.4504 485,-711.9091 485,-711.9091 485,-711.9091 481.8449,-709.4504 487.2128,-709.0695 478.6897,-706.9917 478.6897,-706.9917"/>
<ellipse fill="none" stroke="#000000" cx="476.1656" cy="-705.0247" rx="3.2" ry="3.2"/>
</g>
<!-- ProfessorCompetencyAssignments&#45;&gt;EvaluationPeriods -->
<g id="edge21" class="edge">
<title>ProfessorCompetencyAssignments:w&#45;&gt;EvaluationPeriods:e</title>
<path fill="none" stroke="#000000" d="M471.3044,-706.3677C438.2799,-674.7167 466.18,-516.7221 444,-473.9091 431.2783,-449.3531 427.6557,-429.9091 400,-429.9091"/>
<polygon fill="#000000" stroke="#000000" points="477.584,-708.9085 483.6497,-715.2463 481.292,-710.4088 485,-711.9091 485,-711.9091 485,-711.9091 481.292,-710.4088 486.3503,-708.5719 477.584,-708.9085 477.584,-708.9085"/>
<ellipse fill="none" stroke="#000000" cx="474.6176" cy="-707.7083" rx="3.2" ry="3.2"/>
</g>
<!-- Professors -->
<g id="node15" class="node">
<title>Professors</title>
<g id="a_node15"><a xlink:href="../../tables/Professors.html" xlink:title="Professors" target="_top">
<polygon fill="#ffffff" stroke="transparent" points="277.5,-280.4091 277.5,-341.4091 378.5,-341.4091 378.5,-280.4091 277.5,-280.4091"/>
<polygon fill="#f5f5f5" stroke="transparent" points="278,-317.9091 278,-340.9091 379,-340.9091 379,-317.9091 278,-317.9091"/>
<polygon fill="none" stroke="#000000" points="278,-317.9091 278,-340.9091 379,-340.9091 379,-317.9091 278,-317.9091"/>
<text text-anchor="start" x="283" y="-326.5091" font-family="Helvetica,sans-Serif" font-weight="bold" font-size="11.00" fill="#000000">Professors</text>
<text text-anchor="start" x="344.5219" y="-326.0091" font-family="Helvetica,sans-Serif" font-size="11.00" fill="#000000">[table]</text>
<polygon fill="none" stroke="#000000" points="278,-298.9091 278,-317.9091 379,-317.9091 379,-298.9091 278,-298.9091"/>
<text text-anchor="start" x="281" y="-305.0091" font-family="Helvetica,sans-Serif" font-size="11.00" fill="#000000">...</text>
<polygon fill="#ffffff" stroke="transparent" points="278,-279.9091 278,-298.9091 309,-298.9091 309,-279.9091 278,-279.9091"/>
<polygon fill="none" stroke="#000000" points="278,-279.9091 278,-298.9091 309,-298.9091 309,-279.9091 278,-279.9091"/>
<text text-anchor="start" x="281" y="-286.0091" font-family="Helvetica,sans-Serif" font-size="11.00" fill="#000000">&lt; 1</text>
<polygon fill="#ffffff" stroke="transparent" points="309,-279.9091 309,-298.9091 352,-298.9091 352,-279.9091 309,-279.9091"/>
<polygon fill="none" stroke="#000000" points="309,-279.9091 309,-298.9091 352,-298.9091 352,-279.9091 309,-279.9091"/>
<text text-anchor="start" x="316.6105" y="-286.0091" font-family="Helvetica,sans-Serif" font-size="11.00" fill="#000000">0 rows</text>
<polygon fill="#ffffff" stroke="transparent" points="352,-279.9091 352,-298.9091 379,-298.9091 379,-279.9091 352,-279.9091"/>
<polygon fill="none" stroke="#000000" points="352,-279.9091 352,-298.9091 379,-298.9091 379,-279.9091 352,-279.9091"/>
<text text-anchor="start" x="360.4053" y="-286.0091" font-family="Helvetica,sans-Serif" font-size="11.00" fill="#000000">2 &gt;</text>
</a>
</g>
</g>
<!-- ProfessorCompetencyAssignments&#45;&gt;Professors -->
<g id="edge22" class="edge">
<title>ProfessorCompetencyAssignments:w&#45;&gt;Professors:e</title>
<path fill="none" stroke="#000000" d="M471.0948,-707.8958C421.4674,-675.2727 469.4176,-453.2208 444,-391.9091 425.9222,-348.3024 426.2054,-307.9091 379,-307.9091"/>
<polygon fill="#000000" stroke="#000000" points="477.3137,-709.6907 484.0017,-715.3679 481.1569,-710.7999 485,-711.9091 485,-711.9091 485,-711.9091 481.1569,-710.7999 485.9983,-708.4503 477.3137,-709.6907 477.3137,-709.6907"/>
<ellipse fill="none" stroke="#000000" cx="474.2392" cy="-708.8033" rx="3.2" ry="3.2"/>
</g>
<!-- Professors&#45;&gt;AspNetUsers -->
<g id="edge25" class="edge">
<title>Professors:w&#45;&gt;AspNetUsers:e</title>
<path fill="none" stroke="#000000" d="M267.34,-308.4782C239.397,-311.6845 229.1044,-328.3387 212,-355.9091 183.7173,-401.4977 225.1492,-593.9091 171.5,-593.9091"/>
<polygon fill="#000000" stroke="#000000" points="276.9878,-303.9574 277.4144,-311.9461 275.8167,-312.0314 275.3901,-304.0428 276.9878,-303.9574"/>
<polyline fill="none" stroke="#000000" points="278,-307.9091 274.0057,-308.1224 "/>
<ellipse fill="none" stroke="#000000" cx="270.8102" cy="-308.293" rx="3.2" ry="3.2"/>
</g>
<!-- QuestionResponses -->
<g id="node16" class="node">
<title>QuestionResponses</title>
<g id="a_node16"><a xlink:href="../../tables/QuestionResponses.html" xlink:title="QuestionResponses" target="_top">
<polygon fill="#ffffff" stroke="transparent" points="1048,-934.4091 1048,-995.4091 1203,-995.4091 1203,-934.4091 1048,-934.4091"/>
<polygon fill="#f5f5f5" stroke="transparent" points="1048.5,-971.9091 1048.5,-994.9091 1203.5,-994.9091 1203.5,-971.9091 1048.5,-971.9091"/>
<polygon fill="none" stroke="#000000" points="1048.5,-971.9091 1048.5,-994.9091 1203.5,-994.9091 1203.5,-971.9091 1048.5,-971.9091"/>
<text text-anchor="start" x="1053.5" y="-980.5091" font-family="Helvetica,sans-Serif" font-weight="bold" font-size="11.00" fill="#000000">QuestionResponses</text>
<text text-anchor="start" x="1169.0219" y="-980.0091" font-family="Helvetica,sans-Serif" font-size="11.00" fill="#000000">[table]</text>
<polygon fill="none" stroke="#000000" points="1048.5,-952.9091 1048.5,-971.9091 1203.5,-971.9091 1203.5,-952.9091 1048.5,-952.9091"/>
<text text-anchor="start" x="1051.5" y="-959.0091" font-family="Helvetica,sans-Serif" font-size="11.00" fill="#000000">...</text>
<polygon fill="#ffffff" stroke="transparent" points="1048.5,-933.9091 1048.5,-952.9091 1111.5,-952.9091 1111.5,-933.9091 1048.5,-933.9091"/>
<polygon fill="none" stroke="#000000" points="1048.5,-933.9091 1048.5,-952.9091 1111.5,-952.9091 1111.5,-933.9091 1048.5,-933.9091"/>
<text text-anchor="start" x="1051.5" y="-940.0091" font-family="Helvetica,sans-Serif" font-size="11.00" fill="#000000">&lt; 4</text>
<polygon fill="#ffffff" stroke="transparent" points="1111.5,-933.9091 1111.5,-952.9091 1170.5,-952.9091 1170.5,-933.9091 1111.5,-933.9091"/>
<polygon fill="none" stroke="#000000" points="1111.5,-933.9091 1111.5,-952.9091 1170.5,-952.9091 1170.5,-933.9091 1111.5,-933.9091"/>
<text text-anchor="start" x="1135.1105" y="-940.0091" font-family="Helvetica,sans-Serif" font-size="11.00" fill="#000000">0 rows</text>
<polygon fill="#ffffff" stroke="transparent" points="1170.5,-933.9091 1170.5,-952.9091 1203.5,-952.9091 1203.5,-933.9091 1170.5,-933.9091"/>
<polygon fill="none" stroke="#000000" points="1170.5,-933.9091 1170.5,-952.9091 1203.5,-952.9091 1203.5,-933.9091 1170.5,-933.9091"/>
<text text-anchor="start" x="1194.3862" y="-940.0091" font-family="Helvetica,sans-Serif" font-size="11.00" fill="#000000"> &#160;</text>
</a>
</g>
</g>
<!-- QuestionResponses&#45;&gt;AspNetUsers -->
<g id="edge26" class="edge">
<title>QuestionResponses:w&#45;&gt;AspNetUsers:e</title>
<path fill="none" stroke="#000000" d="M1033.7961,-962.1145C899.9022,-965.1577 277.6315,-1000.1285 212,-939.9091 154.9588,-887.5717 248.9138,-593.9091 171.5,-593.9091"/>
<polygon fill="#000000" stroke="#000000" points="1040.5008,-962.0209 1048.5503,-965.5087 1044.5004,-961.965 1048.5,-961.9091 1048.5,-961.9091 1048.5,-961.9091 1044.5004,-961.965 1048.4497,-958.3094 1040.5008,-962.0209 1040.5008,-962.0209"/>
<ellipse fill="none" stroke="#000000" cx="1037.3011" cy="-962.0656" rx="3.2" ry="3.2"/>
</g>
<!-- QuestionResponses&#45;&gt;AspNetUsers -->
<g id="edge29" class="edge">
<title>QuestionResponses:w&#45;&gt;AspNetUsers:e</title>
<path fill="none" stroke="#000000" d="M1034.0061,-962.0913C837.1399,-966.7808 344.8025,-1059.4014 212,-935.9091 155.9555,-883.7937 248.031,-593.9091 171.5,-593.9091"/>
<polygon fill="#000000" stroke="#000000" points="1040.5006,-962.0097 1048.5453,-965.5088 1044.5003,-961.9594 1048.5,-961.9091 1048.5,-961.9091 1048.5,-961.9091 1044.5003,-961.9594 1048.4547,-958.3094 1040.5006,-962.0097 1040.5006,-962.0097"/>
<ellipse fill="none" stroke="#000000" cx="1037.3009" cy="-962.0499" rx="3.2" ry="3.2"/>
</g>
<!-- QuestionResponses&#45;&gt;FormQuestions -->
<g id="edge27" class="edge">
<title>QuestionResponses:w&#45;&gt;FormQuestions:e</title>
<path fill="none" stroke="#000000" d="M1033.7831,-962.0217C962.683,-962.9272 813.687,-968.0944 768,-931.9091 733.2905,-904.4183 762.0308,-872.978 735,-837.9091 713.703,-810.279 704.8854,-793.9091 670,-793.9091"/>
<polygon fill="#000000" stroke="#000000" points="1040.5002,-961.9704 1048.5276,-965.509 1044.5001,-961.9397 1048.5,-961.9091 1048.5,-961.9091 1048.5,-961.9091 1044.5001,-961.9397 1048.4724,-958.3092 1040.5002,-961.9704 1040.5002,-961.9704"/>
<ellipse fill="none" stroke="#000000" cx="1037.3003" cy="-961.9949" rx="3.2" ry="3.2"/>
</g>
<!-- StudentCompetencyEvaluations -->
<g id="node17" class="node">
<title>StudentCompetencyEvaluations</title>
<g id="a_node17"><a xlink:href="../../tables/StudentCompetencyEvaluations.html" xlink:title="StudentCompetencyEvaluations" target="_top">
<polygon fill="#ffffff" stroke="transparent" points="776,-860.4091 776,-921.4091 999,-921.4091 999,-860.4091 776,-860.4091"/>
<polygon fill="#f5f5f5" stroke="transparent" points="776.5,-897.9091 776.5,-920.9091 999.5,-920.9091 999.5,-897.9091 776.5,-897.9091"/>
<polygon fill="none" stroke="#000000" points="776.5,-897.9091 776.5,-920.9091 999.5,-920.9091 999.5,-897.9091 776.5,-897.9091"/>
<text text-anchor="start" x="781.5" y="-906.5091" font-family="Helvetica,sans-Serif" font-weight="bold" font-size="11.00" fill="#000000">StudentCompetencyEvaluations</text>
<text text-anchor="start" x="965.0219" y="-906.0091" font-family="Helvetica,sans-Serif" font-size="11.00" fill="#000000">[table]</text>
<polygon fill="none" stroke="#000000" points="776.5,-878.9091 776.5,-897.9091 999.5,-897.9091 999.5,-878.9091 776.5,-878.9091"/>
<text text-anchor="start" x="779.5" y="-885.0091" font-family="Helvetica,sans-Serif" font-size="11.00" fill="#000000">...</text>
<polygon fill="#ffffff" stroke="transparent" points="776.5,-859.9091 776.5,-878.9091 868.5,-878.9091 868.5,-859.9091 776.5,-859.9091"/>
<polygon fill="none" stroke="#000000" points="776.5,-859.9091 776.5,-878.9091 868.5,-878.9091 868.5,-859.9091 776.5,-859.9091"/>
<text text-anchor="start" x="779.5" y="-866.0091" font-family="Helvetica,sans-Serif" font-size="11.00" fill="#000000">&lt; 4</text>
<polygon fill="#ffffff" stroke="transparent" points="868.5,-859.9091 868.5,-878.9091 942.5,-878.9091 942.5,-859.9091 868.5,-859.9091"/>
<polygon fill="none" stroke="#000000" points="868.5,-859.9091 868.5,-878.9091 942.5,-878.9091 942.5,-859.9091 868.5,-859.9091"/>
<text text-anchor="start" x="907.1105" y="-866.0091" font-family="Helvetica,sans-Serif" font-size="11.00" fill="#000000">0 rows</text>
<polygon fill="#ffffff" stroke="transparent" points="942.5,-859.9091 942.5,-878.9091 999.5,-878.9091 999.5,-859.9091 942.5,-859.9091"/>
<polygon fill="none" stroke="#000000" points="942.5,-859.9091 942.5,-878.9091 999.5,-878.9091 999.5,-859.9091 942.5,-859.9091"/>
<text text-anchor="start" x="980.9053" y="-866.0091" font-family="Helvetica,sans-Serif" font-size="11.00" fill="#000000">1 &gt;</text>
</a>
</g>
</g>
<!-- QuestionResponses&#45;&gt;StudentCompetencyEvaluations -->
<g id="edge28" class="edge">
<title>QuestionResponses:w&#45;&gt;StudentCompetencyEvaluations:e</title>
<path fill="none" stroke="#000000" d="M1034.8095,-957.2801C1016.5527,-941.0797 1032.9363,-887.9091 999.5,-887.9091"/>
<polygon fill="#000000" stroke="#000000" points="1040.9215,-959.3466 1047.3469,-965.3194 1044.7107,-960.6279 1048.5,-961.9091 1048.5,-961.9091 1048.5,-961.9091 1044.7107,-960.6279 1049.6531,-958.4988 1040.9215,-959.3466 1040.9215,-959.3466"/>
<ellipse fill="none" stroke="#000000" cx="1037.8901" cy="-958.3216" rx="3.2" ry="3.2"/>
</g>
<!-- StudentCompetencyEvaluations&#45;&gt;AspNetUsers -->
<g id="edge30" class="edge">
<title>StudentCompetencyEvaluations:w&#45;&gt;AspNetUsers:e</title>
<path fill="none" stroke="#000000" d="M762.6887,-892.3153C753.4212,-899.7203 751.1901,-914.392 735,-919.9091 624.9317,-957.4172 296.9035,-982.3652 212,-902.9091 161.4348,-855.5881 240.754,-593.9091 171.5,-593.9091"/>
<polygon fill="#000000" stroke="#000000" points="768.8785,-890.3406 777.5942,-891.3388 772.6892,-889.1248 776.5,-887.9091 776.5,-887.9091 776.5,-887.9091 772.6892,-889.1248 775.4058,-884.4794 768.8785,-890.3406 768.8785,-890.3406"/>
<ellipse fill="none" stroke="#000000" cx="765.8298" cy="-891.3132" rx="3.2" ry="3.2"/>
</g>
<!-- StudentCompetencyEvaluations&#45;&gt;AspNetUsers -->
<g id="edge33" class="edge">
<title>StudentCompetencyEvaluations:w&#45;&gt;AspNetUsers:e</title>
<path fill="none" stroke="#000000" d="M762.4291,-892.198C753.547,-898.8136 750.2931,-911.2324 735,-915.9091 623.7997,-949.9144 296.9706,-978.2935 212,-898.9091 162.0388,-852.2325 239.8727,-593.9091 171.5,-593.9091"/>
<polygon fill="#000000" stroke="#000000" points="768.8476,-890.2416 777.5496,-891.3527 772.6738,-889.0754 776.5,-887.9091 776.5,-887.9091 776.5,-887.9091 772.6738,-889.0754 775.4504,-884.4655 768.8476,-890.2416 768.8476,-890.2416"/>
<ellipse fill="none" stroke="#000000" cx="765.7866" cy="-891.1747" rx="3.2" ry="3.2"/>
</g>
<!-- StudentCompetencyEvaluations&#45;&gt;ProfessorCompetencyAssignments -->
<g id="edge31" class="edge">
<title>StudentCompetencyEvaluations:w&#45;&gt;ProfessorCompetencyAssignments:e</title>
<path fill="none" stroke="#000000" d="M762.1061,-885.4211C710.1751,-864.0292 802.5437,-711.9091 727,-711.9091"/>
<polygon fill="#000000" stroke="#000000" points="768.6169,-886.5464 775.8868,-891.4565 772.5584,-887.2278 776.5,-887.9091 776.5,-887.9091 776.5,-887.9091 772.5584,-887.2278 777.1132,-884.3617 768.6169,-886.5464 768.6169,-886.5464"/>
<ellipse fill="none" stroke="#000000" cx="765.4637" cy="-886.0014" rx="3.2" ry="3.2"/>
</g>
<!-- Students -->
<g id="node18" class="node">
<title>Students</title>
<g id="a_node18"><a xlink:href="../../tables/Students.html" xlink:title="Students" target="_top">
<polygon fill="#ffffff" stroke="transparent" points="561,-171.4091 561,-232.4091 651,-232.4091 651,-171.4091 561,-171.4091"/>
<polygon fill="#f5f5f5" stroke="transparent" points="561,-208.9091 561,-231.9091 651,-231.9091 651,-208.9091 561,-208.9091"/>
<polygon fill="none" stroke="#000000" points="561,-208.9091 561,-231.9091 651,-231.9091 651,-208.9091 561,-208.9091"/>
<text text-anchor="start" x="566" y="-217.5091" font-family="Helvetica,sans-Serif" font-weight="bold" font-size="11.00" fill="#000000">Students</text>
<text text-anchor="start" x="616.5219" y="-217.0091" font-family="Helvetica,sans-Serif" font-size="11.00" fill="#000000">[table]</text>
<polygon fill="none" stroke="#000000" points="561,-189.9091 561,-208.9091 651,-208.9091 651,-189.9091 561,-189.9091"/>
<text text-anchor="start" x="564" y="-196.0091" font-family="Helvetica,sans-Serif" font-size="11.00" fill="#000000">...</text>
<polygon fill="#ffffff" stroke="transparent" points="561,-170.9091 561,-189.9091 587,-189.9091 587,-170.9091 561,-170.9091"/>
<polygon fill="none" stroke="#000000" points="561,-170.9091 561,-189.9091 587,-189.9091 587,-170.9091 561,-170.9091"/>
<text text-anchor="start" x="564" y="-177.0091" font-family="Helvetica,sans-Serif" font-size="11.00" fill="#000000">&lt; 2</text>
<polygon fill="#ffffff" stroke="transparent" points="587,-170.9091 587,-189.9091 627,-189.9091 627,-170.9091 587,-170.9091"/>
<polygon fill="none" stroke="#000000" points="587,-170.9091 587,-189.9091 627,-189.9091 627,-170.9091 587,-170.9091"/>
<text text-anchor="start" x="591.6105" y="-177.0091" font-family="Helvetica,sans-Serif" font-size="11.00" fill="#000000">0 rows</text>
<polygon fill="#ffffff" stroke="transparent" points="627,-170.9091 627,-189.9091 651,-189.9091 651,-170.9091 627,-170.9091"/>
<polygon fill="none" stroke="#000000" points="627,-170.9091 627,-189.9091 651,-189.9091 651,-170.9091 627,-170.9091"/>
<text text-anchor="start" x="632.4053" y="-177.0091" font-family="Helvetica,sans-Serif" font-size="11.00" fill="#000000">3 &gt;</text>
</a>
</g>
</g>
<!-- StudentCompetencyEvaluations&#45;&gt;Students -->
<g id="edge32" class="edge">
<title>StudentCompetencyEvaluations:w&#45;&gt;Students:e</title>
<path fill="none" stroke="#000000" d="M763.9888,-880.4976C713.4297,-812.5558 771.5332,-299.1272 735,-242.9091 712.0353,-207.5705 693.145,-198.9091 651,-198.9091"/>
<polygon fill="#000000" stroke="#000000" points="769.617,-883.8317 774.6652,-891.0064 773.0585,-885.8704 776.5,-887.9091 776.5,-887.9091 776.5,-887.9091 773.0585,-885.8704 778.3348,-884.8118 769.617,-883.8317 769.617,-883.8317"/>
<ellipse fill="none" stroke="#000000" cx="766.8638" cy="-882.2008" rx="3.2" ry="3.2"/>
</g>
<!-- Students&#45;&gt;AspNetUsers -->
<g id="edge39" class="edge">
<title>Students:w&#45;&gt;AspNetUsers:e</title>
<path fill="none" stroke="#000000" d="M550.3846,-198.5019C504.8671,-194.8776 494.4065,-168.0889 444,-159.9091 393.1102,-151.6508 250.1113,-125.1887 212,-159.9091 140.3959,-225.1424 268.3635,-593.9091 171.5,-593.9091"/>
<polygon fill="#000000" stroke="#000000" points="560.3539,-194.8814 560.0472,-202.8755 558.4484,-202.8141 558.7551,-194.82 560.3539,-194.8814"/>
<polyline fill="none" stroke="#000000" points="561,-198.9091 557.0029,-198.7558 "/>
<ellipse fill="none" stroke="#000000" cx="553.8053" cy="-198.6331" rx="3.2" ry="3.2"/>
</g>
<!-- Students&#45;&gt;TechnicalCareers -->
<g id="edge38" class="edge">
<title>Students:w&#45;&gt;TechnicalCareers:e</title>
<path fill="none" stroke="#000000" d="M546.4866,-198.895C485.7391,-198.7734 465.352,-197.9091 398,-197.9091"/>
<polygon fill="#000000" stroke="#000000" points="553,-198.9012 560.9965,-202.5091 557,-198.9052 561,-198.9091 561,-198.9091 561,-198.9091 557,-198.9052 561.0035,-195.3091 553,-198.9012 553,-198.9012"/>
<ellipse fill="none" stroke="#000000" cx="549.8" cy="-198.8981" rx="3.2" ry="3.2"/>
</g>
<!-- StudentEvaluationReport -->
<g id="node19" class="node">
<title>StudentEvaluationReport</title>
<g id="a_node19"><a xlink:href="../../tables/StudentEvaluationReport.html" xlink:title="StudentEvaluationReport" target="_top">
<polygon fill="#ffffff" stroke="transparent" points="796,-115.4091 796,-176.4091 979,-176.4091 979,-115.4091 796,-115.4091"/>
<polygon fill="#f5f5f5" stroke="transparent" points="796.5,-152.9091 796.5,-175.9091 979.5,-175.9091 979.5,-152.9091 796.5,-152.9091"/>
<polygon fill="none" stroke="#000000" points="796.5,-152.9091 796.5,-175.9091 979.5,-175.9091 979.5,-152.9091 796.5,-152.9091"/>
<text text-anchor="start" x="801.5" y="-161.5091" font-family="Helvetica,sans-Serif" font-weight="bold" font-size="11.00" fill="#000000">StudentEvaluationReport</text>
<text text-anchor="start" x="945.0219" y="-161.0091" font-family="Helvetica,sans-Serif" font-size="11.00" fill="#000000">[table]</text>
<polygon fill="none" stroke="#000000" points="796.5,-133.9091 796.5,-152.9091 979.5,-152.9091 979.5,-133.9091 796.5,-133.9091"/>
<text text-anchor="start" x="799.5" y="-140.0091" font-family="Helvetica,sans-Serif" font-size="11.00" fill="#000000">...</text>
<polygon fill="#ffffff" stroke="transparent" points="796.5,-114.9091 796.5,-133.9091 873.5,-133.9091 873.5,-114.9091 796.5,-114.9091"/>
<polygon fill="none" stroke="#000000" points="796.5,-114.9091 796.5,-133.9091 873.5,-133.9091 873.5,-114.9091 796.5,-114.9091"/>
<text text-anchor="start" x="799.5" y="-121.0091" font-family="Helvetica,sans-Serif" font-size="11.00" fill="#000000">&lt; 4</text>
<polygon fill="#ffffff" stroke="transparent" points="873.5,-114.9091 873.5,-133.9091 939.5,-133.9091 939.5,-114.9091 873.5,-114.9091"/>
<polygon fill="none" stroke="#000000" points="873.5,-114.9091 873.5,-133.9091 939.5,-133.9091 939.5,-114.9091 873.5,-114.9091"/>
<text text-anchor="start" x="904.1105" y="-121.0091" font-family="Helvetica,sans-Serif" font-size="11.00" fill="#000000">0 rows</text>
<polygon fill="#ffffff" stroke="transparent" points="939.5,-114.9091 939.5,-133.9091 979.5,-133.9091 979.5,-114.9091 939.5,-114.9091"/>
<polygon fill="none" stroke="#000000" points="939.5,-114.9091 939.5,-133.9091 979.5,-133.9091 979.5,-114.9091 939.5,-114.9091"/>
<text text-anchor="start" x="970.3862" y="-121.0091" font-family="Helvetica,sans-Serif" font-size="11.00" fill="#000000"> &#160;</text>
</a>
</g>
</g>
<!-- StudentEvaluationReport&#45;&gt;AspNetUsers -->
<g id="edge34" class="edge">
<title>StudentEvaluationReport:w&#45;&gt;AspNetUsers:e</title>
<path fill="none" stroke="#000000" d="M782.1412,-139.9674C760.166,-129.2273 765.9063,-92.073 735,-78.9091 628.0659,-33.3627 296.4861,-5.0875 212,-84.9091 170.7605,-123.8717 228.2343,-593.9091 171.5,-593.9091"/>
<polygon fill="#000000" stroke="#000000" points="788.6628,-141.3034 795.7775,-146.4358 792.5814,-142.1063 796.5,-142.9091 796.5,-142.9091 796.5,-142.9091 792.5814,-142.1063 797.2225,-139.3823 788.6628,-141.3034 788.6628,-141.3034"/>
<ellipse fill="none" stroke="#000000" cx="785.5279" cy="-140.6612" rx="3.2" ry="3.2"/>
</g>
<!-- StudentEvaluationReport&#45;&gt;AspNetUsers -->
<g id="edge37" class="edge">
<title>StudentEvaluationReport:w&#45;&gt;AspNetUsers:e</title>
<path fill="none" stroke="#000000" d="M782.2004,-140.0054C760.886,-129.7383 764.9811,-95.1114 735,-82.9091 627.3451,-39.0935 296.5111,-9.114 212,-88.9091 171.0704,-127.5546 227.7913,-593.9091 171.5,-593.9091"/>
<polygon fill="#000000" stroke="#000000" points="788.66,-141.3171 795.7836,-146.4371 792.58,-142.1131 796.5,-142.9091 796.5,-142.9091 796.5,-142.9091 792.58,-142.1131 797.2164,-139.3811 788.66,-141.3171 788.66,-141.3171"/>
<ellipse fill="none" stroke="#000000" cx="785.524" cy="-140.6803" rx="3.2" ry="3.2"/>
</g>
<!-- StudentEvaluationReport&#45;&gt;EvaluationPeriods -->
<g id="edge35" class="edge">
<title>StudentEvaluationReport:w&#45;&gt;EvaluationPeriods:e</title>
<path fill="none" stroke="#000000" d="M782.0171,-144.3725C721.3426,-158.2975 791.2069,-268.1513 735,-324.9091 625.2088,-435.7765 556.031,-429.9091 400,-429.9091"/>
<polygon fill="#000000" stroke="#000000" points="788.5405,-143.7134 796.8619,-146.4909 792.5203,-143.3112 796.5,-142.9091 796.5,-142.9091 796.5,-142.9091 792.5203,-143.3112 796.1381,-139.3273 788.5405,-143.7134 788.5405,-143.7134"/>
<ellipse fill="none" stroke="#000000" cx="785.3567" cy="-144.0351" rx="3.2" ry="3.2"/>
</g>
<!-- StudentEvaluationReport&#45;&gt;Students -->
<g id="edge36" class="edge">
<title>StudentEvaluationReport:w&#45;&gt;Students:e</title>
<path fill="none" stroke="#000000" d="M782.0517,-143.7887C725.8386,-150.9131 715.1483,-198.9091 651,-198.9091"/>
<polygon fill="#000000" stroke="#000000" points="788.5148,-143.3953 796.7188,-146.5024 792.5074,-143.1522 796.5,-142.9091 796.5,-142.9091 796.5,-142.9091 792.5074,-143.1522 796.2812,-139.3157 788.5148,-143.3953 788.5148,-143.3953"/>
<ellipse fill="none" stroke="#000000" cx="785.3207" cy="-143.5898" rx="3.2" ry="3.2"/>
</g>
<!-- StudentSubjects -->
<g id="node20" class="node">
<title>StudentSubjects</title>
<g id="a_node20"><a xlink:href="../../tables/StudentSubjects.html" xlink:title="StudentSubjects" target="_top">
<polygon fill="#ffffff" stroke="transparent" points="821,-226.4091 821,-287.4091 954,-287.4091 954,-226.4091 821,-226.4091"/>
<polygon fill="#f5f5f5" stroke="transparent" points="821.5,-263.9091 821.5,-286.9091 954.5,-286.9091 954.5,-263.9091 821.5,-263.9091"/>
<polygon fill="none" stroke="#000000" points="821.5,-263.9091 821.5,-286.9091 954.5,-286.9091 954.5,-263.9091 821.5,-263.9091"/>
<text text-anchor="start" x="826.5" y="-272.5091" font-family="Helvetica,sans-Serif" font-weight="bold" font-size="11.00" fill="#000000">StudentSubjects</text>
<text text-anchor="start" x="920.0219" y="-272.0091" font-family="Helvetica,sans-Serif" font-size="11.00" fill="#000000">[table]</text>
<polygon fill="none" stroke="#000000" points="821.5,-244.9091 821.5,-263.9091 954.5,-263.9091 954.5,-244.9091 821.5,-244.9091"/>
<text text-anchor="start" x="824.5" y="-251.0091" font-family="Helvetica,sans-Serif" font-size="11.00" fill="#000000">...</text>
<polygon fill="#ffffff" stroke="transparent" points="821.5,-225.9091 821.5,-244.9091 873.5,-244.9091 873.5,-225.9091 821.5,-225.9091"/>
<polygon fill="none" stroke="#000000" points="821.5,-225.9091 821.5,-244.9091 873.5,-244.9091 873.5,-225.9091 821.5,-225.9091"/>
<text text-anchor="start" x="824.5" y="-232.0091" font-family="Helvetica,sans-Serif" font-size="11.00" fill="#000000">&lt; 4</text>
<polygon fill="#ffffff" stroke="transparent" points="873.5,-225.9091 873.5,-244.9091 926.5,-244.9091 926.5,-225.9091 873.5,-225.9091"/>
<polygon fill="none" stroke="#000000" points="873.5,-225.9091 873.5,-244.9091 926.5,-244.9091 926.5,-225.9091 873.5,-225.9091"/>
<text text-anchor="start" x="891.1105" y="-232.0091" font-family="Helvetica,sans-Serif" font-size="11.00" fill="#000000">0 rows</text>
<polygon fill="#ffffff" stroke="transparent" points="926.5,-225.9091 926.5,-244.9091 954.5,-244.9091 954.5,-225.9091 926.5,-225.9091"/>
<polygon fill="none" stroke="#000000" points="926.5,-225.9091 926.5,-244.9091 954.5,-244.9091 954.5,-225.9091 926.5,-225.9091"/>
<text text-anchor="start" x="945.3862" y="-232.0091" font-family="Helvetica,sans-Serif" font-size="11.00" fill="#000000"> &#160;</text>
</a>
</g>
</g>
<!-- StudentSubjects&#45;&gt;AspNetUsers -->
<g id="edge40" class="edge">
<title>StudentSubjects:w&#45;&gt;AspNetUsers:e</title>
<path fill="none" stroke="#000000" d="M807.1366,-255.6416C773.0582,-264.752 775.6719,-307.3595 735,-324.9091 681.208,-348.1199 254.86,-351.9674 212,-391.9091 145.0139,-454.3343 263.0645,-593.9091 171.5,-593.9091"/>
<polygon fill="#000000" stroke="#000000" points="813.5576,-254.8671 821.9311,-257.4832 817.5288,-254.3881 821.5,-253.9091 821.5,-253.9091 821.5,-253.9091 817.5288,-254.3881 821.0689,-250.335 813.5576,-254.8671 813.5576,-254.8671"/>
<ellipse fill="none" stroke="#000000" cx="810.3806" cy="-255.2503" rx="3.2" ry="3.2"/>
</g>
<!-- StudentSubjects&#45;&gt;AspNetUsers -->
<g id="edge43" class="edge">
<title>StudentSubjects:w&#45;&gt;AspNetUsers:e</title>
<path fill="none" stroke="#000000" d="M806.956,-255.6461C773.7728,-264.418 774.7033,-304.0884 735,-320.9091 680.9454,-343.8099 254.7241,-355.6475 212,-395.9091 146.6303,-457.5111 261.322,-593.9091 171.5,-593.9091"/>
<polygon fill="#000000" stroke="#000000" points="813.5565,-254.8578 821.9269,-257.4837 817.5282,-254.3835 821.5,-253.9091 821.5,-253.9091 821.5,-253.9091 817.5282,-254.3835 821.0731,-250.3345 813.5565,-254.8578 813.5565,-254.8578"/>
<ellipse fill="none" stroke="#000000" cx="810.379" cy="-255.2374" rx="3.2" ry="3.2"/>
</g>
<!-- StudentSubjects&#45;&gt;Students -->
<g id="edge41" class="edge">
<title>StudentSubjects:w&#45;&gt;Students:e</title>
<path fill="none" stroke="#000000" d="M806.9196,-253.2531C740.1424,-247.0477 725.4909,-198.9091 651,-198.9091"/>
<polygon fill="#000000" stroke="#000000" points="813.5081,-253.5495 821.3382,-257.5055 817.504,-253.7293 821.5,-253.9091 821.5,-253.9091 821.5,-253.9091 817.504,-253.7293 821.6618,-250.3127 813.5081,-253.5495 813.5081,-253.5495"/>
<ellipse fill="none" stroke="#000000" cx="810.3113" cy="-253.4056" rx="3.2" ry="3.2"/>
</g>
<!-- Subjects -->
<g id="node21" class="node">
<title>Subjects</title>
<g id="a_node21"><a xlink:href="../../tables/Subjects.html" xlink:title="Subjects" target="_top">
<polygon fill="#ffffff" stroke="transparent" points="561.5,-89.4091 561.5,-150.4091 650.5,-150.4091 650.5,-89.4091 561.5,-89.4091"/>
<polygon fill="#f5f5f5" stroke="transparent" points="562,-126.9091 562,-149.9091 651,-149.9091 651,-126.9091 562,-126.9091"/>
<polygon fill="none" stroke="#000000" points="562,-126.9091 562,-149.9091 651,-149.9091 651,-126.9091 562,-126.9091"/>
<text text-anchor="start" x="567" y="-135.5091" font-family="Helvetica,sans-Serif" font-weight="bold" font-size="11.00" fill="#000000">Subjects</text>
<text text-anchor="start" x="616.5219" y="-135.0091" font-family="Helvetica,sans-Serif" font-size="11.00" fill="#000000">[table]</text>
<polygon fill="none" stroke="#000000" points="562,-107.9091 562,-126.9091 651,-126.9091 651,-107.9091 562,-107.9091"/>
<text text-anchor="start" x="565" y="-114.0091" font-family="Helvetica,sans-Serif" font-size="11.00" fill="#000000">...</text>
<polygon fill="#ffffff" stroke="transparent" points="562,-88.9091 562,-107.9091 587,-107.9091 587,-88.9091 562,-88.9091"/>
<polygon fill="none" stroke="#000000" points="562,-88.9091 562,-107.9091 587,-107.9091 587,-88.9091 562,-88.9091"/>
<text text-anchor="start" x="565" y="-95.0091" font-family="Helvetica,sans-Serif" font-size="11.00" fill="#000000">&lt; 4</text>
<polygon fill="#ffffff" stroke="transparent" points="587,-88.9091 587,-107.9091 627,-107.9091 627,-88.9091 587,-88.9091"/>
<polygon fill="none" stroke="#000000" points="587,-88.9091 587,-107.9091 627,-107.9091 627,-88.9091 587,-88.9091"/>
<text text-anchor="start" x="591.6105" y="-95.0091" font-family="Helvetica,sans-Serif" font-size="11.00" fill="#000000">0 rows</text>
<polygon fill="#ffffff" stroke="transparent" points="627,-88.9091 627,-107.9091 651,-107.9091 651,-88.9091 627,-88.9091"/>
<polygon fill="none" stroke="#000000" points="627,-88.9091 627,-107.9091 651,-107.9091 651,-88.9091 627,-88.9091"/>
<text text-anchor="start" x="632.4053" y="-95.0091" font-family="Helvetica,sans-Serif" font-size="11.00" fill="#000000">1 &gt;</text>
</a>
</g>
</g>
<!-- StudentSubjects&#45;&gt;Subjects -->
<g id="edge42" class="edge">
<title>StudentSubjects:w&#45;&gt;Subjects:e</title>
<path fill="none" stroke="#000000" d="M807.1365,-252.3679C767.3408,-242.8891 775.5734,-191.8849 735,-160.9091 701.5015,-135.3347 693.145,-116.9091 651,-116.9091"/>
<polygon fill="#000000" stroke="#000000" points="813.5457,-253.0555 821.1159,-257.4885 817.5228,-253.4823 821.5,-253.9091 821.5,-253.9091 821.5,-253.9091 817.5228,-253.4823 821.8841,-250.3296 813.5457,-253.0555 813.5457,-253.0555"/>
<ellipse fill="none" stroke="#000000" cx="810.3639" cy="-252.7141" rx="3.2" ry="3.2"/>
</g>
<!-- Subjects&#45;&gt;AspNetUsers -->
<g id="edge44" class="edge">
<title>Subjects:w&#45;&gt;AspNetUsers:e</title>
<path fill="none" stroke="#000000" d="M547.5968,-116.6659C400.9183,-111.7283 320.0264,-34.3763 212,-139.9091 139.5461,-210.6905 272.7895,-593.9091 171.5,-593.9091"/>
<polygon fill="#000000" stroke="#000000" points="554.0011,-116.774 561.9392,-120.5086 558.0006,-116.8415 562,-116.9091 562,-116.9091 562,-116.9091 558.0006,-116.8415 562.0608,-113.3096 554.0011,-116.774 554.0011,-116.774"/>
<ellipse fill="none" stroke="#000000" cx="550.8016" cy="-116.7199" rx="3.2" ry="3.2"/>
</g>
<!-- Subjects&#45;&gt;AspNetUsers -->
<g id="edge47" class="edge">
<title>Subjects:w&#45;&gt;AspNetUsers:e</title>
<path fill="none" stroke="#000000" d="M547.5843,-116.6754C400.7699,-111.9334 319.5537,-37.7199 212,-143.9091 140.5517,-214.4509 271.9042,-593.9091 171.5,-593.9091"/>
<polygon fill="#000000" stroke="#000000" points="554.0011,-116.7794 561.9416,-120.5086 558.0005,-116.8442 562,-116.9091 562,-116.9091 562,-116.9091 558.0005,-116.8442 562.0584,-113.3096 554.0011,-116.7794 554.0011,-116.7794"/>
<ellipse fill="none" stroke="#000000" cx="550.8015" cy="-116.7275" rx="3.2" ry="3.2"/>
</g>
<!-- Subjects&#45;&gt;TechnicalCareers -->
<g id="edge46" class="edge">
<title>Subjects:w&#45;&gt;TechnicalCareers:e</title>
<path fill="none" stroke="#000000" d="M547.2337,-117.8752C480.1918,-127.014 474.0548,-197.9091 398,-197.9091"/>
<polygon fill="#000000" stroke="#000000" points="554.0171,-117.4314 562.2351,-120.5014 558.0085,-117.1703 562,-116.9091 562,-116.9091 562,-116.9091 558.0085,-117.1703 561.7649,-113.3168 554.0171,-117.4314 554.0171,-117.4314"/>
<ellipse fill="none" stroke="#000000" cx="550.8239" cy="-117.6404" rx="3.2" ry="3.2"/>
</g>
<!-- Subjects&#45;&gt;Professors -->
<g id="edge45" class="edge">
<title>Subjects:w&#45;&gt;Professors:e</title>
<path fill="none" stroke="#000000" d="M547.3107,-117.5113C515.7836,-120.3498 502.0983,-133.4221 477,-160.9091 450.7883,-189.6155 465.3787,-209.4428 444,-241.9091 421.3577,-276.2943 420.1705,-307.9091 379,-307.9091"/>
<polygon fill="#000000" stroke="#000000" points="554.0067,-117.2368 562.1475,-120.5061 558.0034,-117.073 562,-116.9091 562,-116.9091 562,-116.9091 558.0034,-117.073 561.8525,-113.3121 554.0067,-117.2368 554.0067,-117.2368"/>
<ellipse fill="none" stroke="#000000" cx="550.8094" cy="-117.3679" rx="3.2" ry="3.2"/>
</g>
</g>
</svg>
