<?xml version="1.0" encoding="UTF-8" standalone="no"?>
<!DOCTYPE svg PUBLIC "-//W3C//DTD SVG 1.1//EN"
 "http://www.w3.org/Graphics/SVG/1.1/DTD/svg11.dtd">
<!-- Generated by graphviz version 2.40.1 (20161225.0304)
 -->
<!-- Title: oneDegreeRelationshipsDiagram Pages: 1 -->
<svg width="461pt" height="184pt"
 viewBox="0.00 0.00 461.00 184.20" xmlns="http://www.w3.org/2000/svg" xmlns:xlink="http://www.w3.org/1999/xlink">
<g id="graph0" class="graph" transform="scale(1 1) rotate(0) translate(4 180.2)">
<title>oneDegreeRelationshipsDiagram</title>
<polygon fill="#ffffff" stroke="transparent" points="-4,4 -4,-180.2 457,-180.2 457,4 -4,4"/>
<text text-anchor="middle" x="72.4936" y="-7.3" font-family="Helvetica,sans-Serif" font-size="11.00" fill="#000000">Generated by SchemaSpy</text>
<!-- AspNetUserTokens -->
<g id="node1" class="node">
<title>AspNetUserTokens</title>
<g id="a_node1"><a xlink:href="../../tables/AspNetUserTokens.html" xlink:title="AspNetUserTokens" target="_top">
<polygon fill="#ffffff" stroke="transparent" points="220,-38.2 220,-172.2 445,-172.2 445,-38.2 220,-38.2"/>
<polygon fill="#f5f5f5" stroke="transparent" points="222.5,-147.2 222.5,-170.2 443.5,-170.2 443.5,-147.2 222.5,-147.2"/>
<polygon fill="none" stroke="#000000" points="222.5,-147.2 222.5,-170.2 443.5,-170.2 443.5,-147.2 222.5,-147.2"/>
<text text-anchor="start" x="227.5" y="-155.8" font-family="Helvetica,sans-Serif" font-weight="bold" font-size="11.00" fill="#000000">AspNetUserTokens</text>
<text text-anchor="start" x="408.5437" y="-155.3" font-family="Helvetica,sans-Serif" font-size="11.00" fill="#000000">[table]</text>
<polygon fill="none" stroke="#000000" points="222.5,-125.2 222.5,-147.2 353.5,-147.2 353.5,-125.2 222.5,-125.2"/>
<image xlink:href="../../images/primaryKeys.png" width="11px" height="12px" preserveAspectRatio="xMinYMin meet" x="227.5" y="-142.2"/>
<text text-anchor="start" x="242.5" y="-132.3" font-family="Helvetica,sans-Serif" font-size="11.00" fill="#000000">UserId</text>
<polygon fill="none" stroke="#000000" points="353.5,-125.2 353.5,-147.2 443.5,-147.2 443.5,-125.2 353.5,-125.2"/>
<text text-anchor="start" x="356.0043" y="-132.9" font-family="Helvetica,sans-Serif" font-size="11.00" fill="#000000">text[2147483647]</text>
<polygon fill="none" stroke="#000000" points="222.5,-103.2 222.5,-125.2 353.5,-125.2 353.5,-103.2 222.5,-103.2"/>
<image xlink:href="../../images/primaryKeys.png" width="11px" height="12px" preserveAspectRatio="xMinYMin meet" x="227.5" y="-120.2"/>
<text text-anchor="start" x="242.5" y="-110.3" font-family="Helvetica,sans-Serif" font-size="11.00" fill="#000000">LoginProvider</text>
<polygon fill="none" stroke="#000000" points="353.5,-103.2 353.5,-125.2 443.5,-125.2 443.5,-103.2 353.5,-103.2"/>
<text text-anchor="start" x="356.0043" y="-110.9" font-family="Helvetica,sans-Serif" font-size="11.00" fill="#000000">text[2147483647]</text>
<polygon fill="none" stroke="#000000" points="222.5,-81.2 222.5,-103.2 353.5,-103.2 353.5,-81.2 222.5,-81.2"/>
<image xlink:href="../../images/primaryKeys.png" width="11px" height="12px" preserveAspectRatio="xMinYMin meet" x="227.5" y="-98.2"/>
<text text-anchor="start" x="242.5" y="-88.3" font-family="Helvetica,sans-Serif" font-size="11.00" fill="#000000">Name</text>
<polygon fill="none" stroke="#000000" points="353.5,-81.2 353.5,-103.2 443.5,-103.2 443.5,-81.2 353.5,-81.2"/>
<text text-anchor="start" x="356.0043" y="-88.9" font-family="Helvetica,sans-Serif" font-size="11.00" fill="#000000">text[2147483647]</text>
<polygon fill="none" stroke="#000000" points="222.5,-59.2 222.5,-81.2 353.5,-81.2 353.5,-59.2 222.5,-59.2"/>
<text text-anchor="start" x="242.5" y="-66.3" font-family="Helvetica,sans-Serif" font-size="11.00" fill="#000000">Value</text>
<polygon fill="none" stroke="#000000" points="353.5,-59.2 353.5,-81.2 443.5,-81.2 443.5,-59.2 353.5,-59.2"/>
<text text-anchor="start" x="356.0043" y="-66.9" font-family="Helvetica,sans-Serif" font-size="11.00" fill="#000000">text[2147483647]</text>
<polygon fill="#ffffff" stroke="transparent" points="222.5,-40.2 222.5,-59.2 279.5,-59.2 279.5,-40.2 222.5,-40.2"/>
<polygon fill="none" stroke="#000000" points="222.5,-40.2 222.5,-59.2 279.5,-59.2 279.5,-40.2 222.5,-40.2"/>
<text text-anchor="start" x="225.5" y="-46.3" font-family="Helvetica,sans-Serif" font-size="11.00" fill="#000000">&lt; 1</text>
<polygon fill="#ffffff" stroke="transparent" points="279.5,-40.2 279.5,-59.2 353.5,-59.2 353.5,-40.2 279.5,-40.2"/>
<polygon fill="none" stroke="#000000" points="279.5,-40.2 279.5,-59.2 353.5,-59.2 353.5,-40.2 279.5,-40.2"/>
<text text-anchor="start" x="318.1105" y="-46.3" font-family="Helvetica,sans-Serif" font-size="11.00" fill="#000000">0 rows</text>
<polygon fill="#ffffff" stroke="transparent" points="353.5,-40.2 353.5,-59.2 443.5,-59.2 443.5,-40.2 353.5,-40.2"/>
<polygon fill="none" stroke="#000000" points="353.5,-40.2 353.5,-59.2 443.5,-59.2 443.5,-40.2 353.5,-40.2"/>
<text text-anchor="start" x="424.9053" y="-46.3" font-family="Helvetica,sans-Serif" font-size="11.00" fill="#000000">0 &gt;</text>
<polygon fill="none" stroke="#000000" stroke-width="2" points="221,-39.2 221,-171.2 444,-171.2 444,-39.2 221,-39.2"/>
</a>
</g>
</g>
<!-- AspNetUsers -->
<g id="node2" class="node">
<title>AspNetUsers</title>
<g id="a_node2"><a xlink:href="../../tables/AspNetUsers.html" xlink:title="AspNetUsers" target="_top">
<polygon fill="#ffffff" stroke="transparent" points="8,-43.7 8,-170.7 171,-170.7 171,-43.7 8,-43.7"/>
<polygon fill="#f5f5f5" stroke="transparent" points="8.5,-147.2 8.5,-170.2 171.5,-170.2 171.5,-147.2 8.5,-147.2"/>
<polygon fill="none" stroke="#000000" points="8.5,-147.2 8.5,-170.2 171.5,-170.2 171.5,-147.2 8.5,-147.2"/>
<text text-anchor="start" x="13.5" y="-155.8" font-family="Helvetica,sans-Serif" font-weight="bold" font-size="11.00" fill="#000000">AspNetUsers</text>
<text text-anchor="start" x="136.5437" y="-155.3" font-family="Helvetica,sans-Serif" font-size="11.00" fill="#000000">[table]</text>
<polygon fill="none" stroke="#000000" points="8.5,-125.2 8.5,-147.2 171.5,-147.2 171.5,-125.2 8.5,-125.2"/>
<image xlink:href="../../images/primaryKeys.png" width="11px" height="12px" preserveAspectRatio="xMinYMin meet" x="13.5" y="-142.2"/>
<text text-anchor="start" x="28.5" y="-132.3" font-family="Helvetica,sans-Serif" font-size="11.00" fill="#000000">Id</text>
<polygon fill="#ffffff" stroke="transparent" points="8.5,-103.2 8.5,-125.2 171.5,-125.2 171.5,-103.2 8.5,-103.2"/>
<polygon fill="none" stroke="#000000" points="8.5,-103.2 8.5,-125.2 171.5,-125.2 171.5,-103.2 8.5,-103.2"/>
<text text-anchor="start" x="28.5" y="-110.3" font-family="Helvetica,sans-Serif" font-size="11.00" fill="#000000">NormalizedUserName</text>
<polygon fill="#ffffff" stroke="transparent" points="8.5,-81.2 8.5,-103.2 171.5,-103.2 171.5,-81.2 8.5,-81.2"/>
<polygon fill="none" stroke="#000000" points="8.5,-81.2 8.5,-103.2 171.5,-103.2 171.5,-81.2 8.5,-81.2"/>
<text text-anchor="start" x="28.5" y="-88.3" font-family="Helvetica,sans-Serif" font-size="11.00" fill="#000000">NormalizedEmail</text>
<polygon fill="none" stroke="#000000" points="8.5,-62.2 8.5,-81.2 171.5,-81.2 171.5,-62.2 8.5,-62.2"/>
<text text-anchor="start" x="11.5" y="-68.3" font-family="Helvetica,sans-Serif" font-size="11.00" fill="#000000">...</text>
<polygon fill="#ffffff" stroke="transparent" points="8.5,-43.2 8.5,-62.2 66.5,-62.2 66.5,-43.2 8.5,-43.2"/>
<polygon fill="none" stroke="#000000" points="8.5,-43.2 8.5,-62.2 66.5,-62.2 66.5,-43.2 8.5,-43.2"/>
<text text-anchor="start" x="11.5" y="-49.3" font-family="Helvetica,sans-Serif" font-size="11.00" fill="#000000"> &#160;</text>
<polygon fill="#ffffff" stroke="transparent" points="66.5,-43.2 66.5,-62.2 121.5,-62.2 121.5,-43.2 66.5,-43.2"/>
<polygon fill="none" stroke="#000000" points="66.5,-43.2 66.5,-62.2 121.5,-62.2 121.5,-43.2 66.5,-43.2"/>
<text text-anchor="start" x="91.6105" y="-49.3" font-family="Helvetica,sans-Serif" font-size="11.00" fill="#000000">1 row</text>
<polygon fill="#ffffff" stroke="transparent" points="121.5,-43.2 121.5,-62.2 171.5,-62.2 171.5,-43.2 121.5,-43.2"/>
<polygon fill="none" stroke="#000000" points="121.5,-43.2 121.5,-62.2 171.5,-62.2 171.5,-43.2 121.5,-43.2"/>
<text text-anchor="start" x="146.7904" y="-49.3" font-family="Helvetica,sans-Serif" font-size="11.00" fill="#000000">29 &gt;</text>
</a>
</g>
</g>
<!-- AspNetUserTokens&#45;&gt;AspNetUsers -->
<g id="edge1" class="edge">
<title>AspNetUserTokens:w&#45;&gt;AspNetUsers:e</title>
<path fill="none" stroke="#000000" d="M207.776,-136.2C195.7815,-136.2 188.3229,-136.2 171.5,-136.2"/>
<polygon fill="#000000" stroke="#000000" points="214.5,-136.2001 222.5,-139.8 218.5,-136.2 222.5,-136.2 222.5,-136.2 222.5,-136.2 218.5,-136.2 222.5,-132.6 214.5,-136.2001 214.5,-136.2001"/>
<ellipse fill="none" stroke="#000000" cx="211.3" cy="-136.2001" rx="3.2" ry="3.2"/>
</g>
</g>
</svg>
