<?xml version="1.0" encoding="UTF-8" standalone="no"?>
<!DOCTYPE svg PUBLIC "-//W3C//DTD SVG 1.1//EN"
 "http://www.w3.org/Graphics/SVG/1.1/DTD/svg11.dtd">
<!-- Generated by graphviz version 2.40.1 (20161225.0304)
 -->
<!-- Title: oneDegreeRelationshipsDiagram Pages: 1 -->
<svg width="452pt" height="303pt"
 viewBox="0.00 0.00 452.00 303.20" xmlns="http://www.w3.org/2000/svg" xmlns:xlink="http://www.w3.org/1999/xlink">
<g id="graph0" class="graph" transform="scale(1 1) rotate(0) translate(4 299.2)">
<title>oneDegreeRelationshipsDiagram</title>
<polygon fill="#ffffff" stroke="transparent" points="-4,4 -4,-299.2 448,-299.2 448,4 -4,4"/>
<text text-anchor="middle" x="72.4936" y="-7.3" font-family="Helvetica,sans-Serif" font-size="11.00" fill="#000000">Generated by SchemaSpy</text>
<!-- AspNetUserRoles -->
<g id="node1" class="node">
<title>AspNetUserRoles</title>
<g id="a_node1"><a xlink:href="../../tables/AspNetUserRoles.html" xlink:title="AspNetUserRoles" target="_top">
<polygon fill="#ffffff" stroke="transparent" points="220,-139.7 220,-229.7 436,-229.7 436,-139.7 220,-139.7"/>
<polygon fill="#f5f5f5" stroke="transparent" points="222,-204.7 222,-227.7 434,-227.7 434,-204.7 222,-204.7"/>
<polygon fill="none" stroke="#000000" points="222,-204.7 222,-227.7 434,-227.7 434,-204.7 222,-204.7"/>
<text text-anchor="start" x="227" y="-213.3" font-family="Helvetica,sans-Serif" font-weight="bold" font-size="11.00" fill="#000000">AspNetUserRoles</text>
<text text-anchor="start" x="399.0437" y="-212.8" font-family="Helvetica,sans-Serif" font-size="11.00" fill="#000000">[table]</text>
<polygon fill="none" stroke="#000000" points="222,-182.7 222,-204.7 344,-204.7 344,-182.7 222,-182.7"/>
<image xlink:href="../../images/primaryKeys.png" width="11px" height="12px" preserveAspectRatio="xMinYMin meet" x="227" y="-199.7"/>
<text text-anchor="start" x="242" y="-189.8" font-family="Helvetica,sans-Serif" font-size="11.00" fill="#000000">UserId</text>
<polygon fill="none" stroke="#000000" points="344,-182.7 344,-204.7 434,-204.7 434,-182.7 344,-182.7"/>
<text text-anchor="start" x="346.5043" y="-190.4" font-family="Helvetica,sans-Serif" font-size="11.00" fill="#000000">text[2147483647]</text>
<polygon fill="none" stroke="#000000" points="222,-160.7 222,-182.7 344,-182.7 344,-160.7 222,-160.7"/>
<image xlink:href="../../images/primaryKeys.png" width="11px" height="12px" preserveAspectRatio="xMinYMin meet" x="227" y="-177.7"/>
<text text-anchor="start" x="242" y="-167.8" font-family="Helvetica,sans-Serif" font-size="11.00" fill="#000000">RoleId</text>
<polygon fill="none" stroke="#000000" points="344,-160.7 344,-182.7 434,-182.7 434,-160.7 344,-160.7"/>
<text text-anchor="start" x="346.5043" y="-168.4" font-family="Helvetica,sans-Serif" font-size="11.00" fill="#000000">text[2147483647]</text>
<polygon fill="#ffffff" stroke="transparent" points="222,-141.7 222,-160.7 277,-160.7 277,-141.7 222,-141.7"/>
<polygon fill="none" stroke="#000000" points="222,-141.7 222,-160.7 277,-160.7 277,-141.7 222,-141.7"/>
<text text-anchor="start" x="225" y="-147.8" font-family="Helvetica,sans-Serif" font-size="11.00" fill="#000000">&lt; 2</text>
<polygon fill="#ffffff" stroke="transparent" points="277,-141.7 277,-160.7 344,-160.7 344,-141.7 277,-141.7"/>
<polygon fill="none" stroke="#000000" points="277,-141.7 277,-160.7 344,-160.7 344,-141.7 277,-141.7"/>
<text text-anchor="start" x="314.1105" y="-147.8" font-family="Helvetica,sans-Serif" font-size="11.00" fill="#000000">1 row</text>
<polygon fill="#ffffff" stroke="transparent" points="344,-141.7 344,-160.7 434,-160.7 434,-141.7 344,-141.7"/>
<polygon fill="none" stroke="#000000" points="344,-141.7 344,-160.7 434,-160.7 434,-141.7 344,-141.7"/>
<text text-anchor="start" x="415.4053" y="-147.8" font-family="Helvetica,sans-Serif" font-size="11.00" fill="#000000">0 &gt;</text>
<polygon fill="none" stroke="#000000" stroke-width="2" points="221,-140.7 221,-228.7 435,-228.7 435,-140.7 221,-140.7"/>
</a>
</g>
</g>
<!-- AspNetRoles -->
<g id="node2" class="node">
<title>AspNetRoles</title>
<g id="a_node2"><a xlink:href="../../tables/AspNetRoles.html" xlink:title="AspNetRoles" target="_top">
<polygon fill="#ffffff" stroke="transparent" points="24,-38.2 24,-143.2 155,-143.2 155,-38.2 24,-38.2"/>
<polygon fill="#f5f5f5" stroke="transparent" points="24.5,-119.7 24.5,-142.7 155.5,-142.7 155.5,-119.7 24.5,-119.7"/>
<polygon fill="none" stroke="#000000" points="24.5,-119.7 24.5,-142.7 155.5,-142.7 155.5,-119.7 24.5,-119.7"/>
<text text-anchor="start" x="29.5" y="-128.3" font-family="Helvetica,sans-Serif" font-weight="bold" font-size="11.00" fill="#000000">AspNetRoles</text>
<text text-anchor="start" x="120.5437" y="-127.8" font-family="Helvetica,sans-Serif" font-size="11.00" fill="#000000">[table]</text>
<polygon fill="none" stroke="#000000" points="24.5,-97.7 24.5,-119.7 155.5,-119.7 155.5,-97.7 24.5,-97.7"/>
<image xlink:href="../../images/primaryKeys.png" width="11px" height="12px" preserveAspectRatio="xMinYMin meet" x="29.5" y="-114.7"/>
<text text-anchor="start" x="44.5" y="-104.8" font-family="Helvetica,sans-Serif" font-size="11.00" fill="#000000">Id</text>
<polygon fill="#ffffff" stroke="transparent" points="24.5,-75.7 24.5,-97.7 155.5,-97.7 155.5,-75.7 24.5,-75.7"/>
<polygon fill="none" stroke="#000000" points="24.5,-75.7 24.5,-97.7 155.5,-97.7 155.5,-75.7 24.5,-75.7"/>
<text text-anchor="start" x="44.5" y="-82.8" font-family="Helvetica,sans-Serif" font-size="11.00" fill="#000000">NormalizedName</text>
<polygon fill="none" stroke="#000000" points="24.5,-56.7 24.5,-75.7 155.5,-75.7 155.5,-56.7 24.5,-56.7"/>
<text text-anchor="start" x="27.5" y="-62.8" font-family="Helvetica,sans-Serif" font-size="11.00" fill="#000000">...</text>
<polygon fill="#ffffff" stroke="transparent" points="24.5,-37.7 24.5,-56.7 66.5,-56.7 66.5,-37.7 24.5,-37.7"/>
<polygon fill="none" stroke="#000000" points="24.5,-37.7 24.5,-56.7 66.5,-56.7 66.5,-37.7 24.5,-37.7"/>
<text text-anchor="start" x="27.5" y="-43.8" font-family="Helvetica,sans-Serif" font-size="11.00" fill="#000000"> &#160;</text>
<polygon fill="#ffffff" stroke="transparent" points="66.5,-37.7 66.5,-56.7 119.5,-56.7 119.5,-37.7 66.5,-37.7"/>
<polygon fill="none" stroke="#000000" points="66.5,-37.7 66.5,-56.7 119.5,-56.7 119.5,-37.7 66.5,-37.7"/>
<text text-anchor="start" x="84.1105" y="-43.8" font-family="Helvetica,sans-Serif" font-size="11.00" fill="#000000">4 rows</text>
<polygon fill="#ffffff" stroke="transparent" points="119.5,-37.7 119.5,-56.7 155.5,-56.7 155.5,-37.7 119.5,-37.7"/>
<polygon fill="none" stroke="#000000" points="119.5,-37.7 119.5,-56.7 155.5,-56.7 155.5,-37.7 119.5,-37.7"/>
<text text-anchor="start" x="136.9053" y="-43.8" font-family="Helvetica,sans-Serif" font-size="11.00" fill="#000000">2 &gt;</text>
</a>
</g>
</g>
<!-- AspNetUserRoles&#45;&gt;AspNetRoles -->
<g id="edge1" class="edge">
<title>AspNetUserRoles:w&#45;&gt;AspNetRoles:e</title>
<path fill="none" stroke="#000000" d="M207.8157,-168.3128C184.3848,-155.2271 190.4875,-108.7 155.5,-108.7"/>
<polygon fill="#000000" stroke="#000000" points="214.2188,-169.8418 221.1638,-175.2016 218.1094,-170.7709 222,-171.7 222,-171.7 222,-171.7 218.1094,-170.7709 222.8362,-168.1984 214.2188,-169.8418 214.2188,-169.8418"/>
<ellipse fill="none" stroke="#000000" cx="211.1063" cy="-169.0986" rx="3.2" ry="3.2"/>
</g>
<!-- AspNetUsers -->
<g id="node3" class="node">
<title>AspNetUsers</title>
<g id="a_node3"><a xlink:href="../../tables/AspNetUsers.html" xlink:title="AspNetUsers" target="_top">
<polygon fill="#ffffff" stroke="transparent" points="8,-164.2 8,-291.2 171,-291.2 171,-164.2 8,-164.2"/>
<polygon fill="#f5f5f5" stroke="transparent" points="8.5,-267.7 8.5,-290.7 171.5,-290.7 171.5,-267.7 8.5,-267.7"/>
<polygon fill="none" stroke="#000000" points="8.5,-267.7 8.5,-290.7 171.5,-290.7 171.5,-267.7 8.5,-267.7"/>
<text text-anchor="start" x="13.5" y="-276.3" font-family="Helvetica,sans-Serif" font-weight="bold" font-size="11.00" fill="#000000">AspNetUsers</text>
<text text-anchor="start" x="136.5437" y="-275.8" font-family="Helvetica,sans-Serif" font-size="11.00" fill="#000000">[table]</text>
<polygon fill="none" stroke="#000000" points="8.5,-245.7 8.5,-267.7 171.5,-267.7 171.5,-245.7 8.5,-245.7"/>
<image xlink:href="../../images/primaryKeys.png" width="11px" height="12px" preserveAspectRatio="xMinYMin meet" x="13.5" y="-262.7"/>
<text text-anchor="start" x="28.5" y="-252.8" font-family="Helvetica,sans-Serif" font-size="11.00" fill="#000000">Id</text>
<polygon fill="#ffffff" stroke="transparent" points="8.5,-223.7 8.5,-245.7 171.5,-245.7 171.5,-223.7 8.5,-223.7"/>
<polygon fill="none" stroke="#000000" points="8.5,-223.7 8.5,-245.7 171.5,-245.7 171.5,-223.7 8.5,-223.7"/>
<text text-anchor="start" x="28.5" y="-230.8" font-family="Helvetica,sans-Serif" font-size="11.00" fill="#000000">NormalizedUserName</text>
<polygon fill="#ffffff" stroke="transparent" points="8.5,-201.7 8.5,-223.7 171.5,-223.7 171.5,-201.7 8.5,-201.7"/>
<polygon fill="none" stroke="#000000" points="8.5,-201.7 8.5,-223.7 171.5,-223.7 171.5,-201.7 8.5,-201.7"/>
<text text-anchor="start" x="28.5" y="-208.8" font-family="Helvetica,sans-Serif" font-size="11.00" fill="#000000">NormalizedEmail</text>
<polygon fill="none" stroke="#000000" points="8.5,-182.7 8.5,-201.7 171.5,-201.7 171.5,-182.7 8.5,-182.7"/>
<text text-anchor="start" x="11.5" y="-188.8" font-family="Helvetica,sans-Serif" font-size="11.00" fill="#000000">...</text>
<polygon fill="#ffffff" stroke="transparent" points="8.5,-163.7 8.5,-182.7 66.5,-182.7 66.5,-163.7 8.5,-163.7"/>
<polygon fill="none" stroke="#000000" points="8.5,-163.7 8.5,-182.7 66.5,-182.7 66.5,-163.7 8.5,-163.7"/>
<text text-anchor="start" x="11.5" y="-169.8" font-family="Helvetica,sans-Serif" font-size="11.00" fill="#000000"> &#160;</text>
<polygon fill="#ffffff" stroke="transparent" points="66.5,-163.7 66.5,-182.7 121.5,-182.7 121.5,-163.7 66.5,-163.7"/>
<polygon fill="none" stroke="#000000" points="66.5,-163.7 66.5,-182.7 121.5,-182.7 121.5,-163.7 66.5,-163.7"/>
<text text-anchor="start" x="91.6105" y="-169.8" font-family="Helvetica,sans-Serif" font-size="11.00" fill="#000000">1 row</text>
<polygon fill="#ffffff" stroke="transparent" points="121.5,-163.7 121.5,-182.7 171.5,-182.7 171.5,-163.7 121.5,-163.7"/>
<polygon fill="none" stroke="#000000" points="121.5,-163.7 121.5,-182.7 171.5,-182.7 171.5,-163.7 121.5,-163.7"/>
<text text-anchor="start" x="146.7904" y="-169.8" font-family="Helvetica,sans-Serif" font-size="11.00" fill="#000000">29 &gt;</text>
</a>
</g>
</g>
<!-- AspNetUserRoles&#45;&gt;AspNetUsers -->
<g id="edge2" class="edge">
<title>AspNetUserRoles:w&#45;&gt;AspNetUsers:e</title>
<path fill="none" stroke="#000000" d="M207.9816,-198.6435C191.738,-213.4952 201.2175,-256.7 171.5,-256.7"/>
<polygon fill="#000000" stroke="#000000" points="214.4554,-196.3606 223.1973,-197.0951 218.2277,-195.0303 222,-193.7 222,-193.7 222,-193.7 218.2277,-195.0303 220.8027,-190.3049 214.4554,-196.3606 214.4554,-196.3606"/>
<ellipse fill="none" stroke="#000000" cx="211.4375" cy="-197.4248" rx="3.2" ry="3.2"/>
</g>
</g>
</svg>
