<?xml version="1.0" encoding="UTF-8" standalone="no"?>
<!DOCTYPE svg PUBLIC "-//W3C//DTD SVG 1.1//EN"
 "http://www.w3.org/Graphics/SVG/1.1/DTD/svg11.dtd">
<!-- Generated by graphviz version 2.40.1 (20161225.0304)
 -->
<!-- Title: twoDegreesRelationshipsDiagram Pages: 1 -->
<svg width="1527pt" height="1366pt"
 viewBox="0.00 0.00 1527.00 1365.97" xmlns="http://www.w3.org/2000/svg" xmlns:xlink="http://www.w3.org/1999/xlink">
<g id="graph0" class="graph" transform="scale(1 1) rotate(0) translate(4 1361.9717)">
<title>twoDegreesRelationshipsDiagram</title>
<polygon fill="#ffffff" stroke="transparent" points="-4,4 -4,-1361.9717 1523,-1361.9717 1523,4 -4,4"/>
<text text-anchor="middle" x="72.4936" y="-7.3" font-family="Helvetica,sans-Serif" font-size="11.00" fill="#000000">Generated by SchemaSpy</text>
<!-- AspNetUserClaims -->
<g id="node1" class="node">
<title>AspNetUserClaims</title>
<g id="a_node1"><a xlink:href="../../tables/AspNetUserClaims.html" xlink:title="AspNetUserClaims" target="_top">
<polygon fill="#ffffff" stroke="transparent" points="317,-1102.4717 317,-1207.4717 464,-1207.4717 464,-1102.4717 317,-1102.4717"/>
<polygon fill="#f5f5f5" stroke="transparent" points="317.5,-1183.9717 317.5,-1206.9717 464.5,-1206.9717 464.5,-1183.9717 317.5,-1183.9717"/>
<polygon fill="none" stroke="#000000" points="317.5,-1183.9717 317.5,-1206.9717 464.5,-1206.9717 464.5,-1183.9717 317.5,-1183.9717"/>
<text text-anchor="start" x="322.5" y="-1192.5717" font-family="Helvetica,sans-Serif" font-weight="bold" font-size="11.00" fill="#000000">AspNetUserClaims</text>
<text text-anchor="start" x="430.0219" y="-1192.0717" font-family="Helvetica,sans-Serif" font-size="11.00" fill="#000000">[table]</text>
<polygon fill="none" stroke="#000000" points="317.5,-1161.9717 317.5,-1183.9717 464.5,-1183.9717 464.5,-1161.9717 317.5,-1161.9717"/>
<image xlink:href="../../images/primaryKeys.png" width="11px" height="12px" preserveAspectRatio="xMinYMin meet" x="322.5" y="-1178.97"/>
<text text-anchor="start" x="346.5" y="-1169.0717" font-family="Helvetica,sans-Serif" font-size="11.00" fill="#000000">Id</text>
<polygon fill="#ffffff" stroke="transparent" points="317.5,-1139.9717 317.5,-1161.9717 464.5,-1161.9717 464.5,-1139.9717 317.5,-1139.9717"/>
<polygon fill="none" stroke="#000000" points="317.5,-1139.9717 317.5,-1161.9717 464.5,-1161.9717 464.5,-1139.9717 317.5,-1139.9717"/>
<image xlink:href="../../images/foreignKeys.png" width="11px" height="12px" preserveAspectRatio="xMinYMin meet" x="322.5" y="-1156.97"/>
<text text-anchor="start" x="346.5" y="-1147.0717" font-family="Helvetica,sans-Serif" font-size="11.00" fill="#000000">UserId</text>
<polygon fill="none" stroke="#000000" points="317.5,-1120.9717 317.5,-1139.9717 464.5,-1139.9717 464.5,-1120.9717 317.5,-1120.9717"/>
<text text-anchor="start" x="320.5" y="-1127.0717" font-family="Helvetica,sans-Serif" font-size="11.00" fill="#000000">...</text>
<polygon fill="#ffffff" stroke="transparent" points="317.5,-1101.9717 317.5,-1120.9717 376.5,-1120.9717 376.5,-1101.9717 317.5,-1101.9717"/>
<polygon fill="none" stroke="#000000" points="317.5,-1101.9717 317.5,-1120.9717 376.5,-1120.9717 376.5,-1101.9717 317.5,-1101.9717"/>
<text text-anchor="start" x="320.5" y="-1108.0717" font-family="Helvetica,sans-Serif" font-size="11.00" fill="#000000">&lt; 1</text>
<polygon fill="#ffffff" stroke="transparent" points="376.5,-1101.9717 376.5,-1120.9717 433.5,-1120.9717 433.5,-1101.9717 376.5,-1101.9717"/>
<polygon fill="none" stroke="#000000" points="376.5,-1101.9717 376.5,-1120.9717 433.5,-1120.9717 433.5,-1101.9717 376.5,-1101.9717"/>
<text text-anchor="start" x="398.1105" y="-1108.0717" font-family="Helvetica,sans-Serif" font-size="11.00" fill="#000000">0 rows</text>
<polygon fill="#ffffff" stroke="transparent" points="433.5,-1101.9717 433.5,-1120.9717 464.5,-1120.9717 464.5,-1101.9717 433.5,-1101.9717"/>
<polygon fill="none" stroke="#000000" points="433.5,-1101.9717 433.5,-1120.9717 464.5,-1120.9717 464.5,-1101.9717 433.5,-1101.9717"/>
<text text-anchor="start" x="455.3862" y="-1108.0717" font-family="Helvetica,sans-Serif" font-size="11.00" fill="#000000"> &#160;</text>
</a>
</g>
</g>
<!-- AspNetUsers -->
<g id="node2" class="node">
<title>AspNetUsers</title>
<g id="a_node2"><a xlink:href="../../tables/AspNetUsers.html" xlink:title="AspNetUsers" target="_top">
<polygon fill="#ffffff" stroke="transparent" points="8,-219.9717 8,-617.9717 267,-617.9717 267,-219.9717 8,-219.9717"/>
<polygon fill="#f5f5f5" stroke="transparent" points="10.5,-592.9717 10.5,-615.9717 265.5,-615.9717 265.5,-592.9717 10.5,-592.9717"/>
<polygon fill="none" stroke="#000000" points="10.5,-592.9717 10.5,-615.9717 265.5,-615.9717 265.5,-592.9717 10.5,-592.9717"/>
<text text-anchor="start" x="15.5" y="-601.5717" font-family="Helvetica,sans-Serif" font-weight="bold" font-size="11.00" fill="#000000">AspNetUsers</text>
<text text-anchor="start" x="230.5437" y="-601.0717" font-family="Helvetica,sans-Serif" font-size="11.00" fill="#000000">[table]</text>
<polygon fill="none" stroke="#000000" points="10.5,-570.9717 10.5,-592.9717 173.5,-592.9717 173.5,-570.9717 10.5,-570.9717"/>
<image xlink:href="../../images/primaryKeys.png" width="11px" height="12px" preserveAspectRatio="xMinYMin meet" x="15.5" y="-587.972"/>
<text text-anchor="start" x="30.5" y="-578.0717" font-family="Helvetica,sans-Serif" font-size="11.00" fill="#000000">Id</text>
<polygon fill="none" stroke="#000000" points="173.5,-570.9717 173.5,-592.9717 265.5,-592.9717 265.5,-570.9717 173.5,-570.9717"/>
<text text-anchor="start" x="176.5" y="-578.6717" font-family="Helvetica,sans-Serif" font-size="11.00" fill="#000000">text[2147483647]</text>
<polygon fill="none" stroke="#000000" points="10.5,-548.9717 10.5,-570.9717 173.5,-570.9717 173.5,-548.9717 10.5,-548.9717"/>
<text text-anchor="start" x="30.5" y="-556.0717" font-family="Helvetica,sans-Serif" font-size="11.00" fill="#000000">UserName</text>
<polygon fill="none" stroke="#000000" points="173.5,-548.9717 173.5,-570.9717 265.5,-570.9717 265.5,-548.9717 173.5,-548.9717"/>
<text text-anchor="start" x="176.5" y="-556.6717" font-family="Helvetica,sans-Serif" font-size="11.00" fill="#000000">varchar[256]</text>
<polygon fill="#ffffff" stroke="transparent" points="10.5,-526.9717 10.5,-548.9717 173.5,-548.9717 173.5,-526.9717 10.5,-526.9717"/>
<polygon fill="none" stroke="#000000" points="10.5,-526.9717 10.5,-548.9717 173.5,-548.9717 173.5,-526.9717 10.5,-526.9717"/>
<text text-anchor="start" x="30.5" y="-534.0717" font-family="Helvetica,sans-Serif" font-size="11.00" fill="#000000">NormalizedUserName</text>
<polygon fill="none" stroke="#000000" points="173.5,-526.9717 173.5,-548.9717 265.5,-548.9717 265.5,-526.9717 173.5,-526.9717"/>
<text text-anchor="start" x="176.5" y="-534.6717" font-family="Helvetica,sans-Serif" font-size="11.00" fill="#000000">varchar[256]</text>
<polygon fill="none" stroke="#000000" points="10.5,-504.9717 10.5,-526.9717 173.5,-526.9717 173.5,-504.9717 10.5,-504.9717"/>
<text text-anchor="start" x="30.5" y="-512.0717" font-family="Helvetica,sans-Serif" font-size="11.00" fill="#000000">Email</text>
<polygon fill="none" stroke="#000000" points="173.5,-504.9717 173.5,-526.9717 265.5,-526.9717 265.5,-504.9717 173.5,-504.9717"/>
<text text-anchor="start" x="176.5" y="-512.6717" font-family="Helvetica,sans-Serif" font-size="11.00" fill="#000000">varchar[256]</text>
<polygon fill="#ffffff" stroke="transparent" points="10.5,-482.9717 10.5,-504.9717 173.5,-504.9717 173.5,-482.9717 10.5,-482.9717"/>
<polygon fill="none" stroke="#000000" points="10.5,-482.9717 10.5,-504.9717 173.5,-504.9717 173.5,-482.9717 10.5,-482.9717"/>
<text text-anchor="start" x="30.5" y="-490.0717" font-family="Helvetica,sans-Serif" font-size="11.00" fill="#000000">NormalizedEmail</text>
<polygon fill="none" stroke="#000000" points="173.5,-482.9717 173.5,-504.9717 265.5,-504.9717 265.5,-482.9717 173.5,-482.9717"/>
<text text-anchor="start" x="176.5" y="-490.6717" font-family="Helvetica,sans-Serif" font-size="11.00" fill="#000000">varchar[256]</text>
<polygon fill="none" stroke="#000000" points="10.5,-460.9717 10.5,-482.9717 173.5,-482.9717 173.5,-460.9717 10.5,-460.9717"/>
<text text-anchor="start" x="30.5" y="-468.0717" font-family="Helvetica,sans-Serif" font-size="11.00" fill="#000000">EmailConfirmed</text>
<polygon fill="none" stroke="#000000" points="173.5,-460.9717 173.5,-482.9717 265.5,-482.9717 265.5,-460.9717 173.5,-460.9717"/>
<text text-anchor="start" x="176.5" y="-468.6717" font-family="Helvetica,sans-Serif" font-size="11.00" fill="#000000">bool[1]</text>
<polygon fill="none" stroke="#000000" points="10.5,-438.9717 10.5,-460.9717 173.5,-460.9717 173.5,-438.9717 10.5,-438.9717"/>
<text text-anchor="start" x="30.5" y="-446.0717" font-family="Helvetica,sans-Serif" font-size="11.00" fill="#000000">PasswordHash</text>
<polygon fill="none" stroke="#000000" points="173.5,-438.9717 173.5,-460.9717 265.5,-460.9717 265.5,-438.9717 173.5,-438.9717"/>
<text text-anchor="start" x="176.5" y="-446.6717" font-family="Helvetica,sans-Serif" font-size="11.00" fill="#000000">text[2147483647]</text>
<polygon fill="none" stroke="#000000" points="10.5,-416.9717 10.5,-438.9717 173.5,-438.9717 173.5,-416.9717 10.5,-416.9717"/>
<text text-anchor="start" x="30.5" y="-424.0717" font-family="Helvetica,sans-Serif" font-size="11.00" fill="#000000">SecurityStamp</text>
<polygon fill="none" stroke="#000000" points="173.5,-416.9717 173.5,-438.9717 265.5,-438.9717 265.5,-416.9717 173.5,-416.9717"/>
<text text-anchor="start" x="176.5" y="-424.6717" font-family="Helvetica,sans-Serif" font-size="11.00" fill="#000000">text[2147483647]</text>
<polygon fill="none" stroke="#000000" points="10.5,-394.9717 10.5,-416.9717 173.5,-416.9717 173.5,-394.9717 10.5,-394.9717"/>
<text text-anchor="start" x="30.5" y="-402.0717" font-family="Helvetica,sans-Serif" font-size="11.00" fill="#000000">ConcurrencyStamp</text>
<polygon fill="none" stroke="#000000" points="173.5,-394.9717 173.5,-416.9717 265.5,-416.9717 265.5,-394.9717 173.5,-394.9717"/>
<text text-anchor="start" x="176.5" y="-402.6717" font-family="Helvetica,sans-Serif" font-size="11.00" fill="#000000">text[2147483647]</text>
<polygon fill="none" stroke="#000000" points="10.5,-372.9717 10.5,-394.9717 173.5,-394.9717 173.5,-372.9717 10.5,-372.9717"/>
<text text-anchor="start" x="30.5" y="-380.0717" font-family="Helvetica,sans-Serif" font-size="11.00" fill="#000000">PhoneNumber</text>
<polygon fill="none" stroke="#000000" points="173.5,-372.9717 173.5,-394.9717 265.5,-394.9717 265.5,-372.9717 173.5,-372.9717"/>
<text text-anchor="start" x="176.5" y="-380.6717" font-family="Helvetica,sans-Serif" font-size="11.00" fill="#000000">text[2147483647]</text>
<polygon fill="none" stroke="#000000" points="10.5,-350.9717 10.5,-372.9717 173.5,-372.9717 173.5,-350.9717 10.5,-350.9717"/>
<text text-anchor="start" x="30.5" y="-358.0717" font-family="Helvetica,sans-Serif" font-size="11.00" fill="#000000">PhoneNumberConfirmed</text>
<polygon fill="none" stroke="#000000" points="173.5,-350.9717 173.5,-372.9717 265.5,-372.9717 265.5,-350.9717 173.5,-350.9717"/>
<text text-anchor="start" x="176.5" y="-358.6717" font-family="Helvetica,sans-Serif" font-size="11.00" fill="#000000">bool[1]</text>
<polygon fill="none" stroke="#000000" points="10.5,-328.9717 10.5,-350.9717 173.5,-350.9717 173.5,-328.9717 10.5,-328.9717"/>
<text text-anchor="start" x="30.5" y="-336.0717" font-family="Helvetica,sans-Serif" font-size="11.00" fill="#000000">TwoFactorEnabled</text>
<polygon fill="none" stroke="#000000" points="173.5,-328.9717 173.5,-350.9717 265.5,-350.9717 265.5,-328.9717 173.5,-328.9717"/>
<text text-anchor="start" x="176.5" y="-336.6717" font-family="Helvetica,sans-Serif" font-size="11.00" fill="#000000">bool[1]</text>
<polygon fill="none" stroke="#000000" points="10.5,-306.9717 10.5,-328.9717 173.5,-328.9717 173.5,-306.9717 10.5,-306.9717"/>
<text text-anchor="start" x="30.5" y="-314.0717" font-family="Helvetica,sans-Serif" font-size="11.00" fill="#000000">LockoutEnd</text>
<polygon fill="none" stroke="#000000" points="173.5,-306.9717 173.5,-328.9717 265.5,-328.9717 265.5,-306.9717 173.5,-306.9717"/>
<text text-anchor="start" x="176.1023" y="-314.6717" font-family="Helvetica,sans-Serif" font-size="11.00" fill="#000000">timestamptz[35,6]</text>
<polygon fill="none" stroke="#000000" points="10.5,-284.9717 10.5,-306.9717 173.5,-306.9717 173.5,-284.9717 10.5,-284.9717"/>
<text text-anchor="start" x="30.5" y="-292.0717" font-family="Helvetica,sans-Serif" font-size="11.00" fill="#000000">LockoutEnabled</text>
<polygon fill="none" stroke="#000000" points="173.5,-284.9717 173.5,-306.9717 265.5,-306.9717 265.5,-284.9717 173.5,-284.9717"/>
<text text-anchor="start" x="176.5" y="-292.6717" font-family="Helvetica,sans-Serif" font-size="11.00" fill="#000000">bool[1]</text>
<polygon fill="none" stroke="#000000" points="10.5,-262.9717 10.5,-284.9717 173.5,-284.9717 173.5,-262.9717 10.5,-262.9717"/>
<text text-anchor="start" x="30.5" y="-270.0717" font-family="Helvetica,sans-Serif" font-size="11.00" fill="#000000">AccessFailedCount</text>
<polygon fill="none" stroke="#000000" points="173.5,-262.9717 173.5,-284.9717 265.5,-284.9717 265.5,-262.9717 173.5,-262.9717"/>
<text text-anchor="start" x="176.5" y="-270.6717" font-family="Helvetica,sans-Serif" font-size="11.00" fill="#000000">int4[10]</text>
<polygon fill="none" stroke="#000000" points="10.5,-240.9717 10.5,-262.9717 173.5,-262.9717 173.5,-240.9717 10.5,-240.9717"/>
<text text-anchor="start" x="30.5" y="-248.0717" font-family="Helvetica,sans-Serif" font-size="11.00" fill="#000000">Name</text>
<polygon fill="none" stroke="#000000" points="173.5,-240.9717 173.5,-262.9717 265.5,-262.9717 265.5,-240.9717 173.5,-240.9717"/>
<text text-anchor="start" x="176.5" y="-248.6717" font-family="Helvetica,sans-Serif" font-size="11.00" fill="#000000">text[2147483647]</text>
<polygon fill="#ffffff" stroke="transparent" points="10.5,-221.9717 10.5,-240.9717 86.5,-240.9717 86.5,-221.9717 10.5,-221.9717"/>
<polygon fill="none" stroke="#000000" points="10.5,-221.9717 10.5,-240.9717 86.5,-240.9717 86.5,-221.9717 10.5,-221.9717"/>
<text text-anchor="start" x="13.5" y="-228.0717" font-family="Helvetica,sans-Serif" font-size="11.00" fill="#000000">&lt; 0</text>
<polygon fill="#ffffff" stroke="transparent" points="86.5,-221.9717 86.5,-240.9717 173.5,-240.9717 173.5,-221.9717 86.5,-221.9717"/>
<polygon fill="none" stroke="#000000" points="86.5,-221.9717 86.5,-240.9717 173.5,-240.9717 173.5,-221.9717 86.5,-221.9717"/>
<text text-anchor="start" x="143.6105" y="-228.0717" font-family="Helvetica,sans-Serif" font-size="11.00" fill="#000000">1 row</text>
<polygon fill="#ffffff" stroke="transparent" points="173.5,-221.9717 173.5,-240.9717 265.5,-240.9717 265.5,-221.9717 173.5,-221.9717"/>
<polygon fill="none" stroke="#000000" points="173.5,-221.9717 173.5,-240.9717 265.5,-240.9717 265.5,-221.9717 173.5,-221.9717"/>
<text text-anchor="start" x="240.7904" y="-228.0717" font-family="Helvetica,sans-Serif" font-size="11.00" fill="#000000">29 &gt;</text>
<polygon fill="none" stroke="#000000" stroke-width="2" points="9,-220.9717 9,-616.9717 266,-616.9717 266,-220.9717 9,-220.9717"/>
</a>
</g>
</g>
<!-- AspNetUserClaims&#45;&gt;AspNetUsers -->
<g id="edge1" class="edge">
<title>AspNetUserClaims:w&#45;&gt;AspNetUsers:e</title>
<path fill="none" stroke="#000000" d="M305.8012,-1142.4867C264.127,-1071.7049 324.3979,-581.9717 265.5,-581.9717"/>
<polygon fill="#000000" stroke="#000000" points="311.024,-1146.2747 315.3864,-1153.8859 314.262,-1148.6232 317.5,-1150.9717 317.5,-1150.9717 317.5,-1150.9717 314.262,-1148.6232 319.6136,-1148.0575 311.024,-1146.2747 311.024,-1146.2747"/>
<ellipse fill="none" stroke="#000000" cx="308.4336" cy="-1144.3959" rx="3.2" ry="3.2"/>
</g>
<!-- AspNetUserLogins -->
<g id="node3" class="node">
<title>AspNetUserLogins</title>
<g id="a_node3"><a xlink:href="../../tables/AspNetUserLogins.html" xlink:title="AspNetUserLogins" target="_top">
<polygon fill="#ffffff" stroke="transparent" points="317,-954.4717 317,-1081.4717 464,-1081.4717 464,-954.4717 317,-954.4717"/>
<polygon fill="#f5f5f5" stroke="transparent" points="317.5,-1057.9717 317.5,-1080.9717 464.5,-1080.9717 464.5,-1057.9717 317.5,-1057.9717"/>
<polygon fill="none" stroke="#000000" points="317.5,-1057.9717 317.5,-1080.9717 464.5,-1080.9717 464.5,-1057.9717 317.5,-1057.9717"/>
<text text-anchor="start" x="322.5" y="-1066.5717" font-family="Helvetica,sans-Serif" font-weight="bold" font-size="11.00" fill="#000000">AspNetUserLogins</text>
<text text-anchor="start" x="430.0219" y="-1066.0717" font-family="Helvetica,sans-Serif" font-size="11.00" fill="#000000">[table]</text>
<polygon fill="none" stroke="#000000" points="317.5,-1035.9717 317.5,-1057.9717 464.5,-1057.9717 464.5,-1035.9717 317.5,-1035.9717"/>
<image xlink:href="../../images/primaryKeys.png" width="11px" height="12px" preserveAspectRatio="xMinYMin meet" x="322.5" y="-1052.97"/>
<text text-anchor="start" x="338.5" y="-1043.0717" font-family="Helvetica,sans-Serif" font-size="11.00" fill="#000000">LoginProvider</text>
<polygon fill="none" stroke="#000000" points="317.5,-1013.9717 317.5,-1035.9717 464.5,-1035.9717 464.5,-1013.9717 317.5,-1013.9717"/>
<image xlink:href="../../images/primaryKeys.png" width="11px" height="12px" preserveAspectRatio="xMinYMin meet" x="322.5" y="-1030.97"/>
<text text-anchor="start" x="338.5" y="-1021.0717" font-family="Helvetica,sans-Serif" font-size="11.00" fill="#000000">ProviderKey</text>
<polygon fill="#ffffff" stroke="transparent" points="317.5,-991.9717 317.5,-1013.9717 464.5,-1013.9717 464.5,-991.9717 317.5,-991.9717"/>
<polygon fill="none" stroke="#000000" points="317.5,-991.9717 317.5,-1013.9717 464.5,-1013.9717 464.5,-991.9717 317.5,-991.9717"/>
<image xlink:href="../../images/foreignKeys.png" width="11px" height="12px" preserveAspectRatio="xMinYMin meet" x="322.5" y="-1008.97"/>
<text text-anchor="start" x="338.5" y="-999.0717" font-family="Helvetica,sans-Serif" font-size="11.00" fill="#000000">UserId</text>
<polygon fill="none" stroke="#000000" points="317.5,-972.9717 317.5,-991.9717 464.5,-991.9717 464.5,-972.9717 317.5,-972.9717"/>
<text text-anchor="start" x="320.5" y="-979.0717" font-family="Helvetica,sans-Serif" font-size="11.00" fill="#000000">...</text>
<polygon fill="#ffffff" stroke="transparent" points="317.5,-953.9717 317.5,-972.9717 376.5,-972.9717 376.5,-953.9717 317.5,-953.9717"/>
<polygon fill="none" stroke="#000000" points="317.5,-953.9717 317.5,-972.9717 376.5,-972.9717 376.5,-953.9717 317.5,-953.9717"/>
<text text-anchor="start" x="320.5" y="-960.0717" font-family="Helvetica,sans-Serif" font-size="11.00" fill="#000000">&lt; 1</text>
<polygon fill="#ffffff" stroke="transparent" points="376.5,-953.9717 376.5,-972.9717 433.5,-972.9717 433.5,-953.9717 376.5,-953.9717"/>
<polygon fill="none" stroke="#000000" points="376.5,-953.9717 376.5,-972.9717 433.5,-972.9717 433.5,-953.9717 376.5,-953.9717"/>
<text text-anchor="start" x="398.1105" y="-960.0717" font-family="Helvetica,sans-Serif" font-size="11.00" fill="#000000">0 rows</text>
<polygon fill="#ffffff" stroke="transparent" points="433.5,-953.9717 433.5,-972.9717 464.5,-972.9717 464.5,-953.9717 433.5,-953.9717"/>
<polygon fill="none" stroke="#000000" points="433.5,-953.9717 433.5,-972.9717 464.5,-972.9717 464.5,-953.9717 433.5,-953.9717"/>
<text text-anchor="start" x="455.3862" y="-960.0717" font-family="Helvetica,sans-Serif" font-size="11.00" fill="#000000"> &#160;</text>
</a>
</g>
</g>
<!-- AspNetUserLogins&#45;&gt;AspNetUsers -->
<g id="edge2" class="edge">
<title>AspNetUserLogins:w&#45;&gt;AspNetUsers:e</title>
<path fill="none" stroke="#000000" d="M303.6195,-999.0728C237.9597,-956.6309 354.4272,-581.9717 265.5,-581.9717"/>
<polygon fill="#000000" stroke="#000000" points="309.7981,-1000.8083 316.5265,-1006.4376 313.649,-1001.89 317.5,-1002.9717 317.5,-1002.9717 317.5,-1002.9717 313.649,-1001.89 318.4735,-999.5058 309.7981,-1000.8083 309.7981,-1000.8083"/>
<ellipse fill="none" stroke="#000000" cx="306.7173" cy="-999.9429" rx="3.2" ry="3.2"/>
</g>
<!-- AspNetUserRoles -->
<g id="node4" class="node">
<title>AspNetUserRoles</title>
<g id="a_node4"><a xlink:href="../../tables/AspNetUserRoles.html" xlink:title="AspNetUserRoles" target="_top">
<polygon fill="#ffffff" stroke="transparent" points="320.5,-1267.9717 320.5,-1353.9717 460.5,-1353.9717 460.5,-1267.9717 320.5,-1267.9717"/>
<polygon fill="#f5f5f5" stroke="transparent" points="320.5,-1330.9717 320.5,-1353.9717 460.5,-1353.9717 460.5,-1330.9717 320.5,-1330.9717"/>
<polygon fill="none" stroke="#000000" points="320.5,-1330.9717 320.5,-1353.9717 460.5,-1353.9717 460.5,-1330.9717 320.5,-1330.9717"/>
<text text-anchor="start" x="325.5" y="-1339.5717" font-family="Helvetica,sans-Serif" font-weight="bold" font-size="11.00" fill="#000000">AspNetUserRoles</text>
<text text-anchor="start" x="426.0219" y="-1339.0717" font-family="Helvetica,sans-Serif" font-size="11.00" fill="#000000">[table]</text>
<polygon fill="none" stroke="#000000" points="320.5,-1308.9717 320.5,-1330.9717 460.5,-1330.9717 460.5,-1308.9717 320.5,-1308.9717"/>
<image xlink:href="../../images/primaryKeys.png" width="11px" height="12px" preserveAspectRatio="xMinYMin meet" x="325.5" y="-1325.97"/>
<text text-anchor="start" x="349.5" y="-1316.0717" font-family="Helvetica,sans-Serif" font-size="11.00" fill="#000000">UserId</text>
<polygon fill="none" stroke="#000000" points="320.5,-1286.9717 320.5,-1308.9717 460.5,-1308.9717 460.5,-1286.9717 320.5,-1286.9717"/>
<image xlink:href="../../images/primaryKeys.png" width="11px" height="12px" preserveAspectRatio="xMinYMin meet" x="325.5" y="-1303.97"/>
<text text-anchor="start" x="349.5" y="-1294.0717" font-family="Helvetica,sans-Serif" font-size="11.00" fill="#000000">RoleId</text>
<polygon fill="#ffffff" stroke="transparent" points="320.5,-1267.9717 320.5,-1286.9717 378.5,-1286.9717 378.5,-1267.9717 320.5,-1267.9717"/>
<polygon fill="none" stroke="#000000" points="320.5,-1267.9717 320.5,-1286.9717 378.5,-1286.9717 378.5,-1267.9717 320.5,-1267.9717"/>
<text text-anchor="start" x="323.5" y="-1274.0717" font-family="Helvetica,sans-Serif" font-size="11.00" fill="#000000">&lt; 2</text>
<polygon fill="#ffffff" stroke="transparent" points="378.5,-1267.9717 378.5,-1286.9717 429.5,-1286.9717 429.5,-1267.9717 378.5,-1267.9717"/>
<polygon fill="none" stroke="#000000" points="378.5,-1267.9717 378.5,-1286.9717 429.5,-1286.9717 429.5,-1267.9717 378.5,-1267.9717"/>
<text text-anchor="start" x="399.6105" y="-1274.0717" font-family="Helvetica,sans-Serif" font-size="11.00" fill="#000000">1 row</text>
<polygon fill="#ffffff" stroke="transparent" points="429.5,-1267.9717 429.5,-1286.9717 460.5,-1286.9717 460.5,-1267.9717 429.5,-1267.9717"/>
<polygon fill="none" stroke="#000000" points="429.5,-1267.9717 429.5,-1286.9717 460.5,-1286.9717 460.5,-1267.9717 429.5,-1267.9717"/>
<text text-anchor="start" x="451.3862" y="-1274.0717" font-family="Helvetica,sans-Serif" font-size="11.00" fill="#000000"> &#160;</text>
</a>
</g>
</g>
<!-- AspNetUserRoles&#45;&gt;AspNetUsers -->
<g id="edge4" class="edge">
<title>AspNetUserRoles:w&#45;&gt;AspNetUsers:e</title>
<path fill="none" stroke="#000000" d="M307.9431,-1312.6675C250.4412,-1236.0211 342.9094,-581.9717 265.5,-581.9717"/>
<polygon fill="#000000" stroke="#000000" points="313.5848,-1315.9492 318.6899,-1323.0835 317.0424,-1317.9605 320.5,-1319.9717 320.5,-1319.9717 320.5,-1319.9717 317.0424,-1317.9605 322.3101,-1316.8599 313.5848,-1315.9492 313.5848,-1315.9492"/>
<ellipse fill="none" stroke="#000000" cx="310.8188" cy="-1314.3402" rx="3.2" ry="3.2"/>
</g>
<!-- AspNetRoles -->
<g id="node5" class="node">
<title>AspNetRoles</title>
<g id="a_node5"><a xlink:href="../../tables/AspNetRoles.html" xlink:title="AspNetRoles" target="_top">
<polygon fill="#ffffff" stroke="transparent" points="81,-1270.4717 81,-1331.4717 194,-1331.4717 194,-1270.4717 81,-1270.4717"/>
<polygon fill="#f5f5f5" stroke="transparent" points="81.5,-1307.9717 81.5,-1330.9717 194.5,-1330.9717 194.5,-1307.9717 81.5,-1307.9717"/>
<polygon fill="none" stroke="#000000" points="81.5,-1307.9717 81.5,-1330.9717 194.5,-1330.9717 194.5,-1307.9717 81.5,-1307.9717"/>
<text text-anchor="start" x="86.5" y="-1316.5717" font-family="Helvetica,sans-Serif" font-weight="bold" font-size="11.00" fill="#000000">AspNetRoles</text>
<text text-anchor="start" x="160.0219" y="-1316.0717" font-family="Helvetica,sans-Serif" font-size="11.00" fill="#000000">[table]</text>
<polygon fill="none" stroke="#000000" points="81.5,-1288.9717 81.5,-1307.9717 194.5,-1307.9717 194.5,-1288.9717 81.5,-1288.9717"/>
<text text-anchor="start" x="84.5" y="-1295.0717" font-family="Helvetica,sans-Serif" font-size="11.00" fill="#000000">...</text>
<polygon fill="#ffffff" stroke="transparent" points="81.5,-1269.9717 81.5,-1288.9717 114.5,-1288.9717 114.5,-1269.9717 81.5,-1269.9717"/>
<polygon fill="none" stroke="#000000" points="81.5,-1269.9717 81.5,-1288.9717 114.5,-1288.9717 114.5,-1269.9717 81.5,-1269.9717"/>
<text text-anchor="start" x="84.5" y="-1276.0717" font-family="Helvetica,sans-Serif" font-size="11.00" fill="#000000"> &#160;</text>
<polygon fill="#ffffff" stroke="transparent" points="114.5,-1269.9717 114.5,-1288.9717 162.5,-1288.9717 162.5,-1269.9717 114.5,-1269.9717"/>
<polygon fill="none" stroke="#000000" points="114.5,-1269.9717 114.5,-1288.9717 162.5,-1288.9717 162.5,-1269.9717 114.5,-1269.9717"/>
<text text-anchor="start" x="127.1105" y="-1276.0717" font-family="Helvetica,sans-Serif" font-size="11.00" fill="#000000">4 rows</text>
<polygon fill="#ffffff" stroke="transparent" points="162.5,-1269.9717 162.5,-1288.9717 194.5,-1288.9717 194.5,-1269.9717 162.5,-1269.9717"/>
<polygon fill="none" stroke="#000000" points="162.5,-1269.9717 162.5,-1288.9717 194.5,-1288.9717 194.5,-1269.9717 162.5,-1269.9717"/>
<text text-anchor="start" x="175.9053" y="-1276.0717" font-family="Helvetica,sans-Serif" font-size="11.00" fill="#000000">2 &gt;</text>
</a>
</g>
</g>
<!-- AspNetUserRoles&#45;&gt;AspNetRoles -->
<g id="edge3" class="edge">
<title>AspNetUserRoles:w&#45;&gt;AspNetRoles:e</title>
<path fill="none" stroke="#000000" d="M306.0749,-1297.9717C261.5758,-1297.9717 245.3594,-1297.9717 194.5,-1297.9717"/>
<polygon fill="#000000" stroke="#000000" points="312.5,-1297.9718 320.5,-1301.5717 316.5,-1297.9717 320.5,-1297.9717 320.5,-1297.9717 320.5,-1297.9717 316.5,-1297.9717 320.5,-1294.3717 312.5,-1297.9718 312.5,-1297.9718"/>
<ellipse fill="none" stroke="#000000" cx="309.3" cy="-1297.9718" rx="3.2" ry="3.2"/>
</g>
<!-- AspNetUserTokens -->
<g id="node6" class="node">
<title>AspNetUserTokens</title>
<g id="a_node6"><a xlink:href="../../tables/AspNetUserTokens.html" xlink:title="AspNetUserTokens" target="_top">
<polygon fill="#ffffff" stroke="transparent" points="316,-806.4717 316,-933.4717 465,-933.4717 465,-806.4717 316,-806.4717"/>
<polygon fill="#f5f5f5" stroke="transparent" points="316.5,-909.9717 316.5,-932.9717 465.5,-932.9717 465.5,-909.9717 316.5,-909.9717"/>
<polygon fill="none" stroke="#000000" points="316.5,-909.9717 316.5,-932.9717 465.5,-932.9717 465.5,-909.9717 316.5,-909.9717"/>
<text text-anchor="start" x="321.5" y="-918.5717" font-family="Helvetica,sans-Serif" font-weight="bold" font-size="11.00" fill="#000000">AspNetUserTokens</text>
<text text-anchor="start" x="431.0219" y="-918.0717" font-family="Helvetica,sans-Serif" font-size="11.00" fill="#000000">[table]</text>
<polygon fill="none" stroke="#000000" points="316.5,-887.9717 316.5,-909.9717 465.5,-909.9717 465.5,-887.9717 316.5,-887.9717"/>
<image xlink:href="../../images/primaryKeys.png" width="11px" height="12px" preserveAspectRatio="xMinYMin meet" x="321.5" y="-904.972"/>
<text text-anchor="start" x="345.5" y="-895.0717" font-family="Helvetica,sans-Serif" font-size="11.00" fill="#000000">UserId</text>
<polygon fill="none" stroke="#000000" points="316.5,-865.9717 316.5,-887.9717 465.5,-887.9717 465.5,-865.9717 316.5,-865.9717"/>
<image xlink:href="../../images/primaryKeys.png" width="11px" height="12px" preserveAspectRatio="xMinYMin meet" x="321.5" y="-882.972"/>
<text text-anchor="start" x="345.5" y="-873.0717" font-family="Helvetica,sans-Serif" font-size="11.00" fill="#000000">LoginProvider</text>
<polygon fill="none" stroke="#000000" points="316.5,-843.9717 316.5,-865.9717 465.5,-865.9717 465.5,-843.9717 316.5,-843.9717"/>
<image xlink:href="../../images/primaryKeys.png" width="11px" height="12px" preserveAspectRatio="xMinYMin meet" x="321.5" y="-860.972"/>
<text text-anchor="start" x="345.5" y="-851.0717" font-family="Helvetica,sans-Serif" font-size="11.00" fill="#000000">Name</text>
<polygon fill="none" stroke="#000000" points="316.5,-824.9717 316.5,-843.9717 465.5,-843.9717 465.5,-824.9717 316.5,-824.9717"/>
<text text-anchor="start" x="319.5" y="-831.0717" font-family="Helvetica,sans-Serif" font-size="11.00" fill="#000000">...</text>
<polygon fill="#ffffff" stroke="transparent" points="316.5,-805.9717 316.5,-824.9717 376.5,-824.9717 376.5,-805.9717 316.5,-805.9717"/>
<polygon fill="none" stroke="#000000" points="316.5,-805.9717 316.5,-824.9717 376.5,-824.9717 376.5,-805.9717 316.5,-805.9717"/>
<text text-anchor="start" x="319.5" y="-812.0717" font-family="Helvetica,sans-Serif" font-size="11.00" fill="#000000">&lt; 1</text>
<polygon fill="#ffffff" stroke="transparent" points="376.5,-805.9717 376.5,-824.9717 433.5,-824.9717 433.5,-805.9717 376.5,-805.9717"/>
<polygon fill="none" stroke="#000000" points="376.5,-805.9717 376.5,-824.9717 433.5,-824.9717 433.5,-805.9717 376.5,-805.9717"/>
<text text-anchor="start" x="398.1105" y="-812.0717" font-family="Helvetica,sans-Serif" font-size="11.00" fill="#000000">0 rows</text>
<polygon fill="#ffffff" stroke="transparent" points="433.5,-805.9717 433.5,-824.9717 465.5,-824.9717 465.5,-805.9717 433.5,-805.9717"/>
<polygon fill="none" stroke="#000000" points="433.5,-805.9717 433.5,-824.9717 465.5,-824.9717 465.5,-805.9717 433.5,-805.9717"/>
<text text-anchor="start" x="456.3862" y="-812.0717" font-family="Helvetica,sans-Serif" font-size="11.00" fill="#000000"> &#160;</text>
</a>
</g>
</g>
<!-- AspNetUserTokens&#45;&gt;AspNetUsers -->
<g id="edge5" class="edge">
<title>AspNetUserTokens:w&#45;&gt;AspNetUsers:e</title>
<path fill="none" stroke="#000000" d="M302.8894,-893.7341C258.1737,-852.518 331.4154,-581.9717 265.5,-581.9717"/>
<polygon fill="#000000" stroke="#000000" points="309.0337,-896.0985 315.2071,-902.3315 312.7669,-897.5351 316.5,-898.9717 316.5,-898.9717 316.5,-898.9717 312.7669,-897.5351 317.7929,-895.6119 309.0337,-896.0985 309.0337,-896.0985"/>
<ellipse fill="none" stroke="#000000" cx="306.0472" cy="-894.9492" rx="3.2" ry="3.2"/>
</g>
<!-- Competencies -->
<g id="node7" class="node">
<title>Competencies</title>
<g id="a_node7"><a xlink:href="../../tables/Competencies.html" xlink:title="Competencies" target="_top">
<polygon fill="#ffffff" stroke="transparent" points="330,-645.4717 330,-706.4717 451,-706.4717 451,-645.4717 330,-645.4717"/>
<polygon fill="#f5f5f5" stroke="transparent" points="330.5,-682.9717 330.5,-705.9717 451.5,-705.9717 451.5,-682.9717 330.5,-682.9717"/>
<polygon fill="none" stroke="#000000" points="330.5,-682.9717 330.5,-705.9717 451.5,-705.9717 451.5,-682.9717 330.5,-682.9717"/>
<text text-anchor="start" x="335.5" y="-691.5717" font-family="Helvetica,sans-Serif" font-weight="bold" font-size="11.00" fill="#000000">Competencies</text>
<text text-anchor="start" x="417.0219" y="-691.0717" font-family="Helvetica,sans-Serif" font-size="11.00" fill="#000000">[table]</text>
<polygon fill="none" stroke="#000000" points="330.5,-663.9717 330.5,-682.9717 451.5,-682.9717 451.5,-663.9717 330.5,-663.9717"/>
<text text-anchor="start" x="333.5" y="-670.0717" font-family="Helvetica,sans-Serif" font-size="11.00" fill="#000000">...</text>
<polygon fill="#ffffff" stroke="transparent" points="330.5,-644.9717 330.5,-663.9717 371.5,-663.9717 371.5,-644.9717 330.5,-644.9717"/>
<polygon fill="none" stroke="#000000" points="330.5,-644.9717 330.5,-663.9717 371.5,-663.9717 371.5,-644.9717 330.5,-644.9717"/>
<text text-anchor="start" x="333.5" y="-651.0717" font-family="Helvetica,sans-Serif" font-size="11.00" fill="#000000">&lt; 2</text>
<polygon fill="#ffffff" stroke="transparent" points="371.5,-644.9717 371.5,-663.9717 419.5,-663.9717 419.5,-644.9717 371.5,-644.9717"/>
<polygon fill="none" stroke="#000000" points="371.5,-644.9717 371.5,-663.9717 419.5,-663.9717 419.5,-644.9717 371.5,-644.9717"/>
<text text-anchor="start" x="384.1105" y="-651.0717" font-family="Helvetica,sans-Serif" font-size="11.00" fill="#000000">5 rows</text>
<polygon fill="#ffffff" stroke="transparent" points="419.5,-644.9717 419.5,-663.9717 451.5,-663.9717 451.5,-644.9717 419.5,-644.9717"/>
<polygon fill="none" stroke="#000000" points="419.5,-644.9717 419.5,-663.9717 451.5,-663.9717 451.5,-644.9717 419.5,-644.9717"/>
<text text-anchor="start" x="432.9053" y="-651.0717" font-family="Helvetica,sans-Serif" font-size="11.00" fill="#000000">4 &gt;</text>
</a>
</g>
</g>
<!-- Competencies&#45;&gt;AspNetUsers -->
<g id="edge6" class="edge">
<title>Competencies:w&#45;&gt;AspNetUsers:e</title>
<path fill="none" stroke="#000000" d="M319.4208,-633.4374C315.4598,-630.712 311.6219,-627.8876 308,-624.9717 285.5448,-606.8934 294.3281,-575.9717 265.5,-581.9717"/>
<polygon fill="#000000" stroke="#000000" points="324.8645,-636.9615 329.6237,-644.3311 328.2223,-639.1353 331.5801,-641.3091 331.5801,-641.3091 331.5801,-641.3091 328.2223,-639.1353 333.5365,-638.2871 324.8645,-636.9615 324.8645,-636.9615"/>
<ellipse fill="none" stroke="#000000" cx="322.1783" cy="-635.2225" rx="3.2" ry="3.2"/>
</g>
<!-- Competencies&#45;&gt;AspNetUsers -->
<g id="edge7" class="edge">
<title>Competencies:w&#45;&gt;AspNetUsers:e</title>
<path fill="none" stroke="#000000" d="M309.6344,-639.27C309.085,-638.8393 308.5401,-638.4065 308,-637.9717 285.5448,-619.8934 294.3281,-588.9717 265.5,-581.9717"/>
<polygon fill="#000000" stroke="#000000" points="315.2341,-643.3003 319.6241,-650.8956 318.4806,-645.637 321.7271,-647.9737 321.7271,-647.9737 321.7271,-647.9737 318.4806,-645.637 323.8302,-645.0518 315.2341,-643.3003 315.2341,-643.3003"/>
<ellipse fill="none" stroke="#000000" cx="312.6369" cy="-641.431" rx="3.2" ry="3.2"/>
</g>
<!-- CompetencyLevelDescriptions -->
<g id="node8" class="node">
<title>CompetencyLevelDescriptions</title>
<g id="a_node8"><a xlink:href="../../tables/CompetencyLevelDescriptions.html" xlink:title="CompetencyLevelDescriptions" target="_top">
<polygon fill="#ffffff" stroke="transparent" points="522,-834.4717 522,-895.4717 736,-895.4717 736,-834.4717 522,-834.4717"/>
<polygon fill="#f5f5f5" stroke="transparent" points="522,-871.9717 522,-894.9717 736,-894.9717 736,-871.9717 522,-871.9717"/>
<polygon fill="none" stroke="#000000" points="522,-871.9717 522,-894.9717 736,-894.9717 736,-871.9717 522,-871.9717"/>
<text text-anchor="start" x="527" y="-880.5717" font-family="Helvetica,sans-Serif" font-weight="bold" font-size="11.00" fill="#000000">CompetencyLevelDescriptions</text>
<text text-anchor="start" x="701.5219" y="-880.0717" font-family="Helvetica,sans-Serif" font-size="11.00" fill="#000000">[table]</text>
<polygon fill="none" stroke="#000000" points="522,-852.9717 522,-871.9717 736,-871.9717 736,-852.9717 522,-852.9717"/>
<text text-anchor="start" x="525" y="-859.0717" font-family="Helvetica,sans-Serif" font-size="11.00" fill="#000000">...</text>
<polygon fill="#ffffff" stroke="transparent" points="522,-833.9717 522,-852.9717 611,-852.9717 611,-833.9717 522,-833.9717"/>
<polygon fill="none" stroke="#000000" points="522,-833.9717 522,-852.9717 611,-852.9717 611,-833.9717 522,-833.9717"/>
<text text-anchor="start" x="525" y="-840.0717" font-family="Helvetica,sans-Serif" font-size="11.00" fill="#000000">&lt; 3</text>
<polygon fill="#ffffff" stroke="transparent" points="611,-833.9717 611,-852.9717 689,-852.9717 689,-833.9717 611,-833.9717"/>
<polygon fill="none" stroke="#000000" points="611,-833.9717 611,-852.9717 689,-852.9717 689,-833.9717 611,-833.9717"/>
<text text-anchor="start" x="647.4956" y="-840.0717" font-family="Helvetica,sans-Serif" font-size="11.00" fill="#000000">20 rows</text>
<polygon fill="#ffffff" stroke="transparent" points="689,-833.9717 689,-852.9717 736,-852.9717 736,-833.9717 689,-833.9717"/>
<polygon fill="none" stroke="#000000" points="689,-833.9717 689,-852.9717 736,-852.9717 736,-833.9717 689,-833.9717"/>
<text text-anchor="start" x="726.8862" y="-840.0717" font-family="Helvetica,sans-Serif" font-size="11.00" fill="#000000"> &#160;</text>
</a>
</g>
</g>
<!-- CompetencyLevelDescriptions&#45;&gt;AspNetUsers -->
<g id="edge9" class="edge">
<title>CompetencyLevelDescriptions:w&#45;&gt;AspNetUsers:e</title>
<path fill="none" stroke="#000000" d="M518.0494,-824.2735C513.9268,-822.2637 509.8955,-820.1644 506,-817.9717 489.2382,-808.5368 490.0927,-798.793 473,-789.9717 405.7553,-755.2677 361.3201,-801.667 308,-747.9717 252.5155,-692.0968 344.2435,-575.9717 265.5,-581.9717"/>
<polygon fill="#000000" stroke="#000000" points="524.1927,-827.0745 529.9783,-833.669 527.8323,-828.734 531.4718,-830.3934 531.4718,-830.3934 531.4718,-830.3934 527.8323,-828.734 532.9653,-827.1178 524.1927,-827.0745 524.1927,-827.0745"/>
<ellipse fill="none" stroke="#000000" cx="521.2811" cy="-825.747" rx="3.2" ry="3.2"/>
</g>
<!-- CompetencyLevelDescriptions&#45;&gt;AspNetUsers -->
<g id="edge10" class="edge">
<title>CompetencyLevelDescriptions:w&#45;&gt;AspNetUsers:e</title>
<path fill="none" stroke="#000000" d="M501.6214,-827.3123C488.8449,-817.6164 486.6207,-810.0012 473,-802.9717 405.7553,-768.2677 361.3201,-814.667 308,-760.9717 252.5155,-705.0968 344.2435,-588.9717 265.5,-581.9717"/>
<polygon fill="#000000" stroke="#000000" points="507.0846,-830.8279 511.864,-838.1844 510.4484,-832.9925 513.8121,-835.1571 513.8121,-835.1571 513.8121,-835.1571 510.4484,-832.9925 515.7602,-832.1297 507.0846,-830.8279 507.0846,-830.8279"/>
<ellipse fill="none" stroke="#000000" cx="504.3937" cy="-829.0962" rx="3.2" ry="3.2"/>
</g>
<!-- CompetencyLevelDescriptions&#45;&gt;Competencies -->
<g id="edge8" class="edge">
<title>CompetencyLevelDescriptions:w&#45;&gt;Competencies:e</title>
<path fill="none" stroke="#000000" d="M503.6738,-820.3306C483.809,-798.5619 489.3389,-782.5594 473,-759.9717 460.3011,-742.4161 443.974,-724.9971 429.2005,-710.6115"/>
<polygon fill="#000000" stroke="#000000" points="508.5073,-824.9108 511.838,-833.0267 511.4108,-827.6622 514.3142,-830.4135 514.3142,-830.4135 514.3142,-830.4135 511.4108,-827.6622 516.7905,-827.8004 508.5073,-824.9108 508.5073,-824.9108"/>
<ellipse fill="none" stroke="#000000" cx="506.1845" cy="-822.7097" rx="3.2" ry="3.2"/>
</g>
<!-- CompetencyTechnicalCareer -->
<g id="node9" class="node">
<title>CompetencyTechnicalCareer</title>
<g id="a_node9"><a xlink:href="../../tables/CompetencyTechnicalCareer.html" xlink:title="CompetencyTechnicalCareer" target="_top">
<polygon fill="#ffffff" stroke="transparent" points="527,-603.4717 527,-664.4717 731,-664.4717 731,-603.4717 527,-603.4717"/>
<polygon fill="#f5f5f5" stroke="transparent" points="527,-640.9717 527,-663.9717 731,-663.9717 731,-640.9717 527,-640.9717"/>
<polygon fill="none" stroke="#000000" points="527,-640.9717 527,-663.9717 731,-663.9717 731,-640.9717 527,-640.9717"/>
<text text-anchor="start" x="532" y="-649.5717" font-family="Helvetica,sans-Serif" font-weight="bold" font-size="11.00" fill="#000000">CompetencyTechnicalCareer</text>
<text text-anchor="start" x="696.5219" y="-649.0717" font-family="Helvetica,sans-Serif" font-size="11.00" fill="#000000">[table]</text>
<polygon fill="none" stroke="#000000" points="527,-621.9717 527,-640.9717 731,-640.9717 731,-621.9717 527,-621.9717"/>
<text text-anchor="start" x="530" y="-628.0717" font-family="Helvetica,sans-Serif" font-size="11.00" fill="#000000">...</text>
<polygon fill="#ffffff" stroke="transparent" points="527,-602.9717 527,-621.9717 614,-621.9717 614,-602.9717 527,-602.9717"/>
<polygon fill="none" stroke="#000000" points="527,-602.9717 527,-621.9717 614,-621.9717 614,-602.9717 527,-602.9717"/>
<text text-anchor="start" x="530" y="-609.0717" font-family="Helvetica,sans-Serif" font-size="11.00" fill="#000000">&lt; 2</text>
<polygon fill="#ffffff" stroke="transparent" points="614,-602.9717 614,-621.9717 685,-621.9717 685,-602.9717 614,-602.9717"/>
<polygon fill="none" stroke="#000000" points="614,-602.9717 614,-621.9717 685,-621.9717 685,-602.9717 614,-602.9717"/>
<text text-anchor="start" x="649.6105" y="-609.0717" font-family="Helvetica,sans-Serif" font-size="11.00" fill="#000000">0 rows</text>
<polygon fill="#ffffff" stroke="transparent" points="685,-602.9717 685,-621.9717 731,-621.9717 731,-602.9717 685,-602.9717"/>
<polygon fill="none" stroke="#000000" points="685,-602.9717 685,-621.9717 731,-621.9717 731,-602.9717 685,-602.9717"/>
<text text-anchor="start" x="721.8862" y="-609.0717" font-family="Helvetica,sans-Serif" font-size="11.00" fill="#000000"> &#160;</text>
</a>
</g>
</g>
<!-- CompetencyTechnicalCareer&#45;&gt;Competencies -->
<g id="edge11" class="edge">
<title>CompetencyTechnicalCareer:w&#45;&gt;Competencies:e</title>
<path fill="none" stroke="#000000" d="M512.5177,-631.6928C494.3612,-633.4437 475.9968,-638.2039 459.22,-643.9876"/>
<polygon fill="#000000" stroke="#000000" points="519.0099,-631.3696 527.179,-634.5673 523.0049,-631.1707 527,-630.9717 527,-630.9717 527,-630.9717 523.0049,-631.1707 526.821,-627.3762 519.0099,-631.3696 519.0099,-631.3696"/>
<ellipse fill="none" stroke="#000000" cx="515.8139" cy="-631.5287" rx="3.2" ry="3.2"/>
</g>
<!-- TechnicalCareers -->
<g id="node10" class="node">
<title>TechnicalCareers</title>
<g id="a_node10"><a xlink:href="../../tables/TechnicalCareers.html" xlink:title="TechnicalCareers" target="_top">
<polygon fill="#ffffff" stroke="transparent" points="321,-496.4717 321,-557.4717 460,-557.4717 460,-496.4717 321,-496.4717"/>
<polygon fill="#f5f5f5" stroke="transparent" points="321.5,-533.9717 321.5,-556.9717 460.5,-556.9717 460.5,-533.9717 321.5,-533.9717"/>
<polygon fill="none" stroke="#000000" points="321.5,-533.9717 321.5,-556.9717 460.5,-556.9717 460.5,-533.9717 321.5,-533.9717"/>
<text text-anchor="start" x="326.5" y="-542.5717" font-family="Helvetica,sans-Serif" font-weight="bold" font-size="11.00" fill="#000000">TechnicalCareers</text>
<text text-anchor="start" x="426.0219" y="-542.0717" font-family="Helvetica,sans-Serif" font-size="11.00" fill="#000000">[table]</text>
<polygon fill="none" stroke="#000000" points="321.5,-514.9717 321.5,-533.9717 460.5,-533.9717 460.5,-514.9717 321.5,-514.9717"/>
<text text-anchor="start" x="324.5" y="-521.0717" font-family="Helvetica,sans-Serif" font-size="11.00" fill="#000000">...</text>
<polygon fill="#ffffff" stroke="transparent" points="321.5,-495.9717 321.5,-514.9717 371.5,-514.9717 371.5,-495.9717 321.5,-495.9717"/>
<polygon fill="none" stroke="#000000" points="321.5,-495.9717 321.5,-514.9717 371.5,-514.9717 371.5,-495.9717 321.5,-495.9717"/>
<text text-anchor="start" x="324.5" y="-502.0717" font-family="Helvetica,sans-Serif" font-size="11.00" fill="#000000">&lt; 2</text>
<polygon fill="#ffffff" stroke="transparent" points="371.5,-495.9717 371.5,-514.9717 424.5,-514.9717 424.5,-495.9717 371.5,-495.9717"/>
<polygon fill="none" stroke="#000000" points="371.5,-495.9717 371.5,-514.9717 424.5,-514.9717 424.5,-495.9717 371.5,-495.9717"/>
<text text-anchor="start" x="389.1105" y="-502.0717" font-family="Helvetica,sans-Serif" font-size="11.00" fill="#000000">6 rows</text>
<polygon fill="#ffffff" stroke="transparent" points="424.5,-495.9717 424.5,-514.9717 460.5,-514.9717 460.5,-495.9717 424.5,-495.9717"/>
<polygon fill="none" stroke="#000000" points="424.5,-495.9717 424.5,-514.9717 460.5,-514.9717 460.5,-495.9717 424.5,-495.9717"/>
<text text-anchor="start" x="441.9053" y="-502.0717" font-family="Helvetica,sans-Serif" font-size="11.00" fill="#000000">6 &gt;</text>
</a>
</g>
</g>
<!-- CompetencyTechnicalCareer&#45;&gt;TechnicalCareers -->
<g id="edge12" class="edge">
<title>CompetencyTechnicalCareer:w&#45;&gt;TechnicalCareers:e</title>
<path fill="none" stroke="#000000" d="M513.629,-625.326C493.5421,-613.4125 458.3401,-584.8833 430.7062,-561.6022"/>
<polygon fill="#000000" stroke="#000000" points="519.63,-627.8598 525.5997,-634.2882 523.315,-629.4158 527,-630.9717 527,-630.9717 527,-630.9717 523.315,-629.4158 528.4003,-627.6552 519.63,-627.8598 519.63,-627.8598"/>
<ellipse fill="none" stroke="#000000" cx="516.682" cy="-626.6151" rx="3.2" ry="3.2"/>
</g>
<!-- TechnicalCareers&#45;&gt;AspNetUsers -->
<g id="edge53" class="edge">
<title>TechnicalCareers:w&#45;&gt;AspNetUsers:e</title>
<path fill="none" stroke="#000000" d="M302.2966,-567.9737C287.3386,-574.8506 273.9353,-580.304 265.5,-581.9717"/>
<polygon fill="#000000" stroke="#000000" points="308.5207,-565.0371 317.292,-564.8791 312.1383,-563.3302 315.7558,-561.6233 315.7558,-561.6233 315.7558,-561.6233 312.1383,-563.3302 314.2196,-558.3675 308.5207,-565.0371 308.5207,-565.0371"/>
<ellipse fill="none" stroke="#000000" cx="305.6267" cy="-566.4025" rx="3.2" ry="3.2"/>
</g>
<!-- TechnicalCareers&#45;&gt;AspNetUsers -->
<g id="edge54" class="edge">
<title>TechnicalCareers:w&#45;&gt;AspNetUsers:e</title>
<path fill="none" stroke="#000000" d="M322.6118,-567.651C300.068,-577.6514 277.6394,-584.7718 265.5,-581.9717"/>
<polygon fill="#000000" stroke="#000000" points="328.5728,-564.8679 337.3447,-564.7454 332.1972,-563.1756 335.8217,-561.4834 335.8217,-561.4834 335.8217,-561.4834 332.1972,-563.1756 334.2986,-558.2214 328.5728,-564.8679 328.5728,-564.8679"/>
<ellipse fill="none" stroke="#000000" cx="325.6733" cy="-566.2217" rx="3.2" ry="3.2"/>
</g>
<!-- Coordinators -->
<g id="node11" class="node">
<title>Coordinators</title>
<g id="a_node11"><a xlink:href="../../tables/Coordinators.html" xlink:title="Coordinators" target="_top">
<polygon fill="#ffffff" stroke="transparent" points="572,-521.4717 572,-582.4717 686,-582.4717 686,-521.4717 572,-521.4717"/>
<polygon fill="#f5f5f5" stroke="transparent" points="572,-558.9717 572,-581.9717 686,-581.9717 686,-558.9717 572,-558.9717"/>
<polygon fill="none" stroke="#000000" points="572,-558.9717 572,-581.9717 686,-581.9717 686,-558.9717 572,-558.9717"/>
<text text-anchor="start" x="577" y="-567.5717" font-family="Helvetica,sans-Serif" font-weight="bold" font-size="11.00" fill="#000000">Coordinators</text>
<text text-anchor="start" x="651.5219" y="-567.0717" font-family="Helvetica,sans-Serif" font-size="11.00" fill="#000000">[table]</text>
<polygon fill="none" stroke="#000000" points="572,-539.9717 572,-558.9717 686,-558.9717 686,-539.9717 572,-539.9717"/>
<text text-anchor="start" x="575" y="-546.0717" font-family="Helvetica,sans-Serif" font-size="11.00" fill="#000000">...</text>
<polygon fill="#ffffff" stroke="transparent" points="572,-520.9717 572,-539.9717 614,-539.9717 614,-520.9717 572,-520.9717"/>
<polygon fill="none" stroke="#000000" points="572,-520.9717 572,-539.9717 614,-539.9717 614,-520.9717 572,-520.9717"/>
<text text-anchor="start" x="575" y="-527.0717" font-family="Helvetica,sans-Serif" font-size="11.00" fill="#000000">&lt; 2</text>
<polygon fill="#ffffff" stroke="transparent" points="614,-520.9717 614,-539.9717 663,-539.9717 663,-520.9717 614,-520.9717"/>
<polygon fill="none" stroke="#000000" points="614,-520.9717 614,-539.9717 663,-539.9717 663,-520.9717 614,-520.9717"/>
<text text-anchor="start" x="627.6105" y="-527.0717" font-family="Helvetica,sans-Serif" font-size="11.00" fill="#000000">0 rows</text>
<polygon fill="#ffffff" stroke="transparent" points="663,-520.9717 663,-539.9717 686,-539.9717 686,-520.9717 663,-520.9717"/>
<polygon fill="none" stroke="#000000" points="663,-520.9717 663,-539.9717 686,-539.9717 686,-520.9717 663,-520.9717"/>
<text text-anchor="start" x="676.8862" y="-527.0717" font-family="Helvetica,sans-Serif" font-size="11.00" fill="#000000"> &#160;</text>
</a>
</g>
</g>
<!-- Coordinators&#45;&gt;AspNetUsers -->
<g id="edge14" class="edge">
<title>Coordinators:w&#45;&gt;AspNetUsers:e</title>
<path fill="none" stroke="#000000" d="M553.2691,-561.8773C479.8425,-570.6158 365.2349,-581.9717 265.5,-581.9717"/>
<polygon fill="#000000" stroke="#000000" points="562.5242,-556.7332 563.4814,-564.6757 561.8929,-564.8671 560.9357,-556.9246 562.5242,-556.7332"/>
<polyline fill="none" stroke="#000000" points="563.7971,-560.6087 559.8258,-561.0873 "/>
<ellipse fill="none" stroke="#000000" cx="556.6488" cy="-561.4701" rx="3.2" ry="3.2"/>
</g>
<!-- Coordinators&#45;&gt;TechnicalCareers -->
<g id="edge13" class="edge">
<title>Coordinators:w&#45;&gt;TechnicalCareers:e</title>
<path fill="none" stroke="#000000" d="M549.2567,-543.6129C523.1723,-540.8787 494.2447,-537.8464 468.305,-535.1274"/>
<polygon fill="#000000" stroke="#000000" points="555.8724,-544.3063 563.4535,-548.7207 559.8506,-544.7233 563.8288,-545.1404 563.8288,-545.1404 563.8288,-545.1404 559.8506,-544.7233 564.2042,-541.56 555.8724,-544.3063 555.8724,-544.3063"/>
<ellipse fill="none" stroke="#000000" cx="552.6899" cy="-543.9727" rx="3.2" ry="3.2"/>
</g>
<!-- EvaluationPeriods -->
<g id="node12" class="node">
<title>EvaluationPeriods</title>
<g id="a_node12"><a xlink:href="../../tables/EvaluationPeriods.html" xlink:title="EvaluationPeriods" target="_top">
<polygon fill="#ffffff" stroke="transparent" points="319,-332.4717 319,-393.4717 462,-393.4717 462,-332.4717 319,-332.4717"/>
<polygon fill="#f5f5f5" stroke="transparent" points="319.5,-369.9717 319.5,-392.9717 462.5,-392.9717 462.5,-369.9717 319.5,-369.9717"/>
<polygon fill="none" stroke="#000000" points="319.5,-369.9717 319.5,-392.9717 462.5,-392.9717 462.5,-369.9717 319.5,-369.9717"/>
<text text-anchor="start" x="324.5" y="-378.5717" font-family="Helvetica,sans-Serif" font-weight="bold" font-size="11.00" fill="#000000">EvaluationPeriods</text>
<text text-anchor="start" x="428.0219" y="-378.0717" font-family="Helvetica,sans-Serif" font-size="11.00" fill="#000000">[table]</text>
<polygon fill="none" stroke="#000000" points="319.5,-350.9717 319.5,-369.9717 462.5,-369.9717 462.5,-350.9717 319.5,-350.9717"/>
<text text-anchor="start" x="322.5" y="-357.0717" font-family="Helvetica,sans-Serif" font-size="11.00" fill="#000000">...</text>
<polygon fill="#ffffff" stroke="transparent" points="319.5,-331.9717 319.5,-350.9717 371.5,-350.9717 371.5,-331.9717 319.5,-331.9717"/>
<polygon fill="none" stroke="#000000" points="319.5,-331.9717 319.5,-350.9717 371.5,-350.9717 371.5,-331.9717 319.5,-331.9717"/>
<text text-anchor="start" x="322.5" y="-338.0717" font-family="Helvetica,sans-Serif" font-size="11.00" fill="#000000">&lt; 2</text>
<polygon fill="#ffffff" stroke="transparent" points="371.5,-331.9717 371.5,-350.9717 425.5,-350.9717 425.5,-331.9717 371.5,-331.9717"/>
<polygon fill="none" stroke="#000000" points="371.5,-331.9717 371.5,-350.9717 425.5,-350.9717 425.5,-331.9717 371.5,-331.9717"/>
<text text-anchor="start" x="390.1105" y="-338.0717" font-family="Helvetica,sans-Serif" font-size="11.00" fill="#000000">0 rows</text>
<polygon fill="#ffffff" stroke="transparent" points="425.5,-331.9717 425.5,-350.9717 462.5,-350.9717 462.5,-331.9717 425.5,-331.9717"/>
<polygon fill="none" stroke="#000000" points="425.5,-331.9717 425.5,-350.9717 462.5,-350.9717 462.5,-331.9717 425.5,-331.9717"/>
<text text-anchor="start" x="443.9053" y="-338.0717" font-family="Helvetica,sans-Serif" font-size="11.00" fill="#000000">3 &gt;</text>
</a>
</g>
</g>
<!-- EvaluationPeriods&#45;&gt;AspNetUsers -->
<g id="edge15" class="edge">
<title>EvaluationPeriods:w&#45;&gt;AspNetUsers:e</title>
<path fill="none" stroke="#000000" d="M302.8173,-406.9022C267.2645,-474.652 342.0691,-576.3233 265.5,-581.9717"/>
<polygon fill="#000000" stroke="#000000" points="306.4268,-401.3754 313.8155,-396.6459 308.6141,-398.0264 310.8014,-394.6774 310.8014,-394.6774 310.8014,-394.6774 308.6141,-398.0264 307.7873,-392.7088 306.4268,-401.3754 306.4268,-401.3754"/>
<ellipse fill="none" stroke="#000000" cx="304.677" cy="-404.0546" rx="3.2" ry="3.2"/>
</g>
<!-- EvaluationPeriods&#45;&gt;AspNetUsers -->
<g id="edge16" class="edge">
<title>EvaluationPeriods:w&#45;&gt;AspNetUsers:e</title>
<path fill="none" stroke="#000000" d="M311.1261,-407.3211C310.0395,-408.5036 308.9957,-409.72 308,-410.9717 257.3663,-474.6238 346.8349,-588.9717 265.5,-581.9717"/>
<polygon fill="#000000" stroke="#000000" points="315.9853,-402.9273 324.3337,-400.232 318.9522,-400.2445 321.9192,-397.5617 321.9192,-397.5617 321.9192,-397.5617 318.9522,-400.2445 319.5047,-394.8915 315.9853,-402.9273 315.9853,-402.9273"/>
<ellipse fill="none" stroke="#000000" cx="313.6117" cy="-405.0735" rx="3.2" ry="3.2"/>
</g>
<!-- EvaluationPeriodTechnicalCareer -->
<g id="node13" class="node">
<title>EvaluationPeriodTechnicalCareer</title>
<g id="a_node13"><a xlink:href="../../tables/EvaluationPeriodTechnicalCareer.html" xlink:title="EvaluationPeriodTechnicalCareer" target="_top">
<polygon fill="#ffffff" stroke="transparent" points="514,-384.4717 514,-445.4717 744,-445.4717 744,-384.4717 514,-384.4717"/>
<polygon fill="#f5f5f5" stroke="transparent" points="514,-421.9717 514,-444.9717 744,-444.9717 744,-421.9717 514,-421.9717"/>
<polygon fill="none" stroke="#000000" points="514,-421.9717 514,-444.9717 744,-444.9717 744,-421.9717 514,-421.9717"/>
<text text-anchor="start" x="519" y="-430.5717" font-family="Helvetica,sans-Serif" font-weight="bold" font-size="11.00" fill="#000000">EvaluationPeriodTechnicalCareer</text>
<text text-anchor="start" x="709.5219" y="-430.0717" font-family="Helvetica,sans-Serif" font-size="11.00" fill="#000000">[table]</text>
<polygon fill="none" stroke="#000000" points="514,-402.9717 514,-421.9717 744,-421.9717 744,-402.9717 514,-402.9717"/>
<text text-anchor="start" x="517" y="-409.0717" font-family="Helvetica,sans-Serif" font-size="11.00" fill="#000000">...</text>
<polygon fill="#ffffff" stroke="transparent" points="514,-383.9717 514,-402.9717 614,-402.9717 614,-383.9717 514,-383.9717"/>
<polygon fill="none" stroke="#000000" points="514,-383.9717 514,-402.9717 614,-402.9717 614,-383.9717 514,-383.9717"/>
<text text-anchor="start" x="517" y="-390.0717" font-family="Helvetica,sans-Serif" font-size="11.00" fill="#000000">&lt; 2</text>
<polygon fill="#ffffff" stroke="transparent" points="614,-383.9717 614,-402.9717 692,-402.9717 692,-383.9717 614,-383.9717"/>
<polygon fill="none" stroke="#000000" points="614,-383.9717 614,-402.9717 692,-402.9717 692,-383.9717 614,-383.9717"/>
<text text-anchor="start" x="656.6105" y="-390.0717" font-family="Helvetica,sans-Serif" font-size="11.00" fill="#000000">0 rows</text>
<polygon fill="#ffffff" stroke="transparent" points="692,-383.9717 692,-402.9717 744,-402.9717 744,-383.9717 692,-383.9717"/>
<polygon fill="none" stroke="#000000" points="692,-383.9717 692,-402.9717 744,-402.9717 744,-383.9717 692,-383.9717"/>
<text text-anchor="start" x="734.8862" y="-390.0717" font-family="Helvetica,sans-Serif" font-size="11.00" fill="#000000"> &#160;</text>
</a>
</g>
</g>
<!-- EvaluationPeriodTechnicalCareer&#45;&gt;TechnicalCareers -->
<g id="edge18" class="edge">
<title>EvaluationPeriodTechnicalCareer:w&#45;&gt;TechnicalCareers:e</title>
<path fill="none" stroke="#000000" d="M499.9539,-415.5395C482.83,-427.1335 495.7165,-464.2493 473,-485.9717 470.6881,-488.1825 468.2338,-490.2981 465.6736,-492.3198"/>
<polygon fill="#000000" stroke="#000000" points="506.2462,-413.9413 514.8863,-415.4609 510.1231,-412.9565 514,-411.9717 514,-411.9717 514,-411.9717 510.1231,-412.9565 513.1137,-408.4825 506.2462,-413.9413 506.2462,-413.9413"/>
<ellipse fill="none" stroke="#000000" cx="503.1447" cy="-414.7291" rx="3.2" ry="3.2"/>
</g>
<!-- EvaluationPeriodTechnicalCareer&#45;&gt;EvaluationPeriods -->
<g id="edge17" class="edge">
<title>EvaluationPeriodTechnicalCareer:w&#45;&gt;EvaluationPeriods:e</title>
<path fill="none" stroke="#000000" d="M499.6765,-409.7309C489.6548,-407.1933 477.3015,-402.7295 464.5499,-397.5351"/>
<polygon fill="#000000" stroke="#000000" points="506.0961,-410.7352 513.4435,-415.5285 510.0481,-411.3534 514,-411.9717 514,-411.9717 514,-411.9717 510.0481,-411.3534 514.5565,-408.415 506.0961,-410.7352 506.0961,-410.7352"/>
<ellipse fill="none" stroke="#000000" cx="502.9346" cy="-410.2405" rx="3.2" ry="3.2"/>
</g>
<!-- FormQuestions -->
<g id="node14" class="node">
<title>FormQuestions</title>
<g id="a_node14"><a xlink:href="../../tables/FormQuestions.html" xlink:title="FormQuestions" target="_top">
<polygon fill="#ffffff" stroke="transparent" points="565.5,-752.4717 565.5,-813.4717 692.5,-813.4717 692.5,-752.4717 565.5,-752.4717"/>
<polygon fill="#f5f5f5" stroke="transparent" points="566,-789.9717 566,-812.9717 693,-812.9717 693,-789.9717 566,-789.9717"/>
<polygon fill="none" stroke="#000000" points="566,-789.9717 566,-812.9717 693,-812.9717 693,-789.9717 566,-789.9717"/>
<text text-anchor="start" x="571" y="-798.5717" font-family="Helvetica,sans-Serif" font-weight="bold" font-size="11.00" fill="#000000">FormQuestions</text>
<text text-anchor="start" x="658.5219" y="-798.0717" font-family="Helvetica,sans-Serif" font-size="11.00" fill="#000000">[table]</text>
<polygon fill="none" stroke="#000000" points="566,-770.9717 566,-789.9717 693,-789.9717 693,-770.9717 566,-770.9717"/>
<text text-anchor="start" x="569" y="-777.0717" font-family="Helvetica,sans-Serif" font-size="11.00" fill="#000000">...</text>
<polygon fill="#ffffff" stroke="transparent" points="566,-751.9717 566,-770.9717 610,-770.9717 610,-751.9717 566,-751.9717"/>
<polygon fill="none" stroke="#000000" points="566,-751.9717 566,-770.9717 610,-770.9717 610,-751.9717 566,-751.9717"/>
<text text-anchor="start" x="569" y="-758.0717" font-family="Helvetica,sans-Serif" font-size="11.00" fill="#000000">&lt; 3</text>
<polygon fill="#ffffff" stroke="transparent" points="610,-751.9717 610,-770.9717 660,-770.9717 660,-751.9717 610,-751.9717"/>
<polygon fill="none" stroke="#000000" points="610,-751.9717 610,-770.9717 660,-770.9717 660,-751.9717 610,-751.9717"/>
<text text-anchor="start" x="624.6105" y="-758.0717" font-family="Helvetica,sans-Serif" font-size="11.00" fill="#000000">0 rows</text>
<polygon fill="#ffffff" stroke="transparent" points="660,-751.9717 660,-770.9717 693,-770.9717 693,-751.9717 660,-751.9717"/>
<polygon fill="none" stroke="#000000" points="660,-751.9717 660,-770.9717 693,-770.9717 693,-751.9717 660,-751.9717"/>
<text text-anchor="start" x="674.4053" y="-758.0717" font-family="Helvetica,sans-Serif" font-size="11.00" fill="#000000">1 &gt;</text>
</a>
</g>
</g>
<!-- FormQuestions&#45;&gt;AspNetUsers -->
<g id="edge20" class="edge">
<title>FormQuestions:w&#45;&gt;AspNetUsers:e</title>
<path fill="none" stroke="#000000" d="M543.1314,-765.5162C454.0952,-749.6336 325.4457,-726.7195 308,-710.9717 261.3068,-668.8228 328.403,-575.9717 265.5,-581.9717"/>
<polygon fill="#000000" stroke="#000000" points="549.457,-766.6456 556.6996,-771.5958 553.3947,-767.3487 557.3324,-768.0518 557.3324,-768.0518 557.3324,-768.0518 553.3947,-767.3487 557.9652,-764.5079 549.457,-766.6456 549.457,-766.6456"/>
<ellipse fill="none" stroke="#000000" cx="546.3068" cy="-766.0831" rx="3.2" ry="3.2"/>
</g>
<!-- FormQuestions&#45;&gt;AspNetUsers -->
<g id="edge21" class="edge">
<title>FormQuestions:w&#45;&gt;AspNetUsers:e</title>
<path fill="none" stroke="#000000" d="M542.8562,-774.9825C453.8304,-762.5865 325.4277,-739.7033 308,-723.9717 261.3068,-681.8228 328.403,-588.9717 265.5,-581.9717"/>
<polygon fill="#000000" stroke="#000000" points="549.4055,-775.8736 556.847,-780.5194 553.3689,-776.4129 557.3324,-776.9522 557.3324,-776.9522 557.3324,-776.9522 553.3689,-776.4129 557.8178,-773.3851 549.4055,-775.8736 549.4055,-775.8736"/>
<ellipse fill="none" stroke="#000000" cx="546.2347" cy="-775.4421" rx="3.2" ry="3.2"/>
</g>
<!-- FormQuestions&#45;&gt;Competencies -->
<g id="edge19" class="edge">
<title>FormQuestions:w&#45;&gt;Competencies:e</title>
<path fill="none" stroke="#000000" d="M543.685,-753.546C530.9341,-748.6344 518.0362,-743.3712 506,-737.9717 500.2378,-735.3868 477.7581,-723.3872 454.1414,-710.6233"/>
<polygon fill="#000000" stroke="#000000" points="549.9308,-755.9028 556.1446,-762.0954 553.6732,-757.315 557.4156,-758.7272 557.4156,-758.7272 557.4156,-758.7272 553.6732,-757.315 558.6866,-755.3591 549.9308,-755.9028 549.9308,-755.9028"/>
<ellipse fill="none" stroke="#000000" cx="546.9368" cy="-754.773" rx="3.2" ry="3.2"/>
</g>
<!-- ProfessorCompetencyAssignments -->
<g id="node15" class="node">
<title>ProfessorCompetencyAssignments</title>
<g id="a_node15"><a xlink:href="../../tables/ProfessorCompetencyAssignments.html" xlink:title="ProfessorCompetencyAssignments" target="_top">
<polygon fill="#ffffff" stroke="transparent" points="793,-452.4717 793,-513.4717 1035,-513.4717 1035,-452.4717 793,-452.4717"/>
<polygon fill="#f5f5f5" stroke="transparent" points="793,-489.9717 793,-512.9717 1035,-512.9717 1035,-489.9717 793,-489.9717"/>
<polygon fill="none" stroke="#000000" points="793,-489.9717 793,-512.9717 1035,-512.9717 1035,-489.9717 793,-489.9717"/>
<text text-anchor="start" x="798" y="-498.5717" font-family="Helvetica,sans-Serif" font-weight="bold" font-size="11.00" fill="#000000">ProfessorCompetencyAssignments</text>
<text text-anchor="start" x="1000.5219" y="-498.0717" font-family="Helvetica,sans-Serif" font-size="11.00" fill="#000000">[table]</text>
<polygon fill="none" stroke="#000000" points="793,-470.9717 793,-489.9717 1035,-489.9717 1035,-470.9717 793,-470.9717"/>
<text text-anchor="start" x="796" y="-477.0717" font-family="Helvetica,sans-Serif" font-size="11.00" fill="#000000">...</text>
<polygon fill="#ffffff" stroke="transparent" points="793,-451.9717 793,-470.9717 895,-470.9717 895,-451.9717 793,-451.9717"/>
<polygon fill="none" stroke="#000000" points="793,-451.9717 793,-470.9717 895,-470.9717 895,-451.9717 793,-451.9717"/>
<text text-anchor="start" x="796" y="-458.0717" font-family="Helvetica,sans-Serif" font-size="11.00" fill="#000000">&lt; 7</text>
<polygon fill="#ffffff" stroke="transparent" points="895,-451.9717 895,-470.9717 973,-470.9717 973,-451.9717 895,-451.9717"/>
<polygon fill="none" stroke="#000000" points="895,-451.9717 895,-470.9717 973,-470.9717 973,-451.9717 895,-451.9717"/>
<text text-anchor="start" x="937.6105" y="-458.0717" font-family="Helvetica,sans-Serif" font-size="11.00" fill="#000000">0 rows</text>
<polygon fill="#ffffff" stroke="transparent" points="973,-451.9717 973,-470.9717 1035,-470.9717 1035,-451.9717 973,-451.9717"/>
<polygon fill="none" stroke="#000000" points="973,-451.9717 973,-470.9717 1035,-470.9717 1035,-451.9717 973,-451.9717"/>
<text text-anchor="start" x="1016.4053" y="-458.0717" font-family="Helvetica,sans-Serif" font-size="11.00" fill="#000000">1 &gt;</text>
</a>
</g>
</g>
<!-- ProfessorCompetencyAssignments&#45;&gt;AspNetUsers -->
<g id="edge23" class="edge">
<title>ProfessorCompetencyAssignments:w&#45;&gt;AspNetUsers:e</title>
<path fill="none" stroke="#000000" d="M887.2097,-530.5231C860.1436,-575.5793 813.5577,-640.3688 752,-668.9717 652.8475,-715.043 604.8963,-715.5904 506,-668.9717 485.1532,-659.1447 492.4586,-641.3218 473,-628.9717 432.8184,-603.469 313.0915,-575.9717 265.5,-581.9717"/>
<polygon fill="#000000" stroke="#000000" points="890.6089,-524.7153 897.7569,-519.6294 892.6294,-521.2631 894.6499,-517.8109 894.6499,-517.8109 894.6499,-517.8109 892.6294,-521.2631 891.543,-515.9925 890.6089,-524.7153 890.6089,-524.7153"/>
<ellipse fill="none" stroke="#000000" cx="888.9925" cy="-527.477" rx="3.2" ry="3.2"/>
</g>
<!-- ProfessorCompetencyAssignments&#45;&gt;AspNetUsers -->
<g id="edge28" class="edge">
<title>ProfessorCompetencyAssignments:w&#45;&gt;AspNetUsers:e</title>
<path fill="none" stroke="#000000" d="M892.7384,-530.5429C866.759,-579.0847 817.9796,-651.3142 752,-681.9717 652.8475,-728.043 604.8963,-728.5904 506,-681.9717 485.1532,-672.1447 492.4586,-654.3218 473,-641.9717 432.8184,-616.469 313.0915,-588.9717 265.5,-581.9717"/>
<polygon fill="#000000" stroke="#000000" points="895.7858,-524.6421 902.6553,-519.1859 897.6213,-521.088 899.4567,-517.534 899.4567,-517.534 899.4567,-517.534 897.6213,-521.088 896.2581,-515.8821 895.7858,-524.6421 895.7858,-524.6421"/>
<ellipse fill="none" stroke="#000000" cx="894.3174" cy="-527.4853" rx="3.2" ry="3.2"/>
</g>
<!-- ProfessorCompetencyAssignments&#45;&gt;Competencies -->
<g id="edge22" class="edge">
<title>ProfessorCompetencyAssignments:w&#45;&gt;Competencies:e</title>
<path fill="none" stroke="#000000" d="M895.7708,-531.2194C872.0551,-586.2243 824.8367,-673.3737 752,-710.9717 659.2713,-758.8379 535.3518,-730.1866 459.3255,-703.9473"/>
<polygon fill="#000000" stroke="#000000" points="898.3532,-525.0238 904.754,-519.0247 899.8922,-521.3317 901.4311,-517.6396 901.4311,-517.6396 901.4311,-517.6396 899.8922,-521.3317 898.1083,-516.2546 898.3532,-525.0238 898.3532,-525.0238"/>
<ellipse fill="none" stroke="#000000" cx="897.122" cy="-527.9775" rx="3.2" ry="3.2"/>
</g>
<!-- ProfessorCompetencyAssignments&#45;&gt;TechnicalCareers -->
<g id="edge27" class="edge">
<title>ProfessorCompetencyAssignments:w&#45;&gt;TechnicalCareers:e</title>
<path fill="none" stroke="#000000" d="M769.8591,-490.4273C691.6733,-495.0847 593.4122,-501.9287 506,-510.9717 493.717,-512.2424 480.7297,-513.816 468.0713,-515.476"/>
<polygon fill="#000000" stroke="#000000" points="776.7314,-490.0235 784.9289,-493.1479 780.7245,-489.7888 784.7176,-489.5541 784.7176,-489.5541 784.7176,-489.5541 780.7245,-489.7888 784.5064,-485.9603 776.7314,-490.0235 776.7314,-490.0235"/>
<ellipse fill="none" stroke="#000000" cx="773.5369" cy="-490.2113" rx="3.2" ry="3.2"/>
</g>
<!-- ProfessorCompetencyAssignments&#45;&gt;EvaluationPeriods -->
<g id="edge24" class="edge">
<title>ProfessorCompetencyAssignments:w&#45;&gt;EvaluationPeriods:e</title>
<path fill="none" stroke="#000000" d="M864.6065,-438.9397C834.3678,-414.8936 793.5916,-387.3562 752,-373.9717 658.7576,-343.9656 544.9157,-346.4447 470.2044,-352.9601"/>
<polygon fill="#000000" stroke="#000000" points="869.8696,-443.2329 873.7932,-451.0793 872.9692,-445.7613 876.0687,-448.2897 876.0687,-448.2897 876.0687,-448.2897 872.9692,-445.7613 878.3443,-445.5001 869.8696,-443.2329 869.8696,-443.2329"/>
<ellipse fill="none" stroke="#000000" cx="867.3899" cy="-441.2102" rx="3.2" ry="3.2"/>
</g>
<!-- Professors -->
<g id="node16" class="node">
<title>Professors</title>
<g id="a_node16"><a xlink:href="../../tables/Professors.html" xlink:title="Professors" target="_top">
<polygon fill="#ffffff" stroke="transparent" points="340,-414.4717 340,-475.4717 441,-475.4717 441,-414.4717 340,-414.4717"/>
<polygon fill="#f5f5f5" stroke="transparent" points="340.5,-451.9717 340.5,-474.9717 441.5,-474.9717 441.5,-451.9717 340.5,-451.9717"/>
<polygon fill="none" stroke="#000000" points="340.5,-451.9717 340.5,-474.9717 441.5,-474.9717 441.5,-451.9717 340.5,-451.9717"/>
<text text-anchor="start" x="345.5" y="-460.5717" font-family="Helvetica,sans-Serif" font-weight="bold" font-size="11.00" fill="#000000">Professors</text>
<text text-anchor="start" x="407.0219" y="-460.0717" font-family="Helvetica,sans-Serif" font-size="11.00" fill="#000000">[table]</text>
<polygon fill="none" stroke="#000000" points="340.5,-432.9717 340.5,-451.9717 441.5,-451.9717 441.5,-432.9717 340.5,-432.9717"/>
<text text-anchor="start" x="343.5" y="-439.0717" font-family="Helvetica,sans-Serif" font-size="11.00" fill="#000000">...</text>
<polygon fill="#ffffff" stroke="transparent" points="340.5,-413.9717 340.5,-432.9717 371.5,-432.9717 371.5,-413.9717 340.5,-413.9717"/>
<polygon fill="none" stroke="#000000" points="340.5,-413.9717 340.5,-432.9717 371.5,-432.9717 371.5,-413.9717 340.5,-413.9717"/>
<text text-anchor="start" x="343.5" y="-420.0717" font-family="Helvetica,sans-Serif" font-size="11.00" fill="#000000">&lt; 1</text>
<polygon fill="#ffffff" stroke="transparent" points="371.5,-413.9717 371.5,-432.9717 414.5,-432.9717 414.5,-413.9717 371.5,-413.9717"/>
<polygon fill="none" stroke="#000000" points="371.5,-413.9717 371.5,-432.9717 414.5,-432.9717 414.5,-413.9717 371.5,-413.9717"/>
<text text-anchor="start" x="379.1105" y="-420.0717" font-family="Helvetica,sans-Serif" font-size="11.00" fill="#000000">0 rows</text>
<polygon fill="#ffffff" stroke="transparent" points="414.5,-413.9717 414.5,-432.9717 441.5,-432.9717 441.5,-413.9717 414.5,-413.9717"/>
<polygon fill="none" stroke="#000000" points="414.5,-413.9717 414.5,-432.9717 441.5,-432.9717 441.5,-413.9717 414.5,-413.9717"/>
<text text-anchor="start" x="422.9053" y="-420.0717" font-family="Helvetica,sans-Serif" font-size="11.00" fill="#000000">2 &gt;</text>
</a>
</g>
</g>
<!-- ProfessorCompetencyAssignments&#45;&gt;Professors -->
<g id="edge25" class="edge">
<title>ProfessorCompetencyAssignments:w&#45;&gt;Professors:e</title>
<path fill="none" stroke="#000000" d="M769.9931,-474.4592C691.8462,-469.5835 593.5796,-463.0385 506,-455.9717 487.5286,-454.4813 467.4167,-452.6414 449.2289,-450.8958"/>
<polygon fill="#000000" stroke="#000000" points="776.8589,-474.8852 784.6206,-478.9739 780.8512,-475.133 784.8436,-475.3808 784.8436,-475.3808 784.8436,-475.3808 780.8512,-475.133 785.0666,-471.7877 776.8589,-474.8852 776.8589,-474.8852"/>
<ellipse fill="none" stroke="#000000" cx="773.6651" cy="-474.687" rx="3.2" ry="3.2"/>
</g>
<!-- Subjects -->
<g id="node17" class="node">
<title>Subjects</title>
<g id="a_node17"><a xlink:href="../../tables/Subjects.html" xlink:title="Subjects" target="_top">
<polygon fill="#ffffff" stroke="transparent" points="584.5,-274.4717 584.5,-335.4717 673.5,-335.4717 673.5,-274.4717 584.5,-274.4717"/>
<polygon fill="#f5f5f5" stroke="transparent" points="585,-311.9717 585,-334.9717 674,-334.9717 674,-311.9717 585,-311.9717"/>
<polygon fill="none" stroke="#000000" points="585,-311.9717 585,-334.9717 674,-334.9717 674,-311.9717 585,-311.9717"/>
<text text-anchor="start" x="590" y="-320.5717" font-family="Helvetica,sans-Serif" font-weight="bold" font-size="11.00" fill="#000000">Subjects</text>
<text text-anchor="start" x="639.5219" y="-320.0717" font-family="Helvetica,sans-Serif" font-size="11.00" fill="#000000">[table]</text>
<polygon fill="none" stroke="#000000" points="585,-292.9717 585,-311.9717 674,-311.9717 674,-292.9717 585,-292.9717"/>
<text text-anchor="start" x="588" y="-299.0717" font-family="Helvetica,sans-Serif" font-size="11.00" fill="#000000">...</text>
<polygon fill="#ffffff" stroke="transparent" points="585,-273.9717 585,-292.9717 610,-292.9717 610,-273.9717 585,-273.9717"/>
<polygon fill="none" stroke="#000000" points="585,-273.9717 585,-292.9717 610,-292.9717 610,-273.9717 585,-273.9717"/>
<text text-anchor="start" x="588" y="-280.0717" font-family="Helvetica,sans-Serif" font-size="11.00" fill="#000000">&lt; 4</text>
<polygon fill="#ffffff" stroke="transparent" points="610,-273.9717 610,-292.9717 650,-292.9717 650,-273.9717 610,-273.9717"/>
<polygon fill="none" stroke="#000000" points="610,-273.9717 610,-292.9717 650,-292.9717 650,-273.9717 610,-273.9717"/>
<text text-anchor="start" x="614.6105" y="-280.0717" font-family="Helvetica,sans-Serif" font-size="11.00" fill="#000000">0 rows</text>
<polygon fill="#ffffff" stroke="transparent" points="650,-273.9717 650,-292.9717 674,-292.9717 674,-273.9717 650,-273.9717"/>
<polygon fill="none" stroke="#000000" points="650,-273.9717 650,-292.9717 674,-292.9717 674,-273.9717 650,-273.9717"/>
<text text-anchor="start" x="655.4053" y="-280.0717" font-family="Helvetica,sans-Serif" font-size="11.00" fill="#000000">3 &gt;</text>
</a>
</g>
</g>
<!-- ProfessorCompetencyAssignments&#45;&gt;Subjects -->
<g id="edge26" class="edge">
<title>ProfessorCompetencyAssignments:w&#45;&gt;Subjects:e</title>
<path fill="none" stroke="#000000" d="M868.1774,-438.2101C837.3284,-409.9577 794.6325,-374.3287 752,-349.9717 730.0849,-337.4511 704.0498,-327.328 681.5877,-319.8773"/>
<polygon fill="#000000" stroke="#000000" points="873.1238,-442.8054 876.5345,-450.888 876.0543,-445.528 878.9848,-448.2505 878.9848,-448.2505 878.9848,-448.2505 876.0543,-445.528 881.4351,-445.6131 873.1238,-442.8054 873.1238,-442.8054"/>
<ellipse fill="none" stroke="#000000" cx="870.7794" cy="-440.6274" rx="3.2" ry="3.2"/>
</g>
<!-- Professors&#45;&gt;AspNetUsers -->
<g id="edge29" class="edge">
<title>Professors:w&#45;&gt;AspNetUsers:e</title>
<path fill="none" stroke="#000000" d="M323.1355,-473.214C317.6505,-477.0255 312.4982,-481.269 308,-485.9717 275.7471,-519.691 312.1608,-581.9717 265.5,-581.9717"/>
<polygon fill="#000000" stroke="#000000" points="329.1578,-464.6328 333.4572,-471.3793 332.1079,-472.2392 327.8085,-465.4927 329.1578,-464.6328"/>
<polyline fill="none" stroke="#000000" points="331.9822,-467.5761 328.6089,-469.7258 "/>
<ellipse fill="none" stroke="#000000" cx="325.9103" cy="-471.4456" rx="3.2" ry="3.2"/>
</g>
<!-- Subjects&#45;&gt;AspNetUsers -->
<g id="edge49" class="edge">
<title>Subjects:w&#45;&gt;AspNetUsers:e</title>
<path fill="none" stroke="#000000" d="M562.001,-282.1619C489.9447,-265.1981 376.5199,-254.5484 308,-315.9717 264.4068,-355.0499 324.0446,-575.9717 265.5,-581.9717"/>
<polygon fill="#000000" stroke="#000000" points="568.5159,-283.7932 575.4019,-289.2286 572.3961,-284.7648 576.2763,-285.7364 576.2763,-285.7364 576.2763,-285.7364 572.3961,-284.7648 577.1508,-282.2442 568.5159,-283.7932 568.5159,-283.7932"/>
<ellipse fill="none" stroke="#000000" cx="565.4118" cy="-283.0159" rx="3.2" ry="3.2"/>
</g>
<!-- Subjects&#45;&gt;AspNetUsers -->
<g id="edge52" class="edge">
<title>Subjects:w&#45;&gt;AspNetUsers:e</title>
<path fill="none" stroke="#000000" d="M562.001,-291.6881C489.9447,-278.1981 376.5199,-267.5484 308,-328.9717 264.4068,-368.0499 324.0446,-588.9717 265.5,-581.9717"/>
<polygon fill="#000000" stroke="#000000" points="568.4265,-292.951 575.582,-298.0264 572.3514,-293.7225 576.2763,-294.494 576.2763,-294.494 576.2763,-294.494 572.3514,-293.7225 576.9707,-290.9616 568.4265,-292.951 568.4265,-292.951"/>
<ellipse fill="none" stroke="#000000" cx="565.2866" cy="-292.3339" rx="3.2" ry="3.2"/>
</g>
<!-- Subjects&#45;&gt;TechnicalCareers -->
<g id="edge51" class="edge">
<title>Subjects:w&#45;&gt;TechnicalCareers:e</title>
<path fill="none" stroke="#000000" d="M563.1571,-330.0466C542.3437,-340.7982 520.9075,-355.2726 506,-373.9717 473.6509,-414.5485 506.3535,-446.2164 473,-485.9717 471.1496,-488.1773 469.1516,-490.2753 467.0358,-492.2702"/>
<polygon fill="#000000" stroke="#000000" points="569.1195,-327.1584 577.8887,-326.9107 572.7194,-325.4146 576.3193,-323.6708 576.3193,-323.6708 576.3193,-323.6708 572.7194,-325.4146 574.7499,-320.4309 569.1195,-327.1584 569.1195,-327.1584"/>
<ellipse fill="none" stroke="#000000" cx="566.2396" cy="-328.5535" rx="3.2" ry="3.2"/>
</g>
<!-- Subjects&#45;&gt;Professors -->
<g id="edge50" class="edge">
<title>Subjects:w&#45;&gt;Professors:e</title>
<path fill="none" stroke="#000000" d="M563.3286,-338.2079C544.2865,-348.7936 523.8333,-361.1182 506,-373.9717 489.92,-385.5615 489.3647,-392.7876 473,-403.9717 465.6053,-409.0255 457.498,-413.8302 449.3437,-418.2529"/>
<polygon fill="#000000" stroke="#000000" points="569.2124,-335.0008 577.9596,-334.3329 572.7245,-333.0864 576.2366,-331.172 576.2366,-331.172 576.2366,-331.172 572.7245,-333.0864 574.5137,-328.0111 569.2124,-335.0008 569.2124,-335.0008"/>
<ellipse fill="none" stroke="#000000" cx="566.4027" cy="-336.5324" rx="3.2" ry="3.2"/>
</g>
<!-- QuestionResponses -->
<g id="node18" class="node">
<title>QuestionResponses</title>
<g id="a_node18"><a xlink:href="../../tables/QuestionResponses.html" xlink:title="QuestionResponses" target="_top">
<polygon fill="#ffffff" stroke="transparent" points="1356,-1092.4717 1356,-1153.4717 1511,-1153.4717 1511,-1092.4717 1356,-1092.4717"/>
<polygon fill="#f5f5f5" stroke="transparent" points="1356.5,-1129.9717 1356.5,-1152.9717 1511.5,-1152.9717 1511.5,-1129.9717 1356.5,-1129.9717"/>
<polygon fill="none" stroke="#000000" points="1356.5,-1129.9717 1356.5,-1152.9717 1511.5,-1152.9717 1511.5,-1129.9717 1356.5,-1129.9717"/>
<text text-anchor="start" x="1361.5" y="-1138.5717" font-family="Helvetica,sans-Serif" font-weight="bold" font-size="11.00" fill="#000000">QuestionResponses</text>
<text text-anchor="start" x="1477.0219" y="-1138.0717" font-family="Helvetica,sans-Serif" font-size="11.00" fill="#000000">[table]</text>
<polygon fill="none" stroke="#000000" points="1356.5,-1110.9717 1356.5,-1129.9717 1511.5,-1129.9717 1511.5,-1110.9717 1356.5,-1110.9717"/>
<text text-anchor="start" x="1359.5" y="-1117.0717" font-family="Helvetica,sans-Serif" font-size="11.00" fill="#000000">...</text>
<polygon fill="#ffffff" stroke="transparent" points="1356.5,-1091.9717 1356.5,-1110.9717 1419.5,-1110.9717 1419.5,-1091.9717 1356.5,-1091.9717"/>
<polygon fill="none" stroke="#000000" points="1356.5,-1091.9717 1356.5,-1110.9717 1419.5,-1110.9717 1419.5,-1091.9717 1356.5,-1091.9717"/>
<text text-anchor="start" x="1359.5" y="-1098.0717" font-family="Helvetica,sans-Serif" font-size="11.00" fill="#000000">&lt; 4</text>
<polygon fill="#ffffff" stroke="transparent" points="1419.5,-1091.9717 1419.5,-1110.9717 1478.5,-1110.9717 1478.5,-1091.9717 1419.5,-1091.9717"/>
<polygon fill="none" stroke="#000000" points="1419.5,-1091.9717 1419.5,-1110.9717 1478.5,-1110.9717 1478.5,-1091.9717 1419.5,-1091.9717"/>
<text text-anchor="start" x="1443.1105" y="-1098.0717" font-family="Helvetica,sans-Serif" font-size="11.00" fill="#000000">0 rows</text>
<polygon fill="#ffffff" stroke="transparent" points="1478.5,-1091.9717 1478.5,-1110.9717 1511.5,-1110.9717 1511.5,-1091.9717 1478.5,-1091.9717"/>
<polygon fill="none" stroke="#000000" points="1478.5,-1091.9717 1478.5,-1110.9717 1511.5,-1110.9717 1511.5,-1091.9717 1478.5,-1091.9717"/>
<text text-anchor="start" x="1502.3862" y="-1098.0717" font-family="Helvetica,sans-Serif" font-size="11.00" fill="#000000"> &#160;</text>
</a>
</g>
</g>
<!-- QuestionResponses&#45;&gt;AspNetUsers -->
<g id="edge30" class="edge">
<title>QuestionResponses:w&#45;&gt;AspNetUsers:e</title>
<path fill="none" stroke="#000000" d="M1334.0609,-1154.0198C1230.5484,-1186.2975 1063.0315,-1231.9717 914,-1231.9717 914,-1231.9717 914,-1231.9717 629,-1231.9717 557.5283,-1231.9717 358.6517,-1262.396 308,-1211.9717 257.8071,-1162.0042 336.3243,-575.9717 265.5,-581.9717"/>
<polygon fill="#000000" stroke="#000000" points="1340.2898,-1152.0602 1349.0015,-1153.0935 1344.1055,-1150.8598 1347.9211,-1149.6594 1347.9211,-1149.6594 1347.9211,-1149.6594 1344.1055,-1150.8598 1346.8408,-1146.2254 1340.2898,-1152.0602 1340.2898,-1152.0602"/>
<ellipse fill="none" stroke="#000000" cx="1337.2373" cy="-1153.0205" rx="3.2" ry="3.2"/>
</g>
<!-- QuestionResponses&#45;&gt;AspNetUsers -->
<g id="edge33" class="edge">
<title>QuestionResponses:w&#45;&gt;AspNetUsers:e</title>
<path fill="none" stroke="#000000" d="M1338.167,-1162.3501C1235.0188,-1198.0714 1065.0186,-1244.9717 914,-1244.9717 914,-1244.9717 914,-1244.9717 629,-1244.9717 557.5283,-1244.9717 358.6517,-1275.396 308,-1224.9717 257.8071,-1175.0042 336.3243,-588.9717 265.5,-581.9717"/>
<polygon fill="#000000" stroke="#000000" points="1344.4116,-1160.1545 1353.1528,-1160.897 1348.1851,-1158.8277 1351.9587,-1157.5008 1351.9587,-1157.5008 1351.9587,-1157.5008 1348.1851,-1158.8277 1350.7645,-1154.1046 1344.4116,-1160.1545 1344.4116,-1160.1545"/>
<ellipse fill="none" stroke="#000000" cx="1341.3928" cy="-1161.216" rx="3.2" ry="3.2"/>
</g>
<!-- QuestionResponses&#45;&gt;FormQuestions -->
<g id="edge31" class="edge">
<title>QuestionResponses:w&#45;&gt;FormQuestions:e</title>
<path fill="none" stroke="#000000" d="M1347.654,-1082.269C1219.4652,-1022.1874 969.761,-907.8325 752,-823.9717 735.5107,-817.6216 717.5685,-811.3107 700.6148,-805.6121"/>
<polygon fill="#000000" stroke="#000000" points="1353.5583,-1085.0406 1359.2704,-1091.6988 1357.1792,-1086.7403 1360.8001,-1088.44 1360.8001,-1088.44 1360.8001,-1088.44 1357.1792,-1086.7403 1362.3299,-1085.1812 1353.5583,-1085.0406 1353.5583,-1085.0406"/>
<ellipse fill="none" stroke="#000000" cx="1350.6616" cy="-1083.6808" rx="3.2" ry="3.2"/>
</g>
<!-- StudentCompetencyEvaluations -->
<g id="node19" class="node">
<title>StudentCompetencyEvaluations</title>
<g id="a_node19"><a xlink:href="../../tables/StudentCompetencyEvaluations.html" xlink:title="StudentCompetencyEvaluations" target="_top">
<polygon fill="#ffffff" stroke="transparent" points="1084,-197.4717 1084,-258.4717 1307,-258.4717 1307,-197.4717 1084,-197.4717"/>
<polygon fill="#f5f5f5" stroke="transparent" points="1084.5,-234.9717 1084.5,-257.9717 1307.5,-257.9717 1307.5,-234.9717 1084.5,-234.9717"/>
<polygon fill="none" stroke="#000000" points="1084.5,-234.9717 1084.5,-257.9717 1307.5,-257.9717 1307.5,-234.9717 1084.5,-234.9717"/>
<text text-anchor="start" x="1089.5" y="-243.5717" font-family="Helvetica,sans-Serif" font-weight="bold" font-size="11.00" fill="#000000">StudentCompetencyEvaluations</text>
<text text-anchor="start" x="1273.0219" y="-243.0717" font-family="Helvetica,sans-Serif" font-size="11.00" fill="#000000">[table]</text>
<polygon fill="none" stroke="#000000" points="1084.5,-215.9717 1084.5,-234.9717 1307.5,-234.9717 1307.5,-215.9717 1084.5,-215.9717"/>
<text text-anchor="start" x="1087.5" y="-222.0717" font-family="Helvetica,sans-Serif" font-size="11.00" fill="#000000">...</text>
<polygon fill="#ffffff" stroke="transparent" points="1084.5,-196.9717 1084.5,-215.9717 1176.5,-215.9717 1176.5,-196.9717 1084.5,-196.9717"/>
<polygon fill="none" stroke="#000000" points="1084.5,-196.9717 1084.5,-215.9717 1176.5,-215.9717 1176.5,-196.9717 1084.5,-196.9717"/>
<text text-anchor="start" x="1087.5" y="-203.0717" font-family="Helvetica,sans-Serif" font-size="11.00" fill="#000000">&lt; 5</text>
<polygon fill="#ffffff" stroke="transparent" points="1176.5,-196.9717 1176.5,-215.9717 1250.5,-215.9717 1250.5,-196.9717 1176.5,-196.9717"/>
<polygon fill="none" stroke="#000000" points="1176.5,-196.9717 1176.5,-215.9717 1250.5,-215.9717 1250.5,-196.9717 1176.5,-196.9717"/>
<text text-anchor="start" x="1215.1105" y="-203.0717" font-family="Helvetica,sans-Serif" font-size="11.00" fill="#000000">0 rows</text>
<polygon fill="#ffffff" stroke="transparent" points="1250.5,-196.9717 1250.5,-215.9717 1307.5,-215.9717 1307.5,-196.9717 1250.5,-196.9717"/>
<polygon fill="none" stroke="#000000" points="1250.5,-196.9717 1250.5,-215.9717 1307.5,-215.9717 1307.5,-196.9717 1250.5,-196.9717"/>
<text text-anchor="start" x="1288.9053" y="-203.0717" font-family="Helvetica,sans-Serif" font-size="11.00" fill="#000000">1 &gt;</text>
</a>
</g>
</g>
<!-- QuestionResponses&#45;&gt;StudentCompetencyEvaluations -->
<g id="edge32" class="edge">
<title>QuestionResponses:w&#45;&gt;StudentCompetencyEvaluations:e</title>
<path fill="none" stroke="#000000" d="M1420.5939,-1074.4381C1377.8705,-913.7768 1241.6657,-401.5782 1204.7851,-262.8882"/>
<polygon fill="#000000" stroke="#000000" points="1422.26,-1080.7037 1420.8369,-1089.3602 1423.288,-1084.5694 1424.3159,-1088.4351 1424.3159,-1088.4351 1424.3159,-1088.4351 1423.288,-1084.5694 1427.795,-1087.5099 1422.26,-1080.7037 1422.26,-1080.7037"/>
<ellipse fill="none" stroke="#000000" cx="1421.4376" cy="-1077.6112" rx="3.2" ry="3.2"/>
</g>
<!-- StudentCompetencyEvaluations&#45;&gt;AspNetUsers -->
<g id="edge34" class="edge">
<title>StudentCompetencyEvaluations:w&#45;&gt;AspNetUsers:e</title>
<path fill="none" stroke="#000000" d="M1167.7791,-180.9804C1140.8883,-142.8463 1096.3863,-92.0337 1043,-69.9717 930.3913,-23.4359 377.5841,-17.3599 308,-82.9717 267.9976,-120.6905 320.4809,-575.9717 265.5,-581.9717"/>
<polygon fill="#000000" stroke="#000000" points="1171.709,-186.7538 1173.2348,-195.3928 1173.9599,-190.0604 1176.2108,-193.367 1176.2108,-193.367 1176.2108,-193.367 1173.9599,-190.0604 1179.1867,-191.3412 1171.709,-186.7538 1171.709,-186.7538"/>
<ellipse fill="none" stroke="#000000" cx="1169.9083" cy="-184.1085" rx="3.2" ry="3.2"/>
</g>
<!-- StudentCompetencyEvaluations&#45;&gt;AspNetUsers -->
<g id="edge38" class="edge">
<title>StudentCompetencyEvaluations:w&#45;&gt;AspNetUsers:e</title>
<path fill="none" stroke="#000000" d="M1160.2512,-181.4457C1132.9615,-147.0986 1091.6731,-103.086 1043,-82.9717 930.3913,-36.4359 377.5841,-30.3599 308,-95.9717 267.9976,-133.6905 320.4809,-588.9717 265.5,-581.9717"/>
<polygon fill="#000000" stroke="#000000" points="1164.4095,-186.8126 1166.4635,-195.3415 1166.8594,-189.9746 1169.3093,-193.1366 1169.3093,-193.1366 1169.3093,-193.1366 1166.8594,-189.9746 1172.1551,-190.9317 1164.4095,-186.8126 1164.4095,-186.8126"/>
<ellipse fill="none" stroke="#000000" cx="1162.4496" cy="-184.283" rx="3.2" ry="3.2"/>
</g>
<!-- StudentCompetencyEvaluations&#45;&gt;ProfessorCompetencyAssignments -->
<g id="edge35" class="edge">
<title>StudentCompetencyEvaluations:w&#45;&gt;ProfessorCompetencyAssignments:e</title>
<path fill="none" stroke="#000000" d="M1146.3159,-272.5257C1091.0415,-322.5967 1002.4796,-402.8214 952.1737,-448.3917"/>
<polygon fill="#000000" stroke="#000000" points="1151.3136,-267.9984 1159.6596,-265.2956 1154.2782,-265.313 1157.2427,-262.6275 1157.2427,-262.6275 1157.2427,-262.6275 1154.2782,-265.313 1154.8258,-259.9595 1151.3136,-267.9984 1151.3136,-267.9984"/>
<ellipse fill="none" stroke="#000000" cx="1148.942" cy="-270.1468" rx="3.2" ry="3.2"/>
</g>
<!-- StudentCompetencyEvaluations&#45;&gt;Subjects -->
<g id="edge37" class="edge">
<title>StudentCompetencyEvaluations:w&#45;&gt;Subjects:e</title>
<path fill="none" stroke="#000000" d="M1061.4914,-264.4512C1055.2602,-265.7279 1049.0742,-266.9114 1043,-267.9717 914.3335,-290.4327 760.6537,-299.6285 681.6505,-303.0888"/>
<polygon fill="#000000" stroke="#000000" points="1067.8019,-263.0975 1076.379,-264.9393 1071.7129,-262.2584 1075.6239,-261.4194 1075.6239,-261.4194 1075.6239,-261.4194 1071.7129,-262.2584 1074.8688,-257.8995 1067.8019,-263.0975 1067.8019,-263.0975"/>
<ellipse fill="none" stroke="#000000" cx="1064.6731" cy="-263.7687" rx="3.2" ry="3.2"/>
</g>
<!-- Students -->
<g id="node20" class="node">
<title>Students</title>
<g id="a_node20"><a xlink:href="../../tables/Students.html" xlink:title="Students" target="_top">
<polygon fill="#ffffff" stroke="transparent" points="584,-125.4717 584,-186.4717 674,-186.4717 674,-125.4717 584,-125.4717"/>
<polygon fill="#f5f5f5" stroke="transparent" points="584,-162.9717 584,-185.9717 674,-185.9717 674,-162.9717 584,-162.9717"/>
<polygon fill="none" stroke="#000000" points="584,-162.9717 584,-185.9717 674,-185.9717 674,-162.9717 584,-162.9717"/>
<text text-anchor="start" x="589" y="-171.5717" font-family="Helvetica,sans-Serif" font-weight="bold" font-size="11.00" fill="#000000">Students</text>
<text text-anchor="start" x="639.5219" y="-171.0717" font-family="Helvetica,sans-Serif" font-size="11.00" fill="#000000">[table]</text>
<polygon fill="none" stroke="#000000" points="584,-143.9717 584,-162.9717 674,-162.9717 674,-143.9717 584,-143.9717"/>
<text text-anchor="start" x="587" y="-150.0717" font-family="Helvetica,sans-Serif" font-size="11.00" fill="#000000">...</text>
<polygon fill="#ffffff" stroke="transparent" points="584,-124.9717 584,-143.9717 610,-143.9717 610,-124.9717 584,-124.9717"/>
<polygon fill="none" stroke="#000000" points="584,-124.9717 584,-143.9717 610,-143.9717 610,-124.9717 584,-124.9717"/>
<text text-anchor="start" x="587" y="-131.0717" font-family="Helvetica,sans-Serif" font-size="11.00" fill="#000000">&lt; 2</text>
<polygon fill="#ffffff" stroke="transparent" points="610,-124.9717 610,-143.9717 650,-143.9717 650,-124.9717 610,-124.9717"/>
<polygon fill="none" stroke="#000000" points="610,-124.9717 610,-143.9717 650,-143.9717 650,-124.9717 610,-124.9717"/>
<text text-anchor="start" x="614.6105" y="-131.0717" font-family="Helvetica,sans-Serif" font-size="11.00" fill="#000000">0 rows</text>
<polygon fill="#ffffff" stroke="transparent" points="650,-124.9717 650,-143.9717 674,-143.9717 674,-124.9717 650,-124.9717"/>
<polygon fill="none" stroke="#000000" points="650,-124.9717 650,-143.9717 674,-143.9717 674,-124.9717 650,-124.9717"/>
<text text-anchor="start" x="655.4053" y="-131.0717" font-family="Helvetica,sans-Serif" font-size="11.00" fill="#000000">3 &gt;</text>
</a>
</g>
</g>
<!-- StudentCompetencyEvaluations&#45;&gt;Students -->
<g id="edge36" class="edge">
<title>StudentCompetencyEvaluations:w&#45;&gt;Students:e</title>
<path fill="none" stroke="#000000" d="M1064.8619,-190.2079C1057.4971,-188.6371 1050.1738,-187.2072 1043,-185.9717 914.6349,-163.8653 761.1509,-158.0202 682.0103,-156.4939"/>
<polygon fill="#000000" stroke="#000000" points="1071.2416,-191.6382 1078.2603,-196.9012 1075.1448,-192.5133 1079.0479,-193.3884 1079.0479,-193.3884 1079.0479,-193.3884 1075.1448,-192.5133 1079.8355,-189.8756 1071.2416,-191.6382 1071.2416,-191.6382"/>
<ellipse fill="none" stroke="#000000" cx="1068.1192" cy="-190.9381" rx="3.2" ry="3.2"/>
</g>
<!-- Students&#45;&gt;AspNetUsers -->
<g id="edge44" class="edge">
<title>Students:w&#45;&gt;AspNetUsers:e</title>
<path fill="none" stroke="#000000" d="M565.5623,-144.3551C492.536,-135.0054 374.1772,-132.9022 308,-200.9717 248.6153,-262.0545 350.6918,-581.9717 265.5,-581.9717"/>
<polygon fill="#000000" stroke="#000000" points="575.7446,-141.7083 574.6623,-149.6347 573.077,-149.4183 574.1593,-141.4918 575.7446,-141.7083"/>
<polyline fill="none" stroke="#000000" points="575.9961,-145.7797 572.0329,-145.2386 "/>
<ellipse fill="none" stroke="#000000" cx="568.8623" cy="-144.8056" rx="3.2" ry="3.2"/>
</g>
<!-- Students&#45;&gt;TechnicalCareers -->
<g id="edge43" class="edge">
<title>Students:w&#45;&gt;TechnicalCareers:e</title>
<path fill="none" stroke="#000000" d="M564.4701,-198.2485C542.4814,-215.9353 519.9522,-238.3659 506,-263.9717 458.2728,-351.5636 531.6525,-405.2865 473,-485.9717 471.4013,-488.171 469.651,-490.2591 467.7765,-492.2409"/>
<polygon fill="#000000" stroke="#000000" points="569.5405,-194.3312 578.0722,-192.289 572.7059,-191.8857 575.8713,-189.4402 575.8713,-189.4402 575.8713,-189.4402 572.7059,-191.8857 573.6703,-186.5914 569.5405,-194.3312 569.5405,-194.3312"/>
<ellipse fill="none" stroke="#000000" cx="567.0082" cy="-196.2877" rx="3.2" ry="3.2"/>
</g>
<!-- StudentEvaluationReport -->
<g id="node21" class="node">
<title>StudentEvaluationReport</title>
<g id="a_node21"><a xlink:href="../../tables/StudentEvaluationReport.html" xlink:title="StudentEvaluationReport" target="_top">
<polygon fill="#ffffff" stroke="transparent" points="822.5,-196.4717 822.5,-257.4717 1005.5,-257.4717 1005.5,-196.4717 822.5,-196.4717"/>
<polygon fill="#f5f5f5" stroke="transparent" points="823,-233.9717 823,-256.9717 1006,-256.9717 1006,-233.9717 823,-233.9717"/>
<polygon fill="none" stroke="#000000" points="823,-233.9717 823,-256.9717 1006,-256.9717 1006,-233.9717 823,-233.9717"/>
<text text-anchor="start" x="828" y="-242.5717" font-family="Helvetica,sans-Serif" font-weight="bold" font-size="11.00" fill="#000000">StudentEvaluationReport</text>
<text text-anchor="start" x="971.5219" y="-242.0717" font-family="Helvetica,sans-Serif" font-size="11.00" fill="#000000">[table]</text>
<polygon fill="none" stroke="#000000" points="823,-214.9717 823,-233.9717 1006,-233.9717 1006,-214.9717 823,-214.9717"/>
<text text-anchor="start" x="826" y="-221.0717" font-family="Helvetica,sans-Serif" font-size="11.00" fill="#000000">...</text>
<polygon fill="#ffffff" stroke="transparent" points="823,-195.9717 823,-214.9717 900,-214.9717 900,-195.9717 823,-195.9717"/>
<polygon fill="none" stroke="#000000" points="823,-195.9717 823,-214.9717 900,-214.9717 900,-195.9717 823,-195.9717"/>
<text text-anchor="start" x="826" y="-202.0717" font-family="Helvetica,sans-Serif" font-size="11.00" fill="#000000">&lt; 4</text>
<polygon fill="#ffffff" stroke="transparent" points="900,-195.9717 900,-214.9717 966,-214.9717 966,-195.9717 900,-195.9717"/>
<polygon fill="none" stroke="#000000" points="900,-195.9717 900,-214.9717 966,-214.9717 966,-195.9717 900,-195.9717"/>
<text text-anchor="start" x="930.6105" y="-202.0717" font-family="Helvetica,sans-Serif" font-size="11.00" fill="#000000">0 rows</text>
<polygon fill="#ffffff" stroke="transparent" points="966,-195.9717 966,-214.9717 1006,-214.9717 1006,-195.9717 966,-195.9717"/>
<polygon fill="none" stroke="#000000" points="966,-195.9717 966,-214.9717 1006,-214.9717 1006,-195.9717 966,-195.9717"/>
<text text-anchor="start" x="996.8862" y="-202.0717" font-family="Helvetica,sans-Serif" font-size="11.00" fill="#000000"> &#160;</text>
</a>
</g>
</g>
<!-- StudentEvaluationReport&#45;&gt;AspNetUsers -->
<g id="edge39" class="edge">
<title>StudentEvaluationReport:w&#45;&gt;AspNetUsers:e</title>
<path fill="none" stroke="#000000" d="M799.4846,-214.1818C642.6539,-202.83 373.0307,-197.7087 308,-265.9717 260.039,-316.3167 335.0333,-575.9717 265.5,-581.9717"/>
<polygon fill="#000000" stroke="#000000" points="806.3216,-214.6967 814.0286,-218.8874 810.3103,-214.9972 814.299,-215.2976 814.299,-215.2976 814.299,-215.2976 810.3103,-214.9972 814.5694,-211.7078 806.3216,-214.6967 806.3216,-214.6967"/>
<ellipse fill="none" stroke="#000000" cx="803.1307" cy="-214.4564" rx="3.2" ry="3.2"/>
</g>
<!-- StudentEvaluationReport&#45;&gt;AspNetUsers -->
<g id="edge42" class="edge">
<title>StudentEvaluationReport:w&#45;&gt;AspNetUsers:e</title>
<path fill="none" stroke="#000000" d="M799.4846,-222.7575C642.6539,-215.83 373.0307,-210.7087 308,-278.9717 260.039,-329.3167 335.0333,-588.9717 265.5,-581.9717"/>
<polygon fill="#000000" stroke="#000000" points="806.3073,-223.0677 814.1355,-227.0274 810.3032,-223.2494 814.299,-223.4311 814.299,-223.4311 814.299,-223.4311 810.3032,-223.2494 814.4626,-219.8349 806.3073,-223.0677 806.3073,-223.0677"/>
<ellipse fill="none" stroke="#000000" cx="803.1106" cy="-222.9223" rx="3.2" ry="3.2"/>
</g>
<!-- StudentEvaluationReport&#45;&gt;EvaluationPeriods -->
<g id="edge40" class="edge">
<title>StudentEvaluationReport:w&#45;&gt;EvaluationPeriods:e</title>
<path fill="none" stroke="#000000" d="M799.5637,-233.7767C688.3673,-240.9647 532.4937,-252.7849 506,-263.9717 472.4244,-278.1488 441.4845,-305.8094 420.0954,-328.297"/>
<polygon fill="#000000" stroke="#000000" points="806.2715,-233.3477 814.485,-236.4297 810.2634,-233.0923 814.2552,-232.837 814.2552,-232.837 814.2552,-232.837 810.2634,-233.0923 814.0254,-229.2443 806.2715,-233.3477 806.2715,-233.3477"/>
<ellipse fill="none" stroke="#000000" cx="803.0781" cy="-233.552" rx="3.2" ry="3.2"/>
</g>
<!-- StudentEvaluationReport&#45;&gt;Students -->
<g id="edge41" class="edge">
<title>StudentEvaluationReport:w&#45;&gt;Students:e</title>
<path fill="none" stroke="#000000" d="M800.3374,-198.6558C759.527,-188.489 715.4233,-177.5017 682.1833,-169.2209"/>
<polygon fill="#000000" stroke="#000000" points="806.5581,-200.2054 813.4506,-205.6326 810.4395,-201.1724 814.3208,-202.1394 814.3208,-202.1394 814.3208,-202.1394 810.4395,-201.1724 815.1911,-198.6461 806.5581,-200.2054 806.5581,-200.2054"/>
<ellipse fill="none" stroke="#000000" cx="803.453" cy="-199.4319" rx="3.2" ry="3.2"/>
</g>
<!-- StudentSubjects -->
<g id="node22" class="node">
<title>StudentSubjects</title>
<g id="a_node22"><a xlink:href="../../tables/StudentSubjects.html" xlink:title="StudentSubjects" target="_top">
<polygon fill="#ffffff" stroke="transparent" points="847.5,-86.4717 847.5,-147.4717 980.5,-147.4717 980.5,-86.4717 847.5,-86.4717"/>
<polygon fill="#f5f5f5" stroke="transparent" points="848,-123.9717 848,-146.9717 981,-146.9717 981,-123.9717 848,-123.9717"/>
<polygon fill="none" stroke="#000000" points="848,-123.9717 848,-146.9717 981,-146.9717 981,-123.9717 848,-123.9717"/>
<text text-anchor="start" x="853" y="-132.5717" font-family="Helvetica,sans-Serif" font-weight="bold" font-size="11.00" fill="#000000">StudentSubjects</text>
<text text-anchor="start" x="946.5219" y="-132.0717" font-family="Helvetica,sans-Serif" font-size="11.00" fill="#000000">[table]</text>
<polygon fill="none" stroke="#000000" points="848,-104.9717 848,-123.9717 981,-123.9717 981,-104.9717 848,-104.9717"/>
<text text-anchor="start" x="851" y="-111.0717" font-family="Helvetica,sans-Serif" font-size="11.00" fill="#000000">...</text>
<polygon fill="#ffffff" stroke="transparent" points="848,-85.9717 848,-104.9717 900,-104.9717 900,-85.9717 848,-85.9717"/>
<polygon fill="none" stroke="#000000" points="848,-85.9717 848,-104.9717 900,-104.9717 900,-85.9717 848,-85.9717"/>
<text text-anchor="start" x="851" y="-92.0717" font-family="Helvetica,sans-Serif" font-size="11.00" fill="#000000">&lt; 4</text>
<polygon fill="#ffffff" stroke="transparent" points="900,-85.9717 900,-104.9717 953,-104.9717 953,-85.9717 900,-85.9717"/>
<polygon fill="none" stroke="#000000" points="900,-85.9717 900,-104.9717 953,-104.9717 953,-85.9717 900,-85.9717"/>
<text text-anchor="start" x="917.6105" y="-92.0717" font-family="Helvetica,sans-Serif" font-size="11.00" fill="#000000">0 rows</text>
<polygon fill="#ffffff" stroke="transparent" points="953,-85.9717 953,-104.9717 981,-104.9717 981,-85.9717 953,-85.9717"/>
<polygon fill="none" stroke="#000000" points="953,-85.9717 953,-104.9717 981,-104.9717 981,-85.9717 953,-85.9717"/>
<text text-anchor="start" x="971.8862" y="-92.0717" font-family="Helvetica,sans-Serif" font-size="11.00" fill="#000000"> &#160;</text>
</a>
</g>
</g>
<!-- StudentSubjects&#45;&gt;AspNetUsers -->
<g id="edge45" class="edge">
<title>StudentSubjects:w&#45;&gt;AspNetUsers:e</title>
<path fill="none" stroke="#000000" d="M824.8275,-102.2624C673.8596,-83.2673 377.5249,-61.0271 308,-131.9717 238.6251,-202.7632 364.6177,-575.9717 265.5,-581.9717"/>
<polygon fill="#000000" stroke="#000000" points="831.4776,-103.121 838.9507,-107.716 835.4447,-103.6333 839.4118,-104.1456 839.4118,-104.1456 839.4118,-104.1456 835.4447,-103.6333 839.8728,-100.5752 831.4776,-103.121 831.4776,-103.121"/>
<ellipse fill="none" stroke="#000000" cx="828.304" cy="-102.7112" rx="3.2" ry="3.2"/>
</g>
<!-- StudentSubjects&#45;&gt;AspNetUsers -->
<g id="edge48" class="edge">
<title>StudentSubjects:w&#45;&gt;AspNetUsers:e</title>
<path fill="none" stroke="#000000" d="M824.8275,-110.0546C673.8596,-96.2673 377.5249,-74.0271 308,-144.9717 238.6251,-215.7632 364.6177,-588.9717 265.5,-581.9717"/>
<polygon fill="#000000" stroke="#000000" points="831.4456,-110.6651 839.081,-114.9849 835.4287,-111.0326 839.4118,-111.4001 839.4118,-111.4001 839.4118,-111.4001 835.4287,-111.0326 839.7425,-107.8153 831.4456,-110.6651 831.4456,-110.6651"/>
<ellipse fill="none" stroke="#000000" cx="828.2591" cy="-110.3712" rx="3.2" ry="3.2"/>
</g>
<!-- StudentSubjects&#45;&gt;Subjects -->
<g id="edge47" class="edge">
<title>StudentSubjects:w&#45;&gt;Subjects:e</title>
<path fill="none" stroke="#000000" d="M831.4878,-158.5584C815.7898,-167.1806 799.6874,-176.5283 785,-185.9717 744.6003,-211.9471 701.3792,-245.4088 670.7004,-270.2303"/>
<polygon fill="#000000" stroke="#000000" points="837.5023,-155.3057 846.2517,-154.6667 841.0207,-153.4029 844.5391,-151.5001 844.5391,-151.5001 844.5391,-151.5001 841.0207,-153.4029 842.8266,-148.3335 837.5023,-155.3057 837.5023,-155.3057"/>
<ellipse fill="none" stroke="#000000" cx="834.6875" cy="-156.828" rx="3.2" ry="3.2"/>
</g>
<!-- StudentSubjects&#45;&gt;Students -->
<g id="edge46" class="edge">
<title>StudentSubjects:w&#45;&gt;Students:e</title>
<path fill="none" stroke="#000000" d="M824.9729,-129.1544C778.1996,-135.5549 722.4361,-143.1857 682.3744,-148.6678"/>
<polygon fill="#000000" stroke="#000000" points="831.5657,-128.2522 839.98,-130.7343 835.5288,-127.7099 839.4919,-127.1676 839.4919,-127.1676 839.4919,-127.1676 835.5288,-127.7099 839.0038,-123.6008 831.5657,-128.2522 831.5657,-128.2522"/>
<ellipse fill="none" stroke="#000000" cx="828.3953" cy="-128.6861" rx="3.2" ry="3.2"/>
</g>
</g>
</svg>
