<?xml version="1.0" encoding="UTF-8" standalone="no"?>
<!DOCTYPE svg PUBLIC "-//W3C//DTD SVG 1.1//EN"
 "http://www.w3.org/Graphics/SVG/1.1/DTD/svg11.dtd">
<!-- Generated by graphviz version 2.40.1 (20161225.0304)
 -->
<!-- Title: twoDegreesRelationshipsDiagram Pages: 1 -->
<svg width="1482pt" height="1232pt"
 viewBox="0.00 0.00 1482.00 1231.87" xmlns="http://www.w3.org/2000/svg" xmlns:xlink="http://www.w3.org/1999/xlink">
<g id="graph0" class="graph" transform="scale(1 1) rotate(0) translate(4 1227.8669)">
<title>twoDegreesRelationshipsDiagram</title>
<polygon fill="#ffffff" stroke="transparent" points="-4,4 -4,-1227.8669 1478,-1227.8669 1478,4 -4,4"/>
<text text-anchor="middle" x="72.4936" y="-7.3" font-family="Helvetica,sans-Serif" font-size="11.00" fill="#000000">Generated by SchemaSpy</text>
<!-- AspNetRoleClaims -->
<g id="node1" class="node">
<title>AspNetRoleClaims</title>
<g id="a_node1"><a xlink:href="../../tables/AspNetRoleClaims.html" xlink:title="AspNetRoleClaims" target="_top">
<polygon fill="#ffffff" stroke="transparent" points="255,-1158.8669 255,-1219.8669 401,-1219.8669 401,-1158.8669 255,-1158.8669"/>
<polygon fill="#f5f5f5" stroke="transparent" points="255,-1196.3669 255,-1219.3669 401,-1219.3669 401,-1196.3669 255,-1196.3669"/>
<polygon fill="none" stroke="#000000" points="255,-1196.3669 255,-1219.3669 401,-1219.3669 401,-1196.3669 255,-1196.3669"/>
<text text-anchor="start" x="260" y="-1204.9669" font-family="Helvetica,sans-Serif" font-weight="bold" font-size="11.00" fill="#000000">AspNetRoleClaims</text>
<text text-anchor="start" x="366.5219" y="-1204.4669" font-family="Helvetica,sans-Serif" font-size="11.00" fill="#000000">[table]</text>
<polygon fill="none" stroke="#000000" points="255,-1177.3669 255,-1196.3669 401,-1196.3669 401,-1177.3669 255,-1177.3669"/>
<text text-anchor="start" x="258" y="-1183.4669" font-family="Helvetica,sans-Serif" font-size="11.00" fill="#000000">...</text>
<polygon fill="#ffffff" stroke="transparent" points="255,-1158.3669 255,-1177.3669 313,-1177.3669 313,-1158.3669 255,-1158.3669"/>
<polygon fill="none" stroke="#000000" points="255,-1158.3669 255,-1177.3669 313,-1177.3669 313,-1158.3669 255,-1158.3669"/>
<text text-anchor="start" x="258" y="-1164.4669" font-family="Helvetica,sans-Serif" font-size="11.00" fill="#000000">&lt; 1</text>
<polygon fill="#ffffff" stroke="transparent" points="313,-1158.3669 313,-1177.3669 370,-1177.3669 370,-1158.3669 313,-1158.3669"/>
<polygon fill="none" stroke="#000000" points="313,-1158.3669 313,-1177.3669 370,-1177.3669 370,-1158.3669 313,-1158.3669"/>
<text text-anchor="start" x="334.6105" y="-1164.4669" font-family="Helvetica,sans-Serif" font-size="11.00" fill="#000000">0 rows</text>
<polygon fill="#ffffff" stroke="transparent" points="370,-1158.3669 370,-1177.3669 401,-1177.3669 401,-1158.3669 370,-1158.3669"/>
<polygon fill="none" stroke="#000000" points="370,-1158.3669 370,-1177.3669 401,-1177.3669 401,-1158.3669 370,-1158.3669"/>
<text text-anchor="start" x="391.8862" y="-1164.4669" font-family="Helvetica,sans-Serif" font-size="11.00" fill="#000000"> &#160;</text>
</a>
</g>
</g>
<!-- AspNetRoles -->
<g id="node2" class="node">
<title>AspNetRoles</title>
<g id="a_node2"><a xlink:href="../../tables/AspNetRoles.html" xlink:title="AspNetRoles" target="_top">
<polygon fill="#ffffff" stroke="transparent" points="24,-1061.8669 24,-1166.8669 155,-1166.8669 155,-1061.8669 24,-1061.8669"/>
<polygon fill="#f5f5f5" stroke="transparent" points="24.5,-1143.3669 24.5,-1166.3669 155.5,-1166.3669 155.5,-1143.3669 24.5,-1143.3669"/>
<polygon fill="none" stroke="#000000" points="24.5,-1143.3669 24.5,-1166.3669 155.5,-1166.3669 155.5,-1143.3669 24.5,-1143.3669"/>
<text text-anchor="start" x="29.5" y="-1151.9669" font-family="Helvetica,sans-Serif" font-weight="bold" font-size="11.00" fill="#000000">AspNetRoles</text>
<text text-anchor="start" x="120.5437" y="-1151.4669" font-family="Helvetica,sans-Serif" font-size="11.00" fill="#000000">[table]</text>
<polygon fill="none" stroke="#000000" points="24.5,-1121.3669 24.5,-1143.3669 155.5,-1143.3669 155.5,-1121.3669 24.5,-1121.3669"/>
<image xlink:href="../../images/primaryKeys.png" width="11px" height="12px" preserveAspectRatio="xMinYMin meet" x="29.5" y="-1138.37"/>
<text text-anchor="start" x="44.5" y="-1128.4669" font-family="Helvetica,sans-Serif" font-size="11.00" fill="#000000">Id</text>
<polygon fill="#ffffff" stroke="transparent" points="24.5,-1099.3669 24.5,-1121.3669 155.5,-1121.3669 155.5,-1099.3669 24.5,-1099.3669"/>
<polygon fill="none" stroke="#000000" points="24.5,-1099.3669 24.5,-1121.3669 155.5,-1121.3669 155.5,-1099.3669 24.5,-1099.3669"/>
<text text-anchor="start" x="44.5" y="-1106.4669" font-family="Helvetica,sans-Serif" font-size="11.00" fill="#000000">NormalizedName</text>
<polygon fill="none" stroke="#000000" points="24.5,-1080.3669 24.5,-1099.3669 155.5,-1099.3669 155.5,-1080.3669 24.5,-1080.3669"/>
<text text-anchor="start" x="27.5" y="-1086.4669" font-family="Helvetica,sans-Serif" font-size="11.00" fill="#000000">...</text>
<polygon fill="#ffffff" stroke="transparent" points="24.5,-1061.3669 24.5,-1080.3669 66.5,-1080.3669 66.5,-1061.3669 24.5,-1061.3669"/>
<polygon fill="none" stroke="#000000" points="24.5,-1061.3669 24.5,-1080.3669 66.5,-1080.3669 66.5,-1061.3669 24.5,-1061.3669"/>
<text text-anchor="start" x="27.5" y="-1067.4669" font-family="Helvetica,sans-Serif" font-size="11.00" fill="#000000"> &#160;</text>
<polygon fill="#ffffff" stroke="transparent" points="66.5,-1061.3669 66.5,-1080.3669 119.5,-1080.3669 119.5,-1061.3669 66.5,-1061.3669"/>
<polygon fill="none" stroke="#000000" points="66.5,-1061.3669 66.5,-1080.3669 119.5,-1080.3669 119.5,-1061.3669 66.5,-1061.3669"/>
<text text-anchor="start" x="84.1105" y="-1067.4669" font-family="Helvetica,sans-Serif" font-size="11.00" fill="#000000">4 rows</text>
<polygon fill="#ffffff" stroke="transparent" points="119.5,-1061.3669 119.5,-1080.3669 155.5,-1080.3669 155.5,-1061.3669 119.5,-1061.3669"/>
<polygon fill="none" stroke="#000000" points="119.5,-1061.3669 119.5,-1080.3669 155.5,-1080.3669 155.5,-1061.3669 119.5,-1061.3669"/>
<text text-anchor="start" x="136.9053" y="-1067.4669" font-family="Helvetica,sans-Serif" font-size="11.00" fill="#000000">2 &gt;</text>
</a>
</g>
</g>
<!-- AspNetRoleClaims&#45;&gt;AspNetRoles -->
<g id="edge1" class="edge">
<title>AspNetRoleClaims:w&#45;&gt;AspNetRoles:e</title>
<path fill="none" stroke="#000000" d="M240.6761,-1184.6915C204.3511,-1175.5769 200.5084,-1132.3669 155.5,-1132.3669"/>
<polygon fill="#000000" stroke="#000000" points="247.0542,-1185.4375 254.5818,-1189.9425 251.0271,-1185.9022 255,-1186.3669 255,-1186.3669 255,-1186.3669 251.0271,-1185.9022 255.4182,-1182.7912 247.0542,-1185.4375 247.0542,-1185.4375"/>
<ellipse fill="none" stroke="#000000" cx="243.8758" cy="-1185.0657" rx="3.2" ry="3.2"/>
</g>
<!-- AspNetUserClaims -->
<g id="node3" class="node">
<title>AspNetUserClaims</title>
<g id="a_node3"><a xlink:href="../../tables/AspNetUserClaims.html" xlink:title="AspNetUserClaims" target="_top">
<polygon fill="#ffffff" stroke="transparent" points="254.5,-759.8669 254.5,-820.8669 401.5,-820.8669 401.5,-759.8669 254.5,-759.8669"/>
<polygon fill="#f5f5f5" stroke="transparent" points="255,-797.3669 255,-820.3669 402,-820.3669 402,-797.3669 255,-797.3669"/>
<polygon fill="none" stroke="#000000" points="255,-797.3669 255,-820.3669 402,-820.3669 402,-797.3669 255,-797.3669"/>
<text text-anchor="start" x="260" y="-805.9669" font-family="Helvetica,sans-Serif" font-weight="bold" font-size="11.00" fill="#000000">AspNetUserClaims</text>
<text text-anchor="start" x="367.5219" y="-805.4669" font-family="Helvetica,sans-Serif" font-size="11.00" fill="#000000">[table]</text>
<polygon fill="none" stroke="#000000" points="255,-778.3669 255,-797.3669 402,-797.3669 402,-778.3669 255,-778.3669"/>
<text text-anchor="start" x="258" y="-784.4669" font-family="Helvetica,sans-Serif" font-size="11.00" fill="#000000">...</text>
<polygon fill="#ffffff" stroke="transparent" points="255,-759.3669 255,-778.3669 314,-778.3669 314,-759.3669 255,-759.3669"/>
<polygon fill="none" stroke="#000000" points="255,-759.3669 255,-778.3669 314,-778.3669 314,-759.3669 255,-759.3669"/>
<text text-anchor="start" x="258" y="-765.4669" font-family="Helvetica,sans-Serif" font-size="11.00" fill="#000000">&lt; 1</text>
<polygon fill="#ffffff" stroke="transparent" points="314,-759.3669 314,-778.3669 371,-778.3669 371,-759.3669 314,-759.3669"/>
<polygon fill="none" stroke="#000000" points="314,-759.3669 314,-778.3669 371,-778.3669 371,-759.3669 314,-759.3669"/>
<text text-anchor="start" x="335.6105" y="-765.4669" font-family="Helvetica,sans-Serif" font-size="11.00" fill="#000000">0 rows</text>
<polygon fill="#ffffff" stroke="transparent" points="371,-759.3669 371,-778.3669 402,-778.3669 402,-759.3669 371,-759.3669"/>
<polygon fill="none" stroke="#000000" points="371,-759.3669 371,-778.3669 402,-778.3669 402,-759.3669 371,-759.3669"/>
<text text-anchor="start" x="392.8862" y="-765.4669" font-family="Helvetica,sans-Serif" font-size="11.00" fill="#000000"> &#160;</text>
</a>
</g>
</g>
<!-- AspNetUsers -->
<g id="node4" class="node">
<title>AspNetUsers</title>
<g id="a_node4"><a xlink:href="../../tables/AspNetUsers.html" xlink:title="AspNetUsers" target="_top">
<polygon fill="#ffffff" stroke="transparent" points="8,-433.8669 8,-560.8669 171,-560.8669 171,-433.8669 8,-433.8669"/>
<polygon fill="#f5f5f5" stroke="transparent" points="8.5,-537.3669 8.5,-560.3669 171.5,-560.3669 171.5,-537.3669 8.5,-537.3669"/>
<polygon fill="none" stroke="#000000" points="8.5,-537.3669 8.5,-560.3669 171.5,-560.3669 171.5,-537.3669 8.5,-537.3669"/>
<text text-anchor="start" x="13.5" y="-545.9669" font-family="Helvetica,sans-Serif" font-weight="bold" font-size="11.00" fill="#000000">AspNetUsers</text>
<text text-anchor="start" x="136.5437" y="-545.4669" font-family="Helvetica,sans-Serif" font-size="11.00" fill="#000000">[table]</text>
<polygon fill="none" stroke="#000000" points="8.5,-515.3669 8.5,-537.3669 171.5,-537.3669 171.5,-515.3669 8.5,-515.3669"/>
<image xlink:href="../../images/primaryKeys.png" width="11px" height="12px" preserveAspectRatio="xMinYMin meet" x="13.5" y="-532.367"/>
<text text-anchor="start" x="28.5" y="-522.4669" font-family="Helvetica,sans-Serif" font-size="11.00" fill="#000000">Id</text>
<polygon fill="#ffffff" stroke="transparent" points="8.5,-493.3669 8.5,-515.3669 171.5,-515.3669 171.5,-493.3669 8.5,-493.3669"/>
<polygon fill="none" stroke="#000000" points="8.5,-493.3669 8.5,-515.3669 171.5,-515.3669 171.5,-493.3669 8.5,-493.3669"/>
<text text-anchor="start" x="28.5" y="-500.4669" font-family="Helvetica,sans-Serif" font-size="11.00" fill="#000000">NormalizedUserName</text>
<polygon fill="#ffffff" stroke="transparent" points="8.5,-471.3669 8.5,-493.3669 171.5,-493.3669 171.5,-471.3669 8.5,-471.3669"/>
<polygon fill="none" stroke="#000000" points="8.5,-471.3669 8.5,-493.3669 171.5,-493.3669 171.5,-471.3669 8.5,-471.3669"/>
<text text-anchor="start" x="28.5" y="-478.4669" font-family="Helvetica,sans-Serif" font-size="11.00" fill="#000000">NormalizedEmail</text>
<polygon fill="none" stroke="#000000" points="8.5,-452.3669 8.5,-471.3669 171.5,-471.3669 171.5,-452.3669 8.5,-452.3669"/>
<text text-anchor="start" x="11.5" y="-458.4669" font-family="Helvetica,sans-Serif" font-size="11.00" fill="#000000">...</text>
<polygon fill="#ffffff" stroke="transparent" points="8.5,-433.3669 8.5,-452.3669 66.5,-452.3669 66.5,-433.3669 8.5,-433.3669"/>
<polygon fill="none" stroke="#000000" points="8.5,-433.3669 8.5,-452.3669 66.5,-452.3669 66.5,-433.3669 8.5,-433.3669"/>
<text text-anchor="start" x="11.5" y="-439.4669" font-family="Helvetica,sans-Serif" font-size="11.00" fill="#000000"> &#160;</text>
<polygon fill="#ffffff" stroke="transparent" points="66.5,-433.3669 66.5,-452.3669 121.5,-452.3669 121.5,-433.3669 66.5,-433.3669"/>
<polygon fill="none" stroke="#000000" points="66.5,-433.3669 66.5,-452.3669 121.5,-452.3669 121.5,-433.3669 66.5,-433.3669"/>
<text text-anchor="start" x="91.6105" y="-439.4669" font-family="Helvetica,sans-Serif" font-size="11.00" fill="#000000">1 row</text>
<polygon fill="#ffffff" stroke="transparent" points="121.5,-433.3669 121.5,-452.3669 171.5,-452.3669 171.5,-433.3669 121.5,-433.3669"/>
<polygon fill="none" stroke="#000000" points="121.5,-433.3669 121.5,-452.3669 171.5,-452.3669 171.5,-433.3669 121.5,-433.3669"/>
<text text-anchor="start" x="146.7904" y="-439.4669" font-family="Helvetica,sans-Serif" font-size="11.00" fill="#000000">29 &gt;</text>
</a>
</g>
</g>
<!-- AspNetUserClaims&#45;&gt;AspNetUsers -->
<g id="edge2" class="edge">
<title>AspNetUserClaims:w&#45;&gt;AspNetUsers:e</title>
<path fill="none" stroke="#000000" d="M240.5004,-785.0451C226.8556,-779.8849 221.6874,-766.5502 212,-749.3669 187.2652,-705.4927 221.8662,-526.3669 171.5,-526.3669"/>
<polygon fill="#000000" stroke="#000000" points="247.1006,-786.1019 254.4308,-790.9216 251.0503,-786.7344 255,-787.3669 255,-787.3669 255,-787.3669 251.0503,-786.7344 255.5692,-783.8121 247.1006,-786.1019 247.1006,-786.1019"/>
<ellipse fill="none" stroke="#000000" cx="243.9409" cy="-785.596" rx="3.2" ry="3.2"/>
</g>
<!-- AspNetUserLogins -->
<g id="node5" class="node">
<title>AspNetUserLogins</title>
<g id="a_node5"><a xlink:href="../../tables/AspNetUserLogins.html" xlink:title="AspNetUserLogins" target="_top">
<polygon fill="#ffffff" stroke="transparent" points="254.5,-677.8669 254.5,-738.8669 401.5,-738.8669 401.5,-677.8669 254.5,-677.8669"/>
<polygon fill="#f5f5f5" stroke="transparent" points="255,-715.3669 255,-738.3669 402,-738.3669 402,-715.3669 255,-715.3669"/>
<polygon fill="none" stroke="#000000" points="255,-715.3669 255,-738.3669 402,-738.3669 402,-715.3669 255,-715.3669"/>
<text text-anchor="start" x="260" y="-723.9669" font-family="Helvetica,sans-Serif" font-weight="bold" font-size="11.00" fill="#000000">AspNetUserLogins</text>
<text text-anchor="start" x="367.5219" y="-723.4669" font-family="Helvetica,sans-Serif" font-size="11.00" fill="#000000">[table]</text>
<polygon fill="none" stroke="#000000" points="255,-696.3669 255,-715.3669 402,-715.3669 402,-696.3669 255,-696.3669"/>
<text text-anchor="start" x="258" y="-702.4669" font-family="Helvetica,sans-Serif" font-size="11.00" fill="#000000">...</text>
<polygon fill="#ffffff" stroke="transparent" points="255,-677.3669 255,-696.3669 314,-696.3669 314,-677.3669 255,-677.3669"/>
<polygon fill="none" stroke="#000000" points="255,-677.3669 255,-696.3669 314,-696.3669 314,-677.3669 255,-677.3669"/>
<text text-anchor="start" x="258" y="-683.4669" font-family="Helvetica,sans-Serif" font-size="11.00" fill="#000000">&lt; 1</text>
<polygon fill="#ffffff" stroke="transparent" points="314,-677.3669 314,-696.3669 371,-696.3669 371,-677.3669 314,-677.3669"/>
<polygon fill="none" stroke="#000000" points="314,-677.3669 314,-696.3669 371,-696.3669 371,-677.3669 314,-677.3669"/>
<text text-anchor="start" x="335.6105" y="-683.4669" font-family="Helvetica,sans-Serif" font-size="11.00" fill="#000000">0 rows</text>
<polygon fill="#ffffff" stroke="transparent" points="371,-677.3669 371,-696.3669 402,-696.3669 402,-677.3669 371,-677.3669"/>
<polygon fill="none" stroke="#000000" points="371,-677.3669 371,-696.3669 402,-696.3669 402,-677.3669 371,-677.3669"/>
<text text-anchor="start" x="392.8862" y="-683.4669" font-family="Helvetica,sans-Serif" font-size="11.00" fill="#000000"> &#160;</text>
</a>
</g>
</g>
<!-- AspNetUserLogins&#45;&gt;AspNetUsers -->
<g id="edge3" class="edge">
<title>AspNetUserLogins:w&#45;&gt;AspNetUsers:e</title>
<path fill="none" stroke="#000000" d="M240.6309,-702.9672C227.2395,-697.6557 222.5345,-684.0443 212,-667.3669 177.1801,-612.2426 236.7005,-526.3669 171.5,-526.3669"/>
<polygon fill="#000000" stroke="#000000" points="247.1093,-704.0491 254.407,-708.9177 251.0546,-704.708 255,-705.3669 255,-705.3669 255,-705.3669 251.0546,-704.708 255.593,-701.816 247.1093,-704.0491 247.1093,-704.0491"/>
<ellipse fill="none" stroke="#000000" cx="243.953" cy="-703.522" rx="3.2" ry="3.2"/>
</g>
<!-- AspNetUserRoles -->
<g id="node6" class="node">
<title>AspNetUserRoles</title>
<g id="a_node6"><a xlink:href="../../tables/AspNetUserRoles.html" xlink:title="AspNetUserRoles" target="_top">
<polygon fill="#ffffff" stroke="transparent" points="220,-1047.3669 220,-1137.3669 436,-1137.3669 436,-1047.3669 220,-1047.3669"/>
<polygon fill="#f5f5f5" stroke="transparent" points="222,-1112.3669 222,-1135.3669 434,-1135.3669 434,-1112.3669 222,-1112.3669"/>
<polygon fill="none" stroke="#000000" points="222,-1112.3669 222,-1135.3669 434,-1135.3669 434,-1112.3669 222,-1112.3669"/>
<text text-anchor="start" x="227" y="-1120.9669" font-family="Helvetica,sans-Serif" font-weight="bold" font-size="11.00" fill="#000000">AspNetUserRoles</text>
<text text-anchor="start" x="399.0437" y="-1120.4669" font-family="Helvetica,sans-Serif" font-size="11.00" fill="#000000">[table]</text>
<polygon fill="none" stroke="#000000" points="222,-1090.3669 222,-1112.3669 344,-1112.3669 344,-1090.3669 222,-1090.3669"/>
<image xlink:href="../../images/primaryKeys.png" width="11px" height="12px" preserveAspectRatio="xMinYMin meet" x="227" y="-1107.37"/>
<text text-anchor="start" x="242" y="-1097.4669" font-family="Helvetica,sans-Serif" font-size="11.00" fill="#000000">UserId</text>
<polygon fill="none" stroke="#000000" points="344,-1090.3669 344,-1112.3669 434,-1112.3669 434,-1090.3669 344,-1090.3669"/>
<text text-anchor="start" x="346.5043" y="-1098.0669" font-family="Helvetica,sans-Serif" font-size="11.00" fill="#000000">text[2147483647]</text>
<polygon fill="none" stroke="#000000" points="222,-1068.3669 222,-1090.3669 344,-1090.3669 344,-1068.3669 222,-1068.3669"/>
<image xlink:href="../../images/primaryKeys.png" width="11px" height="12px" preserveAspectRatio="xMinYMin meet" x="227" y="-1085.37"/>
<text text-anchor="start" x="242" y="-1075.4669" font-family="Helvetica,sans-Serif" font-size="11.00" fill="#000000">RoleId</text>
<polygon fill="none" stroke="#000000" points="344,-1068.3669 344,-1090.3669 434,-1090.3669 434,-1068.3669 344,-1068.3669"/>
<text text-anchor="start" x="346.5043" y="-1076.0669" font-family="Helvetica,sans-Serif" font-size="11.00" fill="#000000">text[2147483647]</text>
<polygon fill="#ffffff" stroke="transparent" points="222,-1049.3669 222,-1068.3669 277,-1068.3669 277,-1049.3669 222,-1049.3669"/>
<polygon fill="none" stroke="#000000" points="222,-1049.3669 222,-1068.3669 277,-1068.3669 277,-1049.3669 222,-1049.3669"/>
<text text-anchor="start" x="225" y="-1055.4669" font-family="Helvetica,sans-Serif" font-size="11.00" fill="#000000">&lt; 2</text>
<polygon fill="#ffffff" stroke="transparent" points="277,-1049.3669 277,-1068.3669 344,-1068.3669 344,-1049.3669 277,-1049.3669"/>
<polygon fill="none" stroke="#000000" points="277,-1049.3669 277,-1068.3669 344,-1068.3669 344,-1049.3669 277,-1049.3669"/>
<text text-anchor="start" x="314.1105" y="-1055.4669" font-family="Helvetica,sans-Serif" font-size="11.00" fill="#000000">1 row</text>
<polygon fill="#ffffff" stroke="transparent" points="344,-1049.3669 344,-1068.3669 434,-1068.3669 434,-1049.3669 344,-1049.3669"/>
<polygon fill="none" stroke="#000000" points="344,-1049.3669 344,-1068.3669 434,-1068.3669 434,-1049.3669 344,-1049.3669"/>
<text text-anchor="start" x="415.4053" y="-1055.4669" font-family="Helvetica,sans-Serif" font-size="11.00" fill="#000000">0 &gt;</text>
<polygon fill="none" stroke="#000000" stroke-width="2" points="221,-1048.3669 221,-1136.3669 435,-1136.3669 435,-1048.3669 221,-1048.3669"/>
</a>
</g>
</g>
<!-- AspNetUserRoles&#45;&gt;AspNetRoles -->
<g id="edge4" class="edge">
<title>AspNetUserRoles:w&#45;&gt;AspNetRoles:e</title>
<path fill="none" stroke="#000000" d="M207.6596,-1082.6823C185.8869,-1094.2852 187.5364,-1132.3669 155.5,-1132.3669"/>
<polygon fill="#000000" stroke="#000000" points="214.2056,-1081.1689 222.8109,-1082.8743 218.1028,-1080.2679 222,-1079.3669 222,-1079.3669 222,-1079.3669 218.1028,-1080.2679 221.1891,-1075.8594 214.2056,-1081.1689 214.2056,-1081.1689"/>
<ellipse fill="none" stroke="#000000" cx="211.0878" cy="-1081.8897" rx="3.2" ry="3.2"/>
</g>
<!-- AspNetUserRoles&#45;&gt;AspNetUsers -->
<g id="edge5" class="edge">
<title>AspNetUserRoles:w&#45;&gt;AspNetUsers:e</title>
<path fill="none" stroke="#000000" d="M210.2119,-1092.7924C168.3643,-1021.2642 231.0001,-526.3669 171.5,-526.3669"/>
<polygon fill="#000000" stroke="#000000" points="215.5304,-1096.661 219.8824,-1104.2782 218.7652,-1099.0139 222,-1101.3669 222,-1101.3669 222,-1101.3669 218.7652,-1099.0139 224.1176,-1098.4556 215.5304,-1096.661 215.5304,-1096.661"/>
<ellipse fill="none" stroke="#000000" cx="212.9426" cy="-1094.7786" rx="3.2" ry="3.2"/>
</g>
<!-- AspNetUserTokens -->
<g id="node7" class="node">
<title>AspNetUserTokens</title>
<g id="a_node7"><a xlink:href="../../tables/AspNetUserTokens.html" xlink:title="AspNetUserTokens" target="_top">
<polygon fill="#ffffff" stroke="transparent" points="253.5,-595.8669 253.5,-656.8669 402.5,-656.8669 402.5,-595.8669 253.5,-595.8669"/>
<polygon fill="#f5f5f5" stroke="transparent" points="254,-633.3669 254,-656.3669 403,-656.3669 403,-633.3669 254,-633.3669"/>
<polygon fill="none" stroke="#000000" points="254,-633.3669 254,-656.3669 403,-656.3669 403,-633.3669 254,-633.3669"/>
<text text-anchor="start" x="259" y="-641.9669" font-family="Helvetica,sans-Serif" font-weight="bold" font-size="11.00" fill="#000000">AspNetUserTokens</text>
<text text-anchor="start" x="368.5219" y="-641.4669" font-family="Helvetica,sans-Serif" font-size="11.00" fill="#000000">[table]</text>
<polygon fill="none" stroke="#000000" points="254,-614.3669 254,-633.3669 403,-633.3669 403,-614.3669 254,-614.3669"/>
<text text-anchor="start" x="257" y="-620.4669" font-family="Helvetica,sans-Serif" font-size="11.00" fill="#000000">...</text>
<polygon fill="#ffffff" stroke="transparent" points="254,-595.3669 254,-614.3669 314,-614.3669 314,-595.3669 254,-595.3669"/>
<polygon fill="none" stroke="#000000" points="254,-595.3669 254,-614.3669 314,-614.3669 314,-595.3669 254,-595.3669"/>
<text text-anchor="start" x="257" y="-601.4669" font-family="Helvetica,sans-Serif" font-size="11.00" fill="#000000">&lt; 1</text>
<polygon fill="#ffffff" stroke="transparent" points="314,-595.3669 314,-614.3669 371,-614.3669 371,-595.3669 314,-595.3669"/>
<polygon fill="none" stroke="#000000" points="314,-595.3669 314,-614.3669 371,-614.3669 371,-595.3669 314,-595.3669"/>
<text text-anchor="start" x="335.6105" y="-601.4669" font-family="Helvetica,sans-Serif" font-size="11.00" fill="#000000">0 rows</text>
<polygon fill="#ffffff" stroke="transparent" points="371,-595.3669 371,-614.3669 403,-614.3669 403,-595.3669 371,-595.3669"/>
<polygon fill="none" stroke="#000000" points="371,-595.3669 371,-614.3669 403,-614.3669 403,-595.3669 371,-595.3669"/>
<text text-anchor="start" x="393.8862" y="-601.4669" font-family="Helvetica,sans-Serif" font-size="11.00" fill="#000000"> &#160;</text>
</a>
</g>
</g>
<!-- AspNetUserTokens&#45;&gt;AspNetUsers -->
<g id="edge6" class="edge">
<title>AspNetUserTokens:w&#45;&gt;AspNetUsers:e</title>
<path fill="none" stroke="#000000" d="M239.8253,-620.2604C227.3638,-613.5073 225.3098,-596.8501 212,-581.3669 192.2111,-558.3466 201.8567,-526.3669 171.5,-526.3669"/>
<polygon fill="#000000" stroke="#000000" points="246.1855,-621.6542 253.2293,-626.8834 250.0927,-622.5105 254,-623.3669 254,-623.3669 254,-623.3669 250.0927,-622.5105 254.7707,-619.8503 246.1855,-621.6542 246.1855,-621.6542"/>
<ellipse fill="none" stroke="#000000" cx="243.0596" cy="-620.9692" rx="3.2" ry="3.2"/>
</g>
<!-- Competencies -->
<g id="node8" class="node">
<title>Competencies</title>
<g id="a_node8"><a xlink:href="../../tables/Competencies.html" xlink:title="Competencies" target="_top">
<polygon fill="#ffffff" stroke="transparent" points="267.5,-841.8669 267.5,-902.8669 388.5,-902.8669 388.5,-841.8669 267.5,-841.8669"/>
<polygon fill="#f5f5f5" stroke="transparent" points="268,-879.3669 268,-902.3669 389,-902.3669 389,-879.3669 268,-879.3669"/>
<polygon fill="none" stroke="#000000" points="268,-879.3669 268,-902.3669 389,-902.3669 389,-879.3669 268,-879.3669"/>
<text text-anchor="start" x="273" y="-887.9669" font-family="Helvetica,sans-Serif" font-weight="bold" font-size="11.00" fill="#000000">Competencies</text>
<text text-anchor="start" x="354.5219" y="-887.4669" font-family="Helvetica,sans-Serif" font-size="11.00" fill="#000000">[table]</text>
<polygon fill="none" stroke="#000000" points="268,-860.3669 268,-879.3669 389,-879.3669 389,-860.3669 268,-860.3669"/>
<text text-anchor="start" x="271" y="-866.4669" font-family="Helvetica,sans-Serif" font-size="11.00" fill="#000000">...</text>
<polygon fill="#ffffff" stroke="transparent" points="268,-841.3669 268,-860.3669 309,-860.3669 309,-841.3669 268,-841.3669"/>
<polygon fill="none" stroke="#000000" points="268,-841.3669 268,-860.3669 309,-860.3669 309,-841.3669 268,-841.3669"/>
<text text-anchor="start" x="271" y="-847.4669" font-family="Helvetica,sans-Serif" font-size="11.00" fill="#000000">&lt; 2</text>
<polygon fill="#ffffff" stroke="transparent" points="309,-841.3669 309,-860.3669 357,-860.3669 357,-841.3669 309,-841.3669"/>
<polygon fill="none" stroke="#000000" points="309,-841.3669 309,-860.3669 357,-860.3669 357,-841.3669 309,-841.3669"/>
<text text-anchor="start" x="321.6105" y="-847.4669" font-family="Helvetica,sans-Serif" font-size="11.00" fill="#000000">5 rows</text>
<polygon fill="#ffffff" stroke="transparent" points="357,-841.3669 357,-860.3669 389,-860.3669 389,-841.3669 357,-841.3669"/>
<polygon fill="none" stroke="#000000" points="357,-841.3669 357,-860.3669 389,-860.3669 389,-841.3669 357,-841.3669"/>
<text text-anchor="start" x="370.4053" y="-847.4669" font-family="Helvetica,sans-Serif" font-size="11.00" fill="#000000">4 &gt;</text>
</a>
</g>
</g>
<!-- Competencies&#45;&gt;AspNetUsers -->
<g id="edge7" class="edge">
<title>Competencies:w&#45;&gt;AspNetUsers:e</title>
<path fill="none" stroke="#000000" d="M253.8496,-865.5719C234.1898,-858.5968 225.0277,-846.4588 212,-825.3669 176.07,-767.1959 239.8727,-520.3669 171.5,-526.3669"/>
<polygon fill="#000000" stroke="#000000" points="260.2731,-867.2945 267.0674,-872.844 264.1365,-868.3307 268,-869.3669 268,-869.3669 268,-869.3669 264.1365,-868.3307 268.9326,-865.8897 260.2731,-867.2945 260.2731,-867.2945"/>
<ellipse fill="none" stroke="#000000" cx="257.1823" cy="-866.4656" rx="3.2" ry="3.2"/>
</g>
<!-- Competencies&#45;&gt;AspNetUsers -->
<g id="edge8" class="edge">
<title>Competencies:w&#45;&gt;AspNetUsers:e</title>
<path fill="none" stroke="#000000" d="M253.5708,-871.2964C234.1028,-871.4815 224.966,-859.3588 212,-838.3669 176.07,-780.1959 239.8727,-533.3669 171.5,-526.3669"/>
<polygon fill="#000000" stroke="#000000" points="260.0706,-870.4272 268.4772,-872.9351 264.0353,-869.8971 268,-869.3669 268,-869.3669 268,-869.3669 264.0353,-869.8971 267.5228,-865.7986 260.0706,-870.4272 260.0706,-870.4272"/>
<ellipse fill="none" stroke="#000000" cx="256.8988" cy="-870.8514" rx="3.2" ry="3.2"/>
</g>
<!-- CompetencyLevelDescriptions -->
<g id="node9" class="node">
<title>CompetencyLevelDescriptions</title>
<g id="a_node9"><a xlink:href="../../tables/CompetencyLevelDescriptions.html" xlink:title="CompetencyLevelDescriptions" target="_top">
<polygon fill="#ffffff" stroke="transparent" points="485,-541.8669 485,-602.8669 699,-602.8669 699,-541.8669 485,-541.8669"/>
<polygon fill="#f5f5f5" stroke="transparent" points="485,-579.3669 485,-602.3669 699,-602.3669 699,-579.3669 485,-579.3669"/>
<polygon fill="none" stroke="#000000" points="485,-579.3669 485,-602.3669 699,-602.3669 699,-579.3669 485,-579.3669"/>
<text text-anchor="start" x="490" y="-587.9669" font-family="Helvetica,sans-Serif" font-weight="bold" font-size="11.00" fill="#000000">CompetencyLevelDescriptions</text>
<text text-anchor="start" x="664.5219" y="-587.4669" font-family="Helvetica,sans-Serif" font-size="11.00" fill="#000000">[table]</text>
<polygon fill="none" stroke="#000000" points="485,-560.3669 485,-579.3669 699,-579.3669 699,-560.3669 485,-560.3669"/>
<text text-anchor="start" x="488" y="-566.4669" font-family="Helvetica,sans-Serif" font-size="11.00" fill="#000000">...</text>
<polygon fill="#ffffff" stroke="transparent" points="485,-541.3669 485,-560.3669 574,-560.3669 574,-541.3669 485,-541.3669"/>
<polygon fill="none" stroke="#000000" points="485,-541.3669 485,-560.3669 574,-560.3669 574,-541.3669 485,-541.3669"/>
<text text-anchor="start" x="488" y="-547.4669" font-family="Helvetica,sans-Serif" font-size="11.00" fill="#000000">&lt; 3</text>
<polygon fill="#ffffff" stroke="transparent" points="574,-541.3669 574,-560.3669 652,-560.3669 652,-541.3669 574,-541.3669"/>
<polygon fill="none" stroke="#000000" points="574,-541.3669 574,-560.3669 652,-560.3669 652,-541.3669 574,-541.3669"/>
<text text-anchor="start" x="610.4956" y="-547.4669" font-family="Helvetica,sans-Serif" font-size="11.00" fill="#000000">20 rows</text>
<polygon fill="#ffffff" stroke="transparent" points="652,-541.3669 652,-560.3669 699,-560.3669 699,-541.3669 652,-541.3669"/>
<polygon fill="none" stroke="#000000" points="652,-541.3669 652,-560.3669 699,-560.3669 699,-541.3669 652,-541.3669"/>
<text text-anchor="start" x="689.8862" y="-547.4669" font-family="Helvetica,sans-Serif" font-size="11.00" fill="#000000"> &#160;</text>
</a>
</g>
</g>
<!-- CompetencyLevelDescriptions&#45;&gt;AspNetUsers -->
<g id="edge10" class="edge">
<title>CompetencyLevelDescriptions:w&#45;&gt;AspNetUsers:e</title>
<path fill="none" stroke="#000000" d="M470.7261,-565.9717C462.3014,-561.3193 457.5902,-553.1138 444,-549.3669 326.83,-517.0622 293.0417,-526.3669 171.5,-526.3669"/>
<polygon fill="#000000" stroke="#000000" points="477.2171,-567.5156 484.1669,-572.8692 481.1086,-568.4412 485,-569.3669 485,-569.3669 485,-569.3669 481.1086,-568.4412 485.8331,-565.8646 477.2171,-567.5156 477.2171,-567.5156"/>
<ellipse fill="none" stroke="#000000" cx="474.104" cy="-566.7751" rx="3.2" ry="3.2"/>
</g>
<!-- CompetencyLevelDescriptions&#45;&gt;AspNetUsers -->
<g id="edge11" class="edge">
<title>CompetencyLevelDescriptions:w&#45;&gt;AspNetUsers:e</title>
<path fill="none" stroke="#000000" d="M470.6543,-566.5749C462.3066,-562.8898 457.077,-556.5035 444,-553.3669 325.6527,-524.9799 293.2042,-526.3669 171.5,-526.3669"/>
<polygon fill="#000000" stroke="#000000" points="477.1473,-567.8385 484.3122,-572.9006 481.0737,-568.6027 485,-569.3669 485,-569.3669 485,-569.3669 481.0737,-568.6027 485.6878,-565.8332 477.1473,-567.8385 477.1473,-567.8385"/>
<ellipse fill="none" stroke="#000000" cx="474.0063" cy="-567.2272" rx="3.2" ry="3.2"/>
</g>
<!-- CompetencyLevelDescriptions&#45;&gt;Competencies -->
<g id="edge9" class="edge">
<title>CompetencyLevelDescriptions:w&#45;&gt;Competencies:e</title>
<path fill="none" stroke="#000000" d="M471.1231,-574.6508C434.5988,-607.7088 472.4008,-786.1386 444,-831.3669 428.1998,-856.5287 418.7114,-869.3669 389,-869.3669"/>
<polygon fill="#000000" stroke="#000000" points="477.5236,-572.2137 486.2811,-572.7312 481.2618,-570.7903 485,-569.3669 485,-569.3669 485,-569.3669 481.2618,-570.7903 483.7189,-566.0025 477.5236,-572.2137 477.5236,-572.2137"/>
<ellipse fill="none" stroke="#000000" cx="474.5331" cy="-573.3524" rx="3.2" ry="3.2"/>
</g>
<!-- Coordinators -->
<g id="node10" class="node">
<title>Coordinators</title>
<g id="a_node10"><a xlink:href="../../tables/Coordinators.html" xlink:title="Coordinators" target="_top">
<polygon fill="#ffffff" stroke="transparent" points="535,-349.8669 535,-410.8669 649,-410.8669 649,-349.8669 535,-349.8669"/>
<polygon fill="#f5f5f5" stroke="transparent" points="535,-387.3669 535,-410.3669 649,-410.3669 649,-387.3669 535,-387.3669"/>
<polygon fill="none" stroke="#000000" points="535,-387.3669 535,-410.3669 649,-410.3669 649,-387.3669 535,-387.3669"/>
<text text-anchor="start" x="540" y="-395.9669" font-family="Helvetica,sans-Serif" font-weight="bold" font-size="11.00" fill="#000000">Coordinators</text>
<text text-anchor="start" x="614.5219" y="-395.4669" font-family="Helvetica,sans-Serif" font-size="11.00" fill="#000000">[table]</text>
<polygon fill="none" stroke="#000000" points="535,-368.3669 535,-387.3669 649,-387.3669 649,-368.3669 535,-368.3669"/>
<text text-anchor="start" x="538" y="-374.4669" font-family="Helvetica,sans-Serif" font-size="11.00" fill="#000000">...</text>
<polygon fill="#ffffff" stroke="transparent" points="535,-349.3669 535,-368.3669 577,-368.3669 577,-349.3669 535,-349.3669"/>
<polygon fill="none" stroke="#000000" points="535,-349.3669 535,-368.3669 577,-368.3669 577,-349.3669 535,-349.3669"/>
<text text-anchor="start" x="538" y="-355.4669" font-family="Helvetica,sans-Serif" font-size="11.00" fill="#000000">&lt; 2</text>
<polygon fill="#ffffff" stroke="transparent" points="577,-349.3669 577,-368.3669 626,-368.3669 626,-349.3669 577,-349.3669"/>
<polygon fill="none" stroke="#000000" points="577,-349.3669 577,-368.3669 626,-368.3669 626,-349.3669 577,-349.3669"/>
<text text-anchor="start" x="590.6105" y="-355.4669" font-family="Helvetica,sans-Serif" font-size="11.00" fill="#000000">0 rows</text>
<polygon fill="#ffffff" stroke="transparent" points="626,-349.3669 626,-368.3669 649,-368.3669 649,-349.3669 626,-349.3669"/>
<polygon fill="none" stroke="#000000" points="626,-349.3669 626,-368.3669 649,-368.3669 649,-349.3669 626,-349.3669"/>
<text text-anchor="start" x="639.8862" y="-355.4669" font-family="Helvetica,sans-Serif" font-size="11.00" fill="#000000"> &#160;</text>
</a>
</g>
</g>
<!-- Coordinators&#45;&gt;AspNetUsers -->
<g id="edge13" class="edge">
<title>Coordinators:w&#45;&gt;AspNetUsers:e</title>
<path fill="none" stroke="#000000" d="M524.1219,-377.1421C445.2786,-374.1762 266.1493,-343.5209 212,-385.3669 160.4093,-425.2356 236.7005,-526.3669 171.5,-526.3669"/>
<polygon fill="#000000" stroke="#000000" points="534.2828,-373.3512 534.1175,-381.3495 532.5178,-381.3164 532.6832,-373.3181 534.2828,-373.3512"/>
<polyline fill="none" stroke="#000000" points="535,-377.3669 531.0009,-377.2842 "/>
<ellipse fill="none" stroke="#000000" cx="527.8015" cy="-377.2181" rx="3.2" ry="3.2"/>
</g>
<!-- TechnicalCareers -->
<g id="node11" class="node">
<title>TechnicalCareers</title>
<g id="a_node11"><a xlink:href="../../tables/TechnicalCareers.html" xlink:title="TechnicalCareers" target="_top">
<polygon fill="#ffffff" stroke="transparent" points="258.5,-285.8669 258.5,-346.8669 397.5,-346.8669 397.5,-285.8669 258.5,-285.8669"/>
<polygon fill="#f5f5f5" stroke="transparent" points="259,-323.3669 259,-346.3669 398,-346.3669 398,-323.3669 259,-323.3669"/>
<polygon fill="none" stroke="#000000" points="259,-323.3669 259,-346.3669 398,-346.3669 398,-323.3669 259,-323.3669"/>
<text text-anchor="start" x="264" y="-331.9669" font-family="Helvetica,sans-Serif" font-weight="bold" font-size="11.00" fill="#000000">TechnicalCareers</text>
<text text-anchor="start" x="363.5219" y="-331.4669" font-family="Helvetica,sans-Serif" font-size="11.00" fill="#000000">[table]</text>
<polygon fill="none" stroke="#000000" points="259,-304.3669 259,-323.3669 398,-323.3669 398,-304.3669 259,-304.3669"/>
<text text-anchor="start" x="262" y="-310.4669" font-family="Helvetica,sans-Serif" font-size="11.00" fill="#000000">...</text>
<polygon fill="#ffffff" stroke="transparent" points="259,-285.3669 259,-304.3669 309,-304.3669 309,-285.3669 259,-285.3669"/>
<polygon fill="none" stroke="#000000" points="259,-285.3669 259,-304.3669 309,-304.3669 309,-285.3669 259,-285.3669"/>
<text text-anchor="start" x="262" y="-291.4669" font-family="Helvetica,sans-Serif" font-size="11.00" fill="#000000">&lt; 2</text>
<polygon fill="#ffffff" stroke="transparent" points="309,-285.3669 309,-304.3669 362,-304.3669 362,-285.3669 309,-285.3669"/>
<polygon fill="none" stroke="#000000" points="309,-285.3669 309,-304.3669 362,-304.3669 362,-285.3669 309,-285.3669"/>
<text text-anchor="start" x="326.6105" y="-291.4669" font-family="Helvetica,sans-Serif" font-size="11.00" fill="#000000">6 rows</text>
<polygon fill="#ffffff" stroke="transparent" points="362,-285.3669 362,-304.3669 398,-304.3669 398,-285.3669 362,-285.3669"/>
<polygon fill="none" stroke="#000000" points="362,-285.3669 362,-304.3669 398,-304.3669 398,-285.3669 362,-285.3669"/>
<text text-anchor="start" x="379.4053" y="-291.4669" font-family="Helvetica,sans-Serif" font-size="11.00" fill="#000000">6 &gt;</text>
</a>
</g>
</g>
<!-- Coordinators&#45;&gt;TechnicalCareers -->
<g id="edge12" class="edge">
<title>Coordinators:w&#45;&gt;TechnicalCareers:e</title>
<path fill="none" stroke="#000000" d="M520.3703,-376.256C466.9958,-367.7575 459.9548,-313.3669 398,-313.3669"/>
<polygon fill="#000000" stroke="#000000" points="527.023,-376.7611 534.7274,-380.9565 531.0115,-377.064 535,-377.3669 535,-377.3669 535,-377.3669 531.0115,-377.064 535.2726,-373.7772 527.023,-376.7611 527.023,-376.7611"/>
<ellipse fill="none" stroke="#000000" cx="523.8321" cy="-376.5188" rx="3.2" ry="3.2"/>
</g>
<!-- TechnicalCareers&#45;&gt;AspNetUsers -->
<g id="edge50" class="edge">
<title>TechnicalCareers:w&#45;&gt;AspNetUsers:e</title>
<path fill="none" stroke="#000000" d="M244.3305,-312.8685C227.6637,-316.0849 223.6823,-334.3726 212,-355.3669 175.2838,-421.3494 247.0101,-520.3669 171.5,-526.3669"/>
<polygon fill="#000000" stroke="#000000" points="251.0046,-313.0952 258.8777,-316.9648 255.0023,-313.231 259,-313.3669 259,-313.3669 259,-313.3669 255.0023,-313.231 259.1223,-309.7689 251.0046,-313.0952 251.0046,-313.0952"/>
<ellipse fill="none" stroke="#000000" cx="247.8065" cy="-312.9865" rx="3.2" ry="3.2"/>
</g>
<!-- TechnicalCareers&#45;&gt;AspNetUsers -->
<g id="edge51" class="edge">
<title>TechnicalCareers:w&#45;&gt;AspNetUsers:e</title>
<path fill="none" stroke="#000000" d="M245.3159,-318.5223C227.8154,-328.3757 223.9092,-346.9649 212,-368.3669 175.2838,-434.3494 247.0101,-533.3669 171.5,-526.3669"/>
<polygon fill="#000000" stroke="#000000" points="251.5137,-316.1873 260.2692,-316.7357 255.2568,-314.7771 259,-313.3669 259,-313.3669 259,-313.3669 255.2568,-314.7771 257.7308,-309.998 251.5137,-316.1873 251.5137,-316.1873"/>
<ellipse fill="none" stroke="#000000" cx="248.5191" cy="-317.3155" rx="3.2" ry="3.2"/>
</g>
<!-- EvaluationPeriods -->
<g id="node12" class="node">
<title>EvaluationPeriods</title>
<g id="a_node12"><a xlink:href="../../tables/EvaluationPeriods.html" xlink:title="EvaluationPeriods" target="_top">
<polygon fill="#ffffff" stroke="transparent" points="520.5,-459.8669 520.5,-520.8669 663.5,-520.8669 663.5,-459.8669 520.5,-459.8669"/>
<polygon fill="#f5f5f5" stroke="transparent" points="521,-497.3669 521,-520.3669 664,-520.3669 664,-497.3669 521,-497.3669"/>
<polygon fill="none" stroke="#000000" points="521,-497.3669 521,-520.3669 664,-520.3669 664,-497.3669 521,-497.3669"/>
<text text-anchor="start" x="526" y="-505.9669" font-family="Helvetica,sans-Serif" font-weight="bold" font-size="11.00" fill="#000000">EvaluationPeriods</text>
<text text-anchor="start" x="629.5219" y="-505.4669" font-family="Helvetica,sans-Serif" font-size="11.00" fill="#000000">[table]</text>
<polygon fill="none" stroke="#000000" points="521,-478.3669 521,-497.3669 664,-497.3669 664,-478.3669 521,-478.3669"/>
<text text-anchor="start" x="524" y="-484.4669" font-family="Helvetica,sans-Serif" font-size="11.00" fill="#000000">...</text>
<polygon fill="#ffffff" stroke="transparent" points="521,-459.3669 521,-478.3669 573,-478.3669 573,-459.3669 521,-459.3669"/>
<polygon fill="none" stroke="#000000" points="521,-459.3669 521,-478.3669 573,-478.3669 573,-459.3669 521,-459.3669"/>
<text text-anchor="start" x="524" y="-465.4669" font-family="Helvetica,sans-Serif" font-size="11.00" fill="#000000">&lt; 2</text>
<polygon fill="#ffffff" stroke="transparent" points="573,-459.3669 573,-478.3669 627,-478.3669 627,-459.3669 573,-459.3669"/>
<polygon fill="none" stroke="#000000" points="573,-459.3669 573,-478.3669 627,-478.3669 627,-459.3669 573,-459.3669"/>
<text text-anchor="start" x="591.6105" y="-465.4669" font-family="Helvetica,sans-Serif" font-size="11.00" fill="#000000">0 rows</text>
<polygon fill="#ffffff" stroke="transparent" points="627,-459.3669 627,-478.3669 664,-478.3669 664,-459.3669 627,-459.3669"/>
<polygon fill="none" stroke="#000000" points="627,-459.3669 627,-478.3669 664,-478.3669 664,-459.3669 627,-459.3669"/>
<text text-anchor="start" x="645.4053" y="-465.4669" font-family="Helvetica,sans-Serif" font-size="11.00" fill="#000000">3 &gt;</text>
</a>
</g>
</g>
<!-- EvaluationPeriods&#45;&gt;AspNetUsers -->
<g id="edge14" class="edge">
<title>EvaluationPeriods:w&#45;&gt;AspNetUsers:e</title>
<path fill="none" stroke="#000000" d="M506.457,-487.3387C380.4822,-486.8563 341.3835,-480.7175 212,-510.3669 193.1352,-514.6899 190.8538,-526.3669 171.5,-526.3669"/>
<polygon fill="#000000" stroke="#000000" points="513,-487.3513 520.993,-490.9669 517,-487.3591 521,-487.3669 521,-487.3669 521,-487.3669 517,-487.3591 521.007,-483.7669 513,-487.3513 513,-487.3513"/>
<ellipse fill="none" stroke="#000000" cx="509.8" cy="-487.3451" rx="3.2" ry="3.2"/>
</g>
<!-- EvaluationPeriods&#45;&gt;AspNetUsers -->
<g id="edge15" class="edge">
<title>EvaluationPeriods:w&#45;&gt;AspNetUsers:e</title>
<path fill="none" stroke="#000000" d="M506.4471,-487.373C380.4329,-487.4919 342.544,-489.5846 212,-514.3669 193.5559,-517.8683 190.2735,-526.3669 171.5,-526.3669"/>
<polygon fill="#000000" stroke="#000000" points="513,-487.3703 521.0015,-490.9669 517,-487.3686 521,-487.3669 521,-487.3669 521,-487.3669 517,-487.3686 520.9985,-483.7669 513,-487.3703 513,-487.3703"/>
<ellipse fill="none" stroke="#000000" cx="509.8" cy="-487.3717" rx="3.2" ry="3.2"/>
</g>
<!-- FormQuestions -->
<g id="node13" class="node">
<title>FormQuestions</title>
<g id="a_node13"><a xlink:href="../../tables/FormQuestions.html" xlink:title="FormQuestions" target="_top">
<polygon fill="#ffffff" stroke="transparent" points="528.5,-925.8669 528.5,-986.8669 655.5,-986.8669 655.5,-925.8669 528.5,-925.8669"/>
<polygon fill="#f5f5f5" stroke="transparent" points="529,-963.3669 529,-986.3669 656,-986.3669 656,-963.3669 529,-963.3669"/>
<polygon fill="none" stroke="#000000" points="529,-963.3669 529,-986.3669 656,-986.3669 656,-963.3669 529,-963.3669"/>
<text text-anchor="start" x="534" y="-971.9669" font-family="Helvetica,sans-Serif" font-weight="bold" font-size="11.00" fill="#000000">FormQuestions</text>
<text text-anchor="start" x="621.5219" y="-971.4669" font-family="Helvetica,sans-Serif" font-size="11.00" fill="#000000">[table]</text>
<polygon fill="none" stroke="#000000" points="529,-944.3669 529,-963.3669 656,-963.3669 656,-944.3669 529,-944.3669"/>
<text text-anchor="start" x="532" y="-950.4669" font-family="Helvetica,sans-Serif" font-size="11.00" fill="#000000">...</text>
<polygon fill="#ffffff" stroke="transparent" points="529,-925.3669 529,-944.3669 573,-944.3669 573,-925.3669 529,-925.3669"/>
<polygon fill="none" stroke="#000000" points="529,-925.3669 529,-944.3669 573,-944.3669 573,-925.3669 529,-925.3669"/>
<text text-anchor="start" x="532" y="-931.4669" font-family="Helvetica,sans-Serif" font-size="11.00" fill="#000000">&lt; 3</text>
<polygon fill="#ffffff" stroke="transparent" points="573,-925.3669 573,-944.3669 623,-944.3669 623,-925.3669 573,-925.3669"/>
<polygon fill="none" stroke="#000000" points="573,-925.3669 573,-944.3669 623,-944.3669 623,-925.3669 573,-925.3669"/>
<text text-anchor="start" x="587.6105" y="-931.4669" font-family="Helvetica,sans-Serif" font-size="11.00" fill="#000000">0 rows</text>
<polygon fill="#ffffff" stroke="transparent" points="623,-925.3669 623,-944.3669 656,-944.3669 656,-925.3669 623,-925.3669"/>
<polygon fill="none" stroke="#000000" points="623,-925.3669 623,-944.3669 656,-944.3669 656,-925.3669 623,-925.3669"/>
<text text-anchor="start" x="637.4053" y="-931.4669" font-family="Helvetica,sans-Serif" font-size="11.00" fill="#000000">1 &gt;</text>
</a>
</g>
</g>
<!-- FormQuestions&#45;&gt;AspNetUsers -->
<g id="edge17" class="edge">
<title>FormQuestions:w&#45;&gt;AspNetUsers:e</title>
<path fill="none" stroke="#000000" d="M514.389,-953.6938C382.9686,-959.5639 312.0266,-1041.4329 212,-949.3669 142.5205,-885.4169 265.9299,-526.3669 171.5,-526.3669"/>
<polygon fill="#000000" stroke="#000000" points="521.002,-953.5459 529.0805,-956.966 525.001,-953.4564 529,-953.3669 529,-953.3669 529,-953.3669 525.001,-953.4564 528.9195,-949.7678 521.002,-953.5459 521.002,-953.5459"/>
<ellipse fill="none" stroke="#000000" cx="517.8028" cy="-953.6175" rx="3.2" ry="3.2"/>
</g>
<!-- FormQuestions&#45;&gt;AspNetUsers -->
<g id="edge18" class="edge">
<title>FormQuestions:w&#45;&gt;AspNetUsers:e</title>
<path fill="none" stroke="#000000" d="M514.3838,-953.6815C382.901,-959.3303 311.5097,-1038.0389 212,-945.3669 143.5435,-881.6143 265.0451,-526.3669 171.5,-526.3669"/>
<polygon fill="#000000" stroke="#000000" points="521.0019,-953.5391 529.0775,-956.966 525.0009,-953.453 529,-953.3669 529,-953.3669 529,-953.3669 525.0009,-953.453 528.9225,-949.7677 521.0019,-953.5391 521.0019,-953.5391"/>
<ellipse fill="none" stroke="#000000" cx="517.8026" cy="-953.608" rx="3.2" ry="3.2"/>
</g>
<!-- FormQuestions&#45;&gt;Competencies -->
<g id="edge16" class="edge">
<title>FormQuestions:w&#45;&gt;Competencies:e</title>
<path fill="none" stroke="#000000" d="M514.4271,-952.1142C456.7722,-941.6649 456.3191,-869.3669 389,-869.3669"/>
<polygon fill="#000000" stroke="#000000" points="521.0294,-952.6817 528.6917,-956.9536 525.0147,-953.0243 529,-953.3669 529,-953.3669 529,-953.3669 525.0147,-953.0243 529.3083,-949.7801 521.0294,-952.6817 521.0294,-952.6817"/>
<ellipse fill="none" stroke="#000000" cx="517.8411" cy="-952.4076" rx="3.2" ry="3.2"/>
</g>
<!-- ProfessorCompetencyAssignments -->
<g id="node14" class="node">
<title>ProfessorCompetencyAssignments</title>
<g id="a_node14"><a xlink:href="../../tables/ProfessorCompetencyAssignments.html" xlink:title="ProfessorCompetencyAssignments" target="_top">
<polygon fill="#ffffff" stroke="transparent" points="748,-532.8669 748,-593.8669 990,-593.8669 990,-532.8669 748,-532.8669"/>
<polygon fill="#f5f5f5" stroke="transparent" points="748,-570.3669 748,-593.3669 990,-593.3669 990,-570.3669 748,-570.3669"/>
<polygon fill="none" stroke="#000000" points="748,-570.3669 748,-593.3669 990,-593.3669 990,-570.3669 748,-570.3669"/>
<text text-anchor="start" x="753" y="-578.9669" font-family="Helvetica,sans-Serif" font-weight="bold" font-size="11.00" fill="#000000">ProfessorCompetencyAssignments</text>
<text text-anchor="start" x="955.5219" y="-578.4669" font-family="Helvetica,sans-Serif" font-size="11.00" fill="#000000">[table]</text>
<polygon fill="none" stroke="#000000" points="748,-551.3669 748,-570.3669 990,-570.3669 990,-551.3669 748,-551.3669"/>
<text text-anchor="start" x="751" y="-557.4669" font-family="Helvetica,sans-Serif" font-size="11.00" fill="#000000">...</text>
<polygon fill="#ffffff" stroke="transparent" points="748,-532.3669 748,-551.3669 850,-551.3669 850,-532.3669 748,-532.3669"/>
<polygon fill="none" stroke="#000000" points="748,-532.3669 748,-551.3669 850,-551.3669 850,-532.3669 748,-532.3669"/>
<text text-anchor="start" x="751" y="-538.4669" font-family="Helvetica,sans-Serif" font-size="11.00" fill="#000000">&lt; 7</text>
<polygon fill="#ffffff" stroke="transparent" points="850,-532.3669 850,-551.3669 928,-551.3669 928,-532.3669 850,-532.3669"/>
<polygon fill="none" stroke="#000000" points="850,-532.3669 850,-551.3669 928,-551.3669 928,-532.3669 850,-532.3669"/>
<text text-anchor="start" x="892.6105" y="-538.4669" font-family="Helvetica,sans-Serif" font-size="11.00" fill="#000000">0 rows</text>
<polygon fill="#ffffff" stroke="transparent" points="928,-532.3669 928,-551.3669 990,-551.3669 990,-532.3669 928,-532.3669"/>
<polygon fill="none" stroke="#000000" points="928,-532.3669 928,-551.3669 990,-551.3669 990,-532.3669 928,-532.3669"/>
<text text-anchor="start" x="971.4053" y="-538.4669" font-family="Helvetica,sans-Serif" font-size="11.00" fill="#000000">1 &gt;</text>
</a>
</g>
</g>
<!-- ProfessorCompetencyAssignments&#45;&gt;AspNetUsers -->
<g id="edge20" class="edge">
<title>ProfessorCompetencyAssignments:w&#45;&gt;AspNetUsers:e</title>
<path fill="none" stroke="#000000" d="M734.379,-565.0648C722.885,-576.0008 728.0961,-603.0149 707,-613.3669 615.2311,-658.3985 572.9613,-648.5921 477,-613.3669 458.9434,-606.7387 461.4766,-593.4007 444,-585.3669 349.1295,-541.7559 310.8516,-581.9924 212,-548.3669 192.607,-541.7701 191.9843,-526.3669 171.5,-526.3669"/>
<polygon fill="#000000" stroke="#000000" points="740.4372,-562.9753 749.1738,-563.7701 744.2186,-561.6711 748,-560.3669 748,-560.3669 748,-560.3669 744.2186,-561.6711 746.8262,-556.9636 740.4372,-562.9753 740.4372,-562.9753"/>
<ellipse fill="none" stroke="#000000" cx="737.4121" cy="-564.0187" rx="3.2" ry="3.2"/>
</g>
<!-- ProfessorCompetencyAssignments&#45;&gt;AspNetUsers -->
<g id="edge25" class="edge">
<title>ProfessorCompetencyAssignments:w&#45;&gt;AspNetUsers:e</title>
<path fill="none" stroke="#000000" d="M734.1586,-565.3413C723.5563,-575.8428 726.8982,-600.0713 707,-609.3669 614.3852,-652.6322 575.4522,-636.8723 477,-609.3669 460.4825,-604.7522 460.0004,-595.5402 444,-589.3669 346.0077,-551.5592 312.1883,-575.898 212,-544.3669 193.2108,-538.4536 191.1977,-526.3669 171.5,-526.3669"/>
<polygon fill="#000000" stroke="#000000" points="740.4714,-563.0726 749.2176,-563.7547 744.2357,-561.7197 748,-560.3669 748,-560.3669 748,-560.3669 744.2357,-561.7197 746.7824,-556.979 740.4714,-563.0726 740.4714,-563.0726"/>
<ellipse fill="none" stroke="#000000" cx="737.46" cy="-564.1549" rx="3.2" ry="3.2"/>
</g>
<!-- ProfessorCompetencyAssignments&#45;&gt;Competencies -->
<g id="edge19" class="edge">
<title>ProfessorCompetencyAssignments:w&#45;&gt;Competencies:e</title>
<path fill="none" stroke="#000000" d="M733.6547,-563.4516C711.8857,-575.5775 731.07,-620.707 707,-649.3669 596.473,-780.97 560.8593,-869.3669 389,-869.3669"/>
<polygon fill="#000000" stroke="#000000" points="740.1788,-562.0487 748.7568,-563.8864 744.0894,-561.2078 748,-560.3669 748,-560.3669 748,-560.3669 744.0894,-561.2078 747.2432,-556.8473 740.1788,-562.0487 740.1788,-562.0487"/>
<ellipse fill="none" stroke="#000000" cx="737.0503" cy="-562.7215" rx="3.2" ry="3.2"/>
</g>
<!-- ProfessorCompetencyAssignments&#45;&gt;TechnicalCareers -->
<g id="edge24" class="edge">
<title>ProfessorCompetencyAssignments:w&#45;&gt;TechnicalCareers:e</title>
<path fill="none" stroke="#000000" d="M733.6278,-559.0249C662.0253,-543.7873 777.0134,-402.7395 707,-339.3669 681.4556,-316.2453 432.4547,-313.3669 398,-313.3669"/>
<polygon fill="#000000" stroke="#000000" points="740.0346,-559.6231 747.6653,-563.9513 744.0173,-559.995 748,-560.3669 748,-560.3669 748,-560.3669 744.0173,-559.995 748.3347,-556.7825 740.0346,-559.6231 740.0346,-559.6231"/>
<ellipse fill="none" stroke="#000000" cx="736.8485" cy="-559.3256" rx="3.2" ry="3.2"/>
</g>
<!-- ProfessorCompetencyAssignments&#45;&gt;EvaluationPeriods -->
<g id="edge21" class="edge">
<title>ProfessorCompetencyAssignments:w&#45;&gt;EvaluationPeriods:e</title>
<path fill="none" stroke="#000000" d="M733.4823,-557.7688C701.0934,-544.7646 707.8583,-487.3669 664,-487.3669"/>
<polygon fill="#000000" stroke="#000000" points="740.1251,-558.9575 747.3658,-563.9106 744.0626,-559.6622 748,-560.3669 748,-560.3669 748,-560.3669 744.0626,-559.6622 748.6342,-556.8232 740.1251,-558.9575 740.1251,-558.9575"/>
<ellipse fill="none" stroke="#000000" cx="736.9752" cy="-558.3938" rx="3.2" ry="3.2"/>
</g>
<!-- Professors -->
<g id="node15" class="node">
<title>Professors</title>
<g id="a_node15"><a xlink:href="../../tables/Professors.html" xlink:title="Professors" target="_top">
<polygon fill="#ffffff" stroke="transparent" points="277.5,-395.8669 277.5,-456.8669 378.5,-456.8669 378.5,-395.8669 277.5,-395.8669"/>
<polygon fill="#f5f5f5" stroke="transparent" points="278,-433.3669 278,-456.3669 379,-456.3669 379,-433.3669 278,-433.3669"/>
<polygon fill="none" stroke="#000000" points="278,-433.3669 278,-456.3669 379,-456.3669 379,-433.3669 278,-433.3669"/>
<text text-anchor="start" x="283" y="-441.9669" font-family="Helvetica,sans-Serif" font-weight="bold" font-size="11.00" fill="#000000">Professors</text>
<text text-anchor="start" x="344.5219" y="-441.4669" font-family="Helvetica,sans-Serif" font-size="11.00" fill="#000000">[table]</text>
<polygon fill="none" stroke="#000000" points="278,-414.3669 278,-433.3669 379,-433.3669 379,-414.3669 278,-414.3669"/>
<text text-anchor="start" x="281" y="-420.4669" font-family="Helvetica,sans-Serif" font-size="11.00" fill="#000000">...</text>
<polygon fill="#ffffff" stroke="transparent" points="278,-395.3669 278,-414.3669 309,-414.3669 309,-395.3669 278,-395.3669"/>
<polygon fill="none" stroke="#000000" points="278,-395.3669 278,-414.3669 309,-414.3669 309,-395.3669 278,-395.3669"/>
<text text-anchor="start" x="281" y="-401.4669" font-family="Helvetica,sans-Serif" font-size="11.00" fill="#000000">&lt; 1</text>
<polygon fill="#ffffff" stroke="transparent" points="309,-395.3669 309,-414.3669 352,-414.3669 352,-395.3669 309,-395.3669"/>
<polygon fill="none" stroke="#000000" points="309,-395.3669 309,-414.3669 352,-414.3669 352,-395.3669 309,-395.3669"/>
<text text-anchor="start" x="316.6105" y="-401.4669" font-family="Helvetica,sans-Serif" font-size="11.00" fill="#000000">0 rows</text>
<polygon fill="#ffffff" stroke="transparent" points="352,-395.3669 352,-414.3669 379,-414.3669 379,-395.3669 352,-395.3669"/>
<polygon fill="none" stroke="#000000" points="352,-395.3669 352,-414.3669 379,-414.3669 379,-395.3669 352,-395.3669"/>
<text text-anchor="start" x="360.4053" y="-401.4669" font-family="Helvetica,sans-Serif" font-size="11.00" fill="#000000">2 &gt;</text>
</a>
</g>
</g>
<!-- ProfessorCompetencyAssignments&#45;&gt;Professors -->
<g id="edge22" class="edge">
<title>ProfessorCompetencyAssignments:w&#45;&gt;Professors:e</title>
<path fill="none" stroke="#000000" d="M733.5582,-557.3057C706.6419,-542.444 744.0157,-477.3919 707,-449.3669 677.8528,-427.2992 415.5588,-423.3669 379,-423.3669"/>
<polygon fill="#000000" stroke="#000000" points="740.1739,-558.7079 747.2535,-563.8886 744.0869,-559.5374 748,-560.3669 748,-560.3669 748,-560.3669 744.0869,-559.5374 748.7465,-556.8451 740.1739,-558.7079 740.1739,-558.7079"/>
<ellipse fill="none" stroke="#000000" cx="737.0434" cy="-558.0444" rx="3.2" ry="3.2"/>
</g>
<!-- Subjects -->
<g id="node16" class="node">
<title>Subjects</title>
<g id="a_node16"><a xlink:href="../../tables/Subjects.html" xlink:title="Subjects" target="_top">
<polygon fill="#ffffff" stroke="transparent" points="547.5,-239.8669 547.5,-300.8669 636.5,-300.8669 636.5,-239.8669 547.5,-239.8669"/>
<polygon fill="#f5f5f5" stroke="transparent" points="548,-277.3669 548,-300.3669 637,-300.3669 637,-277.3669 548,-277.3669"/>
<polygon fill="none" stroke="#000000" points="548,-277.3669 548,-300.3669 637,-300.3669 637,-277.3669 548,-277.3669"/>
<text text-anchor="start" x="553" y="-285.9669" font-family="Helvetica,sans-Serif" font-weight="bold" font-size="11.00" fill="#000000">Subjects</text>
<text text-anchor="start" x="602.5219" y="-285.4669" font-family="Helvetica,sans-Serif" font-size="11.00" fill="#000000">[table]</text>
<polygon fill="none" stroke="#000000" points="548,-258.3669 548,-277.3669 637,-277.3669 637,-258.3669 548,-258.3669"/>
<text text-anchor="start" x="551" y="-264.4669" font-family="Helvetica,sans-Serif" font-size="11.00" fill="#000000">...</text>
<polygon fill="#ffffff" stroke="transparent" points="548,-239.3669 548,-258.3669 573,-258.3669 573,-239.3669 548,-239.3669"/>
<polygon fill="none" stroke="#000000" points="548,-239.3669 548,-258.3669 573,-258.3669 573,-239.3669 548,-239.3669"/>
<text text-anchor="start" x="551" y="-245.4669" font-family="Helvetica,sans-Serif" font-size="11.00" fill="#000000">&lt; 4</text>
<polygon fill="#ffffff" stroke="transparent" points="573,-239.3669 573,-258.3669 613,-258.3669 613,-239.3669 573,-239.3669"/>
<polygon fill="none" stroke="#000000" points="573,-239.3669 573,-258.3669 613,-258.3669 613,-239.3669 573,-239.3669"/>
<text text-anchor="start" x="577.6105" y="-245.4669" font-family="Helvetica,sans-Serif" font-size="11.00" fill="#000000">0 rows</text>
<polygon fill="#ffffff" stroke="transparent" points="613,-239.3669 613,-258.3669 637,-258.3669 637,-239.3669 613,-239.3669"/>
<polygon fill="none" stroke="#000000" points="613,-239.3669 613,-258.3669 637,-258.3669 637,-239.3669 613,-239.3669"/>
<text text-anchor="start" x="618.4053" y="-245.4669" font-family="Helvetica,sans-Serif" font-size="11.00" fill="#000000">3 &gt;</text>
</a>
</g>
</g>
<!-- ProfessorCompetencyAssignments&#45;&gt;Subjects -->
<g id="edge23" class="edge">
<title>ProfessorCompetencyAssignments:w&#45;&gt;Subjects:e</title>
<path fill="none" stroke="#000000" d="M734.5018,-555.0152C700.6684,-523.0541 733.7858,-357.3625 707,-315.3669 686.7145,-283.5626 674.7228,-267.3669 637,-267.3669"/>
<polygon fill="#000000" stroke="#000000" points="740.5632,-557.4183 746.6732,-563.7134 744.2816,-558.8926 748,-560.3669 748,-560.3669 748,-560.3669 744.2816,-558.8926 749.3268,-557.0203 740.5632,-557.4183 740.5632,-557.4183"/>
<ellipse fill="none" stroke="#000000" cx="737.5884" cy="-556.2389" rx="3.2" ry="3.2"/>
</g>
<!-- Professors&#45;&gt;AspNetUsers -->
<g id="edge26" class="edge">
<title>Professors:w&#45;&gt;AspNetUsers:e</title>
<path fill="none" stroke="#000000" d="M267.5371,-424.0927C240.6427,-428.1329 235.01,-448.4927 212,-471.3669 190.4711,-492.7687 201.8567,-526.3669 171.5,-526.3669"/>
<polygon fill="#000000" stroke="#000000" points="276.9251,-419.4318 277.4788,-427.4126 275.8826,-427.5234 275.3289,-419.5426 276.9251,-419.4318"/>
<polyline fill="none" stroke="#000000" points="278,-423.3669 274.0096,-423.6437 "/>
<ellipse fill="none" stroke="#000000" cx="270.8173" cy="-423.8652" rx="3.2" ry="3.2"/>
</g>
<!-- Subjects&#45;&gt;AspNetUsers -->
<g id="edge46" class="edge">
<title>Subjects:w&#45;&gt;AspNetUsers:e</title>
<path fill="none" stroke="#000000" d="M533.3657,-267.0788C393.6639,-261.5851 320.8282,-180.4333 212,-275.3669 169.4236,-312.5073 227.9992,-526.3669 171.5,-526.3669"/>
<polygon fill="#000000" stroke="#000000" points="540.0015,-267.2093 547.9291,-270.9662 544.0008,-267.2881 548,-267.3669 548,-267.3669 548,-267.3669 544.0008,-267.2881 548.0709,-263.7676 540.0015,-267.2093 540.0015,-267.2093"/>
<ellipse fill="none" stroke="#000000" cx="536.8022" cy="-267.1463" rx="3.2" ry="3.2"/>
</g>
<!-- Subjects&#45;&gt;AspNetUsers -->
<g id="edge49" class="edge">
<title>Subjects:w&#45;&gt;AspNetUsers:e</title>
<path fill="none" stroke="#000000" d="M533.3594,-267.0899C393.5875,-261.8104 320.4217,-183.8919 212,-279.3669 170.2561,-316.1261 227.1218,-526.3669 171.5,-526.3669"/>
<polygon fill="#000000" stroke="#000000" points="540.0014,-267.2155 547.9319,-270.9662 544.0007,-267.2912 548,-267.3669 548,-267.3669 548,-267.3669 544.0007,-267.2912 548.0681,-263.7675 540.0014,-267.2155 540.0014,-267.2155"/>
<ellipse fill="none" stroke="#000000" cx="536.802" cy="-267.155" rx="3.2" ry="3.2"/>
</g>
<!-- Subjects&#45;&gt;TechnicalCareers -->
<g id="edge48" class="edge">
<title>Subjects:w&#45;&gt;TechnicalCareers:e</title>
<path fill="none" stroke="#000000" d="M533.4037,-268.0894C476.3787,-273.9416 462.5557,-313.3669 398,-313.3669"/>
<polygon fill="#000000" stroke="#000000" points="540.0098,-267.7625 548.178,-270.9625 544.0049,-267.5647 548,-267.3669 548,-267.3669 548,-267.3669 544.0049,-267.5647 547.822,-263.7713 540.0098,-267.7625 540.0098,-267.7625"/>
<ellipse fill="none" stroke="#000000" cx="536.8137" cy="-267.9207" rx="3.2" ry="3.2"/>
</g>
<!-- Subjects&#45;&gt;Professors -->
<g id="edge47" class="edge">
<title>Subjects:w&#45;&gt;Professors:e</title>
<path fill="none" stroke="#000000" d="M533.4564,-268.5329C449.0249,-282.8083 476.0285,-423.3669 379,-423.3669"/>
<polygon fill="#000000" stroke="#000000" points="540.0256,-268.0062 548.2877,-270.9554 544.0128,-267.6866 548,-267.3669 548,-267.3669 548,-267.3669 544.0128,-267.6866 547.7123,-263.7784 540.0256,-268.0062 540.0256,-268.0062"/>
<ellipse fill="none" stroke="#000000" cx="536.8358" cy="-268.262" rx="3.2" ry="3.2"/>
</g>
<!-- QuestionResponses -->
<g id="node17" class="node">
<title>QuestionResponses</title>
<g id="a_node17"><a xlink:href="../../tables/QuestionResponses.html" xlink:title="QuestionResponses" target="_top">
<polygon fill="#ffffff" stroke="transparent" points="1311,-972.8669 1311,-1033.8669 1466,-1033.8669 1466,-972.8669 1311,-972.8669"/>
<polygon fill="#f5f5f5" stroke="transparent" points="1311.5,-1010.3669 1311.5,-1033.3669 1466.5,-1033.3669 1466.5,-1010.3669 1311.5,-1010.3669"/>
<polygon fill="none" stroke="#000000" points="1311.5,-1010.3669 1311.5,-1033.3669 1466.5,-1033.3669 1466.5,-1010.3669 1311.5,-1010.3669"/>
<text text-anchor="start" x="1316.5" y="-1018.9669" font-family="Helvetica,sans-Serif" font-weight="bold" font-size="11.00" fill="#000000">QuestionResponses</text>
<text text-anchor="start" x="1432.0219" y="-1018.4669" font-family="Helvetica,sans-Serif" font-size="11.00" fill="#000000">[table]</text>
<polygon fill="none" stroke="#000000" points="1311.5,-991.3669 1311.5,-1010.3669 1466.5,-1010.3669 1466.5,-991.3669 1311.5,-991.3669"/>
<text text-anchor="start" x="1314.5" y="-997.4669" font-family="Helvetica,sans-Serif" font-size="11.00" fill="#000000">...</text>
<polygon fill="#ffffff" stroke="transparent" points="1311.5,-972.3669 1311.5,-991.3669 1374.5,-991.3669 1374.5,-972.3669 1311.5,-972.3669"/>
<polygon fill="none" stroke="#000000" points="1311.5,-972.3669 1311.5,-991.3669 1374.5,-991.3669 1374.5,-972.3669 1311.5,-972.3669"/>
<text text-anchor="start" x="1314.5" y="-978.4669" font-family="Helvetica,sans-Serif" font-size="11.00" fill="#000000">&lt; 4</text>
<polygon fill="#ffffff" stroke="transparent" points="1374.5,-972.3669 1374.5,-991.3669 1433.5,-991.3669 1433.5,-972.3669 1374.5,-972.3669"/>
<polygon fill="none" stroke="#000000" points="1374.5,-972.3669 1374.5,-991.3669 1433.5,-991.3669 1433.5,-972.3669 1374.5,-972.3669"/>
<text text-anchor="start" x="1398.1105" y="-978.4669" font-family="Helvetica,sans-Serif" font-size="11.00" fill="#000000">0 rows</text>
<polygon fill="#ffffff" stroke="transparent" points="1433.5,-972.3669 1433.5,-991.3669 1466.5,-991.3669 1466.5,-972.3669 1433.5,-972.3669"/>
<polygon fill="none" stroke="#000000" points="1433.5,-972.3669 1433.5,-991.3669 1466.5,-991.3669 1466.5,-972.3669 1433.5,-972.3669"/>
<text text-anchor="start" x="1457.3862" y="-978.4669" font-family="Helvetica,sans-Serif" font-size="11.00" fill="#000000"> &#160;</text>
</a>
</g>
</g>
<!-- QuestionResponses&#45;&gt;AspNetUsers -->
<g id="edge27" class="edge">
<title>QuestionResponses:w&#45;&gt;AspNetUsers:e</title>
<path fill="none" stroke="#000000" d="M1297.0674,-1000.398C1112.1622,-1001.203 1060.9107,-1017.3669 869,-1017.3669 869,-1017.3669 869,-1017.3669 592,-1017.3669 507.2182,-1017.3669 271.9244,-1043.342 212,-983.3669 139.9384,-911.2443 273.4536,-526.3669 171.5,-526.3669"/>
<polygon fill="#000000" stroke="#000000" points="1303.5,-1000.3842 1311.5078,-1003.9669 1307.5,-1000.3755 1311.5,-1000.3669 1311.5,-1000.3669 1311.5,-1000.3669 1307.5,-1000.3755 1311.4922,-996.7669 1303.5,-1000.3842 1303.5,-1000.3842"/>
<ellipse fill="none" stroke="#000000" cx="1300.3" cy="-1000.3911" rx="3.2" ry="3.2"/>
</g>
<!-- QuestionResponses&#45;&gt;AspNetUsers -->
<g id="edge30" class="edge">
<title>QuestionResponses:w&#45;&gt;AspNetUsers:e</title>
<path fill="none" stroke="#000000" d="M1297.0976,-1000.5664C1131.9381,-1004.4249 296.4613,-1062.0442 212,-979.3669 139.7753,-908.6677 272.5682,-526.3669 171.5,-526.3669"/>
<polygon fill="#000000" stroke="#000000" points="1303.5008,-1000.4777 1311.5499,-1003.9665 1307.5004,-1000.4223 1311.5,-1000.3669 1311.5,-1000.3669 1311.5,-1000.3669 1307.5004,-1000.4223 1311.4501,-996.7672 1303.5008,-1000.4777 1303.5008,-1000.4777"/>
<ellipse fill="none" stroke="#000000" cx="1300.3011" cy="-1000.5221" rx="3.2" ry="3.2"/>
</g>
<!-- QuestionResponses&#45;&gt;FormQuestions -->
<g id="edge28" class="edge">
<title>QuestionResponses:w&#45;&gt;FormQuestions:e</title>
<path fill="none" stroke="#000000" d="M1296.7163,-1000.3262C1016.916,-998.7741 943.0896,-953.3669 656,-953.3669"/>
<polygon fill="#000000" stroke="#000000" points="1303.5,-1000.3448 1311.4901,-1003.9669 1307.5,-1000.3558 1311.5,-1000.3669 1311.5,-1000.3669 1311.5,-1000.3669 1307.5,-1000.3558 1311.5099,-996.7669 1303.5,-1000.3448 1303.5,-1000.3448"/>
<ellipse fill="none" stroke="#000000" cx="1300.3" cy="-1000.3359" rx="3.2" ry="3.2"/>
</g>
<!-- StudentCompetencyEvaluations -->
<g id="node18" class="node">
<title>StudentCompetencyEvaluations</title>
<g id="a_node18"><a xlink:href="../../tables/StudentCompetencyEvaluations.html" xlink:title="StudentCompetencyEvaluations" target="_top">
<polygon fill="#ffffff" stroke="transparent" points="1039,-678.8669 1039,-739.8669 1262,-739.8669 1262,-678.8669 1039,-678.8669"/>
<polygon fill="#f5f5f5" stroke="transparent" points="1039.5,-716.3669 1039.5,-739.3669 1262.5,-739.3669 1262.5,-716.3669 1039.5,-716.3669"/>
<polygon fill="none" stroke="#000000" points="1039.5,-716.3669 1039.5,-739.3669 1262.5,-739.3669 1262.5,-716.3669 1039.5,-716.3669"/>
<text text-anchor="start" x="1044.5" y="-724.9669" font-family="Helvetica,sans-Serif" font-weight="bold" font-size="11.00" fill="#000000">StudentCompetencyEvaluations</text>
<text text-anchor="start" x="1228.0219" y="-724.4669" font-family="Helvetica,sans-Serif" font-size="11.00" fill="#000000">[table]</text>
<polygon fill="none" stroke="#000000" points="1039.5,-697.3669 1039.5,-716.3669 1262.5,-716.3669 1262.5,-697.3669 1039.5,-697.3669"/>
<text text-anchor="start" x="1042.5" y="-703.4669" font-family="Helvetica,sans-Serif" font-size="11.00" fill="#000000">...</text>
<polygon fill="#ffffff" stroke="transparent" points="1039.5,-678.3669 1039.5,-697.3669 1131.5,-697.3669 1131.5,-678.3669 1039.5,-678.3669"/>
<polygon fill="none" stroke="#000000" points="1039.5,-678.3669 1039.5,-697.3669 1131.5,-697.3669 1131.5,-678.3669 1039.5,-678.3669"/>
<text text-anchor="start" x="1042.5" y="-684.4669" font-family="Helvetica,sans-Serif" font-size="11.00" fill="#000000">&lt; 5</text>
<polygon fill="#ffffff" stroke="transparent" points="1131.5,-678.3669 1131.5,-697.3669 1205.5,-697.3669 1205.5,-678.3669 1131.5,-678.3669"/>
<polygon fill="none" stroke="#000000" points="1131.5,-678.3669 1131.5,-697.3669 1205.5,-697.3669 1205.5,-678.3669 1131.5,-678.3669"/>
<text text-anchor="start" x="1170.1105" y="-684.4669" font-family="Helvetica,sans-Serif" font-size="11.00" fill="#000000">0 rows</text>
<polygon fill="#ffffff" stroke="transparent" points="1205.5,-678.3669 1205.5,-697.3669 1262.5,-697.3669 1262.5,-678.3669 1205.5,-678.3669"/>
<polygon fill="none" stroke="#000000" points="1205.5,-678.3669 1205.5,-697.3669 1262.5,-697.3669 1262.5,-678.3669 1205.5,-678.3669"/>
<text text-anchor="start" x="1243.9053" y="-684.4669" font-family="Helvetica,sans-Serif" font-size="11.00" fill="#000000">1 &gt;</text>
</a>
</g>
</g>
<!-- QuestionResponses&#45;&gt;StudentCompetencyEvaluations -->
<g id="edge29" class="edge">
<title>QuestionResponses:w&#45;&gt;StudentCompetencyEvaluations:e</title>
<path fill="none" stroke="#000000" d="M1298.0569,-994.7564C1257.9522,-954.1109 1323.3012,-706.3669 1262.5,-706.3669"/>
<polygon fill="#000000" stroke="#000000" points="1304.1172,-997.2856 1310.1134,-1003.6891 1307.8086,-998.8262 1311.5,-1000.3669 1311.5,-1000.3669 1311.5,-1000.3669 1307.8086,-998.8262 1312.8866,-997.0446 1304.1172,-997.2856 1304.1172,-997.2856"/>
<ellipse fill="none" stroke="#000000" cx="1301.1641" cy="-996.0531" rx="3.2" ry="3.2"/>
</g>
<!-- StudentCompetencyEvaluations&#45;&gt;AspNetUsers -->
<g id="edge31" class="edge">
<title>StudentCompetencyEvaluations:w&#45;&gt;AspNetUsers:e</title>
<path fill="none" stroke="#000000" d="M1025.0763,-706.9523C825.8845,-722.3944 349.4,-1037.1381 212,-913.3669 147.7535,-855.493 257.9696,-526.3669 171.5,-526.3669"/>
<polygon fill="#000000" stroke="#000000" points="1031.5066,-706.6914 1039.646,-709.9639 1035.5033,-706.5291 1039.5,-706.3669 1039.5,-706.3669 1039.5,-706.3669 1035.5033,-706.5291 1039.354,-702.7698 1031.5066,-706.6914 1031.5066,-706.6914"/>
<ellipse fill="none" stroke="#000000" cx="1028.3092" cy="-706.8212" rx="3.2" ry="3.2"/>
</g>
<!-- StudentCompetencyEvaluations&#45;&gt;AspNetUsers -->
<g id="edge35" class="edge">
<title>StudentCompetencyEvaluations:w&#45;&gt;AspNetUsers:e</title>
<path fill="none" stroke="#000000" d="M1025.091,-706.9449C826.0836,-722.1911 349.3119,-1032.9244 212,-909.3669 148.3794,-852.119 257.0856,-526.3669 171.5,-526.3669"/>
<polygon fill="#000000" stroke="#000000" points="1031.5064,-706.6876 1039.6443,-709.964 1035.5032,-706.5272 1039.5,-706.3669 1039.5,-706.3669 1039.5,-706.3669 1035.5032,-706.5272 1039.3557,-702.7698 1031.5064,-706.6876 1031.5064,-706.6876"/>
<ellipse fill="none" stroke="#000000" cx="1028.309" cy="-706.8159" rx="3.2" ry="3.2"/>
</g>
<!-- StudentCompetencyEvaluations&#45;&gt;ProfessorCompetencyAssignments -->
<g id="edge32" class="edge">
<title>StudentCompetencyEvaluations:w&#45;&gt;ProfessorCompetencyAssignments:e</title>
<path fill="none" stroke="#000000" d="M1025.3541,-703.4505C984.5853,-682.8732 1052.7626,-560.3669 990,-560.3669"/>
<polygon fill="#000000" stroke="#000000" points="1031.6648,-704.7515 1038.7731,-709.8927 1035.5824,-705.5592 1039.5,-706.3669 1039.5,-706.3669 1039.5,-706.3669 1035.5824,-705.5592 1040.2269,-702.841 1031.6648,-704.7515 1031.6648,-704.7515"/>
<ellipse fill="none" stroke="#000000" cx="1028.5307" cy="-704.1053" rx="3.2" ry="3.2"/>
</g>
<!-- StudentCompetencyEvaluations&#45;&gt;Subjects -->
<g id="edge34" class="edge">
<title>StudentCompetencyEvaluations:w&#45;&gt;Subjects:e</title>
<path fill="none" stroke="#000000" d="M1024.9895,-704.9044C966.8327,-691.414 1041.1369,-587.6709 998,-522.3669 889.7317,-358.4619 833.4354,-267.3669 637,-267.3669"/>
<polygon fill="#000000" stroke="#000000" points="1031.5403,-705.5646 1039.139,-709.9487 1035.5202,-705.9657 1039.5,-706.3669 1039.5,-706.3669 1039.5,-706.3669 1035.5202,-705.9657 1039.861,-702.785 1031.5403,-705.5646 1031.5403,-705.5646"/>
<ellipse fill="none" stroke="#000000" cx="1028.3565" cy="-705.2436" rx="3.2" ry="3.2"/>
</g>
<!-- Students -->
<g id="node19" class="node">
<title>Students</title>
<g id="a_node19"><a xlink:href="../../tables/Students.html" xlink:title="Students" target="_top">
<polygon fill="#ffffff" stroke="transparent" points="547,-117.8669 547,-178.8669 637,-178.8669 637,-117.8669 547,-117.8669"/>
<polygon fill="#f5f5f5" stroke="transparent" points="547,-155.3669 547,-178.3669 637,-178.3669 637,-155.3669 547,-155.3669"/>
<polygon fill="none" stroke="#000000" points="547,-155.3669 547,-178.3669 637,-178.3669 637,-155.3669 547,-155.3669"/>
<text text-anchor="start" x="552" y="-163.9669" font-family="Helvetica,sans-Serif" font-weight="bold" font-size="11.00" fill="#000000">Students</text>
<text text-anchor="start" x="602.5219" y="-163.4669" font-family="Helvetica,sans-Serif" font-size="11.00" fill="#000000">[table]</text>
<polygon fill="none" stroke="#000000" points="547,-136.3669 547,-155.3669 637,-155.3669 637,-136.3669 547,-136.3669"/>
<text text-anchor="start" x="550" y="-142.4669" font-family="Helvetica,sans-Serif" font-size="11.00" fill="#000000">...</text>
<polygon fill="#ffffff" stroke="transparent" points="547,-117.3669 547,-136.3669 573,-136.3669 573,-117.3669 547,-117.3669"/>
<polygon fill="none" stroke="#000000" points="547,-117.3669 547,-136.3669 573,-136.3669 573,-117.3669 547,-117.3669"/>
<text text-anchor="start" x="550" y="-123.4669" font-family="Helvetica,sans-Serif" font-size="11.00" fill="#000000">&lt; 2</text>
<polygon fill="#ffffff" stroke="transparent" points="573,-117.3669 573,-136.3669 613,-136.3669 613,-117.3669 573,-117.3669"/>
<polygon fill="none" stroke="#000000" points="573,-117.3669 573,-136.3669 613,-136.3669 613,-117.3669 573,-117.3669"/>
<text text-anchor="start" x="577.6105" y="-123.4669" font-family="Helvetica,sans-Serif" font-size="11.00" fill="#000000">0 rows</text>
<polygon fill="#ffffff" stroke="transparent" points="613,-117.3669 613,-136.3669 637,-136.3669 637,-117.3669 613,-117.3669"/>
<polygon fill="none" stroke="#000000" points="613,-117.3669 613,-136.3669 637,-136.3669 637,-117.3669 613,-117.3669"/>
<text text-anchor="start" x="618.4053" y="-123.4669" font-family="Helvetica,sans-Serif" font-size="11.00" fill="#000000">3 &gt;</text>
</a>
</g>
</g>
<!-- StudentCompetencyEvaluations&#45;&gt;Students -->
<g id="edge33" class="edge">
<title>StudentCompetencyEvaluations:w&#45;&gt;Students:e</title>
<path fill="none" stroke="#000000" d="M1027.6173,-697.7906C988.6876,-632.0946 1036.9732,-210.1256 998,-171.3669 940.9707,-114.6514 717.43,-145.3669 637,-145.3669"/>
<polygon fill="#000000" stroke="#000000" points="1033.0131,-701.685 1037.3931,-709.286 1036.2565,-704.0259 1039.5,-706.3669 1039.5,-706.3669 1039.5,-706.3669 1036.2565,-704.0259 1041.6069,-703.4478 1033.0131,-701.685 1033.0131,-701.685"/>
<ellipse fill="none" stroke="#000000" cx="1030.4183" cy="-699.8122" rx="3.2" ry="3.2"/>
</g>
<!-- Students&#45;&gt;AspNetUsers -->
<g id="edge41" class="edge">
<title>Students:w&#45;&gt;AspNetUsers:e</title>
<path fill="none" stroke="#000000" d="M536.5402,-145.2718C392.8557,-142.6704 314.7515,-88.4044 212,-193.3669 159.8526,-246.6364 246.0453,-526.3669 171.5,-526.3669"/>
<polygon fill="#000000" stroke="#000000" points="546.2364,-141.3598 546.1636,-149.3594 544.5637,-149.3449 544.6365,-141.3452 546.2364,-141.3598"/>
<polyline fill="none" stroke="#000000" points="547,-145.3669 543.0002,-145.3305 "/>
<ellipse fill="none" stroke="#000000" cx="539.8003" cy="-145.3013" rx="3.2" ry="3.2"/>
</g>
<!-- Students&#45;&gt;TechnicalCareers -->
<g id="edge40" class="edge">
<title>Students:w&#45;&gt;TechnicalCareers:e</title>
<path fill="none" stroke="#000000" d="M532.4217,-146.7192C452.1167,-162.6184 492.5393,-313.3669 398,-313.3669"/>
<polygon fill="#000000" stroke="#000000" points="539.0342,-146.1058 547.3325,-148.9515 543.0171,-145.7364 547,-145.3669 547,-145.3669 547,-145.3669 543.0171,-145.7364 546.6675,-141.7823 539.0342,-146.1058 539.0342,-146.1058"/>
<ellipse fill="none" stroke="#000000" cx="535.8479" cy="-146.4014" rx="3.2" ry="3.2"/>
</g>
<!-- StudentEvaluationReport -->
<g id="node20" class="node">
<title>StudentEvaluationReport</title>
<g id="a_node20"><a xlink:href="../../tables/StudentEvaluationReport.html" xlink:title="StudentEvaluationReport" target="_top">
<polygon fill="#ffffff" stroke="transparent" points="777.5,-181.8669 777.5,-242.8669 960.5,-242.8669 960.5,-181.8669 777.5,-181.8669"/>
<polygon fill="#f5f5f5" stroke="transparent" points="778,-219.3669 778,-242.3669 961,-242.3669 961,-219.3669 778,-219.3669"/>
<polygon fill="none" stroke="#000000" points="778,-219.3669 778,-242.3669 961,-242.3669 961,-219.3669 778,-219.3669"/>
<text text-anchor="start" x="783" y="-227.9669" font-family="Helvetica,sans-Serif" font-weight="bold" font-size="11.00" fill="#000000">StudentEvaluationReport</text>
<text text-anchor="start" x="926.5219" y="-227.4669" font-family="Helvetica,sans-Serif" font-size="11.00" fill="#000000">[table]</text>
<polygon fill="none" stroke="#000000" points="778,-200.3669 778,-219.3669 961,-219.3669 961,-200.3669 778,-200.3669"/>
<text text-anchor="start" x="781" y="-206.4669" font-family="Helvetica,sans-Serif" font-size="11.00" fill="#000000">...</text>
<polygon fill="#ffffff" stroke="transparent" points="778,-181.3669 778,-200.3669 855,-200.3669 855,-181.3669 778,-181.3669"/>
<polygon fill="none" stroke="#000000" points="778,-181.3669 778,-200.3669 855,-200.3669 855,-181.3669 778,-181.3669"/>
<text text-anchor="start" x="781" y="-187.4669" font-family="Helvetica,sans-Serif" font-size="11.00" fill="#000000">&lt; 4</text>
<polygon fill="#ffffff" stroke="transparent" points="855,-181.3669 855,-200.3669 921,-200.3669 921,-181.3669 855,-181.3669"/>
<polygon fill="none" stroke="#000000" points="855,-181.3669 855,-200.3669 921,-200.3669 921,-181.3669 855,-181.3669"/>
<text text-anchor="start" x="885.6105" y="-187.4669" font-family="Helvetica,sans-Serif" font-size="11.00" fill="#000000">0 rows</text>
<polygon fill="#ffffff" stroke="transparent" points="921,-181.3669 921,-200.3669 961,-200.3669 961,-181.3669 921,-181.3669"/>
<polygon fill="none" stroke="#000000" points="921,-181.3669 921,-200.3669 961,-200.3669 961,-181.3669 921,-181.3669"/>
<text text-anchor="start" x="951.8862" y="-187.4669" font-family="Helvetica,sans-Serif" font-size="11.00" fill="#000000"> &#160;</text>
</a>
</g>
</g>
<!-- StudentEvaluationReport&#45;&gt;AspNetUsers -->
<g id="edge36" class="edge">
<title>StudentEvaluationReport:w&#45;&gt;AspNetUsers:e</title>
<path fill="none" stroke="#000000" d="M763.3577,-209.1622C663.8388,-207.0211 255.9806,-189.5865 212,-229.3669 162.5992,-274.0498 238.1108,-526.3669 171.5,-526.3669"/>
<polygon fill="#000000" stroke="#000000" points="770.0008,-209.255 777.9497,-212.9665 774.0004,-209.3109 778,-209.3669 778,-209.3669 778,-209.3669 774.0004,-209.3109 778.0503,-205.7672 770.0008,-209.255 770.0008,-209.255"/>
<ellipse fill="none" stroke="#000000" cx="766.8011" cy="-209.2103" rx="3.2" ry="3.2"/>
</g>
<!-- StudentEvaluationReport&#45;&gt;AspNetUsers -->
<g id="edge39" class="edge">
<title>StudentEvaluationReport:w&#45;&gt;AspNetUsers:e</title>
<path fill="none" stroke="#000000" d="M763.5101,-209.1389C627.3669,-205.1707 301.7781,-151.7349 212,-233.3669 163.3678,-277.5864 237.2302,-526.3669 171.5,-526.3669"/>
<polygon fill="#000000" stroke="#000000" points="770.001,-209.2409 777.9433,-212.9664 774.0005,-209.3039 778,-209.3669 778,-209.3669 778,-209.3669 774.0005,-209.3039 778.0567,-205.7673 770.001,-209.2409 770.001,-209.2409"/>
<ellipse fill="none" stroke="#000000" cx="766.8014" cy="-209.1906" rx="3.2" ry="3.2"/>
</g>
<!-- StudentEvaluationReport&#45;&gt;EvaluationPeriods -->
<g id="edge37" class="edge">
<title>StudentEvaluationReport:w&#45;&gt;EvaluationPeriods:e</title>
<path fill="none" stroke="#000000" d="M763.6286,-210.6063C655.9815,-230.6614 792.3242,-487.3669 664,-487.3669"/>
<polygon fill="#000000" stroke="#000000" points="770.0296,-210.0543 778.3094,-212.9536 774.0148,-209.7106 778,-209.3669 778,-209.3669 778,-209.3669 774.0148,-209.7106 777.6906,-205.7802 770.0296,-210.0543 770.0296,-210.0543"/>
<ellipse fill="none" stroke="#000000" cx="766.8414" cy="-210.3293" rx="3.2" ry="3.2"/>
</g>
<!-- StudentEvaluationReport&#45;&gt;Students -->
<g id="edge38" class="edge">
<title>StudentEvaluationReport:w&#45;&gt;Students:e</title>
<path fill="none" stroke="#000000" d="M763.3551,-208.3094C708.2883,-199.9882 700.5779,-145.3669 637,-145.3669"/>
<polygon fill="#000000" stroke="#000000" points="770.0208,-208.7907 777.7407,-212.9575 774.0104,-209.0788 778,-209.3669 778,-209.3669 778,-209.3669 774.0104,-209.0788 778.2593,-205.7762 770.0208,-208.7907 770.0208,-208.7907"/>
<ellipse fill="none" stroke="#000000" cx="766.8291" cy="-208.5602" rx="3.2" ry="3.2"/>
</g>
<!-- StudentSubjects -->
<g id="node21" class="node">
<title>StudentSubjects</title>
<g id="a_node21"><a xlink:href="../../tables/StudentSubjects.html" xlink:title="StudentSubjects" target="_top">
<polygon fill="#ffffff" stroke="transparent" points="802.5,-62.8669 802.5,-123.8669 935.5,-123.8669 935.5,-62.8669 802.5,-62.8669"/>
<polygon fill="#f5f5f5" stroke="transparent" points="803,-100.3669 803,-123.3669 936,-123.3669 936,-100.3669 803,-100.3669"/>
<polygon fill="none" stroke="#000000" points="803,-100.3669 803,-123.3669 936,-123.3669 936,-100.3669 803,-100.3669"/>
<text text-anchor="start" x="808" y="-108.9669" font-family="Helvetica,sans-Serif" font-weight="bold" font-size="11.00" fill="#000000">StudentSubjects</text>
<text text-anchor="start" x="901.5219" y="-108.4669" font-family="Helvetica,sans-Serif" font-size="11.00" fill="#000000">[table]</text>
<polygon fill="none" stroke="#000000" points="803,-81.3669 803,-100.3669 936,-100.3669 936,-81.3669 803,-81.3669"/>
<text text-anchor="start" x="806" y="-87.4669" font-family="Helvetica,sans-Serif" font-size="11.00" fill="#000000">...</text>
<polygon fill="#ffffff" stroke="transparent" points="803,-62.3669 803,-81.3669 855,-81.3669 855,-62.3669 803,-62.3669"/>
<polygon fill="none" stroke="#000000" points="803,-62.3669 803,-81.3669 855,-81.3669 855,-62.3669 803,-62.3669"/>
<text text-anchor="start" x="806" y="-68.4669" font-family="Helvetica,sans-Serif" font-size="11.00" fill="#000000">&lt; 4</text>
<polygon fill="#ffffff" stroke="transparent" points="855,-62.3669 855,-81.3669 908,-81.3669 908,-62.3669 855,-62.3669"/>
<polygon fill="none" stroke="#000000" points="855,-62.3669 855,-81.3669 908,-81.3669 908,-62.3669 855,-62.3669"/>
<text text-anchor="start" x="872.6105" y="-68.4669" font-family="Helvetica,sans-Serif" font-size="11.00" fill="#000000">0 rows</text>
<polygon fill="#ffffff" stroke="transparent" points="908,-62.3669 908,-81.3669 936,-81.3669 936,-62.3669 908,-62.3669"/>
<polygon fill="none" stroke="#000000" points="908,-62.3669 908,-81.3669 936,-81.3669 936,-62.3669 908,-62.3669"/>
<text text-anchor="start" x="926.8862" y="-68.4669" font-family="Helvetica,sans-Serif" font-size="11.00" fill="#000000"> &#160;</text>
</a>
</g>
</g>
<!-- StudentSubjects&#45;&gt;AspNetUsers -->
<g id="edge42" class="edge">
<title>StudentSubjects:w&#45;&gt;AspNetUsers:e</title>
<path fill="none" stroke="#000000" d="M788.4789,-90.2178C534.6689,-85.0134 397.2835,53.5604 212,-126.3669 147.9051,-188.6089 260.8434,-526.3669 171.5,-526.3669"/>
<polygon fill="#000000" stroke="#000000" points="795.0004,-90.2847 802.963,-93.9667 799.0002,-90.3258 803,-90.3669 803,-90.3669 803,-90.3669 799.0002,-90.3258 803.037,-86.7671 795.0004,-90.2847 795.0004,-90.2847"/>
<ellipse fill="none" stroke="#000000" cx="791.8006" cy="-90.2518" rx="3.2" ry="3.2"/>
</g>
<!-- StudentSubjects&#45;&gt;AspNetUsers -->
<g id="edge45" class="edge">
<title>StudentSubjects:w&#45;&gt;AspNetUsers:e</title>
<path fill="none" stroke="#000000" d="M788.4715,-90.2204C534.5151,-85.1096 396.1004,50.9304 212,-130.3669 148.972,-192.4352 259.959,-526.3669 171.5,-526.3669"/>
<polygon fill="#000000" stroke="#000000" points="795.0004,-90.2862 802.9637,-93.9667 799.0002,-90.3265 803,-90.3669 803,-90.3669 803,-90.3669 799.0002,-90.3265 803.0363,-86.767 795.0004,-90.2862 795.0004,-90.2862"/>
<ellipse fill="none" stroke="#000000" cx="791.8006" cy="-90.2539" rx="3.2" ry="3.2"/>
</g>
<!-- StudentSubjects&#45;&gt;Subjects -->
<g id="edge44" class="edge">
<title>StudentSubjects:w&#45;&gt;Subjects:e</title>
<path fill="none" stroke="#000000" d="M788.5654,-91.5439C699.5458,-106.901 739.6891,-267.3669 637,-267.3669"/>
<polygon fill="#000000" stroke="#000000" points="795.0265,-91.0171 803.2926,-93.955 799.0132,-90.692 803,-90.3669 803,-90.3669 803,-90.3669 799.0132,-90.692 802.7074,-86.7788 795.0265,-91.0171 795.0265,-91.0171"/>
<ellipse fill="none" stroke="#000000" cx="791.8371" cy="-91.2772" rx="3.2" ry="3.2"/>
</g>
<!-- StudentSubjects&#45;&gt;Students -->
<g id="edge43" class="edge">
<title>StudentSubjects:w&#45;&gt;Students:e</title>
<path fill="none" stroke="#000000" d="M788.3656,-91.0623C723.5799,-97.429 709.5607,-145.3669 637,-145.3669"/>
<polygon fill="#000000" stroke="#000000" points="795.009,-90.7466 803.1709,-93.9628 799.0045,-90.5568 803,-90.3669 803,-90.3669 803,-90.3669 799.0045,-90.5568 802.8291,-86.7709 795.009,-90.7466 795.009,-90.7466"/>
<ellipse fill="none" stroke="#000000" cx="791.8126" cy="-90.8985" rx="3.2" ry="3.2"/>
</g>
</g>
</svg>
