<?xml version="1.0" encoding="UTF-8" standalone="no"?>
<!DOCTYPE svg PUBLIC "-//W3C//DTD SVG 1.1//EN"
 "http://www.w3.org/Graphics/SVG/1.1/DTD/svg11.dtd">
<!-- Generated by graphviz version 2.40.1 (20161225.0304)
 -->
<!-- Title: twoDegreesRelationshipsDiagram Pages: 1 -->
<svg width="1248pt" height="1293pt"
 viewBox="0.00 0.00 1248.00 1293.08" xmlns="http://www.w3.org/2000/svg" xmlns:xlink="http://www.w3.org/1999/xlink">
<g id="graph0" class="graph" transform="scale(1 1) rotate(0) translate(4 1289.0782)">
<title>twoDegreesRelationshipsDiagram</title>
<polygon fill="#ffffff" stroke="transparent" points="-4,4 -4,-1289.0782 1244,-1289.0782 1244,4 -4,4"/>
<text text-anchor="middle" x="72.4936" y="-7.3" font-family="Helvetica,sans-Serif" font-size="11.00" fill="#000000">Generated by SchemaSpy</text>
<!-- AspNetUserClaims -->
<g id="node1" class="node">
<title>AspNetUserClaims</title>
<g id="a_node1"><a xlink:href="../../tables/AspNetUserClaims.html" xlink:title="AspNetUserClaims" target="_top">
<polygon fill="#ffffff" stroke="transparent" points="317,-990.5782 317,-1095.5782 464,-1095.5782 464,-990.5782 317,-990.5782"/>
<polygon fill="#f5f5f5" stroke="transparent" points="317.5,-1072.0782 317.5,-1095.0782 464.5,-1095.0782 464.5,-1072.0782 317.5,-1072.0782"/>
<polygon fill="none" stroke="#000000" points="317.5,-1072.0782 317.5,-1095.0782 464.5,-1095.0782 464.5,-1072.0782 317.5,-1072.0782"/>
<text text-anchor="start" x="322.5" y="-1080.6782" font-family="Helvetica,sans-Serif" font-weight="bold" font-size="11.00" fill="#000000">AspNetUserClaims</text>
<text text-anchor="start" x="430.0219" y="-1080.1782" font-family="Helvetica,sans-Serif" font-size="11.00" fill="#000000">[table]</text>
<polygon fill="none" stroke="#000000" points="317.5,-1050.0782 317.5,-1072.0782 464.5,-1072.0782 464.5,-1050.0782 317.5,-1050.0782"/>
<image xlink:href="../../images/primaryKeys.png" width="11px" height="12px" preserveAspectRatio="xMinYMin meet" x="322.5" y="-1067.08"/>
<text text-anchor="start" x="346.5" y="-1057.1782" font-family="Helvetica,sans-Serif" font-size="11.00" fill="#000000">Id</text>
<polygon fill="#ffffff" stroke="transparent" points="317.5,-1028.0782 317.5,-1050.0782 464.5,-1050.0782 464.5,-1028.0782 317.5,-1028.0782"/>
<polygon fill="none" stroke="#000000" points="317.5,-1028.0782 317.5,-1050.0782 464.5,-1050.0782 464.5,-1028.0782 317.5,-1028.0782"/>
<image xlink:href="../../images/foreignKeys.png" width="11px" height="12px" preserveAspectRatio="xMinYMin meet" x="322.5" y="-1045.08"/>
<text text-anchor="start" x="346.5" y="-1035.1782" font-family="Helvetica,sans-Serif" font-size="11.00" fill="#000000">UserId</text>
<polygon fill="none" stroke="#000000" points="317.5,-1009.0782 317.5,-1028.0782 464.5,-1028.0782 464.5,-1009.0782 317.5,-1009.0782"/>
<text text-anchor="start" x="320.5" y="-1015.1782" font-family="Helvetica,sans-Serif" font-size="11.00" fill="#000000">...</text>
<polygon fill="#ffffff" stroke="transparent" points="317.5,-990.0782 317.5,-1009.0782 376.5,-1009.0782 376.5,-990.0782 317.5,-990.0782"/>
<polygon fill="none" stroke="#000000" points="317.5,-990.0782 317.5,-1009.0782 376.5,-1009.0782 376.5,-990.0782 317.5,-990.0782"/>
<text text-anchor="start" x="320.5" y="-996.1782" font-family="Helvetica,sans-Serif" font-size="11.00" fill="#000000">&lt; 1</text>
<polygon fill="#ffffff" stroke="transparent" points="376.5,-990.0782 376.5,-1009.0782 433.5,-1009.0782 433.5,-990.0782 376.5,-990.0782"/>
<polygon fill="none" stroke="#000000" points="376.5,-990.0782 376.5,-1009.0782 433.5,-1009.0782 433.5,-990.0782 376.5,-990.0782"/>
<text text-anchor="start" x="398.1105" y="-996.1782" font-family="Helvetica,sans-Serif" font-size="11.00" fill="#000000">0 rows</text>
<polygon fill="#ffffff" stroke="transparent" points="433.5,-990.0782 433.5,-1009.0782 464.5,-1009.0782 464.5,-990.0782 433.5,-990.0782"/>
<polygon fill="none" stroke="#000000" points="433.5,-990.0782 433.5,-1009.0782 464.5,-1009.0782 464.5,-990.0782 433.5,-990.0782"/>
<text text-anchor="start" x="455.3862" y="-996.1782" font-family="Helvetica,sans-Serif" font-size="11.00" fill="#000000"> &#160;</text>
</a>
</g>
</g>
<!-- AspNetUsers -->
<g id="node2" class="node">
<title>AspNetUsers</title>
<g id="a_node2"><a xlink:href="../../tables/AspNetUsers.html" xlink:title="AspNetUsers" target="_top">
<polygon fill="#ffffff" stroke="transparent" points="8,-119.0782 8,-517.0782 267,-517.0782 267,-119.0782 8,-119.0782"/>
<polygon fill="#f5f5f5" stroke="transparent" points="10.5,-492.0782 10.5,-515.0782 265.5,-515.0782 265.5,-492.0782 10.5,-492.0782"/>
<polygon fill="none" stroke="#000000" points="10.5,-492.0782 10.5,-515.0782 265.5,-515.0782 265.5,-492.0782 10.5,-492.0782"/>
<text text-anchor="start" x="15.5" y="-500.6782" font-family="Helvetica,sans-Serif" font-weight="bold" font-size="11.00" fill="#000000">AspNetUsers</text>
<text text-anchor="start" x="230.5437" y="-500.1782" font-family="Helvetica,sans-Serif" font-size="11.00" fill="#000000">[table]</text>
<polygon fill="none" stroke="#000000" points="10.5,-470.0782 10.5,-492.0782 173.5,-492.0782 173.5,-470.0782 10.5,-470.0782"/>
<image xlink:href="../../images/primaryKeys.png" width="11px" height="12px" preserveAspectRatio="xMinYMin meet" x="15.5" y="-487.078"/>
<text text-anchor="start" x="30.5" y="-477.1782" font-family="Helvetica,sans-Serif" font-size="11.00" fill="#000000">Id</text>
<polygon fill="none" stroke="#000000" points="173.5,-470.0782 173.5,-492.0782 265.5,-492.0782 265.5,-470.0782 173.5,-470.0782"/>
<text text-anchor="start" x="176.5" y="-477.7782" font-family="Helvetica,sans-Serif" font-size="11.00" fill="#000000">text[2147483647]</text>
<polygon fill="none" stroke="#000000" points="10.5,-448.0782 10.5,-470.0782 173.5,-470.0782 173.5,-448.0782 10.5,-448.0782"/>
<text text-anchor="start" x="30.5" y="-455.1782" font-family="Helvetica,sans-Serif" font-size="11.00" fill="#000000">UserName</text>
<polygon fill="none" stroke="#000000" points="173.5,-448.0782 173.5,-470.0782 265.5,-470.0782 265.5,-448.0782 173.5,-448.0782"/>
<text text-anchor="start" x="176.5" y="-455.7782" font-family="Helvetica,sans-Serif" font-size="11.00" fill="#000000">varchar[256]</text>
<polygon fill="#ffffff" stroke="transparent" points="10.5,-426.0782 10.5,-448.0782 173.5,-448.0782 173.5,-426.0782 10.5,-426.0782"/>
<polygon fill="none" stroke="#000000" points="10.5,-426.0782 10.5,-448.0782 173.5,-448.0782 173.5,-426.0782 10.5,-426.0782"/>
<text text-anchor="start" x="30.5" y="-433.1782" font-family="Helvetica,sans-Serif" font-size="11.00" fill="#000000">NormalizedUserName</text>
<polygon fill="none" stroke="#000000" points="173.5,-426.0782 173.5,-448.0782 265.5,-448.0782 265.5,-426.0782 173.5,-426.0782"/>
<text text-anchor="start" x="176.5" y="-433.7782" font-family="Helvetica,sans-Serif" font-size="11.00" fill="#000000">varchar[256]</text>
<polygon fill="none" stroke="#000000" points="10.5,-404.0782 10.5,-426.0782 173.5,-426.0782 173.5,-404.0782 10.5,-404.0782"/>
<text text-anchor="start" x="30.5" y="-411.1782" font-family="Helvetica,sans-Serif" font-size="11.00" fill="#000000">Email</text>
<polygon fill="none" stroke="#000000" points="173.5,-404.0782 173.5,-426.0782 265.5,-426.0782 265.5,-404.0782 173.5,-404.0782"/>
<text text-anchor="start" x="176.5" y="-411.7782" font-family="Helvetica,sans-Serif" font-size="11.00" fill="#000000">varchar[256]</text>
<polygon fill="#ffffff" stroke="transparent" points="10.5,-382.0782 10.5,-404.0782 173.5,-404.0782 173.5,-382.0782 10.5,-382.0782"/>
<polygon fill="none" stroke="#000000" points="10.5,-382.0782 10.5,-404.0782 173.5,-404.0782 173.5,-382.0782 10.5,-382.0782"/>
<text text-anchor="start" x="30.5" y="-389.1782" font-family="Helvetica,sans-Serif" font-size="11.00" fill="#000000">NormalizedEmail</text>
<polygon fill="none" stroke="#000000" points="173.5,-382.0782 173.5,-404.0782 265.5,-404.0782 265.5,-382.0782 173.5,-382.0782"/>
<text text-anchor="start" x="176.5" y="-389.7782" font-family="Helvetica,sans-Serif" font-size="11.00" fill="#000000">varchar[256]</text>
<polygon fill="none" stroke="#000000" points="10.5,-360.0782 10.5,-382.0782 173.5,-382.0782 173.5,-360.0782 10.5,-360.0782"/>
<text text-anchor="start" x="30.5" y="-367.1782" font-family="Helvetica,sans-Serif" font-size="11.00" fill="#000000">EmailConfirmed</text>
<polygon fill="none" stroke="#000000" points="173.5,-360.0782 173.5,-382.0782 265.5,-382.0782 265.5,-360.0782 173.5,-360.0782"/>
<text text-anchor="start" x="176.5" y="-367.7782" font-family="Helvetica,sans-Serif" font-size="11.00" fill="#000000">bool[1]</text>
<polygon fill="none" stroke="#000000" points="10.5,-338.0782 10.5,-360.0782 173.5,-360.0782 173.5,-338.0782 10.5,-338.0782"/>
<text text-anchor="start" x="30.5" y="-345.1782" font-family="Helvetica,sans-Serif" font-size="11.00" fill="#000000">PasswordHash</text>
<polygon fill="none" stroke="#000000" points="173.5,-338.0782 173.5,-360.0782 265.5,-360.0782 265.5,-338.0782 173.5,-338.0782"/>
<text text-anchor="start" x="176.5" y="-345.7782" font-family="Helvetica,sans-Serif" font-size="11.00" fill="#000000">text[2147483647]</text>
<polygon fill="none" stroke="#000000" points="10.5,-316.0782 10.5,-338.0782 173.5,-338.0782 173.5,-316.0782 10.5,-316.0782"/>
<text text-anchor="start" x="30.5" y="-323.1782" font-family="Helvetica,sans-Serif" font-size="11.00" fill="#000000">SecurityStamp</text>
<polygon fill="none" stroke="#000000" points="173.5,-316.0782 173.5,-338.0782 265.5,-338.0782 265.5,-316.0782 173.5,-316.0782"/>
<text text-anchor="start" x="176.5" y="-323.7782" font-family="Helvetica,sans-Serif" font-size="11.00" fill="#000000">text[2147483647]</text>
<polygon fill="none" stroke="#000000" points="10.5,-294.0782 10.5,-316.0782 173.5,-316.0782 173.5,-294.0782 10.5,-294.0782"/>
<text text-anchor="start" x="30.5" y="-301.1782" font-family="Helvetica,sans-Serif" font-size="11.00" fill="#000000">ConcurrencyStamp</text>
<polygon fill="none" stroke="#000000" points="173.5,-294.0782 173.5,-316.0782 265.5,-316.0782 265.5,-294.0782 173.5,-294.0782"/>
<text text-anchor="start" x="176.5" y="-301.7782" font-family="Helvetica,sans-Serif" font-size="11.00" fill="#000000">text[2147483647]</text>
<polygon fill="none" stroke="#000000" points="10.5,-272.0782 10.5,-294.0782 173.5,-294.0782 173.5,-272.0782 10.5,-272.0782"/>
<text text-anchor="start" x="30.5" y="-279.1782" font-family="Helvetica,sans-Serif" font-size="11.00" fill="#000000">PhoneNumber</text>
<polygon fill="none" stroke="#000000" points="173.5,-272.0782 173.5,-294.0782 265.5,-294.0782 265.5,-272.0782 173.5,-272.0782"/>
<text text-anchor="start" x="176.5" y="-279.7782" font-family="Helvetica,sans-Serif" font-size="11.00" fill="#000000">text[2147483647]</text>
<polygon fill="none" stroke="#000000" points="10.5,-250.0782 10.5,-272.0782 173.5,-272.0782 173.5,-250.0782 10.5,-250.0782"/>
<text text-anchor="start" x="30.5" y="-257.1782" font-family="Helvetica,sans-Serif" font-size="11.00" fill="#000000">PhoneNumberConfirmed</text>
<polygon fill="none" stroke="#000000" points="173.5,-250.0782 173.5,-272.0782 265.5,-272.0782 265.5,-250.0782 173.5,-250.0782"/>
<text text-anchor="start" x="176.5" y="-257.7782" font-family="Helvetica,sans-Serif" font-size="11.00" fill="#000000">bool[1]</text>
<polygon fill="none" stroke="#000000" points="10.5,-228.0782 10.5,-250.0782 173.5,-250.0782 173.5,-228.0782 10.5,-228.0782"/>
<text text-anchor="start" x="30.5" y="-235.1782" font-family="Helvetica,sans-Serif" font-size="11.00" fill="#000000">TwoFactorEnabled</text>
<polygon fill="none" stroke="#000000" points="173.5,-228.0782 173.5,-250.0782 265.5,-250.0782 265.5,-228.0782 173.5,-228.0782"/>
<text text-anchor="start" x="176.5" y="-235.7782" font-family="Helvetica,sans-Serif" font-size="11.00" fill="#000000">bool[1]</text>
<polygon fill="none" stroke="#000000" points="10.5,-206.0782 10.5,-228.0782 173.5,-228.0782 173.5,-206.0782 10.5,-206.0782"/>
<text text-anchor="start" x="30.5" y="-213.1782" font-family="Helvetica,sans-Serif" font-size="11.00" fill="#000000">LockoutEnd</text>
<polygon fill="none" stroke="#000000" points="173.5,-206.0782 173.5,-228.0782 265.5,-228.0782 265.5,-206.0782 173.5,-206.0782"/>
<text text-anchor="start" x="176.1023" y="-213.7782" font-family="Helvetica,sans-Serif" font-size="11.00" fill="#000000">timestamptz[35,6]</text>
<polygon fill="none" stroke="#000000" points="10.5,-184.0782 10.5,-206.0782 173.5,-206.0782 173.5,-184.0782 10.5,-184.0782"/>
<text text-anchor="start" x="30.5" y="-191.1782" font-family="Helvetica,sans-Serif" font-size="11.00" fill="#000000">LockoutEnabled</text>
<polygon fill="none" stroke="#000000" points="173.5,-184.0782 173.5,-206.0782 265.5,-206.0782 265.5,-184.0782 173.5,-184.0782"/>
<text text-anchor="start" x="176.5" y="-191.7782" font-family="Helvetica,sans-Serif" font-size="11.00" fill="#000000">bool[1]</text>
<polygon fill="none" stroke="#000000" points="10.5,-162.0782 10.5,-184.0782 173.5,-184.0782 173.5,-162.0782 10.5,-162.0782"/>
<text text-anchor="start" x="30.5" y="-169.1782" font-family="Helvetica,sans-Serif" font-size="11.00" fill="#000000">AccessFailedCount</text>
<polygon fill="none" stroke="#000000" points="173.5,-162.0782 173.5,-184.0782 265.5,-184.0782 265.5,-162.0782 173.5,-162.0782"/>
<text text-anchor="start" x="176.5" y="-169.7782" font-family="Helvetica,sans-Serif" font-size="11.00" fill="#000000">int4[10]</text>
<polygon fill="none" stroke="#000000" points="10.5,-140.0782 10.5,-162.0782 173.5,-162.0782 173.5,-140.0782 10.5,-140.0782"/>
<text text-anchor="start" x="30.5" y="-147.1782" font-family="Helvetica,sans-Serif" font-size="11.00" fill="#000000">Name</text>
<polygon fill="none" stroke="#000000" points="173.5,-140.0782 173.5,-162.0782 265.5,-162.0782 265.5,-140.0782 173.5,-140.0782"/>
<text text-anchor="start" x="176.5" y="-147.7782" font-family="Helvetica,sans-Serif" font-size="11.00" fill="#000000">text[2147483647]</text>
<polygon fill="#ffffff" stroke="transparent" points="10.5,-121.0782 10.5,-140.0782 83.5,-140.0782 83.5,-121.0782 10.5,-121.0782"/>
<polygon fill="none" stroke="#000000" points="10.5,-121.0782 10.5,-140.0782 83.5,-140.0782 83.5,-121.0782 10.5,-121.0782"/>
<text text-anchor="start" x="13.5" y="-127.1782" font-family="Helvetica,sans-Serif" font-size="11.00" fill="#000000">&lt; 0</text>
<polygon fill="#ffffff" stroke="transparent" points="83.5,-121.0782 83.5,-140.0782 173.5,-140.0782 173.5,-121.0782 83.5,-121.0782"/>
<polygon fill="none" stroke="#000000" points="83.5,-121.0782 83.5,-140.0782 173.5,-140.0782 173.5,-121.0782 83.5,-121.0782"/>
<text text-anchor="start" x="138.1105" y="-127.1782" font-family="Helvetica,sans-Serif" font-size="11.00" fill="#000000">0 rows</text>
<polygon fill="#ffffff" stroke="transparent" points="173.5,-121.0782 173.5,-140.0782 265.5,-140.0782 265.5,-121.0782 173.5,-121.0782"/>
<polygon fill="none" stroke="#000000" points="173.5,-121.0782 173.5,-140.0782 265.5,-140.0782 265.5,-121.0782 173.5,-121.0782"/>
<text text-anchor="start" x="240.7904" y="-127.1782" font-family="Helvetica,sans-Serif" font-size="11.00" fill="#000000">29 &gt;</text>
<polygon fill="none" stroke="#000000" stroke-width="2" points="9,-120.0782 9,-516.0782 266,-516.0782 266,-120.0782 9,-120.0782"/>
</a>
</g>
</g>
<!-- AspNetUserClaims&#45;&gt;AspNetUsers -->
<g id="edge1" class="edge">
<title>AspNetUserClaims:w&#45;&gt;AspNetUsers:e</title>
<path fill="none" stroke="#000000" d="M305.753,-1030.3133C265.256,-959.3237 323.1471,-481.0782 265.5,-481.0782"/>
<polygon fill="#000000" stroke="#000000" points="311.0881,-1034.294 315.3471,-1041.9635 314.2941,-1036.6861 317.5,-1039.0782 317.5,-1039.0782 317.5,-1039.0782 314.2941,-1036.6861 319.6529,-1036.1928 311.0881,-1034.294 311.0881,-1034.294"/>
<ellipse fill="none" stroke="#000000" cx="308.5234" cy="-1032.3804" rx="3.2" ry="3.2"/>
</g>
<!-- AspNetUserLogins -->
<g id="node3" class="node">
<title>AspNetUserLogins</title>
<g id="a_node3"><a xlink:href="../../tables/AspNetUserLogins.html" xlink:title="AspNetUserLogins" target="_top">
<polygon fill="#ffffff" stroke="transparent" points="317,-842.5782 317,-969.5782 464,-969.5782 464,-842.5782 317,-842.5782"/>
<polygon fill="#f5f5f5" stroke="transparent" points="317.5,-946.0782 317.5,-969.0782 464.5,-969.0782 464.5,-946.0782 317.5,-946.0782"/>
<polygon fill="none" stroke="#000000" points="317.5,-946.0782 317.5,-969.0782 464.5,-969.0782 464.5,-946.0782 317.5,-946.0782"/>
<text text-anchor="start" x="322.5" y="-954.6782" font-family="Helvetica,sans-Serif" font-weight="bold" font-size="11.00" fill="#000000">AspNetUserLogins</text>
<text text-anchor="start" x="430.0219" y="-954.1782" font-family="Helvetica,sans-Serif" font-size="11.00" fill="#000000">[table]</text>
<polygon fill="none" stroke="#000000" points="317.5,-924.0782 317.5,-946.0782 464.5,-946.0782 464.5,-924.0782 317.5,-924.0782"/>
<image xlink:href="../../images/primaryKeys.png" width="11px" height="12px" preserveAspectRatio="xMinYMin meet" x="322.5" y="-941.078"/>
<text text-anchor="start" x="338.5" y="-931.1782" font-family="Helvetica,sans-Serif" font-size="11.00" fill="#000000">LoginProvider</text>
<polygon fill="none" stroke="#000000" points="317.5,-902.0782 317.5,-924.0782 464.5,-924.0782 464.5,-902.0782 317.5,-902.0782"/>
<image xlink:href="../../images/primaryKeys.png" width="11px" height="12px" preserveAspectRatio="xMinYMin meet" x="322.5" y="-919.078"/>
<text text-anchor="start" x="338.5" y="-909.1782" font-family="Helvetica,sans-Serif" font-size="11.00" fill="#000000">ProviderKey</text>
<polygon fill="#ffffff" stroke="transparent" points="317.5,-880.0782 317.5,-902.0782 464.5,-902.0782 464.5,-880.0782 317.5,-880.0782"/>
<polygon fill="none" stroke="#000000" points="317.5,-880.0782 317.5,-902.0782 464.5,-902.0782 464.5,-880.0782 317.5,-880.0782"/>
<image xlink:href="../../images/foreignKeys.png" width="11px" height="12px" preserveAspectRatio="xMinYMin meet" x="322.5" y="-897.078"/>
<text text-anchor="start" x="338.5" y="-887.1782" font-family="Helvetica,sans-Serif" font-size="11.00" fill="#000000">UserId</text>
<polygon fill="none" stroke="#000000" points="317.5,-861.0782 317.5,-880.0782 464.5,-880.0782 464.5,-861.0782 317.5,-861.0782"/>
<text text-anchor="start" x="320.5" y="-867.1782" font-family="Helvetica,sans-Serif" font-size="11.00" fill="#000000">...</text>
<polygon fill="#ffffff" stroke="transparent" points="317.5,-842.0782 317.5,-861.0782 376.5,-861.0782 376.5,-842.0782 317.5,-842.0782"/>
<polygon fill="none" stroke="#000000" points="317.5,-842.0782 317.5,-861.0782 376.5,-861.0782 376.5,-842.0782 317.5,-842.0782"/>
<text text-anchor="start" x="320.5" y="-848.1782" font-family="Helvetica,sans-Serif" font-size="11.00" fill="#000000">&lt; 1</text>
<polygon fill="#ffffff" stroke="transparent" points="376.5,-842.0782 376.5,-861.0782 433.5,-861.0782 433.5,-842.0782 376.5,-842.0782"/>
<polygon fill="none" stroke="#000000" points="376.5,-842.0782 376.5,-861.0782 433.5,-861.0782 433.5,-842.0782 376.5,-842.0782"/>
<text text-anchor="start" x="398.1105" y="-848.1782" font-family="Helvetica,sans-Serif" font-size="11.00" fill="#000000">0 rows</text>
<polygon fill="#ffffff" stroke="transparent" points="433.5,-842.0782 433.5,-861.0782 464.5,-861.0782 464.5,-842.0782 433.5,-842.0782"/>
<polygon fill="none" stroke="#000000" points="433.5,-842.0782 433.5,-861.0782 464.5,-861.0782 464.5,-842.0782 433.5,-842.0782"/>
<text text-anchor="start" x="455.3862" y="-848.1782" font-family="Helvetica,sans-Serif" font-size="11.00" fill="#000000"> &#160;</text>
</a>
</g>
</g>
<!-- AspNetUserLogins&#45;&gt;AspNetUsers -->
<g id="edge2" class="edge">
<title>AspNetUserLogins:w&#45;&gt;AspNetUsers:e</title>
<path fill="none" stroke="#000000" d="M303.5684,-887.0202C240.3231,-844.4389 351.9597,-481.0782 265.5,-481.0782"/>
<polygon fill="#000000" stroke="#000000" points="309.8192,-888.8409 316.4932,-894.5345 313.6596,-889.9595 317.5,-891.0782 317.5,-891.0782 317.5,-891.0782 313.6596,-889.9595 318.5068,-887.6218 309.8192,-888.8409 309.8192,-888.8409"/>
<ellipse fill="none" stroke="#000000" cx="306.7469" cy="-887.946" rx="3.2" ry="3.2"/>
</g>
<!-- AspNetUserRoles -->
<g id="node4" class="node">
<title>AspNetUserRoles</title>
<g id="a_node4"><a xlink:href="../../tables/AspNetUserRoles.html" xlink:title="AspNetUserRoles" target="_top">
<polygon fill="#ffffff" stroke="transparent" points="320.5,-1195.0782 320.5,-1281.0782 460.5,-1281.0782 460.5,-1195.0782 320.5,-1195.0782"/>
<polygon fill="#f5f5f5" stroke="transparent" points="320.5,-1258.0782 320.5,-1281.0782 460.5,-1281.0782 460.5,-1258.0782 320.5,-1258.0782"/>
<polygon fill="none" stroke="#000000" points="320.5,-1258.0782 320.5,-1281.0782 460.5,-1281.0782 460.5,-1258.0782 320.5,-1258.0782"/>
<text text-anchor="start" x="325.5" y="-1266.6782" font-family="Helvetica,sans-Serif" font-weight="bold" font-size="11.00" fill="#000000">AspNetUserRoles</text>
<text text-anchor="start" x="426.0219" y="-1266.1782" font-family="Helvetica,sans-Serif" font-size="11.00" fill="#000000">[table]</text>
<polygon fill="none" stroke="#000000" points="320.5,-1236.0782 320.5,-1258.0782 460.5,-1258.0782 460.5,-1236.0782 320.5,-1236.0782"/>
<image xlink:href="../../images/primaryKeys.png" width="11px" height="12px" preserveAspectRatio="xMinYMin meet" x="325.5" y="-1253.08"/>
<text text-anchor="start" x="349.5" y="-1243.1782" font-family="Helvetica,sans-Serif" font-size="11.00" fill="#000000">UserId</text>
<polygon fill="none" stroke="#000000" points="320.5,-1214.0782 320.5,-1236.0782 460.5,-1236.0782 460.5,-1214.0782 320.5,-1214.0782"/>
<image xlink:href="../../images/primaryKeys.png" width="11px" height="12px" preserveAspectRatio="xMinYMin meet" x="325.5" y="-1231.08"/>
<text text-anchor="start" x="349.5" y="-1221.1782" font-family="Helvetica,sans-Serif" font-size="11.00" fill="#000000">RoleId</text>
<polygon fill="#ffffff" stroke="transparent" points="320.5,-1195.0782 320.5,-1214.0782 375.5,-1214.0782 375.5,-1195.0782 320.5,-1195.0782"/>
<polygon fill="none" stroke="#000000" points="320.5,-1195.0782 320.5,-1214.0782 375.5,-1214.0782 375.5,-1195.0782 320.5,-1195.0782"/>
<text text-anchor="start" x="323.5" y="-1201.1782" font-family="Helvetica,sans-Serif" font-size="11.00" fill="#000000">&lt; 2</text>
<polygon fill="#ffffff" stroke="transparent" points="375.5,-1195.0782 375.5,-1214.0782 430.5,-1214.0782 430.5,-1195.0782 375.5,-1195.0782"/>
<polygon fill="none" stroke="#000000" points="375.5,-1195.0782 375.5,-1214.0782 430.5,-1214.0782 430.5,-1195.0782 375.5,-1195.0782"/>
<text text-anchor="start" x="395.1105" y="-1201.1782" font-family="Helvetica,sans-Serif" font-size="11.00" fill="#000000">0 rows</text>
<polygon fill="#ffffff" stroke="transparent" points="430.5,-1195.0782 430.5,-1214.0782 460.5,-1214.0782 460.5,-1195.0782 430.5,-1195.0782"/>
<polygon fill="none" stroke="#000000" points="430.5,-1195.0782 430.5,-1214.0782 460.5,-1214.0782 460.5,-1195.0782 430.5,-1195.0782"/>
<text text-anchor="start" x="451.3862" y="-1201.1782" font-family="Helvetica,sans-Serif" font-size="11.00" fill="#000000"> &#160;</text>
</a>
</g>
</g>
<!-- AspNetUserRoles&#45;&gt;AspNetUsers -->
<g id="edge4" class="edge">
<title>AspNetUserRoles:w&#45;&gt;AspNetUsers:e</title>
<path fill="none" stroke="#000000" d="M307.8619,-1239.9842C247.6271,-1162.7622 345.9971,-481.0782 265.5,-481.0782"/>
<polygon fill="#000000" stroke="#000000" points="313.5239,-1243.1623 318.7379,-1250.2174 317.0119,-1245.1202 320.5,-1247.0782 320.5,-1247.0782 320.5,-1247.0782 317.0119,-1245.1202 322.2621,-1243.9389 313.5239,-1243.1623 313.5239,-1243.1623"/>
<ellipse fill="none" stroke="#000000" cx="310.7334" cy="-1241.596" rx="3.2" ry="3.2"/>
</g>
<!-- AspNetRoles -->
<g id="node5" class="node">
<title>AspNetRoles</title>
<g id="a_node5"><a xlink:href="../../tables/AspNetRoles.html" xlink:title="AspNetRoles" target="_top">
<polygon fill="#ffffff" stroke="transparent" points="81,-1197.5782 81,-1258.5782 194,-1258.5782 194,-1197.5782 81,-1197.5782"/>
<polygon fill="#f5f5f5" stroke="transparent" points="81.5,-1235.0782 81.5,-1258.0782 194.5,-1258.0782 194.5,-1235.0782 81.5,-1235.0782"/>
<polygon fill="none" stroke="#000000" points="81.5,-1235.0782 81.5,-1258.0782 194.5,-1258.0782 194.5,-1235.0782 81.5,-1235.0782"/>
<text text-anchor="start" x="86.5" y="-1243.6782" font-family="Helvetica,sans-Serif" font-weight="bold" font-size="11.00" fill="#000000">AspNetRoles</text>
<text text-anchor="start" x="160.0219" y="-1243.1782" font-family="Helvetica,sans-Serif" font-size="11.00" fill="#000000">[table]</text>
<polygon fill="none" stroke="#000000" points="81.5,-1216.0782 81.5,-1235.0782 194.5,-1235.0782 194.5,-1216.0782 81.5,-1216.0782"/>
<text text-anchor="start" x="84.5" y="-1222.1782" font-family="Helvetica,sans-Serif" font-size="11.00" fill="#000000">...</text>
<polygon fill="#ffffff" stroke="transparent" points="81.5,-1197.0782 81.5,-1216.0782 114.5,-1216.0782 114.5,-1197.0782 81.5,-1197.0782"/>
<polygon fill="none" stroke="#000000" points="81.5,-1197.0782 81.5,-1216.0782 114.5,-1216.0782 114.5,-1197.0782 81.5,-1197.0782"/>
<text text-anchor="start" x="84.5" y="-1203.1782" font-family="Helvetica,sans-Serif" font-size="11.00" fill="#000000"> &#160;</text>
<polygon fill="#ffffff" stroke="transparent" points="114.5,-1197.0782 114.5,-1216.0782 162.5,-1216.0782 162.5,-1197.0782 114.5,-1197.0782"/>
<polygon fill="none" stroke="#000000" points="114.5,-1197.0782 114.5,-1216.0782 162.5,-1216.0782 162.5,-1197.0782 114.5,-1197.0782"/>
<text text-anchor="start" x="127.1105" y="-1203.1782" font-family="Helvetica,sans-Serif" font-size="11.00" fill="#000000">0 rows</text>
<polygon fill="#ffffff" stroke="transparent" points="162.5,-1197.0782 162.5,-1216.0782 194.5,-1216.0782 194.5,-1197.0782 162.5,-1197.0782"/>
<polygon fill="none" stroke="#000000" points="162.5,-1197.0782 162.5,-1216.0782 194.5,-1216.0782 194.5,-1197.0782 162.5,-1197.0782"/>
<text text-anchor="start" x="175.9053" y="-1203.1782" font-family="Helvetica,sans-Serif" font-size="11.00" fill="#000000">2 &gt;</text>
</a>
</g>
</g>
<!-- AspNetUserRoles&#45;&gt;AspNetRoles -->
<g id="edge3" class="edge">
<title>AspNetUserRoles:w&#45;&gt;AspNetRoles:e</title>
<path fill="none" stroke="#000000" d="M306.0749,-1225.0782C261.5758,-1225.0782 245.3594,-1225.0782 194.5,-1225.0782"/>
<polygon fill="#000000" stroke="#000000" points="312.5,-1225.0782 320.5,-1228.6782 316.5,-1225.0782 320.5,-1225.0782 320.5,-1225.0782 320.5,-1225.0782 316.5,-1225.0782 320.5,-1221.4782 312.5,-1225.0782 312.5,-1225.0782"/>
<ellipse fill="none" stroke="#000000" cx="309.3" cy="-1225.0782" rx="3.2" ry="3.2"/>
</g>
<!-- AspNetUserTokens -->
<g id="node6" class="node">
<title>AspNetUserTokens</title>
<g id="a_node6"><a xlink:href="../../tables/AspNetUserTokens.html" xlink:title="AspNetUserTokens" target="_top">
<polygon fill="#ffffff" stroke="transparent" points="316,-694.5782 316,-821.5782 465,-821.5782 465,-694.5782 316,-694.5782"/>
<polygon fill="#f5f5f5" stroke="transparent" points="316.5,-798.0782 316.5,-821.0782 465.5,-821.0782 465.5,-798.0782 316.5,-798.0782"/>
<polygon fill="none" stroke="#000000" points="316.5,-798.0782 316.5,-821.0782 465.5,-821.0782 465.5,-798.0782 316.5,-798.0782"/>
<text text-anchor="start" x="321.5" y="-806.6782" font-family="Helvetica,sans-Serif" font-weight="bold" font-size="11.00" fill="#000000">AspNetUserTokens</text>
<text text-anchor="start" x="431.0219" y="-806.1782" font-family="Helvetica,sans-Serif" font-size="11.00" fill="#000000">[table]</text>
<polygon fill="none" stroke="#000000" points="316.5,-776.0782 316.5,-798.0782 465.5,-798.0782 465.5,-776.0782 316.5,-776.0782"/>
<image xlink:href="../../images/primaryKeys.png" width="11px" height="12px" preserveAspectRatio="xMinYMin meet" x="321.5" y="-793.078"/>
<text text-anchor="start" x="345.5" y="-783.1782" font-family="Helvetica,sans-Serif" font-size="11.00" fill="#000000">UserId</text>
<polygon fill="none" stroke="#000000" points="316.5,-754.0782 316.5,-776.0782 465.5,-776.0782 465.5,-754.0782 316.5,-754.0782"/>
<image xlink:href="../../images/primaryKeys.png" width="11px" height="12px" preserveAspectRatio="xMinYMin meet" x="321.5" y="-771.078"/>
<text text-anchor="start" x="345.5" y="-761.1782" font-family="Helvetica,sans-Serif" font-size="11.00" fill="#000000">LoginProvider</text>
<polygon fill="none" stroke="#000000" points="316.5,-732.0782 316.5,-754.0782 465.5,-754.0782 465.5,-732.0782 316.5,-732.0782"/>
<image xlink:href="../../images/primaryKeys.png" width="11px" height="12px" preserveAspectRatio="xMinYMin meet" x="321.5" y="-749.078"/>
<text text-anchor="start" x="345.5" y="-739.1782" font-family="Helvetica,sans-Serif" font-size="11.00" fill="#000000">Name</text>
<polygon fill="none" stroke="#000000" points="316.5,-713.0782 316.5,-732.0782 465.5,-732.0782 465.5,-713.0782 316.5,-713.0782"/>
<text text-anchor="start" x="319.5" y="-719.1782" font-family="Helvetica,sans-Serif" font-size="11.00" fill="#000000">...</text>
<polygon fill="#ffffff" stroke="transparent" points="316.5,-694.0782 316.5,-713.0782 376.5,-713.0782 376.5,-694.0782 316.5,-694.0782"/>
<polygon fill="none" stroke="#000000" points="316.5,-694.0782 316.5,-713.0782 376.5,-713.0782 376.5,-694.0782 316.5,-694.0782"/>
<text text-anchor="start" x="319.5" y="-700.1782" font-family="Helvetica,sans-Serif" font-size="11.00" fill="#000000">&lt; 1</text>
<polygon fill="#ffffff" stroke="transparent" points="376.5,-694.0782 376.5,-713.0782 433.5,-713.0782 433.5,-694.0782 376.5,-694.0782"/>
<polygon fill="none" stroke="#000000" points="376.5,-694.0782 376.5,-713.0782 433.5,-713.0782 433.5,-694.0782 376.5,-694.0782"/>
<text text-anchor="start" x="398.1105" y="-700.1782" font-family="Helvetica,sans-Serif" font-size="11.00" fill="#000000">0 rows</text>
<polygon fill="#ffffff" stroke="transparent" points="433.5,-694.0782 433.5,-713.0782 465.5,-713.0782 465.5,-694.0782 433.5,-694.0782"/>
<polygon fill="none" stroke="#000000" points="433.5,-694.0782 433.5,-713.0782 465.5,-713.0782 465.5,-694.0782 433.5,-694.0782"/>
<text text-anchor="start" x="456.3862" y="-700.1782" font-family="Helvetica,sans-Serif" font-size="11.00" fill="#000000"> &#160;</text>
</a>
</g>
</g>
<!-- AspNetUserTokens&#45;&gt;AspNetUsers -->
<g id="edge5" class="edge">
<title>AspNetUserTokens:w&#45;&gt;AspNetUsers:e</title>
<path fill="none" stroke="#000000" d="M303.0471,-781.767C260.1854,-741.1333 329.0522,-481.0782 265.5,-481.0782"/>
<polygon fill="#000000" stroke="#000000" points="309.0589,-784.1404 315.178,-790.4266 312.7795,-785.6093 316.5,-787.0782 316.5,-787.0782 316.5,-787.0782 312.7795,-785.6093 317.822,-783.7297 309.0589,-784.1404 309.0589,-784.1404"/>
<ellipse fill="none" stroke="#000000" cx="306.0825" cy="-782.9653" rx="3.2" ry="3.2"/>
</g>
<!-- Competencies -->
<g id="node7" class="node">
<title>Competencies</title>
<g id="a_node7"><a xlink:href="../../tables/Competencies.html" xlink:title="Competencies" target="_top">
<polygon fill="#ffffff" stroke="transparent" points="330,-572.5782 330,-633.5782 451,-633.5782 451,-572.5782 330,-572.5782"/>
<polygon fill="#f5f5f5" stroke="transparent" points="330.5,-610.0782 330.5,-633.0782 451.5,-633.0782 451.5,-610.0782 330.5,-610.0782"/>
<polygon fill="none" stroke="#000000" points="330.5,-610.0782 330.5,-633.0782 451.5,-633.0782 451.5,-610.0782 330.5,-610.0782"/>
<text text-anchor="start" x="335.5" y="-618.6782" font-family="Helvetica,sans-Serif" font-weight="bold" font-size="11.00" fill="#000000">Competencies</text>
<text text-anchor="start" x="417.0219" y="-618.1782" font-family="Helvetica,sans-Serif" font-size="11.00" fill="#000000">[table]</text>
<polygon fill="none" stroke="#000000" points="330.5,-591.0782 330.5,-610.0782 451.5,-610.0782 451.5,-591.0782 330.5,-591.0782"/>
<text text-anchor="start" x="333.5" y="-597.1782" font-family="Helvetica,sans-Serif" font-size="11.00" fill="#000000">...</text>
<polygon fill="#ffffff" stroke="transparent" points="330.5,-572.0782 330.5,-591.0782 371.5,-591.0782 371.5,-572.0782 330.5,-572.0782"/>
<polygon fill="none" stroke="#000000" points="330.5,-572.0782 330.5,-591.0782 371.5,-591.0782 371.5,-572.0782 330.5,-572.0782"/>
<text text-anchor="start" x="333.5" y="-578.1782" font-family="Helvetica,sans-Serif" font-size="11.00" fill="#000000">&lt; 2</text>
<polygon fill="#ffffff" stroke="transparent" points="371.5,-572.0782 371.5,-591.0782 419.5,-591.0782 419.5,-572.0782 371.5,-572.0782"/>
<polygon fill="none" stroke="#000000" points="371.5,-572.0782 371.5,-591.0782 419.5,-591.0782 419.5,-572.0782 371.5,-572.0782"/>
<text text-anchor="start" x="384.1105" y="-578.1782" font-family="Helvetica,sans-Serif" font-size="11.00" fill="#000000">0 rows</text>
<polygon fill="#ffffff" stroke="transparent" points="419.5,-572.0782 419.5,-591.0782 451.5,-591.0782 451.5,-572.0782 419.5,-572.0782"/>
<polygon fill="none" stroke="#000000" points="419.5,-572.0782 419.5,-591.0782 451.5,-591.0782 451.5,-572.0782 419.5,-572.0782"/>
<text text-anchor="start" x="432.9053" y="-578.1782" font-family="Helvetica,sans-Serif" font-size="11.00" fill="#000000">4 &gt;</text>
</a>
</g>
</g>
<!-- Competencies&#45;&gt;AspNetUsers -->
<g id="edge6" class="edge">
<title>Competencies:w&#45;&gt;AspNetUsers:e</title>
<path fill="none" stroke="#000000" d="M316.3915,-559.6054C313.4461,-557.2042 310.6311,-554.6962 308,-552.0782 280.291,-524.5071 304.589,-475.0782 265.5,-481.0782"/>
<polygon fill="#000000" stroke="#000000" points="321.8386,-563.6073 326.1542,-571.2451 325.0621,-565.9756 328.2856,-568.3439 328.2856,-568.3439 328.2856,-568.3439 325.0621,-565.9756 330.4171,-565.4427 321.8386,-563.6073 321.8386,-563.6073"/>
<ellipse fill="none" stroke="#000000" cx="319.2597" cy="-561.7127" rx="3.2" ry="3.2"/>
</g>
<!-- Competencies&#45;&gt;AspNetUsers -->
<g id="edge7" class="edge">
<title>Competencies:w&#45;&gt;AspNetUsers:e</title>
<path fill="none" stroke="#000000" d="M310.3891,-567.3793C309.5775,-566.622 308.7807,-565.8549 308,-565.0782 280.291,-537.5071 304.589,-488.0782 265.5,-481.0782"/>
<polygon fill="#000000" stroke="#000000" points="315.4834,-571.5725 319.3722,-579.4362 318.5717,-574.1146 321.6601,-576.6567 321.6601,-576.6567 321.6601,-576.6567 318.5717,-574.1146 323.948,-573.8772 315.4834,-571.5725 315.4834,-571.5725"/>
<ellipse fill="none" stroke="#000000" cx="313.0127" cy="-569.5388" rx="3.2" ry="3.2"/>
</g>
<!-- CompetencyLevelDescriptions -->
<g id="node8" class="node">
<title>CompetencyLevelDescriptions</title>
<g id="a_node8"><a xlink:href="../../tables/CompetencyLevelDescriptions.html" xlink:title="CompetencyLevelDescriptions" target="_top">
<polygon fill="#ffffff" stroke="transparent" points="528,-673.5782 528,-734.5782 742,-734.5782 742,-673.5782 528,-673.5782"/>
<polygon fill="#f5f5f5" stroke="transparent" points="528,-711.0782 528,-734.0782 742,-734.0782 742,-711.0782 528,-711.0782"/>
<polygon fill="none" stroke="#000000" points="528,-711.0782 528,-734.0782 742,-734.0782 742,-711.0782 528,-711.0782"/>
<text text-anchor="start" x="533" y="-719.6782" font-family="Helvetica,sans-Serif" font-weight="bold" font-size="11.00" fill="#000000">CompetencyLevelDescriptions</text>
<text text-anchor="start" x="707.5219" y="-719.1782" font-family="Helvetica,sans-Serif" font-size="11.00" fill="#000000">[table]</text>
<polygon fill="none" stroke="#000000" points="528,-692.0782 528,-711.0782 742,-711.0782 742,-692.0782 528,-692.0782"/>
<text text-anchor="start" x="531" y="-698.1782" font-family="Helvetica,sans-Serif" font-size="11.00" fill="#000000">...</text>
<polygon fill="#ffffff" stroke="transparent" points="528,-673.0782 528,-692.0782 620,-692.0782 620,-673.0782 528,-673.0782"/>
<polygon fill="none" stroke="#000000" points="528,-673.0782 528,-692.0782 620,-692.0782 620,-673.0782 528,-673.0782"/>
<text text-anchor="start" x="531" y="-679.1782" font-family="Helvetica,sans-Serif" font-size="11.00" fill="#000000">&lt; 3</text>
<polygon fill="#ffffff" stroke="transparent" points="620,-673.0782 620,-692.0782 694,-692.0782 694,-673.0782 620,-673.0782"/>
<polygon fill="none" stroke="#000000" points="620,-673.0782 620,-692.0782 694,-692.0782 694,-673.0782 620,-673.0782"/>
<text text-anchor="start" x="658.6105" y="-679.1782" font-family="Helvetica,sans-Serif" font-size="11.00" fill="#000000">0 rows</text>
<polygon fill="#ffffff" stroke="transparent" points="694,-673.0782 694,-692.0782 742,-692.0782 742,-673.0782 694,-673.0782"/>
<polygon fill="none" stroke="#000000" points="694,-673.0782 694,-692.0782 742,-692.0782 742,-673.0782 694,-673.0782"/>
<text text-anchor="start" x="732.8862" y="-679.1782" font-family="Helvetica,sans-Serif" font-size="11.00" fill="#000000"> &#160;</text>
</a>
</g>
</g>
<!-- CompetencyLevelDescriptions&#45;&gt;AspNetUsers -->
<g id="edge9" class="edge">
<title>CompetencyLevelDescriptions:w&#45;&gt;AspNetUsers:e</title>
<path fill="none" stroke="#000000" d="M505.3413,-682.0177C420.5869,-668.7203 322.9058,-651.9256 308,-638.0782 253.1498,-587.1228 340.3665,-475.0782 265.5,-481.0782"/>
<polygon fill="#000000" stroke="#000000" points="511.7264,-683.0138 519.0758,-687.804 515.6786,-683.6304 519.6308,-684.247 519.6308,-684.247 519.6308,-684.247 515.6786,-683.6304 520.1857,-680.69 511.7264,-683.0138 511.7264,-683.0138"/>
<ellipse fill="none" stroke="#000000" cx="508.5646" cy="-682.5205" rx="3.2" ry="3.2"/>
</g>
<!-- CompetencyLevelDescriptions&#45;&gt;AspNetUsers -->
<g id="edge10" class="edge">
<title>CompetencyLevelDescriptions:w&#45;&gt;AspNetUsers:e</title>
<path fill="none" stroke="#000000" d="M505.3413,-692.8457C420.5869,-681.7203 322.9058,-664.9256 308,-651.0782 253.1498,-600.1228 340.3665,-488.0782 265.5,-481.0782"/>
<polygon fill="#000000" stroke="#000000" points="511.6962,-693.6631 519.1715,-698.2544 515.6635,-694.1735 519.6308,-694.6838 519.6308,-694.6838 519.6308,-694.6838 515.6635,-694.1735 520.0901,-691.1132 511.6962,-693.6631 511.6962,-693.6631"/>
<ellipse fill="none" stroke="#000000" cx="508.5223" cy="-693.2548" rx="3.2" ry="3.2"/>
</g>
<!-- CompetencyLevelDescriptions&#45;&gt;Competencies -->
<g id="edge8" class="edge">
<title>CompetencyLevelDescriptions:w&#45;&gt;Competencies:e</title>
<path fill="none" stroke="#000000" d="M508.756,-664.212C507.8328,-663.8355 506.914,-663.4575 506,-663.0782 488.1561,-655.6719 469.3479,-646.52 452.2099,-637.6147"/>
<polygon fill="#000000" stroke="#000000" points="514.9159,-666.6272 521.0497,-672.8991 518.6399,-668.0873 522.3639,-669.5475 522.3639,-669.5475 522.3639,-669.5475 518.6399,-668.0873 523.678,-666.1959 514.9159,-666.6272 514.9159,-666.6272"/>
<ellipse fill="none" stroke="#000000" cx="511.9367" cy="-665.4591" rx="3.2" ry="3.2"/>
</g>
<!-- CompetencyTechnicalCareer -->
<g id="node9" class="node">
<title>CompetencyTechnicalCareer</title>
<g id="a_node9"><a xlink:href="../../tables/CompetencyTechnicalCareer.html" xlink:title="CompetencyTechnicalCareer" target="_top">
<polygon fill="#ffffff" stroke="transparent" points="533,-591.5782 533,-652.5782 737,-652.5782 737,-591.5782 533,-591.5782"/>
<polygon fill="#f5f5f5" stroke="transparent" points="533,-629.0782 533,-652.0782 737,-652.0782 737,-629.0782 533,-629.0782"/>
<polygon fill="none" stroke="#000000" points="533,-629.0782 533,-652.0782 737,-652.0782 737,-629.0782 533,-629.0782"/>
<text text-anchor="start" x="538" y="-637.6782" font-family="Helvetica,sans-Serif" font-weight="bold" font-size="11.00" fill="#000000">CompetencyTechnicalCareer</text>
<text text-anchor="start" x="702.5219" y="-637.1782" font-family="Helvetica,sans-Serif" font-size="11.00" fill="#000000">[table]</text>
<polygon fill="none" stroke="#000000" points="533,-610.0782 533,-629.0782 737,-629.0782 737,-610.0782 533,-610.0782"/>
<text text-anchor="start" x="536" y="-616.1782" font-family="Helvetica,sans-Serif" font-size="11.00" fill="#000000">...</text>
<polygon fill="#ffffff" stroke="transparent" points="533,-591.0782 533,-610.0782 620,-610.0782 620,-591.0782 533,-591.0782"/>
<polygon fill="none" stroke="#000000" points="533,-591.0782 533,-610.0782 620,-610.0782 620,-591.0782 533,-591.0782"/>
<text text-anchor="start" x="536" y="-597.1782" font-family="Helvetica,sans-Serif" font-size="11.00" fill="#000000">&lt; 2</text>
<polygon fill="#ffffff" stroke="transparent" points="620,-591.0782 620,-610.0782 691,-610.0782 691,-591.0782 620,-591.0782"/>
<polygon fill="none" stroke="#000000" points="620,-591.0782 620,-610.0782 691,-610.0782 691,-591.0782 620,-591.0782"/>
<text text-anchor="start" x="655.6105" y="-597.1782" font-family="Helvetica,sans-Serif" font-size="11.00" fill="#000000">0 rows</text>
<polygon fill="#ffffff" stroke="transparent" points="691,-591.0782 691,-610.0782 737,-610.0782 737,-591.0782 691,-591.0782"/>
<polygon fill="none" stroke="#000000" points="691,-591.0782 691,-610.0782 737,-610.0782 737,-591.0782 691,-591.0782"/>
<text text-anchor="start" x="727.8862" y="-597.1782" font-family="Helvetica,sans-Serif" font-size="11.00" fill="#000000"> &#160;</text>
</a>
</g>
</g>
<!-- CompetencyTechnicalCareer&#45;&gt;Competencies -->
<g id="edge11" class="edge">
<title>CompetencyTechnicalCareer:w&#45;&gt;Competencies:e</title>
<path fill="none" stroke="#000000" d="M518.351,-618.8184C498.4869,-618.1408 477.8904,-616.2126 459.1817,-613.9276"/>
<polygon fill="#000000" stroke="#000000" points="525.0013,-618.9363 532.9362,-622.6776 529.0006,-619.0072 533,-619.0782 533,-619.0782 533,-619.0782 529.0006,-619.0072 533.0638,-615.4787 525.0013,-618.9363 525.0013,-618.9363"/>
<ellipse fill="none" stroke="#000000" cx="521.8018" cy="-618.8795" rx="3.2" ry="3.2"/>
</g>
<!-- TechnicalCareers -->
<g id="node10" class="node">
<title>TechnicalCareers</title>
<g id="a_node10"><a xlink:href="../../tables/TechnicalCareers.html" xlink:title="TechnicalCareers" target="_top">
<polygon fill="#ffffff" stroke="transparent" points="321,-368.5782 321,-429.5782 460,-429.5782 460,-368.5782 321,-368.5782"/>
<polygon fill="#f5f5f5" stroke="transparent" points="321.5,-406.0782 321.5,-429.0782 460.5,-429.0782 460.5,-406.0782 321.5,-406.0782"/>
<polygon fill="none" stroke="#000000" points="321.5,-406.0782 321.5,-429.0782 460.5,-429.0782 460.5,-406.0782 321.5,-406.0782"/>
<text text-anchor="start" x="326.5" y="-414.6782" font-family="Helvetica,sans-Serif" font-weight="bold" font-size="11.00" fill="#000000">TechnicalCareers</text>
<text text-anchor="start" x="426.0219" y="-414.1782" font-family="Helvetica,sans-Serif" font-size="11.00" fill="#000000">[table]</text>
<polygon fill="none" stroke="#000000" points="321.5,-387.0782 321.5,-406.0782 460.5,-406.0782 460.5,-387.0782 321.5,-387.0782"/>
<text text-anchor="start" x="324.5" y="-393.1782" font-family="Helvetica,sans-Serif" font-size="11.00" fill="#000000">...</text>
<polygon fill="#ffffff" stroke="transparent" points="321.5,-368.0782 321.5,-387.0782 371.5,-387.0782 371.5,-368.0782 321.5,-368.0782"/>
<polygon fill="none" stroke="#000000" points="321.5,-368.0782 321.5,-387.0782 371.5,-387.0782 371.5,-368.0782 321.5,-368.0782"/>
<text text-anchor="start" x="324.5" y="-374.1782" font-family="Helvetica,sans-Serif" font-size="11.00" fill="#000000">&lt; 2</text>
<polygon fill="#ffffff" stroke="transparent" points="371.5,-368.0782 371.5,-387.0782 424.5,-387.0782 424.5,-368.0782 371.5,-368.0782"/>
<polygon fill="none" stroke="#000000" points="371.5,-368.0782 371.5,-387.0782 424.5,-387.0782 424.5,-368.0782 371.5,-368.0782"/>
<text text-anchor="start" x="389.1105" y="-374.1782" font-family="Helvetica,sans-Serif" font-size="11.00" fill="#000000">0 rows</text>
<polygon fill="#ffffff" stroke="transparent" points="424.5,-368.0782 424.5,-387.0782 460.5,-387.0782 460.5,-368.0782 424.5,-368.0782"/>
<polygon fill="none" stroke="#000000" points="424.5,-368.0782 424.5,-387.0782 460.5,-387.0782 460.5,-368.0782 424.5,-368.0782"/>
<text text-anchor="start" x="441.9053" y="-374.1782" font-family="Helvetica,sans-Serif" font-size="11.00" fill="#000000">6 &gt;</text>
</a>
</g>
</g>
<!-- CompetencyTechnicalCareer&#45;&gt;TechnicalCareers -->
<g id="edge12" class="edge">
<title>CompetencyTechnicalCareer:w&#45;&gt;TechnicalCareers:e</title>
<path fill="none" stroke="#000000" d="M519.2735,-614.0684C512.6303,-607.1537 511.8578,-594.0615 506,-581.0782 479.5316,-522.4126 512.9536,-490.5354 473,-440.0782 471.2128,-437.8211 469.2691,-435.6788 467.1996,-433.6462"/>
<polygon fill="#000000" stroke="#000000" points="525.4849,-616.3353 531.7657,-622.46 529.2424,-617.7067 533,-619.0782 533,-619.0782 533,-619.0782 529.2424,-617.7067 534.2343,-615.6964 525.4849,-616.3353 525.4849,-616.3353"/>
<ellipse fill="none" stroke="#000000" cx="522.4788" cy="-615.2382" rx="3.2" ry="3.2"/>
</g>
<!-- TechnicalCareers&#45;&gt;AspNetUsers -->
<g id="edge51" class="edge">
<title>TechnicalCareers:w&#45;&gt;AspNetUsers:e</title>
<path fill="none" stroke="#000000" d="M301.7341,-440.8147C287.4093,-457.5128 287.2348,-476.1094 265.5,-481.0782"/>
<polygon fill="#000000" stroke="#000000" points="306.8688,-436.1692 315.2164,-433.4715 309.835,-433.4855 312.8012,-430.8019 312.8012,-430.8019 312.8012,-430.8019 309.835,-433.4855 310.3859,-428.1323 306.8688,-436.1692 306.8688,-436.1692"/>
<ellipse fill="none" stroke="#000000" cx="304.4959" cy="-438.316" rx="3.2" ry="3.2"/>
</g>
<!-- TechnicalCareers&#45;&gt;AspNetUsers -->
<g id="edge52" class="edge">
<title>TechnicalCareers:w&#45;&gt;AspNetUsers:e</title>
<path fill="none" stroke="#000000" d="M316.728,-441.2614C313.7342,-443.1548 310.812,-445.0946 308,-447.0782 286.553,-462.2065 291.7458,-488.0782 265.5,-481.0782"/>
<polygon fill="#000000" stroke="#000000" points="322.469,-437.84 331.1842,-436.8369 325.9051,-435.7922 329.3412,-433.7445 329.3412,-433.7445 329.3412,-433.7445 325.9051,-435.7922 327.4982,-430.652 322.469,-437.84 322.469,-437.84"/>
<ellipse fill="none" stroke="#000000" cx="319.7201" cy="-439.4782" rx="3.2" ry="3.2"/>
</g>
<!-- Coordinators -->
<g id="node11" class="node">
<title>Coordinators</title>
<g id="a_node11"><a xlink:href="../../tables/Coordinators.html" xlink:title="Coordinators" target="_top">
<polygon fill="#ffffff" stroke="transparent" points="578,-317.5782 578,-378.5782 692,-378.5782 692,-317.5782 578,-317.5782"/>
<polygon fill="#f5f5f5" stroke="transparent" points="578,-355.0782 578,-378.0782 692,-378.0782 692,-355.0782 578,-355.0782"/>
<polygon fill="none" stroke="#000000" points="578,-355.0782 578,-378.0782 692,-378.0782 692,-355.0782 578,-355.0782"/>
<text text-anchor="start" x="583" y="-363.6782" font-family="Helvetica,sans-Serif" font-weight="bold" font-size="11.00" fill="#000000">Coordinators</text>
<text text-anchor="start" x="657.5219" y="-363.1782" font-family="Helvetica,sans-Serif" font-size="11.00" fill="#000000">[table]</text>
<polygon fill="none" stroke="#000000" points="578,-336.0782 578,-355.0782 692,-355.0782 692,-336.0782 578,-336.0782"/>
<text text-anchor="start" x="581" y="-342.1782" font-family="Helvetica,sans-Serif" font-size="11.00" fill="#000000">...</text>
<polygon fill="#ffffff" stroke="transparent" points="578,-317.0782 578,-336.0782 620,-336.0782 620,-317.0782 578,-317.0782"/>
<polygon fill="none" stroke="#000000" points="578,-317.0782 578,-336.0782 620,-336.0782 620,-317.0782 578,-317.0782"/>
<text text-anchor="start" x="581" y="-323.1782" font-family="Helvetica,sans-Serif" font-size="11.00" fill="#000000">&lt; 2</text>
<polygon fill="#ffffff" stroke="transparent" points="620,-317.0782 620,-336.0782 669,-336.0782 669,-317.0782 620,-317.0782"/>
<polygon fill="none" stroke="#000000" points="620,-317.0782 620,-336.0782 669,-336.0782 669,-317.0782 620,-317.0782"/>
<text text-anchor="start" x="633.6105" y="-323.1782" font-family="Helvetica,sans-Serif" font-size="11.00" fill="#000000">0 rows</text>
<polygon fill="#ffffff" stroke="transparent" points="669,-317.0782 669,-336.0782 692,-336.0782 692,-317.0782 669,-317.0782"/>
<polygon fill="none" stroke="#000000" points="669,-317.0782 669,-336.0782 692,-336.0782 692,-317.0782 669,-317.0782"/>
<text text-anchor="start" x="682.8862" y="-323.1782" font-family="Helvetica,sans-Serif" font-size="11.00" fill="#000000"> &#160;</text>
</a>
</g>
</g>
<!-- Coordinators&#45;&gt;AspNetUsers -->
<g id="edge14" class="edge">
<title>Coordinators:w&#45;&gt;AspNetUsers:e</title>
<path fill="none" stroke="#000000" d="M559.8671,-330.3993C541.5533,-324.4397 522.4998,-316.7666 506,-307.0782 488.6473,-296.8889 491.7093,-283.4876 473,-276.0782 404.8188,-249.0764 364.8747,-229.7851 308,-276.0782 235.8349,-334.8167 358.5485,-481.0782 265.5,-481.0782"/>
<polygon fill="#000000" stroke="#000000" points="570.3693,-329.4787 567.9918,-337.1173 566.4641,-336.6418 568.8416,-329.0032 570.3693,-329.4787"/>
<polyline fill="none" stroke="#000000" points="569.9444,-333.5358 566.1251,-332.347 "/>
<ellipse fill="none" stroke="#000000" cx="563.0697" cy="-331.396" rx="3.2" ry="3.2"/>
</g>
<!-- Coordinators&#45;&gt;TechnicalCareers -->
<g id="edge13" class="edge">
<title>Coordinators:w&#45;&gt;TechnicalCareers:e</title>
<path fill="none" stroke="#000000" d="M555.4906,-364.6629C527.4588,-370.5101 495.9971,-377.0726 468.1231,-382.8868"/>
<polygon fill="#000000" stroke="#000000" points="561.9682,-363.3118 570.5348,-365.2024 565.8839,-362.495 569.7997,-361.6782 569.7997,-361.6782 569.7997,-361.6782 565.8839,-362.495 569.0646,-358.1541 561.9682,-363.3118 561.9682,-363.3118"/>
<ellipse fill="none" stroke="#000000" cx="558.8356" cy="-363.9653" rx="3.2" ry="3.2"/>
</g>
<!-- EvaluationPeriods -->
<g id="node12" class="node">
<title>EvaluationPeriods</title>
<g id="a_node12"><a xlink:href="../../tables/EvaluationPeriods.html" xlink:title="EvaluationPeriods" target="_top">
<polygon fill="#ffffff" stroke="transparent" points="319,-450.5782 319,-511.5782 462,-511.5782 462,-450.5782 319,-450.5782"/>
<polygon fill="#f5f5f5" stroke="transparent" points="319.5,-488.0782 319.5,-511.0782 462.5,-511.0782 462.5,-488.0782 319.5,-488.0782"/>
<polygon fill="none" stroke="#000000" points="319.5,-488.0782 319.5,-511.0782 462.5,-511.0782 462.5,-488.0782 319.5,-488.0782"/>
<text text-anchor="start" x="324.5" y="-496.6782" font-family="Helvetica,sans-Serif" font-weight="bold" font-size="11.00" fill="#000000">EvaluationPeriods</text>
<text text-anchor="start" x="428.0219" y="-496.1782" font-family="Helvetica,sans-Serif" font-size="11.00" fill="#000000">[table]</text>
<polygon fill="none" stroke="#000000" points="319.5,-469.0782 319.5,-488.0782 462.5,-488.0782 462.5,-469.0782 319.5,-469.0782"/>
<text text-anchor="start" x="322.5" y="-475.1782" font-family="Helvetica,sans-Serif" font-size="11.00" fill="#000000">...</text>
<polygon fill="#ffffff" stroke="transparent" points="319.5,-450.0782 319.5,-469.0782 371.5,-469.0782 371.5,-450.0782 319.5,-450.0782"/>
<polygon fill="none" stroke="#000000" points="319.5,-450.0782 319.5,-469.0782 371.5,-469.0782 371.5,-450.0782 319.5,-450.0782"/>
<text text-anchor="start" x="322.5" y="-456.1782" font-family="Helvetica,sans-Serif" font-size="11.00" fill="#000000">&lt; 2</text>
<polygon fill="#ffffff" stroke="transparent" points="371.5,-450.0782 371.5,-469.0782 425.5,-469.0782 425.5,-450.0782 371.5,-450.0782"/>
<polygon fill="none" stroke="#000000" points="371.5,-450.0782 371.5,-469.0782 425.5,-469.0782 425.5,-450.0782 371.5,-450.0782"/>
<text text-anchor="start" x="390.1105" y="-456.1782" font-family="Helvetica,sans-Serif" font-size="11.00" fill="#000000">0 rows</text>
<polygon fill="#ffffff" stroke="transparent" points="425.5,-450.0782 425.5,-469.0782 462.5,-469.0782 462.5,-450.0782 425.5,-450.0782"/>
<polygon fill="none" stroke="#000000" points="425.5,-450.0782 425.5,-469.0782 462.5,-469.0782 462.5,-450.0782 425.5,-450.0782"/>
<text text-anchor="start" x="443.9053" y="-456.1782" font-family="Helvetica,sans-Serif" font-size="11.00" fill="#000000">3 &gt;</text>
</a>
</g>
</g>
<!-- EvaluationPeriods&#45;&gt;AspNetUsers -->
<g id="edge15" class="edge">
<title>EvaluationPeriods:w&#45;&gt;AspNetUsers:e</title>
<path fill="none" stroke="#000000" d="M296.2277,-478.4304C285.8588,-479.1203 275.4564,-480.0029 265.5,-481.0782"/>
<polygon fill="#000000" stroke="#000000" points="302.8279,-478.0472 311.0232,-481.1774 306.8212,-477.8154 310.8145,-477.5835 310.8145,-477.5835 310.8145,-477.5835 306.8212,-477.8154 310.6058,-473.9895 302.8279,-478.0472 302.8279,-478.0472"/>
<ellipse fill="none" stroke="#000000" cx="299.6333" cy="-478.2328" rx="3.2" ry="3.2"/>
</g>
<!-- EvaluationPeriods&#45;&gt;AspNetUsers -->
<g id="edge16" class="edge">
<title>EvaluationPeriods:w&#45;&gt;AspNetUsers:e</title>
<path fill="none" stroke="#000000" d="M296.2277,-484.1672C285.8588,-483.3623 275.4564,-482.3327 265.5,-481.0782"/>
<polygon fill="#000000" stroke="#000000" points="302.8328,-484.6146 310.5712,-488.7471 306.8236,-484.8849 310.8145,-485.1553 310.8145,-485.1553 310.8145,-485.1553 306.8236,-484.8849 311.0578,-481.5635 302.8328,-484.6146 302.8328,-484.6146"/>
<ellipse fill="none" stroke="#000000" cx="299.6401" cy="-484.3983" rx="3.2" ry="3.2"/>
</g>
<!-- EvaluationPeriodTechnicalCareer -->
<g id="node13" class="node">
<title>EvaluationPeriodTechnicalCareer</title>
<g id="a_node13"><a xlink:href="../../tables/EvaluationPeriodTechnicalCareer.html" xlink:title="EvaluationPeriodTechnicalCareer" target="_top">
<polygon fill="#ffffff" stroke="transparent" points="520,-399.5782 520,-460.5782 750,-460.5782 750,-399.5782 520,-399.5782"/>
<polygon fill="#f5f5f5" stroke="transparent" points="520,-437.0782 520,-460.0782 750,-460.0782 750,-437.0782 520,-437.0782"/>
<polygon fill="none" stroke="#000000" points="520,-437.0782 520,-460.0782 750,-460.0782 750,-437.0782 520,-437.0782"/>
<text text-anchor="start" x="525" y="-445.6782" font-family="Helvetica,sans-Serif" font-weight="bold" font-size="11.00" fill="#000000">EvaluationPeriodTechnicalCareer</text>
<text text-anchor="start" x="715.5219" y="-445.1782" font-family="Helvetica,sans-Serif" font-size="11.00" fill="#000000">[table]</text>
<polygon fill="none" stroke="#000000" points="520,-418.0782 520,-437.0782 750,-437.0782 750,-418.0782 520,-418.0782"/>
<text text-anchor="start" x="523" y="-424.1782" font-family="Helvetica,sans-Serif" font-size="11.00" fill="#000000">...</text>
<polygon fill="#ffffff" stroke="transparent" points="520,-399.0782 520,-418.0782 620,-418.0782 620,-399.0782 520,-399.0782"/>
<polygon fill="none" stroke="#000000" points="520,-399.0782 520,-418.0782 620,-418.0782 620,-399.0782 520,-399.0782"/>
<text text-anchor="start" x="523" y="-405.1782" font-family="Helvetica,sans-Serif" font-size="11.00" fill="#000000">&lt; 2</text>
<polygon fill="#ffffff" stroke="transparent" points="620,-399.0782 620,-418.0782 698,-418.0782 698,-399.0782 620,-399.0782"/>
<polygon fill="none" stroke="#000000" points="620,-399.0782 620,-418.0782 698,-418.0782 698,-399.0782 620,-399.0782"/>
<text text-anchor="start" x="662.6105" y="-405.1782" font-family="Helvetica,sans-Serif" font-size="11.00" fill="#000000">0 rows</text>
<polygon fill="#ffffff" stroke="transparent" points="698,-399.0782 698,-418.0782 750,-418.0782 750,-399.0782 698,-399.0782"/>
<polygon fill="none" stroke="#000000" points="698,-399.0782 698,-418.0782 750,-418.0782 750,-399.0782 698,-399.0782"/>
<text text-anchor="start" x="740.8862" y="-405.1782" font-family="Helvetica,sans-Serif" font-size="11.00" fill="#000000"> &#160;</text>
</a>
</g>
</g>
<!-- EvaluationPeriodTechnicalCareer&#45;&gt;TechnicalCareers -->
<g id="edge18" class="edge">
<title>EvaluationPeriodTechnicalCareer:w&#45;&gt;TechnicalCareers:e</title>
<path fill="none" stroke="#000000" d="M505.549,-426.5599C493.1173,-425.7021 480.4693,-423.8445 468.3285,-421.4792"/>
<polygon fill="#000000" stroke="#000000" points="512.0051,-426.7914 519.871,-430.6758 516.0026,-426.9348 520,-427.0782 520,-427.0782 520,-427.0782 516.0026,-426.9348 520.129,-423.4805 512.0051,-426.7914 512.0051,-426.7914"/>
<ellipse fill="none" stroke="#000000" cx="508.8072" cy="-426.6767" rx="3.2" ry="3.2"/>
</g>
<!-- EvaluationPeriodTechnicalCareer&#45;&gt;EvaluationPeriods -->
<g id="edge17" class="edge">
<title>EvaluationPeriodTechnicalCareer:w&#45;&gt;EvaluationPeriods:e</title>
<path fill="none" stroke="#000000" d="M505.6496,-429.3554C492.8634,-432.6641 476.3541,-439.2148 459.851,-446.5734"/>
<polygon fill="#000000" stroke="#000000" points="512.0989,-428.332 520.5642,-430.6337 516.0494,-427.7051 520,-427.0782 520,-427.0782 520,-427.0782 516.0494,-427.7051 519.4358,-423.5226 512.0989,-428.332 512.0989,-428.332"/>
<ellipse fill="none" stroke="#000000" cx="508.9384" cy="-428.8336" rx="3.2" ry="3.2"/>
</g>
<!-- FormQuestions -->
<g id="node14" class="node">
<title>FormQuestions</title>
<g id="a_node14"><a xlink:href="../../tables/FormQuestions.html" xlink:title="FormQuestions" target="_top">
<polygon fill="#ffffff" stroke="transparent" points="571.5,-1134.5782 571.5,-1195.5782 698.5,-1195.5782 698.5,-1134.5782 571.5,-1134.5782"/>
<polygon fill="#f5f5f5" stroke="transparent" points="572,-1172.0782 572,-1195.0782 699,-1195.0782 699,-1172.0782 572,-1172.0782"/>
<polygon fill="none" stroke="#000000" points="572,-1172.0782 572,-1195.0782 699,-1195.0782 699,-1172.0782 572,-1172.0782"/>
<text text-anchor="start" x="577" y="-1180.6782" font-family="Helvetica,sans-Serif" font-weight="bold" font-size="11.00" fill="#000000">FormQuestions</text>
<text text-anchor="start" x="664.5219" y="-1180.1782" font-family="Helvetica,sans-Serif" font-size="11.00" fill="#000000">[table]</text>
<polygon fill="none" stroke="#000000" points="572,-1153.0782 572,-1172.0782 699,-1172.0782 699,-1153.0782 572,-1153.0782"/>
<text text-anchor="start" x="575" y="-1159.1782" font-family="Helvetica,sans-Serif" font-size="11.00" fill="#000000">...</text>
<polygon fill="#ffffff" stroke="transparent" points="572,-1134.0782 572,-1153.0782 616,-1153.0782 616,-1134.0782 572,-1134.0782"/>
<polygon fill="none" stroke="#000000" points="572,-1134.0782 572,-1153.0782 616,-1153.0782 616,-1134.0782 572,-1134.0782"/>
<text text-anchor="start" x="575" y="-1140.1782" font-family="Helvetica,sans-Serif" font-size="11.00" fill="#000000">&lt; 3</text>
<polygon fill="#ffffff" stroke="transparent" points="616,-1134.0782 616,-1153.0782 666,-1153.0782 666,-1134.0782 616,-1134.0782"/>
<polygon fill="none" stroke="#000000" points="616,-1134.0782 616,-1153.0782 666,-1153.0782 666,-1134.0782 616,-1134.0782"/>
<text text-anchor="start" x="630.6105" y="-1140.1782" font-family="Helvetica,sans-Serif" font-size="11.00" fill="#000000">0 rows</text>
<polygon fill="#ffffff" stroke="transparent" points="666,-1134.0782 666,-1153.0782 699,-1153.0782 699,-1134.0782 666,-1134.0782"/>
<polygon fill="none" stroke="#000000" points="666,-1134.0782 666,-1153.0782 699,-1153.0782 699,-1134.0782 666,-1134.0782"/>
<text text-anchor="start" x="680.4053" y="-1140.1782" font-family="Helvetica,sans-Serif" font-size="11.00" fill="#000000">1 &gt;</text>
</a>
</g>
</g>
<!-- FormQuestions&#45;&gt;AspNetUsers -->
<g id="edge20" class="edge">
<title>FormQuestions:w&#45;&gt;AspNetUsers:e</title>
<path fill="none" stroke="#000000" d="M548.8222,-1166.7804C463.3536,-1169.3004 340.5698,-1168.8443 308,-1136.0782 256.1164,-1083.8816 339.0961,-475.0782 265.5,-481.0782"/>
<polygon fill="#000000" stroke="#000000" points="555.2604,-1166.5746 563.3714,-1169.917 559.2583,-1166.4467 563.2563,-1166.3188 563.2563,-1166.3188 563.2563,-1166.3188 559.2583,-1166.4467 563.1412,-1162.7207 555.2604,-1166.5746 555.2604,-1166.5746"/>
<ellipse fill="none" stroke="#000000" cx="552.062" cy="-1166.6769" rx="3.2" ry="3.2"/>
</g>
<!-- FormQuestions&#45;&gt;AspNetUsers -->
<g id="edge21" class="edge">
<title>FormQuestions:w&#45;&gt;AspNetUsers:e</title>
<path fill="none" stroke="#000000" d="M548.8222,-1176.4642C463.3536,-1182.3004 340.5698,-1181.8443 308,-1149.0782 256.1164,-1096.8816 339.0961,-488.0782 265.5,-481.0782"/>
<polygon fill="#000000" stroke="#000000" points="555.2782,-1175.9852 563.5227,-1178.9833 559.2672,-1175.6892 563.2563,-1175.3931 563.2563,-1175.3931 563.2563,-1175.3931 559.2672,-1175.6892 562.9899,-1171.803 555.2782,-1175.9852 555.2782,-1175.9852"/>
<ellipse fill="none" stroke="#000000" cx="552.087" cy="-1176.222" rx="3.2" ry="3.2"/>
</g>
<!-- FormQuestions&#45;&gt;Competencies -->
<g id="edge19" class="edge">
<title>FormQuestions:w&#45;&gt;Competencies:e</title>
<path fill="none" stroke="#000000" d="M621.6793,-1116.1948C592.0635,-1009.3482 519.6941,-758.6029 473,-684.0782 462.3426,-667.0688 447.4228,-650.9883 433.1968,-637.7065"/>
<polygon fill="#000000" stroke="#000000" points="623.4391,-1122.5713 622.0971,-1131.2408 624.5032,-1126.4272 625.5674,-1130.283 625.5674,-1130.283 625.5674,-1130.283 624.5032,-1126.4272 629.0376,-1129.3253 623.4391,-1122.5713 623.4391,-1122.5713"/>
<ellipse fill="none" stroke="#000000" cx="622.5877" cy="-1119.4866" rx="3.2" ry="3.2"/>
</g>
<!-- ProfessorCompetencyAssignments -->
<g id="node15" class="node">
<title>ProfessorCompetencyAssignments</title>
<g id="a_node15"><a xlink:href="../../tables/ProfessorCompetencyAssignments.html" xlink:title="ProfessorCompetencyAssignments" target="_top">
<polygon fill="#ffffff" stroke="transparent" points="514,-509.5782 514,-570.5782 756,-570.5782 756,-509.5782 514,-509.5782"/>
<polygon fill="#f5f5f5" stroke="transparent" points="514,-547.0782 514,-570.0782 756,-570.0782 756,-547.0782 514,-547.0782"/>
<polygon fill="none" stroke="#000000" points="514,-547.0782 514,-570.0782 756,-570.0782 756,-547.0782 514,-547.0782"/>
<text text-anchor="start" x="519" y="-555.6782" font-family="Helvetica,sans-Serif" font-weight="bold" font-size="11.00" fill="#000000">ProfessorCompetencyAssignments</text>
<text text-anchor="start" x="721.5219" y="-555.1782" font-family="Helvetica,sans-Serif" font-size="11.00" fill="#000000">[table]</text>
<polygon fill="none" stroke="#000000" points="514,-528.0782 514,-547.0782 756,-547.0782 756,-528.0782 514,-528.0782"/>
<text text-anchor="start" x="517" y="-534.1782" font-family="Helvetica,sans-Serif" font-size="11.00" fill="#000000">...</text>
<polygon fill="#ffffff" stroke="transparent" points="514,-509.0782 514,-528.0782 616,-528.0782 616,-509.0782 514,-509.0782"/>
<polygon fill="none" stroke="#000000" points="514,-509.0782 514,-528.0782 616,-528.0782 616,-509.0782 514,-509.0782"/>
<text text-anchor="start" x="517" y="-515.1782" font-family="Helvetica,sans-Serif" font-size="11.00" fill="#000000">&lt; 6</text>
<polygon fill="#ffffff" stroke="transparent" points="616,-509.0782 616,-528.0782 694,-528.0782 694,-509.0782 616,-509.0782"/>
<polygon fill="none" stroke="#000000" points="616,-509.0782 616,-528.0782 694,-528.0782 694,-509.0782 616,-509.0782"/>
<text text-anchor="start" x="658.6105" y="-515.1782" font-family="Helvetica,sans-Serif" font-size="11.00" fill="#000000">0 rows</text>
<polygon fill="#ffffff" stroke="transparent" points="694,-509.0782 694,-528.0782 756,-528.0782 756,-509.0782 694,-509.0782"/>
<polygon fill="none" stroke="#000000" points="694,-509.0782 694,-528.0782 756,-528.0782 756,-509.0782 694,-509.0782"/>
<text text-anchor="start" x="737.4053" y="-515.1782" font-family="Helvetica,sans-Serif" font-size="11.00" fill="#000000">1 &gt;</text>
</a>
</g>
</g>
<!-- ProfessorCompetencyAssignments&#45;&gt;AspNetUsers -->
<g id="edge23" class="edge">
<title>ProfessorCompetencyAssignments:w&#45;&gt;AspNetUsers:e</title>
<path fill="none" stroke="#000000" d="M491.5751,-548.0565C432.5362,-547.7923 364.8136,-540.8531 308,-516.0782 283.9422,-505.5872 291.7458,-475.0782 265.5,-481.0782"/>
<polygon fill="#000000" stroke="#000000" points="497.9908,-548.0278 506.0068,-551.5919 501.9907,-548.0099 505.9907,-547.992 505.9907,-547.992 505.9907,-547.992 501.9907,-548.0099 505.9746,-544.392 497.9908,-548.0278 497.9908,-548.0278"/>
<ellipse fill="none" stroke="#000000" cx="494.7908" cy="-548.0422" rx="3.2" ry="3.2"/>
</g>
<!-- ProfessorCompetencyAssignments&#45;&gt;AspNetUsers -->
<g id="edge27" class="edge">
<title>ProfessorCompetencyAssignments:w&#45;&gt;AspNetUsers:e</title>
<path fill="none" stroke="#000000" d="M491.5751,-560.0527C432.5362,-560.7923 364.8136,-553.8531 308,-529.0782 283.9422,-518.5872 291.7458,-488.0782 265.5,-481.0782"/>
<polygon fill="#000000" stroke="#000000" points="497.9928,-559.9041 506.0741,-563.3179 501.9918,-559.8115 505.9907,-559.7189 505.9907,-559.7189 505.9907,-559.7189 501.9918,-559.8115 505.9073,-556.1198 497.9928,-559.9041 497.9928,-559.9041"/>
<ellipse fill="none" stroke="#000000" cx="494.7937" cy="-559.9782" rx="3.2" ry="3.2"/>
</g>
<!-- ProfessorCompetencyAssignments&#45;&gt;Competencies -->
<g id="edge22" class="edge">
<title>ProfessorCompetencyAssignments:w&#45;&gt;Competencies:e</title>
<path fill="none" stroke="#000000" d="M491.9792,-576.9301C480.605,-579.8609 469.478,-582.728 459.0076,-585.4259"/>
<polygon fill="#000000" stroke="#000000" points="498.2012,-575.327 506.8465,-576.8169 502.0747,-574.3289 505.9482,-573.3308 505.9482,-573.3308 505.9482,-573.3308 502.0747,-574.3289 505.0499,-569.8446 498.2012,-575.327 498.2012,-575.327"/>
<ellipse fill="none" stroke="#000000" cx="495.1024" cy="-576.1254" rx="3.2" ry="3.2"/>
</g>
<!-- ProfessorCompetencyAssignments&#45;&gt;TechnicalCareers -->
<g id="edge26" class="edge">
<title>ProfessorCompetencyAssignments:w&#45;&gt;TechnicalCareers:e</title>
<path fill="none" stroke="#000000" d="M549.3642,-498.3795C534.4908,-489.9937 519.484,-480.7588 506,-471.0782 489.6534,-459.3424 489.5204,-451.5679 473,-440.0782 469.8486,-437.8864 466.563,-435.7453 463.1961,-433.6645"/>
<polygon fill="#000000" stroke="#000000" points="555.3475,-501.6674 560.6249,-508.6752 558.853,-503.5938 562.3586,-505.5202 562.3586,-505.5202 562.3586,-505.5202 558.853,-503.5938 564.0924,-502.3651 555.3475,-501.6674 555.3475,-501.6674"/>
<ellipse fill="none" stroke="#000000" cx="552.543" cy="-500.1263" rx="3.2" ry="3.2"/>
</g>
<!-- ProfessorCompetencyAssignments&#45;&gt;EvaluationPeriods -->
<g id="edge24" class="edge">
<title>ProfessorCompetencyAssignments:w&#45;&gt;EvaluationPeriods:e</title>
<path fill="none" stroke="#000000" d="M491.7585,-505.5127C484.4313,-503.7446 477.2078,-502.0015 470.1977,-500.3099"/>
<polygon fill="#000000" stroke="#000000" points="498.1714,-507.0602 505.1037,-512.4364 502.0598,-507.9985 505.9482,-508.9368 505.9482,-508.9368 505.9482,-508.9368 502.0598,-507.9985 506.7927,-505.4373 498.1714,-507.0602 498.1714,-507.0602"/>
<ellipse fill="none" stroke="#000000" cx="495.0607" cy="-506.3095" rx="3.2" ry="3.2"/>
</g>
<!-- Professors -->
<g id="node16" class="node">
<title>Professors</title>
<g id="a_node16"><a xlink:href="../../tables/Professors.html" xlink:title="Professors" target="_top">
<polygon fill="#ffffff" stroke="transparent" points="340,-286.5782 340,-347.5782 441,-347.5782 441,-286.5782 340,-286.5782"/>
<polygon fill="#f5f5f5" stroke="transparent" points="340.5,-324.0782 340.5,-347.0782 441.5,-347.0782 441.5,-324.0782 340.5,-324.0782"/>
<polygon fill="none" stroke="#000000" points="340.5,-324.0782 340.5,-347.0782 441.5,-347.0782 441.5,-324.0782 340.5,-324.0782"/>
<text text-anchor="start" x="345.5" y="-332.6782" font-family="Helvetica,sans-Serif" font-weight="bold" font-size="11.00" fill="#000000">Professors</text>
<text text-anchor="start" x="407.0219" y="-332.1782" font-family="Helvetica,sans-Serif" font-size="11.00" fill="#000000">[table]</text>
<polygon fill="none" stroke="#000000" points="340.5,-305.0782 340.5,-324.0782 441.5,-324.0782 441.5,-305.0782 340.5,-305.0782"/>
<text text-anchor="start" x="343.5" y="-311.1782" font-family="Helvetica,sans-Serif" font-size="11.00" fill="#000000">...</text>
<polygon fill="#ffffff" stroke="transparent" points="340.5,-286.0782 340.5,-305.0782 371.5,-305.0782 371.5,-286.0782 340.5,-286.0782"/>
<polygon fill="none" stroke="#000000" points="340.5,-286.0782 340.5,-305.0782 371.5,-305.0782 371.5,-286.0782 340.5,-286.0782"/>
<text text-anchor="start" x="343.5" y="-292.1782" font-family="Helvetica,sans-Serif" font-size="11.00" fill="#000000">&lt; 1</text>
<polygon fill="#ffffff" stroke="transparent" points="371.5,-286.0782 371.5,-305.0782 414.5,-305.0782 414.5,-286.0782 371.5,-286.0782"/>
<polygon fill="none" stroke="#000000" points="371.5,-286.0782 371.5,-305.0782 414.5,-305.0782 414.5,-286.0782 371.5,-286.0782"/>
<text text-anchor="start" x="379.1105" y="-292.1782" font-family="Helvetica,sans-Serif" font-size="11.00" fill="#000000">0 rows</text>
<polygon fill="#ffffff" stroke="transparent" points="414.5,-286.0782 414.5,-305.0782 441.5,-305.0782 441.5,-286.0782 414.5,-286.0782"/>
<polygon fill="none" stroke="#000000" points="414.5,-286.0782 414.5,-305.0782 441.5,-305.0782 441.5,-286.0782 414.5,-286.0782"/>
<text text-anchor="start" x="422.9053" y="-292.1782" font-family="Helvetica,sans-Serif" font-size="11.00" fill="#000000">2 &gt;</text>
</a>
</g>
</g>
<!-- ProfessorCompetencyAssignments&#45;&gt;Professors -->
<g id="edge25" class="edge">
<title>ProfessorCompetencyAssignments:w&#45;&gt;Professors:e</title>
<path fill="none" stroke="#000000" d="M534.7037,-497.3226C523.9966,-489.7492 514.0831,-481.0354 506,-471.0782 473.025,-430.4576 506.5794,-398.2005 473,-358.0782 466.4303,-350.2283 457.9892,-343.7409 449.023,-338.4253"/>
<polygon fill="#000000" stroke="#000000" points="540.3745,-501.0226 545.1073,-508.4091 543.7245,-503.2084 547.0745,-505.3941 547.0745,-505.3941 547.0745,-505.3941 543.7245,-503.2084 549.0417,-502.3792 540.3745,-501.0226 540.3745,-501.0226"/>
<ellipse fill="none" stroke="#000000" cx="537.6945" cy="-499.274" rx="3.2" ry="3.2"/>
</g>
<!-- Professors&#45;&gt;AspNetUsers -->
<g id="edge28" class="edge">
<title>Professors:w&#45;&gt;AspNetUsers:e</title>
<path fill="none" stroke="#000000" d="M322.9689,-344.74C317.4733,-348.6801 312.3659,-353.1117 308,-358.0782 269.8134,-401.5179 323.338,-481.0782 265.5,-481.0782"/>
<polygon fill="#000000" stroke="#000000" points="329.0218,-336.0303 333.3844,-342.7361 332.0432,-343.6086 327.6807,-336.9028 329.0218,-336.0303"/>
<polyline fill="none" stroke="#000000" points="331.8737,-338.9469 328.5208,-341.1282 "/>
<ellipse fill="none" stroke="#000000" cx="325.8384" cy="-342.8732" rx="3.2" ry="3.2"/>
</g>
<!-- QuestionResponses -->
<g id="node17" class="node">
<title>QuestionResponses</title>
<g id="a_node17"><a xlink:href="../../tables/QuestionResponses.html" xlink:title="QuestionResponses" target="_top">
<polygon fill="#ffffff" stroke="transparent" points="1077,-261.5782 1077,-322.5782 1232,-322.5782 1232,-261.5782 1077,-261.5782"/>
<polygon fill="#f5f5f5" stroke="transparent" points="1077.5,-299.0782 1077.5,-322.0782 1232.5,-322.0782 1232.5,-299.0782 1077.5,-299.0782"/>
<polygon fill="none" stroke="#000000" points="1077.5,-299.0782 1077.5,-322.0782 1232.5,-322.0782 1232.5,-299.0782 1077.5,-299.0782"/>
<text text-anchor="start" x="1082.5" y="-307.6782" font-family="Helvetica,sans-Serif" font-weight="bold" font-size="11.00" fill="#000000">QuestionResponses</text>
<text text-anchor="start" x="1198.0219" y="-307.1782" font-family="Helvetica,sans-Serif" font-size="11.00" fill="#000000">[table]</text>
<polygon fill="none" stroke="#000000" points="1077.5,-280.0782 1077.5,-299.0782 1232.5,-299.0782 1232.5,-280.0782 1077.5,-280.0782"/>
<text text-anchor="start" x="1080.5" y="-286.1782" font-family="Helvetica,sans-Serif" font-size="11.00" fill="#000000">...</text>
<polygon fill="#ffffff" stroke="transparent" points="1077.5,-261.0782 1077.5,-280.0782 1140.5,-280.0782 1140.5,-261.0782 1077.5,-261.0782"/>
<polygon fill="none" stroke="#000000" points="1077.5,-261.0782 1077.5,-280.0782 1140.5,-280.0782 1140.5,-261.0782 1077.5,-261.0782"/>
<text text-anchor="start" x="1080.5" y="-267.1782" font-family="Helvetica,sans-Serif" font-size="11.00" fill="#000000">&lt; 4</text>
<polygon fill="#ffffff" stroke="transparent" points="1140.5,-261.0782 1140.5,-280.0782 1199.5,-280.0782 1199.5,-261.0782 1140.5,-261.0782"/>
<polygon fill="none" stroke="#000000" points="1140.5,-261.0782 1140.5,-280.0782 1199.5,-280.0782 1199.5,-261.0782 1140.5,-261.0782"/>
<text text-anchor="start" x="1164.1105" y="-267.1782" font-family="Helvetica,sans-Serif" font-size="11.00" fill="#000000">0 rows</text>
<polygon fill="#ffffff" stroke="transparent" points="1199.5,-261.0782 1199.5,-280.0782 1232.5,-280.0782 1232.5,-261.0782 1199.5,-261.0782"/>
<polygon fill="none" stroke="#000000" points="1199.5,-261.0782 1199.5,-280.0782 1232.5,-280.0782 1232.5,-261.0782 1199.5,-261.0782"/>
<text text-anchor="start" x="1223.3862" y="-267.1782" font-family="Helvetica,sans-Serif" font-size="11.00" fill="#000000"> &#160;</text>
</a>
</g>
</g>
<!-- QuestionResponses&#45;&gt;AspNetUsers -->
<g id="edge29" class="edge">
<title>QuestionResponses:w&#45;&gt;AspNetUsers:e</title>
<path fill="none" stroke="#000000" d="M1142.6553,-243.2448C1127.0771,-192.8925 1094.5541,-117.0829 1036,-82.0782 945.3024,-27.8574 374.1368,-13.5649 308,-73.0782 241.2241,-133.1666 355.3312,-475.0782 265.5,-481.0782"/>
<polygon fill="#000000" stroke="#000000" points="1144.5353,-249.67 1143.3269,-258.3591 1145.6587,-253.5091 1146.782,-257.3481 1146.782,-257.3481 1146.782,-257.3481 1145.6587,-253.5091 1150.2372,-256.3371 1144.5353,-249.67 1144.5353,-249.67"/>
<ellipse fill="none" stroke="#000000" cx="1143.6367" cy="-246.5988" rx="3.2" ry="3.2"/>
</g>
<!-- QuestionResponses&#45;&gt;AspNetUsers -->
<g id="edge32" class="edge">
<title>QuestionResponses:w&#45;&gt;AspNetUsers:e</title>
<path fill="none" stroke="#000000" d="M1139.5909,-243.7334C1122.9836,-196.7336 1090.9576,-127.9328 1036,-95.0782 945.3024,-40.8574 374.1368,-26.5649 308,-86.0782 241.2241,-146.1666 355.3312,-488.0782 265.5,-481.0782"/>
<polygon fill="#000000" stroke="#000000" points="1141.6988,-249.9762 1140.8473,-258.7075 1142.9785,-253.766 1144.2581,-257.5557 1144.2581,-257.5557 1144.2581,-257.5557 1142.9785,-253.766 1147.669,-256.404 1141.6988,-249.9762 1141.6988,-249.9762"/>
<ellipse fill="none" stroke="#000000" cx="1140.675" cy="-246.9444" rx="3.2" ry="3.2"/>
</g>
<!-- QuestionResponses&#45;&gt;FormQuestions -->
<g id="edge30" class="edge">
<title>QuestionResponses:w&#45;&gt;FormQuestions:e</title>
<path fill="none" stroke="#000000" d="M1145.5598,-341.1741C1117.0767,-483.4817 1015.1389,-900.0158 764,-1120.0782 747.8552,-1134.2251 727.0038,-1143.9936 706.791,-1150.7112"/>
<polygon fill="#000000" stroke="#000000" points="1146.8487,-334.5844 1151.9175,-327.4243 1147.6166,-330.6588 1148.3844,-326.7332 1148.3844,-326.7332 1148.3844,-326.7332 1147.6166,-330.6588 1144.8514,-326.0421 1146.8487,-334.5844 1146.8487,-334.5844"/>
<ellipse fill="none" stroke="#000000" cx="1146.2344" cy="-337.7249" rx="3.2" ry="3.2"/>
</g>
<!-- StudentCompetencyEvaluations -->
<g id="node18" class="node">
<title>StudentCompetencyEvaluations</title>
<g id="a_node18"><a xlink:href="../../tables/StudentCompetencyEvaluations.html" xlink:title="StudentCompetencyEvaluations" target="_top">
<polygon fill="#ffffff" stroke="transparent" points="805,-509.5782 805,-570.5782 1028,-570.5782 1028,-509.5782 805,-509.5782"/>
<polygon fill="#f5f5f5" stroke="transparent" points="805.5,-547.0782 805.5,-570.0782 1028.5,-570.0782 1028.5,-547.0782 805.5,-547.0782"/>
<polygon fill="none" stroke="#000000" points="805.5,-547.0782 805.5,-570.0782 1028.5,-570.0782 1028.5,-547.0782 805.5,-547.0782"/>
<text text-anchor="start" x="810.5" y="-555.6782" font-family="Helvetica,sans-Serif" font-weight="bold" font-size="11.00" fill="#000000">StudentCompetencyEvaluations</text>
<text text-anchor="start" x="994.0219" y="-555.1782" font-family="Helvetica,sans-Serif" font-size="11.00" fill="#000000">[table]</text>
<polygon fill="none" stroke="#000000" points="805.5,-528.0782 805.5,-547.0782 1028.5,-547.0782 1028.5,-528.0782 805.5,-528.0782"/>
<text text-anchor="start" x="808.5" y="-534.1782" font-family="Helvetica,sans-Serif" font-size="11.00" fill="#000000">...</text>
<polygon fill="#ffffff" stroke="transparent" points="805.5,-509.0782 805.5,-528.0782 897.5,-528.0782 897.5,-509.0782 805.5,-509.0782"/>
<polygon fill="none" stroke="#000000" points="805.5,-509.0782 805.5,-528.0782 897.5,-528.0782 897.5,-509.0782 805.5,-509.0782"/>
<text text-anchor="start" x="808.5" y="-515.1782" font-family="Helvetica,sans-Serif" font-size="11.00" fill="#000000">&lt; 4</text>
<polygon fill="#ffffff" stroke="transparent" points="897.5,-509.0782 897.5,-528.0782 971.5,-528.0782 971.5,-509.0782 897.5,-509.0782"/>
<polygon fill="none" stroke="#000000" points="897.5,-509.0782 897.5,-528.0782 971.5,-528.0782 971.5,-509.0782 897.5,-509.0782"/>
<text text-anchor="start" x="936.1105" y="-515.1782" font-family="Helvetica,sans-Serif" font-size="11.00" fill="#000000">0 rows</text>
<polygon fill="#ffffff" stroke="transparent" points="971.5,-509.0782 971.5,-528.0782 1028.5,-528.0782 1028.5,-509.0782 971.5,-509.0782"/>
<polygon fill="none" stroke="#000000" points="971.5,-509.0782 971.5,-528.0782 1028.5,-528.0782 1028.5,-509.0782 971.5,-509.0782"/>
<text text-anchor="start" x="1009.9053" y="-515.1782" font-family="Helvetica,sans-Serif" font-size="11.00" fill="#000000">1 &gt;</text>
</a>
</g>
</g>
<!-- QuestionResponses&#45;&gt;StudentCompetencyEvaluations -->
<g id="edge31" class="edge">
<title>QuestionResponses:w&#45;&gt;StudentCompetencyEvaluations:e</title>
<path fill="none" stroke="#000000" d="M1111.0761,-337.3266C1064.5504,-385.8071 991.7308,-461.6864 949.6178,-505.5688"/>
<polygon fill="#000000" stroke="#000000" points="1115.6172,-332.5947 1123.7539,-329.3153 1118.3869,-329.7086 1121.1565,-326.8226 1121.1565,-326.8226 1121.1565,-326.8226 1118.3869,-329.7086 1118.5591,-324.3299 1115.6172,-332.5947 1115.6172,-332.5947"/>
<ellipse fill="none" stroke="#000000" cx="1113.4015" cy="-334.9035" rx="3.2" ry="3.2"/>
</g>
<!-- StudentCompetencyEvaluations&#45;&gt;AspNetUsers -->
<g id="edge33" class="edge">
<title>StudentCompetencyEvaluations:w&#45;&gt;AspNetUsers:e</title>
<path fill="none" stroke="#000000" d="M879.1813,-586.5405C848.6368,-627.109 804.0867,-687.322 764,-739.0782 637.8082,-902.005 658.9069,-1011.1503 473,-1100.0782 406.8457,-1131.7228 361.5846,-1150.1428 308,-1100.0782 257.1398,-1052.559 335.1048,-475.0782 265.5,-481.0782"/>
<polygon fill="#000000" stroke="#000000" points="883.1736,-581.2541 890.8676,-577.0397 885.5842,-578.0621 887.9948,-574.8701 887.9948,-574.8701 887.9948,-574.8701 885.5842,-578.0621 885.122,-572.7005 883.1736,-581.2541 883.1736,-581.2541"/>
<ellipse fill="none" stroke="#000000" cx="881.245" cy="-583.8077" rx="3.2" ry="3.2"/>
</g>
<!-- StudentCompetencyEvaluations&#45;&gt;AspNetUsers -->
<g id="edge36" class="edge">
<title>StudentCompetencyEvaluations:w&#45;&gt;AspNetUsers:e</title>
<path fill="none" stroke="#000000" d="M886.6254,-586.4996C856.2107,-629.8549 807.4799,-695.9411 764,-752.0782 637.8082,-915.005 658.9069,-1024.1503 473,-1113.0782 406.8457,-1144.7228 361.5846,-1163.1428 308,-1113.0782 257.1398,-1065.559 335.1048,-488.0782 265.5,-481.0782"/>
<polygon fill="#000000" stroke="#000000" points="890.3166,-581.1954 897.8412,-576.6853 892.6015,-577.9122 894.8863,-574.629 894.8863,-574.629 894.8863,-574.629 892.6015,-577.9122 891.9314,-572.5726 890.3166,-581.1954 890.3166,-581.1954"/>
<ellipse fill="none" stroke="#000000" cx="888.4888" cy="-583.822" rx="3.2" ry="3.2"/>
</g>
<!-- StudentCompetencyEvaluations&#45;&gt;ProfessorCompetencyAssignments -->
<g id="edge34" class="edge">
<title>StudentCompetencyEvaluations:w&#45;&gt;ProfessorCompetencyAssignments:e</title>
<path fill="none" stroke="#000000" d="M782.24,-540.0782C776.2094,-540.0782 770.1629,-540.0782 764.145,-540.0782"/>
<polygon fill="#000000" stroke="#000000" points="788.7105,-540.0782 796.7105,-543.6782 792.7105,-540.0782 796.7105,-540.0782 796.7105,-540.0782 796.7105,-540.0782 792.7105,-540.0782 796.7105,-536.4782 788.7105,-540.0782 788.7105,-540.0782"/>
<ellipse fill="none" stroke="#000000" cx="785.5105" cy="-540.0782" rx="3.2" ry="3.2"/>
</g>
<!-- Students -->
<g id="node19" class="node">
<title>Students</title>
<g id="a_node19"><a xlink:href="../../tables/Students.html" xlink:title="Students" target="_top">
<polygon fill="#ffffff" stroke="transparent" points="590,-235.5782 590,-296.5782 680,-296.5782 680,-235.5782 590,-235.5782"/>
<polygon fill="#f5f5f5" stroke="transparent" points="590,-273.0782 590,-296.0782 680,-296.0782 680,-273.0782 590,-273.0782"/>
<polygon fill="none" stroke="#000000" points="590,-273.0782 590,-296.0782 680,-296.0782 680,-273.0782 590,-273.0782"/>
<text text-anchor="start" x="595" y="-281.6782" font-family="Helvetica,sans-Serif" font-weight="bold" font-size="11.00" fill="#000000">Students</text>
<text text-anchor="start" x="645.5219" y="-281.1782" font-family="Helvetica,sans-Serif" font-size="11.00" fill="#000000">[table]</text>
<polygon fill="none" stroke="#000000" points="590,-254.0782 590,-273.0782 680,-273.0782 680,-254.0782 590,-254.0782"/>
<text text-anchor="start" x="593" y="-260.1782" font-family="Helvetica,sans-Serif" font-size="11.00" fill="#000000">...</text>
<polygon fill="#ffffff" stroke="transparent" points="590,-235.0782 590,-254.0782 616,-254.0782 616,-235.0782 590,-235.0782"/>
<polygon fill="none" stroke="#000000" points="590,-235.0782 590,-254.0782 616,-254.0782 616,-235.0782 590,-235.0782"/>
<text text-anchor="start" x="593" y="-241.1782" font-family="Helvetica,sans-Serif" font-size="11.00" fill="#000000">&lt; 2</text>
<polygon fill="#ffffff" stroke="transparent" points="616,-235.0782 616,-254.0782 656,-254.0782 656,-235.0782 616,-235.0782"/>
<polygon fill="none" stroke="#000000" points="616,-235.0782 616,-254.0782 656,-254.0782 656,-235.0782 616,-235.0782"/>
<text text-anchor="start" x="620.6105" y="-241.1782" font-family="Helvetica,sans-Serif" font-size="11.00" fill="#000000">0 rows</text>
<polygon fill="#ffffff" stroke="transparent" points="656,-235.0782 656,-254.0782 680,-254.0782 680,-235.0782 656,-235.0782"/>
<polygon fill="none" stroke="#000000" points="656,-235.0782 656,-254.0782 680,-254.0782 680,-235.0782 656,-235.0782"/>
<text text-anchor="start" x="661.4053" y="-241.1782" font-family="Helvetica,sans-Serif" font-size="11.00" fill="#000000">3 &gt;</text>
</a>
</g>
</g>
<!-- StudentCompetencyEvaluations&#45;&gt;Students -->
<g id="edge35" class="edge">
<title>StudentCompetencyEvaluations:w&#45;&gt;Students:e</title>
<path fill="none" stroke="#000000" d="M896.9713,-492.0747C873.1434,-439.3283 827.9715,-355.6588 764,-307.0782 742.0099,-290.3787 713.03,-280.3715 688.1094,-274.4313"/>
<polygon fill="#000000" stroke="#000000" points="899.6243,-498.1048 899.5509,-506.8772 901.2352,-501.7661 902.846,-505.4274 902.846,-505.4274 902.846,-505.4274 901.2352,-501.7661 906.1412,-503.9776 899.6243,-498.1048 899.6243,-498.1048"/>
<ellipse fill="none" stroke="#000000" cx="898.3356" cy="-495.1757" rx="3.2" ry="3.2"/>
</g>
<!-- Students&#45;&gt;AspNetUsers -->
<g id="edge42" class="edge">
<title>Students:w&#45;&gt;AspNetUsers:e</title>
<path fill="none" stroke="#000000" d="M571.3989,-252.2339C487.6713,-235.646 346.5635,-213.8634 308,-246.0782 226.5436,-314.1244 371.6387,-481.0782 265.5,-481.0782"/>
<polygon fill="#000000" stroke="#000000" points="581.8192,-250.25 580.2414,-258.0929 578.6728,-257.7773 580.2506,-249.9344 581.8192,-250.25"/>
<polyline fill="none" stroke="#000000" points="581.8146,-254.3292 577.8931,-253.5403 "/>
<ellipse fill="none" stroke="#000000" cx="574.756" cy="-252.9092" rx="3.2" ry="3.2"/>
</g>
<!-- Students&#45;&gt;TechnicalCareers -->
<g id="edge41" class="edge">
<title>Students:w&#45;&gt;TechnicalCareers:e</title>
<path fill="none" stroke="#000000" d="M567.7808,-278.0755C546.5198,-284.2129 523.9171,-293.3977 506,-307.0782 484.5419,-323.4623 493.1388,-340.0971 473,-358.0782 470.4946,-360.3152 467.845,-362.461 465.0919,-364.5157"/>
<polygon fill="#000000" stroke="#000000" points="574.1145,-276.4125 582.7665,-277.8628 577.9833,-275.3966 581.8522,-274.3808 581.8522,-274.3808 581.8522,-274.3808 577.9833,-275.3966 580.9379,-270.8988 574.1145,-276.4125 574.1145,-276.4125"/>
<ellipse fill="none" stroke="#000000" cx="571.0194" cy="-277.2252" rx="3.2" ry="3.2"/>
</g>
<!-- StudentEvaluationReport -->
<g id="node20" class="node">
<title>StudentEvaluationReport</title>
<g id="a_node20"><a xlink:href="../../tables/StudentEvaluationReport.html" xlink:title="StudentEvaluationReport" target="_top">
<polygon fill="#ffffff" stroke="transparent" points="825,-189.5782 825,-250.5782 1008,-250.5782 1008,-189.5782 825,-189.5782"/>
<polygon fill="#f5f5f5" stroke="transparent" points="825.5,-227.0782 825.5,-250.0782 1008.5,-250.0782 1008.5,-227.0782 825.5,-227.0782"/>
<polygon fill="none" stroke="#000000" points="825.5,-227.0782 825.5,-250.0782 1008.5,-250.0782 1008.5,-227.0782 825.5,-227.0782"/>
<text text-anchor="start" x="830.5" y="-235.6782" font-family="Helvetica,sans-Serif" font-weight="bold" font-size="11.00" fill="#000000">StudentEvaluationReport</text>
<text text-anchor="start" x="974.0219" y="-235.1782" font-family="Helvetica,sans-Serif" font-size="11.00" fill="#000000">[table]</text>
<polygon fill="none" stroke="#000000" points="825.5,-208.0782 825.5,-227.0782 1008.5,-227.0782 1008.5,-208.0782 825.5,-208.0782"/>
<text text-anchor="start" x="828.5" y="-214.1782" font-family="Helvetica,sans-Serif" font-size="11.00" fill="#000000">...</text>
<polygon fill="#ffffff" stroke="transparent" points="825.5,-189.0782 825.5,-208.0782 902.5,-208.0782 902.5,-189.0782 825.5,-189.0782"/>
<polygon fill="none" stroke="#000000" points="825.5,-189.0782 825.5,-208.0782 902.5,-208.0782 902.5,-189.0782 825.5,-189.0782"/>
<text text-anchor="start" x="828.5" y="-195.1782" font-family="Helvetica,sans-Serif" font-size="11.00" fill="#000000">&lt; 4</text>
<polygon fill="#ffffff" stroke="transparent" points="902.5,-189.0782 902.5,-208.0782 968.5,-208.0782 968.5,-189.0782 902.5,-189.0782"/>
<polygon fill="none" stroke="#000000" points="902.5,-189.0782 902.5,-208.0782 968.5,-208.0782 968.5,-189.0782 902.5,-189.0782"/>
<text text-anchor="start" x="933.1105" y="-195.1782" font-family="Helvetica,sans-Serif" font-size="11.00" fill="#000000">0 rows</text>
<polygon fill="#ffffff" stroke="transparent" points="968.5,-189.0782 968.5,-208.0782 1008.5,-208.0782 1008.5,-189.0782 968.5,-189.0782"/>
<polygon fill="none" stroke="#000000" points="968.5,-189.0782 968.5,-208.0782 1008.5,-208.0782 1008.5,-189.0782 968.5,-189.0782"/>
<text text-anchor="start" x="999.3862" y="-195.1782" font-family="Helvetica,sans-Serif" font-size="11.00" fill="#000000"> &#160;</text>
</a>
</g>
</g>
<!-- StudentEvaluationReport&#45;&gt;AspNetUsers -->
<g id="edge37" class="edge">
<title>StudentEvaluationReport:w&#45;&gt;AspNetUsers:e</title>
<path fill="none" stroke="#000000" d="M802.0065,-200.4883C646.4693,-179.9859 379.5438,-158.8631 308,-220.0782 264.3494,-257.427 322.9483,-475.0782 265.5,-481.0782"/>
<polygon fill="#000000" stroke="#000000" points="808.772,-201.3996 816.2198,-206.0354 812.7362,-201.9336 816.7004,-202.4676 816.7004,-202.4676 816.7004,-202.4676 812.7362,-201.9336 817.181,-198.8999 808.772,-201.3996 808.772,-201.3996"/>
<ellipse fill="none" stroke="#000000" cx="805.6007" cy="-200.9724" rx="3.2" ry="3.2"/>
</g>
<!-- StudentEvaluationReport&#45;&gt;AspNetUsers -->
<g id="edge40" class="edge">
<title>StudentEvaluationReport:w&#45;&gt;AspNetUsers:e</title>
<path fill="none" stroke="#000000" d="M802.0065,-209.0998C646.4693,-192.9859 379.5438,-171.8631 308,-233.0782 264.3494,-270.427 322.9483,-488.0782 265.5,-481.0782"/>
<polygon fill="#000000" stroke="#000000" points="808.744,-209.8063 816.325,-214.221 812.7222,-210.2235 816.7004,-210.6407 816.7004,-210.6407 816.7004,-210.6407 812.7222,-210.2235 817.0759,-207.0603 808.744,-209.8063 808.744,-209.8063"/>
<ellipse fill="none" stroke="#000000" cx="805.5615" cy="-209.4725" rx="3.2" ry="3.2"/>
</g>
<!-- StudentEvaluationReport&#45;&gt;EvaluationPeriods -->
<g id="edge38" class="edge">
<title>StudentEvaluationReport:w&#45;&gt;EvaluationPeriods:e</title>
<path fill="none" stroke="#000000" d="M902.6205,-268.8929C882.7665,-328.5506 839.9842,-426.9856 764,-471.0782 715.9601,-498.9551 565.0556,-494.0106 470.4054,-487.6816"/>
<polygon fill="#000000" stroke="#000000" points="904.633,-262.599 910.4986,-256.0756 905.8513,-258.7891 907.0696,-254.9791 907.0696,-254.9791 907.0696,-254.9791 905.8513,-258.7891 903.6407,-253.8826 904.633,-262.599 904.633,-262.599"/>
<ellipse fill="none" stroke="#000000" cx="903.6583" cy="-265.647" rx="3.2" ry="3.2"/>
</g>
<!-- StudentEvaluationReport&#45;&gt;Students -->
<g id="edge39" class="edge">
<title>StudentEvaluationReport:w&#45;&gt;Students:e</title>
<path fill="none" stroke="#000000" d="M802.4574,-238.7139C762.9479,-245.1701 720.5237,-252.1027 688.2621,-257.3746"/>
<polygon fill="#000000" stroke="#000000" points="808.9622,-237.651 817.4381,-239.9137 812.9098,-237.0059 816.8575,-236.3608 816.8575,-236.3608 816.8575,-236.3608 812.9098,-237.0059 816.2769,-232.8079 808.9622,-237.651 808.9622,-237.651"/>
<ellipse fill="none" stroke="#000000" cx="805.8041" cy="-238.1671" rx="3.2" ry="3.2"/>
</g>
<!-- StudentSubjects -->
<g id="node21" class="node">
<title>StudentSubjects</title>
<g id="a_node21"><a xlink:href="../../tables/StudentSubjects.html" xlink:title="StudentSubjects" target="_top">
<polygon fill="#ffffff" stroke="transparent" points="850,-98.5782 850,-159.5782 983,-159.5782 983,-98.5782 850,-98.5782"/>
<polygon fill="#f5f5f5" stroke="transparent" points="850.5,-136.0782 850.5,-159.0782 983.5,-159.0782 983.5,-136.0782 850.5,-136.0782"/>
<polygon fill="none" stroke="#000000" points="850.5,-136.0782 850.5,-159.0782 983.5,-159.0782 983.5,-136.0782 850.5,-136.0782"/>
<text text-anchor="start" x="855.5" y="-144.6782" font-family="Helvetica,sans-Serif" font-weight="bold" font-size="11.00" fill="#000000">StudentSubjects</text>
<text text-anchor="start" x="949.0219" y="-144.1782" font-family="Helvetica,sans-Serif" font-size="11.00" fill="#000000">[table]</text>
<polygon fill="none" stroke="#000000" points="850.5,-117.0782 850.5,-136.0782 983.5,-136.0782 983.5,-117.0782 850.5,-117.0782"/>
<text text-anchor="start" x="853.5" y="-123.1782" font-family="Helvetica,sans-Serif" font-size="11.00" fill="#000000">...</text>
<polygon fill="#ffffff" stroke="transparent" points="850.5,-98.0782 850.5,-117.0782 902.5,-117.0782 902.5,-98.0782 850.5,-98.0782"/>
<polygon fill="none" stroke="#000000" points="850.5,-98.0782 850.5,-117.0782 902.5,-117.0782 902.5,-98.0782 850.5,-98.0782"/>
<text text-anchor="start" x="853.5" y="-104.1782" font-family="Helvetica,sans-Serif" font-size="11.00" fill="#000000">&lt; 4</text>
<polygon fill="#ffffff" stroke="transparent" points="902.5,-98.0782 902.5,-117.0782 955.5,-117.0782 955.5,-98.0782 902.5,-98.0782"/>
<polygon fill="none" stroke="#000000" points="902.5,-98.0782 902.5,-117.0782 955.5,-117.0782 955.5,-98.0782 902.5,-98.0782"/>
<text text-anchor="start" x="920.1105" y="-104.1782" font-family="Helvetica,sans-Serif" font-size="11.00" fill="#000000">0 rows</text>
<polygon fill="#ffffff" stroke="transparent" points="955.5,-98.0782 955.5,-117.0782 983.5,-117.0782 983.5,-98.0782 955.5,-98.0782"/>
<polygon fill="none" stroke="#000000" points="955.5,-98.0782 955.5,-117.0782 983.5,-117.0782 983.5,-98.0782 955.5,-98.0782"/>
<text text-anchor="start" x="974.3862" y="-104.1782" font-family="Helvetica,sans-Serif" font-size="11.00" fill="#000000"> &#160;</text>
</a>
</g>
</g>
<!-- StudentSubjects&#45;&gt;AspNetUsers -->
<g id="edge43" class="edge">
<title>StudentSubjects:w&#45;&gt;AspNetUsers:e</title>
<path fill="none" stroke="#000000" d="M827.7933,-105.5238C806.9533,-101.9164 784.7657,-98.8357 764,-97.0782 662.9306,-88.5241 380.347,-45.9859 308,-117.0782 250.8574,-173.2298 345.6142,-475.0782 265.5,-481.0782"/>
<polygon fill="#000000" stroke="#000000" points="834.1,-106.6677 841.329,-111.6378 838.0357,-107.3817 841.9715,-108.0956 841.9715,-108.0956 841.9715,-108.0956 838.0357,-107.3817 842.6141,-104.5534 834.1,-106.6677 834.1,-106.6677"/>
<ellipse fill="none" stroke="#000000" cx="830.9513" cy="-106.0966" rx="3.2" ry="3.2"/>
</g>
<!-- StudentSubjects&#45;&gt;AspNetUsers -->
<g id="edge46" class="edge">
<title>StudentSubjects:w&#45;&gt;AspNetUsers:e</title>
<path fill="none" stroke="#000000" d="M827.4926,-118.115C806.74,-114.8868 784.6658,-111.8272 764,-110.0782 662.9306,-101.5241 380.347,-58.9859 308,-130.0782 250.8574,-186.2298 345.6142,-488.0782 265.5,-481.0782"/>
<polygon fill="#000000" stroke="#000000" points="834.0711,-119.1626 841.4053,-123.9759 838.0213,-119.7916 841.9715,-120.4207 841.9715,-120.4207 841.9715,-120.4207 838.0213,-119.7916 842.5377,-116.8655 834.0711,-119.1626 834.0711,-119.1626"/>
<ellipse fill="none" stroke="#000000" cx="830.9109" cy="-118.6593" rx="3.2" ry="3.2"/>
</g>
<!-- StudentSubjects&#45;&gt;Students -->
<g id="edge44" class="edge">
<title>StudentSubjects:w&#45;&gt;Students:e</title>
<path fill="none" stroke="#000000" d="M828.339,-164.8279C817.7118,-169.4715 807.0645,-174.2839 797,-179.0782 760.1089,-196.6515 719.6089,-218.4015 688.3317,-235.7582"/>
<polygon fill="#000000" stroke="#000000" points="834.3972,-162.2168 843.1688,-162.3563 838.0706,-160.6336 841.7439,-159.0503 841.7439,-159.0503 841.7439,-159.0503 838.0706,-160.6336 840.319,-155.7443 834.3972,-162.2168 834.3972,-162.2168"/>
<ellipse fill="none" stroke="#000000" cx="831.4586" cy="-163.4834" rx="3.2" ry="3.2"/>
</g>
<!-- Subjects -->
<g id="node22" class="node">
<title>Subjects</title>
<g id="a_node22"><a xlink:href="../../tables/Subjects.html" xlink:title="Subjects" target="_top">
<polygon fill="#ffffff" stroke="transparent" points="590.5,-113.5782 590.5,-174.5782 679.5,-174.5782 679.5,-113.5782 590.5,-113.5782"/>
<polygon fill="#f5f5f5" stroke="transparent" points="591,-151.0782 591,-174.0782 680,-174.0782 680,-151.0782 591,-151.0782"/>
<polygon fill="none" stroke="#000000" points="591,-151.0782 591,-174.0782 680,-174.0782 680,-151.0782 591,-151.0782"/>
<text text-anchor="start" x="596" y="-159.6782" font-family="Helvetica,sans-Serif" font-weight="bold" font-size="11.00" fill="#000000">Subjects</text>
<text text-anchor="start" x="645.5219" y="-159.1782" font-family="Helvetica,sans-Serif" font-size="11.00" fill="#000000">[table]</text>
<polygon fill="none" stroke="#000000" points="591,-132.0782 591,-151.0782 680,-151.0782 680,-132.0782 591,-132.0782"/>
<text text-anchor="start" x="594" y="-138.1782" font-family="Helvetica,sans-Serif" font-size="11.00" fill="#000000">...</text>
<polygon fill="#ffffff" stroke="transparent" points="591,-113.0782 591,-132.0782 616,-132.0782 616,-113.0782 591,-113.0782"/>
<polygon fill="none" stroke="#000000" points="591,-113.0782 591,-132.0782 616,-132.0782 616,-113.0782 591,-113.0782"/>
<text text-anchor="start" x="594" y="-119.1782" font-family="Helvetica,sans-Serif" font-size="11.00" fill="#000000">&lt; 4</text>
<polygon fill="#ffffff" stroke="transparent" points="616,-113.0782 616,-132.0782 656,-132.0782 656,-113.0782 616,-113.0782"/>
<polygon fill="none" stroke="#000000" points="616,-113.0782 616,-132.0782 656,-132.0782 656,-113.0782 616,-113.0782"/>
<text text-anchor="start" x="620.6105" y="-119.1782" font-family="Helvetica,sans-Serif" font-size="11.00" fill="#000000">0 rows</text>
<polygon fill="#ffffff" stroke="transparent" points="656,-113.0782 656,-132.0782 680,-132.0782 680,-113.0782 656,-113.0782"/>
<polygon fill="none" stroke="#000000" points="656,-113.0782 656,-132.0782 680,-132.0782 680,-113.0782 656,-113.0782"/>
<text text-anchor="start" x="661.4053" y="-119.1782" font-family="Helvetica,sans-Serif" font-size="11.00" fill="#000000">1 &gt;</text>
</a>
</g>
</g>
<!-- StudentSubjects&#45;&gt;Subjects -->
<g id="edge45" class="edge">
<title>StudentSubjects:w&#45;&gt;Subjects:e</title>
<path fill="none" stroke="#000000" d="M827.2241,-133.8353C781.3138,-136.2817 726.9295,-139.1796 687.7441,-141.2676"/>
<polygon fill="#000000" stroke="#000000" points="833.8136,-133.4842 841.9938,-136.6534 837.8079,-133.2714 841.8022,-133.0585 841.8022,-133.0585 841.8022,-133.0585 837.8079,-133.2714 841.6106,-129.4636 833.8136,-133.4842 833.8136,-133.4842"/>
<ellipse fill="none" stroke="#000000" cx="830.6181" cy="-133.6545" rx="3.2" ry="3.2"/>
</g>
<!-- Subjects&#45;&gt;AspNetUsers -->
<g id="edge47" class="edge">
<title>Subjects:w&#45;&gt;AspNetUsers:e</title>
<path fill="none" stroke="#000000" d="M568.1282,-127.0498C494.0013,-115.5603 375.9595,-113.1534 308,-180.0782 260.8087,-226.5509 331.7324,-475.0782 265.5,-481.0782"/>
<polygon fill="#000000" stroke="#000000" points="574.452,-128.1182 581.7405,-133.0006 578.3961,-128.7845 582.3402,-129.4509 582.3402,-129.4509 582.3402,-129.4509 578.3961,-128.7845 582.94,-125.9012 574.452,-128.1182 574.452,-128.1182"/>
<ellipse fill="none" stroke="#000000" cx="571.2967" cy="-127.585" rx="3.2" ry="3.2"/>
</g>
<!-- Subjects&#45;&gt;AspNetUsers -->
<g id="edge50" class="edge">
<title>Subjects:w&#45;&gt;AspNetUsers:e</title>
<path fill="none" stroke="#000000" d="M567.6643,-136.4148C493.5096,-128.5505 375.8179,-126.2928 308,-193.0782 260.8087,-239.5509 331.7324,-488.0782 265.5,-481.0782"/>
<polygon fill="#000000" stroke="#000000" points="574.3924,-137.187 581.9297,-141.6758 578.3663,-137.6432 582.3402,-138.0993 582.3402,-138.0993 582.3402,-138.0993 578.3663,-137.6432 582.7507,-134.5228 574.3924,-137.187 574.3924,-137.187"/>
<ellipse fill="none" stroke="#000000" cx="571.2133" cy="-136.8221" rx="3.2" ry="3.2"/>
</g>
<!-- Subjects&#45;&gt;TechnicalCareers -->
<g id="edge49" class="edge">
<title>Subjects:w&#45;&gt;TechnicalCareers:e</title>
<path fill="none" stroke="#000000" d="M569.7658,-172.1989C546.5378,-185.1877 522.1602,-202.7578 506,-225.0782 470.2836,-274.4095 511.1246,-310.5834 473,-358.0782 471.1978,-360.3233 469.2412,-362.4554 467.1608,-364.4792"/>
<polygon fill="#000000" stroke="#000000" points="575.424,-169.1998 584.1784,-168.634 578.9582,-167.3265 582.4924,-165.4532 582.4924,-165.4532 582.4924,-165.4532 578.9582,-167.3265 580.8064,-162.2724 575.424,-169.1998 575.424,-169.1998"/>
<ellipse fill="none" stroke="#000000" cx="572.5966" cy="-170.6985" rx="3.2" ry="3.2"/>
</g>
<!-- Subjects&#45;&gt;Professors -->
<g id="edge48" class="edge">
<title>Subjects:w&#45;&gt;Professors:e</title>
<path fill="none" stroke="#000000" d="M570.056,-182.8859C549.2702,-195.8263 526.3736,-210.6358 506,-225.0782 480.5893,-243.0911 453.282,-264.7292 431.6024,-282.4939"/>
<polygon fill="#000000" stroke="#000000" points="575.5415,-179.4987 584.2398,-178.3587 578.9449,-177.3972 582.3484,-175.2956 582.3484,-175.2956 582.3484,-175.2956 578.9449,-177.3972 580.4569,-172.2325 575.5415,-179.4987 575.5415,-179.4987"/>
<ellipse fill="none" stroke="#000000" cx="572.8187" cy="-181.18" rx="3.2" ry="3.2"/>
</g>
</g>
</svg>
