<?xml version="1.0" encoding="UTF-8" standalone="no"?>
<!DOCTYPE svg PUBLIC "-//W3C//DTD SVG 1.1//EN"
 "http://www.w3.org/Graphics/SVG/1.1/DTD/svg11.dtd">
<!-- Generated by graphviz version 2.40.1 (20161225.0304)
 -->
<!-- Title: twoDegreesRelationshipsDiagram Pages: 1 -->
<svg width="426pt" height="267pt"
 viewBox="0.00 0.00 426.00 266.70" xmlns="http://www.w3.org/2000/svg" xmlns:xlink="http://www.w3.org/1999/xlink">
<g id="graph0" class="graph" transform="scale(1 1) rotate(0) translate(4 262.7)">
<title>twoDegreesRelationshipsDiagram</title>
<polygon fill="#ffffff" stroke="transparent" points="-4,4 -4,-262.7 422,-262.7 422,4 -4,4"/>
<text text-anchor="middle" x="72.4936" y="-7.3" font-family="Helvetica,sans-Serif" font-size="11.00" fill="#000000">Generated by SchemaSpy</text>
<!-- AspNetRoleClaims -->
<g id="node1" class="node">
<title>AspNetRoleClaims</title>
<g id="a_node1"><a xlink:href="../../tables/AspNetRoleClaims.html" xlink:title="AspNetRoleClaims" target="_top">
<polygon fill="#ffffff" stroke="transparent" points="188,-120.7 188,-254.7 410,-254.7 410,-120.7 188,-120.7"/>
<polygon fill="#f5f5f5" stroke="transparent" points="190,-229.7 190,-252.7 408,-252.7 408,-229.7 190,-229.7"/>
<polygon fill="none" stroke="#000000" points="190,-229.7 190,-252.7 408,-252.7 408,-229.7 190,-229.7"/>
<text text-anchor="start" x="195" y="-238.3" font-family="Helvetica,sans-Serif" font-weight="bold" font-size="11.00" fill="#000000">AspNetRoleClaims</text>
<text text-anchor="start" x="373.0437" y="-237.8" font-family="Helvetica,sans-Serif" font-size="11.00" fill="#000000">[table]</text>
<polygon fill="none" stroke="#000000" points="190,-207.7 190,-229.7 318,-229.7 318,-207.7 190,-207.7"/>
<image xlink:href="../../images/primaryKeys.png" width="11px" height="12px" preserveAspectRatio="xMinYMin meet" x="195" y="-224.7"/>
<text text-anchor="start" x="210" y="-214.8" font-family="Helvetica,sans-Serif" font-size="11.00" fill="#000000">Id</text>
<polygon fill="none" stroke="#000000" points="318,-207.7 318,-229.7 408,-229.7 408,-207.7 318,-207.7"/>
<text text-anchor="start" x="321" y="-215.4" font-family="Helvetica,sans-Serif" font-size="11.00" fill="#000000">int4[10]</text>
<polygon fill="#ffffff" stroke="transparent" points="190,-185.7 190,-207.7 318,-207.7 318,-185.7 190,-185.7"/>
<polygon fill="none" stroke="#000000" points="190,-185.7 190,-207.7 318,-207.7 318,-185.7 190,-185.7"/>
<image xlink:href="../../images/foreignKeys.png" width="11px" height="12px" preserveAspectRatio="xMinYMin meet" x="195" y="-202.7"/>
<text text-anchor="start" x="210" y="-192.8" font-family="Helvetica,sans-Serif" font-size="11.00" fill="#000000">RoleId</text>
<polygon fill="none" stroke="#000000" points="318,-185.7 318,-207.7 408,-207.7 408,-185.7 318,-185.7"/>
<text text-anchor="start" x="320.5043" y="-193.4" font-family="Helvetica,sans-Serif" font-size="11.00" fill="#000000">text[2147483647]</text>
<polygon fill="none" stroke="#000000" points="190,-163.7 190,-185.7 318,-185.7 318,-163.7 190,-163.7"/>
<text text-anchor="start" x="210" y="-170.8" font-family="Helvetica,sans-Serif" font-size="11.00" fill="#000000">ClaimType</text>
<polygon fill="none" stroke="#000000" points="318,-163.7 318,-185.7 408,-185.7 408,-163.7 318,-163.7"/>
<text text-anchor="start" x="320.5043" y="-171.4" font-family="Helvetica,sans-Serif" font-size="11.00" fill="#000000">text[2147483647]</text>
<polygon fill="none" stroke="#000000" points="190,-141.7 190,-163.7 318,-163.7 318,-141.7 190,-141.7"/>
<text text-anchor="start" x="210" y="-148.8" font-family="Helvetica,sans-Serif" font-size="11.00" fill="#000000">ClaimValue</text>
<polygon fill="none" stroke="#000000" points="318,-141.7 318,-163.7 408,-163.7 408,-141.7 318,-141.7"/>
<text text-anchor="start" x="320.5043" y="-149.4" font-family="Helvetica,sans-Serif" font-size="11.00" fill="#000000">text[2147483647]</text>
<polygon fill="#ffffff" stroke="transparent" points="190,-122.7 190,-141.7 245,-141.7 245,-122.7 190,-122.7"/>
<polygon fill="none" stroke="#000000" points="190,-122.7 190,-141.7 245,-141.7 245,-122.7 190,-122.7"/>
<text text-anchor="start" x="193" y="-128.8" font-family="Helvetica,sans-Serif" font-size="11.00" fill="#000000">&lt; 1</text>
<polygon fill="#ffffff" stroke="transparent" points="245,-122.7 245,-141.7 318,-141.7 318,-122.7 245,-122.7"/>
<polygon fill="none" stroke="#000000" points="245,-122.7 245,-141.7 318,-141.7 318,-122.7 245,-122.7"/>
<text text-anchor="start" x="282.6105" y="-128.8" font-family="Helvetica,sans-Serif" font-size="11.00" fill="#000000">0 rows</text>
<polygon fill="#ffffff" stroke="transparent" points="318,-122.7 318,-141.7 408,-141.7 408,-122.7 318,-122.7"/>
<polygon fill="none" stroke="#000000" points="318,-122.7 318,-141.7 408,-141.7 408,-122.7 318,-122.7"/>
<text text-anchor="start" x="389.4053" y="-128.8" font-family="Helvetica,sans-Serif" font-size="11.00" fill="#000000">0 &gt;</text>
<polygon fill="none" stroke="#000000" stroke-width="2" points="189,-121.7 189,-253.7 409,-253.7 409,-121.7 189,-121.7"/>
</a>
</g>
</g>
<!-- AspNetRoles -->
<g id="node2" class="node">
<title>AspNetRoles</title>
<g id="a_node2"><a xlink:href="../../tables/AspNetRoles.html" xlink:title="AspNetRoles" target="_top">
<polygon fill="#ffffff" stroke="transparent" points="8,-60.2 8,-165.2 139,-165.2 139,-60.2 8,-60.2"/>
<polygon fill="#f5f5f5" stroke="transparent" points="8.5,-141.7 8.5,-164.7 139.5,-164.7 139.5,-141.7 8.5,-141.7"/>
<polygon fill="none" stroke="#000000" points="8.5,-141.7 8.5,-164.7 139.5,-164.7 139.5,-141.7 8.5,-141.7"/>
<text text-anchor="start" x="13.5" y="-150.3" font-family="Helvetica,sans-Serif" font-weight="bold" font-size="11.00" fill="#000000">AspNetRoles</text>
<text text-anchor="start" x="104.5437" y="-149.8" font-family="Helvetica,sans-Serif" font-size="11.00" fill="#000000">[table]</text>
<polygon fill="none" stroke="#000000" points="8.5,-119.7 8.5,-141.7 139.5,-141.7 139.5,-119.7 8.5,-119.7"/>
<image xlink:href="../../images/primaryKeys.png" width="11px" height="12px" preserveAspectRatio="xMinYMin meet" x="13.5" y="-136.7"/>
<text text-anchor="start" x="28.5" y="-126.8" font-family="Helvetica,sans-Serif" font-size="11.00" fill="#000000">Id</text>
<polygon fill="#ffffff" stroke="transparent" points="8.5,-97.7 8.5,-119.7 139.5,-119.7 139.5,-97.7 8.5,-97.7"/>
<polygon fill="none" stroke="#000000" points="8.5,-97.7 8.5,-119.7 139.5,-119.7 139.5,-97.7 8.5,-97.7"/>
<text text-anchor="start" x="28.5" y="-104.8" font-family="Helvetica,sans-Serif" font-size="11.00" fill="#000000">NormalizedName</text>
<polygon fill="none" stroke="#000000" points="8.5,-78.7 8.5,-97.7 139.5,-97.7 139.5,-78.7 8.5,-78.7"/>
<text text-anchor="start" x="11.5" y="-84.8" font-family="Helvetica,sans-Serif" font-size="11.00" fill="#000000">...</text>
<polygon fill="#ffffff" stroke="transparent" points="8.5,-59.7 8.5,-78.7 50.5,-78.7 50.5,-59.7 8.5,-59.7"/>
<polygon fill="none" stroke="#000000" points="8.5,-59.7 8.5,-78.7 50.5,-78.7 50.5,-59.7 8.5,-59.7"/>
<text text-anchor="start" x="11.5" y="-65.8" font-family="Helvetica,sans-Serif" font-size="11.00" fill="#000000"> &#160;</text>
<polygon fill="#ffffff" stroke="transparent" points="50.5,-59.7 50.5,-78.7 103.5,-78.7 103.5,-59.7 50.5,-59.7"/>
<polygon fill="none" stroke="#000000" points="50.5,-59.7 50.5,-78.7 103.5,-78.7 103.5,-59.7 50.5,-59.7"/>
<text text-anchor="start" x="68.1105" y="-65.8" font-family="Helvetica,sans-Serif" font-size="11.00" fill="#000000">4 rows</text>
<polygon fill="#ffffff" stroke="transparent" points="103.5,-59.7 103.5,-78.7 139.5,-78.7 139.5,-59.7 103.5,-59.7"/>
<polygon fill="none" stroke="#000000" points="103.5,-59.7 103.5,-78.7 139.5,-78.7 139.5,-59.7 103.5,-59.7"/>
<text text-anchor="start" x="120.9053" y="-65.8" font-family="Helvetica,sans-Serif" font-size="11.00" fill="#000000">2 &gt;</text>
</a>
</g>
</g>
<!-- AspNetRoleClaims&#45;&gt;AspNetRoles -->
<g id="edge1" class="edge">
<title>AspNetRoleClaims:w&#45;&gt;AspNetRoles:e</title>
<path fill="none" stroke="#000000" d="M176.158,-191.9534C159.1101,-176.8202 170.3754,-130.7 139.5,-130.7"/>
<polygon fill="#000000" stroke="#000000" points="182.4326,-194.105 188.8323,-200.1054 186.2163,-195.4025 190,-196.7 190,-196.7 190,-196.7 186.2163,-195.4025 191.1677,-193.2946 182.4326,-194.105 182.4326,-194.105"/>
<ellipse fill="none" stroke="#000000" cx="179.4056" cy="-193.067" rx="3.2" ry="3.2"/>
</g>
<!-- AspNetUserRoles -->
<g id="node3" class="node">
<title>AspNetUserRoles</title>
<g id="a_node3"><a xlink:href="../../tables/AspNetUserRoles.html" xlink:title="AspNetUserRoles" target="_top">
<polygon fill="#ffffff" stroke="transparent" points="229,-38.2 229,-99.2 369,-99.2 369,-38.2 229,-38.2"/>
<polygon fill="#f5f5f5" stroke="transparent" points="229,-75.7 229,-98.7 369,-98.7 369,-75.7 229,-75.7"/>
<polygon fill="none" stroke="#000000" points="229,-75.7 229,-98.7 369,-98.7 369,-75.7 229,-75.7"/>
<text text-anchor="start" x="234" y="-84.3" font-family="Helvetica,sans-Serif" font-weight="bold" font-size="11.00" fill="#000000">AspNetUserRoles</text>
<text text-anchor="start" x="334.5219" y="-83.8" font-family="Helvetica,sans-Serif" font-size="11.00" fill="#000000">[table]</text>
<polygon fill="none" stroke="#000000" points="229,-56.7 229,-75.7 369,-75.7 369,-56.7 229,-56.7"/>
<text text-anchor="start" x="232" y="-62.8" font-family="Helvetica,sans-Serif" font-size="11.00" fill="#000000">...</text>
<polygon fill="#ffffff" stroke="transparent" points="229,-37.7 229,-56.7 287,-56.7 287,-37.7 229,-37.7"/>
<polygon fill="none" stroke="#000000" points="229,-37.7 229,-56.7 287,-56.7 287,-37.7 229,-37.7"/>
<text text-anchor="start" x="232" y="-43.8" font-family="Helvetica,sans-Serif" font-size="11.00" fill="#000000">&lt; 2</text>
<polygon fill="#ffffff" stroke="transparent" points="287,-37.7 287,-56.7 338,-56.7 338,-37.7 287,-37.7"/>
<polygon fill="none" stroke="#000000" points="287,-37.7 287,-56.7 338,-56.7 338,-37.7 287,-37.7"/>
<text text-anchor="start" x="308.1105" y="-43.8" font-family="Helvetica,sans-Serif" font-size="11.00" fill="#000000">1 row</text>
<polygon fill="#ffffff" stroke="transparent" points="338,-37.7 338,-56.7 369,-56.7 369,-37.7 338,-37.7"/>
<polygon fill="none" stroke="#000000" points="338,-37.7 338,-56.7 369,-56.7 369,-37.7 338,-37.7"/>
<text text-anchor="start" x="359.8862" y="-43.8" font-family="Helvetica,sans-Serif" font-size="11.00" fill="#000000"> &#160;</text>
</a>
</g>
</g>
<!-- AspNetUserRoles&#45;&gt;AspNetRoles -->
<g id="edge2" class="edge">
<title>AspNetUserRoles:w&#45;&gt;AspNetRoles:e</title>
<path fill="none" stroke="#000000" d="M214.3565,-68.0134C181.0934,-79.5924 183.0923,-130.7 139.5,-130.7"/>
<polygon fill="#000000" stroke="#000000" points="221.098,-66.9484 229.5618,-69.2559 225.049,-66.3242 229,-65.7 229,-65.7 229,-65.7 225.049,-66.3242 228.4382,-62.1441 221.098,-66.9484 221.098,-66.9484"/>
<ellipse fill="none" stroke="#000000" cx="217.9372" cy="-67.4478" rx="3.2" ry="3.2"/>
</g>
</g>
</svg>
