<?xml version="1.0" encoding="UTF-8" standalone="no"?>
<!DOCTYPE svg PUBLIC "-//W3C//DTD SVG 1.1//EN"
 "http://www.w3.org/Graphics/SVG/1.1/DTD/svg11.dtd">
<!-- Generated by graphviz version 2.40.1 (20161225.0304)
 -->
<!-- Title: twoDegreesRelationshipsDiagram Pages: 1 -->
<svg width="1228pt" height="1214pt"
 viewBox="0.00 0.00 1228.00 1213.55" xmlns="http://www.w3.org/2000/svg" xmlns:xlink="http://www.w3.org/1999/xlink">
<g id="graph0" class="graph" transform="scale(1 1) rotate(0) translate(4 1209.5462)">
<title>twoDegreesRelationshipsDiagram</title>
<polygon fill="#ffffff" stroke="transparent" points="-4,4 -4,-1209.5462 1224,-1209.5462 1224,4 -4,4"/>
<text text-anchor="middle" x="72.4936" y="-7.3" font-family="Helvetica,sans-Serif" font-size="11.00" fill="#000000">Generated by SchemaSpy</text>
<!-- AspNetUserClaims -->
<g id="node1" class="node">
<title>AspNetUserClaims</title>
<g id="a_node1"><a xlink:href="../../tables/AspNetUserClaims.html" xlink:title="AspNetUserClaims" target="_top">
<polygon fill="#ffffff" stroke="transparent" points="259,-1140.5462 259,-1201.5462 406,-1201.5462 406,-1140.5462 259,-1140.5462"/>
<polygon fill="#f5f5f5" stroke="transparent" points="259.5,-1178.0462 259.5,-1201.0462 406.5,-1201.0462 406.5,-1178.0462 259.5,-1178.0462"/>
<polygon fill="none" stroke="#000000" points="259.5,-1178.0462 259.5,-1201.0462 406.5,-1201.0462 406.5,-1178.0462 259.5,-1178.0462"/>
<text text-anchor="start" x="264.5" y="-1186.6462" font-family="Helvetica,sans-Serif" font-weight="bold" font-size="11.00" fill="#000000">AspNetUserClaims</text>
<text text-anchor="start" x="372.0219" y="-1186.1462" font-family="Helvetica,sans-Serif" font-size="11.00" fill="#000000">[table]</text>
<polygon fill="none" stroke="#000000" points="259.5,-1159.0462 259.5,-1178.0462 406.5,-1178.0462 406.5,-1159.0462 259.5,-1159.0462"/>
<text text-anchor="start" x="262.5" y="-1165.1462" font-family="Helvetica,sans-Serif" font-size="11.00" fill="#000000">...</text>
<polygon fill="#ffffff" stroke="transparent" points="259.5,-1140.0462 259.5,-1159.0462 318.5,-1159.0462 318.5,-1140.0462 259.5,-1140.0462"/>
<polygon fill="none" stroke="#000000" points="259.5,-1140.0462 259.5,-1159.0462 318.5,-1159.0462 318.5,-1140.0462 259.5,-1140.0462"/>
<text text-anchor="start" x="262.5" y="-1146.1462" font-family="Helvetica,sans-Serif" font-size="11.00" fill="#000000">&lt; 1</text>
<polygon fill="#ffffff" stroke="transparent" points="318.5,-1140.0462 318.5,-1159.0462 375.5,-1159.0462 375.5,-1140.0462 318.5,-1140.0462"/>
<polygon fill="none" stroke="#000000" points="318.5,-1140.0462 318.5,-1159.0462 375.5,-1159.0462 375.5,-1140.0462 318.5,-1140.0462"/>
<text text-anchor="start" x="340.1105" y="-1146.1462" font-family="Helvetica,sans-Serif" font-size="11.00" fill="#000000">0 rows</text>
<polygon fill="#ffffff" stroke="transparent" points="375.5,-1140.0462 375.5,-1159.0462 406.5,-1159.0462 406.5,-1140.0462 375.5,-1140.0462"/>
<polygon fill="none" stroke="#000000" points="375.5,-1140.0462 375.5,-1159.0462 406.5,-1159.0462 406.5,-1140.0462 375.5,-1140.0462"/>
<text text-anchor="start" x="397.3862" y="-1146.1462" font-family="Helvetica,sans-Serif" font-size="11.00" fill="#000000"> &#160;</text>
</a>
</g>
</g>
<!-- AspNetUsers -->
<g id="node2" class="node">
<title>AspNetUsers</title>
<g id="a_node2"><a xlink:href="../../tables/AspNetUsers.html" xlink:title="AspNetUsers" target="_top">
<polygon fill="#ffffff" stroke="transparent" points="8,-459.5462 8,-586.5462 171,-586.5462 171,-459.5462 8,-459.5462"/>
<polygon fill="#f5f5f5" stroke="transparent" points="8.5,-563.0462 8.5,-586.0462 171.5,-586.0462 171.5,-563.0462 8.5,-563.0462"/>
<polygon fill="none" stroke="#000000" points="8.5,-563.0462 8.5,-586.0462 171.5,-586.0462 171.5,-563.0462 8.5,-563.0462"/>
<text text-anchor="start" x="13.5" y="-571.6462" font-family="Helvetica,sans-Serif" font-weight="bold" font-size="11.00" fill="#000000">AspNetUsers</text>
<text text-anchor="start" x="136.5437" y="-571.1462" font-family="Helvetica,sans-Serif" font-size="11.00" fill="#000000">[table]</text>
<polygon fill="none" stroke="#000000" points="8.5,-541.0462 8.5,-563.0462 171.5,-563.0462 171.5,-541.0462 8.5,-541.0462"/>
<image xlink:href="../../images/primaryKeys.png" width="11px" height="12px" preserveAspectRatio="xMinYMin meet" x="13.5" y="-558.046"/>
<text text-anchor="start" x="28.5" y="-548.1462" font-family="Helvetica,sans-Serif" font-size="11.00" fill="#000000">Id</text>
<polygon fill="#ffffff" stroke="transparent" points="8.5,-519.0462 8.5,-541.0462 171.5,-541.0462 171.5,-519.0462 8.5,-519.0462"/>
<polygon fill="none" stroke="#000000" points="8.5,-519.0462 8.5,-541.0462 171.5,-541.0462 171.5,-519.0462 8.5,-519.0462"/>
<text text-anchor="start" x="28.5" y="-526.1462" font-family="Helvetica,sans-Serif" font-size="11.00" fill="#000000">NormalizedUserName</text>
<polygon fill="#ffffff" stroke="transparent" points="8.5,-497.0462 8.5,-519.0462 171.5,-519.0462 171.5,-497.0462 8.5,-497.0462"/>
<polygon fill="none" stroke="#000000" points="8.5,-497.0462 8.5,-519.0462 171.5,-519.0462 171.5,-497.0462 8.5,-497.0462"/>
<text text-anchor="start" x="28.5" y="-504.1462" font-family="Helvetica,sans-Serif" font-size="11.00" fill="#000000">NormalizedEmail</text>
<polygon fill="none" stroke="#000000" points="8.5,-478.0462 8.5,-497.0462 171.5,-497.0462 171.5,-478.0462 8.5,-478.0462"/>
<text text-anchor="start" x="11.5" y="-484.1462" font-family="Helvetica,sans-Serif" font-size="11.00" fill="#000000">...</text>
<polygon fill="#ffffff" stroke="transparent" points="8.5,-459.0462 8.5,-478.0462 63.5,-478.0462 63.5,-459.0462 8.5,-459.0462"/>
<polygon fill="none" stroke="#000000" points="8.5,-459.0462 8.5,-478.0462 63.5,-478.0462 63.5,-459.0462 8.5,-459.0462"/>
<text text-anchor="start" x="11.5" y="-465.1462" font-family="Helvetica,sans-Serif" font-size="11.00" fill="#000000"> &#160;</text>
<polygon fill="#ffffff" stroke="transparent" points="63.5,-459.0462 63.5,-478.0462 122.5,-478.0462 122.5,-459.0462 63.5,-459.0462"/>
<polygon fill="none" stroke="#000000" points="63.5,-459.0462 63.5,-478.0462 122.5,-478.0462 122.5,-459.0462 63.5,-459.0462"/>
<text text-anchor="start" x="87.1105" y="-465.1462" font-family="Helvetica,sans-Serif" font-size="11.00" fill="#000000">0 rows</text>
<polygon fill="#ffffff" stroke="transparent" points="122.5,-459.0462 122.5,-478.0462 171.5,-478.0462 171.5,-459.0462 122.5,-459.0462"/>
<polygon fill="none" stroke="#000000" points="122.5,-459.0462 122.5,-478.0462 171.5,-478.0462 171.5,-459.0462 122.5,-459.0462"/>
<text text-anchor="start" x="146.7904" y="-465.1462" font-family="Helvetica,sans-Serif" font-size="11.00" fill="#000000">29 &gt;</text>
</a>
</g>
</g>
<!-- AspNetUserClaims&#45;&gt;AspNetUsers -->
<g id="edge1" class="edge">
<title>AspNetUserClaims:w&#45;&gt;AspNetUsers:e</title>
<path fill="none" stroke="#000000" d="M245.1936,-1166.3412C229.0601,-1161.9276 222.0059,-1149.1255 212,-1130.0462 182.0993,-1073.0314 235.8797,-552.0462 171.5,-552.0462"/>
<polygon fill="#000000" stroke="#000000" points="251.5562,-1167.0994 259.0739,-1171.6209 255.5281,-1167.5728 259.5,-1168.0462 259.5,-1168.0462 259.5,-1168.0462 255.5281,-1167.5728 259.9261,-1164.4715 251.5562,-1167.0994 251.5562,-1167.0994"/>
<ellipse fill="none" stroke="#000000" cx="248.3787" cy="-1166.7207" rx="3.2" ry="3.2"/>
</g>
<!-- AspNetUserLogins -->
<g id="node3" class="node">
<title>AspNetUserLogins</title>
<g id="a_node3"><a xlink:href="../../tables/AspNetUserLogins.html" xlink:title="AspNetUserLogins" target="_top">
<polygon fill="#ffffff" stroke="transparent" points="259,-1058.5462 259,-1119.5462 406,-1119.5462 406,-1058.5462 259,-1058.5462"/>
<polygon fill="#f5f5f5" stroke="transparent" points="259.5,-1096.0462 259.5,-1119.0462 406.5,-1119.0462 406.5,-1096.0462 259.5,-1096.0462"/>
<polygon fill="none" stroke="#000000" points="259.5,-1096.0462 259.5,-1119.0462 406.5,-1119.0462 406.5,-1096.0462 259.5,-1096.0462"/>
<text text-anchor="start" x="264.5" y="-1104.6462" font-family="Helvetica,sans-Serif" font-weight="bold" font-size="11.00" fill="#000000">AspNetUserLogins</text>
<text text-anchor="start" x="372.0219" y="-1104.1462" font-family="Helvetica,sans-Serif" font-size="11.00" fill="#000000">[table]</text>
<polygon fill="none" stroke="#000000" points="259.5,-1077.0462 259.5,-1096.0462 406.5,-1096.0462 406.5,-1077.0462 259.5,-1077.0462"/>
<text text-anchor="start" x="262.5" y="-1083.1462" font-family="Helvetica,sans-Serif" font-size="11.00" fill="#000000">...</text>
<polygon fill="#ffffff" stroke="transparent" points="259.5,-1058.0462 259.5,-1077.0462 318.5,-1077.0462 318.5,-1058.0462 259.5,-1058.0462"/>
<polygon fill="none" stroke="#000000" points="259.5,-1058.0462 259.5,-1077.0462 318.5,-1077.0462 318.5,-1058.0462 259.5,-1058.0462"/>
<text text-anchor="start" x="262.5" y="-1064.1462" font-family="Helvetica,sans-Serif" font-size="11.00" fill="#000000">&lt; 1</text>
<polygon fill="#ffffff" stroke="transparent" points="318.5,-1058.0462 318.5,-1077.0462 375.5,-1077.0462 375.5,-1058.0462 318.5,-1058.0462"/>
<polygon fill="none" stroke="#000000" points="318.5,-1058.0462 318.5,-1077.0462 375.5,-1077.0462 375.5,-1058.0462 318.5,-1058.0462"/>
<text text-anchor="start" x="340.1105" y="-1064.1462" font-family="Helvetica,sans-Serif" font-size="11.00" fill="#000000">0 rows</text>
<polygon fill="#ffffff" stroke="transparent" points="375.5,-1058.0462 375.5,-1077.0462 406.5,-1077.0462 406.5,-1058.0462 375.5,-1058.0462"/>
<polygon fill="none" stroke="#000000" points="375.5,-1058.0462 375.5,-1077.0462 406.5,-1077.0462 406.5,-1058.0462 375.5,-1058.0462"/>
<text text-anchor="start" x="397.3862" y="-1064.1462" font-family="Helvetica,sans-Serif" font-size="11.00" fill="#000000"> &#160;</text>
</a>
</g>
</g>
<!-- AspNetUserLogins&#45;&gt;AspNetUsers -->
<g id="edge2" class="edge">
<title>AspNetUserLogins:w&#45;&gt;AspNetUsers:e</title>
<path fill="none" stroke="#000000" d="M244.7362,-1084.2013C228.9673,-1079.6517 222.0164,-1066.8811 212,-1048.0462 186.0373,-999.2259 226.7945,-552.0462 171.5,-552.0462"/>
<polygon fill="#000000" stroke="#000000" points="251.5617,-1085.0542 259.0536,-1089.6184 255.5309,-1085.5502 259.5,-1086.0462 259.5,-1086.0462 259.5,-1086.0462 255.5309,-1085.5502 259.9464,-1082.474 251.5617,-1085.0542 251.5617,-1085.0542"/>
<ellipse fill="none" stroke="#000000" cx="248.3864" cy="-1084.6574" rx="3.2" ry="3.2"/>
</g>
<!-- AspNetUserRoles -->
<g id="node4" class="node">
<title>AspNetUserRoles</title>
<g id="a_node4"><a xlink:href="../../tables/AspNetUserRoles.html" xlink:title="AspNetUserRoles" target="_top">
<polygon fill="#ffffff" stroke="transparent" points="262.5,-976.5462 262.5,-1037.5462 402.5,-1037.5462 402.5,-976.5462 262.5,-976.5462"/>
<polygon fill="#f5f5f5" stroke="transparent" points="262.5,-1014.0462 262.5,-1037.0462 402.5,-1037.0462 402.5,-1014.0462 262.5,-1014.0462"/>
<polygon fill="none" stroke="#000000" points="262.5,-1014.0462 262.5,-1037.0462 402.5,-1037.0462 402.5,-1014.0462 262.5,-1014.0462"/>
<text text-anchor="start" x="267.5" y="-1022.6462" font-family="Helvetica,sans-Serif" font-weight="bold" font-size="11.00" fill="#000000">AspNetUserRoles</text>
<text text-anchor="start" x="368.0219" y="-1022.1462" font-family="Helvetica,sans-Serif" font-size="11.00" fill="#000000">[table]</text>
<polygon fill="none" stroke="#000000" points="262.5,-995.0462 262.5,-1014.0462 402.5,-1014.0462 402.5,-995.0462 262.5,-995.0462"/>
<text text-anchor="start" x="265.5" y="-1001.1462" font-family="Helvetica,sans-Serif" font-size="11.00" fill="#000000">...</text>
<polygon fill="#ffffff" stroke="transparent" points="262.5,-976.0462 262.5,-995.0462 317.5,-995.0462 317.5,-976.0462 262.5,-976.0462"/>
<polygon fill="none" stroke="#000000" points="262.5,-976.0462 262.5,-995.0462 317.5,-995.0462 317.5,-976.0462 262.5,-976.0462"/>
<text text-anchor="start" x="265.5" y="-982.1462" font-family="Helvetica,sans-Serif" font-size="11.00" fill="#000000">&lt; 2</text>
<polygon fill="#ffffff" stroke="transparent" points="317.5,-976.0462 317.5,-995.0462 372.5,-995.0462 372.5,-976.0462 317.5,-976.0462"/>
<polygon fill="none" stroke="#000000" points="317.5,-976.0462 317.5,-995.0462 372.5,-995.0462 372.5,-976.0462 317.5,-976.0462"/>
<text text-anchor="start" x="337.1105" y="-982.1462" font-family="Helvetica,sans-Serif" font-size="11.00" fill="#000000">0 rows</text>
<polygon fill="#ffffff" stroke="transparent" points="372.5,-976.0462 372.5,-995.0462 402.5,-995.0462 402.5,-976.0462 372.5,-976.0462"/>
<polygon fill="none" stroke="#000000" points="372.5,-976.0462 372.5,-995.0462 402.5,-995.0462 402.5,-976.0462 372.5,-976.0462"/>
<text text-anchor="start" x="393.3862" y="-982.1462" font-family="Helvetica,sans-Serif" font-size="11.00" fill="#000000"> &#160;</text>
</a>
</g>
</g>
<!-- AspNetUserRoles&#45;&gt;AspNetUsers -->
<g id="edge3" class="edge">
<title>AspNetUserRoles:w&#45;&gt;AspNetUsers:e</title>
<path fill="none" stroke="#000000" d="M248.0825,-1002.5192C230.8343,-998.3507 223.066,-985.7549 212,-966.0462 189.3716,-925.7448 217.7196,-552.0462 171.5,-552.0462"/>
<polygon fill="#000000" stroke="#000000" points="254.5445,-1003.2036 262.1208,-1007.6262 258.5222,-1003.6249 262.5,-1004.0462 262.5,-1004.0462 262.5,-1004.0462 258.5222,-1003.6249 262.8792,-1000.4662 254.5445,-1003.2036 254.5445,-1003.2036"/>
<ellipse fill="none" stroke="#000000" cx="251.3623" cy="-1002.8665" rx="3.2" ry="3.2"/>
</g>
<!-- AspNetUserTokens -->
<g id="node5" class="node">
<title>AspNetUserTokens</title>
<g id="a_node5"><a xlink:href="../../tables/AspNetUserTokens.html" xlink:title="AspNetUserTokens" target="_top">
<polygon fill="#ffffff" stroke="transparent" points="220,-821.0462 220,-955.0462 445,-955.0462 445,-821.0462 220,-821.0462"/>
<polygon fill="#f5f5f5" stroke="transparent" points="222.5,-930.0462 222.5,-953.0462 443.5,-953.0462 443.5,-930.0462 222.5,-930.0462"/>
<polygon fill="none" stroke="#000000" points="222.5,-930.0462 222.5,-953.0462 443.5,-953.0462 443.5,-930.0462 222.5,-930.0462"/>
<text text-anchor="start" x="227.5" y="-938.6462" font-family="Helvetica,sans-Serif" font-weight="bold" font-size="11.00" fill="#000000">AspNetUserTokens</text>
<text text-anchor="start" x="408.5437" y="-938.1462" font-family="Helvetica,sans-Serif" font-size="11.00" fill="#000000">[table]</text>
<polygon fill="none" stroke="#000000" points="222.5,-908.0462 222.5,-930.0462 353.5,-930.0462 353.5,-908.0462 222.5,-908.0462"/>
<image xlink:href="../../images/primaryKeys.png" width="11px" height="12px" preserveAspectRatio="xMinYMin meet" x="227.5" y="-925.046"/>
<text text-anchor="start" x="242.5" y="-915.1462" font-family="Helvetica,sans-Serif" font-size="11.00" fill="#000000">UserId</text>
<polygon fill="none" stroke="#000000" points="353.5,-908.0462 353.5,-930.0462 443.5,-930.0462 443.5,-908.0462 353.5,-908.0462"/>
<text text-anchor="start" x="356.0043" y="-915.7462" font-family="Helvetica,sans-Serif" font-size="11.00" fill="#000000">text[2147483647]</text>
<polygon fill="none" stroke="#000000" points="222.5,-886.0462 222.5,-908.0462 353.5,-908.0462 353.5,-886.0462 222.5,-886.0462"/>
<image xlink:href="../../images/primaryKeys.png" width="11px" height="12px" preserveAspectRatio="xMinYMin meet" x="227.5" y="-903.046"/>
<text text-anchor="start" x="242.5" y="-893.1462" font-family="Helvetica,sans-Serif" font-size="11.00" fill="#000000">LoginProvider</text>
<polygon fill="none" stroke="#000000" points="353.5,-886.0462 353.5,-908.0462 443.5,-908.0462 443.5,-886.0462 353.5,-886.0462"/>
<text text-anchor="start" x="356.0043" y="-893.7462" font-family="Helvetica,sans-Serif" font-size="11.00" fill="#000000">text[2147483647]</text>
<polygon fill="none" stroke="#000000" points="222.5,-864.0462 222.5,-886.0462 353.5,-886.0462 353.5,-864.0462 222.5,-864.0462"/>
<image xlink:href="../../images/primaryKeys.png" width="11px" height="12px" preserveAspectRatio="xMinYMin meet" x="227.5" y="-881.046"/>
<text text-anchor="start" x="242.5" y="-871.1462" font-family="Helvetica,sans-Serif" font-size="11.00" fill="#000000">Name</text>
<polygon fill="none" stroke="#000000" points="353.5,-864.0462 353.5,-886.0462 443.5,-886.0462 443.5,-864.0462 353.5,-864.0462"/>
<text text-anchor="start" x="356.0043" y="-871.7462" font-family="Helvetica,sans-Serif" font-size="11.00" fill="#000000">text[2147483647]</text>
<polygon fill="none" stroke="#000000" points="222.5,-842.0462 222.5,-864.0462 353.5,-864.0462 353.5,-842.0462 222.5,-842.0462"/>
<text text-anchor="start" x="242.5" y="-849.1462" font-family="Helvetica,sans-Serif" font-size="11.00" fill="#000000">Value</text>
<polygon fill="none" stroke="#000000" points="353.5,-842.0462 353.5,-864.0462 443.5,-864.0462 443.5,-842.0462 353.5,-842.0462"/>
<text text-anchor="start" x="356.0043" y="-849.7462" font-family="Helvetica,sans-Serif" font-size="11.00" fill="#000000">text[2147483647]</text>
<polygon fill="#ffffff" stroke="transparent" points="222.5,-823.0462 222.5,-842.0462 279.5,-842.0462 279.5,-823.0462 222.5,-823.0462"/>
<polygon fill="none" stroke="#000000" points="222.5,-823.0462 222.5,-842.0462 279.5,-842.0462 279.5,-823.0462 222.5,-823.0462"/>
<text text-anchor="start" x="225.5" y="-829.1462" font-family="Helvetica,sans-Serif" font-size="11.00" fill="#000000">&lt; 1</text>
<polygon fill="#ffffff" stroke="transparent" points="279.5,-823.0462 279.5,-842.0462 353.5,-842.0462 353.5,-823.0462 279.5,-823.0462"/>
<polygon fill="none" stroke="#000000" points="279.5,-823.0462 279.5,-842.0462 353.5,-842.0462 353.5,-823.0462 279.5,-823.0462"/>
<text text-anchor="start" x="318.1105" y="-829.1462" font-family="Helvetica,sans-Serif" font-size="11.00" fill="#000000">0 rows</text>
<polygon fill="#ffffff" stroke="transparent" points="353.5,-823.0462 353.5,-842.0462 443.5,-842.0462 443.5,-823.0462 353.5,-823.0462"/>
<polygon fill="none" stroke="#000000" points="353.5,-823.0462 353.5,-842.0462 443.5,-842.0462 443.5,-823.0462 353.5,-823.0462"/>
<text text-anchor="start" x="424.9053" y="-829.1462" font-family="Helvetica,sans-Serif" font-size="11.00" fill="#000000">0 &gt;</text>
<polygon fill="none" stroke="#000000" stroke-width="2" points="221,-822.0462 221,-954.0462 444,-954.0462 444,-822.0462 221,-822.0462"/>
</a>
</g>
</g>
<!-- AspNetUserTokens&#45;&gt;AspNetUsers -->
<g id="edge4" class="edge">
<title>AspNetUserTokens:w&#45;&gt;AspNetUsers:e</title>
<path fill="none" stroke="#000000" d="M208.5749,-914.406C154.3943,-871.9224 248.3714,-552.0462 171.5,-552.0462"/>
<polygon fill="#000000" stroke="#000000" points="214.9103,-916.5171 221.3619,-922.4616 218.7051,-917.7817 222.5,-919.0462 222.5,-919.0462 222.5,-919.0462 218.7051,-917.7817 223.6381,-915.6309 214.9103,-916.5171 214.9103,-916.5171"/>
<ellipse fill="none" stroke="#000000" cx="211.8744" cy="-915.5054" rx="3.2" ry="3.2"/>
</g>
<!-- Competencies -->
<g id="node6" class="node">
<title>Competencies</title>
<g id="a_node6"><a xlink:href="../../tables/Competencies.html" xlink:title="Competencies" target="_top">
<polygon fill="#ffffff" stroke="transparent" points="272,-699.5462 272,-760.5462 393,-760.5462 393,-699.5462 272,-699.5462"/>
<polygon fill="#f5f5f5" stroke="transparent" points="272.5,-737.0462 272.5,-760.0462 393.5,-760.0462 393.5,-737.0462 272.5,-737.0462"/>
<polygon fill="none" stroke="#000000" points="272.5,-737.0462 272.5,-760.0462 393.5,-760.0462 393.5,-737.0462 272.5,-737.0462"/>
<text text-anchor="start" x="277.5" y="-745.6462" font-family="Helvetica,sans-Serif" font-weight="bold" font-size="11.00" fill="#000000">Competencies</text>
<text text-anchor="start" x="359.0219" y="-745.1462" font-family="Helvetica,sans-Serif" font-size="11.00" fill="#000000">[table]</text>
<polygon fill="none" stroke="#000000" points="272.5,-718.0462 272.5,-737.0462 393.5,-737.0462 393.5,-718.0462 272.5,-718.0462"/>
<text text-anchor="start" x="275.5" y="-724.1462" font-family="Helvetica,sans-Serif" font-size="11.00" fill="#000000">...</text>
<polygon fill="#ffffff" stroke="transparent" points="272.5,-699.0462 272.5,-718.0462 313.5,-718.0462 313.5,-699.0462 272.5,-699.0462"/>
<polygon fill="none" stroke="#000000" points="272.5,-699.0462 272.5,-718.0462 313.5,-718.0462 313.5,-699.0462 272.5,-699.0462"/>
<text text-anchor="start" x="275.5" y="-705.1462" font-family="Helvetica,sans-Serif" font-size="11.00" fill="#000000">&lt; 2</text>
<polygon fill="#ffffff" stroke="transparent" points="313.5,-699.0462 313.5,-718.0462 361.5,-718.0462 361.5,-699.0462 313.5,-699.0462"/>
<polygon fill="none" stroke="#000000" points="313.5,-699.0462 313.5,-718.0462 361.5,-718.0462 361.5,-699.0462 313.5,-699.0462"/>
<text text-anchor="start" x="326.1105" y="-705.1462" font-family="Helvetica,sans-Serif" font-size="11.00" fill="#000000">0 rows</text>
<polygon fill="#ffffff" stroke="transparent" points="361.5,-699.0462 361.5,-718.0462 393.5,-718.0462 393.5,-699.0462 361.5,-699.0462"/>
<polygon fill="none" stroke="#000000" points="361.5,-699.0462 361.5,-718.0462 393.5,-718.0462 393.5,-699.0462 361.5,-699.0462"/>
<text text-anchor="start" x="374.9053" y="-705.1462" font-family="Helvetica,sans-Serif" font-size="11.00" fill="#000000">4 &gt;</text>
</a>
</g>
</g>
<!-- Competencies&#45;&gt;AspNetUsers -->
<g id="edge5" class="edge">
<title>Competencies:w&#45;&gt;AspNetUsers:e</title>
<path fill="none" stroke="#000000" d="M258.4945,-723.4232C236.7712,-715.7867 228.191,-701.2631 212,-679.0462 175.6073,-629.1093 233.291,-546.0462 171.5,-552.0462"/>
<polygon fill="#000000" stroke="#000000" points="264.7549,-725.0427 271.5984,-730.5315 268.6275,-726.0444 272.5,-727.0462 272.5,-727.0462 272.5,-727.0462 268.6275,-726.0444 273.4016,-723.5609 264.7549,-725.0427 264.7549,-725.0427"/>
<ellipse fill="none" stroke="#000000" cx="261.6569" cy="-724.2412" rx="3.2" ry="3.2"/>
</g>
<!-- Competencies&#45;&gt;AspNetUsers -->
<g id="edge6" class="edge">
<title>Competencies:w&#45;&gt;AspNetUsers:e</title>
<path fill="none" stroke="#000000" d="M258.1922,-728.7223C236.6912,-728.6515 228.1157,-714.1597 212,-692.0462 175.6073,-642.1093 233.291,-559.0462 171.5,-552.0462"/>
<polygon fill="#000000" stroke="#000000" points="264.5543,-727.9771 272.9189,-730.6218 268.5272,-727.5116 272.5,-727.0462 272.5,-727.0462 272.5,-727.0462 268.5272,-727.5116 272.0811,-723.4707 264.5543,-727.9771 264.5543,-727.9771"/>
<ellipse fill="none" stroke="#000000" cx="261.3761" cy="-728.3494" rx="3.2" ry="3.2"/>
</g>
<!-- CompetencyLevelDescriptions -->
<g id="node7" class="node">
<title>CompetencyLevelDescriptions</title>
<g id="a_node7"><a xlink:href="../../tables/CompetencyLevelDescriptions.html" xlink:title="CompetencyLevelDescriptions" target="_top">
<polygon fill="#ffffff" stroke="transparent" points="508,-763.5462 508,-824.5462 722,-824.5462 722,-763.5462 508,-763.5462"/>
<polygon fill="#f5f5f5" stroke="transparent" points="508,-801.0462 508,-824.0462 722,-824.0462 722,-801.0462 508,-801.0462"/>
<polygon fill="none" stroke="#000000" points="508,-801.0462 508,-824.0462 722,-824.0462 722,-801.0462 508,-801.0462"/>
<text text-anchor="start" x="513" y="-809.6462" font-family="Helvetica,sans-Serif" font-weight="bold" font-size="11.00" fill="#000000">CompetencyLevelDescriptions</text>
<text text-anchor="start" x="687.5219" y="-809.1462" font-family="Helvetica,sans-Serif" font-size="11.00" fill="#000000">[table]</text>
<polygon fill="none" stroke="#000000" points="508,-782.0462 508,-801.0462 722,-801.0462 722,-782.0462 508,-782.0462"/>
<text text-anchor="start" x="511" y="-788.1462" font-family="Helvetica,sans-Serif" font-size="11.00" fill="#000000">...</text>
<polygon fill="#ffffff" stroke="transparent" points="508,-763.0462 508,-782.0462 600,-782.0462 600,-763.0462 508,-763.0462"/>
<polygon fill="none" stroke="#000000" points="508,-763.0462 508,-782.0462 600,-782.0462 600,-763.0462 508,-763.0462"/>
<text text-anchor="start" x="511" y="-769.1462" font-family="Helvetica,sans-Serif" font-size="11.00" fill="#000000">&lt; 3</text>
<polygon fill="#ffffff" stroke="transparent" points="600,-763.0462 600,-782.0462 674,-782.0462 674,-763.0462 600,-763.0462"/>
<polygon fill="none" stroke="#000000" points="600,-763.0462 600,-782.0462 674,-782.0462 674,-763.0462 600,-763.0462"/>
<text text-anchor="start" x="638.6105" y="-769.1462" font-family="Helvetica,sans-Serif" font-size="11.00" fill="#000000">0 rows</text>
<polygon fill="#ffffff" stroke="transparent" points="674,-763.0462 674,-782.0462 722,-782.0462 722,-763.0462 674,-763.0462"/>
<polygon fill="none" stroke="#000000" points="674,-763.0462 674,-782.0462 722,-782.0462 722,-763.0462 674,-763.0462"/>
<text text-anchor="start" x="712.8862" y="-769.1462" font-family="Helvetica,sans-Serif" font-size="11.00" fill="#000000"> &#160;</text>
</a>
</g>
</g>
<!-- CompetencyLevelDescriptions&#45;&gt;AspNetUsers -->
<g id="edge8" class="edge">
<title>CompetencyLevelDescriptions:w&#45;&gt;AspNetUsers:e</title>
<path fill="none" stroke="#000000" d="M493.4179,-791.335C418.6344,-793.9155 257.9597,-811.9862 212,-771.0462 138.0881,-705.207 270.4837,-552.0462 171.5,-552.0462"/>
<polygon fill="#000000" stroke="#000000" points="500.0016,-791.2047 508.0713,-794.6455 504.0008,-791.1254 508,-791.0462 508,-791.0462 508,-791.0462 504.0008,-791.1254 507.9287,-787.4469 500.0016,-791.2047 500.0016,-791.2047"/>
<ellipse fill="none" stroke="#000000" cx="496.8022" cy="-791.268" rx="3.2" ry="3.2"/>
</g>
<!-- CompetencyLevelDescriptions&#45;&gt;AspNetUsers -->
<g id="edge9" class="edge">
<title>CompetencyLevelDescriptions:w&#45;&gt;AspNetUsers:e</title>
<path fill="none" stroke="#000000" d="M493.4043,-791.288C418.5554,-793.4382 257.7978,-808.2592 212,-767.0462 139.7211,-702.003 268.7361,-552.0462 171.5,-552.0462"/>
<polygon fill="#000000" stroke="#000000" points="500.0011,-791.1788 508.0596,-794.6457 504.0005,-791.1125 508,-791.0462 508,-791.0462 508,-791.0462 504.0005,-791.1125 507.9404,-787.4467 500.0011,-791.1788 500.0011,-791.1788"/>
<ellipse fill="none" stroke="#000000" cx="496.8015" cy="-791.2318" rx="3.2" ry="3.2"/>
</g>
<!-- CompetencyLevelDescriptions&#45;&gt;Competencies -->
<g id="edge7" class="edge">
<title>CompetencyLevelDescriptions:w&#45;&gt;Competencies:e</title>
<path fill="none" stroke="#000000" d="M493.6616,-789.5892C449.5905,-780.0628 446.5611,-727.0462 393.5,-727.0462"/>
<polygon fill="#000000" stroke="#000000" points="500.041,-790.2374 507.636,-794.6278 504.0205,-790.6418 508,-791.0462 508,-791.0462 508,-791.0462 504.0205,-790.6418 508.364,-787.4647 500.041,-790.2374 500.041,-790.2374"/>
<ellipse fill="none" stroke="#000000" cx="496.8574" cy="-789.9139" rx="3.2" ry="3.2"/>
</g>
<!-- Coordinators -->
<g id="node8" class="node">
<title>Coordinators</title>
<g id="a_node8"><a xlink:href="../../tables/Coordinators.html" xlink:title="Coordinators" target="_top">
<polygon fill="#ffffff" stroke="transparent" points="558,-123.5462 558,-184.5462 672,-184.5462 672,-123.5462 558,-123.5462"/>
<polygon fill="#f5f5f5" stroke="transparent" points="558,-161.0462 558,-184.0462 672,-184.0462 672,-161.0462 558,-161.0462"/>
<polygon fill="none" stroke="#000000" points="558,-161.0462 558,-184.0462 672,-184.0462 672,-161.0462 558,-161.0462"/>
<text text-anchor="start" x="563" y="-169.6462" font-family="Helvetica,sans-Serif" font-weight="bold" font-size="11.00" fill="#000000">Coordinators</text>
<text text-anchor="start" x="637.5219" y="-169.1462" font-family="Helvetica,sans-Serif" font-size="11.00" fill="#000000">[table]</text>
<polygon fill="none" stroke="#000000" points="558,-142.0462 558,-161.0462 672,-161.0462 672,-142.0462 558,-142.0462"/>
<text text-anchor="start" x="561" y="-148.1462" font-family="Helvetica,sans-Serif" font-size="11.00" fill="#000000">...</text>
<polygon fill="#ffffff" stroke="transparent" points="558,-123.0462 558,-142.0462 600,-142.0462 600,-123.0462 558,-123.0462"/>
<polygon fill="none" stroke="#000000" points="558,-123.0462 558,-142.0462 600,-142.0462 600,-123.0462 558,-123.0462"/>
<text text-anchor="start" x="561" y="-129.1462" font-family="Helvetica,sans-Serif" font-size="11.00" fill="#000000">&lt; 2</text>
<polygon fill="#ffffff" stroke="transparent" points="600,-123.0462 600,-142.0462 649,-142.0462 649,-123.0462 600,-123.0462"/>
<polygon fill="none" stroke="#000000" points="600,-123.0462 600,-142.0462 649,-142.0462 649,-123.0462 600,-123.0462"/>
<text text-anchor="start" x="613.6105" y="-129.1462" font-family="Helvetica,sans-Serif" font-size="11.00" fill="#000000">0 rows</text>
<polygon fill="#ffffff" stroke="transparent" points="649,-123.0462 649,-142.0462 672,-142.0462 672,-123.0462 649,-123.0462"/>
<polygon fill="none" stroke="#000000" points="649,-123.0462 649,-142.0462 672,-142.0462 672,-123.0462 649,-123.0462"/>
<text text-anchor="start" x="662.8862" y="-129.1462" font-family="Helvetica,sans-Serif" font-size="11.00" fill="#000000"> &#160;</text>
</a>
</g>
</g>
<!-- Coordinators&#45;&gt;AspNetUsers -->
<g id="edge11" class="edge">
<title>Coordinators:w&#45;&gt;AspNetUsers:e</title>
<path fill="none" stroke="#000000" d="M547.2787,-150.9144C400.0126,-147.3023 320.3213,-71.4692 212,-176.0462 151.5398,-234.4166 255.5389,-552.0462 171.5,-552.0462"/>
<polygon fill="#000000" stroke="#000000" points="557.2493,-147.0367 557.1509,-155.0361 555.551,-155.0164 555.6494,-147.017 557.2493,-147.0367"/>
<polyline fill="none" stroke="#000000" points="558,-151.0462 554.0003,-150.997 "/>
<ellipse fill="none" stroke="#000000" cx="550.8005" cy="-150.9577" rx="3.2" ry="3.2"/>
</g>
<!-- TechnicalCareers -->
<g id="node9" class="node">
<title>TechnicalCareers</title>
<g id="a_node9"><a xlink:href="../../tables/TechnicalCareers.html" xlink:title="TechnicalCareers" target="_top">
<polygon fill="#ffffff" stroke="transparent" points="263,-229.5462 263,-290.5462 402,-290.5462 402,-229.5462 263,-229.5462"/>
<polygon fill="#f5f5f5" stroke="transparent" points="263.5,-267.0462 263.5,-290.0462 402.5,-290.0462 402.5,-267.0462 263.5,-267.0462"/>
<polygon fill="none" stroke="#000000" points="263.5,-267.0462 263.5,-290.0462 402.5,-290.0462 402.5,-267.0462 263.5,-267.0462"/>
<text text-anchor="start" x="268.5" y="-275.6462" font-family="Helvetica,sans-Serif" font-weight="bold" font-size="11.00" fill="#000000">TechnicalCareers</text>
<text text-anchor="start" x="368.0219" y="-275.1462" font-family="Helvetica,sans-Serif" font-size="11.00" fill="#000000">[table]</text>
<polygon fill="none" stroke="#000000" points="263.5,-248.0462 263.5,-267.0462 402.5,-267.0462 402.5,-248.0462 263.5,-248.0462"/>
<text text-anchor="start" x="266.5" y="-254.1462" font-family="Helvetica,sans-Serif" font-size="11.00" fill="#000000">...</text>
<polygon fill="#ffffff" stroke="transparent" points="263.5,-229.0462 263.5,-248.0462 313.5,-248.0462 313.5,-229.0462 263.5,-229.0462"/>
<polygon fill="none" stroke="#000000" points="263.5,-229.0462 263.5,-248.0462 313.5,-248.0462 313.5,-229.0462 263.5,-229.0462"/>
<text text-anchor="start" x="266.5" y="-235.1462" font-family="Helvetica,sans-Serif" font-size="11.00" fill="#000000">&lt; 2</text>
<polygon fill="#ffffff" stroke="transparent" points="313.5,-229.0462 313.5,-248.0462 366.5,-248.0462 366.5,-229.0462 313.5,-229.0462"/>
<polygon fill="none" stroke="#000000" points="313.5,-229.0462 313.5,-248.0462 366.5,-248.0462 366.5,-229.0462 313.5,-229.0462"/>
<text text-anchor="start" x="331.1105" y="-235.1462" font-family="Helvetica,sans-Serif" font-size="11.00" fill="#000000">0 rows</text>
<polygon fill="#ffffff" stroke="transparent" points="366.5,-229.0462 366.5,-248.0462 402.5,-248.0462 402.5,-229.0462 366.5,-229.0462"/>
<polygon fill="none" stroke="#000000" points="366.5,-229.0462 366.5,-248.0462 402.5,-248.0462 402.5,-229.0462 366.5,-229.0462"/>
<text text-anchor="start" x="383.9053" y="-235.1462" font-family="Helvetica,sans-Serif" font-size="11.00" fill="#000000">6 &gt;</text>
</a>
</g>
</g>
<!-- Coordinators&#45;&gt;TechnicalCareers -->
<g id="edge10" class="edge">
<title>Coordinators:w&#45;&gt;TechnicalCareers:e</title>
<path fill="none" stroke="#000000" d="M543.3512,-152.486C518.8752,-157.836 512.472,-177.1826 486,-195.0462 447.685,-220.9017 448.7228,-257.0462 402.5,-257.0462"/>
<polygon fill="#000000" stroke="#000000" points="550.0384,-151.8288 558.3522,-154.629 554.0192,-151.4375 558,-151.0462 558,-151.0462 558,-151.0462 554.0192,-151.4375 557.6478,-147.4635 550.0384,-151.8288 550.0384,-151.8288"/>
<ellipse fill="none" stroke="#000000" cx="546.8537" cy="-152.1419" rx="3.2" ry="3.2"/>
</g>
<!-- TechnicalCareers&#45;&gt;AspNetUsers -->
<g id="edge46" class="edge">
<title>TechnicalCareers:w&#45;&gt;AspNetUsers:e</title>
<path fill="none" stroke="#000000" d="M248.9327,-256.2588C229.9537,-258.6144 224.1144,-276.4181 212,-299.0462 185.7473,-348.0828 227.1218,-546.0462 171.5,-552.0462"/>
<polygon fill="#000000" stroke="#000000" points="255.5117,-256.6144 263.3057,-260.641 259.5058,-256.8303 263.5,-257.0462 263.5,-257.0462 263.5,-257.0462 259.5058,-256.8303 263.6943,-253.4515 255.5117,-256.6144 255.5117,-256.6144"/>
<ellipse fill="none" stroke="#000000" cx="252.3163" cy="-256.4417" rx="3.2" ry="3.2"/>
</g>
<!-- TechnicalCareers&#45;&gt;AspNetUsers -->
<g id="edge47" class="edge">
<title>TechnicalCareers:w&#45;&gt;AspNetUsers:e</title>
<path fill="none" stroke="#000000" d="M249.7542,-261.6794C230.1193,-271.1067 224.2874,-289.0948 212,-312.0462 185.7473,-361.0828 227.1218,-559.0462 171.5,-552.0462"/>
<polygon fill="#000000" stroke="#000000" points="255.9191,-259.6015 264.6499,-260.4576 259.7095,-258.3239 263.5,-257.0462 263.5,-257.0462 263.5,-257.0462 259.7095,-258.3239 262.3501,-253.6348 255.9191,-259.6015 255.9191,-259.6015"/>
<ellipse fill="none" stroke="#000000" cx="252.8867" cy="-260.6236" rx="3.2" ry="3.2"/>
</g>
<!-- EvaluationPeriods -->
<g id="node10" class="node">
<title>EvaluationPeriods</title>
<g id="a_node10"><a xlink:href="../../tables/EvaluationPeriods.html" xlink:title="EvaluationPeriods" target="_top">
<polygon fill="#ffffff" stroke="transparent" points="261,-460.5462 261,-521.5462 404,-521.5462 404,-460.5462 261,-460.5462"/>
<polygon fill="#f5f5f5" stroke="transparent" points="261.5,-498.0462 261.5,-521.0462 404.5,-521.0462 404.5,-498.0462 261.5,-498.0462"/>
<polygon fill="none" stroke="#000000" points="261.5,-498.0462 261.5,-521.0462 404.5,-521.0462 404.5,-498.0462 261.5,-498.0462"/>
<text text-anchor="start" x="266.5" y="-506.6462" font-family="Helvetica,sans-Serif" font-weight="bold" font-size="11.00" fill="#000000">EvaluationPeriods</text>
<text text-anchor="start" x="370.0219" y="-506.1462" font-family="Helvetica,sans-Serif" font-size="11.00" fill="#000000">[table]</text>
<polygon fill="none" stroke="#000000" points="261.5,-479.0462 261.5,-498.0462 404.5,-498.0462 404.5,-479.0462 261.5,-479.0462"/>
<text text-anchor="start" x="264.5" y="-485.1462" font-family="Helvetica,sans-Serif" font-size="11.00" fill="#000000">...</text>
<polygon fill="#ffffff" stroke="transparent" points="261.5,-460.0462 261.5,-479.0462 313.5,-479.0462 313.5,-460.0462 261.5,-460.0462"/>
<polygon fill="none" stroke="#000000" points="261.5,-460.0462 261.5,-479.0462 313.5,-479.0462 313.5,-460.0462 261.5,-460.0462"/>
<text text-anchor="start" x="264.5" y="-466.1462" font-family="Helvetica,sans-Serif" font-size="11.00" fill="#000000">&lt; 2</text>
<polygon fill="#ffffff" stroke="transparent" points="313.5,-460.0462 313.5,-479.0462 367.5,-479.0462 367.5,-460.0462 313.5,-460.0462"/>
<polygon fill="none" stroke="#000000" points="313.5,-460.0462 313.5,-479.0462 367.5,-479.0462 367.5,-460.0462 313.5,-460.0462"/>
<text text-anchor="start" x="332.1105" y="-466.1462" font-family="Helvetica,sans-Serif" font-size="11.00" fill="#000000">0 rows</text>
<polygon fill="#ffffff" stroke="transparent" points="367.5,-460.0462 367.5,-479.0462 404.5,-479.0462 404.5,-460.0462 367.5,-460.0462"/>
<polygon fill="none" stroke="#000000" points="367.5,-460.0462 367.5,-479.0462 404.5,-479.0462 404.5,-460.0462 367.5,-460.0462"/>
<text text-anchor="start" x="385.9053" y="-466.1462" font-family="Helvetica,sans-Serif" font-size="11.00" fill="#000000">3 &gt;</text>
</a>
</g>
</g>
<!-- EvaluationPeriods&#45;&gt;AspNetUsers -->
<g id="edge12" class="edge">
<title>EvaluationPeriods:w&#45;&gt;AspNetUsers:e</title>
<path fill="none" stroke="#000000" d="M246.8571,-488.5159C213.5328,-495.8019 215.0223,-546.7259 171.5,-552.0462"/>
<polygon fill="#000000" stroke="#000000" points="253.5041,-488.3028 261.6154,-491.6444 257.5021,-488.1745 261.5,-488.0462 261.5,-488.0462 261.5,-488.0462 257.5021,-488.1745 261.3846,-484.4481 253.5041,-488.3028 253.5041,-488.3028"/>
<ellipse fill="none" stroke="#000000" cx="250.3058" cy="-488.4054" rx="3.2" ry="3.2"/>
</g>
<!-- EvaluationPeriods&#45;&gt;AspNetUsers -->
<g id="edge13" class="edge">
<title>EvaluationPeriods:w&#45;&gt;AspNetUsers:e</title>
<path fill="none" stroke="#000000" d="M247.2995,-492.2213C213.5188,-508.1969 215.2141,-558.2806 171.5,-552.0462"/>
<polygon fill="#000000" stroke="#000000" points="253.8248,-490.3028 262.5155,-491.5 257.6624,-489.1745 261.5,-488.0462 261.5,-488.0462 261.5,-488.0462 257.6624,-489.1745 260.4845,-484.5924 253.8248,-490.3028 253.8248,-490.3028"/>
<ellipse fill="none" stroke="#000000" cx="250.7548" cy="-491.2055" rx="3.2" ry="3.2"/>
</g>
<!-- FormQuestions -->
<g id="node11" class="node">
<title>FormQuestions</title>
<g id="a_node11"><a xlink:href="../../tables/FormQuestions.html" xlink:title="FormQuestions" target="_top">
<polygon fill="#ffffff" stroke="transparent" points="551.5,-660.5462 551.5,-721.5462 678.5,-721.5462 678.5,-660.5462 551.5,-660.5462"/>
<polygon fill="#f5f5f5" stroke="transparent" points="552,-698.0462 552,-721.0462 679,-721.0462 679,-698.0462 552,-698.0462"/>
<polygon fill="none" stroke="#000000" points="552,-698.0462 552,-721.0462 679,-721.0462 679,-698.0462 552,-698.0462"/>
<text text-anchor="start" x="557" y="-706.6462" font-family="Helvetica,sans-Serif" font-weight="bold" font-size="11.00" fill="#000000">FormQuestions</text>
<text text-anchor="start" x="644.5219" y="-706.1462" font-family="Helvetica,sans-Serif" font-size="11.00" fill="#000000">[table]</text>
<polygon fill="none" stroke="#000000" points="552,-679.0462 552,-698.0462 679,-698.0462 679,-679.0462 552,-679.0462"/>
<text text-anchor="start" x="555" y="-685.1462" font-family="Helvetica,sans-Serif" font-size="11.00" fill="#000000">...</text>
<polygon fill="#ffffff" stroke="transparent" points="552,-660.0462 552,-679.0462 596,-679.0462 596,-660.0462 552,-660.0462"/>
<polygon fill="none" stroke="#000000" points="552,-660.0462 552,-679.0462 596,-679.0462 596,-660.0462 552,-660.0462"/>
<text text-anchor="start" x="555" y="-666.1462" font-family="Helvetica,sans-Serif" font-size="11.00" fill="#000000">&lt; 3</text>
<polygon fill="#ffffff" stroke="transparent" points="596,-660.0462 596,-679.0462 646,-679.0462 646,-660.0462 596,-660.0462"/>
<polygon fill="none" stroke="#000000" points="596,-660.0462 596,-679.0462 646,-679.0462 646,-660.0462 596,-660.0462"/>
<text text-anchor="start" x="610.6105" y="-666.1462" font-family="Helvetica,sans-Serif" font-size="11.00" fill="#000000">0 rows</text>
<polygon fill="#ffffff" stroke="transparent" points="646,-660.0462 646,-679.0462 679,-679.0462 679,-660.0462 646,-660.0462"/>
<polygon fill="none" stroke="#000000" points="646,-660.0462 646,-679.0462 679,-679.0462 679,-660.0462 646,-660.0462"/>
<text text-anchor="start" x="660.4053" y="-666.1462" font-family="Helvetica,sans-Serif" font-size="11.00" fill="#000000">1 &gt;</text>
</a>
</g>
</g>
<!-- FormQuestions&#45;&gt;AspNetUsers -->
<g id="edge15" class="edge">
<title>FormQuestions:w&#45;&gt;AspNetUsers:e</title>
<path fill="none" stroke="#000000" d="M537.3655,-688.0734C452.5731,-688.3074 269.3378,-689.0444 212,-646.0462 175.6061,-618.754 216.9905,-552.0462 171.5,-552.0462"/>
<polygon fill="#000000" stroke="#000000" points="544,-688.0611 552.0067,-691.6462 548,-688.0537 552,-688.0462 552,-688.0462 552,-688.0462 548,-688.0537 551.9933,-684.4462 544,-688.0611 544,-688.0611"/>
<ellipse fill="none" stroke="#000000" cx="540.8" cy="-688.0671" rx="3.2" ry="3.2"/>
</g>
<!-- FormQuestions&#45;&gt;AspNetUsers -->
<g id="edge16" class="edge">
<title>FormQuestions:w&#45;&gt;AspNetUsers:e</title>
<path fill="none" stroke="#000000" d="M537.3496,-688.0332C452.4933,-687.8449 269.5197,-684.9805 212,-642.0462 176.8491,-615.8086 215.3634,-552.0462 171.5,-552.0462"/>
<polygon fill="#000000" stroke="#000000" points="544,-688.039 551.9968,-691.6462 548,-688.0426 552,-688.0462 552,-688.0462 552,-688.0462 548,-688.0426 552.0032,-684.4462 544,-688.039 544,-688.039"/>
<ellipse fill="none" stroke="#000000" cx="540.8" cy="-688.0362" rx="3.2" ry="3.2"/>
</g>
<!-- FormQuestions&#45;&gt;Competencies -->
<g id="edge14" class="edge">
<title>FormQuestions:w&#45;&gt;Competencies:e</title>
<path fill="none" stroke="#000000" d="M537.5334,-688.5975C477.2764,-693.3378 460.9447,-727.0462 393.5,-727.0462"/>
<polygon fill="#000000" stroke="#000000" points="544.0058,-688.3509 552.1371,-691.6436 548.0029,-688.1986 552,-688.0462 552,-688.0462 552,-688.0462 548.0029,-688.1986 551.8629,-684.4488 544.0058,-688.3509 544.0058,-688.3509"/>
<ellipse fill="none" stroke="#000000" cx="540.8081" cy="-688.4728" rx="3.2" ry="3.2"/>
</g>
<!-- ProfessorCompetencyAssignments -->
<g id="node12" class="node">
<title>ProfessorCompetencyAssignments</title>
<g id="a_node12"><a xlink:href="../../tables/ProfessorCompetencyAssignments.html" xlink:title="ProfessorCompetencyAssignments" target="_top">
<polygon fill="#ffffff" stroke="transparent" points="494,-499.5462 494,-560.5462 736,-560.5462 736,-499.5462 494,-499.5462"/>
<polygon fill="#f5f5f5" stroke="transparent" points="494,-537.0462 494,-560.0462 736,-560.0462 736,-537.0462 494,-537.0462"/>
<polygon fill="none" stroke="#000000" points="494,-537.0462 494,-560.0462 736,-560.0462 736,-537.0462 494,-537.0462"/>
<text text-anchor="start" x="499" y="-545.6462" font-family="Helvetica,sans-Serif" font-weight="bold" font-size="11.00" fill="#000000">ProfessorCompetencyAssignments</text>
<text text-anchor="start" x="701.5219" y="-545.1462" font-family="Helvetica,sans-Serif" font-size="11.00" fill="#000000">[table]</text>
<polygon fill="none" stroke="#000000" points="494,-518.0462 494,-537.0462 736,-537.0462 736,-518.0462 494,-518.0462"/>
<text text-anchor="start" x="497" y="-524.1462" font-family="Helvetica,sans-Serif" font-size="11.00" fill="#000000">...</text>
<polygon fill="#ffffff" stroke="transparent" points="494,-499.0462 494,-518.0462 596,-518.0462 596,-499.0462 494,-499.0462"/>
<polygon fill="none" stroke="#000000" points="494,-499.0462 494,-518.0462 596,-518.0462 596,-499.0462 494,-499.0462"/>
<text text-anchor="start" x="497" y="-505.1462" font-family="Helvetica,sans-Serif" font-size="11.00" fill="#000000">&lt; 6</text>
<polygon fill="#ffffff" stroke="transparent" points="596,-499.0462 596,-518.0462 674,-518.0462 674,-499.0462 596,-499.0462"/>
<polygon fill="none" stroke="#000000" points="596,-499.0462 596,-518.0462 674,-518.0462 674,-499.0462 596,-499.0462"/>
<text text-anchor="start" x="638.6105" y="-505.1462" font-family="Helvetica,sans-Serif" font-size="11.00" fill="#000000">0 rows</text>
<polygon fill="#ffffff" stroke="transparent" points="674,-499.0462 674,-518.0462 736,-518.0462 736,-499.0462 674,-499.0462"/>
<polygon fill="none" stroke="#000000" points="674,-499.0462 674,-518.0462 736,-518.0462 736,-499.0462 674,-499.0462"/>
<text text-anchor="start" x="717.4053" y="-505.1462" font-family="Helvetica,sans-Serif" font-size="11.00" fill="#000000">1 &gt;</text>
</a>
</g>
</g>
<!-- ProfessorCompetencyAssignments&#45;&gt;AspNetUsers -->
<g id="edge18" class="edge">
<title>ProfessorCompetencyAssignments:w&#45;&gt;AspNetUsers:e</title>
<path fill="none" stroke="#000000" d="M479.4621,-527.9255C471.278,-529.0122 465.2768,-530.8623 453,-532.0462 328.1527,-544.0862 296.9265,-552.0462 171.5,-552.0462"/>
<polygon fill="#000000" stroke="#000000" points="486.0146,-527.5293 494.2174,-530.6397 490.0073,-527.2877 494,-527.0462 494,-527.0462 494,-527.0462 490.0073,-527.2877 493.7826,-523.4528 486.0146,-527.5293 486.0146,-527.5293"/>
<ellipse fill="none" stroke="#000000" cx="482.8204" cy="-527.7225" rx="3.2" ry="3.2"/>
</g>
<!-- ProfessorCompetencyAssignments&#45;&gt;AspNetUsers -->
<g id="edge22" class="edge">
<title>ProfessorCompetencyAssignments:w&#45;&gt;AspNetUsers:e</title>
<path fill="none" stroke="#000000" d="M479.3222,-527.327C400.1936,-530.0736 238.8891,-552.0462 171.5,-552.0462"/>
<polygon fill="#000000" stroke="#000000" points="486.0015,-527.1993 494.0689,-530.6456 490.0007,-527.1227 494,-527.0462 494,-527.0462 494,-527.0462 490.0007,-527.1227 493.9311,-523.4469 486.0015,-527.1993 486.0015,-527.1993"/>
<ellipse fill="none" stroke="#000000" cx="482.802" cy="-527.2605" rx="3.2" ry="3.2"/>
</g>
<!-- ProfessorCompetencyAssignments&#45;&gt;Competencies -->
<g id="edge17" class="edge">
<title>ProfessorCompetencyAssignments:w&#45;&gt;Competencies:e</title>
<path fill="none" stroke="#000000" d="M480.2504,-532.8161C443.5502,-565.6082 438.1885,-727.0462 393.5,-727.0462"/>
<polygon fill="#000000" stroke="#000000" points="486.6232,-530.1419 495.393,-530.3658 490.3116,-528.594 494,-527.0462 494,-527.0462 494,-527.0462 490.3116,-528.594 492.607,-523.7267 486.6232,-530.1419 486.6232,-530.1419"/>
<ellipse fill="none" stroke="#000000" cx="483.6725" cy="-531.3801" rx="3.2" ry="3.2"/>
</g>
<!-- ProfessorCompetencyAssignments&#45;&gt;TechnicalCareers -->
<g id="edge21" class="edge">
<title>ProfessorCompetencyAssignments:w&#45;&gt;TechnicalCareers:e</title>
<path fill="none" stroke="#000000" d="M479.4807,-525.5256C429.1299,-513.4302 475.4622,-431.6137 453,-368.0462 434.9424,-316.9438 456.699,-257.0462 402.5,-257.0462"/>
<polygon fill="#000000" stroke="#000000" points="486.0435,-526.2129 493.625,-530.6266 490.0218,-526.6296 494,-527.0462 494,-527.0462 494,-527.0462 490.0218,-526.6296 494.375,-523.4658 486.0435,-526.2129 486.0435,-526.2129"/>
<ellipse fill="none" stroke="#000000" cx="482.8609" cy="-525.8796" rx="3.2" ry="3.2"/>
</g>
<!-- ProfessorCompetencyAssignments&#45;&gt;EvaluationPeriods -->
<g id="edge19" class="edge">
<title>ProfessorCompetencyAssignments:w&#45;&gt;EvaluationPeriods:e</title>
<path fill="none" stroke="#000000" d="M479.4762,-525.3704C449.2944,-517.9056 442.4665,-488.0462 404.5,-488.0462"/>
<polygon fill="#000000" stroke="#000000" points="486.0527,-526.1292 493.5873,-530.6225 490.0264,-526.5877 494,-527.0462 494,-527.0462 494,-527.0462 490.0264,-526.5877 494.4127,-523.4699 486.0527,-526.1292 486.0527,-526.1292"/>
<ellipse fill="none" stroke="#000000" cx="482.8738" cy="-525.7624" rx="3.2" ry="3.2"/>
</g>
<!-- Professors -->
<g id="node13" class="node">
<title>Professors</title>
<g id="a_node13"><a xlink:href="../../tables/Professors.html" xlink:title="Professors" target="_top">
<polygon fill="#ffffff" stroke="transparent" points="282,-378.5462 282,-439.5462 383,-439.5462 383,-378.5462 282,-378.5462"/>
<polygon fill="#f5f5f5" stroke="transparent" points="282.5,-416.0462 282.5,-439.0462 383.5,-439.0462 383.5,-416.0462 282.5,-416.0462"/>
<polygon fill="none" stroke="#000000" points="282.5,-416.0462 282.5,-439.0462 383.5,-439.0462 383.5,-416.0462 282.5,-416.0462"/>
<text text-anchor="start" x="287.5" y="-424.6462" font-family="Helvetica,sans-Serif" font-weight="bold" font-size="11.00" fill="#000000">Professors</text>
<text text-anchor="start" x="349.0219" y="-424.1462" font-family="Helvetica,sans-Serif" font-size="11.00" fill="#000000">[table]</text>
<polygon fill="none" stroke="#000000" points="282.5,-397.0462 282.5,-416.0462 383.5,-416.0462 383.5,-397.0462 282.5,-397.0462"/>
<text text-anchor="start" x="285.5" y="-403.1462" font-family="Helvetica,sans-Serif" font-size="11.00" fill="#000000">...</text>
<polygon fill="#ffffff" stroke="transparent" points="282.5,-378.0462 282.5,-397.0462 313.5,-397.0462 313.5,-378.0462 282.5,-378.0462"/>
<polygon fill="none" stroke="#000000" points="282.5,-378.0462 282.5,-397.0462 313.5,-397.0462 313.5,-378.0462 282.5,-378.0462"/>
<text text-anchor="start" x="285.5" y="-384.1462" font-family="Helvetica,sans-Serif" font-size="11.00" fill="#000000">&lt; 1</text>
<polygon fill="#ffffff" stroke="transparent" points="313.5,-378.0462 313.5,-397.0462 356.5,-397.0462 356.5,-378.0462 313.5,-378.0462"/>
<polygon fill="none" stroke="#000000" points="313.5,-378.0462 313.5,-397.0462 356.5,-397.0462 356.5,-378.0462 313.5,-378.0462"/>
<text text-anchor="start" x="321.1105" y="-384.1462" font-family="Helvetica,sans-Serif" font-size="11.00" fill="#000000">0 rows</text>
<polygon fill="#ffffff" stroke="transparent" points="356.5,-378.0462 356.5,-397.0462 383.5,-397.0462 383.5,-378.0462 356.5,-378.0462"/>
<polygon fill="none" stroke="#000000" points="356.5,-378.0462 356.5,-397.0462 383.5,-397.0462 383.5,-378.0462 356.5,-378.0462"/>
<text text-anchor="start" x="364.9053" y="-384.1462" font-family="Helvetica,sans-Serif" font-size="11.00" fill="#000000">2 &gt;</text>
</a>
</g>
</g>
<!-- ProfessorCompetencyAssignments&#45;&gt;Professors -->
<g id="edge20" class="edge">
<title>ProfessorCompetencyAssignments:w&#45;&gt;Professors:e</title>
<path fill="none" stroke="#000000" d="M479.4963,-523.4273C461.7896,-511.6501 475.0409,-473.8082 453,-450.0462 428.138,-423.2428 420.0588,-406.0462 383.5,-406.0462"/>
<polygon fill="#000000" stroke="#000000" points="486.238,-525.1094 493.1284,-530.5391 490.119,-526.0778 494,-527.0462 494,-527.0462 494,-527.0462 490.119,-526.0778 494.8716,-523.5533 486.238,-525.1094 486.238,-525.1094"/>
<ellipse fill="none" stroke="#000000" cx="483.1332" cy="-524.3347" rx="3.2" ry="3.2"/>
</g>
<!-- Professors&#45;&gt;AspNetUsers -->
<g id="edge23" class="edge">
<title>Professors:w&#45;&gt;AspNetUsers:e</title>
<path fill="none" stroke="#000000" d="M272.0402,-406.5272C243.4119,-409.3546 233.2607,-424.5678 212,-450.0462 180.7494,-487.4964 220.2761,-552.0462 171.5,-552.0462"/>
<polygon fill="#000000" stroke="#000000" points="281.5171,-402.0872 281.8846,-410.0788 280.2863,-410.1523 279.9188,-402.1607 281.5171,-402.0872"/>
<polyline fill="none" stroke="#000000" points="282.5,-406.0462 278.5042,-406.23 "/>
<ellipse fill="none" stroke="#000000" cx="275.3076" cy="-406.377" rx="3.2" ry="3.2"/>
</g>
<!-- QuestionResponses -->
<g id="node14" class="node">
<title>QuestionResponses</title>
<g id="a_node14"><a xlink:href="../../tables/QuestionResponses.html" xlink:title="QuestionResponses" target="_top">
<polygon fill="#ffffff" stroke="transparent" points="1057,-602.5462 1057,-663.5462 1212,-663.5462 1212,-602.5462 1057,-602.5462"/>
<polygon fill="#f5f5f5" stroke="transparent" points="1057.5,-640.0462 1057.5,-663.0462 1212.5,-663.0462 1212.5,-640.0462 1057.5,-640.0462"/>
<polygon fill="none" stroke="#000000" points="1057.5,-640.0462 1057.5,-663.0462 1212.5,-663.0462 1212.5,-640.0462 1057.5,-640.0462"/>
<text text-anchor="start" x="1062.5" y="-648.6462" font-family="Helvetica,sans-Serif" font-weight="bold" font-size="11.00" fill="#000000">QuestionResponses</text>
<text text-anchor="start" x="1178.0219" y="-648.1462" font-family="Helvetica,sans-Serif" font-size="11.00" fill="#000000">[table]</text>
<polygon fill="none" stroke="#000000" points="1057.5,-621.0462 1057.5,-640.0462 1212.5,-640.0462 1212.5,-621.0462 1057.5,-621.0462"/>
<text text-anchor="start" x="1060.5" y="-627.1462" font-family="Helvetica,sans-Serif" font-size="11.00" fill="#000000">...</text>
<polygon fill="#ffffff" stroke="transparent" points="1057.5,-602.0462 1057.5,-621.0462 1120.5,-621.0462 1120.5,-602.0462 1057.5,-602.0462"/>
<polygon fill="none" stroke="#000000" points="1057.5,-602.0462 1057.5,-621.0462 1120.5,-621.0462 1120.5,-602.0462 1057.5,-602.0462"/>
<text text-anchor="start" x="1060.5" y="-608.1462" font-family="Helvetica,sans-Serif" font-size="11.00" fill="#000000">&lt; 4</text>
<polygon fill="#ffffff" stroke="transparent" points="1120.5,-602.0462 1120.5,-621.0462 1179.5,-621.0462 1179.5,-602.0462 1120.5,-602.0462"/>
<polygon fill="none" stroke="#000000" points="1120.5,-602.0462 1120.5,-621.0462 1179.5,-621.0462 1179.5,-602.0462 1120.5,-602.0462"/>
<text text-anchor="start" x="1144.1105" y="-608.1462" font-family="Helvetica,sans-Serif" font-size="11.00" fill="#000000">0 rows</text>
<polygon fill="#ffffff" stroke="transparent" points="1179.5,-602.0462 1179.5,-621.0462 1212.5,-621.0462 1212.5,-602.0462 1179.5,-602.0462"/>
<polygon fill="none" stroke="#000000" points="1179.5,-602.0462 1179.5,-621.0462 1212.5,-621.0462 1212.5,-602.0462 1179.5,-602.0462"/>
<text text-anchor="start" x="1203.3862" y="-608.1462" font-family="Helvetica,sans-Serif" font-size="11.00" fill="#000000"> &#160;</text>
</a>
</g>
</g>
<!-- QuestionResponses&#45;&gt;AspNetUsers -->
<g id="edge24" class="edge">
<title>QuestionResponses:w&#45;&gt;AspNetUsers:e</title>
<path fill="none" stroke="#000000" d="M1043.0158,-630.0724C678.0867,-631.3894 568.1019,-681.5912 212,-575.0462 192.1685,-569.1127 192.2001,-552.0462 171.5,-552.0462"/>
<polygon fill="#000000" stroke="#000000" points="1049.5,-630.0607 1057.5065,-633.6462 1053.5,-630.0535 1057.5,-630.0462 1057.5,-630.0462 1057.5,-630.0462 1053.5,-630.0535 1057.4935,-626.4462 1049.5,-630.0607 1049.5,-630.0607"/>
<ellipse fill="none" stroke="#000000" cx="1046.3" cy="-630.0665" rx="3.2" ry="3.2"/>
</g>
<!-- QuestionResponses&#45;&gt;AspNetUsers -->
<g id="edge27" class="edge">
<title>QuestionResponses:w&#45;&gt;AspNetUsers:e</title>
<path fill="none" stroke="#000000" d="M1043.0132,-630.0638C678.0678,-630.9486 571.8726,-664.5334 212,-571.0462 192.7564,-566.0471 191.3824,-552.0462 171.5,-552.0462"/>
<polygon fill="#000000" stroke="#000000" points="1049.5,-630.056 1057.5044,-633.6462 1053.5,-630.0511 1057.5,-630.0462 1057.5,-630.0462 1057.5,-630.0462 1053.5,-630.0511 1057.4956,-626.4462 1049.5,-630.056 1049.5,-630.056"/>
<ellipse fill="none" stroke="#000000" cx="1046.3" cy="-630.0599" rx="3.2" ry="3.2"/>
</g>
<!-- QuestionResponses&#45;&gt;FormQuestions -->
<g id="edge25" class="edge">
<title>QuestionResponses:w&#45;&gt;FormQuestions:e</title>
<path fill="none" stroke="#000000" d="M1043.2669,-632.665C1034.6302,-636.2713 1029.331,-642.6992 1016,-646.0462 869.607,-682.8011 829.9365,-688.0462 679,-688.0462"/>
<polygon fill="#000000" stroke="#000000" points="1049.6321,-631.4939 1058.1515,-633.5868 1053.566,-630.7701 1057.5,-630.0462 1057.5,-630.0462 1057.5,-630.0462 1053.566,-630.7701 1056.8485,-626.5057 1049.6321,-631.4939 1049.6321,-631.4939"/>
<ellipse fill="none" stroke="#000000" cx="1046.4849" cy="-632.073" rx="3.2" ry="3.2"/>
</g>
<!-- StudentCompetencyEvaluations -->
<g id="node15" class="node">
<title>StudentCompetencyEvaluations</title>
<g id="a_node15"><a xlink:href="../../tables/StudentCompetencyEvaluations.html" xlink:title="StudentCompetencyEvaluations" target="_top">
<polygon fill="#ffffff" stroke="transparent" points="785,-538.5462 785,-599.5462 1008,-599.5462 1008,-538.5462 785,-538.5462"/>
<polygon fill="#f5f5f5" stroke="transparent" points="785.5,-576.0462 785.5,-599.0462 1008.5,-599.0462 1008.5,-576.0462 785.5,-576.0462"/>
<polygon fill="none" stroke="#000000" points="785.5,-576.0462 785.5,-599.0462 1008.5,-599.0462 1008.5,-576.0462 785.5,-576.0462"/>
<text text-anchor="start" x="790.5" y="-584.6462" font-family="Helvetica,sans-Serif" font-weight="bold" font-size="11.00" fill="#000000">StudentCompetencyEvaluations</text>
<text text-anchor="start" x="974.0219" y="-584.1462" font-family="Helvetica,sans-Serif" font-size="11.00" fill="#000000">[table]</text>
<polygon fill="none" stroke="#000000" points="785.5,-557.0462 785.5,-576.0462 1008.5,-576.0462 1008.5,-557.0462 785.5,-557.0462"/>
<text text-anchor="start" x="788.5" y="-563.1462" font-family="Helvetica,sans-Serif" font-size="11.00" fill="#000000">...</text>
<polygon fill="#ffffff" stroke="transparent" points="785.5,-538.0462 785.5,-557.0462 877.5,-557.0462 877.5,-538.0462 785.5,-538.0462"/>
<polygon fill="none" stroke="#000000" points="785.5,-538.0462 785.5,-557.0462 877.5,-557.0462 877.5,-538.0462 785.5,-538.0462"/>
<text text-anchor="start" x="788.5" y="-544.1462" font-family="Helvetica,sans-Serif" font-size="11.00" fill="#000000">&lt; 4</text>
<polygon fill="#ffffff" stroke="transparent" points="877.5,-538.0462 877.5,-557.0462 951.5,-557.0462 951.5,-538.0462 877.5,-538.0462"/>
<polygon fill="none" stroke="#000000" points="877.5,-538.0462 877.5,-557.0462 951.5,-557.0462 951.5,-538.0462 877.5,-538.0462"/>
<text text-anchor="start" x="916.1105" y="-544.1462" font-family="Helvetica,sans-Serif" font-size="11.00" fill="#000000">0 rows</text>
<polygon fill="#ffffff" stroke="transparent" points="951.5,-538.0462 951.5,-557.0462 1008.5,-557.0462 1008.5,-538.0462 951.5,-538.0462"/>
<polygon fill="none" stroke="#000000" points="951.5,-538.0462 951.5,-557.0462 1008.5,-557.0462 1008.5,-538.0462 951.5,-538.0462"/>
<text text-anchor="start" x="989.9053" y="-544.1462" font-family="Helvetica,sans-Serif" font-size="11.00" fill="#000000">1 &gt;</text>
</a>
</g>
</g>
<!-- QuestionResponses&#45;&gt;StudentCompetencyEvaluations -->
<g id="edge26" class="edge">
<title>QuestionResponses:w&#45;&gt;StudentCompetencyEvaluations:e</title>
<path fill="none" stroke="#000000" d="M1043.6165,-625.0242C1027.7339,-609.9368 1038.1667,-566.0462 1008.5,-566.0462"/>
<polygon fill="#000000" stroke="#000000" points="1049.977,-627.325 1056.2754,-633.4316 1053.7385,-628.6856 1057.5,-630.0462 1057.5,-630.0462 1057.5,-630.0462 1053.7385,-628.6856 1058.7246,-626.6609 1049.977,-627.325 1049.977,-627.325"/>
<ellipse fill="none" stroke="#000000" cx="1046.9678" cy="-626.2365" rx="3.2" ry="3.2"/>
</g>
<!-- StudentCompetencyEvaluations&#45;&gt;AspNetUsers -->
<g id="edge28" class="edge">
<title>StudentCompetencyEvaluations:w&#45;&gt;AspNetUsers:e</title>
<path fill="none" stroke="#000000" d="M771.0864,-567.0237C762.6642,-568.2517 756.6044,-570.2897 744,-571.0462 507.8736,-585.2195 448.0342,-570.6788 212,-555.0462 193.9901,-553.8534 189.5493,-552.0462 171.5,-552.0462"/>
<polygon fill="#000000" stroke="#000000" points="777.5183,-566.5876 785.7436,-569.638 781.5092,-566.3169 785.5,-566.0462 785.5,-566.0462 785.5,-566.0462 781.5092,-566.3169 785.2564,-562.4545 777.5183,-566.5876 777.5183,-566.5876"/>
<ellipse fill="none" stroke="#000000" cx="774.3257" cy="-566.8041" rx="3.2" ry="3.2"/>
</g>
<!-- StudentCompetencyEvaluations&#45;&gt;AspNetUsers -->
<g id="edge31" class="edge">
<title>StudentCompetencyEvaluations:w&#45;&gt;AspNetUsers:e</title>
<path fill="none" stroke="#000000" d="M770.833,-566.2503C762.5395,-566.4968 756.3951,-566.8969 744,-567.0462 629.3417,-568.4274 600.6341,-569.7784 486,-567.0462 346.1031,-563.7119 311.4367,-552.0462 171.5,-552.0462"/>
<polygon fill="#000000" stroke="#000000" points="777.5008,-566.1576 785.5501,-569.6459 781.5004,-566.1019 785.5,-566.0462 785.5,-566.0462 785.5,-566.0462 781.5004,-566.1019 785.4499,-562.4466 777.5008,-566.1576 777.5008,-566.1576"/>
<ellipse fill="none" stroke="#000000" cx="774.3011" cy="-566.2021" rx="3.2" ry="3.2"/>
</g>
<!-- StudentCompetencyEvaluations&#45;&gt;ProfessorCompetencyAssignments -->
<g id="edge29" class="edge">
<title>StudentCompetencyEvaluations:w&#45;&gt;ProfessorCompetencyAssignments:e</title>
<path fill="none" stroke="#000000" d="M771.7365,-561.5724C758.7048,-551.3284 758.1,-527.0462 736,-527.0462"/>
<polygon fill="#000000" stroke="#000000" points="777.8918,-563.5732 784.3871,-569.4699 781.6959,-564.8097 785.5,-566.0462 785.5,-566.0462 785.5,-566.0462 781.6959,-564.8097 786.6129,-562.6225 777.8918,-563.5732 777.8918,-563.5732"/>
<ellipse fill="none" stroke="#000000" cx="774.8486" cy="-562.5839" rx="3.2" ry="3.2"/>
</g>
<!-- Students -->
<g id="node16" class="node">
<title>Students</title>
<g id="a_node16"><a xlink:href="../../tables/Students.html" xlink:title="Students" target="_top">
<polygon fill="#ffffff" stroke="transparent" points="570,-287.5462 570,-348.5462 660,-348.5462 660,-287.5462 570,-287.5462"/>
<polygon fill="#f5f5f5" stroke="transparent" points="570,-325.0462 570,-348.0462 660,-348.0462 660,-325.0462 570,-325.0462"/>
<polygon fill="none" stroke="#000000" points="570,-325.0462 570,-348.0462 660,-348.0462 660,-325.0462 570,-325.0462"/>
<text text-anchor="start" x="575" y="-333.6462" font-family="Helvetica,sans-Serif" font-weight="bold" font-size="11.00" fill="#000000">Students</text>
<text text-anchor="start" x="625.5219" y="-333.1462" font-family="Helvetica,sans-Serif" font-size="11.00" fill="#000000">[table]</text>
<polygon fill="none" stroke="#000000" points="570,-306.0462 570,-325.0462 660,-325.0462 660,-306.0462 570,-306.0462"/>
<text text-anchor="start" x="573" y="-312.1462" font-family="Helvetica,sans-Serif" font-size="11.00" fill="#000000">...</text>
<polygon fill="#ffffff" stroke="transparent" points="570,-287.0462 570,-306.0462 596,-306.0462 596,-287.0462 570,-287.0462"/>
<polygon fill="none" stroke="#000000" points="570,-287.0462 570,-306.0462 596,-306.0462 596,-287.0462 570,-287.0462"/>
<text text-anchor="start" x="573" y="-293.1462" font-family="Helvetica,sans-Serif" font-size="11.00" fill="#000000">&lt; 2</text>
<polygon fill="#ffffff" stroke="transparent" points="596,-287.0462 596,-306.0462 636,-306.0462 636,-287.0462 596,-287.0462"/>
<polygon fill="none" stroke="#000000" points="596,-287.0462 596,-306.0462 636,-306.0462 636,-287.0462 596,-287.0462"/>
<text text-anchor="start" x="600.6105" y="-293.1462" font-family="Helvetica,sans-Serif" font-size="11.00" fill="#000000">0 rows</text>
<polygon fill="#ffffff" stroke="transparent" points="636,-287.0462 636,-306.0462 660,-306.0462 660,-287.0462 636,-287.0462"/>
<polygon fill="none" stroke="#000000" points="636,-287.0462 636,-306.0462 660,-306.0462 660,-287.0462 636,-287.0462"/>
<text text-anchor="start" x="641.4053" y="-293.1462" font-family="Helvetica,sans-Serif" font-size="11.00" fill="#000000">3 &gt;</text>
</a>
</g>
</g>
<!-- StudentCompetencyEvaluations&#45;&gt;Students -->
<g id="edge30" class="edge">
<title>StudentCompetencyEvaluations:w&#45;&gt;Students:e</title>
<path fill="none" stroke="#000000" d="M776.0778,-554.9372C747.2303,-506.3611 673.6111,-315.0462 660,-315.0462"/>
<polygon fill="#000000" stroke="#000000" points="780.3253,-559.9452 782.7545,-568.3748 782.9127,-562.9957 785.5,-566.0462 785.5,-566.0462 785.5,-566.0462 782.9127,-562.9957 788.2455,-563.7176 780.3253,-559.9452 780.3253,-559.9452"/>
<ellipse fill="none" stroke="#000000" cx="778.2555" cy="-557.5047" rx="3.2" ry="3.2"/>
</g>
<!-- Students&#45;&gt;AspNetUsers -->
<g id="edge37" class="edge">
<title>Students:w&#45;&gt;AspNetUsers:e</title>
<path fill="none" stroke="#000000" d="M559.5202,-314.8761C472.7075,-312.2898 269.5175,-281.7928 212,-332.0462 137.1303,-397.4604 270.9208,-552.0462 171.5,-552.0462"/>
<polygon fill="#000000" stroke="#000000" points="569.2651,-311.0338 569.1351,-319.0327 567.5353,-319.0067 567.6653,-311.0078 569.2651,-311.0338"/>
<polyline fill="none" stroke="#000000" points="570,-315.0462 566.0005,-314.9812 "/>
<ellipse fill="none" stroke="#000000" cx="562.8009" cy="-314.9293" rx="3.2" ry="3.2"/>
</g>
<!-- Students&#45;&gt;TechnicalCareers -->
<g id="edge36" class="edge">
<title>Students:w&#45;&gt;TechnicalCareers:e</title>
<path fill="none" stroke="#000000" d="M555.588,-314.3544C489.6518,-307.8106 476.2035,-257.0462 402.5,-257.0462"/>
<polygon fill="#000000" stroke="#000000" points="562.0092,-314.6626 569.8274,-318.6421 566.0046,-314.8544 570,-315.0462 570,-315.0462 570,-315.0462 566.0046,-314.8544 570.1726,-311.4504 562.0092,-314.6626 562.0092,-314.6626"/>
<ellipse fill="none" stroke="#000000" cx="558.8129" cy="-314.5092" rx="3.2" ry="3.2"/>
</g>
<!-- StudentEvaluationReport -->
<g id="node17" class="node">
<title>StudentEvaluationReport</title>
<g id="a_node17"><a xlink:href="../../tables/StudentEvaluationReport.html" xlink:title="StudentEvaluationReport" target="_top">
<polygon fill="#ffffff" stroke="transparent" points="805,-351.5462 805,-412.5462 988,-412.5462 988,-351.5462 805,-351.5462"/>
<polygon fill="#f5f5f5" stroke="transparent" points="805.5,-389.0462 805.5,-412.0462 988.5,-412.0462 988.5,-389.0462 805.5,-389.0462"/>
<polygon fill="none" stroke="#000000" points="805.5,-389.0462 805.5,-412.0462 988.5,-412.0462 988.5,-389.0462 805.5,-389.0462"/>
<text text-anchor="start" x="810.5" y="-397.6462" font-family="Helvetica,sans-Serif" font-weight="bold" font-size="11.00" fill="#000000">StudentEvaluationReport</text>
<text text-anchor="start" x="954.0219" y="-397.1462" font-family="Helvetica,sans-Serif" font-size="11.00" fill="#000000">[table]</text>
<polygon fill="none" stroke="#000000" points="805.5,-370.0462 805.5,-389.0462 988.5,-389.0462 988.5,-370.0462 805.5,-370.0462"/>
<text text-anchor="start" x="808.5" y="-376.1462" font-family="Helvetica,sans-Serif" font-size="11.00" fill="#000000">...</text>
<polygon fill="#ffffff" stroke="transparent" points="805.5,-351.0462 805.5,-370.0462 882.5,-370.0462 882.5,-351.0462 805.5,-351.0462"/>
<polygon fill="none" stroke="#000000" points="805.5,-351.0462 805.5,-370.0462 882.5,-370.0462 882.5,-351.0462 805.5,-351.0462"/>
<text text-anchor="start" x="808.5" y="-357.1462" font-family="Helvetica,sans-Serif" font-size="11.00" fill="#000000">&lt; 4</text>
<polygon fill="#ffffff" stroke="transparent" points="882.5,-351.0462 882.5,-370.0462 948.5,-370.0462 948.5,-351.0462 882.5,-351.0462"/>
<polygon fill="none" stroke="#000000" points="882.5,-351.0462 882.5,-370.0462 948.5,-370.0462 948.5,-351.0462 882.5,-351.0462"/>
<text text-anchor="start" x="913.1105" y="-357.1462" font-family="Helvetica,sans-Serif" font-size="11.00" fill="#000000">0 rows</text>
<polygon fill="#ffffff" stroke="transparent" points="948.5,-351.0462 948.5,-370.0462 988.5,-370.0462 988.5,-351.0462 948.5,-351.0462"/>
<polygon fill="none" stroke="#000000" points="948.5,-351.0462 948.5,-370.0462 988.5,-370.0462 988.5,-351.0462 948.5,-351.0462"/>
<text text-anchor="start" x="979.3862" y="-357.1462" font-family="Helvetica,sans-Serif" font-size="11.00" fill="#000000"> &#160;</text>
</a>
</g>
</g>
<!-- StudentEvaluationReport&#45;&gt;AspNetUsers -->
<g id="edge32" class="edge">
<title>StudentEvaluationReport:w&#45;&gt;AspNetUsers:e</title>
<path fill="none" stroke="#000000" d="M790.8697,-378.5819C697.8829,-374.7435 235.8459,-348.8782 212,-368.0462 146.7358,-420.5075 255.2353,-552.0462 171.5,-552.0462"/>
<polygon fill="#000000" stroke="#000000" points="797.504,-378.7924 805.3858,-382.6444 801.502,-378.9193 805.5,-379.0462 805.5,-379.0462 805.5,-379.0462 801.502,-378.9193 805.6142,-375.448 797.504,-378.7924 797.504,-378.7924"/>
<ellipse fill="none" stroke="#000000" cx="794.3056" cy="-378.6909" rx="3.2" ry="3.2"/>
</g>
<!-- StudentEvaluationReport&#45;&gt;AspNetUsers -->
<g id="edge35" class="edge">
<title>StudentEvaluationReport:w&#45;&gt;AspNetUsers:e</title>
<path fill="none" stroke="#000000" d="M790.8189,-378.6219C687.8683,-373.9574 260.631,-333.1414 212,-372.0462 147.9688,-423.2712 253.5,-552.0462 171.5,-552.0462"/>
<polygon fill="#000000" stroke="#000000" points="797.5033,-378.8151 805.396,-382.6447 801.5017,-378.9306 805.5,-379.0462 805.5,-379.0462 805.5,-379.0462 801.5017,-378.9306 805.604,-375.4477 797.5033,-378.8151 797.5033,-378.8151"/>
<ellipse fill="none" stroke="#000000" cx="794.3047" cy="-378.7226" rx="3.2" ry="3.2"/>
</g>
<!-- StudentEvaluationReport&#45;&gt;EvaluationPeriods -->
<g id="edge33" class="edge">
<title>StudentEvaluationReport:w&#45;&gt;EvaluationPeriods:e</title>
<path fill="none" stroke="#000000" d="M791.3087,-382.5494C720.4836,-401.2064 409.6515,-488.0462 404.5,-488.0462"/>
<polygon fill="#000000" stroke="#000000" points="797.7331,-380.9635 806.3628,-382.5413 801.6166,-380.0049 805.5,-379.0462 805.5,-379.0462 805.5,-379.0462 801.6166,-380.0049 804.6372,-375.5511 797.7331,-380.9635 797.7331,-380.9635"/>
<ellipse fill="none" stroke="#000000" cx="794.6264" cy="-381.7305" rx="3.2" ry="3.2"/>
</g>
<!-- StudentEvaluationReport&#45;&gt;Students -->
<g id="edge34" class="edge">
<title>StudentEvaluationReport:w&#45;&gt;Students:e</title>
<path fill="none" stroke="#000000" d="M790.8138,-378.0409C733.8634,-369.8988 725.4028,-315.0462 660,-315.0462"/>
<polygon fill="#000000" stroke="#000000" points="797.5187,-378.4998 805.2541,-382.6378 801.5093,-378.773 805.5,-379.0462 805.5,-379.0462 805.5,-379.0462 801.5093,-378.773 805.7459,-375.4546 797.5187,-378.4998 797.5187,-378.4998"/>
<ellipse fill="none" stroke="#000000" cx="794.3261" cy="-378.2813" rx="3.2" ry="3.2"/>
</g>
<!-- StudentSubjects -->
<g id="node18" class="node">
<title>StudentSubjects</title>
<g id="a_node18"><a xlink:href="../../tables/StudentSubjects.html" xlink:title="StudentSubjects" target="_top">
<polygon fill="#ffffff" stroke="transparent" points="830,-135.5462 830,-196.5462 963,-196.5462 963,-135.5462 830,-135.5462"/>
<polygon fill="#f5f5f5" stroke="transparent" points="830.5,-173.0462 830.5,-196.0462 963.5,-196.0462 963.5,-173.0462 830.5,-173.0462"/>
<polygon fill="none" stroke="#000000" points="830.5,-173.0462 830.5,-196.0462 963.5,-196.0462 963.5,-173.0462 830.5,-173.0462"/>
<text text-anchor="start" x="835.5" y="-181.6462" font-family="Helvetica,sans-Serif" font-weight="bold" font-size="11.00" fill="#000000">StudentSubjects</text>
<text text-anchor="start" x="929.0219" y="-181.1462" font-family="Helvetica,sans-Serif" font-size="11.00" fill="#000000">[table]</text>
<polygon fill="none" stroke="#000000" points="830.5,-154.0462 830.5,-173.0462 963.5,-173.0462 963.5,-154.0462 830.5,-154.0462"/>
<text text-anchor="start" x="833.5" y="-160.1462" font-family="Helvetica,sans-Serif" font-size="11.00" fill="#000000">...</text>
<polygon fill="#ffffff" stroke="transparent" points="830.5,-135.0462 830.5,-154.0462 882.5,-154.0462 882.5,-135.0462 830.5,-135.0462"/>
<polygon fill="none" stroke="#000000" points="830.5,-135.0462 830.5,-154.0462 882.5,-154.0462 882.5,-135.0462 830.5,-135.0462"/>
<text text-anchor="start" x="833.5" y="-141.1462" font-family="Helvetica,sans-Serif" font-size="11.00" fill="#000000">&lt; 4</text>
<polygon fill="#ffffff" stroke="transparent" points="882.5,-135.0462 882.5,-154.0462 935.5,-154.0462 935.5,-135.0462 882.5,-135.0462"/>
<polygon fill="none" stroke="#000000" points="882.5,-135.0462 882.5,-154.0462 935.5,-154.0462 935.5,-135.0462 882.5,-135.0462"/>
<text text-anchor="start" x="900.1105" y="-141.1462" font-family="Helvetica,sans-Serif" font-size="11.00" fill="#000000">0 rows</text>
<polygon fill="#ffffff" stroke="transparent" points="935.5,-135.0462 935.5,-154.0462 963.5,-154.0462 963.5,-135.0462 935.5,-135.0462"/>
<polygon fill="none" stroke="#000000" points="935.5,-135.0462 935.5,-154.0462 963.5,-154.0462 963.5,-135.0462 935.5,-135.0462"/>
<text text-anchor="start" x="954.3862" y="-141.1462" font-family="Helvetica,sans-Serif" font-size="11.00" fill="#000000"> &#160;</text>
</a>
</g>
</g>
<!-- StudentSubjects&#45;&gt;AspNetUsers -->
<g id="edge38" class="edge">
<title>StudentSubjects:w&#45;&gt;AspNetUsers:e</title>
<path fill="none" stroke="#000000" d="M815.7932,-161.3696C785.611,-153.8439 781.5278,-123.1121 744,-113.0462 629.8089,-82.4174 298.667,-37.6312 212,-118.0462 140.994,-183.93 268.3635,-552.0462 171.5,-552.0462"/>
<polygon fill="#000000" stroke="#000000" points="822.5515,-162.14 830.0922,-166.6231 826.5257,-162.5931 830.5,-163.0462 830.5,-163.0462 830.5,-163.0462 826.5257,-162.5931 830.9078,-159.4694 822.5515,-162.14 822.5515,-162.14"/>
<ellipse fill="none" stroke="#000000" cx="819.3721" cy="-161.7776" rx="3.2" ry="3.2"/>
</g>
<!-- StudentSubjects&#45;&gt;AspNetUsers -->
<g id="edge41" class="edge">
<title>StudentSubjects:w&#45;&gt;AspNetUsers:e</title>
<path fill="none" stroke="#000000" d="M816.0146,-161.5018C786.1312,-154.5696 780.9677,-126.2646 744,-117.0462 514.5707,-59.8352 385.4031,38.7091 212,-122.0462 141.6146,-187.2978 267.4785,-552.0462 171.5,-552.0462"/>
<polygon fill="#000000" stroke="#000000" points="822.5451,-162.198 830.1183,-166.6259 826.5225,-162.6221 830.5,-163.0462 830.5,-163.0462 830.5,-163.0462 826.5225,-162.6221 830.8817,-159.4665 822.5451,-162.198 822.5451,-162.198"/>
<ellipse fill="none" stroke="#000000" cx="819.3631" cy="-161.8587" rx="3.2" ry="3.2"/>
</g>
<!-- StudentSubjects&#45;&gt;Students -->
<g id="edge39" class="edge">
<title>StudentSubjects:w&#45;&gt;Students:e</title>
<path fill="none" stroke="#000000" d="M816.0003,-164.6241C770.944,-175.5676 789.4495,-240.7963 744,-277.0462 711.9657,-302.5964 700.9758,-315.0462 660,-315.0462"/>
<polygon fill="#000000" stroke="#000000" points="822.547,-163.9118 830.8895,-166.6251 826.5235,-163.479 830.5,-163.0462 830.5,-163.0462 830.5,-163.0462 826.5235,-163.479 830.1105,-159.4674 822.547,-163.9118 822.547,-163.9118"/>
<ellipse fill="none" stroke="#000000" cx="819.3657" cy="-164.258" rx="3.2" ry="3.2"/>
</g>
<!-- Subjects -->
<g id="node19" class="node">
<title>Subjects</title>
<g id="a_node19"><a xlink:href="../../tables/Subjects.html" xlink:title="Subjects" target="_top">
<polygon fill="#ffffff" stroke="transparent" points="570.5,-205.5462 570.5,-266.5462 659.5,-266.5462 659.5,-205.5462 570.5,-205.5462"/>
<polygon fill="#f5f5f5" stroke="transparent" points="571,-243.0462 571,-266.0462 660,-266.0462 660,-243.0462 571,-243.0462"/>
<polygon fill="none" stroke="#000000" points="571,-243.0462 571,-266.0462 660,-266.0462 660,-243.0462 571,-243.0462"/>
<text text-anchor="start" x="576" y="-251.6462" font-family="Helvetica,sans-Serif" font-weight="bold" font-size="11.00" fill="#000000">Subjects</text>
<text text-anchor="start" x="625.5219" y="-251.1462" font-family="Helvetica,sans-Serif" font-size="11.00" fill="#000000">[table]</text>
<polygon fill="none" stroke="#000000" points="571,-224.0462 571,-243.0462 660,-243.0462 660,-224.0462 571,-224.0462"/>
<text text-anchor="start" x="574" y="-230.1462" font-family="Helvetica,sans-Serif" font-size="11.00" fill="#000000">...</text>
<polygon fill="#ffffff" stroke="transparent" points="571,-205.0462 571,-224.0462 596,-224.0462 596,-205.0462 571,-205.0462"/>
<polygon fill="none" stroke="#000000" points="571,-205.0462 571,-224.0462 596,-224.0462 596,-205.0462 571,-205.0462"/>
<text text-anchor="start" x="574" y="-211.1462" font-family="Helvetica,sans-Serif" font-size="11.00" fill="#000000">&lt; 4</text>
<polygon fill="#ffffff" stroke="transparent" points="596,-205.0462 596,-224.0462 636,-224.0462 636,-205.0462 596,-205.0462"/>
<polygon fill="none" stroke="#000000" points="596,-205.0462 596,-224.0462 636,-224.0462 636,-205.0462 596,-205.0462"/>
<text text-anchor="start" x="600.6105" y="-211.1462" font-family="Helvetica,sans-Serif" font-size="11.00" fill="#000000">0 rows</text>
<polygon fill="#ffffff" stroke="transparent" points="636,-205.0462 636,-224.0462 660,-224.0462 660,-205.0462 636,-205.0462"/>
<polygon fill="none" stroke="#000000" points="636,-205.0462 636,-224.0462 660,-224.0462 660,-205.0462 636,-205.0462"/>
<text text-anchor="start" x="641.4053" y="-211.1462" font-family="Helvetica,sans-Serif" font-size="11.00" fill="#000000">1 &gt;</text>
</a>
</g>
</g>
<!-- StudentSubjects&#45;&gt;Subjects -->
<g id="edge40" class="edge">
<title>StudentSubjects:w&#45;&gt;Subjects:e</title>
<path fill="none" stroke="#000000" d="M815.9859,-163.8324C747.4568,-171.5228 736.7959,-233.0462 660,-233.0462"/>
<polygon fill="#000000" stroke="#000000" points="822.5117,-163.4789 830.6947,-166.641 826.5059,-163.2626 830.5,-163.0462 830.5,-163.0462 830.5,-163.0462 826.5059,-163.2626 830.3053,-159.4515 822.5117,-163.4789 822.5117,-163.4789"/>
<ellipse fill="none" stroke="#000000" cx="819.3164" cy="-163.652" rx="3.2" ry="3.2"/>
</g>
<!-- Subjects&#45;&gt;AspNetUsers -->
<g id="edge42" class="edge">
<title>Subjects:w&#45;&gt;AspNetUsers:e</title>
<path fill="none" stroke="#000000" d="M556.2607,-232.7056C406.2973,-225.7746 327.7949,-116.4812 212,-219.0462 156.1972,-268.4734 246.0453,-552.0462 171.5,-552.0462"/>
<polygon fill="#000000" stroke="#000000" points="563.0021,-232.8613 570.9168,-236.6453 567.0011,-232.9538 571,-233.0462 571,-233.0462 571,-233.0462 567.0011,-232.9538 571.0832,-229.4472 563.0021,-232.8613 563.0021,-232.8613"/>
<ellipse fill="none" stroke="#000000" cx="559.803" cy="-232.7874" rx="3.2" ry="3.2"/>
</g>
<!-- Subjects&#45;&gt;AspNetUsers -->
<g id="edge45" class="edge">
<title>Subjects:w&#45;&gt;AspNetUsers:e</title>
<path fill="none" stroke="#000000" d="M556.266,-232.7174C406.355,-226.0283 327.8265,-120.6037 212,-223.0462 156.8221,-271.8482 245.163,-552.0462 171.5,-552.0462"/>
<polygon fill="#000000" stroke="#000000" points="563.002,-232.8677 570.9197,-236.6453 567.001,-232.957 571,-233.0462 571,-233.0462 571,-233.0462 567.001,-232.957 571.0803,-229.4471 563.002,-232.8677 563.002,-232.8677"/>
<ellipse fill="none" stroke="#000000" cx="559.8028" cy="-232.7963" rx="3.2" ry="3.2"/>
</g>
<!-- Subjects&#45;&gt;TechnicalCareers -->
<g id="edge44" class="edge">
<title>Subjects:w&#45;&gt;TechnicalCareers:e</title>
<path fill="none" stroke="#000000" d="M556.2688,-233.3673C492.7292,-236.2153 472.9737,-257.0462 402.5,-257.0462"/>
<polygon fill="#000000" stroke="#000000" points="563.0019,-233.2206 571.0785,-236.6454 567.001,-233.1334 571,-233.0462 571,-233.0462 571,-233.0462 567.001,-233.1334 570.9215,-229.4471 563.0019,-233.2206 563.0019,-233.2206"/>
<ellipse fill="none" stroke="#000000" cx="559.8027" cy="-233.2904" rx="3.2" ry="3.2"/>
</g>
<!-- Subjects&#45;&gt;Professors -->
<g id="edge43" class="edge">
<title>Subjects:w&#45;&gt;Professors:e</title>
<path fill="none" stroke="#000000" d="M556.4816,-233.8282C525.6946,-237.4461 514.7422,-253.3957 486,-277.0462 429.4538,-323.5752 456.7285,-406.0462 383.5,-406.0462"/>
<polygon fill="#000000" stroke="#000000" points="563.0116,-233.4766 571.1936,-236.641 567.0058,-233.2614 571,-233.0462 571,-233.0462 571,-233.0462 567.0058,-233.2614 570.8064,-229.4514 563.0116,-233.4766 563.0116,-233.4766"/>
<ellipse fill="none" stroke="#000000" cx="559.8162" cy="-233.6487" rx="3.2" ry="3.2"/>
</g>
</g>
</svg>
