<?xml version="1.0" encoding="UTF-8" standalone="no"?>
<!DOCTYPE svg PUBLIC "-//W3C//DTD SVG 1.1//EN"
 "http://www.w3.org/Graphics/SVG/1.1/DTD/svg11.dtd">
<!-- Generated by graphviz version 2.40.1 (20161225.0304)
 -->
<!-- Title: twoDegreesRelationshipsDiagram Pages: 1 -->
<svg width="1505pt" height="1214pt"
 viewBox="0.00 0.00 1505.00 1213.81" xmlns="http://www.w3.org/2000/svg" xmlns:xlink="http://www.w3.org/1999/xlink">
<g id="graph0" class="graph" transform="scale(1 1) rotate(0) translate(4 1209.8123)">
<title>twoDegreesRelationshipsDiagram</title>
<polygon fill="#ffffff" stroke="transparent" points="-4,4 -4,-1209.8123 1501,-1209.8123 1501,4 -4,4"/>
<text text-anchor="middle" x="72.4936" y="-7.3" font-family="Helvetica,sans-Serif" font-size="11.00" fill="#000000">Generated by SchemaSpy</text>
<!-- AspNetUserClaims -->
<g id="node1" class="node">
<title>AspNetUserClaims</title>
<g id="a_node1"><a xlink:href="../../tables/AspNetUserClaims.html" xlink:title="AspNetUserClaims" target="_top">
<polygon fill="#ffffff" stroke="transparent" points="266,-1140.8123 266,-1201.8123 413,-1201.8123 413,-1140.8123 266,-1140.8123"/>
<polygon fill="#f5f5f5" stroke="transparent" points="266.5,-1178.3123 266.5,-1201.3123 413.5,-1201.3123 413.5,-1178.3123 266.5,-1178.3123"/>
<polygon fill="none" stroke="#000000" points="266.5,-1178.3123 266.5,-1201.3123 413.5,-1201.3123 413.5,-1178.3123 266.5,-1178.3123"/>
<text text-anchor="start" x="271.5" y="-1186.9123" font-family="Helvetica,sans-Serif" font-weight="bold" font-size="11.00" fill="#000000">AspNetUserClaims</text>
<text text-anchor="start" x="379.0219" y="-1186.4123" font-family="Helvetica,sans-Serif" font-size="11.00" fill="#000000">[table]</text>
<polygon fill="none" stroke="#000000" points="266.5,-1159.3123 266.5,-1178.3123 413.5,-1178.3123 413.5,-1159.3123 266.5,-1159.3123"/>
<text text-anchor="start" x="269.5" y="-1165.4123" font-family="Helvetica,sans-Serif" font-size="11.00" fill="#000000">...</text>
<polygon fill="#ffffff" stroke="transparent" points="266.5,-1140.3123 266.5,-1159.3123 325.5,-1159.3123 325.5,-1140.3123 266.5,-1140.3123"/>
<polygon fill="none" stroke="#000000" points="266.5,-1140.3123 266.5,-1159.3123 325.5,-1159.3123 325.5,-1140.3123 266.5,-1140.3123"/>
<text text-anchor="start" x="269.5" y="-1146.4123" font-family="Helvetica,sans-Serif" font-size="11.00" fill="#000000">&lt; 1</text>
<polygon fill="#ffffff" stroke="transparent" points="325.5,-1140.3123 325.5,-1159.3123 382.5,-1159.3123 382.5,-1140.3123 325.5,-1140.3123"/>
<polygon fill="none" stroke="#000000" points="325.5,-1140.3123 325.5,-1159.3123 382.5,-1159.3123 382.5,-1140.3123 325.5,-1140.3123"/>
<text text-anchor="start" x="347.1105" y="-1146.4123" font-family="Helvetica,sans-Serif" font-size="11.00" fill="#000000">0 rows</text>
<polygon fill="#ffffff" stroke="transparent" points="382.5,-1140.3123 382.5,-1159.3123 413.5,-1159.3123 413.5,-1140.3123 382.5,-1140.3123"/>
<polygon fill="none" stroke="#000000" points="382.5,-1140.3123 382.5,-1159.3123 413.5,-1159.3123 413.5,-1140.3123 382.5,-1140.3123"/>
<text text-anchor="start" x="404.3862" y="-1146.4123" font-family="Helvetica,sans-Serif" font-size="11.00" fill="#000000"> &#160;</text>
</a>
</g>
</g>
<!-- AspNetUsers -->
<g id="node2" class="node">
<title>AspNetUsers</title>
<g id="a_node2"><a xlink:href="../../tables/AspNetUsers.html" xlink:title="AspNetUsers" target="_top">
<polygon fill="#ffffff" stroke="transparent" points="8,-458.8123 8,-585.8123 171,-585.8123 171,-458.8123 8,-458.8123"/>
<polygon fill="#f5f5f5" stroke="transparent" points="8.5,-562.3123 8.5,-585.3123 171.5,-585.3123 171.5,-562.3123 8.5,-562.3123"/>
<polygon fill="none" stroke="#000000" points="8.5,-562.3123 8.5,-585.3123 171.5,-585.3123 171.5,-562.3123 8.5,-562.3123"/>
<text text-anchor="start" x="13.5" y="-570.9123" font-family="Helvetica,sans-Serif" font-weight="bold" font-size="11.00" fill="#000000">AspNetUsers</text>
<text text-anchor="start" x="136.5437" y="-570.4123" font-family="Helvetica,sans-Serif" font-size="11.00" fill="#000000">[table]</text>
<polygon fill="none" stroke="#000000" points="8.5,-540.3123 8.5,-562.3123 171.5,-562.3123 171.5,-540.3123 8.5,-540.3123"/>
<image xlink:href="../../images/primaryKeys.png" width="11px" height="12px" preserveAspectRatio="xMinYMin meet" x="13.5" y="-557.312"/>
<text text-anchor="start" x="28.5" y="-547.4123" font-family="Helvetica,sans-Serif" font-size="11.00" fill="#000000">Id</text>
<polygon fill="#ffffff" stroke="transparent" points="8.5,-518.3123 8.5,-540.3123 171.5,-540.3123 171.5,-518.3123 8.5,-518.3123"/>
<polygon fill="none" stroke="#000000" points="8.5,-518.3123 8.5,-540.3123 171.5,-540.3123 171.5,-518.3123 8.5,-518.3123"/>
<text text-anchor="start" x="28.5" y="-525.4123" font-family="Helvetica,sans-Serif" font-size="11.00" fill="#000000">NormalizedUserName</text>
<polygon fill="#ffffff" stroke="transparent" points="8.5,-496.3123 8.5,-518.3123 171.5,-518.3123 171.5,-496.3123 8.5,-496.3123"/>
<polygon fill="none" stroke="#000000" points="8.5,-496.3123 8.5,-518.3123 171.5,-518.3123 171.5,-496.3123 8.5,-496.3123"/>
<text text-anchor="start" x="28.5" y="-503.4123" font-family="Helvetica,sans-Serif" font-size="11.00" fill="#000000">NormalizedEmail</text>
<polygon fill="none" stroke="#000000" points="8.5,-477.3123 8.5,-496.3123 171.5,-496.3123 171.5,-477.3123 8.5,-477.3123"/>
<text text-anchor="start" x="11.5" y="-483.4123" font-family="Helvetica,sans-Serif" font-size="11.00" fill="#000000">...</text>
<polygon fill="#ffffff" stroke="transparent" points="8.5,-458.3123 8.5,-477.3123 66.5,-477.3123 66.5,-458.3123 8.5,-458.3123"/>
<polygon fill="none" stroke="#000000" points="8.5,-458.3123 8.5,-477.3123 66.5,-477.3123 66.5,-458.3123 8.5,-458.3123"/>
<text text-anchor="start" x="11.5" y="-464.4123" font-family="Helvetica,sans-Serif" font-size="11.00" fill="#000000"> &#160;</text>
<polygon fill="#ffffff" stroke="transparent" points="66.5,-458.3123 66.5,-477.3123 121.5,-477.3123 121.5,-458.3123 66.5,-458.3123"/>
<polygon fill="none" stroke="#000000" points="66.5,-458.3123 66.5,-477.3123 121.5,-477.3123 121.5,-458.3123 66.5,-458.3123"/>
<text text-anchor="start" x="91.6105" y="-464.4123" font-family="Helvetica,sans-Serif" font-size="11.00" fill="#000000">1 row</text>
<polygon fill="#ffffff" stroke="transparent" points="121.5,-458.3123 121.5,-477.3123 171.5,-477.3123 171.5,-458.3123 121.5,-458.3123"/>
<polygon fill="none" stroke="#000000" points="121.5,-458.3123 121.5,-477.3123 171.5,-477.3123 171.5,-458.3123 121.5,-458.3123"/>
<text text-anchor="start" x="146.7904" y="-464.4123" font-family="Helvetica,sans-Serif" font-size="11.00" fill="#000000">29 &gt;</text>
</a>
</g>
</g>
<!-- AspNetUserClaims&#45;&gt;AspNetUsers -->
<g id="edge1" class="edge">
<title>AspNetUserClaims:w&#45;&gt;AspNetUsers:e</title>
<path fill="none" stroke="#000000" d="M252.0258,-1167.0606C233.0104,-1163.34 223.8922,-1151.2825 212,-1130.3123 180.1869,-1074.2145 235.9905,-551.3123 171.5,-551.3123"/>
<polygon fill="#000000" stroke="#000000" points="258.5297,-1167.623 266.1898,-1171.8989 262.5149,-1167.9676 266.5,-1168.3123 266.5,-1168.3123 266.5,-1168.3123 262.5149,-1167.9676 266.8102,-1164.7257 258.5297,-1167.623 258.5297,-1167.623"/>
<ellipse fill="none" stroke="#000000" cx="255.3416" cy="-1167.3472" rx="3.2" ry="3.2"/>
</g>
<!-- AspNetUserLogins -->
<g id="node3" class="node">
<title>AspNetUserLogins</title>
<g id="a_node3"><a xlink:href="../../tables/AspNetUserLogins.html" xlink:title="AspNetUserLogins" target="_top">
<polygon fill="#ffffff" stroke="transparent" points="220,-985.3123 220,-1119.3123 459,-1119.3123 459,-985.3123 220,-985.3123"/>
<polygon fill="#f5f5f5" stroke="transparent" points="222.5,-1094.3123 222.5,-1117.3123 457.5,-1117.3123 457.5,-1094.3123 222.5,-1094.3123"/>
<polygon fill="none" stroke="#000000" points="222.5,-1094.3123 222.5,-1117.3123 457.5,-1117.3123 457.5,-1094.3123 222.5,-1094.3123"/>
<text text-anchor="start" x="227.5" y="-1102.9123" font-family="Helvetica,sans-Serif" font-weight="bold" font-size="11.00" fill="#000000">AspNetUserLogins</text>
<text text-anchor="start" x="422.5437" y="-1102.4123" font-family="Helvetica,sans-Serif" font-size="11.00" fill="#000000">[table]</text>
<polygon fill="none" stroke="#000000" points="222.5,-1072.3123 222.5,-1094.3123 367.5,-1094.3123 367.5,-1072.3123 222.5,-1072.3123"/>
<image xlink:href="../../images/primaryKeys.png" width="11px" height="12px" preserveAspectRatio="xMinYMin meet" x="227.5" y="-1089.31"/>
<text text-anchor="start" x="242.5" y="-1079.4123" font-family="Helvetica,sans-Serif" font-size="11.00" fill="#000000">LoginProvider</text>
<polygon fill="none" stroke="#000000" points="367.5,-1072.3123 367.5,-1094.3123 457.5,-1094.3123 457.5,-1072.3123 367.5,-1072.3123"/>
<text text-anchor="start" x="370.0043" y="-1080.0123" font-family="Helvetica,sans-Serif" font-size="11.00" fill="#000000">text[2147483647]</text>
<polygon fill="none" stroke="#000000" points="222.5,-1050.3123 222.5,-1072.3123 367.5,-1072.3123 367.5,-1050.3123 222.5,-1050.3123"/>
<image xlink:href="../../images/primaryKeys.png" width="11px" height="12px" preserveAspectRatio="xMinYMin meet" x="227.5" y="-1067.31"/>
<text text-anchor="start" x="242.5" y="-1057.4123" font-family="Helvetica,sans-Serif" font-size="11.00" fill="#000000">ProviderKey</text>
<polygon fill="none" stroke="#000000" points="367.5,-1050.3123 367.5,-1072.3123 457.5,-1072.3123 457.5,-1050.3123 367.5,-1050.3123"/>
<text text-anchor="start" x="370.0043" y="-1058.0123" font-family="Helvetica,sans-Serif" font-size="11.00" fill="#000000">text[2147483647]</text>
<polygon fill="none" stroke="#000000" points="222.5,-1028.3123 222.5,-1050.3123 367.5,-1050.3123 367.5,-1028.3123 222.5,-1028.3123"/>
<text text-anchor="start" x="242.5" y="-1035.4123" font-family="Helvetica,sans-Serif" font-size="11.00" fill="#000000">ProviderDisplayName</text>
<polygon fill="none" stroke="#000000" points="367.5,-1028.3123 367.5,-1050.3123 457.5,-1050.3123 457.5,-1028.3123 367.5,-1028.3123"/>
<text text-anchor="start" x="370.0043" y="-1036.0123" font-family="Helvetica,sans-Serif" font-size="11.00" fill="#000000">text[2147483647]</text>
<polygon fill="#ffffff" stroke="transparent" points="222.5,-1006.3123 222.5,-1028.3123 367.5,-1028.3123 367.5,-1006.3123 222.5,-1006.3123"/>
<polygon fill="none" stroke="#000000" points="222.5,-1006.3123 222.5,-1028.3123 367.5,-1028.3123 367.5,-1006.3123 222.5,-1006.3123"/>
<image xlink:href="../../images/foreignKeys.png" width="11px" height="12px" preserveAspectRatio="xMinYMin meet" x="227.5" y="-1023.31"/>
<text text-anchor="start" x="242.5" y="-1013.4123" font-family="Helvetica,sans-Serif" font-size="11.00" fill="#000000">UserId</text>
<polygon fill="none" stroke="#000000" points="367.5,-1006.3123 367.5,-1028.3123 457.5,-1028.3123 457.5,-1006.3123 367.5,-1006.3123"/>
<text text-anchor="start" x="370.0043" y="-1014.0123" font-family="Helvetica,sans-Serif" font-size="11.00" fill="#000000">text[2147483647]</text>
<polygon fill="#ffffff" stroke="transparent" points="222.5,-987.3123 222.5,-1006.3123 286.5,-1006.3123 286.5,-987.3123 222.5,-987.3123"/>
<polygon fill="none" stroke="#000000" points="222.5,-987.3123 222.5,-1006.3123 286.5,-1006.3123 286.5,-987.3123 222.5,-987.3123"/>
<text text-anchor="start" x="225.5" y="-993.4123" font-family="Helvetica,sans-Serif" font-size="11.00" fill="#000000">&lt; 1</text>
<polygon fill="#ffffff" stroke="transparent" points="286.5,-987.3123 286.5,-1006.3123 367.5,-1006.3123 367.5,-987.3123 286.5,-987.3123"/>
<polygon fill="none" stroke="#000000" points="286.5,-987.3123 286.5,-1006.3123 367.5,-1006.3123 367.5,-987.3123 286.5,-987.3123"/>
<text text-anchor="start" x="332.1105" y="-993.4123" font-family="Helvetica,sans-Serif" font-size="11.00" fill="#000000">0 rows</text>
<polygon fill="#ffffff" stroke="transparent" points="367.5,-987.3123 367.5,-1006.3123 457.5,-1006.3123 457.5,-987.3123 367.5,-987.3123"/>
<polygon fill="none" stroke="#000000" points="367.5,-987.3123 367.5,-1006.3123 457.5,-1006.3123 457.5,-987.3123 367.5,-987.3123"/>
<text text-anchor="start" x="438.9053" y="-993.4123" font-family="Helvetica,sans-Serif" font-size="11.00" fill="#000000">0 &gt;</text>
<polygon fill="none" stroke="#000000" stroke-width="2" points="221,-986.3123 221,-1118.3123 458,-1118.3123 458,-986.3123 221,-986.3123"/>
</a>
</g>
</g>
<!-- AspNetUserLogins&#45;&gt;AspNetUsers -->
<g id="edge2" class="edge">
<title>AspNetUserLogins:w&#45;&gt;AspNetUsers:e</title>
<path fill="none" stroke="#000000" d="M208.1245,-1013.5613C134.1941,-969.4598 270.1803,-551.3123 171.5,-551.3123"/>
<polygon fill="#000000" stroke="#000000" points="214.7592,-1015.2924 221.5911,-1020.7957 218.6296,-1016.3024 222.5,-1017.3123 222.5,-1017.3123 222.5,-1017.3123 218.6296,-1016.3024 223.4089,-1013.8289 214.7592,-1015.2924 214.7592,-1015.2924"/>
<ellipse fill="none" stroke="#000000" cx="211.6629" cy="-1014.4845" rx="3.2" ry="3.2"/>
</g>
<!-- AspNetUserRoles -->
<g id="node4" class="node">
<title>AspNetUserRoles</title>
<g id="a_node4"><a xlink:href="../../tables/AspNetUserRoles.html" xlink:title="AspNetUserRoles" target="_top">
<polygon fill="#ffffff" stroke="transparent" points="269.5,-902.8123 269.5,-963.8123 409.5,-963.8123 409.5,-902.8123 269.5,-902.8123"/>
<polygon fill="#f5f5f5" stroke="transparent" points="269.5,-940.3123 269.5,-963.3123 409.5,-963.3123 409.5,-940.3123 269.5,-940.3123"/>
<polygon fill="none" stroke="#000000" points="269.5,-940.3123 269.5,-963.3123 409.5,-963.3123 409.5,-940.3123 269.5,-940.3123"/>
<text text-anchor="start" x="274.5" y="-948.9123" font-family="Helvetica,sans-Serif" font-weight="bold" font-size="11.00" fill="#000000">AspNetUserRoles</text>
<text text-anchor="start" x="375.0219" y="-948.4123" font-family="Helvetica,sans-Serif" font-size="11.00" fill="#000000">[table]</text>
<polygon fill="none" stroke="#000000" points="269.5,-921.3123 269.5,-940.3123 409.5,-940.3123 409.5,-921.3123 269.5,-921.3123"/>
<text text-anchor="start" x="272.5" y="-927.4123" font-family="Helvetica,sans-Serif" font-size="11.00" fill="#000000">...</text>
<polygon fill="#ffffff" stroke="transparent" points="269.5,-902.3123 269.5,-921.3123 327.5,-921.3123 327.5,-902.3123 269.5,-902.3123"/>
<polygon fill="none" stroke="#000000" points="269.5,-902.3123 269.5,-921.3123 327.5,-921.3123 327.5,-902.3123 269.5,-902.3123"/>
<text text-anchor="start" x="272.5" y="-908.4123" font-family="Helvetica,sans-Serif" font-size="11.00" fill="#000000">&lt; 2</text>
<polygon fill="#ffffff" stroke="transparent" points="327.5,-902.3123 327.5,-921.3123 378.5,-921.3123 378.5,-902.3123 327.5,-902.3123"/>
<polygon fill="none" stroke="#000000" points="327.5,-902.3123 327.5,-921.3123 378.5,-921.3123 378.5,-902.3123 327.5,-902.3123"/>
<text text-anchor="start" x="348.6105" y="-908.4123" font-family="Helvetica,sans-Serif" font-size="11.00" fill="#000000">1 row</text>
<polygon fill="#ffffff" stroke="transparent" points="378.5,-902.3123 378.5,-921.3123 409.5,-921.3123 409.5,-902.3123 378.5,-902.3123"/>
<polygon fill="none" stroke="#000000" points="378.5,-902.3123 378.5,-921.3123 409.5,-921.3123 409.5,-902.3123 378.5,-902.3123"/>
<text text-anchor="start" x="400.3862" y="-908.4123" font-family="Helvetica,sans-Serif" font-size="11.00" fill="#000000"> &#160;</text>
</a>
</g>
</g>
<!-- AspNetUserRoles&#45;&gt;AspNetUsers -->
<g id="edge3" class="edge">
<title>AspNetUserRoles:w&#45;&gt;AspNetUsers:e</title>
<path fill="none" stroke="#000000" d="M255.0491,-929.1947C234.9108,-925.6825 225.2507,-913.8031 212,-892.3123 171.95,-827.3564 247.8104,-551.3123 171.5,-551.3123"/>
<polygon fill="#000000" stroke="#000000" points="261.5238,-929.6954 269.2224,-933.9016 265.5119,-930.0039 269.5,-930.3123 269.5,-930.3123 269.5,-930.3123 265.5119,-930.0039 269.7776,-926.723 261.5238,-929.6954 261.5238,-929.6954"/>
<ellipse fill="none" stroke="#000000" cx="258.3333" cy="-929.4487" rx="3.2" ry="3.2"/>
</g>
<!-- AspNetUserTokens -->
<g id="node5" class="node">
<title>AspNetUserTokens</title>
<g id="a_node5"><a xlink:href="../../tables/AspNetUserTokens.html" xlink:title="AspNetUserTokens" target="_top">
<polygon fill="#ffffff" stroke="transparent" points="265,-820.8123 265,-881.8123 414,-881.8123 414,-820.8123 265,-820.8123"/>
<polygon fill="#f5f5f5" stroke="transparent" points="265.5,-858.3123 265.5,-881.3123 414.5,-881.3123 414.5,-858.3123 265.5,-858.3123"/>
<polygon fill="none" stroke="#000000" points="265.5,-858.3123 265.5,-881.3123 414.5,-881.3123 414.5,-858.3123 265.5,-858.3123"/>
<text text-anchor="start" x="270.5" y="-866.9123" font-family="Helvetica,sans-Serif" font-weight="bold" font-size="11.00" fill="#000000">AspNetUserTokens</text>
<text text-anchor="start" x="380.0219" y="-866.4123" font-family="Helvetica,sans-Serif" font-size="11.00" fill="#000000">[table]</text>
<polygon fill="none" stroke="#000000" points="265.5,-839.3123 265.5,-858.3123 414.5,-858.3123 414.5,-839.3123 265.5,-839.3123"/>
<text text-anchor="start" x="268.5" y="-845.4123" font-family="Helvetica,sans-Serif" font-size="11.00" fill="#000000">...</text>
<polygon fill="#ffffff" stroke="transparent" points="265.5,-820.3123 265.5,-839.3123 325.5,-839.3123 325.5,-820.3123 265.5,-820.3123"/>
<polygon fill="none" stroke="#000000" points="265.5,-820.3123 265.5,-839.3123 325.5,-839.3123 325.5,-820.3123 265.5,-820.3123"/>
<text text-anchor="start" x="268.5" y="-826.4123" font-family="Helvetica,sans-Serif" font-size="11.00" fill="#000000">&lt; 1</text>
<polygon fill="#ffffff" stroke="transparent" points="325.5,-820.3123 325.5,-839.3123 382.5,-839.3123 382.5,-820.3123 325.5,-820.3123"/>
<polygon fill="none" stroke="#000000" points="325.5,-820.3123 325.5,-839.3123 382.5,-839.3123 382.5,-820.3123 325.5,-820.3123"/>
<text text-anchor="start" x="347.1105" y="-826.4123" font-family="Helvetica,sans-Serif" font-size="11.00" fill="#000000">0 rows</text>
<polygon fill="#ffffff" stroke="transparent" points="382.5,-820.3123 382.5,-839.3123 414.5,-839.3123 414.5,-820.3123 382.5,-820.3123"/>
<polygon fill="none" stroke="#000000" points="382.5,-820.3123 382.5,-839.3123 414.5,-839.3123 414.5,-820.3123 382.5,-820.3123"/>
<text text-anchor="start" x="405.3862" y="-826.4123" font-family="Helvetica,sans-Serif" font-size="11.00" fill="#000000"> &#160;</text>
</a>
</g>
</g>
<!-- AspNetUserTokens&#45;&gt;AspNetUsers -->
<g id="edge4" class="edge">
<title>AspNetUserTokens:w&#45;&gt;AspNetUsers:e</title>
<path fill="none" stroke="#000000" d="M250.9193,-846.7366C232.1021,-842.1186 224.5056,-827.5889 212,-806.3123 182.9261,-756.847 228.8769,-551.3123 171.5,-551.3123"/>
<polygon fill="#000000" stroke="#000000" points="257.5463,-847.4527 265.1132,-851.8915 261.5232,-847.8825 265.5,-848.3123 265.5,-848.3123 265.5,-848.3123 261.5232,-847.8825 265.8868,-844.7331 257.5463,-847.4527 257.5463,-847.4527"/>
<ellipse fill="none" stroke="#000000" cx="254.3648" cy="-847.1089" rx="3.2" ry="3.2"/>
</g>
<!-- Competencies -->
<g id="node6" class="node">
<title>Competencies</title>
<g id="a_node6"><a xlink:href="../../tables/Competencies.html" xlink:title="Competencies" target="_top">
<polygon fill="#ffffff" stroke="transparent" points="279,-659.8123 279,-720.8123 400,-720.8123 400,-659.8123 279,-659.8123"/>
<polygon fill="#f5f5f5" stroke="transparent" points="279.5,-697.3123 279.5,-720.3123 400.5,-720.3123 400.5,-697.3123 279.5,-697.3123"/>
<polygon fill="none" stroke="#000000" points="279.5,-697.3123 279.5,-720.3123 400.5,-720.3123 400.5,-697.3123 279.5,-697.3123"/>
<text text-anchor="start" x="284.5" y="-705.9123" font-family="Helvetica,sans-Serif" font-weight="bold" font-size="11.00" fill="#000000">Competencies</text>
<text text-anchor="start" x="366.0219" y="-705.4123" font-family="Helvetica,sans-Serif" font-size="11.00" fill="#000000">[table]</text>
<polygon fill="none" stroke="#000000" points="279.5,-678.3123 279.5,-697.3123 400.5,-697.3123 400.5,-678.3123 279.5,-678.3123"/>
<text text-anchor="start" x="282.5" y="-684.4123" font-family="Helvetica,sans-Serif" font-size="11.00" fill="#000000">...</text>
<polygon fill="#ffffff" stroke="transparent" points="279.5,-659.3123 279.5,-678.3123 320.5,-678.3123 320.5,-659.3123 279.5,-659.3123"/>
<polygon fill="none" stroke="#000000" points="279.5,-659.3123 279.5,-678.3123 320.5,-678.3123 320.5,-659.3123 279.5,-659.3123"/>
<text text-anchor="start" x="282.5" y="-665.4123" font-family="Helvetica,sans-Serif" font-size="11.00" fill="#000000">&lt; 2</text>
<polygon fill="#ffffff" stroke="transparent" points="320.5,-659.3123 320.5,-678.3123 368.5,-678.3123 368.5,-659.3123 320.5,-659.3123"/>
<polygon fill="none" stroke="#000000" points="320.5,-659.3123 320.5,-678.3123 368.5,-678.3123 368.5,-659.3123 320.5,-659.3123"/>
<text text-anchor="start" x="333.1105" y="-665.4123" font-family="Helvetica,sans-Serif" font-size="11.00" fill="#000000">5 rows</text>
<polygon fill="#ffffff" stroke="transparent" points="368.5,-659.3123 368.5,-678.3123 400.5,-678.3123 400.5,-659.3123 368.5,-659.3123"/>
<polygon fill="none" stroke="#000000" points="368.5,-659.3123 368.5,-678.3123 400.5,-678.3123 400.5,-659.3123 368.5,-659.3123"/>
<text text-anchor="start" x="381.9053" y="-665.4123" font-family="Helvetica,sans-Serif" font-size="11.00" fill="#000000">4 &gt;</text>
</a>
</g>
</g>
<!-- Competencies&#45;&gt;AspNetUsers -->
<g id="edge5" class="edge">
<title>Competencies:w&#45;&gt;AspNetUsers:e</title>
<path fill="none" stroke="#000000" d="M265.367,-684.0235C241.1519,-676.5401 231.6243,-662.1204 212,-639.3123 182.3303,-604.8291 216.9905,-545.3123 171.5,-551.3123"/>
<polygon fill="#000000" stroke="#000000" points="271.7082,-685.4991 278.6841,-690.8186 275.6041,-686.4057 279.5,-687.3123 279.5,-687.3123 279.5,-687.3123 275.6041,-686.4057 280.3159,-683.806 271.7082,-685.4991 271.7082,-685.4991"/>
<ellipse fill="none" stroke="#000000" cx="268.5915" cy="-684.7738" rx="3.2" ry="3.2"/>
</g>
<!-- Competencies&#45;&gt;AspNetUsers -->
<g id="edge6" class="edge">
<title>Competencies:w&#45;&gt;AspNetUsers:e</title>
<path fill="none" stroke="#000000" d="M265.0347,-689.0023C241.0643,-689.4076 231.5343,-675.0157 212,-652.3123 182.3303,-617.8291 216.9905,-558.3123 171.5,-551.3123"/>
<polygon fill="#000000" stroke="#000000" points="271.554,-688.2407 279.9178,-690.888 275.527,-687.7765 279.5,-687.3123 279.5,-687.3123 279.5,-687.3123 275.527,-687.7765 279.0822,-683.7366 271.554,-688.2407 271.554,-688.2407"/>
<ellipse fill="none" stroke="#000000" cx="268.3757" cy="-688.6121" rx="3.2" ry="3.2"/>
</g>
<!-- CompetencyLevelDescriptions -->
<g id="node7" class="node">
<title>CompetencyLevelDescriptions</title>
<g id="a_node7"><a xlink:href="../../tables/CompetencyLevelDescriptions.html" xlink:title="CompetencyLevelDescriptions" target="_top">
<polygon fill="#ffffff" stroke="transparent" points="508,-775.8123 508,-836.8123 722,-836.8123 722,-775.8123 508,-775.8123"/>
<polygon fill="#f5f5f5" stroke="transparent" points="508,-813.3123 508,-836.3123 722,-836.3123 722,-813.3123 508,-813.3123"/>
<polygon fill="none" stroke="#000000" points="508,-813.3123 508,-836.3123 722,-836.3123 722,-813.3123 508,-813.3123"/>
<text text-anchor="start" x="513" y="-821.9123" font-family="Helvetica,sans-Serif" font-weight="bold" font-size="11.00" fill="#000000">CompetencyLevelDescriptions</text>
<text text-anchor="start" x="687.5219" y="-821.4123" font-family="Helvetica,sans-Serif" font-size="11.00" fill="#000000">[table]</text>
<polygon fill="none" stroke="#000000" points="508,-794.3123 508,-813.3123 722,-813.3123 722,-794.3123 508,-794.3123"/>
<text text-anchor="start" x="511" y="-800.4123" font-family="Helvetica,sans-Serif" font-size="11.00" fill="#000000">...</text>
<polygon fill="#ffffff" stroke="transparent" points="508,-775.3123 508,-794.3123 597,-794.3123 597,-775.3123 508,-775.3123"/>
<polygon fill="none" stroke="#000000" points="508,-775.3123 508,-794.3123 597,-794.3123 597,-775.3123 508,-775.3123"/>
<text text-anchor="start" x="511" y="-781.4123" font-family="Helvetica,sans-Serif" font-size="11.00" fill="#000000">&lt; 3</text>
<polygon fill="#ffffff" stroke="transparent" points="597,-775.3123 597,-794.3123 675,-794.3123 675,-775.3123 597,-775.3123"/>
<polygon fill="none" stroke="#000000" points="597,-775.3123 597,-794.3123 675,-794.3123 675,-775.3123 597,-775.3123"/>
<text text-anchor="start" x="633.4956" y="-781.4123" font-family="Helvetica,sans-Serif" font-size="11.00" fill="#000000">20 rows</text>
<polygon fill="#ffffff" stroke="transparent" points="675,-775.3123 675,-794.3123 722,-794.3123 722,-775.3123 675,-775.3123"/>
<polygon fill="none" stroke="#000000" points="675,-775.3123 675,-794.3123 722,-794.3123 722,-775.3123 675,-775.3123"/>
<text text-anchor="start" x="712.8862" y="-781.4123" font-family="Helvetica,sans-Serif" font-size="11.00" fill="#000000"> &#160;</text>
</a>
</g>
</g>
<!-- CompetencyLevelDescriptions&#45;&gt;AspNetUsers -->
<g id="edge8" class="edge">
<title>CompetencyLevelDescriptions:w&#45;&gt;AspNetUsers:e</title>
<path fill="none" stroke="#000000" d="M493.3488,-803.4169C418.232,-804.3096 257.1271,-809.6263 212,-767.3123 140.7497,-700.5036 269.1729,-551.3123 171.5,-551.3123"/>
<polygon fill="#000000" stroke="#000000" points="500.0002,-803.3695 508.0257,-806.9122 504.0001,-803.3409 508,-803.3123 508,-803.3123 508,-803.3123 504.0001,-803.3409 507.9743,-799.7124 500.0002,-803.3695 500.0002,-803.3695"/>
<ellipse fill="none" stroke="#000000" cx="496.8003" cy="-803.3923" rx="3.2" ry="3.2"/>
</g>
<!-- CompetencyLevelDescriptions&#45;&gt;AspNetUsers -->
<g id="edge9" class="edge">
<title>CompetencyLevelDescriptions:w&#45;&gt;AspNetUsers:e</title>
<path fill="none" stroke="#000000" d="M493.3273,-803.3702C418.1158,-803.8352 256.9943,-805.9214 212,-763.3123 142.3489,-697.3536 267.4262,-551.3123 171.5,-551.3123"/>
<polygon fill="#000000" stroke="#000000" points="500.0001,-803.3439 508.0142,-806.9123 504,-803.3281 508,-803.3123 508,-803.3123 508,-803.3123 504,-803.3281 507.9858,-799.7123 500.0001,-803.3439 500.0001,-803.3439"/>
<ellipse fill="none" stroke="#000000" cx="496.8001" cy="-803.3566" rx="3.2" ry="3.2"/>
</g>
<!-- CompetencyLevelDescriptions&#45;&gt;Competencies -->
<g id="edge7" class="edge">
<title>CompetencyLevelDescriptions:w&#45;&gt;Competencies:e</title>
<path fill="none" stroke="#000000" d="M494.3147,-798.0266C463.2961,-775.3336 431.1146,-687.3123 400.5,-687.3123"/>
<polygon fill="#000000" stroke="#000000" points="500.5373,-800.4299 506.7029,-806.6705 504.2686,-801.8711 508,-803.3123 508,-803.3123 508,-803.3123 504.2686,-801.8711 509.2971,-799.9541 500.5373,-800.4299 500.5373,-800.4299"/>
<ellipse fill="none" stroke="#000000" cx="497.5522" cy="-799.277" rx="3.2" ry="3.2"/>
</g>
<!-- Coordinators -->
<g id="node8" class="node">
<title>Coordinators</title>
<g id="a_node8"><a xlink:href="../../tables/Coordinators.html" xlink:title="Coordinators" target="_top">
<polygon fill="#ffffff" stroke="transparent" points="558,-158.8123 558,-219.8123 672,-219.8123 672,-158.8123 558,-158.8123"/>
<polygon fill="#f5f5f5" stroke="transparent" points="558,-196.3123 558,-219.3123 672,-219.3123 672,-196.3123 558,-196.3123"/>
<polygon fill="none" stroke="#000000" points="558,-196.3123 558,-219.3123 672,-219.3123 672,-196.3123 558,-196.3123"/>
<text text-anchor="start" x="563" y="-204.9123" font-family="Helvetica,sans-Serif" font-weight="bold" font-size="11.00" fill="#000000">Coordinators</text>
<text text-anchor="start" x="637.5219" y="-204.4123" font-family="Helvetica,sans-Serif" font-size="11.00" fill="#000000">[table]</text>
<polygon fill="none" stroke="#000000" points="558,-177.3123 558,-196.3123 672,-196.3123 672,-177.3123 558,-177.3123"/>
<text text-anchor="start" x="561" y="-183.4123" font-family="Helvetica,sans-Serif" font-size="11.00" fill="#000000">...</text>
<polygon fill="#ffffff" stroke="transparent" points="558,-158.3123 558,-177.3123 600,-177.3123 600,-158.3123 558,-158.3123"/>
<polygon fill="none" stroke="#000000" points="558,-158.3123 558,-177.3123 600,-177.3123 600,-158.3123 558,-158.3123"/>
<text text-anchor="start" x="561" y="-164.4123" font-family="Helvetica,sans-Serif" font-size="11.00" fill="#000000">&lt; 2</text>
<polygon fill="#ffffff" stroke="transparent" points="600,-158.3123 600,-177.3123 649,-177.3123 649,-158.3123 600,-158.3123"/>
<polygon fill="none" stroke="#000000" points="600,-158.3123 600,-177.3123 649,-177.3123 649,-158.3123 600,-158.3123"/>
<text text-anchor="start" x="613.6105" y="-164.4123" font-family="Helvetica,sans-Serif" font-size="11.00" fill="#000000">0 rows</text>
<polygon fill="#ffffff" stroke="transparent" points="649,-158.3123 649,-177.3123 672,-177.3123 672,-158.3123 649,-158.3123"/>
<polygon fill="none" stroke="#000000" points="649,-158.3123 649,-177.3123 672,-177.3123 672,-158.3123 649,-158.3123"/>
<text text-anchor="start" x="662.8862" y="-164.4123" font-family="Helvetica,sans-Serif" font-size="11.00" fill="#000000"> &#160;</text>
</a>
</g>
</g>
<!-- Coordinators&#45;&gt;AspNetUsers -->
<g id="edge11" class="edge">
<title>Coordinators:w&#45;&gt;AspNetUsers:e</title>
<path fill="none" stroke="#000000" d="M547.2124,-186.2099C399.0336,-183.4071 318.8072,-124.8742 212,-232.3123 161.6206,-282.9892 242.9579,-551.3123 171.5,-551.3123"/>
<polygon fill="#000000" stroke="#000000" points="557.2381,-182.3049 557.162,-190.3045 555.5621,-190.2893 555.6381,-182.2897 557.2381,-182.3049"/>
<polyline fill="none" stroke="#000000" points="558,-186.3123 554.0002,-186.2743 "/>
<ellipse fill="none" stroke="#000000" cx="550.8003" cy="-186.2439" rx="3.2" ry="3.2"/>
</g>
<!-- TechnicalCareers -->
<g id="node9" class="node">
<title>TechnicalCareers</title>
<g id="a_node9"><a xlink:href="../../tables/TechnicalCareers.html" xlink:title="TechnicalCareers" target="_top">
<polygon fill="#ffffff" stroke="transparent" points="270,-298.8123 270,-359.8123 409,-359.8123 409,-298.8123 270,-298.8123"/>
<polygon fill="#f5f5f5" stroke="transparent" points="270.5,-336.3123 270.5,-359.3123 409.5,-359.3123 409.5,-336.3123 270.5,-336.3123"/>
<polygon fill="none" stroke="#000000" points="270.5,-336.3123 270.5,-359.3123 409.5,-359.3123 409.5,-336.3123 270.5,-336.3123"/>
<text text-anchor="start" x="275.5" y="-344.9123" font-family="Helvetica,sans-Serif" font-weight="bold" font-size="11.00" fill="#000000">TechnicalCareers</text>
<text text-anchor="start" x="375.0219" y="-344.4123" font-family="Helvetica,sans-Serif" font-size="11.00" fill="#000000">[table]</text>
<polygon fill="none" stroke="#000000" points="270.5,-317.3123 270.5,-336.3123 409.5,-336.3123 409.5,-317.3123 270.5,-317.3123"/>
<text text-anchor="start" x="273.5" y="-323.4123" font-family="Helvetica,sans-Serif" font-size="11.00" fill="#000000">...</text>
<polygon fill="#ffffff" stroke="transparent" points="270.5,-298.3123 270.5,-317.3123 320.5,-317.3123 320.5,-298.3123 270.5,-298.3123"/>
<polygon fill="none" stroke="#000000" points="270.5,-298.3123 270.5,-317.3123 320.5,-317.3123 320.5,-298.3123 270.5,-298.3123"/>
<text text-anchor="start" x="273.5" y="-304.4123" font-family="Helvetica,sans-Serif" font-size="11.00" fill="#000000">&lt; 2</text>
<polygon fill="#ffffff" stroke="transparent" points="320.5,-298.3123 320.5,-317.3123 373.5,-317.3123 373.5,-298.3123 320.5,-298.3123"/>
<polygon fill="none" stroke="#000000" points="320.5,-298.3123 320.5,-317.3123 373.5,-317.3123 373.5,-298.3123 320.5,-298.3123"/>
<text text-anchor="start" x="338.1105" y="-304.4123" font-family="Helvetica,sans-Serif" font-size="11.00" fill="#000000">6 rows</text>
<polygon fill="#ffffff" stroke="transparent" points="373.5,-298.3123 373.5,-317.3123 409.5,-317.3123 409.5,-298.3123 373.5,-298.3123"/>
<polygon fill="none" stroke="#000000" points="373.5,-298.3123 373.5,-317.3123 409.5,-317.3123 409.5,-298.3123 373.5,-298.3123"/>
<text text-anchor="start" x="390.9053" y="-304.4123" font-family="Helvetica,sans-Serif" font-size="11.00" fill="#000000">6 &gt;</text>
</a>
</g>
</g>
<!-- Coordinators&#45;&gt;TechnicalCareers -->
<g id="edge10" class="edge">
<title>Coordinators:w&#45;&gt;TechnicalCareers:e</title>
<path fill="none" stroke="#000000" d="M543.2791,-187.6979C470.7264,-202.2379 494.8913,-326.3123 409.5,-326.3123"/>
<polygon fill="#000000" stroke="#000000" points="550.0352,-187.062 558.3374,-189.8965 554.0176,-186.6872 558,-186.3123 558,-186.3123 558,-186.3123 554.0176,-186.6872 557.6626,-182.7281 550.0352,-187.062 550.0352,-187.062"/>
<ellipse fill="none" stroke="#000000" cx="546.8493" cy="-187.3619" rx="3.2" ry="3.2"/>
</g>
<!-- TechnicalCareers&#45;&gt;AspNetUsers -->
<g id="edge48" class="edge">
<title>TechnicalCareers:w&#45;&gt;AspNetUsers:e</title>
<path fill="none" stroke="#000000" d="M255.9205,-325.3389C234.2332,-326.9266 226.798,-344.4077 212,-368.3123 169.5234,-436.9285 252.1997,-545.3123 171.5,-551.3123"/>
<polygon fill="#000000" stroke="#000000" points="262.5178,-325.7793 270.2602,-329.9043 266.5089,-326.0458 270.5,-326.3123 270.5,-326.3123 270.5,-326.3123 266.5089,-326.0458 270.7398,-322.7203 262.5178,-325.7793 262.5178,-325.7793"/>
<ellipse fill="none" stroke="#000000" cx="259.3249" cy="-325.5661" rx="3.2" ry="3.2"/>
</g>
<!-- TechnicalCareers&#45;&gt;AspNetUsers -->
<g id="edge49" class="edge">
<title>TechnicalCareers:w&#45;&gt;AspNetUsers:e</title>
<path fill="none" stroke="#000000" d="M256.5323,-330.4898C234.3715,-339.6004 226.9363,-357.1843 212,-381.3123 169.5234,-449.9285 252.1997,-558.3123 171.5,-551.3123"/>
<polygon fill="#000000" stroke="#000000" points="262.8355,-328.6047 271.5316,-329.7613 266.6677,-327.4585 270.5,-326.3123 270.5,-326.3123 270.5,-326.3123 266.6677,-327.4585 269.4684,-322.8633 262.8355,-328.6047 262.8355,-328.6047"/>
<ellipse fill="none" stroke="#000000" cx="259.7696" cy="-329.5216" rx="3.2" ry="3.2"/>
</g>
<!-- EvaluationPeriods -->
<g id="node10" class="node">
<title>EvaluationPeriods</title>
<g id="a_node10"><a xlink:href="../../tables/EvaluationPeriods.html" xlink:title="EvaluationPeriods" target="_top">
<polygon fill="#ffffff" stroke="transparent" points="543.5,-350.8123 543.5,-411.8123 686.5,-411.8123 686.5,-350.8123 543.5,-350.8123"/>
<polygon fill="#f5f5f5" stroke="transparent" points="544,-388.3123 544,-411.3123 687,-411.3123 687,-388.3123 544,-388.3123"/>
<polygon fill="none" stroke="#000000" points="544,-388.3123 544,-411.3123 687,-411.3123 687,-388.3123 544,-388.3123"/>
<text text-anchor="start" x="549" y="-396.9123" font-family="Helvetica,sans-Serif" font-weight="bold" font-size="11.00" fill="#000000">EvaluationPeriods</text>
<text text-anchor="start" x="652.5219" y="-396.4123" font-family="Helvetica,sans-Serif" font-size="11.00" fill="#000000">[table]</text>
<polygon fill="none" stroke="#000000" points="544,-369.3123 544,-388.3123 687,-388.3123 687,-369.3123 544,-369.3123"/>
<text text-anchor="start" x="547" y="-375.4123" font-family="Helvetica,sans-Serif" font-size="11.00" fill="#000000">...</text>
<polygon fill="#ffffff" stroke="transparent" points="544,-350.3123 544,-369.3123 596,-369.3123 596,-350.3123 544,-350.3123"/>
<polygon fill="none" stroke="#000000" points="544,-350.3123 544,-369.3123 596,-369.3123 596,-350.3123 544,-350.3123"/>
<text text-anchor="start" x="547" y="-356.4123" font-family="Helvetica,sans-Serif" font-size="11.00" fill="#000000">&lt; 2</text>
<polygon fill="#ffffff" stroke="transparent" points="596,-350.3123 596,-369.3123 650,-369.3123 650,-350.3123 596,-350.3123"/>
<polygon fill="none" stroke="#000000" points="596,-350.3123 596,-369.3123 650,-369.3123 650,-350.3123 596,-350.3123"/>
<text text-anchor="start" x="614.6105" y="-356.4123" font-family="Helvetica,sans-Serif" font-size="11.00" fill="#000000">0 rows</text>
<polygon fill="#ffffff" stroke="transparent" points="650,-350.3123 650,-369.3123 687,-369.3123 687,-350.3123 650,-350.3123"/>
<polygon fill="none" stroke="#000000" points="650,-350.3123 650,-369.3123 687,-369.3123 687,-350.3123 650,-350.3123"/>
<text text-anchor="start" x="668.4053" y="-356.4123" font-family="Helvetica,sans-Serif" font-size="11.00" fill="#000000">3 &gt;</text>
</a>
</g>
</g>
<!-- EvaluationPeriods&#45;&gt;AspNetUsers -->
<g id="edge12" class="edge">
<title>EvaluationPeriods:w&#45;&gt;AspNetUsers:e</title>
<path fill="none" stroke="#000000" d="M529.4509,-378.1944C446.3954,-377.0339 265.5768,-368.6245 212,-413.3123 162.9135,-454.2548 235.4201,-551.3123 171.5,-551.3123"/>
<polygon fill="#000000" stroke="#000000" points="536.0003,-378.2474 543.9708,-381.9122 540.0001,-378.2798 544,-378.3123 544,-378.3123 544,-378.3123 540.0001,-378.2798 544.0292,-374.7124 536.0003,-378.2474 536.0003,-378.2474"/>
<ellipse fill="none" stroke="#000000" cx="532.8004" cy="-378.2214" rx="3.2" ry="3.2"/>
</g>
<!-- EvaluationPeriods&#45;&gt;AspNetUsers -->
<g id="edge13" class="edge">
<title>EvaluationPeriods:w&#45;&gt;AspNetUsers:e</title>
<path fill="none" stroke="#000000" d="M529.4351,-378.2335C446.3065,-377.4769 265.5616,-372.4619 212,-417.3123 164.2988,-457.2555 233.7163,-551.3123 171.5,-551.3123"/>
<polygon fill="#000000" stroke="#000000" points="536.0001,-378.269 543.9805,-381.9122 540.0001,-378.2906 544,-378.3123 544,-378.3123 544,-378.3123 540.0001,-378.2906 544.0195,-374.7124 536.0001,-378.269 536.0001,-378.269"/>
<ellipse fill="none" stroke="#000000" cx="532.8002" cy="-378.2517" rx="3.2" ry="3.2"/>
</g>
<!-- FormQuestions -->
<g id="node11" class="node">
<title>FormQuestions</title>
<g id="a_node11"><a xlink:href="../../tables/FormQuestions.html" xlink:title="FormQuestions" target="_top">
<polygon fill="#ffffff" stroke="transparent" points="551.5,-620.8123 551.5,-681.8123 678.5,-681.8123 678.5,-620.8123 551.5,-620.8123"/>
<polygon fill="#f5f5f5" stroke="transparent" points="552,-658.3123 552,-681.3123 679,-681.3123 679,-658.3123 552,-658.3123"/>
<polygon fill="none" stroke="#000000" points="552,-658.3123 552,-681.3123 679,-681.3123 679,-658.3123 552,-658.3123"/>
<text text-anchor="start" x="557" y="-666.9123" font-family="Helvetica,sans-Serif" font-weight="bold" font-size="11.00" fill="#000000">FormQuestions</text>
<text text-anchor="start" x="644.5219" y="-666.4123" font-family="Helvetica,sans-Serif" font-size="11.00" fill="#000000">[table]</text>
<polygon fill="none" stroke="#000000" points="552,-639.3123 552,-658.3123 679,-658.3123 679,-639.3123 552,-639.3123"/>
<text text-anchor="start" x="555" y="-645.4123" font-family="Helvetica,sans-Serif" font-size="11.00" fill="#000000">...</text>
<polygon fill="#ffffff" stroke="transparent" points="552,-620.3123 552,-639.3123 596,-639.3123 596,-620.3123 552,-620.3123"/>
<polygon fill="none" stroke="#000000" points="552,-620.3123 552,-639.3123 596,-639.3123 596,-620.3123 552,-620.3123"/>
<text text-anchor="start" x="555" y="-626.4123" font-family="Helvetica,sans-Serif" font-size="11.00" fill="#000000">&lt; 3</text>
<polygon fill="#ffffff" stroke="transparent" points="596,-620.3123 596,-639.3123 646,-639.3123 646,-620.3123 596,-620.3123"/>
<polygon fill="none" stroke="#000000" points="596,-620.3123 596,-639.3123 646,-639.3123 646,-620.3123 596,-620.3123"/>
<text text-anchor="start" x="610.6105" y="-626.4123" font-family="Helvetica,sans-Serif" font-size="11.00" fill="#000000">0 rows</text>
<polygon fill="#ffffff" stroke="transparent" points="646,-620.3123 646,-639.3123 679,-639.3123 679,-620.3123 646,-620.3123"/>
<polygon fill="none" stroke="#000000" points="646,-620.3123 646,-639.3123 679,-639.3123 679,-620.3123 646,-620.3123"/>
<text text-anchor="start" x="660.4053" y="-626.4123" font-family="Helvetica,sans-Serif" font-size="11.00" fill="#000000">1 &gt;</text>
</a>
</g>
</g>
<!-- FormQuestions&#45;&gt;AspNetUsers -->
<g id="edge15" class="edge">
<title>FormQuestions:w&#45;&gt;AspNetUsers:e</title>
<path fill="none" stroke="#000000" d="M537.4121,-648.2695C453.1024,-647.7768 273.855,-642.5121 212,-606.3123 185.8002,-590.9792 201.8567,-551.3123 171.5,-551.3123"/>
<polygon fill="#000000" stroke="#000000" points="544,-648.2887 551.9894,-651.9123 548,-648.3005 552,-648.3123 552,-648.3123 552,-648.3123 548,-648.3005 552.0106,-644.7123 544,-648.2887 544,-648.2887"/>
<ellipse fill="none" stroke="#000000" cx="540.8" cy="-648.2793" rx="3.2" ry="3.2"/>
</g>
<!-- FormQuestions&#45;&gt;AspNetUsers -->
<g id="edge16" class="edge">
<title>FormQuestions:w&#45;&gt;AspNetUsers:e</title>
<path fill="none" stroke="#000000" d="M537.3998,-648.2225C453.0644,-647.2376 274.3934,-637.7936 212,-602.3123 186.8394,-588.0042 200.4444,-551.3123 171.5,-551.3123"/>
<polygon fill="#000000" stroke="#000000" points="544.0002,-648.263 551.9778,-651.9122 548.0001,-648.2877 552,-648.3123 552,-648.3123 552,-648.3123 548.0001,-648.2877 552.0222,-644.7124 544.0002,-648.263 544.0002,-648.263"/>
<ellipse fill="none" stroke="#000000" cx="540.8002" cy="-648.2433" rx="3.2" ry="3.2"/>
</g>
<!-- FormQuestions&#45;&gt;Competencies -->
<g id="edge14" class="edge">
<title>FormQuestions:w&#45;&gt;Competencies:e</title>
<path fill="none" stroke="#000000" d="M537.4157,-648.9249C480.31,-653.8865 464.8682,-687.3123 400.5,-687.3123"/>
<polygon fill="#000000" stroke="#000000" points="544.007,-648.6481 552.1511,-651.9091 548.0035,-648.4802 552,-648.3123 552,-648.3123 552,-648.3123 548.0035,-648.4802 551.8489,-644.7155 544.007,-648.6481 544.007,-648.6481"/>
<ellipse fill="none" stroke="#000000" cx="540.8099" cy="-648.7824" rx="3.2" ry="3.2"/>
</g>
<!-- ProfessorCompetencyAssignments -->
<g id="node12" class="node">
<title>ProfessorCompetencyAssignments</title>
<g id="a_node12"><a xlink:href="../../tables/ProfessorCompetencyAssignments.html" xlink:title="ProfessorCompetencyAssignments" target="_top">
<polygon fill="#ffffff" stroke="transparent" points="771,-494.8123 771,-555.8123 1013,-555.8123 1013,-494.8123 771,-494.8123"/>
<polygon fill="#f5f5f5" stroke="transparent" points="771,-532.3123 771,-555.3123 1013,-555.3123 1013,-532.3123 771,-532.3123"/>
<polygon fill="none" stroke="#000000" points="771,-532.3123 771,-555.3123 1013,-555.3123 1013,-532.3123 771,-532.3123"/>
<text text-anchor="start" x="776" y="-540.9123" font-family="Helvetica,sans-Serif" font-weight="bold" font-size="11.00" fill="#000000">ProfessorCompetencyAssignments</text>
<text text-anchor="start" x="978.5219" y="-540.4123" font-family="Helvetica,sans-Serif" font-size="11.00" fill="#000000">[table]</text>
<polygon fill="none" stroke="#000000" points="771,-513.3123 771,-532.3123 1013,-532.3123 1013,-513.3123 771,-513.3123"/>
<text text-anchor="start" x="774" y="-519.4123" font-family="Helvetica,sans-Serif" font-size="11.00" fill="#000000">...</text>
<polygon fill="#ffffff" stroke="transparent" points="771,-494.3123 771,-513.3123 873,-513.3123 873,-494.3123 771,-494.3123"/>
<polygon fill="none" stroke="#000000" points="771,-494.3123 771,-513.3123 873,-513.3123 873,-494.3123 771,-494.3123"/>
<text text-anchor="start" x="774" y="-500.4123" font-family="Helvetica,sans-Serif" font-size="11.00" fill="#000000">&lt; 7</text>
<polygon fill="#ffffff" stroke="transparent" points="873,-494.3123 873,-513.3123 951,-513.3123 951,-494.3123 873,-494.3123"/>
<polygon fill="none" stroke="#000000" points="873,-494.3123 873,-513.3123 951,-513.3123 951,-494.3123 873,-494.3123"/>
<text text-anchor="start" x="915.6105" y="-500.4123" font-family="Helvetica,sans-Serif" font-size="11.00" fill="#000000">0 rows</text>
<polygon fill="#ffffff" stroke="transparent" points="951,-494.3123 951,-513.3123 1013,-513.3123 1013,-494.3123 951,-494.3123"/>
<polygon fill="none" stroke="#000000" points="951,-494.3123 951,-513.3123 1013,-513.3123 1013,-494.3123 951,-494.3123"/>
<text text-anchor="start" x="994.4053" y="-500.4123" font-family="Helvetica,sans-Serif" font-size="11.00" fill="#000000">1 &gt;</text>
</a>
</g>
</g>
<!-- ProfessorCompetencyAssignments&#45;&gt;AspNetUsers -->
<g id="edge18" class="edge">
<title>ProfessorCompetencyAssignments:w&#45;&gt;AspNetUsers:e</title>
<path fill="none" stroke="#000000" d="M756.2883,-522.5719C653.6561,-525.451 234.4768,-551.3123 171.5,-551.3123"/>
<polygon fill="#000000" stroke="#000000" points="763.0012,-522.4535 771.0635,-525.9117 767.0006,-522.3829 771,-522.3123 771,-522.3123 771,-522.3123 767.0006,-522.3829 770.9365,-518.7129 763.0012,-522.4535 763.0012,-522.4535"/>
<ellipse fill="none" stroke="#000000" cx="759.8017" cy="-522.5099" rx="3.2" ry="3.2"/>
</g>
<!-- ProfessorCompetencyAssignments&#45;&gt;AspNetUsers -->
<g id="edge23" class="edge">
<title>ProfessorCompetencyAssignments:w&#45;&gt;AspNetUsers:e</title>
<path fill="none" stroke="#000000" d="M756.3561,-522.3419C501.7261,-523.3785 433.3064,-551.3123 171.5,-551.3123"/>
<polygon fill="#000000" stroke="#000000" points="763,-522.3285 771.0073,-525.9123 767,-522.3204 771,-522.3123 771,-522.3123 771,-522.3123 767,-522.3204 770.9927,-518.7123 763,-522.3285 763,-522.3285"/>
<ellipse fill="none" stroke="#000000" cx="759.8" cy="-522.335" rx="3.2" ry="3.2"/>
</g>
<!-- ProfessorCompetencyAssignments&#45;&gt;Competencies -->
<g id="edge17" class="edge">
<title>ProfessorCompetencyAssignments:w&#45;&gt;Competencies:e</title>
<path fill="none" stroke="#000000" d="M756.4583,-524.2469C706.9178,-540.0023 786.5294,-647.7957 730,-692.3123 672.4672,-737.6191 473.7307,-687.3123 400.5,-687.3123"/>
<polygon fill="#000000" stroke="#000000" points="763.0699,-523.3674 771.4748,-525.8809 767.0349,-522.8398 771,-522.3123 771,-522.3123 771,-522.3123 767.0349,-522.8398 770.5252,-518.7437 763.0699,-523.3674 763.0699,-523.3674"/>
<ellipse fill="none" stroke="#000000" cx="759.8978" cy="-523.7894" rx="3.2" ry="3.2"/>
</g>
<!-- ProfessorCompetencyAssignments&#45;&gt;TechnicalCareers -->
<g id="edge22" class="edge">
<title>ProfessorCompetencyAssignments:w&#45;&gt;TechnicalCareers:e</title>
<path fill="none" stroke="#000000" d="M756.5233,-520.5718C701.7207,-505.0549 789.2594,-389.866 730,-340.3123 675.311,-294.5805 480.7901,-326.3123 409.5,-326.3123"/>
<polygon fill="#000000" stroke="#000000" points="763.0572,-521.3573 770.5703,-525.8866 767.0286,-521.8348 771,-522.3123 771,-522.3123 771,-522.3123 767.0286,-521.8348 771.4297,-518.738 763.0572,-521.3573 763.0572,-521.3573"/>
<ellipse fill="none" stroke="#000000" cx="759.8801" cy="-520.9753" rx="3.2" ry="3.2"/>
</g>
<!-- ProfessorCompetencyAssignments&#45;&gt;EvaluationPeriods -->
<g id="edge19" class="edge">
<title>ProfessorCompetencyAssignments:w&#45;&gt;EvaluationPeriods:e</title>
<path fill="none" stroke="#000000" d="M756.5292,-519.6618C730.3855,-507.6554 753.0865,-457.4347 730,-422.3123 714.9809,-399.4632 714.3433,-378.3123 687,-378.3123"/>
<polygon fill="#000000" stroke="#000000" points="763.1309,-520.8709 770.3514,-525.8534 767.0655,-521.5916 771,-522.3123 771,-522.3123 771,-522.3123 767.0655,-521.5916 771.6486,-518.7712 763.1309,-520.8709 763.1309,-520.8709"/>
<ellipse fill="none" stroke="#000000" cx="759.9833" cy="-520.2944" rx="3.2" ry="3.2"/>
</g>
<!-- Professors -->
<g id="node13" class="node">
<title>Professors</title>
<g id="a_node13"><a xlink:href="../../tables/Professors.html" xlink:title="Professors" target="_top">
<polygon fill="#ffffff" stroke="transparent" points="289,-459.8123 289,-520.8123 390,-520.8123 390,-459.8123 289,-459.8123"/>
<polygon fill="#f5f5f5" stroke="transparent" points="289.5,-497.3123 289.5,-520.3123 390.5,-520.3123 390.5,-497.3123 289.5,-497.3123"/>
<polygon fill="none" stroke="#000000" points="289.5,-497.3123 289.5,-520.3123 390.5,-520.3123 390.5,-497.3123 289.5,-497.3123"/>
<text text-anchor="start" x="294.5" y="-505.9123" font-family="Helvetica,sans-Serif" font-weight="bold" font-size="11.00" fill="#000000">Professors</text>
<text text-anchor="start" x="356.0219" y="-505.4123" font-family="Helvetica,sans-Serif" font-size="11.00" fill="#000000">[table]</text>
<polygon fill="none" stroke="#000000" points="289.5,-478.3123 289.5,-497.3123 390.5,-497.3123 390.5,-478.3123 289.5,-478.3123"/>
<text text-anchor="start" x="292.5" y="-484.4123" font-family="Helvetica,sans-Serif" font-size="11.00" fill="#000000">...</text>
<polygon fill="#ffffff" stroke="transparent" points="289.5,-459.3123 289.5,-478.3123 320.5,-478.3123 320.5,-459.3123 289.5,-459.3123"/>
<polygon fill="none" stroke="#000000" points="289.5,-459.3123 289.5,-478.3123 320.5,-478.3123 320.5,-459.3123 289.5,-459.3123"/>
<text text-anchor="start" x="292.5" y="-465.4123" font-family="Helvetica,sans-Serif" font-size="11.00" fill="#000000">&lt; 1</text>
<polygon fill="#ffffff" stroke="transparent" points="320.5,-459.3123 320.5,-478.3123 363.5,-478.3123 363.5,-459.3123 320.5,-459.3123"/>
<polygon fill="none" stroke="#000000" points="320.5,-459.3123 320.5,-478.3123 363.5,-478.3123 363.5,-459.3123 320.5,-459.3123"/>
<text text-anchor="start" x="328.1105" y="-465.4123" font-family="Helvetica,sans-Serif" font-size="11.00" fill="#000000">0 rows</text>
<polygon fill="#ffffff" stroke="transparent" points="363.5,-459.3123 363.5,-478.3123 390.5,-478.3123 390.5,-459.3123 363.5,-459.3123"/>
<polygon fill="none" stroke="#000000" points="363.5,-459.3123 363.5,-478.3123 390.5,-478.3123 390.5,-459.3123 363.5,-459.3123"/>
<text text-anchor="start" x="371.9053" y="-465.4123" font-family="Helvetica,sans-Serif" font-size="11.00" fill="#000000">2 &gt;</text>
</a>
</g>
</g>
<!-- ProfessorCompetencyAssignments&#45;&gt;Professors -->
<g id="edge20" class="edge">
<title>ProfessorCompetencyAssignments:w&#45;&gt;Professors:e</title>
<path fill="none" stroke="#000000" d="M756.5908,-522.2882C647.6528,-521.9101 615.057,-517.0399 500,-504.3123 451.0489,-498.8973 439.7497,-487.3123 390.5,-487.3123"/>
<polygon fill="#000000" stroke="#000000" points="763,-522.2988 770.9939,-525.9123 767,-522.3056 771,-522.3123 771,-522.3123 771,-522.3123 767,-522.3056 771.0061,-518.7123 763,-522.2988 763,-522.2988"/>
<ellipse fill="none" stroke="#000000" cx="759.8" cy="-522.2935" rx="3.2" ry="3.2"/>
</g>
<!-- Subjects -->
<g id="node14" class="node">
<title>Subjects</title>
<g id="a_node14"><a xlink:href="../../tables/Subjects.html" xlink:title="Subjects" target="_top">
<polygon fill="#ffffff" stroke="transparent" points="570.5,-432.8123 570.5,-493.8123 659.5,-493.8123 659.5,-432.8123 570.5,-432.8123"/>
<polygon fill="#f5f5f5" stroke="transparent" points="571,-470.3123 571,-493.3123 660,-493.3123 660,-470.3123 571,-470.3123"/>
<polygon fill="none" stroke="#000000" points="571,-470.3123 571,-493.3123 660,-493.3123 660,-470.3123 571,-470.3123"/>
<text text-anchor="start" x="576" y="-478.9123" font-family="Helvetica,sans-Serif" font-weight="bold" font-size="11.00" fill="#000000">Subjects</text>
<text text-anchor="start" x="625.5219" y="-478.4123" font-family="Helvetica,sans-Serif" font-size="11.00" fill="#000000">[table]</text>
<polygon fill="none" stroke="#000000" points="571,-451.3123 571,-470.3123 660,-470.3123 660,-451.3123 571,-451.3123"/>
<text text-anchor="start" x="574" y="-457.4123" font-family="Helvetica,sans-Serif" font-size="11.00" fill="#000000">...</text>
<polygon fill="#ffffff" stroke="transparent" points="571,-432.3123 571,-451.3123 596,-451.3123 596,-432.3123 571,-432.3123"/>
<polygon fill="none" stroke="#000000" points="571,-432.3123 571,-451.3123 596,-451.3123 596,-432.3123 571,-432.3123"/>
<text text-anchor="start" x="574" y="-438.4123" font-family="Helvetica,sans-Serif" font-size="11.00" fill="#000000">&lt; 4</text>
<polygon fill="#ffffff" stroke="transparent" points="596,-432.3123 596,-451.3123 636,-451.3123 636,-432.3123 596,-432.3123"/>
<polygon fill="none" stroke="#000000" points="596,-432.3123 596,-451.3123 636,-451.3123 636,-432.3123 596,-432.3123"/>
<text text-anchor="start" x="600.6105" y="-438.4123" font-family="Helvetica,sans-Serif" font-size="11.00" fill="#000000">0 rows</text>
<polygon fill="#ffffff" stroke="transparent" points="636,-432.3123 636,-451.3123 660,-451.3123 660,-432.3123 636,-432.3123"/>
<polygon fill="none" stroke="#000000" points="636,-432.3123 636,-451.3123 660,-451.3123 660,-432.3123 636,-432.3123"/>
<text text-anchor="start" x="641.4053" y="-438.4123" font-family="Helvetica,sans-Serif" font-size="11.00" fill="#000000">3 &gt;</text>
</a>
</g>
</g>
<!-- ProfessorCompetencyAssignments&#45;&gt;Subjects -->
<g id="edge21" class="edge">
<title>ProfessorCompetencyAssignments:w&#45;&gt;Subjects:e</title>
<path fill="none" stroke="#000000" d="M756.5539,-520.7797C714.356,-511.2322 711.2098,-460.3123 660,-460.3123"/>
<polygon fill="#000000" stroke="#000000" points="763.0446,-521.4683 770.6202,-525.8922 767.0223,-521.8903 771,-522.3123 771,-522.3123 771,-522.3123 767.0223,-521.8903 771.3798,-518.7324 763.0446,-521.4683 763.0446,-521.4683"/>
<ellipse fill="none" stroke="#000000" cx="759.8625" cy="-521.1306" rx="3.2" ry="3.2"/>
</g>
<!-- Professors&#45;&gt;AspNetUsers -->
<g id="edge24" class="edge">
<title>Professors:w&#45;&gt;AspNetUsers:e</title>
<path fill="none" stroke="#000000" d="M279.1769,-489.2979C247.6806,-500.1004 198.1846,-551.3123 171.5,-551.3123"/>
<polygon fill="#000000" stroke="#000000" points="287.9588,-483.5354 289.47,-491.3914 287.8988,-491.6936 286.3876,-483.8376 287.9588,-483.5354"/>
<polyline fill="none" stroke="#000000" points="289.5,-487.3123 285.572,-488.0679 "/>
<ellipse fill="none" stroke="#000000" cx="282.4296" cy="-488.6723" rx="3.2" ry="3.2"/>
</g>
<!-- Subjects&#45;&gt;AspNetUsers -->
<g id="edge44" class="edge">
<title>Subjects:w&#45;&gt;AspNetUsers:e</title>
<path fill="none" stroke="#000000" d="M556.3004,-460.0263C407.1002,-454.2068 339.9438,-362.4531 212,-449.3123 171.6448,-476.7088 220.2761,-551.3123 171.5,-551.3123"/>
<polygon fill="#000000" stroke="#000000" points="563.0015,-460.1566 570.9299,-463.9116 567.0008,-460.2345 571,-460.3123 571,-460.3123 571,-460.3123 567.0008,-460.2345 571.0701,-456.713 563.0015,-460.1566 563.0015,-460.1566"/>
<ellipse fill="none" stroke="#000000" cx="559.8021" cy="-460.0943" rx="3.2" ry="3.2"/>
</g>
<!-- Subjects&#45;&gt;AspNetUsers -->
<g id="edge47" class="edge">
<title>Subjects:w&#45;&gt;AspNetUsers:e</title>
<path fill="none" stroke="#000000" d="M556.3059,-460.0404C407.1773,-454.5102 340.5094,-367.3698 212,-453.3123 172.8248,-479.5113 218.6284,-551.3123 171.5,-551.3123"/>
<polygon fill="#000000" stroke="#000000" points="563.0014,-460.1643 570.9334,-463.9117 567.0007,-460.2383 571,-460.3123 571,-460.3123 571,-460.3123 567.0007,-460.2383 571.0666,-456.7129 563.0014,-460.1643 563.0014,-460.1643"/>
<ellipse fill="none" stroke="#000000" cx="559.8019" cy="-460.105" rx="3.2" ry="3.2"/>
</g>
<!-- Subjects&#45;&gt;TechnicalCareers -->
<g id="edge46" class="edge">
<title>Subjects:w&#45;&gt;TechnicalCareers:e</title>
<path fill="none" stroke="#000000" d="M556.4829,-459.2189C532.6396,-455.2334 524.0939,-440.7486 500,-422.3123 453.4322,-386.6793 468.1368,-326.3123 409.5,-326.3123"/>
<polygon fill="#000000" stroke="#000000" points="563.0226,-459.7114 570.7296,-463.9021 567.0113,-460.0118 571,-460.3123 571,-460.3123 571,-460.3123 567.0113,-460.0118 571.2704,-456.7225 563.0226,-459.7114 563.0226,-459.7114"/>
<ellipse fill="none" stroke="#000000" cx="559.8316" cy="-459.471" rx="3.2" ry="3.2"/>
</g>
<!-- Subjects&#45;&gt;Professors -->
<g id="edge45" class="edge">
<title>Subjects:w&#45;&gt;Professors:e</title>
<path fill="none" stroke="#000000" d="M556.4968,-460.6155C487.3559,-463.5818 466.5451,-487.3123 390.5,-487.3123"/>
<polygon fill="#000000" stroke="#000000" points="563.0017,-460.4796 571.0753,-463.9115 567.0009,-460.3959 571,-460.3123 571,-460.3123 571,-460.3123 567.0009,-460.3959 570.9247,-456.7131 563.0017,-460.4796 563.0017,-460.4796"/>
<ellipse fill="none" stroke="#000000" cx="559.8024" cy="-460.5465" rx="3.2" ry="3.2"/>
</g>
<!-- QuestionResponses -->
<g id="node15" class="node">
<title>QuestionResponses</title>
<g id="a_node15"><a xlink:href="../../tables/QuestionResponses.html" xlink:title="QuestionResponses" target="_top">
<polygon fill="#ffffff" stroke="transparent" points="1334,-686.8123 1334,-747.8123 1489,-747.8123 1489,-686.8123 1334,-686.8123"/>
<polygon fill="#f5f5f5" stroke="transparent" points="1334.5,-724.3123 1334.5,-747.3123 1489.5,-747.3123 1489.5,-724.3123 1334.5,-724.3123"/>
<polygon fill="none" stroke="#000000" points="1334.5,-724.3123 1334.5,-747.3123 1489.5,-747.3123 1489.5,-724.3123 1334.5,-724.3123"/>
<text text-anchor="start" x="1339.5" y="-732.9123" font-family="Helvetica,sans-Serif" font-weight="bold" font-size="11.00" fill="#000000">QuestionResponses</text>
<text text-anchor="start" x="1455.0219" y="-732.4123" font-family="Helvetica,sans-Serif" font-size="11.00" fill="#000000">[table]</text>
<polygon fill="none" stroke="#000000" points="1334.5,-705.3123 1334.5,-724.3123 1489.5,-724.3123 1489.5,-705.3123 1334.5,-705.3123"/>
<text text-anchor="start" x="1337.5" y="-711.4123" font-family="Helvetica,sans-Serif" font-size="11.00" fill="#000000">...</text>
<polygon fill="#ffffff" stroke="transparent" points="1334.5,-686.3123 1334.5,-705.3123 1397.5,-705.3123 1397.5,-686.3123 1334.5,-686.3123"/>
<polygon fill="none" stroke="#000000" points="1334.5,-686.3123 1334.5,-705.3123 1397.5,-705.3123 1397.5,-686.3123 1334.5,-686.3123"/>
<text text-anchor="start" x="1337.5" y="-692.4123" font-family="Helvetica,sans-Serif" font-size="11.00" fill="#000000">&lt; 4</text>
<polygon fill="#ffffff" stroke="transparent" points="1397.5,-686.3123 1397.5,-705.3123 1456.5,-705.3123 1456.5,-686.3123 1397.5,-686.3123"/>
<polygon fill="none" stroke="#000000" points="1397.5,-686.3123 1397.5,-705.3123 1456.5,-705.3123 1456.5,-686.3123 1397.5,-686.3123"/>
<text text-anchor="start" x="1421.1105" y="-692.4123" font-family="Helvetica,sans-Serif" font-size="11.00" fill="#000000">0 rows</text>
<polygon fill="#ffffff" stroke="transparent" points="1456.5,-686.3123 1456.5,-705.3123 1489.5,-705.3123 1489.5,-686.3123 1456.5,-686.3123"/>
<polygon fill="none" stroke="#000000" points="1456.5,-686.3123 1456.5,-705.3123 1489.5,-705.3123 1489.5,-686.3123 1456.5,-686.3123"/>
<text text-anchor="start" x="1480.3862" y="-692.4123" font-family="Helvetica,sans-Serif" font-size="11.00" fill="#000000"> &#160;</text>
</a>
</g>
</g>
<!-- QuestionResponses&#45;&gt;AspNetUsers -->
<g id="edge25" class="edge">
<title>QuestionResponses:w&#45;&gt;AspNetUsers:e</title>
<path fill="none" stroke="#000000" d="M1320.0768,-714.5991C1152.5663,-720.2508 306.2639,-806.7234 212,-731.3123 147.9688,-680.0873 253.5,-551.3123 171.5,-551.3123"/>
<polygon fill="#000000" stroke="#000000" points="1326.5016,-714.4714 1334.5716,-717.9116 1330.5008,-714.3918 1334.5,-714.3123 1334.5,-714.3123 1334.5,-714.3123 1330.5008,-714.3918 1334.4284,-710.713 1326.5016,-714.4714 1326.5016,-714.4714"/>
<ellipse fill="none" stroke="#000000" cx="1323.3022" cy="-714.535" rx="3.2" ry="3.2"/>
</g>
<!-- QuestionResponses&#45;&gt;AspNetUsers -->
<g id="edge28" class="edge">
<title>QuestionResponses:w&#45;&gt;AspNetUsers:e</title>
<path fill="none" stroke="#000000" d="M1320.0779,-714.5862C1152.5834,-719.9822 306.4424,-802.4905 212,-727.3123 149.2007,-677.3227 251.7665,-551.3123 171.5,-551.3123"/>
<polygon fill="#000000" stroke="#000000" points="1326.5014,-714.4642 1334.5684,-717.9117 1330.5007,-714.3883 1334.5,-714.3123 1334.5,-714.3123 1334.5,-714.3123 1330.5007,-714.3883 1334.4316,-710.7129 1326.5014,-714.4642 1326.5014,-714.4642"/>
<ellipse fill="none" stroke="#000000" cx="1323.302" cy="-714.525" rx="3.2" ry="3.2"/>
</g>
<!-- QuestionResponses&#45;&gt;FormQuestions -->
<g id="edge26" class="edge">
<title>QuestionResponses:w&#45;&gt;FormQuestions:e</title>
<path fill="none" stroke="#000000" d="M1320.0991,-714.2583C1039.3117,-712.1391 966.9453,-648.3123 679,-648.3123"/>
<polygon fill="#000000" stroke="#000000" points="1326.5001,-714.2823 1334.4865,-717.9123 1330.5,-714.2973 1334.5,-714.3123 1334.5,-714.3123 1334.5,-714.3123 1330.5,-714.2973 1334.5135,-710.7123 1326.5001,-714.2823 1326.5001,-714.2823"/>
<ellipse fill="none" stroke="#000000" cx="1323.3001" cy="-714.2702" rx="3.2" ry="3.2"/>
</g>
<!-- StudentCompetencyEvaluations -->
<g id="node16" class="node">
<title>StudentCompetencyEvaluations</title>
<g id="a_node16"><a xlink:href="../../tables/StudentCompetencyEvaluations.html" xlink:title="StudentCompetencyEvaluations" target="_top">
<polygon fill="#ffffff" stroke="transparent" points="1062,-544.8123 1062,-605.8123 1285,-605.8123 1285,-544.8123 1062,-544.8123"/>
<polygon fill="#f5f5f5" stroke="transparent" points="1062.5,-582.3123 1062.5,-605.3123 1285.5,-605.3123 1285.5,-582.3123 1062.5,-582.3123"/>
<polygon fill="none" stroke="#000000" points="1062.5,-582.3123 1062.5,-605.3123 1285.5,-605.3123 1285.5,-582.3123 1062.5,-582.3123"/>
<text text-anchor="start" x="1067.5" y="-590.9123" font-family="Helvetica,sans-Serif" font-weight="bold" font-size="11.00" fill="#000000">StudentCompetencyEvaluations</text>
<text text-anchor="start" x="1251.0219" y="-590.4123" font-family="Helvetica,sans-Serif" font-size="11.00" fill="#000000">[table]</text>
<polygon fill="none" stroke="#000000" points="1062.5,-563.3123 1062.5,-582.3123 1285.5,-582.3123 1285.5,-563.3123 1062.5,-563.3123"/>
<text text-anchor="start" x="1065.5" y="-569.4123" font-family="Helvetica,sans-Serif" font-size="11.00" fill="#000000">...</text>
<polygon fill="#ffffff" stroke="transparent" points="1062.5,-544.3123 1062.5,-563.3123 1154.5,-563.3123 1154.5,-544.3123 1062.5,-544.3123"/>
<polygon fill="none" stroke="#000000" points="1062.5,-544.3123 1062.5,-563.3123 1154.5,-563.3123 1154.5,-544.3123 1062.5,-544.3123"/>
<text text-anchor="start" x="1065.5" y="-550.4123" font-family="Helvetica,sans-Serif" font-size="11.00" fill="#000000">&lt; 5</text>
<polygon fill="#ffffff" stroke="transparent" points="1154.5,-544.3123 1154.5,-563.3123 1228.5,-563.3123 1228.5,-544.3123 1154.5,-544.3123"/>
<polygon fill="none" stroke="#000000" points="1154.5,-544.3123 1154.5,-563.3123 1228.5,-563.3123 1228.5,-544.3123 1154.5,-544.3123"/>
<text text-anchor="start" x="1193.1105" y="-550.4123" font-family="Helvetica,sans-Serif" font-size="11.00" fill="#000000">0 rows</text>
<polygon fill="#ffffff" stroke="transparent" points="1228.5,-544.3123 1228.5,-563.3123 1285.5,-563.3123 1285.5,-544.3123 1228.5,-544.3123"/>
<polygon fill="none" stroke="#000000" points="1228.5,-544.3123 1228.5,-563.3123 1285.5,-563.3123 1285.5,-544.3123 1228.5,-544.3123"/>
<text text-anchor="start" x="1266.9053" y="-550.4123" font-family="Helvetica,sans-Serif" font-size="11.00" fill="#000000">1 &gt;</text>
</a>
</g>
</g>
<!-- QuestionResponses&#45;&gt;StudentCompetencyEvaluations -->
<g id="edge27" class="edge">
<title>QuestionResponses:w&#45;&gt;StudentCompetencyEvaluations:e</title>
<path fill="none" stroke="#000000" d="M1319.9494,-711.0796C1281.7041,-689.9429 1346.2647,-572.3123 1285.5,-572.3123"/>
<polygon fill="#000000" stroke="#000000" points="1326.6904,-712.5772 1333.7192,-717.8266 1330.5952,-713.4448 1334.5,-714.3123 1334.5,-714.3123 1334.5,-714.3123 1330.5952,-713.4448 1335.2808,-710.798 1326.6904,-712.5772 1326.6904,-712.5772"/>
<ellipse fill="none" stroke="#000000" cx="1323.5666" cy="-711.8832" rx="3.2" ry="3.2"/>
</g>
<!-- StudentCompetencyEvaluations&#45;&gt;AspNetUsers -->
<g id="edge29" class="edge">
<title>StudentCompetencyEvaluations:w&#45;&gt;AspNetUsers:e</title>
<path fill="none" stroke="#000000" d="M1047.9652,-572.3281C681.906,-573.1251 582.6215,-603.6443 212,-560.3123 193.6857,-558.171 189.9391,-551.3123 171.5,-551.3123"/>
<polygon fill="#000000" stroke="#000000" points="1054.5,-572.321 1062.5039,-575.9123 1058.5,-572.3167 1062.5,-572.3123 1062.5,-572.3123 1062.5,-572.3123 1058.5,-572.3167 1062.4961,-568.7123 1054.5,-572.321 1054.5,-572.321"/>
<ellipse fill="none" stroke="#000000" cx="1051.3" cy="-572.3245" rx="3.2" ry="3.2"/>
</g>
<!-- StudentCompetencyEvaluations&#45;&gt;AspNetUsers -->
<g id="edge33" class="edge">
<title>StudentCompetencyEvaluations:w&#45;&gt;AspNetUsers:e</title>
<path fill="none" stroke="#000000" d="M1047.9649,-572.3176C681.9193,-572.5843 584.2394,-582.7195 212,-556.3123 193.9088,-555.0289 189.6367,-551.3123 171.5,-551.3123"/>
<polygon fill="#000000" stroke="#000000" points="1054.5,-572.3153 1062.5013,-575.9123 1058.5,-572.3138 1062.5,-572.3123 1062.5,-572.3123 1062.5,-572.3123 1058.5,-572.3138 1062.4987,-568.7123 1054.5,-572.3153 1054.5,-572.3153"/>
<ellipse fill="none" stroke="#000000" cx="1051.3" cy="-572.3165" rx="3.2" ry="3.2"/>
</g>
<!-- StudentCompetencyEvaluations&#45;&gt;ProfessorCompetencyAssignments -->
<g id="edge30" class="edge">
<title>StudentCompetencyEvaluations:w&#45;&gt;ProfessorCompetencyAssignments:e</title>
<path fill="none" stroke="#000000" d="M1048.5883,-567.3353C1034.6334,-554.6884 1038.1628,-522.3123 1013,-522.3123"/>
<polygon fill="#000000" stroke="#000000" points="1054.9675,-569.6175 1061.2873,-575.7019 1058.7338,-570.9649 1062.5,-572.3123 1062.5,-572.3123 1062.5,-572.3123 1058.7338,-570.9649 1063.7127,-568.9227 1054.9675,-569.6175 1054.9675,-569.6175"/>
<ellipse fill="none" stroke="#000000" cx="1051.9545" cy="-568.5396" rx="3.2" ry="3.2"/>
</g>
<!-- StudentCompetencyEvaluations&#45;&gt;Subjects -->
<g id="edge32" class="edge">
<title>StudentCompetencyEvaluations:w&#45;&gt;Subjects:e</title>
<path fill="none" stroke="#000000" d="M1048.3441,-568.6345C1028.561,-554.7354 1051.5673,-505.1465 1021,-484.3123 888.1293,-393.7498 820.7986,-460.3123 660,-460.3123"/>
<polygon fill="#000000" stroke="#000000" points="1054.757,-570.3006 1061.5947,-575.7966 1058.6285,-571.3065 1062.5,-572.3123 1062.5,-572.3123 1062.5,-572.3123 1058.6285,-571.3065 1063.4053,-568.828 1054.757,-570.3006 1054.757,-570.3006"/>
<ellipse fill="none" stroke="#000000" cx="1051.6599" cy="-569.4959" rx="3.2" ry="3.2"/>
</g>
<!-- Students -->
<g id="node17" class="node">
<title>Students</title>
<g id="a_node17"><a xlink:href="../../tables/Students.html" xlink:title="Students" target="_top">
<polygon fill="#ffffff" stroke="transparent" points="570,-240.8123 570,-301.8123 660,-301.8123 660,-240.8123 570,-240.8123"/>
<polygon fill="#f5f5f5" stroke="transparent" points="570,-278.3123 570,-301.3123 660,-301.3123 660,-278.3123 570,-278.3123"/>
<polygon fill="none" stroke="#000000" points="570,-278.3123 570,-301.3123 660,-301.3123 660,-278.3123 570,-278.3123"/>
<text text-anchor="start" x="575" y="-286.9123" font-family="Helvetica,sans-Serif" font-weight="bold" font-size="11.00" fill="#000000">Students</text>
<text text-anchor="start" x="625.5219" y="-286.4123" font-family="Helvetica,sans-Serif" font-size="11.00" fill="#000000">[table]</text>
<polygon fill="none" stroke="#000000" points="570,-259.3123 570,-278.3123 660,-278.3123 660,-259.3123 570,-259.3123"/>
<text text-anchor="start" x="573" y="-265.4123" font-family="Helvetica,sans-Serif" font-size="11.00" fill="#000000">...</text>
<polygon fill="#ffffff" stroke="transparent" points="570,-240.3123 570,-259.3123 596,-259.3123 596,-240.3123 570,-240.3123"/>
<polygon fill="none" stroke="#000000" points="570,-240.3123 570,-259.3123 596,-259.3123 596,-240.3123 570,-240.3123"/>
<text text-anchor="start" x="573" y="-246.4123" font-family="Helvetica,sans-Serif" font-size="11.00" fill="#000000">&lt; 2</text>
<polygon fill="#ffffff" stroke="transparent" points="596,-240.3123 596,-259.3123 636,-259.3123 636,-240.3123 596,-240.3123"/>
<polygon fill="none" stroke="#000000" points="596,-240.3123 596,-259.3123 636,-259.3123 636,-240.3123 596,-240.3123"/>
<text text-anchor="start" x="600.6105" y="-246.4123" font-family="Helvetica,sans-Serif" font-size="11.00" fill="#000000">0 rows</text>
<polygon fill="#ffffff" stroke="transparent" points="636,-240.3123 636,-259.3123 660,-259.3123 660,-240.3123 636,-240.3123"/>
<polygon fill="none" stroke="#000000" points="636,-240.3123 636,-259.3123 660,-259.3123 660,-240.3123 636,-240.3123"/>
<text text-anchor="start" x="641.4053" y="-246.4123" font-family="Helvetica,sans-Serif" font-size="11.00" fill="#000000">3 &gt;</text>
</a>
</g>
</g>
<!-- StudentCompetencyEvaluations&#45;&gt;Students -->
<g id="edge31" class="edge">
<title>StudentCompetencyEvaluations:w&#45;&gt;Students:e</title>
<path fill="none" stroke="#000000" d="M1048.1817,-570.2357C1009.1975,-556.5319 1059.2597,-478.2919 1021,-434.3123 963.047,-367.6952 748.2972,-268.3123 660,-268.3123"/>
<polygon fill="#000000" stroke="#000000" points="1054.5828,-571.164 1061.9833,-575.875 1058.5414,-571.7382 1062.5,-572.3123 1062.5,-572.3123 1062.5,-572.3123 1058.5414,-571.7382 1063.0167,-568.7496 1054.5828,-571.164 1054.5828,-571.164"/>
<ellipse fill="none" stroke="#000000" cx="1051.416" cy="-570.7047" rx="3.2" ry="3.2"/>
</g>
<!-- Students&#45;&gt;AspNetUsers -->
<g id="edge39" class="edge">
<title>Students:w&#45;&gt;AspNetUsers:e</title>
<path fill="none" stroke="#000000" d="M559.3798,-268.1837C407,-264.498 327.363,-183.6283 212,-288.3123 168.2087,-328.0499 230.6334,-551.3123 171.5,-551.3123"/>
<polygon fill="#000000" stroke="#000000" points="569.2485,-264.3029 569.1516,-272.3023 567.5517,-272.2829 567.6487,-264.2835 569.2485,-264.3029"/>
<polyline fill="none" stroke="#000000" points="570,-268.3123 566.0003,-268.2638 "/>
<ellipse fill="none" stroke="#000000" cx="562.8005" cy="-268.225" rx="3.2" ry="3.2"/>
</g>
<!-- Students&#45;&gt;TechnicalCareers -->
<g id="edge38" class="edge">
<title>Students:w&#45;&gt;TechnicalCareers:e</title>
<path fill="none" stroke="#000000" d="M555.3423,-269.0883C492.6349,-275.971 480.1632,-326.3123 409.5,-326.3123"/>
<polygon fill="#000000" stroke="#000000" points="562.0112,-268.7353 570.1904,-271.9073 566.0056,-268.5238 570,-268.3123 570,-268.3123 570,-268.3123 566.0056,-268.5238 569.8096,-264.7173 562.0112,-268.7353 562.0112,-268.7353"/>
<ellipse fill="none" stroke="#000000" cx="558.8157" cy="-268.9045" rx="3.2" ry="3.2"/>
</g>
<!-- StudentEvaluationReport -->
<g id="node18" class="node">
<title>StudentEvaluationReport</title>
<g id="a_node18"><a xlink:href="../../tables/StudentEvaluationReport.html" xlink:title="StudentEvaluationReport" target="_top">
<polygon fill="#ffffff" stroke="transparent" points="800.5,-86.8123 800.5,-147.8123 983.5,-147.8123 983.5,-86.8123 800.5,-86.8123"/>
<polygon fill="#f5f5f5" stroke="transparent" points="801,-124.3123 801,-147.3123 984,-147.3123 984,-124.3123 801,-124.3123"/>
<polygon fill="none" stroke="#000000" points="801,-124.3123 801,-147.3123 984,-147.3123 984,-124.3123 801,-124.3123"/>
<text text-anchor="start" x="806" y="-132.9123" font-family="Helvetica,sans-Serif" font-weight="bold" font-size="11.00" fill="#000000">StudentEvaluationReport</text>
<text text-anchor="start" x="949.5219" y="-132.4123" font-family="Helvetica,sans-Serif" font-size="11.00" fill="#000000">[table]</text>
<polygon fill="none" stroke="#000000" points="801,-105.3123 801,-124.3123 984,-124.3123 984,-105.3123 801,-105.3123"/>
<text text-anchor="start" x="804" y="-111.4123" font-family="Helvetica,sans-Serif" font-size="11.00" fill="#000000">...</text>
<polygon fill="#ffffff" stroke="transparent" points="801,-86.3123 801,-105.3123 878,-105.3123 878,-86.3123 801,-86.3123"/>
<polygon fill="none" stroke="#000000" points="801,-86.3123 801,-105.3123 878,-105.3123 878,-86.3123 801,-86.3123"/>
<text text-anchor="start" x="804" y="-92.4123" font-family="Helvetica,sans-Serif" font-size="11.00" fill="#000000">&lt; 4</text>
<polygon fill="#ffffff" stroke="transparent" points="878,-86.3123 878,-105.3123 944,-105.3123 944,-86.3123 878,-86.3123"/>
<polygon fill="none" stroke="#000000" points="878,-86.3123 878,-105.3123 944,-105.3123 944,-86.3123 878,-86.3123"/>
<text text-anchor="start" x="908.6105" y="-92.4123" font-family="Helvetica,sans-Serif" font-size="11.00" fill="#000000">0 rows</text>
<polygon fill="#ffffff" stroke="transparent" points="944,-86.3123 944,-105.3123 984,-105.3123 984,-86.3123 944,-86.3123"/>
<polygon fill="none" stroke="#000000" points="944,-86.3123 944,-105.3123 984,-105.3123 984,-86.3123 944,-86.3123"/>
<text text-anchor="start" x="974.8862" y="-92.4123" font-family="Helvetica,sans-Serif" font-size="11.00" fill="#000000"> &#160;</text>
</a>
</g>
</g>
<!-- StudentEvaluationReport&#45;&gt;AspNetUsers -->
<g id="edge34" class="edge">
<title>StudentEvaluationReport:w&#45;&gt;AspNetUsers:e</title>
<path fill="none" stroke="#000000" d="M786.5593,-114.1314C534.235,-107.8142 401.8326,60.8134 212,-112.3123 139.6128,-178.3288 269.4698,-551.3123 171.5,-551.3123"/>
<polygon fill="#000000" stroke="#000000" points="793.0006,-114.2121 800.9549,-117.912 797.0003,-114.2622 801,-114.3123 801,-114.3123 801,-114.3123 797.0003,-114.2622 801.0451,-110.7126 793.0006,-114.2121 793.0006,-114.2121"/>
<ellipse fill="none" stroke="#000000" cx="789.8009" cy="-114.172" rx="3.2" ry="3.2"/>
</g>
<!-- StudentEvaluationReport&#45;&gt;AspNetUsers -->
<g id="edge37" class="edge">
<title>StudentEvaluationReport:w&#45;&gt;AspNetUsers:e</title>
<path fill="none" stroke="#000000" d="M786.5587,-114.1349C534.2153,-107.9398 401.3034,57.3919 212,-116.3123 140.4667,-181.951 268.5847,-551.3123 171.5,-551.3123"/>
<polygon fill="#000000" stroke="#000000" points="793.0006,-114.214 800.9558,-117.912 797.0003,-114.2631 801,-114.3123 801,-114.3123 801,-114.3123 797.0003,-114.2631 801.0442,-110.7126 793.0006,-114.214 793.0006,-114.214"/>
<ellipse fill="none" stroke="#000000" cx="789.8008" cy="-114.1747" rx="3.2" ry="3.2"/>
</g>
<!-- StudentEvaluationReport&#45;&gt;EvaluationPeriods -->
<g id="edge35" class="edge">
<title>StudentEvaluationReport:w&#45;&gt;EvaluationPeriods:e</title>
<path fill="none" stroke="#000000" d="M786.5965,-115.6082C684.3579,-135.5244 809.5634,-378.3123 687,-378.3123"/>
<polygon fill="#000000" stroke="#000000" points="793.0322,-115.0292 801.3226,-117.8978 797.0161,-114.6708 801,-114.3123 801,-114.3123 801,-114.3123 797.0161,-114.6708 800.6774,-110.7268 793.0322,-115.0292 793.0322,-115.0292"/>
<ellipse fill="none" stroke="#000000" cx="789.8451" cy="-115.316" rx="3.2" ry="3.2"/>
</g>
<!-- StudentEvaluationReport&#45;&gt;Students -->
<g id="edge36" class="edge">
<title>StudentEvaluationReport:w&#45;&gt;Students:e</title>
<path fill="none" stroke="#000000" d="M786.591,-116.1098C746.0145,-127.6922 769.8125,-192.5144 730,-230.3123 704.3276,-254.6857 695.3997,-268.3123 660,-268.3123"/>
<polygon fill="#000000" stroke="#000000" points="793.0615,-115.3027 801.4457,-117.8846 797.0308,-114.8075 801,-114.3123 801,-114.3123 801,-114.3123 797.0308,-114.8075 800.5543,-110.74 793.0615,-115.3027 793.0615,-115.3027"/>
<ellipse fill="none" stroke="#000000" cx="789.8861" cy="-115.6988" rx="3.2" ry="3.2"/>
</g>
<!-- StudentSubjects -->
<g id="node19" class="node">
<title>StudentSubjects</title>
<g id="a_node19"><a xlink:href="../../tables/StudentSubjects.html" xlink:title="StudentSubjects" target="_top">
<polygon fill="#ffffff" stroke="transparent" points="825.5,-216.8123 825.5,-277.8123 958.5,-277.8123 958.5,-216.8123 825.5,-216.8123"/>
<polygon fill="#f5f5f5" stroke="transparent" points="826,-254.3123 826,-277.3123 959,-277.3123 959,-254.3123 826,-254.3123"/>
<polygon fill="none" stroke="#000000" points="826,-254.3123 826,-277.3123 959,-277.3123 959,-254.3123 826,-254.3123"/>
<text text-anchor="start" x="831" y="-262.9123" font-family="Helvetica,sans-Serif" font-weight="bold" font-size="11.00" fill="#000000">StudentSubjects</text>
<text text-anchor="start" x="924.5219" y="-262.4123" font-family="Helvetica,sans-Serif" font-size="11.00" fill="#000000">[table]</text>
<polygon fill="none" stroke="#000000" points="826,-235.3123 826,-254.3123 959,-254.3123 959,-235.3123 826,-235.3123"/>
<text text-anchor="start" x="829" y="-241.4123" font-family="Helvetica,sans-Serif" font-size="11.00" fill="#000000">...</text>
<polygon fill="#ffffff" stroke="transparent" points="826,-216.3123 826,-235.3123 878,-235.3123 878,-216.3123 826,-216.3123"/>
<polygon fill="none" stroke="#000000" points="826,-216.3123 826,-235.3123 878,-235.3123 878,-216.3123 826,-216.3123"/>
<text text-anchor="start" x="829" y="-222.4123" font-family="Helvetica,sans-Serif" font-size="11.00" fill="#000000">&lt; 4</text>
<polygon fill="#ffffff" stroke="transparent" points="878,-216.3123 878,-235.3123 931,-235.3123 931,-216.3123 878,-216.3123"/>
<polygon fill="none" stroke="#000000" points="878,-216.3123 878,-235.3123 931,-235.3123 931,-216.3123 878,-216.3123"/>
<text text-anchor="start" x="895.6105" y="-222.4123" font-family="Helvetica,sans-Serif" font-size="11.00" fill="#000000">0 rows</text>
<polygon fill="#ffffff" stroke="transparent" points="931,-216.3123 931,-235.3123 959,-235.3123 959,-216.3123 931,-216.3123"/>
<polygon fill="none" stroke="#000000" points="931,-216.3123 931,-235.3123 959,-235.3123 959,-216.3123 931,-216.3123"/>
<text text-anchor="start" x="949.8862" y="-222.4123" font-family="Helvetica,sans-Serif" font-size="11.00" fill="#000000"> &#160;</text>
</a>
</g>
</g>
<!-- StudentSubjects&#45;&gt;AspNetUsers -->
<g id="edge40" class="edge">
<title>StudentSubjects:w&#45;&gt;AspNetUsers:e</title>
<path fill="none" stroke="#000000" d="M811.5708,-242.6358C768.6574,-231.6136 780.7382,-169.3287 730,-148.3123 623.5939,-104.2375 295.2744,-85.7496 212,-165.3123 149.6391,-224.8937 257.7486,-551.3123 171.5,-551.3123"/>
<polygon fill="#000000" stroke="#000000" points="818.0535,-243.3889 825.5845,-247.8882 822.0267,-243.8506 826,-244.3123 826,-244.3123 826,-244.3123 822.0267,-243.8506 826.4155,-240.7364 818.0535,-243.3889 818.0535,-243.3889"/>
<ellipse fill="none" stroke="#000000" cx="814.8748" cy="-243.0196" rx="3.2" ry="3.2"/>
</g>
<!-- StudentSubjects&#45;&gt;AspNetUsers -->
<g id="edge43" class="edge">
<title>StudentSubjects:w&#45;&gt;AspNetUsers:e</title>
<path fill="none" stroke="#000000" d="M811.5569,-242.6347C769.5828,-231.8707 779.8014,-172.3228 730,-152.3123 623.1312,-109.3717 295.3176,-89.7949 212,-169.3123 150.2462,-228.2495 256.8646,-551.3123 171.5,-551.3123"/>
<polygon fill="#000000" stroke="#000000" points="818.0534,-243.3893 825.5846,-247.8883 822.0267,-243.8508 826,-244.3123 826,-244.3123 826,-244.3123 822.0267,-243.8508 826.4154,-240.7363 818.0534,-243.3893 818.0534,-243.3893"/>
<ellipse fill="none" stroke="#000000" cx="814.8748" cy="-243.02" rx="3.2" ry="3.2"/>
</g>
<!-- StudentSubjects&#45;&gt;Subjects -->
<g id="edge42" class="edge">
<title>StudentSubjects:w&#45;&gt;Subjects:e</title>
<path fill="none" stroke="#000000" d="M811.2333,-245.5333C742.6189,-257.9742 789.6273,-362.5219 730,-422.3123 705.0029,-447.3778 695.3997,-460.3123 660,-460.3123"/>
<polygon fill="#000000" stroke="#000000" points="818.0272,-244.9716 826.2967,-247.9001 822.0136,-244.6419 826,-244.3123 826,-244.3123 826,-244.3123 822.0136,-244.6419 825.7033,-240.7245 818.0272,-244.9716 818.0272,-244.9716"/>
<ellipse fill="none" stroke="#000000" cx="814.8381" cy="-245.2353" rx="3.2" ry="3.2"/>
</g>
<!-- StudentSubjects&#45;&gt;Students -->
<g id="edge41" class="edge">
<title>StudentSubjects:w&#45;&gt;Students:e</title>
<path fill="none" stroke="#000000" d="M811.4836,-244.6334C748.8739,-247.4814 729.449,-268.3123 660,-268.3123"/>
<polygon fill="#000000" stroke="#000000" points="818.002,-244.4893 826.0796,-247.9114 822.001,-244.4008 826,-244.3123 826,-244.3123 826,-244.3123 822.001,-244.4008 825.9204,-240.7132 818.002,-244.4893 818.002,-244.4893"/>
<ellipse fill="none" stroke="#000000" cx="814.8027" cy="-244.5601" rx="3.2" ry="3.2"/>
</g>
</g>
</svg>
