<?xml version="1.0" encoding="UTF-8" standalone="no"?>
<!DOCTYPE svg PUBLIC "-//W3C//DTD SVG 1.1//EN"
 "http://www.w3.org/Graphics/SVG/1.1/DTD/svg11.dtd">
<!-- Generated by graphviz version 2.40.1 (20161225.0304)
 -->
<!-- Title: twoDegreesRelationshipsDiagram Pages: 1 -->
<svg width="1436pt" height="1265pt"
 viewBox="0.00 0.00 1436.00 1265.33" xmlns="http://www.w3.org/2000/svg" xmlns:xlink="http://www.w3.org/1999/xlink">
<g id="graph0" class="graph" transform="scale(1 1) rotate(0) translate(4 1261.3306)">
<title>twoDegreesRelationshipsDiagram</title>
<polygon fill="#ffffff" stroke="transparent" points="-4,4 -4,-1261.3306 1432,-1261.3306 1432,4 -4,4"/>
<text text-anchor="middle" x="72.4936" y="-7.3" font-family="Helvetica,sans-Serif" font-size="11.00" fill="#000000">Generated by SchemaSpy</text>
<!-- AspNetUserClaims -->
<g id="node1" class="node">
<title>AspNetUserClaims</title>
<g id="a_node1"><a xlink:href="../../tables/AspNetUserClaims.html" xlink:title="AspNetUserClaims" target="_top">
<polygon fill="#ffffff" stroke="transparent" points="207,-1192.3306 207,-1253.3306 354,-1253.3306 354,-1192.3306 207,-1192.3306"/>
<polygon fill="#f5f5f5" stroke="transparent" points="207.5,-1229.8306 207.5,-1252.8306 354.5,-1252.8306 354.5,-1229.8306 207.5,-1229.8306"/>
<polygon fill="none" stroke="#000000" points="207.5,-1229.8306 207.5,-1252.8306 354.5,-1252.8306 354.5,-1229.8306 207.5,-1229.8306"/>
<text text-anchor="start" x="212.5" y="-1238.4306" font-family="Helvetica,sans-Serif" font-weight="bold" font-size="11.00" fill="#000000">AspNetUserClaims</text>
<text text-anchor="start" x="320.0219" y="-1237.9306" font-family="Helvetica,sans-Serif" font-size="11.00" fill="#000000">[table]</text>
<polygon fill="none" stroke="#000000" points="207.5,-1210.8306 207.5,-1229.8306 354.5,-1229.8306 354.5,-1210.8306 207.5,-1210.8306"/>
<text text-anchor="start" x="210.5" y="-1216.9306" font-family="Helvetica,sans-Serif" font-size="11.00" fill="#000000">...</text>
<polygon fill="#ffffff" stroke="transparent" points="207.5,-1191.8306 207.5,-1210.8306 266.5,-1210.8306 266.5,-1191.8306 207.5,-1191.8306"/>
<polygon fill="none" stroke="#000000" points="207.5,-1191.8306 207.5,-1210.8306 266.5,-1210.8306 266.5,-1191.8306 207.5,-1191.8306"/>
<text text-anchor="start" x="210.5" y="-1197.9306" font-family="Helvetica,sans-Serif" font-size="11.00" fill="#000000">&lt; 1</text>
<polygon fill="#ffffff" stroke="transparent" points="266.5,-1191.8306 266.5,-1210.8306 323.5,-1210.8306 323.5,-1191.8306 266.5,-1191.8306"/>
<polygon fill="none" stroke="#000000" points="266.5,-1191.8306 266.5,-1210.8306 323.5,-1210.8306 323.5,-1191.8306 266.5,-1191.8306"/>
<text text-anchor="start" x="288.1105" y="-1197.9306" font-family="Helvetica,sans-Serif" font-size="11.00" fill="#000000">0 rows</text>
<polygon fill="#ffffff" stroke="transparent" points="323.5,-1191.8306 323.5,-1210.8306 354.5,-1210.8306 354.5,-1191.8306 323.5,-1191.8306"/>
<polygon fill="none" stroke="#000000" points="323.5,-1191.8306 323.5,-1210.8306 354.5,-1210.8306 354.5,-1191.8306 323.5,-1191.8306"/>
<text text-anchor="start" x="345.3862" y="-1197.9306" font-family="Helvetica,sans-Serif" font-size="11.00" fill="#000000"> &#160;</text>
</a>
</g>
</g>
<!-- AspNetUsers -->
<g id="node2" class="node">
<title>AspNetUsers</title>
<g id="a_node2"><a xlink:href="../../tables/AspNetUsers.html" xlink:title="AspNetUsers" target="_top">
<polygon fill="#ffffff" stroke="transparent" points="8,-432.3306 8,-493.3306 122,-493.3306 122,-432.3306 8,-432.3306"/>
<polygon fill="#f5f5f5" stroke="transparent" points="8,-469.8306 8,-492.8306 122,-492.8306 122,-469.8306 8,-469.8306"/>
<polygon fill="none" stroke="#000000" points="8,-469.8306 8,-492.8306 122,-492.8306 122,-469.8306 8,-469.8306"/>
<text text-anchor="start" x="13" y="-478.4306" font-family="Helvetica,sans-Serif" font-weight="bold" font-size="11.00" fill="#000000">AspNetUsers</text>
<text text-anchor="start" x="87.5219" y="-477.9306" font-family="Helvetica,sans-Serif" font-size="11.00" fill="#000000">[table]</text>
<polygon fill="none" stroke="#000000" points="8,-450.8306 8,-469.8306 122,-469.8306 122,-450.8306 8,-450.8306"/>
<text text-anchor="start" x="11" y="-456.9306" font-family="Helvetica,sans-Serif" font-size="11.00" fill="#000000">...</text>
<polygon fill="#ffffff" stroke="transparent" points="8,-431.8306 8,-450.8306 41,-450.8306 41,-431.8306 8,-431.8306"/>
<polygon fill="none" stroke="#000000" points="8,-431.8306 8,-450.8306 41,-450.8306 41,-431.8306 8,-431.8306"/>
<text text-anchor="start" x="11" y="-437.9306" font-family="Helvetica,sans-Serif" font-size="11.00" fill="#000000"> &#160;</text>
<polygon fill="#ffffff" stroke="transparent" points="41,-431.8306 41,-450.8306 84,-450.8306 84,-431.8306 41,-431.8306"/>
<polygon fill="none" stroke="#000000" points="41,-431.8306 41,-450.8306 84,-450.8306 84,-431.8306 41,-431.8306"/>
<text text-anchor="start" x="54.1105" y="-437.9306" font-family="Helvetica,sans-Serif" font-size="11.00" fill="#000000">1 row</text>
<polygon fill="#ffffff" stroke="transparent" points="84,-431.8306 84,-450.8306 122,-450.8306 122,-431.8306 84,-431.8306"/>
<polygon fill="none" stroke="#000000" points="84,-431.8306 84,-450.8306 122,-450.8306 122,-431.8306 84,-431.8306"/>
<text text-anchor="start" x="97.2904" y="-437.9306" font-family="Helvetica,sans-Serif" font-size="11.00" fill="#000000">29 &gt;</text>
</a>
</g>
</g>
<!-- AspNetUserClaims&#45;&gt;AspNetUsers -->
<g id="edge1" class="edge">
<title>AspNetUserClaims:w&#45;&gt;AspNetUsers:e</title>
<path fill="none" stroke="#000000" d="M193.024,-1217.7312C178.5466,-1212.8262 172.7366,-1199.6642 163,-1181.8306 97.1966,-1061.3052 72.3991,-624.6606 66.4872,-497.6873"/>
<polygon fill="#000000" stroke="#000000" points="199.5828,-1218.6824 206.9833,-1223.3934 203.5414,-1219.2565 207.5,-1219.8306 207.5,-1219.8306 207.5,-1219.8306 203.5414,-1219.2565 208.0167,-1216.2679 199.5828,-1218.6824 199.5828,-1218.6824"/>
<ellipse fill="none" stroke="#000000" cx="196.416" cy="-1218.2231" rx="3.2" ry="3.2"/>
</g>
<!-- AspNetUserLogins -->
<g id="node3" class="node">
<title>AspNetUserLogins</title>
<g id="a_node3"><a xlink:href="../../tables/AspNetUserLogins.html" xlink:title="AspNetUserLogins" target="_top">
<polygon fill="#ffffff" stroke="transparent" points="207,-1110.3306 207,-1171.3306 354,-1171.3306 354,-1110.3306 207,-1110.3306"/>
<polygon fill="#f5f5f5" stroke="transparent" points="207.5,-1147.8306 207.5,-1170.8306 354.5,-1170.8306 354.5,-1147.8306 207.5,-1147.8306"/>
<polygon fill="none" stroke="#000000" points="207.5,-1147.8306 207.5,-1170.8306 354.5,-1170.8306 354.5,-1147.8306 207.5,-1147.8306"/>
<text text-anchor="start" x="212.5" y="-1156.4306" font-family="Helvetica,sans-Serif" font-weight="bold" font-size="11.00" fill="#000000">AspNetUserLogins</text>
<text text-anchor="start" x="320.0219" y="-1155.9306" font-family="Helvetica,sans-Serif" font-size="11.00" fill="#000000">[table]</text>
<polygon fill="none" stroke="#000000" points="207.5,-1128.8306 207.5,-1147.8306 354.5,-1147.8306 354.5,-1128.8306 207.5,-1128.8306"/>
<text text-anchor="start" x="210.5" y="-1134.9306" font-family="Helvetica,sans-Serif" font-size="11.00" fill="#000000">...</text>
<polygon fill="#ffffff" stroke="transparent" points="207.5,-1109.8306 207.5,-1128.8306 266.5,-1128.8306 266.5,-1109.8306 207.5,-1109.8306"/>
<polygon fill="none" stroke="#000000" points="207.5,-1109.8306 207.5,-1128.8306 266.5,-1128.8306 266.5,-1109.8306 207.5,-1109.8306"/>
<text text-anchor="start" x="210.5" y="-1115.9306" font-family="Helvetica,sans-Serif" font-size="11.00" fill="#000000">&lt; 1</text>
<polygon fill="#ffffff" stroke="transparent" points="266.5,-1109.8306 266.5,-1128.8306 323.5,-1128.8306 323.5,-1109.8306 266.5,-1109.8306"/>
<polygon fill="none" stroke="#000000" points="266.5,-1109.8306 266.5,-1128.8306 323.5,-1128.8306 323.5,-1109.8306 266.5,-1109.8306"/>
<text text-anchor="start" x="288.1105" y="-1115.9306" font-family="Helvetica,sans-Serif" font-size="11.00" fill="#000000">0 rows</text>
<polygon fill="#ffffff" stroke="transparent" points="323.5,-1109.8306 323.5,-1128.8306 354.5,-1128.8306 354.5,-1109.8306 323.5,-1109.8306"/>
<polygon fill="none" stroke="#000000" points="323.5,-1109.8306 323.5,-1128.8306 354.5,-1128.8306 354.5,-1109.8306 323.5,-1109.8306"/>
<text text-anchor="start" x="345.3862" y="-1115.9306" font-family="Helvetica,sans-Serif" font-size="11.00" fill="#000000"> &#160;</text>
</a>
</g>
</g>
<!-- AspNetUserLogins&#45;&gt;AspNetUsers -->
<g id="edge2" class="edge">
<title>AspNetUserLogins:w&#45;&gt;AspNetUsers:e</title>
<path fill="none" stroke="#000000" d="M193.0459,-1135.7191C178.6135,-1130.7893 172.8895,-1117.5799 163,-1099.8306 104.319,-994.5122 74.988,-615.115 67.1762,-497.7073"/>
<polygon fill="#000000" stroke="#000000" points="199.584,-1136.6742 206.9796,-1141.3928 203.542,-1137.2524 207.5,-1137.8306 207.5,-1137.8306 207.5,-1137.8306 203.542,-1137.2524 208.0204,-1134.2684 199.584,-1136.6742 199.584,-1136.6742"/>
<ellipse fill="none" stroke="#000000" cx="196.4176" cy="-1136.2116" rx="3.2" ry="3.2"/>
</g>
<!-- AspNetUserRoles -->
<g id="node4" class="node">
<title>AspNetUserRoles</title>
<g id="a_node4"><a xlink:href="../../tables/AspNetUserRoles.html" xlink:title="AspNetUserRoles" target="_top">
<polygon fill="#ffffff" stroke="transparent" points="210.5,-1028.3306 210.5,-1089.3306 350.5,-1089.3306 350.5,-1028.3306 210.5,-1028.3306"/>
<polygon fill="#f5f5f5" stroke="transparent" points="210.5,-1065.8306 210.5,-1088.8306 350.5,-1088.8306 350.5,-1065.8306 210.5,-1065.8306"/>
<polygon fill="none" stroke="#000000" points="210.5,-1065.8306 210.5,-1088.8306 350.5,-1088.8306 350.5,-1065.8306 210.5,-1065.8306"/>
<text text-anchor="start" x="215.5" y="-1074.4306" font-family="Helvetica,sans-Serif" font-weight="bold" font-size="11.00" fill="#000000">AspNetUserRoles</text>
<text text-anchor="start" x="316.0219" y="-1073.9306" font-family="Helvetica,sans-Serif" font-size="11.00" fill="#000000">[table]</text>
<polygon fill="none" stroke="#000000" points="210.5,-1046.8306 210.5,-1065.8306 350.5,-1065.8306 350.5,-1046.8306 210.5,-1046.8306"/>
<text text-anchor="start" x="213.5" y="-1052.9306" font-family="Helvetica,sans-Serif" font-size="11.00" fill="#000000">...</text>
<polygon fill="#ffffff" stroke="transparent" points="210.5,-1027.8306 210.5,-1046.8306 268.5,-1046.8306 268.5,-1027.8306 210.5,-1027.8306"/>
<polygon fill="none" stroke="#000000" points="210.5,-1027.8306 210.5,-1046.8306 268.5,-1046.8306 268.5,-1027.8306 210.5,-1027.8306"/>
<text text-anchor="start" x="213.5" y="-1033.9306" font-family="Helvetica,sans-Serif" font-size="11.00" fill="#000000">&lt; 2</text>
<polygon fill="#ffffff" stroke="transparent" points="268.5,-1027.8306 268.5,-1046.8306 319.5,-1046.8306 319.5,-1027.8306 268.5,-1027.8306"/>
<polygon fill="none" stroke="#000000" points="268.5,-1027.8306 268.5,-1046.8306 319.5,-1046.8306 319.5,-1027.8306 268.5,-1027.8306"/>
<text text-anchor="start" x="289.6105" y="-1033.9306" font-family="Helvetica,sans-Serif" font-size="11.00" fill="#000000">1 row</text>
<polygon fill="#ffffff" stroke="transparent" points="319.5,-1027.8306 319.5,-1046.8306 350.5,-1046.8306 350.5,-1027.8306 319.5,-1027.8306"/>
<polygon fill="none" stroke="#000000" points="319.5,-1027.8306 319.5,-1046.8306 350.5,-1046.8306 350.5,-1027.8306 319.5,-1027.8306"/>
<text text-anchor="start" x="341.3862" y="-1033.9306" font-family="Helvetica,sans-Serif" font-size="11.00" fill="#000000"> &#160;</text>
</a>
</g>
</g>
<!-- AspNetUserRoles&#45;&gt;AspNetUsers -->
<g id="edge3" class="edge">
<title>AspNetUserRoles:w&#45;&gt;AspNetUsers:e</title>
<path fill="none" stroke="#000000" d="M196.0894,-1053.5016C92.7792,-1019.3521 70.4328,-619.3628 66.0123,-497.7116"/>
<polygon fill="#000000" stroke="#000000" points="202.6025,-1054.5542 209.9256,-1059.3845 206.5512,-1055.1924 210.5,-1055.8306 210.5,-1055.8306 210.5,-1055.8306 206.5512,-1055.1924 211.0744,-1052.2768 202.6025,-1054.5542 202.6025,-1054.5542"/>
<ellipse fill="none" stroke="#000000" cx="199.4435" cy="-1054.0436" rx="3.2" ry="3.2"/>
</g>
<!-- AspNetUserTokens -->
<g id="node5" class="node">
<title>AspNetUserTokens</title>
<g id="a_node5"><a xlink:href="../../tables/AspNetUserTokens.html" xlink:title="AspNetUserTokens" target="_top">
<polygon fill="#ffffff" stroke="transparent" points="206,-946.3306 206,-1007.3306 355,-1007.3306 355,-946.3306 206,-946.3306"/>
<polygon fill="#f5f5f5" stroke="transparent" points="206.5,-983.8306 206.5,-1006.8306 355.5,-1006.8306 355.5,-983.8306 206.5,-983.8306"/>
<polygon fill="none" stroke="#000000" points="206.5,-983.8306 206.5,-1006.8306 355.5,-1006.8306 355.5,-983.8306 206.5,-983.8306"/>
<text text-anchor="start" x="211.5" y="-992.4306" font-family="Helvetica,sans-Serif" font-weight="bold" font-size="11.00" fill="#000000">AspNetUserTokens</text>
<text text-anchor="start" x="321.0219" y="-991.9306" font-family="Helvetica,sans-Serif" font-size="11.00" fill="#000000">[table]</text>
<polygon fill="none" stroke="#000000" points="206.5,-964.8306 206.5,-983.8306 355.5,-983.8306 355.5,-964.8306 206.5,-964.8306"/>
<text text-anchor="start" x="209.5" y="-970.9306" font-family="Helvetica,sans-Serif" font-size="11.00" fill="#000000">...</text>
<polygon fill="#ffffff" stroke="transparent" points="206.5,-945.8306 206.5,-964.8306 266.5,-964.8306 266.5,-945.8306 206.5,-945.8306"/>
<polygon fill="none" stroke="#000000" points="206.5,-945.8306 206.5,-964.8306 266.5,-964.8306 266.5,-945.8306 206.5,-945.8306"/>
<text text-anchor="start" x="209.5" y="-951.9306" font-family="Helvetica,sans-Serif" font-size="11.00" fill="#000000">&lt; 1</text>
<polygon fill="#ffffff" stroke="transparent" points="266.5,-945.8306 266.5,-964.8306 323.5,-964.8306 323.5,-945.8306 266.5,-945.8306"/>
<polygon fill="none" stroke="#000000" points="266.5,-945.8306 266.5,-964.8306 323.5,-964.8306 323.5,-945.8306 266.5,-945.8306"/>
<text text-anchor="start" x="288.1105" y="-951.9306" font-family="Helvetica,sans-Serif" font-size="11.00" fill="#000000">0 rows</text>
<polygon fill="#ffffff" stroke="transparent" points="323.5,-945.8306 323.5,-964.8306 355.5,-964.8306 355.5,-945.8306 323.5,-945.8306"/>
<polygon fill="none" stroke="#000000" points="323.5,-945.8306 323.5,-964.8306 355.5,-964.8306 355.5,-945.8306 323.5,-945.8306"/>
<text text-anchor="start" x="346.3862" y="-951.9306" font-family="Helvetica,sans-Serif" font-size="11.00" fill="#000000"> &#160;</text>
</a>
</g>
</g>
<!-- AspNetUserTokens&#45;&gt;AspNetUsers -->
<g id="edge4" class="edge">
<title>AspNetUserTokens:w&#45;&gt;AspNetUsers:e</title>
<path fill="none" stroke="#000000" d="M192.1873,-971.2173C104.2505,-938.456 74.5314,-606.8363 67.0837,-497.552"/>
<polygon fill="#000000" stroke="#000000" points="198.6301,-972.3936 205.8534,-977.3721 202.5651,-973.1121 206.5,-973.8306 206.5,-973.8306 206.5,-973.8306 202.5651,-973.1121 207.1466,-970.2892 198.6301,-972.3936 198.6301,-972.3936"/>
<ellipse fill="none" stroke="#000000" cx="195.4822" cy="-971.8189" rx="3.2" ry="3.2"/>
</g>
<!-- Competencies -->
<g id="node6" class="node">
<title>Competencies</title>
<g id="a_node6"><a xlink:href="../../tables/Competencies.html" xlink:title="Competencies" target="_top">
<polygon fill="#ffffff" stroke="transparent" points="171,-602.8306 171,-846.8306 390,-846.8306 390,-602.8306 171,-602.8306"/>
<polygon fill="#f5f5f5" stroke="transparent" points="173.5,-821.8306 173.5,-844.8306 388.5,-844.8306 388.5,-821.8306 173.5,-821.8306"/>
<polygon fill="none" stroke="#000000" points="173.5,-821.8306 173.5,-844.8306 388.5,-844.8306 388.5,-821.8306 173.5,-821.8306"/>
<text text-anchor="start" x="178.5" y="-830.4306" font-family="Helvetica,sans-Serif" font-weight="bold" font-size="11.00" fill="#000000">Competencies</text>
<text text-anchor="start" x="353.5437" y="-829.9306" font-family="Helvetica,sans-Serif" font-size="11.00" fill="#000000">[table]</text>
<polygon fill="none" stroke="#000000" points="173.5,-799.8306 173.5,-821.8306 294.5,-821.8306 294.5,-799.8306 173.5,-799.8306"/>
<image xlink:href="../../images/primaryKeys.png" width="11px" height="12px" preserveAspectRatio="xMinYMin meet" x="178.5" y="-816.831"/>
<text text-anchor="start" x="193.5" y="-806.9306" font-family="Helvetica,sans-Serif" font-size="11.00" fill="#000000">Id</text>
<polygon fill="none" stroke="#000000" points="294.5,-799.8306 294.5,-821.8306 388.5,-821.8306 388.5,-799.8306 294.5,-799.8306"/>
<text text-anchor="start" x="297.4758" y="-807.5306" font-family="Helvetica,sans-Serif" font-size="11.00" fill="#000000">uuid[2147483647]</text>
<polygon fill="none" stroke="#000000" points="173.5,-777.8306 173.5,-799.8306 294.5,-799.8306 294.5,-777.8306 173.5,-777.8306"/>
<text text-anchor="start" x="193.5" y="-784.9306" font-family="Helvetica,sans-Serif" font-size="11.00" fill="#000000">Name</text>
<polygon fill="none" stroke="#000000" points="294.5,-777.8306 294.5,-799.8306 388.5,-799.8306 388.5,-777.8306 294.5,-777.8306"/>
<text text-anchor="start" x="297.5" y="-785.5306" font-family="Helvetica,sans-Serif" font-size="11.00" fill="#000000">text[2147483647]</text>
<polygon fill="none" stroke="#000000" points="173.5,-755.8306 173.5,-777.8306 294.5,-777.8306 294.5,-755.8306 173.5,-755.8306"/>
<text text-anchor="start" x="193.5" y="-762.9306" font-family="Helvetica,sans-Serif" font-size="11.00" fill="#000000">Description</text>
<polygon fill="none" stroke="#000000" points="294.5,-755.8306 294.5,-777.8306 388.5,-777.8306 388.5,-755.8306 294.5,-755.8306"/>
<text text-anchor="start" x="297.5" y="-763.5306" font-family="Helvetica,sans-Serif" font-size="11.00" fill="#000000">text[2147483647]</text>
<polygon fill="none" stroke="#000000" points="173.5,-733.8306 173.5,-755.8306 294.5,-755.8306 294.5,-733.8306 173.5,-733.8306"/>
<text text-anchor="start" x="193.5" y="-740.9306" font-family="Helvetica,sans-Serif" font-size="11.00" fill="#000000">Type</text>
<polygon fill="none" stroke="#000000" points="294.5,-733.8306 294.5,-755.8306 388.5,-755.8306 388.5,-733.8306 294.5,-733.8306"/>
<text text-anchor="start" x="297.5" y="-741.5306" font-family="Helvetica,sans-Serif" font-size="11.00" fill="#000000">int4[10]</text>
<polygon fill="none" stroke="#000000" points="173.5,-711.8306 173.5,-733.8306 294.5,-733.8306 294.5,-711.8306 173.5,-711.8306"/>
<text text-anchor="start" x="193.5" y="-718.9306" font-family="Helvetica,sans-Serif" font-size="11.00" fill="#000000">IsActive</text>
<polygon fill="none" stroke="#000000" points="294.5,-711.8306 294.5,-733.8306 388.5,-733.8306 388.5,-711.8306 294.5,-711.8306"/>
<text text-anchor="start" x="297.5" y="-719.5306" font-family="Helvetica,sans-Serif" font-size="11.00" fill="#000000">bool[1]</text>
<polygon fill="none" stroke="#000000" points="173.5,-689.8306 173.5,-711.8306 294.5,-711.8306 294.5,-689.8306 173.5,-689.8306"/>
<text text-anchor="start" x="193.5" y="-696.9306" font-family="Helvetica,sans-Serif" font-size="11.00" fill="#000000">CreatedAt</text>
<polygon fill="none" stroke="#000000" points="294.5,-689.8306 294.5,-711.8306 388.5,-711.8306 388.5,-689.8306 294.5,-689.8306"/>
<text text-anchor="start" x="297.5" y="-697.5306" font-family="Helvetica,sans-Serif" font-size="11.00" fill="#000000">timestamptz[35,6]</text>
<polygon fill="none" stroke="#000000" points="173.5,-667.8306 173.5,-689.8306 294.5,-689.8306 294.5,-667.8306 173.5,-667.8306"/>
<text text-anchor="start" x="193.5" y="-674.9306" font-family="Helvetica,sans-Serif" font-size="11.00" fill="#000000">UpdatedAt</text>
<polygon fill="none" stroke="#000000" points="294.5,-667.8306 294.5,-689.8306 388.5,-689.8306 388.5,-667.8306 294.5,-667.8306"/>
<text text-anchor="start" x="297.5" y="-675.5306" font-family="Helvetica,sans-Serif" font-size="11.00" fill="#000000">timestamptz[35,6]</text>
<polygon fill="#ffffff" stroke="transparent" points="173.5,-645.8306 173.5,-667.8306 294.5,-667.8306 294.5,-645.8306 173.5,-645.8306"/>
<polygon fill="none" stroke="#000000" points="173.5,-645.8306 173.5,-667.8306 294.5,-667.8306 294.5,-645.8306 173.5,-645.8306"/>
<image xlink:href="../../images/foreignKeys.png" width="11px" height="12px" preserveAspectRatio="xMinYMin meet" x="178.5" y="-662.831"/>
<text text-anchor="start" x="193.5" y="-652.9306" font-family="Helvetica,sans-Serif" font-size="11.00" fill="#000000">CreatedByUserId</text>
<polygon fill="none" stroke="#000000" points="294.5,-645.8306 294.5,-667.8306 388.5,-667.8306 388.5,-645.8306 294.5,-645.8306"/>
<text text-anchor="start" x="297.5" y="-653.5306" font-family="Helvetica,sans-Serif" font-size="11.00" fill="#000000">text[2147483647]</text>
<polygon fill="#ffffff" stroke="transparent" points="173.5,-623.8306 173.5,-645.8306 294.5,-645.8306 294.5,-623.8306 173.5,-623.8306"/>
<polygon fill="none" stroke="#000000" points="173.5,-623.8306 173.5,-645.8306 294.5,-645.8306 294.5,-623.8306 173.5,-623.8306"/>
<image xlink:href="../../images/foreignKeys.png" width="11px" height="12px" preserveAspectRatio="xMinYMin meet" x="178.5" y="-640.831"/>
<text text-anchor="start" x="193.5" y="-630.9306" font-family="Helvetica,sans-Serif" font-size="11.00" fill="#000000">UpdatedByUserId</text>
<polygon fill="none" stroke="#000000" points="294.5,-623.8306 294.5,-645.8306 388.5,-645.8306 388.5,-623.8306 294.5,-623.8306"/>
<text text-anchor="start" x="297.5" y="-631.5306" font-family="Helvetica,sans-Serif" font-size="11.00" fill="#000000">text[2147483647]</text>
<polygon fill="#ffffff" stroke="transparent" points="173.5,-604.8306 173.5,-623.8306 225.5,-623.8306 225.5,-604.8306 173.5,-604.8306"/>
<polygon fill="none" stroke="#000000" points="173.5,-604.8306 173.5,-623.8306 225.5,-623.8306 225.5,-604.8306 173.5,-604.8306"/>
<text text-anchor="start" x="176.5" y="-610.9306" font-family="Helvetica,sans-Serif" font-size="11.00" fill="#000000">&lt; 2</text>
<polygon fill="#ffffff" stroke="transparent" points="225.5,-604.8306 225.5,-623.8306 294.5,-623.8306 294.5,-604.8306 225.5,-604.8306"/>
<polygon fill="none" stroke="#000000" points="225.5,-604.8306 225.5,-623.8306 294.5,-623.8306 294.5,-604.8306 225.5,-604.8306"/>
<text text-anchor="start" x="259.1105" y="-610.9306" font-family="Helvetica,sans-Serif" font-size="11.00" fill="#000000">5 rows</text>
<polygon fill="#ffffff" stroke="transparent" points="294.5,-604.8306 294.5,-623.8306 388.5,-623.8306 388.5,-604.8306 294.5,-604.8306"/>
<polygon fill="none" stroke="#000000" points="294.5,-604.8306 294.5,-623.8306 388.5,-623.8306 388.5,-604.8306 294.5,-604.8306"/>
<text text-anchor="start" x="369.9053" y="-610.9306" font-family="Helvetica,sans-Serif" font-size="11.00" fill="#000000">4 &gt;</text>
<polygon fill="none" stroke="#000000" stroke-width="2" points="172,-603.8306 172,-845.8306 389,-845.8306 389,-603.8306 172,-603.8306"/>
</a>
</g>
</g>
<!-- Competencies&#45;&gt;AspNetUsers -->
<g id="edge5" class="edge">
<title>Competencies:w&#45;&gt;AspNetUsers:e</title>
<path fill="none" stroke="#000000" d="M158.9722,-655.3479C97.9546,-642.5097 76.1403,-549.3917 68.6702,-497.5139"/>
<polygon fill="#000000" stroke="#000000" points="165.5413,-656.0183 173.1345,-660.412 169.5207,-656.4245 173.5,-656.8306 173.5,-656.8306 173.5,-656.8306 169.5207,-656.4245 173.8655,-653.2492 165.5413,-656.0183 165.5413,-656.0183"/>
<ellipse fill="none" stroke="#000000" cx="162.3579" cy="-655.6934" rx="3.2" ry="3.2"/>
</g>
<!-- Competencies&#45;&gt;AspNetUsers -->
<g id="edge6" class="edge">
<title>Competencies:w&#45;&gt;AspNetUsers:e</title>
<path fill="none" stroke="#000000" d="M159.0993,-633.2978C105.0143,-621.471 80.6791,-543.9698 70.8492,-497.6374"/>
<polygon fill="#000000" stroke="#000000" points="165.5449,-633.9838 173.1189,-638.4104 169.5225,-634.4072 173.5,-634.8306 173.5,-634.8306 173.5,-634.8306 169.5225,-634.4072 173.8811,-631.2509 165.5449,-633.9838 165.5449,-633.9838"/>
<ellipse fill="none" stroke="#000000" cx="162.3629" cy="-633.6451" rx="3.2" ry="3.2"/>
</g>
<!-- CompetencyLevelDescriptions -->
<g id="node7" class="node">
<title>CompetencyLevelDescriptions</title>
<g id="a_node7"><a xlink:href="../../tables/CompetencyLevelDescriptions.html" xlink:title="CompetencyLevelDescriptions" target="_top">
<polygon fill="#ffffff" stroke="transparent" points="439,-885.3306 439,-946.3306 653,-946.3306 653,-885.3306 439,-885.3306"/>
<polygon fill="#f5f5f5" stroke="transparent" points="439,-922.8306 439,-945.8306 653,-945.8306 653,-922.8306 439,-922.8306"/>
<polygon fill="none" stroke="#000000" points="439,-922.8306 439,-945.8306 653,-945.8306 653,-922.8306 439,-922.8306"/>
<text text-anchor="start" x="444" y="-931.4306" font-family="Helvetica,sans-Serif" font-weight="bold" font-size="11.00" fill="#000000">CompetencyLevelDescriptions</text>
<text text-anchor="start" x="618.5219" y="-930.9306" font-family="Helvetica,sans-Serif" font-size="11.00" fill="#000000">[table]</text>
<polygon fill="none" stroke="#000000" points="439,-903.8306 439,-922.8306 653,-922.8306 653,-903.8306 439,-903.8306"/>
<text text-anchor="start" x="442" y="-909.9306" font-family="Helvetica,sans-Serif" font-size="11.00" fill="#000000">...</text>
<polygon fill="#ffffff" stroke="transparent" points="439,-884.8306 439,-903.8306 528,-903.8306 528,-884.8306 439,-884.8306"/>
<polygon fill="none" stroke="#000000" points="439,-884.8306 439,-903.8306 528,-903.8306 528,-884.8306 439,-884.8306"/>
<text text-anchor="start" x="442" y="-890.9306" font-family="Helvetica,sans-Serif" font-size="11.00" fill="#000000">&lt; 3</text>
<polygon fill="#ffffff" stroke="transparent" points="528,-884.8306 528,-903.8306 606,-903.8306 606,-884.8306 528,-884.8306"/>
<polygon fill="none" stroke="#000000" points="528,-884.8306 528,-903.8306 606,-903.8306 606,-884.8306 528,-884.8306"/>
<text text-anchor="start" x="564.4956" y="-890.9306" font-family="Helvetica,sans-Serif" font-size="11.00" fill="#000000">20 rows</text>
<polygon fill="#ffffff" stroke="transparent" points="606,-884.8306 606,-903.8306 653,-903.8306 653,-884.8306 606,-884.8306"/>
<polygon fill="none" stroke="#000000" points="606,-884.8306 606,-903.8306 653,-903.8306 653,-884.8306 606,-884.8306"/>
<text text-anchor="start" x="643.8862" y="-890.9306" font-family="Helvetica,sans-Serif" font-size="11.00" fill="#000000"> &#160;</text>
</a>
</g>
</g>
<!-- CompetencyLevelDescriptions&#45;&gt;AspNetUsers -->
<g id="edge8" class="edge">
<title>CompetencyLevelDescriptions:w&#45;&gt;AspNetUsers:e</title>
<path fill="none" stroke="#000000" d="M415.9584,-915.2061C319.9876,-914.3816 199.9242,-907.8767 163,-875.8306 105.2395,-825.7009 77.1838,-587.7301 68.2656,-497.5277"/>
<polygon fill="#000000" stroke="#000000" points="422.5335,-915.2443 430.5124,-918.8908 426.5334,-915.2676 430.5333,-915.2909 430.5333,-915.2909 430.5333,-915.2909 426.5334,-915.2676 430.5543,-911.691 422.5335,-915.2443 422.5335,-915.2443"/>
<ellipse fill="none" stroke="#000000" cx="419.3335" cy="-915.2257" rx="3.2" ry="3.2"/>
</g>
<!-- CompetencyLevelDescriptions&#45;&gt;AspNetUsers -->
<g id="edge9" class="edge">
<title>CompetencyLevelDescriptions:w&#45;&gt;AspNetUsers:e</title>
<path fill="none" stroke="#000000" d="M415.9584,-925.7708C319.9876,-927.3816 199.9242,-920.8767 163,-888.8306 103.8995,-837.5379 75.8981,-589.5876 67.6757,-497.3678"/>
<polygon fill="#000000" stroke="#000000" points="422.5351,-925.631 430.6099,-929.0601 426.5342,-925.546 430.5333,-925.4609 430.5333,-925.4609 430.5333,-925.4609 426.5342,-925.546 430.4568,-921.8617 422.5351,-925.631 422.5351,-925.631"/>
<ellipse fill="none" stroke="#000000" cx="419.3359" cy="-925.6991" rx="3.2" ry="3.2"/>
</g>
<!-- CompetencyLevelDescriptions&#45;&gt;Competencies -->
<g id="edge7" class="edge">
<title>CompetencyLevelDescriptions:w&#45;&gt;Competencies:e</title>
<path fill="none" stroke="#000000" d="M434.2078,-873.2609C433.1226,-872.4641 432.0528,-871.6541 431,-870.8306 405.2592,-850.6982 421.1788,-810.8306 388.5,-810.8306"/>
<polygon fill="#000000" stroke="#000000" points="439.6886,-876.8853 444.3758,-884.3009 443.0251,-879.0917 446.3615,-881.2981 446.3615,-881.2981 446.3615,-881.2981 443.0251,-879.0917 448.3473,-878.2953 439.6886,-876.8853 439.6886,-876.8853"/>
<ellipse fill="none" stroke="#000000" cx="437.0195" cy="-875.1202" rx="3.2" ry="3.2"/>
</g>
<!-- CompetencyTechnicalCareer -->
<g id="node8" class="node">
<title>CompetencyTechnicalCareer</title>
<g id="a_node8"><a xlink:href="../../tables/CompetencyTechnicalCareer.html" xlink:title="CompetencyTechnicalCareer" target="_top">
<polygon fill="#ffffff" stroke="transparent" points="444,-638.8306 444,-724.8306 648,-724.8306 648,-638.8306 444,-638.8306"/>
<polygon fill="#f5f5f5" stroke="transparent" points="444,-701.8306 444,-724.8306 648,-724.8306 648,-701.8306 444,-701.8306"/>
<polygon fill="none" stroke="#000000" points="444,-701.8306 444,-724.8306 648,-724.8306 648,-701.8306 444,-701.8306"/>
<text text-anchor="start" x="449" y="-710.4306" font-family="Helvetica,sans-Serif" font-weight="bold" font-size="11.00" fill="#000000">CompetencyTechnicalCareer</text>
<text text-anchor="start" x="613.5219" y="-709.9306" font-family="Helvetica,sans-Serif" font-size="11.00" fill="#000000">[table]</text>
<polygon fill="none" stroke="#000000" points="444,-679.8306 444,-701.8306 648,-701.8306 648,-679.8306 444,-679.8306"/>
<image xlink:href="../../images/primaryKeys.png" width="11px" height="12px" preserveAspectRatio="xMinYMin meet" x="449" y="-696.831"/>
<text text-anchor="start" x="473" y="-686.9306" font-family="Helvetica,sans-Serif" font-size="11.00" fill="#000000">CompetenciesId</text>
<polygon fill="none" stroke="#000000" points="444,-657.8306 444,-679.8306 648,-679.8306 648,-657.8306 444,-657.8306"/>
<image xlink:href="../../images/primaryKeys.png" width="11px" height="12px" preserveAspectRatio="xMinYMin meet" x="449" y="-674.831"/>
<text text-anchor="start" x="473" y="-664.9306" font-family="Helvetica,sans-Serif" font-size="11.00" fill="#000000">TechnicalCareersId</text>
<polygon fill="#ffffff" stroke="transparent" points="444,-638.8306 444,-657.8306 531,-657.8306 531,-638.8306 444,-638.8306"/>
<polygon fill="none" stroke="#000000" points="444,-638.8306 444,-657.8306 531,-657.8306 531,-638.8306 444,-638.8306"/>
<text text-anchor="start" x="447" y="-644.9306" font-family="Helvetica,sans-Serif" font-size="11.00" fill="#000000">&lt; 2</text>
<polygon fill="#ffffff" stroke="transparent" points="531,-638.8306 531,-657.8306 602,-657.8306 602,-638.8306 531,-638.8306"/>
<polygon fill="none" stroke="#000000" points="531,-638.8306 531,-657.8306 602,-657.8306 602,-638.8306 531,-638.8306"/>
<text text-anchor="start" x="566.6105" y="-644.9306" font-family="Helvetica,sans-Serif" font-size="11.00" fill="#000000">0 rows</text>
<polygon fill="#ffffff" stroke="transparent" points="602,-638.8306 602,-657.8306 648,-657.8306 648,-638.8306 602,-638.8306"/>
<polygon fill="none" stroke="#000000" points="602,-638.8306 602,-657.8306 648,-657.8306 648,-638.8306 602,-638.8306"/>
<text text-anchor="start" x="638.8862" y="-644.9306" font-family="Helvetica,sans-Serif" font-size="11.00" fill="#000000"> &#160;</text>
</a>
</g>
</g>
<!-- CompetencyTechnicalCareer&#45;&gt;Competencies -->
<g id="edge10" class="edge">
<title>CompetencyTechnicalCareer:w&#45;&gt;Competencies:e</title>
<path fill="none" stroke="#000000" d="M429.5807,-694.2926C396.5912,-713.9678 441.2933,-810.8306 388.5,-810.8306"/>
<polygon fill="#000000" stroke="#000000" points="436.2211,-692.6983 444.8405,-694.3312 440.1105,-691.7645 444,-690.8306 444,-690.8306 444,-690.8306 440.1105,-691.7645 443.1595,-687.3301 436.2211,-692.6983 436.2211,-692.6983"/>
<ellipse fill="none" stroke="#000000" cx="433.1095" cy="-693.4454" rx="3.2" ry="3.2"/>
</g>
<!-- TechnicalCareers -->
<g id="node9" class="node">
<title>TechnicalCareers</title>
<g id="a_node9"><a xlink:href="../../tables/TechnicalCareers.html" xlink:title="TechnicalCareers" target="_top">
<polygon fill="#ffffff" stroke="transparent" points="211,-493.3306 211,-554.3306 350,-554.3306 350,-493.3306 211,-493.3306"/>
<polygon fill="#f5f5f5" stroke="transparent" points="211.5,-530.8306 211.5,-553.8306 350.5,-553.8306 350.5,-530.8306 211.5,-530.8306"/>
<polygon fill="none" stroke="#000000" points="211.5,-530.8306 211.5,-553.8306 350.5,-553.8306 350.5,-530.8306 211.5,-530.8306"/>
<text text-anchor="start" x="216.5" y="-539.4306" font-family="Helvetica,sans-Serif" font-weight="bold" font-size="11.00" fill="#000000">TechnicalCareers</text>
<text text-anchor="start" x="316.0219" y="-538.9306" font-family="Helvetica,sans-Serif" font-size="11.00" fill="#000000">[table]</text>
<polygon fill="none" stroke="#000000" points="211.5,-511.8306 211.5,-530.8306 350.5,-530.8306 350.5,-511.8306 211.5,-511.8306"/>
<text text-anchor="start" x="214.5" y="-517.9306" font-family="Helvetica,sans-Serif" font-size="11.00" fill="#000000">...</text>
<polygon fill="#ffffff" stroke="transparent" points="211.5,-492.8306 211.5,-511.8306 261.5,-511.8306 261.5,-492.8306 211.5,-492.8306"/>
<polygon fill="none" stroke="#000000" points="211.5,-492.8306 211.5,-511.8306 261.5,-511.8306 261.5,-492.8306 211.5,-492.8306"/>
<text text-anchor="start" x="214.5" y="-498.9306" font-family="Helvetica,sans-Serif" font-size="11.00" fill="#000000">&lt; 2</text>
<polygon fill="#ffffff" stroke="transparent" points="261.5,-492.8306 261.5,-511.8306 314.5,-511.8306 314.5,-492.8306 261.5,-492.8306"/>
<polygon fill="none" stroke="#000000" points="261.5,-492.8306 261.5,-511.8306 314.5,-511.8306 314.5,-492.8306 261.5,-492.8306"/>
<text text-anchor="start" x="279.1105" y="-498.9306" font-family="Helvetica,sans-Serif" font-size="11.00" fill="#000000">6 rows</text>
<polygon fill="#ffffff" stroke="transparent" points="314.5,-492.8306 314.5,-511.8306 350.5,-511.8306 350.5,-492.8306 314.5,-492.8306"/>
<polygon fill="none" stroke="#000000" points="314.5,-492.8306 314.5,-511.8306 350.5,-511.8306 350.5,-492.8306 314.5,-492.8306"/>
<text text-anchor="start" x="331.9053" y="-498.9306" font-family="Helvetica,sans-Serif" font-size="11.00" fill="#000000">6 &gt;</text>
</a>
</g>
</g>
<!-- CompetencyTechnicalCareer&#45;&gt;TechnicalCareers -->
<g id="edge11" class="edge">
<title>CompetencyTechnicalCareer:w&#45;&gt;TechnicalCareers:e</title>
<path fill="none" stroke="#000000" d="M429.5869,-666.1408C407.8375,-656.1846 416.1488,-620.5185 398,-591.8306 377.7022,-559.7459 388.4662,-520.8306 350.5,-520.8306"/>
<polygon fill="#000000" stroke="#000000" points="436.1358,-667.3629 443.3395,-672.3695 440.0679,-668.0968 444,-668.8306 444,-668.8306 444,-668.8306 440.0679,-668.0968 444.6605,-665.2917 436.1358,-667.3629 436.1358,-667.3629"/>
<ellipse fill="none" stroke="#000000" cx="432.9901" cy="-666.7759" rx="3.2" ry="3.2"/>
</g>
<!-- TechnicalCareers&#45;&gt;AspNetUsers -->
<g id="edge50" class="edge">
<title>TechnicalCareers:w&#45;&gt;AspNetUsers:e</title>
<path fill="none" stroke="#000000" d="M197.1201,-518.9163C173.9652,-514.7961 150.7248,-505.9223 130.3338,-496.4007"/>
<polygon fill="#000000" stroke="#000000" points="203.57,-519.7749 211.0249,-524.3992 207.535,-520.3028 211.5,-520.8306 211.5,-520.8306 211.5,-520.8306 207.535,-520.3028 211.9751,-517.2621 203.57,-519.7749 203.57,-519.7749"/>
<ellipse fill="none" stroke="#000000" cx="200.3979" cy="-519.3526" rx="3.2" ry="3.2"/>
</g>
<!-- TechnicalCareers&#45;&gt;AspNetUsers -->
<g id="edge51" class="edge">
<title>TechnicalCareers:w&#45;&gt;AspNetUsers:e</title>
<path fill="none" stroke="#000000" d="M196.7779,-521.386C166.7115,-520.7445 136.5253,-509.7597 112.6443,-497.4202"/>
<polygon fill="#000000" stroke="#000000" points="203.5057,-521.1323 211.6357,-524.4281 207.5028,-520.9814 211.5,-520.8306 211.5,-520.8306 211.5,-520.8306 207.5028,-520.9814 211.3643,-517.2332 203.5057,-521.1323 203.5057,-521.1323"/>
<ellipse fill="none" stroke="#000000" cx="200.308" cy="-521.2529" rx="3.2" ry="3.2"/>
</g>
<!-- Coordinators -->
<g id="node10" class="node">
<title>Coordinators</title>
<g id="a_node10"><a xlink:href="../../tables/Coordinators.html" xlink:title="Coordinators" target="_top">
<polygon fill="#ffffff" stroke="transparent" points="489,-551.3306 489,-612.3306 603,-612.3306 603,-551.3306 489,-551.3306"/>
<polygon fill="#f5f5f5" stroke="transparent" points="489,-588.8306 489,-611.8306 603,-611.8306 603,-588.8306 489,-588.8306"/>
<polygon fill="none" stroke="#000000" points="489,-588.8306 489,-611.8306 603,-611.8306 603,-588.8306 489,-588.8306"/>
<text text-anchor="start" x="494" y="-597.4306" font-family="Helvetica,sans-Serif" font-weight="bold" font-size="11.00" fill="#000000">Coordinators</text>
<text text-anchor="start" x="568.5219" y="-596.9306" font-family="Helvetica,sans-Serif" font-size="11.00" fill="#000000">[table]</text>
<polygon fill="none" stroke="#000000" points="489,-569.8306 489,-588.8306 603,-588.8306 603,-569.8306 489,-569.8306"/>
<text text-anchor="start" x="492" y="-575.9306" font-family="Helvetica,sans-Serif" font-size="11.00" fill="#000000">...</text>
<polygon fill="#ffffff" stroke="transparent" points="489,-550.8306 489,-569.8306 531,-569.8306 531,-550.8306 489,-550.8306"/>
<polygon fill="none" stroke="#000000" points="489,-550.8306 489,-569.8306 531,-569.8306 531,-550.8306 489,-550.8306"/>
<text text-anchor="start" x="492" y="-556.9306" font-family="Helvetica,sans-Serif" font-size="11.00" fill="#000000">&lt; 2</text>
<polygon fill="#ffffff" stroke="transparent" points="531,-550.8306 531,-569.8306 580,-569.8306 580,-550.8306 531,-550.8306"/>
<polygon fill="none" stroke="#000000" points="531,-550.8306 531,-569.8306 580,-569.8306 580,-550.8306 531,-550.8306"/>
<text text-anchor="start" x="544.6105" y="-556.9306" font-family="Helvetica,sans-Serif" font-size="11.00" fill="#000000">0 rows</text>
<polygon fill="#ffffff" stroke="transparent" points="580,-550.8306 580,-569.8306 603,-569.8306 603,-550.8306 580,-550.8306"/>
<polygon fill="none" stroke="#000000" points="580,-550.8306 580,-569.8306 603,-569.8306 603,-550.8306 580,-550.8306"/>
<text text-anchor="start" x="593.8862" y="-556.9306" font-family="Helvetica,sans-Serif" font-size="11.00" fill="#000000"> &#160;</text>
</a>
</g>
</g>
<!-- Coordinators&#45;&gt;AspNetUsers -->
<g id="edge13" class="edge">
<title>Coordinators:w&#45;&gt;AspNetUsers:e</title>
<path fill="none" stroke="#000000" d="M478.5538,-578.921C399.8966,-580.1618 226.117,-593.3322 163,-564.8306 131.4426,-550.5803 104.9184,-521.0849 87.4562,-497.4608"/>
<polygon fill="#000000" stroke="#000000" points="488.1654,-574.8377 488.2347,-582.8374 486.6347,-582.8513 486.5655,-574.8516 488.1654,-574.8377"/>
<polyline fill="none" stroke="#000000" points="489,-578.8306 485.0001,-578.8653 "/>
<ellipse fill="none" stroke="#000000" cx="481.8003" cy="-578.893" rx="3.2" ry="3.2"/>
</g>
<!-- Coordinators&#45;&gt;TechnicalCareers -->
<g id="edge12" class="edge">
<title>Coordinators:w&#45;&gt;TechnicalCareers:e</title>
<path fill="none" stroke="#000000" d="M474.43,-577.8239C421.1023,-570.1221 412.0215,-520.8306 350.5,-520.8306"/>
<polygon fill="#000000" stroke="#000000" points="481.019,-578.2791 488.7518,-582.4221 485.0095,-578.5549 489,-578.8306 489,-578.8306 489,-578.8306 485.0095,-578.5549 489.2482,-575.2392 481.019,-578.2791 481.019,-578.2791"/>
<ellipse fill="none" stroke="#000000" cx="477.8266" cy="-578.0586" rx="3.2" ry="3.2"/>
</g>
<!-- EvaluationPeriods -->
<g id="node11" class="node">
<title>EvaluationPeriods</title>
<g id="a_node11"><a xlink:href="../../tables/EvaluationPeriods.html" xlink:title="EvaluationPeriods" target="_top">
<polygon fill="#ffffff" stroke="transparent" points="474.5,-293.3306 474.5,-354.3306 617.5,-354.3306 617.5,-293.3306 474.5,-293.3306"/>
<polygon fill="#f5f5f5" stroke="transparent" points="475,-330.8306 475,-353.8306 618,-353.8306 618,-330.8306 475,-330.8306"/>
<polygon fill="none" stroke="#000000" points="475,-330.8306 475,-353.8306 618,-353.8306 618,-330.8306 475,-330.8306"/>
<text text-anchor="start" x="480" y="-339.4306" font-family="Helvetica,sans-Serif" font-weight="bold" font-size="11.00" fill="#000000">EvaluationPeriods</text>
<text text-anchor="start" x="583.5219" y="-338.9306" font-family="Helvetica,sans-Serif" font-size="11.00" fill="#000000">[table]</text>
<polygon fill="none" stroke="#000000" points="475,-311.8306 475,-330.8306 618,-330.8306 618,-311.8306 475,-311.8306"/>
<text text-anchor="start" x="478" y="-317.9306" font-family="Helvetica,sans-Serif" font-size="11.00" fill="#000000">...</text>
<polygon fill="#ffffff" stroke="transparent" points="475,-292.8306 475,-311.8306 527,-311.8306 527,-292.8306 475,-292.8306"/>
<polygon fill="none" stroke="#000000" points="475,-292.8306 475,-311.8306 527,-311.8306 527,-292.8306 475,-292.8306"/>
<text text-anchor="start" x="478" y="-298.9306" font-family="Helvetica,sans-Serif" font-size="11.00" fill="#000000">&lt; 2</text>
<polygon fill="#ffffff" stroke="transparent" points="527,-292.8306 527,-311.8306 581,-311.8306 581,-292.8306 527,-292.8306"/>
<polygon fill="none" stroke="#000000" points="527,-292.8306 527,-311.8306 581,-311.8306 581,-292.8306 527,-292.8306"/>
<text text-anchor="start" x="545.6105" y="-298.9306" font-family="Helvetica,sans-Serif" font-size="11.00" fill="#000000">0 rows</text>
<polygon fill="#ffffff" stroke="transparent" points="581,-292.8306 581,-311.8306 618,-311.8306 618,-292.8306 581,-292.8306"/>
<polygon fill="none" stroke="#000000" points="581,-292.8306 581,-311.8306 618,-311.8306 618,-292.8306 581,-292.8306"/>
<text text-anchor="start" x="599.4053" y="-298.9306" font-family="Helvetica,sans-Serif" font-size="11.00" fill="#000000">3 &gt;</text>
</a>
</g>
</g>
<!-- EvaluationPeriods&#45;&gt;AspNetUsers -->
<g id="edge14" class="edge">
<title>EvaluationPeriods:w&#45;&gt;AspNetUsers:e</title>
<path fill="none" stroke="#000000" d="M460.2933,-320.0145C332.4749,-311.3499 281.6033,-266.9177 163,-328.8306 122.683,-349.8768 94.0628,-395.7789 78.5348,-428.0361"/>
<polygon fill="#000000" stroke="#000000" points="467.0123,-320.3873 474.8005,-324.4251 471.0061,-320.609 475,-320.8306 475,-320.8306 475,-320.8306 471.0061,-320.609 475.1995,-317.2362 467.0123,-320.3873 467.0123,-320.3873"/>
<ellipse fill="none" stroke="#000000" cx="463.8172" cy="-320.21" rx="3.2" ry="3.2"/>
</g>
<!-- EvaluationPeriods&#45;&gt;AspNetUsers -->
<g id="edge15" class="edge">
<title>EvaluationPeriods:w&#45;&gt;AspNetUsers:e</title>
<path fill="none" stroke="#000000" d="M460.2933,-321.3734C332.4749,-324.3499 281.6033,-279.9177 163,-341.8306 126.9008,-360.675 100.1791,-399.4468 83.8365,-428.1216"/>
<polygon fill="#000000" stroke="#000000" points="467.0054,-321.1257 475.1328,-324.4282 471.0027,-320.9782 475,-320.8306 475,-320.8306 475,-320.8306 471.0027,-320.9782 474.8672,-317.2331 467.0054,-321.1257 467.0054,-321.1257"/>
<ellipse fill="none" stroke="#000000" cx="463.8076" cy="-321.2437" rx="3.2" ry="3.2"/>
</g>
<!-- FormQuestions -->
<g id="node12" class="node">
<title>FormQuestions</title>
<g id="a_node12"><a xlink:href="../../tables/FormQuestions.html" xlink:title="FormQuestions" target="_top">
<polygon fill="#ffffff" stroke="transparent" points="482.5,-799.3306 482.5,-860.3306 609.5,-860.3306 609.5,-799.3306 482.5,-799.3306"/>
<polygon fill="#f5f5f5" stroke="transparent" points="483,-836.8306 483,-859.8306 610,-859.8306 610,-836.8306 483,-836.8306"/>
<polygon fill="none" stroke="#000000" points="483,-836.8306 483,-859.8306 610,-859.8306 610,-836.8306 483,-836.8306"/>
<text text-anchor="start" x="488" y="-845.4306" font-family="Helvetica,sans-Serif" font-weight="bold" font-size="11.00" fill="#000000">FormQuestions</text>
<text text-anchor="start" x="575.5219" y="-844.9306" font-family="Helvetica,sans-Serif" font-size="11.00" fill="#000000">[table]</text>
<polygon fill="none" stroke="#000000" points="483,-817.8306 483,-836.8306 610,-836.8306 610,-817.8306 483,-817.8306"/>
<text text-anchor="start" x="486" y="-823.9306" font-family="Helvetica,sans-Serif" font-size="11.00" fill="#000000">...</text>
<polygon fill="#ffffff" stroke="transparent" points="483,-798.8306 483,-817.8306 527,-817.8306 527,-798.8306 483,-798.8306"/>
<polygon fill="none" stroke="#000000" points="483,-798.8306 483,-817.8306 527,-817.8306 527,-798.8306 483,-798.8306"/>
<text text-anchor="start" x="486" y="-804.9306" font-family="Helvetica,sans-Serif" font-size="11.00" fill="#000000">&lt; 3</text>
<polygon fill="#ffffff" stroke="transparent" points="527,-798.8306 527,-817.8306 577,-817.8306 577,-798.8306 527,-798.8306"/>
<polygon fill="none" stroke="#000000" points="527,-798.8306 527,-817.8306 577,-817.8306 577,-798.8306 527,-798.8306"/>
<text text-anchor="start" x="541.6105" y="-804.9306" font-family="Helvetica,sans-Serif" font-size="11.00" fill="#000000">0 rows</text>
<polygon fill="#ffffff" stroke="transparent" points="577,-798.8306 577,-817.8306 610,-817.8306 610,-798.8306 577,-798.8306"/>
<polygon fill="none" stroke="#000000" points="577,-798.8306 577,-817.8306 610,-817.8306 610,-798.8306 577,-798.8306"/>
<text text-anchor="start" x="591.4053" y="-804.9306" font-family="Helvetica,sans-Serif" font-size="11.00" fill="#000000">1 &gt;</text>
</a>
</g>
</g>
<!-- FormQuestions&#45;&gt;AspNetUsers -->
<g id="edge17" class="edge">
<title>FormQuestions:w&#45;&gt;AspNetUsers:e</title>
<path fill="none" stroke="#000000" d="M459.9973,-844.5841C361.3794,-862.4463 207.565,-885.6688 163,-850.8306 106.5653,-806.7135 77.9685,-584.292 68.5796,-497.5059"/>
<polygon fill="#000000" stroke="#000000" points="466.5578,-843.3819 475.0757,-845.4807 470.4922,-842.6608 474.4267,-841.9397 474.4267,-841.9397 474.4267,-841.9397 470.4922,-842.6608 473.7778,-838.3987 466.5578,-843.3819 466.5578,-843.3819"/>
<ellipse fill="none" stroke="#000000" cx="463.4102" cy="-843.9587" rx="3.2" ry="3.2"/>
</g>
<!-- FormQuestions&#45;&gt;AspNetUsers -->
<g id="edge18" class="edge">
<title>FormQuestions:w&#45;&gt;AspNetUsers:e</title>
<path fill="none" stroke="#000000" d="M460.3005,-853.7294C361.695,-875.3986 207.6107,-898.7045 163,-863.8306 105.177,-818.6282 76.5784,-586.2408 67.9215,-497.3539"/>
<polygon fill="#000000" stroke="#000000" points="466.6218,-852.3072 475.2169,-854.0635 470.5243,-851.4292 474.4267,-850.5513 474.4267,-850.5513 474.4267,-850.5513 470.5243,-851.4292 473.6365,-847.039 466.6218,-852.3072 466.6218,-852.3072"/>
<ellipse fill="none" stroke="#000000" cx="463.4998" cy="-853.0096" rx="3.2" ry="3.2"/>
</g>
<!-- FormQuestions&#45;&gt;Competencies -->
<g id="edge16" class="edge">
<title>FormQuestions:w&#45;&gt;Competencies:e</title>
<path fill="none" stroke="#000000" d="M459.9714,-815.6726C436.8316,-812.8999 411.7681,-810.8306 388.5,-810.8306"/>
<polygon fill="#000000" stroke="#000000" points="466.5426,-816.5136 474.0208,-821.1002 470.5103,-817.0215 474.4779,-817.5293 474.4779,-817.5293 474.4779,-817.5293 470.5103,-817.0215 474.935,-813.9585 466.5426,-816.5136 466.5426,-816.5136"/>
<ellipse fill="none" stroke="#000000" cx="463.3685" cy="-816.1073" rx="3.2" ry="3.2"/>
</g>
<!-- ProfessorCompetencyAssignments -->
<g id="node13" class="node">
<title>ProfessorCompetencyAssignments</title>
<g id="a_node13"><a xlink:href="../../tables/ProfessorCompetencyAssignments.html" xlink:title="ProfessorCompetencyAssignments" target="_top">
<polygon fill="#ffffff" stroke="transparent" points="702,-446.3306 702,-507.3306 944,-507.3306 944,-446.3306 702,-446.3306"/>
<polygon fill="#f5f5f5" stroke="transparent" points="702,-483.8306 702,-506.8306 944,-506.8306 944,-483.8306 702,-483.8306"/>
<polygon fill="none" stroke="#000000" points="702,-483.8306 702,-506.8306 944,-506.8306 944,-483.8306 702,-483.8306"/>
<text text-anchor="start" x="707" y="-492.4306" font-family="Helvetica,sans-Serif" font-weight="bold" font-size="11.00" fill="#000000">ProfessorCompetencyAssignments</text>
<text text-anchor="start" x="909.5219" y="-491.9306" font-family="Helvetica,sans-Serif" font-size="11.00" fill="#000000">[table]</text>
<polygon fill="none" stroke="#000000" points="702,-464.8306 702,-483.8306 944,-483.8306 944,-464.8306 702,-464.8306"/>
<text text-anchor="start" x="705" y="-470.9306" font-family="Helvetica,sans-Serif" font-size="11.00" fill="#000000">...</text>
<polygon fill="#ffffff" stroke="transparent" points="702,-445.8306 702,-464.8306 804,-464.8306 804,-445.8306 702,-445.8306"/>
<polygon fill="none" stroke="#000000" points="702,-445.8306 702,-464.8306 804,-464.8306 804,-445.8306 702,-445.8306"/>
<text text-anchor="start" x="705" y="-451.9306" font-family="Helvetica,sans-Serif" font-size="11.00" fill="#000000">&lt; 7</text>
<polygon fill="#ffffff" stroke="transparent" points="804,-445.8306 804,-464.8306 882,-464.8306 882,-445.8306 804,-445.8306"/>
<polygon fill="none" stroke="#000000" points="804,-445.8306 804,-464.8306 882,-464.8306 882,-445.8306 804,-445.8306"/>
<text text-anchor="start" x="846.6105" y="-451.9306" font-family="Helvetica,sans-Serif" font-size="11.00" fill="#000000">0 rows</text>
<polygon fill="#ffffff" stroke="transparent" points="882,-445.8306 882,-464.8306 944,-464.8306 944,-445.8306 882,-445.8306"/>
<polygon fill="none" stroke="#000000" points="882,-445.8306 882,-464.8306 944,-464.8306 944,-445.8306 882,-445.8306"/>
<text text-anchor="start" x="925.4053" y="-451.9306" font-family="Helvetica,sans-Serif" font-size="11.00" fill="#000000">1 &gt;</text>
</a>
</g>
</g>
<!-- ProfessorCompetencyAssignments&#45;&gt;AspNetUsers -->
<g id="edge20" class="edge">
<title>ProfessorCompetencyAssignments:w&#45;&gt;AspNetUsers:e</title>
<path fill="none" stroke="#000000" d="M679.3489,-470.5604C514.6525,-466.0817 251.8204,-461.5441 130.4051,-461.3721"/>
<polygon fill="#000000" stroke="#000000" points="685.9893,-470.7442 693.8866,-474.5642 689.9878,-470.8549 693.9863,-470.9656 693.9863,-470.9656 693.9863,-470.9656 689.9878,-470.8549 694.0859,-467.367 685.9893,-470.7442 685.9893,-470.7442"/>
<ellipse fill="none" stroke="#000000" cx="682.7906" cy="-470.6556" rx="3.2" ry="3.2"/>
</g>
<!-- ProfessorCompetencyAssignments&#45;&gt;AspNetUsers -->
<g id="edge25" class="edge">
<title>ProfessorCompetencyAssignments:w&#45;&gt;AspNetUsers:e</title>
<path fill="none" stroke="#000000" d="M679.3489,-478.3974C514.6525,-477.0318 251.8204,-471.8077 130.4051,-467.1496"/>
<polygon fill="#000000" stroke="#000000" points="685.9865,-478.4485 693.9585,-482.1102 689.9864,-478.4794 693.9863,-478.5103 693.9863,-478.5103 693.9863,-478.5103 689.9864,-478.4794 694.0141,-474.9104 685.9865,-478.4485 685.9865,-478.4485"/>
<ellipse fill="none" stroke="#000000" cx="682.7866" cy="-478.4238" rx="3.2" ry="3.2"/>
</g>
<!-- ProfessorCompetencyAssignments&#45;&gt;Competencies -->
<g id="edge19" class="edge">
<title>ProfessorCompetencyAssignments:w&#45;&gt;Competencies:e</title>
<path fill="none" stroke="#000000" d="M793.0375,-523.7608C766.7603,-565.026 727.611,-626.7659 694,-680.8306 679.1499,-704.7176 683.7862,-718.3413 661,-734.8306 575.9351,-796.3883 529.4861,-752.4181 431,-788.8306 411.0503,-796.2065 409.7696,-810.8306 388.5,-810.8306"/>
<polygon fill="#000000" stroke="#000000" points="796.627,-518.1275 803.962,-513.3153 798.7765,-514.7541 800.926,-511.3807 800.926,-511.3807 800.926,-511.3807 798.7765,-514.7541 797.89,-509.4461 796.627,-518.1275 796.627,-518.1275"/>
<ellipse fill="none" stroke="#000000" cx="794.9074" cy="-520.8262" rx="3.2" ry="3.2"/>
</g>
<!-- ProfessorCompetencyAssignments&#45;&gt;TechnicalCareers -->
<g id="edge24" class="edge">
<title>ProfessorCompetencyAssignments:w&#45;&gt;TechnicalCareers:e</title>
<path fill="none" stroke="#000000" d="M679.3051,-507.3922C673.1335,-508.2965 667.0122,-509.1168 661,-509.8306 523.8767,-526.1122 488.5866,-520.8306 350.5,-520.8306"/>
<polygon fill="#000000" stroke="#000000" points="685.8644,-506.371 694.323,-508.6973 689.8168,-505.7556 693.7692,-505.1402 693.7692,-505.1402 693.7692,-505.1402 689.8168,-505.7556 693.2153,-501.5831 685.8644,-506.371 685.8644,-506.371"/>
<ellipse fill="none" stroke="#000000" cx="682.7025" cy="-506.8633" rx="3.2" ry="3.2"/>
</g>
<!-- ProfessorCompetencyAssignments&#45;&gt;EvaluationPeriods -->
<g id="edge21" class="edge">
<title>ProfessorCompetencyAssignments:w&#45;&gt;EvaluationPeriods:e</title>
<path fill="none" stroke="#000000" d="M790.8519,-430.6554C754.653,-384.655 691.2327,-320.8306 618,-320.8306"/>
<polygon fill="#000000" stroke="#000000" points="794.8195,-435.851 796.8136,-444.3941 797.2471,-439.0301 799.6748,-442.2092 799.6748,-442.2092 799.6748,-442.2092 797.2471,-439.0301 802.536,-440.0243 794.8195,-435.851 794.8195,-435.851"/>
<ellipse fill="none" stroke="#000000" cx="792.8773" cy="-433.3078" rx="3.2" ry="3.2"/>
</g>
<!-- Professors -->
<g id="node14" class="node">
<title>Professors</title>
<g id="a_node14"><a xlink:href="../../tables/Professors.html" xlink:title="Professors" target="_top">
<polygon fill="#ffffff" stroke="transparent" points="230,-371.3306 230,-432.3306 331,-432.3306 331,-371.3306 230,-371.3306"/>
<polygon fill="#f5f5f5" stroke="transparent" points="230.5,-408.8306 230.5,-431.8306 331.5,-431.8306 331.5,-408.8306 230.5,-408.8306"/>
<polygon fill="none" stroke="#000000" points="230.5,-408.8306 230.5,-431.8306 331.5,-431.8306 331.5,-408.8306 230.5,-408.8306"/>
<text text-anchor="start" x="235.5" y="-417.4306" font-family="Helvetica,sans-Serif" font-weight="bold" font-size="11.00" fill="#000000">Professors</text>
<text text-anchor="start" x="297.0219" y="-416.9306" font-family="Helvetica,sans-Serif" font-size="11.00" fill="#000000">[table]</text>
<polygon fill="none" stroke="#000000" points="230.5,-389.8306 230.5,-408.8306 331.5,-408.8306 331.5,-389.8306 230.5,-389.8306"/>
<text text-anchor="start" x="233.5" y="-395.9306" font-family="Helvetica,sans-Serif" font-size="11.00" fill="#000000">...</text>
<polygon fill="#ffffff" stroke="transparent" points="230.5,-370.8306 230.5,-389.8306 261.5,-389.8306 261.5,-370.8306 230.5,-370.8306"/>
<polygon fill="none" stroke="#000000" points="230.5,-370.8306 230.5,-389.8306 261.5,-389.8306 261.5,-370.8306 230.5,-370.8306"/>
<text text-anchor="start" x="233.5" y="-376.9306" font-family="Helvetica,sans-Serif" font-size="11.00" fill="#000000">&lt; 1</text>
<polygon fill="#ffffff" stroke="transparent" points="261.5,-370.8306 261.5,-389.8306 304.5,-389.8306 304.5,-370.8306 261.5,-370.8306"/>
<polygon fill="none" stroke="#000000" points="261.5,-370.8306 261.5,-389.8306 304.5,-389.8306 304.5,-370.8306 261.5,-370.8306"/>
<text text-anchor="start" x="269.1105" y="-376.9306" font-family="Helvetica,sans-Serif" font-size="11.00" fill="#000000">0 rows</text>
<polygon fill="#ffffff" stroke="transparent" points="304.5,-370.8306 304.5,-389.8306 331.5,-389.8306 331.5,-370.8306 304.5,-370.8306"/>
<polygon fill="none" stroke="#000000" points="304.5,-370.8306 304.5,-389.8306 331.5,-389.8306 331.5,-370.8306 304.5,-370.8306"/>
<text text-anchor="start" x="312.9053" y="-376.9306" font-family="Helvetica,sans-Serif" font-size="11.00" fill="#000000">2 &gt;</text>
</a>
</g>
</g>
<!-- ProfessorCompetencyAssignments&#45;&gt;Professors -->
<g id="edge22" class="edge">
<title>ProfessorCompetencyAssignments:w&#45;&gt;Professors:e</title>
<path fill="none" stroke="#000000" d="M679.1315,-471.398C587.0129,-466.8452 476.5138,-459.0812 431,-446.8306 383.5884,-434.0693 380.599,-398.8306 331.5,-398.8306"/>
<polygon fill="#000000" stroke="#000000" points="685.7546,-471.7167 693.5723,-475.6971 689.75,-471.909 693.7453,-472.1013 693.7453,-472.1013 693.7453,-472.1013 689.75,-471.909 693.9184,-468.5055 685.7546,-471.7167 685.7546,-471.7167"/>
<ellipse fill="none" stroke="#000000" cx="682.5583" cy="-471.5628" rx="3.2" ry="3.2"/>
</g>
<!-- Subjects -->
<g id="node15" class="node">
<title>Subjects</title>
<g id="a_node15"><a xlink:href="../../tables/Subjects.html" xlink:title="Subjects" target="_top">
<polygon fill="#ffffff" stroke="transparent" points="501.5,-375.3306 501.5,-436.3306 590.5,-436.3306 590.5,-375.3306 501.5,-375.3306"/>
<polygon fill="#f5f5f5" stroke="transparent" points="502,-412.8306 502,-435.8306 591,-435.8306 591,-412.8306 502,-412.8306"/>
<polygon fill="none" stroke="#000000" points="502,-412.8306 502,-435.8306 591,-435.8306 591,-412.8306 502,-412.8306"/>
<text text-anchor="start" x="507" y="-421.4306" font-family="Helvetica,sans-Serif" font-weight="bold" font-size="11.00" fill="#000000">Subjects</text>
<text text-anchor="start" x="556.5219" y="-420.9306" font-family="Helvetica,sans-Serif" font-size="11.00" fill="#000000">[table]</text>
<polygon fill="none" stroke="#000000" points="502,-393.8306 502,-412.8306 591,-412.8306 591,-393.8306 502,-393.8306"/>
<text text-anchor="start" x="505" y="-399.9306" font-family="Helvetica,sans-Serif" font-size="11.00" fill="#000000">...</text>
<polygon fill="#ffffff" stroke="transparent" points="502,-374.8306 502,-393.8306 527,-393.8306 527,-374.8306 502,-374.8306"/>
<polygon fill="none" stroke="#000000" points="502,-374.8306 502,-393.8306 527,-393.8306 527,-374.8306 502,-374.8306"/>
<text text-anchor="start" x="505" y="-380.9306" font-family="Helvetica,sans-Serif" font-size="11.00" fill="#000000">&lt; 4</text>
<polygon fill="#ffffff" stroke="transparent" points="527,-374.8306 527,-393.8306 567,-393.8306 567,-374.8306 527,-374.8306"/>
<polygon fill="none" stroke="#000000" points="527,-374.8306 527,-393.8306 567,-393.8306 567,-374.8306 527,-374.8306"/>
<text text-anchor="start" x="531.6105" y="-380.9306" font-family="Helvetica,sans-Serif" font-size="11.00" fill="#000000">0 rows</text>
<polygon fill="#ffffff" stroke="transparent" points="567,-374.8306 567,-393.8306 591,-393.8306 591,-374.8306 567,-374.8306"/>
<polygon fill="none" stroke="#000000" points="567,-374.8306 567,-393.8306 591,-393.8306 591,-374.8306 567,-374.8306"/>
<text text-anchor="start" x="572.4053" y="-380.9306" font-family="Helvetica,sans-Serif" font-size="11.00" fill="#000000">3 &gt;</text>
</a>
</g>
</g>
<!-- ProfessorCompetencyAssignments&#45;&gt;Subjects -->
<g id="edge23" class="edge">
<title>ProfessorCompetencyAssignments:w&#45;&gt;Subjects:e</title>
<path fill="none" stroke="#000000" d="M740.1173,-436.7768C696.7371,-419.3488 642.134,-402.8306 591,-402.8306"/>
<polygon fill="#000000" stroke="#000000" points="746.1054,-439.2588 752.1172,-445.6478 749.8006,-440.7905 753.4957,-442.3221 753.4957,-442.3221 753.4957,-442.3221 749.8006,-440.7905 754.8742,-438.9965 746.1054,-439.2588 746.1054,-439.2588"/>
<ellipse fill="none" stroke="#000000" cx="743.1493" cy="-438.0335" rx="3.2" ry="3.2"/>
</g>
<!-- Professors&#45;&gt;AspNetUsers -->
<g id="edge26" class="edge">
<title>Professors:w&#45;&gt;AspNetUsers:e</title>
<path fill="none" stroke="#000000" d="M219.9787,-399.1965C185.9821,-401.5184 151.3271,-414.5422 123.4333,-428.2083"/>
<polygon fill="#000000" stroke="#000000" points="229.5614,-394.8609 229.8395,-402.856 228.2405,-402.9116 227.9624,-394.9165 229.5614,-394.8609"/>
<polyline fill="none" stroke="#000000" points="230.5,-398.8306 226.5024,-398.9697 "/>
<ellipse fill="none" stroke="#000000" cx="223.3043" cy="-399.0809" rx="3.2" ry="3.2"/>
</g>
<!-- Subjects&#45;&gt;AspNetUsers -->
<g id="edge46" class="edge">
<title>Subjects:w&#45;&gt;AspNetUsers:e</title>
<path fill="none" stroke="#000000" d="M487.6132,-400.1062C450.5641,-390.2325 441.773,-363.3357 398,-354.8306 295.473,-334.9096 259.0896,-313.8987 163,-354.8306 128.7719,-369.411 100.734,-402.457 83.5472,-428.2499"/>
<polygon fill="#000000" stroke="#000000" points="494.1397,-401.3421 501.3301,-406.3678 498.0698,-402.0864 502,-402.8306 502,-402.8306 502,-402.8306 498.0698,-402.0864 502.6699,-399.2935 494.1397,-401.3421 494.1397,-401.3421"/>
<ellipse fill="none" stroke="#000000" cx="490.9956" cy="-400.7466" rx="3.2" ry="3.2"/>
</g>
<!-- Subjects&#45;&gt;AspNetUsers -->
<g id="edge49" class="edge">
<title>Subjects:w&#45;&gt;AspNetUsers:e</title>
<path fill="none" stroke="#000000" d="M487.6132,-403.8009C450.5641,-403.2325 441.773,-376.3357 398,-367.8306 295.473,-347.9096 259.0896,-326.8987 163,-367.8306 133.6293,-380.3419 108.8166,-406.4495 91.5066,-428.2017"/>
<polygon fill="#000000" stroke="#000000" points="494.0181,-403.369 502.2423,-406.4225 498.0091,-403.0998 502,-402.8306 502,-402.8306 502,-402.8306 498.0091,-403.0998 501.7577,-399.2388 494.0181,-403.369 494.0181,-403.369"/>
<ellipse fill="none" stroke="#000000" cx="490.8254" cy="-403.5843" rx="3.2" ry="3.2"/>
</g>
<!-- Subjects&#45;&gt;TechnicalCareers -->
<g id="edge48" class="edge">
<title>Subjects:w&#45;&gt;TechnicalCareers:e</title>
<path fill="none" stroke="#000000" d="M487.6008,-404.076C418.5936,-416.6871 430.68,-520.8306 350.5,-520.8306"/>
<polygon fill="#000000" stroke="#000000" points="494.0298,-403.52 502.3102,-406.4172 498.0149,-403.1753 502,-402.8306 502,-402.8306 502,-402.8306 498.0149,-403.1753 501.6898,-399.244 494.0298,-403.52 494.0298,-403.52"/>
<ellipse fill="none" stroke="#000000" cx="490.8417" cy="-403.7958" rx="3.2" ry="3.2"/>
</g>
<!-- Subjects&#45;&gt;Professors -->
<g id="edge47" class="edge">
<title>Subjects:w&#45;&gt;Professors:e</title>
<path fill="none" stroke="#000000" d="M487.2166,-402.7771C423.3511,-402.3025 402.1171,-398.8306 331.5,-398.8306"/>
<polygon fill="#000000" stroke="#000000" points="494.0001,-402.8016 501.9869,-406.4306 498,-402.8161 502,-402.8306 502,-402.8306 502,-402.8306 498,-402.8161 502.0131,-399.2307 494.0001,-402.8016 494.0001,-402.8016"/>
<ellipse fill="none" stroke="#000000" cx="490.8001" cy="-402.79" rx="3.2" ry="3.2"/>
</g>
<!-- QuestionResponses -->
<g id="node16" class="node">
<title>QuestionResponses</title>
<g id="a_node16"><a xlink:href="../../tables/QuestionResponses.html" xlink:title="QuestionResponses" target="_top">
<polygon fill="#ffffff" stroke="transparent" points="1265,-112.3306 1265,-173.3306 1420,-173.3306 1420,-112.3306 1265,-112.3306"/>
<polygon fill="#f5f5f5" stroke="transparent" points="1265.5,-149.8306 1265.5,-172.8306 1420.5,-172.8306 1420.5,-149.8306 1265.5,-149.8306"/>
<polygon fill="none" stroke="#000000" points="1265.5,-149.8306 1265.5,-172.8306 1420.5,-172.8306 1420.5,-149.8306 1265.5,-149.8306"/>
<text text-anchor="start" x="1270.5" y="-158.4306" font-family="Helvetica,sans-Serif" font-weight="bold" font-size="11.00" fill="#000000">QuestionResponses</text>
<text text-anchor="start" x="1386.0219" y="-157.9306" font-family="Helvetica,sans-Serif" font-size="11.00" fill="#000000">[table]</text>
<polygon fill="none" stroke="#000000" points="1265.5,-130.8306 1265.5,-149.8306 1420.5,-149.8306 1420.5,-130.8306 1265.5,-130.8306"/>
<text text-anchor="start" x="1268.5" y="-136.9306" font-family="Helvetica,sans-Serif" font-size="11.00" fill="#000000">...</text>
<polygon fill="#ffffff" stroke="transparent" points="1265.5,-111.8306 1265.5,-130.8306 1328.5,-130.8306 1328.5,-111.8306 1265.5,-111.8306"/>
<polygon fill="none" stroke="#000000" points="1265.5,-111.8306 1265.5,-130.8306 1328.5,-130.8306 1328.5,-111.8306 1265.5,-111.8306"/>
<text text-anchor="start" x="1268.5" y="-117.9306" font-family="Helvetica,sans-Serif" font-size="11.00" fill="#000000">&lt; 4</text>
<polygon fill="#ffffff" stroke="transparent" points="1328.5,-111.8306 1328.5,-130.8306 1387.5,-130.8306 1387.5,-111.8306 1328.5,-111.8306"/>
<polygon fill="none" stroke="#000000" points="1328.5,-111.8306 1328.5,-130.8306 1387.5,-130.8306 1387.5,-111.8306 1328.5,-111.8306"/>
<text text-anchor="start" x="1352.1105" y="-117.9306" font-family="Helvetica,sans-Serif" font-size="11.00" fill="#000000">0 rows</text>
<polygon fill="#ffffff" stroke="transparent" points="1387.5,-111.8306 1387.5,-130.8306 1420.5,-130.8306 1420.5,-111.8306 1387.5,-111.8306"/>
<polygon fill="none" stroke="#000000" points="1387.5,-111.8306 1387.5,-130.8306 1420.5,-130.8306 1420.5,-111.8306 1387.5,-111.8306"/>
<text text-anchor="start" x="1411.3862" y="-117.9306" font-family="Helvetica,sans-Serif" font-size="11.00" fill="#000000"> &#160;</text>
</a>
</g>
</g>
<!-- QuestionResponses&#45;&gt;AspNetUsers -->
<g id="edge27" class="edge">
<title>QuestionResponses:w&#45;&gt;AspNetUsers:e</title>
<path fill="none" stroke="#000000" d="M1250.8729,-139.2526C1063.6267,-130.0434 1017.6509,-56.8306 823,-56.8306 823,-56.8306 823,-56.8306 546,-56.8306 374.852,-56.8306 293.3996,14.0188 163,-96.8306 112.3522,-139.8851 79.923,-345.3147 69.0558,-428.1645"/>
<polygon fill="#000000" stroke="#000000" points="1257.5062,-139.5147 1265.3578,-143.4278 1261.5031,-139.6727 1265.5,-139.8306 1265.5,-139.8306 1265.5,-139.8306 1261.5031,-139.6727 1265.6422,-136.2334 1257.5062,-139.5147 1257.5062,-139.5147"/>
<ellipse fill="none" stroke="#000000" cx="1254.3087" cy="-139.3883" rx="3.2" ry="3.2"/>
</g>
<!-- QuestionResponses&#45;&gt;AspNetUsers -->
<g id="edge30" class="edge">
<title>QuestionResponses:w&#45;&gt;AspNetUsers:e</title>
<path fill="none" stroke="#000000" d="M1250.8729,-140.1998C1063.6267,-143.0434 1017.6509,-69.8306 823,-69.8306 823,-69.8306 823,-69.8306 546,-69.8306 374.852,-69.8306 293.3996,1.0188 163,-109.8306 113.7094,-151.7314 81.6741,-347.4216 69.9758,-428.07"/>
<polygon fill="#000000" stroke="#000000" points="1257.5025,-140.0325 1265.5909,-143.4295 1261.5013,-139.9316 1265.5,-139.8306 1265.5,-139.8306 1265.5,-139.8306 1261.5013,-139.9316 1265.4091,-136.2318 1257.5025,-140.0325 1257.5025,-140.0325"/>
<ellipse fill="none" stroke="#000000" cx="1254.3036" cy="-140.1133" rx="3.2" ry="3.2"/>
</g>
<!-- QuestionResponses&#45;&gt;FormQuestions -->
<g id="edge28" class="edge">
<title>QuestionResponses:w&#45;&gt;FormQuestions:e</title>
<path fill="none" stroke="#000000" d="M1251.319,-142.7114C1229.9824,-153.6962 1244.0454,-193.796 1224,-222.8306 1025.4353,-510.4401 950.9492,-576.6983 661,-771.8306 647.4578,-780.9444 632.2877,-789.5767 617.5194,-797.261"/>
<polygon fill="#000000" stroke="#000000" points="1257.6601,-141.4233 1266.2167,-143.3586 1261.5801,-140.627 1265.5,-139.8306 1265.5,-139.8306 1265.5,-139.8306 1261.5801,-140.627 1264.7833,-136.3027 1257.6601,-141.4233 1257.6601,-141.4233"/>
<ellipse fill="none" stroke="#000000" cx="1254.5242" cy="-142.0603" rx="3.2" ry="3.2"/>
</g>
<!-- StudentCompetencyEvaluations -->
<g id="node17" class="node">
<title>StudentCompetencyEvaluations</title>
<g id="a_node17"><a xlink:href="../../tables/StudentCompetencyEvaluations.html" xlink:title="StudentCompetencyEvaluations" target="_top">
<polygon fill="#ffffff" stroke="transparent" points="993,-151.3306 993,-212.3306 1216,-212.3306 1216,-151.3306 993,-151.3306"/>
<polygon fill="#f5f5f5" stroke="transparent" points="993.5,-188.8306 993.5,-211.8306 1216.5,-211.8306 1216.5,-188.8306 993.5,-188.8306"/>
<polygon fill="none" stroke="#000000" points="993.5,-188.8306 993.5,-211.8306 1216.5,-211.8306 1216.5,-188.8306 993.5,-188.8306"/>
<text text-anchor="start" x="998.5" y="-197.4306" font-family="Helvetica,sans-Serif" font-weight="bold" font-size="11.00" fill="#000000">StudentCompetencyEvaluations</text>
<text text-anchor="start" x="1182.0219" y="-196.9306" font-family="Helvetica,sans-Serif" font-size="11.00" fill="#000000">[table]</text>
<polygon fill="none" stroke="#000000" points="993.5,-169.8306 993.5,-188.8306 1216.5,-188.8306 1216.5,-169.8306 993.5,-169.8306"/>
<text text-anchor="start" x="996.5" y="-175.9306" font-family="Helvetica,sans-Serif" font-size="11.00" fill="#000000">...</text>
<polygon fill="#ffffff" stroke="transparent" points="993.5,-150.8306 993.5,-169.8306 1085.5,-169.8306 1085.5,-150.8306 993.5,-150.8306"/>
<polygon fill="none" stroke="#000000" points="993.5,-150.8306 993.5,-169.8306 1085.5,-169.8306 1085.5,-150.8306 993.5,-150.8306"/>
<text text-anchor="start" x="996.5" y="-156.9306" font-family="Helvetica,sans-Serif" font-size="11.00" fill="#000000">&lt; 5</text>
<polygon fill="#ffffff" stroke="transparent" points="1085.5,-150.8306 1085.5,-169.8306 1159.5,-169.8306 1159.5,-150.8306 1085.5,-150.8306"/>
<polygon fill="none" stroke="#000000" points="1085.5,-150.8306 1085.5,-169.8306 1159.5,-169.8306 1159.5,-150.8306 1085.5,-150.8306"/>
<text text-anchor="start" x="1124.1105" y="-156.9306" font-family="Helvetica,sans-Serif" font-size="11.00" fill="#000000">0 rows</text>
<polygon fill="#ffffff" stroke="transparent" points="1159.5,-150.8306 1159.5,-169.8306 1216.5,-169.8306 1216.5,-150.8306 1159.5,-150.8306"/>
<polygon fill="none" stroke="#000000" points="1159.5,-150.8306 1159.5,-169.8306 1216.5,-169.8306 1216.5,-150.8306 1159.5,-150.8306"/>
<text text-anchor="start" x="1197.9053" y="-156.9306" font-family="Helvetica,sans-Serif" font-size="11.00" fill="#000000">1 &gt;</text>
</a>
</g>
</g>
<!-- QuestionResponses&#45;&gt;StudentCompetencyEvaluations -->
<g id="edge29" class="edge">
<title>QuestionResponses:w&#45;&gt;StudentCompetencyEvaluations:e</title>
<path fill="none" stroke="#000000" d="M1251.4646,-144.6128C1238.9324,-155.0269 1238.2451,-178.8306 1216.5,-178.8306"/>
<polygon fill="#000000" stroke="#000000" points="1257.9275,-142.4108 1266.6611,-143.2383 1261.7137,-141.1207 1265.5,-139.8306 1265.5,-139.8306 1265.5,-139.8306 1261.7137,-141.1207 1264.3389,-136.423 1257.9275,-142.4108 1257.9275,-142.4108"/>
<ellipse fill="none" stroke="#000000" cx="1254.8985" cy="-143.4429" rx="3.2" ry="3.2"/>
</g>
<!-- StudentCompetencyEvaluations&#45;&gt;AspNetUsers -->
<g id="edge31" class="edge">
<title>StudentCompetencyEvaluations:w&#45;&gt;AspNetUsers:e</title>
<path fill="none" stroke="#000000" d="M980.427,-172.0066C967.2189,-157.7899 974.6916,-127.3783 952,-115.8306 892.6829,-85.6444 226.8414,-83.8392 163,-132.8306 115.7376,-169.0995 81.8675,-351.1486 69.8218,-428.2952"/>
<polygon fill="#000000" stroke="#000000" points="986.4081,-175.1286 991.8341,-182.022 989.954,-176.9796 993.5,-178.8306 993.5,-178.8306 993.5,-178.8306 989.954,-176.9796 995.1659,-175.6393 986.4081,-175.1286 986.4081,-175.1286"/>
<ellipse fill="none" stroke="#000000" cx="983.5713" cy="-173.6478" rx="3.2" ry="3.2"/>
</g>
<!-- StudentCompetencyEvaluations&#45;&gt;AspNetUsers -->
<g id="edge35" class="edge">
<title>StudentCompetencyEvaluations:w&#45;&gt;AspNetUsers:e</title>
<path fill="none" stroke="#000000" d="M978.9919,-177.0974C967.7491,-168.4785 973.8188,-139.9342 952,-128.8306 892.6829,-98.6444 226.8414,-96.8392 163,-145.8306 117.1363,-181.0261 83.8838,-353.5014 70.9484,-428.2755"/>
<polygon fill="#000000" stroke="#000000" points="985.5565,-177.8816 993.0729,-182.4052 989.5282,-178.3561 993.5,-178.8306 993.5,-178.8306 993.5,-178.8306 989.5282,-178.3561 993.9271,-175.2561 985.5565,-177.8816 985.5565,-177.8816"/>
<ellipse fill="none" stroke="#000000" cx="982.3791" cy="-177.502" rx="3.2" ry="3.2"/>
</g>
<!-- StudentCompetencyEvaluations&#45;&gt;ProfessorCompetencyAssignments -->
<g id="edge32" class="edge">
<title>StudentCompetencyEvaluations:w&#45;&gt;ProfessorCompetencyAssignments:e</title>
<path fill="none" stroke="#000000" d="M978.8083,-180.2086C915.3764,-193.7859 996.351,-304.629 952,-375.8306 935.3073,-402.6293 908.8378,-425.1769 884.2082,-442.1216"/>
<polygon fill="#000000" stroke="#000000" points="985.535,-179.5778 993.8362,-182.4149 989.5175,-179.2042 993.5,-178.8306 993.5,-178.8306 993.5,-178.8306 989.5175,-179.2042 993.1638,-175.2464 985.535,-179.5778 985.535,-179.5778"/>
<ellipse fill="none" stroke="#000000" cx="982.3489" cy="-179.8766" rx="3.2" ry="3.2"/>
</g>
<!-- StudentCompetencyEvaluations&#45;&gt;Subjects -->
<g id="edge34" class="edge">
<title>StudentCompetencyEvaluations:w&#45;&gt;Subjects:e</title>
<path fill="none" stroke="#000000" d="M979.065,-181.1375C942.2826,-195.6306 993.3452,-274.7587 952,-313.8306 831.8965,-427.3305 756.2485,-402.8306 591,-402.8306"/>
<polygon fill="#000000" stroke="#000000" points="985.6002,-180.0932 994.0681,-182.3855 989.5501,-179.4619 993.5,-178.8306 993.5,-178.8306 993.5,-178.8306 989.5501,-179.4619 992.9319,-175.2757 985.6002,-180.0932 985.6002,-180.0932"/>
<ellipse fill="none" stroke="#000000" cx="982.4403" cy="-180.5982" rx="3.2" ry="3.2"/>
</g>
<!-- Students -->
<g id="node18" class="node">
<title>Students</title>
<g id="a_node18"><a xlink:href="../../tables/Students.html" xlink:title="Students" target="_top">
<polygon fill="#ffffff" stroke="transparent" points="501,-171.3306 501,-232.3306 591,-232.3306 591,-171.3306 501,-171.3306"/>
<polygon fill="#f5f5f5" stroke="transparent" points="501,-208.8306 501,-231.8306 591,-231.8306 591,-208.8306 501,-208.8306"/>
<polygon fill="none" stroke="#000000" points="501,-208.8306 501,-231.8306 591,-231.8306 591,-208.8306 501,-208.8306"/>
<text text-anchor="start" x="506" y="-217.4306" font-family="Helvetica,sans-Serif" font-weight="bold" font-size="11.00" fill="#000000">Students</text>
<text text-anchor="start" x="556.5219" y="-216.9306" font-family="Helvetica,sans-Serif" font-size="11.00" fill="#000000">[table]</text>
<polygon fill="none" stroke="#000000" points="501,-189.8306 501,-208.8306 591,-208.8306 591,-189.8306 501,-189.8306"/>
<text text-anchor="start" x="504" y="-195.9306" font-family="Helvetica,sans-Serif" font-size="11.00" fill="#000000">...</text>
<polygon fill="#ffffff" stroke="transparent" points="501,-170.8306 501,-189.8306 527,-189.8306 527,-170.8306 501,-170.8306"/>
<polygon fill="none" stroke="#000000" points="501,-170.8306 501,-189.8306 527,-189.8306 527,-170.8306 501,-170.8306"/>
<text text-anchor="start" x="504" y="-176.9306" font-family="Helvetica,sans-Serif" font-size="11.00" fill="#000000">&lt; 2</text>
<polygon fill="#ffffff" stroke="transparent" points="527,-170.8306 527,-189.8306 567,-189.8306 567,-170.8306 527,-170.8306"/>
<polygon fill="none" stroke="#000000" points="527,-170.8306 527,-189.8306 567,-189.8306 567,-170.8306 527,-170.8306"/>
<text text-anchor="start" x="531.6105" y="-176.9306" font-family="Helvetica,sans-Serif" font-size="11.00" fill="#000000">0 rows</text>
<polygon fill="#ffffff" stroke="transparent" points="567,-170.8306 567,-189.8306 591,-189.8306 591,-170.8306 567,-170.8306"/>
<polygon fill="none" stroke="#000000" points="567,-170.8306 567,-189.8306 591,-189.8306 591,-170.8306 567,-170.8306"/>
<text text-anchor="start" x="572.4053" y="-176.9306" font-family="Helvetica,sans-Serif" font-size="11.00" fill="#000000">3 &gt;</text>
</a>
</g>
</g>
<!-- StudentCompetencyEvaluations&#45;&gt;Students -->
<g id="edge33" class="edge">
<title>StudentCompetencyEvaluations:w&#45;&gt;Students:e</title>
<path fill="none" stroke="#000000" d="M979.3612,-182.8622C970.6191,-188.8249 966.7493,-199.7313 952,-203.8306 797.4004,-246.7996 751.4598,-198.8306 591,-198.8306"/>
<polygon fill="#000000" stroke="#000000" points="985.8066,-181.0244 994.4872,-182.2926 989.6533,-179.9275 993.5,-178.8306 993.5,-178.8306 993.5,-178.8306 989.6533,-179.9275 992.5128,-175.3686 985.8066,-181.0244 985.8066,-181.0244"/>
<ellipse fill="none" stroke="#000000" cx="982.7293" cy="-181.9018" rx="3.2" ry="3.2"/>
</g>
<!-- Students&#45;&gt;AspNetUsers -->
<g id="edge41" class="edge">
<title>Students:w&#45;&gt;AspNetUsers:e</title>
<path fill="none" stroke="#000000" d="M490.4729,-198.7621C346.2002,-196.8899 281.586,-157.9899 163,-246.8306 104.0079,-291.0256 79.5997,-379.0205 70.2536,-427.9567"/>
<polygon fill="#000000" stroke="#000000" points="500.2261,-194.8255 500.1739,-202.8253 498.574,-202.8149 498.6261,-194.8151 500.2261,-194.8255"/>
<polyline fill="none" stroke="#000000" points="501,-198.8306 497.0001,-198.8046 "/>
<ellipse fill="none" stroke="#000000" cx="493.8002" cy="-198.7837" rx="3.2" ry="3.2"/>
</g>
<!-- Students&#45;&gt;TechnicalCareers -->
<g id="edge40" class="edge">
<title>Students:w&#45;&gt;TechnicalCareers:e</title>
<path fill="none" stroke="#000000" d="M486.3105,-199.872C353.6586,-219.8585 503.2261,-520.8306 350.5,-520.8306"/>
<polygon fill="#000000" stroke="#000000" points="493.02,-199.3964 501.2546,-202.4216 497.01,-199.1135 501,-198.8306 501,-198.8306 501,-198.8306 497.01,-199.1135 500.7454,-195.2396 493.02,-199.3964 493.02,-199.3964"/>
<ellipse fill="none" stroke="#000000" cx="489.828" cy="-199.6227" rx="3.2" ry="3.2"/>
</g>
<!-- StudentEvaluationReport -->
<g id="node19" class="node">
<title>StudentEvaluationReport</title>
<g id="a_node19"><a xlink:href="../../tables/StudentEvaluationReport.html" xlink:title="StudentEvaluationReport" target="_top">
<polygon fill="#ffffff" stroke="transparent" points="731.5,-242.3306 731.5,-303.3306 914.5,-303.3306 914.5,-242.3306 731.5,-242.3306"/>
<polygon fill="#f5f5f5" stroke="transparent" points="732,-279.8306 732,-302.8306 915,-302.8306 915,-279.8306 732,-279.8306"/>
<polygon fill="none" stroke="#000000" points="732,-279.8306 732,-302.8306 915,-302.8306 915,-279.8306 732,-279.8306"/>
<text text-anchor="start" x="737" y="-288.4306" font-family="Helvetica,sans-Serif" font-weight="bold" font-size="11.00" fill="#000000">StudentEvaluationReport</text>
<text text-anchor="start" x="880.5219" y="-287.9306" font-family="Helvetica,sans-Serif" font-size="11.00" fill="#000000">[table]</text>
<polygon fill="none" stroke="#000000" points="732,-260.8306 732,-279.8306 915,-279.8306 915,-260.8306 732,-260.8306"/>
<text text-anchor="start" x="735" y="-266.9306" font-family="Helvetica,sans-Serif" font-size="11.00" fill="#000000">...</text>
<polygon fill="#ffffff" stroke="transparent" points="732,-241.8306 732,-260.8306 809,-260.8306 809,-241.8306 732,-241.8306"/>
<polygon fill="none" stroke="#000000" points="732,-241.8306 732,-260.8306 809,-260.8306 809,-241.8306 732,-241.8306"/>
<text text-anchor="start" x="735" y="-247.9306" font-family="Helvetica,sans-Serif" font-size="11.00" fill="#000000">&lt; 4</text>
<polygon fill="#ffffff" stroke="transparent" points="809,-241.8306 809,-260.8306 875,-260.8306 875,-241.8306 809,-241.8306"/>
<polygon fill="none" stroke="#000000" points="809,-241.8306 809,-260.8306 875,-260.8306 875,-241.8306 809,-241.8306"/>
<text text-anchor="start" x="839.6105" y="-247.9306" font-family="Helvetica,sans-Serif" font-size="11.00" fill="#000000">0 rows</text>
<polygon fill="#ffffff" stroke="transparent" points="875,-241.8306 875,-260.8306 915,-260.8306 915,-241.8306 875,-241.8306"/>
<polygon fill="none" stroke="#000000" points="875,-241.8306 875,-260.8306 915,-260.8306 915,-241.8306 875,-241.8306"/>
<text text-anchor="start" x="905.8862" y="-247.9306" font-family="Helvetica,sans-Serif" font-size="11.00" fill="#000000"> &#160;</text>
</a>
</g>
</g>
<!-- StudentEvaluationReport&#45;&gt;AspNetUsers -->
<g id="edge36" class="edge">
<title>StudentEvaluationReport:w&#45;&gt;AspNetUsers:e</title>
<path fill="none" stroke="#000000" d="M717.482,-269.0697C581.5241,-261.3765 267.2745,-230.4131 163,-293.8306 114.0528,-323.5993 86.4383,-387.8872 73.7232,-428.099"/>
<polygon fill="#000000" stroke="#000000" points="724.011,-269.4119 731.8116,-273.4257 728.0055,-269.6213 732,-269.8306 732,-269.8306 732,-269.8306 728.0055,-269.6213 732.1884,-266.2356 724.011,-269.4119 724.011,-269.4119"/>
<ellipse fill="none" stroke="#000000" cx="720.8154" cy="-269.2444" rx="3.2" ry="3.2"/>
</g>
<!-- StudentEvaluationReport&#45;&gt;AspNetUsers -->
<g id="edge39" class="edge">
<title>StudentEvaluationReport:w&#45;&gt;AspNetUsers:e</title>
<path fill="none" stroke="#000000" d="M717.482,-270.4286C581.5241,-274.3765 267.2745,-243.4131 163,-306.8306 117.8614,-334.283 90.8648,-391.0918 76.965,-428.1289"/>
<polygon fill="#000000" stroke="#000000" points="724.0068,-270.1599 732.1482,-273.4276 728.0034,-269.9953 732,-269.8306 732,-269.8306 732,-269.8306 728.0034,-269.9953 731.8518,-266.2337 724.0068,-270.1599 724.0068,-270.1599"/>
<ellipse fill="none" stroke="#000000" cx="720.8095" cy="-270.2916" rx="3.2" ry="3.2"/>
</g>
<!-- StudentEvaluationReport&#45;&gt;EvaluationPeriods -->
<g id="edge37" class="edge">
<title>StudentEvaluationReport:w&#45;&gt;EvaluationPeriods:e</title>
<path fill="none" stroke="#000000" d="M717.4147,-271.1426C675.4412,-279.1252 668.1937,-320.8306 618,-320.8306"/>
<polygon fill="#000000" stroke="#000000" points="724.0322,-270.5474 732.3225,-273.4162 728.0161,-270.189 732,-269.8306 732,-269.8306 732,-269.8306 728.0161,-270.189 731.6775,-266.2451 724.0322,-270.5474 724.0322,-270.5474"/>
<ellipse fill="none" stroke="#000000" cx="720.845" cy="-270.8341" rx="3.2" ry="3.2"/>
</g>
<!-- StudentEvaluationReport&#45;&gt;Students -->
<g id="edge38" class="edge">
<title>StudentEvaluationReport:w&#45;&gt;Students:e</title>
<path fill="none" stroke="#000000" d="M717.4693,-268.7154C661.3541,-259.6827 655.9557,-198.8306 591,-198.8306"/>
<polygon fill="#000000" stroke="#000000" points="724.0235,-269.2184 731.7245,-273.4201 728.0117,-269.5245 732,-269.8306 732,-269.8306 732,-269.8306 728.0117,-269.5245 732.2755,-266.2412 724.0235,-269.2184 724.0235,-269.2184"/>
<ellipse fill="none" stroke="#000000" cx="720.8328" cy="-268.9735" rx="3.2" ry="3.2"/>
</g>
<!-- StudentSubjects -->
<g id="node20" class="node">
<title>StudentSubjects</title>
<g id="a_node20"><a xlink:href="../../tables/StudentSubjects.html" xlink:title="StudentSubjects" target="_top">
<polygon fill="#ffffff" stroke="transparent" points="756.5,-132.3306 756.5,-193.3306 889.5,-193.3306 889.5,-132.3306 756.5,-132.3306"/>
<polygon fill="#f5f5f5" stroke="transparent" points="757,-169.8306 757,-192.8306 890,-192.8306 890,-169.8306 757,-169.8306"/>
<polygon fill="none" stroke="#000000" points="757,-169.8306 757,-192.8306 890,-192.8306 890,-169.8306 757,-169.8306"/>
<text text-anchor="start" x="762" y="-178.4306" font-family="Helvetica,sans-Serif" font-weight="bold" font-size="11.00" fill="#000000">StudentSubjects</text>
<text text-anchor="start" x="855.5219" y="-177.9306" font-family="Helvetica,sans-Serif" font-size="11.00" fill="#000000">[table]</text>
<polygon fill="none" stroke="#000000" points="757,-150.8306 757,-169.8306 890,-169.8306 890,-150.8306 757,-150.8306"/>
<text text-anchor="start" x="760" y="-156.9306" font-family="Helvetica,sans-Serif" font-size="11.00" fill="#000000">...</text>
<polygon fill="#ffffff" stroke="transparent" points="757,-131.8306 757,-150.8306 809,-150.8306 809,-131.8306 757,-131.8306"/>
<polygon fill="none" stroke="#000000" points="757,-131.8306 757,-150.8306 809,-150.8306 809,-131.8306 757,-131.8306"/>
<text text-anchor="start" x="760" y="-137.9306" font-family="Helvetica,sans-Serif" font-size="11.00" fill="#000000">&lt; 4</text>
<polygon fill="#ffffff" stroke="transparent" points="809,-131.8306 809,-150.8306 862,-150.8306 862,-131.8306 809,-131.8306"/>
<polygon fill="none" stroke="#000000" points="809,-131.8306 809,-150.8306 862,-150.8306 862,-131.8306 809,-131.8306"/>
<text text-anchor="start" x="826.6105" y="-137.9306" font-family="Helvetica,sans-Serif" font-size="11.00" fill="#000000">0 rows</text>
<polygon fill="#ffffff" stroke="transparent" points="862,-131.8306 862,-150.8306 890,-150.8306 890,-131.8306 862,-131.8306"/>
<polygon fill="none" stroke="#000000" points="862,-131.8306 862,-150.8306 890,-150.8306 890,-131.8306 862,-131.8306"/>
<text text-anchor="start" x="880.8862" y="-137.9306" font-family="Helvetica,sans-Serif" font-size="11.00" fill="#000000"> &#160;</text>
</a>
</g>
</g>
<!-- StudentSubjects&#45;&gt;AspNetUsers -->
<g id="edge42" class="edge">
<title>StudentSubjects:w&#45;&gt;AspNetUsers:e</title>
<path fill="none" stroke="#000000" d="M742.2494,-159.0234C600.0397,-150.1176 263.562,-101.4803 163,-179.8306 123.1628,-210.8687 86.3246,-359.5977 71.6772,-428.1734"/>
<polygon fill="#000000" stroke="#000000" points="749.012,-159.3935 756.8033,-163.4253 753.006,-159.612 757,-159.8306 757,-159.8306 757,-159.8306 753.006,-159.612 757.1967,-156.236 749.012,-159.3935 749.012,-159.3935"/>
<ellipse fill="none" stroke="#000000" cx="745.8167" cy="-159.2186" rx="3.2" ry="3.2"/>
</g>
<!-- StudentSubjects&#45;&gt;AspNetUsers -->
<g id="edge45" class="edge">
<title>StudentSubjects:w&#45;&gt;AspNetUsers:e</title>
<path fill="none" stroke="#000000" d="M742.2494,-160.3469C600.0397,-163.1176 263.562,-114.4803 163,-192.8306 124.5712,-222.7714 88.9331,-362.2286 73.3131,-428.2093"/>
<polygon fill="#000000" stroke="#000000" points="749.0049,-160.1105 757.1259,-163.4284 753.0024,-159.9706 757,-159.8306 757,-159.8306 757,-159.8306 753.0024,-159.9706 756.8741,-156.2328 749.0049,-160.1105 749.0049,-160.1105"/>
<ellipse fill="none" stroke="#000000" cx="745.8069" cy="-160.2225" rx="3.2" ry="3.2"/>
</g>
<!-- StudentSubjects&#45;&gt;Subjects -->
<g id="edge44" class="edge">
<title>StudentSubjects:w&#45;&gt;Subjects:e</title>
<path fill="none" stroke="#000000" d="M742.5062,-161.4745C713.9581,-168.7311 711.1375,-198.9943 694,-231.8306 665.821,-285.823 698.2606,-316.6551 661,-364.8306 639.3426,-392.8323 626.3997,-402.8306 591,-402.8306"/>
<polygon fill="#000000" stroke="#000000" points="749.051,-160.7323 757.4057,-163.4077 753.0255,-160.2814 757,-159.8306 757,-159.8306 757,-159.8306 753.0255,-160.2814 756.5943,-156.2536 749.051,-160.7323 749.051,-160.7323"/>
<ellipse fill="none" stroke="#000000" cx="745.8714" cy="-161.0929" rx="3.2" ry="3.2"/>
</g>
<!-- StudentSubjects&#45;&gt;Students -->
<g id="edge43" class="edge">
<title>StudentSubjects:w&#45;&gt;Students:e</title>
<path fill="none" stroke="#000000" d="M742.2788,-160.3525C678.9543,-164.9804 661.6059,-198.8306 591,-198.8306"/>
<polygon fill="#000000" stroke="#000000" points="749.005,-160.1141 757.1276,-163.4284 753.0025,-159.9724 757,-159.8306 757,-159.8306 757,-159.8306 753.0025,-159.9724 756.8724,-156.2329 749.005,-160.1141 749.005,-160.1141"/>
<ellipse fill="none" stroke="#000000" cx="745.807" cy="-160.2275" rx="3.2" ry="3.2"/>
</g>
</g>
</svg>
