<?xml version="1.0" encoding="UTF-8" standalone="no"?>
<!DOCTYPE svg PUBLIC "-//W3C//DTD SVG 1.1//EN"
 "http://www.w3.org/Graphics/SVG/1.1/DTD/svg11.dtd">
<!-- Generated by graphviz version 2.40.1 (20161225.0304)
 -->
<!-- Title: oneDegreeRelationshipsDiagram Pages: 1 -->
<svg width="700pt" height="294pt"
 viewBox="0.00 0.00 700.00 294.20" xmlns="http://www.w3.org/2000/svg" xmlns:xlink="http://www.w3.org/1999/xlink">
<g id="graph0" class="graph" transform="scale(1 1) rotate(0) translate(4 290.2)">
<title>oneDegreeRelationshipsDiagram</title>
<polygon fill="#ffffff" stroke="transparent" points="-4,4 -4,-290.2 696,-290.2 696,4 -4,4"/>
<text text-anchor="middle" x="72.4936" y="-7.3" font-family="Helvetica,sans-Serif" font-size="11.00" fill="#000000">Generated by SchemaSpy</text>
<!-- Competencies -->
<g id="node1" class="node">
<title>Competencies</title>
<g id="a_node1"><a xlink:href="../../tables/Competencies.html" xlink:title="Competencies" target="_top">
<polygon fill="#ffffff" stroke="transparent" points="220,-121.7 220,-248.7 341,-248.7 341,-121.7 220,-121.7"/>
<polygon fill="#f5f5f5" stroke="transparent" points="220.5,-225.2 220.5,-248.2 341.5,-248.2 341.5,-225.2 220.5,-225.2"/>
<polygon fill="none" stroke="#000000" points="220.5,-225.2 220.5,-248.2 341.5,-248.2 341.5,-225.2 220.5,-225.2"/>
<text text-anchor="start" x="225.5" y="-233.8" font-family="Helvetica,sans-Serif" font-weight="bold" font-size="11.00" fill="#000000">Competencies</text>
<text text-anchor="start" x="307.0219" y="-233.3" font-family="Helvetica,sans-Serif" font-size="11.00" fill="#000000">[table]</text>
<polygon fill="none" stroke="#000000" points="220.5,-203.2 220.5,-225.2 341.5,-225.2 341.5,-203.2 220.5,-203.2"/>
<image xlink:href="../../images/primaryKeys.png" width="11px" height="12px" preserveAspectRatio="xMinYMin meet" x="225.5" y="-220.2"/>
<text text-anchor="start" x="240.5" y="-210.3" font-family="Helvetica,sans-Serif" font-size="11.00" fill="#000000">Id</text>
<polygon fill="#ffffff" stroke="transparent" points="220.5,-181.2 220.5,-203.2 341.5,-203.2 341.5,-181.2 220.5,-181.2"/>
<polygon fill="none" stroke="#000000" points="220.5,-181.2 220.5,-203.2 341.5,-203.2 341.5,-181.2 220.5,-181.2"/>
<image xlink:href="../../images/foreignKeys.png" width="11px" height="12px" preserveAspectRatio="xMinYMin meet" x="225.5" y="-198.2"/>
<text text-anchor="start" x="240.5" y="-188.3" font-family="Helvetica,sans-Serif" font-size="11.00" fill="#000000">CreatedByUserId</text>
<polygon fill="#ffffff" stroke="transparent" points="220.5,-159.2 220.5,-181.2 341.5,-181.2 341.5,-159.2 220.5,-159.2"/>
<polygon fill="none" stroke="#000000" points="220.5,-159.2 220.5,-181.2 341.5,-181.2 341.5,-159.2 220.5,-159.2"/>
<image xlink:href="../../images/foreignKeys.png" width="11px" height="12px" preserveAspectRatio="xMinYMin meet" x="225.5" y="-176.2"/>
<text text-anchor="start" x="240.5" y="-166.3" font-family="Helvetica,sans-Serif" font-size="11.00" fill="#000000">UpdatedByUserId</text>
<polygon fill="none" stroke="#000000" points="220.5,-140.2 220.5,-159.2 341.5,-159.2 341.5,-140.2 220.5,-140.2"/>
<text text-anchor="start" x="223.5" y="-146.3" font-family="Helvetica,sans-Serif" font-size="11.00" fill="#000000">...</text>
<polygon fill="#ffffff" stroke="transparent" points="220.5,-121.2 220.5,-140.2 261.5,-140.2 261.5,-121.2 220.5,-121.2"/>
<polygon fill="none" stroke="#000000" points="220.5,-121.2 220.5,-140.2 261.5,-140.2 261.5,-121.2 220.5,-121.2"/>
<text text-anchor="start" x="223.5" y="-127.3" font-family="Helvetica,sans-Serif" font-size="11.00" fill="#000000">&lt; 2</text>
<polygon fill="#ffffff" stroke="transparent" points="261.5,-121.2 261.5,-140.2 309.5,-140.2 309.5,-121.2 261.5,-121.2"/>
<polygon fill="none" stroke="#000000" points="261.5,-121.2 261.5,-140.2 309.5,-140.2 309.5,-121.2 261.5,-121.2"/>
<text text-anchor="start" x="274.1105" y="-127.3" font-family="Helvetica,sans-Serif" font-size="11.00" fill="#000000">0 rows</text>
<polygon fill="#ffffff" stroke="transparent" points="309.5,-121.2 309.5,-140.2 341.5,-140.2 341.5,-121.2 309.5,-121.2"/>
<polygon fill="none" stroke="#000000" points="309.5,-121.2 309.5,-140.2 341.5,-140.2 341.5,-121.2 309.5,-121.2"/>
<text text-anchor="start" x="322.9053" y="-127.3" font-family="Helvetica,sans-Serif" font-size="11.00" fill="#000000">4 &gt;</text>
</a>
</g>
</g>
<!-- AspNetUsers -->
<g id="node2" class="node">
<title>AspNetUsers</title>
<g id="a_node2"><a xlink:href="../../tables/AspNetUsers.html" xlink:title="AspNetUsers" target="_top">
<polygon fill="#ffffff" stroke="transparent" points="8,-40.7 8,-167.7 171,-167.7 171,-40.7 8,-40.7"/>
<polygon fill="#f5f5f5" stroke="transparent" points="8.5,-144.2 8.5,-167.2 171.5,-167.2 171.5,-144.2 8.5,-144.2"/>
<polygon fill="none" stroke="#000000" points="8.5,-144.2 8.5,-167.2 171.5,-167.2 171.5,-144.2 8.5,-144.2"/>
<text text-anchor="start" x="13.5" y="-152.8" font-family="Helvetica,sans-Serif" font-weight="bold" font-size="11.00" fill="#000000">AspNetUsers</text>
<text text-anchor="start" x="136.5437" y="-152.3" font-family="Helvetica,sans-Serif" font-size="11.00" fill="#000000">[table]</text>
<polygon fill="none" stroke="#000000" points="8.5,-122.2 8.5,-144.2 171.5,-144.2 171.5,-122.2 8.5,-122.2"/>
<image xlink:href="../../images/primaryKeys.png" width="11px" height="12px" preserveAspectRatio="xMinYMin meet" x="13.5" y="-139.2"/>
<text text-anchor="start" x="28.5" y="-129.3" font-family="Helvetica,sans-Serif" font-size="11.00" fill="#000000">Id</text>
<polygon fill="#ffffff" stroke="transparent" points="8.5,-100.2 8.5,-122.2 171.5,-122.2 171.5,-100.2 8.5,-100.2"/>
<polygon fill="none" stroke="#000000" points="8.5,-100.2 8.5,-122.2 171.5,-122.2 171.5,-100.2 8.5,-100.2"/>
<text text-anchor="start" x="28.5" y="-107.3" font-family="Helvetica,sans-Serif" font-size="11.00" fill="#000000">NormalizedUserName</text>
<polygon fill="#ffffff" stroke="transparent" points="8.5,-78.2 8.5,-100.2 171.5,-100.2 171.5,-78.2 8.5,-78.2"/>
<polygon fill="none" stroke="#000000" points="8.5,-78.2 8.5,-100.2 171.5,-100.2 171.5,-78.2 8.5,-78.2"/>
<text text-anchor="start" x="28.5" y="-85.3" font-family="Helvetica,sans-Serif" font-size="11.00" fill="#000000">NormalizedEmail</text>
<polygon fill="none" stroke="#000000" points="8.5,-59.2 8.5,-78.2 171.5,-78.2 171.5,-59.2 8.5,-59.2"/>
<text text-anchor="start" x="11.5" y="-65.3" font-family="Helvetica,sans-Serif" font-size="11.00" fill="#000000">...</text>
<polygon fill="#ffffff" stroke="transparent" points="8.5,-40.2 8.5,-59.2 63.5,-59.2 63.5,-40.2 8.5,-40.2"/>
<polygon fill="none" stroke="#000000" points="8.5,-40.2 8.5,-59.2 63.5,-59.2 63.5,-40.2 8.5,-40.2"/>
<text text-anchor="start" x="11.5" y="-46.3" font-family="Helvetica,sans-Serif" font-size="11.00" fill="#000000"> &#160;</text>
<polygon fill="#ffffff" stroke="transparent" points="63.5,-40.2 63.5,-59.2 122.5,-59.2 122.5,-40.2 63.5,-40.2"/>
<polygon fill="none" stroke="#000000" points="63.5,-40.2 63.5,-59.2 122.5,-59.2 122.5,-40.2 63.5,-40.2"/>
<text text-anchor="start" x="87.1105" y="-46.3" font-family="Helvetica,sans-Serif" font-size="11.00" fill="#000000">0 rows</text>
<polygon fill="#ffffff" stroke="transparent" points="122.5,-40.2 122.5,-59.2 171.5,-59.2 171.5,-40.2 122.5,-40.2"/>
<polygon fill="none" stroke="#000000" points="122.5,-40.2 122.5,-59.2 171.5,-59.2 171.5,-40.2 122.5,-40.2"/>
<text text-anchor="start" x="146.7904" y="-46.3" font-family="Helvetica,sans-Serif" font-size="11.00" fill="#000000">29 &gt;</text>
</a>
</g>
</g>
<!-- Competencies&#45;&gt;AspNetUsers -->
<g id="edge1" class="edge">
<title>Competencies:w&#45;&gt;AspNetUsers:e</title>
<path fill="none" stroke="#000000" d="M206.6662,-187.1697C191.5842,-172.9018 199.4614,-133.2 171.5,-133.2"/>
<polygon fill="#000000" stroke="#000000" points="212.9816,-189.4661 219.2697,-195.5833 216.7408,-190.8331 220.5,-192.2 220.5,-192.2 220.5,-192.2 216.7408,-190.8331 221.7303,-188.8167 212.9816,-189.4661 212.9816,-189.4661"/>
<ellipse fill="none" stroke="#000000" cx="209.9743" cy="-188.3725" rx="3.2" ry="3.2"/>
</g>
<!-- Competencies&#45;&gt;AspNetUsers -->
<g id="edge2" class="edge">
<title>Competencies:w&#45;&gt;AspNetUsers:e</title>
<path fill="none" stroke="#000000" d="M206.6217,-165.6631C194.0786,-155.783 192.8196,-133.2 171.5,-133.2"/>
<polygon fill="#000000" stroke="#000000" points="212.896,-167.7142 219.3814,-173.6218 216.698,-168.9571 220.5,-170.2 220.5,-170.2 220.5,-170.2 216.698,-168.9571 221.6186,-166.7782 212.896,-167.7142 212.896,-167.7142"/>
<ellipse fill="none" stroke="#000000" cx="209.8544" cy="-166.7198" rx="3.2" ry="3.2"/>
</g>
<!-- CompetencyLevelDescriptions -->
<g id="node3" class="node">
<title>CompetencyLevelDescriptions</title>
<g id="a_node3"><a xlink:href="../../tables/CompetencyLevelDescriptions.html" xlink:title="CompetencyLevelDescriptions" target="_top">
<polygon fill="#ffffff" stroke="transparent" points="390,-38.2 390,-282.2 684,-282.2 684,-38.2 390,-38.2"/>
<polygon fill="#f5f5f5" stroke="transparent" points="392,-257.2 392,-280.2 682,-280.2 682,-257.2 392,-257.2"/>
<polygon fill="none" stroke="#000000" points="392,-257.2 392,-280.2 682,-280.2 682,-257.2 392,-257.2"/>
<text text-anchor="start" x="397" y="-265.8" font-family="Helvetica,sans-Serif" font-weight="bold" font-size="11.00" fill="#000000">CompetencyLevelDescriptions</text>
<text text-anchor="start" x="647.0437" y="-265.3" font-family="Helvetica,sans-Serif" font-size="11.00" fill="#000000">[table]</text>
<polygon fill="none" stroke="#000000" points="392,-235.2 392,-257.2 588,-257.2 588,-235.2 392,-235.2"/>
<image xlink:href="../../images/primaryKeys.png" width="11px" height="12px" preserveAspectRatio="xMinYMin meet" x="397" y="-252.2"/>
<text text-anchor="start" x="412" y="-242.3" font-family="Helvetica,sans-Serif" font-size="11.00" fill="#000000">Id</text>
<polygon fill="none" stroke="#000000" points="588,-235.2 588,-257.2 682,-257.2 682,-235.2 588,-235.2"/>
<text text-anchor="start" x="590.9758" y="-242.9" font-family="Helvetica,sans-Serif" font-size="11.00" fill="#000000">uuid[2147483647]</text>
<polygon fill="#ffffff" stroke="transparent" points="392,-213.2 392,-235.2 588,-235.2 588,-213.2 392,-213.2"/>
<polygon fill="none" stroke="#000000" points="392,-213.2 392,-235.2 588,-235.2 588,-213.2 392,-213.2"/>
<image xlink:href="../../images/foreignKeys.png" width="11px" height="12px" preserveAspectRatio="xMinYMin meet" x="397" y="-230.2"/>
<text text-anchor="start" x="412" y="-220.3" font-family="Helvetica,sans-Serif" font-size="11.00" fill="#000000">CompetencyId</text>
<polygon fill="none" stroke="#000000" points="588,-213.2 588,-235.2 682,-235.2 682,-213.2 588,-213.2"/>
<text text-anchor="start" x="590.9758" y="-220.9" font-family="Helvetica,sans-Serif" font-size="11.00" fill="#000000">uuid[2147483647]</text>
<polygon fill="#ffffff" stroke="transparent" points="392,-191.2 392,-213.2 588,-213.2 588,-191.2 392,-191.2"/>
<polygon fill="none" stroke="#000000" points="392,-191.2 392,-213.2 588,-213.2 588,-191.2 392,-191.2"/>
<text text-anchor="start" x="412" y="-198.3" font-family="Helvetica,sans-Serif" font-size="11.00" fill="#000000">Level</text>
<polygon fill="none" stroke="#000000" points="588,-191.2 588,-213.2 682,-213.2 682,-191.2 588,-191.2"/>
<text text-anchor="start" x="591" y="-198.9" font-family="Helvetica,sans-Serif" font-size="11.00" fill="#000000">int4[10]</text>
<polygon fill="none" stroke="#000000" points="392,-169.2 392,-191.2 588,-191.2 588,-169.2 392,-169.2"/>
<text text-anchor="start" x="412" y="-176.3" font-family="Helvetica,sans-Serif" font-size="11.00" fill="#000000">Description</text>
<polygon fill="none" stroke="#000000" points="588,-169.2 588,-191.2 682,-191.2 682,-169.2 588,-169.2"/>
<text text-anchor="start" x="591" y="-176.9" font-family="Helvetica,sans-Serif" font-size="11.00" fill="#000000">text[2147483647]</text>
<polygon fill="none" stroke="#000000" points="392,-147.2 392,-169.2 588,-169.2 588,-147.2 392,-147.2"/>
<text text-anchor="start" x="412" y="-154.3" font-family="Helvetica,sans-Serif" font-size="11.00" fill="#000000">IsActive</text>
<polygon fill="none" stroke="#000000" points="588,-147.2 588,-169.2 682,-169.2 682,-147.2 588,-147.2"/>
<text text-anchor="start" x="591" y="-154.9" font-family="Helvetica,sans-Serif" font-size="11.00" fill="#000000">bool[1]</text>
<polygon fill="none" stroke="#000000" points="392,-125.2 392,-147.2 588,-147.2 588,-125.2 392,-125.2"/>
<text text-anchor="start" x="412" y="-132.3" font-family="Helvetica,sans-Serif" font-size="11.00" fill="#000000">CreatedAt</text>
<polygon fill="none" stroke="#000000" points="588,-125.2 588,-147.2 682,-147.2 682,-125.2 588,-125.2"/>
<text text-anchor="start" x="591" y="-132.9" font-family="Helvetica,sans-Serif" font-size="11.00" fill="#000000">timestamptz[35,6]</text>
<polygon fill="none" stroke="#000000" points="392,-103.2 392,-125.2 588,-125.2 588,-103.2 392,-103.2"/>
<text text-anchor="start" x="412" y="-110.3" font-family="Helvetica,sans-Serif" font-size="11.00" fill="#000000">UpdatedAt</text>
<polygon fill="none" stroke="#000000" points="588,-103.2 588,-125.2 682,-125.2 682,-103.2 588,-103.2"/>
<text text-anchor="start" x="591" y="-110.9" font-family="Helvetica,sans-Serif" font-size="11.00" fill="#000000">timestamptz[35,6]</text>
<polygon fill="#ffffff" stroke="transparent" points="392,-81.2 392,-103.2 588,-103.2 588,-81.2 392,-81.2"/>
<polygon fill="none" stroke="#000000" points="392,-81.2 392,-103.2 588,-103.2 588,-81.2 392,-81.2"/>
<image xlink:href="../../images/foreignKeys.png" width="11px" height="12px" preserveAspectRatio="xMinYMin meet" x="397" y="-98.2"/>
<text text-anchor="start" x="412" y="-88.3" font-family="Helvetica,sans-Serif" font-size="11.00" fill="#000000">CreatedByUserId</text>
<polygon fill="none" stroke="#000000" points="588,-81.2 588,-103.2 682,-103.2 682,-81.2 588,-81.2"/>
<text text-anchor="start" x="591" y="-88.9" font-family="Helvetica,sans-Serif" font-size="11.00" fill="#000000">text[2147483647]</text>
<polygon fill="#ffffff" stroke="transparent" points="392,-59.2 392,-81.2 588,-81.2 588,-59.2 392,-59.2"/>
<polygon fill="none" stroke="#000000" points="392,-59.2 392,-81.2 588,-81.2 588,-59.2 392,-59.2"/>
<image xlink:href="../../images/foreignKeys.png" width="11px" height="12px" preserveAspectRatio="xMinYMin meet" x="397" y="-76.2"/>
<text text-anchor="start" x="412" y="-66.3" font-family="Helvetica,sans-Serif" font-size="11.00" fill="#000000">UpdatedByUserId</text>
<polygon fill="none" stroke="#000000" points="588,-59.2 588,-81.2 682,-81.2 682,-59.2 588,-59.2"/>
<text text-anchor="start" x="591" y="-66.9" font-family="Helvetica,sans-Serif" font-size="11.00" fill="#000000">text[2147483647]</text>
<polygon fill="#ffffff" stroke="transparent" points="392,-40.2 392,-59.2 481,-59.2 481,-40.2 392,-40.2"/>
<polygon fill="none" stroke="#000000" points="392,-40.2 392,-59.2 481,-59.2 481,-40.2 392,-40.2"/>
<text text-anchor="start" x="395" y="-46.3" font-family="Helvetica,sans-Serif" font-size="11.00" fill="#000000">&lt; 3</text>
<polygon fill="#ffffff" stroke="transparent" points="481,-40.2 481,-59.2 588,-59.2 588,-40.2 481,-40.2"/>
<polygon fill="none" stroke="#000000" points="481,-40.2 481,-59.2 588,-59.2 588,-40.2 481,-40.2"/>
<text text-anchor="start" x="552.6105" y="-46.3" font-family="Helvetica,sans-Serif" font-size="11.00" fill="#000000">0 rows</text>
<polygon fill="#ffffff" stroke="transparent" points="588,-40.2 588,-59.2 682,-59.2 682,-40.2 588,-40.2"/>
<polygon fill="none" stroke="#000000" points="588,-40.2 588,-59.2 682,-59.2 682,-40.2 588,-40.2"/>
<text text-anchor="start" x="663.4053" y="-46.3" font-family="Helvetica,sans-Serif" font-size="11.00" fill="#000000">0 &gt;</text>
<polygon fill="none" stroke="#000000" stroke-width="2" points="391,-39.2 391,-281.2 683,-281.2 683,-39.2 391,-39.2"/>
</a>
</g>
</g>
<!-- CompetencyLevelDescriptions&#45;&gt;Competencies -->
<g id="edge3" class="edge">
<title>CompetencyLevelDescriptions:w&#45;&gt;Competencies:e</title>
<path fill="none" stroke="#000000" d="M377.6743,-222.6375C365.6162,-219.825 358.6602,-214.2 341.5,-214.2"/>
<polygon fill="#000000" stroke="#000000" points="384.0472,-223.3325 391.6096,-227.7788 388.0236,-223.7663 392,-224.2 392,-224.2 392,-224.2 388.0236,-223.7663 392.3904,-220.6212 384.0472,-223.3325 384.0472,-223.3325"/>
<ellipse fill="none" stroke="#000000" cx="380.866" cy="-222.9856" rx="3.2" ry="3.2"/>
</g>
<!-- CompetencyLevelDescriptions&#45;&gt;AspNetUsers -->
<g id="edge4" class="edge">
<title>CompetencyLevelDescriptions:w&#45;&gt;AspNetUsers:e</title>
<path fill="none" stroke="#000000" d="M377.5656,-92.151C308.5022,-91.7024 284.0172,-88.8127 212,-111.2 192.4391,-117.2807 191.9843,-133.2 171.5,-133.2"/>
<polygon fill="#000000" stroke="#000000" points="384,-92.1728 391.9878,-95.8 388,-92.1864 392,-92.2 392,-92.2 392,-92.2 388,-92.1864 392.0122,-88.6 384,-92.1728 384,-92.1728"/>
<ellipse fill="none" stroke="#000000" cx="380.8001" cy="-92.1619" rx="3.2" ry="3.2"/>
</g>
<!-- CompetencyLevelDescriptions&#45;&gt;AspNetUsers -->
<g id="edge5" class="edge">
<title>CompetencyLevelDescriptions:w&#45;&gt;AspNetUsers:e</title>
<path fill="none" stroke="#000000" d="M377.5172,-70.003C307.9451,-68.1226 279.2412,-54.1431 212,-88.2 187.996,-100.3577 198.4072,-133.2 171.5,-133.2"/>
<polygon fill="#000000" stroke="#000000" points="384.0007,-70.0912 391.951,-73.7997 388.0004,-70.1456 392,-70.2 392,-70.2 392,-70.2 388.0004,-70.1456 392.049,-66.6003 384.0007,-70.0912 384.0007,-70.0912"/>
<ellipse fill="none" stroke="#000000" cx="380.801" cy="-70.0476" rx="3.2" ry="3.2"/>
</g>
</g>
</svg>
