<?xml version="1.0" encoding="UTF-8" standalone="no"?>
<!DOCTYPE svg PUBLIC "-//W3C//DTD SVG 1.1//EN"
 "http://www.w3.org/Graphics/SVG/1.1/DTD/svg11.dtd">
<!-- Generated by graphviz version 2.40.1 (20161225.0304)
 -->
<!-- Title: oneDegreeRelationshipsDiagram Pages: 1 -->
<svg width="746pt" height="735pt"
 viewBox="0.00 0.00 746.00 735.20" xmlns="http://www.w3.org/2000/svg" xmlns:xlink="http://www.w3.org/1999/xlink">
<g id="graph0" class="graph" transform="scale(1 1) rotate(0) translate(4 731.2)">
<title>oneDegreeRelationshipsDiagram</title>
<polygon fill="#ffffff" stroke="transparent" points="-4,4 -4,-731.2 742,-731.2 742,4 -4,4"/>
<text text-anchor="middle" x="72.4936" y="-7.3" font-family="Helvetica,sans-Serif" font-size="11.00" fill="#000000">Generated by SchemaSpy</text>
<!-- Competencies -->
<g id="node1" class="node">
<title>Competencies</title>
<g id="a_node1"><a xlink:href="../../tables/Competencies.html" xlink:title="Competencies" target="_top">
<polygon fill="#ffffff" stroke="transparent" points="220,-293.7 220,-537.7 439,-537.7 439,-293.7 220,-293.7"/>
<polygon fill="#f5f5f5" stroke="transparent" points="222.5,-512.7 222.5,-535.7 437.5,-535.7 437.5,-512.7 222.5,-512.7"/>
<polygon fill="none" stroke="#000000" points="222.5,-512.7 222.5,-535.7 437.5,-535.7 437.5,-512.7 222.5,-512.7"/>
<text text-anchor="start" x="227.5" y="-521.3" font-family="Helvetica,sans-Serif" font-weight="bold" font-size="11.00" fill="#000000">Competencies</text>
<text text-anchor="start" x="402.5437" y="-520.8" font-family="Helvetica,sans-Serif" font-size="11.00" fill="#000000">[table]</text>
<polygon fill="none" stroke="#000000" points="222.5,-490.7 222.5,-512.7 343.5,-512.7 343.5,-490.7 222.5,-490.7"/>
<image xlink:href="../../images/primaryKeys.png" width="11px" height="12px" preserveAspectRatio="xMinYMin meet" x="227.5" y="-507.7"/>
<text text-anchor="start" x="242.5" y="-497.8" font-family="Helvetica,sans-Serif" font-size="11.00" fill="#000000">Id</text>
<polygon fill="none" stroke="#000000" points="343.5,-490.7 343.5,-512.7 437.5,-512.7 437.5,-490.7 343.5,-490.7"/>
<text text-anchor="start" x="346.4758" y="-498.4" font-family="Helvetica,sans-Serif" font-size="11.00" fill="#000000">uuid[2147483647]</text>
<polygon fill="none" stroke="#000000" points="222.5,-468.7 222.5,-490.7 343.5,-490.7 343.5,-468.7 222.5,-468.7"/>
<text text-anchor="start" x="242.5" y="-475.8" font-family="Helvetica,sans-Serif" font-size="11.00" fill="#000000">Name</text>
<polygon fill="none" stroke="#000000" points="343.5,-468.7 343.5,-490.7 437.5,-490.7 437.5,-468.7 343.5,-468.7"/>
<text text-anchor="start" x="346.5" y="-476.4" font-family="Helvetica,sans-Serif" font-size="11.00" fill="#000000">text[2147483647]</text>
<polygon fill="none" stroke="#000000" points="222.5,-446.7 222.5,-468.7 343.5,-468.7 343.5,-446.7 222.5,-446.7"/>
<text text-anchor="start" x="242.5" y="-453.8" font-family="Helvetica,sans-Serif" font-size="11.00" fill="#000000">Description</text>
<polygon fill="none" stroke="#000000" points="343.5,-446.7 343.5,-468.7 437.5,-468.7 437.5,-446.7 343.5,-446.7"/>
<text text-anchor="start" x="346.5" y="-454.4" font-family="Helvetica,sans-Serif" font-size="11.00" fill="#000000">text[2147483647]</text>
<polygon fill="none" stroke="#000000" points="222.5,-424.7 222.5,-446.7 343.5,-446.7 343.5,-424.7 222.5,-424.7"/>
<text text-anchor="start" x="242.5" y="-431.8" font-family="Helvetica,sans-Serif" font-size="11.00" fill="#000000">Type</text>
<polygon fill="none" stroke="#000000" points="343.5,-424.7 343.5,-446.7 437.5,-446.7 437.5,-424.7 343.5,-424.7"/>
<text text-anchor="start" x="346.5" y="-432.4" font-family="Helvetica,sans-Serif" font-size="11.00" fill="#000000">int4[10]</text>
<polygon fill="none" stroke="#000000" points="222.5,-402.7 222.5,-424.7 343.5,-424.7 343.5,-402.7 222.5,-402.7"/>
<text text-anchor="start" x="242.5" y="-409.8" font-family="Helvetica,sans-Serif" font-size="11.00" fill="#000000">IsActive</text>
<polygon fill="none" stroke="#000000" points="343.5,-402.7 343.5,-424.7 437.5,-424.7 437.5,-402.7 343.5,-402.7"/>
<text text-anchor="start" x="346.5" y="-410.4" font-family="Helvetica,sans-Serif" font-size="11.00" fill="#000000">bool[1]</text>
<polygon fill="none" stroke="#000000" points="222.5,-380.7 222.5,-402.7 343.5,-402.7 343.5,-380.7 222.5,-380.7"/>
<text text-anchor="start" x="242.5" y="-387.8" font-family="Helvetica,sans-Serif" font-size="11.00" fill="#000000">CreatedAt</text>
<polygon fill="none" stroke="#000000" points="343.5,-380.7 343.5,-402.7 437.5,-402.7 437.5,-380.7 343.5,-380.7"/>
<text text-anchor="start" x="346.5" y="-388.4" font-family="Helvetica,sans-Serif" font-size="11.00" fill="#000000">timestamptz[35,6]</text>
<polygon fill="none" stroke="#000000" points="222.5,-358.7 222.5,-380.7 343.5,-380.7 343.5,-358.7 222.5,-358.7"/>
<text text-anchor="start" x="242.5" y="-365.8" font-family="Helvetica,sans-Serif" font-size="11.00" fill="#000000">UpdatedAt</text>
<polygon fill="none" stroke="#000000" points="343.5,-358.7 343.5,-380.7 437.5,-380.7 437.5,-358.7 343.5,-358.7"/>
<text text-anchor="start" x="346.5" y="-366.4" font-family="Helvetica,sans-Serif" font-size="11.00" fill="#000000">timestamptz[35,6]</text>
<polygon fill="#ffffff" stroke="transparent" points="222.5,-336.7 222.5,-358.7 343.5,-358.7 343.5,-336.7 222.5,-336.7"/>
<polygon fill="none" stroke="#000000" points="222.5,-336.7 222.5,-358.7 343.5,-358.7 343.5,-336.7 222.5,-336.7"/>
<image xlink:href="../../images/foreignKeys.png" width="11px" height="12px" preserveAspectRatio="xMinYMin meet" x="227.5" y="-353.7"/>
<text text-anchor="start" x="242.5" y="-343.8" font-family="Helvetica,sans-Serif" font-size="11.00" fill="#000000">CreatedByUserId</text>
<polygon fill="none" stroke="#000000" points="343.5,-336.7 343.5,-358.7 437.5,-358.7 437.5,-336.7 343.5,-336.7"/>
<text text-anchor="start" x="346.5" y="-344.4" font-family="Helvetica,sans-Serif" font-size="11.00" fill="#000000">text[2147483647]</text>
<polygon fill="#ffffff" stroke="transparent" points="222.5,-314.7 222.5,-336.7 343.5,-336.7 343.5,-314.7 222.5,-314.7"/>
<polygon fill="none" stroke="#000000" points="222.5,-314.7 222.5,-336.7 343.5,-336.7 343.5,-314.7 222.5,-314.7"/>
<image xlink:href="../../images/foreignKeys.png" width="11px" height="12px" preserveAspectRatio="xMinYMin meet" x="227.5" y="-331.7"/>
<text text-anchor="start" x="242.5" y="-321.8" font-family="Helvetica,sans-Serif" font-size="11.00" fill="#000000">UpdatedByUserId</text>
<polygon fill="none" stroke="#000000" points="343.5,-314.7 343.5,-336.7 437.5,-336.7 437.5,-314.7 343.5,-314.7"/>
<text text-anchor="start" x="346.5" y="-322.4" font-family="Helvetica,sans-Serif" font-size="11.00" fill="#000000">text[2147483647]</text>
<polygon fill="#ffffff" stroke="transparent" points="222.5,-295.7 222.5,-314.7 274.5,-314.7 274.5,-295.7 222.5,-295.7"/>
<polygon fill="none" stroke="#000000" points="222.5,-295.7 222.5,-314.7 274.5,-314.7 274.5,-295.7 222.5,-295.7"/>
<text text-anchor="start" x="225.5" y="-301.8" font-family="Helvetica,sans-Serif" font-size="11.00" fill="#000000">&lt; 2</text>
<polygon fill="#ffffff" stroke="transparent" points="274.5,-295.7 274.5,-314.7 343.5,-314.7 343.5,-295.7 274.5,-295.7"/>
<polygon fill="none" stroke="#000000" points="274.5,-295.7 274.5,-314.7 343.5,-314.7 343.5,-295.7 274.5,-295.7"/>
<text text-anchor="start" x="308.1105" y="-301.8" font-family="Helvetica,sans-Serif" font-size="11.00" fill="#000000">0 rows</text>
<polygon fill="#ffffff" stroke="transparent" points="343.5,-295.7 343.5,-314.7 437.5,-314.7 437.5,-295.7 343.5,-295.7"/>
<polygon fill="none" stroke="#000000" points="343.5,-295.7 343.5,-314.7 437.5,-314.7 437.5,-295.7 343.5,-295.7"/>
<text text-anchor="start" x="418.9053" y="-301.8" font-family="Helvetica,sans-Serif" font-size="11.00" fill="#000000">4 &gt;</text>
<polygon fill="none" stroke="#000000" stroke-width="2" points="221,-294.7 221,-536.7 438,-536.7 438,-294.7 221,-294.7"/>
</a>
</g>
</g>
<!-- AspNetUsers -->
<g id="node2" class="node">
<title>AspNetUsers</title>
<g id="a_node2"><a xlink:href="../../tables/AspNetUsers.html" xlink:title="AspNetUsers" target="_top">
<polygon fill="#ffffff" stroke="transparent" points="8,-205.2 8,-332.2 171,-332.2 171,-205.2 8,-205.2"/>
<polygon fill="#f5f5f5" stroke="transparent" points="8.5,-308.7 8.5,-331.7 171.5,-331.7 171.5,-308.7 8.5,-308.7"/>
<polygon fill="none" stroke="#000000" points="8.5,-308.7 8.5,-331.7 171.5,-331.7 171.5,-308.7 8.5,-308.7"/>
<text text-anchor="start" x="13.5" y="-317.3" font-family="Helvetica,sans-Serif" font-weight="bold" font-size="11.00" fill="#000000">AspNetUsers</text>
<text text-anchor="start" x="136.5437" y="-316.8" font-family="Helvetica,sans-Serif" font-size="11.00" fill="#000000">[table]</text>
<polygon fill="none" stroke="#000000" points="8.5,-286.7 8.5,-308.7 171.5,-308.7 171.5,-286.7 8.5,-286.7"/>
<image xlink:href="../../images/primaryKeys.png" width="11px" height="12px" preserveAspectRatio="xMinYMin meet" x="13.5" y="-303.7"/>
<text text-anchor="start" x="28.5" y="-293.8" font-family="Helvetica,sans-Serif" font-size="11.00" fill="#000000">Id</text>
<polygon fill="#ffffff" stroke="transparent" points="8.5,-264.7 8.5,-286.7 171.5,-286.7 171.5,-264.7 8.5,-264.7"/>
<polygon fill="none" stroke="#000000" points="8.5,-264.7 8.5,-286.7 171.5,-286.7 171.5,-264.7 8.5,-264.7"/>
<text text-anchor="start" x="28.5" y="-271.8" font-family="Helvetica,sans-Serif" font-size="11.00" fill="#000000">NormalizedUserName</text>
<polygon fill="#ffffff" stroke="transparent" points="8.5,-242.7 8.5,-264.7 171.5,-264.7 171.5,-242.7 8.5,-242.7"/>
<polygon fill="none" stroke="#000000" points="8.5,-242.7 8.5,-264.7 171.5,-264.7 171.5,-242.7 8.5,-242.7"/>
<text text-anchor="start" x="28.5" y="-249.8" font-family="Helvetica,sans-Serif" font-size="11.00" fill="#000000">NormalizedEmail</text>
<polygon fill="none" stroke="#000000" points="8.5,-223.7 8.5,-242.7 171.5,-242.7 171.5,-223.7 8.5,-223.7"/>
<text text-anchor="start" x="11.5" y="-229.8" font-family="Helvetica,sans-Serif" font-size="11.00" fill="#000000">...</text>
<polygon fill="#ffffff" stroke="transparent" points="8.5,-204.7 8.5,-223.7 63.5,-223.7 63.5,-204.7 8.5,-204.7"/>
<polygon fill="none" stroke="#000000" points="8.5,-204.7 8.5,-223.7 63.5,-223.7 63.5,-204.7 8.5,-204.7"/>
<text text-anchor="start" x="11.5" y="-210.8" font-family="Helvetica,sans-Serif" font-size="11.00" fill="#000000"> &#160;</text>
<polygon fill="#ffffff" stroke="transparent" points="63.5,-204.7 63.5,-223.7 122.5,-223.7 122.5,-204.7 63.5,-204.7"/>
<polygon fill="none" stroke="#000000" points="63.5,-204.7 63.5,-223.7 122.5,-223.7 122.5,-204.7 63.5,-204.7"/>
<text text-anchor="start" x="87.1105" y="-210.8" font-family="Helvetica,sans-Serif" font-size="11.00" fill="#000000">0 rows</text>
<polygon fill="#ffffff" stroke="transparent" points="122.5,-204.7 122.5,-223.7 171.5,-223.7 171.5,-204.7 122.5,-204.7"/>
<polygon fill="none" stroke="#000000" points="122.5,-204.7 122.5,-223.7 171.5,-223.7 171.5,-204.7 122.5,-204.7"/>
<text text-anchor="start" x="146.7904" y="-210.8" font-family="Helvetica,sans-Serif" font-size="11.00" fill="#000000">29 &gt;</text>
</a>
</g>
</g>
<!-- Competencies&#45;&gt;AspNetUsers -->
<g id="edge1" class="edge">
<title>Competencies:w&#45;&gt;AspNetUsers:e</title>
<path fill="none" stroke="#000000" d="M208.7263,-343.0857C193.8844,-330.7078 197.291,-297.7 171.5,-297.7"/>
<polygon fill="#000000" stroke="#000000" points="214.9143,-345.1587 221.3564,-351.1135 218.7072,-346.4294 222.5,-347.7 222.5,-347.7 222.5,-347.7 218.7072,-346.4294 223.6436,-344.2865 214.9143,-345.1587 214.9143,-345.1587"/>
<ellipse fill="none" stroke="#000000" cx="211.8801" cy="-344.1422" rx="3.2" ry="3.2"/>
</g>
<!-- Competencies&#45;&gt;AspNetUsers -->
<g id="edge2" class="edge">
<title>Competencies:w&#45;&gt;AspNetUsers:e</title>
<path fill="none" stroke="#000000" d="M208.3987,-322.0395C195.6024,-314.4498 191.4996,-297.7 171.5,-297.7"/>
<polygon fill="#000000" stroke="#000000" points="214.7566,-323.6899 221.5954,-329.1845 218.6283,-324.6949 222.5,-325.7 222.5,-325.7 222.5,-325.7 218.6283,-324.6949 223.4046,-322.2155 214.7566,-323.6899 214.7566,-323.6899"/>
<ellipse fill="none" stroke="#000000" cx="211.6593" cy="-322.8858" rx="3.2" ry="3.2"/>
</g>
<!-- CompetencyLevelDescriptions -->
<g id="node3" class="node">
<title>CompetencyLevelDescriptions</title>
<g id="a_node3"><a xlink:href="../../tables/CompetencyLevelDescriptions.html" xlink:title="CompetencyLevelDescriptions" target="_top">
<polygon fill="#ffffff" stroke="transparent" points="502,-552.2 502,-723.2 716,-723.2 716,-552.2 502,-552.2"/>
<polygon fill="#f5f5f5" stroke="transparent" points="502,-699.7 502,-722.7 716,-722.7 716,-699.7 502,-699.7"/>
<polygon fill="none" stroke="#000000" points="502,-699.7 502,-722.7 716,-722.7 716,-699.7 502,-699.7"/>
<text text-anchor="start" x="507" y="-708.3" font-family="Helvetica,sans-Serif" font-weight="bold" font-size="11.00" fill="#000000">CompetencyLevelDescriptions</text>
<text text-anchor="start" x="681.5219" y="-707.8" font-family="Helvetica,sans-Serif" font-size="11.00" fill="#000000">[table]</text>
<polygon fill="none" stroke="#000000" points="502,-677.7 502,-699.7 716,-699.7 716,-677.7 502,-677.7"/>
<image xlink:href="../../images/primaryKeys.png" width="11px" height="12px" preserveAspectRatio="xMinYMin meet" x="507" y="-694.7"/>
<text text-anchor="start" x="531" y="-684.8" font-family="Helvetica,sans-Serif" font-size="11.00" fill="#000000">Id</text>
<polygon fill="#ffffff" stroke="transparent" points="502,-655.7 502,-677.7 716,-677.7 716,-655.7 502,-655.7"/>
<polygon fill="none" stroke="#000000" points="502,-655.7 502,-677.7 716,-677.7 716,-655.7 502,-655.7"/>
<image xlink:href="../../images/foreignKeys.png" width="11px" height="12px" preserveAspectRatio="xMinYMin meet" x="507" y="-672.7"/>
<text text-anchor="start" x="531" y="-662.8" font-family="Helvetica,sans-Serif" font-size="11.00" fill="#000000">CompetencyId</text>
<polygon fill="#ffffff" stroke="transparent" points="502,-633.7 502,-655.7 716,-655.7 716,-633.7 502,-633.7"/>
<polygon fill="none" stroke="#000000" points="502,-633.7 502,-655.7 716,-655.7 716,-633.7 502,-633.7"/>
<text text-anchor="start" x="531" y="-640.8" font-family="Helvetica,sans-Serif" font-size="11.00" fill="#000000">Level</text>
<polygon fill="#ffffff" stroke="transparent" points="502,-611.7 502,-633.7 716,-633.7 716,-611.7 502,-611.7"/>
<polygon fill="none" stroke="#000000" points="502,-611.7 502,-633.7 716,-633.7 716,-611.7 502,-611.7"/>
<image xlink:href="../../images/foreignKeys.png" width="11px" height="12px" preserveAspectRatio="xMinYMin meet" x="507" y="-628.7"/>
<text text-anchor="start" x="531" y="-618.8" font-family="Helvetica,sans-Serif" font-size="11.00" fill="#000000">CreatedByUserId</text>
<polygon fill="#ffffff" stroke="transparent" points="502,-589.7 502,-611.7 716,-611.7 716,-589.7 502,-589.7"/>
<polygon fill="none" stroke="#000000" points="502,-589.7 502,-611.7 716,-611.7 716,-589.7 502,-589.7"/>
<image xlink:href="../../images/foreignKeys.png" width="11px" height="12px" preserveAspectRatio="xMinYMin meet" x="507" y="-606.7"/>
<text text-anchor="start" x="531" y="-596.8" font-family="Helvetica,sans-Serif" font-size="11.00" fill="#000000">UpdatedByUserId</text>
<polygon fill="none" stroke="#000000" points="502,-570.7 502,-589.7 716,-589.7 716,-570.7 502,-570.7"/>
<text text-anchor="start" x="505" y="-576.8" font-family="Helvetica,sans-Serif" font-size="11.00" fill="#000000">...</text>
<polygon fill="#ffffff" stroke="transparent" points="502,-551.7 502,-570.7 594,-570.7 594,-551.7 502,-551.7"/>
<polygon fill="none" stroke="#000000" points="502,-551.7 502,-570.7 594,-570.7 594,-551.7 502,-551.7"/>
<text text-anchor="start" x="505" y="-557.8" font-family="Helvetica,sans-Serif" font-size="11.00" fill="#000000">&lt; 3</text>
<polygon fill="#ffffff" stroke="transparent" points="594,-551.7 594,-570.7 668,-570.7 668,-551.7 594,-551.7"/>
<polygon fill="none" stroke="#000000" points="594,-551.7 594,-570.7 668,-570.7 668,-551.7 594,-551.7"/>
<text text-anchor="start" x="632.6105" y="-557.8" font-family="Helvetica,sans-Serif" font-size="11.00" fill="#000000">0 rows</text>
<polygon fill="#ffffff" stroke="transparent" points="668,-551.7 668,-570.7 716,-570.7 716,-551.7 668,-551.7"/>
<polygon fill="none" stroke="#000000" points="668,-551.7 668,-570.7 716,-570.7 716,-551.7 668,-551.7"/>
<text text-anchor="start" x="706.8862" y="-557.8" font-family="Helvetica,sans-Serif" font-size="11.00" fill="#000000"> &#160;</text>
</a>
</g>
</g>
<!-- CompetencyLevelDescriptions&#45;&gt;Competencies -->
<g id="edge3" class="edge">
<title>CompetencyLevelDescriptions:w&#45;&gt;Competencies:e</title>
<path fill="none" stroke="#000000" d="M487.4906,-664.2395C435.8037,-643.714 510.5473,-501.7 437.5,-501.7"/>
<polygon fill="#000000" stroke="#000000" points="494.1126,-665.3624 501.3981,-670.2493 498.0563,-666.0312 502,-666.7 502,-666.7 502,-666.7 498.0563,-666.0312 502.6019,-663.1507 494.1126,-665.3624 494.1126,-665.3624"/>
<ellipse fill="none" stroke="#000000" cx="490.9576" cy="-664.8274" rx="3.2" ry="3.2"/>
</g>
<!-- CompetencyLevelDescriptions&#45;&gt;AspNetUsers -->
<g id="edge4" class="edge">
<title>CompetencyLevelDescriptions:w&#45;&gt;AspNetUsers:e</title>
<path fill="none" stroke="#000000" d="M487.4502,-622.9428C367.1587,-626.9344 301.4016,-677.6802 212,-590.7 164.8881,-544.8641 237.2302,-297.7 171.5,-297.7"/>
<polygon fill="#000000" stroke="#000000" points="494.0011,-622.8335 502.0601,-626.2995 498.0006,-622.7668 502,-622.7 502,-622.7 502,-622.7 498.0006,-622.7668 501.9399,-619.1005 494.0011,-622.8335 494.0011,-622.8335"/>
<ellipse fill="none" stroke="#000000" cx="490.8016" cy="-622.8869" rx="3.2" ry="3.2"/>
</g>
<!-- CompetencyLevelDescriptions&#45;&gt;AspNetUsers -->
<g id="edge5" class="edge">
<title>CompetencyLevelDescriptions:w&#45;&gt;AspNetUsers:e</title>
<path fill="none" stroke="#000000" d="M487.7095,-598.4573C429.5923,-588.8133 214.4984,-551.2424 212,-548.7 172.3991,-508.402 227.9992,-297.7 171.5,-297.7"/>
<polygon fill="#000000" stroke="#000000" points="494.0967,-599.4596 501.4418,-604.2565 498.0484,-600.0798 502,-600.7 502,-600.7 502,-600.7 498.0484,-600.0798 502.5582,-597.1435 494.0967,-599.4596 494.0967,-599.4596"/>
<ellipse fill="none" stroke="#000000" cx="490.9354" cy="-598.9635" rx="3.2" ry="3.2"/>
</g>
<!-- CompetencyTechnicalCareer -->
<g id="node4" class="node">
<title>CompetencyTechnicalCareer</title>
<g id="a_node4"><a xlink:href="../../tables/CompetencyTechnicalCareer.html" xlink:title="CompetencyTechnicalCareer" target="_top">
<polygon fill="#ffffff" stroke="transparent" points="507,-444.7 507,-530.7 711,-530.7 711,-444.7 507,-444.7"/>
<polygon fill="#f5f5f5" stroke="transparent" points="507,-507.7 507,-530.7 711,-530.7 711,-507.7 507,-507.7"/>
<polygon fill="none" stroke="#000000" points="507,-507.7 507,-530.7 711,-530.7 711,-507.7 507,-507.7"/>
<text text-anchor="start" x="512" y="-516.3" font-family="Helvetica,sans-Serif" font-weight="bold" font-size="11.00" fill="#000000">CompetencyTechnicalCareer</text>
<text text-anchor="start" x="676.5219" y="-515.8" font-family="Helvetica,sans-Serif" font-size="11.00" fill="#000000">[table]</text>
<polygon fill="none" stroke="#000000" points="507,-485.7 507,-507.7 711,-507.7 711,-485.7 507,-485.7"/>
<image xlink:href="../../images/primaryKeys.png" width="11px" height="12px" preserveAspectRatio="xMinYMin meet" x="512" y="-502.7"/>
<text text-anchor="start" x="536" y="-492.8" font-family="Helvetica,sans-Serif" font-size="11.00" fill="#000000">CompetenciesId</text>
<polygon fill="none" stroke="#000000" points="507,-463.7 507,-485.7 711,-485.7 711,-463.7 507,-463.7"/>
<image xlink:href="../../images/primaryKeys.png" width="11px" height="12px" preserveAspectRatio="xMinYMin meet" x="512" y="-480.7"/>
<text text-anchor="start" x="536" y="-470.8" font-family="Helvetica,sans-Serif" font-size="11.00" fill="#000000">TechnicalCareersId</text>
<polygon fill="#ffffff" stroke="transparent" points="507,-444.7 507,-463.7 594,-463.7 594,-444.7 507,-444.7"/>
<polygon fill="none" stroke="#000000" points="507,-444.7 507,-463.7 594,-463.7 594,-444.7 507,-444.7"/>
<text text-anchor="start" x="510" y="-450.8" font-family="Helvetica,sans-Serif" font-size="11.00" fill="#000000">&lt; 2</text>
<polygon fill="#ffffff" stroke="transparent" points="594,-444.7 594,-463.7 665,-463.7 665,-444.7 594,-444.7"/>
<polygon fill="none" stroke="#000000" points="594,-444.7 594,-463.7 665,-463.7 665,-444.7 594,-444.7"/>
<text text-anchor="start" x="629.6105" y="-450.8" font-family="Helvetica,sans-Serif" font-size="11.00" fill="#000000">0 rows</text>
<polygon fill="#ffffff" stroke="transparent" points="665,-444.7 665,-463.7 711,-463.7 711,-444.7 665,-444.7"/>
<polygon fill="none" stroke="#000000" points="665,-444.7 665,-463.7 711,-463.7 711,-444.7 665,-444.7"/>
<text text-anchor="start" x="701.8862" y="-450.8" font-family="Helvetica,sans-Serif" font-size="11.00" fill="#000000"> &#160;</text>
</a>
</g>
</g>
<!-- CompetencyTechnicalCareer&#45;&gt;Competencies -->
<g id="edge6" class="edge">
<title>CompetencyTechnicalCareer:w&#45;&gt;Competencies:e</title>
<path fill="none" stroke="#000000" d="M492.5843,-497.1092C472.6493,-498.3033 463.025,-501.7 437.5,-501.7"/>
<polygon fill="#000000" stroke="#000000" points="499.0032,-496.927 507.1022,-500.2986 503.0016,-496.8135 507,-496.7 507,-496.7 507,-496.7 503.0016,-496.8135 506.8978,-493.1014 499.0032,-496.927 499.0032,-496.927"/>
<ellipse fill="none" stroke="#000000" cx="495.8045" cy="-497.0178" rx="3.2" ry="3.2"/>
</g>
<!-- FormQuestions -->
<g id="node5" class="node">
<title>FormQuestions</title>
<g id="a_node5"><a xlink:href="../../tables/FormQuestions.html" xlink:title="FormQuestions" target="_top">
<polygon fill="#ffffff" stroke="transparent" points="545.5,-274.2 545.5,-423.2 672.5,-423.2 672.5,-274.2 545.5,-274.2"/>
<polygon fill="#f5f5f5" stroke="transparent" points="546,-399.7 546,-422.7 673,-422.7 673,-399.7 546,-399.7"/>
<polygon fill="none" stroke="#000000" points="546,-399.7 546,-422.7 673,-422.7 673,-399.7 546,-399.7"/>
<text text-anchor="start" x="551" y="-408.3" font-family="Helvetica,sans-Serif" font-weight="bold" font-size="11.00" fill="#000000">FormQuestions</text>
<text text-anchor="start" x="638.5219" y="-407.8" font-family="Helvetica,sans-Serif" font-size="11.00" fill="#000000">[table]</text>
<polygon fill="none" stroke="#000000" points="546,-377.7 546,-399.7 673,-399.7 673,-377.7 546,-377.7"/>
<image xlink:href="../../images/primaryKeys.png" width="11px" height="12px" preserveAspectRatio="xMinYMin meet" x="551" y="-394.7"/>
<text text-anchor="start" x="569" y="-384.8" font-family="Helvetica,sans-Serif" font-size="11.00" fill="#000000">Id</text>
<polygon fill="#ffffff" stroke="transparent" points="546,-355.7 546,-377.7 673,-377.7 673,-355.7 546,-355.7"/>
<polygon fill="none" stroke="#000000" points="546,-355.7 546,-377.7 673,-377.7 673,-355.7 546,-355.7"/>
<image xlink:href="../../images/foreignKeys.png" width="11px" height="12px" preserveAspectRatio="xMinYMin meet" x="551" y="-372.7"/>
<text text-anchor="start" x="569" y="-362.8" font-family="Helvetica,sans-Serif" font-size="11.00" fill="#000000">CompetencyId</text>
<polygon fill="#ffffff" stroke="transparent" points="546,-333.7 546,-355.7 673,-355.7 673,-333.7 546,-333.7"/>
<polygon fill="none" stroke="#000000" points="546,-333.7 546,-355.7 673,-355.7 673,-333.7 546,-333.7"/>
<image xlink:href="../../images/foreignKeys.png" width="11px" height="12px" preserveAspectRatio="xMinYMin meet" x="551" y="-350.7"/>
<text text-anchor="start" x="569" y="-340.8" font-family="Helvetica,sans-Serif" font-size="11.00" fill="#000000">CreatedByUserId</text>
<polygon fill="#ffffff" stroke="transparent" points="546,-311.7 546,-333.7 673,-333.7 673,-311.7 546,-311.7"/>
<polygon fill="none" stroke="#000000" points="546,-311.7 546,-333.7 673,-333.7 673,-311.7 546,-311.7"/>
<image xlink:href="../../images/foreignKeys.png" width="11px" height="12px" preserveAspectRatio="xMinYMin meet" x="551" y="-328.7"/>
<text text-anchor="start" x="569" y="-318.8" font-family="Helvetica,sans-Serif" font-size="11.00" fill="#000000">UpdatedByUserId</text>
<polygon fill="none" stroke="#000000" points="546,-292.7 546,-311.7 673,-311.7 673,-292.7 546,-292.7"/>
<text text-anchor="start" x="549" y="-298.8" font-family="Helvetica,sans-Serif" font-size="11.00" fill="#000000">...</text>
<polygon fill="#ffffff" stroke="transparent" points="546,-273.7 546,-292.7 590,-292.7 590,-273.7 546,-273.7"/>
<polygon fill="none" stroke="#000000" points="546,-273.7 546,-292.7 590,-292.7 590,-273.7 546,-273.7"/>
<text text-anchor="start" x="549" y="-279.8" font-family="Helvetica,sans-Serif" font-size="11.00" fill="#000000">&lt; 3</text>
<polygon fill="#ffffff" stroke="transparent" points="590,-273.7 590,-292.7 640,-292.7 640,-273.7 590,-273.7"/>
<polygon fill="none" stroke="#000000" points="590,-273.7 590,-292.7 640,-292.7 640,-273.7 590,-273.7"/>
<text text-anchor="start" x="604.6105" y="-279.8" font-family="Helvetica,sans-Serif" font-size="11.00" fill="#000000">0 rows</text>
<polygon fill="#ffffff" stroke="transparent" points="640,-273.7 640,-292.7 673,-292.7 673,-273.7 640,-273.7"/>
<polygon fill="none" stroke="#000000" points="640,-273.7 640,-292.7 673,-292.7 673,-273.7 640,-273.7"/>
<text text-anchor="start" x="654.4053" y="-279.8" font-family="Helvetica,sans-Serif" font-size="11.00" fill="#000000">1 &gt;</text>
</a>
</g>
</g>
<!-- FormQuestions&#45;&gt;Competencies -->
<g id="edge7" class="edge">
<title>FormQuestions:w&#45;&gt;Competencies:e</title>
<path fill="none" stroke="#000000" d="M531.3942,-368.4623C503.9688,-375.946 502.6195,-406.0242 480,-434.7 458.1607,-462.3866 472.7634,-501.7 437.5,-501.7"/>
<polygon fill="#000000" stroke="#000000" points="538.0576,-367.6584 546.4313,-370.2741 542.0288,-367.1792 546,-366.7 546,-366.7 546,-366.7 542.0288,-367.1792 545.5687,-363.1259 538.0576,-367.6584 538.0576,-367.6584"/>
<ellipse fill="none" stroke="#000000" cx="534.8806" cy="-368.0417" rx="3.2" ry="3.2"/>
</g>
<!-- FormQuestions&#45;&gt;AspNetUsers -->
<g id="edge8" class="edge">
<title>FormQuestions:w&#45;&gt;AspNetUsers:e</title>
<path fill="none" stroke="#000000" d="M531.3279,-343.2281C494.2458,-335.1699 491.4799,-296.3032 447,-283.7 346.5116,-255.227 315.0016,-266.3995 212,-283.7 193.218,-286.8547 190.5451,-297.7 171.5,-297.7"/>
<polygon fill="#000000" stroke="#000000" points="538.04,-343.9014 545.6406,-348.282 542.02,-344.3007 546,-344.7 546,-344.7 546,-344.7 542.02,-344.3007 546.3594,-341.118 538.04,-343.9014 538.04,-343.9014"/>
<ellipse fill="none" stroke="#000000" cx="534.8559" cy="-343.582" rx="3.2" ry="3.2"/>
</g>
<!-- FormQuestions&#45;&gt;AspNetUsers -->
<g id="edge9" class="edge">
<title>FormQuestions:w&#45;&gt;AspNetUsers:e</title>
<path fill="none" stroke="#000000" d="M531.3814,-321.2518C494.3989,-313.3234 491.3263,-275.0838 447,-262.7 346.4075,-234.5967 309.8833,-226.265 212,-262.7 189.7043,-270.9991 195.2902,-297.7 171.5,-297.7"/>
<polygon fill="#000000" stroke="#000000" points="538.039,-321.9113 545.6451,-326.2825 542.0195,-322.3056 546,-322.7 546,-322.7 546,-322.7 542.0195,-322.3056 546.3549,-319.1175 538.039,-321.9113 538.039,-321.9113"/>
<ellipse fill="none" stroke="#000000" cx="534.8546" cy="-321.5958" rx="3.2" ry="3.2"/>
</g>
<!-- ProfessorCompetencyAssignments -->
<g id="node6" class="node">
<title>ProfessorCompetencyAssignments</title>
<g id="a_node6"><a xlink:href="../../tables/ProfessorCompetencyAssignments.html" xlink:title="ProfessorCompetencyAssignments" target="_top">
<polygon fill="#ffffff" stroke="transparent" points="488,-38.2 488,-253.2 730,-253.2 730,-38.2 488,-38.2"/>
<polygon fill="#f5f5f5" stroke="transparent" points="488,-229.7 488,-252.7 730,-252.7 730,-229.7 488,-229.7"/>
<polygon fill="none" stroke="#000000" points="488,-229.7 488,-252.7 730,-252.7 730,-229.7 488,-229.7"/>
<text text-anchor="start" x="493" y="-238.3" font-family="Helvetica,sans-Serif" font-weight="bold" font-size="11.00" fill="#000000">ProfessorCompetencyAssignments</text>
<text text-anchor="start" x="695.5219" y="-237.8" font-family="Helvetica,sans-Serif" font-size="11.00" fill="#000000">[table]</text>
<polygon fill="none" stroke="#000000" points="488,-207.7 488,-229.7 730,-229.7 730,-207.7 488,-207.7"/>
<image xlink:href="../../images/primaryKeys.png" width="11px" height="12px" preserveAspectRatio="xMinYMin meet" x="493" y="-224.7"/>
<text text-anchor="start" x="517" y="-214.8" font-family="Helvetica,sans-Serif" font-size="11.00" fill="#000000">Id</text>
<polygon fill="#ffffff" stroke="transparent" points="488,-185.7 488,-207.7 730,-207.7 730,-185.7 488,-185.7"/>
<polygon fill="none" stroke="#000000" points="488,-185.7 488,-207.7 730,-207.7 730,-185.7 488,-185.7"/>
<image xlink:href="../../images/foreignKeys.png" width="11px" height="12px" preserveAspectRatio="xMinYMin meet" x="493" y="-202.7"/>
<text text-anchor="start" x="517" y="-192.8" font-family="Helvetica,sans-Serif" font-size="11.00" fill="#000000">ProfessorId</text>
<polygon fill="#ffffff" stroke="transparent" points="488,-163.7 488,-185.7 730,-185.7 730,-163.7 488,-163.7"/>
<polygon fill="none" stroke="#000000" points="488,-163.7 488,-185.7 730,-185.7 730,-163.7 488,-163.7"/>
<image xlink:href="../../images/foreignKeys.png" width="11px" height="12px" preserveAspectRatio="xMinYMin meet" x="493" y="-180.7"/>
<text text-anchor="start" x="517" y="-170.8" font-family="Helvetica,sans-Serif" font-size="11.00" fill="#000000">TechnicalCareerId</text>
<polygon fill="#ffffff" stroke="transparent" points="488,-141.7 488,-163.7 730,-163.7 730,-141.7 488,-141.7"/>
<polygon fill="none" stroke="#000000" points="488,-141.7 488,-163.7 730,-163.7 730,-141.7 488,-141.7"/>
<image xlink:href="../../images/foreignKeys.png" width="11px" height="12px" preserveAspectRatio="xMinYMin meet" x="493" y="-158.7"/>
<text text-anchor="start" x="517" y="-148.8" font-family="Helvetica,sans-Serif" font-size="11.00" fill="#000000">CompetencyId</text>
<polygon fill="#ffffff" stroke="transparent" points="488,-119.7 488,-141.7 730,-141.7 730,-119.7 488,-119.7"/>
<polygon fill="none" stroke="#000000" points="488,-119.7 488,-141.7 730,-141.7 730,-119.7 488,-119.7"/>
<image xlink:href="../../images/foreignKeys.png" width="11px" height="12px" preserveAspectRatio="xMinYMin meet" x="493" y="-136.7"/>
<text text-anchor="start" x="517" y="-126.8" font-family="Helvetica,sans-Serif" font-size="11.00" fill="#000000">EvaluationPeriodId</text>
<polygon fill="#ffffff" stroke="transparent" points="488,-97.7 488,-119.7 730,-119.7 730,-97.7 488,-97.7"/>
<polygon fill="none" stroke="#000000" points="488,-97.7 488,-119.7 730,-119.7 730,-97.7 488,-97.7"/>
<image xlink:href="../../images/foreignKeys.png" width="11px" height="12px" preserveAspectRatio="xMinYMin meet" x="493" y="-114.7"/>
<text text-anchor="start" x="517" y="-104.8" font-family="Helvetica,sans-Serif" font-size="11.00" fill="#000000">CreatedByUserId</text>
<polygon fill="#ffffff" stroke="transparent" points="488,-75.7 488,-97.7 730,-97.7 730,-75.7 488,-75.7"/>
<polygon fill="none" stroke="#000000" points="488,-75.7 488,-97.7 730,-97.7 730,-75.7 488,-75.7"/>
<image xlink:href="../../images/foreignKeys.png" width="11px" height="12px" preserveAspectRatio="xMinYMin meet" x="493" y="-92.7"/>
<text text-anchor="start" x="517" y="-82.8" font-family="Helvetica,sans-Serif" font-size="11.00" fill="#000000">UpdatedByUserId</text>
<polygon fill="none" stroke="#000000" points="488,-56.7 488,-75.7 730,-75.7 730,-56.7 488,-56.7"/>
<text text-anchor="start" x="491" y="-62.8" font-family="Helvetica,sans-Serif" font-size="11.00" fill="#000000">...</text>
<polygon fill="#ffffff" stroke="transparent" points="488,-37.7 488,-56.7 590,-56.7 590,-37.7 488,-37.7"/>
<polygon fill="none" stroke="#000000" points="488,-37.7 488,-56.7 590,-56.7 590,-37.7 488,-37.7"/>
<text text-anchor="start" x="491" y="-43.8" font-family="Helvetica,sans-Serif" font-size="11.00" fill="#000000">&lt; 6</text>
<polygon fill="#ffffff" stroke="transparent" points="590,-37.7 590,-56.7 668,-56.7 668,-37.7 590,-37.7"/>
<polygon fill="none" stroke="#000000" points="590,-37.7 590,-56.7 668,-56.7 668,-37.7 590,-37.7"/>
<text text-anchor="start" x="632.6105" y="-43.8" font-family="Helvetica,sans-Serif" font-size="11.00" fill="#000000">0 rows</text>
<polygon fill="#ffffff" stroke="transparent" points="668,-37.7 668,-56.7 730,-56.7 730,-37.7 668,-37.7"/>
<polygon fill="none" stroke="#000000" points="668,-37.7 668,-56.7 730,-56.7 730,-37.7 668,-37.7"/>
<text text-anchor="start" x="711.4053" y="-43.8" font-family="Helvetica,sans-Serif" font-size="11.00" fill="#000000">1 &gt;</text>
</a>
</g>
</g>
<!-- ProfessorCompetencyAssignments&#45;&gt;Competencies -->
<g id="edge10" class="edge">
<title>ProfessorCompetencyAssignments:w&#45;&gt;Competencies:e</title>
<path fill="none" stroke="#000000" d="M474.0797,-157.6336C423.6623,-200.0527 510.3534,-501.7 437.5,-501.7"/>
<polygon fill="#000000" stroke="#000000" points="480.4596,-155.3725 489.2026,-156.0932 484.2298,-154.0362 488,-152.7 488,-152.7 488,-152.7 484.2298,-154.0362 486.7974,-149.3068 480.4596,-155.3725 480.4596,-155.3725"/>
<ellipse fill="none" stroke="#000000" cx="477.4434" cy="-156.4415" rx="3.2" ry="3.2"/>
</g>
<!-- ProfessorCompetencyAssignments&#45;&gt;AspNetUsers -->
<g id="edge11" class="edge">
<title>ProfessorCompetencyAssignments:w&#45;&gt;AspNetUsers:e</title>
<path fill="none" stroke="#000000" d="M474.3532,-113.7338C419.1503,-136.6092 217.5862,-229.8608 212,-234.7 186.8407,-256.4947 204.7866,-297.7 171.5,-297.7"/>
<polygon fill="#000000" stroke="#000000" points="480.4943,-111.4686 489.2459,-112.0775 484.2472,-110.0843 488,-108.7 488,-108.7 488,-108.7 484.2472,-110.0843 486.7541,-105.3225 480.4943,-111.4686 480.4943,-111.4686"/>
<ellipse fill="none" stroke="#000000" cx="477.4921" cy="-112.5761" rx="3.2" ry="3.2"/>
</g>
<!-- ProfessorCompetencyAssignments&#45;&gt;AspNetUsers -->
<g id="edge12" class="edge">
<title>ProfessorCompetencyAssignments:w&#45;&gt;AspNetUsers:e</title>
<path fill="none" stroke="#000000" d="M473.4245,-86.4929C359.2708,-83.272 299.8728,-44.653 212,-124.7 153.6224,-177.8786 250.4677,-297.7 171.5,-297.7"/>
<polygon fill="#000000" stroke="#000000" points="480.0008,-86.5863 487.9488,-90.2996 484.0004,-86.6431 488,-86.7 488,-86.7 488,-86.7 484.0004,-86.6431 488.0512,-83.1004 480.0008,-86.5863 480.0008,-86.5863"/>
<ellipse fill="none" stroke="#000000" cx="476.8011" cy="-86.5408" rx="3.2" ry="3.2"/>
</g>
</g>
</svg>
