<?xml version="1.0" encoding="UTF-8" standalone="no"?>
<!DOCTYPE svg PUBLIC "-//W3C//DTD SVG 1.1//EN"
 "http://www.w3.org/Graphics/SVG/1.1/DTD/svg11.dtd">
<!-- Generated by graphviz version 2.40.1 (20161225.0304)
 -->
<!-- Title: twoDegreesRelationshipsDiagram Pages: 1 -->
<svg width="659pt" height="715pt"
 viewBox="0.00 0.00 659.00 715.20" xmlns="http://www.w3.org/2000/svg" xmlns:xlink="http://www.w3.org/1999/xlink">
<g id="graph0" class="graph" transform="scale(1 1) rotate(0) translate(4 711.2)">
<title>twoDegreesRelationshipsDiagram</title>
<polygon fill="#ffffff" stroke="transparent" points="-4,4 -4,-711.2 655,-711.2 655,4 -4,4"/>
<text text-anchor="middle" x="72.4936" y="-7.3" font-family="Helvetica,sans-Serif" font-size="11.00" fill="#000000">Generated by SchemaSpy</text>
<!-- Competencies -->
<g id="node1" class="node">
<title>Competencies</title>
<g id="a_node1"><a xlink:href="../../tables/Competencies.html" xlink:title="Competencies" target="_top">
<polygon fill="#ffffff" stroke="transparent" points="180,-421.2 180,-548.2 301,-548.2 301,-421.2 180,-421.2"/>
<polygon fill="#f5f5f5" stroke="transparent" points="180.5,-524.7 180.5,-547.7 301.5,-547.7 301.5,-524.7 180.5,-524.7"/>
<polygon fill="none" stroke="#000000" points="180.5,-524.7 180.5,-547.7 301.5,-547.7 301.5,-524.7 180.5,-524.7"/>
<text text-anchor="start" x="185.5" y="-533.3" font-family="Helvetica,sans-Serif" font-weight="bold" font-size="11.00" fill="#000000">Competencies</text>
<text text-anchor="start" x="267.0219" y="-532.8" font-family="Helvetica,sans-Serif" font-size="11.00" fill="#000000">[table]</text>
<polygon fill="none" stroke="#000000" points="180.5,-502.7 180.5,-524.7 301.5,-524.7 301.5,-502.7 180.5,-502.7"/>
<image xlink:href="../../images/primaryKeys.png" width="11px" height="12px" preserveAspectRatio="xMinYMin meet" x="185.5" y="-519.7"/>
<text text-anchor="start" x="200.5" y="-509.8" font-family="Helvetica,sans-Serif" font-size="11.00" fill="#000000">Id</text>
<polygon fill="#ffffff" stroke="transparent" points="180.5,-480.7 180.5,-502.7 301.5,-502.7 301.5,-480.7 180.5,-480.7"/>
<polygon fill="none" stroke="#000000" points="180.5,-480.7 180.5,-502.7 301.5,-502.7 301.5,-480.7 180.5,-480.7"/>
<image xlink:href="../../images/foreignKeys.png" width="11px" height="12px" preserveAspectRatio="xMinYMin meet" x="185.5" y="-497.7"/>
<text text-anchor="start" x="200.5" y="-487.8" font-family="Helvetica,sans-Serif" font-size="11.00" fill="#000000">CreatedByUserId</text>
<polygon fill="#ffffff" stroke="transparent" points="180.5,-458.7 180.5,-480.7 301.5,-480.7 301.5,-458.7 180.5,-458.7"/>
<polygon fill="none" stroke="#000000" points="180.5,-458.7 180.5,-480.7 301.5,-480.7 301.5,-458.7 180.5,-458.7"/>
<image xlink:href="../../images/foreignKeys.png" width="11px" height="12px" preserveAspectRatio="xMinYMin meet" x="185.5" y="-475.7"/>
<text text-anchor="start" x="200.5" y="-465.8" font-family="Helvetica,sans-Serif" font-size="11.00" fill="#000000">UpdatedByUserId</text>
<polygon fill="none" stroke="#000000" points="180.5,-439.7 180.5,-458.7 301.5,-458.7 301.5,-439.7 180.5,-439.7"/>
<text text-anchor="start" x="183.5" y="-445.8" font-family="Helvetica,sans-Serif" font-size="11.00" fill="#000000">...</text>
<polygon fill="#ffffff" stroke="transparent" points="180.5,-420.7 180.5,-439.7 221.5,-439.7 221.5,-420.7 180.5,-420.7"/>
<polygon fill="none" stroke="#000000" points="180.5,-420.7 180.5,-439.7 221.5,-439.7 221.5,-420.7 180.5,-420.7"/>
<text text-anchor="start" x="183.5" y="-426.8" font-family="Helvetica,sans-Serif" font-size="11.00" fill="#000000">&lt; 2</text>
<polygon fill="#ffffff" stroke="transparent" points="221.5,-420.7 221.5,-439.7 269.5,-439.7 269.5,-420.7 221.5,-420.7"/>
<polygon fill="none" stroke="#000000" points="221.5,-420.7 221.5,-439.7 269.5,-439.7 269.5,-420.7 221.5,-420.7"/>
<text text-anchor="start" x="234.1105" y="-426.8" font-family="Helvetica,sans-Serif" font-size="11.00" fill="#000000">0 rows</text>
<polygon fill="#ffffff" stroke="transparent" points="269.5,-420.7 269.5,-439.7 301.5,-439.7 301.5,-420.7 269.5,-420.7"/>
<polygon fill="none" stroke="#000000" points="269.5,-420.7 269.5,-439.7 301.5,-439.7 301.5,-420.7 269.5,-420.7"/>
<text text-anchor="start" x="282.9053" y="-426.8" font-family="Helvetica,sans-Serif" font-size="11.00" fill="#000000">4 &gt;</text>
</a>
</g>
</g>
<!-- AspNetUsers -->
<g id="node2" class="node">
<title>AspNetUsers</title>
<g id="a_node2"><a xlink:href="../../tables/AspNetUsers.html" xlink:title="AspNetUsers" target="_top">
<polygon fill="#ffffff" stroke="transparent" points="8,-328.2 8,-389.2 122,-389.2 122,-328.2 8,-328.2"/>
<polygon fill="#f5f5f5" stroke="transparent" points="8,-365.7 8,-388.7 122,-388.7 122,-365.7 8,-365.7"/>
<polygon fill="none" stroke="#000000" points="8,-365.7 8,-388.7 122,-388.7 122,-365.7 8,-365.7"/>
<text text-anchor="start" x="13" y="-374.3" font-family="Helvetica,sans-Serif" font-weight="bold" font-size="11.00" fill="#000000">AspNetUsers</text>
<text text-anchor="start" x="87.5219" y="-373.8" font-family="Helvetica,sans-Serif" font-size="11.00" fill="#000000">[table]</text>
<polygon fill="none" stroke="#000000" points="8,-346.7 8,-365.7 122,-365.7 122,-346.7 8,-346.7"/>
<text text-anchor="start" x="11" y="-352.8" font-family="Helvetica,sans-Serif" font-size="11.00" fill="#000000">...</text>
<polygon fill="#ffffff" stroke="transparent" points="8,-327.7 8,-346.7 38,-346.7 38,-327.7 8,-327.7"/>
<polygon fill="none" stroke="#000000" points="8,-327.7 8,-346.7 38,-346.7 38,-327.7 8,-327.7"/>
<text text-anchor="start" x="11" y="-333.8" font-family="Helvetica,sans-Serif" font-size="11.00" fill="#000000"> &#160;</text>
<polygon fill="#ffffff" stroke="transparent" points="38,-327.7 38,-346.7 85,-346.7 85,-327.7 38,-327.7"/>
<polygon fill="none" stroke="#000000" points="38,-327.7 38,-346.7 85,-346.7 85,-327.7 38,-327.7"/>
<text text-anchor="start" x="49.6105" y="-333.8" font-family="Helvetica,sans-Serif" font-size="11.00" fill="#000000">0 rows</text>
<polygon fill="#ffffff" stroke="transparent" points="85,-327.7 85,-346.7 122,-346.7 122,-327.7 85,-327.7"/>
<polygon fill="none" stroke="#000000" points="85,-327.7 85,-346.7 122,-346.7 122,-327.7 85,-327.7"/>
<text text-anchor="start" x="97.2904" y="-333.8" font-family="Helvetica,sans-Serif" font-size="11.00" fill="#000000">29 &gt;</text>
</a>
</g>
</g>
<!-- Competencies&#45;&gt;AspNetUsers -->
<g id="edge1" class="edge">
<title>Competencies:w&#45;&gt;AspNetUsers:e</title>
<path fill="none" stroke="#000000" d="M166.1809,-488.733C126.4772,-468.8443 182.016,-355.7 122,-355.7"/>
<polygon fill="#000000" stroke="#000000" points="172.6664,-490.0768 179.7695,-495.2251 176.5832,-490.8884 180.5,-491.7 180.5,-491.7 180.5,-491.7 176.5832,-490.8884 181.2305,-488.1749 172.6664,-490.0768 172.6664,-490.0768"/>
<ellipse fill="none" stroke="#000000" cx="169.533" cy="-489.4275" rx="3.2" ry="3.2"/>
</g>
<!-- Competencies&#45;&gt;AspNetUsers -->
<g id="edge2" class="edge">
<title>Competencies:w&#45;&gt;AspNetUsers:e</title>
<path fill="none" stroke="#000000" d="M166.3897,-466.4111C133.6453,-447.7197 173.1645,-355.7 122,-355.7"/>
<polygon fill="#000000" stroke="#000000" points="172.7088,-467.884 179.6828,-473.206 176.6044,-468.792 180.5,-469.7 180.5,-469.7 180.5,-469.7 176.6044,-468.792 181.3172,-466.194 172.7088,-467.884 172.7088,-467.884"/>
<ellipse fill="none" stroke="#000000" cx="169.5924" cy="-467.1576" rx="3.2" ry="3.2"/>
</g>
<!-- CompetencyLevelDescriptions -->
<g id="node3" class="node">
<title>CompetencyLevelDescriptions</title>
<g id="a_node3"><a xlink:href="../../tables/CompetencyLevelDescriptions.html" xlink:title="CompetencyLevelDescriptions" target="_top">
<polygon fill="#ffffff" stroke="transparent" points="394,-642.2 394,-703.2 608,-703.2 608,-642.2 394,-642.2"/>
<polygon fill="#f5f5f5" stroke="transparent" points="394,-679.7 394,-702.7 608,-702.7 608,-679.7 394,-679.7"/>
<polygon fill="none" stroke="#000000" points="394,-679.7 394,-702.7 608,-702.7 608,-679.7 394,-679.7"/>
<text text-anchor="start" x="399" y="-688.3" font-family="Helvetica,sans-Serif" font-weight="bold" font-size="11.00" fill="#000000">CompetencyLevelDescriptions</text>
<text text-anchor="start" x="573.5219" y="-687.8" font-family="Helvetica,sans-Serif" font-size="11.00" fill="#000000">[table]</text>
<polygon fill="none" stroke="#000000" points="394,-660.7 394,-679.7 608,-679.7 608,-660.7 394,-660.7"/>
<text text-anchor="start" x="397" y="-666.8" font-family="Helvetica,sans-Serif" font-size="11.00" fill="#000000">...</text>
<polygon fill="#ffffff" stroke="transparent" points="394,-641.7 394,-660.7 486,-660.7 486,-641.7 394,-641.7"/>
<polygon fill="none" stroke="#000000" points="394,-641.7 394,-660.7 486,-660.7 486,-641.7 394,-641.7"/>
<text text-anchor="start" x="397" y="-647.8" font-family="Helvetica,sans-Serif" font-size="11.00" fill="#000000">&lt; 3</text>
<polygon fill="#ffffff" stroke="transparent" points="486,-641.7 486,-660.7 560,-660.7 560,-641.7 486,-641.7"/>
<polygon fill="none" stroke="#000000" points="486,-641.7 486,-660.7 560,-660.7 560,-641.7 486,-641.7"/>
<text text-anchor="start" x="524.6105" y="-647.8" font-family="Helvetica,sans-Serif" font-size="11.00" fill="#000000">0 rows</text>
<polygon fill="#ffffff" stroke="transparent" points="560,-641.7 560,-660.7 608,-660.7 608,-641.7 560,-641.7"/>
<polygon fill="none" stroke="#000000" points="560,-641.7 560,-660.7 608,-660.7 608,-641.7 560,-641.7"/>
<text text-anchor="start" x="598.8862" y="-647.8" font-family="Helvetica,sans-Serif" font-size="11.00" fill="#000000"> &#160;</text>
</a>
</g>
</g>
<!-- CompetencyLevelDescriptions&#45;&gt;Competencies -->
<g id="edge3" class="edge">
<title>CompetencyLevelDescriptions:w&#45;&gt;Competencies:e</title>
<path fill="none" stroke="#000000" d="M379.7789,-667.2007C366.6749,-661.6955 362.4955,-647.7302 351,-631.7 317.8572,-585.4834 358.372,-513.7 301.5,-513.7"/>
<polygon fill="#000000" stroke="#000000" points="386.1208,-668.3152 393.3768,-673.2457 390.0604,-669.0076 394,-669.7 394,-669.7 394,-669.7 390.0604,-669.0076 394.6232,-666.1543 386.1208,-668.3152 386.1208,-668.3152"/>
<ellipse fill="none" stroke="#000000" cx="382.9691" cy="-667.7613" rx="3.2" ry="3.2"/>
</g>
<!-- CompetencyLevelDescriptions&#45;&gt;AspNetUsers -->
<g id="edge4" class="edge">
<title>CompetencyLevelDescriptions:w&#45;&gt;AspNetUsers:e</title>
<path fill="none" stroke="#000000" d="M379.4806,-669.7327C281.2072,-670.1219 230.3944,-672.5751 163,-594.7 127.7369,-553.953 175.8869,-355.7 122,-355.7"/>
<polygon fill="#000000" stroke="#000000" points="386,-669.7181 394.0081,-673.3 390,-669.709 394,-669.7 394,-669.7 394,-669.7 390,-669.709 393.9919,-666.1 386,-669.7181 386,-669.7181"/>
<ellipse fill="none" stroke="#000000" cx="382.8" cy="-669.7253" rx="3.2" ry="3.2"/>
</g>
<!-- CompetencyLevelDescriptions&#45;&gt;AspNetUsers -->
<g id="edge5" class="edge">
<title>CompetencyLevelDescriptions:w&#45;&gt;AspNetUsers:e</title>
<path fill="none" stroke="#000000" d="M379.4092,-669.7135C280.6817,-669.8399 230.245,-669.4109 163,-590.7 128.5663,-550.395 175.0111,-355.7 122,-355.7"/>
<polygon fill="#000000" stroke="#000000" points="386,-669.7074 394.0033,-673.3 390,-669.7037 394,-669.7 394,-669.7 394,-669.7 390,-669.7037 393.9967,-666.1 386,-669.7074 386,-669.7074"/>
<ellipse fill="none" stroke="#000000" cx="382.8" cy="-669.7104" rx="3.2" ry="3.2"/>
</g>
<!-- CompetencyTechnicalCareer -->
<g id="node4" class="node">
<title>CompetencyTechnicalCareer</title>
<g id="a_node4"><a xlink:href="../../tables/CompetencyTechnicalCareer.html" xlink:title="CompetencyTechnicalCareer" target="_top">
<polygon fill="#ffffff" stroke="transparent" points="359,-448.7 359,-538.7 643,-538.7 643,-448.7 359,-448.7"/>
<polygon fill="#f5f5f5" stroke="transparent" points="361,-513.7 361,-536.7 641,-536.7 641,-513.7 361,-513.7"/>
<polygon fill="none" stroke="#000000" points="361,-513.7 361,-536.7 641,-536.7 641,-513.7 361,-513.7"/>
<text text-anchor="start" x="366" y="-522.3" font-family="Helvetica,sans-Serif" font-weight="bold" font-size="11.00" fill="#000000">CompetencyTechnicalCareer</text>
<text text-anchor="start" x="606.0437" y="-521.8" font-family="Helvetica,sans-Serif" font-size="11.00" fill="#000000">[table]</text>
<polygon fill="none" stroke="#000000" points="361,-491.7 361,-513.7 547,-513.7 547,-491.7 361,-491.7"/>
<image xlink:href="../../images/primaryKeys.png" width="11px" height="12px" preserveAspectRatio="xMinYMin meet" x="366" y="-508.7"/>
<text text-anchor="start" x="381" y="-498.8" font-family="Helvetica,sans-Serif" font-size="11.00" fill="#000000">CompetenciesId</text>
<polygon fill="none" stroke="#000000" points="547,-491.7 547,-513.7 641,-513.7 641,-491.7 547,-491.7"/>
<text text-anchor="start" x="549.9758" y="-499.4" font-family="Helvetica,sans-Serif" font-size="11.00" fill="#000000">uuid[2147483647]</text>
<polygon fill="none" stroke="#000000" points="361,-469.7 361,-491.7 547,-491.7 547,-469.7 361,-469.7"/>
<image xlink:href="../../images/primaryKeys.png" width="11px" height="12px" preserveAspectRatio="xMinYMin meet" x="366" y="-486.7"/>
<text text-anchor="start" x="381" y="-476.8" font-family="Helvetica,sans-Serif" font-size="11.00" fill="#000000">TechnicalCareersId</text>
<polygon fill="none" stroke="#000000" points="547,-469.7 547,-491.7 641,-491.7 641,-469.7 547,-469.7"/>
<text text-anchor="start" x="549.9758" y="-477.4" font-family="Helvetica,sans-Serif" font-size="11.00" fill="#000000">uuid[2147483647]</text>
<polygon fill="#ffffff" stroke="transparent" points="361,-450.7 361,-469.7 445,-469.7 445,-450.7 361,-450.7"/>
<polygon fill="none" stroke="#000000" points="361,-450.7 361,-469.7 445,-469.7 445,-450.7 361,-450.7"/>
<text text-anchor="start" x="364" y="-456.8" font-family="Helvetica,sans-Serif" font-size="11.00" fill="#000000">&lt; 2</text>
<polygon fill="#ffffff" stroke="transparent" points="445,-450.7 445,-469.7 547,-469.7 547,-450.7 445,-450.7"/>
<polygon fill="none" stroke="#000000" points="445,-450.7 445,-469.7 547,-469.7 547,-450.7 445,-450.7"/>
<text text-anchor="start" x="511.6105" y="-456.8" font-family="Helvetica,sans-Serif" font-size="11.00" fill="#000000">0 rows</text>
<polygon fill="#ffffff" stroke="transparent" points="547,-450.7 547,-469.7 641,-469.7 641,-450.7 547,-450.7"/>
<polygon fill="none" stroke="#000000" points="547,-450.7 547,-469.7 641,-469.7 641,-450.7 547,-450.7"/>
<text text-anchor="start" x="622.4053" y="-456.8" font-family="Helvetica,sans-Serif" font-size="11.00" fill="#000000">0 &gt;</text>
<polygon fill="none" stroke="#000000" stroke-width="2" points="360,-449.7 360,-537.7 642,-537.7 642,-449.7 360,-449.7"/>
</a>
</g>
</g>
<!-- CompetencyTechnicalCareer&#45;&gt;Competencies -->
<g id="edge6" class="edge">
<title>CompetencyTechnicalCareer:w&#45;&gt;Competencies:e</title>
<path fill="none" stroke="#000000" d="M346.4114,-503.9618C330.7542,-506.8512 322.7199,-513.7 301.5,-513.7"/>
<polygon fill="#000000" stroke="#000000" points="353.0298,-503.3894 361.3102,-506.2866 357.0149,-503.0447 361,-502.7 361,-502.7 361,-502.7 357.0149,-503.0447 360.6898,-499.1134 353.0298,-503.3894 353.0298,-503.3894"/>
<ellipse fill="none" stroke="#000000" cx="349.8417" cy="-503.6652" rx="3.2" ry="3.2"/>
</g>
<!-- TechnicalCareers -->
<g id="node5" class="node">
<title>TechnicalCareers</title>
<g id="a_node5"><a xlink:href="../../tables/TechnicalCareers.html" xlink:title="TechnicalCareers" target="_top">
<polygon fill="#ffffff" stroke="transparent" points="171,-245.2 171,-372.2 310,-372.2 310,-245.2 171,-245.2"/>
<polygon fill="#f5f5f5" stroke="transparent" points="171.5,-348.7 171.5,-371.7 310.5,-371.7 310.5,-348.7 171.5,-348.7"/>
<polygon fill="none" stroke="#000000" points="171.5,-348.7 171.5,-371.7 310.5,-371.7 310.5,-348.7 171.5,-348.7"/>
<text text-anchor="start" x="176.5" y="-357.3" font-family="Helvetica,sans-Serif" font-weight="bold" font-size="11.00" fill="#000000">TechnicalCareers</text>
<text text-anchor="start" x="276.0219" y="-356.8" font-family="Helvetica,sans-Serif" font-size="11.00" fill="#000000">[table]</text>
<polygon fill="none" stroke="#000000" points="171.5,-326.7 171.5,-348.7 310.5,-348.7 310.5,-326.7 171.5,-326.7"/>
<image xlink:href="../../images/primaryKeys.png" width="11px" height="12px" preserveAspectRatio="xMinYMin meet" x="176.5" y="-343.7"/>
<text text-anchor="start" x="200.5" y="-333.8" font-family="Helvetica,sans-Serif" font-size="11.00" fill="#000000">Id</text>
<polygon fill="#ffffff" stroke="transparent" points="171.5,-304.7 171.5,-326.7 310.5,-326.7 310.5,-304.7 171.5,-304.7"/>
<polygon fill="none" stroke="#000000" points="171.5,-304.7 171.5,-326.7 310.5,-326.7 310.5,-304.7 171.5,-304.7"/>
<image xlink:href="../../images/foreignKeys.png" width="11px" height="12px" preserveAspectRatio="xMinYMin meet" x="176.5" y="-321.7"/>
<text text-anchor="start" x="200.5" y="-311.8" font-family="Helvetica,sans-Serif" font-size="11.00" fill="#000000">CreatedByUserId</text>
<polygon fill="#ffffff" stroke="transparent" points="171.5,-282.7 171.5,-304.7 310.5,-304.7 310.5,-282.7 171.5,-282.7"/>
<polygon fill="none" stroke="#000000" points="171.5,-282.7 171.5,-304.7 310.5,-304.7 310.5,-282.7 171.5,-282.7"/>
<image xlink:href="../../images/foreignKeys.png" width="11px" height="12px" preserveAspectRatio="xMinYMin meet" x="176.5" y="-299.7"/>
<text text-anchor="start" x="200.5" y="-289.8" font-family="Helvetica,sans-Serif" font-size="11.00" fill="#000000">UpdatedByUserId</text>
<polygon fill="none" stroke="#000000" points="171.5,-263.7 171.5,-282.7 310.5,-282.7 310.5,-263.7 171.5,-263.7"/>
<text text-anchor="start" x="174.5" y="-269.8" font-family="Helvetica,sans-Serif" font-size="11.00" fill="#000000">...</text>
<polygon fill="#ffffff" stroke="transparent" points="171.5,-244.7 171.5,-263.7 221.5,-263.7 221.5,-244.7 171.5,-244.7"/>
<polygon fill="none" stroke="#000000" points="171.5,-244.7 171.5,-263.7 221.5,-263.7 221.5,-244.7 171.5,-244.7"/>
<text text-anchor="start" x="174.5" y="-250.8" font-family="Helvetica,sans-Serif" font-size="11.00" fill="#000000">&lt; 2</text>
<polygon fill="#ffffff" stroke="transparent" points="221.5,-244.7 221.5,-263.7 274.5,-263.7 274.5,-244.7 221.5,-244.7"/>
<polygon fill="none" stroke="#000000" points="221.5,-244.7 221.5,-263.7 274.5,-263.7 274.5,-244.7 221.5,-244.7"/>
<text text-anchor="start" x="239.1105" y="-250.8" font-family="Helvetica,sans-Serif" font-size="11.00" fill="#000000">0 rows</text>
<polygon fill="#ffffff" stroke="transparent" points="274.5,-244.7 274.5,-263.7 310.5,-263.7 310.5,-244.7 274.5,-244.7"/>
<polygon fill="none" stroke="#000000" points="274.5,-244.7 274.5,-263.7 310.5,-263.7 310.5,-244.7 274.5,-244.7"/>
<text text-anchor="start" x="291.9053" y="-250.8" font-family="Helvetica,sans-Serif" font-size="11.00" fill="#000000">6 &gt;</text>
</a>
</g>
</g>
<!-- CompetencyTechnicalCareer&#45;&gt;TechnicalCareers -->
<g id="edge7" class="edge">
<title>CompetencyTechnicalCareer:w&#45;&gt;TechnicalCareers:e</title>
<path fill="none" stroke="#000000" d="M346.7915,-477.7132C306.9672,-457.178 372.1099,-337.7 310.5,-337.7"/>
<polygon fill="#000000" stroke="#000000" points="353.1711,-479.0543 360.2594,-484.223 357.0855,-479.8771 361,-480.7 361,-480.7 361,-480.7 357.0855,-479.8771 361.7406,-477.177 353.1711,-479.0543 353.1711,-479.0543"/>
<ellipse fill="none" stroke="#000000" cx="350.0395" cy="-478.396" rx="3.2" ry="3.2"/>
</g>
<!-- TechnicalCareers&#45;&gt;AspNetUsers -->
<g id="edge23" class="edge">
<title>TechnicalCareers:w&#45;&gt;AspNetUsers:e</title>
<path fill="none" stroke="#000000" d="M157.6565,-320.2885C144.6245,-330.7952 144.3187,-355.7 122,-355.7"/>
<polygon fill="#000000" stroke="#000000" points="163.9063,-318.217 172.6327,-319.1172 167.7031,-316.9585 171.5,-315.7 171.5,-315.7 171.5,-315.7 167.7031,-316.9585 170.3673,-312.2828 163.9063,-318.217 163.9063,-318.217"/>
<ellipse fill="none" stroke="#000000" cx="160.8688" cy="-319.2238" rx="3.2" ry="3.2"/>
</g>
<!-- TechnicalCareers&#45;&gt;AspNetUsers -->
<g id="edge24" class="edge">
<title>TechnicalCareers:w&#45;&gt;AspNetUsers:e</title>
<path fill="none" stroke="#000000" d="M157.7351,-298.565C141.8028,-313.181 151.2002,-355.7 122,-355.7"/>
<polygon fill="#000000" stroke="#000000" points="163.9573,-296.3659 172.6997,-297.0942 167.7286,-295.033 171.5,-293.7 171.5,-293.7 171.5,-293.7 167.7286,-295.033 170.3003,-290.3058 163.9573,-296.3659 163.9573,-296.3659"/>
<ellipse fill="none" stroke="#000000" cx="160.9402" cy="-297.4323" rx="3.2" ry="3.2"/>
</g>
<!-- Coordinators -->
<g id="node6" class="node">
<title>Coordinators</title>
<g id="a_node6"><a xlink:href="../../tables/Coordinators.html" xlink:title="Coordinators" target="_top">
<polygon fill="#ffffff" stroke="transparent" points="444,-366.2 444,-427.2 558,-427.2 558,-366.2 444,-366.2"/>
<polygon fill="#f5f5f5" stroke="transparent" points="444,-403.7 444,-426.7 558,-426.7 558,-403.7 444,-403.7"/>
<polygon fill="none" stroke="#000000" points="444,-403.7 444,-426.7 558,-426.7 558,-403.7 444,-403.7"/>
<text text-anchor="start" x="449" y="-412.3" font-family="Helvetica,sans-Serif" font-weight="bold" font-size="11.00" fill="#000000">Coordinators</text>
<text text-anchor="start" x="523.5219" y="-411.8" font-family="Helvetica,sans-Serif" font-size="11.00" fill="#000000">[table]</text>
<polygon fill="none" stroke="#000000" points="444,-384.7 444,-403.7 558,-403.7 558,-384.7 444,-384.7"/>
<text text-anchor="start" x="447" y="-390.8" font-family="Helvetica,sans-Serif" font-size="11.00" fill="#000000">...</text>
<polygon fill="#ffffff" stroke="transparent" points="444,-365.7 444,-384.7 486,-384.7 486,-365.7 444,-365.7"/>
<polygon fill="none" stroke="#000000" points="444,-365.7 444,-384.7 486,-384.7 486,-365.7 444,-365.7"/>
<text text-anchor="start" x="447" y="-371.8" font-family="Helvetica,sans-Serif" font-size="11.00" fill="#000000">&lt; 2</text>
<polygon fill="#ffffff" stroke="transparent" points="486,-365.7 486,-384.7 535,-384.7 535,-365.7 486,-365.7"/>
<polygon fill="none" stroke="#000000" points="486,-365.7 486,-384.7 535,-384.7 535,-365.7 486,-365.7"/>
<text text-anchor="start" x="499.6105" y="-371.8" font-family="Helvetica,sans-Serif" font-size="11.00" fill="#000000">0 rows</text>
<polygon fill="#ffffff" stroke="transparent" points="535,-365.7 535,-384.7 558,-384.7 558,-365.7 535,-365.7"/>
<polygon fill="none" stroke="#000000" points="535,-365.7 535,-384.7 558,-384.7 558,-365.7 535,-365.7"/>
<text text-anchor="start" x="548.8862" y="-371.8" font-family="Helvetica,sans-Serif" font-size="11.00" fill="#000000"> &#160;</text>
</a>
</g>
</g>
<!-- Coordinators&#45;&gt;AspNetUsers -->
<g id="edge9" class="edge">
<title>Coordinators:w&#45;&gt;AspNetUsers:e</title>
<path fill="none" stroke="#000000" d="M433.589,-393.7634C316.8531,-395.189 278.6287,-419.8333 163,-382.7 142.2264,-376.0287 143.8186,-355.7 122,-355.7"/>
<polygon fill="#000000" stroke="#000000" points="443.1756,-389.705 443.2244,-397.7048 441.6244,-397.7146 441.5757,-389.7147 443.1756,-389.705"/>
<polyline fill="none" stroke="#000000" points="444,-393.7 440.0001,-393.7244 "/>
<ellipse fill="none" stroke="#000000" cx="436.8001" cy="-393.7439" rx="3.2" ry="3.2"/>
</g>
<!-- Coordinators&#45;&gt;TechnicalCareers -->
<g id="edge8" class="edge">
<title>Coordinators:w&#45;&gt;TechnicalCareers:e</title>
<path fill="none" stroke="#000000" d="M429.297,-392.8404C397.0914,-388.782 387.0989,-371.0928 351,-355.7 332.8808,-347.9738 330.1977,-337.7 310.5,-337.7"/>
<polygon fill="#000000" stroke="#000000" points="436.0136,-393.2331 443.7899,-397.2939 440.0068,-393.4665 444,-393.7 444,-393.7 444,-393.7 440.0068,-393.4665 444.2101,-390.1061 436.0136,-393.2331 436.0136,-393.2331"/>
<ellipse fill="none" stroke="#000000" cx="432.8191" cy="-393.0463" rx="3.2" ry="3.2"/>
</g>
<!-- EvaluationPeriodTechnicalCareer -->
<g id="node7" class="node">
<title>EvaluationPeriodTechnicalCareer</title>
<g id="a_node7"><a xlink:href="../../tables/EvaluationPeriodTechnicalCareer.html" xlink:title="EvaluationPeriodTechnicalCareer" target="_top">
<polygon fill="#ffffff" stroke="transparent" points="386,-284.2 386,-345.2 616,-345.2 616,-284.2 386,-284.2"/>
<polygon fill="#f5f5f5" stroke="transparent" points="386,-321.7 386,-344.7 616,-344.7 616,-321.7 386,-321.7"/>
<polygon fill="none" stroke="#000000" points="386,-321.7 386,-344.7 616,-344.7 616,-321.7 386,-321.7"/>
<text text-anchor="start" x="391" y="-330.3" font-family="Helvetica,sans-Serif" font-weight="bold" font-size="11.00" fill="#000000">EvaluationPeriodTechnicalCareer</text>
<text text-anchor="start" x="581.5219" y="-329.8" font-family="Helvetica,sans-Serif" font-size="11.00" fill="#000000">[table]</text>
<polygon fill="none" stroke="#000000" points="386,-302.7 386,-321.7 616,-321.7 616,-302.7 386,-302.7"/>
<text text-anchor="start" x="389" y="-308.8" font-family="Helvetica,sans-Serif" font-size="11.00" fill="#000000">...</text>
<polygon fill="#ffffff" stroke="transparent" points="386,-283.7 386,-302.7 486,-302.7 486,-283.7 386,-283.7"/>
<polygon fill="none" stroke="#000000" points="386,-283.7 386,-302.7 486,-302.7 486,-283.7 386,-283.7"/>
<text text-anchor="start" x="389" y="-289.8" font-family="Helvetica,sans-Serif" font-size="11.00" fill="#000000">&lt; 2</text>
<polygon fill="#ffffff" stroke="transparent" points="486,-283.7 486,-302.7 564,-302.7 564,-283.7 486,-283.7"/>
<polygon fill="none" stroke="#000000" points="486,-283.7 486,-302.7 564,-302.7 564,-283.7 486,-283.7"/>
<text text-anchor="start" x="528.6105" y="-289.8" font-family="Helvetica,sans-Serif" font-size="11.00" fill="#000000">0 rows</text>
<polygon fill="#ffffff" stroke="transparent" points="564,-283.7 564,-302.7 616,-302.7 616,-283.7 564,-283.7"/>
<polygon fill="none" stroke="#000000" points="564,-283.7 564,-302.7 616,-302.7 616,-283.7 564,-283.7"/>
<text text-anchor="start" x="606.8862" y="-289.8" font-family="Helvetica,sans-Serif" font-size="11.00" fill="#000000"> &#160;</text>
</a>
</g>
</g>
<!-- EvaluationPeriodTechnicalCareer&#45;&gt;TechnicalCareers -->
<g id="edge10" class="edge">
<title>EvaluationPeriodTechnicalCareer:w&#45;&gt;TechnicalCareers:e</title>
<path fill="none" stroke="#000000" d="M371.3962,-313.4059C348.3416,-319.1902 340.4443,-337.7 310.5,-337.7"/>
<polygon fill="#000000" stroke="#000000" points="378.054,-312.6283 386.4177,-315.2757 382.027,-312.1641 386,-311.7 386,-311.7 386,-311.7 382.027,-312.1641 385.5823,-308.1243 378.054,-312.6283 378.054,-312.6283"/>
<ellipse fill="none" stroke="#000000" cx="374.8756" cy="-312.9996" rx="3.2" ry="3.2"/>
</g>
<!-- FormQuestions -->
<g id="node8" class="node">
<title>FormQuestions</title>
<g id="a_node8"><a xlink:href="../../tables/FormQuestions.html" xlink:title="FormQuestions" target="_top">
<polygon fill="#ffffff" stroke="transparent" points="437.5,-560.2 437.5,-621.2 564.5,-621.2 564.5,-560.2 437.5,-560.2"/>
<polygon fill="#f5f5f5" stroke="transparent" points="438,-597.7 438,-620.7 565,-620.7 565,-597.7 438,-597.7"/>
<polygon fill="none" stroke="#000000" points="438,-597.7 438,-620.7 565,-620.7 565,-597.7 438,-597.7"/>
<text text-anchor="start" x="443" y="-606.3" font-family="Helvetica,sans-Serif" font-weight="bold" font-size="11.00" fill="#000000">FormQuestions</text>
<text text-anchor="start" x="530.5219" y="-605.8" font-family="Helvetica,sans-Serif" font-size="11.00" fill="#000000">[table]</text>
<polygon fill="none" stroke="#000000" points="438,-578.7 438,-597.7 565,-597.7 565,-578.7 438,-578.7"/>
<text text-anchor="start" x="441" y="-584.8" font-family="Helvetica,sans-Serif" font-size="11.00" fill="#000000">...</text>
<polygon fill="#ffffff" stroke="transparent" points="438,-559.7 438,-578.7 482,-578.7 482,-559.7 438,-559.7"/>
<polygon fill="none" stroke="#000000" points="438,-559.7 438,-578.7 482,-578.7 482,-559.7 438,-559.7"/>
<text text-anchor="start" x="441" y="-565.8" font-family="Helvetica,sans-Serif" font-size="11.00" fill="#000000">&lt; 3</text>
<polygon fill="#ffffff" stroke="transparent" points="482,-559.7 482,-578.7 532,-578.7 532,-559.7 482,-559.7"/>
<polygon fill="none" stroke="#000000" points="482,-559.7 482,-578.7 532,-578.7 532,-559.7 482,-559.7"/>
<text text-anchor="start" x="496.6105" y="-565.8" font-family="Helvetica,sans-Serif" font-size="11.00" fill="#000000">0 rows</text>
<polygon fill="#ffffff" stroke="transparent" points="532,-559.7 532,-578.7 565,-578.7 565,-559.7 532,-559.7"/>
<polygon fill="none" stroke="#000000" points="532,-559.7 532,-578.7 565,-578.7 565,-559.7 532,-559.7"/>
<text text-anchor="start" x="546.4053" y="-565.8" font-family="Helvetica,sans-Serif" font-size="11.00" fill="#000000">1 &gt;</text>
</a>
</g>
</g>
<!-- FormQuestions&#45;&gt;Competencies -->
<g id="edge11" class="edge">
<title>FormQuestions:w&#45;&gt;Competencies:e</title>
<path fill="none" stroke="#000000" d="M423.2439,-586.8794C393.2208,-583.2454 382.8912,-567.9725 351,-549.7 327.3968,-536.1763 328.7029,-513.7 301.5,-513.7"/>
<polygon fill="#000000" stroke="#000000" points="430.0123,-587.2557 437.8001,-591.2944 434.0062,-587.4779 438,-587.7 438,-587.7 438,-587.7 434.0062,-587.4779 438.1999,-584.1056 430.0123,-587.2557 430.0123,-587.2557"/>
<ellipse fill="none" stroke="#000000" cx="426.8173" cy="-587.078" rx="3.2" ry="3.2"/>
</g>
<!-- FormQuestions&#45;&gt;AspNetUsers -->
<g id="edge12" class="edge">
<title>FormQuestions:w&#45;&gt;AspNetUsers:e</title>
<path fill="none" stroke="#000000" d="M423.5285,-587.9461C310.1516,-591.7826 250.2601,-638.1025 163,-558.7 94.9222,-496.7524 214.044,-355.7 122,-355.7"/>
<polygon fill="#000000" stroke="#000000" points="430.0012,-587.8361 438.0612,-591.2995 434.0006,-587.768 438,-587.7 438,-587.7 438,-587.7 434.0006,-587.768 437.9388,-584.1005 430.0012,-587.8361 430.0012,-587.8361"/>
<ellipse fill="none" stroke="#000000" cx="426.8016" cy="-587.8905" rx="3.2" ry="3.2"/>
</g>
<!-- FormQuestions&#45;&gt;AspNetUsers -->
<g id="edge13" class="edge">
<title>FormQuestions:w&#45;&gt;AspNetUsers:e</title>
<path fill="none" stroke="#000000" d="M423.5051,-587.9302C309.946,-591.5156 249.9841,-634.6874 163,-554.7 96.5294,-493.5761 212.3021,-355.7 122,-355.7"/>
<polygon fill="#000000" stroke="#000000" points="430.001,-587.8271 438.0572,-591.2995 434.0005,-587.7635 438,-587.7 438,-587.7 438,-587.7 434.0005,-587.7635 437.9428,-584.1005 430.001,-587.8271 430.001,-587.8271"/>
<ellipse fill="none" stroke="#000000" cx="426.8014" cy="-587.8779" rx="3.2" ry="3.2"/>
</g>
<!-- ProfessorCompetencyAssignments -->
<g id="node9" class="node">
<title>ProfessorCompetencyAssignments</title>
<g id="a_node9"><a xlink:href="../../tables/ProfessorCompetencyAssignments.html" xlink:title="ProfessorCompetencyAssignments" target="_top">
<polygon fill="#ffffff" stroke="transparent" points="380,-202.2 380,-263.2 622,-263.2 622,-202.2 380,-202.2"/>
<polygon fill="#f5f5f5" stroke="transparent" points="380,-239.7 380,-262.7 622,-262.7 622,-239.7 380,-239.7"/>
<polygon fill="none" stroke="#000000" points="380,-239.7 380,-262.7 622,-262.7 622,-239.7 380,-239.7"/>
<text text-anchor="start" x="385" y="-248.3" font-family="Helvetica,sans-Serif" font-weight="bold" font-size="11.00" fill="#000000">ProfessorCompetencyAssignments</text>
<text text-anchor="start" x="587.5219" y="-247.8" font-family="Helvetica,sans-Serif" font-size="11.00" fill="#000000">[table]</text>
<polygon fill="none" stroke="#000000" points="380,-220.7 380,-239.7 622,-239.7 622,-220.7 380,-220.7"/>
<text text-anchor="start" x="383" y="-226.8" font-family="Helvetica,sans-Serif" font-size="11.00" fill="#000000">...</text>
<polygon fill="#ffffff" stroke="transparent" points="380,-201.7 380,-220.7 482,-220.7 482,-201.7 380,-201.7"/>
<polygon fill="none" stroke="#000000" points="380,-201.7 380,-220.7 482,-220.7 482,-201.7 380,-201.7"/>
<text text-anchor="start" x="383" y="-207.8" font-family="Helvetica,sans-Serif" font-size="11.00" fill="#000000">&lt; 6</text>
<polygon fill="#ffffff" stroke="transparent" points="482,-201.7 482,-220.7 560,-220.7 560,-201.7 482,-201.7"/>
<polygon fill="none" stroke="#000000" points="482,-201.7 482,-220.7 560,-220.7 560,-201.7 482,-201.7"/>
<text text-anchor="start" x="524.6105" y="-207.8" font-family="Helvetica,sans-Serif" font-size="11.00" fill="#000000">0 rows</text>
<polygon fill="#ffffff" stroke="transparent" points="560,-201.7 560,-220.7 622,-220.7 622,-201.7 560,-201.7"/>
<polygon fill="none" stroke="#000000" points="560,-201.7 560,-220.7 622,-220.7 622,-201.7 560,-201.7"/>
<text text-anchor="start" x="603.4053" y="-207.8" font-family="Helvetica,sans-Serif" font-size="11.00" fill="#000000">1 &gt;</text>
</a>
</g>
</g>
<!-- ProfessorCompetencyAssignments&#45;&gt;Competencies -->
<g id="edge14" class="edge">
<title>ProfessorCompetencyAssignments:w&#45;&gt;Competencies:e</title>
<path fill="none" stroke="#000000" d="M366.4176,-234.8718C322.1672,-273.3632 361.7343,-513.7 301.5,-513.7"/>
<polygon fill="#000000" stroke="#000000" points="372.5236,-232.5468 381.2811,-233.0644 376.2618,-231.1234 380,-229.7 380,-229.7 380,-229.7 376.2618,-231.1234 378.7189,-226.3356 372.5236,-232.5468 372.5236,-232.5468"/>
<ellipse fill="none" stroke="#000000" cx="369.5331" cy="-233.6856" rx="3.2" ry="3.2"/>
</g>
<!-- ProfessorCompetencyAssignments&#45;&gt;AspNetUsers -->
<g id="edge15" class="edge">
<title>ProfessorCompetencyAssignments:w&#45;&gt;AspNetUsers:e</title>
<path fill="none" stroke="#000000" d="M365.4399,-229.3036C279.0076,-224.5981 236.7232,-180.5436 163,-234.7 117.2389,-268.3157 178.7811,-355.7 122,-355.7"/>
<polygon fill="#000000" stroke="#000000" points="372.003,-229.4822 379.902,-233.2987 376.0015,-229.5911 380,-229.7 380,-229.7 380,-229.7 376.0015,-229.5911 380.098,-226.1013 372.003,-229.4822 372.003,-229.4822"/>
<ellipse fill="none" stroke="#000000" cx="368.8041" cy="-229.3951" rx="3.2" ry="3.2"/>
</g>
<!-- ProfessorCompetencyAssignments&#45;&gt;AspNetUsers -->
<g id="edge17" class="edge">
<title>ProfessorCompetencyAssignments:w&#45;&gt;AspNetUsers:e</title>
<path fill="none" stroke="#000000" d="M365.4305,-229.332C278.9379,-224.9674 236.5481,-184.2146 163,-238.7 118.7253,-271.4993 177.1004,-355.7 122,-355.7"/>
<polygon fill="#000000" stroke="#000000" points="372.0026,-229.4979 379.9091,-233.2989 376.0013,-229.599 380,-229.7 380,-229.7 380,-229.7 376.0013,-229.599 380.0909,-226.1011 372.0026,-229.4979 372.0026,-229.4979"/>
<ellipse fill="none" stroke="#000000" cx="368.8036" cy="-229.4171" rx="3.2" ry="3.2"/>
</g>
<!-- ProfessorCompetencyAssignments&#45;&gt;TechnicalCareers -->
<g id="edge16" class="edge">
<title>ProfessorCompetencyAssignments:w&#45;&gt;TechnicalCareers:e</title>
<path fill="none" stroke="#000000" d="M365.5436,-232.8158C330.9421,-250.5235 361.7828,-337.7 310.5,-337.7"/>
<polygon fill="#000000" stroke="#000000" points="372.1796,-231.3856 380.7585,-233.2192 376.0898,-230.5428 380,-229.7 380,-229.7 380,-229.7 376.0898,-230.5428 379.2415,-226.1808 372.1796,-231.3856 372.1796,-231.3856"/>
<ellipse fill="none" stroke="#000000" cx="369.0514" cy="-232.0598" rx="3.2" ry="3.2"/>
</g>
<!-- Students -->
<g id="node10" class="node">
<title>Students</title>
<g id="a_node10"><a xlink:href="../../tables/Students.html" xlink:title="Students" target="_top">
<polygon fill="#ffffff" stroke="transparent" points="456,-120.2 456,-181.2 546,-181.2 546,-120.2 456,-120.2"/>
<polygon fill="#f5f5f5" stroke="transparent" points="456,-157.7 456,-180.7 546,-180.7 546,-157.7 456,-157.7"/>
<polygon fill="none" stroke="#000000" points="456,-157.7 456,-180.7 546,-180.7 546,-157.7 456,-157.7"/>
<text text-anchor="start" x="461" y="-166.3" font-family="Helvetica,sans-Serif" font-weight="bold" font-size="11.00" fill="#000000">Students</text>
<text text-anchor="start" x="511.5219" y="-165.8" font-family="Helvetica,sans-Serif" font-size="11.00" fill="#000000">[table]</text>
<polygon fill="none" stroke="#000000" points="456,-138.7 456,-157.7 546,-157.7 546,-138.7 456,-138.7"/>
<text text-anchor="start" x="459" y="-144.8" font-family="Helvetica,sans-Serif" font-size="11.00" fill="#000000">...</text>
<polygon fill="#ffffff" stroke="transparent" points="456,-119.7 456,-138.7 482,-138.7 482,-119.7 456,-119.7"/>
<polygon fill="none" stroke="#000000" points="456,-119.7 456,-138.7 482,-138.7 482,-119.7 456,-119.7"/>
<text text-anchor="start" x="459" y="-125.8" font-family="Helvetica,sans-Serif" font-size="11.00" fill="#000000">&lt; 2</text>
<polygon fill="#ffffff" stroke="transparent" points="482,-119.7 482,-138.7 522,-138.7 522,-119.7 482,-119.7"/>
<polygon fill="none" stroke="#000000" points="482,-119.7 482,-138.7 522,-138.7 522,-119.7 482,-119.7"/>
<text text-anchor="start" x="486.6105" y="-125.8" font-family="Helvetica,sans-Serif" font-size="11.00" fill="#000000">0 rows</text>
<polygon fill="#ffffff" stroke="transparent" points="522,-119.7 522,-138.7 546,-138.7 546,-119.7 522,-119.7"/>
<polygon fill="none" stroke="#000000" points="522,-119.7 522,-138.7 546,-138.7 546,-119.7 522,-119.7"/>
<text text-anchor="start" x="527.4053" y="-125.8" font-family="Helvetica,sans-Serif" font-size="11.00" fill="#000000">3 &gt;</text>
</a>
</g>
</g>
<!-- Students&#45;&gt;AspNetUsers -->
<g id="edge19" class="edge">
<title>Students:w&#45;&gt;AspNetUsers:e</title>
<path fill="none" stroke="#000000" d="M445.2509,-147.6342C319.6083,-146.1103 257.4883,-119.4513 163,-207.7 113.1174,-254.2886 190.2551,-355.7 122,-355.7"/>
<polygon fill="#000000" stroke="#000000" points="455.2245,-143.6952 455.1755,-151.695 453.5755,-151.6852 453.6246,-143.6854 455.2245,-143.6952"/>
<polyline fill="none" stroke="#000000" points="456,-147.7 452.0001,-147.6755 "/>
<ellipse fill="none" stroke="#000000" cx="448.8001" cy="-147.6558" rx="3.2" ry="3.2"/>
</g>
<!-- Students&#45;&gt;TechnicalCareers -->
<g id="edge18" class="edge">
<title>Students:w&#45;&gt;TechnicalCareers:e</title>
<path fill="none" stroke="#000000" d="M441.4566,-147.9139C401.017,-149.2554 381.0533,-157.5919 351,-191.7 306.482,-242.2244 377.8392,-337.7 310.5,-337.7"/>
<polygon fill="#000000" stroke="#000000" points="448.0009,-147.8177 456.053,-151.2996 452.0004,-147.7589 456,-147.7 456,-147.7 456,-147.7 452.0004,-147.7589 455.947,-144.1004 448.0009,-147.8177 448.0009,-147.8177"/>
<ellipse fill="none" stroke="#000000" cx="444.8012" cy="-147.8648" rx="3.2" ry="3.2"/>
</g>
<!-- Subjects -->
<g id="node11" class="node">
<title>Subjects</title>
<g id="a_node11"><a xlink:href="../../tables/Subjects.html" xlink:title="Subjects" target="_top">
<polygon fill="#ffffff" stroke="transparent" points="456.5,-38.2 456.5,-99.2 545.5,-99.2 545.5,-38.2 456.5,-38.2"/>
<polygon fill="#f5f5f5" stroke="transparent" points="457,-75.7 457,-98.7 546,-98.7 546,-75.7 457,-75.7"/>
<polygon fill="none" stroke="#000000" points="457,-75.7 457,-98.7 546,-98.7 546,-75.7 457,-75.7"/>
<text text-anchor="start" x="462" y="-84.3" font-family="Helvetica,sans-Serif" font-weight="bold" font-size="11.00" fill="#000000">Subjects</text>
<text text-anchor="start" x="511.5219" y="-83.8" font-family="Helvetica,sans-Serif" font-size="11.00" fill="#000000">[table]</text>
<polygon fill="none" stroke="#000000" points="457,-56.7 457,-75.7 546,-75.7 546,-56.7 457,-56.7"/>
<text text-anchor="start" x="460" y="-62.8" font-family="Helvetica,sans-Serif" font-size="11.00" fill="#000000">...</text>
<polygon fill="#ffffff" stroke="transparent" points="457,-37.7 457,-56.7 482,-56.7 482,-37.7 457,-37.7"/>
<polygon fill="none" stroke="#000000" points="457,-37.7 457,-56.7 482,-56.7 482,-37.7 457,-37.7"/>
<text text-anchor="start" x="460" y="-43.8" font-family="Helvetica,sans-Serif" font-size="11.00" fill="#000000">&lt; 4</text>
<polygon fill="#ffffff" stroke="transparent" points="482,-37.7 482,-56.7 522,-56.7 522,-37.7 482,-37.7"/>
<polygon fill="none" stroke="#000000" points="482,-37.7 482,-56.7 522,-56.7 522,-37.7 482,-37.7"/>
<text text-anchor="start" x="486.6105" y="-43.8" font-family="Helvetica,sans-Serif" font-size="11.00" fill="#000000">0 rows</text>
<polygon fill="#ffffff" stroke="transparent" points="522,-37.7 522,-56.7 546,-56.7 546,-37.7 522,-37.7"/>
<polygon fill="none" stroke="#000000" points="522,-37.7 522,-56.7 546,-56.7 546,-37.7 522,-37.7"/>
<text text-anchor="start" x="527.4053" y="-43.8" font-family="Helvetica,sans-Serif" font-size="11.00" fill="#000000">1 &gt;</text>
</a>
</g>
</g>
<!-- Subjects&#45;&gt;AspNetUsers -->
<g id="edge20" class="edge">
<title>Subjects:w&#45;&gt;AspNetUsers:e</title>
<path fill="none" stroke="#000000" d="M442.2638,-65.6114C317.1583,-64.1429 251.9571,-46.1119 163,-140.7 96.3561,-211.5625 219.2775,-355.7 122,-355.7"/>
<polygon fill="#000000" stroke="#000000" points="449.0001,-65.6519 456.9783,-69.2999 453.0001,-65.6759 457,-65.7 457,-65.7 457,-65.7 453.0001,-65.6759 457.0217,-62.1001 449.0001,-65.6519 449.0001,-65.6519"/>
<ellipse fill="none" stroke="#000000" cx="445.8002" cy="-65.6326" rx="3.2" ry="3.2"/>
</g>
<!-- Subjects&#45;&gt;AspNetUsers -->
<g id="edge22" class="edge">
<title>Subjects:w&#45;&gt;AspNetUsers:e</title>
<path fill="none" stroke="#000000" d="M442.5987,-65.6283C316.8617,-64.4108 251.9046,-49.2877 163,-144.7 97.8745,-214.5927 217.5318,-355.7 122,-355.7"/>
<polygon fill="#000000" stroke="#000000" points="449.0001,-65.6601 456.982,-69.3 453,-65.68 457,-65.7 457,-65.7 457,-65.7 453,-65.68 457.018,-62.1 449.0001,-65.6601 449.0001,-65.6601"/>
<ellipse fill="none" stroke="#000000" cx="445.8001" cy="-65.6441" rx="3.2" ry="3.2"/>
</g>
<!-- Subjects&#45;&gt;TechnicalCareers -->
<g id="edge21" class="edge">
<title>Subjects:w&#45;&gt;TechnicalCareers:e</title>
<path fill="none" stroke="#000000" d="M442.5529,-65.8568C401.3105,-66.8949 379.7564,-73.8891 351,-109.7 318.7798,-149.8244 361.9598,-337.7 310.5,-337.7"/>
<polygon fill="#000000" stroke="#000000" points="449.0005,-65.7869 457.0391,-69.2998 453.0002,-65.7434 457,-65.7 457,-65.7 457,-65.7 453.0002,-65.7434 456.9609,-62.1002 449.0005,-65.7869 449.0005,-65.7869"/>
<ellipse fill="none" stroke="#000000" cx="445.8007" cy="-65.8216" rx="3.2" ry="3.2"/>
</g>
</g>
</svg>
