<?xml version="1.0" encoding="UTF-8" standalone="no"?>
<!DOCTYPE svg PUBLIC "-//W3C//DTD SVG 1.1//EN"
 "http://www.w3.org/Graphics/SVG/1.1/DTD/svg11.dtd">
<!-- Generated by graphviz version 2.40.1 (20161225.0304)
 -->
<!-- Title: twoDegreesRelationshipsDiagram Pages: 1 -->
<svg width="950pt" height="734pt"
 viewBox="0.00 0.00 950.00 733.54" xmlns="http://www.w3.org/2000/svg" xmlns:xlink="http://www.w3.org/1999/xlink">
<g id="graph0" class="graph" transform="scale(1 1) rotate(0) translate(4 729.5433)">
<title>twoDegreesRelationshipsDiagram</title>
<polygon fill="#ffffff" stroke="transparent" points="-4,4 -4,-729.5433 946,-729.5433 946,4 -4,4"/>
<text text-anchor="middle" x="72.4936" y="-7.3" font-family="Helvetica,sans-Serif" font-size="11.00" fill="#000000">Generated by SchemaSpy</text>
<!-- Competencies -->
<g id="node1" class="node">
<title>Competencies</title>
<g id="a_node1"><a xlink:href="../../tables/Competencies.html" xlink:title="Competencies" target="_top">
<polygon fill="#ffffff" stroke="transparent" points="180,-481.5433 180,-608.5433 301,-608.5433 301,-481.5433 180,-481.5433"/>
<polygon fill="#f5f5f5" stroke="transparent" points="180.5,-585.0433 180.5,-608.0433 301.5,-608.0433 301.5,-585.0433 180.5,-585.0433"/>
<polygon fill="none" stroke="#000000" points="180.5,-585.0433 180.5,-608.0433 301.5,-608.0433 301.5,-585.0433 180.5,-585.0433"/>
<text text-anchor="start" x="185.5" y="-593.6433" font-family="Helvetica,sans-Serif" font-weight="bold" font-size="11.00" fill="#000000">Competencies</text>
<text text-anchor="start" x="267.0219" y="-593.1433" font-family="Helvetica,sans-Serif" font-size="11.00" fill="#000000">[table]</text>
<polygon fill="none" stroke="#000000" points="180.5,-563.0433 180.5,-585.0433 301.5,-585.0433 301.5,-563.0433 180.5,-563.0433"/>
<image xlink:href="../../images/primaryKeys.png" width="11px" height="12px" preserveAspectRatio="xMinYMin meet" x="185.5" y="-580.043"/>
<text text-anchor="start" x="200.5" y="-570.1433" font-family="Helvetica,sans-Serif" font-size="11.00" fill="#000000">Id</text>
<polygon fill="#ffffff" stroke="transparent" points="180.5,-541.0433 180.5,-563.0433 301.5,-563.0433 301.5,-541.0433 180.5,-541.0433"/>
<polygon fill="none" stroke="#000000" points="180.5,-541.0433 180.5,-563.0433 301.5,-563.0433 301.5,-541.0433 180.5,-541.0433"/>
<image xlink:href="../../images/foreignKeys.png" width="11px" height="12px" preserveAspectRatio="xMinYMin meet" x="185.5" y="-558.043"/>
<text text-anchor="start" x="200.5" y="-548.1433" font-family="Helvetica,sans-Serif" font-size="11.00" fill="#000000">CreatedByUserId</text>
<polygon fill="#ffffff" stroke="transparent" points="180.5,-519.0433 180.5,-541.0433 301.5,-541.0433 301.5,-519.0433 180.5,-519.0433"/>
<polygon fill="none" stroke="#000000" points="180.5,-519.0433 180.5,-541.0433 301.5,-541.0433 301.5,-519.0433 180.5,-519.0433"/>
<image xlink:href="../../images/foreignKeys.png" width="11px" height="12px" preserveAspectRatio="xMinYMin meet" x="185.5" y="-536.043"/>
<text text-anchor="start" x="200.5" y="-526.1433" font-family="Helvetica,sans-Serif" font-size="11.00" fill="#000000">UpdatedByUserId</text>
<polygon fill="none" stroke="#000000" points="180.5,-500.0433 180.5,-519.0433 301.5,-519.0433 301.5,-500.0433 180.5,-500.0433"/>
<text text-anchor="start" x="183.5" y="-506.1433" font-family="Helvetica,sans-Serif" font-size="11.00" fill="#000000">...</text>
<polygon fill="#ffffff" stroke="transparent" points="180.5,-481.0433 180.5,-500.0433 221.5,-500.0433 221.5,-481.0433 180.5,-481.0433"/>
<polygon fill="none" stroke="#000000" points="180.5,-481.0433 180.5,-500.0433 221.5,-500.0433 221.5,-481.0433 180.5,-481.0433"/>
<text text-anchor="start" x="183.5" y="-487.1433" font-family="Helvetica,sans-Serif" font-size="11.00" fill="#000000">&lt; 2</text>
<polygon fill="#ffffff" stroke="transparent" points="221.5,-481.0433 221.5,-500.0433 269.5,-500.0433 269.5,-481.0433 221.5,-481.0433"/>
<polygon fill="none" stroke="#000000" points="221.5,-481.0433 221.5,-500.0433 269.5,-500.0433 269.5,-481.0433 221.5,-481.0433"/>
<text text-anchor="start" x="234.1105" y="-487.1433" font-family="Helvetica,sans-Serif" font-size="11.00" fill="#000000">5 rows</text>
<polygon fill="#ffffff" stroke="transparent" points="269.5,-481.0433 269.5,-500.0433 301.5,-500.0433 301.5,-481.0433 269.5,-481.0433"/>
<polygon fill="none" stroke="#000000" points="269.5,-481.0433 269.5,-500.0433 301.5,-500.0433 301.5,-481.0433 269.5,-481.0433"/>
<text text-anchor="start" x="282.9053" y="-487.1433" font-family="Helvetica,sans-Serif" font-size="11.00" fill="#000000">4 &gt;</text>
</a>
</g>
</g>
<!-- AspNetUsers -->
<g id="node2" class="node">
<title>AspNetUsers</title>
<g id="a_node2"><a xlink:href="../../tables/AspNetUsers.html" xlink:title="AspNetUsers" target="_top">
<polygon fill="#ffffff" stroke="transparent" points="8,-305.5433 8,-366.5433 122,-366.5433 122,-305.5433 8,-305.5433"/>
<polygon fill="#f5f5f5" stroke="transparent" points="8,-343.0433 8,-366.0433 122,-366.0433 122,-343.0433 8,-343.0433"/>
<polygon fill="none" stroke="#000000" points="8,-343.0433 8,-366.0433 122,-366.0433 122,-343.0433 8,-343.0433"/>
<text text-anchor="start" x="13" y="-351.6433" font-family="Helvetica,sans-Serif" font-weight="bold" font-size="11.00" fill="#000000">AspNetUsers</text>
<text text-anchor="start" x="87.5219" y="-351.1433" font-family="Helvetica,sans-Serif" font-size="11.00" fill="#000000">[table]</text>
<polygon fill="none" stroke="#000000" points="8,-324.0433 8,-343.0433 122,-343.0433 122,-324.0433 8,-324.0433"/>
<text text-anchor="start" x="11" y="-330.1433" font-family="Helvetica,sans-Serif" font-size="11.00" fill="#000000">...</text>
<polygon fill="#ffffff" stroke="transparent" points="8,-305.0433 8,-324.0433 41,-324.0433 41,-305.0433 8,-305.0433"/>
<polygon fill="none" stroke="#000000" points="8,-305.0433 8,-324.0433 41,-324.0433 41,-305.0433 8,-305.0433"/>
<text text-anchor="start" x="11" y="-311.1433" font-family="Helvetica,sans-Serif" font-size="11.00" fill="#000000"> &#160;</text>
<polygon fill="#ffffff" stroke="transparent" points="41,-305.0433 41,-324.0433 84,-324.0433 84,-305.0433 41,-305.0433"/>
<polygon fill="none" stroke="#000000" points="41,-305.0433 41,-324.0433 84,-324.0433 84,-305.0433 41,-305.0433"/>
<text text-anchor="start" x="54.1105" y="-311.1433" font-family="Helvetica,sans-Serif" font-size="11.00" fill="#000000">1 row</text>
<polygon fill="#ffffff" stroke="transparent" points="84,-305.0433 84,-324.0433 122,-324.0433 122,-305.0433 84,-305.0433"/>
<polygon fill="none" stroke="#000000" points="84,-305.0433 84,-324.0433 122,-324.0433 122,-305.0433 84,-305.0433"/>
<text text-anchor="start" x="97.2904" y="-311.1433" font-family="Helvetica,sans-Serif" font-size="11.00" fill="#000000">29 &gt;</text>
</a>
</g>
</g>
<!-- Competencies&#45;&gt;AspNetUsers -->
<g id="edge1" class="edge">
<title>Competencies:w&#45;&gt;AspNetUsers:e</title>
<path fill="none" stroke="#000000" d="M166.0785,-550.15C94.6647,-528.7451 217.2366,-333.0433 122,-333.0433"/>
<polygon fill="#000000" stroke="#000000" points="172.5681,-551.0019 180.0314,-555.6126 176.534,-551.5226 180.5,-552.0433 180.5,-552.0433 180.5,-552.0433 176.534,-551.5226 180.9686,-548.4739 172.5681,-551.0019 172.5681,-551.0019"/>
<ellipse fill="none" stroke="#000000" cx="169.3953" cy="-550.5854" rx="3.2" ry="3.2"/>
</g>
<!-- Competencies&#45;&gt;AspNetUsers -->
<g id="edge2" class="edge">
<title>Competencies:w&#45;&gt;AspNetUsers:e</title>
<path fill="none" stroke="#000000" d="M166.1843,-527.9642C103.4116,-506.91 207.8044,-333.0433 122,-333.0433"/>
<polygon fill="#000000" stroke="#000000" points="172.5831,-528.8934 179.9826,-533.6059 176.5415,-529.4683 180.5,-530.0433 180.5,-530.0433 180.5,-530.0433 176.5415,-529.4683 181.0174,-526.4806 172.5831,-528.8934 172.5831,-528.8934"/>
<ellipse fill="none" stroke="#000000" cx="169.4163" cy="-528.4335" rx="3.2" ry="3.2"/>
</g>
<!-- CompetencyLevelDescriptions -->
<g id="node3" class="node">
<title>CompetencyLevelDescriptions</title>
<g id="a_node3"><a xlink:href="../../tables/CompetencyLevelDescriptions.html" xlink:title="CompetencyLevelDescriptions" target="_top">
<polygon fill="#ffffff" stroke="transparent" points="394,-660.5433 394,-721.5433 608,-721.5433 608,-660.5433 394,-660.5433"/>
<polygon fill="#f5f5f5" stroke="transparent" points="394,-698.0433 394,-721.0433 608,-721.0433 608,-698.0433 394,-698.0433"/>
<polygon fill="none" stroke="#000000" points="394,-698.0433 394,-721.0433 608,-721.0433 608,-698.0433 394,-698.0433"/>
<text text-anchor="start" x="399" y="-706.6433" font-family="Helvetica,sans-Serif" font-weight="bold" font-size="11.00" fill="#000000">CompetencyLevelDescriptions</text>
<text text-anchor="start" x="573.5219" y="-706.1433" font-family="Helvetica,sans-Serif" font-size="11.00" fill="#000000">[table]</text>
<polygon fill="none" stroke="#000000" points="394,-679.0433 394,-698.0433 608,-698.0433 608,-679.0433 394,-679.0433"/>
<text text-anchor="start" x="397" y="-685.1433" font-family="Helvetica,sans-Serif" font-size="11.00" fill="#000000">...</text>
<polygon fill="#ffffff" stroke="transparent" points="394,-660.0433 394,-679.0433 483,-679.0433 483,-660.0433 394,-660.0433"/>
<polygon fill="none" stroke="#000000" points="394,-660.0433 394,-679.0433 483,-679.0433 483,-660.0433 394,-660.0433"/>
<text text-anchor="start" x="397" y="-666.1433" font-family="Helvetica,sans-Serif" font-size="11.00" fill="#000000">&lt; 3</text>
<polygon fill="#ffffff" stroke="transparent" points="483,-660.0433 483,-679.0433 561,-679.0433 561,-660.0433 483,-660.0433"/>
<polygon fill="none" stroke="#000000" points="483,-660.0433 483,-679.0433 561,-679.0433 561,-660.0433 483,-660.0433"/>
<text text-anchor="start" x="519.4956" y="-666.1433" font-family="Helvetica,sans-Serif" font-size="11.00" fill="#000000">20 rows</text>
<polygon fill="#ffffff" stroke="transparent" points="561,-660.0433 561,-679.0433 608,-679.0433 608,-660.0433 561,-660.0433"/>
<polygon fill="none" stroke="#000000" points="561,-660.0433 561,-679.0433 608,-679.0433 608,-660.0433 561,-660.0433"/>
<text text-anchor="start" x="598.8862" y="-666.1433" font-family="Helvetica,sans-Serif" font-size="11.00" fill="#000000"> &#160;</text>
</a>
</g>
</g>
<!-- CompetencyLevelDescriptions&#45;&gt;Competencies -->
<g id="edge3" class="edge">
<title>CompetencyLevelDescriptions:w&#45;&gt;Competencies:e</title>
<path fill="none" stroke="#000000" d="M379.5656,-684.9867C366.7715,-678.3304 364.3066,-661.8503 351,-646.0433 325.9913,-616.3353 340.333,-574.0433 301.5,-574.0433"/>
<polygon fill="#000000" stroke="#000000" points="386.1736,-686.3859 393.2542,-691.5652 390.0868,-687.2146 394,-688.0433 394,-688.0433 394,-688.0433 390.0868,-687.2146 394.7458,-684.5214 386.1736,-686.3859 386.1736,-686.3859"/>
<ellipse fill="none" stroke="#000000" cx="383.043" cy="-685.723" rx="3.2" ry="3.2"/>
</g>
<!-- CompetencyLevelDescriptions&#45;&gt;AspNetUsers -->
<g id="edge4" class="edge">
<title>CompetencyLevelDescriptions:w&#45;&gt;AspNetUsers:e</title>
<path fill="none" stroke="#000000" d="M379.576,-688.1099C281.8704,-688.9625 229.7506,-696.474 163,-619.0433 121.0778,-570.4135 186.2053,-333.0433 122,-333.0433"/>
<polygon fill="#000000" stroke="#000000" points="386.0001,-688.0803 394.0167,-691.6432 390,-688.0618 394,-688.0433 394,-688.0433 394,-688.0433 390,-688.0618 393.9833,-684.4433 386.0001,-688.0803 386.0001,-688.0803"/>
<ellipse fill="none" stroke="#000000" cx="382.8001" cy="-688.0951" rx="3.2" ry="3.2"/>
</g>
<!-- CompetencyLevelDescriptions&#45;&gt;AspNetUsers -->
<g id="edge5" class="edge">
<title>CompetencyLevelDescriptions:w&#45;&gt;AspNetUsers:e</title>
<path fill="none" stroke="#000000" d="M379.5092,-688.0907C281.3752,-688.6808 229.5364,-693.3134 163,-615.0433 121.9849,-566.7951 185.3255,-333.0433 122,-333.0433"/>
<polygon fill="#000000" stroke="#000000" points="386,-688.0695 394.0118,-691.6433 390,-688.0564 394,-688.0433 394,-688.0433 394,-688.0433 390,-688.0564 393.9882,-684.4433 386,-688.0695 386,-688.0695"/>
<ellipse fill="none" stroke="#000000" cx="382.8001" cy="-688.08" rx="3.2" ry="3.2"/>
</g>
<!-- CompetencyTechnicalCareer -->
<g id="node4" class="node">
<title>CompetencyTechnicalCareer</title>
<g id="a_node4"><a xlink:href="../../tables/CompetencyTechnicalCareer.html" xlink:title="CompetencyTechnicalCareer" target="_top">
<polygon fill="#ffffff" stroke="transparent" points="359,-439.0433 359,-529.0433 643,-529.0433 643,-439.0433 359,-439.0433"/>
<polygon fill="#f5f5f5" stroke="transparent" points="361,-504.0433 361,-527.0433 641,-527.0433 641,-504.0433 361,-504.0433"/>
<polygon fill="none" stroke="#000000" points="361,-504.0433 361,-527.0433 641,-527.0433 641,-504.0433 361,-504.0433"/>
<text text-anchor="start" x="366" y="-512.6433" font-family="Helvetica,sans-Serif" font-weight="bold" font-size="11.00" fill="#000000">CompetencyTechnicalCareer</text>
<text text-anchor="start" x="606.0437" y="-512.1433" font-family="Helvetica,sans-Serif" font-size="11.00" fill="#000000">[table]</text>
<polygon fill="none" stroke="#000000" points="361,-482.0433 361,-504.0433 547,-504.0433 547,-482.0433 361,-482.0433"/>
<image xlink:href="../../images/primaryKeys.png" width="11px" height="12px" preserveAspectRatio="xMinYMin meet" x="366" y="-499.043"/>
<text text-anchor="start" x="381" y="-489.1433" font-family="Helvetica,sans-Serif" font-size="11.00" fill="#000000">CompetenciesId</text>
<polygon fill="none" stroke="#000000" points="547,-482.0433 547,-504.0433 641,-504.0433 641,-482.0433 547,-482.0433"/>
<text text-anchor="start" x="549.9758" y="-489.7433" font-family="Helvetica,sans-Serif" font-size="11.00" fill="#000000">uuid[2147483647]</text>
<polygon fill="none" stroke="#000000" points="361,-460.0433 361,-482.0433 547,-482.0433 547,-460.0433 361,-460.0433"/>
<image xlink:href="../../images/primaryKeys.png" width="11px" height="12px" preserveAspectRatio="xMinYMin meet" x="366" y="-477.043"/>
<text text-anchor="start" x="381" y="-467.1433" font-family="Helvetica,sans-Serif" font-size="11.00" fill="#000000">TechnicalCareersId</text>
<polygon fill="none" stroke="#000000" points="547,-460.0433 547,-482.0433 641,-482.0433 641,-460.0433 547,-460.0433"/>
<text text-anchor="start" x="549.9758" y="-467.7433" font-family="Helvetica,sans-Serif" font-size="11.00" fill="#000000">uuid[2147483647]</text>
<polygon fill="#ffffff" stroke="transparent" points="361,-441.0433 361,-460.0433 445,-460.0433 445,-441.0433 361,-441.0433"/>
<polygon fill="none" stroke="#000000" points="361,-441.0433 361,-460.0433 445,-460.0433 445,-441.0433 361,-441.0433"/>
<text text-anchor="start" x="364" y="-447.1433" font-family="Helvetica,sans-Serif" font-size="11.00" fill="#000000">&lt; 2</text>
<polygon fill="#ffffff" stroke="transparent" points="445,-441.0433 445,-460.0433 547,-460.0433 547,-441.0433 445,-441.0433"/>
<polygon fill="none" stroke="#000000" points="445,-441.0433 445,-460.0433 547,-460.0433 547,-441.0433 445,-441.0433"/>
<text text-anchor="start" x="511.6105" y="-447.1433" font-family="Helvetica,sans-Serif" font-size="11.00" fill="#000000">0 rows</text>
<polygon fill="#ffffff" stroke="transparent" points="547,-441.0433 547,-460.0433 641,-460.0433 641,-441.0433 547,-441.0433"/>
<polygon fill="none" stroke="#000000" points="547,-441.0433 547,-460.0433 641,-460.0433 641,-441.0433 547,-441.0433"/>
<text text-anchor="start" x="622.4053" y="-447.1433" font-family="Helvetica,sans-Serif" font-size="11.00" fill="#000000">0 &gt;</text>
<polygon fill="none" stroke="#000000" stroke-width="2" points="360,-440.0433 360,-528.0433 642,-528.0433 642,-440.0433 360,-440.0433"/>
</a>
</g>
</g>
<!-- CompetencyTechnicalCareer&#45;&gt;Competencies -->
<g id="edge6" class="edge">
<title>CompetencyTechnicalCareer:w&#45;&gt;Competencies:e</title>
<path fill="none" stroke="#000000" d="M346.7959,-496.9501C322.9425,-513.1301 340.2363,-574.0433 301.5,-574.0433"/>
<polygon fill="#000000" stroke="#000000" points="353.2864,-495.1649 361.9547,-496.5144 357.1432,-494.1041 361,-493.0433 361,-493.0433 361,-493.0433 357.1432,-494.1041 360.0453,-489.5722 353.2864,-495.1649 353.2864,-495.1649"/>
<ellipse fill="none" stroke="#000000" cx="350.201" cy="-496.0135" rx="3.2" ry="3.2"/>
</g>
<!-- TechnicalCareers -->
<g id="node5" class="node">
<title>TechnicalCareers</title>
<g id="a_node5"><a xlink:href="../../tables/TechnicalCareers.html" xlink:title="TechnicalCareers" target="_top">
<polygon fill="#ffffff" stroke="transparent" points="171,-273.5433 171,-400.5433 310,-400.5433 310,-273.5433 171,-273.5433"/>
<polygon fill="#f5f5f5" stroke="transparent" points="171.5,-377.0433 171.5,-400.0433 310.5,-400.0433 310.5,-377.0433 171.5,-377.0433"/>
<polygon fill="none" stroke="#000000" points="171.5,-377.0433 171.5,-400.0433 310.5,-400.0433 310.5,-377.0433 171.5,-377.0433"/>
<text text-anchor="start" x="176.5" y="-385.6433" font-family="Helvetica,sans-Serif" font-weight="bold" font-size="11.00" fill="#000000">TechnicalCareers</text>
<text text-anchor="start" x="276.0219" y="-385.1433" font-family="Helvetica,sans-Serif" font-size="11.00" fill="#000000">[table]</text>
<polygon fill="none" stroke="#000000" points="171.5,-355.0433 171.5,-377.0433 310.5,-377.0433 310.5,-355.0433 171.5,-355.0433"/>
<image xlink:href="../../images/primaryKeys.png" width="11px" height="12px" preserveAspectRatio="xMinYMin meet" x="176.5" y="-372.043"/>
<text text-anchor="start" x="200.5" y="-362.1433" font-family="Helvetica,sans-Serif" font-size="11.00" fill="#000000">Id</text>
<polygon fill="#ffffff" stroke="transparent" points="171.5,-333.0433 171.5,-355.0433 310.5,-355.0433 310.5,-333.0433 171.5,-333.0433"/>
<polygon fill="none" stroke="#000000" points="171.5,-333.0433 171.5,-355.0433 310.5,-355.0433 310.5,-333.0433 171.5,-333.0433"/>
<image xlink:href="../../images/foreignKeys.png" width="11px" height="12px" preserveAspectRatio="xMinYMin meet" x="176.5" y="-350.043"/>
<text text-anchor="start" x="200.5" y="-340.1433" font-family="Helvetica,sans-Serif" font-size="11.00" fill="#000000">CreatedByUserId</text>
<polygon fill="#ffffff" stroke="transparent" points="171.5,-311.0433 171.5,-333.0433 310.5,-333.0433 310.5,-311.0433 171.5,-311.0433"/>
<polygon fill="none" stroke="#000000" points="171.5,-311.0433 171.5,-333.0433 310.5,-333.0433 310.5,-311.0433 171.5,-311.0433"/>
<image xlink:href="../../images/foreignKeys.png" width="11px" height="12px" preserveAspectRatio="xMinYMin meet" x="176.5" y="-328.043"/>
<text text-anchor="start" x="200.5" y="-318.1433" font-family="Helvetica,sans-Serif" font-size="11.00" fill="#000000">UpdatedByUserId</text>
<polygon fill="none" stroke="#000000" points="171.5,-292.0433 171.5,-311.0433 310.5,-311.0433 310.5,-292.0433 171.5,-292.0433"/>
<text text-anchor="start" x="174.5" y="-298.1433" font-family="Helvetica,sans-Serif" font-size="11.00" fill="#000000">...</text>
<polygon fill="#ffffff" stroke="transparent" points="171.5,-273.0433 171.5,-292.0433 221.5,-292.0433 221.5,-273.0433 171.5,-273.0433"/>
<polygon fill="none" stroke="#000000" points="171.5,-273.0433 171.5,-292.0433 221.5,-292.0433 221.5,-273.0433 171.5,-273.0433"/>
<text text-anchor="start" x="174.5" y="-279.1433" font-family="Helvetica,sans-Serif" font-size="11.00" fill="#000000">&lt; 2</text>
<polygon fill="#ffffff" stroke="transparent" points="221.5,-273.0433 221.5,-292.0433 274.5,-292.0433 274.5,-273.0433 221.5,-273.0433"/>
<polygon fill="none" stroke="#000000" points="221.5,-273.0433 221.5,-292.0433 274.5,-292.0433 274.5,-273.0433 221.5,-273.0433"/>
<text text-anchor="start" x="239.1105" y="-279.1433" font-family="Helvetica,sans-Serif" font-size="11.00" fill="#000000">6 rows</text>
<polygon fill="#ffffff" stroke="transparent" points="274.5,-273.0433 274.5,-292.0433 310.5,-292.0433 310.5,-273.0433 274.5,-273.0433"/>
<polygon fill="none" stroke="#000000" points="274.5,-273.0433 274.5,-292.0433 310.5,-292.0433 310.5,-273.0433 274.5,-273.0433"/>
<text text-anchor="start" x="291.9053" y="-279.1433" font-family="Helvetica,sans-Serif" font-size="11.00" fill="#000000">6 &gt;</text>
</a>
</g>
</g>
<!-- CompetencyTechnicalCareer&#45;&gt;TechnicalCareers -->
<g id="edge7" class="edge">
<title>CompetencyTechnicalCareer:w&#45;&gt;TechnicalCareers:e</title>
<path fill="none" stroke="#000000" d="M346.7771,-467.0554C320.2142,-447.8759 356.2151,-366.0433 310.5,-366.0433"/>
<polygon fill="#000000" stroke="#000000" points="353.2971,-468.8834 360.0281,-474.5096 357.1485,-469.9634 361,-471.0433 361,-471.0433 361,-471.0433 357.1485,-469.9634 361.9719,-467.5769 353.2971,-468.8834 353.2971,-468.8834"/>
<ellipse fill="none" stroke="#000000" cx="350.2159" cy="-468.0195" rx="3.2" ry="3.2"/>
</g>
<!-- TechnicalCareers&#45;&gt;AspNetUsers -->
<g id="edge24" class="edge">
<title>TechnicalCareers:w&#45;&gt;AspNetUsers:e</title>
<path fill="none" stroke="#000000" d="M157.0598,-342.2268C145.4771,-339.1025 138.7264,-333.0433 122,-333.0433"/>
<polygon fill="#000000" stroke="#000000" points="163.5626,-343.0448 171.0507,-347.6151 167.5313,-343.544 171.5,-344.0433 171.5,-344.0433 171.5,-344.0433 167.5313,-343.544 171.9493,-340.4714 163.5626,-343.0448 163.5626,-343.0448"/>
<ellipse fill="none" stroke="#000000" cx="160.3876" cy="-342.6454" rx="3.2" ry="3.2"/>
</g>
<!-- TechnicalCareers&#45;&gt;AspNetUsers -->
<g id="edge25" class="edge">
<title>TechnicalCareers:w&#45;&gt;AspNetUsers:e</title>
<path fill="none" stroke="#000000" d="M157.0598,-323.8597C145.4771,-326.984 138.7264,-333.0433 122,-333.0433"/>
<polygon fill="#000000" stroke="#000000" points="163.5626,-323.0418 171.9493,-325.6151 167.5313,-322.5425 171.5,-322.0433 171.5,-322.0433 171.5,-322.0433 167.5313,-322.5425 171.0507,-318.4714 163.5626,-323.0418 163.5626,-323.0418"/>
<ellipse fill="none" stroke="#000000" cx="160.3876" cy="-323.4412" rx="3.2" ry="3.2"/>
</g>
<!-- Coordinators -->
<g id="node6" class="node">
<title>Coordinators</title>
<g id="a_node6"><a xlink:href="../../tables/Coordinators.html" xlink:title="Coordinators" target="_top">
<polygon fill="#ffffff" stroke="transparent" points="444,-246.5433 444,-307.5433 558,-307.5433 558,-246.5433 444,-246.5433"/>
<polygon fill="#f5f5f5" stroke="transparent" points="444,-284.0433 444,-307.0433 558,-307.0433 558,-284.0433 444,-284.0433"/>
<polygon fill="none" stroke="#000000" points="444,-284.0433 444,-307.0433 558,-307.0433 558,-284.0433 444,-284.0433"/>
<text text-anchor="start" x="449" y="-292.6433" font-family="Helvetica,sans-Serif" font-weight="bold" font-size="11.00" fill="#000000">Coordinators</text>
<text text-anchor="start" x="523.5219" y="-292.1433" font-family="Helvetica,sans-Serif" font-size="11.00" fill="#000000">[table]</text>
<polygon fill="none" stroke="#000000" points="444,-265.0433 444,-284.0433 558,-284.0433 558,-265.0433 444,-265.0433"/>
<text text-anchor="start" x="447" y="-271.1433" font-family="Helvetica,sans-Serif" font-size="11.00" fill="#000000">...</text>
<polygon fill="#ffffff" stroke="transparent" points="444,-246.0433 444,-265.0433 486,-265.0433 486,-246.0433 444,-246.0433"/>
<polygon fill="none" stroke="#000000" points="444,-246.0433 444,-265.0433 486,-265.0433 486,-246.0433 444,-246.0433"/>
<text text-anchor="start" x="447" y="-252.1433" font-family="Helvetica,sans-Serif" font-size="11.00" fill="#000000">&lt; 2</text>
<polygon fill="#ffffff" stroke="transparent" points="486,-246.0433 486,-265.0433 535,-265.0433 535,-246.0433 486,-246.0433"/>
<polygon fill="none" stroke="#000000" points="486,-246.0433 486,-265.0433 535,-265.0433 535,-246.0433 486,-246.0433"/>
<text text-anchor="start" x="499.6105" y="-252.1433" font-family="Helvetica,sans-Serif" font-size="11.00" fill="#000000">0 rows</text>
<polygon fill="#ffffff" stroke="transparent" points="535,-246.0433 535,-265.0433 558,-265.0433 558,-246.0433 535,-246.0433"/>
<polygon fill="none" stroke="#000000" points="535,-246.0433 535,-265.0433 558,-265.0433 558,-246.0433 535,-246.0433"/>
<text text-anchor="start" x="548.8862" y="-252.1433" font-family="Helvetica,sans-Serif" font-size="11.00" fill="#000000"> &#160;</text>
</a>
</g>
</g>
<!-- Coordinators&#45;&gt;AspNetUsers -->
<g id="edge9" class="edge">
<title>Coordinators:w&#45;&gt;AspNetUsers:e</title>
<path fill="none" stroke="#000000" d="M433.5643,-273.872C316.2716,-270.0083 268.3637,-202.6498 163,-263.0433 131.7194,-280.973 158.0548,-333.0433 122,-333.0433"/>
<polygon fill="#000000" stroke="#000000" points="443.2658,-270.0307 443.1344,-278.0296 441.5346,-278.0033 441.666,-270.0044 443.2658,-270.0307"/>
<polyline fill="none" stroke="#000000" points="444,-274.0433 440.0005,-273.9776 "/>
<ellipse fill="none" stroke="#000000" cx="436.801" cy="-273.925" rx="3.2" ry="3.2"/>
</g>
<!-- Coordinators&#45;&gt;TechnicalCareers -->
<g id="edge8" class="edge">
<title>Coordinators:w&#45;&gt;TechnicalCareers:e</title>
<path fill="none" stroke="#000000" d="M429.5236,-274.7886C394.9803,-278.635 383.7936,-297.0289 351,-322.0433 329.8675,-338.1627 337.0786,-366.0433 310.5,-366.0433"/>
<polygon fill="#000000" stroke="#000000" points="436.0106,-274.4547 444.1851,-277.6385 440.0053,-274.249 444,-274.0433 444,-274.0433 444,-274.0433 440.0053,-274.249 443.8149,-270.448 436.0106,-274.4547 436.0106,-274.4547"/>
<ellipse fill="none" stroke="#000000" cx="432.8148" cy="-274.6192" rx="3.2" ry="3.2"/>
</g>
<!-- EvaluationPeriodTechnicalCareer -->
<g id="node7" class="node">
<title>EvaluationPeriodTechnicalCareer</title>
<g id="a_node7"><a xlink:href="../../tables/EvaluationPeriodTechnicalCareer.html" xlink:title="EvaluationPeriodTechnicalCareer" target="_top">
<polygon fill="#ffffff" stroke="transparent" points="386,-356.5433 386,-417.5433 616,-417.5433 616,-356.5433 386,-356.5433"/>
<polygon fill="#f5f5f5" stroke="transparent" points="386,-394.0433 386,-417.0433 616,-417.0433 616,-394.0433 386,-394.0433"/>
<polygon fill="none" stroke="#000000" points="386,-394.0433 386,-417.0433 616,-417.0433 616,-394.0433 386,-394.0433"/>
<text text-anchor="start" x="391" y="-402.6433" font-family="Helvetica,sans-Serif" font-weight="bold" font-size="11.00" fill="#000000">EvaluationPeriodTechnicalCareer</text>
<text text-anchor="start" x="581.5219" y="-402.1433" font-family="Helvetica,sans-Serif" font-size="11.00" fill="#000000">[table]</text>
<polygon fill="none" stroke="#000000" points="386,-375.0433 386,-394.0433 616,-394.0433 616,-375.0433 386,-375.0433"/>
<text text-anchor="start" x="389" y="-381.1433" font-family="Helvetica,sans-Serif" font-size="11.00" fill="#000000">...</text>
<polygon fill="#ffffff" stroke="transparent" points="386,-356.0433 386,-375.0433 486,-375.0433 486,-356.0433 386,-356.0433"/>
<polygon fill="none" stroke="#000000" points="386,-356.0433 386,-375.0433 486,-375.0433 486,-356.0433 386,-356.0433"/>
<text text-anchor="start" x="389" y="-362.1433" font-family="Helvetica,sans-Serif" font-size="11.00" fill="#000000">&lt; 2</text>
<polygon fill="#ffffff" stroke="transparent" points="486,-356.0433 486,-375.0433 564,-375.0433 564,-356.0433 486,-356.0433"/>
<polygon fill="none" stroke="#000000" points="486,-356.0433 486,-375.0433 564,-375.0433 564,-356.0433 486,-356.0433"/>
<text text-anchor="start" x="528.6105" y="-362.1433" font-family="Helvetica,sans-Serif" font-size="11.00" fill="#000000">0 rows</text>
<polygon fill="#ffffff" stroke="transparent" points="564,-356.0433 564,-375.0433 616,-375.0433 616,-356.0433 564,-356.0433"/>
<polygon fill="none" stroke="#000000" points="564,-356.0433 564,-375.0433 616,-375.0433 616,-356.0433 564,-356.0433"/>
<text text-anchor="start" x="606.8862" y="-362.1433" font-family="Helvetica,sans-Serif" font-size="11.00" fill="#000000"> &#160;</text>
</a>
</g>
</g>
<!-- EvaluationPeriodTechnicalCareer&#45;&gt;TechnicalCareers -->
<g id="edge10" class="edge">
<title>EvaluationPeriodTechnicalCareer:w&#45;&gt;TechnicalCareers:e</title>
<path fill="none" stroke="#000000" d="M371.3495,-382.8061C348.7015,-378.7393 339.4713,-366.0433 310.5,-366.0433"/>
<polygon fill="#000000" stroke="#000000" points="378.0284,-383.37 385.697,-387.6305 382.0142,-383.7067 386,-384.0433 386,-384.0433 386,-384.0433 382.0142,-383.7067 386.303,-380.456 378.0284,-383.37 378.0284,-383.37"/>
<ellipse fill="none" stroke="#000000" cx="374.8397" cy="-383.1007" rx="3.2" ry="3.2"/>
</g>
<!-- FormQuestions -->
<g id="node8" class="node">
<title>FormQuestions</title>
<g id="a_node8"><a xlink:href="../../tables/FormQuestions.html" xlink:title="FormQuestions" target="_top">
<polygon fill="#ffffff" stroke="transparent" points="437.5,-550.5433 437.5,-611.5433 564.5,-611.5433 564.5,-550.5433 437.5,-550.5433"/>
<polygon fill="#f5f5f5" stroke="transparent" points="438,-588.0433 438,-611.0433 565,-611.0433 565,-588.0433 438,-588.0433"/>
<polygon fill="none" stroke="#000000" points="438,-588.0433 438,-611.0433 565,-611.0433 565,-588.0433 438,-588.0433"/>
<text text-anchor="start" x="443" y="-596.6433" font-family="Helvetica,sans-Serif" font-weight="bold" font-size="11.00" fill="#000000">FormQuestions</text>
<text text-anchor="start" x="530.5219" y="-596.1433" font-family="Helvetica,sans-Serif" font-size="11.00" fill="#000000">[table]</text>
<polygon fill="none" stroke="#000000" points="438,-569.0433 438,-588.0433 565,-588.0433 565,-569.0433 438,-569.0433"/>
<text text-anchor="start" x="441" y="-575.1433" font-family="Helvetica,sans-Serif" font-size="11.00" fill="#000000">...</text>
<polygon fill="#ffffff" stroke="transparent" points="438,-550.0433 438,-569.0433 482,-569.0433 482,-550.0433 438,-550.0433"/>
<polygon fill="none" stroke="#000000" points="438,-550.0433 438,-569.0433 482,-569.0433 482,-550.0433 438,-550.0433"/>
<text text-anchor="start" x="441" y="-556.1433" font-family="Helvetica,sans-Serif" font-size="11.00" fill="#000000">&lt; 3</text>
<polygon fill="#ffffff" stroke="transparent" points="482,-550.0433 482,-569.0433 532,-569.0433 532,-550.0433 482,-550.0433"/>
<polygon fill="none" stroke="#000000" points="482,-550.0433 482,-569.0433 532,-569.0433 532,-550.0433 482,-550.0433"/>
<text text-anchor="start" x="496.6105" y="-556.1433" font-family="Helvetica,sans-Serif" font-size="11.00" fill="#000000">0 rows</text>
<polygon fill="#ffffff" stroke="transparent" points="532,-550.0433 532,-569.0433 565,-569.0433 565,-550.0433 532,-550.0433"/>
<polygon fill="none" stroke="#000000" points="532,-550.0433 532,-569.0433 565,-569.0433 565,-550.0433 532,-550.0433"/>
<text text-anchor="start" x="546.4053" y="-556.1433" font-family="Helvetica,sans-Serif" font-size="11.00" fill="#000000">1 &gt;</text>
</a>
</g>
</g>
<!-- FormQuestions&#45;&gt;Competencies -->
<g id="edge11" class="edge">
<title>FormQuestions:w&#45;&gt;Competencies:e</title>
<path fill="none" stroke="#000000" d="M423.3046,-577.9597C374.3729,-577.3853 356.9769,-574.0433 301.5,-574.0433"/>
<polygon fill="#000000" stroke="#000000" points="430.0001,-577.9977 437.9795,-581.6432 434.0001,-578.0205 438,-578.0433 438,-578.0433 438,-578.0433 434.0001,-578.0205 438.0205,-574.4433 430.0001,-577.9977 430.0001,-577.9977"/>
<ellipse fill="none" stroke="#000000" cx="426.8002" cy="-577.9795" rx="3.2" ry="3.2"/>
</g>
<!-- FormQuestions&#45;&gt;AspNetUsers -->
<g id="edge12" class="edge">
<title>FormQuestions:w&#45;&gt;AspNetUsers:e</title>
<path fill="none" stroke="#000000" d="M423.3919,-577.613C391.942,-575.5507 377.5501,-565.698 351,-540.0433 326.5543,-516.422 342.9418,-494.1401 318,-471.0433 263.7999,-420.8523 218.1401,-460.1998 163,-411.0433 133.7661,-384.9817 161.1641,-333.0433 122,-333.0433"/>
<polygon fill="#000000" stroke="#000000" points="430.0035,-577.8077 437.894,-581.6417 434.0017,-577.9255 438,-578.0433 438,-578.0433 438,-578.0433 434.0017,-577.9255 438.106,-574.4448 430.0035,-577.8077 430.0035,-577.8077"/>
<ellipse fill="none" stroke="#000000" cx="426.8049" cy="-577.7135" rx="3.2" ry="3.2"/>
</g>
<!-- FormQuestions&#45;&gt;AspNetUsers -->
<g id="edge13" class="edge">
<title>FormQuestions:w&#45;&gt;AspNetUsers:e</title>
<path fill="none" stroke="#000000" d="M423.4061,-577.5982C392.0175,-575.4717 377.852,-565.3819 351,-540.0433 327.4363,-517.8075 341.5457,-497.2981 318,-475.0433 263.3291,-423.3698 218.5964,-457.7197 163,-407.0433 135.212,-381.7143 159.5996,-333.0433 122,-333.0433"/>
<polygon fill="#000000" stroke="#000000" points="430.0037,-577.7994 437.8902,-581.6416 434.0019,-577.9213 438,-578.0433 438,-578.0433 438,-578.0433 434.0019,-577.9213 438.1098,-574.4449 430.0037,-577.7994 430.0037,-577.7994"/>
<ellipse fill="none" stroke="#000000" cx="426.8052" cy="-577.7018" rx="3.2" ry="3.2"/>
</g>
<!-- ProfessorCompetencyAssignments -->
<g id="node9" class="node">
<title>ProfessorCompetencyAssignments</title>
<g id="a_node9"><a xlink:href="../../tables/ProfessorCompetencyAssignments.html" xlink:title="ProfessorCompetencyAssignments" target="_top">
<polygon fill="#ffffff" stroke="transparent" points="692,-164.5433 692,-225.5433 934,-225.5433 934,-164.5433 692,-164.5433"/>
<polygon fill="#f5f5f5" stroke="transparent" points="692,-202.0433 692,-225.0433 934,-225.0433 934,-202.0433 692,-202.0433"/>
<polygon fill="none" stroke="#000000" points="692,-202.0433 692,-225.0433 934,-225.0433 934,-202.0433 692,-202.0433"/>
<text text-anchor="start" x="697" y="-210.6433" font-family="Helvetica,sans-Serif" font-weight="bold" font-size="11.00" fill="#000000">ProfessorCompetencyAssignments</text>
<text text-anchor="start" x="899.5219" y="-210.1433" font-family="Helvetica,sans-Serif" font-size="11.00" fill="#000000">[table]</text>
<polygon fill="none" stroke="#000000" points="692,-183.0433 692,-202.0433 934,-202.0433 934,-183.0433 692,-183.0433"/>
<text text-anchor="start" x="695" y="-189.1433" font-family="Helvetica,sans-Serif" font-size="11.00" fill="#000000">...</text>
<polygon fill="#ffffff" stroke="transparent" points="692,-164.0433 692,-183.0433 794,-183.0433 794,-164.0433 692,-164.0433"/>
<polygon fill="none" stroke="#000000" points="692,-164.0433 692,-183.0433 794,-183.0433 794,-164.0433 692,-164.0433"/>
<text text-anchor="start" x="695" y="-170.1433" font-family="Helvetica,sans-Serif" font-size="11.00" fill="#000000">&lt; 7</text>
<polygon fill="#ffffff" stroke="transparent" points="794,-164.0433 794,-183.0433 872,-183.0433 872,-164.0433 794,-164.0433"/>
<polygon fill="none" stroke="#000000" points="794,-164.0433 794,-183.0433 872,-183.0433 872,-164.0433 794,-164.0433"/>
<text text-anchor="start" x="836.6105" y="-170.1433" font-family="Helvetica,sans-Serif" font-size="11.00" fill="#000000">0 rows</text>
<polygon fill="#ffffff" stroke="transparent" points="872,-164.0433 872,-183.0433 934,-183.0433 934,-164.0433 872,-164.0433"/>
<polygon fill="none" stroke="#000000" points="872,-164.0433 872,-183.0433 934,-183.0433 934,-164.0433 872,-164.0433"/>
<text text-anchor="start" x="915.4053" y="-170.1433" font-family="Helvetica,sans-Serif" font-size="11.00" fill="#000000">1 &gt;</text>
</a>
</g>
</g>
<!-- ProfessorCompetencyAssignments&#45;&gt;Competencies -->
<g id="edge14" class="edge">
<title>ProfessorCompetencyAssignments:w&#45;&gt;Competencies:e</title>
<path fill="none" stroke="#000000" d="M677.7499,-195.4392C609.6537,-232.4741 717.9999,-561.1279 651,-622.0433 601.673,-666.8907 412.7864,-647.081 351,-622.0433 322.5984,-610.5341 332.1449,-574.0433 301.5,-574.0433"/>
<polygon fill="#000000" stroke="#000000" points="684.2179,-193.8979 692.8346,-195.5452 688.109,-192.9706 692,-192.0433 692,-192.0433 692,-192.0433 688.109,-192.9706 691.1654,-188.5413 684.2179,-193.8979 684.2179,-193.8979"/>
<ellipse fill="none" stroke="#000000" cx="681.1051" cy="-194.6397" rx="3.2" ry="3.2"/>
</g>
<!-- ProfessorCompetencyAssignments&#45;&gt;AspNetUsers -->
<g id="edge15" class="edge">
<title>ProfessorCompetencyAssignments:w&#45;&gt;AspNetUsers:e</title>
<path fill="none" stroke="#000000" d="M677.827,-189.2989C647.3593,-174.2515 692.0097,-101.3689 651,-72.0433 562.5749,-8.8113 239.859,-29.1669 163,-106.0433 90.5147,-178.545 224.5213,-333.0433 122,-333.0433"/>
<polygon fill="#000000" stroke="#000000" points="684.1459,-190.5224 691.3156,-195.5776 688.0729,-191.2829 692,-192.0433 692,-192.0433 692,-192.0433 688.0729,-191.2829 692.6844,-188.5089 684.1459,-190.5224 684.1459,-190.5224"/>
<ellipse fill="none" stroke="#000000" cx="681.0042" cy="-189.9141" rx="3.2" ry="3.2"/>
</g>
<!-- ProfessorCompetencyAssignments&#45;&gt;AspNetUsers -->
<g id="edge18" class="edge">
<title>ProfessorCompetencyAssignments:w&#45;&gt;AspNetUsers:e</title>
<path fill="none" stroke="#000000" d="M677.8309,-189.1929C648.846,-174.207 690.7624,-104.1623 651,-76.0433 562.2438,-13.2769 239.9794,-33.2875 163,-110.0433 91.6396,-181.1964 222.7723,-333.0433 122,-333.0433"/>
<polygon fill="#000000" stroke="#000000" points="684.1571,-190.4655 691.29,-195.5726 688.0786,-191.2544 692,-192.0433 692,-192.0433 692,-192.0433 688.0786,-191.2544 692.71,-188.514 684.1571,-190.4655 684.1571,-190.4655"/>
<ellipse fill="none" stroke="#000000" cx="681.02" cy="-189.8344" rx="3.2" ry="3.2"/>
</g>
<!-- ProfessorCompetencyAssignments&#45;&gt;TechnicalCareers -->
<g id="edge17" class="edge">
<title>ProfessorCompetencyAssignments:w&#45;&gt;TechnicalCareers:e</title>
<path fill="none" stroke="#000000" d="M677.6123,-194.6557C644.9521,-209.6245 692.3186,-284.9956 651,-318.0433 598.7114,-359.865 415.4245,-327.8047 351,-346.0433 331.684,-351.5116 330.5752,-366.0433 310.5,-366.0433"/>
<polygon fill="#000000" stroke="#000000" points="684.1287,-193.4725 692.6432,-195.5854 688.0643,-192.7579 692,-192.0433 692,-192.0433 692,-192.0433 688.0643,-192.7579 691.3568,-188.5012 684.1287,-193.4725 684.1287,-193.4725"/>
<ellipse fill="none" stroke="#000000" cx="680.9802" cy="-194.0442" rx="3.2" ry="3.2"/>
</g>
<!-- Subjects -->
<g id="node10" class="node">
<title>Subjects</title>
<g id="a_node10"><a xlink:href="../../tables/Subjects.html" xlink:title="Subjects" target="_top">
<polygon fill="#ffffff" stroke="transparent" points="456.5,-164.5433 456.5,-225.5433 545.5,-225.5433 545.5,-164.5433 456.5,-164.5433"/>
<polygon fill="#f5f5f5" stroke="transparent" points="457,-202.0433 457,-225.0433 546,-225.0433 546,-202.0433 457,-202.0433"/>
<polygon fill="none" stroke="#000000" points="457,-202.0433 457,-225.0433 546,-225.0433 546,-202.0433 457,-202.0433"/>
<text text-anchor="start" x="462" y="-210.6433" font-family="Helvetica,sans-Serif" font-weight="bold" font-size="11.00" fill="#000000">Subjects</text>
<text text-anchor="start" x="511.5219" y="-210.1433" font-family="Helvetica,sans-Serif" font-size="11.00" fill="#000000">[table]</text>
<polygon fill="none" stroke="#000000" points="457,-183.0433 457,-202.0433 546,-202.0433 546,-183.0433 457,-183.0433"/>
<text text-anchor="start" x="460" y="-189.1433" font-family="Helvetica,sans-Serif" font-size="11.00" fill="#000000">...</text>
<polygon fill="#ffffff" stroke="transparent" points="457,-164.0433 457,-183.0433 482,-183.0433 482,-164.0433 457,-164.0433"/>
<polygon fill="none" stroke="#000000" points="457,-164.0433 457,-183.0433 482,-183.0433 482,-164.0433 457,-164.0433"/>
<text text-anchor="start" x="460" y="-170.1433" font-family="Helvetica,sans-Serif" font-size="11.00" fill="#000000">&lt; 4</text>
<polygon fill="#ffffff" stroke="transparent" points="482,-164.0433 482,-183.0433 522,-183.0433 522,-164.0433 482,-164.0433"/>
<polygon fill="none" stroke="#000000" points="482,-164.0433 482,-183.0433 522,-183.0433 522,-164.0433 482,-164.0433"/>
<text text-anchor="start" x="486.6105" y="-170.1433" font-family="Helvetica,sans-Serif" font-size="11.00" fill="#000000">0 rows</text>
<polygon fill="#ffffff" stroke="transparent" points="522,-164.0433 522,-183.0433 546,-183.0433 546,-164.0433 522,-164.0433"/>
<polygon fill="none" stroke="#000000" points="522,-164.0433 522,-183.0433 546,-183.0433 546,-164.0433 522,-164.0433"/>
<text text-anchor="start" x="527.4053" y="-170.1433" font-family="Helvetica,sans-Serif" font-size="11.00" fill="#000000">3 &gt;</text>
</a>
</g>
</g>
<!-- ProfessorCompetencyAssignments&#45;&gt;Subjects -->
<g id="edge16" class="edge">
<title>ProfessorCompetencyAssignments:w&#45;&gt;Subjects:e</title>
<path fill="none" stroke="#000000" d="M677.2977,-192.0433C624.2009,-192.0433 605.6927,-192.0433 546,-192.0433"/>
<polygon fill="#000000" stroke="#000000" points="684,-192.0433 692,-195.6433 688,-192.0433 692,-192.0433 692,-192.0433 692,-192.0433 688,-192.0433 692,-188.4433 684,-192.0433 684,-192.0433"/>
<ellipse fill="none" stroke="#000000" cx="680.8" cy="-192.0433" rx="3.2" ry="3.2"/>
</g>
<!-- Subjects&#45;&gt;AspNetUsers -->
<g id="edge21" class="edge">
<title>Subjects:w&#45;&gt;AspNetUsers:e</title>
<path fill="none" stroke="#000000" d="M442.5997,-191.8945C320.603,-189.39 263.4608,-157.0924 163,-235.0433 125.6984,-263.9868 169.2137,-333.0433 122,-333.0433"/>
<polygon fill="#000000" stroke="#000000" points="449.0004,-191.9606 456.9628,-195.6431 453.0002,-192.0019 457,-192.0433 457,-192.0433 457,-192.0433 453.0002,-192.0019 457.0372,-188.4435 449.0004,-191.9606 449.0004,-191.9606"/>
<ellipse fill="none" stroke="#000000" cx="445.8006" cy="-191.9275" rx="3.2" ry="3.2"/>
</g>
<!-- Subjects&#45;&gt;AspNetUsers -->
<g id="edge23" class="edge">
<title>Subjects:w&#45;&gt;AspNetUsers:e</title>
<path fill="none" stroke="#000000" d="M442.5731,-191.9103C320.3739,-189.6762 263.7342,-161.0222 163,-239.0433 126.9655,-266.9529 167.5789,-333.0433 122,-333.0433"/>
<polygon fill="#000000" stroke="#000000" points="449.0003,-191.9695 456.9668,-195.6431 453.0002,-192.0064 457,-192.0433 457,-192.0433 457,-192.0433 453.0002,-192.0064 457.0332,-188.4434 449.0003,-191.9695 449.0003,-191.9695"/>
<ellipse fill="none" stroke="#000000" cx="445.8005" cy="-191.94" rx="3.2" ry="3.2"/>
</g>
<!-- Subjects&#45;&gt;TechnicalCareers -->
<g id="edge22" class="edge">
<title>Subjects:w&#45;&gt;TechnicalCareers:e</title>
<path fill="none" stroke="#000000" d="M442.3528,-192.2651C401.6631,-193.6506 381.8904,-202.1907 351,-236.0433 310.2087,-280.7461 371.0167,-366.0433 310.5,-366.0433"/>
<polygon fill="#000000" stroke="#000000" points="449.0009,-192.1645 457.0545,-195.6429 453.0005,-192.1039 457,-192.0433 457,-192.0433 457,-192.0433 453.0005,-192.1039 456.9455,-188.4437 449.0009,-192.1645 449.0009,-192.1645"/>
<ellipse fill="none" stroke="#000000" cx="445.8013" cy="-192.2129" rx="3.2" ry="3.2"/>
</g>
<!-- Students -->
<g id="node11" class="node">
<title>Students</title>
<g id="a_node11"><a xlink:href="../../tables/Students.html" xlink:title="Students" target="_top">
<polygon fill="#ffffff" stroke="transparent" points="456,-82.5433 456,-143.5433 546,-143.5433 546,-82.5433 456,-82.5433"/>
<polygon fill="#f5f5f5" stroke="transparent" points="456,-120.0433 456,-143.0433 546,-143.0433 546,-120.0433 456,-120.0433"/>
<polygon fill="none" stroke="#000000" points="456,-120.0433 456,-143.0433 546,-143.0433 546,-120.0433 456,-120.0433"/>
<text text-anchor="start" x="461" y="-128.6433" font-family="Helvetica,sans-Serif" font-weight="bold" font-size="11.00" fill="#000000">Students</text>
<text text-anchor="start" x="511.5219" y="-128.1433" font-family="Helvetica,sans-Serif" font-size="11.00" fill="#000000">[table]</text>
<polygon fill="none" stroke="#000000" points="456,-101.0433 456,-120.0433 546,-120.0433 546,-101.0433 456,-101.0433"/>
<text text-anchor="start" x="459" y="-107.1433" font-family="Helvetica,sans-Serif" font-size="11.00" fill="#000000">...</text>
<polygon fill="#ffffff" stroke="transparent" points="456,-82.0433 456,-101.0433 482,-101.0433 482,-82.0433 456,-82.0433"/>
<polygon fill="none" stroke="#000000" points="456,-82.0433 456,-101.0433 482,-101.0433 482,-82.0433 456,-82.0433"/>
<text text-anchor="start" x="459" y="-88.1433" font-family="Helvetica,sans-Serif" font-size="11.00" fill="#000000">&lt; 2</text>
<polygon fill="#ffffff" stroke="transparent" points="482,-82.0433 482,-101.0433 522,-101.0433 522,-82.0433 482,-82.0433"/>
<polygon fill="none" stroke="#000000" points="482,-82.0433 482,-101.0433 522,-101.0433 522,-82.0433 482,-82.0433"/>
<text text-anchor="start" x="486.6105" y="-88.1433" font-family="Helvetica,sans-Serif" font-size="11.00" fill="#000000">0 rows</text>
<polygon fill="#ffffff" stroke="transparent" points="522,-82.0433 522,-101.0433 546,-101.0433 546,-82.0433 522,-82.0433"/>
<polygon fill="none" stroke="#000000" points="522,-82.0433 522,-101.0433 546,-101.0433 546,-82.0433 522,-82.0433"/>
<text text-anchor="start" x="527.4053" y="-88.1433" font-family="Helvetica,sans-Serif" font-size="11.00" fill="#000000">3 &gt;</text>
</a>
</g>
</g>
<!-- Students&#45;&gt;AspNetUsers -->
<g id="edge20" class="edge">
<title>Students:w&#45;&gt;AspNetUsers:e</title>
<path fill="none" stroke="#000000" d="M445.5393,-110.0006C318.5614,-108.9808 256.4293,-90.8455 163,-182.0433 113.2364,-230.6183 191.541,-333.0433 122,-333.0433"/>
<polygon fill="#000000" stroke="#000000" points="455.2164,-106.04 455.1836,-114.04 453.5837,-114.0334 453.6164,-106.0335 455.2164,-106.04"/>
<polyline fill="none" stroke="#000000" points="456,-110.0433 452,-110.0269 "/>
<ellipse fill="none" stroke="#000000" cx="448.8001" cy="-110.0138" rx="3.2" ry="3.2"/>
</g>
<!-- Students&#45;&gt;TechnicalCareers -->
<g id="edge19" class="edge">
<title>Students:w&#45;&gt;TechnicalCareers:e</title>
<path fill="none" stroke="#000000" d="M441.4126,-110.22C400.7285,-111.3548 379.633,-118.7344 351,-154.0433 290.5801,-228.5501 406.4262,-366.0433 310.5,-366.0433"/>
<polygon fill="#000000" stroke="#000000" points="448.0006,-110.1403 456.0436,-113.643 452.0003,-110.0918 456,-110.0433 456,-110.0433 456,-110.0433 452.0003,-110.0918 455.9564,-106.4435 448.0006,-110.1403 448.0006,-110.1403"/>
<ellipse fill="none" stroke="#000000" cx="444.8008" cy="-110.179" rx="3.2" ry="3.2"/>
</g>
</g>
</svg>
