<?xml version="1.0" encoding="UTF-8" standalone="no"?>
<!DOCTYPE svg PUBLIC "-//W3C//DTD SVG 1.1//EN"
 "http://www.w3.org/Graphics/SVG/1.1/DTD/svg11.dtd">
<!-- Generated by graphviz version 2.40.1 (20161225.0304)
 -->
<!-- Title: oneDegreeRelationshipsDiagram Pages: 1 -->
<svg width="746pt" height="757pt"
 viewBox="0.00 0.00 746.00 757.20" xmlns="http://www.w3.org/2000/svg" xmlns:xlink="http://www.w3.org/1999/xlink">
<g id="graph0" class="graph" transform="scale(1 1) rotate(0) translate(4 753.2)">
<title>oneDegreeRelationshipsDiagram</title>
<polygon fill="#ffffff" stroke="transparent" points="-4,4 -4,-753.2 742,-753.2 742,4 -4,4"/>
<text text-anchor="middle" x="72.4936" y="-7.3" font-family="Helvetica,sans-Serif" font-size="11.00" fill="#000000">Generated by SchemaSpy</text>
<!-- Competencies -->
<g id="node1" class="node">
<title>Competencies</title>
<g id="a_node1"><a xlink:href="../../tables/Competencies.html" xlink:title="Competencies" target="_top">
<polygon fill="#ffffff" stroke="transparent" points="220,-315.7 220,-559.7 439,-559.7 439,-315.7 220,-315.7"/>
<polygon fill="#f5f5f5" stroke="transparent" points="222.5,-534.7 222.5,-557.7 437.5,-557.7 437.5,-534.7 222.5,-534.7"/>
<polygon fill="none" stroke="#000000" points="222.5,-534.7 222.5,-557.7 437.5,-557.7 437.5,-534.7 222.5,-534.7"/>
<text text-anchor="start" x="227.5" y="-543.3" font-family="Helvetica,sans-Serif" font-weight="bold" font-size="11.00" fill="#000000">Competencies</text>
<text text-anchor="start" x="402.5437" y="-542.8" font-family="Helvetica,sans-Serif" font-size="11.00" fill="#000000">[table]</text>
<polygon fill="none" stroke="#000000" points="222.5,-512.7 222.5,-534.7 343.5,-534.7 343.5,-512.7 222.5,-512.7"/>
<image xlink:href="../../images/primaryKeys.png" width="11px" height="12px" preserveAspectRatio="xMinYMin meet" x="227.5" y="-529.7"/>
<text text-anchor="start" x="242.5" y="-519.8" font-family="Helvetica,sans-Serif" font-size="11.00" fill="#000000">Id</text>
<polygon fill="none" stroke="#000000" points="343.5,-512.7 343.5,-534.7 437.5,-534.7 437.5,-512.7 343.5,-512.7"/>
<text text-anchor="start" x="346.4758" y="-520.4" font-family="Helvetica,sans-Serif" font-size="11.00" fill="#000000">uuid[2147483647]</text>
<polygon fill="none" stroke="#000000" points="222.5,-490.7 222.5,-512.7 343.5,-512.7 343.5,-490.7 222.5,-490.7"/>
<text text-anchor="start" x="242.5" y="-497.8" font-family="Helvetica,sans-Serif" font-size="11.00" fill="#000000">Name</text>
<polygon fill="none" stroke="#000000" points="343.5,-490.7 343.5,-512.7 437.5,-512.7 437.5,-490.7 343.5,-490.7"/>
<text text-anchor="start" x="346.5" y="-498.4" font-family="Helvetica,sans-Serif" font-size="11.00" fill="#000000">text[2147483647]</text>
<polygon fill="none" stroke="#000000" points="222.5,-468.7 222.5,-490.7 343.5,-490.7 343.5,-468.7 222.5,-468.7"/>
<text text-anchor="start" x="242.5" y="-475.8" font-family="Helvetica,sans-Serif" font-size="11.00" fill="#000000">Description</text>
<polygon fill="none" stroke="#000000" points="343.5,-468.7 343.5,-490.7 437.5,-490.7 437.5,-468.7 343.5,-468.7"/>
<text text-anchor="start" x="346.5" y="-476.4" font-family="Helvetica,sans-Serif" font-size="11.00" fill="#000000">text[2147483647]</text>
<polygon fill="none" stroke="#000000" points="222.5,-446.7 222.5,-468.7 343.5,-468.7 343.5,-446.7 222.5,-446.7"/>
<text text-anchor="start" x="242.5" y="-453.8" font-family="Helvetica,sans-Serif" font-size="11.00" fill="#000000">Type</text>
<polygon fill="none" stroke="#000000" points="343.5,-446.7 343.5,-468.7 437.5,-468.7 437.5,-446.7 343.5,-446.7"/>
<text text-anchor="start" x="346.5" y="-454.4" font-family="Helvetica,sans-Serif" font-size="11.00" fill="#000000">int4[10]</text>
<polygon fill="none" stroke="#000000" points="222.5,-424.7 222.5,-446.7 343.5,-446.7 343.5,-424.7 222.5,-424.7"/>
<text text-anchor="start" x="242.5" y="-431.8" font-family="Helvetica,sans-Serif" font-size="11.00" fill="#000000">IsActive</text>
<polygon fill="none" stroke="#000000" points="343.5,-424.7 343.5,-446.7 437.5,-446.7 437.5,-424.7 343.5,-424.7"/>
<text text-anchor="start" x="346.5" y="-432.4" font-family="Helvetica,sans-Serif" font-size="11.00" fill="#000000">bool[1]</text>
<polygon fill="none" stroke="#000000" points="222.5,-402.7 222.5,-424.7 343.5,-424.7 343.5,-402.7 222.5,-402.7"/>
<text text-anchor="start" x="242.5" y="-409.8" font-family="Helvetica,sans-Serif" font-size="11.00" fill="#000000">CreatedAt</text>
<polygon fill="none" stroke="#000000" points="343.5,-402.7 343.5,-424.7 437.5,-424.7 437.5,-402.7 343.5,-402.7"/>
<text text-anchor="start" x="346.5" y="-410.4" font-family="Helvetica,sans-Serif" font-size="11.00" fill="#000000">timestamptz[35,6]</text>
<polygon fill="none" stroke="#000000" points="222.5,-380.7 222.5,-402.7 343.5,-402.7 343.5,-380.7 222.5,-380.7"/>
<text text-anchor="start" x="242.5" y="-387.8" font-family="Helvetica,sans-Serif" font-size="11.00" fill="#000000">UpdatedAt</text>
<polygon fill="none" stroke="#000000" points="343.5,-380.7 343.5,-402.7 437.5,-402.7 437.5,-380.7 343.5,-380.7"/>
<text text-anchor="start" x="346.5" y="-388.4" font-family="Helvetica,sans-Serif" font-size="11.00" fill="#000000">timestamptz[35,6]</text>
<polygon fill="#ffffff" stroke="transparent" points="222.5,-358.7 222.5,-380.7 343.5,-380.7 343.5,-358.7 222.5,-358.7"/>
<polygon fill="none" stroke="#000000" points="222.5,-358.7 222.5,-380.7 343.5,-380.7 343.5,-358.7 222.5,-358.7"/>
<image xlink:href="../../images/foreignKeys.png" width="11px" height="12px" preserveAspectRatio="xMinYMin meet" x="227.5" y="-375.7"/>
<text text-anchor="start" x="242.5" y="-365.8" font-family="Helvetica,sans-Serif" font-size="11.00" fill="#000000">CreatedByUserId</text>
<polygon fill="none" stroke="#000000" points="343.5,-358.7 343.5,-380.7 437.5,-380.7 437.5,-358.7 343.5,-358.7"/>
<text text-anchor="start" x="346.5" y="-366.4" font-family="Helvetica,sans-Serif" font-size="11.00" fill="#000000">text[2147483647]</text>
<polygon fill="#ffffff" stroke="transparent" points="222.5,-336.7 222.5,-358.7 343.5,-358.7 343.5,-336.7 222.5,-336.7"/>
<polygon fill="none" stroke="#000000" points="222.5,-336.7 222.5,-358.7 343.5,-358.7 343.5,-336.7 222.5,-336.7"/>
<image xlink:href="../../images/foreignKeys.png" width="11px" height="12px" preserveAspectRatio="xMinYMin meet" x="227.5" y="-353.7"/>
<text text-anchor="start" x="242.5" y="-343.8" font-family="Helvetica,sans-Serif" font-size="11.00" fill="#000000">UpdatedByUserId</text>
<polygon fill="none" stroke="#000000" points="343.5,-336.7 343.5,-358.7 437.5,-358.7 437.5,-336.7 343.5,-336.7"/>
<text text-anchor="start" x="346.5" y="-344.4" font-family="Helvetica,sans-Serif" font-size="11.00" fill="#000000">text[2147483647]</text>
<polygon fill="#ffffff" stroke="transparent" points="222.5,-317.7 222.5,-336.7 274.5,-336.7 274.5,-317.7 222.5,-317.7"/>
<polygon fill="none" stroke="#000000" points="222.5,-317.7 222.5,-336.7 274.5,-336.7 274.5,-317.7 222.5,-317.7"/>
<text text-anchor="start" x="225.5" y="-323.8" font-family="Helvetica,sans-Serif" font-size="11.00" fill="#000000">&lt; 2</text>
<polygon fill="#ffffff" stroke="transparent" points="274.5,-317.7 274.5,-336.7 343.5,-336.7 343.5,-317.7 274.5,-317.7"/>
<polygon fill="none" stroke="#000000" points="274.5,-317.7 274.5,-336.7 343.5,-336.7 343.5,-317.7 274.5,-317.7"/>
<text text-anchor="start" x="308.1105" y="-323.8" font-family="Helvetica,sans-Serif" font-size="11.00" fill="#000000">5 rows</text>
<polygon fill="#ffffff" stroke="transparent" points="343.5,-317.7 343.5,-336.7 437.5,-336.7 437.5,-317.7 343.5,-317.7"/>
<polygon fill="none" stroke="#000000" points="343.5,-317.7 343.5,-336.7 437.5,-336.7 437.5,-317.7 343.5,-317.7"/>
<text text-anchor="start" x="418.9053" y="-323.8" font-family="Helvetica,sans-Serif" font-size="11.00" fill="#000000">4 &gt;</text>
<polygon fill="none" stroke="#000000" stroke-width="2" points="221,-316.7 221,-558.7 438,-558.7 438,-316.7 221,-316.7"/>
</a>
</g>
</g>
<!-- AspNetUsers -->
<g id="node2" class="node">
<title>AspNetUsers</title>
<g id="a_node2"><a xlink:href="../../tables/AspNetUsers.html" xlink:title="AspNetUsers" target="_top">
<polygon fill="#ffffff" stroke="transparent" points="8,-227.2 8,-354.2 171,-354.2 171,-227.2 8,-227.2"/>
<polygon fill="#f5f5f5" stroke="transparent" points="8.5,-330.7 8.5,-353.7 171.5,-353.7 171.5,-330.7 8.5,-330.7"/>
<polygon fill="none" stroke="#000000" points="8.5,-330.7 8.5,-353.7 171.5,-353.7 171.5,-330.7 8.5,-330.7"/>
<text text-anchor="start" x="13.5" y="-339.3" font-family="Helvetica,sans-Serif" font-weight="bold" font-size="11.00" fill="#000000">AspNetUsers</text>
<text text-anchor="start" x="136.5437" y="-338.8" font-family="Helvetica,sans-Serif" font-size="11.00" fill="#000000">[table]</text>
<polygon fill="none" stroke="#000000" points="8.5,-308.7 8.5,-330.7 171.5,-330.7 171.5,-308.7 8.5,-308.7"/>
<image xlink:href="../../images/primaryKeys.png" width="11px" height="12px" preserveAspectRatio="xMinYMin meet" x="13.5" y="-325.7"/>
<text text-anchor="start" x="28.5" y="-315.8" font-family="Helvetica,sans-Serif" font-size="11.00" fill="#000000">Id</text>
<polygon fill="#ffffff" stroke="transparent" points="8.5,-286.7 8.5,-308.7 171.5,-308.7 171.5,-286.7 8.5,-286.7"/>
<polygon fill="none" stroke="#000000" points="8.5,-286.7 8.5,-308.7 171.5,-308.7 171.5,-286.7 8.5,-286.7"/>
<text text-anchor="start" x="28.5" y="-293.8" font-family="Helvetica,sans-Serif" font-size="11.00" fill="#000000">NormalizedUserName</text>
<polygon fill="#ffffff" stroke="transparent" points="8.5,-264.7 8.5,-286.7 171.5,-286.7 171.5,-264.7 8.5,-264.7"/>
<polygon fill="none" stroke="#000000" points="8.5,-264.7 8.5,-286.7 171.5,-286.7 171.5,-264.7 8.5,-264.7"/>
<text text-anchor="start" x="28.5" y="-271.8" font-family="Helvetica,sans-Serif" font-size="11.00" fill="#000000">NormalizedEmail</text>
<polygon fill="none" stroke="#000000" points="8.5,-245.7 8.5,-264.7 171.5,-264.7 171.5,-245.7 8.5,-245.7"/>
<text text-anchor="start" x="11.5" y="-251.8" font-family="Helvetica,sans-Serif" font-size="11.00" fill="#000000">...</text>
<polygon fill="#ffffff" stroke="transparent" points="8.5,-226.7 8.5,-245.7 66.5,-245.7 66.5,-226.7 8.5,-226.7"/>
<polygon fill="none" stroke="#000000" points="8.5,-226.7 8.5,-245.7 66.5,-245.7 66.5,-226.7 8.5,-226.7"/>
<text text-anchor="start" x="11.5" y="-232.8" font-family="Helvetica,sans-Serif" font-size="11.00" fill="#000000"> &#160;</text>
<polygon fill="#ffffff" stroke="transparent" points="66.5,-226.7 66.5,-245.7 121.5,-245.7 121.5,-226.7 66.5,-226.7"/>
<polygon fill="none" stroke="#000000" points="66.5,-226.7 66.5,-245.7 121.5,-245.7 121.5,-226.7 66.5,-226.7"/>
<text text-anchor="start" x="91.6105" y="-232.8" font-family="Helvetica,sans-Serif" font-size="11.00" fill="#000000">1 row</text>
<polygon fill="#ffffff" stroke="transparent" points="121.5,-226.7 121.5,-245.7 171.5,-245.7 171.5,-226.7 121.5,-226.7"/>
<polygon fill="none" stroke="#000000" points="121.5,-226.7 121.5,-245.7 171.5,-245.7 171.5,-226.7 121.5,-226.7"/>
<text text-anchor="start" x="146.7904" y="-232.8" font-family="Helvetica,sans-Serif" font-size="11.00" fill="#000000">29 &gt;</text>
</a>
</g>
</g>
<!-- Competencies&#45;&gt;AspNetUsers -->
<g id="edge1" class="edge">
<title>Competencies:w&#45;&gt;AspNetUsers:e</title>
<path fill="none" stroke="#000000" d="M208.7263,-365.0857C193.8844,-352.7078 197.291,-319.7 171.5,-319.7"/>
<polygon fill="#000000" stroke="#000000" points="214.9143,-367.1587 221.3564,-373.1135 218.7072,-368.4294 222.5,-369.7 222.5,-369.7 222.5,-369.7 218.7072,-368.4294 223.6436,-366.2865 214.9143,-367.1587 214.9143,-367.1587"/>
<ellipse fill="none" stroke="#000000" cx="211.8801" cy="-366.1422" rx="3.2" ry="3.2"/>
</g>
<!-- Competencies&#45;&gt;AspNetUsers -->
<g id="edge2" class="edge">
<title>Competencies:w&#45;&gt;AspNetUsers:e</title>
<path fill="none" stroke="#000000" d="M208.3987,-344.0395C195.6024,-336.4498 191.4996,-319.7 171.5,-319.7"/>
<polygon fill="#000000" stroke="#000000" points="214.7566,-345.6899 221.5954,-351.1845 218.6283,-346.6949 222.5,-347.7 222.5,-347.7 222.5,-347.7 218.6283,-346.6949 223.4046,-344.2155 214.7566,-345.6899 214.7566,-345.6899"/>
<ellipse fill="none" stroke="#000000" cx="211.6593" cy="-344.8858" rx="3.2" ry="3.2"/>
</g>
<!-- CompetencyLevelDescriptions -->
<g id="node3" class="node">
<title>CompetencyLevelDescriptions</title>
<g id="a_node3"><a xlink:href="../../tables/CompetencyLevelDescriptions.html" xlink:title="CompetencyLevelDescriptions" target="_top">
<polygon fill="#ffffff" stroke="transparent" points="502,-574.2 502,-745.2 716,-745.2 716,-574.2 502,-574.2"/>
<polygon fill="#f5f5f5" stroke="transparent" points="502,-721.7 502,-744.7 716,-744.7 716,-721.7 502,-721.7"/>
<polygon fill="none" stroke="#000000" points="502,-721.7 502,-744.7 716,-744.7 716,-721.7 502,-721.7"/>
<text text-anchor="start" x="507" y="-730.3" font-family="Helvetica,sans-Serif" font-weight="bold" font-size="11.00" fill="#000000">CompetencyLevelDescriptions</text>
<text text-anchor="start" x="681.5219" y="-729.8" font-family="Helvetica,sans-Serif" font-size="11.00" fill="#000000">[table]</text>
<polygon fill="none" stroke="#000000" points="502,-699.7 502,-721.7 716,-721.7 716,-699.7 502,-699.7"/>
<image xlink:href="../../images/primaryKeys.png" width="11px" height="12px" preserveAspectRatio="xMinYMin meet" x="507" y="-716.7"/>
<text text-anchor="start" x="531" y="-706.8" font-family="Helvetica,sans-Serif" font-size="11.00" fill="#000000">Id</text>
<polygon fill="#ffffff" stroke="transparent" points="502,-677.7 502,-699.7 716,-699.7 716,-677.7 502,-677.7"/>
<polygon fill="none" stroke="#000000" points="502,-677.7 502,-699.7 716,-699.7 716,-677.7 502,-677.7"/>
<image xlink:href="../../images/foreignKeys.png" width="11px" height="12px" preserveAspectRatio="xMinYMin meet" x="507" y="-694.7"/>
<text text-anchor="start" x="531" y="-684.8" font-family="Helvetica,sans-Serif" font-size="11.00" fill="#000000">CompetencyId</text>
<polygon fill="#ffffff" stroke="transparent" points="502,-655.7 502,-677.7 716,-677.7 716,-655.7 502,-655.7"/>
<polygon fill="none" stroke="#000000" points="502,-655.7 502,-677.7 716,-677.7 716,-655.7 502,-655.7"/>
<text text-anchor="start" x="531" y="-662.8" font-family="Helvetica,sans-Serif" font-size="11.00" fill="#000000">Level</text>
<polygon fill="#ffffff" stroke="transparent" points="502,-633.7 502,-655.7 716,-655.7 716,-633.7 502,-633.7"/>
<polygon fill="none" stroke="#000000" points="502,-633.7 502,-655.7 716,-655.7 716,-633.7 502,-633.7"/>
<image xlink:href="../../images/foreignKeys.png" width="11px" height="12px" preserveAspectRatio="xMinYMin meet" x="507" y="-650.7"/>
<text text-anchor="start" x="531" y="-640.8" font-family="Helvetica,sans-Serif" font-size="11.00" fill="#000000">CreatedByUserId</text>
<polygon fill="#ffffff" stroke="transparent" points="502,-611.7 502,-633.7 716,-633.7 716,-611.7 502,-611.7"/>
<polygon fill="none" stroke="#000000" points="502,-611.7 502,-633.7 716,-633.7 716,-611.7 502,-611.7"/>
<image xlink:href="../../images/foreignKeys.png" width="11px" height="12px" preserveAspectRatio="xMinYMin meet" x="507" y="-628.7"/>
<text text-anchor="start" x="531" y="-618.8" font-family="Helvetica,sans-Serif" font-size="11.00" fill="#000000">UpdatedByUserId</text>
<polygon fill="none" stroke="#000000" points="502,-592.7 502,-611.7 716,-611.7 716,-592.7 502,-592.7"/>
<text text-anchor="start" x="505" y="-598.8" font-family="Helvetica,sans-Serif" font-size="11.00" fill="#000000">...</text>
<polygon fill="#ffffff" stroke="transparent" points="502,-573.7 502,-592.7 591,-592.7 591,-573.7 502,-573.7"/>
<polygon fill="none" stroke="#000000" points="502,-573.7 502,-592.7 591,-592.7 591,-573.7 502,-573.7"/>
<text text-anchor="start" x="505" y="-579.8" font-family="Helvetica,sans-Serif" font-size="11.00" fill="#000000">&lt; 3</text>
<polygon fill="#ffffff" stroke="transparent" points="591,-573.7 591,-592.7 669,-592.7 669,-573.7 591,-573.7"/>
<polygon fill="none" stroke="#000000" points="591,-573.7 591,-592.7 669,-592.7 669,-573.7 591,-573.7"/>
<text text-anchor="start" x="627.4956" y="-579.8" font-family="Helvetica,sans-Serif" font-size="11.00" fill="#000000">20 rows</text>
<polygon fill="#ffffff" stroke="transparent" points="669,-573.7 669,-592.7 716,-592.7 716,-573.7 669,-573.7"/>
<polygon fill="none" stroke="#000000" points="669,-573.7 669,-592.7 716,-592.7 716,-573.7 669,-573.7"/>
<text text-anchor="start" x="706.8862" y="-579.8" font-family="Helvetica,sans-Serif" font-size="11.00" fill="#000000"> &#160;</text>
</a>
</g>
</g>
<!-- CompetencyLevelDescriptions&#45;&gt;Competencies -->
<g id="edge3" class="edge">
<title>CompetencyLevelDescriptions:w&#45;&gt;Competencies:e</title>
<path fill="none" stroke="#000000" d="M487.4906,-686.2395C435.8037,-665.714 510.5473,-523.7 437.5,-523.7"/>
<polygon fill="#000000" stroke="#000000" points="494.1126,-687.3624 501.3981,-692.2493 498.0563,-688.0312 502,-688.7 502,-688.7 502,-688.7 498.0563,-688.0312 502.6019,-685.1507 494.1126,-687.3624 494.1126,-687.3624"/>
<ellipse fill="none" stroke="#000000" cx="490.9576" cy="-686.8274" rx="3.2" ry="3.2"/>
</g>
<!-- CompetencyLevelDescriptions&#45;&gt;AspNetUsers -->
<g id="edge4" class="edge">
<title>CompetencyLevelDescriptions:w&#45;&gt;AspNetUsers:e</title>
<path fill="none" stroke="#000000" d="M487.4502,-644.9428C367.1587,-648.9344 301.4016,-699.6802 212,-612.7 164.8881,-566.8641 237.2302,-319.7 171.5,-319.7"/>
<polygon fill="#000000" stroke="#000000" points="494.0011,-644.8335 502.0601,-648.2995 498.0006,-644.7668 502,-644.7 502,-644.7 502,-644.7 498.0006,-644.7668 501.9399,-641.1005 494.0011,-644.8335 494.0011,-644.8335"/>
<ellipse fill="none" stroke="#000000" cx="490.8016" cy="-644.8869" rx="3.2" ry="3.2"/>
</g>
<!-- CompetencyLevelDescriptions&#45;&gt;AspNetUsers -->
<g id="edge5" class="edge">
<title>CompetencyLevelDescriptions:w&#45;&gt;AspNetUsers:e</title>
<path fill="none" stroke="#000000" d="M487.7095,-620.4573C429.5923,-610.8133 214.4984,-573.2424 212,-570.7 172.3991,-530.402 227.9992,-319.7 171.5,-319.7"/>
<polygon fill="#000000" stroke="#000000" points="494.0967,-621.4596 501.4418,-626.2565 498.0484,-622.0798 502,-622.7 502,-622.7 502,-622.7 498.0484,-622.0798 502.5582,-619.1435 494.0967,-621.4596 494.0967,-621.4596"/>
<ellipse fill="none" stroke="#000000" cx="490.9354" cy="-620.9635" rx="3.2" ry="3.2"/>
</g>
<!-- CompetencyTechnicalCareer -->
<g id="node4" class="node">
<title>CompetencyTechnicalCareer</title>
<g id="a_node4"><a xlink:href="../../tables/CompetencyTechnicalCareer.html" xlink:title="CompetencyTechnicalCareer" target="_top">
<polygon fill="#ffffff" stroke="transparent" points="507,-466.7 507,-552.7 711,-552.7 711,-466.7 507,-466.7"/>
<polygon fill="#f5f5f5" stroke="transparent" points="507,-529.7 507,-552.7 711,-552.7 711,-529.7 507,-529.7"/>
<polygon fill="none" stroke="#000000" points="507,-529.7 507,-552.7 711,-552.7 711,-529.7 507,-529.7"/>
<text text-anchor="start" x="512" y="-538.3" font-family="Helvetica,sans-Serif" font-weight="bold" font-size="11.00" fill="#000000">CompetencyTechnicalCareer</text>
<text text-anchor="start" x="676.5219" y="-537.8" font-family="Helvetica,sans-Serif" font-size="11.00" fill="#000000">[table]</text>
<polygon fill="none" stroke="#000000" points="507,-507.7 507,-529.7 711,-529.7 711,-507.7 507,-507.7"/>
<image xlink:href="../../images/primaryKeys.png" width="11px" height="12px" preserveAspectRatio="xMinYMin meet" x="512" y="-524.7"/>
<text text-anchor="start" x="536" y="-514.8" font-family="Helvetica,sans-Serif" font-size="11.00" fill="#000000">CompetenciesId</text>
<polygon fill="none" stroke="#000000" points="507,-485.7 507,-507.7 711,-507.7 711,-485.7 507,-485.7"/>
<image xlink:href="../../images/primaryKeys.png" width="11px" height="12px" preserveAspectRatio="xMinYMin meet" x="512" y="-502.7"/>
<text text-anchor="start" x="536" y="-492.8" font-family="Helvetica,sans-Serif" font-size="11.00" fill="#000000">TechnicalCareersId</text>
<polygon fill="#ffffff" stroke="transparent" points="507,-466.7 507,-485.7 594,-485.7 594,-466.7 507,-466.7"/>
<polygon fill="none" stroke="#000000" points="507,-466.7 507,-485.7 594,-485.7 594,-466.7 507,-466.7"/>
<text text-anchor="start" x="510" y="-472.8" font-family="Helvetica,sans-Serif" font-size="11.00" fill="#000000">&lt; 2</text>
<polygon fill="#ffffff" stroke="transparent" points="594,-466.7 594,-485.7 665,-485.7 665,-466.7 594,-466.7"/>
<polygon fill="none" stroke="#000000" points="594,-466.7 594,-485.7 665,-485.7 665,-466.7 594,-466.7"/>
<text text-anchor="start" x="629.6105" y="-472.8" font-family="Helvetica,sans-Serif" font-size="11.00" fill="#000000">0 rows</text>
<polygon fill="#ffffff" stroke="transparent" points="665,-466.7 665,-485.7 711,-485.7 711,-466.7 665,-466.7"/>
<polygon fill="none" stroke="#000000" points="665,-466.7 665,-485.7 711,-485.7 711,-466.7 665,-466.7"/>
<text text-anchor="start" x="701.8862" y="-472.8" font-family="Helvetica,sans-Serif" font-size="11.00" fill="#000000"> &#160;</text>
</a>
</g>
</g>
<!-- CompetencyTechnicalCareer&#45;&gt;Competencies -->
<g id="edge6" class="edge">
<title>CompetencyTechnicalCareer:w&#45;&gt;Competencies:e</title>
<path fill="none" stroke="#000000" d="M492.5843,-519.1092C472.6493,-520.3033 463.025,-523.7 437.5,-523.7"/>
<polygon fill="#000000" stroke="#000000" points="499.0032,-518.927 507.1022,-522.2986 503.0016,-518.8135 507,-518.7 507,-518.7 507,-518.7 503.0016,-518.8135 506.8978,-515.1014 499.0032,-518.927 499.0032,-518.927"/>
<ellipse fill="none" stroke="#000000" cx="495.8045" cy="-519.0178" rx="3.2" ry="3.2"/>
</g>
<!-- FormQuestions -->
<g id="node5" class="node">
<title>FormQuestions</title>
<g id="a_node5"><a xlink:href="../../tables/FormQuestions.html" xlink:title="FormQuestions" target="_top">
<polygon fill="#ffffff" stroke="transparent" points="545.5,-296.2 545.5,-445.2 672.5,-445.2 672.5,-296.2 545.5,-296.2"/>
<polygon fill="#f5f5f5" stroke="transparent" points="546,-421.7 546,-444.7 673,-444.7 673,-421.7 546,-421.7"/>
<polygon fill="none" stroke="#000000" points="546,-421.7 546,-444.7 673,-444.7 673,-421.7 546,-421.7"/>
<text text-anchor="start" x="551" y="-430.3" font-family="Helvetica,sans-Serif" font-weight="bold" font-size="11.00" fill="#000000">FormQuestions</text>
<text text-anchor="start" x="638.5219" y="-429.8" font-family="Helvetica,sans-Serif" font-size="11.00" fill="#000000">[table]</text>
<polygon fill="none" stroke="#000000" points="546,-399.7 546,-421.7 673,-421.7 673,-399.7 546,-399.7"/>
<image xlink:href="../../images/primaryKeys.png" width="11px" height="12px" preserveAspectRatio="xMinYMin meet" x="551" y="-416.7"/>
<text text-anchor="start" x="569" y="-406.8" font-family="Helvetica,sans-Serif" font-size="11.00" fill="#000000">Id</text>
<polygon fill="#ffffff" stroke="transparent" points="546,-377.7 546,-399.7 673,-399.7 673,-377.7 546,-377.7"/>
<polygon fill="none" stroke="#000000" points="546,-377.7 546,-399.7 673,-399.7 673,-377.7 546,-377.7"/>
<image xlink:href="../../images/foreignKeys.png" width="11px" height="12px" preserveAspectRatio="xMinYMin meet" x="551" y="-394.7"/>
<text text-anchor="start" x="569" y="-384.8" font-family="Helvetica,sans-Serif" font-size="11.00" fill="#000000">CompetencyId</text>
<polygon fill="#ffffff" stroke="transparent" points="546,-355.7 546,-377.7 673,-377.7 673,-355.7 546,-355.7"/>
<polygon fill="none" stroke="#000000" points="546,-355.7 546,-377.7 673,-377.7 673,-355.7 546,-355.7"/>
<image xlink:href="../../images/foreignKeys.png" width="11px" height="12px" preserveAspectRatio="xMinYMin meet" x="551" y="-372.7"/>
<text text-anchor="start" x="569" y="-362.8" font-family="Helvetica,sans-Serif" font-size="11.00" fill="#000000">CreatedByUserId</text>
<polygon fill="#ffffff" stroke="transparent" points="546,-333.7 546,-355.7 673,-355.7 673,-333.7 546,-333.7"/>
<polygon fill="none" stroke="#000000" points="546,-333.7 546,-355.7 673,-355.7 673,-333.7 546,-333.7"/>
<image xlink:href="../../images/foreignKeys.png" width="11px" height="12px" preserveAspectRatio="xMinYMin meet" x="551" y="-350.7"/>
<text text-anchor="start" x="569" y="-340.8" font-family="Helvetica,sans-Serif" font-size="11.00" fill="#000000">UpdatedByUserId</text>
<polygon fill="none" stroke="#000000" points="546,-314.7 546,-333.7 673,-333.7 673,-314.7 546,-314.7"/>
<text text-anchor="start" x="549" y="-320.8" font-family="Helvetica,sans-Serif" font-size="11.00" fill="#000000">...</text>
<polygon fill="#ffffff" stroke="transparent" points="546,-295.7 546,-314.7 590,-314.7 590,-295.7 546,-295.7"/>
<polygon fill="none" stroke="#000000" points="546,-295.7 546,-314.7 590,-314.7 590,-295.7 546,-295.7"/>
<text text-anchor="start" x="549" y="-301.8" font-family="Helvetica,sans-Serif" font-size="11.00" fill="#000000">&lt; 3</text>
<polygon fill="#ffffff" stroke="transparent" points="590,-295.7 590,-314.7 640,-314.7 640,-295.7 590,-295.7"/>
<polygon fill="none" stroke="#000000" points="590,-295.7 590,-314.7 640,-314.7 640,-295.7 590,-295.7"/>
<text text-anchor="start" x="604.6105" y="-301.8" font-family="Helvetica,sans-Serif" font-size="11.00" fill="#000000">0 rows</text>
<polygon fill="#ffffff" stroke="transparent" points="640,-295.7 640,-314.7 673,-314.7 673,-295.7 640,-295.7"/>
<polygon fill="none" stroke="#000000" points="640,-295.7 640,-314.7 673,-314.7 673,-295.7 640,-295.7"/>
<text text-anchor="start" x="654.4053" y="-301.8" font-family="Helvetica,sans-Serif" font-size="11.00" fill="#000000">1 &gt;</text>
</a>
</g>
</g>
<!-- FormQuestions&#45;&gt;Competencies -->
<g id="edge7" class="edge">
<title>FormQuestions:w&#45;&gt;Competencies:e</title>
<path fill="none" stroke="#000000" d="M531.3942,-390.4623C503.9688,-397.946 502.6195,-428.0242 480,-456.7 458.1607,-484.3866 472.7634,-523.7 437.5,-523.7"/>
<polygon fill="#000000" stroke="#000000" points="538.0576,-389.6584 546.4313,-392.2741 542.0288,-389.1792 546,-388.7 546,-388.7 546,-388.7 542.0288,-389.1792 545.5687,-385.1259 538.0576,-389.6584 538.0576,-389.6584"/>
<ellipse fill="none" stroke="#000000" cx="534.8806" cy="-390.0417" rx="3.2" ry="3.2"/>
</g>
<!-- FormQuestions&#45;&gt;AspNetUsers -->
<g id="edge8" class="edge">
<title>FormQuestions:w&#45;&gt;AspNetUsers:e</title>
<path fill="none" stroke="#000000" d="M531.3279,-365.2281C494.2458,-357.1699 491.4799,-318.3032 447,-305.7 346.5116,-277.227 315.0016,-288.3995 212,-305.7 193.218,-308.8547 190.5451,-319.7 171.5,-319.7"/>
<polygon fill="#000000" stroke="#000000" points="538.04,-365.9014 545.6406,-370.282 542.02,-366.3007 546,-366.7 546,-366.7 546,-366.7 542.02,-366.3007 546.3594,-363.118 538.04,-365.9014 538.04,-365.9014"/>
<ellipse fill="none" stroke="#000000" cx="534.8559" cy="-365.582" rx="3.2" ry="3.2"/>
</g>
<!-- FormQuestions&#45;&gt;AspNetUsers -->
<g id="edge9" class="edge">
<title>FormQuestions:w&#45;&gt;AspNetUsers:e</title>
<path fill="none" stroke="#000000" d="M531.3814,-343.2518C494.3989,-335.3234 491.3263,-297.0838 447,-284.7 346.4075,-256.5967 309.8833,-248.265 212,-284.7 189.7043,-292.9991 195.2902,-319.7 171.5,-319.7"/>
<polygon fill="#000000" stroke="#000000" points="538.039,-343.9113 545.6451,-348.2825 542.0195,-344.3056 546,-344.7 546,-344.7 546,-344.7 542.0195,-344.3056 546.3549,-341.1175 538.039,-343.9113 538.039,-343.9113"/>
<ellipse fill="none" stroke="#000000" cx="534.8546" cy="-343.5958" rx="3.2" ry="3.2"/>
</g>
<!-- ProfessorCompetencyAssignments -->
<g id="node6" class="node">
<title>ProfessorCompetencyAssignments</title>
<g id="a_node6"><a xlink:href="../../tables/ProfessorCompetencyAssignments.html" xlink:title="ProfessorCompetencyAssignments" target="_top">
<polygon fill="#ffffff" stroke="transparent" points="488,-38.2 488,-275.2 730,-275.2 730,-38.2 488,-38.2"/>
<polygon fill="#f5f5f5" stroke="transparent" points="488,-251.7 488,-274.7 730,-274.7 730,-251.7 488,-251.7"/>
<polygon fill="none" stroke="#000000" points="488,-251.7 488,-274.7 730,-274.7 730,-251.7 488,-251.7"/>
<text text-anchor="start" x="493" y="-260.3" font-family="Helvetica,sans-Serif" font-weight="bold" font-size="11.00" fill="#000000">ProfessorCompetencyAssignments</text>
<text text-anchor="start" x="695.5219" y="-259.8" font-family="Helvetica,sans-Serif" font-size="11.00" fill="#000000">[table]</text>
<polygon fill="none" stroke="#000000" points="488,-229.7 488,-251.7 730,-251.7 730,-229.7 488,-229.7"/>
<image xlink:href="../../images/primaryKeys.png" width="11px" height="12px" preserveAspectRatio="xMinYMin meet" x="493" y="-246.7"/>
<text text-anchor="start" x="517" y="-236.8" font-family="Helvetica,sans-Serif" font-size="11.00" fill="#000000">Id</text>
<polygon fill="#ffffff" stroke="transparent" points="488,-207.7 488,-229.7 730,-229.7 730,-207.7 488,-207.7"/>
<polygon fill="none" stroke="#000000" points="488,-207.7 488,-229.7 730,-229.7 730,-207.7 488,-207.7"/>
<image xlink:href="../../images/foreignKeys.png" width="11px" height="12px" preserveAspectRatio="xMinYMin meet" x="493" y="-224.7"/>
<text text-anchor="start" x="517" y="-214.8" font-family="Helvetica,sans-Serif" font-size="11.00" fill="#000000">TechnicalCareerId</text>
<polygon fill="#ffffff" stroke="transparent" points="488,-185.7 488,-207.7 730,-207.7 730,-185.7 488,-185.7"/>
<polygon fill="none" stroke="#000000" points="488,-185.7 488,-207.7 730,-207.7 730,-185.7 488,-185.7"/>
<image xlink:href="../../images/foreignKeys.png" width="11px" height="12px" preserveAspectRatio="xMinYMin meet" x="493" y="-202.7"/>
<text text-anchor="start" x="517" y="-192.8" font-family="Helvetica,sans-Serif" font-size="11.00" fill="#000000">CompetencyId</text>
<polygon fill="#ffffff" stroke="transparent" points="488,-163.7 488,-185.7 730,-185.7 730,-163.7 488,-163.7"/>
<polygon fill="none" stroke="#000000" points="488,-163.7 488,-185.7 730,-185.7 730,-163.7 488,-163.7"/>
<image xlink:href="../../images/foreignKeys.png" width="11px" height="12px" preserveAspectRatio="xMinYMin meet" x="493" y="-180.7"/>
<text text-anchor="start" x="517" y="-170.8" font-family="Helvetica,sans-Serif" font-size="11.00" fill="#000000">EvaluationPeriodId</text>
<polygon fill="#ffffff" stroke="transparent" points="488,-141.7 488,-163.7 730,-163.7 730,-141.7 488,-141.7"/>
<polygon fill="none" stroke="#000000" points="488,-141.7 488,-163.7 730,-163.7 730,-141.7 488,-141.7"/>
<image xlink:href="../../images/foreignKeys.png" width="11px" height="12px" preserveAspectRatio="xMinYMin meet" x="493" y="-158.7"/>
<text text-anchor="start" x="517" y="-148.8" font-family="Helvetica,sans-Serif" font-size="11.00" fill="#000000">CreatedByUserId</text>
<polygon fill="#ffffff" stroke="transparent" points="488,-119.7 488,-141.7 730,-141.7 730,-119.7 488,-119.7"/>
<polygon fill="none" stroke="#000000" points="488,-119.7 488,-141.7 730,-141.7 730,-119.7 488,-119.7"/>
<image xlink:href="../../images/foreignKeys.png" width="11px" height="12px" preserveAspectRatio="xMinYMin meet" x="493" y="-136.7"/>
<text text-anchor="start" x="517" y="-126.8" font-family="Helvetica,sans-Serif" font-size="11.00" fill="#000000">UpdatedByUserId</text>
<polygon fill="#ffffff" stroke="transparent" points="488,-97.7 488,-119.7 730,-119.7 730,-97.7 488,-97.7"/>
<polygon fill="none" stroke="#000000" points="488,-97.7 488,-119.7 730,-119.7 730,-97.7 488,-97.7"/>
<image xlink:href="../../images/foreignKeys.png" width="11px" height="12px" preserveAspectRatio="xMinYMin meet" x="493" y="-114.7"/>
<text text-anchor="start" x="517" y="-104.8" font-family="Helvetica,sans-Serif" font-size="11.00" fill="#000000">ProfessorUserId</text>
<polygon fill="#ffffff" stroke="transparent" points="488,-75.7 488,-97.7 730,-97.7 730,-75.7 488,-75.7"/>
<polygon fill="none" stroke="#000000" points="488,-75.7 488,-97.7 730,-97.7 730,-75.7 488,-75.7"/>
<image xlink:href="../../images/foreignKeys.png" width="11px" height="12px" preserveAspectRatio="xMinYMin meet" x="493" y="-92.7"/>
<text text-anchor="start" x="517" y="-82.8" font-family="Helvetica,sans-Serif" font-size="11.00" fill="#000000">SubjectId</text>
<polygon fill="none" stroke="#000000" points="488,-56.7 488,-75.7 730,-75.7 730,-56.7 488,-56.7"/>
<text text-anchor="start" x="491" y="-62.8" font-family="Helvetica,sans-Serif" font-size="11.00" fill="#000000">...</text>
<polygon fill="#ffffff" stroke="transparent" points="488,-37.7 488,-56.7 590,-56.7 590,-37.7 488,-37.7"/>
<polygon fill="none" stroke="#000000" points="488,-37.7 488,-56.7 590,-56.7 590,-37.7 488,-37.7"/>
<text text-anchor="start" x="491" y="-43.8" font-family="Helvetica,sans-Serif" font-size="11.00" fill="#000000">&lt; 7</text>
<polygon fill="#ffffff" stroke="transparent" points="590,-37.7 590,-56.7 668,-56.7 668,-37.7 590,-37.7"/>
<polygon fill="none" stroke="#000000" points="590,-37.7 590,-56.7 668,-56.7 668,-37.7 590,-37.7"/>
<text text-anchor="start" x="632.6105" y="-43.8" font-family="Helvetica,sans-Serif" font-size="11.00" fill="#000000">0 rows</text>
<polygon fill="#ffffff" stroke="transparent" points="668,-37.7 668,-56.7 730,-56.7 730,-37.7 668,-37.7"/>
<polygon fill="none" stroke="#000000" points="668,-37.7 668,-56.7 730,-56.7 730,-37.7 668,-37.7"/>
<text text-anchor="start" x="711.4053" y="-43.8" font-family="Helvetica,sans-Serif" font-size="11.00" fill="#000000">1 &gt;</text>
</a>
</g>
</g>
<!-- ProfessorCompetencyAssignments&#45;&gt;Competencies -->
<g id="edge10" class="edge">
<title>ProfessorCompetencyAssignments:w&#45;&gt;Competencies:e</title>
<path fill="none" stroke="#000000" d="M474.3001,-201.8364C427.8676,-243.4378 505.5709,-523.7 437.5,-523.7"/>
<polygon fill="#000000" stroke="#000000" points="480.5092,-199.5085 489.2638,-200.0709 484.2546,-198.1043 488,-196.7 488,-196.7 488,-196.7 484.2546,-198.1043 486.7362,-193.3291 480.5092,-199.5085 480.5092,-199.5085"/>
<ellipse fill="none" stroke="#000000" cx="477.5128" cy="-200.6319" rx="3.2" ry="3.2"/>
</g>
<!-- ProfessorCompetencyAssignments&#45;&gt;AspNetUsers -->
<g id="edge11" class="edge">
<title>ProfessorCompetencyAssignments:w&#45;&gt;AspNetUsers:e</title>
<path fill="none" stroke="#000000" d="M473.4582,-154.9498C414.5338,-168.3894 234.9955,-238.1079 212,-256.7 186.1153,-277.628 204.7866,-319.7 171.5,-319.7"/>
<polygon fill="#000000" stroke="#000000" points="480.0941,-153.9232 488.5504,-156.2577 484.047,-153.3116 488,-152.7 488,-152.7 488,-152.7 484.047,-153.3116 487.4496,-149.1423 480.0941,-153.9232 480.0941,-153.9232"/>
<ellipse fill="none" stroke="#000000" cx="476.9317" cy="-154.4125" rx="3.2" ry="3.2"/>
</g>
<!-- ProfessorCompetencyAssignments&#45;&gt;AspNetUsers -->
<g id="edge12" class="edge">
<title>ProfessorCompetencyAssignments:w&#45;&gt;AspNetUsers:e</title>
<path fill="none" stroke="#000000" d="M473.4688,-130.4752C359.6995,-126.9741 301.3653,-84.8121 212,-162.7 157.6755,-210.0475 243.562,-319.7 171.5,-319.7"/>
<polygon fill="#000000" stroke="#000000" points="480.001,-130.5762 487.9443,-134.2996 484.0005,-130.6381 488,-130.7 488,-130.7 488,-130.7 484.0005,-130.6381 488.0557,-127.1004 480.001,-130.5762 480.001,-130.5762"/>
<ellipse fill="none" stroke="#000000" cx="476.8013" cy="-130.5267" rx="3.2" ry="3.2"/>
</g>
</g>
</svg>
