<?xml version="1.0" encoding="UTF-8" standalone="no"?>
<!DOCTYPE svg PUBLIC "-//W3C//DTD SVG 1.1//EN"
 "http://www.w3.org/Graphics/SVG/1.1/DTD/svg11.dtd">
<!-- Generated by graphviz version 2.40.1 (20161225.0304)
 -->
<!-- Title: twoDegreesRelationshipsDiagram Pages: 1 -->
<svg width="1446pt" height="1136pt"
 viewBox="0.00 0.00 1446.00 1136.09" xmlns="http://www.w3.org/2000/svg" xmlns:xlink="http://www.w3.org/1999/xlink">
<g id="graph0" class="graph" transform="scale(1 1) rotate(0) translate(4 1132.0932)">
<title>twoDegreesRelationshipsDiagram</title>
<polygon fill="#ffffff" stroke="transparent" points="-4,4 -4,-1132.0932 1442,-1132.0932 1442,4 -4,4"/>
<text text-anchor="middle" x="72.4936" y="-7.3" font-family="Helvetica,sans-Serif" font-size="11.00" fill="#000000">Generated by SchemaSpy</text>
<!-- AspNetUserClaims -->
<g id="node1" class="node">
<title>AspNetUserClaims</title>
<g id="a_node1"><a xlink:href="../../tables/AspNetUserClaims.html" xlink:title="AspNetUserClaims" target="_top">
<polygon fill="#ffffff" stroke="transparent" points="172,-1063.0932 172,-1124.0932 319,-1124.0932 319,-1063.0932 172,-1063.0932"/>
<polygon fill="#f5f5f5" stroke="transparent" points="172.5,-1100.5932 172.5,-1123.5932 319.5,-1123.5932 319.5,-1100.5932 172.5,-1100.5932"/>
<polygon fill="none" stroke="#000000" points="172.5,-1100.5932 172.5,-1123.5932 319.5,-1123.5932 319.5,-1100.5932 172.5,-1100.5932"/>
<text text-anchor="start" x="177.5" y="-1109.1932" font-family="Helvetica,sans-Serif" font-weight="bold" font-size="11.00" fill="#000000">AspNetUserClaims</text>
<text text-anchor="start" x="285.0219" y="-1108.6932" font-family="Helvetica,sans-Serif" font-size="11.00" fill="#000000">[table]</text>
<polygon fill="none" stroke="#000000" points="172.5,-1081.5932 172.5,-1100.5932 319.5,-1100.5932 319.5,-1081.5932 172.5,-1081.5932"/>
<text text-anchor="start" x="175.5" y="-1087.6932" font-family="Helvetica,sans-Serif" font-size="11.00" fill="#000000">...</text>
<polygon fill="#ffffff" stroke="transparent" points="172.5,-1062.5932 172.5,-1081.5932 231.5,-1081.5932 231.5,-1062.5932 172.5,-1062.5932"/>
<polygon fill="none" stroke="#000000" points="172.5,-1062.5932 172.5,-1081.5932 231.5,-1081.5932 231.5,-1062.5932 172.5,-1062.5932"/>
<text text-anchor="start" x="175.5" y="-1068.6932" font-family="Helvetica,sans-Serif" font-size="11.00" fill="#000000">&lt; 1</text>
<polygon fill="#ffffff" stroke="transparent" points="231.5,-1062.5932 231.5,-1081.5932 288.5,-1081.5932 288.5,-1062.5932 231.5,-1062.5932"/>
<polygon fill="none" stroke="#000000" points="231.5,-1062.5932 231.5,-1081.5932 288.5,-1081.5932 288.5,-1062.5932 231.5,-1062.5932"/>
<text text-anchor="start" x="253.1105" y="-1068.6932" font-family="Helvetica,sans-Serif" font-size="11.00" fill="#000000">0 rows</text>
<polygon fill="#ffffff" stroke="transparent" points="288.5,-1062.5932 288.5,-1081.5932 319.5,-1081.5932 319.5,-1062.5932 288.5,-1062.5932"/>
<polygon fill="none" stroke="#000000" points="288.5,-1062.5932 288.5,-1081.5932 319.5,-1081.5932 319.5,-1062.5932 288.5,-1062.5932"/>
<text text-anchor="start" x="310.3862" y="-1068.6932" font-family="Helvetica,sans-Serif" font-size="11.00" fill="#000000"> &#160;</text>
</a>
</g>
</g>
<!-- AspNetUsers -->
<g id="node2" class="node">
<title>AspNetUsers</title>
<g id="a_node2"><a xlink:href="../../tables/AspNetUsers.html" xlink:title="AspNetUsers" target="_top">
<polygon fill="#ffffff" stroke="transparent" points="8,-433.0932 8,-494.0932 122,-494.0932 122,-433.0932 8,-433.0932"/>
<polygon fill="#f5f5f5" stroke="transparent" points="8,-470.5932 8,-493.5932 122,-493.5932 122,-470.5932 8,-470.5932"/>
<polygon fill="none" stroke="#000000" points="8,-470.5932 8,-493.5932 122,-493.5932 122,-470.5932 8,-470.5932"/>
<text text-anchor="start" x="13" y="-479.1932" font-family="Helvetica,sans-Serif" font-weight="bold" font-size="11.00" fill="#000000">AspNetUsers</text>
<text text-anchor="start" x="87.5219" y="-478.6932" font-family="Helvetica,sans-Serif" font-size="11.00" fill="#000000">[table]</text>
<polygon fill="none" stroke="#000000" points="8,-451.5932 8,-470.5932 122,-470.5932 122,-451.5932 8,-451.5932"/>
<text text-anchor="start" x="11" y="-457.6932" font-family="Helvetica,sans-Serif" font-size="11.00" fill="#000000">...</text>
<polygon fill="#ffffff" stroke="transparent" points="8,-432.5932 8,-451.5932 41,-451.5932 41,-432.5932 8,-432.5932"/>
<polygon fill="none" stroke="#000000" points="8,-432.5932 8,-451.5932 41,-451.5932 41,-432.5932 8,-432.5932"/>
<text text-anchor="start" x="11" y="-438.6932" font-family="Helvetica,sans-Serif" font-size="11.00" fill="#000000"> &#160;</text>
<polygon fill="#ffffff" stroke="transparent" points="41,-432.5932 41,-451.5932 84,-451.5932 84,-432.5932 41,-432.5932"/>
<polygon fill="none" stroke="#000000" points="41,-432.5932 41,-451.5932 84,-451.5932 84,-432.5932 41,-432.5932"/>
<text text-anchor="start" x="54.1105" y="-438.6932" font-family="Helvetica,sans-Serif" font-size="11.00" fill="#000000">1 row</text>
<polygon fill="#ffffff" stroke="transparent" points="84,-432.5932 84,-451.5932 122,-451.5932 122,-432.5932 84,-432.5932"/>
<polygon fill="none" stroke="#000000" points="84,-432.5932 84,-451.5932 122,-451.5932 122,-432.5932 84,-432.5932"/>
<text text-anchor="start" x="97.2904" y="-438.6932" font-family="Helvetica,sans-Serif" font-size="11.00" fill="#000000">29 &gt;</text>
</a>
</g>
</g>
<!-- AspNetUserClaims&#45;&gt;AspNetUsers -->
<g id="edge1" class="edge">
<title>AspNetUserClaims:w&#45;&gt;AspNetUsers:e</title>
<path fill="none" stroke="#000000" d="M159.7517,-1083.6698C106.8735,-1025.6919 75.5402,-620.1413 67.2367,-498.1966"/>
<polygon fill="#000000" stroke="#000000" points="165.4698,-1086.7752 170.7819,-1093.7568 168.9849,-1088.6842 172.5,-1090.5932 172.5,-1090.5932 172.5,-1090.5932 168.9849,-1088.6842 174.2181,-1087.4296 165.4698,-1086.7752 165.4698,-1086.7752"/>
<ellipse fill="none" stroke="#000000" cx="162.6578" cy="-1085.248" rx="3.2" ry="3.2"/>
</g>
<!-- AspNetUserLogins -->
<g id="node3" class="node">
<title>AspNetUserLogins</title>
<g id="a_node3"><a xlink:href="../../tables/AspNetUserLogins.html" xlink:title="AspNetUserLogins" target="_top">
<polygon fill="#ffffff" stroke="transparent" points="172,-981.0932 172,-1042.0932 319,-1042.0932 319,-981.0932 172,-981.0932"/>
<polygon fill="#f5f5f5" stroke="transparent" points="172.5,-1018.5932 172.5,-1041.5932 319.5,-1041.5932 319.5,-1018.5932 172.5,-1018.5932"/>
<polygon fill="none" stroke="#000000" points="172.5,-1018.5932 172.5,-1041.5932 319.5,-1041.5932 319.5,-1018.5932 172.5,-1018.5932"/>
<text text-anchor="start" x="177.5" y="-1027.1932" font-family="Helvetica,sans-Serif" font-weight="bold" font-size="11.00" fill="#000000">AspNetUserLogins</text>
<text text-anchor="start" x="285.0219" y="-1026.6932" font-family="Helvetica,sans-Serif" font-size="11.00" fill="#000000">[table]</text>
<polygon fill="none" stroke="#000000" points="172.5,-999.5932 172.5,-1018.5932 319.5,-1018.5932 319.5,-999.5932 172.5,-999.5932"/>
<text text-anchor="start" x="175.5" y="-1005.6932" font-family="Helvetica,sans-Serif" font-size="11.00" fill="#000000">...</text>
<polygon fill="#ffffff" stroke="transparent" points="172.5,-980.5932 172.5,-999.5932 231.5,-999.5932 231.5,-980.5932 172.5,-980.5932"/>
<polygon fill="none" stroke="#000000" points="172.5,-980.5932 172.5,-999.5932 231.5,-999.5932 231.5,-980.5932 172.5,-980.5932"/>
<text text-anchor="start" x="175.5" y="-986.6932" font-family="Helvetica,sans-Serif" font-size="11.00" fill="#000000">&lt; 1</text>
<polygon fill="#ffffff" stroke="transparent" points="231.5,-980.5932 231.5,-999.5932 288.5,-999.5932 288.5,-980.5932 231.5,-980.5932"/>
<polygon fill="none" stroke="#000000" points="231.5,-980.5932 231.5,-999.5932 288.5,-999.5932 288.5,-980.5932 231.5,-980.5932"/>
<text text-anchor="start" x="253.1105" y="-986.6932" font-family="Helvetica,sans-Serif" font-size="11.00" fill="#000000">0 rows</text>
<polygon fill="#ffffff" stroke="transparent" points="288.5,-980.5932 288.5,-999.5932 319.5,-999.5932 319.5,-980.5932 288.5,-980.5932"/>
<polygon fill="none" stroke="#000000" points="288.5,-980.5932 288.5,-999.5932 319.5,-999.5932 319.5,-980.5932 288.5,-980.5932"/>
<text text-anchor="start" x="310.3862" y="-986.6932" font-family="Helvetica,sans-Serif" font-size="11.00" fill="#000000"> &#160;</text>
</a>
</g>
</g>
<!-- AspNetUserLogins&#45;&gt;AspNetUsers -->
<g id="edge2" class="edge">
<title>AspNetUserLogins:w&#45;&gt;AspNetUsers:e</title>
<path fill="none" stroke="#000000" d="M159.8801,-1001.0714C113.7412,-946.3181 78.4859,-608.0735 68.1208,-498.0989"/>
<polygon fill="#000000" stroke="#000000" points="165.628,-1004.4973 170.6568,-1011.6856 169.064,-1006.5453 172.5,-1008.5932 172.5,-1008.5932 172.5,-1008.5932 169.064,-1006.5453 174.3432,-1005.5008 165.628,-1004.4973 165.628,-1004.4973"/>
<ellipse fill="none" stroke="#000000" cx="162.8793" cy="-1002.8589" rx="3.2" ry="3.2"/>
</g>
<!-- AspNetUserRoles -->
<g id="node4" class="node">
<title>AspNetUserRoles</title>
<g id="a_node4"><a xlink:href="../../tables/AspNetUserRoles.html" xlink:title="AspNetUserRoles" target="_top">
<polygon fill="#ffffff" stroke="transparent" points="175.5,-899.0932 175.5,-960.0932 315.5,-960.0932 315.5,-899.0932 175.5,-899.0932"/>
<polygon fill="#f5f5f5" stroke="transparent" points="175.5,-936.5932 175.5,-959.5932 315.5,-959.5932 315.5,-936.5932 175.5,-936.5932"/>
<polygon fill="none" stroke="#000000" points="175.5,-936.5932 175.5,-959.5932 315.5,-959.5932 315.5,-936.5932 175.5,-936.5932"/>
<text text-anchor="start" x="180.5" y="-945.1932" font-family="Helvetica,sans-Serif" font-weight="bold" font-size="11.00" fill="#000000">AspNetUserRoles</text>
<text text-anchor="start" x="281.0219" y="-944.6932" font-family="Helvetica,sans-Serif" font-size="11.00" fill="#000000">[table]</text>
<polygon fill="none" stroke="#000000" points="175.5,-917.5932 175.5,-936.5932 315.5,-936.5932 315.5,-917.5932 175.5,-917.5932"/>
<text text-anchor="start" x="178.5" y="-923.6932" font-family="Helvetica,sans-Serif" font-size="11.00" fill="#000000">...</text>
<polygon fill="#ffffff" stroke="transparent" points="175.5,-898.5932 175.5,-917.5932 233.5,-917.5932 233.5,-898.5932 175.5,-898.5932"/>
<polygon fill="none" stroke="#000000" points="175.5,-898.5932 175.5,-917.5932 233.5,-917.5932 233.5,-898.5932 175.5,-898.5932"/>
<text text-anchor="start" x="178.5" y="-904.6932" font-family="Helvetica,sans-Serif" font-size="11.00" fill="#000000">&lt; 2</text>
<polygon fill="#ffffff" stroke="transparent" points="233.5,-898.5932 233.5,-917.5932 284.5,-917.5932 284.5,-898.5932 233.5,-898.5932"/>
<polygon fill="none" stroke="#000000" points="233.5,-898.5932 233.5,-917.5932 284.5,-917.5932 284.5,-898.5932 233.5,-898.5932"/>
<text text-anchor="start" x="254.6105" y="-904.6932" font-family="Helvetica,sans-Serif" font-size="11.00" fill="#000000">1 row</text>
<polygon fill="#ffffff" stroke="transparent" points="284.5,-898.5932 284.5,-917.5932 315.5,-917.5932 315.5,-898.5932 284.5,-898.5932"/>
<polygon fill="none" stroke="#000000" points="284.5,-898.5932 284.5,-917.5932 315.5,-917.5932 315.5,-898.5932 284.5,-898.5932"/>
<text text-anchor="start" x="306.3862" y="-904.6932" font-family="Helvetica,sans-Serif" font-size="11.00" fill="#000000"> &#160;</text>
</a>
</g>
</g>
<!-- AspNetUserRoles&#45;&gt;AspNetUsers -->
<g id="edge3" class="edge">
<title>AspNetUserRoles:w&#45;&gt;AspNetUsers:e</title>
<path fill="none" stroke="#000000" d="M161.2082,-923.6053C85.4905,-890.9667 69.2345,-599.9706 65.8562,-498.3935"/>
<polygon fill="#000000" stroke="#000000" points="167.6693,-924.956 174.7633,-930.117 171.5847,-925.7746 175.5,-926.5932 175.5,-926.5932 175.5,-926.5932 171.5847,-925.7746 176.2367,-923.0694 167.6693,-924.956 167.6693,-924.956"/>
<ellipse fill="none" stroke="#000000" cx="164.537" cy="-924.3011" rx="3.2" ry="3.2"/>
</g>
<!-- AspNetUserTokens -->
<g id="node5" class="node">
<title>AspNetUserTokens</title>
<g id="a_node5"><a xlink:href="../../tables/AspNetUserTokens.html" xlink:title="AspNetUserTokens" target="_top">
<polygon fill="#ffffff" stroke="transparent" points="171,-817.0932 171,-878.0932 320,-878.0932 320,-817.0932 171,-817.0932"/>
<polygon fill="#f5f5f5" stroke="transparent" points="171.5,-854.5932 171.5,-877.5932 320.5,-877.5932 320.5,-854.5932 171.5,-854.5932"/>
<polygon fill="none" stroke="#000000" points="171.5,-854.5932 171.5,-877.5932 320.5,-877.5932 320.5,-854.5932 171.5,-854.5932"/>
<text text-anchor="start" x="176.5" y="-863.1932" font-family="Helvetica,sans-Serif" font-weight="bold" font-size="11.00" fill="#000000">AspNetUserTokens</text>
<text text-anchor="start" x="286.0219" y="-862.6932" font-family="Helvetica,sans-Serif" font-size="11.00" fill="#000000">[table]</text>
<polygon fill="none" stroke="#000000" points="171.5,-835.5932 171.5,-854.5932 320.5,-854.5932 320.5,-835.5932 171.5,-835.5932"/>
<text text-anchor="start" x="174.5" y="-841.6932" font-family="Helvetica,sans-Serif" font-size="11.00" fill="#000000">...</text>
<polygon fill="#ffffff" stroke="transparent" points="171.5,-816.5932 171.5,-835.5932 231.5,-835.5932 231.5,-816.5932 171.5,-816.5932"/>
<polygon fill="none" stroke="#000000" points="171.5,-816.5932 171.5,-835.5932 231.5,-835.5932 231.5,-816.5932 171.5,-816.5932"/>
<text text-anchor="start" x="174.5" y="-822.6932" font-family="Helvetica,sans-Serif" font-size="11.00" fill="#000000">&lt; 1</text>
<polygon fill="#ffffff" stroke="transparent" points="231.5,-816.5932 231.5,-835.5932 288.5,-835.5932 288.5,-816.5932 231.5,-816.5932"/>
<polygon fill="none" stroke="#000000" points="231.5,-816.5932 231.5,-835.5932 288.5,-835.5932 288.5,-816.5932 231.5,-816.5932"/>
<text text-anchor="start" x="253.1105" y="-822.6932" font-family="Helvetica,sans-Serif" font-size="11.00" fill="#000000">0 rows</text>
<polygon fill="#ffffff" stroke="transparent" points="288.5,-816.5932 288.5,-835.5932 320.5,-835.5932 320.5,-816.5932 288.5,-816.5932"/>
<polygon fill="none" stroke="#000000" points="288.5,-816.5932 288.5,-835.5932 320.5,-835.5932 320.5,-816.5932 288.5,-816.5932"/>
<text text-anchor="start" x="311.3862" y="-822.6932" font-family="Helvetica,sans-Serif" font-size="11.00" fill="#000000"> &#160;</text>
</a>
</g>
</g>
<!-- AspNetUserTokens&#45;&gt;AspNetUsers -->
<g id="edge4" class="edge">
<title>AspNetUserTokens:w&#45;&gt;AspNetUsers:e</title>
<path fill="none" stroke="#000000" d="M157.4683,-841.1897C96.5668,-810.8617 73.8622,-586.0392 67.2693,-498.4145"/>
<polygon fill="#000000" stroke="#000000" points="163.7254,-842.7074 170.6514,-848.0918 167.6127,-843.6503 171.5,-844.5932 171.5,-844.5932 171.5,-844.5932 167.6127,-843.6503 172.3486,-841.0947 163.7254,-842.7074 163.7254,-842.7074"/>
<ellipse fill="none" stroke="#000000" cx="160.6156" cy="-841.9531" rx="3.2" ry="3.2"/>
</g>
<!-- Competencies -->
<g id="node6" class="node">
<title>Competencies</title>
<g id="a_node6"><a xlink:href="../../tables/Competencies.html" xlink:title="Competencies" target="_top">
<polygon fill="#ffffff" stroke="transparent" points="185,-695.0932 185,-756.0932 306,-756.0932 306,-695.0932 185,-695.0932"/>
<polygon fill="#f5f5f5" stroke="transparent" points="185.5,-732.5932 185.5,-755.5932 306.5,-755.5932 306.5,-732.5932 185.5,-732.5932"/>
<polygon fill="none" stroke="#000000" points="185.5,-732.5932 185.5,-755.5932 306.5,-755.5932 306.5,-732.5932 185.5,-732.5932"/>
<text text-anchor="start" x="190.5" y="-741.1932" font-family="Helvetica,sans-Serif" font-weight="bold" font-size="11.00" fill="#000000">Competencies</text>
<text text-anchor="start" x="272.0219" y="-740.6932" font-family="Helvetica,sans-Serif" font-size="11.00" fill="#000000">[table]</text>
<polygon fill="none" stroke="#000000" points="185.5,-713.5932 185.5,-732.5932 306.5,-732.5932 306.5,-713.5932 185.5,-713.5932"/>
<text text-anchor="start" x="188.5" y="-719.6932" font-family="Helvetica,sans-Serif" font-size="11.00" fill="#000000">...</text>
<polygon fill="#ffffff" stroke="transparent" points="185.5,-694.5932 185.5,-713.5932 226.5,-713.5932 226.5,-694.5932 185.5,-694.5932"/>
<polygon fill="none" stroke="#000000" points="185.5,-694.5932 185.5,-713.5932 226.5,-713.5932 226.5,-694.5932 185.5,-694.5932"/>
<text text-anchor="start" x="188.5" y="-700.6932" font-family="Helvetica,sans-Serif" font-size="11.00" fill="#000000">&lt; 2</text>
<polygon fill="#ffffff" stroke="transparent" points="226.5,-694.5932 226.5,-713.5932 274.5,-713.5932 274.5,-694.5932 226.5,-694.5932"/>
<polygon fill="none" stroke="#000000" points="226.5,-694.5932 226.5,-713.5932 274.5,-713.5932 274.5,-694.5932 226.5,-694.5932"/>
<text text-anchor="start" x="239.1105" y="-700.6932" font-family="Helvetica,sans-Serif" font-size="11.00" fill="#000000">5 rows</text>
<polygon fill="#ffffff" stroke="transparent" points="274.5,-694.5932 274.5,-713.5932 306.5,-713.5932 306.5,-694.5932 274.5,-694.5932"/>
<polygon fill="none" stroke="#000000" points="274.5,-694.5932 274.5,-713.5932 306.5,-713.5932 306.5,-694.5932 274.5,-694.5932"/>
<text text-anchor="start" x="287.9053" y="-700.6932" font-family="Helvetica,sans-Serif" font-size="11.00" fill="#000000">4 &gt;</text>
</a>
</g>
</g>
<!-- Competencies&#45;&gt;AspNetUsers -->
<g id="edge5" class="edge">
<title>Competencies:w&#45;&gt;AspNetUsers:e</title>
<path fill="none" stroke="#000000" d="M170.9594,-682.2351C168.1463,-679.8077 165.4756,-677.2622 163,-674.5932 114.9299,-622.7677 87.3526,-543.3563 74.339,-498.1238"/>
<polygon fill="#000000" stroke="#000000" points="176.0584,-686.1505 180.2111,-693.8781 179.231,-688.5866 182.4036,-691.0228 182.4036,-691.0228 182.4036,-691.0228 179.231,-688.5866 184.5961,-688.1675 176.0584,-686.1505 176.0584,-686.1505"/>
<ellipse fill="none" stroke="#000000" cx="173.5204" cy="-684.2016" rx="3.2" ry="3.2"/>
</g>
<!-- Competencies&#45;&gt;AspNetUsers -->
<g id="edge6" class="edge">
<title>Competencies:w&#45;&gt;AspNetUsers:e</title>
<path fill="none" stroke="#000000" d="M165.3642,-690.0469C164.5583,-689.241 163.7697,-688.4231 163,-687.5932 111.8377,-632.4338 83.8894,-546.0254 72.0068,-498.1642"/>
<polygon fill="#000000" stroke="#000000" points="170.6337,-694.6041 174.3298,-702.5602 173.6592,-697.2207 176.6847,-699.8373 176.6847,-699.8373 176.6847,-699.8373 173.6592,-697.2207 179.0396,-697.1143 170.6337,-694.6041 170.6337,-694.6041"/>
<ellipse fill="none" stroke="#000000" cx="168.2133" cy="-692.5109" rx="3.2" ry="3.2"/>
</g>
<!-- CompetencyLevelDescriptions -->
<g id="node7" class="node">
<title>CompetencyLevelDescriptions</title>
<g id="a_node7"><a xlink:href="../../tables/CompetencyLevelDescriptions.html" xlink:title="CompetencyLevelDescriptions" target="_top">
<polygon fill="#ffffff" stroke="transparent" points="369,-711.5932 369,-955.5932 663,-955.5932 663,-711.5932 369,-711.5932"/>
<polygon fill="#f5f5f5" stroke="transparent" points="371,-930.5932 371,-953.5932 661,-953.5932 661,-930.5932 371,-930.5932"/>
<polygon fill="none" stroke="#000000" points="371,-930.5932 371,-953.5932 661,-953.5932 661,-930.5932 371,-930.5932"/>
<text text-anchor="start" x="376" y="-939.1932" font-family="Helvetica,sans-Serif" font-weight="bold" font-size="11.00" fill="#000000">CompetencyLevelDescriptions</text>
<text text-anchor="start" x="626.0437" y="-938.6932" font-family="Helvetica,sans-Serif" font-size="11.00" fill="#000000">[table]</text>
<polygon fill="none" stroke="#000000" points="371,-908.5932 371,-930.5932 567,-930.5932 567,-908.5932 371,-908.5932"/>
<image xlink:href="../../images/primaryKeys.png" width="11px" height="12px" preserveAspectRatio="xMinYMin meet" x="376" y="-925.593"/>
<text text-anchor="start" x="391" y="-915.6932" font-family="Helvetica,sans-Serif" font-size="11.00" fill="#000000">Id</text>
<polygon fill="none" stroke="#000000" points="567,-908.5932 567,-930.5932 661,-930.5932 661,-908.5932 567,-908.5932"/>
<text text-anchor="start" x="569.9758" y="-916.2932" font-family="Helvetica,sans-Serif" font-size="11.00" fill="#000000">uuid[2147483647]</text>
<polygon fill="#ffffff" stroke="transparent" points="371,-886.5932 371,-908.5932 567,-908.5932 567,-886.5932 371,-886.5932"/>
<polygon fill="none" stroke="#000000" points="371,-886.5932 371,-908.5932 567,-908.5932 567,-886.5932 371,-886.5932"/>
<image xlink:href="../../images/foreignKeys.png" width="11px" height="12px" preserveAspectRatio="xMinYMin meet" x="376" y="-903.593"/>
<text text-anchor="start" x="391" y="-893.6932" font-family="Helvetica,sans-Serif" font-size="11.00" fill="#000000">CompetencyId</text>
<polygon fill="none" stroke="#000000" points="567,-886.5932 567,-908.5932 661,-908.5932 661,-886.5932 567,-886.5932"/>
<text text-anchor="start" x="569.9758" y="-894.2932" font-family="Helvetica,sans-Serif" font-size="11.00" fill="#000000">uuid[2147483647]</text>
<polygon fill="#ffffff" stroke="transparent" points="371,-864.5932 371,-886.5932 567,-886.5932 567,-864.5932 371,-864.5932"/>
<polygon fill="none" stroke="#000000" points="371,-864.5932 371,-886.5932 567,-886.5932 567,-864.5932 371,-864.5932"/>
<text text-anchor="start" x="391" y="-871.6932" font-family="Helvetica,sans-Serif" font-size="11.00" fill="#000000">Level</text>
<polygon fill="none" stroke="#000000" points="567,-864.5932 567,-886.5932 661,-886.5932 661,-864.5932 567,-864.5932"/>
<text text-anchor="start" x="570" y="-872.2932" font-family="Helvetica,sans-Serif" font-size="11.00" fill="#000000">int4[10]</text>
<polygon fill="none" stroke="#000000" points="371,-842.5932 371,-864.5932 567,-864.5932 567,-842.5932 371,-842.5932"/>
<text text-anchor="start" x="391" y="-849.6932" font-family="Helvetica,sans-Serif" font-size="11.00" fill="#000000">Description</text>
<polygon fill="none" stroke="#000000" points="567,-842.5932 567,-864.5932 661,-864.5932 661,-842.5932 567,-842.5932"/>
<text text-anchor="start" x="570" y="-850.2932" font-family="Helvetica,sans-Serif" font-size="11.00" fill="#000000">text[2147483647]</text>
<polygon fill="none" stroke="#000000" points="371,-820.5932 371,-842.5932 567,-842.5932 567,-820.5932 371,-820.5932"/>
<text text-anchor="start" x="391" y="-827.6932" font-family="Helvetica,sans-Serif" font-size="11.00" fill="#000000">IsActive</text>
<polygon fill="none" stroke="#000000" points="567,-820.5932 567,-842.5932 661,-842.5932 661,-820.5932 567,-820.5932"/>
<text text-anchor="start" x="570" y="-828.2932" font-family="Helvetica,sans-Serif" font-size="11.00" fill="#000000">bool[1]</text>
<polygon fill="none" stroke="#000000" points="371,-798.5932 371,-820.5932 567,-820.5932 567,-798.5932 371,-798.5932"/>
<text text-anchor="start" x="391" y="-805.6932" font-family="Helvetica,sans-Serif" font-size="11.00" fill="#000000">CreatedAt</text>
<polygon fill="none" stroke="#000000" points="567,-798.5932 567,-820.5932 661,-820.5932 661,-798.5932 567,-798.5932"/>
<text text-anchor="start" x="570" y="-806.2932" font-family="Helvetica,sans-Serif" font-size="11.00" fill="#000000">timestamptz[35,6]</text>
<polygon fill="none" stroke="#000000" points="371,-776.5932 371,-798.5932 567,-798.5932 567,-776.5932 371,-776.5932"/>
<text text-anchor="start" x="391" y="-783.6932" font-family="Helvetica,sans-Serif" font-size="11.00" fill="#000000">UpdatedAt</text>
<polygon fill="none" stroke="#000000" points="567,-776.5932 567,-798.5932 661,-798.5932 661,-776.5932 567,-776.5932"/>
<text text-anchor="start" x="570" y="-784.2932" font-family="Helvetica,sans-Serif" font-size="11.00" fill="#000000">timestamptz[35,6]</text>
<polygon fill="#ffffff" stroke="transparent" points="371,-754.5932 371,-776.5932 567,-776.5932 567,-754.5932 371,-754.5932"/>
<polygon fill="none" stroke="#000000" points="371,-754.5932 371,-776.5932 567,-776.5932 567,-754.5932 371,-754.5932"/>
<image xlink:href="../../images/foreignKeys.png" width="11px" height="12px" preserveAspectRatio="xMinYMin meet" x="376" y="-771.593"/>
<text text-anchor="start" x="391" y="-761.6932" font-family="Helvetica,sans-Serif" font-size="11.00" fill="#000000">CreatedByUserId</text>
<polygon fill="none" stroke="#000000" points="567,-754.5932 567,-776.5932 661,-776.5932 661,-754.5932 567,-754.5932"/>
<text text-anchor="start" x="570" y="-762.2932" font-family="Helvetica,sans-Serif" font-size="11.00" fill="#000000">text[2147483647]</text>
<polygon fill="#ffffff" stroke="transparent" points="371,-732.5932 371,-754.5932 567,-754.5932 567,-732.5932 371,-732.5932"/>
<polygon fill="none" stroke="#000000" points="371,-732.5932 371,-754.5932 567,-754.5932 567,-732.5932 371,-732.5932"/>
<image xlink:href="../../images/foreignKeys.png" width="11px" height="12px" preserveAspectRatio="xMinYMin meet" x="376" y="-749.593"/>
<text text-anchor="start" x="391" y="-739.6932" font-family="Helvetica,sans-Serif" font-size="11.00" fill="#000000">UpdatedByUserId</text>
<polygon fill="none" stroke="#000000" points="567,-732.5932 567,-754.5932 661,-754.5932 661,-732.5932 567,-732.5932"/>
<text text-anchor="start" x="570" y="-740.2932" font-family="Helvetica,sans-Serif" font-size="11.00" fill="#000000">text[2147483647]</text>
<polygon fill="#ffffff" stroke="transparent" points="371,-713.5932 371,-732.5932 457,-732.5932 457,-713.5932 371,-713.5932"/>
<polygon fill="none" stroke="#000000" points="371,-713.5932 371,-732.5932 457,-732.5932 457,-713.5932 371,-713.5932"/>
<text text-anchor="start" x="374" y="-719.6932" font-family="Helvetica,sans-Serif" font-size="11.00" fill="#000000">&lt; 3</text>
<polygon fill="#ffffff" stroke="transparent" points="457,-713.5932 457,-732.5932 567,-732.5932 567,-713.5932 457,-713.5932"/>
<polygon fill="none" stroke="#000000" points="457,-713.5932 457,-732.5932 567,-732.5932 567,-713.5932 457,-713.5932"/>
<text text-anchor="start" x="525.4956" y="-719.6932" font-family="Helvetica,sans-Serif" font-size="11.00" fill="#000000">20 rows</text>
<polygon fill="#ffffff" stroke="transparent" points="567,-713.5932 567,-732.5932 661,-732.5932 661,-713.5932 567,-713.5932"/>
<polygon fill="none" stroke="#000000" points="567,-713.5932 567,-732.5932 661,-732.5932 661,-713.5932 567,-713.5932"/>
<text text-anchor="start" x="642.4053" y="-719.6932" font-family="Helvetica,sans-Serif" font-size="11.00" fill="#000000">0 &gt;</text>
<polygon fill="none" stroke="#000000" stroke-width="2" points="370,-712.5932 370,-954.5932 662,-954.5932 662,-712.5932 370,-712.5932"/>
</a>
</g>
</g>
<!-- CompetencyLevelDescriptions&#45;&gt;AspNetUsers -->
<g id="edge8" class="edge">
<title>CompetencyLevelDescriptions:w&#45;&gt;AspNetUsers:e</title>
<path fill="none" stroke="#000000" d="M356.8634,-761.9517C338.0902,-749.0311 355.83,-705.0657 328,-684.5932 267.8948,-640.3782 222.8426,-698.1631 163,-653.5932 111.5036,-615.2395 84.8531,-541.954 72.9852,-498.4645"/>
<polygon fill="#000000" stroke="#000000" points="363.2529,-763.5976 370.102,-769.0794 367.1264,-764.5954 371,-765.5932 371,-765.5932 371,-765.5932 367.1264,-764.5954 371.898,-762.107 363.2529,-763.5976 363.2529,-763.5976"/>
<ellipse fill="none" stroke="#000000" cx="360.1541" cy="-762.7993" rx="3.2" ry="3.2"/>
</g>
<!-- CompetencyLevelDescriptions&#45;&gt;AspNetUsers -->
<g id="edge9" class="edge">
<title>CompetencyLevelDescriptions:w&#45;&gt;AspNetUsers:e</title>
<path fill="none" stroke="#000000" d="M356.8034,-740.1377C335.8577,-726.625 358.3813,-677.0039 328,-654.5932 268.3117,-610.5644 224.4684,-671.1008 163,-629.5932 116.5429,-598.2223 88.9251,-536.8379 75.382,-498.1454"/>
<polygon fill="#000000" stroke="#000000" points="363.2269,-741.7012 370.1486,-747.0911 367.1135,-742.6472 371,-743.5932 371,-743.5932 371,-743.5932 367.1135,-742.6472 371.8514,-740.0953 363.2269,-741.7012 363.2269,-741.7012"/>
<ellipse fill="none" stroke="#000000" cx="360.1177" cy="-740.9444" rx="3.2" ry="3.2"/>
</g>
<!-- CompetencyLevelDescriptions&#45;&gt;Competencies -->
<g id="edge7" class="edge">
<title>CompetencyLevelDescriptions:w&#45;&gt;Competencies:e</title>
<path fill="none" stroke="#000000" d="M356.6245,-895.374C321.2479,-882.0395 362.5983,-811.7567 328,-770.5932 323.906,-765.7224 319.1447,-761.2912 314.0144,-757.2788"/>
<polygon fill="#000000" stroke="#000000" points="363.0937,-896.3726 370.4507,-901.1511 367.0468,-896.9829 371,-897.5932 371,-897.5932 371,-897.5932 367.0468,-896.9829 371.5493,-894.0354 363.0937,-896.3726 363.0937,-896.3726"/>
<ellipse fill="none" stroke="#000000" cx="359.9311" cy="-895.8844" rx="3.2" ry="3.2"/>
</g>
<!-- CompetencyTechnicalCareer -->
<g id="node8" class="node">
<title>CompetencyTechnicalCareer</title>
<g id="a_node8"><a xlink:href="../../tables/CompetencyTechnicalCareer.html" xlink:title="CompetencyTechnicalCareer" target="_top">
<polygon fill="#ffffff" stroke="transparent" points="414,-629.0932 414,-690.0932 618,-690.0932 618,-629.0932 414,-629.0932"/>
<polygon fill="#f5f5f5" stroke="transparent" points="414,-666.5932 414,-689.5932 618,-689.5932 618,-666.5932 414,-666.5932"/>
<polygon fill="none" stroke="#000000" points="414,-666.5932 414,-689.5932 618,-689.5932 618,-666.5932 414,-666.5932"/>
<text text-anchor="start" x="419" y="-675.1932" font-family="Helvetica,sans-Serif" font-weight="bold" font-size="11.00" fill="#000000">CompetencyTechnicalCareer</text>
<text text-anchor="start" x="583.5219" y="-674.6932" font-family="Helvetica,sans-Serif" font-size="11.00" fill="#000000">[table]</text>
<polygon fill="none" stroke="#000000" points="414,-647.5932 414,-666.5932 618,-666.5932 618,-647.5932 414,-647.5932"/>
<text text-anchor="start" x="417" y="-653.6932" font-family="Helvetica,sans-Serif" font-size="11.00" fill="#000000">...</text>
<polygon fill="#ffffff" stroke="transparent" points="414,-628.5932 414,-647.5932 501,-647.5932 501,-628.5932 414,-628.5932"/>
<polygon fill="none" stroke="#000000" points="414,-628.5932 414,-647.5932 501,-647.5932 501,-628.5932 414,-628.5932"/>
<text text-anchor="start" x="417" y="-634.6932" font-family="Helvetica,sans-Serif" font-size="11.00" fill="#000000">&lt; 2</text>
<polygon fill="#ffffff" stroke="transparent" points="501,-628.5932 501,-647.5932 572,-647.5932 572,-628.5932 501,-628.5932"/>
<polygon fill="none" stroke="#000000" points="501,-628.5932 501,-647.5932 572,-647.5932 572,-628.5932 501,-628.5932"/>
<text text-anchor="start" x="536.6105" y="-634.6932" font-family="Helvetica,sans-Serif" font-size="11.00" fill="#000000">0 rows</text>
<polygon fill="#ffffff" stroke="transparent" points="572,-628.5932 572,-647.5932 618,-647.5932 618,-628.5932 572,-628.5932"/>
<polygon fill="none" stroke="#000000" points="572,-628.5932 572,-647.5932 618,-647.5932 618,-628.5932 572,-628.5932"/>
<text text-anchor="start" x="608.8862" y="-634.6932" font-family="Helvetica,sans-Serif" font-size="11.00" fill="#000000"> &#160;</text>
</a>
</g>
</g>
<!-- CompetencyTechnicalCareer&#45;&gt;Competencies -->
<g id="edge10" class="edge">
<title>CompetencyTechnicalCareer:w&#45;&gt;Competencies:e</title>
<path fill="none" stroke="#000000" d="M399.3063,-657.3159C363.6815,-660.7394 327.8713,-675.7894 299.7788,-690.8911"/>
<polygon fill="#000000" stroke="#000000" points="406.0097,-656.9862 414.1769,-660.1889 410.0048,-656.7897 414,-656.5932 414,-656.5932 414,-656.5932 410.0048,-656.7897 413.8231,-652.9976 406.0097,-656.9862 406.0097,-656.9862"/>
<ellipse fill="none" stroke="#000000" cx="402.8135" cy="-657.1435" rx="3.2" ry="3.2"/>
</g>
<!-- TechnicalCareers -->
<g id="node9" class="node">
<title>TechnicalCareers</title>
<g id="a_node9"><a xlink:href="../../tables/TechnicalCareers.html" xlink:title="TechnicalCareers" target="_top">
<polygon fill="#ffffff" stroke="transparent" points="176,-436.0932 176,-497.0932 315,-497.0932 315,-436.0932 176,-436.0932"/>
<polygon fill="#f5f5f5" stroke="transparent" points="176.5,-473.5932 176.5,-496.5932 315.5,-496.5932 315.5,-473.5932 176.5,-473.5932"/>
<polygon fill="none" stroke="#000000" points="176.5,-473.5932 176.5,-496.5932 315.5,-496.5932 315.5,-473.5932 176.5,-473.5932"/>
<text text-anchor="start" x="181.5" y="-482.1932" font-family="Helvetica,sans-Serif" font-weight="bold" font-size="11.00" fill="#000000">TechnicalCareers</text>
<text text-anchor="start" x="281.0219" y="-481.6932" font-family="Helvetica,sans-Serif" font-size="11.00" fill="#000000">[table]</text>
<polygon fill="none" stroke="#000000" points="176.5,-454.5932 176.5,-473.5932 315.5,-473.5932 315.5,-454.5932 176.5,-454.5932"/>
<text text-anchor="start" x="179.5" y="-460.6932" font-family="Helvetica,sans-Serif" font-size="11.00" fill="#000000">...</text>
<polygon fill="#ffffff" stroke="transparent" points="176.5,-435.5932 176.5,-454.5932 226.5,-454.5932 226.5,-435.5932 176.5,-435.5932"/>
<polygon fill="none" stroke="#000000" points="176.5,-435.5932 176.5,-454.5932 226.5,-454.5932 226.5,-435.5932 176.5,-435.5932"/>
<text text-anchor="start" x="179.5" y="-441.6932" font-family="Helvetica,sans-Serif" font-size="11.00" fill="#000000">&lt; 2</text>
<polygon fill="#ffffff" stroke="transparent" points="226.5,-435.5932 226.5,-454.5932 279.5,-454.5932 279.5,-435.5932 226.5,-435.5932"/>
<polygon fill="none" stroke="#000000" points="226.5,-435.5932 226.5,-454.5932 279.5,-454.5932 279.5,-435.5932 226.5,-435.5932"/>
<text text-anchor="start" x="244.1105" y="-441.6932" font-family="Helvetica,sans-Serif" font-size="11.00" fill="#000000">6 rows</text>
<polygon fill="#ffffff" stroke="transparent" points="279.5,-435.5932 279.5,-454.5932 315.5,-454.5932 315.5,-435.5932 279.5,-435.5932"/>
<polygon fill="none" stroke="#000000" points="279.5,-435.5932 279.5,-454.5932 315.5,-454.5932 315.5,-435.5932 279.5,-435.5932"/>
<text text-anchor="start" x="296.9053" y="-441.6932" font-family="Helvetica,sans-Serif" font-size="11.00" fill="#000000">6 &gt;</text>
</a>
</g>
</g>
<!-- CompetencyTechnicalCareer&#45;&gt;TechnicalCareers -->
<g id="edge11" class="edge">
<title>CompetencyTechnicalCareer:w&#45;&gt;TechnicalCareers:e</title>
<path fill="none" stroke="#000000" d="M399.7291,-654.5101C376.798,-646.7528 376.6479,-618.548 361,-590.5932 331.7142,-538.2744 375.4576,-463.5932 315.5,-463.5932"/>
<polygon fill="#000000" stroke="#000000" points="406.0839,-655.4377 413.48,-660.1555 410.0419,-656.0154 414,-656.5932 414,-656.5932 414,-656.5932 410.0419,-656.0154 414.52,-653.031 406.0839,-655.4377 406.0839,-655.4377"/>
<ellipse fill="none" stroke="#000000" cx="402.9174" cy="-654.9754" rx="3.2" ry="3.2"/>
</g>
<!-- TechnicalCareers&#45;&gt;AspNetUsers -->
<g id="edge50" class="edge">
<title>TechnicalCareers:w&#45;&gt;AspNetUsers:e</title>
<path fill="none" stroke="#000000" d="M162.1658,-462.0514C151.5024,-461.0389 140.6069,-460.2863 130.1496,-459.7937"/>
<polygon fill="#000000" stroke="#000000" points="168.5459,-462.7376 176.115,-467.1726 172.5229,-463.1654 176.5,-463.5932 176.5,-463.5932 176.5,-463.5932 172.5229,-463.1654 176.885,-460.0139 168.5459,-462.7376 168.5459,-462.7376"/>
<ellipse fill="none" stroke="#000000" cx="165.3642" cy="-462.3954" rx="3.2" ry="3.2"/>
</g>
<!-- TechnicalCareers&#45;&gt;AspNetUsers -->
<g id="edge51" class="edge">
<title>TechnicalCareers:w&#45;&gt;AspNetUsers:e</title>
<path fill="none" stroke="#000000" d="M162.1658,-465.392C151.5024,-466.5732 140.6069,-467.4512 130.1496,-468.026"/>
<polygon fill="#000000" stroke="#000000" points="168.5623,-464.5893 176.9483,-467.1652 172.5311,-464.0913 176.5,-463.5932 176.5,-463.5932 176.5,-463.5932 172.5311,-464.0913 176.0517,-460.0212 168.5623,-464.5893 168.5623,-464.5893"/>
<ellipse fill="none" stroke="#000000" cx="165.3872" cy="-464.9878" rx="3.2" ry="3.2"/>
</g>
<!-- Coordinators -->
<g id="node10" class="node">
<title>Coordinators</title>
<g id="a_node10"><a xlink:href="../../tables/Coordinators.html" xlink:title="Coordinators" target="_top">
<polygon fill="#ffffff" stroke="transparent" points="459,-409.0932 459,-470.0932 573,-470.0932 573,-409.0932 459,-409.0932"/>
<polygon fill="#f5f5f5" stroke="transparent" points="459,-446.5932 459,-469.5932 573,-469.5932 573,-446.5932 459,-446.5932"/>
<polygon fill="none" stroke="#000000" points="459,-446.5932 459,-469.5932 573,-469.5932 573,-446.5932 459,-446.5932"/>
<text text-anchor="start" x="464" y="-455.1932" font-family="Helvetica,sans-Serif" font-weight="bold" font-size="11.00" fill="#000000">Coordinators</text>
<text text-anchor="start" x="538.5219" y="-454.6932" font-family="Helvetica,sans-Serif" font-size="11.00" fill="#000000">[table]</text>
<polygon fill="none" stroke="#000000" points="459,-427.5932 459,-446.5932 573,-446.5932 573,-427.5932 459,-427.5932"/>
<text text-anchor="start" x="462" y="-433.6932" font-family="Helvetica,sans-Serif" font-size="11.00" fill="#000000">...</text>
<polygon fill="#ffffff" stroke="transparent" points="459,-408.5932 459,-427.5932 501,-427.5932 501,-408.5932 459,-408.5932"/>
<polygon fill="none" stroke="#000000" points="459,-408.5932 459,-427.5932 501,-427.5932 501,-408.5932 459,-408.5932"/>
<text text-anchor="start" x="462" y="-414.6932" font-family="Helvetica,sans-Serif" font-size="11.00" fill="#000000">&lt; 2</text>
<polygon fill="#ffffff" stroke="transparent" points="501,-408.5932 501,-427.5932 550,-427.5932 550,-408.5932 501,-408.5932"/>
<polygon fill="none" stroke="#000000" points="501,-408.5932 501,-427.5932 550,-427.5932 550,-408.5932 501,-408.5932"/>
<text text-anchor="start" x="514.6105" y="-414.6932" font-family="Helvetica,sans-Serif" font-size="11.00" fill="#000000">0 rows</text>
<polygon fill="#ffffff" stroke="transparent" points="550,-408.5932 550,-427.5932 573,-427.5932 573,-408.5932 550,-408.5932"/>
<polygon fill="none" stroke="#000000" points="550,-408.5932 550,-427.5932 573,-427.5932 573,-408.5932 550,-408.5932"/>
<text text-anchor="start" x="563.8862" y="-414.6932" font-family="Helvetica,sans-Serif" font-size="11.00" fill="#000000"> &#160;</text>
</a>
</g>
</g>
<!-- Coordinators&#45;&gt;AspNetUsers -->
<g id="edge13" class="edge">
<title>Coordinators:w&#45;&gt;AspNetUsers:e</title>
<path fill="none" stroke="#000000" d="M448.4139,-436.5162C325.3716,-434.7121 288.8628,-402.0454 163,-425.5932 152.1481,-427.6235 140.9521,-430.8165 130.1806,-434.5093"/>
<polygon fill="#000000" stroke="#000000" points="458.2292,-432.5875 458.1709,-440.5873 456.5709,-440.5756 456.6292,-432.5758 458.2292,-432.5875"/>
<polyline fill="none" stroke="#000000" points="459,-436.5932 455.0001,-436.5641 "/>
<ellipse fill="none" stroke="#000000" cx="451.8002" cy="-436.5408" rx="3.2" ry="3.2"/>
</g>
<!-- Coordinators&#45;&gt;TechnicalCareers -->
<g id="edge12" class="edge">
<title>Coordinators:w&#45;&gt;TechnicalCareers:e</title>
<path fill="none" stroke="#000000" d="M444.3417,-437.0849C391.5797,-440.7443 375.2001,-463.5932 315.5,-463.5932"/>
<polygon fill="#000000" stroke="#000000" points="451.0045,-436.8615 459.1207,-440.1912 455.0022,-436.7273 459,-436.5932 459,-436.5932 459,-436.5932 455.0022,-436.7273 458.8793,-432.9952 451.0045,-436.8615 451.0045,-436.8615"/>
<ellipse fill="none" stroke="#000000" cx="447.8063" cy="-436.9688" rx="3.2" ry="3.2"/>
</g>
<!-- EvaluationPeriods -->
<g id="node11" class="node">
<title>EvaluationPeriods</title>
<g id="a_node11"><a xlink:href="../../tables/EvaluationPeriods.html" xlink:title="EvaluationPeriods" target="_top">
<polygon fill="#ffffff" stroke="transparent" points="444.5,-287.0932 444.5,-348.0932 587.5,-348.0932 587.5,-287.0932 444.5,-287.0932"/>
<polygon fill="#f5f5f5" stroke="transparent" points="445,-324.5932 445,-347.5932 588,-347.5932 588,-324.5932 445,-324.5932"/>
<polygon fill="none" stroke="#000000" points="445,-324.5932 445,-347.5932 588,-347.5932 588,-324.5932 445,-324.5932"/>
<text text-anchor="start" x="450" y="-333.1932" font-family="Helvetica,sans-Serif" font-weight="bold" font-size="11.00" fill="#000000">EvaluationPeriods</text>
<text text-anchor="start" x="553.5219" y="-332.6932" font-family="Helvetica,sans-Serif" font-size="11.00" fill="#000000">[table]</text>
<polygon fill="none" stroke="#000000" points="445,-305.5932 445,-324.5932 588,-324.5932 588,-305.5932 445,-305.5932"/>
<text text-anchor="start" x="448" y="-311.6932" font-family="Helvetica,sans-Serif" font-size="11.00" fill="#000000">...</text>
<polygon fill="#ffffff" stroke="transparent" points="445,-286.5932 445,-305.5932 497,-305.5932 497,-286.5932 445,-286.5932"/>
<polygon fill="none" stroke="#000000" points="445,-286.5932 445,-305.5932 497,-305.5932 497,-286.5932 445,-286.5932"/>
<text text-anchor="start" x="448" y="-292.6932" font-family="Helvetica,sans-Serif" font-size="11.00" fill="#000000">&lt; 2</text>
<polygon fill="#ffffff" stroke="transparent" points="497,-286.5932 497,-305.5932 551,-305.5932 551,-286.5932 497,-286.5932"/>
<polygon fill="none" stroke="#000000" points="497,-286.5932 497,-305.5932 551,-305.5932 551,-286.5932 497,-286.5932"/>
<text text-anchor="start" x="515.6105" y="-292.6932" font-family="Helvetica,sans-Serif" font-size="11.00" fill="#000000">0 rows</text>
<polygon fill="#ffffff" stroke="transparent" points="551,-286.5932 551,-305.5932 588,-305.5932 588,-286.5932 551,-286.5932"/>
<polygon fill="none" stroke="#000000" points="551,-286.5932 551,-305.5932 588,-305.5932 588,-286.5932 551,-286.5932"/>
<text text-anchor="start" x="569.4053" y="-292.6932" font-family="Helvetica,sans-Serif" font-size="11.00" fill="#000000">3 &gt;</text>
</a>
</g>
</g>
<!-- EvaluationPeriods&#45;&gt;AspNetUsers -->
<g id="edge14" class="edge">
<title>EvaluationPeriods:w&#45;&gt;AspNetUsers:e</title>
<path fill="none" stroke="#000000" d="M430.4801,-313.8707C314.4474,-307.8242 271.107,-299.687 163,-356.5932 131.0024,-373.4364 103.2477,-404.5617 85.5245,-428.9853"/>
<polygon fill="#000000" stroke="#000000" points="437.0099,-314.1956 444.8211,-318.1888 441.0049,-314.3944 445,-314.5932 445,-314.5932 445,-314.5932 441.0049,-314.3944 445.1789,-310.9977 437.0099,-314.1956 437.0099,-314.1956"/>
<ellipse fill="none" stroke="#000000" cx="433.8138" cy="-314.0365" rx="3.2" ry="3.2"/>
</g>
<!-- EvaluationPeriods&#45;&gt;AspNetUsers -->
<g id="edge15" class="edge">
<title>EvaluationPeriods:w&#45;&gt;AspNetUsers:e</title>
<path fill="none" stroke="#000000" d="M430.4801,-315.3354C314.4474,-320.8242 271.107,-312.687 163,-369.5932 135.975,-383.8188 111.9766,-408.2325 94.4924,-428.6784"/>
<polygon fill="#000000" stroke="#000000" points="437.0104,-315.0017 445.1838,-318.1885 441.0052,-314.7974 445,-314.5932 445,-314.5932 445,-314.5932 441.0052,-314.7974 444.8162,-310.9979 437.0104,-315.0017 437.0104,-315.0017"/>
<ellipse fill="none" stroke="#000000" cx="433.8146" cy="-315.165" rx="3.2" ry="3.2"/>
</g>
<!-- FormQuestions -->
<g id="node12" class="node">
<title>FormQuestions</title>
<g id="a_node12"><a xlink:href="../../tables/FormQuestions.html" xlink:title="FormQuestions" target="_top">
<polygon fill="#ffffff" stroke="transparent" points="452.5,-1004.0932 452.5,-1065.0932 579.5,-1065.0932 579.5,-1004.0932 452.5,-1004.0932"/>
<polygon fill="#f5f5f5" stroke="transparent" points="453,-1041.5932 453,-1064.5932 580,-1064.5932 580,-1041.5932 453,-1041.5932"/>
<polygon fill="none" stroke="#000000" points="453,-1041.5932 453,-1064.5932 580,-1064.5932 580,-1041.5932 453,-1041.5932"/>
<text text-anchor="start" x="458" y="-1050.1932" font-family="Helvetica,sans-Serif" font-weight="bold" font-size="11.00" fill="#000000">FormQuestions</text>
<text text-anchor="start" x="545.5219" y="-1049.6932" font-family="Helvetica,sans-Serif" font-size="11.00" fill="#000000">[table]</text>
<polygon fill="none" stroke="#000000" points="453,-1022.5932 453,-1041.5932 580,-1041.5932 580,-1022.5932 453,-1022.5932"/>
<text text-anchor="start" x="456" y="-1028.6932" font-family="Helvetica,sans-Serif" font-size="11.00" fill="#000000">...</text>
<polygon fill="#ffffff" stroke="transparent" points="453,-1003.5932 453,-1022.5932 497,-1022.5932 497,-1003.5932 453,-1003.5932"/>
<polygon fill="none" stroke="#000000" points="453,-1003.5932 453,-1022.5932 497,-1022.5932 497,-1003.5932 453,-1003.5932"/>
<text text-anchor="start" x="456" y="-1009.6932" font-family="Helvetica,sans-Serif" font-size="11.00" fill="#000000">&lt; 3</text>
<polygon fill="#ffffff" stroke="transparent" points="497,-1003.5932 497,-1022.5932 547,-1022.5932 547,-1003.5932 497,-1003.5932"/>
<polygon fill="none" stroke="#000000" points="497,-1003.5932 497,-1022.5932 547,-1022.5932 547,-1003.5932 497,-1003.5932"/>
<text text-anchor="start" x="511.6105" y="-1009.6932" font-family="Helvetica,sans-Serif" font-size="11.00" fill="#000000">0 rows</text>
<polygon fill="#ffffff" stroke="transparent" points="547,-1003.5932 547,-1022.5932 580,-1022.5932 580,-1003.5932 547,-1003.5932"/>
<polygon fill="none" stroke="#000000" points="547,-1003.5932 547,-1022.5932 580,-1022.5932 580,-1003.5932 547,-1003.5932"/>
<text text-anchor="start" x="561.4053" y="-1009.6932" font-family="Helvetica,sans-Serif" font-size="11.00" fill="#000000">1 &gt;</text>
</a>
</g>
</g>
<!-- FormQuestions&#45;&gt;AspNetUsers -->
<g id="edge17" class="edge">
<title>FormQuestions:w&#45;&gt;AspNetUsers:e</title>
<path fill="none" stroke="#000000" d="M438.3938,-1029.36C402.7501,-1022.9417 385.3438,-1011.228 361,-978.5932 312.892,-914.1006 383.3213,-859.0161 328,-800.5932 276.1178,-745.8021 218.3188,-811.9124 163,-760.5932 123.6336,-724.073 87.5842,-568.5195 72.4837,-498.2233"/>
<polygon fill="#000000" stroke="#000000" points="445.0919,-1030.3841 452.4559,-1035.1519 449.0459,-1030.9887 453,-1031.5932 453,-1031.5932 453,-1031.5932 449.0459,-1030.9887 453.5441,-1028.0346 445.0919,-1030.3841 445.0919,-1030.3841"/>
<ellipse fill="none" stroke="#000000" cx="441.9287" cy="-1029.9004" rx="3.2" ry="3.2"/>
</g>
<!-- FormQuestions&#45;&gt;AspNetUsers -->
<g id="edge18" class="edge">
<title>FormQuestions:w&#45;&gt;AspNetUsers:e</title>
<path fill="none" stroke="#000000" d="M438.3938,-1033.2964C402.7501,-1035.9417 385.3438,-1024.228 361,-991.5932 312.892,-927.1006 383.3213,-872.0161 328,-813.5932 276.1178,-758.8021 218.3188,-824.9124 163,-773.5932 122.3163,-735.851 85.1754,-570.976 71.0388,-498.1917"/>
<polygon fill="#000000" stroke="#000000" points="445.0538,-1032.5199 453.417,-1035.169 449.0269,-1032.0565 453,-1031.5932 453,-1031.5932 453,-1031.5932 449.0269,-1032.0565 452.583,-1028.0174 445.0538,-1032.5199 445.0538,-1032.5199"/>
<ellipse fill="none" stroke="#000000" cx="441.8754" cy="-1032.8905" rx="3.2" ry="3.2"/>
</g>
<!-- FormQuestions&#45;&gt;Competencies -->
<g id="edge16" class="edge">
<title>FormQuestions:w&#45;&gt;Competencies:e</title>
<path fill="none" stroke="#000000" d="M438.1745,-1031.3034C403.2692,-1029.7522 384.8892,-1021.2772 361,-989.5932 301.7405,-910.998 384.4293,-851.2445 328,-770.5932 324.1652,-765.1124 319.4426,-760.2329 314.215,-755.9027"/>
<polygon fill="#000000" stroke="#000000" points="445.0015,-1031.4368 452.9296,-1035.1925 449.0008,-1031.515 453,-1031.5932 453,-1031.5932 453,-1031.5932 449.0008,-1031.515 453.0704,-1027.9939 445.0015,-1031.4368 445.0015,-1031.4368"/>
<ellipse fill="none" stroke="#000000" cx="441.8021" cy="-1031.3742" rx="3.2" ry="3.2"/>
</g>
<!-- ProfessorCompetencyAssignments -->
<g id="node13" class="node">
<title>ProfessorCompetencyAssignments</title>
<g id="a_node13"><a xlink:href="../../tables/ProfessorCompetencyAssignments.html" xlink:title="ProfessorCompetencyAssignments" target="_top">
<polygon fill="#ffffff" stroke="transparent" points="712,-378.0932 712,-439.0932 954,-439.0932 954,-378.0932 712,-378.0932"/>
<polygon fill="#f5f5f5" stroke="transparent" points="712,-415.5932 712,-438.5932 954,-438.5932 954,-415.5932 712,-415.5932"/>
<polygon fill="none" stroke="#000000" points="712,-415.5932 712,-438.5932 954,-438.5932 954,-415.5932 712,-415.5932"/>
<text text-anchor="start" x="717" y="-424.1932" font-family="Helvetica,sans-Serif" font-weight="bold" font-size="11.00" fill="#000000">ProfessorCompetencyAssignments</text>
<text text-anchor="start" x="919.5219" y="-423.6932" font-family="Helvetica,sans-Serif" font-size="11.00" fill="#000000">[table]</text>
<polygon fill="none" stroke="#000000" points="712,-396.5932 712,-415.5932 954,-415.5932 954,-396.5932 712,-396.5932"/>
<text text-anchor="start" x="715" y="-402.6932" font-family="Helvetica,sans-Serif" font-size="11.00" fill="#000000">...</text>
<polygon fill="#ffffff" stroke="transparent" points="712,-377.5932 712,-396.5932 814,-396.5932 814,-377.5932 712,-377.5932"/>
<polygon fill="none" stroke="#000000" points="712,-377.5932 712,-396.5932 814,-396.5932 814,-377.5932 712,-377.5932"/>
<text text-anchor="start" x="715" y="-383.6932" font-family="Helvetica,sans-Serif" font-size="11.00" fill="#000000">&lt; 7</text>
<polygon fill="#ffffff" stroke="transparent" points="814,-377.5932 814,-396.5932 892,-396.5932 892,-377.5932 814,-377.5932"/>
<polygon fill="none" stroke="#000000" points="814,-377.5932 814,-396.5932 892,-396.5932 892,-377.5932 814,-377.5932"/>
<text text-anchor="start" x="856.6105" y="-383.6932" font-family="Helvetica,sans-Serif" font-size="11.00" fill="#000000">0 rows</text>
<polygon fill="#ffffff" stroke="transparent" points="892,-377.5932 892,-396.5932 954,-396.5932 954,-377.5932 892,-377.5932"/>
<polygon fill="none" stroke="#000000" points="892,-377.5932 892,-396.5932 954,-396.5932 954,-377.5932 892,-377.5932"/>
<text text-anchor="start" x="935.4053" y="-383.6932" font-family="Helvetica,sans-Serif" font-size="11.00" fill="#000000">1 &gt;</text>
</a>
</g>
</g>
<!-- ProfessorCompetencyAssignments&#45;&gt;AspNetUsers -->
<g id="edge20" class="edge">
<title>ProfessorCompetencyAssignments:w&#45;&gt;AspNetUsers:e</title>
<path fill="none" stroke="#000000" d="M698.2986,-400.3589C689.6893,-396.6389 683.8076,-393.6787 671,-392.5932 533.7144,-380.9579 498.6658,-387.04 361,-392.5932 272.7849,-396.1517 248.0377,-384.8623 163,-408.5932 146.2353,-413.2716 128.9352,-420.8655 113.6242,-428.967"/>
<polygon fill="#000000" stroke="#000000" points="704.5268,-402.7382 710.7153,-408.9562 708.2634,-404.1657 712,-405.5932 712,-405.5932 712,-405.5932 708.2634,-404.1657 713.2847,-402.2303 704.5268,-402.7382 704.5268,-402.7382"/>
<ellipse fill="none" stroke="#000000" cx="701.5375" cy="-401.5962" rx="3.2" ry="3.2"/>
</g>
<!-- ProfessorCompetencyAssignments&#45;&gt;AspNetUsers -->
<g id="edge25" class="edge">
<title>ProfessorCompetencyAssignments:w&#45;&gt;AspNetUsers:e</title>
<path fill="none" stroke="#000000" d="M698.0094,-409.0095C689.5562,-409.5726 683.6637,-406.6665 671,-405.5932 533.7144,-393.9579 498.6658,-400.04 361,-405.5932 272.7849,-409.1517 248.0377,-397.8623 163,-421.5932 152.0068,-424.661 140.7833,-428.9825 130.0414,-433.7112"/>
<polygon fill="#000000" stroke="#000000" points="704.2283,-407.491 712.854,-409.0905 708.1142,-406.5421 712,-405.5932 712,-405.5932 712,-405.5932 708.1142,-406.5421 711.146,-402.096 704.2283,-407.491 704.2283,-407.491"/>
<ellipse fill="none" stroke="#000000" cx="701.1197" cy="-408.2501" rx="3.2" ry="3.2"/>
</g>
<!-- ProfessorCompetencyAssignments&#45;&gt;Competencies -->
<g id="edge19" class="edge">
<title>ProfessorCompetencyAssignments:w&#45;&gt;Competencies:e</title>
<path fill="none" stroke="#000000" d="M699.8898,-414.1628C659.1771,-481.6787 713.2169,-926.3542 671,-965.5932 645.7705,-989.043 387.3095,-987.8245 361,-965.5932 293.8606,-908.8612 379.0399,-842.1554 328,-770.5932 324.1158,-765.1473 319.3597,-760.2915 314.1105,-755.9765"/>
<polygon fill="#000000" stroke="#000000" points="705.4697,-410.2144 714.0795,-408.5319 708.7348,-407.9038 712,-405.5932 712,-405.5932 712,-405.5932 708.7348,-407.9038 709.9205,-402.6546 705.4697,-410.2144 705.4697,-410.2144"/>
<ellipse fill="none" stroke="#000000" cx="702.8575" cy="-412.0628" rx="3.2" ry="3.2"/>
</g>
<!-- ProfessorCompetencyAssignments&#45;&gt;TechnicalCareers -->
<g id="edge24" class="edge">
<title>ProfessorCompetencyAssignments:w&#45;&gt;TechnicalCareers:e</title>
<path fill="none" stroke="#000000" d="M698.1913,-409.6791C682.0668,-422.869 698.3148,-464.3955 671,-480.5932 611.7461,-515.7309 428.7909,-492.8439 361,-480.5932 339.7565,-476.7543 337.0876,-463.5932 315.5,-463.5932"/>
<polygon fill="#000000" stroke="#000000" points="704.3288,-407.8631 713.0214,-409.0453 708.1644,-406.7282 712,-405.5932 712,-405.5932 712,-405.5932 708.1644,-406.7282 710.9786,-402.1412 704.3288,-407.8631 704.3288,-407.8631"/>
<ellipse fill="none" stroke="#000000" cx="701.2603" cy="-408.771" rx="3.2" ry="3.2"/>
</g>
<!-- ProfessorCompetencyAssignments&#45;&gt;EvaluationPeriods -->
<g id="edge21" class="edge">
<title>ProfessorCompetencyAssignments:w&#45;&gt;EvaluationPeriods:e</title>
<path fill="none" stroke="#000000" d="M698.0337,-401.6747C687.0018,-393.6599 686.8872,-375.0964 671,-362.5932 637.5132,-336.2392 630.6134,-314.5932 588,-314.5932"/>
<polygon fill="#000000" stroke="#000000" points="704.2974,-403.4321 711.0275,-409.0594 708.1487,-404.5126 712,-405.5932 712,-405.5932 712,-405.5932 708.1487,-404.5126 712.9725,-402.1271 704.2974,-403.4321 704.2974,-403.4321"/>
<ellipse fill="none" stroke="#000000" cx="701.2164" cy="-402.5676" rx="3.2" ry="3.2"/>
</g>
<!-- Professors -->
<g id="node14" class="node">
<title>Professors</title>
<g id="a_node14"><a xlink:href="../../tables/Professors.html" xlink:title="Professors" target="_top">
<polygon fill="#ffffff" stroke="transparent" points="195,-558.0932 195,-619.0932 296,-619.0932 296,-558.0932 195,-558.0932"/>
<polygon fill="#f5f5f5" stroke="transparent" points="195.5,-595.5932 195.5,-618.5932 296.5,-618.5932 296.5,-595.5932 195.5,-595.5932"/>
<polygon fill="none" stroke="#000000" points="195.5,-595.5932 195.5,-618.5932 296.5,-618.5932 296.5,-595.5932 195.5,-595.5932"/>
<text text-anchor="start" x="200.5" y="-604.1932" font-family="Helvetica,sans-Serif" font-weight="bold" font-size="11.00" fill="#000000">Professors</text>
<text text-anchor="start" x="262.0219" y="-603.6932" font-family="Helvetica,sans-Serif" font-size="11.00" fill="#000000">[table]</text>
<polygon fill="none" stroke="#000000" points="195.5,-576.5932 195.5,-595.5932 296.5,-595.5932 296.5,-576.5932 195.5,-576.5932"/>
<text text-anchor="start" x="198.5" y="-582.6932" font-family="Helvetica,sans-Serif" font-size="11.00" fill="#000000">...</text>
<polygon fill="#ffffff" stroke="transparent" points="195.5,-557.5932 195.5,-576.5932 226.5,-576.5932 226.5,-557.5932 195.5,-557.5932"/>
<polygon fill="none" stroke="#000000" points="195.5,-557.5932 195.5,-576.5932 226.5,-576.5932 226.5,-557.5932 195.5,-557.5932"/>
<text text-anchor="start" x="198.5" y="-563.6932" font-family="Helvetica,sans-Serif" font-size="11.00" fill="#000000">&lt; 1</text>
<polygon fill="#ffffff" stroke="transparent" points="226.5,-557.5932 226.5,-576.5932 269.5,-576.5932 269.5,-557.5932 226.5,-557.5932"/>
<polygon fill="none" stroke="#000000" points="226.5,-557.5932 226.5,-576.5932 269.5,-576.5932 269.5,-557.5932 226.5,-557.5932"/>
<text text-anchor="start" x="234.1105" y="-563.6932" font-family="Helvetica,sans-Serif" font-size="11.00" fill="#000000">0 rows</text>
<polygon fill="#ffffff" stroke="transparent" points="269.5,-557.5932 269.5,-576.5932 296.5,-576.5932 296.5,-557.5932 269.5,-557.5932"/>
<polygon fill="none" stroke="#000000" points="269.5,-557.5932 269.5,-576.5932 296.5,-576.5932 296.5,-557.5932 269.5,-557.5932"/>
<text text-anchor="start" x="277.9053" y="-563.6932" font-family="Helvetica,sans-Serif" font-size="11.00" fill="#000000">2 &gt;</text>
</a>
</g>
</g>
<!-- ProfessorCompetencyAssignments&#45;&gt;Professors -->
<g id="edge22" class="edge">
<title>ProfessorCompetencyAssignments:w&#45;&gt;Professors:e</title>
<path fill="none" stroke="#000000" d="M697.6694,-407.2812C641.4756,-422.8113 732.3165,-541.378 671,-590.5932 606.0923,-642.6909 379.7296,-585.5932 296.5,-585.5932"/>
<polygon fill="#000000" stroke="#000000" points="704.0549,-406.5291 712.4212,-409.1685 708.0275,-406.0612 712,-405.5932 712,-405.5932 712,-405.5932 708.0275,-406.0612 711.5788,-402.0179 704.0549,-406.5291 704.0549,-406.5291"/>
<ellipse fill="none" stroke="#000000" cx="700.8769" cy="-406.9035" rx="3.2" ry="3.2"/>
</g>
<!-- Subjects -->
<g id="node15" class="node">
<title>Subjects</title>
<g id="a_node15"><a xlink:href="../../tables/Subjects.html" xlink:title="Subjects" target="_top">
<polygon fill="#ffffff" stroke="transparent" points="471.5,-519.0932 471.5,-580.0932 560.5,-580.0932 560.5,-519.0932 471.5,-519.0932"/>
<polygon fill="#f5f5f5" stroke="transparent" points="472,-556.5932 472,-579.5932 561,-579.5932 561,-556.5932 472,-556.5932"/>
<polygon fill="none" stroke="#000000" points="472,-556.5932 472,-579.5932 561,-579.5932 561,-556.5932 472,-556.5932"/>
<text text-anchor="start" x="477" y="-565.1932" font-family="Helvetica,sans-Serif" font-weight="bold" font-size="11.00" fill="#000000">Subjects</text>
<text text-anchor="start" x="526.5219" y="-564.6932" font-family="Helvetica,sans-Serif" font-size="11.00" fill="#000000">[table]</text>
<polygon fill="none" stroke="#000000" points="472,-537.5932 472,-556.5932 561,-556.5932 561,-537.5932 472,-537.5932"/>
<text text-anchor="start" x="475" y="-543.6932" font-family="Helvetica,sans-Serif" font-size="11.00" fill="#000000">...</text>
<polygon fill="#ffffff" stroke="transparent" points="472,-518.5932 472,-537.5932 497,-537.5932 497,-518.5932 472,-518.5932"/>
<polygon fill="none" stroke="#000000" points="472,-518.5932 472,-537.5932 497,-537.5932 497,-518.5932 472,-518.5932"/>
<text text-anchor="start" x="475" y="-524.6932" font-family="Helvetica,sans-Serif" font-size="11.00" fill="#000000">&lt; 4</text>
<polygon fill="#ffffff" stroke="transparent" points="497,-518.5932 497,-537.5932 537,-537.5932 537,-518.5932 497,-518.5932"/>
<polygon fill="none" stroke="#000000" points="497,-518.5932 497,-537.5932 537,-537.5932 537,-518.5932 497,-518.5932"/>
<text text-anchor="start" x="501.6105" y="-524.6932" font-family="Helvetica,sans-Serif" font-size="11.00" fill="#000000">0 rows</text>
<polygon fill="#ffffff" stroke="transparent" points="537,-518.5932 537,-537.5932 561,-537.5932 561,-518.5932 537,-518.5932"/>
<polygon fill="none" stroke="#000000" points="537,-518.5932 537,-537.5932 561,-537.5932 561,-518.5932 537,-518.5932"/>
<text text-anchor="start" x="542.4053" y="-524.6932" font-family="Helvetica,sans-Serif" font-size="11.00" fill="#000000">3 &gt;</text>
</a>
</g>
</g>
<!-- ProfessorCompetencyAssignments&#45;&gt;Subjects -->
<g id="edge23" class="edge">
<title>ProfessorCompetencyAssignments:w&#45;&gt;Subjects:e</title>
<path fill="none" stroke="#000000" d="M697.6394,-408.6625C673.6412,-422.0151 700.7407,-475.671 671,-504.5932 633.4835,-541.0772 613.3313,-546.5932 561,-546.5932"/>
<polygon fill="#000000" stroke="#000000" points="704.1767,-407.2653 712.7525,-409.1137 708.0883,-406.4293 712,-405.5932 712,-405.5932 712,-405.5932 708.0883,-406.4293 711.2475,-402.0727 704.1767,-407.2653 704.1767,-407.2653"/>
<ellipse fill="none" stroke="#000000" cx="701.0474" cy="-407.9342" rx="3.2" ry="3.2"/>
</g>
<!-- Professors&#45;&gt;AspNetUsers -->
<g id="edge26" class="edge">
<title>Professors:w&#45;&gt;AspNetUsers:e</title>
<path fill="none" stroke="#000000" d="M185.1104,-584.8953C138.6877,-578.6511 102.9606,-531.8301 82.9571,-498.2272"/>
<polygon fill="#000000" stroke="#000000" points="194.9699,-581.5486 194.4337,-589.5306 192.8373,-589.4234 193.3735,-581.4413 194.9699,-581.5486"/>
<polyline fill="none" stroke="#000000" points="195.5,-585.5932 191.509,-585.3251 "/>
<ellipse fill="none" stroke="#000000" cx="188.3162" cy="-585.1106" rx="3.2" ry="3.2"/>
</g>
<!-- Subjects&#45;&gt;AspNetUsers -->
<g id="edge46" class="edge">
<title>Subjects:w&#45;&gt;AspNetUsers:e</title>
<path fill="none" stroke="#000000" d="M457.3819,-545.9583C330.7557,-540.4326 291.4522,-537.6663 163,-501.5932 152.1369,-498.5426 140.935,-494.4764 130.161,-490.1242"/>
<polygon fill="#000000" stroke="#000000" points="464.0075,-546.246 471.8438,-550.1898 468.0038,-546.4196 472,-546.5932 472,-546.5932 472,-546.5932 468.0038,-546.4196 472.1562,-542.9966 464.0075,-546.246 464.0075,-546.246"/>
<ellipse fill="none" stroke="#000000" cx="460.8106" cy="-546.1071" rx="3.2" ry="3.2"/>
</g>
<!-- Subjects&#45;&gt;AspNetUsers -->
<g id="edge49" class="edge">
<title>Subjects:w&#45;&gt;AspNetUsers:e</title>
<path fill="none" stroke="#000000" d="M457.3819,-547.3171C330.7557,-553.4326 291.4522,-550.6663 163,-514.5932 148.3663,-510.4836 133.1176,-504.5312 119.1286,-498.0999"/>
<polygon fill="#000000" stroke="#000000" points="464.0098,-546.989 472.1781,-550.1888 468.0049,-546.7911 472,-546.5932 472,-546.5932 472,-546.5932 468.0049,-546.7911 471.8219,-542.9976 464.0098,-546.989 464.0098,-546.989"/>
<ellipse fill="none" stroke="#000000" cx="460.8137" cy="-547.1473" rx="3.2" ry="3.2"/>
</g>
<!-- Subjects&#45;&gt;TechnicalCareers -->
<g id="edge48" class="edge">
<title>Subjects:w&#45;&gt;TechnicalCareers:e</title>
<path fill="none" stroke="#000000" d="M457.3439,-546.162C416.3042,-543.5686 401.5488,-529.3188 361,-504.5932 337.7589,-490.4214 342.7211,-463.5932 315.5,-463.5932"/>
<polygon fill="#000000" stroke="#000000" points="464.0035,-546.3579 471.8941,-550.1917 468.0017,-546.4756 472,-546.5932 472,-546.5932 472,-546.5932 468.0017,-546.4756 472.1059,-542.9948 464.0035,-546.3579 464.0035,-546.3579"/>
<ellipse fill="none" stroke="#000000" cx="460.8048" cy="-546.2638" rx="3.2" ry="3.2"/>
</g>
<!-- Subjects&#45;&gt;Professors -->
<g id="edge47" class="edge">
<title>Subjects:w&#45;&gt;Professors:e</title>
<path fill="none" stroke="#000000" d="M457.3159,-547.0584C389.8074,-551.4585 371.2527,-585.5932 296.5,-585.5932"/>
<polygon fill="#000000" stroke="#000000" points="464.004,-546.8466 472.114,-550.1914 468.002,-546.7199 472,-546.5932 472,-546.5932 472,-546.5932 468.002,-546.7199 471.886,-542.995 464.004,-546.8466 464.004,-546.8466"/>
<ellipse fill="none" stroke="#000000" cx="460.8056" cy="-546.9479" rx="3.2" ry="3.2"/>
</g>
<!-- QuestionResponses -->
<g id="node16" class="node">
<title>QuestionResponses</title>
<g id="a_node16"><a xlink:href="../../tables/QuestionResponses.html" xlink:title="QuestionResponses" target="_top">
<polygon fill="#ffffff" stroke="transparent" points="1275,-106.0932 1275,-167.0932 1430,-167.0932 1430,-106.0932 1275,-106.0932"/>
<polygon fill="#f5f5f5" stroke="transparent" points="1275.5,-143.5932 1275.5,-166.5932 1430.5,-166.5932 1430.5,-143.5932 1275.5,-143.5932"/>
<polygon fill="none" stroke="#000000" points="1275.5,-143.5932 1275.5,-166.5932 1430.5,-166.5932 1430.5,-143.5932 1275.5,-143.5932"/>
<text text-anchor="start" x="1280.5" y="-152.1932" font-family="Helvetica,sans-Serif" font-weight="bold" font-size="11.00" fill="#000000">QuestionResponses</text>
<text text-anchor="start" x="1396.0219" y="-151.6932" font-family="Helvetica,sans-Serif" font-size="11.00" fill="#000000">[table]</text>
<polygon fill="none" stroke="#000000" points="1275.5,-124.5932 1275.5,-143.5932 1430.5,-143.5932 1430.5,-124.5932 1275.5,-124.5932"/>
<text text-anchor="start" x="1278.5" y="-130.6932" font-family="Helvetica,sans-Serif" font-size="11.00" fill="#000000">...</text>
<polygon fill="#ffffff" stroke="transparent" points="1275.5,-105.5932 1275.5,-124.5932 1338.5,-124.5932 1338.5,-105.5932 1275.5,-105.5932"/>
<polygon fill="none" stroke="#000000" points="1275.5,-105.5932 1275.5,-124.5932 1338.5,-124.5932 1338.5,-105.5932 1275.5,-105.5932"/>
<text text-anchor="start" x="1278.5" y="-111.6932" font-family="Helvetica,sans-Serif" font-size="11.00" fill="#000000">&lt; 4</text>
<polygon fill="#ffffff" stroke="transparent" points="1338.5,-105.5932 1338.5,-124.5932 1397.5,-124.5932 1397.5,-105.5932 1338.5,-105.5932"/>
<polygon fill="none" stroke="#000000" points="1338.5,-105.5932 1338.5,-124.5932 1397.5,-124.5932 1397.5,-105.5932 1338.5,-105.5932"/>
<text text-anchor="start" x="1362.1105" y="-111.6932" font-family="Helvetica,sans-Serif" font-size="11.00" fill="#000000">0 rows</text>
<polygon fill="#ffffff" stroke="transparent" points="1397.5,-105.5932 1397.5,-124.5932 1430.5,-124.5932 1430.5,-105.5932 1397.5,-105.5932"/>
<polygon fill="none" stroke="#000000" points="1397.5,-105.5932 1397.5,-124.5932 1430.5,-124.5932 1430.5,-105.5932 1397.5,-105.5932"/>
<text text-anchor="start" x="1421.3862" y="-111.6932" font-family="Helvetica,sans-Serif" font-size="11.00" fill="#000000"> &#160;</text>
</a>
</g>
</g>
<!-- QuestionResponses&#45;&gt;AspNetUsers -->
<g id="edge27" class="edge">
<title>QuestionResponses:w&#45;&gt;AspNetUsers:e</title>
<path fill="none" stroke="#000000" d="M1260.8729,-133.0152C1073.6267,-123.806 1027.6509,-50.5932 833,-50.5932 833,-50.5932 833,-50.5932 516,-50.5932 357.7846,-50.5932 282.1921,7.4516 163,-96.5932 112.7915,-140.4211 80.0972,-346.0267 69.1076,-428.916"/>
<polygon fill="#000000" stroke="#000000" points="1267.5062,-133.2773 1275.3578,-137.1904 1271.5031,-133.4352 1275.5,-133.5932 1275.5,-133.5932 1275.5,-133.5932 1271.5031,-133.4352 1275.6422,-129.996 1267.5062,-133.2773 1267.5062,-133.2773"/>
<ellipse fill="none" stroke="#000000" cx="1264.3087" cy="-133.1509" rx="3.2" ry="3.2"/>
</g>
<!-- QuestionResponses&#45;&gt;AspNetUsers -->
<g id="edge30" class="edge">
<title>QuestionResponses:w&#45;&gt;AspNetUsers:e</title>
<path fill="none" stroke="#000000" d="M1260.8729,-133.9624C1073.6267,-136.806 1027.6509,-63.5932 833,-63.5932 833,-63.5932 833,-63.5932 516,-63.5932 357.7846,-63.5932 282.1921,-5.5484 163,-109.5932 114.1369,-152.2466 81.8619,-348.1238 70.0377,-428.818"/>
<polygon fill="#000000" stroke="#000000" points="1267.5025,-133.7951 1275.5909,-137.1921 1271.5013,-133.6942 1275.5,-133.5932 1275.5,-133.5932 1275.5,-133.5932 1271.5013,-133.6942 1275.4091,-129.9944 1267.5025,-133.7951 1267.5025,-133.7951"/>
<ellipse fill="none" stroke="#000000" cx="1264.3036" cy="-133.8759" rx="3.2" ry="3.2"/>
</g>
<!-- QuestionResponses&#45;&gt;FormQuestions -->
<g id="edge28" class="edge">
<title>QuestionResponses:w&#45;&gt;FormQuestions:e</title>
<path fill="none" stroke="#000000" d="M1261.215,-136.4063C1239.5024,-147.1469 1252.3847,-186.4796 1234,-216.5932 991.9975,-612.9855 1044.4266,-1031.5932 580,-1031.5932"/>
<polygon fill="#000000" stroke="#000000" points="1267.6507,-135.139 1276.1956,-137.1254 1271.5754,-134.3661 1275.5,-133.5932 1275.5,-133.5932 1275.5,-133.5932 1271.5754,-134.3661 1274.8044,-130.0611 1267.6507,-135.139 1267.6507,-135.139"/>
<ellipse fill="none" stroke="#000000" cx="1264.511" cy="-135.7573" rx="3.2" ry="3.2"/>
</g>
<!-- StudentCompetencyEvaluations -->
<g id="node17" class="node">
<title>StudentCompetencyEvaluations</title>
<g id="a_node17"><a xlink:href="../../tables/StudentCompetencyEvaluations.html" xlink:title="StudentCompetencyEvaluations" target="_top">
<polygon fill="#ffffff" stroke="transparent" points="1003,-145.0932 1003,-206.0932 1226,-206.0932 1226,-145.0932 1003,-145.0932"/>
<polygon fill="#f5f5f5" stroke="transparent" points="1003.5,-182.5932 1003.5,-205.5932 1226.5,-205.5932 1226.5,-182.5932 1003.5,-182.5932"/>
<polygon fill="none" stroke="#000000" points="1003.5,-182.5932 1003.5,-205.5932 1226.5,-205.5932 1226.5,-182.5932 1003.5,-182.5932"/>
<text text-anchor="start" x="1008.5" y="-191.1932" font-family="Helvetica,sans-Serif" font-weight="bold" font-size="11.00" fill="#000000">StudentCompetencyEvaluations</text>
<text text-anchor="start" x="1192.0219" y="-190.6932" font-family="Helvetica,sans-Serif" font-size="11.00" fill="#000000">[table]</text>
<polygon fill="none" stroke="#000000" points="1003.5,-163.5932 1003.5,-182.5932 1226.5,-182.5932 1226.5,-163.5932 1003.5,-163.5932"/>
<text text-anchor="start" x="1006.5" y="-169.6932" font-family="Helvetica,sans-Serif" font-size="11.00" fill="#000000">...</text>
<polygon fill="#ffffff" stroke="transparent" points="1003.5,-144.5932 1003.5,-163.5932 1095.5,-163.5932 1095.5,-144.5932 1003.5,-144.5932"/>
<polygon fill="none" stroke="#000000" points="1003.5,-144.5932 1003.5,-163.5932 1095.5,-163.5932 1095.5,-144.5932 1003.5,-144.5932"/>
<text text-anchor="start" x="1006.5" y="-150.6932" font-family="Helvetica,sans-Serif" font-size="11.00" fill="#000000">&lt; 5</text>
<polygon fill="#ffffff" stroke="transparent" points="1095.5,-144.5932 1095.5,-163.5932 1169.5,-163.5932 1169.5,-144.5932 1095.5,-144.5932"/>
<polygon fill="none" stroke="#000000" points="1095.5,-144.5932 1095.5,-163.5932 1169.5,-163.5932 1169.5,-144.5932 1095.5,-144.5932"/>
<text text-anchor="start" x="1134.1105" y="-150.6932" font-family="Helvetica,sans-Serif" font-size="11.00" fill="#000000">0 rows</text>
<polygon fill="#ffffff" stroke="transparent" points="1169.5,-144.5932 1169.5,-163.5932 1226.5,-163.5932 1226.5,-144.5932 1169.5,-144.5932"/>
<polygon fill="none" stroke="#000000" points="1169.5,-144.5932 1169.5,-163.5932 1226.5,-163.5932 1226.5,-144.5932 1169.5,-144.5932"/>
<text text-anchor="start" x="1207.9053" y="-150.6932" font-family="Helvetica,sans-Serif" font-size="11.00" fill="#000000">1 &gt;</text>
</a>
</g>
</g>
<!-- QuestionResponses&#45;&gt;StudentCompetencyEvaluations -->
<g id="edge29" class="edge">
<title>QuestionResponses:w&#45;&gt;StudentCompetencyEvaluations:e</title>
<path fill="none" stroke="#000000" d="M1261.4646,-138.3754C1248.9324,-148.7895 1248.2451,-172.5932 1226.5,-172.5932"/>
<polygon fill="#000000" stroke="#000000" points="1267.9275,-136.1734 1276.6611,-137.0009 1271.7137,-134.8833 1275.5,-133.5932 1275.5,-133.5932 1275.5,-133.5932 1271.7137,-134.8833 1274.3389,-130.1856 1267.9275,-136.1734 1267.9275,-136.1734"/>
<ellipse fill="none" stroke="#000000" cx="1264.8985" cy="-137.2054" rx="3.2" ry="3.2"/>
</g>
<!-- StudentCompetencyEvaluations&#45;&gt;AspNetUsers -->
<g id="edge31" class="edge">
<title>StudentCompetencyEvaluations:w&#45;&gt;AspNetUsers:e</title>
<path fill="none" stroke="#000000" d="M990.427,-165.7691C977.2189,-151.5525 984.6916,-121.1409 962,-109.5932 900.0797,-78.0822 228.4613,-78.9241 163,-129.5932 115.2972,-166.5167 81.6257,-351.1281 69.7283,-428.9778"/>
<polygon fill="#000000" stroke="#000000" points="996.4081,-168.8912 1001.8341,-175.7846 999.954,-170.7422 1003.5,-172.5932 1003.5,-172.5932 1003.5,-172.5932 999.954,-170.7422 1005.1659,-169.4019 996.4081,-168.8912 996.4081,-168.8912"/>
<ellipse fill="none" stroke="#000000" cx="993.5713" cy="-167.4104" rx="3.2" ry="3.2"/>
</g>
<!-- StudentCompetencyEvaluations&#45;&gt;AspNetUsers -->
<g id="edge35" class="edge">
<title>StudentCompetencyEvaluations:w&#45;&gt;AspNetUsers:e</title>
<path fill="none" stroke="#000000" d="M988.9919,-170.86C977.7491,-162.2411 983.8188,-133.6967 962,-122.5932 900.0797,-91.0822 228.4613,-91.9241 163,-142.5932 116.7071,-178.4254 83.6284,-353.3441 70.8401,-428.8776"/>
<polygon fill="#000000" stroke="#000000" points="995.5565,-171.6442 1003.0729,-176.1678 999.5282,-172.1187 1003.5,-172.5932 1003.5,-172.5932 1003.5,-172.5932 999.5282,-172.1187 1003.9271,-169.0186 995.5565,-171.6442 995.5565,-171.6442"/>
<ellipse fill="none" stroke="#000000" cx="992.3791" cy="-171.2646" rx="3.2" ry="3.2"/>
</g>
<!-- StudentCompetencyEvaluations&#45;&gt;ProfessorCompetencyAssignments -->
<g id="edge32" class="edge">
<title>StudentCompetencyEvaluations:w&#45;&gt;ProfessorCompetencyAssignments:e</title>
<path fill="none" stroke="#000000" d="M988.9096,-174.4687C913.9983,-196.5195 1054.2839,-405.5932 954,-405.5932"/>
<polygon fill="#000000" stroke="#000000" points="995.5653,-173.6132 1003.959,-176.1638 999.5326,-173.1032 1003.5,-172.5932 1003.5,-172.5932 1003.5,-172.5932 999.5326,-173.1032 1003.041,-169.0226 995.5653,-173.6132 995.5653,-173.6132"/>
<ellipse fill="none" stroke="#000000" cx="992.3914" cy="-174.0212" rx="3.2" ry="3.2"/>
</g>
<!-- StudentCompetencyEvaluations&#45;&gt;Subjects -->
<g id="edge34" class="edge">
<title>StudentCompetencyEvaluations:w&#45;&gt;Subjects:e</title>
<path fill="none" stroke="#000000" d="M989.5841,-177.8872C951.6892,-212.6211 1000.2442,-407.8002 962,-449.5932 838.2139,-584.8661 744.3623,-546.5932 561,-546.5932"/>
<polygon fill="#000000" stroke="#000000" points="996.0228,-175.4378 1004.78,-175.958 999.7614,-174.0155 1003.5,-172.5932 1003.5,-172.5932 1003.5,-172.5932 999.7614,-174.0155 1002.22,-169.2285 996.0228,-175.4378 996.0228,-175.4378"/>
<ellipse fill="none" stroke="#000000" cx="993.0319" cy="-176.5756" rx="3.2" ry="3.2"/>
</g>
<!-- Students -->
<g id="node18" class="node">
<title>Students</title>
<g id="a_node18"><a xlink:href="../../tables/Students.html" xlink:title="Students" target="_top">
<polygon fill="#ffffff" stroke="transparent" points="471,-165.0932 471,-226.0932 561,-226.0932 561,-165.0932 471,-165.0932"/>
<polygon fill="#f5f5f5" stroke="transparent" points="471,-202.5932 471,-225.5932 561,-225.5932 561,-202.5932 471,-202.5932"/>
<polygon fill="none" stroke="#000000" points="471,-202.5932 471,-225.5932 561,-225.5932 561,-202.5932 471,-202.5932"/>
<text text-anchor="start" x="476" y="-211.1932" font-family="Helvetica,sans-Serif" font-weight="bold" font-size="11.00" fill="#000000">Students</text>
<text text-anchor="start" x="526.5219" y="-210.6932" font-family="Helvetica,sans-Serif" font-size="11.00" fill="#000000">[table]</text>
<polygon fill="none" stroke="#000000" points="471,-183.5932 471,-202.5932 561,-202.5932 561,-183.5932 471,-183.5932"/>
<text text-anchor="start" x="474" y="-189.6932" font-family="Helvetica,sans-Serif" font-size="11.00" fill="#000000">...</text>
<polygon fill="#ffffff" stroke="transparent" points="471,-164.5932 471,-183.5932 497,-183.5932 497,-164.5932 471,-164.5932"/>
<polygon fill="none" stroke="#000000" points="471,-164.5932 471,-183.5932 497,-183.5932 497,-164.5932 471,-164.5932"/>
<text text-anchor="start" x="474" y="-170.6932" font-family="Helvetica,sans-Serif" font-size="11.00" fill="#000000">&lt; 2</text>
<polygon fill="#ffffff" stroke="transparent" points="497,-164.5932 497,-183.5932 537,-183.5932 537,-164.5932 497,-164.5932"/>
<polygon fill="none" stroke="#000000" points="497,-164.5932 497,-183.5932 537,-183.5932 537,-164.5932 497,-164.5932"/>
<text text-anchor="start" x="501.6105" y="-170.6932" font-family="Helvetica,sans-Serif" font-size="11.00" fill="#000000">0 rows</text>
<polygon fill="#ffffff" stroke="transparent" points="537,-164.5932 537,-183.5932 561,-183.5932 561,-164.5932 537,-164.5932"/>
<polygon fill="none" stroke="#000000" points="537,-164.5932 537,-183.5932 561,-183.5932 561,-164.5932 537,-164.5932"/>
<text text-anchor="start" x="542.4053" y="-170.6932" font-family="Helvetica,sans-Serif" font-size="11.00" fill="#000000">3 &gt;</text>
</a>
</g>
</g>
<!-- StudentCompetencyEvaluations&#45;&gt;Students -->
<g id="edge33" class="edge">
<title>StudentCompetencyEvaluations:w&#45;&gt;Students:e</title>
<path fill="none" stroke="#000000" d="M989.3612,-176.6247C980.6191,-182.5875 976.7493,-193.4939 962,-197.5932 790.2734,-245.3224 739.2361,-192.5932 561,-192.5932"/>
<polygon fill="#000000" stroke="#000000" points="995.8066,-174.7869 1004.4872,-176.0552 999.6533,-173.6901 1003.5,-172.5932 1003.5,-172.5932 1003.5,-172.5932 999.6533,-173.6901 1002.5128,-169.1312 995.8066,-174.7869 995.8066,-174.7869"/>
<ellipse fill="none" stroke="#000000" cx="992.7293" cy="-175.6644" rx="3.2" ry="3.2"/>
</g>
<!-- Students&#45;&gt;AspNetUsers -->
<g id="edge41" class="edge">
<title>Students:w&#45;&gt;AspNetUsers:e</title>
<path fill="none" stroke="#000000" d="M460.5975,-192.5253C329.3975,-190.8193 270.025,-158.2706 163,-240.5932 102.4968,-287.1317 78.5933,-378.9048 69.7565,-428.9887"/>
<polygon fill="#000000" stroke="#000000" points="470.2262,-188.5881 470.1738,-196.5879 468.5739,-196.5774 468.6262,-188.5776 470.2262,-188.5881"/>
<polyline fill="none" stroke="#000000" points="471,-192.5932 467.0001,-192.5671 "/>
<ellipse fill="none" stroke="#000000" cx="463.8002" cy="-192.5461" rx="3.2" ry="3.2"/>
</g>
<!-- Students&#45;&gt;TechnicalCareers -->
<g id="edge40" class="edge">
<title>Students:w&#45;&gt;TechnicalCareers:e</title>
<path fill="none" stroke="#000000" d="M456.4502,-193.2729C406.8605,-198.1864 391.816,-229.4192 361,-276.5932 314.2208,-348.204 401.0359,-463.5932 315.5,-463.5932"/>
<polygon fill="#000000" stroke="#000000" points="463.0087,-192.9666 471.168,-196.1893 467.0044,-192.7799 471,-192.5932 471,-192.5932 471,-192.5932 467.0044,-192.7799 470.832,-188.9971 463.0087,-192.9666 463.0087,-192.9666"/>
<ellipse fill="none" stroke="#000000" cx="459.8122" cy="-193.116" rx="3.2" ry="3.2"/>
</g>
<!-- StudentEvaluationReport -->
<g id="node19" class="node">
<title>StudentEvaluationReport</title>
<g id="a_node19"><a xlink:href="../../tables/StudentEvaluationReport.html" xlink:title="StudentEvaluationReport" target="_top">
<polygon fill="#ffffff" stroke="transparent" points="741.5,-236.0932 741.5,-297.0932 924.5,-297.0932 924.5,-236.0932 741.5,-236.0932"/>
<polygon fill="#f5f5f5" stroke="transparent" points="742,-273.5932 742,-296.5932 925,-296.5932 925,-273.5932 742,-273.5932"/>
<polygon fill="none" stroke="#000000" points="742,-273.5932 742,-296.5932 925,-296.5932 925,-273.5932 742,-273.5932"/>
<text text-anchor="start" x="747" y="-282.1932" font-family="Helvetica,sans-Serif" font-weight="bold" font-size="11.00" fill="#000000">StudentEvaluationReport</text>
<text text-anchor="start" x="890.5219" y="-281.6932" font-family="Helvetica,sans-Serif" font-size="11.00" fill="#000000">[table]</text>
<polygon fill="none" stroke="#000000" points="742,-254.5932 742,-273.5932 925,-273.5932 925,-254.5932 742,-254.5932"/>
<text text-anchor="start" x="745" y="-260.6932" font-family="Helvetica,sans-Serif" font-size="11.00" fill="#000000">...</text>
<polygon fill="#ffffff" stroke="transparent" points="742,-235.5932 742,-254.5932 819,-254.5932 819,-235.5932 742,-235.5932"/>
<polygon fill="none" stroke="#000000" points="742,-235.5932 742,-254.5932 819,-254.5932 819,-235.5932 742,-235.5932"/>
<text text-anchor="start" x="745" y="-241.6932" font-family="Helvetica,sans-Serif" font-size="11.00" fill="#000000">&lt; 4</text>
<polygon fill="#ffffff" stroke="transparent" points="819,-235.5932 819,-254.5932 885,-254.5932 885,-235.5932 819,-235.5932"/>
<polygon fill="none" stroke="#000000" points="819,-235.5932 819,-254.5932 885,-254.5932 885,-235.5932 819,-235.5932"/>
<text text-anchor="start" x="849.6105" y="-241.6932" font-family="Helvetica,sans-Serif" font-size="11.00" fill="#000000">0 rows</text>
<polygon fill="#ffffff" stroke="transparent" points="885,-235.5932 885,-254.5932 925,-254.5932 925,-235.5932 885,-235.5932"/>
<polygon fill="none" stroke="#000000" points="885,-235.5932 885,-254.5932 925,-254.5932 925,-235.5932 885,-235.5932"/>
<text text-anchor="start" x="915.8862" y="-241.6932" font-family="Helvetica,sans-Serif" font-size="11.00" fill="#000000"> &#160;</text>
</a>
</g>
</g>
<!-- StudentEvaluationReport&#45;&gt;AspNetUsers -->
<g id="edge36" class="edge">
<title>StudentEvaluationReport:w&#45;&gt;AspNetUsers:e</title>
<path fill="none" stroke="#000000" d="M727.6119,-262.9006C589.1098,-256.061 266.7484,-236.6459 163,-305.5932 118.6754,-335.0497 90.0841,-392.1345 75.8233,-429.0898"/>
<polygon fill="#000000" stroke="#000000" points="734.0093,-263.2085 741.8269,-267.1891 738.0046,-263.4008 742,-263.5932 742,-263.5932 742,-263.5932 738.0046,-263.4008 742.1731,-259.9974 734.0093,-263.2085 734.0093,-263.2085"/>
<ellipse fill="none" stroke="#000000" cx="730.813" cy="-263.0546" rx="3.2" ry="3.2"/>
</g>
<!-- StudentEvaluationReport&#45;&gt;AspNetUsers -->
<g id="edge39" class="edge">
<title>StudentEvaluationReport:w&#45;&gt;AspNetUsers:e</title>
<path fill="none" stroke="#000000" d="M727.6119,-264.224C589.1098,-269.061 266.7484,-249.6459 163,-318.5932 122.5979,-345.443 95.2678,-395.2474 79.947,-428.9812"/>
<polygon fill="#000000" stroke="#000000" points="734.0077,-263.9437 742.1577,-267.1898 738.0038,-263.7684 742,-263.5932 742,-263.5932 742,-263.5932 738.0038,-263.7684 741.8423,-259.9967 734.0077,-263.9437 734.0077,-263.9437"/>
<ellipse fill="none" stroke="#000000" cx="730.8107" cy="-264.0838" rx="3.2" ry="3.2"/>
</g>
<!-- StudentEvaluationReport&#45;&gt;EvaluationPeriods -->
<g id="edge37" class="edge">
<title>StudentEvaluationReport:w&#45;&gt;EvaluationPeriods:e</title>
<path fill="none" stroke="#000000" d="M727.298,-264.3537C668.1582,-270.698 654.8897,-314.5932 588,-314.5932"/>
<polygon fill="#000000" stroke="#000000" points="734.0107,-264.0066 742.186,-267.1884 738.0053,-263.7999 742,-263.5932 742,-263.5932 742,-263.5932 738.0053,-263.7999 741.814,-259.998 734.0107,-264.0066 734.0107,-264.0066"/>
<ellipse fill="none" stroke="#000000" cx="730.815" cy="-264.1719" rx="3.2" ry="3.2"/>
</g>
<!-- StudentEvaluationReport&#45;&gt;Students -->
<g id="edge38" class="edge">
<title>StudentEvaluationReport:w&#45;&gt;Students:e</title>
<path fill="none" stroke="#000000" d="M727.6609,-261.6202C680.4601,-250.1532 599.9024,-192.5932 561,-192.5932"/>
<polygon fill="#000000" stroke="#000000" points="734.0747,-262.5027 741.5092,-267.1596 738.0373,-263.0479 742,-263.5932 742,-263.5932 742,-263.5932 738.0373,-263.0479 742.4908,-260.0268 734.0747,-262.5027 734.0747,-262.5027"/>
<ellipse fill="none" stroke="#000000" cx="730.9045" cy="-262.0664" rx="3.2" ry="3.2"/>
</g>
<!-- StudentSubjects -->
<g id="node20" class="node">
<title>StudentSubjects</title>
<g id="a_node20"><a xlink:href="../../tables/StudentSubjects.html" xlink:title="StudentSubjects" target="_top">
<polygon fill="#ffffff" stroke="transparent" points="766.5,-126.0932 766.5,-187.0932 899.5,-187.0932 899.5,-126.0932 766.5,-126.0932"/>
<polygon fill="#f5f5f5" stroke="transparent" points="767,-163.5932 767,-186.5932 900,-186.5932 900,-163.5932 767,-163.5932"/>
<polygon fill="none" stroke="#000000" points="767,-163.5932 767,-186.5932 900,-186.5932 900,-163.5932 767,-163.5932"/>
<text text-anchor="start" x="772" y="-172.1932" font-family="Helvetica,sans-Serif" font-weight="bold" font-size="11.00" fill="#000000">StudentSubjects</text>
<text text-anchor="start" x="865.5219" y="-171.6932" font-family="Helvetica,sans-Serif" font-size="11.00" fill="#000000">[table]</text>
<polygon fill="none" stroke="#000000" points="767,-144.5932 767,-163.5932 900,-163.5932 900,-144.5932 767,-144.5932"/>
<text text-anchor="start" x="770" y="-150.6932" font-family="Helvetica,sans-Serif" font-size="11.00" fill="#000000">...</text>
<polygon fill="#ffffff" stroke="transparent" points="767,-125.5932 767,-144.5932 819,-144.5932 819,-125.5932 767,-125.5932"/>
<polygon fill="none" stroke="#000000" points="767,-125.5932 767,-144.5932 819,-144.5932 819,-125.5932 767,-125.5932"/>
<text text-anchor="start" x="770" y="-131.6932" font-family="Helvetica,sans-Serif" font-size="11.00" fill="#000000">&lt; 4</text>
<polygon fill="#ffffff" stroke="transparent" points="819,-125.5932 819,-144.5932 872,-144.5932 872,-125.5932 819,-125.5932"/>
<polygon fill="none" stroke="#000000" points="819,-125.5932 819,-144.5932 872,-144.5932 872,-125.5932 819,-125.5932"/>
<text text-anchor="start" x="836.6105" y="-131.6932" font-family="Helvetica,sans-Serif" font-size="11.00" fill="#000000">0 rows</text>
<polygon fill="#ffffff" stroke="transparent" points="872,-125.5932 872,-144.5932 900,-144.5932 900,-125.5932 872,-125.5932"/>
<polygon fill="none" stroke="#000000" points="872,-125.5932 872,-144.5932 900,-144.5932 900,-125.5932 872,-125.5932"/>
<text text-anchor="start" x="890.8862" y="-131.6932" font-family="Helvetica,sans-Serif" font-size="11.00" fill="#000000"> &#160;</text>
</a>
</g>
</g>
<!-- StudentSubjects&#45;&gt;AspNetUsers -->
<g id="edge42" class="edge">
<title>StudentSubjects:w&#45;&gt;AspNetUsers:e</title>
<path fill="none" stroke="#000000" d="M752.4297,-152.8093C607.9232,-143.9091 263.2721,-94.1956 163,-176.5932 123.4314,-209.1083 86.3755,-359.7836 71.6705,-428.896"/>
<polygon fill="#000000" stroke="#000000" points="759.0116,-153.1634 766.8066,-157.188 763.0058,-153.3783 767,-153.5932 767,-153.5932 767,-153.5932 763.0058,-153.3783 767.1934,-149.9984 759.0116,-153.1634 759.0116,-153.1634"/>
<ellipse fill="none" stroke="#000000" cx="755.8162" cy="-152.9914" rx="3.2" ry="3.2"/>
</g>
<!-- StudentSubjects&#45;&gt;AspNetUsers -->
<g id="edge45" class="edge">
<title>StudentSubjects:w&#45;&gt;AspNetUsers:e</title>
<path fill="none" stroke="#000000" d="M752.4297,-154.0973C607.9232,-156.9091 263.2721,-107.1956 163,-189.5932 124.8285,-220.9603 88.9954,-362.2906 73.3109,-428.8585"/>
<polygon fill="#000000" stroke="#000000" points="759.0048,-153.8699 767.1245,-157.1911 763.0024,-153.7315 767,-153.5932 767,-153.5932 767,-153.5932 763.0024,-153.7315 766.8755,-149.9954 759.0048,-153.8699 759.0048,-153.8699"/>
<ellipse fill="none" stroke="#000000" cx="755.8067" cy="-153.9805" rx="3.2" ry="3.2"/>
</g>
<!-- StudentSubjects&#45;&gt;Subjects -->
<g id="edge44" class="edge">
<title>StudentSubjects:w&#45;&gt;Subjects:e</title>
<path fill="none" stroke="#000000" d="M752.4112,-155.1909C723.4665,-162.2547 719.2304,-191.83 704,-225.5932 657.0094,-329.7635 733.583,-384.9746 671,-480.5932 639.7772,-528.2976 618.0138,-546.5932 561,-546.5932"/>
<polygon fill="#000000" stroke="#000000" points="759.0475,-154.4642 767.3919,-157.1718 763.0238,-154.0287 767,-153.5932 767,-153.5932 767,-153.5932 763.0238,-154.0287 766.6081,-150.0146 759.0475,-154.4642 759.0475,-154.4642"/>
<ellipse fill="none" stroke="#000000" cx="755.8666" cy="-154.8125" rx="3.2" ry="3.2"/>
</g>
<!-- StudentSubjects&#45;&gt;Students -->
<g id="edge43" class="edge">
<title>StudentSubjects:w&#45;&gt;Students:e</title>
<path fill="none" stroke="#000000" d="M752.5991,-153.9187C671.4966,-157.6702 649.177,-192.5932 561,-192.5932"/>
<polygon fill="#000000" stroke="#000000" points="759.002,-153.774 767.0814,-157.1923 763.001,-153.6836 767,-153.5932 767,-153.5932 767,-153.5932 763.001,-153.6836 766.9186,-149.9941 759.002,-153.774 759.002,-153.774"/>
<ellipse fill="none" stroke="#000000" cx="755.8029" cy="-153.8463" rx="3.2" ry="3.2"/>
</g>
</g>
</svg>
