<?xml version="1.0" encoding="UTF-8" standalone="no"?>
<!DOCTYPE svg PUBLIC "-//W3C//DTD SVG 1.1//EN"
 "http://www.w3.org/Graphics/SVG/1.1/DTD/svg11.dtd">
<!-- Generated by graphviz version 2.40.1 (20161225.0304)
 -->
<!-- Title: oneDegreeRelationshipsDiagram Pages: 1 -->
<svg width="496pt" height="325pt"
 viewBox="0.00 0.00 496.00 325.20" xmlns="http://www.w3.org/2000/svg" xmlns:xlink="http://www.w3.org/1999/xlink">
<g id="graph0" class="graph" transform="scale(1 1) rotate(0) translate(4 321.2)">
<title>oneDegreeRelationshipsDiagram</title>
<polygon fill="#ffffff" stroke="transparent" points="-4,4 -4,-321.2 492,-321.2 492,4 -4,4"/>
<text text-anchor="middle" x="72.4936" y="-7.3" font-family="Helvetica,sans-Serif" font-size="11.00" fill="#000000">Generated by SchemaSpy</text>
<!-- CompetencyTechnicalCareer -->
<g id="node1" class="node">
<title>CompetencyTechnicalCareer</title>
<g id="a_node1"><a xlink:href="../../tables/CompetencyTechnicalCareer.html" xlink:title="CompetencyTechnicalCareer" target="_top">
<polygon fill="#ffffff" stroke="transparent" points="196,-161.7 196,-251.7 480,-251.7 480,-161.7 196,-161.7"/>
<polygon fill="#f5f5f5" stroke="transparent" points="198,-226.7 198,-249.7 478,-249.7 478,-226.7 198,-226.7"/>
<polygon fill="none" stroke="#000000" points="198,-226.7 198,-249.7 478,-249.7 478,-226.7 198,-226.7"/>
<text text-anchor="start" x="203" y="-235.3" font-family="Helvetica,sans-Serif" font-weight="bold" font-size="11.00" fill="#000000">CompetencyTechnicalCareer</text>
<text text-anchor="start" x="443.0437" y="-234.8" font-family="Helvetica,sans-Serif" font-size="11.00" fill="#000000">[table]</text>
<polygon fill="none" stroke="#000000" points="198,-204.7 198,-226.7 384,-226.7 384,-204.7 198,-204.7"/>
<image xlink:href="../../images/primaryKeys.png" width="11px" height="12px" preserveAspectRatio="xMinYMin meet" x="203" y="-221.7"/>
<text text-anchor="start" x="218" y="-211.8" font-family="Helvetica,sans-Serif" font-size="11.00" fill="#000000">CompetenciesId</text>
<polygon fill="none" stroke="#000000" points="384,-204.7 384,-226.7 478,-226.7 478,-204.7 384,-204.7"/>
<text text-anchor="start" x="386.9758" y="-212.4" font-family="Helvetica,sans-Serif" font-size="11.00" fill="#000000">uuid[2147483647]</text>
<polygon fill="none" stroke="#000000" points="198,-182.7 198,-204.7 384,-204.7 384,-182.7 198,-182.7"/>
<image xlink:href="../../images/primaryKeys.png" width="11px" height="12px" preserveAspectRatio="xMinYMin meet" x="203" y="-199.7"/>
<text text-anchor="start" x="218" y="-189.8" font-family="Helvetica,sans-Serif" font-size="11.00" fill="#000000">TechnicalCareersId</text>
<polygon fill="none" stroke="#000000" points="384,-182.7 384,-204.7 478,-204.7 478,-182.7 384,-182.7"/>
<text text-anchor="start" x="386.9758" y="-190.4" font-family="Helvetica,sans-Serif" font-size="11.00" fill="#000000">uuid[2147483647]</text>
<polygon fill="#ffffff" stroke="transparent" points="198,-163.7 198,-182.7 282,-182.7 282,-163.7 198,-163.7"/>
<polygon fill="none" stroke="#000000" points="198,-163.7 198,-182.7 282,-182.7 282,-163.7 198,-163.7"/>
<text text-anchor="start" x="201" y="-169.8" font-family="Helvetica,sans-Serif" font-size="11.00" fill="#000000">&lt; 2</text>
<polygon fill="#ffffff" stroke="transparent" points="282,-163.7 282,-182.7 384,-182.7 384,-163.7 282,-163.7"/>
<polygon fill="none" stroke="#000000" points="282,-163.7 282,-182.7 384,-182.7 384,-163.7 282,-163.7"/>
<text text-anchor="start" x="348.6105" y="-169.8" font-family="Helvetica,sans-Serif" font-size="11.00" fill="#000000">0 rows</text>
<polygon fill="#ffffff" stroke="transparent" points="384,-163.7 384,-182.7 478,-182.7 478,-163.7 384,-163.7"/>
<polygon fill="none" stroke="#000000" points="384,-163.7 384,-182.7 478,-182.7 478,-163.7 384,-163.7"/>
<text text-anchor="start" x="459.4053" y="-169.8" font-family="Helvetica,sans-Serif" font-size="11.00" fill="#000000">0 &gt;</text>
<polygon fill="none" stroke="#000000" stroke-width="2" points="197,-162.7 197,-250.7 479,-250.7 479,-162.7 197,-162.7"/>
</a>
</g>
</g>
<!-- Competencies -->
<g id="node2" class="node">
<title>Competencies</title>
<g id="a_node2"><a xlink:href="../../tables/Competencies.html" xlink:title="Competencies" target="_top">
<polygon fill="#ffffff" stroke="transparent" points="17,-186.2 17,-313.2 138,-313.2 138,-186.2 17,-186.2"/>
<polygon fill="#f5f5f5" stroke="transparent" points="17.5,-289.7 17.5,-312.7 138.5,-312.7 138.5,-289.7 17.5,-289.7"/>
<polygon fill="none" stroke="#000000" points="17.5,-289.7 17.5,-312.7 138.5,-312.7 138.5,-289.7 17.5,-289.7"/>
<text text-anchor="start" x="22.5" y="-298.3" font-family="Helvetica,sans-Serif" font-weight="bold" font-size="11.00" fill="#000000">Competencies</text>
<text text-anchor="start" x="104.0219" y="-297.8" font-family="Helvetica,sans-Serif" font-size="11.00" fill="#000000">[table]</text>
<polygon fill="none" stroke="#000000" points="17.5,-267.7 17.5,-289.7 138.5,-289.7 138.5,-267.7 17.5,-267.7"/>
<image xlink:href="../../images/primaryKeys.png" width="11px" height="12px" preserveAspectRatio="xMinYMin meet" x="22.5" y="-284.7"/>
<text text-anchor="start" x="37.5" y="-274.8" font-family="Helvetica,sans-Serif" font-size="11.00" fill="#000000">Id</text>
<polygon fill="#ffffff" stroke="transparent" points="17.5,-245.7 17.5,-267.7 138.5,-267.7 138.5,-245.7 17.5,-245.7"/>
<polygon fill="none" stroke="#000000" points="17.5,-245.7 17.5,-267.7 138.5,-267.7 138.5,-245.7 17.5,-245.7"/>
<image xlink:href="../../images/foreignKeys.png" width="11px" height="12px" preserveAspectRatio="xMinYMin meet" x="22.5" y="-262.7"/>
<text text-anchor="start" x="37.5" y="-252.8" font-family="Helvetica,sans-Serif" font-size="11.00" fill="#000000">CreatedByUserId</text>
<polygon fill="#ffffff" stroke="transparent" points="17.5,-223.7 17.5,-245.7 138.5,-245.7 138.5,-223.7 17.5,-223.7"/>
<polygon fill="none" stroke="#000000" points="17.5,-223.7 17.5,-245.7 138.5,-245.7 138.5,-223.7 17.5,-223.7"/>
<image xlink:href="../../images/foreignKeys.png" width="11px" height="12px" preserveAspectRatio="xMinYMin meet" x="22.5" y="-240.7"/>
<text text-anchor="start" x="37.5" y="-230.8" font-family="Helvetica,sans-Serif" font-size="11.00" fill="#000000">UpdatedByUserId</text>
<polygon fill="none" stroke="#000000" points="17.5,-204.7 17.5,-223.7 138.5,-223.7 138.5,-204.7 17.5,-204.7"/>
<text text-anchor="start" x="20.5" y="-210.8" font-family="Helvetica,sans-Serif" font-size="11.00" fill="#000000">...</text>
<polygon fill="#ffffff" stroke="transparent" points="17.5,-185.7 17.5,-204.7 58.5,-204.7 58.5,-185.7 17.5,-185.7"/>
<polygon fill="none" stroke="#000000" points="17.5,-185.7 17.5,-204.7 58.5,-204.7 58.5,-185.7 17.5,-185.7"/>
<text text-anchor="start" x="20.5" y="-191.8" font-family="Helvetica,sans-Serif" font-size="11.00" fill="#000000">&lt; 2</text>
<polygon fill="#ffffff" stroke="transparent" points="58.5,-185.7 58.5,-204.7 106.5,-204.7 106.5,-185.7 58.5,-185.7"/>
<polygon fill="none" stroke="#000000" points="58.5,-185.7 58.5,-204.7 106.5,-204.7 106.5,-185.7 58.5,-185.7"/>
<text text-anchor="start" x="71.1105" y="-191.8" font-family="Helvetica,sans-Serif" font-size="11.00" fill="#000000">0 rows</text>
<polygon fill="#ffffff" stroke="transparent" points="106.5,-185.7 106.5,-204.7 138.5,-204.7 138.5,-185.7 106.5,-185.7"/>
<polygon fill="none" stroke="#000000" points="106.5,-185.7 106.5,-204.7 138.5,-204.7 138.5,-185.7 106.5,-185.7"/>
<text text-anchor="start" x="119.9053" y="-191.8" font-family="Helvetica,sans-Serif" font-size="11.00" fill="#000000">4 &gt;</text>
</a>
</g>
</g>
<!-- CompetencyTechnicalCareer&#45;&gt;Competencies -->
<g id="edge1" class="edge">
<title>CompetencyTechnicalCareer:w&#45;&gt;Competencies:e</title>
<path fill="none" stroke="#000000" d="M183.9036,-219.6409C163.526,-233.4332 171.1464,-278.7 138.5,-278.7"/>
<polygon fill="#000000" stroke="#000000" points="190.2954,-217.854 198.9693,-219.1671 194.1477,-216.777 198,-215.7 198,-215.7 198,-215.7 194.1477,-216.777 197.0307,-212.2329 190.2954,-217.854 190.2954,-217.854"/>
<ellipse fill="none" stroke="#000000" cx="187.2136" cy="-218.7156" rx="3.2" ry="3.2"/>
</g>
<!-- TechnicalCareers -->
<g id="node3" class="node">
<title>TechnicalCareers</title>
<g id="a_node3"><a xlink:href="../../tables/TechnicalCareers.html" xlink:title="TechnicalCareers" target="_top">
<polygon fill="#ffffff" stroke="transparent" points="8,-38.2 8,-165.2 147,-165.2 147,-38.2 8,-38.2"/>
<polygon fill="#f5f5f5" stroke="transparent" points="8.5,-141.7 8.5,-164.7 147.5,-164.7 147.5,-141.7 8.5,-141.7"/>
<polygon fill="none" stroke="#000000" points="8.5,-141.7 8.5,-164.7 147.5,-164.7 147.5,-141.7 8.5,-141.7"/>
<text text-anchor="start" x="13.5" y="-150.3" font-family="Helvetica,sans-Serif" font-weight="bold" font-size="11.00" fill="#000000">TechnicalCareers</text>
<text text-anchor="start" x="113.0219" y="-149.8" font-family="Helvetica,sans-Serif" font-size="11.00" fill="#000000">[table]</text>
<polygon fill="none" stroke="#000000" points="8.5,-119.7 8.5,-141.7 147.5,-141.7 147.5,-119.7 8.5,-119.7"/>
<image xlink:href="../../images/primaryKeys.png" width="11px" height="12px" preserveAspectRatio="xMinYMin meet" x="13.5" y="-136.7"/>
<text text-anchor="start" x="37.5" y="-126.8" font-family="Helvetica,sans-Serif" font-size="11.00" fill="#000000">Id</text>
<polygon fill="#ffffff" stroke="transparent" points="8.5,-97.7 8.5,-119.7 147.5,-119.7 147.5,-97.7 8.5,-97.7"/>
<polygon fill="none" stroke="#000000" points="8.5,-97.7 8.5,-119.7 147.5,-119.7 147.5,-97.7 8.5,-97.7"/>
<image xlink:href="../../images/foreignKeys.png" width="11px" height="12px" preserveAspectRatio="xMinYMin meet" x="13.5" y="-114.7"/>
<text text-anchor="start" x="37.5" y="-104.8" font-family="Helvetica,sans-Serif" font-size="11.00" fill="#000000">CreatedByUserId</text>
<polygon fill="#ffffff" stroke="transparent" points="8.5,-75.7 8.5,-97.7 147.5,-97.7 147.5,-75.7 8.5,-75.7"/>
<polygon fill="none" stroke="#000000" points="8.5,-75.7 8.5,-97.7 147.5,-97.7 147.5,-75.7 8.5,-75.7"/>
<image xlink:href="../../images/foreignKeys.png" width="11px" height="12px" preserveAspectRatio="xMinYMin meet" x="13.5" y="-92.7"/>
<text text-anchor="start" x="37.5" y="-82.8" font-family="Helvetica,sans-Serif" font-size="11.00" fill="#000000">UpdatedByUserId</text>
<polygon fill="none" stroke="#000000" points="8.5,-56.7 8.5,-75.7 147.5,-75.7 147.5,-56.7 8.5,-56.7"/>
<text text-anchor="start" x="11.5" y="-62.8" font-family="Helvetica,sans-Serif" font-size="11.00" fill="#000000">...</text>
<polygon fill="#ffffff" stroke="transparent" points="8.5,-37.7 8.5,-56.7 58.5,-56.7 58.5,-37.7 8.5,-37.7"/>
<polygon fill="none" stroke="#000000" points="8.5,-37.7 8.5,-56.7 58.5,-56.7 58.5,-37.7 8.5,-37.7"/>
<text text-anchor="start" x="11.5" y="-43.8" font-family="Helvetica,sans-Serif" font-size="11.00" fill="#000000">&lt; 2</text>
<polygon fill="#ffffff" stroke="transparent" points="58.5,-37.7 58.5,-56.7 111.5,-56.7 111.5,-37.7 58.5,-37.7"/>
<polygon fill="none" stroke="#000000" points="58.5,-37.7 58.5,-56.7 111.5,-56.7 111.5,-37.7 58.5,-37.7"/>
<text text-anchor="start" x="76.1105" y="-43.8" font-family="Helvetica,sans-Serif" font-size="11.00" fill="#000000">0 rows</text>
<polygon fill="#ffffff" stroke="transparent" points="111.5,-37.7 111.5,-56.7 147.5,-56.7 147.5,-37.7 111.5,-37.7"/>
<polygon fill="none" stroke="#000000" points="111.5,-37.7 111.5,-56.7 147.5,-56.7 147.5,-37.7 111.5,-37.7"/>
<text text-anchor="start" x="128.9053" y="-43.8" font-family="Helvetica,sans-Serif" font-size="11.00" fill="#000000">6 &gt;</text>
</a>
</g>
</g>
<!-- CompetencyTechnicalCareer&#45;&gt;TechnicalCareers -->
<g id="edge2" class="edge">
<title>CompetencyTechnicalCareer:w&#45;&gt;TechnicalCareers:e</title>
<path fill="none" stroke="#000000" d="M183.9816,-188.7565C167.738,-173.9048 177.2175,-130.7 147.5,-130.7"/>
<polygon fill="#000000" stroke="#000000" points="190.4554,-191.0394 196.8027,-197.0951 194.2277,-192.3697 198,-193.7 198,-193.7 198,-193.7 194.2277,-192.3697 199.1973,-190.3049 190.4554,-191.0394 190.4554,-191.0394"/>
<ellipse fill="none" stroke="#000000" cx="187.4375" cy="-189.9752" rx="3.2" ry="3.2"/>
</g>
</g>
</svg>
