<?xml version="1.0" encoding="UTF-8" standalone="no"?>
<!DOCTYPE svg PUBLIC "-//W3C//DTD SVG 1.1//EN"
 "http://www.w3.org/Graphics/SVG/1.1/DTD/svg11.dtd">
<!-- Generated by graphviz version 2.40.1 (20161225.0304)
 -->
<!-- Title: twoDegreesRelationshipsDiagram Pages: 1 -->
<svg width="1155pt" height="1100pt"
 viewBox="0.00 0.00 1155.00 1100.16" xmlns="http://www.w3.org/2000/svg" xmlns:xlink="http://www.w3.org/1999/xlink">
<g id="graph0" class="graph" transform="scale(1 1) rotate(0) translate(4 1096.1638)">
<title>twoDegreesRelationshipsDiagram</title>
<polygon fill="#ffffff" stroke="transparent" points="-4,4 -4,-1096.1638 1151,-1096.1638 1151,4 -4,4"/>
<text text-anchor="middle" x="72.4936" y="-7.3" font-family="Helvetica,sans-Serif" font-size="11.00" fill="#000000">Generated by SchemaSpy</text>
<!-- AspNetUserClaims -->
<g id="node1" class="node">
<title>AspNetUserClaims</title>
<g id="a_node1"><a xlink:href="../../tables/AspNetUserClaims.html" xlink:title="AspNetUserClaims" target="_top">
<polygon fill="#ffffff" stroke="transparent" points="172,-1027.1638 172,-1088.1638 319,-1088.1638 319,-1027.1638 172,-1027.1638"/>
<polygon fill="#f5f5f5" stroke="transparent" points="172.5,-1064.6638 172.5,-1087.6638 319.5,-1087.6638 319.5,-1064.6638 172.5,-1064.6638"/>
<polygon fill="none" stroke="#000000" points="172.5,-1064.6638 172.5,-1087.6638 319.5,-1087.6638 319.5,-1064.6638 172.5,-1064.6638"/>
<text text-anchor="start" x="177.5" y="-1073.2638" font-family="Helvetica,sans-Serif" font-weight="bold" font-size="11.00" fill="#000000">AspNetUserClaims</text>
<text text-anchor="start" x="285.0219" y="-1072.7638" font-family="Helvetica,sans-Serif" font-size="11.00" fill="#000000">[table]</text>
<polygon fill="none" stroke="#000000" points="172.5,-1045.6638 172.5,-1064.6638 319.5,-1064.6638 319.5,-1045.6638 172.5,-1045.6638"/>
<text text-anchor="start" x="175.5" y="-1051.7638" font-family="Helvetica,sans-Serif" font-size="11.00" fill="#000000">...</text>
<polygon fill="#ffffff" stroke="transparent" points="172.5,-1026.6638 172.5,-1045.6638 231.5,-1045.6638 231.5,-1026.6638 172.5,-1026.6638"/>
<polygon fill="none" stroke="#000000" points="172.5,-1026.6638 172.5,-1045.6638 231.5,-1045.6638 231.5,-1026.6638 172.5,-1026.6638"/>
<text text-anchor="start" x="175.5" y="-1032.7638" font-family="Helvetica,sans-Serif" font-size="11.00" fill="#000000">&lt; 1</text>
<polygon fill="#ffffff" stroke="transparent" points="231.5,-1026.6638 231.5,-1045.6638 288.5,-1045.6638 288.5,-1026.6638 231.5,-1026.6638"/>
<polygon fill="none" stroke="#000000" points="231.5,-1026.6638 231.5,-1045.6638 288.5,-1045.6638 288.5,-1026.6638 231.5,-1026.6638"/>
<text text-anchor="start" x="253.1105" y="-1032.7638" font-family="Helvetica,sans-Serif" font-size="11.00" fill="#000000">0 rows</text>
<polygon fill="#ffffff" stroke="transparent" points="288.5,-1026.6638 288.5,-1045.6638 319.5,-1045.6638 319.5,-1026.6638 288.5,-1026.6638"/>
<polygon fill="none" stroke="#000000" points="288.5,-1026.6638 288.5,-1045.6638 319.5,-1045.6638 319.5,-1026.6638 288.5,-1026.6638"/>
<text text-anchor="start" x="310.3862" y="-1032.7638" font-family="Helvetica,sans-Serif" font-size="11.00" fill="#000000"> &#160;</text>
</a>
</g>
</g>
<!-- AspNetUsers -->
<g id="node2" class="node">
<title>AspNetUsers</title>
<g id="a_node2"><a xlink:href="../../tables/AspNetUsers.html" xlink:title="AspNetUsers" target="_top">
<polygon fill="#ffffff" stroke="transparent" points="8,-429.1638 8,-490.1638 122,-490.1638 122,-429.1638 8,-429.1638"/>
<polygon fill="#f5f5f5" stroke="transparent" points="8,-466.6638 8,-489.6638 122,-489.6638 122,-466.6638 8,-466.6638"/>
<polygon fill="none" stroke="#000000" points="8,-466.6638 8,-489.6638 122,-489.6638 122,-466.6638 8,-466.6638"/>
<text text-anchor="start" x="13" y="-475.2638" font-family="Helvetica,sans-Serif" font-weight="bold" font-size="11.00" fill="#000000">AspNetUsers</text>
<text text-anchor="start" x="87.5219" y="-474.7638" font-family="Helvetica,sans-Serif" font-size="11.00" fill="#000000">[table]</text>
<polygon fill="none" stroke="#000000" points="8,-447.6638 8,-466.6638 122,-466.6638 122,-447.6638 8,-447.6638"/>
<text text-anchor="start" x="11" y="-453.7638" font-family="Helvetica,sans-Serif" font-size="11.00" fill="#000000">...</text>
<polygon fill="#ffffff" stroke="transparent" points="8,-428.6638 8,-447.6638 38,-447.6638 38,-428.6638 8,-428.6638"/>
<polygon fill="none" stroke="#000000" points="8,-428.6638 8,-447.6638 38,-447.6638 38,-428.6638 8,-428.6638"/>
<text text-anchor="start" x="11" y="-434.7638" font-family="Helvetica,sans-Serif" font-size="11.00" fill="#000000"> &#160;</text>
<polygon fill="#ffffff" stroke="transparent" points="38,-428.6638 38,-447.6638 85,-447.6638 85,-428.6638 38,-428.6638"/>
<polygon fill="none" stroke="#000000" points="38,-428.6638 38,-447.6638 85,-447.6638 85,-428.6638 38,-428.6638"/>
<text text-anchor="start" x="49.6105" y="-434.7638" font-family="Helvetica,sans-Serif" font-size="11.00" fill="#000000">0 rows</text>
<polygon fill="#ffffff" stroke="transparent" points="85,-428.6638 85,-447.6638 122,-447.6638 122,-428.6638 85,-428.6638"/>
<polygon fill="none" stroke="#000000" points="85,-428.6638 85,-447.6638 122,-447.6638 122,-428.6638 85,-428.6638"/>
<text text-anchor="start" x="97.2904" y="-434.7638" font-family="Helvetica,sans-Serif" font-size="11.00" fill="#000000">29 &gt;</text>
</a>
</g>
</g>
<!-- AspNetUserClaims&#45;&gt;AspNetUsers -->
<g id="edge1" class="edge">
<title>AspNetUserClaims:w&#45;&gt;AspNetUsers:e</title>
<path fill="none" stroke="#000000" d="M159.7411,-1047.446C109.5675,-990.4084 76.6393,-611.54 67.5531,-494.2253"/>
<polygon fill="#000000" stroke="#000000" points="165.537,-1050.7247 170.7274,-1057.7972 169.0185,-1052.6943 172.5,-1054.6638 172.5,-1054.6638 172.5,-1054.6638 169.0185,-1052.6943 174.2726,-1051.5304 165.537,-1050.7247 165.537,-1050.7247"/>
<ellipse fill="none" stroke="#000000" cx="162.7518" cy="-1049.1491" rx="3.2" ry="3.2"/>
</g>
<!-- AspNetUserLogins -->
<g id="node3" class="node">
<title>AspNetUserLogins</title>
<g id="a_node3"><a xlink:href="../../tables/AspNetUserLogins.html" xlink:title="AspNetUserLogins" target="_top">
<polygon fill="#ffffff" stroke="transparent" points="172,-945.1638 172,-1006.1638 319,-1006.1638 319,-945.1638 172,-945.1638"/>
<polygon fill="#f5f5f5" stroke="transparent" points="172.5,-982.6638 172.5,-1005.6638 319.5,-1005.6638 319.5,-982.6638 172.5,-982.6638"/>
<polygon fill="none" stroke="#000000" points="172.5,-982.6638 172.5,-1005.6638 319.5,-1005.6638 319.5,-982.6638 172.5,-982.6638"/>
<text text-anchor="start" x="177.5" y="-991.2638" font-family="Helvetica,sans-Serif" font-weight="bold" font-size="11.00" fill="#000000">AspNetUserLogins</text>
<text text-anchor="start" x="285.0219" y="-990.7638" font-family="Helvetica,sans-Serif" font-size="11.00" fill="#000000">[table]</text>
<polygon fill="none" stroke="#000000" points="172.5,-963.6638 172.5,-982.6638 319.5,-982.6638 319.5,-963.6638 172.5,-963.6638"/>
<text text-anchor="start" x="175.5" y="-969.7638" font-family="Helvetica,sans-Serif" font-size="11.00" fill="#000000">...</text>
<polygon fill="#ffffff" stroke="transparent" points="172.5,-944.6638 172.5,-963.6638 231.5,-963.6638 231.5,-944.6638 172.5,-944.6638"/>
<polygon fill="none" stroke="#000000" points="172.5,-944.6638 172.5,-963.6638 231.5,-963.6638 231.5,-944.6638 172.5,-944.6638"/>
<text text-anchor="start" x="175.5" y="-950.7638" font-family="Helvetica,sans-Serif" font-size="11.00" fill="#000000">&lt; 1</text>
<polygon fill="#ffffff" stroke="transparent" points="231.5,-944.6638 231.5,-963.6638 288.5,-963.6638 288.5,-944.6638 231.5,-944.6638"/>
<polygon fill="none" stroke="#000000" points="231.5,-944.6638 231.5,-963.6638 288.5,-963.6638 288.5,-944.6638 231.5,-944.6638"/>
<text text-anchor="start" x="253.1105" y="-950.7638" font-family="Helvetica,sans-Serif" font-size="11.00" fill="#000000">0 rows</text>
<polygon fill="#ffffff" stroke="transparent" points="288.5,-944.6638 288.5,-963.6638 319.5,-963.6638 319.5,-944.6638 288.5,-944.6638"/>
<polygon fill="none" stroke="#000000" points="288.5,-944.6638 288.5,-963.6638 319.5,-963.6638 319.5,-944.6638 288.5,-944.6638"/>
<text text-anchor="start" x="310.3862" y="-950.7638" font-family="Helvetica,sans-Serif" font-size="11.00" fill="#000000"> &#160;</text>
</a>
</g>
</g>
<!-- AspNetUserLogins&#45;&gt;AspNetUsers -->
<g id="edge2" class="edge">
<title>AspNetUserLogins:w&#45;&gt;AspNetUsers:e</title>
<path fill="none" stroke="#000000" d="M160.0313,-965.0154C116.4304,-912.1539 79.851,-600.0611 68.5821,-494.5211"/>
<polygon fill="#000000" stroke="#000000" points="165.6807,-968.4808 170.6176,-975.7325 169.0904,-970.5723 172.5,-972.6638 172.5,-972.6638 172.5,-972.6638 169.0904,-970.5723 174.3824,-969.5951 165.6807,-968.4808 165.6807,-968.4808"/>
<ellipse fill="none" stroke="#000000" cx="162.953" cy="-966.8076" rx="3.2" ry="3.2"/>
</g>
<!-- AspNetUserRoles -->
<g id="node4" class="node">
<title>AspNetUserRoles</title>
<g id="a_node4"><a xlink:href="../../tables/AspNetUserRoles.html" xlink:title="AspNetUserRoles" target="_top">
<polygon fill="#ffffff" stroke="transparent" points="175.5,-863.1638 175.5,-924.1638 315.5,-924.1638 315.5,-863.1638 175.5,-863.1638"/>
<polygon fill="#f5f5f5" stroke="transparent" points="175.5,-900.6638 175.5,-923.6638 315.5,-923.6638 315.5,-900.6638 175.5,-900.6638"/>
<polygon fill="none" stroke="#000000" points="175.5,-900.6638 175.5,-923.6638 315.5,-923.6638 315.5,-900.6638 175.5,-900.6638"/>
<text text-anchor="start" x="180.5" y="-909.2638" font-family="Helvetica,sans-Serif" font-weight="bold" font-size="11.00" fill="#000000">AspNetUserRoles</text>
<text text-anchor="start" x="281.0219" y="-908.7638" font-family="Helvetica,sans-Serif" font-size="11.00" fill="#000000">[table]</text>
<polygon fill="none" stroke="#000000" points="175.5,-881.6638 175.5,-900.6638 315.5,-900.6638 315.5,-881.6638 175.5,-881.6638"/>
<text text-anchor="start" x="178.5" y="-887.7638" font-family="Helvetica,sans-Serif" font-size="11.00" fill="#000000">...</text>
<polygon fill="#ffffff" stroke="transparent" points="175.5,-862.6638 175.5,-881.6638 230.5,-881.6638 230.5,-862.6638 175.5,-862.6638"/>
<polygon fill="none" stroke="#000000" points="175.5,-862.6638 175.5,-881.6638 230.5,-881.6638 230.5,-862.6638 175.5,-862.6638"/>
<text text-anchor="start" x="178.5" y="-868.7638" font-family="Helvetica,sans-Serif" font-size="11.00" fill="#000000">&lt; 2</text>
<polygon fill="#ffffff" stroke="transparent" points="230.5,-862.6638 230.5,-881.6638 285.5,-881.6638 285.5,-862.6638 230.5,-862.6638"/>
<polygon fill="none" stroke="#000000" points="230.5,-862.6638 230.5,-881.6638 285.5,-881.6638 285.5,-862.6638 230.5,-862.6638"/>
<text text-anchor="start" x="250.1105" y="-868.7638" font-family="Helvetica,sans-Serif" font-size="11.00" fill="#000000">0 rows</text>
<polygon fill="#ffffff" stroke="transparent" points="285.5,-862.6638 285.5,-881.6638 315.5,-881.6638 315.5,-862.6638 285.5,-862.6638"/>
<polygon fill="none" stroke="#000000" points="285.5,-862.6638 285.5,-881.6638 315.5,-881.6638 315.5,-862.6638 285.5,-862.6638"/>
<text text-anchor="start" x="306.3862" y="-868.7638" font-family="Helvetica,sans-Serif" font-size="11.00" fill="#000000"> &#160;</text>
</a>
</g>
</g>
<!-- AspNetUserRoles&#45;&gt;AspNetUsers -->
<g id="edge3" class="edge">
<title>AspNetUserRoles:w&#45;&gt;AspNetUsers:e</title>
<path fill="none" stroke="#000000" d="M161.3076,-887.5363C91.1935,-855.7436 71.3613,-590.288 66.451,-494.2058"/>
<polygon fill="#000000" stroke="#000000" points="167.6874,-888.9422 174.7253,-894.1795 171.5937,-889.803 175.5,-890.6638 175.5,-890.6638 175.5,-890.6638 171.5937,-889.803 176.2747,-887.1482 167.6874,-888.9422 167.6874,-888.9422"/>
<ellipse fill="none" stroke="#000000" cx="164.5624" cy="-888.2535" rx="3.2" ry="3.2"/>
</g>
<!-- AspNetUserTokens -->
<g id="node5" class="node">
<title>AspNetUserTokens</title>
<g id="a_node5"><a xlink:href="../../tables/AspNetUserTokens.html" xlink:title="AspNetUserTokens" target="_top">
<polygon fill="#ffffff" stroke="transparent" points="171,-781.1638 171,-842.1638 320,-842.1638 320,-781.1638 171,-781.1638"/>
<polygon fill="#f5f5f5" stroke="transparent" points="171.5,-818.6638 171.5,-841.6638 320.5,-841.6638 320.5,-818.6638 171.5,-818.6638"/>
<polygon fill="none" stroke="#000000" points="171.5,-818.6638 171.5,-841.6638 320.5,-841.6638 320.5,-818.6638 171.5,-818.6638"/>
<text text-anchor="start" x="176.5" y="-827.2638" font-family="Helvetica,sans-Serif" font-weight="bold" font-size="11.00" fill="#000000">AspNetUserTokens</text>
<text text-anchor="start" x="286.0219" y="-826.7638" font-family="Helvetica,sans-Serif" font-size="11.00" fill="#000000">[table]</text>
<polygon fill="none" stroke="#000000" points="171.5,-799.6638 171.5,-818.6638 320.5,-818.6638 320.5,-799.6638 171.5,-799.6638"/>
<text text-anchor="start" x="174.5" y="-805.7638" font-family="Helvetica,sans-Serif" font-size="11.00" fill="#000000">...</text>
<polygon fill="#ffffff" stroke="transparent" points="171.5,-780.6638 171.5,-799.6638 231.5,-799.6638 231.5,-780.6638 171.5,-780.6638"/>
<polygon fill="none" stroke="#000000" points="171.5,-780.6638 171.5,-799.6638 231.5,-799.6638 231.5,-780.6638 171.5,-780.6638"/>
<text text-anchor="start" x="174.5" y="-786.7638" font-family="Helvetica,sans-Serif" font-size="11.00" fill="#000000">&lt; 1</text>
<polygon fill="#ffffff" stroke="transparent" points="231.5,-780.6638 231.5,-799.6638 288.5,-799.6638 288.5,-780.6638 231.5,-780.6638"/>
<polygon fill="none" stroke="#000000" points="231.5,-780.6638 231.5,-799.6638 288.5,-799.6638 288.5,-780.6638 231.5,-780.6638"/>
<text text-anchor="start" x="253.1105" y="-786.7638" font-family="Helvetica,sans-Serif" font-size="11.00" fill="#000000">0 rows</text>
<polygon fill="#ffffff" stroke="transparent" points="288.5,-780.6638 288.5,-799.6638 320.5,-799.6638 320.5,-780.6638 288.5,-780.6638"/>
<polygon fill="none" stroke="#000000" points="288.5,-780.6638 288.5,-799.6638 320.5,-799.6638 320.5,-780.6638 288.5,-780.6638"/>
<text text-anchor="start" x="311.3862" y="-786.7638" font-family="Helvetica,sans-Serif" font-size="11.00" fill="#000000"> &#160;</text>
</a>
</g>
</g>
<!-- AspNetUserTokens&#45;&gt;AspNetUsers -->
<g id="edge4" class="edge">
<title>AspNetUserTokens:w&#45;&gt;AspNetUsers:e</title>
<path fill="none" stroke="#000000" d="M157.2101,-804.8909C101.9202,-775.0354 76.3718,-575.9545 68.1338,-494.4032"/>
<polygon fill="#000000" stroke="#000000" points="163.7651,-806.6216 170.581,-812.1445 167.6325,-807.6427 171.5,-808.6638 171.5,-808.6638 171.5,-808.6638 167.6325,-807.6427 172.419,-805.1831 163.7651,-806.6216 163.7651,-806.6216"/>
<ellipse fill="none" stroke="#000000" cx="160.6711" cy="-805.8047" rx="3.2" ry="3.2"/>
</g>
<!-- Competencies -->
<g id="node6" class="node">
<title>Competencies</title>
<g id="a_node6"><a xlink:href="../../tables/Competencies.html" xlink:title="Competencies" target="_top">
<polygon fill="#ffffff" stroke="transparent" points="185,-566.1638 185,-627.1638 306,-627.1638 306,-566.1638 185,-566.1638"/>
<polygon fill="#f5f5f5" stroke="transparent" points="185.5,-603.6638 185.5,-626.6638 306.5,-626.6638 306.5,-603.6638 185.5,-603.6638"/>
<polygon fill="none" stroke="#000000" points="185.5,-603.6638 185.5,-626.6638 306.5,-626.6638 306.5,-603.6638 185.5,-603.6638"/>
<text text-anchor="start" x="190.5" y="-612.2638" font-family="Helvetica,sans-Serif" font-weight="bold" font-size="11.00" fill="#000000">Competencies</text>
<text text-anchor="start" x="272.0219" y="-611.7638" font-family="Helvetica,sans-Serif" font-size="11.00" fill="#000000">[table]</text>
<polygon fill="none" stroke="#000000" points="185.5,-584.6638 185.5,-603.6638 306.5,-603.6638 306.5,-584.6638 185.5,-584.6638"/>
<text text-anchor="start" x="188.5" y="-590.7638" font-family="Helvetica,sans-Serif" font-size="11.00" fill="#000000">...</text>
<polygon fill="#ffffff" stroke="transparent" points="185.5,-565.6638 185.5,-584.6638 226.5,-584.6638 226.5,-565.6638 185.5,-565.6638"/>
<polygon fill="none" stroke="#000000" points="185.5,-565.6638 185.5,-584.6638 226.5,-584.6638 226.5,-565.6638 185.5,-565.6638"/>
<text text-anchor="start" x="188.5" y="-571.7638" font-family="Helvetica,sans-Serif" font-size="11.00" fill="#000000">&lt; 2</text>
<polygon fill="#ffffff" stroke="transparent" points="226.5,-565.6638 226.5,-584.6638 274.5,-584.6638 274.5,-565.6638 226.5,-565.6638"/>
<polygon fill="none" stroke="#000000" points="226.5,-565.6638 226.5,-584.6638 274.5,-584.6638 274.5,-565.6638 226.5,-565.6638"/>
<text text-anchor="start" x="239.1105" y="-571.7638" font-family="Helvetica,sans-Serif" font-size="11.00" fill="#000000">0 rows</text>
<polygon fill="#ffffff" stroke="transparent" points="274.5,-565.6638 274.5,-584.6638 306.5,-584.6638 306.5,-565.6638 274.5,-565.6638"/>
<polygon fill="none" stroke="#000000" points="274.5,-565.6638 274.5,-584.6638 306.5,-584.6638 306.5,-565.6638 274.5,-565.6638"/>
<text text-anchor="start" x="287.9053" y="-571.7638" font-family="Helvetica,sans-Serif" font-size="11.00" fill="#000000">4 &gt;</text>
</a>
</g>
</g>
<!-- Competencies&#45;&gt;AspNetUsers -->
<g id="edge5" class="edge">
<title>Competencies:w&#45;&gt;AspNetUsers:e</title>
<path fill="none" stroke="#000000" d="M170.0949,-554.4715C167.6694,-552.9006 165.2973,-551.2975 163,-549.6638 140.4848,-533.6526 118.2524,-512.4407 100.6694,-494.5868"/>
<polygon fill="#000000" stroke="#000000" points="175.7337,-557.8969 180.7019,-565.1272 179.1523,-559.9737 182.571,-562.0505 182.571,-562.0505 182.571,-562.0505 179.1523,-559.9737 184.4401,-558.9737 175.7337,-557.8969 175.7337,-557.8969"/>
<ellipse fill="none" stroke="#000000" cx="172.9988" cy="-556.2355" rx="3.2" ry="3.2"/>
</g>
<!-- Competencies&#45;&gt;AspNetUsers -->
<g id="edge6" class="edge">
<title>Competencies:w&#45;&gt;AspNetUsers:e</title>
<path fill="none" stroke="#000000" d="M164.6746,-563.8402C164.1123,-563.4499 163.554,-563.0577 163,-562.6638 135.6324,-543.202 108.6826,-516.056 89.9927,-494.4248"/>
<polygon fill="#000000" stroke="#000000" points="170.2443,-567.4143 175.033,-574.7647 173.6108,-569.5746 176.9773,-571.7348 176.9773,-571.7348 176.9773,-571.7348 173.6108,-569.5746 178.9215,-568.705 170.2443,-567.4143 170.2443,-567.4143"/>
<ellipse fill="none" stroke="#000000" cx="167.5511" cy="-565.686" rx="3.2" ry="3.2"/>
</g>
<!-- CompetencyLevelDescriptions -->
<g id="node7" class="node">
<title>CompetencyLevelDescriptions</title>
<g id="a_node7"><a xlink:href="../../tables/CompetencyLevelDescriptions.html" xlink:title="CompetencyLevelDescriptions" target="_top">
<polygon fill="#ffffff" stroke="transparent" points="369,-750.6638 369,-994.6638 663,-994.6638 663,-750.6638 369,-750.6638"/>
<polygon fill="#f5f5f5" stroke="transparent" points="371,-969.6638 371,-992.6638 661,-992.6638 661,-969.6638 371,-969.6638"/>
<polygon fill="none" stroke="#000000" points="371,-969.6638 371,-992.6638 661,-992.6638 661,-969.6638 371,-969.6638"/>
<text text-anchor="start" x="376" y="-978.2638" font-family="Helvetica,sans-Serif" font-weight="bold" font-size="11.00" fill="#000000">CompetencyLevelDescriptions</text>
<text text-anchor="start" x="626.0437" y="-977.7638" font-family="Helvetica,sans-Serif" font-size="11.00" fill="#000000">[table]</text>
<polygon fill="none" stroke="#000000" points="371,-947.6638 371,-969.6638 567,-969.6638 567,-947.6638 371,-947.6638"/>
<image xlink:href="../../images/primaryKeys.png" width="11px" height="12px" preserveAspectRatio="xMinYMin meet" x="376" y="-964.664"/>
<text text-anchor="start" x="391" y="-954.7638" font-family="Helvetica,sans-Serif" font-size="11.00" fill="#000000">Id</text>
<polygon fill="none" stroke="#000000" points="567,-947.6638 567,-969.6638 661,-969.6638 661,-947.6638 567,-947.6638"/>
<text text-anchor="start" x="569.9758" y="-955.3638" font-family="Helvetica,sans-Serif" font-size="11.00" fill="#000000">uuid[2147483647]</text>
<polygon fill="#ffffff" stroke="transparent" points="371,-925.6638 371,-947.6638 567,-947.6638 567,-925.6638 371,-925.6638"/>
<polygon fill="none" stroke="#000000" points="371,-925.6638 371,-947.6638 567,-947.6638 567,-925.6638 371,-925.6638"/>
<image xlink:href="../../images/foreignKeys.png" width="11px" height="12px" preserveAspectRatio="xMinYMin meet" x="376" y="-942.664"/>
<text text-anchor="start" x="391" y="-932.7638" font-family="Helvetica,sans-Serif" font-size="11.00" fill="#000000">CompetencyId</text>
<polygon fill="none" stroke="#000000" points="567,-925.6638 567,-947.6638 661,-947.6638 661,-925.6638 567,-925.6638"/>
<text text-anchor="start" x="569.9758" y="-933.3638" font-family="Helvetica,sans-Serif" font-size="11.00" fill="#000000">uuid[2147483647]</text>
<polygon fill="#ffffff" stroke="transparent" points="371,-903.6638 371,-925.6638 567,-925.6638 567,-903.6638 371,-903.6638"/>
<polygon fill="none" stroke="#000000" points="371,-903.6638 371,-925.6638 567,-925.6638 567,-903.6638 371,-903.6638"/>
<text text-anchor="start" x="391" y="-910.7638" font-family="Helvetica,sans-Serif" font-size="11.00" fill="#000000">Level</text>
<polygon fill="none" stroke="#000000" points="567,-903.6638 567,-925.6638 661,-925.6638 661,-903.6638 567,-903.6638"/>
<text text-anchor="start" x="570" y="-911.3638" font-family="Helvetica,sans-Serif" font-size="11.00" fill="#000000">int4[10]</text>
<polygon fill="none" stroke="#000000" points="371,-881.6638 371,-903.6638 567,-903.6638 567,-881.6638 371,-881.6638"/>
<text text-anchor="start" x="391" y="-888.7638" font-family="Helvetica,sans-Serif" font-size="11.00" fill="#000000">Description</text>
<polygon fill="none" stroke="#000000" points="567,-881.6638 567,-903.6638 661,-903.6638 661,-881.6638 567,-881.6638"/>
<text text-anchor="start" x="570" y="-889.3638" font-family="Helvetica,sans-Serif" font-size="11.00" fill="#000000">text[2147483647]</text>
<polygon fill="none" stroke="#000000" points="371,-859.6638 371,-881.6638 567,-881.6638 567,-859.6638 371,-859.6638"/>
<text text-anchor="start" x="391" y="-866.7638" font-family="Helvetica,sans-Serif" font-size="11.00" fill="#000000">IsActive</text>
<polygon fill="none" stroke="#000000" points="567,-859.6638 567,-881.6638 661,-881.6638 661,-859.6638 567,-859.6638"/>
<text text-anchor="start" x="570" y="-867.3638" font-family="Helvetica,sans-Serif" font-size="11.00" fill="#000000">bool[1]</text>
<polygon fill="none" stroke="#000000" points="371,-837.6638 371,-859.6638 567,-859.6638 567,-837.6638 371,-837.6638"/>
<text text-anchor="start" x="391" y="-844.7638" font-family="Helvetica,sans-Serif" font-size="11.00" fill="#000000">CreatedAt</text>
<polygon fill="none" stroke="#000000" points="567,-837.6638 567,-859.6638 661,-859.6638 661,-837.6638 567,-837.6638"/>
<text text-anchor="start" x="570" y="-845.3638" font-family="Helvetica,sans-Serif" font-size="11.00" fill="#000000">timestamptz[35,6]</text>
<polygon fill="none" stroke="#000000" points="371,-815.6638 371,-837.6638 567,-837.6638 567,-815.6638 371,-815.6638"/>
<text text-anchor="start" x="391" y="-822.7638" font-family="Helvetica,sans-Serif" font-size="11.00" fill="#000000">UpdatedAt</text>
<polygon fill="none" stroke="#000000" points="567,-815.6638 567,-837.6638 661,-837.6638 661,-815.6638 567,-815.6638"/>
<text text-anchor="start" x="570" y="-823.3638" font-family="Helvetica,sans-Serif" font-size="11.00" fill="#000000">timestamptz[35,6]</text>
<polygon fill="#ffffff" stroke="transparent" points="371,-793.6638 371,-815.6638 567,-815.6638 567,-793.6638 371,-793.6638"/>
<polygon fill="none" stroke="#000000" points="371,-793.6638 371,-815.6638 567,-815.6638 567,-793.6638 371,-793.6638"/>
<image xlink:href="../../images/foreignKeys.png" width="11px" height="12px" preserveAspectRatio="xMinYMin meet" x="376" y="-810.664"/>
<text text-anchor="start" x="391" y="-800.7638" font-family="Helvetica,sans-Serif" font-size="11.00" fill="#000000">CreatedByUserId</text>
<polygon fill="none" stroke="#000000" points="567,-793.6638 567,-815.6638 661,-815.6638 661,-793.6638 567,-793.6638"/>
<text text-anchor="start" x="570" y="-801.3638" font-family="Helvetica,sans-Serif" font-size="11.00" fill="#000000">text[2147483647]</text>
<polygon fill="#ffffff" stroke="transparent" points="371,-771.6638 371,-793.6638 567,-793.6638 567,-771.6638 371,-771.6638"/>
<polygon fill="none" stroke="#000000" points="371,-771.6638 371,-793.6638 567,-793.6638 567,-771.6638 371,-771.6638"/>
<image xlink:href="../../images/foreignKeys.png" width="11px" height="12px" preserveAspectRatio="xMinYMin meet" x="376" y="-788.664"/>
<text text-anchor="start" x="391" y="-778.7638" font-family="Helvetica,sans-Serif" font-size="11.00" fill="#000000">UpdatedByUserId</text>
<polygon fill="none" stroke="#000000" points="567,-771.6638 567,-793.6638 661,-793.6638 661,-771.6638 567,-771.6638"/>
<text text-anchor="start" x="570" y="-779.3638" font-family="Helvetica,sans-Serif" font-size="11.00" fill="#000000">text[2147483647]</text>
<polygon fill="#ffffff" stroke="transparent" points="371,-752.6638 371,-771.6638 460,-771.6638 460,-752.6638 371,-752.6638"/>
<polygon fill="none" stroke="#000000" points="371,-752.6638 371,-771.6638 460,-771.6638 460,-752.6638 371,-752.6638"/>
<text text-anchor="start" x="374" y="-758.7638" font-family="Helvetica,sans-Serif" font-size="11.00" fill="#000000">&lt; 3</text>
<polygon fill="#ffffff" stroke="transparent" points="460,-752.6638 460,-771.6638 567,-771.6638 567,-752.6638 460,-752.6638"/>
<polygon fill="none" stroke="#000000" points="460,-752.6638 460,-771.6638 567,-771.6638 567,-752.6638 460,-752.6638"/>
<text text-anchor="start" x="531.6105" y="-758.7638" font-family="Helvetica,sans-Serif" font-size="11.00" fill="#000000">0 rows</text>
<polygon fill="#ffffff" stroke="transparent" points="567,-752.6638 567,-771.6638 661,-771.6638 661,-752.6638 567,-752.6638"/>
<polygon fill="none" stroke="#000000" points="567,-752.6638 567,-771.6638 661,-771.6638 661,-752.6638 567,-752.6638"/>
<text text-anchor="start" x="642.4053" y="-758.7638" font-family="Helvetica,sans-Serif" font-size="11.00" fill="#000000">0 &gt;</text>
<polygon fill="none" stroke="#000000" stroke-width="2" points="370,-751.6638 370,-993.6638 662,-993.6638 662,-751.6638 370,-751.6638"/>
</a>
</g>
</g>
<!-- CompetencyLevelDescriptions&#45;&gt;AspNetUsers -->
<g id="edge8" class="edge">
<title>CompetencyLevelDescriptions:w&#45;&gt;AspNetUsers:e</title>
<path fill="none" stroke="#000000" d="M357.1209,-800.7714C346.7976,-793.5757 344.6291,-778.2376 328,-770.6638 260.0949,-739.7363 219.5902,-788.2966 163,-739.6638 124.9162,-706.9351 87.9896,-561.6062 72.554,-494.2062"/>
<polygon fill="#000000" stroke="#000000" points="363.2972,-802.5035 370.0279,-808.1301 367.1486,-803.5837 371,-804.6638 371,-804.6638 371,-804.6638 367.1486,-803.5837 371.9721,-801.1975 363.2972,-802.5035 363.2972,-802.5035"/>
<ellipse fill="none" stroke="#000000" cx="360.2161" cy="-801.6394" rx="3.2" ry="3.2"/>
</g>
<!-- CompetencyLevelDescriptions&#45;&gt;AspNetUsers -->
<g id="edge9" class="edge">
<title>CompetencyLevelDescriptions:w&#45;&gt;AspNetUsers:e</title>
<path fill="none" stroke="#000000" d="M356.996,-778.3881C346.0387,-769.7329 346.1176,-750.1559 328,-740.6638 261.8315,-705.997 220.4355,-756.4259 163,-708.6638 97.0968,-653.8601 75.2844,-548.717 68.241,-494.2597"/>
<polygon fill="#000000" stroke="#000000" points="363.3487,-780.3277 369.9487,-786.1069 367.1743,-781.4957 371,-782.6638 371,-782.6638 371,-782.6638 367.1743,-781.4957 372.0513,-779.2207 363.3487,-780.3277 363.3487,-780.3277"/>
<ellipse fill="none" stroke="#000000" cx="360.2881" cy="-779.3932" rx="3.2" ry="3.2"/>
</g>
<!-- CompetencyLevelDescriptions&#45;&gt;Competencies -->
<g id="edge7" class="edge">
<title>CompetencyLevelDescriptions:w&#45;&gt;Competencies:e</title>
<path fill="none" stroke="#000000" d="M357.3764,-930.8952C326.7837,-900.6376 344.776,-760.1053 328,-719.6638 314.6503,-687.482 292.3197,-654.9086 274.2553,-631.374"/>
<polygon fill="#000000" stroke="#000000" points="363.6332,-933.5445 369.5963,-939.9789 367.3166,-935.1041 371,-936.6638 371,-936.6638 371,-936.6638 367.3166,-935.1041 372.4037,-933.3487 363.6332,-933.5445 363.6332,-933.5445"/>
<ellipse fill="none" stroke="#000000" cx="360.6865" cy="-932.2967" rx="3.2" ry="3.2"/>
</g>
<!-- CompetencyTechnicalCareer -->
<g id="node8" class="node">
<title>CompetencyTechnicalCareer</title>
<g id="a_node8"><a xlink:href="../../tables/CompetencyTechnicalCareer.html" xlink:title="CompetencyTechnicalCareer" target="_top">
<polygon fill="#ffffff" stroke="transparent" points="414,-545.1638 414,-606.1638 618,-606.1638 618,-545.1638 414,-545.1638"/>
<polygon fill="#f5f5f5" stroke="transparent" points="414,-582.6638 414,-605.6638 618,-605.6638 618,-582.6638 414,-582.6638"/>
<polygon fill="none" stroke="#000000" points="414,-582.6638 414,-605.6638 618,-605.6638 618,-582.6638 414,-582.6638"/>
<text text-anchor="start" x="419" y="-591.2638" font-family="Helvetica,sans-Serif" font-weight="bold" font-size="11.00" fill="#000000">CompetencyTechnicalCareer</text>
<text text-anchor="start" x="583.5219" y="-590.7638" font-family="Helvetica,sans-Serif" font-size="11.00" fill="#000000">[table]</text>
<polygon fill="none" stroke="#000000" points="414,-563.6638 414,-582.6638 618,-582.6638 618,-563.6638 414,-563.6638"/>
<text text-anchor="start" x="417" y="-569.7638" font-family="Helvetica,sans-Serif" font-size="11.00" fill="#000000">...</text>
<polygon fill="#ffffff" stroke="transparent" points="414,-544.6638 414,-563.6638 501,-563.6638 501,-544.6638 414,-544.6638"/>
<polygon fill="none" stroke="#000000" points="414,-544.6638 414,-563.6638 501,-563.6638 501,-544.6638 414,-544.6638"/>
<text text-anchor="start" x="417" y="-550.7638" font-family="Helvetica,sans-Serif" font-size="11.00" fill="#000000">&lt; 2</text>
<polygon fill="#ffffff" stroke="transparent" points="501,-544.6638 501,-563.6638 572,-563.6638 572,-544.6638 501,-544.6638"/>
<polygon fill="none" stroke="#000000" points="501,-544.6638 501,-563.6638 572,-563.6638 572,-544.6638 501,-544.6638"/>
<text text-anchor="start" x="536.6105" y="-550.7638" font-family="Helvetica,sans-Serif" font-size="11.00" fill="#000000">0 rows</text>
<polygon fill="#ffffff" stroke="transparent" points="572,-544.6638 572,-563.6638 618,-563.6638 618,-544.6638 572,-544.6638"/>
<polygon fill="none" stroke="#000000" points="572,-544.6638 572,-563.6638 618,-563.6638 618,-544.6638 572,-544.6638"/>
<text text-anchor="start" x="608.8862" y="-550.7638" font-family="Helvetica,sans-Serif" font-size="11.00" fill="#000000"> &#160;</text>
</a>
</g>
</g>
<!-- CompetencyTechnicalCareer&#45;&gt;Competencies -->
<g id="edge10" class="edge">
<title>CompetencyTechnicalCareer:w&#45;&gt;Competencies:e</title>
<path fill="none" stroke="#000000" d="M399.4718,-572.9396C370.5105,-574.0037 340.1134,-578.0045 314.0506,-582.4255"/>
<polygon fill="#000000" stroke="#000000" points="406.0014,-572.8157 414.0683,-576.2632 410.0007,-572.7397 414,-572.6638 414,-572.6638 414,-572.6638 410.0007,-572.7397 413.9317,-569.0645 406.0014,-572.8157 406.0014,-572.8157"/>
<ellipse fill="none" stroke="#000000" cx="402.802" cy="-572.8764" rx="3.2" ry="3.2"/>
</g>
<!-- TechnicalCareers -->
<g id="node9" class="node">
<title>TechnicalCareers</title>
<g id="a_node9"><a xlink:href="../../tables/TechnicalCareers.html" xlink:title="TechnicalCareers" target="_top">
<polygon fill="#ffffff" stroke="transparent" points="176,-374.1638 176,-435.1638 315,-435.1638 315,-374.1638 176,-374.1638"/>
<polygon fill="#f5f5f5" stroke="transparent" points="176.5,-411.6638 176.5,-434.6638 315.5,-434.6638 315.5,-411.6638 176.5,-411.6638"/>
<polygon fill="none" stroke="#000000" points="176.5,-411.6638 176.5,-434.6638 315.5,-434.6638 315.5,-411.6638 176.5,-411.6638"/>
<text text-anchor="start" x="181.5" y="-420.2638" font-family="Helvetica,sans-Serif" font-weight="bold" font-size="11.00" fill="#000000">TechnicalCareers</text>
<text text-anchor="start" x="281.0219" y="-419.7638" font-family="Helvetica,sans-Serif" font-size="11.00" fill="#000000">[table]</text>
<polygon fill="none" stroke="#000000" points="176.5,-392.6638 176.5,-411.6638 315.5,-411.6638 315.5,-392.6638 176.5,-392.6638"/>
<text text-anchor="start" x="179.5" y="-398.7638" font-family="Helvetica,sans-Serif" font-size="11.00" fill="#000000">...</text>
<polygon fill="#ffffff" stroke="transparent" points="176.5,-373.6638 176.5,-392.6638 226.5,-392.6638 226.5,-373.6638 176.5,-373.6638"/>
<polygon fill="none" stroke="#000000" points="176.5,-373.6638 176.5,-392.6638 226.5,-392.6638 226.5,-373.6638 176.5,-373.6638"/>
<text text-anchor="start" x="179.5" y="-379.7638" font-family="Helvetica,sans-Serif" font-size="11.00" fill="#000000">&lt; 2</text>
<polygon fill="#ffffff" stroke="transparent" points="226.5,-373.6638 226.5,-392.6638 279.5,-392.6638 279.5,-373.6638 226.5,-373.6638"/>
<polygon fill="none" stroke="#000000" points="226.5,-373.6638 226.5,-392.6638 279.5,-392.6638 279.5,-373.6638 226.5,-373.6638"/>
<text text-anchor="start" x="244.1105" y="-379.7638" font-family="Helvetica,sans-Serif" font-size="11.00" fill="#000000">0 rows</text>
<polygon fill="#ffffff" stroke="transparent" points="279.5,-373.6638 279.5,-392.6638 315.5,-392.6638 315.5,-373.6638 279.5,-373.6638"/>
<polygon fill="none" stroke="#000000" points="279.5,-373.6638 279.5,-392.6638 315.5,-392.6638 315.5,-373.6638 279.5,-373.6638"/>
<text text-anchor="start" x="296.9053" y="-379.7638" font-family="Helvetica,sans-Serif" font-size="11.00" fill="#000000">6 &gt;</text>
</a>
</g>
</g>
<!-- CompetencyTechnicalCareer&#45;&gt;TechnicalCareers -->
<g id="edge11" class="edge">
<title>CompetencyTechnicalCareer:w&#45;&gt;TechnicalCareers:e</title>
<path fill="none" stroke="#000000" d="M399.4702,-570.4241C376.3955,-562.0982 377.8536,-531.9533 361,-503.6638 335.5941,-461.0189 365.1392,-401.6638 315.5,-401.6638"/>
<polygon fill="#000000" stroke="#000000" points="406.0934,-571.445 413.4515,-576.2218 410.0467,-572.0544 414,-572.6638 414,-572.6638 414,-572.6638 410.0467,-572.0544 414.5485,-569.1058 406.0934,-571.445 406.0934,-571.445"/>
<ellipse fill="none" stroke="#000000" cx="402.9307" cy="-570.9575" rx="3.2" ry="3.2"/>
</g>
<!-- TechnicalCareers&#45;&gt;AspNetUsers -->
<g id="edge48" class="edge">
<title>TechnicalCareers:w&#45;&gt;AspNetUsers:e</title>
<path fill="none" stroke="#000000" d="M161.8396,-401.4842C139.6518,-403.2215 118.2792,-413.5939 101.2832,-425.1469"/>
<polygon fill="#000000" stroke="#000000" points="168.5006,-401.5657 176.4559,-405.2635 172.5003,-401.6148 176.5,-401.6638 176.5,-401.6638 176.5,-401.6638 172.5003,-401.6148 176.5441,-398.0641 168.5006,-401.5657 168.5006,-401.5657"/>
<ellipse fill="none" stroke="#000000" cx="165.3008" cy="-401.5265" rx="3.2" ry="3.2"/>
</g>
<!-- TechnicalCareers&#45;&gt;AspNetUsers -->
<g id="edge49" class="edge">
<title>TechnicalCareers:w&#45;&gt;AspNetUsers:e</title>
<path fill="none" stroke="#000000" d="M162.2276,-404.501C146.0706,-408.8349 130.3345,-416.6618 116.3928,-425.1069"/>
<polygon fill="#000000" stroke="#000000" points="168.6535,-403.2236 177.2019,-405.1947 172.5768,-402.4437 176.5,-401.6638 176.5,-401.6638 176.5,-401.6638 172.5768,-402.4437 175.7981,-398.1329 168.6535,-403.2236 168.6535,-403.2236"/>
<ellipse fill="none" stroke="#000000" cx="165.5149" cy="-403.8475" rx="3.2" ry="3.2"/>
</g>
<!-- Coordinators -->
<g id="node10" class="node">
<title>Coordinators</title>
<g id="a_node10"><a xlink:href="../../tables/Coordinators.html" xlink:title="Coordinators" target="_top">
<polygon fill="#ffffff" stroke="transparent" points="459,-432.1638 459,-493.1638 573,-493.1638 573,-432.1638 459,-432.1638"/>
<polygon fill="#f5f5f5" stroke="transparent" points="459,-469.6638 459,-492.6638 573,-492.6638 573,-469.6638 459,-469.6638"/>
<polygon fill="none" stroke="#000000" points="459,-469.6638 459,-492.6638 573,-492.6638 573,-469.6638 459,-469.6638"/>
<text text-anchor="start" x="464" y="-478.2638" font-family="Helvetica,sans-Serif" font-weight="bold" font-size="11.00" fill="#000000">Coordinators</text>
<text text-anchor="start" x="538.5219" y="-477.7638" font-family="Helvetica,sans-Serif" font-size="11.00" fill="#000000">[table]</text>
<polygon fill="none" stroke="#000000" points="459,-450.6638 459,-469.6638 573,-469.6638 573,-450.6638 459,-450.6638"/>
<text text-anchor="start" x="462" y="-456.7638" font-family="Helvetica,sans-Serif" font-size="11.00" fill="#000000">...</text>
<polygon fill="#ffffff" stroke="transparent" points="459,-431.6638 459,-450.6638 501,-450.6638 501,-431.6638 459,-431.6638"/>
<polygon fill="none" stroke="#000000" points="459,-431.6638 459,-450.6638 501,-450.6638 501,-431.6638 459,-431.6638"/>
<text text-anchor="start" x="462" y="-437.7638" font-family="Helvetica,sans-Serif" font-size="11.00" fill="#000000">&lt; 2</text>
<polygon fill="#ffffff" stroke="transparent" points="501,-431.6638 501,-450.6638 550,-450.6638 550,-431.6638 501,-431.6638"/>
<polygon fill="none" stroke="#000000" points="501,-431.6638 501,-450.6638 550,-450.6638 550,-431.6638 501,-431.6638"/>
<text text-anchor="start" x="514.6105" y="-437.7638" font-family="Helvetica,sans-Serif" font-size="11.00" fill="#000000">0 rows</text>
<polygon fill="#ffffff" stroke="transparent" points="550,-431.6638 550,-450.6638 573,-450.6638 573,-431.6638 550,-431.6638"/>
<polygon fill="none" stroke="#000000" points="550,-431.6638 550,-450.6638 573,-450.6638 573,-431.6638 550,-431.6638"/>
<text text-anchor="start" x="563.8862" y="-437.7638" font-family="Helvetica,sans-Serif" font-size="11.00" fill="#000000"> &#160;</text>
</a>
</g>
</g>
<!-- Coordinators&#45;&gt;AspNetUsers -->
<g id="edge13" class="edge">
<title>Coordinators:w&#45;&gt;AspNetUsers:e</title>
<path fill="none" stroke="#000000" d="M448.4351,-459.6638C335.1121,-459.6638 205.956,-459.6638 130.1847,-459.6638"/>
<polygon fill="#000000" stroke="#000000" points="458.2,-455.6638 458.2,-463.6638 456.6,-463.6638 456.6,-455.6638 458.2,-455.6638"/>
<polyline fill="none" stroke="#000000" points="459,-459.6638 455,-459.6638 "/>
<ellipse fill="none" stroke="#000000" cx="451.8" cy="-459.6639" rx="3.2" ry="3.2"/>
</g>
<!-- Coordinators&#45;&gt;TechnicalCareers -->
<g id="edge12" class="edge">
<title>Coordinators:w&#45;&gt;TechnicalCareers:e</title>
<path fill="none" stroke="#000000" d="M444.5031,-458.9206C409.9966,-455.1277 399.2809,-437.4899 361,-421.6638 340.5862,-413.2243 337.5896,-401.6638 315.5,-401.6638"/>
<polygon fill="#000000" stroke="#000000" points="451.0105,-459.2542 458.8157,-463.2591 455.0052,-459.459 459,-459.6638 459,-459.6638 459,-459.6638 455.0052,-459.459 459.1843,-456.0685 451.0105,-459.2542 451.0105,-459.2542"/>
<ellipse fill="none" stroke="#000000" cx="447.8147" cy="-459.0903" rx="3.2" ry="3.2"/>
</g>
<!-- EvaluationPeriods -->
<g id="node11" class="node">
<title>EvaluationPeriods</title>
<g id="a_node11"><a xlink:href="../../tables/EvaluationPeriods.html" xlink:title="EvaluationPeriods" target="_top">
<polygon fill="#ffffff" stroke="transparent" points="174,-484.1638 174,-545.1638 317,-545.1638 317,-484.1638 174,-484.1638"/>
<polygon fill="#f5f5f5" stroke="transparent" points="174.5,-521.6638 174.5,-544.6638 317.5,-544.6638 317.5,-521.6638 174.5,-521.6638"/>
<polygon fill="none" stroke="#000000" points="174.5,-521.6638 174.5,-544.6638 317.5,-544.6638 317.5,-521.6638 174.5,-521.6638"/>
<text text-anchor="start" x="179.5" y="-530.2638" font-family="Helvetica,sans-Serif" font-weight="bold" font-size="11.00" fill="#000000">EvaluationPeriods</text>
<text text-anchor="start" x="283.0219" y="-529.7638" font-family="Helvetica,sans-Serif" font-size="11.00" fill="#000000">[table]</text>
<polygon fill="none" stroke="#000000" points="174.5,-502.6638 174.5,-521.6638 317.5,-521.6638 317.5,-502.6638 174.5,-502.6638"/>
<text text-anchor="start" x="177.5" y="-508.7638" font-family="Helvetica,sans-Serif" font-size="11.00" fill="#000000">...</text>
<polygon fill="#ffffff" stroke="transparent" points="174.5,-483.6638 174.5,-502.6638 226.5,-502.6638 226.5,-483.6638 174.5,-483.6638"/>
<polygon fill="none" stroke="#000000" points="174.5,-483.6638 174.5,-502.6638 226.5,-502.6638 226.5,-483.6638 174.5,-483.6638"/>
<text text-anchor="start" x="177.5" y="-489.7638" font-family="Helvetica,sans-Serif" font-size="11.00" fill="#000000">&lt; 2</text>
<polygon fill="#ffffff" stroke="transparent" points="226.5,-483.6638 226.5,-502.6638 280.5,-502.6638 280.5,-483.6638 226.5,-483.6638"/>
<polygon fill="none" stroke="#000000" points="226.5,-483.6638 226.5,-502.6638 280.5,-502.6638 280.5,-483.6638 226.5,-483.6638"/>
<text text-anchor="start" x="245.1105" y="-489.7638" font-family="Helvetica,sans-Serif" font-size="11.00" fill="#000000">0 rows</text>
<polygon fill="#ffffff" stroke="transparent" points="280.5,-483.6638 280.5,-502.6638 317.5,-502.6638 317.5,-483.6638 280.5,-483.6638"/>
<polygon fill="none" stroke="#000000" points="280.5,-483.6638 280.5,-502.6638 317.5,-502.6638 317.5,-483.6638 280.5,-483.6638"/>
<text text-anchor="start" x="298.9053" y="-489.7638" font-family="Helvetica,sans-Serif" font-size="11.00" fill="#000000">3 &gt;</text>
</a>
</g>
</g>
<!-- EvaluationPeriods&#45;&gt;AspNetUsers -->
<g id="edge14" class="edge">
<title>EvaluationPeriods:w&#45;&gt;AspNetUsers:e</title>
<path fill="none" stroke="#000000" d="M160.2438,-509.0742C147.1406,-505.83 134.2343,-500.3961 122.3566,-494.2804"/>
<polygon fill="#000000" stroke="#000000" points="166.6288,-510.234 173.8566,-515.2058 170.5644,-510.9489 174.5,-511.6638 174.5,-511.6638 174.5,-511.6638 170.5644,-510.9489 175.1434,-508.1218 166.6288,-510.234 166.6288,-510.234"/>
<ellipse fill="none" stroke="#000000" cx="163.4803" cy="-509.662" rx="3.2" ry="3.2"/>
</g>
<!-- EvaluationPeriods&#45;&gt;AspNetUsers -->
<g id="edge15" class="edge">
<title>EvaluationPeriods:w&#45;&gt;AspNetUsers:e</title>
<path fill="none" stroke="#000000" d="M160.0716,-512.202C140.3112,-511.2074 121.007,-503.4884 105.0127,-494.2183"/>
<polygon fill="#000000" stroke="#000000" points="166.5056,-511.962 174.6342,-515.2613 170.5028,-511.8129 174.5,-511.6638 174.5,-511.6638 174.5,-511.6638 170.5028,-511.8129 174.3658,-508.0663 166.5056,-511.962 166.5056,-511.962"/>
<ellipse fill="none" stroke="#000000" cx="163.3078" cy="-512.0813" rx="3.2" ry="3.2"/>
</g>
<!-- FormQuestions -->
<g id="node12" class="node">
<title>FormQuestions</title>
<g id="a_node12"><a xlink:href="../../tables/FormQuestions.html" xlink:title="FormQuestions" target="_top">
<polygon fill="#ffffff" stroke="transparent" points="452.5,-668.1638 452.5,-729.1638 579.5,-729.1638 579.5,-668.1638 452.5,-668.1638"/>
<polygon fill="#f5f5f5" stroke="transparent" points="453,-705.6638 453,-728.6638 580,-728.6638 580,-705.6638 453,-705.6638"/>
<polygon fill="none" stroke="#000000" points="453,-705.6638 453,-728.6638 580,-728.6638 580,-705.6638 453,-705.6638"/>
<text text-anchor="start" x="458" y="-714.2638" font-family="Helvetica,sans-Serif" font-weight="bold" font-size="11.00" fill="#000000">FormQuestions</text>
<text text-anchor="start" x="545.5219" y="-713.7638" font-family="Helvetica,sans-Serif" font-size="11.00" fill="#000000">[table]</text>
<polygon fill="none" stroke="#000000" points="453,-686.6638 453,-705.6638 580,-705.6638 580,-686.6638 453,-686.6638"/>
<text text-anchor="start" x="456" y="-692.7638" font-family="Helvetica,sans-Serif" font-size="11.00" fill="#000000">...</text>
<polygon fill="#ffffff" stroke="transparent" points="453,-667.6638 453,-686.6638 497,-686.6638 497,-667.6638 453,-667.6638"/>
<polygon fill="none" stroke="#000000" points="453,-667.6638 453,-686.6638 497,-686.6638 497,-667.6638 453,-667.6638"/>
<text text-anchor="start" x="456" y="-673.7638" font-family="Helvetica,sans-Serif" font-size="11.00" fill="#000000">&lt; 3</text>
<polygon fill="#ffffff" stroke="transparent" points="497,-667.6638 497,-686.6638 547,-686.6638 547,-667.6638 497,-667.6638"/>
<polygon fill="none" stroke="#000000" points="497,-667.6638 497,-686.6638 547,-686.6638 547,-667.6638 497,-667.6638"/>
<text text-anchor="start" x="511.6105" y="-673.7638" font-family="Helvetica,sans-Serif" font-size="11.00" fill="#000000">0 rows</text>
<polygon fill="#ffffff" stroke="transparent" points="547,-667.6638 547,-686.6638 580,-686.6638 580,-667.6638 547,-667.6638"/>
<polygon fill="none" stroke="#000000" points="547,-667.6638 547,-686.6638 580,-686.6638 580,-667.6638 547,-667.6638"/>
<text text-anchor="start" x="561.4053" y="-673.7638" font-family="Helvetica,sans-Serif" font-size="11.00" fill="#000000">1 &gt;</text>
</a>
</g>
</g>
<!-- FormQuestions&#45;&gt;AspNetUsers -->
<g id="edge17" class="edge">
<title>FormQuestions:w&#45;&gt;AspNetUsers:e</title>
<path fill="none" stroke="#000000" d="M438.5487,-695.22C319.5008,-693.4342 265.0161,-738.7428 163,-667.6638 104.4942,-626.9003 80.2141,-542.2773 70.6843,-494.428"/>
<polygon fill="#000000" stroke="#000000" points="445.0038,-695.4182 452.8895,-699.2621 449.0019,-695.541 453,-695.6638 453,-695.6638 453,-695.6638 449.0019,-695.541 453.1105,-692.0655 445.0038,-695.4182 445.0038,-695.4182"/>
<ellipse fill="none" stroke="#000000" cx="441.8053" cy="-695.32" rx="3.2" ry="3.2"/>
</g>
<!-- FormQuestions&#45;&gt;AspNetUsers -->
<g id="edge18" class="edge">
<title>FormQuestions:w&#45;&gt;AspNetUsers:e</title>
<path fill="none" stroke="#000000" d="M438.5487,-696.6495C319.5008,-706.4342 265.0161,-751.7428 163,-680.6638 100.9738,-637.4475 77.4161,-544.9346 69.12,-494.3013"/>
<polygon fill="#000000" stroke="#000000" points="445.0185,-696.2083 453.245,-699.2555 449.0093,-695.936 453,-695.6638 453,-695.6638 453,-695.6638 449.0093,-695.936 452.755,-692.0722 445.0185,-696.2083 445.0185,-696.2083"/>
<ellipse fill="none" stroke="#000000" cx="441.826" cy="-696.4261" rx="3.2" ry="3.2"/>
</g>
<!-- FormQuestions&#45;&gt;Competencies -->
<g id="edge16" class="edge">
<title>FormQuestions:w&#45;&gt;Competencies:e</title>
<path fill="none" stroke="#000000" d="M438.5839,-695.0284C381.8871,-690.1104 325.7929,-657.6076 288.7987,-631.2892"/>
<polygon fill="#000000" stroke="#000000" points="445.0078,-695.3115 452.8414,-699.2603 449.0039,-695.4876 453,-695.6638 453,-695.6638 453,-695.6638 449.0039,-695.4876 453.1586,-692.0673 445.0078,-695.3115 445.0078,-695.3115"/>
<ellipse fill="none" stroke="#000000" cx="441.8109" cy="-695.1705" rx="3.2" ry="3.2"/>
</g>
<!-- ProfessorCompetencyAssignments -->
<g id="node13" class="node">
<title>ProfessorCompetencyAssignments</title>
<g id="a_node13"><a xlink:href="../../tables/ProfessorCompetencyAssignments.html" xlink:title="ProfessorCompetencyAssignments" target="_top">
<polygon fill="#ffffff" stroke="transparent" points="395,-350.1638 395,-411.1638 637,-411.1638 637,-350.1638 395,-350.1638"/>
<polygon fill="#f5f5f5" stroke="transparent" points="395,-387.6638 395,-410.6638 637,-410.6638 637,-387.6638 395,-387.6638"/>
<polygon fill="none" stroke="#000000" points="395,-387.6638 395,-410.6638 637,-410.6638 637,-387.6638 395,-387.6638"/>
<text text-anchor="start" x="400" y="-396.2638" font-family="Helvetica,sans-Serif" font-weight="bold" font-size="11.00" fill="#000000">ProfessorCompetencyAssignments</text>
<text text-anchor="start" x="602.5219" y="-395.7638" font-family="Helvetica,sans-Serif" font-size="11.00" fill="#000000">[table]</text>
<polygon fill="none" stroke="#000000" points="395,-368.6638 395,-387.6638 637,-387.6638 637,-368.6638 395,-368.6638"/>
<text text-anchor="start" x="398" y="-374.7638" font-family="Helvetica,sans-Serif" font-size="11.00" fill="#000000">...</text>
<polygon fill="#ffffff" stroke="transparent" points="395,-349.6638 395,-368.6638 497,-368.6638 497,-349.6638 395,-349.6638"/>
<polygon fill="none" stroke="#000000" points="395,-349.6638 395,-368.6638 497,-368.6638 497,-349.6638 395,-349.6638"/>
<text text-anchor="start" x="398" y="-355.7638" font-family="Helvetica,sans-Serif" font-size="11.00" fill="#000000">&lt; 6</text>
<polygon fill="#ffffff" stroke="transparent" points="497,-349.6638 497,-368.6638 575,-368.6638 575,-349.6638 497,-349.6638"/>
<polygon fill="none" stroke="#000000" points="497,-349.6638 497,-368.6638 575,-368.6638 575,-349.6638 497,-349.6638"/>
<text text-anchor="start" x="539.6105" y="-355.7638" font-family="Helvetica,sans-Serif" font-size="11.00" fill="#000000">0 rows</text>
<polygon fill="#ffffff" stroke="transparent" points="575,-349.6638 575,-368.6638 637,-368.6638 637,-349.6638 575,-349.6638"/>
<polygon fill="none" stroke="#000000" points="575,-349.6638 575,-368.6638 637,-368.6638 637,-349.6638 575,-349.6638"/>
<text text-anchor="start" x="618.4053" y="-355.7638" font-family="Helvetica,sans-Serif" font-size="11.00" fill="#000000">1 &gt;</text>
</a>
</g>
</g>
<!-- ProfessorCompetencyAssignments&#45;&gt;AspNetUsers -->
<g id="edge20" class="edge">
<title>ProfessorCompetencyAssignments:w&#45;&gt;AspNetUsers:e</title>
<path fill="none" stroke="#000000" d="M380.9309,-374.1166C361.6177,-368.0808 352.9406,-360.2417 328,-357.6638 255.0553,-350.1241 230.8949,-329.9499 163,-357.6638 130.3649,-370.985 102.7097,-400.9895 85.184,-425.0943"/>
<polygon fill="#000000" stroke="#000000" points="387.2428,-375.708 394.1199,-381.1546 391.1214,-376.6859 395,-377.6638 395,-377.6638 395,-377.6638 391.1214,-376.6859 395.8801,-374.173 387.2428,-375.708 387.2428,-375.708"/>
<ellipse fill="none" stroke="#000000" cx="384.1399" cy="-374.9256" rx="3.2" ry="3.2"/>
</g>
<!-- ProfessorCompetencyAssignments&#45;&gt;AspNetUsers -->
<g id="edge24" class="edge">
<title>ProfessorCompetencyAssignments:w&#45;&gt;AspNetUsers:e</title>
<path fill="none" stroke="#000000" d="M380.657,-379.8547C361.5351,-381.0066 352.8224,-373.2295 328,-370.6638 255.0553,-363.1241 230.8949,-342.9499 163,-370.6638 135.4366,-381.9149 111.4255,-405.0667 94.0694,-425.0002"/>
<polygon fill="#000000" stroke="#000000" points="387.0917,-378.8718 395.5436,-381.2225 391.0459,-378.2678 395,-377.6638 395,-377.6638 395,-377.6638 391.0459,-378.2678 394.4564,-374.1051 387.0917,-378.8718 387.0917,-378.8718"/>
<ellipse fill="none" stroke="#000000" cx="383.9284" cy="-379.3551" rx="3.2" ry="3.2"/>
</g>
<!-- ProfessorCompetencyAssignments&#45;&gt;Competencies -->
<g id="edge19" class="edge">
<title>ProfessorCompetencyAssignments:w&#45;&gt;Competencies:e</title>
<path fill="none" stroke="#000000" d="M380.7721,-381.4089C370.252,-388.5675 369.0568,-404.9712 361,-421.6638 334.3393,-476.9013 366.3529,-507.7991 328,-555.6638 323.9995,-560.6564 319.235,-565.0898 314.043,-569.0169"/>
<polygon fill="#000000" stroke="#000000" points="387.2635,-379.7003 395.9164,-381.1452 391.1318,-378.682 395,-377.6638 395,-377.6638 395,-377.6638 391.1318,-378.682 394.0836,-374.1824 387.2635,-379.7003 387.2635,-379.7003"/>
<ellipse fill="none" stroke="#000000" cx="384.1689" cy="-380.5149" rx="3.2" ry="3.2"/>
</g>
<!-- ProfessorCompetencyAssignments&#45;&gt;TechnicalCareers -->
<g id="edge23" class="edge">
<title>ProfessorCompetencyAssignments:w&#45;&gt;TechnicalCareers:e</title>
<path fill="none" stroke="#000000" d="M380.424,-379.0932C355.7164,-384.26 346.9297,-401.6638 315.5,-401.6638"/>
<polygon fill="#000000" stroke="#000000" points="387.0382,-378.4447 395.3514,-381.2466 391.0191,-378.0542 395,-377.6638 395,-377.6638 395,-377.6638 391.0191,-378.0542 394.6486,-374.081 387.0382,-378.4447 387.0382,-378.4447"/>
<ellipse fill="none" stroke="#000000" cx="383.8535" cy="-378.757" rx="3.2" ry="3.2"/>
</g>
<!-- ProfessorCompetencyAssignments&#45;&gt;EvaluationPeriods -->
<g id="edge21" class="edge">
<title>ProfessorCompetencyAssignments:w&#45;&gt;EvaluationPeriods:e</title>
<path fill="none" stroke="#000000" d="M380.5288,-380.221C335.1936,-398.7465 380.6552,-511.6638 317.5,-511.6638"/>
<polygon fill="#000000" stroke="#000000" points="387.1221,-379.0559 395.6265,-381.2089 391.061,-378.3599 395,-377.6638 395,-377.6638 395,-377.6638 391.061,-378.3599 394.3735,-374.1187 387.1221,-379.0559 387.1221,-379.0559"/>
<ellipse fill="none" stroke="#000000" cx="383.9709" cy="-379.6128" rx="3.2" ry="3.2"/>
</g>
<!-- Professors -->
<g id="node14" class="node">
<title>Professors</title>
<g id="a_node14"><a xlink:href="../../tables/Professors.html" xlink:title="Professors" target="_top">
<polygon fill="#ffffff" stroke="transparent" points="195,-252.1638 195,-313.1638 296,-313.1638 296,-252.1638 195,-252.1638"/>
<polygon fill="#f5f5f5" stroke="transparent" points="195.5,-289.6638 195.5,-312.6638 296.5,-312.6638 296.5,-289.6638 195.5,-289.6638"/>
<polygon fill="none" stroke="#000000" points="195.5,-289.6638 195.5,-312.6638 296.5,-312.6638 296.5,-289.6638 195.5,-289.6638"/>
<text text-anchor="start" x="200.5" y="-298.2638" font-family="Helvetica,sans-Serif" font-weight="bold" font-size="11.00" fill="#000000">Professors</text>
<text text-anchor="start" x="262.0219" y="-297.7638" font-family="Helvetica,sans-Serif" font-size="11.00" fill="#000000">[table]</text>
<polygon fill="none" stroke="#000000" points="195.5,-270.6638 195.5,-289.6638 296.5,-289.6638 296.5,-270.6638 195.5,-270.6638"/>
<text text-anchor="start" x="198.5" y="-276.7638" font-family="Helvetica,sans-Serif" font-size="11.00" fill="#000000">...</text>
<polygon fill="#ffffff" stroke="transparent" points="195.5,-251.6638 195.5,-270.6638 226.5,-270.6638 226.5,-251.6638 195.5,-251.6638"/>
<polygon fill="none" stroke="#000000" points="195.5,-251.6638 195.5,-270.6638 226.5,-270.6638 226.5,-251.6638 195.5,-251.6638"/>
<text text-anchor="start" x="198.5" y="-257.7638" font-family="Helvetica,sans-Serif" font-size="11.00" fill="#000000">&lt; 1</text>
<polygon fill="#ffffff" stroke="transparent" points="226.5,-251.6638 226.5,-270.6638 269.5,-270.6638 269.5,-251.6638 226.5,-251.6638"/>
<polygon fill="none" stroke="#000000" points="226.5,-251.6638 226.5,-270.6638 269.5,-270.6638 269.5,-251.6638 226.5,-251.6638"/>
<text text-anchor="start" x="234.1105" y="-257.7638" font-family="Helvetica,sans-Serif" font-size="11.00" fill="#000000">0 rows</text>
<polygon fill="#ffffff" stroke="transparent" points="269.5,-251.6638 269.5,-270.6638 296.5,-270.6638 296.5,-251.6638 269.5,-251.6638"/>
<polygon fill="none" stroke="#000000" points="269.5,-251.6638 269.5,-270.6638 296.5,-270.6638 296.5,-251.6638 269.5,-251.6638"/>
<text text-anchor="start" x="277.9053" y="-257.7638" font-family="Helvetica,sans-Serif" font-size="11.00" fill="#000000">2 &gt;</text>
</a>
</g>
</g>
<!-- ProfessorCompetencyAssignments&#45;&gt;Professors -->
<g id="edge22" class="edge">
<title>ProfessorCompetencyAssignments:w&#45;&gt;Professors:e</title>
<path fill="none" stroke="#000000" d="M380.61,-375.5258C336.9716,-361.1943 352.8266,-279.6638 296.5,-279.6638"/>
<polygon fill="#000000" stroke="#000000" points="387.0869,-376.4881 394.4709,-381.2247 391.0434,-377.0759 395,-377.6638 395,-377.6638 395,-377.6638 391.0434,-377.0759 395.5291,-374.1029 387.0869,-376.4881 387.0869,-376.4881"/>
<ellipse fill="none" stroke="#000000" cx="383.9216" cy="-376.0178" rx="3.2" ry="3.2"/>
</g>
<!-- Professors&#45;&gt;AspNetUsers -->
<g id="edge25" class="edge">
<title>Professors:w&#45;&gt;AspNetUsers:e</title>
<path fill="none" stroke="#000000" d="M184.9468,-280.3657C120.8424,-289.003 87.3809,-375.3082 73.3079,-424.958"/>
<polygon fill="#000000" stroke="#000000" points="194.4363,-275.7257 194.9672,-283.7081 193.3708,-283.8143 192.8398,-275.8319 194.4363,-275.7257"/>
<polyline fill="none" stroke="#000000" points="195.5,-279.6638 191.5088,-279.9293 "/>
<ellipse fill="none" stroke="#000000" cx="188.3159" cy="-280.1417" rx="3.2" ry="3.2"/>
</g>
<!-- QuestionResponses -->
<g id="node15" class="node">
<title>QuestionResponses</title>
<g id="a_node15"><a xlink:href="../../tables/QuestionResponses.html" xlink:title="QuestionResponses" target="_top">
<polygon fill="#ffffff" stroke="transparent" points="984,-129.1638 984,-190.1638 1139,-190.1638 1139,-129.1638 984,-129.1638"/>
<polygon fill="#f5f5f5" stroke="transparent" points="984.5,-166.6638 984.5,-189.6638 1139.5,-189.6638 1139.5,-166.6638 984.5,-166.6638"/>
<polygon fill="none" stroke="#000000" points="984.5,-166.6638 984.5,-189.6638 1139.5,-189.6638 1139.5,-166.6638 984.5,-166.6638"/>
<text text-anchor="start" x="989.5" y="-175.2638" font-family="Helvetica,sans-Serif" font-weight="bold" font-size="11.00" fill="#000000">QuestionResponses</text>
<text text-anchor="start" x="1105.0219" y="-174.7638" font-family="Helvetica,sans-Serif" font-size="11.00" fill="#000000">[table]</text>
<polygon fill="none" stroke="#000000" points="984.5,-147.6638 984.5,-166.6638 1139.5,-166.6638 1139.5,-147.6638 984.5,-147.6638"/>
<text text-anchor="start" x="987.5" y="-153.7638" font-family="Helvetica,sans-Serif" font-size="11.00" fill="#000000">...</text>
<polygon fill="#ffffff" stroke="transparent" points="984.5,-128.6638 984.5,-147.6638 1047.5,-147.6638 1047.5,-128.6638 984.5,-128.6638"/>
<polygon fill="none" stroke="#000000" points="984.5,-128.6638 984.5,-147.6638 1047.5,-147.6638 1047.5,-128.6638 984.5,-128.6638"/>
<text text-anchor="start" x="987.5" y="-134.7638" font-family="Helvetica,sans-Serif" font-size="11.00" fill="#000000">&lt; 4</text>
<polygon fill="#ffffff" stroke="transparent" points="1047.5,-128.6638 1047.5,-147.6638 1106.5,-147.6638 1106.5,-128.6638 1047.5,-128.6638"/>
<polygon fill="none" stroke="#000000" points="1047.5,-128.6638 1047.5,-147.6638 1106.5,-147.6638 1106.5,-128.6638 1047.5,-128.6638"/>
<text text-anchor="start" x="1071.1105" y="-134.7638" font-family="Helvetica,sans-Serif" font-size="11.00" fill="#000000">0 rows</text>
<polygon fill="#ffffff" stroke="transparent" points="1106.5,-128.6638 1106.5,-147.6638 1139.5,-147.6638 1139.5,-128.6638 1106.5,-128.6638"/>
<polygon fill="none" stroke="#000000" points="1106.5,-128.6638 1106.5,-147.6638 1139.5,-147.6638 1139.5,-128.6638 1106.5,-128.6638"/>
<text text-anchor="start" x="1130.3862" y="-134.7638" font-family="Helvetica,sans-Serif" font-size="11.00" fill="#000000"> &#160;</text>
</a>
</g>
</g>
<!-- QuestionResponses&#45;&gt;AspNetUsers -->
<g id="edge26" class="edge">
<title>QuestionResponses:w&#45;&gt;AspNetUsers:e</title>
<path fill="none" stroke="#000000" d="M971.5693,-149.6399C959.6126,-136.6646 963.6332,-111.2277 943,-101.6638 820.3935,-44.8331 323.5603,16.8629 163,-105.6638 111.9176,-144.6458 79.8577,-343.8831 69.0685,-425.1633"/>
<polygon fill="#000000" stroke="#000000" points="977.4702,-152.8452 982.7816,-159.8272 980.9851,-154.7545 984.5,-156.6638 984.5,-156.6638 984.5,-156.6638 980.9851,-154.7545 986.2184,-153.5004 977.4702,-152.8452 977.4702,-152.8452"/>
<ellipse fill="none" stroke="#000000" cx="974.6582" cy="-151.3177" rx="3.2" ry="3.2"/>
</g>
<!-- QuestionResponses&#45;&gt;AspNetUsers -->
<g id="edge29" class="edge">
<title>QuestionResponses:w&#45;&gt;AspNetUsers:e</title>
<path fill="none" stroke="#000000" d="M969.9214,-154.9877C959.9476,-147.209 962.6217,-123.7589 943,-114.6638 820.3935,-57.8331 323.5603,3.8629 163,-118.6638 113.3522,-156.551 81.6734,-345.8191 70.0278,-424.9362"/>
<polygon fill="#000000" stroke="#000000" points="976.5524,-155.75 984.0888,-160.2402 980.5262,-156.2069 984.5,-156.6638 984.5,-156.6638 984.5,-156.6638 980.5262,-156.2069 984.9112,-153.0874 976.5524,-155.75 976.5524,-155.75"/>
<ellipse fill="none" stroke="#000000" cx="973.3733" cy="-155.3845" rx="3.2" ry="3.2"/>
</g>
<!-- QuestionResponses&#45;&gt;FormQuestions -->
<g id="edge27" class="edge">
<title>QuestionResponses:w&#45;&gt;FormQuestions:e</title>
<path fill="none" stroke="#000000" d="M970.3701,-159.8067C899.3794,-195.4123 1002.107,-522.8848 943,-593.6638 835.5835,-722.2922 747.5815,-695.6638 580,-695.6638"/>
<polygon fill="#000000" stroke="#000000" points="976.6908,-158.4008 985.2817,-160.1779 980.5954,-157.5323 984.5,-156.6638 984.5,-156.6638 984.5,-156.6638 980.5954,-157.5323 983.7183,-153.1497 976.6908,-158.4008 976.6908,-158.4008"/>
<ellipse fill="none" stroke="#000000" cx="973.5672" cy="-159.0956" rx="3.2" ry="3.2"/>
</g>
<!-- StudentCompetencyEvaluations -->
<g id="node16" class="node">
<title>StudentCompetencyEvaluations</title>
<g id="a_node16"><a xlink:href="../../tables/StudentCompetencyEvaluations.html" xlink:title="StudentCompetencyEvaluations" target="_top">
<polygon fill="#ffffff" stroke="transparent" points="712,-210.1638 712,-271.1638 935,-271.1638 935,-210.1638 712,-210.1638"/>
<polygon fill="#f5f5f5" stroke="transparent" points="712.5,-247.6638 712.5,-270.6638 935.5,-270.6638 935.5,-247.6638 712.5,-247.6638"/>
<polygon fill="none" stroke="#000000" points="712.5,-247.6638 712.5,-270.6638 935.5,-270.6638 935.5,-247.6638 712.5,-247.6638"/>
<text text-anchor="start" x="717.5" y="-256.2638" font-family="Helvetica,sans-Serif" font-weight="bold" font-size="11.00" fill="#000000">StudentCompetencyEvaluations</text>
<text text-anchor="start" x="901.0219" y="-255.7638" font-family="Helvetica,sans-Serif" font-size="11.00" fill="#000000">[table]</text>
<polygon fill="none" stroke="#000000" points="712.5,-228.6638 712.5,-247.6638 935.5,-247.6638 935.5,-228.6638 712.5,-228.6638"/>
<text text-anchor="start" x="715.5" y="-234.7638" font-family="Helvetica,sans-Serif" font-size="11.00" fill="#000000">...</text>
<polygon fill="#ffffff" stroke="transparent" points="712.5,-209.6638 712.5,-228.6638 804.5,-228.6638 804.5,-209.6638 712.5,-209.6638"/>
<polygon fill="none" stroke="#000000" points="712.5,-209.6638 712.5,-228.6638 804.5,-228.6638 804.5,-209.6638 712.5,-209.6638"/>
<text text-anchor="start" x="715.5" y="-215.7638" font-family="Helvetica,sans-Serif" font-size="11.00" fill="#000000">&lt; 4</text>
<polygon fill="#ffffff" stroke="transparent" points="804.5,-209.6638 804.5,-228.6638 878.5,-228.6638 878.5,-209.6638 804.5,-209.6638"/>
<polygon fill="none" stroke="#000000" points="804.5,-209.6638 804.5,-228.6638 878.5,-228.6638 878.5,-209.6638 804.5,-209.6638"/>
<text text-anchor="start" x="843.1105" y="-215.7638" font-family="Helvetica,sans-Serif" font-size="11.00" fill="#000000">0 rows</text>
<polygon fill="#ffffff" stroke="transparent" points="878.5,-209.6638 878.5,-228.6638 935.5,-228.6638 935.5,-209.6638 878.5,-209.6638"/>
<polygon fill="none" stroke="#000000" points="878.5,-209.6638 878.5,-228.6638 935.5,-228.6638 935.5,-209.6638 878.5,-209.6638"/>
<text text-anchor="start" x="916.9053" y="-215.7638" font-family="Helvetica,sans-Serif" font-size="11.00" fill="#000000">1 &gt;</text>
</a>
</g>
</g>
<!-- QuestionResponses&#45;&gt;StudentCompetencyEvaluations -->
<g id="edge28" class="edge">
<title>QuestionResponses:w&#45;&gt;StudentCompetencyEvaluations:e</title>
<path fill="none" stroke="#000000" d="M970.6299,-161.2508C950.9726,-178.3858 971.4935,-237.6638 935.5,-237.6638"/>
<polygon fill="#000000" stroke="#000000" points="976.9046,-159.1757 985.6304,-160.0817 980.7023,-157.9198 984.5,-156.6638 984.5,-156.6638 984.5,-156.6638 980.7023,-157.9198 983.3696,-153.2459 976.9046,-159.1757 976.9046,-159.1757"/>
<ellipse fill="none" stroke="#000000" cx="973.8664" cy="-160.1805" rx="3.2" ry="3.2"/>
</g>
<!-- StudentCompetencyEvaluations&#45;&gt;AspNetUsers -->
<g id="edge30" class="edge">
<title>StudentCompetencyEvaluations:w&#45;&gt;AspNetUsers:e</title>
<path fill="none" stroke="#000000" d="M698.1503,-235.8359C610.3673,-226.5421 186.4373,-196.8934 163,-212.6638 92.1748,-260.3205 72.5116,-368.9684 67.0705,-424.9889"/>
<polygon fill="#000000" stroke="#000000" points="704.5641,-236.6528 712.0451,-241.2349 708.5321,-237.1583 712.5,-237.6638 712.5,-237.6638 712.5,-237.6638 708.5321,-237.1583 712.9549,-234.0927 704.5641,-236.6528 704.5641,-236.6528"/>
<ellipse fill="none" stroke="#000000" cx="701.3898" cy="-236.2485" rx="3.2" ry="3.2"/>
</g>
<!-- StudentCompetencyEvaluations&#45;&gt;AspNetUsers -->
<g id="edge33" class="edge">
<title>StudentCompetencyEvaluations:w&#45;&gt;AspNetUsers:e</title>
<path fill="none" stroke="#000000" d="M697.871,-238.5565C609.4724,-239.4795 186.4125,-209.91 163,-225.6638 95.5474,-271.0511 74.5003,-371.7593 67.9485,-425.1212"/>
<polygon fill="#000000" stroke="#000000" points="704.5149,-238.1511 712.7193,-241.2571 708.5074,-237.9075 712.5,-237.6638 712.5,-237.6638 712.5,-237.6638 708.5074,-237.9075 712.2807,-234.0705 704.5149,-238.1511 704.5149,-238.1511"/>
<ellipse fill="none" stroke="#000000" cx="701.3208" cy="-238.3461" rx="3.2" ry="3.2"/>
</g>
<!-- StudentCompetencyEvaluations&#45;&gt;ProfessorCompetencyAssignments -->
<g id="edge31" class="edge">
<title>StudentCompetencyEvaluations:w&#45;&gt;ProfessorCompetencyAssignments:e</title>
<path fill="none" stroke="#000000" d="M698.3018,-240.0938C651.2677,-258.6843 702.1706,-377.6638 637,-377.6638"/>
<polygon fill="#000000" stroke="#000000" points="704.6147,-239.0134 713.1073,-241.2122 708.5573,-238.3386 712.5,-237.6638 712.5,-237.6638 712.5,-237.6638 708.5573,-238.3386 711.8927,-234.1154 704.6147,-239.0134 704.6147,-239.0134"/>
<ellipse fill="none" stroke="#000000" cx="701.4605" cy="-239.5532" rx="3.2" ry="3.2"/>
</g>
<!-- Students -->
<g id="node17" class="node">
<title>Students</title>
<g id="a_node17"><a xlink:href="../../tables/Students.html" xlink:title="Students" target="_top">
<polygon fill="#ffffff" stroke="transparent" points="471,-268.1638 471,-329.1638 561,-329.1638 561,-268.1638 471,-268.1638"/>
<polygon fill="#f5f5f5" stroke="transparent" points="471,-305.6638 471,-328.6638 561,-328.6638 561,-305.6638 471,-305.6638"/>
<polygon fill="none" stroke="#000000" points="471,-305.6638 471,-328.6638 561,-328.6638 561,-305.6638 471,-305.6638"/>
<text text-anchor="start" x="476" y="-314.2638" font-family="Helvetica,sans-Serif" font-weight="bold" font-size="11.00" fill="#000000">Students</text>
<text text-anchor="start" x="526.5219" y="-313.7638" font-family="Helvetica,sans-Serif" font-size="11.00" fill="#000000">[table]</text>
<polygon fill="none" stroke="#000000" points="471,-286.6638 471,-305.6638 561,-305.6638 561,-286.6638 471,-286.6638"/>
<text text-anchor="start" x="474" y="-292.7638" font-family="Helvetica,sans-Serif" font-size="11.00" fill="#000000">...</text>
<polygon fill="#ffffff" stroke="transparent" points="471,-267.6638 471,-286.6638 497,-286.6638 497,-267.6638 471,-267.6638"/>
<polygon fill="none" stroke="#000000" points="471,-267.6638 471,-286.6638 497,-286.6638 497,-267.6638 471,-267.6638"/>
<text text-anchor="start" x="474" y="-273.7638" font-family="Helvetica,sans-Serif" font-size="11.00" fill="#000000">&lt; 2</text>
<polygon fill="#ffffff" stroke="transparent" points="497,-267.6638 497,-286.6638 537,-286.6638 537,-267.6638 497,-267.6638"/>
<polygon fill="none" stroke="#000000" points="497,-267.6638 497,-286.6638 537,-286.6638 537,-267.6638 497,-267.6638"/>
<text text-anchor="start" x="501.6105" y="-273.7638" font-family="Helvetica,sans-Serif" font-size="11.00" fill="#000000">0 rows</text>
<polygon fill="#ffffff" stroke="transparent" points="537,-267.6638 537,-286.6638 561,-286.6638 561,-267.6638 537,-267.6638"/>
<polygon fill="none" stroke="#000000" points="537,-267.6638 537,-286.6638 561,-286.6638 561,-267.6638 537,-267.6638"/>
<text text-anchor="start" x="542.4053" y="-273.7638" font-family="Helvetica,sans-Serif" font-size="11.00" fill="#000000">3 &gt;</text>
</a>
</g>
</g>
<!-- StudentCompetencyEvaluations&#45;&gt;Students -->
<g id="edge32" class="edge">
<title>StudentCompetencyEvaluations:w&#45;&gt;Students:e</title>
<path fill="none" stroke="#000000" d="M698.1281,-239.8435C689.3265,-242.9281 683.8327,-248.7402 671,-253.6638 622.1415,-272.4098 613.3313,-295.6638 561,-295.6638"/>
<polygon fill="#000000" stroke="#000000" points="704.5904,-238.8634 713.0398,-241.2231 708.5452,-238.2636 712.5,-237.6638 712.5,-237.6638 712.5,-237.6638 708.5452,-238.2636 711.9602,-234.1045 704.5904,-238.8634 704.5904,-238.8634"/>
<ellipse fill="none" stroke="#000000" cx="701.4266" cy="-239.3433" rx="3.2" ry="3.2"/>
</g>
<!-- Students&#45;&gt;AspNetUsers -->
<g id="edge39" class="edge">
<title>Students:w&#45;&gt;AspNetUsers:e</title>
<path fill="none" stroke="#000000" d="M460.6645,-293.4686C428.1359,-283.6746 342.6195,-244.3322 328,-241.6638 255.8585,-228.4965 224.5742,-201.8342 163,-241.6638 99.9365,-282.4568 77.0592,-374.5427 69.0673,-424.9979"/>
<polygon fill="#000000" stroke="#000000" points="471.0485,-291.5849 469.3864,-299.4103 467.8213,-299.0779 469.4834,-291.2524 471.0485,-291.5849"/>
<polyline fill="none" stroke="#000000" points="471,-295.6638 467.0873,-294.8327 "/>
<ellipse fill="none" stroke="#000000" cx="463.9571" cy="-294.1679" rx="3.2" ry="3.2"/>
</g>
<!-- Students&#45;&gt;TechnicalCareers -->
<g id="edge38" class="edge">
<title>Students:w&#45;&gt;TechnicalCareers:e</title>
<path fill="none" stroke="#000000" d="M456.572,-296.0082C415.0279,-298.1549 398.5609,-310.5666 361,-339.6638 333.9796,-360.5957 349.6796,-401.6638 315.5,-401.6638"/>
<polygon fill="#000000" stroke="#000000" points="463.0023,-295.8548 471.0859,-299.2628 467.0011,-295.7593 471,-295.6638 471,-295.6638 471,-295.6638 467.0011,-295.7593 470.9141,-292.0648 463.0023,-295.8548 463.0023,-295.8548"/>
<ellipse fill="none" stroke="#000000" cx="459.8032" cy="-295.9312" rx="3.2" ry="3.2"/>
</g>
<!-- StudentEvaluationReport -->
<g id="node18" class="node">
<title>StudentEvaluationReport</title>
<g id="a_node18"><a xlink:href="../../tables/StudentEvaluationReport.html" xlink:title="StudentEvaluationReport" target="_top">
<polygon fill="#ffffff" stroke="transparent" points="732,-522.1638 732,-583.1638 915,-583.1638 915,-522.1638 732,-522.1638"/>
<polygon fill="#f5f5f5" stroke="transparent" points="732.5,-559.6638 732.5,-582.6638 915.5,-582.6638 915.5,-559.6638 732.5,-559.6638"/>
<polygon fill="none" stroke="#000000" points="732.5,-559.6638 732.5,-582.6638 915.5,-582.6638 915.5,-559.6638 732.5,-559.6638"/>
<text text-anchor="start" x="737.5" y="-568.2638" font-family="Helvetica,sans-Serif" font-weight="bold" font-size="11.00" fill="#000000">StudentEvaluationReport</text>
<text text-anchor="start" x="881.0219" y="-567.7638" font-family="Helvetica,sans-Serif" font-size="11.00" fill="#000000">[table]</text>
<polygon fill="none" stroke="#000000" points="732.5,-540.6638 732.5,-559.6638 915.5,-559.6638 915.5,-540.6638 732.5,-540.6638"/>
<text text-anchor="start" x="735.5" y="-546.7638" font-family="Helvetica,sans-Serif" font-size="11.00" fill="#000000">...</text>
<polygon fill="#ffffff" stroke="transparent" points="732.5,-521.6638 732.5,-540.6638 809.5,-540.6638 809.5,-521.6638 732.5,-521.6638"/>
<polygon fill="none" stroke="#000000" points="732.5,-521.6638 732.5,-540.6638 809.5,-540.6638 809.5,-521.6638 732.5,-521.6638"/>
<text text-anchor="start" x="735.5" y="-527.7638" font-family="Helvetica,sans-Serif" font-size="11.00" fill="#000000">&lt; 4</text>
<polygon fill="#ffffff" stroke="transparent" points="809.5,-521.6638 809.5,-540.6638 875.5,-540.6638 875.5,-521.6638 809.5,-521.6638"/>
<polygon fill="none" stroke="#000000" points="809.5,-521.6638 809.5,-540.6638 875.5,-540.6638 875.5,-521.6638 809.5,-521.6638"/>
<text text-anchor="start" x="840.1105" y="-527.7638" font-family="Helvetica,sans-Serif" font-size="11.00" fill="#000000">0 rows</text>
<polygon fill="#ffffff" stroke="transparent" points="875.5,-521.6638 875.5,-540.6638 915.5,-540.6638 915.5,-521.6638 875.5,-521.6638"/>
<polygon fill="none" stroke="#000000" points="875.5,-521.6638 875.5,-540.6638 915.5,-540.6638 915.5,-521.6638 875.5,-521.6638"/>
<text text-anchor="start" x="906.3862" y="-527.7638" font-family="Helvetica,sans-Serif" font-size="11.00" fill="#000000"> &#160;</text>
</a>
</g>
</g>
<!-- StudentEvaluationReport&#45;&gt;AspNetUsers -->
<g id="edge34" class="edge">
<title>StudentEvaluationReport:w&#45;&gt;AspNetUsers:e</title>
<path fill="none" stroke="#000000" d="M717.8383,-550.3807C695.5108,-557.6826 702.0735,-595.8577 671,-610.6638 620.0009,-634.9642 211.6345,-660.4058 163,-631.6638 112.4343,-601.7805 86.1887,-535.4734 74.0178,-494.4135"/>
<polygon fill="#000000" stroke="#000000" points="724.5095,-550.0546 732.6758,-553.2595 728.5048,-549.8592 732.5,-549.6638 732.5,-549.6638 732.5,-549.6638 728.5048,-549.8592 732.3242,-546.0681 724.5095,-550.0546 724.5095,-550.0546"/>
<ellipse fill="none" stroke="#000000" cx="721.3134" cy="-550.2109" rx="3.2" ry="3.2"/>
</g>
<!-- StudentEvaluationReport&#45;&gt;AspNetUsers -->
<g id="edge37" class="edge">
<title>StudentEvaluationReport:w&#45;&gt;AspNetUsers:e</title>
<path fill="none" stroke="#000000" d="M718.7767,-554.7332C695.3231,-569.6275 702.5011,-608.6539 671,-623.6638 620.0009,-647.9642 211.6345,-673.4058 163,-644.6638 108.6381,-612.537 82.385,-538.3121 71.5103,-494.1747"/>
<polygon fill="#000000" stroke="#000000" points="724.9956,-552.436 733.7475,-553.0408 728.7478,-551.0499 732.5,-549.6638 732.5,-549.6638 732.5,-549.6638 728.7478,-551.0499 731.2525,-546.2868 724.9956,-552.436 724.9956,-552.436"/>
<ellipse fill="none" stroke="#000000" cx="721.9939" cy="-553.5448" rx="3.2" ry="3.2"/>
</g>
<!-- StudentEvaluationReport&#45;&gt;EvaluationPeriods -->
<g id="edge35" class="edge">
<title>StudentEvaluationReport:w&#45;&gt;EvaluationPeriods:e</title>
<path fill="none" stroke="#000000" d="M717.7745,-548.479C701.1902,-545.569 693.1609,-538.0608 671,-534.6638 515.3744,-510.8086 474.9433,-511.6638 317.5,-511.6638"/>
<polygon fill="#000000" stroke="#000000" points="724.5258,-549.0222 732.2113,-553.2522 728.5129,-549.343 732.5,-549.6638 732.5,-549.6638 732.5,-549.6638 728.5129,-549.343 732.7887,-546.0754 724.5258,-549.0222 724.5258,-549.0222"/>
<ellipse fill="none" stroke="#000000" cx="721.3361" cy="-548.7655" rx="3.2" ry="3.2"/>
</g>
<!-- StudentEvaluationReport&#45;&gt;Students -->
<g id="edge36" class="edge">
<title>StudentEvaluationReport:w&#45;&gt;Students:e</title>
<path fill="none" stroke="#000000" d="M717.8178,-548.3725C646.1714,-534.2402 732.699,-407.5634 671,-339.6638 635.5892,-300.6943 613.6549,-295.6638 561,-295.6638"/>
<polygon fill="#000000" stroke="#000000" points="724.5308,-548.9629 732.1846,-553.25 728.5154,-549.3133 732.5,-549.6638 732.5,-549.6638 732.5,-549.6638 728.5154,-549.3133 732.8154,-546.0777 724.5308,-548.9629 724.5308,-548.9629"/>
<ellipse fill="none" stroke="#000000" cx="721.3431" cy="-548.6825" rx="3.2" ry="3.2"/>
</g>
<!-- StudentSubjects -->
<g id="node19" class="node">
<title>StudentSubjects</title>
<g id="a_node19"><a xlink:href="../../tables/StudentSubjects.html" xlink:title="StudentSubjects" target="_top">
<polygon fill="#ffffff" stroke="transparent" points="757,-118.1638 757,-179.1638 890,-179.1638 890,-118.1638 757,-118.1638"/>
<polygon fill="#f5f5f5" stroke="transparent" points="757.5,-155.6638 757.5,-178.6638 890.5,-178.6638 890.5,-155.6638 757.5,-155.6638"/>
<polygon fill="none" stroke="#000000" points="757.5,-155.6638 757.5,-178.6638 890.5,-178.6638 890.5,-155.6638 757.5,-155.6638"/>
<text text-anchor="start" x="762.5" y="-164.2638" font-family="Helvetica,sans-Serif" font-weight="bold" font-size="11.00" fill="#000000">StudentSubjects</text>
<text text-anchor="start" x="856.0219" y="-163.7638" font-family="Helvetica,sans-Serif" font-size="11.00" fill="#000000">[table]</text>
<polygon fill="none" stroke="#000000" points="757.5,-136.6638 757.5,-155.6638 890.5,-155.6638 890.5,-136.6638 757.5,-136.6638"/>
<text text-anchor="start" x="760.5" y="-142.7638" font-family="Helvetica,sans-Serif" font-size="11.00" fill="#000000">...</text>
<polygon fill="#ffffff" stroke="transparent" points="757.5,-117.6638 757.5,-136.6638 809.5,-136.6638 809.5,-117.6638 757.5,-117.6638"/>
<polygon fill="none" stroke="#000000" points="757.5,-117.6638 757.5,-136.6638 809.5,-136.6638 809.5,-117.6638 757.5,-117.6638"/>
<text text-anchor="start" x="760.5" y="-123.7638" font-family="Helvetica,sans-Serif" font-size="11.00" fill="#000000">&lt; 4</text>
<polygon fill="#ffffff" stroke="transparent" points="809.5,-117.6638 809.5,-136.6638 862.5,-136.6638 862.5,-117.6638 809.5,-117.6638"/>
<polygon fill="none" stroke="#000000" points="809.5,-117.6638 809.5,-136.6638 862.5,-136.6638 862.5,-117.6638 809.5,-117.6638"/>
<text text-anchor="start" x="827.1105" y="-123.7638" font-family="Helvetica,sans-Serif" font-size="11.00" fill="#000000">0 rows</text>
<polygon fill="#ffffff" stroke="transparent" points="862.5,-117.6638 862.5,-136.6638 890.5,-136.6638 890.5,-117.6638 862.5,-117.6638"/>
<polygon fill="none" stroke="#000000" points="862.5,-117.6638 862.5,-136.6638 890.5,-136.6638 890.5,-117.6638 862.5,-117.6638"/>
<text text-anchor="start" x="881.3862" y="-123.7638" font-family="Helvetica,sans-Serif" font-size="11.00" fill="#000000"> &#160;</text>
</a>
</g>
</g>
<!-- StudentSubjects&#45;&gt;AspNetUsers -->
<g id="edge40" class="edge">
<title>StudentSubjects:w&#45;&gt;AspNetUsers:e</title>
<path fill="none" stroke="#000000" d="M743.1323,-143.1221C715.7431,-137.6418 704.3541,-131.5854 671,-129.6638 533.4503,-121.7393 498.7738,-128.6201 361,-129.6638 272.9924,-130.3305 233.3384,-79.765 163,-132.6638 115.8493,-168.1241 81.9733,-348.3366 69.8735,-425.0808"/>
<polygon fill="#000000" stroke="#000000" points="749.6223,-144.2702 756.8729,-149.2088 753.5612,-144.967 757.5,-145.6638 757.5,-145.6638 757.5,-145.6638 753.5612,-144.967 758.1271,-142.1188 749.6223,-144.2702 749.6223,-144.2702"/>
<ellipse fill="none" stroke="#000000" cx="746.4712" cy="-143.7127" rx="3.2" ry="3.2"/>
</g>
<!-- StudentSubjects&#45;&gt;AspNetUsers -->
<g id="edge43" class="edge">
<title>StudentSubjects:w&#45;&gt;AspNetUsers:e</title>
<path fill="none" stroke="#000000" d="M743.1323,-147.7584C715.7431,-150.6418 704.3541,-144.5854 671,-142.6638 533.4503,-134.7393 498.7738,-141.6201 361,-142.6638 272.9924,-143.3305 233.3384,-92.765 163,-145.6638 117.2463,-180.0734 83.9924,-350.7844 71.0062,-425.1139"/>
<polygon fill="#000000" stroke="#000000" points="749.5837,-146.8179 758.0193,-149.2262 753.5418,-146.2409 757.5,-145.6638 757.5,-145.6638 757.5,-145.6638 753.5418,-146.2409 756.9807,-142.1015 749.5837,-146.8179 749.5837,-146.8179"/>
<ellipse fill="none" stroke="#000000" cx="746.4171" cy="-147.2796" rx="3.2" ry="3.2"/>
</g>
<!-- StudentSubjects&#45;&gt;Students -->
<g id="edge41" class="edge">
<title>StudentSubjects:w&#45;&gt;Students:e</title>
<path fill="none" stroke="#000000" d="M742.8707,-147.0848C707.662,-154.6124 706.3162,-190.5093 671,-217.6638 623.4884,-254.1953 620.9325,-295.6638 561,-295.6638"/>
<polygon fill="#000000" stroke="#000000" points="749.5375,-146.4373 757.8481,-149.2469 753.5187,-146.0506 757.5,-145.6638 757.5,-145.6638 757.5,-145.6638 753.5187,-146.0506 757.1519,-142.0807 749.5375,-146.4373 749.5375,-146.4373"/>
<ellipse fill="none" stroke="#000000" cx="746.3525" cy="-146.7467" rx="3.2" ry="3.2"/>
</g>
<!-- Subjects -->
<g id="node20" class="node">
<title>Subjects</title>
<g id="a_node20"><a xlink:href="../../tables/Subjects.html" xlink:title="Subjects" target="_top">
<polygon fill="#ffffff" stroke="transparent" points="471.5,-146.1638 471.5,-207.1638 560.5,-207.1638 560.5,-146.1638 471.5,-146.1638"/>
<polygon fill="#f5f5f5" stroke="transparent" points="472,-183.6638 472,-206.6638 561,-206.6638 561,-183.6638 472,-183.6638"/>
<polygon fill="none" stroke="#000000" points="472,-183.6638 472,-206.6638 561,-206.6638 561,-183.6638 472,-183.6638"/>
<text text-anchor="start" x="477" y="-192.2638" font-family="Helvetica,sans-Serif" font-weight="bold" font-size="11.00" fill="#000000">Subjects</text>
<text text-anchor="start" x="526.5219" y="-191.7638" font-family="Helvetica,sans-Serif" font-size="11.00" fill="#000000">[table]</text>
<polygon fill="none" stroke="#000000" points="472,-164.6638 472,-183.6638 561,-183.6638 561,-164.6638 472,-164.6638"/>
<text text-anchor="start" x="475" y="-170.7638" font-family="Helvetica,sans-Serif" font-size="11.00" fill="#000000">...</text>
<polygon fill="#ffffff" stroke="transparent" points="472,-145.6638 472,-164.6638 497,-164.6638 497,-145.6638 472,-145.6638"/>
<polygon fill="none" stroke="#000000" points="472,-145.6638 472,-164.6638 497,-164.6638 497,-145.6638 472,-145.6638"/>
<text text-anchor="start" x="475" y="-151.7638" font-family="Helvetica,sans-Serif" font-size="11.00" fill="#000000">&lt; 4</text>
<polygon fill="#ffffff" stroke="transparent" points="497,-145.6638 497,-164.6638 537,-164.6638 537,-145.6638 497,-145.6638"/>
<polygon fill="none" stroke="#000000" points="497,-145.6638 497,-164.6638 537,-164.6638 537,-145.6638 497,-145.6638"/>
<text text-anchor="start" x="501.6105" y="-151.7638" font-family="Helvetica,sans-Serif" font-size="11.00" fill="#000000">0 rows</text>
<polygon fill="#ffffff" stroke="transparent" points="537,-145.6638 537,-164.6638 561,-164.6638 561,-145.6638 537,-145.6638"/>
<polygon fill="none" stroke="#000000" points="537,-145.6638 537,-164.6638 561,-164.6638 561,-145.6638 537,-145.6638"/>
<text text-anchor="start" x="542.4053" y="-151.7638" font-family="Helvetica,sans-Serif" font-size="11.00" fill="#000000">1 &gt;</text>
</a>
</g>
</g>
<!-- StudentSubjects&#45;&gt;Subjects -->
<g id="edge42" class="edge">
<title>StudentSubjects:w&#45;&gt;Subjects:e</title>
<path fill="none" stroke="#000000" d="M742.6678,-145.9409C666.6987,-148.8489 644.0466,-173.6638 561,-173.6638"/>
<polygon fill="#000000" stroke="#000000" points="749.5014,-145.8133 757.5673,-149.2632 753.5007,-145.7386 757.5,-145.6638 757.5,-145.6638 757.5,-145.6638 753.5007,-145.7386 757.4327,-142.0644 749.5014,-145.8133 749.5014,-145.8133"/>
<ellipse fill="none" stroke="#000000" cx="746.302" cy="-145.8731" rx="3.2" ry="3.2"/>
</g>
<!-- Subjects&#45;&gt;AspNetUsers -->
<g id="edge44" class="edge">
<title>Subjects:w&#45;&gt;AspNetUsers:e</title>
<path fill="none" stroke="#000000" d="M457.407,-172.7521C330.2231,-162.4154 270.3074,-95.128 163,-172.6638 121.3835,-202.7341 85.3173,-355.4849 71.2674,-425.1089"/>
<polygon fill="#000000" stroke="#000000" points="464.0156,-173.1649 471.7755,-177.2568 468.0078,-173.4144 472,-173.6638 472,-173.6638 472,-173.6638 468.0078,-173.4144 472.2245,-170.0708 464.0156,-173.1649 464.0156,-173.1649"/>
<ellipse fill="none" stroke="#000000" cx="460.8218" cy="-172.9653" rx="3.2" ry="3.2"/>
</g>
<!-- Subjects&#45;&gt;AspNetUsers -->
<g id="edge47" class="edge">
<title>Subjects:w&#45;&gt;AspNetUsers:e</title>
<path fill="none" stroke="#000000" d="M457.407,-174.1109C330.2231,-175.4154 270.3074,-108.128 163,-185.6638 122.8492,-214.6751 87.8647,-357.8772 72.8331,-424.989"/>
<polygon fill="#000000" stroke="#000000" points="464.0038,-173.9089 472.1103,-177.2621 468.0019,-173.7863 472,-173.6638 472,-173.6638 472,-173.6638 468.0019,-173.7863 471.8897,-170.0655 464.0038,-173.9089 464.0038,-173.9089"/>
<ellipse fill="none" stroke="#000000" cx="460.8053" cy="-174.0069" rx="3.2" ry="3.2"/>
</g>
<!-- Subjects&#45;&gt;TechnicalCareers -->
<g id="edge46" class="edge">
<title>Subjects:w&#45;&gt;TechnicalCareers:e</title>
<path fill="none" stroke="#000000" d="M457.3948,-174.362C407.7148,-179.4032 393.6746,-211.3603 361,-257.6638 322.3018,-312.5035 382.6188,-401.6638 315.5,-401.6638"/>
<polygon fill="#000000" stroke="#000000" points="464.0091,-174.0458 472.1719,-177.2597 468.0046,-173.8548 472,-173.6638 472,-173.6638 472,-173.6638 468.0046,-173.8548 471.8281,-170.0679 464.0091,-174.0458 464.0091,-174.0458"/>
<ellipse fill="none" stroke="#000000" cx="460.8128" cy="-174.1986" rx="3.2" ry="3.2"/>
</g>
<!-- Subjects&#45;&gt;Professors -->
<g id="edge45" class="edge">
<title>Subjects:w&#45;&gt;Professors:e</title>
<path fill="none" stroke="#000000" d="M457.4225,-174.6455C381.327,-185.3316 382.462,-279.6638 296.5,-279.6638"/>
<polygon fill="#000000" stroke="#000000" points="464.0181,-174.2014 472.2419,-177.2557 468.009,-173.9326 472,-173.6638 472,-173.6638 472,-173.6638 468.009,-173.9326 471.7581,-170.0719 464.0181,-174.2014 464.0181,-174.2014"/>
<ellipse fill="none" stroke="#000000" cx="460.8253" cy="-174.4164" rx="3.2" ry="3.2"/>
</g>
</g>
</svg>
