<?xml version="1.0" encoding="UTF-8" standalone="no"?>
<!DOCTYPE svg PUBLIC "-//W3C//DTD SVG 1.1//EN"
 "http://www.w3.org/Graphics/SVG/1.1/DTD/svg11.dtd">
<!-- Generated by graphviz version 2.40.1 (20161225.0304)
 -->
<!-- Title: twoDegreesRelationshipsDiagram Pages: 1 -->
<svg width="1173pt" height="1249pt"
 viewBox="0.00 0.00 1173.00 1249.37" xmlns="http://www.w3.org/2000/svg" xmlns:xlink="http://www.w3.org/1999/xlink">
<g id="graph0" class="graph" transform="scale(1 1) rotate(0) translate(4 1245.3655)">
<title>twoDegreesRelationshipsDiagram</title>
<polygon fill="#ffffff" stroke="transparent" points="-4,4 -4,-1245.3655 1169,-1245.3655 1169,4 -4,4"/>
<text text-anchor="middle" x="72.4936" y="-7.3" font-family="Helvetica,sans-Serif" font-size="11.00" fill="#000000">Generated by SchemaSpy</text>
<!-- AspNetUserClaims -->
<g id="node1" class="node">
<title>AspNetUserClaims</title>
<g id="a_node1"><a xlink:href="../../tables/AspNetUserClaims.html" xlink:title="AspNetUserClaims" target="_top">
<polygon fill="#ffffff" stroke="transparent" points="207,-1176.3655 207,-1237.3655 354,-1237.3655 354,-1176.3655 207,-1176.3655"/>
<polygon fill="#f5f5f5" stroke="transparent" points="207.5,-1213.8655 207.5,-1236.8655 354.5,-1236.8655 354.5,-1213.8655 207.5,-1213.8655"/>
<polygon fill="none" stroke="#000000" points="207.5,-1213.8655 207.5,-1236.8655 354.5,-1236.8655 354.5,-1213.8655 207.5,-1213.8655"/>
<text text-anchor="start" x="212.5" y="-1222.4655" font-family="Helvetica,sans-Serif" font-weight="bold" font-size="11.00" fill="#000000">AspNetUserClaims</text>
<text text-anchor="start" x="320.0219" y="-1221.9655" font-family="Helvetica,sans-Serif" font-size="11.00" fill="#000000">[table]</text>
<polygon fill="none" stroke="#000000" points="207.5,-1194.8655 207.5,-1213.8655 354.5,-1213.8655 354.5,-1194.8655 207.5,-1194.8655"/>
<text text-anchor="start" x="210.5" y="-1200.9655" font-family="Helvetica,sans-Serif" font-size="11.00" fill="#000000">...</text>
<polygon fill="#ffffff" stroke="transparent" points="207.5,-1175.8655 207.5,-1194.8655 266.5,-1194.8655 266.5,-1175.8655 207.5,-1175.8655"/>
<polygon fill="none" stroke="#000000" points="207.5,-1175.8655 207.5,-1194.8655 266.5,-1194.8655 266.5,-1175.8655 207.5,-1175.8655"/>
<text text-anchor="start" x="210.5" y="-1181.9655" font-family="Helvetica,sans-Serif" font-size="11.00" fill="#000000">&lt; 1</text>
<polygon fill="#ffffff" stroke="transparent" points="266.5,-1175.8655 266.5,-1194.8655 323.5,-1194.8655 323.5,-1175.8655 266.5,-1175.8655"/>
<polygon fill="none" stroke="#000000" points="266.5,-1175.8655 266.5,-1194.8655 323.5,-1194.8655 323.5,-1175.8655 266.5,-1175.8655"/>
<text text-anchor="start" x="288.1105" y="-1181.9655" font-family="Helvetica,sans-Serif" font-size="11.00" fill="#000000">0 rows</text>
<polygon fill="#ffffff" stroke="transparent" points="323.5,-1175.8655 323.5,-1194.8655 354.5,-1194.8655 354.5,-1175.8655 323.5,-1175.8655"/>
<polygon fill="none" stroke="#000000" points="323.5,-1175.8655 323.5,-1194.8655 354.5,-1194.8655 354.5,-1175.8655 323.5,-1175.8655"/>
<text text-anchor="start" x="345.3862" y="-1181.9655" font-family="Helvetica,sans-Serif" font-size="11.00" fill="#000000"> &#160;</text>
</a>
</g>
</g>
<!-- AspNetUsers -->
<g id="node2" class="node">
<title>AspNetUsers</title>
<g id="a_node2"><a xlink:href="../../tables/AspNetUsers.html" xlink:title="AspNetUsers" target="_top">
<polygon fill="#ffffff" stroke="transparent" points="8,-404.3655 8,-465.3655 122,-465.3655 122,-404.3655 8,-404.3655"/>
<polygon fill="#f5f5f5" stroke="transparent" points="8,-441.8655 8,-464.8655 122,-464.8655 122,-441.8655 8,-441.8655"/>
<polygon fill="none" stroke="#000000" points="8,-441.8655 8,-464.8655 122,-464.8655 122,-441.8655 8,-441.8655"/>
<text text-anchor="start" x="13" y="-450.4655" font-family="Helvetica,sans-Serif" font-weight="bold" font-size="11.00" fill="#000000">AspNetUsers</text>
<text text-anchor="start" x="87.5219" y="-449.9655" font-family="Helvetica,sans-Serif" font-size="11.00" fill="#000000">[table]</text>
<polygon fill="none" stroke="#000000" points="8,-422.8655 8,-441.8655 122,-441.8655 122,-422.8655 8,-422.8655"/>
<text text-anchor="start" x="11" y="-428.9655" font-family="Helvetica,sans-Serif" font-size="11.00" fill="#000000">...</text>
<polygon fill="#ffffff" stroke="transparent" points="8,-403.8655 8,-422.8655 38,-422.8655 38,-403.8655 8,-403.8655"/>
<polygon fill="none" stroke="#000000" points="8,-403.8655 8,-422.8655 38,-422.8655 38,-403.8655 8,-403.8655"/>
<text text-anchor="start" x="11" y="-409.9655" font-family="Helvetica,sans-Serif" font-size="11.00" fill="#000000"> &#160;</text>
<polygon fill="#ffffff" stroke="transparent" points="38,-403.8655 38,-422.8655 85,-422.8655 85,-403.8655 38,-403.8655"/>
<polygon fill="none" stroke="#000000" points="38,-403.8655 38,-422.8655 85,-422.8655 85,-403.8655 38,-403.8655"/>
<text text-anchor="start" x="49.6105" y="-409.9655" font-family="Helvetica,sans-Serif" font-size="11.00" fill="#000000">0 rows</text>
<polygon fill="#ffffff" stroke="transparent" points="85,-403.8655 85,-422.8655 122,-422.8655 122,-403.8655 85,-403.8655"/>
<polygon fill="none" stroke="#000000" points="85,-403.8655 85,-422.8655 122,-422.8655 122,-403.8655 85,-403.8655"/>
<text text-anchor="start" x="97.2904" y="-409.9655" font-family="Helvetica,sans-Serif" font-size="11.00" fill="#000000">29 &gt;</text>
</a>
</g>
</g>
<!-- AspNetUserClaims&#45;&gt;AspNetUsers -->
<g id="edge1" class="edge">
<title>AspNetUserClaims:w&#45;&gt;AspNetUsers:e</title>
<path fill="none" stroke="#000000" d="M193.0212,-1201.7676C178.5381,-1196.8657 172.717,-1183.7098 163,-1165.8655 96.0998,-1043.0104 72.0084,-597.3474 66.3859,-469.4182"/>
<polygon fill="#000000" stroke="#000000" points="199.5827,-1202.7182 206.9837,-1207.4283 203.5413,-1203.2919 207.5,-1203.8655 207.5,-1203.8655 207.5,-1203.8655 203.5413,-1203.2919 208.0163,-1200.3027 199.5827,-1202.7182 199.5827,-1202.7182"/>
<ellipse fill="none" stroke="#000000" cx="196.4158" cy="-1202.2593" rx="3.2" ry="3.2"/>
</g>
<!-- AspNetUserLogins -->
<g id="node3" class="node">
<title>AspNetUserLogins</title>
<g id="a_node3"><a xlink:href="../../tables/AspNetUserLogins.html" xlink:title="AspNetUserLogins" target="_top">
<polygon fill="#ffffff" stroke="transparent" points="207,-1094.3655 207,-1155.3655 354,-1155.3655 354,-1094.3655 207,-1094.3655"/>
<polygon fill="#f5f5f5" stroke="transparent" points="207.5,-1131.8655 207.5,-1154.8655 354.5,-1154.8655 354.5,-1131.8655 207.5,-1131.8655"/>
<polygon fill="none" stroke="#000000" points="207.5,-1131.8655 207.5,-1154.8655 354.5,-1154.8655 354.5,-1131.8655 207.5,-1131.8655"/>
<text text-anchor="start" x="212.5" y="-1140.4655" font-family="Helvetica,sans-Serif" font-weight="bold" font-size="11.00" fill="#000000">AspNetUserLogins</text>
<text text-anchor="start" x="320.0219" y="-1139.9655" font-family="Helvetica,sans-Serif" font-size="11.00" fill="#000000">[table]</text>
<polygon fill="none" stroke="#000000" points="207.5,-1112.8655 207.5,-1131.8655 354.5,-1131.8655 354.5,-1112.8655 207.5,-1112.8655"/>
<text text-anchor="start" x="210.5" y="-1118.9655" font-family="Helvetica,sans-Serif" font-size="11.00" fill="#000000">...</text>
<polygon fill="#ffffff" stroke="transparent" points="207.5,-1093.8655 207.5,-1112.8655 266.5,-1112.8655 266.5,-1093.8655 207.5,-1093.8655"/>
<polygon fill="none" stroke="#000000" points="207.5,-1093.8655 207.5,-1112.8655 266.5,-1112.8655 266.5,-1093.8655 207.5,-1093.8655"/>
<text text-anchor="start" x="210.5" y="-1099.9655" font-family="Helvetica,sans-Serif" font-size="11.00" fill="#000000">&lt; 1</text>
<polygon fill="#ffffff" stroke="transparent" points="266.5,-1093.8655 266.5,-1112.8655 323.5,-1112.8655 323.5,-1093.8655 266.5,-1093.8655"/>
<polygon fill="none" stroke="#000000" points="266.5,-1093.8655 266.5,-1112.8655 323.5,-1112.8655 323.5,-1093.8655 266.5,-1093.8655"/>
<text text-anchor="start" x="288.1105" y="-1099.9655" font-family="Helvetica,sans-Serif" font-size="11.00" fill="#000000">0 rows</text>
<polygon fill="#ffffff" stroke="transparent" points="323.5,-1093.8655 323.5,-1112.8655 354.5,-1112.8655 354.5,-1093.8655 323.5,-1093.8655"/>
<polygon fill="none" stroke="#000000" points="323.5,-1093.8655 323.5,-1112.8655 354.5,-1112.8655 354.5,-1093.8655 323.5,-1093.8655"/>
<text text-anchor="start" x="345.3862" y="-1099.9655" font-family="Helvetica,sans-Serif" font-size="11.00" fill="#000000"> &#160;</text>
</a>
</g>
</g>
<!-- AspNetUserLogins&#45;&gt;AspNetUsers -->
<g id="edge2" class="edge">
<title>AspNetUserLogins:w&#45;&gt;AspNetUsers:e</title>
<path fill="none" stroke="#000000" d="M193.0424,-1119.7559C178.6027,-1114.8301 172.8648,-1101.6285 163,-1083.8655 103.2497,-976.2765 74.5605,-588.2117 67.0538,-469.5681"/>
<polygon fill="#000000" stroke="#000000" points="199.5838,-1120.7103 206.9802,-1125.4278 203.5419,-1121.2879 207.5,-1121.8655 207.5,-1121.8655 207.5,-1121.8655 203.5419,-1121.2879 208.0198,-1118.3032 199.5838,-1120.7103 199.5838,-1120.7103"/>
<ellipse fill="none" stroke="#000000" cx="196.4174" cy="-1120.2483" rx="3.2" ry="3.2"/>
</g>
<!-- AspNetUserRoles -->
<g id="node4" class="node">
<title>AspNetUserRoles</title>
<g id="a_node4"><a xlink:href="../../tables/AspNetUserRoles.html" xlink:title="AspNetUserRoles" target="_top">
<polygon fill="#ffffff" stroke="transparent" points="210.5,-1012.3655 210.5,-1073.3655 350.5,-1073.3655 350.5,-1012.3655 210.5,-1012.3655"/>
<polygon fill="#f5f5f5" stroke="transparent" points="210.5,-1049.8655 210.5,-1072.8655 350.5,-1072.8655 350.5,-1049.8655 210.5,-1049.8655"/>
<polygon fill="none" stroke="#000000" points="210.5,-1049.8655 210.5,-1072.8655 350.5,-1072.8655 350.5,-1049.8655 210.5,-1049.8655"/>
<text text-anchor="start" x="215.5" y="-1058.4655" font-family="Helvetica,sans-Serif" font-weight="bold" font-size="11.00" fill="#000000">AspNetUserRoles</text>
<text text-anchor="start" x="316.0219" y="-1057.9655" font-family="Helvetica,sans-Serif" font-size="11.00" fill="#000000">[table]</text>
<polygon fill="none" stroke="#000000" points="210.5,-1030.8655 210.5,-1049.8655 350.5,-1049.8655 350.5,-1030.8655 210.5,-1030.8655"/>
<text text-anchor="start" x="213.5" y="-1036.9655" font-family="Helvetica,sans-Serif" font-size="11.00" fill="#000000">...</text>
<polygon fill="#ffffff" stroke="transparent" points="210.5,-1011.8655 210.5,-1030.8655 265.5,-1030.8655 265.5,-1011.8655 210.5,-1011.8655"/>
<polygon fill="none" stroke="#000000" points="210.5,-1011.8655 210.5,-1030.8655 265.5,-1030.8655 265.5,-1011.8655 210.5,-1011.8655"/>
<text text-anchor="start" x="213.5" y="-1017.9655" font-family="Helvetica,sans-Serif" font-size="11.00" fill="#000000">&lt; 2</text>
<polygon fill="#ffffff" stroke="transparent" points="265.5,-1011.8655 265.5,-1030.8655 320.5,-1030.8655 320.5,-1011.8655 265.5,-1011.8655"/>
<polygon fill="none" stroke="#000000" points="265.5,-1011.8655 265.5,-1030.8655 320.5,-1030.8655 320.5,-1011.8655 265.5,-1011.8655"/>
<text text-anchor="start" x="285.1105" y="-1017.9655" font-family="Helvetica,sans-Serif" font-size="11.00" fill="#000000">0 rows</text>
<polygon fill="#ffffff" stroke="transparent" points="320.5,-1011.8655 320.5,-1030.8655 350.5,-1030.8655 350.5,-1011.8655 320.5,-1011.8655"/>
<polygon fill="none" stroke="#000000" points="320.5,-1011.8655 320.5,-1030.8655 350.5,-1030.8655 350.5,-1011.8655 320.5,-1011.8655"/>
<text text-anchor="start" x="341.3862" y="-1017.9655" font-family="Helvetica,sans-Serif" font-size="11.00" fill="#000000"> &#160;</text>
</a>
</g>
</g>
<!-- AspNetUserRoles&#45;&gt;AspNetUsers -->
<g id="edge3" class="edge">
<title>AspNetUserRoles:w&#45;&gt;AspNetUsers:e</title>
<path fill="none" stroke="#000000" d="M196.1154,-1037.5845C90.4884,-1003.3181 69.7071,-592.7223 65.8402,-469.5659"/>
<polygon fill="#000000" stroke="#000000" points="202.5987,-1038.6125 209.9362,-1043.421 206.5494,-1039.239 210.5,-1039.8655 210.5,-1039.8655 210.5,-1039.8655 206.5494,-1039.239 211.0638,-1036.3099 202.5987,-1038.6125 202.5987,-1038.6125"/>
<ellipse fill="none" stroke="#000000" cx="199.4382" cy="-1038.1114" rx="3.2" ry="3.2"/>
</g>
<!-- AspNetUserTokens -->
<g id="node5" class="node">
<title>AspNetUserTokens</title>
<g id="a_node5"><a xlink:href="../../tables/AspNetUserTokens.html" xlink:title="AspNetUserTokens" target="_top">
<polygon fill="#ffffff" stroke="transparent" points="206,-930.3655 206,-991.3655 355,-991.3655 355,-930.3655 206,-930.3655"/>
<polygon fill="#f5f5f5" stroke="transparent" points="206.5,-967.8655 206.5,-990.8655 355.5,-990.8655 355.5,-967.8655 206.5,-967.8655"/>
<polygon fill="none" stroke="#000000" points="206.5,-967.8655 206.5,-990.8655 355.5,-990.8655 355.5,-967.8655 206.5,-967.8655"/>
<text text-anchor="start" x="211.5" y="-976.4655" font-family="Helvetica,sans-Serif" font-weight="bold" font-size="11.00" fill="#000000">AspNetUserTokens</text>
<text text-anchor="start" x="321.0219" y="-975.9655" font-family="Helvetica,sans-Serif" font-size="11.00" fill="#000000">[table]</text>
<polygon fill="none" stroke="#000000" points="206.5,-948.8655 206.5,-967.8655 355.5,-967.8655 355.5,-948.8655 206.5,-948.8655"/>
<text text-anchor="start" x="209.5" y="-954.9655" font-family="Helvetica,sans-Serif" font-size="11.00" fill="#000000">...</text>
<polygon fill="#ffffff" stroke="transparent" points="206.5,-929.8655 206.5,-948.8655 266.5,-948.8655 266.5,-929.8655 206.5,-929.8655"/>
<polygon fill="none" stroke="#000000" points="206.5,-929.8655 206.5,-948.8655 266.5,-948.8655 266.5,-929.8655 206.5,-929.8655"/>
<text text-anchor="start" x="209.5" y="-935.9655" font-family="Helvetica,sans-Serif" font-size="11.00" fill="#000000">&lt; 1</text>
<polygon fill="#ffffff" stroke="transparent" points="266.5,-929.8655 266.5,-948.8655 323.5,-948.8655 323.5,-929.8655 266.5,-929.8655"/>
<polygon fill="none" stroke="#000000" points="266.5,-929.8655 266.5,-948.8655 323.5,-948.8655 323.5,-929.8655 266.5,-929.8655"/>
<text text-anchor="start" x="288.1105" y="-935.9655" font-family="Helvetica,sans-Serif" font-size="11.00" fill="#000000">0 rows</text>
<polygon fill="#ffffff" stroke="transparent" points="323.5,-929.8655 323.5,-948.8655 355.5,-948.8655 355.5,-929.8655 323.5,-929.8655"/>
<polygon fill="none" stroke="#000000" points="323.5,-929.8655 323.5,-948.8655 355.5,-948.8655 355.5,-929.8655 323.5,-929.8655"/>
<text text-anchor="start" x="346.3862" y="-935.9655" font-family="Helvetica,sans-Serif" font-size="11.00" fill="#000000"> &#160;</text>
</a>
</g>
</g>
<!-- AspNetUserTokens&#45;&gt;AspNetUsers -->
<g id="edge4" class="edge">
<title>AspNetUserTokens:w&#45;&gt;AspNetUsers:e</title>
<path fill="none" stroke="#000000" d="M192.1352,-955.2814C102.0645,-922.1963 73.7369,-580.6922 66.8687,-469.586"/>
<polygon fill="#000000" stroke="#000000" points="198.6264,-956.4491 205.8626,-961.4086 202.5632,-957.1573 206.5,-957.8655 206.5,-957.8655 206.5,-957.8655 202.5632,-957.1573 207.1374,-954.3223 198.6264,-956.4491 198.6264,-956.4491"/>
<ellipse fill="none" stroke="#000000" cx="195.4769" cy="-955.8825" rx="3.2" ry="3.2"/>
</g>
<!-- Competencies -->
<g id="node6" class="node">
<title>Competencies</title>
<g id="a_node6"><a xlink:href="../../tables/Competencies.html" xlink:title="Competencies" target="_top">
<polygon fill="#ffffff" stroke="transparent" points="171,-547.8655 171,-791.8655 390,-791.8655 390,-547.8655 171,-547.8655"/>
<polygon fill="#f5f5f5" stroke="transparent" points="173.5,-766.8655 173.5,-789.8655 388.5,-789.8655 388.5,-766.8655 173.5,-766.8655"/>
<polygon fill="none" stroke="#000000" points="173.5,-766.8655 173.5,-789.8655 388.5,-789.8655 388.5,-766.8655 173.5,-766.8655"/>
<text text-anchor="start" x="178.5" y="-775.4655" font-family="Helvetica,sans-Serif" font-weight="bold" font-size="11.00" fill="#000000">Competencies</text>
<text text-anchor="start" x="353.5437" y="-774.9655" font-family="Helvetica,sans-Serif" font-size="11.00" fill="#000000">[table]</text>
<polygon fill="none" stroke="#000000" points="173.5,-744.8655 173.5,-766.8655 294.5,-766.8655 294.5,-744.8655 173.5,-744.8655"/>
<image xlink:href="../../images/primaryKeys.png" width="11px" height="12px" preserveAspectRatio="xMinYMin meet" x="178.5" y="-761.865"/>
<text text-anchor="start" x="193.5" y="-751.9655" font-family="Helvetica,sans-Serif" font-size="11.00" fill="#000000">Id</text>
<polygon fill="none" stroke="#000000" points="294.5,-744.8655 294.5,-766.8655 388.5,-766.8655 388.5,-744.8655 294.5,-744.8655"/>
<text text-anchor="start" x="297.4758" y="-752.5655" font-family="Helvetica,sans-Serif" font-size="11.00" fill="#000000">uuid[2147483647]</text>
<polygon fill="none" stroke="#000000" points="173.5,-722.8655 173.5,-744.8655 294.5,-744.8655 294.5,-722.8655 173.5,-722.8655"/>
<text text-anchor="start" x="193.5" y="-729.9655" font-family="Helvetica,sans-Serif" font-size="11.00" fill="#000000">Name</text>
<polygon fill="none" stroke="#000000" points="294.5,-722.8655 294.5,-744.8655 388.5,-744.8655 388.5,-722.8655 294.5,-722.8655"/>
<text text-anchor="start" x="297.5" y="-730.5655" font-family="Helvetica,sans-Serif" font-size="11.00" fill="#000000">text[2147483647]</text>
<polygon fill="none" stroke="#000000" points="173.5,-700.8655 173.5,-722.8655 294.5,-722.8655 294.5,-700.8655 173.5,-700.8655"/>
<text text-anchor="start" x="193.5" y="-707.9655" font-family="Helvetica,sans-Serif" font-size="11.00" fill="#000000">Description</text>
<polygon fill="none" stroke="#000000" points="294.5,-700.8655 294.5,-722.8655 388.5,-722.8655 388.5,-700.8655 294.5,-700.8655"/>
<text text-anchor="start" x="297.5" y="-708.5655" font-family="Helvetica,sans-Serif" font-size="11.00" fill="#000000">text[2147483647]</text>
<polygon fill="none" stroke="#000000" points="173.5,-678.8655 173.5,-700.8655 294.5,-700.8655 294.5,-678.8655 173.5,-678.8655"/>
<text text-anchor="start" x="193.5" y="-685.9655" font-family="Helvetica,sans-Serif" font-size="11.00" fill="#000000">Type</text>
<polygon fill="none" stroke="#000000" points="294.5,-678.8655 294.5,-700.8655 388.5,-700.8655 388.5,-678.8655 294.5,-678.8655"/>
<text text-anchor="start" x="297.5" y="-686.5655" font-family="Helvetica,sans-Serif" font-size="11.00" fill="#000000">int4[10]</text>
<polygon fill="none" stroke="#000000" points="173.5,-656.8655 173.5,-678.8655 294.5,-678.8655 294.5,-656.8655 173.5,-656.8655"/>
<text text-anchor="start" x="193.5" y="-663.9655" font-family="Helvetica,sans-Serif" font-size="11.00" fill="#000000">IsActive</text>
<polygon fill="none" stroke="#000000" points="294.5,-656.8655 294.5,-678.8655 388.5,-678.8655 388.5,-656.8655 294.5,-656.8655"/>
<text text-anchor="start" x="297.5" y="-664.5655" font-family="Helvetica,sans-Serif" font-size="11.00" fill="#000000">bool[1]</text>
<polygon fill="none" stroke="#000000" points="173.5,-634.8655 173.5,-656.8655 294.5,-656.8655 294.5,-634.8655 173.5,-634.8655"/>
<text text-anchor="start" x="193.5" y="-641.9655" font-family="Helvetica,sans-Serif" font-size="11.00" fill="#000000">CreatedAt</text>
<polygon fill="none" stroke="#000000" points="294.5,-634.8655 294.5,-656.8655 388.5,-656.8655 388.5,-634.8655 294.5,-634.8655"/>
<text text-anchor="start" x="297.5" y="-642.5655" font-family="Helvetica,sans-Serif" font-size="11.00" fill="#000000">timestamptz[35,6]</text>
<polygon fill="none" stroke="#000000" points="173.5,-612.8655 173.5,-634.8655 294.5,-634.8655 294.5,-612.8655 173.5,-612.8655"/>
<text text-anchor="start" x="193.5" y="-619.9655" font-family="Helvetica,sans-Serif" font-size="11.00" fill="#000000">UpdatedAt</text>
<polygon fill="none" stroke="#000000" points="294.5,-612.8655 294.5,-634.8655 388.5,-634.8655 388.5,-612.8655 294.5,-612.8655"/>
<text text-anchor="start" x="297.5" y="-620.5655" font-family="Helvetica,sans-Serif" font-size="11.00" fill="#000000">timestamptz[35,6]</text>
<polygon fill="#ffffff" stroke="transparent" points="173.5,-590.8655 173.5,-612.8655 294.5,-612.8655 294.5,-590.8655 173.5,-590.8655"/>
<polygon fill="none" stroke="#000000" points="173.5,-590.8655 173.5,-612.8655 294.5,-612.8655 294.5,-590.8655 173.5,-590.8655"/>
<image xlink:href="../../images/foreignKeys.png" width="11px" height="12px" preserveAspectRatio="xMinYMin meet" x="178.5" y="-607.865"/>
<text text-anchor="start" x="193.5" y="-597.9655" font-family="Helvetica,sans-Serif" font-size="11.00" fill="#000000">CreatedByUserId</text>
<polygon fill="none" stroke="#000000" points="294.5,-590.8655 294.5,-612.8655 388.5,-612.8655 388.5,-590.8655 294.5,-590.8655"/>
<text text-anchor="start" x="297.5" y="-598.5655" font-family="Helvetica,sans-Serif" font-size="11.00" fill="#000000">text[2147483647]</text>
<polygon fill="#ffffff" stroke="transparent" points="173.5,-568.8655 173.5,-590.8655 294.5,-590.8655 294.5,-568.8655 173.5,-568.8655"/>
<polygon fill="none" stroke="#000000" points="173.5,-568.8655 173.5,-590.8655 294.5,-590.8655 294.5,-568.8655 173.5,-568.8655"/>
<image xlink:href="../../images/foreignKeys.png" width="11px" height="12px" preserveAspectRatio="xMinYMin meet" x="178.5" y="-585.865"/>
<text text-anchor="start" x="193.5" y="-575.9655" font-family="Helvetica,sans-Serif" font-size="11.00" fill="#000000">UpdatedByUserId</text>
<polygon fill="none" stroke="#000000" points="294.5,-568.8655 294.5,-590.8655 388.5,-590.8655 388.5,-568.8655 294.5,-568.8655"/>
<text text-anchor="start" x="297.5" y="-576.5655" font-family="Helvetica,sans-Serif" font-size="11.00" fill="#000000">text[2147483647]</text>
<polygon fill="#ffffff" stroke="transparent" points="173.5,-549.8655 173.5,-568.8655 225.5,-568.8655 225.5,-549.8655 173.5,-549.8655"/>
<polygon fill="none" stroke="#000000" points="173.5,-549.8655 173.5,-568.8655 225.5,-568.8655 225.5,-549.8655 173.5,-549.8655"/>
<text text-anchor="start" x="176.5" y="-555.9655" font-family="Helvetica,sans-Serif" font-size="11.00" fill="#000000">&lt; 2</text>
<polygon fill="#ffffff" stroke="transparent" points="225.5,-549.8655 225.5,-568.8655 294.5,-568.8655 294.5,-549.8655 225.5,-549.8655"/>
<polygon fill="none" stroke="#000000" points="225.5,-549.8655 225.5,-568.8655 294.5,-568.8655 294.5,-549.8655 225.5,-549.8655"/>
<text text-anchor="start" x="259.1105" y="-555.9655" font-family="Helvetica,sans-Serif" font-size="11.00" fill="#000000">0 rows</text>
<polygon fill="#ffffff" stroke="transparent" points="294.5,-549.8655 294.5,-568.8655 388.5,-568.8655 388.5,-549.8655 294.5,-549.8655"/>
<polygon fill="none" stroke="#000000" points="294.5,-549.8655 294.5,-568.8655 388.5,-568.8655 388.5,-549.8655 294.5,-549.8655"/>
<text text-anchor="start" x="369.9053" y="-555.9655" font-family="Helvetica,sans-Serif" font-size="11.00" fill="#000000">4 &gt;</text>
<polygon fill="none" stroke="#000000" stroke-width="2" points="172,-548.8655 172,-790.8655 389,-790.8655 389,-548.8655 172,-548.8655"/>
</a>
</g>
</g>
<!-- Competencies&#45;&gt;AspNetUsers -->
<g id="edge5" class="edge">
<title>Competencies:w&#45;&gt;AspNetUsers:e</title>
<path fill="none" stroke="#000000" d="M159.1162,-600.3201C106.4925,-588.7169 81.6943,-514.4663 71.3673,-469.468"/>
<polygon fill="#000000" stroke="#000000" points="165.5458,-601.0108 173.1154,-605.4449 169.5229,-601.4382 173.5,-601.8655 173.5,-601.8655 173.5,-601.8655 169.5229,-601.4382 173.8846,-598.2861 165.5458,-601.0108 165.5458,-601.0108"/>
<ellipse fill="none" stroke="#000000" cx="162.3641" cy="-600.669" rx="3.2" ry="3.2"/>
</g>
<!-- Competencies&#45;&gt;AspNetUsers -->
<g id="edge6" class="edge">
<title>Competencies:w&#45;&gt;AspNetUsers:e</title>
<path fill="none" stroke="#000000" d="M159.0012,-578.2334C113.1794,-567.7027 86.8828,-508.5557 74.3064,-469.5966"/>
<polygon fill="#000000" stroke="#000000" points="165.5502,-578.9705 173.0973,-583.4429 169.5251,-579.418 173.5,-579.8655 173.5,-579.8655 173.5,-579.8655 169.5251,-579.418 173.9027,-576.2881 165.5502,-578.9705 165.5502,-578.9705"/>
<ellipse fill="none" stroke="#000000" cx="162.3703" cy="-578.6125" rx="3.2" ry="3.2"/>
</g>
<!-- CompetencyLevelDescriptions -->
<g id="node7" class="node">
<title>CompetencyLevelDescriptions</title>
<g id="a_node7"><a xlink:href="../../tables/CompetencyLevelDescriptions.html" xlink:title="CompetencyLevelDescriptions" target="_top">
<polygon fill="#ffffff" stroke="transparent" points="453,-890.3655 453,-951.3655 667,-951.3655 667,-890.3655 453,-890.3655"/>
<polygon fill="#f5f5f5" stroke="transparent" points="453,-927.8655 453,-950.8655 667,-950.8655 667,-927.8655 453,-927.8655"/>
<polygon fill="none" stroke="#000000" points="453,-927.8655 453,-950.8655 667,-950.8655 667,-927.8655 453,-927.8655"/>
<text text-anchor="start" x="458" y="-936.4655" font-family="Helvetica,sans-Serif" font-weight="bold" font-size="11.00" fill="#000000">CompetencyLevelDescriptions</text>
<text text-anchor="start" x="632.5219" y="-935.9655" font-family="Helvetica,sans-Serif" font-size="11.00" fill="#000000">[table]</text>
<polygon fill="none" stroke="#000000" points="453,-908.8655 453,-927.8655 667,-927.8655 667,-908.8655 453,-908.8655"/>
<text text-anchor="start" x="456" y="-914.9655" font-family="Helvetica,sans-Serif" font-size="11.00" fill="#000000">...</text>
<polygon fill="#ffffff" stroke="transparent" points="453,-889.8655 453,-908.8655 545,-908.8655 545,-889.8655 453,-889.8655"/>
<polygon fill="none" stroke="#000000" points="453,-889.8655 453,-908.8655 545,-908.8655 545,-889.8655 453,-889.8655"/>
<text text-anchor="start" x="456" y="-895.9655" font-family="Helvetica,sans-Serif" font-size="11.00" fill="#000000">&lt; 3</text>
<polygon fill="#ffffff" stroke="transparent" points="545,-889.8655 545,-908.8655 619,-908.8655 619,-889.8655 545,-889.8655"/>
<polygon fill="none" stroke="#000000" points="545,-889.8655 545,-908.8655 619,-908.8655 619,-889.8655 545,-889.8655"/>
<text text-anchor="start" x="583.6105" y="-895.9655" font-family="Helvetica,sans-Serif" font-size="11.00" fill="#000000">0 rows</text>
<polygon fill="#ffffff" stroke="transparent" points="619,-889.8655 619,-908.8655 667,-908.8655 667,-889.8655 619,-889.8655"/>
<polygon fill="none" stroke="#000000" points="619,-889.8655 619,-908.8655 667,-908.8655 667,-889.8655 619,-889.8655"/>
<text text-anchor="start" x="657.8862" y="-895.9655" font-family="Helvetica,sans-Serif" font-size="11.00" fill="#000000"> &#160;</text>
</a>
</g>
</g>
<!-- CompetencyLevelDescriptions&#45;&gt;AspNetUsers -->
<g id="edge8" class="edge">
<title>CompetencyLevelDescriptions:w&#45;&gt;AspNetUsers:e</title>
<path fill="none" stroke="#000000" d="M430.2613,-913.6427C329.6995,-907.8231 201.2377,-894.9515 163,-859.8655 104.9043,-806.5582 76.9299,-561.1052 68.1539,-469.4444"/>
<polygon fill="#000000" stroke="#000000" points="436.8941,-914.0098 444.6829,-918.0465 440.888,-914.2309 444.8818,-914.452 444.8818,-914.452 444.8818,-914.452 440.888,-914.2309 445.0808,-910.8575 436.8941,-914.0098 436.8941,-914.0098"/>
<ellipse fill="none" stroke="#000000" cx="433.699" cy="-913.8329" rx="3.2" ry="3.2"/>
</g>
<!-- CompetencyLevelDescriptions&#45;&gt;AspNetUsers -->
<g id="edge9" class="edge">
<title>CompetencyLevelDescriptions:w&#45;&gt;AspNetUsers:e</title>
<path fill="none" stroke="#000000" d="M430.2613,-924.071C329.6995,-920.8231 201.2377,-907.9515 163,-872.8655 103.6321,-818.3909 75.7192,-563.2633 67.6049,-469.4717"/>
<polygon fill="#000000" stroke="#000000" points="436.885,-924.2571 444.7807,-928.0805 440.8834,-924.3695 444.8818,-924.4819 444.8818,-924.4819 444.8818,-924.4819 440.8834,-924.3695 444.983,-920.8833 436.885,-924.2571 436.885,-924.2571"/>
<ellipse fill="none" stroke="#000000" cx="433.6863" cy="-924.1672" rx="3.2" ry="3.2"/>
</g>
<!-- CompetencyLevelDescriptions&#45;&gt;Competencies -->
<g id="edge7" class="edge">
<title>CompetencyLevelDescriptions:w&#45;&gt;Competencies:e</title>
<path fill="none" stroke="#000000" d="M432.9986,-881.7608C432.3227,-881.139 431.6563,-880.5072 431,-879.8655 389.3451,-839.1359 446.7583,-755.8655 388.5,-755.8655"/>
<polygon fill="#000000" stroke="#000000" points="438.4288,-886.0419 442.4823,-893.822 441.57,-888.5184 444.7111,-890.9949 444.7111,-890.9949 444.7111,-890.9949 441.57,-888.5184 446.94,-888.1678 438.4288,-886.0419 438.4288,-886.0419"/>
<ellipse fill="none" stroke="#000000" cx="435.9158" cy="-884.0607" rx="3.2" ry="3.2"/>
</g>
<!-- CompetencyTechnicalCareer -->
<g id="node8" class="node">
<title>CompetencyTechnicalCareer</title>
<g id="a_node8"><a xlink:href="../../tables/CompetencyTechnicalCareer.html" xlink:title="CompetencyTechnicalCareer" target="_top">
<polygon fill="#ffffff" stroke="transparent" points="458,-534.8655 458,-620.8655 662,-620.8655 662,-534.8655 458,-534.8655"/>
<polygon fill="#f5f5f5" stroke="transparent" points="458,-597.8655 458,-620.8655 662,-620.8655 662,-597.8655 458,-597.8655"/>
<polygon fill="none" stroke="#000000" points="458,-597.8655 458,-620.8655 662,-620.8655 662,-597.8655 458,-597.8655"/>
<text text-anchor="start" x="463" y="-606.4655" font-family="Helvetica,sans-Serif" font-weight="bold" font-size="11.00" fill="#000000">CompetencyTechnicalCareer</text>
<text text-anchor="start" x="627.5219" y="-605.9655" font-family="Helvetica,sans-Serif" font-size="11.00" fill="#000000">[table]</text>
<polygon fill="none" stroke="#000000" points="458,-575.8655 458,-597.8655 662,-597.8655 662,-575.8655 458,-575.8655"/>
<image xlink:href="../../images/primaryKeys.png" width="11px" height="12px" preserveAspectRatio="xMinYMin meet" x="463" y="-592.865"/>
<text text-anchor="start" x="487" y="-582.9655" font-family="Helvetica,sans-Serif" font-size="11.00" fill="#000000">CompetenciesId</text>
<polygon fill="none" stroke="#000000" points="458,-553.8655 458,-575.8655 662,-575.8655 662,-553.8655 458,-553.8655"/>
<image xlink:href="../../images/primaryKeys.png" width="11px" height="12px" preserveAspectRatio="xMinYMin meet" x="463" y="-570.865"/>
<text text-anchor="start" x="487" y="-560.9655" font-family="Helvetica,sans-Serif" font-size="11.00" fill="#000000">TechnicalCareersId</text>
<polygon fill="#ffffff" stroke="transparent" points="458,-534.8655 458,-553.8655 545,-553.8655 545,-534.8655 458,-534.8655"/>
<polygon fill="none" stroke="#000000" points="458,-534.8655 458,-553.8655 545,-553.8655 545,-534.8655 458,-534.8655"/>
<text text-anchor="start" x="461" y="-540.9655" font-family="Helvetica,sans-Serif" font-size="11.00" fill="#000000">&lt; 2</text>
<polygon fill="#ffffff" stroke="transparent" points="545,-534.8655 545,-553.8655 616,-553.8655 616,-534.8655 545,-534.8655"/>
<polygon fill="none" stroke="#000000" points="545,-534.8655 545,-553.8655 616,-553.8655 616,-534.8655 545,-534.8655"/>
<text text-anchor="start" x="580.6105" y="-540.9655" font-family="Helvetica,sans-Serif" font-size="11.00" fill="#000000">0 rows</text>
<polygon fill="#ffffff" stroke="transparent" points="616,-534.8655 616,-553.8655 662,-553.8655 662,-534.8655 616,-534.8655"/>
<polygon fill="none" stroke="#000000" points="616,-534.8655 616,-553.8655 662,-553.8655 662,-534.8655 616,-534.8655"/>
<text text-anchor="start" x="652.8862" y="-540.9655" font-family="Helvetica,sans-Serif" font-size="11.00" fill="#000000"> &#160;</text>
</a>
</g>
</g>
<!-- CompetencyTechnicalCareer&#45;&gt;Competencies -->
<g id="edge10" class="edge">
<title>CompetencyTechnicalCareer:w&#45;&gt;Competencies:e</title>
<path fill="none" stroke="#000000" d="M443.6747,-589.1267C388.6768,-609.1812 464.1628,-755.8655 388.5,-755.8655"/>
<polygon fill="#000000" stroke="#000000" points="450.0978,-588.1129 458.5613,-590.4214 454.0489,-587.4892 458,-586.8655 458,-586.8655 458,-586.8655 454.0489,-587.4892 457.4387,-583.3095 450.0978,-588.1129 450.0978,-588.1129"/>
<ellipse fill="none" stroke="#000000" cx="446.937" cy="-588.6118" rx="3.2" ry="3.2"/>
</g>
<!-- TechnicalCareers -->
<g id="node9" class="node">
<title>TechnicalCareers</title>
<g id="a_node9"><a xlink:href="../../tables/TechnicalCareers.html" xlink:title="TechnicalCareers" target="_top">
<polygon fill="#ffffff" stroke="transparent" points="211,-343.3655 211,-404.3655 350,-404.3655 350,-343.3655 211,-343.3655"/>
<polygon fill="#f5f5f5" stroke="transparent" points="211.5,-380.8655 211.5,-403.8655 350.5,-403.8655 350.5,-380.8655 211.5,-380.8655"/>
<polygon fill="none" stroke="#000000" points="211.5,-380.8655 211.5,-403.8655 350.5,-403.8655 350.5,-380.8655 211.5,-380.8655"/>
<text text-anchor="start" x="216.5" y="-389.4655" font-family="Helvetica,sans-Serif" font-weight="bold" font-size="11.00" fill="#000000">TechnicalCareers</text>
<text text-anchor="start" x="316.0219" y="-388.9655" font-family="Helvetica,sans-Serif" font-size="11.00" fill="#000000">[table]</text>
<polygon fill="none" stroke="#000000" points="211.5,-361.8655 211.5,-380.8655 350.5,-380.8655 350.5,-361.8655 211.5,-361.8655"/>
<text text-anchor="start" x="214.5" y="-367.9655" font-family="Helvetica,sans-Serif" font-size="11.00" fill="#000000">...</text>
<polygon fill="#ffffff" stroke="transparent" points="211.5,-342.8655 211.5,-361.8655 261.5,-361.8655 261.5,-342.8655 211.5,-342.8655"/>
<polygon fill="none" stroke="#000000" points="211.5,-342.8655 211.5,-361.8655 261.5,-361.8655 261.5,-342.8655 211.5,-342.8655"/>
<text text-anchor="start" x="214.5" y="-348.9655" font-family="Helvetica,sans-Serif" font-size="11.00" fill="#000000">&lt; 2</text>
<polygon fill="#ffffff" stroke="transparent" points="261.5,-342.8655 261.5,-361.8655 314.5,-361.8655 314.5,-342.8655 261.5,-342.8655"/>
<polygon fill="none" stroke="#000000" points="261.5,-342.8655 261.5,-361.8655 314.5,-361.8655 314.5,-342.8655 261.5,-342.8655"/>
<text text-anchor="start" x="279.1105" y="-348.9655" font-family="Helvetica,sans-Serif" font-size="11.00" fill="#000000">0 rows</text>
<polygon fill="#ffffff" stroke="transparent" points="314.5,-342.8655 314.5,-361.8655 350.5,-361.8655 350.5,-342.8655 314.5,-342.8655"/>
<polygon fill="none" stroke="#000000" points="314.5,-342.8655 314.5,-361.8655 350.5,-361.8655 350.5,-342.8655 314.5,-342.8655"/>
<text text-anchor="start" x="331.9053" y="-348.9655" font-family="Helvetica,sans-Serif" font-size="11.00" fill="#000000">6 &gt;</text>
</a>
</g>
</g>
<!-- CompetencyTechnicalCareer&#45;&gt;TechnicalCareers -->
<g id="edge11" class="edge">
<title>CompetencyTechnicalCareer:w&#45;&gt;TechnicalCareers:e</title>
<path fill="none" stroke="#000000" d="M443.4548,-563.1883C368.6677,-544.2269 443.684,-370.8655 350.5,-370.8655"/>
<polygon fill="#000000" stroke="#000000" points="450.0527,-563.9491 457.5876,-568.4418 454.0263,-564.4073 458,-564.8655 458,-564.8655 458,-564.8655 454.0263,-564.4073 458.4124,-561.2892 450.0527,-563.9491 450.0527,-563.9491"/>
<ellipse fill="none" stroke="#000000" cx="446.8737" cy="-563.5825" rx="3.2" ry="3.2"/>
</g>
<!-- TechnicalCareers&#45;&gt;AspNetUsers -->
<g id="edge48" class="edge">
<title>TechnicalCareers:w&#45;&gt;AspNetUsers:e</title>
<path fill="none" stroke="#000000" d="M196.7554,-370.5812C164.6419,-371.9556 132.7547,-385.7458 108.3952,-400.2464"/>
<polygon fill="#000000" stroke="#000000" points="203.5015,-370.7112 211.4306,-374.4648 207.5007,-370.7884 211.5,-370.8655 211.5,-370.8655 211.5,-370.8655 207.5007,-370.7884 211.5694,-367.2661 203.5015,-370.7112 203.5015,-370.7112"/>
<ellipse fill="none" stroke="#000000" cx="200.3021" cy="-370.6495" rx="3.2" ry="3.2"/>
</g>
<!-- TechnicalCareers&#45;&gt;AspNetUsers -->
<g id="edge49" class="edge">
<title>TechnicalCareers:w&#45;&gt;AspNetUsers:e</title>
<path fill="none" stroke="#000000" d="M197.129,-373.0123C171.9898,-377.9806 146.9718,-388.9677 125.5773,-400.359"/>
<polygon fill="#000000" stroke="#000000" points="203.5878,-372.0475 212.0319,-374.426 207.5439,-371.4565 211.5,-370.8655 211.5,-370.8655 211.5,-370.8655 207.5439,-371.4565 210.9681,-367.305 203.5878,-372.0475 203.5878,-372.0475"/>
<ellipse fill="none" stroke="#000000" cx="200.4229" cy="-372.5203" rx="3.2" ry="3.2"/>
</g>
<!-- Coordinators -->
<g id="node10" class="node">
<title>Coordinators</title>
<g id="a_node10"><a xlink:href="../../tables/Coordinators.html" xlink:title="Coordinators" target="_top">
<polygon fill="#ffffff" stroke="transparent" points="503,-332.3655 503,-393.3655 617,-393.3655 617,-332.3655 503,-332.3655"/>
<polygon fill="#f5f5f5" stroke="transparent" points="503,-369.8655 503,-392.8655 617,-392.8655 617,-369.8655 503,-369.8655"/>
<polygon fill="none" stroke="#000000" points="503,-369.8655 503,-392.8655 617,-392.8655 617,-369.8655 503,-369.8655"/>
<text text-anchor="start" x="508" y="-378.4655" font-family="Helvetica,sans-Serif" font-weight="bold" font-size="11.00" fill="#000000">Coordinators</text>
<text text-anchor="start" x="582.5219" y="-377.9655" font-family="Helvetica,sans-Serif" font-size="11.00" fill="#000000">[table]</text>
<polygon fill="none" stroke="#000000" points="503,-350.8655 503,-369.8655 617,-369.8655 617,-350.8655 503,-350.8655"/>
<text text-anchor="start" x="506" y="-356.9655" font-family="Helvetica,sans-Serif" font-size="11.00" fill="#000000">...</text>
<polygon fill="#ffffff" stroke="transparent" points="503,-331.8655 503,-350.8655 545,-350.8655 545,-331.8655 503,-331.8655"/>
<polygon fill="none" stroke="#000000" points="503,-331.8655 503,-350.8655 545,-350.8655 545,-331.8655 503,-331.8655"/>
<text text-anchor="start" x="506" y="-337.9655" font-family="Helvetica,sans-Serif" font-size="11.00" fill="#000000">&lt; 2</text>
<polygon fill="#ffffff" stroke="transparent" points="545,-331.8655 545,-350.8655 594,-350.8655 594,-331.8655 545,-331.8655"/>
<polygon fill="none" stroke="#000000" points="545,-331.8655 545,-350.8655 594,-350.8655 594,-331.8655 545,-331.8655"/>
<text text-anchor="start" x="558.6105" y="-337.9655" font-family="Helvetica,sans-Serif" font-size="11.00" fill="#000000">0 rows</text>
<polygon fill="#ffffff" stroke="transparent" points="594,-331.8655 594,-350.8655 617,-350.8655 617,-331.8655 594,-331.8655"/>
<polygon fill="none" stroke="#000000" points="594,-331.8655 594,-350.8655 617,-350.8655 617,-331.8655 594,-331.8655"/>
<text text-anchor="start" x="607.8862" y="-337.9655" font-family="Helvetica,sans-Serif" font-size="11.00" fill="#000000"> &#160;</text>
</a>
</g>
</g>
<!-- Coordinators&#45;&gt;AspNetUsers -->
<g id="edge13" class="edge">
<title>Coordinators:w&#45;&gt;AspNetUsers:e</title>
<path fill="none" stroke="#000000" d="M492.3868,-359.4989C453.1704,-356.6827 442.0691,-338.4408 398,-332.8655 294.3815,-319.7563 259.0896,-291.9335 163,-332.8655 130.9182,-346.5316 104.2747,-376.42 86.9072,-400.3294"/>
<polygon fill="#000000" stroke="#000000" points="502.3386,-355.8402 502.0624,-363.8355 500.4633,-363.7802 500.7395,-355.785 502.3386,-355.8402"/>
<polyline fill="none" stroke="#000000" points="503,-359.8655 499.0024,-359.7274 "/>
<ellipse fill="none" stroke="#000000" cx="495.8043" cy="-359.6169" rx="3.2" ry="3.2"/>
</g>
<!-- Coordinators&#45;&gt;TechnicalCareers -->
<g id="edge12" class="edge">
<title>Coordinators:w&#45;&gt;TechnicalCareers:e</title>
<path fill="none" stroke="#000000" d="M488.3201,-360.0472C432.2204,-361.4774 413.2777,-370.8655 350.5,-370.8655"/>
<polygon fill="#000000" stroke="#000000" points="495.0006,-359.9646 503.0446,-363.4652 499.0003,-359.915 503,-359.8655 503,-359.8655 503,-359.8655 499.0003,-359.915 502.9554,-356.2657 495.0006,-359.9646 495.0006,-359.9646"/>
<ellipse fill="none" stroke="#000000" cx="491.8009" cy="-360.0042" rx="3.2" ry="3.2"/>
</g>
<!-- EvaluationPeriods -->
<g id="node11" class="node">
<title>EvaluationPeriods</title>
<g id="a_node11"><a xlink:href="../../tables/EvaluationPeriods.html" xlink:title="EvaluationPeriods" target="_top">
<polygon fill="#ffffff" stroke="transparent" points="209,-465.3655 209,-526.3655 352,-526.3655 352,-465.3655 209,-465.3655"/>
<polygon fill="#f5f5f5" stroke="transparent" points="209.5,-502.8655 209.5,-525.8655 352.5,-525.8655 352.5,-502.8655 209.5,-502.8655"/>
<polygon fill="none" stroke="#000000" points="209.5,-502.8655 209.5,-525.8655 352.5,-525.8655 352.5,-502.8655 209.5,-502.8655"/>
<text text-anchor="start" x="214.5" y="-511.4655" font-family="Helvetica,sans-Serif" font-weight="bold" font-size="11.00" fill="#000000">EvaluationPeriods</text>
<text text-anchor="start" x="318.0219" y="-510.9655" font-family="Helvetica,sans-Serif" font-size="11.00" fill="#000000">[table]</text>
<polygon fill="none" stroke="#000000" points="209.5,-483.8655 209.5,-502.8655 352.5,-502.8655 352.5,-483.8655 209.5,-483.8655"/>
<text text-anchor="start" x="212.5" y="-489.9655" font-family="Helvetica,sans-Serif" font-size="11.00" fill="#000000">...</text>
<polygon fill="#ffffff" stroke="transparent" points="209.5,-464.8655 209.5,-483.8655 261.5,-483.8655 261.5,-464.8655 209.5,-464.8655"/>
<polygon fill="none" stroke="#000000" points="209.5,-464.8655 209.5,-483.8655 261.5,-483.8655 261.5,-464.8655 209.5,-464.8655"/>
<text text-anchor="start" x="212.5" y="-470.9655" font-family="Helvetica,sans-Serif" font-size="11.00" fill="#000000">&lt; 2</text>
<polygon fill="#ffffff" stroke="transparent" points="261.5,-464.8655 261.5,-483.8655 315.5,-483.8655 315.5,-464.8655 261.5,-464.8655"/>
<polygon fill="none" stroke="#000000" points="261.5,-464.8655 261.5,-483.8655 315.5,-483.8655 315.5,-464.8655 261.5,-464.8655"/>
<text text-anchor="start" x="280.1105" y="-470.9655" font-family="Helvetica,sans-Serif" font-size="11.00" fill="#000000">0 rows</text>
<polygon fill="#ffffff" stroke="transparent" points="315.5,-464.8655 315.5,-483.8655 352.5,-483.8655 352.5,-464.8655 315.5,-464.8655"/>
<polygon fill="none" stroke="#000000" points="315.5,-464.8655 315.5,-483.8655 352.5,-483.8655 352.5,-464.8655 315.5,-464.8655"/>
<text text-anchor="start" x="333.9053" y="-470.9655" font-family="Helvetica,sans-Serif" font-size="11.00" fill="#000000">3 &gt;</text>
</a>
</g>
</g>
<!-- EvaluationPeriods&#45;&gt;AspNetUsers -->
<g id="edge14" class="edge">
<title>EvaluationPeriods:w&#45;&gt;AspNetUsers:e</title>
<path fill="none" stroke="#000000" d="M195.1131,-490.9186C172.5745,-486.8337 149.9858,-478.1426 130.1043,-468.7751"/>
<polygon fill="#000000" stroke="#000000" points="201.5723,-491.7926 209.0172,-496.433 205.5361,-492.329 209.5,-492.8655 209.5,-492.8655 209.5,-492.8655 205.5361,-492.329 209.9828,-489.298 201.5723,-491.7926 201.5723,-491.7926"/>
<ellipse fill="none" stroke="#000000" cx="198.4012" cy="-491.3635" rx="3.2" ry="3.2"/>
</g>
<!-- EvaluationPeriods&#45;&gt;AspNetUsers -->
<g id="edge15" class="edge">
<title>EvaluationPeriods:w&#45;&gt;AspNetUsers:e</title>
<path fill="none" stroke="#000000" d="M194.9553,-493.4208C165.2585,-492.7794 135.4859,-481.7945 111.9446,-469.455"/>
<polygon fill="#000000" stroke="#000000" points="201.5058,-493.1708 209.6374,-496.4629 205.5029,-493.0181 209.5,-492.8655 209.5,-492.8655 209.5,-492.8655 205.5029,-493.0181 209.3626,-489.2681 201.5058,-493.1708 201.5058,-493.1708"/>
<ellipse fill="none" stroke="#000000" cx="198.3082" cy="-493.2929" rx="3.2" ry="3.2"/>
</g>
<!-- FormQuestions -->
<g id="node12" class="node">
<title>FormQuestions</title>
<g id="a_node12"><a xlink:href="../../tables/FormQuestions.html" xlink:title="FormQuestions" target="_top">
<polygon fill="#ffffff" stroke="transparent" points="496.5,-808.3655 496.5,-869.3655 623.5,-869.3655 623.5,-808.3655 496.5,-808.3655"/>
<polygon fill="#f5f5f5" stroke="transparent" points="497,-845.8655 497,-868.8655 624,-868.8655 624,-845.8655 497,-845.8655"/>
<polygon fill="none" stroke="#000000" points="497,-845.8655 497,-868.8655 624,-868.8655 624,-845.8655 497,-845.8655"/>
<text text-anchor="start" x="502" y="-854.4655" font-family="Helvetica,sans-Serif" font-weight="bold" font-size="11.00" fill="#000000">FormQuestions</text>
<text text-anchor="start" x="589.5219" y="-853.9655" font-family="Helvetica,sans-Serif" font-size="11.00" fill="#000000">[table]</text>
<polygon fill="none" stroke="#000000" points="497,-826.8655 497,-845.8655 624,-845.8655 624,-826.8655 497,-826.8655"/>
<text text-anchor="start" x="500" y="-832.9655" font-family="Helvetica,sans-Serif" font-size="11.00" fill="#000000">...</text>
<polygon fill="#ffffff" stroke="transparent" points="497,-807.8655 497,-826.8655 541,-826.8655 541,-807.8655 497,-807.8655"/>
<polygon fill="none" stroke="#000000" points="497,-807.8655 497,-826.8655 541,-826.8655 541,-807.8655 497,-807.8655"/>
<text text-anchor="start" x="500" y="-813.9655" font-family="Helvetica,sans-Serif" font-size="11.00" fill="#000000">&lt; 3</text>
<polygon fill="#ffffff" stroke="transparent" points="541,-807.8655 541,-826.8655 591,-826.8655 591,-807.8655 541,-807.8655"/>
<polygon fill="none" stroke="#000000" points="541,-807.8655 541,-826.8655 591,-826.8655 591,-807.8655 541,-807.8655"/>
<text text-anchor="start" x="555.6105" y="-813.9655" font-family="Helvetica,sans-Serif" font-size="11.00" fill="#000000">0 rows</text>
<polygon fill="#ffffff" stroke="transparent" points="591,-807.8655 591,-826.8655 624,-826.8655 624,-807.8655 591,-807.8655"/>
<polygon fill="none" stroke="#000000" points="591,-807.8655 591,-826.8655 624,-826.8655 624,-807.8655 591,-807.8655"/>
<text text-anchor="start" x="605.4053" y="-813.9655" font-family="Helvetica,sans-Serif" font-size="11.00" fill="#000000">1 &gt;</text>
</a>
</g>
</g>
<!-- FormQuestions&#45;&gt;AspNetUsers -->
<g id="edge17" class="edge">
<title>FormQuestions:w&#45;&gt;AspNetUsers:e</title>
<path fill="none" stroke="#000000" d="M473.6517,-846.402C371.4843,-856.4875 209.3738,-868.4083 163,-831.8655 105.3137,-786.4083 77.334,-557.4896 68.3473,-469.403"/>
<polygon fill="#000000" stroke="#000000" points="480.3098,-845.7331 488.6296,-848.5152 484.2898,-845.3332 488.2697,-844.9333 488.2697,-844.9333 488.2697,-844.9333 484.2898,-845.3332 487.9098,-841.3513 480.3098,-845.7331 480.3098,-845.7331"/>
<ellipse fill="none" stroke="#000000" cx="477.1258" cy="-846.053" rx="3.2" ry="3.2"/>
</g>
<!-- FormQuestions&#45;&gt;AspNetUsers -->
<g id="edge18" class="edge">
<title>FormQuestions:w&#45;&gt;AspNetUsers:e</title>
<path fill="none" stroke="#000000" d="M473.9655,-855.4625C371.8167,-869.463 209.4213,-881.4458 163,-844.8655 103.9705,-798.3498 76.0471,-559.7297 67.7504,-469.4345"/>
<polygon fill="#000000" stroke="#000000" points="480.349,-854.5569 488.7754,-856.9974 484.3094,-853.995 488.2697,-853.4331 488.2697,-853.4331 488.2697,-853.4331 484.3094,-853.995 487.764,-849.8688 480.349,-854.5569 480.349,-854.5569"/>
<ellipse fill="none" stroke="#000000" cx="477.1808" cy="-855.0064" rx="3.2" ry="3.2"/>
</g>
<!-- FormQuestions&#45;&gt;Competencies -->
<g id="edge16" class="edge">
<title>FormQuestions:w&#45;&gt;Competencies:e</title>
<path fill="none" stroke="#000000" d="M503.993,-796.0814C471.946,-775.7682 429.9663,-755.8655 388.5,-755.8655"/>
<polygon fill="#000000" stroke="#000000" points="509.53,-799.7382 514.2216,-807.1509 512.8678,-801.9426 516.2056,-804.1469 516.2056,-804.1469 516.2056,-804.1469 512.8678,-801.9426 518.1895,-801.1429 509.53,-799.7382 509.53,-799.7382"/>
<ellipse fill="none" stroke="#000000" cx="506.8597" cy="-797.9747" rx="3.2" ry="3.2"/>
</g>
<!-- ProfessorCompetencyAssignments -->
<g id="node13" class="node">
<title>ProfessorCompetencyAssignments</title>
<g id="a_node13"><a xlink:href="../../tables/ProfessorCompetencyAssignments.html" xlink:title="ProfessorCompetencyAssignments" target="_top">
<polygon fill="#ffffff" stroke="transparent" points="439,-414.3655 439,-475.3655 681,-475.3655 681,-414.3655 439,-414.3655"/>
<polygon fill="#f5f5f5" stroke="transparent" points="439,-451.8655 439,-474.8655 681,-474.8655 681,-451.8655 439,-451.8655"/>
<polygon fill="none" stroke="#000000" points="439,-451.8655 439,-474.8655 681,-474.8655 681,-451.8655 439,-451.8655"/>
<text text-anchor="start" x="444" y="-460.4655" font-family="Helvetica,sans-Serif" font-weight="bold" font-size="11.00" fill="#000000">ProfessorCompetencyAssignments</text>
<text text-anchor="start" x="646.5219" y="-459.9655" font-family="Helvetica,sans-Serif" font-size="11.00" fill="#000000">[table]</text>
<polygon fill="none" stroke="#000000" points="439,-432.8655 439,-451.8655 681,-451.8655 681,-432.8655 439,-432.8655"/>
<text text-anchor="start" x="442" y="-438.9655" font-family="Helvetica,sans-Serif" font-size="11.00" fill="#000000">...</text>
<polygon fill="#ffffff" stroke="transparent" points="439,-413.8655 439,-432.8655 541,-432.8655 541,-413.8655 439,-413.8655"/>
<polygon fill="none" stroke="#000000" points="439,-413.8655 439,-432.8655 541,-432.8655 541,-413.8655 439,-413.8655"/>
<text text-anchor="start" x="442" y="-419.9655" font-family="Helvetica,sans-Serif" font-size="11.00" fill="#000000">&lt; 6</text>
<polygon fill="#ffffff" stroke="transparent" points="541,-413.8655 541,-432.8655 619,-432.8655 619,-413.8655 541,-413.8655"/>
<polygon fill="none" stroke="#000000" points="541,-413.8655 541,-432.8655 619,-432.8655 619,-413.8655 541,-413.8655"/>
<text text-anchor="start" x="583.6105" y="-419.9655" font-family="Helvetica,sans-Serif" font-size="11.00" fill="#000000">0 rows</text>
<polygon fill="#ffffff" stroke="transparent" points="619,-413.8655 619,-432.8655 681,-432.8655 681,-413.8655 619,-413.8655"/>
<polygon fill="none" stroke="#000000" points="619,-413.8655 619,-432.8655 681,-432.8655 681,-413.8655 619,-413.8655"/>
<text text-anchor="start" x="662.4053" y="-419.9655" font-family="Helvetica,sans-Serif" font-size="11.00" fill="#000000">1 &gt;</text>
</a>
</g>
</g>
<!-- ProfessorCompetencyAssignments&#45;&gt;AspNetUsers -->
<g id="edge20" class="edge">
<title>ProfessorCompetencyAssignments:w&#45;&gt;AspNetUsers:e</title>
<path fill="none" stroke="#000000" d="M416.2666,-437.8335C321.7588,-435.2065 202.6019,-433.121 130.1883,-433.0193"/>
<polygon fill="#000000" stroke="#000000" points="422.9173,-438.023 430.8115,-441.8494 426.9157,-438.1369 430.9141,-438.2509 430.9141,-438.2509 430.9141,-438.2509 426.9157,-438.1369 431.0166,-434.6523 422.9173,-438.023 422.9173,-438.023"/>
<ellipse fill="none" stroke="#000000" cx="419.7186" cy="-437.9318" rx="3.2" ry="3.2"/>
</g>
<!-- ProfessorCompetencyAssignments&#45;&gt;AspNetUsers -->
<g id="edge24" class="edge">
<title>ProfessorCompetencyAssignments:w&#45;&gt;AspNetUsers:e</title>
<path fill="none" stroke="#000000" d="M416.2666,-446.7781C321.7588,-445.7063 202.6019,-442.9237 130.1883,-439.8727"/>
<polygon fill="#000000" stroke="#000000" points="422.9145,-446.848 430.8761,-450.5321 426.9143,-446.8901 430.9141,-446.9323 430.9141,-446.9323 430.9141,-446.9323 426.9143,-446.8901 430.952,-443.3325 422.9145,-446.848 422.9145,-446.848"/>
<ellipse fill="none" stroke="#000000" cx="419.7147" cy="-446.8143" rx="3.2" ry="3.2"/>
</g>
<!-- ProfessorCompetencyAssignments&#45;&gt;Competencies -->
<g id="edge19" class="edge">
<title>ProfessorCompetencyAssignments:w&#45;&gt;Competencies:e</title>
<path fill="none" stroke="#000000" d="M468.7684,-487.7238C454.2909,-498.0717 440.8641,-510.4105 431,-524.8655 401.5795,-567.9786 440.6949,-755.8655 388.5,-755.8655"/>
<polygon fill="#000000" stroke="#000000" points="474.4628,-483.9315 483.1168,-482.4935 477.7921,-481.7143 481.1213,-479.4971 481.1213,-479.4971 481.1213,-479.4971 477.7921,-481.7143 479.1259,-476.5008 474.4628,-483.9315 474.4628,-483.9315"/>
<ellipse fill="none" stroke="#000000" cx="471.7994" cy="-485.7053" rx="3.2" ry="3.2"/>
</g>
<!-- ProfessorCompetencyAssignments&#45;&gt;TechnicalCareers -->
<g id="edge23" class="edge">
<title>ProfessorCompetencyAssignments:w&#45;&gt;TechnicalCareers:e</title>
<path fill="none" stroke="#000000" d="M435.5044,-405.4895C433.9929,-404.9485 432.4909,-404.407 431,-403.8655 394.6557,-390.6651 389.1673,-370.8655 350.5,-370.8655"/>
<polygon fill="#000000" stroke="#000000" points="441.7698,-407.6882 448.1265,-413.7341 445.5442,-409.0127 449.3185,-410.3372 449.3185,-410.3372 449.3185,-410.3372 445.5442,-409.0127 450.5106,-406.9403 441.7698,-407.6882 441.7698,-407.6882"/>
<ellipse fill="none" stroke="#000000" cx="438.7504" cy="-406.6285" rx="3.2" ry="3.2"/>
</g>
<!-- ProfessorCompetencyAssignments&#45;&gt;EvaluationPeriods -->
<g id="edge21" class="edge">
<title>ProfessorCompetencyAssignments:w&#45;&gt;EvaluationPeriods:e</title>
<path fill="none" stroke="#000000" d="M438.8051,-482.5531C410.747,-488.5719 380.8102,-492.8655 352.5,-492.8655"/>
<polygon fill="#000000" stroke="#000000" points="445.0468,-481.1371 453.645,-482.8778 448.9477,-480.2521 452.8485,-479.3671 452.8485,-479.3671 452.8485,-479.3671 448.9477,-480.2521 452.052,-475.8563 445.0468,-481.1371 445.0468,-481.1371"/>
<ellipse fill="none" stroke="#000000" cx="441.9261" cy="-481.8451" rx="3.2" ry="3.2"/>
</g>
<!-- Professors -->
<g id="node14" class="node">
<title>Professors</title>
<g id="a_node14"><a xlink:href="../../tables/Professors.html" xlink:title="Professors" target="_top">
<polygon fill="#ffffff" stroke="transparent" points="230,-206.3655 230,-267.3655 331,-267.3655 331,-206.3655 230,-206.3655"/>
<polygon fill="#f5f5f5" stroke="transparent" points="230.5,-243.8655 230.5,-266.8655 331.5,-266.8655 331.5,-243.8655 230.5,-243.8655"/>
<polygon fill="none" stroke="#000000" points="230.5,-243.8655 230.5,-266.8655 331.5,-266.8655 331.5,-243.8655 230.5,-243.8655"/>
<text text-anchor="start" x="235.5" y="-252.4655" font-family="Helvetica,sans-Serif" font-weight="bold" font-size="11.00" fill="#000000">Professors</text>
<text text-anchor="start" x="297.0219" y="-251.9655" font-family="Helvetica,sans-Serif" font-size="11.00" fill="#000000">[table]</text>
<polygon fill="none" stroke="#000000" points="230.5,-224.8655 230.5,-243.8655 331.5,-243.8655 331.5,-224.8655 230.5,-224.8655"/>
<text text-anchor="start" x="233.5" y="-230.9655" font-family="Helvetica,sans-Serif" font-size="11.00" fill="#000000">...</text>
<polygon fill="#ffffff" stroke="transparent" points="230.5,-205.8655 230.5,-224.8655 261.5,-224.8655 261.5,-205.8655 230.5,-205.8655"/>
<polygon fill="none" stroke="#000000" points="230.5,-205.8655 230.5,-224.8655 261.5,-224.8655 261.5,-205.8655 230.5,-205.8655"/>
<text text-anchor="start" x="233.5" y="-211.9655" font-family="Helvetica,sans-Serif" font-size="11.00" fill="#000000">&lt; 1</text>
<polygon fill="#ffffff" stroke="transparent" points="261.5,-205.8655 261.5,-224.8655 304.5,-224.8655 304.5,-205.8655 261.5,-205.8655"/>
<polygon fill="none" stroke="#000000" points="261.5,-205.8655 261.5,-224.8655 304.5,-224.8655 304.5,-205.8655 261.5,-205.8655"/>
<text text-anchor="start" x="269.1105" y="-211.9655" font-family="Helvetica,sans-Serif" font-size="11.00" fill="#000000">0 rows</text>
<polygon fill="#ffffff" stroke="transparent" points="304.5,-205.8655 304.5,-224.8655 331.5,-224.8655 331.5,-205.8655 304.5,-205.8655"/>
<polygon fill="none" stroke="#000000" points="304.5,-205.8655 304.5,-224.8655 331.5,-224.8655 331.5,-205.8655 304.5,-205.8655"/>
<text text-anchor="start" x="312.9053" y="-211.9655" font-family="Helvetica,sans-Serif" font-size="11.00" fill="#000000">2 &gt;</text>
</a>
</g>
</g>
<!-- ProfessorCompetencyAssignments&#45;&gt;Professors -->
<g id="edge22" class="edge">
<title>ProfessorCompetencyAssignments:w&#45;&gt;Professors:e</title>
<path fill="none" stroke="#000000" d="M428.4433,-400.0531C406.9507,-376.4046 413.0179,-359.508 398,-332.8655 371.9722,-286.691 384.505,-233.8655 331.5,-233.8655"/>
<polygon fill="#000000" stroke="#000000" points="433.2649,-404.7024 436.5248,-412.847 436.1443,-407.479 439.0237,-410.2555 439.0237,-410.2555 439.0237,-410.2555 436.1443,-407.479 441.5225,-407.664 433.2649,-404.7024 433.2649,-404.7024"/>
<ellipse fill="none" stroke="#000000" cx="430.9614" cy="-402.4812" rx="3.2" ry="3.2"/>
</g>
<!-- Professors&#45;&gt;AspNetUsers -->
<g id="edge25" class="edge">
<title>Professors:w&#45;&gt;AspNetUsers:e</title>
<path fill="none" stroke="#000000" d="M219.7138,-234.4564C141.0968,-243.1357 94.9698,-345.3128 75.6789,-400.3123"/>
<polygon fill="#000000" stroke="#000000" points="229.4824,-229.9152 229.92,-237.9033 228.3224,-237.9908 227.8848,-230.0028 229.4824,-229.9152"/>
<polyline fill="none" stroke="#000000" points="230.5,-233.8655 226.506,-234.0843 "/>
<ellipse fill="none" stroke="#000000" cx="223.3108" cy="-234.2594" rx="3.2" ry="3.2"/>
</g>
<!-- QuestionResponses -->
<g id="node15" class="node">
<title>QuestionResponses</title>
<g id="a_node15"><a xlink:href="../../tables/QuestionResponses.html" xlink:title="QuestionResponses" target="_top">
<polygon fill="#ffffff" stroke="transparent" points="1002,-111.3655 1002,-172.3655 1157,-172.3655 1157,-111.3655 1002,-111.3655"/>
<polygon fill="#f5f5f5" stroke="transparent" points="1002.5,-148.8655 1002.5,-171.8655 1157.5,-171.8655 1157.5,-148.8655 1002.5,-148.8655"/>
<polygon fill="none" stroke="#000000" points="1002.5,-148.8655 1002.5,-171.8655 1157.5,-171.8655 1157.5,-148.8655 1002.5,-148.8655"/>
<text text-anchor="start" x="1007.5" y="-157.4655" font-family="Helvetica,sans-Serif" font-weight="bold" font-size="11.00" fill="#000000">QuestionResponses</text>
<text text-anchor="start" x="1123.0219" y="-156.9655" font-family="Helvetica,sans-Serif" font-size="11.00" fill="#000000">[table]</text>
<polygon fill="none" stroke="#000000" points="1002.5,-129.8655 1002.5,-148.8655 1157.5,-148.8655 1157.5,-129.8655 1002.5,-129.8655"/>
<text text-anchor="start" x="1005.5" y="-135.9655" font-family="Helvetica,sans-Serif" font-size="11.00" fill="#000000">...</text>
<polygon fill="#ffffff" stroke="transparent" points="1002.5,-110.8655 1002.5,-129.8655 1065.5,-129.8655 1065.5,-110.8655 1002.5,-110.8655"/>
<polygon fill="none" stroke="#000000" points="1002.5,-110.8655 1002.5,-129.8655 1065.5,-129.8655 1065.5,-110.8655 1002.5,-110.8655"/>
<text text-anchor="start" x="1005.5" y="-116.9655" font-family="Helvetica,sans-Serif" font-size="11.00" fill="#000000">&lt; 4</text>
<polygon fill="#ffffff" stroke="transparent" points="1065.5,-110.8655 1065.5,-129.8655 1124.5,-129.8655 1124.5,-110.8655 1065.5,-110.8655"/>
<polygon fill="none" stroke="#000000" points="1065.5,-110.8655 1065.5,-129.8655 1124.5,-129.8655 1124.5,-110.8655 1065.5,-110.8655"/>
<text text-anchor="start" x="1089.1105" y="-116.9655" font-family="Helvetica,sans-Serif" font-size="11.00" fill="#000000">0 rows</text>
<polygon fill="#ffffff" stroke="transparent" points="1124.5,-110.8655 1124.5,-129.8655 1157.5,-129.8655 1157.5,-110.8655 1124.5,-110.8655"/>
<polygon fill="none" stroke="#000000" points="1124.5,-110.8655 1124.5,-129.8655 1157.5,-129.8655 1157.5,-110.8655 1124.5,-110.8655"/>
<text text-anchor="start" x="1148.3862" y="-116.9655" font-family="Helvetica,sans-Serif" font-size="11.00" fill="#000000"> &#160;</text>
</a>
</g>
</g>
<!-- QuestionResponses&#45;&gt;AspNetUsers -->
<g id="edge26" class="edge">
<title>QuestionResponses:w&#45;&gt;AspNetUsers:e</title>
<path fill="none" stroke="#000000" d="M989.5609,-131.8597C977.5848,-118.9257 981.5647,-93.5757 961,-83.8655 734.7104,22.9841 648.2412,-77.6433 398,-75.8655 293.5582,-75.1235 246.1467,-12.6573 163,-75.8655 111.1011,-115.3191 79.479,-317.9467 68.9393,-400.1964"/>
<polygon fill="#000000" stroke="#000000" points="995.465,-135.0564 1000.7859,-142.0312 998.9825,-136.9609 1002.5,-138.8655 1002.5,-138.8655 1002.5,-138.8655 998.9825,-136.9609 1004.2141,-135.6997 995.465,-135.0564 995.465,-135.0564"/>
<ellipse fill="none" stroke="#000000" cx="992.651" cy="-133.5328" rx="3.2" ry="3.2"/>
</g>
<!-- QuestionResponses&#45;&gt;AspNetUsers -->
<g id="edge29" class="edge">
<title>QuestionResponses:w&#45;&gt;AspNetUsers:e</title>
<path fill="none" stroke="#000000" d="M987.9099,-137.2139C977.916,-129.478 980.5566,-106.0997 961,-96.8655 734.7104,9.9841 648.2412,-90.6433 398,-88.8655 293.5582,-88.1235 246.1467,-25.6573 163,-88.8655 112.4935,-127.2606 81.1904,-320.1915 69.8331,-400.1693"/>
<polygon fill="#000000" stroke="#000000" points="994.5508,-137.9656 1002.095,-142.4426 998.5254,-138.4155 1002.5,-138.8655 1002.5,-138.8655 1002.5,-138.8655 998.5254,-138.4155 1002.905,-135.2883 994.5508,-137.9656 994.5508,-137.9656"/>
<ellipse fill="none" stroke="#000000" cx="991.3711" cy="-137.6056" rx="3.2" ry="3.2"/>
</g>
<!-- QuestionResponses&#45;&gt;FormQuestions -->
<g id="edge27" class="edge">
<title>QuestionResponses:w&#45;&gt;FormQuestions:e</title>
<path fill="none" stroke="#000000" d="M990.243,-146.9106C945.8209,-214.1089 999.5337,-680.751 961,-727.8655 881.1971,-825.4388 723.8698,-841.5666 631.7848,-841.9462"/>
<polygon fill="#000000" stroke="#000000" points="995.812,-143.2553 1004.4754,-141.8751 999.156,-141.0604 1002.5,-138.8655 1002.5,-138.8655 1002.5,-138.8655 999.156,-141.0604 1000.5246,-135.8559 995.812,-143.2553 995.812,-143.2553"/>
<ellipse fill="none" stroke="#000000" cx="993.1368" cy="-145.0112" rx="3.2" ry="3.2"/>
</g>
<!-- StudentCompetencyEvaluations -->
<g id="node16" class="node">
<title>StudentCompetencyEvaluations</title>
<g id="a_node16"><a xlink:href="../../tables/StudentCompetencyEvaluations.html" xlink:title="StudentCompetencyEvaluations" target="_top">
<polygon fill="#ffffff" stroke="transparent" points="730,-192.3655 730,-253.3655 953,-253.3655 953,-192.3655 730,-192.3655"/>
<polygon fill="#f5f5f5" stroke="transparent" points="730.5,-229.8655 730.5,-252.8655 953.5,-252.8655 953.5,-229.8655 730.5,-229.8655"/>
<polygon fill="none" stroke="#000000" points="730.5,-229.8655 730.5,-252.8655 953.5,-252.8655 953.5,-229.8655 730.5,-229.8655"/>
<text text-anchor="start" x="735.5" y="-238.4655" font-family="Helvetica,sans-Serif" font-weight="bold" font-size="11.00" fill="#000000">StudentCompetencyEvaluations</text>
<text text-anchor="start" x="919.0219" y="-237.9655" font-family="Helvetica,sans-Serif" font-size="11.00" fill="#000000">[table]</text>
<polygon fill="none" stroke="#000000" points="730.5,-210.8655 730.5,-229.8655 953.5,-229.8655 953.5,-210.8655 730.5,-210.8655"/>
<text text-anchor="start" x="733.5" y="-216.9655" font-family="Helvetica,sans-Serif" font-size="11.00" fill="#000000">...</text>
<polygon fill="#ffffff" stroke="transparent" points="730.5,-191.8655 730.5,-210.8655 822.5,-210.8655 822.5,-191.8655 730.5,-191.8655"/>
<polygon fill="none" stroke="#000000" points="730.5,-191.8655 730.5,-210.8655 822.5,-210.8655 822.5,-191.8655 730.5,-191.8655"/>
<text text-anchor="start" x="733.5" y="-197.9655" font-family="Helvetica,sans-Serif" font-size="11.00" fill="#000000">&lt; 4</text>
<polygon fill="#ffffff" stroke="transparent" points="822.5,-191.8655 822.5,-210.8655 896.5,-210.8655 896.5,-191.8655 822.5,-191.8655"/>
<polygon fill="none" stroke="#000000" points="822.5,-191.8655 822.5,-210.8655 896.5,-210.8655 896.5,-191.8655 822.5,-191.8655"/>
<text text-anchor="start" x="861.1105" y="-197.9655" font-family="Helvetica,sans-Serif" font-size="11.00" fill="#000000">0 rows</text>
<polygon fill="#ffffff" stroke="transparent" points="896.5,-191.8655 896.5,-210.8655 953.5,-210.8655 953.5,-191.8655 896.5,-191.8655"/>
<polygon fill="none" stroke="#000000" points="896.5,-191.8655 896.5,-210.8655 953.5,-210.8655 953.5,-191.8655 896.5,-191.8655"/>
<text text-anchor="start" x="934.9053" y="-197.9655" font-family="Helvetica,sans-Serif" font-size="11.00" fill="#000000">1 &gt;</text>
</a>
</g>
</g>
<!-- QuestionResponses&#45;&gt;StudentCompetencyEvaluations -->
<g id="edge28" class="edge">
<title>QuestionResponses:w&#45;&gt;StudentCompetencyEvaluations:e</title>
<path fill="none" stroke="#000000" d="M988.6299,-143.4525C968.9726,-160.5875 989.4935,-219.8655 953.5,-219.8655"/>
<polygon fill="#000000" stroke="#000000" points="994.9046,-141.3774 1003.6304,-142.2834 998.7023,-140.1214 1002.5,-138.8655 1002.5,-138.8655 1002.5,-138.8655 998.7023,-140.1214 1001.3696,-135.4475 994.9046,-141.3774 994.9046,-141.3774"/>
<ellipse fill="none" stroke="#000000" cx="991.8664" cy="-142.3822" rx="3.2" ry="3.2"/>
</g>
<!-- StudentCompetencyEvaluations&#45;&gt;AspNetUsers -->
<g id="edge30" class="edge">
<title>StudentCompetencyEvaluations:w&#45;&gt;AspNetUsers:e</title>
<path fill="none" stroke="#000000" d="M716.0515,-219.191C594.4861,-213.3002 558.894,-205.8781 431,-193.8655 416.2907,-192.4839 412.7472,-190.756 398,-189.8655 293.7455,-183.5701 249.7388,-131.6845 163,-189.8655 92.7961,-236.9555 72.8449,-344.2789 67.2045,-399.9967"/>
<polygon fill="#000000" stroke="#000000" points="722.5087,-219.4924 730.3321,-223.4616 726.5044,-219.6789 730.5,-219.8655 730.5,-219.8655 730.5,-219.8655 726.5044,-219.6789 730.6679,-216.2694 722.5087,-219.4924 722.5087,-219.4924"/>
<ellipse fill="none" stroke="#000000" cx="719.3122" cy="-219.3432" rx="3.2" ry="3.2"/>
</g>
<!-- StudentCompetencyEvaluations&#45;&gt;AspNetUsers -->
<g id="edge33" class="edge">
<title>StudentCompetencyEvaluations:w&#45;&gt;AspNetUsers:e</title>
<path fill="none" stroke="#000000" d="M716.0515,-220.5853C594.4861,-226.3002 558.894,-218.8781 431,-206.8655 416.2907,-205.4839 412.7472,-203.756 398,-202.8655 293.7455,-196.5701 249.7388,-144.6845 163,-202.8655 96.148,-247.7072 74.8646,-347.1678 68.1142,-400.1937"/>
<polygon fill="#000000" stroke="#000000" points="722.5099,-220.2636 730.6791,-223.461 726.505,-220.0645 730.5,-219.8655 730.5,-219.8655 730.5,-219.8655 726.505,-220.0645 730.3209,-216.2699 722.5099,-220.2636 722.5099,-220.2636"/>
<ellipse fill="none" stroke="#000000" cx="719.3139" cy="-220.4228" rx="3.2" ry="3.2"/>
</g>
<!-- StudentCompetencyEvaluations&#45;&gt;ProfessorCompetencyAssignments -->
<g id="edge31" class="edge">
<title>StudentCompetencyEvaluations:w&#45;&gt;ProfessorCompetencyAssignments:e</title>
<path fill="none" stroke="#000000" d="M716.1188,-221.429C659.1313,-235.8327 741.9145,-346.1986 689,-403.8655 686.9346,-406.1164 684.7462,-408.2445 682.4528,-410.2564"/>
<polygon fill="#000000" stroke="#000000" points="722.5469,-220.7302 730.8891,-223.4444 726.5234,-220.2978 730.5,-219.8655 730.5,-219.8655 730.5,-219.8655 726.5234,-220.2978 730.1109,-216.2866 722.5469,-220.7302 722.5469,-220.7302"/>
<ellipse fill="none" stroke="#000000" cx="719.3656" cy="-221.0761" rx="3.2" ry="3.2"/>
</g>
<!-- Students -->
<g id="node17" class="node">
<title>Students</title>
<g id="a_node17"><a xlink:href="../../tables/Students.html" xlink:title="Students" target="_top">
<polygon fill="#ffffff" stroke="transparent" points="515,-250.3655 515,-311.3655 605,-311.3655 605,-250.3655 515,-250.3655"/>
<polygon fill="#f5f5f5" stroke="transparent" points="515,-287.8655 515,-310.8655 605,-310.8655 605,-287.8655 515,-287.8655"/>
<polygon fill="none" stroke="#000000" points="515,-287.8655 515,-310.8655 605,-310.8655 605,-287.8655 515,-287.8655"/>
<text text-anchor="start" x="520" y="-296.4655" font-family="Helvetica,sans-Serif" font-weight="bold" font-size="11.00" fill="#000000">Students</text>
<text text-anchor="start" x="570.5219" y="-295.9655" font-family="Helvetica,sans-Serif" font-size="11.00" fill="#000000">[table]</text>
<polygon fill="none" stroke="#000000" points="515,-268.8655 515,-287.8655 605,-287.8655 605,-268.8655 515,-268.8655"/>
<text text-anchor="start" x="518" y="-274.9655" font-family="Helvetica,sans-Serif" font-size="11.00" fill="#000000">...</text>
<polygon fill="#ffffff" stroke="transparent" points="515,-249.8655 515,-268.8655 541,-268.8655 541,-249.8655 515,-249.8655"/>
<polygon fill="none" stroke="#000000" points="515,-249.8655 515,-268.8655 541,-268.8655 541,-249.8655 515,-249.8655"/>
<text text-anchor="start" x="518" y="-255.9655" font-family="Helvetica,sans-Serif" font-size="11.00" fill="#000000">&lt; 2</text>
<polygon fill="#ffffff" stroke="transparent" points="541,-249.8655 541,-268.8655 581,-268.8655 581,-249.8655 541,-249.8655"/>
<polygon fill="none" stroke="#000000" points="541,-249.8655 541,-268.8655 581,-268.8655 581,-249.8655 541,-249.8655"/>
<text text-anchor="start" x="545.6105" y="-255.9655" font-family="Helvetica,sans-Serif" font-size="11.00" fill="#000000">0 rows</text>
<polygon fill="#ffffff" stroke="transparent" points="581,-249.8655 581,-268.8655 605,-268.8655 605,-249.8655 581,-249.8655"/>
<polygon fill="none" stroke="#000000" points="581,-249.8655 581,-268.8655 605,-268.8655 605,-249.8655 581,-249.8655"/>
<text text-anchor="start" x="586.4053" y="-255.9655" font-family="Helvetica,sans-Serif" font-size="11.00" fill="#000000">3 &gt;</text>
</a>
</g>
</g>
<!-- StudentCompetencyEvaluations&#45;&gt;Students -->
<g id="edge32" class="edge">
<title>StudentCompetencyEvaluations:w&#45;&gt;Students:e</title>
<path fill="none" stroke="#000000" d="M716.2,-222.8214C682.8852,-234.6407 631.5227,-277.8655 605,-277.8655"/>
<polygon fill="#000000" stroke="#000000" points="722.6656,-221.485 731.2288,-223.3909 726.5828,-220.6752 730.5,-219.8655 730.5,-219.8655 730.5,-219.8655 726.5828,-220.6752 729.7712,-216.34 722.6656,-221.485 722.6656,-221.485"/>
<ellipse fill="none" stroke="#000000" cx="719.5319" cy="-222.1328" rx="3.2" ry="3.2"/>
</g>
<!-- Students&#45;&gt;AspNetUsers -->
<g id="edge39" class="edge">
<title>Students:w&#45;&gt;AspNetUsers:e</title>
<path fill="none" stroke="#000000" d="M504.559,-278.0162C440.8809,-279.4677 195.2564,-291.294 163,-308.8655 125.6442,-329.2148 97.8521,-370.4618 81.5853,-400.2293"/>
<polygon fill="#000000" stroke="#000000" points="514.1423,-273.8774 514.2579,-281.8766 512.658,-281.8997 512.5425,-273.9006 514.1423,-273.8774"/>
<polyline fill="none" stroke="#000000" points="515,-277.8655 511.0004,-277.9233 "/>
<ellipse fill="none" stroke="#000000" cx="507.8008" cy="-277.9695" rx="3.2" ry="3.2"/>
</g>
<!-- Students&#45;&gt;TechnicalCareers -->
<g id="edge38" class="edge">
<title>Students:w&#45;&gt;TechnicalCareers:e</title>
<path fill="none" stroke="#000000" d="M500.3983,-278.9696C470.9986,-283.8192 462.9567,-303.7946 431,-321.8655 394.5409,-342.4824 392.3846,-370.8655 350.5,-370.8655"/>
<polygon fill="#000000" stroke="#000000" points="507.0228,-278.4687 515.2715,-281.4552 511.0114,-278.1671 515,-277.8655 515,-277.8655 515,-277.8655 511.0114,-278.1671 514.7285,-274.2757 507.0228,-278.4687 507.0228,-278.4687"/>
<ellipse fill="none" stroke="#000000" cx="503.8319" cy="-278.71" rx="3.2" ry="3.2"/>
</g>
<!-- StudentEvaluationReport -->
<g id="node18" class="node">
<title>StudentEvaluationReport</title>
<g id="a_node18"><a xlink:href="../../tables/StudentEvaluationReport.html" xlink:title="StudentEvaluationReport" target="_top">
<polygon fill="#ffffff" stroke="transparent" points="750,-656.3655 750,-717.3655 933,-717.3655 933,-656.3655 750,-656.3655"/>
<polygon fill="#f5f5f5" stroke="transparent" points="750.5,-693.8655 750.5,-716.8655 933.5,-716.8655 933.5,-693.8655 750.5,-693.8655"/>
<polygon fill="none" stroke="#000000" points="750.5,-693.8655 750.5,-716.8655 933.5,-716.8655 933.5,-693.8655 750.5,-693.8655"/>
<text text-anchor="start" x="755.5" y="-702.4655" font-family="Helvetica,sans-Serif" font-weight="bold" font-size="11.00" fill="#000000">StudentEvaluationReport</text>
<text text-anchor="start" x="899.0219" y="-701.9655" font-family="Helvetica,sans-Serif" font-size="11.00" fill="#000000">[table]</text>
<polygon fill="none" stroke="#000000" points="750.5,-674.8655 750.5,-693.8655 933.5,-693.8655 933.5,-674.8655 750.5,-674.8655"/>
<text text-anchor="start" x="753.5" y="-680.9655" font-family="Helvetica,sans-Serif" font-size="11.00" fill="#000000">...</text>
<polygon fill="#ffffff" stroke="transparent" points="750.5,-655.8655 750.5,-674.8655 827.5,-674.8655 827.5,-655.8655 750.5,-655.8655"/>
<polygon fill="none" stroke="#000000" points="750.5,-655.8655 750.5,-674.8655 827.5,-674.8655 827.5,-655.8655 750.5,-655.8655"/>
<text text-anchor="start" x="753.5" y="-661.9655" font-family="Helvetica,sans-Serif" font-size="11.00" fill="#000000">&lt; 4</text>
<polygon fill="#ffffff" stroke="transparent" points="827.5,-655.8655 827.5,-674.8655 893.5,-674.8655 893.5,-655.8655 827.5,-655.8655"/>
<polygon fill="none" stroke="#000000" points="827.5,-655.8655 827.5,-674.8655 893.5,-674.8655 893.5,-655.8655 827.5,-655.8655"/>
<text text-anchor="start" x="858.1105" y="-661.9655" font-family="Helvetica,sans-Serif" font-size="11.00" fill="#000000">0 rows</text>
<polygon fill="#ffffff" stroke="transparent" points="893.5,-655.8655 893.5,-674.8655 933.5,-674.8655 933.5,-655.8655 893.5,-655.8655"/>
<polygon fill="none" stroke="#000000" points="893.5,-655.8655 893.5,-674.8655 933.5,-674.8655 933.5,-655.8655 893.5,-655.8655"/>
<text text-anchor="start" x="924.3862" y="-661.9655" font-family="Helvetica,sans-Serif" font-size="11.00" fill="#000000"> &#160;</text>
</a>
</g>
</g>
<!-- StudentEvaluationReport&#45;&gt;AspNetUsers -->
<g id="edge34" class="edge">
<title>StudentEvaluationReport:w&#45;&gt;AspNetUsers:e</title>
<path fill="none" stroke="#000000" d="M735.8635,-683.586C583.5673,-683.388 556.2275,-770.878 398,-796.8655 294.9364,-813.7928 245.8125,-860.5108 163,-796.8655 110.2503,-756.3248 79.8727,-552.0991 69.2918,-469.514"/>
<polygon fill="#000000" stroke="#000000" points="742.5015,-683.7127 750.4313,-687.4648 746.5007,-683.7891 750.5,-683.8655 750.5,-683.8655 750.5,-683.8655 746.5007,-683.7891 750.5687,-680.2661 742.5015,-683.7127 742.5015,-683.7127"/>
<ellipse fill="none" stroke="#000000" cx="739.302" cy="-683.6516" rx="3.2" ry="3.2"/>
</g>
<!-- StudentEvaluationReport&#45;&gt;AspNetUsers -->
<g id="edge37" class="edge">
<title>StudentEvaluationReport:w&#45;&gt;AspNetUsers:e</title>
<path fill="none" stroke="#000000" d="M735.8635,-684.7313C583.5673,-696.388 556.2275,-783.878 398,-809.8655 294.9364,-826.7928 245.8125,-873.5108 163,-809.8655 108.8742,-768.2673 78.303,-554.3324 68.5041,-469.4811"/>
<polygon fill="#000000" stroke="#000000" points="742.514,-684.3379 750.7126,-687.4592 746.507,-684.1017 750.5,-683.8655 750.5,-683.8655 750.5,-683.8655 746.507,-684.1017 750.2874,-680.2718 742.514,-684.3379 742.514,-684.3379"/>
<ellipse fill="none" stroke="#000000" cx="739.3195" cy="-684.5269" rx="3.2" ry="3.2"/>
</g>
<!-- StudentEvaluationReport&#45;&gt;EvaluationPeriods -->
<g id="edge35" class="edge">
<title>StudentEvaluationReport:w&#45;&gt;EvaluationPeriods:e</title>
<path fill="none" stroke="#000000" d="M736.0182,-684.0001C602.1124,-686.4708 537.5208,-721.0883 431,-631.8655 397.0566,-603.4342 421.6796,-575.2789 398,-537.8655 382.7893,-513.8327 380.9418,-492.8655 352.5,-492.8655"/>
<polygon fill="#000000" stroke="#000000" points="742.5003,-683.9399 750.5335,-687.4653 746.5002,-683.9027 750.5,-683.8655 750.5,-683.8655 750.5,-683.8655 746.5002,-683.9027 750.4665,-680.2656 742.5003,-683.9399 742.5003,-683.9399"/>
<ellipse fill="none" stroke="#000000" cx="739.3005" cy="-683.9696" rx="3.2" ry="3.2"/>
</g>
<!-- StudentEvaluationReport&#45;&gt;Students -->
<g id="edge36" class="edge">
<title>StudentEvaluationReport:w&#45;&gt;Students:e</title>
<path fill="none" stroke="#000000" d="M736.5164,-680.3176C677.1938,-646.6665 733.8681,-383.6257 689,-321.8655 664.229,-287.7686 647.145,-277.8655 605,-277.8655"/>
<polygon fill="#000000" stroke="#000000" points="742.7457,-681.898 749.6146,-687.3549 746.6228,-682.8817 750.5,-683.8655 750.5,-683.8655 750.5,-683.8655 746.6228,-682.8817 751.3854,-680.376 742.7457,-681.898 742.7457,-681.898"/>
<ellipse fill="none" stroke="#000000" cx="739.644" cy="-681.111" rx="3.2" ry="3.2"/>
</g>
<!-- StudentSubjects -->
<g id="node19" class="node">
<title>StudentSubjects</title>
<g id="a_node19"><a xlink:href="../../tables/StudentSubjects.html" xlink:title="StudentSubjects" target="_top">
<polygon fill="#ffffff" stroke="transparent" points="775,-100.3655 775,-161.3655 908,-161.3655 908,-100.3655 775,-100.3655"/>
<polygon fill="#f5f5f5" stroke="transparent" points="775.5,-137.8655 775.5,-160.8655 908.5,-160.8655 908.5,-137.8655 775.5,-137.8655"/>
<polygon fill="none" stroke="#000000" points="775.5,-137.8655 775.5,-160.8655 908.5,-160.8655 908.5,-137.8655 775.5,-137.8655"/>
<text text-anchor="start" x="780.5" y="-146.4655" font-family="Helvetica,sans-Serif" font-weight="bold" font-size="11.00" fill="#000000">StudentSubjects</text>
<text text-anchor="start" x="874.0219" y="-145.9655" font-family="Helvetica,sans-Serif" font-size="11.00" fill="#000000">[table]</text>
<polygon fill="none" stroke="#000000" points="775.5,-118.8655 775.5,-137.8655 908.5,-137.8655 908.5,-118.8655 775.5,-118.8655"/>
<text text-anchor="start" x="778.5" y="-124.9655" font-family="Helvetica,sans-Serif" font-size="11.00" fill="#000000">...</text>
<polygon fill="#ffffff" stroke="transparent" points="775.5,-99.8655 775.5,-118.8655 827.5,-118.8655 827.5,-99.8655 775.5,-99.8655"/>
<polygon fill="none" stroke="#000000" points="775.5,-99.8655 775.5,-118.8655 827.5,-118.8655 827.5,-99.8655 775.5,-99.8655"/>
<text text-anchor="start" x="778.5" y="-105.9655" font-family="Helvetica,sans-Serif" font-size="11.00" fill="#000000">&lt; 4</text>
<polygon fill="#ffffff" stroke="transparent" points="827.5,-99.8655 827.5,-118.8655 880.5,-118.8655 880.5,-99.8655 827.5,-99.8655"/>
<polygon fill="none" stroke="#000000" points="827.5,-99.8655 827.5,-118.8655 880.5,-118.8655 880.5,-99.8655 827.5,-99.8655"/>
<text text-anchor="start" x="845.1105" y="-105.9655" font-family="Helvetica,sans-Serif" font-size="11.00" fill="#000000">0 rows</text>
<polygon fill="#ffffff" stroke="transparent" points="880.5,-99.8655 880.5,-118.8655 908.5,-118.8655 908.5,-99.8655 880.5,-99.8655"/>
<polygon fill="none" stroke="#000000" points="880.5,-99.8655 880.5,-118.8655 908.5,-118.8655 908.5,-99.8655 880.5,-99.8655"/>
<text text-anchor="start" x="899.3862" y="-105.9655" font-family="Helvetica,sans-Serif" font-size="11.00" fill="#000000"> &#160;</text>
</a>
</g>
</g>
<!-- StudentSubjects&#45;&gt;AspNetUsers -->
<g id="edge40" class="edge">
<title>StudentSubjects:w&#45;&gt;AspNetUsers:e</title>
<path fill="none" stroke="#000000" d="M761.1319,-125.3302C733.7412,-119.8748 722.3473,-113.9017 689,-111.8655 572.3276,-104.7414 257.0096,-40.4003 163,-109.8655 115.8799,-144.6832 82.0454,-323.5938 69.9148,-400.146"/>
<polygon fill="#000000" stroke="#000000" points="767.6217,-126.4753 774.8744,-131.4107 771.5609,-127.1704 775.5,-127.8655 775.5,-127.8655 775.5,-127.8655 771.5609,-127.1704 776.1256,-124.3202 767.6217,-126.4753 767.6217,-126.4753"/>
<ellipse fill="none" stroke="#000000" cx="764.4704" cy="-125.9192" rx="3.2" ry="3.2"/>
</g>
<!-- StudentSubjects&#45;&gt;AspNetUsers -->
<g id="edge43" class="edge">
<title>StudentSubjects:w&#45;&gt;AspNetUsers:e</title>
<path fill="none" stroke="#000000" d="M761.1319,-129.9665C733.7412,-132.8748 722.3473,-126.9017 689,-124.8655 572.3276,-117.7414 257.0096,-53.4003 163,-122.8655 117.2778,-156.6503 84.0646,-326.1054 71.0515,-400.2125"/>
<polygon fill="#000000" stroke="#000000" points="767.5842,-129.023 776.0209,-131.4276 771.5421,-128.4442 775.5,-127.8655 775.5,-127.8655 775.5,-127.8655 771.5421,-128.4442 774.9791,-124.3034 767.5842,-129.023 767.5842,-129.023"/>
<ellipse fill="none" stroke="#000000" cx="764.4179" cy="-129.486" rx="3.2" ry="3.2"/>
</g>
<!-- StudentSubjects&#45;&gt;Students -->
<g id="edge41" class="edge">
<title>StudentSubjects:w&#45;&gt;Students:e</title>
<path fill="none" stroke="#000000" d="M761.1128,-128.9866C677.4145,-142.713 700.8039,-277.8655 605,-277.8655"/>
<polygon fill="#000000" stroke="#000000" points="767.5242,-128.4871 775.7797,-131.4546 771.5121,-128.1763 775.5,-127.8655 775.5,-127.8655 775.5,-127.8655 771.5121,-128.1763 775.2203,-124.2764 767.5242,-128.4871 767.5242,-128.4871"/>
<ellipse fill="none" stroke="#000000" cx="764.3339" cy="-128.7357" rx="3.2" ry="3.2"/>
</g>
<!-- Subjects -->
<g id="node20" class="node">
<title>Subjects</title>
<g id="a_node20"><a xlink:href="../../tables/Subjects.html" xlink:title="Subjects" target="_top">
<polygon fill="#ffffff" stroke="transparent" points="515.5,-128.3655 515.5,-189.3655 604.5,-189.3655 604.5,-128.3655 515.5,-128.3655"/>
<polygon fill="#f5f5f5" stroke="transparent" points="516,-165.8655 516,-188.8655 605,-188.8655 605,-165.8655 516,-165.8655"/>
<polygon fill="none" stroke="#000000" points="516,-165.8655 516,-188.8655 605,-188.8655 605,-165.8655 516,-165.8655"/>
<text text-anchor="start" x="521" y="-174.4655" font-family="Helvetica,sans-Serif" font-weight="bold" font-size="11.00" fill="#000000">Subjects</text>
<text text-anchor="start" x="570.5219" y="-173.9655" font-family="Helvetica,sans-Serif" font-size="11.00" fill="#000000">[table]</text>
<polygon fill="none" stroke="#000000" points="516,-146.8655 516,-165.8655 605,-165.8655 605,-146.8655 516,-146.8655"/>
<text text-anchor="start" x="519" y="-152.9655" font-family="Helvetica,sans-Serif" font-size="11.00" fill="#000000">...</text>
<polygon fill="#ffffff" stroke="transparent" points="516,-127.8655 516,-146.8655 541,-146.8655 541,-127.8655 516,-127.8655"/>
<polygon fill="none" stroke="#000000" points="516,-127.8655 516,-146.8655 541,-146.8655 541,-127.8655 516,-127.8655"/>
<text text-anchor="start" x="519" y="-133.9655" font-family="Helvetica,sans-Serif" font-size="11.00" fill="#000000">&lt; 4</text>
<polygon fill="#ffffff" stroke="transparent" points="541,-127.8655 541,-146.8655 581,-146.8655 581,-127.8655 541,-127.8655"/>
<polygon fill="none" stroke="#000000" points="541,-127.8655 541,-146.8655 581,-146.8655 581,-127.8655 541,-127.8655"/>
<text text-anchor="start" x="545.6105" y="-133.9655" font-family="Helvetica,sans-Serif" font-size="11.00" fill="#000000">0 rows</text>
<polygon fill="#ffffff" stroke="transparent" points="581,-127.8655 581,-146.8655 605,-146.8655 605,-127.8655 581,-127.8655"/>
<polygon fill="none" stroke="#000000" points="581,-127.8655 581,-146.8655 605,-146.8655 605,-127.8655 581,-127.8655"/>
<text text-anchor="start" x="586.4053" y="-133.9655" font-family="Helvetica,sans-Serif" font-size="11.00" fill="#000000">1 &gt;</text>
</a>
</g>
</g>
<!-- StudentSubjects&#45;&gt;Subjects -->
<g id="edge42" class="edge">
<title>StudentSubjects:w&#45;&gt;Subjects:e</title>
<path fill="none" stroke="#000000" d="M760.9585,-128.2195C696.1967,-131.4607 676.6933,-155.8655 605,-155.8655"/>
<polygon fill="#000000" stroke="#000000" points="767.5024,-128.0602 775.5876,-131.4644 771.5012,-127.9629 775.5,-127.8655 775.5,-127.8655 775.5,-127.8655 771.5012,-127.9629 775.4124,-124.2665 767.5024,-128.0602 767.5024,-128.0602"/>
<ellipse fill="none" stroke="#000000" cx="764.3033" cy="-128.1381" rx="3.2" ry="3.2"/>
</g>
<!-- Subjects&#45;&gt;AspNetUsers -->
<g id="edge44" class="edge">
<title>Subjects:w&#45;&gt;AspNetUsers:e</title>
<path fill="none" stroke="#000000" d="M501.5455,-155.0731C354.7684,-144.5927 286.7152,-65.5632 163,-153.8655 122.1589,-183.016 85.8697,-331.5808 71.5226,-400.179"/>
<polygon fill="#000000" stroke="#000000" points="508.012,-155.4276 515.8029,-159.4601 512.006,-155.6465 516,-155.8655 516,-155.8655 516,-155.8655 512.006,-155.6465 516.1971,-152.2709 508.012,-155.4276 508.012,-155.4276"/>
<ellipse fill="none" stroke="#000000" cx="504.8168" cy="-155.2524" rx="3.2" ry="3.2"/>
</g>
<!-- Subjects&#45;&gt;AspNetUsers -->
<g id="edge47" class="edge">
<title>Subjects:w&#45;&gt;AspNetUsers:e</title>
<path fill="none" stroke="#000000" d="M501.5455,-156.2542C354.7684,-157.5927 286.7152,-78.5632 163,-166.8655 123.6027,-194.9854 88.4413,-334.2255 73.1258,-400.2133"/>
<polygon fill="#000000" stroke="#000000" points="508.0029,-156.0806 516.0968,-159.4642 512.0014,-155.973 516,-155.8655 516,-155.8655 516,-155.8655 512.0014,-155.973 515.9032,-152.2668 508.0029,-156.0806 508.0029,-156.0806"/>
<ellipse fill="none" stroke="#000000" cx="504.804" cy="-156.1666" rx="3.2" ry="3.2"/>
</g>
<!-- Subjects&#45;&gt;TechnicalCareers -->
<g id="edge46" class="edge">
<title>Subjects:w&#45;&gt;TechnicalCareers:e</title>
<path fill="none" stroke="#000000" d="M501.4036,-157.1325C462.7672,-164.4711 460.6759,-202.4974 431,-239.8655 388.5016,-293.3796 418.8365,-370.8655 350.5,-370.8655"/>
<polygon fill="#000000" stroke="#000000" points="508.03,-156.5573 516.3113,-159.452 512.015,-156.2114 516,-155.8655 516,-155.8655 516,-155.8655 512.015,-156.2114 515.6887,-152.279 508.03,-156.5573 508.03,-156.5573"/>
<ellipse fill="none" stroke="#000000" cx="504.842" cy="-156.8341" rx="3.2" ry="3.2"/>
</g>
<!-- Subjects&#45;&gt;Professors -->
<g id="edge45" class="edge">
<title>Subjects:w&#45;&gt;Professors:e</title>
<path fill="none" stroke="#000000" d="M501.1681,-156.6375C425.9342,-164.7383 415.3104,-233.8655 331.5,-233.8655"/>
<polygon fill="#000000" stroke="#000000" points="508.0108,-156.2814 516.1871,-159.4606 512.0054,-156.0734 516,-155.8655 516,-155.8655 516,-155.8655 512.0054,-156.0734 515.8129,-152.2703 508.0108,-156.2814 508.0108,-156.2814"/>
<ellipse fill="none" stroke="#000000" cx="504.8151" cy="-156.4477" rx="3.2" ry="3.2"/>
</g>
</g>
</svg>
