<?xml version="1.0" encoding="UTF-8" standalone="no"?>
<!DOCTYPE svg PUBLIC "-//W3C//DTD SVG 1.1//EN"
 "http://www.w3.org/Graphics/SVG/1.1/DTD/svg11.dtd">
<!-- Generated by graphviz version 2.40.1 (20161225.0304)
 -->
<!-- Title: twoDegreesRelationshipsDiagram Pages: 1 -->
<svg width="1103pt" height="1110pt"
 viewBox="0.00 0.00 1103.00 1110.16" xmlns="http://www.w3.org/2000/svg" xmlns:xlink="http://www.w3.org/1999/xlink">
<g id="graph0" class="graph" transform="scale(1 1) rotate(0) translate(4 1106.1631)">
<title>twoDegreesRelationshipsDiagram</title>
<polygon fill="#ffffff" stroke="transparent" points="-4,4 -4,-1106.1631 1099,-1106.1631 1099,4 -4,4"/>
<text text-anchor="middle" x="72.4936" y="-7.3" font-family="Helvetica,sans-Serif" font-size="11.00" fill="#000000">Generated by SchemaSpy</text>
<!-- AspNetUserClaims -->
<g id="node1" class="node">
<title>AspNetUserClaims</title>
<g id="a_node1"><a xlink:href="../../tables/AspNetUserClaims.html" xlink:title="AspNetUserClaims" target="_top">
<polygon fill="#ffffff" stroke="transparent" points="172,-1037.1631 172,-1098.1631 319,-1098.1631 319,-1037.1631 172,-1037.1631"/>
<polygon fill="#f5f5f5" stroke="transparent" points="172.5,-1074.6631 172.5,-1097.6631 319.5,-1097.6631 319.5,-1074.6631 172.5,-1074.6631"/>
<polygon fill="none" stroke="#000000" points="172.5,-1074.6631 172.5,-1097.6631 319.5,-1097.6631 319.5,-1074.6631 172.5,-1074.6631"/>
<text text-anchor="start" x="177.5" y="-1083.2631" font-family="Helvetica,sans-Serif" font-weight="bold" font-size="11.00" fill="#000000">AspNetUserClaims</text>
<text text-anchor="start" x="285.0219" y="-1082.7631" font-family="Helvetica,sans-Serif" font-size="11.00" fill="#000000">[table]</text>
<polygon fill="none" stroke="#000000" points="172.5,-1055.6631 172.5,-1074.6631 319.5,-1074.6631 319.5,-1055.6631 172.5,-1055.6631"/>
<text text-anchor="start" x="175.5" y="-1061.7631" font-family="Helvetica,sans-Serif" font-size="11.00" fill="#000000">...</text>
<polygon fill="#ffffff" stroke="transparent" points="172.5,-1036.6631 172.5,-1055.6631 231.5,-1055.6631 231.5,-1036.6631 172.5,-1036.6631"/>
<polygon fill="none" stroke="#000000" points="172.5,-1036.6631 172.5,-1055.6631 231.5,-1055.6631 231.5,-1036.6631 172.5,-1036.6631"/>
<text text-anchor="start" x="175.5" y="-1042.7631" font-family="Helvetica,sans-Serif" font-size="11.00" fill="#000000">&lt; 1</text>
<polygon fill="#ffffff" stroke="transparent" points="231.5,-1036.6631 231.5,-1055.6631 288.5,-1055.6631 288.5,-1036.6631 231.5,-1036.6631"/>
<polygon fill="none" stroke="#000000" points="231.5,-1036.6631 231.5,-1055.6631 288.5,-1055.6631 288.5,-1036.6631 231.5,-1036.6631"/>
<text text-anchor="start" x="253.1105" y="-1042.7631" font-family="Helvetica,sans-Serif" font-size="11.00" fill="#000000">0 rows</text>
<polygon fill="#ffffff" stroke="transparent" points="288.5,-1036.6631 288.5,-1055.6631 319.5,-1055.6631 319.5,-1036.6631 288.5,-1036.6631"/>
<polygon fill="none" stroke="#000000" points="288.5,-1036.6631 288.5,-1055.6631 319.5,-1055.6631 319.5,-1036.6631 288.5,-1036.6631"/>
<text text-anchor="start" x="310.3862" y="-1042.7631" font-family="Helvetica,sans-Serif" font-size="11.00" fill="#000000"> &#160;</text>
</a>
</g>
</g>
<!-- AspNetUsers -->
<g id="node2" class="node">
<title>AspNetUsers</title>
<g id="a_node2"><a xlink:href="../../tables/AspNetUsers.html" xlink:title="AspNetUsers" target="_top">
<polygon fill="#ffffff" stroke="transparent" points="8,-454.1631 8,-515.1631 122,-515.1631 122,-454.1631 8,-454.1631"/>
<polygon fill="#f5f5f5" stroke="transparent" points="8,-491.6631 8,-514.6631 122,-514.6631 122,-491.6631 8,-491.6631"/>
<polygon fill="none" stroke="#000000" points="8,-491.6631 8,-514.6631 122,-514.6631 122,-491.6631 8,-491.6631"/>
<text text-anchor="start" x="13" y="-500.2631" font-family="Helvetica,sans-Serif" font-weight="bold" font-size="11.00" fill="#000000">AspNetUsers</text>
<text text-anchor="start" x="87.5219" y="-499.7631" font-family="Helvetica,sans-Serif" font-size="11.00" fill="#000000">[table]</text>
<polygon fill="none" stroke="#000000" points="8,-472.6631 8,-491.6631 122,-491.6631 122,-472.6631 8,-472.6631"/>
<text text-anchor="start" x="11" y="-478.7631" font-family="Helvetica,sans-Serif" font-size="11.00" fill="#000000">...</text>
<polygon fill="#ffffff" stroke="transparent" points="8,-453.6631 8,-472.6631 38,-472.6631 38,-453.6631 8,-453.6631"/>
<polygon fill="none" stroke="#000000" points="8,-453.6631 8,-472.6631 38,-472.6631 38,-453.6631 8,-453.6631"/>
<text text-anchor="start" x="11" y="-459.7631" font-family="Helvetica,sans-Serif" font-size="11.00" fill="#000000"> &#160;</text>
<polygon fill="#ffffff" stroke="transparent" points="38,-453.6631 38,-472.6631 85,-472.6631 85,-453.6631 38,-453.6631"/>
<polygon fill="none" stroke="#000000" points="38,-453.6631 38,-472.6631 85,-472.6631 85,-453.6631 38,-453.6631"/>
<text text-anchor="start" x="49.6105" y="-459.7631" font-family="Helvetica,sans-Serif" font-size="11.00" fill="#000000">0 rows</text>
<polygon fill="#ffffff" stroke="transparent" points="85,-453.6631 85,-472.6631 122,-472.6631 122,-453.6631 85,-453.6631"/>
<polygon fill="none" stroke="#000000" points="85,-453.6631 85,-472.6631 122,-472.6631 122,-453.6631 85,-453.6631"/>
<text text-anchor="start" x="97.2904" y="-459.7631" font-family="Helvetica,sans-Serif" font-size="11.00" fill="#000000">29 &gt;</text>
</a>
</g>
</g>
<!-- AspNetUserClaims&#45;&gt;AspNetUsers -->
<g id="edge1" class="edge">
<title>AspNetUserClaims:w&#45;&gt;AspNetUsers:e</title>
<path fill="none" stroke="#000000" d="M159.7374,-1057.3034C110.8119,-1000.7506 77.1742,-634.3161 67.7134,-519.2078"/>
<polygon fill="#000000" stroke="#000000" points="165.5697,-1060.6667 170.7016,-1067.7817 169.0349,-1062.6649 172.5,-1064.6631 172.5,-1064.6631 172.5,-1064.6631 169.0349,-1062.6649 174.2984,-1061.5445 165.5697,-1060.6667 165.5697,-1060.6667"/>
<ellipse fill="none" stroke="#000000" cx="162.7976" cy="-1059.0681" rx="3.2" ry="3.2"/>
</g>
<!-- AspNetUserLogins -->
<g id="node3" class="node">
<title>AspNetUserLogins</title>
<g id="a_node3"><a xlink:href="../../tables/AspNetUserLogins.html" xlink:title="AspNetUserLogins" target="_top">
<polygon fill="#ffffff" stroke="transparent" points="172,-955.1631 172,-1016.1631 319,-1016.1631 319,-955.1631 172,-955.1631"/>
<polygon fill="#f5f5f5" stroke="transparent" points="172.5,-992.6631 172.5,-1015.6631 319.5,-1015.6631 319.5,-992.6631 172.5,-992.6631"/>
<polygon fill="none" stroke="#000000" points="172.5,-992.6631 172.5,-1015.6631 319.5,-1015.6631 319.5,-992.6631 172.5,-992.6631"/>
<text text-anchor="start" x="177.5" y="-1001.2631" font-family="Helvetica,sans-Serif" font-weight="bold" font-size="11.00" fill="#000000">AspNetUserLogins</text>
<text text-anchor="start" x="285.0219" y="-1000.7631" font-family="Helvetica,sans-Serif" font-size="11.00" fill="#000000">[table]</text>
<polygon fill="none" stroke="#000000" points="172.5,-973.6631 172.5,-992.6631 319.5,-992.6631 319.5,-973.6631 172.5,-973.6631"/>
<text text-anchor="start" x="175.5" y="-979.7631" font-family="Helvetica,sans-Serif" font-size="11.00" fill="#000000">...</text>
<polygon fill="#ffffff" stroke="transparent" points="172.5,-954.6631 172.5,-973.6631 231.5,-973.6631 231.5,-954.6631 172.5,-954.6631"/>
<polygon fill="none" stroke="#000000" points="172.5,-954.6631 172.5,-973.6631 231.5,-973.6631 231.5,-954.6631 172.5,-954.6631"/>
<text text-anchor="start" x="175.5" y="-960.7631" font-family="Helvetica,sans-Serif" font-size="11.00" fill="#000000">&lt; 1</text>
<polygon fill="#ffffff" stroke="transparent" points="231.5,-954.6631 231.5,-973.6631 288.5,-973.6631 288.5,-954.6631 231.5,-954.6631"/>
<polygon fill="none" stroke="#000000" points="231.5,-954.6631 231.5,-973.6631 288.5,-973.6631 288.5,-954.6631 231.5,-954.6631"/>
<text text-anchor="start" x="253.1105" y="-960.7631" font-family="Helvetica,sans-Serif" font-size="11.00" fill="#000000">0 rows</text>
<polygon fill="#ffffff" stroke="transparent" points="288.5,-954.6631 288.5,-973.6631 319.5,-973.6631 319.5,-954.6631 288.5,-954.6631"/>
<polygon fill="none" stroke="#000000" points="288.5,-954.6631 288.5,-973.6631 319.5,-973.6631 319.5,-954.6631 288.5,-954.6631"/>
<text text-anchor="start" x="310.3862" y="-960.7631" font-family="Helvetica,sans-Serif" font-size="11.00" fill="#000000"> &#160;</text>
</a>
</g>
</g>
<!-- AspNetUserLogins&#45;&gt;AspNetUsers -->
<g id="edge2" class="edge">
<title>AspNetUserLogins:w&#45;&gt;AspNetUsers:e</title>
<path fill="none" stroke="#000000" d="M160.0905,-974.941C117.6104,-922.8967 80.4265,-622.2955 68.7751,-519.2861"/>
<polygon fill="#000000" stroke="#000000" points="165.7077,-978.4364 170.598,-985.7196 169.1038,-980.5498 172.5,-982.6631 172.5,-982.6631 172.5,-982.6631 169.1038,-980.5498 174.402,-979.6065 165.7077,-978.4364 165.7077,-978.4364"/>
<ellipse fill="none" stroke="#000000" cx="162.9908" cy="-976.7458" rx="3.2" ry="3.2"/>
</g>
<!-- AspNetUserRoles -->
<g id="node4" class="node">
<title>AspNetUserRoles</title>
<g id="a_node4"><a xlink:href="../../tables/AspNetUserRoles.html" xlink:title="AspNetUserRoles" target="_top">
<polygon fill="#ffffff" stroke="transparent" points="175.5,-873.1631 175.5,-934.1631 315.5,-934.1631 315.5,-873.1631 175.5,-873.1631"/>
<polygon fill="#f5f5f5" stroke="transparent" points="175.5,-910.6631 175.5,-933.6631 315.5,-933.6631 315.5,-910.6631 175.5,-910.6631"/>
<polygon fill="none" stroke="#000000" points="175.5,-910.6631 175.5,-933.6631 315.5,-933.6631 315.5,-910.6631 175.5,-910.6631"/>
<text text-anchor="start" x="180.5" y="-919.2631" font-family="Helvetica,sans-Serif" font-weight="bold" font-size="11.00" fill="#000000">AspNetUserRoles</text>
<text text-anchor="start" x="281.0219" y="-918.7631" font-family="Helvetica,sans-Serif" font-size="11.00" fill="#000000">[table]</text>
<polygon fill="none" stroke="#000000" points="175.5,-891.6631 175.5,-910.6631 315.5,-910.6631 315.5,-891.6631 175.5,-891.6631"/>
<text text-anchor="start" x="178.5" y="-897.7631" font-family="Helvetica,sans-Serif" font-size="11.00" fill="#000000">...</text>
<polygon fill="#ffffff" stroke="transparent" points="175.5,-872.6631 175.5,-891.6631 230.5,-891.6631 230.5,-872.6631 175.5,-872.6631"/>
<polygon fill="none" stroke="#000000" points="175.5,-872.6631 175.5,-891.6631 230.5,-891.6631 230.5,-872.6631 175.5,-872.6631"/>
<text text-anchor="start" x="178.5" y="-878.7631" font-family="Helvetica,sans-Serif" font-size="11.00" fill="#000000">&lt; 2</text>
<polygon fill="#ffffff" stroke="transparent" points="230.5,-872.6631 230.5,-891.6631 285.5,-891.6631 285.5,-872.6631 230.5,-872.6631"/>
<polygon fill="none" stroke="#000000" points="230.5,-872.6631 230.5,-891.6631 285.5,-891.6631 285.5,-872.6631 230.5,-872.6631"/>
<text text-anchor="start" x="250.1105" y="-878.7631" font-family="Helvetica,sans-Serif" font-size="11.00" fill="#000000">0 rows</text>
<polygon fill="#ffffff" stroke="transparent" points="285.5,-872.6631 285.5,-891.6631 315.5,-891.6631 315.5,-872.6631 285.5,-872.6631"/>
<polygon fill="none" stroke="#000000" points="285.5,-872.6631 285.5,-891.6631 315.5,-891.6631 315.5,-872.6631 285.5,-872.6631"/>
<text text-anchor="start" x="306.3862" y="-878.7631" font-family="Helvetica,sans-Serif" font-size="11.00" fill="#000000"> &#160;</text>
</a>
</g>
</g>
<!-- AspNetUserRoles&#45;&gt;AspNetUsers -->
<g id="edge3" class="edge">
<title>AspNetUserRoles:w&#45;&gt;AspNetUsers:e</title>
<path fill="none" stroke="#000000" d="M161.3844,-897.4799C93.918,-866.213 72.4528,-613.148 66.7776,-519.4155"/>
<polygon fill="#000000" stroke="#000000" points="167.696,-898.9032 174.708,-904.1749 171.598,-899.7831 175.5,-900.6631 175.5,-900.6631 175.5,-900.6631 171.598,-899.7831 176.292,-897.1513 167.696,-898.9032 167.696,-898.9032"/>
<ellipse fill="none" stroke="#000000" cx="164.5744" cy="-898.1992" rx="3.2" ry="3.2"/>
</g>
<!-- AspNetUserTokens -->
<g id="node5" class="node">
<title>AspNetUserTokens</title>
<g id="a_node5"><a xlink:href="../../tables/AspNetUserTokens.html" xlink:title="AspNetUserTokens" target="_top">
<polygon fill="#ffffff" stroke="transparent" points="171,-791.1631 171,-852.1631 320,-852.1631 320,-791.1631 171,-791.1631"/>
<polygon fill="#f5f5f5" stroke="transparent" points="171.5,-828.6631 171.5,-851.6631 320.5,-851.6631 320.5,-828.6631 171.5,-828.6631"/>
<polygon fill="none" stroke="#000000" points="171.5,-828.6631 171.5,-851.6631 320.5,-851.6631 320.5,-828.6631 171.5,-828.6631"/>
<text text-anchor="start" x="176.5" y="-837.2631" font-family="Helvetica,sans-Serif" font-weight="bold" font-size="11.00" fill="#000000">AspNetUserTokens</text>
<text text-anchor="start" x="286.0219" y="-836.7631" font-family="Helvetica,sans-Serif" font-size="11.00" fill="#000000">[table]</text>
<polygon fill="none" stroke="#000000" points="171.5,-809.6631 171.5,-828.6631 320.5,-828.6631 320.5,-809.6631 171.5,-809.6631"/>
<text text-anchor="start" x="174.5" y="-815.7631" font-family="Helvetica,sans-Serif" font-size="11.00" fill="#000000">...</text>
<polygon fill="#ffffff" stroke="transparent" points="171.5,-790.6631 171.5,-809.6631 231.5,-809.6631 231.5,-790.6631 171.5,-790.6631"/>
<polygon fill="none" stroke="#000000" points="171.5,-790.6631 171.5,-809.6631 231.5,-809.6631 231.5,-790.6631 171.5,-790.6631"/>
<text text-anchor="start" x="174.5" y="-796.7631" font-family="Helvetica,sans-Serif" font-size="11.00" fill="#000000">&lt; 1</text>
<polygon fill="#ffffff" stroke="transparent" points="231.5,-790.6631 231.5,-809.6631 288.5,-809.6631 288.5,-790.6631 231.5,-790.6631"/>
<polygon fill="none" stroke="#000000" points="231.5,-790.6631 231.5,-809.6631 288.5,-809.6631 288.5,-790.6631 231.5,-790.6631"/>
<text text-anchor="start" x="253.1105" y="-796.7631" font-family="Helvetica,sans-Serif" font-size="11.00" fill="#000000">0 rows</text>
<polygon fill="#ffffff" stroke="transparent" points="288.5,-790.6631 288.5,-809.6631 320.5,-809.6631 320.5,-790.6631 288.5,-790.6631"/>
<polygon fill="none" stroke="#000000" points="288.5,-790.6631 288.5,-809.6631 320.5,-809.6631 320.5,-790.6631 288.5,-790.6631"/>
<text text-anchor="start" x="311.3862" y="-796.7631" font-family="Helvetica,sans-Serif" font-size="11.00" fill="#000000"> &#160;</text>
</a>
</g>
</g>
<!-- AspNetUserTokens&#45;&gt;AspNetUsers -->
<g id="edge4" class="edge">
<title>AspNetUserTokens:w&#45;&gt;AspNetUsers:e</title>
<path fill="none" stroke="#000000" d="M157.469,-814.9139C104.5125,-786.0613 77.6584,-598.3242 68.6044,-519.4617"/>
<polygon fill="#000000" stroke="#000000" points="163.7712,-816.5978 170.5706,-822.1411 167.6356,-817.6305 171.5,-818.6631 171.5,-818.6631 171.5,-818.6631 167.6356,-817.6305 172.4294,-815.1851 163.7712,-816.5978 163.7712,-816.5978"/>
<ellipse fill="none" stroke="#000000" cx="160.6796" cy="-815.7717" rx="3.2" ry="3.2"/>
</g>
<!-- Competencies -->
<g id="node6" class="node">
<title>Competencies</title>
<g id="a_node6"><a xlink:href="../../tables/Competencies.html" xlink:title="Competencies" target="_top">
<polygon fill="#ffffff" stroke="transparent" points="185,-591.1631 185,-652.1631 306,-652.1631 306,-591.1631 185,-591.1631"/>
<polygon fill="#f5f5f5" stroke="transparent" points="185.5,-628.6631 185.5,-651.6631 306.5,-651.6631 306.5,-628.6631 185.5,-628.6631"/>
<polygon fill="none" stroke="#000000" points="185.5,-628.6631 185.5,-651.6631 306.5,-651.6631 306.5,-628.6631 185.5,-628.6631"/>
<text text-anchor="start" x="190.5" y="-637.2631" font-family="Helvetica,sans-Serif" font-weight="bold" font-size="11.00" fill="#000000">Competencies</text>
<text text-anchor="start" x="272.0219" y="-636.7631" font-family="Helvetica,sans-Serif" font-size="11.00" fill="#000000">[table]</text>
<polygon fill="none" stroke="#000000" points="185.5,-609.6631 185.5,-628.6631 306.5,-628.6631 306.5,-609.6631 185.5,-609.6631"/>
<text text-anchor="start" x="188.5" y="-615.7631" font-family="Helvetica,sans-Serif" font-size="11.00" fill="#000000">...</text>
<polygon fill="#ffffff" stroke="transparent" points="185.5,-590.6631 185.5,-609.6631 226.5,-609.6631 226.5,-590.6631 185.5,-590.6631"/>
<polygon fill="none" stroke="#000000" points="185.5,-590.6631 185.5,-609.6631 226.5,-609.6631 226.5,-590.6631 185.5,-590.6631"/>
<text text-anchor="start" x="188.5" y="-596.7631" font-family="Helvetica,sans-Serif" font-size="11.00" fill="#000000">&lt; 2</text>
<polygon fill="#ffffff" stroke="transparent" points="226.5,-590.6631 226.5,-609.6631 274.5,-609.6631 274.5,-590.6631 226.5,-590.6631"/>
<polygon fill="none" stroke="#000000" points="226.5,-590.6631 226.5,-609.6631 274.5,-609.6631 274.5,-590.6631 226.5,-590.6631"/>
<text text-anchor="start" x="239.1105" y="-596.7631" font-family="Helvetica,sans-Serif" font-size="11.00" fill="#000000">0 rows</text>
<polygon fill="#ffffff" stroke="transparent" points="274.5,-590.6631 274.5,-609.6631 306.5,-609.6631 306.5,-590.6631 274.5,-590.6631"/>
<polygon fill="none" stroke="#000000" points="274.5,-590.6631 274.5,-609.6631 306.5,-609.6631 306.5,-590.6631 274.5,-590.6631"/>
<text text-anchor="start" x="287.9053" y="-596.7631" font-family="Helvetica,sans-Serif" font-size="11.00" fill="#000000">4 &gt;</text>
</a>
</g>
</g>
<!-- Competencies&#45;&gt;AspNetUsers -->
<g id="edge5" class="edge">
<title>Competencies:w&#45;&gt;AspNetUsers:e</title>
<path fill="none" stroke="#000000" d="M171.1317,-616.1546C127.3044,-604.0481 96.9747,-554.0744 80.2846,-519.2974"/>
<polygon fill="#000000" stroke="#000000" points="177.6192,-617.2872 184.8808,-622.2094 181.5596,-617.9751 185.5,-618.6631 185.5,-618.6631 185.5,-618.6631 181.5596,-617.9751 186.1192,-615.1167 177.6192,-617.2872 177.6192,-617.2872"/>
<ellipse fill="none" stroke="#000000" cx="174.4669" cy="-616.7368" rx="3.2" ry="3.2"/>
</g>
<!-- Competencies&#45;&gt;AspNetUsers -->
<g id="edge6" class="edge">
<title>Competencies:w&#45;&gt;AspNetUsers:e</title>
<path fill="none" stroke="#000000" d="M170.9941,-618.3946C123.5716,-612.3825 91.9726,-556.8666 76.3772,-519.2002"/>
<polygon fill="#000000" stroke="#000000" points="177.5014,-618.515 185.4333,-622.2625 181.5007,-618.589 185.5,-618.6631 185.5,-618.6631 185.5,-618.6631 181.5007,-618.589 185.5667,-615.0637 177.5014,-618.515 177.5014,-618.515"/>
<ellipse fill="none" stroke="#000000" cx="174.3019" cy="-618.4557" rx="3.2" ry="3.2"/>
</g>
<!-- CompetencyLevelDescriptions -->
<g id="node7" class="node">
<title>CompetencyLevelDescriptions</title>
<g id="a_node7"><a xlink:href="../../tables/CompetencyLevelDescriptions.html" xlink:title="CompetencyLevelDescriptions" target="_top">
<polygon fill="#ffffff" stroke="transparent" points="383,-847.1631 383,-908.1631 597,-908.1631 597,-847.1631 383,-847.1631"/>
<polygon fill="#f5f5f5" stroke="transparent" points="383,-884.6631 383,-907.6631 597,-907.6631 597,-884.6631 383,-884.6631"/>
<polygon fill="none" stroke="#000000" points="383,-884.6631 383,-907.6631 597,-907.6631 597,-884.6631 383,-884.6631"/>
<text text-anchor="start" x="388" y="-893.2631" font-family="Helvetica,sans-Serif" font-weight="bold" font-size="11.00" fill="#000000">CompetencyLevelDescriptions</text>
<text text-anchor="start" x="562.5219" y="-892.7631" font-family="Helvetica,sans-Serif" font-size="11.00" fill="#000000">[table]</text>
<polygon fill="none" stroke="#000000" points="383,-865.6631 383,-884.6631 597,-884.6631 597,-865.6631 383,-865.6631"/>
<text text-anchor="start" x="386" y="-871.7631" font-family="Helvetica,sans-Serif" font-size="11.00" fill="#000000">...</text>
<polygon fill="#ffffff" stroke="transparent" points="383,-846.6631 383,-865.6631 475,-865.6631 475,-846.6631 383,-846.6631"/>
<polygon fill="none" stroke="#000000" points="383,-846.6631 383,-865.6631 475,-865.6631 475,-846.6631 383,-846.6631"/>
<text text-anchor="start" x="386" y="-852.7631" font-family="Helvetica,sans-Serif" font-size="11.00" fill="#000000">&lt; 3</text>
<polygon fill="#ffffff" stroke="transparent" points="475,-846.6631 475,-865.6631 549,-865.6631 549,-846.6631 475,-846.6631"/>
<polygon fill="none" stroke="#000000" points="475,-846.6631 475,-865.6631 549,-865.6631 549,-846.6631 475,-846.6631"/>
<text text-anchor="start" x="513.6105" y="-852.7631" font-family="Helvetica,sans-Serif" font-size="11.00" fill="#000000">0 rows</text>
<polygon fill="#ffffff" stroke="transparent" points="549,-846.6631 549,-865.6631 597,-865.6631 597,-846.6631 549,-846.6631"/>
<polygon fill="none" stroke="#000000" points="549,-846.6631 549,-865.6631 597,-865.6631 597,-846.6631 549,-846.6631"/>
<text text-anchor="start" x="587.8862" y="-852.7631" font-family="Helvetica,sans-Serif" font-size="11.00" fill="#000000"> &#160;</text>
</a>
</g>
</g>
<!-- CompetencyLevelDescriptions&#45;&gt;AspNetUsers -->
<g id="edge8" class="edge">
<title>CompetencyLevelDescriptions:w&#45;&gt;AspNetUsers:e</title>
<path fill="none" stroke="#000000" d="M369.0523,-870.284C341.1249,-853.9692 362.0651,-800.4612 328,-774.6631 267.5867,-728.9111 219.5678,-782.0922 163,-731.6631 99.7112,-675.2424 76.9726,-573.0839 69.0495,-519.4857"/>
<polygon fill="#000000" stroke="#000000" points="375.3674,-872.2667 381.9216,-878.0978 379.1837,-873.4649 383,-874.6631 383,-874.6631 383,-874.6631 379.1837,-873.4649 384.0784,-871.2284 375.3674,-872.2667 375.3674,-872.2667"/>
<ellipse fill="none" stroke="#000000" cx="372.3143" cy="-871.3081" rx="3.2" ry="3.2"/>
</g>
<!-- CompetencyLevelDescriptions&#45;&gt;AspNetUsers -->
<g id="edge9" class="edge">
<title>CompetencyLevelDescriptions:w&#45;&gt;AspNetUsers:e</title>
<path fill="none" stroke="#000000" d="M368.3222,-874.1332C341.4912,-866.0243 361.7636,-813.2329 328,-787.6631 267.5867,-741.9111 219.5678,-795.0922 163,-744.6631 96.5468,-685.4213 74.8001,-575.7537 67.9689,-519.5906"/>
<polygon fill="#000000" stroke="#000000" points="375.0052,-874.3744 382.8701,-878.2607 379.0026,-874.5187 383,-874.6631 383,-874.6631 383,-874.6631 379.0026,-874.5187 383.1299,-871.0654 375.0052,-874.3744 375.0052,-874.3744"/>
<ellipse fill="none" stroke="#000000" cx="371.8073" cy="-874.2589" rx="3.2" ry="3.2"/>
</g>
<!-- CompetencyLevelDescriptions&#45;&gt;Competencies -->
<g id="edge7" class="edge">
<title>CompetencyLevelDescriptions:w&#45;&gt;Competencies:e</title>
<path fill="none" stroke="#000000" d="M368.6395,-873.1597C278.1509,-852.1797 419.9148,-618.6631 306.5,-618.6631"/>
<polygon fill="#000000" stroke="#000000" points="375.0435,-873.8301 382.6251,-878.2435 379.0217,-874.2466 383,-874.6631 383,-874.6631 383,-874.6631 379.0217,-874.2466 383.3749,-871.0827 375.0435,-873.8301 375.0435,-873.8301"/>
<ellipse fill="none" stroke="#000000" cx="371.8609" cy="-873.4969" rx="3.2" ry="3.2"/>
</g>
<!-- CompetencyTechnicalCareer -->
<g id="node8" class="node">
<title>CompetencyTechnicalCareer</title>
<g id="a_node8"><a xlink:href="../../tables/CompetencyTechnicalCareer.html" xlink:title="CompetencyTechnicalCareer" target="_top">
<polygon fill="#ffffff" stroke="transparent" points="388,-616.1631 388,-677.1631 592,-677.1631 592,-616.1631 388,-616.1631"/>
<polygon fill="#f5f5f5" stroke="transparent" points="388,-653.6631 388,-676.6631 592,-676.6631 592,-653.6631 388,-653.6631"/>
<polygon fill="none" stroke="#000000" points="388,-653.6631 388,-676.6631 592,-676.6631 592,-653.6631 388,-653.6631"/>
<text text-anchor="start" x="393" y="-662.2631" font-family="Helvetica,sans-Serif" font-weight="bold" font-size="11.00" fill="#000000">CompetencyTechnicalCareer</text>
<text text-anchor="start" x="557.5219" y="-661.7631" font-family="Helvetica,sans-Serif" font-size="11.00" fill="#000000">[table]</text>
<polygon fill="none" stroke="#000000" points="388,-634.6631 388,-653.6631 592,-653.6631 592,-634.6631 388,-634.6631"/>
<text text-anchor="start" x="391" y="-640.7631" font-family="Helvetica,sans-Serif" font-size="11.00" fill="#000000">...</text>
<polygon fill="#ffffff" stroke="transparent" points="388,-615.6631 388,-634.6631 475,-634.6631 475,-615.6631 388,-615.6631"/>
<polygon fill="none" stroke="#000000" points="388,-615.6631 388,-634.6631 475,-634.6631 475,-615.6631 388,-615.6631"/>
<text text-anchor="start" x="391" y="-621.7631" font-family="Helvetica,sans-Serif" font-size="11.00" fill="#000000">&lt; 2</text>
<polygon fill="#ffffff" stroke="transparent" points="475,-615.6631 475,-634.6631 546,-634.6631 546,-615.6631 475,-615.6631"/>
<polygon fill="none" stroke="#000000" points="475,-615.6631 475,-634.6631 546,-634.6631 546,-615.6631 475,-615.6631"/>
<text text-anchor="start" x="510.6105" y="-621.7631" font-family="Helvetica,sans-Serif" font-size="11.00" fill="#000000">0 rows</text>
<polygon fill="#ffffff" stroke="transparent" points="546,-615.6631 546,-634.6631 592,-634.6631 592,-615.6631 546,-615.6631"/>
<polygon fill="none" stroke="#000000" points="546,-615.6631 546,-634.6631 592,-634.6631 592,-615.6631 546,-615.6631"/>
<text text-anchor="start" x="582.8862" y="-621.7631" font-family="Helvetica,sans-Serif" font-size="11.00" fill="#000000"> &#160;</text>
</a>
</g>
</g>
<!-- CompetencyTechnicalCareer&#45;&gt;Competencies -->
<g id="edge10" class="edge">
<title>CompetencyTechnicalCareer:w&#45;&gt;Competencies:e</title>
<path fill="none" stroke="#000000" d="M373.3934,-642.2474C347.7855,-636.9588 338.9121,-618.6631 306.5,-618.6631"/>
<polygon fill="#000000" stroke="#000000" points="380.0373,-642.8913 387.6527,-647.2463 384.0187,-643.2772 388,-643.6631 388,-643.6631 388,-643.6631 384.0187,-643.2772 388.3473,-640.0799 380.0373,-642.8913 380.0373,-642.8913"/>
<ellipse fill="none" stroke="#000000" cx="376.8522" cy="-642.5825" rx="3.2" ry="3.2"/>
</g>
<!-- TechnicalCareers -->
<g id="node9" class="node">
<title>TechnicalCareers</title>
<g id="a_node9"><a xlink:href="../../tables/TechnicalCareers.html" xlink:title="TechnicalCareers" target="_top">
<polygon fill="#ffffff" stroke="transparent" points="176,-399.1631 176,-460.1631 315,-460.1631 315,-399.1631 176,-399.1631"/>
<polygon fill="#f5f5f5" stroke="transparent" points="176.5,-436.6631 176.5,-459.6631 315.5,-459.6631 315.5,-436.6631 176.5,-436.6631"/>
<polygon fill="none" stroke="#000000" points="176.5,-436.6631 176.5,-459.6631 315.5,-459.6631 315.5,-436.6631 176.5,-436.6631"/>
<text text-anchor="start" x="181.5" y="-445.2631" font-family="Helvetica,sans-Serif" font-weight="bold" font-size="11.00" fill="#000000">TechnicalCareers</text>
<text text-anchor="start" x="281.0219" y="-444.7631" font-family="Helvetica,sans-Serif" font-size="11.00" fill="#000000">[table]</text>
<polygon fill="none" stroke="#000000" points="176.5,-417.6631 176.5,-436.6631 315.5,-436.6631 315.5,-417.6631 176.5,-417.6631"/>
<text text-anchor="start" x="179.5" y="-423.7631" font-family="Helvetica,sans-Serif" font-size="11.00" fill="#000000">...</text>
<polygon fill="#ffffff" stroke="transparent" points="176.5,-398.6631 176.5,-417.6631 226.5,-417.6631 226.5,-398.6631 176.5,-398.6631"/>
<polygon fill="none" stroke="#000000" points="176.5,-398.6631 176.5,-417.6631 226.5,-417.6631 226.5,-398.6631 176.5,-398.6631"/>
<text text-anchor="start" x="179.5" y="-404.7631" font-family="Helvetica,sans-Serif" font-size="11.00" fill="#000000">&lt; 2</text>
<polygon fill="#ffffff" stroke="transparent" points="226.5,-398.6631 226.5,-417.6631 279.5,-417.6631 279.5,-398.6631 226.5,-398.6631"/>
<polygon fill="none" stroke="#000000" points="226.5,-398.6631 226.5,-417.6631 279.5,-417.6631 279.5,-398.6631 226.5,-398.6631"/>
<text text-anchor="start" x="244.1105" y="-404.7631" font-family="Helvetica,sans-Serif" font-size="11.00" fill="#000000">0 rows</text>
<polygon fill="#ffffff" stroke="transparent" points="279.5,-398.6631 279.5,-417.6631 315.5,-417.6631 315.5,-398.6631 279.5,-398.6631"/>
<polygon fill="none" stroke="#000000" points="279.5,-398.6631 279.5,-417.6631 315.5,-417.6631 315.5,-398.6631 279.5,-398.6631"/>
<text text-anchor="start" x="296.9053" y="-404.7631" font-family="Helvetica,sans-Serif" font-size="11.00" fill="#000000">6 &gt;</text>
</a>
</g>
</g>
<!-- CompetencyTechnicalCareer&#45;&gt;TechnicalCareers -->
<g id="edge11" class="edge">
<title>CompetencyTechnicalCareer:w&#45;&gt;TechnicalCareers:e</title>
<path fill="none" stroke="#000000" d="M374.4041,-638.5916C367.9091,-631.607 367.3037,-618.4359 361,-605.6631 338.9754,-561.0362 355.5518,-540.1063 328,-498.6631 319.5234,-485.9125 308.0126,-474.2509 296.2811,-464.2888"/>
<polygon fill="#000000" stroke="#000000" points="380.5045,-640.8671 386.7418,-647.0361 384.2522,-642.2651 388,-643.6631 388,-643.6631 388,-643.6631 384.2522,-642.2651 389.2582,-640.2901 380.5045,-640.8671 380.5045,-640.8671"/>
<ellipse fill="none" stroke="#000000" cx="377.5063" cy="-639.7487" rx="3.2" ry="3.2"/>
</g>
<!-- TechnicalCareers&#45;&gt;AspNetUsers -->
<g id="edge50" class="edge">
<title>TechnicalCareers:w&#45;&gt;AspNetUsers:e</title>
<path fill="none" stroke="#000000" d="M153.9247,-453.0674C145.8732,-455.5259 137.8359,-458.028 130.069,-460.4954"/>
<polygon fill="#000000" stroke="#000000" points="160.2457,-451.159 168.9447,-452.2931 164.0749,-450.0029 167.9042,-448.8468 167.9042,-448.8468 167.9042,-448.8468 164.0749,-450.0029 166.8637,-445.4004 160.2457,-451.159 160.2457,-451.159"/>
<ellipse fill="none" stroke="#000000" cx="157.1822" cy="-452.0839" rx="3.2" ry="3.2"/>
</g>
<!-- TechnicalCareers&#45;&gt;AspNetUsers -->
<g id="edge51" class="edge">
<title>TechnicalCareers:w&#45;&gt;AspNetUsers:e</title>
<path fill="none" stroke="#000000" d="M153.9247,-462.8164C145.8732,-465.2637 137.8359,-467.6509 130.069,-469.9"/>
<polygon fill="#000000" stroke="#000000" points="160.2586,-460.8658 168.9638,-461.9516 164.0814,-459.6884 167.9042,-458.5111 167.9042,-458.5111 167.9042,-458.5111 164.0814,-459.6884 166.8446,-455.0706 160.2586,-460.8658 160.2586,-460.8658"/>
<ellipse fill="none" stroke="#000000" cx="157.2003" cy="-461.8077" rx="3.2" ry="3.2"/>
</g>
<!-- Coordinators -->
<g id="node10" class="node">
<title>Coordinators</title>
<g id="a_node10"><a xlink:href="../../tables/Coordinators.html" xlink:title="Coordinators" target="_top">
<polygon fill="#ffffff" stroke="transparent" points="378.5,-422.6631 378.5,-512.6631 601.5,-512.6631 601.5,-422.6631 378.5,-422.6631"/>
<polygon fill="#f5f5f5" stroke="transparent" points="381,-487.6631 381,-510.6631 600,-510.6631 600,-487.6631 381,-487.6631"/>
<polygon fill="none" stroke="#000000" points="381,-487.6631 381,-510.6631 600,-510.6631 600,-487.6631 381,-487.6631"/>
<text text-anchor="start" x="386" y="-496.2631" font-family="Helvetica,sans-Serif" font-weight="bold" font-size="11.00" fill="#000000">Coordinators</text>
<text text-anchor="start" x="565.0437" y="-495.7631" font-family="Helvetica,sans-Serif" font-size="11.00" fill="#000000">[table]</text>
<polygon fill="none" stroke="#000000" points="381,-465.6631 381,-487.6631 506,-487.6631 506,-465.6631 381,-465.6631"/>
<image xlink:href="../../images/primaryKeys.png" width="11px" height="12px" preserveAspectRatio="xMinYMin meet" x="386" y="-482.663"/>
<text text-anchor="start" x="401" y="-472.7631" font-family="Helvetica,sans-Serif" font-size="11.00" fill="#000000">UserId</text>
<polygon fill="none" stroke="#000000" points="506,-465.6631 506,-487.6631 600,-487.6631 600,-465.6631 506,-465.6631"/>
<text text-anchor="start" x="509" y="-473.3631" font-family="Helvetica,sans-Serif" font-size="11.00" fill="#000000">text[2147483647]</text>
<polygon fill="#ffffff" stroke="transparent" points="381,-443.6631 381,-465.6631 506,-465.6631 506,-443.6631 381,-443.6631"/>
<polygon fill="none" stroke="#000000" points="381,-443.6631 381,-465.6631 506,-465.6631 506,-443.6631 381,-443.6631"/>
<image xlink:href="../../images/foreignKeys.png" width="11px" height="12px" preserveAspectRatio="xMinYMin meet" x="386" y="-460.663"/>
<text text-anchor="start" x="401" y="-450.7631" font-family="Helvetica,sans-Serif" font-size="11.00" fill="#000000">TechnicalCareerId</text>
<polygon fill="none" stroke="#000000" points="506,-443.6631 506,-465.6631 600,-465.6631 600,-443.6631 506,-443.6631"/>
<text text-anchor="start" x="508.9758" y="-451.3631" font-family="Helvetica,sans-Serif" font-size="11.00" fill="#000000">uuid[2147483647]</text>
<polygon fill="#ffffff" stroke="transparent" points="381,-424.6631 381,-443.6631 435,-443.6631 435,-424.6631 381,-424.6631"/>
<polygon fill="none" stroke="#000000" points="381,-424.6631 381,-443.6631 435,-443.6631 435,-424.6631 381,-424.6631"/>
<text text-anchor="start" x="384" y="-430.7631" font-family="Helvetica,sans-Serif" font-size="11.00" fill="#000000">&lt; 2</text>
<polygon fill="#ffffff" stroke="transparent" points="435,-424.6631 435,-443.6631 506,-443.6631 506,-424.6631 435,-424.6631"/>
<polygon fill="none" stroke="#000000" points="435,-424.6631 435,-443.6631 506,-443.6631 506,-424.6631 435,-424.6631"/>
<text text-anchor="start" x="470.6105" y="-430.7631" font-family="Helvetica,sans-Serif" font-size="11.00" fill="#000000">0 rows</text>
<polygon fill="#ffffff" stroke="transparent" points="506,-424.6631 506,-443.6631 600,-443.6631 600,-424.6631 506,-424.6631"/>
<polygon fill="none" stroke="#000000" points="506,-424.6631 506,-443.6631 600,-443.6631 600,-424.6631 506,-424.6631"/>
<text text-anchor="start" x="581.4053" y="-430.7631" font-family="Helvetica,sans-Serif" font-size="11.00" fill="#000000">0 &gt;</text>
<polygon fill="none" stroke="#000000" stroke-width="2" points="379.5,-423.6631 379.5,-511.6631 600.5,-511.6631 600.5,-423.6631 379.5,-423.6631"/>
</a>
</g>
</g>
<!-- Coordinators&#45;&gt;AspNetUsers -->
<g id="edge13" class="edge">
<title>Coordinators:w&#45;&gt;AspNetUsers:e</title>
<path fill="none" stroke="#000000" d="M370.5072,-476.6775C286.1867,-476.9067 191.3688,-479.8136 130.0471,-482.0547"/>
<polygon fill="#000000" stroke="#000000" points="380.1945,-472.6642 380.2056,-480.6642 378.6056,-480.6664 378.5945,-472.6664 380.1945,-472.6642"/>
<polyline fill="none" stroke="#000000" points="381,-476.6631 377,-476.6686 "/>
<ellipse fill="none" stroke="#000000" cx="373.8" cy="-476.6731" rx="3.2" ry="3.2"/>
</g>
<!-- Coordinators&#45;&gt;TechnicalCareers -->
<g id="edge12" class="edge">
<title>Coordinators:w&#45;&gt;TechnicalCareers:e</title>
<path fill="none" stroke="#000000" d="M366.1803,-454.2135C351.8065,-453.3749 337.1139,-451.4336 323.151,-448.9902"/>
<polygon fill="#000000" stroke="#000000" points="373.0037,-454.4205 380.8908,-458.2614 377.0018,-454.5418 381,-454.6631 381,-454.6631 381,-454.6631 377.0018,-454.5418 381.1092,-451.0647 373.0037,-454.4205 373.0037,-454.4205"/>
<ellipse fill="none" stroke="#000000" cx="369.8051" cy="-454.3234" rx="3.2" ry="3.2"/>
</g>
<!-- EvaluationPeriods -->
<g id="node11" class="node">
<title>EvaluationPeriods</title>
<g id="a_node11"><a xlink:href="../../tables/EvaluationPeriods.html" xlink:title="EvaluationPeriods" target="_top">
<polygon fill="#ffffff" stroke="transparent" points="174,-509.1631 174,-570.1631 317,-570.1631 317,-509.1631 174,-509.1631"/>
<polygon fill="#f5f5f5" stroke="transparent" points="174.5,-546.6631 174.5,-569.6631 317.5,-569.6631 317.5,-546.6631 174.5,-546.6631"/>
<polygon fill="none" stroke="#000000" points="174.5,-546.6631 174.5,-569.6631 317.5,-569.6631 317.5,-546.6631 174.5,-546.6631"/>
<text text-anchor="start" x="179.5" y="-555.2631" font-family="Helvetica,sans-Serif" font-weight="bold" font-size="11.00" fill="#000000">EvaluationPeriods</text>
<text text-anchor="start" x="283.0219" y="-554.7631" font-family="Helvetica,sans-Serif" font-size="11.00" fill="#000000">[table]</text>
<polygon fill="none" stroke="#000000" points="174.5,-527.6631 174.5,-546.6631 317.5,-546.6631 317.5,-527.6631 174.5,-527.6631"/>
<text text-anchor="start" x="177.5" y="-533.7631" font-family="Helvetica,sans-Serif" font-size="11.00" fill="#000000">...</text>
<polygon fill="#ffffff" stroke="transparent" points="174.5,-508.6631 174.5,-527.6631 226.5,-527.6631 226.5,-508.6631 174.5,-508.6631"/>
<polygon fill="none" stroke="#000000" points="174.5,-508.6631 174.5,-527.6631 226.5,-527.6631 226.5,-508.6631 174.5,-508.6631"/>
<text text-anchor="start" x="177.5" y="-514.7631" font-family="Helvetica,sans-Serif" font-size="11.00" fill="#000000">&lt; 2</text>
<polygon fill="#ffffff" stroke="transparent" points="226.5,-508.6631 226.5,-527.6631 280.5,-527.6631 280.5,-508.6631 226.5,-508.6631"/>
<polygon fill="none" stroke="#000000" points="226.5,-508.6631 226.5,-527.6631 280.5,-527.6631 280.5,-508.6631 226.5,-508.6631"/>
<text text-anchor="start" x="245.1105" y="-514.7631" font-family="Helvetica,sans-Serif" font-size="11.00" fill="#000000">0 rows</text>
<polygon fill="#ffffff" stroke="transparent" points="280.5,-508.6631 280.5,-527.6631 317.5,-527.6631 317.5,-508.6631 280.5,-508.6631"/>
<polygon fill="none" stroke="#000000" points="280.5,-508.6631 280.5,-527.6631 317.5,-527.6631 317.5,-508.6631 280.5,-508.6631"/>
<text text-anchor="start" x="298.9053" y="-514.7631" font-family="Helvetica,sans-Serif" font-size="11.00" fill="#000000">3 &gt;</text>
</a>
</g>
</g>
<!-- EvaluationPeriods&#45;&gt;AspNetUsers -->
<g id="edge14" class="edge">
<title>EvaluationPeriods:w&#45;&gt;AspNetUsers:e</title>
<path fill="none" stroke="#000000" d="M160.2438,-534.0735C147.1406,-530.8292 134.2343,-525.3954 122.3566,-519.2796"/>
<polygon fill="#000000" stroke="#000000" points="166.6288,-535.2333 173.8566,-540.2051 170.5644,-535.9482 174.5,-536.6631 174.5,-536.6631 174.5,-536.6631 170.5644,-535.9482 175.1434,-533.1211 166.6288,-535.2333 166.6288,-535.2333"/>
<ellipse fill="none" stroke="#000000" cx="163.4803" cy="-534.6613" rx="3.2" ry="3.2"/>
</g>
<!-- EvaluationPeriods&#45;&gt;AspNetUsers -->
<g id="edge15" class="edge">
<title>EvaluationPeriods:w&#45;&gt;AspNetUsers:e</title>
<path fill="none" stroke="#000000" d="M160.0716,-537.2013C140.3112,-536.2066 121.007,-528.4877 105.0127,-519.2176"/>
<polygon fill="#000000" stroke="#000000" points="166.5056,-536.9613 174.6342,-540.2606 170.5028,-536.8122 174.5,-536.6631 174.5,-536.6631 174.5,-536.6631 170.5028,-536.8122 174.3658,-533.0656 166.5056,-536.9613 166.5056,-536.9613"/>
<ellipse fill="none" stroke="#000000" cx="163.3078" cy="-537.0806" rx="3.2" ry="3.2"/>
</g>
<!-- EvaluationPeriodTechnicalCareer -->
<g id="node12" class="node">
<title>EvaluationPeriodTechnicalCareer</title>
<g id="a_node12"><a xlink:href="../../tables/EvaluationPeriodTechnicalCareer.html" xlink:title="EvaluationPeriodTechnicalCareer" target="_top">
<polygon fill="#ffffff" stroke="transparent" points="375,-534.1631 375,-595.1631 605,-595.1631 605,-534.1631 375,-534.1631"/>
<polygon fill="#f5f5f5" stroke="transparent" points="375,-571.6631 375,-594.6631 605,-594.6631 605,-571.6631 375,-571.6631"/>
<polygon fill="none" stroke="#000000" points="375,-571.6631 375,-594.6631 605,-594.6631 605,-571.6631 375,-571.6631"/>
<text text-anchor="start" x="380" y="-580.2631" font-family="Helvetica,sans-Serif" font-weight="bold" font-size="11.00" fill="#000000">EvaluationPeriodTechnicalCareer</text>
<text text-anchor="start" x="570.5219" y="-579.7631" font-family="Helvetica,sans-Serif" font-size="11.00" fill="#000000">[table]</text>
<polygon fill="none" stroke="#000000" points="375,-552.6631 375,-571.6631 605,-571.6631 605,-552.6631 375,-552.6631"/>
<text text-anchor="start" x="378" y="-558.7631" font-family="Helvetica,sans-Serif" font-size="11.00" fill="#000000">...</text>
<polygon fill="#ffffff" stroke="transparent" points="375,-533.6631 375,-552.6631 475,-552.6631 475,-533.6631 375,-533.6631"/>
<polygon fill="none" stroke="#000000" points="375,-533.6631 375,-552.6631 475,-552.6631 475,-533.6631 375,-533.6631"/>
<text text-anchor="start" x="378" y="-539.7631" font-family="Helvetica,sans-Serif" font-size="11.00" fill="#000000">&lt; 2</text>
<polygon fill="#ffffff" stroke="transparent" points="475,-533.6631 475,-552.6631 553,-552.6631 553,-533.6631 475,-533.6631"/>
<polygon fill="none" stroke="#000000" points="475,-533.6631 475,-552.6631 553,-552.6631 553,-533.6631 475,-533.6631"/>
<text text-anchor="start" x="517.6105" y="-539.7631" font-family="Helvetica,sans-Serif" font-size="11.00" fill="#000000">0 rows</text>
<polygon fill="#ffffff" stroke="transparent" points="553,-533.6631 553,-552.6631 605,-552.6631 605,-533.6631 553,-533.6631"/>
<polygon fill="none" stroke="#000000" points="553,-533.6631 553,-552.6631 605,-552.6631 605,-533.6631 553,-533.6631"/>
<text text-anchor="start" x="595.8862" y="-539.7631" font-family="Helvetica,sans-Serif" font-size="11.00" fill="#000000"> &#160;</text>
</a>
</g>
</g>
<!-- EvaluationPeriodTechnicalCareer&#45;&gt;TechnicalCareers -->
<g id="edge17" class="edge">
<title>EvaluationPeriodTechnicalCareer:w&#45;&gt;TechnicalCareers:e</title>
<path fill="none" stroke="#000000" d="M360.721,-558.5821C343.1089,-549.0923 347.8799,-519.6795 328,-498.6631 316.7085,-486.726 303.4313,-474.8424 290.868,-464.3859"/>
<polygon fill="#000000" stroke="#000000" points="367.18,-559.9757 374.2407,-565.1821 371.09,-560.8194 375,-561.6631 375,-561.6631 375,-561.6631 371.09,-560.8194 375.7593,-558.1441 367.18,-559.9757 367.18,-559.9757"/>
<ellipse fill="none" stroke="#000000" cx="364.0519" cy="-559.3008" rx="3.2" ry="3.2"/>
</g>
<!-- EvaluationPeriodTechnicalCareer&#45;&gt;EvaluationPeriods -->
<g id="edge16" class="edge">
<title>EvaluationPeriodTechnicalCareer:w&#45;&gt;EvaluationPeriods:e</title>
<path fill="none" stroke="#000000" d="M360.8119,-558.9877C345.3388,-552.5383 339.7061,-536.6631 317.5,-536.6631"/>
<polygon fill="#000000" stroke="#000000" points="367.1385,-560.1806 374.3329,-565.2007 371.0693,-560.9219 375,-561.6631 375,-561.6631 375,-561.6631 371.0693,-560.9219 375.6671,-558.1254 367.1385,-560.1806 367.1385,-560.1806"/>
<ellipse fill="none" stroke="#000000" cx="363.994" cy="-559.5876" rx="3.2" ry="3.2"/>
</g>
<!-- FormQuestions -->
<g id="node13" class="node">
<title>FormQuestions</title>
<g id="a_node13"><a xlink:href="../../tables/FormQuestions.html" xlink:title="FormQuestions" target="_top">
<polygon fill="#ffffff" stroke="transparent" points="426.5,-765.1631 426.5,-826.1631 553.5,-826.1631 553.5,-765.1631 426.5,-765.1631"/>
<polygon fill="#f5f5f5" stroke="transparent" points="427,-802.6631 427,-825.6631 554,-825.6631 554,-802.6631 427,-802.6631"/>
<polygon fill="none" stroke="#000000" points="427,-802.6631 427,-825.6631 554,-825.6631 554,-802.6631 427,-802.6631"/>
<text text-anchor="start" x="432" y="-811.2631" font-family="Helvetica,sans-Serif" font-weight="bold" font-size="11.00" fill="#000000">FormQuestions</text>
<text text-anchor="start" x="519.5219" y="-810.7631" font-family="Helvetica,sans-Serif" font-size="11.00" fill="#000000">[table]</text>
<polygon fill="none" stroke="#000000" points="427,-783.6631 427,-802.6631 554,-802.6631 554,-783.6631 427,-783.6631"/>
<text text-anchor="start" x="430" y="-789.7631" font-family="Helvetica,sans-Serif" font-size="11.00" fill="#000000">...</text>
<polygon fill="#ffffff" stroke="transparent" points="427,-764.6631 427,-783.6631 471,-783.6631 471,-764.6631 427,-764.6631"/>
<polygon fill="none" stroke="#000000" points="427,-764.6631 427,-783.6631 471,-783.6631 471,-764.6631 427,-764.6631"/>
<text text-anchor="start" x="430" y="-770.7631" font-family="Helvetica,sans-Serif" font-size="11.00" fill="#000000">&lt; 3</text>
<polygon fill="#ffffff" stroke="transparent" points="471,-764.6631 471,-783.6631 521,-783.6631 521,-764.6631 471,-764.6631"/>
<polygon fill="none" stroke="#000000" points="471,-764.6631 471,-783.6631 521,-783.6631 521,-764.6631 471,-764.6631"/>
<text text-anchor="start" x="485.6105" y="-770.7631" font-family="Helvetica,sans-Serif" font-size="11.00" fill="#000000">0 rows</text>
<polygon fill="#ffffff" stroke="transparent" points="521,-764.6631 521,-783.6631 554,-783.6631 554,-764.6631 521,-764.6631"/>
<polygon fill="none" stroke="#000000" points="521,-764.6631 521,-783.6631 554,-783.6631 554,-764.6631 521,-764.6631"/>
<text text-anchor="start" x="535.4053" y="-770.7631" font-family="Helvetica,sans-Serif" font-size="11.00" fill="#000000">1 &gt;</text>
</a>
</g>
</g>
<!-- FormQuestions&#45;&gt;AspNetUsers -->
<g id="edge19" class="edge">
<title>FormQuestions:w&#45;&gt;AspNetUsers:e</title>
<path fill="none" stroke="#000000" d="M412.4409,-789.8578C376.6512,-780.1082 368.7333,-754.0729 328,-738.6631 256.7952,-711.7256 220.9014,-742.0917 163,-692.6631 109.3888,-646.8969 83.5307,-565.6423 72.366,-519.3411"/>
<polygon fill="#000000" stroke="#000000" points="419.1445,-791.1494 426.3189,-796.1981 423.0722,-791.9063 427,-792.6631 427,-792.6631 427,-792.6631 423.0722,-791.9063 427.6811,-789.1281 419.1445,-791.1494 419.1445,-791.1494"/>
<ellipse fill="none" stroke="#000000" cx="416.0023" cy="-790.544" rx="3.2" ry="3.2"/>
</g>
<!-- FormQuestions&#45;&gt;AspNetUsers -->
<g id="edge20" class="edge">
<title>FormQuestions:w&#45;&gt;AspNetUsers:e</title>
<path fill="none" stroke="#000000" d="M412.4409,-793.6739C376.6512,-793.1082 368.7333,-767.0729 328,-751.6631 256.7952,-724.7256 220.9014,-755.0917 163,-705.6631 106.1255,-657.1111 80.4856,-568.619 70.4876,-519.5417"/>
<polygon fill="#000000" stroke="#000000" points="419.0192,-793.2172 427.2494,-796.2544 423.0096,-792.9402 427,-792.6631 427,-792.6631 427,-792.6631 423.0096,-792.9402 426.7506,-789.0717 419.0192,-793.2172 419.0192,-793.2172"/>
<ellipse fill="none" stroke="#000000" cx="415.8269" cy="-793.4389" rx="3.2" ry="3.2"/>
</g>
<!-- FormQuestions&#45;&gt;Competencies -->
<g id="edge18" class="edge">
<title>FormQuestions:w&#45;&gt;Competencies:e</title>
<path fill="none" stroke="#000000" d="M412.3234,-790.8623C381.749,-782.3532 384.2771,-745.1889 361,-711.6631 333.6773,-672.3105 354.4078,-618.6631 306.5,-618.6631"/>
<polygon fill="#000000" stroke="#000000" points="419.0595,-791.6888 426.5616,-796.2363 423.0298,-792.1759 427,-792.6631 427,-792.6631 427,-792.6631 423.0298,-792.1759 427.4384,-789.0899 419.0595,-791.6888 419.0595,-791.6888"/>
<ellipse fill="none" stroke="#000000" cx="415.8834" cy="-791.299" rx="3.2" ry="3.2"/>
</g>
<!-- ProfessorCompetencyAssignments -->
<g id="node14" class="node">
<title>ProfessorCompetencyAssignments</title>
<g id="a_node14"><a xlink:href="../../tables/ProfessorCompetencyAssignments.html" xlink:title="ProfessorCompetencyAssignments" target="_top">
<polygon fill="#ffffff" stroke="transparent" points="369,-258.1631 369,-319.1631 611,-319.1631 611,-258.1631 369,-258.1631"/>
<polygon fill="#f5f5f5" stroke="transparent" points="369,-295.6631 369,-318.6631 611,-318.6631 611,-295.6631 369,-295.6631"/>
<polygon fill="none" stroke="#000000" points="369,-295.6631 369,-318.6631 611,-318.6631 611,-295.6631 369,-295.6631"/>
<text text-anchor="start" x="374" y="-304.2631" font-family="Helvetica,sans-Serif" font-weight="bold" font-size="11.00" fill="#000000">ProfessorCompetencyAssignments</text>
<text text-anchor="start" x="576.5219" y="-303.7631" font-family="Helvetica,sans-Serif" font-size="11.00" fill="#000000">[table]</text>
<polygon fill="none" stroke="#000000" points="369,-276.6631 369,-295.6631 611,-295.6631 611,-276.6631 369,-276.6631"/>
<text text-anchor="start" x="372" y="-282.7631" font-family="Helvetica,sans-Serif" font-size="11.00" fill="#000000">...</text>
<polygon fill="#ffffff" stroke="transparent" points="369,-257.6631 369,-276.6631 471,-276.6631 471,-257.6631 369,-257.6631"/>
<polygon fill="none" stroke="#000000" points="369,-257.6631 369,-276.6631 471,-276.6631 471,-257.6631 369,-257.6631"/>
<text text-anchor="start" x="372" y="-263.7631" font-family="Helvetica,sans-Serif" font-size="11.00" fill="#000000">&lt; 6</text>
<polygon fill="#ffffff" stroke="transparent" points="471,-257.6631 471,-276.6631 549,-276.6631 549,-257.6631 471,-257.6631"/>
<polygon fill="none" stroke="#000000" points="471,-257.6631 471,-276.6631 549,-276.6631 549,-257.6631 471,-257.6631"/>
<text text-anchor="start" x="513.6105" y="-263.7631" font-family="Helvetica,sans-Serif" font-size="11.00" fill="#000000">0 rows</text>
<polygon fill="#ffffff" stroke="transparent" points="549,-257.6631 549,-276.6631 611,-276.6631 611,-257.6631 549,-257.6631"/>
<polygon fill="none" stroke="#000000" points="549,-257.6631 549,-276.6631 611,-276.6631 611,-257.6631 549,-257.6631"/>
<text text-anchor="start" x="592.4053" y="-263.7631" font-family="Helvetica,sans-Serif" font-size="11.00" fill="#000000">1 &gt;</text>
</a>
</g>
</g>
<!-- ProfessorCompetencyAssignments&#45;&gt;AspNetUsers -->
<g id="edge22" class="edge">
<title>ProfessorCompetencyAssignments:w&#45;&gt;AspNetUsers:e</title>
<path fill="none" stroke="#000000" d="M354.5014,-286.7755C345.4304,-292.2903 343.7039,-307.6747 328,-315.6631 261.0142,-349.738 226.4677,-312.4132 163,-352.6631 125.6719,-376.3358 96.8158,-419.4217 80.365,-449.9918"/>
<polygon fill="#000000" stroke="#000000" points="361.0234,-286.2751 369.2754,-289.2525 365.0117,-285.9691 369,-285.6631 369,-285.6631 369,-285.6631 365.0117,-285.9691 368.7246,-282.0736 361.0234,-286.2751 361.0234,-286.2751"/>
<ellipse fill="none" stroke="#000000" cx="357.8328" cy="-286.52" rx="3.2" ry="3.2"/>
</g>
<!-- ProfessorCompetencyAssignments&#45;&gt;AspNetUsers -->
<g id="edge26" class="edge">
<title>ProfessorCompetencyAssignments:w&#45;&gt;AspNetUsers:e</title>
<path fill="none" stroke="#000000" d="M356.3545,-292.8212C345.595,-303.2744 344.7171,-320.1593 328,-328.6631 261.0142,-362.738 226.4677,-325.4132 163,-365.6631 129.8845,-386.6643 103.4367,-422.9442 86.4029,-450.0145"/>
<polygon fill="#000000" stroke="#000000" points="362.038,-289.604 370.7734,-288.796 365.519,-287.6336 369,-285.6631 369,-285.6631 369,-285.6631 365.519,-287.6336 367.2266,-282.5302 362.038,-289.604 362.038,-289.604"/>
<ellipse fill="none" stroke="#000000" cx="359.2532" cy="-291.1804" rx="3.2" ry="3.2"/>
</g>
<!-- ProfessorCompetencyAssignments&#45;&gt;Competencies -->
<g id="edge21" class="edge">
<title>ProfessorCompetencyAssignments:w&#45;&gt;Competencies:e</title>
<path fill="none" stroke="#000000" d="M355.1132,-290.6288C305.5856,-332.053 376.3511,-618.6631 306.5,-618.6631"/>
<polygon fill="#000000" stroke="#000000" points="361.4671,-288.3568 370.2122,-289.0529 365.2336,-287.0099 369,-285.6631 369,-285.6631 369,-285.6631 365.2336,-287.0099 367.7878,-282.2733 361.4671,-288.3568 361.4671,-288.3568"/>
<ellipse fill="none" stroke="#000000" cx="358.454" cy="-289.4343" rx="3.2" ry="3.2"/>
</g>
<!-- ProfessorCompetencyAssignments&#45;&gt;TechnicalCareers -->
<g id="edge25" class="edge">
<title>ProfessorCompetencyAssignments:w&#45;&gt;TechnicalCareers:e</title>
<path fill="none" stroke="#000000" d="M354.9596,-288.9169C337.3117,-299.5308 347.4864,-333.8329 328,-357.6631 317.1694,-370.908 303.7573,-383.739 290.9176,-394.8101"/>
<polygon fill="#000000" stroke="#000000" points="361.2065,-287.4692 369.8128,-289.1701 365.1033,-286.5662 369,-285.6631 369,-285.6631 369,-285.6631 365.1033,-286.5662 368.1872,-282.156 361.2065,-287.4692 361.2065,-287.4692"/>
<ellipse fill="none" stroke="#000000" cx="358.0892" cy="-288.1917" rx="3.2" ry="3.2"/>
</g>
<!-- ProfessorCompetencyAssignments&#45;&gt;EvaluationPeriods -->
<g id="edge23" class="edge">
<title>ProfessorCompetencyAssignments:w&#45;&gt;EvaluationPeriods:e</title>
<path fill="none" stroke="#000000" d="M354.5815,-287.3323C271.3247,-309.1098 425.9302,-536.6631 317.5,-536.6631"/>
<polygon fill="#000000" stroke="#000000" points="361.0531,-286.5831 369.414,-289.2392 365.0265,-286.1231 369,-285.6631 369,-285.6631 369,-285.6631 365.0265,-286.1231 368.586,-282.087 361.0531,-286.5831 361.0531,-286.5831"/>
<ellipse fill="none" stroke="#000000" cx="357.8743" cy="-286.9512" rx="3.2" ry="3.2"/>
</g>
<!-- Professors -->
<g id="node15" class="node">
<title>Professors</title>
<g id="a_node15"><a xlink:href="../../tables/Professors.html" xlink:title="Professors" target="_top">
<polygon fill="#ffffff" stroke="transparent" points="195,-250.1631 195,-311.1631 296,-311.1631 296,-250.1631 195,-250.1631"/>
<polygon fill="#f5f5f5" stroke="transparent" points="195.5,-287.6631 195.5,-310.6631 296.5,-310.6631 296.5,-287.6631 195.5,-287.6631"/>
<polygon fill="none" stroke="#000000" points="195.5,-287.6631 195.5,-310.6631 296.5,-310.6631 296.5,-287.6631 195.5,-287.6631"/>
<text text-anchor="start" x="200.5" y="-296.2631" font-family="Helvetica,sans-Serif" font-weight="bold" font-size="11.00" fill="#000000">Professors</text>
<text text-anchor="start" x="262.0219" y="-295.7631" font-family="Helvetica,sans-Serif" font-size="11.00" fill="#000000">[table]</text>
<polygon fill="none" stroke="#000000" points="195.5,-268.6631 195.5,-287.6631 296.5,-287.6631 296.5,-268.6631 195.5,-268.6631"/>
<text text-anchor="start" x="198.5" y="-274.7631" font-family="Helvetica,sans-Serif" font-size="11.00" fill="#000000">...</text>
<polygon fill="#ffffff" stroke="transparent" points="195.5,-249.6631 195.5,-268.6631 226.5,-268.6631 226.5,-249.6631 195.5,-249.6631"/>
<polygon fill="none" stroke="#000000" points="195.5,-249.6631 195.5,-268.6631 226.5,-268.6631 226.5,-249.6631 195.5,-249.6631"/>
<text text-anchor="start" x="198.5" y="-255.7631" font-family="Helvetica,sans-Serif" font-size="11.00" fill="#000000">&lt; 1</text>
<polygon fill="#ffffff" stroke="transparent" points="226.5,-249.6631 226.5,-268.6631 269.5,-268.6631 269.5,-249.6631 226.5,-249.6631"/>
<polygon fill="none" stroke="#000000" points="226.5,-249.6631 226.5,-268.6631 269.5,-268.6631 269.5,-249.6631 226.5,-249.6631"/>
<text text-anchor="start" x="234.1105" y="-255.7631" font-family="Helvetica,sans-Serif" font-size="11.00" fill="#000000">0 rows</text>
<polygon fill="#ffffff" stroke="transparent" points="269.5,-249.6631 269.5,-268.6631 296.5,-268.6631 296.5,-249.6631 269.5,-249.6631"/>
<polygon fill="none" stroke="#000000" points="269.5,-249.6631 269.5,-268.6631 296.5,-268.6631 296.5,-249.6631 269.5,-249.6631"/>
<text text-anchor="start" x="277.9053" y="-255.7631" font-family="Helvetica,sans-Serif" font-size="11.00" fill="#000000">2 &gt;</text>
</a>
</g>
</g>
<!-- ProfessorCompetencyAssignments&#45;&gt;Professors -->
<g id="edge24" class="edge">
<title>ProfessorCompetencyAssignments:w&#45;&gt;Professors:e</title>
<path fill="none" stroke="#000000" d="M354.525,-285.0618C333.3091,-283.2013 323.4726,-277.6631 296.5,-277.6631"/>
<polygon fill="#000000" stroke="#000000" points="361.0069,-285.331 368.8506,-289.26 365.0034,-285.497 369,-285.6631 369,-285.6631 369,-285.6631 365.0034,-285.497 369.1494,-282.0662 361.0069,-285.331 361.0069,-285.331"/>
<ellipse fill="none" stroke="#000000" cx="357.8097" cy="-285.1982" rx="3.2" ry="3.2"/>
</g>
<!-- Professors&#45;&gt;AspNetUsers -->
<g id="edge27" class="edge">
<title>Professors:w&#45;&gt;AspNetUsers:e</title>
<path fill="none" stroke="#000000" d="M184.9369,-278.3345C112.0881,-287.7436 81.6458,-393.7353 70.5457,-450.0159"/>
<polygon fill="#000000" stroke="#000000" points="194.4478,-273.7219 194.9554,-281.7058 193.3586,-281.8073 192.8511,-273.8234 194.4478,-273.7219"/>
<polyline fill="none" stroke="#000000" points="195.5,-277.6631 191.5081,-277.9169 "/>
<ellipse fill="none" stroke="#000000" cx="188.3145" cy="-278.1199" rx="3.2" ry="3.2"/>
</g>
<!-- QuestionResponses -->
<g id="node16" class="node">
<title>QuestionResponses</title>
<g id="a_node16"><a xlink:href="../../tables/QuestionResponses.html" xlink:title="QuestionResponses" target="_top">
<polygon fill="#ffffff" stroke="transparent" points="932,-69.1631 932,-130.1631 1087,-130.1631 1087,-69.1631 932,-69.1631"/>
<polygon fill="#f5f5f5" stroke="transparent" points="932.5,-106.6631 932.5,-129.6631 1087.5,-129.6631 1087.5,-106.6631 932.5,-106.6631"/>
<polygon fill="none" stroke="#000000" points="932.5,-106.6631 932.5,-129.6631 1087.5,-129.6631 1087.5,-106.6631 932.5,-106.6631"/>
<text text-anchor="start" x="937.5" y="-115.2631" font-family="Helvetica,sans-Serif" font-weight="bold" font-size="11.00" fill="#000000">QuestionResponses</text>
<text text-anchor="start" x="1053.0219" y="-114.7631" font-family="Helvetica,sans-Serif" font-size="11.00" fill="#000000">[table]</text>
<polygon fill="none" stroke="#000000" points="932.5,-87.6631 932.5,-106.6631 1087.5,-106.6631 1087.5,-87.6631 932.5,-87.6631"/>
<text text-anchor="start" x="935.5" y="-93.7631" font-family="Helvetica,sans-Serif" font-size="11.00" fill="#000000">...</text>
<polygon fill="#ffffff" stroke="transparent" points="932.5,-68.6631 932.5,-87.6631 995.5,-87.6631 995.5,-68.6631 932.5,-68.6631"/>
<polygon fill="none" stroke="#000000" points="932.5,-68.6631 932.5,-87.6631 995.5,-87.6631 995.5,-68.6631 932.5,-68.6631"/>
<text text-anchor="start" x="935.5" y="-74.7631" font-family="Helvetica,sans-Serif" font-size="11.00" fill="#000000">&lt; 4</text>
<polygon fill="#ffffff" stroke="transparent" points="995.5,-68.6631 995.5,-87.6631 1054.5,-87.6631 1054.5,-68.6631 995.5,-68.6631"/>
<polygon fill="none" stroke="#000000" points="995.5,-68.6631 995.5,-87.6631 1054.5,-87.6631 1054.5,-68.6631 995.5,-68.6631"/>
<text text-anchor="start" x="1019.1105" y="-74.7631" font-family="Helvetica,sans-Serif" font-size="11.00" fill="#000000">0 rows</text>
<polygon fill="#ffffff" stroke="transparent" points="1054.5,-68.6631 1054.5,-87.6631 1087.5,-87.6631 1087.5,-68.6631 1054.5,-68.6631"/>
<polygon fill="none" stroke="#000000" points="1054.5,-68.6631 1054.5,-87.6631 1087.5,-87.6631 1087.5,-68.6631 1054.5,-68.6631"/>
<text text-anchor="start" x="1078.3862" y="-74.7631" font-family="Helvetica,sans-Serif" font-size="11.00" fill="#000000"> &#160;</text>
</a>
</g>
</g>
<!-- QuestionResponses&#45;&gt;AspNetUsers -->
<g id="edge28" class="edge">
<title>QuestionResponses:w&#45;&gt;AspNetUsers:e</title>
<path fill="none" stroke="#000000" d="M918.8776,-91.2141C910.0207,-86.9523 904.1946,-83.0774 891,-81.6631 785.3828,-70.3422 758.2062,-79.8175 652,-81.6631 434.5682,-85.4414 332.5618,37.4974 163,-98.6631 108.0841,-142.7613 77.9502,-363.4839 68.3882,-449.9388"/>
<polygon fill="#000000" stroke="#000000" points="925.0722,-93.6919 931.163,-100.0056 928.7861,-95.1775 932.5,-96.6631 932.5,-96.6631 932.5,-96.6631 928.7861,-95.1775 933.837,-93.3206 925.0722,-93.6919 925.0722,-93.6919"/>
<ellipse fill="none" stroke="#000000" cx="922.1011" cy="-92.5034" rx="3.2" ry="3.2"/>
</g>
<!-- QuestionResponses&#45;&gt;AspNetUsers -->
<g id="edge31" class="edge">
<title>QuestionResponses:w&#45;&gt;AspNetUsers:e</title>
<path fill="none" stroke="#000000" d="M918.2915,-99.7062C909.7581,-99.7813 903.9014,-96.046 891,-94.6631 785.3828,-83.3422 758.2062,-92.8175 652,-94.6631 434.5682,-98.4414 332.5618,24.4974 163,-111.6631 109.4121,-154.6949 79.4222,-365.9114 69.1181,-450.0721"/>
<polygon fill="#000000" stroke="#000000" points="924.6774,-98.3385 933.2539,-100.1833 928.5887,-97.5008 932.5,-96.6631 932.5,-96.6631 932.5,-96.6631 928.5887,-97.5008 931.7461,-93.1429 924.6774,-98.3385 924.6774,-98.3385"/>
<ellipse fill="none" stroke="#000000" cx="921.5484" cy="-99.0087" rx="3.2" ry="3.2"/>
</g>
<!-- QuestionResponses&#45;&gt;FormQuestions -->
<g id="edge29" class="edge">
<title>QuestionResponses:w&#45;&gt;FormQuestions:e</title>
<path fill="none" stroke="#000000" d="M919.8964,-104.3148C869.6617,-174.4456 938.0121,-704.1339 891,-753.6631 787.1992,-863.0214 704.7774,-792.6631 554,-792.6631"/>
<polygon fill="#000000" stroke="#000000" points="925.6616,-100.8147 934.3682,-99.7404 929.0808,-98.7389 932.5,-96.6631 932.5,-96.6631 932.5,-96.6631 929.0808,-98.7389 930.6318,-93.5858 925.6616,-100.8147 925.6616,-100.8147"/>
<ellipse fill="none" stroke="#000000" cx="922.9262" cy="-102.4754" rx="3.2" ry="3.2"/>
</g>
<!-- StudentCompetencyEvaluations -->
<g id="node17" class="node">
<title>StudentCompetencyEvaluations</title>
<g id="a_node17"><a xlink:href="../../tables/StudentCompetencyEvaluations.html" xlink:title="StudentCompetencyEvaluations" target="_top">
<polygon fill="#ffffff" stroke="transparent" points="660,-98.1631 660,-159.1631 883,-159.1631 883,-98.1631 660,-98.1631"/>
<polygon fill="#f5f5f5" stroke="transparent" points="660.5,-135.6631 660.5,-158.6631 883.5,-158.6631 883.5,-135.6631 660.5,-135.6631"/>
<polygon fill="none" stroke="#000000" points="660.5,-135.6631 660.5,-158.6631 883.5,-158.6631 883.5,-135.6631 660.5,-135.6631"/>
<text text-anchor="start" x="665.5" y="-144.2631" font-family="Helvetica,sans-Serif" font-weight="bold" font-size="11.00" fill="#000000">StudentCompetencyEvaluations</text>
<text text-anchor="start" x="849.0219" y="-143.7631" font-family="Helvetica,sans-Serif" font-size="11.00" fill="#000000">[table]</text>
<polygon fill="none" stroke="#000000" points="660.5,-116.6631 660.5,-135.6631 883.5,-135.6631 883.5,-116.6631 660.5,-116.6631"/>
<text text-anchor="start" x="663.5" y="-122.7631" font-family="Helvetica,sans-Serif" font-size="11.00" fill="#000000">...</text>
<polygon fill="#ffffff" stroke="transparent" points="660.5,-97.6631 660.5,-116.6631 752.5,-116.6631 752.5,-97.6631 660.5,-97.6631"/>
<polygon fill="none" stroke="#000000" points="660.5,-97.6631 660.5,-116.6631 752.5,-116.6631 752.5,-97.6631 660.5,-97.6631"/>
<text text-anchor="start" x="663.5" y="-103.7631" font-family="Helvetica,sans-Serif" font-size="11.00" fill="#000000">&lt; 4</text>
<polygon fill="#ffffff" stroke="transparent" points="752.5,-97.6631 752.5,-116.6631 826.5,-116.6631 826.5,-97.6631 752.5,-97.6631"/>
<polygon fill="none" stroke="#000000" points="752.5,-97.6631 752.5,-116.6631 826.5,-116.6631 826.5,-97.6631 752.5,-97.6631"/>
<text text-anchor="start" x="791.1105" y="-103.7631" font-family="Helvetica,sans-Serif" font-size="11.00" fill="#000000">0 rows</text>
<polygon fill="#ffffff" stroke="transparent" points="826.5,-97.6631 826.5,-116.6631 883.5,-116.6631 883.5,-97.6631 826.5,-97.6631"/>
<polygon fill="none" stroke="#000000" points="826.5,-97.6631 826.5,-116.6631 883.5,-116.6631 883.5,-97.6631 826.5,-97.6631"/>
<text text-anchor="start" x="864.9053" y="-103.7631" font-family="Helvetica,sans-Serif" font-size="11.00" fill="#000000">1 &gt;</text>
</a>
</g>
</g>
<!-- QuestionResponses&#45;&gt;StudentCompetencyEvaluations -->
<g id="edge30" class="edge">
<title>QuestionResponses:w&#45;&gt;StudentCompetencyEvaluations:e</title>
<path fill="none" stroke="#000000" d="M918.4495,-100.6954C906.471,-108.6638 902.8749,-125.6631 883.5,-125.6631"/>
<polygon fill="#000000" stroke="#000000" points="924.8104,-98.87 933.4931,-100.1234 928.6552,-97.7665 932.5,-96.6631 932.5,-96.6631 932.5,-96.6631 928.6552,-97.7665 931.5069,-93.2028 924.8104,-98.87 924.8104,-98.87"/>
<ellipse fill="none" stroke="#000000" cx="921.7346" cy="-99.7527" rx="3.2" ry="3.2"/>
</g>
<!-- StudentCompetencyEvaluations&#45;&gt;AspNetUsers -->
<g id="edge32" class="edge">
<title>StudentCompetencyEvaluations:w&#45;&gt;AspNetUsers:e</title>
<path fill="none" stroke="#000000" d="M645.961,-124.7133C525.6434,-115.7492 246.5787,-72.3196 163,-137.6631 113.5024,-176.3613 80.6606,-369.9226 69.3609,-449.9963"/>
<polygon fill="#000000" stroke="#000000" points="652.517,-125.1415 660.2653,-129.2554 656.5085,-125.4023 660.5,-125.6631 660.5,-125.6631 660.5,-125.6631 656.5085,-125.4023 660.7347,-122.0707 652.517,-125.1415 652.517,-125.1415"/>
<ellipse fill="none" stroke="#000000" cx="649.3238" cy="-124.9329" rx="3.2" ry="3.2"/>
</g>
<!-- StudentCompetencyEvaluations&#45;&gt;AspNetUsers -->
<g id="edge35" class="edge">
<title>StudentCompetencyEvaluations:w&#45;&gt;AspNetUsers:e</title>
<path fill="none" stroke="#000000" d="M645.961,-126.2482C525.6434,-128.7492 246.5787,-85.3196 163,-150.6631 114.8975,-188.2705 82.5252,-372.1341 70.3677,-449.9233"/>
<polygon fill="#000000" stroke="#000000" points="652.5065,-125.9848 660.6448,-129.2602 656.5032,-125.8239 660.5,-125.6631 660.5,-125.6631 660.5,-125.6631 656.5032,-125.8239 660.3552,-122.066 652.5065,-125.9848 652.5065,-125.9848"/>
<ellipse fill="none" stroke="#000000" cx="649.3091" cy="-126.1135" rx="3.2" ry="3.2"/>
</g>
<!-- StudentCompetencyEvaluations&#45;&gt;ProfessorCompetencyAssignments -->
<g id="edge33" class="edge">
<title>StudentCompetencyEvaluations:w&#45;&gt;ProfessorCompetencyAssignments:e</title>
<path fill="none" stroke="#000000" d="M646.0707,-128.4402C600.5297,-149.6865 679.6211,-285.6631 611,-285.6631"/>
<polygon fill="#000000" stroke="#000000" points="652.6442,-127.1751 661.1804,-129.1982 656.5721,-126.4191 660.5,-125.6631 660.5,-125.6631 660.5,-125.6631 656.5721,-126.4191 659.8196,-122.128 652.6442,-127.1751 652.6442,-127.1751"/>
<ellipse fill="none" stroke="#000000" cx="649.5018" cy="-127.7799" rx="3.2" ry="3.2"/>
</g>
<!-- Students -->
<g id="node18" class="node">
<title>Students</title>
<g id="a_node18"><a xlink:href="../../tables/Students.html" xlink:title="Students" target="_top">
<polygon fill="#ffffff" stroke="transparent" points="445,-340.1631 445,-401.1631 535,-401.1631 535,-340.1631 445,-340.1631"/>
<polygon fill="#f5f5f5" stroke="transparent" points="445,-377.6631 445,-400.6631 535,-400.6631 535,-377.6631 445,-377.6631"/>
<polygon fill="none" stroke="#000000" points="445,-377.6631 445,-400.6631 535,-400.6631 535,-377.6631 445,-377.6631"/>
<text text-anchor="start" x="450" y="-386.2631" font-family="Helvetica,sans-Serif" font-weight="bold" font-size="11.00" fill="#000000">Students</text>
<text text-anchor="start" x="500.5219" y="-385.7631" font-family="Helvetica,sans-Serif" font-size="11.00" fill="#000000">[table]</text>
<polygon fill="none" stroke="#000000" points="445,-358.6631 445,-377.6631 535,-377.6631 535,-358.6631 445,-358.6631"/>
<text text-anchor="start" x="448" y="-364.7631" font-family="Helvetica,sans-Serif" font-size="11.00" fill="#000000">...</text>
<polygon fill="#ffffff" stroke="transparent" points="445,-339.6631 445,-358.6631 471,-358.6631 471,-339.6631 445,-339.6631"/>
<polygon fill="none" stroke="#000000" points="445,-339.6631 445,-358.6631 471,-358.6631 471,-339.6631 445,-339.6631"/>
<text text-anchor="start" x="448" y="-345.7631" font-family="Helvetica,sans-Serif" font-size="11.00" fill="#000000">&lt; 2</text>
<polygon fill="#ffffff" stroke="transparent" points="471,-339.6631 471,-358.6631 511,-358.6631 511,-339.6631 471,-339.6631"/>
<polygon fill="none" stroke="#000000" points="471,-339.6631 471,-358.6631 511,-358.6631 511,-339.6631 471,-339.6631"/>
<text text-anchor="start" x="475.6105" y="-345.7631" font-family="Helvetica,sans-Serif" font-size="11.00" fill="#000000">0 rows</text>
<polygon fill="#ffffff" stroke="transparent" points="511,-339.6631 511,-358.6631 535,-358.6631 535,-339.6631 511,-339.6631"/>
<polygon fill="none" stroke="#000000" points="511,-339.6631 511,-358.6631 535,-358.6631 535,-339.6631 511,-339.6631"/>
<text text-anchor="start" x="516.4053" y="-345.7631" font-family="Helvetica,sans-Serif" font-size="11.00" fill="#000000">3 &gt;</text>
</a>
</g>
</g>
<!-- StudentCompetencyEvaluations&#45;&gt;Students -->
<g id="edge34" class="edge">
<title>StudentCompetencyEvaluations:w&#45;&gt;Students:e</title>
<path fill="none" stroke="#000000" d="M645.8256,-127.0688C580.5316,-141.3899 673.2036,-261.712 619,-329.6631 593.4479,-361.6959 575.9758,-367.6631 535,-367.6631"/>
<polygon fill="#000000" stroke="#000000" points="652.5365,-126.426 660.8433,-129.2467 656.5182,-126.0445 660.5,-125.6631 660.5,-125.6631 660.5,-125.6631 656.5182,-126.0445 660.1567,-122.0795 652.5365,-126.426 652.5365,-126.426"/>
<ellipse fill="none" stroke="#000000" cx="649.351" cy="-126.7311" rx="3.2" ry="3.2"/>
</g>
<!-- Students&#45;&gt;AspNetUsers -->
<g id="edge41" class="edge">
<title>Students:w&#45;&gt;AspNetUsers:e</title>
<path fill="none" stroke="#000000" d="M434.5203,-367.5916C316.8935,-365.9855 274.2716,-338.3423 163,-388.6631 133.4865,-402.0101 107.6729,-428.2696 89.9576,-449.9553"/>
<polygon fill="#000000" stroke="#000000" points="444.2273,-363.6577 444.1727,-371.6575 442.5727,-371.6466 442.6274,-363.6468 444.2273,-363.6577"/>
<polyline fill="none" stroke="#000000" points="445,-367.6631 441.0001,-367.6358 "/>
<ellipse fill="none" stroke="#000000" cx="437.8002" cy="-367.6139" rx="3.2" ry="3.2"/>
</g>
<!-- Students&#45;&gt;TechnicalCareers -->
<g id="edge40" class="edge">
<title>Students:w&#45;&gt;TechnicalCareers:e</title>
<path fill="none" stroke="#000000" d="M430.3597,-368.1526C391.9551,-370.6607 352.2958,-382.4446 319.6059,-395.0377"/>
<polygon fill="#000000" stroke="#000000" points="437.0045,-367.9305 445.1203,-371.2611 441.0022,-367.7968 445,-367.6631 445,-367.6631 445,-367.6631 441.0022,-367.7968 444.8797,-364.0651 437.0045,-367.9305 437.0045,-367.9305"/>
<ellipse fill="none" stroke="#000000" cx="433.8063" cy="-368.0374" rx="3.2" ry="3.2"/>
</g>
<!-- StudentEvaluationReport -->
<g id="node19" class="node">
<title>StudentEvaluationReport</title>
<g id="a_node19"><a xlink:href="../../tables/StudentEvaluationReport.html" xlink:title="StudentEvaluationReport" target="_top">
<polygon fill="#ffffff" stroke="transparent" points="680,-682.1631 680,-743.1631 863,-743.1631 863,-682.1631 680,-682.1631"/>
<polygon fill="#f5f5f5" stroke="transparent" points="680.5,-719.6631 680.5,-742.6631 863.5,-742.6631 863.5,-719.6631 680.5,-719.6631"/>
<polygon fill="none" stroke="#000000" points="680.5,-719.6631 680.5,-742.6631 863.5,-742.6631 863.5,-719.6631 680.5,-719.6631"/>
<text text-anchor="start" x="685.5" y="-728.2631" font-family="Helvetica,sans-Serif" font-weight="bold" font-size="11.00" fill="#000000">StudentEvaluationReport</text>
<text text-anchor="start" x="829.0219" y="-727.7631" font-family="Helvetica,sans-Serif" font-size="11.00" fill="#000000">[table]</text>
<polygon fill="none" stroke="#000000" points="680.5,-700.6631 680.5,-719.6631 863.5,-719.6631 863.5,-700.6631 680.5,-700.6631"/>
<text text-anchor="start" x="683.5" y="-706.7631" font-family="Helvetica,sans-Serif" font-size="11.00" fill="#000000">...</text>
<polygon fill="#ffffff" stroke="transparent" points="680.5,-681.6631 680.5,-700.6631 757.5,-700.6631 757.5,-681.6631 680.5,-681.6631"/>
<polygon fill="none" stroke="#000000" points="680.5,-681.6631 680.5,-700.6631 757.5,-700.6631 757.5,-681.6631 680.5,-681.6631"/>
<text text-anchor="start" x="683.5" y="-687.7631" font-family="Helvetica,sans-Serif" font-size="11.00" fill="#000000">&lt; 4</text>
<polygon fill="#ffffff" stroke="transparent" points="757.5,-681.6631 757.5,-700.6631 823.5,-700.6631 823.5,-681.6631 757.5,-681.6631"/>
<polygon fill="none" stroke="#000000" points="757.5,-681.6631 757.5,-700.6631 823.5,-700.6631 823.5,-681.6631 757.5,-681.6631"/>
<text text-anchor="start" x="788.1105" y="-687.7631" font-family="Helvetica,sans-Serif" font-size="11.00" fill="#000000">0 rows</text>
<polygon fill="#ffffff" stroke="transparent" points="823.5,-681.6631 823.5,-700.6631 863.5,-700.6631 863.5,-681.6631 823.5,-681.6631"/>
<polygon fill="none" stroke="#000000" points="823.5,-681.6631 823.5,-700.6631 863.5,-700.6631 863.5,-681.6631 823.5,-681.6631"/>
<text text-anchor="start" x="854.3862" y="-687.7631" font-family="Helvetica,sans-Serif" font-size="11.00" fill="#000000"> &#160;</text>
</a>
</g>
</g>
<!-- StudentEvaluationReport&#45;&gt;AspNetUsers -->
<g id="edge36" class="edge">
<title>StudentEvaluationReport:w&#45;&gt;AspNetUsers:e</title>
<path fill="none" stroke="#000000" d="M666.0365,-706.7843C649.5434,-703.9561 640.7834,-704.486 619,-704.6631 504.3371,-705.5952 474.186,-723.0307 361,-704.6631 345.7396,-702.1867 342.8951,-697.8042 328,-693.6631 255.5918,-673.5322 223.0985,-701.7892 163,-656.6631 116.7361,-621.9249 89.5286,-558.6438 75.9482,-519.2244"/>
<polygon fill="#000000" stroke="#000000" points="672.6539,-708.1014 679.7972,-713.1938 676.577,-708.8822 680.5,-709.6631 680.5,-709.6631 680.5,-709.6631 676.577,-708.8822 681.2028,-706.1323 672.6539,-708.1014 672.6539,-708.1014"/>
<ellipse fill="none" stroke="#000000" cx="669.5155" cy="-707.4767" rx="3.2" ry="3.2"/>
</g>
<!-- StudentEvaluationReport&#45;&gt;AspNetUsers -->
<g id="edge39" class="edge">
<title>StudentEvaluationReport:w&#45;&gt;AspNetUsers:e</title>
<path fill="none" stroke="#000000" d="M666.0365,-713.206C649.5434,-716.9561 640.7834,-717.486 619,-717.6631 504.3371,-718.5952 474.186,-736.0307 361,-717.6631 345.7396,-715.1867 342.8951,-710.8042 328,-706.6631 255.5918,-686.5322 223.0985,-714.7892 163,-669.6631 113.2099,-632.2772 85.4918,-561.8314 73.078,-519.3894"/>
<polygon fill="#000000" stroke="#000000" points="672.7297,-711.5665 681.3565,-713.1597 676.6149,-710.6148 680.5,-709.6631 680.5,-709.6631 680.5,-709.6631 676.6149,-710.6148 679.6435,-706.1665 672.7297,-711.5665 672.7297,-711.5665"/>
<ellipse fill="none" stroke="#000000" cx="669.6216" cy="-712.3279" rx="3.2" ry="3.2"/>
</g>
<!-- StudentEvaluationReport&#45;&gt;EvaluationPeriods -->
<g id="edge37" class="edge">
<title>StudentEvaluationReport:w&#45;&gt;EvaluationPeriods:e</title>
<path fill="none" stroke="#000000" d="M665.7919,-709.9074C585.7479,-712.2401 412.8994,-729.5919 361,-687.6631 306.6734,-643.7735 387.3404,-536.6631 317.5,-536.6631"/>
<polygon fill="#000000" stroke="#000000" points="672.5011,-709.796 680.5598,-713.2626 676.5006,-709.7295 680.5,-709.6631 680.5,-709.6631 680.5,-709.6631 676.5006,-709.7295 680.4402,-706.0636 672.5011,-709.796 672.5011,-709.796"/>
<ellipse fill="none" stroke="#000000" cx="669.3015" cy="-709.8492" rx="3.2" ry="3.2"/>
</g>
<!-- StudentEvaluationReport&#45;&gt;Students -->
<g id="edge38" class="edge">
<title>StudentEvaluationReport:w&#45;&gt;Students:e</title>
<path fill="none" stroke="#000000" d="M665.9938,-708.814C557.3709,-695.0207 696.5222,-516.4394 619,-412.6631 593.6531,-378.7321 577.353,-367.6631 535,-367.6631"/>
<polygon fill="#000000" stroke="#000000" points="672.5137,-709.1956 680.2896,-713.2569 676.5068,-709.4293 680.5,-709.6631 680.5,-709.6631 680.5,-709.6631 676.5068,-709.4293 680.7104,-706.0692 672.5137,-709.1956 672.5137,-709.1956"/>
<ellipse fill="none" stroke="#000000" cx="669.3191" cy="-709.0086" rx="3.2" ry="3.2"/>
</g>
<!-- StudentSubjects -->
<g id="node20" class="node">
<title>StudentSubjects</title>
<g id="a_node20"><a xlink:href="../../tables/StudentSubjects.html" xlink:title="StudentSubjects" target="_top">
<polygon fill="#ffffff" stroke="transparent" points="705,-180.1631 705,-241.1631 838,-241.1631 838,-180.1631 705,-180.1631"/>
<polygon fill="#f5f5f5" stroke="transparent" points="705.5,-217.6631 705.5,-240.6631 838.5,-240.6631 838.5,-217.6631 705.5,-217.6631"/>
<polygon fill="none" stroke="#000000" points="705.5,-217.6631 705.5,-240.6631 838.5,-240.6631 838.5,-217.6631 705.5,-217.6631"/>
<text text-anchor="start" x="710.5" y="-226.2631" font-family="Helvetica,sans-Serif" font-weight="bold" font-size="11.00" fill="#000000">StudentSubjects</text>
<text text-anchor="start" x="804.0219" y="-225.7631" font-family="Helvetica,sans-Serif" font-size="11.00" fill="#000000">[table]</text>
<polygon fill="none" stroke="#000000" points="705.5,-198.6631 705.5,-217.6631 838.5,-217.6631 838.5,-198.6631 705.5,-198.6631"/>
<text text-anchor="start" x="708.5" y="-204.7631" font-family="Helvetica,sans-Serif" font-size="11.00" fill="#000000">...</text>
<polygon fill="#ffffff" stroke="transparent" points="705.5,-179.6631 705.5,-198.6631 757.5,-198.6631 757.5,-179.6631 705.5,-179.6631"/>
<polygon fill="none" stroke="#000000" points="705.5,-179.6631 705.5,-198.6631 757.5,-198.6631 757.5,-179.6631 705.5,-179.6631"/>
<text text-anchor="start" x="708.5" y="-185.7631" font-family="Helvetica,sans-Serif" font-size="11.00" fill="#000000">&lt; 4</text>
<polygon fill="#ffffff" stroke="transparent" points="757.5,-179.6631 757.5,-198.6631 810.5,-198.6631 810.5,-179.6631 757.5,-179.6631"/>
<polygon fill="none" stroke="#000000" points="757.5,-179.6631 757.5,-198.6631 810.5,-198.6631 810.5,-179.6631 757.5,-179.6631"/>
<text text-anchor="start" x="775.1105" y="-185.7631" font-family="Helvetica,sans-Serif" font-size="11.00" fill="#000000">0 rows</text>
<polygon fill="#ffffff" stroke="transparent" points="810.5,-179.6631 810.5,-198.6631 838.5,-198.6631 838.5,-179.6631 810.5,-179.6631"/>
<polygon fill="none" stroke="#000000" points="810.5,-179.6631 810.5,-198.6631 838.5,-198.6631 838.5,-179.6631 810.5,-179.6631"/>
<text text-anchor="start" x="829.3862" y="-185.7631" font-family="Helvetica,sans-Serif" font-size="11.00" fill="#000000"> &#160;</text>
</a>
</g>
</g>
<!-- StudentSubjects&#45;&gt;AspNetUsers -->
<g id="edge42" class="edge">
<title>StudentSubjects:w&#45;&gt;AspNetUsers:e</title>
<path fill="none" stroke="#000000" d="M691.2214,-204.2707C661.6172,-193.9143 655.4435,-168.0429 619,-159.6631 520.1182,-136.9263 241.6795,-118.5998 163,-182.6631 121.0229,-216.8422 84.8206,-378.2805 70.9907,-450.1353"/>
<polygon fill="#000000" stroke="#000000" points="697.7167,-205.8139 704.6678,-211.1656 701.6083,-206.7385 705.5,-207.6631 705.5,-207.6631 705.5,-207.6631 701.6083,-206.7385 706.3322,-204.1606 697.7167,-205.8139 697.7167,-205.8139"/>
<ellipse fill="none" stroke="#000000" cx="694.6033" cy="-205.0742" rx="3.2" ry="3.2"/>
</g>
<!-- StudentSubjects&#45;&gt;AspNetUsers -->
<g id="edge45" class="edge">
<title>StudentSubjects:w&#45;&gt;AspNetUsers:e</title>
<path fill="none" stroke="#000000" d="M690.8263,-208.5382C661.5615,-206.6836 655.2808,-181.0055 619,-172.6631 520.1182,-149.9263 241.6795,-131.5998 163,-195.6631 122.4396,-228.6886 87.2708,-380.5284 72.4668,-449.97"/>
<polygon fill="#000000" stroke="#000000" points="697.5142,-208.1394 705.7143,-211.2567 701.5071,-207.9013 705.5,-207.6631 705.5,-207.6631 705.5,-207.6631 701.5071,-207.9013 705.2857,-204.0695 697.5142,-208.1394 697.5142,-208.1394"/>
<ellipse fill="none" stroke="#000000" cx="694.3199" cy="-208.33" rx="3.2" ry="3.2"/>
</g>
<!-- StudentSubjects&#45;&gt;Students -->
<g id="edge43" class="edge">
<title>StudentSubjects:w&#45;&gt;Students:e</title>
<path fill="none" stroke="#000000" d="M691.0159,-209.2077C643.6042,-220.4901 666.08,-290.8507 619,-329.6631 587.383,-355.7279 575.9758,-367.6631 535,-367.6631"/>
<polygon fill="#000000" stroke="#000000" points="697.5451,-208.5115 705.8818,-211.2428 701.5226,-208.0873 705.5,-207.6631 705.5,-207.6631 705.5,-207.6631 701.5226,-208.0873 705.1182,-204.0834 697.5451,-208.5115 697.5451,-208.5115"/>
<ellipse fill="none" stroke="#000000" cx="694.3632" cy="-208.8508" rx="3.2" ry="3.2"/>
</g>
<!-- Subjects -->
<g id="node21" class="node">
<title>Subjects</title>
<g id="a_node21"><a xlink:href="../../tables/Subjects.html" xlink:title="Subjects" target="_top">
<polygon fill="#ffffff" stroke="transparent" points="445.5,-176.1631 445.5,-237.1631 534.5,-237.1631 534.5,-176.1631 445.5,-176.1631"/>
<polygon fill="#f5f5f5" stroke="transparent" points="446,-213.6631 446,-236.6631 535,-236.6631 535,-213.6631 446,-213.6631"/>
<polygon fill="none" stroke="#000000" points="446,-213.6631 446,-236.6631 535,-236.6631 535,-213.6631 446,-213.6631"/>
<text text-anchor="start" x="451" y="-222.2631" font-family="Helvetica,sans-Serif" font-weight="bold" font-size="11.00" fill="#000000">Subjects</text>
<text text-anchor="start" x="500.5219" y="-221.7631" font-family="Helvetica,sans-Serif" font-size="11.00" fill="#000000">[table]</text>
<polygon fill="none" stroke="#000000" points="446,-194.6631 446,-213.6631 535,-213.6631 535,-194.6631 446,-194.6631"/>
<text text-anchor="start" x="449" y="-200.7631" font-family="Helvetica,sans-Serif" font-size="11.00" fill="#000000">...</text>
<polygon fill="#ffffff" stroke="transparent" points="446,-175.6631 446,-194.6631 471,-194.6631 471,-175.6631 446,-175.6631"/>
<polygon fill="none" stroke="#000000" points="446,-175.6631 446,-194.6631 471,-194.6631 471,-175.6631 446,-175.6631"/>
<text text-anchor="start" x="449" y="-181.7631" font-family="Helvetica,sans-Serif" font-size="11.00" fill="#000000">&lt; 4</text>
<polygon fill="#ffffff" stroke="transparent" points="471,-175.6631 471,-194.6631 511,-194.6631 511,-175.6631 471,-175.6631"/>
<polygon fill="none" stroke="#000000" points="471,-175.6631 471,-194.6631 511,-194.6631 511,-175.6631 471,-175.6631"/>
<text text-anchor="start" x="475.6105" y="-181.7631" font-family="Helvetica,sans-Serif" font-size="11.00" fill="#000000">0 rows</text>
<polygon fill="#ffffff" stroke="transparent" points="511,-175.6631 511,-194.6631 535,-194.6631 535,-175.6631 511,-175.6631"/>
<polygon fill="none" stroke="#000000" points="511,-175.6631 511,-194.6631 535,-194.6631 535,-175.6631 511,-175.6631"/>
<text text-anchor="start" x="516.4053" y="-181.7631" font-family="Helvetica,sans-Serif" font-size="11.00" fill="#000000">1 &gt;</text>
</a>
</g>
</g>
<!-- StudentSubjects&#45;&gt;Subjects -->
<g id="edge44" class="edge">
<title>StudentSubjects:w&#45;&gt;Subjects:e</title>
<path fill="none" stroke="#000000" d="M690.7166,-207.6096C626.8511,-207.1349 605.6171,-203.6631 535,-203.6631"/>
<polygon fill="#000000" stroke="#000000" points="697.5001,-207.6341 705.4869,-211.2631 701.5,-207.6486 705.5,-207.6631 705.5,-207.6631 705.5,-207.6631 701.5,-207.6486 705.5131,-204.0631 697.5001,-207.6341 697.5001,-207.6341"/>
<ellipse fill="none" stroke="#000000" cx="694.3001" cy="-207.6225" rx="3.2" ry="3.2"/>
</g>
<!-- Subjects&#45;&gt;AspNetUsers -->
<g id="edge46" class="edge">
<title>Subjects:w&#45;&gt;AspNetUsers:e</title>
<path fill="none" stroke="#000000" d="M431.4592,-202.8063C314.7721,-194.5966 259.3702,-159.115 163,-233.6631 94.6966,-286.4998 73.8471,-394.3601 67.6009,-449.9615"/>
<polygon fill="#000000" stroke="#000000" points="438.0139,-203.1925 445.7882,-207.2569 442.0069,-203.4278 446,-203.6631 446,-203.6631 446,-203.6631 442.0069,-203.4278 446.2118,-200.0693 438.0139,-203.1925 438.0139,-203.1925"/>
<ellipse fill="none" stroke="#000000" cx="434.8194" cy="-203.0042" rx="3.2" ry="3.2"/>
</g>
<!-- Subjects&#45;&gt;AspNetUsers -->
<g id="edge49" class="edge">
<title>Subjects:w&#45;&gt;AspNetUsers:e</title>
<path fill="none" stroke="#000000" d="M431.4592,-204.271C314.7721,-207.5966 259.3702,-172.115 163,-246.6631 98.139,-296.8369 76.0692,-396.628 68.6607,-449.7264"/>
<polygon fill="#000000" stroke="#000000" points="438.007,-203.9973 446.1504,-207.2599 442.0035,-203.8302 446,-203.6631 446,-203.6631 446,-203.6631 442.0035,-203.8302 445.8496,-200.0662 438.007,-203.9973 438.007,-203.9973"/>
<ellipse fill="none" stroke="#000000" cx="434.8098" cy="-204.131" rx="3.2" ry="3.2"/>
</g>
<!-- Subjects&#45;&gt;TechnicalCareers -->
<g id="edge48" class="edge">
<title>Subjects:w&#45;&gt;TechnicalCareers:e</title>
<path fill="none" stroke="#000000" d="M431.3316,-204.2846C399.8948,-207.207 386.543,-220.5888 361,-247.6631 336.2879,-273.8566 346.3879,-290.7006 328,-321.6631 312.5787,-347.6303 291.9537,-374.6303 275.184,-395.1385"/>
<polygon fill="#000000" stroke="#000000" points="438.0072,-204.0018 446.1524,-207.2599 442.0036,-203.8324 446,-203.6631 446,-203.6631 446,-203.6631 442.0036,-203.8324 445.8476,-200.0663 438.0072,-204.0018 438.0072,-204.0018"/>
<ellipse fill="none" stroke="#000000" cx="434.81" cy="-204.1373" rx="3.2" ry="3.2"/>
</g>
<!-- Subjects&#45;&gt;Professors -->
<g id="edge47" class="edge">
<title>Subjects:w&#45;&gt;Professors:e</title>
<path fill="none" stroke="#000000" d="M431.7768,-206.3846C392.0707,-219.7351 329.2977,-277.6631 296.5,-277.6631"/>
<polygon fill="#000000" stroke="#000000" points="438.1425,-205.1666 446.6766,-207.1989 442.0713,-204.4148 446,-203.6631 446,-203.6631 446,-203.6631 442.0713,-204.4148 445.3234,-200.1272 438.1425,-205.1666 438.1425,-205.1666"/>
<ellipse fill="none" stroke="#000000" cx="434.9996" cy="-205.768" rx="3.2" ry="3.2"/>
</g>
</g>
</svg>
