<?xml version="1.0" encoding="UTF-8" standalone="no"?>
<!DOCTYPE svg PUBLIC "-//W3C//DTD SVG 1.1//EN"
 "http://www.w3.org/Graphics/SVG/1.1/DTD/svg11.dtd">
<!-- Generated by graphviz version 2.40.1 (20161225.0304)
 -->
<!-- Title: twoDegreesRelationshipsDiagram Pages: 1 -->
<svg width="1382pt" height="1168pt"
 viewBox="0.00 0.00 1382.00 1168.31" xmlns="http://www.w3.org/2000/svg" xmlns:xlink="http://www.w3.org/1999/xlink">
<g id="graph0" class="graph" transform="scale(1 1) rotate(0) translate(4 1164.3127)">
<title>twoDegreesRelationshipsDiagram</title>
<polygon fill="#ffffff" stroke="transparent" points="-4,4 -4,-1164.3127 1378,-1164.3127 1378,4 -4,4"/>
<text text-anchor="middle" x="72.4936" y="-7.3" font-family="Helvetica,sans-Serif" font-size="11.00" fill="#000000">Generated by SchemaSpy</text>
<!-- AspNetUserClaims -->
<g id="node1" class="node">
<title>AspNetUserClaims</title>
<g id="a_node1"><a xlink:href="../../tables/AspNetUserClaims.html" xlink:title="AspNetUserClaims" target="_top">
<polygon fill="#ffffff" stroke="transparent" points="172,-1095.3127 172,-1156.3127 319,-1156.3127 319,-1095.3127 172,-1095.3127"/>
<polygon fill="#f5f5f5" stroke="transparent" points="172.5,-1132.8127 172.5,-1155.8127 319.5,-1155.8127 319.5,-1132.8127 172.5,-1132.8127"/>
<polygon fill="none" stroke="#000000" points="172.5,-1132.8127 172.5,-1155.8127 319.5,-1155.8127 319.5,-1132.8127 172.5,-1132.8127"/>
<text text-anchor="start" x="177.5" y="-1141.4127" font-family="Helvetica,sans-Serif" font-weight="bold" font-size="11.00" fill="#000000">AspNetUserClaims</text>
<text text-anchor="start" x="285.0219" y="-1140.9127" font-family="Helvetica,sans-Serif" font-size="11.00" fill="#000000">[table]</text>
<polygon fill="none" stroke="#000000" points="172.5,-1113.8127 172.5,-1132.8127 319.5,-1132.8127 319.5,-1113.8127 172.5,-1113.8127"/>
<text text-anchor="start" x="175.5" y="-1119.9127" font-family="Helvetica,sans-Serif" font-size="11.00" fill="#000000">...</text>
<polygon fill="#ffffff" stroke="transparent" points="172.5,-1094.8127 172.5,-1113.8127 231.5,-1113.8127 231.5,-1094.8127 172.5,-1094.8127"/>
<polygon fill="none" stroke="#000000" points="172.5,-1094.8127 172.5,-1113.8127 231.5,-1113.8127 231.5,-1094.8127 172.5,-1094.8127"/>
<text text-anchor="start" x="175.5" y="-1100.9127" font-family="Helvetica,sans-Serif" font-size="11.00" fill="#000000">&lt; 1</text>
<polygon fill="#ffffff" stroke="transparent" points="231.5,-1094.8127 231.5,-1113.8127 288.5,-1113.8127 288.5,-1094.8127 231.5,-1094.8127"/>
<polygon fill="none" stroke="#000000" points="231.5,-1094.8127 231.5,-1113.8127 288.5,-1113.8127 288.5,-1094.8127 231.5,-1094.8127"/>
<text text-anchor="start" x="253.1105" y="-1100.9127" font-family="Helvetica,sans-Serif" font-size="11.00" fill="#000000">0 rows</text>
<polygon fill="#ffffff" stroke="transparent" points="288.5,-1094.8127 288.5,-1113.8127 319.5,-1113.8127 319.5,-1094.8127 288.5,-1094.8127"/>
<polygon fill="none" stroke="#000000" points="288.5,-1094.8127 288.5,-1113.8127 319.5,-1113.8127 319.5,-1094.8127 288.5,-1094.8127"/>
<text text-anchor="start" x="310.3862" y="-1100.9127" font-family="Helvetica,sans-Serif" font-size="11.00" fill="#000000"> &#160;</text>
</a>
</g>
</g>
<!-- AspNetUsers -->
<g id="node2" class="node">
<title>AspNetUsers</title>
<g id="a_node2"><a xlink:href="../../tables/AspNetUsers.html" xlink:title="AspNetUsers" target="_top">
<polygon fill="#ffffff" stroke="transparent" points="8,-539.3127 8,-600.3127 122,-600.3127 122,-539.3127 8,-539.3127"/>
<polygon fill="#f5f5f5" stroke="transparent" points="8,-576.8127 8,-599.8127 122,-599.8127 122,-576.8127 8,-576.8127"/>
<polygon fill="none" stroke="#000000" points="8,-576.8127 8,-599.8127 122,-599.8127 122,-576.8127 8,-576.8127"/>
<text text-anchor="start" x="13" y="-585.4127" font-family="Helvetica,sans-Serif" font-weight="bold" font-size="11.00" fill="#000000">AspNetUsers</text>
<text text-anchor="start" x="87.5219" y="-584.9127" font-family="Helvetica,sans-Serif" font-size="11.00" fill="#000000">[table]</text>
<polygon fill="none" stroke="#000000" points="8,-557.8127 8,-576.8127 122,-576.8127 122,-557.8127 8,-557.8127"/>
<text text-anchor="start" x="11" y="-563.9127" font-family="Helvetica,sans-Serif" font-size="11.00" fill="#000000">...</text>
<polygon fill="#ffffff" stroke="transparent" points="8,-538.8127 8,-557.8127 41,-557.8127 41,-538.8127 8,-538.8127"/>
<polygon fill="none" stroke="#000000" points="8,-538.8127 8,-557.8127 41,-557.8127 41,-538.8127 8,-538.8127"/>
<text text-anchor="start" x="11" y="-544.9127" font-family="Helvetica,sans-Serif" font-size="11.00" fill="#000000"> &#160;</text>
<polygon fill="#ffffff" stroke="transparent" points="41,-538.8127 41,-557.8127 84,-557.8127 84,-538.8127 41,-538.8127"/>
<polygon fill="none" stroke="#000000" points="41,-538.8127 41,-557.8127 84,-557.8127 84,-538.8127 41,-538.8127"/>
<text text-anchor="start" x="54.1105" y="-544.9127" font-family="Helvetica,sans-Serif" font-size="11.00" fill="#000000">1 row</text>
<polygon fill="#ffffff" stroke="transparent" points="84,-538.8127 84,-557.8127 122,-557.8127 122,-538.8127 84,-538.8127"/>
<polygon fill="none" stroke="#000000" points="84,-538.8127 84,-557.8127 122,-557.8127 122,-538.8127 84,-538.8127"/>
<text text-anchor="start" x="97.2904" y="-544.9127" font-family="Helvetica,sans-Serif" font-size="11.00" fill="#000000">29 &gt;</text>
</a>
</g>
</g>
<!-- AspNetUserClaims&#45;&gt;AspNetUsers -->
<g id="edge1" class="edge">
<title>AspNetUserClaims:w&#45;&gt;AspNetUsers:e</title>
<path fill="none" stroke="#000000" d="M160.0065,-1115.5147C113.167,-1060.9475 78.2068,-715.7759 68.0303,-604.4053"/>
<polygon fill="#000000" stroke="#000000" points="165.5922,-1118.7776 170.6842,-1125.9212 169.0461,-1120.7951 172.5,-1122.8127 172.5,-1122.8127 172.5,-1122.8127 169.0461,-1120.7951 174.3158,-1119.7042 165.5922,-1118.7776 165.5922,-1118.7776"/>
<ellipse fill="none" stroke="#000000" cx="162.8291" cy="-1117.1635" rx="3.2" ry="3.2"/>
</g>
<!-- AspNetUserLogins -->
<g id="node3" class="node">
<title>AspNetUserLogins</title>
<g id="a_node3"><a xlink:href="../../tables/AspNetUserLogins.html" xlink:title="AspNetUserLogins" target="_top">
<polygon fill="#ffffff" stroke="transparent" points="172,-1013.3127 172,-1074.3127 319,-1074.3127 319,-1013.3127 172,-1013.3127"/>
<polygon fill="#f5f5f5" stroke="transparent" points="172.5,-1050.8127 172.5,-1073.8127 319.5,-1073.8127 319.5,-1050.8127 172.5,-1050.8127"/>
<polygon fill="none" stroke="#000000" points="172.5,-1050.8127 172.5,-1073.8127 319.5,-1073.8127 319.5,-1050.8127 172.5,-1050.8127"/>
<text text-anchor="start" x="177.5" y="-1059.4127" font-family="Helvetica,sans-Serif" font-weight="bold" font-size="11.00" fill="#000000">AspNetUserLogins</text>
<text text-anchor="start" x="285.0219" y="-1058.9127" font-family="Helvetica,sans-Serif" font-size="11.00" fill="#000000">[table]</text>
<polygon fill="none" stroke="#000000" points="172.5,-1031.8127 172.5,-1050.8127 319.5,-1050.8127 319.5,-1031.8127 172.5,-1031.8127"/>
<text text-anchor="start" x="175.5" y="-1037.9127" font-family="Helvetica,sans-Serif" font-size="11.00" fill="#000000">...</text>
<polygon fill="#ffffff" stroke="transparent" points="172.5,-1012.8127 172.5,-1031.8127 231.5,-1031.8127 231.5,-1012.8127 172.5,-1012.8127"/>
<polygon fill="none" stroke="#000000" points="172.5,-1012.8127 172.5,-1031.8127 231.5,-1031.8127 231.5,-1012.8127 172.5,-1012.8127"/>
<text text-anchor="start" x="175.5" y="-1018.9127" font-family="Helvetica,sans-Serif" font-size="11.00" fill="#000000">&lt; 1</text>
<polygon fill="#ffffff" stroke="transparent" points="231.5,-1012.8127 231.5,-1031.8127 288.5,-1031.8127 288.5,-1012.8127 231.5,-1012.8127"/>
<polygon fill="none" stroke="#000000" points="231.5,-1012.8127 231.5,-1031.8127 288.5,-1031.8127 288.5,-1012.8127 231.5,-1012.8127"/>
<text text-anchor="start" x="253.1105" y="-1018.9127" font-family="Helvetica,sans-Serif" font-size="11.00" fill="#000000">0 rows</text>
<polygon fill="#ffffff" stroke="transparent" points="288.5,-1012.8127 288.5,-1031.8127 319.5,-1031.8127 319.5,-1012.8127 288.5,-1012.8127"/>
<polygon fill="none" stroke="#000000" points="288.5,-1012.8127 288.5,-1031.8127 319.5,-1031.8127 319.5,-1012.8127 288.5,-1012.8127"/>
<text text-anchor="start" x="310.3862" y="-1018.9127" font-family="Helvetica,sans-Serif" font-size="11.00" fill="#000000"> &#160;</text>
</a>
</g>
</g>
<!-- AspNetUserLogins&#45;&gt;AspNetUsers -->
<g id="edge2" class="edge">
<title>AspNetUserLogins:w&#45;&gt;AspNetUsers:e</title>
<path fill="none" stroke="#000000" d="M157.9925,-1037.7591C81.3099,-1004.4044 67.8605,-707.0572 65.5017,-604.4465"/>
<polygon fill="#000000" stroke="#000000" points="164.6715,-1039.1649 171.7585,-1044.3355 168.5858,-1039.9888 172.5,-1040.8127 172.5,-1040.8127 172.5,-1040.8127 168.5858,-1039.9888 173.2415,-1037.2899 164.6715,-1039.1649 164.6715,-1039.1649"/>
<ellipse fill="none" stroke="#000000" cx="161.5402" cy="-1038.5058" rx="3.2" ry="3.2"/>
</g>
<!-- AspNetUserRoles -->
<g id="node4" class="node">
<title>AspNetUserRoles</title>
<g id="a_node4"><a xlink:href="../../tables/AspNetUserRoles.html" xlink:title="AspNetUserRoles" target="_top">
<polygon fill="#ffffff" stroke="transparent" points="175.5,-931.3127 175.5,-992.3127 315.5,-992.3127 315.5,-931.3127 175.5,-931.3127"/>
<polygon fill="#f5f5f5" stroke="transparent" points="175.5,-968.8127 175.5,-991.8127 315.5,-991.8127 315.5,-968.8127 175.5,-968.8127"/>
<polygon fill="none" stroke="#000000" points="175.5,-968.8127 175.5,-991.8127 315.5,-991.8127 315.5,-968.8127 175.5,-968.8127"/>
<text text-anchor="start" x="180.5" y="-977.4127" font-family="Helvetica,sans-Serif" font-weight="bold" font-size="11.00" fill="#000000">AspNetUserRoles</text>
<text text-anchor="start" x="281.0219" y="-976.9127" font-family="Helvetica,sans-Serif" font-size="11.00" fill="#000000">[table]</text>
<polygon fill="none" stroke="#000000" points="175.5,-949.8127 175.5,-968.8127 315.5,-968.8127 315.5,-949.8127 175.5,-949.8127"/>
<text text-anchor="start" x="178.5" y="-955.9127" font-family="Helvetica,sans-Serif" font-size="11.00" fill="#000000">...</text>
<polygon fill="#ffffff" stroke="transparent" points="175.5,-930.8127 175.5,-949.8127 233.5,-949.8127 233.5,-930.8127 175.5,-930.8127"/>
<polygon fill="none" stroke="#000000" points="175.5,-930.8127 175.5,-949.8127 233.5,-949.8127 233.5,-930.8127 175.5,-930.8127"/>
<text text-anchor="start" x="178.5" y="-936.9127" font-family="Helvetica,sans-Serif" font-size="11.00" fill="#000000">&lt; 2</text>
<polygon fill="#ffffff" stroke="transparent" points="233.5,-930.8127 233.5,-949.8127 284.5,-949.8127 284.5,-930.8127 233.5,-930.8127"/>
<polygon fill="none" stroke="#000000" points="233.5,-930.8127 233.5,-949.8127 284.5,-949.8127 284.5,-930.8127 233.5,-930.8127"/>
<text text-anchor="start" x="254.6105" y="-936.9127" font-family="Helvetica,sans-Serif" font-size="11.00" fill="#000000">1 row</text>
<polygon fill="#ffffff" stroke="transparent" points="284.5,-930.8127 284.5,-949.8127 315.5,-949.8127 315.5,-930.8127 284.5,-930.8127"/>
<polygon fill="none" stroke="#000000" points="284.5,-930.8127 284.5,-949.8127 315.5,-949.8127 315.5,-930.8127 284.5,-930.8127"/>
<text text-anchor="start" x="306.3862" y="-936.9127" font-family="Helvetica,sans-Serif" font-size="11.00" fill="#000000"> &#160;</text>
</a>
</g>
</g>
<!-- AspNetUserRoles&#45;&gt;AspNetUsers -->
<g id="edge3" class="edge">
<title>AspNetUserRoles:w&#45;&gt;AspNetUsers:e</title>
<path fill="none" stroke="#000000" d="M161.0927,-955.3132C98.5042,-924.1315 74.3963,-693.0288 67.3874,-604.3339"/>
<polygon fill="#000000" stroke="#000000" points="167.726,-956.9244 174.6502,-962.311 171.613,-957.8685 175.5,-958.8127 175.5,-958.8127 175.5,-958.8127 171.613,-957.8685 176.3498,-955.3144 167.726,-956.9244 167.726,-956.9244"/>
<ellipse fill="none" stroke="#000000" cx="164.6165" cy="-956.169" rx="3.2" ry="3.2"/>
</g>
<!-- AspNetUserTokens -->
<g id="node5" class="node">
<title>AspNetUserTokens</title>
<g id="a_node5"><a xlink:href="../../tables/AspNetUserTokens.html" xlink:title="AspNetUserTokens" target="_top">
<polygon fill="#ffffff" stroke="transparent" points="171,-849.3127 171,-910.3127 320,-910.3127 320,-849.3127 171,-849.3127"/>
<polygon fill="#f5f5f5" stroke="transparent" points="171.5,-886.8127 171.5,-909.8127 320.5,-909.8127 320.5,-886.8127 171.5,-886.8127"/>
<polygon fill="none" stroke="#000000" points="171.5,-886.8127 171.5,-909.8127 320.5,-909.8127 320.5,-886.8127 171.5,-886.8127"/>
<text text-anchor="start" x="176.5" y="-895.4127" font-family="Helvetica,sans-Serif" font-weight="bold" font-size="11.00" fill="#000000">AspNetUserTokens</text>
<text text-anchor="start" x="286.0219" y="-894.9127" font-family="Helvetica,sans-Serif" font-size="11.00" fill="#000000">[table]</text>
<polygon fill="none" stroke="#000000" points="171.5,-867.8127 171.5,-886.8127 320.5,-886.8127 320.5,-867.8127 171.5,-867.8127"/>
<text text-anchor="start" x="174.5" y="-873.9127" font-family="Helvetica,sans-Serif" font-size="11.00" fill="#000000">...</text>
<polygon fill="#ffffff" stroke="transparent" points="171.5,-848.8127 171.5,-867.8127 231.5,-867.8127 231.5,-848.8127 171.5,-848.8127"/>
<polygon fill="none" stroke="#000000" points="171.5,-848.8127 171.5,-867.8127 231.5,-867.8127 231.5,-848.8127 171.5,-848.8127"/>
<text text-anchor="start" x="174.5" y="-854.9127" font-family="Helvetica,sans-Serif" font-size="11.00" fill="#000000">&lt; 1</text>
<polygon fill="#ffffff" stroke="transparent" points="231.5,-848.8127 231.5,-867.8127 288.5,-867.8127 288.5,-848.8127 231.5,-848.8127"/>
<polygon fill="none" stroke="#000000" points="231.5,-848.8127 231.5,-867.8127 288.5,-867.8127 288.5,-848.8127 231.5,-848.8127"/>
<text text-anchor="start" x="253.1105" y="-854.9127" font-family="Helvetica,sans-Serif" font-size="11.00" fill="#000000">0 rows</text>
<polygon fill="#ffffff" stroke="transparent" points="288.5,-848.8127 288.5,-867.8127 320.5,-867.8127 320.5,-848.8127 288.5,-848.8127"/>
<polygon fill="none" stroke="#000000" points="288.5,-848.8127 288.5,-867.8127 320.5,-867.8127 320.5,-848.8127 288.5,-848.8127"/>
<text text-anchor="start" x="311.3862" y="-854.9127" font-family="Helvetica,sans-Serif" font-size="11.00" fill="#000000"> &#160;</text>
</a>
</g>
</g>
<!-- AspNetUserTokens&#45;&gt;AspNetUsers -->
<g id="edge4" class="edge">
<title>AspNetUserTokens:w&#45;&gt;AspNetUsers:e</title>
<path fill="none" stroke="#000000" d="M157.6095,-872.9281C108.9261,-845.3359 80.0254,-677.9781 69.5259,-604.4328"/>
<polygon fill="#000000" stroke="#000000" points="163.7956,-874.658 170.5304,-880.2797 167.6478,-875.7354 171.5,-876.8127 171.5,-876.8127 171.5,-876.8127 167.6478,-875.7354 172.4696,-873.3457 163.7956,-874.658 163.7956,-874.658"/>
<ellipse fill="none" stroke="#000000" cx="160.7139" cy="-873.7962" rx="3.2" ry="3.2"/>
</g>
<!-- Competencies -->
<g id="node6" class="node">
<title>Competencies</title>
<g id="a_node6"><a xlink:href="../../tables/Competencies.html" xlink:title="Competencies" target="_top">
<polygon fill="#ffffff" stroke="transparent" points="185,-688.3127 185,-749.3127 306,-749.3127 306,-688.3127 185,-688.3127"/>
<polygon fill="#f5f5f5" stroke="transparent" points="185.5,-725.8127 185.5,-748.8127 306.5,-748.8127 306.5,-725.8127 185.5,-725.8127"/>
<polygon fill="none" stroke="#000000" points="185.5,-725.8127 185.5,-748.8127 306.5,-748.8127 306.5,-725.8127 185.5,-725.8127"/>
<text text-anchor="start" x="190.5" y="-734.4127" font-family="Helvetica,sans-Serif" font-weight="bold" font-size="11.00" fill="#000000">Competencies</text>
<text text-anchor="start" x="272.0219" y="-733.9127" font-family="Helvetica,sans-Serif" font-size="11.00" fill="#000000">[table]</text>
<polygon fill="none" stroke="#000000" points="185.5,-706.8127 185.5,-725.8127 306.5,-725.8127 306.5,-706.8127 185.5,-706.8127"/>
<text text-anchor="start" x="188.5" y="-712.9127" font-family="Helvetica,sans-Serif" font-size="11.00" fill="#000000">...</text>
<polygon fill="#ffffff" stroke="transparent" points="185.5,-687.8127 185.5,-706.8127 226.5,-706.8127 226.5,-687.8127 185.5,-687.8127"/>
<polygon fill="none" stroke="#000000" points="185.5,-687.8127 185.5,-706.8127 226.5,-706.8127 226.5,-687.8127 185.5,-687.8127"/>
<text text-anchor="start" x="188.5" y="-693.9127" font-family="Helvetica,sans-Serif" font-size="11.00" fill="#000000">&lt; 2</text>
<polygon fill="#ffffff" stroke="transparent" points="226.5,-687.8127 226.5,-706.8127 274.5,-706.8127 274.5,-687.8127 226.5,-687.8127"/>
<polygon fill="none" stroke="#000000" points="226.5,-687.8127 226.5,-706.8127 274.5,-706.8127 274.5,-687.8127 226.5,-687.8127"/>
<text text-anchor="start" x="239.1105" y="-693.9127" font-family="Helvetica,sans-Serif" font-size="11.00" fill="#000000">5 rows</text>
<polygon fill="#ffffff" stroke="transparent" points="274.5,-687.8127 274.5,-706.8127 306.5,-706.8127 306.5,-687.8127 274.5,-687.8127"/>
<polygon fill="none" stroke="#000000" points="274.5,-687.8127 274.5,-706.8127 306.5,-706.8127 306.5,-687.8127 274.5,-687.8127"/>
<text text-anchor="start" x="287.9053" y="-693.9127" font-family="Helvetica,sans-Serif" font-size="11.00" fill="#000000">4 &gt;</text>
</a>
</g>
</g>
<!-- Competencies&#45;&gt;AspNetUsers -->
<g id="edge5" class="edge">
<title>Competencies:w&#45;&gt;AspNetUsers:e</title>
<path fill="none" stroke="#000000" d="M171.2947,-713.4005C123.8184,-700.5339 93.5227,-642.8046 77.8953,-604.5278"/>
<polygon fill="#000000" stroke="#000000" points="177.6129,-714.4733 184.8973,-719.3619 181.5565,-715.143 185.5,-715.8127 185.5,-715.8127 185.5,-715.8127 181.5565,-715.143 186.1027,-712.2635 177.6129,-714.4733 177.6129,-714.4733"/>
<ellipse fill="none" stroke="#000000" cx="174.4581" cy="-713.9376" rx="3.2" ry="3.2"/>
</g>
<!-- Competencies&#45;&gt;AspNetUsers -->
<g id="edge6" class="edge">
<title>Competencies:w&#45;&gt;AspNetUsers:e</title>
<path fill="none" stroke="#000000" d="M171.0151,-715.5024C120.1729,-708.9349 89.0842,-645.4639 74.6504,-604.4139"/>
<polygon fill="#000000" stroke="#000000" points="177.5018,-715.6413 185.4229,-719.4119 181.5009,-715.727 185.5,-715.8127 185.5,-715.8127 185.5,-715.8127 181.5009,-715.727 185.5771,-712.2135 177.5018,-715.6413 177.5018,-715.6413"/>
<ellipse fill="none" stroke="#000000" cx="174.3026" cy="-715.5728" rx="3.2" ry="3.2"/>
</g>
<!-- CompetencyLevelDescriptions -->
<g id="node7" class="node">
<title>CompetencyLevelDescriptions</title>
<g id="a_node7"><a xlink:href="../../tables/CompetencyLevelDescriptions.html" xlink:title="CompetencyLevelDescriptions" target="_top">
<polygon fill="#ffffff" stroke="transparent" points="377,-906.3127 377,-967.3127 591,-967.3127 591,-906.3127 377,-906.3127"/>
<polygon fill="#f5f5f5" stroke="transparent" points="377,-943.8127 377,-966.8127 591,-966.8127 591,-943.8127 377,-943.8127"/>
<polygon fill="none" stroke="#000000" points="377,-943.8127 377,-966.8127 591,-966.8127 591,-943.8127 377,-943.8127"/>
<text text-anchor="start" x="382" y="-952.4127" font-family="Helvetica,sans-Serif" font-weight="bold" font-size="11.00" fill="#000000">CompetencyLevelDescriptions</text>
<text text-anchor="start" x="556.5219" y="-951.9127" font-family="Helvetica,sans-Serif" font-size="11.00" fill="#000000">[table]</text>
<polygon fill="none" stroke="#000000" points="377,-924.8127 377,-943.8127 591,-943.8127 591,-924.8127 377,-924.8127"/>
<text text-anchor="start" x="380" y="-930.9127" font-family="Helvetica,sans-Serif" font-size="11.00" fill="#000000">...</text>
<polygon fill="#ffffff" stroke="transparent" points="377,-905.8127 377,-924.8127 466,-924.8127 466,-905.8127 377,-905.8127"/>
<polygon fill="none" stroke="#000000" points="377,-905.8127 377,-924.8127 466,-924.8127 466,-905.8127 377,-905.8127"/>
<text text-anchor="start" x="380" y="-911.9127" font-family="Helvetica,sans-Serif" font-size="11.00" fill="#000000">&lt; 3</text>
<polygon fill="#ffffff" stroke="transparent" points="466,-905.8127 466,-924.8127 544,-924.8127 544,-905.8127 466,-905.8127"/>
<polygon fill="none" stroke="#000000" points="466,-905.8127 466,-924.8127 544,-924.8127 544,-905.8127 466,-905.8127"/>
<text text-anchor="start" x="502.4956" y="-911.9127" font-family="Helvetica,sans-Serif" font-size="11.00" fill="#000000">20 rows</text>
<polygon fill="#ffffff" stroke="transparent" points="544,-905.8127 544,-924.8127 591,-924.8127 591,-905.8127 544,-905.8127"/>
<polygon fill="none" stroke="#000000" points="544,-905.8127 544,-924.8127 591,-924.8127 591,-905.8127 544,-905.8127"/>
<text text-anchor="start" x="581.8862" y="-911.9127" font-family="Helvetica,sans-Serif" font-size="11.00" fill="#000000"> &#160;</text>
</a>
</g>
</g>
<!-- CompetencyLevelDescriptions&#45;&gt;AspNetUsers -->
<g id="edge8" class="edge">
<title>CompetencyLevelDescriptions:w&#45;&gt;AspNetUsers:e</title>
<path fill="none" stroke="#000000" d="M363.1273,-929.1839C337.0849,-912.4703 360.7524,-858.7116 328,-832.8127 268.7284,-785.9437 220.5892,-840.7343 163,-791.8127 105.3722,-742.8584 80.7,-653.8708 70.8818,-604.6798"/>
<polygon fill="#000000" stroke="#000000" points="369.4113,-931.2806 375.8605,-937.2276 373.2056,-932.5467 377,-933.8127 377,-933.8127 377,-933.8127 373.2056,-932.5467 378.1395,-930.3978 369.4113,-931.2806 369.4113,-931.2806"/>
<ellipse fill="none" stroke="#000000" cx="366.3758" cy="-930.2677" rx="3.2" ry="3.2"/>
</g>
<!-- CompetencyLevelDescriptions&#45;&gt;AspNetUsers -->
<g id="edge9" class="edge">
<title>CompetencyLevelDescriptions:w&#45;&gt;AspNetUsers:e</title>
<path fill="none" stroke="#000000" d="M362.4446,-933.1366C337.5012,-924.5168 360.4612,-871.4814 328,-845.8127 268.7284,-798.9437 220.5892,-853.7343 163,-804.8127 102.0886,-753.0689 77.9954,-656.5998 69.3448,-604.7275"/>
<polygon fill="#000000" stroke="#000000" points="369.0086,-933.4414 376.8329,-937.4088 373.0043,-933.6271 377,-933.8127 377,-933.8127 377,-933.8127 373.0043,-933.6271 377.1671,-930.2166 369.0086,-933.4414 369.0086,-933.4414"/>
<ellipse fill="none" stroke="#000000" cx="365.8121" cy="-933.2929" rx="3.2" ry="3.2"/>
</g>
<!-- CompetencyLevelDescriptions&#45;&gt;Competencies -->
<g id="edge7" class="edge">
<title>CompetencyLevelDescriptions:w&#45;&gt;Competencies:e</title>
<path fill="none" stroke="#000000" d="M362.3251,-931.9281C289.032,-910.6209 402.7606,-715.8127 306.5,-715.8127"/>
<polygon fill="#000000" stroke="#000000" points="369.0652,-932.7936 376.5414,-937.3834 373.0326,-933.3032 377,-933.8127 377,-933.8127 377,-933.8127 373.0326,-933.3032 377.4586,-930.242 369.0652,-932.7936 369.0652,-932.7936"/>
<ellipse fill="none" stroke="#000000" cx="365.8912" cy="-932.386" rx="3.2" ry="3.2"/>
</g>
<!-- CompetencyTechnicalCareer -->
<g id="node8" class="node">
<title>CompetencyTechnicalCareer</title>
<g id="a_node8"><a xlink:href="../../tables/CompetencyTechnicalCareer.html" xlink:title="CompetencyTechnicalCareer" target="_top">
<polygon fill="#ffffff" stroke="transparent" points="382,-675.3127 382,-736.3127 586,-736.3127 586,-675.3127 382,-675.3127"/>
<polygon fill="#f5f5f5" stroke="transparent" points="382,-712.8127 382,-735.8127 586,-735.8127 586,-712.8127 382,-712.8127"/>
<polygon fill="none" stroke="#000000" points="382,-712.8127 382,-735.8127 586,-735.8127 586,-712.8127 382,-712.8127"/>
<text text-anchor="start" x="387" y="-721.4127" font-family="Helvetica,sans-Serif" font-weight="bold" font-size="11.00" fill="#000000">CompetencyTechnicalCareer</text>
<text text-anchor="start" x="551.5219" y="-720.9127" font-family="Helvetica,sans-Serif" font-size="11.00" fill="#000000">[table]</text>
<polygon fill="none" stroke="#000000" points="382,-693.8127 382,-712.8127 586,-712.8127 586,-693.8127 382,-693.8127"/>
<text text-anchor="start" x="385" y="-699.9127" font-family="Helvetica,sans-Serif" font-size="11.00" fill="#000000">...</text>
<polygon fill="#ffffff" stroke="transparent" points="382,-674.8127 382,-693.8127 469,-693.8127 469,-674.8127 382,-674.8127"/>
<polygon fill="none" stroke="#000000" points="382,-674.8127 382,-693.8127 469,-693.8127 469,-674.8127 382,-674.8127"/>
<text text-anchor="start" x="385" y="-680.9127" font-family="Helvetica,sans-Serif" font-size="11.00" fill="#000000">&lt; 2</text>
<polygon fill="#ffffff" stroke="transparent" points="469,-674.8127 469,-693.8127 540,-693.8127 540,-674.8127 469,-674.8127"/>
<polygon fill="none" stroke="#000000" points="469,-674.8127 469,-693.8127 540,-693.8127 540,-674.8127 469,-674.8127"/>
<text text-anchor="start" x="504.6105" y="-680.9127" font-family="Helvetica,sans-Serif" font-size="11.00" fill="#000000">0 rows</text>
<polygon fill="#ffffff" stroke="transparent" points="540,-674.8127 540,-693.8127 586,-693.8127 586,-674.8127 540,-674.8127"/>
<polygon fill="none" stroke="#000000" points="540,-674.8127 540,-693.8127 586,-693.8127 586,-674.8127 540,-674.8127"/>
<text text-anchor="start" x="576.8862" y="-680.9127" font-family="Helvetica,sans-Serif" font-size="11.00" fill="#000000"> &#160;</text>
</a>
</g>
</g>
<!-- CompetencyTechnicalCareer&#45;&gt;Competencies -->
<g id="edge10" class="edge">
<title>CompetencyTechnicalCareer:w&#45;&gt;Competencies:e</title>
<path fill="none" stroke="#000000" d="M367.472,-703.7063C344.8964,-706.6433 335.0961,-715.8127 306.5,-715.8127"/>
<polygon fill="#000000" stroke="#000000" points="374.0151,-703.3039 382.221,-706.4059 378.0075,-703.0583 382,-702.8127 382,-702.8127 382,-702.8127 378.0075,-703.0583 381.779,-699.2195 374.0151,-703.3039 374.0151,-703.3039"/>
<ellipse fill="none" stroke="#000000" cx="370.8211" cy="-703.5003" rx="3.2" ry="3.2"/>
</g>
<!-- TechnicalCareers -->
<g id="node9" class="node">
<title>TechnicalCareers</title>
<g id="a_node9"><a xlink:href="../../tables/TechnicalCareers.html" xlink:title="TechnicalCareers" target="_top">
<polygon fill="#ffffff" stroke="transparent" points="176,-539.3127 176,-600.3127 315,-600.3127 315,-539.3127 176,-539.3127"/>
<polygon fill="#f5f5f5" stroke="transparent" points="176.5,-576.8127 176.5,-599.8127 315.5,-599.8127 315.5,-576.8127 176.5,-576.8127"/>
<polygon fill="none" stroke="#000000" points="176.5,-576.8127 176.5,-599.8127 315.5,-599.8127 315.5,-576.8127 176.5,-576.8127"/>
<text text-anchor="start" x="181.5" y="-585.4127" font-family="Helvetica,sans-Serif" font-weight="bold" font-size="11.00" fill="#000000">TechnicalCareers</text>
<text text-anchor="start" x="281.0219" y="-584.9127" font-family="Helvetica,sans-Serif" font-size="11.00" fill="#000000">[table]</text>
<polygon fill="none" stroke="#000000" points="176.5,-557.8127 176.5,-576.8127 315.5,-576.8127 315.5,-557.8127 176.5,-557.8127"/>
<text text-anchor="start" x="179.5" y="-563.9127" font-family="Helvetica,sans-Serif" font-size="11.00" fill="#000000">...</text>
<polygon fill="#ffffff" stroke="transparent" points="176.5,-538.8127 176.5,-557.8127 226.5,-557.8127 226.5,-538.8127 176.5,-538.8127"/>
<polygon fill="none" stroke="#000000" points="176.5,-538.8127 176.5,-557.8127 226.5,-557.8127 226.5,-538.8127 176.5,-538.8127"/>
<text text-anchor="start" x="179.5" y="-544.9127" font-family="Helvetica,sans-Serif" font-size="11.00" fill="#000000">&lt; 2</text>
<polygon fill="#ffffff" stroke="transparent" points="226.5,-538.8127 226.5,-557.8127 279.5,-557.8127 279.5,-538.8127 226.5,-538.8127"/>
<polygon fill="none" stroke="#000000" points="226.5,-538.8127 226.5,-557.8127 279.5,-557.8127 279.5,-538.8127 226.5,-538.8127"/>
<text text-anchor="start" x="244.1105" y="-544.9127" font-family="Helvetica,sans-Serif" font-size="11.00" fill="#000000">6 rows</text>
<polygon fill="#ffffff" stroke="transparent" points="279.5,-538.8127 279.5,-557.8127 315.5,-557.8127 315.5,-538.8127 279.5,-538.8127"/>
<polygon fill="none" stroke="#000000" points="279.5,-538.8127 279.5,-557.8127 315.5,-557.8127 315.5,-538.8127 279.5,-538.8127"/>
<text text-anchor="start" x="296.9053" y="-544.9127" font-family="Helvetica,sans-Serif" font-size="11.00" fill="#000000">6 &gt;</text>
</a>
</g>
</g>
<!-- CompetencyTechnicalCareer&#45;&gt;TechnicalCareers -->
<g id="edge11" class="edge">
<title>CompetencyTechnicalCareer:w&#45;&gt;TechnicalCareers:e</title>
<path fill="none" stroke="#000000" d="M367.6782,-700.2687C347.4612,-691.7014 349.5782,-663.2391 328,-641.8127 315.1847,-629.0876 300.5196,-615.8918 287.1425,-604.3269"/>
<polygon fill="#000000" stroke="#000000" points="374.1233,-701.4135 381.3704,-706.3572 378.0617,-702.1131 382,-702.8127 382,-702.8127 382,-702.8127 378.0617,-702.1131 382.6296,-699.2682 374.1233,-701.4135 374.1233,-701.4135"/>
<ellipse fill="none" stroke="#000000" cx="370.9726" cy="-700.8538" rx="3.2" ry="3.2"/>
</g>
<!-- TechnicalCareers&#45;&gt;AspNetUsers -->
<g id="edge52" class="edge">
<title>TechnicalCareers:w&#45;&gt;AspNetUsers:e</title>
<path fill="none" stroke="#000000" d="M153.3283,-565.3136C145.4765,-565.321 137.6441,-565.3739 130.069,-565.4722"/>
<polygon fill="#000000" stroke="#000000" points="159.9043,-565.331 167.8947,-568.9523 163.9042,-565.3416 167.9042,-565.3523 167.9042,-565.3523 167.9042,-565.3523 163.9042,-565.3416 167.9138,-561.7523 159.9043,-565.331 159.9043,-565.331"/>
<ellipse fill="none" stroke="#000000" cx="156.7043" cy="-565.3225" rx="3.2" ry="3.2"/>
</g>
<!-- TechnicalCareers&#45;&gt;AspNetUsers -->
<g id="edge53" class="edge">
<title>TechnicalCareers:w&#45;&gt;AspNetUsers:e</title>
<path fill="none" stroke="#000000" d="M153.3283,-575.0617C145.4765,-575.053 137.6441,-574.9914 130.069,-574.8767"/>
<polygon fill="#000000" stroke="#000000" points="159.9043,-575.0414 167.9154,-578.6166 163.9042,-575.029 167.9042,-575.0166 167.9042,-575.0166 167.9042,-575.0166 163.9042,-575.029 167.8931,-571.4166 159.9043,-575.0414 159.9043,-575.0414"/>
<ellipse fill="none" stroke="#000000" cx="156.7043" cy="-575.0513" rx="3.2" ry="3.2"/>
</g>
<!-- Coordinators -->
<g id="node10" class="node">
<title>Coordinators</title>
<g id="a_node10"><a xlink:href="../../tables/Coordinators.html" xlink:title="Coordinators" target="_top">
<polygon fill="#ffffff" stroke="transparent" points="372.5,-563.8127 372.5,-653.8127 595.5,-653.8127 595.5,-563.8127 372.5,-563.8127"/>
<polygon fill="#f5f5f5" stroke="transparent" points="375,-628.8127 375,-651.8127 594,-651.8127 594,-628.8127 375,-628.8127"/>
<polygon fill="none" stroke="#000000" points="375,-628.8127 375,-651.8127 594,-651.8127 594,-628.8127 375,-628.8127"/>
<text text-anchor="start" x="380" y="-637.4127" font-family="Helvetica,sans-Serif" font-weight="bold" font-size="11.00" fill="#000000">Coordinators</text>
<text text-anchor="start" x="559.0437" y="-636.9127" font-family="Helvetica,sans-Serif" font-size="11.00" fill="#000000">[table]</text>
<polygon fill="none" stroke="#000000" points="375,-606.8127 375,-628.8127 500,-628.8127 500,-606.8127 375,-606.8127"/>
<image xlink:href="../../images/primaryKeys.png" width="11px" height="12px" preserveAspectRatio="xMinYMin meet" x="380" y="-623.813"/>
<text text-anchor="start" x="395" y="-613.9127" font-family="Helvetica,sans-Serif" font-size="11.00" fill="#000000">UserId</text>
<polygon fill="none" stroke="#000000" points="500,-606.8127 500,-628.8127 594,-628.8127 594,-606.8127 500,-606.8127"/>
<text text-anchor="start" x="503" y="-614.5127" font-family="Helvetica,sans-Serif" font-size="11.00" fill="#000000">text[2147483647]</text>
<polygon fill="#ffffff" stroke="transparent" points="375,-584.8127 375,-606.8127 500,-606.8127 500,-584.8127 375,-584.8127"/>
<polygon fill="none" stroke="#000000" points="375,-584.8127 375,-606.8127 500,-606.8127 500,-584.8127 375,-584.8127"/>
<image xlink:href="../../images/foreignKeys.png" width="11px" height="12px" preserveAspectRatio="xMinYMin meet" x="380" y="-601.813"/>
<text text-anchor="start" x="395" y="-591.9127" font-family="Helvetica,sans-Serif" font-size="11.00" fill="#000000">TechnicalCareerId</text>
<polygon fill="none" stroke="#000000" points="500,-584.8127 500,-606.8127 594,-606.8127 594,-584.8127 500,-584.8127"/>
<text text-anchor="start" x="502.9758" y="-592.5127" font-family="Helvetica,sans-Serif" font-size="11.00" fill="#000000">uuid[2147483647]</text>
<polygon fill="#ffffff" stroke="transparent" points="375,-565.8127 375,-584.8127 429,-584.8127 429,-565.8127 375,-565.8127"/>
<polygon fill="none" stroke="#000000" points="375,-565.8127 375,-584.8127 429,-584.8127 429,-565.8127 375,-565.8127"/>
<text text-anchor="start" x="378" y="-571.9127" font-family="Helvetica,sans-Serif" font-size="11.00" fill="#000000">&lt; 2</text>
<polygon fill="#ffffff" stroke="transparent" points="429,-565.8127 429,-584.8127 500,-584.8127 500,-565.8127 429,-565.8127"/>
<polygon fill="none" stroke="#000000" points="429,-565.8127 429,-584.8127 500,-584.8127 500,-565.8127 429,-565.8127"/>
<text text-anchor="start" x="464.6105" y="-571.9127" font-family="Helvetica,sans-Serif" font-size="11.00" fill="#000000">0 rows</text>
<polygon fill="#ffffff" stroke="transparent" points="500,-565.8127 500,-584.8127 594,-584.8127 594,-565.8127 500,-565.8127"/>
<polygon fill="none" stroke="#000000" points="500,-565.8127 500,-584.8127 594,-584.8127 594,-565.8127 500,-565.8127"/>
<text text-anchor="start" x="575.4053" y="-571.9127" font-family="Helvetica,sans-Serif" font-size="11.00" fill="#000000">0 &gt;</text>
<polygon fill="none" stroke="#000000" stroke-width="2" points="373.5,-564.8127 373.5,-652.8127 594.5,-652.8127 594.5,-564.8127 373.5,-564.8127"/>
</a>
</g>
</g>
<!-- Coordinators&#45;&gt;AspNetUsers -->
<g id="edge13" class="edge">
<title>Coordinators:w&#45;&gt;AspNetUsers:e</title>
<path fill="none" stroke="#000000" d="M364.5198,-617.8671C278.6788,-618.7608 251.6025,-630.1263 163,-610.8127 152.0981,-608.4363 140.8756,-604.8932 130.093,-600.8677"/>
<polygon fill="#000000" stroke="#000000" points="374.1792,-613.8169 374.2208,-621.8168 372.6208,-621.8251 372.5792,-613.8252 374.1792,-613.8169"/>
<polyline fill="none" stroke="#000000" points="375,-617.8127 371.0001,-617.8335 "/>
<ellipse fill="none" stroke="#000000" cx="367.8001" cy="-617.8501" rx="3.2" ry="3.2"/>
</g>
<!-- Coordinators&#45;&gt;TechnicalCareers -->
<g id="edge12" class="edge">
<title>Coordinators:w&#45;&gt;TechnicalCareers:e</title>
<path fill="none" stroke="#000000" d="M360.4871,-595.3251C347.9958,-594.5182 335.2735,-592.7715 323.0635,-590.5512"/>
<polygon fill="#000000" stroke="#000000" points="367.0045,-595.544 374.8791,-599.4107 371.0023,-595.6784 375,-595.8127 375,-595.8127 375,-595.8127 371.0023,-595.6784 375.1209,-592.2147 367.0045,-595.544 367.0045,-595.544"/>
<ellipse fill="none" stroke="#000000" cx="363.8063" cy="-595.4366" rx="3.2" ry="3.2"/>
</g>
<!-- EvaluationPeriods -->
<g id="node11" class="node">
<title>EvaluationPeriods</title>
<g id="a_node11"><a xlink:href="../../tables/EvaluationPeriods.html" xlink:title="EvaluationPeriods" target="_top">
<polygon fill="#ffffff" stroke="transparent" points="174,-375.3127 174,-436.3127 317,-436.3127 317,-375.3127 174,-375.3127"/>
<polygon fill="#f5f5f5" stroke="transparent" points="174.5,-412.8127 174.5,-435.8127 317.5,-435.8127 317.5,-412.8127 174.5,-412.8127"/>
<polygon fill="none" stroke="#000000" points="174.5,-412.8127 174.5,-435.8127 317.5,-435.8127 317.5,-412.8127 174.5,-412.8127"/>
<text text-anchor="start" x="179.5" y="-421.4127" font-family="Helvetica,sans-Serif" font-weight="bold" font-size="11.00" fill="#000000">EvaluationPeriods</text>
<text text-anchor="start" x="283.0219" y="-420.9127" font-family="Helvetica,sans-Serif" font-size="11.00" fill="#000000">[table]</text>
<polygon fill="none" stroke="#000000" points="174.5,-393.8127 174.5,-412.8127 317.5,-412.8127 317.5,-393.8127 174.5,-393.8127"/>
<text text-anchor="start" x="177.5" y="-399.9127" font-family="Helvetica,sans-Serif" font-size="11.00" fill="#000000">...</text>
<polygon fill="#ffffff" stroke="transparent" points="174.5,-374.8127 174.5,-393.8127 226.5,-393.8127 226.5,-374.8127 174.5,-374.8127"/>
<polygon fill="none" stroke="#000000" points="174.5,-374.8127 174.5,-393.8127 226.5,-393.8127 226.5,-374.8127 174.5,-374.8127"/>
<text text-anchor="start" x="177.5" y="-380.9127" font-family="Helvetica,sans-Serif" font-size="11.00" fill="#000000">&lt; 2</text>
<polygon fill="#ffffff" stroke="transparent" points="226.5,-374.8127 226.5,-393.8127 280.5,-393.8127 280.5,-374.8127 226.5,-374.8127"/>
<polygon fill="none" stroke="#000000" points="226.5,-374.8127 226.5,-393.8127 280.5,-393.8127 280.5,-374.8127 226.5,-374.8127"/>
<text text-anchor="start" x="245.1105" y="-380.9127" font-family="Helvetica,sans-Serif" font-size="11.00" fill="#000000">0 rows</text>
<polygon fill="#ffffff" stroke="transparent" points="280.5,-374.8127 280.5,-393.8127 317.5,-393.8127 317.5,-374.8127 280.5,-374.8127"/>
<polygon fill="none" stroke="#000000" points="280.5,-374.8127 280.5,-393.8127 317.5,-393.8127 317.5,-374.8127 280.5,-374.8127"/>
<text text-anchor="start" x="298.9053" y="-380.9127" font-family="Helvetica,sans-Serif" font-size="11.00" fill="#000000">3 &gt;</text>
</a>
</g>
</g>
<!-- EvaluationPeriods&#45;&gt;AspNetUsers -->
<g id="edge14" class="edge">
<title>EvaluationPeriods:w&#45;&gt;AspNetUsers:e</title>
<path fill="none" stroke="#000000" d="M160.072,-403.3964C105.8265,-411.7575 80.7342,-488.8782 70.7071,-535.2008"/>
<polygon fill="#000000" stroke="#000000" points="166.5065,-403.1361 174.6455,-406.4098 170.5033,-402.9744 174.5,-402.8127 174.5,-402.8127 174.5,-402.8127 170.5033,-402.9744 174.3545,-399.2157 166.5065,-403.1361 166.5065,-403.1361"/>
<ellipse fill="none" stroke="#000000" cx="163.3092" cy="-403.2655" rx="3.2" ry="3.2"/>
</g>
<!-- EvaluationPeriods&#45;&gt;AspNetUsers -->
<g id="edge15" class="edge">
<title>EvaluationPeriods:w&#45;&gt;AspNetUsers:e</title>
<path fill="none" stroke="#000000" d="M160.1631,-405.4523C109.0286,-420.5176 83.7752,-491.5093 72.6235,-535.1857"/>
<polygon fill="#000000" stroke="#000000" points="166.6322,-404.2613 175.1519,-406.3532 170.5661,-403.537 174.5,-402.8127 174.5,-402.8127 174.5,-402.8127 170.5661,-403.537 173.8481,-399.2722 166.6322,-404.2613 166.6322,-404.2613"/>
<ellipse fill="none" stroke="#000000" cx="163.4851" cy="-404.8407" rx="3.2" ry="3.2"/>
</g>
<!-- EvaluationPeriodTechnicalCareer -->
<g id="node12" class="node">
<title>EvaluationPeriodTechnicalCareer</title>
<g id="a_node12"><a xlink:href="../../tables/EvaluationPeriodTechnicalCareer.html" xlink:title="EvaluationPeriodTechnicalCareer" target="_top">
<polygon fill="#ffffff" stroke="transparent" points="369,-427.3127 369,-488.3127 599,-488.3127 599,-427.3127 369,-427.3127"/>
<polygon fill="#f5f5f5" stroke="transparent" points="369,-464.8127 369,-487.8127 599,-487.8127 599,-464.8127 369,-464.8127"/>
<polygon fill="none" stroke="#000000" points="369,-464.8127 369,-487.8127 599,-487.8127 599,-464.8127 369,-464.8127"/>
<text text-anchor="start" x="374" y="-473.4127" font-family="Helvetica,sans-Serif" font-weight="bold" font-size="11.00" fill="#000000">EvaluationPeriodTechnicalCareer</text>
<text text-anchor="start" x="564.5219" y="-472.9127" font-family="Helvetica,sans-Serif" font-size="11.00" fill="#000000">[table]</text>
<polygon fill="none" stroke="#000000" points="369,-445.8127 369,-464.8127 599,-464.8127 599,-445.8127 369,-445.8127"/>
<text text-anchor="start" x="372" y="-451.9127" font-family="Helvetica,sans-Serif" font-size="11.00" fill="#000000">...</text>
<polygon fill="#ffffff" stroke="transparent" points="369,-426.8127 369,-445.8127 469,-445.8127 469,-426.8127 369,-426.8127"/>
<polygon fill="none" stroke="#000000" points="369,-426.8127 369,-445.8127 469,-445.8127 469,-426.8127 369,-426.8127"/>
<text text-anchor="start" x="372" y="-432.9127" font-family="Helvetica,sans-Serif" font-size="11.00" fill="#000000">&lt; 2</text>
<polygon fill="#ffffff" stroke="transparent" points="469,-426.8127 469,-445.8127 547,-445.8127 547,-426.8127 469,-426.8127"/>
<polygon fill="none" stroke="#000000" points="469,-426.8127 469,-445.8127 547,-445.8127 547,-426.8127 469,-426.8127"/>
<text text-anchor="start" x="511.6105" y="-432.9127" font-family="Helvetica,sans-Serif" font-size="11.00" fill="#000000">0 rows</text>
<polygon fill="#ffffff" stroke="transparent" points="547,-426.8127 547,-445.8127 599,-445.8127 599,-426.8127 547,-426.8127"/>
<polygon fill="none" stroke="#000000" points="547,-426.8127 547,-445.8127 599,-445.8127 599,-426.8127 547,-426.8127"/>
<text text-anchor="start" x="589.8862" y="-432.9127" font-family="Helvetica,sans-Serif" font-size="11.00" fill="#000000"> &#160;</text>
</a>
</g>
</g>
<!-- EvaluationPeriodTechnicalCareer&#45;&gt;TechnicalCareers -->
<g id="edge17" class="edge">
<title>EvaluationPeriodTechnicalCareer:w&#45;&gt;TechnicalCareers:e</title>
<path fill="none" stroke="#000000" d="M354.9539,-458.3805C337.83,-469.9745 350.7165,-507.0903 328,-528.8127 325.6881,-531.0235 323.2338,-533.1391 320.6736,-535.1608"/>
<polygon fill="#000000" stroke="#000000" points="361.2462,-456.7823 369.8863,-458.3019 365.1231,-455.7975 369,-454.8127 369,-454.8127 369,-454.8127 365.1231,-455.7975 368.1137,-451.3235 361.2462,-456.7823 361.2462,-456.7823"/>
<ellipse fill="none" stroke="#000000" cx="358.1447" cy="-457.5701" rx="3.2" ry="3.2"/>
</g>
<!-- EvaluationPeriodTechnicalCareer&#45;&gt;EvaluationPeriods -->
<g id="edge16" class="edge">
<title>EvaluationPeriodTechnicalCareer:w&#45;&gt;EvaluationPeriods:e</title>
<path fill="none" stroke="#000000" d="M354.9561,-450.0139C339.9356,-437.1408 343.9284,-402.8127 317.5,-402.8127"/>
<polygon fill="#000000" stroke="#000000" points="361.4297,-452.2259 367.8359,-458.2193 365.2149,-453.5193 369,-454.8127 369,-454.8127 369,-454.8127 365.2149,-453.5193 370.1641,-451.4061 361.4297,-452.2259 361.4297,-452.2259"/>
<ellipse fill="none" stroke="#000000" cx="358.4016" cy="-451.1912" rx="3.2" ry="3.2"/>
</g>
<!-- FormQuestions -->
<g id="node13" class="node">
<title>FormQuestions</title>
<g id="a_node13"><a xlink:href="../../tables/FormQuestions.html" xlink:title="FormQuestions" target="_top">
<polygon fill="#ffffff" stroke="transparent" points="420.5,-824.3127 420.5,-885.3127 547.5,-885.3127 547.5,-824.3127 420.5,-824.3127"/>
<polygon fill="#f5f5f5" stroke="transparent" points="421,-861.8127 421,-884.8127 548,-884.8127 548,-861.8127 421,-861.8127"/>
<polygon fill="none" stroke="#000000" points="421,-861.8127 421,-884.8127 548,-884.8127 548,-861.8127 421,-861.8127"/>
<text text-anchor="start" x="426" y="-870.4127" font-family="Helvetica,sans-Serif" font-weight="bold" font-size="11.00" fill="#000000">FormQuestions</text>
<text text-anchor="start" x="513.5219" y="-869.9127" font-family="Helvetica,sans-Serif" font-size="11.00" fill="#000000">[table]</text>
<polygon fill="none" stroke="#000000" points="421,-842.8127 421,-861.8127 548,-861.8127 548,-842.8127 421,-842.8127"/>
<text text-anchor="start" x="424" y="-848.9127" font-family="Helvetica,sans-Serif" font-size="11.00" fill="#000000">...</text>
<polygon fill="#ffffff" stroke="transparent" points="421,-823.8127 421,-842.8127 465,-842.8127 465,-823.8127 421,-823.8127"/>
<polygon fill="none" stroke="#000000" points="421,-823.8127 421,-842.8127 465,-842.8127 465,-823.8127 421,-823.8127"/>
<text text-anchor="start" x="424" y="-829.9127" font-family="Helvetica,sans-Serif" font-size="11.00" fill="#000000">&lt; 3</text>
<polygon fill="#ffffff" stroke="transparent" points="465,-823.8127 465,-842.8127 515,-842.8127 515,-823.8127 465,-823.8127"/>
<polygon fill="none" stroke="#000000" points="465,-823.8127 465,-842.8127 515,-842.8127 515,-823.8127 465,-823.8127"/>
<text text-anchor="start" x="479.6105" y="-829.9127" font-family="Helvetica,sans-Serif" font-size="11.00" fill="#000000">0 rows</text>
<polygon fill="#ffffff" stroke="transparent" points="515,-823.8127 515,-842.8127 548,-842.8127 548,-823.8127 515,-823.8127"/>
<polygon fill="none" stroke="#000000" points="515,-823.8127 515,-842.8127 548,-842.8127 548,-823.8127 515,-823.8127"/>
<text text-anchor="start" x="529.4053" y="-829.9127" font-family="Helvetica,sans-Serif" font-size="11.00" fill="#000000">1 &gt;</text>
</a>
</g>
</g>
<!-- FormQuestions&#45;&gt;AspNetUsers -->
<g id="edge19" class="edge">
<title>FormQuestions:w&#45;&gt;AspNetUsers:e</title>
<path fill="none" stroke="#000000" d="M406.6932,-848.8286C373.1398,-838.7334 366.6247,-811.7906 328,-796.8127 257.3438,-769.4136 222.1751,-801.1553 163,-753.8127 114.6006,-715.0911 87.6431,-646.0342 74.7491,-604.3637"/>
<polygon fill="#000000" stroke="#000000" points="413.1685,-850.1792 420.2649,-855.3369 417.0843,-850.996 421,-851.8127 421,-851.8127 421,-851.8127 417.0843,-850.996 421.7351,-848.2886 413.1685,-850.1792 413.1685,-850.1792"/>
<ellipse fill="none" stroke="#000000" cx="410.036" cy="-849.5258" rx="3.2" ry="3.2"/>
</g>
<!-- FormQuestions&#45;&gt;AspNetUsers -->
<g id="edge20" class="edge">
<title>FormQuestions:w&#45;&gt;AspNetUsers:e</title>
<path fill="none" stroke="#000000" d="M406.2513,-852.7499C373.0818,-851.4962 366.4545,-824.7246 328,-809.8127 257.3438,-782.4136 222.1751,-814.1553 163,-766.8127 111.1228,-725.3088 83.8797,-648.9532 72.1846,-604.3824"/>
<polygon fill="#000000" stroke="#000000" points="413.0161,-852.3201 421.2283,-855.4055 417.0081,-852.0664 421,-851.8127 421,-851.8127 421,-851.8127 417.0081,-852.0664 420.7717,-848.22 413.0161,-852.3201 413.0161,-852.3201"/>
<ellipse fill="none" stroke="#000000" cx="409.8225" cy="-852.523" rx="3.2" ry="3.2"/>
</g>
<!-- FormQuestions&#45;&gt;Competencies -->
<g id="edge18" class="edge">
<title>FormQuestions:w&#45;&gt;Competencies:e</title>
<path fill="none" stroke="#000000" d="M406.3972,-850.2768C386.0913,-845.4415 379.2308,-829.669 361,-809.8127 328.3396,-774.2403 354.7918,-715.8127 306.5,-715.8127"/>
<polygon fill="#000000" stroke="#000000" points="413.0439,-850.9758 420.6234,-855.393 417.0219,-851.3943 421,-851.8127 421,-851.8127 421,-851.8127 417.0219,-851.3943 421.3766,-848.2325 413.0439,-850.9758 413.0439,-850.9758"/>
<ellipse fill="none" stroke="#000000" cx="409.8614" cy="-850.6411" rx="3.2" ry="3.2"/>
</g>
<!-- ProfessorCompetencyAssignments -->
<g id="node14" class="node">
<title>ProfessorCompetencyAssignments</title>
<g id="a_node14"><a xlink:href="../../tables/ProfessorCompetencyAssignments.html" xlink:title="ProfessorCompetencyAssignments" target="_top">
<polygon fill="#ffffff" stroke="transparent" points="648,-498.3127 648,-559.3127 890,-559.3127 890,-498.3127 648,-498.3127"/>
<polygon fill="#f5f5f5" stroke="transparent" points="648,-535.8127 648,-558.8127 890,-558.8127 890,-535.8127 648,-535.8127"/>
<polygon fill="none" stroke="#000000" points="648,-535.8127 648,-558.8127 890,-558.8127 890,-535.8127 648,-535.8127"/>
<text text-anchor="start" x="653" y="-544.4127" font-family="Helvetica,sans-Serif" font-weight="bold" font-size="11.00" fill="#000000">ProfessorCompetencyAssignments</text>
<text text-anchor="start" x="855.5219" y="-543.9127" font-family="Helvetica,sans-Serif" font-size="11.00" fill="#000000">[table]</text>
<polygon fill="none" stroke="#000000" points="648,-516.8127 648,-535.8127 890,-535.8127 890,-516.8127 648,-516.8127"/>
<text text-anchor="start" x="651" y="-522.9127" font-family="Helvetica,sans-Serif" font-size="11.00" fill="#000000">...</text>
<polygon fill="#ffffff" stroke="transparent" points="648,-497.8127 648,-516.8127 750,-516.8127 750,-497.8127 648,-497.8127"/>
<polygon fill="none" stroke="#000000" points="648,-497.8127 648,-516.8127 750,-516.8127 750,-497.8127 648,-497.8127"/>
<text text-anchor="start" x="651" y="-503.9127" font-family="Helvetica,sans-Serif" font-size="11.00" fill="#000000">&lt; 7</text>
<polygon fill="#ffffff" stroke="transparent" points="750,-497.8127 750,-516.8127 828,-516.8127 828,-497.8127 750,-497.8127"/>
<polygon fill="none" stroke="#000000" points="750,-497.8127 750,-516.8127 828,-516.8127 828,-497.8127 750,-497.8127"/>
<text text-anchor="start" x="792.6105" y="-503.9127" font-family="Helvetica,sans-Serif" font-size="11.00" fill="#000000">0 rows</text>
<polygon fill="#ffffff" stroke="transparent" points="828,-497.8127 828,-516.8127 890,-516.8127 890,-497.8127 828,-497.8127"/>
<polygon fill="none" stroke="#000000" points="828,-497.8127 828,-516.8127 890,-516.8127 890,-497.8127 828,-497.8127"/>
<text text-anchor="start" x="871.4053" y="-503.9127" font-family="Helvetica,sans-Serif" font-size="11.00" fill="#000000">1 &gt;</text>
</a>
</g>
</g>
<!-- ProfessorCompetencyAssignments&#45;&gt;AspNetUsers -->
<g id="edge22" class="edge">
<title>ProfessorCompetencyAssignments:w&#45;&gt;AspNetUsers:e</title>
<path fill="none" stroke="#000000" d="M633.2113,-526.3166C562.7933,-537.3132 679.4609,-680.5584 607,-740.8127 564.9669,-775.765 407.2484,-769.9594 361,-740.8127 332.2413,-722.6884 353.7298,-694.0283 328,-671.8127 269.9027,-621.6504 233.2939,-651.64 163,-620.8127 152.0046,-615.9907 140.6849,-610.2303 129.8198,-604.3337"/>
<polygon fill="#000000" stroke="#000000" points="640.0046,-526.0852 648.1226,-529.4106 644.0023,-525.949 648,-525.8127 648,-525.8127 648,-525.8127 644.0023,-525.949 647.8774,-522.2148 640.0046,-526.0852 640.0046,-526.0852"/>
<ellipse fill="none" stroke="#000000" cx="636.8065" cy="-526.1942" rx="3.2" ry="3.2"/>
</g>
<!-- ProfessorCompetencyAssignments&#45;&gt;AspNetUsers -->
<g id="edge27" class="edge">
<title>ProfessorCompetencyAssignments:w&#45;&gt;AspNetUsers:e</title>
<path fill="none" stroke="#000000" d="M633.6511,-528.2683C562.3094,-549.7197 679.6109,-693.4336 607,-753.8127 564.9669,-788.765 407.2484,-782.9594 361,-753.8127 332.2413,-735.6884 353.7298,-707.0283 328,-684.8127 269.9027,-634.6504 233.2939,-664.64 163,-633.8127 144.4339,-625.6706 124.9435,-614.8532 108.2779,-604.3753"/>
<polygon fill="#000000" stroke="#000000" points="640.1146,-527.1622 648.6073,-529.3611 644.0573,-526.4875 648,-525.8127 648,-525.8127 648,-525.8127 644.0573,-526.4875 647.3927,-522.2643 640.1146,-527.1622 640.1146,-527.1622"/>
<ellipse fill="none" stroke="#000000" cx="636.9605" cy="-527.702" rx="3.2" ry="3.2"/>
</g>
<!-- ProfessorCompetencyAssignments&#45;&gt;Competencies -->
<g id="edge21" class="edge">
<title>ProfessorCompetencyAssignments:w&#45;&gt;Competencies:e</title>
<path fill="none" stroke="#000000" d="M634.2435,-531.7178C601.048,-566.9419 646.7012,-748.9432 607,-782.8127 565.4113,-818.2926 410.3672,-806.293 361,-782.8127 326.3358,-766.3255 344.8853,-715.8127 306.5,-715.8127"/>
<polygon fill="#000000" stroke="#000000" points="640.6487,-528.9684 649.42,-529.1208 644.3243,-527.3906 648,-525.8127 648,-525.8127 648,-525.8127 644.3243,-527.3906 646.58,-522.5046 640.6487,-528.9684 640.6487,-528.9684"/>
<ellipse fill="none" stroke="#000000" cx="637.7081" cy="-530.2307" rx="3.2" ry="3.2"/>
</g>
<!-- ProfessorCompetencyAssignments&#45;&gt;TechnicalCareers -->
<g id="edge26" class="edge">
<title>ProfessorCompetencyAssignments:w&#45;&gt;TechnicalCareers:e</title>
<path fill="none" stroke="#000000" d="M633.2772,-525.908C523.3527,-527.3091 400.5231,-543.8795 323.1387,-556.2522"/>
<polygon fill="#000000" stroke="#000000" points="640.0002,-525.8645 648.0233,-529.4126 644.0001,-525.8386 648,-525.8127 648,-525.8127 648,-525.8127 644.0001,-525.8386 647.9767,-522.2128 640.0002,-525.8645 640.0002,-525.8645"/>
<ellipse fill="none" stroke="#000000" cx="636.8002" cy="-525.8852" rx="3.2" ry="3.2"/>
</g>
<!-- ProfessorCompetencyAssignments&#45;&gt;EvaluationPeriods -->
<g id="edge23" class="edge">
<title>ProfessorCompetencyAssignments:w&#45;&gt;EvaluationPeriods:e</title>
<path fill="none" stroke="#000000" d="M633.7829,-522.7814C607.2709,-508.0692 643.9299,-443.7203 607,-416.8127 554.9437,-378.8839 381.9085,-402.8127 317.5,-402.8127"/>
<polygon fill="#000000" stroke="#000000" points="640.1759,-524.1445 647.2493,-529.3336 644.0879,-524.9786 648,-525.8127 648,-525.8127 648,-525.8127 644.0879,-524.9786 648.7507,-522.2919 640.1759,-524.1445 640.1759,-524.1445"/>
<ellipse fill="none" stroke="#000000" cx="637.0462" cy="-523.4772" rx="3.2" ry="3.2"/>
</g>
<!-- Professors -->
<g id="node15" class="node">
<title>Professors</title>
<g id="a_node15"><a xlink:href="../../tables/Professors.html" xlink:title="Professors" target="_top">
<polygon fill="#ffffff" stroke="transparent" points="195,-457.3127 195,-518.3127 296,-518.3127 296,-457.3127 195,-457.3127"/>
<polygon fill="#f5f5f5" stroke="transparent" points="195.5,-494.8127 195.5,-517.8127 296.5,-517.8127 296.5,-494.8127 195.5,-494.8127"/>
<polygon fill="none" stroke="#000000" points="195.5,-494.8127 195.5,-517.8127 296.5,-517.8127 296.5,-494.8127 195.5,-494.8127"/>
<text text-anchor="start" x="200.5" y="-503.4127" font-family="Helvetica,sans-Serif" font-weight="bold" font-size="11.00" fill="#000000">Professors</text>
<text text-anchor="start" x="262.0219" y="-502.9127" font-family="Helvetica,sans-Serif" font-size="11.00" fill="#000000">[table]</text>
<polygon fill="none" stroke="#000000" points="195.5,-475.8127 195.5,-494.8127 296.5,-494.8127 296.5,-475.8127 195.5,-475.8127"/>
<text text-anchor="start" x="198.5" y="-481.9127" font-family="Helvetica,sans-Serif" font-size="11.00" fill="#000000">...</text>
<polygon fill="#ffffff" stroke="transparent" points="195.5,-456.8127 195.5,-475.8127 226.5,-475.8127 226.5,-456.8127 195.5,-456.8127"/>
<polygon fill="none" stroke="#000000" points="195.5,-456.8127 195.5,-475.8127 226.5,-475.8127 226.5,-456.8127 195.5,-456.8127"/>
<text text-anchor="start" x="198.5" y="-462.9127" font-family="Helvetica,sans-Serif" font-size="11.00" fill="#000000">&lt; 1</text>
<polygon fill="#ffffff" stroke="transparent" points="226.5,-456.8127 226.5,-475.8127 269.5,-475.8127 269.5,-456.8127 226.5,-456.8127"/>
<polygon fill="none" stroke="#000000" points="226.5,-456.8127 226.5,-475.8127 269.5,-475.8127 269.5,-456.8127 226.5,-456.8127"/>
<text text-anchor="start" x="234.1105" y="-462.9127" font-family="Helvetica,sans-Serif" font-size="11.00" fill="#000000">0 rows</text>
<polygon fill="#ffffff" stroke="transparent" points="269.5,-456.8127 269.5,-475.8127 296.5,-475.8127 296.5,-456.8127 269.5,-456.8127"/>
<polygon fill="none" stroke="#000000" points="269.5,-456.8127 269.5,-475.8127 296.5,-475.8127 296.5,-456.8127 269.5,-456.8127"/>
<text text-anchor="start" x="277.9053" y="-462.9127" font-family="Helvetica,sans-Serif" font-size="11.00" fill="#000000">2 &gt;</text>
</a>
</g>
</g>
<!-- ProfessorCompetencyAssignments&#45;&gt;Professors -->
<g id="edge24" class="edge">
<title>ProfessorCompetencyAssignments:w&#45;&gt;Professors:e</title>
<path fill="none" stroke="#000000" d="M633.4135,-525.7787C517.2159,-525.2177 482.6615,-517.6694 361,-498.8127 332.0119,-494.3198 325.8342,-484.8127 296.5,-484.8127"/>
<polygon fill="#000000" stroke="#000000" points="640,-525.794 647.9916,-529.4127 644,-525.8034 648,-525.8127 648,-525.8127 648,-525.8127 644,-525.8034 648.0084,-522.2127 640,-525.794 640,-525.794"/>
<ellipse fill="none" stroke="#000000" cx="636.8" cy="-525.7865" rx="3.2" ry="3.2"/>
</g>
<!-- Subjects -->
<g id="node16" class="node">
<title>Subjects</title>
<g id="a_node16"><a xlink:href="../../tables/Subjects.html" xlink:title="Subjects" target="_top">
<polygon fill="#ffffff" stroke="transparent" points="439.5,-317.3127 439.5,-378.3127 528.5,-378.3127 528.5,-317.3127 439.5,-317.3127"/>
<polygon fill="#f5f5f5" stroke="transparent" points="440,-354.8127 440,-377.8127 529,-377.8127 529,-354.8127 440,-354.8127"/>
<polygon fill="none" stroke="#000000" points="440,-354.8127 440,-377.8127 529,-377.8127 529,-354.8127 440,-354.8127"/>
<text text-anchor="start" x="445" y="-363.4127" font-family="Helvetica,sans-Serif" font-weight="bold" font-size="11.00" fill="#000000">Subjects</text>
<text text-anchor="start" x="494.5219" y="-362.9127" font-family="Helvetica,sans-Serif" font-size="11.00" fill="#000000">[table]</text>
<polygon fill="none" stroke="#000000" points="440,-335.8127 440,-354.8127 529,-354.8127 529,-335.8127 440,-335.8127"/>
<text text-anchor="start" x="443" y="-341.9127" font-family="Helvetica,sans-Serif" font-size="11.00" fill="#000000">...</text>
<polygon fill="#ffffff" stroke="transparent" points="440,-316.8127 440,-335.8127 465,-335.8127 465,-316.8127 440,-316.8127"/>
<polygon fill="none" stroke="#000000" points="440,-316.8127 440,-335.8127 465,-335.8127 465,-316.8127 440,-316.8127"/>
<text text-anchor="start" x="443" y="-322.9127" font-family="Helvetica,sans-Serif" font-size="11.00" fill="#000000">&lt; 4</text>
<polygon fill="#ffffff" stroke="transparent" points="465,-316.8127 465,-335.8127 505,-335.8127 505,-316.8127 465,-316.8127"/>
<polygon fill="none" stroke="#000000" points="465,-316.8127 465,-335.8127 505,-335.8127 505,-316.8127 465,-316.8127"/>
<text text-anchor="start" x="469.6105" y="-322.9127" font-family="Helvetica,sans-Serif" font-size="11.00" fill="#000000">0 rows</text>
<polygon fill="#ffffff" stroke="transparent" points="505,-316.8127 505,-335.8127 529,-335.8127 529,-316.8127 505,-316.8127"/>
<polygon fill="none" stroke="#000000" points="505,-316.8127 505,-335.8127 529,-335.8127 529,-316.8127 505,-316.8127"/>
<text text-anchor="start" x="510.4053" y="-322.9127" font-family="Helvetica,sans-Serif" font-size="11.00" fill="#000000">3 &gt;</text>
</a>
</g>
</g>
<!-- ProfessorCompetencyAssignments&#45;&gt;Subjects -->
<g id="edge25" class="edge">
<title>ProfessorCompetencyAssignments:w&#45;&gt;Subjects:e</title>
<path fill="none" stroke="#000000" d="M633.6037,-523.6936C596.3078,-510.3534 641.329,-437.1288 607,-392.8127 582.0726,-360.6333 569.7049,-344.8127 529,-344.8127"/>
<polygon fill="#000000" stroke="#000000" points="640.0853,-524.6476 647.4757,-529.3743 644.0426,-525.2302 648,-525.8127 648,-525.8127 648,-525.8127 644.0426,-525.2302 648.5243,-522.2511 640.0853,-524.6476 640.0853,-524.6476"/>
<ellipse fill="none" stroke="#000000" cx="636.9194" cy="-524.1816" rx="3.2" ry="3.2"/>
</g>
<!-- Professors&#45;&gt;AspNetUsers -->
<g id="edge28" class="edge">
<title>Professors:w&#45;&gt;AspNetUsers:e</title>
<path fill="none" stroke="#000000" d="M185.0734,-485.442C150.1167,-489.6182 117.9468,-513.8215 95.722,-535.24"/>
<polygon fill="#000000" stroke="#000000" points="194.4604,-480.8682 194.9425,-488.8537 193.3454,-488.9501 192.8633,-480.9646 194.4604,-480.8682"/>
<polyline fill="none" stroke="#000000" points="195.5,-484.8127 191.5073,-485.0537 "/>
<ellipse fill="none" stroke="#000000" cx="188.3131" cy="-485.2466" rx="3.2" ry="3.2"/>
</g>
<!-- Subjects&#45;&gt;AspNetUsers -->
<g id="edge48" class="edge">
<title>Subjects:w&#45;&gt;AspNetUsers:e</title>
<path fill="none" stroke="#000000" d="M425.5114,-343.8931C312.3564,-335.0366 260.8958,-292.0582 163,-358.8127 103.5199,-399.3718 79.0405,-486.2862 69.8871,-535.0245"/>
<polygon fill="#000000" stroke="#000000" points="432.0161,-344.3059 439.7719,-348.4055 436.008,-344.5593 440,-344.8127 440,-344.8127 440,-344.8127 436.008,-344.5593 440.2281,-341.22 432.0161,-344.3059 432.0161,-344.3059"/>
<ellipse fill="none" stroke="#000000" cx="428.8225" cy="-344.1032" rx="3.2" ry="3.2"/>
</g>
<!-- Subjects&#45;&gt;AspNetUsers -->
<g id="edge51" class="edge">
<title>Subjects:w&#45;&gt;AspNetUsers:e</title>
<path fill="none" stroke="#000000" d="M425.5114,-345.3929C312.3564,-348.0366 260.8958,-305.0582 163,-371.8127 106.9421,-410.0383 81.9732,-489.4385 71.6229,-535.3063"/>
<polygon fill="#000000" stroke="#000000" points="432.0064,-345.1329 440.1441,-348.4098 436.0032,-344.9728 440,-344.8127 440,-344.8127 440,-344.8127 436.0032,-344.9728 439.8559,-341.2156 432.0064,-345.1329 432.0064,-345.1329"/>
<ellipse fill="none" stroke="#000000" cx="428.809" cy="-345.2609" rx="3.2" ry="3.2"/>
</g>
<!-- Subjects&#45;&gt;TechnicalCareers -->
<g id="edge50" class="edge">
<title>Subjects:w&#45;&gt;TechnicalCareers:e</title>
<path fill="none" stroke="#000000" d="M425.3546,-346.0005C390.8255,-352.1109 383.3447,-381.1033 361,-416.8127 333.4732,-460.8038 361.3535,-489.0574 328,-528.8127 326.1496,-531.0183 324.1516,-533.1163 322.0358,-535.1112"/>
<polygon fill="#000000" stroke="#000000" points="432.0262,-345.4595 440.291,-348.4009 436.0131,-345.1361 440,-344.8127 440,-344.8127 440,-344.8127 436.0131,-345.1361 439.709,-341.2245 432.0262,-345.4595 432.0262,-345.4595"/>
<ellipse fill="none" stroke="#000000" cx="428.8367" cy="-345.7182" rx="3.2" ry="3.2"/>
</g>
<!-- Subjects&#45;&gt;Professors -->
<g id="edge49" class="edge">
<title>Subjects:w&#45;&gt;Professors:e</title>
<path fill="none" stroke="#000000" d="M425.6525,-346.24C392.5784,-353.5203 391.0814,-387.3245 361,-416.8127 331.2534,-445.9727 338.1553,-484.8127 296.5,-484.8127"/>
<polygon fill="#000000" stroke="#000000" points="432.0393,-345.6047 440.3564,-348.395 436.0196,-345.2087 440,-344.8127 440,-344.8127 440,-344.8127 436.0196,-345.2087 439.6436,-341.2304 432.0393,-345.6047 432.0393,-345.6047"/>
<ellipse fill="none" stroke="#000000" cx="428.855" cy="-345.9215" rx="3.2" ry="3.2"/>
</g>
<!-- QuestionResponses -->
<g id="node17" class="node">
<title>QuestionResponses</title>
<g id="a_node17"><a xlink:href="../../tables/QuestionResponses.html" xlink:title="QuestionResponses" target="_top">
<polygon fill="#ffffff" stroke="transparent" points="1211,-109.3127 1211,-170.3127 1366,-170.3127 1366,-109.3127 1211,-109.3127"/>
<polygon fill="#f5f5f5" stroke="transparent" points="1211.5,-146.8127 1211.5,-169.8127 1366.5,-169.8127 1366.5,-146.8127 1211.5,-146.8127"/>
<polygon fill="none" stroke="#000000" points="1211.5,-146.8127 1211.5,-169.8127 1366.5,-169.8127 1366.5,-146.8127 1211.5,-146.8127"/>
<text text-anchor="start" x="1216.5" y="-155.4127" font-family="Helvetica,sans-Serif" font-weight="bold" font-size="11.00" fill="#000000">QuestionResponses</text>
<text text-anchor="start" x="1332.0219" y="-154.9127" font-family="Helvetica,sans-Serif" font-size="11.00" fill="#000000">[table]</text>
<polygon fill="none" stroke="#000000" points="1211.5,-127.8127 1211.5,-146.8127 1366.5,-146.8127 1366.5,-127.8127 1211.5,-127.8127"/>
<text text-anchor="start" x="1214.5" y="-133.9127" font-family="Helvetica,sans-Serif" font-size="11.00" fill="#000000">...</text>
<polygon fill="#ffffff" stroke="transparent" points="1211.5,-108.8127 1211.5,-127.8127 1274.5,-127.8127 1274.5,-108.8127 1211.5,-108.8127"/>
<polygon fill="none" stroke="#000000" points="1211.5,-108.8127 1211.5,-127.8127 1274.5,-127.8127 1274.5,-108.8127 1211.5,-108.8127"/>
<text text-anchor="start" x="1214.5" y="-114.9127" font-family="Helvetica,sans-Serif" font-size="11.00" fill="#000000">&lt; 4</text>
<polygon fill="#ffffff" stroke="transparent" points="1274.5,-108.8127 1274.5,-127.8127 1333.5,-127.8127 1333.5,-108.8127 1274.5,-108.8127"/>
<polygon fill="none" stroke="#000000" points="1274.5,-108.8127 1274.5,-127.8127 1333.5,-127.8127 1333.5,-108.8127 1274.5,-108.8127"/>
<text text-anchor="start" x="1298.1105" y="-114.9127" font-family="Helvetica,sans-Serif" font-size="11.00" fill="#000000">0 rows</text>
<polygon fill="#ffffff" stroke="transparent" points="1333.5,-108.8127 1333.5,-127.8127 1366.5,-127.8127 1366.5,-108.8127 1333.5,-108.8127"/>
<polygon fill="none" stroke="#000000" points="1333.5,-108.8127 1333.5,-127.8127 1366.5,-127.8127 1366.5,-108.8127 1333.5,-108.8127"/>
<text text-anchor="start" x="1357.3862" y="-114.9127" font-family="Helvetica,sans-Serif" font-size="11.00" fill="#000000"> &#160;</text>
</a>
</g>
</g>
<!-- QuestionResponses&#45;&gt;AspNetUsers -->
<g id="edge29" class="edge">
<title>QuestionResponses:w&#45;&gt;AspNetUsers:e</title>
<path fill="none" stroke="#000000" d="M1196.8729,-136.2347C1009.6267,-127.0255 963.6509,-53.8127 769,-53.8127 769,-53.8127 769,-53.8127 484,-53.8127 340.4878,-53.8127 269.1754,7.7405 163,-88.8127 96.9665,-148.8619 73.0935,-435.2053 66.8378,-535.2695"/>
<polygon fill="#000000" stroke="#000000" points="1203.5062,-136.4968 1211.3578,-140.4099 1207.5031,-136.6547 1211.5,-136.8127 1211.5,-136.8127 1211.5,-136.8127 1207.5031,-136.6547 1211.6422,-133.2155 1203.5062,-136.4968 1203.5062,-136.4968"/>
<ellipse fill="none" stroke="#000000" cx="1200.3087" cy="-136.3704" rx="3.2" ry="3.2"/>
</g>
<!-- QuestionResponses&#45;&gt;AspNetUsers -->
<g id="edge32" class="edge">
<title>QuestionResponses:w&#45;&gt;AspNetUsers:e</title>
<path fill="none" stroke="#000000" d="M1196.8729,-137.1819C1009.6267,-140.0255 963.6509,-66.8127 769,-66.8127 769,-66.8127 769,-66.8127 484,-66.8127 340.4878,-66.8127 269.1754,-5.2595 163,-101.8127 98.2903,-160.658 74.0676,-436.8155 67.2355,-535.0825"/>
<polygon fill="#000000" stroke="#000000" points="1203.5025,-137.0146 1211.5909,-140.4116 1207.5013,-136.9137 1211.5,-136.8127 1211.5,-136.8127 1211.5,-136.8127 1207.5013,-136.9137 1211.4091,-133.2139 1203.5025,-137.0146 1203.5025,-137.0146"/>
<ellipse fill="none" stroke="#000000" cx="1200.3036" cy="-137.0954" rx="3.2" ry="3.2"/>
</g>
<!-- QuestionResponses&#45;&gt;FormQuestions -->
<g id="edge30" class="edge">
<title>QuestionResponses:w&#45;&gt;FormQuestions:e</title>
<path fill="none" stroke="#000000" d="M1197.2413,-139.6422C1175.624,-150.4418 1188.8055,-189.9601 1170,-219.8127 959.9394,-553.2713 942.1067,-851.8127 548,-851.8127"/>
<polygon fill="#000000" stroke="#000000" points="1203.653,-138.3699 1212.2007,-140.3439 1207.5765,-137.5913 1211.5,-136.8127 1211.5,-136.8127 1211.5,-136.8127 1207.5765,-137.5913 1210.7993,-133.2816 1203.653,-138.3699 1203.653,-138.3699"/>
<ellipse fill="none" stroke="#000000" cx="1200.5142" cy="-138.9928" rx="3.2" ry="3.2"/>
</g>
<!-- StudentCompetencyEvaluations -->
<g id="node18" class="node">
<title>StudentCompetencyEvaluations</title>
<g id="a_node18"><a xlink:href="../../tables/StudentCompetencyEvaluations.html" xlink:title="StudentCompetencyEvaluations" target="_top">
<polygon fill="#ffffff" stroke="transparent" points="939,-148.3127 939,-209.3127 1162,-209.3127 1162,-148.3127 939,-148.3127"/>
<polygon fill="#f5f5f5" stroke="transparent" points="939.5,-185.8127 939.5,-208.8127 1162.5,-208.8127 1162.5,-185.8127 939.5,-185.8127"/>
<polygon fill="none" stroke="#000000" points="939.5,-185.8127 939.5,-208.8127 1162.5,-208.8127 1162.5,-185.8127 939.5,-185.8127"/>
<text text-anchor="start" x="944.5" y="-194.4127" font-family="Helvetica,sans-Serif" font-weight="bold" font-size="11.00" fill="#000000">StudentCompetencyEvaluations</text>
<text text-anchor="start" x="1128.0219" y="-193.9127" font-family="Helvetica,sans-Serif" font-size="11.00" fill="#000000">[table]</text>
<polygon fill="none" stroke="#000000" points="939.5,-166.8127 939.5,-185.8127 1162.5,-185.8127 1162.5,-166.8127 939.5,-166.8127"/>
<text text-anchor="start" x="942.5" y="-172.9127" font-family="Helvetica,sans-Serif" font-size="11.00" fill="#000000">...</text>
<polygon fill="#ffffff" stroke="transparent" points="939.5,-147.8127 939.5,-166.8127 1031.5,-166.8127 1031.5,-147.8127 939.5,-147.8127"/>
<polygon fill="none" stroke="#000000" points="939.5,-147.8127 939.5,-166.8127 1031.5,-166.8127 1031.5,-147.8127 939.5,-147.8127"/>
<text text-anchor="start" x="942.5" y="-153.9127" font-family="Helvetica,sans-Serif" font-size="11.00" fill="#000000">&lt; 5</text>
<polygon fill="#ffffff" stroke="transparent" points="1031.5,-147.8127 1031.5,-166.8127 1105.5,-166.8127 1105.5,-147.8127 1031.5,-147.8127"/>
<polygon fill="none" stroke="#000000" points="1031.5,-147.8127 1031.5,-166.8127 1105.5,-166.8127 1105.5,-147.8127 1031.5,-147.8127"/>
<text text-anchor="start" x="1070.1105" y="-153.9127" font-family="Helvetica,sans-Serif" font-size="11.00" fill="#000000">0 rows</text>
<polygon fill="#ffffff" stroke="transparent" points="1105.5,-147.8127 1105.5,-166.8127 1162.5,-166.8127 1162.5,-147.8127 1105.5,-147.8127"/>
<polygon fill="none" stroke="#000000" points="1105.5,-147.8127 1105.5,-166.8127 1162.5,-166.8127 1162.5,-147.8127 1105.5,-147.8127"/>
<text text-anchor="start" x="1143.9053" y="-153.9127" font-family="Helvetica,sans-Serif" font-size="11.00" fill="#000000">1 &gt;</text>
</a>
</g>
</g>
<!-- QuestionResponses&#45;&gt;StudentCompetencyEvaluations -->
<g id="edge31" class="edge">
<title>QuestionResponses:w&#45;&gt;StudentCompetencyEvaluations:e</title>
<path fill="none" stroke="#000000" d="M1197.4646,-141.5949C1184.9324,-152.009 1184.2451,-175.8127 1162.5,-175.8127"/>
<polygon fill="#000000" stroke="#000000" points="1203.9275,-139.3929 1212.6611,-140.2204 1207.7137,-138.1028 1211.5,-136.8127 1211.5,-136.8127 1211.5,-136.8127 1207.7137,-138.1028 1210.3389,-133.4051 1203.9275,-139.3929 1203.9275,-139.3929"/>
<ellipse fill="none" stroke="#000000" cx="1200.8985" cy="-140.4249" rx="3.2" ry="3.2"/>
</g>
<!-- StudentCompetencyEvaluations&#45;&gt;AspNetUsers -->
<g id="edge33" class="edge">
<title>StudentCompetencyEvaluations:w&#45;&gt;AspNetUsers:e</title>
<path fill="none" stroke="#000000" d="M926.427,-168.9886C913.2189,-154.772 920.6916,-124.3604 898,-112.8127 791.1389,-58.4315 244.0134,-66.2166 163,-133.8127 101.3439,-185.2575 74.9334,-441.065 67.403,-535.1166"/>
<polygon fill="#000000" stroke="#000000" points="932.4081,-172.1107 937.8341,-179.0041 935.954,-173.9617 939.5,-175.8127 939.5,-175.8127 939.5,-175.8127 935.954,-173.9617 941.1659,-172.6213 932.4081,-172.1107 932.4081,-172.1107"/>
<ellipse fill="none" stroke="#000000" cx="929.5713" cy="-170.6299" rx="3.2" ry="3.2"/>
</g>
<!-- StudentCompetencyEvaluations&#45;&gt;AspNetUsers -->
<g id="edge37" class="edge">
<title>StudentCompetencyEvaluations:w&#45;&gt;AspNetUsers:e</title>
<path fill="none" stroke="#000000" d="M924.9919,-174.0795C913.7491,-165.4606 919.8188,-136.9162 898,-125.8127 791.1389,-71.4315 244.0134,-79.2166 163,-146.8127 102.6667,-197.1538 76.0828,-443.1829 67.9139,-535.1435"/>
<polygon fill="#000000" stroke="#000000" points="931.5565,-174.8637 939.0729,-179.3873 935.5282,-175.3382 939.5,-175.8127 939.5,-175.8127 939.5,-175.8127 935.5282,-175.3382 939.9271,-172.2381 931.5565,-174.8637 931.5565,-174.8637"/>
<ellipse fill="none" stroke="#000000" cx="928.3791" cy="-174.4841" rx="3.2" ry="3.2"/>
</g>
<!-- StudentCompetencyEvaluations&#45;&gt;ProfessorCompetencyAssignments -->
<g id="edge34" class="edge">
<title>StudentCompetencyEvaluations:w&#45;&gt;ProfessorCompetencyAssignments:e</title>
<path fill="none" stroke="#000000" d="M925.8815,-180.4958C874.7897,-222.0287 963.182,-525.8127 890,-525.8127"/>
<polygon fill="#000000" stroke="#000000" points="931.9348,-178.4142 940.6707,-179.2171 935.7174,-177.1135 939.5,-175.8127 939.5,-175.8127 939.5,-175.8127 935.7174,-177.1135 938.3293,-172.4084 931.9348,-178.4142 931.9348,-178.4142"/>
<ellipse fill="none" stroke="#000000" cx="928.9087" cy="-179.4548" rx="3.2" ry="3.2"/>
</g>
<!-- StudentCompetencyEvaluations&#45;&gt;Subjects -->
<g id="edge36" class="edge">
<title>StudentCompetencyEvaluations:w&#45;&gt;Subjects:e</title>
<path fill="none" stroke="#000000" d="M925.139,-178.2041C888.8092,-193.2135 942.1537,-274.945 898,-310.8127 770.1681,-414.6556 693.6947,-344.8127 529,-344.8127"/>
<polygon fill="#000000" stroke="#000000" points="931.6087,-177.1268 940.0913,-179.3638 935.5543,-176.4698 939.5,-175.8127 939.5,-175.8127 939.5,-175.8127 935.5543,-176.4698 938.9087,-172.2616 931.6087,-177.1268 931.6087,-177.1268"/>
<ellipse fill="none" stroke="#000000" cx="928.4521" cy="-177.6525" rx="3.2" ry="3.2"/>
</g>
<!-- Students -->
<g id="node19" class="node">
<title>Students</title>
<g id="a_node19"><a xlink:href="../../tables/Students.html" xlink:title="Students" target="_top">
<polygon fill="#ffffff" stroke="transparent" points="439,-168.3127 439,-229.3127 529,-229.3127 529,-168.3127 439,-168.3127"/>
<polygon fill="#f5f5f5" stroke="transparent" points="439,-205.8127 439,-228.8127 529,-228.8127 529,-205.8127 439,-205.8127"/>
<polygon fill="none" stroke="#000000" points="439,-205.8127 439,-228.8127 529,-228.8127 529,-205.8127 439,-205.8127"/>
<text text-anchor="start" x="444" y="-214.4127" font-family="Helvetica,sans-Serif" font-weight="bold" font-size="11.00" fill="#000000">Students</text>
<text text-anchor="start" x="494.5219" y="-213.9127" font-family="Helvetica,sans-Serif" font-size="11.00" fill="#000000">[table]</text>
<polygon fill="none" stroke="#000000" points="439,-186.8127 439,-205.8127 529,-205.8127 529,-186.8127 439,-186.8127"/>
<text text-anchor="start" x="442" y="-192.9127" font-family="Helvetica,sans-Serif" font-size="11.00" fill="#000000">...</text>
<polygon fill="#ffffff" stroke="transparent" points="439,-167.8127 439,-186.8127 465,-186.8127 465,-167.8127 439,-167.8127"/>
<polygon fill="none" stroke="#000000" points="439,-167.8127 439,-186.8127 465,-186.8127 465,-167.8127 439,-167.8127"/>
<text text-anchor="start" x="442" y="-173.9127" font-family="Helvetica,sans-Serif" font-size="11.00" fill="#000000">&lt; 2</text>
<polygon fill="#ffffff" stroke="transparent" points="465,-167.8127 465,-186.8127 505,-186.8127 505,-167.8127 465,-167.8127"/>
<polygon fill="none" stroke="#000000" points="465,-167.8127 465,-186.8127 505,-186.8127 505,-167.8127 465,-167.8127"/>
<text text-anchor="start" x="469.6105" y="-173.9127" font-family="Helvetica,sans-Serif" font-size="11.00" fill="#000000">0 rows</text>
<polygon fill="#ffffff" stroke="transparent" points="505,-167.8127 505,-186.8127 529,-186.8127 529,-167.8127 505,-167.8127"/>
<polygon fill="none" stroke="#000000" points="505,-167.8127 505,-186.8127 529,-186.8127 529,-167.8127 505,-167.8127"/>
<text text-anchor="start" x="510.4053" y="-173.9127" font-family="Helvetica,sans-Serif" font-size="11.00" fill="#000000">3 &gt;</text>
</a>
</g>
</g>
<!-- StudentCompetencyEvaluations&#45;&gt;Students -->
<g id="edge35" class="edge">
<title>StudentCompetencyEvaluations:w&#45;&gt;Students:e</title>
<path fill="none" stroke="#000000" d="M925.3612,-179.8442C916.6191,-185.807 912.7493,-196.7134 898,-200.8127 739.975,-244.7337 693.0151,-195.8127 529,-195.8127"/>
<polygon fill="#000000" stroke="#000000" points="931.8066,-178.0064 940.4872,-179.2747 935.6533,-176.9096 939.5,-175.8127 939.5,-175.8127 939.5,-175.8127 935.6533,-176.9096 938.5128,-172.3507 931.8066,-178.0064 931.8066,-178.0064"/>
<ellipse fill="none" stroke="#000000" cx="928.7293" cy="-178.8839" rx="3.2" ry="3.2"/>
</g>
<!-- Students&#45;&gt;AspNetUsers -->
<g id="edge43" class="edge">
<title>Students:w&#45;&gt;AspNetUsers:e</title>
<path fill="none" stroke="#000000" d="M428.5786,-195.7329C311.1599,-193.9464 253.516,-163.5416 163,-243.8127 118.8385,-282.9759 83.9281,-459.5006 70.7187,-535.1841"/>
<polygon fill="#000000" stroke="#000000" points="438.2307,-191.8067 438.1693,-199.8065 436.5694,-199.7942 436.6307,-191.7944 438.2307,-191.8067"/>
<polyline fill="none" stroke="#000000" points="439,-195.8127 435.0001,-195.782 "/>
<ellipse fill="none" stroke="#000000" cx="431.8002" cy="-195.7575" rx="3.2" ry="3.2"/>
</g>
<!-- Students&#45;&gt;TechnicalCareers -->
<g id="edge42" class="edge">
<title>Students:w&#45;&gt;TechnicalCareers:e</title>
<path fill="none" stroke="#000000" d="M424.4757,-197.4759C322.3494,-221.8225 344.8545,-505.6268 328,-528.8127 326.4013,-531.012 324.651,-533.1001 322.7765,-535.0819"/>
<polygon fill="#000000" stroke="#000000" points="431.0519,-196.7229 439.4096,-199.3893 435.026,-196.2678 439,-195.8127 439,-195.8127 439,-195.8127 435.026,-196.2678 438.5904,-192.2361 431.0519,-196.7229 431.0519,-196.7229"/>
<ellipse fill="none" stroke="#000000" cx="427.8727" cy="-197.087" rx="3.2" ry="3.2"/>
</g>
<!-- StudentEvaluationReport -->
<g id="node20" class="node">
<title>StudentEvaluationReport</title>
<g id="a_node20"><a xlink:href="../../tables/StudentEvaluationReport.html" xlink:title="StudentEvaluationReport" target="_top">
<polygon fill="#ffffff" stroke="transparent" points="677.5,-239.3127 677.5,-300.3127 860.5,-300.3127 860.5,-239.3127 677.5,-239.3127"/>
<polygon fill="#f5f5f5" stroke="transparent" points="678,-276.8127 678,-299.8127 861,-299.8127 861,-276.8127 678,-276.8127"/>
<polygon fill="none" stroke="#000000" points="678,-276.8127 678,-299.8127 861,-299.8127 861,-276.8127 678,-276.8127"/>
<text text-anchor="start" x="683" y="-285.4127" font-family="Helvetica,sans-Serif" font-weight="bold" font-size="11.00" fill="#000000">StudentEvaluationReport</text>
<text text-anchor="start" x="826.5219" y="-284.9127" font-family="Helvetica,sans-Serif" font-size="11.00" fill="#000000">[table]</text>
<polygon fill="none" stroke="#000000" points="678,-257.8127 678,-276.8127 861,-276.8127 861,-257.8127 678,-257.8127"/>
<text text-anchor="start" x="681" y="-263.9127" font-family="Helvetica,sans-Serif" font-size="11.00" fill="#000000">...</text>
<polygon fill="#ffffff" stroke="transparent" points="678,-238.8127 678,-257.8127 755,-257.8127 755,-238.8127 678,-238.8127"/>
<polygon fill="none" stroke="#000000" points="678,-238.8127 678,-257.8127 755,-257.8127 755,-238.8127 678,-238.8127"/>
<text text-anchor="start" x="681" y="-244.9127" font-family="Helvetica,sans-Serif" font-size="11.00" fill="#000000">&lt; 4</text>
<polygon fill="#ffffff" stroke="transparent" points="755,-238.8127 755,-257.8127 821,-257.8127 821,-238.8127 755,-238.8127"/>
<polygon fill="none" stroke="#000000" points="755,-238.8127 755,-257.8127 821,-257.8127 821,-238.8127 755,-238.8127"/>
<text text-anchor="start" x="785.6105" y="-244.9127" font-family="Helvetica,sans-Serif" font-size="11.00" fill="#000000">0 rows</text>
<polygon fill="#ffffff" stroke="transparent" points="821,-238.8127 821,-257.8127 861,-257.8127 861,-238.8127 821,-238.8127"/>
<polygon fill="none" stroke="#000000" points="821,-238.8127 821,-257.8127 861,-257.8127 861,-238.8127 821,-238.8127"/>
<text text-anchor="start" x="851.8862" y="-244.9127" font-family="Helvetica,sans-Serif" font-size="11.00" fill="#000000"> &#160;</text>
</a>
</g>
</g>
<!-- StudentEvaluationReport&#45;&gt;AspNetUsers -->
<g id="edge38" class="edge">
<title>StudentEvaluationReport:w&#45;&gt;AspNetUsers:e</title>
<path fill="none" stroke="#000000" d="M663.243,-266.0438C538.1456,-259.5662 246.5485,-246.4081 163,-318.8127 98.0876,-375.067 75.6904,-480.3458 68.352,-535.0161"/>
<polygon fill="#000000" stroke="#000000" points="670.0108,-266.3964 677.8126,-270.4078 674.0054,-266.6045 678,-266.8127 678,-266.8127 678,-266.8127 674.0054,-266.6045 678.1874,-263.2176 670.0108,-266.3964 670.0108,-266.3964"/>
<ellipse fill="none" stroke="#000000" cx="666.8152" cy="-266.2298" rx="3.2" ry="3.2"/>
</g>
<!-- StudentEvaluationReport&#45;&gt;AspNetUsers -->
<g id="edge41" class="edge">
<title>StudentEvaluationReport:w&#45;&gt;AspNetUsers:e</title>
<path fill="none" stroke="#000000" d="M663.243,-267.5436C538.1456,-272.5662 246.5485,-259.4081 163,-331.8127 101.3765,-385.2167 78.0692,-482.8034 69.587,-534.9594"/>
<polygon fill="#000000" stroke="#000000" points="670.0098,-267.2085 678.1781,-270.4083 674.0049,-267.0106 678,-266.8127 678,-266.8127 678,-266.8127 674.0049,-267.0106 677.8219,-263.2171 670.0098,-267.2085 670.0098,-267.2085"/>
<ellipse fill="none" stroke="#000000" cx="666.8137" cy="-267.3668" rx="3.2" ry="3.2"/>
</g>
<!-- StudentEvaluationReport&#45;&gt;EvaluationPeriods -->
<g id="edge39" class="edge">
<title>StudentEvaluationReport:w&#45;&gt;EvaluationPeriods:e</title>
<path fill="none" stroke="#000000" d="M663.4971,-267.2262C642.8607,-268.5052 633.1332,-272.5098 607,-275.8127 552.3359,-282.7216 405.3472,-274.1137 361,-306.8127 323.2982,-334.6119 364.3425,-402.8127 317.5,-402.8127"/>
<polygon fill="#000000" stroke="#000000" points="670.0032,-267.0408 678.1026,-270.4113 674.0016,-266.9267 678,-266.8127 678,-266.8127 678,-266.8127 674.0016,-266.9267 677.8974,-263.2142 670.0032,-267.0408 670.0032,-267.0408"/>
<ellipse fill="none" stroke="#000000" cx="666.8045" cy="-267.132" rx="3.2" ry="3.2"/>
</g>
<!-- StudentEvaluationReport&#45;&gt;Students -->
<g id="edge40" class="edge">
<title>StudentEvaluationReport:w&#45;&gt;Students:e</title>
<path fill="none" stroke="#000000" d="M663.5311,-265.809C603.9707,-257.1794 597.1984,-195.8127 529,-195.8127"/>
<polygon fill="#000000" stroke="#000000" points="670.0192,-266.2591 677.7509,-270.4041 674.0096,-266.5359 678,-266.8127 678,-266.8127 678,-266.8127 674.0096,-266.5359 678.2491,-263.2213 670.0192,-266.2591 670.0192,-266.2591"/>
<ellipse fill="none" stroke="#000000" cx="666.8268" cy="-266.0376" rx="3.2" ry="3.2"/>
</g>
<!-- StudentSubjects -->
<g id="node21" class="node">
<title>StudentSubjects</title>
<g id="a_node21"><a xlink:href="../../tables/StudentSubjects.html" xlink:title="StudentSubjects" target="_top">
<polygon fill="#ffffff" stroke="transparent" points="702.5,-129.3127 702.5,-190.3127 835.5,-190.3127 835.5,-129.3127 702.5,-129.3127"/>
<polygon fill="#f5f5f5" stroke="transparent" points="703,-166.8127 703,-189.8127 836,-189.8127 836,-166.8127 703,-166.8127"/>
<polygon fill="none" stroke="#000000" points="703,-166.8127 703,-189.8127 836,-189.8127 836,-166.8127 703,-166.8127"/>
<text text-anchor="start" x="708" y="-175.4127" font-family="Helvetica,sans-Serif" font-weight="bold" font-size="11.00" fill="#000000">StudentSubjects</text>
<text text-anchor="start" x="801.5219" y="-174.9127" font-family="Helvetica,sans-Serif" font-size="11.00" fill="#000000">[table]</text>
<polygon fill="none" stroke="#000000" points="703,-147.8127 703,-166.8127 836,-166.8127 836,-147.8127 703,-147.8127"/>
<text text-anchor="start" x="706" y="-153.9127" font-family="Helvetica,sans-Serif" font-size="11.00" fill="#000000">...</text>
<polygon fill="#ffffff" stroke="transparent" points="703,-128.8127 703,-147.8127 755,-147.8127 755,-128.8127 703,-128.8127"/>
<polygon fill="none" stroke="#000000" points="703,-128.8127 703,-147.8127 755,-147.8127 755,-128.8127 703,-128.8127"/>
<text text-anchor="start" x="706" y="-134.9127" font-family="Helvetica,sans-Serif" font-size="11.00" fill="#000000">&lt; 4</text>
<polygon fill="#ffffff" stroke="transparent" points="755,-128.8127 755,-147.8127 808,-147.8127 808,-128.8127 755,-128.8127"/>
<polygon fill="none" stroke="#000000" points="755,-128.8127 755,-147.8127 808,-147.8127 808,-128.8127 755,-128.8127"/>
<text text-anchor="start" x="772.6105" y="-134.9127" font-family="Helvetica,sans-Serif" font-size="11.00" fill="#000000">0 rows</text>
<polygon fill="#ffffff" stroke="transparent" points="808,-128.8127 808,-147.8127 836,-147.8127 836,-128.8127 808,-128.8127"/>
<polygon fill="none" stroke="#000000" points="808,-128.8127 808,-147.8127 836,-147.8127 836,-128.8127 808,-128.8127"/>
<text text-anchor="start" x="826.8862" y="-134.9127" font-family="Helvetica,sans-Serif" font-size="11.00" fill="#000000"> &#160;</text>
</a>
</g>
</g>
<!-- StudentSubjects&#45;&gt;AspNetUsers -->
<g id="edge44" class="edge">
<title>StudentSubjects:w&#45;&gt;AspNetUsers:e</title>
<path fill="none" stroke="#000000" d="M688.3797,-155.9402C558.0143,-147.1031 249.085,-102.6648 163,-179.8127 110.0324,-227.2814 78.6998,-448.5393 68.6045,-535.0755"/>
<polygon fill="#000000" stroke="#000000" points="695.0142,-156.3361 702.7855,-160.4063 699.0071,-156.5744 703,-156.8127 703,-156.8127 703,-156.8127 699.0071,-156.5744 703.2145,-153.2191 695.0142,-156.3361 695.0142,-156.3361"/>
<ellipse fill="none" stroke="#000000" cx="691.8199" cy="-156.1455" rx="3.2" ry="3.2"/>
</g>
<!-- StudentSubjects&#45;&gt;AspNetUsers -->
<g id="edge47" class="edge">
<title>StudentSubjects:w&#45;&gt;AspNetUsers:e</title>
<path fill="none" stroke="#000000" d="M688.3797,-157.3697C558.0143,-160.1031 249.085,-115.6648 163,-192.8127 111.3133,-239.1334 80.2279,-450.9393 69.3742,-535.2021"/>
<polygon fill="#000000" stroke="#000000" points="695.0058,-157.1173 703.1371,-160.4101 699.0029,-156.965 703,-156.8127 703,-156.8127 703,-156.8127 699.0029,-156.965 702.8629,-153.2153 695.0058,-157.1173 695.0058,-157.1173"/>
<ellipse fill="none" stroke="#000000" cx="691.8081" cy="-157.2392" rx="3.2" ry="3.2"/>
</g>
<!-- StudentSubjects&#45;&gt;Subjects -->
<g id="edge46" class="edge">
<title>StudentSubjects:w&#45;&gt;Subjects:e</title>
<path fill="none" stroke="#000000" d="M688.6408,-157.9168C593.6359,-173.324 637.7363,-344.8127 529,-344.8127"/>
<polygon fill="#000000" stroke="#000000" points="695.0235,-157.4261 703.276,-160.4021 699.0118,-157.1194 703,-156.8127 703,-156.8127 703,-156.8127 699.0118,-157.1194 702.724,-153.2233 695.0235,-157.4261 695.0235,-157.4261"/>
<ellipse fill="none" stroke="#000000" cx="691.833" cy="-157.6714" rx="3.2" ry="3.2"/>
</g>
<!-- StudentSubjects&#45;&gt;Students -->
<g id="edge45" class="edge">
<title>StudentSubjects:w&#45;&gt;Students:e</title>
<path fill="none" stroke="#000000" d="M688.4363,-157.2779C621.4856,-161.678 603.144,-195.8127 529,-195.8127"/>
<polygon fill="#000000" stroke="#000000" points="695.0041,-157.0682 703.1149,-160.4109 699.002,-156.9404 703,-156.8127 703,-156.8127 703,-156.8127 699.002,-156.9404 702.8851,-153.2146 695.0041,-157.0682 695.0041,-157.0682"/>
<ellipse fill="none" stroke="#000000" cx="691.8057" cy="-157.1703" rx="3.2" ry="3.2"/>
</g>
</g>
</svg>
