<?xml version="1.0" encoding="UTF-8" standalone="no"?>
<!DOCTYPE svg PUBLIC "-//W3C//DTD SVG 1.1//EN"
 "http://www.w3.org/Graphics/SVG/1.1/DTD/svg11.dtd">
<!-- Generated by graphviz version 2.40.1 (20161225.0304)
 -->
<!-- Title: oneDegreeRelationshipsDiagram Pages: 1 -->
<svg width="647pt" height="241pt"
 viewBox="0.00 0.00 647.00 240.70" xmlns="http://www.w3.org/2000/svg" xmlns:xlink="http://www.w3.org/1999/xlink">
<g id="graph0" class="graph" transform="scale(1 1) rotate(0) translate(4 236.7)">
<title>oneDegreeRelationshipsDiagram</title>
<polygon fill="#ffffff" stroke="transparent" points="-4,4 -4,-236.7 643,-236.7 643,4 -4,4"/>
<text text-anchor="middle" x="72.4936" y="-7.3" font-family="Helvetica,sans-Serif" font-size="11.00" fill="#000000">Generated by SchemaSpy</text>
<!-- Coordinators -->
<g id="node1" class="node">
<title>Coordinators</title>
<g id="a_node1"><a xlink:href="../../tables/Coordinators.html" xlink:title="Coordinators" target="_top">
<polygon fill="#ffffff" stroke="transparent" points="408,-138.7 408,-228.7 631,-228.7 631,-138.7 408,-138.7"/>
<polygon fill="#f5f5f5" stroke="transparent" points="410.5,-203.7 410.5,-226.7 629.5,-226.7 629.5,-203.7 410.5,-203.7"/>
<polygon fill="none" stroke="#000000" points="410.5,-203.7 410.5,-226.7 629.5,-226.7 629.5,-203.7 410.5,-203.7"/>
<text text-anchor="start" x="415.5" y="-212.3" font-family="Helvetica,sans-Serif" font-weight="bold" font-size="11.00" fill="#000000">Coordinators</text>
<text text-anchor="start" x="594.5437" y="-211.8" font-family="Helvetica,sans-Serif" font-size="11.00" fill="#000000">[table]</text>
<polygon fill="none" stroke="#000000" points="410.5,-181.7 410.5,-203.7 535.5,-203.7 535.5,-181.7 410.5,-181.7"/>
<image xlink:href="../../images/primaryKeys.png" width="11px" height="12px" preserveAspectRatio="xMinYMin meet" x="415.5" y="-198.7"/>
<text text-anchor="start" x="430.5" y="-188.8" font-family="Helvetica,sans-Serif" font-size="11.00" fill="#000000">UserId</text>
<polygon fill="none" stroke="#000000" points="535.5,-181.7 535.5,-203.7 629.5,-203.7 629.5,-181.7 535.5,-181.7"/>
<text text-anchor="start" x="538.5" y="-189.4" font-family="Helvetica,sans-Serif" font-size="11.00" fill="#000000">text[2147483647]</text>
<polygon fill="#ffffff" stroke="transparent" points="410.5,-159.7 410.5,-181.7 535.5,-181.7 535.5,-159.7 410.5,-159.7"/>
<polygon fill="none" stroke="#000000" points="410.5,-159.7 410.5,-181.7 535.5,-181.7 535.5,-159.7 410.5,-159.7"/>
<image xlink:href="../../images/foreignKeys.png" width="11px" height="12px" preserveAspectRatio="xMinYMin meet" x="415.5" y="-176.7"/>
<text text-anchor="start" x="430.5" y="-166.8" font-family="Helvetica,sans-Serif" font-size="11.00" fill="#000000">TechnicalCareerId</text>
<polygon fill="none" stroke="#000000" points="535.5,-159.7 535.5,-181.7 629.5,-181.7 629.5,-159.7 535.5,-159.7"/>
<text text-anchor="start" x="538.4758" y="-167.4" font-family="Helvetica,sans-Serif" font-size="11.00" fill="#000000">uuid[2147483647]</text>
<polygon fill="#ffffff" stroke="transparent" points="410.5,-140.7 410.5,-159.7 464.5,-159.7 464.5,-140.7 410.5,-140.7"/>
<polygon fill="none" stroke="#000000" points="410.5,-140.7 410.5,-159.7 464.5,-159.7 464.5,-140.7 410.5,-140.7"/>
<text text-anchor="start" x="413.5" y="-146.8" font-family="Helvetica,sans-Serif" font-size="11.00" fill="#000000">&lt; 2</text>
<polygon fill="#ffffff" stroke="transparent" points="464.5,-140.7 464.5,-159.7 535.5,-159.7 535.5,-140.7 464.5,-140.7"/>
<polygon fill="none" stroke="#000000" points="464.5,-140.7 464.5,-159.7 535.5,-159.7 535.5,-140.7 464.5,-140.7"/>
<text text-anchor="start" x="500.1105" y="-146.8" font-family="Helvetica,sans-Serif" font-size="11.00" fill="#000000">0 rows</text>
<polygon fill="#ffffff" stroke="transparent" points="535.5,-140.7 535.5,-159.7 629.5,-159.7 629.5,-140.7 535.5,-140.7"/>
<polygon fill="none" stroke="#000000" points="535.5,-140.7 535.5,-159.7 629.5,-159.7 629.5,-140.7 535.5,-140.7"/>
<text text-anchor="start" x="610.9053" y="-146.8" font-family="Helvetica,sans-Serif" font-size="11.00" fill="#000000">0 &gt;</text>
<polygon fill="none" stroke="#000000" stroke-width="2" points="409,-139.7 409,-227.7 630,-227.7 630,-139.7 409,-139.7"/>
</a>
</g>
</g>
<!-- TechnicalCareers -->
<g id="node2" class="node">
<title>TechnicalCareers</title>
<g id="a_node2"><a xlink:href="../../tables/TechnicalCareers.html" xlink:title="TechnicalCareers" target="_top">
<polygon fill="#ffffff" stroke="transparent" points="220,-60.2 220,-187.2 359,-187.2 359,-60.2 220,-60.2"/>
<polygon fill="#f5f5f5" stroke="transparent" points="220.5,-163.7 220.5,-186.7 359.5,-186.7 359.5,-163.7 220.5,-163.7"/>
<polygon fill="none" stroke="#000000" points="220.5,-163.7 220.5,-186.7 359.5,-186.7 359.5,-163.7 220.5,-163.7"/>
<text text-anchor="start" x="225.5" y="-172.3" font-family="Helvetica,sans-Serif" font-weight="bold" font-size="11.00" fill="#000000">TechnicalCareers</text>
<text text-anchor="start" x="325.0219" y="-171.8" font-family="Helvetica,sans-Serif" font-size="11.00" fill="#000000">[table]</text>
<polygon fill="none" stroke="#000000" points="220.5,-141.7 220.5,-163.7 359.5,-163.7 359.5,-141.7 220.5,-141.7"/>
<image xlink:href="../../images/primaryKeys.png" width="11px" height="12px" preserveAspectRatio="xMinYMin meet" x="225.5" y="-158.7"/>
<text text-anchor="start" x="249.5" y="-148.8" font-family="Helvetica,sans-Serif" font-size="11.00" fill="#000000">Id</text>
<polygon fill="#ffffff" stroke="transparent" points="220.5,-119.7 220.5,-141.7 359.5,-141.7 359.5,-119.7 220.5,-119.7"/>
<polygon fill="none" stroke="#000000" points="220.5,-119.7 220.5,-141.7 359.5,-141.7 359.5,-119.7 220.5,-119.7"/>
<image xlink:href="../../images/foreignKeys.png" width="11px" height="12px" preserveAspectRatio="xMinYMin meet" x="225.5" y="-136.7"/>
<text text-anchor="start" x="249.5" y="-126.8" font-family="Helvetica,sans-Serif" font-size="11.00" fill="#000000">CreatedByUserId</text>
<polygon fill="#ffffff" stroke="transparent" points="220.5,-97.7 220.5,-119.7 359.5,-119.7 359.5,-97.7 220.5,-97.7"/>
<polygon fill="none" stroke="#000000" points="220.5,-97.7 220.5,-119.7 359.5,-119.7 359.5,-97.7 220.5,-97.7"/>
<image xlink:href="../../images/foreignKeys.png" width="11px" height="12px" preserveAspectRatio="xMinYMin meet" x="225.5" y="-114.7"/>
<text text-anchor="start" x="249.5" y="-104.8" font-family="Helvetica,sans-Serif" font-size="11.00" fill="#000000">UpdatedByUserId</text>
<polygon fill="none" stroke="#000000" points="220.5,-78.7 220.5,-97.7 359.5,-97.7 359.5,-78.7 220.5,-78.7"/>
<text text-anchor="start" x="223.5" y="-84.8" font-family="Helvetica,sans-Serif" font-size="11.00" fill="#000000">...</text>
<polygon fill="#ffffff" stroke="transparent" points="220.5,-59.7 220.5,-78.7 270.5,-78.7 270.5,-59.7 220.5,-59.7"/>
<polygon fill="none" stroke="#000000" points="220.5,-59.7 220.5,-78.7 270.5,-78.7 270.5,-59.7 220.5,-59.7"/>
<text text-anchor="start" x="223.5" y="-65.8" font-family="Helvetica,sans-Serif" font-size="11.00" fill="#000000">&lt; 2</text>
<polygon fill="#ffffff" stroke="transparent" points="270.5,-59.7 270.5,-78.7 323.5,-78.7 323.5,-59.7 270.5,-59.7"/>
<polygon fill="none" stroke="#000000" points="270.5,-59.7 270.5,-78.7 323.5,-78.7 323.5,-59.7 270.5,-59.7"/>
<text text-anchor="start" x="288.1105" y="-65.8" font-family="Helvetica,sans-Serif" font-size="11.00" fill="#000000">0 rows</text>
<polygon fill="#ffffff" stroke="transparent" points="323.5,-59.7 323.5,-78.7 359.5,-78.7 359.5,-59.7 323.5,-59.7"/>
<polygon fill="none" stroke="#000000" points="323.5,-59.7 323.5,-78.7 359.5,-78.7 359.5,-59.7 323.5,-59.7"/>
<text text-anchor="start" x="340.9053" y="-65.8" font-family="Helvetica,sans-Serif" font-size="11.00" fill="#000000">6 &gt;</text>
</a>
</g>
</g>
<!-- Coordinators&#45;&gt;TechnicalCareers -->
<g id="edge1" class="edge">
<title>Coordinators:w&#45;&gt;TechnicalCareers:e</title>
<path fill="none" stroke="#000000" d="M396.1506,-168.044C383.8075,-163.037 377.7155,-152.7 359.5,-152.7"/>
<polygon fill="#000000" stroke="#000000" points="402.6336,-169.2439 409.8448,-174.2399 406.5668,-169.972 410.5,-170.7 410.5,-170.7 410.5,-170.7 406.5668,-169.972 411.1552,-167.1601 402.6336,-169.2439 402.6336,-169.2439"/>
<ellipse fill="none" stroke="#000000" cx="399.4871" cy="-168.6615" rx="3.2" ry="3.2"/>
</g>
<!-- AspNetUsers -->
<g id="node3" class="node">
<title>AspNetUsers</title>
<g id="a_node3"><a xlink:href="../../tables/AspNetUsers.html" xlink:title="AspNetUsers" target="_top">
<polygon fill="#ffffff" stroke="transparent" points="8,-38.2 8,-165.2 171,-165.2 171,-38.2 8,-38.2"/>
<polygon fill="#f5f5f5" stroke="transparent" points="8.5,-141.7 8.5,-164.7 171.5,-164.7 171.5,-141.7 8.5,-141.7"/>
<polygon fill="none" stroke="#000000" points="8.5,-141.7 8.5,-164.7 171.5,-164.7 171.5,-141.7 8.5,-141.7"/>
<text text-anchor="start" x="13.5" y="-150.3" font-family="Helvetica,sans-Serif" font-weight="bold" font-size="11.00" fill="#000000">AspNetUsers</text>
<text text-anchor="start" x="136.5437" y="-149.8" font-family="Helvetica,sans-Serif" font-size="11.00" fill="#000000">[table]</text>
<polygon fill="none" stroke="#000000" points="8.5,-119.7 8.5,-141.7 171.5,-141.7 171.5,-119.7 8.5,-119.7"/>
<image xlink:href="../../images/primaryKeys.png" width="11px" height="12px" preserveAspectRatio="xMinYMin meet" x="13.5" y="-136.7"/>
<text text-anchor="start" x="28.5" y="-126.8" font-family="Helvetica,sans-Serif" font-size="11.00" fill="#000000">Id</text>
<polygon fill="#ffffff" stroke="transparent" points="8.5,-97.7 8.5,-119.7 171.5,-119.7 171.5,-97.7 8.5,-97.7"/>
<polygon fill="none" stroke="#000000" points="8.5,-97.7 8.5,-119.7 171.5,-119.7 171.5,-97.7 8.5,-97.7"/>
<text text-anchor="start" x="28.5" y="-104.8" font-family="Helvetica,sans-Serif" font-size="11.00" fill="#000000">NormalizedUserName</text>
<polygon fill="#ffffff" stroke="transparent" points="8.5,-75.7 8.5,-97.7 171.5,-97.7 171.5,-75.7 8.5,-75.7"/>
<polygon fill="none" stroke="#000000" points="8.5,-75.7 8.5,-97.7 171.5,-97.7 171.5,-75.7 8.5,-75.7"/>
<text text-anchor="start" x="28.5" y="-82.8" font-family="Helvetica,sans-Serif" font-size="11.00" fill="#000000">NormalizedEmail</text>
<polygon fill="none" stroke="#000000" points="8.5,-56.7 8.5,-75.7 171.5,-75.7 171.5,-56.7 8.5,-56.7"/>
<text text-anchor="start" x="11.5" y="-62.8" font-family="Helvetica,sans-Serif" font-size="11.00" fill="#000000">...</text>
<polygon fill="#ffffff" stroke="transparent" points="8.5,-37.7 8.5,-56.7 63.5,-56.7 63.5,-37.7 8.5,-37.7"/>
<polygon fill="none" stroke="#000000" points="8.5,-37.7 8.5,-56.7 63.5,-56.7 63.5,-37.7 8.5,-37.7"/>
<text text-anchor="start" x="11.5" y="-43.8" font-family="Helvetica,sans-Serif" font-size="11.00" fill="#000000"> &#160;</text>
<polygon fill="#ffffff" stroke="transparent" points="63.5,-37.7 63.5,-56.7 122.5,-56.7 122.5,-37.7 63.5,-37.7"/>
<polygon fill="none" stroke="#000000" points="63.5,-37.7 63.5,-56.7 122.5,-56.7 122.5,-37.7 63.5,-37.7"/>
<text text-anchor="start" x="87.1105" y="-43.8" font-family="Helvetica,sans-Serif" font-size="11.00" fill="#000000">0 rows</text>
<polygon fill="#ffffff" stroke="transparent" points="122.5,-37.7 122.5,-56.7 171.5,-56.7 171.5,-37.7 122.5,-37.7"/>
<polygon fill="none" stroke="#000000" points="122.5,-37.7 122.5,-56.7 171.5,-56.7 171.5,-37.7 122.5,-37.7"/>
<text text-anchor="start" x="146.7904" y="-43.8" font-family="Helvetica,sans-Serif" font-size="11.00" fill="#000000">29 &gt;</text>
</a>
</g>
</g>
<!-- Coordinators&#45;&gt;AspNetUsers -->
<g id="edge2" class="edge">
<title>Coordinators:w&#45;&gt;AspNetUsers:e</title>
<path fill="none" stroke="#000000" d="M399.8889,-193.1563C388.4349,-194.2164 382.3305,-196.8218 367,-197.7 298.2239,-201.6397 272.0028,-231.5429 212,-197.7 181.693,-180.6061 206.2953,-130.7 171.5,-130.7"/>
<polygon fill="#000000" stroke="#000000" points="409.5288,-188.7381 409.8726,-196.7307 408.2741,-196.7994 407.9303,-188.8068 409.5288,-188.7381"/>
<polyline fill="none" stroke="#000000" points="410.5,-192.7 406.5037,-192.8719 "/>
<ellipse fill="none" stroke="#000000" cx="403.3066" cy="-193.0094" rx="3.2" ry="3.2"/>
</g>
<!-- TechnicalCareers&#45;&gt;AspNetUsers -->
<g id="edge3" class="edge">
<title>TechnicalCareers:w&#45;&gt;AspNetUsers:e</title>
<path fill="none" stroke="#000000" d="M205.9909,-130.7C194.6774,-130.7 187.4931,-130.7 171.5,-130.7"/>
<polygon fill="#000000" stroke="#000000" points="212.5,-130.7001 220.5,-134.3 216.5,-130.7 220.5,-130.7 220.5,-130.7 220.5,-130.7 216.5,-130.7 220.5,-127.1 212.5,-130.7001 212.5,-130.7001"/>
<ellipse fill="none" stroke="#000000" cx="209.3" cy="-130.7001" rx="3.2" ry="3.2"/>
</g>
<!-- TechnicalCareers&#45;&gt;AspNetUsers -->
<g id="edge4" class="edge">
<title>TechnicalCareers:w&#45;&gt;AspNetUsers:e</title>
<path fill="none" stroke="#000000" d="M206.1297,-112.1375C194.5865,-118.325 189.4041,-130.7 171.5,-130.7"/>
<polygon fill="#000000" stroke="#000000" points="212.7195,-110.5612 221.3375,-112.2012 216.6098,-109.6306 220.5,-108.7 220.5,-108.7 220.5,-108.7 216.6098,-109.6306 219.6625,-105.1988 212.7195,-110.5612 212.7195,-110.5612"/>
<ellipse fill="none" stroke="#000000" cx="209.6073" cy="-111.3057" rx="3.2" ry="3.2"/>
</g>
</g>
</svg>
