<?xml version="1.0" encoding="UTF-8" standalone="no"?>
<!DOCTYPE svg PUBLIC "-//W3C//DTD SVG 1.1//EN"
 "http://www.w3.org/Graphics/SVG/1.1/DTD/svg11.dtd">
<!-- Generated by graphviz version 2.40.1 (20161225.0304)
 -->
<!-- Title: twoDegreesRelationshipsDiagram Pages: 1 -->
<svg width="1177pt" height="1311pt"
 viewBox="0.00 0.00 1177.00 1311.18" xmlns="http://www.w3.org/2000/svg" xmlns:xlink="http://www.w3.org/1999/xlink">
<g id="graph0" class="graph" transform="scale(1 1) rotate(0) translate(4 1307.1776)">
<title>twoDegreesRelationshipsDiagram</title>
<polygon fill="#ffffff" stroke="transparent" points="-4,4 -4,-1307.1776 1173,-1307.1776 1173,4 -4,4"/>
<text text-anchor="middle" x="72.4936" y="-7.3" font-family="Helvetica,sans-Serif" font-size="11.00" fill="#000000">Generated by SchemaSpy</text>
<!-- AspNetUserClaims -->
<g id="node1" class="node">
<title>AspNetUserClaims</title>
<g id="a_node1"><a xlink:href="../../tables/AspNetUserClaims.html" xlink:title="AspNetUserClaims" target="_top">
<polygon fill="#ffffff" stroke="transparent" points="209,-1238.1776 209,-1299.1776 356,-1299.1776 356,-1238.1776 209,-1238.1776"/>
<polygon fill="#f5f5f5" stroke="transparent" points="209.5,-1275.6776 209.5,-1298.6776 356.5,-1298.6776 356.5,-1275.6776 209.5,-1275.6776"/>
<polygon fill="none" stroke="#000000" points="209.5,-1275.6776 209.5,-1298.6776 356.5,-1298.6776 356.5,-1275.6776 209.5,-1275.6776"/>
<text text-anchor="start" x="214.5" y="-1284.2776" font-family="Helvetica,sans-Serif" font-weight="bold" font-size="11.00" fill="#000000">AspNetUserClaims</text>
<text text-anchor="start" x="322.0219" y="-1283.7776" font-family="Helvetica,sans-Serif" font-size="11.00" fill="#000000">[table]</text>
<polygon fill="none" stroke="#000000" points="209.5,-1256.6776 209.5,-1275.6776 356.5,-1275.6776 356.5,-1256.6776 209.5,-1256.6776"/>
<text text-anchor="start" x="212.5" y="-1262.7776" font-family="Helvetica,sans-Serif" font-size="11.00" fill="#000000">...</text>
<polygon fill="#ffffff" stroke="transparent" points="209.5,-1237.6776 209.5,-1256.6776 268.5,-1256.6776 268.5,-1237.6776 209.5,-1237.6776"/>
<polygon fill="none" stroke="#000000" points="209.5,-1237.6776 209.5,-1256.6776 268.5,-1256.6776 268.5,-1237.6776 209.5,-1237.6776"/>
<text text-anchor="start" x="212.5" y="-1243.7776" font-family="Helvetica,sans-Serif" font-size="11.00" fill="#000000">&lt; 1</text>
<polygon fill="#ffffff" stroke="transparent" points="268.5,-1237.6776 268.5,-1256.6776 325.5,-1256.6776 325.5,-1237.6776 268.5,-1237.6776"/>
<polygon fill="none" stroke="#000000" points="268.5,-1237.6776 268.5,-1256.6776 325.5,-1256.6776 325.5,-1237.6776 268.5,-1237.6776"/>
<text text-anchor="start" x="290.1105" y="-1243.7776" font-family="Helvetica,sans-Serif" font-size="11.00" fill="#000000">0 rows</text>
<polygon fill="#ffffff" stroke="transparent" points="325.5,-1237.6776 325.5,-1256.6776 356.5,-1256.6776 356.5,-1237.6776 325.5,-1237.6776"/>
<polygon fill="none" stroke="#000000" points="325.5,-1237.6776 325.5,-1256.6776 356.5,-1256.6776 356.5,-1237.6776 325.5,-1237.6776"/>
<text text-anchor="start" x="347.3862" y="-1243.7776" font-family="Helvetica,sans-Serif" font-size="11.00" fill="#000000"> &#160;</text>
</a>
</g>
</g>
<!-- AspNetUsers -->
<g id="node2" class="node">
<title>AspNetUsers</title>
<g id="a_node2"><a xlink:href="../../tables/AspNetUsers.html" xlink:title="AspNetUsers" target="_top">
<polygon fill="#ffffff" stroke="transparent" points="8,-692.1776 8,-753.1776 122,-753.1776 122,-692.1776 8,-692.1776"/>
<polygon fill="#f5f5f5" stroke="transparent" points="8,-729.6776 8,-752.6776 122,-752.6776 122,-729.6776 8,-729.6776"/>
<polygon fill="none" stroke="#000000" points="8,-729.6776 8,-752.6776 122,-752.6776 122,-729.6776 8,-729.6776"/>
<text text-anchor="start" x="13" y="-738.2776" font-family="Helvetica,sans-Serif" font-weight="bold" font-size="11.00" fill="#000000">AspNetUsers</text>
<text text-anchor="start" x="87.5219" y="-737.7776" font-family="Helvetica,sans-Serif" font-size="11.00" fill="#000000">[table]</text>
<polygon fill="none" stroke="#000000" points="8,-710.6776 8,-729.6776 122,-729.6776 122,-710.6776 8,-710.6776"/>
<text text-anchor="start" x="11" y="-716.7776" font-family="Helvetica,sans-Serif" font-size="11.00" fill="#000000">...</text>
<polygon fill="#ffffff" stroke="transparent" points="8,-691.6776 8,-710.6776 38,-710.6776 38,-691.6776 8,-691.6776"/>
<polygon fill="none" stroke="#000000" points="8,-691.6776 8,-710.6776 38,-710.6776 38,-691.6776 8,-691.6776"/>
<text text-anchor="start" x="11" y="-697.7776" font-family="Helvetica,sans-Serif" font-size="11.00" fill="#000000"> &#160;</text>
<polygon fill="#ffffff" stroke="transparent" points="38,-691.6776 38,-710.6776 85,-710.6776 85,-691.6776 38,-691.6776"/>
<polygon fill="none" stroke="#000000" points="38,-691.6776 38,-710.6776 85,-710.6776 85,-691.6776 38,-691.6776"/>
<text text-anchor="start" x="49.6105" y="-697.7776" font-family="Helvetica,sans-Serif" font-size="11.00" fill="#000000">0 rows</text>
<polygon fill="#ffffff" stroke="transparent" points="85,-691.6776 85,-710.6776 122,-710.6776 122,-691.6776 85,-691.6776"/>
<polygon fill="none" stroke="#000000" points="85,-691.6776 85,-710.6776 122,-710.6776 122,-691.6776 85,-691.6776"/>
<text text-anchor="start" x="97.2904" y="-697.7776" font-family="Helvetica,sans-Serif" font-size="11.00" fill="#000000">29 &gt;</text>
</a>
</g>
</g>
<!-- AspNetUserClaims&#45;&gt;AspNetUsers -->
<g id="edge1" class="edge">
<title>AspNetUserClaims:w&#45;&gt;AspNetUsers:e</title>
<path fill="none" stroke="#000000" d="M195.1408,-1263.1853C101.1079,-1229.8588 73.2432,-871.6988 66.7167,-757.4707"/>
<polygon fill="#000000" stroke="#000000" points="201.6179,-1264.3095 208.8843,-1269.2246 205.5589,-1264.9935 209.5,-1265.6776 209.5,-1265.6776 209.5,-1265.6776 205.5589,-1264.9935 210.1157,-1262.1306 201.6179,-1264.3095 201.6179,-1264.3095"/>
<ellipse fill="none" stroke="#000000" cx="198.465" cy="-1263.7622" rx="3.2" ry="3.2"/>
</g>
<!-- AspNetUserLogins -->
<g id="node3" class="node">
<title>AspNetUserLogins</title>
<g id="a_node3"><a xlink:href="../../tables/AspNetUserLogins.html" xlink:title="AspNetUserLogins" target="_top">
<polygon fill="#ffffff" stroke="transparent" points="209,-1156.1776 209,-1217.1776 356,-1217.1776 356,-1156.1776 209,-1156.1776"/>
<polygon fill="#f5f5f5" stroke="transparent" points="209.5,-1193.6776 209.5,-1216.6776 356.5,-1216.6776 356.5,-1193.6776 209.5,-1193.6776"/>
<polygon fill="none" stroke="#000000" points="209.5,-1193.6776 209.5,-1216.6776 356.5,-1216.6776 356.5,-1193.6776 209.5,-1193.6776"/>
<text text-anchor="start" x="214.5" y="-1202.2776" font-family="Helvetica,sans-Serif" font-weight="bold" font-size="11.00" fill="#000000">AspNetUserLogins</text>
<text text-anchor="start" x="322.0219" y="-1201.7776" font-family="Helvetica,sans-Serif" font-size="11.00" fill="#000000">[table]</text>
<polygon fill="none" stroke="#000000" points="209.5,-1174.6776 209.5,-1193.6776 356.5,-1193.6776 356.5,-1174.6776 209.5,-1174.6776"/>
<text text-anchor="start" x="212.5" y="-1180.7776" font-family="Helvetica,sans-Serif" font-size="11.00" fill="#000000">...</text>
<polygon fill="#ffffff" stroke="transparent" points="209.5,-1155.6776 209.5,-1174.6776 268.5,-1174.6776 268.5,-1155.6776 209.5,-1155.6776"/>
<polygon fill="none" stroke="#000000" points="209.5,-1155.6776 209.5,-1174.6776 268.5,-1174.6776 268.5,-1155.6776 209.5,-1155.6776"/>
<text text-anchor="start" x="212.5" y="-1161.7776" font-family="Helvetica,sans-Serif" font-size="11.00" fill="#000000">&lt; 1</text>
<polygon fill="#ffffff" stroke="transparent" points="268.5,-1155.6776 268.5,-1174.6776 325.5,-1174.6776 325.5,-1155.6776 268.5,-1155.6776"/>
<polygon fill="none" stroke="#000000" points="268.5,-1155.6776 268.5,-1174.6776 325.5,-1174.6776 325.5,-1155.6776 268.5,-1155.6776"/>
<text text-anchor="start" x="290.1105" y="-1161.7776" font-family="Helvetica,sans-Serif" font-size="11.00" fill="#000000">0 rows</text>
<polygon fill="#ffffff" stroke="transparent" points="325.5,-1155.6776 325.5,-1174.6776 356.5,-1174.6776 356.5,-1155.6776 325.5,-1155.6776"/>
<polygon fill="none" stroke="#000000" points="325.5,-1155.6776 325.5,-1174.6776 356.5,-1174.6776 356.5,-1155.6776 325.5,-1155.6776"/>
<text text-anchor="start" x="347.3862" y="-1161.7776" font-family="Helvetica,sans-Serif" font-size="11.00" fill="#000000"> &#160;</text>
</a>
</g>
</g>
<!-- AspNetUserLogins&#45;&gt;AspNetUsers -->
<g id="edge2" class="edge">
<title>AspNetUserLogins:w&#45;&gt;AspNetUsers:e</title>
<path fill="none" stroke="#000000" d="M195.278,-1180.9011C115.8089,-1149.4056 78.8479,-858.6753 68.3004,-757.3275"/>
<polygon fill="#000000" stroke="#000000" points="201.6482,-1182.1447 208.8102,-1187.2109 205.5741,-1182.9112 209.5,-1183.6776 209.5,-1183.6776 209.5,-1183.6776 205.5741,-1182.9112 210.1898,-1180.1443 201.6482,-1182.1447 201.6482,-1182.1447"/>
<ellipse fill="none" stroke="#000000" cx="198.5075" cy="-1181.5315" rx="3.2" ry="3.2"/>
</g>
<!-- AspNetUserRoles -->
<g id="node4" class="node">
<title>AspNetUserRoles</title>
<g id="a_node4"><a xlink:href="../../tables/AspNetUserRoles.html" xlink:title="AspNetUserRoles" target="_top">
<polygon fill="#ffffff" stroke="transparent" points="212.5,-1074.1776 212.5,-1135.1776 352.5,-1135.1776 352.5,-1074.1776 212.5,-1074.1776"/>
<polygon fill="#f5f5f5" stroke="transparent" points="212.5,-1111.6776 212.5,-1134.6776 352.5,-1134.6776 352.5,-1111.6776 212.5,-1111.6776"/>
<polygon fill="none" stroke="#000000" points="212.5,-1111.6776 212.5,-1134.6776 352.5,-1134.6776 352.5,-1111.6776 212.5,-1111.6776"/>
<text text-anchor="start" x="217.5" y="-1120.2776" font-family="Helvetica,sans-Serif" font-weight="bold" font-size="11.00" fill="#000000">AspNetUserRoles</text>
<text text-anchor="start" x="318.0219" y="-1119.7776" font-family="Helvetica,sans-Serif" font-size="11.00" fill="#000000">[table]</text>
<polygon fill="none" stroke="#000000" points="212.5,-1092.6776 212.5,-1111.6776 352.5,-1111.6776 352.5,-1092.6776 212.5,-1092.6776"/>
<text text-anchor="start" x="215.5" y="-1098.7776" font-family="Helvetica,sans-Serif" font-size="11.00" fill="#000000">...</text>
<polygon fill="#ffffff" stroke="transparent" points="212.5,-1073.6776 212.5,-1092.6776 267.5,-1092.6776 267.5,-1073.6776 212.5,-1073.6776"/>
<polygon fill="none" stroke="#000000" points="212.5,-1073.6776 212.5,-1092.6776 267.5,-1092.6776 267.5,-1073.6776 212.5,-1073.6776"/>
<text text-anchor="start" x="215.5" y="-1079.7776" font-family="Helvetica,sans-Serif" font-size="11.00" fill="#000000">&lt; 2</text>
<polygon fill="#ffffff" stroke="transparent" points="267.5,-1073.6776 267.5,-1092.6776 322.5,-1092.6776 322.5,-1073.6776 267.5,-1073.6776"/>
<polygon fill="none" stroke="#000000" points="267.5,-1073.6776 267.5,-1092.6776 322.5,-1092.6776 322.5,-1073.6776 267.5,-1073.6776"/>
<text text-anchor="start" x="287.1105" y="-1079.7776" font-family="Helvetica,sans-Serif" font-size="11.00" fill="#000000">0 rows</text>
<polygon fill="#ffffff" stroke="transparent" points="322.5,-1073.6776 322.5,-1092.6776 352.5,-1092.6776 352.5,-1073.6776 322.5,-1073.6776"/>
<polygon fill="none" stroke="#000000" points="322.5,-1073.6776 322.5,-1092.6776 352.5,-1092.6776 352.5,-1073.6776 322.5,-1073.6776"/>
<text text-anchor="start" x="343.3862" y="-1079.7776" font-family="Helvetica,sans-Serif" font-size="11.00" fill="#000000"> &#160;</text>
</a>
</g>
</g>
<!-- AspNetUserRoles&#45;&gt;AspNetUsers -->
<g id="edge3" class="edge">
<title>AspNetUserRoles:w&#45;&gt;AspNetUsers:e</title>
<path fill="none" stroke="#000000" d="M198.0104,-1099.872C181.8756,-1095.2287 175.4422,-1081.9441 163,-1063.6776 96.3334,-965.8041 74.5282,-822.6197 67.8024,-757.3765"/>
<polygon fill="#000000" stroke="#000000" points="204.5614,-1100.6883 212.0548,-1105.25 208.5307,-1101.1829 212.5,-1101.6776 212.5,-1101.6776 212.5,-1101.6776 208.5307,-1101.1829 212.9452,-1098.1052 204.5614,-1100.6883 204.5614,-1100.6883"/>
<ellipse fill="none" stroke="#000000" cx="201.386" cy="-1100.2925" rx="3.2" ry="3.2"/>
</g>
<!-- AspNetUserTokens -->
<g id="node5" class="node">
<title>AspNetUserTokens</title>
<g id="a_node5"><a xlink:href="../../tables/AspNetUserTokens.html" xlink:title="AspNetUserTokens" target="_top">
<polygon fill="#ffffff" stroke="transparent" points="208,-992.1776 208,-1053.1776 357,-1053.1776 357,-992.1776 208,-992.1776"/>
<polygon fill="#f5f5f5" stroke="transparent" points="208.5,-1029.6776 208.5,-1052.6776 357.5,-1052.6776 357.5,-1029.6776 208.5,-1029.6776"/>
<polygon fill="none" stroke="#000000" points="208.5,-1029.6776 208.5,-1052.6776 357.5,-1052.6776 357.5,-1029.6776 208.5,-1029.6776"/>
<text text-anchor="start" x="213.5" y="-1038.2776" font-family="Helvetica,sans-Serif" font-weight="bold" font-size="11.00" fill="#000000">AspNetUserTokens</text>
<text text-anchor="start" x="323.0219" y="-1037.7776" font-family="Helvetica,sans-Serif" font-size="11.00" fill="#000000">[table]</text>
<polygon fill="none" stroke="#000000" points="208.5,-1010.6776 208.5,-1029.6776 357.5,-1029.6776 357.5,-1010.6776 208.5,-1010.6776"/>
<text text-anchor="start" x="211.5" y="-1016.7776" font-family="Helvetica,sans-Serif" font-size="11.00" fill="#000000">...</text>
<polygon fill="#ffffff" stroke="transparent" points="208.5,-991.6776 208.5,-1010.6776 268.5,-1010.6776 268.5,-991.6776 208.5,-991.6776"/>
<polygon fill="none" stroke="#000000" points="208.5,-991.6776 208.5,-1010.6776 268.5,-1010.6776 268.5,-991.6776 208.5,-991.6776"/>
<text text-anchor="start" x="211.5" y="-997.7776" font-family="Helvetica,sans-Serif" font-size="11.00" fill="#000000">&lt; 1</text>
<polygon fill="#ffffff" stroke="transparent" points="268.5,-991.6776 268.5,-1010.6776 325.5,-1010.6776 325.5,-991.6776 268.5,-991.6776"/>
<polygon fill="none" stroke="#000000" points="268.5,-991.6776 268.5,-1010.6776 325.5,-1010.6776 325.5,-991.6776 268.5,-991.6776"/>
<text text-anchor="start" x="290.1105" y="-997.7776" font-family="Helvetica,sans-Serif" font-size="11.00" fill="#000000">0 rows</text>
<polygon fill="#ffffff" stroke="transparent" points="325.5,-991.6776 325.5,-1010.6776 357.5,-1010.6776 357.5,-991.6776 325.5,-991.6776"/>
<polygon fill="none" stroke="#000000" points="325.5,-991.6776 325.5,-1010.6776 357.5,-1010.6776 357.5,-991.6776 325.5,-991.6776"/>
<text text-anchor="start" x="348.3862" y="-997.7776" font-family="Helvetica,sans-Serif" font-size="11.00" fill="#000000"> &#160;</text>
</a>
</g>
</g>
<!-- AspNetUserTokens&#45;&gt;AspNetUsers -->
<g id="edge4" class="edge">
<title>AspNetUserTokens:w&#45;&gt;AspNetUsers:e</title>
<path fill="none" stroke="#000000" d="M194.3584,-1016.123C141.8874,-990.2005 93.2968,-829.2471 73.8975,-757.3286"/>
<polygon fill="#000000" stroke="#000000" points="200.7414,-1017.7273 207.6224,-1023.169 204.6207,-1018.7025 208.5,-1019.6776 208.5,-1019.6776 208.5,-1019.6776 204.6207,-1018.7025 209.3776,-1016.1862 200.7414,-1017.7273 200.7414,-1017.7273"/>
<ellipse fill="none" stroke="#000000" cx="197.6379" cy="-1016.9472" rx="3.2" ry="3.2"/>
</g>
<!-- Competencies -->
<g id="node6" class="node">
<title>Competencies</title>
<g id="a_node6"><a xlink:href="../../tables/Competencies.html" xlink:title="Competencies" target="_top">
<polygon fill="#ffffff" stroke="transparent" points="222,-870.1776 222,-931.1776 343,-931.1776 343,-870.1776 222,-870.1776"/>
<polygon fill="#f5f5f5" stroke="transparent" points="222.5,-907.6776 222.5,-930.6776 343.5,-930.6776 343.5,-907.6776 222.5,-907.6776"/>
<polygon fill="none" stroke="#000000" points="222.5,-907.6776 222.5,-930.6776 343.5,-930.6776 343.5,-907.6776 222.5,-907.6776"/>
<text text-anchor="start" x="227.5" y="-916.2776" font-family="Helvetica,sans-Serif" font-weight="bold" font-size="11.00" fill="#000000">Competencies</text>
<text text-anchor="start" x="309.0219" y="-915.7776" font-family="Helvetica,sans-Serif" font-size="11.00" fill="#000000">[table]</text>
<polygon fill="none" stroke="#000000" points="222.5,-888.6776 222.5,-907.6776 343.5,-907.6776 343.5,-888.6776 222.5,-888.6776"/>
<text text-anchor="start" x="225.5" y="-894.7776" font-family="Helvetica,sans-Serif" font-size="11.00" fill="#000000">...</text>
<polygon fill="#ffffff" stroke="transparent" points="222.5,-869.6776 222.5,-888.6776 263.5,-888.6776 263.5,-869.6776 222.5,-869.6776"/>
<polygon fill="none" stroke="#000000" points="222.5,-869.6776 222.5,-888.6776 263.5,-888.6776 263.5,-869.6776 222.5,-869.6776"/>
<text text-anchor="start" x="225.5" y="-875.7776" font-family="Helvetica,sans-Serif" font-size="11.00" fill="#000000">&lt; 2</text>
<polygon fill="#ffffff" stroke="transparent" points="263.5,-869.6776 263.5,-888.6776 311.5,-888.6776 311.5,-869.6776 263.5,-869.6776"/>
<polygon fill="none" stroke="#000000" points="263.5,-869.6776 263.5,-888.6776 311.5,-888.6776 311.5,-869.6776 263.5,-869.6776"/>
<text text-anchor="start" x="276.1105" y="-875.7776" font-family="Helvetica,sans-Serif" font-size="11.00" fill="#000000">0 rows</text>
<polygon fill="#ffffff" stroke="transparent" points="311.5,-869.6776 311.5,-888.6776 343.5,-888.6776 343.5,-869.6776 311.5,-869.6776"/>
<polygon fill="none" stroke="#000000" points="311.5,-869.6776 311.5,-888.6776 343.5,-888.6776 343.5,-869.6776 311.5,-869.6776"/>
<text text-anchor="start" x="324.9053" y="-875.7776" font-family="Helvetica,sans-Serif" font-size="11.00" fill="#000000">4 &gt;</text>
</a>
</g>
</g>
<!-- Competencies&#45;&gt;AspNetUsers -->
<g id="edge5" class="edge">
<title>Competencies:w&#45;&gt;AspNetUsers:e</title>
<path fill="none" stroke="#000000" d="M207.8902,-895.7057C143.1245,-881.8591 100.2301,-803.7375 79.5037,-757.2826"/>
<polygon fill="#000000" stroke="#000000" points="214.5719,-896.6075 222.0184,-901.2453 218.5359,-897.1426 222.5,-897.6776 222.5,-897.6776 222.5,-897.6776 218.5359,-897.1426 222.9816,-894.11 214.5719,-896.6075 214.5719,-896.6075"/>
<ellipse fill="none" stroke="#000000" cx="211.4006" cy="-896.1794" rx="3.2" ry="3.2"/>
</g>
<!-- Competencies&#45;&gt;AspNetUsers -->
<g id="edge6" class="edge">
<title>Competencies:w&#45;&gt;AspNetUsers:e</title>
<path fill="none" stroke="#000000" d="M207.9895,-897.4855C139.4672,-890.9964 95.41,-806.4182 76.1687,-757.2567"/>
<polygon fill="#000000" stroke="#000000" points="214.5007,-897.5716 222.4523,-901.2773 218.5004,-897.6246 222.5,-897.6776 222.5,-897.6776 222.5,-897.6776 218.5004,-897.6246 222.5477,-894.0779 214.5007,-897.5716 214.5007,-897.5716"/>
<ellipse fill="none" stroke="#000000" cx="211.301" cy="-897.5292" rx="3.2" ry="3.2"/>
</g>
<!-- CompetencyLevelDescriptions -->
<g id="node7" class="node">
<title>CompetencyLevelDescriptions</title>
<g id="a_node7"><a xlink:href="../../tables/CompetencyLevelDescriptions.html" xlink:title="CompetencyLevelDescriptions" target="_top">
<polygon fill="#ffffff" stroke="transparent" points="457,-934.1776 457,-995.1776 671,-995.1776 671,-934.1776 457,-934.1776"/>
<polygon fill="#f5f5f5" stroke="transparent" points="457,-971.6776 457,-994.6776 671,-994.6776 671,-971.6776 457,-971.6776"/>
<polygon fill="none" stroke="#000000" points="457,-971.6776 457,-994.6776 671,-994.6776 671,-971.6776 457,-971.6776"/>
<text text-anchor="start" x="462" y="-980.2776" font-family="Helvetica,sans-Serif" font-weight="bold" font-size="11.00" fill="#000000">CompetencyLevelDescriptions</text>
<text text-anchor="start" x="636.5219" y="-979.7776" font-family="Helvetica,sans-Serif" font-size="11.00" fill="#000000">[table]</text>
<polygon fill="none" stroke="#000000" points="457,-952.6776 457,-971.6776 671,-971.6776 671,-952.6776 457,-952.6776"/>
<text text-anchor="start" x="460" y="-958.7776" font-family="Helvetica,sans-Serif" font-size="11.00" fill="#000000">...</text>
<polygon fill="#ffffff" stroke="transparent" points="457,-933.6776 457,-952.6776 549,-952.6776 549,-933.6776 457,-933.6776"/>
<polygon fill="none" stroke="#000000" points="457,-933.6776 457,-952.6776 549,-952.6776 549,-933.6776 457,-933.6776"/>
<text text-anchor="start" x="460" y="-939.7776" font-family="Helvetica,sans-Serif" font-size="11.00" fill="#000000">&lt; 3</text>
<polygon fill="#ffffff" stroke="transparent" points="549,-933.6776 549,-952.6776 623,-952.6776 623,-933.6776 549,-933.6776"/>
<polygon fill="none" stroke="#000000" points="549,-933.6776 549,-952.6776 623,-952.6776 623,-933.6776 549,-933.6776"/>
<text text-anchor="start" x="587.6105" y="-939.7776" font-family="Helvetica,sans-Serif" font-size="11.00" fill="#000000">0 rows</text>
<polygon fill="#ffffff" stroke="transparent" points="623,-933.6776 623,-952.6776 671,-952.6776 671,-933.6776 623,-933.6776"/>
<polygon fill="none" stroke="#000000" points="623,-933.6776 623,-952.6776 671,-952.6776 671,-933.6776 623,-933.6776"/>
<text text-anchor="start" x="661.8862" y="-939.7776" font-family="Helvetica,sans-Serif" font-size="11.00" fill="#000000"> &#160;</text>
</a>
</g>
</g>
<!-- CompetencyLevelDescriptions&#45;&gt;AspNetUsers -->
<g id="edge8" class="edge">
<title>CompetencyLevelDescriptions:w&#45;&gt;AspNetUsers:e</title>
<path fill="none" stroke="#000000" d="M442.3567,-961.2466C321.7205,-959.6725 266.3335,-1007.7422 163,-935.6776 103.0387,-893.8607 79.2324,-806.4543 70.1896,-757.5519"/>
<polygon fill="#000000" stroke="#000000" points="449.0035,-961.4422 456.8941,-965.2761 453.0017,-961.5599 457,-961.6776 457,-961.6776 457,-961.6776 453.0017,-961.5599 457.1059,-958.0792 449.0035,-961.4422 449.0035,-961.4422"/>
<ellipse fill="none" stroke="#000000" cx="445.8048" cy="-961.348" rx="3.2" ry="3.2"/>
</g>
<!-- CompetencyLevelDescriptions&#45;&gt;AspNetUsers -->
<g id="edge9" class="edge">
<title>CompetencyLevelDescriptions:w&#45;&gt;AspNetUsers:e</title>
<path fill="none" stroke="#000000" d="M442.3567,-962.6761C321.7205,-972.6725 266.3335,-1020.7422 163,-948.6776 99.4512,-904.3588 76.5133,-808.8322 68.7205,-757.2199"/>
<polygon fill="#000000" stroke="#000000" points="449.0185,-962.2219 457.2449,-965.2693 453.0093,-961.9498 457,-961.6776 457,-961.6776 457,-961.6776 453.0093,-961.9498 456.7551,-958.086 449.0185,-962.2219 449.0185,-962.2219"/>
<ellipse fill="none" stroke="#000000" cx="445.8259" cy="-962.4396" rx="3.2" ry="3.2"/>
</g>
<!-- CompetencyLevelDescriptions&#45;&gt;Competencies -->
<g id="edge7" class="edge">
<title>CompetencyLevelDescriptions:w&#45;&gt;Competencies:e</title>
<path fill="none" stroke="#000000" d="M442.4813,-960.1587C399.0075,-950.4669 396.0953,-897.6776 343.5,-897.6776"/>
<polygon fill="#000000" stroke="#000000" points="449.0434,-960.8452 456.6254,-965.2581 453.0217,-961.2614 457,-961.6776 457,-961.6776 457,-961.6776 453.0217,-961.2614 457.3746,-958.0972 449.0434,-960.8452 449.0434,-960.8452"/>
<ellipse fill="none" stroke="#000000" cx="445.8608" cy="-960.5122" rx="3.2" ry="3.2"/>
</g>
<!-- Coordinators -->
<g id="node8" class="node">
<title>Coordinators</title>
<g id="a_node8"><a xlink:href="../../tables/Coordinators.html" xlink:title="Coordinators" target="_top">
<polygon fill="#ffffff" stroke="transparent" points="507,-169.1776 507,-230.1776 621,-230.1776 621,-169.1776 507,-169.1776"/>
<polygon fill="#f5f5f5" stroke="transparent" points="507,-206.6776 507,-229.6776 621,-229.6776 621,-206.6776 507,-206.6776"/>
<polygon fill="none" stroke="#000000" points="507,-206.6776 507,-229.6776 621,-229.6776 621,-206.6776 507,-206.6776"/>
<text text-anchor="start" x="512" y="-215.2776" font-family="Helvetica,sans-Serif" font-weight="bold" font-size="11.00" fill="#000000">Coordinators</text>
<text text-anchor="start" x="586.5219" y="-214.7776" font-family="Helvetica,sans-Serif" font-size="11.00" fill="#000000">[table]</text>
<polygon fill="none" stroke="#000000" points="507,-187.6776 507,-206.6776 621,-206.6776 621,-187.6776 507,-187.6776"/>
<text text-anchor="start" x="510" y="-193.7776" font-family="Helvetica,sans-Serif" font-size="11.00" fill="#000000">...</text>
<polygon fill="#ffffff" stroke="transparent" points="507,-168.6776 507,-187.6776 549,-187.6776 549,-168.6776 507,-168.6776"/>
<polygon fill="none" stroke="#000000" points="507,-168.6776 507,-187.6776 549,-187.6776 549,-168.6776 507,-168.6776"/>
<text text-anchor="start" x="510" y="-174.7776" font-family="Helvetica,sans-Serif" font-size="11.00" fill="#000000">&lt; 2</text>
<polygon fill="#ffffff" stroke="transparent" points="549,-168.6776 549,-187.6776 598,-187.6776 598,-168.6776 549,-168.6776"/>
<polygon fill="none" stroke="#000000" points="549,-168.6776 549,-187.6776 598,-187.6776 598,-168.6776 549,-168.6776"/>
<text text-anchor="start" x="562.6105" y="-174.7776" font-family="Helvetica,sans-Serif" font-size="11.00" fill="#000000">0 rows</text>
<polygon fill="#ffffff" stroke="transparent" points="598,-168.6776 598,-187.6776 621,-187.6776 621,-168.6776 598,-168.6776"/>
<polygon fill="none" stroke="#000000" points="598,-168.6776 598,-187.6776 621,-187.6776 621,-168.6776 598,-168.6776"/>
<text text-anchor="start" x="611.8862" y="-174.7776" font-family="Helvetica,sans-Serif" font-size="11.00" fill="#000000"> &#160;</text>
</a>
</g>
</g>
<!-- Coordinators&#45;&gt;AspNetUsers -->
<g id="edge11" class="edge">
<title>Coordinators:w&#45;&gt;AspNetUsers:e</title>
<path fill="none" stroke="#000000" d="M496.432,-196.3697C412.8638,-191.8941 219.2186,-140.8216 163,-187.6776 85.7486,-252.0637 69.2053,-579.675 65.8273,-687.9153"/>
<polygon fill="#000000" stroke="#000000" points="506.3169,-192.656 506.0838,-200.6526 504.4845,-200.606 504.7176,-192.6094 506.3169,-192.656"/>
<polyline fill="none" stroke="#000000" points="507,-196.6776 503.0017,-196.5611 "/>
<ellipse fill="none" stroke="#000000" cx="499.8031" cy="-196.4678" rx="3.2" ry="3.2"/>
</g>
<!-- TechnicalCareers -->
<g id="node9" class="node">
<title>TechnicalCareers</title>
<g id="a_node9"><a xlink:href="../../tables/TechnicalCareers.html" xlink:title="TechnicalCareers" target="_top">
<polygon fill="#ffffff" stroke="transparent" points="213,-262.1776 213,-323.1776 352,-323.1776 352,-262.1776 213,-262.1776"/>
<polygon fill="#f5f5f5" stroke="transparent" points="213.5,-299.6776 213.5,-322.6776 352.5,-322.6776 352.5,-299.6776 213.5,-299.6776"/>
<polygon fill="none" stroke="#000000" points="213.5,-299.6776 213.5,-322.6776 352.5,-322.6776 352.5,-299.6776 213.5,-299.6776"/>
<text text-anchor="start" x="218.5" y="-308.2776" font-family="Helvetica,sans-Serif" font-weight="bold" font-size="11.00" fill="#000000">TechnicalCareers</text>
<text text-anchor="start" x="318.0219" y="-307.7776" font-family="Helvetica,sans-Serif" font-size="11.00" fill="#000000">[table]</text>
<polygon fill="none" stroke="#000000" points="213.5,-280.6776 213.5,-299.6776 352.5,-299.6776 352.5,-280.6776 213.5,-280.6776"/>
<text text-anchor="start" x="216.5" y="-286.7776" font-family="Helvetica,sans-Serif" font-size="11.00" fill="#000000">...</text>
<polygon fill="#ffffff" stroke="transparent" points="213.5,-261.6776 213.5,-280.6776 263.5,-280.6776 263.5,-261.6776 213.5,-261.6776"/>
<polygon fill="none" stroke="#000000" points="213.5,-261.6776 213.5,-280.6776 263.5,-280.6776 263.5,-261.6776 213.5,-261.6776"/>
<text text-anchor="start" x="216.5" y="-267.7776" font-family="Helvetica,sans-Serif" font-size="11.00" fill="#000000">&lt; 2</text>
<polygon fill="#ffffff" stroke="transparent" points="263.5,-261.6776 263.5,-280.6776 316.5,-280.6776 316.5,-261.6776 263.5,-261.6776"/>
<polygon fill="none" stroke="#000000" points="263.5,-261.6776 263.5,-280.6776 316.5,-280.6776 316.5,-261.6776 263.5,-261.6776"/>
<text text-anchor="start" x="281.1105" y="-267.7776" font-family="Helvetica,sans-Serif" font-size="11.00" fill="#000000">0 rows</text>
<polygon fill="#ffffff" stroke="transparent" points="316.5,-261.6776 316.5,-280.6776 352.5,-280.6776 352.5,-261.6776 316.5,-261.6776"/>
<polygon fill="none" stroke="#000000" points="316.5,-261.6776 316.5,-280.6776 352.5,-280.6776 352.5,-261.6776 316.5,-261.6776"/>
<text text-anchor="start" x="333.9053" y="-267.7776" font-family="Helvetica,sans-Serif" font-size="11.00" fill="#000000">6 &gt;</text>
</a>
</g>
</g>
<!-- Coordinators&#45;&gt;TechnicalCareers -->
<g id="edge10" class="edge">
<title>Coordinators:w&#45;&gt;TechnicalCareers:e</title>
<path fill="none" stroke="#000000" d="M492.5278,-197.7868C427.2428,-208.2796 427.4814,-289.6776 352.5,-289.6776"/>
<polygon fill="#000000" stroke="#000000" points="499.0234,-197.289 507.2751,-200.2671 503.0117,-196.9833 507,-196.6776 507,-196.6776 507,-196.6776 503.0117,-196.9833 506.7249,-193.0881 499.0234,-197.289 499.0234,-197.289"/>
<ellipse fill="none" stroke="#000000" cx="495.8328" cy="-197.5336" rx="3.2" ry="3.2"/>
</g>
<!-- TechnicalCareers&#45;&gt;AspNetUsers -->
<g id="edge48" class="edge">
<title>TechnicalCareers:w&#45;&gt;AspNetUsers:e</title>
<path fill="none" stroke="#000000" d="M198.9966,-291.8359C123.4161,-319.1191 81.3812,-590.3794 68.9513,-687.9821"/>
<polygon fill="#000000" stroke="#000000" points="205.5871,-290.8552 214.0299,-293.2384 209.5436,-290.2664 213.5,-289.6776 213.5,-289.6776 213.5,-289.6776 209.5436,-290.2664 212.9701,-286.1168 205.5871,-290.8552 205.5871,-290.8552"/>
<ellipse fill="none" stroke="#000000" cx="202.422" cy="-291.3262" rx="3.2" ry="3.2"/>
</g>
<!-- TechnicalCareers&#45;&gt;AspNetUsers -->
<g id="edge49" class="edge">
<title>TechnicalCareers:w&#45;&gt;AspNetUsers:e</title>
<path fill="none" stroke="#000000" d="M199.2449,-293.5276C124.9213,-328.8607 82.9781,-592.3909 69.6789,-688.1308"/>
<polygon fill="#000000" stroke="#000000" points="205.7767,-291.7635 214.4387,-293.1531 209.6384,-290.7206 213.5,-289.6776 213.5,-289.6776 213.5,-289.6776 209.6384,-290.7206 212.5613,-286.2021 205.7767,-291.7635 205.7767,-291.7635"/>
<ellipse fill="none" stroke="#000000" cx="202.6874" cy="-292.5979" rx="3.2" ry="3.2"/>
</g>
<!-- EvaluationPeriods -->
<g id="node10" class="node">
<title>EvaluationPeriods</title>
<g id="a_node10"><a xlink:href="../../tables/EvaluationPeriods.html" xlink:title="EvaluationPeriods" target="_top">
<polygon fill="#ffffff" stroke="transparent" points="171,-426.6776 171,-692.6776 394,-692.6776 394,-426.6776 171,-426.6776"/>
<polygon fill="#f5f5f5" stroke="transparent" points="173.5,-667.6776 173.5,-690.6776 392.5,-690.6776 392.5,-667.6776 173.5,-667.6776"/>
<polygon fill="none" stroke="#000000" points="173.5,-667.6776 173.5,-690.6776 392.5,-690.6776 392.5,-667.6776 173.5,-667.6776"/>
<text text-anchor="start" x="178.5" y="-676.2776" font-family="Helvetica,sans-Serif" font-weight="bold" font-size="11.00" fill="#000000">EvaluationPeriods</text>
<text text-anchor="start" x="357.5437" y="-675.7776" font-family="Helvetica,sans-Serif" font-size="11.00" fill="#000000">[table]</text>
<polygon fill="none" stroke="#000000" points="173.5,-645.6776 173.5,-667.6776 298.5,-667.6776 298.5,-645.6776 173.5,-645.6776"/>
<image xlink:href="../../images/primaryKeys.png" width="11px" height="12px" preserveAspectRatio="xMinYMin meet" x="178.5" y="-662.678"/>
<text text-anchor="start" x="193.5" y="-652.7776" font-family="Helvetica,sans-Serif" font-size="11.00" fill="#000000">Id</text>
<polygon fill="none" stroke="#000000" points="298.5,-645.6776 298.5,-667.6776 392.5,-667.6776 392.5,-645.6776 298.5,-645.6776"/>
<text text-anchor="start" x="301.4758" y="-653.3776" font-family="Helvetica,sans-Serif" font-size="11.00" fill="#000000">uuid[2147483647]</text>
<polygon fill="none" stroke="#000000" points="173.5,-623.6776 173.5,-645.6776 298.5,-645.6776 298.5,-623.6776 173.5,-623.6776"/>
<text text-anchor="start" x="193.5" y="-630.7776" font-family="Helvetica,sans-Serif" font-size="11.00" fill="#000000">Title</text>
<polygon fill="none" stroke="#000000" points="298.5,-623.6776 298.5,-645.6776 392.5,-645.6776 392.5,-623.6776 298.5,-623.6776"/>
<text text-anchor="start" x="301.5" y="-631.3776" font-family="Helvetica,sans-Serif" font-size="11.00" fill="#000000">text[2147483647]</text>
<polygon fill="none" stroke="#000000" points="173.5,-601.6776 173.5,-623.6776 298.5,-623.6776 298.5,-601.6776 173.5,-601.6776"/>
<text text-anchor="start" x="193.5" y="-608.7776" font-family="Helvetica,sans-Serif" font-size="11.00" fill="#000000">Description</text>
<polygon fill="none" stroke="#000000" points="298.5,-601.6776 298.5,-623.6776 392.5,-623.6776 392.5,-601.6776 298.5,-601.6776"/>
<text text-anchor="start" x="301.5" y="-609.3776" font-family="Helvetica,sans-Serif" font-size="11.00" fill="#000000">text[2147483647]</text>
<polygon fill="none" stroke="#000000" points="173.5,-579.6776 173.5,-601.6776 298.5,-601.6776 298.5,-579.6776 173.5,-579.6776"/>
<text text-anchor="start" x="193.5" y="-586.7776" font-family="Helvetica,sans-Serif" font-size="11.00" fill="#000000">PeriodFrom</text>
<polygon fill="none" stroke="#000000" points="298.5,-579.6776 298.5,-601.6776 392.5,-601.6776 392.5,-579.6776 298.5,-579.6776"/>
<text text-anchor="start" x="301.5" y="-587.3776" font-family="Helvetica,sans-Serif" font-size="11.00" fill="#000000">timestamptz[35,6]</text>
<polygon fill="none" stroke="#000000" points="173.5,-557.6776 173.5,-579.6776 298.5,-579.6776 298.5,-557.6776 173.5,-557.6776"/>
<text text-anchor="start" x="193.5" y="-564.7776" font-family="Helvetica,sans-Serif" font-size="11.00" fill="#000000">PeriodTo</text>
<polygon fill="none" stroke="#000000" points="298.5,-557.6776 298.5,-579.6776 392.5,-579.6776 392.5,-557.6776 298.5,-557.6776"/>
<text text-anchor="start" x="301.5" y="-565.3776" font-family="Helvetica,sans-Serif" font-size="11.00" fill="#000000">timestamptz[35,6]</text>
<polygon fill="none" stroke="#000000" points="173.5,-535.6776 173.5,-557.6776 298.5,-557.6776 298.5,-535.6776 173.5,-535.6776"/>
<text text-anchor="start" x="193.5" y="-542.7776" font-family="Helvetica,sans-Serif" font-size="11.00" fill="#000000">IsActive</text>
<polygon fill="none" stroke="#000000" points="298.5,-535.6776 298.5,-557.6776 392.5,-557.6776 392.5,-535.6776 298.5,-535.6776"/>
<text text-anchor="start" x="301.5" y="-543.3776" font-family="Helvetica,sans-Serif" font-size="11.00" fill="#000000">bool[1]</text>
<polygon fill="none" stroke="#000000" points="173.5,-513.6776 173.5,-535.6776 298.5,-535.6776 298.5,-513.6776 173.5,-513.6776"/>
<text text-anchor="start" x="193.5" y="-520.7776" font-family="Helvetica,sans-Serif" font-size="11.00" fill="#000000">CreatedAt</text>
<polygon fill="none" stroke="#000000" points="298.5,-513.6776 298.5,-535.6776 392.5,-535.6776 392.5,-513.6776 298.5,-513.6776"/>
<text text-anchor="start" x="301.5" y="-521.3776" font-family="Helvetica,sans-Serif" font-size="11.00" fill="#000000">timestamptz[35,6]</text>
<polygon fill="none" stroke="#000000" points="173.5,-491.6776 173.5,-513.6776 298.5,-513.6776 298.5,-491.6776 173.5,-491.6776"/>
<text text-anchor="start" x="193.5" y="-498.7776" font-family="Helvetica,sans-Serif" font-size="11.00" fill="#000000">UpdatedAt</text>
<polygon fill="none" stroke="#000000" points="298.5,-491.6776 298.5,-513.6776 392.5,-513.6776 392.5,-491.6776 298.5,-491.6776"/>
<text text-anchor="start" x="301.5" y="-499.3776" font-family="Helvetica,sans-Serif" font-size="11.00" fill="#000000">timestamptz[35,6]</text>
<polygon fill="#ffffff" stroke="transparent" points="173.5,-469.6776 173.5,-491.6776 298.5,-491.6776 298.5,-469.6776 173.5,-469.6776"/>
<polygon fill="none" stroke="#000000" points="173.5,-469.6776 173.5,-491.6776 298.5,-491.6776 298.5,-469.6776 173.5,-469.6776"/>
<image xlink:href="../../images/foreignKeys.png" width="11px" height="12px" preserveAspectRatio="xMinYMin meet" x="178.5" y="-486.678"/>
<text text-anchor="start" x="193.5" y="-476.7776" font-family="Helvetica,sans-Serif" font-size="11.00" fill="#000000">CreatedByUserId</text>
<polygon fill="none" stroke="#000000" points="298.5,-469.6776 298.5,-491.6776 392.5,-491.6776 392.5,-469.6776 298.5,-469.6776"/>
<text text-anchor="start" x="301.5" y="-477.3776" font-family="Helvetica,sans-Serif" font-size="11.00" fill="#000000">text[2147483647]</text>
<polygon fill="#ffffff" stroke="transparent" points="173.5,-447.6776 173.5,-469.6776 298.5,-469.6776 298.5,-447.6776 173.5,-447.6776"/>
<polygon fill="none" stroke="#000000" points="173.5,-447.6776 173.5,-469.6776 298.5,-469.6776 298.5,-447.6776 173.5,-447.6776"/>
<image xlink:href="../../images/foreignKeys.png" width="11px" height="12px" preserveAspectRatio="xMinYMin meet" x="178.5" y="-464.678"/>
<text text-anchor="start" x="193.5" y="-454.7776" font-family="Helvetica,sans-Serif" font-size="11.00" fill="#000000">UpdatedByUserId</text>
<polygon fill="none" stroke="#000000" points="298.5,-447.6776 298.5,-469.6776 392.5,-469.6776 392.5,-447.6776 298.5,-447.6776"/>
<text text-anchor="start" x="301.5" y="-455.3776" font-family="Helvetica,sans-Serif" font-size="11.00" fill="#000000">text[2147483647]</text>
<polygon fill="#ffffff" stroke="transparent" points="173.5,-428.6776 173.5,-447.6776 227.5,-447.6776 227.5,-428.6776 173.5,-428.6776"/>
<polygon fill="none" stroke="#000000" points="173.5,-428.6776 173.5,-447.6776 227.5,-447.6776 227.5,-428.6776 173.5,-428.6776"/>
<text text-anchor="start" x="176.5" y="-434.7776" font-family="Helvetica,sans-Serif" font-size="11.00" fill="#000000">&lt; 2</text>
<polygon fill="#ffffff" stroke="transparent" points="227.5,-428.6776 227.5,-447.6776 298.5,-447.6776 298.5,-428.6776 227.5,-428.6776"/>
<polygon fill="none" stroke="#000000" points="227.5,-428.6776 227.5,-447.6776 298.5,-447.6776 298.5,-428.6776 227.5,-428.6776"/>
<text text-anchor="start" x="263.1105" y="-434.7776" font-family="Helvetica,sans-Serif" font-size="11.00" fill="#000000">0 rows</text>
<polygon fill="#ffffff" stroke="transparent" points="298.5,-428.6776 298.5,-447.6776 392.5,-447.6776 392.5,-428.6776 298.5,-428.6776"/>
<polygon fill="none" stroke="#000000" points="298.5,-428.6776 298.5,-447.6776 392.5,-447.6776 392.5,-428.6776 298.5,-428.6776"/>
<text text-anchor="start" x="373.9053" y="-434.7776" font-family="Helvetica,sans-Serif" font-size="11.00" fill="#000000">3 &gt;</text>
<polygon fill="none" stroke="#000000" stroke-width="2" points="172,-427.6776 172,-691.6776 393,-691.6776 393,-427.6776 172,-427.6776"/>
</a>
</g>
</g>
<!-- EvaluationPeriods&#45;&gt;AspNetUsers -->
<g id="edge12" class="edge">
<title>EvaluationPeriods:w&#45;&gt;AspNetUsers:e</title>
<path fill="none" stroke="#000000" d="M159.4981,-485.1123C120.5432,-509.4782 87.4384,-628.1472 72.8987,-688.0049"/>
<polygon fill="#000000" stroke="#000000" points="165.8734,-483.0932 174.587,-484.1096 169.6867,-481.8854 173.5,-480.6776 173.5,-480.6776 173.5,-480.6776 169.6867,-481.8854 172.413,-477.2456 165.8734,-483.0932 165.8734,-483.0932"/>
<ellipse fill="none" stroke="#000000" cx="162.8227" cy="-484.0594" rx="3.2" ry="3.2"/>
</g>
<!-- EvaluationPeriods&#45;&gt;AspNetUsers -->
<g id="edge13" class="edge">
<title>EvaluationPeriods:w&#45;&gt;AspNetUsers:e</title>
<path fill="none" stroke="#000000" d="M159.4533,-462.9684C117.228,-488.6989 84.9264,-623.5922 71.63,-688.1642"/>
<polygon fill="#000000" stroke="#000000" points="165.849,-461.0148 174.5517,-462.1206 169.6745,-459.8462 173.5,-458.6776 173.5,-458.6776 173.5,-458.6776 169.6745,-459.8462 172.4483,-455.2347 165.849,-461.0148 165.849,-461.0148"/>
<ellipse fill="none" stroke="#000000" cx="162.7886" cy="-461.9496" rx="3.2" ry="3.2"/>
</g>
<!-- EvaluationPeriodTechnicalCareer -->
<g id="node11" class="node">
<title>EvaluationPeriodTechnicalCareer</title>
<g id="a_node11"><a xlink:href="../../tables/EvaluationPeriodTechnicalCareer.html" xlink:title="EvaluationPeriodTechnicalCareer" target="_top">
<polygon fill="#ffffff" stroke="transparent" points="449,-445.6776 449,-531.6776 679,-531.6776 679,-445.6776 449,-445.6776"/>
<polygon fill="#f5f5f5" stroke="transparent" points="449,-508.6776 449,-531.6776 679,-531.6776 679,-508.6776 449,-508.6776"/>
<polygon fill="none" stroke="#000000" points="449,-508.6776 449,-531.6776 679,-531.6776 679,-508.6776 449,-508.6776"/>
<text text-anchor="start" x="454" y="-517.2776" font-family="Helvetica,sans-Serif" font-weight="bold" font-size="11.00" fill="#000000">EvaluationPeriodTechnicalCareer</text>
<text text-anchor="start" x="644.5219" y="-516.7776" font-family="Helvetica,sans-Serif" font-size="11.00" fill="#000000">[table]</text>
<polygon fill="none" stroke="#000000" points="449,-486.6776 449,-508.6776 679,-508.6776 679,-486.6776 449,-486.6776"/>
<image xlink:href="../../images/primaryKeys.png" width="11px" height="12px" preserveAspectRatio="xMinYMin meet" x="454" y="-503.678"/>
<text text-anchor="start" x="478" y="-493.7776" font-family="Helvetica,sans-Serif" font-size="11.00" fill="#000000">EvaluationPeriodsId</text>
<polygon fill="none" stroke="#000000" points="449,-464.6776 449,-486.6776 679,-486.6776 679,-464.6776 449,-464.6776"/>
<image xlink:href="../../images/primaryKeys.png" width="11px" height="12px" preserveAspectRatio="xMinYMin meet" x="454" y="-481.678"/>
<text text-anchor="start" x="478" y="-471.7776" font-family="Helvetica,sans-Serif" font-size="11.00" fill="#000000">TechnicalCareersId</text>
<polygon fill="#ffffff" stroke="transparent" points="449,-445.6776 449,-464.6776 549,-464.6776 549,-445.6776 449,-445.6776"/>
<polygon fill="none" stroke="#000000" points="449,-445.6776 449,-464.6776 549,-464.6776 549,-445.6776 449,-445.6776"/>
<text text-anchor="start" x="452" y="-451.7776" font-family="Helvetica,sans-Serif" font-size="11.00" fill="#000000">&lt; 2</text>
<polygon fill="#ffffff" stroke="transparent" points="549,-445.6776 549,-464.6776 627,-464.6776 627,-445.6776 549,-445.6776"/>
<polygon fill="none" stroke="#000000" points="549,-445.6776 549,-464.6776 627,-464.6776 627,-445.6776 549,-445.6776"/>
<text text-anchor="start" x="591.6105" y="-451.7776" font-family="Helvetica,sans-Serif" font-size="11.00" fill="#000000">0 rows</text>
<polygon fill="#ffffff" stroke="transparent" points="627,-445.6776 627,-464.6776 679,-464.6776 679,-445.6776 627,-445.6776"/>
<polygon fill="none" stroke="#000000" points="627,-445.6776 627,-464.6776 679,-464.6776 679,-445.6776 627,-445.6776"/>
<text text-anchor="start" x="669.8862" y="-451.7776" font-family="Helvetica,sans-Serif" font-size="11.00" fill="#000000"> &#160;</text>
</a>
</g>
</g>
<!-- EvaluationPeriodTechnicalCareer&#45;&gt;TechnicalCareers -->
<g id="edge15" class="edge">
<title>EvaluationPeriodTechnicalCareer:w&#45;&gt;TechnicalCareers:e</title>
<path fill="none" stroke="#000000" d="M434.4385,-473.8365C391.4658,-461.0453 435.3971,-384.4423 402,-333.6776 385.8223,-309.0869 381.935,-289.6776 352.5,-289.6776"/>
<polygon fill="#000000" stroke="#000000" points="441.0632,-474.674 448.5484,-479.2492 445.0316,-475.1758 449,-475.6776 449,-475.6776 449,-475.6776 445.0316,-475.1758 449.4516,-472.1061 441.0632,-474.674 441.0632,-474.674"/>
<ellipse fill="none" stroke="#000000" cx="437.8885" cy="-474.2726" rx="3.2" ry="3.2"/>
</g>
<!-- EvaluationPeriodTechnicalCareer&#45;&gt;EvaluationPeriods -->
<g id="edge14" class="edge">
<title>EvaluationPeriodTechnicalCareer:w&#45;&gt;EvaluationPeriods:e</title>
<path fill="none" stroke="#000000" d="M434.6462,-500.3047C387.2696,-520.9777 461.7831,-656.6776 392.5,-656.6776"/>
<polygon fill="#000000" stroke="#000000" points="441.1307,-499.1179 449.6481,-501.2188 445.0654,-498.3978 449,-497.6776 449,-497.6776 449,-497.6776 445.0654,-498.3978 448.3519,-494.1364 441.1307,-499.1179 441.1307,-499.1179"/>
<ellipse fill="none" stroke="#000000" cx="437.983" cy="-499.694" rx="3.2" ry="3.2"/>
</g>
<!-- FormQuestions -->
<g id="node12" class="node">
<title>FormQuestions</title>
<g id="a_node12"><a xlink:href="../../tables/FormQuestions.html" xlink:title="FormQuestions" target="_top">
<polygon fill="#ffffff" stroke="transparent" points="500.5,-831.1776 500.5,-892.1776 627.5,-892.1776 627.5,-831.1776 500.5,-831.1776"/>
<polygon fill="#f5f5f5" stroke="transparent" points="501,-868.6776 501,-891.6776 628,-891.6776 628,-868.6776 501,-868.6776"/>
<polygon fill="none" stroke="#000000" points="501,-868.6776 501,-891.6776 628,-891.6776 628,-868.6776 501,-868.6776"/>
<text text-anchor="start" x="506" y="-877.2776" font-family="Helvetica,sans-Serif" font-weight="bold" font-size="11.00" fill="#000000">FormQuestions</text>
<text text-anchor="start" x="593.5219" y="-876.7776" font-family="Helvetica,sans-Serif" font-size="11.00" fill="#000000">[table]</text>
<polygon fill="none" stroke="#000000" points="501,-849.6776 501,-868.6776 628,-868.6776 628,-849.6776 501,-849.6776"/>
<text text-anchor="start" x="504" y="-855.7776" font-family="Helvetica,sans-Serif" font-size="11.00" fill="#000000">...</text>
<polygon fill="#ffffff" stroke="transparent" points="501,-830.6776 501,-849.6776 545,-849.6776 545,-830.6776 501,-830.6776"/>
<polygon fill="none" stroke="#000000" points="501,-830.6776 501,-849.6776 545,-849.6776 545,-830.6776 501,-830.6776"/>
<text text-anchor="start" x="504" y="-836.7776" font-family="Helvetica,sans-Serif" font-size="11.00" fill="#000000">&lt; 3</text>
<polygon fill="#ffffff" stroke="transparent" points="545,-830.6776 545,-849.6776 595,-849.6776 595,-830.6776 545,-830.6776"/>
<polygon fill="none" stroke="#000000" points="545,-830.6776 545,-849.6776 595,-849.6776 595,-830.6776 545,-830.6776"/>
<text text-anchor="start" x="559.6105" y="-836.7776" font-family="Helvetica,sans-Serif" font-size="11.00" fill="#000000">0 rows</text>
<polygon fill="#ffffff" stroke="transparent" points="595,-830.6776 595,-849.6776 628,-849.6776 628,-830.6776 595,-830.6776"/>
<polygon fill="none" stroke="#000000" points="595,-830.6776 595,-849.6776 628,-849.6776 628,-830.6776 595,-830.6776"/>
<text text-anchor="start" x="609.4053" y="-836.7776" font-family="Helvetica,sans-Serif" font-size="11.00" fill="#000000">1 &gt;</text>
</a>
</g>
</g>
<!-- FormQuestions&#45;&gt;AspNetUsers -->
<g id="edge17" class="edge">
<title>FormQuestions:w&#45;&gt;AspNetUsers:e</title>
<path fill="none" stroke="#000000" d="M486.5262,-857.5831C403.0123,-851.4875 227.3422,-841.2913 163,-810.6776 137.028,-798.3203 113.5536,-776.3925 96.0949,-757.472"/>
<polygon fill="#000000" stroke="#000000" points="493.0228,-858.0743 500.7285,-862.2674 497.0114,-858.376 501,-858.6776 501,-858.6776 501,-858.6776 497.0114,-858.376 501.2715,-855.0879 493.0228,-858.0743 493.0228,-858.0743"/>
<ellipse fill="none" stroke="#000000" cx="489.8319" cy="-857.833" rx="3.2" ry="3.2"/>
</g>
<!-- FormQuestions&#45;&gt;AspNetUsers -->
<g id="edge18" class="edge">
<title>FormQuestions:w&#45;&gt;AspNetUsers:e</title>
<path fill="none" stroke="#000000" d="M486.5262,-859.737C403.0123,-864.4875 227.3422,-854.2913 163,-823.6776 131.9188,-808.8893 104.4145,-780.3948 86.5165,-757.3393"/>
<polygon fill="#000000" stroke="#000000" points="493.0213,-859.2617 501.2628,-862.268 497.0107,-858.9696 501,-858.6776 501,-858.6776 501,-858.6776 497.0107,-858.9696 500.7372,-855.0872 493.0213,-859.2617 493.0213,-859.2617"/>
<ellipse fill="none" stroke="#000000" cx="489.8299" cy="-859.4953" rx="3.2" ry="3.2"/>
</g>
<!-- FormQuestions&#45;&gt;Competencies -->
<g id="edge16" class="edge">
<title>FormQuestions:w&#45;&gt;Competencies:e</title>
<path fill="none" stroke="#000000" d="M486.2434,-859.2592C426.6604,-864.1107 410.4027,-897.6776 343.5,-897.6776"/>
<polygon fill="#000000" stroke="#000000" points="493.0062,-858.9927 501.1418,-862.2748 497.0031,-858.8352 501,-858.6776 501,-858.6776 501,-858.6776 497.0031,-858.8352 500.8582,-855.0804 493.0062,-858.9927 493.0062,-858.9927"/>
<ellipse fill="none" stroke="#000000" cx="489.8087" cy="-859.1187" rx="3.2" ry="3.2"/>
</g>
<!-- ProfessorCompetencyAssignments -->
<g id="node13" class="node">
<title>ProfessorCompetencyAssignments</title>
<g id="a_node13"><a xlink:href="../../tables/ProfessorCompetencyAssignments.html" xlink:title="ProfessorCompetencyAssignments" target="_top">
<polygon fill="#ffffff" stroke="transparent" points="443,-670.1776 443,-731.1776 685,-731.1776 685,-670.1776 443,-670.1776"/>
<polygon fill="#f5f5f5" stroke="transparent" points="443,-707.6776 443,-730.6776 685,-730.6776 685,-707.6776 443,-707.6776"/>
<polygon fill="none" stroke="#000000" points="443,-707.6776 443,-730.6776 685,-730.6776 685,-707.6776 443,-707.6776"/>
<text text-anchor="start" x="448" y="-716.2776" font-family="Helvetica,sans-Serif" font-weight="bold" font-size="11.00" fill="#000000">ProfessorCompetencyAssignments</text>
<text text-anchor="start" x="650.5219" y="-715.7776" font-family="Helvetica,sans-Serif" font-size="11.00" fill="#000000">[table]</text>
<polygon fill="none" stroke="#000000" points="443,-688.6776 443,-707.6776 685,-707.6776 685,-688.6776 443,-688.6776"/>
<text text-anchor="start" x="446" y="-694.7776" font-family="Helvetica,sans-Serif" font-size="11.00" fill="#000000">...</text>
<polygon fill="#ffffff" stroke="transparent" points="443,-669.6776 443,-688.6776 545,-688.6776 545,-669.6776 443,-669.6776"/>
<polygon fill="none" stroke="#000000" points="443,-669.6776 443,-688.6776 545,-688.6776 545,-669.6776 443,-669.6776"/>
<text text-anchor="start" x="446" y="-675.7776" font-family="Helvetica,sans-Serif" font-size="11.00" fill="#000000">&lt; 6</text>
<polygon fill="#ffffff" stroke="transparent" points="545,-669.6776 545,-688.6776 623,-688.6776 623,-669.6776 545,-669.6776"/>
<polygon fill="none" stroke="#000000" points="545,-669.6776 545,-688.6776 623,-688.6776 623,-669.6776 545,-669.6776"/>
<text text-anchor="start" x="587.6105" y="-675.7776" font-family="Helvetica,sans-Serif" font-size="11.00" fill="#000000">0 rows</text>
<polygon fill="#ffffff" stroke="transparent" points="623,-669.6776 623,-688.6776 685,-688.6776 685,-669.6776 623,-669.6776"/>
<polygon fill="none" stroke="#000000" points="623,-669.6776 623,-688.6776 685,-688.6776 685,-669.6776 623,-669.6776"/>
<text text-anchor="start" x="666.4053" y="-675.7776" font-family="Helvetica,sans-Serif" font-size="11.00" fill="#000000">1 &gt;</text>
</a>
</g>
</g>
<!-- ProfessorCompetencyAssignments&#45;&gt;AspNetUsers -->
<g id="edge20" class="edge">
<title>ProfessorCompetencyAssignments:w&#45;&gt;AspNetUsers:e</title>
<path fill="none" stroke="#000000" d="M420.3273,-702.8929C324.6798,-706.3786 203.5626,-712.0397 130.2936,-716.6437"/>
<polygon fill="#000000" stroke="#000000" points="426.8513,-702.6597 434.9748,-705.9714 430.8487,-702.5167 434.8462,-702.3737 434.8462,-702.3737 434.8462,-702.3737 430.8487,-702.5167 434.7175,-698.776 426.8513,-702.6597 426.8513,-702.6597"/>
<ellipse fill="none" stroke="#000000" cx="423.6533" cy="-702.774" rx="3.2" ry="3.2"/>
</g>
<!-- ProfessorCompetencyAssignments&#45;&gt;AspNetUsers -->
<g id="edge24" class="edge">
<title>ProfessorCompetencyAssignments:w&#45;&gt;AspNetUsers:e</title>
<path fill="none" stroke="#000000" d="M420.3273,-711.8174C324.6798,-716.8874 203.5626,-721.8524 130.2936,-723.4801"/>
<polygon fill="#000000" stroke="#000000" points="426.8577,-711.466 435.0396,-714.631 430.8519,-711.2511 434.8462,-711.0362 434.8462,-711.0362 434.8462,-711.0362 430.8519,-711.2511 434.6527,-707.4414 426.8577,-711.466 426.8577,-711.466"/>
<ellipse fill="none" stroke="#000000" cx="423.6623" cy="-711.638" rx="3.2" ry="3.2"/>
</g>
<!-- ProfessorCompetencyAssignments&#45;&gt;Competencies -->
<g id="edge19" class="edge">
<title>ProfessorCompetencyAssignments:w&#45;&gt;Competencies:e</title>
<path fill="none" stroke="#000000" d="M515.4589,-745.4983C452.2732,-803.631 349.175,-897.6776 343.5,-897.6776"/>
<polygon fill="#000000" stroke="#000000" points="520.4935,-740.8627 528.8172,-738.0921 523.4361,-738.1532 526.3787,-735.4438 526.3787,-735.4438 526.3787,-735.4438 523.4361,-738.1532 523.9402,-732.7954 520.4935,-740.8627 520.4935,-740.8627"/>
<ellipse fill="none" stroke="#000000" cx="518.1394" cy="-743.0302" rx="3.2" ry="3.2"/>
</g>
<!-- ProfessorCompetencyAssignments&#45;&gt;TechnicalCareers -->
<g id="edge23" class="edge">
<title>ProfessorCompetencyAssignments:w&#45;&gt;TechnicalCareers:e</title>
<path fill="none" stroke="#000000" d="M516.4229,-655.5379C488.1696,-625.9013 454.212,-584.7595 435,-541.6776 387.0023,-434.0455 470.3492,-289.6776 352.5,-289.6776"/>
<polygon fill="#000000" stroke="#000000" points="520.9534,-660.1882 523.9575,-668.4305 523.7448,-663.0532 526.5361,-665.9183 526.5361,-665.9183 526.5361,-665.9183 523.7448,-663.0532 529.1146,-663.4062 520.9534,-660.1882 520.9534,-660.1882"/>
<ellipse fill="none" stroke="#000000" cx="518.7204" cy="-657.8961" rx="3.2" ry="3.2"/>
</g>
<!-- ProfessorCompetencyAssignments&#45;&gt;EvaluationPeriods -->
<g id="edge21" class="edge">
<title>ProfessorCompetencyAssignments:w&#45;&gt;EvaluationPeriods:e</title>
<path fill="none" stroke="#000000" d="M449.6735,-662.9744C430.7777,-659.1726 411.2385,-656.6776 392.5,-656.6776"/>
<polygon fill="#000000" stroke="#000000" points="456.1604,-664.3998 463.2014,-669.6328 460.0672,-665.2582 463.974,-666.1167 463.974,-666.1167 463.974,-666.1167 460.0672,-665.2582 464.7466,-662.6006 456.1604,-664.3998 456.1604,-664.3998"/>
<ellipse fill="none" stroke="#000000" cx="453.035" cy="-663.713" rx="3.2" ry="3.2"/>
</g>
<!-- Professors -->
<g id="node14" class="node">
<title>Professors</title>
<g id="a_node14"><a xlink:href="../../tables/Professors.html" xlink:title="Professors" target="_top">
<polygon fill="#ffffff" stroke="transparent" points="232,-344.1776 232,-405.1776 333,-405.1776 333,-344.1776 232,-344.1776"/>
<polygon fill="#f5f5f5" stroke="transparent" points="232.5,-381.6776 232.5,-404.6776 333.5,-404.6776 333.5,-381.6776 232.5,-381.6776"/>
<polygon fill="none" stroke="#000000" points="232.5,-381.6776 232.5,-404.6776 333.5,-404.6776 333.5,-381.6776 232.5,-381.6776"/>
<text text-anchor="start" x="237.5" y="-390.2776" font-family="Helvetica,sans-Serif" font-weight="bold" font-size="11.00" fill="#000000">Professors</text>
<text text-anchor="start" x="299.0219" y="-389.7776" font-family="Helvetica,sans-Serif" font-size="11.00" fill="#000000">[table]</text>
<polygon fill="none" stroke="#000000" points="232.5,-362.6776 232.5,-381.6776 333.5,-381.6776 333.5,-362.6776 232.5,-362.6776"/>
<text text-anchor="start" x="235.5" y="-368.7776" font-family="Helvetica,sans-Serif" font-size="11.00" fill="#000000">...</text>
<polygon fill="#ffffff" stroke="transparent" points="232.5,-343.6776 232.5,-362.6776 263.5,-362.6776 263.5,-343.6776 232.5,-343.6776"/>
<polygon fill="none" stroke="#000000" points="232.5,-343.6776 232.5,-362.6776 263.5,-362.6776 263.5,-343.6776 232.5,-343.6776"/>
<text text-anchor="start" x="235.5" y="-349.7776" font-family="Helvetica,sans-Serif" font-size="11.00" fill="#000000">&lt; 1</text>
<polygon fill="#ffffff" stroke="transparent" points="263.5,-343.6776 263.5,-362.6776 306.5,-362.6776 306.5,-343.6776 263.5,-343.6776"/>
<polygon fill="none" stroke="#000000" points="263.5,-343.6776 263.5,-362.6776 306.5,-362.6776 306.5,-343.6776 263.5,-343.6776"/>
<text text-anchor="start" x="271.1105" y="-349.7776" font-family="Helvetica,sans-Serif" font-size="11.00" fill="#000000">0 rows</text>
<polygon fill="#ffffff" stroke="transparent" points="306.5,-343.6776 306.5,-362.6776 333.5,-362.6776 333.5,-343.6776 306.5,-343.6776"/>
<polygon fill="none" stroke="#000000" points="306.5,-343.6776 306.5,-362.6776 333.5,-362.6776 333.5,-343.6776 306.5,-343.6776"/>
<text text-anchor="start" x="314.9053" y="-349.7776" font-family="Helvetica,sans-Serif" font-size="11.00" fill="#000000">2 &gt;</text>
</a>
</g>
</g>
<!-- ProfessorCompetencyAssignments&#45;&gt;Professors -->
<g id="edge22" class="edge">
<title>ProfessorCompetencyAssignments:w&#45;&gt;Professors:e</title>
<path fill="none" stroke="#000000" d="M518.4439,-655.4416C490.6517,-625.4894 456.4592,-584.0406 435,-541.6776 408.8409,-490.0364 436.0108,-462.5218 402,-415.6776 380.7412,-386.3971 369.684,-371.6776 333.5,-371.6776"/>
<polygon fill="#000000" stroke="#000000" points="522.8644,-660.1213 525.741,-668.409 525.6112,-663.0291 528.358,-665.9368 528.358,-665.9368 528.358,-665.9368 525.6112,-663.0291 530.975,-663.4647 522.8644,-660.1213 522.8644,-660.1213"/>
<ellipse fill="none" stroke="#000000" cx="520.667" cy="-657.795" rx="3.2" ry="3.2"/>
</g>
<!-- Professors&#45;&gt;AspNetUsers -->
<g id="edge25" class="edge">
<title>Professors:w&#45;&gt;AspNetUsers:e</title>
<path fill="none" stroke="#000000" d="M221.7548,-372.179C193.576,-375.0101 182.9912,-389.7964 163,-415.6776 98.3602,-499.3624 75.7493,-626.8145 68.3415,-687.7956"/>
<polygon fill="#000000" stroke="#000000" points="231.5144,-367.7193 231.8874,-375.7106 230.2891,-375.7852 229.9161,-367.7939 231.5144,-367.7193"/>
<polyline fill="none" stroke="#000000" points="232.5,-371.6776 228.5043,-371.8641 "/>
<ellipse fill="none" stroke="#000000" cx="225.3078" cy="-372.0133" rx="3.2" ry="3.2"/>
</g>
<!-- QuestionResponses -->
<g id="node15" class="node">
<title>QuestionResponses</title>
<g id="a_node15"><a xlink:href="../../tables/QuestionResponses.html" xlink:title="QuestionResponses" target="_top">
<polygon fill="#ffffff" stroke="transparent" points="1006,-773.1776 1006,-834.1776 1161,-834.1776 1161,-773.1776 1006,-773.1776"/>
<polygon fill="#f5f5f5" stroke="transparent" points="1006.5,-810.6776 1006.5,-833.6776 1161.5,-833.6776 1161.5,-810.6776 1006.5,-810.6776"/>
<polygon fill="none" stroke="#000000" points="1006.5,-810.6776 1006.5,-833.6776 1161.5,-833.6776 1161.5,-810.6776 1006.5,-810.6776"/>
<text text-anchor="start" x="1011.5" y="-819.2776" font-family="Helvetica,sans-Serif" font-weight="bold" font-size="11.00" fill="#000000">QuestionResponses</text>
<text text-anchor="start" x="1127.0219" y="-818.7776" font-family="Helvetica,sans-Serif" font-size="11.00" fill="#000000">[table]</text>
<polygon fill="none" stroke="#000000" points="1006.5,-791.6776 1006.5,-810.6776 1161.5,-810.6776 1161.5,-791.6776 1006.5,-791.6776"/>
<text text-anchor="start" x="1009.5" y="-797.7776" font-family="Helvetica,sans-Serif" font-size="11.00" fill="#000000">...</text>
<polygon fill="#ffffff" stroke="transparent" points="1006.5,-772.6776 1006.5,-791.6776 1069.5,-791.6776 1069.5,-772.6776 1006.5,-772.6776"/>
<polygon fill="none" stroke="#000000" points="1006.5,-772.6776 1006.5,-791.6776 1069.5,-791.6776 1069.5,-772.6776 1006.5,-772.6776"/>
<text text-anchor="start" x="1009.5" y="-778.7776" font-family="Helvetica,sans-Serif" font-size="11.00" fill="#000000">&lt; 4</text>
<polygon fill="#ffffff" stroke="transparent" points="1069.5,-772.6776 1069.5,-791.6776 1128.5,-791.6776 1128.5,-772.6776 1069.5,-772.6776"/>
<polygon fill="none" stroke="#000000" points="1069.5,-772.6776 1069.5,-791.6776 1128.5,-791.6776 1128.5,-772.6776 1069.5,-772.6776"/>
<text text-anchor="start" x="1093.1105" y="-778.7776" font-family="Helvetica,sans-Serif" font-size="11.00" fill="#000000">0 rows</text>
<polygon fill="#ffffff" stroke="transparent" points="1128.5,-772.6776 1128.5,-791.6776 1161.5,-791.6776 1161.5,-772.6776 1128.5,-772.6776"/>
<polygon fill="none" stroke="#000000" points="1128.5,-772.6776 1128.5,-791.6776 1161.5,-791.6776 1161.5,-772.6776 1128.5,-772.6776"/>
<text text-anchor="start" x="1152.3862" y="-778.7776" font-family="Helvetica,sans-Serif" font-size="11.00" fill="#000000"> &#160;</text>
</a>
</g>
</g>
<!-- QuestionResponses&#45;&gt;AspNetUsers -->
<g id="edge26" class="edge">
<title>QuestionResponses:w&#45;&gt;AspNetUsers:e</title>
<path fill="none" stroke="#000000" d="M992.0611,-800.4553C628.396,-795.0677 528.1374,-809.4342 163,-745.6776 152.2506,-743.8007 141.0101,-741.1519 130.1348,-738.2936"/>
<polygon fill="#000000" stroke="#000000" points="998.5009,-800.5544 1006.4446,-804.2772 1002.5005,-800.616 1006.5,-800.6776 1006.5,-800.6776 1006.5,-800.6776 1002.5005,-800.616 1006.5554,-797.078 998.5009,-800.5544 998.5009,-800.5544"/>
<ellipse fill="none" stroke="#000000" cx="995.3013" cy="-800.5051" rx="3.2" ry="3.2"/>
</g>
<!-- QuestionResponses&#45;&gt;AspNetUsers -->
<g id="edge29" class="edge">
<title>QuestionResponses:w&#45;&gt;AspNetUsers:e</title>
<path fill="none" stroke="#000000" d="M992.0611,-800.9535C628.396,-808.0677 528.1374,-822.4342 163,-758.6776 152.2506,-756.8007 141.0101,-754.1519 130.1348,-751.1133"/>
<polygon fill="#000000" stroke="#000000" points="998.5015,-800.8305 1006.5688,-804.277 1002.5007,-800.754 1006.5,-800.6776 1006.5,-800.6776 1006.5,-800.6776 1002.5007,-800.754 1006.4312,-797.0783 998.5015,-800.8305 998.5015,-800.8305"/>
<ellipse fill="none" stroke="#000000" cx="995.302" cy="-800.8916" rx="3.2" ry="3.2"/>
</g>
<!-- QuestionResponses&#45;&gt;FormQuestions -->
<g id="edge27" class="edge">
<title>QuestionResponses:w&#45;&gt;FormQuestions:e</title>
<path fill="none" stroke="#000000" d="M992.2669,-803.2964C983.6302,-806.9027 978.331,-813.3306 965,-816.6776 818.607,-853.4325 778.9365,-858.6776 628,-858.6776"/>
<polygon fill="#000000" stroke="#000000" points="998.6321,-802.1253 1007.1515,-804.2182 1002.566,-801.4015 1006.5,-800.6776 1006.5,-800.6776 1006.5,-800.6776 1002.566,-801.4015 1005.8485,-797.137 998.6321,-802.1253 998.6321,-802.1253"/>
<ellipse fill="none" stroke="#000000" cx="995.4849" cy="-802.7044" rx="3.2" ry="3.2"/>
</g>
<!-- StudentCompetencyEvaluations -->
<g id="node16" class="node">
<title>StudentCompetencyEvaluations</title>
<g id="a_node16"><a xlink:href="../../tables/StudentCompetencyEvaluations.html" xlink:title="StudentCompetencyEvaluations" target="_top">
<polygon fill="#ffffff" stroke="transparent" points="734,-709.1776 734,-770.1776 957,-770.1776 957,-709.1776 734,-709.1776"/>
<polygon fill="#f5f5f5" stroke="transparent" points="734.5,-746.6776 734.5,-769.6776 957.5,-769.6776 957.5,-746.6776 734.5,-746.6776"/>
<polygon fill="none" stroke="#000000" points="734.5,-746.6776 734.5,-769.6776 957.5,-769.6776 957.5,-746.6776 734.5,-746.6776"/>
<text text-anchor="start" x="739.5" y="-755.2776" font-family="Helvetica,sans-Serif" font-weight="bold" font-size="11.00" fill="#000000">StudentCompetencyEvaluations</text>
<text text-anchor="start" x="923.0219" y="-754.7776" font-family="Helvetica,sans-Serif" font-size="11.00" fill="#000000">[table]</text>
<polygon fill="none" stroke="#000000" points="734.5,-727.6776 734.5,-746.6776 957.5,-746.6776 957.5,-727.6776 734.5,-727.6776"/>
<text text-anchor="start" x="737.5" y="-733.7776" font-family="Helvetica,sans-Serif" font-size="11.00" fill="#000000">...</text>
<polygon fill="#ffffff" stroke="transparent" points="734.5,-708.6776 734.5,-727.6776 826.5,-727.6776 826.5,-708.6776 734.5,-708.6776"/>
<polygon fill="none" stroke="#000000" points="734.5,-708.6776 734.5,-727.6776 826.5,-727.6776 826.5,-708.6776 734.5,-708.6776"/>
<text text-anchor="start" x="737.5" y="-714.7776" font-family="Helvetica,sans-Serif" font-size="11.00" fill="#000000">&lt; 4</text>
<polygon fill="#ffffff" stroke="transparent" points="826.5,-708.6776 826.5,-727.6776 900.5,-727.6776 900.5,-708.6776 826.5,-708.6776"/>
<polygon fill="none" stroke="#000000" points="826.5,-708.6776 826.5,-727.6776 900.5,-727.6776 900.5,-708.6776 826.5,-708.6776"/>
<text text-anchor="start" x="865.1105" y="-714.7776" font-family="Helvetica,sans-Serif" font-size="11.00" fill="#000000">0 rows</text>
<polygon fill="#ffffff" stroke="transparent" points="900.5,-708.6776 900.5,-727.6776 957.5,-727.6776 957.5,-708.6776 900.5,-708.6776"/>
<polygon fill="none" stroke="#000000" points="900.5,-708.6776 900.5,-727.6776 957.5,-727.6776 957.5,-708.6776 900.5,-708.6776"/>
<text text-anchor="start" x="938.9053" y="-714.7776" font-family="Helvetica,sans-Serif" font-size="11.00" fill="#000000">1 &gt;</text>
</a>
</g>
</g>
<!-- QuestionResponses&#45;&gt;StudentCompetencyEvaluations -->
<g id="edge28" class="edge">
<title>QuestionResponses:w&#45;&gt;StudentCompetencyEvaluations:e</title>
<path fill="none" stroke="#000000" d="M992.6165,-795.6556C976.7339,-780.5682 987.1667,-736.6776 957.5,-736.6776"/>
<polygon fill="#000000" stroke="#000000" points="998.977,-797.9564 1005.2754,-804.063 1002.7385,-799.317 1006.5,-800.6776 1006.5,-800.6776 1006.5,-800.6776 1002.7385,-799.317 1007.7246,-797.2923 998.977,-797.9564 998.977,-797.9564"/>
<ellipse fill="none" stroke="#000000" cx="995.9678" cy="-796.8679" rx="3.2" ry="3.2"/>
</g>
<!-- StudentCompetencyEvaluations&#45;&gt;AspNetUsers -->
<g id="edge30" class="edge">
<title>StudentCompetencyEvaluations:w&#45;&gt;AspNetUsers:e</title>
<path fill="none" stroke="#000000" d="M720.3778,-733.5628C711.8026,-732.836 705.7493,-734.9124 693,-735.6776 457.7969,-749.7954 398.2772,-735.5018 163,-722.6776 152.3622,-722.0978 141.0774,-721.4434 130.0955,-720.8728"/>
<polygon fill="#000000" stroke="#000000" points="726.6878,-734.9545 733.7246,-740.1931 730.5939,-735.8161 734.5,-736.6776 734.5,-736.6776 734.5,-736.6776 730.5939,-735.8161 735.2754,-733.1621 726.6878,-734.9545 726.6878,-734.9545"/>
<ellipse fill="none" stroke="#000000" cx="723.5629" cy="-734.2652" rx="3.2" ry="3.2"/>
</g>
<!-- StudentCompetencyEvaluations&#45;&gt;AspNetUsers -->
<g id="edge33" class="edge">
<title>StudentCompetencyEvaluations:w&#45;&gt;AspNetUsers:e</title>
<path fill="none" stroke="#000000" d="M720.9665,-742.0977C712.0743,-745.741 706.0391,-747.895 693,-748.6776 457.7969,-762.7954 398.2772,-748.5018 163,-735.6776 152.3622,-735.0978 141.0774,-734.4434 130.0955,-733.6837"/>
<polygon fill="#000000" stroke="#000000" points="727.0735,-739.652 735.8385,-740.0196 730.7867,-738.1648 734.5,-736.6776 734.5,-736.6776 734.5,-736.6776 730.7867,-738.1648 733.1615,-733.3357 727.0735,-739.652 727.0735,-739.652"/>
<ellipse fill="none" stroke="#000000" cx="724.1028" cy="-740.8417" rx="3.2" ry="3.2"/>
</g>
<!-- StudentCompetencyEvaluations&#45;&gt;ProfessorCompetencyAssignments -->
<g id="edge31" class="edge">
<title>StudentCompetencyEvaluations:w&#45;&gt;ProfessorCompetencyAssignments:e</title>
<path fill="none" stroke="#000000" d="M719.8293,-736.2737C711.0349,-735.8041 702.1311,-734.9439 693.2681,-733.7924"/>
<polygon fill="#000000" stroke="#000000" points="726.503,-736.4574 734.4009,-740.2763 730.5015,-736.5675 734.5,-736.6776 734.5,-736.6776 734.5,-736.6776 730.5015,-736.5675 734.5991,-733.079 726.503,-736.4574 726.503,-736.4574"/>
<ellipse fill="none" stroke="#000000" cx="723.3042" cy="-736.3693" rx="3.2" ry="3.2"/>
</g>
<!-- Students -->
<g id="node17" class="node">
<title>Students</title>
<g id="a_node17"><a xlink:href="../../tables/Students.html" xlink:title="Students" target="_top">
<polygon fill="#ffffff" stroke="transparent" points="519,-333.1776 519,-394.1776 609,-394.1776 609,-333.1776 519,-333.1776"/>
<polygon fill="#f5f5f5" stroke="transparent" points="519,-370.6776 519,-393.6776 609,-393.6776 609,-370.6776 519,-370.6776"/>
<polygon fill="none" stroke="#000000" points="519,-370.6776 519,-393.6776 609,-393.6776 609,-370.6776 519,-370.6776"/>
<text text-anchor="start" x="524" y="-379.2776" font-family="Helvetica,sans-Serif" font-weight="bold" font-size="11.00" fill="#000000">Students</text>
<text text-anchor="start" x="574.5219" y="-378.7776" font-family="Helvetica,sans-Serif" font-size="11.00" fill="#000000">[table]</text>
<polygon fill="none" stroke="#000000" points="519,-351.6776 519,-370.6776 609,-370.6776 609,-351.6776 519,-351.6776"/>
<text text-anchor="start" x="522" y="-357.7776" font-family="Helvetica,sans-Serif" font-size="11.00" fill="#000000">...</text>
<polygon fill="#ffffff" stroke="transparent" points="519,-332.6776 519,-351.6776 545,-351.6776 545,-332.6776 519,-332.6776"/>
<polygon fill="none" stroke="#000000" points="519,-332.6776 519,-351.6776 545,-351.6776 545,-332.6776 519,-332.6776"/>
<text text-anchor="start" x="522" y="-338.7776" font-family="Helvetica,sans-Serif" font-size="11.00" fill="#000000">&lt; 2</text>
<polygon fill="#ffffff" stroke="transparent" points="545,-332.6776 545,-351.6776 585,-351.6776 585,-332.6776 545,-332.6776"/>
<polygon fill="none" stroke="#000000" points="545,-332.6776 545,-351.6776 585,-351.6776 585,-332.6776 545,-332.6776"/>
<text text-anchor="start" x="549.6105" y="-338.7776" font-family="Helvetica,sans-Serif" font-size="11.00" fill="#000000">0 rows</text>
<polygon fill="#ffffff" stroke="transparent" points="585,-332.6776 585,-351.6776 609,-351.6776 609,-332.6776 585,-332.6776"/>
<polygon fill="none" stroke="#000000" points="585,-332.6776 585,-351.6776 609,-351.6776 609,-332.6776 585,-332.6776"/>
<text text-anchor="start" x="590.4053" y="-338.7776" font-family="Helvetica,sans-Serif" font-size="11.00" fill="#000000">3 &gt;</text>
</a>
</g>
</g>
<!-- StudentCompetencyEvaluations&#45;&gt;Students -->
<g id="edge32" class="edge">
<title>StudentCompetencyEvaluations:w&#45;&gt;Students:e</title>
<path fill="none" stroke="#000000" d="M720.5393,-732.2343C675.5125,-699.0409 722.47,-489.5861 693,-434.6776 669.4712,-390.8387 658.754,-360.6776 609,-360.6776"/>
<polygon fill="#000000" stroke="#000000" points="726.8768,-734.2513 733.4082,-740.1081 730.6884,-735.4645 734.5,-736.6776 734.5,-736.6776 734.5,-736.6776 730.6884,-735.4645 735.5918,-733.2472 726.8768,-734.2513 726.8768,-734.2513"/>
<ellipse fill="none" stroke="#000000" cx="723.8275" cy="-733.2808" rx="3.2" ry="3.2"/>
</g>
<!-- Students&#45;&gt;AspNetUsers -->
<g id="edge39" class="edge">
<title>Students:w&#45;&gt;AspNetUsers:e</title>
<path fill="none" stroke="#000000" d="M508.5807,-360.4478C475.4034,-358.8704 461.5059,-348.9132 435,-322.6776 410.2687,-298.1985 431.3362,-270.3926 402,-251.6776 357.2244,-223.1131 204.2032,-218.1651 163,-251.6776 94.9645,-307.0142 72.6043,-588.506 66.7653,-687.8805"/>
<polygon fill="#000000" stroke="#000000" points="518.2884,-356.6609 518.112,-364.659 516.5124,-364.6237 516.6888,-356.6257 518.2884,-356.6609"/>
<polyline fill="none" stroke="#000000" points="519,-360.6776 515.001,-360.5894 "/>
<ellipse fill="none" stroke="#000000" cx="511.8018" cy="-360.5188" rx="3.2" ry="3.2"/>
</g>
<!-- Students&#45;&gt;TechnicalCareers -->
<g id="edge38" class="edge">
<title>Students:w&#45;&gt;TechnicalCareers:e</title>
<path fill="none" stroke="#000000" d="M504.3374,-359.8308C437.5193,-351.8202 427.7621,-289.6776 352.5,-289.6776"/>
<polygon fill="#000000" stroke="#000000" points="511.0133,-360.2163 518.7924,-364.2716 515.0067,-360.447 519,-360.6776 519,-360.6776 519,-360.6776 515.0067,-360.447 519.2076,-357.0836 511.0133,-360.2163 511.0133,-360.2163"/>
<ellipse fill="none" stroke="#000000" cx="507.8186" cy="-360.0318" rx="3.2" ry="3.2"/>
</g>
<!-- StudentEvaluationReport -->
<g id="node18" class="node">
<title>StudentEvaluationReport</title>
<g id="a_node18"><a xlink:href="../../tables/StudentEvaluationReport.html" xlink:title="StudentEvaluationReport" target="_top">
<polygon fill="#ffffff" stroke="transparent" points="754,-286.1776 754,-347.1776 937,-347.1776 937,-286.1776 754,-286.1776"/>
<polygon fill="#f5f5f5" stroke="transparent" points="754.5,-323.6776 754.5,-346.6776 937.5,-346.6776 937.5,-323.6776 754.5,-323.6776"/>
<polygon fill="none" stroke="#000000" points="754.5,-323.6776 754.5,-346.6776 937.5,-346.6776 937.5,-323.6776 754.5,-323.6776"/>
<text text-anchor="start" x="759.5" y="-332.2776" font-family="Helvetica,sans-Serif" font-weight="bold" font-size="11.00" fill="#000000">StudentEvaluationReport</text>
<text text-anchor="start" x="903.0219" y="-331.7776" font-family="Helvetica,sans-Serif" font-size="11.00" fill="#000000">[table]</text>
<polygon fill="none" stroke="#000000" points="754.5,-304.6776 754.5,-323.6776 937.5,-323.6776 937.5,-304.6776 754.5,-304.6776"/>
<text text-anchor="start" x="757.5" y="-310.7776" font-family="Helvetica,sans-Serif" font-size="11.00" fill="#000000">...</text>
<polygon fill="#ffffff" stroke="transparent" points="754.5,-285.6776 754.5,-304.6776 831.5,-304.6776 831.5,-285.6776 754.5,-285.6776"/>
<polygon fill="none" stroke="#000000" points="754.5,-285.6776 754.5,-304.6776 831.5,-304.6776 831.5,-285.6776 754.5,-285.6776"/>
<text text-anchor="start" x="757.5" y="-291.7776" font-family="Helvetica,sans-Serif" font-size="11.00" fill="#000000">&lt; 4</text>
<polygon fill="#ffffff" stroke="transparent" points="831.5,-285.6776 831.5,-304.6776 897.5,-304.6776 897.5,-285.6776 831.5,-285.6776"/>
<polygon fill="none" stroke="#000000" points="831.5,-285.6776 831.5,-304.6776 897.5,-304.6776 897.5,-285.6776 831.5,-285.6776"/>
<text text-anchor="start" x="862.1105" y="-291.7776" font-family="Helvetica,sans-Serif" font-size="11.00" fill="#000000">0 rows</text>
<polygon fill="#ffffff" stroke="transparent" points="897.5,-285.6776 897.5,-304.6776 937.5,-304.6776 937.5,-285.6776 897.5,-285.6776"/>
<polygon fill="none" stroke="#000000" points="897.5,-285.6776 897.5,-304.6776 937.5,-304.6776 937.5,-285.6776 897.5,-285.6776"/>
<text text-anchor="start" x="928.3862" y="-291.7776" font-family="Helvetica,sans-Serif" font-size="11.00" fill="#000000"> &#160;</text>
</a>
</g>
</g>
<!-- StudentEvaluationReport&#45;&gt;AspNetUsers -->
<g id="edge34" class="edge">
<title>StudentEvaluationReport:w&#45;&gt;AspNetUsers:e</title>
<path fill="none" stroke="#000000" d="M807.1672,-271.1155C764.4649,-223.6384 700.411,-155.8245 693,-152.6776 584.5815,-106.6402 252.2351,-82.7938 163,-159.6776 82.8498,-228.734 68.195,-576.2299 65.5642,-688.0305"/>
<polygon fill="#000000" stroke="#000000" points="811.6536,-276.1339 814.3016,-284.4975 814.3196,-279.116 816.9855,-282.0981 816.9855,-282.0981 816.9855,-282.0981 814.3196,-279.116 819.6694,-279.6988 811.6536,-276.1339 811.6536,-276.1339"/>
<ellipse fill="none" stroke="#000000" cx="809.5209" cy="-273.7483" rx="3.2" ry="3.2"/>
</g>
<!-- StudentEvaluationReport&#45;&gt;AspNetUsers -->
<g id="edge37" class="edge">
<title>StudentEvaluationReport:w&#45;&gt;AspNetUsers:e</title>
<path fill="none" stroke="#000000" d="M798.5923,-271.5696C756.3783,-228.097 699.9293,-168.62 693,-165.6776 584.5815,-119.6402 252.2351,-95.7938 163,-172.6776 84.1516,-240.6124 68.6883,-578.0158 65.7021,-688.0159"/>
<polygon fill="#000000" stroke="#000000" points="803.1264,-276.2249 806.1293,-284.4676 805.9173,-279.0903 808.7082,-281.9558 808.7082,-281.9558 808.7082,-281.9558 805.9173,-279.0903 811.2871,-279.444 803.1264,-276.2249 803.1264,-276.2249"/>
<ellipse fill="none" stroke="#000000" cx="800.8937" cy="-273.9325" rx="3.2" ry="3.2"/>
</g>
<!-- StudentEvaluationReport&#45;&gt;EvaluationPeriods -->
<g id="edge35" class="edge">
<title>StudentEvaluationReport:w&#45;&gt;EvaluationPeriods:e</title>
<path fill="none" stroke="#000000" d="M824.0517,-364.3709C799.1563,-414.8134 753.6328,-493.6094 693,-541.6776 580.9408,-630.5155 535.5015,-656.6776 392.5,-656.6776"/>
<polygon fill="#000000" stroke="#000000" points="826.9002,-358.4631 833.6175,-352.8206 828.6375,-354.8601 830.3748,-351.257 830.3748,-351.257 830.3748,-351.257 828.6375,-354.8601 827.132,-349.6935 826.9002,-358.4631 826.9002,-358.4631"/>
<ellipse fill="none" stroke="#000000" cx="825.5104" cy="-361.3455" rx="3.2" ry="3.2"/>
</g>
<!-- StudentEvaluationReport&#45;&gt;Students -->
<g id="edge36" class="edge">
<title>StudentEvaluationReport:w&#45;&gt;Students:e</title>
<path fill="none" stroke="#000000" d="M731.5859,-346.6001C692.9541,-354.4069 649.3616,-360.6776 609,-360.6776"/>
<polygon fill="#000000" stroke="#000000" points="738.0259,-345.2475 746.5951,-347.1262 741.9405,-344.4253 745.8551,-343.6031 745.8551,-343.6031 745.8551,-343.6031 741.9405,-344.4253 745.1151,-340.08 738.0259,-345.2475 738.0259,-345.2475"/>
<ellipse fill="none" stroke="#000000" cx="734.8942" cy="-345.9053" rx="3.2" ry="3.2"/>
</g>
<!-- StudentSubjects -->
<g id="node19" class="node">
<title>StudentSubjects</title>
<g id="a_node19"><a xlink:href="../../tables/StudentSubjects.html" xlink:title="StudentSubjects" target="_top">
<polygon fill="#ffffff" stroke="transparent" points="779,-116.1776 779,-177.1776 912,-177.1776 912,-116.1776 779,-116.1776"/>
<polygon fill="#f5f5f5" stroke="transparent" points="779.5,-153.6776 779.5,-176.6776 912.5,-176.6776 912.5,-153.6776 779.5,-153.6776"/>
<polygon fill="none" stroke="#000000" points="779.5,-153.6776 779.5,-176.6776 912.5,-176.6776 912.5,-153.6776 779.5,-153.6776"/>
<text text-anchor="start" x="784.5" y="-162.2776" font-family="Helvetica,sans-Serif" font-weight="bold" font-size="11.00" fill="#000000">StudentSubjects</text>
<text text-anchor="start" x="878.0219" y="-161.7776" font-family="Helvetica,sans-Serif" font-size="11.00" fill="#000000">[table]</text>
<polygon fill="none" stroke="#000000" points="779.5,-134.6776 779.5,-153.6776 912.5,-153.6776 912.5,-134.6776 779.5,-134.6776"/>
<text text-anchor="start" x="782.5" y="-140.7776" font-family="Helvetica,sans-Serif" font-size="11.00" fill="#000000">...</text>
<polygon fill="#ffffff" stroke="transparent" points="779.5,-115.6776 779.5,-134.6776 831.5,-134.6776 831.5,-115.6776 779.5,-115.6776"/>
<polygon fill="none" stroke="#000000" points="779.5,-115.6776 779.5,-134.6776 831.5,-134.6776 831.5,-115.6776 779.5,-115.6776"/>
<text text-anchor="start" x="782.5" y="-121.7776" font-family="Helvetica,sans-Serif" font-size="11.00" fill="#000000">&lt; 4</text>
<polygon fill="#ffffff" stroke="transparent" points="831.5,-115.6776 831.5,-134.6776 884.5,-134.6776 884.5,-115.6776 831.5,-115.6776"/>
<polygon fill="none" stroke="#000000" points="831.5,-115.6776 831.5,-134.6776 884.5,-134.6776 884.5,-115.6776 831.5,-115.6776"/>
<text text-anchor="start" x="849.1105" y="-121.7776" font-family="Helvetica,sans-Serif" font-size="11.00" fill="#000000">0 rows</text>
<polygon fill="#ffffff" stroke="transparent" points="884.5,-115.6776 884.5,-134.6776 912.5,-134.6776 912.5,-115.6776 884.5,-115.6776"/>
<polygon fill="none" stroke="#000000" points="884.5,-115.6776 884.5,-134.6776 912.5,-134.6776 912.5,-115.6776 884.5,-115.6776"/>
<text text-anchor="start" x="903.3862" y="-121.7776" font-family="Helvetica,sans-Serif" font-size="11.00" fill="#000000"> &#160;</text>
</a>
</g>
</g>
<!-- StudentSubjects&#45;&gt;AspNetUsers -->
<g id="edge40" class="edge">
<title>StudentSubjects:w&#45;&gt;AspNetUsers:e</title>
<path fill="none" stroke="#000000" d="M765.0877,-140.5667C736.9338,-132.38 727.526,-115.9409 693,-110.6776 460.1347,-75.179 342.3661,42.0123 163,-110.6776 118.6196,-148.4576 78.5292,-564.1472 67.802,-688.063"/>
<polygon fill="#000000" stroke="#000000" points="771.6801,-141.9896 778.7404,-147.1966 775.59,-142.8336 779.5,-143.6776 779.5,-143.6776 779.5,-143.6776 775.59,-142.8336 780.2596,-140.1587 771.6801,-141.9896 771.6801,-141.9896"/>
<ellipse fill="none" stroke="#000000" cx="768.5521" cy="-141.3144" rx="3.2" ry="3.2"/>
</g>
<!-- StudentSubjects&#45;&gt;AspNetUsers -->
<g id="edge43" class="edge">
<title>StudentSubjects:w&#45;&gt;AspNetUsers:e</title>
<path fill="none" stroke="#000000" d="M765.0877,-145.0889C736.9338,-145.38 727.526,-128.9409 693,-123.6776 460.1347,-88.179 342.3661,29.0123 163,-123.6776 119.2283,-160.9394 79.6297,-565.8166 68.2598,-688.0201"/>
<polygon fill="#000000" stroke="#000000" points="771.5381,-144.4573 779.8509,-147.2605 775.519,-144.0675 779.5,-143.6776 779.5,-143.6776 779.5,-143.6776 775.519,-144.0675 779.1491,-140.0948 771.5381,-144.4573 771.5381,-144.4573"/>
<ellipse fill="none" stroke="#000000" cx="768.3533" cy="-144.7692" rx="3.2" ry="3.2"/>
</g>
<!-- StudentSubjects&#45;&gt;Students -->
<g id="edge41" class="edge">
<title>StudentSubjects:w&#45;&gt;Students:e</title>
<path fill="none" stroke="#000000" d="M765.076,-144.9295C698.5576,-157.6801 752.4337,-264.7299 693,-322.6776 663.6613,-351.2828 649.9758,-360.6776 609,-360.6776"/>
<polygon fill="#000000" stroke="#000000" points="771.53,-144.3694 779.8113,-147.2641 775.515,-144.0235 779.5,-143.6776 779.5,-143.6776 779.5,-143.6776 775.515,-144.0235 779.1887,-140.0911 771.53,-144.3694 771.53,-144.3694"/>
<ellipse fill="none" stroke="#000000" cx="768.3419" cy="-144.6461" rx="3.2" ry="3.2"/>
</g>
<!-- Subjects -->
<g id="node20" class="node">
<title>Subjects</title>
<g id="a_node20"><a xlink:href="../../tables/Subjects.html" xlink:title="Subjects" target="_top">
<polygon fill="#ffffff" stroke="transparent" points="519.5,-251.1776 519.5,-312.1776 608.5,-312.1776 608.5,-251.1776 519.5,-251.1776"/>
<polygon fill="#f5f5f5" stroke="transparent" points="520,-288.6776 520,-311.6776 609,-311.6776 609,-288.6776 520,-288.6776"/>
<polygon fill="none" stroke="#000000" points="520,-288.6776 520,-311.6776 609,-311.6776 609,-288.6776 520,-288.6776"/>
<text text-anchor="start" x="525" y="-297.2776" font-family="Helvetica,sans-Serif" font-weight="bold" font-size="11.00" fill="#000000">Subjects</text>
<text text-anchor="start" x="574.5219" y="-296.7776" font-family="Helvetica,sans-Serif" font-size="11.00" fill="#000000">[table]</text>
<polygon fill="none" stroke="#000000" points="520,-269.6776 520,-288.6776 609,-288.6776 609,-269.6776 520,-269.6776"/>
<text text-anchor="start" x="523" y="-275.7776" font-family="Helvetica,sans-Serif" font-size="11.00" fill="#000000">...</text>
<polygon fill="#ffffff" stroke="transparent" points="520,-250.6776 520,-269.6776 545,-269.6776 545,-250.6776 520,-250.6776"/>
<polygon fill="none" stroke="#000000" points="520,-250.6776 520,-269.6776 545,-269.6776 545,-250.6776 520,-250.6776"/>
<text text-anchor="start" x="523" y="-256.7776" font-family="Helvetica,sans-Serif" font-size="11.00" fill="#000000">&lt; 4</text>
<polygon fill="#ffffff" stroke="transparent" points="545,-250.6776 545,-269.6776 585,-269.6776 585,-250.6776 545,-250.6776"/>
<polygon fill="none" stroke="#000000" points="545,-250.6776 545,-269.6776 585,-269.6776 585,-250.6776 545,-250.6776"/>
<text text-anchor="start" x="549.6105" y="-256.7776" font-family="Helvetica,sans-Serif" font-size="11.00" fill="#000000">0 rows</text>
<polygon fill="#ffffff" stroke="transparent" points="585,-250.6776 585,-269.6776 609,-269.6776 609,-250.6776 585,-250.6776"/>
<polygon fill="none" stroke="#000000" points="585,-250.6776 585,-269.6776 609,-269.6776 609,-250.6776 585,-250.6776"/>
<text text-anchor="start" x="590.4053" y="-256.7776" font-family="Helvetica,sans-Serif" font-size="11.00" fill="#000000">1 &gt;</text>
</a>
</g>
</g>
<!-- StudentSubjects&#45;&gt;Subjects -->
<g id="edge42" class="edge">
<title>StudentSubjects:w&#45;&gt;Subjects:e</title>
<path fill="none" stroke="#000000" d="M765.1316,-145.2581C724.511,-155.2008 735.184,-209.6813 693,-240.6776 659.9799,-264.9404 649.9758,-278.6776 609,-278.6776"/>
<polygon fill="#000000" stroke="#000000" points="771.548,-144.5524 779.8936,-147.256 775.524,-144.115 779.5,-143.6776 779.5,-143.6776 779.5,-143.6776 775.524,-144.115 779.1064,-140.0992 771.548,-144.5524 771.548,-144.5524"/>
<ellipse fill="none" stroke="#000000" cx="768.3671" cy="-144.9023" rx="3.2" ry="3.2"/>
</g>
<!-- Subjects&#45;&gt;AspNetUsers -->
<g id="edge44" class="edge">
<title>Subjects:w&#45;&gt;AspNetUsers:e</title>
<path fill="none" stroke="#000000" d="M505.622,-275.6505C476.5705,-267.3314 467.8621,-249.4917 435,-234.6776 420.3127,-228.0566 417.7456,-223.0883 402,-219.6776 298.1853,-197.1904 245.0548,-152.2227 163,-219.6776 90.6473,-279.1568 70.851,-583.7201 66.242,-687.8122"/>
<polygon fill="#000000" stroke="#000000" points="512.1716,-277.0294 519.2583,-282.2004 516.0858,-277.8535 520,-278.6776 520,-278.6776 520,-278.6776 516.0858,-277.8535 520.7417,-275.1548 512.1716,-277.0294 512.1716,-277.0294"/>
<ellipse fill="none" stroke="#000000" cx="509.0403" cy="-276.3701" rx="3.2" ry="3.2"/>
</g>
<!-- Subjects&#45;&gt;AspNetUsers -->
<g id="edge47" class="edge">
<title>Subjects:w&#45;&gt;AspNetUsers:e</title>
<path fill="none" stroke="#000000" d="M505.622,-280.0577C476.5705,-280.3314 467.8621,-262.4917 435,-247.6776 420.3127,-241.0566 417.7456,-236.0883 402,-232.6776 298.1853,-210.1904 245.0548,-165.2227 163,-232.6776 91.9211,-291.1096 71.5643,-586.072 66.4997,-688.031"/>
<polygon fill="#000000" stroke="#000000" points="512.0366,-279.442 520.344,-282.2611 516.0183,-279.0598 520,-278.6776 520,-278.6776 520,-278.6776 516.0183,-279.0598 519.656,-275.0941 512.0366,-279.442 512.0366,-279.442"/>
<ellipse fill="none" stroke="#000000" cx="508.8512" cy="-279.7478" rx="3.2" ry="3.2"/>
</g>
<!-- Subjects&#45;&gt;TechnicalCareers -->
<g id="edge46" class="edge">
<title>Subjects:w&#45;&gt;TechnicalCareers:e</title>
<path fill="none" stroke="#000000" d="M505.4537,-278.8248C442.6314,-280.1301 422.0049,-289.6776 352.5,-289.6776"/>
<polygon fill="#000000" stroke="#000000" points="512.0004,-278.7586 520.0364,-282.2774 516.0002,-278.7181 520,-278.6776 520,-278.6776 520,-278.6776 516.0002,-278.7181 519.9636,-275.0778 512.0004,-278.7586 512.0004,-278.7586"/>
<ellipse fill="none" stroke="#000000" cx="508.8006" cy="-278.791" rx="3.2" ry="3.2"/>
</g>
<!-- Subjects&#45;&gt;Professors -->
<g id="edge45" class="edge">
<title>Subjects:w&#45;&gt;Professors:e</title>
<path fill="none" stroke="#000000" d="M505.5939,-279.4816C426.9666,-288.5714 421.0576,-371.6776 333.5,-371.6776"/>
<polygon fill="#000000" stroke="#000000" points="512.0124,-279.1234 520.2006,-282.272 516.0062,-278.9005 520,-278.6776 520,-278.6776 520,-278.6776 516.0062,-278.9005 519.7994,-275.0832 512.0124,-279.1234 512.0124,-279.1234"/>
<ellipse fill="none" stroke="#000000" cx="508.8174" cy="-279.3018" rx="3.2" ry="3.2"/>
</g>
</g>
</svg>
