<?xml version="1.0" encoding="UTF-8" standalone="no"?>
<!DOCTYPE svg PUBLIC "-//W3C//DTD SVG 1.1//EN"
 "http://www.w3.org/Graphics/SVG/1.1/DTD/svg11.dtd">
<!-- Generated by graphviz version 2.40.1 (20161225.0304)
 -->
<!-- Title: twoDegreesRelationshipsDiagram Pages: 1 -->
<svg width="980pt" height="623pt"
 viewBox="0.00 0.00 980.00 622.66" xmlns="http://www.w3.org/2000/svg" xmlns:xlink="http://www.w3.org/1999/xlink">
<g id="graph0" class="graph" transform="scale(1 1) rotate(0) translate(4 618.6608)">
<title>twoDegreesRelationshipsDiagram</title>
<polygon fill="#ffffff" stroke="transparent" points="-4,4 -4,-618.6608 976,-618.6608 976,4 -4,4"/>
<text text-anchor="middle" x="72.4936" y="-7.3" font-family="Helvetica,sans-Serif" font-size="11.00" fill="#000000">Generated by SchemaSpy</text>
<!-- CompetencyTechnicalCareer -->
<g id="node1" class="node">
<title>CompetencyTechnicalCareer</title>
<g id="a_node1"><a xlink:href="../../tables/CompetencyTechnicalCareer.html" xlink:title="CompetencyTechnicalCareer" target="_top">
<polygon fill="#ffffff" stroke="transparent" points="416,-231.2 416,-292.2 620,-292.2 620,-231.2 416,-231.2"/>
<polygon fill="#f5f5f5" stroke="transparent" points="416,-268.7 416,-291.7 620,-291.7 620,-268.7 416,-268.7"/>
<polygon fill="none" stroke="#000000" points="416,-268.7 416,-291.7 620,-291.7 620,-268.7 416,-268.7"/>
<text text-anchor="start" x="421" y="-277.3" font-family="Helvetica,sans-Serif" font-weight="bold" font-size="11.00" fill="#000000">CompetencyTechnicalCareer</text>
<text text-anchor="start" x="585.5219" y="-276.8" font-family="Helvetica,sans-Serif" font-size="11.00" fill="#000000">[table]</text>
<polygon fill="none" stroke="#000000" points="416,-249.7 416,-268.7 620,-268.7 620,-249.7 416,-249.7"/>
<text text-anchor="start" x="419" y="-255.8" font-family="Helvetica,sans-Serif" font-size="11.00" fill="#000000">...</text>
<polygon fill="#ffffff" stroke="transparent" points="416,-230.7 416,-249.7 503,-249.7 503,-230.7 416,-230.7"/>
<polygon fill="none" stroke="#000000" points="416,-230.7 416,-249.7 503,-249.7 503,-230.7 416,-230.7"/>
<text text-anchor="start" x="419" y="-236.8" font-family="Helvetica,sans-Serif" font-size="11.00" fill="#000000">&lt; 2</text>
<polygon fill="#ffffff" stroke="transparent" points="503,-230.7 503,-249.7 574,-249.7 574,-230.7 503,-230.7"/>
<polygon fill="none" stroke="#000000" points="503,-230.7 503,-249.7 574,-249.7 574,-230.7 503,-230.7"/>
<text text-anchor="start" x="538.6105" y="-236.8" font-family="Helvetica,sans-Serif" font-size="11.00" fill="#000000">0 rows</text>
<polygon fill="#ffffff" stroke="transparent" points="574,-230.7 574,-249.7 620,-249.7 620,-230.7 574,-230.7"/>
<polygon fill="none" stroke="#000000" points="574,-230.7 574,-249.7 620,-249.7 620,-230.7 574,-230.7"/>
<text text-anchor="start" x="610.8862" y="-236.8" font-family="Helvetica,sans-Serif" font-size="11.00" fill="#000000"> &#160;</text>
</a>
</g>
</g>
<!-- TechnicalCareers -->
<g id="node2" class="node">
<title>TechnicalCareers</title>
<g id="a_node2"><a xlink:href="../../tables/TechnicalCareers.html" xlink:title="TechnicalCareers" target="_top">
<polygon fill="#ffffff" stroke="transparent" points="173,-208.2 173,-335.2 312,-335.2 312,-208.2 173,-208.2"/>
<polygon fill="#f5f5f5" stroke="transparent" points="173.5,-311.7 173.5,-334.7 312.5,-334.7 312.5,-311.7 173.5,-311.7"/>
<polygon fill="none" stroke="#000000" points="173.5,-311.7 173.5,-334.7 312.5,-334.7 312.5,-311.7 173.5,-311.7"/>
<text text-anchor="start" x="178.5" y="-320.3" font-family="Helvetica,sans-Serif" font-weight="bold" font-size="11.00" fill="#000000">TechnicalCareers</text>
<text text-anchor="start" x="278.0219" y="-319.8" font-family="Helvetica,sans-Serif" font-size="11.00" fill="#000000">[table]</text>
<polygon fill="none" stroke="#000000" points="173.5,-289.7 173.5,-311.7 312.5,-311.7 312.5,-289.7 173.5,-289.7"/>
<image xlink:href="../../images/primaryKeys.png" width="11px" height="12px" preserveAspectRatio="xMinYMin meet" x="178.5" y="-306.7"/>
<text text-anchor="start" x="202.5" y="-296.8" font-family="Helvetica,sans-Serif" font-size="11.00" fill="#000000">Id</text>
<polygon fill="#ffffff" stroke="transparent" points="173.5,-267.7 173.5,-289.7 312.5,-289.7 312.5,-267.7 173.5,-267.7"/>
<polygon fill="none" stroke="#000000" points="173.5,-267.7 173.5,-289.7 312.5,-289.7 312.5,-267.7 173.5,-267.7"/>
<image xlink:href="../../images/foreignKeys.png" width="11px" height="12px" preserveAspectRatio="xMinYMin meet" x="178.5" y="-284.7"/>
<text text-anchor="start" x="202.5" y="-274.8" font-family="Helvetica,sans-Serif" font-size="11.00" fill="#000000">CreatedByUserId</text>
<polygon fill="#ffffff" stroke="transparent" points="173.5,-245.7 173.5,-267.7 312.5,-267.7 312.5,-245.7 173.5,-245.7"/>
<polygon fill="none" stroke="#000000" points="173.5,-245.7 173.5,-267.7 312.5,-267.7 312.5,-245.7 173.5,-245.7"/>
<image xlink:href="../../images/foreignKeys.png" width="11px" height="12px" preserveAspectRatio="xMinYMin meet" x="178.5" y="-262.7"/>
<text text-anchor="start" x="202.5" y="-252.8" font-family="Helvetica,sans-Serif" font-size="11.00" fill="#000000">UpdatedByUserId</text>
<polygon fill="none" stroke="#000000" points="173.5,-226.7 173.5,-245.7 312.5,-245.7 312.5,-226.7 173.5,-226.7"/>
<text text-anchor="start" x="176.5" y="-232.8" font-family="Helvetica,sans-Serif" font-size="11.00" fill="#000000">...</text>
<polygon fill="#ffffff" stroke="transparent" points="173.5,-207.7 173.5,-226.7 223.5,-226.7 223.5,-207.7 173.5,-207.7"/>
<polygon fill="none" stroke="#000000" points="173.5,-207.7 173.5,-226.7 223.5,-226.7 223.5,-207.7 173.5,-207.7"/>
<text text-anchor="start" x="176.5" y="-213.8" font-family="Helvetica,sans-Serif" font-size="11.00" fill="#000000">&lt; 2</text>
<polygon fill="#ffffff" stroke="transparent" points="223.5,-207.7 223.5,-226.7 276.5,-226.7 276.5,-207.7 223.5,-207.7"/>
<polygon fill="none" stroke="#000000" points="223.5,-207.7 223.5,-226.7 276.5,-226.7 276.5,-207.7 223.5,-207.7"/>
<text text-anchor="start" x="241.1105" y="-213.8" font-family="Helvetica,sans-Serif" font-size="11.00" fill="#000000">6 rows</text>
<polygon fill="#ffffff" stroke="transparent" points="276.5,-207.7 276.5,-226.7 312.5,-226.7 312.5,-207.7 276.5,-207.7"/>
<polygon fill="none" stroke="#000000" points="276.5,-207.7 276.5,-226.7 312.5,-226.7 312.5,-207.7 276.5,-207.7"/>
<text text-anchor="start" x="293.9053" y="-213.8" font-family="Helvetica,sans-Serif" font-size="11.00" fill="#000000">6 &gt;</text>
</a>
</g>
</g>
<!-- CompetencyTechnicalCareer&#45;&gt;TechnicalCareers -->
<g id="edge1" class="edge">
<title>CompetencyTechnicalCareer:w&#45;&gt;TechnicalCareers:e</title>
<path fill="none" stroke="#000000" d="M401.2224,-260.0974C364.8916,-267.3851 356.7134,-300.7 312.5,-300.7"/>
<polygon fill="#000000" stroke="#000000" points="408.0355,-259.4532 416.3389,-262.284 412.0178,-259.0766 416,-258.7 416,-258.7 416,-258.7 412.0178,-259.0766 415.6611,-255.116 408.0355,-259.4532 408.0355,-259.4532"/>
<ellipse fill="none" stroke="#000000" cx="404.8497" cy="-259.7545" rx="3.2" ry="3.2"/>
</g>
<!-- AspNetUsers -->
<g id="node4" class="node">
<title>AspNetUsers</title>
<g id="a_node4"><a xlink:href="../../tables/AspNetUsers.html" xlink:title="AspNetUsers" target="_top">
<polygon fill="#ffffff" stroke="transparent" points="8,-240.2 8,-301.2 122,-301.2 122,-240.2 8,-240.2"/>
<polygon fill="#f5f5f5" stroke="transparent" points="8,-277.7 8,-300.7 122,-300.7 122,-277.7 8,-277.7"/>
<polygon fill="none" stroke="#000000" points="8,-277.7 8,-300.7 122,-300.7 122,-277.7 8,-277.7"/>
<text text-anchor="start" x="13" y="-286.3" font-family="Helvetica,sans-Serif" font-weight="bold" font-size="11.00" fill="#000000">AspNetUsers</text>
<text text-anchor="start" x="87.5219" y="-285.8" font-family="Helvetica,sans-Serif" font-size="11.00" fill="#000000">[table]</text>
<polygon fill="none" stroke="#000000" points="8,-258.7 8,-277.7 122,-277.7 122,-258.7 8,-258.7"/>
<text text-anchor="start" x="11" y="-264.8" font-family="Helvetica,sans-Serif" font-size="11.00" fill="#000000">...</text>
<polygon fill="#ffffff" stroke="transparent" points="8,-239.7 8,-258.7 41,-258.7 41,-239.7 8,-239.7"/>
<polygon fill="none" stroke="#000000" points="8,-239.7 8,-258.7 41,-258.7 41,-239.7 8,-239.7"/>
<text text-anchor="start" x="11" y="-245.8" font-family="Helvetica,sans-Serif" font-size="11.00" fill="#000000"> &#160;</text>
<polygon fill="#ffffff" stroke="transparent" points="41,-239.7 41,-258.7 84,-258.7 84,-239.7 41,-239.7"/>
<polygon fill="none" stroke="#000000" points="41,-239.7 41,-258.7 84,-258.7 84,-239.7 41,-239.7"/>
<text text-anchor="start" x="54.1105" y="-245.8" font-family="Helvetica,sans-Serif" font-size="11.00" fill="#000000">1 row</text>
<polygon fill="#ffffff" stroke="transparent" points="84,-239.7 84,-258.7 122,-258.7 122,-239.7 84,-239.7"/>
<polygon fill="none" stroke="#000000" points="84,-239.7 84,-258.7 122,-258.7 122,-239.7 84,-239.7"/>
<text text-anchor="start" x="97.2904" y="-245.8" font-family="Helvetica,sans-Serif" font-size="11.00" fill="#000000">29 &gt;</text>
</a>
</g>
</g>
<!-- TechnicalCareers&#45;&gt;AspNetUsers -->
<g id="edge22" class="edge">
<title>TechnicalCareers:w&#45;&gt;AspNetUsers:e</title>
<path fill="none" stroke="#000000" d="M158.8704,-276.9813C146.5803,-273.8875 139.5539,-267.7 122,-267.7"/>
<polygon fill="#000000" stroke="#000000" points="165.5546,-277.7665 173.0799,-282.2754 169.5273,-278.2332 173.5,-278.7 173.5,-278.7 173.5,-278.7 169.5273,-278.2332 173.9201,-275.1246 165.5546,-277.7665 165.5546,-277.7665"/>
<ellipse fill="none" stroke="#000000" cx="162.3765" cy="-277.3931" rx="3.2" ry="3.2"/>
</g>
<!-- TechnicalCareers&#45;&gt;AspNetUsers -->
<g id="edge23" class="edge">
<title>TechnicalCareers:w&#45;&gt;AspNetUsers:e</title>
<path fill="none" stroke="#000000" d="M158.8704,-258.4188C146.5803,-261.5125 139.5539,-267.7 122,-267.7"/>
<polygon fill="#000000" stroke="#000000" points="165.5546,-257.6335 173.9201,-260.2754 169.5273,-257.1668 173.5,-256.7 173.5,-256.7 173.5,-256.7 169.5273,-257.1668 173.0799,-253.1246 165.5546,-257.6335 165.5546,-257.6335"/>
<ellipse fill="none" stroke="#000000" cx="162.3765" cy="-258.0069" rx="3.2" ry="3.2"/>
</g>
<!-- Coordinators -->
<g id="node3" class="node">
<title>Coordinators</title>
<g id="a_node3"><a xlink:href="../../tables/Coordinators.html" xlink:title="Coordinators" target="_top">
<polygon fill="#ffffff" stroke="transparent" points="461,-341.2 461,-402.2 575,-402.2 575,-341.2 461,-341.2"/>
<polygon fill="#f5f5f5" stroke="transparent" points="461,-378.7 461,-401.7 575,-401.7 575,-378.7 461,-378.7"/>
<polygon fill="none" stroke="#000000" points="461,-378.7 461,-401.7 575,-401.7 575,-378.7 461,-378.7"/>
<text text-anchor="start" x="466" y="-387.3" font-family="Helvetica,sans-Serif" font-weight="bold" font-size="11.00" fill="#000000">Coordinators</text>
<text text-anchor="start" x="540.5219" y="-386.8" font-family="Helvetica,sans-Serif" font-size="11.00" fill="#000000">[table]</text>
<polygon fill="none" stroke="#000000" points="461,-359.7 461,-378.7 575,-378.7 575,-359.7 461,-359.7"/>
<text text-anchor="start" x="464" y="-365.8" font-family="Helvetica,sans-Serif" font-size="11.00" fill="#000000">...</text>
<polygon fill="#ffffff" stroke="transparent" points="461,-340.7 461,-359.7 503,-359.7 503,-340.7 461,-340.7"/>
<polygon fill="none" stroke="#000000" points="461,-340.7 461,-359.7 503,-359.7 503,-340.7 461,-340.7"/>
<text text-anchor="start" x="464" y="-346.8" font-family="Helvetica,sans-Serif" font-size="11.00" fill="#000000">&lt; 2</text>
<polygon fill="#ffffff" stroke="transparent" points="503,-340.7 503,-359.7 552,-359.7 552,-340.7 503,-340.7"/>
<polygon fill="none" stroke="#000000" points="503,-340.7 503,-359.7 552,-359.7 552,-340.7 503,-340.7"/>
<text text-anchor="start" x="516.6105" y="-346.8" font-family="Helvetica,sans-Serif" font-size="11.00" fill="#000000">0 rows</text>
<polygon fill="#ffffff" stroke="transparent" points="552,-340.7 552,-359.7 575,-359.7 575,-340.7 552,-340.7"/>
<polygon fill="none" stroke="#000000" points="552,-340.7 552,-359.7 575,-359.7 575,-340.7 552,-340.7"/>
<text text-anchor="start" x="565.8862" y="-346.8" font-family="Helvetica,sans-Serif" font-size="11.00" fill="#000000"> &#160;</text>
</a>
</g>
</g>
<!-- Coordinators&#45;&gt;TechnicalCareers -->
<g id="edge2" class="edge">
<title>Coordinators:w&#45;&gt;TechnicalCareers:e</title>
<path fill="none" stroke="#000000" d="M446.4867,-368.0955C407.8787,-364.6566 395.6432,-346.9957 355,-326.7 335.1895,-316.8074 334.6432,-300.7 312.5,-300.7"/>
<polygon fill="#000000" stroke="#000000" points="453.0069,-368.367 460.8501,-372.2969 457.0035,-368.5335 461,-368.7 461,-368.7 461,-368.7 457.0035,-368.5335 461.1499,-365.1031 453.0069,-368.367 453.0069,-368.367"/>
<ellipse fill="none" stroke="#000000" cx="449.8097" cy="-368.2338" rx="3.2" ry="3.2"/>
</g>
<!-- Coordinators&#45;&gt;AspNetUsers -->
<g id="edge3" class="edge">
<title>Coordinators:w&#45;&gt;AspNetUsers:e</title>
<path fill="none" stroke="#000000" d="M450.513,-368.7892C377.6717,-369.8998 215.7772,-380.4243 163,-345.7 130.2823,-324.1737 161.1641,-267.7 122,-267.7"/>
<polygon fill="#000000" stroke="#000000" points="460.166,-364.707 460.2341,-372.7067 458.6342,-372.7203 458.566,-364.7206 460.166,-364.707"/>
<polyline fill="none" stroke="#000000" points="461,-368.7 457.0001,-368.7341 "/>
<ellipse fill="none" stroke="#000000" cx="453.8003" cy="-368.7613" rx="3.2" ry="3.2"/>
</g>
<!-- EvaluationPeriods -->
<g id="node5" class="node">
<title>EvaluationPeriods</title>
<g id="a_node5"><a xlink:href="../../tables/EvaluationPeriods.html" xlink:title="EvaluationPeriods" target="_top">
<polygon fill="#ffffff" stroke="transparent" points="171,-385.2 171,-512.2 314,-512.2 314,-385.2 171,-385.2"/>
<polygon fill="#f5f5f5" stroke="transparent" points="171.5,-488.7 171.5,-511.7 314.5,-511.7 314.5,-488.7 171.5,-488.7"/>
<polygon fill="none" stroke="#000000" points="171.5,-488.7 171.5,-511.7 314.5,-511.7 314.5,-488.7 171.5,-488.7"/>
<text text-anchor="start" x="176.5" y="-497.3" font-family="Helvetica,sans-Serif" font-weight="bold" font-size="11.00" fill="#000000">EvaluationPeriods</text>
<text text-anchor="start" x="280.0219" y="-496.8" font-family="Helvetica,sans-Serif" font-size="11.00" fill="#000000">[table]</text>
<polygon fill="none" stroke="#000000" points="171.5,-466.7 171.5,-488.7 314.5,-488.7 314.5,-466.7 171.5,-466.7"/>
<image xlink:href="../../images/primaryKeys.png" width="11px" height="12px" preserveAspectRatio="xMinYMin meet" x="176.5" y="-483.7"/>
<text text-anchor="start" x="200.5" y="-473.8" font-family="Helvetica,sans-Serif" font-size="11.00" fill="#000000">Id</text>
<polygon fill="#ffffff" stroke="transparent" points="171.5,-444.7 171.5,-466.7 314.5,-466.7 314.5,-444.7 171.5,-444.7"/>
<polygon fill="none" stroke="#000000" points="171.5,-444.7 171.5,-466.7 314.5,-466.7 314.5,-444.7 171.5,-444.7"/>
<image xlink:href="../../images/foreignKeys.png" width="11px" height="12px" preserveAspectRatio="xMinYMin meet" x="176.5" y="-461.7"/>
<text text-anchor="start" x="200.5" y="-451.8" font-family="Helvetica,sans-Serif" font-size="11.00" fill="#000000">CreatedByUserId</text>
<polygon fill="#ffffff" stroke="transparent" points="171.5,-422.7 171.5,-444.7 314.5,-444.7 314.5,-422.7 171.5,-422.7"/>
<polygon fill="none" stroke="#000000" points="171.5,-422.7 171.5,-444.7 314.5,-444.7 314.5,-422.7 171.5,-422.7"/>
<image xlink:href="../../images/foreignKeys.png" width="11px" height="12px" preserveAspectRatio="xMinYMin meet" x="176.5" y="-439.7"/>
<text text-anchor="start" x="200.5" y="-429.8" font-family="Helvetica,sans-Serif" font-size="11.00" fill="#000000">UpdatedByUserId</text>
<polygon fill="none" stroke="#000000" points="171.5,-403.7 171.5,-422.7 314.5,-422.7 314.5,-403.7 171.5,-403.7"/>
<text text-anchor="start" x="174.5" y="-409.8" font-family="Helvetica,sans-Serif" font-size="11.00" fill="#000000">...</text>
<polygon fill="#ffffff" stroke="transparent" points="171.5,-384.7 171.5,-403.7 223.5,-403.7 223.5,-384.7 171.5,-384.7"/>
<polygon fill="none" stroke="#000000" points="171.5,-384.7 171.5,-403.7 223.5,-403.7 223.5,-384.7 171.5,-384.7"/>
<text text-anchor="start" x="174.5" y="-390.8" font-family="Helvetica,sans-Serif" font-size="11.00" fill="#000000">&lt; 2</text>
<polygon fill="#ffffff" stroke="transparent" points="223.5,-384.7 223.5,-403.7 277.5,-403.7 277.5,-384.7 223.5,-384.7"/>
<polygon fill="none" stroke="#000000" points="223.5,-384.7 223.5,-403.7 277.5,-403.7 277.5,-384.7 223.5,-384.7"/>
<text text-anchor="start" x="242.1105" y="-390.8" font-family="Helvetica,sans-Serif" font-size="11.00" fill="#000000">0 rows</text>
<polygon fill="#ffffff" stroke="transparent" points="277.5,-384.7 277.5,-403.7 314.5,-403.7 314.5,-384.7 277.5,-384.7"/>
<polygon fill="none" stroke="#000000" points="277.5,-384.7 277.5,-403.7 314.5,-403.7 314.5,-384.7 277.5,-384.7"/>
<text text-anchor="start" x="295.9053" y="-390.8" font-family="Helvetica,sans-Serif" font-size="11.00" fill="#000000">3 &gt;</text>
</a>
</g>
</g>
<!-- EvaluationPeriods&#45;&gt;AspNetUsers -->
<g id="edge4" class="edge">
<title>EvaluationPeriods:w&#45;&gt;AspNetUsers:e</title>
<path fill="none" stroke="#000000" d="M156.9383,-453.323C100.5486,-431.5603 202.6656,-267.7 122,-267.7"/>
<polygon fill="#000000" stroke="#000000" points="163.6045,-454.4111 170.92,-459.253 167.5523,-455.0556 171.5,-455.7 171.5,-455.7 171.5,-455.7 167.5523,-455.0556 172.08,-452.147 163.6045,-454.4111 163.6045,-454.4111"/>
<ellipse fill="none" stroke="#000000" cx="160.4463" cy="-453.8956" rx="3.2" ry="3.2"/>
</g>
<!-- EvaluationPeriods&#45;&gt;AspNetUsers -->
<g id="edge5" class="edge">
<title>EvaluationPeriods:w&#45;&gt;AspNetUsers:e</title>
<path fill="none" stroke="#000000" d="M157.2085,-431.0925C109.0205,-409.9738 193.2741,-267.7 122,-267.7"/>
<polygon fill="#000000" stroke="#000000" points="163.6299,-432.2641 170.8538,-437.2415 167.565,-432.982 171.5,-433.7 171.5,-433.7 171.5,-433.7 167.565,-432.982 172.1462,-430.1585 163.6299,-432.2641 163.6299,-432.2641"/>
<ellipse fill="none" stroke="#000000" cx="160.4819" cy="-431.6897" rx="3.2" ry="3.2"/>
</g>
<!-- EvaluationPeriodTechnicalCareer -->
<g id="node6" class="node">
<title>EvaluationPeriodTechnicalCareer</title>
<g id="a_node6"><a xlink:href="../../tables/EvaluationPeriodTechnicalCareer.html" xlink:title="EvaluationPeriodTechnicalCareer" target="_top">
<polygon fill="#ffffff" stroke="transparent" points="363,-423.7 363,-513.7 673,-513.7 673,-423.7 363,-423.7"/>
<polygon fill="#f5f5f5" stroke="transparent" points="365,-488.7 365,-511.7 671,-511.7 671,-488.7 365,-488.7"/>
<polygon fill="none" stroke="#000000" points="365,-488.7 365,-511.7 671,-511.7 671,-488.7 365,-488.7"/>
<text text-anchor="start" x="370" y="-497.3" font-family="Helvetica,sans-Serif" font-weight="bold" font-size="11.00" fill="#000000">EvaluationPeriodTechnicalCareer</text>
<text text-anchor="start" x="636.0437" y="-496.8" font-family="Helvetica,sans-Serif" font-size="11.00" fill="#000000">[table]</text>
<polygon fill="none" stroke="#000000" points="365,-466.7 365,-488.7 577,-488.7 577,-466.7 365,-466.7"/>
<image xlink:href="../../images/primaryKeys.png" width="11px" height="12px" preserveAspectRatio="xMinYMin meet" x="370" y="-483.7"/>
<text text-anchor="start" x="385" y="-473.8" font-family="Helvetica,sans-Serif" font-size="11.00" fill="#000000">EvaluationPeriodsId</text>
<polygon fill="none" stroke="#000000" points="577,-466.7 577,-488.7 671,-488.7 671,-466.7 577,-466.7"/>
<text text-anchor="start" x="579.9758" y="-474.4" font-family="Helvetica,sans-Serif" font-size="11.00" fill="#000000">uuid[2147483647]</text>
<polygon fill="none" stroke="#000000" points="365,-444.7 365,-466.7 577,-466.7 577,-444.7 365,-444.7"/>
<image xlink:href="../../images/primaryKeys.png" width="11px" height="12px" preserveAspectRatio="xMinYMin meet" x="370" y="-461.7"/>
<text text-anchor="start" x="385" y="-451.8" font-family="Helvetica,sans-Serif" font-size="11.00" fill="#000000">TechnicalCareersId</text>
<polygon fill="none" stroke="#000000" points="577,-444.7 577,-466.7 671,-466.7 671,-444.7 577,-444.7"/>
<text text-anchor="start" x="579.9758" y="-452.4" font-family="Helvetica,sans-Serif" font-size="11.00" fill="#000000">uuid[2147483647]</text>
<polygon fill="#ffffff" stroke="transparent" points="365,-425.7 365,-444.7 462,-444.7 462,-425.7 365,-425.7"/>
<polygon fill="none" stroke="#000000" points="365,-425.7 365,-444.7 462,-444.7 462,-425.7 365,-425.7"/>
<text text-anchor="start" x="368" y="-431.8" font-family="Helvetica,sans-Serif" font-size="11.00" fill="#000000">&lt; 2</text>
<polygon fill="#ffffff" stroke="transparent" points="462,-425.7 462,-444.7 577,-444.7 577,-425.7 462,-425.7"/>
<polygon fill="none" stroke="#000000" points="462,-425.7 462,-444.7 577,-444.7 577,-425.7 462,-425.7"/>
<text text-anchor="start" x="541.6105" y="-431.8" font-family="Helvetica,sans-Serif" font-size="11.00" fill="#000000">0 rows</text>
<polygon fill="#ffffff" stroke="transparent" points="577,-425.7 577,-444.7 671,-444.7 671,-425.7 577,-425.7"/>
<polygon fill="none" stroke="#000000" points="577,-425.7 577,-444.7 671,-444.7 671,-425.7 577,-425.7"/>
<text text-anchor="start" x="652.4053" y="-431.8" font-family="Helvetica,sans-Serif" font-size="11.00" fill="#000000">0 &gt;</text>
<polygon fill="none" stroke="#000000" stroke-width="2" points="364,-424.7 364,-512.7 672,-512.7 672,-424.7 364,-424.7"/>
</a>
</g>
</g>
<!-- EvaluationPeriodTechnicalCareer&#45;&gt;TechnicalCareers -->
<g id="edge7" class="edge">
<title>EvaluationPeriodTechnicalCareer:w&#45;&gt;TechnicalCareers:e</title>
<path fill="none" stroke="#000000" d="M350.8292,-453.0097C305.7814,-432.4273 379.551,-300.7 312.5,-300.7"/>
<polygon fill="#000000" stroke="#000000" points="357.1404,-454.2078 364.3285,-459.2368 361.0702,-454.9539 365,-455.7 365,-455.7 365,-455.7 361.0702,-454.9539 365.6715,-452.1632 357.1404,-454.2078 357.1404,-454.2078"/>
<ellipse fill="none" stroke="#000000" cx="353.9965" cy="-453.6109" rx="3.2" ry="3.2"/>
</g>
<!-- EvaluationPeriodTechnicalCareer&#45;&gt;EvaluationPeriods -->
<g id="edge6" class="edge">
<title>EvaluationPeriodTechnicalCareer:w&#45;&gt;EvaluationPeriods:e</title>
<path fill="none" stroke="#000000" d="M350.4203,-477.7C338.5435,-477.7 331.158,-477.7 314.5,-477.7"/>
<polygon fill="#000000" stroke="#000000" points="357,-477.7001 365,-481.3 361,-477.7 365,-477.7 365,-477.7 365,-477.7 361,-477.7 365,-474.1 357,-477.7001 357,-477.7001"/>
<ellipse fill="none" stroke="#000000" cx="353.8" cy="-477.7001" rx="3.2" ry="3.2"/>
</g>
<!-- ProfessorCompetencyAssignments -->
<g id="node7" class="node">
<title>ProfessorCompetencyAssignments</title>
<g id="a_node7"><a xlink:href="../../tables/ProfessorCompetencyAssignments.html" xlink:title="ProfessorCompetencyAssignments" target="_top">
<polygon fill="#ffffff" stroke="transparent" points="722,-537.2 722,-598.2 964,-598.2 964,-537.2 722,-537.2"/>
<polygon fill="#f5f5f5" stroke="transparent" points="722,-574.7 722,-597.7 964,-597.7 964,-574.7 722,-574.7"/>
<polygon fill="none" stroke="#000000" points="722,-574.7 722,-597.7 964,-597.7 964,-574.7 722,-574.7"/>
<text text-anchor="start" x="727" y="-583.3" font-family="Helvetica,sans-Serif" font-weight="bold" font-size="11.00" fill="#000000">ProfessorCompetencyAssignments</text>
<text text-anchor="start" x="929.5219" y="-582.8" font-family="Helvetica,sans-Serif" font-size="11.00" fill="#000000">[table]</text>
<polygon fill="none" stroke="#000000" points="722,-555.7 722,-574.7 964,-574.7 964,-555.7 722,-555.7"/>
<text text-anchor="start" x="725" y="-561.8" font-family="Helvetica,sans-Serif" font-size="11.00" fill="#000000">...</text>
<polygon fill="#ffffff" stroke="transparent" points="722,-536.7 722,-555.7 824,-555.7 824,-536.7 722,-536.7"/>
<polygon fill="none" stroke="#000000" points="722,-536.7 722,-555.7 824,-555.7 824,-536.7 722,-536.7"/>
<text text-anchor="start" x="725" y="-542.8" font-family="Helvetica,sans-Serif" font-size="11.00" fill="#000000">&lt; 7</text>
<polygon fill="#ffffff" stroke="transparent" points="824,-536.7 824,-555.7 902,-555.7 902,-536.7 824,-536.7"/>
<polygon fill="none" stroke="#000000" points="824,-536.7 824,-555.7 902,-555.7 902,-536.7 824,-536.7"/>
<text text-anchor="start" x="866.6105" y="-542.8" font-family="Helvetica,sans-Serif" font-size="11.00" fill="#000000">0 rows</text>
<polygon fill="#ffffff" stroke="transparent" points="902,-536.7 902,-555.7 964,-555.7 964,-536.7 902,-536.7"/>
<polygon fill="none" stroke="#000000" points="902,-536.7 902,-555.7 964,-555.7 964,-536.7 902,-536.7"/>
<text text-anchor="start" x="945.4053" y="-542.8" font-family="Helvetica,sans-Serif" font-size="11.00" fill="#000000">1 &gt;</text>
</a>
</g>
</g>
<!-- ProfessorCompetencyAssignments&#45;&gt;TechnicalCareers -->
<g id="edge11" class="edge">
<title>ProfessorCompetencyAssignments:w&#45;&gt;TechnicalCareers:e</title>
<path fill="none" stroke="#000000" d="M707.2981,-563.3786C630.8426,-547.7783 754.907,-398.0872 681,-330.7 673.411,-323.7805 322.77,-300.7 312.5,-300.7"/>
<polygon fill="#000000" stroke="#000000" points="714.0321,-563.9838 721.6777,-568.2855 718.0161,-564.3419 722,-564.7 722,-564.7 722,-564.7 718.0161,-564.3419 722.3223,-561.1145 714.0321,-563.9838 714.0321,-563.9838"/>
<ellipse fill="none" stroke="#000000" cx="710.845" cy="-563.6973" rx="3.2" ry="3.2"/>
</g>
<!-- ProfessorCompetencyAssignments&#45;&gt;AspNetUsers -->
<g id="edge8" class="edge">
<title>ProfessorCompetencyAssignments:w&#45;&gt;AspNetUsers:e</title>
<path fill="none" stroke="#000000" d="M707.4732,-565.7201C699.3004,-566.9521 693.3111,-568.9521 681,-569.7 536.3777,-578.4859 498.8463,-587.0501 355,-569.7 267.7793,-559.1799 222.5665,-587.2752 163,-522.7 124.0851,-480.5129 179.3945,-267.7 122,-267.7"/>
<polygon fill="#000000" stroke="#000000" points="714.0197,-565.2605 722.2522,-568.2912 718.0098,-564.9802 722,-564.7 722,-564.7 722,-564.7 718.0098,-564.9802 721.7478,-561.1088 714.0197,-565.2605 714.0197,-565.2605"/>
<ellipse fill="none" stroke="#000000" cx="710.8275" cy="-565.4847" rx="3.2" ry="3.2"/>
</g>
<!-- ProfessorCompetencyAssignments&#45;&gt;AspNetUsers -->
<g id="edge12" class="edge">
<title>ProfessorCompetencyAssignments:w&#45;&gt;AspNetUsers:e</title>
<path fill="none" stroke="#000000" d="M707.517,-564.8534C467.2178,-569.9303 328.944,-698.1477 163,-518.7 124.6282,-477.2057 178.517,-267.7 122,-267.7"/>
<polygon fill="#000000" stroke="#000000" points="714.0004,-564.7848 722.0382,-568.2998 718.0002,-564.7424 722,-564.7 722,-564.7 722,-564.7 718.0002,-564.7424 721.9618,-561.1002 714.0004,-564.7848 714.0004,-564.7848"/>
<ellipse fill="none" stroke="#000000" cx="710.8006" cy="-564.8187" rx="3.2" ry="3.2"/>
</g>
<!-- ProfessorCompetencyAssignments&#45;&gt;EvaluationPeriods -->
<g id="edge9" class="edge">
<title>ProfessorCompetencyAssignments:w&#45;&gt;EvaluationPeriods:e</title>
<path fill="none" stroke="#000000" d="M707.4494,-564.9128C617.2123,-567.2769 420.9457,-587.7953 355,-547.7 324.2881,-529.027 350.443,-477.7 314.5,-477.7"/>
<polygon fill="#000000" stroke="#000000" points="714.0009,-564.817 722.0527,-568.2996 718.0004,-564.7585 722,-564.7 722,-564.7 722,-564.7 718.0004,-564.7585 721.9473,-561.1004 714.0009,-564.817 714.0009,-564.817"/>
<ellipse fill="none" stroke="#000000" cx="710.8012" cy="-564.8638" rx="3.2" ry="3.2"/>
</g>
<!-- Subjects -->
<g id="node8" class="node">
<title>Subjects</title>
<g id="a_node8"><a xlink:href="../../tables/Subjects.html" xlink:title="Subjects" target="_top">
<polygon fill="#ffffff" stroke="transparent" points="473.5,-149.2 473.5,-210.2 562.5,-210.2 562.5,-149.2 473.5,-149.2"/>
<polygon fill="#f5f5f5" stroke="transparent" points="474,-186.7 474,-209.7 563,-209.7 563,-186.7 474,-186.7"/>
<polygon fill="none" stroke="#000000" points="474,-186.7 474,-209.7 563,-209.7 563,-186.7 474,-186.7"/>
<text text-anchor="start" x="479" y="-195.3" font-family="Helvetica,sans-Serif" font-weight="bold" font-size="11.00" fill="#000000">Subjects</text>
<text text-anchor="start" x="528.5219" y="-194.8" font-family="Helvetica,sans-Serif" font-size="11.00" fill="#000000">[table]</text>
<polygon fill="none" stroke="#000000" points="474,-167.7 474,-186.7 563,-186.7 563,-167.7 474,-167.7"/>
<text text-anchor="start" x="477" y="-173.8" font-family="Helvetica,sans-Serif" font-size="11.00" fill="#000000">...</text>
<polygon fill="#ffffff" stroke="transparent" points="474,-148.7 474,-167.7 499,-167.7 499,-148.7 474,-148.7"/>
<polygon fill="none" stroke="#000000" points="474,-148.7 474,-167.7 499,-167.7 499,-148.7 474,-148.7"/>
<text text-anchor="start" x="477" y="-154.8" font-family="Helvetica,sans-Serif" font-size="11.00" fill="#000000">&lt; 4</text>
<polygon fill="#ffffff" stroke="transparent" points="499,-148.7 499,-167.7 539,-167.7 539,-148.7 499,-148.7"/>
<polygon fill="none" stroke="#000000" points="499,-148.7 499,-167.7 539,-167.7 539,-148.7 499,-148.7"/>
<text text-anchor="start" x="503.6105" y="-154.8" font-family="Helvetica,sans-Serif" font-size="11.00" fill="#000000">0 rows</text>
<polygon fill="#ffffff" stroke="transparent" points="539,-148.7 539,-167.7 563,-167.7 563,-148.7 539,-148.7"/>
<polygon fill="none" stroke="#000000" points="539,-148.7 539,-167.7 563,-167.7 563,-148.7 539,-148.7"/>
<text text-anchor="start" x="544.4053" y="-154.8" font-family="Helvetica,sans-Serif" font-size="11.00" fill="#000000">3 &gt;</text>
</a>
</g>
</g>
<!-- ProfessorCompetencyAssignments&#45;&gt;Subjects -->
<g id="edge10" class="edge">
<title>ProfessorCompetencyAssignments:w&#45;&gt;Subjects:e</title>
<path fill="none" stroke="#000000" d="M708.0407,-560.6716C656.1176,-525.9381 725.2351,-276.9661 681,-220.7 646.4068,-176.6983 618.9718,-176.7 563,-176.7"/>
<polygon fill="#000000" stroke="#000000" points="714.3137,-562.4818 721.0018,-568.1589 718.1568,-563.5909 722,-564.7 722,-564.7 722,-564.7 718.1568,-563.5909 722.9982,-561.2411 714.3137,-562.4818 714.3137,-562.4818"/>
<ellipse fill="none" stroke="#000000" cx="711.2391" cy="-561.5946" rx="3.2" ry="3.2"/>
</g>
<!-- Subjects&#45;&gt;TechnicalCareers -->
<g id="edge20" class="edge">
<title>Subjects:w&#45;&gt;TechnicalCareers:e</title>
<path fill="none" stroke="#000000" d="M459.3418,-176.8922C413.7232,-178.2196 393.5586,-186.9966 355,-220.7 324.6864,-247.1966 352.7615,-300.7 312.5,-300.7"/>
<polygon fill="#000000" stroke="#000000" points="466.0007,-176.805 474.0472,-180.2997 470.0003,-176.7525 474,-176.7 474,-176.7 474,-176.7 470.0003,-176.7525 473.9528,-173.1003 466.0007,-176.805 466.0007,-176.805"/>
<ellipse fill="none" stroke="#000000" cx="462.801" cy="-176.8469" rx="3.2" ry="3.2"/>
</g>
<!-- Subjects&#45;&gt;AspNetUsers -->
<g id="edge19" class="edge">
<title>Subjects:w&#45;&gt;AspNetUsers:e</title>
<path fill="none" stroke="#000000" d="M459.3044,-176.505C331.4305,-173.112 276.5456,-127.4292 163,-197.7 132.3415,-216.6739 158.0548,-267.7 122,-267.7"/>
<polygon fill="#000000" stroke="#000000" points="466.0007,-176.5938 473.9522,-180.2997 470.0004,-176.6469 474,-176.7 474,-176.7 474,-176.7 470.0004,-176.6469 474.0478,-173.1003 466.0007,-176.5938 466.0007,-176.5938"/>
<ellipse fill="none" stroke="#000000" cx="462.801" cy="-176.5514" rx="3.2" ry="3.2"/>
</g>
<!-- Subjects&#45;&gt;AspNetUsers -->
<g id="edge21" class="edge">
<title>Subjects:w&#45;&gt;AspNetUsers:e</title>
<path fill="none" stroke="#000000" d="M459.2934,-176.523C331.3499,-173.4455 277.1159,-132.116 163,-201.7 133.5164,-219.6781 156.5325,-267.7 122,-267.7"/>
<polygon fill="#000000" stroke="#000000" points="466.0006,-176.6037 473.9567,-180.2997 470.0003,-176.6518 474,-176.7 474,-176.7 474,-176.7 470.0003,-176.6518 474.0433,-173.1003 466.0006,-176.6037 466.0006,-176.6037"/>
<ellipse fill="none" stroke="#000000" cx="462.8008" cy="-176.5652" rx="3.2" ry="3.2"/>
</g>
<!-- StudentEvaluationReport -->
<g id="node9" class="node">
<title>StudentEvaluationReport</title>
<g id="a_node9"><a xlink:href="../../tables/StudentEvaluationReport.html" xlink:title="StudentEvaluationReport" target="_top">
<polygon fill="#ffffff" stroke="transparent" points="751.5,-38.2 751.5,-99.2 934.5,-99.2 934.5,-38.2 751.5,-38.2"/>
<polygon fill="#f5f5f5" stroke="transparent" points="752,-75.7 752,-98.7 935,-98.7 935,-75.7 752,-75.7"/>
<polygon fill="none" stroke="#000000" points="752,-75.7 752,-98.7 935,-98.7 935,-75.7 752,-75.7"/>
<text text-anchor="start" x="757" y="-84.3" font-family="Helvetica,sans-Serif" font-weight="bold" font-size="11.00" fill="#000000">StudentEvaluationReport</text>
<text text-anchor="start" x="900.5219" y="-83.8" font-family="Helvetica,sans-Serif" font-size="11.00" fill="#000000">[table]</text>
<polygon fill="none" stroke="#000000" points="752,-56.7 752,-75.7 935,-75.7 935,-56.7 752,-56.7"/>
<text text-anchor="start" x="755" y="-62.8" font-family="Helvetica,sans-Serif" font-size="11.00" fill="#000000">...</text>
<polygon fill="#ffffff" stroke="transparent" points="752,-37.7 752,-56.7 829,-56.7 829,-37.7 752,-37.7"/>
<polygon fill="none" stroke="#000000" points="752,-37.7 752,-56.7 829,-56.7 829,-37.7 752,-37.7"/>
<text text-anchor="start" x="755" y="-43.8" font-family="Helvetica,sans-Serif" font-size="11.00" fill="#000000">&lt; 4</text>
<polygon fill="#ffffff" stroke="transparent" points="829,-37.7 829,-56.7 895,-56.7 895,-37.7 829,-37.7"/>
<polygon fill="none" stroke="#000000" points="829,-37.7 829,-56.7 895,-56.7 895,-37.7 829,-37.7"/>
<text text-anchor="start" x="859.6105" y="-43.8" font-family="Helvetica,sans-Serif" font-size="11.00" fill="#000000">0 rows</text>
<polygon fill="#ffffff" stroke="transparent" points="895,-37.7 895,-56.7 935,-56.7 935,-37.7 895,-37.7"/>
<polygon fill="none" stroke="#000000" points="895,-37.7 895,-56.7 935,-56.7 935,-37.7 895,-37.7"/>
<text text-anchor="start" x="925.8862" y="-43.8" font-family="Helvetica,sans-Serif" font-size="11.00" fill="#000000"> &#160;</text>
</a>
</g>
</g>
<!-- StudentEvaluationReport&#45;&gt;AspNetUsers -->
<g id="edge13" class="edge">
<title>StudentEvaluationReport:w&#45;&gt;AspNetUsers:e</title>
<path fill="none" stroke="#000000" d="M737.5109,-65.1409C716.9142,-63.4426 707.2887,-58.3595 681,-56.7 536.3989,-47.5717 499.3952,-44.7495 355,-56.7 268.7844,-63.8354 225.98,-29.3909 163,-88.7 103.5833,-144.6535 203.6158,-267.7 122,-267.7"/>
<polygon fill="#000000" stroke="#000000" points="744.006,-65.3915 751.8612,-69.2973 748.003,-65.5457 752,-65.7 752,-65.7 752,-65.7 748.003,-65.5457 752.1388,-62.1027 744.006,-65.3915 744.006,-65.3915"/>
<ellipse fill="none" stroke="#000000" cx="740.8083" cy="-65.268" rx="3.2" ry="3.2"/>
</g>
<!-- StudentEvaluationReport&#45;&gt;AspNetUsers -->
<g id="edge16" class="edge">
<title>StudentEvaluationReport:w&#45;&gt;AspNetUsers:e</title>
<path fill="none" stroke="#000000" d="M737.5629,-65.3893C716.9966,-64.4454 707.1805,-61.6207 681,-60.7 536.2006,-55.6077 499.3952,-48.7495 355,-60.7 268.7844,-67.8354 226.1271,-33.5475 163,-92.7 104.7083,-147.3215 201.8839,-267.7 122,-267.7"/>
<polygon fill="#000000" stroke="#000000" points="744.0019,-65.5278 751.9225,-69.2992 748.0009,-65.6139 752,-65.7 752,-65.7 752,-65.7 748.0009,-65.6139 752.0775,-62.1008 744.0019,-65.5278 744.0019,-65.5278"/>
<ellipse fill="none" stroke="#000000" cx="740.8026" cy="-65.4589" rx="3.2" ry="3.2"/>
</g>
<!-- StudentEvaluationReport&#45;&gt;EvaluationPeriods -->
<g id="edge14" class="edge">
<title>StudentEvaluationReport:w&#45;&gt;EvaluationPeriods:e</title>
<path fill="none" stroke="#000000" d="M737.8773,-68.6374C659.5301,-104.6577 755.3833,-460.938 681,-524.7 653.4989,-548.2742 387.9282,-539.7925 355,-524.7 329.9332,-513.2107 342.0744,-477.7 314.5,-477.7"/>
<polygon fill="#000000" stroke="#000000" points="744.1676,-67.3291 752.7331,-69.2246 748.0838,-66.5146 752,-65.7 752,-65.7 752,-65.7 748.0838,-66.5146 751.2669,-62.1754 744.1676,-67.3291 744.1676,-67.3291"/>
<ellipse fill="none" stroke="#000000" cx="741.0347" cy="-67.9808" rx="3.2" ry="3.2"/>
</g>
<!-- Students -->
<g id="node10" class="node">
<title>Students</title>
<g id="a_node10"><a xlink:href="../../tables/Students.html" xlink:title="Students" target="_top">
<polygon fill="#ffffff" stroke="transparent" points="473,-67.2 473,-128.2 563,-128.2 563,-67.2 473,-67.2"/>
<polygon fill="#f5f5f5" stroke="transparent" points="473,-104.7 473,-127.7 563,-127.7 563,-104.7 473,-104.7"/>
<polygon fill="none" stroke="#000000" points="473,-104.7 473,-127.7 563,-127.7 563,-104.7 473,-104.7"/>
<text text-anchor="start" x="478" y="-113.3" font-family="Helvetica,sans-Serif" font-weight="bold" font-size="11.00" fill="#000000">Students</text>
<text text-anchor="start" x="528.5219" y="-112.8" font-family="Helvetica,sans-Serif" font-size="11.00" fill="#000000">[table]</text>
<polygon fill="none" stroke="#000000" points="473,-85.7 473,-104.7 563,-104.7 563,-85.7 473,-85.7"/>
<text text-anchor="start" x="476" y="-91.8" font-family="Helvetica,sans-Serif" font-size="11.00" fill="#000000">...</text>
<polygon fill="#ffffff" stroke="transparent" points="473,-66.7 473,-85.7 499,-85.7 499,-66.7 473,-66.7"/>
<polygon fill="none" stroke="#000000" points="473,-66.7 473,-85.7 499,-85.7 499,-66.7 473,-66.7"/>
<text text-anchor="start" x="476" y="-72.8" font-family="Helvetica,sans-Serif" font-size="11.00" fill="#000000">&lt; 2</text>
<polygon fill="#ffffff" stroke="transparent" points="499,-66.7 499,-85.7 539,-85.7 539,-66.7 499,-66.7"/>
<polygon fill="none" stroke="#000000" points="499,-66.7 499,-85.7 539,-85.7 539,-66.7 499,-66.7"/>
<text text-anchor="start" x="503.6105" y="-72.8" font-family="Helvetica,sans-Serif" font-size="11.00" fill="#000000">0 rows</text>
<polygon fill="#ffffff" stroke="transparent" points="539,-66.7 539,-85.7 563,-85.7 563,-66.7 539,-66.7"/>
<polygon fill="none" stroke="#000000" points="539,-66.7 539,-85.7 563,-85.7 563,-66.7 539,-66.7"/>
<text text-anchor="start" x="544.4053" y="-72.8" font-family="Helvetica,sans-Serif" font-size="11.00" fill="#000000">3 &gt;</text>
</a>
</g>
</g>
<!-- StudentEvaluationReport&#45;&gt;Students -->
<g id="edge15" class="edge">
<title>StudentEvaluationReport:w&#45;&gt;Students:e</title>
<path fill="none" stroke="#000000" d="M737.2596,-66.0061C664.4703,-69.1054 642.8376,-94.7 563,-94.7"/>
<polygon fill="#000000" stroke="#000000" points="744.0017,-65.8661 752.0748,-69.2992 748.0009,-65.7831 752,-65.7 752,-65.7 752,-65.7 748.0009,-65.7831 751.9252,-62.1008 744.0017,-65.8661 744.0017,-65.8661"/>
<ellipse fill="none" stroke="#000000" cx="740.8024" cy="-65.9326" rx="3.2" ry="3.2"/>
</g>
<!-- Students&#45;&gt;TechnicalCareers -->
<g id="edge17" class="edge">
<title>Students:w&#45;&gt;TechnicalCareers:e</title>
<path fill="none" stroke="#000000" d="M458.3474,-94.7911C412.4229,-95.4854 389.0969,-100.9976 355,-138.7 305.0715,-193.9081 386.9365,-300.7 312.5,-300.7"/>
<polygon fill="#000000" stroke="#000000" points="465.0002,-94.7498 473.0224,-98.2999 469.0001,-94.7249 473,-94.7 473,-94.7 473,-94.7 469.0001,-94.7249 472.9776,-91.1001 465.0002,-94.7498 465.0002,-94.7498"/>
<ellipse fill="none" stroke="#000000" cx="461.8002" cy="-94.7697" rx="3.2" ry="3.2"/>
</g>
<!-- Students&#45;&gt;AspNetUsers -->
<g id="edge18" class="edge">
<title>Students:w&#45;&gt;AspNetUsers:e</title>
<path fill="none" stroke="#000000" d="M462.4396,-94.6476C329.2017,-93.3375 267.1586,-68.6682 163,-157.7 123.3398,-191.6004 174.1744,-267.7 122,-267.7"/>
<polygon fill="#000000" stroke="#000000" points="472.2199,-90.6961 472.1801,-98.696 470.5801,-98.688 470.6199,-90.6881 472.2199,-90.6961"/>
<polyline fill="none" stroke="#000000" points="473,-94.7 469,-94.6801 "/>
<ellipse fill="none" stroke="#000000" cx="465.8001" cy="-94.6642" rx="3.2" ry="3.2"/>
</g>
</g>
</svg>
