<?xml version="1.0" encoding="UTF-8" standalone="no"?>
<!DOCTYPE svg PUBLIC "-//W3C//DTD SVG 1.1//EN"
 "http://www.w3.org/Graphics/SVG/1.1/DTD/svg11.dtd">
<!-- Generated by graphviz version 2.40.1 (20161225.0304)
 -->
<!-- Title: oneDegreeRelationshipsDiagram Pages: 1 -->
<svg width="526pt" height="325pt"
 viewBox="0.00 0.00 526.00 325.20" xmlns="http://www.w3.org/2000/svg" xmlns:xlink="http://www.w3.org/1999/xlink">
<g id="graph0" class="graph" transform="scale(1 1) rotate(0) translate(4 321.2)">
<title>oneDegreeRelationshipsDiagram</title>
<polygon fill="#ffffff" stroke="transparent" points="-4,4 -4,-321.2 522,-321.2 522,4 -4,4"/>
<text text-anchor="middle" x="72.4936" y="-7.3" font-family="Helvetica,sans-Serif" font-size="11.00" fill="#000000">Generated by SchemaSpy</text>
<!-- EvaluationPeriodTechnicalCareer -->
<g id="node1" class="node">
<title>EvaluationPeriodTechnicalCareer</title>
<g id="a_node1"><a xlink:href="../../tables/EvaluationPeriodTechnicalCareer.html" xlink:title="EvaluationPeriodTechnicalCareer" target="_top">
<polygon fill="#ffffff" stroke="transparent" points="200,-161.7 200,-251.7 510,-251.7 510,-161.7 200,-161.7"/>
<polygon fill="#f5f5f5" stroke="transparent" points="202,-226.7 202,-249.7 508,-249.7 508,-226.7 202,-226.7"/>
<polygon fill="none" stroke="#000000" points="202,-226.7 202,-249.7 508,-249.7 508,-226.7 202,-226.7"/>
<text text-anchor="start" x="207" y="-235.3" font-family="Helvetica,sans-Serif" font-weight="bold" font-size="11.00" fill="#000000">EvaluationPeriodTechnicalCareer</text>
<text text-anchor="start" x="473.0437" y="-234.8" font-family="Helvetica,sans-Serif" font-size="11.00" fill="#000000">[table]</text>
<polygon fill="none" stroke="#000000" points="202,-204.7 202,-226.7 414,-226.7 414,-204.7 202,-204.7"/>
<image xlink:href="../../images/primaryKeys.png" width="11px" height="12px" preserveAspectRatio="xMinYMin meet" x="207" y="-221.7"/>
<text text-anchor="start" x="222" y="-211.8" font-family="Helvetica,sans-Serif" font-size="11.00" fill="#000000">EvaluationPeriodsId</text>
<polygon fill="none" stroke="#000000" points="414,-204.7 414,-226.7 508,-226.7 508,-204.7 414,-204.7"/>
<text text-anchor="start" x="416.9758" y="-212.4" font-family="Helvetica,sans-Serif" font-size="11.00" fill="#000000">uuid[2147483647]</text>
<polygon fill="none" stroke="#000000" points="202,-182.7 202,-204.7 414,-204.7 414,-182.7 202,-182.7"/>
<image xlink:href="../../images/primaryKeys.png" width="11px" height="12px" preserveAspectRatio="xMinYMin meet" x="207" y="-199.7"/>
<text text-anchor="start" x="222" y="-189.8" font-family="Helvetica,sans-Serif" font-size="11.00" fill="#000000">TechnicalCareersId</text>
<polygon fill="none" stroke="#000000" points="414,-182.7 414,-204.7 508,-204.7 508,-182.7 414,-182.7"/>
<text text-anchor="start" x="416.9758" y="-190.4" font-family="Helvetica,sans-Serif" font-size="11.00" fill="#000000">uuid[2147483647]</text>
<polygon fill="#ffffff" stroke="transparent" points="202,-163.7 202,-182.7 299,-182.7 299,-163.7 202,-163.7"/>
<polygon fill="none" stroke="#000000" points="202,-163.7 202,-182.7 299,-182.7 299,-163.7 202,-163.7"/>
<text text-anchor="start" x="205" y="-169.8" font-family="Helvetica,sans-Serif" font-size="11.00" fill="#000000">&lt; 2</text>
<polygon fill="#ffffff" stroke="transparent" points="299,-163.7 299,-182.7 414,-182.7 414,-163.7 299,-163.7"/>
<polygon fill="none" stroke="#000000" points="299,-163.7 299,-182.7 414,-182.7 414,-163.7 299,-163.7"/>
<text text-anchor="start" x="378.6105" y="-169.8" font-family="Helvetica,sans-Serif" font-size="11.00" fill="#000000">0 rows</text>
<polygon fill="#ffffff" stroke="transparent" points="414,-163.7 414,-182.7 508,-182.7 508,-163.7 414,-163.7"/>
<polygon fill="none" stroke="#000000" points="414,-163.7 414,-182.7 508,-182.7 508,-163.7 414,-163.7"/>
<text text-anchor="start" x="489.4053" y="-169.8" font-family="Helvetica,sans-Serif" font-size="11.00" fill="#000000">0 &gt;</text>
<polygon fill="none" stroke="#000000" stroke-width="2" points="201,-162.7 201,-250.7 509,-250.7 509,-162.7 201,-162.7"/>
</a>
</g>
</g>
<!-- EvaluationPeriods -->
<g id="node2" class="node">
<title>EvaluationPeriods</title>
<g id="a_node2"><a xlink:href="../../tables/EvaluationPeriods.html" xlink:title="EvaluationPeriods" target="_top">
<polygon fill="#ffffff" stroke="transparent" points="8,-186.2 8,-313.2 151,-313.2 151,-186.2 8,-186.2"/>
<polygon fill="#f5f5f5" stroke="transparent" points="8.5,-289.7 8.5,-312.7 151.5,-312.7 151.5,-289.7 8.5,-289.7"/>
<polygon fill="none" stroke="#000000" points="8.5,-289.7 8.5,-312.7 151.5,-312.7 151.5,-289.7 8.5,-289.7"/>
<text text-anchor="start" x="13.5" y="-298.3" font-family="Helvetica,sans-Serif" font-weight="bold" font-size="11.00" fill="#000000">EvaluationPeriods</text>
<text text-anchor="start" x="117.0219" y="-297.8" font-family="Helvetica,sans-Serif" font-size="11.00" fill="#000000">[table]</text>
<polygon fill="none" stroke="#000000" points="8.5,-267.7 8.5,-289.7 151.5,-289.7 151.5,-267.7 8.5,-267.7"/>
<image xlink:href="../../images/primaryKeys.png" width="11px" height="12px" preserveAspectRatio="xMinYMin meet" x="13.5" y="-284.7"/>
<text text-anchor="start" x="37.5" y="-274.8" font-family="Helvetica,sans-Serif" font-size="11.00" fill="#000000">Id</text>
<polygon fill="#ffffff" stroke="transparent" points="8.5,-245.7 8.5,-267.7 151.5,-267.7 151.5,-245.7 8.5,-245.7"/>
<polygon fill="none" stroke="#000000" points="8.5,-245.7 8.5,-267.7 151.5,-267.7 151.5,-245.7 8.5,-245.7"/>
<image xlink:href="../../images/foreignKeys.png" width="11px" height="12px" preserveAspectRatio="xMinYMin meet" x="13.5" y="-262.7"/>
<text text-anchor="start" x="37.5" y="-252.8" font-family="Helvetica,sans-Serif" font-size="11.00" fill="#000000">CreatedByUserId</text>
<polygon fill="#ffffff" stroke="transparent" points="8.5,-223.7 8.5,-245.7 151.5,-245.7 151.5,-223.7 8.5,-223.7"/>
<polygon fill="none" stroke="#000000" points="8.5,-223.7 8.5,-245.7 151.5,-245.7 151.5,-223.7 8.5,-223.7"/>
<image xlink:href="../../images/foreignKeys.png" width="11px" height="12px" preserveAspectRatio="xMinYMin meet" x="13.5" y="-240.7"/>
<text text-anchor="start" x="37.5" y="-230.8" font-family="Helvetica,sans-Serif" font-size="11.00" fill="#000000">UpdatedByUserId</text>
<polygon fill="none" stroke="#000000" points="8.5,-204.7 8.5,-223.7 151.5,-223.7 151.5,-204.7 8.5,-204.7"/>
<text text-anchor="start" x="11.5" y="-210.8" font-family="Helvetica,sans-Serif" font-size="11.00" fill="#000000">...</text>
<polygon fill="#ffffff" stroke="transparent" points="8.5,-185.7 8.5,-204.7 60.5,-204.7 60.5,-185.7 8.5,-185.7"/>
<polygon fill="none" stroke="#000000" points="8.5,-185.7 8.5,-204.7 60.5,-204.7 60.5,-185.7 8.5,-185.7"/>
<text text-anchor="start" x="11.5" y="-191.8" font-family="Helvetica,sans-Serif" font-size="11.00" fill="#000000">&lt; 2</text>
<polygon fill="#ffffff" stroke="transparent" points="60.5,-185.7 60.5,-204.7 114.5,-204.7 114.5,-185.7 60.5,-185.7"/>
<polygon fill="none" stroke="#000000" points="60.5,-185.7 60.5,-204.7 114.5,-204.7 114.5,-185.7 60.5,-185.7"/>
<text text-anchor="start" x="79.1105" y="-191.8" font-family="Helvetica,sans-Serif" font-size="11.00" fill="#000000">0 rows</text>
<polygon fill="#ffffff" stroke="transparent" points="114.5,-185.7 114.5,-204.7 151.5,-204.7 151.5,-185.7 114.5,-185.7"/>
<polygon fill="none" stroke="#000000" points="114.5,-185.7 114.5,-204.7 151.5,-204.7 151.5,-185.7 114.5,-185.7"/>
<text text-anchor="start" x="132.9053" y="-191.8" font-family="Helvetica,sans-Serif" font-size="11.00" fill="#000000">3 &gt;</text>
</a>
</g>
</g>
<!-- EvaluationPeriodTechnicalCareer&#45;&gt;EvaluationPeriods -->
<g id="edge1" class="edge">
<title>EvaluationPeriodTechnicalCareer:w&#45;&gt;EvaluationPeriods:e</title>
<path fill="none" stroke="#000000" d="M187.9816,-220.6435C171.738,-235.4952 181.2175,-278.7 151.5,-278.7"/>
<polygon fill="#000000" stroke="#000000" points="194.4554,-218.3606 203.1973,-219.0951 198.2277,-217.0303 202,-215.7 202,-215.7 202,-215.7 198.2277,-217.0303 200.8027,-212.3049 194.4554,-218.3606 194.4554,-218.3606"/>
<ellipse fill="none" stroke="#000000" cx="191.4375" cy="-219.4248" rx="3.2" ry="3.2"/>
</g>
<!-- TechnicalCareers -->
<g id="node3" class="node">
<title>TechnicalCareers</title>
<g id="a_node3"><a xlink:href="../../tables/TechnicalCareers.html" xlink:title="TechnicalCareers" target="_top">
<polygon fill="#ffffff" stroke="transparent" points="10,-38.2 10,-165.2 149,-165.2 149,-38.2 10,-38.2"/>
<polygon fill="#f5f5f5" stroke="transparent" points="10.5,-141.7 10.5,-164.7 149.5,-164.7 149.5,-141.7 10.5,-141.7"/>
<polygon fill="none" stroke="#000000" points="10.5,-141.7 10.5,-164.7 149.5,-164.7 149.5,-141.7 10.5,-141.7"/>
<text text-anchor="start" x="15.5" y="-150.3" font-family="Helvetica,sans-Serif" font-weight="bold" font-size="11.00" fill="#000000">TechnicalCareers</text>
<text text-anchor="start" x="115.0219" y="-149.8" font-family="Helvetica,sans-Serif" font-size="11.00" fill="#000000">[table]</text>
<polygon fill="none" stroke="#000000" points="10.5,-119.7 10.5,-141.7 149.5,-141.7 149.5,-119.7 10.5,-119.7"/>
<image xlink:href="../../images/primaryKeys.png" width="11px" height="12px" preserveAspectRatio="xMinYMin meet" x="15.5" y="-136.7"/>
<text text-anchor="start" x="39.5" y="-126.8" font-family="Helvetica,sans-Serif" font-size="11.00" fill="#000000">Id</text>
<polygon fill="#ffffff" stroke="transparent" points="10.5,-97.7 10.5,-119.7 149.5,-119.7 149.5,-97.7 10.5,-97.7"/>
<polygon fill="none" stroke="#000000" points="10.5,-97.7 10.5,-119.7 149.5,-119.7 149.5,-97.7 10.5,-97.7"/>
<image xlink:href="../../images/foreignKeys.png" width="11px" height="12px" preserveAspectRatio="xMinYMin meet" x="15.5" y="-114.7"/>
<text text-anchor="start" x="39.5" y="-104.8" font-family="Helvetica,sans-Serif" font-size="11.00" fill="#000000">CreatedByUserId</text>
<polygon fill="#ffffff" stroke="transparent" points="10.5,-75.7 10.5,-97.7 149.5,-97.7 149.5,-75.7 10.5,-75.7"/>
<polygon fill="none" stroke="#000000" points="10.5,-75.7 10.5,-97.7 149.5,-97.7 149.5,-75.7 10.5,-75.7"/>
<image xlink:href="../../images/foreignKeys.png" width="11px" height="12px" preserveAspectRatio="xMinYMin meet" x="15.5" y="-92.7"/>
<text text-anchor="start" x="39.5" y="-82.8" font-family="Helvetica,sans-Serif" font-size="11.00" fill="#000000">UpdatedByUserId</text>
<polygon fill="none" stroke="#000000" points="10.5,-56.7 10.5,-75.7 149.5,-75.7 149.5,-56.7 10.5,-56.7"/>
<text text-anchor="start" x="13.5" y="-62.8" font-family="Helvetica,sans-Serif" font-size="11.00" fill="#000000">...</text>
<polygon fill="#ffffff" stroke="transparent" points="10.5,-37.7 10.5,-56.7 60.5,-56.7 60.5,-37.7 10.5,-37.7"/>
<polygon fill="none" stroke="#000000" points="10.5,-37.7 10.5,-56.7 60.5,-56.7 60.5,-37.7 10.5,-37.7"/>
<text text-anchor="start" x="13.5" y="-43.8" font-family="Helvetica,sans-Serif" font-size="11.00" fill="#000000">&lt; 2</text>
<polygon fill="#ffffff" stroke="transparent" points="60.5,-37.7 60.5,-56.7 113.5,-56.7 113.5,-37.7 60.5,-37.7"/>
<polygon fill="none" stroke="#000000" points="60.5,-37.7 60.5,-56.7 113.5,-56.7 113.5,-37.7 60.5,-37.7"/>
<text text-anchor="start" x="78.1105" y="-43.8" font-family="Helvetica,sans-Serif" font-size="11.00" fill="#000000">6 rows</text>
<polygon fill="#ffffff" stroke="transparent" points="113.5,-37.7 113.5,-56.7 149.5,-56.7 149.5,-37.7 113.5,-37.7"/>
<polygon fill="none" stroke="#000000" points="113.5,-37.7 113.5,-56.7 149.5,-56.7 149.5,-37.7 113.5,-37.7"/>
<text text-anchor="start" x="130.9053" y="-43.8" font-family="Helvetica,sans-Serif" font-size="11.00" fill="#000000">6 &gt;</text>
</a>
</g>
</g>
<!-- EvaluationPeriodTechnicalCareer&#45;&gt;TechnicalCareers -->
<g id="edge2" class="edge">
<title>EvaluationPeriodTechnicalCareer:w&#45;&gt;TechnicalCareers:e</title>
<path fill="none" stroke="#000000" d="M188.1489,-189.1692C170.7145,-174.7239 179.9681,-130.7 149.5,-130.7"/>
<polygon fill="#000000" stroke="#000000" points="194.3964,-191.2128 200.8808,-197.1216 198.1982,-192.4564 202,-193.7 202,-193.7 202,-193.7 198.1982,-192.4564 203.1192,-190.2784 194.3964,-191.2128 194.3964,-191.2128"/>
<ellipse fill="none" stroke="#000000" cx="191.355" cy="-190.2179" rx="3.2" ry="3.2"/>
</g>
</g>
</svg>
