<?xml version="1.0" encoding="UTF-8" standalone="no"?>
<!DOCTYPE svg PUBLIC "-//W3C//DTD SVG 1.1//EN"
 "http://www.w3.org/Graphics/SVG/1.1/DTD/svg11.dtd">
<!-- Generated by graphviz version 2.40.1 (20161225.0304)
 -->
<!-- Title: oneDegreeRelationshipsDiagram Pages: 1 -->
<svg width="750pt" height="587pt"
 viewBox="0.00 0.00 750.00 586.70" xmlns="http://www.w3.org/2000/svg" xmlns:xlink="http://www.w3.org/1999/xlink">
<g id="graph0" class="graph" transform="scale(1 1) rotate(0) translate(4 582.7)">
<title>oneDegreeRelationshipsDiagram</title>
<polygon fill="#ffffff" stroke="transparent" points="-4,4 -4,-582.7 746,-582.7 746,4 -4,4"/>
<text text-anchor="middle" x="72.4936" y="-7.3" font-family="Helvetica,sans-Serif" font-size="11.00" fill="#000000">Generated by SchemaSpy</text>
<!-- EvaluationPeriods -->
<g id="node1" class="node">
<title>EvaluationPeriods</title>
<g id="a_node1"><a xlink:href="../../tables/EvaluationPeriods.html" xlink:title="EvaluationPeriods" target="_top">
<polygon fill="#ffffff" stroke="transparent" points="220,-191.7 220,-457.7 443,-457.7 443,-191.7 220,-191.7"/>
<polygon fill="#f5f5f5" stroke="transparent" points="222.5,-432.7 222.5,-455.7 441.5,-455.7 441.5,-432.7 222.5,-432.7"/>
<polygon fill="none" stroke="#000000" points="222.5,-432.7 222.5,-455.7 441.5,-455.7 441.5,-432.7 222.5,-432.7"/>
<text text-anchor="start" x="227.5" y="-441.3" font-family="Helvetica,sans-Serif" font-weight="bold" font-size="11.00" fill="#000000">EvaluationPeriods</text>
<text text-anchor="start" x="406.5437" y="-440.8" font-family="Helvetica,sans-Serif" font-size="11.00" fill="#000000">[table]</text>
<polygon fill="none" stroke="#000000" points="222.5,-410.7 222.5,-432.7 347.5,-432.7 347.5,-410.7 222.5,-410.7"/>
<image xlink:href="../../images/primaryKeys.png" width="11px" height="12px" preserveAspectRatio="xMinYMin meet" x="227.5" y="-427.7"/>
<text text-anchor="start" x="242.5" y="-417.8" font-family="Helvetica,sans-Serif" font-size="11.00" fill="#000000">Id</text>
<polygon fill="none" stroke="#000000" points="347.5,-410.7 347.5,-432.7 441.5,-432.7 441.5,-410.7 347.5,-410.7"/>
<text text-anchor="start" x="350.4758" y="-418.4" font-family="Helvetica,sans-Serif" font-size="11.00" fill="#000000">uuid[2147483647]</text>
<polygon fill="none" stroke="#000000" points="222.5,-388.7 222.5,-410.7 347.5,-410.7 347.5,-388.7 222.5,-388.7"/>
<text text-anchor="start" x="242.5" y="-395.8" font-family="Helvetica,sans-Serif" font-size="11.00" fill="#000000">Title</text>
<polygon fill="none" stroke="#000000" points="347.5,-388.7 347.5,-410.7 441.5,-410.7 441.5,-388.7 347.5,-388.7"/>
<text text-anchor="start" x="350.5" y="-396.4" font-family="Helvetica,sans-Serif" font-size="11.00" fill="#000000">text[2147483647]</text>
<polygon fill="none" stroke="#000000" points="222.5,-366.7 222.5,-388.7 347.5,-388.7 347.5,-366.7 222.5,-366.7"/>
<text text-anchor="start" x="242.5" y="-373.8" font-family="Helvetica,sans-Serif" font-size="11.00" fill="#000000">Description</text>
<polygon fill="none" stroke="#000000" points="347.5,-366.7 347.5,-388.7 441.5,-388.7 441.5,-366.7 347.5,-366.7"/>
<text text-anchor="start" x="350.5" y="-374.4" font-family="Helvetica,sans-Serif" font-size="11.00" fill="#000000">text[2147483647]</text>
<polygon fill="none" stroke="#000000" points="222.5,-344.7 222.5,-366.7 347.5,-366.7 347.5,-344.7 222.5,-344.7"/>
<text text-anchor="start" x="242.5" y="-351.8" font-family="Helvetica,sans-Serif" font-size="11.00" fill="#000000">PeriodFrom</text>
<polygon fill="none" stroke="#000000" points="347.5,-344.7 347.5,-366.7 441.5,-366.7 441.5,-344.7 347.5,-344.7"/>
<text text-anchor="start" x="350.5" y="-352.4" font-family="Helvetica,sans-Serif" font-size="11.00" fill="#000000">timestamptz[35,6]</text>
<polygon fill="none" stroke="#000000" points="222.5,-322.7 222.5,-344.7 347.5,-344.7 347.5,-322.7 222.5,-322.7"/>
<text text-anchor="start" x="242.5" y="-329.8" font-family="Helvetica,sans-Serif" font-size="11.00" fill="#000000">PeriodTo</text>
<polygon fill="none" stroke="#000000" points="347.5,-322.7 347.5,-344.7 441.5,-344.7 441.5,-322.7 347.5,-322.7"/>
<text text-anchor="start" x="350.5" y="-330.4" font-family="Helvetica,sans-Serif" font-size="11.00" fill="#000000">timestamptz[35,6]</text>
<polygon fill="none" stroke="#000000" points="222.5,-300.7 222.5,-322.7 347.5,-322.7 347.5,-300.7 222.5,-300.7"/>
<text text-anchor="start" x="242.5" y="-307.8" font-family="Helvetica,sans-Serif" font-size="11.00" fill="#000000">IsActive</text>
<polygon fill="none" stroke="#000000" points="347.5,-300.7 347.5,-322.7 441.5,-322.7 441.5,-300.7 347.5,-300.7"/>
<text text-anchor="start" x="350.5" y="-308.4" font-family="Helvetica,sans-Serif" font-size="11.00" fill="#000000">bool[1]</text>
<polygon fill="none" stroke="#000000" points="222.5,-278.7 222.5,-300.7 347.5,-300.7 347.5,-278.7 222.5,-278.7"/>
<text text-anchor="start" x="242.5" y="-285.8" font-family="Helvetica,sans-Serif" font-size="11.00" fill="#000000">CreatedAt</text>
<polygon fill="none" stroke="#000000" points="347.5,-278.7 347.5,-300.7 441.5,-300.7 441.5,-278.7 347.5,-278.7"/>
<text text-anchor="start" x="350.5" y="-286.4" font-family="Helvetica,sans-Serif" font-size="11.00" fill="#000000">timestamptz[35,6]</text>
<polygon fill="none" stroke="#000000" points="222.5,-256.7 222.5,-278.7 347.5,-278.7 347.5,-256.7 222.5,-256.7"/>
<text text-anchor="start" x="242.5" y="-263.8" font-family="Helvetica,sans-Serif" font-size="11.00" fill="#000000">UpdatedAt</text>
<polygon fill="none" stroke="#000000" points="347.5,-256.7 347.5,-278.7 441.5,-278.7 441.5,-256.7 347.5,-256.7"/>
<text text-anchor="start" x="350.5" y="-264.4" font-family="Helvetica,sans-Serif" font-size="11.00" fill="#000000">timestamptz[35,6]</text>
<polygon fill="#ffffff" stroke="transparent" points="222.5,-234.7 222.5,-256.7 347.5,-256.7 347.5,-234.7 222.5,-234.7"/>
<polygon fill="none" stroke="#000000" points="222.5,-234.7 222.5,-256.7 347.5,-256.7 347.5,-234.7 222.5,-234.7"/>
<image xlink:href="../../images/foreignKeys.png" width="11px" height="12px" preserveAspectRatio="xMinYMin meet" x="227.5" y="-251.7"/>
<text text-anchor="start" x="242.5" y="-241.8" font-family="Helvetica,sans-Serif" font-size="11.00" fill="#000000">CreatedByUserId</text>
<polygon fill="none" stroke="#000000" points="347.5,-234.7 347.5,-256.7 441.5,-256.7 441.5,-234.7 347.5,-234.7"/>
<text text-anchor="start" x="350.5" y="-242.4" font-family="Helvetica,sans-Serif" font-size="11.00" fill="#000000">text[2147483647]</text>
<polygon fill="#ffffff" stroke="transparent" points="222.5,-212.7 222.5,-234.7 347.5,-234.7 347.5,-212.7 222.5,-212.7"/>
<polygon fill="none" stroke="#000000" points="222.5,-212.7 222.5,-234.7 347.5,-234.7 347.5,-212.7 222.5,-212.7"/>
<image xlink:href="../../images/foreignKeys.png" width="11px" height="12px" preserveAspectRatio="xMinYMin meet" x="227.5" y="-229.7"/>
<text text-anchor="start" x="242.5" y="-219.8" font-family="Helvetica,sans-Serif" font-size="11.00" fill="#000000">UpdatedByUserId</text>
<polygon fill="none" stroke="#000000" points="347.5,-212.7 347.5,-234.7 441.5,-234.7 441.5,-212.7 347.5,-212.7"/>
<text text-anchor="start" x="350.5" y="-220.4" font-family="Helvetica,sans-Serif" font-size="11.00" fill="#000000">text[2147483647]</text>
<polygon fill="#ffffff" stroke="transparent" points="222.5,-193.7 222.5,-212.7 276.5,-212.7 276.5,-193.7 222.5,-193.7"/>
<polygon fill="none" stroke="#000000" points="222.5,-193.7 222.5,-212.7 276.5,-212.7 276.5,-193.7 222.5,-193.7"/>
<text text-anchor="start" x="225.5" y="-199.8" font-family="Helvetica,sans-Serif" font-size="11.00" fill="#000000">&lt; 2</text>
<polygon fill="#ffffff" stroke="transparent" points="276.5,-193.7 276.5,-212.7 347.5,-212.7 347.5,-193.7 276.5,-193.7"/>
<polygon fill="none" stroke="#000000" points="276.5,-193.7 276.5,-212.7 347.5,-212.7 347.5,-193.7 276.5,-193.7"/>
<text text-anchor="start" x="312.1105" y="-199.8" font-family="Helvetica,sans-Serif" font-size="11.00" fill="#000000">0 rows</text>
<polygon fill="#ffffff" stroke="transparent" points="347.5,-193.7 347.5,-212.7 441.5,-212.7 441.5,-193.7 347.5,-193.7"/>
<polygon fill="none" stroke="#000000" points="347.5,-193.7 347.5,-212.7 441.5,-212.7 441.5,-193.7 347.5,-193.7"/>
<text text-anchor="start" x="422.9053" y="-199.8" font-family="Helvetica,sans-Serif" font-size="11.00" fill="#000000">3 &gt;</text>
<polygon fill="none" stroke="#000000" stroke-width="2" points="221,-192.7 221,-456.7 442,-456.7 442,-192.7 221,-192.7"/>
</a>
</g>
</g>
<!-- AspNetUsers -->
<g id="node2" class="node">
<title>AspNetUsers</title>
<g id="a_node2"><a xlink:href="../../tables/AspNetUsers.html" xlink:title="AspNetUsers" target="_top">
<polygon fill="#ffffff" stroke="transparent" points="8,-61.2 8,-188.2 171,-188.2 171,-61.2 8,-61.2"/>
<polygon fill="#f5f5f5" stroke="transparent" points="8.5,-164.7 8.5,-187.7 171.5,-187.7 171.5,-164.7 8.5,-164.7"/>
<polygon fill="none" stroke="#000000" points="8.5,-164.7 8.5,-187.7 171.5,-187.7 171.5,-164.7 8.5,-164.7"/>
<text text-anchor="start" x="13.5" y="-173.3" font-family="Helvetica,sans-Serif" font-weight="bold" font-size="11.00" fill="#000000">AspNetUsers</text>
<text text-anchor="start" x="136.5437" y="-172.8" font-family="Helvetica,sans-Serif" font-size="11.00" fill="#000000">[table]</text>
<polygon fill="none" stroke="#000000" points="8.5,-142.7 8.5,-164.7 171.5,-164.7 171.5,-142.7 8.5,-142.7"/>
<image xlink:href="../../images/primaryKeys.png" width="11px" height="12px" preserveAspectRatio="xMinYMin meet" x="13.5" y="-159.7"/>
<text text-anchor="start" x="28.5" y="-149.8" font-family="Helvetica,sans-Serif" font-size="11.00" fill="#000000">Id</text>
<polygon fill="#ffffff" stroke="transparent" points="8.5,-120.7 8.5,-142.7 171.5,-142.7 171.5,-120.7 8.5,-120.7"/>
<polygon fill="none" stroke="#000000" points="8.5,-120.7 8.5,-142.7 171.5,-142.7 171.5,-120.7 8.5,-120.7"/>
<text text-anchor="start" x="28.5" y="-127.8" font-family="Helvetica,sans-Serif" font-size="11.00" fill="#000000">NormalizedUserName</text>
<polygon fill="#ffffff" stroke="transparent" points="8.5,-98.7 8.5,-120.7 171.5,-120.7 171.5,-98.7 8.5,-98.7"/>
<polygon fill="none" stroke="#000000" points="8.5,-98.7 8.5,-120.7 171.5,-120.7 171.5,-98.7 8.5,-98.7"/>
<text text-anchor="start" x="28.5" y="-105.8" font-family="Helvetica,sans-Serif" font-size="11.00" fill="#000000">NormalizedEmail</text>
<polygon fill="none" stroke="#000000" points="8.5,-79.7 8.5,-98.7 171.5,-98.7 171.5,-79.7 8.5,-79.7"/>
<text text-anchor="start" x="11.5" y="-85.8" font-family="Helvetica,sans-Serif" font-size="11.00" fill="#000000">...</text>
<polygon fill="#ffffff" stroke="transparent" points="8.5,-60.7 8.5,-79.7 66.5,-79.7 66.5,-60.7 8.5,-60.7"/>
<polygon fill="none" stroke="#000000" points="8.5,-60.7 8.5,-79.7 66.5,-79.7 66.5,-60.7 8.5,-60.7"/>
<text text-anchor="start" x="11.5" y="-66.8" font-family="Helvetica,sans-Serif" font-size="11.00" fill="#000000"> &#160;</text>
<polygon fill="#ffffff" stroke="transparent" points="66.5,-60.7 66.5,-79.7 121.5,-79.7 121.5,-60.7 66.5,-60.7"/>
<polygon fill="none" stroke="#000000" points="66.5,-60.7 66.5,-79.7 121.5,-79.7 121.5,-60.7 66.5,-60.7"/>
<text text-anchor="start" x="91.6105" y="-66.8" font-family="Helvetica,sans-Serif" font-size="11.00" fill="#000000">1 row</text>
<polygon fill="#ffffff" stroke="transparent" points="121.5,-60.7 121.5,-79.7 171.5,-79.7 171.5,-60.7 121.5,-60.7"/>
<polygon fill="none" stroke="#000000" points="121.5,-60.7 121.5,-79.7 171.5,-79.7 171.5,-60.7 121.5,-60.7"/>
<text text-anchor="start" x="146.7904" y="-66.8" font-family="Helvetica,sans-Serif" font-size="11.00" fill="#000000">29 &gt;</text>
</a>
</g>
</g>
<!-- EvaluationPeriods&#45;&gt;AspNetUsers -->
<g id="edge1" class="edge">
<title>EvaluationPeriods:w&#45;&gt;AspNetUsers:e</title>
<path fill="none" stroke="#000000" d="M208.4874,-241.5079C185.2233,-223.51 212.2247,-153.7 171.5,-153.7"/>
<polygon fill="#000000" stroke="#000000" points="214.8356,-243.407 221.4682,-249.149 218.6678,-244.5535 222.5,-245.7 222.5,-245.7 222.5,-245.7 218.6678,-244.5535 223.5318,-242.251 214.8356,-243.407 214.8356,-243.407"/>
<ellipse fill="none" stroke="#000000" cx="211.7699" cy="-242.4898" rx="3.2" ry="3.2"/>
</g>
<!-- EvaluationPeriods&#45;&gt;AspNetUsers -->
<g id="edge2" class="edge">
<title>EvaluationPeriods:w&#45;&gt;AspNetUsers:e</title>
<path fill="none" stroke="#000000" d="M208.6872,-219.1071C190.5536,-203.534 203.9781,-153.7 171.5,-153.7"/>
<polygon fill="#000000" stroke="#000000" points="214.9087,-221.1758 221.3641,-227.1161 218.7043,-222.4379 222.5,-223.7 222.5,-223.7 222.5,-223.7 218.7043,-222.4379 223.6359,-220.2839 214.9087,-221.1758 214.9087,-221.1758"/>
<ellipse fill="none" stroke="#000000" cx="211.8721" cy="-220.1661" rx="3.2" ry="3.2"/>
</g>
<!-- EvaluationPeriodTechnicalCareer -->
<g id="node3" class="node">
<title>EvaluationPeriodTechnicalCareer</title>
<g id="a_node3"><a xlink:href="../../tables/EvaluationPeriodTechnicalCareer.html" xlink:title="EvaluationPeriodTechnicalCareer" target="_top">
<polygon fill="#ffffff" stroke="transparent" points="498,-488.7 498,-574.7 728,-574.7 728,-488.7 498,-488.7"/>
<polygon fill="#f5f5f5" stroke="transparent" points="498,-551.7 498,-574.7 728,-574.7 728,-551.7 498,-551.7"/>
<polygon fill="none" stroke="#000000" points="498,-551.7 498,-574.7 728,-574.7 728,-551.7 498,-551.7"/>
<text text-anchor="start" x="503" y="-560.3" font-family="Helvetica,sans-Serif" font-weight="bold" font-size="11.00" fill="#000000">EvaluationPeriodTechnicalCareer</text>
<text text-anchor="start" x="693.5219" y="-559.8" font-family="Helvetica,sans-Serif" font-size="11.00" fill="#000000">[table]</text>
<polygon fill="none" stroke="#000000" points="498,-529.7 498,-551.7 728,-551.7 728,-529.7 498,-529.7"/>
<image xlink:href="../../images/primaryKeys.png" width="11px" height="12px" preserveAspectRatio="xMinYMin meet" x="503" y="-546.7"/>
<text text-anchor="start" x="527" y="-536.8" font-family="Helvetica,sans-Serif" font-size="11.00" fill="#000000">EvaluationPeriodsId</text>
<polygon fill="none" stroke="#000000" points="498,-507.7 498,-529.7 728,-529.7 728,-507.7 498,-507.7"/>
<image xlink:href="../../images/primaryKeys.png" width="11px" height="12px" preserveAspectRatio="xMinYMin meet" x="503" y="-524.7"/>
<text text-anchor="start" x="527" y="-514.8" font-family="Helvetica,sans-Serif" font-size="11.00" fill="#000000">TechnicalCareersId</text>
<polygon fill="#ffffff" stroke="transparent" points="498,-488.7 498,-507.7 598,-507.7 598,-488.7 498,-488.7"/>
<polygon fill="none" stroke="#000000" points="498,-488.7 498,-507.7 598,-507.7 598,-488.7 498,-488.7"/>
<text text-anchor="start" x="501" y="-494.8" font-family="Helvetica,sans-Serif" font-size="11.00" fill="#000000">&lt; 2</text>
<polygon fill="#ffffff" stroke="transparent" points="598,-488.7 598,-507.7 676,-507.7 676,-488.7 598,-488.7"/>
<polygon fill="none" stroke="#000000" points="598,-488.7 598,-507.7 676,-507.7 676,-488.7 598,-488.7"/>
<text text-anchor="start" x="640.6105" y="-494.8" font-family="Helvetica,sans-Serif" font-size="11.00" fill="#000000">0 rows</text>
<polygon fill="#ffffff" stroke="transparent" points="676,-488.7 676,-507.7 728,-507.7 728,-488.7 676,-488.7"/>
<polygon fill="none" stroke="#000000" points="676,-488.7 676,-507.7 728,-507.7 728,-488.7 676,-488.7"/>
<text text-anchor="start" x="718.8862" y="-494.8" font-family="Helvetica,sans-Serif" font-size="11.00" fill="#000000"> &#160;</text>
</a>
</g>
</g>
<!-- EvaluationPeriodTechnicalCareer&#45;&gt;EvaluationPeriods -->
<g id="edge3" class="edge">
<title>EvaluationPeriodTechnicalCareer:w&#45;&gt;EvaluationPeriods:e</title>
<path fill="none" stroke="#000000" d="M483.5985,-537.2669C450.532,-517.7556 494.1012,-421.7 441.5,-421.7"/>
<polygon fill="#000000" stroke="#000000" points="490.2181,-538.8449 497.1652,-544.2019 494.109,-539.7724 498,-540.7 498,-540.7 498,-540.7 494.109,-539.7724 498.8348,-537.1981 490.2181,-538.8449 490.2181,-538.8449"/>
<ellipse fill="none" stroke="#000000" cx="487.1053" cy="-538.1028" rx="3.2" ry="3.2"/>
</g>
<!-- ProfessorCompetencyAssignments -->
<g id="node4" class="node">
<title>ProfessorCompetencyAssignments</title>
<g id="a_node4"><a xlink:href="../../tables/ProfessorCompetencyAssignments.html" xlink:title="ProfessorCompetencyAssignments" target="_top">
<polygon fill="#ffffff" stroke="transparent" points="492,-230.2 492,-467.2 734,-467.2 734,-230.2 492,-230.2"/>
<polygon fill="#f5f5f5" stroke="transparent" points="492,-443.7 492,-466.7 734,-466.7 734,-443.7 492,-443.7"/>
<polygon fill="none" stroke="#000000" points="492,-443.7 492,-466.7 734,-466.7 734,-443.7 492,-443.7"/>
<text text-anchor="start" x="497" y="-452.3" font-family="Helvetica,sans-Serif" font-weight="bold" font-size="11.00" fill="#000000">ProfessorCompetencyAssignments</text>
<text text-anchor="start" x="699.5219" y="-451.8" font-family="Helvetica,sans-Serif" font-size="11.00" fill="#000000">[table]</text>
<polygon fill="none" stroke="#000000" points="492,-421.7 492,-443.7 734,-443.7 734,-421.7 492,-421.7"/>
<image xlink:href="../../images/primaryKeys.png" width="11px" height="12px" preserveAspectRatio="xMinYMin meet" x="497" y="-438.7"/>
<text text-anchor="start" x="521" y="-428.8" font-family="Helvetica,sans-Serif" font-size="11.00" fill="#000000">Id</text>
<polygon fill="#ffffff" stroke="transparent" points="492,-399.7 492,-421.7 734,-421.7 734,-399.7 492,-399.7"/>
<polygon fill="none" stroke="#000000" points="492,-399.7 492,-421.7 734,-421.7 734,-399.7 492,-399.7"/>
<image xlink:href="../../images/foreignKeys.png" width="11px" height="12px" preserveAspectRatio="xMinYMin meet" x="497" y="-416.7"/>
<text text-anchor="start" x="521" y="-406.8" font-family="Helvetica,sans-Serif" font-size="11.00" fill="#000000">TechnicalCareerId</text>
<polygon fill="#ffffff" stroke="transparent" points="492,-377.7 492,-399.7 734,-399.7 734,-377.7 492,-377.7"/>
<polygon fill="none" stroke="#000000" points="492,-377.7 492,-399.7 734,-399.7 734,-377.7 492,-377.7"/>
<image xlink:href="../../images/foreignKeys.png" width="11px" height="12px" preserveAspectRatio="xMinYMin meet" x="497" y="-394.7"/>
<text text-anchor="start" x="521" y="-384.8" font-family="Helvetica,sans-Serif" font-size="11.00" fill="#000000">CompetencyId</text>
<polygon fill="#ffffff" stroke="transparent" points="492,-355.7 492,-377.7 734,-377.7 734,-355.7 492,-355.7"/>
<polygon fill="none" stroke="#000000" points="492,-355.7 492,-377.7 734,-377.7 734,-355.7 492,-355.7"/>
<image xlink:href="../../images/foreignKeys.png" width="11px" height="12px" preserveAspectRatio="xMinYMin meet" x="497" y="-372.7"/>
<text text-anchor="start" x="521" y="-362.8" font-family="Helvetica,sans-Serif" font-size="11.00" fill="#000000">EvaluationPeriodId</text>
<polygon fill="#ffffff" stroke="transparent" points="492,-333.7 492,-355.7 734,-355.7 734,-333.7 492,-333.7"/>
<polygon fill="none" stroke="#000000" points="492,-333.7 492,-355.7 734,-355.7 734,-333.7 492,-333.7"/>
<image xlink:href="../../images/foreignKeys.png" width="11px" height="12px" preserveAspectRatio="xMinYMin meet" x="497" y="-350.7"/>
<text text-anchor="start" x="521" y="-340.8" font-family="Helvetica,sans-Serif" font-size="11.00" fill="#000000">CreatedByUserId</text>
<polygon fill="#ffffff" stroke="transparent" points="492,-311.7 492,-333.7 734,-333.7 734,-311.7 492,-311.7"/>
<polygon fill="none" stroke="#000000" points="492,-311.7 492,-333.7 734,-333.7 734,-311.7 492,-311.7"/>
<image xlink:href="../../images/foreignKeys.png" width="11px" height="12px" preserveAspectRatio="xMinYMin meet" x="497" y="-328.7"/>
<text text-anchor="start" x="521" y="-318.8" font-family="Helvetica,sans-Serif" font-size="11.00" fill="#000000">UpdatedByUserId</text>
<polygon fill="#ffffff" stroke="transparent" points="492,-289.7 492,-311.7 734,-311.7 734,-289.7 492,-289.7"/>
<polygon fill="none" stroke="#000000" points="492,-289.7 492,-311.7 734,-311.7 734,-289.7 492,-289.7"/>
<image xlink:href="../../images/foreignKeys.png" width="11px" height="12px" preserveAspectRatio="xMinYMin meet" x="497" y="-306.7"/>
<text text-anchor="start" x="521" y="-296.8" font-family="Helvetica,sans-Serif" font-size="11.00" fill="#000000">ProfessorUserId</text>
<polygon fill="#ffffff" stroke="transparent" points="492,-267.7 492,-289.7 734,-289.7 734,-267.7 492,-267.7"/>
<polygon fill="none" stroke="#000000" points="492,-267.7 492,-289.7 734,-289.7 734,-267.7 492,-267.7"/>
<image xlink:href="../../images/foreignKeys.png" width="11px" height="12px" preserveAspectRatio="xMinYMin meet" x="497" y="-284.7"/>
<text text-anchor="start" x="521" y="-274.8" font-family="Helvetica,sans-Serif" font-size="11.00" fill="#000000">SubjectId</text>
<polygon fill="none" stroke="#000000" points="492,-248.7 492,-267.7 734,-267.7 734,-248.7 492,-248.7"/>
<text text-anchor="start" x="495" y="-254.8" font-family="Helvetica,sans-Serif" font-size="11.00" fill="#000000">...</text>
<polygon fill="#ffffff" stroke="transparent" points="492,-229.7 492,-248.7 594,-248.7 594,-229.7 492,-229.7"/>
<polygon fill="none" stroke="#000000" points="492,-229.7 492,-248.7 594,-248.7 594,-229.7 492,-229.7"/>
<text text-anchor="start" x="495" y="-235.8" font-family="Helvetica,sans-Serif" font-size="11.00" fill="#000000">&lt; 7</text>
<polygon fill="#ffffff" stroke="transparent" points="594,-229.7 594,-248.7 672,-248.7 672,-229.7 594,-229.7"/>
<polygon fill="none" stroke="#000000" points="594,-229.7 594,-248.7 672,-248.7 672,-229.7 594,-229.7"/>
<text text-anchor="start" x="636.6105" y="-235.8" font-family="Helvetica,sans-Serif" font-size="11.00" fill="#000000">0 rows</text>
<polygon fill="#ffffff" stroke="transparent" points="672,-229.7 672,-248.7 734,-248.7 734,-229.7 672,-229.7"/>
<polygon fill="none" stroke="#000000" points="672,-229.7 672,-248.7 734,-248.7 734,-229.7 672,-229.7"/>
<text text-anchor="start" x="715.4053" y="-235.8" font-family="Helvetica,sans-Serif" font-size="11.00" fill="#000000">1 &gt;</text>
</a>
</g>
</g>
<!-- ProfessorCompetencyAssignments&#45;&gt;EvaluationPeriods -->
<g id="edge5" class="edge">
<title>ProfessorCompetencyAssignments:w&#45;&gt;EvaluationPeriods:e</title>
<path fill="none" stroke="#000000" d="M478.2934,-371.3893C462.9342,-384.6898 468.7226,-421.7 441.5,-421.7"/>
<polygon fill="#000000" stroke="#000000" points="484.4307,-369.2896 493.1653,-370.1062 488.2154,-367.9948 492,-366.7 492,-366.7 492,-366.7 488.2154,-367.9948 490.8347,-363.2938 484.4307,-369.2896 484.4307,-369.2896"/>
<ellipse fill="none" stroke="#000000" cx="481.403" cy="-370.3255" rx="3.2" ry="3.2"/>
</g>
<!-- ProfessorCompetencyAssignments&#45;&gt;AspNetUsers -->
<g id="edge4" class="edge">
<title>ProfessorCompetencyAssignments:w&#45;&gt;AspNetUsers:e</title>
<path fill="none" stroke="#000000" d="M477.6631,-342.7918C430.196,-327.6835 503.2402,-226.794 451,-181.7 403.7475,-140.9114 233.922,-153.7 171.5,-153.7"/>
<polygon fill="#000000" stroke="#000000" points="484.0699,-343.6445 491.525,-348.2685 488.035,-344.1722 492,-344.7 492,-344.7 492,-344.7 488.035,-344.1722 492.475,-341.1315 484.0699,-343.6445 484.0699,-343.6445"/>
<ellipse fill="none" stroke="#000000" cx="480.8979" cy="-343.2222" rx="3.2" ry="3.2"/>
</g>
<!-- ProfessorCompetencyAssignments&#45;&gt;AspNetUsers -->
<g id="edge6" class="edge">
<title>ProfessorCompetencyAssignments:w&#45;&gt;AspNetUsers:e</title>
<path fill="none" stroke="#000000" d="M477.6974,-320.8534C427.2506,-305.3671 507.9337,-196.5965 451,-151.7 402.2275,-113.2392 233.6127,-153.7 171.5,-153.7"/>
<polygon fill="#000000" stroke="#000000" points="484.0659,-321.6756 491.539,-326.2704 488.0329,-322.1878 492,-322.7 492,-322.7 492,-322.7 488.0329,-322.1878 492.461,-319.1296 484.0659,-321.6756 484.0659,-321.6756"/>
<ellipse fill="none" stroke="#000000" cx="480.8922" cy="-321.2658" rx="3.2" ry="3.2"/>
</g>
<!-- StudentEvaluationReport -->
<g id="node5" class="node">
<title>StudentEvaluationReport</title>
<g id="a_node5"><a xlink:href="../../tables/StudentEvaluationReport.html" xlink:title="StudentEvaluationReport" target="_top">
<polygon fill="#ffffff" stroke="transparent" points="521.5,-38.2 521.5,-209.2 704.5,-209.2 704.5,-38.2 521.5,-38.2"/>
<polygon fill="#f5f5f5" stroke="transparent" points="522,-185.7 522,-208.7 705,-208.7 705,-185.7 522,-185.7"/>
<polygon fill="none" stroke="#000000" points="522,-185.7 522,-208.7 705,-208.7 705,-185.7 522,-185.7"/>
<text text-anchor="start" x="527" y="-194.3" font-family="Helvetica,sans-Serif" font-weight="bold" font-size="11.00" fill="#000000">StudentEvaluationReport</text>
<text text-anchor="start" x="670.5219" y="-193.8" font-family="Helvetica,sans-Serif" font-size="11.00" fill="#000000">[table]</text>
<polygon fill="none" stroke="#000000" points="522,-163.7 522,-185.7 705,-185.7 705,-163.7 522,-163.7"/>
<image xlink:href="../../images/primaryKeys.png" width="11px" height="12px" preserveAspectRatio="xMinYMin meet" x="527" y="-180.7"/>
<text text-anchor="start" x="551" y="-170.8" font-family="Helvetica,sans-Serif" font-size="11.00" fill="#000000">Id</text>
<polygon fill="#ffffff" stroke="transparent" points="522,-141.7 522,-163.7 705,-163.7 705,-141.7 522,-141.7"/>
<polygon fill="none" stroke="#000000" points="522,-141.7 522,-163.7 705,-163.7 705,-141.7 522,-141.7"/>
<image xlink:href="../../images/foreignKeys.png" width="11px" height="12px" preserveAspectRatio="xMinYMin meet" x="527" y="-158.7"/>
<text text-anchor="start" x="551" y="-148.8" font-family="Helvetica,sans-Serif" font-size="11.00" fill="#000000">StudentId</text>
<polygon fill="#ffffff" stroke="transparent" points="522,-119.7 522,-141.7 705,-141.7 705,-119.7 522,-119.7"/>
<polygon fill="none" stroke="#000000" points="522,-119.7 522,-141.7 705,-141.7 705,-119.7 522,-119.7"/>
<image xlink:href="../../images/foreignKeys.png" width="11px" height="12px" preserveAspectRatio="xMinYMin meet" x="527" y="-136.7"/>
<text text-anchor="start" x="551" y="-126.8" font-family="Helvetica,sans-Serif" font-size="11.00" fill="#000000">EvaluationPeriodId</text>
<polygon fill="#ffffff" stroke="transparent" points="522,-97.7 522,-119.7 705,-119.7 705,-97.7 522,-97.7"/>
<polygon fill="none" stroke="#000000" points="522,-97.7 522,-119.7 705,-119.7 705,-97.7 522,-97.7"/>
<image xlink:href="../../images/foreignKeys.png" width="11px" height="12px" preserveAspectRatio="xMinYMin meet" x="527" y="-114.7"/>
<text text-anchor="start" x="551" y="-104.8" font-family="Helvetica,sans-Serif" font-size="11.00" fill="#000000">CreatedByUserId</text>
<polygon fill="#ffffff" stroke="transparent" points="522,-75.7 522,-97.7 705,-97.7 705,-75.7 522,-75.7"/>
<polygon fill="none" stroke="#000000" points="522,-75.7 522,-97.7 705,-97.7 705,-75.7 522,-75.7"/>
<image xlink:href="../../images/foreignKeys.png" width="11px" height="12px" preserveAspectRatio="xMinYMin meet" x="527" y="-92.7"/>
<text text-anchor="start" x="551" y="-82.8" font-family="Helvetica,sans-Serif" font-size="11.00" fill="#000000">UpdatedByUserId</text>
<polygon fill="none" stroke="#000000" points="522,-56.7 522,-75.7 705,-75.7 705,-56.7 522,-56.7"/>
<text text-anchor="start" x="525" y="-62.8" font-family="Helvetica,sans-Serif" font-size="11.00" fill="#000000">...</text>
<polygon fill="#ffffff" stroke="transparent" points="522,-37.7 522,-56.7 599,-56.7 599,-37.7 522,-37.7"/>
<polygon fill="none" stroke="#000000" points="522,-37.7 522,-56.7 599,-56.7 599,-37.7 522,-37.7"/>
<text text-anchor="start" x="525" y="-43.8" font-family="Helvetica,sans-Serif" font-size="11.00" fill="#000000">&lt; 4</text>
<polygon fill="#ffffff" stroke="transparent" points="599,-37.7 599,-56.7 665,-56.7 665,-37.7 599,-37.7"/>
<polygon fill="none" stroke="#000000" points="599,-37.7 599,-56.7 665,-56.7 665,-37.7 599,-37.7"/>
<text text-anchor="start" x="629.6105" y="-43.8" font-family="Helvetica,sans-Serif" font-size="11.00" fill="#000000">0 rows</text>
<polygon fill="#ffffff" stroke="transparent" points="665,-37.7 665,-56.7 705,-56.7 705,-37.7 665,-37.7"/>
<polygon fill="none" stroke="#000000" points="665,-37.7 665,-56.7 705,-56.7 705,-37.7 665,-37.7"/>
<text text-anchor="start" x="695.8862" y="-43.8" font-family="Helvetica,sans-Serif" font-size="11.00" fill="#000000"> &#160;</text>
</a>
</g>
</g>
<!-- StudentEvaluationReport&#45;&gt;EvaluationPeriods -->
<g id="edge8" class="edge">
<title>StudentEvaluationReport:w&#45;&gt;EvaluationPeriods:e</title>
<path fill="none" stroke="#000000" d="M507.5425,-133.2502C483.3193,-143.6896 495.1659,-184.2888 484,-219.7 470.2052,-263.4483 487.3717,-421.7 441.5,-421.7"/>
<polygon fill="#000000" stroke="#000000" points="514.1216,-132.0897 522.6254,-134.2453 518.0608,-131.3949 522,-130.7 522,-130.7 522,-130.7 518.0608,-131.3949 521.3746,-127.1547 514.1216,-132.0897 514.1216,-132.0897"/>
<ellipse fill="none" stroke="#000000" cx="510.9703" cy="-132.6456" rx="3.2" ry="3.2"/>
</g>
<!-- StudentEvaluationReport&#45;&gt;AspNetUsers -->
<g id="edge7" class="edge">
<title>StudentEvaluationReport:w&#45;&gt;AspNetUsers:e</title>
<path fill="none" stroke="#000000" d="M507.4042,-108.6332C380.8885,-107.4762 339.4339,-92.1628 212,-130.7 192.1861,-136.6919 192.2001,-153.7 171.5,-153.7"/>
<polygon fill="#000000" stroke="#000000" points="514.0001,-108.6633 521.9835,-112.3 518,-108.6817 522,-108.7 522,-108.7 522,-108.7 518,-108.6817 522.0165,-105.1 514.0001,-108.6633 514.0001,-108.6633"/>
<ellipse fill="none" stroke="#000000" cx="510.8001" cy="-108.6486" rx="3.2" ry="3.2"/>
</g>
<!-- StudentEvaluationReport&#45;&gt;AspNetUsers -->
<g id="edge9" class="edge">
<title>StudentEvaluationReport:w&#45;&gt;AspNetUsers:e</title>
<path fill="none" stroke="#000000" d="M507.3872,-86.5123C380.3843,-83.2427 329.8071,-39.1113 212,-100.7 185.728,-114.4348 201.1456,-153.7 171.5,-153.7"/>
<polygon fill="#000000" stroke="#000000" points="514.0007,-86.5972 521.9537,-90.2997 518.0003,-86.6486 522,-86.7 522,-86.7 522,-86.7 518.0003,-86.6486 522.0463,-83.1003 514.0007,-86.5972 514.0007,-86.5972"/>
<ellipse fill="none" stroke="#000000" cx="510.8009" cy="-86.5561" rx="3.2" ry="3.2"/>
</g>
</g>
</svg>
