<?xml version="1.0" encoding="UTF-8" standalone="no"?>
<!DOCTYPE svg PUBLIC "-//W3C//DTD SVG 1.1//EN"
 "http://www.w3.org/Graphics/SVG/1.1/DTD/svg11.dtd">
<!-- Generated by graphviz version 2.40.1 (20161225.0304)
 -->
<!-- Title: twoDegreesRelationshipsDiagram Pages: 1 -->
<svg width="1456pt" height="1343pt"
 viewBox="0.00 0.00 1456.00 1342.88" xmlns="http://www.w3.org/2000/svg" xmlns:xlink="http://www.w3.org/1999/xlink">
<g id="graph0" class="graph" transform="scale(1 1) rotate(0) translate(4 1338.8756)">
<title>twoDegreesRelationshipsDiagram</title>
<polygon fill="#ffffff" stroke="transparent" points="-4,4 -4,-1338.8756 1452,-1338.8756 1452,4 -4,4"/>
<text text-anchor="middle" x="72.4936" y="-7.3" font-family="Helvetica,sans-Serif" font-size="11.00" fill="#000000">Generated by SchemaSpy</text>
<!-- AspNetUserClaims -->
<g id="node1" class="node">
<title>AspNetUserClaims</title>
<g id="a_node1"><a xlink:href="../../tables/AspNetUserClaims.html" xlink:title="AspNetUserClaims" target="_top">
<polygon fill="#ffffff" stroke="transparent" points="209,-1269.8756 209,-1330.8756 356,-1330.8756 356,-1269.8756 209,-1269.8756"/>
<polygon fill="#f5f5f5" stroke="transparent" points="209.5,-1307.3756 209.5,-1330.3756 356.5,-1330.3756 356.5,-1307.3756 209.5,-1307.3756"/>
<polygon fill="none" stroke="#000000" points="209.5,-1307.3756 209.5,-1330.3756 356.5,-1330.3756 356.5,-1307.3756 209.5,-1307.3756"/>
<text text-anchor="start" x="214.5" y="-1315.9756" font-family="Helvetica,sans-Serif" font-weight="bold" font-size="11.00" fill="#000000">AspNetUserClaims</text>
<text text-anchor="start" x="322.0219" y="-1315.4756" font-family="Helvetica,sans-Serif" font-size="11.00" fill="#000000">[table]</text>
<polygon fill="none" stroke="#000000" points="209.5,-1288.3756 209.5,-1307.3756 356.5,-1307.3756 356.5,-1288.3756 209.5,-1288.3756"/>
<text text-anchor="start" x="212.5" y="-1294.4756" font-family="Helvetica,sans-Serif" font-size="11.00" fill="#000000">...</text>
<polygon fill="#ffffff" stroke="transparent" points="209.5,-1269.3756 209.5,-1288.3756 268.5,-1288.3756 268.5,-1269.3756 209.5,-1269.3756"/>
<polygon fill="none" stroke="#000000" points="209.5,-1269.3756 209.5,-1288.3756 268.5,-1288.3756 268.5,-1269.3756 209.5,-1269.3756"/>
<text text-anchor="start" x="212.5" y="-1275.4756" font-family="Helvetica,sans-Serif" font-size="11.00" fill="#000000">&lt; 1</text>
<polygon fill="#ffffff" stroke="transparent" points="268.5,-1269.3756 268.5,-1288.3756 325.5,-1288.3756 325.5,-1269.3756 268.5,-1269.3756"/>
<polygon fill="none" stroke="#000000" points="268.5,-1269.3756 268.5,-1288.3756 325.5,-1288.3756 325.5,-1269.3756 268.5,-1269.3756"/>
<text text-anchor="start" x="290.1105" y="-1275.4756" font-family="Helvetica,sans-Serif" font-size="11.00" fill="#000000">0 rows</text>
<polygon fill="#ffffff" stroke="transparent" points="325.5,-1269.3756 325.5,-1288.3756 356.5,-1288.3756 356.5,-1269.3756 325.5,-1269.3756"/>
<polygon fill="none" stroke="#000000" points="325.5,-1269.3756 325.5,-1288.3756 356.5,-1288.3756 356.5,-1269.3756 325.5,-1269.3756"/>
<text text-anchor="start" x="347.3862" y="-1275.4756" font-family="Helvetica,sans-Serif" font-size="11.00" fill="#000000"> &#160;</text>
</a>
</g>
</g>
<!-- AspNetUsers -->
<g id="node2" class="node">
<title>AspNetUsers</title>
<g id="a_node2"><a xlink:href="../../tables/AspNetUsers.html" xlink:title="AspNetUsers" target="_top">
<polygon fill="#ffffff" stroke="transparent" points="8,-723.8756 8,-784.8756 122,-784.8756 122,-723.8756 8,-723.8756"/>
<polygon fill="#f5f5f5" stroke="transparent" points="8,-761.3756 8,-784.3756 122,-784.3756 122,-761.3756 8,-761.3756"/>
<polygon fill="none" stroke="#000000" points="8,-761.3756 8,-784.3756 122,-784.3756 122,-761.3756 8,-761.3756"/>
<text text-anchor="start" x="13" y="-769.9756" font-family="Helvetica,sans-Serif" font-weight="bold" font-size="11.00" fill="#000000">AspNetUsers</text>
<text text-anchor="start" x="87.5219" y="-769.4756" font-family="Helvetica,sans-Serif" font-size="11.00" fill="#000000">[table]</text>
<polygon fill="none" stroke="#000000" points="8,-742.3756 8,-761.3756 122,-761.3756 122,-742.3756 8,-742.3756"/>
<text text-anchor="start" x="11" y="-748.4756" font-family="Helvetica,sans-Serif" font-size="11.00" fill="#000000">...</text>
<polygon fill="#ffffff" stroke="transparent" points="8,-723.3756 8,-742.3756 41,-742.3756 41,-723.3756 8,-723.3756"/>
<polygon fill="none" stroke="#000000" points="8,-723.3756 8,-742.3756 41,-742.3756 41,-723.3756 8,-723.3756"/>
<text text-anchor="start" x="11" y="-729.4756" font-family="Helvetica,sans-Serif" font-size="11.00" fill="#000000"> &#160;</text>
<polygon fill="#ffffff" stroke="transparent" points="41,-723.3756 41,-742.3756 84,-742.3756 84,-723.3756 41,-723.3756"/>
<polygon fill="none" stroke="#000000" points="41,-723.3756 41,-742.3756 84,-742.3756 84,-723.3756 41,-723.3756"/>
<text text-anchor="start" x="54.1105" y="-729.4756" font-family="Helvetica,sans-Serif" font-size="11.00" fill="#000000">1 row</text>
<polygon fill="#ffffff" stroke="transparent" points="84,-723.3756 84,-742.3756 122,-742.3756 122,-723.3756 84,-723.3756"/>
<polygon fill="none" stroke="#000000" points="84,-723.3756 84,-742.3756 122,-742.3756 122,-723.3756 84,-723.3756"/>
<text text-anchor="start" x="97.2904" y="-729.4756" font-family="Helvetica,sans-Serif" font-size="11.00" fill="#000000">29 &gt;</text>
</a>
</g>
</g>
<!-- AspNetUserClaims&#45;&gt;AspNetUsers -->
<g id="edge1" class="edge">
<title>AspNetUserClaims:w&#45;&gt;AspNetUsers:e</title>
<path fill="none" stroke="#000000" d="M195.1408,-1294.8832C101.1079,-1261.5567 73.2432,-903.3967 66.7167,-789.1687"/>
<polygon fill="#000000" stroke="#000000" points="201.6179,-1296.0074 208.8843,-1300.9225 205.5589,-1296.6915 209.5,-1297.3756 209.5,-1297.3756 209.5,-1297.3756 205.5589,-1296.6915 210.1157,-1293.8286 201.6179,-1296.0074 201.6179,-1296.0074"/>
<ellipse fill="none" stroke="#000000" cx="198.465" cy="-1295.4601" rx="3.2" ry="3.2"/>
</g>
<!-- AspNetUserLogins -->
<g id="node3" class="node">
<title>AspNetUserLogins</title>
<g id="a_node3"><a xlink:href="../../tables/AspNetUserLogins.html" xlink:title="AspNetUserLogins" target="_top">
<polygon fill="#ffffff" stroke="transparent" points="209,-1187.8756 209,-1248.8756 356,-1248.8756 356,-1187.8756 209,-1187.8756"/>
<polygon fill="#f5f5f5" stroke="transparent" points="209.5,-1225.3756 209.5,-1248.3756 356.5,-1248.3756 356.5,-1225.3756 209.5,-1225.3756"/>
<polygon fill="none" stroke="#000000" points="209.5,-1225.3756 209.5,-1248.3756 356.5,-1248.3756 356.5,-1225.3756 209.5,-1225.3756"/>
<text text-anchor="start" x="214.5" y="-1233.9756" font-family="Helvetica,sans-Serif" font-weight="bold" font-size="11.00" fill="#000000">AspNetUserLogins</text>
<text text-anchor="start" x="322.0219" y="-1233.4756" font-family="Helvetica,sans-Serif" font-size="11.00" fill="#000000">[table]</text>
<polygon fill="none" stroke="#000000" points="209.5,-1206.3756 209.5,-1225.3756 356.5,-1225.3756 356.5,-1206.3756 209.5,-1206.3756"/>
<text text-anchor="start" x="212.5" y="-1212.4756" font-family="Helvetica,sans-Serif" font-size="11.00" fill="#000000">...</text>
<polygon fill="#ffffff" stroke="transparent" points="209.5,-1187.3756 209.5,-1206.3756 268.5,-1206.3756 268.5,-1187.3756 209.5,-1187.3756"/>
<polygon fill="none" stroke="#000000" points="209.5,-1187.3756 209.5,-1206.3756 268.5,-1206.3756 268.5,-1187.3756 209.5,-1187.3756"/>
<text text-anchor="start" x="212.5" y="-1193.4756" font-family="Helvetica,sans-Serif" font-size="11.00" fill="#000000">&lt; 1</text>
<polygon fill="#ffffff" stroke="transparent" points="268.5,-1187.3756 268.5,-1206.3756 325.5,-1206.3756 325.5,-1187.3756 268.5,-1187.3756"/>
<polygon fill="none" stroke="#000000" points="268.5,-1187.3756 268.5,-1206.3756 325.5,-1206.3756 325.5,-1187.3756 268.5,-1187.3756"/>
<text text-anchor="start" x="290.1105" y="-1193.4756" font-family="Helvetica,sans-Serif" font-size="11.00" fill="#000000">0 rows</text>
<polygon fill="#ffffff" stroke="transparent" points="325.5,-1187.3756 325.5,-1206.3756 356.5,-1206.3756 356.5,-1187.3756 325.5,-1187.3756"/>
<polygon fill="none" stroke="#000000" points="325.5,-1187.3756 325.5,-1206.3756 356.5,-1206.3756 356.5,-1187.3756 325.5,-1187.3756"/>
<text text-anchor="start" x="347.3862" y="-1193.4756" font-family="Helvetica,sans-Serif" font-size="11.00" fill="#000000"> &#160;</text>
</a>
</g>
</g>
<!-- AspNetUserLogins&#45;&gt;AspNetUsers -->
<g id="edge2" class="edge">
<title>AspNetUserLogins:w&#45;&gt;AspNetUsers:e</title>
<path fill="none" stroke="#000000" d="M195.278,-1212.5991C115.8089,-1181.1035 78.8479,-890.3732 68.3004,-789.0255"/>
<polygon fill="#000000" stroke="#000000" points="201.6482,-1213.8427 208.8102,-1218.9089 205.5741,-1214.6091 209.5,-1215.3756 209.5,-1215.3756 209.5,-1215.3756 205.5741,-1214.6091 210.1898,-1211.8423 201.6482,-1213.8427 201.6482,-1213.8427"/>
<ellipse fill="none" stroke="#000000" cx="198.5075" cy="-1213.2295" rx="3.2" ry="3.2"/>
</g>
<!-- AspNetUserRoles -->
<g id="node4" class="node">
<title>AspNetUserRoles</title>
<g id="a_node4"><a xlink:href="../../tables/AspNetUserRoles.html" xlink:title="AspNetUserRoles" target="_top">
<polygon fill="#ffffff" stroke="transparent" points="212.5,-1105.8756 212.5,-1166.8756 352.5,-1166.8756 352.5,-1105.8756 212.5,-1105.8756"/>
<polygon fill="#f5f5f5" stroke="transparent" points="212.5,-1143.3756 212.5,-1166.3756 352.5,-1166.3756 352.5,-1143.3756 212.5,-1143.3756"/>
<polygon fill="none" stroke="#000000" points="212.5,-1143.3756 212.5,-1166.3756 352.5,-1166.3756 352.5,-1143.3756 212.5,-1143.3756"/>
<text text-anchor="start" x="217.5" y="-1151.9756" font-family="Helvetica,sans-Serif" font-weight="bold" font-size="11.00" fill="#000000">AspNetUserRoles</text>
<text text-anchor="start" x="318.0219" y="-1151.4756" font-family="Helvetica,sans-Serif" font-size="11.00" fill="#000000">[table]</text>
<polygon fill="none" stroke="#000000" points="212.5,-1124.3756 212.5,-1143.3756 352.5,-1143.3756 352.5,-1124.3756 212.5,-1124.3756"/>
<text text-anchor="start" x="215.5" y="-1130.4756" font-family="Helvetica,sans-Serif" font-size="11.00" fill="#000000">...</text>
<polygon fill="#ffffff" stroke="transparent" points="212.5,-1105.3756 212.5,-1124.3756 270.5,-1124.3756 270.5,-1105.3756 212.5,-1105.3756"/>
<polygon fill="none" stroke="#000000" points="212.5,-1105.3756 212.5,-1124.3756 270.5,-1124.3756 270.5,-1105.3756 212.5,-1105.3756"/>
<text text-anchor="start" x="215.5" y="-1111.4756" font-family="Helvetica,sans-Serif" font-size="11.00" fill="#000000">&lt; 2</text>
<polygon fill="#ffffff" stroke="transparent" points="270.5,-1105.3756 270.5,-1124.3756 321.5,-1124.3756 321.5,-1105.3756 270.5,-1105.3756"/>
<polygon fill="none" stroke="#000000" points="270.5,-1105.3756 270.5,-1124.3756 321.5,-1124.3756 321.5,-1105.3756 270.5,-1105.3756"/>
<text text-anchor="start" x="291.6105" y="-1111.4756" font-family="Helvetica,sans-Serif" font-size="11.00" fill="#000000">1 row</text>
<polygon fill="#ffffff" stroke="transparent" points="321.5,-1105.3756 321.5,-1124.3756 352.5,-1124.3756 352.5,-1105.3756 321.5,-1105.3756"/>
<polygon fill="none" stroke="#000000" points="321.5,-1105.3756 321.5,-1124.3756 352.5,-1124.3756 352.5,-1105.3756 321.5,-1105.3756"/>
<text text-anchor="start" x="343.3862" y="-1111.4756" font-family="Helvetica,sans-Serif" font-size="11.00" fill="#000000"> &#160;</text>
</a>
</g>
</g>
<!-- AspNetUserRoles&#45;&gt;AspNetUsers -->
<g id="edge3" class="edge">
<title>AspNetUserRoles:w&#45;&gt;AspNetUsers:e</title>
<path fill="none" stroke="#000000" d="M198.0104,-1131.5699C181.8756,-1126.9267 175.4422,-1113.642 163,-1095.3756 96.3334,-997.502 74.5282,-854.3176 67.8024,-789.0745"/>
<polygon fill="#000000" stroke="#000000" points="204.5614,-1132.3862 212.0548,-1136.9479 208.5307,-1132.8809 212.5,-1133.3756 212.5,-1133.3756 212.5,-1133.3756 208.5307,-1132.8809 212.9452,-1129.8032 204.5614,-1132.3862 204.5614,-1132.3862"/>
<ellipse fill="none" stroke="#000000" cx="201.386" cy="-1131.9905" rx="3.2" ry="3.2"/>
</g>
<!-- AspNetUserTokens -->
<g id="node5" class="node">
<title>AspNetUserTokens</title>
<g id="a_node5"><a xlink:href="../../tables/AspNetUserTokens.html" xlink:title="AspNetUserTokens" target="_top">
<polygon fill="#ffffff" stroke="transparent" points="208,-1023.8756 208,-1084.8756 357,-1084.8756 357,-1023.8756 208,-1023.8756"/>
<polygon fill="#f5f5f5" stroke="transparent" points="208.5,-1061.3756 208.5,-1084.3756 357.5,-1084.3756 357.5,-1061.3756 208.5,-1061.3756"/>
<polygon fill="none" stroke="#000000" points="208.5,-1061.3756 208.5,-1084.3756 357.5,-1084.3756 357.5,-1061.3756 208.5,-1061.3756"/>
<text text-anchor="start" x="213.5" y="-1069.9756" font-family="Helvetica,sans-Serif" font-weight="bold" font-size="11.00" fill="#000000">AspNetUserTokens</text>
<text text-anchor="start" x="323.0219" y="-1069.4756" font-family="Helvetica,sans-Serif" font-size="11.00" fill="#000000">[table]</text>
<polygon fill="none" stroke="#000000" points="208.5,-1042.3756 208.5,-1061.3756 357.5,-1061.3756 357.5,-1042.3756 208.5,-1042.3756"/>
<text text-anchor="start" x="211.5" y="-1048.4756" font-family="Helvetica,sans-Serif" font-size="11.00" fill="#000000">...</text>
<polygon fill="#ffffff" stroke="transparent" points="208.5,-1023.3756 208.5,-1042.3756 268.5,-1042.3756 268.5,-1023.3756 208.5,-1023.3756"/>
<polygon fill="none" stroke="#000000" points="208.5,-1023.3756 208.5,-1042.3756 268.5,-1042.3756 268.5,-1023.3756 208.5,-1023.3756"/>
<text text-anchor="start" x="211.5" y="-1029.4756" font-family="Helvetica,sans-Serif" font-size="11.00" fill="#000000">&lt; 1</text>
<polygon fill="#ffffff" stroke="transparent" points="268.5,-1023.3756 268.5,-1042.3756 325.5,-1042.3756 325.5,-1023.3756 268.5,-1023.3756"/>
<polygon fill="none" stroke="#000000" points="268.5,-1023.3756 268.5,-1042.3756 325.5,-1042.3756 325.5,-1023.3756 268.5,-1023.3756"/>
<text text-anchor="start" x="290.1105" y="-1029.4756" font-family="Helvetica,sans-Serif" font-size="11.00" fill="#000000">0 rows</text>
<polygon fill="#ffffff" stroke="transparent" points="325.5,-1023.3756 325.5,-1042.3756 357.5,-1042.3756 357.5,-1023.3756 325.5,-1023.3756"/>
<polygon fill="none" stroke="#000000" points="325.5,-1023.3756 325.5,-1042.3756 357.5,-1042.3756 357.5,-1023.3756 325.5,-1023.3756"/>
<text text-anchor="start" x="348.3862" y="-1029.4756" font-family="Helvetica,sans-Serif" font-size="11.00" fill="#000000"> &#160;</text>
</a>
</g>
</g>
<!-- AspNetUserTokens&#45;&gt;AspNetUsers -->
<g id="edge4" class="edge">
<title>AspNetUserTokens:w&#45;&gt;AspNetUsers:e</title>
<path fill="none" stroke="#000000" d="M194.3584,-1047.8209C141.8874,-1021.8984 93.2968,-860.9451 73.8975,-789.0265"/>
<polygon fill="#000000" stroke="#000000" points="200.7414,-1049.4253 207.6224,-1054.867 204.6207,-1050.4004 208.5,-1051.3756 208.5,-1051.3756 208.5,-1051.3756 204.6207,-1050.4004 209.3776,-1047.8842 200.7414,-1049.4253 200.7414,-1049.4253"/>
<ellipse fill="none" stroke="#000000" cx="197.6379" cy="-1048.6452" rx="3.2" ry="3.2"/>
</g>
<!-- Competencies -->
<g id="node6" class="node">
<title>Competencies</title>
<g id="a_node6"><a xlink:href="../../tables/Competencies.html" xlink:title="Competencies" target="_top">
<polygon fill="#ffffff" stroke="transparent" points="222,-862.8756 222,-923.8756 343,-923.8756 343,-862.8756 222,-862.8756"/>
<polygon fill="#f5f5f5" stroke="transparent" points="222.5,-900.3756 222.5,-923.3756 343.5,-923.3756 343.5,-900.3756 222.5,-900.3756"/>
<polygon fill="none" stroke="#000000" points="222.5,-900.3756 222.5,-923.3756 343.5,-923.3756 343.5,-900.3756 222.5,-900.3756"/>
<text text-anchor="start" x="227.5" y="-908.9756" font-family="Helvetica,sans-Serif" font-weight="bold" font-size="11.00" fill="#000000">Competencies</text>
<text text-anchor="start" x="309.0219" y="-908.4756" font-family="Helvetica,sans-Serif" font-size="11.00" fill="#000000">[table]</text>
<polygon fill="none" stroke="#000000" points="222.5,-881.3756 222.5,-900.3756 343.5,-900.3756 343.5,-881.3756 222.5,-881.3756"/>
<text text-anchor="start" x="225.5" y="-887.4756" font-family="Helvetica,sans-Serif" font-size="11.00" fill="#000000">...</text>
<polygon fill="#ffffff" stroke="transparent" points="222.5,-862.3756 222.5,-881.3756 263.5,-881.3756 263.5,-862.3756 222.5,-862.3756"/>
<polygon fill="none" stroke="#000000" points="222.5,-862.3756 222.5,-881.3756 263.5,-881.3756 263.5,-862.3756 222.5,-862.3756"/>
<text text-anchor="start" x="225.5" y="-868.4756" font-family="Helvetica,sans-Serif" font-size="11.00" fill="#000000">&lt; 2</text>
<polygon fill="#ffffff" stroke="transparent" points="263.5,-862.3756 263.5,-881.3756 311.5,-881.3756 311.5,-862.3756 263.5,-862.3756"/>
<polygon fill="none" stroke="#000000" points="263.5,-862.3756 263.5,-881.3756 311.5,-881.3756 311.5,-862.3756 263.5,-862.3756"/>
<text text-anchor="start" x="276.1105" y="-868.4756" font-family="Helvetica,sans-Serif" font-size="11.00" fill="#000000">5 rows</text>
<polygon fill="#ffffff" stroke="transparent" points="311.5,-862.3756 311.5,-881.3756 343.5,-881.3756 343.5,-862.3756 311.5,-862.3756"/>
<polygon fill="none" stroke="#000000" points="311.5,-862.3756 311.5,-881.3756 343.5,-881.3756 343.5,-862.3756 311.5,-862.3756"/>
<text text-anchor="start" x="324.9053" y="-868.4756" font-family="Helvetica,sans-Serif" font-size="11.00" fill="#000000">4 &gt;</text>
</a>
</g>
</g>
<!-- Competencies&#45;&gt;AspNetUsers -->
<g id="edge5" class="edge">
<title>Competencies:w&#45;&gt;AspNetUsers:e</title>
<path fill="none" stroke="#000000" d="M207.9804,-888.3556C154.7317,-877.01 111.924,-824.7295 87.4753,-788.8805"/>
<polygon fill="#000000" stroke="#000000" points="214.5763,-889.2732 222.0039,-893.9412 218.5382,-889.8244 222.5,-890.3756 222.5,-890.3756 222.5,-890.3756 218.5382,-889.8244 222.9961,-886.8099 214.5763,-889.2732 214.5763,-889.2732"/>
<ellipse fill="none" stroke="#000000" cx="211.4068" cy="-888.8322" rx="3.2" ry="3.2"/>
</g>
<!-- Competencies&#45;&gt;AspNetUsers -->
<g id="edge6" class="edge">
<title>Competencies:w&#45;&gt;AspNetUsers:e</title>
<path fill="none" stroke="#000000" d="M208.0418,-890.3248C150.5707,-885.5814 105.2548,-827.7785 82.0449,-789.0073"/>
<polygon fill="#000000" stroke="#000000" points="214.5,-890.3474 222.4873,-893.9755 218.5,-890.3615 222.5,-890.3756 222.5,-890.3756 222.5,-890.3756 218.5,-890.3615 222.5127,-886.7756 214.5,-890.3474 214.5,-890.3474"/>
<ellipse fill="none" stroke="#000000" cx="211.3001" cy="-890.3362" rx="3.2" ry="3.2"/>
</g>
<!-- CompetencyLevelDescriptions -->
<g id="node7" class="node">
<title>CompetencyLevelDescriptions</title>
<g id="a_node7"><a xlink:href="../../tables/CompetencyLevelDescriptions.html" xlink:title="CompetencyLevelDescriptions" target="_top">
<polygon fill="#ffffff" stroke="transparent" points="451,-978.8756 451,-1039.8756 665,-1039.8756 665,-978.8756 451,-978.8756"/>
<polygon fill="#f5f5f5" stroke="transparent" points="451,-1016.3756 451,-1039.3756 665,-1039.3756 665,-1016.3756 451,-1016.3756"/>
<polygon fill="none" stroke="#000000" points="451,-1016.3756 451,-1039.3756 665,-1039.3756 665,-1016.3756 451,-1016.3756"/>
<text text-anchor="start" x="456" y="-1024.9756" font-family="Helvetica,sans-Serif" font-weight="bold" font-size="11.00" fill="#000000">CompetencyLevelDescriptions</text>
<text text-anchor="start" x="630.5219" y="-1024.4756" font-family="Helvetica,sans-Serif" font-size="11.00" fill="#000000">[table]</text>
<polygon fill="none" stroke="#000000" points="451,-997.3756 451,-1016.3756 665,-1016.3756 665,-997.3756 451,-997.3756"/>
<text text-anchor="start" x="454" y="-1003.4756" font-family="Helvetica,sans-Serif" font-size="11.00" fill="#000000">...</text>
<polygon fill="#ffffff" stroke="transparent" points="451,-978.3756 451,-997.3756 540,-997.3756 540,-978.3756 451,-978.3756"/>
<polygon fill="none" stroke="#000000" points="451,-978.3756 451,-997.3756 540,-997.3756 540,-978.3756 451,-978.3756"/>
<text text-anchor="start" x="454" y="-984.4756" font-family="Helvetica,sans-Serif" font-size="11.00" fill="#000000">&lt; 3</text>
<polygon fill="#ffffff" stroke="transparent" points="540,-978.3756 540,-997.3756 618,-997.3756 618,-978.3756 540,-978.3756"/>
<polygon fill="none" stroke="#000000" points="540,-978.3756 540,-997.3756 618,-997.3756 618,-978.3756 540,-978.3756"/>
<text text-anchor="start" x="576.4956" y="-984.4756" font-family="Helvetica,sans-Serif" font-size="11.00" fill="#000000">20 rows</text>
<polygon fill="#ffffff" stroke="transparent" points="618,-978.3756 618,-997.3756 665,-997.3756 665,-978.3756 618,-978.3756"/>
<polygon fill="none" stroke="#000000" points="618,-978.3756 618,-997.3756 665,-997.3756 665,-978.3756 618,-978.3756"/>
<text text-anchor="start" x="655.8862" y="-984.4756" font-family="Helvetica,sans-Serif" font-size="11.00" fill="#000000"> &#160;</text>
</a>
</g>
</g>
<!-- CompetencyLevelDescriptions&#45;&gt;AspNetUsers -->
<g id="edge8" class="edge">
<title>CompetencyLevelDescriptions:w&#45;&gt;AspNetUsers:e</title>
<path fill="none" stroke="#000000" d="M436.3443,-1005.245C363.6053,-1000.4925 211.3898,-1000.0002 163,-964.3756 105.1329,-921.7738 80.6208,-836.8893 70.8785,-789.0598"/>
<polygon fill="#000000" stroke="#000000" points="443.0237,-1005.7602 450.7231,-1009.9649 447.0118,-1006.0679 451,-1006.3756 451,-1006.3756 451,-1006.3756 447.0118,-1006.0679 451.2769,-1002.7862 443.0237,-1005.7602 443.0237,-1005.7602"/>
<ellipse fill="none" stroke="#000000" cx="439.8332" cy="-1005.5141" rx="3.2" ry="3.2"/>
</g>
<!-- CompetencyLevelDescriptions&#45;&gt;AspNetUsers -->
<g id="edge9" class="edge">
<title>CompetencyLevelDescriptions:w&#45;&gt;AspNetUsers:e</title>
<path fill="none" stroke="#000000" d="M436.3443,-1007.733C363.6053,-1013.4925 211.3898,-1013.0002 163,-977.3756 101.6509,-932.2103 77.7917,-839.5208 69.2762,-788.9395"/>
<polygon fill="#000000" stroke="#000000" points="443.0341,-1007.1134 451.332,-1009.9602 447.017,-1006.7445 451,-1006.3756 451,-1006.3756 451,-1006.3756 447.017,-1006.7445 450.668,-1002.7909 443.0341,-1007.1134 443.0341,-1007.1134"/>
<ellipse fill="none" stroke="#000000" cx="439.8477" cy="-1007.4085" rx="3.2" ry="3.2"/>
</g>
<!-- CompetencyLevelDescriptions&#45;&gt;Competencies -->
<g id="edge7" class="edge">
<title>CompetencyLevelDescriptions:w&#45;&gt;Competencies:e</title>
<path fill="none" stroke="#000000" d="M436.6456,-1004.4589C385.1497,-989.3767 408.4359,-890.3756 343.5,-890.3756"/>
<polygon fill="#000000" stroke="#000000" points="443.0704,-1005.3167 450.5235,-1009.9439 447.0352,-1005.8462 451,-1006.3756 451,-1006.3756 451,-1006.3756 447.0352,-1005.8462 451.4765,-1002.8072 443.0704,-1005.3167 443.0704,-1005.3167"/>
<ellipse fill="none" stroke="#000000" cx="439.8985" cy="-1004.8932" rx="3.2" ry="3.2"/>
</g>
<!-- Coordinators -->
<g id="node8" class="node">
<title>Coordinators</title>
<g id="a_node8"><a xlink:href="../../tables/Coordinators.html" xlink:title="Coordinators" target="_top">
<polygon fill="#ffffff" stroke="transparent" points="501,-254.8756 501,-315.8756 615,-315.8756 615,-254.8756 501,-254.8756"/>
<polygon fill="#f5f5f5" stroke="transparent" points="501,-292.3756 501,-315.3756 615,-315.3756 615,-292.3756 501,-292.3756"/>
<polygon fill="none" stroke="#000000" points="501,-292.3756 501,-315.3756 615,-315.3756 615,-292.3756 501,-292.3756"/>
<text text-anchor="start" x="506" y="-300.9756" font-family="Helvetica,sans-Serif" font-weight="bold" font-size="11.00" fill="#000000">Coordinators</text>
<text text-anchor="start" x="580.5219" y="-300.4756" font-family="Helvetica,sans-Serif" font-size="11.00" fill="#000000">[table]</text>
<polygon fill="none" stroke="#000000" points="501,-273.3756 501,-292.3756 615,-292.3756 615,-273.3756 501,-273.3756"/>
<text text-anchor="start" x="504" y="-279.4756" font-family="Helvetica,sans-Serif" font-size="11.00" fill="#000000">...</text>
<polygon fill="#ffffff" stroke="transparent" points="501,-254.3756 501,-273.3756 543,-273.3756 543,-254.3756 501,-254.3756"/>
<polygon fill="none" stroke="#000000" points="501,-254.3756 501,-273.3756 543,-273.3756 543,-254.3756 501,-254.3756"/>
<text text-anchor="start" x="504" y="-260.4756" font-family="Helvetica,sans-Serif" font-size="11.00" fill="#000000">&lt; 2</text>
<polygon fill="#ffffff" stroke="transparent" points="543,-254.3756 543,-273.3756 592,-273.3756 592,-254.3756 543,-254.3756"/>
<polygon fill="none" stroke="#000000" points="543,-254.3756 543,-273.3756 592,-273.3756 592,-254.3756 543,-254.3756"/>
<text text-anchor="start" x="556.6105" y="-260.4756" font-family="Helvetica,sans-Serif" font-size="11.00" fill="#000000">0 rows</text>
<polygon fill="#ffffff" stroke="transparent" points="592,-254.3756 592,-273.3756 615,-273.3756 615,-254.3756 592,-254.3756"/>
<polygon fill="none" stroke="#000000" points="592,-254.3756 592,-273.3756 615,-273.3756 615,-254.3756 592,-254.3756"/>
<text text-anchor="start" x="605.8862" y="-260.4756" font-family="Helvetica,sans-Serif" font-size="11.00" fill="#000000"> &#160;</text>
</a>
</g>
</g>
<!-- Coordinators&#45;&gt;AspNetUsers -->
<g id="edge11" class="edge">
<title>Coordinators:w&#45;&gt;AspNetUsers:e</title>
<path fill="none" stroke="#000000" d="M490.1647,-281.7948C452.5706,-277.5681 444.6498,-251.4734 402,-243.3756 349.8211,-233.4684 203.9395,-209.5414 163,-243.3756 89.1918,-304.3738 70.4209,-614.7829 66.1488,-719.6841"/>
<polygon fill="#000000" stroke="#000000" points="500.4153,-278.3385 499.987,-286.327 498.3893,-286.2414 498.8176,-278.2528 500.4153,-278.3385"/>
<polyline fill="none" stroke="#000000" points="501,-282.3756 497.0057,-282.1614 "/>
<ellipse fill="none" stroke="#000000" cx="493.8103" cy="-281.9901" rx="3.2" ry="3.2"/>
</g>
<!-- TechnicalCareers -->
<g id="node9" class="node">
<title>TechnicalCareers</title>
<g id="a_node9"><a xlink:href="../../tables/TechnicalCareers.html" xlink:title="TechnicalCareers" target="_top">
<polygon fill="#ffffff" stroke="transparent" points="213,-253.8756 213,-314.8756 352,-314.8756 352,-253.8756 213,-253.8756"/>
<polygon fill="#f5f5f5" stroke="transparent" points="213.5,-291.3756 213.5,-314.3756 352.5,-314.3756 352.5,-291.3756 213.5,-291.3756"/>
<polygon fill="none" stroke="#000000" points="213.5,-291.3756 213.5,-314.3756 352.5,-314.3756 352.5,-291.3756 213.5,-291.3756"/>
<text text-anchor="start" x="218.5" y="-299.9756" font-family="Helvetica,sans-Serif" font-weight="bold" font-size="11.00" fill="#000000">TechnicalCareers</text>
<text text-anchor="start" x="318.0219" y="-299.4756" font-family="Helvetica,sans-Serif" font-size="11.00" fill="#000000">[table]</text>
<polygon fill="none" stroke="#000000" points="213.5,-272.3756 213.5,-291.3756 352.5,-291.3756 352.5,-272.3756 213.5,-272.3756"/>
<text text-anchor="start" x="216.5" y="-278.4756" font-family="Helvetica,sans-Serif" font-size="11.00" fill="#000000">...</text>
<polygon fill="#ffffff" stroke="transparent" points="213.5,-253.3756 213.5,-272.3756 263.5,-272.3756 263.5,-253.3756 213.5,-253.3756"/>
<polygon fill="none" stroke="#000000" points="213.5,-253.3756 213.5,-272.3756 263.5,-272.3756 263.5,-253.3756 213.5,-253.3756"/>
<text text-anchor="start" x="216.5" y="-259.4756" font-family="Helvetica,sans-Serif" font-size="11.00" fill="#000000">&lt; 2</text>
<polygon fill="#ffffff" stroke="transparent" points="263.5,-253.3756 263.5,-272.3756 316.5,-272.3756 316.5,-253.3756 263.5,-253.3756"/>
<polygon fill="none" stroke="#000000" points="263.5,-253.3756 263.5,-272.3756 316.5,-272.3756 316.5,-253.3756 263.5,-253.3756"/>
<text text-anchor="start" x="281.1105" y="-259.4756" font-family="Helvetica,sans-Serif" font-size="11.00" fill="#000000">6 rows</text>
<polygon fill="#ffffff" stroke="transparent" points="316.5,-253.3756 316.5,-272.3756 352.5,-272.3756 352.5,-253.3756 316.5,-253.3756"/>
<polygon fill="none" stroke="#000000" points="316.5,-253.3756 316.5,-272.3756 352.5,-272.3756 352.5,-253.3756 316.5,-253.3756"/>
<text text-anchor="start" x="333.9053" y="-259.4756" font-family="Helvetica,sans-Serif" font-size="11.00" fill="#000000">6 &gt;</text>
</a>
</g>
</g>
<!-- Coordinators&#45;&gt;TechnicalCareers -->
<g id="edge10" class="edge">
<title>Coordinators:w&#45;&gt;TechnicalCareers:e</title>
<path fill="none" stroke="#000000" d="M486.3901,-282.3582C432.1187,-282.2254 413.3451,-281.3756 352.5,-281.3756"/>
<polygon fill="#000000" stroke="#000000" points="493,-282.366 500.9957,-285.9756 497,-282.3708 501,-282.3756 501,-282.3756 501,-282.3756 497,-282.3708 501.0043,-278.7756 493,-282.366 493,-282.366"/>
<ellipse fill="none" stroke="#000000" cx="489.8" cy="-282.3622" rx="3.2" ry="3.2"/>
</g>
<!-- TechnicalCareers&#45;&gt;AspNetUsers -->
<g id="edge50" class="edge">
<title>TechnicalCareers:w&#45;&gt;AspNetUsers:e</title>
<path fill="none" stroke="#000000" d="M199.0103,-283.4063C116.4612,-311.521 78.4337,-615.8313 68.0488,-719.8271"/>
<polygon fill="#000000" stroke="#000000" points="205.5774,-282.486 213.9997,-284.9407 209.5387,-281.9308 213.5,-281.3756 213.5,-281.3756 213.5,-281.3756 209.5387,-281.9308 213.0003,-277.8104 205.5774,-282.486 205.5774,-282.486"/>
<ellipse fill="none" stroke="#000000" cx="202.4084" cy="-282.9302" rx="3.2" ry="3.2"/>
</g>
<!-- TechnicalCareers&#45;&gt;AspNetUsers -->
<g id="edge51" class="edge">
<title>TechnicalCareers:w&#45;&gt;AspNetUsers:e</title>
<path fill="none" stroke="#000000" d="M199.4908,-284.8729C118.0302,-320.8002 79.7757,-617.4808 68.6087,-719.8671"/>
<polygon fill="#000000" stroke="#000000" points="205.7382,-283.3133 214.372,-284.8684 209.6191,-282.3444 213.5,-281.3756 213.5,-281.3756 213.5,-281.3756 209.6191,-282.3444 212.628,-277.8828 205.7382,-283.3133 205.7382,-283.3133"/>
<ellipse fill="none" stroke="#000000" cx="202.6335" cy="-284.0884" rx="3.2" ry="3.2"/>
</g>
<!-- EvaluationPeriods -->
<g id="node10" class="node">
<title>EvaluationPeriods</title>
<g id="a_node10"><a xlink:href="../../tables/EvaluationPeriods.html" xlink:title="EvaluationPeriods" target="_top">
<polygon fill="#ffffff" stroke="transparent" points="171,-336.3756 171,-602.3756 394,-602.3756 394,-336.3756 171,-336.3756"/>
<polygon fill="#f5f5f5" stroke="transparent" points="173.5,-577.3756 173.5,-600.3756 392.5,-600.3756 392.5,-577.3756 173.5,-577.3756"/>
<polygon fill="none" stroke="#000000" points="173.5,-577.3756 173.5,-600.3756 392.5,-600.3756 392.5,-577.3756 173.5,-577.3756"/>
<text text-anchor="start" x="178.5" y="-585.9756" font-family="Helvetica,sans-Serif" font-weight="bold" font-size="11.00" fill="#000000">EvaluationPeriods</text>
<text text-anchor="start" x="357.5437" y="-585.4756" font-family="Helvetica,sans-Serif" font-size="11.00" fill="#000000">[table]</text>
<polygon fill="none" stroke="#000000" points="173.5,-555.3756 173.5,-577.3756 298.5,-577.3756 298.5,-555.3756 173.5,-555.3756"/>
<image xlink:href="../../images/primaryKeys.png" width="11px" height="12px" preserveAspectRatio="xMinYMin meet" x="178.5" y="-572.376"/>
<text text-anchor="start" x="193.5" y="-562.4756" font-family="Helvetica,sans-Serif" font-size="11.00" fill="#000000">Id</text>
<polygon fill="none" stroke="#000000" points="298.5,-555.3756 298.5,-577.3756 392.5,-577.3756 392.5,-555.3756 298.5,-555.3756"/>
<text text-anchor="start" x="301.4758" y="-563.0756" font-family="Helvetica,sans-Serif" font-size="11.00" fill="#000000">uuid[2147483647]</text>
<polygon fill="none" stroke="#000000" points="173.5,-533.3756 173.5,-555.3756 298.5,-555.3756 298.5,-533.3756 173.5,-533.3756"/>
<text text-anchor="start" x="193.5" y="-540.4756" font-family="Helvetica,sans-Serif" font-size="11.00" fill="#000000">Title</text>
<polygon fill="none" stroke="#000000" points="298.5,-533.3756 298.5,-555.3756 392.5,-555.3756 392.5,-533.3756 298.5,-533.3756"/>
<text text-anchor="start" x="301.5" y="-541.0756" font-family="Helvetica,sans-Serif" font-size="11.00" fill="#000000">text[2147483647]</text>
<polygon fill="none" stroke="#000000" points="173.5,-511.3756 173.5,-533.3756 298.5,-533.3756 298.5,-511.3756 173.5,-511.3756"/>
<text text-anchor="start" x="193.5" y="-518.4756" font-family="Helvetica,sans-Serif" font-size="11.00" fill="#000000">Description</text>
<polygon fill="none" stroke="#000000" points="298.5,-511.3756 298.5,-533.3756 392.5,-533.3756 392.5,-511.3756 298.5,-511.3756"/>
<text text-anchor="start" x="301.5" y="-519.0756" font-family="Helvetica,sans-Serif" font-size="11.00" fill="#000000">text[2147483647]</text>
<polygon fill="none" stroke="#000000" points="173.5,-489.3756 173.5,-511.3756 298.5,-511.3756 298.5,-489.3756 173.5,-489.3756"/>
<text text-anchor="start" x="193.5" y="-496.4756" font-family="Helvetica,sans-Serif" font-size="11.00" fill="#000000">PeriodFrom</text>
<polygon fill="none" stroke="#000000" points="298.5,-489.3756 298.5,-511.3756 392.5,-511.3756 392.5,-489.3756 298.5,-489.3756"/>
<text text-anchor="start" x="301.5" y="-497.0756" font-family="Helvetica,sans-Serif" font-size="11.00" fill="#000000">timestamptz[35,6]</text>
<polygon fill="none" stroke="#000000" points="173.5,-467.3756 173.5,-489.3756 298.5,-489.3756 298.5,-467.3756 173.5,-467.3756"/>
<text text-anchor="start" x="193.5" y="-474.4756" font-family="Helvetica,sans-Serif" font-size="11.00" fill="#000000">PeriodTo</text>
<polygon fill="none" stroke="#000000" points="298.5,-467.3756 298.5,-489.3756 392.5,-489.3756 392.5,-467.3756 298.5,-467.3756"/>
<text text-anchor="start" x="301.5" y="-475.0756" font-family="Helvetica,sans-Serif" font-size="11.00" fill="#000000">timestamptz[35,6]</text>
<polygon fill="none" stroke="#000000" points="173.5,-445.3756 173.5,-467.3756 298.5,-467.3756 298.5,-445.3756 173.5,-445.3756"/>
<text text-anchor="start" x="193.5" y="-452.4756" font-family="Helvetica,sans-Serif" font-size="11.00" fill="#000000">IsActive</text>
<polygon fill="none" stroke="#000000" points="298.5,-445.3756 298.5,-467.3756 392.5,-467.3756 392.5,-445.3756 298.5,-445.3756"/>
<text text-anchor="start" x="301.5" y="-453.0756" font-family="Helvetica,sans-Serif" font-size="11.00" fill="#000000">bool[1]</text>
<polygon fill="none" stroke="#000000" points="173.5,-423.3756 173.5,-445.3756 298.5,-445.3756 298.5,-423.3756 173.5,-423.3756"/>
<text text-anchor="start" x="193.5" y="-430.4756" font-family="Helvetica,sans-Serif" font-size="11.00" fill="#000000">CreatedAt</text>
<polygon fill="none" stroke="#000000" points="298.5,-423.3756 298.5,-445.3756 392.5,-445.3756 392.5,-423.3756 298.5,-423.3756"/>
<text text-anchor="start" x="301.5" y="-431.0756" font-family="Helvetica,sans-Serif" font-size="11.00" fill="#000000">timestamptz[35,6]</text>
<polygon fill="none" stroke="#000000" points="173.5,-401.3756 173.5,-423.3756 298.5,-423.3756 298.5,-401.3756 173.5,-401.3756"/>
<text text-anchor="start" x="193.5" y="-408.4756" font-family="Helvetica,sans-Serif" font-size="11.00" fill="#000000">UpdatedAt</text>
<polygon fill="none" stroke="#000000" points="298.5,-401.3756 298.5,-423.3756 392.5,-423.3756 392.5,-401.3756 298.5,-401.3756"/>
<text text-anchor="start" x="301.5" y="-409.0756" font-family="Helvetica,sans-Serif" font-size="11.00" fill="#000000">timestamptz[35,6]</text>
<polygon fill="#ffffff" stroke="transparent" points="173.5,-379.3756 173.5,-401.3756 298.5,-401.3756 298.5,-379.3756 173.5,-379.3756"/>
<polygon fill="none" stroke="#000000" points="173.5,-379.3756 173.5,-401.3756 298.5,-401.3756 298.5,-379.3756 173.5,-379.3756"/>
<image xlink:href="../../images/foreignKeys.png" width="11px" height="12px" preserveAspectRatio="xMinYMin meet" x="178.5" y="-396.376"/>
<text text-anchor="start" x="193.5" y="-386.4756" font-family="Helvetica,sans-Serif" font-size="11.00" fill="#000000">CreatedByUserId</text>
<polygon fill="none" stroke="#000000" points="298.5,-379.3756 298.5,-401.3756 392.5,-401.3756 392.5,-379.3756 298.5,-379.3756"/>
<text text-anchor="start" x="301.5" y="-387.0756" font-family="Helvetica,sans-Serif" font-size="11.00" fill="#000000">text[2147483647]</text>
<polygon fill="#ffffff" stroke="transparent" points="173.5,-357.3756 173.5,-379.3756 298.5,-379.3756 298.5,-357.3756 173.5,-357.3756"/>
<polygon fill="none" stroke="#000000" points="173.5,-357.3756 173.5,-379.3756 298.5,-379.3756 298.5,-357.3756 173.5,-357.3756"/>
<image xlink:href="../../images/foreignKeys.png" width="11px" height="12px" preserveAspectRatio="xMinYMin meet" x="178.5" y="-374.376"/>
<text text-anchor="start" x="193.5" y="-364.4756" font-family="Helvetica,sans-Serif" font-size="11.00" fill="#000000">UpdatedByUserId</text>
<polygon fill="none" stroke="#000000" points="298.5,-357.3756 298.5,-379.3756 392.5,-379.3756 392.5,-357.3756 298.5,-357.3756"/>
<text text-anchor="start" x="301.5" y="-365.0756" font-family="Helvetica,sans-Serif" font-size="11.00" fill="#000000">text[2147483647]</text>
<polygon fill="#ffffff" stroke="transparent" points="173.5,-338.3756 173.5,-357.3756 227.5,-357.3756 227.5,-338.3756 173.5,-338.3756"/>
<polygon fill="none" stroke="#000000" points="173.5,-338.3756 173.5,-357.3756 227.5,-357.3756 227.5,-338.3756 173.5,-338.3756"/>
<text text-anchor="start" x="176.5" y="-344.4756" font-family="Helvetica,sans-Serif" font-size="11.00" fill="#000000">&lt; 2</text>
<polygon fill="#ffffff" stroke="transparent" points="227.5,-338.3756 227.5,-357.3756 298.5,-357.3756 298.5,-338.3756 227.5,-338.3756"/>
<polygon fill="none" stroke="#000000" points="227.5,-338.3756 227.5,-357.3756 298.5,-357.3756 298.5,-338.3756 227.5,-338.3756"/>
<text text-anchor="start" x="263.1105" y="-344.4756" font-family="Helvetica,sans-Serif" font-size="11.00" fill="#000000">0 rows</text>
<polygon fill="#ffffff" stroke="transparent" points="298.5,-338.3756 298.5,-357.3756 392.5,-357.3756 392.5,-338.3756 298.5,-338.3756"/>
<polygon fill="none" stroke="#000000" points="298.5,-338.3756 298.5,-357.3756 392.5,-357.3756 392.5,-338.3756 298.5,-338.3756"/>
<text text-anchor="start" x="373.9053" y="-344.4756" font-family="Helvetica,sans-Serif" font-size="11.00" fill="#000000">3 &gt;</text>
<polygon fill="none" stroke="#000000" stroke-width="2" points="172,-337.3756 172,-601.3756 393,-601.3756 393,-337.3756 172,-337.3756"/>
</a>
</g>
</g>
<!-- EvaluationPeriods&#45;&gt;AspNetUsers -->
<g id="edge12" class="edge">
<title>EvaluationPeriods:w&#45;&gt;AspNetUsers:e</title>
<path fill="none" stroke="#000000" d="M159.2978,-393.9674C101.1105,-424.0846 75.7499,-635.5087 67.8713,-719.8032"/>
<polygon fill="#000000" stroke="#000000" points="165.7442,-392.3371 174.3827,-393.8657 169.6221,-391.3563 173.5,-390.3756 173.5,-390.3756 173.5,-390.3756 169.6221,-391.3563 172.6173,-386.8855 165.7442,-392.3371 165.7442,-392.3371"/>
<ellipse fill="none" stroke="#000000" cx="162.6419" cy="-393.1217" rx="3.2" ry="3.2"/>
</g>
<!-- EvaluationPeriods&#45;&gt;AspNetUsers -->
<g id="edge13" class="edge">
<title>EvaluationPeriods:w&#45;&gt;AspNetUsers:e</title>
<path fill="none" stroke="#000000" d="M159.2408,-371.84C97.3358,-402.7093 74.0405,-631.5135 67.2987,-719.7809"/>
<polygon fill="#000000" stroke="#000000" points="165.7262,-370.2643 174.35,-371.8738 169.6131,-369.32 173.5,-368.3756 173.5,-368.3756 173.5,-368.3756 169.6131,-369.32 172.65,-364.8773 165.7262,-370.2643 165.7262,-370.2643"/>
<ellipse fill="none" stroke="#000000" cx="162.6166" cy="-371.0199" rx="3.2" ry="3.2"/>
</g>
<!-- EvaluationPeriodTechnicalCareer -->
<g id="node11" class="node">
<title>EvaluationPeriodTechnicalCareer</title>
<g id="a_node11"><a xlink:href="../../tables/EvaluationPeriodTechnicalCareer.html" xlink:title="EvaluationPeriodTechnicalCareer" target="_top">
<polygon fill="#ffffff" stroke="transparent" points="443,-422.3756 443,-508.3756 673,-508.3756 673,-422.3756 443,-422.3756"/>
<polygon fill="#f5f5f5" stroke="transparent" points="443,-485.3756 443,-508.3756 673,-508.3756 673,-485.3756 443,-485.3756"/>
<polygon fill="none" stroke="#000000" points="443,-485.3756 443,-508.3756 673,-508.3756 673,-485.3756 443,-485.3756"/>
<text text-anchor="start" x="448" y="-493.9756" font-family="Helvetica,sans-Serif" font-weight="bold" font-size="11.00" fill="#000000">EvaluationPeriodTechnicalCareer</text>
<text text-anchor="start" x="638.5219" y="-493.4756" font-family="Helvetica,sans-Serif" font-size="11.00" fill="#000000">[table]</text>
<polygon fill="none" stroke="#000000" points="443,-463.3756 443,-485.3756 673,-485.3756 673,-463.3756 443,-463.3756"/>
<image xlink:href="../../images/primaryKeys.png" width="11px" height="12px" preserveAspectRatio="xMinYMin meet" x="448" y="-480.376"/>
<text text-anchor="start" x="472" y="-470.4756" font-family="Helvetica,sans-Serif" font-size="11.00" fill="#000000">EvaluationPeriodsId</text>
<polygon fill="none" stroke="#000000" points="443,-441.3756 443,-463.3756 673,-463.3756 673,-441.3756 443,-441.3756"/>
<image xlink:href="../../images/primaryKeys.png" width="11px" height="12px" preserveAspectRatio="xMinYMin meet" x="448" y="-458.376"/>
<text text-anchor="start" x="472" y="-448.4756" font-family="Helvetica,sans-Serif" font-size="11.00" fill="#000000">TechnicalCareersId</text>
<polygon fill="#ffffff" stroke="transparent" points="443,-422.3756 443,-441.3756 543,-441.3756 543,-422.3756 443,-422.3756"/>
<polygon fill="none" stroke="#000000" points="443,-422.3756 443,-441.3756 543,-441.3756 543,-422.3756 443,-422.3756"/>
<text text-anchor="start" x="446" y="-428.4756" font-family="Helvetica,sans-Serif" font-size="11.00" fill="#000000">&lt; 2</text>
<polygon fill="#ffffff" stroke="transparent" points="543,-422.3756 543,-441.3756 621,-441.3756 621,-422.3756 543,-422.3756"/>
<polygon fill="none" stroke="#000000" points="543,-422.3756 543,-441.3756 621,-441.3756 621,-422.3756 543,-422.3756"/>
<text text-anchor="start" x="585.6105" y="-428.4756" font-family="Helvetica,sans-Serif" font-size="11.00" fill="#000000">0 rows</text>
<polygon fill="#ffffff" stroke="transparent" points="621,-422.3756 621,-441.3756 673,-441.3756 673,-422.3756 621,-422.3756"/>
<polygon fill="none" stroke="#000000" points="621,-422.3756 621,-441.3756 673,-441.3756 673,-422.3756 621,-422.3756"/>
<text text-anchor="start" x="663.8862" y="-428.4756" font-family="Helvetica,sans-Serif" font-size="11.00" fill="#000000"> &#160;</text>
</a>
</g>
</g>
<!-- EvaluationPeriodTechnicalCareer&#45;&gt;TechnicalCareers -->
<g id="edge15" class="edge">
<title>EvaluationPeriodTechnicalCareer:w&#45;&gt;TechnicalCareers:e</title>
<path fill="none" stroke="#000000" d="M428.5916,-450.2609C392.8022,-437.536 431.2506,-370.1959 402,-325.3756 385.9129,-300.7255 381.935,-281.3756 352.5,-281.3756"/>
<polygon fill="#000000" stroke="#000000" points="435.0848,-451.2139 442.4772,-455.9374 439.0424,-451.7947 443,-452.3756 443,-452.3756 443,-452.3756 439.0424,-451.7947 443.5228,-448.8137 435.0848,-451.2139 435.0848,-451.2139"/>
<ellipse fill="none" stroke="#000000" cx="431.9187" cy="-450.7492" rx="3.2" ry="3.2"/>
</g>
<!-- EvaluationPeriodTechnicalCareer&#45;&gt;EvaluationPeriods -->
<g id="edge14" class="edge">
<title>EvaluationPeriodTechnicalCareer:w&#45;&gt;EvaluationPeriods:e</title>
<path fill="none" stroke="#000000" d="M429.037,-478.5677C405.9013,-496.5656 433.1312,-566.3756 392.5,-566.3756"/>
<polygon fill="#000000" stroke="#000000" points="435.3379,-476.676 444.0352,-477.8235 439.1689,-475.5258 443,-474.3756 443,-474.3756 443,-474.3756 439.1689,-475.5258 441.9648,-470.9276 435.3379,-476.676 435.3379,-476.676"/>
<ellipse fill="none" stroke="#000000" cx="432.273" cy="-477.5962" rx="3.2" ry="3.2"/>
</g>
<!-- FormQuestions -->
<g id="node12" class="node">
<title>FormQuestions</title>
<g id="a_node12"><a xlink:href="../../tables/FormQuestions.html" xlink:title="FormQuestions" target="_top">
<polygon fill="#ffffff" stroke="transparent" points="494.5,-823.8756 494.5,-884.8756 621.5,-884.8756 621.5,-823.8756 494.5,-823.8756"/>
<polygon fill="#f5f5f5" stroke="transparent" points="495,-861.3756 495,-884.3756 622,-884.3756 622,-861.3756 495,-861.3756"/>
<polygon fill="none" stroke="#000000" points="495,-861.3756 495,-884.3756 622,-884.3756 622,-861.3756 495,-861.3756"/>
<text text-anchor="start" x="500" y="-869.9756" font-family="Helvetica,sans-Serif" font-weight="bold" font-size="11.00" fill="#000000">FormQuestions</text>
<text text-anchor="start" x="587.5219" y="-869.4756" font-family="Helvetica,sans-Serif" font-size="11.00" fill="#000000">[table]</text>
<polygon fill="none" stroke="#000000" points="495,-842.3756 495,-861.3756 622,-861.3756 622,-842.3756 495,-842.3756"/>
<text text-anchor="start" x="498" y="-848.4756" font-family="Helvetica,sans-Serif" font-size="11.00" fill="#000000">...</text>
<polygon fill="#ffffff" stroke="transparent" points="495,-823.3756 495,-842.3756 539,-842.3756 539,-823.3756 495,-823.3756"/>
<polygon fill="none" stroke="#000000" points="495,-823.3756 495,-842.3756 539,-842.3756 539,-823.3756 495,-823.3756"/>
<text text-anchor="start" x="498" y="-829.4756" font-family="Helvetica,sans-Serif" font-size="11.00" fill="#000000">&lt; 3</text>
<polygon fill="#ffffff" stroke="transparent" points="539,-823.3756 539,-842.3756 589,-842.3756 589,-823.3756 539,-823.3756"/>
<polygon fill="none" stroke="#000000" points="539,-823.3756 539,-842.3756 589,-842.3756 589,-823.3756 539,-823.3756"/>
<text text-anchor="start" x="553.6105" y="-829.4756" font-family="Helvetica,sans-Serif" font-size="11.00" fill="#000000">0 rows</text>
<polygon fill="#ffffff" stroke="transparent" points="589,-823.3756 589,-842.3756 622,-842.3756 622,-823.3756 589,-823.3756"/>
<polygon fill="none" stroke="#000000" points="589,-823.3756 589,-842.3756 622,-842.3756 622,-823.3756 589,-823.3756"/>
<text text-anchor="start" x="603.4053" y="-829.4756" font-family="Helvetica,sans-Serif" font-size="11.00" fill="#000000">1 &gt;</text>
</a>
</g>
</g>
<!-- FormQuestions&#45;&gt;AspNetUsers -->
<g id="edge17" class="edge">
<title>FormQuestions:w&#45;&gt;AspNetUsers:e</title>
<path fill="none" stroke="#000000" d="M480.5303,-850.8107C343.3684,-845.6241 299.5555,-848.4209 163,-803.3756 151.6052,-799.6168 140.0294,-794.4898 129.0172,-788.9521"/>
<polygon fill="#000000" stroke="#000000" points="487.0061,-851.0634 494.8595,-854.9728 491.003,-851.2195 495,-851.3756 495,-851.3756 495,-851.3756 491.003,-851.2195 495.1405,-847.7783 487.0061,-851.0634 487.0061,-851.0634"/>
<ellipse fill="none" stroke="#000000" cx="483.8085" cy="-850.9386" rx="3.2" ry="3.2"/>
</g>
<!-- FormQuestions&#45;&gt;AspNetUsers -->
<g id="edge18" class="edge">
<title>FormQuestions:w&#45;&gt;AspNetUsers:e</title>
<path fill="none" stroke="#000000" d="M480.5303,-852.0631C343.3684,-858.6241 299.5555,-861.4209 163,-816.3756 143.5454,-809.9581 123.5633,-799.5524 106.7592,-789.0267"/>
<polygon fill="#000000" stroke="#000000" points="487.009,-851.7553 495.1709,-854.9715 491.0045,-851.5654 495,-851.3756 495,-851.3756 495,-851.3756 491.0045,-851.5654 494.8291,-847.7796 487.009,-851.7553 487.009,-851.7553"/>
<ellipse fill="none" stroke="#000000" cx="483.8126" cy="-851.9072" rx="3.2" ry="3.2"/>
</g>
<!-- FormQuestions&#45;&gt;Competencies -->
<g id="edge16" class="edge">
<title>FormQuestions:w&#45;&gt;Competencies:e</title>
<path fill="none" stroke="#000000" d="M480.4157,-851.9882C423.31,-856.9498 407.8682,-890.3756 343.5,-890.3756"/>
<polygon fill="#000000" stroke="#000000" points="487.007,-851.7114 495.1511,-854.9724 491.0035,-851.5435 495,-851.3756 495,-851.3756 495,-851.3756 491.0035,-851.5435 494.8489,-847.7787 487.007,-851.7114 487.007,-851.7114"/>
<ellipse fill="none" stroke="#000000" cx="483.8099" cy="-851.8457" rx="3.2" ry="3.2"/>
</g>
<!-- ProfessorCompetencyAssignments -->
<g id="node13" class="node">
<title>ProfessorCompetencyAssignments</title>
<g id="a_node13"><a xlink:href="../../tables/ProfessorCompetencyAssignments.html" xlink:title="ProfessorCompetencyAssignments" target="_top">
<polygon fill="#ffffff" stroke="transparent" points="722,-695.8756 722,-756.8756 964,-756.8756 964,-695.8756 722,-695.8756"/>
<polygon fill="#f5f5f5" stroke="transparent" points="722,-733.3756 722,-756.3756 964,-756.3756 964,-733.3756 722,-733.3756"/>
<polygon fill="none" stroke="#000000" points="722,-733.3756 722,-756.3756 964,-756.3756 964,-733.3756 722,-733.3756"/>
<text text-anchor="start" x="727" y="-741.9756" font-family="Helvetica,sans-Serif" font-weight="bold" font-size="11.00" fill="#000000">ProfessorCompetencyAssignments</text>
<text text-anchor="start" x="929.5219" y="-741.4756" font-family="Helvetica,sans-Serif" font-size="11.00" fill="#000000">[table]</text>
<polygon fill="none" stroke="#000000" points="722,-714.3756 722,-733.3756 964,-733.3756 964,-714.3756 722,-714.3756"/>
<text text-anchor="start" x="725" y="-720.4756" font-family="Helvetica,sans-Serif" font-size="11.00" fill="#000000">...</text>
<polygon fill="#ffffff" stroke="transparent" points="722,-695.3756 722,-714.3756 824,-714.3756 824,-695.3756 722,-695.3756"/>
<polygon fill="none" stroke="#000000" points="722,-695.3756 722,-714.3756 824,-714.3756 824,-695.3756 722,-695.3756"/>
<text text-anchor="start" x="725" y="-701.4756" font-family="Helvetica,sans-Serif" font-size="11.00" fill="#000000">&lt; 7</text>
<polygon fill="#ffffff" stroke="transparent" points="824,-695.3756 824,-714.3756 902,-714.3756 902,-695.3756 824,-695.3756"/>
<polygon fill="none" stroke="#000000" points="824,-695.3756 824,-714.3756 902,-714.3756 902,-695.3756 824,-695.3756"/>
<text text-anchor="start" x="866.6105" y="-701.4756" font-family="Helvetica,sans-Serif" font-size="11.00" fill="#000000">0 rows</text>
<polygon fill="#ffffff" stroke="transparent" points="902,-695.3756 902,-714.3756 964,-714.3756 964,-695.3756 902,-695.3756"/>
<polygon fill="none" stroke="#000000" points="902,-695.3756 902,-714.3756 964,-714.3756 964,-695.3756 902,-695.3756"/>
<text text-anchor="start" x="945.4053" y="-701.4756" font-family="Helvetica,sans-Serif" font-size="11.00" fill="#000000">1 &gt;</text>
</a>
</g>
</g>
<!-- ProfessorCompetencyAssignments&#45;&gt;AspNetUsers -->
<g id="edge20" class="edge">
<title>ProfessorCompetencyAssignments:w&#45;&gt;AspNetUsers:e</title>
<path fill="none" stroke="#000000" d="M699.0954,-727.968C529.4401,-732.5947 254.8336,-742.7951 130.219,-749.3939"/>
<polygon fill="#000000" stroke="#000000" points="705.6587,-727.7922 713.7522,-731.1766 709.6572,-727.6851 713.6558,-727.5779 713.6558,-727.5779 713.6558,-727.5779 709.6572,-727.6851 713.5593,-723.9792 705.6587,-727.7922 705.6587,-727.7922"/>
<ellipse fill="none" stroke="#000000" cx="702.4598" cy="-727.878" rx="3.2" ry="3.2"/>
</g>
<!-- ProfessorCompetencyAssignments&#45;&gt;AspNetUsers -->
<g id="edge25" class="edge">
<title>ProfessorCompetencyAssignments:w&#45;&gt;AspNetUsers:e</title>
<path fill="none" stroke="#000000" d="M699.0954,-735.739C529.4401,-743.5706 254.8336,-753.0833 130.219,-755.1019"/>
<polygon fill="#000000" stroke="#000000" points="705.6645,-735.4322 713.8238,-738.6549 709.6601,-735.2455 713.6558,-735.0588 713.6558,-735.0588 713.6558,-735.0588 709.6601,-735.2455 713.4878,-731.4627 705.6645,-735.4322 705.6645,-735.4322"/>
<ellipse fill="none" stroke="#000000" cx="702.468" cy="-735.5816" rx="3.2" ry="3.2"/>
</g>
<!-- ProfessorCompetencyAssignments&#45;&gt;Competencies -->
<g id="edge19" class="edge">
<title>ProfessorCompetencyAssignments:w&#45;&gt;Competencies:e</title>
<path fill="none" stroke="#000000" d="M814.2893,-773.0163C786.0899,-813.9372 738.9318,-870.6587 681,-895.3756 543.0175,-954.2465 493.5165,-890.3756 343.5,-890.3756"/>
<polygon fill="#000000" stroke="#000000" points="817.97,-767.523 825.4138,-762.8808 820.1965,-764.1999 822.4231,-760.8769 822.4231,-760.8769 822.4231,-760.8769 820.1965,-764.1999 819.4323,-758.873 817.97,-767.523 817.97,-767.523"/>
<ellipse fill="none" stroke="#000000" cx="816.1887" cy="-770.1814" rx="3.2" ry="3.2"/>
</g>
<!-- ProfessorCompetencyAssignments&#45;&gt;TechnicalCareers -->
<g id="edge24" class="edge">
<title>ProfessorCompetencyAssignments:w&#45;&gt;TechnicalCareers:e</title>
<path fill="none" stroke="#000000" d="M830.3802,-677.4509C810.1729,-608.5821 764.1159,-483.4304 681,-411.3756 593.5959,-335.6031 540.8096,-373.1225 435,-326.3756 396.7959,-309.4969 394.2665,-281.3756 352.5,-281.3756"/>
<polygon fill="#000000" stroke="#000000" points="832.2296,-683.9628 830.9522,-692.642 833.3224,-687.8106 834.4152,-691.6584 834.4152,-691.6584 834.4152,-691.6584 833.3224,-687.8106 837.8783,-690.6749 832.2296,-683.9628 832.2296,-683.9628"/>
<ellipse fill="none" stroke="#000000" cx="831.3553" cy="-680.8845" rx="3.2" ry="3.2"/>
</g>
<!-- ProfessorCompetencyAssignments&#45;&gt;EvaluationPeriods -->
<g id="edge21" class="edge">
<title>ProfessorCompetencyAssignments:w&#45;&gt;EvaluationPeriods:e</title>
<path fill="none" stroke="#000000" d="M699.6512,-704.8117C693.3515,-703.9672 687.1127,-703.151 681,-702.3756 626.4659,-695.4572 478.6382,-709.8051 435,-676.3756 393.3941,-644.503 444.911,-566.3756 392.5,-566.3756"/>
<polygon fill="#000000" stroke="#000000" points="706.0393,-705.6825 713.4797,-710.3301 710.0026,-706.2228 713.966,-706.7631 713.966,-706.7631 713.966,-706.7631 710.0026,-706.2228 714.4523,-703.1961 706.0393,-705.6825 706.0393,-705.6825"/>
<ellipse fill="none" stroke="#000000" cx="702.8686" cy="-705.2502" rx="3.2" ry="3.2"/>
</g>
<!-- Professors -->
<g id="node14" class="node">
<title>Professors</title>
<g id="a_node14"><a xlink:href="../../tables/Professors.html" xlink:title="Professors" target="_top">
<polygon fill="#ffffff" stroke="transparent" points="232,-662.8756 232,-723.8756 333,-723.8756 333,-662.8756 232,-662.8756"/>
<polygon fill="#f5f5f5" stroke="transparent" points="232.5,-700.3756 232.5,-723.3756 333.5,-723.3756 333.5,-700.3756 232.5,-700.3756"/>
<polygon fill="none" stroke="#000000" points="232.5,-700.3756 232.5,-723.3756 333.5,-723.3756 333.5,-700.3756 232.5,-700.3756"/>
<text text-anchor="start" x="237.5" y="-708.9756" font-family="Helvetica,sans-Serif" font-weight="bold" font-size="11.00" fill="#000000">Professors</text>
<text text-anchor="start" x="299.0219" y="-708.4756" font-family="Helvetica,sans-Serif" font-size="11.00" fill="#000000">[table]</text>
<polygon fill="none" stroke="#000000" points="232.5,-681.3756 232.5,-700.3756 333.5,-700.3756 333.5,-681.3756 232.5,-681.3756"/>
<text text-anchor="start" x="235.5" y="-687.4756" font-family="Helvetica,sans-Serif" font-size="11.00" fill="#000000">...</text>
<polygon fill="#ffffff" stroke="transparent" points="232.5,-662.3756 232.5,-681.3756 263.5,-681.3756 263.5,-662.3756 232.5,-662.3756"/>
<polygon fill="none" stroke="#000000" points="232.5,-662.3756 232.5,-681.3756 263.5,-681.3756 263.5,-662.3756 232.5,-662.3756"/>
<text text-anchor="start" x="235.5" y="-668.4756" font-family="Helvetica,sans-Serif" font-size="11.00" fill="#000000">&lt; 1</text>
<polygon fill="#ffffff" stroke="transparent" points="263.5,-662.3756 263.5,-681.3756 306.5,-681.3756 306.5,-662.3756 263.5,-662.3756"/>
<polygon fill="none" stroke="#000000" points="263.5,-662.3756 263.5,-681.3756 306.5,-681.3756 306.5,-662.3756 263.5,-662.3756"/>
<text text-anchor="start" x="271.1105" y="-668.4756" font-family="Helvetica,sans-Serif" font-size="11.00" fill="#000000">0 rows</text>
<polygon fill="#ffffff" stroke="transparent" points="306.5,-662.3756 306.5,-681.3756 333.5,-681.3756 333.5,-662.3756 306.5,-662.3756"/>
<polygon fill="none" stroke="#000000" points="306.5,-662.3756 306.5,-681.3756 333.5,-681.3756 333.5,-662.3756 306.5,-662.3756"/>
<text text-anchor="start" x="314.9053" y="-668.4756" font-family="Helvetica,sans-Serif" font-size="11.00" fill="#000000">2 &gt;</text>
</a>
</g>
</g>
<!-- ProfessorCompetencyAssignments&#45;&gt;Professors -->
<g id="edge22" class="edge">
<title>ProfessorCompetencyAssignments:w&#45;&gt;Professors:e</title>
<path fill="none" stroke="#000000" d="M698.9477,-719.1952C620.7877,-714.8846 522.523,-708.7956 435,-701.3756 389.7869,-697.5425 378.8753,-690.3756 333.5,-690.3756"/>
<polygon fill="#000000" stroke="#000000" points="705.8129,-719.5701 713.6046,-723.601 709.8069,-719.7882 713.801,-720.0064 713.801,-720.0064 713.801,-720.0064 709.8069,-719.7882 713.9973,-716.4117 705.8129,-719.5701 705.8129,-719.5701"/>
<ellipse fill="none" stroke="#000000" cx="702.6176" cy="-719.3956" rx="3.2" ry="3.2"/>
</g>
<!-- Subjects -->
<g id="node15" class="node">
<title>Subjects</title>
<g id="a_node15"><a xlink:href="../../tables/Subjects.html" xlink:title="Subjects" target="_top">
<polygon fill="#ffffff" stroke="transparent" points="513.5,-604.8756 513.5,-665.8756 602.5,-665.8756 602.5,-604.8756 513.5,-604.8756"/>
<polygon fill="#f5f5f5" stroke="transparent" points="514,-642.3756 514,-665.3756 603,-665.3756 603,-642.3756 514,-642.3756"/>
<polygon fill="none" stroke="#000000" points="514,-642.3756 514,-665.3756 603,-665.3756 603,-642.3756 514,-642.3756"/>
<text text-anchor="start" x="519" y="-650.9756" font-family="Helvetica,sans-Serif" font-weight="bold" font-size="11.00" fill="#000000">Subjects</text>
<text text-anchor="start" x="568.5219" y="-650.4756" font-family="Helvetica,sans-Serif" font-size="11.00" fill="#000000">[table]</text>
<polygon fill="none" stroke="#000000" points="514,-623.3756 514,-642.3756 603,-642.3756 603,-623.3756 514,-623.3756"/>
<text text-anchor="start" x="517" y="-629.4756" font-family="Helvetica,sans-Serif" font-size="11.00" fill="#000000">...</text>
<polygon fill="#ffffff" stroke="transparent" points="514,-604.3756 514,-623.3756 539,-623.3756 539,-604.3756 514,-604.3756"/>
<polygon fill="none" stroke="#000000" points="514,-604.3756 514,-623.3756 539,-623.3756 539,-604.3756 514,-604.3756"/>
<text text-anchor="start" x="517" y="-610.4756" font-family="Helvetica,sans-Serif" font-size="11.00" fill="#000000">&lt; 4</text>
<polygon fill="#ffffff" stroke="transparent" points="539,-604.3756 539,-623.3756 579,-623.3756 579,-604.3756 539,-604.3756"/>
<polygon fill="none" stroke="#000000" points="539,-604.3756 539,-623.3756 579,-623.3756 579,-604.3756 539,-604.3756"/>
<text text-anchor="start" x="543.6105" y="-610.4756" font-family="Helvetica,sans-Serif" font-size="11.00" fill="#000000">0 rows</text>
<polygon fill="#ffffff" stroke="transparent" points="579,-604.3756 579,-623.3756 603,-623.3756 603,-604.3756 579,-604.3756"/>
<polygon fill="none" stroke="#000000" points="579,-604.3756 579,-623.3756 603,-623.3756 603,-604.3756 579,-604.3756"/>
<text text-anchor="start" x="584.4053" y="-610.4756" font-family="Helvetica,sans-Serif" font-size="11.00" fill="#000000">3 &gt;</text>
</a>
</g>
</g>
<!-- ProfessorCompetencyAssignments&#45;&gt;Subjects -->
<g id="edge23" class="edge">
<title>ProfessorCompetencyAssignments:w&#45;&gt;Subjects:e</title>
<path fill="none" stroke="#000000" d="M758.594,-685.7261C702.7339,-660.3125 634.2259,-632.3756 603,-632.3756"/>
<polygon fill="#000000" stroke="#000000" points="764.4895,-688.4343 770.2563,-695.0452 768.1243,-690.1041 771.7591,-691.7739 771.7591,-691.7739 771.7591,-691.7739 768.1243,-690.1041 773.2619,-688.5026 764.4895,-688.4343 764.4895,-688.4343"/>
<ellipse fill="none" stroke="#000000" cx="761.5816" cy="-687.0985" rx="3.2" ry="3.2"/>
</g>
<!-- Professors&#45;&gt;AspNetUsers -->
<g id="edge26" class="edge">
<title>Professors:w&#45;&gt;AspNetUsers:e</title>
<path fill="none" stroke="#000000" d="M221.8665,-690.7414C187.5029,-693.0633 152.4306,-706.0871 124.1881,-719.7532"/>
<polygon fill="#000000" stroke="#000000" points="231.5629,-686.4054 231.8381,-694.4007 230.239,-694.4557 229.9638,-686.4605 231.5629,-686.4054"/>
<polyline fill="none" stroke="#000000" points="232.5,-690.3756 228.5024,-690.5131 "/>
<ellipse fill="none" stroke="#000000" cx="225.3043" cy="-690.6232" rx="3.2" ry="3.2"/>
</g>
<!-- Subjects&#45;&gt;AspNetUsers -->
<g id="edge46" class="edge">
<title>Subjects:w&#45;&gt;AspNetUsers:e</title>
<path fill="none" stroke="#000000" d="M499.2094,-631.6781C354.2516,-623.5706 300.3785,-583.1784 163,-646.3756 129.4237,-661.8214 101.4555,-694.3591 84.106,-719.7731"/>
<polygon fill="#000000" stroke="#000000" points="506.0089,-631.9987 513.8304,-635.9716 510.0044,-632.1871 514,-632.3756 514,-632.3756 514,-632.3756 510.0044,-632.1871 514.1696,-628.7796 506.0089,-631.9987 506.0089,-631.9987"/>
<ellipse fill="none" stroke="#000000" cx="502.8124" cy="-631.8479" rx="3.2" ry="3.2"/>
</g>
<!-- Subjects&#45;&gt;AspNetUsers -->
<g id="edge49" class="edge">
<title>Subjects:w&#45;&gt;AspNetUsers:e</title>
<path fill="none" stroke="#000000" d="M499.2094,-632.8948C354.2516,-636.5706 300.3785,-596.1784 163,-659.3756 134.2203,-672.6148 109.5609,-698.4114 92.177,-719.8525"/>
<polygon fill="#000000" stroke="#000000" points="506.0049,-632.6563 514.1263,-635.9733 510.0025,-632.5159 514,-632.3756 514,-632.3756 514,-632.3756 510.0025,-632.5159 513.8737,-628.7778 506.0049,-632.6563 506.0049,-632.6563"/>
<ellipse fill="none" stroke="#000000" cx="502.8069" cy="-632.7686" rx="3.2" ry="3.2"/>
</g>
<!-- Subjects&#45;&gt;TechnicalCareers -->
<g id="edge48" class="edge">
<title>Subjects:w&#45;&gt;TechnicalCareers:e</title>
<path fill="none" stroke="#000000" d="M499.357,-631.43C352.971,-611.4453 519.0223,-281.3756 352.5,-281.3756"/>
<polygon fill="#000000" stroke="#000000" points="506.0166,-631.86 513.768,-635.9681 510.0083,-632.1178 514,-632.3756 514,-632.3756 514,-632.3756 510.0083,-632.1178 514.232,-628.783 506.0166,-631.86 506.0166,-631.86"/>
<ellipse fill="none" stroke="#000000" cx="502.8233" cy="-631.6538" rx="3.2" ry="3.2"/>
</g>
<!-- Subjects&#45;&gt;Professors -->
<g id="edge47" class="edge">
<title>Subjects:w&#45;&gt;Professors:e</title>
<path fill="none" stroke="#000000" d="M499.4575,-632.9877C428.0227,-639.1864 412.6603,-690.3756 333.5,-690.3756"/>
<polygon fill="#000000" stroke="#000000" points="506.0071,-632.7121 514.1514,-635.9724 510.0035,-632.5438 514,-632.3756 514,-632.3756 514,-632.3756 510.0035,-632.5438 513.8486,-628.7787 506.0071,-632.7121 506.0071,-632.7121"/>
<ellipse fill="none" stroke="#000000" cx="502.8099" cy="-632.8467" rx="3.2" ry="3.2"/>
</g>
<!-- QuestionResponses -->
<g id="node16" class="node">
<title>QuestionResponses</title>
<g id="a_node16"><a xlink:href="../../tables/QuestionResponses.html" xlink:title="QuestionResponses" target="_top">
<polygon fill="#ffffff" stroke="transparent" points="1285,-889.8756 1285,-950.8756 1440,-950.8756 1440,-889.8756 1285,-889.8756"/>
<polygon fill="#f5f5f5" stroke="transparent" points="1285.5,-927.3756 1285.5,-950.3756 1440.5,-950.3756 1440.5,-927.3756 1285.5,-927.3756"/>
<polygon fill="none" stroke="#000000" points="1285.5,-927.3756 1285.5,-950.3756 1440.5,-950.3756 1440.5,-927.3756 1285.5,-927.3756"/>
<text text-anchor="start" x="1290.5" y="-935.9756" font-family="Helvetica,sans-Serif" font-weight="bold" font-size="11.00" fill="#000000">QuestionResponses</text>
<text text-anchor="start" x="1406.0219" y="-935.4756" font-family="Helvetica,sans-Serif" font-size="11.00" fill="#000000">[table]</text>
<polygon fill="none" stroke="#000000" points="1285.5,-908.3756 1285.5,-927.3756 1440.5,-927.3756 1440.5,-908.3756 1285.5,-908.3756"/>
<text text-anchor="start" x="1288.5" y="-914.4756" font-family="Helvetica,sans-Serif" font-size="11.00" fill="#000000">...</text>
<polygon fill="#ffffff" stroke="transparent" points="1285.5,-889.3756 1285.5,-908.3756 1348.5,-908.3756 1348.5,-889.3756 1285.5,-889.3756"/>
<polygon fill="none" stroke="#000000" points="1285.5,-889.3756 1285.5,-908.3756 1348.5,-908.3756 1348.5,-889.3756 1285.5,-889.3756"/>
<text text-anchor="start" x="1288.5" y="-895.4756" font-family="Helvetica,sans-Serif" font-size="11.00" fill="#000000">&lt; 4</text>
<polygon fill="#ffffff" stroke="transparent" points="1348.5,-889.3756 1348.5,-908.3756 1407.5,-908.3756 1407.5,-889.3756 1348.5,-889.3756"/>
<polygon fill="none" stroke="#000000" points="1348.5,-889.3756 1348.5,-908.3756 1407.5,-908.3756 1407.5,-889.3756 1348.5,-889.3756"/>
<text text-anchor="start" x="1372.1105" y="-895.4756" font-family="Helvetica,sans-Serif" font-size="11.00" fill="#000000">0 rows</text>
<polygon fill="#ffffff" stroke="transparent" points="1407.5,-889.3756 1407.5,-908.3756 1440.5,-908.3756 1440.5,-889.3756 1407.5,-889.3756"/>
<polygon fill="none" stroke="#000000" points="1407.5,-889.3756 1407.5,-908.3756 1440.5,-908.3756 1440.5,-889.3756 1407.5,-889.3756"/>
<text text-anchor="start" x="1431.3862" y="-895.4756" font-family="Helvetica,sans-Serif" font-size="11.00" fill="#000000"> &#160;</text>
</a>
</g>
</g>
<!-- QuestionResponses&#45;&gt;AspNetUsers -->
<g id="edge27" class="edge">
<title>QuestionResponses:w&#45;&gt;AspNetUsers:e</title>
<path fill="none" stroke="#000000" d="M1270.8532,-917.057C1103.3349,-916.5022 266.7278,-990.0064 163,-928.3756 111.9158,-898.0234 85.7764,-830.6719 73.7756,-789.1757"/>
<polygon fill="#000000" stroke="#000000" points="1277.5019,-917.2016 1285.4217,-920.9747 1281.5009,-917.2886 1285.5,-917.3756 1285.5,-917.3756 1285.5,-917.3756 1281.5009,-917.2886 1285.5783,-913.7764 1277.5019,-917.2016 1277.5019,-917.2016"/>
<ellipse fill="none" stroke="#000000" cx="1274.3026" cy="-917.132" rx="3.2" ry="3.2"/>
</g>
<!-- QuestionResponses&#45;&gt;AspNetUsers -->
<g id="edge30" class="edge">
<title>QuestionResponses:w&#45;&gt;AspNetUsers:e</title>
<path fill="none" stroke="#000000" d="M1271.1064,-918.2747C1104.1797,-929.4279 266.7801,-1003.0376 163,-941.3756 108.2451,-908.8424 82.1486,-833.8016 71.4036,-789.2102"/>
<polygon fill="#000000" stroke="#000000" points="1277.5156,-917.8744 1285.7245,-920.9686 1281.5078,-917.625 1285.5,-917.3756 1285.5,-917.3756 1285.5,-917.3756 1281.5078,-917.625 1285.2755,-913.7826 1277.5156,-917.8744 1277.5156,-917.8744"/>
<ellipse fill="none" stroke="#000000" cx="1274.3218" cy="-918.0739" rx="3.2" ry="3.2"/>
</g>
<!-- QuestionResponses&#45;&gt;FormQuestions -->
<g id="edge28" class="edge">
<title>QuestionResponses:w&#45;&gt;FormQuestions:e</title>
<path fill="none" stroke="#000000" d="M1270.9251,-917.3216C986.7424,-915.2023 913.4245,-851.3756 622,-851.3756"/>
<polygon fill="#000000" stroke="#000000" points="1277.5001,-917.3459 1285.4866,-920.9755 1281.5,-917.3607 1285.5,-917.3756 1285.5,-917.3756 1285.5,-917.3756 1281.5,-917.3607 1285.5134,-913.7756 1277.5001,-917.3459 1277.5001,-917.3459"/>
<ellipse fill="none" stroke="#000000" cx="1274.3001" cy="-917.334" rx="3.2" ry="3.2"/>
</g>
<!-- StudentCompetencyEvaluations -->
<g id="node17" class="node">
<title>StudentCompetencyEvaluations</title>
<g id="a_node17"><a xlink:href="../../tables/StudentCompetencyEvaluations.html" xlink:title="StudentCompetencyEvaluations" target="_top">
<polygon fill="#ffffff" stroke="transparent" points="1013,-747.8756 1013,-808.8756 1236,-808.8756 1236,-747.8756 1013,-747.8756"/>
<polygon fill="#f5f5f5" stroke="transparent" points="1013.5,-785.3756 1013.5,-808.3756 1236.5,-808.3756 1236.5,-785.3756 1013.5,-785.3756"/>
<polygon fill="none" stroke="#000000" points="1013.5,-785.3756 1013.5,-808.3756 1236.5,-808.3756 1236.5,-785.3756 1013.5,-785.3756"/>
<text text-anchor="start" x="1018.5" y="-793.9756" font-family="Helvetica,sans-Serif" font-weight="bold" font-size="11.00" fill="#000000">StudentCompetencyEvaluations</text>
<text text-anchor="start" x="1202.0219" y="-793.4756" font-family="Helvetica,sans-Serif" font-size="11.00" fill="#000000">[table]</text>
<polygon fill="none" stroke="#000000" points="1013.5,-766.3756 1013.5,-785.3756 1236.5,-785.3756 1236.5,-766.3756 1013.5,-766.3756"/>
<text text-anchor="start" x="1016.5" y="-772.4756" font-family="Helvetica,sans-Serif" font-size="11.00" fill="#000000">...</text>
<polygon fill="#ffffff" stroke="transparent" points="1013.5,-747.3756 1013.5,-766.3756 1105.5,-766.3756 1105.5,-747.3756 1013.5,-747.3756"/>
<polygon fill="none" stroke="#000000" points="1013.5,-747.3756 1013.5,-766.3756 1105.5,-766.3756 1105.5,-747.3756 1013.5,-747.3756"/>
<text text-anchor="start" x="1016.5" y="-753.4756" font-family="Helvetica,sans-Serif" font-size="11.00" fill="#000000">&lt; 5</text>
<polygon fill="#ffffff" stroke="transparent" points="1105.5,-747.3756 1105.5,-766.3756 1179.5,-766.3756 1179.5,-747.3756 1105.5,-747.3756"/>
<polygon fill="none" stroke="#000000" points="1105.5,-747.3756 1105.5,-766.3756 1179.5,-766.3756 1179.5,-747.3756 1105.5,-747.3756"/>
<text text-anchor="start" x="1144.1105" y="-753.4756" font-family="Helvetica,sans-Serif" font-size="11.00" fill="#000000">0 rows</text>
<polygon fill="#ffffff" stroke="transparent" points="1179.5,-747.3756 1179.5,-766.3756 1236.5,-766.3756 1236.5,-747.3756 1179.5,-747.3756"/>
<polygon fill="none" stroke="#000000" points="1179.5,-747.3756 1179.5,-766.3756 1236.5,-766.3756 1236.5,-747.3756 1179.5,-747.3756"/>
<text text-anchor="start" x="1217.9053" y="-753.4756" font-family="Helvetica,sans-Serif" font-size="11.00" fill="#000000">1 &gt;</text>
</a>
</g>
</g>
<!-- QuestionResponses&#45;&gt;StudentCompetencyEvaluations -->
<g id="edge29" class="edge">
<title>QuestionResponses:w&#45;&gt;StudentCompetencyEvaluations:e</title>
<path fill="none" stroke="#000000" d="M1270.9494,-914.1429C1232.7041,-893.0061 1297.2647,-775.3756 1236.5,-775.3756"/>
<polygon fill="#000000" stroke="#000000" points="1277.6904,-915.6405 1284.7192,-920.8899 1281.5952,-916.508 1285.5,-917.3756 1285.5,-917.3756 1285.5,-917.3756 1281.5952,-916.508 1286.2808,-913.8613 1277.6904,-915.6405 1277.6904,-915.6405"/>
<ellipse fill="none" stroke="#000000" cx="1274.5666" cy="-914.9464" rx="3.2" ry="3.2"/>
</g>
<!-- StudentCompetencyEvaluations&#45;&gt;AspNetUsers -->
<g id="edge31" class="edge">
<title>StudentCompetencyEvaluations:w&#45;&gt;AspNetUsers:e</title>
<path fill="none" stroke="#000000" d="M998.9662,-775.1496C632.9578,-769.5771 535.6251,-777.085 163,-757.3756 152.3365,-756.8115 141.0385,-755.9865 130.0515,-755.1488"/>
<polygon fill="#000000" stroke="#000000" points="1005.501,-775.2511 1013.444,-778.9751 1009.5005,-775.3133 1013.5,-775.3756 1013.5,-775.3756 1013.5,-775.3756 1009.5005,-775.3133 1013.556,-771.776 1005.501,-775.2511 1005.501,-775.2511"/>
<ellipse fill="none" stroke="#000000" cx="1002.3014" cy="-775.2014" rx="3.2" ry="3.2"/>
</g>
<!-- StudentCompetencyEvaluations&#45;&gt;AspNetUsers -->
<g id="edge35" class="edge">
<title>StudentCompetencyEvaluations:w&#45;&gt;AspNetUsers:e</title>
<path fill="none" stroke="#000000" d="M998.9662,-775.6477C632.9578,-782.5771 535.6251,-790.085 163,-770.3756 152.3365,-769.8115 141.0385,-768.9865 130.0515,-767.9596"/>
<polygon fill="#000000" stroke="#000000" points="1005.5014,-775.5254 1013.5674,-778.9749 1009.5007,-775.4505 1013.5,-775.3756 1013.5,-775.3756 1013.5,-775.3756 1009.5007,-775.4505 1013.4326,-771.7762 1005.5014,-775.5254 1005.5014,-775.5254"/>
<ellipse fill="none" stroke="#000000" cx="1002.302" cy="-775.5853" rx="3.2" ry="3.2"/>
</g>
<!-- StudentCompetencyEvaluations&#45;&gt;ProfessorCompetencyAssignments -->
<g id="edge32" class="edge">
<title>StudentCompetencyEvaluations:w&#45;&gt;ProfessorCompetencyAssignments:e</title>
<path fill="none" stroke="#000000" d="M999.1048,-774.8615C975.1806,-773.1994 950.675,-767.6853 928.3805,-760.939"/>
<polygon fill="#000000" stroke="#000000" points="1005.5051,-775.09 1013.3715,-778.9733 1009.5025,-775.2328 1013.5,-775.3756 1013.5,-775.3756 1013.5,-775.3756 1009.5025,-775.2328 1013.6285,-771.7779 1005.5051,-775.09 1005.5051,-775.09"/>
<ellipse fill="none" stroke="#000000" cx="1002.3071" cy="-774.9758" rx="3.2" ry="3.2"/>
</g>
<!-- StudentCompetencyEvaluations&#45;&gt;Subjects -->
<g id="edge34" class="edge">
<title>StudentCompetencyEvaluations:w&#45;&gt;Subjects:e</title>
<path fill="none" stroke="#000000" d="M999.3454,-771.8792C978.6534,-758.2067 1002.3463,-708.0027 972,-685.3756 839.1755,-586.3376 768.683,-632.3756 603,-632.3756"/>
<polygon fill="#000000" stroke="#000000" points="1005.7334,-773.4571 1012.6367,-778.8705 1009.6167,-774.4163 1013.5,-775.3756 1013.5,-775.3756 1013.5,-775.3756 1009.6167,-774.4163 1014.3633,-771.8806 1005.7334,-773.4571 1005.7334,-773.4571"/>
<ellipse fill="none" stroke="#000000" cx="1002.6268" cy="-772.6897" rx="3.2" ry="3.2"/>
</g>
<!-- Students -->
<g id="node18" class="node">
<title>Students</title>
<g id="a_node18"><a xlink:href="../../tables/Students.html" xlink:title="Students" target="_top">
<polygon fill="#ffffff" stroke="transparent" points="513,-132.8756 513,-193.8756 603,-193.8756 603,-132.8756 513,-132.8756"/>
<polygon fill="#f5f5f5" stroke="transparent" points="513,-170.3756 513,-193.3756 603,-193.3756 603,-170.3756 513,-170.3756"/>
<polygon fill="none" stroke="#000000" points="513,-170.3756 513,-193.3756 603,-193.3756 603,-170.3756 513,-170.3756"/>
<text text-anchor="start" x="518" y="-178.9756" font-family="Helvetica,sans-Serif" font-weight="bold" font-size="11.00" fill="#000000">Students</text>
<text text-anchor="start" x="568.5219" y="-178.4756" font-family="Helvetica,sans-Serif" font-size="11.00" fill="#000000">[table]</text>
<polygon fill="none" stroke="#000000" points="513,-151.3756 513,-170.3756 603,-170.3756 603,-151.3756 513,-151.3756"/>
<text text-anchor="start" x="516" y="-157.4756" font-family="Helvetica,sans-Serif" font-size="11.00" fill="#000000">...</text>
<polygon fill="#ffffff" stroke="transparent" points="513,-132.3756 513,-151.3756 539,-151.3756 539,-132.3756 513,-132.3756"/>
<polygon fill="none" stroke="#000000" points="513,-132.3756 513,-151.3756 539,-151.3756 539,-132.3756 513,-132.3756"/>
<text text-anchor="start" x="516" y="-138.4756" font-family="Helvetica,sans-Serif" font-size="11.00" fill="#000000">&lt; 2</text>
<polygon fill="#ffffff" stroke="transparent" points="539,-132.3756 539,-151.3756 579,-151.3756 579,-132.3756 539,-132.3756"/>
<polygon fill="none" stroke="#000000" points="539,-132.3756 539,-151.3756 579,-151.3756 579,-132.3756 539,-132.3756"/>
<text text-anchor="start" x="543.6105" y="-138.4756" font-family="Helvetica,sans-Serif" font-size="11.00" fill="#000000">0 rows</text>
<polygon fill="#ffffff" stroke="transparent" points="579,-132.3756 579,-151.3756 603,-151.3756 603,-132.3756 579,-132.3756"/>
<polygon fill="none" stroke="#000000" points="579,-132.3756 579,-151.3756 603,-151.3756 603,-132.3756 579,-132.3756"/>
<text text-anchor="start" x="584.4053" y="-138.4756" font-family="Helvetica,sans-Serif" font-size="11.00" fill="#000000">3 &gt;</text>
</a>
</g>
</g>
<!-- StudentCompetencyEvaluations&#45;&gt;Students -->
<g id="edge33" class="edge">
<title>StudentCompetencyEvaluations:w&#45;&gt;Students:e</title>
<path fill="none" stroke="#000000" d="M1001.2575,-767.2226C957.2415,-699.1324 1015.4236,-226.4645 972,-183.3756 913.6804,-125.5055 685.1591,-160.3756 603,-160.3756"/>
<polygon fill="#000000" stroke="#000000" points="1006.8414,-770.9412 1011.5045,-778.3719 1010.1707,-773.1584 1013.5,-775.3756 1013.5,-775.3756 1013.5,-775.3756 1010.1707,-773.1584 1015.4955,-772.3792 1006.8414,-770.9412 1006.8414,-770.9412"/>
<ellipse fill="none" stroke="#000000" cx="1004.178" cy="-769.1675" rx="3.2" ry="3.2"/>
</g>
<!-- Students&#45;&gt;AspNetUsers -->
<g id="edge41" class="edge">
<title>Students:w&#45;&gt;AspNetUsers:e</title>
<path fill="none" stroke="#000000" d="M502.1714,-160.2409C353.5124,-156.549 276.446,-78.9757 163,-180.3756 82.1609,-252.6309 67.9885,-606.7849 65.5179,-719.7095"/>
<polygon fill="#000000" stroke="#000000" points="512.2498,-156.3659 512.1503,-164.3653 510.5504,-164.3454 510.65,-156.346 512.2498,-156.3659"/>
<polyline fill="none" stroke="#000000" points="513,-160.3756 509.0003,-160.3258 "/>
<ellipse fill="none" stroke="#000000" cx="505.8006" cy="-160.286" rx="3.2" ry="3.2"/>
</g>
<!-- Students&#45;&gt;TechnicalCareers -->
<g id="edge40" class="edge">
<title>Students:w&#45;&gt;TechnicalCareers:e</title>
<path fill="none" stroke="#000000" d="M498.3608,-161.5731C425.4263,-174.1398 436.5992,-281.3756 352.5,-281.3756"/>
<polygon fill="#000000" stroke="#000000" points="505.0266,-161.0279 513.2935,-163.9636 509.0133,-160.7017 513,-160.3756 513,-160.3756 513,-160.3756 509.0133,-160.7017 512.7065,-156.7876 505.0266,-161.0279 505.0266,-161.0279"/>
<ellipse fill="none" stroke="#000000" cx="501.8373" cy="-161.2888" rx="3.2" ry="3.2"/>
</g>
<!-- StudentEvaluationReport -->
<g id="node19" class="node">
<title>StudentEvaluationReport</title>
<g id="a_node19"><a xlink:href="../../tables/StudentEvaluationReport.html" xlink:title="StudentEvaluationReport" target="_top">
<polygon fill="#ffffff" stroke="transparent" points="751.5,-193.8756 751.5,-254.8756 934.5,-254.8756 934.5,-193.8756 751.5,-193.8756"/>
<polygon fill="#f5f5f5" stroke="transparent" points="752,-231.3756 752,-254.3756 935,-254.3756 935,-231.3756 752,-231.3756"/>
<polygon fill="none" stroke="#000000" points="752,-231.3756 752,-254.3756 935,-254.3756 935,-231.3756 752,-231.3756"/>
<text text-anchor="start" x="757" y="-239.9756" font-family="Helvetica,sans-Serif" font-weight="bold" font-size="11.00" fill="#000000">StudentEvaluationReport</text>
<text text-anchor="start" x="900.5219" y="-239.4756" font-family="Helvetica,sans-Serif" font-size="11.00" fill="#000000">[table]</text>
<polygon fill="none" stroke="#000000" points="752,-212.3756 752,-231.3756 935,-231.3756 935,-212.3756 752,-212.3756"/>
<text text-anchor="start" x="755" y="-218.4756" font-family="Helvetica,sans-Serif" font-size="11.00" fill="#000000">...</text>
<polygon fill="#ffffff" stroke="transparent" points="752,-193.3756 752,-212.3756 829,-212.3756 829,-193.3756 752,-193.3756"/>
<polygon fill="none" stroke="#000000" points="752,-193.3756 752,-212.3756 829,-212.3756 829,-193.3756 752,-193.3756"/>
<text text-anchor="start" x="755" y="-199.4756" font-family="Helvetica,sans-Serif" font-size="11.00" fill="#000000">&lt; 4</text>
<polygon fill="#ffffff" stroke="transparent" points="829,-193.3756 829,-212.3756 895,-212.3756 895,-193.3756 829,-193.3756"/>
<polygon fill="none" stroke="#000000" points="829,-193.3756 829,-212.3756 895,-212.3756 895,-193.3756 829,-193.3756"/>
<text text-anchor="start" x="859.6105" y="-199.4756" font-family="Helvetica,sans-Serif" font-size="11.00" fill="#000000">0 rows</text>
<polygon fill="#ffffff" stroke="transparent" points="895,-193.3756 895,-212.3756 935,-212.3756 935,-193.3756 895,-193.3756"/>
<polygon fill="none" stroke="#000000" points="895,-193.3756 895,-212.3756 935,-212.3756 935,-193.3756 895,-193.3756"/>
<text text-anchor="start" x="925.8862" y="-199.4756" font-family="Helvetica,sans-Serif" font-size="11.00" fill="#000000"> &#160;</text>
</a>
</g>
</g>
<!-- StudentEvaluationReport&#45;&gt;AspNetUsers -->
<g id="edge36" class="edge">
<title>StudentEvaluationReport:w&#45;&gt;AspNetUsers:e</title>
<path fill="none" stroke="#000000" d="M728.7172,-216.8055C540.6149,-208.4752 184.3101,-199.6385 163,-217.3756 85.7243,-281.6945 69.1438,-611.0232 65.7989,-719.637"/>
<polygon fill="#000000" stroke="#000000" points="735.3514,-217.1059 743.1803,-221.0641 739.3473,-217.2868 743.3432,-217.4678 743.3432,-217.4678 743.3432,-217.4678 739.3473,-217.2868 743.5061,-213.8715 735.3514,-217.1059 735.3514,-217.1059"/>
<ellipse fill="none" stroke="#000000" cx="732.1547" cy="-216.9611" rx="3.2" ry="3.2"/>
</g>
<!-- StudentEvaluationReport&#45;&gt;AspNetUsers -->
<g id="edge39" class="edge">
<title>StudentEvaluationReport:w&#45;&gt;AspNetUsers:e</title>
<path fill="none" stroke="#000000" d="M728.7172,-224.6663C540.6149,-221.4752 184.3101,-212.6385 163,-230.3756 86.9852,-293.645 69.7011,-613.3464 65.9734,-719.867"/>
<polygon fill="#000000" stroke="#000000" points="735.3443,-224.7758 743.2837,-228.5076 739.3437,-224.842 743.3432,-224.9081 743.3432,-224.9081 743.3432,-224.9081 739.3437,-224.842 743.4027,-221.3086 735.3443,-224.7758 735.3443,-224.7758"/>
<ellipse fill="none" stroke="#000000" cx="732.1447" cy="-224.7229" rx="3.2" ry="3.2"/>
</g>
<!-- StudentEvaluationReport&#45;&gt;EvaluationPeriods -->
<g id="edge37" class="edge">
<title>StudentEvaluationReport:w&#45;&gt;EvaluationPeriods:e</title>
<path fill="none" stroke="#000000" d="M830.4835,-273.4157C810.6952,-340.2875 765.4617,-458.5838 681,-518.3756 574.9083,-593.4795 522.4848,-566.3756 392.5,-566.3756"/>
<polygon fill="#000000" stroke="#000000" points="832.35,-266.8668 838.0048,-260.1598 833.4463,-263.0199 834.5427,-259.1731 834.5427,-259.1731 834.5427,-259.1731 833.4463,-263.0199 831.0805,-258.1864 832.35,-266.8668 832.35,-266.8668"/>
<ellipse fill="none" stroke="#000000" cx="831.4729" cy="-269.9442" rx="3.2" ry="3.2"/>
</g>
<!-- StudentEvaluationReport&#45;&gt;Students -->
<g id="edge38" class="edge">
<title>StudentEvaluationReport:w&#45;&gt;Students:e</title>
<path fill="none" stroke="#000000" d="M743.1742,-185.3661C700.6501,-172.0148 650.0781,-160.3756 603,-160.3756"/>
<polygon fill="#000000" stroke="#000000" points="749.3672,-187.3765 755.8647,-193.2708 753.1717,-188.6116 756.9763,-189.8467 756.9763,-189.8467 756.9763,-189.8467 753.1717,-188.6116 758.0879,-186.4226 749.3672,-187.3765 749.3672,-187.3765"/>
<ellipse fill="none" stroke="#000000" cx="746.3236" cy="-186.3884" rx="3.2" ry="3.2"/>
</g>
<!-- StudentSubjects -->
<g id="node20" class="node">
<title>StudentSubjects</title>
<g id="a_node20"><a xlink:href="../../tables/StudentSubjects.html" xlink:title="StudentSubjects" target="_top">
<polygon fill="#ffffff" stroke="transparent" points="776.5,-77.8756 776.5,-138.8756 909.5,-138.8756 909.5,-77.8756 776.5,-77.8756"/>
<polygon fill="#f5f5f5" stroke="transparent" points="777,-115.3756 777,-138.3756 910,-138.3756 910,-115.3756 777,-115.3756"/>
<polygon fill="none" stroke="#000000" points="777,-115.3756 777,-138.3756 910,-138.3756 910,-115.3756 777,-115.3756"/>
<text text-anchor="start" x="782" y="-123.9756" font-family="Helvetica,sans-Serif" font-weight="bold" font-size="11.00" fill="#000000">StudentSubjects</text>
<text text-anchor="start" x="875.5219" y="-123.4756" font-family="Helvetica,sans-Serif" font-size="11.00" fill="#000000">[table]</text>
<polygon fill="none" stroke="#000000" points="777,-96.3756 777,-115.3756 910,-115.3756 910,-96.3756 777,-96.3756"/>
<text text-anchor="start" x="780" y="-102.4756" font-family="Helvetica,sans-Serif" font-size="11.00" fill="#000000">...</text>
<polygon fill="#ffffff" stroke="transparent" points="777,-77.3756 777,-96.3756 829,-96.3756 829,-77.3756 777,-77.3756"/>
<polygon fill="none" stroke="#000000" points="777,-77.3756 777,-96.3756 829,-96.3756 829,-77.3756 777,-77.3756"/>
<text text-anchor="start" x="780" y="-83.4756" font-family="Helvetica,sans-Serif" font-size="11.00" fill="#000000">&lt; 4</text>
<polygon fill="#ffffff" stroke="transparent" points="829,-77.3756 829,-96.3756 882,-96.3756 882,-77.3756 829,-77.3756"/>
<polygon fill="none" stroke="#000000" points="829,-77.3756 829,-96.3756 882,-96.3756 882,-77.3756 829,-77.3756"/>
<text text-anchor="start" x="846.6105" y="-83.4756" font-family="Helvetica,sans-Serif" font-size="11.00" fill="#000000">0 rows</text>
<polygon fill="#ffffff" stroke="transparent" points="882,-77.3756 882,-96.3756 910,-96.3756 910,-77.3756 882,-77.3756"/>
<polygon fill="none" stroke="#000000" points="882,-77.3756 882,-96.3756 910,-96.3756 910,-77.3756 882,-77.3756"/>
<text text-anchor="start" x="900.8862" y="-83.4756" font-family="Helvetica,sans-Serif" font-size="11.00" fill="#000000"> &#160;</text>
</a>
</g>
</g>
<!-- StudentSubjects&#45;&gt;AspNetUsers -->
<g id="edge42" class="edge">
<title>StudentSubjects:w&#45;&gt;AspNetUsers:e</title>
<path fill="none" stroke="#000000" d="M762.3334,-104.9024C498.994,-93.7025 363.668,57.4396 163,-120.3756 117.7313,-160.4889 78.1201,-592.5296 67.6802,-719.5151"/>
<polygon fill="#000000" stroke="#000000" points="769.0042,-105.1176 776.8839,-108.9737 773.0021,-105.2466 777,-105.3756 777,-105.3756 777,-105.3756 773.0021,-105.2466 777.1161,-101.7774 769.0042,-105.1176 769.0042,-105.1176"/>
<ellipse fill="none" stroke="#000000" cx="765.8058" cy="-105.0144" rx="3.2" ry="3.2"/>
</g>
<!-- StudentSubjects&#45;&gt;AspNetUsers -->
<g id="edge45" class="edge">
<title>StudentSubjects:w&#45;&gt;AspNetUsers:e</title>
<path fill="none" stroke="#000000" d="M762.3334,-105.5943C498.994,-106.7025 363.668,44.4396 163,-133.3756 118.2991,-172.9857 79.1146,-594.7533 68.0868,-719.7311"/>
<polygon fill="#000000" stroke="#000000" points="769.0009,-105.4949 777.0537,-108.9752 773.0004,-105.4353 777,-105.3756 777,-105.3756 777,-105.3756 773.0004,-105.4353 776.9463,-101.776 769.0009,-105.4949 769.0009,-105.4949"/>
<ellipse fill="none" stroke="#000000" cx="765.8012" cy="-105.5427" rx="3.2" ry="3.2"/>
</g>
<!-- StudentSubjects&#45;&gt;Subjects -->
<g id="edge44" class="edge">
<title>StudentSubjects:w&#45;&gt;Subjects:e</title>
<path fill="none" stroke="#000000" d="M762.6002,-106.9355C731.8386,-114.3449 728.847,-147.1329 714,-183.3756 657.286,-321.8188 732.1771,-377.7914 681,-518.3756 659.9998,-576.0633 664.3913,-632.3756 603,-632.3756"/>
<polygon fill="#000000" stroke="#000000" points="769.0465,-106.2372 777.3877,-108.9546 773.0233,-105.8064 777,-105.3756 777,-105.3756 777,-105.3756 773.0233,-105.8064 776.6123,-101.7965 769.0465,-106.2372 769.0465,-106.2372"/>
<ellipse fill="none" stroke="#000000" cx="765.8651" cy="-106.5819" rx="3.2" ry="3.2"/>
</g>
<!-- StudentSubjects&#45;&gt;Students -->
<g id="edge43" class="edge">
<title>StudentSubjects:w&#45;&gt;Students:e</title>
<path fill="none" stroke="#000000" d="M762.5713,-105.9932C694.1507,-112.0357 679.0357,-160.3756 603,-160.3756"/>
<polygon fill="#000000" stroke="#000000" points="769.0073,-105.7178 777.154,-108.9723 773.0037,-105.5467 777,-105.3756 777,-105.3756 777,-105.3756 773.0037,-105.5467 776.846,-101.7789 769.0073,-105.7178 769.0073,-105.7178"/>
<ellipse fill="none" stroke="#000000" cx="765.8102" cy="-105.8547" rx="3.2" ry="3.2"/>
</g>
</g>
</svg>
