<?xml version="1.0" encoding="UTF-8" standalone="no"?>
<!DOCTYPE svg PUBLIC "-//W3C//DTD SVG 1.1//EN"
 "http://www.w3.org/Graphics/SVG/1.1/DTD/svg11.dtd">
<!-- Generated by graphviz version 2.40.1 (20161225.0304)
 -->
<!-- Title: twoDegreesRelationshipsDiagram Pages: 1 -->
<svg width="921pt" height="624pt"
 viewBox="0.00 0.00 921.00 624.07" xmlns="http://www.w3.org/2000/svg" xmlns:xlink="http://www.w3.org/1999/xlink">
<g id="graph0" class="graph" transform="scale(1 1) rotate(0) translate(4 620.0713)">
<title>twoDegreesRelationshipsDiagram</title>
<polygon fill="#ffffff" stroke="transparent" points="-4,4 -4,-620.0713 917,-620.0713 917,4 -4,4"/>
<text text-anchor="middle" x="72.4936" y="-7.3" font-family="Helvetica,sans-Serif" font-size="11.00" fill="#000000">Generated by SchemaSpy</text>
<!-- CompetencyTechnicalCareer -->
<g id="node1" class="node">
<title>CompetencyTechnicalCareer</title>
<g id="a_node1"><a xlink:href="../../tables/CompetencyTechnicalCareer.html" xlink:title="CompetencyTechnicalCareer" target="_top">
<polygon fill="#ffffff" stroke="transparent" points="416,-202.2 416,-263.2 620,-263.2 620,-202.2 416,-202.2"/>
<polygon fill="#f5f5f5" stroke="transparent" points="416,-239.7 416,-262.7 620,-262.7 620,-239.7 416,-239.7"/>
<polygon fill="none" stroke="#000000" points="416,-239.7 416,-262.7 620,-262.7 620,-239.7 416,-239.7"/>
<text text-anchor="start" x="421" y="-248.3" font-family="Helvetica,sans-Serif" font-weight="bold" font-size="11.00" fill="#000000">CompetencyTechnicalCareer</text>
<text text-anchor="start" x="585.5219" y="-247.8" font-family="Helvetica,sans-Serif" font-size="11.00" fill="#000000">[table]</text>
<polygon fill="none" stroke="#000000" points="416,-220.7 416,-239.7 620,-239.7 620,-220.7 416,-220.7"/>
<text text-anchor="start" x="419" y="-226.8" font-family="Helvetica,sans-Serif" font-size="11.00" fill="#000000">...</text>
<polygon fill="#ffffff" stroke="transparent" points="416,-201.7 416,-220.7 503,-220.7 503,-201.7 416,-201.7"/>
<polygon fill="none" stroke="#000000" points="416,-201.7 416,-220.7 503,-220.7 503,-201.7 416,-201.7"/>
<text text-anchor="start" x="419" y="-207.8" font-family="Helvetica,sans-Serif" font-size="11.00" fill="#000000">&lt; 2</text>
<polygon fill="#ffffff" stroke="transparent" points="503,-201.7 503,-220.7 574,-220.7 574,-201.7 503,-201.7"/>
<polygon fill="none" stroke="#000000" points="503,-201.7 503,-220.7 574,-220.7 574,-201.7 503,-201.7"/>
<text text-anchor="start" x="538.6105" y="-207.8" font-family="Helvetica,sans-Serif" font-size="11.00" fill="#000000">0 rows</text>
<polygon fill="#ffffff" stroke="transparent" points="574,-201.7 574,-220.7 620,-220.7 620,-201.7 574,-201.7"/>
<polygon fill="none" stroke="#000000" points="574,-201.7 574,-220.7 620,-220.7 620,-201.7 574,-201.7"/>
<text text-anchor="start" x="610.8862" y="-207.8" font-family="Helvetica,sans-Serif" font-size="11.00" fill="#000000"> &#160;</text>
</a>
</g>
</g>
<!-- TechnicalCareers -->
<g id="node2" class="node">
<title>TechnicalCareers</title>
<g id="a_node2"><a xlink:href="../../tables/TechnicalCareers.html" xlink:title="TechnicalCareers" target="_top">
<polygon fill="#ffffff" stroke="transparent" points="173,-158.2 173,-285.2 312,-285.2 312,-158.2 173,-158.2"/>
<polygon fill="#f5f5f5" stroke="transparent" points="173.5,-261.7 173.5,-284.7 312.5,-284.7 312.5,-261.7 173.5,-261.7"/>
<polygon fill="none" stroke="#000000" points="173.5,-261.7 173.5,-284.7 312.5,-284.7 312.5,-261.7 173.5,-261.7"/>
<text text-anchor="start" x="178.5" y="-270.3" font-family="Helvetica,sans-Serif" font-weight="bold" font-size="11.00" fill="#000000">TechnicalCareers</text>
<text text-anchor="start" x="278.0219" y="-269.8" font-family="Helvetica,sans-Serif" font-size="11.00" fill="#000000">[table]</text>
<polygon fill="none" stroke="#000000" points="173.5,-239.7 173.5,-261.7 312.5,-261.7 312.5,-239.7 173.5,-239.7"/>
<image xlink:href="../../images/primaryKeys.png" width="11px" height="12px" preserveAspectRatio="xMinYMin meet" x="178.5" y="-256.7"/>
<text text-anchor="start" x="202.5" y="-246.8" font-family="Helvetica,sans-Serif" font-size="11.00" fill="#000000">Id</text>
<polygon fill="#ffffff" stroke="transparent" points="173.5,-217.7 173.5,-239.7 312.5,-239.7 312.5,-217.7 173.5,-217.7"/>
<polygon fill="none" stroke="#000000" points="173.5,-217.7 173.5,-239.7 312.5,-239.7 312.5,-217.7 173.5,-217.7"/>
<image xlink:href="../../images/foreignKeys.png" width="11px" height="12px" preserveAspectRatio="xMinYMin meet" x="178.5" y="-234.7"/>
<text text-anchor="start" x="202.5" y="-224.8" font-family="Helvetica,sans-Serif" font-size="11.00" fill="#000000">CreatedByUserId</text>
<polygon fill="#ffffff" stroke="transparent" points="173.5,-195.7 173.5,-217.7 312.5,-217.7 312.5,-195.7 173.5,-195.7"/>
<polygon fill="none" stroke="#000000" points="173.5,-195.7 173.5,-217.7 312.5,-217.7 312.5,-195.7 173.5,-195.7"/>
<image xlink:href="../../images/foreignKeys.png" width="11px" height="12px" preserveAspectRatio="xMinYMin meet" x="178.5" y="-212.7"/>
<text text-anchor="start" x="202.5" y="-202.8" font-family="Helvetica,sans-Serif" font-size="11.00" fill="#000000">UpdatedByUserId</text>
<polygon fill="none" stroke="#000000" points="173.5,-176.7 173.5,-195.7 312.5,-195.7 312.5,-176.7 173.5,-176.7"/>
<text text-anchor="start" x="176.5" y="-182.8" font-family="Helvetica,sans-Serif" font-size="11.00" fill="#000000">...</text>
<polygon fill="#ffffff" stroke="transparent" points="173.5,-157.7 173.5,-176.7 223.5,-176.7 223.5,-157.7 173.5,-157.7"/>
<polygon fill="none" stroke="#000000" points="173.5,-157.7 173.5,-176.7 223.5,-176.7 223.5,-157.7 173.5,-157.7"/>
<text text-anchor="start" x="176.5" y="-163.8" font-family="Helvetica,sans-Serif" font-size="11.00" fill="#000000">&lt; 2</text>
<polygon fill="#ffffff" stroke="transparent" points="223.5,-157.7 223.5,-176.7 276.5,-176.7 276.5,-157.7 223.5,-157.7"/>
<polygon fill="none" stroke="#000000" points="223.5,-157.7 223.5,-176.7 276.5,-176.7 276.5,-157.7 223.5,-157.7"/>
<text text-anchor="start" x="241.1105" y="-163.8" font-family="Helvetica,sans-Serif" font-size="11.00" fill="#000000">0 rows</text>
<polygon fill="#ffffff" stroke="transparent" points="276.5,-157.7 276.5,-176.7 312.5,-176.7 312.5,-157.7 276.5,-157.7"/>
<polygon fill="none" stroke="#000000" points="276.5,-157.7 276.5,-176.7 312.5,-176.7 312.5,-157.7 276.5,-157.7"/>
<text text-anchor="start" x="293.9053" y="-163.8" font-family="Helvetica,sans-Serif" font-size="11.00" fill="#000000">6 &gt;</text>
</a>
</g>
</g>
<!-- CompetencyTechnicalCareer&#45;&gt;TechnicalCareers -->
<g id="edge1" class="edge">
<title>CompetencyTechnicalCareer:w&#45;&gt;TechnicalCareers:e</title>
<path fill="none" stroke="#000000" d="M401.3766,-230.4474C366.4031,-234.1883 354.1202,-250.7 312.5,-250.7"/>
<polygon fill="#000000" stroke="#000000" points="408.0104,-230.1084 416.1838,-233.2953 412.0052,-229.9042 416,-229.7 416,-229.7 416,-229.7 412.0052,-229.9042 415.8162,-226.1047 408.0104,-230.1084 408.0104,-230.1084"/>
<ellipse fill="none" stroke="#000000" cx="404.8146" cy="-230.2718" rx="3.2" ry="3.2"/>
</g>
<!-- AspNetUsers -->
<g id="node4" class="node">
<title>AspNetUsers</title>
<g id="a_node4"><a xlink:href="../../tables/AspNetUsers.html" xlink:title="AspNetUsers" target="_top">
<polygon fill="#ffffff" stroke="transparent" points="8,-338.2 8,-399.2 122,-399.2 122,-338.2 8,-338.2"/>
<polygon fill="#f5f5f5" stroke="transparent" points="8,-375.7 8,-398.7 122,-398.7 122,-375.7 8,-375.7"/>
<polygon fill="none" stroke="#000000" points="8,-375.7 8,-398.7 122,-398.7 122,-375.7 8,-375.7"/>
<text text-anchor="start" x="13" y="-384.3" font-family="Helvetica,sans-Serif" font-weight="bold" font-size="11.00" fill="#000000">AspNetUsers</text>
<text text-anchor="start" x="87.5219" y="-383.8" font-family="Helvetica,sans-Serif" font-size="11.00" fill="#000000">[table]</text>
<polygon fill="none" stroke="#000000" points="8,-356.7 8,-375.7 122,-375.7 122,-356.7 8,-356.7"/>
<text text-anchor="start" x="11" y="-362.8" font-family="Helvetica,sans-Serif" font-size="11.00" fill="#000000">...</text>
<polygon fill="#ffffff" stroke="transparent" points="8,-337.7 8,-356.7 38,-356.7 38,-337.7 8,-337.7"/>
<polygon fill="none" stroke="#000000" points="8,-337.7 8,-356.7 38,-356.7 38,-337.7 8,-337.7"/>
<text text-anchor="start" x="11" y="-343.8" font-family="Helvetica,sans-Serif" font-size="11.00" fill="#000000"> &#160;</text>
<polygon fill="#ffffff" stroke="transparent" points="38,-337.7 38,-356.7 85,-356.7 85,-337.7 38,-337.7"/>
<polygon fill="none" stroke="#000000" points="38,-337.7 38,-356.7 85,-356.7 85,-337.7 38,-337.7"/>
<text text-anchor="start" x="49.6105" y="-343.8" font-family="Helvetica,sans-Serif" font-size="11.00" fill="#000000">0 rows</text>
<polygon fill="#ffffff" stroke="transparent" points="85,-337.7 85,-356.7 122,-356.7 122,-337.7 85,-337.7"/>
<polygon fill="none" stroke="#000000" points="85,-337.7 85,-356.7 122,-356.7 122,-337.7 85,-337.7"/>
<text text-anchor="start" x="97.2904" y="-343.8" font-family="Helvetica,sans-Serif" font-size="11.00" fill="#000000">29 &gt;</text>
</a>
</g>
</g>
<!-- TechnicalCareers&#45;&gt;AspNetUsers -->
<g id="edge21" class="edge">
<title>TechnicalCareers:w&#45;&gt;AspNetUsers:e</title>
<path fill="none" stroke="#000000" d="M159.2374,-231.8188C121.4146,-252.2113 181.2047,-365.7 122,-365.7"/>
<polygon fill="#000000" stroke="#000000" points="165.6847,-230.409 174.2691,-232.2169 169.5923,-229.5545 173.5,-228.7 173.5,-228.7 173.5,-228.7 169.5923,-229.5545 172.7309,-225.1831 165.6847,-230.409 165.6847,-230.409"/>
<ellipse fill="none" stroke="#000000" cx="162.5585" cy="-231.0927" rx="3.2" ry="3.2"/>
</g>
<!-- TechnicalCareers&#45;&gt;AspNetUsers -->
<g id="edge22" class="edge">
<title>TechnicalCareers:w&#45;&gt;AspNetUsers:e</title>
<path fill="none" stroke="#000000" d="M159.0644,-209.4597C113.3391,-230.5733 190.4779,-365.7 122,-365.7"/>
<polygon fill="#000000" stroke="#000000" points="165.6423,-208.2022 174.176,-210.236 169.5712,-207.4511 173.5,-206.7 173.5,-206.7 173.5,-206.7 169.5712,-207.4511 172.824,-203.164 165.6423,-208.2022 165.6423,-208.2022"/>
<ellipse fill="none" stroke="#000000" cx="162.4992" cy="-208.8031" rx="3.2" ry="3.2"/>
</g>
<!-- Coordinators -->
<g id="node3" class="node">
<title>Coordinators</title>
<g id="a_node3"><a xlink:href="../../tables/Coordinators.html" xlink:title="Coordinators" target="_top">
<polygon fill="#ffffff" stroke="transparent" points="461,-505.2 461,-566.2 575,-566.2 575,-505.2 461,-505.2"/>
<polygon fill="#f5f5f5" stroke="transparent" points="461,-542.7 461,-565.7 575,-565.7 575,-542.7 461,-542.7"/>
<polygon fill="none" stroke="#000000" points="461,-542.7 461,-565.7 575,-565.7 575,-542.7 461,-542.7"/>
<text text-anchor="start" x="466" y="-551.3" font-family="Helvetica,sans-Serif" font-weight="bold" font-size="11.00" fill="#000000">Coordinators</text>
<text text-anchor="start" x="540.5219" y="-550.8" font-family="Helvetica,sans-Serif" font-size="11.00" fill="#000000">[table]</text>
<polygon fill="none" stroke="#000000" points="461,-523.7 461,-542.7 575,-542.7 575,-523.7 461,-523.7"/>
<text text-anchor="start" x="464" y="-529.8" font-family="Helvetica,sans-Serif" font-size="11.00" fill="#000000">...</text>
<polygon fill="#ffffff" stroke="transparent" points="461,-504.7 461,-523.7 503,-523.7 503,-504.7 461,-504.7"/>
<polygon fill="none" stroke="#000000" points="461,-504.7 461,-523.7 503,-523.7 503,-504.7 461,-504.7"/>
<text text-anchor="start" x="464" y="-510.8" font-family="Helvetica,sans-Serif" font-size="11.00" fill="#000000">&lt; 2</text>
<polygon fill="#ffffff" stroke="transparent" points="503,-504.7 503,-523.7 552,-523.7 552,-504.7 503,-504.7"/>
<polygon fill="none" stroke="#000000" points="503,-504.7 503,-523.7 552,-523.7 552,-504.7 503,-504.7"/>
<text text-anchor="start" x="516.6105" y="-510.8" font-family="Helvetica,sans-Serif" font-size="11.00" fill="#000000">0 rows</text>
<polygon fill="#ffffff" stroke="transparent" points="552,-504.7 552,-523.7 575,-523.7 575,-504.7 552,-504.7"/>
<polygon fill="none" stroke="#000000" points="552,-504.7 552,-523.7 575,-523.7 575,-504.7 552,-504.7"/>
<text text-anchor="start" x="565.8862" y="-510.8" font-family="Helvetica,sans-Serif" font-size="11.00" fill="#000000"> &#160;</text>
</a>
</g>
</g>
<!-- Coordinators&#45;&gt;TechnicalCareers -->
<g id="edge2" class="edge">
<title>Coordinators:w&#45;&gt;TechnicalCareers:e</title>
<path fill="none" stroke="#000000" d="M446.5249,-532.672C406.0168,-532.3854 383.81,-529.2216 355,-494.7 319.7348,-452.4435 367.5386,-250.7 312.5,-250.7"/>
<polygon fill="#000000" stroke="#000000" points="453,-532.6845 460.993,-536.3 457,-532.6922 461,-532.7 461,-532.7 461,-532.7 457,-532.6922 461.007,-529.1 453,-532.6845 453,-532.6845"/>
<ellipse fill="none" stroke="#000000" cx="449.8" cy="-532.6782" rx="3.2" ry="3.2"/>
</g>
<!-- Coordinators&#45;&gt;AspNetUsers -->
<g id="edge3" class="edge">
<title>Coordinators:w&#45;&gt;AspNetUsers:e</title>
<path fill="none" stroke="#000000" d="M450.4417,-532.7464C322.3891,-533.8596 263.7275,-553.8448 163,-468.7 125.3712,-436.8924 171.2712,-365.7 122,-365.7"/>
<polygon fill="#000000" stroke="#000000" points="460.1824,-528.7036 460.2176,-536.7035 458.6177,-536.7105 458.5824,-528.7106 460.1824,-528.7036"/>
<polyline fill="none" stroke="#000000" points="461,-532.7 457,-532.7176 "/>
<ellipse fill="none" stroke="#000000" cx="453.8001" cy="-532.7317" rx="3.2" ry="3.2"/>
</g>
<!-- EvaluationPeriods -->
<g id="node5" class="node">
<title>EvaluationPeriods</title>
<g id="a_node5"><a xlink:href="../../tables/EvaluationPeriods.html" xlink:title="EvaluationPeriods" target="_top">
<polygon fill="#ffffff" stroke="transparent" points="171,-306.2 171,-433.2 314,-433.2 314,-306.2 171,-306.2"/>
<polygon fill="#f5f5f5" stroke="transparent" points="171.5,-409.7 171.5,-432.7 314.5,-432.7 314.5,-409.7 171.5,-409.7"/>
<polygon fill="none" stroke="#000000" points="171.5,-409.7 171.5,-432.7 314.5,-432.7 314.5,-409.7 171.5,-409.7"/>
<text text-anchor="start" x="176.5" y="-418.3" font-family="Helvetica,sans-Serif" font-weight="bold" font-size="11.00" fill="#000000">EvaluationPeriods</text>
<text text-anchor="start" x="280.0219" y="-417.8" font-family="Helvetica,sans-Serif" font-size="11.00" fill="#000000">[table]</text>
<polygon fill="none" stroke="#000000" points="171.5,-387.7 171.5,-409.7 314.5,-409.7 314.5,-387.7 171.5,-387.7"/>
<image xlink:href="../../images/primaryKeys.png" width="11px" height="12px" preserveAspectRatio="xMinYMin meet" x="176.5" y="-404.7"/>
<text text-anchor="start" x="200.5" y="-394.8" font-family="Helvetica,sans-Serif" font-size="11.00" fill="#000000">Id</text>
<polygon fill="#ffffff" stroke="transparent" points="171.5,-365.7 171.5,-387.7 314.5,-387.7 314.5,-365.7 171.5,-365.7"/>
<polygon fill="none" stroke="#000000" points="171.5,-365.7 171.5,-387.7 314.5,-387.7 314.5,-365.7 171.5,-365.7"/>
<image xlink:href="../../images/foreignKeys.png" width="11px" height="12px" preserveAspectRatio="xMinYMin meet" x="176.5" y="-382.7"/>
<text text-anchor="start" x="200.5" y="-372.8" font-family="Helvetica,sans-Serif" font-size="11.00" fill="#000000">CreatedByUserId</text>
<polygon fill="#ffffff" stroke="transparent" points="171.5,-343.7 171.5,-365.7 314.5,-365.7 314.5,-343.7 171.5,-343.7"/>
<polygon fill="none" stroke="#000000" points="171.5,-343.7 171.5,-365.7 314.5,-365.7 314.5,-343.7 171.5,-343.7"/>
<image xlink:href="../../images/foreignKeys.png" width="11px" height="12px" preserveAspectRatio="xMinYMin meet" x="176.5" y="-360.7"/>
<text text-anchor="start" x="200.5" y="-350.8" font-family="Helvetica,sans-Serif" font-size="11.00" fill="#000000">UpdatedByUserId</text>
<polygon fill="none" stroke="#000000" points="171.5,-324.7 171.5,-343.7 314.5,-343.7 314.5,-324.7 171.5,-324.7"/>
<text text-anchor="start" x="174.5" y="-330.8" font-family="Helvetica,sans-Serif" font-size="11.00" fill="#000000">...</text>
<polygon fill="#ffffff" stroke="transparent" points="171.5,-305.7 171.5,-324.7 223.5,-324.7 223.5,-305.7 171.5,-305.7"/>
<polygon fill="none" stroke="#000000" points="171.5,-305.7 171.5,-324.7 223.5,-324.7 223.5,-305.7 171.5,-305.7"/>
<text text-anchor="start" x="174.5" y="-311.8" font-family="Helvetica,sans-Serif" font-size="11.00" fill="#000000">&lt; 2</text>
<polygon fill="#ffffff" stroke="transparent" points="223.5,-305.7 223.5,-324.7 277.5,-324.7 277.5,-305.7 223.5,-305.7"/>
<polygon fill="none" stroke="#000000" points="223.5,-305.7 223.5,-324.7 277.5,-324.7 277.5,-305.7 223.5,-305.7"/>
<text text-anchor="start" x="242.1105" y="-311.8" font-family="Helvetica,sans-Serif" font-size="11.00" fill="#000000">0 rows</text>
<polygon fill="#ffffff" stroke="transparent" points="277.5,-305.7 277.5,-324.7 314.5,-324.7 314.5,-305.7 277.5,-305.7"/>
<polygon fill="none" stroke="#000000" points="277.5,-305.7 277.5,-324.7 314.5,-324.7 314.5,-305.7 277.5,-305.7"/>
<text text-anchor="start" x="295.9053" y="-311.8" font-family="Helvetica,sans-Serif" font-size="11.00" fill="#000000">3 &gt;</text>
</a>
</g>
</g>
<!-- EvaluationPeriods&#45;&gt;AspNetUsers -->
<g id="edge4" class="edge">
<title>EvaluationPeriods:w&#45;&gt;AspNetUsers:e</title>
<path fill="none" stroke="#000000" d="M157.0598,-374.8836C145.4771,-371.7593 138.7264,-365.7 122,-365.7"/>
<polygon fill="#000000" stroke="#000000" points="163.5626,-375.7015 171.0507,-380.2719 167.5313,-376.2008 171.5,-376.7 171.5,-376.7 171.5,-376.7 167.5313,-376.2008 171.9493,-373.1281 163.5626,-375.7015 163.5626,-375.7015"/>
<ellipse fill="none" stroke="#000000" cx="160.3876" cy="-375.3021" rx="3.2" ry="3.2"/>
</g>
<!-- EvaluationPeriods&#45;&gt;AspNetUsers -->
<g id="edge5" class="edge">
<title>EvaluationPeriods:w&#45;&gt;AspNetUsers:e</title>
<path fill="none" stroke="#000000" d="M157.0598,-356.5164C145.4771,-359.6407 138.7264,-365.7 122,-365.7"/>
<polygon fill="#000000" stroke="#000000" points="163.5626,-355.6985 171.9493,-358.2719 167.5313,-355.1992 171.5,-354.7 171.5,-354.7 171.5,-354.7 167.5313,-355.1992 171.0507,-351.1281 163.5626,-355.6985 163.5626,-355.6985"/>
<ellipse fill="none" stroke="#000000" cx="160.3876" cy="-356.0979" rx="3.2" ry="3.2"/>
</g>
<!-- EvaluationPeriodTechnicalCareer -->
<g id="node6" class="node">
<title>EvaluationPeriodTechnicalCareer</title>
<g id="a_node6"><a xlink:href="../../tables/EvaluationPeriodTechnicalCareer.html" xlink:title="EvaluationPeriodTechnicalCareer" target="_top">
<polygon fill="#ffffff" stroke="transparent" points="363,-284.7 363,-374.7 673,-374.7 673,-284.7 363,-284.7"/>
<polygon fill="#f5f5f5" stroke="transparent" points="365,-349.7 365,-372.7 671,-372.7 671,-349.7 365,-349.7"/>
<polygon fill="none" stroke="#000000" points="365,-349.7 365,-372.7 671,-372.7 671,-349.7 365,-349.7"/>
<text text-anchor="start" x="370" y="-358.3" font-family="Helvetica,sans-Serif" font-weight="bold" font-size="11.00" fill="#000000">EvaluationPeriodTechnicalCareer</text>
<text text-anchor="start" x="636.0437" y="-357.8" font-family="Helvetica,sans-Serif" font-size="11.00" fill="#000000">[table]</text>
<polygon fill="none" stroke="#000000" points="365,-327.7 365,-349.7 577,-349.7 577,-327.7 365,-327.7"/>
<image xlink:href="../../images/primaryKeys.png" width="11px" height="12px" preserveAspectRatio="xMinYMin meet" x="370" y="-344.7"/>
<text text-anchor="start" x="385" y="-334.8" font-family="Helvetica,sans-Serif" font-size="11.00" fill="#000000">EvaluationPeriodsId</text>
<polygon fill="none" stroke="#000000" points="577,-327.7 577,-349.7 671,-349.7 671,-327.7 577,-327.7"/>
<text text-anchor="start" x="579.9758" y="-335.4" font-family="Helvetica,sans-Serif" font-size="11.00" fill="#000000">uuid[2147483647]</text>
<polygon fill="none" stroke="#000000" points="365,-305.7 365,-327.7 577,-327.7 577,-305.7 365,-305.7"/>
<image xlink:href="../../images/primaryKeys.png" width="11px" height="12px" preserveAspectRatio="xMinYMin meet" x="370" y="-322.7"/>
<text text-anchor="start" x="385" y="-312.8" font-family="Helvetica,sans-Serif" font-size="11.00" fill="#000000">TechnicalCareersId</text>
<polygon fill="none" stroke="#000000" points="577,-305.7 577,-327.7 671,-327.7 671,-305.7 577,-305.7"/>
<text text-anchor="start" x="579.9758" y="-313.4" font-family="Helvetica,sans-Serif" font-size="11.00" fill="#000000">uuid[2147483647]</text>
<polygon fill="#ffffff" stroke="transparent" points="365,-286.7 365,-305.7 462,-305.7 462,-286.7 365,-286.7"/>
<polygon fill="none" stroke="#000000" points="365,-286.7 365,-305.7 462,-305.7 462,-286.7 365,-286.7"/>
<text text-anchor="start" x="368" y="-292.8" font-family="Helvetica,sans-Serif" font-size="11.00" fill="#000000">&lt; 2</text>
<polygon fill="#ffffff" stroke="transparent" points="462,-286.7 462,-305.7 577,-305.7 577,-286.7 462,-286.7"/>
<polygon fill="none" stroke="#000000" points="462,-286.7 462,-305.7 577,-305.7 577,-286.7 462,-286.7"/>
<text text-anchor="start" x="541.6105" y="-292.8" font-family="Helvetica,sans-Serif" font-size="11.00" fill="#000000">0 rows</text>
<polygon fill="#ffffff" stroke="transparent" points="577,-286.7 577,-305.7 671,-305.7 671,-286.7 577,-286.7"/>
<polygon fill="none" stroke="#000000" points="577,-286.7 577,-305.7 671,-305.7 671,-286.7 577,-286.7"/>
<text text-anchor="start" x="652.4053" y="-292.8" font-family="Helvetica,sans-Serif" font-size="11.00" fill="#000000">0 &gt;</text>
<polygon fill="none" stroke="#000000" stroke-width="2" points="364,-285.7 364,-373.7 672,-373.7 672,-285.7 364,-285.7"/>
</a>
</g>
</g>
<!-- EvaluationPeriodTechnicalCareer&#45;&gt;TechnicalCareers -->
<g id="edge7" class="edge">
<title>EvaluationPeriodTechnicalCareer:w&#45;&gt;TechnicalCareers:e</title>
<path fill="none" stroke="#000000" d="M350.863,-311.9534C333.2755,-296.8202 343.8325,-250.7 312.5,-250.7"/>
<polygon fill="#000000" stroke="#000000" points="357.4161,-314.1536 363.8541,-320.1128 361.208,-315.4268 365,-316.7 365,-316.7 365,-316.7 361.208,-315.4268 366.1459,-313.2872 357.4161,-314.1536 357.4161,-314.1536"/>
<ellipse fill="none" stroke="#000000" cx="354.3825" cy="-313.1351" rx="3.2" ry="3.2"/>
</g>
<!-- EvaluationPeriodTechnicalCareer&#45;&gt;EvaluationPeriods -->
<g id="edge6" class="edge">
<title>EvaluationPeriodTechnicalCareer:w&#45;&gt;EvaluationPeriods:e</title>
<path fill="none" stroke="#000000" d="M351.2703,-343.4081C335.1513,-357.5525 343.3642,-398.7 314.5,-398.7"/>
<polygon fill="#000000" stroke="#000000" points="357.4326,-341.295 366.1678,-342.1053 361.2163,-339.9975 365,-338.7 365,-338.7 365,-338.7 361.2163,-339.9975 363.8322,-335.2947 357.4326,-341.295 357.4326,-341.295"/>
<ellipse fill="none" stroke="#000000" cx="354.4056" cy="-342.333" rx="3.2" ry="3.2"/>
</g>
<!-- ProfessorCompetencyAssignments -->
<g id="node7" class="node">
<title>ProfessorCompetencyAssignments</title>
<g id="a_node7"><a xlink:href="../../tables/ProfessorCompetencyAssignments.html" xlink:title="ProfessorCompetencyAssignments" target="_top">
<polygon fill="#ffffff" stroke="transparent" points="397,-423.2 397,-484.2 639,-484.2 639,-423.2 397,-423.2"/>
<polygon fill="#f5f5f5" stroke="transparent" points="397,-460.7 397,-483.7 639,-483.7 639,-460.7 397,-460.7"/>
<polygon fill="none" stroke="#000000" points="397,-460.7 397,-483.7 639,-483.7 639,-460.7 397,-460.7"/>
<text text-anchor="start" x="402" y="-469.3" font-family="Helvetica,sans-Serif" font-weight="bold" font-size="11.00" fill="#000000">ProfessorCompetencyAssignments</text>
<text text-anchor="start" x="604.5219" y="-468.8" font-family="Helvetica,sans-Serif" font-size="11.00" fill="#000000">[table]</text>
<polygon fill="none" stroke="#000000" points="397,-441.7 397,-460.7 639,-460.7 639,-441.7 397,-441.7"/>
<text text-anchor="start" x="400" y="-447.8" font-family="Helvetica,sans-Serif" font-size="11.00" fill="#000000">...</text>
<polygon fill="#ffffff" stroke="transparent" points="397,-422.7 397,-441.7 499,-441.7 499,-422.7 397,-422.7"/>
<polygon fill="none" stroke="#000000" points="397,-422.7 397,-441.7 499,-441.7 499,-422.7 397,-422.7"/>
<text text-anchor="start" x="400" y="-428.8" font-family="Helvetica,sans-Serif" font-size="11.00" fill="#000000">&lt; 6</text>
<polygon fill="#ffffff" stroke="transparent" points="499,-422.7 499,-441.7 577,-441.7 577,-422.7 499,-422.7"/>
<polygon fill="none" stroke="#000000" points="499,-422.7 499,-441.7 577,-441.7 577,-422.7 499,-422.7"/>
<text text-anchor="start" x="541.6105" y="-428.8" font-family="Helvetica,sans-Serif" font-size="11.00" fill="#000000">0 rows</text>
<polygon fill="#ffffff" stroke="transparent" points="577,-422.7 577,-441.7 639,-441.7 639,-422.7 577,-422.7"/>
<polygon fill="none" stroke="#000000" points="577,-422.7 577,-441.7 639,-441.7 639,-422.7 577,-422.7"/>
<text text-anchor="start" x="620.4053" y="-428.8" font-family="Helvetica,sans-Serif" font-size="11.00" fill="#000000">1 &gt;</text>
</a>
</g>
</g>
<!-- ProfessorCompetencyAssignments&#45;&gt;TechnicalCareers -->
<g id="edge10" class="edge">
<title>ProfessorCompetencyAssignments:w&#45;&gt;TechnicalCareers:e</title>
<path fill="none" stroke="#000000" d="M382.6156,-447.8841C364.38,-439.1378 367.1149,-411.4785 355,-385.7 328.2453,-328.7704 375.403,-250.7 312.5,-250.7"/>
<polygon fill="#000000" stroke="#000000" points="389.149,-449.1631 396.3084,-454.2329 393.0745,-449.9315 397,-450.7 397,-450.7 397,-450.7 393.0745,-449.9315 397.6916,-447.1671 389.149,-449.1631 389.149,-449.1631"/>
<ellipse fill="none" stroke="#000000" cx="386.0086" cy="-448.5483" rx="3.2" ry="3.2"/>
</g>
<!-- ProfessorCompetencyAssignments&#45;&gt;AspNetUsers -->
<g id="edge8" class="edge">
<title>ProfessorCompetencyAssignments:w&#45;&gt;AspNetUsers:e</title>
<path fill="none" stroke="#000000" d="M382.4799,-451.014C288.8552,-455.0693 247.021,-496.1871 163,-443.7 129.7843,-422.9505 161.1641,-365.7 122,-365.7"/>
<polygon fill="#000000" stroke="#000000" points="389.0019,-450.873 397.0779,-454.2992 393.0009,-450.7865 397,-450.7 397,-450.7 397,-450.7 393.0009,-450.7865 396.9221,-447.1008 389.0019,-450.873 389.0019,-450.873"/>
<ellipse fill="none" stroke="#000000" cx="385.8026" cy="-450.9422" rx="3.2" ry="3.2"/>
</g>
<!-- ProfessorCompetencyAssignments&#45;&gt;AspNetUsers -->
<g id="edge11" class="edge">
<title>ProfessorCompetencyAssignments:w&#45;&gt;AspNetUsers:e</title>
<path fill="none" stroke="#000000" d="M382.4723,-450.9862C288.8109,-454.6791 247.2054,-492.014 163,-439.7 131.0621,-419.8581 159.5996,-365.7 122,-365.7"/>
<polygon fill="#000000" stroke="#000000" points="389.0016,-450.8576 397.0709,-454.2993 393.0008,-450.7788 397,-450.7 397,-450.7 397,-450.7 393.0008,-450.7788 396.9291,-447.1007 389.0016,-450.8576 389.0016,-450.8576"/>
<ellipse fill="none" stroke="#000000" cx="385.8022" cy="-450.9207" rx="3.2" ry="3.2"/>
</g>
<!-- ProfessorCompetencyAssignments&#45;&gt;EvaluationPeriods -->
<g id="edge9" class="edge">
<title>ProfessorCompetencyAssignments:w&#45;&gt;EvaluationPeriods:e</title>
<path fill="none" stroke="#000000" d="M382.4043,-448.3305C353.9467,-438.1578 352.2553,-398.7 314.5,-398.7"/>
<polygon fill="#000000" stroke="#000000" points="389.1034,-449.418 396.4231,-454.2535 393.0517,-450.059 397,-450.7 397,-450.7 397,-450.7 393.0517,-450.059 397.5769,-447.1465 389.1034,-449.418 389.1034,-449.418"/>
<ellipse fill="none" stroke="#000000" cx="385.9447" cy="-448.9052" rx="3.2" ry="3.2"/>
</g>
<!-- StudentEvaluationReport -->
<g id="node8" class="node">
<title>StudentEvaluationReport</title>
<g id="a_node8"><a xlink:href="../../tables/StudentEvaluationReport.html" xlink:title="StudentEvaluationReport" target="_top">
<polygon fill="#ffffff" stroke="transparent" points="722,-470.2 722,-531.2 905,-531.2 905,-470.2 722,-470.2"/>
<polygon fill="#f5f5f5" stroke="transparent" points="722.5,-507.7 722.5,-530.7 905.5,-530.7 905.5,-507.7 722.5,-507.7"/>
<polygon fill="none" stroke="#000000" points="722.5,-507.7 722.5,-530.7 905.5,-530.7 905.5,-507.7 722.5,-507.7"/>
<text text-anchor="start" x="727.5" y="-516.3" font-family="Helvetica,sans-Serif" font-weight="bold" font-size="11.00" fill="#000000">StudentEvaluationReport</text>
<text text-anchor="start" x="871.0219" y="-515.8" font-family="Helvetica,sans-Serif" font-size="11.00" fill="#000000">[table]</text>
<polygon fill="none" stroke="#000000" points="722.5,-488.7 722.5,-507.7 905.5,-507.7 905.5,-488.7 722.5,-488.7"/>
<text text-anchor="start" x="725.5" y="-494.8" font-family="Helvetica,sans-Serif" font-size="11.00" fill="#000000">...</text>
<polygon fill="#ffffff" stroke="transparent" points="722.5,-469.7 722.5,-488.7 799.5,-488.7 799.5,-469.7 722.5,-469.7"/>
<polygon fill="none" stroke="#000000" points="722.5,-469.7 722.5,-488.7 799.5,-488.7 799.5,-469.7 722.5,-469.7"/>
<text text-anchor="start" x="725.5" y="-475.8" font-family="Helvetica,sans-Serif" font-size="11.00" fill="#000000">&lt; 4</text>
<polygon fill="#ffffff" stroke="transparent" points="799.5,-469.7 799.5,-488.7 865.5,-488.7 865.5,-469.7 799.5,-469.7"/>
<polygon fill="none" stroke="#000000" points="799.5,-469.7 799.5,-488.7 865.5,-488.7 865.5,-469.7 799.5,-469.7"/>
<text text-anchor="start" x="830.1105" y="-475.8" font-family="Helvetica,sans-Serif" font-size="11.00" fill="#000000">0 rows</text>
<polygon fill="#ffffff" stroke="transparent" points="865.5,-469.7 865.5,-488.7 905.5,-488.7 905.5,-469.7 865.5,-469.7"/>
<polygon fill="none" stroke="#000000" points="865.5,-469.7 865.5,-488.7 905.5,-488.7 905.5,-469.7 865.5,-469.7"/>
<text text-anchor="start" x="896.3862" y="-475.8" font-family="Helvetica,sans-Serif" font-size="11.00" fill="#000000"> &#160;</text>
</a>
</g>
</g>
<!-- StudentEvaluationReport&#45;&gt;AspNetUsers -->
<g id="edge12" class="edge">
<title>StudentEvaluationReport:w&#45;&gt;AspNetUsers:e</title>
<path fill="none" stroke="#000000" d="M708.6396,-501.6158C691.2596,-515.0504 709.641,-559.3932 681,-576.7 556.9928,-651.6334 497.9633,-600.2432 355,-576.7 266.1066,-562.061 225.0046,-577.0588 163,-511.7 116.613,-462.8036 189.3989,-365.7 122,-365.7"/>
<polygon fill="#000000" stroke="#000000" points="714.8013,-499.8751 723.4788,-501.1644 718.6507,-498.7875 722.5,-497.7 722.5,-497.7 722.5,-497.7 718.6507,-498.7875 721.5212,-494.2356 714.8013,-499.8751 714.8013,-499.8751"/>
<ellipse fill="none" stroke="#000000" cx="711.7219" cy="-500.7451" rx="3.2" ry="3.2"/>
</g>
<!-- StudentEvaluationReport&#45;&gt;AspNetUsers -->
<g id="edge15" class="edge">
<title>StudentEvaluationReport:w&#45;&gt;AspNetUsers:e</title>
<path fill="none" stroke="#000000" d="M708.628,-501.7878C692.3802,-514.9838 708.4333,-556.5267 681,-572.7 556.187,-646.2833 497.9633,-596.2432 355,-572.7 266.1066,-558.061 225.2433,-572.8316 163,-507.7 117.6157,-460.2097 187.6891,-365.7 122,-365.7"/>
<polygon fill="#000000" stroke="#000000" points="714.8262,-499.9614 723.5176,-501.1532 718.6631,-498.8307 722.5,-497.7 722.5,-497.7 722.5,-497.7 718.6631,-498.8307 721.4824,-494.2468 714.8262,-499.9614 714.8262,-499.9614"/>
<ellipse fill="none" stroke="#000000" cx="711.7567" cy="-500.8659" rx="3.2" ry="3.2"/>
</g>
<!-- StudentEvaluationReport&#45;&gt;EvaluationPeriods -->
<g id="edge13" class="edge">
<title>StudentEvaluationReport:w&#45;&gt;EvaluationPeriods:e</title>
<path fill="none" stroke="#000000" d="M708.4354,-493.9291C689.5135,-480.1397 710.9961,-432.2409 681,-412.7 612.7089,-368.2118 396.0038,-398.7 314.5,-398.7"/>
<polygon fill="#000000" stroke="#000000" points="714.7729,-495.6282 721.5677,-501.1772 718.6365,-496.6641 722.5,-497.7 722.5,-497.7 722.5,-497.7 718.6365,-496.6641 723.4323,-494.2228 714.7729,-495.6282 714.7729,-495.6282"/>
<ellipse fill="none" stroke="#000000" cx="711.6821" cy="-494.7995" rx="3.2" ry="3.2"/>
</g>
<!-- Students -->
<g id="node9" class="node">
<title>Students</title>
<g id="a_node9"><a xlink:href="../../tables/Students.html" xlink:title="Students" target="_top">
<polygon fill="#ffffff" stroke="transparent" points="473,-120.2 473,-181.2 563,-181.2 563,-120.2 473,-120.2"/>
<polygon fill="#f5f5f5" stroke="transparent" points="473,-157.7 473,-180.7 563,-180.7 563,-157.7 473,-157.7"/>
<polygon fill="none" stroke="#000000" points="473,-157.7 473,-180.7 563,-180.7 563,-157.7 473,-157.7"/>
<text text-anchor="start" x="478" y="-166.3" font-family="Helvetica,sans-Serif" font-weight="bold" font-size="11.00" fill="#000000">Students</text>
<text text-anchor="start" x="528.5219" y="-165.8" font-family="Helvetica,sans-Serif" font-size="11.00" fill="#000000">[table]</text>
<polygon fill="none" stroke="#000000" points="473,-138.7 473,-157.7 563,-157.7 563,-138.7 473,-138.7"/>
<text text-anchor="start" x="476" y="-144.8" font-family="Helvetica,sans-Serif" font-size="11.00" fill="#000000">...</text>
<polygon fill="#ffffff" stroke="transparent" points="473,-119.7 473,-138.7 499,-138.7 499,-119.7 473,-119.7"/>
<polygon fill="none" stroke="#000000" points="473,-119.7 473,-138.7 499,-138.7 499,-119.7 473,-119.7"/>
<text text-anchor="start" x="476" y="-125.8" font-family="Helvetica,sans-Serif" font-size="11.00" fill="#000000">&lt; 2</text>
<polygon fill="#ffffff" stroke="transparent" points="499,-119.7 499,-138.7 539,-138.7 539,-119.7 499,-119.7"/>
<polygon fill="none" stroke="#000000" points="499,-119.7 499,-138.7 539,-138.7 539,-119.7 499,-119.7"/>
<text text-anchor="start" x="503.6105" y="-125.8" font-family="Helvetica,sans-Serif" font-size="11.00" fill="#000000">0 rows</text>
<polygon fill="#ffffff" stroke="transparent" points="539,-119.7 539,-138.7 563,-138.7 563,-119.7 539,-119.7"/>
<polygon fill="none" stroke="#000000" points="539,-119.7 539,-138.7 563,-138.7 563,-119.7 539,-119.7"/>
<text text-anchor="start" x="544.4053" y="-125.8" font-family="Helvetica,sans-Serif" font-size="11.00" fill="#000000">3 &gt;</text>
</a>
</g>
</g>
<!-- StudentEvaluationReport&#45;&gt;Students -->
<g id="edge14" class="edge">
<title>StudentEvaluationReport:w&#45;&gt;Students:e</title>
<path fill="none" stroke="#000000" d="M708.5516,-493.0762C664.3601,-458.5517 720.4156,-241.0099 681,-191.7 646.0522,-147.9794 618.9718,-147.7 563,-147.7"/>
<polygon fill="#000000" stroke="#000000" points="714.9064,-495.1827 721.3672,-501.1171 718.7032,-496.4414 722.5,-497.7 722.5,-497.7 722.5,-497.7 718.7032,-496.4414 723.6328,-494.2829 714.9064,-495.1827 714.9064,-495.1827"/>
<ellipse fill="none" stroke="#000000" cx="711.8689" cy="-494.1758" rx="3.2" ry="3.2"/>
</g>
<!-- Students&#45;&gt;TechnicalCareers -->
<g id="edge16" class="edge">
<title>Students:w&#45;&gt;TechnicalCareers:e</title>
<path fill="none" stroke="#000000" d="M458.5071,-147.9648C413.5828,-149.7464 395.4146,-160.8661 355,-191.7 329.3068,-211.3024 344.8171,-250.7 312.5,-250.7"/>
<polygon fill="#000000" stroke="#000000" points="465.0013,-147.8462 473.0658,-151.2994 469.0007,-147.7731 473,-147.7 473,-147.7 473,-147.7 469.0007,-147.7731 472.9342,-144.1006 465.0013,-147.8462 465.0013,-147.8462"/>
<ellipse fill="none" stroke="#000000" cx="461.8019" cy="-147.9047" rx="3.2" ry="3.2"/>
</g>
<!-- Students&#45;&gt;AspNetUsers -->
<g id="edge17" class="edge">
<title>Students:w&#45;&gt;AspNetUsers:e</title>
<path fill="none" stroke="#000000" d="M462.2489,-147.5214C331.7047,-143.1838 266.2495,-62.0588 163,-147.7 87.1185,-210.6405 220.5876,-365.7 122,-365.7"/>
<polygon fill="#000000" stroke="#000000" points="472.2666,-143.6873 472.1336,-151.6862 470.5338,-151.6596 470.6668,-143.6607 472.2666,-143.6873"/>
<polyline fill="none" stroke="#000000" points="473,-147.7 469.0006,-147.6335 "/>
<ellipse fill="none" stroke="#000000" cx="465.801" cy="-147.5803" rx="3.2" ry="3.2"/>
</g>
<!-- Subjects -->
<g id="node10" class="node">
<title>Subjects</title>
<g id="a_node10"><a xlink:href="../../tables/Subjects.html" xlink:title="Subjects" target="_top">
<polygon fill="#ffffff" stroke="transparent" points="473.5,-38.2 473.5,-99.2 562.5,-99.2 562.5,-38.2 473.5,-38.2"/>
<polygon fill="#f5f5f5" stroke="transparent" points="474,-75.7 474,-98.7 563,-98.7 563,-75.7 474,-75.7"/>
<polygon fill="none" stroke="#000000" points="474,-75.7 474,-98.7 563,-98.7 563,-75.7 474,-75.7"/>
<text text-anchor="start" x="479" y="-84.3" font-family="Helvetica,sans-Serif" font-weight="bold" font-size="11.00" fill="#000000">Subjects</text>
<text text-anchor="start" x="528.5219" y="-83.8" font-family="Helvetica,sans-Serif" font-size="11.00" fill="#000000">[table]</text>
<polygon fill="none" stroke="#000000" points="474,-56.7 474,-75.7 563,-75.7 563,-56.7 474,-56.7"/>
<text text-anchor="start" x="477" y="-62.8" font-family="Helvetica,sans-Serif" font-size="11.00" fill="#000000">...</text>
<polygon fill="#ffffff" stroke="transparent" points="474,-37.7 474,-56.7 499,-56.7 499,-37.7 474,-37.7"/>
<polygon fill="none" stroke="#000000" points="474,-37.7 474,-56.7 499,-56.7 499,-37.7 474,-37.7"/>
<text text-anchor="start" x="477" y="-43.8" font-family="Helvetica,sans-Serif" font-size="11.00" fill="#000000">&lt; 4</text>
<polygon fill="#ffffff" stroke="transparent" points="499,-37.7 499,-56.7 539,-56.7 539,-37.7 499,-37.7"/>
<polygon fill="none" stroke="#000000" points="499,-37.7 499,-56.7 539,-56.7 539,-37.7 499,-37.7"/>
<text text-anchor="start" x="503.6105" y="-43.8" font-family="Helvetica,sans-Serif" font-size="11.00" fill="#000000">0 rows</text>
<polygon fill="#ffffff" stroke="transparent" points="539,-37.7 539,-56.7 563,-56.7 563,-37.7 539,-37.7"/>
<polygon fill="none" stroke="#000000" points="539,-37.7 539,-56.7 563,-56.7 563,-37.7 539,-37.7"/>
<text text-anchor="start" x="544.4053" y="-43.8" font-family="Helvetica,sans-Serif" font-size="11.00" fill="#000000">1 &gt;</text>
</a>
</g>
</g>
<!-- Subjects&#45;&gt;TechnicalCareers -->
<g id="edge19" class="edge">
<title>Subjects:w&#45;&gt;TechnicalCareers:e</title>
<path fill="none" stroke="#000000" d="M459.5522,-65.7963C413.1841,-66.5331 390.1593,-72.3128 355,-109.7 310.1612,-157.38 377.9515,-250.7 312.5,-250.7"/>
<polygon fill="#000000" stroke="#000000" points="466.0002,-65.7534 474.024,-69.2999 470.0001,-65.7267 474,-65.7 474,-65.7 474,-65.7 470.0001,-65.7267 473.976,-62.1001 466.0002,-65.7534 466.0002,-65.7534"/>
<ellipse fill="none" stroke="#000000" cx="462.8002" cy="-65.7747" rx="3.2" ry="3.2"/>
</g>
<!-- Subjects&#45;&gt;AspNetUsers -->
<g id="edge18" class="edge">
<title>Subjects:w&#45;&gt;AspNetUsers:e</title>
<path fill="none" stroke="#000000" d="M459.5543,-65.4943C329.6206,-61.8161 259.505,-11.1472 163,-104.7 120.8451,-145.5653 180.7113,-365.7 122,-365.7"/>
<polygon fill="#000000" stroke="#000000" points="466.0008,-65.5861 473.9487,-69.2996 470.0004,-65.643 474,-65.7 474,-65.7 474,-65.7 470.0004,-65.643 474.0513,-62.1004 466.0008,-65.5861 466.0008,-65.5861"/>
<ellipse fill="none" stroke="#000000" cx="462.8011" cy="-65.5405" rx="3.2" ry="3.2"/>
</g>
<!-- Subjects&#45;&gt;AspNetUsers -->
<g id="edge20" class="edge">
<title>Subjects:w&#45;&gt;AspNetUsers:e</title>
<path fill="none" stroke="#000000" d="M459.5303,-65.5064C329.3817,-62.0466 259.1841,-14.4967 163,-108.7 121.6824,-149.1667 179.8333,-365.7 122,-365.7"/>
<polygon fill="#000000" stroke="#000000" points="466.0007,-65.5929 473.9518,-69.2997 470.0004,-65.6465 474,-65.7 474,-65.7 474,-65.7 470.0004,-65.6465 474.0482,-62.1003 466.0007,-65.5929 466.0007,-65.5929"/>
<ellipse fill="none" stroke="#000000" cx="462.801" cy="-65.5501" rx="3.2" ry="3.2"/>
</g>
</g>
</svg>
