<?xml version="1.0" encoding="UTF-8" standalone="no"?>
<!DOCTYPE svg PUBLIC "-//W3C//DTD SVG 1.1//EN"
 "http://www.w3.org/Graphics/SVG/1.1/DTD/svg11.dtd">
<!-- Generated by graphviz version 2.40.1 (20161225.0304)
 -->
<!-- Title: twoDegreesRelationshipsDiagram Pages: 1 -->
<svg width="1371pt" height="1161pt"
 viewBox="0.00 0.00 1371.00 1160.80" xmlns="http://www.w3.org/2000/svg" xmlns:xlink="http://www.w3.org/1999/xlink">
<g id="graph0" class="graph" transform="scale(1 1) rotate(0) translate(4 1156.7994)">
<title>twoDegreesRelationshipsDiagram</title>
<polygon fill="#ffffff" stroke="transparent" points="-4,4 -4,-1156.7994 1367,-1156.7994 1367,4 -4,4"/>
<text text-anchor="middle" x="72.4936" y="-7.3" font-family="Helvetica,sans-Serif" font-size="11.00" fill="#000000">Generated by SchemaSpy</text>
<!-- AspNetUserClaims -->
<g id="node1" class="node">
<title>AspNetUserClaims</title>
<g id="a_node1"><a xlink:href="../../tables/AspNetUserClaims.html" xlink:title="AspNetUserClaims" target="_top">
<polygon fill="#ffffff" stroke="transparent" points="172,-1087.7994 172,-1148.7994 319,-1148.7994 319,-1087.7994 172,-1087.7994"/>
<polygon fill="#f5f5f5" stroke="transparent" points="172.5,-1125.2994 172.5,-1148.2994 319.5,-1148.2994 319.5,-1125.2994 172.5,-1125.2994"/>
<polygon fill="none" stroke="#000000" points="172.5,-1125.2994 172.5,-1148.2994 319.5,-1148.2994 319.5,-1125.2994 172.5,-1125.2994"/>
<text text-anchor="start" x="177.5" y="-1133.8994" font-family="Helvetica,sans-Serif" font-weight="bold" font-size="11.00" fill="#000000">AspNetUserClaims</text>
<text text-anchor="start" x="285.0219" y="-1133.3994" font-family="Helvetica,sans-Serif" font-size="11.00" fill="#000000">[table]</text>
<polygon fill="none" stroke="#000000" points="172.5,-1106.2994 172.5,-1125.2994 319.5,-1125.2994 319.5,-1106.2994 172.5,-1106.2994"/>
<text text-anchor="start" x="175.5" y="-1112.3994" font-family="Helvetica,sans-Serif" font-size="11.00" fill="#000000">...</text>
<polygon fill="#ffffff" stroke="transparent" points="172.5,-1087.2994 172.5,-1106.2994 231.5,-1106.2994 231.5,-1087.2994 172.5,-1087.2994"/>
<polygon fill="none" stroke="#000000" points="172.5,-1087.2994 172.5,-1106.2994 231.5,-1106.2994 231.5,-1087.2994 172.5,-1087.2994"/>
<text text-anchor="start" x="175.5" y="-1093.3994" font-family="Helvetica,sans-Serif" font-size="11.00" fill="#000000">&lt; 1</text>
<polygon fill="#ffffff" stroke="transparent" points="231.5,-1087.2994 231.5,-1106.2994 288.5,-1106.2994 288.5,-1087.2994 231.5,-1087.2994"/>
<polygon fill="none" stroke="#000000" points="231.5,-1087.2994 231.5,-1106.2994 288.5,-1106.2994 288.5,-1087.2994 231.5,-1087.2994"/>
<text text-anchor="start" x="253.1105" y="-1093.3994" font-family="Helvetica,sans-Serif" font-size="11.00" fill="#000000">0 rows</text>
<polygon fill="#ffffff" stroke="transparent" points="288.5,-1087.2994 288.5,-1106.2994 319.5,-1106.2994 319.5,-1087.2994 288.5,-1087.2994"/>
<polygon fill="none" stroke="#000000" points="288.5,-1087.2994 288.5,-1106.2994 319.5,-1106.2994 319.5,-1087.2994 288.5,-1087.2994"/>
<text text-anchor="start" x="310.3862" y="-1093.3994" font-family="Helvetica,sans-Serif" font-size="11.00" fill="#000000"> &#160;</text>
</a>
</g>
</g>
<!-- AspNetUsers -->
<g id="node2" class="node">
<title>AspNetUsers</title>
<g id="a_node2"><a xlink:href="../../tables/AspNetUsers.html" xlink:title="AspNetUsers" target="_top">
<polygon fill="#ffffff" stroke="transparent" points="8,-482.7994 8,-543.7994 122,-543.7994 122,-482.7994 8,-482.7994"/>
<polygon fill="#f5f5f5" stroke="transparent" points="8,-520.2994 8,-543.2994 122,-543.2994 122,-520.2994 8,-520.2994"/>
<polygon fill="none" stroke="#000000" points="8,-520.2994 8,-543.2994 122,-543.2994 122,-520.2994 8,-520.2994"/>
<text text-anchor="start" x="13" y="-528.8994" font-family="Helvetica,sans-Serif" font-weight="bold" font-size="11.00" fill="#000000">AspNetUsers</text>
<text text-anchor="start" x="87.5219" y="-528.3994" font-family="Helvetica,sans-Serif" font-size="11.00" fill="#000000">[table]</text>
<polygon fill="none" stroke="#000000" points="8,-501.2994 8,-520.2994 122,-520.2994 122,-501.2994 8,-501.2994"/>
<text text-anchor="start" x="11" y="-507.3994" font-family="Helvetica,sans-Serif" font-size="11.00" fill="#000000">...</text>
<polygon fill="#ffffff" stroke="transparent" points="8,-482.2994 8,-501.2994 41,-501.2994 41,-482.2994 8,-482.2994"/>
<polygon fill="none" stroke="#000000" points="8,-482.2994 8,-501.2994 41,-501.2994 41,-482.2994 8,-482.2994"/>
<text text-anchor="start" x="11" y="-488.3994" font-family="Helvetica,sans-Serif" font-size="11.00" fill="#000000"> &#160;</text>
<polygon fill="#ffffff" stroke="transparent" points="41,-482.2994 41,-501.2994 84,-501.2994 84,-482.2994 41,-482.2994"/>
<polygon fill="none" stroke="#000000" points="41,-482.2994 41,-501.2994 84,-501.2994 84,-482.2994 41,-482.2994"/>
<text text-anchor="start" x="54.1105" y="-488.3994" font-family="Helvetica,sans-Serif" font-size="11.00" fill="#000000">1 row</text>
<polygon fill="#ffffff" stroke="transparent" points="84,-482.2994 84,-501.2994 122,-501.2994 122,-482.2994 84,-482.2994"/>
<polygon fill="none" stroke="#000000" points="84,-482.2994 84,-501.2994 122,-501.2994 122,-482.2994 84,-482.2994"/>
<text text-anchor="start" x="97.2904" y="-488.3994" font-family="Helvetica,sans-Serif" font-size="11.00" fill="#000000">29 &gt;</text>
</a>
</g>
</g>
<!-- AspNetUserClaims&#45;&gt;AspNetUsers -->
<g id="edge1" class="edge">
<title>AspNetUserClaims:w&#45;&gt;AspNetUsers:e</title>
<path fill="none" stroke="#000000" d="M159.5963,-1107.9803C108.9138,-1050.1442 76.3779,-666.0013 67.4779,-547.8278"/>
<polygon fill="#000000" stroke="#000000" points="165.5414,-1111.3525 170.7239,-1118.4308 169.0207,-1113.326 172.5,-1115.2994 172.5,-1115.2994 172.5,-1115.2994 169.0207,-1113.326 174.2761,-1112.1681 165.5414,-1111.3525 165.5414,-1111.3525"/>
<ellipse fill="none" stroke="#000000" cx="162.758" cy="-1109.7737" rx="3.2" ry="3.2"/>
</g>
<!-- AspNetUserLogins -->
<g id="node3" class="node">
<title>AspNetUserLogins</title>
<g id="a_node3"><a xlink:href="../../tables/AspNetUserLogins.html" xlink:title="AspNetUserLogins" target="_top">
<polygon fill="#ffffff" stroke="transparent" points="172,-1005.7994 172,-1066.7994 319,-1066.7994 319,-1005.7994 172,-1005.7994"/>
<polygon fill="#f5f5f5" stroke="transparent" points="172.5,-1043.2994 172.5,-1066.2994 319.5,-1066.2994 319.5,-1043.2994 172.5,-1043.2994"/>
<polygon fill="none" stroke="#000000" points="172.5,-1043.2994 172.5,-1066.2994 319.5,-1066.2994 319.5,-1043.2994 172.5,-1043.2994"/>
<text text-anchor="start" x="177.5" y="-1051.8994" font-family="Helvetica,sans-Serif" font-weight="bold" font-size="11.00" fill="#000000">AspNetUserLogins</text>
<text text-anchor="start" x="285.0219" y="-1051.3994" font-family="Helvetica,sans-Serif" font-size="11.00" fill="#000000">[table]</text>
<polygon fill="none" stroke="#000000" points="172.5,-1024.2994 172.5,-1043.2994 319.5,-1043.2994 319.5,-1024.2994 172.5,-1024.2994"/>
<text text-anchor="start" x="175.5" y="-1030.3994" font-family="Helvetica,sans-Serif" font-size="11.00" fill="#000000">...</text>
<polygon fill="#ffffff" stroke="transparent" points="172.5,-1005.2994 172.5,-1024.2994 231.5,-1024.2994 231.5,-1005.2994 172.5,-1005.2994"/>
<polygon fill="none" stroke="#000000" points="172.5,-1005.2994 172.5,-1024.2994 231.5,-1024.2994 231.5,-1005.2994 172.5,-1005.2994"/>
<text text-anchor="start" x="175.5" y="-1011.3994" font-family="Helvetica,sans-Serif" font-size="11.00" fill="#000000">&lt; 1</text>
<polygon fill="#ffffff" stroke="transparent" points="231.5,-1005.2994 231.5,-1024.2994 288.5,-1024.2994 288.5,-1005.2994 231.5,-1005.2994"/>
<polygon fill="none" stroke="#000000" points="231.5,-1005.2994 231.5,-1024.2994 288.5,-1024.2994 288.5,-1005.2994 231.5,-1005.2994"/>
<text text-anchor="start" x="253.1105" y="-1011.3994" font-family="Helvetica,sans-Serif" font-size="11.00" fill="#000000">0 rows</text>
<polygon fill="#ffffff" stroke="transparent" points="288.5,-1005.2994 288.5,-1024.2994 319.5,-1024.2994 319.5,-1005.2994 288.5,-1005.2994"/>
<polygon fill="none" stroke="#000000" points="288.5,-1005.2994 288.5,-1024.2994 319.5,-1024.2994 319.5,-1005.2994 288.5,-1005.2994"/>
<text text-anchor="start" x="310.3862" y="-1011.3994" font-family="Helvetica,sans-Serif" font-size="11.00" fill="#000000"> &#160;</text>
</a>
</g>
</g>
<!-- AspNetUserLogins&#45;&gt;AspNetUsers -->
<g id="edge2" class="edge">
<title>AspNetUserLogins:w&#45;&gt;AspNetUsers:e</title>
<path fill="none" stroke="#000000" d="M160.1433,-1025.853C115.8904,-973.048 79.4977,-654.2066 68.4491,-547.8208"/>
<polygon fill="#000000" stroke="#000000" points="165.648,-1029.1702 170.6418,-1036.3828 169.074,-1031.2348 172.5,-1033.2994 172.5,-1033.2994 172.5,-1033.2994 169.074,-1031.2348 174.3582,-1030.216 165.648,-1029.1702 165.648,-1029.1702"/>
<ellipse fill="none" stroke="#000000" cx="162.9072" cy="-1027.5185" rx="3.2" ry="3.2"/>
</g>
<!-- AspNetUserRoles -->
<g id="node4" class="node">
<title>AspNetUserRoles</title>
<g id="a_node4"><a xlink:href="../../tables/AspNetUserRoles.html" xlink:title="AspNetUserRoles" target="_top">
<polygon fill="#ffffff" stroke="transparent" points="175.5,-923.7994 175.5,-984.7994 315.5,-984.7994 315.5,-923.7994 175.5,-923.7994"/>
<polygon fill="#f5f5f5" stroke="transparent" points="175.5,-961.2994 175.5,-984.2994 315.5,-984.2994 315.5,-961.2994 175.5,-961.2994"/>
<polygon fill="none" stroke="#000000" points="175.5,-961.2994 175.5,-984.2994 315.5,-984.2994 315.5,-961.2994 175.5,-961.2994"/>
<text text-anchor="start" x="180.5" y="-969.8994" font-family="Helvetica,sans-Serif" font-weight="bold" font-size="11.00" fill="#000000">AspNetUserRoles</text>
<text text-anchor="start" x="281.0219" y="-969.3994" font-family="Helvetica,sans-Serif" font-size="11.00" fill="#000000">[table]</text>
<polygon fill="none" stroke="#000000" points="175.5,-942.2994 175.5,-961.2994 315.5,-961.2994 315.5,-942.2994 175.5,-942.2994"/>
<text text-anchor="start" x="178.5" y="-948.3994" font-family="Helvetica,sans-Serif" font-size="11.00" fill="#000000">...</text>
<polygon fill="#ffffff" stroke="transparent" points="175.5,-923.2994 175.5,-942.2994 233.5,-942.2994 233.5,-923.2994 175.5,-923.2994"/>
<polygon fill="none" stroke="#000000" points="175.5,-923.2994 175.5,-942.2994 233.5,-942.2994 233.5,-923.2994 175.5,-923.2994"/>
<text text-anchor="start" x="178.5" y="-929.3994" font-family="Helvetica,sans-Serif" font-size="11.00" fill="#000000">&lt; 2</text>
<polygon fill="#ffffff" stroke="transparent" points="233.5,-923.2994 233.5,-942.2994 284.5,-942.2994 284.5,-923.2994 233.5,-923.2994"/>
<polygon fill="none" stroke="#000000" points="233.5,-923.2994 233.5,-942.2994 284.5,-942.2994 284.5,-923.2994 233.5,-923.2994"/>
<text text-anchor="start" x="254.6105" y="-929.3994" font-family="Helvetica,sans-Serif" font-size="11.00" fill="#000000">1 row</text>
<polygon fill="#ffffff" stroke="transparent" points="284.5,-923.2994 284.5,-942.2994 315.5,-942.2994 315.5,-923.2994 284.5,-923.2994"/>
<polygon fill="none" stroke="#000000" points="284.5,-923.2994 284.5,-942.2994 315.5,-942.2994 315.5,-923.2994 284.5,-923.2994"/>
<text text-anchor="start" x="306.3862" y="-929.3994" font-family="Helvetica,sans-Serif" font-size="11.00" fill="#000000"> &#160;</text>
</a>
</g>
</g>
<!-- AspNetUserRoles&#45;&gt;AspNetUsers -->
<g id="edge3" class="edge">
<title>AspNetUserRoles:w&#45;&gt;AspNetUsers:e</title>
<path fill="none" stroke="#000000" d="M161.0872,-948.1138C89.9523,-915.7303 70.8993,-645.3586 66.3207,-548.0347"/>
<polygon fill="#000000" stroke="#000000" points="167.6885,-949.5728 174.723,-954.8146 171.5943,-950.4361 175.5,-951.2994 175.5,-951.2994 175.5,-951.2994 171.5943,-950.4361 176.277,-947.7843 167.6885,-949.5728 167.6885,-949.5728"/>
<ellipse fill="none" stroke="#000000" cx="164.5639" cy="-948.8822" rx="3.2" ry="3.2"/>
</g>
<!-- AspNetUserTokens -->
<g id="node5" class="node">
<title>AspNetUserTokens</title>
<g id="a_node5"><a xlink:href="../../tables/AspNetUserTokens.html" xlink:title="AspNetUserTokens" target="_top">
<polygon fill="#ffffff" stroke="transparent" points="171,-841.7994 171,-902.7994 320,-902.7994 320,-841.7994 171,-841.7994"/>
<polygon fill="#f5f5f5" stroke="transparent" points="171.5,-879.2994 171.5,-902.2994 320.5,-902.2994 320.5,-879.2994 171.5,-879.2994"/>
<polygon fill="none" stroke="#000000" points="171.5,-879.2994 171.5,-902.2994 320.5,-902.2994 320.5,-879.2994 171.5,-879.2994"/>
<text text-anchor="start" x="176.5" y="-887.8994" font-family="Helvetica,sans-Serif" font-weight="bold" font-size="11.00" fill="#000000">AspNetUserTokens</text>
<text text-anchor="start" x="286.0219" y="-887.3994" font-family="Helvetica,sans-Serif" font-size="11.00" fill="#000000">[table]</text>
<polygon fill="none" stroke="#000000" points="171.5,-860.2994 171.5,-879.2994 320.5,-879.2994 320.5,-860.2994 171.5,-860.2994"/>
<text text-anchor="start" x="174.5" y="-866.3994" font-family="Helvetica,sans-Serif" font-size="11.00" fill="#000000">...</text>
<polygon fill="#ffffff" stroke="transparent" points="171.5,-841.2994 171.5,-860.2994 231.5,-860.2994 231.5,-841.2994 171.5,-841.2994"/>
<polygon fill="none" stroke="#000000" points="171.5,-841.2994 171.5,-860.2994 231.5,-860.2994 231.5,-841.2994 171.5,-841.2994"/>
<text text-anchor="start" x="174.5" y="-847.3994" font-family="Helvetica,sans-Serif" font-size="11.00" fill="#000000">&lt; 1</text>
<polygon fill="#ffffff" stroke="transparent" points="231.5,-841.2994 231.5,-860.2994 288.5,-860.2994 288.5,-841.2994 231.5,-841.2994"/>
<polygon fill="none" stroke="#000000" points="231.5,-841.2994 231.5,-860.2994 288.5,-860.2994 288.5,-841.2994 231.5,-841.2994"/>
<text text-anchor="start" x="253.1105" y="-847.3994" font-family="Helvetica,sans-Serif" font-size="11.00" fill="#000000">0 rows</text>
<polygon fill="#ffffff" stroke="transparent" points="288.5,-841.2994 288.5,-860.2994 320.5,-860.2994 320.5,-841.2994 288.5,-841.2994"/>
<polygon fill="none" stroke="#000000" points="288.5,-841.2994 288.5,-860.2994 320.5,-860.2994 320.5,-841.2994 288.5,-841.2994"/>
<text text-anchor="start" x="311.3862" y="-847.3994" font-family="Helvetica,sans-Serif" font-size="11.00" fill="#000000"> &#160;</text>
</a>
</g>
</g>
<!-- AspNetUserTokens&#45;&gt;AspNetUsers -->
<g id="edge4" class="edge">
<title>AspNetUserTokens:w&#45;&gt;AspNetUsers:e</title>
<path fill="none" stroke="#000000" d="M157.2924,-865.6243C100.7787,-835.6982 75.8133,-631.0128 67.9345,-548.0824"/>
<polygon fill="#000000" stroke="#000000" points="163.7549,-867.296 170.5984,-872.7847 167.6275,-868.2977 171.5,-869.2994 171.5,-869.2994 171.5,-869.2994 167.6275,-868.2977 172.4016,-865.8142 163.7549,-867.296 163.7549,-867.296"/>
<ellipse fill="none" stroke="#000000" cx="160.6569" cy="-866.4946" rx="3.2" ry="3.2"/>
</g>
<!-- Competencies -->
<g id="node6" class="node">
<title>Competencies</title>
<g id="a_node6"><a xlink:href="../../tables/Competencies.html" xlink:title="Competencies" target="_top">
<polygon fill="#ffffff" stroke="transparent" points="185,-719.7994 185,-780.7994 306,-780.7994 306,-719.7994 185,-719.7994"/>
<polygon fill="#f5f5f5" stroke="transparent" points="185.5,-757.2994 185.5,-780.2994 306.5,-780.2994 306.5,-757.2994 185.5,-757.2994"/>
<polygon fill="none" stroke="#000000" points="185.5,-757.2994 185.5,-780.2994 306.5,-780.2994 306.5,-757.2994 185.5,-757.2994"/>
<text text-anchor="start" x="190.5" y="-765.8994" font-family="Helvetica,sans-Serif" font-weight="bold" font-size="11.00" fill="#000000">Competencies</text>
<text text-anchor="start" x="272.0219" y="-765.3994" font-family="Helvetica,sans-Serif" font-size="11.00" fill="#000000">[table]</text>
<polygon fill="none" stroke="#000000" points="185.5,-738.2994 185.5,-757.2994 306.5,-757.2994 306.5,-738.2994 185.5,-738.2994"/>
<text text-anchor="start" x="188.5" y="-744.3994" font-family="Helvetica,sans-Serif" font-size="11.00" fill="#000000">...</text>
<polygon fill="#ffffff" stroke="transparent" points="185.5,-719.2994 185.5,-738.2994 226.5,-738.2994 226.5,-719.2994 185.5,-719.2994"/>
<polygon fill="none" stroke="#000000" points="185.5,-719.2994 185.5,-738.2994 226.5,-738.2994 226.5,-719.2994 185.5,-719.2994"/>
<text text-anchor="start" x="188.5" y="-725.3994" font-family="Helvetica,sans-Serif" font-size="11.00" fill="#000000">&lt; 2</text>
<polygon fill="#ffffff" stroke="transparent" points="226.5,-719.2994 226.5,-738.2994 274.5,-738.2994 274.5,-719.2994 226.5,-719.2994"/>
<polygon fill="none" stroke="#000000" points="226.5,-719.2994 226.5,-738.2994 274.5,-738.2994 274.5,-719.2994 226.5,-719.2994"/>
<text text-anchor="start" x="239.1105" y="-725.3994" font-family="Helvetica,sans-Serif" font-size="11.00" fill="#000000">5 rows</text>
<polygon fill="#ffffff" stroke="transparent" points="274.5,-719.2994 274.5,-738.2994 306.5,-738.2994 306.5,-719.2994 274.5,-719.2994"/>
<polygon fill="none" stroke="#000000" points="274.5,-719.2994 274.5,-738.2994 306.5,-738.2994 306.5,-719.2994 274.5,-719.2994"/>
<text text-anchor="start" x="287.9053" y="-725.3994" font-family="Helvetica,sans-Serif" font-size="11.00" fill="#000000">4 &gt;</text>
</a>
</g>
</g>
<!-- Competencies&#45;&gt;AspNetUsers -->
<g id="edge5" class="edge">
<title>Competencies:w&#45;&gt;AspNetUsers:e</title>
<path fill="none" stroke="#000000" d="M171.2851,-706.932C168.3682,-704.5025 165.5883,-701.9597 163,-699.2994 120.0688,-655.1755 91.846,-588.4796 77.1557,-548.0313"/>
<polygon fill="#000000" stroke="#000000" points="176.6882,-710.9644 180.9463,-718.6343 179.8939,-713.3568 183.0995,-715.7492 183.0995,-715.7492 183.0995,-715.7492 179.8939,-713.3568 185.2527,-712.8641 176.6882,-710.9644 176.6882,-710.9644"/>
<ellipse fill="none" stroke="#000000" cx="174.1236" cy="-709.0504" rx="3.2" ry="3.2"/>
</g>
<!-- Competencies&#45;&gt;AspNetUsers -->
<g id="edge6" class="edge">
<title>Competencies:w&#45;&gt;AspNetUsers:e</title>
<path fill="none" stroke="#000000" d="M165.8328,-715.0939C164.8659,-714.1775 163.9209,-713.2459 163,-712.2994 116.8065,-664.8226 87.6418,-591.2131 74.0407,-547.9899"/>
<polygon fill="#000000" stroke="#000000" points="170.7675,-719.205 174.6098,-727.0915 173.8408,-721.7653 176.9141,-724.3256 176.9141,-724.3256 176.9141,-724.3256 173.8408,-721.7653 179.2183,-721.5596 170.7675,-719.205 170.7675,-719.205"/>
<ellipse fill="none" stroke="#000000" cx="168.3089" cy="-717.1567" rx="3.2" ry="3.2"/>
</g>
<!-- CompetencyLevelDescriptions -->
<g id="node7" class="node">
<title>CompetencyLevelDescriptions</title>
<g id="a_node7"><a xlink:href="../../tables/CompetencyLevelDescriptions.html" xlink:title="CompetencyLevelDescriptions" target="_top">
<polygon fill="#ffffff" stroke="transparent" points="371.5,-1027.7994 371.5,-1088.7994 585.5,-1088.7994 585.5,-1027.7994 371.5,-1027.7994"/>
<polygon fill="#f5f5f5" stroke="transparent" points="371.5,-1065.2994 371.5,-1088.2994 585.5,-1088.2994 585.5,-1065.2994 371.5,-1065.2994"/>
<polygon fill="none" stroke="#000000" points="371.5,-1065.2994 371.5,-1088.2994 585.5,-1088.2994 585.5,-1065.2994 371.5,-1065.2994"/>
<text text-anchor="start" x="376.5" y="-1073.8994" font-family="Helvetica,sans-Serif" font-weight="bold" font-size="11.00" fill="#000000">CompetencyLevelDescriptions</text>
<text text-anchor="start" x="551.0219" y="-1073.3994" font-family="Helvetica,sans-Serif" font-size="11.00" fill="#000000">[table]</text>
<polygon fill="none" stroke="#000000" points="371.5,-1046.2994 371.5,-1065.2994 585.5,-1065.2994 585.5,-1046.2994 371.5,-1046.2994"/>
<text text-anchor="start" x="374.5" y="-1052.3994" font-family="Helvetica,sans-Serif" font-size="11.00" fill="#000000">...</text>
<polygon fill="#ffffff" stroke="transparent" points="371.5,-1027.2994 371.5,-1046.2994 460.5,-1046.2994 460.5,-1027.2994 371.5,-1027.2994"/>
<polygon fill="none" stroke="#000000" points="371.5,-1027.2994 371.5,-1046.2994 460.5,-1046.2994 460.5,-1027.2994 371.5,-1027.2994"/>
<text text-anchor="start" x="374.5" y="-1033.3994" font-family="Helvetica,sans-Serif" font-size="11.00" fill="#000000">&lt; 3</text>
<polygon fill="#ffffff" stroke="transparent" points="460.5,-1027.2994 460.5,-1046.2994 538.5,-1046.2994 538.5,-1027.2994 460.5,-1027.2994"/>
<polygon fill="none" stroke="#000000" points="460.5,-1027.2994 460.5,-1046.2994 538.5,-1046.2994 538.5,-1027.2994 460.5,-1027.2994"/>
<text text-anchor="start" x="496.9956" y="-1033.3994" font-family="Helvetica,sans-Serif" font-size="11.00" fill="#000000">20 rows</text>
<polygon fill="#ffffff" stroke="transparent" points="538.5,-1027.2994 538.5,-1046.2994 585.5,-1046.2994 585.5,-1027.2994 538.5,-1027.2994"/>
<polygon fill="none" stroke="#000000" points="538.5,-1027.2994 538.5,-1046.2994 585.5,-1046.2994 585.5,-1027.2994 538.5,-1027.2994"/>
<text text-anchor="start" x="576.3862" y="-1033.3994" font-family="Helvetica,sans-Serif" font-size="11.00" fill="#000000"> &#160;</text>
</a>
</g>
</g>
<!-- CompetencyLevelDescriptions&#45;&gt;AspNetUsers -->
<g id="edge8" class="edge">
<title>CompetencyLevelDescriptions:w&#45;&gt;AspNetUsers:e</title>
<path fill="none" stroke="#000000" d="M356.846,-1053.0569C283.4442,-1033.0939 393.8132,-895.0098 328,-825.2994 276.1993,-770.4313 218.9838,-835.8923 163,-785.2994 93.1388,-722.1656 73.0761,-606.1714 67.317,-548.1465"/>
<polygon fill="#000000" stroke="#000000" points="363.5921,-1054.0892 370.9554,-1058.858 367.546,-1054.6943 371.5,-1055.2994 371.5,-1055.2994 371.5,-1055.2994 367.546,-1054.6943 372.0446,-1051.7409 363.5921,-1054.0892 363.5921,-1054.0892"/>
<ellipse fill="none" stroke="#000000" cx="360.4289" cy="-1053.6051" rx="3.2" ry="3.2"/>
</g>
<!-- CompetencyLevelDescriptions&#45;&gt;AspNetUsers -->
<g id="edge9" class="edge">
<title>CompetencyLevelDescriptions:w&#45;&gt;AspNetUsers:e</title>
<path fill="none" stroke="#000000" d="M356.846,-1055.0752C283.4442,-1046.0939 393.8132,-908.0098 328,-838.2994 276.1993,-783.4313 218.9838,-848.8923 163,-798.2994 89.9116,-732.2491 71.3288,-608.3418 66.6069,-547.9597"/>
<polygon fill="#000000" stroke="#000000" points="363.5009,-1055.177 371.4449,-1058.899 367.5005,-1055.2382 371.5,-1055.2994 371.5,-1055.2994 371.5,-1055.2994 367.5005,-1055.2382 371.5551,-1051.6999 363.5009,-1055.177 363.5009,-1055.177"/>
<ellipse fill="none" stroke="#000000" cx="360.3013" cy="-1055.128" rx="3.2" ry="3.2"/>
</g>
<!-- CompetencyLevelDescriptions&#45;&gt;Competencies -->
<g id="edge7" class="edge">
<title>CompetencyLevelDescriptions:w&#45;&gt;Competencies:e</title>
<path fill="none" stroke="#000000" d="M357.6961,-1050.0191C321.3236,-1016.9887 358.4496,-838.788 328,-795.2994 324.1634,-789.8199 319.4395,-784.9413 314.2111,-780.6116"/>
<polygon fill="#000000" stroke="#000000" points="364.028,-1052.4412 370.2138,-1058.6618 367.764,-1053.8703 371.5,-1055.2994 371.5,-1055.2994 371.5,-1055.2994 367.764,-1053.8703 372.7862,-1051.937 364.028,-1052.4412 364.028,-1052.4412"/>
<ellipse fill="none" stroke="#000000" cx="361.0392" cy="-1051.2979" rx="3.2" ry="3.2"/>
</g>
<!-- CompetencyTechnicalCareer -->
<g id="node8" class="node">
<title>CompetencyTechnicalCareer</title>
<g id="a_node8"><a xlink:href="../../tables/CompetencyTechnicalCareer.html" xlink:title="CompetencyTechnicalCareer" target="_top">
<polygon fill="#ffffff" stroke="transparent" points="376.5,-564.7994 376.5,-625.7994 580.5,-625.7994 580.5,-564.7994 376.5,-564.7994"/>
<polygon fill="#f5f5f5" stroke="transparent" points="376.5,-602.2994 376.5,-625.2994 580.5,-625.2994 580.5,-602.2994 376.5,-602.2994"/>
<polygon fill="none" stroke="#000000" points="376.5,-602.2994 376.5,-625.2994 580.5,-625.2994 580.5,-602.2994 376.5,-602.2994"/>
<text text-anchor="start" x="381.5" y="-610.8994" font-family="Helvetica,sans-Serif" font-weight="bold" font-size="11.00" fill="#000000">CompetencyTechnicalCareer</text>
<text text-anchor="start" x="546.0219" y="-610.3994" font-family="Helvetica,sans-Serif" font-size="11.00" fill="#000000">[table]</text>
<polygon fill="none" stroke="#000000" points="376.5,-583.2994 376.5,-602.2994 580.5,-602.2994 580.5,-583.2994 376.5,-583.2994"/>
<text text-anchor="start" x="379.5" y="-589.3994" font-family="Helvetica,sans-Serif" font-size="11.00" fill="#000000">...</text>
<polygon fill="#ffffff" stroke="transparent" points="376.5,-564.2994 376.5,-583.2994 463.5,-583.2994 463.5,-564.2994 376.5,-564.2994"/>
<polygon fill="none" stroke="#000000" points="376.5,-564.2994 376.5,-583.2994 463.5,-583.2994 463.5,-564.2994 376.5,-564.2994"/>
<text text-anchor="start" x="379.5" y="-570.3994" font-family="Helvetica,sans-Serif" font-size="11.00" fill="#000000">&lt; 2</text>
<polygon fill="#ffffff" stroke="transparent" points="463.5,-564.2994 463.5,-583.2994 534.5,-583.2994 534.5,-564.2994 463.5,-564.2994"/>
<polygon fill="none" stroke="#000000" points="463.5,-564.2994 463.5,-583.2994 534.5,-583.2994 534.5,-564.2994 463.5,-564.2994"/>
<text text-anchor="start" x="499.1105" y="-570.3994" font-family="Helvetica,sans-Serif" font-size="11.00" fill="#000000">0 rows</text>
<polygon fill="#ffffff" stroke="transparent" points="534.5,-564.2994 534.5,-583.2994 580.5,-583.2994 580.5,-564.2994 534.5,-564.2994"/>
<polygon fill="none" stroke="#000000" points="534.5,-564.2994 534.5,-583.2994 580.5,-583.2994 580.5,-564.2994 534.5,-564.2994"/>
<text text-anchor="start" x="571.3862" y="-570.3994" font-family="Helvetica,sans-Serif" font-size="11.00" fill="#000000"> &#160;</text>
</a>
</g>
</g>
<!-- CompetencyTechnicalCareer&#45;&gt;Competencies -->
<g id="edge10" class="edge">
<title>CompetencyTechnicalCareer:w&#45;&gt;Competencies:e</title>
<path fill="none" stroke="#000000" d="M362.4801,-596.3332C331.1452,-612.7374 289.7203,-675.4746 265.5047,-715.6257"/>
<polygon fill="#000000" stroke="#000000" points="368.8119,-594.5115 377.4954,-595.7591 372.6559,-593.4055 376.5,-592.2994 376.5,-592.2994 376.5,-592.2994 372.6559,-593.4055 375.5046,-588.8398 368.8119,-594.5115 368.8119,-594.5115"/>
<ellipse fill="none" stroke="#000000" cx="365.7366" cy="-595.3963" rx="3.2" ry="3.2"/>
</g>
<!-- TechnicalCareers -->
<g id="node9" class="node">
<title>TechnicalCareers</title>
<g id="a_node9"><a xlink:href="../../tables/TechnicalCareers.html" xlink:title="TechnicalCareers" target="_top">
<polygon fill="#ffffff" stroke="transparent" points="176,-421.7994 176,-482.7994 315,-482.7994 315,-421.7994 176,-421.7994"/>
<polygon fill="#f5f5f5" stroke="transparent" points="176.5,-459.2994 176.5,-482.2994 315.5,-482.2994 315.5,-459.2994 176.5,-459.2994"/>
<polygon fill="none" stroke="#000000" points="176.5,-459.2994 176.5,-482.2994 315.5,-482.2994 315.5,-459.2994 176.5,-459.2994"/>
<text text-anchor="start" x="181.5" y="-467.8994" font-family="Helvetica,sans-Serif" font-weight="bold" font-size="11.00" fill="#000000">TechnicalCareers</text>
<text text-anchor="start" x="281.0219" y="-467.3994" font-family="Helvetica,sans-Serif" font-size="11.00" fill="#000000">[table]</text>
<polygon fill="none" stroke="#000000" points="176.5,-440.2994 176.5,-459.2994 315.5,-459.2994 315.5,-440.2994 176.5,-440.2994"/>
<text text-anchor="start" x="179.5" y="-446.3994" font-family="Helvetica,sans-Serif" font-size="11.00" fill="#000000">...</text>
<polygon fill="#ffffff" stroke="transparent" points="176.5,-421.2994 176.5,-440.2994 226.5,-440.2994 226.5,-421.2994 176.5,-421.2994"/>
<polygon fill="none" stroke="#000000" points="176.5,-421.2994 176.5,-440.2994 226.5,-440.2994 226.5,-421.2994 176.5,-421.2994"/>
<text text-anchor="start" x="179.5" y="-427.3994" font-family="Helvetica,sans-Serif" font-size="11.00" fill="#000000">&lt; 2</text>
<polygon fill="#ffffff" stroke="transparent" points="226.5,-421.2994 226.5,-440.2994 279.5,-440.2994 279.5,-421.2994 226.5,-421.2994"/>
<polygon fill="none" stroke="#000000" points="226.5,-421.2994 226.5,-440.2994 279.5,-440.2994 279.5,-421.2994 226.5,-421.2994"/>
<text text-anchor="start" x="244.1105" y="-427.3994" font-family="Helvetica,sans-Serif" font-size="11.00" fill="#000000">6 rows</text>
<polygon fill="#ffffff" stroke="transparent" points="279.5,-421.2994 279.5,-440.2994 315.5,-440.2994 315.5,-421.2994 279.5,-421.2994"/>
<polygon fill="none" stroke="#000000" points="279.5,-421.2994 279.5,-440.2994 315.5,-440.2994 315.5,-421.2994 279.5,-421.2994"/>
<text text-anchor="start" x="296.9053" y="-427.3994" font-family="Helvetica,sans-Serif" font-size="11.00" fill="#000000">6 &gt;</text>
</a>
</g>
</g>
<!-- CompetencyTechnicalCareer&#45;&gt;TechnicalCareers -->
<g id="edge11" class="edge">
<title>CompetencyTechnicalCareer:w&#45;&gt;TechnicalCareers:e</title>
<path fill="none" stroke="#000000" d="M362.2875,-589.5705C319.0836,-569.8008 378.9284,-449.2994 315.5,-449.2994"/>
<polygon fill="#000000" stroke="#000000" points="368.6435,-590.7909 375.8211,-595.8349 372.5718,-591.5452 376.5,-592.2994 376.5,-592.2994 376.5,-592.2994 372.5718,-591.5452 377.1789,-588.764 368.6435,-590.7909 368.6435,-590.7909"/>
<ellipse fill="none" stroke="#000000" cx="365.5009" cy="-590.1875" rx="3.2" ry="3.2"/>
</g>
<!-- TechnicalCareers&#45;&gt;AspNetUsers -->
<g id="edge50" class="edge">
<title>TechnicalCareers:w&#45;&gt;AspNetUsers:e</title>
<path fill="none" stroke="#000000" d="M161.9817,-449.2116C137.535,-451.3844 114.4414,-464.7023 96.9264,-478.6804"/>
<polygon fill="#000000" stroke="#000000" points="168.5001,-449.251 176.4782,-452.8994 172.5001,-449.2752 176.5,-449.2994 176.5,-449.2994 176.5,-449.2994 172.5001,-449.2752 176.5218,-445.6995 168.5001,-449.251 168.5001,-449.251"/>
<ellipse fill="none" stroke="#000000" cx="165.3002" cy="-449.2316" rx="3.2" ry="3.2"/>
</g>
<!-- TechnicalCareers&#45;&gt;AspNetUsers -->
<g id="edge51" class="edge">
<title>TechnicalCareers:w&#45;&gt;AspNetUsers:e</title>
<path fill="none" stroke="#000000" d="M162.2485,-452.178C143.3123,-457.4375 125.1782,-467.9315 109.8075,-478.793"/>
<polygon fill="#000000" stroke="#000000" points="168.6584,-450.8834 177.2128,-452.8282 172.5792,-450.0914 176.5,-449.2994 176.5,-449.2994 176.5,-449.2994 172.5792,-450.0914 175.7872,-445.7707 168.6584,-450.8834 168.6584,-450.8834"/>
<ellipse fill="none" stroke="#000000" cx="165.5217" cy="-451.5169" rx="3.2" ry="3.2"/>
</g>
<!-- Coordinators -->
<g id="node10" class="node">
<title>Coordinators</title>
<g id="a_node10"><a xlink:href="../../tables/Coordinators.html" xlink:title="Coordinators" target="_top">
<polygon fill="#ffffff" stroke="transparent" points="421.5,-372.7994 421.5,-433.7994 535.5,-433.7994 535.5,-372.7994 421.5,-372.7994"/>
<polygon fill="#f5f5f5" stroke="transparent" points="421.5,-410.2994 421.5,-433.2994 535.5,-433.2994 535.5,-410.2994 421.5,-410.2994"/>
<polygon fill="none" stroke="#000000" points="421.5,-410.2994 421.5,-433.2994 535.5,-433.2994 535.5,-410.2994 421.5,-410.2994"/>
<text text-anchor="start" x="426.5" y="-418.8994" font-family="Helvetica,sans-Serif" font-weight="bold" font-size="11.00" fill="#000000">Coordinators</text>
<text text-anchor="start" x="501.0219" y="-418.3994" font-family="Helvetica,sans-Serif" font-size="11.00" fill="#000000">[table]</text>
<polygon fill="none" stroke="#000000" points="421.5,-391.2994 421.5,-410.2994 535.5,-410.2994 535.5,-391.2994 421.5,-391.2994"/>
<text text-anchor="start" x="424.5" y="-397.3994" font-family="Helvetica,sans-Serif" font-size="11.00" fill="#000000">...</text>
<polygon fill="#ffffff" stroke="transparent" points="421.5,-372.2994 421.5,-391.2994 463.5,-391.2994 463.5,-372.2994 421.5,-372.2994"/>
<polygon fill="none" stroke="#000000" points="421.5,-372.2994 421.5,-391.2994 463.5,-391.2994 463.5,-372.2994 421.5,-372.2994"/>
<text text-anchor="start" x="424.5" y="-378.3994" font-family="Helvetica,sans-Serif" font-size="11.00" fill="#000000">&lt; 2</text>
<polygon fill="#ffffff" stroke="transparent" points="463.5,-372.2994 463.5,-391.2994 512.5,-391.2994 512.5,-372.2994 463.5,-372.2994"/>
<polygon fill="none" stroke="#000000" points="463.5,-372.2994 463.5,-391.2994 512.5,-391.2994 512.5,-372.2994 463.5,-372.2994"/>
<text text-anchor="start" x="477.1105" y="-378.3994" font-family="Helvetica,sans-Serif" font-size="11.00" fill="#000000">0 rows</text>
<polygon fill="#ffffff" stroke="transparent" points="512.5,-372.2994 512.5,-391.2994 535.5,-391.2994 535.5,-372.2994 512.5,-372.2994"/>
<polygon fill="none" stroke="#000000" points="512.5,-372.2994 512.5,-391.2994 535.5,-391.2994 535.5,-372.2994 512.5,-372.2994"/>
<text text-anchor="start" x="526.3862" y="-378.3994" font-family="Helvetica,sans-Serif" font-size="11.00" fill="#000000"> &#160;</text>
</a>
</g>
</g>
<!-- Coordinators&#45;&gt;AspNetUsers -->
<g id="edge13" class="edge">
<title>Coordinators:w&#45;&gt;AspNetUsers:e</title>
<path fill="none" stroke="#000000" d="M410.9386,-400.1967C304.0241,-398.112 264.5368,-365.4726 163,-411.2994 131.4398,-425.5436 104.9159,-455.0396 87.4545,-478.6655"/>
<polygon fill="#000000" stroke="#000000" points="420.739,-396.2918 420.6611,-404.2915 419.0612,-404.2759 419.139,-396.2763 420.739,-396.2918"/>
<polyline fill="none" stroke="#000000" points="421.5,-400.2994 417.5002,-400.2605 "/>
<ellipse fill="none" stroke="#000000" cx="414.3003" cy="-400.2294" rx="3.2" ry="3.2"/>
</g>
<!-- Coordinators&#45;&gt;TechnicalCareers -->
<g id="edge12" class="edge">
<title>Coordinators:w&#45;&gt;TechnicalCareers:e</title>
<path fill="none" stroke="#000000" d="M407.1203,-401.7131C368.6398,-409.7471 362.1299,-449.2994 315.5,-449.2994"/>
<polygon fill="#000000" stroke="#000000" points="413.5384,-401.0822 421.8522,-403.8822 417.5192,-400.6908 421.5,-400.2994 421.5,-400.2994 421.5,-400.2994 417.5192,-400.6908 421.1478,-396.7167 413.5384,-401.0822 413.5384,-401.0822"/>
<ellipse fill="none" stroke="#000000" cx="410.3537" cy="-401.3953" rx="3.2" ry="3.2"/>
</g>
<!-- EvaluationPeriods -->
<g id="node11" class="node">
<title>EvaluationPeriods</title>
<g id="a_node11"><a xlink:href="../../tables/EvaluationPeriods.html" xlink:title="EvaluationPeriods" target="_top">
<polygon fill="#ffffff" stroke="transparent" points="407,-290.7994 407,-351.7994 550,-351.7994 550,-290.7994 407,-290.7994"/>
<polygon fill="#f5f5f5" stroke="transparent" points="407.5,-328.2994 407.5,-351.2994 550.5,-351.2994 550.5,-328.2994 407.5,-328.2994"/>
<polygon fill="none" stroke="#000000" points="407.5,-328.2994 407.5,-351.2994 550.5,-351.2994 550.5,-328.2994 407.5,-328.2994"/>
<text text-anchor="start" x="412.5" y="-336.8994" font-family="Helvetica,sans-Serif" font-weight="bold" font-size="11.00" fill="#000000">EvaluationPeriods</text>
<text text-anchor="start" x="516.0219" y="-336.3994" font-family="Helvetica,sans-Serif" font-size="11.00" fill="#000000">[table]</text>
<polygon fill="none" stroke="#000000" points="407.5,-309.2994 407.5,-328.2994 550.5,-328.2994 550.5,-309.2994 407.5,-309.2994"/>
<text text-anchor="start" x="410.5" y="-315.3994" font-family="Helvetica,sans-Serif" font-size="11.00" fill="#000000">...</text>
<polygon fill="#ffffff" stroke="transparent" points="407.5,-290.2994 407.5,-309.2994 459.5,-309.2994 459.5,-290.2994 407.5,-290.2994"/>
<polygon fill="none" stroke="#000000" points="407.5,-290.2994 407.5,-309.2994 459.5,-309.2994 459.5,-290.2994 407.5,-290.2994"/>
<text text-anchor="start" x="410.5" y="-296.3994" font-family="Helvetica,sans-Serif" font-size="11.00" fill="#000000">&lt; 2</text>
<polygon fill="#ffffff" stroke="transparent" points="459.5,-290.2994 459.5,-309.2994 513.5,-309.2994 513.5,-290.2994 459.5,-290.2994"/>
<polygon fill="none" stroke="#000000" points="459.5,-290.2994 459.5,-309.2994 513.5,-309.2994 513.5,-290.2994 459.5,-290.2994"/>
<text text-anchor="start" x="478.1105" y="-296.3994" font-family="Helvetica,sans-Serif" font-size="11.00" fill="#000000">0 rows</text>
<polygon fill="#ffffff" stroke="transparent" points="513.5,-290.2994 513.5,-309.2994 550.5,-309.2994 550.5,-290.2994 513.5,-290.2994"/>
<polygon fill="none" stroke="#000000" points="513.5,-290.2994 513.5,-309.2994 550.5,-309.2994 550.5,-290.2994 513.5,-290.2994"/>
<text text-anchor="start" x="531.9053" y="-296.3994" font-family="Helvetica,sans-Serif" font-size="11.00" fill="#000000">3 &gt;</text>
</a>
</g>
</g>
<!-- EvaluationPeriods&#45;&gt;AspNetUsers -->
<g id="edge14" class="edge">
<title>EvaluationPeriods:w&#45;&gt;AspNetUsers:e</title>
<path fill="none" stroke="#000000" d="M393.0788,-317.5658C291.4484,-312.692 252.2741,-318.2161 163,-378.2994 125.6669,-403.4254 96.7189,-447.5345 80.2579,-478.5479"/>
<polygon fill="#000000" stroke="#000000" points="399.5103,-317.8929 407.3171,-321.8948 403.5052,-318.0962 407.5,-318.2994 407.5,-318.2994 407.5,-318.2994 403.5052,-318.0962 407.6829,-314.7041 399.5103,-317.8929 399.5103,-317.8929"/>
<ellipse fill="none" stroke="#000000" cx="396.3145" cy="-317.7303" rx="3.2" ry="3.2"/>
</g>
<!-- EvaluationPeriods&#45;&gt;AspNetUsers -->
<g id="edge15" class="edge">
<title>EvaluationPeriods:w&#45;&gt;AspNetUsers:e</title>
<path fill="none" stroke="#000000" d="M393.0788,-319.2054C291.4484,-325.692 252.2741,-331.2161 163,-391.2994 129.7502,-413.6773 103.1516,-451.1128 86.1019,-478.7015"/>
<polygon fill="#000000" stroke="#000000" points="399.5157,-318.8011 407.7257,-321.8924 403.5079,-318.5503 407.5,-318.2994 407.5,-318.2994 407.5,-318.2994 403.5079,-318.5503 407.2743,-314.7065 399.5157,-318.8011 399.5157,-318.8011"/>
<ellipse fill="none" stroke="#000000" cx="396.322" cy="-319.0017" rx="3.2" ry="3.2"/>
</g>
<!-- FormQuestions -->
<g id="node12" class="node">
<title>FormQuestions</title>
<g id="a_node12"><a xlink:href="../../tables/FormQuestions.html" xlink:title="FormQuestions" target="_top">
<polygon fill="#ffffff" stroke="transparent" points="369,-713.2994 369,-979.2994 588,-979.2994 588,-713.2994 369,-713.2994"/>
<polygon fill="#f5f5f5" stroke="transparent" points="371.5,-954.2994 371.5,-977.2994 586.5,-977.2994 586.5,-954.2994 371.5,-954.2994"/>
<polygon fill="none" stroke="#000000" points="371.5,-954.2994 371.5,-977.2994 586.5,-977.2994 586.5,-954.2994 371.5,-954.2994"/>
<text text-anchor="start" x="376.5" y="-962.8994" font-family="Helvetica,sans-Serif" font-weight="bold" font-size="11.00" fill="#000000">FormQuestions</text>
<text text-anchor="start" x="551.5437" y="-962.3994" font-family="Helvetica,sans-Serif" font-size="11.00" fill="#000000">[table]</text>
<polygon fill="none" stroke="#000000" points="371.5,-932.2994 371.5,-954.2994 492.5,-954.2994 492.5,-932.2994 371.5,-932.2994"/>
<image xlink:href="../../images/primaryKeys.png" width="11px" height="12px" preserveAspectRatio="xMinYMin meet" x="376.5" y="-949.299"/>
<text text-anchor="start" x="391.5" y="-939.3994" font-family="Helvetica,sans-Serif" font-size="11.00" fill="#000000">Id</text>
<polygon fill="none" stroke="#000000" points="492.5,-932.2994 492.5,-954.2994 586.5,-954.2994 586.5,-932.2994 492.5,-932.2994"/>
<text text-anchor="start" x="495.4758" y="-939.9994" font-family="Helvetica,sans-Serif" font-size="11.00" fill="#000000">uuid[2147483647]</text>
<polygon fill="none" stroke="#000000" points="371.5,-910.2994 371.5,-932.2994 492.5,-932.2994 492.5,-910.2994 371.5,-910.2994"/>
<text text-anchor="start" x="391.5" y="-917.3994" font-family="Helvetica,sans-Serif" font-size="11.00" fill="#000000">Text</text>
<polygon fill="none" stroke="#000000" points="492.5,-910.2994 492.5,-932.2994 586.5,-932.2994 586.5,-910.2994 492.5,-910.2994"/>
<text text-anchor="start" x="495.5" y="-917.9994" font-family="Helvetica,sans-Serif" font-size="11.00" fill="#000000">text[2147483647]</text>
<polygon fill="none" stroke="#000000" points="371.5,-888.2994 371.5,-910.2994 492.5,-910.2994 492.5,-888.2994 371.5,-888.2994"/>
<text text-anchor="start" x="391.5" y="-895.3994" font-family="Helvetica,sans-Serif" font-size="11.00" fill="#000000">IsRequired</text>
<polygon fill="none" stroke="#000000" points="492.5,-888.2994 492.5,-910.2994 586.5,-910.2994 586.5,-888.2994 492.5,-888.2994"/>
<text text-anchor="start" x="495.5" y="-895.9994" font-family="Helvetica,sans-Serif" font-size="11.00" fill="#000000">bool[1]</text>
<polygon fill="none" stroke="#000000" points="371.5,-866.2994 371.5,-888.2994 492.5,-888.2994 492.5,-866.2994 371.5,-866.2994"/>
<text text-anchor="start" x="391.5" y="-873.3994" font-family="Helvetica,sans-Serif" font-size="11.00" fill="#000000">Order</text>
<polygon fill="none" stroke="#000000" points="492.5,-866.2994 492.5,-888.2994 586.5,-888.2994 586.5,-866.2994 492.5,-866.2994"/>
<text text-anchor="start" x="495.5" y="-873.9994" font-family="Helvetica,sans-Serif" font-size="11.00" fill="#000000">int4[10]</text>
<polygon fill="#ffffff" stroke="transparent" points="371.5,-844.2994 371.5,-866.2994 492.5,-866.2994 492.5,-844.2994 371.5,-844.2994"/>
<polygon fill="none" stroke="#000000" points="371.5,-844.2994 371.5,-866.2994 492.5,-866.2994 492.5,-844.2994 371.5,-844.2994"/>
<image xlink:href="../../images/foreignKeys.png" width="11px" height="12px" preserveAspectRatio="xMinYMin meet" x="376.5" y="-861.299"/>
<text text-anchor="start" x="391.5" y="-851.3994" font-family="Helvetica,sans-Serif" font-size="11.00" fill="#000000">CompetencyId</text>
<polygon fill="none" stroke="#000000" points="492.5,-844.2994 492.5,-866.2994 586.5,-866.2994 586.5,-844.2994 492.5,-844.2994"/>
<text text-anchor="start" x="495.4758" y="-851.9994" font-family="Helvetica,sans-Serif" font-size="11.00" fill="#000000">uuid[2147483647]</text>
<polygon fill="none" stroke="#000000" points="371.5,-822.2994 371.5,-844.2994 492.5,-844.2994 492.5,-822.2994 371.5,-822.2994"/>
<text text-anchor="start" x="391.5" y="-829.3994" font-family="Helvetica,sans-Serif" font-size="11.00" fill="#000000">IsActive</text>
<polygon fill="none" stroke="#000000" points="492.5,-822.2994 492.5,-844.2994 586.5,-844.2994 586.5,-822.2994 492.5,-822.2994"/>
<text text-anchor="start" x="495.5" y="-829.9994" font-family="Helvetica,sans-Serif" font-size="11.00" fill="#000000">bool[1]</text>
<polygon fill="none" stroke="#000000" points="371.5,-800.2994 371.5,-822.2994 492.5,-822.2994 492.5,-800.2994 371.5,-800.2994"/>
<text text-anchor="start" x="391.5" y="-807.3994" font-family="Helvetica,sans-Serif" font-size="11.00" fill="#000000">CreatedAt</text>
<polygon fill="none" stroke="#000000" points="492.5,-800.2994 492.5,-822.2994 586.5,-822.2994 586.5,-800.2994 492.5,-800.2994"/>
<text text-anchor="start" x="495.5" y="-807.9994" font-family="Helvetica,sans-Serif" font-size="11.00" fill="#000000">timestamptz[35,6]</text>
<polygon fill="none" stroke="#000000" points="371.5,-778.2994 371.5,-800.2994 492.5,-800.2994 492.5,-778.2994 371.5,-778.2994"/>
<text text-anchor="start" x="391.5" y="-785.3994" font-family="Helvetica,sans-Serif" font-size="11.00" fill="#000000">UpdatedAt</text>
<polygon fill="none" stroke="#000000" points="492.5,-778.2994 492.5,-800.2994 586.5,-800.2994 586.5,-778.2994 492.5,-778.2994"/>
<text text-anchor="start" x="495.5" y="-785.9994" font-family="Helvetica,sans-Serif" font-size="11.00" fill="#000000">timestamptz[35,6]</text>
<polygon fill="#ffffff" stroke="transparent" points="371.5,-756.2994 371.5,-778.2994 492.5,-778.2994 492.5,-756.2994 371.5,-756.2994"/>
<polygon fill="none" stroke="#000000" points="371.5,-756.2994 371.5,-778.2994 492.5,-778.2994 492.5,-756.2994 371.5,-756.2994"/>
<image xlink:href="../../images/foreignKeys.png" width="11px" height="12px" preserveAspectRatio="xMinYMin meet" x="376.5" y="-773.299"/>
<text text-anchor="start" x="391.5" y="-763.3994" font-family="Helvetica,sans-Serif" font-size="11.00" fill="#000000">CreatedByUserId</text>
<polygon fill="none" stroke="#000000" points="492.5,-756.2994 492.5,-778.2994 586.5,-778.2994 586.5,-756.2994 492.5,-756.2994"/>
<text text-anchor="start" x="495.5" y="-763.9994" font-family="Helvetica,sans-Serif" font-size="11.00" fill="#000000">text[2147483647]</text>
<polygon fill="#ffffff" stroke="transparent" points="371.5,-734.2994 371.5,-756.2994 492.5,-756.2994 492.5,-734.2994 371.5,-734.2994"/>
<polygon fill="none" stroke="#000000" points="371.5,-734.2994 371.5,-756.2994 492.5,-756.2994 492.5,-734.2994 371.5,-734.2994"/>
<image xlink:href="../../images/foreignKeys.png" width="11px" height="12px" preserveAspectRatio="xMinYMin meet" x="376.5" y="-751.299"/>
<text text-anchor="start" x="391.5" y="-741.3994" font-family="Helvetica,sans-Serif" font-size="11.00" fill="#000000">UpdatedByUserId</text>
<polygon fill="none" stroke="#000000" points="492.5,-734.2994 492.5,-756.2994 586.5,-756.2994 586.5,-734.2994 492.5,-734.2994"/>
<text text-anchor="start" x="495.5" y="-741.9994" font-family="Helvetica,sans-Serif" font-size="11.00" fill="#000000">text[2147483647]</text>
<polygon fill="#ffffff" stroke="transparent" points="371.5,-715.2994 371.5,-734.2994 423.5,-734.2994 423.5,-715.2994 371.5,-715.2994"/>
<polygon fill="none" stroke="#000000" points="371.5,-715.2994 371.5,-734.2994 423.5,-734.2994 423.5,-715.2994 371.5,-715.2994"/>
<text text-anchor="start" x="374.5" y="-721.3994" font-family="Helvetica,sans-Serif" font-size="11.00" fill="#000000">&lt; 3</text>
<polygon fill="#ffffff" stroke="transparent" points="423.5,-715.2994 423.5,-734.2994 492.5,-734.2994 492.5,-715.2994 423.5,-715.2994"/>
<polygon fill="none" stroke="#000000" points="423.5,-715.2994 423.5,-734.2994 492.5,-734.2994 492.5,-715.2994 423.5,-715.2994"/>
<text text-anchor="start" x="457.1105" y="-721.3994" font-family="Helvetica,sans-Serif" font-size="11.00" fill="#000000">0 rows</text>
<polygon fill="#ffffff" stroke="transparent" points="492.5,-715.2994 492.5,-734.2994 586.5,-734.2994 586.5,-715.2994 492.5,-715.2994"/>
<polygon fill="none" stroke="#000000" points="492.5,-715.2994 492.5,-734.2994 586.5,-734.2994 586.5,-715.2994 492.5,-715.2994"/>
<text text-anchor="start" x="567.9053" y="-721.3994" font-family="Helvetica,sans-Serif" font-size="11.00" fill="#000000">1 &gt;</text>
<polygon fill="none" stroke="#000000" stroke-width="2" points="370,-714.2994 370,-978.2994 587,-978.2994 587,-714.2994 370,-714.2994"/>
</a>
</g>
</g>
<!-- FormQuestions&#45;&gt;AspNetUsers -->
<g id="edge17" class="edge">
<title>FormQuestions:w&#45;&gt;AspNetUsers:e</title>
<path fill="none" stroke="#000000" d="M357.4642,-763.0935C343.9027,-752.2058 350.0163,-722.9956 328,-709.2994 264.6427,-669.8855 224.1472,-721.0618 163,-678.2994 117.54,-646.5077 89.7587,-586.2737 75.89,-548.0428"/>
<polygon fill="#000000" stroke="#000000" points="363.8367,-765.003 370.4666,-770.7479 367.6683,-766.1512 371.5,-767.2994 371.5,-767.2994 371.5,-767.2994 367.6683,-766.1512 372.5334,-763.8509 363.8367,-765.003 363.8367,-765.003"/>
<ellipse fill="none" stroke="#000000" cx="360.7713" cy="-764.0845" rx="3.2" ry="3.2"/>
</g>
<!-- FormQuestions&#45;&gt;AspNetUsers -->
<g id="edge18" class="edge">
<title>FormQuestions:w&#45;&gt;AspNetUsers:e</title>
<path fill="none" stroke="#000000" d="M357.3854,-741.1976C342.3052,-729.3707 352.1362,-695.0464 328,-679.2994 265.7042,-638.6562 225.9928,-690.8538 163,-651.2994 123.8051,-626.6882 95.744,-580.1255 79.9527,-547.9376"/>
<polygon fill="#000000" stroke="#000000" points="363.8178,-743.0669 370.4954,-748.7564 367.6589,-744.1832 371.5,-745.2994 371.5,-745.2994 371.5,-745.2994 367.6589,-744.1832 372.5046,-741.8425 363.8178,-743.0669 363.8178,-743.0669"/>
<ellipse fill="none" stroke="#000000" cx="360.7449" cy="-742.1739" rx="3.2" ry="3.2"/>
</g>
<!-- FormQuestions&#45;&gt;Competencies -->
<g id="edge16" class="edge">
<title>FormQuestions:w&#45;&gt;Competencies:e</title>
<path fill="none" stroke="#000000" d="M357.374,-851.6265C342.5083,-841.5369 348.0947,-812.9743 328,-795.2994 323.7123,-791.5281 319.055,-787.9468 314.2092,-784.5742"/>
<polygon fill="#000000" stroke="#000000" points="363.7574,-853.2862 370.5941,-858.7836 367.6287,-854.2928 371.5,-855.2994 371.5,-855.2994 371.5,-855.2994 367.6287,-854.2928 372.4059,-851.8153 363.7574,-853.2862 363.7574,-853.2862"/>
<ellipse fill="none" stroke="#000000" cx="360.6604" cy="-852.4809" rx="3.2" ry="3.2"/>
</g>
<!-- ProfessorCompetencyAssignments -->
<g id="node13" class="node">
<title>ProfessorCompetencyAssignments</title>
<g id="a_node13"><a xlink:href="../../tables/ProfessorCompetencyAssignments.html" xlink:title="ProfessorCompetencyAssignments" target="_top">
<polygon fill="#ffffff" stroke="transparent" points="637,-541.7994 637,-602.7994 879,-602.7994 879,-541.7994 637,-541.7994"/>
<polygon fill="#f5f5f5" stroke="transparent" points="637,-579.2994 637,-602.2994 879,-602.2994 879,-579.2994 637,-579.2994"/>
<polygon fill="none" stroke="#000000" points="637,-579.2994 637,-602.2994 879,-602.2994 879,-579.2994 637,-579.2994"/>
<text text-anchor="start" x="642" y="-587.8994" font-family="Helvetica,sans-Serif" font-weight="bold" font-size="11.00" fill="#000000">ProfessorCompetencyAssignments</text>
<text text-anchor="start" x="844.5219" y="-587.3994" font-family="Helvetica,sans-Serif" font-size="11.00" fill="#000000">[table]</text>
<polygon fill="none" stroke="#000000" points="637,-560.2994 637,-579.2994 879,-579.2994 879,-560.2994 637,-560.2994"/>
<text text-anchor="start" x="640" y="-566.3994" font-family="Helvetica,sans-Serif" font-size="11.00" fill="#000000">...</text>
<polygon fill="#ffffff" stroke="transparent" points="637,-541.2994 637,-560.2994 739,-560.2994 739,-541.2994 637,-541.2994"/>
<polygon fill="none" stroke="#000000" points="637,-541.2994 637,-560.2994 739,-560.2994 739,-541.2994 637,-541.2994"/>
<text text-anchor="start" x="640" y="-547.3994" font-family="Helvetica,sans-Serif" font-size="11.00" fill="#000000">&lt; 7</text>
<polygon fill="#ffffff" stroke="transparent" points="739,-541.2994 739,-560.2994 817,-560.2994 817,-541.2994 739,-541.2994"/>
<polygon fill="none" stroke="#000000" points="739,-541.2994 739,-560.2994 817,-560.2994 817,-541.2994 739,-541.2994"/>
<text text-anchor="start" x="781.6105" y="-547.3994" font-family="Helvetica,sans-Serif" font-size="11.00" fill="#000000">0 rows</text>
<polygon fill="#ffffff" stroke="transparent" points="817,-541.2994 817,-560.2994 879,-560.2994 879,-541.2994 817,-541.2994"/>
<polygon fill="none" stroke="#000000" points="817,-541.2994 817,-560.2994 879,-560.2994 879,-541.2994 817,-541.2994"/>
<text text-anchor="start" x="860.4053" y="-547.3994" font-family="Helvetica,sans-Serif" font-size="11.00" fill="#000000">1 &gt;</text>
</a>
</g>
</g>
<!-- ProfessorCompetencyAssignments&#45;&gt;AspNetUsers -->
<g id="edge20" class="edge">
<title>ProfessorCompetencyAssignments:w&#45;&gt;AspNetUsers:e</title>
<path fill="none" stroke="#000000" d="M622.6436,-570.9997C604.283,-581.6701 626.3538,-630.1436 596,-649.2994 507.6737,-705.0408 464.9261,-659.6921 361,-649.2994 316.3339,-644.8328 202.3427,-630.9135 163,-609.2994 135.6657,-594.2825 111.3335,-569.0621 93.7519,-548.1903"/>
<polygon fill="#000000" stroke="#000000" points="629.0555,-570.2404 637.4234,-572.8745 633.0278,-569.7699 637,-569.2994 637,-569.2994 637,-569.2994 633.0278,-569.7699 636.5766,-565.7244 629.0555,-570.2404 629.0555,-570.2404"/>
<ellipse fill="none" stroke="#000000" cx="625.8777" cy="-570.6168" rx="3.2" ry="3.2"/>
</g>
<!-- ProfessorCompetencyAssignments&#45;&gt;AspNetUsers -->
<g id="edge25" class="edge">
<title>ProfessorCompetencyAssignments:w&#45;&gt;AspNetUsers:e</title>
<path fill="none" stroke="#000000" d="M623.7007,-575.0849C603.4515,-592.8731 626.9133,-642.7905 596,-662.2994 507.6737,-718.0408 464.9261,-672.6921 361,-662.2994 316.3339,-657.8328 202.3427,-643.9135 163,-622.2994 130.9306,-604.6812 102.9935,-573.0181 85.2422,-548.2475"/>
<polygon fill="#000000" stroke="#000000" points="629.6641,-572.4907 638.4361,-572.6006 633.332,-570.8951 637,-569.2994 637,-569.2994 637,-569.2994 633.332,-570.8951 635.5639,-565.9983 629.6641,-572.4907 629.6641,-572.4907"/>
<ellipse fill="none" stroke="#000000" cx="626.7297" cy="-573.7673" rx="3.2" ry="3.2"/>
</g>
<!-- ProfessorCompetencyAssignments&#45;&gt;Competencies -->
<g id="edge19" class="edge">
<title>ProfessorCompetencyAssignments:w&#45;&gt;Competencies:e</title>
<path fill="none" stroke="#000000" d="M622.6586,-572.8454C556.8892,-610.1253 661.3872,-929.9845 596,-989.2994 557.321,-1024.3865 400.9029,-1022.988 361,-989.2994 294.1713,-932.8786 378.8156,-866.4834 328,-795.2994 324.1135,-789.8552 319.3558,-785.0005 314.1056,-780.6862"/>
<polygon fill="#000000" stroke="#000000" points="629.2339,-571.2197 637.8641,-572.7942 633.1169,-570.2596 637,-569.2994 637,-569.2994 637,-569.2994 633.1169,-570.2596 636.1359,-565.8047 629.2339,-571.2197 629.2339,-571.2197"/>
<ellipse fill="none" stroke="#000000" cx="626.1274" cy="-571.9878" rx="3.2" ry="3.2"/>
</g>
<!-- ProfessorCompetencyAssignments&#45;&gt;TechnicalCareers -->
<g id="edge24" class="edge">
<title>ProfessorCompetencyAssignments:w&#45;&gt;TechnicalCareers:e</title>
<path fill="none" stroke="#000000" d="M622.7387,-565.88C600.3699,-551.5647 628.8831,-496.0918 596,-472.2994 545.3299,-435.6374 378.0425,-449.2994 315.5,-449.2994"/>
<polygon fill="#000000" stroke="#000000" points="629.2205,-567.4341 636.1606,-572.8002 633.1102,-568.3668 637,-569.2994 637,-569.2994 637,-569.2994 633.1102,-568.3668 637.8394,-565.7987 629.2205,-567.4341 629.2205,-567.4341"/>
<ellipse fill="none" stroke="#000000" cx="626.1087" cy="-566.6879" rx="3.2" ry="3.2"/>
</g>
<!-- ProfessorCompetencyAssignments&#45;&gt;EvaluationPeriods -->
<g id="edge21" class="edge">
<title>ProfessorCompetencyAssignments:w&#45;&gt;EvaluationPeriods:e</title>
<path fill="none" stroke="#000000" d="M623.7762,-563.3379C595.873,-533.3301 615.8931,-398.8136 596,-362.2994 582.5417,-337.5966 578.6311,-318.2994 550.5,-318.2994"/>
<polygon fill="#000000" stroke="#000000" points="629.7069,-566.0115 635.5204,-572.5814 633.3534,-567.6555 637,-569.2994 637,-569.2994 637,-569.2994 633.3534,-567.6555 638.4796,-566.0175 629.7069,-566.0115 629.7069,-566.0115"/>
<ellipse fill="none" stroke="#000000" cx="626.7896" cy="-564.6964" rx="3.2" ry="3.2"/>
</g>
<!-- Professors -->
<g id="node14" class="node">
<title>Professors</title>
<g id="a_node14"><a xlink:href="../../tables/Professors.html" xlink:title="Professors" target="_top">
<polygon fill="#ffffff" stroke="transparent" points="195,-543.7994 195,-604.7994 296,-604.7994 296,-543.7994 195,-543.7994"/>
<polygon fill="#f5f5f5" stroke="transparent" points="195.5,-581.2994 195.5,-604.2994 296.5,-604.2994 296.5,-581.2994 195.5,-581.2994"/>
<polygon fill="none" stroke="#000000" points="195.5,-581.2994 195.5,-604.2994 296.5,-604.2994 296.5,-581.2994 195.5,-581.2994"/>
<text text-anchor="start" x="200.5" y="-589.8994" font-family="Helvetica,sans-Serif" font-weight="bold" font-size="11.00" fill="#000000">Professors</text>
<text text-anchor="start" x="262.0219" y="-589.3994" font-family="Helvetica,sans-Serif" font-size="11.00" fill="#000000">[table]</text>
<polygon fill="none" stroke="#000000" points="195.5,-562.2994 195.5,-581.2994 296.5,-581.2994 296.5,-562.2994 195.5,-562.2994"/>
<text text-anchor="start" x="198.5" y="-568.3994" font-family="Helvetica,sans-Serif" font-size="11.00" fill="#000000">...</text>
<polygon fill="#ffffff" stroke="transparent" points="195.5,-543.2994 195.5,-562.2994 226.5,-562.2994 226.5,-543.2994 195.5,-543.2994"/>
<polygon fill="none" stroke="#000000" points="195.5,-543.2994 195.5,-562.2994 226.5,-562.2994 226.5,-543.2994 195.5,-543.2994"/>
<text text-anchor="start" x="198.5" y="-549.3994" font-family="Helvetica,sans-Serif" font-size="11.00" fill="#000000">&lt; 1</text>
<polygon fill="#ffffff" stroke="transparent" points="226.5,-543.2994 226.5,-562.2994 269.5,-562.2994 269.5,-543.2994 226.5,-543.2994"/>
<polygon fill="none" stroke="#000000" points="226.5,-543.2994 226.5,-562.2994 269.5,-562.2994 269.5,-543.2994 226.5,-543.2994"/>
<text text-anchor="start" x="234.1105" y="-549.3994" font-family="Helvetica,sans-Serif" font-size="11.00" fill="#000000">0 rows</text>
<polygon fill="#ffffff" stroke="transparent" points="269.5,-543.2994 269.5,-562.2994 296.5,-562.2994 296.5,-543.2994 269.5,-543.2994"/>
<polygon fill="none" stroke="#000000" points="269.5,-543.2994 269.5,-562.2994 296.5,-562.2994 296.5,-543.2994 269.5,-543.2994"/>
<text text-anchor="start" x="277.9053" y="-549.3994" font-family="Helvetica,sans-Serif" font-size="11.00" fill="#000000">2 &gt;</text>
</a>
</g>
</g>
<!-- ProfessorCompetencyAssignments&#45;&gt;Professors -->
<g id="edge22" class="edge">
<title>ProfessorCompetencyAssignments:w&#45;&gt;Professors:e</title>
<path fill="none" stroke="#000000" d="M623.2606,-573.6557C609.0754,-586.1827 620.982,-622.2986 596,-636.2994 550.4443,-661.8306 409.2084,-656.3771 361,-636.2994 323.4299,-620.6523 337.1982,-571.2994 296.5,-571.2994"/>
<polygon fill="#000000" stroke="#000000" points="629.3741,-571.7173 638.0881,-572.7311 633.1871,-570.5084 637,-569.2994 637,-569.2994 637,-569.2994 633.1871,-570.5084 635.9119,-565.8678 629.3741,-571.7173 629.3741,-571.7173"/>
<ellipse fill="none" stroke="#000000" cx="626.3238" cy="-572.6845" rx="3.2" ry="3.2"/>
</g>
<!-- Subjects -->
<g id="node15" class="node">
<title>Subjects</title>
<g id="a_node15"><a xlink:href="../../tables/Subjects.html" xlink:title="Subjects" target="_top">
<polygon fill="#ffffff" stroke="transparent" points="434,-482.7994 434,-543.7994 523,-543.7994 523,-482.7994 434,-482.7994"/>
<polygon fill="#f5f5f5" stroke="transparent" points="434.5,-520.2994 434.5,-543.2994 523.5,-543.2994 523.5,-520.2994 434.5,-520.2994"/>
<polygon fill="none" stroke="#000000" points="434.5,-520.2994 434.5,-543.2994 523.5,-543.2994 523.5,-520.2994 434.5,-520.2994"/>
<text text-anchor="start" x="439.5" y="-528.8994" font-family="Helvetica,sans-Serif" font-weight="bold" font-size="11.00" fill="#000000">Subjects</text>
<text text-anchor="start" x="489.0219" y="-528.3994" font-family="Helvetica,sans-Serif" font-size="11.00" fill="#000000">[table]</text>
<polygon fill="none" stroke="#000000" points="434.5,-501.2994 434.5,-520.2994 523.5,-520.2994 523.5,-501.2994 434.5,-501.2994"/>
<text text-anchor="start" x="437.5" y="-507.3994" font-family="Helvetica,sans-Serif" font-size="11.00" fill="#000000">...</text>
<polygon fill="#ffffff" stroke="transparent" points="434.5,-482.2994 434.5,-501.2994 459.5,-501.2994 459.5,-482.2994 434.5,-482.2994"/>
<polygon fill="none" stroke="#000000" points="434.5,-482.2994 434.5,-501.2994 459.5,-501.2994 459.5,-482.2994 434.5,-482.2994"/>
<text text-anchor="start" x="437.5" y="-488.3994" font-family="Helvetica,sans-Serif" font-size="11.00" fill="#000000">&lt; 4</text>
<polygon fill="#ffffff" stroke="transparent" points="459.5,-482.2994 459.5,-501.2994 499.5,-501.2994 499.5,-482.2994 459.5,-482.2994"/>
<polygon fill="none" stroke="#000000" points="459.5,-482.2994 459.5,-501.2994 499.5,-501.2994 499.5,-482.2994 459.5,-482.2994"/>
<text text-anchor="start" x="464.1105" y="-488.3994" font-family="Helvetica,sans-Serif" font-size="11.00" fill="#000000">0 rows</text>
<polygon fill="#ffffff" stroke="transparent" points="499.5,-482.2994 499.5,-501.2994 523.5,-501.2994 523.5,-482.2994 499.5,-482.2994"/>
<polygon fill="none" stroke="#000000" points="499.5,-482.2994 499.5,-501.2994 523.5,-501.2994 523.5,-482.2994 499.5,-482.2994"/>
<text text-anchor="start" x="504.9053" y="-488.3994" font-family="Helvetica,sans-Serif" font-size="11.00" fill="#000000">3 &gt;</text>
</a>
</g>
</g>
<!-- ProfessorCompetencyAssignments&#45;&gt;Subjects -->
<g id="edge23" class="edge">
<title>ProfessorCompetencyAssignments:w&#45;&gt;Subjects:e</title>
<path fill="none" stroke="#000000" d="M622.6605,-565.7854C592.3783,-553.0838 547.7069,-510.2994 523.5,-510.2994"/>
<polygon fill="#000000" stroke="#000000" points="629.2299,-567.3953 636.1431,-572.796 633.115,-568.3474 637,-569.2994 637,-569.2994 637,-569.2994 633.115,-568.3474 637.8569,-565.8029 629.2299,-567.3953 629.2299,-567.3953"/>
<ellipse fill="none" stroke="#000000" cx="626.1219" cy="-566.6336" rx="3.2" ry="3.2"/>
</g>
<!-- Professors&#45;&gt;AspNetUsers -->
<g id="edge26" class="edge">
<title>Professors:w&#45;&gt;AspNetUsers:e</title>
<path fill="none" stroke="#000000" d="M184.7882,-570.7715C160.6402,-568.4392 136.5504,-558.6956 116.3737,-547.8758"/>
<polygon fill="#000000" stroke="#000000" points="194.8979,-567.2649 194.504,-575.2552 192.906,-575.1764 193.2999,-567.1861 194.8979,-567.2649"/>
<polyline fill="none" stroke="#000000" points="195.5,-571.2994 191.5048,-571.1025 "/>
<ellipse fill="none" stroke="#000000" cx="188.3087" cy="-570.9449" rx="3.2" ry="3.2"/>
</g>
<!-- Subjects&#45;&gt;AspNetUsers -->
<g id="edge46" class="edge">
<title>Subjects:w&#45;&gt;AspNetUsers:e</title>
<path fill="none" stroke="#000000" d="M420.0283,-509.7972C316.8123,-506.3982 200.5707,-506.3943 130.0764,-508.3536"/>
<polygon fill="#000000" stroke="#000000" points="426.5048,-510.0219 434.3751,-513.8973 430.5024,-510.1607 434.5,-510.2994 434.5,-510.2994 434.5,-510.2994 430.5024,-510.1607 434.6249,-506.7016 426.5048,-510.0219 426.5048,-510.0219"/>
<ellipse fill="none" stroke="#000000" cx="423.3067" cy="-509.9109" rx="3.2" ry="3.2"/>
</g>
<!-- Subjects&#45;&gt;AspNetUsers -->
<g id="edge49" class="edge">
<title>Subjects:w&#45;&gt;AspNetUsers:e</title>
<path fill="none" stroke="#000000" d="M420.0283,-510.9017C316.8123,-515.0955 200.5707,-517.6831 130.0764,-517.233"/>
<polygon fill="#000000" stroke="#000000" points="426.5069,-510.6321 434.6497,-513.8963 430.5035,-510.4658 434.5,-510.2994 434.5,-510.2994 434.5,-510.2994 430.5035,-510.4658 434.3503,-506.7026 426.5069,-510.6321 426.5069,-510.6321"/>
<ellipse fill="none" stroke="#000000" cx="423.3097" cy="-510.7652" rx="3.2" ry="3.2"/>
</g>
<!-- Subjects&#45;&gt;TechnicalCareers -->
<g id="edge48" class="edge">
<title>Subjects:w&#45;&gt;TechnicalCareers:e</title>
<path fill="none" stroke="#000000" d="M420.3585,-507.0198C388.6207,-494.3495 341.0375,-449.2994 315.5,-449.2994"/>
<polygon fill="#000000" stroke="#000000" points="426.7068,-508.492 433.6867,-513.8064 430.6034,-509.3957 434.5,-510.2994 434.5,-510.2994 434.5,-510.2994 430.6034,-509.3957 435.3133,-506.7925 426.7068,-508.492 426.7068,-508.492"/>
<ellipse fill="none" stroke="#000000" cx="423.5896" cy="-507.7691" rx="3.2" ry="3.2"/>
</g>
<!-- Subjects&#45;&gt;Professors -->
<g id="edge47" class="edge">
<title>Subjects:w&#45;&gt;Professors:e</title>
<path fill="none" stroke="#000000" d="M419.8798,-511.3582C366.4495,-519.4584 358.3192,-571.2994 296.5,-571.2994"/>
<polygon fill="#000000" stroke="#000000" points="426.5209,-510.8773 434.76,-513.89 430.5104,-510.5884 434.5,-510.2994 434.5,-510.2994 434.5,-510.2994 430.5104,-510.5884 434.24,-506.7088 426.5209,-510.8773 426.5209,-510.8773"/>
<ellipse fill="none" stroke="#000000" cx="423.3293" cy="-511.1085" rx="3.2" ry="3.2"/>
</g>
<!-- QuestionResponses -->
<g id="node16" class="node">
<title>QuestionResponses</title>
<g id="a_node16"><a xlink:href="../../tables/QuestionResponses.html" xlink:title="QuestionResponses" target="_top">
<polygon fill="#ffffff" stroke="transparent" points="1200,-148.7994 1200,-209.7994 1355,-209.7994 1355,-148.7994 1200,-148.7994"/>
<polygon fill="#f5f5f5" stroke="transparent" points="1200.5,-186.2994 1200.5,-209.2994 1355.5,-209.2994 1355.5,-186.2994 1200.5,-186.2994"/>
<polygon fill="none" stroke="#000000" points="1200.5,-186.2994 1200.5,-209.2994 1355.5,-209.2994 1355.5,-186.2994 1200.5,-186.2994"/>
<text text-anchor="start" x="1205.5" y="-194.8994" font-family="Helvetica,sans-Serif" font-weight="bold" font-size="11.00" fill="#000000">QuestionResponses</text>
<text text-anchor="start" x="1321.0219" y="-194.3994" font-family="Helvetica,sans-Serif" font-size="11.00" fill="#000000">[table]</text>
<polygon fill="none" stroke="#000000" points="1200.5,-167.2994 1200.5,-186.2994 1355.5,-186.2994 1355.5,-167.2994 1200.5,-167.2994"/>
<text text-anchor="start" x="1203.5" y="-173.3994" font-family="Helvetica,sans-Serif" font-size="11.00" fill="#000000">...</text>
<polygon fill="#ffffff" stroke="transparent" points="1200.5,-148.2994 1200.5,-167.2994 1263.5,-167.2994 1263.5,-148.2994 1200.5,-148.2994"/>
<polygon fill="none" stroke="#000000" points="1200.5,-148.2994 1200.5,-167.2994 1263.5,-167.2994 1263.5,-148.2994 1200.5,-148.2994"/>
<text text-anchor="start" x="1203.5" y="-154.3994" font-family="Helvetica,sans-Serif" font-size="11.00" fill="#000000">&lt; 4</text>
<polygon fill="#ffffff" stroke="transparent" points="1263.5,-148.2994 1263.5,-167.2994 1322.5,-167.2994 1322.5,-148.2994 1263.5,-148.2994"/>
<polygon fill="none" stroke="#000000" points="1263.5,-148.2994 1263.5,-167.2994 1322.5,-167.2994 1322.5,-148.2994 1263.5,-148.2994"/>
<text text-anchor="start" x="1287.1105" y="-154.3994" font-family="Helvetica,sans-Serif" font-size="11.00" fill="#000000">0 rows</text>
<polygon fill="#ffffff" stroke="transparent" points="1322.5,-148.2994 1322.5,-167.2994 1355.5,-167.2994 1355.5,-148.2994 1322.5,-148.2994"/>
<polygon fill="none" stroke="#000000" points="1322.5,-148.2994 1322.5,-167.2994 1355.5,-167.2994 1355.5,-148.2994 1322.5,-148.2994"/>
<text text-anchor="start" x="1346.3862" y="-154.3994" font-family="Helvetica,sans-Serif" font-size="11.00" fill="#000000"> &#160;</text>
</a>
</g>
</g>
<!-- QuestionResponses&#45;&gt;AspNetUsers -->
<g id="edge27" class="edge">
<title>QuestionResponses:w&#45;&gt;AspNetUsers:e</title>
<path fill="none" stroke="#000000" d="M1182.24,-139.7684C1079.1535,-103.4232 909.2049,-55.2994 758,-55.2994 758,-55.2994 758,-55.2994 478.5,-55.2994 337.6453,-55.2994 269.0153,7.4411 163,-85.2994 103.7718,-137.1113 75.8926,-386.1673 67.6853,-478.6799"/>
<polygon fill="#000000" stroke="#000000" points="1188.4907,-142.0047 1194.8104,-148.0893 1192.2569,-143.3522 1196.0231,-144.6997 1196.0231,-144.6997 1196.0231,-144.6997 1192.2569,-143.3522 1197.2359,-141.3101 1188.4907,-142.0047 1188.4907,-142.0047"/>
<ellipse fill="none" stroke="#000000" cx="1185.4778" cy="-140.9267" rx="3.2" ry="3.2"/>
</g>
<!-- QuestionResponses&#45;&gt;AspNetUsers -->
<g id="edge30" class="edge">
<title>QuestionResponses:w&#45;&gt;AspNetUsers:e</title>
<path fill="none" stroke="#000000" d="M1178.1363,-148.0738C1074.6844,-115.1651 907.2153,-68.2994 758,-68.2994 758,-68.2994 758,-68.2994 478.5,-68.2994 337.6453,-68.2994 269.0153,-5.5589 163,-98.2994 105.1163,-148.9352 77.1745,-387.9617 68.2748,-478.5151"/>
<polygon fill="#000000" stroke="#000000" points="1184.3705,-150.0737 1190.8885,-155.9453 1188.1793,-151.2955 1191.9881,-152.5174 1191.9881,-152.5174 1191.9881,-152.5174 1188.1793,-151.2955 1193.0878,-149.0895 1184.3705,-150.0737 1184.3705,-150.0737"/>
<ellipse fill="none" stroke="#000000" cx="1181.3234" cy="-149.0962" rx="3.2" ry="3.2"/>
</g>
<!-- QuestionResponses&#45;&gt;FormQuestions -->
<g id="edge28" class="edge">
<title>QuestionResponses:w&#45;&gt;FormQuestions:e</title>
<path fill="none" stroke="#000000" d="M1261.0329,-227.8229C1200.5846,-395.944 974.0247,-943.2994 586.5,-943.2994"/>
<polygon fill="#000000" stroke="#000000" points="1263.2211,-221.6522 1269.2879,-215.3154 1264.558,-217.8822 1265.8949,-214.1122 1265.8949,-214.1122 1265.8949,-214.1122 1264.558,-217.8822 1262.5019,-212.909 1263.2211,-221.6522 1263.2211,-221.6522"/>
<ellipse fill="none" stroke="#000000" cx="1262.1516" cy="-224.6681" rx="3.2" ry="3.2"/>
</g>
<!-- StudentCompetencyEvaluations -->
<g id="node17" class="node">
<title>StudentCompetencyEvaluations</title>
<g id="a_node17"><a xlink:href="../../tables/StudentCompetencyEvaluations.html" xlink:title="StudentCompetencyEvaluations" target="_top">
<polygon fill="#ffffff" stroke="transparent" points="928,-211.7994 928,-272.7994 1151,-272.7994 1151,-211.7994 928,-211.7994"/>
<polygon fill="#f5f5f5" stroke="transparent" points="928.5,-249.2994 928.5,-272.2994 1151.5,-272.2994 1151.5,-249.2994 928.5,-249.2994"/>
<polygon fill="none" stroke="#000000" points="928.5,-249.2994 928.5,-272.2994 1151.5,-272.2994 1151.5,-249.2994 928.5,-249.2994"/>
<text text-anchor="start" x="933.5" y="-257.8994" font-family="Helvetica,sans-Serif" font-weight="bold" font-size="11.00" fill="#000000">StudentCompetencyEvaluations</text>
<text text-anchor="start" x="1117.0219" y="-257.3994" font-family="Helvetica,sans-Serif" font-size="11.00" fill="#000000">[table]</text>
<polygon fill="none" stroke="#000000" points="928.5,-230.2994 928.5,-249.2994 1151.5,-249.2994 1151.5,-230.2994 928.5,-230.2994"/>
<text text-anchor="start" x="931.5" y="-236.3994" font-family="Helvetica,sans-Serif" font-size="11.00" fill="#000000">...</text>
<polygon fill="#ffffff" stroke="transparent" points="928.5,-211.2994 928.5,-230.2994 1020.5,-230.2994 1020.5,-211.2994 928.5,-211.2994"/>
<polygon fill="none" stroke="#000000" points="928.5,-211.2994 928.5,-230.2994 1020.5,-230.2994 1020.5,-211.2994 928.5,-211.2994"/>
<text text-anchor="start" x="931.5" y="-217.3994" font-family="Helvetica,sans-Serif" font-size="11.00" fill="#000000">&lt; 5</text>
<polygon fill="#ffffff" stroke="transparent" points="1020.5,-211.2994 1020.5,-230.2994 1094.5,-230.2994 1094.5,-211.2994 1020.5,-211.2994"/>
<polygon fill="none" stroke="#000000" points="1020.5,-211.2994 1020.5,-230.2994 1094.5,-230.2994 1094.5,-211.2994 1020.5,-211.2994"/>
<text text-anchor="start" x="1059.1105" y="-217.3994" font-family="Helvetica,sans-Serif" font-size="11.00" fill="#000000">0 rows</text>
<polygon fill="#ffffff" stroke="transparent" points="1094.5,-211.2994 1094.5,-230.2994 1151.5,-230.2994 1151.5,-211.2994 1094.5,-211.2994"/>
<polygon fill="none" stroke="#000000" points="1094.5,-211.2994 1094.5,-230.2994 1151.5,-230.2994 1151.5,-211.2994 1094.5,-211.2994"/>
<text text-anchor="start" x="1132.9053" y="-217.3994" font-family="Helvetica,sans-Serif" font-size="11.00" fill="#000000">1 &gt;</text>
</a>
</g>
</g>
<!-- QuestionResponses&#45;&gt;StudentCompetencyEvaluations -->
<g id="edge29" class="edge">
<title>QuestionResponses:w&#45;&gt;StudentCompetencyEvaluations:e</title>
<path fill="none" stroke="#000000" d="M1217.5642,-220.8616C1197.4772,-231.1519 1174.3562,-239.2994 1151.5,-239.2994"/>
<polygon fill="#000000" stroke="#000000" points="1223.2846,-217.7123 1232.029,-217.0077 1226.7887,-215.7832 1230.2927,-213.854 1230.2927,-213.854 1230.2927,-213.854 1226.7887,-215.7832 1228.5565,-210.7004 1223.2846,-217.7123 1223.2846,-217.7123"/>
<ellipse fill="none" stroke="#000000" cx="1220.4813" cy="-219.2556" rx="3.2" ry="3.2"/>
</g>
<!-- StudentCompetencyEvaluations&#45;&gt;AspNetUsers -->
<g id="edge31" class="edge">
<title>StudentCompetencyEvaluations:w&#45;&gt;AspNetUsers:e</title>
<path fill="none" stroke="#000000" d="M914.3941,-234.8706C884.0036,-215.6421 927.8486,-143.3153 887,-114.2994 796.8419,-50.2578 261.1828,-57.8059 163,-137.2994 109.805,-180.3687 78.7635,-393.7065 68.6672,-478.5249"/>
<polygon fill="#000000" stroke="#000000" points="920.8674,-236.903 927.4216,-242.7341 924.6837,-238.1012 928.5,-239.2994 928.5,-239.2994 928.5,-239.2994 924.6837,-238.1012 929.5784,-235.8648 920.8674,-236.903 920.8674,-236.903"/>
<ellipse fill="none" stroke="#000000" cx="917.8143" cy="-235.9444" rx="3.2" ry="3.2"/>
</g>
<!-- StudentCompetencyEvaluations&#45;&gt;AspNetUsers -->
<g id="edge35" class="edge">
<title>StudentCompetencyEvaluations:w&#45;&gt;AspNetUsers:e</title>
<path fill="none" stroke="#000000" d="M914.0002,-238.4317C884.3849,-228.0113 927.6703,-156.1886 887,-127.2994 796.8419,-63.2578 261.1828,-70.8059 163,-150.2994 111.1607,-192.2711 80.3601,-395.9431 69.48,-478.5257"/>
<polygon fill="#000000" stroke="#000000" points="920.5143,-238.8215 928.2849,-242.893 924.5071,-239.0605 928.5,-239.2994 928.5,-239.2994 928.5,-239.2994 924.5071,-239.0605 928.7151,-235.7059 920.5143,-238.8215 920.5143,-238.8215"/>
<ellipse fill="none" stroke="#000000" cx="917.32" cy="-238.6303" rx="3.2" ry="3.2"/>
</g>
<!-- StudentCompetencyEvaluations&#45;&gt;ProfessorCompetencyAssignments -->
<g id="edge32" class="edge">
<title>StudentCompetencyEvaluations:w&#45;&gt;ProfessorCompetencyAssignments:e</title>
<path fill="none" stroke="#000000" d="M914.706,-244.483C868.0602,-286.466 947.6501,-569.2994 879,-569.2994"/>
<polygon fill="#000000" stroke="#000000" points="921.0113,-242.1136 929.7664,-242.6694 924.7556,-240.7065 928.5,-239.2994 928.5,-239.2994 928.5,-239.2994 924.7556,-240.7065 927.2336,-235.9295 921.0113,-242.1136 921.0113,-242.1136"/>
<ellipse fill="none" stroke="#000000" cx="918.0158" cy="-243.2392" rx="3.2" ry="3.2"/>
</g>
<!-- StudentCompetencyEvaluations&#45;&gt;Subjects -->
<g id="edge34" class="edge">
<title>StudentCompetencyEvaluations:w&#45;&gt;Subjects:e</title>
<path fill="none" stroke="#000000" d="M914.4779,-242.8887C898.2443,-253.9009 908.3113,-287.7062 887,-308.2994 754.089,-436.732 708.3249,-510.2994 523.5,-510.2994"/>
<polygon fill="#000000" stroke="#000000" points="920.7499,-241.2833 929.3927,-242.787 924.6249,-240.2914 928.5,-239.2994 928.5,-239.2994 928.5,-239.2994 924.6249,-240.2914 927.6073,-235.8119 920.7499,-241.2833 920.7499,-241.2833"/>
<ellipse fill="none" stroke="#000000" cx="917.6498" cy="-242.0769" rx="3.2" ry="3.2"/>
</g>
<!-- Students -->
<g id="node18" class="node">
<title>Students</title>
<g id="a_node18"><a xlink:href="../../tables/Students.html" xlink:title="Students" target="_top">
<polygon fill="#ffffff" stroke="transparent" points="433.5,-208.7994 433.5,-269.7994 523.5,-269.7994 523.5,-208.7994 433.5,-208.7994"/>
<polygon fill="#f5f5f5" stroke="transparent" points="433.5,-246.2994 433.5,-269.2994 523.5,-269.2994 523.5,-246.2994 433.5,-246.2994"/>
<polygon fill="none" stroke="#000000" points="433.5,-246.2994 433.5,-269.2994 523.5,-269.2994 523.5,-246.2994 433.5,-246.2994"/>
<text text-anchor="start" x="438.5" y="-254.8994" font-family="Helvetica,sans-Serif" font-weight="bold" font-size="11.00" fill="#000000">Students</text>
<text text-anchor="start" x="489.0219" y="-254.3994" font-family="Helvetica,sans-Serif" font-size="11.00" fill="#000000">[table]</text>
<polygon fill="none" stroke="#000000" points="433.5,-227.2994 433.5,-246.2994 523.5,-246.2994 523.5,-227.2994 433.5,-227.2994"/>
<text text-anchor="start" x="436.5" y="-233.3994" font-family="Helvetica,sans-Serif" font-size="11.00" fill="#000000">...</text>
<polygon fill="#ffffff" stroke="transparent" points="433.5,-208.2994 433.5,-227.2994 459.5,-227.2994 459.5,-208.2994 433.5,-208.2994"/>
<polygon fill="none" stroke="#000000" points="433.5,-208.2994 433.5,-227.2994 459.5,-227.2994 459.5,-208.2994 433.5,-208.2994"/>
<text text-anchor="start" x="436.5" y="-214.3994" font-family="Helvetica,sans-Serif" font-size="11.00" fill="#000000">&lt; 2</text>
<polygon fill="#ffffff" stroke="transparent" points="459.5,-208.2994 459.5,-227.2994 499.5,-227.2994 499.5,-208.2994 459.5,-208.2994"/>
<polygon fill="none" stroke="#000000" points="459.5,-208.2994 459.5,-227.2994 499.5,-227.2994 499.5,-208.2994 459.5,-208.2994"/>
<text text-anchor="start" x="464.1105" y="-214.3994" font-family="Helvetica,sans-Serif" font-size="11.00" fill="#000000">0 rows</text>
<polygon fill="#ffffff" stroke="transparent" points="499.5,-208.2994 499.5,-227.2994 523.5,-227.2994 523.5,-208.2994 499.5,-208.2994"/>
<polygon fill="none" stroke="#000000" points="499.5,-208.2994 499.5,-227.2994 523.5,-227.2994 523.5,-208.2994 499.5,-208.2994"/>
<text text-anchor="start" x="504.9053" y="-214.3994" font-family="Helvetica,sans-Serif" font-size="11.00" fill="#000000">3 &gt;</text>
</a>
</g>
</g>
<!-- StudentCompetencyEvaluations&#45;&gt;Students -->
<g id="edge33" class="edge">
<title>StudentCompetencyEvaluations:w&#45;&gt;Students:e</title>
<path fill="none" stroke="#000000" d="M914.6603,-244.179C904.322,-254.0031 906.0793,-275.9407 887,-284.2994 781.9707,-330.3134 741.0634,-308.5943 629,-284.2994 578.6556,-273.385 575.0139,-236.2994 523.5,-236.2994"/>
<polygon fill="#000000" stroke="#000000" points="920.9552,-241.9596 929.6971,-242.6946 924.7276,-240.6295 928.5,-239.2994 928.5,-239.2994 928.5,-239.2994 924.7276,-240.6295 927.3029,-235.9043 920.9552,-241.9596 920.9552,-241.9596"/>
<ellipse fill="none" stroke="#000000" cx="917.9373" cy="-243.0237" rx="3.2" ry="3.2"/>
</g>
<!-- Students&#45;&gt;AspNetUsers -->
<g id="edge41" class="edge">
<title>Students:w&#45;&gt;AspNetUsers:e</title>
<path fill="none" stroke="#000000" d="M423.0191,-236.3019C305.1936,-236.3779 256.3414,-238.8308 163,-317.2994 112.4748,-359.7741 85.4212,-434.7031 73.2316,-478.5861"/>
<polygon fill="#000000" stroke="#000000" points="432.699,-232.2996 432.701,-240.2996 431.101,-240.3 431.099,-232.3 432.699,-232.2996"/>
<polyline fill="none" stroke="#000000" points="433.5,-236.2994 429.5,-236.3004 "/>
<ellipse fill="none" stroke="#000000" cx="426.3" cy="-236.3012" rx="3.2" ry="3.2"/>
</g>
<!-- Students&#45;&gt;TechnicalCareers -->
<g id="edge40" class="edge">
<title>Students:w&#45;&gt;TechnicalCareers:e</title>
<path fill="none" stroke="#000000" d="M419.0126,-237.1285C392.1774,-240.5198 380.452,-254.3989 361,-280.2994 314.2877,-342.4973 393.2857,-449.2994 315.5,-449.2994"/>
<polygon fill="#000000" stroke="#000000" points="425.5131,-236.7565 433.7057,-239.8936 429.5065,-236.528 433.5,-236.2994 433.5,-236.2994 433.5,-236.2994 429.5065,-236.528 433.2943,-232.7053 425.5131,-236.7565 425.5131,-236.7565"/>
<ellipse fill="none" stroke="#000000" cx="422.3183" cy="-236.9394" rx="3.2" ry="3.2"/>
</g>
<!-- StudentEvaluationReport -->
<g id="node19" class="node">
<title>StudentEvaluationReport</title>
<g id="a_node19"><a xlink:href="../../tables/StudentEvaluationReport.html" xlink:title="StudentEvaluationReport" target="_top">
<polygon fill="#ffffff" stroke="transparent" points="666.5,-212.7994 666.5,-273.7994 849.5,-273.7994 849.5,-212.7994 666.5,-212.7994"/>
<polygon fill="#f5f5f5" stroke="transparent" points="667,-250.2994 667,-273.2994 850,-273.2994 850,-250.2994 667,-250.2994"/>
<polygon fill="none" stroke="#000000" points="667,-250.2994 667,-273.2994 850,-273.2994 850,-250.2994 667,-250.2994"/>
<text text-anchor="start" x="672" y="-258.8994" font-family="Helvetica,sans-Serif" font-weight="bold" font-size="11.00" fill="#000000">StudentEvaluationReport</text>
<text text-anchor="start" x="815.5219" y="-258.3994" font-family="Helvetica,sans-Serif" font-size="11.00" fill="#000000">[table]</text>
<polygon fill="none" stroke="#000000" points="667,-231.2994 667,-250.2994 850,-250.2994 850,-231.2994 667,-231.2994"/>
<text text-anchor="start" x="670" y="-237.3994" font-family="Helvetica,sans-Serif" font-size="11.00" fill="#000000">...</text>
<polygon fill="#ffffff" stroke="transparent" points="667,-212.2994 667,-231.2994 744,-231.2994 744,-212.2994 667,-212.2994"/>
<polygon fill="none" stroke="#000000" points="667,-212.2994 667,-231.2994 744,-231.2994 744,-212.2994 667,-212.2994"/>
<text text-anchor="start" x="670" y="-218.3994" font-family="Helvetica,sans-Serif" font-size="11.00" fill="#000000">&lt; 4</text>
<polygon fill="#ffffff" stroke="transparent" points="744,-212.2994 744,-231.2994 810,-231.2994 810,-212.2994 744,-212.2994"/>
<polygon fill="none" stroke="#000000" points="744,-212.2994 744,-231.2994 810,-231.2994 810,-212.2994 744,-212.2994"/>
<text text-anchor="start" x="774.6105" y="-218.3994" font-family="Helvetica,sans-Serif" font-size="11.00" fill="#000000">0 rows</text>
<polygon fill="#ffffff" stroke="transparent" points="810,-212.2994 810,-231.2994 850,-231.2994 850,-212.2994 810,-212.2994"/>
<polygon fill="none" stroke="#000000" points="810,-212.2994 810,-231.2994 850,-231.2994 850,-212.2994 810,-212.2994"/>
<text text-anchor="start" x="840.8862" y="-218.3994" font-family="Helvetica,sans-Serif" font-size="11.00" fill="#000000"> &#160;</text>
</a>
</g>
</g>
<!-- StudentEvaluationReport&#45;&gt;AspNetUsers -->
<g id="edge36" class="edge">
<title>StudentEvaluationReport:w&#45;&gt;AspNetUsers:e</title>
<path fill="none" stroke="#000000" d="M652.9224,-236.0477C629.8397,-225.2024 626.1141,-200.5395 596,-192.2994 502.8139,-166.801 236.1377,-168.175 163,-231.2994 124.9881,-264.1071 87.299,-410.5655 72.0588,-478.5434"/>
<polygon fill="#000000" stroke="#000000" points="659.3417,-237.9864 665.9591,-243.7457 663.1708,-239.1429 667,-240.2994 667,-240.2994 667,-240.2994 663.1708,-239.1429 668.0409,-236.8532 659.3417,-237.9864 659.3417,-237.9864"/>
<ellipse fill="none" stroke="#000000" cx="656.2783" cy="-237.0612" rx="3.2" ry="3.2"/>
</g>
<!-- StudentEvaluationReport&#45;&gt;AspNetUsers -->
<g id="edge39" class="edge">
<title>StudentEvaluationReport:w&#45;&gt;AspNetUsers:e</title>
<path fill="none" stroke="#000000" d="M652.606,-240.9798C629.8049,-237.9765 625.9759,-213.5017 596,-205.2994 502.8139,-179.801 236.1377,-181.175 163,-244.2994 126.3354,-275.9443 89.971,-413.3264 73.7629,-478.6714"/>
<polygon fill="#000000" stroke="#000000" points="659.0089,-240.6772 667.17,-243.8954 663.0045,-240.4883 667,-240.2994 667,-240.2994 667,-240.2994 663.0045,-240.4883 666.83,-236.7035 659.0089,-240.6772 659.0089,-240.6772"/>
<ellipse fill="none" stroke="#000000" cx="655.8125" cy="-240.8283" rx="3.2" ry="3.2"/>
</g>
<!-- StudentEvaluationReport&#45;&gt;EvaluationPeriods -->
<g id="edge37" class="edge">
<title>StudentEvaluationReport:w&#45;&gt;EvaluationPeriods:e</title>
<path fill="none" stroke="#000000" d="M652.4065,-241.9286C605.5645,-253.1296 607.4566,-318.2994 550.5,-318.2994"/>
<polygon fill="#000000" stroke="#000000" points="659.0494,-241.1871 667.3994,-243.8772 663.0247,-240.7432 667,-240.2994 667,-240.2994 667,-240.2994 663.0247,-240.7432 666.6006,-236.7217 659.0494,-241.1871 659.0494,-241.1871"/>
<ellipse fill="none" stroke="#000000" cx="655.8691" cy="-241.5421" rx="3.2" ry="3.2"/>
</g>
<!-- StudentEvaluationReport&#45;&gt;Students -->
<g id="edge38" class="edge">
<title>StudentEvaluationReport:w&#45;&gt;Students:e</title>
<path fill="none" stroke="#000000" d="M652.5449,-240.2266C600.3446,-239.6845 582.1934,-236.2994 523.5,-236.2994"/>
<polygon fill="#000000" stroke="#000000" points="659.0001,-240.2591 666.9818,-243.8994 663.0001,-240.2793 667,-240.2994 667,-240.2994 667,-240.2994 663.0001,-240.2793 667.0182,-236.6995 659.0001,-240.2591 659.0001,-240.2591"/>
<ellipse fill="none" stroke="#000000" cx="655.8001" cy="-240.2429" rx="3.2" ry="3.2"/>
</g>
<!-- StudentSubjects -->
<g id="node20" class="node">
<title>StudentSubjects</title>
<g id="a_node20"><a xlink:href="../../tables/StudentSubjects.html" xlink:title="StudentSubjects" target="_top">
<polygon fill="#ffffff" stroke="transparent" points="691.5,-130.7994 691.5,-191.7994 824.5,-191.7994 824.5,-130.7994 691.5,-130.7994"/>
<polygon fill="#f5f5f5" stroke="transparent" points="692,-168.2994 692,-191.2994 825,-191.2994 825,-168.2994 692,-168.2994"/>
<polygon fill="none" stroke="#000000" points="692,-168.2994 692,-191.2994 825,-191.2994 825,-168.2994 692,-168.2994"/>
<text text-anchor="start" x="697" y="-176.8994" font-family="Helvetica,sans-Serif" font-weight="bold" font-size="11.00" fill="#000000">StudentSubjects</text>
<text text-anchor="start" x="790.5219" y="-176.3994" font-family="Helvetica,sans-Serif" font-size="11.00" fill="#000000">[table]</text>
<polygon fill="none" stroke="#000000" points="692,-149.2994 692,-168.2994 825,-168.2994 825,-149.2994 692,-149.2994"/>
<text text-anchor="start" x="695" y="-155.3994" font-family="Helvetica,sans-Serif" font-size="11.00" fill="#000000">...</text>
<polygon fill="#ffffff" stroke="transparent" points="692,-130.2994 692,-149.2994 744,-149.2994 744,-130.2994 692,-130.2994"/>
<polygon fill="none" stroke="#000000" points="692,-130.2994 692,-149.2994 744,-149.2994 744,-130.2994 692,-130.2994"/>
<text text-anchor="start" x="695" y="-136.3994" font-family="Helvetica,sans-Serif" font-size="11.00" fill="#000000">&lt; 4</text>
<polygon fill="#ffffff" stroke="transparent" points="744,-130.2994 744,-149.2994 797,-149.2994 797,-130.2994 744,-130.2994"/>
<polygon fill="none" stroke="#000000" points="744,-130.2994 744,-149.2994 797,-149.2994 797,-130.2994 744,-130.2994"/>
<text text-anchor="start" x="761.6105" y="-136.3994" font-family="Helvetica,sans-Serif" font-size="11.00" fill="#000000">0 rows</text>
<polygon fill="#ffffff" stroke="transparent" points="797,-130.2994 797,-149.2994 825,-149.2994 825,-130.2994 797,-130.2994"/>
<polygon fill="none" stroke="#000000" points="797,-130.2994 797,-149.2994 825,-149.2994 825,-130.2994 797,-130.2994"/>
<text text-anchor="start" x="815.8862" y="-136.3994" font-family="Helvetica,sans-Serif" font-size="11.00" fill="#000000"> &#160;</text>
</a>
</g>
</g>
<!-- StudentSubjects&#45;&gt;AspNetUsers -->
<g id="edge42" class="edge">
<title>StudentSubjects:w&#45;&gt;AspNetUsers:e</title>
<path fill="none" stroke="#000000" d="M677.3113,-157.424C549.7367,-148.9098 251.9578,-109.4388 163,-179.2994 115.5577,-216.557 81.7336,-400.9726 69.7617,-478.727"/>
<polygon fill="#000000" stroke="#000000" points="684.0142,-157.8234 691.7858,-161.8931 688.0071,-158.0614 692,-158.2994 692,-158.2994 692,-158.2994 688.0071,-158.0614 692.2142,-154.7058 684.0142,-157.8234 684.0142,-157.8234"/>
<ellipse fill="none" stroke="#000000" cx="680.8198" cy="-157.633" rx="3.2" ry="3.2"/>
</g>
<!-- StudentSubjects&#45;&gt;AspNetUsers -->
<g id="edge45" class="edge">
<title>StudentSubjects:w&#45;&gt;AspNetUsers:e</title>
<path fill="none" stroke="#000000" d="M677.3113,-158.8887C549.7367,-161.9098 251.9578,-122.4388 163,-192.2994 116.9599,-228.4558 83.7449,-403.1998 70.8803,-478.6354"/>
<polygon fill="#000000" stroke="#000000" points="684.0064,-158.6202 692.1443,-161.8965 688.0032,-158.4598 692,-158.2994 692,-158.2994 692,-158.2994 688.0032,-158.4598 691.8557,-154.7023 684.0064,-158.6202 684.0064,-158.6202"/>
<ellipse fill="none" stroke="#000000" cx="680.809" cy="-158.7485" rx="3.2" ry="3.2"/>
</g>
<!-- StudentSubjects&#45;&gt;Subjects -->
<g id="edge44" class="edge">
<title>StudentSubjects:w&#45;&gt;Subjects:e</title>
<path fill="none" stroke="#000000" d="M677.1955,-159.2477C529.0334,-179.2893 691.6943,-510.2994 523.5,-510.2994"/>
<polygon fill="#000000" stroke="#000000" points="684.0164,-158.8109 692.2301,-161.8921 688.0082,-158.5552 692,-158.2994 692,-158.2994 692,-158.2994 688.0082,-158.5552 691.7699,-154.7068 684.0164,-158.8109 684.0164,-158.8109"/>
<ellipse fill="none" stroke="#000000" cx="680.8229" cy="-159.0154" rx="3.2" ry="3.2"/>
</g>
<!-- StudentSubjects&#45;&gt;Students -->
<g id="edge43" class="edge">
<title>StudentSubjects:w&#45;&gt;Students:e</title>
<path fill="none" stroke="#000000" d="M677.4148,-159.1754C608.736,-167.7448 600.8658,-236.2994 523.5,-236.2994"/>
<polygon fill="#000000" stroke="#000000" points="684.0144,-158.7791 692.2158,-161.893 688.0072,-158.5393 692,-158.2994 692,-158.2994 692,-158.2994 688.0072,-158.5393 691.7842,-154.7059 684.0144,-158.7791 684.0144,-158.7791"/>
<ellipse fill="none" stroke="#000000" cx="680.8201" cy="-158.971" rx="3.2" ry="3.2"/>
</g>
</g>
</svg>
