<?xml version="1.0" encoding="UTF-8" standalone="no"?>
<!DOCTYPE svg PUBLIC "-//W3C//DTD SVG 1.1//EN"
 "http://www.w3.org/Graphics/SVG/1.1/DTD/svg11.dtd">
<!-- Generated by graphviz version 2.40.1 (20161225.0304)
 -->
<!-- Title: oneDegreeRelationshipsDiagram Pages: 1 -->
<svg width="883pt" height="411pt"
 viewBox="0.00 0.00 883.00 410.70" xmlns="http://www.w3.org/2000/svg" xmlns:xlink="http://www.w3.org/1999/xlink">
<g id="graph0" class="graph" transform="scale(1 1) rotate(0) translate(4 406.7)">
<title>oneDegreeRelationshipsDiagram</title>
<polygon fill="#ffffff" stroke="transparent" points="-4,4 -4,-406.7 879,-406.7 879,4 -4,4"/>
<text text-anchor="middle" x="72.4936" y="-7.3" font-family="Helvetica,sans-Serif" font-size="11.00" fill="#000000">Generated by SchemaSpy</text>
<!-- Competencies -->
<g id="node1" class="node">
<title>Competencies</title>
<g id="a_node1"><a xlink:href="../../tables/Competencies.html" xlink:title="Competencies" target="_top">
<polygon fill="#ffffff" stroke="transparent" points="220,-187.2 220,-314.2 341,-314.2 341,-187.2 220,-187.2"/>
<polygon fill="#f5f5f5" stroke="transparent" points="220.5,-290.7 220.5,-313.7 341.5,-313.7 341.5,-290.7 220.5,-290.7"/>
<polygon fill="none" stroke="#000000" points="220.5,-290.7 220.5,-313.7 341.5,-313.7 341.5,-290.7 220.5,-290.7"/>
<text text-anchor="start" x="225.5" y="-299.3" font-family="Helvetica,sans-Serif" font-weight="bold" font-size="11.00" fill="#000000">Competencies</text>
<text text-anchor="start" x="307.0219" y="-298.8" font-family="Helvetica,sans-Serif" font-size="11.00" fill="#000000">[table]</text>
<polygon fill="none" stroke="#000000" points="220.5,-268.7 220.5,-290.7 341.5,-290.7 341.5,-268.7 220.5,-268.7"/>
<image xlink:href="../../images/primaryKeys.png" width="11px" height="12px" preserveAspectRatio="xMinYMin meet" x="225.5" y="-285.7"/>
<text text-anchor="start" x="240.5" y="-275.8" font-family="Helvetica,sans-Serif" font-size="11.00" fill="#000000">Id</text>
<polygon fill="#ffffff" stroke="transparent" points="220.5,-246.7 220.5,-268.7 341.5,-268.7 341.5,-246.7 220.5,-246.7"/>
<polygon fill="none" stroke="#000000" points="220.5,-246.7 220.5,-268.7 341.5,-268.7 341.5,-246.7 220.5,-246.7"/>
<image xlink:href="../../images/foreignKeys.png" width="11px" height="12px" preserveAspectRatio="xMinYMin meet" x="225.5" y="-263.7"/>
<text text-anchor="start" x="240.5" y="-253.8" font-family="Helvetica,sans-Serif" font-size="11.00" fill="#000000">CreatedByUserId</text>
<polygon fill="#ffffff" stroke="transparent" points="220.5,-224.7 220.5,-246.7 341.5,-246.7 341.5,-224.7 220.5,-224.7"/>
<polygon fill="none" stroke="#000000" points="220.5,-224.7 220.5,-246.7 341.5,-246.7 341.5,-224.7 220.5,-224.7"/>
<image xlink:href="../../images/foreignKeys.png" width="11px" height="12px" preserveAspectRatio="xMinYMin meet" x="225.5" y="-241.7"/>
<text text-anchor="start" x="240.5" y="-231.8" font-family="Helvetica,sans-Serif" font-size="11.00" fill="#000000">UpdatedByUserId</text>
<polygon fill="none" stroke="#000000" points="220.5,-205.7 220.5,-224.7 341.5,-224.7 341.5,-205.7 220.5,-205.7"/>
<text text-anchor="start" x="223.5" y="-211.8" font-family="Helvetica,sans-Serif" font-size="11.00" fill="#000000">...</text>
<polygon fill="#ffffff" stroke="transparent" points="220.5,-186.7 220.5,-205.7 261.5,-205.7 261.5,-186.7 220.5,-186.7"/>
<polygon fill="none" stroke="#000000" points="220.5,-186.7 220.5,-205.7 261.5,-205.7 261.5,-186.7 220.5,-186.7"/>
<text text-anchor="start" x="223.5" y="-192.8" font-family="Helvetica,sans-Serif" font-size="11.00" fill="#000000">&lt; 2</text>
<polygon fill="#ffffff" stroke="transparent" points="261.5,-186.7 261.5,-205.7 309.5,-205.7 309.5,-186.7 261.5,-186.7"/>
<polygon fill="none" stroke="#000000" points="261.5,-186.7 261.5,-205.7 309.5,-205.7 309.5,-186.7 261.5,-186.7"/>
<text text-anchor="start" x="274.1105" y="-192.8" font-family="Helvetica,sans-Serif" font-size="11.00" fill="#000000">5 rows</text>
<polygon fill="#ffffff" stroke="transparent" points="309.5,-186.7 309.5,-205.7 341.5,-205.7 341.5,-186.7 309.5,-186.7"/>
<polygon fill="none" stroke="#000000" points="309.5,-186.7 309.5,-205.7 341.5,-205.7 341.5,-186.7 309.5,-186.7"/>
<text text-anchor="start" x="322.9053" y="-192.8" font-family="Helvetica,sans-Serif" font-size="11.00" fill="#000000">4 &gt;</text>
</a>
</g>
</g>
<!-- AspNetUsers -->
<g id="node2" class="node">
<title>AspNetUsers</title>
<g id="a_node2"><a xlink:href="../../tables/AspNetUsers.html" xlink:title="AspNetUsers" target="_top">
<polygon fill="#ffffff" stroke="transparent" points="8,-56.2 8,-183.2 171,-183.2 171,-56.2 8,-56.2"/>
<polygon fill="#f5f5f5" stroke="transparent" points="8.5,-159.7 8.5,-182.7 171.5,-182.7 171.5,-159.7 8.5,-159.7"/>
<polygon fill="none" stroke="#000000" points="8.5,-159.7 8.5,-182.7 171.5,-182.7 171.5,-159.7 8.5,-159.7"/>
<text text-anchor="start" x="13.5" y="-168.3" font-family="Helvetica,sans-Serif" font-weight="bold" font-size="11.00" fill="#000000">AspNetUsers</text>
<text text-anchor="start" x="136.5437" y="-167.8" font-family="Helvetica,sans-Serif" font-size="11.00" fill="#000000">[table]</text>
<polygon fill="none" stroke="#000000" points="8.5,-137.7 8.5,-159.7 171.5,-159.7 171.5,-137.7 8.5,-137.7"/>
<image xlink:href="../../images/primaryKeys.png" width="11px" height="12px" preserveAspectRatio="xMinYMin meet" x="13.5" y="-154.7"/>
<text text-anchor="start" x="28.5" y="-144.8" font-family="Helvetica,sans-Serif" font-size="11.00" fill="#000000">Id</text>
<polygon fill="#ffffff" stroke="transparent" points="8.5,-115.7 8.5,-137.7 171.5,-137.7 171.5,-115.7 8.5,-115.7"/>
<polygon fill="none" stroke="#000000" points="8.5,-115.7 8.5,-137.7 171.5,-137.7 171.5,-115.7 8.5,-115.7"/>
<text text-anchor="start" x="28.5" y="-122.8" font-family="Helvetica,sans-Serif" font-size="11.00" fill="#000000">NormalizedUserName</text>
<polygon fill="#ffffff" stroke="transparent" points="8.5,-93.7 8.5,-115.7 171.5,-115.7 171.5,-93.7 8.5,-93.7"/>
<polygon fill="none" stroke="#000000" points="8.5,-93.7 8.5,-115.7 171.5,-115.7 171.5,-93.7 8.5,-93.7"/>
<text text-anchor="start" x="28.5" y="-100.8" font-family="Helvetica,sans-Serif" font-size="11.00" fill="#000000">NormalizedEmail</text>
<polygon fill="none" stroke="#000000" points="8.5,-74.7 8.5,-93.7 171.5,-93.7 171.5,-74.7 8.5,-74.7"/>
<text text-anchor="start" x="11.5" y="-80.8" font-family="Helvetica,sans-Serif" font-size="11.00" fill="#000000">...</text>
<polygon fill="#ffffff" stroke="transparent" points="8.5,-55.7 8.5,-74.7 66.5,-74.7 66.5,-55.7 8.5,-55.7"/>
<polygon fill="none" stroke="#000000" points="8.5,-55.7 8.5,-74.7 66.5,-74.7 66.5,-55.7 8.5,-55.7"/>
<text text-anchor="start" x="11.5" y="-61.8" font-family="Helvetica,sans-Serif" font-size="11.00" fill="#000000"> &#160;</text>
<polygon fill="#ffffff" stroke="transparent" points="66.5,-55.7 66.5,-74.7 121.5,-74.7 121.5,-55.7 66.5,-55.7"/>
<polygon fill="none" stroke="#000000" points="66.5,-55.7 66.5,-74.7 121.5,-74.7 121.5,-55.7 66.5,-55.7"/>
<text text-anchor="start" x="91.6105" y="-61.8" font-family="Helvetica,sans-Serif" font-size="11.00" fill="#000000">1 row</text>
<polygon fill="#ffffff" stroke="transparent" points="121.5,-55.7 121.5,-74.7 171.5,-74.7 171.5,-55.7 121.5,-55.7"/>
<polygon fill="none" stroke="#000000" points="121.5,-55.7 121.5,-74.7 171.5,-74.7 171.5,-55.7 121.5,-55.7"/>
<text text-anchor="start" x="146.7904" y="-61.8" font-family="Helvetica,sans-Serif" font-size="11.00" fill="#000000">29 &gt;</text>
</a>
</g>
</g>
<!-- Competencies&#45;&gt;AspNetUsers -->
<g id="edge1" class="edge">
<title>Competencies:w&#45;&gt;AspNetUsers:e</title>
<path fill="none" stroke="#000000" d="M206.3766,-253.8206C178.9355,-234.4034 218.5975,-148.7 171.5,-148.7"/>
<polygon fill="#000000" stroke="#000000" points="212.7857,-255.581 219.5465,-261.1714 216.6429,-256.6405 220.5,-257.7 220.5,-257.7 220.5,-257.7 216.6429,-256.6405 221.4535,-254.2286 212.7857,-255.581 212.7857,-255.581"/>
<ellipse fill="none" stroke="#000000" cx="209.7" cy="-254.7334" rx="3.2" ry="3.2"/>
</g>
<!-- Competencies&#45;&gt;AspNetUsers -->
<g id="edge2" class="edge">
<title>Competencies:w&#45;&gt;AspNetUsers:e</title>
<path fill="none" stroke="#000000" d="M206.586,-231.266C185.4203,-213.5371 209.8105,-148.7 171.5,-148.7"/>
<polygon fill="#000000" stroke="#000000" points="212.8777,-233.271 219.4069,-239.1301 216.6888,-234.4855 220.5,-235.7 220.5,-235.7 220.5,-235.7 216.6888,-234.4855 221.5931,-232.2699 212.8777,-233.271 212.8777,-233.271"/>
<ellipse fill="none" stroke="#000000" cx="209.8287" cy="-232.2993" rx="3.2" ry="3.2"/>
</g>
<!-- FormQuestions -->
<g id="node3" class="node">
<title>FormQuestions</title>
<g id="a_node3"><a xlink:href="../../tables/FormQuestions.html" xlink:title="FormQuestions" target="_top">
<polygon fill="#ffffff" stroke="transparent" points="390,-132.7 390,-398.7 609,-398.7 609,-132.7 390,-132.7"/>
<polygon fill="#f5f5f5" stroke="transparent" points="392.5,-373.7 392.5,-396.7 607.5,-396.7 607.5,-373.7 392.5,-373.7"/>
<polygon fill="none" stroke="#000000" points="392.5,-373.7 392.5,-396.7 607.5,-396.7 607.5,-373.7 392.5,-373.7"/>
<text text-anchor="start" x="397.5" y="-382.3" font-family="Helvetica,sans-Serif" font-weight="bold" font-size="11.00" fill="#000000">FormQuestions</text>
<text text-anchor="start" x="572.5437" y="-381.8" font-family="Helvetica,sans-Serif" font-size="11.00" fill="#000000">[table]</text>
<polygon fill="none" stroke="#000000" points="392.5,-351.7 392.5,-373.7 513.5,-373.7 513.5,-351.7 392.5,-351.7"/>
<image xlink:href="../../images/primaryKeys.png" width="11px" height="12px" preserveAspectRatio="xMinYMin meet" x="397.5" y="-368.7"/>
<text text-anchor="start" x="412.5" y="-358.8" font-family="Helvetica,sans-Serif" font-size="11.00" fill="#000000">Id</text>
<polygon fill="none" stroke="#000000" points="513.5,-351.7 513.5,-373.7 607.5,-373.7 607.5,-351.7 513.5,-351.7"/>
<text text-anchor="start" x="516.4758" y="-359.4" font-family="Helvetica,sans-Serif" font-size="11.00" fill="#000000">uuid[2147483647]</text>
<polygon fill="none" stroke="#000000" points="392.5,-329.7 392.5,-351.7 513.5,-351.7 513.5,-329.7 392.5,-329.7"/>
<text text-anchor="start" x="412.5" y="-336.8" font-family="Helvetica,sans-Serif" font-size="11.00" fill="#000000">Text</text>
<polygon fill="none" stroke="#000000" points="513.5,-329.7 513.5,-351.7 607.5,-351.7 607.5,-329.7 513.5,-329.7"/>
<text text-anchor="start" x="516.5" y="-337.4" font-family="Helvetica,sans-Serif" font-size="11.00" fill="#000000">text[2147483647]</text>
<polygon fill="none" stroke="#000000" points="392.5,-307.7 392.5,-329.7 513.5,-329.7 513.5,-307.7 392.5,-307.7"/>
<text text-anchor="start" x="412.5" y="-314.8" font-family="Helvetica,sans-Serif" font-size="11.00" fill="#000000">IsRequired</text>
<polygon fill="none" stroke="#000000" points="513.5,-307.7 513.5,-329.7 607.5,-329.7 607.5,-307.7 513.5,-307.7"/>
<text text-anchor="start" x="516.5" y="-315.4" font-family="Helvetica,sans-Serif" font-size="11.00" fill="#000000">bool[1]</text>
<polygon fill="none" stroke="#000000" points="392.5,-285.7 392.5,-307.7 513.5,-307.7 513.5,-285.7 392.5,-285.7"/>
<text text-anchor="start" x="412.5" y="-292.8" font-family="Helvetica,sans-Serif" font-size="11.00" fill="#000000">Order</text>
<polygon fill="none" stroke="#000000" points="513.5,-285.7 513.5,-307.7 607.5,-307.7 607.5,-285.7 513.5,-285.7"/>
<text text-anchor="start" x="516.5" y="-293.4" font-family="Helvetica,sans-Serif" font-size="11.00" fill="#000000">int4[10]</text>
<polygon fill="#ffffff" stroke="transparent" points="392.5,-263.7 392.5,-285.7 513.5,-285.7 513.5,-263.7 392.5,-263.7"/>
<polygon fill="none" stroke="#000000" points="392.5,-263.7 392.5,-285.7 513.5,-285.7 513.5,-263.7 392.5,-263.7"/>
<image xlink:href="../../images/foreignKeys.png" width="11px" height="12px" preserveAspectRatio="xMinYMin meet" x="397.5" y="-280.7"/>
<text text-anchor="start" x="412.5" y="-270.8" font-family="Helvetica,sans-Serif" font-size="11.00" fill="#000000">CompetencyId</text>
<polygon fill="none" stroke="#000000" points="513.5,-263.7 513.5,-285.7 607.5,-285.7 607.5,-263.7 513.5,-263.7"/>
<text text-anchor="start" x="516.4758" y="-271.4" font-family="Helvetica,sans-Serif" font-size="11.00" fill="#000000">uuid[2147483647]</text>
<polygon fill="none" stroke="#000000" points="392.5,-241.7 392.5,-263.7 513.5,-263.7 513.5,-241.7 392.5,-241.7"/>
<text text-anchor="start" x="412.5" y="-248.8" font-family="Helvetica,sans-Serif" font-size="11.00" fill="#000000">IsActive</text>
<polygon fill="none" stroke="#000000" points="513.5,-241.7 513.5,-263.7 607.5,-263.7 607.5,-241.7 513.5,-241.7"/>
<text text-anchor="start" x="516.5" y="-249.4" font-family="Helvetica,sans-Serif" font-size="11.00" fill="#000000">bool[1]</text>
<polygon fill="none" stroke="#000000" points="392.5,-219.7 392.5,-241.7 513.5,-241.7 513.5,-219.7 392.5,-219.7"/>
<text text-anchor="start" x="412.5" y="-226.8" font-family="Helvetica,sans-Serif" font-size="11.00" fill="#000000">CreatedAt</text>
<polygon fill="none" stroke="#000000" points="513.5,-219.7 513.5,-241.7 607.5,-241.7 607.5,-219.7 513.5,-219.7"/>
<text text-anchor="start" x="516.5" y="-227.4" font-family="Helvetica,sans-Serif" font-size="11.00" fill="#000000">timestamptz[35,6]</text>
<polygon fill="none" stroke="#000000" points="392.5,-197.7 392.5,-219.7 513.5,-219.7 513.5,-197.7 392.5,-197.7"/>
<text text-anchor="start" x="412.5" y="-204.8" font-family="Helvetica,sans-Serif" font-size="11.00" fill="#000000">UpdatedAt</text>
<polygon fill="none" stroke="#000000" points="513.5,-197.7 513.5,-219.7 607.5,-219.7 607.5,-197.7 513.5,-197.7"/>
<text text-anchor="start" x="516.5" y="-205.4" font-family="Helvetica,sans-Serif" font-size="11.00" fill="#000000">timestamptz[35,6]</text>
<polygon fill="#ffffff" stroke="transparent" points="392.5,-175.7 392.5,-197.7 513.5,-197.7 513.5,-175.7 392.5,-175.7"/>
<polygon fill="none" stroke="#000000" points="392.5,-175.7 392.5,-197.7 513.5,-197.7 513.5,-175.7 392.5,-175.7"/>
<image xlink:href="../../images/foreignKeys.png" width="11px" height="12px" preserveAspectRatio="xMinYMin meet" x="397.5" y="-192.7"/>
<text text-anchor="start" x="412.5" y="-182.8" font-family="Helvetica,sans-Serif" font-size="11.00" fill="#000000">CreatedByUserId</text>
<polygon fill="none" stroke="#000000" points="513.5,-175.7 513.5,-197.7 607.5,-197.7 607.5,-175.7 513.5,-175.7"/>
<text text-anchor="start" x="516.5" y="-183.4" font-family="Helvetica,sans-Serif" font-size="11.00" fill="#000000">text[2147483647]</text>
<polygon fill="#ffffff" stroke="transparent" points="392.5,-153.7 392.5,-175.7 513.5,-175.7 513.5,-153.7 392.5,-153.7"/>
<polygon fill="none" stroke="#000000" points="392.5,-153.7 392.5,-175.7 513.5,-175.7 513.5,-153.7 392.5,-153.7"/>
<image xlink:href="../../images/foreignKeys.png" width="11px" height="12px" preserveAspectRatio="xMinYMin meet" x="397.5" y="-170.7"/>
<text text-anchor="start" x="412.5" y="-160.8" font-family="Helvetica,sans-Serif" font-size="11.00" fill="#000000">UpdatedByUserId</text>
<polygon fill="none" stroke="#000000" points="513.5,-153.7 513.5,-175.7 607.5,-175.7 607.5,-153.7 513.5,-153.7"/>
<text text-anchor="start" x="516.5" y="-161.4" font-family="Helvetica,sans-Serif" font-size="11.00" fill="#000000">text[2147483647]</text>
<polygon fill="#ffffff" stroke="transparent" points="392.5,-134.7 392.5,-153.7 444.5,-153.7 444.5,-134.7 392.5,-134.7"/>
<polygon fill="none" stroke="#000000" points="392.5,-134.7 392.5,-153.7 444.5,-153.7 444.5,-134.7 392.5,-134.7"/>
<text text-anchor="start" x="395.5" y="-140.8" font-family="Helvetica,sans-Serif" font-size="11.00" fill="#000000">&lt; 3</text>
<polygon fill="#ffffff" stroke="transparent" points="444.5,-134.7 444.5,-153.7 513.5,-153.7 513.5,-134.7 444.5,-134.7"/>
<polygon fill="none" stroke="#000000" points="444.5,-134.7 444.5,-153.7 513.5,-153.7 513.5,-134.7 444.5,-134.7"/>
<text text-anchor="start" x="478.1105" y="-140.8" font-family="Helvetica,sans-Serif" font-size="11.00" fill="#000000">0 rows</text>
<polygon fill="#ffffff" stroke="transparent" points="513.5,-134.7 513.5,-153.7 607.5,-153.7 607.5,-134.7 513.5,-134.7"/>
<polygon fill="none" stroke="#000000" points="513.5,-134.7 513.5,-153.7 607.5,-153.7 607.5,-134.7 513.5,-134.7"/>
<text text-anchor="start" x="588.9053" y="-140.8" font-family="Helvetica,sans-Serif" font-size="11.00" fill="#000000">1 &gt;</text>
<polygon fill="none" stroke="#000000" stroke-width="2" points="391,-133.7 391,-397.7 608,-397.7 608,-133.7 391,-133.7"/>
</a>
</g>
</g>
<!-- FormQuestions&#45;&gt;Competencies -->
<g id="edge3" class="edge">
<title>FormQuestions:w&#45;&gt;Competencies:e</title>
<path fill="none" stroke="#000000" d="M377.7457,-275.5256C365.7632,-276.9458 358.4036,-279.7 341.5,-279.7"/>
<polygon fill="#000000" stroke="#000000" points="384.5125,-275.147 392.7012,-278.2944 388.5062,-274.9235 392.5,-274.7 392.5,-274.7 392.5,-274.7 388.5062,-274.9235 392.2988,-271.1056 384.5125,-275.147 384.5125,-275.147"/>
<ellipse fill="none" stroke="#000000" cx="381.3175" cy="-275.3258" rx="3.2" ry="3.2"/>
</g>
<!-- FormQuestions&#45;&gt;AspNetUsers -->
<g id="edge4" class="edge">
<title>FormQuestions:w&#45;&gt;AspNetUsers:e</title>
<path fill="none" stroke="#000000" d="M378.1608,-185.2801C368.8292,-183.2178 362.6941,-179.3508 349,-176.7 270.5911,-161.5222 251.3644,-148.7 171.5,-148.7"/>
<polygon fill="#000000" stroke="#000000" points="384.5389,-185.9116 392.1452,-190.2825 388.5195,-186.3058 392.5,-186.7 392.5,-186.7 392.5,-186.7 388.5195,-186.3058 392.8548,-183.1175 384.5389,-185.9116 384.5389,-185.9116"/>
<ellipse fill="none" stroke="#000000" cx="381.3545" cy="-185.5963" rx="3.2" ry="3.2"/>
</g>
<!-- FormQuestions&#45;&gt;AspNetUsers -->
<g id="edge5" class="edge">
<title>FormQuestions:w&#45;&gt;AspNetUsers:e</title>
<path fill="none" stroke="#000000" d="M378.1837,-161.7842C368.8458,-157.474 363.5897,-149.5994 349,-146.7 289.2789,-134.8319 272.8704,-145.1979 212,-146.7 193.9835,-147.1446 189.5219,-148.7 171.5,-148.7"/>
<polygon fill="#000000" stroke="#000000" points="384.6609,-163.1034 391.7815,-168.2276 388.5805,-163.9017 392.5,-164.7 392.5,-164.7 392.5,-164.7 388.5805,-163.9017 393.2185,-161.1724 384.6609,-163.1034 384.6609,-163.1034"/>
<ellipse fill="none" stroke="#000000" cx="381.5253" cy="-162.4647" rx="3.2" ry="3.2"/>
</g>
<!-- QuestionResponses -->
<g id="node4" class="node">
<title>QuestionResponses</title>
<g id="a_node4"><a xlink:href="../../tables/QuestionResponses.html" xlink:title="QuestionResponses" target="_top">
<polygon fill="#ffffff" stroke="transparent" points="658,-38.2 658,-209.2 867,-209.2 867,-38.2 658,-38.2"/>
<polygon fill="#f5f5f5" stroke="transparent" points="658.5,-185.7 658.5,-208.7 867.5,-208.7 867.5,-185.7 658.5,-185.7"/>
<polygon fill="none" stroke="#000000" points="658.5,-185.7 658.5,-208.7 867.5,-208.7 867.5,-185.7 658.5,-185.7"/>
<text text-anchor="start" x="663.5" y="-194.3" font-family="Helvetica,sans-Serif" font-weight="bold" font-size="11.00" fill="#000000">QuestionResponses</text>
<text text-anchor="start" x="832.5437" y="-193.8" font-family="Helvetica,sans-Serif" font-size="11.00" fill="#000000">[table]</text>
<polygon fill="none" stroke="#000000" points="658.5,-163.7 658.5,-185.7 867.5,-185.7 867.5,-163.7 658.5,-163.7"/>
<image xlink:href="../../images/primaryKeys.png" width="11px" height="12px" preserveAspectRatio="xMinYMin meet" x="663.5" y="-180.7"/>
<text text-anchor="start" x="678.5" y="-170.8" font-family="Helvetica,sans-Serif" font-size="11.00" fill="#000000">Id</text>
<polygon fill="#ffffff" stroke="transparent" points="658.5,-141.7 658.5,-163.7 867.5,-163.7 867.5,-141.7 658.5,-141.7"/>
<polygon fill="none" stroke="#000000" points="658.5,-141.7 658.5,-163.7 867.5,-163.7 867.5,-141.7 658.5,-141.7"/>
<image xlink:href="../../images/foreignKeys.png" width="11px" height="12px" preserveAspectRatio="xMinYMin meet" x="663.5" y="-158.7"/>
<text text-anchor="start" x="678.5" y="-148.8" font-family="Helvetica,sans-Serif" font-size="11.00" fill="#000000">FormQuestionId</text>
<polygon fill="#ffffff" stroke="transparent" points="658.5,-119.7 658.5,-141.7 867.5,-141.7 867.5,-119.7 658.5,-119.7"/>
<polygon fill="none" stroke="#000000" points="658.5,-119.7 658.5,-141.7 867.5,-141.7 867.5,-119.7 658.5,-119.7"/>
<image xlink:href="../../images/foreignKeys.png" width="11px" height="12px" preserveAspectRatio="xMinYMin meet" x="663.5" y="-136.7"/>
<text text-anchor="start" x="678.5" y="-126.8" font-family="Helvetica,sans-Serif" font-size="11.00" fill="#000000">StudentCompetencyEvaluationId</text>
<polygon fill="#ffffff" stroke="transparent" points="658.5,-97.7 658.5,-119.7 867.5,-119.7 867.5,-97.7 658.5,-97.7"/>
<polygon fill="none" stroke="#000000" points="658.5,-97.7 658.5,-119.7 867.5,-119.7 867.5,-97.7 658.5,-97.7"/>
<image xlink:href="../../images/foreignKeys.png" width="11px" height="12px" preserveAspectRatio="xMinYMin meet" x="663.5" y="-114.7"/>
<text text-anchor="start" x="678.5" y="-104.8" font-family="Helvetica,sans-Serif" font-size="11.00" fill="#000000">CreatedByUserId</text>
<polygon fill="#ffffff" stroke="transparent" points="658.5,-75.7 658.5,-97.7 867.5,-97.7 867.5,-75.7 658.5,-75.7"/>
<polygon fill="none" stroke="#000000" points="658.5,-75.7 658.5,-97.7 867.5,-97.7 867.5,-75.7 658.5,-75.7"/>
<image xlink:href="../../images/foreignKeys.png" width="11px" height="12px" preserveAspectRatio="xMinYMin meet" x="663.5" y="-92.7"/>
<text text-anchor="start" x="678.5" y="-82.8" font-family="Helvetica,sans-Serif" font-size="11.00" fill="#000000">UpdatedByUserId</text>
<polygon fill="none" stroke="#000000" points="658.5,-56.7 658.5,-75.7 867.5,-75.7 867.5,-56.7 658.5,-56.7"/>
<text text-anchor="start" x="661.5" y="-62.8" font-family="Helvetica,sans-Serif" font-size="11.00" fill="#000000">...</text>
<polygon fill="#ffffff" stroke="transparent" points="658.5,-37.7 658.5,-56.7 748.5,-56.7 748.5,-37.7 658.5,-37.7"/>
<polygon fill="none" stroke="#000000" points="658.5,-37.7 658.5,-56.7 748.5,-56.7 748.5,-37.7 658.5,-37.7"/>
<text text-anchor="start" x="661.5" y="-43.8" font-family="Helvetica,sans-Serif" font-size="11.00" fill="#000000">&lt; 4</text>
<polygon fill="#ffffff" stroke="transparent" points="748.5,-37.7 748.5,-56.7 820.5,-56.7 820.5,-37.7 748.5,-37.7"/>
<polygon fill="none" stroke="#000000" points="748.5,-37.7 748.5,-56.7 820.5,-56.7 820.5,-37.7 748.5,-37.7"/>
<text text-anchor="start" x="785.1105" y="-43.8" font-family="Helvetica,sans-Serif" font-size="11.00" fill="#000000">0 rows</text>
<polygon fill="#ffffff" stroke="transparent" points="820.5,-37.7 820.5,-56.7 867.5,-56.7 867.5,-37.7 820.5,-37.7"/>
<polygon fill="none" stroke="#000000" points="820.5,-37.7 820.5,-56.7 867.5,-56.7 867.5,-37.7 820.5,-37.7"/>
<text text-anchor="start" x="858.3862" y="-43.8" font-family="Helvetica,sans-Serif" font-size="11.00" fill="#000000"> &#160;</text>
</a>
</g>
</g>
<!-- QuestionResponses&#45;&gt;AspNetUsers -->
<g id="edge6" class="edge">
<title>QuestionResponses:w&#45;&gt;AspNetUsers:e</title>
<path fill="none" stroke="#000000" d="M643.9125,-108.6897C456.9649,-108.4296 402.8942,-103.6318 212,-137.7 193.638,-140.977 190.1521,-148.7 171.5,-148.7"/>
<polygon fill="#000000" stroke="#000000" points="650.5,-108.6943 658.4974,-112.3 654.5,-108.6971 658.5,-108.7 658.5,-108.7 658.5,-108.7 654.5,-108.6971 658.5026,-105.1 650.5,-108.6943 650.5,-108.6943"/>
<ellipse fill="none" stroke="#000000" cx="647.3" cy="-108.692" rx="3.2" ry="3.2"/>
</g>
<!-- QuestionResponses&#45;&gt;AspNetUsers -->
<g id="edge8" class="edge">
<title>QuestionResponses:w&#45;&gt;AspNetUsers:e</title>
<path fill="none" stroke="#000000" d="M643.8954,-86.6134C456.453,-84.3882 391.5534,-40.6193 212,-113.7 189.965,-122.6685 195.2902,-148.7 171.5,-148.7"/>
<polygon fill="#000000" stroke="#000000" points="650.5001,-86.6525 658.4786,-90.2999 654.5001,-86.6763 658.5,-86.7 658.5,-86.7 658.5,-86.7 654.5001,-86.6763 658.5214,-83.1001 650.5001,-86.6525 650.5001,-86.6525"/>
<ellipse fill="none" stroke="#000000" cx="647.3002" cy="-86.6335" rx="3.2" ry="3.2"/>
</g>
<!-- QuestionResponses&#45;&gt;FormQuestions -->
<g id="edge7" class="edge">
<title>QuestionResponses:w&#45;&gt;FormQuestions:e</title>
<path fill="none" stroke="#000000" d="M643.9639,-154.7784C578.1738,-176.5884 697.9186,-362.7 607.5,-362.7"/>
<polygon fill="#000000" stroke="#000000" points="650.5805,-153.8324 659.0096,-156.2638 654.5403,-153.2662 658.5,-152.7 658.5,-152.7 658.5,-152.7 654.5403,-153.2662 657.9904,-149.1362 650.5805,-153.8324 650.5805,-153.8324"/>
<ellipse fill="none" stroke="#000000" cx="647.4128" cy="-154.2854" rx="3.2" ry="3.2"/>
</g>
</g>
</svg>
