<?xml version="1.0" encoding="UTF-8" standalone="no"?>
<!DOCTYPE svg PUBLIC "-//W3C//DTD SVG 1.1//EN"
 "http://www.w3.org/Graphics/SVG/1.1/DTD/svg11.dtd">
<!-- Generated by graphviz version 2.40.1 (20161225.0304)
 -->
<!-- Title: twoDegreesRelationshipsDiagram Pages: 1 -->
<svg width="1103pt" height="1180pt"
 viewBox="0.00 0.00 1103.00 1180.18" xmlns="http://www.w3.org/2000/svg" xmlns:xlink="http://www.w3.org/1999/xlink">
<g id="graph0" class="graph" transform="scale(1 1) rotate(0) translate(4 1176.1831)">
<title>twoDegreesRelationshipsDiagram</title>
<polygon fill="#ffffff" stroke="transparent" points="-4,4 -4,-1176.1831 1099,-1176.1831 1099,4 -4,4"/>
<text text-anchor="middle" x="72.4936" y="-7.3" font-family="Helvetica,sans-Serif" font-size="11.00" fill="#000000">Generated by SchemaSpy</text>
<!-- AspNetUserClaims -->
<g id="node1" class="node">
<title>AspNetUserClaims</title>
<g id="a_node1"><a xlink:href="../../tables/AspNetUserClaims.html" xlink:title="AspNetUserClaims" target="_top">
<polygon fill="#ffffff" stroke="transparent" points="172,-1107.1831 172,-1168.1831 319,-1168.1831 319,-1107.1831 172,-1107.1831"/>
<polygon fill="#f5f5f5" stroke="transparent" points="172.5,-1144.6831 172.5,-1167.6831 319.5,-1167.6831 319.5,-1144.6831 172.5,-1144.6831"/>
<polygon fill="none" stroke="#000000" points="172.5,-1144.6831 172.5,-1167.6831 319.5,-1167.6831 319.5,-1144.6831 172.5,-1144.6831"/>
<text text-anchor="start" x="177.5" y="-1153.2831" font-family="Helvetica,sans-Serif" font-weight="bold" font-size="11.00" fill="#000000">AspNetUserClaims</text>
<text text-anchor="start" x="285.0219" y="-1152.7831" font-family="Helvetica,sans-Serif" font-size="11.00" fill="#000000">[table]</text>
<polygon fill="none" stroke="#000000" points="172.5,-1125.6831 172.5,-1144.6831 319.5,-1144.6831 319.5,-1125.6831 172.5,-1125.6831"/>
<text text-anchor="start" x="175.5" y="-1131.7831" font-family="Helvetica,sans-Serif" font-size="11.00" fill="#000000">...</text>
<polygon fill="#ffffff" stroke="transparent" points="172.5,-1106.6831 172.5,-1125.6831 231.5,-1125.6831 231.5,-1106.6831 172.5,-1106.6831"/>
<polygon fill="none" stroke="#000000" points="172.5,-1106.6831 172.5,-1125.6831 231.5,-1125.6831 231.5,-1106.6831 172.5,-1106.6831"/>
<text text-anchor="start" x="175.5" y="-1112.7831" font-family="Helvetica,sans-Serif" font-size="11.00" fill="#000000">&lt; 1</text>
<polygon fill="#ffffff" stroke="transparent" points="231.5,-1106.6831 231.5,-1125.6831 288.5,-1125.6831 288.5,-1106.6831 231.5,-1106.6831"/>
<polygon fill="none" stroke="#000000" points="231.5,-1106.6831 231.5,-1125.6831 288.5,-1125.6831 288.5,-1106.6831 231.5,-1106.6831"/>
<text text-anchor="start" x="253.1105" y="-1112.7831" font-family="Helvetica,sans-Serif" font-size="11.00" fill="#000000">0 rows</text>
<polygon fill="#ffffff" stroke="transparent" points="288.5,-1106.6831 288.5,-1125.6831 319.5,-1125.6831 319.5,-1106.6831 288.5,-1106.6831"/>
<polygon fill="none" stroke="#000000" points="288.5,-1106.6831 288.5,-1125.6831 319.5,-1125.6831 319.5,-1106.6831 288.5,-1106.6831"/>
<text text-anchor="start" x="310.3862" y="-1112.7831" font-family="Helvetica,sans-Serif" font-size="11.00" fill="#000000"> &#160;</text>
</a>
</g>
</g>
<!-- AspNetUsers -->
<g id="node2" class="node">
<title>AspNetUsers</title>
<g id="a_node2"><a xlink:href="../../tables/AspNetUsers.html" xlink:title="AspNetUsers" target="_top">
<polygon fill="#ffffff" stroke="transparent" points="8,-502.1831 8,-563.1831 122,-563.1831 122,-502.1831 8,-502.1831"/>
<polygon fill="#f5f5f5" stroke="transparent" points="8,-539.6831 8,-562.6831 122,-562.6831 122,-539.6831 8,-539.6831"/>
<polygon fill="none" stroke="#000000" points="8,-539.6831 8,-562.6831 122,-562.6831 122,-539.6831 8,-539.6831"/>
<text text-anchor="start" x="13" y="-548.2831" font-family="Helvetica,sans-Serif" font-weight="bold" font-size="11.00" fill="#000000">AspNetUsers</text>
<text text-anchor="start" x="87.5219" y="-547.7831" font-family="Helvetica,sans-Serif" font-size="11.00" fill="#000000">[table]</text>
<polygon fill="none" stroke="#000000" points="8,-520.6831 8,-539.6831 122,-539.6831 122,-520.6831 8,-520.6831"/>
<text text-anchor="start" x="11" y="-526.7831" font-family="Helvetica,sans-Serif" font-size="11.00" fill="#000000">...</text>
<polygon fill="#ffffff" stroke="transparent" points="8,-501.6831 8,-520.6831 38,-520.6831 38,-501.6831 8,-501.6831"/>
<polygon fill="none" stroke="#000000" points="8,-501.6831 8,-520.6831 38,-520.6831 38,-501.6831 8,-501.6831"/>
<text text-anchor="start" x="11" y="-507.7831" font-family="Helvetica,sans-Serif" font-size="11.00" fill="#000000"> &#160;</text>
<polygon fill="#ffffff" stroke="transparent" points="38,-501.6831 38,-520.6831 85,-520.6831 85,-501.6831 38,-501.6831"/>
<polygon fill="none" stroke="#000000" points="38,-501.6831 38,-520.6831 85,-520.6831 85,-501.6831 38,-501.6831"/>
<text text-anchor="start" x="49.6105" y="-507.7831" font-family="Helvetica,sans-Serif" font-size="11.00" fill="#000000">0 rows</text>
<polygon fill="#ffffff" stroke="transparent" points="85,-501.6831 85,-520.6831 122,-520.6831 122,-501.6831 85,-501.6831"/>
<polygon fill="none" stroke="#000000" points="85,-501.6831 85,-520.6831 122,-520.6831 122,-501.6831 85,-501.6831"/>
<text text-anchor="start" x="97.2904" y="-507.7831" font-family="Helvetica,sans-Serif" font-size="11.00" fill="#000000">29 &gt;</text>
</a>
</g>
</g>
<!-- AspNetUserClaims&#45;&gt;AspNetUsers -->
<g id="edge1" class="edge">
<title>AspNetUserClaims:w&#45;&gt;AspNetUsers:e</title>
<path fill="none" stroke="#000000" d="M159.5963,-1127.364C108.9138,-1069.5279 76.3779,-685.385 67.4779,-567.2115"/>
<polygon fill="#000000" stroke="#000000" points="165.5414,-1130.7362 170.7239,-1137.8145 169.0207,-1132.7097 172.5,-1134.6831 172.5,-1134.6831 172.5,-1134.6831 169.0207,-1132.7097 174.2761,-1131.5518 165.5414,-1130.7362 165.5414,-1130.7362"/>
<ellipse fill="none" stroke="#000000" cx="162.758" cy="-1129.1574" rx="3.2" ry="3.2"/>
</g>
<!-- AspNetUserLogins -->
<g id="node3" class="node">
<title>AspNetUserLogins</title>
<g id="a_node3"><a xlink:href="../../tables/AspNetUserLogins.html" xlink:title="AspNetUserLogins" target="_top">
<polygon fill="#ffffff" stroke="transparent" points="172,-1025.1831 172,-1086.1831 319,-1086.1831 319,-1025.1831 172,-1025.1831"/>
<polygon fill="#f5f5f5" stroke="transparent" points="172.5,-1062.6831 172.5,-1085.6831 319.5,-1085.6831 319.5,-1062.6831 172.5,-1062.6831"/>
<polygon fill="none" stroke="#000000" points="172.5,-1062.6831 172.5,-1085.6831 319.5,-1085.6831 319.5,-1062.6831 172.5,-1062.6831"/>
<text text-anchor="start" x="177.5" y="-1071.2831" font-family="Helvetica,sans-Serif" font-weight="bold" font-size="11.00" fill="#000000">AspNetUserLogins</text>
<text text-anchor="start" x="285.0219" y="-1070.7831" font-family="Helvetica,sans-Serif" font-size="11.00" fill="#000000">[table]</text>
<polygon fill="none" stroke="#000000" points="172.5,-1043.6831 172.5,-1062.6831 319.5,-1062.6831 319.5,-1043.6831 172.5,-1043.6831"/>
<text text-anchor="start" x="175.5" y="-1049.7831" font-family="Helvetica,sans-Serif" font-size="11.00" fill="#000000">...</text>
<polygon fill="#ffffff" stroke="transparent" points="172.5,-1024.6831 172.5,-1043.6831 231.5,-1043.6831 231.5,-1024.6831 172.5,-1024.6831"/>
<polygon fill="none" stroke="#000000" points="172.5,-1024.6831 172.5,-1043.6831 231.5,-1043.6831 231.5,-1024.6831 172.5,-1024.6831"/>
<text text-anchor="start" x="175.5" y="-1030.7831" font-family="Helvetica,sans-Serif" font-size="11.00" fill="#000000">&lt; 1</text>
<polygon fill="#ffffff" stroke="transparent" points="231.5,-1024.6831 231.5,-1043.6831 288.5,-1043.6831 288.5,-1024.6831 231.5,-1024.6831"/>
<polygon fill="none" stroke="#000000" points="231.5,-1024.6831 231.5,-1043.6831 288.5,-1043.6831 288.5,-1024.6831 231.5,-1024.6831"/>
<text text-anchor="start" x="253.1105" y="-1030.7831" font-family="Helvetica,sans-Serif" font-size="11.00" fill="#000000">0 rows</text>
<polygon fill="#ffffff" stroke="transparent" points="288.5,-1024.6831 288.5,-1043.6831 319.5,-1043.6831 319.5,-1024.6831 288.5,-1024.6831"/>
<polygon fill="none" stroke="#000000" points="288.5,-1024.6831 288.5,-1043.6831 319.5,-1043.6831 319.5,-1024.6831 288.5,-1024.6831"/>
<text text-anchor="start" x="310.3862" y="-1030.7831" font-family="Helvetica,sans-Serif" font-size="11.00" fill="#000000"> &#160;</text>
</a>
</g>
</g>
<!-- AspNetUserLogins&#45;&gt;AspNetUsers -->
<g id="edge2" class="edge">
<title>AspNetUserLogins:w&#45;&gt;AspNetUsers:e</title>
<path fill="none" stroke="#000000" d="M160.1433,-1045.2367C115.8904,-992.4317 79.4977,-673.5903 68.4491,-567.2045"/>
<polygon fill="#000000" stroke="#000000" points="165.648,-1048.5539 170.6418,-1055.7665 169.074,-1050.6185 172.5,-1052.6831 172.5,-1052.6831 172.5,-1052.6831 169.074,-1050.6185 174.3582,-1049.5997 165.648,-1048.5539 165.648,-1048.5539"/>
<ellipse fill="none" stroke="#000000" cx="162.9072" cy="-1046.9022" rx="3.2" ry="3.2"/>
</g>
<!-- AspNetUserRoles -->
<g id="node4" class="node">
<title>AspNetUserRoles</title>
<g id="a_node4"><a xlink:href="../../tables/AspNetUserRoles.html" xlink:title="AspNetUserRoles" target="_top">
<polygon fill="#ffffff" stroke="transparent" points="175.5,-943.1831 175.5,-1004.1831 315.5,-1004.1831 315.5,-943.1831 175.5,-943.1831"/>
<polygon fill="#f5f5f5" stroke="transparent" points="175.5,-980.6831 175.5,-1003.6831 315.5,-1003.6831 315.5,-980.6831 175.5,-980.6831"/>
<polygon fill="none" stroke="#000000" points="175.5,-980.6831 175.5,-1003.6831 315.5,-1003.6831 315.5,-980.6831 175.5,-980.6831"/>
<text text-anchor="start" x="180.5" y="-989.2831" font-family="Helvetica,sans-Serif" font-weight="bold" font-size="11.00" fill="#000000">AspNetUserRoles</text>
<text text-anchor="start" x="281.0219" y="-988.7831" font-family="Helvetica,sans-Serif" font-size="11.00" fill="#000000">[table]</text>
<polygon fill="none" stroke="#000000" points="175.5,-961.6831 175.5,-980.6831 315.5,-980.6831 315.5,-961.6831 175.5,-961.6831"/>
<text text-anchor="start" x="178.5" y="-967.7831" font-family="Helvetica,sans-Serif" font-size="11.00" fill="#000000">...</text>
<polygon fill="#ffffff" stroke="transparent" points="175.5,-942.6831 175.5,-961.6831 230.5,-961.6831 230.5,-942.6831 175.5,-942.6831"/>
<polygon fill="none" stroke="#000000" points="175.5,-942.6831 175.5,-961.6831 230.5,-961.6831 230.5,-942.6831 175.5,-942.6831"/>
<text text-anchor="start" x="178.5" y="-948.7831" font-family="Helvetica,sans-Serif" font-size="11.00" fill="#000000">&lt; 2</text>
<polygon fill="#ffffff" stroke="transparent" points="230.5,-942.6831 230.5,-961.6831 285.5,-961.6831 285.5,-942.6831 230.5,-942.6831"/>
<polygon fill="none" stroke="#000000" points="230.5,-942.6831 230.5,-961.6831 285.5,-961.6831 285.5,-942.6831 230.5,-942.6831"/>
<text text-anchor="start" x="250.1105" y="-948.7831" font-family="Helvetica,sans-Serif" font-size="11.00" fill="#000000">0 rows</text>
<polygon fill="#ffffff" stroke="transparent" points="285.5,-942.6831 285.5,-961.6831 315.5,-961.6831 315.5,-942.6831 285.5,-942.6831"/>
<polygon fill="none" stroke="#000000" points="285.5,-942.6831 285.5,-961.6831 315.5,-961.6831 315.5,-942.6831 285.5,-942.6831"/>
<text text-anchor="start" x="306.3862" y="-948.7831" font-family="Helvetica,sans-Serif" font-size="11.00" fill="#000000"> &#160;</text>
</a>
</g>
</g>
<!-- AspNetUserRoles&#45;&gt;AspNetUsers -->
<g id="edge3" class="edge">
<title>AspNetUserRoles:w&#45;&gt;AspNetUsers:e</title>
<path fill="none" stroke="#000000" d="M161.0872,-967.4975C89.9523,-935.114 70.8993,-664.7423 66.3207,-567.4184"/>
<polygon fill="#000000" stroke="#000000" points="167.6885,-968.9565 174.723,-974.1983 171.5943,-969.8198 175.5,-970.6831 175.5,-970.6831 175.5,-970.6831 171.5943,-969.8198 176.277,-967.168 167.6885,-968.9565 167.6885,-968.9565"/>
<ellipse fill="none" stroke="#000000" cx="164.5639" cy="-968.2659" rx="3.2" ry="3.2"/>
</g>
<!-- AspNetUserTokens -->
<g id="node5" class="node">
<title>AspNetUserTokens</title>
<g id="a_node5"><a xlink:href="../../tables/AspNetUserTokens.html" xlink:title="AspNetUserTokens" target="_top">
<polygon fill="#ffffff" stroke="transparent" points="171,-861.1831 171,-922.1831 320,-922.1831 320,-861.1831 171,-861.1831"/>
<polygon fill="#f5f5f5" stroke="transparent" points="171.5,-898.6831 171.5,-921.6831 320.5,-921.6831 320.5,-898.6831 171.5,-898.6831"/>
<polygon fill="none" stroke="#000000" points="171.5,-898.6831 171.5,-921.6831 320.5,-921.6831 320.5,-898.6831 171.5,-898.6831"/>
<text text-anchor="start" x="176.5" y="-907.2831" font-family="Helvetica,sans-Serif" font-weight="bold" font-size="11.00" fill="#000000">AspNetUserTokens</text>
<text text-anchor="start" x="286.0219" y="-906.7831" font-family="Helvetica,sans-Serif" font-size="11.00" fill="#000000">[table]</text>
<polygon fill="none" stroke="#000000" points="171.5,-879.6831 171.5,-898.6831 320.5,-898.6831 320.5,-879.6831 171.5,-879.6831"/>
<text text-anchor="start" x="174.5" y="-885.7831" font-family="Helvetica,sans-Serif" font-size="11.00" fill="#000000">...</text>
<polygon fill="#ffffff" stroke="transparent" points="171.5,-860.6831 171.5,-879.6831 231.5,-879.6831 231.5,-860.6831 171.5,-860.6831"/>
<polygon fill="none" stroke="#000000" points="171.5,-860.6831 171.5,-879.6831 231.5,-879.6831 231.5,-860.6831 171.5,-860.6831"/>
<text text-anchor="start" x="174.5" y="-866.7831" font-family="Helvetica,sans-Serif" font-size="11.00" fill="#000000">&lt; 1</text>
<polygon fill="#ffffff" stroke="transparent" points="231.5,-860.6831 231.5,-879.6831 288.5,-879.6831 288.5,-860.6831 231.5,-860.6831"/>
<polygon fill="none" stroke="#000000" points="231.5,-860.6831 231.5,-879.6831 288.5,-879.6831 288.5,-860.6831 231.5,-860.6831"/>
<text text-anchor="start" x="253.1105" y="-866.7831" font-family="Helvetica,sans-Serif" font-size="11.00" fill="#000000">0 rows</text>
<polygon fill="#ffffff" stroke="transparent" points="288.5,-860.6831 288.5,-879.6831 320.5,-879.6831 320.5,-860.6831 288.5,-860.6831"/>
<polygon fill="none" stroke="#000000" points="288.5,-860.6831 288.5,-879.6831 320.5,-879.6831 320.5,-860.6831 288.5,-860.6831"/>
<text text-anchor="start" x="311.3862" y="-866.7831" font-family="Helvetica,sans-Serif" font-size="11.00" fill="#000000"> &#160;</text>
</a>
</g>
</g>
<!-- AspNetUserTokens&#45;&gt;AspNetUsers -->
<g id="edge4" class="edge">
<title>AspNetUserTokens:w&#45;&gt;AspNetUsers:e</title>
<path fill="none" stroke="#000000" d="M157.2924,-885.008C100.7787,-855.0819 75.8133,-650.3965 67.9345,-567.4661"/>
<polygon fill="#000000" stroke="#000000" points="163.7549,-886.6797 170.5984,-892.1684 167.6275,-887.6814 171.5,-888.6831 171.5,-888.6831 171.5,-888.6831 167.6275,-887.6814 172.4016,-885.1979 163.7549,-886.6797 163.7549,-886.6797"/>
<ellipse fill="none" stroke="#000000" cx="160.6569" cy="-885.8783" rx="3.2" ry="3.2"/>
</g>
<!-- Competencies -->
<g id="node6" class="node">
<title>Competencies</title>
<g id="a_node6"><a xlink:href="../../tables/Competencies.html" xlink:title="Competencies" target="_top">
<polygon fill="#ffffff" stroke="transparent" points="185,-712.1831 185,-773.1831 306,-773.1831 306,-712.1831 185,-712.1831"/>
<polygon fill="#f5f5f5" stroke="transparent" points="185.5,-749.6831 185.5,-772.6831 306.5,-772.6831 306.5,-749.6831 185.5,-749.6831"/>
<polygon fill="none" stroke="#000000" points="185.5,-749.6831 185.5,-772.6831 306.5,-772.6831 306.5,-749.6831 185.5,-749.6831"/>
<text text-anchor="start" x="190.5" y="-758.2831" font-family="Helvetica,sans-Serif" font-weight="bold" font-size="11.00" fill="#000000">Competencies</text>
<text text-anchor="start" x="272.0219" y="-757.7831" font-family="Helvetica,sans-Serif" font-size="11.00" fill="#000000">[table]</text>
<polygon fill="none" stroke="#000000" points="185.5,-730.6831 185.5,-749.6831 306.5,-749.6831 306.5,-730.6831 185.5,-730.6831"/>
<text text-anchor="start" x="188.5" y="-736.7831" font-family="Helvetica,sans-Serif" font-size="11.00" fill="#000000">...</text>
<polygon fill="#ffffff" stroke="transparent" points="185.5,-711.6831 185.5,-730.6831 226.5,-730.6831 226.5,-711.6831 185.5,-711.6831"/>
<polygon fill="none" stroke="#000000" points="185.5,-711.6831 185.5,-730.6831 226.5,-730.6831 226.5,-711.6831 185.5,-711.6831"/>
<text text-anchor="start" x="188.5" y="-717.7831" font-family="Helvetica,sans-Serif" font-size="11.00" fill="#000000">&lt; 2</text>
<polygon fill="#ffffff" stroke="transparent" points="226.5,-711.6831 226.5,-730.6831 274.5,-730.6831 274.5,-711.6831 226.5,-711.6831"/>
<polygon fill="none" stroke="#000000" points="226.5,-711.6831 226.5,-730.6831 274.5,-730.6831 274.5,-711.6831 226.5,-711.6831"/>
<text text-anchor="start" x="239.1105" y="-717.7831" font-family="Helvetica,sans-Serif" font-size="11.00" fill="#000000">0 rows</text>
<polygon fill="#ffffff" stroke="transparent" points="274.5,-711.6831 274.5,-730.6831 306.5,-730.6831 306.5,-711.6831 274.5,-711.6831"/>
<polygon fill="none" stroke="#000000" points="274.5,-711.6831 274.5,-730.6831 306.5,-730.6831 306.5,-711.6831 274.5,-711.6831"/>
<text text-anchor="start" x="287.9053" y="-717.7831" font-family="Helvetica,sans-Serif" font-size="11.00" fill="#000000">4 &gt;</text>
</a>
</g>
</g>
<!-- Competencies&#45;&gt;AspNetUsers -->
<g id="edge5" class="edge">
<title>Competencies:w&#45;&gt;AspNetUsers:e</title>
<path fill="none" stroke="#000000" d="M171.991,-699.5012C168.8384,-697.0077 165.8208,-694.4025 163,-691.6831 125.5815,-655.6098 97.3756,-602.2301 81.0495,-567.3893"/>
<polygon fill="#000000" stroke="#000000" points="177.3896,-703.3784 181.7873,-710.9692 180.6385,-705.7118 183.8874,-708.0452 183.8874,-708.0452 183.8874,-708.0452 180.6385,-705.7118 185.9874,-705.1211 177.3896,-703.3784 177.3896,-703.3784"/>
<ellipse fill="none" stroke="#000000" cx="174.7904" cy="-701.5117" rx="3.2" ry="3.2"/>
</g>
<!-- Competencies&#45;&gt;AspNetUsers -->
<g id="edge6" class="edge">
<title>Competencies:w&#45;&gt;AspNetUsers:e</title>
<path fill="none" stroke="#000000" d="M165.4238,-706.9489C164.6012,-706.2028 163.7928,-705.4475 163,-704.6831 122.1034,-665.2568 92.2119,-605.1574 76.807,-567.3427"/>
<polygon fill="#000000" stroke="#000000" points="170.5735,-711.0966 174.5458,-718.9184 173.6888,-713.6057 176.804,-716.1147 176.804,-716.1147 176.804,-716.1147 173.6888,-713.6057 179.0622,-713.311 170.5735,-711.0966 170.5735,-711.0966"/>
<ellipse fill="none" stroke="#000000" cx="168.0814" cy="-709.0893" rx="3.2" ry="3.2"/>
</g>
<!-- CompetencyLevelDescriptions -->
<g id="node7" class="node">
<title>CompetencyLevelDescriptions</title>
<g id="a_node7"><a xlink:href="../../tables/CompetencyLevelDescriptions.html" xlink:title="CompetencyLevelDescriptions" target="_top">
<polygon fill="#ffffff" stroke="transparent" points="383,-986.1831 383,-1047.1831 597,-1047.1831 597,-986.1831 383,-986.1831"/>
<polygon fill="#f5f5f5" stroke="transparent" points="383,-1023.6831 383,-1046.6831 597,-1046.6831 597,-1023.6831 383,-1023.6831"/>
<polygon fill="none" stroke="#000000" points="383,-1023.6831 383,-1046.6831 597,-1046.6831 597,-1023.6831 383,-1023.6831"/>
<text text-anchor="start" x="388" y="-1032.2831" font-family="Helvetica,sans-Serif" font-weight="bold" font-size="11.00" fill="#000000">CompetencyLevelDescriptions</text>
<text text-anchor="start" x="562.5219" y="-1031.7831" font-family="Helvetica,sans-Serif" font-size="11.00" fill="#000000">[table]</text>
<polygon fill="none" stroke="#000000" points="383,-1004.6831 383,-1023.6831 597,-1023.6831 597,-1004.6831 383,-1004.6831"/>
<text text-anchor="start" x="386" y="-1010.7831" font-family="Helvetica,sans-Serif" font-size="11.00" fill="#000000">...</text>
<polygon fill="#ffffff" stroke="transparent" points="383,-985.6831 383,-1004.6831 475,-1004.6831 475,-985.6831 383,-985.6831"/>
<polygon fill="none" stroke="#000000" points="383,-985.6831 383,-1004.6831 475,-1004.6831 475,-985.6831 383,-985.6831"/>
<text text-anchor="start" x="386" y="-991.7831" font-family="Helvetica,sans-Serif" font-size="11.00" fill="#000000">&lt; 3</text>
<polygon fill="#ffffff" stroke="transparent" points="475,-985.6831 475,-1004.6831 549,-1004.6831 549,-985.6831 475,-985.6831"/>
<polygon fill="none" stroke="#000000" points="475,-985.6831 475,-1004.6831 549,-1004.6831 549,-985.6831 475,-985.6831"/>
<text text-anchor="start" x="513.6105" y="-991.7831" font-family="Helvetica,sans-Serif" font-size="11.00" fill="#000000">0 rows</text>
<polygon fill="#ffffff" stroke="transparent" points="549,-985.6831 549,-1004.6831 597,-1004.6831 597,-985.6831 549,-985.6831"/>
<polygon fill="none" stroke="#000000" points="549,-985.6831 549,-1004.6831 597,-1004.6831 597,-985.6831 549,-985.6831"/>
<text text-anchor="start" x="587.8862" y="-991.7831" font-family="Helvetica,sans-Serif" font-size="11.00" fill="#000000"> &#160;</text>
</a>
</g>
</g>
<!-- CompetencyLevelDescriptions&#45;&gt;AspNetUsers -->
<g id="edge8" class="edge">
<title>CompetencyLevelDescriptions:w&#45;&gt;AspNetUsers:e</title>
<path fill="none" stroke="#000000" d="M371.1259,-1005.0636C365.3369,-996.0006 366.2352,-982.3667 361,-969.6831 339.0776,-916.5706 368.3489,-885.5916 328,-844.6831 274.5401,-790.4818 218.7846,-850.4888 163,-798.6831 95.693,-736.177 74.5358,-624.0427 67.9426,-567.3654"/>
<polygon fill="#000000" stroke="#000000" points="376.5259,-1008.9835 380.8852,-1016.5965 379.763,-1011.3333 383,-1013.6831 383,-1013.6831 383,-1013.6831 379.763,-1011.3333 385.1148,-1010.7698 376.5259,-1008.9835 376.5259,-1008.9835"/>
<ellipse fill="none" stroke="#000000" cx="373.9363" cy="-1007.1037" rx="3.2" ry="3.2"/>
</g>
<!-- CompetencyLevelDescriptions&#45;&gt;AspNetUsers -->
<g id="edge9" class="edge">
<title>CompetencyLevelDescriptions:w&#45;&gt;AspNetUsers:e</title>
<path fill="none" stroke="#000000" d="M368.8615,-1010.802C365.468,-1004.782 365.4209,-993.3937 361,-982.6831 339.0776,-929.5706 368.3489,-898.5916 328,-857.6831 274.5401,-803.4818 218.7846,-863.4888 163,-811.6831 92.5667,-746.2737 72.67,-626.5187 67.115,-567.3956"/>
<polygon fill="#000000" stroke="#000000" points="375.1611,-1012.0857 382.2812,-1017.2106 379.0806,-1012.8844 383,-1013.6831 383,-1013.6831 383,-1013.6831 379.0806,-1012.8844 383.7188,-1010.1556 375.1611,-1012.0857 375.1611,-1012.0857"/>
<ellipse fill="none" stroke="#000000" cx="372.0255" cy="-1011.4467" rx="3.2" ry="3.2"/>
</g>
<!-- CompetencyLevelDescriptions&#45;&gt;Competencies -->
<g id="edge7" class="edge">
<title>CompetencyLevelDescriptions:w&#45;&gt;Competencies:e</title>
<path fill="none" stroke="#000000" d="M369.9354,-1007.5428C365.2005,-1000.2778 365.5532,-987.6532 361,-975.6831 335.0309,-907.4123 364.7815,-877.7897 328,-814.6831 319.8631,-800.7225 308.0344,-788.095 295.8626,-777.4544"/>
<polygon fill="#000000" stroke="#000000" points="375.7598,-1010.2802 381.4687,-1016.9412 379.3799,-1011.9817 383,-1013.6831 383,-1013.6831 383,-1013.6831 379.3799,-1011.9817 384.5313,-1010.4251 375.7598,-1010.2802 375.7598,-1010.2802"/>
<ellipse fill="none" stroke="#000000" cx="372.8637" cy="-1008.919" rx="3.2" ry="3.2"/>
</g>
<!-- CompetencyTechnicalCareer -->
<g id="node8" class="node">
<title>CompetencyTechnicalCareer</title>
<g id="a_node8"><a xlink:href="../../tables/CompetencyTechnicalCareer.html" xlink:title="CompetencyTechnicalCareer" target="_top">
<polygon fill="#ffffff" stroke="transparent" points="388,-550.1831 388,-611.1831 592,-611.1831 592,-550.1831 388,-550.1831"/>
<polygon fill="#f5f5f5" stroke="transparent" points="388,-587.6831 388,-610.6831 592,-610.6831 592,-587.6831 388,-587.6831"/>
<polygon fill="none" stroke="#000000" points="388,-587.6831 388,-610.6831 592,-610.6831 592,-587.6831 388,-587.6831"/>
<text text-anchor="start" x="393" y="-596.2831" font-family="Helvetica,sans-Serif" font-weight="bold" font-size="11.00" fill="#000000">CompetencyTechnicalCareer</text>
<text text-anchor="start" x="557.5219" y="-595.7831" font-family="Helvetica,sans-Serif" font-size="11.00" fill="#000000">[table]</text>
<polygon fill="none" stroke="#000000" points="388,-568.6831 388,-587.6831 592,-587.6831 592,-568.6831 388,-568.6831"/>
<text text-anchor="start" x="391" y="-574.7831" font-family="Helvetica,sans-Serif" font-size="11.00" fill="#000000">...</text>
<polygon fill="#ffffff" stroke="transparent" points="388,-549.6831 388,-568.6831 475,-568.6831 475,-549.6831 388,-549.6831"/>
<polygon fill="none" stroke="#000000" points="388,-549.6831 388,-568.6831 475,-568.6831 475,-549.6831 388,-549.6831"/>
<text text-anchor="start" x="391" y="-555.7831" font-family="Helvetica,sans-Serif" font-size="11.00" fill="#000000">&lt; 2</text>
<polygon fill="#ffffff" stroke="transparent" points="475,-549.6831 475,-568.6831 546,-568.6831 546,-549.6831 475,-549.6831"/>
<polygon fill="none" stroke="#000000" points="475,-549.6831 475,-568.6831 546,-568.6831 546,-549.6831 475,-549.6831"/>
<text text-anchor="start" x="510.6105" y="-555.7831" font-family="Helvetica,sans-Serif" font-size="11.00" fill="#000000">0 rows</text>
<polygon fill="#ffffff" stroke="transparent" points="546,-549.6831 546,-568.6831 592,-568.6831 592,-549.6831 546,-549.6831"/>
<polygon fill="none" stroke="#000000" points="546,-549.6831 546,-568.6831 592,-568.6831 592,-549.6831 546,-549.6831"/>
<text text-anchor="start" x="582.8862" y="-555.7831" font-family="Helvetica,sans-Serif" font-size="11.00" fill="#000000"> &#160;</text>
</a>
</g>
</g>
<!-- CompetencyTechnicalCareer&#45;&gt;Competencies -->
<g id="edge10" class="edge">
<title>CompetencyTechnicalCareer:w&#45;&gt;Competencies:e</title>
<path fill="none" stroke="#000000" d="M375.0631,-584.6586C349.3326,-605.4813 300.7262,-668.2153 270.9159,-708.0937"/>
<polygon fill="#000000" stroke="#000000" points="380.9584,-581.4799 389.7086,-580.8519 384.4792,-579.5815 388,-577.6831 388,-577.6831 388,-577.6831 384.4792,-579.5815 386.2914,-574.5144 380.9584,-581.4799 380.9584,-581.4799"/>
<ellipse fill="none" stroke="#000000" cx="378.1417" cy="-582.9987" rx="3.2" ry="3.2"/>
</g>
<!-- TechnicalCareers -->
<g id="node9" class="node">
<title>TechnicalCareers</title>
<g id="a_node9"><a xlink:href="../../tables/TechnicalCareers.html" xlink:title="TechnicalCareers" target="_top">
<polygon fill="#ffffff" stroke="transparent" points="176,-441.1831 176,-502.1831 315,-502.1831 315,-441.1831 176,-441.1831"/>
<polygon fill="#f5f5f5" stroke="transparent" points="176.5,-478.6831 176.5,-501.6831 315.5,-501.6831 315.5,-478.6831 176.5,-478.6831"/>
<polygon fill="none" stroke="#000000" points="176.5,-478.6831 176.5,-501.6831 315.5,-501.6831 315.5,-478.6831 176.5,-478.6831"/>
<text text-anchor="start" x="181.5" y="-487.2831" font-family="Helvetica,sans-Serif" font-weight="bold" font-size="11.00" fill="#000000">TechnicalCareers</text>
<text text-anchor="start" x="281.0219" y="-486.7831" font-family="Helvetica,sans-Serif" font-size="11.00" fill="#000000">[table]</text>
<polygon fill="none" stroke="#000000" points="176.5,-459.6831 176.5,-478.6831 315.5,-478.6831 315.5,-459.6831 176.5,-459.6831"/>
<text text-anchor="start" x="179.5" y="-465.7831" font-family="Helvetica,sans-Serif" font-size="11.00" fill="#000000">...</text>
<polygon fill="#ffffff" stroke="transparent" points="176.5,-440.6831 176.5,-459.6831 226.5,-459.6831 226.5,-440.6831 176.5,-440.6831"/>
<polygon fill="none" stroke="#000000" points="176.5,-440.6831 176.5,-459.6831 226.5,-459.6831 226.5,-440.6831 176.5,-440.6831"/>
<text text-anchor="start" x="179.5" y="-446.7831" font-family="Helvetica,sans-Serif" font-size="11.00" fill="#000000">&lt; 2</text>
<polygon fill="#ffffff" stroke="transparent" points="226.5,-440.6831 226.5,-459.6831 279.5,-459.6831 279.5,-440.6831 226.5,-440.6831"/>
<polygon fill="none" stroke="#000000" points="226.5,-440.6831 226.5,-459.6831 279.5,-459.6831 279.5,-440.6831 226.5,-440.6831"/>
<text text-anchor="start" x="244.1105" y="-446.7831" font-family="Helvetica,sans-Serif" font-size="11.00" fill="#000000">0 rows</text>
<polygon fill="#ffffff" stroke="transparent" points="279.5,-440.6831 279.5,-459.6831 315.5,-459.6831 315.5,-440.6831 279.5,-440.6831"/>
<polygon fill="none" stroke="#000000" points="279.5,-440.6831 279.5,-459.6831 315.5,-459.6831 315.5,-440.6831 279.5,-440.6831"/>
<text text-anchor="start" x="296.9053" y="-446.7831" font-family="Helvetica,sans-Serif" font-size="11.00" fill="#000000">6 &gt;</text>
</a>
</g>
</g>
<!-- CompetencyTechnicalCareer&#45;&gt;TechnicalCareers -->
<g id="edge11" class="edge">
<title>CompetencyTechnicalCareer:w&#45;&gt;TechnicalCareers:e</title>
<path fill="none" stroke="#000000" d="M373.684,-574.7677C337.4121,-557.4336 368.0001,-468.6831 315.5,-468.6831"/>
<polygon fill="#000000" stroke="#000000" points="380.1609,-576.0866 387.2816,-581.2107 384.0805,-576.8849 388,-577.6831 388,-577.6831 388,-577.6831 384.0805,-576.8849 388.7184,-574.1555 380.1609,-576.0866 380.1609,-576.0866"/>
<ellipse fill="none" stroke="#000000" cx="377.0253" cy="-575.4481" rx="3.2" ry="3.2"/>
</g>
<!-- TechnicalCareers&#45;&gt;AspNetUsers -->
<g id="edge48" class="edge">
<title>TechnicalCareers:w&#45;&gt;AspNetUsers:e</title>
<path fill="none" stroke="#000000" d="M161.9817,-468.5953C137.535,-470.7681 114.4414,-484.086 96.9264,-498.0641"/>
<polygon fill="#000000" stroke="#000000" points="168.5001,-468.6347 176.4782,-472.2831 172.5001,-468.6589 176.5,-468.6831 176.5,-468.6831 176.5,-468.6831 172.5001,-468.6589 176.5218,-465.0832 168.5001,-468.6347 168.5001,-468.6347"/>
<ellipse fill="none" stroke="#000000" cx="165.3002" cy="-468.6153" rx="3.2" ry="3.2"/>
</g>
<!-- TechnicalCareers&#45;&gt;AspNetUsers -->
<g id="edge49" class="edge">
<title>TechnicalCareers:w&#45;&gt;AspNetUsers:e</title>
<path fill="none" stroke="#000000" d="M162.2485,-471.5617C143.3123,-476.8212 125.1782,-487.3152 109.8075,-498.1767"/>
<polygon fill="#000000" stroke="#000000" points="168.6584,-470.2671 177.2128,-472.2119 172.5792,-469.4751 176.5,-468.6831 176.5,-468.6831 176.5,-468.6831 172.5792,-469.4751 175.7872,-465.1544 168.6584,-470.2671 168.6584,-470.2671"/>
<ellipse fill="none" stroke="#000000" cx="165.5217" cy="-470.9006" rx="3.2" ry="3.2"/>
</g>
<!-- Coordinators -->
<g id="node10" class="node">
<title>Coordinators</title>
<g id="a_node10"><a xlink:href="../../tables/Coordinators.html" xlink:title="Coordinators" target="_top">
<polygon fill="#ffffff" stroke="transparent" points="433,-386.1831 433,-447.1831 547,-447.1831 547,-386.1831 433,-386.1831"/>
<polygon fill="#f5f5f5" stroke="transparent" points="433,-423.6831 433,-446.6831 547,-446.6831 547,-423.6831 433,-423.6831"/>
<polygon fill="none" stroke="#000000" points="433,-423.6831 433,-446.6831 547,-446.6831 547,-423.6831 433,-423.6831"/>
<text text-anchor="start" x="438" y="-432.2831" font-family="Helvetica,sans-Serif" font-weight="bold" font-size="11.00" fill="#000000">Coordinators</text>
<text text-anchor="start" x="512.5219" y="-431.7831" font-family="Helvetica,sans-Serif" font-size="11.00" fill="#000000">[table]</text>
<polygon fill="none" stroke="#000000" points="433,-404.6831 433,-423.6831 547,-423.6831 547,-404.6831 433,-404.6831"/>
<text text-anchor="start" x="436" y="-410.7831" font-family="Helvetica,sans-Serif" font-size="11.00" fill="#000000">...</text>
<polygon fill="#ffffff" stroke="transparent" points="433,-385.6831 433,-404.6831 475,-404.6831 475,-385.6831 433,-385.6831"/>
<polygon fill="none" stroke="#000000" points="433,-385.6831 433,-404.6831 475,-404.6831 475,-385.6831 433,-385.6831"/>
<text text-anchor="start" x="436" y="-391.7831" font-family="Helvetica,sans-Serif" font-size="11.00" fill="#000000">&lt; 2</text>
<polygon fill="#ffffff" stroke="transparent" points="475,-385.6831 475,-404.6831 524,-404.6831 524,-385.6831 475,-385.6831"/>
<polygon fill="none" stroke="#000000" points="475,-385.6831 475,-404.6831 524,-404.6831 524,-385.6831 475,-385.6831"/>
<text text-anchor="start" x="488.6105" y="-391.7831" font-family="Helvetica,sans-Serif" font-size="11.00" fill="#000000">0 rows</text>
<polygon fill="#ffffff" stroke="transparent" points="524,-385.6831 524,-404.6831 547,-404.6831 547,-385.6831 524,-385.6831"/>
<polygon fill="none" stroke="#000000" points="524,-385.6831 524,-404.6831 547,-404.6831 547,-385.6831 524,-385.6831"/>
<text text-anchor="start" x="537.8862" y="-391.7831" font-family="Helvetica,sans-Serif" font-size="11.00" fill="#000000"> &#160;</text>
</a>
</g>
</g>
<!-- Coordinators&#45;&gt;AspNetUsers -->
<g id="edge13" class="edge">
<title>Coordinators:w&#45;&gt;AspNetUsers:e</title>
<path fill="none" stroke="#000000" d="M422.2946,-413.5941C310.2367,-411.7274 268.7812,-381.6389 163,-430.6831 131.8092,-445.1444 105.4243,-474.294 87.9171,-497.7417"/>
<polygon fill="#000000" stroke="#000000" points="432.2333,-409.6766 432.1667,-417.6763 430.5668,-417.663 430.6334,-409.6633 432.2333,-409.6766"/>
<polyline fill="none" stroke="#000000" points="433,-413.6831 429.0001,-413.6498 "/>
<ellipse fill="none" stroke="#000000" cx="425.8002" cy="-413.6232" rx="3.2" ry="3.2"/>
</g>
<!-- Coordinators&#45;&gt;TechnicalCareers -->
<g id="edge12" class="edge">
<title>Coordinators:w&#45;&gt;TechnicalCareers:e</title>
<path fill="none" stroke="#000000" d="M418.4377,-414.9885C374.4722,-423.3173 367.8671,-468.6831 315.5,-468.6831"/>
<polygon fill="#000000" stroke="#000000" points="425.0319,-414.3974 433.3214,-417.2688 429.016,-414.0403 433,-413.6831 433,-413.6831 433,-413.6831 429.016,-414.0403 432.6786,-410.0975 425.0319,-414.3974 425.0319,-414.3974"/>
<ellipse fill="none" stroke="#000000" cx="421.8447" cy="-414.6831" rx="3.2" ry="3.2"/>
</g>
<!-- EvaluationPeriods -->
<g id="node11" class="node">
<title>EvaluationPeriods</title>
<g id="a_node11"><a xlink:href="../../tables/EvaluationPeriods.html" xlink:title="EvaluationPeriods" target="_top">
<polygon fill="#ffffff" stroke="transparent" points="174,-563.1831 174,-624.1831 317,-624.1831 317,-563.1831 174,-563.1831"/>
<polygon fill="#f5f5f5" stroke="transparent" points="174.5,-600.6831 174.5,-623.6831 317.5,-623.6831 317.5,-600.6831 174.5,-600.6831"/>
<polygon fill="none" stroke="#000000" points="174.5,-600.6831 174.5,-623.6831 317.5,-623.6831 317.5,-600.6831 174.5,-600.6831"/>
<text text-anchor="start" x="179.5" y="-609.2831" font-family="Helvetica,sans-Serif" font-weight="bold" font-size="11.00" fill="#000000">EvaluationPeriods</text>
<text text-anchor="start" x="283.0219" y="-608.7831" font-family="Helvetica,sans-Serif" font-size="11.00" fill="#000000">[table]</text>
<polygon fill="none" stroke="#000000" points="174.5,-581.6831 174.5,-600.6831 317.5,-600.6831 317.5,-581.6831 174.5,-581.6831"/>
<text text-anchor="start" x="177.5" y="-587.7831" font-family="Helvetica,sans-Serif" font-size="11.00" fill="#000000">...</text>
<polygon fill="#ffffff" stroke="transparent" points="174.5,-562.6831 174.5,-581.6831 226.5,-581.6831 226.5,-562.6831 174.5,-562.6831"/>
<polygon fill="none" stroke="#000000" points="174.5,-562.6831 174.5,-581.6831 226.5,-581.6831 226.5,-562.6831 174.5,-562.6831"/>
<text text-anchor="start" x="177.5" y="-568.7831" font-family="Helvetica,sans-Serif" font-size="11.00" fill="#000000">&lt; 2</text>
<polygon fill="#ffffff" stroke="transparent" points="226.5,-562.6831 226.5,-581.6831 280.5,-581.6831 280.5,-562.6831 226.5,-562.6831"/>
<polygon fill="none" stroke="#000000" points="226.5,-562.6831 226.5,-581.6831 280.5,-581.6831 280.5,-562.6831 226.5,-562.6831"/>
<text text-anchor="start" x="245.1105" y="-568.7831" font-family="Helvetica,sans-Serif" font-size="11.00" fill="#000000">0 rows</text>
<polygon fill="#ffffff" stroke="transparent" points="280.5,-562.6831 280.5,-581.6831 317.5,-581.6831 317.5,-562.6831 280.5,-562.6831"/>
<polygon fill="none" stroke="#000000" points="280.5,-562.6831 280.5,-581.6831 317.5,-581.6831 317.5,-562.6831 280.5,-562.6831"/>
<text text-anchor="start" x="298.9053" y="-568.7831" font-family="Helvetica,sans-Serif" font-size="11.00" fill="#000000">3 &gt;</text>
</a>
</g>
</g>
<!-- EvaluationPeriods&#45;&gt;AspNetUsers -->
<g id="edge14" class="edge">
<title>EvaluationPeriods:w&#45;&gt;AspNetUsers:e</title>
<path fill="none" stroke="#000000" d="M160.1478,-588.0054C143.9139,-583.7842 128.1522,-575.8533 114.2802,-567.2701"/>
<polygon fill="#000000" stroke="#000000" points="166.6357,-589.2158 173.8397,-594.2221 170.5679,-589.9495 174.5,-590.6831 174.5,-590.6831 174.5,-590.6831 170.5679,-589.9495 175.1603,-587.1442 166.6357,-589.2158 166.6357,-589.2158"/>
<ellipse fill="none" stroke="#000000" cx="163.49" cy="-588.6289" rx="3.2" ry="3.2"/>
</g>
<!-- EvaluationPeriods&#45;&gt;AspNetUsers -->
<g id="edge15" class="edge">
<title>EvaluationPeriods:w&#45;&gt;AspNetUsers:e</title>
<path fill="none" stroke="#000000" d="M159.8258,-591.0878C137.6347,-589.5956 116.3444,-579.0513 99.5795,-567.2727"/>
<polygon fill="#000000" stroke="#000000" points="166.503,-590.9037 174.5993,-594.2818 170.5015,-590.7934 174.5,-590.6831 174.5,-590.6831 174.5,-590.6831 170.5015,-590.7934 174.4007,-587.0845 166.503,-590.9037 166.503,-590.9037"/>
<ellipse fill="none" stroke="#000000" cx="163.3043" cy="-590.9919" rx="3.2" ry="3.2"/>
</g>
<!-- FormQuestions -->
<g id="node12" class="node">
<title>FormQuestions</title>
<g id="a_node12"><a xlink:href="../../tables/FormQuestions.html" xlink:title="FormQuestions" target="_top">
<polygon fill="#ffffff" stroke="transparent" points="380.5,-698.6831 380.5,-964.6831 599.5,-964.6831 599.5,-698.6831 380.5,-698.6831"/>
<polygon fill="#f5f5f5" stroke="transparent" points="383,-939.6831 383,-962.6831 598,-962.6831 598,-939.6831 383,-939.6831"/>
<polygon fill="none" stroke="#000000" points="383,-939.6831 383,-962.6831 598,-962.6831 598,-939.6831 383,-939.6831"/>
<text text-anchor="start" x="388" y="-948.2831" font-family="Helvetica,sans-Serif" font-weight="bold" font-size="11.00" fill="#000000">FormQuestions</text>
<text text-anchor="start" x="563.0437" y="-947.7831" font-family="Helvetica,sans-Serif" font-size="11.00" fill="#000000">[table]</text>
<polygon fill="none" stroke="#000000" points="383,-917.6831 383,-939.6831 504,-939.6831 504,-917.6831 383,-917.6831"/>
<image xlink:href="../../images/primaryKeys.png" width="11px" height="12px" preserveAspectRatio="xMinYMin meet" x="388" y="-934.683"/>
<text text-anchor="start" x="403" y="-924.7831" font-family="Helvetica,sans-Serif" font-size="11.00" fill="#000000">Id</text>
<polygon fill="none" stroke="#000000" points="504,-917.6831 504,-939.6831 598,-939.6831 598,-917.6831 504,-917.6831"/>
<text text-anchor="start" x="506.9758" y="-925.3831" font-family="Helvetica,sans-Serif" font-size="11.00" fill="#000000">uuid[2147483647]</text>
<polygon fill="none" stroke="#000000" points="383,-895.6831 383,-917.6831 504,-917.6831 504,-895.6831 383,-895.6831"/>
<text text-anchor="start" x="403" y="-902.7831" font-family="Helvetica,sans-Serif" font-size="11.00" fill="#000000">Text</text>
<polygon fill="none" stroke="#000000" points="504,-895.6831 504,-917.6831 598,-917.6831 598,-895.6831 504,-895.6831"/>
<text text-anchor="start" x="507" y="-903.3831" font-family="Helvetica,sans-Serif" font-size="11.00" fill="#000000">text[2147483647]</text>
<polygon fill="none" stroke="#000000" points="383,-873.6831 383,-895.6831 504,-895.6831 504,-873.6831 383,-873.6831"/>
<text text-anchor="start" x="403" y="-880.7831" font-family="Helvetica,sans-Serif" font-size="11.00" fill="#000000">IsRequired</text>
<polygon fill="none" stroke="#000000" points="504,-873.6831 504,-895.6831 598,-895.6831 598,-873.6831 504,-873.6831"/>
<text text-anchor="start" x="507" y="-881.3831" font-family="Helvetica,sans-Serif" font-size="11.00" fill="#000000">bool[1]</text>
<polygon fill="none" stroke="#000000" points="383,-851.6831 383,-873.6831 504,-873.6831 504,-851.6831 383,-851.6831"/>
<text text-anchor="start" x="403" y="-858.7831" font-family="Helvetica,sans-Serif" font-size="11.00" fill="#000000">Order</text>
<polygon fill="none" stroke="#000000" points="504,-851.6831 504,-873.6831 598,-873.6831 598,-851.6831 504,-851.6831"/>
<text text-anchor="start" x="507" y="-859.3831" font-family="Helvetica,sans-Serif" font-size="11.00" fill="#000000">int4[10]</text>
<polygon fill="#ffffff" stroke="transparent" points="383,-829.6831 383,-851.6831 504,-851.6831 504,-829.6831 383,-829.6831"/>
<polygon fill="none" stroke="#000000" points="383,-829.6831 383,-851.6831 504,-851.6831 504,-829.6831 383,-829.6831"/>
<image xlink:href="../../images/foreignKeys.png" width="11px" height="12px" preserveAspectRatio="xMinYMin meet" x="388" y="-846.683"/>
<text text-anchor="start" x="403" y="-836.7831" font-family="Helvetica,sans-Serif" font-size="11.00" fill="#000000">CompetencyId</text>
<polygon fill="none" stroke="#000000" points="504,-829.6831 504,-851.6831 598,-851.6831 598,-829.6831 504,-829.6831"/>
<text text-anchor="start" x="506.9758" y="-837.3831" font-family="Helvetica,sans-Serif" font-size="11.00" fill="#000000">uuid[2147483647]</text>
<polygon fill="none" stroke="#000000" points="383,-807.6831 383,-829.6831 504,-829.6831 504,-807.6831 383,-807.6831"/>
<text text-anchor="start" x="403" y="-814.7831" font-family="Helvetica,sans-Serif" font-size="11.00" fill="#000000">IsActive</text>
<polygon fill="none" stroke="#000000" points="504,-807.6831 504,-829.6831 598,-829.6831 598,-807.6831 504,-807.6831"/>
<text text-anchor="start" x="507" y="-815.3831" font-family="Helvetica,sans-Serif" font-size="11.00" fill="#000000">bool[1]</text>
<polygon fill="none" stroke="#000000" points="383,-785.6831 383,-807.6831 504,-807.6831 504,-785.6831 383,-785.6831"/>
<text text-anchor="start" x="403" y="-792.7831" font-family="Helvetica,sans-Serif" font-size="11.00" fill="#000000">CreatedAt</text>
<polygon fill="none" stroke="#000000" points="504,-785.6831 504,-807.6831 598,-807.6831 598,-785.6831 504,-785.6831"/>
<text text-anchor="start" x="507" y="-793.3831" font-family="Helvetica,sans-Serif" font-size="11.00" fill="#000000">timestamptz[35,6]</text>
<polygon fill="none" stroke="#000000" points="383,-763.6831 383,-785.6831 504,-785.6831 504,-763.6831 383,-763.6831"/>
<text text-anchor="start" x="403" y="-770.7831" font-family="Helvetica,sans-Serif" font-size="11.00" fill="#000000">UpdatedAt</text>
<polygon fill="none" stroke="#000000" points="504,-763.6831 504,-785.6831 598,-785.6831 598,-763.6831 504,-763.6831"/>
<text text-anchor="start" x="507" y="-771.3831" font-family="Helvetica,sans-Serif" font-size="11.00" fill="#000000">timestamptz[35,6]</text>
<polygon fill="#ffffff" stroke="transparent" points="383,-741.6831 383,-763.6831 504,-763.6831 504,-741.6831 383,-741.6831"/>
<polygon fill="none" stroke="#000000" points="383,-741.6831 383,-763.6831 504,-763.6831 504,-741.6831 383,-741.6831"/>
<image xlink:href="../../images/foreignKeys.png" width="11px" height="12px" preserveAspectRatio="xMinYMin meet" x="388" y="-758.683"/>
<text text-anchor="start" x="403" y="-748.7831" font-family="Helvetica,sans-Serif" font-size="11.00" fill="#000000">CreatedByUserId</text>
<polygon fill="none" stroke="#000000" points="504,-741.6831 504,-763.6831 598,-763.6831 598,-741.6831 504,-741.6831"/>
<text text-anchor="start" x="507" y="-749.3831" font-family="Helvetica,sans-Serif" font-size="11.00" fill="#000000">text[2147483647]</text>
<polygon fill="#ffffff" stroke="transparent" points="383,-719.6831 383,-741.6831 504,-741.6831 504,-719.6831 383,-719.6831"/>
<polygon fill="none" stroke="#000000" points="383,-719.6831 383,-741.6831 504,-741.6831 504,-719.6831 383,-719.6831"/>
<image xlink:href="../../images/foreignKeys.png" width="11px" height="12px" preserveAspectRatio="xMinYMin meet" x="388" y="-736.683"/>
<text text-anchor="start" x="403" y="-726.7831" font-family="Helvetica,sans-Serif" font-size="11.00" fill="#000000">UpdatedByUserId</text>
<polygon fill="none" stroke="#000000" points="504,-719.6831 504,-741.6831 598,-741.6831 598,-719.6831 504,-719.6831"/>
<text text-anchor="start" x="507" y="-727.3831" font-family="Helvetica,sans-Serif" font-size="11.00" fill="#000000">text[2147483647]</text>
<polygon fill="#ffffff" stroke="transparent" points="383,-700.6831 383,-719.6831 435,-719.6831 435,-700.6831 383,-700.6831"/>
<polygon fill="none" stroke="#000000" points="383,-700.6831 383,-719.6831 435,-719.6831 435,-700.6831 383,-700.6831"/>
<text text-anchor="start" x="386" y="-706.7831" font-family="Helvetica,sans-Serif" font-size="11.00" fill="#000000">&lt; 3</text>
<polygon fill="#ffffff" stroke="transparent" points="435,-700.6831 435,-719.6831 504,-719.6831 504,-700.6831 435,-700.6831"/>
<polygon fill="none" stroke="#000000" points="435,-700.6831 435,-719.6831 504,-719.6831 504,-700.6831 435,-700.6831"/>
<text text-anchor="start" x="468.6105" y="-706.7831" font-family="Helvetica,sans-Serif" font-size="11.00" fill="#000000">0 rows</text>
<polygon fill="#ffffff" stroke="transparent" points="504,-700.6831 504,-719.6831 598,-719.6831 598,-700.6831 504,-700.6831"/>
<polygon fill="none" stroke="#000000" points="504,-700.6831 504,-719.6831 598,-719.6831 598,-700.6831 504,-700.6831"/>
<text text-anchor="start" x="579.4053" y="-706.7831" font-family="Helvetica,sans-Serif" font-size="11.00" fill="#000000">1 &gt;</text>
<polygon fill="none" stroke="#000000" stroke-width="2" points="381.5,-699.6831 381.5,-963.6831 598.5,-963.6831 598.5,-699.6831 381.5,-699.6831"/>
</a>
</g>
</g>
<!-- FormQuestions&#45;&gt;AspNetUsers -->
<g id="edge17" class="edge">
<title>FormQuestions:w&#45;&gt;AspNetUsers:e</title>
<path fill="none" stroke="#000000" d="M368.4938,-755.4891C353.8083,-762.0111 349.4159,-778.0633 328,-783.6831 257.0682,-802.2965 223.5544,-825.0467 163,-783.6831 126.0134,-758.4184 89.524,-630.4989 73.4846,-567.6434"/>
<polygon fill="#000000" stroke="#000000" points="375.1456,-754.2025 383.6837,-756.2176 379.0728,-753.4428 383,-752.6831 383,-752.6831 383,-752.6831 379.0728,-753.4428 382.3163,-749.1487 375.1456,-754.2025 375.1456,-754.2025"/>
<ellipse fill="none" stroke="#000000" cx="372.0038" cy="-754.8102" rx="3.2" ry="3.2"/>
</g>
<!-- FormQuestions&#45;&gt;AspNetUsers -->
<g id="edge18" class="edge">
<title>FormQuestions:w&#45;&gt;AspNetUsers:e</title>
<path fill="none" stroke="#000000" d="M368.5512,-728.3147C353.7247,-722.7676 348.5897,-708.8617 328,-701.6831 257.5431,-677.1184 225.8396,-710.9174 163,-670.6831 124.1471,-645.8068 96.0906,-599.5392 80.2011,-567.4743"/>
<polygon fill="#000000" stroke="#000000" points="375.1054,-729.389 382.4176,-734.2357 379.0527,-730.0361 383,-730.6831 383,-730.6831 383,-730.6831 379.0527,-730.0361 383.5824,-727.1306 375.1054,-729.389 375.1054,-729.389"/>
<ellipse fill="none" stroke="#000000" cx="371.9475" cy="-728.8713" rx="3.2" ry="3.2"/>
</g>
<!-- FormQuestions&#45;&gt;Competencies -->
<g id="edge16" class="edge">
<title>FormQuestions:w&#45;&gt;Competencies:e</title>
<path fill="none" stroke="#000000" d="M368.6888,-837.9984C350.2287,-829.7476 350.6638,-804.316 328,-787.6831 323.1334,-784.1116 317.9502,-780.6324 312.6435,-777.2935"/>
<polygon fill="#000000" stroke="#000000" points="375.1372,-839.208 382.3362,-844.2214 379.0686,-839.9456 383,-840.6831 383,-840.6831 383,-840.6831 379.0686,-839.9456 383.6638,-837.1449 375.1372,-839.208 375.1372,-839.208"/>
<ellipse fill="none" stroke="#000000" cx="371.992" cy="-838.618" rx="3.2" ry="3.2"/>
</g>
<!-- ProfessorCompetencyAssignments -->
<g id="node13" class="node">
<title>ProfessorCompetencyAssignments</title>
<g id="a_node13"><a xlink:href="../../tables/ProfessorCompetencyAssignments.html" xlink:title="ProfessorCompetencyAssignments" target="_top">
<polygon fill="#ffffff" stroke="transparent" points="369,-468.1831 369,-529.1831 611,-529.1831 611,-468.1831 369,-468.1831"/>
<polygon fill="#f5f5f5" stroke="transparent" points="369,-505.6831 369,-528.6831 611,-528.6831 611,-505.6831 369,-505.6831"/>
<polygon fill="none" stroke="#000000" points="369,-505.6831 369,-528.6831 611,-528.6831 611,-505.6831 369,-505.6831"/>
<text text-anchor="start" x="374" y="-514.2831" font-family="Helvetica,sans-Serif" font-weight="bold" font-size="11.00" fill="#000000">ProfessorCompetencyAssignments</text>
<text text-anchor="start" x="576.5219" y="-513.7831" font-family="Helvetica,sans-Serif" font-size="11.00" fill="#000000">[table]</text>
<polygon fill="none" stroke="#000000" points="369,-486.6831 369,-505.6831 611,-505.6831 611,-486.6831 369,-486.6831"/>
<text text-anchor="start" x="372" y="-492.7831" font-family="Helvetica,sans-Serif" font-size="11.00" fill="#000000">...</text>
<polygon fill="#ffffff" stroke="transparent" points="369,-467.6831 369,-486.6831 471,-486.6831 471,-467.6831 369,-467.6831"/>
<polygon fill="none" stroke="#000000" points="369,-467.6831 369,-486.6831 471,-486.6831 471,-467.6831 369,-467.6831"/>
<text text-anchor="start" x="372" y="-473.7831" font-family="Helvetica,sans-Serif" font-size="11.00" fill="#000000">&lt; 6</text>
<polygon fill="#ffffff" stroke="transparent" points="471,-467.6831 471,-486.6831 549,-486.6831 549,-467.6831 471,-467.6831"/>
<polygon fill="none" stroke="#000000" points="471,-467.6831 471,-486.6831 549,-486.6831 549,-467.6831 471,-467.6831"/>
<text text-anchor="start" x="513.6105" y="-473.7831" font-family="Helvetica,sans-Serif" font-size="11.00" fill="#000000">0 rows</text>
<polygon fill="#ffffff" stroke="transparent" points="549,-467.6831 549,-486.6831 611,-486.6831 611,-467.6831 549,-467.6831"/>
<polygon fill="none" stroke="#000000" points="549,-467.6831 549,-486.6831 611,-486.6831 611,-467.6831 549,-467.6831"/>
<text text-anchor="start" x="592.4053" y="-473.7831" font-family="Helvetica,sans-Serif" font-size="11.00" fill="#000000">1 &gt;</text>
</a>
</g>
</g>
<!-- ProfessorCompetencyAssignments&#45;&gt;AspNetUsers -->
<g id="edge20" class="edge">
<title>ProfessorCompetencyAssignments:w&#45;&gt;AspNetUsers:e</title>
<path fill="none" stroke="#000000" d="M354.6141,-494.6526C346.2993,-496.6786 341.1909,-503.5322 328,-506.6831 261.8603,-522.4821 183.956,-526.6816 130.1912,-528.5938"/>
<polygon fill="#000000" stroke="#000000" points="361.0204,-495.1115 368.7427,-499.2739 365.0102,-495.3973 369,-495.6831 369,-495.6831 369,-495.6831 365.0102,-495.3973 369.2573,-492.0923 361.0204,-495.1115 361.0204,-495.1115"/>
<ellipse fill="none" stroke="#000000" cx="357.8286" cy="-494.8828" rx="3.2" ry="3.2"/>
</g>
<!-- ProfessorCompetencyAssignments&#45;&gt;AspNetUsers -->
<g id="edge24" class="edge">
<title>ProfessorCompetencyAssignments:w&#45;&gt;AspNetUsers:e</title>
<path fill="none" stroke="#000000" d="M356.0645,-502.3694C346.8537,-508.8879 341.9404,-516.3532 328,-519.6831 261.8603,-535.4821 183.956,-539.6816 130.1912,-539.0563"/>
<polygon fill="#000000" stroke="#000000" points="361.8933,-499.3566 370.6531,-498.8812 365.4466,-497.5199 369,-495.6831 369,-495.6831 369,-495.6831 365.4466,-497.5199 367.3469,-492.4851 361.8933,-499.3566 361.8933,-499.3566"/>
<ellipse fill="none" stroke="#000000" cx="359.0506" cy="-500.826" rx="3.2" ry="3.2"/>
</g>
<!-- ProfessorCompetencyAssignments&#45;&gt;Competencies -->
<g id="edge19" class="edge">
<title>ProfessorCompetencyAssignments:w&#45;&gt;Competencies:e</title>
<path fill="none" stroke="#000000" d="M354.5928,-497.5015C313.1979,-509.834 354.5843,-582.2939 328,-634.6831 314.5471,-661.1945 294.3514,-687.7716 277.3093,-707.9273"/>
<polygon fill="#000000" stroke="#000000" points="361.063,-496.685 369.4508,-499.2548 365.0315,-496.184 369,-495.6831 369,-495.6831 369,-495.6831 365.0315,-496.184 368.5492,-492.1115 361.063,-496.685 361.063,-496.685"/>
<ellipse fill="none" stroke="#000000" cx="357.8882" cy="-497.0857" rx="3.2" ry="3.2"/>
</g>
<!-- ProfessorCompetencyAssignments&#45;&gt;TechnicalCareers -->
<g id="edge23" class="edge">
<title>ProfessorCompetencyAssignments:w&#45;&gt;TechnicalCareers:e</title>
<path fill="none" stroke="#000000" d="M354.7588,-492.3724C341.0011,-485.1626 336.308,-468.6831 315.5,-468.6831"/>
<polygon fill="#000000" stroke="#000000" points="361.2078,-493.8716 368.1848,-499.1896 365.1039,-494.7774 369,-495.6831 369,-495.6831 369,-495.6831 365.1039,-494.7774 369.8152,-492.1766 361.2078,-493.8716 361.2078,-493.8716"/>
<ellipse fill="none" stroke="#000000" cx="358.0909" cy="-493.147" rx="3.2" ry="3.2"/>
</g>
<!-- ProfessorCompetencyAssignments&#45;&gt;EvaluationPeriods -->
<g id="edge21" class="edge">
<title>ProfessorCompetencyAssignments:w&#45;&gt;EvaluationPeriods:e</title>
<path fill="none" stroke="#000000" d="M354.9679,-499.7652C330.6648,-517.9488 359.5238,-590.6831 317.5,-590.6831"/>
<polygon fill="#000000" stroke="#000000" points="361.3184,-497.9178 370.0056,-499.1398 365.1592,-496.8005 369,-495.6831 369,-495.6831 369,-495.6831 365.1592,-496.8005 367.9944,-492.2264 361.3184,-497.9178 361.3184,-497.9178"/>
<ellipse fill="none" stroke="#000000" cx="358.2458" cy="-498.8117" rx="3.2" ry="3.2"/>
</g>
<!-- Professors -->
<g id="node14" class="node">
<title>Professors</title>
<g id="a_node14"><a xlink:href="../../tables/Professors.html" xlink:title="Professors" target="_top">
<polygon fill="#ffffff" stroke="transparent" points="195,-304.1831 195,-365.1831 296,-365.1831 296,-304.1831 195,-304.1831"/>
<polygon fill="#f5f5f5" stroke="transparent" points="195.5,-341.6831 195.5,-364.6831 296.5,-364.6831 296.5,-341.6831 195.5,-341.6831"/>
<polygon fill="none" stroke="#000000" points="195.5,-341.6831 195.5,-364.6831 296.5,-364.6831 296.5,-341.6831 195.5,-341.6831"/>
<text text-anchor="start" x="200.5" y="-350.2831" font-family="Helvetica,sans-Serif" font-weight="bold" font-size="11.00" fill="#000000">Professors</text>
<text text-anchor="start" x="262.0219" y="-349.7831" font-family="Helvetica,sans-Serif" font-size="11.00" fill="#000000">[table]</text>
<polygon fill="none" stroke="#000000" points="195.5,-322.6831 195.5,-341.6831 296.5,-341.6831 296.5,-322.6831 195.5,-322.6831"/>
<text text-anchor="start" x="198.5" y="-328.7831" font-family="Helvetica,sans-Serif" font-size="11.00" fill="#000000">...</text>
<polygon fill="#ffffff" stroke="transparent" points="195.5,-303.6831 195.5,-322.6831 226.5,-322.6831 226.5,-303.6831 195.5,-303.6831"/>
<polygon fill="none" stroke="#000000" points="195.5,-303.6831 195.5,-322.6831 226.5,-322.6831 226.5,-303.6831 195.5,-303.6831"/>
<text text-anchor="start" x="198.5" y="-309.7831" font-family="Helvetica,sans-Serif" font-size="11.00" fill="#000000">&lt; 1</text>
<polygon fill="#ffffff" stroke="transparent" points="226.5,-303.6831 226.5,-322.6831 269.5,-322.6831 269.5,-303.6831 226.5,-303.6831"/>
<polygon fill="none" stroke="#000000" points="226.5,-303.6831 226.5,-322.6831 269.5,-322.6831 269.5,-303.6831 226.5,-303.6831"/>
<text text-anchor="start" x="234.1105" y="-309.7831" font-family="Helvetica,sans-Serif" font-size="11.00" fill="#000000">0 rows</text>
<polygon fill="#ffffff" stroke="transparent" points="269.5,-303.6831 269.5,-322.6831 296.5,-322.6831 296.5,-303.6831 269.5,-303.6831"/>
<polygon fill="none" stroke="#000000" points="269.5,-303.6831 269.5,-322.6831 296.5,-322.6831 296.5,-303.6831 269.5,-303.6831"/>
<text text-anchor="start" x="277.9053" y="-309.7831" font-family="Helvetica,sans-Serif" font-size="11.00" fill="#000000">2 &gt;</text>
</a>
</g>
</g>
<!-- ProfessorCompetencyAssignments&#45;&gt;Professors -->
<g id="edge22" class="edge">
<title>ProfessorCompetencyAssignments:w&#45;&gt;Professors:e</title>
<path fill="none" stroke="#000000" d="M354.5445,-493.3648C300.7014,-473.4314 370.5901,-331.6831 296.5,-331.6831"/>
<polygon fill="#000000" stroke="#000000" points="361.1009,-494.4163 368.4299,-499.2377 365.0505,-495.0497 369,-495.6831 369,-495.6831 369,-495.6831 365.0505,-495.0497 369.5701,-492.1286 361.1009,-494.4163 361.1009,-494.4163"/>
<ellipse fill="none" stroke="#000000" cx="357.9413" cy="-493.9095" rx="3.2" ry="3.2"/>
</g>
<!-- Professors&#45;&gt;AspNetUsers -->
<g id="edge25" class="edge">
<title>Professors:w&#45;&gt;AspNetUsers:e</title>
<path fill="none" stroke="#000000" d="M184.7638,-332.385C113.9624,-341.7866 82.8108,-443.355 71.0764,-498.13"/>
<polygon fill="#000000" stroke="#000000" points="194.4407,-327.7439 194.9627,-335.7268 193.3661,-335.8312 192.8442,-327.8482 194.4407,-327.7439"/>
<polyline fill="none" stroke="#000000" points="195.5,-331.6831 191.5085,-331.9441 "/>
<ellipse fill="none" stroke="#000000" cx="188.3153" cy="-332.1529" rx="3.2" ry="3.2"/>
</g>
<!-- QuestionResponses -->
<g id="node15" class="node">
<title>QuestionResponses</title>
<g id="a_node15"><a xlink:href="../../tables/QuestionResponses.html" xlink:title="QuestionResponses" target="_top">
<polygon fill="#ffffff" stroke="transparent" points="932,-162.1831 932,-223.1831 1087,-223.1831 1087,-162.1831 932,-162.1831"/>
<polygon fill="#f5f5f5" stroke="transparent" points="932.5,-199.6831 932.5,-222.6831 1087.5,-222.6831 1087.5,-199.6831 932.5,-199.6831"/>
<polygon fill="none" stroke="#000000" points="932.5,-199.6831 932.5,-222.6831 1087.5,-222.6831 1087.5,-199.6831 932.5,-199.6831"/>
<text text-anchor="start" x="937.5" y="-208.2831" font-family="Helvetica,sans-Serif" font-weight="bold" font-size="11.00" fill="#000000">QuestionResponses</text>
<text text-anchor="start" x="1053.0219" y="-207.7831" font-family="Helvetica,sans-Serif" font-size="11.00" fill="#000000">[table]</text>
<polygon fill="none" stroke="#000000" points="932.5,-180.6831 932.5,-199.6831 1087.5,-199.6831 1087.5,-180.6831 932.5,-180.6831"/>
<text text-anchor="start" x="935.5" y="-186.7831" font-family="Helvetica,sans-Serif" font-size="11.00" fill="#000000">...</text>
<polygon fill="#ffffff" stroke="transparent" points="932.5,-161.6831 932.5,-180.6831 995.5,-180.6831 995.5,-161.6831 932.5,-161.6831"/>
<polygon fill="none" stroke="#000000" points="932.5,-161.6831 932.5,-180.6831 995.5,-180.6831 995.5,-161.6831 932.5,-161.6831"/>
<text text-anchor="start" x="935.5" y="-167.7831" font-family="Helvetica,sans-Serif" font-size="11.00" fill="#000000">&lt; 4</text>
<polygon fill="#ffffff" stroke="transparent" points="995.5,-161.6831 995.5,-180.6831 1054.5,-180.6831 1054.5,-161.6831 995.5,-161.6831"/>
<polygon fill="none" stroke="#000000" points="995.5,-161.6831 995.5,-180.6831 1054.5,-180.6831 1054.5,-161.6831 995.5,-161.6831"/>
<text text-anchor="start" x="1019.1105" y="-167.7831" font-family="Helvetica,sans-Serif" font-size="11.00" fill="#000000">0 rows</text>
<polygon fill="#ffffff" stroke="transparent" points="1054.5,-161.6831 1054.5,-180.6831 1087.5,-180.6831 1087.5,-161.6831 1054.5,-161.6831"/>
<polygon fill="none" stroke="#000000" points="1054.5,-161.6831 1054.5,-180.6831 1087.5,-180.6831 1087.5,-161.6831 1054.5,-161.6831"/>
<text text-anchor="start" x="1078.3862" y="-167.7831" font-family="Helvetica,sans-Serif" font-size="11.00" fill="#000000"> &#160;</text>
</a>
</g>
</g>
<!-- QuestionResponses&#45;&gt;AspNetUsers -->
<g id="edge26" class="edge">
<title>QuestionResponses:w&#45;&gt;AspNetUsers:e</title>
<path fill="none" stroke="#000000" d="M931.015,-152.0178C768.4131,-77.9181 390.9277,55.4604 163,-123.6831 104.0535,-170.0132 76.1593,-407.6493 67.8042,-497.9167"/>
<polygon fill="#000000" stroke="#000000" points="936.9493,-154.7612 942.7002,-161.386 940.5801,-156.4398 944.2109,-158.1183 944.2109,-158.1183 944.2109,-158.1183 940.5801,-156.4398 945.7216,-154.8506 936.9493,-154.7612 936.9493,-154.7612"/>
<ellipse fill="none" stroke="#000000" cx="934.0447" cy="-153.4184" rx="3.2" ry="3.2"/>
</g>
<!-- QuestionResponses&#45;&gt;AspNetUsers -->
<g id="edge29" class="edge">
<title>QuestionResponses:w&#45;&gt;AspNetUsers:e</title>
<path fill="none" stroke="#000000" d="M915.1966,-152.5636C745.0284,-82.9077 383.8239,36.8771 163,-136.6831 105.398,-181.9564 77.4479,-409.9083 68.4066,-497.9839"/>
<polygon fill="#000000" stroke="#000000" points="921.2022,-155.0478 927.2187,-161.4323 924.8985,-156.5767 928.5948,-158.1056 928.5948,-158.1056 928.5948,-158.1056 924.8985,-156.5767 929.9708,-154.779 921.2022,-155.0478 921.2022,-155.0478"/>
<ellipse fill="none" stroke="#000000" cx="918.2452" cy="-153.8246" rx="3.2" ry="3.2"/>
</g>
<!-- QuestionResponses&#45;&gt;FormQuestions -->
<g id="edge27" class="edge">
<title>QuestionResponses:w&#45;&gt;FormQuestions:e</title>
<path fill="none" stroke="#000000" d="M1005.5594,-242.0094C989.45,-406.9104 913.546,-928.6831 598,-928.6831"/>
<polygon fill="#000000" stroke="#000000" points="1006.1966,-235.1604 1010.5223,-227.5283 1006.5672,-231.1776 1006.9377,-227.1948 1006.9377,-227.1948 1006.9377,-227.1948 1006.5672,-231.1776 1003.3532,-226.8613 1006.1966,-235.1604 1006.1966,-235.1604"/>
<ellipse fill="none" stroke="#000000" cx="1005.9001" cy="-238.3466" rx="3.2" ry="3.2"/>
</g>
<!-- StudentCompetencyEvaluations -->
<g id="node16" class="node">
<title>StudentCompetencyEvaluations</title>
<g id="a_node16"><a xlink:href="../../tables/StudentCompetencyEvaluations.html" xlink:title="StudentCompetencyEvaluations" target="_top">
<polygon fill="#ffffff" stroke="transparent" points="660,-246.1831 660,-307.1831 883,-307.1831 883,-246.1831 660,-246.1831"/>
<polygon fill="#f5f5f5" stroke="transparent" points="660.5,-283.6831 660.5,-306.6831 883.5,-306.6831 883.5,-283.6831 660.5,-283.6831"/>
<polygon fill="none" stroke="#000000" points="660.5,-283.6831 660.5,-306.6831 883.5,-306.6831 883.5,-283.6831 660.5,-283.6831"/>
<text text-anchor="start" x="665.5" y="-292.2831" font-family="Helvetica,sans-Serif" font-weight="bold" font-size="11.00" fill="#000000">StudentCompetencyEvaluations</text>
<text text-anchor="start" x="849.0219" y="-291.7831" font-family="Helvetica,sans-Serif" font-size="11.00" fill="#000000">[table]</text>
<polygon fill="none" stroke="#000000" points="660.5,-264.6831 660.5,-283.6831 883.5,-283.6831 883.5,-264.6831 660.5,-264.6831"/>
<text text-anchor="start" x="663.5" y="-270.7831" font-family="Helvetica,sans-Serif" font-size="11.00" fill="#000000">...</text>
<polygon fill="#ffffff" stroke="transparent" points="660.5,-245.6831 660.5,-264.6831 752.5,-264.6831 752.5,-245.6831 660.5,-245.6831"/>
<polygon fill="none" stroke="#000000" points="660.5,-245.6831 660.5,-264.6831 752.5,-264.6831 752.5,-245.6831 660.5,-245.6831"/>
<text text-anchor="start" x="663.5" y="-251.7831" font-family="Helvetica,sans-Serif" font-size="11.00" fill="#000000">&lt; 4</text>
<polygon fill="#ffffff" stroke="transparent" points="752.5,-245.6831 752.5,-264.6831 826.5,-264.6831 826.5,-245.6831 752.5,-245.6831"/>
<polygon fill="none" stroke="#000000" points="752.5,-245.6831 752.5,-264.6831 826.5,-264.6831 826.5,-245.6831 752.5,-245.6831"/>
<text text-anchor="start" x="791.1105" y="-251.7831" font-family="Helvetica,sans-Serif" font-size="11.00" fill="#000000">0 rows</text>
<polygon fill="#ffffff" stroke="transparent" points="826.5,-245.6831 826.5,-264.6831 883.5,-264.6831 883.5,-245.6831 826.5,-245.6831"/>
<polygon fill="none" stroke="#000000" points="826.5,-245.6831 826.5,-264.6831 883.5,-264.6831 883.5,-245.6831 826.5,-245.6831"/>
<text text-anchor="start" x="864.9053" y="-251.7831" font-family="Helvetica,sans-Serif" font-size="11.00" fill="#000000">1 &gt;</text>
</a>
</g>
</g>
<!-- QuestionResponses&#45;&gt;StudentCompetencyEvaluations -->
<g id="edge28" class="edge">
<title>QuestionResponses:w&#45;&gt;StudentCompetencyEvaluations:e</title>
<path fill="none" stroke="#000000" d="M967.1327,-236.8837C944.4377,-255.8279 914.7565,-273.6831 883.5,-273.6831"/>
<polygon fill="#000000" stroke="#000000" points="972.0168,-232.5672 980.3953,-229.9669 975.0141,-229.9183 978.0113,-227.2694 978.0113,-227.2694 978.0113,-227.2694 975.0141,-229.9183 975.6273,-224.5719 972.0168,-232.5672 972.0168,-232.5672"/>
<ellipse fill="none" stroke="#000000" cx="969.6191" cy="-234.6863" rx="3.2" ry="3.2"/>
</g>
<!-- StudentCompetencyEvaluations&#45;&gt;AspNetUsers -->
<g id="edge30" class="edge">
<title>StudentCompetencyEvaluations:w&#45;&gt;AspNetUsers:e</title>
<path fill="none" stroke="#000000" d="M645.9759,-272.7657C525.9014,-264.2973 249.9141,-226.818 163,-287.6831 93.7562,-336.1739 73.3512,-442.8353 67.4047,-498.1066"/>
<polygon fill="#000000" stroke="#000000" points="652.5159,-273.1788 660.273,-277.276 656.508,-273.431 660.5,-273.6831 660.5,-273.6831 660.5,-273.6831 656.508,-273.431 660.727,-270.0903 652.5159,-273.1788 652.5159,-273.1788"/>
<ellipse fill="none" stroke="#000000" cx="649.3223" cy="-272.977" rx="3.2" ry="3.2"/>
</g>
<!-- StudentCompetencyEvaluations&#45;&gt;AspNetUsers -->
<g id="edge33" class="edge">
<title>StudentCompetencyEvaluations:w&#45;&gt;AspNetUsers:e</title>
<path fill="none" stroke="#000000" d="M645.9759,-274.3006C525.9014,-277.2973 249.9141,-239.818 163,-300.6831 97.246,-346.7301 75.532,-445.232 68.4184,-497.9282"/>
<polygon fill="#000000" stroke="#000000" points="652.5072,-274.023 660.6529,-277.2799 656.5036,-273.8531 660.5,-273.6831 660.5,-273.6831 660.5,-273.6831 656.5036,-273.8531 660.3471,-270.0864 652.5072,-274.023 652.5072,-274.023"/>
<ellipse fill="none" stroke="#000000" cx="649.3101" cy="-274.1589" rx="3.2" ry="3.2"/>
</g>
<!-- StudentCompetencyEvaluations&#45;&gt;ProfessorCompetencyAssignments -->
<g id="edge31" class="edge">
<title>StudentCompetencyEvaluations:w&#45;&gt;ProfessorCompetencyAssignments:e</title>
<path fill="none" stroke="#000000" d="M646.1088,-275.6023C575.3507,-297.3005 706.5613,-495.6831 611,-495.6831"/>
<polygon fill="#000000" stroke="#000000" points="652.5702,-274.7407 660.9759,-277.2515 656.5351,-274.2119 660.5,-273.6831 660.5,-273.6831 660.5,-273.6831 656.5351,-274.2119 660.0241,-270.1147 652.5702,-274.7407 652.5702,-274.7407"/>
<ellipse fill="none" stroke="#000000" cx="649.3983" cy="-275.1637" rx="3.2" ry="3.2"/>
</g>
<!-- Students -->
<g id="node17" class="node">
<title>Students</title>
<g id="a_node17"><a xlink:href="../../tables/Students.html" xlink:title="Students" target="_top">
<polygon fill="#ffffff" stroke="transparent" points="445,-304.1831 445,-365.1831 535,-365.1831 535,-304.1831 445,-304.1831"/>
<polygon fill="#f5f5f5" stroke="transparent" points="445,-341.6831 445,-364.6831 535,-364.6831 535,-341.6831 445,-341.6831"/>
<polygon fill="none" stroke="#000000" points="445,-341.6831 445,-364.6831 535,-364.6831 535,-341.6831 445,-341.6831"/>
<text text-anchor="start" x="450" y="-350.2831" font-family="Helvetica,sans-Serif" font-weight="bold" font-size="11.00" fill="#000000">Students</text>
<text text-anchor="start" x="500.5219" y="-349.7831" font-family="Helvetica,sans-Serif" font-size="11.00" fill="#000000">[table]</text>
<polygon fill="none" stroke="#000000" points="445,-322.6831 445,-341.6831 535,-341.6831 535,-322.6831 445,-322.6831"/>
<text text-anchor="start" x="448" y="-328.7831" font-family="Helvetica,sans-Serif" font-size="11.00" fill="#000000">...</text>
<polygon fill="#ffffff" stroke="transparent" points="445,-303.6831 445,-322.6831 471,-322.6831 471,-303.6831 445,-303.6831"/>
<polygon fill="none" stroke="#000000" points="445,-303.6831 445,-322.6831 471,-322.6831 471,-303.6831 445,-303.6831"/>
<text text-anchor="start" x="448" y="-309.7831" font-family="Helvetica,sans-Serif" font-size="11.00" fill="#000000">&lt; 2</text>
<polygon fill="#ffffff" stroke="transparent" points="471,-303.6831 471,-322.6831 511,-322.6831 511,-303.6831 471,-303.6831"/>
<polygon fill="none" stroke="#000000" points="471,-303.6831 471,-322.6831 511,-322.6831 511,-303.6831 471,-303.6831"/>
<text text-anchor="start" x="475.6105" y="-309.7831" font-family="Helvetica,sans-Serif" font-size="11.00" fill="#000000">0 rows</text>
<polygon fill="#ffffff" stroke="transparent" points="511,-303.6831 511,-322.6831 535,-322.6831 535,-303.6831 511,-303.6831"/>
<polygon fill="none" stroke="#000000" points="511,-303.6831 511,-322.6831 535,-322.6831 535,-303.6831 511,-303.6831"/>
<text text-anchor="start" x="516.4053" y="-309.7831" font-family="Helvetica,sans-Serif" font-size="11.00" fill="#000000">3 &gt;</text>
</a>
</g>
</g>
<!-- StudentCompetencyEvaluations&#45;&gt;Students -->
<g id="edge32" class="edge">
<title>StudentCompetencyEvaluations:w&#45;&gt;Students:e</title>
<path fill="none" stroke="#000000" d="M646.2,-276.6391C612.8852,-288.4584 561.5227,-331.6831 535,-331.6831"/>
<polygon fill="#000000" stroke="#000000" points="652.6656,-275.3026 661.2288,-277.2086 656.5828,-274.4929 660.5,-273.6831 660.5,-273.6831 660.5,-273.6831 656.5828,-274.4929 659.7712,-270.1577 652.6656,-275.3026 652.6656,-275.3026"/>
<ellipse fill="none" stroke="#000000" cx="649.5319" cy="-275.9504" rx="3.2" ry="3.2"/>
</g>
<!-- Students&#45;&gt;AspNetUsers -->
<g id="edge39" class="edge">
<title>Students:w&#45;&gt;AspNetUsers:e</title>
<path fill="none" stroke="#000000" d="M434.5381,-332.0664C388.2205,-335.595 378.1886,-362.5981 328,-375.6831 256.2288,-394.3951 226.5682,-362.469 163,-400.6831 125.0837,-423.4766 97.1556,-467.0588 81.0205,-497.9"/>
<polygon fill="#000000" stroke="#000000" points="444.0541,-327.7151 444.347,-335.7098 442.7481,-335.7683 442.4552,-327.7737 444.0541,-327.7151"/>
<polyline fill="none" stroke="#000000" points="445,-331.6831 441.0027,-331.8296 "/>
<ellipse fill="none" stroke="#000000" cx="437.8048" cy="-331.9468" rx="3.2" ry="3.2"/>
</g>
<!-- Students&#45;&gt;TechnicalCareers -->
<g id="edge38" class="edge">
<title>Students:w&#45;&gt;TechnicalCareers:e</title>
<path fill="none" stroke="#000000" d="M430.4958,-332.3348C399.474,-335.3876 386.7148,-349.2511 361,-375.6831 328.913,-408.6651 361.515,-468.6831 315.5,-468.6831"/>
<polygon fill="#000000" stroke="#000000" points="437.0081,-332.0422 445.1616,-335.2795 441.004,-331.8627 445,-331.6831 445,-331.6831 445,-331.6831 441.004,-331.8627 444.8384,-328.0868 437.0081,-332.0422 437.0081,-332.0422"/>
<ellipse fill="none" stroke="#000000" cx="433.8113" cy="-332.1859" rx="3.2" ry="3.2"/>
</g>
<!-- StudentEvaluationReport -->
<g id="node18" class="node">
<title>StudentEvaluationReport</title>
<g id="a_node18"><a xlink:href="../../tables/StudentEvaluationReport.html" xlink:title="StudentEvaluationReport" target="_top">
<polygon fill="#ffffff" stroke="transparent" points="680,-624.1831 680,-685.1831 863,-685.1831 863,-624.1831 680,-624.1831"/>
<polygon fill="#f5f5f5" stroke="transparent" points="680.5,-661.6831 680.5,-684.6831 863.5,-684.6831 863.5,-661.6831 680.5,-661.6831"/>
<polygon fill="none" stroke="#000000" points="680.5,-661.6831 680.5,-684.6831 863.5,-684.6831 863.5,-661.6831 680.5,-661.6831"/>
<text text-anchor="start" x="685.5" y="-670.2831" font-family="Helvetica,sans-Serif" font-weight="bold" font-size="11.00" fill="#000000">StudentEvaluationReport</text>
<text text-anchor="start" x="829.0219" y="-669.7831" font-family="Helvetica,sans-Serif" font-size="11.00" fill="#000000">[table]</text>
<polygon fill="none" stroke="#000000" points="680.5,-642.6831 680.5,-661.6831 863.5,-661.6831 863.5,-642.6831 680.5,-642.6831"/>
<text text-anchor="start" x="683.5" y="-648.7831" font-family="Helvetica,sans-Serif" font-size="11.00" fill="#000000">...</text>
<polygon fill="#ffffff" stroke="transparent" points="680.5,-623.6831 680.5,-642.6831 757.5,-642.6831 757.5,-623.6831 680.5,-623.6831"/>
<polygon fill="none" stroke="#000000" points="680.5,-623.6831 680.5,-642.6831 757.5,-642.6831 757.5,-623.6831 680.5,-623.6831"/>
<text text-anchor="start" x="683.5" y="-629.7831" font-family="Helvetica,sans-Serif" font-size="11.00" fill="#000000">&lt; 4</text>
<polygon fill="#ffffff" stroke="transparent" points="757.5,-623.6831 757.5,-642.6831 823.5,-642.6831 823.5,-623.6831 757.5,-623.6831"/>
<polygon fill="none" stroke="#000000" points="757.5,-623.6831 757.5,-642.6831 823.5,-642.6831 823.5,-623.6831 757.5,-623.6831"/>
<text text-anchor="start" x="788.1105" y="-629.7831" font-family="Helvetica,sans-Serif" font-size="11.00" fill="#000000">0 rows</text>
<polygon fill="#ffffff" stroke="transparent" points="823.5,-623.6831 823.5,-642.6831 863.5,-642.6831 863.5,-623.6831 823.5,-623.6831"/>
<polygon fill="none" stroke="#000000" points="823.5,-623.6831 823.5,-642.6831 863.5,-642.6831 863.5,-623.6831 823.5,-623.6831"/>
<text text-anchor="start" x="854.3862" y="-629.7831" font-family="Helvetica,sans-Serif" font-size="11.00" fill="#000000"> &#160;</text>
</a>
</g>
</g>
<!-- StudentEvaluationReport&#45;&gt;AspNetUsers -->
<g id="edge34" class="edge">
<title>StudentEvaluationReport:w&#45;&gt;AspNetUsers:e</title>
<path fill="none" stroke="#000000" d="M665.824,-651.133C541.8948,-648.0399 263.3793,-674.7735 163,-628.6831 133.9878,-615.3618 109.1695,-589.2669 91.7671,-567.5924"/>
<polygon fill="#000000" stroke="#000000" points="672.5056,-651.3834 680.3651,-655.2806 676.5028,-651.5333 680.5,-651.6831 680.5,-651.6831 680.5,-651.6831 676.5028,-651.5333 680.6349,-648.0857 672.5056,-651.3834 672.5056,-651.3834"/>
<ellipse fill="none" stroke="#000000" cx="669.3079" cy="-651.2635" rx="3.2" ry="3.2"/>
</g>
<!-- StudentEvaluationReport&#45;&gt;AspNetUsers -->
<g id="edge37" class="edge">
<title>StudentEvaluationReport:w&#45;&gt;AspNetUsers:e</title>
<path fill="none" stroke="#000000" d="M665.824,-652.6328C541.8948,-661.0399 263.3793,-687.7735 163,-641.6831 129.078,-626.1074 100.8896,-593.0689 83.5849,-567.3304"/>
<polygon fill="#000000" stroke="#000000" points="672.5167,-652.1998 680.7325,-655.2756 676.5083,-651.9415 680.5,-651.6831 680.5,-651.6831 680.5,-651.6831 676.5083,-651.9415 680.2675,-648.0907 672.5167,-652.1998 672.5167,-652.1998"/>
<ellipse fill="none" stroke="#000000" cx="669.3234" cy="-652.4065" rx="3.2" ry="3.2"/>
</g>
<!-- StudentEvaluationReport&#45;&gt;EvaluationPeriods -->
<g id="edge35" class="edge">
<title>StudentEvaluationReport:w&#45;&gt;EvaluationPeriods:e</title>
<path fill="none" stroke="#000000" d="M665.8942,-651.6196C586.9655,-650.966 423.6542,-645.0086 361,-621.6831 338.7514,-613.4002 341.2404,-590.6831 317.5,-590.6831"/>
<polygon fill="#000000" stroke="#000000" points="672.5001,-651.6483 680.4843,-655.2831 676.5,-651.6657 680.5,-651.6831 680.5,-651.6831 680.5,-651.6831 676.5,-651.6657 680.5157,-648.0832 672.5001,-651.6483 672.5001,-651.6483"/>
<ellipse fill="none" stroke="#000000" cx="669.3001" cy="-651.6343" rx="3.2" ry="3.2"/>
</g>
<!-- StudentEvaluationReport&#45;&gt;Students -->
<g id="edge36" class="edge">
<title>StudentEvaluationReport:w&#45;&gt;Students:e</title>
<path fill="none" stroke="#000000" d="M666.0407,-650.7695C566.2511,-637.0167 692.2233,-471.2549 619,-375.6831 593.3684,-342.2285 577.145,-331.6831 535,-331.6831"/>
<polygon fill="#000000" stroke="#000000" points="672.5159,-651.1786 680.273,-655.276 676.508,-651.4309 680.5,-651.6831 680.5,-651.6831 680.5,-651.6831 676.508,-651.4309 680.727,-648.0903 672.5159,-651.1786 672.5159,-651.1786"/>
<ellipse fill="none" stroke="#000000" cx="669.3223" cy="-650.9768" rx="3.2" ry="3.2"/>
</g>
<!-- StudentSubjects -->
<g id="node19" class="node">
<title>StudentSubjects</title>
<g id="a_node19"><a xlink:href="../../tables/StudentSubjects.html" xlink:title="StudentSubjects" target="_top">
<polygon fill="#ffffff" stroke="transparent" points="705,-154.1831 705,-215.1831 838,-215.1831 838,-154.1831 705,-154.1831"/>
<polygon fill="#f5f5f5" stroke="transparent" points="705.5,-191.6831 705.5,-214.6831 838.5,-214.6831 838.5,-191.6831 705.5,-191.6831"/>
<polygon fill="none" stroke="#000000" points="705.5,-191.6831 705.5,-214.6831 838.5,-214.6831 838.5,-191.6831 705.5,-191.6831"/>
<text text-anchor="start" x="710.5" y="-200.2831" font-family="Helvetica,sans-Serif" font-weight="bold" font-size="11.00" fill="#000000">StudentSubjects</text>
<text text-anchor="start" x="804.0219" y="-199.7831" font-family="Helvetica,sans-Serif" font-size="11.00" fill="#000000">[table]</text>
<polygon fill="none" stroke="#000000" points="705.5,-172.6831 705.5,-191.6831 838.5,-191.6831 838.5,-172.6831 705.5,-172.6831"/>
<text text-anchor="start" x="708.5" y="-178.7831" font-family="Helvetica,sans-Serif" font-size="11.00" fill="#000000">...</text>
<polygon fill="#ffffff" stroke="transparent" points="705.5,-153.6831 705.5,-172.6831 757.5,-172.6831 757.5,-153.6831 705.5,-153.6831"/>
<polygon fill="none" stroke="#000000" points="705.5,-153.6831 705.5,-172.6831 757.5,-172.6831 757.5,-153.6831 705.5,-153.6831"/>
<text text-anchor="start" x="708.5" y="-159.7831" font-family="Helvetica,sans-Serif" font-size="11.00" fill="#000000">&lt; 4</text>
<polygon fill="#ffffff" stroke="transparent" points="757.5,-153.6831 757.5,-172.6831 810.5,-172.6831 810.5,-153.6831 757.5,-153.6831"/>
<polygon fill="none" stroke="#000000" points="757.5,-153.6831 757.5,-172.6831 810.5,-172.6831 810.5,-153.6831 757.5,-153.6831"/>
<text text-anchor="start" x="775.1105" y="-159.7831" font-family="Helvetica,sans-Serif" font-size="11.00" fill="#000000">0 rows</text>
<polygon fill="#ffffff" stroke="transparent" points="810.5,-153.6831 810.5,-172.6831 838.5,-172.6831 838.5,-153.6831 810.5,-153.6831"/>
<polygon fill="none" stroke="#000000" points="810.5,-153.6831 810.5,-172.6831 838.5,-172.6831 838.5,-153.6831 810.5,-153.6831"/>
<text text-anchor="start" x="829.3862" y="-159.7831" font-family="Helvetica,sans-Serif" font-size="11.00" fill="#000000"> &#160;</text>
</a>
</g>
</g>
<!-- StudentSubjects&#45;&gt;AspNetUsers -->
<g id="edge40" class="edge">
<title>StudentSubjects:w&#45;&gt;AspNetUsers:e</title>
<path fill="none" stroke="#000000" d="M691.1323,-179.1414C663.7431,-173.6611 652.3541,-167.6047 619,-165.6831 416.2601,-154.003 316.3948,-61.6045 163,-194.6831 116.924,-234.6567 82.2993,-419.9961 69.9374,-498.0166"/>
<polygon fill="#000000" stroke="#000000" points="697.6223,-180.2895 704.8729,-185.2281 701.5612,-180.9863 705.5,-181.6831 705.5,-181.6831 705.5,-181.6831 701.5612,-180.9863 706.1271,-178.1382 697.6223,-180.2895 697.6223,-180.2895"/>
<ellipse fill="none" stroke="#000000" cx="694.4712" cy="-179.732" rx="3.2" ry="3.2"/>
</g>
<!-- StudentSubjects&#45;&gt;AspNetUsers -->
<g id="edge43" class="edge">
<title>StudentSubjects:w&#45;&gt;AspNetUsers:e</title>
<path fill="none" stroke="#000000" d="M691.1323,-183.7777C663.7431,-186.6611 652.3541,-180.6047 619,-178.6831 416.2601,-167.003 316.3948,-74.6045 163,-207.6831 118.2859,-246.4752 84.3561,-422.1671 71.0916,-497.8997"/>
<polygon fill="#000000" stroke="#000000" points="697.5837,-182.8372 706.0193,-185.2455 701.5418,-182.2602 705.5,-181.6831 705.5,-181.6831 705.5,-181.6831 701.5418,-182.2602 704.9807,-178.1208 697.5837,-182.8372 697.5837,-182.8372"/>
<ellipse fill="none" stroke="#000000" cx="694.4171" cy="-183.2989" rx="3.2" ry="3.2"/>
</g>
<!-- StudentSubjects&#45;&gt;Students -->
<g id="edge41" class="edge">
<title>StudentSubjects:w&#45;&gt;Students:e</title>
<path fill="none" stroke="#000000" d="M691.1128,-182.8043C607.4145,-196.5307 630.8039,-331.6831 535,-331.6831"/>
<polygon fill="#000000" stroke="#000000" points="697.5242,-182.3047 705.7797,-185.2723 701.5121,-181.9939 705.5,-181.6831 705.5,-181.6831 705.5,-181.6831 701.5121,-181.9939 705.2203,-178.094 697.5242,-182.3047 697.5242,-182.3047"/>
<ellipse fill="none" stroke="#000000" cx="694.3339" cy="-182.5534" rx="3.2" ry="3.2"/>
</g>
<!-- Subjects -->
<g id="node20" class="node">
<title>Subjects</title>
<g id="a_node20"><a xlink:href="../../tables/Subjects.html" xlink:title="Subjects" target="_top">
<polygon fill="#ffffff" stroke="transparent" points="445.5,-182.1831 445.5,-243.1831 534.5,-243.1831 534.5,-182.1831 445.5,-182.1831"/>
<polygon fill="#f5f5f5" stroke="transparent" points="446,-219.6831 446,-242.6831 535,-242.6831 535,-219.6831 446,-219.6831"/>
<polygon fill="none" stroke="#000000" points="446,-219.6831 446,-242.6831 535,-242.6831 535,-219.6831 446,-219.6831"/>
<text text-anchor="start" x="451" y="-228.2831" font-family="Helvetica,sans-Serif" font-weight="bold" font-size="11.00" fill="#000000">Subjects</text>
<text text-anchor="start" x="500.5219" y="-227.7831" font-family="Helvetica,sans-Serif" font-size="11.00" fill="#000000">[table]</text>
<polygon fill="none" stroke="#000000" points="446,-200.6831 446,-219.6831 535,-219.6831 535,-200.6831 446,-200.6831"/>
<text text-anchor="start" x="449" y="-206.7831" font-family="Helvetica,sans-Serif" font-size="11.00" fill="#000000">...</text>
<polygon fill="#ffffff" stroke="transparent" points="446,-181.6831 446,-200.6831 471,-200.6831 471,-181.6831 446,-181.6831"/>
<polygon fill="none" stroke="#000000" points="446,-181.6831 446,-200.6831 471,-200.6831 471,-181.6831 446,-181.6831"/>
<text text-anchor="start" x="449" y="-187.7831" font-family="Helvetica,sans-Serif" font-size="11.00" fill="#000000">&lt; 4</text>
<polygon fill="#ffffff" stroke="transparent" points="471,-181.6831 471,-200.6831 511,-200.6831 511,-181.6831 471,-181.6831"/>
<polygon fill="none" stroke="#000000" points="471,-181.6831 471,-200.6831 511,-200.6831 511,-181.6831 471,-181.6831"/>
<text text-anchor="start" x="475.6105" y="-187.7831" font-family="Helvetica,sans-Serif" font-size="11.00" fill="#000000">0 rows</text>
<polygon fill="#ffffff" stroke="transparent" points="511,-181.6831 511,-200.6831 535,-200.6831 535,-181.6831 511,-181.6831"/>
<polygon fill="none" stroke="#000000" points="511,-181.6831 511,-200.6831 535,-200.6831 535,-181.6831 511,-181.6831"/>
<text text-anchor="start" x="516.4053" y="-187.7831" font-family="Helvetica,sans-Serif" font-size="11.00" fill="#000000">1 &gt;</text>
</a>
</g>
</g>
<!-- StudentSubjects&#45;&gt;Subjects -->
<g id="edge42" class="edge">
<title>StudentSubjects:w&#45;&gt;Subjects:e</title>
<path fill="none" stroke="#000000" d="M690.9585,-182.0372C626.1967,-185.2784 606.6933,-209.6831 535,-209.6831"/>
<polygon fill="#000000" stroke="#000000" points="697.5024,-181.8779 705.5876,-185.2821 701.5012,-181.7805 705.5,-181.6831 705.5,-181.6831 705.5,-181.6831 701.5012,-181.7805 705.4124,-178.0842 697.5024,-181.8779 697.5024,-181.8779"/>
<ellipse fill="none" stroke="#000000" cx="694.3033" cy="-181.9558" rx="3.2" ry="3.2"/>
</g>
<!-- Subjects&#45;&gt;AspNetUsers -->
<g id="edge44" class="edge">
<title>Subjects:w&#45;&gt;AspNetUsers:e</title>
<path fill="none" stroke="#000000" d="M431.3632,-208.8604C313.8564,-201.2029 256.9016,-172.8733 163,-251.6831 124.6625,-283.859 87.1501,-430.0653 72.0078,-497.961"/>
<polygon fill="#000000" stroke="#000000" points="438.0126,-209.2341 445.7979,-213.2775 442.0063,-209.4586 446,-209.6831 446,-209.6831 446,-209.6831 442.0063,-209.4586 446.2021,-206.0888 438.0126,-209.2341 438.0126,-209.2341"/>
<ellipse fill="none" stroke="#000000" cx="434.8177" cy="-209.0545" rx="3.2" ry="3.2"/>
</g>
<!-- Subjects&#45;&gt;AspNetUsers -->
<g id="edge47" class="edge">
<title>Subjects:w&#45;&gt;AspNetUsers:e</title>
<path fill="none" stroke="#000000" d="M431.3632,-210.3251C313.8564,-214.2029 256.9016,-185.8733 163,-264.6831 126.0213,-295.7186 89.8103,-432.8445 73.7012,-498.0983"/>
<polygon fill="#000000" stroke="#000000" points="438.0077,-210.0337 446.1578,-213.2797 442.0038,-209.8584 446,-209.6831 446,-209.6831 446,-209.6831 442.0038,-209.8584 445.8422,-206.0866 438.0077,-210.0337 438.0077,-210.0337"/>
<ellipse fill="none" stroke="#000000" cx="434.8108" cy="-210.1739" rx="3.2" ry="3.2"/>
</g>
<!-- Subjects&#45;&gt;TechnicalCareers -->
<g id="edge46" class="edge">
<title>Subjects:w&#45;&gt;TechnicalCareers:e</title>
<path fill="none" stroke="#000000" d="M431.4816,-210.7841C391.6086,-217.3298 384.8796,-252.25 361,-293.6831 320.8709,-363.3105 395.8637,-468.6831 315.5,-468.6831"/>
<polygon fill="#000000" stroke="#000000" points="438.0229,-210.2881 446.2722,-213.2728 442.0115,-209.9856 446,-209.6831 446,-209.6831 446,-209.6831 442.0115,-209.9856 445.7278,-206.0934 438.0229,-210.2881 438.0229,-210.2881"/>
<ellipse fill="none" stroke="#000000" cx="434.8321" cy="-210.5301" rx="3.2" ry="3.2"/>
</g>
<!-- Subjects&#45;&gt;Professors -->
<g id="edge45" class="edge">
<title>Subjects:w&#45;&gt;Professors:e</title>
<path fill="none" stroke="#000000" d="M431.5599,-210.9707C362.5108,-224.0093 377.0682,-331.6831 296.5,-331.6831"/>
<polygon fill="#000000" stroke="#000000" points="438.0316,-210.3937 446.3198,-213.2689 442.0158,-210.0384 446,-209.6831 446,-209.6831 446,-209.6831 442.0158,-210.0384 445.6802,-206.0974 438.0316,-210.3937 438.0316,-210.3937"/>
<ellipse fill="none" stroke="#000000" cx="434.8443" cy="-210.6779" rx="3.2" ry="3.2"/>
</g>
</g>
</svg>
