<?xml version="1.0" encoding="UTF-8" standalone="no"?>
<!DOCTYPE svg PUBLIC "-//W3C//DTD SVG 1.1//EN"
 "http://www.w3.org/Graphics/SVG/1.1/DTD/svg11.dtd">
<!-- Generated by graphviz version 2.40.1 (20161225.0304)
 -->
<!-- Title: twoDegreesRelationshipsDiagram Pages: 1 -->
<svg width="1462pt" height="1120pt"
 viewBox="0.00 0.00 1462.00 1119.84" xmlns="http://www.w3.org/2000/svg" xmlns:xlink="http://www.w3.org/1999/xlink">
<g id="graph0" class="graph" transform="scale(1 1) rotate(0) translate(4 1115.8447)">
<title>twoDegreesRelationshipsDiagram</title>
<polygon fill="#ffffff" stroke="transparent" points="-4,4 -4,-1115.8447 1458,-1115.8447 1458,4 -4,4"/>
<text text-anchor="middle" x="72.4936" y="-7.3" font-family="Helvetica,sans-Serif" font-size="11.00" fill="#000000">Generated by SchemaSpy</text>
<!-- AspNetUserClaims -->
<g id="node1" class="node">
<title>AspNetUserClaims</title>
<g id="a_node1"><a xlink:href="../../tables/AspNetUserClaims.html" xlink:title="AspNetUserClaims" target="_top">
<polygon fill="#ffffff" stroke="transparent" points="172,-1046.8447 172,-1107.8447 319,-1107.8447 319,-1046.8447 172,-1046.8447"/>
<polygon fill="#f5f5f5" stroke="transparent" points="172.5,-1084.3447 172.5,-1107.3447 319.5,-1107.3447 319.5,-1084.3447 172.5,-1084.3447"/>
<polygon fill="none" stroke="#000000" points="172.5,-1084.3447 172.5,-1107.3447 319.5,-1107.3447 319.5,-1084.3447 172.5,-1084.3447"/>
<text text-anchor="start" x="177.5" y="-1092.9447" font-family="Helvetica,sans-Serif" font-weight="bold" font-size="11.00" fill="#000000">AspNetUserClaims</text>
<text text-anchor="start" x="285.0219" y="-1092.4447" font-family="Helvetica,sans-Serif" font-size="11.00" fill="#000000">[table]</text>
<polygon fill="none" stroke="#000000" points="172.5,-1065.3447 172.5,-1084.3447 319.5,-1084.3447 319.5,-1065.3447 172.5,-1065.3447"/>
<text text-anchor="start" x="175.5" y="-1071.4447" font-family="Helvetica,sans-Serif" font-size="11.00" fill="#000000">...</text>
<polygon fill="#ffffff" stroke="transparent" points="172.5,-1046.3447 172.5,-1065.3447 231.5,-1065.3447 231.5,-1046.3447 172.5,-1046.3447"/>
<polygon fill="none" stroke="#000000" points="172.5,-1046.3447 172.5,-1065.3447 231.5,-1065.3447 231.5,-1046.3447 172.5,-1046.3447"/>
<text text-anchor="start" x="175.5" y="-1052.4447" font-family="Helvetica,sans-Serif" font-size="11.00" fill="#000000">&lt; 1</text>
<polygon fill="#ffffff" stroke="transparent" points="231.5,-1046.3447 231.5,-1065.3447 288.5,-1065.3447 288.5,-1046.3447 231.5,-1046.3447"/>
<polygon fill="none" stroke="#000000" points="231.5,-1046.3447 231.5,-1065.3447 288.5,-1065.3447 288.5,-1046.3447 231.5,-1046.3447"/>
<text text-anchor="start" x="253.1105" y="-1052.4447" font-family="Helvetica,sans-Serif" font-size="11.00" fill="#000000">0 rows</text>
<polygon fill="#ffffff" stroke="transparent" points="288.5,-1046.3447 288.5,-1065.3447 319.5,-1065.3447 319.5,-1046.3447 288.5,-1046.3447"/>
<polygon fill="none" stroke="#000000" points="288.5,-1046.3447 288.5,-1065.3447 319.5,-1065.3447 319.5,-1046.3447 288.5,-1046.3447"/>
<text text-anchor="start" x="310.3862" y="-1052.4447" font-family="Helvetica,sans-Serif" font-size="11.00" fill="#000000"> &#160;</text>
</a>
</g>
</g>
<!-- AspNetUsers -->
<g id="node2" class="node">
<title>AspNetUsers</title>
<g id="a_node2"><a xlink:href="../../tables/AspNetUsers.html" xlink:title="AspNetUsers" target="_top">
<polygon fill="#ffffff" stroke="transparent" points="8,-447.8447 8,-508.8447 122,-508.8447 122,-447.8447 8,-447.8447"/>
<polygon fill="#f5f5f5" stroke="transparent" points="8,-485.3447 8,-508.3447 122,-508.3447 122,-485.3447 8,-485.3447"/>
<polygon fill="none" stroke="#000000" points="8,-485.3447 8,-508.3447 122,-508.3447 122,-485.3447 8,-485.3447"/>
<text text-anchor="start" x="13" y="-493.9447" font-family="Helvetica,sans-Serif" font-weight="bold" font-size="11.00" fill="#000000">AspNetUsers</text>
<text text-anchor="start" x="87.5219" y="-493.4447" font-family="Helvetica,sans-Serif" font-size="11.00" fill="#000000">[table]</text>
<polygon fill="none" stroke="#000000" points="8,-466.3447 8,-485.3447 122,-485.3447 122,-466.3447 8,-466.3447"/>
<text text-anchor="start" x="11" y="-472.4447" font-family="Helvetica,sans-Serif" font-size="11.00" fill="#000000">...</text>
<polygon fill="#ffffff" stroke="transparent" points="8,-447.3447 8,-466.3447 41,-466.3447 41,-447.3447 8,-447.3447"/>
<polygon fill="none" stroke="#000000" points="8,-447.3447 8,-466.3447 41,-466.3447 41,-447.3447 8,-447.3447"/>
<text text-anchor="start" x="11" y="-453.4447" font-family="Helvetica,sans-Serif" font-size="11.00" fill="#000000"> &#160;</text>
<polygon fill="#ffffff" stroke="transparent" points="41,-447.3447 41,-466.3447 84,-466.3447 84,-447.3447 41,-447.3447"/>
<polygon fill="none" stroke="#000000" points="41,-447.3447 41,-466.3447 84,-466.3447 84,-447.3447 41,-447.3447"/>
<text text-anchor="start" x="54.1105" y="-453.4447" font-family="Helvetica,sans-Serif" font-size="11.00" fill="#000000">1 row</text>
<polygon fill="#ffffff" stroke="transparent" points="84,-447.3447 84,-466.3447 122,-466.3447 122,-447.3447 84,-447.3447"/>
<polygon fill="none" stroke="#000000" points="84,-447.3447 84,-466.3447 122,-466.3447 122,-447.3447 84,-447.3447"/>
<text text-anchor="start" x="97.2904" y="-453.4447" font-family="Helvetica,sans-Serif" font-size="11.00" fill="#000000">29 &gt;</text>
</a>
</g>
</g>
<!-- AspNetUserClaims&#45;&gt;AspNetUsers -->
<g id="edge1" class="edge">
<title>AspNetUserClaims:w&#45;&gt;AspNetUsers:e</title>
<path fill="none" stroke="#000000" d="M159.7225,-1067.1148C109.4839,-1009.9814 76.6136,-630.4762 67.5471,-512.9643"/>
<polygon fill="#000000" stroke="#000000" points="165.5373,-1070.405 170.7271,-1077.4779 169.0187,-1072.3749 172.5,-1074.3447 172.5,-1074.3447 172.5,-1074.3447 169.0187,-1072.3749 174.2729,-1071.2115 165.5373,-1070.405 165.5373,-1070.405"/>
<ellipse fill="none" stroke="#000000" cx="162.7523" cy="-1068.8291" rx="3.2" ry="3.2"/>
</g>
<!-- AspNetUserLogins -->
<g id="node3" class="node">
<title>AspNetUserLogins</title>
<g id="a_node3"><a xlink:href="../../tables/AspNetUserLogins.html" xlink:title="AspNetUserLogins" target="_top">
<polygon fill="#ffffff" stroke="transparent" points="172,-964.8447 172,-1025.8447 319,-1025.8447 319,-964.8447 172,-964.8447"/>
<polygon fill="#f5f5f5" stroke="transparent" points="172.5,-1002.3447 172.5,-1025.3447 319.5,-1025.3447 319.5,-1002.3447 172.5,-1002.3447"/>
<polygon fill="none" stroke="#000000" points="172.5,-1002.3447 172.5,-1025.3447 319.5,-1025.3447 319.5,-1002.3447 172.5,-1002.3447"/>
<text text-anchor="start" x="177.5" y="-1010.9447" font-family="Helvetica,sans-Serif" font-weight="bold" font-size="11.00" fill="#000000">AspNetUserLogins</text>
<text text-anchor="start" x="285.0219" y="-1010.4447" font-family="Helvetica,sans-Serif" font-size="11.00" fill="#000000">[table]</text>
<polygon fill="none" stroke="#000000" points="172.5,-983.3447 172.5,-1002.3447 319.5,-1002.3447 319.5,-983.3447 172.5,-983.3447"/>
<text text-anchor="start" x="175.5" y="-989.4447" font-family="Helvetica,sans-Serif" font-size="11.00" fill="#000000">...</text>
<polygon fill="#ffffff" stroke="transparent" points="172.5,-964.3447 172.5,-983.3447 231.5,-983.3447 231.5,-964.3447 172.5,-964.3447"/>
<polygon fill="none" stroke="#000000" points="172.5,-964.3447 172.5,-983.3447 231.5,-983.3447 231.5,-964.3447 172.5,-964.3447"/>
<text text-anchor="start" x="175.5" y="-970.4447" font-family="Helvetica,sans-Serif" font-size="11.00" fill="#000000">&lt; 1</text>
<polygon fill="#ffffff" stroke="transparent" points="231.5,-964.3447 231.5,-983.3447 288.5,-983.3447 288.5,-964.3447 231.5,-964.3447"/>
<polygon fill="none" stroke="#000000" points="231.5,-964.3447 231.5,-983.3447 288.5,-983.3447 288.5,-964.3447 231.5,-964.3447"/>
<text text-anchor="start" x="253.1105" y="-970.4447" font-family="Helvetica,sans-Serif" font-size="11.00" fill="#000000">0 rows</text>
<polygon fill="#ffffff" stroke="transparent" points="288.5,-964.3447 288.5,-983.3447 319.5,-983.3447 319.5,-964.3447 288.5,-964.3447"/>
<polygon fill="none" stroke="#000000" points="288.5,-964.3447 288.5,-983.3447 319.5,-983.3447 319.5,-964.3447 288.5,-964.3447"/>
<text text-anchor="start" x="310.3862" y="-970.4447" font-family="Helvetica,sans-Serif" font-size="11.00" fill="#000000"> &#160;</text>
</a>
</g>
</g>
<!-- AspNetUserLogins&#45;&gt;AspNetUsers -->
<g id="edge2" class="edge">
<title>AspNetUserLogins:w&#45;&gt;AspNetUsers:e</title>
<path fill="none" stroke="#000000" d="M159.9967,-984.6641C116.2859,-931.5812 79.7297,-618.2092 68.5324,-512.8679"/>
<polygon fill="#000000" stroke="#000000" points="165.6834,-988.1574 170.6157,-995.4122 169.0917,-990.251 172.5,-992.3447 172.5,-992.3447 172.5,-992.3447 169.0917,-990.251 174.3843,-989.2773 165.6834,-988.1574 165.6834,-988.1574"/>
<ellipse fill="none" stroke="#000000" cx="162.9568" cy="-986.4824" rx="3.2" ry="3.2"/>
</g>
<!-- AspNetUserRoles -->
<g id="node4" class="node">
<title>AspNetUserRoles</title>
<g id="a_node4"><a xlink:href="../../tables/AspNetUserRoles.html" xlink:title="AspNetUserRoles" target="_top">
<polygon fill="#ffffff" stroke="transparent" points="175.5,-882.8447 175.5,-943.8447 315.5,-943.8447 315.5,-882.8447 175.5,-882.8447"/>
<polygon fill="#f5f5f5" stroke="transparent" points="175.5,-920.3447 175.5,-943.3447 315.5,-943.3447 315.5,-920.3447 175.5,-920.3447"/>
<polygon fill="none" stroke="#000000" points="175.5,-920.3447 175.5,-943.3447 315.5,-943.3447 315.5,-920.3447 175.5,-920.3447"/>
<text text-anchor="start" x="180.5" y="-928.9447" font-family="Helvetica,sans-Serif" font-weight="bold" font-size="11.00" fill="#000000">AspNetUserRoles</text>
<text text-anchor="start" x="281.0219" y="-928.4447" font-family="Helvetica,sans-Serif" font-size="11.00" fill="#000000">[table]</text>
<polygon fill="none" stroke="#000000" points="175.5,-901.3447 175.5,-920.3447 315.5,-920.3447 315.5,-901.3447 175.5,-901.3447"/>
<text text-anchor="start" x="178.5" y="-907.4447" font-family="Helvetica,sans-Serif" font-size="11.00" fill="#000000">...</text>
<polygon fill="#ffffff" stroke="transparent" points="175.5,-882.3447 175.5,-901.3447 233.5,-901.3447 233.5,-882.3447 175.5,-882.3447"/>
<polygon fill="none" stroke="#000000" points="175.5,-882.3447 175.5,-901.3447 233.5,-901.3447 233.5,-882.3447 175.5,-882.3447"/>
<text text-anchor="start" x="178.5" y="-888.4447" font-family="Helvetica,sans-Serif" font-size="11.00" fill="#000000">&lt; 2</text>
<polygon fill="#ffffff" stroke="transparent" points="233.5,-882.3447 233.5,-901.3447 284.5,-901.3447 284.5,-882.3447 233.5,-882.3447"/>
<polygon fill="none" stroke="#000000" points="233.5,-882.3447 233.5,-901.3447 284.5,-901.3447 284.5,-882.3447 233.5,-882.3447"/>
<text text-anchor="start" x="254.6105" y="-888.4447" font-family="Helvetica,sans-Serif" font-size="11.00" fill="#000000">1 row</text>
<polygon fill="#ffffff" stroke="transparent" points="284.5,-882.3447 284.5,-901.3447 315.5,-901.3447 315.5,-882.3447 284.5,-882.3447"/>
<polygon fill="none" stroke="#000000" points="284.5,-882.3447 284.5,-901.3447 315.5,-901.3447 315.5,-882.3447 284.5,-882.3447"/>
<text text-anchor="start" x="306.3862" y="-888.4447" font-family="Helvetica,sans-Serif" font-size="11.00" fill="#000000"> &#160;</text>
</a>
</g>
</g>
<!-- AspNetUserRoles&#45;&gt;AspNetUsers -->
<g id="edge3" class="edge">
<title>AspNetUserRoles:w&#45;&gt;AspNetUsers:e</title>
<path fill="none" stroke="#000000" d="M161.2785,-907.21C91.0295,-875.3435 71.3022,-609.2721 66.4348,-512.9669"/>
<polygon fill="#000000" stroke="#000000" points="167.6875,-908.6227 174.7251,-913.8604 171.5938,-909.4837 175.5,-910.3447 175.5,-910.3447 175.5,-910.3447 171.5938,-909.4837 176.2749,-906.8291 167.6875,-908.6227 167.6875,-908.6227"/>
<ellipse fill="none" stroke="#000000" cx="164.5625" cy="-907.9338" rx="3.2" ry="3.2"/>
</g>
<!-- AspNetUserTokens -->
<g id="node5" class="node">
<title>AspNetUserTokens</title>
<g id="a_node5"><a xlink:href="../../tables/AspNetUserTokens.html" xlink:title="AspNetUserTokens" target="_top">
<polygon fill="#ffffff" stroke="transparent" points="171,-800.8447 171,-861.8447 320,-861.8447 320,-800.8447 171,-800.8447"/>
<polygon fill="#f5f5f5" stroke="transparent" points="171.5,-838.3447 171.5,-861.3447 320.5,-861.3447 320.5,-838.3447 171.5,-838.3447"/>
<polygon fill="none" stroke="#000000" points="171.5,-838.3447 171.5,-861.3447 320.5,-861.3447 320.5,-838.3447 171.5,-838.3447"/>
<text text-anchor="start" x="176.5" y="-846.9447" font-family="Helvetica,sans-Serif" font-weight="bold" font-size="11.00" fill="#000000">AspNetUserTokens</text>
<text text-anchor="start" x="286.0219" y="-846.4447" font-family="Helvetica,sans-Serif" font-size="11.00" fill="#000000">[table]</text>
<polygon fill="none" stroke="#000000" points="171.5,-819.3447 171.5,-838.3447 320.5,-838.3447 320.5,-819.3447 171.5,-819.3447"/>
<text text-anchor="start" x="174.5" y="-825.4447" font-family="Helvetica,sans-Serif" font-size="11.00" fill="#000000">...</text>
<polygon fill="#ffffff" stroke="transparent" points="171.5,-800.3447 171.5,-819.3447 231.5,-819.3447 231.5,-800.3447 171.5,-800.3447"/>
<polygon fill="none" stroke="#000000" points="171.5,-800.3447 171.5,-819.3447 231.5,-819.3447 231.5,-800.3447 171.5,-800.3447"/>
<text text-anchor="start" x="174.5" y="-806.4447" font-family="Helvetica,sans-Serif" font-size="11.00" fill="#000000">&lt; 1</text>
<polygon fill="#ffffff" stroke="transparent" points="231.5,-800.3447 231.5,-819.3447 288.5,-819.3447 288.5,-800.3447 231.5,-800.3447"/>
<polygon fill="none" stroke="#000000" points="231.5,-800.3447 231.5,-819.3447 288.5,-819.3447 288.5,-800.3447 231.5,-800.3447"/>
<text text-anchor="start" x="253.1105" y="-806.4447" font-family="Helvetica,sans-Serif" font-size="11.00" fill="#000000">0 rows</text>
<polygon fill="#ffffff" stroke="transparent" points="288.5,-800.3447 288.5,-819.3447 320.5,-819.3447 320.5,-800.3447 288.5,-800.3447"/>
<polygon fill="none" stroke="#000000" points="288.5,-800.3447 288.5,-819.3447 320.5,-819.3447 320.5,-800.3447 288.5,-800.3447"/>
<text text-anchor="start" x="311.3862" y="-806.4447" font-family="Helvetica,sans-Serif" font-size="11.00" fill="#000000"> &#160;</text>
</a>
</g>
</g>
<!-- AspNetUserTokens&#45;&gt;AspNetUsers -->
<g id="edge4" class="edge">
<title>AspNetUserTokens:w&#45;&gt;AspNetUsers:e</title>
<path fill="none" stroke="#000000" d="M157.5112,-824.7401C101.7945,-795.3873 76.2581,-594.6081 68.082,-512.862"/>
<polygon fill="#000000" stroke="#000000" points="163.7531,-826.3485 170.6017,-831.8309 167.6265,-827.3466 171.5,-828.3447 171.5,-828.3447 171.5,-828.3447 167.6265,-827.3466 172.3983,-824.8586 163.7531,-826.3485 163.7531,-826.3485"/>
<ellipse fill="none" stroke="#000000" cx="160.6543" cy="-825.55" rx="3.2" ry="3.2"/>
</g>
<!-- Competencies -->
<g id="node6" class="node">
<title>Competencies</title>
<g id="a_node6"><a xlink:href="../../tables/Competencies.html" xlink:title="Competencies" target="_top">
<polygon fill="#ffffff" stroke="transparent" points="185,-639.8447 185,-700.8447 306,-700.8447 306,-639.8447 185,-639.8447"/>
<polygon fill="#f5f5f5" stroke="transparent" points="185.5,-677.3447 185.5,-700.3447 306.5,-700.3447 306.5,-677.3447 185.5,-677.3447"/>
<polygon fill="none" stroke="#000000" points="185.5,-677.3447 185.5,-700.3447 306.5,-700.3447 306.5,-677.3447 185.5,-677.3447"/>
<text text-anchor="start" x="190.5" y="-685.9447" font-family="Helvetica,sans-Serif" font-weight="bold" font-size="11.00" fill="#000000">Competencies</text>
<text text-anchor="start" x="272.0219" y="-685.4447" font-family="Helvetica,sans-Serif" font-size="11.00" fill="#000000">[table]</text>
<polygon fill="none" stroke="#000000" points="185.5,-658.3447 185.5,-677.3447 306.5,-677.3447 306.5,-658.3447 185.5,-658.3447"/>
<text text-anchor="start" x="188.5" y="-664.4447" font-family="Helvetica,sans-Serif" font-size="11.00" fill="#000000">...</text>
<polygon fill="#ffffff" stroke="transparent" points="185.5,-639.3447 185.5,-658.3447 226.5,-658.3447 226.5,-639.3447 185.5,-639.3447"/>
<polygon fill="none" stroke="#000000" points="185.5,-639.3447 185.5,-658.3447 226.5,-658.3447 226.5,-639.3447 185.5,-639.3447"/>
<text text-anchor="start" x="188.5" y="-645.4447" font-family="Helvetica,sans-Serif" font-size="11.00" fill="#000000">&lt; 2</text>
<polygon fill="#ffffff" stroke="transparent" points="226.5,-639.3447 226.5,-658.3447 274.5,-658.3447 274.5,-639.3447 226.5,-639.3447"/>
<polygon fill="none" stroke="#000000" points="226.5,-639.3447 226.5,-658.3447 274.5,-658.3447 274.5,-639.3447 226.5,-639.3447"/>
<text text-anchor="start" x="239.1105" y="-645.4447" font-family="Helvetica,sans-Serif" font-size="11.00" fill="#000000">5 rows</text>
<polygon fill="#ffffff" stroke="transparent" points="274.5,-639.3447 274.5,-658.3447 306.5,-658.3447 306.5,-639.3447 274.5,-639.3447"/>
<polygon fill="none" stroke="#000000" points="274.5,-639.3447 274.5,-658.3447 306.5,-658.3447 306.5,-639.3447 274.5,-639.3447"/>
<text text-anchor="start" x="287.9053" y="-645.4447" font-family="Helvetica,sans-Serif" font-size="11.00" fill="#000000">4 &gt;</text>
</a>
</g>
</g>
<!-- Competencies&#45;&gt;AspNetUsers -->
<g id="edge5" class="edge">
<title>Competencies:w&#45;&gt;AspNetUsers:e</title>
<path fill="none" stroke="#000000" d="M172.6822,-627.3749C169.2975,-624.8092 166.0467,-622.1326 163,-619.3447 129.2838,-588.4926 101.6168,-543.7565 84.3791,-512.9327"/>
<polygon fill="#000000" stroke="#000000" points="178.0379,-631.1023 182.5477,-638.6271 181.3211,-633.3873 184.6042,-635.6723 184.6042,-635.6723 184.6042,-635.6723 181.3211,-633.3873 186.6607,-632.7174 178.0379,-631.1023 178.0379,-631.1023"/>
<ellipse fill="none" stroke="#000000" cx="175.4114" cy="-629.2743" rx="3.2" ry="3.2"/>
</g>
<!-- Competencies&#45;&gt;AspNetUsers -->
<g id="edge6" class="edge">
<title>Competencies:w&#45;&gt;AspNetUsers:e</title>
<path fill="none" stroke="#000000" d="M165.0026,-634.136C164.326,-633.5442 163.6582,-632.9471 163,-632.3447 125.6633,-598.1796 95.7447,-546.9887 79.1923,-513.0379"/>
<polygon fill="#000000" stroke="#000000" points="170.3254,-638.3056 174.4033,-646.0729 173.4744,-640.7722 176.6233,-643.2389 176.6233,-643.2389 176.6233,-643.2389 173.4744,-640.7722 178.8433,-640.4048 170.3254,-638.3056 170.3254,-638.3056"/>
<ellipse fill="none" stroke="#000000" cx="167.8063" cy="-636.3322" rx="3.2" ry="3.2"/>
</g>
<!-- CompetencyLevelDescriptions -->
<g id="node7" class="node">
<title>CompetencyLevelDescriptions</title>
<g id="a_node7"><a xlink:href="../../tables/CompetencyLevelDescriptions.html" xlink:title="CompetencyLevelDescriptions" target="_top">
<polygon fill="#ffffff" stroke="transparent" points="377,-885.8447 377,-946.8447 591,-946.8447 591,-885.8447 377,-885.8447"/>
<polygon fill="#f5f5f5" stroke="transparent" points="377,-923.3447 377,-946.3447 591,-946.3447 591,-923.3447 377,-923.3447"/>
<polygon fill="none" stroke="#000000" points="377,-923.3447 377,-946.3447 591,-946.3447 591,-923.3447 377,-923.3447"/>
<text text-anchor="start" x="382" y="-931.9447" font-family="Helvetica,sans-Serif" font-weight="bold" font-size="11.00" fill="#000000">CompetencyLevelDescriptions</text>
<text text-anchor="start" x="556.5219" y="-931.4447" font-family="Helvetica,sans-Serif" font-size="11.00" fill="#000000">[table]</text>
<polygon fill="none" stroke="#000000" points="377,-904.3447 377,-923.3447 591,-923.3447 591,-904.3447 377,-904.3447"/>
<text text-anchor="start" x="380" y="-910.4447" font-family="Helvetica,sans-Serif" font-size="11.00" fill="#000000">...</text>
<polygon fill="#ffffff" stroke="transparent" points="377,-885.3447 377,-904.3447 466,-904.3447 466,-885.3447 377,-885.3447"/>
<polygon fill="none" stroke="#000000" points="377,-885.3447 377,-904.3447 466,-904.3447 466,-885.3447 377,-885.3447"/>
<text text-anchor="start" x="380" y="-891.4447" font-family="Helvetica,sans-Serif" font-size="11.00" fill="#000000">&lt; 3</text>
<polygon fill="#ffffff" stroke="transparent" points="466,-885.3447 466,-904.3447 544,-904.3447 544,-885.3447 466,-885.3447"/>
<polygon fill="none" stroke="#000000" points="466,-885.3447 466,-904.3447 544,-904.3447 544,-885.3447 466,-885.3447"/>
<text text-anchor="start" x="502.4956" y="-891.4447" font-family="Helvetica,sans-Serif" font-size="11.00" fill="#000000">20 rows</text>
<polygon fill="#ffffff" stroke="transparent" points="544,-885.3447 544,-904.3447 591,-904.3447 591,-885.3447 544,-885.3447"/>
<polygon fill="none" stroke="#000000" points="544,-885.3447 544,-904.3447 591,-904.3447 591,-885.3447 544,-885.3447"/>
<text text-anchor="start" x="581.8862" y="-891.4447" font-family="Helvetica,sans-Serif" font-size="11.00" fill="#000000"> &#160;</text>
</a>
</g>
</g>
<!-- CompetencyLevelDescriptions&#45;&gt;AspNetUsers -->
<g id="edge8" class="edge">
<title>CompetencyLevelDescriptions:w&#45;&gt;AspNetUsers:e</title>
<path fill="none" stroke="#000000" d="M362.7925,-909.4671C327.7671,-891.3483 367.849,-819.4372 328,-784.3447 271.2914,-734.4052 219.1222,-793.9424 163,-743.3447 95.0001,-682.0385 74.1406,-569.8996 67.7736,-513.1222"/>
<polygon fill="#000000" stroke="#000000" points="369.2823,-911.2383 376.0521,-916.8177 373.1411,-912.2915 377,-913.3447 377,-913.3447 377,-913.3447 373.1411,-912.2915 377.9479,-909.8718 369.2823,-911.2383 369.2823,-911.2383"/>
<ellipse fill="none" stroke="#000000" cx="366.1952" cy="-910.3957" rx="3.2" ry="3.2"/>
</g>
<!-- CompetencyLevelDescriptions&#45;&gt;AspNetUsers -->
<g id="edge9" class="edge">
<title>CompetencyLevelDescriptions:w&#45;&gt;AspNetUsers:e</title>
<path fill="none" stroke="#000000" d="M362.3418,-912.801C328.1126,-903.7264 367.6765,-832.2853 328,-797.3447 271.2914,-747.4052 219.1222,-806.9424 163,-756.3447 91.8416,-692.1909 72.3046,-572.3727 66.9769,-513.1379"/>
<polygon fill="#000000" stroke="#000000" points="369.0055,-913.0481 376.8665,-916.9423 373.0027,-913.1964 377,-913.3447 377,-913.3447 377,-913.3447 373.0027,-913.1964 377.1335,-909.7472 369.0055,-913.0481 369.0055,-913.0481"/>
<ellipse fill="none" stroke="#000000" cx="365.8077" cy="-912.9295" rx="3.2" ry="3.2"/>
</g>
<!-- CompetencyLevelDescriptions&#45;&gt;Competencies -->
<g id="edge7" class="edge">
<title>CompetencyLevelDescriptions:w&#45;&gt;Competencies:e</title>
<path fill="none" stroke="#000000" d="M365.1905,-905.0169C363.025,-897.3997 364.597,-885.765 361,-875.3447 342.8114,-822.6538 355.7609,-802.682 328,-754.3447 317.5146,-736.0876 302.1116,-718.9238 287.4454,-704.929"/>
<polygon fill="#000000" stroke="#000000" points="370.4621,-908.7343 374.9253,-916.2868 373.731,-911.0395 377,-913.3447 377,-913.3447 377,-913.3447 373.731,-911.0395 379.0747,-910.4027 370.4621,-908.7343 370.4621,-908.7343"/>
<ellipse fill="none" stroke="#000000" cx="367.8469" cy="-906.8901" rx="3.2" ry="3.2"/>
</g>
<!-- CompetencyTechnicalCareer -->
<g id="node8" class="node">
<title>CompetencyTechnicalCareer</title>
<g id="a_node8"><a xlink:href="../../tables/CompetencyTechnicalCareer.html" xlink:title="CompetencyTechnicalCareer" target="_top">
<polygon fill="#ffffff" stroke="transparent" points="382,-693.8447 382,-754.8447 586,-754.8447 586,-693.8447 382,-693.8447"/>
<polygon fill="#f5f5f5" stroke="transparent" points="382,-731.3447 382,-754.3447 586,-754.3447 586,-731.3447 382,-731.3447"/>
<polygon fill="none" stroke="#000000" points="382,-731.3447 382,-754.3447 586,-754.3447 586,-731.3447 382,-731.3447"/>
<text text-anchor="start" x="387" y="-739.9447" font-family="Helvetica,sans-Serif" font-weight="bold" font-size="11.00" fill="#000000">CompetencyTechnicalCareer</text>
<text text-anchor="start" x="551.5219" y="-739.4447" font-family="Helvetica,sans-Serif" font-size="11.00" fill="#000000">[table]</text>
<polygon fill="none" stroke="#000000" points="382,-712.3447 382,-731.3447 586,-731.3447 586,-712.3447 382,-712.3447"/>
<text text-anchor="start" x="385" y="-718.4447" font-family="Helvetica,sans-Serif" font-size="11.00" fill="#000000">...</text>
<polygon fill="#ffffff" stroke="transparent" points="382,-693.3447 382,-712.3447 469,-712.3447 469,-693.3447 382,-693.3447"/>
<polygon fill="none" stroke="#000000" points="382,-693.3447 382,-712.3447 469,-712.3447 469,-693.3447 382,-693.3447"/>
<text text-anchor="start" x="385" y="-699.4447" font-family="Helvetica,sans-Serif" font-size="11.00" fill="#000000">&lt; 2</text>
<polygon fill="#ffffff" stroke="transparent" points="469,-693.3447 469,-712.3447 540,-712.3447 540,-693.3447 469,-693.3447"/>
<polygon fill="none" stroke="#000000" points="469,-693.3447 469,-712.3447 540,-712.3447 540,-693.3447 469,-693.3447"/>
<text text-anchor="start" x="504.6105" y="-699.4447" font-family="Helvetica,sans-Serif" font-size="11.00" fill="#000000">0 rows</text>
<polygon fill="#ffffff" stroke="transparent" points="540,-693.3447 540,-712.3447 586,-712.3447 586,-693.3447 540,-693.3447"/>
<polygon fill="none" stroke="#000000" points="540,-693.3447 540,-712.3447 586,-712.3447 586,-693.3447 540,-693.3447"/>
<text text-anchor="start" x="576.8862" y="-699.4447" font-family="Helvetica,sans-Serif" font-size="11.00" fill="#000000"> &#160;</text>
</a>
</g>
</g>
<!-- CompetencyTechnicalCareer&#45;&gt;Competencies -->
<g id="edge10" class="edge">
<title>CompetencyTechnicalCareer:w&#45;&gt;Competencies:e</title>
<path fill="none" stroke="#000000" d="M367.539,-720.5481C347.6094,-718.4169 327.573,-712.2462 309.6608,-704.9273"/>
<polygon fill="#000000" stroke="#000000" points="374.0121,-720.9047 381.802,-724.9393 378.0061,-721.1247 382,-721.3447 382,-721.3447 382,-721.3447 378.0061,-721.1247 382.198,-717.7502 374.0121,-720.9047 374.0121,-720.9047"/>
<ellipse fill="none" stroke="#000000" cx="370.817" cy="-720.7286" rx="3.2" ry="3.2"/>
</g>
<!-- TechnicalCareers -->
<g id="node9" class="node">
<title>TechnicalCareers</title>
<g id="a_node9"><a xlink:href="../../tables/TechnicalCareers.html" xlink:title="TechnicalCareers" target="_top">
<polygon fill="#ffffff" stroke="transparent" points="176,-529.8447 176,-590.8447 315,-590.8447 315,-529.8447 176,-529.8447"/>
<polygon fill="#f5f5f5" stroke="transparent" points="176.5,-567.3447 176.5,-590.3447 315.5,-590.3447 315.5,-567.3447 176.5,-567.3447"/>
<polygon fill="none" stroke="#000000" points="176.5,-567.3447 176.5,-590.3447 315.5,-590.3447 315.5,-567.3447 176.5,-567.3447"/>
<text text-anchor="start" x="181.5" y="-575.9447" font-family="Helvetica,sans-Serif" font-weight="bold" font-size="11.00" fill="#000000">TechnicalCareers</text>
<text text-anchor="start" x="281.0219" y="-575.4447" font-family="Helvetica,sans-Serif" font-size="11.00" fill="#000000">[table]</text>
<polygon fill="none" stroke="#000000" points="176.5,-548.3447 176.5,-567.3447 315.5,-567.3447 315.5,-548.3447 176.5,-548.3447"/>
<text text-anchor="start" x="179.5" y="-554.4447" font-family="Helvetica,sans-Serif" font-size="11.00" fill="#000000">...</text>
<polygon fill="#ffffff" stroke="transparent" points="176.5,-529.3447 176.5,-548.3447 226.5,-548.3447 226.5,-529.3447 176.5,-529.3447"/>
<polygon fill="none" stroke="#000000" points="176.5,-529.3447 176.5,-548.3447 226.5,-548.3447 226.5,-529.3447 176.5,-529.3447"/>
<text text-anchor="start" x="179.5" y="-535.4447" font-family="Helvetica,sans-Serif" font-size="11.00" fill="#000000">&lt; 2</text>
<polygon fill="#ffffff" stroke="transparent" points="226.5,-529.3447 226.5,-548.3447 279.5,-548.3447 279.5,-529.3447 226.5,-529.3447"/>
<polygon fill="none" stroke="#000000" points="226.5,-529.3447 226.5,-548.3447 279.5,-548.3447 279.5,-529.3447 226.5,-529.3447"/>
<text text-anchor="start" x="244.1105" y="-535.4447" font-family="Helvetica,sans-Serif" font-size="11.00" fill="#000000">6 rows</text>
<polygon fill="#ffffff" stroke="transparent" points="279.5,-529.3447 279.5,-548.3447 315.5,-548.3447 315.5,-529.3447 279.5,-529.3447"/>
<polygon fill="none" stroke="#000000" points="279.5,-529.3447 279.5,-548.3447 315.5,-548.3447 315.5,-529.3447 279.5,-529.3447"/>
<text text-anchor="start" x="296.9053" y="-535.4447" font-family="Helvetica,sans-Serif" font-size="11.00" fill="#000000">6 &gt;</text>
</a>
</g>
</g>
<!-- CompetencyTechnicalCareer&#45;&gt;TechnicalCareers -->
<g id="edge11" class="edge">
<title>CompetencyTechnicalCareer:w&#45;&gt;TechnicalCareers:e</title>
<path fill="none" stroke="#000000" d="M367.6957,-719.0234C339.61,-708.115 354.9253,-661.1484 328,-629.3447 317.6242,-617.0891 304.9092,-605.2807 292.5976,-595.0023"/>
<polygon fill="#000000" stroke="#000000" points="374.1033,-720.0632 381.4233,-724.8983 378.0517,-720.704 382,-721.3447 382,-721.3447 382,-721.3447 378.0517,-720.704 382.5767,-717.7912 374.1033,-720.0632 374.1033,-720.0632"/>
<ellipse fill="none" stroke="#000000" cx="370.9446" cy="-719.5506" rx="3.2" ry="3.2"/>
</g>
<!-- TechnicalCareers&#45;&gt;AspNetUsers -->
<g id="edge52" class="edge">
<title>TechnicalCareers:w&#45;&gt;AspNetUsers:e</title>
<path fill="none" stroke="#000000" d="M165.7511,-519.6425C153.8323,-514.1659 141.6658,-508.6827 130.0984,-503.5776"/>
<polygon fill="#000000" stroke="#000000" points="171.7976,-522.4416 177.5451,-529.0694 175.4275,-524.122 179.0574,-525.8025 179.0574,-525.8025 179.0574,-525.8025 175.4275,-524.122 180.5698,-522.5355 171.7976,-522.4416 171.7976,-522.4416"/>
<ellipse fill="none" stroke="#000000" cx="168.8937" cy="-521.0973" rx="3.2" ry="3.2"/>
</g>
<!-- TechnicalCareers&#45;&gt;AspNetUsers -->
<g id="edge53" class="edge">
<title>TechnicalCareers:w&#45;&gt;AspNetUsers:e</title>
<path fill="none" stroke="#000000" d="M154.5211,-524.2634C146.2703,-520.5117 138.0277,-516.7052 130.069,-512.9692"/>
<polygon fill="#000000" stroke="#000000" points="160.6112,-527.0092 166.4246,-533.5792 164.2577,-528.6533 167.9042,-530.2973 167.9042,-530.2973 167.9042,-530.2973 164.2577,-528.6533 169.3839,-527.0155 160.6112,-527.0092 160.6112,-527.0092"/>
<ellipse fill="none" stroke="#000000" cx="157.694" cy="-525.6939" rx="3.2" ry="3.2"/>
</g>
<!-- Coordinators -->
<g id="node10" class="node">
<title>Coordinators</title>
<g id="a_node10"><a xlink:href="../../tables/Coordinators.html" xlink:title="Coordinators" target="_top">
<polygon fill="#ffffff" stroke="transparent" points="427,-611.8447 427,-672.8447 541,-672.8447 541,-611.8447 427,-611.8447"/>
<polygon fill="#f5f5f5" stroke="transparent" points="427,-649.3447 427,-672.3447 541,-672.3447 541,-649.3447 427,-649.3447"/>
<polygon fill="none" stroke="#000000" points="427,-649.3447 427,-672.3447 541,-672.3447 541,-649.3447 427,-649.3447"/>
<text text-anchor="start" x="432" y="-657.9447" font-family="Helvetica,sans-Serif" font-weight="bold" font-size="11.00" fill="#000000">Coordinators</text>
<text text-anchor="start" x="506.5219" y="-657.4447" font-family="Helvetica,sans-Serif" font-size="11.00" fill="#000000">[table]</text>
<polygon fill="none" stroke="#000000" points="427,-630.3447 427,-649.3447 541,-649.3447 541,-630.3447 427,-630.3447"/>
<text text-anchor="start" x="430" y="-636.4447" font-family="Helvetica,sans-Serif" font-size="11.00" fill="#000000">...</text>
<polygon fill="#ffffff" stroke="transparent" points="427,-611.3447 427,-630.3447 469,-630.3447 469,-611.3447 427,-611.3447"/>
<polygon fill="none" stroke="#000000" points="427,-611.3447 427,-630.3447 469,-630.3447 469,-611.3447 427,-611.3447"/>
<text text-anchor="start" x="430" y="-617.4447" font-family="Helvetica,sans-Serif" font-size="11.00" fill="#000000">&lt; 2</text>
<polygon fill="#ffffff" stroke="transparent" points="469,-611.3447 469,-630.3447 518,-630.3447 518,-611.3447 469,-611.3447"/>
<polygon fill="none" stroke="#000000" points="469,-611.3447 469,-630.3447 518,-630.3447 518,-611.3447 469,-611.3447"/>
<text text-anchor="start" x="482.6105" y="-617.4447" font-family="Helvetica,sans-Serif" font-size="11.00" fill="#000000">0 rows</text>
<polygon fill="#ffffff" stroke="transparent" points="518,-611.3447 518,-630.3447 541,-630.3447 541,-611.3447 518,-611.3447"/>
<polygon fill="none" stroke="#000000" points="518,-611.3447 518,-630.3447 541,-630.3447 541,-611.3447 518,-611.3447"/>
<text text-anchor="start" x="531.8862" y="-617.4447" font-family="Helvetica,sans-Serif" font-size="11.00" fill="#000000"> &#160;</text>
</a>
</g>
</g>
<!-- Coordinators&#45;&gt;AspNetUsers -->
<g id="edge13" class="edge">
<title>Coordinators:w&#45;&gt;AspNetUsers:e</title>
<path fill="none" stroke="#000000" d="M416.4184,-638.4862C367.3188,-633.4733 174.575,-607.9798 163,-601.3447 127.2317,-580.8415 99.5631,-541.732 82.8834,-513.0993"/>
<polygon fill="#000000" stroke="#000000" points="426.5261,-635.2931 425.8791,-643.2669 424.2844,-643.1375 424.9314,-635.1637 426.5261,-635.2931"/>
<polyline fill="none" stroke="#000000" points="427,-639.3447 423.0131,-639.0212 "/>
<ellipse fill="none" stroke="#000000" cx="419.8236" cy="-638.7624" rx="3.2" ry="3.2"/>
</g>
<!-- Coordinators&#45;&gt;TechnicalCareers -->
<g id="edge12" class="edge">
<title>Coordinators:w&#45;&gt;TechnicalCareers:e</title>
<path fill="none" stroke="#000000" d="M412.4887,-637.4225C385.8832,-631.4522 344.8171,-612.5733 310.068,-594.9953"/>
<polygon fill="#000000" stroke="#000000" points="419.0693,-638.2942 426.5272,-642.9136 423.0346,-638.8195 427,-639.3447 427,-639.3447 427,-639.3447 423.0346,-638.8195 427.4728,-635.7759 419.0693,-638.2942 419.0693,-638.2942"/>
<ellipse fill="none" stroke="#000000" cx="415.897" cy="-637.8739" rx="3.2" ry="3.2"/>
</g>
<!-- EvaluationPeriods -->
<g id="node11" class="node">
<title>EvaluationPeriods</title>
<g id="a_node11"><a xlink:href="../../tables/EvaluationPeriods.html" xlink:title="EvaluationPeriods" target="_top">
<polygon fill="#ffffff" stroke="transparent" points="174,-447.8447 174,-508.8447 317,-508.8447 317,-447.8447 174,-447.8447"/>
<polygon fill="#f5f5f5" stroke="transparent" points="174.5,-485.3447 174.5,-508.3447 317.5,-508.3447 317.5,-485.3447 174.5,-485.3447"/>
<polygon fill="none" stroke="#000000" points="174.5,-485.3447 174.5,-508.3447 317.5,-508.3447 317.5,-485.3447 174.5,-485.3447"/>
<text text-anchor="start" x="179.5" y="-493.9447" font-family="Helvetica,sans-Serif" font-weight="bold" font-size="11.00" fill="#000000">EvaluationPeriods</text>
<text text-anchor="start" x="283.0219" y="-493.4447" font-family="Helvetica,sans-Serif" font-size="11.00" fill="#000000">[table]</text>
<polygon fill="none" stroke="#000000" points="174.5,-466.3447 174.5,-485.3447 317.5,-485.3447 317.5,-466.3447 174.5,-466.3447"/>
<text text-anchor="start" x="177.5" y="-472.4447" font-family="Helvetica,sans-Serif" font-size="11.00" fill="#000000">...</text>
<polygon fill="#ffffff" stroke="transparent" points="174.5,-447.3447 174.5,-466.3447 226.5,-466.3447 226.5,-447.3447 174.5,-447.3447"/>
<polygon fill="none" stroke="#000000" points="174.5,-447.3447 174.5,-466.3447 226.5,-466.3447 226.5,-447.3447 174.5,-447.3447"/>
<text text-anchor="start" x="177.5" y="-453.4447" font-family="Helvetica,sans-Serif" font-size="11.00" fill="#000000">&lt; 2</text>
<polygon fill="#ffffff" stroke="transparent" points="226.5,-447.3447 226.5,-466.3447 280.5,-466.3447 280.5,-447.3447 226.5,-447.3447"/>
<polygon fill="none" stroke="#000000" points="226.5,-447.3447 226.5,-466.3447 280.5,-466.3447 280.5,-447.3447 226.5,-447.3447"/>
<text text-anchor="start" x="245.1105" y="-453.4447" font-family="Helvetica,sans-Serif" font-size="11.00" fill="#000000">0 rows</text>
<polygon fill="#ffffff" stroke="transparent" points="280.5,-447.3447 280.5,-466.3447 317.5,-466.3447 317.5,-447.3447 280.5,-447.3447"/>
<polygon fill="none" stroke="#000000" points="280.5,-447.3447 280.5,-466.3447 317.5,-466.3447 317.5,-447.3447 280.5,-447.3447"/>
<text text-anchor="start" x="298.9053" y="-453.4447" font-family="Helvetica,sans-Serif" font-size="11.00" fill="#000000">3 &gt;</text>
</a>
</g>
</g>
<!-- EvaluationPeriods&#45;&gt;AspNetUsers -->
<g id="edge14" class="edge">
<title>EvaluationPeriods:w&#45;&gt;AspNetUsers:e</title>
<path fill="none" stroke="#000000" d="M151.2358,-473.8487C144.1333,-473.8627 137.0641,-473.914 130.2045,-474.0024"/>
<polygon fill="#000000" stroke="#000000" points="157.8047,-473.8592 165.7988,-477.4722 161.8047,-473.8657 165.8047,-473.8722 165.8047,-473.8722 165.8047,-473.8722 161.8047,-473.8657 165.8105,-470.2722 157.8047,-473.8592 157.8047,-473.8592"/>
<ellipse fill="none" stroke="#000000" cx="154.6047" cy="-473.8541" rx="3.2" ry="3.2"/>
</g>
<!-- EvaluationPeriods&#45;&gt;AspNetUsers -->
<g id="edge15" class="edge">
<title>EvaluationPeriods:w&#45;&gt;AspNetUsers:e</title>
<path fill="none" stroke="#000000" d="M151.2358,-483.5901C144.1333,-483.5738 137.0641,-483.514 130.2045,-483.4108"/>
<polygon fill="#000000" stroke="#000000" points="157.8047,-483.5778 165.8115,-487.1627 161.8047,-483.5703 165.8047,-483.5627 165.8047,-483.5627 165.8047,-483.5627 161.8047,-483.5703 165.7979,-479.9627 157.8047,-483.5778 157.8047,-483.5778"/>
<ellipse fill="none" stroke="#000000" cx="154.6047" cy="-483.5839" rx="3.2" ry="3.2"/>
</g>
<!-- EvaluationPeriodTechnicalCareer -->
<g id="node12" class="node">
<title>EvaluationPeriodTechnicalCareer</title>
<g id="a_node12"><a xlink:href="../../tables/EvaluationPeriodTechnicalCareer.html" xlink:title="EvaluationPeriodTechnicalCareer" target="_top">
<polygon fill="#ffffff" stroke="transparent" points="369,-501.8447 369,-562.8447 599,-562.8447 599,-501.8447 369,-501.8447"/>
<polygon fill="#f5f5f5" stroke="transparent" points="369,-539.3447 369,-562.3447 599,-562.3447 599,-539.3447 369,-539.3447"/>
<polygon fill="none" stroke="#000000" points="369,-539.3447 369,-562.3447 599,-562.3447 599,-539.3447 369,-539.3447"/>
<text text-anchor="start" x="374" y="-547.9447" font-family="Helvetica,sans-Serif" font-weight="bold" font-size="11.00" fill="#000000">EvaluationPeriodTechnicalCareer</text>
<text text-anchor="start" x="564.5219" y="-547.4447" font-family="Helvetica,sans-Serif" font-size="11.00" fill="#000000">[table]</text>
<polygon fill="none" stroke="#000000" points="369,-520.3447 369,-539.3447 599,-539.3447 599,-520.3447 369,-520.3447"/>
<text text-anchor="start" x="372" y="-526.4447" font-family="Helvetica,sans-Serif" font-size="11.00" fill="#000000">...</text>
<polygon fill="#ffffff" stroke="transparent" points="369,-501.3447 369,-520.3447 469,-520.3447 469,-501.3447 369,-501.3447"/>
<polygon fill="none" stroke="#000000" points="369,-501.3447 369,-520.3447 469,-520.3447 469,-501.3447 369,-501.3447"/>
<text text-anchor="start" x="372" y="-507.4447" font-family="Helvetica,sans-Serif" font-size="11.00" fill="#000000">&lt; 2</text>
<polygon fill="#ffffff" stroke="transparent" points="469,-501.3447 469,-520.3447 547,-520.3447 547,-501.3447 469,-501.3447"/>
<polygon fill="none" stroke="#000000" points="469,-501.3447 469,-520.3447 547,-520.3447 547,-501.3447 469,-501.3447"/>
<text text-anchor="start" x="511.6105" y="-507.4447" font-family="Helvetica,sans-Serif" font-size="11.00" fill="#000000">0 rows</text>
<polygon fill="#ffffff" stroke="transparent" points="547,-501.3447 547,-520.3447 599,-520.3447 599,-501.3447 547,-501.3447"/>
<polygon fill="none" stroke="#000000" points="547,-501.3447 547,-520.3447 599,-520.3447 599,-501.3447 547,-501.3447"/>
<text text-anchor="start" x="589.8862" y="-507.4447" font-family="Helvetica,sans-Serif" font-size="11.00" fill="#000000"> &#160;</text>
</a>
</g>
</g>
<!-- EvaluationPeriodTechnicalCareer&#45;&gt;TechnicalCareers -->
<g id="edge17" class="edge">
<title>EvaluationPeriodTechnicalCareer:w&#45;&gt;TechnicalCareers:e</title>
<path fill="none" stroke="#000000" d="M354.3785,-529.9798C343.9454,-530.8511 333.3901,-532.561 323.1671,-534.7445"/>
<polygon fill="#000000" stroke="#000000" points="361.0075,-529.6919 369.1562,-532.9413 365.0038,-529.5183 369,-529.3447 369,-529.3447 369,-529.3447 365.0038,-529.5183 368.8438,-525.7481 361.0075,-529.6919 361.0075,-529.6919"/>
<ellipse fill="none" stroke="#000000" cx="357.8105" cy="-529.8308" rx="3.2" ry="3.2"/>
</g>
<!-- EvaluationPeriodTechnicalCareer&#45;&gt;EvaluationPeriods -->
<g id="edge16" class="edge">
<title>EvaluationPeriodTechnicalCareer:w&#45;&gt;EvaluationPeriods:e</title>
<path fill="none" stroke="#000000" d="M354.4836,-526.9745C343.6135,-524.1013 330.051,-518.8961 316.2239,-512.9273"/>
<polygon fill="#000000" stroke="#000000" points="361.1046,-528.0555 368.4199,-532.8977 365.0523,-528.7001 369,-529.3447 369,-529.3447 369,-529.3447 365.0523,-528.7001 369.5801,-525.7918 361.1046,-528.0555 361.1046,-528.0555"/>
<ellipse fill="none" stroke="#000000" cx="357.9464" cy="-527.5398" rx="3.2" ry="3.2"/>
</g>
<!-- FormQuestions -->
<g id="node13" class="node">
<title>FormQuestions</title>
<g id="a_node13"><a xlink:href="../../tables/FormQuestions.html" xlink:title="FormQuestions" target="_top">
<polygon fill="#ffffff" stroke="transparent" points="420.5,-803.8447 420.5,-864.8447 547.5,-864.8447 547.5,-803.8447 420.5,-803.8447"/>
<polygon fill="#f5f5f5" stroke="transparent" points="421,-841.3447 421,-864.3447 548,-864.3447 548,-841.3447 421,-841.3447"/>
<polygon fill="none" stroke="#000000" points="421,-841.3447 421,-864.3447 548,-864.3447 548,-841.3447 421,-841.3447"/>
<text text-anchor="start" x="426" y="-849.9447" font-family="Helvetica,sans-Serif" font-weight="bold" font-size="11.00" fill="#000000">FormQuestions</text>
<text text-anchor="start" x="513.5219" y="-849.4447" font-family="Helvetica,sans-Serif" font-size="11.00" fill="#000000">[table]</text>
<polygon fill="none" stroke="#000000" points="421,-822.3447 421,-841.3447 548,-841.3447 548,-822.3447 421,-822.3447"/>
<text text-anchor="start" x="424" y="-828.4447" font-family="Helvetica,sans-Serif" font-size="11.00" fill="#000000">...</text>
<polygon fill="#ffffff" stroke="transparent" points="421,-803.3447 421,-822.3447 465,-822.3447 465,-803.3447 421,-803.3447"/>
<polygon fill="none" stroke="#000000" points="421,-803.3447 421,-822.3447 465,-822.3447 465,-803.3447 421,-803.3447"/>
<text text-anchor="start" x="424" y="-809.4447" font-family="Helvetica,sans-Serif" font-size="11.00" fill="#000000">&lt; 3</text>
<polygon fill="#ffffff" stroke="transparent" points="465,-803.3447 465,-822.3447 515,-822.3447 515,-803.3447 465,-803.3447"/>
<polygon fill="none" stroke="#000000" points="465,-803.3447 465,-822.3447 515,-822.3447 515,-803.3447 465,-803.3447"/>
<text text-anchor="start" x="479.6105" y="-809.4447" font-family="Helvetica,sans-Serif" font-size="11.00" fill="#000000">0 rows</text>
<polygon fill="#ffffff" stroke="transparent" points="515,-803.3447 515,-822.3447 548,-822.3447 548,-803.3447 515,-803.3447"/>
<polygon fill="none" stroke="#000000" points="515,-803.3447 515,-822.3447 548,-822.3447 548,-803.3447 515,-803.3447"/>
<text text-anchor="start" x="529.4053" y="-809.4447" font-family="Helvetica,sans-Serif" font-size="11.00" fill="#000000">1 &gt;</text>
</a>
</g>
</g>
<!-- FormQuestions&#45;&gt;AspNetUsers -->
<g id="edge19" class="edge">
<title>FormQuestions:w&#45;&gt;AspNetUsers:e</title>
<path fill="none" stroke="#000000" d="M407.0056,-827.1387C386.7036,-817.9976 381.9803,-799.3441 361,-781.3447 345.2577,-767.8391 345.9984,-758.6539 328,-748.3447 262.2406,-710.6789 220.2827,-754.9603 163,-705.3447 104.4533,-654.6344 80.0531,-563.0933 70.5446,-513.0946"/>
<polygon fill="#000000" stroke="#000000" points="413.3386,-829.042 419.9638,-834.7924 417.1693,-830.1934 421,-831.3447 421,-831.3447 421,-831.3447 417.1693,-830.1934 422.0362,-827.8971 413.3386,-829.042 413.3386,-829.042"/>
<ellipse fill="none" stroke="#000000" cx="410.274" cy="-828.121" rx="3.2" ry="3.2"/>
</g>
<!-- FormQuestions&#45;&gt;AspNetUsers -->
<g id="edge20" class="edge">
<title>FormQuestions:w&#45;&gt;AspNetUsers:e</title>
<path fill="none" stroke="#000000" d="M406.4404,-832.4969C386.6139,-830.649 381.7842,-812.1759 361,-794.3447 345.2577,-780.8391 345.9984,-771.6539 328,-761.3447 262.2406,-723.6789 220.2827,-767.9603 163,-718.3447 101.1362,-664.7613 77.3978,-565.5893 69.0683,-512.9848"/>
<polygon fill="#000000" stroke="#000000" points="413.0249,-831.9759 421.284,-834.9335 417.0125,-831.6603 421,-831.3447 421,-831.3447 421,-831.3447 417.0125,-831.6603 420.716,-827.756 413.0249,-831.9759 413.0249,-831.9759"/>
<ellipse fill="none" stroke="#000000" cx="409.8349" cy="-832.2284" rx="3.2" ry="3.2"/>
</g>
<!-- FormQuestions&#45;&gt;Competencies -->
<g id="edge18" class="edge">
<title>FormQuestions:w&#45;&gt;Competencies:e</title>
<path fill="none" stroke="#000000" d="M406.5939,-829.9562C385.7922,-825.4387 378.2348,-810.2365 361,-789.3447 338.084,-761.5662 352.4267,-741.8047 328,-715.3447 323.9053,-710.9092 319.2709,-706.8158 314.3383,-703.0583"/>
<polygon fill="#000000" stroke="#000000" points="413.0369,-830.5772 420.6546,-834.9281 417.0185,-830.961 421,-831.3447 421,-831.3447 421,-831.3447 417.0185,-830.961 421.3454,-827.7613 413.0369,-830.5772 413.0369,-830.5772"/>
<ellipse fill="none" stroke="#000000" cx="409.8517" cy="-830.2701" rx="3.2" ry="3.2"/>
</g>
<!-- ProfessorCompetencyAssignments -->
<g id="node14" class="node">
<title>ProfessorCompetencyAssignments</title>
<g id="a_node14"><a xlink:href="../../tables/ProfessorCompetencyAssignments.html" xlink:title="ProfessorCompetencyAssignments" target="_top">
<polygon fill="#ffffff" stroke="transparent" points="648,-343.3447 648,-631.3447 970,-631.3447 970,-343.3447 648,-343.3447"/>
<polygon fill="#f5f5f5" stroke="transparent" points="650,-606.3447 650,-629.3447 968,-629.3447 968,-606.3447 650,-606.3447"/>
<polygon fill="none" stroke="#000000" points="650,-606.3447 650,-629.3447 968,-629.3447 968,-606.3447 650,-606.3447"/>
<text text-anchor="start" x="655" y="-614.9447" font-family="Helvetica,sans-Serif" font-weight="bold" font-size="11.00" fill="#000000">ProfessorCompetencyAssignments</text>
<text text-anchor="start" x="933.0437" y="-614.4447" font-family="Helvetica,sans-Serif" font-size="11.00" fill="#000000">[table]</text>
<polygon fill="none" stroke="#000000" points="650,-584.3447 650,-606.3447 874,-606.3447 874,-584.3447 650,-584.3447"/>
<image xlink:href="../../images/primaryKeys.png" width="11px" height="12px" preserveAspectRatio="xMinYMin meet" x="655" y="-601.345"/>
<text text-anchor="start" x="670" y="-591.4447" font-family="Helvetica,sans-Serif" font-size="11.00" fill="#000000">Id</text>
<polygon fill="none" stroke="#000000" points="874,-584.3447 874,-606.3447 968,-606.3447 968,-584.3447 874,-584.3447"/>
<text text-anchor="start" x="876.9758" y="-592.0447" font-family="Helvetica,sans-Serif" font-size="11.00" fill="#000000">uuid[2147483647]</text>
<polygon fill="#ffffff" stroke="transparent" points="650,-562.3447 650,-584.3447 874,-584.3447 874,-562.3447 650,-562.3447"/>
<polygon fill="none" stroke="#000000" points="650,-562.3447 650,-584.3447 874,-584.3447 874,-562.3447 650,-562.3447"/>
<image xlink:href="../../images/foreignKeys.png" width="11px" height="12px" preserveAspectRatio="xMinYMin meet" x="655" y="-579.345"/>
<text text-anchor="start" x="670" y="-569.4447" font-family="Helvetica,sans-Serif" font-size="11.00" fill="#000000">TechnicalCareerId</text>
<polygon fill="none" stroke="#000000" points="874,-562.3447 874,-584.3447 968,-584.3447 968,-562.3447 874,-562.3447"/>
<text text-anchor="start" x="876.9758" y="-570.0447" font-family="Helvetica,sans-Serif" font-size="11.00" fill="#000000">uuid[2147483647]</text>
<polygon fill="#ffffff" stroke="transparent" points="650,-540.3447 650,-562.3447 874,-562.3447 874,-540.3447 650,-540.3447"/>
<polygon fill="none" stroke="#000000" points="650,-540.3447 650,-562.3447 874,-562.3447 874,-540.3447 650,-540.3447"/>
<image xlink:href="../../images/foreignKeys.png" width="11px" height="12px" preserveAspectRatio="xMinYMin meet" x="655" y="-557.345"/>
<text text-anchor="start" x="670" y="-547.4447" font-family="Helvetica,sans-Serif" font-size="11.00" fill="#000000">CompetencyId</text>
<polygon fill="none" stroke="#000000" points="874,-540.3447 874,-562.3447 968,-562.3447 968,-540.3447 874,-540.3447"/>
<text text-anchor="start" x="876.9758" y="-548.0447" font-family="Helvetica,sans-Serif" font-size="11.00" fill="#000000">uuid[2147483647]</text>
<polygon fill="#ffffff" stroke="transparent" points="650,-518.3447 650,-540.3447 874,-540.3447 874,-518.3447 650,-518.3447"/>
<polygon fill="none" stroke="#000000" points="650,-518.3447 650,-540.3447 874,-540.3447 874,-518.3447 650,-518.3447"/>
<image xlink:href="../../images/foreignKeys.png" width="11px" height="12px" preserveAspectRatio="xMinYMin meet" x="655" y="-535.345"/>
<text text-anchor="start" x="670" y="-525.4447" font-family="Helvetica,sans-Serif" font-size="11.00" fill="#000000">EvaluationPeriodId</text>
<polygon fill="none" stroke="#000000" points="874,-518.3447 874,-540.3447 968,-540.3447 968,-518.3447 874,-518.3447"/>
<text text-anchor="start" x="876.9758" y="-526.0447" font-family="Helvetica,sans-Serif" font-size="11.00" fill="#000000">uuid[2147483647]</text>
<polygon fill="none" stroke="#000000" points="650,-496.3447 650,-518.3447 874,-518.3447 874,-496.3447 650,-496.3447"/>
<text text-anchor="start" x="670" y="-503.4447" font-family="Helvetica,sans-Serif" font-size="11.00" fill="#000000">IsActive</text>
<polygon fill="none" stroke="#000000" points="874,-496.3447 874,-518.3447 968,-518.3447 968,-496.3447 874,-496.3447"/>
<text text-anchor="start" x="877" y="-504.0447" font-family="Helvetica,sans-Serif" font-size="11.00" fill="#000000">bool[1]</text>
<polygon fill="none" stroke="#000000" points="650,-474.3447 650,-496.3447 874,-496.3447 874,-474.3447 650,-474.3447"/>
<text text-anchor="start" x="670" y="-481.4447" font-family="Helvetica,sans-Serif" font-size="11.00" fill="#000000">CreatedAt</text>
<polygon fill="none" stroke="#000000" points="874,-474.3447 874,-496.3447 968,-496.3447 968,-474.3447 874,-474.3447"/>
<text text-anchor="start" x="877" y="-482.0447" font-family="Helvetica,sans-Serif" font-size="11.00" fill="#000000">timestamptz[35,6]</text>
<polygon fill="none" stroke="#000000" points="650,-452.3447 650,-474.3447 874,-474.3447 874,-452.3447 650,-452.3447"/>
<text text-anchor="start" x="670" y="-459.4447" font-family="Helvetica,sans-Serif" font-size="11.00" fill="#000000">UpdatedAt</text>
<polygon fill="none" stroke="#000000" points="874,-452.3447 874,-474.3447 968,-474.3447 968,-452.3447 874,-452.3447"/>
<text text-anchor="start" x="877" y="-460.0447" font-family="Helvetica,sans-Serif" font-size="11.00" fill="#000000">timestamptz[35,6]</text>
<polygon fill="#ffffff" stroke="transparent" points="650,-430.3447 650,-452.3447 874,-452.3447 874,-430.3447 650,-430.3447"/>
<polygon fill="none" stroke="#000000" points="650,-430.3447 650,-452.3447 874,-452.3447 874,-430.3447 650,-430.3447"/>
<image xlink:href="../../images/foreignKeys.png" width="11px" height="12px" preserveAspectRatio="xMinYMin meet" x="655" y="-447.345"/>
<text text-anchor="start" x="670" y="-437.4447" font-family="Helvetica,sans-Serif" font-size="11.00" fill="#000000">CreatedByUserId</text>
<polygon fill="none" stroke="#000000" points="874,-430.3447 874,-452.3447 968,-452.3447 968,-430.3447 874,-430.3447"/>
<text text-anchor="start" x="877" y="-438.0447" font-family="Helvetica,sans-Serif" font-size="11.00" fill="#000000">text[2147483647]</text>
<polygon fill="#ffffff" stroke="transparent" points="650,-408.3447 650,-430.3447 874,-430.3447 874,-408.3447 650,-408.3447"/>
<polygon fill="none" stroke="#000000" points="650,-408.3447 650,-430.3447 874,-430.3447 874,-408.3447 650,-408.3447"/>
<image xlink:href="../../images/foreignKeys.png" width="11px" height="12px" preserveAspectRatio="xMinYMin meet" x="655" y="-425.345"/>
<text text-anchor="start" x="670" y="-415.4447" font-family="Helvetica,sans-Serif" font-size="11.00" fill="#000000">UpdatedByUserId</text>
<polygon fill="none" stroke="#000000" points="874,-408.3447 874,-430.3447 968,-430.3447 968,-408.3447 874,-408.3447"/>
<text text-anchor="start" x="877" y="-416.0447" font-family="Helvetica,sans-Serif" font-size="11.00" fill="#000000">text[2147483647]</text>
<polygon fill="#ffffff" stroke="transparent" points="650,-386.3447 650,-408.3447 874,-408.3447 874,-386.3447 650,-386.3447"/>
<polygon fill="none" stroke="#000000" points="650,-386.3447 650,-408.3447 874,-408.3447 874,-386.3447 650,-386.3447"/>
<image xlink:href="../../images/foreignKeys.png" width="11px" height="12px" preserveAspectRatio="xMinYMin meet" x="655" y="-403.345"/>
<text text-anchor="start" x="670" y="-393.4447" font-family="Helvetica,sans-Serif" font-size="11.00" fill="#000000">ProfessorUserId</text>
<polygon fill="none" stroke="#000000" points="874,-386.3447 874,-408.3447 968,-408.3447 968,-386.3447 874,-386.3447"/>
<text text-anchor="start" x="877" y="-394.0447" font-family="Helvetica,sans-Serif" font-size="11.00" fill="#000000">text[2147483647]</text>
<polygon fill="#ffffff" stroke="transparent" points="650,-364.3447 650,-386.3447 874,-386.3447 874,-364.3447 650,-364.3447"/>
<polygon fill="none" stroke="#000000" points="650,-364.3447 650,-386.3447 874,-386.3447 874,-364.3447 650,-364.3447"/>
<image xlink:href="../../images/foreignKeys.png" width="11px" height="12px" preserveAspectRatio="xMinYMin meet" x="655" y="-381.345"/>
<text text-anchor="start" x="670" y="-371.4447" font-family="Helvetica,sans-Serif" font-size="11.00" fill="#000000">SubjectId</text>
<polygon fill="none" stroke="#000000" points="874,-364.3447 874,-386.3447 968,-386.3447 968,-364.3447 874,-364.3447"/>
<text text-anchor="start" x="876.9758" y="-372.0447" font-family="Helvetica,sans-Serif" font-size="11.00" fill="#000000">uuid[2147483647]</text>
<polygon fill="#ffffff" stroke="transparent" points="650,-345.3447 650,-364.3447 753,-364.3447 753,-345.3447 650,-345.3447"/>
<polygon fill="none" stroke="#000000" points="650,-345.3447 650,-364.3447 753,-364.3447 753,-345.3447 650,-345.3447"/>
<text text-anchor="start" x="653" y="-351.4447" font-family="Helvetica,sans-Serif" font-size="11.00" fill="#000000">&lt; 7</text>
<polygon fill="#ffffff" stroke="transparent" points="753,-345.3447 753,-364.3447 874,-364.3447 874,-345.3447 753,-345.3447"/>
<polygon fill="none" stroke="#000000" points="753,-345.3447 753,-364.3447 874,-364.3447 874,-345.3447 753,-345.3447"/>
<text text-anchor="start" x="838.6105" y="-351.4447" font-family="Helvetica,sans-Serif" font-size="11.00" fill="#000000">0 rows</text>
<polygon fill="#ffffff" stroke="transparent" points="874,-345.3447 874,-364.3447 968,-364.3447 968,-345.3447 874,-345.3447"/>
<polygon fill="none" stroke="#000000" points="874,-345.3447 874,-364.3447 968,-364.3447 968,-345.3447 874,-345.3447"/>
<text text-anchor="start" x="949.4053" y="-351.4447" font-family="Helvetica,sans-Serif" font-size="11.00" fill="#000000">1 &gt;</text>
<polygon fill="none" stroke="#000000" stroke-width="2" points="649,-344.3447 649,-630.3447 969,-630.3447 969,-344.3447 649,-344.3447"/>
</a>
</g>
</g>
<!-- ProfessorCompetencyAssignments&#45;&gt;AspNetUsers -->
<g id="edge22" class="edge">
<title>ProfessorCompetencyAssignments:w&#45;&gt;AspNetUsers:e</title>
<path fill="none" stroke="#000000" d="M635.3439,-441.2727C430.7899,-439.2527 370.3474,-395.7191 163,-437.3447 152.0603,-439.5409 140.818,-442.9889 130.027,-446.9745"/>
<polygon fill="#000000" stroke="#000000" points="642.0001,-441.3054 649.9823,-444.9447 646,-441.3251 650,-441.3447 650,-441.3447 650,-441.3447 646,-441.3251 650.0177,-437.7448 642.0001,-441.3054 642.0001,-441.3054"/>
<ellipse fill="none" stroke="#000000" cx="638.8001" cy="-441.2896" rx="3.2" ry="3.2"/>
</g>
<!-- ProfessorCompetencyAssignments&#45;&gt;AspNetUsers -->
<g id="edge27" class="edge">
<title>ProfessorCompetencyAssignments:w&#45;&gt;AspNetUsers:e</title>
<path fill="none" stroke="#000000" d="M635.5106,-419.1837C519.0056,-416.7875 262.6871,-388.8539 163,-417.3447 143.9236,-422.7968 124.9456,-433.1547 108.8427,-443.8087"/>
<polygon fill="#000000" stroke="#000000" points="642.0005,-419.2558 649.96,-422.9445 646.0002,-419.3003 650,-419.3447 650,-419.3447 650,-419.3447 646.0002,-419.3003 650.04,-415.745 642.0005,-419.2558 642.0005,-419.2558"/>
<ellipse fill="none" stroke="#000000" cx="638.8007" cy="-419.2202" rx="3.2" ry="3.2"/>
</g>
<!-- ProfessorCompetencyAssignments&#45;&gt;Competencies -->
<g id="edge21" class="edge">
<title>ProfessorCompetencyAssignments:w&#45;&gt;Competencies:e</title>
<path fill="none" stroke="#000000" d="M635.6132,-552.7685C566.9535,-568.3313 677.8003,-707.3556 607,-765.3447 564.7084,-799.9838 409.1384,-791.2511 361,-765.3447 337.5538,-752.7268 347.6015,-733.3647 328,-715.3447 323.7962,-711.4801 319.1998,-707.8311 314.3967,-704.4109"/>
<polygon fill="#000000" stroke="#000000" points="642.0389,-552.1326 650.3546,-554.9272 646.0194,-551.7387 650,-551.3447 650,-551.3447 650,-551.3447 646.0194,-551.7387 649.6454,-547.7622 642.0389,-552.1326 642.0389,-552.1326"/>
<ellipse fill="none" stroke="#000000" cx="638.8544" cy="-552.4478" rx="3.2" ry="3.2"/>
</g>
<!-- ProfessorCompetencyAssignments&#45;&gt;TechnicalCareers -->
<g id="edge26" class="edge">
<title>ProfessorCompetencyAssignments:w&#45;&gt;TechnicalCareers:e</title>
<path fill="none" stroke="#000000" d="M635.3765,-573.3764C518.8847,-573.8848 484.2333,-580.2581 361,-573.3447 348.7103,-572.6553 335.7196,-571.5563 323.0597,-570.2821"/>
<polygon fill="#000000" stroke="#000000" points="642,-573.3621 650.0078,-576.9447 646,-573.3534 650,-573.3447 650,-573.3447 650,-573.3447 646,-573.3534 649.9922,-569.7447 642,-573.3621 642,-573.3621"/>
<ellipse fill="none" stroke="#000000" cx="638.8" cy="-573.3691" rx="3.2" ry="3.2"/>
</g>
<!-- ProfessorCompetencyAssignments&#45;&gt;EvaluationPeriods -->
<g id="edge23" class="edge">
<title>ProfessorCompetencyAssignments:w&#45;&gt;EvaluationPeriods:e</title>
<path fill="none" stroke="#000000" d="M636.1721,-524.9987C625.7419,-516.6385 624.9498,-498.5109 607,-491.3447 515.5762,-454.8451 400.5783,-458.1694 325.1517,-466.2331"/>
<polygon fill="#000000" stroke="#000000" points="642.3681,-526.946 648.9206,-532.7791 646.184,-528.1454 650,-529.3447 650,-529.3447 650,-529.3447 646.184,-528.1454 651.0794,-525.9104 642.3681,-526.946 642.3681,-526.946"/>
<ellipse fill="none" stroke="#000000" cx="639.3153" cy="-525.9866" rx="3.2" ry="3.2"/>
</g>
<!-- Professors -->
<g id="node15" class="node">
<title>Professors</title>
<g id="a_node15"><a xlink:href="../../tables/Professors.html" xlink:title="Professors" target="_top">
<polygon fill="#ffffff" stroke="transparent" points="195,-283.8447 195,-344.8447 296,-344.8447 296,-283.8447 195,-283.8447"/>
<polygon fill="#f5f5f5" stroke="transparent" points="195.5,-321.3447 195.5,-344.3447 296.5,-344.3447 296.5,-321.3447 195.5,-321.3447"/>
<polygon fill="none" stroke="#000000" points="195.5,-321.3447 195.5,-344.3447 296.5,-344.3447 296.5,-321.3447 195.5,-321.3447"/>
<text text-anchor="start" x="200.5" y="-329.9447" font-family="Helvetica,sans-Serif" font-weight="bold" font-size="11.00" fill="#000000">Professors</text>
<text text-anchor="start" x="262.0219" y="-329.4447" font-family="Helvetica,sans-Serif" font-size="11.00" fill="#000000">[table]</text>
<polygon fill="none" stroke="#000000" points="195.5,-302.3447 195.5,-321.3447 296.5,-321.3447 296.5,-302.3447 195.5,-302.3447"/>
<text text-anchor="start" x="198.5" y="-308.4447" font-family="Helvetica,sans-Serif" font-size="11.00" fill="#000000">...</text>
<polygon fill="#ffffff" stroke="transparent" points="195.5,-283.3447 195.5,-302.3447 226.5,-302.3447 226.5,-283.3447 195.5,-283.3447"/>
<polygon fill="none" stroke="#000000" points="195.5,-283.3447 195.5,-302.3447 226.5,-302.3447 226.5,-283.3447 195.5,-283.3447"/>
<text text-anchor="start" x="198.5" y="-289.4447" font-family="Helvetica,sans-Serif" font-size="11.00" fill="#000000">&lt; 1</text>
<polygon fill="#ffffff" stroke="transparent" points="226.5,-283.3447 226.5,-302.3447 269.5,-302.3447 269.5,-283.3447 226.5,-283.3447"/>
<polygon fill="none" stroke="#000000" points="226.5,-283.3447 226.5,-302.3447 269.5,-302.3447 269.5,-283.3447 226.5,-283.3447"/>
<text text-anchor="start" x="234.1105" y="-289.4447" font-family="Helvetica,sans-Serif" font-size="11.00" fill="#000000">0 rows</text>
<polygon fill="#ffffff" stroke="transparent" points="269.5,-283.3447 269.5,-302.3447 296.5,-302.3447 296.5,-283.3447 269.5,-283.3447"/>
<polygon fill="none" stroke="#000000" points="269.5,-283.3447 269.5,-302.3447 296.5,-302.3447 296.5,-283.3447 269.5,-283.3447"/>
<text text-anchor="start" x="277.9053" y="-289.4447" font-family="Helvetica,sans-Serif" font-size="11.00" fill="#000000">2 &gt;</text>
</a>
</g>
</g>
<!-- ProfessorCompetencyAssignments&#45;&gt;Professors -->
<g id="edge24" class="edge">
<title>ProfessorCompetencyAssignments:w&#45;&gt;Professors:e</title>
<path fill="none" stroke="#000000" d="M635.4923,-395.617C626.4629,-393.2241 620.4747,-388.9068 607,-386.3447 498.7416,-365.7602 468.2144,-380.8138 361,-355.3447 342.1613,-350.8696 322.1214,-344.3953 304.1146,-337.9086"/>
<polygon fill="#000000" stroke="#000000" points="642.0561,-396.3987 649.5743,-400.9195 646.0281,-396.8717 650,-397.3447 650,-397.3447 650,-397.3447 646.0281,-396.8717 650.4257,-393.77 642.0561,-396.3987 642.0561,-396.3987"/>
<ellipse fill="none" stroke="#000000" cx="638.8786" cy="-396.0202" rx="3.2" ry="3.2"/>
</g>
<!-- Subjects -->
<g id="node16" class="node">
<title>Subjects</title>
<g id="a_node16"><a xlink:href="../../tables/Subjects.html" xlink:title="Subjects" target="_top">
<polygon fill="#ffffff" stroke="transparent" points="439.5,-201.8447 439.5,-262.8447 528.5,-262.8447 528.5,-201.8447 439.5,-201.8447"/>
<polygon fill="#f5f5f5" stroke="transparent" points="440,-239.3447 440,-262.3447 529,-262.3447 529,-239.3447 440,-239.3447"/>
<polygon fill="none" stroke="#000000" points="440,-239.3447 440,-262.3447 529,-262.3447 529,-239.3447 440,-239.3447"/>
<text text-anchor="start" x="445" y="-247.9447" font-family="Helvetica,sans-Serif" font-weight="bold" font-size="11.00" fill="#000000">Subjects</text>
<text text-anchor="start" x="494.5219" y="-247.4447" font-family="Helvetica,sans-Serif" font-size="11.00" fill="#000000">[table]</text>
<polygon fill="none" stroke="#000000" points="440,-220.3447 440,-239.3447 529,-239.3447 529,-220.3447 440,-220.3447"/>
<text text-anchor="start" x="443" y="-226.4447" font-family="Helvetica,sans-Serif" font-size="11.00" fill="#000000">...</text>
<polygon fill="#ffffff" stroke="transparent" points="440,-201.3447 440,-220.3447 465,-220.3447 465,-201.3447 440,-201.3447"/>
<polygon fill="none" stroke="#000000" points="440,-201.3447 440,-220.3447 465,-220.3447 465,-201.3447 440,-201.3447"/>
<text text-anchor="start" x="443" y="-207.4447" font-family="Helvetica,sans-Serif" font-size="11.00" fill="#000000">&lt; 4</text>
<polygon fill="#ffffff" stroke="transparent" points="465,-201.3447 465,-220.3447 505,-220.3447 505,-201.3447 465,-201.3447"/>
<polygon fill="none" stroke="#000000" points="465,-201.3447 465,-220.3447 505,-220.3447 505,-201.3447 465,-201.3447"/>
<text text-anchor="start" x="469.6105" y="-207.4447" font-family="Helvetica,sans-Serif" font-size="11.00" fill="#000000">0 rows</text>
<polygon fill="#ffffff" stroke="transparent" points="505,-201.3447 505,-220.3447 529,-220.3447 529,-201.3447 505,-201.3447"/>
<polygon fill="none" stroke="#000000" points="505,-201.3447 505,-220.3447 529,-220.3447 529,-201.3447 505,-201.3447"/>
<text text-anchor="start" x="510.4053" y="-207.4447" font-family="Helvetica,sans-Serif" font-size="11.00" fill="#000000">3 &gt;</text>
</a>
</g>
</g>
<!-- ProfessorCompetencyAssignments&#45;&gt;Subjects -->
<g id="edge25" class="edge">
<title>ProfessorCompetencyAssignments:w&#45;&gt;Subjects:e</title>
<path fill="none" stroke="#000000" d="M635.8511,-372.512C609.8981,-359.2509 638.7323,-302.7169 607,-273.3447 587.7555,-255.5315 560.5537,-245.4402 536.6224,-239.7317"/>
<polygon fill="#000000" stroke="#000000" points="642.1557,-373.7742 649.2933,-378.8747 646.0778,-374.5595 650,-375.3447 650,-375.3447 650,-375.3447 646.0778,-374.5595 650.7067,-371.8148 642.1557,-373.7742 642.1557,-373.7742"/>
<ellipse fill="none" stroke="#000000" cx="639.0179" cy="-373.146" rx="3.2" ry="3.2"/>
</g>
<!-- Professors&#45;&gt;AspNetUsers -->
<g id="edge28" class="edge">
<title>Professors:w&#45;&gt;AspNetUsers:e</title>
<path fill="none" stroke="#000000" d="M177.9542,-348.3101C172.7274,-351.7946 167.673,-355.4832 163,-359.3447 133.3945,-383.8096 106.1867,-418.2384 87.9909,-443.7734"/>
<polygon fill="#000000" stroke="#000000" points="184.0564,-339.6964 188.3452,-346.4497 186.9945,-347.3074 182.7058,-340.5541 184.0564,-339.6964"/>
<polyline fill="none" stroke="#000000" points="186.8761,-342.6441 183.4995,-344.7885 "/>
<ellipse fill="none" stroke="#000000" cx="180.7982" cy="-346.504" rx="3.2" ry="3.2"/>
</g>
<!-- Subjects&#45;&gt;AspNetUsers -->
<g id="edge48" class="edge">
<title>Subjects:w&#45;&gt;AspNetUsers:e</title>
<path fill="none" stroke="#000000" d="M416.959,-218.9414C346.9397,-211.7437 237.1742,-213.7219 163,-267.3447 104.8167,-309.4073 79.8304,-395.2757 70.2469,-443.5598"/>
<polygon fill="#000000" stroke="#000000" points="423.3232,-219.6796 430.8552,-224.1774 427.2966,-220.1405 431.27,-220.6014 431.27,-220.6014 431.27,-220.6014 427.2966,-220.1405 431.6848,-217.0253 423.3232,-219.6796 423.3232,-219.6796"/>
<ellipse fill="none" stroke="#000000" cx="420.1446" cy="-219.3109" rx="3.2" ry="3.2"/>
</g>
<!-- Subjects&#45;&gt;AspNetUsers -->
<g id="edge51" class="edge">
<title>Subjects:w&#45;&gt;AspNetUsers:e</title>
<path fill="none" stroke="#000000" d="M416.519,-228.5671C346.4805,-224.7522 237.019,-226.8341 163,-280.3447 108.3332,-319.865 82.972,-398.0561 72.1573,-443.5366"/>
<polygon fill="#000000" stroke="#000000" points="423.2854,-228.9877 431.0466,-233.0772 427.2777,-229.2359 431.27,-229.4841 431.27,-229.4841 431.27,-229.4841 427.2777,-229.2359 431.4934,-225.891 423.2854,-228.9877 423.2854,-228.9877"/>
<ellipse fill="none" stroke="#000000" cx="420.0915" cy="-228.7891" rx="3.2" ry="3.2"/>
</g>
<!-- Subjects&#45;&gt;TechnicalCareers -->
<g id="edge50" class="edge">
<title>Subjects:w&#45;&gt;TechnicalCareers:e</title>
<path fill="none" stroke="#000000" d="M417.0232,-240.5873C396.1652,-246.4589 374.9901,-256.4353 361,-273.3447 290.68,-358.3388 392.2268,-429.6575 328,-519.3447 326.4169,-521.5554 324.6803,-523.6532 322.8175,-525.6435"/>
<polygon fill="#000000" stroke="#000000" points="423.5429,-239.0168 432.1635,-240.6432 427.4317,-238.0801 431.3205,-237.1433 431.3205,-237.1433 431.3205,-237.1433 427.4317,-238.0801 430.4774,-233.6435 423.5429,-239.0168 423.5429,-239.0168"/>
<ellipse fill="none" stroke="#000000" cx="420.4319" cy="-239.7663" rx="3.2" ry="3.2"/>
</g>
<!-- Subjects&#45;&gt;Professors -->
<g id="edge49" class="edge">
<title>Subjects:w&#45;&gt;Professors:e</title>
<path fill="none" stroke="#000000" d="M417.5725,-254.226C399.2206,-260.3422 379.3178,-267.0412 361,-273.3447 342.4896,-279.7145 322.3667,-286.8012 304.1808,-293.2668"/>
<polygon fill="#000000" stroke="#000000" points="423.6604,-252.2024 432.3876,-253.095 427.4562,-250.9406 431.252,-249.6788 431.252,-249.6788 431.252,-249.6788 427.4562,-250.9406 430.1164,-246.2626 423.6604,-252.2024 423.6604,-252.2024"/>
<ellipse fill="none" stroke="#000000" cx="420.6238" cy="-253.2118" rx="3.2" ry="3.2"/>
</g>
<!-- QuestionResponses -->
<g id="node17" class="node">
<title>QuestionResponses</title>
<g id="a_node17"><a xlink:href="../../tables/QuestionResponses.html" xlink:title="QuestionResponses" target="_top">
<polygon fill="#ffffff" stroke="transparent" points="1291,-56.8447 1291,-117.8447 1446,-117.8447 1446,-56.8447 1291,-56.8447"/>
<polygon fill="#f5f5f5" stroke="transparent" points="1291.5,-94.3447 1291.5,-117.3447 1446.5,-117.3447 1446.5,-94.3447 1291.5,-94.3447"/>
<polygon fill="none" stroke="#000000" points="1291.5,-94.3447 1291.5,-117.3447 1446.5,-117.3447 1446.5,-94.3447 1291.5,-94.3447"/>
<text text-anchor="start" x="1296.5" y="-102.9447" font-family="Helvetica,sans-Serif" font-weight="bold" font-size="11.00" fill="#000000">QuestionResponses</text>
<text text-anchor="start" x="1412.0219" y="-102.4447" font-family="Helvetica,sans-Serif" font-size="11.00" fill="#000000">[table]</text>
<polygon fill="none" stroke="#000000" points="1291.5,-75.3447 1291.5,-94.3447 1446.5,-94.3447 1446.5,-75.3447 1291.5,-75.3447"/>
<text text-anchor="start" x="1294.5" y="-81.4447" font-family="Helvetica,sans-Serif" font-size="11.00" fill="#000000">...</text>
<polygon fill="#ffffff" stroke="transparent" points="1291.5,-56.3447 1291.5,-75.3447 1354.5,-75.3447 1354.5,-56.3447 1291.5,-56.3447"/>
<polygon fill="none" stroke="#000000" points="1291.5,-56.3447 1291.5,-75.3447 1354.5,-75.3447 1354.5,-56.3447 1291.5,-56.3447"/>
<text text-anchor="start" x="1294.5" y="-62.4447" font-family="Helvetica,sans-Serif" font-size="11.00" fill="#000000">&lt; 4</text>
<polygon fill="#ffffff" stroke="transparent" points="1354.5,-56.3447 1354.5,-75.3447 1413.5,-75.3447 1413.5,-56.3447 1354.5,-56.3447"/>
<polygon fill="none" stroke="#000000" points="1354.5,-56.3447 1354.5,-75.3447 1413.5,-75.3447 1413.5,-56.3447 1354.5,-56.3447"/>
<text text-anchor="start" x="1378.1105" y="-62.4447" font-family="Helvetica,sans-Serif" font-size="11.00" fill="#000000">0 rows</text>
<polygon fill="#ffffff" stroke="transparent" points="1413.5,-56.3447 1413.5,-75.3447 1446.5,-75.3447 1446.5,-56.3447 1413.5,-56.3447"/>
<polygon fill="none" stroke="#000000" points="1413.5,-56.3447 1413.5,-75.3447 1446.5,-75.3447 1446.5,-56.3447 1413.5,-56.3447"/>
<text text-anchor="start" x="1437.3862" y="-62.4447" font-family="Helvetica,sans-Serif" font-size="11.00" fill="#000000"> &#160;</text>
</a>
</g>
</g>
<!-- QuestionResponses&#45;&gt;AspNetUsers -->
<g id="edge29" class="edge">
<title>QuestionResponses:w&#45;&gt;AspNetUsers:e</title>
<path fill="none" stroke="#000000" d="M1276.9597,-83.8944C1074.1334,-76.9836 1018.9277,-48.3447 809,-48.3447 809,-48.3447 809,-48.3447 484,-48.3447 339.9993,-48.3447 270.5634,3.3962 163,-92.3447 110.4548,-139.1146 78.9142,-357.6858 68.6814,-443.6119"/>
<polygon fill="#000000" stroke="#000000" points="1283.5038,-84.097 1291.3885,-87.943 1287.5019,-84.2209 1291.5,-84.3447 1291.5,-84.3447 1291.5,-84.3447 1287.5019,-84.2209 1291.6115,-80.7465 1283.5038,-84.097 1283.5038,-84.097"/>
<ellipse fill="none" stroke="#000000" cx="1280.3054" cy="-83.9979" rx="3.2" ry="3.2"/>
</g>
<!-- QuestionResponses&#45;&gt;AspNetUsers -->
<g id="edge32" class="edge">
<title>QuestionResponses:w&#45;&gt;AspNetUsers:e</title>
<path fill="none" stroke="#000000" d="M1276.9597,-84.769C1074.1334,-89.9836 1018.9277,-61.3447 809,-61.3447 809,-61.3447 809,-61.3447 484,-61.3447 339.9993,-61.3447 270.5634,-9.6038 163,-105.3447 111.727,-150.9822 80.4539,-360.202 69.4622,-443.8019"/>
<polygon fill="#000000" stroke="#000000" points="1283.5034,-84.5781 1291.605,-87.9432 1287.5017,-84.4614 1291.5,-84.3447 1291.5,-84.3447 1291.5,-84.3447 1287.5017,-84.4614 1291.395,-80.7463 1283.5034,-84.5781 1283.5034,-84.5781"/>
<ellipse fill="none" stroke="#000000" cx="1280.3048" cy="-84.6715" rx="3.2" ry="3.2"/>
</g>
<!-- QuestionResponses&#45;&gt;FormQuestions -->
<g id="edge30" class="edge">
<title>QuestionResponses:w&#45;&gt;FormQuestions:e</title>
<path fill="none" stroke="#000000" d="M1277.1982,-86.3727C1242.6915,-98.0654 1271.6913,-157.9356 1250,-203.3447 1151.2295,-410.1142 1150.9432,-491.0121 978,-641.3447 820.3118,-778.4168 756.9362,-831.3447 548,-831.3447"/>
<polygon fill="#000000" stroke="#000000" points="1283.5792,-85.4679 1292.0054,-87.9091 1287.5396,-84.9063 1291.5,-84.3447 1291.5,-84.3447 1291.5,-84.3447 1287.5396,-84.9063 1290.9946,-80.7804 1283.5792,-85.4679 1283.5792,-85.4679"/>
<ellipse fill="none" stroke="#000000" cx="1280.4109" cy="-85.9172" rx="3.2" ry="3.2"/>
</g>
<!-- StudentCompetencyEvaluations -->
<g id="node18" class="node">
<title>StudentCompetencyEvaluations</title>
<g id="a_node18"><a xlink:href="../../tables/StudentCompetencyEvaluations.html" xlink:title="StudentCompetencyEvaluations" target="_top">
<polygon fill="#ffffff" stroke="transparent" points="1019,-131.8447 1019,-192.8447 1242,-192.8447 1242,-131.8447 1019,-131.8447"/>
<polygon fill="#f5f5f5" stroke="transparent" points="1019.5,-169.3447 1019.5,-192.3447 1242.5,-192.3447 1242.5,-169.3447 1019.5,-169.3447"/>
<polygon fill="none" stroke="#000000" points="1019.5,-169.3447 1019.5,-192.3447 1242.5,-192.3447 1242.5,-169.3447 1019.5,-169.3447"/>
<text text-anchor="start" x="1024.5" y="-177.9447" font-family="Helvetica,sans-Serif" font-weight="bold" font-size="11.00" fill="#000000">StudentCompetencyEvaluations</text>
<text text-anchor="start" x="1208.0219" y="-177.4447" font-family="Helvetica,sans-Serif" font-size="11.00" fill="#000000">[table]</text>
<polygon fill="none" stroke="#000000" points="1019.5,-150.3447 1019.5,-169.3447 1242.5,-169.3447 1242.5,-150.3447 1019.5,-150.3447"/>
<text text-anchor="start" x="1022.5" y="-156.4447" font-family="Helvetica,sans-Serif" font-size="11.00" fill="#000000">...</text>
<polygon fill="#ffffff" stroke="transparent" points="1019.5,-131.3447 1019.5,-150.3447 1111.5,-150.3447 1111.5,-131.3447 1019.5,-131.3447"/>
<polygon fill="none" stroke="#000000" points="1019.5,-131.3447 1019.5,-150.3447 1111.5,-150.3447 1111.5,-131.3447 1019.5,-131.3447"/>
<text text-anchor="start" x="1022.5" y="-137.4447" font-family="Helvetica,sans-Serif" font-size="11.00" fill="#000000">&lt; 5</text>
<polygon fill="#ffffff" stroke="transparent" points="1111.5,-131.3447 1111.5,-150.3447 1185.5,-150.3447 1185.5,-131.3447 1111.5,-131.3447"/>
<polygon fill="none" stroke="#000000" points="1111.5,-131.3447 1111.5,-150.3447 1185.5,-150.3447 1185.5,-131.3447 1111.5,-131.3447"/>
<text text-anchor="start" x="1150.1105" y="-137.4447" font-family="Helvetica,sans-Serif" font-size="11.00" fill="#000000">0 rows</text>
<polygon fill="#ffffff" stroke="transparent" points="1185.5,-131.3447 1185.5,-150.3447 1242.5,-150.3447 1242.5,-131.3447 1185.5,-131.3447"/>
<polygon fill="none" stroke="#000000" points="1185.5,-131.3447 1185.5,-150.3447 1242.5,-150.3447 1242.5,-131.3447 1185.5,-131.3447"/>
<text text-anchor="start" x="1223.9053" y="-137.4447" font-family="Helvetica,sans-Serif" font-size="11.00" fill="#000000">1 &gt;</text>
</a>
</g>
</g>
<!-- QuestionResponses&#45;&gt;StudentCompetencyEvaluations -->
<g id="edge31" class="edge">
<title>QuestionResponses:w&#45;&gt;StudentCompetencyEvaluations:e</title>
<path fill="none" stroke="#000000" d="M1276.9835,-85.1759C1239.1477,-89.4214 1202.0152,-109.2065 1174.603,-127.6786"/>
<polygon fill="#000000" stroke="#000000" points="1283.5131,-84.8021 1291.7058,-87.9389 1287.5065,-84.5734 1291.5,-84.3447 1291.5,-84.3447 1291.5,-84.3447 1287.5065,-84.5734 1291.2942,-80.7506 1283.5131,-84.8021 1283.5131,-84.8021"/>
<ellipse fill="none" stroke="#000000" cx="1280.3183" cy="-84.985" rx="3.2" ry="3.2"/>
</g>
<!-- StudentCompetencyEvaluations&#45;&gt;AspNetUsers -->
<g id="edge33" class="edge">
<title>StudentCompetencyEvaluations:w&#45;&gt;AspNetUsers:e</title>
<path fill="none" stroke="#000000" d="M1042.5692,-123.1462C1021.7025,-116.4974 999.3081,-110.6839 978,-107.3447 888.5169,-93.3218 234.2215,-68.386 163,-124.3447 112.5346,-163.9954 80.1592,-362.3659 69.1755,-443.6329"/>
<polygon fill="#000000" stroke="#000000" points="1048.7939,-125.2158 1055.2494,-131.156 1052.5896,-126.4778 1056.3853,-127.7399 1056.3853,-127.7399 1056.3853,-127.7399 1052.5896,-126.4778 1057.5211,-124.3237 1048.7939,-125.2158 1048.7939,-125.2158"/>
<ellipse fill="none" stroke="#000000" cx="1045.7573" cy="-124.2062" rx="3.2" ry="3.2"/>
</g>
<!-- StudentCompetencyEvaluations&#45;&gt;AspNetUsers -->
<g id="edge37" class="edge">
<title>StudentCompetencyEvaluations:w&#45;&gt;AspNetUsers:e</title>
<path fill="none" stroke="#000000" d="M999.868,-124.4993C992.5218,-122.8834 985.1989,-121.4729 978,-120.3447 888.5169,-106.3218 234.2215,-81.386 163,-137.3447 113.8919,-175.929 81.9137,-364.8104 70.108,-443.7208"/>
<polygon fill="#000000" stroke="#000000" points="1006.2117,-125.9989 1013.1689,-131.3428 1010.1044,-126.9191 1013.9971,-127.8394 1013.9971,-127.8394 1013.9971,-127.8394 1010.1044,-126.9191 1014.8254,-124.336 1006.2117,-125.9989 1006.2117,-125.9989"/>
<ellipse fill="none" stroke="#000000" cx="1003.0975" cy="-125.2627" rx="3.2" ry="3.2"/>
</g>
<!-- StudentCompetencyEvaluations&#45;&gt;ProfessorCompetencyAssignments -->
<g id="edge34" class="edge">
<title>StudentCompetencyEvaluations:w&#45;&gt;ProfessorCompetencyAssignments:e</title>
<path fill="none" stroke="#000000" d="M1122.8019,-211.3212C1103.6095,-324.6493 1049.2615,-595.3447 968,-595.3447"/>
<polygon fill="#000000" stroke="#000000" points="1123.8623,-204.9388 1128.7249,-197.6371 1124.5179,-200.9929 1125.1736,-197.047 1125.1736,-197.047 1125.1736,-197.047 1124.5179,-200.9929 1121.6223,-196.4569 1123.8623,-204.9388 1123.8623,-204.9388"/>
<ellipse fill="none" stroke="#000000" cx="1123.3378" cy="-208.0955" rx="3.2" ry="3.2"/>
</g>
<!-- StudentCompetencyEvaluations&#45;&gt;Subjects -->
<g id="edge36" class="edge">
<title>StudentCompetencyEvaluations:w&#45;&gt;Subjects:e</title>
<path fill="none" stroke="#000000" d="M996.6399,-192.399C990.3523,-193.4679 984.1157,-194.4584 978,-195.3447 894.0555,-207.5113 646.1918,-222.8952 536.8472,-229.3155"/>
<polygon fill="#000000" stroke="#000000" points="1003.032,-191.2617 1011.5389,-193.4045 1006.9701,-190.5609 1010.9083,-189.8602 1010.9083,-189.8602 1010.9083,-189.8602 1006.9701,-190.5609 1010.2776,-186.3158 1003.032,-191.2617 1003.032,-191.2617"/>
<ellipse fill="none" stroke="#000000" cx="999.8815" cy="-191.8223" rx="3.2" ry="3.2"/>
</g>
<!-- Students -->
<g id="node19" class="node">
<title>Students</title>
<g id="a_node19"><a xlink:href="../../tables/Students.html" xlink:title="Students" target="_top">
<polygon fill="#ffffff" stroke="transparent" points="439,-283.8447 439,-344.8447 529,-344.8447 529,-283.8447 439,-283.8447"/>
<polygon fill="#f5f5f5" stroke="transparent" points="439,-321.3447 439,-344.3447 529,-344.3447 529,-321.3447 439,-321.3447"/>
<polygon fill="none" stroke="#000000" points="439,-321.3447 439,-344.3447 529,-344.3447 529,-321.3447 439,-321.3447"/>
<text text-anchor="start" x="444" y="-329.9447" font-family="Helvetica,sans-Serif" font-weight="bold" font-size="11.00" fill="#000000">Students</text>
<text text-anchor="start" x="494.5219" y="-329.4447" font-family="Helvetica,sans-Serif" font-size="11.00" fill="#000000">[table]</text>
<polygon fill="none" stroke="#000000" points="439,-302.3447 439,-321.3447 529,-321.3447 529,-302.3447 439,-302.3447"/>
<text text-anchor="start" x="442" y="-308.4447" font-family="Helvetica,sans-Serif" font-size="11.00" fill="#000000">...</text>
<polygon fill="#ffffff" stroke="transparent" points="439,-283.3447 439,-302.3447 465,-302.3447 465,-283.3447 439,-283.3447"/>
<polygon fill="none" stroke="#000000" points="439,-283.3447 439,-302.3447 465,-302.3447 465,-283.3447 439,-283.3447"/>
<text text-anchor="start" x="442" y="-289.4447" font-family="Helvetica,sans-Serif" font-size="11.00" fill="#000000">&lt; 2</text>
<polygon fill="#ffffff" stroke="transparent" points="465,-283.3447 465,-302.3447 505,-302.3447 505,-283.3447 465,-283.3447"/>
<polygon fill="none" stroke="#000000" points="465,-283.3447 465,-302.3447 505,-302.3447 505,-283.3447 465,-283.3447"/>
<text text-anchor="start" x="469.6105" y="-289.4447" font-family="Helvetica,sans-Serif" font-size="11.00" fill="#000000">0 rows</text>
<polygon fill="#ffffff" stroke="transparent" points="505,-283.3447 505,-302.3447 529,-302.3447 529,-283.3447 505,-283.3447"/>
<polygon fill="none" stroke="#000000" points="505,-283.3447 505,-302.3447 529,-302.3447 529,-283.3447 505,-283.3447"/>
<text text-anchor="start" x="510.4053" y="-289.4447" font-family="Helvetica,sans-Serif" font-size="11.00" fill="#000000">3 &gt;</text>
</a>
</g>
</g>
<!-- StudentCompetencyEvaluations&#45;&gt;Students -->
<g id="edge35" class="edge">
<title>StudentCompetencyEvaluations:w&#45;&gt;Students:e</title>
<path fill="none" stroke="#000000" d="M1096.8304,-208.6434C1069.2001,-242.4511 1026.7794,-285.6741 978,-305.3447 885.4547,-342.6643 628.7867,-311.3447 529,-311.3447"/>
<polygon fill="#000000" stroke="#000000" points="1100.9975,-203.3966 1108.792,-199.3709 1103.4852,-200.2643 1105.9729,-197.132 1105.9729,-197.132 1105.9729,-197.132 1103.4852,-200.2643 1103.1538,-194.893 1100.9975,-203.3966 1100.9975,-203.3966"/>
<ellipse fill="none" stroke="#000000" cx="1099.0073" cy="-205.9025" rx="3.2" ry="3.2"/>
</g>
<!-- Students&#45;&gt;AspNetUsers -->
<g id="edge43" class="edge">
<title>Students:w&#45;&gt;AspNetUsers:e</title>
<path fill="none" stroke="#000000" d="M428.4586,-311.7634C384.7366,-315.387 375.3939,-341.6366 328,-355.3447 256.3217,-376.0769 229.5333,-352.5672 163,-386.3447 135.9492,-400.0779 111.1002,-423.5877 93.1926,-443.4033"/>
<polygon fill="#000000" stroke="#000000" points="438.0418,-307.3796 438.3594,-315.3733 436.7607,-315.4369 436.4431,-307.4432 438.0418,-307.3796"/>
<polyline fill="none" stroke="#000000" points="439,-311.3447 435.0032,-311.5035 "/>
<ellipse fill="none" stroke="#000000" cx="431.8057" cy="-311.6306" rx="3.2" ry="3.2"/>
</g>
<!-- Students&#45;&gt;TechnicalCareers -->
<g id="edge42" class="edge">
<title>Students:w&#45;&gt;TechnicalCareers:e</title>
<path fill="none" stroke="#000000" d="M424.5973,-312.3249C340.7257,-324.6371 399.4164,-449.969 328,-519.3447 325.7055,-521.5736 323.2661,-523.7045 320.7182,-525.7391"/>
<polygon fill="#000000" stroke="#000000" points="431.0185,-311.888 439.2445,-314.9364 435.0092,-311.6164 439,-311.3447 439,-311.3447 439,-311.3447 435.0092,-311.6164 438.7555,-307.753 431.0185,-311.888 431.0185,-311.888"/>
<ellipse fill="none" stroke="#000000" cx="427.8258" cy="-312.1053" rx="3.2" ry="3.2"/>
</g>
<!-- StudentEvaluationReport -->
<g id="node20" class="node">
<title>StudentEvaluationReport</title>
<g id="a_node20"><a xlink:href="../../tables/StudentEvaluationReport.html" xlink:title="StudentEvaluationReport" target="_top">
<polygon fill="#ffffff" stroke="transparent" points="717.5,-233.8447 717.5,-294.8447 900.5,-294.8447 900.5,-233.8447 717.5,-233.8447"/>
<polygon fill="#f5f5f5" stroke="transparent" points="718,-271.3447 718,-294.3447 901,-294.3447 901,-271.3447 718,-271.3447"/>
<polygon fill="none" stroke="#000000" points="718,-271.3447 718,-294.3447 901,-294.3447 901,-271.3447 718,-271.3447"/>
<text text-anchor="start" x="723" y="-279.9447" font-family="Helvetica,sans-Serif" font-weight="bold" font-size="11.00" fill="#000000">StudentEvaluationReport</text>
<text text-anchor="start" x="866.5219" y="-279.4447" font-family="Helvetica,sans-Serif" font-size="11.00" fill="#000000">[table]</text>
<polygon fill="none" stroke="#000000" points="718,-252.3447 718,-271.3447 901,-271.3447 901,-252.3447 718,-252.3447"/>
<text text-anchor="start" x="721" y="-258.4447" font-family="Helvetica,sans-Serif" font-size="11.00" fill="#000000">...</text>
<polygon fill="#ffffff" stroke="transparent" points="718,-233.3447 718,-252.3447 795,-252.3447 795,-233.3447 718,-233.3447"/>
<polygon fill="none" stroke="#000000" points="718,-233.3447 718,-252.3447 795,-252.3447 795,-233.3447 718,-233.3447"/>
<text text-anchor="start" x="721" y="-239.4447" font-family="Helvetica,sans-Serif" font-size="11.00" fill="#000000">&lt; 4</text>
<polygon fill="#ffffff" stroke="transparent" points="795,-233.3447 795,-252.3447 861,-252.3447 861,-233.3447 795,-233.3447"/>
<polygon fill="none" stroke="#000000" points="795,-233.3447 795,-252.3447 861,-252.3447 861,-233.3447 795,-233.3447"/>
<text text-anchor="start" x="825.6105" y="-239.4447" font-family="Helvetica,sans-Serif" font-size="11.00" fill="#000000">0 rows</text>
<polygon fill="#ffffff" stroke="transparent" points="861,-233.3447 861,-252.3447 901,-252.3447 901,-233.3447 861,-233.3447"/>
<polygon fill="none" stroke="#000000" points="861,-233.3447 861,-252.3447 901,-252.3447 901,-233.3447 861,-233.3447"/>
<text text-anchor="start" x="891.8862" y="-239.4447" font-family="Helvetica,sans-Serif" font-size="11.00" fill="#000000"> &#160;</text>
</a>
</g>
</g>
<!-- StudentEvaluationReport&#45;&gt;AspNetUsers -->
<g id="edge38" class="edge">
<title>StudentEvaluationReport:w&#45;&gt;AspNetUsers:e</title>
<path fill="none" stroke="#000000" d="M703.6857,-258.6318C659.7996,-245.9798 657.9972,-200.082 607,-185.3447 512.0099,-157.8942 240.0944,-152.4328 163,-214.3447 92.0184,-271.3476 72.4176,-385.8542 67.0288,-443.5607"/>
<polygon fill="#000000" stroke="#000000" points="710.1399,-259.855 717.3296,-264.8818 714.07,-260.5999 718,-261.3447 718,-261.3447 718,-261.3447 714.07,-260.5999 718.6704,-257.8077 710.1399,-259.855 710.1399,-259.855"/>
<ellipse fill="none" stroke="#000000" cx="706.9959" cy="-259.2591" rx="3.2" ry="3.2"/>
</g>
<!-- StudentEvaluationReport&#45;&gt;AspNetUsers -->
<g id="edge41" class="edge">
<title>StudentEvaluationReport:w&#45;&gt;AspNetUsers:e</title>
<path fill="none" stroke="#000000" d="M703.4037,-261.8114C659.7916,-258.7829 657.8877,-213.0504 607,-198.3447 512.0099,-170.8942 240.0944,-165.4328 163,-227.3447 95.3807,-281.6475 74.3898,-388.1352 67.8942,-443.3954"/>
<polygon fill="#000000" stroke="#000000" points="710.0041,-261.6004 718.1151,-264.9429 714.002,-261.4726 718,-261.3447 718,-261.3447 718,-261.3447 714.002,-261.4726 717.8849,-257.7466 710.0041,-261.6004 710.0041,-261.6004"/>
<ellipse fill="none" stroke="#000000" cx="706.8057" cy="-261.7027" rx="3.2" ry="3.2"/>
</g>
<!-- StudentEvaluationReport&#45;&gt;EvaluationPeriods -->
<g id="edge39" class="edge">
<title>StudentEvaluationReport:w&#45;&gt;EvaluationPeriods:e</title>
<path fill="none" stroke="#000000" d="M703.5181,-262.5482C654.5323,-271.3361 658.637,-326.1 607,-355.3447 516.4348,-406.6366 400.9883,-441.2778 325.2418,-460.3998"/>
<polygon fill="#000000" stroke="#000000" points="710.0275,-262.0073 718.2982,-264.9324 714.0137,-261.676 718,-261.3447 718,-261.3447 718,-261.3447 714.0137,-261.676 717.7018,-257.7571 710.0275,-262.0073 710.0275,-262.0073"/>
<ellipse fill="none" stroke="#000000" cx="706.8385" cy="-262.2723" rx="3.2" ry="3.2"/>
</g>
<!-- StudentEvaluationReport&#45;&gt;Students -->
<g id="edge40" class="edge">
<title>StudentEvaluationReport:w&#45;&gt;Students:e</title>
<path fill="none" stroke="#000000" d="M703.4357,-261.8396C629.0805,-267.0325 610.7985,-311.3447 529,-311.3447"/>
<polygon fill="#000000" stroke="#000000" points="710.0046,-261.6165 718.1223,-264.9427 714.0023,-261.4806 718,-261.3447 718,-261.3447 718,-261.3447 714.0023,-261.4806 717.8777,-257.7468 710.0046,-261.6165 710.0046,-261.6165"/>
<ellipse fill="none" stroke="#000000" cx="706.8065" cy="-261.7252" rx="3.2" ry="3.2"/>
</g>
<!-- StudentSubjects -->
<g id="node21" class="node">
<title>StudentSubjects</title>
<g id="a_node21"><a xlink:href="../../tables/StudentSubjects.html" xlink:title="StudentSubjects" target="_top">
<polygon fill="#ffffff" stroke="transparent" points="742.5,-123.8447 742.5,-184.8447 875.5,-184.8447 875.5,-123.8447 742.5,-123.8447"/>
<polygon fill="#f5f5f5" stroke="transparent" points="743,-161.3447 743,-184.3447 876,-184.3447 876,-161.3447 743,-161.3447"/>
<polygon fill="none" stroke="#000000" points="743,-161.3447 743,-184.3447 876,-184.3447 876,-161.3447 743,-161.3447"/>
<text text-anchor="start" x="748" y="-169.9447" font-family="Helvetica,sans-Serif" font-weight="bold" font-size="11.00" fill="#000000">StudentSubjects</text>
<text text-anchor="start" x="841.5219" y="-169.4447" font-family="Helvetica,sans-Serif" font-size="11.00" fill="#000000">[table]</text>
<polygon fill="none" stroke="#000000" points="743,-142.3447 743,-161.3447 876,-161.3447 876,-142.3447 743,-142.3447"/>
<text text-anchor="start" x="746" y="-148.4447" font-family="Helvetica,sans-Serif" font-size="11.00" fill="#000000">...</text>
<polygon fill="#ffffff" stroke="transparent" points="743,-123.3447 743,-142.3447 795,-142.3447 795,-123.3447 743,-123.3447"/>
<polygon fill="none" stroke="#000000" points="743,-123.3447 743,-142.3447 795,-142.3447 795,-123.3447 743,-123.3447"/>
<text text-anchor="start" x="746" y="-129.4447" font-family="Helvetica,sans-Serif" font-size="11.00" fill="#000000">&lt; 4</text>
<polygon fill="#ffffff" stroke="transparent" points="795,-123.3447 795,-142.3447 848,-142.3447 848,-123.3447 795,-123.3447"/>
<polygon fill="none" stroke="#000000" points="795,-123.3447 795,-142.3447 848,-142.3447 848,-123.3447 795,-123.3447"/>
<text text-anchor="start" x="812.6105" y="-129.4447" font-family="Helvetica,sans-Serif" font-size="11.00" fill="#000000">0 rows</text>
<polygon fill="#ffffff" stroke="transparent" points="848,-123.3447 848,-142.3447 876,-142.3447 876,-123.3447 848,-123.3447"/>
<polygon fill="none" stroke="#000000" points="848,-123.3447 848,-142.3447 876,-142.3447 876,-123.3447 848,-123.3447"/>
<text text-anchor="start" x="866.8862" y="-129.4447" font-family="Helvetica,sans-Serif" font-size="11.00" fill="#000000"> &#160;</text>
</a>
</g>
</g>
<!-- StudentSubjects&#45;&gt;AspNetUsers -->
<g id="edge44" class="edge">
<title>StudentSubjects:w&#45;&gt;AspNetUsers:e</title>
<path fill="none" stroke="#000000" d="M728.6036,-150.5347C589.8353,-141.5765 262.1524,-92.1392 163,-167.3447 118.4654,-201.1235 83.45,-369.8825 70.4599,-443.7411"/>
<polygon fill="#000000" stroke="#000000" points="735.0126,-150.8953 742.7977,-154.9391 739.0063,-151.12 743,-151.3447 743,-151.3447 743,-151.3447 739.0063,-151.12 743.2023,-147.7504 735.0126,-150.8953 735.0126,-150.8953"/>
<ellipse fill="none" stroke="#000000" cx="731.8177" cy="-150.7155" rx="3.2" ry="3.2"/>
</g>
<!-- StudentSubjects&#45;&gt;AspNetUsers -->
<g id="edge47" class="edge">
<title>StudentSubjects:w&#45;&gt;AspNetUsers:e</title>
<path fill="none" stroke="#000000" d="M728.6036,-151.8582C589.8353,-154.5765 262.1524,-105.1392 163,-180.3447 119.9056,-213.0311 85.7246,-372.1089 71.7888,-443.5844"/>
<polygon fill="#000000" stroke="#000000" points="735.0051,-151.6299 743.1283,-154.9425 739.0025,-151.4873 743,-151.3447 743,-151.3447 743,-151.3447 739.0025,-151.4873 742.8717,-147.747 735.0051,-151.6299 735.0051,-151.6299"/>
<ellipse fill="none" stroke="#000000" cx="731.8071" cy="-151.744" rx="3.2" ry="3.2"/>
</g>
<!-- StudentSubjects&#45;&gt;Subjects -->
<g id="edge46" class="edge">
<title>StudentSubjects:w&#45;&gt;Subjects:e</title>
<path fill="none" stroke="#000000" d="M728.578,-151.7167C658.4874,-155.2676 584.5574,-183.525 536.5681,-205.5978"/>
<polygon fill="#000000" stroke="#000000" points="735.0027,-151.5511 743.0929,-154.9435 739.0013,-151.4479 743,-151.3447 743,-151.3447 743,-151.3447 739.0013,-151.4479 742.9071,-147.7459 735.0027,-151.5511 735.0027,-151.5511"/>
<ellipse fill="none" stroke="#000000" cx="731.8037" cy="-151.6336" rx="3.2" ry="3.2"/>
</g>
<!-- StudentSubjects&#45;&gt;Students -->
<g id="edge45" class="edge">
<title>StudentSubjects:w&#45;&gt;Students:e</title>
<path fill="none" stroke="#000000" d="M728.4835,-152.1683C685.3417,-157.412 675.3107,-187.0784 640,-223.3447 621.4257,-242.4218 627.0108,-255.7804 607,-273.3447 578.0187,-298.7828 567.5618,-311.3447 529,-311.3447"/>
<polygon fill="#000000" stroke="#000000" points="735.0128,-151.7979 743.2039,-154.939 739.0064,-151.5713 743,-151.3447 743,-151.3447 743,-151.3447 739.0064,-151.5713 742.7961,-147.7505 735.0128,-151.7979 735.0128,-151.7979"/>
<ellipse fill="none" stroke="#000000" cx="731.818" cy="-151.9792" rx="3.2" ry="3.2"/>
</g>
</g>
</svg>
