<?xml version="1.0" encoding="UTF-8" standalone="no"?>
<!DOCTYPE svg PUBLIC "-//W3C//DTD SVG 1.1//EN"
 "http://www.w3.org/Graphics/SVG/1.1/DTD/svg11.dtd">
<!-- Generated by graphviz version 2.40.1 (20161225.0304)
 -->
<!-- Title: twoDegreesRelationshipsDiagram Pages: 1 -->
<svg width="1131pt" height="1160pt"
 viewBox="0.00 0.00 1131.00 1160.47" xmlns="http://www.w3.org/2000/svg" xmlns:xlink="http://www.w3.org/1999/xlink">
<g id="graph0" class="graph" transform="scale(1 1) rotate(0) translate(4 1156.4657)">
<title>twoDegreesRelationshipsDiagram</title>
<polygon fill="#ffffff" stroke="transparent" points="-4,4 -4,-1156.4657 1127,-1156.4657 1127,4 -4,4"/>
<text text-anchor="middle" x="72.4936" y="-7.3" font-family="Helvetica,sans-Serif" font-size="11.00" fill="#000000">Generated by SchemaSpy</text>
<!-- AspNetUserClaims -->
<g id="node1" class="node">
<title>AspNetUserClaims</title>
<g id="a_node1"><a xlink:href="../../tables/AspNetUserClaims.html" xlink:title="AspNetUserClaims" target="_top">
<polygon fill="#ffffff" stroke="transparent" points="186,-1087.4657 186,-1148.4657 333,-1148.4657 333,-1087.4657 186,-1087.4657"/>
<polygon fill="#f5f5f5" stroke="transparent" points="186.5,-1124.9657 186.5,-1147.9657 333.5,-1147.9657 333.5,-1124.9657 186.5,-1124.9657"/>
<polygon fill="none" stroke="#000000" points="186.5,-1124.9657 186.5,-1147.9657 333.5,-1147.9657 333.5,-1124.9657 186.5,-1124.9657"/>
<text text-anchor="start" x="191.5" y="-1133.5657" font-family="Helvetica,sans-Serif" font-weight="bold" font-size="11.00" fill="#000000">AspNetUserClaims</text>
<text text-anchor="start" x="299.0219" y="-1133.0657" font-family="Helvetica,sans-Serif" font-size="11.00" fill="#000000">[table]</text>
<polygon fill="none" stroke="#000000" points="186.5,-1105.9657 186.5,-1124.9657 333.5,-1124.9657 333.5,-1105.9657 186.5,-1105.9657"/>
<text text-anchor="start" x="189.5" y="-1112.0657" font-family="Helvetica,sans-Serif" font-size="11.00" fill="#000000">...</text>
<polygon fill="#ffffff" stroke="transparent" points="186.5,-1086.9657 186.5,-1105.9657 245.5,-1105.9657 245.5,-1086.9657 186.5,-1086.9657"/>
<polygon fill="none" stroke="#000000" points="186.5,-1086.9657 186.5,-1105.9657 245.5,-1105.9657 245.5,-1086.9657 186.5,-1086.9657"/>
<text text-anchor="start" x="189.5" y="-1093.0657" font-family="Helvetica,sans-Serif" font-size="11.00" fill="#000000">&lt; 1</text>
<polygon fill="#ffffff" stroke="transparent" points="245.5,-1086.9657 245.5,-1105.9657 302.5,-1105.9657 302.5,-1086.9657 245.5,-1086.9657"/>
<polygon fill="none" stroke="#000000" points="245.5,-1086.9657 245.5,-1105.9657 302.5,-1105.9657 302.5,-1086.9657 245.5,-1086.9657"/>
<text text-anchor="start" x="267.1105" y="-1093.0657" font-family="Helvetica,sans-Serif" font-size="11.00" fill="#000000">0 rows</text>
<polygon fill="#ffffff" stroke="transparent" points="302.5,-1086.9657 302.5,-1105.9657 333.5,-1105.9657 333.5,-1086.9657 302.5,-1086.9657"/>
<polygon fill="none" stroke="#000000" points="302.5,-1086.9657 302.5,-1105.9657 333.5,-1105.9657 333.5,-1086.9657 302.5,-1086.9657"/>
<text text-anchor="start" x="324.3862" y="-1093.0657" font-family="Helvetica,sans-Serif" font-size="11.00" fill="#000000"> &#160;</text>
</a>
</g>
</g>
<!-- AspNetUsers -->
<g id="node2" class="node">
<title>AspNetUsers</title>
<g id="a_node2"><a xlink:href="../../tables/AspNetUsers.html" xlink:title="AspNetUsers" target="_top">
<polygon fill="#ffffff" stroke="transparent" points="8,-541.4657 8,-602.4657 122,-602.4657 122,-541.4657 8,-541.4657"/>
<polygon fill="#f5f5f5" stroke="transparent" points="8,-578.9657 8,-601.9657 122,-601.9657 122,-578.9657 8,-578.9657"/>
<polygon fill="none" stroke="#000000" points="8,-578.9657 8,-601.9657 122,-601.9657 122,-578.9657 8,-578.9657"/>
<text text-anchor="start" x="13" y="-587.5657" font-family="Helvetica,sans-Serif" font-weight="bold" font-size="11.00" fill="#000000">AspNetUsers</text>
<text text-anchor="start" x="87.5219" y="-587.0657" font-family="Helvetica,sans-Serif" font-size="11.00" fill="#000000">[table]</text>
<polygon fill="none" stroke="#000000" points="8,-559.9657 8,-578.9657 122,-578.9657 122,-559.9657 8,-559.9657"/>
<text text-anchor="start" x="11" y="-566.0657" font-family="Helvetica,sans-Serif" font-size="11.00" fill="#000000">...</text>
<polygon fill="#ffffff" stroke="transparent" points="8,-540.9657 8,-559.9657 38,-559.9657 38,-540.9657 8,-540.9657"/>
<polygon fill="none" stroke="#000000" points="8,-540.9657 8,-559.9657 38,-559.9657 38,-540.9657 8,-540.9657"/>
<text text-anchor="start" x="11" y="-547.0657" font-family="Helvetica,sans-Serif" font-size="11.00" fill="#000000"> &#160;</text>
<polygon fill="#ffffff" stroke="transparent" points="38,-540.9657 38,-559.9657 85,-559.9657 85,-540.9657 38,-540.9657"/>
<polygon fill="none" stroke="#000000" points="38,-540.9657 38,-559.9657 85,-559.9657 85,-540.9657 38,-540.9657"/>
<text text-anchor="start" x="49.6105" y="-547.0657" font-family="Helvetica,sans-Serif" font-size="11.00" fill="#000000">0 rows</text>
<polygon fill="#ffffff" stroke="transparent" points="85,-540.9657 85,-559.9657 122,-559.9657 122,-540.9657 85,-540.9657"/>
<polygon fill="none" stroke="#000000" points="85,-540.9657 85,-559.9657 122,-559.9657 122,-540.9657 85,-540.9657"/>
<text text-anchor="start" x="97.2904" y="-547.0657" font-family="Helvetica,sans-Serif" font-size="11.00" fill="#000000">29 &gt;</text>
</a>
</g>
</g>
<!-- AspNetUserClaims&#45;&gt;AspNetUsers -->
<g id="edge1" class="edge">
<title>AspNetUserClaims:w&#45;&gt;AspNetUsers:e</title>
<path fill="none" stroke="#000000" d="M173.9866,-1107.8319C126.3196,-1054.4891 82.3121,-717.0076 69.0508,-606.7588"/>
<polygon fill="#000000" stroke="#000000" points="179.5501,-1111.0036 184.717,-1118.0932 183.025,-1112.9847 186.5,-1114.9657 186.5,-1114.9657 186.5,-1114.9657 183.025,-1112.9847 188.283,-1111.8383 179.5501,-1111.0036 179.5501,-1111.0036"/>
<ellipse fill="none" stroke="#000000" cx="176.7701" cy="-1109.4187" rx="3.2" ry="3.2"/>
</g>
<!-- AspNetUserLogins -->
<g id="node3" class="node">
<title>AspNetUserLogins</title>
<g id="a_node3"><a xlink:href="../../tables/AspNetUserLogins.html" xlink:title="AspNetUserLogins" target="_top">
<polygon fill="#ffffff" stroke="transparent" points="186,-1005.4657 186,-1066.4657 333,-1066.4657 333,-1005.4657 186,-1005.4657"/>
<polygon fill="#f5f5f5" stroke="transparent" points="186.5,-1042.9657 186.5,-1065.9657 333.5,-1065.9657 333.5,-1042.9657 186.5,-1042.9657"/>
<polygon fill="none" stroke="#000000" points="186.5,-1042.9657 186.5,-1065.9657 333.5,-1065.9657 333.5,-1042.9657 186.5,-1042.9657"/>
<text text-anchor="start" x="191.5" y="-1051.5657" font-family="Helvetica,sans-Serif" font-weight="bold" font-size="11.00" fill="#000000">AspNetUserLogins</text>
<text text-anchor="start" x="299.0219" y="-1051.0657" font-family="Helvetica,sans-Serif" font-size="11.00" fill="#000000">[table]</text>
<polygon fill="none" stroke="#000000" points="186.5,-1023.9657 186.5,-1042.9657 333.5,-1042.9657 333.5,-1023.9657 186.5,-1023.9657"/>
<text text-anchor="start" x="189.5" y="-1030.0657" font-family="Helvetica,sans-Serif" font-size="11.00" fill="#000000">...</text>
<polygon fill="#ffffff" stroke="transparent" points="186.5,-1004.9657 186.5,-1023.9657 245.5,-1023.9657 245.5,-1004.9657 186.5,-1004.9657"/>
<polygon fill="none" stroke="#000000" points="186.5,-1004.9657 186.5,-1023.9657 245.5,-1023.9657 245.5,-1004.9657 186.5,-1004.9657"/>
<text text-anchor="start" x="189.5" y="-1011.0657" font-family="Helvetica,sans-Serif" font-size="11.00" fill="#000000">&lt; 1</text>
<polygon fill="#ffffff" stroke="transparent" points="245.5,-1004.9657 245.5,-1023.9657 302.5,-1023.9657 302.5,-1004.9657 245.5,-1004.9657"/>
<polygon fill="none" stroke="#000000" points="245.5,-1004.9657 245.5,-1023.9657 302.5,-1023.9657 302.5,-1004.9657 245.5,-1004.9657"/>
<text text-anchor="start" x="267.1105" y="-1011.0657" font-family="Helvetica,sans-Serif" font-size="11.00" fill="#000000">0 rows</text>
<polygon fill="#ffffff" stroke="transparent" points="302.5,-1004.9657 302.5,-1023.9657 333.5,-1023.9657 333.5,-1004.9657 302.5,-1004.9657"/>
<polygon fill="none" stroke="#000000" points="302.5,-1004.9657 302.5,-1023.9657 333.5,-1023.9657 333.5,-1004.9657 302.5,-1004.9657"/>
<text text-anchor="start" x="324.3862" y="-1011.0657" font-family="Helvetica,sans-Serif" font-size="11.00" fill="#000000"> &#160;</text>
</a>
</g>
</g>
<!-- AspNetUserLogins&#45;&gt;AspNetUsers -->
<g id="edge2" class="edge">
<title>AspNetUserLogins:w&#45;&gt;AspNetUsers:e</title>
<path fill="none" stroke="#000000" d="M172.1162,-1029.9907C95.5175,-997.4931 72.4306,-707.754 66.6714,-606.6157"/>
<polygon fill="#000000" stroke="#000000" points="178.6658,-1031.3453 185.7708,-1036.4911 182.5829,-1032.1555 186.5,-1032.9657 186.5,-1032.9657 186.5,-1032.9657 182.5829,-1032.1555 187.2292,-1029.4403 178.6658,-1031.3453 178.6658,-1031.3453"/>
<ellipse fill="none" stroke="#000000" cx="175.5321" cy="-1030.6972" rx="3.2" ry="3.2"/>
</g>
<!-- AspNetUserRoles -->
<g id="node4" class="node">
<title>AspNetUserRoles</title>
<g id="a_node4"><a xlink:href="../../tables/AspNetUserRoles.html" xlink:title="AspNetUserRoles" target="_top">
<polygon fill="#ffffff" stroke="transparent" points="189.5,-923.4657 189.5,-984.4657 329.5,-984.4657 329.5,-923.4657 189.5,-923.4657"/>
<polygon fill="#f5f5f5" stroke="transparent" points="189.5,-960.9657 189.5,-983.9657 329.5,-983.9657 329.5,-960.9657 189.5,-960.9657"/>
<polygon fill="none" stroke="#000000" points="189.5,-960.9657 189.5,-983.9657 329.5,-983.9657 329.5,-960.9657 189.5,-960.9657"/>
<text text-anchor="start" x="194.5" y="-969.5657" font-family="Helvetica,sans-Serif" font-weight="bold" font-size="11.00" fill="#000000">AspNetUserRoles</text>
<text text-anchor="start" x="295.0219" y="-969.0657" font-family="Helvetica,sans-Serif" font-size="11.00" fill="#000000">[table]</text>
<polygon fill="none" stroke="#000000" points="189.5,-941.9657 189.5,-960.9657 329.5,-960.9657 329.5,-941.9657 189.5,-941.9657"/>
<text text-anchor="start" x="192.5" y="-948.0657" font-family="Helvetica,sans-Serif" font-size="11.00" fill="#000000">...</text>
<polygon fill="#ffffff" stroke="transparent" points="189.5,-922.9657 189.5,-941.9657 244.5,-941.9657 244.5,-922.9657 189.5,-922.9657"/>
<polygon fill="none" stroke="#000000" points="189.5,-922.9657 189.5,-941.9657 244.5,-941.9657 244.5,-922.9657 189.5,-922.9657"/>
<text text-anchor="start" x="192.5" y="-929.0657" font-family="Helvetica,sans-Serif" font-size="11.00" fill="#000000">&lt; 2</text>
<polygon fill="#ffffff" stroke="transparent" points="244.5,-922.9657 244.5,-941.9657 299.5,-941.9657 299.5,-922.9657 244.5,-922.9657"/>
<polygon fill="none" stroke="#000000" points="244.5,-922.9657 244.5,-941.9657 299.5,-941.9657 299.5,-922.9657 244.5,-922.9657"/>
<text text-anchor="start" x="264.1105" y="-929.0657" font-family="Helvetica,sans-Serif" font-size="11.00" fill="#000000">0 rows</text>
<polygon fill="#ffffff" stroke="transparent" points="299.5,-922.9657 299.5,-941.9657 329.5,-941.9657 329.5,-922.9657 299.5,-922.9657"/>
<polygon fill="none" stroke="#000000" points="299.5,-922.9657 299.5,-941.9657 329.5,-941.9657 329.5,-922.9657 299.5,-922.9657"/>
<text text-anchor="start" x="320.3862" y="-929.0657" font-family="Helvetica,sans-Serif" font-size="11.00" fill="#000000"> &#160;</text>
</a>
</g>
</g>
<!-- AspNetUserRoles&#45;&gt;AspNetUsers -->
<g id="edge3" class="edge">
<title>AspNetUserRoles:w&#45;&gt;AspNetUsers:e</title>
<path fill="none" stroke="#000000" d="M175.1978,-947.5801C112.4235,-917.4113 79.4342,-693.769 68.8518,-606.6042"/>
<polygon fill="#000000" stroke="#000000" points="181.7151,-949.1228 188.6707,-954.4689 185.6076,-950.0443 189.5,-950.9657 189.5,-950.9657 189.5,-950.9657 185.6076,-950.0443 190.3293,-947.4625 181.7151,-949.1228 181.7151,-949.1228"/>
<ellipse fill="none" stroke="#000000" cx="178.6012" cy="-948.3857" rx="3.2" ry="3.2"/>
</g>
<!-- AspNetUserTokens -->
<g id="node5" class="node">
<title>AspNetUserTokens</title>
<g id="a_node5"><a xlink:href="../../tables/AspNetUserTokens.html" xlink:title="AspNetUserTokens" target="_top">
<polygon fill="#ffffff" stroke="transparent" points="185,-841.4657 185,-902.4657 334,-902.4657 334,-841.4657 185,-841.4657"/>
<polygon fill="#f5f5f5" stroke="transparent" points="185.5,-878.9657 185.5,-901.9657 334.5,-901.9657 334.5,-878.9657 185.5,-878.9657"/>
<polygon fill="none" stroke="#000000" points="185.5,-878.9657 185.5,-901.9657 334.5,-901.9657 334.5,-878.9657 185.5,-878.9657"/>
<text text-anchor="start" x="190.5" y="-887.5657" font-family="Helvetica,sans-Serif" font-weight="bold" font-size="11.00" fill="#000000">AspNetUserTokens</text>
<text text-anchor="start" x="300.0219" y="-887.0657" font-family="Helvetica,sans-Serif" font-size="11.00" fill="#000000">[table]</text>
<polygon fill="none" stroke="#000000" points="185.5,-859.9657 185.5,-878.9657 334.5,-878.9657 334.5,-859.9657 185.5,-859.9657"/>
<text text-anchor="start" x="188.5" y="-866.0657" font-family="Helvetica,sans-Serif" font-size="11.00" fill="#000000">...</text>
<polygon fill="#ffffff" stroke="transparent" points="185.5,-840.9657 185.5,-859.9657 245.5,-859.9657 245.5,-840.9657 185.5,-840.9657"/>
<polygon fill="none" stroke="#000000" points="185.5,-840.9657 185.5,-859.9657 245.5,-859.9657 245.5,-840.9657 185.5,-840.9657"/>
<text text-anchor="start" x="188.5" y="-847.0657" font-family="Helvetica,sans-Serif" font-size="11.00" fill="#000000">&lt; 1</text>
<polygon fill="#ffffff" stroke="transparent" points="245.5,-840.9657 245.5,-859.9657 302.5,-859.9657 302.5,-840.9657 245.5,-840.9657"/>
<polygon fill="none" stroke="#000000" points="245.5,-840.9657 245.5,-859.9657 302.5,-859.9657 302.5,-840.9657 245.5,-840.9657"/>
<text text-anchor="start" x="267.1105" y="-847.0657" font-family="Helvetica,sans-Serif" font-size="11.00" fill="#000000">0 rows</text>
<polygon fill="#ffffff" stroke="transparent" points="302.5,-840.9657 302.5,-859.9657 334.5,-859.9657 334.5,-840.9657 302.5,-840.9657"/>
<polygon fill="none" stroke="#000000" points="302.5,-840.9657 302.5,-859.9657 334.5,-859.9657 334.5,-840.9657 302.5,-840.9657"/>
<text text-anchor="start" x="325.3862" y="-847.0657" font-family="Helvetica,sans-Serif" font-size="11.00" fill="#000000"> &#160;</text>
</a>
</g>
</g>
<!-- AspNetUserTokens&#45;&gt;AspNetUsers -->
<g id="edge4" class="edge">
<title>AspNetUserTokens:w&#45;&gt;AspNetUsers:e</title>
<path fill="none" stroke="#000000" d="M171.3562,-865.0728C122.3384,-838.1204 85.6397,-678.2292 71.4361,-606.6167"/>
<polygon fill="#000000" stroke="#000000" points="177.7868,-866.8427 184.5446,-872.4367 181.6434,-867.9042 185.5,-868.9657 185.5,-868.9657 185.5,-868.9657 181.6434,-867.9042 186.4554,-865.4948 177.7868,-866.8427 177.7868,-866.8427"/>
<ellipse fill="none" stroke="#000000" cx="174.7016" cy="-865.9935" rx="3.2" ry="3.2"/>
</g>
<!-- Competencies -->
<g id="node6" class="node">
<title>Competencies</title>
<g id="a_node6"><a xlink:href="../../tables/Competencies.html" xlink:title="Competencies" target="_top">
<polygon fill="#ffffff" stroke="transparent" points="199,-719.4657 199,-780.4657 320,-780.4657 320,-719.4657 199,-719.4657"/>
<polygon fill="#f5f5f5" stroke="transparent" points="199.5,-756.9657 199.5,-779.9657 320.5,-779.9657 320.5,-756.9657 199.5,-756.9657"/>
<polygon fill="none" stroke="#000000" points="199.5,-756.9657 199.5,-779.9657 320.5,-779.9657 320.5,-756.9657 199.5,-756.9657"/>
<text text-anchor="start" x="204.5" y="-765.5657" font-family="Helvetica,sans-Serif" font-weight="bold" font-size="11.00" fill="#000000">Competencies</text>
<text text-anchor="start" x="286.0219" y="-765.0657" font-family="Helvetica,sans-Serif" font-size="11.00" fill="#000000">[table]</text>
<polygon fill="none" stroke="#000000" points="199.5,-737.9657 199.5,-756.9657 320.5,-756.9657 320.5,-737.9657 199.5,-737.9657"/>
<text text-anchor="start" x="202.5" y="-744.0657" font-family="Helvetica,sans-Serif" font-size="11.00" fill="#000000">...</text>
<polygon fill="#ffffff" stroke="transparent" points="199.5,-718.9657 199.5,-737.9657 240.5,-737.9657 240.5,-718.9657 199.5,-718.9657"/>
<polygon fill="none" stroke="#000000" points="199.5,-718.9657 199.5,-737.9657 240.5,-737.9657 240.5,-718.9657 199.5,-718.9657"/>
<text text-anchor="start" x="202.5" y="-725.0657" font-family="Helvetica,sans-Serif" font-size="11.00" fill="#000000">&lt; 2</text>
<polygon fill="#ffffff" stroke="transparent" points="240.5,-718.9657 240.5,-737.9657 288.5,-737.9657 288.5,-718.9657 240.5,-718.9657"/>
<polygon fill="none" stroke="#000000" points="240.5,-718.9657 240.5,-737.9657 288.5,-737.9657 288.5,-718.9657 240.5,-718.9657"/>
<text text-anchor="start" x="253.1105" y="-725.0657" font-family="Helvetica,sans-Serif" font-size="11.00" fill="#000000">0 rows</text>
<polygon fill="#ffffff" stroke="transparent" points="288.5,-718.9657 288.5,-737.9657 320.5,-737.9657 320.5,-718.9657 288.5,-718.9657"/>
<polygon fill="none" stroke="#000000" points="288.5,-718.9657 288.5,-737.9657 320.5,-737.9657 320.5,-718.9657 288.5,-718.9657"/>
<text text-anchor="start" x="301.9053" y="-725.0657" font-family="Helvetica,sans-Serif" font-size="11.00" fill="#000000">4 &gt;</text>
</a>
</g>
</g>
<!-- Competencies&#45;&gt;AspNetUsers -->
<g id="edge5" class="edge">
<title>Competencies:w&#45;&gt;AspNetUsers:e</title>
<path fill="none" stroke="#000000" d="M185.138,-744.8162C125.6623,-730.4927 91.4681,-652.8308 75.7107,-606.5707"/>
<polygon fill="#000000" stroke="#000000" points="191.5881,-745.7816 198.9671,-750.5261 195.5441,-746.3736 199.5,-746.9657 199.5,-746.9657 199.5,-746.9657 195.5441,-746.3736 200.0329,-743.4054 191.5881,-745.7816 191.5881,-745.7816"/>
<ellipse fill="none" stroke="#000000" cx="188.4234" cy="-745.3079" rx="3.2" ry="3.2"/>
</g>
<!-- Competencies&#45;&gt;AspNetUsers -->
<g id="edge6" class="edge">
<title>Competencies:w&#45;&gt;AspNetUsers:e</title>
<path fill="none" stroke="#000000" d="M184.7942,-746.6425C122.1241,-739.2264 87.6018,-655.3984 73.1796,-606.5448"/>
<polygon fill="#000000" stroke="#000000" points="191.5019,-746.7899 199.4209,-750.5649 195.501,-746.8778 199.5,-746.9657 199.5,-746.9657 199.5,-746.9657 195.501,-746.8778 199.5791,-743.3666 191.5019,-746.7899 191.5019,-746.7899"/>
<ellipse fill="none" stroke="#000000" cx="188.3027" cy="-746.7195" rx="3.2" ry="3.2"/>
</g>
<!-- CompetencyLevelDescriptions -->
<g id="node7" class="node">
<title>CompetencyLevelDescriptions</title>
<g id="a_node7"><a xlink:href="../../tables/CompetencyLevelDescriptions.html" xlink:title="CompetencyLevelDescriptions" target="_top">
<polygon fill="#ffffff" stroke="transparent" points="411,-783.4657 411,-844.4657 625,-844.4657 625,-783.4657 411,-783.4657"/>
<polygon fill="#f5f5f5" stroke="transparent" points="411,-820.9657 411,-843.9657 625,-843.9657 625,-820.9657 411,-820.9657"/>
<polygon fill="none" stroke="#000000" points="411,-820.9657 411,-843.9657 625,-843.9657 625,-820.9657 411,-820.9657"/>
<text text-anchor="start" x="416" y="-829.5657" font-family="Helvetica,sans-Serif" font-weight="bold" font-size="11.00" fill="#000000">CompetencyLevelDescriptions</text>
<text text-anchor="start" x="590.5219" y="-829.0657" font-family="Helvetica,sans-Serif" font-size="11.00" fill="#000000">[table]</text>
<polygon fill="none" stroke="#000000" points="411,-801.9657 411,-820.9657 625,-820.9657 625,-801.9657 411,-801.9657"/>
<text text-anchor="start" x="414" y="-808.0657" font-family="Helvetica,sans-Serif" font-size="11.00" fill="#000000">...</text>
<polygon fill="#ffffff" stroke="transparent" points="411,-782.9657 411,-801.9657 503,-801.9657 503,-782.9657 411,-782.9657"/>
<polygon fill="none" stroke="#000000" points="411,-782.9657 411,-801.9657 503,-801.9657 503,-782.9657 411,-782.9657"/>
<text text-anchor="start" x="414" y="-789.0657" font-family="Helvetica,sans-Serif" font-size="11.00" fill="#000000">&lt; 3</text>
<polygon fill="#ffffff" stroke="transparent" points="503,-782.9657 503,-801.9657 577,-801.9657 577,-782.9657 503,-782.9657"/>
<polygon fill="none" stroke="#000000" points="503,-782.9657 503,-801.9657 577,-801.9657 577,-782.9657 503,-782.9657"/>
<text text-anchor="start" x="541.6105" y="-789.0657" font-family="Helvetica,sans-Serif" font-size="11.00" fill="#000000">0 rows</text>
<polygon fill="#ffffff" stroke="transparent" points="577,-782.9657 577,-801.9657 625,-801.9657 625,-782.9657 577,-782.9657"/>
<polygon fill="none" stroke="#000000" points="577,-782.9657 577,-801.9657 625,-801.9657 625,-782.9657 577,-782.9657"/>
<text text-anchor="start" x="615.8862" y="-789.0657" font-family="Helvetica,sans-Serif" font-size="11.00" fill="#000000"> &#160;</text>
</a>
</g>
</g>
<!-- CompetencyLevelDescriptions&#45;&gt;AspNetUsers -->
<g id="edge8" class="edge">
<title>CompetencyLevelDescriptions:w&#45;&gt;AspNetUsers:e</title>
<path fill="none" stroke="#000000" d="M396.4721,-810.4445C296.0996,-808.6857 249.2462,-845.9215 163,-784.9657 103.3022,-742.7734 79.3982,-655.5063 70.2678,-606.7286"/>
<polygon fill="#000000" stroke="#000000" points="403.0051,-810.6788 410.8709,-814.5634 407.0026,-810.8223 411,-810.9657 411,-810.9657 411,-810.9657 407.0026,-810.8223 411.1291,-807.368 403.0051,-810.6788 403.0051,-810.6788"/>
<ellipse fill="none" stroke="#000000" cx="399.8072" cy="-810.5641" rx="3.2" ry="3.2"/>
</g>
<!-- CompetencyLevelDescriptions&#45;&gt;AspNetUsers -->
<g id="edge9" class="edge">
<title>CompetencyLevelDescriptions:w&#45;&gt;AspNetUsers:e</title>
<path fill="none" stroke="#000000" d="M396.4721,-812.1189C296.0996,-821.6857 249.2462,-858.9215 163,-797.9657 99.9006,-753.3693 76.7903,-658.415 68.847,-606.8349"/>
<polygon fill="#000000" stroke="#000000" points="403.0251,-811.5988 411.2849,-814.5544 407.0125,-811.2823 411,-810.9657 411,-810.9657 411,-810.9657 407.0125,-811.2823 410.7151,-807.377 403.0251,-811.5988 403.0251,-811.5988"/>
<ellipse fill="none" stroke="#000000" cx="399.8351" cy="-811.852" rx="3.2" ry="3.2"/>
</g>
<!-- CompetencyLevelDescriptions&#45;&gt;Competencies -->
<g id="edge7" class="edge">
<title>CompetencyLevelDescriptions:w&#45;&gt;Competencies:e</title>
<path fill="none" stroke="#000000" d="M396.7415,-808.8363C362.8069,-797.7314 364.3755,-746.9657 320.5,-746.9657"/>
<polygon fill="#000000" stroke="#000000" points="403.0877,-809.784 410.4682,-814.5262 407.0439,-810.3749 411,-810.9657 411,-810.9657 411,-810.9657 407.0439,-810.3749 411.5318,-807.4052 403.0877,-809.784 403.0877,-809.784"/>
<ellipse fill="none" stroke="#000000" cx="399.9228" cy="-809.3114" rx="3.2" ry="3.2"/>
</g>
<!-- Coordinators -->
<g id="node8" class="node">
<title>Coordinators</title>
<g id="a_node8"><a xlink:href="../../tables/Coordinators.html" xlink:title="Coordinators" target="_top">
<polygon fill="#ffffff" stroke="transparent" points="461,-114.4657 461,-175.4657 575,-175.4657 575,-114.4657 461,-114.4657"/>
<polygon fill="#f5f5f5" stroke="transparent" points="461,-151.9657 461,-174.9657 575,-174.9657 575,-151.9657 461,-151.9657"/>
<polygon fill="none" stroke="#000000" points="461,-151.9657 461,-174.9657 575,-174.9657 575,-151.9657 461,-151.9657"/>
<text text-anchor="start" x="466" y="-160.5657" font-family="Helvetica,sans-Serif" font-weight="bold" font-size="11.00" fill="#000000">Coordinators</text>
<text text-anchor="start" x="540.5219" y="-160.0657" font-family="Helvetica,sans-Serif" font-size="11.00" fill="#000000">[table]</text>
<polygon fill="none" stroke="#000000" points="461,-132.9657 461,-151.9657 575,-151.9657 575,-132.9657 461,-132.9657"/>
<text text-anchor="start" x="464" y="-139.0657" font-family="Helvetica,sans-Serif" font-size="11.00" fill="#000000">...</text>
<polygon fill="#ffffff" stroke="transparent" points="461,-113.9657 461,-132.9657 503,-132.9657 503,-113.9657 461,-113.9657"/>
<polygon fill="none" stroke="#000000" points="461,-113.9657 461,-132.9657 503,-132.9657 503,-113.9657 461,-113.9657"/>
<text text-anchor="start" x="464" y="-120.0657" font-family="Helvetica,sans-Serif" font-size="11.00" fill="#000000">&lt; 2</text>
<polygon fill="#ffffff" stroke="transparent" points="503,-113.9657 503,-132.9657 552,-132.9657 552,-113.9657 503,-113.9657"/>
<polygon fill="none" stroke="#000000" points="503,-113.9657 503,-132.9657 552,-132.9657 552,-113.9657 503,-113.9657"/>
<text text-anchor="start" x="516.6105" y="-120.0657" font-family="Helvetica,sans-Serif" font-size="11.00" fill="#000000">0 rows</text>
<polygon fill="#ffffff" stroke="transparent" points="552,-113.9657 552,-132.9657 575,-132.9657 575,-113.9657 552,-113.9657"/>
<polygon fill="none" stroke="#000000" points="552,-113.9657 552,-132.9657 575,-132.9657 575,-113.9657 552,-113.9657"/>
<text text-anchor="start" x="565.8862" y="-120.0657" font-family="Helvetica,sans-Serif" font-size="11.00" fill="#000000"> &#160;</text>
</a>
</g>
</g>
<!-- Coordinators&#45;&gt;AspNetUsers -->
<g id="edge11" class="edge">
<title>Coordinators:w&#45;&gt;AspNetUsers:e</title>
<path fill="none" stroke="#000000" d="M450.5312,-141.8805C323.4098,-139.8208 259.4823,-101.9244 163,-189.9657 111.3499,-237.097 79.7345,-452.1894 69.0631,-537.2246"/>
<polygon fill="#000000" stroke="#000000" points="460.2326,-137.9593 460.1674,-145.9591 458.5675,-145.946 458.6327,-137.9463 460.2326,-137.9593"/>
<polyline fill="none" stroke="#000000" points="461,-141.9657 457.0001,-141.9331 "/>
<ellipse fill="none" stroke="#000000" cx="453.8002" cy="-141.907" rx="3.2" ry="3.2"/>
</g>
<!-- TechnicalCareers -->
<g id="node9" class="node">
<title>TechnicalCareers</title>
<g id="a_node9"><a xlink:href="../../tables/TechnicalCareers.html" xlink:title="TechnicalCareers" target="_top">
<polygon fill="#ffffff" stroke="transparent" points="190,-220.4657 190,-281.4657 329,-281.4657 329,-220.4657 190,-220.4657"/>
<polygon fill="#f5f5f5" stroke="transparent" points="190.5,-257.9657 190.5,-280.9657 329.5,-280.9657 329.5,-257.9657 190.5,-257.9657"/>
<polygon fill="none" stroke="#000000" points="190.5,-257.9657 190.5,-280.9657 329.5,-280.9657 329.5,-257.9657 190.5,-257.9657"/>
<text text-anchor="start" x="195.5" y="-266.5657" font-family="Helvetica,sans-Serif" font-weight="bold" font-size="11.00" fill="#000000">TechnicalCareers</text>
<text text-anchor="start" x="295.0219" y="-266.0657" font-family="Helvetica,sans-Serif" font-size="11.00" fill="#000000">[table]</text>
<polygon fill="none" stroke="#000000" points="190.5,-238.9657 190.5,-257.9657 329.5,-257.9657 329.5,-238.9657 190.5,-238.9657"/>
<text text-anchor="start" x="193.5" y="-245.0657" font-family="Helvetica,sans-Serif" font-size="11.00" fill="#000000">...</text>
<polygon fill="#ffffff" stroke="transparent" points="190.5,-219.9657 190.5,-238.9657 240.5,-238.9657 240.5,-219.9657 190.5,-219.9657"/>
<polygon fill="none" stroke="#000000" points="190.5,-219.9657 190.5,-238.9657 240.5,-238.9657 240.5,-219.9657 190.5,-219.9657"/>
<text text-anchor="start" x="193.5" y="-226.0657" font-family="Helvetica,sans-Serif" font-size="11.00" fill="#000000">&lt; 2</text>
<polygon fill="#ffffff" stroke="transparent" points="240.5,-219.9657 240.5,-238.9657 293.5,-238.9657 293.5,-219.9657 240.5,-219.9657"/>
<polygon fill="none" stroke="#000000" points="240.5,-219.9657 240.5,-238.9657 293.5,-238.9657 293.5,-219.9657 240.5,-219.9657"/>
<text text-anchor="start" x="258.1105" y="-226.0657" font-family="Helvetica,sans-Serif" font-size="11.00" fill="#000000">0 rows</text>
<polygon fill="#ffffff" stroke="transparent" points="293.5,-219.9657 293.5,-238.9657 329.5,-238.9657 329.5,-219.9657 293.5,-219.9657"/>
<polygon fill="none" stroke="#000000" points="293.5,-219.9657 293.5,-238.9657 329.5,-238.9657 329.5,-219.9657 293.5,-219.9657"/>
<text text-anchor="start" x="310.9053" y="-226.0657" font-family="Helvetica,sans-Serif" font-size="11.00" fill="#000000">6 &gt;</text>
</a>
</g>
</g>
<!-- Coordinators&#45;&gt;TechnicalCareers -->
<g id="edge10" class="edge">
<title>Coordinators:w&#45;&gt;TechnicalCareers:e</title>
<path fill="none" stroke="#000000" d="M446.5894,-143.1975C421.4733,-147.9539 414.0013,-165.8612 389,-185.9657 359.2374,-209.899 367.6918,-247.9657 329.5,-247.9657"/>
<polygon fill="#000000" stroke="#000000" points="453.0291,-142.6471 461.3066,-145.5526 457.0145,-142.3064 461,-141.9657 461,-141.9657 461,-141.9657 457.0145,-142.3064 460.6934,-138.3788 453.0291,-142.6471 453.0291,-142.6471"/>
<ellipse fill="none" stroke="#000000" cx="449.8407" cy="-142.9197" rx="3.2" ry="3.2"/>
</g>
<!-- TechnicalCareers&#45;&gt;AspNetUsers -->
<g id="edge46" class="edge">
<title>TechnicalCareers:w&#45;&gt;AspNetUsers:e</title>
<path fill="none" stroke="#000000" d="M176.2687,-250.5933C121.6827,-275.0844 83.7251,-459.1158 70.3288,-537.1944"/>
<polygon fill="#000000" stroke="#000000" points="182.633,-249.4183 191.1537,-251.5059 186.5665,-248.692 190.5,-247.9657 190.5,-247.9657 190.5,-247.9657 186.5665,-248.692 189.8463,-244.4256 182.633,-249.4183 182.633,-249.4183"/>
<ellipse fill="none" stroke="#000000" cx="179.4862" cy="-249.9993" rx="3.2" ry="3.2"/>
</g>
<!-- TechnicalCareers&#45;&gt;AspNetUsers -->
<g id="edge47" class="edge">
<title>TechnicalCareers:w&#45;&gt;AspNetUsers:e</title>
<path fill="none" stroke="#000000" d="M176.6054,-252.6925C123.276,-284.2133 85.7631,-461.3242 71.4365,-537.3767"/>
<polygon fill="#000000" stroke="#000000" points="182.9263,-250.5423 191.6594,-251.3739 186.7131,-249.254 190.5,-247.9657 190.5,-247.9657 190.5,-247.9657 186.7131,-249.254 189.3406,-244.5575 182.9263,-250.5423 182.9263,-250.5423"/>
<ellipse fill="none" stroke="#000000" cx="179.8968" cy="-251.5729" rx="3.2" ry="3.2"/>
</g>
<!-- EvaluationPeriods -->
<g id="node10" class="node">
<title>EvaluationPeriods</title>
<g id="a_node10"><a xlink:href="../../tables/EvaluationPeriods.html" xlink:title="EvaluationPeriods" target="_top">
<polygon fill="#ffffff" stroke="transparent" points="188,-480.4657 188,-541.4657 331,-541.4657 331,-480.4657 188,-480.4657"/>
<polygon fill="#f5f5f5" stroke="transparent" points="188.5,-517.9657 188.5,-540.9657 331.5,-540.9657 331.5,-517.9657 188.5,-517.9657"/>
<polygon fill="none" stroke="#000000" points="188.5,-517.9657 188.5,-540.9657 331.5,-540.9657 331.5,-517.9657 188.5,-517.9657"/>
<text text-anchor="start" x="193.5" y="-526.5657" font-family="Helvetica,sans-Serif" font-weight="bold" font-size="11.00" fill="#000000">EvaluationPeriods</text>
<text text-anchor="start" x="297.0219" y="-526.0657" font-family="Helvetica,sans-Serif" font-size="11.00" fill="#000000">[table]</text>
<polygon fill="none" stroke="#000000" points="188.5,-498.9657 188.5,-517.9657 331.5,-517.9657 331.5,-498.9657 188.5,-498.9657"/>
<text text-anchor="start" x="191.5" y="-505.0657" font-family="Helvetica,sans-Serif" font-size="11.00" fill="#000000">...</text>
<polygon fill="#ffffff" stroke="transparent" points="188.5,-479.9657 188.5,-498.9657 240.5,-498.9657 240.5,-479.9657 188.5,-479.9657"/>
<polygon fill="none" stroke="#000000" points="188.5,-479.9657 188.5,-498.9657 240.5,-498.9657 240.5,-479.9657 188.5,-479.9657"/>
<text text-anchor="start" x="191.5" y="-486.0657" font-family="Helvetica,sans-Serif" font-size="11.00" fill="#000000">&lt; 2</text>
<polygon fill="#ffffff" stroke="transparent" points="240.5,-479.9657 240.5,-498.9657 294.5,-498.9657 294.5,-479.9657 240.5,-479.9657"/>
<polygon fill="none" stroke="#000000" points="240.5,-479.9657 240.5,-498.9657 294.5,-498.9657 294.5,-479.9657 240.5,-479.9657"/>
<text text-anchor="start" x="259.1105" y="-486.0657" font-family="Helvetica,sans-Serif" font-size="11.00" fill="#000000">0 rows</text>
<polygon fill="#ffffff" stroke="transparent" points="294.5,-479.9657 294.5,-498.9657 331.5,-498.9657 331.5,-479.9657 294.5,-479.9657"/>
<polygon fill="none" stroke="#000000" points="294.5,-479.9657 294.5,-498.9657 331.5,-498.9657 331.5,-479.9657 294.5,-479.9657"/>
<text text-anchor="start" x="312.9053" y="-486.0657" font-family="Helvetica,sans-Serif" font-size="11.00" fill="#000000">3 &gt;</text>
</a>
</g>
</g>
<!-- EvaluationPeriods&#45;&gt;AspNetUsers -->
<g id="edge12" class="edge">
<title>EvaluationPeriods:w&#45;&gt;AspNetUsers:e</title>
<path fill="none" stroke="#000000" d="M173.8542,-507.7931C146.8088,-509.6774 120.7356,-523.1726 100.8903,-537.3466"/>
<polygon fill="#000000" stroke="#000000" points="180.5006,-507.8714 188.4575,-511.5655 184.5003,-507.9186 188.5,-507.9657 188.5,-507.9657 188.5,-507.9657 184.5003,-507.9186 188.5425,-504.366 180.5006,-507.8714 180.5006,-507.8714"/>
<ellipse fill="none" stroke="#000000" cx="177.3008" cy="-507.8337" rx="3.2" ry="3.2"/>
</g>
<!-- EvaluationPeriods&#45;&gt;AspNetUsers -->
<g id="edge13" class="edge">
<title>EvaluationPeriods:w&#45;&gt;AspNetUsers:e</title>
<path fill="none" stroke="#000000" d="M174.2324,-510.5424C153.1713,-515.6945 132.6846,-526.3859 115.2516,-537.4593"/>
<polygon fill="#000000" stroke="#000000" points="180.6274,-509.3876 189.1398,-511.5084 184.5637,-508.6766 188.5,-507.9657 188.5,-507.9657 188.5,-507.9657 184.5637,-508.6766 187.8602,-504.423 180.6274,-509.3876 180.6274,-509.3876"/>
<ellipse fill="none" stroke="#000000" cx="177.4783" cy="-509.9563" rx="3.2" ry="3.2"/>
</g>
<!-- FormQuestions -->
<g id="node11" class="node">
<title>FormQuestions</title>
<g id="a_node11"><a xlink:href="../../tables/FormQuestions.html" xlink:title="FormQuestions" target="_top">
<polygon fill="#ffffff" stroke="transparent" points="454.5,-680.4657 454.5,-741.4657 581.5,-741.4657 581.5,-680.4657 454.5,-680.4657"/>
<polygon fill="#f5f5f5" stroke="transparent" points="455,-717.9657 455,-740.9657 582,-740.9657 582,-717.9657 455,-717.9657"/>
<polygon fill="none" stroke="#000000" points="455,-717.9657 455,-740.9657 582,-740.9657 582,-717.9657 455,-717.9657"/>
<text text-anchor="start" x="460" y="-726.5657" font-family="Helvetica,sans-Serif" font-weight="bold" font-size="11.00" fill="#000000">FormQuestions</text>
<text text-anchor="start" x="547.5219" y="-726.0657" font-family="Helvetica,sans-Serif" font-size="11.00" fill="#000000">[table]</text>
<polygon fill="none" stroke="#000000" points="455,-698.9657 455,-717.9657 582,-717.9657 582,-698.9657 455,-698.9657"/>
<text text-anchor="start" x="458" y="-705.0657" font-family="Helvetica,sans-Serif" font-size="11.00" fill="#000000">...</text>
<polygon fill="#ffffff" stroke="transparent" points="455,-679.9657 455,-698.9657 499,-698.9657 499,-679.9657 455,-679.9657"/>
<polygon fill="none" stroke="#000000" points="455,-679.9657 455,-698.9657 499,-698.9657 499,-679.9657 455,-679.9657"/>
<text text-anchor="start" x="458" y="-686.0657" font-family="Helvetica,sans-Serif" font-size="11.00" fill="#000000">&lt; 3</text>
<polygon fill="#ffffff" stroke="transparent" points="499,-679.9657 499,-698.9657 549,-698.9657 549,-679.9657 499,-679.9657"/>
<polygon fill="none" stroke="#000000" points="499,-679.9657 499,-698.9657 549,-698.9657 549,-679.9657 499,-679.9657"/>
<text text-anchor="start" x="513.6105" y="-686.0657" font-family="Helvetica,sans-Serif" font-size="11.00" fill="#000000">0 rows</text>
<polygon fill="#ffffff" stroke="transparent" points="549,-679.9657 549,-698.9657 582,-698.9657 582,-679.9657 549,-679.9657"/>
<polygon fill="none" stroke="#000000" points="549,-679.9657 549,-698.9657 582,-698.9657 582,-679.9657 549,-679.9657"/>
<text text-anchor="start" x="563.4053" y="-686.0657" font-family="Helvetica,sans-Serif" font-size="11.00" fill="#000000">1 &gt;</text>
</a>
</g>
</g>
<!-- FormQuestions&#45;&gt;AspNetUsers -->
<g id="edge15" class="edge">
<title>FormQuestions:w&#45;&gt;AspNetUsers:e</title>
<path fill="none" stroke="#000000" d="M440.6526,-706.6719C367.6735,-700.1356 218.0112,-686.7914 163,-659.9657 137.148,-647.3592 113.6793,-625.4198 96.1935,-606.5554"/>
<polygon fill="#000000" stroke="#000000" points="447.0323,-707.2472 454.6766,-711.5512 451.0162,-707.6064 455,-707.9657 455,-707.9657 455,-707.9657 451.0162,-707.6064 455.3234,-704.3803 447.0323,-707.2472 447.0323,-707.2472"/>
<ellipse fill="none" stroke="#000000" cx="443.8453" cy="-706.9597" rx="3.2" ry="3.2"/>
</g>
<!-- FormQuestions&#45;&gt;AspNetUsers -->
<g id="edge16" class="edge">
<title>FormQuestions:w&#45;&gt;AspNetUsers:e</title>
<path fill="none" stroke="#000000" d="M440.1936,-709.1187C367.0478,-713.0797 217.8961,-699.7353 163,-672.9657 132.2743,-657.9826 104.9151,-629.8158 86.9661,-606.9349"/>
<polygon fill="#000000" stroke="#000000" points="447.0241,-708.5869 455.2795,-711.5549 451.0121,-708.2763 455,-707.9657 455,-707.9657 455,-707.9657 451.0121,-708.2763 454.7205,-704.3766 447.0241,-708.5869 447.0241,-708.5869"/>
<ellipse fill="none" stroke="#000000" cx="443.8338" cy="-708.8353" rx="3.2" ry="3.2"/>
</g>
<!-- FormQuestions&#45;&gt;Competencies -->
<g id="edge14" class="edge">
<title>FormQuestions:w&#45;&gt;Competencies:e</title>
<path fill="none" stroke="#000000" d="M440.3615,-708.7448C390.7086,-714.2414 377.5129,-746.9657 320.5,-746.9657"/>
<polygon fill="#000000" stroke="#000000" points="447.0113,-708.3909 455.1913,-711.5606 451.0057,-708.1783 455,-707.9657 455,-707.9657 455,-707.9657 451.0057,-708.1783 454.8087,-704.3708 447.0113,-708.3909 447.0113,-708.3909"/>
<ellipse fill="none" stroke="#000000" cx="443.8158" cy="-708.561" rx="3.2" ry="3.2"/>
</g>
<!-- ProfessorCompetencyAssignments -->
<g id="node12" class="node">
<title>ProfessorCompetencyAssignments</title>
<g id="a_node12"><a xlink:href="../../tables/ProfessorCompetencyAssignments.html" xlink:title="ProfessorCompetencyAssignments" target="_top">
<polygon fill="#ffffff" stroke="transparent" points="397,-519.4657 397,-580.4657 639,-580.4657 639,-519.4657 397,-519.4657"/>
<polygon fill="#f5f5f5" stroke="transparent" points="397,-556.9657 397,-579.9657 639,-579.9657 639,-556.9657 397,-556.9657"/>
<polygon fill="none" stroke="#000000" points="397,-556.9657 397,-579.9657 639,-579.9657 639,-556.9657 397,-556.9657"/>
<text text-anchor="start" x="402" y="-565.5657" font-family="Helvetica,sans-Serif" font-weight="bold" font-size="11.00" fill="#000000">ProfessorCompetencyAssignments</text>
<text text-anchor="start" x="604.5219" y="-565.0657" font-family="Helvetica,sans-Serif" font-size="11.00" fill="#000000">[table]</text>
<polygon fill="none" stroke="#000000" points="397,-537.9657 397,-556.9657 639,-556.9657 639,-537.9657 397,-537.9657"/>
<text text-anchor="start" x="400" y="-544.0657" font-family="Helvetica,sans-Serif" font-size="11.00" fill="#000000">...</text>
<polygon fill="#ffffff" stroke="transparent" points="397,-518.9657 397,-537.9657 499,-537.9657 499,-518.9657 397,-518.9657"/>
<polygon fill="none" stroke="#000000" points="397,-518.9657 397,-537.9657 499,-537.9657 499,-518.9657 397,-518.9657"/>
<text text-anchor="start" x="400" y="-525.0657" font-family="Helvetica,sans-Serif" font-size="11.00" fill="#000000">&lt; 6</text>
<polygon fill="#ffffff" stroke="transparent" points="499,-518.9657 499,-537.9657 577,-537.9657 577,-518.9657 499,-518.9657"/>
<polygon fill="none" stroke="#000000" points="499,-518.9657 499,-537.9657 577,-537.9657 577,-518.9657 499,-518.9657"/>
<text text-anchor="start" x="541.6105" y="-525.0657" font-family="Helvetica,sans-Serif" font-size="11.00" fill="#000000">0 rows</text>
<polygon fill="#ffffff" stroke="transparent" points="577,-518.9657 577,-537.9657 639,-537.9657 639,-518.9657 577,-518.9657"/>
<polygon fill="none" stroke="#000000" points="577,-518.9657 577,-537.9657 639,-537.9657 639,-518.9657 577,-518.9657"/>
<text text-anchor="start" x="620.4053" y="-525.0657" font-family="Helvetica,sans-Serif" font-size="11.00" fill="#000000">1 &gt;</text>
</a>
</g>
</g>
<!-- ProfessorCompetencyAssignments&#45;&gt;AspNetUsers -->
<g id="edge18" class="edge">
<title>ProfessorCompetencyAssignments:w&#45;&gt;AspNetUsers:e</title>
<path fill="none" stroke="#000000" d="M374.2383,-552.7258C292.3589,-556.1274 193.7558,-561.232 130.2608,-565.5225"/>
<polygon fill="#000000" stroke="#000000" points="380.8013,-552.4581 388.9414,-555.729 384.7979,-552.2951 388.7946,-552.132 388.7946,-552.132 388.7946,-552.132 384.7979,-552.2951 388.6479,-548.535 380.8013,-552.4581 380.8013,-552.4581"/>
<ellipse fill="none" stroke="#000000" cx="377.6039" cy="-552.5885" rx="3.2" ry="3.2"/>
</g>
<!-- ProfessorCompetencyAssignments&#45;&gt;AspNetUsers -->
<g id="edge22" class="edge">
<title>ProfessorCompetencyAssignments:w&#45;&gt;AspNetUsers:e</title>
<path fill="none" stroke="#000000" d="M374.2383,-561.8729C292.3589,-566.5201 193.7558,-570.9401 130.2608,-572.6158"/>
<polygon fill="#000000" stroke="#000000" points="380.8079,-561.4943 389.0018,-564.628 384.8012,-561.2642 388.7946,-561.034 388.7946,-561.034 388.7946,-561.034 384.8012,-561.2642 388.5874,-557.4399 380.8079,-561.4943 380.8079,-561.4943"/>
<ellipse fill="none" stroke="#000000" cx="377.6132" cy="-561.6785" rx="3.2" ry="3.2"/>
</g>
<!-- ProfessorCompetencyAssignments&#45;&gt;Competencies -->
<g id="edge17" class="edge">
<title>ProfessorCompetencyAssignments:w&#45;&gt;Competencies:e</title>
<path fill="none" stroke="#000000" d="M468.1868,-594.2788C443.8009,-616.4773 414.3161,-644.0807 389,-669.9657 356.9734,-702.7121 366.3042,-746.9657 320.5,-746.9657"/>
<polygon fill="#000000" stroke="#000000" points="473.0696,-589.8561 481.4157,-587.1537 476.0343,-587.1708 478.999,-584.4855 478.999,-584.4855 478.999,-584.4855 476.0343,-587.1708 476.5822,-581.8173 473.0696,-589.8561 473.0696,-589.8561"/>
<ellipse fill="none" stroke="#000000" cx="470.6979" cy="-592.0043" rx="3.2" ry="3.2"/>
</g>
<!-- ProfessorCompetencyAssignments&#45;&gt;TechnicalCareers -->
<g id="edge21" class="edge">
<title>ProfessorCompetencyAssignments:w&#45;&gt;TechnicalCareers:e</title>
<path fill="none" stroke="#000000" d="M486.939,-503.1167C460.4279,-462.8231 421.5415,-402.9872 389,-349.9657 361.5473,-305.2358 381.9826,-247.9657 329.5,-247.9657"/>
<polygon fill="#000000" stroke="#000000" points="490.5153,-508.5423 491.9124,-517.2031 492.7168,-511.8821 494.9182,-515.2218 494.9182,-515.2218 494.9182,-515.2218 492.7168,-511.8821 497.9239,-513.2406 490.5153,-508.5423 490.5153,-508.5423"/>
<ellipse fill="none" stroke="#000000" cx="488.7542" cy="-505.8706" rx="3.2" ry="3.2"/>
</g>
<!-- ProfessorCompetencyAssignments&#45;&gt;EvaluationPeriods -->
<g id="edge19" class="edge">
<title>ProfessorCompetencyAssignments:w&#45;&gt;EvaluationPeriods:e</title>
<path fill="none" stroke="#000000" d="M386.8949,-512.8686C368.4389,-509.8704 349.5937,-507.9657 331.5,-507.9657"/>
<polygon fill="#000000" stroke="#000000" points="393.3748,-514.0229 400.6194,-518.9703 397.3128,-514.7245 401.2508,-515.4261 401.2508,-515.4261 401.2508,-515.4261 397.3128,-514.7245 401.8822,-511.8819 393.3748,-514.0229 393.3748,-514.0229"/>
<ellipse fill="none" stroke="#000000" cx="390.2244" cy="-513.4617" rx="3.2" ry="3.2"/>
</g>
<!-- Professors -->
<g id="node13" class="node">
<title>Professors</title>
<g id="a_node13"><a xlink:href="../../tables/Professors.html" xlink:title="Professors" target="_top">
<polygon fill="#ffffff" stroke="transparent" points="171,-368.9657 171,-458.9657 348,-458.9657 348,-368.9657 171,-368.9657"/>
<polygon fill="#f5f5f5" stroke="transparent" points="173.5,-433.9657 173.5,-456.9657 346.5,-456.9657 346.5,-433.9657 173.5,-433.9657"/>
<polygon fill="none" stroke="#000000" points="173.5,-433.9657 173.5,-456.9657 346.5,-456.9657 346.5,-433.9657 173.5,-433.9657"/>
<text text-anchor="start" x="178.5" y="-442.5657" font-family="Helvetica,sans-Serif" font-weight="bold" font-size="11.00" fill="#000000">Professors</text>
<text text-anchor="start" x="311.5437" y="-442.0657" font-family="Helvetica,sans-Serif" font-size="11.00" fill="#000000">[table]</text>
<polygon fill="none" stroke="#000000" points="173.5,-411.9657 173.5,-433.9657 256.5,-433.9657 256.5,-411.9657 173.5,-411.9657"/>
<image xlink:href="../../images/primaryKeys.png" width="11px" height="12px" preserveAspectRatio="xMinYMin meet" x="178.5" y="-428.966"/>
<text text-anchor="start" x="193.5" y="-419.0657" font-family="Helvetica,sans-Serif" font-size="11.00" fill="#000000">UserId</text>
<polygon fill="none" stroke="#000000" points="256.5,-411.9657 256.5,-433.9657 346.5,-433.9657 346.5,-411.9657 256.5,-411.9657"/>
<text text-anchor="start" x="259.0043" y="-419.6657" font-family="Helvetica,sans-Serif" font-size="11.00" fill="#000000">text[2147483647]</text>
<polygon fill="none" stroke="#000000" points="173.5,-389.9657 173.5,-411.9657 256.5,-411.9657 256.5,-389.9657 173.5,-389.9657"/>
<text text-anchor="start" x="193.5" y="-397.0657" font-family="Helvetica,sans-Serif" font-size="11.00" fill="#000000">Phone</text>
<polygon fill="none" stroke="#000000" points="256.5,-389.9657 256.5,-411.9657 346.5,-411.9657 346.5,-389.9657 256.5,-389.9657"/>
<text text-anchor="start" x="259.0043" y="-397.6657" font-family="Helvetica,sans-Serif" font-size="11.00" fill="#000000">text[2147483647]</text>
<polygon fill="#ffffff" stroke="transparent" points="173.5,-370.9657 173.5,-389.9657 206.5,-389.9657 206.5,-370.9657 173.5,-370.9657"/>
<polygon fill="none" stroke="#000000" points="173.5,-370.9657 173.5,-389.9657 206.5,-389.9657 206.5,-370.9657 173.5,-370.9657"/>
<text text-anchor="start" x="176.5" y="-377.0657" font-family="Helvetica,sans-Serif" font-size="11.00" fill="#000000">&lt; 1</text>
<polygon fill="#ffffff" stroke="transparent" points="206.5,-370.9657 206.5,-389.9657 256.5,-389.9657 256.5,-370.9657 206.5,-370.9657"/>
<polygon fill="none" stroke="#000000" points="206.5,-370.9657 206.5,-389.9657 256.5,-389.9657 256.5,-370.9657 206.5,-370.9657"/>
<text text-anchor="start" x="221.1105" y="-377.0657" font-family="Helvetica,sans-Serif" font-size="11.00" fill="#000000">0 rows</text>
<polygon fill="#ffffff" stroke="transparent" points="256.5,-370.9657 256.5,-389.9657 346.5,-389.9657 346.5,-370.9657 256.5,-370.9657"/>
<polygon fill="none" stroke="#000000" points="256.5,-370.9657 256.5,-389.9657 346.5,-389.9657 346.5,-370.9657 256.5,-370.9657"/>
<text text-anchor="start" x="327.9053" y="-377.0657" font-family="Helvetica,sans-Serif" font-size="11.00" fill="#000000">2 &gt;</text>
<polygon fill="none" stroke="#000000" stroke-width="2" points="172,-369.9657 172,-457.9657 347,-457.9657 347,-369.9657 172,-369.9657"/>
</a>
</g>
</g>
<!-- ProfessorCompetencyAssignments&#45;&gt;Professors -->
<g id="edge20" class="edge">
<title>ProfessorCompetencyAssignments:w&#45;&gt;Professors:e</title>
<path fill="none" stroke="#000000" d="M483.7161,-503.824C452.4495,-467.4992 402.6644,-422.9657 346.5,-422.9657"/>
<polygon fill="#000000" stroke="#000000" points="488.0948,-509.1043 490.4303,-517.5604 490.6481,-512.1834 493.2015,-515.2624 493.2015,-515.2624 493.2015,-515.2624 490.6481,-512.1834 495.9726,-512.9644 488.0948,-509.1043 488.0948,-509.1043"/>
<ellipse fill="none" stroke="#000000" cx="486.0522" cy="-506.641" rx="3.2" ry="3.2"/>
</g>
<!-- Professors&#45;&gt;AspNetUsers -->
<g id="edge23" class="edge">
<title>Professors:w&#45;&gt;AspNetUsers:e</title>
<path fill="none" stroke="#000000" d="M162.9336,-423.8175C113.3621,-431.9343 86.1565,-496.2285 73.6649,-537.4076"/>
<polygon fill="#000000" stroke="#000000" points="172.3812,-419.0429 173.024,-427.0171 171.4292,-427.1457 170.7863,-419.1715 172.3812,-419.0429"/>
<polyline fill="none" stroke="#000000" points="173.5,-422.9657 169.5129,-423.2872 "/>
<ellipse fill="none" stroke="#000000" cx="166.3233" cy="-423.5443" rx="3.2" ry="3.2"/>
</g>
<!-- QuestionResponses -->
<g id="node14" class="node">
<title>QuestionResponses</title>
<g id="a_node14"><a xlink:href="../../tables/QuestionResponses.html" xlink:title="QuestionResponses" target="_top">
<polygon fill="#ffffff" stroke="transparent" points="960,-622.4657 960,-683.4657 1115,-683.4657 1115,-622.4657 960,-622.4657"/>
<polygon fill="#f5f5f5" stroke="transparent" points="960.5,-659.9657 960.5,-682.9657 1115.5,-682.9657 1115.5,-659.9657 960.5,-659.9657"/>
<polygon fill="none" stroke="#000000" points="960.5,-659.9657 960.5,-682.9657 1115.5,-682.9657 1115.5,-659.9657 960.5,-659.9657"/>
<text text-anchor="start" x="965.5" y="-668.5657" font-family="Helvetica,sans-Serif" font-weight="bold" font-size="11.00" fill="#000000">QuestionResponses</text>
<text text-anchor="start" x="1081.0219" y="-668.0657" font-family="Helvetica,sans-Serif" font-size="11.00" fill="#000000">[table]</text>
<polygon fill="none" stroke="#000000" points="960.5,-640.9657 960.5,-659.9657 1115.5,-659.9657 1115.5,-640.9657 960.5,-640.9657"/>
<text text-anchor="start" x="963.5" y="-647.0657" font-family="Helvetica,sans-Serif" font-size="11.00" fill="#000000">...</text>
<polygon fill="#ffffff" stroke="transparent" points="960.5,-621.9657 960.5,-640.9657 1023.5,-640.9657 1023.5,-621.9657 960.5,-621.9657"/>
<polygon fill="none" stroke="#000000" points="960.5,-621.9657 960.5,-640.9657 1023.5,-640.9657 1023.5,-621.9657 960.5,-621.9657"/>
<text text-anchor="start" x="963.5" y="-628.0657" font-family="Helvetica,sans-Serif" font-size="11.00" fill="#000000">&lt; 4</text>
<polygon fill="#ffffff" stroke="transparent" points="1023.5,-621.9657 1023.5,-640.9657 1082.5,-640.9657 1082.5,-621.9657 1023.5,-621.9657"/>
<polygon fill="none" stroke="#000000" points="1023.5,-621.9657 1023.5,-640.9657 1082.5,-640.9657 1082.5,-621.9657 1023.5,-621.9657"/>
<text text-anchor="start" x="1047.1105" y="-628.0657" font-family="Helvetica,sans-Serif" font-size="11.00" fill="#000000">0 rows</text>
<polygon fill="#ffffff" stroke="transparent" points="1082.5,-621.9657 1082.5,-640.9657 1115.5,-640.9657 1115.5,-621.9657 1082.5,-621.9657"/>
<polygon fill="none" stroke="#000000" points="1082.5,-621.9657 1082.5,-640.9657 1115.5,-640.9657 1115.5,-621.9657 1082.5,-621.9657"/>
<text text-anchor="start" x="1106.3862" y="-628.0657" font-family="Helvetica,sans-Serif" font-size="11.00" fill="#000000"> &#160;</text>
</a>
</g>
</g>
<!-- QuestionResponses&#45;&gt;AspNetUsers -->
<g id="edge24" class="edge">
<title>QuestionResponses:w&#45;&gt;AspNetUsers:e</title>
<path fill="none" stroke="#000000" d="M946.0797,-649.7285C602.7858,-644.2326 508.2084,-653.3855 163,-593.9657 152.2755,-592.1197 141.0479,-589.5447 130.1779,-586.7807"/>
<polygon fill="#000000" stroke="#000000" points="952.5011,-649.8341 960.4408,-653.5652 956.5005,-649.8999 960.5,-649.9657 960.5,-649.9657 960.5,-649.9657 956.5005,-649.8999 960.5592,-646.3662 952.5011,-649.8341 952.5011,-649.8341"/>
<ellipse fill="none" stroke="#000000" cx="949.3015" cy="-649.7814" rx="3.2" ry="3.2"/>
</g>
<!-- QuestionResponses&#45;&gt;AspNetUsers -->
<g id="edge27" class="edge">
<title>QuestionResponses:w&#45;&gt;AspNetUsers:e</title>
<path fill="none" stroke="#000000" d="M946.0797,-650.2545C602.7858,-657.2326 508.2084,-666.3855 163,-606.9657 152.2755,-605.1197 141.0479,-602.5447 130.1779,-599.6005"/>
<polygon fill="#000000" stroke="#000000" points="952.5016,-650.1259 960.5721,-653.565 956.5008,-650.0458 960.5,-649.9657 960.5,-649.9657 960.5,-649.9657 956.5008,-650.0458 960.4279,-646.3664 952.5016,-650.1259 952.5016,-650.1259"/>
<ellipse fill="none" stroke="#000000" cx="949.3022" cy="-650.19" rx="3.2" ry="3.2"/>
</g>
<!-- QuestionResponses&#45;&gt;FormQuestions -->
<g id="edge25" class="edge">
<title>QuestionResponses:w&#45;&gt;FormQuestions:e</title>
<path fill="none" stroke="#000000" d="M946.2669,-652.5845C937.6302,-656.1908 932.331,-662.6187 919,-665.9657 772.607,-702.7206 732.9365,-707.9657 582,-707.9657"/>
<polygon fill="#000000" stroke="#000000" points="952.6321,-651.4134 961.1515,-653.5063 956.566,-650.6896 960.5,-649.9657 960.5,-649.9657 960.5,-649.9657 956.566,-650.6896 959.8485,-646.4252 952.6321,-651.4134 952.6321,-651.4134"/>
<ellipse fill="none" stroke="#000000" cx="949.4849" cy="-651.9925" rx="3.2" ry="3.2"/>
</g>
<!-- StudentCompetencyEvaluations -->
<g id="node15" class="node">
<title>StudentCompetencyEvaluations</title>
<g id="a_node15"><a xlink:href="../../tables/StudentCompetencyEvaluations.html" xlink:title="StudentCompetencyEvaluations" target="_top">
<polygon fill="#ffffff" stroke="transparent" points="688,-558.4657 688,-619.4657 911,-619.4657 911,-558.4657 688,-558.4657"/>
<polygon fill="#f5f5f5" stroke="transparent" points="688.5,-595.9657 688.5,-618.9657 911.5,-618.9657 911.5,-595.9657 688.5,-595.9657"/>
<polygon fill="none" stroke="#000000" points="688.5,-595.9657 688.5,-618.9657 911.5,-618.9657 911.5,-595.9657 688.5,-595.9657"/>
<text text-anchor="start" x="693.5" y="-604.5657" font-family="Helvetica,sans-Serif" font-weight="bold" font-size="11.00" fill="#000000">StudentCompetencyEvaluations</text>
<text text-anchor="start" x="877.0219" y="-604.0657" font-family="Helvetica,sans-Serif" font-size="11.00" fill="#000000">[table]</text>
<polygon fill="none" stroke="#000000" points="688.5,-576.9657 688.5,-595.9657 911.5,-595.9657 911.5,-576.9657 688.5,-576.9657"/>
<text text-anchor="start" x="691.5" y="-583.0657" font-family="Helvetica,sans-Serif" font-size="11.00" fill="#000000">...</text>
<polygon fill="#ffffff" stroke="transparent" points="688.5,-557.9657 688.5,-576.9657 780.5,-576.9657 780.5,-557.9657 688.5,-557.9657"/>
<polygon fill="none" stroke="#000000" points="688.5,-557.9657 688.5,-576.9657 780.5,-576.9657 780.5,-557.9657 688.5,-557.9657"/>
<text text-anchor="start" x="691.5" y="-564.0657" font-family="Helvetica,sans-Serif" font-size="11.00" fill="#000000">&lt; 4</text>
<polygon fill="#ffffff" stroke="transparent" points="780.5,-557.9657 780.5,-576.9657 854.5,-576.9657 854.5,-557.9657 780.5,-557.9657"/>
<polygon fill="none" stroke="#000000" points="780.5,-557.9657 780.5,-576.9657 854.5,-576.9657 854.5,-557.9657 780.5,-557.9657"/>
<text text-anchor="start" x="819.1105" y="-564.0657" font-family="Helvetica,sans-Serif" font-size="11.00" fill="#000000">0 rows</text>
<polygon fill="#ffffff" stroke="transparent" points="854.5,-557.9657 854.5,-576.9657 911.5,-576.9657 911.5,-557.9657 854.5,-557.9657"/>
<polygon fill="none" stroke="#000000" points="854.5,-557.9657 854.5,-576.9657 911.5,-576.9657 911.5,-557.9657 854.5,-557.9657"/>
<text text-anchor="start" x="892.9053" y="-564.0657" font-family="Helvetica,sans-Serif" font-size="11.00" fill="#000000">1 &gt;</text>
</a>
</g>
</g>
<!-- QuestionResponses&#45;&gt;StudentCompetencyEvaluations -->
<g id="edge26" class="edge">
<title>QuestionResponses:w&#45;&gt;StudentCompetencyEvaluations:e</title>
<path fill="none" stroke="#000000" d="M946.6165,-644.9438C930.7339,-629.8564 941.1667,-585.9657 911.5,-585.9657"/>
<polygon fill="#000000" stroke="#000000" points="952.977,-647.2445 959.2754,-653.3511 956.7385,-648.6051 960.5,-649.9657 960.5,-649.9657 960.5,-649.9657 956.7385,-648.6051 961.7246,-646.5804 952.977,-647.2445 952.977,-647.2445"/>
<ellipse fill="none" stroke="#000000" cx="949.9678" cy="-646.156" rx="3.2" ry="3.2"/>
</g>
<!-- StudentCompetencyEvaluations&#45;&gt;AspNetUsers -->
<g id="edge28" class="edge">
<title>StudentCompetencyEvaluations:w&#45;&gt;AspNetUsers:e</title>
<path fill="none" stroke="#000000" d="M674.3778,-582.8509C665.8026,-582.1242 659.7493,-584.2005 647,-584.9657 432.1979,-597.859 377.8104,-584.7197 163,-571.9657 152.3651,-571.3343 141.0818,-570.6536 130.1006,-570.0725"/>
<polygon fill="#000000" stroke="#000000" points="680.6878,-584.2426 687.7246,-589.4812 684.5939,-585.1042 688.5,-585.9657 688.5,-585.9657 688.5,-585.9657 684.5939,-585.1042 689.2754,-582.4502 680.6878,-584.2426 680.6878,-584.2426"/>
<ellipse fill="none" stroke="#000000" cx="677.5629" cy="-583.5534" rx="3.2" ry="3.2"/>
</g>
<!-- StudentCompetencyEvaluations&#45;&gt;AspNetUsers -->
<g id="edge31" class="edge">
<title>StudentCompetencyEvaluations:w&#45;&gt;AspNetUsers:e</title>
<path fill="none" stroke="#000000" d="M674.9665,-591.3859C666.0743,-595.0291 660.0391,-597.1831 647,-597.9657 432.1979,-610.859 377.8104,-597.7197 163,-584.9657 152.3651,-584.3343 141.0818,-583.6536 130.1006,-582.8834"/>
<polygon fill="#000000" stroke="#000000" points="681.0735,-588.9401 689.8385,-589.3077 684.7867,-587.4529 688.5,-585.9657 688.5,-585.9657 688.5,-585.9657 684.7867,-587.4529 687.1615,-582.6238 681.0735,-588.9401 681.0735,-588.9401"/>
<ellipse fill="none" stroke="#000000" cx="678.1028" cy="-590.1298" rx="3.2" ry="3.2"/>
</g>
<!-- StudentCompetencyEvaluations&#45;&gt;ProfessorCompetencyAssignments -->
<g id="edge29" class="edge">
<title>StudentCompetencyEvaluations:w&#45;&gt;ProfessorCompetencyAssignments:e</title>
<path fill="none" stroke="#000000" d="M673.8293,-585.5618C665.0349,-585.0922 656.1311,-584.232 647.2681,-583.0806"/>
<polygon fill="#000000" stroke="#000000" points="680.503,-585.7455 688.4009,-589.5644 684.5015,-585.8556 688.5,-585.9657 688.5,-585.9657 688.5,-585.9657 684.5015,-585.8556 688.5991,-582.3671 680.503,-585.7455 680.503,-585.7455"/>
<ellipse fill="none" stroke="#000000" cx="677.3042" cy="-585.6574" rx="3.2" ry="3.2"/>
</g>
<!-- Students -->
<g id="node16" class="node">
<title>Students</title>
<g id="a_node16"><a xlink:href="../../tables/Students.html" xlink:title="Students" target="_top">
<polygon fill="#ffffff" stroke="transparent" points="473,-278.4657 473,-339.4657 563,-339.4657 563,-278.4657 473,-278.4657"/>
<polygon fill="#f5f5f5" stroke="transparent" points="473,-315.9657 473,-338.9657 563,-338.9657 563,-315.9657 473,-315.9657"/>
<polygon fill="none" stroke="#000000" points="473,-315.9657 473,-338.9657 563,-338.9657 563,-315.9657 473,-315.9657"/>
<text text-anchor="start" x="478" y="-324.5657" font-family="Helvetica,sans-Serif" font-weight="bold" font-size="11.00" fill="#000000">Students</text>
<text text-anchor="start" x="528.5219" y="-324.0657" font-family="Helvetica,sans-Serif" font-size="11.00" fill="#000000">[table]</text>
<polygon fill="none" stroke="#000000" points="473,-296.9657 473,-315.9657 563,-315.9657 563,-296.9657 473,-296.9657"/>
<text text-anchor="start" x="476" y="-303.0657" font-family="Helvetica,sans-Serif" font-size="11.00" fill="#000000">...</text>
<polygon fill="#ffffff" stroke="transparent" points="473,-277.9657 473,-296.9657 499,-296.9657 499,-277.9657 473,-277.9657"/>
<polygon fill="none" stroke="#000000" points="473,-277.9657 473,-296.9657 499,-296.9657 499,-277.9657 473,-277.9657"/>
<text text-anchor="start" x="476" y="-284.0657" font-family="Helvetica,sans-Serif" font-size="11.00" fill="#000000">&lt; 2</text>
<polygon fill="#ffffff" stroke="transparent" points="499,-277.9657 499,-296.9657 539,-296.9657 539,-277.9657 499,-277.9657"/>
<polygon fill="none" stroke="#000000" points="499,-277.9657 499,-296.9657 539,-296.9657 539,-277.9657 499,-277.9657"/>
<text text-anchor="start" x="503.6105" y="-284.0657" font-family="Helvetica,sans-Serif" font-size="11.00" fill="#000000">0 rows</text>
<polygon fill="#ffffff" stroke="transparent" points="539,-277.9657 539,-296.9657 563,-296.9657 563,-277.9657 539,-277.9657"/>
<polygon fill="none" stroke="#000000" points="539,-277.9657 539,-296.9657 563,-296.9657 563,-277.9657 539,-277.9657"/>
<text text-anchor="start" x="544.4053" y="-284.0657" font-family="Helvetica,sans-Serif" font-size="11.00" fill="#000000">3 &gt;</text>
</a>
</g>
</g>
<!-- StudentCompetencyEvaluations&#45;&gt;Students -->
<g id="edge30" class="edge">
<title>StudentCompetencyEvaluations:w&#45;&gt;Students:e</title>
<path fill="none" stroke="#000000" d="M679.3002,-574.6426C650.4062,-522.2591 577.9824,-305.9657 563,-305.9657"/>
<polygon fill="#000000" stroke="#000000" points="683.4553,-579.7567 685.706,-588.2358 685.9777,-582.8612 688.5,-585.9657 688.5,-585.9657 688.5,-585.9657 685.9777,-582.8612 691.294,-583.6956 683.4553,-579.7567 683.4553,-579.7567"/>
<ellipse fill="none" stroke="#000000" cx="681.4374" cy="-577.2732" rx="3.2" ry="3.2"/>
</g>
<!-- Students&#45;&gt;AspNetUsers -->
<g id="edge37" class="edge">
<title>Students:w&#45;&gt;AspNetUsers:e</title>
<path fill="none" stroke="#000000" d="M462.558,-305.8206C386.941,-303.9135 216.3156,-284.474 163,-322.9657 93.1291,-373.4097 73.0607,-481.489 67.3064,-537.1913"/>
<polygon fill="#000000" stroke="#000000" points="472.2557,-301.955 472.1444,-309.9542 470.5446,-309.932 470.6559,-301.9327 472.2557,-301.955"/>
<polyline fill="none" stroke="#000000" points="473,-305.9657 469.0004,-305.9101 "/>
<ellipse fill="none" stroke="#000000" cx="465.8007" cy="-305.8656" rx="3.2" ry="3.2"/>
</g>
<!-- Students&#45;&gt;TechnicalCareers -->
<g id="edge36" class="edge">
<title>Students:w&#45;&gt;TechnicalCareers:e</title>
<path fill="none" stroke="#000000" d="M458.6224,-303.5474C420.8297,-292.5704 359.6629,-247.9657 329.5,-247.9657"/>
<polygon fill="#000000" stroke="#000000" points="465.1108,-304.6387 472.4028,-309.5159 469.0554,-305.3022 473,-305.9657 473,-305.9657 473,-305.9657 469.0554,-305.3022 473.5972,-302.4156 465.1108,-304.6387 465.1108,-304.6387"/>
<ellipse fill="none" stroke="#000000" cx="461.9552" cy="-304.1079" rx="3.2" ry="3.2"/>
</g>
<!-- StudentEvaluationReport -->
<g id="node17" class="node">
<title>StudentEvaluationReport</title>
<g id="a_node17"><a xlink:href="../../tables/StudentEvaluationReport.html" xlink:title="StudentEvaluationReport" target="_top">
<polygon fill="#ffffff" stroke="transparent" points="708,-342.4657 708,-403.4657 891,-403.4657 891,-342.4657 708,-342.4657"/>
<polygon fill="#f5f5f5" stroke="transparent" points="708.5,-379.9657 708.5,-402.9657 891.5,-402.9657 891.5,-379.9657 708.5,-379.9657"/>
<polygon fill="none" stroke="#000000" points="708.5,-379.9657 708.5,-402.9657 891.5,-402.9657 891.5,-379.9657 708.5,-379.9657"/>
<text text-anchor="start" x="713.5" y="-388.5657" font-family="Helvetica,sans-Serif" font-weight="bold" font-size="11.00" fill="#000000">StudentEvaluationReport</text>
<text text-anchor="start" x="857.0219" y="-388.0657" font-family="Helvetica,sans-Serif" font-size="11.00" fill="#000000">[table]</text>
<polygon fill="none" stroke="#000000" points="708.5,-360.9657 708.5,-379.9657 891.5,-379.9657 891.5,-360.9657 708.5,-360.9657"/>
<text text-anchor="start" x="711.5" y="-367.0657" font-family="Helvetica,sans-Serif" font-size="11.00" fill="#000000">...</text>
<polygon fill="#ffffff" stroke="transparent" points="708.5,-341.9657 708.5,-360.9657 785.5,-360.9657 785.5,-341.9657 708.5,-341.9657"/>
<polygon fill="none" stroke="#000000" points="708.5,-341.9657 708.5,-360.9657 785.5,-360.9657 785.5,-341.9657 708.5,-341.9657"/>
<text text-anchor="start" x="711.5" y="-348.0657" font-family="Helvetica,sans-Serif" font-size="11.00" fill="#000000">&lt; 4</text>
<polygon fill="#ffffff" stroke="transparent" points="785.5,-341.9657 785.5,-360.9657 851.5,-360.9657 851.5,-341.9657 785.5,-341.9657"/>
<polygon fill="none" stroke="#000000" points="785.5,-341.9657 785.5,-360.9657 851.5,-360.9657 851.5,-341.9657 785.5,-341.9657"/>
<text text-anchor="start" x="816.1105" y="-348.0657" font-family="Helvetica,sans-Serif" font-size="11.00" fill="#000000">0 rows</text>
<polygon fill="#ffffff" stroke="transparent" points="851.5,-341.9657 851.5,-360.9657 891.5,-360.9657 891.5,-341.9657 851.5,-341.9657"/>
<polygon fill="none" stroke="#000000" points="851.5,-341.9657 851.5,-360.9657 891.5,-360.9657 891.5,-341.9657 851.5,-341.9657"/>
<text text-anchor="start" x="882.3862" y="-348.0657" font-family="Helvetica,sans-Serif" font-size="11.00" fill="#000000"> &#160;</text>
</a>
</g>
</g>
<!-- StudentEvaluationReport&#45;&gt;AspNetUsers -->
<g id="edge32" class="edge">
<title>StudentEvaluationReport:w&#45;&gt;AspNetUsers:e</title>
<path fill="none" stroke="#000000" d="M693.9853,-368.2348C606.2809,-359.9026 186.5663,-336.8379 163,-351.9657 99.3825,-392.8034 76.5335,-486.3755 68.7528,-537.402"/>
<polygon fill="#000000" stroke="#000000" points="700.5563,-369.0184 708.0737,-373.5404 704.5281,-369.4921 708.5,-369.9657 708.5,-369.9657 708.5,-369.9657 704.5281,-369.4921 708.9263,-366.3911 700.5563,-369.0184 700.5563,-369.0184"/>
<ellipse fill="none" stroke="#000000" cx="697.3788" cy="-368.6394" rx="3.2" ry="3.2"/>
</g>
<!-- StudentEvaluationReport&#45;&gt;AspNetUsers -->
<g id="edge35" class="edge">
<title>StudentEvaluationReport:w&#45;&gt;AspNetUsers:e</title>
<path fill="none" stroke="#000000" d="M693.9853,-370.985C606.2809,-372.9026 186.5663,-349.8379 163,-364.9657 102.9933,-403.4856 79.2585,-488.9237 70.2279,-537.2027"/>
<polygon fill="#000000" stroke="#000000" points="700.5197,-370.5262 708.7522,-373.5569 704.5098,-370.246 708.5,-369.9657 708.5,-369.9657 708.5,-369.9657 704.5098,-370.246 708.2478,-366.3746 700.5197,-370.5262 700.5197,-370.5262"/>
<ellipse fill="none" stroke="#000000" cx="697.3275" cy="-370.7504" rx="3.2" ry="3.2"/>
</g>
<!-- StudentEvaluationReport&#45;&gt;EvaluationPeriods -->
<g id="edge33" class="edge">
<title>StudentEvaluationReport:w&#45;&gt;EvaluationPeriods:e</title>
<path fill="none" stroke="#000000" d="M693.8244,-372.361C620.4106,-390.6859 372.6221,-507.9657 331.5,-507.9657"/>
<polygon fill="#000000" stroke="#000000" points="700.6045,-371.2544 709.0799,-373.5187 704.5522,-370.6101 708.5,-369.9657 708.5,-369.9657 708.5,-369.9657 704.5522,-370.6101 707.9201,-366.4127 700.6045,-371.2544 700.6045,-371.2544"/>
<ellipse fill="none" stroke="#000000" cx="697.4463" cy="-371.7699" rx="3.2" ry="3.2"/>
</g>
<!-- StudentEvaluationReport&#45;&gt;Students -->
<g id="edge34" class="edge">
<title>StudentEvaluationReport:w&#45;&gt;Students:e</title>
<path fill="none" stroke="#000000" d="M693.8138,-368.9604C636.8634,-360.8183 628.4028,-305.9657 563,-305.9657"/>
<polygon fill="#000000" stroke="#000000" points="700.5187,-369.4193 708.2541,-373.5573 704.5093,-369.6925 708.5,-369.9657 708.5,-369.9657 708.5,-369.9657 704.5093,-369.6925 708.7459,-366.3741 700.5187,-369.4193 700.5187,-369.4193"/>
<ellipse fill="none" stroke="#000000" cx="697.3261" cy="-369.2008" rx="3.2" ry="3.2"/>
</g>
<!-- StudentSubjects -->
<g id="node18" class="node">
<title>StudentSubjects</title>
<g id="a_node18"><a xlink:href="../../tables/StudentSubjects.html" xlink:title="StudentSubjects" target="_top">
<polygon fill="#ffffff" stroke="transparent" points="733,-128.4657 733,-189.4657 866,-189.4657 866,-128.4657 733,-128.4657"/>
<polygon fill="#f5f5f5" stroke="transparent" points="733.5,-165.9657 733.5,-188.9657 866.5,-188.9657 866.5,-165.9657 733.5,-165.9657"/>
<polygon fill="none" stroke="#000000" points="733.5,-165.9657 733.5,-188.9657 866.5,-188.9657 866.5,-165.9657 733.5,-165.9657"/>
<text text-anchor="start" x="738.5" y="-174.5657" font-family="Helvetica,sans-Serif" font-weight="bold" font-size="11.00" fill="#000000">StudentSubjects</text>
<text text-anchor="start" x="832.0219" y="-174.0657" font-family="Helvetica,sans-Serif" font-size="11.00" fill="#000000">[table]</text>
<polygon fill="none" stroke="#000000" points="733.5,-146.9657 733.5,-165.9657 866.5,-165.9657 866.5,-146.9657 733.5,-146.9657"/>
<text text-anchor="start" x="736.5" y="-153.0657" font-family="Helvetica,sans-Serif" font-size="11.00" fill="#000000">...</text>
<polygon fill="#ffffff" stroke="transparent" points="733.5,-127.9657 733.5,-146.9657 785.5,-146.9657 785.5,-127.9657 733.5,-127.9657"/>
<polygon fill="none" stroke="#000000" points="733.5,-127.9657 733.5,-146.9657 785.5,-146.9657 785.5,-127.9657 733.5,-127.9657"/>
<text text-anchor="start" x="736.5" y="-134.0657" font-family="Helvetica,sans-Serif" font-size="11.00" fill="#000000">&lt; 4</text>
<polygon fill="#ffffff" stroke="transparent" points="785.5,-127.9657 785.5,-146.9657 838.5,-146.9657 838.5,-127.9657 785.5,-127.9657"/>
<polygon fill="none" stroke="#000000" points="785.5,-127.9657 785.5,-146.9657 838.5,-146.9657 838.5,-127.9657 785.5,-127.9657"/>
<text text-anchor="start" x="803.1105" y="-134.0657" font-family="Helvetica,sans-Serif" font-size="11.00" fill="#000000">0 rows</text>
<polygon fill="#ffffff" stroke="transparent" points="838.5,-127.9657 838.5,-146.9657 866.5,-146.9657 866.5,-127.9657 838.5,-127.9657"/>
<polygon fill="none" stroke="#000000" points="838.5,-127.9657 838.5,-146.9657 866.5,-146.9657 866.5,-127.9657 838.5,-127.9657"/>
<text text-anchor="start" x="857.3862" y="-134.0657" font-family="Helvetica,sans-Serif" font-size="11.00" fill="#000000"> &#160;</text>
</a>
</g>
</g>
<!-- StudentSubjects&#45;&gt;AspNetUsers -->
<g id="edge38" class="edge">
<title>StudentSubjects:w&#45;&gt;AspNetUsers:e</title>
<path fill="none" stroke="#000000" d="M719.4965,-152.5551C688.3986,-140.9736 685.1584,-108.5525 647,-97.9657 439.4198,-40.3744 323.012,20.2649 163,-123.9657 101.6251,-179.2874 74.9607,-441.8749 67.3905,-537.2863"/>
<polygon fill="#000000" stroke="#000000" points="725.7272,-154.0726 732.6481,-159.4635 729.6136,-155.0192 733.5,-155.9657 733.5,-155.9657 733.5,-155.9657 729.6136,-155.0192 734.3519,-152.468 725.7272,-154.0726 725.7272,-154.0726"/>
<ellipse fill="none" stroke="#000000" cx="722.6181" cy="-153.3153" rx="3.2" ry="3.2"/>
</g>
<!-- StudentSubjects&#45;&gt;AspNetUsers -->
<g id="edge41" class="edge">
<title>StudentSubjects:w&#45;&gt;AspNetUsers:e</title>
<path fill="none" stroke="#000000" d="M719.0853,-156.574C688.3693,-153.6871 684.9896,-121.5056 647,-110.9657 439.4198,-53.3744 323.012,7.2649 163,-136.9657 102.9387,-191.1034 76.118,-443.7294 67.9029,-537.1849"/>
<polygon fill="#000000" stroke="#000000" points="725.5071,-156.3031 733.6518,-159.5625 729.5036,-156.1344 733.5,-155.9657 733.5,-155.9657 733.5,-155.9657 729.5036,-156.1344 733.3482,-152.3689 725.5071,-156.3031 725.5071,-156.3031"/>
<ellipse fill="none" stroke="#000000" cx="722.31" cy="-156.438" rx="3.2" ry="3.2"/>
</g>
<!-- StudentSubjects&#45;&gt;Students -->
<g id="edge39" class="edge">
<title>StudentSubjects:w&#45;&gt;Students:e</title>
<path fill="none" stroke="#000000" d="M719.1446,-157.515C674.4733,-168.2603 692.0978,-232.3104 647,-267.9657 614.8568,-293.3789 603.9758,-305.9657 563,-305.9657"/>
<polygon fill="#000000" stroke="#000000" points="725.5462,-156.8242 733.8863,-159.5449 729.5231,-156.395 733.5,-155.9657 733.5,-155.9657 733.5,-155.9657 729.5231,-156.395 733.1137,-152.3865 725.5462,-156.8242 725.5462,-156.8242"/>
<ellipse fill="none" stroke="#000000" cx="722.3647" cy="-157.1676" rx="3.2" ry="3.2"/>
</g>
<!-- Subjects -->
<g id="node19" class="node">
<title>Subjects</title>
<g id="a_node19"><a xlink:href="../../tables/Subjects.html" xlink:title="Subjects" target="_top">
<polygon fill="#ffffff" stroke="transparent" points="473.5,-196.4657 473.5,-257.4657 562.5,-257.4657 562.5,-196.4657 473.5,-196.4657"/>
<polygon fill="#f5f5f5" stroke="transparent" points="474,-233.9657 474,-256.9657 563,-256.9657 563,-233.9657 474,-233.9657"/>
<polygon fill="none" stroke="#000000" points="474,-233.9657 474,-256.9657 563,-256.9657 563,-233.9657 474,-233.9657"/>
<text text-anchor="start" x="479" y="-242.5657" font-family="Helvetica,sans-Serif" font-weight="bold" font-size="11.00" fill="#000000">Subjects</text>
<text text-anchor="start" x="528.5219" y="-242.0657" font-family="Helvetica,sans-Serif" font-size="11.00" fill="#000000">[table]</text>
<polygon fill="none" stroke="#000000" points="474,-214.9657 474,-233.9657 563,-233.9657 563,-214.9657 474,-214.9657"/>
<text text-anchor="start" x="477" y="-221.0657" font-family="Helvetica,sans-Serif" font-size="11.00" fill="#000000">...</text>
<polygon fill="#ffffff" stroke="transparent" points="474,-195.9657 474,-214.9657 499,-214.9657 499,-195.9657 474,-195.9657"/>
<polygon fill="none" stroke="#000000" points="474,-195.9657 474,-214.9657 499,-214.9657 499,-195.9657 474,-195.9657"/>
<text text-anchor="start" x="477" y="-202.0657" font-family="Helvetica,sans-Serif" font-size="11.00" fill="#000000">&lt; 4</text>
<polygon fill="#ffffff" stroke="transparent" points="499,-195.9657 499,-214.9657 539,-214.9657 539,-195.9657 499,-195.9657"/>
<polygon fill="none" stroke="#000000" points="499,-195.9657 499,-214.9657 539,-214.9657 539,-195.9657 499,-195.9657"/>
<text text-anchor="start" x="503.6105" y="-202.0657" font-family="Helvetica,sans-Serif" font-size="11.00" fill="#000000">0 rows</text>
<polygon fill="#ffffff" stroke="transparent" points="539,-195.9657 539,-214.9657 563,-214.9657 563,-195.9657 539,-195.9657"/>
<polygon fill="none" stroke="#000000" points="539,-195.9657 539,-214.9657 563,-214.9657 563,-195.9657 539,-195.9657"/>
<text text-anchor="start" x="544.4053" y="-202.0657" font-family="Helvetica,sans-Serif" font-size="11.00" fill="#000000">1 &gt;</text>
</a>
</g>
</g>
<!-- StudentSubjects&#45;&gt;Subjects -->
<g id="edge40" class="edge">
<title>StudentSubjects:w&#45;&gt;Subjects:e</title>
<path fill="none" stroke="#000000" d="M718.9077,-156.8239C690.3439,-160.4499 680.4866,-174.8394 647,-185.9657 621.9114,-194.3017 593.9609,-203.2291 570.509,-210.6181"/>
<polygon fill="#000000" stroke="#000000" points="725.5138,-156.4355 733.7114,-159.5595 729.5069,-156.2006 733.5,-155.9657 733.5,-155.9657 733.5,-155.9657 729.5069,-156.2006 733.2886,-152.3719 725.5138,-156.4355 725.5138,-156.4355"/>
<ellipse fill="none" stroke="#000000" cx="722.3193" cy="-156.6233" rx="3.2" ry="3.2"/>
</g>
<!-- Subjects&#45;&gt;AspNetUsers -->
<g id="edge42" class="edge">
<title>Subjects:w&#45;&gt;AspNetUsers:e</title>
<path fill="none" stroke="#000000" d="M451.0485,-209.8527C360.8479,-191.7984 206.5602,-170.63 163,-203.9657 109.8075,-244.6728 78.8146,-453.7808 68.6969,-537.4185"/>
<polygon fill="#000000" stroke="#000000" points="457.3821,-211.1575 464.491,-216.2978 461.2998,-211.9647 465.2175,-212.7719 465.2175,-212.7719 465.2175,-212.7719 461.2998,-211.9647 465.9439,-209.2459 457.3821,-211.1575 457.3821,-211.1575"/>
<ellipse fill="none" stroke="#000000" cx="454.2479" cy="-210.5118" rx="3.2" ry="3.2"/>
</g>
<!-- Subjects&#45;&gt;AspNetUsers -->
<g id="edge45" class="edge">
<title>Subjects:w&#45;&gt;AspNetUsers:e</title>
<path fill="none" stroke="#000000" d="M450.7696,-218.4554C360.5303,-204.7549 206.5154,-183.6644 163,-216.9657 111.2294,-256.5846 80.4874,-455.7216 69.553,-537.2257"/>
<polygon fill="#000000" stroke="#000000" points="457.3094,-219.4551 464.6734,-224.2228 461.2634,-220.0596 465.2175,-220.6641 465.2175,-220.6641 465.2175,-220.6641 461.2634,-220.0596 465.7615,-217.1055 457.3094,-219.4551 457.3094,-219.4551"/>
<ellipse fill="none" stroke="#000000" cx="454.1461" cy="-218.9715" rx="3.2" ry="3.2"/>
</g>
<!-- Subjects&#45;&gt;TechnicalCareers -->
<g id="edge44" class="edge">
<title>Subjects:w&#45;&gt;TechnicalCareers:e</title>
<path fill="none" stroke="#000000" d="M451.0671,-238.0749C415.1334,-243.1142 370.0171,-247.9657 329.5,-247.9657"/>
<polygon fill="#000000" stroke="#000000" points="457.4443,-237.1463 465.8796,-239.5559 461.4025,-236.5699 465.3608,-235.9935 465.3608,-235.9935 465.3608,-235.9935 461.4025,-236.5699 464.842,-232.4311 457.4443,-237.1463 457.4443,-237.1463"/>
<ellipse fill="none" stroke="#000000" cx="454.2777" cy="-237.6074" rx="3.2" ry="3.2"/>
</g>
<!-- Subjects&#45;&gt;Professors -->
<g id="edge43" class="edge">
<title>Subjects:w&#45;&gt;Professors:e</title>
<path fill="none" stroke="#000000" d="M451.1807,-235.1091C428.7835,-240.9454 405.3705,-250.9249 389,-267.9657 339.5135,-319.4784 417.9316,-422.9657 346.5,-422.9657"/>
<polygon fill="#000000" stroke="#000000" points="457.4915,-233.6795 466.0892,-235.423 461.3927,-232.7957 465.2939,-231.912 465.2939,-231.912 465.2939,-231.912 461.3927,-232.7957 464.4985,-228.4009 457.4915,-233.6795 457.4915,-233.6795"/>
<ellipse fill="none" stroke="#000000" cx="454.3706" cy="-234.3865" rx="3.2" ry="3.2"/>
</g>
</g>
</svg>
