<?xml version="1.0" encoding="UTF-8" standalone="no"?>
<!DOCTYPE svg PUBLIC "-//W3C//DTD SVG 1.1//EN"
 "http://www.w3.org/Graphics/SVG/1.1/DTD/svg11.dtd">
<!-- Generated by graphviz version 2.40.1 (20161225.0304)
 -->
<!-- Title: twoDegreesRelationshipsDiagram Pages: 1 -->
<svg width="1394pt" height="1127pt"
 viewBox="0.00 0.00 1394.00 1127.27" xmlns="http://www.w3.org/2000/svg" xmlns:xlink="http://www.w3.org/1999/xlink">
<g id="graph0" class="graph" transform="scale(1 1) rotate(0) translate(4 1123.2743)">
<title>twoDegreesRelationshipsDiagram</title>
<polygon fill="#ffffff" stroke="transparent" points="-4,4 -4,-1123.2743 1390,-1123.2743 1390,4 -4,4"/>
<text text-anchor="middle" x="72.4936" y="-7.3" font-family="Helvetica,sans-Serif" font-size="11.00" fill="#000000">Generated by SchemaSpy</text>
<!-- AspNetUserClaims -->
<g id="node1" class="node">
<title>AspNetUserClaims</title>
<g id="a_node1"><a xlink:href="../../tables/AspNetUserClaims.html" xlink:title="AspNetUserClaims" target="_top">
<polygon fill="#ffffff" stroke="transparent" points="186,-1054.2743 186,-1115.2743 333,-1115.2743 333,-1054.2743 186,-1054.2743"/>
<polygon fill="#f5f5f5" stroke="transparent" points="186.5,-1091.7743 186.5,-1114.7743 333.5,-1114.7743 333.5,-1091.7743 186.5,-1091.7743"/>
<polygon fill="none" stroke="#000000" points="186.5,-1091.7743 186.5,-1114.7743 333.5,-1114.7743 333.5,-1091.7743 186.5,-1091.7743"/>
<text text-anchor="start" x="191.5" y="-1100.3743" font-family="Helvetica,sans-Serif" font-weight="bold" font-size="11.00" fill="#000000">AspNetUserClaims</text>
<text text-anchor="start" x="299.0219" y="-1099.8743" font-family="Helvetica,sans-Serif" font-size="11.00" fill="#000000">[table]</text>
<polygon fill="none" stroke="#000000" points="186.5,-1072.7743 186.5,-1091.7743 333.5,-1091.7743 333.5,-1072.7743 186.5,-1072.7743"/>
<text text-anchor="start" x="189.5" y="-1078.8743" font-family="Helvetica,sans-Serif" font-size="11.00" fill="#000000">...</text>
<polygon fill="#ffffff" stroke="transparent" points="186.5,-1053.7743 186.5,-1072.7743 245.5,-1072.7743 245.5,-1053.7743 186.5,-1053.7743"/>
<polygon fill="none" stroke="#000000" points="186.5,-1053.7743 186.5,-1072.7743 245.5,-1072.7743 245.5,-1053.7743 186.5,-1053.7743"/>
<text text-anchor="start" x="189.5" y="-1059.8743" font-family="Helvetica,sans-Serif" font-size="11.00" fill="#000000">&lt; 1</text>
<polygon fill="#ffffff" stroke="transparent" points="245.5,-1053.7743 245.5,-1072.7743 302.5,-1072.7743 302.5,-1053.7743 245.5,-1053.7743"/>
<polygon fill="none" stroke="#000000" points="245.5,-1053.7743 245.5,-1072.7743 302.5,-1072.7743 302.5,-1053.7743 245.5,-1053.7743"/>
<text text-anchor="start" x="267.1105" y="-1059.8743" font-family="Helvetica,sans-Serif" font-size="11.00" fill="#000000">0 rows</text>
<polygon fill="#ffffff" stroke="transparent" points="302.5,-1053.7743 302.5,-1072.7743 333.5,-1072.7743 333.5,-1053.7743 302.5,-1053.7743"/>
<polygon fill="none" stroke="#000000" points="302.5,-1053.7743 302.5,-1072.7743 333.5,-1072.7743 333.5,-1053.7743 302.5,-1053.7743"/>
<text text-anchor="start" x="324.3862" y="-1059.8743" font-family="Helvetica,sans-Serif" font-size="11.00" fill="#000000"> &#160;</text>
</a>
</g>
</g>
<!-- AspNetUsers -->
<g id="node2" class="node">
<title>AspNetUsers</title>
<g id="a_node2"><a xlink:href="../../tables/AspNetUsers.html" xlink:title="AspNetUsers" target="_top">
<polygon fill="#ffffff" stroke="transparent" points="8,-508.2743 8,-569.2743 122,-569.2743 122,-508.2743 8,-508.2743"/>
<polygon fill="#f5f5f5" stroke="transparent" points="8,-545.7743 8,-568.7743 122,-568.7743 122,-545.7743 8,-545.7743"/>
<polygon fill="none" stroke="#000000" points="8,-545.7743 8,-568.7743 122,-568.7743 122,-545.7743 8,-545.7743"/>
<text text-anchor="start" x="13" y="-554.3743" font-family="Helvetica,sans-Serif" font-weight="bold" font-size="11.00" fill="#000000">AspNetUsers</text>
<text text-anchor="start" x="87.5219" y="-553.8743" font-family="Helvetica,sans-Serif" font-size="11.00" fill="#000000">[table]</text>
<polygon fill="none" stroke="#000000" points="8,-526.7743 8,-545.7743 122,-545.7743 122,-526.7743 8,-526.7743"/>
<text text-anchor="start" x="11" y="-532.8743" font-family="Helvetica,sans-Serif" font-size="11.00" fill="#000000">...</text>
<polygon fill="#ffffff" stroke="transparent" points="8,-507.7743 8,-526.7743 41,-526.7743 41,-507.7743 8,-507.7743"/>
<polygon fill="none" stroke="#000000" points="8,-507.7743 8,-526.7743 41,-526.7743 41,-507.7743 8,-507.7743"/>
<text text-anchor="start" x="11" y="-513.8743" font-family="Helvetica,sans-Serif" font-size="11.00" fill="#000000"> &#160;</text>
<polygon fill="#ffffff" stroke="transparent" points="41,-507.7743 41,-526.7743 84,-526.7743 84,-507.7743 41,-507.7743"/>
<polygon fill="none" stroke="#000000" points="41,-507.7743 41,-526.7743 84,-526.7743 84,-507.7743 41,-507.7743"/>
<text text-anchor="start" x="54.1105" y="-513.8743" font-family="Helvetica,sans-Serif" font-size="11.00" fill="#000000">1 row</text>
<polygon fill="#ffffff" stroke="transparent" points="84,-507.7743 84,-526.7743 122,-526.7743 122,-507.7743 84,-507.7743"/>
<polygon fill="none" stroke="#000000" points="84,-507.7743 84,-526.7743 122,-526.7743 122,-507.7743 84,-507.7743"/>
<text text-anchor="start" x="97.2904" y="-513.8743" font-family="Helvetica,sans-Serif" font-size="11.00" fill="#000000">29 &gt;</text>
</a>
</g>
</g>
<!-- AspNetUserClaims&#45;&gt;AspNetUsers -->
<g id="edge1" class="edge">
<title>AspNetUserClaims:w&#45;&gt;AspNetUsers:e</title>
<path fill="none" stroke="#000000" d="M173.9866,-1074.6405C126.3196,-1021.2977 82.3121,-683.8162 69.0508,-573.5674"/>
<polygon fill="#000000" stroke="#000000" points="179.5501,-1077.8121 184.717,-1084.9018 183.025,-1079.7932 186.5,-1081.7743 186.5,-1081.7743 186.5,-1081.7743 183.025,-1079.7932 188.283,-1078.6468 179.5501,-1077.8121 179.5501,-1077.8121"/>
<ellipse fill="none" stroke="#000000" cx="176.7701" cy="-1076.2273" rx="3.2" ry="3.2"/>
</g>
<!-- AspNetUserLogins -->
<g id="node3" class="node">
<title>AspNetUserLogins</title>
<g id="a_node3"><a xlink:href="../../tables/AspNetUserLogins.html" xlink:title="AspNetUserLogins" target="_top">
<polygon fill="#ffffff" stroke="transparent" points="186,-972.2743 186,-1033.2743 333,-1033.2743 333,-972.2743 186,-972.2743"/>
<polygon fill="#f5f5f5" stroke="transparent" points="186.5,-1009.7743 186.5,-1032.7743 333.5,-1032.7743 333.5,-1009.7743 186.5,-1009.7743"/>
<polygon fill="none" stroke="#000000" points="186.5,-1009.7743 186.5,-1032.7743 333.5,-1032.7743 333.5,-1009.7743 186.5,-1009.7743"/>
<text text-anchor="start" x="191.5" y="-1018.3743" font-family="Helvetica,sans-Serif" font-weight="bold" font-size="11.00" fill="#000000">AspNetUserLogins</text>
<text text-anchor="start" x="299.0219" y="-1017.8743" font-family="Helvetica,sans-Serif" font-size="11.00" fill="#000000">[table]</text>
<polygon fill="none" stroke="#000000" points="186.5,-990.7743 186.5,-1009.7743 333.5,-1009.7743 333.5,-990.7743 186.5,-990.7743"/>
<text text-anchor="start" x="189.5" y="-996.8743" font-family="Helvetica,sans-Serif" font-size="11.00" fill="#000000">...</text>
<polygon fill="#ffffff" stroke="transparent" points="186.5,-971.7743 186.5,-990.7743 245.5,-990.7743 245.5,-971.7743 186.5,-971.7743"/>
<polygon fill="none" stroke="#000000" points="186.5,-971.7743 186.5,-990.7743 245.5,-990.7743 245.5,-971.7743 186.5,-971.7743"/>
<text text-anchor="start" x="189.5" y="-977.8743" font-family="Helvetica,sans-Serif" font-size="11.00" fill="#000000">&lt; 1</text>
<polygon fill="#ffffff" stroke="transparent" points="245.5,-971.7743 245.5,-990.7743 302.5,-990.7743 302.5,-971.7743 245.5,-971.7743"/>
<polygon fill="none" stroke="#000000" points="245.5,-971.7743 245.5,-990.7743 302.5,-990.7743 302.5,-971.7743 245.5,-971.7743"/>
<text text-anchor="start" x="267.1105" y="-977.8743" font-family="Helvetica,sans-Serif" font-size="11.00" fill="#000000">0 rows</text>
<polygon fill="#ffffff" stroke="transparent" points="302.5,-971.7743 302.5,-990.7743 333.5,-990.7743 333.5,-971.7743 302.5,-971.7743"/>
<polygon fill="none" stroke="#000000" points="302.5,-971.7743 302.5,-990.7743 333.5,-990.7743 333.5,-971.7743 302.5,-971.7743"/>
<text text-anchor="start" x="324.3862" y="-977.8743" font-family="Helvetica,sans-Serif" font-size="11.00" fill="#000000"> &#160;</text>
</a>
</g>
</g>
<!-- AspNetUserLogins&#45;&gt;AspNetUsers -->
<g id="edge2" class="edge">
<title>AspNetUserLogins:w&#45;&gt;AspNetUsers:e</title>
<path fill="none" stroke="#000000" d="M172.1162,-996.7992C95.5175,-964.3017 72.4306,-674.5626 66.6714,-573.4242"/>
<polygon fill="#000000" stroke="#000000" points="178.6658,-998.1539 185.7708,-1003.2997 182.5829,-998.9641 186.5,-999.7743 186.5,-999.7743 186.5,-999.7743 182.5829,-998.9641 187.2292,-996.2489 178.6658,-998.1539 178.6658,-998.1539"/>
<ellipse fill="none" stroke="#000000" cx="175.5321" cy="-997.5057" rx="3.2" ry="3.2"/>
</g>
<!-- AspNetUserRoles -->
<g id="node4" class="node">
<title>AspNetUserRoles</title>
<g id="a_node4"><a xlink:href="../../tables/AspNetUserRoles.html" xlink:title="AspNetUserRoles" target="_top">
<polygon fill="#ffffff" stroke="transparent" points="189.5,-890.2743 189.5,-951.2743 329.5,-951.2743 329.5,-890.2743 189.5,-890.2743"/>
<polygon fill="#f5f5f5" stroke="transparent" points="189.5,-927.7743 189.5,-950.7743 329.5,-950.7743 329.5,-927.7743 189.5,-927.7743"/>
<polygon fill="none" stroke="#000000" points="189.5,-927.7743 189.5,-950.7743 329.5,-950.7743 329.5,-927.7743 189.5,-927.7743"/>
<text text-anchor="start" x="194.5" y="-936.3743" font-family="Helvetica,sans-Serif" font-weight="bold" font-size="11.00" fill="#000000">AspNetUserRoles</text>
<text text-anchor="start" x="295.0219" y="-935.8743" font-family="Helvetica,sans-Serif" font-size="11.00" fill="#000000">[table]</text>
<polygon fill="none" stroke="#000000" points="189.5,-908.7743 189.5,-927.7743 329.5,-927.7743 329.5,-908.7743 189.5,-908.7743"/>
<text text-anchor="start" x="192.5" y="-914.8743" font-family="Helvetica,sans-Serif" font-size="11.00" fill="#000000">...</text>
<polygon fill="#ffffff" stroke="transparent" points="189.5,-889.7743 189.5,-908.7743 247.5,-908.7743 247.5,-889.7743 189.5,-889.7743"/>
<polygon fill="none" stroke="#000000" points="189.5,-889.7743 189.5,-908.7743 247.5,-908.7743 247.5,-889.7743 189.5,-889.7743"/>
<text text-anchor="start" x="192.5" y="-895.8743" font-family="Helvetica,sans-Serif" font-size="11.00" fill="#000000">&lt; 2</text>
<polygon fill="#ffffff" stroke="transparent" points="247.5,-889.7743 247.5,-908.7743 298.5,-908.7743 298.5,-889.7743 247.5,-889.7743"/>
<polygon fill="none" stroke="#000000" points="247.5,-889.7743 247.5,-908.7743 298.5,-908.7743 298.5,-889.7743 247.5,-889.7743"/>
<text text-anchor="start" x="268.6105" y="-895.8743" font-family="Helvetica,sans-Serif" font-size="11.00" fill="#000000">1 row</text>
<polygon fill="#ffffff" stroke="transparent" points="298.5,-889.7743 298.5,-908.7743 329.5,-908.7743 329.5,-889.7743 298.5,-889.7743"/>
<polygon fill="none" stroke="#000000" points="298.5,-889.7743 298.5,-908.7743 329.5,-908.7743 329.5,-889.7743 298.5,-889.7743"/>
<text text-anchor="start" x="320.3862" y="-895.8743" font-family="Helvetica,sans-Serif" font-size="11.00" fill="#000000"> &#160;</text>
</a>
</g>
</g>
<!-- AspNetUserRoles&#45;&gt;AspNetUsers -->
<g id="edge3" class="edge">
<title>AspNetUserRoles:w&#45;&gt;AspNetUsers:e</title>
<path fill="none" stroke="#000000" d="M175.1978,-914.3886C112.4235,-884.2199 79.4342,-660.5775 68.8518,-573.4127"/>
<polygon fill="#000000" stroke="#000000" points="181.7151,-915.9314 188.6707,-921.2775 185.6076,-916.8528 189.5,-917.7743 189.5,-917.7743 189.5,-917.7743 185.6076,-916.8528 190.3293,-914.2711 181.7151,-915.9314 181.7151,-915.9314"/>
<ellipse fill="none" stroke="#000000" cx="178.6012" cy="-915.1943" rx="3.2" ry="3.2"/>
</g>
<!-- AspNetUserTokens -->
<g id="node5" class="node">
<title>AspNetUserTokens</title>
<g id="a_node5"><a xlink:href="../../tables/AspNetUserTokens.html" xlink:title="AspNetUserTokens" target="_top">
<polygon fill="#ffffff" stroke="transparent" points="185,-808.2743 185,-869.2743 334,-869.2743 334,-808.2743 185,-808.2743"/>
<polygon fill="#f5f5f5" stroke="transparent" points="185.5,-845.7743 185.5,-868.7743 334.5,-868.7743 334.5,-845.7743 185.5,-845.7743"/>
<polygon fill="none" stroke="#000000" points="185.5,-845.7743 185.5,-868.7743 334.5,-868.7743 334.5,-845.7743 185.5,-845.7743"/>
<text text-anchor="start" x="190.5" y="-854.3743" font-family="Helvetica,sans-Serif" font-weight="bold" font-size="11.00" fill="#000000">AspNetUserTokens</text>
<text text-anchor="start" x="300.0219" y="-853.8743" font-family="Helvetica,sans-Serif" font-size="11.00" fill="#000000">[table]</text>
<polygon fill="none" stroke="#000000" points="185.5,-826.7743 185.5,-845.7743 334.5,-845.7743 334.5,-826.7743 185.5,-826.7743"/>
<text text-anchor="start" x="188.5" y="-832.8743" font-family="Helvetica,sans-Serif" font-size="11.00" fill="#000000">...</text>
<polygon fill="#ffffff" stroke="transparent" points="185.5,-807.7743 185.5,-826.7743 245.5,-826.7743 245.5,-807.7743 185.5,-807.7743"/>
<polygon fill="none" stroke="#000000" points="185.5,-807.7743 185.5,-826.7743 245.5,-826.7743 245.5,-807.7743 185.5,-807.7743"/>
<text text-anchor="start" x="188.5" y="-813.8743" font-family="Helvetica,sans-Serif" font-size="11.00" fill="#000000">&lt; 1</text>
<polygon fill="#ffffff" stroke="transparent" points="245.5,-807.7743 245.5,-826.7743 302.5,-826.7743 302.5,-807.7743 245.5,-807.7743"/>
<polygon fill="none" stroke="#000000" points="245.5,-807.7743 245.5,-826.7743 302.5,-826.7743 302.5,-807.7743 245.5,-807.7743"/>
<text text-anchor="start" x="267.1105" y="-813.8743" font-family="Helvetica,sans-Serif" font-size="11.00" fill="#000000">0 rows</text>
<polygon fill="#ffffff" stroke="transparent" points="302.5,-807.7743 302.5,-826.7743 334.5,-826.7743 334.5,-807.7743 302.5,-807.7743"/>
<polygon fill="none" stroke="#000000" points="302.5,-807.7743 302.5,-826.7743 334.5,-826.7743 334.5,-807.7743 302.5,-807.7743"/>
<text text-anchor="start" x="325.3862" y="-813.8743" font-family="Helvetica,sans-Serif" font-size="11.00" fill="#000000"> &#160;</text>
</a>
</g>
</g>
<!-- AspNetUserTokens&#45;&gt;AspNetUsers -->
<g id="edge4" class="edge">
<title>AspNetUserTokens:w&#45;&gt;AspNetUsers:e</title>
<path fill="none" stroke="#000000" d="M171.3562,-831.8814C122.3384,-804.929 85.6397,-645.0378 71.4361,-573.4252"/>
<polygon fill="#000000" stroke="#000000" points="177.7868,-833.6513 184.5446,-839.2452 181.6434,-834.7128 185.5,-835.7743 185.5,-835.7743 185.5,-835.7743 181.6434,-834.7128 186.4554,-832.3034 177.7868,-833.6513 177.7868,-833.6513"/>
<ellipse fill="none" stroke="#000000" cx="174.7016" cy="-832.8021" rx="3.2" ry="3.2"/>
</g>
<!-- Competencies -->
<g id="node6" class="node">
<title>Competencies</title>
<g id="a_node6"><a xlink:href="../../tables/Competencies.html" xlink:title="Competencies" target="_top">
<polygon fill="#ffffff" stroke="transparent" points="199,-647.2743 199,-708.2743 320,-708.2743 320,-647.2743 199,-647.2743"/>
<polygon fill="#f5f5f5" stroke="transparent" points="199.5,-684.7743 199.5,-707.7743 320.5,-707.7743 320.5,-684.7743 199.5,-684.7743"/>
<polygon fill="none" stroke="#000000" points="199.5,-684.7743 199.5,-707.7743 320.5,-707.7743 320.5,-684.7743 199.5,-684.7743"/>
<text text-anchor="start" x="204.5" y="-693.3743" font-family="Helvetica,sans-Serif" font-weight="bold" font-size="11.00" fill="#000000">Competencies</text>
<text text-anchor="start" x="286.0219" y="-692.8743" font-family="Helvetica,sans-Serif" font-size="11.00" fill="#000000">[table]</text>
<polygon fill="none" stroke="#000000" points="199.5,-665.7743 199.5,-684.7743 320.5,-684.7743 320.5,-665.7743 199.5,-665.7743"/>
<text text-anchor="start" x="202.5" y="-671.8743" font-family="Helvetica,sans-Serif" font-size="11.00" fill="#000000">...</text>
<polygon fill="#ffffff" stroke="transparent" points="199.5,-646.7743 199.5,-665.7743 240.5,-665.7743 240.5,-646.7743 199.5,-646.7743"/>
<polygon fill="none" stroke="#000000" points="199.5,-646.7743 199.5,-665.7743 240.5,-665.7743 240.5,-646.7743 199.5,-646.7743"/>
<text text-anchor="start" x="202.5" y="-652.8743" font-family="Helvetica,sans-Serif" font-size="11.00" fill="#000000">&lt; 2</text>
<polygon fill="#ffffff" stroke="transparent" points="240.5,-646.7743 240.5,-665.7743 288.5,-665.7743 288.5,-646.7743 240.5,-646.7743"/>
<polygon fill="none" stroke="#000000" points="240.5,-646.7743 240.5,-665.7743 288.5,-665.7743 288.5,-646.7743 240.5,-646.7743"/>
<text text-anchor="start" x="253.1105" y="-652.8743" font-family="Helvetica,sans-Serif" font-size="11.00" fill="#000000">5 rows</text>
<polygon fill="#ffffff" stroke="transparent" points="288.5,-646.7743 288.5,-665.7743 320.5,-665.7743 320.5,-646.7743 288.5,-646.7743"/>
<polygon fill="none" stroke="#000000" points="288.5,-646.7743 288.5,-665.7743 320.5,-665.7743 320.5,-646.7743 288.5,-646.7743"/>
<text text-anchor="start" x="301.9053" y="-652.8743" font-family="Helvetica,sans-Serif" font-size="11.00" fill="#000000">4 &gt;</text>
</a>
</g>
</g>
<!-- Competencies&#45;&gt;AspNetUsers -->
<g id="edge5" class="edge">
<title>Competencies:w&#45;&gt;AspNetUsers:e</title>
<path fill="none" stroke="#000000" d="M185.0067,-672.4558C137.3055,-660.52 102.2606,-608.8232 82.743,-573.2793"/>
<polygon fill="#000000" stroke="#000000" points="191.6004,-673.5105 198.9313,-678.3291 195.5502,-674.1424 199.5,-674.7743 199.5,-674.7743 199.5,-674.7743 195.5502,-674.1424 200.0687,-671.2195 191.6004,-673.5105 191.6004,-673.5105"/>
<ellipse fill="none" stroke="#000000" cx="188.4406" cy="-673.005" rx="3.2" ry="3.2"/>
</g>
<!-- Competencies&#45;&gt;AspNetUsers -->
<g id="edge6" class="edge">
<title>Competencies:w&#45;&gt;AspNetUsers:e</title>
<path fill="none" stroke="#000000" d="M184.9734,-674.5919C133.501,-669.0038 96.7696,-611.8493 78.3877,-573.406"/>
<polygon fill="#000000" stroke="#000000" points="191.5006,-674.6738 199.4548,-678.374 195.5003,-674.724 199.5,-674.7743 199.5,-674.7743 199.5,-674.7743 195.5003,-674.724 199.5452,-671.1746 191.5006,-674.6738 191.5006,-674.6738"/>
<ellipse fill="none" stroke="#000000" cx="188.3009" cy="-674.6336" rx="3.2" ry="3.2"/>
</g>
<!-- CompetencyLevelDescriptions -->
<g id="node7" class="node">
<title>CompetencyLevelDescriptions</title>
<g id="a_node7"><a xlink:href="../../tables/CompetencyLevelDescriptions.html" xlink:title="CompetencyLevelDescriptions" target="_top">
<polygon fill="#ffffff" stroke="transparent" points="397,-763.2743 397,-824.2743 611,-824.2743 611,-763.2743 397,-763.2743"/>
<polygon fill="#f5f5f5" stroke="transparent" points="397,-800.7743 397,-823.7743 611,-823.7743 611,-800.7743 397,-800.7743"/>
<polygon fill="none" stroke="#000000" points="397,-800.7743 397,-823.7743 611,-823.7743 611,-800.7743 397,-800.7743"/>
<text text-anchor="start" x="402" y="-809.3743" font-family="Helvetica,sans-Serif" font-weight="bold" font-size="11.00" fill="#000000">CompetencyLevelDescriptions</text>
<text text-anchor="start" x="576.5219" y="-808.8743" font-family="Helvetica,sans-Serif" font-size="11.00" fill="#000000">[table]</text>
<polygon fill="none" stroke="#000000" points="397,-781.7743 397,-800.7743 611,-800.7743 611,-781.7743 397,-781.7743"/>
<text text-anchor="start" x="400" y="-787.8743" font-family="Helvetica,sans-Serif" font-size="11.00" fill="#000000">...</text>
<polygon fill="#ffffff" stroke="transparent" points="397,-762.7743 397,-781.7743 486,-781.7743 486,-762.7743 397,-762.7743"/>
<polygon fill="none" stroke="#000000" points="397,-762.7743 397,-781.7743 486,-781.7743 486,-762.7743 397,-762.7743"/>
<text text-anchor="start" x="400" y="-768.8743" font-family="Helvetica,sans-Serif" font-size="11.00" fill="#000000">&lt; 3</text>
<polygon fill="#ffffff" stroke="transparent" points="486,-762.7743 486,-781.7743 564,-781.7743 564,-762.7743 486,-762.7743"/>
<polygon fill="none" stroke="#000000" points="486,-762.7743 486,-781.7743 564,-781.7743 564,-762.7743 486,-762.7743"/>
<text text-anchor="start" x="522.4956" y="-768.8743" font-family="Helvetica,sans-Serif" font-size="11.00" fill="#000000">20 rows</text>
<polygon fill="#ffffff" stroke="transparent" points="564,-762.7743 564,-781.7743 611,-781.7743 611,-762.7743 564,-762.7743"/>
<polygon fill="none" stroke="#000000" points="564,-762.7743 564,-781.7743 611,-781.7743 611,-762.7743 564,-762.7743"/>
<text text-anchor="start" x="601.8862" y="-768.8743" font-family="Helvetica,sans-Serif" font-size="11.00" fill="#000000"> &#160;</text>
</a>
</g>
</g>
<!-- CompetencyLevelDescriptions&#45;&gt;AspNetUsers -->
<g id="edge8" class="edge">
<title>CompetencyLevelDescriptions:w&#45;&gt;AspNetUsers:e</title>
<path fill="none" stroke="#000000" d="M382.5902,-790.139C287.4787,-787.1592 242.9155,-809.37 163,-748.7743 105.9054,-705.4825 81.1502,-621.2539 71.1493,-573.6206"/>
<polygon fill="#000000" stroke="#000000" points="389.0078,-790.4219 396.8414,-794.3708 393.0039,-790.5981 397,-790.7743 397,-790.7743 397,-790.7743 393.0039,-790.5981 397.1586,-787.1778 389.0078,-790.4219 389.0078,-790.4219"/>
<ellipse fill="none" stroke="#000000" cx="385.8109" cy="-790.2809" rx="3.2" ry="3.2"/>
</g>
<!-- CompetencyLevelDescriptions&#45;&gt;AspNetUsers -->
<g id="edge9" class="edge">
<title>CompetencyLevelDescriptions:w&#45;&gt;AspNetUsers:e</title>
<path fill="none" stroke="#000000" d="M382.5902,-791.8828C287.4787,-800.1592 242.9155,-822.37 163,-761.7743 102.46,-715.8701 78.2803,-623.9393 69.4961,-573.5477"/>
<polygon fill="#000000" stroke="#000000" points="389.0236,-791.3879 397.2761,-794.3637 393.0118,-791.0811 397,-790.7743 397,-790.7743 397,-790.7743 393.0118,-791.0811 396.7239,-787.1849 389.0236,-791.3879 389.0236,-791.3879"/>
<ellipse fill="none" stroke="#000000" cx="385.833" cy="-791.6334" rx="3.2" ry="3.2"/>
</g>
<!-- CompetencyLevelDescriptions&#45;&gt;Competencies -->
<g id="edge7" class="edge">
<title>CompetencyLevelDescriptions:w&#45;&gt;Competencies:e</title>
<path fill="none" stroke="#000000" d="M382.8307,-788.1335C342.8126,-770.8669 376.7089,-674.7743 320.5,-674.7743"/>
<polygon fill="#000000" stroke="#000000" points="389.1354,-789.3085 396.3404,-794.3133 393.0677,-790.0414 397,-790.7743 397,-790.7743 397,-790.7743 393.0677,-790.0414 397.6596,-787.2352 389.1354,-789.3085 389.1354,-789.3085"/>
<ellipse fill="none" stroke="#000000" cx="385.9896" cy="-788.7222" rx="3.2" ry="3.2"/>
</g>
<!-- Coordinators -->
<g id="node8" class="node">
<title>Coordinators</title>
<g id="a_node8"><a xlink:href="../../tables/Coordinators.html" xlink:title="Coordinators" target="_top">
<polygon fill="#ffffff" stroke="transparent" points="447,-146.2743 447,-207.2743 561,-207.2743 561,-146.2743 447,-146.2743"/>
<polygon fill="#f5f5f5" stroke="transparent" points="447,-183.7743 447,-206.7743 561,-206.7743 561,-183.7743 447,-183.7743"/>
<polygon fill="none" stroke="#000000" points="447,-183.7743 447,-206.7743 561,-206.7743 561,-183.7743 447,-183.7743"/>
<text text-anchor="start" x="452" y="-192.3743" font-family="Helvetica,sans-Serif" font-weight="bold" font-size="11.00" fill="#000000">Coordinators</text>
<text text-anchor="start" x="526.5219" y="-191.8743" font-family="Helvetica,sans-Serif" font-size="11.00" fill="#000000">[table]</text>
<polygon fill="none" stroke="#000000" points="447,-164.7743 447,-183.7743 561,-183.7743 561,-164.7743 447,-164.7743"/>
<text text-anchor="start" x="450" y="-170.8743" font-family="Helvetica,sans-Serif" font-size="11.00" fill="#000000">...</text>
<polygon fill="#ffffff" stroke="transparent" points="447,-145.7743 447,-164.7743 489,-164.7743 489,-145.7743 447,-145.7743"/>
<polygon fill="none" stroke="#000000" points="447,-145.7743 447,-164.7743 489,-164.7743 489,-145.7743 447,-145.7743"/>
<text text-anchor="start" x="450" y="-151.8743" font-family="Helvetica,sans-Serif" font-size="11.00" fill="#000000">&lt; 2</text>
<polygon fill="#ffffff" stroke="transparent" points="489,-145.7743 489,-164.7743 538,-164.7743 538,-145.7743 489,-145.7743"/>
<polygon fill="none" stroke="#000000" points="489,-145.7743 489,-164.7743 538,-164.7743 538,-145.7743 489,-145.7743"/>
<text text-anchor="start" x="502.6105" y="-151.8743" font-family="Helvetica,sans-Serif" font-size="11.00" fill="#000000">0 rows</text>
<polygon fill="#ffffff" stroke="transparent" points="538,-145.7743 538,-164.7743 561,-164.7743 561,-145.7743 538,-145.7743"/>
<polygon fill="none" stroke="#000000" points="538,-145.7743 538,-164.7743 561,-164.7743 561,-145.7743 538,-145.7743"/>
<text text-anchor="start" x="551.8862" y="-151.8743" font-family="Helvetica,sans-Serif" font-size="11.00" fill="#000000"> &#160;</text>
</a>
</g>
</g>
<!-- Coordinators&#45;&gt;AspNetUsers -->
<g id="edge11" class="edge">
<title>Coordinators:w&#45;&gt;AspNetUsers:e</title>
<path fill="none" stroke="#000000" d="M436.3357,-173.6727C316.1778,-171.394 257.0756,-132.3015 163,-212.7743 118.1461,-251.1425 83.6238,-428.1128 70.6184,-504.0305"/>
<polygon fill="#000000" stroke="#000000" points="446.2382,-169.7668 446.1619,-177.7665 444.562,-177.7512 444.6382,-169.7516 446.2382,-169.7668"/>
<polyline fill="none" stroke="#000000" points="447,-173.7743 443.0002,-173.7362 "/>
<ellipse fill="none" stroke="#000000" cx="439.8003" cy="-173.7057" rx="3.2" ry="3.2"/>
</g>
<!-- TechnicalCareers -->
<g id="node9" class="node">
<title>TechnicalCareers</title>
<g id="a_node9"><a xlink:href="../../tables/TechnicalCareers.html" xlink:title="TechnicalCareers" target="_top">
<polygon fill="#ffffff" stroke="transparent" points="190,-258.2743 190,-319.2743 329,-319.2743 329,-258.2743 190,-258.2743"/>
<polygon fill="#f5f5f5" stroke="transparent" points="190.5,-295.7743 190.5,-318.7743 329.5,-318.7743 329.5,-295.7743 190.5,-295.7743"/>
<polygon fill="none" stroke="#000000" points="190.5,-295.7743 190.5,-318.7743 329.5,-318.7743 329.5,-295.7743 190.5,-295.7743"/>
<text text-anchor="start" x="195.5" y="-304.3743" font-family="Helvetica,sans-Serif" font-weight="bold" font-size="11.00" fill="#000000">TechnicalCareers</text>
<text text-anchor="start" x="295.0219" y="-303.8743" font-family="Helvetica,sans-Serif" font-size="11.00" fill="#000000">[table]</text>
<polygon fill="none" stroke="#000000" points="190.5,-276.7743 190.5,-295.7743 329.5,-295.7743 329.5,-276.7743 190.5,-276.7743"/>
<text text-anchor="start" x="193.5" y="-282.8743" font-family="Helvetica,sans-Serif" font-size="11.00" fill="#000000">...</text>
<polygon fill="#ffffff" stroke="transparent" points="190.5,-257.7743 190.5,-276.7743 240.5,-276.7743 240.5,-257.7743 190.5,-257.7743"/>
<polygon fill="none" stroke="#000000" points="190.5,-257.7743 190.5,-276.7743 240.5,-276.7743 240.5,-257.7743 190.5,-257.7743"/>
<text text-anchor="start" x="193.5" y="-263.8743" font-family="Helvetica,sans-Serif" font-size="11.00" fill="#000000">&lt; 2</text>
<polygon fill="#ffffff" stroke="transparent" points="240.5,-257.7743 240.5,-276.7743 293.5,-276.7743 293.5,-257.7743 240.5,-257.7743"/>
<polygon fill="none" stroke="#000000" points="240.5,-257.7743 240.5,-276.7743 293.5,-276.7743 293.5,-257.7743 240.5,-257.7743"/>
<text text-anchor="start" x="258.1105" y="-263.8743" font-family="Helvetica,sans-Serif" font-size="11.00" fill="#000000">6 rows</text>
<polygon fill="#ffffff" stroke="transparent" points="293.5,-257.7743 293.5,-276.7743 329.5,-276.7743 329.5,-257.7743 293.5,-257.7743"/>
<polygon fill="none" stroke="#000000" points="293.5,-257.7743 293.5,-276.7743 329.5,-276.7743 329.5,-257.7743 293.5,-257.7743"/>
<text text-anchor="start" x="310.9053" y="-263.8743" font-family="Helvetica,sans-Serif" font-size="11.00" fill="#000000">6 &gt;</text>
</a>
</g>
</g>
<!-- Coordinators&#45;&gt;TechnicalCareers -->
<g id="edge10" class="edge">
<title>Coordinators:w&#45;&gt;TechnicalCareers:e</title>
<path fill="none" stroke="#000000" d="M432.4703,-175.689C413.2778,-181.4894 408.5043,-199.5866 389,-217.7743 359.6298,-245.1619 369.6583,-285.7743 329.5,-285.7743"/>
<polygon fill="#000000" stroke="#000000" points="439.0686,-174.8196 447.4704,-177.3434 443.0343,-174.2969 447,-173.7743 447,-173.7743 447,-173.7743 443.0343,-174.2969 446.5296,-170.2051 439.0686,-174.8196 439.0686,-174.8196"/>
<ellipse fill="none" stroke="#000000" cx="435.896" cy="-175.2377" rx="3.2" ry="3.2"/>
</g>
<!-- TechnicalCareers&#45;&gt;AspNetUsers -->
<g id="edge48" class="edge">
<title>TechnicalCareers:w&#45;&gt;AspNetUsers:e</title>
<path fill="none" stroke="#000000" d="M176.1994,-288.6815C132.3249,-310.1225 90.8199,-440.5926 73.494,-504.1473"/>
<polygon fill="#000000" stroke="#000000" points="182.6604,-287.3681 191.2172,-289.3021 186.5802,-286.5712 190.5,-285.7743 190.5,-285.7743 190.5,-285.7743 186.5802,-286.5712 189.7828,-282.2464 182.6604,-287.3681 182.6604,-287.3681"/>
<ellipse fill="none" stroke="#000000" cx="179.5245" cy="-288.0056" rx="3.2" ry="3.2"/>
</g>
<!-- TechnicalCareers&#45;&gt;AspNetUsers -->
<g id="edge49" class="edge">
<title>TechnicalCareers:w&#45;&gt;AspNetUsers:e</title>
<path fill="none" stroke="#000000" d="M176.9394,-290.9413C134.3773,-318.1189 93.9273,-442.6661 75.4643,-504.2452"/>
<polygon fill="#000000" stroke="#000000" points="183.0243,-288.6228 191.7818,-289.1384 186.7621,-287.1985 190.5,-285.7743 190.5,-285.7743 190.5,-285.7743 186.7621,-287.1985 189.2182,-282.4102 183.0243,-288.6228 183.0243,-288.6228"/>
<ellipse fill="none" stroke="#000000" cx="180.034" cy="-289.7622" rx="3.2" ry="3.2"/>
</g>
<!-- EvaluationPeriods -->
<g id="node10" class="node">
<title>EvaluationPeriods</title>
<g id="a_node10"><a xlink:href="../../tables/EvaluationPeriods.html" xlink:title="EvaluationPeriods" target="_top">
<polygon fill="#ffffff" stroke="transparent" points="432.5,-338.2743 432.5,-399.2743 575.5,-399.2743 575.5,-338.2743 432.5,-338.2743"/>
<polygon fill="#f5f5f5" stroke="transparent" points="433,-375.7743 433,-398.7743 576,-398.7743 576,-375.7743 433,-375.7743"/>
<polygon fill="none" stroke="#000000" points="433,-375.7743 433,-398.7743 576,-398.7743 576,-375.7743 433,-375.7743"/>
<text text-anchor="start" x="438" y="-384.3743" font-family="Helvetica,sans-Serif" font-weight="bold" font-size="11.00" fill="#000000">EvaluationPeriods</text>
<text text-anchor="start" x="541.5219" y="-383.8743" font-family="Helvetica,sans-Serif" font-size="11.00" fill="#000000">[table]</text>
<polygon fill="none" stroke="#000000" points="433,-356.7743 433,-375.7743 576,-375.7743 576,-356.7743 433,-356.7743"/>
<text text-anchor="start" x="436" y="-362.8743" font-family="Helvetica,sans-Serif" font-size="11.00" fill="#000000">...</text>
<polygon fill="#ffffff" stroke="transparent" points="433,-337.7743 433,-356.7743 485,-356.7743 485,-337.7743 433,-337.7743"/>
<polygon fill="none" stroke="#000000" points="433,-337.7743 433,-356.7743 485,-356.7743 485,-337.7743 433,-337.7743"/>
<text text-anchor="start" x="436" y="-343.8743" font-family="Helvetica,sans-Serif" font-size="11.00" fill="#000000">&lt; 2</text>
<polygon fill="#ffffff" stroke="transparent" points="485,-337.7743 485,-356.7743 539,-356.7743 539,-337.7743 485,-337.7743"/>
<polygon fill="none" stroke="#000000" points="485,-337.7743 485,-356.7743 539,-356.7743 539,-337.7743 485,-337.7743"/>
<text text-anchor="start" x="503.6105" y="-343.8743" font-family="Helvetica,sans-Serif" font-size="11.00" fill="#000000">0 rows</text>
<polygon fill="#ffffff" stroke="transparent" points="539,-337.7743 539,-356.7743 576,-356.7743 576,-337.7743 539,-337.7743"/>
<polygon fill="none" stroke="#000000" points="539,-337.7743 539,-356.7743 576,-356.7743 576,-337.7743 539,-337.7743"/>
<text text-anchor="start" x="557.4053" y="-343.8743" font-family="Helvetica,sans-Serif" font-size="11.00" fill="#000000">3 &gt;</text>
</a>
</g>
</g>
<!-- EvaluationPeriods&#45;&gt;AspNetUsers -->
<g id="edge12" class="edge">
<title>EvaluationPeriods:w&#45;&gt;AspNetUsers:e</title>
<path fill="none" stroke="#000000" d="M418.562,-364.8612C308.8053,-356.4585 262.1156,-319.7433 163,-378.7743 116.4411,-406.5037 88.3561,-465.9004 74.8388,-504.0747"/>
<polygon fill="#000000" stroke="#000000" points="425.0159,-365.2693 432.7728,-369.3671 429.008,-365.5218 433,-365.7743 433,-365.7743 433,-365.7743 429.008,-365.5218 433.2272,-362.1815 425.0159,-365.2693 425.0159,-365.2693"/>
<ellipse fill="none" stroke="#000000" cx="421.8223" cy="-365.0673" rx="3.2" ry="3.2"/>
</g>
<!-- EvaluationPeriods&#45;&gt;AspNetUsers -->
<g id="edge13" class="edge">
<title>EvaluationPeriods:w&#45;&gt;AspNetUsers:e</title>
<path fill="none" stroke="#000000" d="M418.562,-366.3961C308.8053,-369.4585 262.1156,-332.7433 163,-391.7743 120.3891,-417.1524 93.2519,-469.055 78.594,-503.9681"/>
<polygon fill="#000000" stroke="#000000" points="425.0074,-366.1186 433.1549,-369.3709 429.0037,-365.9464 433,-365.7743 433,-365.7743 433,-365.7743 429.0037,-365.9464 432.8451,-362.1776 425.0074,-366.1186 425.0074,-366.1186"/>
<ellipse fill="none" stroke="#000000" cx="421.8104" cy="-366.2563" rx="3.2" ry="3.2"/>
</g>
<!-- FormQuestions -->
<g id="node11" class="node">
<title>FormQuestions</title>
<g id="a_node11"><a xlink:href="../../tables/FormQuestions.html" xlink:title="FormQuestions" target="_top">
<polygon fill="#ffffff" stroke="transparent" points="440.5,-608.2743 440.5,-669.2743 567.5,-669.2743 567.5,-608.2743 440.5,-608.2743"/>
<polygon fill="#f5f5f5" stroke="transparent" points="441,-645.7743 441,-668.7743 568,-668.7743 568,-645.7743 441,-645.7743"/>
<polygon fill="none" stroke="#000000" points="441,-645.7743 441,-668.7743 568,-668.7743 568,-645.7743 441,-645.7743"/>
<text text-anchor="start" x="446" y="-654.3743" font-family="Helvetica,sans-Serif" font-weight="bold" font-size="11.00" fill="#000000">FormQuestions</text>
<text text-anchor="start" x="533.5219" y="-653.8743" font-family="Helvetica,sans-Serif" font-size="11.00" fill="#000000">[table]</text>
<polygon fill="none" stroke="#000000" points="441,-626.7743 441,-645.7743 568,-645.7743 568,-626.7743 441,-626.7743"/>
<text text-anchor="start" x="444" y="-632.8743" font-family="Helvetica,sans-Serif" font-size="11.00" fill="#000000">...</text>
<polygon fill="#ffffff" stroke="transparent" points="441,-607.7743 441,-626.7743 485,-626.7743 485,-607.7743 441,-607.7743"/>
<polygon fill="none" stroke="#000000" points="441,-607.7743 441,-626.7743 485,-626.7743 485,-607.7743 441,-607.7743"/>
<text text-anchor="start" x="444" y="-613.8743" font-family="Helvetica,sans-Serif" font-size="11.00" fill="#000000">&lt; 3</text>
<polygon fill="#ffffff" stroke="transparent" points="485,-607.7743 485,-626.7743 535,-626.7743 535,-607.7743 485,-607.7743"/>
<polygon fill="none" stroke="#000000" points="485,-607.7743 485,-626.7743 535,-626.7743 535,-607.7743 485,-607.7743"/>
<text text-anchor="start" x="499.6105" y="-613.8743" font-family="Helvetica,sans-Serif" font-size="11.00" fill="#000000">0 rows</text>
<polygon fill="#ffffff" stroke="transparent" points="535,-607.7743 535,-626.7743 568,-626.7743 568,-607.7743 535,-607.7743"/>
<polygon fill="none" stroke="#000000" points="535,-607.7743 535,-626.7743 568,-626.7743 568,-607.7743 535,-607.7743"/>
<text text-anchor="start" x="549.4053" y="-613.8743" font-family="Helvetica,sans-Serif" font-size="11.00" fill="#000000">1 &gt;</text>
</a>
</g>
</g>
<!-- FormQuestions&#45;&gt;AspNetUsers -->
<g id="edge15" class="edge">
<title>FormQuestions:w&#45;&gt;AspNetUsers:e</title>
<path fill="none" stroke="#000000" d="M426.4126,-635.0728C313.1176,-629.5972 276.4555,-626.7221 163,-587.7743 151.8358,-583.9418 140.4751,-578.8489 129.6342,-573.3847"/>
<polygon fill="#000000" stroke="#000000" points="433.0092,-635.3899 440.827,-639.3701 437.0046,-635.5821 441,-635.7743 441,-635.7743 441,-635.7743 437.0046,-635.5821 441.173,-632.1784 433.0092,-635.3899 433.0092,-635.3899"/>
<ellipse fill="none" stroke="#000000" cx="429.8129" cy="-635.2362" rx="3.2" ry="3.2"/>
</g>
<!-- FormQuestions&#45;&gt;AspNetUsers -->
<g id="edge16" class="edge">
<title>FormQuestions:w&#45;&gt;AspNetUsers:e</title>
<path fill="none" stroke="#000000" d="M426.4126,-636.5726C313.1176,-642.5972 276.4555,-639.7221 163,-600.7743 143.8087,-594.1861 124.0365,-583.8737 107.3227,-573.481"/>
<polygon fill="#000000" stroke="#000000" points="433.012,-636.2115 441.1967,-639.3689 437.006,-635.9929 441,-635.7743 441,-635.7743 441,-635.7743 437.006,-635.9929 440.8033,-632.1797 433.012,-636.2115 433.012,-636.2115"/>
<ellipse fill="none" stroke="#000000" cx="429.8167" cy="-636.3864" rx="3.2" ry="3.2"/>
</g>
<!-- FormQuestions&#45;&gt;Competencies -->
<g id="edge14" class="edge">
<title>FormQuestions:w&#45;&gt;Competencies:e</title>
<path fill="none" stroke="#000000" d="M426.364,-636.7383C382.7994,-642.744 371.5134,-674.7743 320.5,-674.7743"/>
<polygon fill="#000000" stroke="#000000" points="433.0173,-636.3001 441.2366,-639.3665 437.0086,-636.0372 441,-635.7743 441,-635.7743 441,-635.7743 437.0086,-636.0372 440.7634,-632.1821 433.0173,-636.3001 433.0173,-636.3001"/>
<ellipse fill="none" stroke="#000000" cx="429.8242" cy="-636.5105" rx="3.2" ry="3.2"/>
</g>
<!-- ProfessorCompetencyAssignments -->
<g id="node12" class="node">
<title>ProfessorCompetencyAssignments</title>
<g id="a_node12"><a xlink:href="../../tables/ProfessorCompetencyAssignments.html" xlink:title="ProfessorCompetencyAssignments" target="_top">
<polygon fill="#ffffff" stroke="transparent" points="660,-480.2743 660,-541.2743 902,-541.2743 902,-480.2743 660,-480.2743"/>
<polygon fill="#f5f5f5" stroke="transparent" points="660,-517.7743 660,-540.7743 902,-540.7743 902,-517.7743 660,-517.7743"/>
<polygon fill="none" stroke="#000000" points="660,-517.7743 660,-540.7743 902,-540.7743 902,-517.7743 660,-517.7743"/>
<text text-anchor="start" x="665" y="-526.3743" font-family="Helvetica,sans-Serif" font-weight="bold" font-size="11.00" fill="#000000">ProfessorCompetencyAssignments</text>
<text text-anchor="start" x="867.5219" y="-525.8743" font-family="Helvetica,sans-Serif" font-size="11.00" fill="#000000">[table]</text>
<polygon fill="none" stroke="#000000" points="660,-498.7743 660,-517.7743 902,-517.7743 902,-498.7743 660,-498.7743"/>
<text text-anchor="start" x="663" y="-504.8743" font-family="Helvetica,sans-Serif" font-size="11.00" fill="#000000">...</text>
<polygon fill="#ffffff" stroke="transparent" points="660,-479.7743 660,-498.7743 762,-498.7743 762,-479.7743 660,-479.7743"/>
<polygon fill="none" stroke="#000000" points="660,-479.7743 660,-498.7743 762,-498.7743 762,-479.7743 660,-479.7743"/>
<text text-anchor="start" x="663" y="-485.8743" font-family="Helvetica,sans-Serif" font-size="11.00" fill="#000000">&lt; 7</text>
<polygon fill="#ffffff" stroke="transparent" points="762,-479.7743 762,-498.7743 840,-498.7743 840,-479.7743 762,-479.7743"/>
<polygon fill="none" stroke="#000000" points="762,-479.7743 762,-498.7743 840,-498.7743 840,-479.7743 762,-479.7743"/>
<text text-anchor="start" x="804.6105" y="-485.8743" font-family="Helvetica,sans-Serif" font-size="11.00" fill="#000000">0 rows</text>
<polygon fill="#ffffff" stroke="transparent" points="840,-479.7743 840,-498.7743 902,-498.7743 902,-479.7743 840,-479.7743"/>
<polygon fill="none" stroke="#000000" points="840,-479.7743 840,-498.7743 902,-498.7743 902,-479.7743 840,-479.7743"/>
<text text-anchor="start" x="883.4053" y="-485.8743" font-family="Helvetica,sans-Serif" font-size="11.00" fill="#000000">1 &gt;</text>
</a>
</g>
</g>
<!-- ProfessorCompetencyAssignments&#45;&gt;AspNetUsers -->
<g id="edge18" class="edge">
<title>ProfessorCompetencyAssignments:w&#45;&gt;AspNetUsers:e</title>
<path fill="none" stroke="#000000" d="M637.089,-512.7115C482.789,-517.4083 244.6246,-527.0418 130.4377,-533.4841"/>
<polygon fill="#000000" stroke="#000000" points="643.756,-512.512 651.8602,-515.871 647.7542,-512.3923 651.7524,-512.2726 651.7524,-512.2726 651.7524,-512.2726 647.7542,-512.3923 651.6447,-508.6742 643.756,-512.512 643.756,-512.512"/>
<ellipse fill="none" stroke="#000000" cx="640.5575" cy="-512.6077" rx="3.2" ry="3.2"/>
</g>
<!-- ProfessorCompetencyAssignments&#45;&gt;AspNetUsers -->
<g id="edge23" class="edge">
<title>ProfessorCompetencyAssignments:w&#45;&gt;AspNetUsers:e</title>
<path fill="none" stroke="#000000" d="M637.089,-520.7078C482.789,-528.302 244.6246,-537.2426 130.4377,-539.4016"/>
<polygon fill="#000000" stroke="#000000" points="643.7624,-520.3754 651.9316,-523.5729 647.7574,-520.1764 651.7524,-519.9774 651.7524,-519.9774 651.7524,-519.9774 647.7574,-520.1764 651.5733,-516.3818 643.7624,-520.3754 643.7624,-520.3754"/>
<ellipse fill="none" stroke="#000000" cx="640.5663" cy="-520.5347" rx="3.2" ry="3.2"/>
</g>
<!-- ProfessorCompetencyAssignments&#45;&gt;Competencies -->
<g id="edge17" class="edge">
<title>ProfessorCompetencyAssignments:w&#45;&gt;Competencies:e</title>
<path fill="none" stroke="#000000" d="M752.2893,-557.415C724.0899,-598.336 676.9318,-655.0574 619,-679.7743 496.9585,-731.8439 453.1853,-674.7743 320.5,-674.7743"/>
<polygon fill="#000000" stroke="#000000" points="755.97,-551.9217 763.4138,-547.2795 758.1965,-548.5986 760.4231,-545.2756 760.4231,-545.2756 760.4231,-545.2756 758.1965,-548.5986 757.4323,-543.2717 755.97,-551.9217 755.97,-551.9217"/>
<ellipse fill="none" stroke="#000000" cx="754.1887" cy="-554.5801" rx="3.2" ry="3.2"/>
</g>
<!-- ProfessorCompetencyAssignments&#45;&gt;TechnicalCareers -->
<g id="edge22" class="edge">
<title>ProfessorCompetencyAssignments:w&#45;&gt;TechnicalCareers:e</title>
<path fill="none" stroke="#000000" d="M731.4484,-465.9285C706.2495,-441.9038 675.9695,-411.0776 652,-380.7743 634.7856,-359.011 642.3985,-342.6902 619,-327.7743 575.583,-300.0971 439.692,-308.7955 389,-299.7743 362.2536,-295.0145 356.6666,-285.7743 329.5,-285.7743"/>
<polygon fill="#000000" stroke="#000000" points="736.4431,-470.6364 739.7954,-478.7433 739.3539,-473.38 742.2647,-476.1237 742.2647,-476.1237 742.2647,-476.1237 739.3539,-473.38 744.7339,-473.504 736.4431,-470.6364 736.4431,-470.6364"/>
<ellipse fill="none" stroke="#000000" cx="734.1145" cy="-468.4415" rx="3.2" ry="3.2"/>
</g>
<!-- ProfessorCompetencyAssignments&#45;&gt;EvaluationPeriods -->
<g id="edge19" class="edge">
<title>ProfessorCompetencyAssignments:w&#45;&gt;EvaluationPeriods:e</title>
<path fill="none" stroke="#000000" d="M745.6914,-465.0431C708.5354,-422.5464 645.8302,-365.7743 576,-365.7743"/>
<polygon fill="#000000" stroke="#000000" points="749.8506,-469.9437 752.2825,-478.3726 752.4389,-472.9935 755.0272,-476.0432 755.0272,-476.0432 755.0272,-476.0432 752.4389,-472.9935 757.7719,-473.7137 749.8506,-469.9437 749.8506,-469.9437"/>
<ellipse fill="none" stroke="#000000" cx="747.78" cy="-467.504" rx="3.2" ry="3.2"/>
</g>
<!-- Professors -->
<g id="node13" class="node">
<title>Professors</title>
<g id="a_node13"><a xlink:href="../../tables/Professors.html" xlink:title="Professors" target="_top">
<polygon fill="#ffffff" stroke="transparent" points="171,-418.7743 171,-508.7743 348,-508.7743 348,-418.7743 171,-418.7743"/>
<polygon fill="#f5f5f5" stroke="transparent" points="173.5,-483.7743 173.5,-506.7743 346.5,-506.7743 346.5,-483.7743 173.5,-483.7743"/>
<polygon fill="none" stroke="#000000" points="173.5,-483.7743 173.5,-506.7743 346.5,-506.7743 346.5,-483.7743 173.5,-483.7743"/>
<text text-anchor="start" x="178.5" y="-492.3743" font-family="Helvetica,sans-Serif" font-weight="bold" font-size="11.00" fill="#000000">Professors</text>
<text text-anchor="start" x="311.5437" y="-491.8743" font-family="Helvetica,sans-Serif" font-size="11.00" fill="#000000">[table]</text>
<polygon fill="none" stroke="#000000" points="173.5,-461.7743 173.5,-483.7743 256.5,-483.7743 256.5,-461.7743 173.5,-461.7743"/>
<image xlink:href="../../images/primaryKeys.png" width="11px" height="12px" preserveAspectRatio="xMinYMin meet" x="178.5" y="-478.774"/>
<text text-anchor="start" x="193.5" y="-468.8743" font-family="Helvetica,sans-Serif" font-size="11.00" fill="#000000">UserId</text>
<polygon fill="none" stroke="#000000" points="256.5,-461.7743 256.5,-483.7743 346.5,-483.7743 346.5,-461.7743 256.5,-461.7743"/>
<text text-anchor="start" x="259.0043" y="-469.4743" font-family="Helvetica,sans-Serif" font-size="11.00" fill="#000000">text[2147483647]</text>
<polygon fill="none" stroke="#000000" points="173.5,-439.7743 173.5,-461.7743 256.5,-461.7743 256.5,-439.7743 173.5,-439.7743"/>
<text text-anchor="start" x="193.5" y="-446.8743" font-family="Helvetica,sans-Serif" font-size="11.00" fill="#000000">Phone</text>
<polygon fill="none" stroke="#000000" points="256.5,-439.7743 256.5,-461.7743 346.5,-461.7743 346.5,-439.7743 256.5,-439.7743"/>
<text text-anchor="start" x="259.0043" y="-447.4743" font-family="Helvetica,sans-Serif" font-size="11.00" fill="#000000">text[2147483647]</text>
<polygon fill="#ffffff" stroke="transparent" points="173.5,-420.7743 173.5,-439.7743 206.5,-439.7743 206.5,-420.7743 173.5,-420.7743"/>
<polygon fill="none" stroke="#000000" points="173.5,-420.7743 173.5,-439.7743 206.5,-439.7743 206.5,-420.7743 173.5,-420.7743"/>
<text text-anchor="start" x="176.5" y="-426.8743" font-family="Helvetica,sans-Serif" font-size="11.00" fill="#000000">&lt; 1</text>
<polygon fill="#ffffff" stroke="transparent" points="206.5,-420.7743 206.5,-439.7743 256.5,-439.7743 256.5,-420.7743 206.5,-420.7743"/>
<polygon fill="none" stroke="#000000" points="206.5,-420.7743 206.5,-439.7743 256.5,-439.7743 256.5,-420.7743 206.5,-420.7743"/>
<text text-anchor="start" x="221.1105" y="-426.8743" font-family="Helvetica,sans-Serif" font-size="11.00" fill="#000000">0 rows</text>
<polygon fill="#ffffff" stroke="transparent" points="256.5,-420.7743 256.5,-439.7743 346.5,-439.7743 346.5,-420.7743 256.5,-420.7743"/>
<polygon fill="none" stroke="#000000" points="256.5,-420.7743 256.5,-439.7743 346.5,-439.7743 346.5,-420.7743 256.5,-420.7743"/>
<text text-anchor="start" x="327.9053" y="-426.8743" font-family="Helvetica,sans-Serif" font-size="11.00" fill="#000000">2 &gt;</text>
<polygon fill="none" stroke="#000000" stroke-width="2" points="172,-419.7743 172,-507.7743 347,-507.7743 347,-419.7743 172,-419.7743"/>
</a>
</g>
</g>
<!-- ProfessorCompetencyAssignments&#45;&gt;Professors -->
<g id="edge20" class="edge">
<title>ProfessorCompetencyAssignments:w&#45;&gt;Professors:e</title>
<path fill="none" stroke="#000000" d="M637.0224,-516.4756C562.1228,-516.2717 469.6136,-511.0255 389,-491.7743 368.8753,-486.9683 367.1905,-472.7743 346.5,-472.7743"/>
<polygon fill="#000000" stroke="#000000" points="643.7588,-516.4648 651.7646,-520.0518 647.7588,-516.4583 651.7588,-516.4518 651.7588,-516.4518 651.7588,-516.4518 647.7588,-516.4583 651.7529,-512.8518 643.7588,-516.4648 643.7588,-516.4648"/>
<ellipse fill="none" stroke="#000000" cx="640.5588" cy="-516.47" rx="3.2" ry="3.2"/>
</g>
<!-- Subjects -->
<g id="node14" class="node">
<title>Subjects</title>
<g id="a_node14"><a xlink:href="../../tables/Subjects.html" xlink:title="Subjects" target="_top">
<polygon fill="#ffffff" stroke="transparent" points="459.5,-420.2743 459.5,-481.2743 548.5,-481.2743 548.5,-420.2743 459.5,-420.2743"/>
<polygon fill="#f5f5f5" stroke="transparent" points="460,-457.7743 460,-480.7743 549,-480.7743 549,-457.7743 460,-457.7743"/>
<polygon fill="none" stroke="#000000" points="460,-457.7743 460,-480.7743 549,-480.7743 549,-457.7743 460,-457.7743"/>
<text text-anchor="start" x="465" y="-466.3743" font-family="Helvetica,sans-Serif" font-weight="bold" font-size="11.00" fill="#000000">Subjects</text>
<text text-anchor="start" x="514.5219" y="-465.8743" font-family="Helvetica,sans-Serif" font-size="11.00" fill="#000000">[table]</text>
<polygon fill="none" stroke="#000000" points="460,-438.7743 460,-457.7743 549,-457.7743 549,-438.7743 460,-438.7743"/>
<text text-anchor="start" x="463" y="-444.8743" font-family="Helvetica,sans-Serif" font-size="11.00" fill="#000000">...</text>
<polygon fill="#ffffff" stroke="transparent" points="460,-419.7743 460,-438.7743 485,-438.7743 485,-419.7743 460,-419.7743"/>
<polygon fill="none" stroke="#000000" points="460,-419.7743 460,-438.7743 485,-438.7743 485,-419.7743 460,-419.7743"/>
<text text-anchor="start" x="463" y="-425.8743" font-family="Helvetica,sans-Serif" font-size="11.00" fill="#000000">&lt; 4</text>
<polygon fill="#ffffff" stroke="transparent" points="485,-419.7743 485,-438.7743 525,-438.7743 525,-419.7743 485,-419.7743"/>
<polygon fill="none" stroke="#000000" points="485,-419.7743 485,-438.7743 525,-438.7743 525,-419.7743 485,-419.7743"/>
<text text-anchor="start" x="489.6105" y="-425.8743" font-family="Helvetica,sans-Serif" font-size="11.00" fill="#000000">0 rows</text>
<polygon fill="#ffffff" stroke="transparent" points="525,-419.7743 525,-438.7743 549,-438.7743 549,-419.7743 525,-419.7743"/>
<polygon fill="none" stroke="#000000" points="525,-419.7743 525,-438.7743 549,-438.7743 549,-419.7743 525,-419.7743"/>
<text text-anchor="start" x="530.4053" y="-425.8743" font-family="Helvetica,sans-Serif" font-size="11.00" fill="#000000">3 &gt;</text>
</a>
</g>
</g>
<!-- ProfessorCompetencyAssignments&#45;&gt;Subjects -->
<g id="edge21" class="edge">
<title>ProfessorCompetencyAssignments:w&#45;&gt;Subjects:e</title>
<path fill="none" stroke="#000000" d="M637.5834,-479.7093C608.5719,-473.4252 579.8483,-467.2035 556.5132,-462.149"/>
<polygon fill="#000000" stroke="#000000" points="644.0076,-481.1008 651.0641,-486.3128 647.9169,-481.9476 651.8262,-482.7944 651.8262,-482.7944 651.8262,-482.7944 647.9169,-481.9476 652.5884,-479.276 644.0076,-481.1008 644.0076,-481.1008"/>
<ellipse fill="none" stroke="#000000" cx="640.8801" cy="-480.4233" rx="3.2" ry="3.2"/>
</g>
<!-- Professors&#45;&gt;AspNetUsers -->
<g id="edge24" class="edge">
<title>Professors:w&#45;&gt;AspNetUsers:e</title>
<path fill="none" stroke="#000000" d="M162.9902,-473.5141C139.4843,-476.7745 117.2892,-490.3176 99.9858,-504.2279"/>
<polygon fill="#000000" stroke="#000000" points="172.4211,-468.8403 172.9829,-476.8206 171.3868,-476.933 170.825,-468.9527 172.4211,-468.8403"/>
<polyline fill="none" stroke="#000000" points="173.5,-472.7743 169.5099,-473.0552 "/>
<ellipse fill="none" stroke="#000000" cx="166.3178" cy="-473.2799" rx="3.2" ry="3.2"/>
</g>
<!-- Subjects&#45;&gt;AspNetUsers -->
<g id="edge44" class="edge">
<title>Subjects:w&#45;&gt;AspNetUsers:e</title>
<path fill="none" stroke="#000000" d="M437.4367,-421.4785C412.2656,-413.2963 383.1419,-405.6373 356,-401.7743 271.078,-389.6876 239.6985,-363.3664 163,-401.7743 121.2228,-422.6948 92.671,-470.82 77.5979,-504.1413"/>
<polygon fill="#000000" stroke="#000000" points="443.7871,-423.6284 450.2102,-429.6037 447.5759,-424.9111 451.3646,-426.1939 451.3646,-426.1939 451.3646,-426.1939 447.5759,-424.9111 452.5191,-422.784 443.7871,-423.6284 443.7871,-423.6284"/>
<ellipse fill="none" stroke="#000000" cx="440.7561" cy="-422.6022" rx="3.2" ry="3.2"/>
</g>
<!-- Subjects&#45;&gt;AspNetUsers -->
<g id="edge47" class="edge">
<title>Subjects:w&#45;&gt;AspNetUsers:e</title>
<path fill="none" stroke="#000000" d="M437.4367,-433.645C412.2656,-426.2963 383.1419,-418.6373 356,-414.7743 271.078,-402.6876 239.6985,-376.3664 163,-414.7743 125.4132,-433.5964 98.5318,-474.4394 82.5402,-504.1981"/>
<polygon fill="#000000" stroke="#000000" points="443.6965,-435.5065 450.3385,-441.2375 447.5306,-436.6466 451.3646,-437.7868 451.3646,-437.7868 451.3646,-437.7868 447.5306,-436.6466 452.3908,-434.3362 443.6965,-435.5065 443.6965,-435.5065"/>
<ellipse fill="none" stroke="#000000" cx="440.6293" cy="-434.5943" rx="3.2" ry="3.2"/>
</g>
<!-- Subjects&#45;&gt;TechnicalCareers -->
<g id="edge46" class="edge">
<title>Subjects:w&#45;&gt;TechnicalCareers:e</title>
<path fill="none" stroke="#000000" d="M437.6149,-436.8496C420.2946,-430.7588 402.6733,-422.0834 389,-409.7743 343.5696,-368.8766 390.6273,-285.7743 329.5,-285.7743"/>
<polygon fill="#000000" stroke="#000000" points="443.7327,-438.786 450.2733,-444.6324 447.5462,-439.9931 451.3597,-441.2002 451.3597,-441.2002 451.3597,-441.2002 447.5462,-439.9931 452.4461,-437.768 443.7327,-438.786 443.7327,-438.786"/>
<ellipse fill="none" stroke="#000000" cx="440.6819" cy="-437.8203" rx="3.2" ry="3.2"/>
</g>
<!-- Subjects&#45;&gt;Professors -->
<g id="edge45" class="edge">
<title>Subjects:w&#45;&gt;Professors:e</title>
<path fill="none" stroke="#000000" d="M436.9001,-464.3218C409.0547,-468.8532 376.339,-472.7743 346.5,-472.7743"/>
<polygon fill="#000000" stroke="#000000" points="443.5114,-463.1894 452.0044,-465.3871 447.454,-462.5141 451.3966,-461.8387 451.3966,-461.8387 451.3966,-461.8387 447.454,-462.5141 450.7887,-458.2904 443.5114,-463.1894 443.5114,-463.1894"/>
<ellipse fill="none" stroke="#000000" cx="440.3573" cy="-463.7297" rx="3.2" ry="3.2"/>
</g>
<!-- QuestionResponses -->
<g id="node15" class="node">
<title>QuestionResponses</title>
<g id="a_node15"><a xlink:href="../../tables/QuestionResponses.html" xlink:title="QuestionResponses" target="_top">
<polygon fill="#ffffff" stroke="transparent" points="1223,-674.2743 1223,-735.2743 1378,-735.2743 1378,-674.2743 1223,-674.2743"/>
<polygon fill="#f5f5f5" stroke="transparent" points="1223.5,-711.7743 1223.5,-734.7743 1378.5,-734.7743 1378.5,-711.7743 1223.5,-711.7743"/>
<polygon fill="none" stroke="#000000" points="1223.5,-711.7743 1223.5,-734.7743 1378.5,-734.7743 1378.5,-711.7743 1223.5,-711.7743"/>
<text text-anchor="start" x="1228.5" y="-720.3743" font-family="Helvetica,sans-Serif" font-weight="bold" font-size="11.00" fill="#000000">QuestionResponses</text>
<text text-anchor="start" x="1344.0219" y="-719.8743" font-family="Helvetica,sans-Serif" font-size="11.00" fill="#000000">[table]</text>
<polygon fill="none" stroke="#000000" points="1223.5,-692.7743 1223.5,-711.7743 1378.5,-711.7743 1378.5,-692.7743 1223.5,-692.7743"/>
<text text-anchor="start" x="1226.5" y="-698.8743" font-family="Helvetica,sans-Serif" font-size="11.00" fill="#000000">...</text>
<polygon fill="#ffffff" stroke="transparent" points="1223.5,-673.7743 1223.5,-692.7743 1286.5,-692.7743 1286.5,-673.7743 1223.5,-673.7743"/>
<polygon fill="none" stroke="#000000" points="1223.5,-673.7743 1223.5,-692.7743 1286.5,-692.7743 1286.5,-673.7743 1223.5,-673.7743"/>
<text text-anchor="start" x="1226.5" y="-679.8743" font-family="Helvetica,sans-Serif" font-size="11.00" fill="#000000">&lt; 4</text>
<polygon fill="#ffffff" stroke="transparent" points="1286.5,-673.7743 1286.5,-692.7743 1345.5,-692.7743 1345.5,-673.7743 1286.5,-673.7743"/>
<polygon fill="none" stroke="#000000" points="1286.5,-673.7743 1286.5,-692.7743 1345.5,-692.7743 1345.5,-673.7743 1286.5,-673.7743"/>
<text text-anchor="start" x="1310.1105" y="-679.8743" font-family="Helvetica,sans-Serif" font-size="11.00" fill="#000000">0 rows</text>
<polygon fill="#ffffff" stroke="transparent" points="1345.5,-673.7743 1345.5,-692.7743 1378.5,-692.7743 1378.5,-673.7743 1345.5,-673.7743"/>
<polygon fill="none" stroke="#000000" points="1345.5,-673.7743 1345.5,-692.7743 1378.5,-692.7743 1378.5,-673.7743 1345.5,-673.7743"/>
<text text-anchor="start" x="1369.3862" y="-679.8743" font-family="Helvetica,sans-Serif" font-size="11.00" fill="#000000"> &#160;</text>
</a>
</g>
</g>
<!-- QuestionResponses&#45;&gt;AspNetUsers -->
<g id="edge25" class="edge">
<title>QuestionResponses:w&#45;&gt;AspNetUsers:e</title>
<path fill="none" stroke="#000000" d="M1208.9387,-701.4418C1049.0028,-700.8909 260.8514,-770.9137 163,-712.7743 111.9158,-682.4221 85.7764,-615.0706 73.7756,-573.5744"/>
<polygon fill="#000000" stroke="#000000" points="1215.5021,-701.5916 1223.4178,-705.3733 1219.501,-701.683 1223.5,-701.7743 1223.5,-701.7743 1223.5,-701.7743 1219.501,-701.683 1223.5822,-698.1752 1215.5021,-701.5916 1215.5021,-701.5916"/>
<ellipse fill="none" stroke="#000000" cx="1212.3029" cy="-701.5186" rx="3.2" ry="3.2"/>
</g>
<!-- QuestionResponses&#45;&gt;AspNetUsers -->
<g id="edge28" class="edge">
<title>QuestionResponses:w&#45;&gt;AspNetUsers:e</title>
<path fill="none" stroke="#000000" d="M1208.9387,-702.7298C1049.0028,-713.8909 260.8514,-783.9137 163,-725.7743 108.2451,-693.2411 82.1486,-618.2003 71.4036,-573.6089"/>
<polygon fill="#000000" stroke="#000000" points="1215.5172,-702.2982 1223.7357,-705.3666 1219.5086,-702.0362 1223.5,-701.7743 1223.5,-701.7743 1223.5,-701.7743 1219.5086,-702.0362 1223.2643,-698.182 1215.5172,-702.2982 1215.5172,-702.2982"/>
<ellipse fill="none" stroke="#000000" cx="1212.324" cy="-702.5077" rx="3.2" ry="3.2"/>
</g>
<!-- QuestionResponses&#45;&gt;FormQuestions -->
<g id="edge26" class="edge">
<title>QuestionResponses:w&#45;&gt;FormQuestions:e</title>
<path fill="none" stroke="#000000" d="M1209.0991,-701.7203C928.3117,-699.6011 855.9453,-635.7743 568,-635.7743"/>
<polygon fill="#000000" stroke="#000000" points="1215.5001,-701.7442 1223.4865,-705.3743 1219.5,-701.7593 1223.5,-701.7743 1223.5,-701.7743 1223.5,-701.7743 1219.5,-701.7593 1223.5135,-698.1743 1215.5001,-701.7442 1215.5001,-701.7442"/>
<ellipse fill="none" stroke="#000000" cx="1212.3001" cy="-701.7322" rx="3.2" ry="3.2"/>
</g>
<!-- StudentCompetencyEvaluations -->
<g id="node16" class="node">
<title>StudentCompetencyEvaluations</title>
<g id="a_node16"><a xlink:href="../../tables/StudentCompetencyEvaluations.html" xlink:title="StudentCompetencyEvaluations" target="_top">
<polygon fill="#ffffff" stroke="transparent" points="951,-532.2743 951,-593.2743 1174,-593.2743 1174,-532.2743 951,-532.2743"/>
<polygon fill="#f5f5f5" stroke="transparent" points="951.5,-569.7743 951.5,-592.7743 1174.5,-592.7743 1174.5,-569.7743 951.5,-569.7743"/>
<polygon fill="none" stroke="#000000" points="951.5,-569.7743 951.5,-592.7743 1174.5,-592.7743 1174.5,-569.7743 951.5,-569.7743"/>
<text text-anchor="start" x="956.5" y="-578.3743" font-family="Helvetica,sans-Serif" font-weight="bold" font-size="11.00" fill="#000000">StudentCompetencyEvaluations</text>
<text text-anchor="start" x="1140.0219" y="-577.8743" font-family="Helvetica,sans-Serif" font-size="11.00" fill="#000000">[table]</text>
<polygon fill="none" stroke="#000000" points="951.5,-550.7743 951.5,-569.7743 1174.5,-569.7743 1174.5,-550.7743 951.5,-550.7743"/>
<text text-anchor="start" x="954.5" y="-556.8743" font-family="Helvetica,sans-Serif" font-size="11.00" fill="#000000">...</text>
<polygon fill="#ffffff" stroke="transparent" points="951.5,-531.7743 951.5,-550.7743 1043.5,-550.7743 1043.5,-531.7743 951.5,-531.7743"/>
<polygon fill="none" stroke="#000000" points="951.5,-531.7743 951.5,-550.7743 1043.5,-550.7743 1043.5,-531.7743 951.5,-531.7743"/>
<text text-anchor="start" x="954.5" y="-537.8743" font-family="Helvetica,sans-Serif" font-size="11.00" fill="#000000">&lt; 5</text>
<polygon fill="#ffffff" stroke="transparent" points="1043.5,-531.7743 1043.5,-550.7743 1117.5,-550.7743 1117.5,-531.7743 1043.5,-531.7743"/>
<polygon fill="none" stroke="#000000" points="1043.5,-531.7743 1043.5,-550.7743 1117.5,-550.7743 1117.5,-531.7743 1043.5,-531.7743"/>
<text text-anchor="start" x="1082.1105" y="-537.8743" font-family="Helvetica,sans-Serif" font-size="11.00" fill="#000000">0 rows</text>
<polygon fill="#ffffff" stroke="transparent" points="1117.5,-531.7743 1117.5,-550.7743 1174.5,-550.7743 1174.5,-531.7743 1117.5,-531.7743"/>
<polygon fill="none" stroke="#000000" points="1117.5,-531.7743 1117.5,-550.7743 1174.5,-550.7743 1174.5,-531.7743 1117.5,-531.7743"/>
<text text-anchor="start" x="1155.9053" y="-537.8743" font-family="Helvetica,sans-Serif" font-size="11.00" fill="#000000">1 &gt;</text>
</a>
</g>
</g>
<!-- QuestionResponses&#45;&gt;StudentCompetencyEvaluations -->
<g id="edge27" class="edge">
<title>QuestionResponses:w&#45;&gt;StudentCompetencyEvaluations:e</title>
<path fill="none" stroke="#000000" d="M1208.9494,-698.5416C1170.7041,-677.4049 1235.2647,-559.7743 1174.5,-559.7743"/>
<polygon fill="#000000" stroke="#000000" points="1215.6904,-700.0392 1222.7192,-705.2886 1219.5952,-700.9067 1223.5,-701.7743 1223.5,-701.7743 1223.5,-701.7743 1219.5952,-700.9067 1224.2808,-698.26 1215.6904,-700.0392 1215.6904,-700.0392"/>
<ellipse fill="none" stroke="#000000" cx="1212.5666" cy="-699.3452" rx="3.2" ry="3.2"/>
</g>
<!-- StudentCompetencyEvaluations&#45;&gt;AspNetUsers -->
<g id="edge29" class="edge">
<title>StudentCompetencyEvaluations:w&#45;&gt;AspNetUsers:e</title>
<path fill="none" stroke="#000000" d="M937.019,-559.5311C598.5142,-553.956 508.1151,-560.2205 163,-541.7743 152.3368,-541.2043 141.039,-540.3762 130.052,-539.5373"/>
<polygon fill="#000000" stroke="#000000" points="943.5011,-559.6399 951.4395,-563.3738 947.5006,-559.7071 951.5,-559.7743 951.5,-559.7743 951.5,-559.7743 947.5006,-559.7071 951.5605,-556.1748 943.5011,-559.6399 943.5011,-559.6399"/>
<ellipse fill="none" stroke="#000000" cx="940.3016" cy="-559.5861" rx="3.2" ry="3.2"/>
</g>
<!-- StudentCompetencyEvaluations&#45;&gt;AspNetUsers -->
<g id="edge33" class="edge">
<title>StudentCompetencyEvaluations:w&#45;&gt;AspNetUsers:e</title>
<path fill="none" stroke="#000000" d="M937.019,-560.0663C598.5142,-566.956 508.1151,-573.2205 163,-554.7743 152.3368,-554.2043 141.039,-553.3762 130.052,-552.3482"/>
<polygon fill="#000000" stroke="#000000" points="943.5016,-559.9356 951.5726,-563.3736 947.5008,-559.855 951.5,-559.7743 951.5,-559.7743 951.5,-559.7743 947.5008,-559.855 951.4274,-556.175 943.5016,-559.9356 943.5016,-559.9356"/>
<ellipse fill="none" stroke="#000000" cx="940.3023" cy="-560.0002" rx="3.2" ry="3.2"/>
</g>
<!-- StudentCompetencyEvaluations&#45;&gt;ProfessorCompetencyAssignments -->
<g id="edge30" class="edge">
<title>StudentCompetencyEvaluations:w&#45;&gt;ProfessorCompetencyAssignments:e</title>
<path fill="none" stroke="#000000" d="M937.1048,-559.2602C913.1806,-557.5981 888.675,-552.084 866.3805,-545.3377"/>
<polygon fill="#000000" stroke="#000000" points="943.5051,-559.4887 951.3715,-563.372 947.5025,-559.6315 951.5,-559.7743 951.5,-559.7743 951.5,-559.7743 947.5025,-559.6315 951.6285,-556.1766 943.5051,-559.4887 943.5051,-559.4887"/>
<ellipse fill="none" stroke="#000000" cx="940.3071" cy="-559.3745" rx="3.2" ry="3.2"/>
</g>
<!-- StudentCompetencyEvaluations&#45;&gt;Subjects -->
<g id="edge32" class="edge">
<title>StudentCompetencyEvaluations:w&#45;&gt;Subjects:e</title>
<path fill="none" stroke="#000000" d="M937.4076,-556.19C916.9486,-542.1891 941.3959,-490.921 910,-469.7743 802.3129,-397.2417 639.6858,-419.1593 556.7262,-437.2254"/>
<polygon fill="#000000" stroke="#000000" points="943.7468,-557.8023 950.6126,-563.2632 947.6234,-558.7883 951.5,-559.7743 951.5,-559.7743 951.5,-559.7743 947.6234,-558.7883 952.3874,-556.2854 943.7468,-557.8023 943.7468,-557.8023"/>
<ellipse fill="none" stroke="#000000" cx="940.6456" cy="-557.0135" rx="3.2" ry="3.2"/>
</g>
<!-- Students -->
<g id="node17" class="node">
<title>Students</title>
<g id="a_node17"><a xlink:href="../../tables/Students.html" xlink:title="Students" target="_top">
<polygon fill="#ffffff" stroke="transparent" points="459,-228.2743 459,-289.2743 549,-289.2743 549,-228.2743 459,-228.2743"/>
<polygon fill="#f5f5f5" stroke="transparent" points="459,-265.7743 459,-288.7743 549,-288.7743 549,-265.7743 459,-265.7743"/>
<polygon fill="none" stroke="#000000" points="459,-265.7743 459,-288.7743 549,-288.7743 549,-265.7743 459,-265.7743"/>
<text text-anchor="start" x="464" y="-274.3743" font-family="Helvetica,sans-Serif" font-weight="bold" font-size="11.00" fill="#000000">Students</text>
<text text-anchor="start" x="514.5219" y="-273.8743" font-family="Helvetica,sans-Serif" font-size="11.00" fill="#000000">[table]</text>
<polygon fill="none" stroke="#000000" points="459,-246.7743 459,-265.7743 549,-265.7743 549,-246.7743 459,-246.7743"/>
<text text-anchor="start" x="462" y="-252.8743" font-family="Helvetica,sans-Serif" font-size="11.00" fill="#000000">...</text>
<polygon fill="#ffffff" stroke="transparent" points="459,-227.7743 459,-246.7743 485,-246.7743 485,-227.7743 459,-227.7743"/>
<polygon fill="none" stroke="#000000" points="459,-227.7743 459,-246.7743 485,-246.7743 485,-227.7743 459,-227.7743"/>
<text text-anchor="start" x="462" y="-233.8743" font-family="Helvetica,sans-Serif" font-size="11.00" fill="#000000">&lt; 2</text>
<polygon fill="#ffffff" stroke="transparent" points="485,-227.7743 485,-246.7743 525,-246.7743 525,-227.7743 485,-227.7743"/>
<polygon fill="none" stroke="#000000" points="485,-227.7743 485,-246.7743 525,-246.7743 525,-227.7743 485,-227.7743"/>
<text text-anchor="start" x="489.6105" y="-233.8743" font-family="Helvetica,sans-Serif" font-size="11.00" fill="#000000">0 rows</text>
<polygon fill="#ffffff" stroke="transparent" points="525,-227.7743 525,-246.7743 549,-246.7743 549,-227.7743 525,-227.7743"/>
<polygon fill="none" stroke="#000000" points="525,-227.7743 525,-246.7743 549,-246.7743 549,-227.7743 525,-227.7743"/>
<text text-anchor="start" x="530.4053" y="-233.8743" font-family="Helvetica,sans-Serif" font-size="11.00" fill="#000000">3 &gt;</text>
</a>
</g>
</g>
<!-- StudentCompetencyEvaluations&#45;&gt;Students -->
<g id="edge31" class="edge">
<title>StudentCompetencyEvaluations:w&#45;&gt;Students:e</title>
<path fill="none" stroke="#000000" d="M936.9969,-557.7091C896.4408,-543.741 949.6591,-462.2787 910,-416.7743 852.2875,-350.5556 636.8388,-255.7743 549,-255.7743"/>
<polygon fill="#000000" stroke="#000000" points="943.5799,-558.6464 950.9925,-563.3383 947.5399,-559.2104 951.5,-559.7743 951.5,-559.7743 951.5,-559.7743 947.5399,-559.2104 952.0075,-556.2102 943.5799,-558.6464 943.5799,-558.6464"/>
<ellipse fill="none" stroke="#000000" cx="940.4119" cy="-558.1953" rx="3.2" ry="3.2"/>
</g>
<!-- Students&#45;&gt;AspNetUsers -->
<g id="edge39" class="edge">
<title>Students:w&#45;&gt;AspNetUsers:e</title>
<path fill="none" stroke="#000000" d="M448.3681,-255.5891C324.2141,-251.2584 266.9586,-173.0889 163,-247.7743 120.4091,-278.3722 85.3988,-433.8246 71.4743,-504.143"/>
<polygon fill="#000000" stroke="#000000" points="458.2698,-251.761 458.1304,-259.7597 456.5307,-259.7319 456.67,-251.7331 458.2698,-251.761"/>
<polyline fill="none" stroke="#000000" points="459,-255.7743 455.0006,-255.7046 "/>
<ellipse fill="none" stroke="#000000" cx="451.8011" cy="-255.6489" rx="3.2" ry="3.2"/>
</g>
<!-- Students&#45;&gt;TechnicalCareers -->
<g id="edge38" class="edge">
<title>Students:w&#45;&gt;TechnicalCareers:e</title>
<path fill="none" stroke="#000000" d="M444.4638,-256.4288C397.558,-260.816 383.3872,-285.7743 329.5,-285.7743"/>
<polygon fill="#000000" stroke="#000000" points="451.0081,-256.1342 459.1619,-259.3706 455.004,-255.9542 459,-255.7743 459,-255.7743 459,-255.7743 455.004,-255.9542 458.8381,-252.1779 451.0081,-256.1342 451.0081,-256.1342"/>
<ellipse fill="none" stroke="#000000" cx="447.8113" cy="-256.2781" rx="3.2" ry="3.2"/>
</g>
<!-- StudentEvaluationReport -->
<g id="node18" class="node">
<title>StudentEvaluationReport</title>
<g id="a_node18"><a xlink:href="../../tables/StudentEvaluationReport.html" xlink:title="StudentEvaluationReport" target="_top">
<polygon fill="#ffffff" stroke="transparent" points="689.5,-74.2743 689.5,-135.2743 872.5,-135.2743 872.5,-74.2743 689.5,-74.2743"/>
<polygon fill="#f5f5f5" stroke="transparent" points="690,-111.7743 690,-134.7743 873,-134.7743 873,-111.7743 690,-111.7743"/>
<polygon fill="none" stroke="#000000" points="690,-111.7743 690,-134.7743 873,-134.7743 873,-111.7743 690,-111.7743"/>
<text text-anchor="start" x="695" y="-120.3743" font-family="Helvetica,sans-Serif" font-weight="bold" font-size="11.00" fill="#000000">StudentEvaluationReport</text>
<text text-anchor="start" x="838.5219" y="-119.8743" font-family="Helvetica,sans-Serif" font-size="11.00" fill="#000000">[table]</text>
<polygon fill="none" stroke="#000000" points="690,-92.7743 690,-111.7743 873,-111.7743 873,-92.7743 690,-92.7743"/>
<text text-anchor="start" x="693" y="-98.8743" font-family="Helvetica,sans-Serif" font-size="11.00" fill="#000000">...</text>
<polygon fill="#ffffff" stroke="transparent" points="690,-73.7743 690,-92.7743 767,-92.7743 767,-73.7743 690,-73.7743"/>
<polygon fill="none" stroke="#000000" points="690,-73.7743 690,-92.7743 767,-92.7743 767,-73.7743 690,-73.7743"/>
<text text-anchor="start" x="693" y="-79.8743" font-family="Helvetica,sans-Serif" font-size="11.00" fill="#000000">&lt; 4</text>
<polygon fill="#ffffff" stroke="transparent" points="767,-73.7743 767,-92.7743 833,-92.7743 833,-73.7743 767,-73.7743"/>
<polygon fill="none" stroke="#000000" points="767,-73.7743 767,-92.7743 833,-92.7743 833,-73.7743 767,-73.7743"/>
<text text-anchor="start" x="797.6105" y="-79.8743" font-family="Helvetica,sans-Serif" font-size="11.00" fill="#000000">0 rows</text>
<polygon fill="#ffffff" stroke="transparent" points="833,-73.7743 833,-92.7743 873,-92.7743 873,-73.7743 833,-73.7743"/>
<polygon fill="none" stroke="#000000" points="833,-73.7743 833,-92.7743 873,-92.7743 873,-73.7743 833,-73.7743"/>
<text text-anchor="start" x="863.8862" y="-79.8743" font-family="Helvetica,sans-Serif" font-size="11.00" fill="#000000"> &#160;</text>
</a>
</g>
</g>
<!-- StudentEvaluationReport&#45;&gt;AspNetUsers -->
<g id="edge34" class="edge">
<title>StudentEvaluationReport:w&#45;&gt;AspNetUsers:e</title>
<path fill="none" stroke="#000000" d="M675.408,-101.2204C451.0984,-89.9376 341.5101,43.1681 163,-100.7743 100.1395,-151.4622 74.4641,-409.6885 67.2666,-504.164"/>
<polygon fill="#000000" stroke="#000000" points="682.0058,-101.4708 689.8634,-105.3717 686.0029,-101.6225 690,-101.7743 690,-101.7743 690,-101.7743 686.0029,-101.6225 690.1366,-98.1769 682.0058,-101.4708 682.0058,-101.4708"/>
<ellipse fill="none" stroke="#000000" cx="678.8081" cy="-101.3494" rx="3.2" ry="3.2"/>
</g>
<!-- StudentEvaluationReport&#45;&gt;AspNetUsers -->
<g id="edge37" class="edge">
<title>StudentEvaluationReport:w&#45;&gt;AspNetUsers:e</title>
<path fill="none" stroke="#000000" d="M675.408,-102.0222C451.0984,-102.9376 341.5101,30.1681 163,-113.7743 101.4865,-163.376 75.5815,-411.7169 67.7549,-504.1441"/>
<polygon fill="#000000" stroke="#000000" points="682.0012,-101.9102 690.0612,-105.3738 686.0006,-101.8423 690,-101.7743 690,-101.7743 690,-101.7743 686.0006,-101.8423 689.9388,-98.1748 682.0012,-101.9102 682.0012,-101.9102"/>
<ellipse fill="none" stroke="#000000" cx="678.8016" cy="-101.9646" rx="3.2" ry="3.2"/>
</g>
<!-- StudentEvaluationReport&#45;&gt;EvaluationPeriods -->
<g id="edge35" class="edge">
<title>StudentEvaluationReport:w&#45;&gt;EvaluationPeriods:e</title>
<path fill="none" stroke="#000000" d="M675.5965,-103.0702C573.3579,-122.9864 698.5634,-365.7743 576,-365.7743"/>
<polygon fill="#000000" stroke="#000000" points="682.0322,-102.4912 690.3226,-105.3598 686.0161,-102.1328 690,-101.7743 690,-101.7743 690,-101.7743 686.0161,-102.1328 689.6774,-98.1888 682.0322,-102.4912 682.0322,-102.4912"/>
<ellipse fill="none" stroke="#000000" cx="678.8451" cy="-102.778" rx="3.2" ry="3.2"/>
</g>
<!-- StudentEvaluationReport&#45;&gt;Students -->
<g id="edge36" class="edge">
<title>StudentEvaluationReport:w&#45;&gt;Students:e</title>
<path fill="none" stroke="#000000" d="M675.591,-103.5718C635.0145,-115.1542 658.8125,-179.9764 619,-217.7743 593.3276,-242.1477 584.3997,-255.7743 549,-255.7743"/>
<polygon fill="#000000" stroke="#000000" points="682.0615,-102.7646 690.4457,-105.3466 686.0308,-102.2695 690,-101.7743 690,-101.7743 690,-101.7743 686.0308,-102.2695 689.5543,-98.202 682.0615,-102.7646 682.0615,-102.7646"/>
<ellipse fill="none" stroke="#000000" cx="678.8861" cy="-103.1608" rx="3.2" ry="3.2"/>
</g>
<!-- StudentSubjects -->
<g id="node19" class="node">
<title>StudentSubjects</title>
<g id="a_node19"><a xlink:href="../../tables/StudentSubjects.html" xlink:title="StudentSubjects" target="_top">
<polygon fill="#ffffff" stroke="transparent" points="714.5,-204.2743 714.5,-265.2743 847.5,-265.2743 847.5,-204.2743 714.5,-204.2743"/>
<polygon fill="#f5f5f5" stroke="transparent" points="715,-241.7743 715,-264.7743 848,-264.7743 848,-241.7743 715,-241.7743"/>
<polygon fill="none" stroke="#000000" points="715,-241.7743 715,-264.7743 848,-264.7743 848,-241.7743 715,-241.7743"/>
<text text-anchor="start" x="720" y="-250.3743" font-family="Helvetica,sans-Serif" font-weight="bold" font-size="11.00" fill="#000000">StudentSubjects</text>
<text text-anchor="start" x="813.5219" y="-249.8743" font-family="Helvetica,sans-Serif" font-size="11.00" fill="#000000">[table]</text>
<polygon fill="none" stroke="#000000" points="715,-222.7743 715,-241.7743 848,-241.7743 848,-222.7743 715,-222.7743"/>
<text text-anchor="start" x="718" y="-228.8743" font-family="Helvetica,sans-Serif" font-size="11.00" fill="#000000">...</text>
<polygon fill="#ffffff" stroke="transparent" points="715,-203.7743 715,-222.7743 767,-222.7743 767,-203.7743 715,-203.7743"/>
<polygon fill="none" stroke="#000000" points="715,-203.7743 715,-222.7743 767,-222.7743 767,-203.7743 715,-203.7743"/>
<text text-anchor="start" x="718" y="-209.8743" font-family="Helvetica,sans-Serif" font-size="11.00" fill="#000000">&lt; 4</text>
<polygon fill="#ffffff" stroke="transparent" points="767,-203.7743 767,-222.7743 820,-222.7743 820,-203.7743 767,-203.7743"/>
<polygon fill="none" stroke="#000000" points="767,-203.7743 767,-222.7743 820,-222.7743 820,-203.7743 767,-203.7743"/>
<text text-anchor="start" x="784.6105" y="-209.8743" font-family="Helvetica,sans-Serif" font-size="11.00" fill="#000000">0 rows</text>
<polygon fill="#ffffff" stroke="transparent" points="820,-203.7743 820,-222.7743 848,-222.7743 848,-203.7743 820,-203.7743"/>
<polygon fill="none" stroke="#000000" points="820,-203.7743 820,-222.7743 848,-222.7743 848,-203.7743 820,-203.7743"/>
<text text-anchor="start" x="838.8862" y="-209.8743" font-family="Helvetica,sans-Serif" font-size="11.00" fill="#000000"> &#160;</text>
</a>
</g>
</g>
<!-- StudentSubjects&#45;&gt;AspNetUsers -->
<g id="edge40" class="edge">
<title>StudentSubjects:w&#45;&gt;AspNetUsers:e</title>
<path fill="none" stroke="#000000" d="M700.8478,-228.7209C657.6053,-213.3431 669.8471,-150.8358 619,-129.7743 525.2506,-90.942 239.8358,-87.4934 163,-153.7743 109.8661,-199.6091 78.6866,-418.1031 68.6154,-504.0342"/>
<polygon fill="#000000" stroke="#000000" points="707.1799,-230.0871 714.2407,-235.2933 711.09,-230.9307 715,-231.7743 715,-231.7743 715,-231.7743 711.09,-230.9307 715.7593,-228.2553 707.1799,-230.0871 707.1799,-230.0871"/>
<ellipse fill="none" stroke="#000000" cx="704.0519" cy="-229.4122" rx="3.2" ry="3.2"/>
</g>
<!-- StudentSubjects&#45;&gt;AspNetUsers -->
<g id="edge43" class="edge">
<title>StudentSubjects:w&#45;&gt;AspNetUsers:e</title>
<path fill="none" stroke="#000000" d="M700.5708,-231.82C657.6574,-226.0756 669.7382,-163.7907 619,-142.7743 525.2506,-103.942 239.8358,-100.4934 163,-166.7743 111.1527,-211.4993 80.2093,-420.6235 69.3841,-504.224"/>
<polygon fill="#000000" stroke="#000000" points="707,-231.7997 715.0114,-235.3743 711,-231.787 715,-231.7743 715,-231.7743 715,-231.7743 711,-231.787 714.9886,-228.1743 707,-231.7997 707,-231.7997"/>
<ellipse fill="none" stroke="#000000" cx="703.8001" cy="-231.8099" rx="3.2" ry="3.2"/>
</g>
<!-- StudentSubjects&#45;&gt;Subjects -->
<g id="edge42" class="edge">
<title>StudentSubjects:w&#45;&gt;Subjects:e</title>
<path fill="none" stroke="#000000" d="M700.2822,-233.048C632.1574,-246.0164 683.0739,-354.7757 619,-409.7743 601.3884,-424.8914 577.8029,-434.5776 556.5763,-440.7129"/>
<polygon fill="#000000" stroke="#000000" points="707.0298,-232.4641 715.3104,-235.3609 711.0149,-232.1192 715,-231.7743 715,-231.7743 715,-231.7743 711.0149,-232.1192 714.6896,-228.1877 707.0298,-232.4641 707.0298,-232.4641"/>
<ellipse fill="none" stroke="#000000" cx="703.8417" cy="-232.74" rx="3.2" ry="3.2"/>
</g>
<!-- StudentSubjects&#45;&gt;Students -->
<g id="edge41" class="edge">
<title>StudentSubjects:w&#45;&gt;Students:e</title>
<path fill="none" stroke="#000000" d="M700.4836,-232.0954C637.8739,-234.9434 618.449,-255.7743 549,-255.7743"/>
<polygon fill="#000000" stroke="#000000" points="707.002,-231.9513 715.0796,-235.3734 711.001,-231.8628 715,-231.7743 715,-231.7743 715,-231.7743 711.001,-231.8628 714.9204,-228.1752 707.002,-231.9513 707.002,-231.9513"/>
<ellipse fill="none" stroke="#000000" cx="703.8027" cy="-232.0221" rx="3.2" ry="3.2"/>
</g>
</g>
</svg>
