<?xml version="1.0" encoding="UTF-8" standalone="no"?>
<!DOCTYPE svg PUBLIC "-//W3C//DTD SVG 1.1//EN"
 "http://www.w3.org/Graphics/SVG/1.1/DTD/svg11.dtd">
<!-- Generated by graphviz version 2.40.1 (20161225.0304)
 -->
<!-- Title: oneDegreeRelationshipsDiagram Pages: 1 -->
<svg width="878pt" height="414pt"
 viewBox="0.00 0.00 878.00 414.20" xmlns="http://www.w3.org/2000/svg" xmlns:xlink="http://www.w3.org/1999/xlink">
<g id="graph0" class="graph" transform="scale(1 1) rotate(0) translate(4 410.2)">
<title>oneDegreeRelationshipsDiagram</title>
<polygon fill="#ffffff" stroke="transparent" points="-4,4 -4,-410.2 874,-410.2 874,4 -4,4"/>
<text text-anchor="middle" x="72.4936" y="-7.3" font-family="Helvetica,sans-Serif" font-size="11.00" fill="#000000">Generated by SchemaSpy</text>
<!-- ProfessorCompetencyAssignments -->
<g id="node1" class="node">
<title>ProfessorCompetencyAssignments</title>
<g id="a_node1"><a xlink:href="../../tables/ProfessorCompetencyAssignments.html" xlink:title="ProfessorCompetencyAssignments" target="_top">
<polygon fill="#ffffff" stroke="transparent" points="620,-165.2 620,-402.2 862,-402.2 862,-165.2 620,-165.2"/>
<polygon fill="#f5f5f5" stroke="transparent" points="620,-378.7 620,-401.7 862,-401.7 862,-378.7 620,-378.7"/>
<polygon fill="none" stroke="#000000" points="620,-378.7 620,-401.7 862,-401.7 862,-378.7 620,-378.7"/>
<text text-anchor="start" x="625" y="-387.3" font-family="Helvetica,sans-Serif" font-weight="bold" font-size="11.00" fill="#000000">ProfessorCompetencyAssignments</text>
<text text-anchor="start" x="827.5219" y="-386.8" font-family="Helvetica,sans-Serif" font-size="11.00" fill="#000000">[table]</text>
<polygon fill="none" stroke="#000000" points="620,-356.7 620,-378.7 862,-378.7 862,-356.7 620,-356.7"/>
<image xlink:href="../../images/primaryKeys.png" width="11px" height="12px" preserveAspectRatio="xMinYMin meet" x="625" y="-373.7"/>
<text text-anchor="start" x="649" y="-363.8" font-family="Helvetica,sans-Serif" font-size="11.00" fill="#000000">Id</text>
<polygon fill="#ffffff" stroke="transparent" points="620,-334.7 620,-356.7 862,-356.7 862,-334.7 620,-334.7"/>
<polygon fill="none" stroke="#000000" points="620,-334.7 620,-356.7 862,-356.7 862,-334.7 620,-334.7"/>
<image xlink:href="../../images/foreignKeys.png" width="11px" height="12px" preserveAspectRatio="xMinYMin meet" x="625" y="-351.7"/>
<text text-anchor="start" x="649" y="-341.8" font-family="Helvetica,sans-Serif" font-size="11.00" fill="#000000">TechnicalCareerId</text>
<polygon fill="#ffffff" stroke="transparent" points="620,-312.7 620,-334.7 862,-334.7 862,-312.7 620,-312.7"/>
<polygon fill="none" stroke="#000000" points="620,-312.7 620,-334.7 862,-334.7 862,-312.7 620,-312.7"/>
<image xlink:href="../../images/foreignKeys.png" width="11px" height="12px" preserveAspectRatio="xMinYMin meet" x="625" y="-329.7"/>
<text text-anchor="start" x="649" y="-319.8" font-family="Helvetica,sans-Serif" font-size="11.00" fill="#000000">CompetencyId</text>
<polygon fill="#ffffff" stroke="transparent" points="620,-290.7 620,-312.7 862,-312.7 862,-290.7 620,-290.7"/>
<polygon fill="none" stroke="#000000" points="620,-290.7 620,-312.7 862,-312.7 862,-290.7 620,-290.7"/>
<image xlink:href="../../images/foreignKeys.png" width="11px" height="12px" preserveAspectRatio="xMinYMin meet" x="625" y="-307.7"/>
<text text-anchor="start" x="649" y="-297.8" font-family="Helvetica,sans-Serif" font-size="11.00" fill="#000000">EvaluationPeriodId</text>
<polygon fill="#ffffff" stroke="transparent" points="620,-268.7 620,-290.7 862,-290.7 862,-268.7 620,-268.7"/>
<polygon fill="none" stroke="#000000" points="620,-268.7 620,-290.7 862,-290.7 862,-268.7 620,-268.7"/>
<image xlink:href="../../images/foreignKeys.png" width="11px" height="12px" preserveAspectRatio="xMinYMin meet" x="625" y="-285.7"/>
<text text-anchor="start" x="649" y="-275.8" font-family="Helvetica,sans-Serif" font-size="11.00" fill="#000000">CreatedByUserId</text>
<polygon fill="#ffffff" stroke="transparent" points="620,-246.7 620,-268.7 862,-268.7 862,-246.7 620,-246.7"/>
<polygon fill="none" stroke="#000000" points="620,-246.7 620,-268.7 862,-268.7 862,-246.7 620,-246.7"/>
<image xlink:href="../../images/foreignKeys.png" width="11px" height="12px" preserveAspectRatio="xMinYMin meet" x="625" y="-263.7"/>
<text text-anchor="start" x="649" y="-253.8" font-family="Helvetica,sans-Serif" font-size="11.00" fill="#000000">UpdatedByUserId</text>
<polygon fill="#ffffff" stroke="transparent" points="620,-224.7 620,-246.7 862,-246.7 862,-224.7 620,-224.7"/>
<polygon fill="none" stroke="#000000" points="620,-224.7 620,-246.7 862,-246.7 862,-224.7 620,-224.7"/>
<image xlink:href="../../images/foreignKeys.png" width="11px" height="12px" preserveAspectRatio="xMinYMin meet" x="625" y="-241.7"/>
<text text-anchor="start" x="649" y="-231.8" font-family="Helvetica,sans-Serif" font-size="11.00" fill="#000000">ProfessorUserId</text>
<polygon fill="#ffffff" stroke="transparent" points="620,-202.7 620,-224.7 862,-224.7 862,-202.7 620,-202.7"/>
<polygon fill="none" stroke="#000000" points="620,-202.7 620,-224.7 862,-224.7 862,-202.7 620,-202.7"/>
<image xlink:href="../../images/foreignKeys.png" width="11px" height="12px" preserveAspectRatio="xMinYMin meet" x="625" y="-219.7"/>
<text text-anchor="start" x="649" y="-209.8" font-family="Helvetica,sans-Serif" font-size="11.00" fill="#000000">SubjectId</text>
<polygon fill="none" stroke="#000000" points="620,-183.7 620,-202.7 862,-202.7 862,-183.7 620,-183.7"/>
<text text-anchor="start" x="623" y="-189.8" font-family="Helvetica,sans-Serif" font-size="11.00" fill="#000000">...</text>
<polygon fill="#ffffff" stroke="transparent" points="620,-164.7 620,-183.7 722,-183.7 722,-164.7 620,-164.7"/>
<polygon fill="none" stroke="#000000" points="620,-164.7 620,-183.7 722,-183.7 722,-164.7 620,-164.7"/>
<text text-anchor="start" x="623" y="-170.8" font-family="Helvetica,sans-Serif" font-size="11.00" fill="#000000">&lt; 7</text>
<polygon fill="#ffffff" stroke="transparent" points="722,-164.7 722,-183.7 800,-183.7 800,-164.7 722,-164.7"/>
<polygon fill="none" stroke="#000000" points="722,-164.7 722,-183.7 800,-183.7 800,-164.7 722,-164.7"/>
<text text-anchor="start" x="764.6105" y="-170.8" font-family="Helvetica,sans-Serif" font-size="11.00" fill="#000000">0 rows</text>
<polygon fill="#ffffff" stroke="transparent" points="800,-164.7 800,-183.7 862,-183.7 862,-164.7 800,-164.7"/>
<polygon fill="none" stroke="#000000" points="800,-164.7 800,-183.7 862,-183.7 862,-164.7 800,-164.7"/>
<text text-anchor="start" x="843.4053" y="-170.8" font-family="Helvetica,sans-Serif" font-size="11.00" fill="#000000">1 &gt;</text>
</a>
</g>
</g>
<!-- AspNetUsers -->
<g id="node2" class="node">
<title>AspNetUsers</title>
<g id="a_node2"><a xlink:href="../../tables/AspNetUsers.html" xlink:title="AspNetUsers" target="_top">
<polygon fill="#ffffff" stroke="transparent" points="8,-106.2 8,-233.2 171,-233.2 171,-106.2 8,-106.2"/>
<polygon fill="#f5f5f5" stroke="transparent" points="8.5,-209.7 8.5,-232.7 171.5,-232.7 171.5,-209.7 8.5,-209.7"/>
<polygon fill="none" stroke="#000000" points="8.5,-209.7 8.5,-232.7 171.5,-232.7 171.5,-209.7 8.5,-209.7"/>
<text text-anchor="start" x="13.5" y="-218.3" font-family="Helvetica,sans-Serif" font-weight="bold" font-size="11.00" fill="#000000">AspNetUsers</text>
<text text-anchor="start" x="136.5437" y="-217.8" font-family="Helvetica,sans-Serif" font-size="11.00" fill="#000000">[table]</text>
<polygon fill="none" stroke="#000000" points="8.5,-187.7 8.5,-209.7 171.5,-209.7 171.5,-187.7 8.5,-187.7"/>
<image xlink:href="../../images/primaryKeys.png" width="11px" height="12px" preserveAspectRatio="xMinYMin meet" x="13.5" y="-204.7"/>
<text text-anchor="start" x="28.5" y="-194.8" font-family="Helvetica,sans-Serif" font-size="11.00" fill="#000000">Id</text>
<polygon fill="#ffffff" stroke="transparent" points="8.5,-165.7 8.5,-187.7 171.5,-187.7 171.5,-165.7 8.5,-165.7"/>
<polygon fill="none" stroke="#000000" points="8.5,-165.7 8.5,-187.7 171.5,-187.7 171.5,-165.7 8.5,-165.7"/>
<text text-anchor="start" x="28.5" y="-172.8" font-family="Helvetica,sans-Serif" font-size="11.00" fill="#000000">NormalizedUserName</text>
<polygon fill="#ffffff" stroke="transparent" points="8.5,-143.7 8.5,-165.7 171.5,-165.7 171.5,-143.7 8.5,-143.7"/>
<polygon fill="none" stroke="#000000" points="8.5,-143.7 8.5,-165.7 171.5,-165.7 171.5,-143.7 8.5,-143.7"/>
<text text-anchor="start" x="28.5" y="-150.8" font-family="Helvetica,sans-Serif" font-size="11.00" fill="#000000">NormalizedEmail</text>
<polygon fill="none" stroke="#000000" points="8.5,-124.7 8.5,-143.7 171.5,-143.7 171.5,-124.7 8.5,-124.7"/>
<text text-anchor="start" x="11.5" y="-130.8" font-family="Helvetica,sans-Serif" font-size="11.00" fill="#000000">...</text>
<polygon fill="#ffffff" stroke="transparent" points="8.5,-105.7 8.5,-124.7 66.5,-124.7 66.5,-105.7 8.5,-105.7"/>
<polygon fill="none" stroke="#000000" points="8.5,-105.7 8.5,-124.7 66.5,-124.7 66.5,-105.7 8.5,-105.7"/>
<text text-anchor="start" x="11.5" y="-111.8" font-family="Helvetica,sans-Serif" font-size="11.00" fill="#000000"> &#160;</text>
<polygon fill="#ffffff" stroke="transparent" points="66.5,-105.7 66.5,-124.7 121.5,-124.7 121.5,-105.7 66.5,-105.7"/>
<polygon fill="none" stroke="#000000" points="66.5,-105.7 66.5,-124.7 121.5,-124.7 121.5,-105.7 66.5,-105.7"/>
<text text-anchor="start" x="91.6105" y="-111.8" font-family="Helvetica,sans-Serif" font-size="11.00" fill="#000000">1 row</text>
<polygon fill="#ffffff" stroke="transparent" points="121.5,-105.7 121.5,-124.7 171.5,-124.7 171.5,-105.7 121.5,-105.7"/>
<polygon fill="none" stroke="#000000" points="121.5,-105.7 121.5,-124.7 171.5,-124.7 171.5,-105.7 121.5,-105.7"/>
<text text-anchor="start" x="146.7904" y="-111.8" font-family="Helvetica,sans-Serif" font-size="11.00" fill="#000000">29 &gt;</text>
</a>
</g>
</g>
<!-- ProfessorCompetencyAssignments&#45;&gt;AspNetUsers -->
<g id="edge1" class="edge">
<title>ProfessorCompetencyAssignments:w&#45;&gt;AspNetUsers:e</title>
<path fill="none" stroke="#000000" d="M605.3648,-279.8837C434.6725,-284.1768 363.2942,-361.4378 212,-270.7 180.5135,-251.8162 208.2151,-198.7 171.5,-198.7"/>
<polygon fill="#000000" stroke="#000000" points="612.0006,-279.8005 620.0452,-283.2997 616.0003,-279.7502 620,-279.7 620,-279.7 620,-279.7 616.0003,-279.7502 619.9548,-276.1003 612.0006,-279.8005 612.0006,-279.8005"/>
<ellipse fill="none" stroke="#000000" cx="608.8009" cy="-279.8407" rx="3.2" ry="3.2"/>
</g>
<!-- ProfessorCompetencyAssignments&#45;&gt;AspNetUsers -->
<g id="edge4" class="edge">
<title>ProfessorCompetencyAssignments:w&#45;&gt;AspNetUsers:e</title>
<path fill="none" stroke="#000000" d="M605.4074,-257.8894C506.2267,-260.2259 289.8139,-282.7596 212,-245.7 187.1049,-233.8435 199.0744,-198.7 171.5,-198.7"/>
<polygon fill="#000000" stroke="#000000" points="612.0007,-257.8039 620.0468,-261.2997 616.0003,-257.752 620,-257.7 620,-257.7 620,-257.7 616.0003,-257.752 619.9532,-254.1003 612.0007,-257.8039 612.0007,-257.8039"/>
<ellipse fill="none" stroke="#000000" cx="608.8009" cy="-257.8455" rx="3.2" ry="3.2"/>
</g>
<!-- Professors -->
<g id="node3" class="node">
<title>Professors</title>
<g id="a_node3"><a xlink:href="../../tables/Professors.html" xlink:title="Professors" target="_top">
<polygon fill="#ffffff" stroke="transparent" points="220,-144.7 220,-234.7 397,-234.7 397,-144.7 220,-144.7"/>
<polygon fill="#f5f5f5" stroke="transparent" points="222.5,-209.7 222.5,-232.7 395.5,-232.7 395.5,-209.7 222.5,-209.7"/>
<polygon fill="none" stroke="#000000" points="222.5,-209.7 222.5,-232.7 395.5,-232.7 395.5,-209.7 222.5,-209.7"/>
<text text-anchor="start" x="227.5" y="-218.3" font-family="Helvetica,sans-Serif" font-weight="bold" font-size="11.00" fill="#000000">Professors</text>
<text text-anchor="start" x="360.5437" y="-217.8" font-family="Helvetica,sans-Serif" font-size="11.00" fill="#000000">[table]</text>
<polygon fill="none" stroke="#000000" points="222.5,-187.7 222.5,-209.7 305.5,-209.7 305.5,-187.7 222.5,-187.7"/>
<image xlink:href="../../images/primaryKeys.png" width="11px" height="12px" preserveAspectRatio="xMinYMin meet" x="227.5" y="-204.7"/>
<text text-anchor="start" x="242.5" y="-194.8" font-family="Helvetica,sans-Serif" font-size="11.00" fill="#000000">UserId</text>
<polygon fill="none" stroke="#000000" points="305.5,-187.7 305.5,-209.7 395.5,-209.7 395.5,-187.7 305.5,-187.7"/>
<text text-anchor="start" x="308.0043" y="-195.4" font-family="Helvetica,sans-Serif" font-size="11.00" fill="#000000">text[2147483647]</text>
<polygon fill="none" stroke="#000000" points="222.5,-165.7 222.5,-187.7 305.5,-187.7 305.5,-165.7 222.5,-165.7"/>
<text text-anchor="start" x="242.5" y="-172.8" font-family="Helvetica,sans-Serif" font-size="11.00" fill="#000000">Phone</text>
<polygon fill="none" stroke="#000000" points="305.5,-165.7 305.5,-187.7 395.5,-187.7 395.5,-165.7 305.5,-165.7"/>
<text text-anchor="start" x="308.0043" y="-173.4" font-family="Helvetica,sans-Serif" font-size="11.00" fill="#000000">text[2147483647]</text>
<polygon fill="#ffffff" stroke="transparent" points="222.5,-146.7 222.5,-165.7 255.5,-165.7 255.5,-146.7 222.5,-146.7"/>
<polygon fill="none" stroke="#000000" points="222.5,-146.7 222.5,-165.7 255.5,-165.7 255.5,-146.7 222.5,-146.7"/>
<text text-anchor="start" x="225.5" y="-152.8" font-family="Helvetica,sans-Serif" font-size="11.00" fill="#000000">&lt; 1</text>
<polygon fill="#ffffff" stroke="transparent" points="255.5,-146.7 255.5,-165.7 305.5,-165.7 305.5,-146.7 255.5,-146.7"/>
<polygon fill="none" stroke="#000000" points="255.5,-146.7 255.5,-165.7 305.5,-165.7 305.5,-146.7 255.5,-146.7"/>
<text text-anchor="start" x="270.1105" y="-152.8" font-family="Helvetica,sans-Serif" font-size="11.00" fill="#000000">0 rows</text>
<polygon fill="#ffffff" stroke="transparent" points="305.5,-146.7 305.5,-165.7 395.5,-165.7 395.5,-146.7 305.5,-146.7"/>
<polygon fill="none" stroke="#000000" points="305.5,-146.7 305.5,-165.7 395.5,-165.7 395.5,-146.7 305.5,-146.7"/>
<text text-anchor="start" x="376.9053" y="-152.8" font-family="Helvetica,sans-Serif" font-size="11.00" fill="#000000">2 &gt;</text>
<polygon fill="none" stroke="#000000" stroke-width="2" points="221,-145.7 221,-233.7 396,-233.7 396,-145.7 221,-145.7"/>
</a>
</g>
</g>
<!-- ProfessorCompetencyAssignments&#45;&gt;Professors -->
<g id="edge2" class="edge">
<title>ProfessorCompetencyAssignments:w&#45;&gt;Professors:e</title>
<path fill="none" stroke="#000000" d="M605.4336,-235.7611C535.7555,-236.331 511.3003,-240.2478 438,-219.7 417.7131,-214.0131 416.569,-198.7 395.5,-198.7"/>
<polygon fill="#000000" stroke="#000000" points="612.0001,-235.7336 620.0151,-239.3 616,-235.7168 620,-235.7 620,-235.7 620,-235.7 616,-235.7168 619.9849,-232.1 612.0001,-235.7336 612.0001,-235.7336"/>
<ellipse fill="none" stroke="#000000" cx="608.8001" cy="-235.7471" rx="3.2" ry="3.2"/>
</g>
<!-- Subjects -->
<g id="node4" class="node">
<title>Subjects</title>
<g id="a_node4"><a xlink:href="../../tables/Subjects.html" xlink:title="Subjects" target="_top">
<polygon fill="#ffffff" stroke="transparent" points="446,-38.2 446,-209.2 571,-209.2 571,-38.2 446,-38.2"/>
<polygon fill="#f5f5f5" stroke="transparent" points="446.5,-185.7 446.5,-208.7 571.5,-208.7 571.5,-185.7 446.5,-185.7"/>
<polygon fill="none" stroke="#000000" points="446.5,-185.7 446.5,-208.7 571.5,-208.7 571.5,-185.7 446.5,-185.7"/>
<text text-anchor="start" x="451.5" y="-194.3" font-family="Helvetica,sans-Serif" font-weight="bold" font-size="11.00" fill="#000000">Subjects</text>
<text text-anchor="start" x="536.5437" y="-193.8" font-family="Helvetica,sans-Serif" font-size="11.00" fill="#000000">[table]</text>
<polygon fill="none" stroke="#000000" points="446.5,-163.7 446.5,-185.7 571.5,-185.7 571.5,-163.7 446.5,-163.7"/>
<image xlink:href="../../images/primaryKeys.png" width="11px" height="12px" preserveAspectRatio="xMinYMin meet" x="451.5" y="-180.7"/>
<text text-anchor="start" x="466.5" y="-170.8" font-family="Helvetica,sans-Serif" font-size="11.00" fill="#000000">Id</text>
<polygon fill="#ffffff" stroke="transparent" points="446.5,-141.7 446.5,-163.7 571.5,-163.7 571.5,-141.7 446.5,-141.7"/>
<polygon fill="none" stroke="#000000" points="446.5,-141.7 446.5,-163.7 571.5,-163.7 571.5,-141.7 446.5,-141.7"/>
<image xlink:href="../../images/foreignKeys.png" width="11px" height="12px" preserveAspectRatio="xMinYMin meet" x="451.5" y="-158.7"/>
<text text-anchor="start" x="466.5" y="-148.8" font-family="Helvetica,sans-Serif" font-size="11.00" fill="#000000">TechnicalCareerId</text>
<polygon fill="#ffffff" stroke="transparent" points="446.5,-119.7 446.5,-141.7 571.5,-141.7 571.5,-119.7 446.5,-119.7"/>
<polygon fill="none" stroke="#000000" points="446.5,-119.7 446.5,-141.7 571.5,-141.7 571.5,-119.7 446.5,-119.7"/>
<image xlink:href="../../images/foreignKeys.png" width="11px" height="12px" preserveAspectRatio="xMinYMin meet" x="451.5" y="-136.7"/>
<text text-anchor="start" x="466.5" y="-126.8" font-family="Helvetica,sans-Serif" font-size="11.00" fill="#000000">ProfessorId</text>
<polygon fill="#ffffff" stroke="transparent" points="446.5,-97.7 446.5,-119.7 571.5,-119.7 571.5,-97.7 446.5,-97.7"/>
<polygon fill="none" stroke="#000000" points="446.5,-97.7 446.5,-119.7 571.5,-119.7 571.5,-97.7 446.5,-97.7"/>
<image xlink:href="../../images/foreignKeys.png" width="11px" height="12px" preserveAspectRatio="xMinYMin meet" x="451.5" y="-114.7"/>
<text text-anchor="start" x="466.5" y="-104.8" font-family="Helvetica,sans-Serif" font-size="11.00" fill="#000000">CreatedByUserId</text>
<polygon fill="#ffffff" stroke="transparent" points="446.5,-75.7 446.5,-97.7 571.5,-97.7 571.5,-75.7 446.5,-75.7"/>
<polygon fill="none" stroke="#000000" points="446.5,-75.7 446.5,-97.7 571.5,-97.7 571.5,-75.7 446.5,-75.7"/>
<image xlink:href="../../images/foreignKeys.png" width="11px" height="12px" preserveAspectRatio="xMinYMin meet" x="451.5" y="-92.7"/>
<text text-anchor="start" x="466.5" y="-82.8" font-family="Helvetica,sans-Serif" font-size="11.00" fill="#000000">UpdatedByUserId</text>
<polygon fill="none" stroke="#000000" points="446.5,-56.7 446.5,-75.7 571.5,-75.7 571.5,-56.7 446.5,-56.7"/>
<text text-anchor="start" x="449.5" y="-62.8" font-family="Helvetica,sans-Serif" font-size="11.00" fill="#000000">...</text>
<polygon fill="#ffffff" stroke="transparent" points="446.5,-37.7 446.5,-56.7 489.5,-56.7 489.5,-37.7 446.5,-37.7"/>
<polygon fill="none" stroke="#000000" points="446.5,-37.7 446.5,-56.7 489.5,-56.7 489.5,-37.7 446.5,-37.7"/>
<text text-anchor="start" x="449.5" y="-43.8" font-family="Helvetica,sans-Serif" font-size="11.00" fill="#000000">&lt; 4</text>
<polygon fill="#ffffff" stroke="transparent" points="489.5,-37.7 489.5,-56.7 538.5,-56.7 538.5,-37.7 489.5,-37.7"/>
<polygon fill="none" stroke="#000000" points="489.5,-37.7 489.5,-56.7 538.5,-56.7 538.5,-37.7 489.5,-37.7"/>
<text text-anchor="start" x="503.1105" y="-43.8" font-family="Helvetica,sans-Serif" font-size="11.00" fill="#000000">0 rows</text>
<polygon fill="#ffffff" stroke="transparent" points="538.5,-37.7 538.5,-56.7 571.5,-56.7 571.5,-37.7 538.5,-37.7"/>
<polygon fill="none" stroke="#000000" points="538.5,-37.7 538.5,-56.7 571.5,-56.7 571.5,-37.7 538.5,-37.7"/>
<text text-anchor="start" x="552.9053" y="-43.8" font-family="Helvetica,sans-Serif" font-size="11.00" fill="#000000">3 &gt;</text>
</a>
</g>
</g>
<!-- ProfessorCompetencyAssignments&#45;&gt;Subjects -->
<g id="edge3" class="edge">
<title>ProfessorCompetencyAssignments:w&#45;&gt;Subjects:e</title>
<path fill="none" stroke="#000000" d="M606.076,-208.9178C593.6738,-198.5037 593.1095,-174.7 571.5,-174.7"/>
<polygon fill="#000000" stroke="#000000" points="612.4338,-211.1014 618.8306,-217.1048 616.2169,-212.4007 620,-213.7 620,-213.7 620,-213.7 616.2169,-212.4007 621.1694,-210.2952 612.4338,-211.1014 612.4338,-211.1014"/>
<ellipse fill="none" stroke="#000000" cx="609.4073" cy="-210.0619" rx="3.2" ry="3.2"/>
</g>
<!-- Professors&#45;&gt;AspNetUsers -->
<g id="edge5" class="edge">
<title>Professors:w&#45;&gt;AspNetUsers:e</title>
<path fill="none" stroke="#000000" d="M211.7307,-198.7C197.248,-198.7 190.0938,-198.7 171.5,-198.7"/>
<polygon fill="#000000" stroke="#000000" points="221.7,-194.7 221.7,-202.7 220.1,-202.7 220.1,-194.7 221.7,-194.7"/>
<polyline fill="none" stroke="#000000" points="222.5,-198.7 218.5,-198.7 "/>
<ellipse fill="none" stroke="#000000" cx="215.3" cy="-198.7001" rx="3.2" ry="3.2"/>
</g>
<!-- Subjects&#45;&gt;AspNetUsers -->
<g id="edge6" class="edge">
<title>Subjects:w&#45;&gt;AspNetUsers:e</title>
<path fill="none" stroke="#000000" d="M431.8751,-108.5095C337.6324,-106.0652 296.6715,-81.7907 212,-134.7 183.4537,-152.538 205.1613,-198.7 171.5,-198.7"/>
<polygon fill="#000000" stroke="#000000" points="438.5007,-108.5957 446.4531,-112.2997 442.5003,-108.6479 446.5,-108.7 446.5,-108.7 446.5,-108.7 442.5003,-108.6479 446.5469,-105.1003 438.5007,-108.5957 438.5007,-108.5957"/>
<ellipse fill="none" stroke="#000000" cx="435.301" cy="-108.554" rx="3.2" ry="3.2"/>
</g>
<!-- Subjects&#45;&gt;AspNetUsers -->
<g id="edge8" class="edge">
<title>Subjects:w&#45;&gt;AspNetUsers:e</title>
<path fill="none" stroke="#000000" d="M431.9149,-86.384C337.732,-82.3068 292.9541,-41.0822 212,-98.7 172.9335,-126.505 219.4511,-198.7 171.5,-198.7"/>
<polygon fill="#000000" stroke="#000000" points="438.5019,-86.5267 446.422,-90.2992 442.5009,-86.6133 446.5,-86.7 446.5,-86.7 446.5,-86.7 442.5009,-86.6133 446.578,-83.1008 438.5019,-86.5267 438.5019,-86.5267"/>
<ellipse fill="none" stroke="#000000" cx="435.3026" cy="-86.4573" rx="3.2" ry="3.2"/>
</g>
<!-- Subjects&#45;&gt;Professors -->
<g id="edge7" class="edge">
<title>Subjects:w&#45;&gt;Professors:e</title>
<path fill="none" stroke="#000000" d="M432.3891,-135.5904C415.1017,-151.1822 427.0799,-198.7 395.5,-198.7"/>
<polygon fill="#000000" stroke="#000000" points="438.9411,-133.3197 447.6789,-134.1015 442.7205,-132.0099 446.5,-130.7 446.5,-130.7 446.5,-130.7 442.7205,-132.0099 445.3211,-127.2985 438.9411,-133.3197 438.9411,-133.3197"/>
<ellipse fill="none" stroke="#000000" cx="435.9175" cy="-134.3676" rx="3.2" ry="3.2"/>
</g>
</g>
</svg>
