<?xml version="1.0" encoding="UTF-8" standalone="no"?>
<!DOCTYPE svg PUBLIC "-//W3C//DTD SVG 1.1//EN"
 "http://www.w3.org/Graphics/SVG/1.1/DTD/svg11.dtd">
<!-- Generated by graphviz version 2.40.1 (20161225.0304)
 -->
<!-- Title: twoDegreesRelationshipsDiagram Pages: 1 -->
<svg width="1183pt" height="1339pt"
 viewBox="0.00 0.00 1183.00 1338.61" xmlns="http://www.w3.org/2000/svg" xmlns:xlink="http://www.w3.org/1999/xlink">
<g id="graph0" class="graph" transform="scale(1 1) rotate(0) translate(4 1334.6117)">
<title>twoDegreesRelationshipsDiagram</title>
<polygon fill="#ffffff" stroke="transparent" points="-4,4 -4,-1334.6117 1179,-1334.6117 1179,4 -4,4"/>
<text text-anchor="middle" x="72.4936" y="-7.3" font-family="Helvetica,sans-Serif" font-size="11.00" fill="#000000">Generated by SchemaSpy</text>
<!-- AspNetUserClaims -->
<g id="node1" class="node">
<title>AspNetUserClaims</title>
<g id="a_node1"><a xlink:href="../../tables/AspNetUserClaims.html" xlink:title="AspNetUserClaims" target="_top">
<polygon fill="#ffffff" stroke="transparent" points="172,-1265.6117 172,-1326.6117 319,-1326.6117 319,-1265.6117 172,-1265.6117"/>
<polygon fill="#f5f5f5" stroke="transparent" points="172.5,-1303.1117 172.5,-1326.1117 319.5,-1326.1117 319.5,-1303.1117 172.5,-1303.1117"/>
<polygon fill="none" stroke="#000000" points="172.5,-1303.1117 172.5,-1326.1117 319.5,-1326.1117 319.5,-1303.1117 172.5,-1303.1117"/>
<text text-anchor="start" x="177.5" y="-1311.7117" font-family="Helvetica,sans-Serif" font-weight="bold" font-size="11.00" fill="#000000">AspNetUserClaims</text>
<text text-anchor="start" x="285.0219" y="-1311.2117" font-family="Helvetica,sans-Serif" font-size="11.00" fill="#000000">[table]</text>
<polygon fill="none" stroke="#000000" points="172.5,-1284.1117 172.5,-1303.1117 319.5,-1303.1117 319.5,-1284.1117 172.5,-1284.1117"/>
<text text-anchor="start" x="175.5" y="-1290.2117" font-family="Helvetica,sans-Serif" font-size="11.00" fill="#000000">...</text>
<polygon fill="#ffffff" stroke="transparent" points="172.5,-1265.1117 172.5,-1284.1117 231.5,-1284.1117 231.5,-1265.1117 172.5,-1265.1117"/>
<polygon fill="none" stroke="#000000" points="172.5,-1265.1117 172.5,-1284.1117 231.5,-1284.1117 231.5,-1265.1117 172.5,-1265.1117"/>
<text text-anchor="start" x="175.5" y="-1271.2117" font-family="Helvetica,sans-Serif" font-size="11.00" fill="#000000">&lt; 1</text>
<polygon fill="#ffffff" stroke="transparent" points="231.5,-1265.1117 231.5,-1284.1117 288.5,-1284.1117 288.5,-1265.1117 231.5,-1265.1117"/>
<polygon fill="none" stroke="#000000" points="231.5,-1265.1117 231.5,-1284.1117 288.5,-1284.1117 288.5,-1265.1117 231.5,-1265.1117"/>
<text text-anchor="start" x="253.1105" y="-1271.2117" font-family="Helvetica,sans-Serif" font-size="11.00" fill="#000000">0 rows</text>
<polygon fill="#ffffff" stroke="transparent" points="288.5,-1265.1117 288.5,-1284.1117 319.5,-1284.1117 319.5,-1265.1117 288.5,-1265.1117"/>
<polygon fill="none" stroke="#000000" points="288.5,-1265.1117 288.5,-1284.1117 319.5,-1284.1117 319.5,-1265.1117 288.5,-1265.1117"/>
<text text-anchor="start" x="310.3862" y="-1271.2117" font-family="Helvetica,sans-Serif" font-size="11.00" fill="#000000"> &#160;</text>
</a>
</g>
</g>
<!-- AspNetUsers -->
<g id="node2" class="node">
<title>AspNetUsers</title>
<g id="a_node2"><a xlink:href="../../tables/AspNetUsers.html" xlink:title="AspNetUsers" target="_top">
<polygon fill="#ffffff" stroke="transparent" points="8,-731.6117 8,-792.6117 122,-792.6117 122,-731.6117 8,-731.6117"/>
<polygon fill="#f5f5f5" stroke="transparent" points="8,-769.1117 8,-792.1117 122,-792.1117 122,-769.1117 8,-769.1117"/>
<polygon fill="none" stroke="#000000" points="8,-769.1117 8,-792.1117 122,-792.1117 122,-769.1117 8,-769.1117"/>
<text text-anchor="start" x="13" y="-777.7117" font-family="Helvetica,sans-Serif" font-weight="bold" font-size="11.00" fill="#000000">AspNetUsers</text>
<text text-anchor="start" x="87.5219" y="-777.2117" font-family="Helvetica,sans-Serif" font-size="11.00" fill="#000000">[table]</text>
<polygon fill="none" stroke="#000000" points="8,-750.1117 8,-769.1117 122,-769.1117 122,-750.1117 8,-750.1117"/>
<text text-anchor="start" x="11" y="-756.2117" font-family="Helvetica,sans-Serif" font-size="11.00" fill="#000000">...</text>
<polygon fill="#ffffff" stroke="transparent" points="8,-731.1117 8,-750.1117 38,-750.1117 38,-731.1117 8,-731.1117"/>
<polygon fill="none" stroke="#000000" points="8,-731.1117 8,-750.1117 38,-750.1117 38,-731.1117 8,-731.1117"/>
<text text-anchor="start" x="11" y="-737.2117" font-family="Helvetica,sans-Serif" font-size="11.00" fill="#000000"> &#160;</text>
<polygon fill="#ffffff" stroke="transparent" points="38,-731.1117 38,-750.1117 85,-750.1117 85,-731.1117 38,-731.1117"/>
<polygon fill="none" stroke="#000000" points="38,-731.1117 38,-750.1117 85,-750.1117 85,-731.1117 38,-731.1117"/>
<text text-anchor="start" x="49.6105" y="-737.2117" font-family="Helvetica,sans-Serif" font-size="11.00" fill="#000000">0 rows</text>
<polygon fill="#ffffff" stroke="transparent" points="85,-731.1117 85,-750.1117 122,-750.1117 122,-731.1117 85,-731.1117"/>
<polygon fill="none" stroke="#000000" points="85,-731.1117 85,-750.1117 122,-750.1117 122,-731.1117 85,-731.1117"/>
<text text-anchor="start" x="97.2904" y="-737.2117" font-family="Helvetica,sans-Serif" font-size="11.00" fill="#000000">29 &gt;</text>
</a>
</g>
</g>
<!-- AspNetUserClaims&#45;&gt;AspNetUsers -->
<g id="edge1" class="edge">
<title>AspNetUserClaims:w&#45;&gt;AspNetUsers:e</title>
<path fill="none" stroke="#000000" d="M159.9095,-1285.4905C114.9299,-1231.4482 79.109,-905.164 68.3333,-796.9521"/>
<polygon fill="#000000" stroke="#000000" points="165.6561,-1288.969 170.6358,-1296.1914 169.0781,-1291.0403 172.5,-1293.1117 172.5,-1293.1117 172.5,-1293.1117 169.0781,-1291.0403 174.3642,-1290.032 165.6561,-1288.969 165.6561,-1288.969"/>
<ellipse fill="none" stroke="#000000" cx="162.9186" cy="-1287.3119" rx="3.2" ry="3.2"/>
</g>
<!-- AspNetUserLogins -->
<g id="node3" class="node">
<title>AspNetUserLogins</title>
<g id="a_node3"><a xlink:href="../../tables/AspNetUserLogins.html" xlink:title="AspNetUserLogins" target="_top">
<polygon fill="#ffffff" stroke="transparent" points="172,-1183.6117 172,-1244.6117 319,-1244.6117 319,-1183.6117 172,-1183.6117"/>
<polygon fill="#f5f5f5" stroke="transparent" points="172.5,-1221.1117 172.5,-1244.1117 319.5,-1244.1117 319.5,-1221.1117 172.5,-1221.1117"/>
<polygon fill="none" stroke="#000000" points="172.5,-1221.1117 172.5,-1244.1117 319.5,-1244.1117 319.5,-1221.1117 172.5,-1221.1117"/>
<text text-anchor="start" x="177.5" y="-1229.7117" font-family="Helvetica,sans-Serif" font-weight="bold" font-size="11.00" fill="#000000">AspNetUserLogins</text>
<text text-anchor="start" x="285.0219" y="-1229.2117" font-family="Helvetica,sans-Serif" font-size="11.00" fill="#000000">[table]</text>
<polygon fill="none" stroke="#000000" points="172.5,-1202.1117 172.5,-1221.1117 319.5,-1221.1117 319.5,-1202.1117 172.5,-1202.1117"/>
<text text-anchor="start" x="175.5" y="-1208.2117" font-family="Helvetica,sans-Serif" font-size="11.00" fill="#000000">...</text>
<polygon fill="#ffffff" stroke="transparent" points="172.5,-1183.1117 172.5,-1202.1117 231.5,-1202.1117 231.5,-1183.1117 172.5,-1183.1117"/>
<polygon fill="none" stroke="#000000" points="172.5,-1183.1117 172.5,-1202.1117 231.5,-1202.1117 231.5,-1183.1117 172.5,-1183.1117"/>
<text text-anchor="start" x="175.5" y="-1189.2117" font-family="Helvetica,sans-Serif" font-size="11.00" fill="#000000">&lt; 1</text>
<polygon fill="#ffffff" stroke="transparent" points="231.5,-1183.1117 231.5,-1202.1117 288.5,-1202.1117 288.5,-1183.1117 231.5,-1183.1117"/>
<polygon fill="none" stroke="#000000" points="231.5,-1183.1117 231.5,-1202.1117 288.5,-1202.1117 288.5,-1183.1117 231.5,-1183.1117"/>
<text text-anchor="start" x="253.1105" y="-1189.2117" font-family="Helvetica,sans-Serif" font-size="11.00" fill="#000000">0 rows</text>
<polygon fill="#ffffff" stroke="transparent" points="288.5,-1183.1117 288.5,-1202.1117 319.5,-1202.1117 319.5,-1183.1117 288.5,-1183.1117"/>
<polygon fill="none" stroke="#000000" points="288.5,-1183.1117 288.5,-1202.1117 319.5,-1202.1117 319.5,-1183.1117 288.5,-1183.1117"/>
<text text-anchor="start" x="310.3862" y="-1189.2117" font-family="Helvetica,sans-Serif" font-size="11.00" fill="#000000"> &#160;</text>
</a>
</g>
</g>
<!-- AspNetUserLogins&#45;&gt;AspNetUsers -->
<g id="edge2" class="edge">
<title>AspNetUserLogins:w&#45;&gt;AspNetUsers:e</title>
<path fill="none" stroke="#000000" d="M158.2284,-1208.0357C85.3866,-1175.6396 69.3159,-896.2836 65.8927,-796.9704"/>
<polygon fill="#000000" stroke="#000000" points="164.6796,-1209.4261 171.7415,-1214.6309 168.5898,-1210.2689 172.5,-1211.1117 172.5,-1211.1117 172.5,-1211.1117 168.5898,-1210.2689 173.2585,-1207.5925 164.6796,-1209.4261 164.6796,-1209.4261"/>
<ellipse fill="none" stroke="#000000" cx="161.5514" cy="-1208.7518" rx="3.2" ry="3.2"/>
</g>
<!-- AspNetUserRoles -->
<g id="node4" class="node">
<title>AspNetUserRoles</title>
<g id="a_node4"><a xlink:href="../../tables/AspNetUserRoles.html" xlink:title="AspNetUserRoles" target="_top">
<polygon fill="#ffffff" stroke="transparent" points="175.5,-1101.6117 175.5,-1162.6117 315.5,-1162.6117 315.5,-1101.6117 175.5,-1101.6117"/>
<polygon fill="#f5f5f5" stroke="transparent" points="175.5,-1139.1117 175.5,-1162.1117 315.5,-1162.1117 315.5,-1139.1117 175.5,-1139.1117"/>
<polygon fill="none" stroke="#000000" points="175.5,-1139.1117 175.5,-1162.1117 315.5,-1162.1117 315.5,-1139.1117 175.5,-1139.1117"/>
<text text-anchor="start" x="180.5" y="-1147.7117" font-family="Helvetica,sans-Serif" font-weight="bold" font-size="11.00" fill="#000000">AspNetUserRoles</text>
<text text-anchor="start" x="281.0219" y="-1147.2117" font-family="Helvetica,sans-Serif" font-size="11.00" fill="#000000">[table]</text>
<polygon fill="none" stroke="#000000" points="175.5,-1120.1117 175.5,-1139.1117 315.5,-1139.1117 315.5,-1120.1117 175.5,-1120.1117"/>
<text text-anchor="start" x="178.5" y="-1126.2117" font-family="Helvetica,sans-Serif" font-size="11.00" fill="#000000">...</text>
<polygon fill="#ffffff" stroke="transparent" points="175.5,-1101.1117 175.5,-1120.1117 230.5,-1120.1117 230.5,-1101.1117 175.5,-1101.1117"/>
<polygon fill="none" stroke="#000000" points="175.5,-1101.1117 175.5,-1120.1117 230.5,-1120.1117 230.5,-1101.1117 175.5,-1101.1117"/>
<text text-anchor="start" x="178.5" y="-1107.2117" font-family="Helvetica,sans-Serif" font-size="11.00" fill="#000000">&lt; 2</text>
<polygon fill="#ffffff" stroke="transparent" points="230.5,-1101.1117 230.5,-1120.1117 285.5,-1120.1117 285.5,-1101.1117 230.5,-1101.1117"/>
<polygon fill="none" stroke="#000000" points="230.5,-1101.1117 230.5,-1120.1117 285.5,-1120.1117 285.5,-1101.1117 230.5,-1101.1117"/>
<text text-anchor="start" x="250.1105" y="-1107.2117" font-family="Helvetica,sans-Serif" font-size="11.00" fill="#000000">0 rows</text>
<polygon fill="#ffffff" stroke="transparent" points="285.5,-1101.1117 285.5,-1120.1117 315.5,-1120.1117 315.5,-1101.1117 285.5,-1101.1117"/>
<polygon fill="none" stroke="#000000" points="285.5,-1101.1117 285.5,-1120.1117 315.5,-1120.1117 315.5,-1101.1117 285.5,-1101.1117"/>
<text text-anchor="start" x="306.3862" y="-1107.2117" font-family="Helvetica,sans-Serif" font-size="11.00" fill="#000000"> &#160;</text>
</a>
</g>
</g>
<!-- AspNetUserRoles&#45;&gt;AspNetUsers -->
<g id="edge3" class="edge">
<title>AspNetUserRoles:w&#45;&gt;AspNetUsers:e</title>
<path fill="none" stroke="#000000" d="M161.5145,-1125.6715C102.3883,-1095.9454 76.1273,-881.574 67.962,-796.6382"/>
<polygon fill="#000000" stroke="#000000" points="167.7316,-1127.2007 174.6401,-1132.6075 171.6158,-1128.1562 175.5,-1129.1117 175.5,-1129.1117 175.5,-1129.1117 171.6158,-1128.1562 176.3599,-1125.6159 167.7316,-1127.2007 167.7316,-1127.2007"/>
<ellipse fill="none" stroke="#000000" cx="164.6242" cy="-1126.4364" rx="3.2" ry="3.2"/>
</g>
<!-- AspNetUserTokens -->
<g id="node5" class="node">
<title>AspNetUserTokens</title>
<g id="a_node5"><a xlink:href="../../tables/AspNetUserTokens.html" xlink:title="AspNetUserTokens" target="_top">
<polygon fill="#ffffff" stroke="transparent" points="171,-1019.6117 171,-1080.6117 320,-1080.6117 320,-1019.6117 171,-1019.6117"/>
<polygon fill="#f5f5f5" stroke="transparent" points="171.5,-1057.1117 171.5,-1080.1117 320.5,-1080.1117 320.5,-1057.1117 171.5,-1057.1117"/>
<polygon fill="none" stroke="#000000" points="171.5,-1057.1117 171.5,-1080.1117 320.5,-1080.1117 320.5,-1057.1117 171.5,-1057.1117"/>
<text text-anchor="start" x="176.5" y="-1065.7117" font-family="Helvetica,sans-Serif" font-weight="bold" font-size="11.00" fill="#000000">AspNetUserTokens</text>
<text text-anchor="start" x="286.0219" y="-1065.2117" font-family="Helvetica,sans-Serif" font-size="11.00" fill="#000000">[table]</text>
<polygon fill="none" stroke="#000000" points="171.5,-1038.1117 171.5,-1057.1117 320.5,-1057.1117 320.5,-1038.1117 171.5,-1038.1117"/>
<text text-anchor="start" x="174.5" y="-1044.2117" font-family="Helvetica,sans-Serif" font-size="11.00" fill="#000000">...</text>
<polygon fill="#ffffff" stroke="transparent" points="171.5,-1019.1117 171.5,-1038.1117 231.5,-1038.1117 231.5,-1019.1117 171.5,-1019.1117"/>
<polygon fill="none" stroke="#000000" points="171.5,-1019.1117 171.5,-1038.1117 231.5,-1038.1117 231.5,-1019.1117 171.5,-1019.1117"/>
<text text-anchor="start" x="174.5" y="-1025.2117" font-family="Helvetica,sans-Serif" font-size="11.00" fill="#000000">&lt; 1</text>
<polygon fill="#ffffff" stroke="transparent" points="231.5,-1019.1117 231.5,-1038.1117 288.5,-1038.1117 288.5,-1019.1117 231.5,-1019.1117"/>
<polygon fill="none" stroke="#000000" points="231.5,-1019.1117 231.5,-1038.1117 288.5,-1038.1117 288.5,-1019.1117 231.5,-1019.1117"/>
<text text-anchor="start" x="253.1105" y="-1025.2117" font-family="Helvetica,sans-Serif" font-size="11.00" fill="#000000">0 rows</text>
<polygon fill="#ffffff" stroke="transparent" points="288.5,-1019.1117 288.5,-1038.1117 320.5,-1038.1117 320.5,-1019.1117 288.5,-1019.1117"/>
<polygon fill="none" stroke="#000000" points="288.5,-1019.1117 288.5,-1038.1117 320.5,-1038.1117 320.5,-1019.1117 288.5,-1019.1117"/>
<text text-anchor="start" x="311.3862" y="-1025.2117" font-family="Helvetica,sans-Serif" font-size="11.00" fill="#000000"> &#160;</text>
</a>
</g>
</g>
<!-- AspNetUserTokens&#45;&gt;AspNetUsers -->
<g id="edge4" class="edge">
<title>AspNetUserTokens:w&#45;&gt;AspNetUsers:e</title>
<path fill="none" stroke="#000000" d="M157.3835,-1042.9143C112.3189,-1015.9251 82.1186,-865.7541 70.428,-796.7734"/>
<polygon fill="#000000" stroke="#000000" points="163.8318,-1044.8316 170.474,-1050.5624 167.6659,-1045.9716 171.5,-1047.1117 171.5,-1047.1117 171.5,-1047.1117 167.6659,-1045.9716 172.526,-1043.661 163.8318,-1044.8316 163.8318,-1044.8316"/>
<ellipse fill="none" stroke="#000000" cx="160.7645" cy="-1043.9195" rx="3.2" ry="3.2"/>
</g>
<!-- Competencies -->
<g id="node6" class="node">
<title>Competencies</title>
<g id="a_node6"><a xlink:href="../../tables/Competencies.html" xlink:title="Competencies" target="_top">
<polygon fill="#ffffff" stroke="transparent" points="185,-819.6117 185,-880.6117 306,-880.6117 306,-819.6117 185,-819.6117"/>
<polygon fill="#f5f5f5" stroke="transparent" points="185.5,-857.1117 185.5,-880.1117 306.5,-880.1117 306.5,-857.1117 185.5,-857.1117"/>
<polygon fill="none" stroke="#000000" points="185.5,-857.1117 185.5,-880.1117 306.5,-880.1117 306.5,-857.1117 185.5,-857.1117"/>
<text text-anchor="start" x="190.5" y="-865.7117" font-family="Helvetica,sans-Serif" font-weight="bold" font-size="11.00" fill="#000000">Competencies</text>
<text text-anchor="start" x="272.0219" y="-865.2117" font-family="Helvetica,sans-Serif" font-size="11.00" fill="#000000">[table]</text>
<polygon fill="none" stroke="#000000" points="185.5,-838.1117 185.5,-857.1117 306.5,-857.1117 306.5,-838.1117 185.5,-838.1117"/>
<text text-anchor="start" x="188.5" y="-844.2117" font-family="Helvetica,sans-Serif" font-size="11.00" fill="#000000">...</text>
<polygon fill="#ffffff" stroke="transparent" points="185.5,-819.1117 185.5,-838.1117 226.5,-838.1117 226.5,-819.1117 185.5,-819.1117"/>
<polygon fill="none" stroke="#000000" points="185.5,-819.1117 185.5,-838.1117 226.5,-838.1117 226.5,-819.1117 185.5,-819.1117"/>
<text text-anchor="start" x="188.5" y="-825.2117" font-family="Helvetica,sans-Serif" font-size="11.00" fill="#000000">&lt; 2</text>
<polygon fill="#ffffff" stroke="transparent" points="226.5,-819.1117 226.5,-838.1117 274.5,-838.1117 274.5,-819.1117 226.5,-819.1117"/>
<polygon fill="none" stroke="#000000" points="226.5,-819.1117 226.5,-838.1117 274.5,-838.1117 274.5,-819.1117 226.5,-819.1117"/>
<text text-anchor="start" x="239.1105" y="-825.2117" font-family="Helvetica,sans-Serif" font-size="11.00" fill="#000000">0 rows</text>
<polygon fill="#ffffff" stroke="transparent" points="274.5,-819.1117 274.5,-838.1117 306.5,-838.1117 306.5,-819.1117 274.5,-819.1117"/>
<polygon fill="none" stroke="#000000" points="274.5,-819.1117 274.5,-838.1117 306.5,-838.1117 306.5,-819.1117 274.5,-819.1117"/>
<text text-anchor="start" x="287.9053" y="-825.2117" font-family="Helvetica,sans-Serif" font-size="11.00" fill="#000000">4 &gt;</text>
</a>
</g>
</g>
<!-- Competencies&#45;&gt;AspNetUsers -->
<g id="edge5" class="edge">
<title>Competencies:w&#45;&gt;AspNetUsers:e</title>
<path fill="none" stroke="#000000" d="M170.2955,-809.0029C157.0156,-802.4287 143.2884,-795.7697 130.3082,-789.608"/>
<polygon fill="#000000" stroke="#000000" points="176.2226,-811.9579 181.7759,-818.7491 179.8024,-813.7426 183.3821,-815.5273 183.3821,-815.5273 183.3821,-815.5273 179.8024,-813.7426 184.9884,-812.3055 176.2226,-811.9579 176.2226,-811.9579"/>
<ellipse fill="none" stroke="#000000" cx="173.3587" cy="-810.5301" rx="3.2" ry="3.2"/>
</g>
<!-- Competencies&#45;&gt;AspNetUsers -->
<g id="edge6" class="edge">
<title>Competencies:w&#45;&gt;AspNetUsers:e</title>
<path fill="none" stroke="#000000" d="M163.5555,-815.3911C150.7787,-809.2231 137.778,-802.8045 125.5893,-796.6405"/>
<polygon fill="#000000" stroke="#000000" points="169.5303,-818.252 175.191,-824.9539 173.138,-819.9795 176.7458,-821.707 176.7458,-821.707 176.7458,-821.707 173.138,-819.9795 178.3005,-818.46 169.5303,-818.252 169.5303,-818.252"/>
<ellipse fill="none" stroke="#000000" cx="166.6441" cy="-816.87" rx="3.2" ry="3.2"/>
</g>
<!-- CompetencyLevelDescriptions -->
<g id="node7" class="node">
<title>CompetencyLevelDescriptions</title>
<g id="a_node7"><a xlink:href="../../tables/CompetencyLevelDescriptions.html" xlink:title="CompetencyLevelDescriptions" target="_top">
<polygon fill="#ffffff" stroke="transparent" points="423,-1078.6117 423,-1139.6117 637,-1139.6117 637,-1078.6117 423,-1078.6117"/>
<polygon fill="#f5f5f5" stroke="transparent" points="423,-1116.1117 423,-1139.1117 637,-1139.1117 637,-1116.1117 423,-1116.1117"/>
<polygon fill="none" stroke="#000000" points="423,-1116.1117 423,-1139.1117 637,-1139.1117 637,-1116.1117 423,-1116.1117"/>
<text text-anchor="start" x="428" y="-1124.7117" font-family="Helvetica,sans-Serif" font-weight="bold" font-size="11.00" fill="#000000">CompetencyLevelDescriptions</text>
<text text-anchor="start" x="602.5219" y="-1124.2117" font-family="Helvetica,sans-Serif" font-size="11.00" fill="#000000">[table]</text>
<polygon fill="none" stroke="#000000" points="423,-1097.1117 423,-1116.1117 637,-1116.1117 637,-1097.1117 423,-1097.1117"/>
<text text-anchor="start" x="426" y="-1103.2117" font-family="Helvetica,sans-Serif" font-size="11.00" fill="#000000">...</text>
<polygon fill="#ffffff" stroke="transparent" points="423,-1078.1117 423,-1097.1117 515,-1097.1117 515,-1078.1117 423,-1078.1117"/>
<polygon fill="none" stroke="#000000" points="423,-1078.1117 423,-1097.1117 515,-1097.1117 515,-1078.1117 423,-1078.1117"/>
<text text-anchor="start" x="426" y="-1084.2117" font-family="Helvetica,sans-Serif" font-size="11.00" fill="#000000">&lt; 3</text>
<polygon fill="#ffffff" stroke="transparent" points="515,-1078.1117 515,-1097.1117 589,-1097.1117 589,-1078.1117 515,-1078.1117"/>
<polygon fill="none" stroke="#000000" points="515,-1078.1117 515,-1097.1117 589,-1097.1117 589,-1078.1117 515,-1078.1117"/>
<text text-anchor="start" x="553.6105" y="-1084.2117" font-family="Helvetica,sans-Serif" font-size="11.00" fill="#000000">0 rows</text>
<polygon fill="#ffffff" stroke="transparent" points="589,-1078.1117 589,-1097.1117 637,-1097.1117 637,-1078.1117 589,-1078.1117"/>
<polygon fill="none" stroke="#000000" points="589,-1078.1117 589,-1097.1117 637,-1097.1117 637,-1078.1117 589,-1078.1117"/>
<text text-anchor="start" x="627.8862" y="-1084.2117" font-family="Helvetica,sans-Serif" font-size="11.00" fill="#000000"> &#160;</text>
</a>
</g>
</g>
<!-- CompetencyLevelDescriptions&#45;&gt;AspNetUsers -->
<g id="edge8" class="edge">
<title>CompetencyLevelDescriptions:w&#45;&gt;AspNetUsers:e</title>
<path fill="none" stroke="#000000" d="M408.9369,-1102.4568C387.8828,-1095.058 379.7192,-1081.5927 361,-1062.1117 340.1826,-1040.4471 351.7745,-1021.4826 328,-1003.1117 268.0339,-956.7751 221.4979,-1008.2886 163,-960.1117 111.2879,-917.5234 84.9874,-841.1744 73.1878,-796.6987"/>
<polygon fill="#000000" stroke="#000000" points="415.2572,-1104.0994 422.0944,-1109.5959 419.1286,-1105.1055 423,-1106.1117 423,-1106.1117 423,-1106.1117 419.1286,-1105.1055 423.9056,-1102.6274 415.2572,-1104.0994 415.2572,-1104.0994"/>
<ellipse fill="none" stroke="#000000" cx="412.1601" cy="-1103.2944" rx="3.2" ry="3.2"/>
</g>
<!-- CompetencyLevelDescriptions&#45;&gt;AspNetUsers -->
<g id="edge9" class="edge">
<title>CompetencyLevelDescriptions:w&#45;&gt;AspNetUsers:e</title>
<path fill="none" stroke="#000000" d="M408.6426,-1107.8647C387.8063,-1107.932 379.6317,-1094.5017 361,-1075.1117 340.1826,-1053.4471 351.7745,-1034.4826 328,-1016.1117 268.0339,-969.7751 221.4979,-1021.2886 163,-973.1117 107.9517,-927.7757 81.6996,-844.1823 71.0821,-796.8732"/>
<polygon fill="#000000" stroke="#000000" points="415.059,-1107.0813 423.4363,-1109.6852 419.0295,-1106.5965 423,-1106.1117 423,-1106.1117 423,-1106.1117 419.0295,-1106.5965 422.5637,-1102.5382 415.059,-1107.0813 415.059,-1107.0813"/>
<ellipse fill="none" stroke="#000000" cx="411.8826" cy="-1107.4692" rx="3.2" ry="3.2"/>
</g>
<!-- CompetencyLevelDescriptions&#45;&gt;Competencies -->
<g id="edge7" class="edge">
<title>CompetencyLevelDescriptions:w&#45;&gt;Competencies:e</title>
<path fill="none" stroke="#000000" d="M408.4925,-1105.0287C387.2108,-1101.4559 377.8592,-1089.0611 361,-1068.1117 332.977,-1033.2901 347.946,-1013.1115 328,-973.1117 312.2802,-941.5872 289.7581,-908.5775 272.2164,-884.7006"/>
<polygon fill="#000000" stroke="#000000" points="415.0222,-1105.5161 422.732,-1109.7017 419.0111,-1105.8139 423,-1106.1117 423,-1106.1117 423,-1106.1117 419.0111,-1105.8139 423.268,-1102.5217 415.0222,-1105.5161 415.0222,-1105.5161"/>
<ellipse fill="none" stroke="#000000" cx="411.8311" cy="-1105.2778" rx="3.2" ry="3.2"/>
</g>
<!-- CompetencyTechnicalCareer -->
<g id="node8" class="node">
<title>CompetencyTechnicalCareer</title>
<g id="a_node8"><a xlink:href="../../tables/CompetencyTechnicalCareer.html" xlink:title="CompetencyTechnicalCareer" target="_top">
<polygon fill="#ffffff" stroke="transparent" points="428,-874.6117 428,-935.6117 632,-935.6117 632,-874.6117 428,-874.6117"/>
<polygon fill="#f5f5f5" stroke="transparent" points="428,-912.1117 428,-935.1117 632,-935.1117 632,-912.1117 428,-912.1117"/>
<polygon fill="none" stroke="#000000" points="428,-912.1117 428,-935.1117 632,-935.1117 632,-912.1117 428,-912.1117"/>
<text text-anchor="start" x="433" y="-920.7117" font-family="Helvetica,sans-Serif" font-weight="bold" font-size="11.00" fill="#000000">CompetencyTechnicalCareer</text>
<text text-anchor="start" x="597.5219" y="-920.2117" font-family="Helvetica,sans-Serif" font-size="11.00" fill="#000000">[table]</text>
<polygon fill="none" stroke="#000000" points="428,-893.1117 428,-912.1117 632,-912.1117 632,-893.1117 428,-893.1117"/>
<text text-anchor="start" x="431" y="-899.2117" font-family="Helvetica,sans-Serif" font-size="11.00" fill="#000000">...</text>
<polygon fill="#ffffff" stroke="transparent" points="428,-874.1117 428,-893.1117 515,-893.1117 515,-874.1117 428,-874.1117"/>
<polygon fill="none" stroke="#000000" points="428,-874.1117 428,-893.1117 515,-893.1117 515,-874.1117 428,-874.1117"/>
<text text-anchor="start" x="431" y="-880.2117" font-family="Helvetica,sans-Serif" font-size="11.00" fill="#000000">&lt; 2</text>
<polygon fill="#ffffff" stroke="transparent" points="515,-874.1117 515,-893.1117 586,-893.1117 586,-874.1117 515,-874.1117"/>
<polygon fill="none" stroke="#000000" points="515,-874.1117 515,-893.1117 586,-893.1117 586,-874.1117 515,-874.1117"/>
<text text-anchor="start" x="550.6105" y="-880.2117" font-family="Helvetica,sans-Serif" font-size="11.00" fill="#000000">0 rows</text>
<polygon fill="#ffffff" stroke="transparent" points="586,-874.1117 586,-893.1117 632,-893.1117 632,-874.1117 586,-874.1117"/>
<polygon fill="none" stroke="#000000" points="586,-874.1117 586,-893.1117 632,-893.1117 632,-874.1117 586,-874.1117"/>
<text text-anchor="start" x="622.8862" y="-880.2117" font-family="Helvetica,sans-Serif" font-size="11.00" fill="#000000"> &#160;</text>
</a>
</g>
</g>
<!-- CompetencyTechnicalCareer&#45;&gt;Competencies -->
<g id="edge10" class="edge">
<title>CompetencyTechnicalCareer:w&#45;&gt;Competencies:e</title>
<path fill="none" stroke="#000000" d="M413.4309,-901.6219C379.218,-899.3817 343.8179,-889.7757 314.3921,-879.455"/>
<polygon fill="#000000" stroke="#000000" points="420.0045,-901.8429 427.879,-905.7097 424.0023,-901.9773 428,-902.1117 428,-902.1117 428,-902.1117 424.0023,-901.9773 428.121,-898.5137 420.0045,-901.8429 420.0045,-901.8429"/>
<ellipse fill="none" stroke="#000000" cx="416.8063" cy="-901.7353" rx="3.2" ry="3.2"/>
</g>
<!-- TechnicalCareers -->
<g id="node9" class="node">
<title>TechnicalCareers</title>
<g id="a_node9"><a xlink:href="../../tables/TechnicalCareers.html" xlink:title="TechnicalCareers" target="_top">
<polygon fill="#ffffff" stroke="transparent" points="176,-670.6117 176,-731.6117 315,-731.6117 315,-670.6117 176,-670.6117"/>
<polygon fill="#f5f5f5" stroke="transparent" points="176.5,-708.1117 176.5,-731.1117 315.5,-731.1117 315.5,-708.1117 176.5,-708.1117"/>
<polygon fill="none" stroke="#000000" points="176.5,-708.1117 176.5,-731.1117 315.5,-731.1117 315.5,-708.1117 176.5,-708.1117"/>
<text text-anchor="start" x="181.5" y="-716.7117" font-family="Helvetica,sans-Serif" font-weight="bold" font-size="11.00" fill="#000000">TechnicalCareers</text>
<text text-anchor="start" x="281.0219" y="-716.2117" font-family="Helvetica,sans-Serif" font-size="11.00" fill="#000000">[table]</text>
<polygon fill="none" stroke="#000000" points="176.5,-689.1117 176.5,-708.1117 315.5,-708.1117 315.5,-689.1117 176.5,-689.1117"/>
<text text-anchor="start" x="179.5" y="-695.2117" font-family="Helvetica,sans-Serif" font-size="11.00" fill="#000000">...</text>
<polygon fill="#ffffff" stroke="transparent" points="176.5,-670.1117 176.5,-689.1117 226.5,-689.1117 226.5,-670.1117 176.5,-670.1117"/>
<polygon fill="none" stroke="#000000" points="176.5,-670.1117 176.5,-689.1117 226.5,-689.1117 226.5,-670.1117 176.5,-670.1117"/>
<text text-anchor="start" x="179.5" y="-676.2117" font-family="Helvetica,sans-Serif" font-size="11.00" fill="#000000">&lt; 2</text>
<polygon fill="#ffffff" stroke="transparent" points="226.5,-670.1117 226.5,-689.1117 279.5,-689.1117 279.5,-670.1117 226.5,-670.1117"/>
<polygon fill="none" stroke="#000000" points="226.5,-670.1117 226.5,-689.1117 279.5,-689.1117 279.5,-670.1117 226.5,-670.1117"/>
<text text-anchor="start" x="244.1105" y="-676.2117" font-family="Helvetica,sans-Serif" font-size="11.00" fill="#000000">0 rows</text>
<polygon fill="#ffffff" stroke="transparent" points="279.5,-670.1117 279.5,-689.1117 315.5,-689.1117 315.5,-670.1117 279.5,-670.1117"/>
<polygon fill="none" stroke="#000000" points="279.5,-670.1117 279.5,-689.1117 315.5,-689.1117 315.5,-670.1117 279.5,-670.1117"/>
<text text-anchor="start" x="296.9053" y="-676.2117" font-family="Helvetica,sans-Serif" font-size="11.00" fill="#000000">6 &gt;</text>
</a>
</g>
</g>
<!-- CompetencyTechnicalCareer&#45;&gt;TechnicalCareers -->
<g id="edge11" class="edge">
<title>CompetencyTechnicalCareer:w&#45;&gt;TechnicalCareers:e</title>
<path fill="none" stroke="#000000" d="M413.3767,-901.0449C390.7025,-897.3462 381.5775,-884.1912 361,-864.1117 340.5972,-844.2027 344.0108,-832.6976 328,-809.1117 310.9051,-783.9287 290.0901,-756.7019 273.645,-735.8856"/>
<polygon fill="#000000" stroke="#000000" points="420.0212,-901.5296 427.7381,-905.7022 424.0106,-901.8206 428,-902.1117 428,-902.1117 428,-902.1117 424.0106,-901.8206 428.2619,-898.5212 420.0212,-901.5296 420.0212,-901.5296"/>
<ellipse fill="none" stroke="#000000" cx="416.8297" cy="-901.2967" rx="3.2" ry="3.2"/>
</g>
<!-- TechnicalCareers&#45;&gt;AspNetUsers -->
<g id="edge50" class="edge">
<title>TechnicalCareers:w&#45;&gt;AspNetUsers:e</title>
<path fill="none" stroke="#000000" d="M154.2229,-727.4591C146.0717,-730.2179 137.9318,-733.0218 130.069,-735.7811"/>
<polygon fill="#000000" stroke="#000000" points="160.3187,-725.4165 169.048,-726.2882 164.1115,-724.1456 167.9042,-722.8747 167.9042,-722.8747 167.9042,-722.8747 164.1115,-724.1456 166.7604,-719.4613 160.3187,-725.4165 160.3187,-725.4165"/>
<ellipse fill="none" stroke="#000000" cx="157.2845" cy="-726.4332" rx="3.2" ry="3.2"/>
</g>
<!-- TechnicalCareers&#45;&gt;AspNetUsers -->
<g id="edge51" class="edge">
<title>TechnicalCareers:w&#45;&gt;AspNetUsers:e</title>
<path fill="none" stroke="#000000" d="M154.2229,-737.2085C146.0717,-739.9584 137.9318,-742.6474 130.069,-745.1856"/>
<polygon fill="#000000" stroke="#000000" points="160.333,-735.1231 169.0671,-735.9461 164.1186,-733.8311 167.9042,-732.5391 167.9042,-732.5391 167.9042,-732.5391 164.1186,-733.8311 166.7414,-729.132 160.333,-735.1231 160.333,-735.1231"/>
<ellipse fill="none" stroke="#000000" cx="157.3046" cy="-736.1568" rx="3.2" ry="3.2"/>
</g>
<!-- Coordinators -->
<g id="node10" class="node">
<title>Coordinators</title>
<g id="a_node10"><a xlink:href="../../tables/Coordinators.html" xlink:title="Coordinators" target="_top">
<polygon fill="#ffffff" stroke="transparent" points="473,-792.6117 473,-853.6117 587,-853.6117 587,-792.6117 473,-792.6117"/>
<polygon fill="#f5f5f5" stroke="transparent" points="473,-830.1117 473,-853.1117 587,-853.1117 587,-830.1117 473,-830.1117"/>
<polygon fill="none" stroke="#000000" points="473,-830.1117 473,-853.1117 587,-853.1117 587,-830.1117 473,-830.1117"/>
<text text-anchor="start" x="478" y="-838.7117" font-family="Helvetica,sans-Serif" font-weight="bold" font-size="11.00" fill="#000000">Coordinators</text>
<text text-anchor="start" x="552.5219" y="-838.2117" font-family="Helvetica,sans-Serif" font-size="11.00" fill="#000000">[table]</text>
<polygon fill="none" stroke="#000000" points="473,-811.1117 473,-830.1117 587,-830.1117 587,-811.1117 473,-811.1117"/>
<text text-anchor="start" x="476" y="-817.2117" font-family="Helvetica,sans-Serif" font-size="11.00" fill="#000000">...</text>
<polygon fill="#ffffff" stroke="transparent" points="473,-792.1117 473,-811.1117 515,-811.1117 515,-792.1117 473,-792.1117"/>
<polygon fill="none" stroke="#000000" points="473,-792.1117 473,-811.1117 515,-811.1117 515,-792.1117 473,-792.1117"/>
<text text-anchor="start" x="476" y="-798.2117" font-family="Helvetica,sans-Serif" font-size="11.00" fill="#000000">&lt; 2</text>
<polygon fill="#ffffff" stroke="transparent" points="515,-792.1117 515,-811.1117 564,-811.1117 564,-792.1117 515,-792.1117"/>
<polygon fill="none" stroke="#000000" points="515,-792.1117 515,-811.1117 564,-811.1117 564,-792.1117 515,-792.1117"/>
<text text-anchor="start" x="528.6105" y="-798.2117" font-family="Helvetica,sans-Serif" font-size="11.00" fill="#000000">0 rows</text>
<polygon fill="#ffffff" stroke="transparent" points="564,-792.1117 564,-811.1117 587,-811.1117 587,-792.1117 564,-792.1117"/>
<polygon fill="none" stroke="#000000" points="564,-792.1117 564,-811.1117 587,-811.1117 587,-792.1117 564,-792.1117"/>
<text text-anchor="start" x="577.8862" y="-798.2117" font-family="Helvetica,sans-Serif" font-size="11.00" fill="#000000"> &#160;</text>
</a>
</g>
</g>
<!-- Coordinators&#45;&gt;AspNetUsers -->
<g id="edge13" class="edge">
<title>Coordinators:w&#45;&gt;AspNetUsers:e</title>
<path fill="none" stroke="#000000" d="M462.1799,-819.8886C389.5608,-817.1424 222.7111,-789.6956 130.0384,-773.64"/>
<polygon fill="#000000" stroke="#000000" points="472.2827,-816.096 472.1177,-824.0943 470.518,-824.0613 470.683,-816.063 472.2827,-816.096"/>
<polyline fill="none" stroke="#000000" points="473,-820.1117 469.0009,-820.0292 "/>
<ellipse fill="none" stroke="#000000" cx="465.8015" cy="-819.9632" rx="3.2" ry="3.2"/>
</g>
<!-- Coordinators&#45;&gt;TechnicalCareers -->
<g id="edge12" class="edge">
<title>Coordinators:w&#45;&gt;TechnicalCareers:e</title>
<path fill="none" stroke="#000000" d="M458.4053,-819.4801C390.1107,-813.6476 323.8043,-768.6433 283.8127,-735.8513"/>
<polygon fill="#000000" stroke="#000000" points="465.0075,-819.7658 472.8443,-823.7083 469.0037,-819.9387 473,-820.1117 473,-820.1117 473,-820.1117 469.0037,-819.9387 473.1557,-816.5151 465.0075,-819.7658 465.0075,-819.7658"/>
<ellipse fill="none" stroke="#000000" cx="461.8105" cy="-819.6274" rx="3.2" ry="3.2"/>
</g>
<!-- EvaluationPeriods -->
<g id="node11" class="node">
<title>EvaluationPeriods</title>
<g id="a_node11"><a xlink:href="../../tables/EvaluationPeriods.html" xlink:title="EvaluationPeriods" target="_top">
<polygon fill="#ffffff" stroke="transparent" points="174,-506.6117 174,-567.6117 317,-567.6117 317,-506.6117 174,-506.6117"/>
<polygon fill="#f5f5f5" stroke="transparent" points="174.5,-544.1117 174.5,-567.1117 317.5,-567.1117 317.5,-544.1117 174.5,-544.1117"/>
<polygon fill="none" stroke="#000000" points="174.5,-544.1117 174.5,-567.1117 317.5,-567.1117 317.5,-544.1117 174.5,-544.1117"/>
<text text-anchor="start" x="179.5" y="-552.7117" font-family="Helvetica,sans-Serif" font-weight="bold" font-size="11.00" fill="#000000">EvaluationPeriods</text>
<text text-anchor="start" x="283.0219" y="-552.2117" font-family="Helvetica,sans-Serif" font-size="11.00" fill="#000000">[table]</text>
<polygon fill="none" stroke="#000000" points="174.5,-525.1117 174.5,-544.1117 317.5,-544.1117 317.5,-525.1117 174.5,-525.1117"/>
<text text-anchor="start" x="177.5" y="-531.2117" font-family="Helvetica,sans-Serif" font-size="11.00" fill="#000000">...</text>
<polygon fill="#ffffff" stroke="transparent" points="174.5,-506.1117 174.5,-525.1117 226.5,-525.1117 226.5,-506.1117 174.5,-506.1117"/>
<polygon fill="none" stroke="#000000" points="174.5,-506.1117 174.5,-525.1117 226.5,-525.1117 226.5,-506.1117 174.5,-506.1117"/>
<text text-anchor="start" x="177.5" y="-512.2117" font-family="Helvetica,sans-Serif" font-size="11.00" fill="#000000">&lt; 2</text>
<polygon fill="#ffffff" stroke="transparent" points="226.5,-506.1117 226.5,-525.1117 280.5,-525.1117 280.5,-506.1117 226.5,-506.1117"/>
<polygon fill="none" stroke="#000000" points="226.5,-506.1117 226.5,-525.1117 280.5,-525.1117 280.5,-506.1117 226.5,-506.1117"/>
<text text-anchor="start" x="245.1105" y="-512.2117" font-family="Helvetica,sans-Serif" font-size="11.00" fill="#000000">0 rows</text>
<polygon fill="#ffffff" stroke="transparent" points="280.5,-506.1117 280.5,-525.1117 317.5,-525.1117 317.5,-506.1117 280.5,-506.1117"/>
<polygon fill="none" stroke="#000000" points="280.5,-506.1117 280.5,-525.1117 317.5,-525.1117 317.5,-506.1117 280.5,-506.1117"/>
<text text-anchor="start" x="298.9053" y="-512.2117" font-family="Helvetica,sans-Serif" font-size="11.00" fill="#000000">3 &gt;</text>
</a>
</g>
</g>
<!-- EvaluationPeriods&#45;&gt;AspNetUsers -->
<g id="edge14" class="edge">
<title>EvaluationPeriods:w&#45;&gt;AspNetUsers:e</title>
<path fill="none" stroke="#000000" d="M155.6876,-579.9362C113.5927,-626.0362 87.6268,-688.6485 74.7048,-727.3255"/>
<polygon fill="#000000" stroke="#000000" points="160.2517,-575.2275 168.4046,-571.9887 163.0356,-572.3553 165.8196,-569.4831 165.8196,-569.4831 165.8196,-569.4831 163.0356,-572.3553 163.2346,-566.9775 160.2517,-575.2275 160.2517,-575.2275"/>
<ellipse fill="none" stroke="#000000" cx="158.0245" cy="-577.5253" rx="3.2" ry="3.2"/>
</g>
<!-- EvaluationPeriods&#45;&gt;AspNetUsers -->
<g id="edge15" class="edge">
<title>EvaluationPeriods:w&#45;&gt;AspNetUsers:e</title>
<path fill="none" stroke="#000000" d="M168.1801,-580.4343C166.387,-581.9435 164.6557,-583.502 163,-585.1117 121.0905,-625.8568 93.0566,-688.422 78.0705,-727.3031"/>
<polygon fill="#000000" stroke="#000000" points="173.4316,-576.5353 182.0008,-574.6567 176.6432,-574.1508 179.8548,-571.7663 179.8548,-571.7663 179.8548,-571.7663 176.6432,-574.1508 177.7087,-568.8758 173.4316,-576.5353 173.4316,-576.5353"/>
<ellipse fill="none" stroke="#000000" cx="170.8623" cy="-578.4429" rx="3.2" ry="3.2"/>
</g>
<!-- EvaluationPeriodTechnicalCareer -->
<g id="node12" class="node">
<title>EvaluationPeriodTechnicalCareer</title>
<g id="a_node12"><a xlink:href="../../tables/EvaluationPeriodTechnicalCareer.html" xlink:title="EvaluationPeriodTechnicalCareer" target="_top">
<polygon fill="#ffffff" stroke="transparent" points="415,-628.6117 415,-689.6117 645,-689.6117 645,-628.6117 415,-628.6117"/>
<polygon fill="#f5f5f5" stroke="transparent" points="415,-666.1117 415,-689.1117 645,-689.1117 645,-666.1117 415,-666.1117"/>
<polygon fill="none" stroke="#000000" points="415,-666.1117 415,-689.1117 645,-689.1117 645,-666.1117 415,-666.1117"/>
<text text-anchor="start" x="420" y="-674.7117" font-family="Helvetica,sans-Serif" font-weight="bold" font-size="11.00" fill="#000000">EvaluationPeriodTechnicalCareer</text>
<text text-anchor="start" x="610.5219" y="-674.2117" font-family="Helvetica,sans-Serif" font-size="11.00" fill="#000000">[table]</text>
<polygon fill="none" stroke="#000000" points="415,-647.1117 415,-666.1117 645,-666.1117 645,-647.1117 415,-647.1117"/>
<text text-anchor="start" x="418" y="-653.2117" font-family="Helvetica,sans-Serif" font-size="11.00" fill="#000000">...</text>
<polygon fill="#ffffff" stroke="transparent" points="415,-628.1117 415,-647.1117 515,-647.1117 515,-628.1117 415,-628.1117"/>
<polygon fill="none" stroke="#000000" points="415,-628.1117 415,-647.1117 515,-647.1117 515,-628.1117 415,-628.1117"/>
<text text-anchor="start" x="418" y="-634.2117" font-family="Helvetica,sans-Serif" font-size="11.00" fill="#000000">&lt; 2</text>
<polygon fill="#ffffff" stroke="transparent" points="515,-628.1117 515,-647.1117 593,-647.1117 593,-628.1117 515,-628.1117"/>
<polygon fill="none" stroke="#000000" points="515,-628.1117 515,-647.1117 593,-647.1117 593,-628.1117 515,-628.1117"/>
<text text-anchor="start" x="557.6105" y="-634.2117" font-family="Helvetica,sans-Serif" font-size="11.00" fill="#000000">0 rows</text>
<polygon fill="#ffffff" stroke="transparent" points="593,-628.1117 593,-647.1117 645,-647.1117 645,-628.1117 593,-628.1117"/>
<polygon fill="none" stroke="#000000" points="593,-628.1117 593,-647.1117 645,-647.1117 645,-628.1117 593,-628.1117"/>
<text text-anchor="start" x="635.8862" y="-634.2117" font-family="Helvetica,sans-Serif" font-size="11.00" fill="#000000"> &#160;</text>
</a>
</g>
</g>
<!-- EvaluationPeriodTechnicalCareer&#45;&gt;TechnicalCareers -->
<g id="edge17" class="edge">
<title>EvaluationPeriodTechnicalCareer:w&#45;&gt;TechnicalCareers:e</title>
<path fill="none" stroke="#000000" d="M400.5275,-656.5989C374.2876,-658.3154 347.2619,-664.3634 323.2726,-671.4723"/>
<polygon fill="#000000" stroke="#000000" points="407.0045,-656.3809 415.1211,-659.7097 411.0023,-656.2463 415,-656.1117 415,-656.1117 415,-656.1117 411.0023,-656.2463 414.8789,-652.5137 407.0045,-656.3809 407.0045,-656.3809"/>
<ellipse fill="none" stroke="#000000" cx="403.8063" cy="-656.4886" rx="3.2" ry="3.2"/>
</g>
<!-- EvaluationPeriodTechnicalCareer&#45;&gt;EvaluationPeriods -->
<g id="edge16" class="edge">
<title>EvaluationPeriodTechnicalCareer:w&#45;&gt;EvaluationPeriods:e</title>
<path fill="none" stroke="#000000" d="M400.3667,-654.6558C363.7352,-646.6198 364.38,-606.9996 328,-578.1117 325.2444,-575.9236 322.3531,-573.8087 319.3698,-571.7707"/>
<polygon fill="#000000" stroke="#000000" points="407.0393,-655.3196 414.6436,-659.694 411.0197,-655.7157 415,-656.1117 415,-656.1117 415,-656.1117 411.0197,-655.7157 415.3564,-652.5294 407.0393,-655.3196 407.0393,-655.3196"/>
<ellipse fill="none" stroke="#000000" cx="403.855" cy="-655.0028" rx="3.2" ry="3.2"/>
</g>
<!-- FormQuestions -->
<g id="node13" class="node">
<title>FormQuestions</title>
<g id="a_node13"><a xlink:href="../../tables/FormQuestions.html" xlink:title="FormQuestions" target="_top">
<polygon fill="#ffffff" stroke="transparent" points="466.5,-996.6117 466.5,-1057.6117 593.5,-1057.6117 593.5,-996.6117 466.5,-996.6117"/>
<polygon fill="#f5f5f5" stroke="transparent" points="467,-1034.1117 467,-1057.1117 594,-1057.1117 594,-1034.1117 467,-1034.1117"/>
<polygon fill="none" stroke="#000000" points="467,-1034.1117 467,-1057.1117 594,-1057.1117 594,-1034.1117 467,-1034.1117"/>
<text text-anchor="start" x="472" y="-1042.7117" font-family="Helvetica,sans-Serif" font-weight="bold" font-size="11.00" fill="#000000">FormQuestions</text>
<text text-anchor="start" x="559.5219" y="-1042.2117" font-family="Helvetica,sans-Serif" font-size="11.00" fill="#000000">[table]</text>
<polygon fill="none" stroke="#000000" points="467,-1015.1117 467,-1034.1117 594,-1034.1117 594,-1015.1117 467,-1015.1117"/>
<text text-anchor="start" x="470" y="-1021.2117" font-family="Helvetica,sans-Serif" font-size="11.00" fill="#000000">...</text>
<polygon fill="#ffffff" stroke="transparent" points="467,-996.1117 467,-1015.1117 511,-1015.1117 511,-996.1117 467,-996.1117"/>
<polygon fill="none" stroke="#000000" points="467,-996.1117 467,-1015.1117 511,-1015.1117 511,-996.1117 467,-996.1117"/>
<text text-anchor="start" x="470" y="-1002.2117" font-family="Helvetica,sans-Serif" font-size="11.00" fill="#000000">&lt; 3</text>
<polygon fill="#ffffff" stroke="transparent" points="511,-996.1117 511,-1015.1117 561,-1015.1117 561,-996.1117 511,-996.1117"/>
<polygon fill="none" stroke="#000000" points="511,-996.1117 511,-1015.1117 561,-1015.1117 561,-996.1117 511,-996.1117"/>
<text text-anchor="start" x="525.6105" y="-1002.2117" font-family="Helvetica,sans-Serif" font-size="11.00" fill="#000000">0 rows</text>
<polygon fill="#ffffff" stroke="transparent" points="561,-996.1117 561,-1015.1117 594,-1015.1117 594,-996.1117 561,-996.1117"/>
<polygon fill="none" stroke="#000000" points="561,-996.1117 561,-1015.1117 594,-1015.1117 594,-996.1117 561,-996.1117"/>
<text text-anchor="start" x="575.4053" y="-1002.2117" font-family="Helvetica,sans-Serif" font-size="11.00" fill="#000000">1 &gt;</text>
</a>
</g>
</g>
<!-- FormQuestions&#45;&gt;AspNetUsers -->
<g id="edge19" class="edge">
<title>FormQuestions:w&#45;&gt;AspNetUsers:e</title>
<path fill="none" stroke="#000000" d="M452.5373,-1022.268C399.227,-1013.3618 385.7393,-985.72 328,-967.1117 255.5402,-943.7593 223.4504,-967.3881 163,-921.1117 120.9357,-888.9103 93.3189,-833.0591 78.4297,-796.7951"/>
<polygon fill="#000000" stroke="#000000" points="459.0642,-1023.1 466.5447,-1027.6828 463.0321,-1023.6058 467,-1024.1117 467,-1024.1117 467,-1024.1117 463.0321,-1023.6058 467.4553,-1020.5406 459.0642,-1023.1 459.0642,-1023.1"/>
<ellipse fill="none" stroke="#000000" cx="455.8899" cy="-1022.6953" rx="3.2" ry="3.2"/>
</g>
<!-- FormQuestions&#45;&gt;AspNetUsers -->
<g id="edge20" class="edge">
<title>FormQuestions:w&#45;&gt;AspNetUsers:e</title>
<path fill="none" stroke="#000000" d="M452.5373,-1025.083C399.227,-1026.3618 385.7393,-998.72 328,-980.1117 255.5402,-956.7593 223.4504,-980.3881 163,-934.1117 117.2319,-899.075 88.5676,-836.0403 74.7916,-796.689"/>
<polygon fill="#000000" stroke="#000000" points="459.018,-1024.6478 467.2413,-1027.7036 463.009,-1024.3798 467,-1024.1117 467,-1024.1117 467,-1024.1117 463.009,-1024.3798 466.7587,-1020.5198 459.018,-1024.6478 459.018,-1024.6478"/>
<ellipse fill="none" stroke="#000000" cx="455.8252" cy="-1024.8623" rx="3.2" ry="3.2"/>
</g>
<!-- FormQuestions&#45;&gt;Competencies -->
<g id="edge18" class="edge">
<title>FormQuestions:w&#45;&gt;Competencies:e</title>
<path fill="none" stroke="#000000" d="M452.6128,-1021.6991C404.5174,-1007.1995 323.92,-930.7239 278.7566,-884.905"/>
<polygon fill="#000000" stroke="#000000" points="459.1102,-1022.7886 466.4046,-1027.6621 463.0551,-1023.4502 467,-1024.1117 467,-1024.1117 467,-1024.1117 463.0551,-1023.4502 467.5954,-1020.5613 459.1102,-1022.7886 459.1102,-1022.7886"/>
<ellipse fill="none" stroke="#000000" cx="455.9542" cy="-1022.2594" rx="3.2" ry="3.2"/>
</g>
<!-- ProfessorCompetencyAssignments -->
<g id="node14" class="node">
<title>ProfessorCompetencyAssignments</title>
<g id="a_node14"><a xlink:href="../../tables/ProfessorCompetencyAssignments.html" xlink:title="ProfessorCompetencyAssignments" target="_top">
<polygon fill="#ffffff" stroke="transparent" points="369,-319.1117 369,-607.1117 691,-607.1117 691,-319.1117 369,-319.1117"/>
<polygon fill="#f5f5f5" stroke="transparent" points="371,-582.1117 371,-605.1117 689,-605.1117 689,-582.1117 371,-582.1117"/>
<polygon fill="none" stroke="#000000" points="371,-582.1117 371,-605.1117 689,-605.1117 689,-582.1117 371,-582.1117"/>
<text text-anchor="start" x="376" y="-590.7117" font-family="Helvetica,sans-Serif" font-weight="bold" font-size="11.00" fill="#000000">ProfessorCompetencyAssignments</text>
<text text-anchor="start" x="654.0437" y="-590.2117" font-family="Helvetica,sans-Serif" font-size="11.00" fill="#000000">[table]</text>
<polygon fill="none" stroke="#000000" points="371,-560.1117 371,-582.1117 595,-582.1117 595,-560.1117 371,-560.1117"/>
<image xlink:href="../../images/primaryKeys.png" width="11px" height="12px" preserveAspectRatio="xMinYMin meet" x="376" y="-577.112"/>
<text text-anchor="start" x="391" y="-567.2117" font-family="Helvetica,sans-Serif" font-size="11.00" fill="#000000">Id</text>
<polygon fill="none" stroke="#000000" points="595,-560.1117 595,-582.1117 689,-582.1117 689,-560.1117 595,-560.1117"/>
<text text-anchor="start" x="597.9758" y="-567.8117" font-family="Helvetica,sans-Serif" font-size="11.00" fill="#000000">uuid[2147483647]</text>
<polygon fill="#ffffff" stroke="transparent" points="371,-538.1117 371,-560.1117 595,-560.1117 595,-538.1117 371,-538.1117"/>
<polygon fill="none" stroke="#000000" points="371,-538.1117 371,-560.1117 595,-560.1117 595,-538.1117 371,-538.1117"/>
<image xlink:href="../../images/foreignKeys.png" width="11px" height="12px" preserveAspectRatio="xMinYMin meet" x="376" y="-555.112"/>
<text text-anchor="start" x="391" y="-545.2117" font-family="Helvetica,sans-Serif" font-size="11.00" fill="#000000">ProfessorId</text>
<polygon fill="none" stroke="#000000" points="595,-538.1117 595,-560.1117 689,-560.1117 689,-538.1117 595,-538.1117"/>
<text text-anchor="start" x="598" y="-545.8117" font-family="Helvetica,sans-Serif" font-size="11.00" fill="#000000">text[2147483647]</text>
<polygon fill="#ffffff" stroke="transparent" points="371,-516.1117 371,-538.1117 595,-538.1117 595,-516.1117 371,-516.1117"/>
<polygon fill="none" stroke="#000000" points="371,-516.1117 371,-538.1117 595,-538.1117 595,-516.1117 371,-516.1117"/>
<image xlink:href="../../images/foreignKeys.png" width="11px" height="12px" preserveAspectRatio="xMinYMin meet" x="376" y="-533.112"/>
<text text-anchor="start" x="391" y="-523.2117" font-family="Helvetica,sans-Serif" font-size="11.00" fill="#000000">TechnicalCareerId</text>
<polygon fill="none" stroke="#000000" points="595,-516.1117 595,-538.1117 689,-538.1117 689,-516.1117 595,-516.1117"/>
<text text-anchor="start" x="597.9758" y="-523.8117" font-family="Helvetica,sans-Serif" font-size="11.00" fill="#000000">uuid[2147483647]</text>
<polygon fill="none" stroke="#000000" points="371,-494.1117 371,-516.1117 595,-516.1117 595,-494.1117 371,-494.1117"/>
<text text-anchor="start" x="391" y="-501.2117" font-family="Helvetica,sans-Serif" font-size="11.00" fill="#000000">Year</text>
<polygon fill="none" stroke="#000000" points="595,-494.1117 595,-516.1117 689,-516.1117 689,-494.1117 595,-494.1117"/>
<text text-anchor="start" x="598" y="-501.8117" font-family="Helvetica,sans-Serif" font-size="11.00" fill="#000000">int4[10]</text>
<polygon fill="#ffffff" stroke="transparent" points="371,-472.1117 371,-494.1117 595,-494.1117 595,-472.1117 371,-472.1117"/>
<polygon fill="none" stroke="#000000" points="371,-472.1117 371,-494.1117 595,-494.1117 595,-472.1117 371,-472.1117"/>
<image xlink:href="../../images/foreignKeys.png" width="11px" height="12px" preserveAspectRatio="xMinYMin meet" x="376" y="-489.112"/>
<text text-anchor="start" x="391" y="-479.2117" font-family="Helvetica,sans-Serif" font-size="11.00" fill="#000000">CompetencyId</text>
<polygon fill="none" stroke="#000000" points="595,-472.1117 595,-494.1117 689,-494.1117 689,-472.1117 595,-472.1117"/>
<text text-anchor="start" x="597.9758" y="-479.8117" font-family="Helvetica,sans-Serif" font-size="11.00" fill="#000000">uuid[2147483647]</text>
<polygon fill="#ffffff" stroke="transparent" points="371,-450.1117 371,-472.1117 595,-472.1117 595,-450.1117 371,-450.1117"/>
<polygon fill="none" stroke="#000000" points="371,-450.1117 371,-472.1117 595,-472.1117 595,-450.1117 371,-450.1117"/>
<image xlink:href="../../images/foreignKeys.png" width="11px" height="12px" preserveAspectRatio="xMinYMin meet" x="376" y="-467.112"/>
<text text-anchor="start" x="391" y="-457.2117" font-family="Helvetica,sans-Serif" font-size="11.00" fill="#000000">EvaluationPeriodId</text>
<polygon fill="none" stroke="#000000" points="595,-450.1117 595,-472.1117 689,-472.1117 689,-450.1117 595,-450.1117"/>
<text text-anchor="start" x="597.9758" y="-457.8117" font-family="Helvetica,sans-Serif" font-size="11.00" fill="#000000">uuid[2147483647]</text>
<polygon fill="none" stroke="#000000" points="371,-428.1117 371,-450.1117 595,-450.1117 595,-428.1117 371,-428.1117"/>
<text text-anchor="start" x="391" y="-435.2117" font-family="Helvetica,sans-Serif" font-size="11.00" fill="#000000">IsActive</text>
<polygon fill="none" stroke="#000000" points="595,-428.1117 595,-450.1117 689,-450.1117 689,-428.1117 595,-428.1117"/>
<text text-anchor="start" x="598" y="-435.8117" font-family="Helvetica,sans-Serif" font-size="11.00" fill="#000000">bool[1]</text>
<polygon fill="none" stroke="#000000" points="371,-406.1117 371,-428.1117 595,-428.1117 595,-406.1117 371,-406.1117"/>
<text text-anchor="start" x="391" y="-413.2117" font-family="Helvetica,sans-Serif" font-size="11.00" fill="#000000">CreatedAt</text>
<polygon fill="none" stroke="#000000" points="595,-406.1117 595,-428.1117 689,-428.1117 689,-406.1117 595,-406.1117"/>
<text text-anchor="start" x="598" y="-413.8117" font-family="Helvetica,sans-Serif" font-size="11.00" fill="#000000">timestamptz[35,6]</text>
<polygon fill="none" stroke="#000000" points="371,-384.1117 371,-406.1117 595,-406.1117 595,-384.1117 371,-384.1117"/>
<text text-anchor="start" x="391" y="-391.2117" font-family="Helvetica,sans-Serif" font-size="11.00" fill="#000000">UpdatedAt</text>
<polygon fill="none" stroke="#000000" points="595,-384.1117 595,-406.1117 689,-406.1117 689,-384.1117 595,-384.1117"/>
<text text-anchor="start" x="598" y="-391.8117" font-family="Helvetica,sans-Serif" font-size="11.00" fill="#000000">timestamptz[35,6]</text>
<polygon fill="#ffffff" stroke="transparent" points="371,-362.1117 371,-384.1117 595,-384.1117 595,-362.1117 371,-362.1117"/>
<polygon fill="none" stroke="#000000" points="371,-362.1117 371,-384.1117 595,-384.1117 595,-362.1117 371,-362.1117"/>
<image xlink:href="../../images/foreignKeys.png" width="11px" height="12px" preserveAspectRatio="xMinYMin meet" x="376" y="-379.112"/>
<text text-anchor="start" x="391" y="-369.2117" font-family="Helvetica,sans-Serif" font-size="11.00" fill="#000000">CreatedByUserId</text>
<polygon fill="none" stroke="#000000" points="595,-362.1117 595,-384.1117 689,-384.1117 689,-362.1117 595,-362.1117"/>
<text text-anchor="start" x="598" y="-369.8117" font-family="Helvetica,sans-Serif" font-size="11.00" fill="#000000">text[2147483647]</text>
<polygon fill="#ffffff" stroke="transparent" points="371,-340.1117 371,-362.1117 595,-362.1117 595,-340.1117 371,-340.1117"/>
<polygon fill="none" stroke="#000000" points="371,-340.1117 371,-362.1117 595,-362.1117 595,-340.1117 371,-340.1117"/>
<image xlink:href="../../images/foreignKeys.png" width="11px" height="12px" preserveAspectRatio="xMinYMin meet" x="376" y="-357.112"/>
<text text-anchor="start" x="391" y="-347.2117" font-family="Helvetica,sans-Serif" font-size="11.00" fill="#000000">UpdatedByUserId</text>
<polygon fill="none" stroke="#000000" points="595,-340.1117 595,-362.1117 689,-362.1117 689,-340.1117 595,-340.1117"/>
<text text-anchor="start" x="598" y="-347.8117" font-family="Helvetica,sans-Serif" font-size="11.00" fill="#000000">text[2147483647]</text>
<polygon fill="#ffffff" stroke="transparent" points="371,-321.1117 371,-340.1117 474,-340.1117 474,-321.1117 371,-321.1117"/>
<polygon fill="none" stroke="#000000" points="371,-321.1117 371,-340.1117 474,-340.1117 474,-321.1117 371,-321.1117"/>
<text text-anchor="start" x="374" y="-327.2117" font-family="Helvetica,sans-Serif" font-size="11.00" fill="#000000">&lt; 6</text>
<polygon fill="#ffffff" stroke="transparent" points="474,-321.1117 474,-340.1117 595,-340.1117 595,-321.1117 474,-321.1117"/>
<polygon fill="none" stroke="#000000" points="474,-321.1117 474,-340.1117 595,-340.1117 595,-321.1117 474,-321.1117"/>
<text text-anchor="start" x="559.6105" y="-327.2117" font-family="Helvetica,sans-Serif" font-size="11.00" fill="#000000">0 rows</text>
<polygon fill="#ffffff" stroke="transparent" points="595,-321.1117 595,-340.1117 689,-340.1117 689,-321.1117 595,-321.1117"/>
<polygon fill="none" stroke="#000000" points="595,-321.1117 595,-340.1117 689,-340.1117 689,-321.1117 595,-321.1117"/>
<text text-anchor="start" x="670.4053" y="-327.2117" font-family="Helvetica,sans-Serif" font-size="11.00" fill="#000000">1 &gt;</text>
<polygon fill="none" stroke="#000000" stroke-width="2" points="370,-320.1117 370,-606.1117 690,-606.1117 690,-320.1117 370,-320.1117"/>
</a>
</g>
</g>
<!-- ProfessorCompetencyAssignments&#45;&gt;AspNetUsers -->
<g id="edge22" class="edge">
<title>ProfessorCompetencyAssignments:w&#45;&gt;AspNetUsers:e</title>
<path fill="none" stroke="#000000" d="M356.532,-374.6946C298.2024,-386.2516 194.5626,-458.2472 163,-496.1117 105.018,-565.6704 79.7582,-672.6545 70.136,-727.3308"/>
<polygon fill="#000000" stroke="#000000" points="363.0475,-373.9818 371.3915,-376.6903 367.0237,-373.5467 371,-373.1117 371,-373.1117 371,-373.1117 367.0237,-373.5467 370.6085,-369.533 363.0475,-373.9818 363.0475,-373.9818"/>
<ellipse fill="none" stroke="#000000" cx="359.8664" cy="-374.3298" rx="3.2" ry="3.2"/>
</g>
<!-- ProfessorCompetencyAssignments&#45;&gt;AspNetUsers -->
<g id="edge26" class="edge">
<title>ProfessorCompetencyAssignments:w&#45;&gt;AspNetUsers:e</title>
<path fill="none" stroke="#000000" d="M356.3471,-350.8581C272.6211,-347.994 228.7196,-322.9212 163,-382.1117 111.2994,-428.6759 79.714,-642.833 69.0569,-727.5132"/>
<polygon fill="#000000" stroke="#000000" points="363.0012,-350.9732 370.9377,-354.7112 367.0006,-351.0425 371,-351.1117 371,-351.1117 371,-351.1117 367.0006,-351.0425 371.0623,-347.5122 363.0012,-350.9732 363.0012,-350.9732"/>
<ellipse fill="none" stroke="#000000" cx="359.8017" cy="-350.9178" rx="3.2" ry="3.2"/>
</g>
<!-- ProfessorCompetencyAssignments&#45;&gt;Competencies -->
<g id="edge21" class="edge">
<title>ProfessorCompetencyAssignments:w&#45;&gt;Competencies:e</title>
<path fill="none" stroke="#000000" d="M357.0142,-488.2345C319.3361,-520.2995 348.9996,-693.587 328,-742.1117 316.2863,-769.1791 296.3422,-795.5627 278.998,-815.4769"/>
<polygon fill="#000000" stroke="#000000" points="363.4881,-485.8633 372.2382,-486.4921 367.244,-484.4875 371,-483.1117 371,-483.1117 371,-483.1117 367.244,-484.4875 369.7618,-479.7313 363.4881,-485.8633 363.4881,-485.8633"/>
<ellipse fill="none" stroke="#000000" cx="360.4833" cy="-486.9639" rx="3.2" ry="3.2"/>
</g>
<!-- ProfessorCompetencyAssignments&#45;&gt;TechnicalCareers -->
<g id="edge25" class="edge">
<title>ProfessorCompetencyAssignments:w&#45;&gt;TechnicalCareers:e</title>
<path fill="none" stroke="#000000" d="M356.5562,-529.2747C319.1839,-542.8827 364.7466,-617.458 328,-660.1117 326.1209,-662.2928 324.0982,-664.37 321.9614,-666.3469"/>
<polygon fill="#000000" stroke="#000000" points="363.0882,-528.2966 371.5332,-530.672 367.0441,-527.7041 371,-527.1117 371,-527.1117 371,-527.1117 367.0441,-527.7041 370.4668,-523.5514 363.0882,-528.2966 363.0882,-528.2966"/>
<ellipse fill="none" stroke="#000000" cx="359.9235" cy="-528.7705" rx="3.2" ry="3.2"/>
</g>
<!-- ProfessorCompetencyAssignments&#45;&gt;EvaluationPeriods -->
<g id="edge23" class="edge">
<title>ProfessorCompetencyAssignments:w&#45;&gt;EvaluationPeriods:e</title>
<path fill="none" stroke="#000000" d="M356.5438,-462.3122C327.3553,-467.0753 300.0369,-485.2222 279.8,-502.4477"/>
<polygon fill="#000000" stroke="#000000" points="363.0274,-461.7738 371.2979,-464.6993 367.0137,-461.4428 371,-461.1117 371,-461.1117 371,-461.1117 367.0137,-461.4428 370.7021,-457.524 363.0274,-461.7738 363.0274,-461.7738"/>
<ellipse fill="none" stroke="#000000" cx="359.8384" cy="-462.0387" rx="3.2" ry="3.2"/>
</g>
<!-- Professors -->
<g id="node15" class="node">
<title>Professors</title>
<g id="a_node15"><a xlink:href="../../tables/Professors.html" xlink:title="Professors" target="_top">
<polygon fill="#ffffff" stroke="transparent" points="195,-588.6117 195,-649.6117 296,-649.6117 296,-588.6117 195,-588.6117"/>
<polygon fill="#f5f5f5" stroke="transparent" points="195.5,-626.1117 195.5,-649.1117 296.5,-649.1117 296.5,-626.1117 195.5,-626.1117"/>
<polygon fill="none" stroke="#000000" points="195.5,-626.1117 195.5,-649.1117 296.5,-649.1117 296.5,-626.1117 195.5,-626.1117"/>
<text text-anchor="start" x="200.5" y="-634.7117" font-family="Helvetica,sans-Serif" font-weight="bold" font-size="11.00" fill="#000000">Professors</text>
<text text-anchor="start" x="262.0219" y="-634.2117" font-family="Helvetica,sans-Serif" font-size="11.00" fill="#000000">[table]</text>
<polygon fill="none" stroke="#000000" points="195.5,-607.1117 195.5,-626.1117 296.5,-626.1117 296.5,-607.1117 195.5,-607.1117"/>
<text text-anchor="start" x="198.5" y="-613.2117" font-family="Helvetica,sans-Serif" font-size="11.00" fill="#000000">...</text>
<polygon fill="#ffffff" stroke="transparent" points="195.5,-588.1117 195.5,-607.1117 226.5,-607.1117 226.5,-588.1117 195.5,-588.1117"/>
<polygon fill="none" stroke="#000000" points="195.5,-588.1117 195.5,-607.1117 226.5,-607.1117 226.5,-588.1117 195.5,-588.1117"/>
<text text-anchor="start" x="198.5" y="-594.2117" font-family="Helvetica,sans-Serif" font-size="11.00" fill="#000000">&lt; 1</text>
<polygon fill="#ffffff" stroke="transparent" points="226.5,-588.1117 226.5,-607.1117 269.5,-607.1117 269.5,-588.1117 226.5,-588.1117"/>
<polygon fill="none" stroke="#000000" points="226.5,-588.1117 226.5,-607.1117 269.5,-607.1117 269.5,-588.1117 226.5,-588.1117"/>
<text text-anchor="start" x="234.1105" y="-594.2117" font-family="Helvetica,sans-Serif" font-size="11.00" fill="#000000">0 rows</text>
<polygon fill="#ffffff" stroke="transparent" points="269.5,-588.1117 269.5,-607.1117 296.5,-607.1117 296.5,-588.1117 269.5,-588.1117"/>
<polygon fill="none" stroke="#000000" points="269.5,-588.1117 269.5,-607.1117 296.5,-607.1117 296.5,-588.1117 269.5,-588.1117"/>
<text text-anchor="start" x="277.9053" y="-594.2117" font-family="Helvetica,sans-Serif" font-size="11.00" fill="#000000">2 &gt;</text>
</a>
</g>
</g>
<!-- ProfessorCompetencyAssignments&#45;&gt;Professors -->
<g id="edge24" class="edge">
<title>ProfessorCompetencyAssignments:w&#45;&gt;Professors:e</title>
<path fill="none" stroke="#000000" d="M356.7,-552.3601C346.5302,-557.9466 342.629,-569.5936 328,-578.1117 320.398,-582.5381 312.2545,-586.9551 304.153,-591.1623"/>
<polygon fill="#000000" stroke="#000000" points="363.1987,-550.8839 371.7975,-552.6223 367.0994,-549.9978 371,-549.1117 371,-549.1117 371,-549.1117 367.0994,-549.9978 370.2025,-545.6011 363.1987,-550.8839 363.1987,-550.8839"/>
<ellipse fill="none" stroke="#000000" cx="360.0782" cy="-551.5927" rx="3.2" ry="3.2"/>
</g>
<!-- Professors&#45;&gt;AspNetUsers -->
<g id="edge27" class="edge">
<title>Professors:w&#45;&gt;AspNetUsers:e</title>
<path fill="none" stroke="#000000" d="M177.559,-650.4541C172.5052,-653.512 167.5929,-656.7396 163,-660.1117 136.6727,-679.441 111.2497,-706.2171 92.8974,-727.485"/>
<polygon fill="#000000" stroke="#000000" points="184.0781,-642.0737 188.0768,-649.0027 186.691,-649.8024 182.6923,-642.8734 184.0781,-642.0737"/>
<polyline fill="none" stroke="#000000" points="186.7703,-645.1383 183.3058,-647.1377 "/>
<ellipse fill="none" stroke="#000000" cx="180.5342" cy="-648.7371" rx="3.2" ry="3.2"/>
</g>
<!-- QuestionResponses -->
<g id="node16" class="node">
<title>QuestionResponses</title>
<g id="a_node16"><a xlink:href="../../tables/QuestionResponses.html" xlink:title="QuestionResponses" target="_top">
<polygon fill="#ffffff" stroke="transparent" points="1012,-144.6117 1012,-205.6117 1167,-205.6117 1167,-144.6117 1012,-144.6117"/>
<polygon fill="#f5f5f5" stroke="transparent" points="1012.5,-182.1117 1012.5,-205.1117 1167.5,-205.1117 1167.5,-182.1117 1012.5,-182.1117"/>
<polygon fill="none" stroke="#000000" points="1012.5,-182.1117 1012.5,-205.1117 1167.5,-205.1117 1167.5,-182.1117 1012.5,-182.1117"/>
<text text-anchor="start" x="1017.5" y="-190.7117" font-family="Helvetica,sans-Serif" font-weight="bold" font-size="11.00" fill="#000000">QuestionResponses</text>
<text text-anchor="start" x="1133.0219" y="-190.2117" font-family="Helvetica,sans-Serif" font-size="11.00" fill="#000000">[table]</text>
<polygon fill="none" stroke="#000000" points="1012.5,-163.1117 1012.5,-182.1117 1167.5,-182.1117 1167.5,-163.1117 1012.5,-163.1117"/>
<text text-anchor="start" x="1015.5" y="-169.2117" font-family="Helvetica,sans-Serif" font-size="11.00" fill="#000000">...</text>
<polygon fill="#ffffff" stroke="transparent" points="1012.5,-144.1117 1012.5,-163.1117 1075.5,-163.1117 1075.5,-144.1117 1012.5,-144.1117"/>
<polygon fill="none" stroke="#000000" points="1012.5,-144.1117 1012.5,-163.1117 1075.5,-163.1117 1075.5,-144.1117 1012.5,-144.1117"/>
<text text-anchor="start" x="1015.5" y="-150.2117" font-family="Helvetica,sans-Serif" font-size="11.00" fill="#000000">&lt; 4</text>
<polygon fill="#ffffff" stroke="transparent" points="1075.5,-144.1117 1075.5,-163.1117 1134.5,-163.1117 1134.5,-144.1117 1075.5,-144.1117"/>
<polygon fill="none" stroke="#000000" points="1075.5,-144.1117 1075.5,-163.1117 1134.5,-163.1117 1134.5,-144.1117 1075.5,-144.1117"/>
<text text-anchor="start" x="1099.1105" y="-150.2117" font-family="Helvetica,sans-Serif" font-size="11.00" fill="#000000">0 rows</text>
<polygon fill="#ffffff" stroke="transparent" points="1134.5,-144.1117 1134.5,-163.1117 1167.5,-163.1117 1167.5,-144.1117 1134.5,-144.1117"/>
<polygon fill="none" stroke="#000000" points="1134.5,-144.1117 1134.5,-163.1117 1167.5,-163.1117 1167.5,-144.1117 1134.5,-144.1117"/>
<text text-anchor="start" x="1158.3862" y="-150.2117" font-family="Helvetica,sans-Serif" font-size="11.00" fill="#000000"> &#160;</text>
</a>
</g>
</g>
<!-- QuestionResponses&#45;&gt;AspNetUsers -->
<g id="edge28" class="edge">
<title>QuestionResponses:w&#45;&gt;AspNetUsers:e</title>
<path fill="none" stroke="#000000" d="M999.7121,-165.3172C987.2452,-152.08 992.2365,-125.2101 971,-115.1117 834.7439,-50.3194 334.4947,29.0665 163,-119.1117 116.54,-159.2549 77.7048,-598.8635 67.5751,-727.1867"/>
<polygon fill="#000000" stroke="#000000" points="1005.4353,-168.358 1010.8108,-175.2908 1008.9676,-170.2349 1012.5,-172.1117 1012.5,-172.1117 1012.5,-172.1117 1008.9676,-170.2349 1014.1892,-168.9326 1005.4353,-168.358 1005.4353,-168.358"/>
<ellipse fill="none" stroke="#000000" cx="1002.6094" cy="-166.8565" rx="3.2" ry="3.2"/>
</g>
<!-- QuestionResponses&#45;&gt;AspNetUsers -->
<g id="edge31" class="edge">
<title>QuestionResponses:w&#45;&gt;AspNetUsers:e</title>
<path fill="none" stroke="#000000" d="M998.0149,-170.4622C987.668,-162.5108 991.2056,-137.7198 971,-128.1117 834.7439,-63.3194 334.4947,16.0665 163,-132.1117 117.1221,-171.752 78.6791,-600.911 67.9693,-727.328"/>
<polygon fill="#000000" stroke="#000000" points="1004.5514,-171.2065 1012.0927,-175.6886 1008.5257,-171.6591 1012.5,-172.1117 1012.5,-172.1117 1012.5,-172.1117 1008.5257,-171.6591 1012.9073,-168.5348 1004.5514,-171.2065 1004.5514,-171.2065"/>
<ellipse fill="none" stroke="#000000" cx="1001.3719" cy="-170.8444" rx="3.2" ry="3.2"/>
</g>
<!-- QuestionResponses&#45;&gt;FormQuestions -->
<g id="edge29" class="edge">
<title>QuestionResponses:w&#45;&gt;FormQuestions:e</title>
<path fill="none" stroke="#000000" d="M999.9088,-179.3403C947.1977,-247.8038 1008.7477,-780.7937 971,-839.1117 869.5826,-995.7957 780.6423,-1024.1117 594,-1024.1117"/>
<polygon fill="#000000" stroke="#000000" points="1005.562,-176.0948 1014.2924,-175.2338 1009.031,-174.1032 1012.5,-172.1117 1012.5,-172.1117 1012.5,-172.1117 1009.031,-174.1032 1010.7076,-168.9896 1005.562,-176.0948 1005.562,-176.0948"/>
<ellipse fill="none" stroke="#000000" cx="1002.7869" cy="-177.688" rx="3.2" ry="3.2"/>
</g>
<!-- StudentCompetencyEvaluations -->
<g id="node17" class="node">
<title>StudentCompetencyEvaluations</title>
<g id="a_node17"><a xlink:href="../../tables/StudentCompetencyEvaluations.html" xlink:title="StudentCompetencyEvaluations" target="_top">
<polygon fill="#ffffff" stroke="transparent" points="740,-213.6117 740,-274.6117 963,-274.6117 963,-213.6117 740,-213.6117"/>
<polygon fill="#f5f5f5" stroke="transparent" points="740.5,-251.1117 740.5,-274.1117 963.5,-274.1117 963.5,-251.1117 740.5,-251.1117"/>
<polygon fill="none" stroke="#000000" points="740.5,-251.1117 740.5,-274.1117 963.5,-274.1117 963.5,-251.1117 740.5,-251.1117"/>
<text text-anchor="start" x="745.5" y="-259.7117" font-family="Helvetica,sans-Serif" font-weight="bold" font-size="11.00" fill="#000000">StudentCompetencyEvaluations</text>
<text text-anchor="start" x="929.0219" y="-259.2117" font-family="Helvetica,sans-Serif" font-size="11.00" fill="#000000">[table]</text>
<polygon fill="none" stroke="#000000" points="740.5,-232.1117 740.5,-251.1117 963.5,-251.1117 963.5,-232.1117 740.5,-232.1117"/>
<text text-anchor="start" x="743.5" y="-238.2117" font-family="Helvetica,sans-Serif" font-size="11.00" fill="#000000">...</text>
<polygon fill="#ffffff" stroke="transparent" points="740.5,-213.1117 740.5,-232.1117 832.5,-232.1117 832.5,-213.1117 740.5,-213.1117"/>
<polygon fill="none" stroke="#000000" points="740.5,-213.1117 740.5,-232.1117 832.5,-232.1117 832.5,-213.1117 740.5,-213.1117"/>
<text text-anchor="start" x="743.5" y="-219.2117" font-family="Helvetica,sans-Serif" font-size="11.00" fill="#000000">&lt; 4</text>
<polygon fill="#ffffff" stroke="transparent" points="832.5,-213.1117 832.5,-232.1117 906.5,-232.1117 906.5,-213.1117 832.5,-213.1117"/>
<polygon fill="none" stroke="#000000" points="832.5,-213.1117 832.5,-232.1117 906.5,-232.1117 906.5,-213.1117 832.5,-213.1117"/>
<text text-anchor="start" x="871.1105" y="-219.2117" font-family="Helvetica,sans-Serif" font-size="11.00" fill="#000000">0 rows</text>
<polygon fill="#ffffff" stroke="transparent" points="906.5,-213.1117 906.5,-232.1117 963.5,-232.1117 963.5,-213.1117 906.5,-213.1117"/>
<polygon fill="none" stroke="#000000" points="906.5,-213.1117 906.5,-232.1117 963.5,-232.1117 963.5,-213.1117 906.5,-213.1117"/>
<text text-anchor="start" x="944.9053" y="-219.2117" font-family="Helvetica,sans-Serif" font-size="11.00" fill="#000000">1 &gt;</text>
</a>
</g>
</g>
<!-- QuestionResponses&#45;&gt;StudentCompetencyEvaluations -->
<g id="edge30" class="edge">
<title>QuestionResponses:w&#45;&gt;StudentCompetencyEvaluations:e</title>
<path fill="none" stroke="#000000" d="M998.5414,-175.8398C988.9068,-182.1975 985.949,-195.214 971,-203.1117 966.8304,-205.3146 962.5183,-207.4366 958.117,-209.4758"/>
<polygon fill="#000000" stroke="#000000" points="1004.7709,-174.176 1013.429,-175.5898 1008.6355,-173.1439 1012.5,-172.1117 1012.5,-172.1117 1012.5,-172.1117 1008.6355,-173.1439 1011.571,-168.6336 1004.7709,-174.176 1004.7709,-174.176"/>
<ellipse fill="none" stroke="#000000" cx="1001.6793" cy="-175.0018" rx="3.2" ry="3.2"/>
</g>
<!-- StudentCompetencyEvaluations&#45;&gt;AspNetUsers -->
<g id="edge32" class="edge">
<title>StudentCompetencyEvaluations:w&#45;&gt;AspNetUsers:e</title>
<path fill="none" stroke="#000000" d="M750.759,-204.9636C600.6062,-157.3629 319.0842,-100.9163 163,-252.1117 94.813,-318.163 72.2504,-623.2079 66.5945,-727.2764"/>
<polygon fill="#000000" stroke="#000000" points="757.2606,-207.0697 763.7618,-212.96 761.0659,-208.3025 764.8712,-209.5352 764.8712,-209.5352 764.8712,-209.5352 761.0659,-208.3025 765.9807,-206.1104 757.2606,-207.0697 757.2606,-207.0697"/>
<ellipse fill="none" stroke="#000000" cx="754.2164" cy="-206.0835" rx="3.2" ry="3.2"/>
</g>
<!-- StudentCompetencyEvaluations&#45;&gt;AspNetUsers -->
<g id="edge35" class="edge">
<title>StudentCompetencyEvaluations:w&#45;&gt;AspNetUsers:e</title>
<path fill="none" stroke="#000000" d="M723.1862,-205.6993C568.1821,-164.4829 309.9774,-122.7379 163,-265.1117 96.0135,-330.0001 73.059,-625.541 66.9091,-727.4959"/>
<polygon fill="#000000" stroke="#000000" points="729.6738,-207.4584 736.4527,-213.0268 733.5343,-208.5053 737.3949,-209.5522 737.3949,-209.5522 737.3949,-209.5522 733.5343,-208.5053 738.3371,-206.0777 729.6738,-207.4584 729.6738,-207.4584"/>
<ellipse fill="none" stroke="#000000" cx="726.5853" cy="-206.6209" rx="3.2" ry="3.2"/>
</g>
<!-- StudentCompetencyEvaluations&#45;&gt;ProfessorCompetencyAssignments -->
<g id="edge33" class="edge">
<title>StudentCompetencyEvaluations:w&#45;&gt;ProfessorCompetencyAssignments:e</title>
<path fill="none" stroke="#000000" d="M838.2123,-292.8147C811.9016,-383.9442 750.3905,-571.1117 689,-571.1117"/>
<polygon fill="#000000" stroke="#000000" points="840.0112,-286.4915 845.6629,-279.7819 841.1057,-282.6442 842.2003,-278.7968 842.2003,-278.7968 842.2003,-278.7968 841.1057,-282.6442 838.7377,-277.8117 840.0112,-286.4915 840.0112,-286.4915"/>
<ellipse fill="none" stroke="#000000" cx="839.1355" cy="-289.5694" rx="3.2" ry="3.2"/>
</g>
<!-- Students -->
<g id="node18" class="node">
<title>Students</title>
<g id="a_node18"><a xlink:href="../../tables/Students.html" xlink:title="Students" target="_top">
<polygon fill="#ffffff" stroke="transparent" points="485,-236.6117 485,-297.6117 575,-297.6117 575,-236.6117 485,-236.6117"/>
<polygon fill="#f5f5f5" stroke="transparent" points="485,-274.1117 485,-297.1117 575,-297.1117 575,-274.1117 485,-274.1117"/>
<polygon fill="none" stroke="#000000" points="485,-274.1117 485,-297.1117 575,-297.1117 575,-274.1117 485,-274.1117"/>
<text text-anchor="start" x="490" y="-282.7117" font-family="Helvetica,sans-Serif" font-weight="bold" font-size="11.00" fill="#000000">Students</text>
<text text-anchor="start" x="540.5219" y="-282.2117" font-family="Helvetica,sans-Serif" font-size="11.00" fill="#000000">[table]</text>
<polygon fill="none" stroke="#000000" points="485,-255.1117 485,-274.1117 575,-274.1117 575,-255.1117 485,-255.1117"/>
<text text-anchor="start" x="488" y="-261.2117" font-family="Helvetica,sans-Serif" font-size="11.00" fill="#000000">...</text>
<polygon fill="#ffffff" stroke="transparent" points="485,-236.1117 485,-255.1117 511,-255.1117 511,-236.1117 485,-236.1117"/>
<polygon fill="none" stroke="#000000" points="485,-236.1117 485,-255.1117 511,-255.1117 511,-236.1117 485,-236.1117"/>
<text text-anchor="start" x="488" y="-242.2117" font-family="Helvetica,sans-Serif" font-size="11.00" fill="#000000">&lt; 2</text>
<polygon fill="#ffffff" stroke="transparent" points="511,-236.1117 511,-255.1117 551,-255.1117 551,-236.1117 511,-236.1117"/>
<polygon fill="none" stroke="#000000" points="511,-236.1117 511,-255.1117 551,-255.1117 551,-236.1117 511,-236.1117"/>
<text text-anchor="start" x="515.6105" y="-242.2117" font-family="Helvetica,sans-Serif" font-size="11.00" fill="#000000">0 rows</text>
<polygon fill="#ffffff" stroke="transparent" points="551,-236.1117 551,-255.1117 575,-255.1117 575,-236.1117 551,-236.1117"/>
<polygon fill="none" stroke="#000000" points="551,-236.1117 551,-255.1117 575,-255.1117 575,-236.1117 551,-236.1117"/>
<text text-anchor="start" x="556.4053" y="-242.2117" font-family="Helvetica,sans-Serif" font-size="11.00" fill="#000000">3 &gt;</text>
</a>
</g>
</g>
<!-- StudentCompetencyEvaluations&#45;&gt;Students -->
<g id="edge34" class="edge">
<title>StudentCompetencyEvaluations:w&#45;&gt;Students:e</title>
<path fill="none" stroke="#000000" d="M717.4052,-257.723C672.2163,-261.2668 621.4688,-264.1117 575,-264.1117"/>
<polygon fill="#000000" stroke="#000000" points="723.8953,-257.197 732.16,-260.1388 727.8822,-256.8738 731.8691,-256.5506 731.8691,-256.5506 731.8691,-256.5506 727.8822,-256.8738 731.5783,-252.9623 723.8953,-257.197 723.8953,-257.197"/>
<ellipse fill="none" stroke="#000000" cx="720.7058" cy="-257.4555" rx="3.2" ry="3.2"/>
</g>
<!-- Students&#45;&gt;AspNetUsers -->
<g id="edge41" class="edge">
<title>Students:w&#45;&gt;AspNetUsers:e</title>
<path fill="none" stroke="#000000" d="M474.3643,-264.0637C334.4622,-262.8155 264.2541,-238.4924 163,-340.1117 108.1201,-395.1895 77.964,-636.5514 68.3922,-727.3806"/>
<polygon fill="#000000" stroke="#000000" points="484.2181,-260.1081 484.1819,-268.108 482.5819,-268.1008 482.6181,-260.1009 484.2181,-260.1081"/>
<polyline fill="none" stroke="#000000" points="485,-264.1117 481,-264.0936 "/>
<ellipse fill="none" stroke="#000000" cx="477.8001" cy="-264.0791" rx="3.2" ry="3.2"/>
</g>
<!-- Students&#45;&gt;TechnicalCareers -->
<g id="edge40" class="edge">
<title>Students:w&#45;&gt;TechnicalCareers:e</title>
<path fill="none" stroke="#000000" d="M470.5076,-264.1123C421.2532,-264.2272 393.7807,-266.7175 361,-309.1117 313.077,-371.0888 372.3435,-595.5251 328,-660.1117 326.461,-662.3532 324.7626,-664.4779 322.9328,-666.4913"/>
<polygon fill="#000000" stroke="#000000" points="477,-264.1121 485.0002,-267.7117 481,-264.1119 485,-264.1117 485,-264.1117 485,-264.1117 481,-264.1119 484.9998,-260.5117 477,-264.1121 477,-264.1121"/>
<ellipse fill="none" stroke="#000000" cx="473.8" cy="-264.1122" rx="3.2" ry="3.2"/>
</g>
<!-- StudentEvaluationReport -->
<g id="node19" class="node">
<title>StudentEvaluationReport</title>
<g id="a_node19"><a xlink:href="../../tables/StudentEvaluationReport.html" xlink:title="StudentEvaluationReport" target="_top">
<polygon fill="#ffffff" stroke="transparent" points="760,-131.6117 760,-192.6117 943,-192.6117 943,-131.6117 760,-131.6117"/>
<polygon fill="#f5f5f5" stroke="transparent" points="760.5,-169.1117 760.5,-192.1117 943.5,-192.1117 943.5,-169.1117 760.5,-169.1117"/>
<polygon fill="none" stroke="#000000" points="760.5,-169.1117 760.5,-192.1117 943.5,-192.1117 943.5,-169.1117 760.5,-169.1117"/>
<text text-anchor="start" x="765.5" y="-177.7117" font-family="Helvetica,sans-Serif" font-weight="bold" font-size="11.00" fill="#000000">StudentEvaluationReport</text>
<text text-anchor="start" x="909.0219" y="-177.2117" font-family="Helvetica,sans-Serif" font-size="11.00" fill="#000000">[table]</text>
<polygon fill="none" stroke="#000000" points="760.5,-150.1117 760.5,-169.1117 943.5,-169.1117 943.5,-150.1117 760.5,-150.1117"/>
<text text-anchor="start" x="763.5" y="-156.2117" font-family="Helvetica,sans-Serif" font-size="11.00" fill="#000000">...</text>
<polygon fill="#ffffff" stroke="transparent" points="760.5,-131.1117 760.5,-150.1117 837.5,-150.1117 837.5,-131.1117 760.5,-131.1117"/>
<polygon fill="none" stroke="#000000" points="760.5,-131.1117 760.5,-150.1117 837.5,-150.1117 837.5,-131.1117 760.5,-131.1117"/>
<text text-anchor="start" x="763.5" y="-137.2117" font-family="Helvetica,sans-Serif" font-size="11.00" fill="#000000">&lt; 4</text>
<polygon fill="#ffffff" stroke="transparent" points="837.5,-131.1117 837.5,-150.1117 903.5,-150.1117 903.5,-131.1117 837.5,-131.1117"/>
<polygon fill="none" stroke="#000000" points="837.5,-131.1117 837.5,-150.1117 903.5,-150.1117 903.5,-131.1117 837.5,-131.1117"/>
<text text-anchor="start" x="868.1105" y="-137.2117" font-family="Helvetica,sans-Serif" font-size="11.00" fill="#000000">0 rows</text>
<polygon fill="#ffffff" stroke="transparent" points="903.5,-131.1117 903.5,-150.1117 943.5,-150.1117 943.5,-131.1117 903.5,-131.1117"/>
<polygon fill="none" stroke="#000000" points="903.5,-131.1117 903.5,-150.1117 943.5,-150.1117 943.5,-131.1117 903.5,-131.1117"/>
<text text-anchor="start" x="934.3862" y="-137.2117" font-family="Helvetica,sans-Serif" font-size="11.00" fill="#000000"> &#160;</text>
</a>
</g>
</g>
<!-- StudentEvaluationReport&#45;&gt;AspNetUsers -->
<g id="edge36" class="edge">
<title>StudentEvaluationReport:w&#45;&gt;AspNetUsers:e</title>
<path fill="none" stroke="#000000" d="M746.0834,-158.2557C602.9557,-148.0153 257.8469,-78.7632 163,-165.1117 121.0373,-203.3145 79.3956,-605.9308 68.0271,-727.5584"/>
<polygon fill="#000000" stroke="#000000" points="752.5141,-158.6375 760.2866,-162.7054 756.507,-158.8746 760.5,-159.1117 760.5,-159.1117 760.5,-159.1117 756.507,-158.8746 760.7134,-155.518 752.5141,-158.6375 752.5141,-158.6375"/>
<ellipse fill="none" stroke="#000000" cx="749.3197" cy="-158.4478" rx="3.2" ry="3.2"/>
</g>
<!-- StudentEvaluationReport&#45;&gt;AspNetUsers -->
<g id="edge39" class="edge">
<title>StudentEvaluationReport:w&#45;&gt;AspNetUsers:e</title>
<path fill="none" stroke="#000000" d="M746.0834,-159.5437C602.9557,-161.0153 257.8469,-91.7632 163,-178.1117 121.6622,-215.7456 80.6359,-607.0208 68.555,-727.2392"/>
<polygon fill="#000000" stroke="#000000" points="752.5036,-159.3514 760.6078,-162.7101 756.5018,-159.2315 760.5,-159.1117 760.5,-159.1117 760.5,-159.1117 756.5018,-159.2315 760.3922,-155.5133 752.5036,-159.3514 752.5036,-159.3514"/>
<ellipse fill="none" stroke="#000000" cx="749.305" cy="-159.4472" rx="3.2" ry="3.2"/>
</g>
<!-- StudentEvaluationReport&#45;&gt;EvaluationPeriods -->
<g id="edge37" class="edge">
<title>StudentEvaluationReport:w&#45;&gt;EvaluationPeriods:e</title>
<path fill="none" stroke="#000000" d="M745.9729,-159.1882C646.99,-160.1915 426.9309,-171.6209 361,-226.1117 275.4269,-296.8365 253.2375,-437.3665 247.4966,-502.4909"/>
<polygon fill="#000000" stroke="#000000" points="752.5001,-159.1539 760.519,-162.7116 756.5001,-159.1328 760.5,-159.1117 760.5,-159.1117 760.5,-159.1117 756.5001,-159.1328 760.481,-155.5117 752.5001,-159.1539 752.5001,-159.1539"/>
<ellipse fill="none" stroke="#000000" cx="749.3002" cy="-159.1708" rx="3.2" ry="3.2"/>
</g>
<!-- StudentEvaluationReport&#45;&gt;Students -->
<g id="edge38" class="edge">
<title>StudentEvaluationReport:w&#45;&gt;Students:e</title>
<path fill="none" stroke="#000000" d="M746.1051,-161.7072C696.4952,-177.8763 617.9271,-264.1117 575,-264.1117"/>
<polygon fill="#000000" stroke="#000000" points="752.627,-160.5313 761.1388,-162.6546 756.5635,-159.8215 760.5,-159.1117 760.5,-159.1117 760.5,-159.1117 756.5635,-159.8215 759.8612,-155.5688 752.627,-160.5313 752.627,-160.5313"/>
<ellipse fill="none" stroke="#000000" cx="749.4777" cy="-161.0992" rx="3.2" ry="3.2"/>
</g>
<!-- StudentSubjects -->
<g id="node20" class="node">
<title>StudentSubjects</title>
<g id="a_node20"><a xlink:href="../../tables/StudentSubjects.html" xlink:title="StudentSubjects" target="_top">
<polygon fill="#ffffff" stroke="transparent" points="785,-767.6117 785,-828.6117 918,-828.6117 918,-767.6117 785,-767.6117"/>
<polygon fill="#f5f5f5" stroke="transparent" points="785.5,-805.1117 785.5,-828.1117 918.5,-828.1117 918.5,-805.1117 785.5,-805.1117"/>
<polygon fill="none" stroke="#000000" points="785.5,-805.1117 785.5,-828.1117 918.5,-828.1117 918.5,-805.1117 785.5,-805.1117"/>
<text text-anchor="start" x="790.5" y="-813.7117" font-family="Helvetica,sans-Serif" font-weight="bold" font-size="11.00" fill="#000000">StudentSubjects</text>
<text text-anchor="start" x="884.0219" y="-813.2117" font-family="Helvetica,sans-Serif" font-size="11.00" fill="#000000">[table]</text>
<polygon fill="none" stroke="#000000" points="785.5,-786.1117 785.5,-805.1117 918.5,-805.1117 918.5,-786.1117 785.5,-786.1117"/>
<text text-anchor="start" x="788.5" y="-792.2117" font-family="Helvetica,sans-Serif" font-size="11.00" fill="#000000">...</text>
<polygon fill="#ffffff" stroke="transparent" points="785.5,-767.1117 785.5,-786.1117 837.5,-786.1117 837.5,-767.1117 785.5,-767.1117"/>
<polygon fill="none" stroke="#000000" points="785.5,-767.1117 785.5,-786.1117 837.5,-786.1117 837.5,-767.1117 785.5,-767.1117"/>
<text text-anchor="start" x="788.5" y="-773.2117" font-family="Helvetica,sans-Serif" font-size="11.00" fill="#000000">&lt; 4</text>
<polygon fill="#ffffff" stroke="transparent" points="837.5,-767.1117 837.5,-786.1117 890.5,-786.1117 890.5,-767.1117 837.5,-767.1117"/>
<polygon fill="none" stroke="#000000" points="837.5,-767.1117 837.5,-786.1117 890.5,-786.1117 890.5,-767.1117 837.5,-767.1117"/>
<text text-anchor="start" x="855.1105" y="-773.2117" font-family="Helvetica,sans-Serif" font-size="11.00" fill="#000000">0 rows</text>
<polygon fill="#ffffff" stroke="transparent" points="890.5,-767.1117 890.5,-786.1117 918.5,-786.1117 918.5,-767.1117 890.5,-767.1117"/>
<polygon fill="none" stroke="#000000" points="890.5,-767.1117 890.5,-786.1117 918.5,-786.1117 918.5,-767.1117 890.5,-767.1117"/>
<text text-anchor="start" x="909.3862" y="-773.2117" font-family="Helvetica,sans-Serif" font-size="11.00" fill="#000000"> &#160;</text>
</a>
</g>
</g>
<!-- StudentSubjects&#45;&gt;AspNetUsers -->
<g id="edge42" class="edge">
<title>StudentSubjects:w&#45;&gt;AspNetUsers:e</title>
<path fill="none" stroke="#000000" d="M771.0631,-794.0436C752.6241,-795.6367 745.9272,-810.7373 732,-831.1117 703.4364,-872.898 739.6469,-909.9487 699,-940.1117 638.6824,-984.8718 433.7822,-958.6707 361,-940.1117 344.8114,-935.9837 343.6358,-927.9965 328,-922.1117 257.6624,-895.6388 226.2378,-925.7217 163,-885.1117 128.8028,-863.1509 101.9875,-824.8815 85.1161,-796.7902"/>
<polygon fill="#000000" stroke="#000000" points="777.5218,-794.5214 785.2344,-798.7019 781.5109,-794.8165 785.5,-795.1117 785.5,-795.1117 785.5,-795.1117 781.5109,-794.8165 785.7656,-791.5215 777.5218,-794.5214 777.5218,-794.5214"/>
<ellipse fill="none" stroke="#000000" cx="774.3305" cy="-794.2852" rx="3.2" ry="3.2"/>
</g>
<!-- StudentSubjects&#45;&gt;AspNetUsers -->
<g id="edge45" class="edge">
<title>StudentSubjects:w&#45;&gt;AspNetUsers:e</title>
<path fill="none" stroke="#000000" d="M771.5957,-799.7226C752.7516,-808.3481 746.0605,-823.5423 732,-844.1117 703.4364,-885.898 739.6469,-922.9487 699,-953.1117 638.6824,-997.8718 433.7822,-971.6707 361,-953.1117 344.8114,-948.9837 343.6358,-940.9965 328,-935.1117 257.6624,-908.6388 226.2378,-938.7217 163,-898.1117 124.6613,-873.4913 95.6007,-828.3729 79.4285,-796.7846"/>
<polygon fill="#000000" stroke="#000000" points="777.9066,-797.6298 786.6331,-798.5287 781.7033,-796.3707 785.5,-795.1117 785.5,-795.1117 785.5,-795.1117 781.7033,-796.3707 784.3669,-791.6947 777.9066,-797.6298 777.9066,-797.6298"/>
<ellipse fill="none" stroke="#000000" cx="774.8693" cy="-798.637" rx="3.2" ry="3.2"/>
</g>
<!-- StudentSubjects&#45;&gt;Students -->
<g id="edge43" class="edge">
<title>StudentSubjects:w&#45;&gt;Students:e</title>
<path fill="none" stroke="#000000" d="M771.1101,-792.4287C684.4047,-757.362 766.2398,-389.038 699,-309.1117 661.2575,-264.2482 633.6279,-264.1117 575,-264.1117"/>
<polygon fill="#000000" stroke="#000000" points="777.6355,-793.6453 784.8401,-798.6507 781.5678,-794.3785 785.5,-795.1117 785.5,-795.1117 785.5,-795.1117 781.5678,-794.3785 786.1599,-791.5727 777.6355,-793.6453 777.6355,-793.6453"/>
<ellipse fill="none" stroke="#000000" cx="774.4897" cy="-793.0588" rx="3.2" ry="3.2"/>
</g>
<!-- Subjects -->
<g id="node21" class="node">
<title>Subjects</title>
<g id="a_node21"><a xlink:href="../../tables/Subjects.html" xlink:title="Subjects" target="_top">
<polygon fill="#ffffff" stroke="transparent" points="485.5,-710.6117 485.5,-771.6117 574.5,-771.6117 574.5,-710.6117 485.5,-710.6117"/>
<polygon fill="#f5f5f5" stroke="transparent" points="486,-748.1117 486,-771.1117 575,-771.1117 575,-748.1117 486,-748.1117"/>
<polygon fill="none" stroke="#000000" points="486,-748.1117 486,-771.1117 575,-771.1117 575,-748.1117 486,-748.1117"/>
<text text-anchor="start" x="491" y="-756.7117" font-family="Helvetica,sans-Serif" font-weight="bold" font-size="11.00" fill="#000000">Subjects</text>
<text text-anchor="start" x="540.5219" y="-756.2117" font-family="Helvetica,sans-Serif" font-size="11.00" fill="#000000">[table]</text>
<polygon fill="none" stroke="#000000" points="486,-729.1117 486,-748.1117 575,-748.1117 575,-729.1117 486,-729.1117"/>
<text text-anchor="start" x="489" y="-735.2117" font-family="Helvetica,sans-Serif" font-size="11.00" fill="#000000">...</text>
<polygon fill="#ffffff" stroke="transparent" points="486,-710.1117 486,-729.1117 511,-729.1117 511,-710.1117 486,-710.1117"/>
<polygon fill="none" stroke="#000000" points="486,-710.1117 486,-729.1117 511,-729.1117 511,-710.1117 486,-710.1117"/>
<text text-anchor="start" x="489" y="-716.2117" font-family="Helvetica,sans-Serif" font-size="11.00" fill="#000000">&lt; 4</text>
<polygon fill="#ffffff" stroke="transparent" points="511,-710.1117 511,-729.1117 551,-729.1117 551,-710.1117 511,-710.1117"/>
<polygon fill="none" stroke="#000000" points="511,-710.1117 511,-729.1117 551,-729.1117 551,-710.1117 511,-710.1117"/>
<text text-anchor="start" x="515.6105" y="-716.2117" font-family="Helvetica,sans-Serif" font-size="11.00" fill="#000000">0 rows</text>
<polygon fill="#ffffff" stroke="transparent" points="551,-710.1117 551,-729.1117 575,-729.1117 575,-710.1117 551,-710.1117"/>
<polygon fill="none" stroke="#000000" points="551,-710.1117 551,-729.1117 575,-729.1117 575,-710.1117 551,-710.1117"/>
<text text-anchor="start" x="556.4053" y="-716.2117" font-family="Helvetica,sans-Serif" font-size="11.00" fill="#000000">1 &gt;</text>
</a>
</g>
</g>
<!-- StudentSubjects&#45;&gt;Subjects -->
<g id="edge44" class="edge">
<title>StudentSubjects:w&#45;&gt;Subjects:e</title>
<path fill="none" stroke="#000000" d="M771.073,-794.6694C686.6366,-789.364 666.9082,-738.1117 575,-738.1117"/>
<polygon fill="#000000" stroke="#000000" points="777.5038,-794.8665 785.3897,-798.71 781.5019,-794.9891 785.5,-795.1117 785.5,-795.1117 785.5,-795.1117 781.5019,-794.9891 785.6103,-791.5134 777.5038,-794.8665 777.5038,-794.8665"/>
<ellipse fill="none" stroke="#000000" cx="774.3053" cy="-794.7684" rx="3.2" ry="3.2"/>
</g>
<!-- Subjects&#45;&gt;AspNetUsers -->
<g id="edge46" class="edge">
<title>Subjects:w&#45;&gt;AspNetUsers:e</title>
<path fill="none" stroke="#000000" d="M471.5056,-737.7087C348.7932,-734.8001 209.7433,-743.9433 130.2039,-752.1243"/>
<polygon fill="#000000" stroke="#000000" points="478.0031,-737.8893 485.8999,-741.7103 482.0015,-738.0005 486,-738.1117 486,-738.1117 486,-738.1117 482.0015,-738.0005 486.1001,-734.5131 478.0031,-737.8893 478.0031,-737.8893"/>
<ellipse fill="none" stroke="#000000" cx="474.8043" cy="-737.8004" rx="3.2" ry="3.2"/>
</g>
<!-- Subjects&#45;&gt;AspNetUsers -->
<g id="edge49" class="edge">
<title>Subjects:w&#45;&gt;AspNetUsers:e</title>
<path fill="none" stroke="#000000" d="M471.5056,-738.6825C348.7932,-743.7566 209.7433,-755.4368 130.2039,-760.709"/>
<polygon fill="#000000" stroke="#000000" points="478.0062,-738.4266 486.1417,-741.7089 482.0031,-738.2691 486,-738.1117 486,-738.1117 486,-738.1117 482.0031,-738.2691 485.8583,-734.5145 478.0062,-738.4266 478.0062,-738.4266"/>
<ellipse fill="none" stroke="#000000" cx="474.8087" cy="-738.5525" rx="3.2" ry="3.2"/>
</g>
<!-- Subjects&#45;&gt;TechnicalCareers -->
<g id="edge48" class="edge">
<title>Subjects:w&#45;&gt;TechnicalCareers:e</title>
<path fill="none" stroke="#000000" d="M471.3889,-737.8972C420.4412,-736.4357 365.7992,-727.7449 323.0204,-719.1781"/>
<polygon fill="#000000" stroke="#000000" points="478.0009,-737.9942 485.9471,-741.7113 482.0004,-738.0529 486,-738.1117 486,-738.1117 486,-738.1117 482.0004,-738.0529 486.0529,-734.5121 478.0009,-737.9942 478.0009,-737.9942"/>
<ellipse fill="none" stroke="#000000" cx="474.8012" cy="-737.9472" rx="3.2" ry="3.2"/>
</g>
<!-- Subjects&#45;&gt;Professors -->
<g id="edge47" class="edge">
<title>Subjects:w&#45;&gt;Professors:e</title>
<path fill="none" stroke="#000000" d="M471.5568,-737.9636C424.4313,-736.8901 405.0658,-729.4925 361,-700.1117 341.8245,-687.3265 346.0488,-674.4435 328,-660.1117 320.7352,-654.343 312.5275,-649.0837 304.177,-644.3991"/>
<polygon fill="#000000" stroke="#000000" points="478.0004,-738.0296 485.9631,-741.7115 482.0002,-738.0706 486,-738.1117 486,-738.1117 486,-738.1117 482.0002,-738.0706 486.0369,-734.5119 478.0004,-738.0296 478.0004,-738.0296"/>
<ellipse fill="none" stroke="#000000" cx="474.8006" cy="-737.9967" rx="3.2" ry="3.2"/>
</g>
</g>
</svg>
