<?xml version="1.0" encoding="UTF-8" standalone="no"?>
<!DOCTYPE svg PUBLIC "-//W3C//DTD SVG 1.1//EN"
 "http://www.w3.org/Graphics/SVG/1.1/DTD/svg11.dtd">
<!-- Generated by graphviz version 2.40.1 (20161225.0304)
 -->
<!-- Title: oneDegreeRelationshipsDiagram Pages: 1 -->
<svg width="1027pt" height="731pt"
 viewBox="0.00 0.00 1027.00 731.02" xmlns="http://www.w3.org/2000/svg" xmlns:xlink="http://www.w3.org/1999/xlink">
<g id="graph0" class="graph" transform="scale(1 1) rotate(0) translate(4 727.021)">
<title>oneDegreeRelationshipsDiagram</title>
<polygon fill="#ffffff" stroke="transparent" points="-4,4 -4,-727.021 1023,-727.021 1023,4 -4,4"/>
<text text-anchor="middle" x="72.4936" y="-7.3" font-family="Helvetica,sans-Serif" font-size="11.00" fill="#000000">Generated by SchemaSpy</text>
<!-- Competencies -->
<g id="node1" class="node">
<title>Competencies</title>
<g id="a_node1"><a xlink:href="../../tables/Competencies.html" xlink:title="Competencies" target="_top">
<polygon fill="#ffffff" stroke="transparent" points="231,-340.021 231,-467.021 352,-467.021 352,-340.021 231,-340.021"/>
<polygon fill="#f5f5f5" stroke="transparent" points="231.5,-443.521 231.5,-466.521 352.5,-466.521 352.5,-443.521 231.5,-443.521"/>
<polygon fill="none" stroke="#000000" points="231.5,-443.521 231.5,-466.521 352.5,-466.521 352.5,-443.521 231.5,-443.521"/>
<text text-anchor="start" x="236.5" y="-452.121" font-family="Helvetica,sans-Serif" font-weight="bold" font-size="11.00" fill="#000000">Competencies</text>
<text text-anchor="start" x="318.0219" y="-451.621" font-family="Helvetica,sans-Serif" font-size="11.00" fill="#000000">[table]</text>
<polygon fill="none" stroke="#000000" points="231.5,-421.521 231.5,-443.521 352.5,-443.521 352.5,-421.521 231.5,-421.521"/>
<image xlink:href="../../images/primaryKeys.png" width="11px" height="12px" preserveAspectRatio="xMinYMin meet" x="236.5" y="-438.521"/>
<text text-anchor="start" x="251.5" y="-428.621" font-family="Helvetica,sans-Serif" font-size="11.00" fill="#000000">Id</text>
<polygon fill="#ffffff" stroke="transparent" points="231.5,-399.521 231.5,-421.521 352.5,-421.521 352.5,-399.521 231.5,-399.521"/>
<polygon fill="none" stroke="#000000" points="231.5,-399.521 231.5,-421.521 352.5,-421.521 352.5,-399.521 231.5,-399.521"/>
<image xlink:href="../../images/foreignKeys.png" width="11px" height="12px" preserveAspectRatio="xMinYMin meet" x="236.5" y="-416.521"/>
<text text-anchor="start" x="251.5" y="-406.621" font-family="Helvetica,sans-Serif" font-size="11.00" fill="#000000">CreatedByUserId</text>
<polygon fill="#ffffff" stroke="transparent" points="231.5,-377.521 231.5,-399.521 352.5,-399.521 352.5,-377.521 231.5,-377.521"/>
<polygon fill="none" stroke="#000000" points="231.5,-377.521 231.5,-399.521 352.5,-399.521 352.5,-377.521 231.5,-377.521"/>
<image xlink:href="../../images/foreignKeys.png" width="11px" height="12px" preserveAspectRatio="xMinYMin meet" x="236.5" y="-394.521"/>
<text text-anchor="start" x="251.5" y="-384.621" font-family="Helvetica,sans-Serif" font-size="11.00" fill="#000000">UpdatedByUserId</text>
<polygon fill="none" stroke="#000000" points="231.5,-358.521 231.5,-377.521 352.5,-377.521 352.5,-358.521 231.5,-358.521"/>
<text text-anchor="start" x="234.5" y="-364.621" font-family="Helvetica,sans-Serif" font-size="11.00" fill="#000000">...</text>
<polygon fill="#ffffff" stroke="transparent" points="231.5,-339.521 231.5,-358.521 272.5,-358.521 272.5,-339.521 231.5,-339.521"/>
<polygon fill="none" stroke="#000000" points="231.5,-339.521 231.5,-358.521 272.5,-358.521 272.5,-339.521 231.5,-339.521"/>
<text text-anchor="start" x="234.5" y="-345.621" font-family="Helvetica,sans-Serif" font-size="11.00" fill="#000000">&lt; 2</text>
<polygon fill="#ffffff" stroke="transparent" points="272.5,-339.521 272.5,-358.521 320.5,-358.521 320.5,-339.521 272.5,-339.521"/>
<polygon fill="none" stroke="#000000" points="272.5,-339.521 272.5,-358.521 320.5,-358.521 320.5,-339.521 272.5,-339.521"/>
<text text-anchor="start" x="285.1105" y="-345.621" font-family="Helvetica,sans-Serif" font-size="11.00" fill="#000000">0 rows</text>
<polygon fill="#ffffff" stroke="transparent" points="320.5,-339.521 320.5,-358.521 352.5,-358.521 352.5,-339.521 320.5,-339.521"/>
<polygon fill="none" stroke="#000000" points="320.5,-339.521 320.5,-358.521 352.5,-358.521 352.5,-339.521 320.5,-339.521"/>
<text text-anchor="start" x="333.9053" y="-345.621" font-family="Helvetica,sans-Serif" font-size="11.00" fill="#000000">4 &gt;</text>
</a>
</g>
</g>
<!-- AspNetUsers -->
<g id="node2" class="node">
<title>AspNetUsers</title>
<g id="a_node2"><a xlink:href="../../tables/AspNetUsers.html" xlink:title="AspNetUsers" target="_top">
<polygon fill="#ffffff" stroke="transparent" points="8,-170.021 8,-297.021 171,-297.021 171,-170.021 8,-170.021"/>
<polygon fill="#f5f5f5" stroke="transparent" points="8.5,-273.521 8.5,-296.521 171.5,-296.521 171.5,-273.521 8.5,-273.521"/>
<polygon fill="none" stroke="#000000" points="8.5,-273.521 8.5,-296.521 171.5,-296.521 171.5,-273.521 8.5,-273.521"/>
<text text-anchor="start" x="13.5" y="-282.121" font-family="Helvetica,sans-Serif" font-weight="bold" font-size="11.00" fill="#000000">AspNetUsers</text>
<text text-anchor="start" x="136.5437" y="-281.621" font-family="Helvetica,sans-Serif" font-size="11.00" fill="#000000">[table]</text>
<polygon fill="none" stroke="#000000" points="8.5,-251.521 8.5,-273.521 171.5,-273.521 171.5,-251.521 8.5,-251.521"/>
<image xlink:href="../../images/primaryKeys.png" width="11px" height="12px" preserveAspectRatio="xMinYMin meet" x="13.5" y="-268.521"/>
<text text-anchor="start" x="28.5" y="-258.621" font-family="Helvetica,sans-Serif" font-size="11.00" fill="#000000">Id</text>
<polygon fill="#ffffff" stroke="transparent" points="8.5,-229.521 8.5,-251.521 171.5,-251.521 171.5,-229.521 8.5,-229.521"/>
<polygon fill="none" stroke="#000000" points="8.5,-229.521 8.5,-251.521 171.5,-251.521 171.5,-229.521 8.5,-229.521"/>
<text text-anchor="start" x="28.5" y="-236.621" font-family="Helvetica,sans-Serif" font-size="11.00" fill="#000000">NormalizedUserName</text>
<polygon fill="#ffffff" stroke="transparent" points="8.5,-207.521 8.5,-229.521 171.5,-229.521 171.5,-207.521 8.5,-207.521"/>
<polygon fill="none" stroke="#000000" points="8.5,-207.521 8.5,-229.521 171.5,-229.521 171.5,-207.521 8.5,-207.521"/>
<text text-anchor="start" x="28.5" y="-214.621" font-family="Helvetica,sans-Serif" font-size="11.00" fill="#000000">NormalizedEmail</text>
<polygon fill="none" stroke="#000000" points="8.5,-188.521 8.5,-207.521 171.5,-207.521 171.5,-188.521 8.5,-188.521"/>
<text text-anchor="start" x="11.5" y="-194.621" font-family="Helvetica,sans-Serif" font-size="11.00" fill="#000000">...</text>
<polygon fill="#ffffff" stroke="transparent" points="8.5,-169.521 8.5,-188.521 63.5,-188.521 63.5,-169.521 8.5,-169.521"/>
<polygon fill="none" stroke="#000000" points="8.5,-169.521 8.5,-188.521 63.5,-188.521 63.5,-169.521 8.5,-169.521"/>
<text text-anchor="start" x="11.5" y="-175.621" font-family="Helvetica,sans-Serif" font-size="11.00" fill="#000000"> &#160;</text>
<polygon fill="#ffffff" stroke="transparent" points="63.5,-169.521 63.5,-188.521 122.5,-188.521 122.5,-169.521 63.5,-169.521"/>
<polygon fill="none" stroke="#000000" points="63.5,-169.521 63.5,-188.521 122.5,-188.521 122.5,-169.521 63.5,-169.521"/>
<text text-anchor="start" x="87.1105" y="-175.621" font-family="Helvetica,sans-Serif" font-size="11.00" fill="#000000">0 rows</text>
<polygon fill="#ffffff" stroke="transparent" points="122.5,-169.521 122.5,-188.521 171.5,-188.521 171.5,-169.521 122.5,-169.521"/>
<polygon fill="none" stroke="#000000" points="122.5,-169.521 122.5,-188.521 171.5,-188.521 171.5,-169.521 122.5,-169.521"/>
<text text-anchor="start" x="146.7904" y="-175.621" font-family="Helvetica,sans-Serif" font-size="11.00" fill="#000000">29 &gt;</text>
</a>
</g>
</g>
<!-- Competencies&#45;&gt;AspNetUsers -->
<g id="edge1" class="edge">
<title>Competencies:w&#45;&gt;AspNetUsers:e</title>
<path fill="none" stroke="#000000" d="M217.2337,-407.8258C172.6673,-387.7669 236.7939,-262.521 171.5,-262.521"/>
<polygon fill="#000000" stroke="#000000" points="223.639,-409.0359 230.8317,-414.0584 227.5695,-409.7784 231.5,-410.521 231.5,-410.521 231.5,-410.521 227.5695,-409.7784 232.1683,-406.9835 223.639,-409.0359 223.639,-409.0359"/>
<ellipse fill="none" stroke="#000000" cx="220.4947" cy="-408.4418" rx="3.2" ry="3.2"/>
</g>
<!-- Competencies&#45;&gt;AspNetUsers -->
<g id="edge2" class="edge">
<title>Competencies:w&#45;&gt;AspNetUsers:e</title>
<path fill="none" stroke="#000000" d="M217.1719,-385.4063C180.3762,-366.0034 227.7102,-262.521 171.5,-262.521"/>
<polygon fill="#000000" stroke="#000000" points="223.6826,-386.8216 230.7353,-392.0388 227.5913,-387.6713 231.5,-388.521 231.5,-388.521 231.5,-388.521 227.5913,-387.6713 232.2647,-385.0031 223.6826,-386.8216 223.6826,-386.8216"/>
<ellipse fill="none" stroke="#000000" cx="220.5556" cy="-386.1418" rx="3.2" ry="3.2"/>
</g>
<!-- EvaluationPeriods -->
<g id="node3" class="node">
<title>EvaluationPeriods</title>
<g id="a_node3"><a xlink:href="../../tables/EvaluationPeriods.html" xlink:title="EvaluationPeriods" target="_top">
<polygon fill="#ffffff" stroke="transparent" points="220,-192.021 220,-319.021 363,-319.021 363,-192.021 220,-192.021"/>
<polygon fill="#f5f5f5" stroke="transparent" points="220.5,-295.521 220.5,-318.521 363.5,-318.521 363.5,-295.521 220.5,-295.521"/>
<polygon fill="none" stroke="#000000" points="220.5,-295.521 220.5,-318.521 363.5,-318.521 363.5,-295.521 220.5,-295.521"/>
<text text-anchor="start" x="225.5" y="-304.121" font-family="Helvetica,sans-Serif" font-weight="bold" font-size="11.00" fill="#000000">EvaluationPeriods</text>
<text text-anchor="start" x="329.0219" y="-303.621" font-family="Helvetica,sans-Serif" font-size="11.00" fill="#000000">[table]</text>
<polygon fill="none" stroke="#000000" points="220.5,-273.521 220.5,-295.521 363.5,-295.521 363.5,-273.521 220.5,-273.521"/>
<image xlink:href="../../images/primaryKeys.png" width="11px" height="12px" preserveAspectRatio="xMinYMin meet" x="225.5" y="-290.521"/>
<text text-anchor="start" x="249.5" y="-280.621" font-family="Helvetica,sans-Serif" font-size="11.00" fill="#000000">Id</text>
<polygon fill="#ffffff" stroke="transparent" points="220.5,-251.521 220.5,-273.521 363.5,-273.521 363.5,-251.521 220.5,-251.521"/>
<polygon fill="none" stroke="#000000" points="220.5,-251.521 220.5,-273.521 363.5,-273.521 363.5,-251.521 220.5,-251.521"/>
<image xlink:href="../../images/foreignKeys.png" width="11px" height="12px" preserveAspectRatio="xMinYMin meet" x="225.5" y="-268.521"/>
<text text-anchor="start" x="249.5" y="-258.621" font-family="Helvetica,sans-Serif" font-size="11.00" fill="#000000">CreatedByUserId</text>
<polygon fill="#ffffff" stroke="transparent" points="220.5,-229.521 220.5,-251.521 363.5,-251.521 363.5,-229.521 220.5,-229.521"/>
<polygon fill="none" stroke="#000000" points="220.5,-229.521 220.5,-251.521 363.5,-251.521 363.5,-229.521 220.5,-229.521"/>
<image xlink:href="../../images/foreignKeys.png" width="11px" height="12px" preserveAspectRatio="xMinYMin meet" x="225.5" y="-246.521"/>
<text text-anchor="start" x="249.5" y="-236.621" font-family="Helvetica,sans-Serif" font-size="11.00" fill="#000000">UpdatedByUserId</text>
<polygon fill="none" stroke="#000000" points="220.5,-210.521 220.5,-229.521 363.5,-229.521 363.5,-210.521 220.5,-210.521"/>
<text text-anchor="start" x="223.5" y="-216.621" font-family="Helvetica,sans-Serif" font-size="11.00" fill="#000000">...</text>
<polygon fill="#ffffff" stroke="transparent" points="220.5,-191.521 220.5,-210.521 272.5,-210.521 272.5,-191.521 220.5,-191.521"/>
<polygon fill="none" stroke="#000000" points="220.5,-191.521 220.5,-210.521 272.5,-210.521 272.5,-191.521 220.5,-191.521"/>
<text text-anchor="start" x="223.5" y="-197.621" font-family="Helvetica,sans-Serif" font-size="11.00" fill="#000000">&lt; 2</text>
<polygon fill="#ffffff" stroke="transparent" points="272.5,-191.521 272.5,-210.521 326.5,-210.521 326.5,-191.521 272.5,-191.521"/>
<polygon fill="none" stroke="#000000" points="272.5,-191.521 272.5,-210.521 326.5,-210.521 326.5,-191.521 272.5,-191.521"/>
<text text-anchor="start" x="291.1105" y="-197.621" font-family="Helvetica,sans-Serif" font-size="11.00" fill="#000000">0 rows</text>
<polygon fill="#ffffff" stroke="transparent" points="326.5,-191.521 326.5,-210.521 363.5,-210.521 363.5,-191.521 326.5,-191.521"/>
<polygon fill="none" stroke="#000000" points="326.5,-191.521 326.5,-210.521 363.5,-210.521 363.5,-191.521 326.5,-191.521"/>
<text text-anchor="start" x="344.9053" y="-197.621" font-family="Helvetica,sans-Serif" font-size="11.00" fill="#000000">3 &gt;</text>
</a>
</g>
</g>
<!-- EvaluationPeriods&#45;&gt;AspNetUsers -->
<g id="edge3" class="edge">
<title>EvaluationPeriods:w&#45;&gt;AspNetUsers:e</title>
<path fill="none" stroke="#000000" d="M205.9909,-262.521C194.6774,-262.521 187.4931,-262.521 171.5,-262.521"/>
<polygon fill="#000000" stroke="#000000" points="212.5,-262.521 220.5,-266.121 216.5,-262.521 220.5,-262.521 220.5,-262.521 220.5,-262.521 216.5,-262.521 220.5,-258.921 212.5,-262.521 212.5,-262.521"/>
<ellipse fill="none" stroke="#000000" cx="209.3" cy="-262.521" rx="3.2" ry="3.2"/>
</g>
<!-- EvaluationPeriods&#45;&gt;AspNetUsers -->
<g id="edge4" class="edge">
<title>EvaluationPeriods:w&#45;&gt;AspNetUsers:e</title>
<path fill="none" stroke="#000000" d="M206.1297,-243.9585C194.5865,-250.146 189.4041,-262.521 171.5,-262.521"/>
<polygon fill="#000000" stroke="#000000" points="212.7195,-242.3822 221.3375,-244.0222 216.6098,-241.4516 220.5,-240.521 220.5,-240.521 220.5,-240.521 216.6098,-241.4516 219.6625,-237.0197 212.7195,-242.3822 212.7195,-242.3822"/>
<ellipse fill="none" stroke="#000000" cx="209.6073" cy="-243.1267" rx="3.2" ry="3.2"/>
</g>
<!-- ProfessorCompetencyAssignments -->
<g id="node4" class="node">
<title>ProfessorCompetencyAssignments</title>
<g id="a_node4"><a xlink:href="../../tables/ProfessorCompetencyAssignments.html" xlink:title="ProfessorCompetencyAssignments" target="_top">
<polygon fill="#ffffff" stroke="transparent" points="412,-142.521 412,-430.521 734,-430.521 734,-142.521 412,-142.521"/>
<polygon fill="#f5f5f5" stroke="transparent" points="414,-405.521 414,-428.521 732,-428.521 732,-405.521 414,-405.521"/>
<polygon fill="none" stroke="#000000" points="414,-405.521 414,-428.521 732,-428.521 732,-405.521 414,-405.521"/>
<text text-anchor="start" x="419" y="-414.121" font-family="Helvetica,sans-Serif" font-weight="bold" font-size="11.00" fill="#000000">ProfessorCompetencyAssignments</text>
<text text-anchor="start" x="697.0437" y="-413.621" font-family="Helvetica,sans-Serif" font-size="11.00" fill="#000000">[table]</text>
<polygon fill="none" stroke="#000000" points="414,-383.521 414,-405.521 638,-405.521 638,-383.521 414,-383.521"/>
<image xlink:href="../../images/primaryKeys.png" width="11px" height="12px" preserveAspectRatio="xMinYMin meet" x="419" y="-400.521"/>
<text text-anchor="start" x="434" y="-390.621" font-family="Helvetica,sans-Serif" font-size="11.00" fill="#000000">Id</text>
<polygon fill="none" stroke="#000000" points="638,-383.521 638,-405.521 732,-405.521 732,-383.521 638,-383.521"/>
<text text-anchor="start" x="640.9758" y="-391.221" font-family="Helvetica,sans-Serif" font-size="11.00" fill="#000000">uuid[2147483647]</text>
<polygon fill="#ffffff" stroke="transparent" points="414,-361.521 414,-383.521 638,-383.521 638,-361.521 414,-361.521"/>
<polygon fill="none" stroke="#000000" points="414,-361.521 414,-383.521 638,-383.521 638,-361.521 414,-361.521"/>
<image xlink:href="../../images/foreignKeys.png" width="11px" height="12px" preserveAspectRatio="xMinYMin meet" x="419" y="-378.521"/>
<text text-anchor="start" x="434" y="-368.621" font-family="Helvetica,sans-Serif" font-size="11.00" fill="#000000">ProfessorId</text>
<polygon fill="none" stroke="#000000" points="638,-361.521 638,-383.521 732,-383.521 732,-361.521 638,-361.521"/>
<text text-anchor="start" x="641" y="-369.221" font-family="Helvetica,sans-Serif" font-size="11.00" fill="#000000">text[2147483647]</text>
<polygon fill="#ffffff" stroke="transparent" points="414,-339.521 414,-361.521 638,-361.521 638,-339.521 414,-339.521"/>
<polygon fill="none" stroke="#000000" points="414,-339.521 414,-361.521 638,-361.521 638,-339.521 414,-339.521"/>
<image xlink:href="../../images/foreignKeys.png" width="11px" height="12px" preserveAspectRatio="xMinYMin meet" x="419" y="-356.521"/>
<text text-anchor="start" x="434" y="-346.621" font-family="Helvetica,sans-Serif" font-size="11.00" fill="#000000">TechnicalCareerId</text>
<polygon fill="none" stroke="#000000" points="638,-339.521 638,-361.521 732,-361.521 732,-339.521 638,-339.521"/>
<text text-anchor="start" x="640.9758" y="-347.221" font-family="Helvetica,sans-Serif" font-size="11.00" fill="#000000">uuid[2147483647]</text>
<polygon fill="none" stroke="#000000" points="414,-317.521 414,-339.521 638,-339.521 638,-317.521 414,-317.521"/>
<text text-anchor="start" x="434" y="-324.621" font-family="Helvetica,sans-Serif" font-size="11.00" fill="#000000">Year</text>
<polygon fill="none" stroke="#000000" points="638,-317.521 638,-339.521 732,-339.521 732,-317.521 638,-317.521"/>
<text text-anchor="start" x="641" y="-325.221" font-family="Helvetica,sans-Serif" font-size="11.00" fill="#000000">int4[10]</text>
<polygon fill="#ffffff" stroke="transparent" points="414,-295.521 414,-317.521 638,-317.521 638,-295.521 414,-295.521"/>
<polygon fill="none" stroke="#000000" points="414,-295.521 414,-317.521 638,-317.521 638,-295.521 414,-295.521"/>
<image xlink:href="../../images/foreignKeys.png" width="11px" height="12px" preserveAspectRatio="xMinYMin meet" x="419" y="-312.521"/>
<text text-anchor="start" x="434" y="-302.621" font-family="Helvetica,sans-Serif" font-size="11.00" fill="#000000">CompetencyId</text>
<polygon fill="none" stroke="#000000" points="638,-295.521 638,-317.521 732,-317.521 732,-295.521 638,-295.521"/>
<text text-anchor="start" x="640.9758" y="-303.221" font-family="Helvetica,sans-Serif" font-size="11.00" fill="#000000">uuid[2147483647]</text>
<polygon fill="#ffffff" stroke="transparent" points="414,-273.521 414,-295.521 638,-295.521 638,-273.521 414,-273.521"/>
<polygon fill="none" stroke="#000000" points="414,-273.521 414,-295.521 638,-295.521 638,-273.521 414,-273.521"/>
<image xlink:href="../../images/foreignKeys.png" width="11px" height="12px" preserveAspectRatio="xMinYMin meet" x="419" y="-290.521"/>
<text text-anchor="start" x="434" y="-280.621" font-family="Helvetica,sans-Serif" font-size="11.00" fill="#000000">EvaluationPeriodId</text>
<polygon fill="none" stroke="#000000" points="638,-273.521 638,-295.521 732,-295.521 732,-273.521 638,-273.521"/>
<text text-anchor="start" x="640.9758" y="-281.221" font-family="Helvetica,sans-Serif" font-size="11.00" fill="#000000">uuid[2147483647]</text>
<polygon fill="none" stroke="#000000" points="414,-251.521 414,-273.521 638,-273.521 638,-251.521 414,-251.521"/>
<text text-anchor="start" x="434" y="-258.621" font-family="Helvetica,sans-Serif" font-size="11.00" fill="#000000">IsActive</text>
<polygon fill="none" stroke="#000000" points="638,-251.521 638,-273.521 732,-273.521 732,-251.521 638,-251.521"/>
<text text-anchor="start" x="641" y="-259.221" font-family="Helvetica,sans-Serif" font-size="11.00" fill="#000000">bool[1]</text>
<polygon fill="none" stroke="#000000" points="414,-229.521 414,-251.521 638,-251.521 638,-229.521 414,-229.521"/>
<text text-anchor="start" x="434" y="-236.621" font-family="Helvetica,sans-Serif" font-size="11.00" fill="#000000">CreatedAt</text>
<polygon fill="none" stroke="#000000" points="638,-229.521 638,-251.521 732,-251.521 732,-229.521 638,-229.521"/>
<text text-anchor="start" x="641" y="-237.221" font-family="Helvetica,sans-Serif" font-size="11.00" fill="#000000">timestamptz[35,6]</text>
<polygon fill="none" stroke="#000000" points="414,-207.521 414,-229.521 638,-229.521 638,-207.521 414,-207.521"/>
<text text-anchor="start" x="434" y="-214.621" font-family="Helvetica,sans-Serif" font-size="11.00" fill="#000000">UpdatedAt</text>
<polygon fill="none" stroke="#000000" points="638,-207.521 638,-229.521 732,-229.521 732,-207.521 638,-207.521"/>
<text text-anchor="start" x="641" y="-215.221" font-family="Helvetica,sans-Serif" font-size="11.00" fill="#000000">timestamptz[35,6]</text>
<polygon fill="#ffffff" stroke="transparent" points="414,-185.521 414,-207.521 638,-207.521 638,-185.521 414,-185.521"/>
<polygon fill="none" stroke="#000000" points="414,-185.521 414,-207.521 638,-207.521 638,-185.521 414,-185.521"/>
<image xlink:href="../../images/foreignKeys.png" width="11px" height="12px" preserveAspectRatio="xMinYMin meet" x="419" y="-202.521"/>
<text text-anchor="start" x="434" y="-192.621" font-family="Helvetica,sans-Serif" font-size="11.00" fill="#000000">CreatedByUserId</text>
<polygon fill="none" stroke="#000000" points="638,-185.521 638,-207.521 732,-207.521 732,-185.521 638,-185.521"/>
<text text-anchor="start" x="641" y="-193.221" font-family="Helvetica,sans-Serif" font-size="11.00" fill="#000000">text[2147483647]</text>
<polygon fill="#ffffff" stroke="transparent" points="414,-163.521 414,-185.521 638,-185.521 638,-163.521 414,-163.521"/>
<polygon fill="none" stroke="#000000" points="414,-163.521 414,-185.521 638,-185.521 638,-163.521 414,-163.521"/>
<image xlink:href="../../images/foreignKeys.png" width="11px" height="12px" preserveAspectRatio="xMinYMin meet" x="419" y="-180.521"/>
<text text-anchor="start" x="434" y="-170.621" font-family="Helvetica,sans-Serif" font-size="11.00" fill="#000000">UpdatedByUserId</text>
<polygon fill="none" stroke="#000000" points="638,-163.521 638,-185.521 732,-185.521 732,-163.521 638,-163.521"/>
<text text-anchor="start" x="641" y="-171.221" font-family="Helvetica,sans-Serif" font-size="11.00" fill="#000000">text[2147483647]</text>
<polygon fill="#ffffff" stroke="transparent" points="414,-144.521 414,-163.521 517,-163.521 517,-144.521 414,-144.521"/>
<polygon fill="none" stroke="#000000" points="414,-144.521 414,-163.521 517,-163.521 517,-144.521 414,-144.521"/>
<text text-anchor="start" x="417" y="-150.621" font-family="Helvetica,sans-Serif" font-size="11.00" fill="#000000">&lt; 6</text>
<polygon fill="#ffffff" stroke="transparent" points="517,-144.521 517,-163.521 638,-163.521 638,-144.521 517,-144.521"/>
<polygon fill="none" stroke="#000000" points="517,-144.521 517,-163.521 638,-163.521 638,-144.521 517,-144.521"/>
<text text-anchor="start" x="602.6105" y="-150.621" font-family="Helvetica,sans-Serif" font-size="11.00" fill="#000000">0 rows</text>
<polygon fill="#ffffff" stroke="transparent" points="638,-144.521 638,-163.521 732,-163.521 732,-144.521 638,-144.521"/>
<polygon fill="none" stroke="#000000" points="638,-144.521 638,-163.521 732,-163.521 732,-144.521 638,-144.521"/>
<text text-anchor="start" x="713.4053" y="-150.621" font-family="Helvetica,sans-Serif" font-size="11.00" fill="#000000">1 &gt;</text>
<polygon fill="none" stroke="#000000" stroke-width="2" points="413,-143.521 413,-429.521 733,-429.521 733,-143.521 413,-143.521"/>
</a>
</g>
</g>
<!-- ProfessorCompetencyAssignments&#45;&gt;Competencies -->
<g id="edge5" class="edge">
<title>ProfessorCompetencyAssignments:w&#45;&gt;Competencies:e</title>
<path fill="none" stroke="#000000" d="M399.5749,-309.6356C362.4196,-329.0385 408.9726,-432.521 352.5,-432.521"/>
<polygon fill="#000000" stroke="#000000" points="406.1802,-308.2094 414.7598,-310.0399 410.0901,-307.3652 414,-306.521 414,-306.521 414,-306.521 410.0901,-307.3652 413.2402,-303.0021 406.1802,-308.2094 406.1802,-308.2094"/>
<ellipse fill="none" stroke="#000000" cx="403.0523" cy="-308.8848" rx="3.2" ry="3.2"/>
</g>
<!-- ProfessorCompetencyAssignments&#45;&gt;AspNetUsers -->
<g id="edge6" class="edge">
<title>ProfessorCompetencyAssignments:w&#45;&gt;AspNetUsers:e</title>
<path fill="none" stroke="#000000" d="M399.6787,-193.9684C390.5832,-190.3482 385.0317,-183.8981 371,-181.521 301.3261,-169.7173 272.1127,-144.3693 212,-181.521 177.762,-202.6812 211.7492,-262.521 171.5,-262.521"/>
<polygon fill="#000000" stroke="#000000" points="406.1241,-195.1172 413.3683,-200.0651 410.0621,-195.8191 414,-196.521 414,-196.521 414,-196.521 410.0621,-195.8191 414.6317,-192.9768 406.1241,-195.1172 406.1241,-195.1172"/>
<ellipse fill="none" stroke="#000000" cx="402.9738" cy="-194.5556" rx="3.2" ry="3.2"/>
</g>
<!-- ProfessorCompetencyAssignments&#45;&gt;AspNetUsers -->
<g id="edge10" class="edge">
<title>ProfessorCompetencyAssignments:w&#45;&gt;AspNetUsers:e</title>
<path fill="none" stroke="#000000" d="M399.6333,-171.7994C390.5557,-167.9394 385.1108,-161.0612 371,-158.521 301.4513,-146.001 270.3349,-118.6359 212,-158.521 171.0528,-186.5177 221.1034,-262.521 171.5,-262.521"/>
<polygon fill="#000000" stroke="#000000" points="406.1398,-173.0319 413.3299,-178.0581 410.0699,-173.7765 414,-174.521 414,-174.521 414,-174.521 410.0699,-173.7765 414.6701,-170.9839 406.1398,-173.0319 406.1398,-173.0319"/>
<ellipse fill="none" stroke="#000000" cx="402.9957" cy="-172.4363" rx="3.2" ry="3.2"/>
</g>
<!-- ProfessorCompetencyAssignments&#45;&gt;EvaluationPeriods -->
<g id="edge7" class="edge">
<title>ProfessorCompetencyAssignments:w&#45;&gt;EvaluationPeriods:e</title>
<path fill="none" stroke="#000000" d="M399.4203,-284.521C387.5435,-284.521 380.158,-284.521 363.5,-284.521"/>
<polygon fill="#000000" stroke="#000000" points="406,-284.521 414,-288.121 410,-284.521 414,-284.521 414,-284.521 414,-284.521 410,-284.521 414,-280.921 406,-284.521 406,-284.521"/>
<ellipse fill="none" stroke="#000000" cx="402.8" cy="-284.521" rx="3.2" ry="3.2"/>
</g>
<!-- Professors -->
<g id="node5" class="node">
<title>Professors</title>
<g id="a_node5"><a xlink:href="../../tables/Professors.html" xlink:title="Professors" target="_top">
<polygon fill="#ffffff" stroke="transparent" points="241,-636.021 241,-719.021 342,-719.021 342,-636.021 241,-636.021"/>
<polygon fill="#f5f5f5" stroke="transparent" points="241.5,-695.521 241.5,-718.521 342.5,-718.521 342.5,-695.521 241.5,-695.521"/>
<polygon fill="none" stroke="#000000" points="241.5,-695.521 241.5,-718.521 342.5,-718.521 342.5,-695.521 241.5,-695.521"/>
<text text-anchor="start" x="246.5" y="-704.121" font-family="Helvetica,sans-Serif" font-weight="bold" font-size="11.00" fill="#000000">Professors</text>
<text text-anchor="start" x="308.0219" y="-703.621" font-family="Helvetica,sans-Serif" font-size="11.00" fill="#000000">[table]</text>
<polygon fill="none" stroke="#000000" points="241.5,-673.521 241.5,-695.521 342.5,-695.521 342.5,-673.521 241.5,-673.521"/>
<image xlink:href="../../images/primaryKeys.png" width="11px" height="12px" preserveAspectRatio="xMinYMin meet" x="246.5" y="-690.521"/>
<text text-anchor="start" x="270.5" y="-680.621" font-family="Helvetica,sans-Serif" font-size="11.00" fill="#000000">UserId</text>
<polygon fill="none" stroke="#000000" points="241.5,-654.521 241.5,-673.521 342.5,-673.521 342.5,-654.521 241.5,-654.521"/>
<text text-anchor="start" x="244.5" y="-660.621" font-family="Helvetica,sans-Serif" font-size="11.00" fill="#000000">...</text>
<polygon fill="#ffffff" stroke="transparent" points="241.5,-635.521 241.5,-654.521 272.5,-654.521 272.5,-635.521 241.5,-635.521"/>
<polygon fill="none" stroke="#000000" points="241.5,-635.521 241.5,-654.521 272.5,-654.521 272.5,-635.521 241.5,-635.521"/>
<text text-anchor="start" x="244.5" y="-641.621" font-family="Helvetica,sans-Serif" font-size="11.00" fill="#000000">&lt; 1</text>
<polygon fill="#ffffff" stroke="transparent" points="272.5,-635.521 272.5,-654.521 315.5,-654.521 315.5,-635.521 272.5,-635.521"/>
<polygon fill="none" stroke="#000000" points="272.5,-635.521 272.5,-654.521 315.5,-654.521 315.5,-635.521 272.5,-635.521"/>
<text text-anchor="start" x="280.1105" y="-641.621" font-family="Helvetica,sans-Serif" font-size="11.00" fill="#000000">0 rows</text>
<polygon fill="#ffffff" stroke="transparent" points="315.5,-635.521 315.5,-654.521 342.5,-654.521 342.5,-635.521 315.5,-635.521"/>
<polygon fill="none" stroke="#000000" points="315.5,-635.521 315.5,-654.521 342.5,-654.521 342.5,-635.521 315.5,-635.521"/>
<text text-anchor="start" x="323.9053" y="-641.621" font-family="Helvetica,sans-Serif" font-size="11.00" fill="#000000">2 &gt;</text>
</a>
</g>
</g>
<!-- ProfessorCompetencyAssignments&#45;&gt;Professors -->
<g id="edge8" class="edge">
<title>ProfessorCompetencyAssignments:w&#45;&gt;Professors:e</title>
<path fill="none" stroke="#000000" d="M400.3911,-377.4217C352.5914,-417.1148 408.3514,-684.521 342.5,-684.521"/>
<polygon fill="#000000" stroke="#000000" points="406.4732,-375.2315 415.2198,-375.908 410.2366,-373.8763 414,-372.521 414,-372.521 414,-372.521 410.2366,-373.8763 412.7802,-369.1339 406.4732,-375.2315 406.4732,-375.2315"/>
<ellipse fill="none" stroke="#000000" cx="403.4624" cy="-376.3158" rx="3.2" ry="3.2"/>
</g>
<!-- TechnicalCareers -->
<g id="node6" class="node">
<title>TechnicalCareers</title>
<g id="a_node6"><a xlink:href="../../tables/TechnicalCareers.html" xlink:title="TechnicalCareers" target="_top">
<polygon fill="#ffffff" stroke="transparent" points="222,-488.021 222,-615.021 361,-615.021 361,-488.021 222,-488.021"/>
<polygon fill="#f5f5f5" stroke="transparent" points="222.5,-591.521 222.5,-614.521 361.5,-614.521 361.5,-591.521 222.5,-591.521"/>
<polygon fill="none" stroke="#000000" points="222.5,-591.521 222.5,-614.521 361.5,-614.521 361.5,-591.521 222.5,-591.521"/>
<text text-anchor="start" x="227.5" y="-600.121" font-family="Helvetica,sans-Serif" font-weight="bold" font-size="11.00" fill="#000000">TechnicalCareers</text>
<text text-anchor="start" x="327.0219" y="-599.621" font-family="Helvetica,sans-Serif" font-size="11.00" fill="#000000">[table]</text>
<polygon fill="none" stroke="#000000" points="222.5,-569.521 222.5,-591.521 361.5,-591.521 361.5,-569.521 222.5,-569.521"/>
<image xlink:href="../../images/primaryKeys.png" width="11px" height="12px" preserveAspectRatio="xMinYMin meet" x="227.5" y="-586.521"/>
<text text-anchor="start" x="251.5" y="-576.621" font-family="Helvetica,sans-Serif" font-size="11.00" fill="#000000">Id</text>
<polygon fill="#ffffff" stroke="transparent" points="222.5,-547.521 222.5,-569.521 361.5,-569.521 361.5,-547.521 222.5,-547.521"/>
<polygon fill="none" stroke="#000000" points="222.5,-547.521 222.5,-569.521 361.5,-569.521 361.5,-547.521 222.5,-547.521"/>
<image xlink:href="../../images/foreignKeys.png" width="11px" height="12px" preserveAspectRatio="xMinYMin meet" x="227.5" y="-564.521"/>
<text text-anchor="start" x="251.5" y="-554.621" font-family="Helvetica,sans-Serif" font-size="11.00" fill="#000000">CreatedByUserId</text>
<polygon fill="#ffffff" stroke="transparent" points="222.5,-525.521 222.5,-547.521 361.5,-547.521 361.5,-525.521 222.5,-525.521"/>
<polygon fill="none" stroke="#000000" points="222.5,-525.521 222.5,-547.521 361.5,-547.521 361.5,-525.521 222.5,-525.521"/>
<image xlink:href="../../images/foreignKeys.png" width="11px" height="12px" preserveAspectRatio="xMinYMin meet" x="227.5" y="-542.521"/>
<text text-anchor="start" x="251.5" y="-532.621" font-family="Helvetica,sans-Serif" font-size="11.00" fill="#000000">UpdatedByUserId</text>
<polygon fill="none" stroke="#000000" points="222.5,-506.521 222.5,-525.521 361.5,-525.521 361.5,-506.521 222.5,-506.521"/>
<text text-anchor="start" x="225.5" y="-512.621" font-family="Helvetica,sans-Serif" font-size="11.00" fill="#000000">...</text>
<polygon fill="#ffffff" stroke="transparent" points="222.5,-487.521 222.5,-506.521 272.5,-506.521 272.5,-487.521 222.5,-487.521"/>
<polygon fill="none" stroke="#000000" points="222.5,-487.521 222.5,-506.521 272.5,-506.521 272.5,-487.521 222.5,-487.521"/>
<text text-anchor="start" x="225.5" y="-493.621" font-family="Helvetica,sans-Serif" font-size="11.00" fill="#000000">&lt; 2</text>
<polygon fill="#ffffff" stroke="transparent" points="272.5,-487.521 272.5,-506.521 325.5,-506.521 325.5,-487.521 272.5,-487.521"/>
<polygon fill="none" stroke="#000000" points="272.5,-487.521 272.5,-506.521 325.5,-506.521 325.5,-487.521 272.5,-487.521"/>
<text text-anchor="start" x="290.1105" y="-493.621" font-family="Helvetica,sans-Serif" font-size="11.00" fill="#000000">0 rows</text>
<polygon fill="#ffffff" stroke="transparent" points="325.5,-487.521 325.5,-506.521 361.5,-506.521 361.5,-487.521 325.5,-487.521"/>
<polygon fill="none" stroke="#000000" points="325.5,-487.521 325.5,-506.521 361.5,-506.521 361.5,-487.521 325.5,-487.521"/>
<text text-anchor="start" x="342.9053" y="-493.621" font-family="Helvetica,sans-Serif" font-size="11.00" fill="#000000">6 &gt;</text>
</a>
</g>
</g>
<!-- ProfessorCompetencyAssignments&#45;&gt;TechnicalCareers -->
<g id="edge9" class="edge">
<title>ProfessorCompetencyAssignments:w&#45;&gt;TechnicalCareers:e</title>
<path fill="none" stroke="#000000" d="M399.5216,-352.3723C324.9998,-374.1392 460.8222,-580.521 361.5,-580.521"/>
<polygon fill="#000000" stroke="#000000" points="406.0646,-351.5357 414.4566,-354.0919 410.0323,-351.0283 414,-350.521 414,-350.521 414,-350.521 410.0323,-351.0283 413.5434,-346.95 406.0646,-351.5357 406.0646,-351.5357"/>
<ellipse fill="none" stroke="#000000" cx="402.8905" cy="-351.9416" rx="3.2" ry="3.2"/>
</g>
<!-- Professors&#45;&gt;AspNetUsers -->
<g id="edge11" class="edge">
<title>Professors:w&#45;&gt;AspNetUsers:e</title>
<path fill="none" stroke="#000000" d="M230.8595,-682.4494C155.9323,-650.6137 262.6603,-262.521 171.5,-262.521"/>
<polygon fill="#000000" stroke="#000000" points="241.4792,-680.4418 239.9503,-688.2944 238.3798,-687.9886 239.9086,-680.136 241.4792,-680.4418"/>
<polyline fill="none" stroke="#000000" points="241.5,-684.521 237.5737,-683.7566 "/>
<ellipse fill="none" stroke="#000000" cx="234.4327" cy="-683.145" rx="3.2" ry="3.2"/>
</g>
<!-- TechnicalCareers&#45;&gt;AspNetUsers -->
<g id="edge15" class="edge">
<title>TechnicalCareers:w&#45;&gt;AspNetUsers:e</title>
<path fill="none" stroke="#000000" d="M208.922,-552.8723C168.2829,-511.9503 232.7716,-262.521 171.5,-262.521"/>
<polygon fill="#000000" stroke="#000000" points="215.1137,-555.4481 221.1172,-561.8448 218.8068,-556.9845 222.5,-558.521 222.5,-558.521 222.5,-558.521 218.8068,-556.9845 223.8828,-555.1971 215.1137,-555.4481 215.1137,-555.4481"/>
<ellipse fill="none" stroke="#000000" cx="212.1592" cy="-554.219" rx="3.2" ry="3.2"/>
</g>
<!-- TechnicalCareers&#45;&gt;AspNetUsers -->
<g id="edge16" class="edge">
<title>TechnicalCareers:w&#45;&gt;AspNetUsers:e</title>
<path fill="none" stroke="#000000" d="M209.1105,-530.5433C172.3331,-490.4735 227.9912,-262.521 171.5,-262.521"/>
<polygon fill="#000000" stroke="#000000" points="215.1949,-533.2596 221.0324,-539.8082 218.8475,-534.8903 222.5,-536.521 222.5,-536.521 222.5,-536.521 218.8475,-534.8903 223.9676,-533.2337 215.1949,-533.2596 215.1949,-533.2596"/>
<ellipse fill="none" stroke="#000000" cx="212.2729" cy="-531.9551" rx="3.2" ry="3.2"/>
</g>
<!-- StudentCompetencyEvaluations -->
<g id="node7" class="node">
<title>StudentCompetencyEvaluations</title>
<g id="a_node7"><a xlink:href="../../tables/StudentCompetencyEvaluations.html" xlink:title="StudentCompetencyEvaluations" target="_top">
<polygon fill="#ffffff" stroke="transparent" points="783,-43.021 783,-214.021 1011,-214.021 1011,-43.021 783,-43.021"/>
<polygon fill="#f5f5f5" stroke="transparent" points="783,-190.521 783,-213.521 1011,-213.521 1011,-190.521 783,-190.521"/>
<polygon fill="none" stroke="#000000" points="783,-190.521 783,-213.521 1011,-213.521 1011,-190.521 783,-190.521"/>
<text text-anchor="start" x="788" y="-199.121" font-family="Helvetica,sans-Serif" font-weight="bold" font-size="11.00" fill="#000000">StudentCompetencyEvaluations</text>
<text text-anchor="start" x="976.0437" y="-198.621" font-family="Helvetica,sans-Serif" font-size="11.00" fill="#000000">[table]</text>
<polygon fill="none" stroke="#000000" points="783,-168.521 783,-190.521 1011,-190.521 1011,-168.521 783,-168.521"/>
<image xlink:href="../../images/primaryKeys.png" width="11px" height="12px" preserveAspectRatio="xMinYMin meet" x="788" y="-185.521"/>
<text text-anchor="start" x="803" y="-175.621" font-family="Helvetica,sans-Serif" font-size="11.00" fill="#000000">Id</text>
<polygon fill="#ffffff" stroke="transparent" points="783,-146.521 783,-168.521 1011,-168.521 1011,-146.521 783,-146.521"/>
<polygon fill="none" stroke="#000000" points="783,-146.521 783,-168.521 1011,-168.521 1011,-146.521 783,-146.521"/>
<image xlink:href="../../images/foreignKeys.png" width="11px" height="12px" preserveAspectRatio="xMinYMin meet" x="788" y="-163.521"/>
<text text-anchor="start" x="803" y="-153.621" font-family="Helvetica,sans-Serif" font-size="11.00" fill="#000000">ProfessorCompetencyAssignmentId</text>
<polygon fill="#ffffff" stroke="transparent" points="783,-124.521 783,-146.521 1011,-146.521 1011,-124.521 783,-124.521"/>
<polygon fill="none" stroke="#000000" points="783,-124.521 783,-146.521 1011,-146.521 1011,-124.521 783,-124.521"/>
<image xlink:href="../../images/foreignKeys.png" width="11px" height="12px" preserveAspectRatio="xMinYMin meet" x="788" y="-141.521"/>
<text text-anchor="start" x="803" y="-131.621" font-family="Helvetica,sans-Serif" font-size="11.00" fill="#000000">StudentId</text>
<polygon fill="#ffffff" stroke="transparent" points="783,-102.521 783,-124.521 1011,-124.521 1011,-102.521 783,-102.521"/>
<polygon fill="none" stroke="#000000" points="783,-102.521 783,-124.521 1011,-124.521 1011,-102.521 783,-102.521"/>
<image xlink:href="../../images/foreignKeys.png" width="11px" height="12px" preserveAspectRatio="xMinYMin meet" x="788" y="-119.521"/>
<text text-anchor="start" x="803" y="-109.621" font-family="Helvetica,sans-Serif" font-size="11.00" fill="#000000">CreatedByUserId</text>
<polygon fill="#ffffff" stroke="transparent" points="783,-80.521 783,-102.521 1011,-102.521 1011,-80.521 783,-80.521"/>
<polygon fill="none" stroke="#000000" points="783,-80.521 783,-102.521 1011,-102.521 1011,-80.521 783,-80.521"/>
<image xlink:href="../../images/foreignKeys.png" width="11px" height="12px" preserveAspectRatio="xMinYMin meet" x="788" y="-97.521"/>
<text text-anchor="start" x="803" y="-87.621" font-family="Helvetica,sans-Serif" font-size="11.00" fill="#000000">UpdatedByUserId</text>
<polygon fill="none" stroke="#000000" points="783,-61.521 783,-80.521 1011,-80.521 1011,-61.521 783,-61.521"/>
<text text-anchor="start" x="786" y="-67.621" font-family="Helvetica,sans-Serif" font-size="11.00" fill="#000000">...</text>
<polygon fill="#ffffff" stroke="transparent" points="783,-42.521 783,-61.521 878,-61.521 878,-42.521 783,-42.521"/>
<polygon fill="none" stroke="#000000" points="783,-42.521 783,-61.521 878,-61.521 878,-42.521 783,-42.521"/>
<text text-anchor="start" x="786" y="-48.621" font-family="Helvetica,sans-Serif" font-size="11.00" fill="#000000">&lt; 4</text>
<polygon fill="#ffffff" stroke="transparent" points="878,-42.521 878,-61.521 953,-61.521 953,-42.521 878,-42.521"/>
<polygon fill="none" stroke="#000000" points="878,-42.521 878,-61.521 953,-61.521 953,-42.521 878,-42.521"/>
<text text-anchor="start" x="917.6105" y="-48.621" font-family="Helvetica,sans-Serif" font-size="11.00" fill="#000000">0 rows</text>
<polygon fill="#ffffff" stroke="transparent" points="953,-42.521 953,-61.521 1011,-61.521 1011,-42.521 953,-42.521"/>
<polygon fill="none" stroke="#000000" points="953,-42.521 953,-61.521 1011,-61.521 1011,-42.521 953,-42.521"/>
<text text-anchor="start" x="992.4053" y="-48.621" font-family="Helvetica,sans-Serif" font-size="11.00" fill="#000000">1 &gt;</text>
</a>
</g>
</g>
<!-- StudentCompetencyEvaluations&#45;&gt;AspNetUsers -->
<g id="edge12" class="edge">
<title>StudentCompetencyEvaluations:w&#45;&gt;AspNetUsers:e</title>
<path fill="none" stroke="#000000" d="M768.5702,-113.3664C669.048,-111.7236 259.6583,-98.2489 212,-134.521 164.519,-170.6582 231.1686,-262.521 171.5,-262.521"/>
<polygon fill="#000000" stroke="#000000" points="775.0005,-113.4352 782.9614,-117.1208 779.0002,-113.4781 783,-113.521 783,-113.521 783,-113.521 779.0002,-113.4781 783.0386,-109.9212 775.0005,-113.4352 775.0005,-113.4352"/>
<ellipse fill="none" stroke="#000000" cx="771.8006" cy="-113.4009" rx="3.2" ry="3.2"/>
</g>
<!-- StudentCompetencyEvaluations&#45;&gt;AspNetUsers -->
<g id="edge14" class="edge">
<title>StudentCompetencyEvaluations:w&#45;&gt;AspNetUsers:e</title>
<path fill="none" stroke="#000000" d="M768.2763,-91.364C524.4421,-86.165 406.8545,45.4153 212,-109.521 156.9418,-153.2999 241.842,-262.521 171.5,-262.521"/>
<polygon fill="#000000" stroke="#000000" points="775.0005,-91.4356 782.9616,-95.1208 779.0002,-91.4783 783,-91.521 783,-91.521 783,-91.521 779.0002,-91.4783 783.0384,-87.9212 775.0005,-91.4356 775.0005,-91.4356"/>
<ellipse fill="none" stroke="#000000" cx="771.8006" cy="-91.4015" rx="3.2" ry="3.2"/>
</g>
<!-- StudentCompetencyEvaluations&#45;&gt;ProfessorCompetencyAssignments -->
<g id="edge13" class="edge">
<title>StudentCompetencyEvaluations:w&#45;&gt;ProfessorCompetencyAssignments:e</title>
<path fill="none" stroke="#000000" d="M768.6205,-159.2924C691.2594,-180.9801 834.2732,-394.521 732,-394.521"/>
<polygon fill="#000000" stroke="#000000" points="775.06,-158.4991 783.4402,-161.094 779.03,-158.0101 783,-157.521 783,-157.521 783,-157.521 779.03,-158.0101 782.5598,-153.948 775.06,-158.4991 775.06,-158.4991"/>
<ellipse fill="none" stroke="#000000" cx="771.884" cy="-158.8904" rx="3.2" ry="3.2"/>
</g>
</g>
</svg>
