<?xml version="1.0" encoding="UTF-8" standalone="no"?>
<!DOCTYPE svg PUBLIC "-//W3C//DTD SVG 1.1//EN"
 "http://www.w3.org/Graphics/SVG/1.1/DTD/svg11.dtd">
<!-- Generated by graphviz version 2.40.1 (20161225.0304)
 -->
<!-- Title: oneDegreeRelationshipsDiagram Pages: 1 -->
<svg width="1201pt" height="750pt"
 viewBox="0.00 0.00 1201.00 750.20" xmlns="http://www.w3.org/2000/svg" xmlns:xlink="http://www.w3.org/1999/xlink">
<g id="graph0" class="graph" transform="scale(1 1) rotate(0) translate(4 746.2)">
<title>oneDegreeRelationshipsDiagram</title>
<polygon fill="#ffffff" stroke="transparent" points="-4,4 -4,-746.2 1197,-746.2 1197,4 -4,4"/>
<text text-anchor="middle" x="72.4936" y="-7.3" font-family="Helvetica,sans-Serif" font-size="11.00" fill="#000000">Generated by SchemaSpy</text>
<!-- Competencies -->
<g id="node1" class="node">
<title>Competencies</title>
<g id="a_node1"><a xlink:href="../../tables/Competencies.html" xlink:title="Competencies" target="_top">
<polygon fill="#ffffff" stroke="transparent" points="414,-611.2 414,-738.2 535,-738.2 535,-611.2 414,-611.2"/>
<polygon fill="#f5f5f5" stroke="transparent" points="414.5,-714.7 414.5,-737.7 535.5,-737.7 535.5,-714.7 414.5,-714.7"/>
<polygon fill="none" stroke="#000000" points="414.5,-714.7 414.5,-737.7 535.5,-737.7 535.5,-714.7 414.5,-714.7"/>
<text text-anchor="start" x="419.5" y="-723.3" font-family="Helvetica,sans-Serif" font-weight="bold" font-size="11.00" fill="#000000">Competencies</text>
<text text-anchor="start" x="501.0219" y="-722.8" font-family="Helvetica,sans-Serif" font-size="11.00" fill="#000000">[table]</text>
<polygon fill="none" stroke="#000000" points="414.5,-692.7 414.5,-714.7 535.5,-714.7 535.5,-692.7 414.5,-692.7"/>
<image xlink:href="../../images/primaryKeys.png" width="11px" height="12px" preserveAspectRatio="xMinYMin meet" x="419.5" y="-709.7"/>
<text text-anchor="start" x="434.5" y="-699.8" font-family="Helvetica,sans-Serif" font-size="11.00" fill="#000000">Id</text>
<polygon fill="#ffffff" stroke="transparent" points="414.5,-670.7 414.5,-692.7 535.5,-692.7 535.5,-670.7 414.5,-670.7"/>
<polygon fill="none" stroke="#000000" points="414.5,-670.7 414.5,-692.7 535.5,-692.7 535.5,-670.7 414.5,-670.7"/>
<image xlink:href="../../images/foreignKeys.png" width="11px" height="12px" preserveAspectRatio="xMinYMin meet" x="419.5" y="-687.7"/>
<text text-anchor="start" x="434.5" y="-677.8" font-family="Helvetica,sans-Serif" font-size="11.00" fill="#000000">CreatedByUserId</text>
<polygon fill="#ffffff" stroke="transparent" points="414.5,-648.7 414.5,-670.7 535.5,-670.7 535.5,-648.7 414.5,-648.7"/>
<polygon fill="none" stroke="#000000" points="414.5,-648.7 414.5,-670.7 535.5,-670.7 535.5,-648.7 414.5,-648.7"/>
<image xlink:href="../../images/foreignKeys.png" width="11px" height="12px" preserveAspectRatio="xMinYMin meet" x="419.5" y="-665.7"/>
<text text-anchor="start" x="434.5" y="-655.8" font-family="Helvetica,sans-Serif" font-size="11.00" fill="#000000">UpdatedByUserId</text>
<polygon fill="none" stroke="#000000" points="414.5,-629.7 414.5,-648.7 535.5,-648.7 535.5,-629.7 414.5,-629.7"/>
<text text-anchor="start" x="417.5" y="-635.8" font-family="Helvetica,sans-Serif" font-size="11.00" fill="#000000">...</text>
<polygon fill="#ffffff" stroke="transparent" points="414.5,-610.7 414.5,-629.7 455.5,-629.7 455.5,-610.7 414.5,-610.7"/>
<polygon fill="none" stroke="#000000" points="414.5,-610.7 414.5,-629.7 455.5,-629.7 455.5,-610.7 414.5,-610.7"/>
<text text-anchor="start" x="417.5" y="-616.8" font-family="Helvetica,sans-Serif" font-size="11.00" fill="#000000">&lt; 2</text>
<polygon fill="#ffffff" stroke="transparent" points="455.5,-610.7 455.5,-629.7 503.5,-629.7 503.5,-610.7 455.5,-610.7"/>
<polygon fill="none" stroke="#000000" points="455.5,-610.7 455.5,-629.7 503.5,-629.7 503.5,-610.7 455.5,-610.7"/>
<text text-anchor="start" x="468.1105" y="-616.8" font-family="Helvetica,sans-Serif" font-size="11.00" fill="#000000">5 rows</text>
<polygon fill="#ffffff" stroke="transparent" points="503.5,-610.7 503.5,-629.7 535.5,-629.7 535.5,-610.7 503.5,-610.7"/>
<polygon fill="none" stroke="#000000" points="503.5,-610.7 503.5,-629.7 535.5,-629.7 535.5,-610.7 503.5,-610.7"/>
<text text-anchor="start" x="516.9053" y="-616.8" font-family="Helvetica,sans-Serif" font-size="11.00" fill="#000000">4 &gt;</text>
</a>
</g>
</g>
<!-- AspNetUsers -->
<g id="node2" class="node">
<title>AspNetUsers</title>
<g id="a_node2"><a xlink:href="../../tables/AspNetUsers.html" xlink:title="AspNetUsers" target="_top">
<polygon fill="#ffffff" stroke="transparent" points="8,-283.2 8,-410.2 171,-410.2 171,-283.2 8,-283.2"/>
<polygon fill="#f5f5f5" stroke="transparent" points="8.5,-386.7 8.5,-409.7 171.5,-409.7 171.5,-386.7 8.5,-386.7"/>
<polygon fill="none" stroke="#000000" points="8.5,-386.7 8.5,-409.7 171.5,-409.7 171.5,-386.7 8.5,-386.7"/>
<text text-anchor="start" x="13.5" y="-395.3" font-family="Helvetica,sans-Serif" font-weight="bold" font-size="11.00" fill="#000000">AspNetUsers</text>
<text text-anchor="start" x="136.5437" y="-394.8" font-family="Helvetica,sans-Serif" font-size="11.00" fill="#000000">[table]</text>
<polygon fill="none" stroke="#000000" points="8.5,-364.7 8.5,-386.7 171.5,-386.7 171.5,-364.7 8.5,-364.7"/>
<image xlink:href="../../images/primaryKeys.png" width="11px" height="12px" preserveAspectRatio="xMinYMin meet" x="13.5" y="-381.7"/>
<text text-anchor="start" x="28.5" y="-371.8" font-family="Helvetica,sans-Serif" font-size="11.00" fill="#000000">Id</text>
<polygon fill="#ffffff" stroke="transparent" points="8.5,-342.7 8.5,-364.7 171.5,-364.7 171.5,-342.7 8.5,-342.7"/>
<polygon fill="none" stroke="#000000" points="8.5,-342.7 8.5,-364.7 171.5,-364.7 171.5,-342.7 8.5,-342.7"/>
<text text-anchor="start" x="28.5" y="-349.8" font-family="Helvetica,sans-Serif" font-size="11.00" fill="#000000">NormalizedUserName</text>
<polygon fill="#ffffff" stroke="transparent" points="8.5,-320.7 8.5,-342.7 171.5,-342.7 171.5,-320.7 8.5,-320.7"/>
<polygon fill="none" stroke="#000000" points="8.5,-320.7 8.5,-342.7 171.5,-342.7 171.5,-320.7 8.5,-320.7"/>
<text text-anchor="start" x="28.5" y="-327.8" font-family="Helvetica,sans-Serif" font-size="11.00" fill="#000000">NormalizedEmail</text>
<polygon fill="none" stroke="#000000" points="8.5,-301.7 8.5,-320.7 171.5,-320.7 171.5,-301.7 8.5,-301.7"/>
<text text-anchor="start" x="11.5" y="-307.8" font-family="Helvetica,sans-Serif" font-size="11.00" fill="#000000">...</text>
<polygon fill="#ffffff" stroke="transparent" points="8.5,-282.7 8.5,-301.7 66.5,-301.7 66.5,-282.7 8.5,-282.7"/>
<polygon fill="none" stroke="#000000" points="8.5,-282.7 8.5,-301.7 66.5,-301.7 66.5,-282.7 8.5,-282.7"/>
<text text-anchor="start" x="11.5" y="-288.8" font-family="Helvetica,sans-Serif" font-size="11.00" fill="#000000"> &#160;</text>
<polygon fill="#ffffff" stroke="transparent" points="66.5,-282.7 66.5,-301.7 121.5,-301.7 121.5,-282.7 66.5,-282.7"/>
<polygon fill="none" stroke="#000000" points="66.5,-282.7 66.5,-301.7 121.5,-301.7 121.5,-282.7 66.5,-282.7"/>
<text text-anchor="start" x="91.6105" y="-288.8" font-family="Helvetica,sans-Serif" font-size="11.00" fill="#000000">1 row</text>
<polygon fill="#ffffff" stroke="transparent" points="121.5,-282.7 121.5,-301.7 171.5,-301.7 171.5,-282.7 121.5,-282.7"/>
<polygon fill="none" stroke="#000000" points="121.5,-282.7 121.5,-301.7 171.5,-301.7 171.5,-282.7 121.5,-282.7"/>
<text text-anchor="start" x="146.7904" y="-288.8" font-family="Helvetica,sans-Serif" font-size="11.00" fill="#000000">29 &gt;</text>
</a>
</g>
</g>
<!-- Competencies&#45;&gt;AspNetUsers -->
<g id="edge1" class="edge">
<title>Competencies:w&#45;&gt;AspNetUsers:e</title>
<path fill="none" stroke="#000000" d="M400.0927,-682.1156C319.2332,-686.7539 274.5602,-727.5786 212,-669.7 163.5899,-624.9126 237.4503,-375.7 171.5,-375.7"/>
<polygon fill="#000000" stroke="#000000" points="406.5033,-681.9307 414.6038,-685.2985 410.5017,-681.8154 414.5,-681.7 414.5,-681.7 414.5,-681.7 410.5017,-681.8154 414.3962,-678.1015 406.5033,-681.9307 406.5033,-681.9307"/>
<ellipse fill="none" stroke="#000000" cx="403.3047" cy="-682.023" rx="3.2" ry="3.2"/>
</g>
<!-- Competencies&#45;&gt;AspNetUsers -->
<g id="edge2" class="edge">
<title>Competencies:w&#45;&gt;AspNetUsers:e</title>
<path fill="none" stroke="#000000" d="M399.8671,-660.0851C346.8966,-662.3971 242.0364,-673.4285 212,-645.7 167.4205,-604.5458 232.1712,-375.7 171.5,-375.7"/>
<polygon fill="#000000" stroke="#000000" points="406.5028,-659.9105 414.5947,-663.2988 410.5014,-659.8052 414.5,-659.7 414.5,-659.7 414.5,-659.7 410.5014,-659.8052 414.4053,-656.1012 406.5028,-659.9105 406.5028,-659.9105"/>
<ellipse fill="none" stroke="#000000" cx="403.3039" cy="-659.9947" rx="3.2" ry="3.2"/>
</g>
<!-- EvaluationPeriods -->
<g id="node3" class="node">
<title>EvaluationPeriods</title>
<g id="a_node3"><a xlink:href="../../tables/EvaluationPeriods.html" xlink:title="EvaluationPeriods" target="_top">
<polygon fill="#ffffff" stroke="transparent" points="220,-508.2 220,-635.2 363,-635.2 363,-508.2 220,-508.2"/>
<polygon fill="#f5f5f5" stroke="transparent" points="220.5,-611.7 220.5,-634.7 363.5,-634.7 363.5,-611.7 220.5,-611.7"/>
<polygon fill="none" stroke="#000000" points="220.5,-611.7 220.5,-634.7 363.5,-634.7 363.5,-611.7 220.5,-611.7"/>
<text text-anchor="start" x="225.5" y="-620.3" font-family="Helvetica,sans-Serif" font-weight="bold" font-size="11.00" fill="#000000">EvaluationPeriods</text>
<text text-anchor="start" x="329.0219" y="-619.8" font-family="Helvetica,sans-Serif" font-size="11.00" fill="#000000">[table]</text>
<polygon fill="none" stroke="#000000" points="220.5,-589.7 220.5,-611.7 363.5,-611.7 363.5,-589.7 220.5,-589.7"/>
<image xlink:href="../../images/primaryKeys.png" width="11px" height="12px" preserveAspectRatio="xMinYMin meet" x="225.5" y="-606.7"/>
<text text-anchor="start" x="249.5" y="-596.8" font-family="Helvetica,sans-Serif" font-size="11.00" fill="#000000">Id</text>
<polygon fill="#ffffff" stroke="transparent" points="220.5,-567.7 220.5,-589.7 363.5,-589.7 363.5,-567.7 220.5,-567.7"/>
<polygon fill="none" stroke="#000000" points="220.5,-567.7 220.5,-589.7 363.5,-589.7 363.5,-567.7 220.5,-567.7"/>
<image xlink:href="../../images/foreignKeys.png" width="11px" height="12px" preserveAspectRatio="xMinYMin meet" x="225.5" y="-584.7"/>
<text text-anchor="start" x="249.5" y="-574.8" font-family="Helvetica,sans-Serif" font-size="11.00" fill="#000000">CreatedByUserId</text>
<polygon fill="#ffffff" stroke="transparent" points="220.5,-545.7 220.5,-567.7 363.5,-567.7 363.5,-545.7 220.5,-545.7"/>
<polygon fill="none" stroke="#000000" points="220.5,-545.7 220.5,-567.7 363.5,-567.7 363.5,-545.7 220.5,-545.7"/>
<image xlink:href="../../images/foreignKeys.png" width="11px" height="12px" preserveAspectRatio="xMinYMin meet" x="225.5" y="-562.7"/>
<text text-anchor="start" x="249.5" y="-552.8" font-family="Helvetica,sans-Serif" font-size="11.00" fill="#000000">UpdatedByUserId</text>
<polygon fill="none" stroke="#000000" points="220.5,-526.7 220.5,-545.7 363.5,-545.7 363.5,-526.7 220.5,-526.7"/>
<text text-anchor="start" x="223.5" y="-532.8" font-family="Helvetica,sans-Serif" font-size="11.00" fill="#000000">...</text>
<polygon fill="#ffffff" stroke="transparent" points="220.5,-507.7 220.5,-526.7 272.5,-526.7 272.5,-507.7 220.5,-507.7"/>
<polygon fill="none" stroke="#000000" points="220.5,-507.7 220.5,-526.7 272.5,-526.7 272.5,-507.7 220.5,-507.7"/>
<text text-anchor="start" x="223.5" y="-513.8" font-family="Helvetica,sans-Serif" font-size="11.00" fill="#000000">&lt; 2</text>
<polygon fill="#ffffff" stroke="transparent" points="272.5,-507.7 272.5,-526.7 326.5,-526.7 326.5,-507.7 272.5,-507.7"/>
<polygon fill="none" stroke="#000000" points="272.5,-507.7 272.5,-526.7 326.5,-526.7 326.5,-507.7 272.5,-507.7"/>
<text text-anchor="start" x="291.1105" y="-513.8" font-family="Helvetica,sans-Serif" font-size="11.00" fill="#000000">0 rows</text>
<polygon fill="#ffffff" stroke="transparent" points="326.5,-507.7 326.5,-526.7 363.5,-526.7 363.5,-507.7 326.5,-507.7"/>
<polygon fill="none" stroke="#000000" points="326.5,-507.7 326.5,-526.7 363.5,-526.7 363.5,-507.7 326.5,-507.7"/>
<text text-anchor="start" x="344.9053" y="-513.8" font-family="Helvetica,sans-Serif" font-size="11.00" fill="#000000">3 &gt;</text>
</a>
</g>
</g>
<!-- EvaluationPeriods&#45;&gt;AspNetUsers -->
<g id="edge3" class="edge">
<title>EvaluationPeriods:w&#45;&gt;AspNetUsers:e</title>
<path fill="none" stroke="#000000" d="M206.0628,-576.5576C143.3902,-554.8622 258.6938,-375.7 171.5,-375.7"/>
<polygon fill="#000000" stroke="#000000" points="212.5867,-577.5256 219.9715,-582.261 216.5433,-578.1128 220.5,-578.7 220.5,-578.7 220.5,-578.7 216.5433,-578.1128 221.0285,-575.139 212.5867,-577.5256 212.5867,-577.5256"/>
<ellipse fill="none" stroke="#000000" cx="209.4213" cy="-577.0559" rx="3.2" ry="3.2"/>
</g>
<!-- EvaluationPeriods&#45;&gt;AspNetUsers -->
<g id="edge4" class="edge">
<title>EvaluationPeriods:w&#45;&gt;AspNetUsers:e</title>
<path fill="none" stroke="#000000" d="M206.0984,-554.2782C152.3096,-532.7997 249.1431,-375.7 171.5,-375.7"/>
<polygon fill="#000000" stroke="#000000" points="212.6108,-555.3733 219.903,-560.2502 216.5554,-556.0366 220.5,-556.7 220.5,-556.7 220.5,-556.7 216.5554,-556.0366 221.097,-553.1498 212.6108,-555.3733 212.6108,-555.3733"/>
<ellipse fill="none" stroke="#000000" cx="209.4551" cy="-554.8426" rx="3.2" ry="3.2"/>
</g>
<!-- ProfessorCompetencyAssignments -->
<g id="node4" class="node">
<title>ProfessorCompetencyAssignments</title>
<g id="a_node4"><a xlink:href="../../tables/ProfessorCompetencyAssignments.html" xlink:title="ProfessorCompetencyAssignments" target="_top">
<polygon fill="#ffffff" stroke="transparent" points="586,-340.7 586,-628.7 908,-628.7 908,-340.7 586,-340.7"/>
<polygon fill="#f5f5f5" stroke="transparent" points="588,-603.7 588,-626.7 906,-626.7 906,-603.7 588,-603.7"/>
<polygon fill="none" stroke="#000000" points="588,-603.7 588,-626.7 906,-626.7 906,-603.7 588,-603.7"/>
<text text-anchor="start" x="593" y="-612.3" font-family="Helvetica,sans-Serif" font-weight="bold" font-size="11.00" fill="#000000">ProfessorCompetencyAssignments</text>
<text text-anchor="start" x="871.0437" y="-611.8" font-family="Helvetica,sans-Serif" font-size="11.00" fill="#000000">[table]</text>
<polygon fill="none" stroke="#000000" points="588,-581.7 588,-603.7 812,-603.7 812,-581.7 588,-581.7"/>
<image xlink:href="../../images/primaryKeys.png" width="11px" height="12px" preserveAspectRatio="xMinYMin meet" x="593" y="-598.7"/>
<text text-anchor="start" x="608" y="-588.8" font-family="Helvetica,sans-Serif" font-size="11.00" fill="#000000">Id</text>
<polygon fill="none" stroke="#000000" points="812,-581.7 812,-603.7 906,-603.7 906,-581.7 812,-581.7"/>
<text text-anchor="start" x="814.9758" y="-589.4" font-family="Helvetica,sans-Serif" font-size="11.00" fill="#000000">uuid[2147483647]</text>
<polygon fill="#ffffff" stroke="transparent" points="588,-559.7 588,-581.7 812,-581.7 812,-559.7 588,-559.7"/>
<polygon fill="none" stroke="#000000" points="588,-559.7 588,-581.7 812,-581.7 812,-559.7 588,-559.7"/>
<image xlink:href="../../images/foreignKeys.png" width="11px" height="12px" preserveAspectRatio="xMinYMin meet" x="593" y="-576.7"/>
<text text-anchor="start" x="608" y="-566.8" font-family="Helvetica,sans-Serif" font-size="11.00" fill="#000000">TechnicalCareerId</text>
<polygon fill="none" stroke="#000000" points="812,-559.7 812,-581.7 906,-581.7 906,-559.7 812,-559.7"/>
<text text-anchor="start" x="814.9758" y="-567.4" font-family="Helvetica,sans-Serif" font-size="11.00" fill="#000000">uuid[2147483647]</text>
<polygon fill="#ffffff" stroke="transparent" points="588,-537.7 588,-559.7 812,-559.7 812,-537.7 588,-537.7"/>
<polygon fill="none" stroke="#000000" points="588,-537.7 588,-559.7 812,-559.7 812,-537.7 588,-537.7"/>
<image xlink:href="../../images/foreignKeys.png" width="11px" height="12px" preserveAspectRatio="xMinYMin meet" x="593" y="-554.7"/>
<text text-anchor="start" x="608" y="-544.8" font-family="Helvetica,sans-Serif" font-size="11.00" fill="#000000">CompetencyId</text>
<polygon fill="none" stroke="#000000" points="812,-537.7 812,-559.7 906,-559.7 906,-537.7 812,-537.7"/>
<text text-anchor="start" x="814.9758" y="-545.4" font-family="Helvetica,sans-Serif" font-size="11.00" fill="#000000">uuid[2147483647]</text>
<polygon fill="#ffffff" stroke="transparent" points="588,-515.7 588,-537.7 812,-537.7 812,-515.7 588,-515.7"/>
<polygon fill="none" stroke="#000000" points="588,-515.7 588,-537.7 812,-537.7 812,-515.7 588,-515.7"/>
<image xlink:href="../../images/foreignKeys.png" width="11px" height="12px" preserveAspectRatio="xMinYMin meet" x="593" y="-532.7"/>
<text text-anchor="start" x="608" y="-522.8" font-family="Helvetica,sans-Serif" font-size="11.00" fill="#000000">EvaluationPeriodId</text>
<polygon fill="none" stroke="#000000" points="812,-515.7 812,-537.7 906,-537.7 906,-515.7 812,-515.7"/>
<text text-anchor="start" x="814.9758" y="-523.4" font-family="Helvetica,sans-Serif" font-size="11.00" fill="#000000">uuid[2147483647]</text>
<polygon fill="none" stroke="#000000" points="588,-493.7 588,-515.7 812,-515.7 812,-493.7 588,-493.7"/>
<text text-anchor="start" x="608" y="-500.8" font-family="Helvetica,sans-Serif" font-size="11.00" fill="#000000">IsActive</text>
<polygon fill="none" stroke="#000000" points="812,-493.7 812,-515.7 906,-515.7 906,-493.7 812,-493.7"/>
<text text-anchor="start" x="815" y="-501.4" font-family="Helvetica,sans-Serif" font-size="11.00" fill="#000000">bool[1]</text>
<polygon fill="none" stroke="#000000" points="588,-471.7 588,-493.7 812,-493.7 812,-471.7 588,-471.7"/>
<text text-anchor="start" x="608" y="-478.8" font-family="Helvetica,sans-Serif" font-size="11.00" fill="#000000">CreatedAt</text>
<polygon fill="none" stroke="#000000" points="812,-471.7 812,-493.7 906,-493.7 906,-471.7 812,-471.7"/>
<text text-anchor="start" x="815" y="-479.4" font-family="Helvetica,sans-Serif" font-size="11.00" fill="#000000">timestamptz[35,6]</text>
<polygon fill="none" stroke="#000000" points="588,-449.7 588,-471.7 812,-471.7 812,-449.7 588,-449.7"/>
<text text-anchor="start" x="608" y="-456.8" font-family="Helvetica,sans-Serif" font-size="11.00" fill="#000000">UpdatedAt</text>
<polygon fill="none" stroke="#000000" points="812,-449.7 812,-471.7 906,-471.7 906,-449.7 812,-449.7"/>
<text text-anchor="start" x="815" y="-457.4" font-family="Helvetica,sans-Serif" font-size="11.00" fill="#000000">timestamptz[35,6]</text>
<polygon fill="#ffffff" stroke="transparent" points="588,-427.7 588,-449.7 812,-449.7 812,-427.7 588,-427.7"/>
<polygon fill="none" stroke="#000000" points="588,-427.7 588,-449.7 812,-449.7 812,-427.7 588,-427.7"/>
<image xlink:href="../../images/foreignKeys.png" width="11px" height="12px" preserveAspectRatio="xMinYMin meet" x="593" y="-444.7"/>
<text text-anchor="start" x="608" y="-434.8" font-family="Helvetica,sans-Serif" font-size="11.00" fill="#000000">CreatedByUserId</text>
<polygon fill="none" stroke="#000000" points="812,-427.7 812,-449.7 906,-449.7 906,-427.7 812,-427.7"/>
<text text-anchor="start" x="815" y="-435.4" font-family="Helvetica,sans-Serif" font-size="11.00" fill="#000000">text[2147483647]</text>
<polygon fill="#ffffff" stroke="transparent" points="588,-405.7 588,-427.7 812,-427.7 812,-405.7 588,-405.7"/>
<polygon fill="none" stroke="#000000" points="588,-405.7 588,-427.7 812,-427.7 812,-405.7 588,-405.7"/>
<image xlink:href="../../images/foreignKeys.png" width="11px" height="12px" preserveAspectRatio="xMinYMin meet" x="593" y="-422.7"/>
<text text-anchor="start" x="608" y="-412.8" font-family="Helvetica,sans-Serif" font-size="11.00" fill="#000000">UpdatedByUserId</text>
<polygon fill="none" stroke="#000000" points="812,-405.7 812,-427.7 906,-427.7 906,-405.7 812,-405.7"/>
<text text-anchor="start" x="815" y="-413.4" font-family="Helvetica,sans-Serif" font-size="11.00" fill="#000000">text[2147483647]</text>
<polygon fill="#ffffff" stroke="transparent" points="588,-383.7 588,-405.7 812,-405.7 812,-383.7 588,-383.7"/>
<polygon fill="none" stroke="#000000" points="588,-383.7 588,-405.7 812,-405.7 812,-383.7 588,-383.7"/>
<image xlink:href="../../images/foreignKeys.png" width="11px" height="12px" preserveAspectRatio="xMinYMin meet" x="593" y="-400.7"/>
<text text-anchor="start" x="608" y="-390.8" font-family="Helvetica,sans-Serif" font-size="11.00" fill="#000000">ProfessorUserId</text>
<polygon fill="none" stroke="#000000" points="812,-383.7 812,-405.7 906,-405.7 906,-383.7 812,-383.7"/>
<text text-anchor="start" x="815" y="-391.4" font-family="Helvetica,sans-Serif" font-size="11.00" fill="#000000">text[2147483647]</text>
<polygon fill="#ffffff" stroke="transparent" points="588,-361.7 588,-383.7 812,-383.7 812,-361.7 588,-361.7"/>
<polygon fill="none" stroke="#000000" points="588,-361.7 588,-383.7 812,-383.7 812,-361.7 588,-361.7"/>
<image xlink:href="../../images/foreignKeys.png" width="11px" height="12px" preserveAspectRatio="xMinYMin meet" x="593" y="-378.7"/>
<text text-anchor="start" x="608" y="-368.8" font-family="Helvetica,sans-Serif" font-size="11.00" fill="#000000">SubjectId</text>
<polygon fill="none" stroke="#000000" points="812,-361.7 812,-383.7 906,-383.7 906,-361.7 812,-361.7"/>
<text text-anchor="start" x="814.9758" y="-369.4" font-family="Helvetica,sans-Serif" font-size="11.00" fill="#000000">uuid[2147483647]</text>
<polygon fill="#ffffff" stroke="transparent" points="588,-342.7 588,-361.7 691,-361.7 691,-342.7 588,-342.7"/>
<polygon fill="none" stroke="#000000" points="588,-342.7 588,-361.7 691,-361.7 691,-342.7 588,-342.7"/>
<text text-anchor="start" x="591" y="-348.8" font-family="Helvetica,sans-Serif" font-size="11.00" fill="#000000">&lt; 7</text>
<polygon fill="#ffffff" stroke="transparent" points="691,-342.7 691,-361.7 812,-361.7 812,-342.7 691,-342.7"/>
<polygon fill="none" stroke="#000000" points="691,-342.7 691,-361.7 812,-361.7 812,-342.7 691,-342.7"/>
<text text-anchor="start" x="776.6105" y="-348.8" font-family="Helvetica,sans-Serif" font-size="11.00" fill="#000000">0 rows</text>
<polygon fill="#ffffff" stroke="transparent" points="812,-342.7 812,-361.7 906,-361.7 906,-342.7 812,-342.7"/>
<polygon fill="none" stroke="#000000" points="812,-342.7 812,-361.7 906,-361.7 906,-342.7 812,-342.7"/>
<text text-anchor="start" x="887.4053" y="-348.8" font-family="Helvetica,sans-Serif" font-size="11.00" fill="#000000">1 &gt;</text>
<polygon fill="none" stroke="#000000" stroke-width="2" points="587,-341.7 587,-627.7 907,-627.7 907,-341.7 587,-341.7"/>
</a>
</g>
</g>
<!-- ProfessorCompetencyAssignments&#45;&gt;Competencies -->
<g id="edge5" class="edge">
<title>ProfessorCompetencyAssignments:w&#45;&gt;Competencies:e</title>
<path fill="none" stroke="#000000" d="M573.8292,-551.3903C528.7814,-571.9727 602.551,-703.7 535.5,-703.7"/>
<polygon fill="#000000" stroke="#000000" points="580.1404,-550.1922 588.6715,-552.2368 584.0702,-549.4461 588,-548.7 588,-548.7 588,-548.7 584.0702,-549.4461 587.3285,-545.1632 580.1404,-550.1922 580.1404,-550.1922"/>
<ellipse fill="none" stroke="#000000" cx="576.9965" cy="-550.7891" rx="3.2" ry="3.2"/>
</g>
<!-- ProfessorCompetencyAssignments&#45;&gt;AspNetUsers -->
<g id="edge6" class="edge">
<title>ProfessorCompetencyAssignments:w&#45;&gt;AspNetUsers:e</title>
<path fill="none" stroke="#000000" d="M574.1074,-442.5683C564.4203,-449.0672 561.0553,-461.9334 545,-466.7 474.0603,-487.7609 274.0587,-507.0078 212,-466.7 174.8746,-442.5866 215.7691,-375.7 171.5,-375.7"/>
<polygon fill="#000000" stroke="#000000" points="580.2932,-440.846 588.9657,-442.1681 584.1466,-439.773 588,-438.7 588,-438.7 588,-438.7 584.1466,-439.773 587.0343,-435.2319 580.2932,-440.846 580.2932,-440.846"/>
<ellipse fill="none" stroke="#000000" cx="577.2104" cy="-441.7043" rx="3.2" ry="3.2"/>
</g>
<!-- ProfessorCompetencyAssignments&#45;&gt;AspNetUsers -->
<g id="edge11" class="edge">
<title>ProfessorCompetencyAssignments:w&#45;&gt;AspNetUsers:e</title>
<path fill="none" stroke="#000000" d="M573.375,-417.2539C481.1102,-423.6006 281.0331,-481.6362 212,-442.7 181.693,-425.6061 206.2953,-375.7 171.5,-375.7"/>
<polygon fill="#000000" stroke="#000000" points="580.0057,-417.0028 588.1363,-420.2974 584.0029,-416.8514 588,-416.7 588,-416.7 588,-416.7 584.0029,-416.8514 587.8637,-413.1026 580.0057,-417.0028 580.0057,-417.0028"/>
<ellipse fill="none" stroke="#000000" cx="576.808" cy="-417.124" rx="3.2" ry="3.2"/>
</g>
<!-- ProfessorCompetencyAssignments&#45;&gt;EvaluationPeriods -->
<g id="edge7" class="edge">
<title>ProfessorCompetencyAssignments:w&#45;&gt;EvaluationPeriods:e</title>
<path fill="none" stroke="#000000" d="M573.5214,-527.1921C481.3574,-533.6126 463.5313,-600.7 363.5,-600.7"/>
<polygon fill="#000000" stroke="#000000" points="580.0046,-526.9718 588.1223,-530.2979 584.0023,-526.8359 588,-526.7 588,-526.7 588,-526.7 584.0023,-526.8359 587.8777,-523.1021 580.0046,-526.9718 580.0046,-526.9718"/>
<ellipse fill="none" stroke="#000000" cx="576.8065" cy="-527.0805" rx="3.2" ry="3.2"/>
</g>
<!-- Professors -->
<g id="node5" class="node">
<title>Professors</title>
<g id="a_node5"><a xlink:href="../../tables/Professors.html" xlink:title="Professors" target="_top">
<polygon fill="#ffffff" stroke="transparent" points="241,-201.2 241,-284.2 342,-284.2 342,-201.2 241,-201.2"/>
<polygon fill="#f5f5f5" stroke="transparent" points="241.5,-260.7 241.5,-283.7 342.5,-283.7 342.5,-260.7 241.5,-260.7"/>
<polygon fill="none" stroke="#000000" points="241.5,-260.7 241.5,-283.7 342.5,-283.7 342.5,-260.7 241.5,-260.7"/>
<text text-anchor="start" x="246.5" y="-269.3" font-family="Helvetica,sans-Serif" font-weight="bold" font-size="11.00" fill="#000000">Professors</text>
<text text-anchor="start" x="308.0219" y="-268.8" font-family="Helvetica,sans-Serif" font-size="11.00" fill="#000000">[table]</text>
<polygon fill="none" stroke="#000000" points="241.5,-238.7 241.5,-260.7 342.5,-260.7 342.5,-238.7 241.5,-238.7"/>
<image xlink:href="../../images/primaryKeys.png" width="11px" height="12px" preserveAspectRatio="xMinYMin meet" x="246.5" y="-255.7"/>
<text text-anchor="start" x="270.5" y="-245.8" font-family="Helvetica,sans-Serif" font-size="11.00" fill="#000000">UserId</text>
<polygon fill="none" stroke="#000000" points="241.5,-219.7 241.5,-238.7 342.5,-238.7 342.5,-219.7 241.5,-219.7"/>
<text text-anchor="start" x="244.5" y="-225.8" font-family="Helvetica,sans-Serif" font-size="11.00" fill="#000000">...</text>
<polygon fill="#ffffff" stroke="transparent" points="241.5,-200.7 241.5,-219.7 272.5,-219.7 272.5,-200.7 241.5,-200.7"/>
<polygon fill="none" stroke="#000000" points="241.5,-200.7 241.5,-219.7 272.5,-219.7 272.5,-200.7 241.5,-200.7"/>
<text text-anchor="start" x="244.5" y="-206.8" font-family="Helvetica,sans-Serif" font-size="11.00" fill="#000000">&lt; 1</text>
<polygon fill="#ffffff" stroke="transparent" points="272.5,-200.7 272.5,-219.7 315.5,-219.7 315.5,-200.7 272.5,-200.7"/>
<polygon fill="none" stroke="#000000" points="272.5,-200.7 272.5,-219.7 315.5,-219.7 315.5,-200.7 272.5,-200.7"/>
<text text-anchor="start" x="280.1105" y="-206.8" font-family="Helvetica,sans-Serif" font-size="11.00" fill="#000000">0 rows</text>
<polygon fill="#ffffff" stroke="transparent" points="315.5,-200.7 315.5,-219.7 342.5,-219.7 342.5,-200.7 315.5,-200.7"/>
<polygon fill="none" stroke="#000000" points="315.5,-200.7 315.5,-219.7 342.5,-219.7 342.5,-200.7 315.5,-200.7"/>
<text text-anchor="start" x="323.9053" y="-206.8" font-family="Helvetica,sans-Serif" font-size="11.00" fill="#000000">2 &gt;</text>
</a>
</g>
</g>
<!-- ProfessorCompetencyAssignments&#45;&gt;Professors -->
<g id="edge8" class="edge">
<title>ProfessorCompetencyAssignments:w&#45;&gt;Professors:e</title>
<path fill="none" stroke="#000000" d="M573.4325,-394.5881C498.3981,-393.3565 469.5616,-381.4488 404,-333.7 366.5984,-306.4602 388.7697,-249.7 342.5,-249.7"/>
<polygon fill="#000000" stroke="#000000" points="580.0002,-394.6385 587.9723,-398.2999 584.0001,-394.6692 588,-394.7 588,-394.7 588,-394.7 584.0001,-394.6692 588.0277,-391.1001 580.0002,-394.6385 580.0002,-394.6385"/>
<ellipse fill="none" stroke="#000000" cx="576.8003" cy="-394.6139" rx="3.2" ry="3.2"/>
</g>
<!-- Subjects -->
<g id="node6" class="node">
<title>Subjects</title>
<g id="a_node6"><a xlink:href="../../tables/Subjects.html" xlink:title="Subjects" target="_top">
<polygon fill="#ffffff" stroke="transparent" points="412,-152.2 412,-323.2 537,-323.2 537,-152.2 412,-152.2"/>
<polygon fill="#f5f5f5" stroke="transparent" points="412.5,-299.7 412.5,-322.7 537.5,-322.7 537.5,-299.7 412.5,-299.7"/>
<polygon fill="none" stroke="#000000" points="412.5,-299.7 412.5,-322.7 537.5,-322.7 537.5,-299.7 412.5,-299.7"/>
<text text-anchor="start" x="417.5" y="-308.3" font-family="Helvetica,sans-Serif" font-weight="bold" font-size="11.00" fill="#000000">Subjects</text>
<text text-anchor="start" x="502.5437" y="-307.8" font-family="Helvetica,sans-Serif" font-size="11.00" fill="#000000">[table]</text>
<polygon fill="none" stroke="#000000" points="412.5,-277.7 412.5,-299.7 537.5,-299.7 537.5,-277.7 412.5,-277.7"/>
<image xlink:href="../../images/primaryKeys.png" width="11px" height="12px" preserveAspectRatio="xMinYMin meet" x="417.5" y="-294.7"/>
<text text-anchor="start" x="432.5" y="-284.8" font-family="Helvetica,sans-Serif" font-size="11.00" fill="#000000">Id</text>
<polygon fill="#ffffff" stroke="transparent" points="412.5,-255.7 412.5,-277.7 537.5,-277.7 537.5,-255.7 412.5,-255.7"/>
<polygon fill="none" stroke="#000000" points="412.5,-255.7 412.5,-277.7 537.5,-277.7 537.5,-255.7 412.5,-255.7"/>
<image xlink:href="../../images/foreignKeys.png" width="11px" height="12px" preserveAspectRatio="xMinYMin meet" x="417.5" y="-272.7"/>
<text text-anchor="start" x="432.5" y="-262.8" font-family="Helvetica,sans-Serif" font-size="11.00" fill="#000000">TechnicalCareerId</text>
<polygon fill="#ffffff" stroke="transparent" points="412.5,-233.7 412.5,-255.7 537.5,-255.7 537.5,-233.7 412.5,-233.7"/>
<polygon fill="none" stroke="#000000" points="412.5,-233.7 412.5,-255.7 537.5,-255.7 537.5,-233.7 412.5,-233.7"/>
<image xlink:href="../../images/foreignKeys.png" width="11px" height="12px" preserveAspectRatio="xMinYMin meet" x="417.5" y="-250.7"/>
<text text-anchor="start" x="432.5" y="-240.8" font-family="Helvetica,sans-Serif" font-size="11.00" fill="#000000">ProfessorId</text>
<polygon fill="#ffffff" stroke="transparent" points="412.5,-211.7 412.5,-233.7 537.5,-233.7 537.5,-211.7 412.5,-211.7"/>
<polygon fill="none" stroke="#000000" points="412.5,-211.7 412.5,-233.7 537.5,-233.7 537.5,-211.7 412.5,-211.7"/>
<image xlink:href="../../images/foreignKeys.png" width="11px" height="12px" preserveAspectRatio="xMinYMin meet" x="417.5" y="-228.7"/>
<text text-anchor="start" x="432.5" y="-218.8" font-family="Helvetica,sans-Serif" font-size="11.00" fill="#000000">CreatedByUserId</text>
<polygon fill="#ffffff" stroke="transparent" points="412.5,-189.7 412.5,-211.7 537.5,-211.7 537.5,-189.7 412.5,-189.7"/>
<polygon fill="none" stroke="#000000" points="412.5,-189.7 412.5,-211.7 537.5,-211.7 537.5,-189.7 412.5,-189.7"/>
<image xlink:href="../../images/foreignKeys.png" width="11px" height="12px" preserveAspectRatio="xMinYMin meet" x="417.5" y="-206.7"/>
<text text-anchor="start" x="432.5" y="-196.8" font-family="Helvetica,sans-Serif" font-size="11.00" fill="#000000">UpdatedByUserId</text>
<polygon fill="none" stroke="#000000" points="412.5,-170.7 412.5,-189.7 537.5,-189.7 537.5,-170.7 412.5,-170.7"/>
<text text-anchor="start" x="415.5" y="-176.8" font-family="Helvetica,sans-Serif" font-size="11.00" fill="#000000">...</text>
<polygon fill="#ffffff" stroke="transparent" points="412.5,-151.7 412.5,-170.7 455.5,-170.7 455.5,-151.7 412.5,-151.7"/>
<polygon fill="none" stroke="#000000" points="412.5,-151.7 412.5,-170.7 455.5,-170.7 455.5,-151.7 412.5,-151.7"/>
<text text-anchor="start" x="415.5" y="-157.8" font-family="Helvetica,sans-Serif" font-size="11.00" fill="#000000">&lt; 4</text>
<polygon fill="#ffffff" stroke="transparent" points="455.5,-151.7 455.5,-170.7 504.5,-170.7 504.5,-151.7 455.5,-151.7"/>
<polygon fill="none" stroke="#000000" points="455.5,-151.7 455.5,-170.7 504.5,-170.7 504.5,-151.7 455.5,-151.7"/>
<text text-anchor="start" x="469.1105" y="-157.8" font-family="Helvetica,sans-Serif" font-size="11.00" fill="#000000">0 rows</text>
<polygon fill="#ffffff" stroke="transparent" points="504.5,-151.7 504.5,-170.7 537.5,-170.7 537.5,-151.7 504.5,-151.7"/>
<polygon fill="none" stroke="#000000" points="504.5,-151.7 504.5,-170.7 537.5,-170.7 537.5,-151.7 504.5,-151.7"/>
<text text-anchor="start" x="518.9053" y="-157.8" font-family="Helvetica,sans-Serif" font-size="11.00" fill="#000000">3 &gt;</text>
</a>
</g>
</g>
<!-- ProfessorCompetencyAssignments&#45;&gt;Subjects -->
<g id="edge9" class="edge">
<title>ProfessorCompetencyAssignments:w&#45;&gt;Subjects:e</title>
<path fill="none" stroke="#000000" d="M574.2198,-368.4189C552.9542,-351.3014 575.1051,-288.7 537.5,-288.7"/>
<polygon fill="#000000" stroke="#000000" points="580.3602,-370.3265 586.9319,-376.1379 584.1801,-371.5133 588,-372.7 588,-372.7 588,-372.7 584.1801,-371.5133 589.0681,-369.2621 580.3602,-370.3265 580.3602,-370.3265"/>
<ellipse fill="none" stroke="#000000" cx="577.3043" cy="-369.3771" rx="3.2" ry="3.2"/>
</g>
<!-- TechnicalCareers -->
<g id="node7" class="node">
<title>TechnicalCareers</title>
<g id="a_node7"><a xlink:href="../../tables/TechnicalCareers.html" xlink:title="TechnicalCareers" target="_top">
<polygon fill="#ffffff" stroke="transparent" points="222,-305.2 222,-432.2 361,-432.2 361,-305.2 222,-305.2"/>
<polygon fill="#f5f5f5" stroke="transparent" points="222.5,-408.7 222.5,-431.7 361.5,-431.7 361.5,-408.7 222.5,-408.7"/>
<polygon fill="none" stroke="#000000" points="222.5,-408.7 222.5,-431.7 361.5,-431.7 361.5,-408.7 222.5,-408.7"/>
<text text-anchor="start" x="227.5" y="-417.3" font-family="Helvetica,sans-Serif" font-weight="bold" font-size="11.00" fill="#000000">TechnicalCareers</text>
<text text-anchor="start" x="327.0219" y="-416.8" font-family="Helvetica,sans-Serif" font-size="11.00" fill="#000000">[table]</text>
<polygon fill="none" stroke="#000000" points="222.5,-386.7 222.5,-408.7 361.5,-408.7 361.5,-386.7 222.5,-386.7"/>
<image xlink:href="../../images/primaryKeys.png" width="11px" height="12px" preserveAspectRatio="xMinYMin meet" x="227.5" y="-403.7"/>
<text text-anchor="start" x="251.5" y="-393.8" font-family="Helvetica,sans-Serif" font-size="11.00" fill="#000000">Id</text>
<polygon fill="#ffffff" stroke="transparent" points="222.5,-364.7 222.5,-386.7 361.5,-386.7 361.5,-364.7 222.5,-364.7"/>
<polygon fill="none" stroke="#000000" points="222.5,-364.7 222.5,-386.7 361.5,-386.7 361.5,-364.7 222.5,-364.7"/>
<image xlink:href="../../images/foreignKeys.png" width="11px" height="12px" preserveAspectRatio="xMinYMin meet" x="227.5" y="-381.7"/>
<text text-anchor="start" x="251.5" y="-371.8" font-family="Helvetica,sans-Serif" font-size="11.00" fill="#000000">CreatedByUserId</text>
<polygon fill="#ffffff" stroke="transparent" points="222.5,-342.7 222.5,-364.7 361.5,-364.7 361.5,-342.7 222.5,-342.7"/>
<polygon fill="none" stroke="#000000" points="222.5,-342.7 222.5,-364.7 361.5,-364.7 361.5,-342.7 222.5,-342.7"/>
<image xlink:href="../../images/foreignKeys.png" width="11px" height="12px" preserveAspectRatio="xMinYMin meet" x="227.5" y="-359.7"/>
<text text-anchor="start" x="251.5" y="-349.8" font-family="Helvetica,sans-Serif" font-size="11.00" fill="#000000">UpdatedByUserId</text>
<polygon fill="none" stroke="#000000" points="222.5,-323.7 222.5,-342.7 361.5,-342.7 361.5,-323.7 222.5,-323.7"/>
<text text-anchor="start" x="225.5" y="-329.8" font-family="Helvetica,sans-Serif" font-size="11.00" fill="#000000">...</text>
<polygon fill="#ffffff" stroke="transparent" points="222.5,-304.7 222.5,-323.7 272.5,-323.7 272.5,-304.7 222.5,-304.7"/>
<polygon fill="none" stroke="#000000" points="222.5,-304.7 222.5,-323.7 272.5,-323.7 272.5,-304.7 222.5,-304.7"/>
<text text-anchor="start" x="225.5" y="-310.8" font-family="Helvetica,sans-Serif" font-size="11.00" fill="#000000">&lt; 2</text>
<polygon fill="#ffffff" stroke="transparent" points="272.5,-304.7 272.5,-323.7 325.5,-323.7 325.5,-304.7 272.5,-304.7"/>
<polygon fill="none" stroke="#000000" points="272.5,-304.7 272.5,-323.7 325.5,-323.7 325.5,-304.7 272.5,-304.7"/>
<text text-anchor="start" x="290.1105" y="-310.8" font-family="Helvetica,sans-Serif" font-size="11.00" fill="#000000">6 rows</text>
<polygon fill="#ffffff" stroke="transparent" points="325.5,-304.7 325.5,-323.7 361.5,-323.7 361.5,-304.7 325.5,-304.7"/>
<polygon fill="none" stroke="#000000" points="325.5,-304.7 325.5,-323.7 361.5,-323.7 361.5,-304.7 325.5,-304.7"/>
<text text-anchor="start" x="342.9053" y="-310.8" font-family="Helvetica,sans-Serif" font-size="11.00" fill="#000000">6 &gt;</text>
</a>
</g>
</g>
<!-- ProfessorCompetencyAssignments&#45;&gt;TechnicalCareers -->
<g id="edge10" class="edge">
<title>ProfessorCompetencyAssignments:w&#45;&gt;TechnicalCareers:e</title>
<path fill="none" stroke="#000000" d="M573.5032,-569.8902C463.2319,-557.1238 483.0997,-397.7 361.5,-397.7"/>
<polygon fill="#000000" stroke="#000000" points="580.0125,-570.2538 587.7992,-574.2944 584.0062,-570.4769 588,-570.7 588,-570.7 588,-570.7 584.0062,-570.4769 588.2008,-567.1056 580.0125,-570.2538 580.0125,-570.2538"/>
<ellipse fill="none" stroke="#000000" cx="576.8174" cy="-570.0753" rx="3.2" ry="3.2"/>
</g>
<!-- Professors&#45;&gt;AspNetUsers -->
<g id="edge12" class="edge">
<title>Professors:w&#45;&gt;AspNetUsers:e</title>
<path fill="none" stroke="#000000" d="M231.1533,-251.0298C184.0288,-264.4959 231.683,-375.7 171.5,-375.7"/>
<polygon fill="#000000" stroke="#000000" points="240.1966,-245.8346 241.2165,-253.7694 239.6295,-253.9733 238.6096,-246.0386 240.1966,-245.8346"/>
<polyline fill="none" stroke="#000000" points="241.5,-249.7 237.5326,-250.2099 "/>
<ellipse fill="none" stroke="#000000" cx="234.3587" cy="-250.6179" rx="3.2" ry="3.2"/>
</g>
<!-- Subjects&#45;&gt;AspNetUsers -->
<g id="edge17" class="edge">
<title>Subjects:w&#45;&gt;AspNetUsers:e</title>
<path fill="none" stroke="#000000" d="M398.6887,-218.2938C389.4212,-210.8888 387.1901,-196.2171 371,-190.7 304.1105,-167.906 267.0532,-146.3952 212,-190.7 146.4274,-243.4705 255.6694,-375.7 171.5,-375.7"/>
<polygon fill="#000000" stroke="#000000" points="404.8785,-220.2685 411.4058,-226.1297 408.6892,-221.4842 412.5,-222.7 412.5,-222.7 412.5,-222.7 408.6892,-221.4842 413.5942,-219.2703 404.8785,-220.2685 404.8785,-220.2685"/>
<ellipse fill="none" stroke="#000000" cx="401.8298" cy="-219.2959" rx="3.2" ry="3.2"/>
</g>
<!-- Subjects&#45;&gt;AspNetUsers -->
<g id="edge20" class="edge">
<title>Subjects:w&#45;&gt;AspNetUsers:e</title>
<path fill="none" stroke="#000000" d="M398.6467,-195.9171C388.9308,-187.1332 388.6488,-168.6914 371,-161.7 305.3006,-135.6737 266.4168,-116.6158 212,-161.7 137.4597,-223.4565 268.2994,-375.7 171.5,-375.7"/>
<polygon fill="#000000" stroke="#000000" points="404.938,-198.0892 411.3251,-204.1029 408.719,-199.3946 412.5,-200.7 412.5,-200.7 412.5,-200.7 408.719,-199.3946 413.6749,-197.2971 404.938,-198.0892 404.938,-198.0892"/>
<ellipse fill="none" stroke="#000000" cx="401.9132" cy="-197.0448" rx="3.2" ry="3.2"/>
</g>
<!-- Subjects&#45;&gt;Professors -->
<g id="edge18" class="edge">
<title>Subjects:w&#45;&gt;Professors:e</title>
<path fill="none" stroke="#000000" d="M397.9809,-245.1092C377.9027,-246.3033 368.2077,-249.7 342.5,-249.7"/>
<polygon fill="#000000" stroke="#000000" points="404.5032,-244.9254 412.6014,-248.2986 408.5016,-244.8127 412.5,-244.7 412.5,-244.7 412.5,-244.7 408.5016,-244.8127 412.3986,-241.1014 404.5032,-244.9254 404.5032,-244.9254"/>
<ellipse fill="none" stroke="#000000" cx="401.3044" cy="-245.0156" rx="3.2" ry="3.2"/>
</g>
<!-- Subjects&#45;&gt;TechnicalCareers -->
<g id="edge19" class="edge">
<title>Subjects:w&#45;&gt;TechnicalCareers:e</title>
<path fill="none" stroke="#000000" d="M398.3004,-269.9382C362.6891,-290.1111 418.1214,-397.7 361.5,-397.7"/>
<polygon fill="#000000" stroke="#000000" points="404.7002,-268.4788 413.3005,-270.2099 408.6001,-267.5894 412.5,-266.7 412.5,-266.7 412.5,-266.7 408.6001,-267.5894 411.6995,-263.1901 404.7002,-268.4788 404.7002,-268.4788"/>
<ellipse fill="none" stroke="#000000" cx="401.5803" cy="-269.1903" rx="3.2" ry="3.2"/>
</g>
<!-- TechnicalCareers&#45;&gt;AspNetUsers -->
<g id="edge21" class="edge">
<title>TechnicalCareers:w&#45;&gt;AspNetUsers:e</title>
<path fill="none" stroke="#000000" d="M207.776,-375.7C195.7815,-375.7 188.3229,-375.7 171.5,-375.7"/>
<polygon fill="#000000" stroke="#000000" points="214.5,-375.7001 222.5,-379.3 218.5,-375.7 222.5,-375.7 222.5,-375.7 222.5,-375.7 218.5,-375.7 222.5,-372.1 214.5,-375.7001 214.5,-375.7001"/>
<ellipse fill="none" stroke="#000000" cx="211.3" cy="-375.7001" rx="3.2" ry="3.2"/>
</g>
<!-- TechnicalCareers&#45;&gt;AspNetUsers -->
<g id="edge22" class="edge">
<title>TechnicalCareers:w&#45;&gt;AspNetUsers:e</title>
<path fill="none" stroke="#000000" d="M208.3489,-356.759C195.7843,-362.804 190.4,-375.7 171.5,-375.7"/>
<polygon fill="#000000" stroke="#000000" points="214.6806,-355.3903 223.2607,-357.2187 218.5903,-354.5452 222.5,-353.7 222.5,-353.7 222.5,-353.7 218.5903,-354.5452 221.7393,-350.1813 214.6806,-355.3903 214.6806,-355.3903"/>
<ellipse fill="none" stroke="#000000" cx="211.5528" cy="-356.0665" rx="3.2" ry="3.2"/>
</g>
<!-- StudentCompetencyEvaluations -->
<g id="node8" class="node">
<title>StudentCompetencyEvaluations</title>
<g id="a_node8"><a xlink:href="../../tables/StudentCompetencyEvaluations.html" xlink:title="StudentCompetencyEvaluations" target="_top">
<polygon fill="#ffffff" stroke="transparent" points="957,-38.2 957,-231.2 1185,-231.2 1185,-38.2 957,-38.2"/>
<polygon fill="#f5f5f5" stroke="transparent" points="957,-207.7 957,-230.7 1185,-230.7 1185,-207.7 957,-207.7"/>
<polygon fill="none" stroke="#000000" points="957,-207.7 957,-230.7 1185,-230.7 1185,-207.7 957,-207.7"/>
<text text-anchor="start" x="962" y="-216.3" font-family="Helvetica,sans-Serif" font-weight="bold" font-size="11.00" fill="#000000">StudentCompetencyEvaluations</text>
<text text-anchor="start" x="1150.0437" y="-215.8" font-family="Helvetica,sans-Serif" font-size="11.00" fill="#000000">[table]</text>
<polygon fill="none" stroke="#000000" points="957,-185.7 957,-207.7 1185,-207.7 1185,-185.7 957,-185.7"/>
<image xlink:href="../../images/primaryKeys.png" width="11px" height="12px" preserveAspectRatio="xMinYMin meet" x="962" y="-202.7"/>
<text text-anchor="start" x="977" y="-192.8" font-family="Helvetica,sans-Serif" font-size="11.00" fill="#000000">Id</text>
<polygon fill="#ffffff" stroke="transparent" points="957,-163.7 957,-185.7 1185,-185.7 1185,-163.7 957,-163.7"/>
<polygon fill="none" stroke="#000000" points="957,-163.7 957,-185.7 1185,-185.7 1185,-163.7 957,-163.7"/>
<image xlink:href="../../images/foreignKeys.png" width="11px" height="12px" preserveAspectRatio="xMinYMin meet" x="962" y="-180.7"/>
<text text-anchor="start" x="977" y="-170.8" font-family="Helvetica,sans-Serif" font-size="11.00" fill="#000000">ProfessorCompetencyAssignmentId</text>
<polygon fill="#ffffff" stroke="transparent" points="957,-141.7 957,-163.7 1185,-163.7 1185,-141.7 957,-141.7"/>
<polygon fill="none" stroke="#000000" points="957,-141.7 957,-163.7 1185,-163.7 1185,-141.7 957,-141.7"/>
<image xlink:href="../../images/foreignKeys.png" width="11px" height="12px" preserveAspectRatio="xMinYMin meet" x="962" y="-158.7"/>
<text text-anchor="start" x="977" y="-148.8" font-family="Helvetica,sans-Serif" font-size="11.00" fill="#000000">StudentId</text>
<polygon fill="#ffffff" stroke="transparent" points="957,-119.7 957,-141.7 1185,-141.7 1185,-119.7 957,-119.7"/>
<polygon fill="none" stroke="#000000" points="957,-119.7 957,-141.7 1185,-141.7 1185,-119.7 957,-119.7"/>
<image xlink:href="../../images/foreignKeys.png" width="11px" height="12px" preserveAspectRatio="xMinYMin meet" x="962" y="-136.7"/>
<text text-anchor="start" x="977" y="-126.8" font-family="Helvetica,sans-Serif" font-size="11.00" fill="#000000">CreatedByUserId</text>
<polygon fill="#ffffff" stroke="transparent" points="957,-97.7 957,-119.7 1185,-119.7 1185,-97.7 957,-97.7"/>
<polygon fill="none" stroke="#000000" points="957,-97.7 957,-119.7 1185,-119.7 1185,-97.7 957,-97.7"/>
<image xlink:href="../../images/foreignKeys.png" width="11px" height="12px" preserveAspectRatio="xMinYMin meet" x="962" y="-114.7"/>
<text text-anchor="start" x="977" y="-104.8" font-family="Helvetica,sans-Serif" font-size="11.00" fill="#000000">UpdatedByUserId</text>
<polygon fill="#ffffff" stroke="transparent" points="957,-75.7 957,-97.7 1185,-97.7 1185,-75.7 957,-75.7"/>
<polygon fill="none" stroke="#000000" points="957,-75.7 957,-97.7 1185,-97.7 1185,-75.7 957,-75.7"/>
<image xlink:href="../../images/foreignKeys.png" width="11px" height="12px" preserveAspectRatio="xMinYMin meet" x="962" y="-92.7"/>
<text text-anchor="start" x="977" y="-82.8" font-family="Helvetica,sans-Serif" font-size="11.00" fill="#000000">SubjectId</text>
<polygon fill="none" stroke="#000000" points="957,-56.7 957,-75.7 1185,-75.7 1185,-56.7 957,-56.7"/>
<text text-anchor="start" x="960" y="-62.8" font-family="Helvetica,sans-Serif" font-size="11.00" fill="#000000">...</text>
<polygon fill="#ffffff" stroke="transparent" points="957,-37.7 957,-56.7 1052,-56.7 1052,-37.7 957,-37.7"/>
<polygon fill="none" stroke="#000000" points="957,-37.7 957,-56.7 1052,-56.7 1052,-37.7 957,-37.7"/>
<text text-anchor="start" x="960" y="-43.8" font-family="Helvetica,sans-Serif" font-size="11.00" fill="#000000">&lt; 5</text>
<polygon fill="#ffffff" stroke="transparent" points="1052,-37.7 1052,-56.7 1127,-56.7 1127,-37.7 1052,-37.7"/>
<polygon fill="none" stroke="#000000" points="1052,-37.7 1052,-56.7 1127,-56.7 1127,-37.7 1052,-37.7"/>
<text text-anchor="start" x="1091.6105" y="-43.8" font-family="Helvetica,sans-Serif" font-size="11.00" fill="#000000">0 rows</text>
<polygon fill="#ffffff" stroke="transparent" points="1127,-37.7 1127,-56.7 1185,-56.7 1185,-37.7 1127,-37.7"/>
<polygon fill="none" stroke="#000000" points="1127,-37.7 1127,-56.7 1185,-56.7 1185,-37.7 1127,-37.7"/>
<text text-anchor="start" x="1166.4053" y="-43.8" font-family="Helvetica,sans-Serif" font-size="11.00" fill="#000000">1 &gt;</text>
</a>
</g>
</g>
<!-- StudentCompetencyEvaluations&#45;&gt;AspNetUsers -->
<g id="edge13" class="edge">
<title>StudentCompetencyEvaluations:w&#45;&gt;AspNetUsers:e</title>
<path fill="none" stroke="#000000" d="M942.5212,-130.4646C766.464,-125.0623 334.6326,-29.4606 212,-133.7 170.455,-169.0138 226.0257,-375.7 171.5,-375.7"/>
<polygon fill="#000000" stroke="#000000" points="949.0011,-130.5699 956.9415,-134.2995 953.0005,-130.6349 957,-130.7 957,-130.7 957,-130.7 953.0005,-130.6349 957.0585,-127.1005 949.0011,-130.5699 949.0011,-130.5699"/>
<ellipse fill="none" stroke="#000000" cx="945.8015" cy="-130.5179" rx="3.2" ry="3.2"/>
</g>
<!-- StudentCompetencyEvaluations&#45;&gt;AspNetUsers -->
<g id="edge16" class="edge">
<title>StudentCompetencyEvaluations:w&#45;&gt;AspNetUsers:e</title>
<path fill="none" stroke="#000000" d="M942.9216,-104.9966C934.4046,-99.7373 930.0777,-90.3394 916,-86.7 756.3449,-45.426 709.9001,-82.8111 545,-81.7 482.3348,-81.2777 466.6658,-81.3736 404,-81.7 318.6632,-82.1445 276.062,-27.3207 212,-83.7 162.8225,-126.9798 237.0101,-375.7 171.5,-375.7"/>
<polygon fill="#000000" stroke="#000000" points="949.2632,-106.6648 956.0841,-112.1816 953.1316,-107.6824 957,-108.7 957,-108.7 957,-108.7 953.1316,-107.6824 957.9159,-105.2184 949.2632,-106.6648 949.2632,-106.6648"/>
<ellipse fill="none" stroke="#000000" cx="946.1685" cy="-105.8507" rx="3.2" ry="3.2"/>
</g>
<!-- StudentCompetencyEvaluations&#45;&gt;ProfessorCompetencyAssignments -->
<g id="edge14" class="edge">
<title>StudentCompetencyEvaluations:w&#45;&gt;ProfessorCompetencyAssignments:e</title>
<path fill="none" stroke="#000000" d="M942.8245,-178.8371C878.5893,-222.2493 994.0947,-592.7 906,-592.7"/>
<polygon fill="#000000" stroke="#000000" points="949.3204,-176.9413 958.0086,-178.1558 953.1602,-175.8207 957,-174.7 957,-174.7 957,-174.7 953.1602,-175.8207 955.9914,-171.2442 949.3204,-176.9413 949.3204,-176.9413"/>
<ellipse fill="none" stroke="#000000" cx="946.2485" cy="-177.8379" rx="3.2" ry="3.2"/>
</g>
<!-- StudentCompetencyEvaluations&#45;&gt;Subjects -->
<g id="edge15" class="edge">
<title>StudentCompetencyEvaluations:w&#45;&gt;Subjects:e</title>
<path fill="none" stroke="#000000" d="M942.487,-87.0414C749.6815,-96.2504 739.4827,-288.7 537.5,-288.7"/>
<polygon fill="#000000" stroke="#000000" points="949.0022,-86.8882 957.0847,-90.299 953.0011,-86.7941 957,-86.7 957,-86.7 957,-86.7 953.0011,-86.7941 956.9153,-83.101 949.0022,-86.8882 949.0022,-86.8882"/>
<ellipse fill="none" stroke="#000000" cx="945.8031" cy="-86.9634" rx="3.2" ry="3.2"/>
</g>
</g>
</svg>
