<?xml version="1.0" encoding="UTF-8" standalone="no"?>
<!DOCTYPE svg PUBLIC "-//W3C//DTD SVG 1.1//EN"
 "http://www.w3.org/Graphics/SVG/1.1/DTD/svg11.dtd">
<!-- Generated by graphviz version 2.40.1 (20161225.0304)
 -->
<!-- Title: oneDegreeRelationshipsDiagram Pages: 1 -->
<svg width="704pt" height="457pt"
 viewBox="0.00 0.00 704.00 457.20" xmlns="http://www.w3.org/2000/svg" xmlns:xlink="http://www.w3.org/1999/xlink">
<g id="graph0" class="graph" transform="scale(1 1) rotate(0) translate(4 453.2)">
<title>oneDegreeRelationshipsDiagram</title>
<polygon fill="#ffffff" stroke="transparent" points="-4,4 -4,-453.2 700,-453.2 700,4 -4,4"/>
<text text-anchor="middle" x="72.4936" y="-7.3" font-family="Helvetica,sans-Serif" font-size="11.00" fill="#000000">Generated by SchemaSpy</text>
<!-- ProfessorCompetencyAssignments -->
<g id="node1" class="node">
<title>ProfessorCompetencyAssignments</title>
<g id="a_node1"><a xlink:href="../../tables/ProfessorCompetencyAssignments.html" xlink:title="ProfessorCompetencyAssignments" target="_top">
<polygon fill="#ffffff" stroke="transparent" points="446,-230.2 446,-445.2 688,-445.2 688,-230.2 446,-230.2"/>
<polygon fill="#f5f5f5" stroke="transparent" points="446,-421.7 446,-444.7 688,-444.7 688,-421.7 446,-421.7"/>
<polygon fill="none" stroke="#000000" points="446,-421.7 446,-444.7 688,-444.7 688,-421.7 446,-421.7"/>
<text text-anchor="start" x="451" y="-430.3" font-family="Helvetica,sans-Serif" font-weight="bold" font-size="11.00" fill="#000000">ProfessorCompetencyAssignments</text>
<text text-anchor="start" x="653.5219" y="-429.8" font-family="Helvetica,sans-Serif" font-size="11.00" fill="#000000">[table]</text>
<polygon fill="none" stroke="#000000" points="446,-399.7 446,-421.7 688,-421.7 688,-399.7 446,-399.7"/>
<image xlink:href="../../images/primaryKeys.png" width="11px" height="12px" preserveAspectRatio="xMinYMin meet" x="451" y="-416.7"/>
<text text-anchor="start" x="475" y="-406.8" font-family="Helvetica,sans-Serif" font-size="11.00" fill="#000000">Id</text>
<polygon fill="#ffffff" stroke="transparent" points="446,-377.7 446,-399.7 688,-399.7 688,-377.7 446,-377.7"/>
<polygon fill="none" stroke="#000000" points="446,-377.7 446,-399.7 688,-399.7 688,-377.7 446,-377.7"/>
<image xlink:href="../../images/foreignKeys.png" width="11px" height="12px" preserveAspectRatio="xMinYMin meet" x="451" y="-394.7"/>
<text text-anchor="start" x="475" y="-384.8" font-family="Helvetica,sans-Serif" font-size="11.00" fill="#000000">ProfessorId</text>
<polygon fill="#ffffff" stroke="transparent" points="446,-355.7 446,-377.7 688,-377.7 688,-355.7 446,-355.7"/>
<polygon fill="none" stroke="#000000" points="446,-355.7 446,-377.7 688,-377.7 688,-355.7 446,-355.7"/>
<image xlink:href="../../images/foreignKeys.png" width="11px" height="12px" preserveAspectRatio="xMinYMin meet" x="451" y="-372.7"/>
<text text-anchor="start" x="475" y="-362.8" font-family="Helvetica,sans-Serif" font-size="11.00" fill="#000000">TechnicalCareerId</text>
<polygon fill="#ffffff" stroke="transparent" points="446,-333.7 446,-355.7 688,-355.7 688,-333.7 446,-333.7"/>
<polygon fill="none" stroke="#000000" points="446,-333.7 446,-355.7 688,-355.7 688,-333.7 446,-333.7"/>
<image xlink:href="../../images/foreignKeys.png" width="11px" height="12px" preserveAspectRatio="xMinYMin meet" x="451" y="-350.7"/>
<text text-anchor="start" x="475" y="-340.8" font-family="Helvetica,sans-Serif" font-size="11.00" fill="#000000">CompetencyId</text>
<polygon fill="#ffffff" stroke="transparent" points="446,-311.7 446,-333.7 688,-333.7 688,-311.7 446,-311.7"/>
<polygon fill="none" stroke="#000000" points="446,-311.7 446,-333.7 688,-333.7 688,-311.7 446,-311.7"/>
<image xlink:href="../../images/foreignKeys.png" width="11px" height="12px" preserveAspectRatio="xMinYMin meet" x="451" y="-328.7"/>
<text text-anchor="start" x="475" y="-318.8" font-family="Helvetica,sans-Serif" font-size="11.00" fill="#000000">EvaluationPeriodId</text>
<polygon fill="#ffffff" stroke="transparent" points="446,-289.7 446,-311.7 688,-311.7 688,-289.7 446,-289.7"/>
<polygon fill="none" stroke="#000000" points="446,-289.7 446,-311.7 688,-311.7 688,-289.7 446,-289.7"/>
<image xlink:href="../../images/foreignKeys.png" width="11px" height="12px" preserveAspectRatio="xMinYMin meet" x="451" y="-306.7"/>
<text text-anchor="start" x="475" y="-296.8" font-family="Helvetica,sans-Serif" font-size="11.00" fill="#000000">CreatedByUserId</text>
<polygon fill="#ffffff" stroke="transparent" points="446,-267.7 446,-289.7 688,-289.7 688,-267.7 446,-267.7"/>
<polygon fill="none" stroke="#000000" points="446,-267.7 446,-289.7 688,-289.7 688,-267.7 446,-267.7"/>
<image xlink:href="../../images/foreignKeys.png" width="11px" height="12px" preserveAspectRatio="xMinYMin meet" x="451" y="-284.7"/>
<text text-anchor="start" x="475" y="-274.8" font-family="Helvetica,sans-Serif" font-size="11.00" fill="#000000">UpdatedByUserId</text>
<polygon fill="none" stroke="#000000" points="446,-248.7 446,-267.7 688,-267.7 688,-248.7 446,-248.7"/>
<text text-anchor="start" x="449" y="-254.8" font-family="Helvetica,sans-Serif" font-size="11.00" fill="#000000">...</text>
<polygon fill="#ffffff" stroke="transparent" points="446,-229.7 446,-248.7 548,-248.7 548,-229.7 446,-229.7"/>
<polygon fill="none" stroke="#000000" points="446,-229.7 446,-248.7 548,-248.7 548,-229.7 446,-229.7"/>
<text text-anchor="start" x="449" y="-235.8" font-family="Helvetica,sans-Serif" font-size="11.00" fill="#000000">&lt; 6</text>
<polygon fill="#ffffff" stroke="transparent" points="548,-229.7 548,-248.7 626,-248.7 626,-229.7 548,-229.7"/>
<polygon fill="none" stroke="#000000" points="548,-229.7 548,-248.7 626,-248.7 626,-229.7 548,-229.7"/>
<text text-anchor="start" x="590.6105" y="-235.8" font-family="Helvetica,sans-Serif" font-size="11.00" fill="#000000">0 rows</text>
<polygon fill="#ffffff" stroke="transparent" points="626,-229.7 626,-248.7 688,-248.7 688,-229.7 626,-229.7"/>
<polygon fill="none" stroke="#000000" points="626,-229.7 626,-248.7 688,-248.7 688,-229.7 626,-229.7"/>
<text text-anchor="start" x="669.4053" y="-235.8" font-family="Helvetica,sans-Serif" font-size="11.00" fill="#000000">1 &gt;</text>
</a>
</g>
</g>
<!-- AspNetUsers -->
<g id="node2" class="node">
<title>AspNetUsers</title>
<g id="a_node2"><a xlink:href="../../tables/AspNetUsers.html" xlink:title="AspNetUsers" target="_top">
<polygon fill="#ffffff" stroke="transparent" points="8,-66.2 8,-193.2 171,-193.2 171,-66.2 8,-66.2"/>
<polygon fill="#f5f5f5" stroke="transparent" points="8.5,-169.7 8.5,-192.7 171.5,-192.7 171.5,-169.7 8.5,-169.7"/>
<polygon fill="none" stroke="#000000" points="8.5,-169.7 8.5,-192.7 171.5,-192.7 171.5,-169.7 8.5,-169.7"/>
<text text-anchor="start" x="13.5" y="-178.3" font-family="Helvetica,sans-Serif" font-weight="bold" font-size="11.00" fill="#000000">AspNetUsers</text>
<text text-anchor="start" x="136.5437" y="-177.8" font-family="Helvetica,sans-Serif" font-size="11.00" fill="#000000">[table]</text>
<polygon fill="none" stroke="#000000" points="8.5,-147.7 8.5,-169.7 171.5,-169.7 171.5,-147.7 8.5,-147.7"/>
<image xlink:href="../../images/primaryKeys.png" width="11px" height="12px" preserveAspectRatio="xMinYMin meet" x="13.5" y="-164.7"/>
<text text-anchor="start" x="28.5" y="-154.8" font-family="Helvetica,sans-Serif" font-size="11.00" fill="#000000">Id</text>
<polygon fill="#ffffff" stroke="transparent" points="8.5,-125.7 8.5,-147.7 171.5,-147.7 171.5,-125.7 8.5,-125.7"/>
<polygon fill="none" stroke="#000000" points="8.5,-125.7 8.5,-147.7 171.5,-147.7 171.5,-125.7 8.5,-125.7"/>
<text text-anchor="start" x="28.5" y="-132.8" font-family="Helvetica,sans-Serif" font-size="11.00" fill="#000000">NormalizedUserName</text>
<polygon fill="#ffffff" stroke="transparent" points="8.5,-103.7 8.5,-125.7 171.5,-125.7 171.5,-103.7 8.5,-103.7"/>
<polygon fill="none" stroke="#000000" points="8.5,-103.7 8.5,-125.7 171.5,-125.7 171.5,-103.7 8.5,-103.7"/>
<text text-anchor="start" x="28.5" y="-110.8" font-family="Helvetica,sans-Serif" font-size="11.00" fill="#000000">NormalizedEmail</text>
<polygon fill="none" stroke="#000000" points="8.5,-84.7 8.5,-103.7 171.5,-103.7 171.5,-84.7 8.5,-84.7"/>
<text text-anchor="start" x="11.5" y="-90.8" font-family="Helvetica,sans-Serif" font-size="11.00" fill="#000000">...</text>
<polygon fill="#ffffff" stroke="transparent" points="8.5,-65.7 8.5,-84.7 63.5,-84.7 63.5,-65.7 8.5,-65.7"/>
<polygon fill="none" stroke="#000000" points="8.5,-65.7 8.5,-84.7 63.5,-84.7 63.5,-65.7 8.5,-65.7"/>
<text text-anchor="start" x="11.5" y="-71.8" font-family="Helvetica,sans-Serif" font-size="11.00" fill="#000000"> &#160;</text>
<polygon fill="#ffffff" stroke="transparent" points="63.5,-65.7 63.5,-84.7 122.5,-84.7 122.5,-65.7 63.5,-65.7"/>
<polygon fill="none" stroke="#000000" points="63.5,-65.7 63.5,-84.7 122.5,-84.7 122.5,-65.7 63.5,-65.7"/>
<text text-anchor="start" x="87.1105" y="-71.8" font-family="Helvetica,sans-Serif" font-size="11.00" fill="#000000">0 rows</text>
<polygon fill="#ffffff" stroke="transparent" points="122.5,-65.7 122.5,-84.7 171.5,-84.7 171.5,-65.7 122.5,-65.7"/>
<polygon fill="none" stroke="#000000" points="122.5,-65.7 122.5,-84.7 171.5,-84.7 171.5,-65.7 122.5,-65.7"/>
<text text-anchor="start" x="146.7904" y="-71.8" font-family="Helvetica,sans-Serif" font-size="11.00" fill="#000000">29 &gt;</text>
</a>
</g>
</g>
<!-- ProfessorCompetencyAssignments&#45;&gt;AspNetUsers -->
<g id="edge1" class="edge">
<title>ProfessorCompetencyAssignments:w&#45;&gt;AspNetUsers:e</title>
<path fill="none" stroke="#000000" d="M431.4098,-301.0078C337.0849,-304.9751 290.1288,-344.964 212,-283.7 166.0448,-247.6647 229.8988,-158.7 171.5,-158.7"/>
<polygon fill="#000000" stroke="#000000" points="438.0018,-300.8688 446.076,-304.2992 442.0009,-300.7844 446,-300.7 446,-300.7 446,-300.7 442.0009,-300.7844 445.924,-297.1008 438.0018,-300.8688 438.0018,-300.8688"/>
<ellipse fill="none" stroke="#000000" cx="434.8025" cy="-300.9363" rx="3.2" ry="3.2"/>
</g>
<!-- ProfessorCompetencyAssignments&#45;&gt;AspNetUsers -->
<g id="edge3" class="edge">
<title>ProfessorCompetencyAssignments:w&#45;&gt;AspNetUsers:e</title>
<path fill="none" stroke="#000000" d="M431.744,-275.5653C406.3347,-260.924 440.8518,-198.8844 405,-172.7 321.0435,-111.3823 275.4641,-158.7 171.5,-158.7"/>
<polygon fill="#000000" stroke="#000000" points="438.1867,-276.9819 445.2269,-282.216 442.0933,-277.8409 446,-278.7 446,-278.7 446,-278.7 442.0933,-277.8409 446.7731,-275.184 438.1867,-276.9819 438.1867,-276.9819"/>
<ellipse fill="none" stroke="#000000" cx="435.0613" cy="-276.2946" rx="3.2" ry="3.2"/>
</g>
<!-- Professors -->
<g id="node3" class="node">
<title>Professors</title>
<g id="a_node3"><a xlink:href="../../tables/Professors.html" xlink:title="Professors" target="_top">
<polygon fill="#ffffff" stroke="transparent" points="220,-182.7 220,-272.7 397,-272.7 397,-182.7 220,-182.7"/>
<polygon fill="#f5f5f5" stroke="transparent" points="222.5,-247.7 222.5,-270.7 395.5,-270.7 395.5,-247.7 222.5,-247.7"/>
<polygon fill="none" stroke="#000000" points="222.5,-247.7 222.5,-270.7 395.5,-270.7 395.5,-247.7 222.5,-247.7"/>
<text text-anchor="start" x="227.5" y="-256.3" font-family="Helvetica,sans-Serif" font-weight="bold" font-size="11.00" fill="#000000">Professors</text>
<text text-anchor="start" x="360.5437" y="-255.8" font-family="Helvetica,sans-Serif" font-size="11.00" fill="#000000">[table]</text>
<polygon fill="none" stroke="#000000" points="222.5,-225.7 222.5,-247.7 305.5,-247.7 305.5,-225.7 222.5,-225.7"/>
<image xlink:href="../../images/primaryKeys.png" width="11px" height="12px" preserveAspectRatio="xMinYMin meet" x="227.5" y="-242.7"/>
<text text-anchor="start" x="242.5" y="-232.8" font-family="Helvetica,sans-Serif" font-size="11.00" fill="#000000">UserId</text>
<polygon fill="none" stroke="#000000" points="305.5,-225.7 305.5,-247.7 395.5,-247.7 395.5,-225.7 305.5,-225.7"/>
<text text-anchor="start" x="308.0043" y="-233.4" font-family="Helvetica,sans-Serif" font-size="11.00" fill="#000000">text[2147483647]</text>
<polygon fill="none" stroke="#000000" points="222.5,-203.7 222.5,-225.7 305.5,-225.7 305.5,-203.7 222.5,-203.7"/>
<text text-anchor="start" x="242.5" y="-210.8" font-family="Helvetica,sans-Serif" font-size="11.00" fill="#000000">Phone</text>
<polygon fill="none" stroke="#000000" points="305.5,-203.7 305.5,-225.7 395.5,-225.7 395.5,-203.7 305.5,-203.7"/>
<text text-anchor="start" x="308.0043" y="-211.4" font-family="Helvetica,sans-Serif" font-size="11.00" fill="#000000">text[2147483647]</text>
<polygon fill="#ffffff" stroke="transparent" points="222.5,-184.7 222.5,-203.7 255.5,-203.7 255.5,-184.7 222.5,-184.7"/>
<polygon fill="none" stroke="#000000" points="222.5,-184.7 222.5,-203.7 255.5,-203.7 255.5,-184.7 222.5,-184.7"/>
<text text-anchor="start" x="225.5" y="-190.8" font-family="Helvetica,sans-Serif" font-size="11.00" fill="#000000">&lt; 1</text>
<polygon fill="#ffffff" stroke="transparent" points="255.5,-184.7 255.5,-203.7 305.5,-203.7 305.5,-184.7 255.5,-184.7"/>
<polygon fill="none" stroke="#000000" points="255.5,-184.7 255.5,-203.7 305.5,-203.7 305.5,-184.7 255.5,-184.7"/>
<text text-anchor="start" x="270.1105" y="-190.8" font-family="Helvetica,sans-Serif" font-size="11.00" fill="#000000">0 rows</text>
<polygon fill="#ffffff" stroke="transparent" points="305.5,-184.7 305.5,-203.7 395.5,-203.7 395.5,-184.7 305.5,-184.7"/>
<polygon fill="none" stroke="#000000" points="305.5,-184.7 305.5,-203.7 395.5,-203.7 395.5,-184.7 305.5,-184.7"/>
<text text-anchor="start" x="376.9053" y="-190.8" font-family="Helvetica,sans-Serif" font-size="11.00" fill="#000000">2 &gt;</text>
<polygon fill="none" stroke="#000000" stroke-width="2" points="221,-183.7 221,-271.7 396,-271.7 396,-183.7 221,-183.7"/>
</a>
</g>
</g>
<!-- ProfessorCompetencyAssignments&#45;&gt;Professors -->
<g id="edge2" class="edge">
<title>ProfessorCompetencyAssignments:w&#45;&gt;Professors:e</title>
<path fill="none" stroke="#000000" d="M431.868,-385.932C388.482,-365.331 460.9859,-236.7 395.5,-236.7"/>
<polygon fill="#000000" stroke="#000000" points="438.1492,-387.1622 445.308,-392.2329 442.0746,-387.9311 446,-388.7 446,-388.7 446,-388.7 442.0746,-387.9311 446.692,-385.1671 438.1492,-387.1622 438.1492,-387.1622"/>
<ellipse fill="none" stroke="#000000" cx="435.0088" cy="-386.5471" rx="3.2" ry="3.2"/>
</g>
<!-- Professors&#45;&gt;AspNetUsers -->
<g id="edge4" class="edge">
<title>Professors:w&#45;&gt;AspNetUsers:e</title>
<path fill="none" stroke="#000000" d="M211.9935,-234.4497C186.7923,-221.6608 208.7126,-158.7 171.5,-158.7"/>
<polygon fill="#000000" stroke="#000000" points="222.5555,-232.6212 220.88,-240.4437 219.3155,-240.1086 220.991,-232.2861 222.5555,-232.6212"/>
<polyline fill="none" stroke="#000000" points="222.5,-236.7 218.5887,-235.8623 "/>
<ellipse fill="none" stroke="#000000" cx="215.4597" cy="-235.1921" rx="3.2" ry="3.2"/>
</g>
<!-- Subjects -->
<g id="node4" class="node">
<title>Subjects</title>
<g id="a_node4"><a xlink:href="../../tables/Subjects.html" xlink:title="Subjects" target="_top">
<polygon fill="#ffffff" stroke="transparent" points="504.5,-38.2 504.5,-209.2 629.5,-209.2 629.5,-38.2 504.5,-38.2"/>
<polygon fill="#f5f5f5" stroke="transparent" points="505,-185.7 505,-208.7 630,-208.7 630,-185.7 505,-185.7"/>
<polygon fill="none" stroke="#000000" points="505,-185.7 505,-208.7 630,-208.7 630,-185.7 505,-185.7"/>
<text text-anchor="start" x="510" y="-194.3" font-family="Helvetica,sans-Serif" font-weight="bold" font-size="11.00" fill="#000000">Subjects</text>
<text text-anchor="start" x="595.0437" y="-193.8" font-family="Helvetica,sans-Serif" font-size="11.00" fill="#000000">[table]</text>
<polygon fill="none" stroke="#000000" points="505,-163.7 505,-185.7 630,-185.7 630,-163.7 505,-163.7"/>
<image xlink:href="../../images/primaryKeys.png" width="11px" height="12px" preserveAspectRatio="xMinYMin meet" x="510" y="-180.7"/>
<text text-anchor="start" x="525" y="-170.8" font-family="Helvetica,sans-Serif" font-size="11.00" fill="#000000">Id</text>
<polygon fill="#ffffff" stroke="transparent" points="505,-141.7 505,-163.7 630,-163.7 630,-141.7 505,-141.7"/>
<polygon fill="none" stroke="#000000" points="505,-141.7 505,-163.7 630,-163.7 630,-141.7 505,-141.7"/>
<image xlink:href="../../images/foreignKeys.png" width="11px" height="12px" preserveAspectRatio="xMinYMin meet" x="510" y="-158.7"/>
<text text-anchor="start" x="525" y="-148.8" font-family="Helvetica,sans-Serif" font-size="11.00" fill="#000000">TechnicalCareerId</text>
<polygon fill="#ffffff" stroke="transparent" points="505,-119.7 505,-141.7 630,-141.7 630,-119.7 505,-119.7"/>
<polygon fill="none" stroke="#000000" points="505,-119.7 505,-141.7 630,-141.7 630,-119.7 505,-119.7"/>
<image xlink:href="../../images/foreignKeys.png" width="11px" height="12px" preserveAspectRatio="xMinYMin meet" x="510" y="-136.7"/>
<text text-anchor="start" x="525" y="-126.8" font-family="Helvetica,sans-Serif" font-size="11.00" fill="#000000">ProfessorId</text>
<polygon fill="#ffffff" stroke="transparent" points="505,-97.7 505,-119.7 630,-119.7 630,-97.7 505,-97.7"/>
<polygon fill="none" stroke="#000000" points="505,-97.7 505,-119.7 630,-119.7 630,-97.7 505,-97.7"/>
<image xlink:href="../../images/foreignKeys.png" width="11px" height="12px" preserveAspectRatio="xMinYMin meet" x="510" y="-114.7"/>
<text text-anchor="start" x="525" y="-104.8" font-family="Helvetica,sans-Serif" font-size="11.00" fill="#000000">CreatedByUserId</text>
<polygon fill="#ffffff" stroke="transparent" points="505,-75.7 505,-97.7 630,-97.7 630,-75.7 505,-75.7"/>
<polygon fill="none" stroke="#000000" points="505,-75.7 505,-97.7 630,-97.7 630,-75.7 505,-75.7"/>
<image xlink:href="../../images/foreignKeys.png" width="11px" height="12px" preserveAspectRatio="xMinYMin meet" x="510" y="-92.7"/>
<text text-anchor="start" x="525" y="-82.8" font-family="Helvetica,sans-Serif" font-size="11.00" fill="#000000">UpdatedByUserId</text>
<polygon fill="none" stroke="#000000" points="505,-56.7 505,-75.7 630,-75.7 630,-56.7 505,-56.7"/>
<text text-anchor="start" x="508" y="-62.8" font-family="Helvetica,sans-Serif" font-size="11.00" fill="#000000">...</text>
<polygon fill="#ffffff" stroke="transparent" points="505,-37.7 505,-56.7 548,-56.7 548,-37.7 505,-37.7"/>
<polygon fill="none" stroke="#000000" points="505,-37.7 505,-56.7 548,-56.7 548,-37.7 505,-37.7"/>
<text text-anchor="start" x="508" y="-43.8" font-family="Helvetica,sans-Serif" font-size="11.00" fill="#000000">&lt; 4</text>
<polygon fill="#ffffff" stroke="transparent" points="548,-37.7 548,-56.7 597,-56.7 597,-37.7 548,-37.7"/>
<polygon fill="none" stroke="#000000" points="548,-37.7 548,-56.7 597,-56.7 597,-37.7 548,-37.7"/>
<text text-anchor="start" x="561.6105" y="-43.8" font-family="Helvetica,sans-Serif" font-size="11.00" fill="#000000">0 rows</text>
<polygon fill="#ffffff" stroke="transparent" points="597,-37.7 597,-56.7 630,-56.7 630,-37.7 597,-37.7"/>
<polygon fill="none" stroke="#000000" points="597,-37.7 597,-56.7 630,-56.7 630,-37.7 597,-37.7"/>
<text text-anchor="start" x="611.4053" y="-43.8" font-family="Helvetica,sans-Serif" font-size="11.00" fill="#000000">1 &gt;</text>
</a>
</g>
</g>
<!-- Subjects&#45;&gt;AspNetUsers -->
<g id="edge5" class="edge">
<title>Subjects:w&#45;&gt;AspNetUsers:e</title>
<path fill="none" stroke="#000000" d="M490.4029,-108.7664C370.9559,-109.8808 336.1761,-124.9632 212,-148.7 193.7891,-152.1811 190.0406,-158.7 171.5,-158.7"/>
<polygon fill="#000000" stroke="#000000" points="497.0001,-108.7364 505.0164,-112.3 501,-108.7182 505,-108.7 505,-108.7 505,-108.7 501,-108.7182 504.9836,-105.1 497.0001,-108.7364 497.0001,-108.7364"/>
<ellipse fill="none" stroke="#000000" cx="493.8001" cy="-108.751" rx="3.2" ry="3.2"/>
</g>
<!-- Subjects&#45;&gt;AspNetUsers -->
<g id="edge7" class="edge">
<title>Subjects:w&#45;&gt;AspNetUsers:e</title>
<path fill="none" stroke="#000000" d="M490.433,-86.5454C370.7369,-84.0057 323.4948,-51.7663 212,-109.7 186.9288,-122.7272 199.7537,-158.7 171.5,-158.7"/>
<polygon fill="#000000" stroke="#000000" points="497.0005,-86.6151 504.9618,-90.2998 501.0002,-86.6575 505,-86.7 505,-86.7 505,-86.7 501.0002,-86.6575 505.0382,-83.1002 497.0005,-86.6151 497.0005,-86.6151"/>
<ellipse fill="none" stroke="#000000" cx="493.8006" cy="-86.5811" rx="3.2" ry="3.2"/>
</g>
<!-- Subjects&#45;&gt;Professors -->
<g id="edge6" class="edge">
<title>Subjects:w&#45;&gt;Professors:e</title>
<path fill="none" stroke="#000000" d="M490.4343,-132.6303C440.824,-146.9968 457.81,-236.7 395.5,-236.7"/>
<polygon fill="#000000" stroke="#000000" points="497.0693,-131.7511 505.473,-134.2688 501.0347,-131.2255 505,-130.7 505,-130.7 505,-130.7 501.0347,-131.2255 504.527,-127.1312 497.0693,-131.7511 497.0693,-131.7511"/>
<ellipse fill="none" stroke="#000000" cx="493.8971" cy="-132.1715" rx="3.2" ry="3.2"/>
</g>
</g>
</svg>
