<?xml version="1.0" encoding="UTF-8" standalone="no"?>
<!DOCTYPE svg PUBLIC "-//W3C//DTD SVG 1.1//EN"
 "http://www.w3.org/Graphics/SVG/1.1/DTD/svg11.dtd">
<!-- Generated by graphviz version 2.40.1 (20161225.0304)
 -->
<!-- Title: twoDegreesRelationshipsDiagram Pages: 1 -->
<svg width="1518pt" height="1136pt"
 viewBox="0.00 0.00 1518.00 1136.24" xmlns="http://www.w3.org/2000/svg" xmlns:xlink="http://www.w3.org/1999/xlink">
<g id="graph0" class="graph" transform="scale(1 1) rotate(0) translate(4 1132.2375)">
<title>twoDegreesRelationshipsDiagram</title>
<polygon fill="#ffffff" stroke="transparent" points="-4,4 -4,-1132.2375 1514,-1132.2375 1514,4 -4,4"/>
<text text-anchor="middle" x="72.4936" y="-7.3" font-family="Helvetica,sans-Serif" font-size="11.00" fill="#000000">Generated by SchemaSpy</text>
<!-- AspNetUserClaims -->
<g id="node1" class="node">
<title>AspNetUserClaims</title>
<g id="a_node1"><a xlink:href="../../tables/AspNetUserClaims.html" xlink:title="AspNetUserClaims" target="_top">
<polygon fill="#ffffff" stroke="transparent" points="172,-1063.2375 172,-1124.2375 319,-1124.2375 319,-1063.2375 172,-1063.2375"/>
<polygon fill="#f5f5f5" stroke="transparent" points="172.5,-1100.7375 172.5,-1123.7375 319.5,-1123.7375 319.5,-1100.7375 172.5,-1100.7375"/>
<polygon fill="none" stroke="#000000" points="172.5,-1100.7375 172.5,-1123.7375 319.5,-1123.7375 319.5,-1100.7375 172.5,-1100.7375"/>
<text text-anchor="start" x="177.5" y="-1109.3375" font-family="Helvetica,sans-Serif" font-weight="bold" font-size="11.00" fill="#000000">AspNetUserClaims</text>
<text text-anchor="start" x="285.0219" y="-1108.8375" font-family="Helvetica,sans-Serif" font-size="11.00" fill="#000000">[table]</text>
<polygon fill="none" stroke="#000000" points="172.5,-1081.7375 172.5,-1100.7375 319.5,-1100.7375 319.5,-1081.7375 172.5,-1081.7375"/>
<text text-anchor="start" x="175.5" y="-1087.8375" font-family="Helvetica,sans-Serif" font-size="11.00" fill="#000000">...</text>
<polygon fill="#ffffff" stroke="transparent" points="172.5,-1062.7375 172.5,-1081.7375 231.5,-1081.7375 231.5,-1062.7375 172.5,-1062.7375"/>
<polygon fill="none" stroke="#000000" points="172.5,-1062.7375 172.5,-1081.7375 231.5,-1081.7375 231.5,-1062.7375 172.5,-1062.7375"/>
<text text-anchor="start" x="175.5" y="-1068.8375" font-family="Helvetica,sans-Serif" font-size="11.00" fill="#000000">&lt; 1</text>
<polygon fill="#ffffff" stroke="transparent" points="231.5,-1062.7375 231.5,-1081.7375 288.5,-1081.7375 288.5,-1062.7375 231.5,-1062.7375"/>
<polygon fill="none" stroke="#000000" points="231.5,-1062.7375 231.5,-1081.7375 288.5,-1081.7375 288.5,-1062.7375 231.5,-1062.7375"/>
<text text-anchor="start" x="253.1105" y="-1068.8375" font-family="Helvetica,sans-Serif" font-size="11.00" fill="#000000">0 rows</text>
<polygon fill="#ffffff" stroke="transparent" points="288.5,-1062.7375 288.5,-1081.7375 319.5,-1081.7375 319.5,-1062.7375 288.5,-1062.7375"/>
<polygon fill="none" stroke="#000000" points="288.5,-1062.7375 288.5,-1081.7375 319.5,-1081.7375 319.5,-1062.7375 288.5,-1062.7375"/>
<text text-anchor="start" x="310.3862" y="-1068.8375" font-family="Helvetica,sans-Serif" font-size="11.00" fill="#000000"> &#160;</text>
</a>
</g>
</g>
<!-- AspNetUsers -->
<g id="node2" class="node">
<title>AspNetUsers</title>
<g id="a_node2"><a xlink:href="../../tables/AspNetUsers.html" xlink:title="AspNetUsers" target="_top">
<polygon fill="#ffffff" stroke="transparent" points="8,-492.2375 8,-553.2375 122,-553.2375 122,-492.2375 8,-492.2375"/>
<polygon fill="#f5f5f5" stroke="transparent" points="8,-529.7375 8,-552.7375 122,-552.7375 122,-529.7375 8,-529.7375"/>
<polygon fill="none" stroke="#000000" points="8,-529.7375 8,-552.7375 122,-552.7375 122,-529.7375 8,-529.7375"/>
<text text-anchor="start" x="13" y="-538.3375" font-family="Helvetica,sans-Serif" font-weight="bold" font-size="11.00" fill="#000000">AspNetUsers</text>
<text text-anchor="start" x="87.5219" y="-537.8375" font-family="Helvetica,sans-Serif" font-size="11.00" fill="#000000">[table]</text>
<polygon fill="none" stroke="#000000" points="8,-510.7375 8,-529.7375 122,-529.7375 122,-510.7375 8,-510.7375"/>
<text text-anchor="start" x="11" y="-516.8375" font-family="Helvetica,sans-Serif" font-size="11.00" fill="#000000">...</text>
<polygon fill="#ffffff" stroke="transparent" points="8,-491.7375 8,-510.7375 41,-510.7375 41,-491.7375 8,-491.7375"/>
<polygon fill="none" stroke="#000000" points="8,-491.7375 8,-510.7375 41,-510.7375 41,-491.7375 8,-491.7375"/>
<text text-anchor="start" x="11" y="-497.8375" font-family="Helvetica,sans-Serif" font-size="11.00" fill="#000000"> &#160;</text>
<polygon fill="#ffffff" stroke="transparent" points="41,-491.7375 41,-510.7375 84,-510.7375 84,-491.7375 41,-491.7375"/>
<polygon fill="none" stroke="#000000" points="41,-491.7375 41,-510.7375 84,-510.7375 84,-491.7375 41,-491.7375"/>
<text text-anchor="start" x="54.1105" y="-497.8375" font-family="Helvetica,sans-Serif" font-size="11.00" fill="#000000">1 row</text>
<polygon fill="#ffffff" stroke="transparent" points="84,-491.7375 84,-510.7375 122,-510.7375 122,-491.7375 84,-491.7375"/>
<polygon fill="none" stroke="#000000" points="84,-491.7375 84,-510.7375 122,-510.7375 122,-491.7375 84,-491.7375"/>
<text text-anchor="start" x="97.2904" y="-497.8375" font-family="Helvetica,sans-Serif" font-size="11.00" fill="#000000">29 &gt;</text>
</a>
</g>
</g>
<!-- AspNetUserClaims&#45;&gt;AspNetUsers -->
<g id="edge1" class="edge">
<title>AspNetUserClaims:w&#45;&gt;AspNetUsers:e</title>
<path fill="none" stroke="#000000" d="M159.9934,-1083.5624C111.9417,-1028.4244 77.6581,-671.1002 67.86,-557.4135"/>
<polygon fill="#000000" stroke="#000000" points="165.5609,-1086.7565 170.7085,-1093.8601 169.0304,-1088.747 172.5,-1090.7375 172.5,-1090.7375 172.5,-1090.7375 169.0304,-1088.747 174.2915,-1087.6149 165.5609,-1086.7565 165.5609,-1086.7565"/>
<ellipse fill="none" stroke="#000000" cx="162.7852" cy="-1085.1641" rx="3.2" ry="3.2"/>
</g>
<!-- AspNetUserLogins -->
<g id="node3" class="node">
<title>AspNetUserLogins</title>
<g id="a_node3"><a xlink:href="../../tables/AspNetUserLogins.html" xlink:title="AspNetUserLogins" target="_top">
<polygon fill="#ffffff" stroke="transparent" points="172,-981.2375 172,-1042.2375 319,-1042.2375 319,-981.2375 172,-981.2375"/>
<polygon fill="#f5f5f5" stroke="transparent" points="172.5,-1018.7375 172.5,-1041.7375 319.5,-1041.7375 319.5,-1018.7375 172.5,-1018.7375"/>
<polygon fill="none" stroke="#000000" points="172.5,-1018.7375 172.5,-1041.7375 319.5,-1041.7375 319.5,-1018.7375 172.5,-1018.7375"/>
<text text-anchor="start" x="177.5" y="-1027.3375" font-family="Helvetica,sans-Serif" font-weight="bold" font-size="11.00" fill="#000000">AspNetUserLogins</text>
<text text-anchor="start" x="285.0219" y="-1026.8375" font-family="Helvetica,sans-Serif" font-size="11.00" fill="#000000">[table]</text>
<polygon fill="none" stroke="#000000" points="172.5,-999.7375 172.5,-1018.7375 319.5,-1018.7375 319.5,-999.7375 172.5,-999.7375"/>
<text text-anchor="start" x="175.5" y="-1005.8375" font-family="Helvetica,sans-Serif" font-size="11.00" fill="#000000">...</text>
<polygon fill="#ffffff" stroke="transparent" points="172.5,-980.7375 172.5,-999.7375 231.5,-999.7375 231.5,-980.7375 172.5,-980.7375"/>
<polygon fill="none" stroke="#000000" points="172.5,-980.7375 172.5,-999.7375 231.5,-999.7375 231.5,-980.7375 172.5,-980.7375"/>
<text text-anchor="start" x="175.5" y="-986.8375" font-family="Helvetica,sans-Serif" font-size="11.00" fill="#000000">&lt; 1</text>
<polygon fill="#ffffff" stroke="transparent" points="231.5,-980.7375 231.5,-999.7375 288.5,-999.7375 288.5,-980.7375 231.5,-980.7375"/>
<polygon fill="none" stroke="#000000" points="231.5,-980.7375 231.5,-999.7375 288.5,-999.7375 288.5,-980.7375 231.5,-980.7375"/>
<text text-anchor="start" x="253.1105" y="-986.8375" font-family="Helvetica,sans-Serif" font-size="11.00" fill="#000000">0 rows</text>
<polygon fill="#ffffff" stroke="transparent" points="288.5,-980.7375 288.5,-999.7375 319.5,-999.7375 319.5,-980.7375 288.5,-980.7375"/>
<polygon fill="none" stroke="#000000" points="288.5,-980.7375 288.5,-999.7375 319.5,-999.7375 319.5,-980.7375 288.5,-980.7375"/>
<text text-anchor="start" x="310.3862" y="-986.8375" font-family="Helvetica,sans-Serif" font-size="11.00" fill="#000000"> &#160;</text>
</a>
</g>
</g>
<!-- AspNetUserLogins&#45;&gt;AspNetUsers -->
<g id="edge2" class="edge">
<title>AspNetUserLogins:w&#45;&gt;AspNetUsers:e</title>
<path fill="none" stroke="#000000" d="M160.0982,-1000.9076C118.5386,-949.4222 80.9253,-658.3555 68.9518,-557.2999"/>
<polygon fill="#000000" stroke="#000000" points="165.7354,-1004.4666 170.5781,-1011.7816 169.1177,-1006.6021 172.5,-1008.7375 172.5,-1008.7375 172.5,-1008.7375 169.1177,-1006.6021 174.4219,-1005.6935 165.7354,-1004.4666 165.7354,-1004.4666"/>
<ellipse fill="none" stroke="#000000" cx="163.0296" cy="-1002.7583" rx="3.2" ry="3.2"/>
</g>
<!-- AspNetUserRoles -->
<g id="node4" class="node">
<title>AspNetUserRoles</title>
<g id="a_node4"><a xlink:href="../../tables/AspNetUserRoles.html" xlink:title="AspNetUserRoles" target="_top">
<polygon fill="#ffffff" stroke="transparent" points="175.5,-899.2375 175.5,-960.2375 315.5,-960.2375 315.5,-899.2375 175.5,-899.2375"/>
<polygon fill="#f5f5f5" stroke="transparent" points="175.5,-936.7375 175.5,-959.7375 315.5,-959.7375 315.5,-936.7375 175.5,-936.7375"/>
<polygon fill="none" stroke="#000000" points="175.5,-936.7375 175.5,-959.7375 315.5,-959.7375 315.5,-936.7375 175.5,-936.7375"/>
<text text-anchor="start" x="180.5" y="-945.3375" font-family="Helvetica,sans-Serif" font-weight="bold" font-size="11.00" fill="#000000">AspNetUserRoles</text>
<text text-anchor="start" x="281.0219" y="-944.8375" font-family="Helvetica,sans-Serif" font-size="11.00" fill="#000000">[table]</text>
<polygon fill="none" stroke="#000000" points="175.5,-917.7375 175.5,-936.7375 315.5,-936.7375 315.5,-917.7375 175.5,-917.7375"/>
<text text-anchor="start" x="178.5" y="-923.8375" font-family="Helvetica,sans-Serif" font-size="11.00" fill="#000000">...</text>
<polygon fill="#ffffff" stroke="transparent" points="175.5,-898.7375 175.5,-917.7375 233.5,-917.7375 233.5,-898.7375 175.5,-898.7375"/>
<polygon fill="none" stroke="#000000" points="175.5,-898.7375 175.5,-917.7375 233.5,-917.7375 233.5,-898.7375 175.5,-898.7375"/>
<text text-anchor="start" x="178.5" y="-904.8375" font-family="Helvetica,sans-Serif" font-size="11.00" fill="#000000">&lt; 2</text>
<polygon fill="#ffffff" stroke="transparent" points="233.5,-898.7375 233.5,-917.7375 284.5,-917.7375 284.5,-898.7375 233.5,-898.7375"/>
<polygon fill="none" stroke="#000000" points="233.5,-898.7375 233.5,-917.7375 284.5,-917.7375 284.5,-898.7375 233.5,-898.7375"/>
<text text-anchor="start" x="254.6105" y="-904.8375" font-family="Helvetica,sans-Serif" font-size="11.00" fill="#000000">1 row</text>
<polygon fill="#ffffff" stroke="transparent" points="284.5,-898.7375 284.5,-917.7375 315.5,-917.7375 315.5,-898.7375 284.5,-898.7375"/>
<polygon fill="none" stroke="#000000" points="284.5,-898.7375 284.5,-917.7375 315.5,-917.7375 315.5,-898.7375 284.5,-898.7375"/>
<text text-anchor="start" x="306.3862" y="-904.8375" font-family="Helvetica,sans-Serif" font-size="11.00" fill="#000000"> &#160;</text>
</a>
</g>
</g>
<!-- AspNetUserRoles&#45;&gt;AspNetUsers -->
<g id="edge3" class="edge">
<title>AspNetUserRoles:w&#45;&gt;AspNetUsers:e</title>
<path fill="none" stroke="#000000" d="M161.3788,-923.4766C96.0341,-892.4965 73.3324,-649.2116 67.0495,-557.532"/>
<polygon fill="#000000" stroke="#000000" points="167.7051,-924.9374 174.69,-930.2452 171.6026,-925.8375 175.5,-926.7375 175.5,-926.7375 175.5,-926.7375 171.6026,-925.8375 176.31,-923.2299 167.7051,-924.9374 167.7051,-924.9374"/>
<ellipse fill="none" stroke="#000000" cx="164.5872" cy="-924.2174" rx="3.2" ry="3.2"/>
</g>
<!-- AspNetUserTokens -->
<g id="node5" class="node">
<title>AspNetUserTokens</title>
<g id="a_node5"><a xlink:href="../../tables/AspNetUserTokens.html" xlink:title="AspNetUserTokens" target="_top">
<polygon fill="#ffffff" stroke="transparent" points="171,-817.2375 171,-878.2375 320,-878.2375 320,-817.2375 171,-817.2375"/>
<polygon fill="#f5f5f5" stroke="transparent" points="171.5,-854.7375 171.5,-877.7375 320.5,-877.7375 320.5,-854.7375 171.5,-854.7375"/>
<polygon fill="none" stroke="#000000" points="171.5,-854.7375 171.5,-877.7375 320.5,-877.7375 320.5,-854.7375 171.5,-854.7375"/>
<text text-anchor="start" x="176.5" y="-863.3375" font-family="Helvetica,sans-Serif" font-weight="bold" font-size="11.00" fill="#000000">AspNetUserTokens</text>
<text text-anchor="start" x="286.0219" y="-862.8375" font-family="Helvetica,sans-Serif" font-size="11.00" fill="#000000">[table]</text>
<polygon fill="none" stroke="#000000" points="171.5,-835.7375 171.5,-854.7375 320.5,-854.7375 320.5,-835.7375 171.5,-835.7375"/>
<text text-anchor="start" x="174.5" y="-841.8375" font-family="Helvetica,sans-Serif" font-size="11.00" fill="#000000">...</text>
<polygon fill="#ffffff" stroke="transparent" points="171.5,-816.7375 171.5,-835.7375 231.5,-835.7375 231.5,-816.7375 171.5,-816.7375"/>
<polygon fill="none" stroke="#000000" points="171.5,-816.7375 171.5,-835.7375 231.5,-835.7375 231.5,-816.7375 171.5,-816.7375"/>
<text text-anchor="start" x="174.5" y="-822.8375" font-family="Helvetica,sans-Serif" font-size="11.00" fill="#000000">&lt; 1</text>
<polygon fill="#ffffff" stroke="transparent" points="231.5,-816.7375 231.5,-835.7375 288.5,-835.7375 288.5,-816.7375 231.5,-816.7375"/>
<polygon fill="none" stroke="#000000" points="231.5,-816.7375 231.5,-835.7375 288.5,-835.7375 288.5,-816.7375 231.5,-816.7375"/>
<text text-anchor="start" x="253.1105" y="-822.8375" font-family="Helvetica,sans-Serif" font-size="11.00" fill="#000000">0 rows</text>
<polygon fill="#ffffff" stroke="transparent" points="288.5,-816.7375 288.5,-835.7375 320.5,-835.7375 320.5,-816.7375 288.5,-816.7375"/>
<polygon fill="none" stroke="#000000" points="288.5,-816.7375 288.5,-835.7375 320.5,-835.7375 320.5,-816.7375 288.5,-816.7375"/>
<text text-anchor="start" x="311.3862" y="-822.8375" font-family="Helvetica,sans-Serif" font-size="11.00" fill="#000000"> &#160;</text>
</a>
</g>
</g>
<!-- AspNetUserTokens&#45;&gt;AspNetUsers -->
<g id="edge4" class="edge">
<title>AspNetUserTokens:w&#45;&gt;AspNetUsers:e</title>
<path fill="none" stroke="#000000" d="M157.3001,-840.7991C106.4149,-812.0856 78.6857,-633.9352 69.0021,-557.5031"/>
<polygon fill="#000000" stroke="#000000" points="163.791,-842.5994 170.5378,-848.2066 167.6455,-843.6685 171.5,-844.7375 171.5,-844.7375 171.5,-844.7375 167.6455,-843.6685 172.4622,-841.2685 163.791,-842.5994 163.791,-842.5994"/>
<ellipse fill="none" stroke="#000000" cx="160.7074" cy="-841.7441" rx="3.2" ry="3.2"/>
</g>
<!-- Competencies -->
<g id="node6" class="node">
<title>Competencies</title>
<g id="a_node6"><a xlink:href="../../tables/Competencies.html" xlink:title="Competencies" target="_top">
<polygon fill="#ffffff" stroke="transparent" points="185,-695.2375 185,-756.2375 306,-756.2375 306,-695.2375 185,-695.2375"/>
<polygon fill="#f5f5f5" stroke="transparent" points="185.5,-732.7375 185.5,-755.7375 306.5,-755.7375 306.5,-732.7375 185.5,-732.7375"/>
<polygon fill="none" stroke="#000000" points="185.5,-732.7375 185.5,-755.7375 306.5,-755.7375 306.5,-732.7375 185.5,-732.7375"/>
<text text-anchor="start" x="190.5" y="-741.3375" font-family="Helvetica,sans-Serif" font-weight="bold" font-size="11.00" fill="#000000">Competencies</text>
<text text-anchor="start" x="272.0219" y="-740.8375" font-family="Helvetica,sans-Serif" font-size="11.00" fill="#000000">[table]</text>
<polygon fill="none" stroke="#000000" points="185.5,-713.7375 185.5,-732.7375 306.5,-732.7375 306.5,-713.7375 185.5,-713.7375"/>
<text text-anchor="start" x="188.5" y="-719.8375" font-family="Helvetica,sans-Serif" font-size="11.00" fill="#000000">...</text>
<polygon fill="#ffffff" stroke="transparent" points="185.5,-694.7375 185.5,-713.7375 226.5,-713.7375 226.5,-694.7375 185.5,-694.7375"/>
<polygon fill="none" stroke="#000000" points="185.5,-694.7375 185.5,-713.7375 226.5,-713.7375 226.5,-694.7375 185.5,-694.7375"/>
<text text-anchor="start" x="188.5" y="-700.8375" font-family="Helvetica,sans-Serif" font-size="11.00" fill="#000000">&lt; 2</text>
<polygon fill="#ffffff" stroke="transparent" points="226.5,-694.7375 226.5,-713.7375 274.5,-713.7375 274.5,-694.7375 226.5,-694.7375"/>
<polygon fill="none" stroke="#000000" points="226.5,-694.7375 226.5,-713.7375 274.5,-713.7375 274.5,-694.7375 226.5,-694.7375"/>
<text text-anchor="start" x="239.1105" y="-700.8375" font-family="Helvetica,sans-Serif" font-size="11.00" fill="#000000">5 rows</text>
<polygon fill="#ffffff" stroke="transparent" points="274.5,-694.7375 274.5,-713.7375 306.5,-713.7375 306.5,-694.7375 274.5,-694.7375"/>
<polygon fill="none" stroke="#000000" points="274.5,-694.7375 274.5,-713.7375 306.5,-713.7375 306.5,-694.7375 274.5,-694.7375"/>
<text text-anchor="start" x="287.9053" y="-700.8375" font-family="Helvetica,sans-Serif" font-size="11.00" fill="#000000">4 &gt;</text>
</a>
</g>
</g>
<!-- Competencies&#45;&gt;AspNetUsers -->
<g id="edge5" class="edge">
<title>Competencies:w&#45;&gt;AspNetUsers:e</title>
<path fill="none" stroke="#000000" d="M171.2278,-720.596C107.0606,-704.7547 80.5787,-610.1577 70.5333,-557.6609"/>
<polygon fill="#000000" stroke="#000000" points="177.5886,-721.5504 184.9658,-726.2977 181.5443,-722.144 185.5,-722.7375 185.5,-722.7375 185.5,-722.7375 181.5443,-722.144 186.0342,-719.1774 177.5886,-721.5504 177.5886,-721.5504"/>
<ellipse fill="none" stroke="#000000" cx="174.424" cy="-721.0756" rx="3.2" ry="3.2"/>
</g>
<!-- Competencies&#45;&gt;AspNetUsers -->
<g id="edge6" class="edge">
<title>Competencies:w&#45;&gt;AspNetUsers:e</title>
<path fill="none" stroke="#000000" d="M171.0167,-722.3422C103.8315,-713.8122 78.041,-612.4333 69.1603,-557.4661"/>
<polygon fill="#000000" stroke="#000000" points="177.503,-722.5192 185.4017,-726.3362 181.5015,-722.6284 185.5,-722.7375 185.5,-722.7375 185.5,-722.7375 181.5015,-722.6284 185.5983,-719.1389 177.503,-722.5192 177.503,-722.5192"/>
<ellipse fill="none" stroke="#000000" cx="174.3042" cy="-722.4318" rx="3.2" ry="3.2"/>
</g>
<!-- CompetencyLevelDescriptions -->
<g id="node7" class="node">
<title>CompetencyLevelDescriptions</title>
<g id="a_node7"><a xlink:href="../../tables/CompetencyLevelDescriptions.html" xlink:title="CompetencyLevelDescriptions" target="_top">
<polygon fill="#ffffff" stroke="transparent" points="369,-766.2375 369,-827.2375 583,-827.2375 583,-766.2375 369,-766.2375"/>
<polygon fill="#f5f5f5" stroke="transparent" points="369,-803.7375 369,-826.7375 583,-826.7375 583,-803.7375 369,-803.7375"/>
<polygon fill="none" stroke="#000000" points="369,-803.7375 369,-826.7375 583,-826.7375 583,-803.7375 369,-803.7375"/>
<text text-anchor="start" x="374" y="-812.3375" font-family="Helvetica,sans-Serif" font-weight="bold" font-size="11.00" fill="#000000">CompetencyLevelDescriptions</text>
<text text-anchor="start" x="548.5219" y="-811.8375" font-family="Helvetica,sans-Serif" font-size="11.00" fill="#000000">[table]</text>
<polygon fill="none" stroke="#000000" points="369,-784.7375 369,-803.7375 583,-803.7375 583,-784.7375 369,-784.7375"/>
<text text-anchor="start" x="372" y="-790.8375" font-family="Helvetica,sans-Serif" font-size="11.00" fill="#000000">...</text>
<polygon fill="#ffffff" stroke="transparent" points="369,-765.7375 369,-784.7375 458,-784.7375 458,-765.7375 369,-765.7375"/>
<polygon fill="none" stroke="#000000" points="369,-765.7375 369,-784.7375 458,-784.7375 458,-765.7375 369,-765.7375"/>
<text text-anchor="start" x="372" y="-771.8375" font-family="Helvetica,sans-Serif" font-size="11.00" fill="#000000">&lt; 3</text>
<polygon fill="#ffffff" stroke="transparent" points="458,-765.7375 458,-784.7375 536,-784.7375 536,-765.7375 458,-765.7375"/>
<polygon fill="none" stroke="#000000" points="458,-765.7375 458,-784.7375 536,-784.7375 536,-765.7375 458,-765.7375"/>
<text text-anchor="start" x="494.4956" y="-771.8375" font-family="Helvetica,sans-Serif" font-size="11.00" fill="#000000">20 rows</text>
<polygon fill="#ffffff" stroke="transparent" points="536,-765.7375 536,-784.7375 583,-784.7375 583,-765.7375 536,-765.7375"/>
<polygon fill="none" stroke="#000000" points="536,-765.7375 536,-784.7375 583,-784.7375 583,-765.7375 536,-765.7375"/>
<text text-anchor="start" x="573.8862" y="-771.8375" font-family="Helvetica,sans-Serif" font-size="11.00" fill="#000000"> &#160;</text>
</a>
</g>
</g>
<!-- CompetencyLevelDescriptions&#45;&gt;AspNetUsers -->
<g id="edge8" class="edge">
<title>CompetencyLevelDescriptions:w&#45;&gt;AspNetUsers:e</title>
<path fill="none" stroke="#000000" d="M354.5552,-793.0599C272.1971,-790.6671 232.0501,-814.2836 163,-760.7375 98.066,-710.3834 75.9958,-610.2099 68.6145,-557.2555"/>
<polygon fill="#000000" stroke="#000000" points="361.0088,-793.3626 368.8313,-797.3336 365.0044,-793.5501 369,-793.7375 369,-793.7375 369,-793.7375 365.0044,-793.5501 369.1687,-790.1415 361.0088,-793.3626 361.0088,-793.3626"/>
<ellipse fill="none" stroke="#000000" cx="357.8123" cy="-793.2126" rx="3.2" ry="3.2"/>
</g>
<!-- CompetencyLevelDescriptions&#45;&gt;AspNetUsers -->
<g id="edge9" class="edge">
<title>CompetencyLevelDescriptions:w&#45;&gt;AspNetUsers:e</title>
<path fill="none" stroke="#000000" d="M354.5552,-795.0441C272.1971,-803.6671 232.0501,-827.2836 163,-773.7375 94.8193,-720.8657 73.8959,-613.068 67.6139,-557.4473"/>
<polygon fill="#000000" stroke="#000000" points="361.0325,-794.4583 369.3243,-797.3229 365.0163,-794.0979 369,-793.7375 369,-793.7375 369,-793.7375 365.0163,-794.0979 368.6757,-790.1522 361.0325,-794.4583 361.0325,-794.4583"/>
<ellipse fill="none" stroke="#000000" cx="357.8455" cy="-794.7465" rx="3.2" ry="3.2"/>
</g>
<!-- CompetencyLevelDescriptions&#45;&gt;Competencies -->
<g id="edge7" class="edge">
<title>CompetencyLevelDescriptions:w&#45;&gt;Competencies:e</title>
<path fill="none" stroke="#000000" d="M354.9994,-790.119C331.6716,-775.6506 342.7923,-722.7375 306.5,-722.7375"/>
<polygon fill="#000000" stroke="#000000" points="361.2545,-791.7356 368.0991,-797.223 365.1273,-792.7366 369,-793.7375 369,-793.7375 369,-793.7375 365.1273,-792.7366 369.9009,-790.2521 361.2545,-791.7356 361.2545,-791.7356"/>
<ellipse fill="none" stroke="#000000" cx="358.1563" cy="-790.9349" rx="3.2" ry="3.2"/>
</g>
<!-- Coordinators -->
<g id="node8" class="node">
<title>Coordinators</title>
<g id="a_node8"><a xlink:href="../../tables/Coordinators.html" xlink:title="Coordinators" target="_top">
<polygon fill="#ffffff" stroke="transparent" points="419,-358.2375 419,-419.2375 533,-419.2375 533,-358.2375 419,-358.2375"/>
<polygon fill="#f5f5f5" stroke="transparent" points="419,-395.7375 419,-418.7375 533,-418.7375 533,-395.7375 419,-395.7375"/>
<polygon fill="none" stroke="#000000" points="419,-395.7375 419,-418.7375 533,-418.7375 533,-395.7375 419,-395.7375"/>
<text text-anchor="start" x="424" y="-404.3375" font-family="Helvetica,sans-Serif" font-weight="bold" font-size="11.00" fill="#000000">Coordinators</text>
<text text-anchor="start" x="498.5219" y="-403.8375" font-family="Helvetica,sans-Serif" font-size="11.00" fill="#000000">[table]</text>
<polygon fill="none" stroke="#000000" points="419,-376.7375 419,-395.7375 533,-395.7375 533,-376.7375 419,-376.7375"/>
<text text-anchor="start" x="422" y="-382.8375" font-family="Helvetica,sans-Serif" font-size="11.00" fill="#000000">...</text>
<polygon fill="#ffffff" stroke="transparent" points="419,-357.7375 419,-376.7375 461,-376.7375 461,-357.7375 419,-357.7375"/>
<polygon fill="none" stroke="#000000" points="419,-357.7375 419,-376.7375 461,-376.7375 461,-357.7375 419,-357.7375"/>
<text text-anchor="start" x="422" y="-363.8375" font-family="Helvetica,sans-Serif" font-size="11.00" fill="#000000">&lt; 2</text>
<polygon fill="#ffffff" stroke="transparent" points="461,-357.7375 461,-376.7375 510,-376.7375 510,-357.7375 461,-357.7375"/>
<polygon fill="none" stroke="#000000" points="461,-357.7375 461,-376.7375 510,-376.7375 510,-357.7375 461,-357.7375"/>
<text text-anchor="start" x="474.6105" y="-363.8375" font-family="Helvetica,sans-Serif" font-size="11.00" fill="#000000">0 rows</text>
<polygon fill="#ffffff" stroke="transparent" points="510,-357.7375 510,-376.7375 533,-376.7375 533,-357.7375 510,-357.7375"/>
<polygon fill="none" stroke="#000000" points="510,-357.7375 510,-376.7375 533,-376.7375 533,-357.7375 510,-357.7375"/>
<text text-anchor="start" x="523.8862" y="-363.8375" font-family="Helvetica,sans-Serif" font-size="11.00" fill="#000000"> &#160;</text>
</a>
</g>
</g>
<!-- Coordinators&#45;&gt;AspNetUsers -->
<g id="edge11" class="edge">
<title>Coordinators:w&#45;&gt;AspNetUsers:e</title>
<path fill="none" stroke="#000000" d="M408.5265,-385.3275C375.5961,-382.6327 365.6778,-367.4253 328,-362.7375 255.2277,-353.6834 226.9791,-326.8983 163,-362.7375 115.398,-389.4028 88.1334,-449.6708 74.9715,-488.1536"/>
<polygon fill="#000000" stroke="#000000" points="418.3571,-381.7093 418.0441,-389.7032 416.4453,-389.6406 416.7584,-381.6467 418.3571,-381.7093"/>
<polyline fill="none" stroke="#000000" points="419,-385.7375 415.0031,-385.581 "/>
<ellipse fill="none" stroke="#000000" cx="411.8055" cy="-385.4558" rx="3.2" ry="3.2"/>
</g>
<!-- TechnicalCareers -->
<g id="node9" class="node">
<title>TechnicalCareers</title>
<g id="a_node9"><a xlink:href="../../tables/TechnicalCareers.html" xlink:title="TechnicalCareers" target="_top">
<polygon fill="#ffffff" stroke="transparent" points="176,-373.2375 176,-434.2375 315,-434.2375 315,-373.2375 176,-373.2375"/>
<polygon fill="#f5f5f5" stroke="transparent" points="176.5,-410.7375 176.5,-433.7375 315.5,-433.7375 315.5,-410.7375 176.5,-410.7375"/>
<polygon fill="none" stroke="#000000" points="176.5,-410.7375 176.5,-433.7375 315.5,-433.7375 315.5,-410.7375 176.5,-410.7375"/>
<text text-anchor="start" x="181.5" y="-419.3375" font-family="Helvetica,sans-Serif" font-weight="bold" font-size="11.00" fill="#000000">TechnicalCareers</text>
<text text-anchor="start" x="281.0219" y="-418.8375" font-family="Helvetica,sans-Serif" font-size="11.00" fill="#000000">[table]</text>
<polygon fill="none" stroke="#000000" points="176.5,-391.7375 176.5,-410.7375 315.5,-410.7375 315.5,-391.7375 176.5,-391.7375"/>
<text text-anchor="start" x="179.5" y="-397.8375" font-family="Helvetica,sans-Serif" font-size="11.00" fill="#000000">...</text>
<polygon fill="#ffffff" stroke="transparent" points="176.5,-372.7375 176.5,-391.7375 226.5,-391.7375 226.5,-372.7375 176.5,-372.7375"/>
<polygon fill="none" stroke="#000000" points="176.5,-372.7375 176.5,-391.7375 226.5,-391.7375 226.5,-372.7375 176.5,-372.7375"/>
<text text-anchor="start" x="179.5" y="-378.8375" font-family="Helvetica,sans-Serif" font-size="11.00" fill="#000000">&lt; 2</text>
<polygon fill="#ffffff" stroke="transparent" points="226.5,-372.7375 226.5,-391.7375 279.5,-391.7375 279.5,-372.7375 226.5,-372.7375"/>
<polygon fill="none" stroke="#000000" points="226.5,-372.7375 226.5,-391.7375 279.5,-391.7375 279.5,-372.7375 226.5,-372.7375"/>
<text text-anchor="start" x="244.1105" y="-378.8375" font-family="Helvetica,sans-Serif" font-size="11.00" fill="#000000">6 rows</text>
<polygon fill="#ffffff" stroke="transparent" points="279.5,-372.7375 279.5,-391.7375 315.5,-391.7375 315.5,-372.7375 279.5,-372.7375"/>
<polygon fill="none" stroke="#000000" points="279.5,-372.7375 279.5,-391.7375 315.5,-391.7375 315.5,-372.7375 279.5,-372.7375"/>
<text text-anchor="start" x="296.9053" y="-378.8375" font-family="Helvetica,sans-Serif" font-size="11.00" fill="#000000">6 &gt;</text>
</a>
</g>
</g>
<!-- Coordinators&#45;&gt;TechnicalCareers -->
<g id="edge10" class="edge">
<title>Coordinators:w&#45;&gt;TechnicalCareers:e</title>
<path fill="none" stroke="#000000" d="M404.4831,-386.2714C369.6705,-388.9435 356.7152,-400.7375 315.5,-400.7375"/>
<polygon fill="#000000" stroke="#000000" points="411.0054,-386.0316 419.1323,-389.3351 415.0027,-385.8846 419,-385.7375 419,-385.7375 419,-385.7375 415.0027,-385.8846 418.8677,-382.14 411.0054,-386.0316 411.0054,-386.0316"/>
<ellipse fill="none" stroke="#000000" cx="407.8076" cy="-386.1492" rx="3.2" ry="3.2"/>
</g>
<!-- TechnicalCareers&#45;&gt;AspNetUsers -->
<g id="edge48" class="edge">
<title>TechnicalCareers:w&#45;&gt;AspNetUsers:e</title>
<path fill="none" stroke="#000000" d="M161.9582,-401.2198C120.542,-407.4569 92.0947,-454.2676 77.1951,-487.9835"/>
<polygon fill="#000000" stroke="#000000" points="168.5044,-401.0027 176.6193,-404.3356 172.5022,-400.8701 176.5,-400.7375 176.5,-400.7375 176.5,-400.7375 172.5022,-400.8701 176.3807,-397.1395 168.5044,-401.0027 168.5044,-401.0027"/>
<ellipse fill="none" stroke="#000000" cx="165.3062" cy="-401.1088" rx="3.2" ry="3.2"/>
</g>
<!-- TechnicalCareers&#45;&gt;AspNetUsers -->
<g id="edge49" class="edge">
<title>TechnicalCareers:w&#45;&gt;AspNetUsers:e</title>
<path fill="none" stroke="#000000" d="M162.065,-403.666C124.211,-415.4974 97.1789,-457.2724 81.4098,-488.0796"/>
<polygon fill="#000000" stroke="#000000" points="168.6597,-402.3281 177.2158,-404.2657 172.5799,-401.5328 176.5,-400.7375 176.5,-400.7375 176.5,-400.7375 172.5799,-401.5328 175.7842,-397.2094 168.6597,-402.3281 168.6597,-402.3281"/>
<ellipse fill="none" stroke="#000000" cx="165.5236" cy="-402.9644" rx="3.2" ry="3.2"/>
</g>
<!-- EvaluationPeriods -->
<g id="node10" class="node">
<title>EvaluationPeriods</title>
<g id="a_node10"><a xlink:href="../../tables/EvaluationPeriods.html" xlink:title="EvaluationPeriods" target="_top">
<polygon fill="#ffffff" stroke="transparent" points="404.5,-276.2375 404.5,-337.2375 547.5,-337.2375 547.5,-276.2375 404.5,-276.2375"/>
<polygon fill="#f5f5f5" stroke="transparent" points="405,-313.7375 405,-336.7375 548,-336.7375 548,-313.7375 405,-313.7375"/>
<polygon fill="none" stroke="#000000" points="405,-313.7375 405,-336.7375 548,-336.7375 548,-313.7375 405,-313.7375"/>
<text text-anchor="start" x="410" y="-322.3375" font-family="Helvetica,sans-Serif" font-weight="bold" font-size="11.00" fill="#000000">EvaluationPeriods</text>
<text text-anchor="start" x="513.5219" y="-321.8375" font-family="Helvetica,sans-Serif" font-size="11.00" fill="#000000">[table]</text>
<polygon fill="none" stroke="#000000" points="405,-294.7375 405,-313.7375 548,-313.7375 548,-294.7375 405,-294.7375"/>
<text text-anchor="start" x="408" y="-300.8375" font-family="Helvetica,sans-Serif" font-size="11.00" fill="#000000">...</text>
<polygon fill="#ffffff" stroke="transparent" points="405,-275.7375 405,-294.7375 457,-294.7375 457,-275.7375 405,-275.7375"/>
<polygon fill="none" stroke="#000000" points="405,-275.7375 405,-294.7375 457,-294.7375 457,-275.7375 405,-275.7375"/>
<text text-anchor="start" x="408" y="-281.8375" font-family="Helvetica,sans-Serif" font-size="11.00" fill="#000000">&lt; 2</text>
<polygon fill="#ffffff" stroke="transparent" points="457,-275.7375 457,-294.7375 511,-294.7375 511,-275.7375 457,-275.7375"/>
<polygon fill="none" stroke="#000000" points="457,-275.7375 457,-294.7375 511,-294.7375 511,-275.7375 457,-275.7375"/>
<text text-anchor="start" x="475.6105" y="-281.8375" font-family="Helvetica,sans-Serif" font-size="11.00" fill="#000000">0 rows</text>
<polygon fill="#ffffff" stroke="transparent" points="511,-275.7375 511,-294.7375 548,-294.7375 548,-275.7375 511,-275.7375"/>
<polygon fill="none" stroke="#000000" points="511,-275.7375 511,-294.7375 548,-294.7375 548,-275.7375 511,-275.7375"/>
<text text-anchor="start" x="529.4053" y="-281.8375" font-family="Helvetica,sans-Serif" font-size="11.00" fill="#000000">3 &gt;</text>
</a>
</g>
</g>
<!-- EvaluationPeriods&#45;&gt;AspNetUsers -->
<g id="edge12" class="edge">
<title>EvaluationPeriods:w&#45;&gt;AspNetUsers:e</title>
<path fill="none" stroke="#000000" d="M390.4067,-302.8027C291.9739,-295.643 247.8343,-275.7923 163,-335.7375 111.3454,-372.2375 84.2712,-444.7906 72.4805,-488.0767"/>
<polygon fill="#000000" stroke="#000000" points="397.0164,-303.226 404.7698,-307.3302 401.0082,-303.4818 405,-303.7375 405,-303.7375 405,-303.7375 401.0082,-303.4818 405.2302,-300.1449 397.0164,-303.226 397.0164,-303.226"/>
<ellipse fill="none" stroke="#000000" cx="393.8229" cy="-303.0214" rx="3.2" ry="3.2"/>
</g>
<!-- EvaluationPeriods&#45;&gt;AspNetUsers -->
<g id="edge13" class="edge">
<title>EvaluationPeriods:w&#45;&gt;AspNetUsers:e</title>
<path fill="none" stroke="#000000" d="M390.4067,-304.5118C291.9739,-308.643 247.8343,-288.7923 163,-348.7375 114.9933,-382.6598 88.2179,-447.7228 75.2105,-488.0418"/>
<polygon fill="#000000" stroke="#000000" points="397.0112,-304.1614 405.1908,-307.3325 401.0056,-303.9495 405,-303.7375 405,-303.7375 405,-303.7375 401.0056,-303.9495 404.8092,-300.1426 397.0112,-304.1614 397.0112,-304.1614"/>
<ellipse fill="none" stroke="#000000" cx="393.8157" cy="-304.331" rx="3.2" ry="3.2"/>
</g>
<!-- FormQuestions -->
<g id="node11" class="node">
<title>FormQuestions</title>
<g id="a_node11"><a xlink:href="../../tables/FormQuestions.html" xlink:title="FormQuestions" target="_top">
<polygon fill="#ffffff" stroke="transparent" points="412.5,-656.2375 412.5,-717.2375 539.5,-717.2375 539.5,-656.2375 412.5,-656.2375"/>
<polygon fill="#f5f5f5" stroke="transparent" points="413,-693.7375 413,-716.7375 540,-716.7375 540,-693.7375 413,-693.7375"/>
<polygon fill="none" stroke="#000000" points="413,-693.7375 413,-716.7375 540,-716.7375 540,-693.7375 413,-693.7375"/>
<text text-anchor="start" x="418" y="-702.3375" font-family="Helvetica,sans-Serif" font-weight="bold" font-size="11.00" fill="#000000">FormQuestions</text>
<text text-anchor="start" x="505.5219" y="-701.8375" font-family="Helvetica,sans-Serif" font-size="11.00" fill="#000000">[table]</text>
<polygon fill="none" stroke="#000000" points="413,-674.7375 413,-693.7375 540,-693.7375 540,-674.7375 413,-674.7375"/>
<text text-anchor="start" x="416" y="-680.8375" font-family="Helvetica,sans-Serif" font-size="11.00" fill="#000000">...</text>
<polygon fill="#ffffff" stroke="transparent" points="413,-655.7375 413,-674.7375 457,-674.7375 457,-655.7375 413,-655.7375"/>
<polygon fill="none" stroke="#000000" points="413,-655.7375 413,-674.7375 457,-674.7375 457,-655.7375 413,-655.7375"/>
<text text-anchor="start" x="416" y="-661.8375" font-family="Helvetica,sans-Serif" font-size="11.00" fill="#000000">&lt; 3</text>
<polygon fill="#ffffff" stroke="transparent" points="457,-655.7375 457,-674.7375 507,-674.7375 507,-655.7375 457,-655.7375"/>
<polygon fill="none" stroke="#000000" points="457,-655.7375 457,-674.7375 507,-674.7375 507,-655.7375 457,-655.7375"/>
<text text-anchor="start" x="471.6105" y="-661.8375" font-family="Helvetica,sans-Serif" font-size="11.00" fill="#000000">0 rows</text>
<polygon fill="#ffffff" stroke="transparent" points="507,-655.7375 507,-674.7375 540,-674.7375 540,-655.7375 507,-655.7375"/>
<polygon fill="none" stroke="#000000" points="507,-655.7375 507,-674.7375 540,-674.7375 540,-655.7375 507,-655.7375"/>
<text text-anchor="start" x="521.4053" y="-661.8375" font-family="Helvetica,sans-Serif" font-size="11.00" fill="#000000">1 &gt;</text>
</a>
</g>
</g>
<!-- FormQuestions&#45;&gt;AspNetUsers -->
<g id="edge15" class="edge">
<title>FormQuestions:w&#45;&gt;AspNetUsers:e</title>
<path fill="none" stroke="#000000" d="M390.0124,-676.7489C311.0595,-669.1444 200.7827,-656.9874 163,-635.7375 130.2251,-617.3041 103.9069,-583.26 86.8305,-557.2846"/>
<polygon fill="#000000" stroke="#000000" points="396.4017,-677.3579 404.024,-681.7008 400.3837,-677.7375 404.3656,-678.1171 404.3656,-678.1171 404.3656,-678.1171 400.3837,-677.7375 404.7073,-674.5333 396.4017,-677.3579 396.4017,-677.3579"/>
<ellipse fill="none" stroke="#000000" cx="393.2162" cy="-677.0542" rx="3.2" ry="3.2"/>
</g>
<!-- FormQuestions&#45;&gt;AspNetUsers -->
<g id="edge16" class="edge">
<title>FormQuestions:w&#45;&gt;AspNetUsers:e</title>
<path fill="none" stroke="#000000" d="M389.5206,-686.6688C310.6022,-682.0939 200.7043,-669.9434 163,-648.7375 125.9095,-627.877 97.0881,-587.024 80.572,-557.3829"/>
<polygon fill="#000000" stroke="#000000" points="396.377,-687.0339 404.1742,-691.0542 400.3713,-687.2466 404.3656,-687.4593 404.3656,-687.4593 404.3656,-687.4593 400.3713,-687.2466 404.5571,-683.8644 396.377,-687.0339 396.377,-687.0339"/>
<ellipse fill="none" stroke="#000000" cx="393.1815" cy="-686.8637" rx="3.2" ry="3.2"/>
</g>
<!-- FormQuestions&#45;&gt;Competencies -->
<g id="edge14" class="edge">
<title>FormQuestions:w&#45;&gt;Competencies:e</title>
<path fill="none" stroke="#000000" d="M389.753,-712.3007C363.2876,-718.1761 333.9136,-722.7375 306.5,-722.7375"/>
<polygon fill="#000000" stroke="#000000" points="396.3381,-710.7527 404.9496,-712.4264 400.2319,-709.8373 404.1258,-708.922 404.1258,-708.922 404.1258,-708.922 400.2319,-709.8373 403.3019,-705.4175 396.3381,-710.7527 396.3381,-710.7527"/>
<ellipse fill="none" stroke="#000000" cx="393.223" cy="-711.485" rx="3.2" ry="3.2"/>
</g>
<!-- ProfessorCompetencyAssignments -->
<g id="node12" class="node">
<title>ProfessorCompetencyAssignments</title>
<g id="a_node12"><a xlink:href="../../tables/ProfessorCompetencyAssignments.html" xlink:title="ProfessorCompetencyAssignments" target="_top">
<polygon fill="#ffffff" stroke="transparent" points="632,-523.2375 632,-584.2375 874,-584.2375 874,-523.2375 632,-523.2375"/>
<polygon fill="#f5f5f5" stroke="transparent" points="632,-560.7375 632,-583.7375 874,-583.7375 874,-560.7375 632,-560.7375"/>
<polygon fill="none" stroke="#000000" points="632,-560.7375 632,-583.7375 874,-583.7375 874,-560.7375 632,-560.7375"/>
<text text-anchor="start" x="637" y="-569.3375" font-family="Helvetica,sans-Serif" font-weight="bold" font-size="11.00" fill="#000000">ProfessorCompetencyAssignments</text>
<text text-anchor="start" x="839.5219" y="-568.8375" font-family="Helvetica,sans-Serif" font-size="11.00" fill="#000000">[table]</text>
<polygon fill="none" stroke="#000000" points="632,-541.7375 632,-560.7375 874,-560.7375 874,-541.7375 632,-541.7375"/>
<text text-anchor="start" x="635" y="-547.8375" font-family="Helvetica,sans-Serif" font-size="11.00" fill="#000000">...</text>
<polygon fill="#ffffff" stroke="transparent" points="632,-522.7375 632,-541.7375 734,-541.7375 734,-522.7375 632,-522.7375"/>
<polygon fill="none" stroke="#000000" points="632,-522.7375 632,-541.7375 734,-541.7375 734,-522.7375 632,-522.7375"/>
<text text-anchor="start" x="635" y="-528.8375" font-family="Helvetica,sans-Serif" font-size="11.00" fill="#000000">&lt; 7</text>
<polygon fill="#ffffff" stroke="transparent" points="734,-522.7375 734,-541.7375 812,-541.7375 812,-522.7375 734,-522.7375"/>
<polygon fill="none" stroke="#000000" points="734,-522.7375 734,-541.7375 812,-541.7375 812,-522.7375 734,-522.7375"/>
<text text-anchor="start" x="776.6105" y="-528.8375" font-family="Helvetica,sans-Serif" font-size="11.00" fill="#000000">0 rows</text>
<polygon fill="#ffffff" stroke="transparent" points="812,-522.7375 812,-541.7375 874,-541.7375 874,-522.7375 812,-522.7375"/>
<polygon fill="none" stroke="#000000" points="812,-522.7375 812,-541.7375 874,-541.7375 874,-522.7375 812,-522.7375"/>
<text text-anchor="start" x="855.4053" y="-528.8375" font-family="Helvetica,sans-Serif" font-size="11.00" fill="#000000">1 &gt;</text>
</a>
</g>
</g>
<!-- ProfessorCompetencyAssignments&#45;&gt;AspNetUsers -->
<g id="edge18" class="edge">
<title>ProfessorCompetencyAssignments:w&#45;&gt;AspNetUsers:e</title>
<path fill="none" stroke="#000000" d="M617.7534,-547.5189C609.427,-546.7763 603.4357,-548.7208 591,-549.7375 474.398,-559.2707 444.9655,-558.2926 328,-560.7375 254.6827,-562.2701 234.7069,-576.0965 163,-560.7375 152.0581,-558.3939 140.862,-554.7318 130.1318,-550.5754"/>
<polygon fill="#000000" stroke="#000000" points="624.1967,-548.9746 631.2067,-554.249 628.0983,-549.8561 632,-550.7375 632,-550.7375 632,-550.7375 628.0983,-549.8561 632.7933,-547.226 624.1967,-548.9746 624.1967,-548.9746"/>
<ellipse fill="none" stroke="#000000" cx="621.0753" cy="-548.2694" rx="3.2" ry="3.2"/>
</g>
<!-- ProfessorCompetencyAssignments&#45;&gt;AspNetUsers -->
<g id="edge23" class="edge">
<title>ProfessorCompetencyAssignments:w&#45;&gt;AspNetUsers:e</title>
<path fill="none" stroke="#000000" d="M618.6235,-556.0865C609.8325,-559.6411 603.8645,-561.6858 591,-562.7375 474.398,-572.2707 444.9655,-571.2926 328,-573.7375 254.6827,-575.2701 234.7069,-589.0965 163,-573.7375 147.2255,-570.3588 130.9224,-564.2398 116.249,-557.3482"/>
<polygon fill="#000000" stroke="#000000" points="624.5719,-553.7079 633.3367,-554.0802 628.2859,-552.2227 632,-550.7375 632,-550.7375 632,-550.7375 628.2859,-552.2227 630.6633,-547.3949 624.5719,-553.7079 624.5719,-553.7079"/>
<ellipse fill="none" stroke="#000000" cx="621.6006" cy="-554.8961" rx="3.2" ry="3.2"/>
</g>
<!-- ProfessorCompetencyAssignments&#45;&gt;Competencies -->
<g id="edge17" class="edge">
<title>ProfessorCompetencyAssignments:w&#45;&gt;Competencies:e</title>
<path fill="none" stroke="#000000" d="M617.57,-552.5469C564.9081,-568.1842 649.7689,-681.0257 591,-727.7375 541.4997,-767.0823 369.732,-722.7375 306.5,-722.7375"/>
<polygon fill="#000000" stroke="#000000" points="624.0622,-551.7329 632.4479,-554.3096 628.0311,-551.2352 632,-550.7375 632,-550.7375 632,-550.7375 628.0311,-551.2352 631.5521,-547.1655 624.0622,-551.7329 624.0622,-551.7329"/>
<ellipse fill="none" stroke="#000000" cx="620.887" cy="-552.131" rx="3.2" ry="3.2"/>
</g>
<!-- ProfessorCompetencyAssignments&#45;&gt;TechnicalCareers -->
<g id="edge22" class="edge">
<title>ProfessorCompetencyAssignments:w&#45;&gt;TechnicalCareers:e</title>
<path fill="none" stroke="#000000" d="M617.8588,-547.3008C596.4541,-533.4 622.3168,-480.9743 591,-457.7375 508.3017,-396.3761 457.9337,-464.4953 361,-429.7375 338.4269,-421.6434 339.4804,-400.7375 315.5,-400.7375"/>
<polygon fill="#000000" stroke="#000000" points="624.2263,-548.8483 631.1498,-554.2357 628.1131,-549.7929 632,-550.7375 632,-550.7375 632,-550.7375 628.1131,-549.7929 632.8502,-547.2394 624.2263,-548.8483 624.2263,-548.8483"/>
<ellipse fill="none" stroke="#000000" cx="621.1168" cy="-548.0925" rx="3.2" ry="3.2"/>
</g>
<!-- ProfessorCompetencyAssignments&#45;&gt;EvaluationPeriods -->
<g id="edge19" class="edge">
<title>ProfessorCompetencyAssignments:w&#45;&gt;EvaluationPeriods:e</title>
<path fill="none" stroke="#000000" d="M618.6158,-544.5072C591.5389,-514.3643 609.9989,-383.6505 591,-347.7375 578.2137,-323.568 575.3433,-303.7375 548,-303.7375"/>
<polygon fill="#000000" stroke="#000000" points="624.7473,-547.3613 630.4807,-554.0013 628.3737,-549.0494 632,-550.7375 632,-550.7375 632,-550.7375 628.3737,-549.0494 633.5193,-547.4738 624.7473,-547.3613 624.7473,-547.3613"/>
<ellipse fill="none" stroke="#000000" cx="621.8462" cy="-546.0109" rx="3.2" ry="3.2"/>
</g>
<!-- Professors -->
<g id="node13" class="node">
<title>Professors</title>
<g id="a_node13"><a xlink:href="../../tables/Professors.html" xlink:title="Professors" target="_top">
<polygon fill="#ffffff" stroke="transparent" points="195,-495.2375 195,-556.2375 296,-556.2375 296,-495.2375 195,-495.2375"/>
<polygon fill="#f5f5f5" stroke="transparent" points="195.5,-532.7375 195.5,-555.7375 296.5,-555.7375 296.5,-532.7375 195.5,-532.7375"/>
<polygon fill="none" stroke="#000000" points="195.5,-532.7375 195.5,-555.7375 296.5,-555.7375 296.5,-532.7375 195.5,-532.7375"/>
<text text-anchor="start" x="200.5" y="-541.3375" font-family="Helvetica,sans-Serif" font-weight="bold" font-size="11.00" fill="#000000">Professors</text>
<text text-anchor="start" x="262.0219" y="-540.8375" font-family="Helvetica,sans-Serif" font-size="11.00" fill="#000000">[table]</text>
<polygon fill="none" stroke="#000000" points="195.5,-513.7375 195.5,-532.7375 296.5,-532.7375 296.5,-513.7375 195.5,-513.7375"/>
<text text-anchor="start" x="198.5" y="-519.8375" font-family="Helvetica,sans-Serif" font-size="11.00" fill="#000000">...</text>
<polygon fill="#ffffff" stroke="transparent" points="195.5,-494.7375 195.5,-513.7375 226.5,-513.7375 226.5,-494.7375 195.5,-494.7375"/>
<polygon fill="none" stroke="#000000" points="195.5,-494.7375 195.5,-513.7375 226.5,-513.7375 226.5,-494.7375 195.5,-494.7375"/>
<text text-anchor="start" x="198.5" y="-500.8375" font-family="Helvetica,sans-Serif" font-size="11.00" fill="#000000">&lt; 1</text>
<polygon fill="#ffffff" stroke="transparent" points="226.5,-494.7375 226.5,-513.7375 269.5,-513.7375 269.5,-494.7375 226.5,-494.7375"/>
<polygon fill="none" stroke="#000000" points="226.5,-494.7375 226.5,-513.7375 269.5,-513.7375 269.5,-494.7375 226.5,-494.7375"/>
<text text-anchor="start" x="234.1105" y="-500.8375" font-family="Helvetica,sans-Serif" font-size="11.00" fill="#000000">0 rows</text>
<polygon fill="#ffffff" stroke="transparent" points="269.5,-494.7375 269.5,-513.7375 296.5,-513.7375 296.5,-494.7375 269.5,-494.7375"/>
<polygon fill="none" stroke="#000000" points="269.5,-494.7375 269.5,-513.7375 296.5,-513.7375 296.5,-494.7375 269.5,-494.7375"/>
<text text-anchor="start" x="277.9053" y="-500.8375" font-family="Helvetica,sans-Serif" font-size="11.00" fill="#000000">2 &gt;</text>
</a>
</g>
</g>
<!-- ProfessorCompetencyAssignments&#45;&gt;Professors -->
<g id="edge20" class="edge">
<title>ProfessorCompetencyAssignments:w&#45;&gt;Professors:e</title>
<path fill="none" stroke="#000000" d="M617.2736,-550.7717C508.6767,-551.2742 475.1999,-556.8963 361,-539.7375 331.6834,-535.3327 326.1456,-522.7375 296.5,-522.7375"/>
<polygon fill="#000000" stroke="#000000" points="624,-550.7562 632.0084,-554.3375 628,-550.7469 632,-550.7375 632,-550.7375 632,-550.7375 628,-550.7469 631.9916,-547.1375 624,-550.7562 624,-550.7562"/>
<ellipse fill="none" stroke="#000000" cx="620.8" cy="-550.7636" rx="3.2" ry="3.2"/>
</g>
<!-- Subjects -->
<g id="node14" class="node">
<title>Subjects</title>
<g id="a_node14"><a xlink:href="../../tables/Subjects.html" xlink:title="Subjects" target="_top">
<polygon fill="#ffffff" stroke="transparent" points="431.5,-468.2375 431.5,-529.2375 520.5,-529.2375 520.5,-468.2375 431.5,-468.2375"/>
<polygon fill="#f5f5f5" stroke="transparent" points="432,-505.7375 432,-528.7375 521,-528.7375 521,-505.7375 432,-505.7375"/>
<polygon fill="none" stroke="#000000" points="432,-505.7375 432,-528.7375 521,-528.7375 521,-505.7375 432,-505.7375"/>
<text text-anchor="start" x="437" y="-514.3375" font-family="Helvetica,sans-Serif" font-weight="bold" font-size="11.00" fill="#000000">Subjects</text>
<text text-anchor="start" x="486.5219" y="-513.8375" font-family="Helvetica,sans-Serif" font-size="11.00" fill="#000000">[table]</text>
<polygon fill="none" stroke="#000000" points="432,-486.7375 432,-505.7375 521,-505.7375 521,-486.7375 432,-486.7375"/>
<text text-anchor="start" x="435" y="-492.8375" font-family="Helvetica,sans-Serif" font-size="11.00" fill="#000000">...</text>
<polygon fill="#ffffff" stroke="transparent" points="432,-467.7375 432,-486.7375 457,-486.7375 457,-467.7375 432,-467.7375"/>
<polygon fill="none" stroke="#000000" points="432,-467.7375 432,-486.7375 457,-486.7375 457,-467.7375 432,-467.7375"/>
<text text-anchor="start" x="435" y="-473.8375" font-family="Helvetica,sans-Serif" font-size="11.00" fill="#000000">&lt; 4</text>
<polygon fill="#ffffff" stroke="transparent" points="457,-467.7375 457,-486.7375 497,-486.7375 497,-467.7375 457,-467.7375"/>
<polygon fill="none" stroke="#000000" points="457,-467.7375 457,-486.7375 497,-486.7375 497,-467.7375 457,-467.7375"/>
<text text-anchor="start" x="461.6105" y="-473.8375" font-family="Helvetica,sans-Serif" font-size="11.00" fill="#000000">0 rows</text>
<polygon fill="#ffffff" stroke="transparent" points="497,-467.7375 497,-486.7375 521,-486.7375 521,-467.7375 497,-467.7375"/>
<polygon fill="none" stroke="#000000" points="497,-467.7375 497,-486.7375 521,-486.7375 521,-467.7375 497,-467.7375"/>
<text text-anchor="start" x="502.4053" y="-473.8375" font-family="Helvetica,sans-Serif" font-size="11.00" fill="#000000">3 &gt;</text>
</a>
</g>
</g>
<!-- ProfessorCompetencyAssignments&#45;&gt;Subjects -->
<g id="edge21" class="edge">
<title>ProfessorCompetencyAssignments:w&#45;&gt;Subjects:e</title>
<path fill="none" stroke="#000000" d="M617.5861,-549.3227C576.277,-540.7139 570.7882,-495.7375 521,-495.7375"/>
<polygon fill="#000000" stroke="#000000" points="624.0383,-549.956 631.6483,-554.3203 628.0191,-550.3468 632,-550.7375 632,-550.7375 632,-550.7375 628.0191,-550.3468 632.3517,-547.1548 624.0383,-549.956 624.0383,-549.956"/>
<ellipse fill="none" stroke="#000000" cx="620.8536" cy="-549.6434" rx="3.2" ry="3.2"/>
</g>
<!-- Professors&#45;&gt;AspNetUsers -->
<g id="edge24" class="edge">
<title>Professors:w&#45;&gt;AspNetUsers:e</title>
<path fill="none" stroke="#000000" d="M184.8791,-522.7375C166.6369,-522.7375 147.5224,-522.7375 130.0515,-522.7375"/>
<polygon fill="#000000" stroke="#000000" points="194.7,-518.7375 194.7,-526.7375 193.1,-526.7376 193.1,-518.7376 194.7,-518.7375"/>
<polyline fill="none" stroke="#000000" points="195.5,-522.7375 191.5,-522.7376 "/>
<ellipse fill="none" stroke="#000000" cx="188.3" cy="-522.7376" rx="3.2" ry="3.2"/>
</g>
<!-- Subjects&#45;&gt;AspNetUsers -->
<g id="edge44" class="edge">
<title>Subjects:w&#45;&gt;AspNetUsers:e</title>
<path fill="none" stroke="#000000" d="M417.4632,-493.6128C382.551,-487.8783 369.1575,-480.9081 328,-478.7375 254.7684,-474.8755 235.0826,-465.2515 163,-478.7375 151.6997,-480.8517 140.0262,-484.2267 128.8475,-488.2033"/>
<polygon fill="#000000" stroke="#000000" points="424.0841,-494.5805 431.4793,-499.2997 428.0421,-495.159 432,-495.7375 432,-495.7375 432,-495.7375 428.0421,-495.159 432.5207,-492.1754 424.0841,-494.5805 424.0841,-494.5805"/>
<ellipse fill="none" stroke="#000000" cx="420.9178" cy="-494.1177" rx="3.2" ry="3.2"/>
</g>
<!-- Subjects&#45;&gt;AspNetUsers -->
<g id="edge47" class="edge">
<title>Subjects:w&#45;&gt;AspNetUsers:e</title>
<path fill="none" stroke="#000000" d="M417.4632,-497.5492C382.551,-500.8783 369.1575,-493.9081 328,-491.7375 254.7684,-487.8755 235.0826,-478.2515 163,-491.7375 152.1481,-493.7678 140.9521,-496.9608 130.1806,-500.5612"/>
<polygon fill="#000000" stroke="#000000" points="424.0614,-496.7269 432.4452,-499.3099 428.0307,-496.2322 432,-495.7375 432,-495.7375 432,-495.7375 428.0307,-496.2322 431.5548,-492.1652 424.0614,-496.7269 424.0614,-496.7269"/>
<ellipse fill="none" stroke="#000000" cx="420.886" cy="-497.1227" rx="3.2" ry="3.2"/>
</g>
<!-- Subjects&#45;&gt;TechnicalCareers -->
<g id="edge46" class="edge">
<title>Subjects:w&#45;&gt;TechnicalCareers:e</title>
<path fill="none" stroke="#000000" d="M417.5132,-494.562C393.0019,-490.1496 384.9236,-473.7979 361,-453.7375 337.2112,-433.7903 346.5452,-400.7375 315.5,-400.7375"/>
<polygon fill="#000000" stroke="#000000" points="424.0262,-495.0905 431.7088,-499.3257 428.0131,-495.414 432,-495.7375 432,-495.7375 432,-495.7375 428.0131,-495.414 432.2912,-492.1493 424.0262,-495.0905 424.0262,-495.0905"/>
<ellipse fill="none" stroke="#000000" cx="420.8367" cy="-494.8316" rx="3.2" ry="3.2"/>
</g>
<!-- Subjects&#45;&gt;Professors -->
<g id="edge45" class="edge">
<title>Subjects:w&#45;&gt;Professors:e</title>
<path fill="none" stroke="#000000" d="M417.5017,-496.2769C368.1191,-500.0823 352.749,-522.7375 296.5,-522.7375"/>
<polygon fill="#000000" stroke="#000000" points="424.0055,-496.035 432.1339,-499.3351 428.0028,-495.8863 432,-495.7375 432,-495.7375 432,-495.7375 428.0028,-495.8863 431.8661,-492.14 424.0055,-496.035 424.0055,-496.035"/>
<ellipse fill="none" stroke="#000000" cx="420.8077" cy="-496.154" rx="3.2" ry="3.2"/>
</g>
<!-- QuestionResponses -->
<g id="node15" class="node">
<title>QuestionResponses</title>
<g id="a_node15"><a xlink:href="../../tables/QuestionResponses.html" xlink:title="QuestionResponses" target="_top">
<polygon fill="#ffffff" stroke="transparent" points="1195,-201.7375 1195,-467.7375 1502,-467.7375 1502,-201.7375 1195,-201.7375"/>
<polygon fill="#f5f5f5" stroke="transparent" points="1197.5,-442.7375 1197.5,-465.7375 1500.5,-465.7375 1500.5,-442.7375 1197.5,-442.7375"/>
<polygon fill="none" stroke="#000000" points="1197.5,-442.7375 1197.5,-465.7375 1500.5,-465.7375 1500.5,-442.7375 1197.5,-442.7375"/>
<text text-anchor="start" x="1202.5" y="-451.3375" font-family="Helvetica,sans-Serif" font-weight="bold" font-size="11.00" fill="#000000">QuestionResponses</text>
<text text-anchor="start" x="1465.5437" y="-450.8375" font-family="Helvetica,sans-Serif" font-size="11.00" fill="#000000">[table]</text>
<polygon fill="none" stroke="#000000" points="1197.5,-420.7375 1197.5,-442.7375 1406.5,-442.7375 1406.5,-420.7375 1197.5,-420.7375"/>
<image xlink:href="../../images/primaryKeys.png" width="11px" height="12px" preserveAspectRatio="xMinYMin meet" x="1202.5" y="-437.738"/>
<text text-anchor="start" x="1217.5" y="-427.8375" font-family="Helvetica,sans-Serif" font-size="11.00" fill="#000000">Id</text>
<polygon fill="none" stroke="#000000" points="1406.5,-420.7375 1406.5,-442.7375 1500.5,-442.7375 1500.5,-420.7375 1406.5,-420.7375"/>
<text text-anchor="start" x="1409.4758" y="-428.4375" font-family="Helvetica,sans-Serif" font-size="11.00" fill="#000000">uuid[2147483647]</text>
<polygon fill="#ffffff" stroke="transparent" points="1197.5,-398.7375 1197.5,-420.7375 1406.5,-420.7375 1406.5,-398.7375 1197.5,-398.7375"/>
<polygon fill="none" stroke="#000000" points="1197.5,-398.7375 1197.5,-420.7375 1406.5,-420.7375 1406.5,-398.7375 1197.5,-398.7375"/>
<image xlink:href="../../images/foreignKeys.png" width="11px" height="12px" preserveAspectRatio="xMinYMin meet" x="1202.5" y="-415.738"/>
<text text-anchor="start" x="1217.5" y="-405.8375" font-family="Helvetica,sans-Serif" font-size="11.00" fill="#000000">FormQuestionId</text>
<polygon fill="none" stroke="#000000" points="1406.5,-398.7375 1406.5,-420.7375 1500.5,-420.7375 1500.5,-398.7375 1406.5,-398.7375"/>
<text text-anchor="start" x="1409.4758" y="-406.4375" font-family="Helvetica,sans-Serif" font-size="11.00" fill="#000000">uuid[2147483647]</text>
<polygon fill="#ffffff" stroke="transparent" points="1197.5,-376.7375 1197.5,-398.7375 1406.5,-398.7375 1406.5,-376.7375 1197.5,-376.7375"/>
<polygon fill="none" stroke="#000000" points="1197.5,-376.7375 1197.5,-398.7375 1406.5,-398.7375 1406.5,-376.7375 1197.5,-376.7375"/>
<image xlink:href="../../images/foreignKeys.png" width="11px" height="12px" preserveAspectRatio="xMinYMin meet" x="1202.5" y="-393.738"/>
<text text-anchor="start" x="1217.5" y="-383.8375" font-family="Helvetica,sans-Serif" font-size="11.00" fill="#000000">StudentCompetencyEvaluationId</text>
<polygon fill="none" stroke="#000000" points="1406.5,-376.7375 1406.5,-398.7375 1500.5,-398.7375 1500.5,-376.7375 1406.5,-376.7375"/>
<text text-anchor="start" x="1409.4758" y="-384.4375" font-family="Helvetica,sans-Serif" font-size="11.00" fill="#000000">uuid[2147483647]</text>
<polygon fill="none" stroke="#000000" points="1197.5,-354.7375 1197.5,-376.7375 1406.5,-376.7375 1406.5,-354.7375 1197.5,-354.7375"/>
<text text-anchor="start" x="1217.5" y="-361.8375" font-family="Helvetica,sans-Serif" font-size="11.00" fill="#000000">ResponseValue</text>
<polygon fill="none" stroke="#000000" points="1406.5,-354.7375 1406.5,-376.7375 1500.5,-376.7375 1500.5,-354.7375 1406.5,-354.7375"/>
<text text-anchor="start" x="1409.5" y="-362.4375" font-family="Helvetica,sans-Serif" font-size="11.00" fill="#000000">int4[10]</text>
<polygon fill="none" stroke="#000000" points="1197.5,-332.7375 1197.5,-354.7375 1406.5,-354.7375 1406.5,-332.7375 1197.5,-332.7375"/>
<text text-anchor="start" x="1217.5" y="-339.8375" font-family="Helvetica,sans-Serif" font-size="11.00" fill="#000000">Comments</text>
<polygon fill="none" stroke="#000000" points="1406.5,-332.7375 1406.5,-354.7375 1500.5,-354.7375 1500.5,-332.7375 1406.5,-332.7375"/>
<text text-anchor="start" x="1409.5" y="-340.4375" font-family="Helvetica,sans-Serif" font-size="11.00" fill="#000000">text[2147483647]</text>
<polygon fill="none" stroke="#000000" points="1197.5,-310.7375 1197.5,-332.7375 1406.5,-332.7375 1406.5,-310.7375 1197.5,-310.7375"/>
<text text-anchor="start" x="1217.5" y="-317.8375" font-family="Helvetica,sans-Serif" font-size="11.00" fill="#000000">IsActive</text>
<polygon fill="none" stroke="#000000" points="1406.5,-310.7375 1406.5,-332.7375 1500.5,-332.7375 1500.5,-310.7375 1406.5,-310.7375"/>
<text text-anchor="start" x="1409.5" y="-318.4375" font-family="Helvetica,sans-Serif" font-size="11.00" fill="#000000">bool[1]</text>
<polygon fill="none" stroke="#000000" points="1197.5,-288.7375 1197.5,-310.7375 1406.5,-310.7375 1406.5,-288.7375 1197.5,-288.7375"/>
<text text-anchor="start" x="1217.5" y="-295.8375" font-family="Helvetica,sans-Serif" font-size="11.00" fill="#000000">CreatedAt</text>
<polygon fill="none" stroke="#000000" points="1406.5,-288.7375 1406.5,-310.7375 1500.5,-310.7375 1500.5,-288.7375 1406.5,-288.7375"/>
<text text-anchor="start" x="1409.5" y="-296.4375" font-family="Helvetica,sans-Serif" font-size="11.00" fill="#000000">timestamptz[35,6]</text>
<polygon fill="none" stroke="#000000" points="1197.5,-266.7375 1197.5,-288.7375 1406.5,-288.7375 1406.5,-266.7375 1197.5,-266.7375"/>
<text text-anchor="start" x="1217.5" y="-273.8375" font-family="Helvetica,sans-Serif" font-size="11.00" fill="#000000">UpdatedAt</text>
<polygon fill="none" stroke="#000000" points="1406.5,-266.7375 1406.5,-288.7375 1500.5,-288.7375 1500.5,-266.7375 1406.5,-266.7375"/>
<text text-anchor="start" x="1409.5" y="-274.4375" font-family="Helvetica,sans-Serif" font-size="11.00" fill="#000000">timestamptz[35,6]</text>
<polygon fill="#ffffff" stroke="transparent" points="1197.5,-244.7375 1197.5,-266.7375 1406.5,-266.7375 1406.5,-244.7375 1197.5,-244.7375"/>
<polygon fill="none" stroke="#000000" points="1197.5,-244.7375 1197.5,-266.7375 1406.5,-266.7375 1406.5,-244.7375 1197.5,-244.7375"/>
<image xlink:href="../../images/foreignKeys.png" width="11px" height="12px" preserveAspectRatio="xMinYMin meet" x="1202.5" y="-261.738"/>
<text text-anchor="start" x="1217.5" y="-251.8375" font-family="Helvetica,sans-Serif" font-size="11.00" fill="#000000">CreatedByUserId</text>
<polygon fill="none" stroke="#000000" points="1406.5,-244.7375 1406.5,-266.7375 1500.5,-266.7375 1500.5,-244.7375 1406.5,-244.7375"/>
<text text-anchor="start" x="1409.5" y="-252.4375" font-family="Helvetica,sans-Serif" font-size="11.00" fill="#000000">text[2147483647]</text>
<polygon fill="#ffffff" stroke="transparent" points="1197.5,-222.7375 1197.5,-244.7375 1406.5,-244.7375 1406.5,-222.7375 1197.5,-222.7375"/>
<polygon fill="none" stroke="#000000" points="1197.5,-222.7375 1197.5,-244.7375 1406.5,-244.7375 1406.5,-222.7375 1197.5,-222.7375"/>
<image xlink:href="../../images/foreignKeys.png" width="11px" height="12px" preserveAspectRatio="xMinYMin meet" x="1202.5" y="-239.738"/>
<text text-anchor="start" x="1217.5" y="-229.8375" font-family="Helvetica,sans-Serif" font-size="11.00" fill="#000000">UpdatedByUserId</text>
<polygon fill="none" stroke="#000000" points="1406.5,-222.7375 1406.5,-244.7375 1500.5,-244.7375 1500.5,-222.7375 1406.5,-222.7375"/>
<text text-anchor="start" x="1409.5" y="-230.4375" font-family="Helvetica,sans-Serif" font-size="11.00" fill="#000000">text[2147483647]</text>
<polygon fill="#ffffff" stroke="transparent" points="1197.5,-203.7375 1197.5,-222.7375 1293.5,-222.7375 1293.5,-203.7375 1197.5,-203.7375"/>
<polygon fill="none" stroke="#000000" points="1197.5,-203.7375 1197.5,-222.7375 1293.5,-222.7375 1293.5,-203.7375 1197.5,-203.7375"/>
<text text-anchor="start" x="1200.5" y="-209.8375" font-family="Helvetica,sans-Serif" font-size="11.00" fill="#000000">&lt; 4</text>
<polygon fill="#ffffff" stroke="transparent" points="1293.5,-203.7375 1293.5,-222.7375 1406.5,-222.7375 1406.5,-203.7375 1293.5,-203.7375"/>
<polygon fill="none" stroke="#000000" points="1293.5,-203.7375 1293.5,-222.7375 1406.5,-222.7375 1406.5,-203.7375 1293.5,-203.7375"/>
<text text-anchor="start" x="1371.1105" y="-209.8375" font-family="Helvetica,sans-Serif" font-size="11.00" fill="#000000">0 rows</text>
<polygon fill="#ffffff" stroke="transparent" points="1406.5,-203.7375 1406.5,-222.7375 1500.5,-222.7375 1500.5,-203.7375 1406.5,-203.7375"/>
<polygon fill="none" stroke="#000000" points="1406.5,-203.7375 1406.5,-222.7375 1500.5,-222.7375 1500.5,-203.7375 1406.5,-203.7375"/>
<text text-anchor="start" x="1481.9053" y="-209.8375" font-family="Helvetica,sans-Serif" font-size="11.00" fill="#000000">0 &gt;</text>
<polygon fill="none" stroke="#000000" stroke-width="2" points="1196,-202.7375 1196,-466.7375 1501,-466.7375 1501,-202.7375 1196,-202.7375"/>
</a>
</g>
</g>
<!-- QuestionResponses&#45;&gt;AspNetUsers -->
<g id="edge25" class="edge">
<title>QuestionResponses:w&#45;&gt;AspNetUsers:e</title>
<path fill="none" stroke="#000000" d="M1182.9297,-255.4078C1041.3936,-248.8641 1026.5748,-146.6781 882,-105.7375 826.5119,-90.0245 810.67,-91.7375 753,-91.7375 753,-91.7375 753,-91.7375 476,-91.7375 406.4015,-91.7375 216.7507,-58.5243 163,-102.7375 103.0778,-152.0272 75.9485,-396.7797 67.789,-488.2086"/>
<polygon fill="#000000" stroke="#000000" points="1189.502,-255.5565 1197.4185,-259.3366 1193.501,-255.647 1197.5,-255.7375 1197.5,-255.7375 1197.5,-255.7375 1193.501,-255.647 1197.5815,-252.1385 1189.502,-255.5565 1189.502,-255.5565"/>
<ellipse fill="none" stroke="#000000" cx="1186.3029" cy="-255.4841" rx="3.2" ry="3.2"/>
</g>
<!-- QuestionResponses&#45;&gt;AspNetUsers -->
<g id="edge28" class="edge">
<title>QuestionResponses:w&#45;&gt;AspNetUsers:e</title>
<path fill="none" stroke="#000000" d="M1183.2085,-231.0924C1152.0622,-216.5762 1193.4144,-146.1048 1154,-114.7375 1013.4688,-2.8985 932.6023,-64.7375 753,-64.7375 753,-64.7375 753,-64.7375 476,-64.7375 336.769,-64.7375 269.6895,11.7199 163,-77.7375 99.8049,-130.7256 74.542,-392.5847 67.3427,-487.9347"/>
<polygon fill="#000000" stroke="#000000" points="1189.6336,-232.2815 1196.8448,-237.2774 1193.5668,-233.0095 1197.5,-233.7375 1197.5,-233.7375 1197.5,-233.7375 1193.5668,-233.0095 1198.1552,-230.1977 1189.6336,-232.2815 1189.6336,-232.2815"/>
<ellipse fill="none" stroke="#000000" cx="1186.487" cy="-231.6991" rx="3.2" ry="3.2"/>
</g>
<!-- QuestionResponses&#45;&gt;FormQuestions -->
<g id="edge26" class="edge">
<title>QuestionResponses:w&#45;&gt;FormQuestions:e</title>
<path fill="none" stroke="#000000" d="M1183.056,-411.6638C1137.7078,-426.1053 1200.4896,-518.1426 1154,-564.7375 990.3329,-728.7755 686.0452,-714.3955 547.739,-697.7027"/>
<polygon fill="#000000" stroke="#000000" points="1189.5702,-410.7951 1197.9759,-413.3059 1193.5351,-410.2663 1197.5,-409.7375 1197.5,-409.7375 1197.5,-409.7375 1193.5351,-410.2663 1197.0241,-406.1691 1189.5702,-410.7951 1189.5702,-410.7951"/>
<ellipse fill="none" stroke="#000000" cx="1186.3983" cy="-411.2181" rx="3.2" ry="3.2"/>
</g>
<!-- StudentCompetencyEvaluations -->
<g id="node16" class="node">
<title>StudentCompetencyEvaluations</title>
<g id="a_node16"><a xlink:href="../../tables/StudentCompetencyEvaluations.html" xlink:title="StudentCompetencyEvaluations" target="_top">
<polygon fill="#ffffff" stroke="transparent" points="923,-493.2375 923,-554.2375 1146,-554.2375 1146,-493.2375 923,-493.2375"/>
<polygon fill="#f5f5f5" stroke="transparent" points="923.5,-530.7375 923.5,-553.7375 1146.5,-553.7375 1146.5,-530.7375 923.5,-530.7375"/>
<polygon fill="none" stroke="#000000" points="923.5,-530.7375 923.5,-553.7375 1146.5,-553.7375 1146.5,-530.7375 923.5,-530.7375"/>
<text text-anchor="start" x="928.5" y="-539.3375" font-family="Helvetica,sans-Serif" font-weight="bold" font-size="11.00" fill="#000000">StudentCompetencyEvaluations</text>
<text text-anchor="start" x="1112.0219" y="-538.8375" font-family="Helvetica,sans-Serif" font-size="11.00" fill="#000000">[table]</text>
<polygon fill="none" stroke="#000000" points="923.5,-511.7375 923.5,-530.7375 1146.5,-530.7375 1146.5,-511.7375 923.5,-511.7375"/>
<text text-anchor="start" x="926.5" y="-517.8375" font-family="Helvetica,sans-Serif" font-size="11.00" fill="#000000">...</text>
<polygon fill="#ffffff" stroke="transparent" points="923.5,-492.7375 923.5,-511.7375 1015.5,-511.7375 1015.5,-492.7375 923.5,-492.7375"/>
<polygon fill="none" stroke="#000000" points="923.5,-492.7375 923.5,-511.7375 1015.5,-511.7375 1015.5,-492.7375 923.5,-492.7375"/>
<text text-anchor="start" x="926.5" y="-498.8375" font-family="Helvetica,sans-Serif" font-size="11.00" fill="#000000">&lt; 5</text>
<polygon fill="#ffffff" stroke="transparent" points="1015.5,-492.7375 1015.5,-511.7375 1089.5,-511.7375 1089.5,-492.7375 1015.5,-492.7375"/>
<polygon fill="none" stroke="#000000" points="1015.5,-492.7375 1015.5,-511.7375 1089.5,-511.7375 1089.5,-492.7375 1015.5,-492.7375"/>
<text text-anchor="start" x="1054.1105" y="-498.8375" font-family="Helvetica,sans-Serif" font-size="11.00" fill="#000000">0 rows</text>
<polygon fill="#ffffff" stroke="transparent" points="1089.5,-492.7375 1089.5,-511.7375 1146.5,-511.7375 1146.5,-492.7375 1089.5,-492.7375"/>
<polygon fill="none" stroke="#000000" points="1089.5,-492.7375 1089.5,-511.7375 1146.5,-511.7375 1146.5,-492.7375 1089.5,-492.7375"/>
<text text-anchor="start" x="1127.9053" y="-498.8375" font-family="Helvetica,sans-Serif" font-size="11.00" fill="#000000">1 &gt;</text>
</a>
</g>
</g>
<!-- QuestionResponses&#45;&gt;StudentCompetencyEvaluations -->
<g id="edge27" class="edge">
<title>QuestionResponses:w&#45;&gt;StudentCompetencyEvaluations:e</title>
<path fill="none" stroke="#000000" d="M1182.9033,-388.8162C1126.3688,-397.1478 1080.4932,-451.9216 1055.3942,-489.0671"/>
<polygon fill="#000000" stroke="#000000" points="1189.5218,-388.3271 1197.7653,-391.3278 1193.5109,-388.0323 1197.5,-387.7375 1197.5,-387.7375 1197.5,-387.7375 1193.5109,-388.0323 1197.2347,-384.1473 1189.5218,-388.3271 1189.5218,-388.3271"/>
<ellipse fill="none" stroke="#000000" cx="1186.3305" cy="-388.563" rx="3.2" ry="3.2"/>
</g>
<!-- StudentCompetencyEvaluations&#45;&gt;AspNetUsers -->
<g id="edge29" class="edge">
<title>StudentCompetencyEvaluations:w&#45;&gt;AspNetUsers:e</title>
<path fill="none" stroke="#000000" d="M904.3456,-566.1354C897.6655,-574.5552 895.6091,-583.2227 882,-588.7375 810.3635,-617.7668 286.6857,-617.3794 163,-579.7375 146.746,-574.7909 130.6074,-566.3075 116.2585,-557.3529"/>
<polygon fill="#000000" stroke="#000000" points="909.2596,-561.8363 917.651,-559.2781 912.2701,-559.2025 915.2806,-556.5687 915.2806,-556.5687 915.2806,-556.5687 912.2701,-559.2025 912.9102,-553.8592 909.2596,-561.8363 909.2596,-561.8363"/>
<ellipse fill="none" stroke="#000000" cx="906.8512" cy="-563.9433" rx="3.2" ry="3.2"/>
</g>
<!-- StudentCompetencyEvaluations&#45;&gt;AspNetUsers -->
<g id="edge33" class="edge">
<title>StudentCompetencyEvaluations:w&#45;&gt;AspNetUsers:e</title>
<path fill="none" stroke="#000000" d="M923.995,-564.6645C920.9225,-566.2883 917.917,-567.9781 915,-569.7375 897.5059,-580.2892 900.9344,-594.0647 882,-601.7375 810.3635,-630.7668 286.6857,-630.3794 163,-592.7375 139.78,-585.6709 116.7955,-571.3864 98.9279,-557.4827"/>
<polygon fill="#000000" stroke="#000000" points="929.7561,-561.8567 938.5247,-561.5879 933.3518,-560.1042 936.9475,-558.3518 936.9475,-558.3518 936.9475,-558.3518 933.3518,-560.1042 935.3703,-555.1156 929.7561,-561.8567 929.7561,-561.8567"/>
<ellipse fill="none" stroke="#000000" cx="926.8796" cy="-563.2587" rx="3.2" ry="3.2"/>
</g>
<!-- StudentCompetencyEvaluations&#45;&gt;ProfessorCompetencyAssignments -->
<g id="edge30" class="edge">
<title>StudentCompetencyEvaluations:w&#45;&gt;ProfessorCompetencyAssignments:e</title>
<path fill="none" stroke="#000000" d="M900.332,-549.6807C891.4473,-550.3549 882.6115,-550.7375 874,-550.7375"/>
<polygon fill="#000000" stroke="#000000" points="906.8322,-549.079 915.13,-551.9261 910.8152,-548.7102 914.7982,-548.3415 914.7982,-548.3415 914.7982,-548.3415 910.8152,-548.7102 914.4663,-544.7568 906.8322,-549.079 906.8322,-549.079"/>
<ellipse fill="none" stroke="#000000" cx="903.6459" cy="-549.374" rx="3.2" ry="3.2"/>
</g>
<!-- StudentCompetencyEvaluations&#45;&gt;Subjects -->
<g id="edge32" class="edge">
<title>StudentCompetencyEvaluations:w&#45;&gt;Subjects:e</title>
<path fill="none" stroke="#000000" d="M900.1279,-512.3986C796.5957,-504.6348 649.8406,-495.7375 521,-495.7375"/>
<polygon fill="#000000" stroke="#000000" points="906.7857,-512.9042 914.4901,-517.0997 910.7742,-513.2071 914.7628,-513.51 914.7628,-513.51 914.7628,-513.51 910.7742,-513.2071 915.0354,-509.9204 906.7857,-512.9042 906.7857,-512.9042"/>
<ellipse fill="none" stroke="#000000" cx="903.5949" cy="-512.6618" rx="3.2" ry="3.2"/>
</g>
<!-- Students -->
<g id="node17" class="node">
<title>Students</title>
<g id="a_node17"><a xlink:href="../../tables/Students.html" xlink:title="Students" target="_top">
<polygon fill="#ffffff" stroke="transparent" points="431,-194.2375 431,-255.2375 521,-255.2375 521,-194.2375 431,-194.2375"/>
<polygon fill="#f5f5f5" stroke="transparent" points="431,-231.7375 431,-254.7375 521,-254.7375 521,-231.7375 431,-231.7375"/>
<polygon fill="none" stroke="#000000" points="431,-231.7375 431,-254.7375 521,-254.7375 521,-231.7375 431,-231.7375"/>
<text text-anchor="start" x="436" y="-240.3375" font-family="Helvetica,sans-Serif" font-weight="bold" font-size="11.00" fill="#000000">Students</text>
<text text-anchor="start" x="486.5219" y="-239.8375" font-family="Helvetica,sans-Serif" font-size="11.00" fill="#000000">[table]</text>
<polygon fill="none" stroke="#000000" points="431,-212.7375 431,-231.7375 521,-231.7375 521,-212.7375 431,-212.7375"/>
<text text-anchor="start" x="434" y="-218.8375" font-family="Helvetica,sans-Serif" font-size="11.00" fill="#000000">...</text>
<polygon fill="#ffffff" stroke="transparent" points="431,-193.7375 431,-212.7375 457,-212.7375 457,-193.7375 431,-193.7375"/>
<polygon fill="none" stroke="#000000" points="431,-193.7375 431,-212.7375 457,-212.7375 457,-193.7375 431,-193.7375"/>
<text text-anchor="start" x="434" y="-199.8375" font-family="Helvetica,sans-Serif" font-size="11.00" fill="#000000">&lt; 2</text>
<polygon fill="#ffffff" stroke="transparent" points="457,-193.7375 457,-212.7375 497,-212.7375 497,-193.7375 457,-193.7375"/>
<polygon fill="none" stroke="#000000" points="457,-193.7375 457,-212.7375 497,-212.7375 497,-193.7375 457,-193.7375"/>
<text text-anchor="start" x="461.6105" y="-199.8375" font-family="Helvetica,sans-Serif" font-size="11.00" fill="#000000">0 rows</text>
<polygon fill="#ffffff" stroke="transparent" points="497,-193.7375 497,-212.7375 521,-212.7375 521,-193.7375 497,-193.7375"/>
<polygon fill="none" stroke="#000000" points="497,-193.7375 497,-212.7375 521,-212.7375 521,-193.7375 497,-193.7375"/>
<text text-anchor="start" x="502.4053" y="-199.8375" font-family="Helvetica,sans-Serif" font-size="11.00" fill="#000000">3 &gt;</text>
</a>
</g>
</g>
<!-- StudentCompetencyEvaluations&#45;&gt;Students -->
<g id="edge31" class="edge">
<title>StudentCompetencyEvaluations:w&#45;&gt;Students:e</title>
<path fill="none" stroke="#000000" d="M966.6365,-481.3481C832.9657,-398.2003 546.2985,-221.7375 521,-221.7375"/>
<polygon fill="#000000" stroke="#000000" points="972.2892,-484.8667 977.1785,-492.1506 975.685,-486.9805 979.0809,-489.0943 979.0809,-489.0943 979.0809,-489.0943 975.685,-486.9805 980.9833,-486.038 972.2892,-484.8667 972.2892,-484.8667"/>
<ellipse fill="none" stroke="#000000" cx="969.5725" cy="-483.1756" rx="3.2" ry="3.2"/>
</g>
<!-- Students&#45;&gt;AspNetUsers -->
<g id="edge39" class="edge">
<title>Students:w&#45;&gt;AspNetUsers:e</title>
<path fill="none" stroke="#000000" d="M420.3131,-221.7237C304.2823,-221.4435 253.4816,-217.8174 163,-296.7375 104.9876,-347.3373 80.1054,-438.5121 70.4445,-488.1876"/>
<polygon fill="#000000" stroke="#000000" points="430.2052,-217.7365 430.1948,-225.7365 428.5948,-225.7344 428.6052,-217.7344 430.2052,-217.7365"/>
<polyline fill="none" stroke="#000000" points="431,-221.7375 427,-221.7323 "/>
<ellipse fill="none" stroke="#000000" cx="423.8" cy="-221.7281" rx="3.2" ry="3.2"/>
</g>
<!-- Students&#45;&gt;TechnicalCareers -->
<g id="edge38" class="edge">
<title>Students:w&#45;&gt;TechnicalCareers:e</title>
<path fill="none" stroke="#000000" d="M416.5949,-222.6819C390.9596,-226.3998 380.4559,-241.0461 361,-265.7375 321.8129,-315.4699 378.8162,-400.7375 315.5,-400.7375"/>
<polygon fill="#000000" stroke="#000000" points="423.0171,-222.2609 431.2355,-225.3298 427.0086,-221.9992 431,-221.7375 431,-221.7375 431,-221.7375 427.0086,-221.9992 430.7645,-218.1453 423.0171,-222.2609 423.0171,-222.2609"/>
<ellipse fill="none" stroke="#000000" cx="419.824" cy="-222.4703" rx="3.2" ry="3.2"/>
</g>
<!-- StudentEvaluationReport -->
<g id="node18" class="node">
<title>StudentEvaluationReport</title>
<g id="a_node18"><a xlink:href="../../tables/StudentEvaluationReport.html" xlink:title="StudentEvaluationReport" target="_top">
<polygon fill="#ffffff" stroke="transparent" points="661.5,-116.2375 661.5,-177.2375 844.5,-177.2375 844.5,-116.2375 661.5,-116.2375"/>
<polygon fill="#f5f5f5" stroke="transparent" points="662,-153.7375 662,-176.7375 845,-176.7375 845,-153.7375 662,-153.7375"/>
<polygon fill="none" stroke="#000000" points="662,-153.7375 662,-176.7375 845,-176.7375 845,-153.7375 662,-153.7375"/>
<text text-anchor="start" x="667" y="-162.3375" font-family="Helvetica,sans-Serif" font-weight="bold" font-size="11.00" fill="#000000">StudentEvaluationReport</text>
<text text-anchor="start" x="810.5219" y="-161.8375" font-family="Helvetica,sans-Serif" font-size="11.00" fill="#000000">[table]</text>
<polygon fill="none" stroke="#000000" points="662,-134.7375 662,-153.7375 845,-153.7375 845,-134.7375 662,-134.7375"/>
<text text-anchor="start" x="665" y="-140.8375" font-family="Helvetica,sans-Serif" font-size="11.00" fill="#000000">...</text>
<polygon fill="#ffffff" stroke="transparent" points="662,-115.7375 662,-134.7375 739,-134.7375 739,-115.7375 662,-115.7375"/>
<polygon fill="none" stroke="#000000" points="662,-115.7375 662,-134.7375 739,-134.7375 739,-115.7375 662,-115.7375"/>
<text text-anchor="start" x="665" y="-121.8375" font-family="Helvetica,sans-Serif" font-size="11.00" fill="#000000">&lt; 4</text>
<polygon fill="#ffffff" stroke="transparent" points="739,-115.7375 739,-134.7375 805,-134.7375 805,-115.7375 739,-115.7375"/>
<polygon fill="none" stroke="#000000" points="739,-115.7375 739,-134.7375 805,-134.7375 805,-115.7375 739,-115.7375"/>
<text text-anchor="start" x="769.6105" y="-121.8375" font-family="Helvetica,sans-Serif" font-size="11.00" fill="#000000">0 rows</text>
<polygon fill="#ffffff" stroke="transparent" points="805,-115.7375 805,-134.7375 845,-134.7375 845,-115.7375 805,-115.7375"/>
<polygon fill="none" stroke="#000000" points="805,-115.7375 805,-134.7375 845,-134.7375 845,-115.7375 805,-115.7375"/>
<text text-anchor="start" x="835.8862" y="-121.8375" font-family="Helvetica,sans-Serif" font-size="11.00" fill="#000000"> &#160;</text>
</a>
</g>
</g>
<!-- StudentEvaluationReport&#45;&gt;AspNetUsers -->
<g id="edge34" class="edge">
<title>StudentEvaluationReport:w&#45;&gt;AspNetUsers:e</title>
<path fill="none" stroke="#000000" d="M647.5273,-143.1934C435.2794,-132.9716 332.294,-29.593 163,-165.7375 112.5259,-206.3283 80.1013,-406.52 69.1417,-488.1179"/>
<polygon fill="#000000" stroke="#000000" points="654.0056,-143.4369 661.8647,-147.335 658.0028,-143.5872 662,-143.7375 662,-143.7375 662,-143.7375 658.0028,-143.5872 662.1353,-140.1401 654.0056,-143.4369 654.0056,-143.4369"/>
<ellipse fill="none" stroke="#000000" cx="650.8079" cy="-143.3167" rx="3.2" ry="3.2"/>
</g>
<!-- StudentEvaluationReport&#45;&gt;AspNetUsers -->
<g id="edge37" class="edge">
<title>StudentEvaluationReport:w&#45;&gt;AspNetUsers:e</title>
<path fill="none" stroke="#000000" d="M647.5273,-144.0317C435.2794,-145.9716 332.294,-42.593 163,-178.7375 113.8817,-218.2379 81.8563,-408.8801 70.0712,-488.1615"/>
<polygon fill="#000000" stroke="#000000" points="654.0017,-143.9001 662.0732,-147.3368 658.0008,-143.8188 662,-143.7375 662,-143.7375 662,-143.7375 658.0008,-143.8188 661.9268,-140.1383 654.0017,-143.9001 654.0017,-143.9001"/>
<ellipse fill="none" stroke="#000000" cx="650.8023" cy="-143.9652" rx="3.2" ry="3.2"/>
</g>
<!-- StudentEvaluationReport&#45;&gt;EvaluationPeriods -->
<g id="edge35" class="edge">
<title>StudentEvaluationReport:w&#45;&gt;EvaluationPeriods:e</title>
<path fill="none" stroke="#000000" d="M647.2899,-145.5344C581.6859,-163.1125 629.8578,-303.7375 548,-303.7375"/>
<polygon fill="#000000" stroke="#000000" points="654.059,-144.7076 662.4365,-147.311 658.0295,-144.2226 662,-143.7375 662,-143.7375 662,-143.7375 658.0295,-144.2226 661.5635,-140.1641 654.059,-144.7076 654.059,-144.7076"/>
<ellipse fill="none" stroke="#000000" cx="650.8826" cy="-145.0956" rx="3.2" ry="3.2"/>
</g>
<!-- StudentEvaluationReport&#45;&gt;Students -->
<g id="edge36" class="edge">
<title>StudentEvaluationReport:w&#45;&gt;Students:e</title>
<path fill="none" stroke="#000000" d="M647.5751,-144.9007C590.3207,-154.6036 587.4409,-221.7375 521,-221.7375"/>
<polygon fill="#000000" stroke="#000000" points="654.0259,-144.3806 662.2894,-147.3259 658.0129,-144.0591 662,-143.7375 662,-143.7375 662,-143.7375 658.0129,-144.0591 661.7106,-140.1492 654.0259,-144.3806 654.0259,-144.3806"/>
<ellipse fill="none" stroke="#000000" cx="650.8362" cy="-144.6378" rx="3.2" ry="3.2"/>
</g>
<!-- StudentSubjects -->
<g id="node19" class="node">
<title>StudentSubjects</title>
<g id="a_node19"><a xlink:href="../../tables/StudentSubjects.html" xlink:title="StudentSubjects" target="_top">
<polygon fill="#ffffff" stroke="transparent" points="686.5,-198.2375 686.5,-259.2375 819.5,-259.2375 819.5,-198.2375 686.5,-198.2375"/>
<polygon fill="#f5f5f5" stroke="transparent" points="687,-235.7375 687,-258.7375 820,-258.7375 820,-235.7375 687,-235.7375"/>
<polygon fill="none" stroke="#000000" points="687,-235.7375 687,-258.7375 820,-258.7375 820,-235.7375 687,-235.7375"/>
<text text-anchor="start" x="692" y="-244.3375" font-family="Helvetica,sans-Serif" font-weight="bold" font-size="11.00" fill="#000000">StudentSubjects</text>
<text text-anchor="start" x="785.5219" y="-243.8375" font-family="Helvetica,sans-Serif" font-size="11.00" fill="#000000">[table]</text>
<polygon fill="none" stroke="#000000" points="687,-216.7375 687,-235.7375 820,-235.7375 820,-216.7375 687,-216.7375"/>
<text text-anchor="start" x="690" y="-222.8375" font-family="Helvetica,sans-Serif" font-size="11.00" fill="#000000">...</text>
<polygon fill="#ffffff" stroke="transparent" points="687,-197.7375 687,-216.7375 739,-216.7375 739,-197.7375 687,-197.7375"/>
<polygon fill="none" stroke="#000000" points="687,-197.7375 687,-216.7375 739,-216.7375 739,-197.7375 687,-197.7375"/>
<text text-anchor="start" x="690" y="-203.8375" font-family="Helvetica,sans-Serif" font-size="11.00" fill="#000000">&lt; 4</text>
<polygon fill="#ffffff" stroke="transparent" points="739,-197.7375 739,-216.7375 792,-216.7375 792,-197.7375 739,-197.7375"/>
<polygon fill="none" stroke="#000000" points="739,-197.7375 739,-216.7375 792,-216.7375 792,-197.7375 739,-197.7375"/>
<text text-anchor="start" x="756.6105" y="-203.8375" font-family="Helvetica,sans-Serif" font-size="11.00" fill="#000000">0 rows</text>
<polygon fill="#ffffff" stroke="transparent" points="792,-197.7375 792,-216.7375 820,-216.7375 820,-197.7375 792,-197.7375"/>
<polygon fill="none" stroke="#000000" points="792,-197.7375 792,-216.7375 820,-216.7375 820,-197.7375 792,-197.7375"/>
<text text-anchor="start" x="810.8862" y="-203.8375" font-family="Helvetica,sans-Serif" font-size="11.00" fill="#000000"> &#160;</text>
</a>
</g>
</g>
<!-- StudentSubjects&#45;&gt;AspNetUsers -->
<g id="edge40" class="edge">
<title>StudentSubjects:w&#45;&gt;AspNetUsers:e</title>
<path fill="none" stroke="#000000" d="M672.6951,-222.7514C639.0221,-212.6765 631.4208,-186.1927 591,-177.7375 497.5566,-158.1912 234.7166,-151.726 163,-214.7375 121.539,-251.1659 84.9777,-415.3911 71.0199,-488.063"/>
<polygon fill="#000000" stroke="#000000" points="679.1688,-224.1028 686.2643,-229.2616 683.0844,-224.9201 687,-225.7375 687,-225.7375 687,-225.7375 683.0844,-224.9201 687.7357,-222.2135 679.1688,-224.1028 679.1688,-224.1028"/>
<ellipse fill="none" stroke="#000000" cx="676.0363" cy="-223.4488" rx="3.2" ry="3.2"/>
</g>
<!-- StudentSubjects&#45;&gt;AspNetUsers -->
<g id="edge43" class="edge">
<title>StudentSubjects:w&#45;&gt;AspNetUsers:e</title>
<path fill="none" stroke="#000000" d="M672.2516,-226.673C638.9545,-225.4435 631.2428,-199.1555 591,-190.7375 497.5566,-171.1912 234.7166,-164.726 163,-227.7375 122.8848,-262.9835 87.3564,-417.8644 72.4499,-488.0687"/>
<polygon fill="#000000" stroke="#000000" points="679.016,-226.244 687.2279,-229.3303 683.008,-225.9908 687,-225.7375 687,-225.7375 687,-225.7375 683.008,-225.9908 686.7721,-222.1448 679.016,-226.244 679.016,-226.244"/>
<ellipse fill="none" stroke="#000000" cx="675.8225" cy="-226.4466" rx="3.2" ry="3.2"/>
</g>
<!-- StudentSubjects&#45;&gt;Subjects -->
<g id="edge42" class="edge">
<title>StudentSubjects:w&#45;&gt;Subjects:e</title>
<path fill="none" stroke="#000000" d="M672.3515,-226.8254C554.3703,-245.4048 656.6383,-495.7375 521,-495.7375"/>
<polygon fill="#000000" stroke="#000000" points="679.022,-226.3301 687.2666,-229.3277 683.011,-226.0338 687,-225.7375 687,-225.7375 687,-225.7375 683.011,-226.0338 686.7334,-222.1474 679.022,-226.3301 679.022,-226.3301"/>
<ellipse fill="none" stroke="#000000" cx="675.8308" cy="-226.5671" rx="3.2" ry="3.2"/>
</g>
<!-- StudentSubjects&#45;&gt;Students -->
<g id="edge41" class="edge">
<title>StudentSubjects:w&#45;&gt;Students:e</title>
<path fill="none" stroke="#000000" d="M672.2161,-225.681C610.3392,-225.1948 589.6102,-221.7375 521,-221.7375"/>
<polygon fill="#000000" stroke="#000000" points="679.0001,-225.7069 686.9862,-229.3375 683,-225.7222 687,-225.7375 687,-225.7375 687,-225.7375 683,-225.7222 687.0138,-222.1376 679.0001,-225.7069 679.0001,-225.7069"/>
<ellipse fill="none" stroke="#000000" cx="675.8001" cy="-225.6946" rx="3.2" ry="3.2"/>
</g>
</g>
</svg>
