<?xml version="1.0" encoding="UTF-8" standalone="no"?>
<!DOCTYPE svg PUBLIC "-//W3C//DTD SVG 1.1//EN"
 "http://www.w3.org/Graphics/SVG/1.1/DTD/svg11.dtd">
<!-- Generated by graphviz version 2.40.1 (20161225.0304)
 -->
<!-- Title: oneDegreeRelationshipsDiagram Pages: 1 -->
<svg width="820pt" height="457pt"
 viewBox="0.00 0.00 820.00 457.12" xmlns="http://www.w3.org/2000/svg" xmlns:xlink="http://www.w3.org/1999/xlink">
<g id="graph0" class="graph" transform="scale(1 1) rotate(0) translate(4 453.1171)">
<title>oneDegreeRelationshipsDiagram</title>
<polygon fill="#ffffff" stroke="transparent" points="-4,4 -4,-453.1171 816,-453.1171 816,4 -4,4"/>
<text text-anchor="middle" x="72.4936" y="-7.3" font-family="Helvetica,sans-Serif" font-size="11.00" fill="#000000">Generated by SchemaSpy</text>
<!-- FormQuestions -->
<g id="node1" class="node">
<title>FormQuestions</title>
<g id="a_node1"><a xlink:href="../../tables/FormQuestions.html" xlink:title="FormQuestions" target="_top">
<polygon fill="#ffffff" stroke="transparent" points="270.5,-296.1171 270.5,-445.1171 397.5,-445.1171 397.5,-296.1171 270.5,-296.1171"/>
<polygon fill="#f5f5f5" stroke="transparent" points="271,-421.6171 271,-444.6171 398,-444.6171 398,-421.6171 271,-421.6171"/>
<polygon fill="none" stroke="#000000" points="271,-421.6171 271,-444.6171 398,-444.6171 398,-421.6171 271,-421.6171"/>
<text text-anchor="start" x="276" y="-430.2171" font-family="Helvetica,sans-Serif" font-weight="bold" font-size="11.00" fill="#000000">FormQuestions</text>
<text text-anchor="start" x="363.5219" y="-429.7171" font-family="Helvetica,sans-Serif" font-size="11.00" fill="#000000">[table]</text>
<polygon fill="none" stroke="#000000" points="271,-399.6171 271,-421.6171 398,-421.6171 398,-399.6171 271,-399.6171"/>
<image xlink:href="../../images/primaryKeys.png" width="11px" height="12px" preserveAspectRatio="xMinYMin meet" x="276" y="-416.617"/>
<text text-anchor="start" x="294" y="-406.7171" font-family="Helvetica,sans-Serif" font-size="11.00" fill="#000000">Id</text>
<polygon fill="#ffffff" stroke="transparent" points="271,-377.6171 271,-399.6171 398,-399.6171 398,-377.6171 271,-377.6171"/>
<polygon fill="none" stroke="#000000" points="271,-377.6171 271,-399.6171 398,-399.6171 398,-377.6171 271,-377.6171"/>
<image xlink:href="../../images/foreignKeys.png" width="11px" height="12px" preserveAspectRatio="xMinYMin meet" x="276" y="-394.617"/>
<text text-anchor="start" x="294" y="-384.7171" font-family="Helvetica,sans-Serif" font-size="11.00" fill="#000000">CompetencyId</text>
<polygon fill="#ffffff" stroke="transparent" points="271,-355.6171 271,-377.6171 398,-377.6171 398,-355.6171 271,-355.6171"/>
<polygon fill="none" stroke="#000000" points="271,-355.6171 271,-377.6171 398,-377.6171 398,-355.6171 271,-355.6171"/>
<image xlink:href="../../images/foreignKeys.png" width="11px" height="12px" preserveAspectRatio="xMinYMin meet" x="276" y="-372.617"/>
<text text-anchor="start" x="294" y="-362.7171" font-family="Helvetica,sans-Serif" font-size="11.00" fill="#000000">CreatedByUserId</text>
<polygon fill="#ffffff" stroke="transparent" points="271,-333.6171 271,-355.6171 398,-355.6171 398,-333.6171 271,-333.6171"/>
<polygon fill="none" stroke="#000000" points="271,-333.6171 271,-355.6171 398,-355.6171 398,-333.6171 271,-333.6171"/>
<image xlink:href="../../images/foreignKeys.png" width="11px" height="12px" preserveAspectRatio="xMinYMin meet" x="276" y="-350.617"/>
<text text-anchor="start" x="294" y="-340.7171" font-family="Helvetica,sans-Serif" font-size="11.00" fill="#000000">UpdatedByUserId</text>
<polygon fill="none" stroke="#000000" points="271,-314.6171 271,-333.6171 398,-333.6171 398,-314.6171 271,-314.6171"/>
<text text-anchor="start" x="274" y="-320.7171" font-family="Helvetica,sans-Serif" font-size="11.00" fill="#000000">...</text>
<polygon fill="#ffffff" stroke="transparent" points="271,-295.6171 271,-314.6171 315,-314.6171 315,-295.6171 271,-295.6171"/>
<polygon fill="none" stroke="#000000" points="271,-295.6171 271,-314.6171 315,-314.6171 315,-295.6171 271,-295.6171"/>
<text text-anchor="start" x="274" y="-301.7171" font-family="Helvetica,sans-Serif" font-size="11.00" fill="#000000">&lt; 3</text>
<polygon fill="#ffffff" stroke="transparent" points="315,-295.6171 315,-314.6171 365,-314.6171 365,-295.6171 315,-295.6171"/>
<polygon fill="none" stroke="#000000" points="315,-295.6171 315,-314.6171 365,-314.6171 365,-295.6171 315,-295.6171"/>
<text text-anchor="start" x="329.6105" y="-301.7171" font-family="Helvetica,sans-Serif" font-size="11.00" fill="#000000">0 rows</text>
<polygon fill="#ffffff" stroke="transparent" points="365,-295.6171 365,-314.6171 398,-314.6171 398,-295.6171 365,-295.6171"/>
<polygon fill="none" stroke="#000000" points="365,-295.6171 365,-314.6171 398,-314.6171 398,-295.6171 365,-295.6171"/>
<text text-anchor="start" x="379.4053" y="-301.7171" font-family="Helvetica,sans-Serif" font-size="11.00" fill="#000000">1 &gt;</text>
</a>
</g>
</g>
<!-- AspNetUsers -->
<g id="node2" class="node">
<title>AspNetUsers</title>
<g id="a_node2"><a xlink:href="../../tables/AspNetUsers.html" xlink:title="AspNetUsers" target="_top">
<polygon fill="#ffffff" stroke="transparent" points="8,-71.1171 8,-198.1171 171,-198.1171 171,-71.1171 8,-71.1171"/>
<polygon fill="#f5f5f5" stroke="transparent" points="8.5,-174.6171 8.5,-197.6171 171.5,-197.6171 171.5,-174.6171 8.5,-174.6171"/>
<polygon fill="none" stroke="#000000" points="8.5,-174.6171 8.5,-197.6171 171.5,-197.6171 171.5,-174.6171 8.5,-174.6171"/>
<text text-anchor="start" x="13.5" y="-183.2171" font-family="Helvetica,sans-Serif" font-weight="bold" font-size="11.00" fill="#000000">AspNetUsers</text>
<text text-anchor="start" x="136.5437" y="-182.7171" font-family="Helvetica,sans-Serif" font-size="11.00" fill="#000000">[table]</text>
<polygon fill="none" stroke="#000000" points="8.5,-152.6171 8.5,-174.6171 171.5,-174.6171 171.5,-152.6171 8.5,-152.6171"/>
<image xlink:href="../../images/primaryKeys.png" width="11px" height="12px" preserveAspectRatio="xMinYMin meet" x="13.5" y="-169.617"/>
<text text-anchor="start" x="28.5" y="-159.7171" font-family="Helvetica,sans-Serif" font-size="11.00" fill="#000000">Id</text>
<polygon fill="#ffffff" stroke="transparent" points="8.5,-130.6171 8.5,-152.6171 171.5,-152.6171 171.5,-130.6171 8.5,-130.6171"/>
<polygon fill="none" stroke="#000000" points="8.5,-130.6171 8.5,-152.6171 171.5,-152.6171 171.5,-130.6171 8.5,-130.6171"/>
<text text-anchor="start" x="28.5" y="-137.7171" font-family="Helvetica,sans-Serif" font-size="11.00" fill="#000000">NormalizedUserName</text>
<polygon fill="#ffffff" stroke="transparent" points="8.5,-108.6171 8.5,-130.6171 171.5,-130.6171 171.5,-108.6171 8.5,-108.6171"/>
<polygon fill="none" stroke="#000000" points="8.5,-108.6171 8.5,-130.6171 171.5,-130.6171 171.5,-108.6171 8.5,-108.6171"/>
<text text-anchor="start" x="28.5" y="-115.7171" font-family="Helvetica,sans-Serif" font-size="11.00" fill="#000000">NormalizedEmail</text>
<polygon fill="none" stroke="#000000" points="8.5,-89.6171 8.5,-108.6171 171.5,-108.6171 171.5,-89.6171 8.5,-89.6171"/>
<text text-anchor="start" x="11.5" y="-95.7171" font-family="Helvetica,sans-Serif" font-size="11.00" fill="#000000">...</text>
<polygon fill="#ffffff" stroke="transparent" points="8.5,-70.6171 8.5,-89.6171 63.5,-89.6171 63.5,-70.6171 8.5,-70.6171"/>
<polygon fill="none" stroke="#000000" points="8.5,-70.6171 8.5,-89.6171 63.5,-89.6171 63.5,-70.6171 8.5,-70.6171"/>
<text text-anchor="start" x="11.5" y="-76.7171" font-family="Helvetica,sans-Serif" font-size="11.00" fill="#000000"> &#160;</text>
<polygon fill="#ffffff" stroke="transparent" points="63.5,-70.6171 63.5,-89.6171 122.5,-89.6171 122.5,-70.6171 63.5,-70.6171"/>
<polygon fill="none" stroke="#000000" points="63.5,-70.6171 63.5,-89.6171 122.5,-89.6171 122.5,-70.6171 63.5,-70.6171"/>
<text text-anchor="start" x="87.1105" y="-76.7171" font-family="Helvetica,sans-Serif" font-size="11.00" fill="#000000">0 rows</text>
<polygon fill="#ffffff" stroke="transparent" points="122.5,-70.6171 122.5,-89.6171 171.5,-89.6171 171.5,-70.6171 122.5,-70.6171"/>
<polygon fill="none" stroke="#000000" points="122.5,-70.6171 122.5,-89.6171 171.5,-89.6171 171.5,-70.6171 122.5,-70.6171"/>
<text text-anchor="start" x="146.7904" y="-76.7171" font-family="Helvetica,sans-Serif" font-size="11.00" fill="#000000">29 &gt;</text>
</a>
</g>
</g>
<!-- FormQuestions&#45;&gt;AspNetUsers -->
<g id="edge1" class="edge">
<title>FormQuestions:w&#45;&gt;AspNetUsers:e</title>
<path fill="none" stroke="#000000" d="M256.5131,-364.7611C227.5286,-356.2966 229.8236,-320.2728 212,-285.6171 185.8701,-234.8108 228.6319,-163.6171 171.5,-163.6171"/>
<polygon fill="#000000" stroke="#000000" points="263.0649,-365.6004 270.5425,-370.1879 267.0324,-366.1088 271,-366.6171 271,-366.6171 271,-366.6171 267.0324,-366.1088 271.4575,-363.0463 263.0649,-365.6004 263.0649,-365.6004"/>
<ellipse fill="none" stroke="#000000" cx="259.8908" cy="-365.1938" rx="3.2" ry="3.2"/>
</g>
<!-- FormQuestions&#45;&gt;AspNetUsers -->
<g id="edge2" class="edge">
<title>FormQuestions:w&#45;&gt;AspNetUsers:e</title>
<path fill="none" stroke="#000000" d="M256.6071,-342.8794C232.8166,-336.3794 228.5856,-312.4902 212,-285.6171 181.9939,-236.9994 228.6319,-163.6171 171.5,-163.6171"/>
<polygon fill="#000000" stroke="#000000" points="263.0577,-343.6581 270.5685,-348.1911 267.0288,-344.1376 271,-344.6171 271,-344.6171 271,-344.6171 267.0288,-344.1376 271.4315,-341.043 263.0577,-343.6581 263.0577,-343.6581"/>
<ellipse fill="none" stroke="#000000" cx="259.8807" cy="-343.2746" rx="3.2" ry="3.2"/>
</g>
<!-- QuestionResponses -->
<g id="node3" class="node">
<title>QuestionResponses</title>
<g id="a_node3"><a xlink:href="../../tables/QuestionResponses.html" xlink:title="QuestionResponses" target="_top">
<polygon fill="#ffffff" stroke="transparent" points="497,-39.6171 497,-305.6171 804,-305.6171 804,-39.6171 497,-39.6171"/>
<polygon fill="#f5f5f5" stroke="transparent" points="499.5,-280.6171 499.5,-303.6171 802.5,-303.6171 802.5,-280.6171 499.5,-280.6171"/>
<polygon fill="none" stroke="#000000" points="499.5,-280.6171 499.5,-303.6171 802.5,-303.6171 802.5,-280.6171 499.5,-280.6171"/>
<text text-anchor="start" x="504.5" y="-289.2171" font-family="Helvetica,sans-Serif" font-weight="bold" font-size="11.00" fill="#000000">QuestionResponses</text>
<text text-anchor="start" x="767.5437" y="-288.7171" font-family="Helvetica,sans-Serif" font-size="11.00" fill="#000000">[table]</text>
<polygon fill="none" stroke="#000000" points="499.5,-258.6171 499.5,-280.6171 708.5,-280.6171 708.5,-258.6171 499.5,-258.6171"/>
<image xlink:href="../../images/primaryKeys.png" width="11px" height="12px" preserveAspectRatio="xMinYMin meet" x="504.5" y="-275.617"/>
<text text-anchor="start" x="519.5" y="-265.7171" font-family="Helvetica,sans-Serif" font-size="11.00" fill="#000000">Id</text>
<polygon fill="none" stroke="#000000" points="708.5,-258.6171 708.5,-280.6171 802.5,-280.6171 802.5,-258.6171 708.5,-258.6171"/>
<text text-anchor="start" x="711.4758" y="-266.3171" font-family="Helvetica,sans-Serif" font-size="11.00" fill="#000000">uuid[2147483647]</text>
<polygon fill="#ffffff" stroke="transparent" points="499.5,-236.6171 499.5,-258.6171 708.5,-258.6171 708.5,-236.6171 499.5,-236.6171"/>
<polygon fill="none" stroke="#000000" points="499.5,-236.6171 499.5,-258.6171 708.5,-258.6171 708.5,-236.6171 499.5,-236.6171"/>
<image xlink:href="../../images/foreignKeys.png" width="11px" height="12px" preserveAspectRatio="xMinYMin meet" x="504.5" y="-253.617"/>
<text text-anchor="start" x="519.5" y="-243.7171" font-family="Helvetica,sans-Serif" font-size="11.00" fill="#000000">FormQuestionId</text>
<polygon fill="none" stroke="#000000" points="708.5,-236.6171 708.5,-258.6171 802.5,-258.6171 802.5,-236.6171 708.5,-236.6171"/>
<text text-anchor="start" x="711.4758" y="-244.3171" font-family="Helvetica,sans-Serif" font-size="11.00" fill="#000000">uuid[2147483647]</text>
<polygon fill="#ffffff" stroke="transparent" points="499.5,-214.6171 499.5,-236.6171 708.5,-236.6171 708.5,-214.6171 499.5,-214.6171"/>
<polygon fill="none" stroke="#000000" points="499.5,-214.6171 499.5,-236.6171 708.5,-236.6171 708.5,-214.6171 499.5,-214.6171"/>
<image xlink:href="../../images/foreignKeys.png" width="11px" height="12px" preserveAspectRatio="xMinYMin meet" x="504.5" y="-231.617"/>
<text text-anchor="start" x="519.5" y="-221.7171" font-family="Helvetica,sans-Serif" font-size="11.00" fill="#000000">StudentCompetencyEvaluationId</text>
<polygon fill="none" stroke="#000000" points="708.5,-214.6171 708.5,-236.6171 802.5,-236.6171 802.5,-214.6171 708.5,-214.6171"/>
<text text-anchor="start" x="711.4758" y="-222.3171" font-family="Helvetica,sans-Serif" font-size="11.00" fill="#000000">uuid[2147483647]</text>
<polygon fill="none" stroke="#000000" points="499.5,-192.6171 499.5,-214.6171 708.5,-214.6171 708.5,-192.6171 499.5,-192.6171"/>
<text text-anchor="start" x="519.5" y="-199.7171" font-family="Helvetica,sans-Serif" font-size="11.00" fill="#000000">ResponseValue</text>
<polygon fill="none" stroke="#000000" points="708.5,-192.6171 708.5,-214.6171 802.5,-214.6171 802.5,-192.6171 708.5,-192.6171"/>
<text text-anchor="start" x="711.5" y="-200.3171" font-family="Helvetica,sans-Serif" font-size="11.00" fill="#000000">int4[10]</text>
<polygon fill="none" stroke="#000000" points="499.5,-170.6171 499.5,-192.6171 708.5,-192.6171 708.5,-170.6171 499.5,-170.6171"/>
<text text-anchor="start" x="519.5" y="-177.7171" font-family="Helvetica,sans-Serif" font-size="11.00" fill="#000000">Comments</text>
<polygon fill="none" stroke="#000000" points="708.5,-170.6171 708.5,-192.6171 802.5,-192.6171 802.5,-170.6171 708.5,-170.6171"/>
<text text-anchor="start" x="711.5" y="-178.3171" font-family="Helvetica,sans-Serif" font-size="11.00" fill="#000000">text[2147483647]</text>
<polygon fill="none" stroke="#000000" points="499.5,-148.6171 499.5,-170.6171 708.5,-170.6171 708.5,-148.6171 499.5,-148.6171"/>
<text text-anchor="start" x="519.5" y="-155.7171" font-family="Helvetica,sans-Serif" font-size="11.00" fill="#000000">IsActive</text>
<polygon fill="none" stroke="#000000" points="708.5,-148.6171 708.5,-170.6171 802.5,-170.6171 802.5,-148.6171 708.5,-148.6171"/>
<text text-anchor="start" x="711.5" y="-156.3171" font-family="Helvetica,sans-Serif" font-size="11.00" fill="#000000">bool[1]</text>
<polygon fill="none" stroke="#000000" points="499.5,-126.6171 499.5,-148.6171 708.5,-148.6171 708.5,-126.6171 499.5,-126.6171"/>
<text text-anchor="start" x="519.5" y="-133.7171" font-family="Helvetica,sans-Serif" font-size="11.00" fill="#000000">CreatedAt</text>
<polygon fill="none" stroke="#000000" points="708.5,-126.6171 708.5,-148.6171 802.5,-148.6171 802.5,-126.6171 708.5,-126.6171"/>
<text text-anchor="start" x="711.5" y="-134.3171" font-family="Helvetica,sans-Serif" font-size="11.00" fill="#000000">timestamptz[35,6]</text>
<polygon fill="none" stroke="#000000" points="499.5,-104.6171 499.5,-126.6171 708.5,-126.6171 708.5,-104.6171 499.5,-104.6171"/>
<text text-anchor="start" x="519.5" y="-111.7171" font-family="Helvetica,sans-Serif" font-size="11.00" fill="#000000">UpdatedAt</text>
<polygon fill="none" stroke="#000000" points="708.5,-104.6171 708.5,-126.6171 802.5,-126.6171 802.5,-104.6171 708.5,-104.6171"/>
<text text-anchor="start" x="711.5" y="-112.3171" font-family="Helvetica,sans-Serif" font-size="11.00" fill="#000000">timestamptz[35,6]</text>
<polygon fill="#ffffff" stroke="transparent" points="499.5,-82.6171 499.5,-104.6171 708.5,-104.6171 708.5,-82.6171 499.5,-82.6171"/>
<polygon fill="none" stroke="#000000" points="499.5,-82.6171 499.5,-104.6171 708.5,-104.6171 708.5,-82.6171 499.5,-82.6171"/>
<image xlink:href="../../images/foreignKeys.png" width="11px" height="12px" preserveAspectRatio="xMinYMin meet" x="504.5" y="-99.6171"/>
<text text-anchor="start" x="519.5" y="-89.7171" font-family="Helvetica,sans-Serif" font-size="11.00" fill="#000000">CreatedByUserId</text>
<polygon fill="none" stroke="#000000" points="708.5,-82.6171 708.5,-104.6171 802.5,-104.6171 802.5,-82.6171 708.5,-82.6171"/>
<text text-anchor="start" x="711.5" y="-90.3171" font-family="Helvetica,sans-Serif" font-size="11.00" fill="#000000">text[2147483647]</text>
<polygon fill="#ffffff" stroke="transparent" points="499.5,-60.6171 499.5,-82.6171 708.5,-82.6171 708.5,-60.6171 499.5,-60.6171"/>
<polygon fill="none" stroke="#000000" points="499.5,-60.6171 499.5,-82.6171 708.5,-82.6171 708.5,-60.6171 499.5,-60.6171"/>
<image xlink:href="../../images/foreignKeys.png" width="11px" height="12px" preserveAspectRatio="xMinYMin meet" x="504.5" y="-77.6171"/>
<text text-anchor="start" x="519.5" y="-67.7171" font-family="Helvetica,sans-Serif" font-size="11.00" fill="#000000">UpdatedByUserId</text>
<polygon fill="none" stroke="#000000" points="708.5,-60.6171 708.5,-82.6171 802.5,-82.6171 802.5,-60.6171 708.5,-60.6171"/>
<text text-anchor="start" x="711.5" y="-68.3171" font-family="Helvetica,sans-Serif" font-size="11.00" fill="#000000">text[2147483647]</text>
<polygon fill="#ffffff" stroke="transparent" points="499.5,-41.6171 499.5,-60.6171 595.5,-60.6171 595.5,-41.6171 499.5,-41.6171"/>
<polygon fill="none" stroke="#000000" points="499.5,-41.6171 499.5,-60.6171 595.5,-60.6171 595.5,-41.6171 499.5,-41.6171"/>
<text text-anchor="start" x="502.5" y="-47.7171" font-family="Helvetica,sans-Serif" font-size="11.00" fill="#000000">&lt; 4</text>
<polygon fill="#ffffff" stroke="transparent" points="595.5,-41.6171 595.5,-60.6171 708.5,-60.6171 708.5,-41.6171 595.5,-41.6171"/>
<polygon fill="none" stroke="#000000" points="595.5,-41.6171 595.5,-60.6171 708.5,-60.6171 708.5,-41.6171 595.5,-41.6171"/>
<text text-anchor="start" x="673.1105" y="-47.7171" font-family="Helvetica,sans-Serif" font-size="11.00" fill="#000000">0 rows</text>
<polygon fill="#ffffff" stroke="transparent" points="708.5,-41.6171 708.5,-60.6171 802.5,-60.6171 802.5,-41.6171 708.5,-41.6171"/>
<polygon fill="none" stroke="#000000" points="708.5,-41.6171 708.5,-60.6171 802.5,-60.6171 802.5,-41.6171 708.5,-41.6171"/>
<text text-anchor="start" x="783.9053" y="-47.7171" font-family="Helvetica,sans-Serif" font-size="11.00" fill="#000000">0 &gt;</text>
<polygon fill="none" stroke="#000000" stroke-width="2" points="498,-40.6171 498,-304.6171 803,-304.6171 803,-40.6171 498,-40.6171"/>
</a>
</g>
</g>
<!-- QuestionResponses&#45;&gt;FormQuestions -->
<g id="edge4" class="edge">
<title>QuestionResponses:w&#45;&gt;FormQuestions:e</title>
<path fill="none" stroke="#000000" d="M485.9422,-253.4183C452.8281,-282.455 435.8371,-410.6171 398,-410.6171"/>
<polygon fill="#000000" stroke="#000000" points="492.145,-250.7642 500.9162,-250.9268 495.8225,-249.1907 499.5,-247.6171 499.5,-247.6171 499.5,-247.6171 495.8225,-249.1907 498.0838,-244.3073 492.145,-250.7642 492.145,-250.7642"/>
<ellipse fill="none" stroke="#000000" cx="489.203" cy="-252.0231" rx="3.2" ry="3.2"/>
</g>
<!-- QuestionResponses&#45;&gt;AspNetUsers -->
<g id="edge3" class="edge">
<title>QuestionResponses:w&#45;&gt;AspNetUsers:e</title>
<path fill="none" stroke="#000000" d="M484.8781,-93.3363C367.7973,-88.8245 318.3643,-32.2725 212,-93.6171 180.8642,-111.5743 207.443,-163.6171 171.5,-163.6171"/>
<polygon fill="#000000" stroke="#000000" points="491.5015,-93.4634 499.4309,-97.2164 495.5007,-93.5402 499.5,-93.6171 499.5,-93.6171 499.5,-93.6171 495.5007,-93.5402 499.5691,-90.0177 491.5015,-93.4634 491.5015,-93.4634"/>
<ellipse fill="none" stroke="#000000" cx="488.3021" cy="-93.402" rx="3.2" ry="3.2"/>
</g>
<!-- QuestionResponses&#45;&gt;AspNetUsers -->
<g id="edge6" class="edge">
<title>QuestionResponses:w&#45;&gt;AspNetUsers:e</title>
<path fill="none" stroke="#000000" d="M484.9499,-70.1873C475.8215,-68.2411 469.6117,-64.8583 456,-63.6171 348.0036,-53.769 301.9299,-3.0133 212,-63.6171 172.2355,-90.4144 219.4511,-163.6171 171.5,-163.6171"/>
<polygon fill="#000000" stroke="#000000" points="491.5383,-70.8347 499.1479,-75.1998 495.5192,-71.2259 499.5,-71.6171 499.5,-71.6171 499.5,-71.6171 495.5192,-71.2259 499.8521,-68.0343 491.5383,-70.8347 491.5383,-70.8347"/>
<ellipse fill="none" stroke="#000000" cx="488.3537" cy="-70.5217" rx="3.2" ry="3.2"/>
</g>
<!-- StudentCompetencyEvaluations -->
<g id="node4" class="node">
<title>StudentCompetencyEvaluations</title>
<g id="a_node4"><a xlink:href="../../tables/StudentCompetencyEvaluations.html" xlink:title="StudentCompetencyEvaluations" target="_top">
<polygon fill="#ffffff" stroke="transparent" points="220,-104.1171 220,-275.1171 448,-275.1171 448,-104.1171 220,-104.1171"/>
<polygon fill="#f5f5f5" stroke="transparent" points="220,-251.6171 220,-274.6171 448,-274.6171 448,-251.6171 220,-251.6171"/>
<polygon fill="none" stroke="#000000" points="220,-251.6171 220,-274.6171 448,-274.6171 448,-251.6171 220,-251.6171"/>
<text text-anchor="start" x="225" y="-260.2171" font-family="Helvetica,sans-Serif" font-weight="bold" font-size="11.00" fill="#000000">StudentCompetencyEvaluations</text>
<text text-anchor="start" x="413.0437" y="-259.7171" font-family="Helvetica,sans-Serif" font-size="11.00" fill="#000000">[table]</text>
<polygon fill="none" stroke="#000000" points="220,-229.6171 220,-251.6171 448,-251.6171 448,-229.6171 220,-229.6171"/>
<image xlink:href="../../images/primaryKeys.png" width="11px" height="12px" preserveAspectRatio="xMinYMin meet" x="225" y="-246.617"/>
<text text-anchor="start" x="240" y="-236.7171" font-family="Helvetica,sans-Serif" font-size="11.00" fill="#000000">Id</text>
<polygon fill="#ffffff" stroke="transparent" points="220,-207.6171 220,-229.6171 448,-229.6171 448,-207.6171 220,-207.6171"/>
<polygon fill="none" stroke="#000000" points="220,-207.6171 220,-229.6171 448,-229.6171 448,-207.6171 220,-207.6171"/>
<image xlink:href="../../images/foreignKeys.png" width="11px" height="12px" preserveAspectRatio="xMinYMin meet" x="225" y="-224.617"/>
<text text-anchor="start" x="240" y="-214.7171" font-family="Helvetica,sans-Serif" font-size="11.00" fill="#000000">ProfessorCompetencyAssignmentId</text>
<polygon fill="#ffffff" stroke="transparent" points="220,-185.6171 220,-207.6171 448,-207.6171 448,-185.6171 220,-185.6171"/>
<polygon fill="none" stroke="#000000" points="220,-185.6171 220,-207.6171 448,-207.6171 448,-185.6171 220,-185.6171"/>
<image xlink:href="../../images/foreignKeys.png" width="11px" height="12px" preserveAspectRatio="xMinYMin meet" x="225" y="-202.617"/>
<text text-anchor="start" x="240" y="-192.7171" font-family="Helvetica,sans-Serif" font-size="11.00" fill="#000000">StudentId</text>
<polygon fill="#ffffff" stroke="transparent" points="220,-163.6171 220,-185.6171 448,-185.6171 448,-163.6171 220,-163.6171"/>
<polygon fill="none" stroke="#000000" points="220,-163.6171 220,-185.6171 448,-185.6171 448,-163.6171 220,-163.6171"/>
<image xlink:href="../../images/foreignKeys.png" width="11px" height="12px" preserveAspectRatio="xMinYMin meet" x="225" y="-180.617"/>
<text text-anchor="start" x="240" y="-170.7171" font-family="Helvetica,sans-Serif" font-size="11.00" fill="#000000">CreatedByUserId</text>
<polygon fill="#ffffff" stroke="transparent" points="220,-141.6171 220,-163.6171 448,-163.6171 448,-141.6171 220,-141.6171"/>
<polygon fill="none" stroke="#000000" points="220,-141.6171 220,-163.6171 448,-163.6171 448,-141.6171 220,-141.6171"/>
<image xlink:href="../../images/foreignKeys.png" width="11px" height="12px" preserveAspectRatio="xMinYMin meet" x="225" y="-158.617"/>
<text text-anchor="start" x="240" y="-148.7171" font-family="Helvetica,sans-Serif" font-size="11.00" fill="#000000">UpdatedByUserId</text>
<polygon fill="none" stroke="#000000" points="220,-122.6171 220,-141.6171 448,-141.6171 448,-122.6171 220,-122.6171"/>
<text text-anchor="start" x="223" y="-128.7171" font-family="Helvetica,sans-Serif" font-size="11.00" fill="#000000">...</text>
<polygon fill="#ffffff" stroke="transparent" points="220,-103.6171 220,-122.6171 315,-122.6171 315,-103.6171 220,-103.6171"/>
<polygon fill="none" stroke="#000000" points="220,-103.6171 220,-122.6171 315,-122.6171 315,-103.6171 220,-103.6171"/>
<text text-anchor="start" x="223" y="-109.7171" font-family="Helvetica,sans-Serif" font-size="11.00" fill="#000000">&lt; 4</text>
<polygon fill="#ffffff" stroke="transparent" points="315,-103.6171 315,-122.6171 390,-122.6171 390,-103.6171 315,-103.6171"/>
<polygon fill="none" stroke="#000000" points="315,-103.6171 315,-122.6171 390,-122.6171 390,-103.6171 315,-103.6171"/>
<text text-anchor="start" x="354.6105" y="-109.7171" font-family="Helvetica,sans-Serif" font-size="11.00" fill="#000000">0 rows</text>
<polygon fill="#ffffff" stroke="transparent" points="390,-103.6171 390,-122.6171 448,-122.6171 448,-103.6171 390,-103.6171"/>
<polygon fill="none" stroke="#000000" points="390,-103.6171 390,-122.6171 448,-122.6171 448,-103.6171 390,-103.6171"/>
<text text-anchor="start" x="429.4053" y="-109.7171" font-family="Helvetica,sans-Serif" font-size="11.00" fill="#000000">1 &gt;</text>
</a>
</g>
</g>
<!-- QuestionResponses&#45;&gt;StudentCompetencyEvaluations -->
<g id="edge5" class="edge">
<title>QuestionResponses:w&#45;&gt;StudentCompetencyEvaluations:e</title>
<path fill="none" stroke="#000000" d="M485.1328,-227.8304C472.6354,-232.0029 466.0663,-240.6171 448,-240.6171"/>
<polygon fill="#000000" stroke="#000000" points="491.5933,-226.8352 500.0481,-229.1751 495.5466,-226.2261 499.5,-225.6171 499.5,-225.6171 499.5,-225.6171 495.5466,-226.2261 498.9519,-222.0591 491.5933,-226.8352 491.5933,-226.8352"/>
<ellipse fill="none" stroke="#000000" cx="488.4306" cy="-227.3224" rx="3.2" ry="3.2"/>
</g>
<!-- StudentCompetencyEvaluations&#45;&gt;AspNetUsers -->
<g id="edge7" class="edge">
<title>StudentCompetencyEvaluations:w&#45;&gt;AspNetUsers:e</title>
<path fill="none" stroke="#000000" d="M205.4888,-172.701C194.3593,-169.5495 187.7319,-163.6171 171.5,-163.6171"/>
<polygon fill="#000000" stroke="#000000" points="212.0688,-173.5698 219.5287,-178.1861 216.0344,-174.0934 220,-174.6171 220,-174.6171 220,-174.6171 216.0344,-174.0934 220.4713,-171.0481 212.0688,-173.5698 212.0688,-173.5698"/>
<ellipse fill="none" stroke="#000000" cx="208.8964" cy="-173.1509" rx="3.2" ry="3.2"/>
</g>
<!-- StudentCompetencyEvaluations&#45;&gt;AspNetUsers -->
<g id="edge8" class="edge">
<title>StudentCompetencyEvaluations:w&#45;&gt;AspNetUsers:e</title>
<path fill="none" stroke="#000000" d="M205.4888,-154.5331C194.3593,-157.6847 187.7319,-163.6171 171.5,-163.6171"/>
<polygon fill="#000000" stroke="#000000" points="212.0688,-153.6644 220.4713,-156.1861 216.0344,-153.1407 220,-152.6171 220,-152.6171 220,-152.6171 216.0344,-153.1407 219.5287,-149.0481 212.0688,-153.6644 212.0688,-153.6644"/>
<ellipse fill="none" stroke="#000000" cx="208.8964" cy="-154.0833" rx="3.2" ry="3.2"/>
</g>
</g>
</svg>
