<?xml version="1.0" encoding="UTF-8" standalone="no"?>
<!DOCTYPE svg PUBLIC "-//W3C//DTD SVG 1.1//EN"
 "http://www.w3.org/Graphics/SVG/1.1/DTD/svg11.dtd">
<!-- Generated by graphviz version 2.40.1 (20161225.0304)
 -->
<!-- Title: oneDegreeRelationshipsDiagram Pages: 1 -->
<svg width="820pt" height="484pt"
 viewBox="0.00 0.00 820.00 483.72" xmlns="http://www.w3.org/2000/svg" xmlns:xlink="http://www.w3.org/1999/xlink">
<g id="graph0" class="graph" transform="scale(1 1) rotate(0) translate(4 479.7245)">
<title>oneDegreeRelationshipsDiagram</title>
<polygon fill="#ffffff" stroke="transparent" points="-4,4 -4,-479.7245 816,-479.7245 816,4 -4,4"/>
<text text-anchor="middle" x="72.4936" y="-7.3" font-family="Helvetica,sans-Serif" font-size="11.00" fill="#000000">Generated by SchemaSpy</text>
<!-- FormQuestions -->
<g id="node1" class="node">
<title>FormQuestions</title>
<g id="a_node1"><a xlink:href="../../tables/FormQuestions.html" xlink:title="FormQuestions" target="_top">
<polygon fill="#ffffff" stroke="transparent" points="270.5,-322.7245 270.5,-471.7245 397.5,-471.7245 397.5,-322.7245 270.5,-322.7245"/>
<polygon fill="#f5f5f5" stroke="transparent" points="271,-448.2245 271,-471.2245 398,-471.2245 398,-448.2245 271,-448.2245"/>
<polygon fill="none" stroke="#000000" points="271,-448.2245 271,-471.2245 398,-471.2245 398,-448.2245 271,-448.2245"/>
<text text-anchor="start" x="276" y="-456.8245" font-family="Helvetica,sans-Serif" font-weight="bold" font-size="11.00" fill="#000000">FormQuestions</text>
<text text-anchor="start" x="363.5219" y="-456.3245" font-family="Helvetica,sans-Serif" font-size="11.00" fill="#000000">[table]</text>
<polygon fill="none" stroke="#000000" points="271,-426.2245 271,-448.2245 398,-448.2245 398,-426.2245 271,-426.2245"/>
<image xlink:href="../../images/primaryKeys.png" width="11px" height="12px" preserveAspectRatio="xMinYMin meet" x="276" y="-443.225"/>
<text text-anchor="start" x="294" y="-433.3245" font-family="Helvetica,sans-Serif" font-size="11.00" fill="#000000">Id</text>
<polygon fill="#ffffff" stroke="transparent" points="271,-404.2245 271,-426.2245 398,-426.2245 398,-404.2245 271,-404.2245"/>
<polygon fill="none" stroke="#000000" points="271,-404.2245 271,-426.2245 398,-426.2245 398,-404.2245 271,-404.2245"/>
<image xlink:href="../../images/foreignKeys.png" width="11px" height="12px" preserveAspectRatio="xMinYMin meet" x="276" y="-421.225"/>
<text text-anchor="start" x="294" y="-411.3245" font-family="Helvetica,sans-Serif" font-size="11.00" fill="#000000">CompetencyId</text>
<polygon fill="#ffffff" stroke="transparent" points="271,-382.2245 271,-404.2245 398,-404.2245 398,-382.2245 271,-382.2245"/>
<polygon fill="none" stroke="#000000" points="271,-382.2245 271,-404.2245 398,-404.2245 398,-382.2245 271,-382.2245"/>
<image xlink:href="../../images/foreignKeys.png" width="11px" height="12px" preserveAspectRatio="xMinYMin meet" x="276" y="-399.225"/>
<text text-anchor="start" x="294" y="-389.3245" font-family="Helvetica,sans-Serif" font-size="11.00" fill="#000000">CreatedByUserId</text>
<polygon fill="#ffffff" stroke="transparent" points="271,-360.2245 271,-382.2245 398,-382.2245 398,-360.2245 271,-360.2245"/>
<polygon fill="none" stroke="#000000" points="271,-360.2245 271,-382.2245 398,-382.2245 398,-360.2245 271,-360.2245"/>
<image xlink:href="../../images/foreignKeys.png" width="11px" height="12px" preserveAspectRatio="xMinYMin meet" x="276" y="-377.225"/>
<text text-anchor="start" x="294" y="-367.3245" font-family="Helvetica,sans-Serif" font-size="11.00" fill="#000000">UpdatedByUserId</text>
<polygon fill="none" stroke="#000000" points="271,-341.2245 271,-360.2245 398,-360.2245 398,-341.2245 271,-341.2245"/>
<text text-anchor="start" x="274" y="-347.3245" font-family="Helvetica,sans-Serif" font-size="11.00" fill="#000000">...</text>
<polygon fill="#ffffff" stroke="transparent" points="271,-322.2245 271,-341.2245 315,-341.2245 315,-322.2245 271,-322.2245"/>
<polygon fill="none" stroke="#000000" points="271,-322.2245 271,-341.2245 315,-341.2245 315,-322.2245 271,-322.2245"/>
<text text-anchor="start" x="274" y="-328.3245" font-family="Helvetica,sans-Serif" font-size="11.00" fill="#000000">&lt; 3</text>
<polygon fill="#ffffff" stroke="transparent" points="315,-322.2245 315,-341.2245 365,-341.2245 365,-322.2245 315,-322.2245"/>
<polygon fill="none" stroke="#000000" points="315,-322.2245 315,-341.2245 365,-341.2245 365,-322.2245 315,-322.2245"/>
<text text-anchor="start" x="329.6105" y="-328.3245" font-family="Helvetica,sans-Serif" font-size="11.00" fill="#000000">0 rows</text>
<polygon fill="#ffffff" stroke="transparent" points="365,-322.2245 365,-341.2245 398,-341.2245 398,-322.2245 365,-322.2245"/>
<polygon fill="none" stroke="#000000" points="365,-322.2245 365,-341.2245 398,-341.2245 398,-322.2245 365,-322.2245"/>
<text text-anchor="start" x="379.4053" y="-328.3245" font-family="Helvetica,sans-Serif" font-size="11.00" fill="#000000">1 &gt;</text>
</a>
</g>
</g>
<!-- AspNetUsers -->
<g id="node2" class="node">
<title>AspNetUsers</title>
<g id="a_node2"><a xlink:href="../../tables/AspNetUsers.html" xlink:title="AspNetUsers" target="_top">
<polygon fill="#ffffff" stroke="transparent" points="8,-97.7245 8,-224.7245 171,-224.7245 171,-97.7245 8,-97.7245"/>
<polygon fill="#f5f5f5" stroke="transparent" points="8.5,-201.2245 8.5,-224.2245 171.5,-224.2245 171.5,-201.2245 8.5,-201.2245"/>
<polygon fill="none" stroke="#000000" points="8.5,-201.2245 8.5,-224.2245 171.5,-224.2245 171.5,-201.2245 8.5,-201.2245"/>
<text text-anchor="start" x="13.5" y="-209.8245" font-family="Helvetica,sans-Serif" font-weight="bold" font-size="11.00" fill="#000000">AspNetUsers</text>
<text text-anchor="start" x="136.5437" y="-209.3245" font-family="Helvetica,sans-Serif" font-size="11.00" fill="#000000">[table]</text>
<polygon fill="none" stroke="#000000" points="8.5,-179.2245 8.5,-201.2245 171.5,-201.2245 171.5,-179.2245 8.5,-179.2245"/>
<image xlink:href="../../images/primaryKeys.png" width="11px" height="12px" preserveAspectRatio="xMinYMin meet" x="13.5" y="-196.225"/>
<text text-anchor="start" x="28.5" y="-186.3245" font-family="Helvetica,sans-Serif" font-size="11.00" fill="#000000">Id</text>
<polygon fill="#ffffff" stroke="transparent" points="8.5,-157.2245 8.5,-179.2245 171.5,-179.2245 171.5,-157.2245 8.5,-157.2245"/>
<polygon fill="none" stroke="#000000" points="8.5,-157.2245 8.5,-179.2245 171.5,-179.2245 171.5,-157.2245 8.5,-157.2245"/>
<text text-anchor="start" x="28.5" y="-164.3245" font-family="Helvetica,sans-Serif" font-size="11.00" fill="#000000">NormalizedUserName</text>
<polygon fill="#ffffff" stroke="transparent" points="8.5,-135.2245 8.5,-157.2245 171.5,-157.2245 171.5,-135.2245 8.5,-135.2245"/>
<polygon fill="none" stroke="#000000" points="8.5,-135.2245 8.5,-157.2245 171.5,-157.2245 171.5,-135.2245 8.5,-135.2245"/>
<text text-anchor="start" x="28.5" y="-142.3245" font-family="Helvetica,sans-Serif" font-size="11.00" fill="#000000">NormalizedEmail</text>
<polygon fill="none" stroke="#000000" points="8.5,-116.2245 8.5,-135.2245 171.5,-135.2245 171.5,-116.2245 8.5,-116.2245"/>
<text text-anchor="start" x="11.5" y="-122.3245" font-family="Helvetica,sans-Serif" font-size="11.00" fill="#000000">...</text>
<polygon fill="#ffffff" stroke="transparent" points="8.5,-97.2245 8.5,-116.2245 66.5,-116.2245 66.5,-97.2245 8.5,-97.2245"/>
<polygon fill="none" stroke="#000000" points="8.5,-97.2245 8.5,-116.2245 66.5,-116.2245 66.5,-97.2245 8.5,-97.2245"/>
<text text-anchor="start" x="11.5" y="-103.3245" font-family="Helvetica,sans-Serif" font-size="11.00" fill="#000000"> &#160;</text>
<polygon fill="#ffffff" stroke="transparent" points="66.5,-97.2245 66.5,-116.2245 121.5,-116.2245 121.5,-97.2245 66.5,-97.2245"/>
<polygon fill="none" stroke="#000000" points="66.5,-97.2245 66.5,-116.2245 121.5,-116.2245 121.5,-97.2245 66.5,-97.2245"/>
<text text-anchor="start" x="91.6105" y="-103.3245" font-family="Helvetica,sans-Serif" font-size="11.00" fill="#000000">1 row</text>
<polygon fill="#ffffff" stroke="transparent" points="121.5,-97.2245 121.5,-116.2245 171.5,-116.2245 171.5,-97.2245 121.5,-97.2245"/>
<polygon fill="none" stroke="#000000" points="121.5,-97.2245 121.5,-116.2245 171.5,-116.2245 171.5,-97.2245 121.5,-97.2245"/>
<text text-anchor="start" x="146.7904" y="-103.3245" font-family="Helvetica,sans-Serif" font-size="11.00" fill="#000000">29 &gt;</text>
</a>
</g>
</g>
<!-- FormQuestions&#45;&gt;AspNetUsers -->
<g id="edge1" class="edge">
<title>FormQuestions:w&#45;&gt;AspNetUsers:e</title>
<path fill="none" stroke="#000000" d="M256.5131,-391.3686C227.5286,-382.9041 229.8236,-346.8803 212,-312.2245 185.8701,-261.4183 228.6319,-190.2245 171.5,-190.2245"/>
<polygon fill="#000000" stroke="#000000" points="263.0649,-392.2079 270.5425,-396.7954 267.0324,-392.7162 271,-393.2245 271,-393.2245 271,-393.2245 267.0324,-392.7162 271.4575,-389.6537 263.0649,-392.2079 263.0649,-392.2079"/>
<ellipse fill="none" stroke="#000000" cx="259.8908" cy="-391.8012" rx="3.2" ry="3.2"/>
</g>
<!-- FormQuestions&#45;&gt;AspNetUsers -->
<g id="edge2" class="edge">
<title>FormQuestions:w&#45;&gt;AspNetUsers:e</title>
<path fill="none" stroke="#000000" d="M256.6071,-369.4869C232.8166,-362.9869 228.5856,-339.0976 212,-312.2245 181.9939,-263.6068 228.6319,-190.2245 171.5,-190.2245"/>
<polygon fill="#000000" stroke="#000000" points="263.0577,-370.2656 270.5685,-374.7986 267.0288,-370.7451 271,-371.2245 271,-371.2245 271,-371.2245 267.0288,-370.7451 271.4315,-367.6505 263.0577,-370.2656 263.0577,-370.2656"/>
<ellipse fill="none" stroke="#000000" cx="259.8807" cy="-369.882" rx="3.2" ry="3.2"/>
</g>
<!-- QuestionResponses -->
<g id="node3" class="node">
<title>QuestionResponses</title>
<g id="a_node3"><a xlink:href="../../tables/QuestionResponses.html" xlink:title="QuestionResponses" target="_top">
<polygon fill="#ffffff" stroke="transparent" points="497,-55.2245 497,-321.2245 804,-321.2245 804,-55.2245 497,-55.2245"/>
<polygon fill="#f5f5f5" stroke="transparent" points="499.5,-296.2245 499.5,-319.2245 802.5,-319.2245 802.5,-296.2245 499.5,-296.2245"/>
<polygon fill="none" stroke="#000000" points="499.5,-296.2245 499.5,-319.2245 802.5,-319.2245 802.5,-296.2245 499.5,-296.2245"/>
<text text-anchor="start" x="504.5" y="-304.8245" font-family="Helvetica,sans-Serif" font-weight="bold" font-size="11.00" fill="#000000">QuestionResponses</text>
<text text-anchor="start" x="767.5437" y="-304.3245" font-family="Helvetica,sans-Serif" font-size="11.00" fill="#000000">[table]</text>
<polygon fill="none" stroke="#000000" points="499.5,-274.2245 499.5,-296.2245 708.5,-296.2245 708.5,-274.2245 499.5,-274.2245"/>
<image xlink:href="../../images/primaryKeys.png" width="11px" height="12px" preserveAspectRatio="xMinYMin meet" x="504.5" y="-291.225"/>
<text text-anchor="start" x="519.5" y="-281.3245" font-family="Helvetica,sans-Serif" font-size="11.00" fill="#000000">Id</text>
<polygon fill="none" stroke="#000000" points="708.5,-274.2245 708.5,-296.2245 802.5,-296.2245 802.5,-274.2245 708.5,-274.2245"/>
<text text-anchor="start" x="711.4758" y="-281.9245" font-family="Helvetica,sans-Serif" font-size="11.00" fill="#000000">uuid[2147483647]</text>
<polygon fill="#ffffff" stroke="transparent" points="499.5,-252.2245 499.5,-274.2245 708.5,-274.2245 708.5,-252.2245 499.5,-252.2245"/>
<polygon fill="none" stroke="#000000" points="499.5,-252.2245 499.5,-274.2245 708.5,-274.2245 708.5,-252.2245 499.5,-252.2245"/>
<image xlink:href="../../images/foreignKeys.png" width="11px" height="12px" preserveAspectRatio="xMinYMin meet" x="504.5" y="-269.225"/>
<text text-anchor="start" x="519.5" y="-259.3245" font-family="Helvetica,sans-Serif" font-size="11.00" fill="#000000">FormQuestionId</text>
<polygon fill="none" stroke="#000000" points="708.5,-252.2245 708.5,-274.2245 802.5,-274.2245 802.5,-252.2245 708.5,-252.2245"/>
<text text-anchor="start" x="711.4758" y="-259.9245" font-family="Helvetica,sans-Serif" font-size="11.00" fill="#000000">uuid[2147483647]</text>
<polygon fill="#ffffff" stroke="transparent" points="499.5,-230.2245 499.5,-252.2245 708.5,-252.2245 708.5,-230.2245 499.5,-230.2245"/>
<polygon fill="none" stroke="#000000" points="499.5,-230.2245 499.5,-252.2245 708.5,-252.2245 708.5,-230.2245 499.5,-230.2245"/>
<image xlink:href="../../images/foreignKeys.png" width="11px" height="12px" preserveAspectRatio="xMinYMin meet" x="504.5" y="-247.225"/>
<text text-anchor="start" x="519.5" y="-237.3245" font-family="Helvetica,sans-Serif" font-size="11.00" fill="#000000">StudentCompetencyEvaluationId</text>
<polygon fill="none" stroke="#000000" points="708.5,-230.2245 708.5,-252.2245 802.5,-252.2245 802.5,-230.2245 708.5,-230.2245"/>
<text text-anchor="start" x="711.4758" y="-237.9245" font-family="Helvetica,sans-Serif" font-size="11.00" fill="#000000">uuid[2147483647]</text>
<polygon fill="none" stroke="#000000" points="499.5,-208.2245 499.5,-230.2245 708.5,-230.2245 708.5,-208.2245 499.5,-208.2245"/>
<text text-anchor="start" x="519.5" y="-215.3245" font-family="Helvetica,sans-Serif" font-size="11.00" fill="#000000">ResponseValue</text>
<polygon fill="none" stroke="#000000" points="708.5,-208.2245 708.5,-230.2245 802.5,-230.2245 802.5,-208.2245 708.5,-208.2245"/>
<text text-anchor="start" x="711.5" y="-215.9245" font-family="Helvetica,sans-Serif" font-size="11.00" fill="#000000">int4[10]</text>
<polygon fill="none" stroke="#000000" points="499.5,-186.2245 499.5,-208.2245 708.5,-208.2245 708.5,-186.2245 499.5,-186.2245"/>
<text text-anchor="start" x="519.5" y="-193.3245" font-family="Helvetica,sans-Serif" font-size="11.00" fill="#000000">Comments</text>
<polygon fill="none" stroke="#000000" points="708.5,-186.2245 708.5,-208.2245 802.5,-208.2245 802.5,-186.2245 708.5,-186.2245"/>
<text text-anchor="start" x="711.5" y="-193.9245" font-family="Helvetica,sans-Serif" font-size="11.00" fill="#000000">text[2147483647]</text>
<polygon fill="none" stroke="#000000" points="499.5,-164.2245 499.5,-186.2245 708.5,-186.2245 708.5,-164.2245 499.5,-164.2245"/>
<text text-anchor="start" x="519.5" y="-171.3245" font-family="Helvetica,sans-Serif" font-size="11.00" fill="#000000">IsActive</text>
<polygon fill="none" stroke="#000000" points="708.5,-164.2245 708.5,-186.2245 802.5,-186.2245 802.5,-164.2245 708.5,-164.2245"/>
<text text-anchor="start" x="711.5" y="-171.9245" font-family="Helvetica,sans-Serif" font-size="11.00" fill="#000000">bool[1]</text>
<polygon fill="none" stroke="#000000" points="499.5,-142.2245 499.5,-164.2245 708.5,-164.2245 708.5,-142.2245 499.5,-142.2245"/>
<text text-anchor="start" x="519.5" y="-149.3245" font-family="Helvetica,sans-Serif" font-size="11.00" fill="#000000">CreatedAt</text>
<polygon fill="none" stroke="#000000" points="708.5,-142.2245 708.5,-164.2245 802.5,-164.2245 802.5,-142.2245 708.5,-142.2245"/>
<text text-anchor="start" x="711.5" y="-149.9245" font-family="Helvetica,sans-Serif" font-size="11.00" fill="#000000">timestamptz[35,6]</text>
<polygon fill="none" stroke="#000000" points="499.5,-120.2245 499.5,-142.2245 708.5,-142.2245 708.5,-120.2245 499.5,-120.2245"/>
<text text-anchor="start" x="519.5" y="-127.3245" font-family="Helvetica,sans-Serif" font-size="11.00" fill="#000000">UpdatedAt</text>
<polygon fill="none" stroke="#000000" points="708.5,-120.2245 708.5,-142.2245 802.5,-142.2245 802.5,-120.2245 708.5,-120.2245"/>
<text text-anchor="start" x="711.5" y="-127.9245" font-family="Helvetica,sans-Serif" font-size="11.00" fill="#000000">timestamptz[35,6]</text>
<polygon fill="#ffffff" stroke="transparent" points="499.5,-98.2245 499.5,-120.2245 708.5,-120.2245 708.5,-98.2245 499.5,-98.2245"/>
<polygon fill="none" stroke="#000000" points="499.5,-98.2245 499.5,-120.2245 708.5,-120.2245 708.5,-98.2245 499.5,-98.2245"/>
<image xlink:href="../../images/foreignKeys.png" width="11px" height="12px" preserveAspectRatio="xMinYMin meet" x="504.5" y="-115.225"/>
<text text-anchor="start" x="519.5" y="-105.3245" font-family="Helvetica,sans-Serif" font-size="11.00" fill="#000000">CreatedByUserId</text>
<polygon fill="none" stroke="#000000" points="708.5,-98.2245 708.5,-120.2245 802.5,-120.2245 802.5,-98.2245 708.5,-98.2245"/>
<text text-anchor="start" x="711.5" y="-105.9245" font-family="Helvetica,sans-Serif" font-size="11.00" fill="#000000">text[2147483647]</text>
<polygon fill="#ffffff" stroke="transparent" points="499.5,-76.2245 499.5,-98.2245 708.5,-98.2245 708.5,-76.2245 499.5,-76.2245"/>
<polygon fill="none" stroke="#000000" points="499.5,-76.2245 499.5,-98.2245 708.5,-98.2245 708.5,-76.2245 499.5,-76.2245"/>
<image xlink:href="../../images/foreignKeys.png" width="11px" height="12px" preserveAspectRatio="xMinYMin meet" x="504.5" y="-93.2245"/>
<text text-anchor="start" x="519.5" y="-83.3245" font-family="Helvetica,sans-Serif" font-size="11.00" fill="#000000">UpdatedByUserId</text>
<polygon fill="none" stroke="#000000" points="708.5,-76.2245 708.5,-98.2245 802.5,-98.2245 802.5,-76.2245 708.5,-76.2245"/>
<text text-anchor="start" x="711.5" y="-83.9245" font-family="Helvetica,sans-Serif" font-size="11.00" fill="#000000">text[2147483647]</text>
<polygon fill="#ffffff" stroke="transparent" points="499.5,-57.2245 499.5,-76.2245 595.5,-76.2245 595.5,-57.2245 499.5,-57.2245"/>
<polygon fill="none" stroke="#000000" points="499.5,-57.2245 499.5,-76.2245 595.5,-76.2245 595.5,-57.2245 499.5,-57.2245"/>
<text text-anchor="start" x="502.5" y="-63.3245" font-family="Helvetica,sans-Serif" font-size="11.00" fill="#000000">&lt; 4</text>
<polygon fill="#ffffff" stroke="transparent" points="595.5,-57.2245 595.5,-76.2245 708.5,-76.2245 708.5,-57.2245 595.5,-57.2245"/>
<polygon fill="none" stroke="#000000" points="595.5,-57.2245 595.5,-76.2245 708.5,-76.2245 708.5,-57.2245 595.5,-57.2245"/>
<text text-anchor="start" x="673.1105" y="-63.3245" font-family="Helvetica,sans-Serif" font-size="11.00" fill="#000000">0 rows</text>
<polygon fill="#ffffff" stroke="transparent" points="708.5,-57.2245 708.5,-76.2245 802.5,-76.2245 802.5,-57.2245 708.5,-57.2245"/>
<polygon fill="none" stroke="#000000" points="708.5,-57.2245 708.5,-76.2245 802.5,-76.2245 802.5,-57.2245 708.5,-57.2245"/>
<text text-anchor="start" x="783.9053" y="-63.3245" font-family="Helvetica,sans-Serif" font-size="11.00" fill="#000000">0 &gt;</text>
<polygon fill="none" stroke="#000000" stroke-width="2" points="498,-56.2245 498,-320.2245 803,-320.2245 803,-56.2245 498,-56.2245"/>
</a>
</g>
</g>
<!-- QuestionResponses&#45;&gt;FormQuestions -->
<g id="edge4" class="edge">
<title>QuestionResponses:w&#45;&gt;FormQuestions:e</title>
<path fill="none" stroke="#000000" d="M485.9027,-269.0138C451.7245,-299.2055 437.8684,-437.2245 398,-437.2245"/>
<polygon fill="#000000" stroke="#000000" points="492.1394,-266.3585 500.9103,-266.5368 495.8197,-264.7915 499.5,-263.2245 499.5,-263.2245 499.5,-263.2245 495.8197,-264.7915 498.0897,-259.9123 492.1394,-266.3585 492.1394,-266.3585"/>
<ellipse fill="none" stroke="#000000" cx="489.1951" cy="-267.6121" rx="3.2" ry="3.2"/>
</g>
<!-- QuestionResponses&#45;&gt;AspNetUsers -->
<g id="edge3" class="edge">
<title>QuestionResponses:w&#45;&gt;AspNetUsers:e</title>
<path fill="none" stroke="#000000" d="M485.1731,-107.3497C475.9084,-104.6912 469.9143,-99.9566 456,-98.2245 348.3861,-84.829 302.8252,-38.9711 212,-98.2245 174.583,-122.635 216.1755,-190.2245 171.5,-190.2245"/>
<polygon fill="#000000" stroke="#000000" points="491.5676,-108.1864 499.0329,-112.7941 495.5338,-108.7055 499.5,-109.2245 499.5,-109.2245 499.5,-109.2245 495.5338,-108.7055 499.9671,-105.655 491.5676,-108.1864 491.5676,-108.1864"/>
<ellipse fill="none" stroke="#000000" cx="488.3947" cy="-107.7712" rx="3.2" ry="3.2"/>
</g>
<!-- QuestionResponses&#45;&gt;AspNetUsers -->
<g id="edge6" class="edge">
<title>QuestionResponses:w&#45;&gt;AspNetUsers:e</title>
<path fill="none" stroke="#000000" d="M485.1305,-84.1483C475.8111,-79.6006 470.6819,-71.2911 456,-68.2245 349.8463,-46.0529 299.9357,-4.7619 212,-68.2245 165.6728,-101.6586 228.6319,-190.2245 171.5,-190.2245"/>
<polygon fill="#000000" stroke="#000000" points="491.6773,-85.5498 498.7464,-90.7448 495.5886,-86.3872 499.5,-87.2245 499.5,-87.2245 499.5,-87.2245 495.5886,-86.3872 500.2536,-83.7043 491.6773,-85.5498 491.6773,-85.5498"/>
<ellipse fill="none" stroke="#000000" cx="488.5482" cy="-84.8799" rx="3.2" ry="3.2"/>
</g>
<!-- StudentCompetencyEvaluations -->
<g id="node4" class="node">
<title>StudentCompetencyEvaluations</title>
<g id="a_node4"><a xlink:href="../../tables/StudentCompetencyEvaluations.html" xlink:title="StudentCompetencyEvaluations" target="_top">
<polygon fill="#ffffff" stroke="transparent" points="220,-108.7245 220,-301.7245 448,-301.7245 448,-108.7245 220,-108.7245"/>
<polygon fill="#f5f5f5" stroke="transparent" points="220,-278.2245 220,-301.2245 448,-301.2245 448,-278.2245 220,-278.2245"/>
<polygon fill="none" stroke="#000000" points="220,-278.2245 220,-301.2245 448,-301.2245 448,-278.2245 220,-278.2245"/>
<text text-anchor="start" x="225" y="-286.8245" font-family="Helvetica,sans-Serif" font-weight="bold" font-size="11.00" fill="#000000">StudentCompetencyEvaluations</text>
<text text-anchor="start" x="413.0437" y="-286.3245" font-family="Helvetica,sans-Serif" font-size="11.00" fill="#000000">[table]</text>
<polygon fill="none" stroke="#000000" points="220,-256.2245 220,-278.2245 448,-278.2245 448,-256.2245 220,-256.2245"/>
<image xlink:href="../../images/primaryKeys.png" width="11px" height="12px" preserveAspectRatio="xMinYMin meet" x="225" y="-273.225"/>
<text text-anchor="start" x="240" y="-263.3245" font-family="Helvetica,sans-Serif" font-size="11.00" fill="#000000">Id</text>
<polygon fill="#ffffff" stroke="transparent" points="220,-234.2245 220,-256.2245 448,-256.2245 448,-234.2245 220,-234.2245"/>
<polygon fill="none" stroke="#000000" points="220,-234.2245 220,-256.2245 448,-256.2245 448,-234.2245 220,-234.2245"/>
<image xlink:href="../../images/foreignKeys.png" width="11px" height="12px" preserveAspectRatio="xMinYMin meet" x="225" y="-251.225"/>
<text text-anchor="start" x="240" y="-241.3245" font-family="Helvetica,sans-Serif" font-size="11.00" fill="#000000">ProfessorCompetencyAssignmentId</text>
<polygon fill="#ffffff" stroke="transparent" points="220,-212.2245 220,-234.2245 448,-234.2245 448,-212.2245 220,-212.2245"/>
<polygon fill="none" stroke="#000000" points="220,-212.2245 220,-234.2245 448,-234.2245 448,-212.2245 220,-212.2245"/>
<image xlink:href="../../images/foreignKeys.png" width="11px" height="12px" preserveAspectRatio="xMinYMin meet" x="225" y="-229.225"/>
<text text-anchor="start" x="240" y="-219.3245" font-family="Helvetica,sans-Serif" font-size="11.00" fill="#000000">StudentId</text>
<polygon fill="#ffffff" stroke="transparent" points="220,-190.2245 220,-212.2245 448,-212.2245 448,-190.2245 220,-190.2245"/>
<polygon fill="none" stroke="#000000" points="220,-190.2245 220,-212.2245 448,-212.2245 448,-190.2245 220,-190.2245"/>
<image xlink:href="../../images/foreignKeys.png" width="11px" height="12px" preserveAspectRatio="xMinYMin meet" x="225" y="-207.225"/>
<text text-anchor="start" x="240" y="-197.3245" font-family="Helvetica,sans-Serif" font-size="11.00" fill="#000000">CreatedByUserId</text>
<polygon fill="#ffffff" stroke="transparent" points="220,-168.2245 220,-190.2245 448,-190.2245 448,-168.2245 220,-168.2245"/>
<polygon fill="none" stroke="#000000" points="220,-168.2245 220,-190.2245 448,-190.2245 448,-168.2245 220,-168.2245"/>
<image xlink:href="../../images/foreignKeys.png" width="11px" height="12px" preserveAspectRatio="xMinYMin meet" x="225" y="-185.225"/>
<text text-anchor="start" x="240" y="-175.3245" font-family="Helvetica,sans-Serif" font-size="11.00" fill="#000000">UpdatedByUserId</text>
<polygon fill="#ffffff" stroke="transparent" points="220,-146.2245 220,-168.2245 448,-168.2245 448,-146.2245 220,-146.2245"/>
<polygon fill="none" stroke="#000000" points="220,-146.2245 220,-168.2245 448,-168.2245 448,-146.2245 220,-146.2245"/>
<image xlink:href="../../images/foreignKeys.png" width="11px" height="12px" preserveAspectRatio="xMinYMin meet" x="225" y="-163.225"/>
<text text-anchor="start" x="240" y="-153.3245" font-family="Helvetica,sans-Serif" font-size="11.00" fill="#000000">SubjectId</text>
<polygon fill="none" stroke="#000000" points="220,-127.2245 220,-146.2245 448,-146.2245 448,-127.2245 220,-127.2245"/>
<text text-anchor="start" x="223" y="-133.3245" font-family="Helvetica,sans-Serif" font-size="11.00" fill="#000000">...</text>
<polygon fill="#ffffff" stroke="transparent" points="220,-108.2245 220,-127.2245 315,-127.2245 315,-108.2245 220,-108.2245"/>
<polygon fill="none" stroke="#000000" points="220,-108.2245 220,-127.2245 315,-127.2245 315,-108.2245 220,-108.2245"/>
<text text-anchor="start" x="223" y="-114.3245" font-family="Helvetica,sans-Serif" font-size="11.00" fill="#000000">&lt; 5</text>
<polygon fill="#ffffff" stroke="transparent" points="315,-108.2245 315,-127.2245 390,-127.2245 390,-108.2245 315,-108.2245"/>
<polygon fill="none" stroke="#000000" points="315,-108.2245 315,-127.2245 390,-127.2245 390,-108.2245 315,-108.2245"/>
<text text-anchor="start" x="354.6105" y="-114.3245" font-family="Helvetica,sans-Serif" font-size="11.00" fill="#000000">0 rows</text>
<polygon fill="#ffffff" stroke="transparent" points="390,-108.2245 390,-127.2245 448,-127.2245 448,-108.2245 390,-108.2245"/>
<polygon fill="none" stroke="#000000" points="390,-108.2245 390,-127.2245 448,-127.2245 448,-108.2245 390,-108.2245"/>
<text text-anchor="start" x="429.4053" y="-114.3245" font-family="Helvetica,sans-Serif" font-size="11.00" fill="#000000">1 &gt;</text>
</a>
</g>
</g>
<!-- QuestionResponses&#45;&gt;StudentCompetencyEvaluations -->
<g id="edge5" class="edge">
<title>QuestionResponses:w&#45;&gt;StudentCompetencyEvaluations:e</title>
<path fill="none" stroke="#000000" d="M485.3959,-244.6236C472.4554,-251.6712 467.8313,-267.2245 448,-267.2245"/>
<polygon fill="#000000" stroke="#000000" points="491.7227,-243.0989 500.3435,-244.7243 495.6113,-242.1617 499.5,-241.2245 499.5,-241.2245 499.5,-241.2245 495.6113,-242.1617 498.6565,-237.7247 491.7227,-243.0989 491.7227,-243.0989"/>
<ellipse fill="none" stroke="#000000" cx="488.6117" cy="-243.8486" rx="3.2" ry="3.2"/>
</g>
<!-- StudentCompetencyEvaluations&#45;&gt;AspNetUsers -->
<g id="edge7" class="edge">
<title>StudentCompetencyEvaluations:w&#45;&gt;AspNetUsers:e</title>
<path fill="none" stroke="#000000" d="M205.4888,-199.3085C194.3593,-196.1569 187.7319,-190.2245 171.5,-190.2245"/>
<polygon fill="#000000" stroke="#000000" points="212.0688,-200.1773 219.5287,-204.7936 216.0344,-200.7009 220,-201.2245 220,-201.2245 220,-201.2245 216.0344,-200.7009 220.4713,-197.6555 212.0688,-200.1773 212.0688,-200.1773"/>
<ellipse fill="none" stroke="#000000" cx="208.8964" cy="-199.7584" rx="3.2" ry="3.2"/>
</g>
<!-- StudentCompetencyEvaluations&#45;&gt;AspNetUsers -->
<g id="edge8" class="edge">
<title>StudentCompetencyEvaluations:w&#45;&gt;AspNetUsers:e</title>
<path fill="none" stroke="#000000" d="M205.4888,-181.1406C194.3593,-184.2922 187.7319,-190.2245 171.5,-190.2245"/>
<polygon fill="#000000" stroke="#000000" points="212.0688,-180.2718 220.4713,-182.7936 216.0344,-179.7482 220,-179.2245 220,-179.2245 220,-179.2245 216.0344,-179.7482 219.5287,-175.6555 212.0688,-180.2718 212.0688,-180.2718"/>
<ellipse fill="none" stroke="#000000" cx="208.8964" cy="-180.6907" rx="3.2" ry="3.2"/>
</g>
</g>
</svg>
