<?xml version="1.0" encoding="UTF-8" standalone="no"?>
<!DOCTYPE svg PUBLIC "-//W3C//DTD SVG 1.1//EN"
 "http://www.w3.org/Graphics/SVG/1.1/DTD/svg11.dtd">
<!-- Generated by graphviz version 2.40.1 (20161225.0304)
 -->
<!-- Title: twoDegreesRelationshipsDiagram Pages: 1 -->
<svg width="1255pt" height="1116pt"
 viewBox="0.00 0.00 1255.00 1116.22" xmlns="http://www.w3.org/2000/svg" xmlns:xlink="http://www.w3.org/1999/xlink">
<g id="graph0" class="graph" transform="scale(1 1) rotate(0) translate(4 1112.2207)">
<title>twoDegreesRelationshipsDiagram</title>
<polygon fill="#ffffff" stroke="transparent" points="-4,4 -4,-1112.2207 1251,-1112.2207 1251,4 -4,4"/>
<text text-anchor="middle" x="72.4936" y="-7.3" font-family="Helvetica,sans-Serif" font-size="11.00" fill="#000000">Generated by SchemaSpy</text>
<!-- AspNetUserClaims -->
<g id="node1" class="node">
<title>AspNetUserClaims</title>
<g id="a_node1"><a xlink:href="../../tables/AspNetUserClaims.html" xlink:title="AspNetUserClaims" target="_top">
<polygon fill="#ffffff" stroke="transparent" points="172,-1043.2207 172,-1104.2207 319,-1104.2207 319,-1043.2207 172,-1043.2207"/>
<polygon fill="#f5f5f5" stroke="transparent" points="172.5,-1080.7207 172.5,-1103.7207 319.5,-1103.7207 319.5,-1080.7207 172.5,-1080.7207"/>
<polygon fill="none" stroke="#000000" points="172.5,-1080.7207 172.5,-1103.7207 319.5,-1103.7207 319.5,-1080.7207 172.5,-1080.7207"/>
<text text-anchor="start" x="177.5" y="-1089.3207" font-family="Helvetica,sans-Serif" font-weight="bold" font-size="11.00" fill="#000000">AspNetUserClaims</text>
<text text-anchor="start" x="285.0219" y="-1088.8207" font-family="Helvetica,sans-Serif" font-size="11.00" fill="#000000">[table]</text>
<polygon fill="none" stroke="#000000" points="172.5,-1061.7207 172.5,-1080.7207 319.5,-1080.7207 319.5,-1061.7207 172.5,-1061.7207"/>
<text text-anchor="start" x="175.5" y="-1067.8207" font-family="Helvetica,sans-Serif" font-size="11.00" fill="#000000">...</text>
<polygon fill="#ffffff" stroke="transparent" points="172.5,-1042.7207 172.5,-1061.7207 231.5,-1061.7207 231.5,-1042.7207 172.5,-1042.7207"/>
<polygon fill="none" stroke="#000000" points="172.5,-1042.7207 172.5,-1061.7207 231.5,-1061.7207 231.5,-1042.7207 172.5,-1042.7207"/>
<text text-anchor="start" x="175.5" y="-1048.8207" font-family="Helvetica,sans-Serif" font-size="11.00" fill="#000000">&lt; 1</text>
<polygon fill="#ffffff" stroke="transparent" points="231.5,-1042.7207 231.5,-1061.7207 288.5,-1061.7207 288.5,-1042.7207 231.5,-1042.7207"/>
<polygon fill="none" stroke="#000000" points="231.5,-1042.7207 231.5,-1061.7207 288.5,-1061.7207 288.5,-1042.7207 231.5,-1042.7207"/>
<text text-anchor="start" x="253.1105" y="-1048.8207" font-family="Helvetica,sans-Serif" font-size="11.00" fill="#000000">0 rows</text>
<polygon fill="#ffffff" stroke="transparent" points="288.5,-1042.7207 288.5,-1061.7207 319.5,-1061.7207 319.5,-1042.7207 288.5,-1042.7207"/>
<polygon fill="none" stroke="#000000" points="288.5,-1042.7207 288.5,-1061.7207 319.5,-1061.7207 319.5,-1042.7207 288.5,-1042.7207"/>
<text text-anchor="start" x="310.3862" y="-1048.8207" font-family="Helvetica,sans-Serif" font-size="11.00" fill="#000000"> &#160;</text>
</a>
</g>
</g>
<!-- AspNetUsers -->
<g id="node2" class="node">
<title>AspNetUsers</title>
<g id="a_node2"><a xlink:href="../../tables/AspNetUsers.html" xlink:title="AspNetUsers" target="_top">
<polygon fill="#ffffff" stroke="transparent" points="8,-472.2207 8,-533.2207 122,-533.2207 122,-472.2207 8,-472.2207"/>
<polygon fill="#f5f5f5" stroke="transparent" points="8,-509.7207 8,-532.7207 122,-532.7207 122,-509.7207 8,-509.7207"/>
<polygon fill="none" stroke="#000000" points="8,-509.7207 8,-532.7207 122,-532.7207 122,-509.7207 8,-509.7207"/>
<text text-anchor="start" x="13" y="-518.3207" font-family="Helvetica,sans-Serif" font-weight="bold" font-size="11.00" fill="#000000">AspNetUsers</text>
<text text-anchor="start" x="87.5219" y="-517.8207" font-family="Helvetica,sans-Serif" font-size="11.00" fill="#000000">[table]</text>
<polygon fill="none" stroke="#000000" points="8,-490.7207 8,-509.7207 122,-509.7207 122,-490.7207 8,-490.7207"/>
<text text-anchor="start" x="11" y="-496.8207" font-family="Helvetica,sans-Serif" font-size="11.00" fill="#000000">...</text>
<polygon fill="#ffffff" stroke="transparent" points="8,-471.7207 8,-490.7207 38,-490.7207 38,-471.7207 8,-471.7207"/>
<polygon fill="none" stroke="#000000" points="8,-471.7207 8,-490.7207 38,-490.7207 38,-471.7207 8,-471.7207"/>
<text text-anchor="start" x="11" y="-477.8207" font-family="Helvetica,sans-Serif" font-size="11.00" fill="#000000"> &#160;</text>
<polygon fill="#ffffff" stroke="transparent" points="38,-471.7207 38,-490.7207 85,-490.7207 85,-471.7207 38,-471.7207"/>
<polygon fill="none" stroke="#000000" points="38,-471.7207 38,-490.7207 85,-490.7207 85,-471.7207 38,-471.7207"/>
<text text-anchor="start" x="49.6105" y="-477.8207" font-family="Helvetica,sans-Serif" font-size="11.00" fill="#000000">0 rows</text>
<polygon fill="#ffffff" stroke="transparent" points="85,-471.7207 85,-490.7207 122,-490.7207 122,-471.7207 85,-471.7207"/>
<polygon fill="none" stroke="#000000" points="85,-471.7207 85,-490.7207 122,-490.7207 122,-471.7207 85,-471.7207"/>
<text text-anchor="start" x="97.2904" y="-477.8207" font-family="Helvetica,sans-Serif" font-size="11.00" fill="#000000">29 &gt;</text>
</a>
</g>
</g>
<!-- AspNetUserClaims&#45;&gt;AspNetUsers -->
<g id="edge1" class="edge">
<title>AspNetUserClaims:w&#45;&gt;AspNetUsers:e</title>
<path fill="none" stroke="#000000" d="M159.9934,-1063.5456C111.9417,-1008.4075 77.6581,-651.0834 67.86,-537.3966"/>
<polygon fill="#000000" stroke="#000000" points="165.5609,-1066.7397 170.7085,-1073.8433 169.0304,-1068.7302 172.5,-1070.7207 172.5,-1070.7207 172.5,-1070.7207 169.0304,-1068.7302 174.2915,-1067.5981 165.5609,-1066.7397 165.5609,-1066.7397"/>
<ellipse fill="none" stroke="#000000" cx="162.7852" cy="-1065.1472" rx="3.2" ry="3.2"/>
</g>
<!-- AspNetUserLogins -->
<g id="node3" class="node">
<title>AspNetUserLogins</title>
<g id="a_node3"><a xlink:href="../../tables/AspNetUserLogins.html" xlink:title="AspNetUserLogins" target="_top">
<polygon fill="#ffffff" stroke="transparent" points="172,-961.2207 172,-1022.2207 319,-1022.2207 319,-961.2207 172,-961.2207"/>
<polygon fill="#f5f5f5" stroke="transparent" points="172.5,-998.7207 172.5,-1021.7207 319.5,-1021.7207 319.5,-998.7207 172.5,-998.7207"/>
<polygon fill="none" stroke="#000000" points="172.5,-998.7207 172.5,-1021.7207 319.5,-1021.7207 319.5,-998.7207 172.5,-998.7207"/>
<text text-anchor="start" x="177.5" y="-1007.3207" font-family="Helvetica,sans-Serif" font-weight="bold" font-size="11.00" fill="#000000">AspNetUserLogins</text>
<text text-anchor="start" x="285.0219" y="-1006.8207" font-family="Helvetica,sans-Serif" font-size="11.00" fill="#000000">[table]</text>
<polygon fill="none" stroke="#000000" points="172.5,-979.7207 172.5,-998.7207 319.5,-998.7207 319.5,-979.7207 172.5,-979.7207"/>
<text text-anchor="start" x="175.5" y="-985.8207" font-family="Helvetica,sans-Serif" font-size="11.00" fill="#000000">...</text>
<polygon fill="#ffffff" stroke="transparent" points="172.5,-960.7207 172.5,-979.7207 231.5,-979.7207 231.5,-960.7207 172.5,-960.7207"/>
<polygon fill="none" stroke="#000000" points="172.5,-960.7207 172.5,-979.7207 231.5,-979.7207 231.5,-960.7207 172.5,-960.7207"/>
<text text-anchor="start" x="175.5" y="-966.8207" font-family="Helvetica,sans-Serif" font-size="11.00" fill="#000000">&lt; 1</text>
<polygon fill="#ffffff" stroke="transparent" points="231.5,-960.7207 231.5,-979.7207 288.5,-979.7207 288.5,-960.7207 231.5,-960.7207"/>
<polygon fill="none" stroke="#000000" points="231.5,-960.7207 231.5,-979.7207 288.5,-979.7207 288.5,-960.7207 231.5,-960.7207"/>
<text text-anchor="start" x="253.1105" y="-966.8207" font-family="Helvetica,sans-Serif" font-size="11.00" fill="#000000">0 rows</text>
<polygon fill="#ffffff" stroke="transparent" points="288.5,-960.7207 288.5,-979.7207 319.5,-979.7207 319.5,-960.7207 288.5,-960.7207"/>
<polygon fill="none" stroke="#000000" points="288.5,-960.7207 288.5,-979.7207 319.5,-979.7207 319.5,-960.7207 288.5,-960.7207"/>
<text text-anchor="start" x="310.3862" y="-966.8207" font-family="Helvetica,sans-Serif" font-size="11.00" fill="#000000"> &#160;</text>
</a>
</g>
</g>
<!-- AspNetUserLogins&#45;&gt;AspNetUsers -->
<g id="edge2" class="edge">
<title>AspNetUserLogins:w&#45;&gt;AspNetUsers:e</title>
<path fill="none" stroke="#000000" d="M160.0982,-980.8907C118.5386,-929.4054 80.9253,-638.3387 68.9518,-537.283"/>
<polygon fill="#000000" stroke="#000000" points="165.7354,-984.4498 170.5781,-991.7648 169.1177,-986.5853 172.5,-988.7207 172.5,-988.7207 172.5,-988.7207 169.1177,-986.5853 174.4219,-985.6767 165.7354,-984.4498 165.7354,-984.4498"/>
<ellipse fill="none" stroke="#000000" cx="163.0296" cy="-982.7415" rx="3.2" ry="3.2"/>
</g>
<!-- AspNetUserRoles -->
<g id="node4" class="node">
<title>AspNetUserRoles</title>
<g id="a_node4"><a xlink:href="../../tables/AspNetUserRoles.html" xlink:title="AspNetUserRoles" target="_top">
<polygon fill="#ffffff" stroke="transparent" points="175.5,-879.2207 175.5,-940.2207 315.5,-940.2207 315.5,-879.2207 175.5,-879.2207"/>
<polygon fill="#f5f5f5" stroke="transparent" points="175.5,-916.7207 175.5,-939.7207 315.5,-939.7207 315.5,-916.7207 175.5,-916.7207"/>
<polygon fill="none" stroke="#000000" points="175.5,-916.7207 175.5,-939.7207 315.5,-939.7207 315.5,-916.7207 175.5,-916.7207"/>
<text text-anchor="start" x="180.5" y="-925.3207" font-family="Helvetica,sans-Serif" font-weight="bold" font-size="11.00" fill="#000000">AspNetUserRoles</text>
<text text-anchor="start" x="281.0219" y="-924.8207" font-family="Helvetica,sans-Serif" font-size="11.00" fill="#000000">[table]</text>
<polygon fill="none" stroke="#000000" points="175.5,-897.7207 175.5,-916.7207 315.5,-916.7207 315.5,-897.7207 175.5,-897.7207"/>
<text text-anchor="start" x="178.5" y="-903.8207" font-family="Helvetica,sans-Serif" font-size="11.00" fill="#000000">...</text>
<polygon fill="#ffffff" stroke="transparent" points="175.5,-878.7207 175.5,-897.7207 230.5,-897.7207 230.5,-878.7207 175.5,-878.7207"/>
<polygon fill="none" stroke="#000000" points="175.5,-878.7207 175.5,-897.7207 230.5,-897.7207 230.5,-878.7207 175.5,-878.7207"/>
<text text-anchor="start" x="178.5" y="-884.8207" font-family="Helvetica,sans-Serif" font-size="11.00" fill="#000000">&lt; 2</text>
<polygon fill="#ffffff" stroke="transparent" points="230.5,-878.7207 230.5,-897.7207 285.5,-897.7207 285.5,-878.7207 230.5,-878.7207"/>
<polygon fill="none" stroke="#000000" points="230.5,-878.7207 230.5,-897.7207 285.5,-897.7207 285.5,-878.7207 230.5,-878.7207"/>
<text text-anchor="start" x="250.1105" y="-884.8207" font-family="Helvetica,sans-Serif" font-size="11.00" fill="#000000">0 rows</text>
<polygon fill="#ffffff" stroke="transparent" points="285.5,-878.7207 285.5,-897.7207 315.5,-897.7207 315.5,-878.7207 285.5,-878.7207"/>
<polygon fill="none" stroke="#000000" points="285.5,-878.7207 285.5,-897.7207 315.5,-897.7207 315.5,-878.7207 285.5,-878.7207"/>
<text text-anchor="start" x="306.3862" y="-884.8207" font-family="Helvetica,sans-Serif" font-size="11.00" fill="#000000"> &#160;</text>
</a>
</g>
</g>
<!-- AspNetUserRoles&#45;&gt;AspNetUsers -->
<g id="edge3" class="edge">
<title>AspNetUserRoles:w&#45;&gt;AspNetUsers:e</title>
<path fill="none" stroke="#000000" d="M161.3788,-903.4597C96.0341,-872.4797 73.3324,-629.1948 67.0495,-537.5152"/>
<polygon fill="#000000" stroke="#000000" points="167.7051,-904.9206 174.69,-910.2284 171.6026,-905.8207 175.5,-906.7207 175.5,-906.7207 175.5,-906.7207 171.6026,-905.8207 176.31,-903.213 167.7051,-904.9206 167.7051,-904.9206"/>
<ellipse fill="none" stroke="#000000" cx="164.5872" cy="-904.2006" rx="3.2" ry="3.2"/>
</g>
<!-- AspNetUserTokens -->
<g id="node5" class="node">
<title>AspNetUserTokens</title>
<g id="a_node5"><a xlink:href="../../tables/AspNetUserTokens.html" xlink:title="AspNetUserTokens" target="_top">
<polygon fill="#ffffff" stroke="transparent" points="171,-797.2207 171,-858.2207 320,-858.2207 320,-797.2207 171,-797.2207"/>
<polygon fill="#f5f5f5" stroke="transparent" points="171.5,-834.7207 171.5,-857.7207 320.5,-857.7207 320.5,-834.7207 171.5,-834.7207"/>
<polygon fill="none" stroke="#000000" points="171.5,-834.7207 171.5,-857.7207 320.5,-857.7207 320.5,-834.7207 171.5,-834.7207"/>
<text text-anchor="start" x="176.5" y="-843.3207" font-family="Helvetica,sans-Serif" font-weight="bold" font-size="11.00" fill="#000000">AspNetUserTokens</text>
<text text-anchor="start" x="286.0219" y="-842.8207" font-family="Helvetica,sans-Serif" font-size="11.00" fill="#000000">[table]</text>
<polygon fill="none" stroke="#000000" points="171.5,-815.7207 171.5,-834.7207 320.5,-834.7207 320.5,-815.7207 171.5,-815.7207"/>
<text text-anchor="start" x="174.5" y="-821.8207" font-family="Helvetica,sans-Serif" font-size="11.00" fill="#000000">...</text>
<polygon fill="#ffffff" stroke="transparent" points="171.5,-796.7207 171.5,-815.7207 231.5,-815.7207 231.5,-796.7207 171.5,-796.7207"/>
<polygon fill="none" stroke="#000000" points="171.5,-796.7207 171.5,-815.7207 231.5,-815.7207 231.5,-796.7207 171.5,-796.7207"/>
<text text-anchor="start" x="174.5" y="-802.8207" font-family="Helvetica,sans-Serif" font-size="11.00" fill="#000000">&lt; 1</text>
<polygon fill="#ffffff" stroke="transparent" points="231.5,-796.7207 231.5,-815.7207 288.5,-815.7207 288.5,-796.7207 231.5,-796.7207"/>
<polygon fill="none" stroke="#000000" points="231.5,-796.7207 231.5,-815.7207 288.5,-815.7207 288.5,-796.7207 231.5,-796.7207"/>
<text text-anchor="start" x="253.1105" y="-802.8207" font-family="Helvetica,sans-Serif" font-size="11.00" fill="#000000">0 rows</text>
<polygon fill="#ffffff" stroke="transparent" points="288.5,-796.7207 288.5,-815.7207 320.5,-815.7207 320.5,-796.7207 288.5,-796.7207"/>
<polygon fill="none" stroke="#000000" points="288.5,-796.7207 288.5,-815.7207 320.5,-815.7207 320.5,-796.7207 288.5,-796.7207"/>
<text text-anchor="start" x="311.3862" y="-802.8207" font-family="Helvetica,sans-Serif" font-size="11.00" fill="#000000"> &#160;</text>
</a>
</g>
</g>
<!-- AspNetUserTokens&#45;&gt;AspNetUsers -->
<g id="edge4" class="edge">
<title>AspNetUserTokens:w&#45;&gt;AspNetUsers:e</title>
<path fill="none" stroke="#000000" d="M157.3001,-820.7823C106.4149,-792.0688 78.6857,-613.9183 69.0021,-537.4863"/>
<polygon fill="#000000" stroke="#000000" points="163.791,-822.5825 170.5378,-828.1898 167.6455,-823.6516 171.5,-824.7207 171.5,-824.7207 171.5,-824.7207 167.6455,-823.6516 172.4622,-821.2517 163.791,-822.5825 163.791,-822.5825"/>
<ellipse fill="none" stroke="#000000" cx="160.7074" cy="-821.7273" rx="3.2" ry="3.2"/>
</g>
<!-- Competencies -->
<g id="node6" class="node">
<title>Competencies</title>
<g id="a_node6"><a xlink:href="../../tables/Competencies.html" xlink:title="Competencies" target="_top">
<polygon fill="#ffffff" stroke="transparent" points="185,-675.2207 185,-736.2207 306,-736.2207 306,-675.2207 185,-675.2207"/>
<polygon fill="#f5f5f5" stroke="transparent" points="185.5,-712.7207 185.5,-735.7207 306.5,-735.7207 306.5,-712.7207 185.5,-712.7207"/>
<polygon fill="none" stroke="#000000" points="185.5,-712.7207 185.5,-735.7207 306.5,-735.7207 306.5,-712.7207 185.5,-712.7207"/>
<text text-anchor="start" x="190.5" y="-721.3207" font-family="Helvetica,sans-Serif" font-weight="bold" font-size="11.00" fill="#000000">Competencies</text>
<text text-anchor="start" x="272.0219" y="-720.8207" font-family="Helvetica,sans-Serif" font-size="11.00" fill="#000000">[table]</text>
<polygon fill="none" stroke="#000000" points="185.5,-693.7207 185.5,-712.7207 306.5,-712.7207 306.5,-693.7207 185.5,-693.7207"/>
<text text-anchor="start" x="188.5" y="-699.8207" font-family="Helvetica,sans-Serif" font-size="11.00" fill="#000000">...</text>
<polygon fill="#ffffff" stroke="transparent" points="185.5,-674.7207 185.5,-693.7207 226.5,-693.7207 226.5,-674.7207 185.5,-674.7207"/>
<polygon fill="none" stroke="#000000" points="185.5,-674.7207 185.5,-693.7207 226.5,-693.7207 226.5,-674.7207 185.5,-674.7207"/>
<text text-anchor="start" x="188.5" y="-680.8207" font-family="Helvetica,sans-Serif" font-size="11.00" fill="#000000">&lt; 2</text>
<polygon fill="#ffffff" stroke="transparent" points="226.5,-674.7207 226.5,-693.7207 274.5,-693.7207 274.5,-674.7207 226.5,-674.7207"/>
<polygon fill="none" stroke="#000000" points="226.5,-674.7207 226.5,-693.7207 274.5,-693.7207 274.5,-674.7207 226.5,-674.7207"/>
<text text-anchor="start" x="239.1105" y="-680.8207" font-family="Helvetica,sans-Serif" font-size="11.00" fill="#000000">0 rows</text>
<polygon fill="#ffffff" stroke="transparent" points="274.5,-674.7207 274.5,-693.7207 306.5,-693.7207 306.5,-674.7207 274.5,-674.7207"/>
<polygon fill="none" stroke="#000000" points="274.5,-674.7207 274.5,-693.7207 306.5,-693.7207 306.5,-674.7207 274.5,-674.7207"/>
<text text-anchor="start" x="287.9053" y="-680.8207" font-family="Helvetica,sans-Serif" font-size="11.00" fill="#000000">4 &gt;</text>
</a>
</g>
</g>
<!-- Competencies&#45;&gt;AspNetUsers -->
<g id="edge5" class="edge">
<title>Competencies:w&#45;&gt;AspNetUsers:e</title>
<path fill="none" stroke="#000000" d="M171.2278,-700.5792C107.0606,-684.7379 80.5787,-590.1409 70.5333,-537.6441"/>
<polygon fill="#000000" stroke="#000000" points="177.5886,-701.5336 184.9658,-706.2809 181.5443,-702.1272 185.5,-702.7207 185.5,-702.7207 185.5,-702.7207 181.5443,-702.1272 186.0342,-699.1606 177.5886,-701.5336 177.5886,-701.5336"/>
<ellipse fill="none" stroke="#000000" cx="174.424" cy="-701.0587" rx="3.2" ry="3.2"/>
</g>
<!-- Competencies&#45;&gt;AspNetUsers -->
<g id="edge6" class="edge">
<title>Competencies:w&#45;&gt;AspNetUsers:e</title>
<path fill="none" stroke="#000000" d="M171.0167,-702.3254C103.8315,-693.7954 78.041,-592.4165 69.1603,-537.4493"/>
<polygon fill="#000000" stroke="#000000" points="177.503,-702.5024 185.4017,-706.3194 181.5015,-702.6115 185.5,-702.7207 185.5,-702.7207 185.5,-702.7207 181.5015,-702.6115 185.5983,-699.1221 177.503,-702.5024 177.503,-702.5024"/>
<ellipse fill="none" stroke="#000000" cx="174.3042" cy="-702.415" rx="3.2" ry="3.2"/>
</g>
<!-- CompetencyLevelDescriptions -->
<g id="node7" class="node">
<title>CompetencyLevelDescriptions</title>
<g id="a_node7"><a xlink:href="../../tables/CompetencyLevelDescriptions.html" xlink:title="CompetencyLevelDescriptions" target="_top">
<polygon fill="#ffffff" stroke="transparent" points="383,-739.2207 383,-800.2207 597,-800.2207 597,-739.2207 383,-739.2207"/>
<polygon fill="#f5f5f5" stroke="transparent" points="383,-776.7207 383,-799.7207 597,-799.7207 597,-776.7207 383,-776.7207"/>
<polygon fill="none" stroke="#000000" points="383,-776.7207 383,-799.7207 597,-799.7207 597,-776.7207 383,-776.7207"/>
<text text-anchor="start" x="388" y="-785.3207" font-family="Helvetica,sans-Serif" font-weight="bold" font-size="11.00" fill="#000000">CompetencyLevelDescriptions</text>
<text text-anchor="start" x="562.5219" y="-784.8207" font-family="Helvetica,sans-Serif" font-size="11.00" fill="#000000">[table]</text>
<polygon fill="none" stroke="#000000" points="383,-757.7207 383,-776.7207 597,-776.7207 597,-757.7207 383,-757.7207"/>
<text text-anchor="start" x="386" y="-763.8207" font-family="Helvetica,sans-Serif" font-size="11.00" fill="#000000">...</text>
<polygon fill="#ffffff" stroke="transparent" points="383,-738.7207 383,-757.7207 475,-757.7207 475,-738.7207 383,-738.7207"/>
<polygon fill="none" stroke="#000000" points="383,-738.7207 383,-757.7207 475,-757.7207 475,-738.7207 383,-738.7207"/>
<text text-anchor="start" x="386" y="-744.8207" font-family="Helvetica,sans-Serif" font-size="11.00" fill="#000000">&lt; 3</text>
<polygon fill="#ffffff" stroke="transparent" points="475,-738.7207 475,-757.7207 549,-757.7207 549,-738.7207 475,-738.7207"/>
<polygon fill="none" stroke="#000000" points="475,-738.7207 475,-757.7207 549,-757.7207 549,-738.7207 475,-738.7207"/>
<text text-anchor="start" x="513.6105" y="-744.8207" font-family="Helvetica,sans-Serif" font-size="11.00" fill="#000000">0 rows</text>
<polygon fill="#ffffff" stroke="transparent" points="549,-738.7207 549,-757.7207 597,-757.7207 597,-738.7207 549,-738.7207"/>
<polygon fill="none" stroke="#000000" points="549,-738.7207 549,-757.7207 597,-757.7207 597,-738.7207 549,-738.7207"/>
<text text-anchor="start" x="587.8862" y="-744.8207" font-family="Helvetica,sans-Serif" font-size="11.00" fill="#000000"> &#160;</text>
</a>
</g>
</g>
<!-- CompetencyLevelDescriptions&#45;&gt;AspNetUsers -->
<g id="edge8" class="edge">
<title>CompetencyLevelDescriptions:w&#45;&gt;AspNetUsers:e</title>
<path fill="none" stroke="#000000" d="M368.4573,-766.1332C280.3542,-764.3918 237.7644,-796.3592 163,-740.7207 97.0802,-691.6643 75.4104,-590.9636 68.3538,-537.5818"/>
<polygon fill="#000000" stroke="#000000" points="375.0065,-766.3978 382.8547,-770.3178 379.0033,-766.5592 383,-766.7207 383,-766.7207 383,-766.7207 379.0033,-766.5592 383.1453,-763.1237 375.0065,-766.3978 375.0065,-766.3978"/>
<ellipse fill="none" stroke="#000000" cx="371.8091" cy="-766.2686" rx="3.2" ry="3.2"/>
</g>
<!-- CompetencyLevelDescriptions&#45;&gt;AspNetUsers -->
<g id="edge9" class="edge">
<title>CompetencyLevelDescriptions:w&#45;&gt;AspNetUsers:e</title>
<path fill="none" stroke="#000000" d="M368.4573,-768.0148C280.3542,-777.3918 237.7644,-809.3592 163,-753.7207 93.6011,-702.0752 73.2463,-593.1902 67.3543,-537.2667"/>
<polygon fill="#000000" stroke="#000000" points="375.0315,-767.4299 383.3191,-770.3066 379.0157,-767.0753 383,-766.7207 383,-766.7207 383,-766.7207 379.0157,-767.0753 382.6809,-763.1349 375.0315,-767.4299 375.0315,-767.4299"/>
<ellipse fill="none" stroke="#000000" cx="371.8441" cy="-767.7135" rx="3.2" ry="3.2"/>
</g>
<!-- CompetencyLevelDescriptions&#45;&gt;Competencies -->
<g id="edge7" class="edge">
<title>CompetencyLevelDescriptions:w&#45;&gt;Competencies:e</title>
<path fill="none" stroke="#000000" d="M368.8037,-763.9707C340.8277,-751.7207 345.2881,-702.7207 306.5,-702.7207"/>
<polygon fill="#000000" stroke="#000000" points="375.146,-765.1993 382.3153,-770.255 379.073,-765.96 383,-766.7207 383,-766.7207 383,-766.7207 379.073,-765.96 383.6847,-763.1864 375.146,-765.1993 375.146,-765.1993"/>
<ellipse fill="none" stroke="#000000" cx="372.0044" cy="-764.5907" rx="3.2" ry="3.2"/>
</g>
<!-- Coordinators -->
<g id="node8" class="node">
<title>Coordinators</title>
<g id="a_node8"><a xlink:href="../../tables/Coordinators.html" xlink:title="Coordinators" target="_top">
<polygon fill="#ffffff" stroke="transparent" points="433,-392.2207 433,-453.2207 547,-453.2207 547,-392.2207 433,-392.2207"/>
<polygon fill="#f5f5f5" stroke="transparent" points="433,-429.7207 433,-452.7207 547,-452.7207 547,-429.7207 433,-429.7207"/>
<polygon fill="none" stroke="#000000" points="433,-429.7207 433,-452.7207 547,-452.7207 547,-429.7207 433,-429.7207"/>
<text text-anchor="start" x="438" y="-438.3207" font-family="Helvetica,sans-Serif" font-weight="bold" font-size="11.00" fill="#000000">Coordinators</text>
<text text-anchor="start" x="512.5219" y="-437.8207" font-family="Helvetica,sans-Serif" font-size="11.00" fill="#000000">[table]</text>
<polygon fill="none" stroke="#000000" points="433,-410.7207 433,-429.7207 547,-429.7207 547,-410.7207 433,-410.7207"/>
<text text-anchor="start" x="436" y="-416.8207" font-family="Helvetica,sans-Serif" font-size="11.00" fill="#000000">...</text>
<polygon fill="#ffffff" stroke="transparent" points="433,-391.7207 433,-410.7207 475,-410.7207 475,-391.7207 433,-391.7207"/>
<polygon fill="none" stroke="#000000" points="433,-391.7207 433,-410.7207 475,-410.7207 475,-391.7207 433,-391.7207"/>
<text text-anchor="start" x="436" y="-397.8207" font-family="Helvetica,sans-Serif" font-size="11.00" fill="#000000">&lt; 2</text>
<polygon fill="#ffffff" stroke="transparent" points="475,-391.7207 475,-410.7207 524,-410.7207 524,-391.7207 475,-391.7207"/>
<polygon fill="none" stroke="#000000" points="475,-391.7207 475,-410.7207 524,-410.7207 524,-391.7207 475,-391.7207"/>
<text text-anchor="start" x="488.6105" y="-397.8207" font-family="Helvetica,sans-Serif" font-size="11.00" fill="#000000">0 rows</text>
<polygon fill="#ffffff" stroke="transparent" points="524,-391.7207 524,-410.7207 547,-410.7207 547,-391.7207 524,-391.7207"/>
<polygon fill="none" stroke="#000000" points="524,-391.7207 524,-410.7207 547,-410.7207 547,-391.7207 524,-391.7207"/>
<text text-anchor="start" x="537.8862" y="-397.8207" font-family="Helvetica,sans-Serif" font-size="11.00" fill="#000000"> &#160;</text>
</a>
</g>
</g>
<!-- Coordinators&#45;&gt;AspNetUsers -->
<g id="edge11" class="edge">
<title>Coordinators:w&#45;&gt;AspNetUsers:e</title>
<path fill="none" stroke="#000000" d="M422.4999,-421.288C373.0403,-429.1367 166.2511,-463.8296 163,-464.7207 152.1766,-467.6874 140.8977,-471.4218 130.0067,-475.3837"/>
<polygon fill="#000000" stroke="#000000" points="431.6182,-415.8827 432.7993,-423.795 431.2168,-424.0312 430.0358,-416.1189 431.6182,-415.8827"/>
<polyline fill="none" stroke="#000000" points="433,-419.7207 429.0438,-420.3113 "/>
<ellipse fill="none" stroke="#000000" cx="425.8789" cy="-420.7837" rx="3.2" ry="3.2"/>
</g>
<!-- TechnicalCareers -->
<g id="node9" class="node">
<title>TechnicalCareers</title>
<g id="a_node9"><a xlink:href="../../tables/TechnicalCareers.html" xlink:title="TechnicalCareers" target="_top">
<polygon fill="#ffffff" stroke="transparent" points="176,-365.2207 176,-426.2207 315,-426.2207 315,-365.2207 176,-365.2207"/>
<polygon fill="#f5f5f5" stroke="transparent" points="176.5,-402.7207 176.5,-425.7207 315.5,-425.7207 315.5,-402.7207 176.5,-402.7207"/>
<polygon fill="none" stroke="#000000" points="176.5,-402.7207 176.5,-425.7207 315.5,-425.7207 315.5,-402.7207 176.5,-402.7207"/>
<text text-anchor="start" x="181.5" y="-411.3207" font-family="Helvetica,sans-Serif" font-weight="bold" font-size="11.00" fill="#000000">TechnicalCareers</text>
<text text-anchor="start" x="281.0219" y="-410.8207" font-family="Helvetica,sans-Serif" font-size="11.00" fill="#000000">[table]</text>
<polygon fill="none" stroke="#000000" points="176.5,-383.7207 176.5,-402.7207 315.5,-402.7207 315.5,-383.7207 176.5,-383.7207"/>
<text text-anchor="start" x="179.5" y="-389.8207" font-family="Helvetica,sans-Serif" font-size="11.00" fill="#000000">...</text>
<polygon fill="#ffffff" stroke="transparent" points="176.5,-364.7207 176.5,-383.7207 226.5,-383.7207 226.5,-364.7207 176.5,-364.7207"/>
<polygon fill="none" stroke="#000000" points="176.5,-364.7207 176.5,-383.7207 226.5,-383.7207 226.5,-364.7207 176.5,-364.7207"/>
<text text-anchor="start" x="179.5" y="-370.8207" font-family="Helvetica,sans-Serif" font-size="11.00" fill="#000000">&lt; 2</text>
<polygon fill="#ffffff" stroke="transparent" points="226.5,-364.7207 226.5,-383.7207 279.5,-383.7207 279.5,-364.7207 226.5,-364.7207"/>
<polygon fill="none" stroke="#000000" points="226.5,-364.7207 226.5,-383.7207 279.5,-383.7207 279.5,-364.7207 226.5,-364.7207"/>
<text text-anchor="start" x="244.1105" y="-370.8207" font-family="Helvetica,sans-Serif" font-size="11.00" fill="#000000">0 rows</text>
<polygon fill="#ffffff" stroke="transparent" points="279.5,-364.7207 279.5,-383.7207 315.5,-383.7207 315.5,-364.7207 279.5,-364.7207"/>
<polygon fill="none" stroke="#000000" points="279.5,-364.7207 279.5,-383.7207 315.5,-383.7207 315.5,-364.7207 279.5,-364.7207"/>
<text text-anchor="start" x="296.9053" y="-370.8207" font-family="Helvetica,sans-Serif" font-size="11.00" fill="#000000">6 &gt;</text>
</a>
</g>
</g>
<!-- Coordinators&#45;&gt;TechnicalCareers -->
<g id="edge10" class="edge">
<title>Coordinators:w&#45;&gt;TechnicalCareers:e</title>
<path fill="none" stroke="#000000" d="M418.4586,-418.9985C376.9861,-414.7048 363.8505,-392.7207 315.5,-392.7207"/>
<polygon fill="#000000" stroke="#000000" points="425.0098,-419.3238 432.8214,-423.3163 429.0049,-419.5223 433,-419.7207 433,-419.7207 433,-419.7207 429.0049,-419.5223 433.1786,-416.1252 425.0098,-419.3238 425.0098,-419.3238"/>
<ellipse fill="none" stroke="#000000" cx="421.8138" cy="-419.1651" rx="3.2" ry="3.2"/>
</g>
<!-- TechnicalCareers&#45;&gt;AspNetUsers -->
<g id="edge46" class="edge">
<title>TechnicalCareers:w&#45;&gt;AspNetUsers:e</title>
<path fill="none" stroke="#000000" d="M162.028,-393.1281C123.9242,-398.6088 95.52,-437.9471 79.5931,-467.9973"/>
<polygon fill="#000000" stroke="#000000" points="168.5032,-392.9459 176.6013,-396.3193 172.5016,-392.8333 176.5,-392.7207 176.5,-392.7207 176.5,-392.7207 172.5016,-392.8333 176.3987,-389.1221 168.5032,-392.9459 168.5032,-392.9459"/>
<ellipse fill="none" stroke="#000000" cx="165.3044" cy="-393.036" rx="3.2" ry="3.2"/>
</g>
<!-- TechnicalCareers&#45;&gt;AspNetUsers -->
<g id="edge47" class="edge">
<title>TechnicalCareers:w&#45;&gt;AspNetUsers:e</title>
<path fill="none" stroke="#000000" d="M162.3766,-395.6038C127.9461,-406.2279 101.404,-440.9458 84.7897,-468.0736"/>
<polygon fill="#000000" stroke="#000000" points="168.6616,-394.3208 177.22,-396.248 172.5808,-393.5208 176.5,-392.7207 176.5,-392.7207 176.5,-392.7207 172.5808,-393.5208 175.78,-389.1935 168.6616,-394.3208 168.6616,-394.3208"/>
<ellipse fill="none" stroke="#000000" cx="165.5263" cy="-394.9609" rx="3.2" ry="3.2"/>
</g>
<!-- EvaluationPeriods -->
<g id="node10" class="node">
<title>EvaluationPeriods</title>
<g id="a_node10"><a xlink:href="../../tables/EvaluationPeriods.html" xlink:title="EvaluationPeriods" target="_top">
<polygon fill="#ffffff" stroke="transparent" points="174,-475.2207 174,-536.2207 317,-536.2207 317,-475.2207 174,-475.2207"/>
<polygon fill="#f5f5f5" stroke="transparent" points="174.5,-512.7207 174.5,-535.7207 317.5,-535.7207 317.5,-512.7207 174.5,-512.7207"/>
<polygon fill="none" stroke="#000000" points="174.5,-512.7207 174.5,-535.7207 317.5,-535.7207 317.5,-512.7207 174.5,-512.7207"/>
<text text-anchor="start" x="179.5" y="-521.3207" font-family="Helvetica,sans-Serif" font-weight="bold" font-size="11.00" fill="#000000">EvaluationPeriods</text>
<text text-anchor="start" x="283.0219" y="-520.8207" font-family="Helvetica,sans-Serif" font-size="11.00" fill="#000000">[table]</text>
<polygon fill="none" stroke="#000000" points="174.5,-493.7207 174.5,-512.7207 317.5,-512.7207 317.5,-493.7207 174.5,-493.7207"/>
<text text-anchor="start" x="177.5" y="-499.8207" font-family="Helvetica,sans-Serif" font-size="11.00" fill="#000000">...</text>
<polygon fill="#ffffff" stroke="transparent" points="174.5,-474.7207 174.5,-493.7207 226.5,-493.7207 226.5,-474.7207 174.5,-474.7207"/>
<polygon fill="none" stroke="#000000" points="174.5,-474.7207 174.5,-493.7207 226.5,-493.7207 226.5,-474.7207 174.5,-474.7207"/>
<text text-anchor="start" x="177.5" y="-480.8207" font-family="Helvetica,sans-Serif" font-size="11.00" fill="#000000">&lt; 2</text>
<polygon fill="#ffffff" stroke="transparent" points="226.5,-474.7207 226.5,-493.7207 280.5,-493.7207 280.5,-474.7207 226.5,-474.7207"/>
<polygon fill="none" stroke="#000000" points="226.5,-474.7207 226.5,-493.7207 280.5,-493.7207 280.5,-474.7207 226.5,-474.7207"/>
<text text-anchor="start" x="245.1105" y="-480.8207" font-family="Helvetica,sans-Serif" font-size="11.00" fill="#000000">0 rows</text>
<polygon fill="#ffffff" stroke="transparent" points="280.5,-474.7207 280.5,-493.7207 317.5,-493.7207 317.5,-474.7207 280.5,-474.7207"/>
<polygon fill="none" stroke="#000000" points="280.5,-474.7207 280.5,-493.7207 317.5,-493.7207 317.5,-474.7207 280.5,-474.7207"/>
<text text-anchor="start" x="298.9053" y="-480.8207" font-family="Helvetica,sans-Serif" font-size="11.00" fill="#000000">3 &gt;</text>
</a>
</g>
</g>
<!-- EvaluationPeriods&#45;&gt;AspNetUsers -->
<g id="edge12" class="edge">
<title>EvaluationPeriods:w&#45;&gt;AspNetUsers:e</title>
<path fill="none" stroke="#000000" d="M160.0957,-501.1474C150.1213,-500.1886 139.9465,-499.4654 130.1393,-498.9777"/>
<polygon fill="#000000" stroke="#000000" points="166.5473,-501.852 174.1091,-506.2994 170.5236,-502.2864 174.5,-502.7207 174.5,-502.7207 174.5,-502.7207 170.5236,-502.2864 174.8909,-499.142 166.5473,-501.852 166.5473,-501.852"/>
<ellipse fill="none" stroke="#000000" cx="163.3662" cy="-501.5046" rx="3.2" ry="3.2"/>
</g>
<!-- EvaluationPeriods&#45;&gt;AspNetUsers -->
<g id="edge13" class="edge">
<title>EvaluationPeriods:w&#45;&gt;AspNetUsers:e</title>
<path fill="none" stroke="#000000" d="M160.0957,-504.5563C150.1213,-505.6749 139.9465,-506.5186 130.1393,-507.0875"/>
<polygon fill="#000000" stroke="#000000" points="166.5642,-503.732 174.9551,-506.2918 170.5321,-503.2264 174.5,-502.7207 174.5,-502.7207 174.5,-502.7207 170.5321,-503.2264 174.0449,-499.1496 166.5642,-503.732 166.5642,-503.732"/>
<ellipse fill="none" stroke="#000000" cx="163.3898" cy="-504.1366" rx="3.2" ry="3.2"/>
</g>
<!-- FormQuestions -->
<g id="node11" class="node">
<title>FormQuestions</title>
<g id="a_node11"><a xlink:href="../../tables/FormQuestions.html" xlink:title="FormQuestions" target="_top">
<polygon fill="#ffffff" stroke="transparent" points="426.5,-636.2207 426.5,-697.2207 553.5,-697.2207 553.5,-636.2207 426.5,-636.2207"/>
<polygon fill="#f5f5f5" stroke="transparent" points="427,-673.7207 427,-696.7207 554,-696.7207 554,-673.7207 427,-673.7207"/>
<polygon fill="none" stroke="#000000" points="427,-673.7207 427,-696.7207 554,-696.7207 554,-673.7207 427,-673.7207"/>
<text text-anchor="start" x="432" y="-682.3207" font-family="Helvetica,sans-Serif" font-weight="bold" font-size="11.00" fill="#000000">FormQuestions</text>
<text text-anchor="start" x="519.5219" y="-681.8207" font-family="Helvetica,sans-Serif" font-size="11.00" fill="#000000">[table]</text>
<polygon fill="none" stroke="#000000" points="427,-654.7207 427,-673.7207 554,-673.7207 554,-654.7207 427,-654.7207"/>
<text text-anchor="start" x="430" y="-660.8207" font-family="Helvetica,sans-Serif" font-size="11.00" fill="#000000">...</text>
<polygon fill="#ffffff" stroke="transparent" points="427,-635.7207 427,-654.7207 471,-654.7207 471,-635.7207 427,-635.7207"/>
<polygon fill="none" stroke="#000000" points="427,-635.7207 427,-654.7207 471,-654.7207 471,-635.7207 427,-635.7207"/>
<text text-anchor="start" x="430" y="-641.8207" font-family="Helvetica,sans-Serif" font-size="11.00" fill="#000000">&lt; 3</text>
<polygon fill="#ffffff" stroke="transparent" points="471,-635.7207 471,-654.7207 521,-654.7207 521,-635.7207 471,-635.7207"/>
<polygon fill="none" stroke="#000000" points="471,-635.7207 471,-654.7207 521,-654.7207 521,-635.7207 471,-635.7207"/>
<text text-anchor="start" x="485.6105" y="-641.8207" font-family="Helvetica,sans-Serif" font-size="11.00" fill="#000000">0 rows</text>
<polygon fill="#ffffff" stroke="transparent" points="521,-635.7207 521,-654.7207 554,-654.7207 554,-635.7207 521,-635.7207"/>
<polygon fill="none" stroke="#000000" points="521,-635.7207 521,-654.7207 554,-654.7207 554,-635.7207 521,-635.7207"/>
<text text-anchor="start" x="535.4053" y="-641.8207" font-family="Helvetica,sans-Serif" font-size="11.00" fill="#000000">1 &gt;</text>
</a>
</g>
</g>
<!-- FormQuestions&#45;&gt;AspNetUsers -->
<g id="edge15" class="edge">
<title>FormQuestions:w&#45;&gt;AspNetUsers:e</title>
<path fill="none" stroke="#000000" d="M403.9958,-657.4282C321.3004,-650.1191 203.1189,-638.1254 163,-615.7207 130.1696,-597.3863 103.8569,-563.3325 86.7966,-537.3282"/>
<polygon fill="#000000" stroke="#000000" points="410.5133,-657.9982 418.1692,-662.2817 414.4981,-658.3468 418.4829,-658.6954 418.4829,-658.6954 418.4829,-658.6954 414.4981,-658.3468 418.7966,-655.109 410.5133,-657.9982 410.5133,-657.9982"/>
<ellipse fill="none" stroke="#000000" cx="407.3255" cy="-657.7194" rx="3.2" ry="3.2"/>
</g>
<!-- FormQuestions&#45;&gt;AspNetUsers -->
<g id="edge16" class="edge">
<title>FormQuestions:w&#45;&gt;AspNetUsers:e</title>
<path fill="none" stroke="#000000" d="M403.9958,-667.2323C321.3004,-663.1191 203.1189,-651.1254 163,-628.7207 125.8467,-607.9722 97.0405,-567.0921 80.545,-537.4144"/>
<polygon fill="#000000" stroke="#000000" points="410.4911,-667.5264 418.3199,-671.4848 414.487,-667.7074 418.4829,-667.8885 418.4829,-667.8885 418.4829,-667.8885 414.487,-667.7074 418.6458,-664.2922 410.4911,-667.5264 410.4911,-667.5264"/>
<ellipse fill="none" stroke="#000000" cx="407.2943" cy="-667.3816" rx="3.2" ry="3.2"/>
</g>
<!-- FormQuestions&#45;&gt;Competencies -->
<g id="edge14" class="edge">
<title>FormQuestions:w&#45;&gt;Competencies:e</title>
<path fill="none" stroke="#000000" d="M404.1243,-690.6777C373.5593,-697.3067 338.7303,-702.7207 306.5,-702.7207"/>
<polygon fill="#000000" stroke="#000000" points="410.4973,-689.228 419.0966,-690.9638 414.3977,-688.3408 418.2981,-687.4535 418.2981,-687.4535 418.2981,-687.4535 414.3977,-688.3408 417.4995,-683.9432 410.4973,-689.228 410.4973,-689.228"/>
<ellipse fill="none" stroke="#000000" cx="407.3771" cy="-689.9378" rx="3.2" ry="3.2"/>
</g>
<!-- ProfessorCompetencyAssignments -->
<g id="node12" class="node">
<title>ProfessorCompetencyAssignments</title>
<g id="a_node12"><a xlink:href="../../tables/ProfessorCompetencyAssignments.html" xlink:title="ProfessorCompetencyAssignments" target="_top">
<polygon fill="#ffffff" stroke="transparent" points="369,-511.2207 369,-572.2207 611,-572.2207 611,-511.2207 369,-511.2207"/>
<polygon fill="#f5f5f5" stroke="transparent" points="369,-548.7207 369,-571.7207 611,-571.7207 611,-548.7207 369,-548.7207"/>
<polygon fill="none" stroke="#000000" points="369,-548.7207 369,-571.7207 611,-571.7207 611,-548.7207 369,-548.7207"/>
<text text-anchor="start" x="374" y="-557.3207" font-family="Helvetica,sans-Serif" font-weight="bold" font-size="11.00" fill="#000000">ProfessorCompetencyAssignments</text>
<text text-anchor="start" x="576.5219" y="-556.8207" font-family="Helvetica,sans-Serif" font-size="11.00" fill="#000000">[table]</text>
<polygon fill="none" stroke="#000000" points="369,-529.7207 369,-548.7207 611,-548.7207 611,-529.7207 369,-529.7207"/>
<text text-anchor="start" x="372" y="-535.8207" font-family="Helvetica,sans-Serif" font-size="11.00" fill="#000000">...</text>
<polygon fill="#ffffff" stroke="transparent" points="369,-510.7207 369,-529.7207 471,-529.7207 471,-510.7207 369,-510.7207"/>
<polygon fill="none" stroke="#000000" points="369,-510.7207 369,-529.7207 471,-529.7207 471,-510.7207 369,-510.7207"/>
<text text-anchor="start" x="372" y="-516.8207" font-family="Helvetica,sans-Serif" font-size="11.00" fill="#000000">&lt; 6</text>
<polygon fill="#ffffff" stroke="transparent" points="471,-510.7207 471,-529.7207 549,-529.7207 549,-510.7207 471,-510.7207"/>
<polygon fill="none" stroke="#000000" points="471,-510.7207 471,-529.7207 549,-529.7207 549,-510.7207 471,-510.7207"/>
<text text-anchor="start" x="513.6105" y="-516.8207" font-family="Helvetica,sans-Serif" font-size="11.00" fill="#000000">0 rows</text>
<polygon fill="#ffffff" stroke="transparent" points="549,-510.7207 549,-529.7207 611,-529.7207 611,-510.7207 549,-510.7207"/>
<polygon fill="none" stroke="#000000" points="549,-510.7207 549,-529.7207 611,-529.7207 611,-510.7207 549,-510.7207"/>
<text text-anchor="start" x="592.4053" y="-516.8207" font-family="Helvetica,sans-Serif" font-size="11.00" fill="#000000">1 &gt;</text>
</a>
</g>
</g>
<!-- ProfessorCompetencyAssignments&#45;&gt;AspNetUsers -->
<g id="edge18" class="edge">
<title>ProfessorCompetencyAssignments:w&#45;&gt;AspNetUsers:e</title>
<path fill="none" stroke="#000000" d="M354.6992,-536.1676C346.4106,-536.2472 340.5605,-539.5068 328,-540.7207 255.0068,-547.7755 234.7069,-556.0797 163,-540.7207 152.0581,-538.3771 140.862,-534.715 130.1318,-530.5586"/>
<polygon fill="#000000" stroke="#000000" points="361.1245,-537.3147 368.3673,-542.2647 365.0623,-538.0177 369,-538.7207 369,-538.7207 369,-538.7207 365.0623,-538.0177 369.6327,-535.1768 361.1245,-537.3147 361.1245,-537.3147"/>
<ellipse fill="none" stroke="#000000" cx="357.9743" cy="-536.7523" rx="3.2" ry="3.2"/>
</g>
<!-- ProfessorCompetencyAssignments&#45;&gt;AspNetUsers -->
<g id="edge22" class="edge">
<title>ProfessorCompetencyAssignments:w&#45;&gt;AspNetUsers:e</title>
<path fill="none" stroke="#000000" d="M355.5657,-544.652C346.806,-549.02 340.9936,-552.4649 328,-553.7207 255.0068,-560.7755 234.7069,-569.0797 163,-553.7207 147.2255,-550.342 130.9224,-544.223 116.249,-537.3314"/>
<polygon fill="#000000" stroke="#000000" points="361.6815,-541.9519 370.454,-542.014 365.3408,-540.3363 369,-538.7207 369,-538.7207 369,-538.7207 365.3408,-540.3363 367.546,-535.4274 361.6815,-541.9519 361.6815,-541.9519"/>
<ellipse fill="none" stroke="#000000" cx="358.7541" cy="-543.2443" rx="3.2" ry="3.2"/>
</g>
<!-- ProfessorCompetencyAssignments&#45;&gt;Competencies -->
<g id="edge17" class="edge">
<title>ProfessorCompetencyAssignments:w&#45;&gt;Competencies:e</title>
<path fill="none" stroke="#000000" d="M354.6468,-541.1663C303.6162,-561.5674 378.8656,-702.7207 306.5,-702.7207"/>
<polygon fill="#000000" stroke="#000000" points="361.1137,-540.0645 369.6047,-542.2696 365.0568,-539.3926 369,-538.7207 369,-538.7207 369,-538.7207 365.0568,-539.3926 368.3953,-535.1719 361.1137,-540.0645 361.1137,-540.0645"/>
<ellipse fill="none" stroke="#000000" cx="357.9591" cy="-540.602" rx="3.2" ry="3.2"/>
</g>
<!-- ProfessorCompetencyAssignments&#45;&gt;TechnicalCareers -->
<g id="edge21" class="edge">
<title>ProfessorCompetencyAssignments:w&#45;&gt;TechnicalCareers:e</title>
<path fill="none" stroke="#000000" d="M354.6607,-535.8043C313.0365,-515.2271 378.8042,-392.7207 315.5,-392.7207"/>
<polygon fill="#000000" stroke="#000000" points="361.1605,-537.1262 368.2825,-542.2485 365.0802,-537.9235 369,-538.7207 369,-538.7207 369,-538.7207 365.0802,-537.9235 369.7175,-535.1929 361.1605,-537.1262 361.1605,-537.1262"/>
<ellipse fill="none" stroke="#000000" cx="358.0247" cy="-536.4884" rx="3.2" ry="3.2"/>
</g>
<!-- ProfessorCompetencyAssignments&#45;&gt;EvaluationPeriods -->
<g id="edge19" class="edge">
<title>ProfessorCompetencyAssignments:w&#45;&gt;EvaluationPeriods:e</title>
<path fill="none" stroke="#000000" d="M355.0306,-534.5911C341.4736,-525.135 339.5359,-502.7207 317.5,-502.7207"/>
<polygon fill="#000000" stroke="#000000" points="361.3282,-536.4527 367.9794,-542.173 365.1641,-537.5867 369,-538.7207 369,-538.7207 369,-538.7207 365.1641,-537.5867 370.0206,-535.2684 361.3282,-536.4527 361.3282,-536.4527"/>
<ellipse fill="none" stroke="#000000" cx="358.2595" cy="-535.5455" rx="3.2" ry="3.2"/>
</g>
<!-- Professors -->
<g id="node13" class="node">
<title>Professors</title>
<g id="a_node13"><a xlink:href="../../tables/Professors.html" xlink:title="Professors" target="_top">
<polygon fill="#ffffff" stroke="transparent" points="195,-283.2207 195,-344.2207 296,-344.2207 296,-283.2207 195,-283.2207"/>
<polygon fill="#f5f5f5" stroke="transparent" points="195.5,-320.7207 195.5,-343.7207 296.5,-343.7207 296.5,-320.7207 195.5,-320.7207"/>
<polygon fill="none" stroke="#000000" points="195.5,-320.7207 195.5,-343.7207 296.5,-343.7207 296.5,-320.7207 195.5,-320.7207"/>
<text text-anchor="start" x="200.5" y="-329.3207" font-family="Helvetica,sans-Serif" font-weight="bold" font-size="11.00" fill="#000000">Professors</text>
<text text-anchor="start" x="262.0219" y="-328.8207" font-family="Helvetica,sans-Serif" font-size="11.00" fill="#000000">[table]</text>
<polygon fill="none" stroke="#000000" points="195.5,-301.7207 195.5,-320.7207 296.5,-320.7207 296.5,-301.7207 195.5,-301.7207"/>
<text text-anchor="start" x="198.5" y="-307.8207" font-family="Helvetica,sans-Serif" font-size="11.00" fill="#000000">...</text>
<polygon fill="#ffffff" stroke="transparent" points="195.5,-282.7207 195.5,-301.7207 226.5,-301.7207 226.5,-282.7207 195.5,-282.7207"/>
<polygon fill="none" stroke="#000000" points="195.5,-282.7207 195.5,-301.7207 226.5,-301.7207 226.5,-282.7207 195.5,-282.7207"/>
<text text-anchor="start" x="198.5" y="-288.8207" font-family="Helvetica,sans-Serif" font-size="11.00" fill="#000000">&lt; 1</text>
<polygon fill="#ffffff" stroke="transparent" points="226.5,-282.7207 226.5,-301.7207 269.5,-301.7207 269.5,-282.7207 226.5,-282.7207"/>
<polygon fill="none" stroke="#000000" points="226.5,-282.7207 226.5,-301.7207 269.5,-301.7207 269.5,-282.7207 226.5,-282.7207"/>
<text text-anchor="start" x="234.1105" y="-288.8207" font-family="Helvetica,sans-Serif" font-size="11.00" fill="#000000">0 rows</text>
<polygon fill="#ffffff" stroke="transparent" points="269.5,-282.7207 269.5,-301.7207 296.5,-301.7207 296.5,-282.7207 269.5,-282.7207"/>
<polygon fill="none" stroke="#000000" points="269.5,-282.7207 269.5,-301.7207 296.5,-301.7207 296.5,-282.7207 269.5,-282.7207"/>
<text text-anchor="start" x="277.9053" y="-288.8207" font-family="Helvetica,sans-Serif" font-size="11.00" fill="#000000">2 &gt;</text>
</a>
</g>
</g>
<!-- ProfessorCompetencyAssignments&#45;&gt;Professors -->
<g id="edge20" class="edge">
<title>ProfessorCompetencyAssignments:w&#45;&gt;Professors:e</title>
<path fill="none" stroke="#000000" d="M354.3558,-537.339C294.9489,-524.5791 359.9152,-426.1331 328,-354.7207 318.187,-332.7634 320.5504,-310.7207 296.5,-310.7207"/>
<polygon fill="#000000" stroke="#000000" points="361.0354,-537.9692 368.6618,-542.3048 365.0177,-538.345 369,-538.7207 369,-538.7207 369,-538.7207 365.0177,-538.345 369.3382,-535.1366 361.0354,-537.9692 361.0354,-537.9692"/>
<ellipse fill="none" stroke="#000000" cx="357.8495" cy="-537.6686" rx="3.2" ry="3.2"/>
</g>
<!-- Professors&#45;&gt;AspNetUsers -->
<g id="edge23" class="edge">
<title>Professors:w&#45;&gt;AspNetUsers:e</title>
<path fill="none" stroke="#000000" d="M184.775,-311.4323C116.9753,-320.561 84.7708,-415.3235 72.0123,-467.951"/>
<polygon fill="#000000" stroke="#000000" points="194.4369,-306.7825 194.9666,-314.7649 193.3701,-314.8709 192.8404,-306.8884 194.4369,-306.7825"/>
<polyline fill="none" stroke="#000000" points="195.5,-310.7207 191.5088,-310.9856 "/>
<ellipse fill="none" stroke="#000000" cx="188.3158" cy="-311.1974" rx="3.2" ry="3.2"/>
</g>
<!-- QuestionResponses -->
<g id="node14" class="node">
<title>QuestionResponses</title>
<g id="a_node14"><a xlink:href="../../tables/QuestionResponses.html" xlink:title="QuestionResponses" target="_top">
<polygon fill="#ffffff" stroke="transparent" points="932,-206.7207 932,-472.7207 1239,-472.7207 1239,-206.7207 932,-206.7207"/>
<polygon fill="#f5f5f5" stroke="transparent" points="934.5,-447.7207 934.5,-470.7207 1237.5,-470.7207 1237.5,-447.7207 934.5,-447.7207"/>
<polygon fill="none" stroke="#000000" points="934.5,-447.7207 934.5,-470.7207 1237.5,-470.7207 1237.5,-447.7207 934.5,-447.7207"/>
<text text-anchor="start" x="939.5" y="-456.3207" font-family="Helvetica,sans-Serif" font-weight="bold" font-size="11.00" fill="#000000">QuestionResponses</text>
<text text-anchor="start" x="1202.5437" y="-455.8207" font-family="Helvetica,sans-Serif" font-size="11.00" fill="#000000">[table]</text>
<polygon fill="none" stroke="#000000" points="934.5,-425.7207 934.5,-447.7207 1143.5,-447.7207 1143.5,-425.7207 934.5,-425.7207"/>
<image xlink:href="../../images/primaryKeys.png" width="11px" height="12px" preserveAspectRatio="xMinYMin meet" x="939.5" y="-442.721"/>
<text text-anchor="start" x="954.5" y="-432.8207" font-family="Helvetica,sans-Serif" font-size="11.00" fill="#000000">Id</text>
<polygon fill="none" stroke="#000000" points="1143.5,-425.7207 1143.5,-447.7207 1237.5,-447.7207 1237.5,-425.7207 1143.5,-425.7207"/>
<text text-anchor="start" x="1146.4758" y="-433.4207" font-family="Helvetica,sans-Serif" font-size="11.00" fill="#000000">uuid[2147483647]</text>
<polygon fill="#ffffff" stroke="transparent" points="934.5,-403.7207 934.5,-425.7207 1143.5,-425.7207 1143.5,-403.7207 934.5,-403.7207"/>
<polygon fill="none" stroke="#000000" points="934.5,-403.7207 934.5,-425.7207 1143.5,-425.7207 1143.5,-403.7207 934.5,-403.7207"/>
<image xlink:href="../../images/foreignKeys.png" width="11px" height="12px" preserveAspectRatio="xMinYMin meet" x="939.5" y="-420.721"/>
<text text-anchor="start" x="954.5" y="-410.8207" font-family="Helvetica,sans-Serif" font-size="11.00" fill="#000000">FormQuestionId</text>
<polygon fill="none" stroke="#000000" points="1143.5,-403.7207 1143.5,-425.7207 1237.5,-425.7207 1237.5,-403.7207 1143.5,-403.7207"/>
<text text-anchor="start" x="1146.4758" y="-411.4207" font-family="Helvetica,sans-Serif" font-size="11.00" fill="#000000">uuid[2147483647]</text>
<polygon fill="#ffffff" stroke="transparent" points="934.5,-381.7207 934.5,-403.7207 1143.5,-403.7207 1143.5,-381.7207 934.5,-381.7207"/>
<polygon fill="none" stroke="#000000" points="934.5,-381.7207 934.5,-403.7207 1143.5,-403.7207 1143.5,-381.7207 934.5,-381.7207"/>
<image xlink:href="../../images/foreignKeys.png" width="11px" height="12px" preserveAspectRatio="xMinYMin meet" x="939.5" y="-398.721"/>
<text text-anchor="start" x="954.5" y="-388.8207" font-family="Helvetica,sans-Serif" font-size="11.00" fill="#000000">StudentCompetencyEvaluationId</text>
<polygon fill="none" stroke="#000000" points="1143.5,-381.7207 1143.5,-403.7207 1237.5,-403.7207 1237.5,-381.7207 1143.5,-381.7207"/>
<text text-anchor="start" x="1146.4758" y="-389.4207" font-family="Helvetica,sans-Serif" font-size="11.00" fill="#000000">uuid[2147483647]</text>
<polygon fill="none" stroke="#000000" points="934.5,-359.7207 934.5,-381.7207 1143.5,-381.7207 1143.5,-359.7207 934.5,-359.7207"/>
<text text-anchor="start" x="954.5" y="-366.8207" font-family="Helvetica,sans-Serif" font-size="11.00" fill="#000000">ResponseValue</text>
<polygon fill="none" stroke="#000000" points="1143.5,-359.7207 1143.5,-381.7207 1237.5,-381.7207 1237.5,-359.7207 1143.5,-359.7207"/>
<text text-anchor="start" x="1146.5" y="-367.4207" font-family="Helvetica,sans-Serif" font-size="11.00" fill="#000000">int4[10]</text>
<polygon fill="none" stroke="#000000" points="934.5,-337.7207 934.5,-359.7207 1143.5,-359.7207 1143.5,-337.7207 934.5,-337.7207"/>
<text text-anchor="start" x="954.5" y="-344.8207" font-family="Helvetica,sans-Serif" font-size="11.00" fill="#000000">Comments</text>
<polygon fill="none" stroke="#000000" points="1143.5,-337.7207 1143.5,-359.7207 1237.5,-359.7207 1237.5,-337.7207 1143.5,-337.7207"/>
<text text-anchor="start" x="1146.5" y="-345.4207" font-family="Helvetica,sans-Serif" font-size="11.00" fill="#000000">text[2147483647]</text>
<polygon fill="none" stroke="#000000" points="934.5,-315.7207 934.5,-337.7207 1143.5,-337.7207 1143.5,-315.7207 934.5,-315.7207"/>
<text text-anchor="start" x="954.5" y="-322.8207" font-family="Helvetica,sans-Serif" font-size="11.00" fill="#000000">IsActive</text>
<polygon fill="none" stroke="#000000" points="1143.5,-315.7207 1143.5,-337.7207 1237.5,-337.7207 1237.5,-315.7207 1143.5,-315.7207"/>
<text text-anchor="start" x="1146.5" y="-323.4207" font-family="Helvetica,sans-Serif" font-size="11.00" fill="#000000">bool[1]</text>
<polygon fill="none" stroke="#000000" points="934.5,-293.7207 934.5,-315.7207 1143.5,-315.7207 1143.5,-293.7207 934.5,-293.7207"/>
<text text-anchor="start" x="954.5" y="-300.8207" font-family="Helvetica,sans-Serif" font-size="11.00" fill="#000000">CreatedAt</text>
<polygon fill="none" stroke="#000000" points="1143.5,-293.7207 1143.5,-315.7207 1237.5,-315.7207 1237.5,-293.7207 1143.5,-293.7207"/>
<text text-anchor="start" x="1146.5" y="-301.4207" font-family="Helvetica,sans-Serif" font-size="11.00" fill="#000000">timestamptz[35,6]</text>
<polygon fill="none" stroke="#000000" points="934.5,-271.7207 934.5,-293.7207 1143.5,-293.7207 1143.5,-271.7207 934.5,-271.7207"/>
<text text-anchor="start" x="954.5" y="-278.8207" font-family="Helvetica,sans-Serif" font-size="11.00" fill="#000000">UpdatedAt</text>
<polygon fill="none" stroke="#000000" points="1143.5,-271.7207 1143.5,-293.7207 1237.5,-293.7207 1237.5,-271.7207 1143.5,-271.7207"/>
<text text-anchor="start" x="1146.5" y="-279.4207" font-family="Helvetica,sans-Serif" font-size="11.00" fill="#000000">timestamptz[35,6]</text>
<polygon fill="#ffffff" stroke="transparent" points="934.5,-249.7207 934.5,-271.7207 1143.5,-271.7207 1143.5,-249.7207 934.5,-249.7207"/>
<polygon fill="none" stroke="#000000" points="934.5,-249.7207 934.5,-271.7207 1143.5,-271.7207 1143.5,-249.7207 934.5,-249.7207"/>
<image xlink:href="../../images/foreignKeys.png" width="11px" height="12px" preserveAspectRatio="xMinYMin meet" x="939.5" y="-266.721"/>
<text text-anchor="start" x="954.5" y="-256.8207" font-family="Helvetica,sans-Serif" font-size="11.00" fill="#000000">CreatedByUserId</text>
<polygon fill="none" stroke="#000000" points="1143.5,-249.7207 1143.5,-271.7207 1237.5,-271.7207 1237.5,-249.7207 1143.5,-249.7207"/>
<text text-anchor="start" x="1146.5" y="-257.4207" font-family="Helvetica,sans-Serif" font-size="11.00" fill="#000000">text[2147483647]</text>
<polygon fill="#ffffff" stroke="transparent" points="934.5,-227.7207 934.5,-249.7207 1143.5,-249.7207 1143.5,-227.7207 934.5,-227.7207"/>
<polygon fill="none" stroke="#000000" points="934.5,-227.7207 934.5,-249.7207 1143.5,-249.7207 1143.5,-227.7207 934.5,-227.7207"/>
<image xlink:href="../../images/foreignKeys.png" width="11px" height="12px" preserveAspectRatio="xMinYMin meet" x="939.5" y="-244.721"/>
<text text-anchor="start" x="954.5" y="-234.8207" font-family="Helvetica,sans-Serif" font-size="11.00" fill="#000000">UpdatedByUserId</text>
<polygon fill="none" stroke="#000000" points="1143.5,-227.7207 1143.5,-249.7207 1237.5,-249.7207 1237.5,-227.7207 1143.5,-227.7207"/>
<text text-anchor="start" x="1146.5" y="-235.4207" font-family="Helvetica,sans-Serif" font-size="11.00" fill="#000000">text[2147483647]</text>
<polygon fill="#ffffff" stroke="transparent" points="934.5,-208.7207 934.5,-227.7207 1030.5,-227.7207 1030.5,-208.7207 934.5,-208.7207"/>
<polygon fill="none" stroke="#000000" points="934.5,-208.7207 934.5,-227.7207 1030.5,-227.7207 1030.5,-208.7207 934.5,-208.7207"/>
<text text-anchor="start" x="937.5" y="-214.8207" font-family="Helvetica,sans-Serif" font-size="11.00" fill="#000000">&lt; 4</text>
<polygon fill="#ffffff" stroke="transparent" points="1030.5,-208.7207 1030.5,-227.7207 1143.5,-227.7207 1143.5,-208.7207 1030.5,-208.7207"/>
<polygon fill="none" stroke="#000000" points="1030.5,-208.7207 1030.5,-227.7207 1143.5,-227.7207 1143.5,-208.7207 1030.5,-208.7207"/>
<text text-anchor="start" x="1108.1105" y="-214.8207" font-family="Helvetica,sans-Serif" font-size="11.00" fill="#000000">0 rows</text>
<polygon fill="#ffffff" stroke="transparent" points="1143.5,-208.7207 1143.5,-227.7207 1237.5,-227.7207 1237.5,-208.7207 1143.5,-208.7207"/>
<polygon fill="none" stroke="#000000" points="1143.5,-208.7207 1143.5,-227.7207 1237.5,-227.7207 1237.5,-208.7207 1143.5,-208.7207"/>
<text text-anchor="start" x="1218.9053" y="-214.8207" font-family="Helvetica,sans-Serif" font-size="11.00" fill="#000000">0 &gt;</text>
<polygon fill="none" stroke="#000000" stroke-width="2" points="933,-207.7207 933,-471.7207 1238,-471.7207 1238,-207.7207 933,-207.7207"/>
</a>
</g>
</g>
<!-- QuestionResponses&#45;&gt;AspNetUsers -->
<g id="edge24" class="edge">
<title>QuestionResponses:w&#45;&gt;AspNetUsers:e</title>
<path fill="none" stroke="#000000" d="M920.1679,-257.7916C891.956,-243.0036 929.5782,-176.1772 891,-148.7207 825.0889,-101.8111 227.1778,-87.4663 163,-136.7207 109.9035,-177.4706 79.2959,-384.7102 68.975,-467.997"/>
<polygon fill="#000000" stroke="#000000" points="926.662,-259.1188 933.7791,-264.2478 930.581,-259.9198 934.5,-260.7207 934.5,-260.7207 934.5,-260.7207 930.581,-259.9198 935.2209,-257.1936 926.662,-259.1188 926.662,-259.1188"/>
<ellipse fill="none" stroke="#000000" cx="923.5268" cy="-258.478" rx="3.2" ry="3.2"/>
</g>
<!-- QuestionResponses&#45;&gt;AspNetUsers -->
<g id="edge27" class="edge">
<title>QuestionResponses:w&#45;&gt;AspNetUsers:e</title>
<path fill="none" stroke="#000000" d="M920.1621,-236.1953C885.7462,-221.0707 934.9927,-142.0538 891,-109.7207 760.6419,-13.9122 289.6377,-6.0461 163,-106.7207 105.9664,-152.0613 77.3066,-380.3172 68.2529,-468.1785"/>
<polygon fill="#000000" stroke="#000000" points="926.6213,-237.333 933.8755,-242.2661 930.5606,-238.0268 934.5,-238.7207 934.5,-238.7207 934.5,-238.7207 930.5606,-238.0268 935.1245,-235.1753 926.6213,-237.333 926.6213,-237.333"/>
<ellipse fill="none" stroke="#000000" cx="923.4698" cy="-236.7779" rx="3.2" ry="3.2"/>
</g>
<!-- QuestionResponses&#45;&gt;FormQuestions -->
<g id="edge25" class="edge">
<title>QuestionResponses:w&#45;&gt;FormQuestions:e</title>
<path fill="none" stroke="#000000" d="M920.1825,-416.5104C870.8133,-431.099 941.7293,-531.1818 891,-579.7207 802.2114,-664.6755 651.0075,-674.6423 561.8167,-672.1059"/>
<polygon fill="#000000" stroke="#000000" points="926.5618,-415.713 934.9465,-418.2929 930.5309,-415.2169 934.5,-414.7207 934.5,-414.7207 934.5,-414.7207 930.5309,-415.2169 934.0535,-411.1485 926.5618,-415.713 926.5618,-415.713"/>
<ellipse fill="none" stroke="#000000" cx="923.3865" cy="-416.1099" rx="3.2" ry="3.2"/>
</g>
<!-- StudentCompetencyEvaluations -->
<g id="node15" class="node">
<title>StudentCompetencyEvaluations</title>
<g id="a_node15"><a xlink:href="../../tables/StudentCompetencyEvaluations.html" xlink:title="StudentCompetencyEvaluations" target="_top">
<polygon fill="#ffffff" stroke="transparent" points="660,-508.2207 660,-569.2207 883,-569.2207 883,-508.2207 660,-508.2207"/>
<polygon fill="#f5f5f5" stroke="transparent" points="660.5,-545.7207 660.5,-568.7207 883.5,-568.7207 883.5,-545.7207 660.5,-545.7207"/>
<polygon fill="none" stroke="#000000" points="660.5,-545.7207 660.5,-568.7207 883.5,-568.7207 883.5,-545.7207 660.5,-545.7207"/>
<text text-anchor="start" x="665.5" y="-554.3207" font-family="Helvetica,sans-Serif" font-weight="bold" font-size="11.00" fill="#000000">StudentCompetencyEvaluations</text>
<text text-anchor="start" x="849.0219" y="-553.8207" font-family="Helvetica,sans-Serif" font-size="11.00" fill="#000000">[table]</text>
<polygon fill="none" stroke="#000000" points="660.5,-526.7207 660.5,-545.7207 883.5,-545.7207 883.5,-526.7207 660.5,-526.7207"/>
<text text-anchor="start" x="663.5" y="-532.8207" font-family="Helvetica,sans-Serif" font-size="11.00" fill="#000000">...</text>
<polygon fill="#ffffff" stroke="transparent" points="660.5,-507.7207 660.5,-526.7207 752.5,-526.7207 752.5,-507.7207 660.5,-507.7207"/>
<polygon fill="none" stroke="#000000" points="660.5,-507.7207 660.5,-526.7207 752.5,-526.7207 752.5,-507.7207 660.5,-507.7207"/>
<text text-anchor="start" x="663.5" y="-513.8207" font-family="Helvetica,sans-Serif" font-size="11.00" fill="#000000">&lt; 4</text>
<polygon fill="#ffffff" stroke="transparent" points="752.5,-507.7207 752.5,-526.7207 826.5,-526.7207 826.5,-507.7207 752.5,-507.7207"/>
<polygon fill="none" stroke="#000000" points="752.5,-507.7207 752.5,-526.7207 826.5,-526.7207 826.5,-507.7207 752.5,-507.7207"/>
<text text-anchor="start" x="791.1105" y="-513.8207" font-family="Helvetica,sans-Serif" font-size="11.00" fill="#000000">0 rows</text>
<polygon fill="#ffffff" stroke="transparent" points="826.5,-507.7207 826.5,-526.7207 883.5,-526.7207 883.5,-507.7207 826.5,-507.7207"/>
<polygon fill="none" stroke="#000000" points="826.5,-507.7207 826.5,-526.7207 883.5,-526.7207 883.5,-507.7207 826.5,-507.7207"/>
<text text-anchor="start" x="864.9053" y="-513.8207" font-family="Helvetica,sans-Serif" font-size="11.00" fill="#000000">1 &gt;</text>
</a>
</g>
</g>
<!-- QuestionResponses&#45;&gt;StudentCompetencyEvaluations -->
<g id="edge26" class="edge">
<title>QuestionResponses:w&#45;&gt;StudentCompetencyEvaluations:e</title>
<path fill="none" stroke="#000000" d="M919.9448,-393.81C860.4748,-402.71 814.3214,-464.1509 790.1611,-504.1208"/>
<polygon fill="#000000" stroke="#000000" points="926.5223,-393.3178 934.7687,-396.3107 930.5112,-393.0193 934.5,-392.7207 934.5,-392.7207 934.5,-392.7207 930.5112,-393.0193 934.2313,-389.1308 926.5223,-393.3178 926.5223,-393.3178"/>
<ellipse fill="none" stroke="#000000" cx="923.3312" cy="-393.5567" rx="3.2" ry="3.2"/>
</g>
<!-- StudentCompetencyEvaluations&#45;&gt;AspNetUsers -->
<g id="edge28" class="edge">
<title>StudentCompetencyEvaluations:w&#45;&gt;AspNetUsers:e</title>
<path fill="none" stroke="#000000" d="M637.6717,-573.5943C631.392,-574.795 625.1464,-575.8517 619,-576.7207 418.2054,-605.1088 354.8769,-626.353 163,-560.7207 146.8493,-555.1963 130.7463,-546.4067 116.3985,-537.3014"/>
<polygon fill="#000000" stroke="#000000" points="644.0614,-572.2736 652.6245,-574.1796 647.9786,-571.4639 651.8958,-570.6542 651.8958,-570.6542 651.8958,-570.6542 647.9786,-571.4639 651.1671,-567.1287 644.0614,-572.2736 644.0614,-572.2736"/>
<ellipse fill="none" stroke="#000000" cx="640.9277" cy="-572.9214" rx="3.2" ry="3.2"/>
</g>
<!-- StudentCompetencyEvaluations&#45;&gt;AspNetUsers -->
<g id="edge31" class="edge">
<title>StudentCompetencyEvaluations:w&#45;&gt;AspNetUsers:e</title>
<path fill="none" stroke="#000000" d="M676.9463,-577.3061C657.9652,-582.55 638.0084,-587.0333 619,-589.7207 418.2054,-618.1088 354.8769,-639.353 163,-573.7207 139.9276,-565.8287 116.9524,-551.273 99.0529,-537.3138"/>
<polygon fill="#000000" stroke="#000000" points="683.2173,-575.4912 691.9027,-576.7252 687.0596,-574.3792 690.9019,-573.2671 690.9019,-573.2671 690.9019,-573.2671 687.0596,-574.3792 689.9011,-569.809 683.2173,-575.4912 683.2173,-575.4912"/>
<ellipse fill="none" stroke="#000000" cx="680.1434" cy="-576.3809" rx="3.2" ry="3.2"/>
</g>
<!-- StudentCompetencyEvaluations&#45;&gt;ProfessorCompetencyAssignments -->
<g id="edge29" class="edge">
<title>StudentCompetencyEvaluations:w&#45;&gt;ProfessorCompetencyAssignments:e</title>
<path fill="none" stroke="#000000" d="M637.3356,-538.7207C628.4232,-538.7207 619.5825,-538.7207 611,-538.7207"/>
<polygon fill="#000000" stroke="#000000" points="643.8654,-538.7208 651.8654,-542.3207 647.8654,-538.7207 651.8654,-538.7207 651.8654,-538.7207 651.8654,-538.7207 647.8654,-538.7207 651.8654,-535.1207 643.8654,-538.7208 643.8654,-538.7208"/>
<ellipse fill="none" stroke="#000000" cx="640.6654" cy="-538.7208" rx="3.2" ry="3.2"/>
</g>
<!-- Students -->
<g id="node16" class="node">
<title>Students</title>
<g id="a_node16"><a xlink:href="../../tables/Students.html" xlink:title="Students" target="_top">
<polygon fill="#ffffff" stroke="transparent" points="445,-299.2207 445,-360.2207 535,-360.2207 535,-299.2207 445,-299.2207"/>
<polygon fill="#f5f5f5" stroke="transparent" points="445,-336.7207 445,-359.7207 535,-359.7207 535,-336.7207 445,-336.7207"/>
<polygon fill="none" stroke="#000000" points="445,-336.7207 445,-359.7207 535,-359.7207 535,-336.7207 445,-336.7207"/>
<text text-anchor="start" x="450" y="-345.3207" font-family="Helvetica,sans-Serif" font-weight="bold" font-size="11.00" fill="#000000">Students</text>
<text text-anchor="start" x="500.5219" y="-344.8207" font-family="Helvetica,sans-Serif" font-size="11.00" fill="#000000">[table]</text>
<polygon fill="none" stroke="#000000" points="445,-317.7207 445,-336.7207 535,-336.7207 535,-317.7207 445,-317.7207"/>
<text text-anchor="start" x="448" y="-323.8207" font-family="Helvetica,sans-Serif" font-size="11.00" fill="#000000">...</text>
<polygon fill="#ffffff" stroke="transparent" points="445,-298.7207 445,-317.7207 471,-317.7207 471,-298.7207 445,-298.7207"/>
<polygon fill="none" stroke="#000000" points="445,-298.7207 445,-317.7207 471,-317.7207 471,-298.7207 445,-298.7207"/>
<text text-anchor="start" x="448" y="-304.8207" font-family="Helvetica,sans-Serif" font-size="11.00" fill="#000000">&lt; 2</text>
<polygon fill="#ffffff" stroke="transparent" points="471,-298.7207 471,-317.7207 511,-317.7207 511,-298.7207 471,-298.7207"/>
<polygon fill="none" stroke="#000000" points="471,-298.7207 471,-317.7207 511,-317.7207 511,-298.7207 471,-298.7207"/>
<text text-anchor="start" x="475.6105" y="-304.8207" font-family="Helvetica,sans-Serif" font-size="11.00" fill="#000000">0 rows</text>
<polygon fill="#ffffff" stroke="transparent" points="511,-298.7207 511,-317.7207 535,-317.7207 535,-298.7207 511,-298.7207"/>
<polygon fill="none" stroke="#000000" points="511,-298.7207 511,-317.7207 535,-317.7207 535,-298.7207 511,-298.7207"/>
<text text-anchor="start" x="516.4053" y="-304.8207" font-family="Helvetica,sans-Serif" font-size="11.00" fill="#000000">3 &gt;</text>
</a>
</g>
</g>
<!-- StudentCompetencyEvaluations&#45;&gt;Students -->
<g id="edge30" class="edge">
<title>StudentCompetencyEvaluations:w&#45;&gt;Students:e</title>
<path fill="none" stroke="#000000" d="M746.2538,-491.5127C709.0201,-429.041 633.0675,-326.7207 535,-326.7207"/>
<polygon fill="#000000" stroke="#000000" points="749.5916,-497.2672 750.4913,-505.9937 751.5985,-500.7273 753.6054,-504.1874 753.6054,-504.1874 753.6054,-504.1874 751.5985,-500.7273 756.7195,-502.3812 749.5916,-497.2672 749.5916,-497.2672"/>
<ellipse fill="none" stroke="#000000" cx="747.986" cy="-494.4991" rx="3.2" ry="3.2"/>
</g>
<!-- Students&#45;&gt;AspNetUsers -->
<g id="edge37" class="edge">
<title>Students:w&#45;&gt;AspNetUsers:e</title>
<path fill="none" stroke="#000000" d="M434.3453,-326.1968C402.6403,-322.8837 394.6266,-304.4752 361,-288.7207 346.24,-281.8055 343.8862,-276.3688 328,-272.7207 256.527,-256.3077 224.1792,-232.2871 163,-272.7207 96.7349,-316.5156 75.13,-415.2279 68.1968,-467.9636"/>
<polygon fill="#000000" stroke="#000000" points="444.3975,-322.6863 444.0045,-330.6766 442.4064,-330.598 442.7994,-322.6077 444.3975,-322.6863"/>
<polyline fill="none" stroke="#000000" points="445,-326.7207 441.0048,-326.5242 "/>
<ellipse fill="none" stroke="#000000" cx="437.8087" cy="-326.367" rx="3.2" ry="3.2"/>
</g>
<!-- Students&#45;&gt;TechnicalCareers -->
<g id="edge36" class="edge">
<title>Students:w&#45;&gt;TechnicalCareers:e</title>
<path fill="none" stroke="#000000" d="M430.3295,-327.9802C379.9185,-337.1047 374.8003,-392.7207 315.5,-392.7207"/>
<polygon fill="#000000" stroke="#000000" points="437.0293,-327.4051 445.308,-330.3075 441.0147,-327.0629 445,-326.7207 445,-326.7207 445,-326.7207 441.0147,-327.0629 444.692,-323.1339 437.0293,-327.4051 437.0293,-327.4051"/>
<ellipse fill="none" stroke="#000000" cx="433.841" cy="-327.6788" rx="3.2" ry="3.2"/>
</g>
<!-- StudentEvaluationReport -->
<g id="node17" class="node">
<title>StudentEvaluationReport</title>
<g id="a_node17"><a xlink:href="../../tables/StudentEvaluationReport.html" xlink:title="StudentEvaluationReport" target="_top">
<polygon fill="#ffffff" stroke="transparent" points="680,-260.2207 680,-321.2207 863,-321.2207 863,-260.2207 680,-260.2207"/>
<polygon fill="#f5f5f5" stroke="transparent" points="680.5,-297.7207 680.5,-320.7207 863.5,-320.7207 863.5,-297.7207 680.5,-297.7207"/>
<polygon fill="none" stroke="#000000" points="680.5,-297.7207 680.5,-320.7207 863.5,-320.7207 863.5,-297.7207 680.5,-297.7207"/>
<text text-anchor="start" x="685.5" y="-306.3207" font-family="Helvetica,sans-Serif" font-weight="bold" font-size="11.00" fill="#000000">StudentEvaluationReport</text>
<text text-anchor="start" x="829.0219" y="-305.8207" font-family="Helvetica,sans-Serif" font-size="11.00" fill="#000000">[table]</text>
<polygon fill="none" stroke="#000000" points="680.5,-278.7207 680.5,-297.7207 863.5,-297.7207 863.5,-278.7207 680.5,-278.7207"/>
<text text-anchor="start" x="683.5" y="-284.8207" font-family="Helvetica,sans-Serif" font-size="11.00" fill="#000000">...</text>
<polygon fill="#ffffff" stroke="transparent" points="680.5,-259.7207 680.5,-278.7207 757.5,-278.7207 757.5,-259.7207 680.5,-259.7207"/>
<polygon fill="none" stroke="#000000" points="680.5,-259.7207 680.5,-278.7207 757.5,-278.7207 757.5,-259.7207 680.5,-259.7207"/>
<text text-anchor="start" x="683.5" y="-265.8207" font-family="Helvetica,sans-Serif" font-size="11.00" fill="#000000">&lt; 4</text>
<polygon fill="#ffffff" stroke="transparent" points="757.5,-259.7207 757.5,-278.7207 823.5,-278.7207 823.5,-259.7207 757.5,-259.7207"/>
<polygon fill="none" stroke="#000000" points="757.5,-259.7207 757.5,-278.7207 823.5,-278.7207 823.5,-259.7207 757.5,-259.7207"/>
<text text-anchor="start" x="788.1105" y="-265.8207" font-family="Helvetica,sans-Serif" font-size="11.00" fill="#000000">0 rows</text>
<polygon fill="#ffffff" stroke="transparent" points="823.5,-259.7207 823.5,-278.7207 863.5,-278.7207 863.5,-259.7207 823.5,-259.7207"/>
<polygon fill="none" stroke="#000000" points="823.5,-259.7207 823.5,-278.7207 863.5,-278.7207 863.5,-259.7207 823.5,-259.7207"/>
<text text-anchor="start" x="854.3862" y="-265.8207" font-family="Helvetica,sans-Serif" font-size="11.00" fill="#000000"> &#160;</text>
</a>
</g>
</g>
<!-- StudentEvaluationReport&#45;&gt;AspNetUsers -->
<g id="edge32" class="edge">
<title>StudentEvaluationReport:w&#45;&gt;AspNetUsers:e</title>
<path fill="none" stroke="#000000" d="M666.5405,-283.084C640.3359,-267.1321 654.4272,-218.3039 619,-200.7207 528.2236,-155.6667 244.4309,-146.3946 163,-206.7207 120.404,-238.2769 84.6821,-396.7679 70.9891,-468.0293"/>
<polygon fill="#000000" stroke="#000000" points="672.9079,-285.1989 679.3652,-291.1372 676.7039,-286.4598 680.5,-287.7207 680.5,-287.7207 680.5,-287.7207 676.7039,-286.4598 681.6348,-284.3043 672.9079,-285.1989 672.9079,-285.1989"/>
<ellipse fill="none" stroke="#000000" cx="669.871" cy="-284.1902" rx="3.2" ry="3.2"/>
</g>
<!-- StudentEvaluationReport&#45;&gt;AspNetUsers -->
<g id="edge35" class="edge">
<title>StudentEvaluationReport:w&#45;&gt;AspNetUsers:e</title>
<path fill="none" stroke="#000000" d="M665.8482,-287.1711C640.5836,-279.2627 654.1109,-231.1469 619,-213.7207 528.2236,-168.6667 244.4309,-159.3946 163,-219.7207 121.8452,-250.2092 87.1073,-399.1882 72.454,-467.9558"/>
<polygon fill="#000000" stroke="#000000" points="672.5056,-287.4208 680.365,-291.3182 676.5028,-287.5708 680.5,-287.7207 680.5,-287.7207 680.5,-287.7207 676.5028,-287.5708 680.635,-284.1233 672.5056,-287.4208 672.5056,-287.4208"/>
<ellipse fill="none" stroke="#000000" cx="669.3079" cy="-287.3008" rx="3.2" ry="3.2"/>
</g>
<!-- StudentEvaluationReport&#45;&gt;EvaluationPeriods -->
<g id="edge33" class="edge">
<title>StudentEvaluationReport:w&#45;&gt;EvaluationPeriods:e</title>
<path fill="none" stroke="#000000" d="M666.1294,-289.3012C608.3607,-303.8463 679.0718,-414.9805 619,-463.7207 592.769,-485.0037 351.2791,-502.7207 317.5,-502.7207"/>
<polygon fill="#000000" stroke="#000000" points="672.5479,-288.5953 680.8936,-291.2991 676.524,-288.158 680.5,-287.7207 680.5,-287.7207 680.5,-287.7207 676.524,-288.158 680.1064,-284.1423 672.5479,-288.5953 672.5479,-288.5953"/>
<ellipse fill="none" stroke="#000000" cx="669.3671" cy="-288.9452" rx="3.2" ry="3.2"/>
</g>
<!-- StudentEvaluationReport&#45;&gt;Students -->
<g id="edge34" class="edge">
<title>StudentEvaluationReport:w&#45;&gt;Students:e</title>
<path fill="none" stroke="#000000" d="M665.7694,-288.3976C611.4001,-293.5764 596.719,-326.7207 535,-326.7207"/>
<polygon fill="#000000" stroke="#000000" points="672.5084,-288.088 680.6653,-291.3169 676.5042,-287.9044 680.5,-287.7207 680.5,-287.7207 680.5,-287.7207 676.5042,-287.9044 680.3347,-284.1245 672.5084,-288.088 672.5084,-288.088"/>
<ellipse fill="none" stroke="#000000" cx="669.3118" cy="-288.2349" rx="3.2" ry="3.2"/>
</g>
<!-- StudentSubjects -->
<g id="node18" class="node">
<title>StudentSubjects</title>
<g id="a_node18"><a xlink:href="../../tables/StudentSubjects.html" xlink:title="StudentSubjects" target="_top">
<polygon fill="#ffffff" stroke="transparent" points="705,-159.2207 705,-220.2207 838,-220.2207 838,-159.2207 705,-159.2207"/>
<polygon fill="#f5f5f5" stroke="transparent" points="705.5,-196.7207 705.5,-219.7207 838.5,-219.7207 838.5,-196.7207 705.5,-196.7207"/>
<polygon fill="none" stroke="#000000" points="705.5,-196.7207 705.5,-219.7207 838.5,-219.7207 838.5,-196.7207 705.5,-196.7207"/>
<text text-anchor="start" x="710.5" y="-205.3207" font-family="Helvetica,sans-Serif" font-weight="bold" font-size="11.00" fill="#000000">StudentSubjects</text>
<text text-anchor="start" x="804.0219" y="-204.8207" font-family="Helvetica,sans-Serif" font-size="11.00" fill="#000000">[table]</text>
<polygon fill="none" stroke="#000000" points="705.5,-177.7207 705.5,-196.7207 838.5,-196.7207 838.5,-177.7207 705.5,-177.7207"/>
<text text-anchor="start" x="708.5" y="-183.8207" font-family="Helvetica,sans-Serif" font-size="11.00" fill="#000000">...</text>
<polygon fill="#ffffff" stroke="transparent" points="705.5,-158.7207 705.5,-177.7207 757.5,-177.7207 757.5,-158.7207 705.5,-158.7207"/>
<polygon fill="none" stroke="#000000" points="705.5,-158.7207 705.5,-177.7207 757.5,-177.7207 757.5,-158.7207 705.5,-158.7207"/>
<text text-anchor="start" x="708.5" y="-164.8207" font-family="Helvetica,sans-Serif" font-size="11.00" fill="#000000">&lt; 4</text>
<polygon fill="#ffffff" stroke="transparent" points="757.5,-158.7207 757.5,-177.7207 810.5,-177.7207 810.5,-158.7207 757.5,-158.7207"/>
<polygon fill="none" stroke="#000000" points="757.5,-158.7207 757.5,-177.7207 810.5,-177.7207 810.5,-158.7207 757.5,-158.7207"/>
<text text-anchor="start" x="775.1105" y="-164.8207" font-family="Helvetica,sans-Serif" font-size="11.00" fill="#000000">0 rows</text>
<polygon fill="#ffffff" stroke="transparent" points="810.5,-158.7207 810.5,-177.7207 838.5,-177.7207 838.5,-158.7207 810.5,-158.7207"/>
<polygon fill="none" stroke="#000000" points="810.5,-158.7207 810.5,-177.7207 838.5,-177.7207 838.5,-158.7207 810.5,-158.7207"/>
<text text-anchor="start" x="829.3862" y="-164.8207" font-family="Helvetica,sans-Serif" font-size="11.00" fill="#000000"> &#160;</text>
</a>
</g>
</g>
<!-- StudentSubjects&#45;&gt;AspNetUsers -->
<g id="edge38" class="edge">
<title>StudentSubjects:w&#45;&gt;AspNetUsers:e</title>
<path fill="none" stroke="#000000" d="M691.3299,-183.912C663.463,-176.9873 652.934,-165.4037 619,-161.7207 518.2573,-150.7868 243.8334,-102.6093 163,-163.7207 114.0867,-200.7001 81.0116,-389.311 69.5028,-468.1296"/>
<polygon fill="#000000" stroke="#000000" points="697.6527,-185.1652 704.8,-190.252 701.5763,-185.943 705.5,-186.7207 705.5,-186.7207 705.5,-186.7207 701.5763,-185.943 706.2,-183.1894 697.6527,-185.1652 697.6527,-185.1652"/>
<ellipse fill="none" stroke="#000000" cx="694.5137" cy="-184.543" rx="3.2" ry="3.2"/>
</g>
<!-- StudentSubjects&#45;&gt;AspNetUsers -->
<g id="edge41" class="edge">
<title>StudentSubjects:w&#45;&gt;AspNetUsers:e</title>
<path fill="none" stroke="#000000" d="M690.9544,-188.4544C663.3676,-189.8831 652.7812,-178.3871 619,-174.7207 518.2573,-163.7868 243.8334,-115.6093 163,-176.7207 115.4688,-212.6552 82.8934,-391.7734 70.5299,-468.1993"/>
<polygon fill="#000000" stroke="#000000" points="697.5562,-187.6676 705.9261,-190.2954 701.5281,-187.1942 705.5,-186.7207 705.5,-186.7207 705.5,-186.7207 701.5281,-187.1942 705.0739,-183.146 697.5562,-187.6676 697.5562,-187.6676"/>
<ellipse fill="none" stroke="#000000" cx="694.3787" cy="-188.0463" rx="3.2" ry="3.2"/>
</g>
<!-- StudentSubjects&#45;&gt;Students -->
<g id="edge39" class="edge">
<title>StudentSubjects:w&#45;&gt;Students:e</title>
<path fill="none" stroke="#000000" d="M691.0344,-188.3192C649.23,-198.6159 662.0833,-256.1933 619,-288.7207 586.2979,-313.4104 575.9758,-326.7207 535,-326.7207"/>
<polygon fill="#000000" stroke="#000000" points="697.5484,-187.5994 705.8954,-190.2989 701.5242,-187.1601 705.5,-186.7207 705.5,-186.7207 705.5,-186.7207 701.5242,-187.1601 705.1046,-183.1425 697.5484,-187.5994 697.5484,-187.5994"/>
<ellipse fill="none" stroke="#000000" cx="694.3678" cy="-187.9509" rx="3.2" ry="3.2"/>
</g>
<!-- Subjects -->
<g id="node19" class="node">
<title>Subjects</title>
<g id="a_node19"><a xlink:href="../../tables/Subjects.html" xlink:title="Subjects" target="_top">
<polygon fill="#ffffff" stroke="transparent" points="445.5,-217.2207 445.5,-278.2207 534.5,-278.2207 534.5,-217.2207 445.5,-217.2207"/>
<polygon fill="#f5f5f5" stroke="transparent" points="446,-254.7207 446,-277.7207 535,-277.7207 535,-254.7207 446,-254.7207"/>
<polygon fill="none" stroke="#000000" points="446,-254.7207 446,-277.7207 535,-277.7207 535,-254.7207 446,-254.7207"/>
<text text-anchor="start" x="451" y="-263.3207" font-family="Helvetica,sans-Serif" font-weight="bold" font-size="11.00" fill="#000000">Subjects</text>
<text text-anchor="start" x="500.5219" y="-262.8207" font-family="Helvetica,sans-Serif" font-size="11.00" fill="#000000">[table]</text>
<polygon fill="none" stroke="#000000" points="446,-235.7207 446,-254.7207 535,-254.7207 535,-235.7207 446,-235.7207"/>
<text text-anchor="start" x="449" y="-241.8207" font-family="Helvetica,sans-Serif" font-size="11.00" fill="#000000">...</text>
<polygon fill="#ffffff" stroke="transparent" points="446,-216.7207 446,-235.7207 471,-235.7207 471,-216.7207 446,-216.7207"/>
<polygon fill="none" stroke="#000000" points="446,-216.7207 446,-235.7207 471,-235.7207 471,-216.7207 446,-216.7207"/>
<text text-anchor="start" x="449" y="-222.8207" font-family="Helvetica,sans-Serif" font-size="11.00" fill="#000000">&lt; 4</text>
<polygon fill="#ffffff" stroke="transparent" points="471,-216.7207 471,-235.7207 511,-235.7207 511,-216.7207 471,-216.7207"/>
<polygon fill="none" stroke="#000000" points="471,-216.7207 471,-235.7207 511,-235.7207 511,-216.7207 471,-216.7207"/>
<text text-anchor="start" x="475.6105" y="-222.8207" font-family="Helvetica,sans-Serif" font-size="11.00" fill="#000000">0 rows</text>
<polygon fill="#ffffff" stroke="transparent" points="511,-216.7207 511,-235.7207 535,-235.7207 535,-216.7207 511,-216.7207"/>
<polygon fill="none" stroke="#000000" points="511,-216.7207 511,-235.7207 535,-235.7207 535,-216.7207 511,-216.7207"/>
<text text-anchor="start" x="516.4053" y="-222.8207" font-family="Helvetica,sans-Serif" font-size="11.00" fill="#000000">1 &gt;</text>
</a>
</g>
</g>
<!-- StudentSubjects&#45;&gt;Subjects -->
<g id="edge40" class="edge">
<title>StudentSubjects:w&#45;&gt;Subjects:e</title>
<path fill="none" stroke="#000000" d="M690.8535,-187.4125C623.8259,-193.9563 609.8833,-244.7207 535,-244.7207"/>
<polygon fill="#000000" stroke="#000000" points="697.5089,-187.0982 705.6699,-190.3167 701.5045,-186.9095 705.5,-186.7207 705.5,-186.7207 705.5,-186.7207 701.5045,-186.9095 705.3301,-183.1247 697.5089,-187.0982 697.5089,-187.0982"/>
<ellipse fill="none" stroke="#000000" cx="694.3125" cy="-187.2492" rx="3.2" ry="3.2"/>
</g>
<!-- Subjects&#45;&gt;AspNetUsers -->
<g id="edge42" class="edge">
<title>Subjects:w&#45;&gt;AspNetUsers:e</title>
<path fill="none" stroke="#000000" d="M431.5813,-243.7424C315.9275,-233.5622 262.2625,-172.7509 163,-241.7207 124.9276,-268.1743 87.8518,-402.9388 72.454,-467.8309"/>
<polygon fill="#000000" stroke="#000000" points="438.0184,-244.1791 445.7563,-248.3125 442.0092,-244.4499 446,-244.7207 446,-244.7207 446,-244.7207 442.0092,-244.4499 446.2437,-241.129 438.0184,-244.1791 438.0184,-244.1791"/>
<ellipse fill="none" stroke="#000000" cx="434.8257" cy="-243.9624" rx="3.2" ry="3.2"/>
</g>
<!-- Subjects&#45;&gt;AspNetUsers -->
<g id="edge45" class="edge">
<title>Subjects:w&#45;&gt;AspNetUsers:e</title>
<path fill="none" stroke="#000000" d="M431.5813,-245.2071C315.9275,-246.5622 262.2625,-185.7509 163,-254.7207 126.3882,-280.1594 90.6979,-405.7582 74.3207,-467.9153"/>
<polygon fill="#000000" stroke="#000000" points="438.0045,-244.9905 446.1214,-248.3187 442.0023,-244.8556 446,-244.7207 446,-244.7207 446,-244.7207 442.0023,-244.8556 445.8786,-241.1228 438.0045,-244.9905 438.0045,-244.9905"/>
<ellipse fill="none" stroke="#000000" cx="434.8064" cy="-245.0984" rx="3.2" ry="3.2"/>
</g>
<!-- Subjects&#45;&gt;TechnicalCareers -->
<g id="edge44" class="edge">
<title>Subjects:w&#45;&gt;TechnicalCareers:e</title>
<path fill="none" stroke="#000000" d="M431.3271,-245.338C399.8709,-248.2421 386.4472,-261.5564 361,-288.7207 326.5076,-325.5407 365.9523,-392.7207 315.5,-392.7207"/>
<polygon fill="#000000" stroke="#000000" points="438.0071,-245.057 446.1513,-248.3175 442.0035,-244.8889 446,-244.7207 446,-244.7207 446,-244.7207 442.0035,-244.8889 445.8487,-241.1239 438.0071,-245.057 438.0071,-245.057"/>
<ellipse fill="none" stroke="#000000" cx="434.8099" cy="-245.1916" rx="3.2" ry="3.2"/>
</g>
<!-- Subjects&#45;&gt;Professors -->
<g id="edge43" class="edge">
<title>Subjects:w&#45;&gt;Professors:e</title>
<path fill="none" stroke="#000000" d="M431.2737,-245.7049C372.3991,-253.9151 363.8826,-310.7207 296.5,-310.7207"/>
<polygon fill="#000000" stroke="#000000" points="438.0178,-245.2542 446.2401,-248.3127 442.0089,-244.9875 446,-244.7207 446,-244.7207 446,-244.7207 442.0089,-244.9875 445.7599,-241.1287 438.0178,-245.2542 438.0178,-245.2542"/>
<ellipse fill="none" stroke="#000000" cx="434.8249" cy="-245.4677" rx="3.2" ry="3.2"/>
</g>
</g>
</svg>
