<?xml version="1.0" encoding="UTF-8" standalone="no"?>
<!DOCTYPE svg PUBLIC "-//W3C//DTD SVG 1.1//EN"
 "http://www.w3.org/Graphics/SVG/1.1/DTD/svg11.dtd">
<!-- Generated by graphviz version 2.40.1 (20161225.0304)
 -->
<!-- Title: twoDegreesRelationshipsDiagram Pages: 1 -->
<svg width="1103pt" height="1173pt"
 viewBox="0.00 0.00 1103.00 1172.89" xmlns="http://www.w3.org/2000/svg" xmlns:xlink="http://www.w3.org/1999/xlink">
<g id="graph0" class="graph" transform="scale(1 1) rotate(0) translate(4 1168.8909)">
<title>twoDegreesRelationshipsDiagram</title>
<polygon fill="#ffffff" stroke="transparent" points="-4,4 -4,-1168.8909 1099,-1168.8909 1099,4 -4,4"/>
<text text-anchor="middle" x="72.4936" y="-7.3" font-family="Helvetica,sans-Serif" font-size="11.00" fill="#000000">Generated by SchemaSpy</text>
<!-- AspNetUserClaims -->
<g id="node1" class="node">
<title>AspNetUserClaims</title>
<g id="a_node1"><a xlink:href="../../tables/AspNetUserClaims.html" xlink:title="AspNetUserClaims" target="_top">
<polygon fill="#ffffff" stroke="transparent" points="172,-1099.8909 172,-1160.8909 319,-1160.8909 319,-1099.8909 172,-1099.8909"/>
<polygon fill="#f5f5f5" stroke="transparent" points="172.5,-1137.3909 172.5,-1160.3909 319.5,-1160.3909 319.5,-1137.3909 172.5,-1137.3909"/>
<polygon fill="none" stroke="#000000" points="172.5,-1137.3909 172.5,-1160.3909 319.5,-1160.3909 319.5,-1137.3909 172.5,-1137.3909"/>
<text text-anchor="start" x="177.5" y="-1145.9909" font-family="Helvetica,sans-Serif" font-weight="bold" font-size="11.00" fill="#000000">AspNetUserClaims</text>
<text text-anchor="start" x="285.0219" y="-1145.4909" font-family="Helvetica,sans-Serif" font-size="11.00" fill="#000000">[table]</text>
<polygon fill="none" stroke="#000000" points="172.5,-1118.3909 172.5,-1137.3909 319.5,-1137.3909 319.5,-1118.3909 172.5,-1118.3909"/>
<text text-anchor="start" x="175.5" y="-1124.4909" font-family="Helvetica,sans-Serif" font-size="11.00" fill="#000000">...</text>
<polygon fill="#ffffff" stroke="transparent" points="172.5,-1099.3909 172.5,-1118.3909 231.5,-1118.3909 231.5,-1099.3909 172.5,-1099.3909"/>
<polygon fill="none" stroke="#000000" points="172.5,-1099.3909 172.5,-1118.3909 231.5,-1118.3909 231.5,-1099.3909 172.5,-1099.3909"/>
<text text-anchor="start" x="175.5" y="-1105.4909" font-family="Helvetica,sans-Serif" font-size="11.00" fill="#000000">&lt; 1</text>
<polygon fill="#ffffff" stroke="transparent" points="231.5,-1099.3909 231.5,-1118.3909 288.5,-1118.3909 288.5,-1099.3909 231.5,-1099.3909"/>
<polygon fill="none" stroke="#000000" points="231.5,-1099.3909 231.5,-1118.3909 288.5,-1118.3909 288.5,-1099.3909 231.5,-1099.3909"/>
<text text-anchor="start" x="253.1105" y="-1105.4909" font-family="Helvetica,sans-Serif" font-size="11.00" fill="#000000">0 rows</text>
<polygon fill="#ffffff" stroke="transparent" points="288.5,-1099.3909 288.5,-1118.3909 319.5,-1118.3909 319.5,-1099.3909 288.5,-1099.3909"/>
<polygon fill="none" stroke="#000000" points="288.5,-1099.3909 288.5,-1118.3909 319.5,-1118.3909 319.5,-1099.3909 288.5,-1099.3909"/>
<text text-anchor="start" x="310.3862" y="-1105.4909" font-family="Helvetica,sans-Serif" font-size="11.00" fill="#000000"> &#160;</text>
</a>
</g>
</g>
<!-- AspNetUsers -->
<g id="node2" class="node">
<title>AspNetUsers</title>
<g id="a_node2"><a xlink:href="../../tables/AspNetUsers.html" xlink:title="AspNetUsers" target="_top">
<polygon fill="#ffffff" stroke="transparent" points="8,-540.8909 8,-601.8909 122,-601.8909 122,-540.8909 8,-540.8909"/>
<polygon fill="#f5f5f5" stroke="transparent" points="8,-578.3909 8,-601.3909 122,-601.3909 122,-578.3909 8,-578.3909"/>
<polygon fill="none" stroke="#000000" points="8,-578.3909 8,-601.3909 122,-601.3909 122,-578.3909 8,-578.3909"/>
<text text-anchor="start" x="13" y="-586.9909" font-family="Helvetica,sans-Serif" font-weight="bold" font-size="11.00" fill="#000000">AspNetUsers</text>
<text text-anchor="start" x="87.5219" y="-586.4909" font-family="Helvetica,sans-Serif" font-size="11.00" fill="#000000">[table]</text>
<polygon fill="none" stroke="#000000" points="8,-559.3909 8,-578.3909 122,-578.3909 122,-559.3909 8,-559.3909"/>
<text text-anchor="start" x="11" y="-565.4909" font-family="Helvetica,sans-Serif" font-size="11.00" fill="#000000">...</text>
<polygon fill="#ffffff" stroke="transparent" points="8,-540.3909 8,-559.3909 38,-559.3909 38,-540.3909 8,-540.3909"/>
<polygon fill="none" stroke="#000000" points="8,-540.3909 8,-559.3909 38,-559.3909 38,-540.3909 8,-540.3909"/>
<text text-anchor="start" x="11" y="-546.4909" font-family="Helvetica,sans-Serif" font-size="11.00" fill="#000000"> &#160;</text>
<polygon fill="#ffffff" stroke="transparent" points="38,-540.3909 38,-559.3909 85,-559.3909 85,-540.3909 38,-540.3909"/>
<polygon fill="none" stroke="#000000" points="38,-540.3909 38,-559.3909 85,-559.3909 85,-540.3909 38,-540.3909"/>
<text text-anchor="start" x="49.6105" y="-546.4909" font-family="Helvetica,sans-Serif" font-size="11.00" fill="#000000">0 rows</text>
<polygon fill="#ffffff" stroke="transparent" points="85,-540.3909 85,-559.3909 122,-559.3909 122,-540.3909 85,-540.3909"/>
<polygon fill="none" stroke="#000000" points="85,-540.3909 85,-559.3909 122,-559.3909 122,-540.3909 85,-540.3909"/>
<text text-anchor="start" x="97.2904" y="-546.4909" font-family="Helvetica,sans-Serif" font-size="11.00" fill="#000000">29 &gt;</text>
</a>
</g>
</g>
<!-- AspNetUserClaims&#45;&gt;AspNetUsers -->
<g id="edge1" class="edge">
<title>AspNetUserClaims:w&#45;&gt;AspNetUsers:e</title>
<path fill="none" stroke="#000000" d="M159.9486,-1120.0533C112.9197,-1065.1901 78.1275,-718.1459 68.011,-606.1712"/>
<polygon fill="#000000" stroke="#000000" points="165.5936,-1123.3533 170.6831,-1130.4988 169.0468,-1125.3721 172.5,-1127.3909 172.5,-1127.3909 172.5,-1127.3909 169.0468,-1125.3721 174.3169,-1124.283 165.5936,-1123.3533 165.5936,-1123.3533"/>
<ellipse fill="none" stroke="#000000" cx="162.831" cy="-1121.7383" rx="3.2" ry="3.2"/>
</g>
<!-- AspNetUserLogins -->
<g id="node3" class="node">
<title>AspNetUserLogins</title>
<g id="a_node3"><a xlink:href="../../tables/AspNetUserLogins.html" xlink:title="AspNetUserLogins" target="_top">
<polygon fill="#ffffff" stroke="transparent" points="172,-1017.8909 172,-1078.8909 319,-1078.8909 319,-1017.8909 172,-1017.8909"/>
<polygon fill="#f5f5f5" stroke="transparent" points="172.5,-1055.3909 172.5,-1078.3909 319.5,-1078.3909 319.5,-1055.3909 172.5,-1055.3909"/>
<polygon fill="none" stroke="#000000" points="172.5,-1055.3909 172.5,-1078.3909 319.5,-1078.3909 319.5,-1055.3909 172.5,-1055.3909"/>
<text text-anchor="start" x="177.5" y="-1063.9909" font-family="Helvetica,sans-Serif" font-weight="bold" font-size="11.00" fill="#000000">AspNetUserLogins</text>
<text text-anchor="start" x="285.0219" y="-1063.4909" font-family="Helvetica,sans-Serif" font-size="11.00" fill="#000000">[table]</text>
<polygon fill="none" stroke="#000000" points="172.5,-1036.3909 172.5,-1055.3909 319.5,-1055.3909 319.5,-1036.3909 172.5,-1036.3909"/>
<text text-anchor="start" x="175.5" y="-1042.4909" font-family="Helvetica,sans-Serif" font-size="11.00" fill="#000000">...</text>
<polygon fill="#ffffff" stroke="transparent" points="172.5,-1017.3909 172.5,-1036.3909 231.5,-1036.3909 231.5,-1017.3909 172.5,-1017.3909"/>
<polygon fill="none" stroke="#000000" points="172.5,-1017.3909 172.5,-1036.3909 231.5,-1036.3909 231.5,-1017.3909 172.5,-1017.3909"/>
<text text-anchor="start" x="175.5" y="-1023.4909" font-family="Helvetica,sans-Serif" font-size="11.00" fill="#000000">&lt; 1</text>
<polygon fill="#ffffff" stroke="transparent" points="231.5,-1017.3909 231.5,-1036.3909 288.5,-1036.3909 288.5,-1017.3909 231.5,-1017.3909"/>
<polygon fill="none" stroke="#000000" points="231.5,-1017.3909 231.5,-1036.3909 288.5,-1036.3909 288.5,-1017.3909 231.5,-1017.3909"/>
<text text-anchor="start" x="253.1105" y="-1023.4909" font-family="Helvetica,sans-Serif" font-size="11.00" fill="#000000">0 rows</text>
<polygon fill="#ffffff" stroke="transparent" points="288.5,-1017.3909 288.5,-1036.3909 319.5,-1036.3909 319.5,-1017.3909 288.5,-1017.3909"/>
<polygon fill="none" stroke="#000000" points="288.5,-1017.3909 288.5,-1036.3909 319.5,-1036.3909 319.5,-1017.3909 288.5,-1017.3909"/>
<text text-anchor="start" x="310.3862" y="-1023.4909" font-family="Helvetica,sans-Serif" font-size="11.00" fill="#000000"> &#160;</text>
</a>
</g>
</g>
<!-- AspNetUserLogins&#45;&gt;AspNetUsers -->
<g id="edge2" class="edge">
<title>AspNetUserLogins:w&#45;&gt;AspNetUsers:e</title>
<path fill="none" stroke="#000000" d="M160.1295,-1037.4819C119.5195,-986.7192 81.5283,-705.6612 69.1808,-606.2452"/>
<polygon fill="#000000" stroke="#000000" points="165.7598,-1041.0816 170.5608,-1048.424 169.1299,-1043.2362 172.5,-1045.3909 172.5,-1045.3909 172.5,-1045.3909 169.1299,-1043.2362 174.4392,-1042.3578 165.7598,-1041.0816 165.7598,-1041.0816"/>
<ellipse fill="none" stroke="#000000" cx="163.0637" cy="-1039.3578" rx="3.2" ry="3.2"/>
</g>
<!-- AspNetUserRoles -->
<g id="node4" class="node">
<title>AspNetUserRoles</title>
<g id="a_node4"><a xlink:href="../../tables/AspNetUserRoles.html" xlink:title="AspNetUserRoles" target="_top">
<polygon fill="#ffffff" stroke="transparent" points="175.5,-935.8909 175.5,-996.8909 315.5,-996.8909 315.5,-935.8909 175.5,-935.8909"/>
<polygon fill="#f5f5f5" stroke="transparent" points="175.5,-973.3909 175.5,-996.3909 315.5,-996.3909 315.5,-973.3909 175.5,-973.3909"/>
<polygon fill="none" stroke="#000000" points="175.5,-973.3909 175.5,-996.3909 315.5,-996.3909 315.5,-973.3909 175.5,-973.3909"/>
<text text-anchor="start" x="180.5" y="-981.9909" font-family="Helvetica,sans-Serif" font-weight="bold" font-size="11.00" fill="#000000">AspNetUserRoles</text>
<text text-anchor="start" x="281.0219" y="-981.4909" font-family="Helvetica,sans-Serif" font-size="11.00" fill="#000000">[table]</text>
<polygon fill="none" stroke="#000000" points="175.5,-954.3909 175.5,-973.3909 315.5,-973.3909 315.5,-954.3909 175.5,-954.3909"/>
<text text-anchor="start" x="178.5" y="-960.4909" font-family="Helvetica,sans-Serif" font-size="11.00" fill="#000000">...</text>
<polygon fill="#ffffff" stroke="transparent" points="175.5,-935.3909 175.5,-954.3909 230.5,-954.3909 230.5,-935.3909 175.5,-935.3909"/>
<polygon fill="none" stroke="#000000" points="175.5,-935.3909 175.5,-954.3909 230.5,-954.3909 230.5,-935.3909 175.5,-935.3909"/>
<text text-anchor="start" x="178.5" y="-941.4909" font-family="Helvetica,sans-Serif" font-size="11.00" fill="#000000">&lt; 2</text>
<polygon fill="#ffffff" stroke="transparent" points="230.5,-935.3909 230.5,-954.3909 285.5,-954.3909 285.5,-935.3909 230.5,-935.3909"/>
<polygon fill="none" stroke="#000000" points="230.5,-935.3909 230.5,-954.3909 285.5,-954.3909 285.5,-935.3909 230.5,-935.3909"/>
<text text-anchor="start" x="250.1105" y="-941.4909" font-family="Helvetica,sans-Serif" font-size="11.00" fill="#000000">0 rows</text>
<polygon fill="#ffffff" stroke="transparent" points="285.5,-935.3909 285.5,-954.3909 315.5,-954.3909 315.5,-935.3909 285.5,-935.3909"/>
<polygon fill="none" stroke="#000000" points="285.5,-935.3909 285.5,-954.3909 315.5,-954.3909 315.5,-935.3909 285.5,-935.3909"/>
<text text-anchor="start" x="306.3862" y="-941.4909" font-family="Helvetica,sans-Serif" font-size="11.00" fill="#000000"> &#160;</text>
</a>
</g>
</g>
<!-- AspNetUserRoles&#45;&gt;AspNetUsers -->
<g id="edge3" class="edge">
<title>AspNetUserRoles:w&#45;&gt;AspNetUsers:e</title>
<path fill="none" stroke="#000000" d="M161.3935,-960.0593C98.1248,-929.4193 74.228,-695.7445 67.3344,-606.1783"/>
<polygon fill="#000000" stroke="#000000" points="167.7142,-961.552 174.6725,-966.8945 171.6071,-962.4715 175.5,-963.3909 175.5,-963.3909 175.5,-963.3909 171.6071,-962.4715 176.3275,-959.8873 167.7142,-961.552 167.7142,-961.552"/>
<ellipse fill="none" stroke="#000000" cx="164.5999" cy="-960.8165" rx="3.2" ry="3.2"/>
</g>
<!-- AspNetUserTokens -->
<g id="node5" class="node">
<title>AspNetUserTokens</title>
<g id="a_node5"><a xlink:href="../../tables/AspNetUserTokens.html" xlink:title="AspNetUserTokens" target="_top">
<polygon fill="#ffffff" stroke="transparent" points="171,-853.8909 171,-914.8909 320,-914.8909 320,-853.8909 171,-853.8909"/>
<polygon fill="#f5f5f5" stroke="transparent" points="171.5,-891.3909 171.5,-914.3909 320.5,-914.3909 320.5,-891.3909 171.5,-891.3909"/>
<polygon fill="none" stroke="#000000" points="171.5,-891.3909 171.5,-914.3909 320.5,-914.3909 320.5,-891.3909 171.5,-891.3909"/>
<text text-anchor="start" x="176.5" y="-899.9909" font-family="Helvetica,sans-Serif" font-weight="bold" font-size="11.00" fill="#000000">AspNetUserTokens</text>
<text text-anchor="start" x="286.0219" y="-899.4909" font-family="Helvetica,sans-Serif" font-size="11.00" fill="#000000">[table]</text>
<polygon fill="none" stroke="#000000" points="171.5,-872.3909 171.5,-891.3909 320.5,-891.3909 320.5,-872.3909 171.5,-872.3909"/>
<text text-anchor="start" x="174.5" y="-878.4909" font-family="Helvetica,sans-Serif" font-size="11.00" fill="#000000">...</text>
<polygon fill="#ffffff" stroke="transparent" points="171.5,-853.3909 171.5,-872.3909 231.5,-872.3909 231.5,-853.3909 171.5,-853.3909"/>
<polygon fill="none" stroke="#000000" points="171.5,-853.3909 171.5,-872.3909 231.5,-872.3909 231.5,-853.3909 171.5,-853.3909"/>
<text text-anchor="start" x="174.5" y="-859.4909" font-family="Helvetica,sans-Serif" font-size="11.00" fill="#000000">&lt; 1</text>
<polygon fill="#ffffff" stroke="transparent" points="231.5,-853.3909 231.5,-872.3909 288.5,-872.3909 288.5,-853.3909 231.5,-853.3909"/>
<polygon fill="none" stroke="#000000" points="231.5,-853.3909 231.5,-872.3909 288.5,-872.3909 288.5,-853.3909 231.5,-853.3909"/>
<text text-anchor="start" x="253.1105" y="-859.4909" font-family="Helvetica,sans-Serif" font-size="11.00" fill="#000000">0 rows</text>
<polygon fill="#ffffff" stroke="transparent" points="288.5,-853.3909 288.5,-872.3909 320.5,-872.3909 320.5,-853.3909 288.5,-853.3909"/>
<polygon fill="none" stroke="#000000" points="288.5,-853.3909 288.5,-872.3909 320.5,-872.3909 320.5,-853.3909 288.5,-853.3909"/>
<text text-anchor="start" x="311.3862" y="-859.4909" font-family="Helvetica,sans-Serif" font-size="11.00" fill="#000000"> &#160;</text>
</a>
</g>
</g>
<!-- AspNetUserTokens&#45;&gt;AspNetUsers -->
<g id="edge4" class="edge">
<title>AspNetUserTokens:w&#45;&gt;AspNetUsers:e</title>
<path fill="none" stroke="#000000" d="M157.4834,-877.4588C108.4027,-849.5306 79.7507,-680.1491 69.4187,-606.0495"/>
<polygon fill="#000000" stroke="#000000" points="163.7973,-879.23 170.5276,-884.8571 167.6487,-880.3104 171.5,-881.3909 171.5,-881.3909 171.5,-881.3909 167.6487,-880.3104 172.4724,-877.9247 163.7973,-879.23 163.7973,-879.23"/>
<ellipse fill="none" stroke="#000000" cx="160.7163" cy="-878.3657" rx="3.2" ry="3.2"/>
</g>
<!-- Competencies -->
<g id="node6" class="node">
<title>Competencies</title>
<g id="a_node6"><a xlink:href="../../tables/Competencies.html" xlink:title="Competencies" target="_top">
<polygon fill="#ffffff" stroke="transparent" points="185,-653.8909 185,-714.8909 306,-714.8909 306,-653.8909 185,-653.8909"/>
<polygon fill="#f5f5f5" stroke="transparent" points="185.5,-691.3909 185.5,-714.3909 306.5,-714.3909 306.5,-691.3909 185.5,-691.3909"/>
<polygon fill="none" stroke="#000000" points="185.5,-691.3909 185.5,-714.3909 306.5,-714.3909 306.5,-691.3909 185.5,-691.3909"/>
<text text-anchor="start" x="190.5" y="-699.9909" font-family="Helvetica,sans-Serif" font-weight="bold" font-size="11.00" fill="#000000">Competencies</text>
<text text-anchor="start" x="272.0219" y="-699.4909" font-family="Helvetica,sans-Serif" font-size="11.00" fill="#000000">[table]</text>
<polygon fill="none" stroke="#000000" points="185.5,-672.3909 185.5,-691.3909 306.5,-691.3909 306.5,-672.3909 185.5,-672.3909"/>
<text text-anchor="start" x="188.5" y="-678.4909" font-family="Helvetica,sans-Serif" font-size="11.00" fill="#000000">...</text>
<polygon fill="#ffffff" stroke="transparent" points="185.5,-653.3909 185.5,-672.3909 226.5,-672.3909 226.5,-653.3909 185.5,-653.3909"/>
<polygon fill="none" stroke="#000000" points="185.5,-653.3909 185.5,-672.3909 226.5,-672.3909 226.5,-653.3909 185.5,-653.3909"/>
<text text-anchor="start" x="188.5" y="-659.4909" font-family="Helvetica,sans-Serif" font-size="11.00" fill="#000000">&lt; 2</text>
<polygon fill="#ffffff" stroke="transparent" points="226.5,-653.3909 226.5,-672.3909 274.5,-672.3909 274.5,-653.3909 226.5,-653.3909"/>
<polygon fill="none" stroke="#000000" points="226.5,-653.3909 226.5,-672.3909 274.5,-672.3909 274.5,-653.3909 226.5,-653.3909"/>
<text text-anchor="start" x="239.1105" y="-659.4909" font-family="Helvetica,sans-Serif" font-size="11.00" fill="#000000">0 rows</text>
<polygon fill="#ffffff" stroke="transparent" points="274.5,-653.3909 274.5,-672.3909 306.5,-672.3909 306.5,-653.3909 274.5,-653.3909"/>
<polygon fill="none" stroke="#000000" points="274.5,-653.3909 274.5,-672.3909 306.5,-672.3909 306.5,-653.3909 274.5,-653.3909"/>
<text text-anchor="start" x="287.9053" y="-659.4909" font-family="Helvetica,sans-Serif" font-size="11.00" fill="#000000">4 &gt;</text>
</a>
</g>
</g>
<!-- Competencies&#45;&gt;AspNetUsers -->
<g id="edge5" class="edge">
<title>Competencies:w&#45;&gt;AspNetUsers:e</title>
<path fill="none" stroke="#000000" d="M171.1162,-678.8104C134.5042,-668.7021 105.227,-633.5686 86.7761,-606.1541"/>
<polygon fill="#000000" stroke="#000000" points="177.6257,-679.9782 184.8643,-684.9343 181.5629,-680.6845 185.5,-681.3909 185.5,-681.3909 185.5,-681.3909 181.5629,-680.6845 186.1357,-677.8474 177.6257,-679.9782 177.6257,-679.9782"/>
<ellipse fill="none" stroke="#000000" cx="174.476" cy="-679.4131" rx="3.2" ry="3.2"/>
</g>
<!-- Competencies&#45;&gt;AspNetUsers -->
<g id="edge6" class="edge">
<title>Competencies:w&#45;&gt;AspNetUsers:e</title>
<path fill="none" stroke="#000000" d="M171.0688,-681.2666C130.4316,-676.6302 98.8358,-636.6707 81.0578,-606.1862"/>
<polygon fill="#000000" stroke="#000000" points="177.5003,-681.3219 185.469,-684.9907 181.5001,-681.3564 185.5,-681.3909 185.5,-681.3909 185.5,-681.3909 181.5001,-681.3564 185.531,-677.791 177.5003,-681.3219 177.5003,-681.3219"/>
<ellipse fill="none" stroke="#000000" cx="174.3004" cy="-681.2944" rx="3.2" ry="3.2"/>
</g>
<!-- CompetencyLevelDescriptions -->
<g id="node7" class="node">
<title>CompetencyLevelDescriptions</title>
<g id="a_node7"><a xlink:href="../../tables/CompetencyLevelDescriptions.html" xlink:title="CompetencyLevelDescriptions" target="_top">
<polygon fill="#ffffff" stroke="transparent" points="383,-880.8909 383,-941.8909 597,-941.8909 597,-880.8909 383,-880.8909"/>
<polygon fill="#f5f5f5" stroke="transparent" points="383,-918.3909 383,-941.3909 597,-941.3909 597,-918.3909 383,-918.3909"/>
<polygon fill="none" stroke="#000000" points="383,-918.3909 383,-941.3909 597,-941.3909 597,-918.3909 383,-918.3909"/>
<text text-anchor="start" x="388" y="-926.9909" font-family="Helvetica,sans-Serif" font-weight="bold" font-size="11.00" fill="#000000">CompetencyLevelDescriptions</text>
<text text-anchor="start" x="562.5219" y="-926.4909" font-family="Helvetica,sans-Serif" font-size="11.00" fill="#000000">[table]</text>
<polygon fill="none" stroke="#000000" points="383,-899.3909 383,-918.3909 597,-918.3909 597,-899.3909 383,-899.3909"/>
<text text-anchor="start" x="386" y="-905.4909" font-family="Helvetica,sans-Serif" font-size="11.00" fill="#000000">...</text>
<polygon fill="#ffffff" stroke="transparent" points="383,-880.3909 383,-899.3909 475,-899.3909 475,-880.3909 383,-880.3909"/>
<polygon fill="none" stroke="#000000" points="383,-880.3909 383,-899.3909 475,-899.3909 475,-880.3909 383,-880.3909"/>
<text text-anchor="start" x="386" y="-886.4909" font-family="Helvetica,sans-Serif" font-size="11.00" fill="#000000">&lt; 3</text>
<polygon fill="#ffffff" stroke="transparent" points="475,-880.3909 475,-899.3909 549,-899.3909 549,-880.3909 475,-880.3909"/>
<polygon fill="none" stroke="#000000" points="475,-880.3909 475,-899.3909 549,-899.3909 549,-880.3909 475,-880.3909"/>
<text text-anchor="start" x="513.6105" y="-886.4909" font-family="Helvetica,sans-Serif" font-size="11.00" fill="#000000">0 rows</text>
<polygon fill="#ffffff" stroke="transparent" points="549,-880.3909 549,-899.3909 597,-899.3909 597,-880.3909 549,-880.3909"/>
<polygon fill="none" stroke="#000000" points="549,-880.3909 549,-899.3909 597,-899.3909 597,-880.3909 549,-880.3909"/>
<text text-anchor="start" x="587.8862" y="-886.4909" font-family="Helvetica,sans-Serif" font-size="11.00" fill="#000000"> &#160;</text>
</a>
</g>
</g>
<!-- CompetencyLevelDescriptions&#45;&gt;AspNetUsers -->
<g id="edge8" class="edge">
<title>CompetencyLevelDescriptions:w&#45;&gt;AspNetUsers:e</title>
<path fill="none" stroke="#000000" d="M369.3002,-903.3694C348.5094,-889.6679 355.1761,-854.7102 328,-837.3909 263.8991,-796.5393 220.4083,-842.2112 163,-792.3909 106.1033,-743.0146 81.1598,-654.6536 71.0987,-605.8983"/>
<polygon fill="#000000" stroke="#000000" points="375.4887,-905.6377 381.7611,-911.771 379.2443,-907.0143 383,-908.3909 383,-908.3909 383,-908.3909 379.2443,-907.0143 384.2389,-905.0108 375.4887,-905.6377 375.4887,-905.6377"/>
<ellipse fill="none" stroke="#000000" cx="372.4841" cy="-904.5364" rx="3.2" ry="3.2"/>
</g>
<!-- CompetencyLevelDescriptions&#45;&gt;AspNetUsers -->
<g id="edge9" class="edge">
<title>CompetencyLevelDescriptions:w&#45;&gt;AspNetUsers:e</title>
<path fill="none" stroke="#000000" d="M368.4573,-908.0909C348.6865,-901.7091 354.8021,-867.4719 328,-850.3909 263.8991,-809.5393 220.4083,-855.2112 163,-805.3909 102.8613,-753.2011 78.421,-657.4574 69.5206,-606.0184"/>
<polygon fill="#000000" stroke="#000000" points="375.0017,-908.2259 382.9257,-911.9901 379.0009,-908.3084 383,-908.3909 383,-908.3909 383,-908.3909 379.0009,-908.3084 383.0743,-904.7916 375.0017,-908.2259 375.0017,-908.2259"/>
<ellipse fill="none" stroke="#000000" cx="371.8024" cy="-908.1598" rx="3.2" ry="3.2"/>
</g>
<!-- CompetencyLevelDescriptions&#45;&gt;Competencies -->
<g id="edge7" class="edge">
<title>CompetencyLevelDescriptions:w&#45;&gt;Competencies:e</title>
<path fill="none" stroke="#000000" d="M368.5963,-906.6942C289.7657,-885.9216 407.5576,-681.3909 306.5,-681.3909"/>
<polygon fill="#000000" stroke="#000000" points="375.0549,-907.4549 382.5788,-911.9662 379.0275,-907.9229 383,-908.3909 383,-908.3909 383,-908.3909 379.0275,-907.9229 383.4212,-904.8156 375.0549,-907.4549 375.0549,-907.4549"/>
<ellipse fill="none" stroke="#000000" cx="371.8769" cy="-907.0806" rx="3.2" ry="3.2"/>
</g>
<!-- CompetencyTechnicalCareer -->
<g id="node8" class="node">
<title>CompetencyTechnicalCareer</title>
<g id="a_node8"><a xlink:href="../../tables/CompetencyTechnicalCareer.html" xlink:title="CompetencyTechnicalCareer" target="_top">
<polygon fill="#ffffff" stroke="transparent" points="388,-649.8909 388,-710.8909 592,-710.8909 592,-649.8909 388,-649.8909"/>
<polygon fill="#f5f5f5" stroke="transparent" points="388,-687.3909 388,-710.3909 592,-710.3909 592,-687.3909 388,-687.3909"/>
<polygon fill="none" stroke="#000000" points="388,-687.3909 388,-710.3909 592,-710.3909 592,-687.3909 388,-687.3909"/>
<text text-anchor="start" x="393" y="-695.9909" font-family="Helvetica,sans-Serif" font-weight="bold" font-size="11.00" fill="#000000">CompetencyTechnicalCareer</text>
<text text-anchor="start" x="557.5219" y="-695.4909" font-family="Helvetica,sans-Serif" font-size="11.00" fill="#000000">[table]</text>
<polygon fill="none" stroke="#000000" points="388,-668.3909 388,-687.3909 592,-687.3909 592,-668.3909 388,-668.3909"/>
<text text-anchor="start" x="391" y="-674.4909" font-family="Helvetica,sans-Serif" font-size="11.00" fill="#000000">...</text>
<polygon fill="#ffffff" stroke="transparent" points="388,-649.3909 388,-668.3909 475,-668.3909 475,-649.3909 388,-649.3909"/>
<polygon fill="none" stroke="#000000" points="388,-649.3909 388,-668.3909 475,-668.3909 475,-649.3909 388,-649.3909"/>
<text text-anchor="start" x="391" y="-655.4909" font-family="Helvetica,sans-Serif" font-size="11.00" fill="#000000">&lt; 2</text>
<polygon fill="#ffffff" stroke="transparent" points="475,-649.3909 475,-668.3909 546,-668.3909 546,-649.3909 475,-649.3909"/>
<polygon fill="none" stroke="#000000" points="475,-649.3909 475,-668.3909 546,-668.3909 546,-649.3909 475,-649.3909"/>
<text text-anchor="start" x="510.6105" y="-655.4909" font-family="Helvetica,sans-Serif" font-size="11.00" fill="#000000">0 rows</text>
<polygon fill="#ffffff" stroke="transparent" points="546,-649.3909 546,-668.3909 592,-668.3909 592,-649.3909 546,-649.3909"/>
<polygon fill="none" stroke="#000000" points="546,-649.3909 546,-668.3909 592,-668.3909 592,-649.3909 546,-649.3909"/>
<text text-anchor="start" x="582.8862" y="-655.4909" font-family="Helvetica,sans-Serif" font-size="11.00" fill="#000000"> &#160;</text>
</a>
</g>
</g>
<!-- CompetencyTechnicalCareer&#45;&gt;Competencies -->
<g id="edge10" class="edge">
<title>CompetencyTechnicalCareer:w&#45;&gt;Competencies:e</title>
<path fill="none" stroke="#000000" d="M373.4762,-677.6291C348.4702,-678.4902 337.3826,-681.3909 306.5,-681.3909"/>
<polygon fill="#000000" stroke="#000000" points="380.0011,-677.5221 388.0591,-680.9904 384.0005,-677.4565 388,-677.3909 388,-677.3909 388,-677.3909 384.0005,-677.4565 387.9409,-673.7914 380.0011,-677.5221 380.0011,-677.5221"/>
<ellipse fill="none" stroke="#000000" cx="376.8015" cy="-677.5746" rx="3.2" ry="3.2"/>
</g>
<!-- TechnicalCareers -->
<g id="node9" class="node">
<title>TechnicalCareers</title>
<g id="a_node9"><a xlink:href="../../tables/TechnicalCareers.html" xlink:title="TechnicalCareers" target="_top">
<polygon fill="#ffffff" stroke="transparent" points="176,-461.8909 176,-522.8909 315,-522.8909 315,-461.8909 176,-461.8909"/>
<polygon fill="#f5f5f5" stroke="transparent" points="176.5,-499.3909 176.5,-522.3909 315.5,-522.3909 315.5,-499.3909 176.5,-499.3909"/>
<polygon fill="none" stroke="#000000" points="176.5,-499.3909 176.5,-522.3909 315.5,-522.3909 315.5,-499.3909 176.5,-499.3909"/>
<text text-anchor="start" x="181.5" y="-507.9909" font-family="Helvetica,sans-Serif" font-weight="bold" font-size="11.00" fill="#000000">TechnicalCareers</text>
<text text-anchor="start" x="281.0219" y="-507.4909" font-family="Helvetica,sans-Serif" font-size="11.00" fill="#000000">[table]</text>
<polygon fill="none" stroke="#000000" points="176.5,-480.3909 176.5,-499.3909 315.5,-499.3909 315.5,-480.3909 176.5,-480.3909"/>
<text text-anchor="start" x="179.5" y="-486.4909" font-family="Helvetica,sans-Serif" font-size="11.00" fill="#000000">...</text>
<polygon fill="#ffffff" stroke="transparent" points="176.5,-461.3909 176.5,-480.3909 226.5,-480.3909 226.5,-461.3909 176.5,-461.3909"/>
<polygon fill="none" stroke="#000000" points="176.5,-461.3909 176.5,-480.3909 226.5,-480.3909 226.5,-461.3909 176.5,-461.3909"/>
<text text-anchor="start" x="179.5" y="-467.4909" font-family="Helvetica,sans-Serif" font-size="11.00" fill="#000000">&lt; 2</text>
<polygon fill="#ffffff" stroke="transparent" points="226.5,-461.3909 226.5,-480.3909 279.5,-480.3909 279.5,-461.3909 226.5,-461.3909"/>
<polygon fill="none" stroke="#000000" points="226.5,-461.3909 226.5,-480.3909 279.5,-480.3909 279.5,-461.3909 226.5,-461.3909"/>
<text text-anchor="start" x="244.1105" y="-467.4909" font-family="Helvetica,sans-Serif" font-size="11.00" fill="#000000">0 rows</text>
<polygon fill="#ffffff" stroke="transparent" points="279.5,-461.3909 279.5,-480.3909 315.5,-480.3909 315.5,-461.3909 279.5,-461.3909"/>
<polygon fill="none" stroke="#000000" points="279.5,-461.3909 279.5,-480.3909 315.5,-480.3909 315.5,-461.3909 279.5,-461.3909"/>
<text text-anchor="start" x="296.9053" y="-467.4909" font-family="Helvetica,sans-Serif" font-size="11.00" fill="#000000">6 &gt;</text>
</a>
</g>
</g>
<!-- CompetencyTechnicalCareer&#45;&gt;TechnicalCareers -->
<g id="edge11" class="edge">
<title>CompetencyTechnicalCareer:w&#45;&gt;TechnicalCareers:e</title>
<path fill="none" stroke="#000000" d="M374.4091,-672.317C367.9196,-665.3296 367.3207,-652.1553 361,-639.3909 339.1046,-595.1737 360.0009,-570.9476 328,-533.3909 326.1328,-531.1995 324.1204,-529.1136 321.9923,-527.1292"/>
<polygon fill="#000000" stroke="#000000" points="380.5053,-674.5928 386.7409,-680.7635 384.2526,-675.9918 388,-677.3909 388,-677.3909 388,-677.3909 384.2526,-675.9918 389.2591,-674.0182 380.5053,-674.5928 380.5053,-674.5928"/>
<ellipse fill="none" stroke="#000000" cx="377.5074" cy="-673.4736" rx="3.2" ry="3.2"/>
</g>
<!-- TechnicalCareers&#45;&gt;AspNetUsers -->
<g id="edge50" class="edge">
<title>TechnicalCareers:w&#45;&gt;AspNetUsers:e</title>
<path fill="none" stroke="#000000" d="M154.5211,-527.71C146.2703,-531.3241 138.0277,-534.9848 130.069,-538.5714"/>
<polygon fill="#000000" stroke="#000000" points="160.5675,-525.0815 169.3395,-525.1935 164.2359,-523.4868 167.9042,-521.892 167.9042,-521.892 167.9042,-521.892 164.2359,-523.4868 166.4689,-518.5905 160.5675,-525.0815 160.5675,-525.0815"/>
<ellipse fill="none" stroke="#000000" cx="157.6328" cy="-526.3573" rx="3.2" ry="3.2"/>
</g>
<!-- TechnicalCareers&#45;&gt;AspNetUsers -->
<g id="edge51" class="edge">
<title>TechnicalCareers:w&#45;&gt;AspNetUsers:e</title>
<path fill="none" stroke="#000000" d="M164.8198,-532.9261C153.2234,-538.0655 141.4139,-543.1815 130.1686,-547.9338"/>
<polygon fill="#000000" stroke="#000000" points="170.9855,-530.1686 179.7582,-530.1888 174.637,-528.5355 178.2885,-526.9025 178.2885,-526.9025 178.2885,-526.9025 174.637,-528.5355 176.8187,-523.6162 170.9855,-530.1686 170.9855,-530.1686"/>
<ellipse fill="none" stroke="#000000" cx="168.0644" cy="-531.4751" rx="3.2" ry="3.2"/>
</g>
<!-- Coordinators -->
<g id="node10" class="node">
<title>Coordinators</title>
<g id="a_node10"><a xlink:href="../../tables/Coordinators.html" xlink:title="Coordinators" target="_top">
<polygon fill="#ffffff" stroke="transparent" points="433,-567.8909 433,-628.8909 547,-628.8909 547,-567.8909 433,-567.8909"/>
<polygon fill="#f5f5f5" stroke="transparent" points="433,-605.3909 433,-628.3909 547,-628.3909 547,-605.3909 433,-605.3909"/>
<polygon fill="none" stroke="#000000" points="433,-605.3909 433,-628.3909 547,-628.3909 547,-605.3909 433,-605.3909"/>
<text text-anchor="start" x="438" y="-613.9909" font-family="Helvetica,sans-Serif" font-weight="bold" font-size="11.00" fill="#000000">Coordinators</text>
<text text-anchor="start" x="512.5219" y="-613.4909" font-family="Helvetica,sans-Serif" font-size="11.00" fill="#000000">[table]</text>
<polygon fill="none" stroke="#000000" points="433,-586.3909 433,-605.3909 547,-605.3909 547,-586.3909 433,-586.3909"/>
<text text-anchor="start" x="436" y="-592.4909" font-family="Helvetica,sans-Serif" font-size="11.00" fill="#000000">...</text>
<polygon fill="#ffffff" stroke="transparent" points="433,-567.3909 433,-586.3909 475,-586.3909 475,-567.3909 433,-567.3909"/>
<polygon fill="none" stroke="#000000" points="433,-567.3909 433,-586.3909 475,-586.3909 475,-567.3909 433,-567.3909"/>
<text text-anchor="start" x="436" y="-573.4909" font-family="Helvetica,sans-Serif" font-size="11.00" fill="#000000">&lt; 2</text>
<polygon fill="#ffffff" stroke="transparent" points="475,-567.3909 475,-586.3909 524,-586.3909 524,-567.3909 475,-567.3909"/>
<polygon fill="none" stroke="#000000" points="475,-567.3909 475,-586.3909 524,-586.3909 524,-567.3909 475,-567.3909"/>
<text text-anchor="start" x="488.6105" y="-573.4909" font-family="Helvetica,sans-Serif" font-size="11.00" fill="#000000">0 rows</text>
<polygon fill="#ffffff" stroke="transparent" points="524,-567.3909 524,-586.3909 547,-586.3909 547,-567.3909 524,-567.3909"/>
<polygon fill="none" stroke="#000000" points="524,-567.3909 524,-586.3909 547,-586.3909 547,-567.3909 524,-567.3909"/>
<text text-anchor="start" x="537.8862" y="-573.4909" font-family="Helvetica,sans-Serif" font-size="11.00" fill="#000000"> &#160;</text>
</a>
</g>
</g>
<!-- Coordinators&#45;&gt;AspNetUsers -->
<g id="edge13" class="edge">
<title>Coordinators:w&#45;&gt;AspNetUsers:e</title>
<path fill="none" stroke="#000000" d="M422.5135,-595.6627C383.6743,-597.7508 371.6005,-611.2754 328,-615.3909 254.9912,-622.2821 234.7069,-630.7498 163,-615.3909 152.0581,-613.0472 140.862,-609.3852 130.1318,-605.1515"/>
<polygon fill="#000000" stroke="#000000" points="432.0966,-591.413 432.3039,-599.4103 430.7045,-599.4517 430.4971,-591.4544 432.0966,-591.413"/>
<polyline fill="none" stroke="#000000" points="433,-595.3909 429.0013,-595.4945 "/>
<ellipse fill="none" stroke="#000000" cx="425.8024" cy="-595.5775" rx="3.2" ry="3.2"/>
</g>
<!-- Coordinators&#45;&gt;TechnicalCareers -->
<g id="edge12" class="edge">
<title>Coordinators:w&#45;&gt;TechnicalCareers:e</title>
<path fill="none" stroke="#000000" d="M418.4601,-594.4579C377.5342,-588.8244 369.8176,-558.7431 328,-533.3909 324.444,-531.235 320.7593,-529.0942 317.0088,-526.9875"/>
<polygon fill="#000000" stroke="#000000" points="425.0164,-594.8785 432.7694,-598.9835 429.0082,-595.1347 433,-595.3909 433,-595.3909 433,-595.3909 429.0082,-595.1347 433.2306,-591.7983 425.0164,-594.8785 425.0164,-594.8785"/>
<ellipse fill="none" stroke="#000000" cx="421.823" cy="-594.6736" rx="3.2" ry="3.2"/>
</g>
<!-- EvaluationPeriods -->
<g id="node11" class="node">
<title>EvaluationPeriods</title>
<g id="a_node11"><a xlink:href="../../tables/EvaluationPeriods.html" xlink:title="EvaluationPeriods" target="_top">
<polygon fill="#ffffff" stroke="transparent" points="174,-543.8909 174,-604.8909 317,-604.8909 317,-543.8909 174,-543.8909"/>
<polygon fill="#f5f5f5" stroke="transparent" points="174.5,-581.3909 174.5,-604.3909 317.5,-604.3909 317.5,-581.3909 174.5,-581.3909"/>
<polygon fill="none" stroke="#000000" points="174.5,-581.3909 174.5,-604.3909 317.5,-604.3909 317.5,-581.3909 174.5,-581.3909"/>
<text text-anchor="start" x="179.5" y="-589.9909" font-family="Helvetica,sans-Serif" font-weight="bold" font-size="11.00" fill="#000000">EvaluationPeriods</text>
<text text-anchor="start" x="283.0219" y="-589.4909" font-family="Helvetica,sans-Serif" font-size="11.00" fill="#000000">[table]</text>
<polygon fill="none" stroke="#000000" points="174.5,-562.3909 174.5,-581.3909 317.5,-581.3909 317.5,-562.3909 174.5,-562.3909"/>
<text text-anchor="start" x="177.5" y="-568.4909" font-family="Helvetica,sans-Serif" font-size="11.00" fill="#000000">...</text>
<polygon fill="#ffffff" stroke="transparent" points="174.5,-543.3909 174.5,-562.3909 226.5,-562.3909 226.5,-543.3909 174.5,-543.3909"/>
<polygon fill="none" stroke="#000000" points="174.5,-543.3909 174.5,-562.3909 226.5,-562.3909 226.5,-543.3909 174.5,-543.3909"/>
<text text-anchor="start" x="177.5" y="-549.4909" font-family="Helvetica,sans-Serif" font-size="11.00" fill="#000000">&lt; 2</text>
<polygon fill="#ffffff" stroke="transparent" points="226.5,-543.3909 226.5,-562.3909 280.5,-562.3909 280.5,-543.3909 226.5,-543.3909"/>
<polygon fill="none" stroke="#000000" points="226.5,-543.3909 226.5,-562.3909 280.5,-562.3909 280.5,-543.3909 226.5,-543.3909"/>
<text text-anchor="start" x="245.1105" y="-549.4909" font-family="Helvetica,sans-Serif" font-size="11.00" fill="#000000">0 rows</text>
<polygon fill="#ffffff" stroke="transparent" points="280.5,-543.3909 280.5,-562.3909 317.5,-562.3909 317.5,-543.3909 280.5,-543.3909"/>
<polygon fill="none" stroke="#000000" points="280.5,-543.3909 280.5,-562.3909 317.5,-562.3909 317.5,-543.3909 280.5,-543.3909"/>
<text text-anchor="start" x="298.9053" y="-549.4909" font-family="Helvetica,sans-Serif" font-size="11.00" fill="#000000">3 &gt;</text>
</a>
</g>
</g>
<!-- EvaluationPeriods&#45;&gt;AspNetUsers -->
<g id="edge14" class="edge">
<title>EvaluationPeriods:w&#45;&gt;AspNetUsers:e</title>
<path fill="none" stroke="#000000" d="M160.0957,-569.8176C150.1213,-568.8588 139.9465,-568.1355 130.1393,-567.6479"/>
<polygon fill="#000000" stroke="#000000" points="166.5473,-570.5222 174.1091,-574.9696 170.5236,-570.9565 174.5,-571.3909 174.5,-571.3909 174.5,-571.3909 170.5236,-570.9565 174.8909,-567.8122 166.5473,-570.5222 166.5473,-570.5222"/>
<ellipse fill="none" stroke="#000000" cx="163.3662" cy="-570.1747" rx="3.2" ry="3.2"/>
</g>
<!-- EvaluationPeriods&#45;&gt;AspNetUsers -->
<g id="edge15" class="edge">
<title>EvaluationPeriods:w&#45;&gt;AspNetUsers:e</title>
<path fill="none" stroke="#000000" d="M160.0957,-573.2264C150.1213,-574.345 139.9465,-575.1888 130.1393,-575.7577"/>
<polygon fill="#000000" stroke="#000000" points="166.5642,-572.4022 174.9551,-574.962 170.5321,-571.8965 174.5,-571.3909 174.5,-571.3909 174.5,-571.3909 170.5321,-571.8965 174.0449,-567.8198 166.5642,-572.4022 166.5642,-572.4022"/>
<ellipse fill="none" stroke="#000000" cx="163.3898" cy="-572.8067" rx="3.2" ry="3.2"/>
</g>
<!-- EvaluationPeriodTechnicalCareer -->
<g id="node12" class="node">
<title>EvaluationPeriodTechnicalCareer</title>
<g id="a_node12"><a xlink:href="../../tables/EvaluationPeriodTechnicalCareer.html" xlink:title="EvaluationPeriodTechnicalCareer" target="_top">
<polygon fill="#ffffff" stroke="transparent" points="375,-485.8909 375,-546.8909 605,-546.8909 605,-485.8909 375,-485.8909"/>
<polygon fill="#f5f5f5" stroke="transparent" points="375,-523.3909 375,-546.3909 605,-546.3909 605,-523.3909 375,-523.3909"/>
<polygon fill="none" stroke="#000000" points="375,-523.3909 375,-546.3909 605,-546.3909 605,-523.3909 375,-523.3909"/>
<text text-anchor="start" x="380" y="-531.9909" font-family="Helvetica,sans-Serif" font-weight="bold" font-size="11.00" fill="#000000">EvaluationPeriodTechnicalCareer</text>
<text text-anchor="start" x="570.5219" y="-531.4909" font-family="Helvetica,sans-Serif" font-size="11.00" fill="#000000">[table]</text>
<polygon fill="none" stroke="#000000" points="375,-504.3909 375,-523.3909 605,-523.3909 605,-504.3909 375,-504.3909"/>
<text text-anchor="start" x="378" y="-510.4909" font-family="Helvetica,sans-Serif" font-size="11.00" fill="#000000">...</text>
<polygon fill="#ffffff" stroke="transparent" points="375,-485.3909 375,-504.3909 475,-504.3909 475,-485.3909 375,-485.3909"/>
<polygon fill="none" stroke="#000000" points="375,-485.3909 375,-504.3909 475,-504.3909 475,-485.3909 375,-485.3909"/>
<text text-anchor="start" x="378" y="-491.4909" font-family="Helvetica,sans-Serif" font-size="11.00" fill="#000000">&lt; 2</text>
<polygon fill="#ffffff" stroke="transparent" points="475,-485.3909 475,-504.3909 553,-504.3909 553,-485.3909 475,-485.3909"/>
<polygon fill="none" stroke="#000000" points="475,-485.3909 475,-504.3909 553,-504.3909 553,-485.3909 475,-485.3909"/>
<text text-anchor="start" x="517.6105" y="-491.4909" font-family="Helvetica,sans-Serif" font-size="11.00" fill="#000000">0 rows</text>
<polygon fill="#ffffff" stroke="transparent" points="553,-485.3909 553,-504.3909 605,-504.3909 605,-485.3909 553,-485.3909"/>
<polygon fill="none" stroke="#000000" points="553,-485.3909 553,-504.3909 605,-504.3909 605,-485.3909 553,-485.3909"/>
<text text-anchor="start" x="595.8862" y="-491.4909" font-family="Helvetica,sans-Serif" font-size="11.00" fill="#000000"> &#160;</text>
</a>
</g>
</g>
<!-- EvaluationPeriodTechnicalCareer&#45;&gt;TechnicalCareers -->
<g id="edge17" class="edge">
<title>EvaluationPeriodTechnicalCareer:w&#45;&gt;TechnicalCareers:e</title>
<path fill="none" stroke="#000000" d="M360.5687,-512.997C348.1347,-512.3453 335.4396,-510.9345 323.2374,-509.1412"/>
<polygon fill="#000000" stroke="#000000" points="367.003,-513.1726 374.9018,-516.9895 371.0015,-513.2817 375,-513.3909 375,-513.3909 375,-513.3909 371.0015,-513.2817 375.0982,-509.7922 367.003,-513.1726 367.003,-513.1726"/>
<ellipse fill="none" stroke="#000000" cx="363.8042" cy="-513.0853" rx="3.2" ry="3.2"/>
</g>
<!-- EvaluationPeriodTechnicalCareer&#45;&gt;EvaluationPeriods -->
<g id="edge16" class="edge">
<title>EvaluationPeriodTechnicalCareer:w&#45;&gt;EvaluationPeriods:e</title>
<path fill="none" stroke="#000000" d="M361.0923,-517.3774C342.219,-530.4813 347.9851,-571.3909 317.5,-571.3909"/>
<polygon fill="#000000" stroke="#000000" points="367.3097,-515.5953 375.992,-516.8515 371.1549,-514.4931 375,-513.3909 375,-513.3909 375,-513.3909 371.1549,-514.4931 374.008,-509.9302 367.3097,-515.5953 367.3097,-515.5953"/>
<ellipse fill="none" stroke="#000000" cx="364.2336" cy="-516.4771" rx="3.2" ry="3.2"/>
</g>
<!-- FormQuestions -->
<g id="node13" class="node">
<title>FormQuestions</title>
<g id="a_node13"><a xlink:href="../../tables/FormQuestions.html" xlink:title="FormQuestions" target="_top">
<polygon fill="#ffffff" stroke="transparent" points="426.5,-798.8909 426.5,-859.8909 553.5,-859.8909 553.5,-798.8909 426.5,-798.8909"/>
<polygon fill="#f5f5f5" stroke="transparent" points="427,-836.3909 427,-859.3909 554,-859.3909 554,-836.3909 427,-836.3909"/>
<polygon fill="none" stroke="#000000" points="427,-836.3909 427,-859.3909 554,-859.3909 554,-836.3909 427,-836.3909"/>
<text text-anchor="start" x="432" y="-844.9909" font-family="Helvetica,sans-Serif" font-weight="bold" font-size="11.00" fill="#000000">FormQuestions</text>
<text text-anchor="start" x="519.5219" y="-844.4909" font-family="Helvetica,sans-Serif" font-size="11.00" fill="#000000">[table]</text>
<polygon fill="none" stroke="#000000" points="427,-817.3909 427,-836.3909 554,-836.3909 554,-817.3909 427,-817.3909"/>
<text text-anchor="start" x="430" y="-823.4909" font-family="Helvetica,sans-Serif" font-size="11.00" fill="#000000">...</text>
<polygon fill="#ffffff" stroke="transparent" points="427,-798.3909 427,-817.3909 471,-817.3909 471,-798.3909 427,-798.3909"/>
<polygon fill="none" stroke="#000000" points="427,-798.3909 427,-817.3909 471,-817.3909 471,-798.3909 427,-798.3909"/>
<text text-anchor="start" x="430" y="-804.4909" font-family="Helvetica,sans-Serif" font-size="11.00" fill="#000000">&lt; 3</text>
<polygon fill="#ffffff" stroke="transparent" points="471,-798.3909 471,-817.3909 521,-817.3909 521,-798.3909 471,-798.3909"/>
<polygon fill="none" stroke="#000000" points="471,-798.3909 471,-817.3909 521,-817.3909 521,-798.3909 471,-798.3909"/>
<text text-anchor="start" x="485.6105" y="-804.4909" font-family="Helvetica,sans-Serif" font-size="11.00" fill="#000000">0 rows</text>
<polygon fill="#ffffff" stroke="transparent" points="521,-798.3909 521,-817.3909 554,-817.3909 554,-798.3909 521,-798.3909"/>
<polygon fill="none" stroke="#000000" points="521,-798.3909 521,-817.3909 554,-817.3909 554,-798.3909 521,-798.3909"/>
<text text-anchor="start" x="535.4053" y="-804.4909" font-family="Helvetica,sans-Serif" font-size="11.00" fill="#000000">1 &gt;</text>
</a>
</g>
</g>
<!-- FormQuestions&#45;&gt;AspNetUsers -->
<g id="edge19" class="edge">
<title>FormQuestions:w&#45;&gt;AspNetUsers:e</title>
<path fill="none" stroke="#000000" d="M412.9067,-822.2946C358.6101,-807.789 173.4453,-763.6323 163,-755.3909 114.3398,-716.9975 87.4618,-647.8405 74.6545,-606.0609"/>
<polygon fill="#000000" stroke="#000000" points="419.3179,-824.158 425.9952,-829.8478 423.159,-825.2744 427,-826.3909 427,-826.3909 427,-826.3909 423.159,-825.2744 428.0048,-822.9339 419.3179,-824.158 419.3179,-824.158"/>
<ellipse fill="none" stroke="#000000" cx="416.2451" cy="-823.2648" rx="3.2" ry="3.2"/>
</g>
<!-- FormQuestions&#45;&gt;AspNetUsers -->
<g id="edge20" class="edge">
<title>FormQuestions:w&#45;&gt;AspNetUsers:e</title>
<path fill="none" stroke="#000000" d="M412.5436,-826.3715C357.7898,-820.5934 173.4221,-776.614 163,-768.3909 110.8433,-727.2387 83.7116,-650.743 72.1088,-606.056"/>
<polygon fill="#000000" stroke="#000000" points="419,-826.3801 426.9952,-829.9909 423,-826.3855 427,-826.3909 427,-826.3909 427,-826.3909 423,-826.3855 427.0048,-822.7909 419,-826.3801 419,-826.3801"/>
<ellipse fill="none" stroke="#000000" cx="415.8" cy="-826.3758" rx="3.2" ry="3.2"/>
</g>
<!-- FormQuestions&#45;&gt;Competencies -->
<g id="edge18" class="edge">
<title>FormQuestions:w&#45;&gt;Competencies:e</title>
<path fill="none" stroke="#000000" d="M414.652,-818.1796C384.5348,-787.5058 324.4206,-681.3909 306.5,-681.3909"/>
<polygon fill="#000000" stroke="#000000" points="420.3384,-821.961 425.0066,-829.3886 423.6692,-824.1759 427,-826.3909 427,-826.3909 427,-826.3909 423.6692,-824.1759 428.9934,-823.3932 420.3384,-821.961 420.3384,-821.961"/>
<ellipse fill="none" stroke="#000000" cx="417.6738" cy="-820.189" rx="3.2" ry="3.2"/>
</g>
<!-- ProfessorCompetencyAssignments -->
<g id="node14" class="node">
<title>ProfessorCompetencyAssignments</title>
<g id="a_node14"><a xlink:href="../../tables/ProfessorCompetencyAssignments.html" xlink:title="ProfessorCompetencyAssignments" target="_top">
<polygon fill="#ffffff" stroke="transparent" points="369,-403.8909 369,-464.8909 611,-464.8909 611,-403.8909 369,-403.8909"/>
<polygon fill="#f5f5f5" stroke="transparent" points="369,-441.3909 369,-464.3909 611,-464.3909 611,-441.3909 369,-441.3909"/>
<polygon fill="none" stroke="#000000" points="369,-441.3909 369,-464.3909 611,-464.3909 611,-441.3909 369,-441.3909"/>
<text text-anchor="start" x="374" y="-449.9909" font-family="Helvetica,sans-Serif" font-weight="bold" font-size="11.00" fill="#000000">ProfessorCompetencyAssignments</text>
<text text-anchor="start" x="576.5219" y="-449.4909" font-family="Helvetica,sans-Serif" font-size="11.00" fill="#000000">[table]</text>
<polygon fill="none" stroke="#000000" points="369,-422.3909 369,-441.3909 611,-441.3909 611,-422.3909 369,-422.3909"/>
<text text-anchor="start" x="372" y="-428.4909" font-family="Helvetica,sans-Serif" font-size="11.00" fill="#000000">...</text>
<polygon fill="#ffffff" stroke="transparent" points="369,-403.3909 369,-422.3909 471,-422.3909 471,-403.3909 369,-403.3909"/>
<polygon fill="none" stroke="#000000" points="369,-403.3909 369,-422.3909 471,-422.3909 471,-403.3909 369,-403.3909"/>
<text text-anchor="start" x="372" y="-409.4909" font-family="Helvetica,sans-Serif" font-size="11.00" fill="#000000">&lt; 6</text>
<polygon fill="#ffffff" stroke="transparent" points="471,-403.3909 471,-422.3909 549,-422.3909 549,-403.3909 471,-403.3909"/>
<polygon fill="none" stroke="#000000" points="471,-403.3909 471,-422.3909 549,-422.3909 549,-403.3909 471,-403.3909"/>
<text text-anchor="start" x="513.6105" y="-409.4909" font-family="Helvetica,sans-Serif" font-size="11.00" fill="#000000">0 rows</text>
<polygon fill="#ffffff" stroke="transparent" points="549,-403.3909 549,-422.3909 611,-422.3909 611,-403.3909 549,-403.3909"/>
<polygon fill="none" stroke="#000000" points="549,-403.3909 549,-422.3909 611,-422.3909 611,-403.3909 549,-403.3909"/>
<text text-anchor="start" x="592.4053" y="-409.4909" font-family="Helvetica,sans-Serif" font-size="11.00" fill="#000000">1 &gt;</text>
</a>
</g>
</g>
<!-- ProfessorCompetencyAssignments&#45;&gt;AspNetUsers -->
<g id="edge22" class="edge">
<title>ProfessorCompetencyAssignments:w&#45;&gt;AspNetUsers:e</title>
<path fill="none" stroke="#000000" d="M354.421,-430.2641C273.2701,-423.031 239.6672,-404.3615 163,-445.3909 125.2924,-465.5705 96.6205,-506.9742 80.3062,-536.8907"/>
<polygon fill="#000000" stroke="#000000" points="361.0238,-430.7744 368.7226,-434.9802 365.0119,-431.0826 369,-431.3909 369,-431.3909 369,-431.3909 365.0119,-431.0826 369.2774,-427.8016 361.0238,-430.7744 361.0238,-430.7744"/>
<ellipse fill="none" stroke="#000000" cx="357.8333" cy="-430.5278" rx="3.2" ry="3.2"/>
</g>
<!-- ProfessorCompetencyAssignments&#45;&gt;AspNetUsers -->
<g id="edge26" class="edge">
<title>ProfessorCompetencyAssignments:w&#45;&gt;AspNetUsers:e</title>
<path fill="none" stroke="#000000" d="M354.421,-432.2824C273.2701,-436.031 239.6672,-417.3615 163,-458.3909 129.6798,-476.2226 103.4149,-510.6267 86.4975,-536.8841"/>
<polygon fill="#000000" stroke="#000000" points="361.0149,-431.8792 369.2198,-434.9842 365.0075,-431.6351 369,-431.3909 369,-431.3909 369,-431.3909 365.0075,-431.6351 368.7802,-427.7976 361.0149,-431.8792 361.0149,-431.8792"/>
<ellipse fill="none" stroke="#000000" cx="357.8209" cy="-432.0746" rx="3.2" ry="3.2"/>
</g>
<!-- ProfessorCompetencyAssignments&#45;&gt;Competencies -->
<g id="edge21" class="edge">
<title>ProfessorCompetencyAssignments:w&#45;&gt;Competencies:e</title>
<path fill="none" stroke="#000000" d="M355.5958,-437.5707C320.5298,-476.0686 358.3967,-681.3909 306.5,-681.3909"/>
<polygon fill="#000000" stroke="#000000" points="361.7349,-434.7404 370.5073,-434.6602 365.3675,-433.0656 369,-431.3909 369,-431.3909 369,-431.3909 365.3675,-433.0656 367.4927,-428.1216 361.7349,-434.7404 361.7349,-434.7404"/>
<ellipse fill="none" stroke="#000000" cx="358.8289" cy="-436.0802" rx="3.2" ry="3.2"/>
</g>
<!-- ProfessorCompetencyAssignments&#45;&gt;TechnicalCareers -->
<g id="edge25" class="edge">
<title>ProfessorCompetencyAssignments:w&#45;&gt;TechnicalCareers:e</title>
<path fill="none" stroke="#000000" d="M354.9171,-435.7518C343.1654,-440.6173 326.3138,-448.9716 309.3449,-457.7916"/>
<polygon fill="#000000" stroke="#000000" points="361.358,-433.7574 370.0649,-434.8298 365.179,-432.5741 369,-431.3909 369,-431.3909 369,-431.3909 365.179,-432.5741 367.9351,-427.952 361.358,-433.7574 361.358,-433.7574"/>
<ellipse fill="none" stroke="#000000" cx="358.3012" cy="-434.7039" rx="3.2" ry="3.2"/>
</g>
<!-- ProfessorCompetencyAssignments&#45;&gt;EvaluationPeriods -->
<g id="edge23" class="edge">
<title>ProfessorCompetencyAssignments:w&#45;&gt;EvaluationPeriods:e</title>
<path fill="none" stroke="#000000" d="M354.7346,-434.4452C315.8182,-454.9188 377.9716,-571.3909 317.5,-571.3909"/>
<polygon fill="#000000" stroke="#000000" points="361.1773,-433.0658 369.7537,-434.9111 365.0886,-432.2283 369,-431.3909 369,-431.3909 369,-431.3909 365.0886,-432.2283 368.2463,-427.8707 361.1773,-433.0658 361.1773,-433.0658"/>
<ellipse fill="none" stroke="#000000" cx="358.0482" cy="-433.7358" rx="3.2" ry="3.2"/>
</g>
<!-- Professors -->
<g id="node15" class="node">
<title>Professors</title>
<g id="a_node15"><a xlink:href="../../tables/Professors.html" xlink:title="Professors" target="_top">
<polygon fill="#ffffff" stroke="transparent" points="195,-339.8909 195,-400.8909 296,-400.8909 296,-339.8909 195,-339.8909"/>
<polygon fill="#f5f5f5" stroke="transparent" points="195.5,-377.3909 195.5,-400.3909 296.5,-400.3909 296.5,-377.3909 195.5,-377.3909"/>
<polygon fill="none" stroke="#000000" points="195.5,-377.3909 195.5,-400.3909 296.5,-400.3909 296.5,-377.3909 195.5,-377.3909"/>
<text text-anchor="start" x="200.5" y="-385.9909" font-family="Helvetica,sans-Serif" font-weight="bold" font-size="11.00" fill="#000000">Professors</text>
<text text-anchor="start" x="262.0219" y="-385.4909" font-family="Helvetica,sans-Serif" font-size="11.00" fill="#000000">[table]</text>
<polygon fill="none" stroke="#000000" points="195.5,-358.3909 195.5,-377.3909 296.5,-377.3909 296.5,-358.3909 195.5,-358.3909"/>
<text text-anchor="start" x="198.5" y="-364.4909" font-family="Helvetica,sans-Serif" font-size="11.00" fill="#000000">...</text>
<polygon fill="#ffffff" stroke="transparent" points="195.5,-339.3909 195.5,-358.3909 226.5,-358.3909 226.5,-339.3909 195.5,-339.3909"/>
<polygon fill="none" stroke="#000000" points="195.5,-339.3909 195.5,-358.3909 226.5,-358.3909 226.5,-339.3909 195.5,-339.3909"/>
<text text-anchor="start" x="198.5" y="-345.4909" font-family="Helvetica,sans-Serif" font-size="11.00" fill="#000000">&lt; 1</text>
<polygon fill="#ffffff" stroke="transparent" points="226.5,-339.3909 226.5,-358.3909 269.5,-358.3909 269.5,-339.3909 226.5,-339.3909"/>
<polygon fill="none" stroke="#000000" points="226.5,-339.3909 226.5,-358.3909 269.5,-358.3909 269.5,-339.3909 226.5,-339.3909"/>
<text text-anchor="start" x="234.1105" y="-345.4909" font-family="Helvetica,sans-Serif" font-size="11.00" fill="#000000">0 rows</text>
<polygon fill="#ffffff" stroke="transparent" points="269.5,-339.3909 269.5,-358.3909 296.5,-358.3909 296.5,-339.3909 269.5,-339.3909"/>
<polygon fill="none" stroke="#000000" points="269.5,-339.3909 269.5,-358.3909 296.5,-358.3909 296.5,-339.3909 269.5,-339.3909"/>
<text text-anchor="start" x="277.9053" y="-345.4909" font-family="Helvetica,sans-Serif" font-size="11.00" fill="#000000">2 &gt;</text>
</a>
</g>
</g>
<!-- ProfessorCompetencyAssignments&#45;&gt;Professors -->
<g id="edge24" class="edge">
<title>ProfessorCompetencyAssignments:w&#45;&gt;Professors:e</title>
<path fill="none" stroke="#000000" d="M354.5971,-428.304C328.5993,-415.5198 333.7725,-367.3909 296.5,-367.3909"/>
<polygon fill="#000000" stroke="#000000" points="361.1776,-429.7143 368.2456,-434.9109 365.0888,-430.5526 369,-431.3909 369,-431.3909 369,-431.3909 365.0888,-430.5526 369.7544,-427.8708 361.1776,-429.7143 361.1776,-429.7143"/>
<ellipse fill="none" stroke="#000000" cx="358.0487" cy="-429.0437" rx="3.2" ry="3.2"/>
</g>
<!-- Professors&#45;&gt;AspNetUsers -->
<g id="edge27" class="edge">
<title>Professors:w&#45;&gt;AspNetUsers:e</title>
<path fill="none" stroke="#000000" d="M185.0687,-368.0491C113.0926,-377.2739 82.2388,-481.1975 70.8089,-536.7851"/>
<polygon fill="#000000" stroke="#000000" points="194.4496,-363.4492 194.9535,-371.4333 193.3567,-371.5341 192.8528,-363.55 194.4496,-363.4492"/>
<polyline fill="none" stroke="#000000" points="195.5,-367.3909 191.5079,-367.6428 "/>
<ellipse fill="none" stroke="#000000" cx="188.3143" cy="-367.8444" rx="3.2" ry="3.2"/>
</g>
<!-- QuestionResponses -->
<g id="node16" class="node">
<title>QuestionResponses</title>
<g id="a_node16"><a xlink:href="../../tables/QuestionResponses.html" xlink:title="QuestionResponses" target="_top">
<polygon fill="#ffffff" stroke="transparent" points="932,-203.8909 932,-264.8909 1087,-264.8909 1087,-203.8909 932,-203.8909"/>
<polygon fill="#f5f5f5" stroke="transparent" points="932.5,-241.3909 932.5,-264.3909 1087.5,-264.3909 1087.5,-241.3909 932.5,-241.3909"/>
<polygon fill="none" stroke="#000000" points="932.5,-241.3909 932.5,-264.3909 1087.5,-264.3909 1087.5,-241.3909 932.5,-241.3909"/>
<text text-anchor="start" x="937.5" y="-249.9909" font-family="Helvetica,sans-Serif" font-weight="bold" font-size="11.00" fill="#000000">QuestionResponses</text>
<text text-anchor="start" x="1053.0219" y="-249.4909" font-family="Helvetica,sans-Serif" font-size="11.00" fill="#000000">[table]</text>
<polygon fill="none" stroke="#000000" points="932.5,-222.3909 932.5,-241.3909 1087.5,-241.3909 1087.5,-222.3909 932.5,-222.3909"/>
<text text-anchor="start" x="935.5" y="-228.4909" font-family="Helvetica,sans-Serif" font-size="11.00" fill="#000000">...</text>
<polygon fill="#ffffff" stroke="transparent" points="932.5,-203.3909 932.5,-222.3909 995.5,-222.3909 995.5,-203.3909 932.5,-203.3909"/>
<polygon fill="none" stroke="#000000" points="932.5,-203.3909 932.5,-222.3909 995.5,-222.3909 995.5,-203.3909 932.5,-203.3909"/>
<text text-anchor="start" x="935.5" y="-209.4909" font-family="Helvetica,sans-Serif" font-size="11.00" fill="#000000">&lt; 4</text>
<polygon fill="#ffffff" stroke="transparent" points="995.5,-203.3909 995.5,-222.3909 1054.5,-222.3909 1054.5,-203.3909 995.5,-203.3909"/>
<polygon fill="none" stroke="#000000" points="995.5,-203.3909 995.5,-222.3909 1054.5,-222.3909 1054.5,-203.3909 995.5,-203.3909"/>
<text text-anchor="start" x="1019.1105" y="-209.4909" font-family="Helvetica,sans-Serif" font-size="11.00" fill="#000000">0 rows</text>
<polygon fill="#ffffff" stroke="transparent" points="1054.5,-203.3909 1054.5,-222.3909 1087.5,-222.3909 1087.5,-203.3909 1054.5,-203.3909"/>
<polygon fill="none" stroke="#000000" points="1054.5,-203.3909 1054.5,-222.3909 1087.5,-222.3909 1087.5,-203.3909 1054.5,-203.3909"/>
<text text-anchor="start" x="1078.3862" y="-209.4909" font-family="Helvetica,sans-Serif" font-size="11.00" fill="#000000"> &#160;</text>
</a>
</g>
</g>
<!-- QuestionResponses&#45;&gt;AspNetUsers -->
<g id="edge28" class="edge">
<title>QuestionResponses:w&#45;&gt;AspNetUsers:e</title>
<path fill="none" stroke="#000000" d="M919.1437,-225.922C910.1296,-221.365 904.394,-216.9818 891,-215.3909 785.5193,-202.8617 758.1619,-211.8128 652,-215.3909 434.296,-222.7284 333.8495,-113.2638 163,-248.3909 117.3669,-284.4826 82.7318,-460.9875 70.1506,-536.7923"/>
<polygon fill="#000000" stroke="#000000" points="925.0966,-228.3594 931.1359,-234.7224 928.7983,-229.8752 932.5,-231.3909 932.5,-231.3909 932.5,-231.3909 928.7983,-229.8752 933.8641,-228.0593 925.0966,-228.3594 925.0966,-228.3594"/>
<ellipse fill="none" stroke="#000000" cx="922.1352" cy="-227.1469" rx="3.2" ry="3.2"/>
</g>
<!-- QuestionResponses&#45;&gt;AspNetUsers -->
<g id="edge31" class="edge">
<title>QuestionResponses:w&#45;&gt;AspNetUsers:e</title>
<path fill="none" stroke="#000000" d="M918.2625,-234.2476C909.7431,-234.079 903.9524,-229.9294 891,-228.3909 785.5193,-215.8617 758.1619,-224.8128 652,-228.3909 434.296,-235.7284 333.8495,-126.2638 163,-261.3909 118.7789,-296.3659 84.8856,-463.1996 71.3814,-536.6619"/>
<polygon fill="#000000" stroke="#000000" points="924.6563,-232.9647 933.2082,-234.9205 928.5782,-232.1778 932.5,-231.3909 932.5,-231.3909 932.5,-231.3909 928.5782,-232.1778 931.7918,-227.8612 924.6563,-232.9647 924.6563,-232.9647"/>
<ellipse fill="none" stroke="#000000" cx="921.5189" cy="-233.5943" rx="3.2" ry="3.2"/>
</g>
<!-- QuestionResponses&#45;&gt;FormQuestions -->
<g id="edge29" class="edge">
<title>QuestionResponses:w&#45;&gt;FormQuestions:e</title>
<path fill="none" stroke="#000000" d="M920.461,-239.8264C879.7354,-306.2913 930.3794,-744.1448 891,-785.3909 786.8082,-894.5216 704.8822,-826.3909 554,-826.3909"/>
<polygon fill="#000000" stroke="#000000" points="925.9482,-235.9816 934.5658,-234.3392 929.2241,-233.6862 932.5,-231.3909 932.5,-231.3909 932.5,-231.3909 929.2241,-233.6862 930.4342,-228.4426 925.9482,-235.9816 925.9482,-235.9816"/>
<ellipse fill="none" stroke="#000000" cx="923.3275" cy="-237.8179" rx="3.2" ry="3.2"/>
</g>
<!-- StudentCompetencyEvaluations -->
<g id="node17" class="node">
<title>StudentCompetencyEvaluations</title>
<g id="a_node17"><a xlink:href="../../tables/StudentCompetencyEvaluations.html" xlink:title="StudentCompetencyEvaluations" target="_top">
<polygon fill="#ffffff" stroke="transparent" points="660,-231.8909 660,-292.8909 883,-292.8909 883,-231.8909 660,-231.8909"/>
<polygon fill="#f5f5f5" stroke="transparent" points="660.5,-269.3909 660.5,-292.3909 883.5,-292.3909 883.5,-269.3909 660.5,-269.3909"/>
<polygon fill="none" stroke="#000000" points="660.5,-269.3909 660.5,-292.3909 883.5,-292.3909 883.5,-269.3909 660.5,-269.3909"/>
<text text-anchor="start" x="665.5" y="-277.9909" font-family="Helvetica,sans-Serif" font-weight="bold" font-size="11.00" fill="#000000">StudentCompetencyEvaluations</text>
<text text-anchor="start" x="849.0219" y="-277.4909" font-family="Helvetica,sans-Serif" font-size="11.00" fill="#000000">[table]</text>
<polygon fill="none" stroke="#000000" points="660.5,-250.3909 660.5,-269.3909 883.5,-269.3909 883.5,-250.3909 660.5,-250.3909"/>
<text text-anchor="start" x="663.5" y="-256.4909" font-family="Helvetica,sans-Serif" font-size="11.00" fill="#000000">...</text>
<polygon fill="#ffffff" stroke="transparent" points="660.5,-231.3909 660.5,-250.3909 752.5,-250.3909 752.5,-231.3909 660.5,-231.3909"/>
<polygon fill="none" stroke="#000000" points="660.5,-231.3909 660.5,-250.3909 752.5,-250.3909 752.5,-231.3909 660.5,-231.3909"/>
<text text-anchor="start" x="663.5" y="-237.4909" font-family="Helvetica,sans-Serif" font-size="11.00" fill="#000000">&lt; 4</text>
<polygon fill="#ffffff" stroke="transparent" points="752.5,-231.3909 752.5,-250.3909 826.5,-250.3909 826.5,-231.3909 752.5,-231.3909"/>
<polygon fill="none" stroke="#000000" points="752.5,-231.3909 752.5,-250.3909 826.5,-250.3909 826.5,-231.3909 752.5,-231.3909"/>
<text text-anchor="start" x="791.1105" y="-237.4909" font-family="Helvetica,sans-Serif" font-size="11.00" fill="#000000">0 rows</text>
<polygon fill="#ffffff" stroke="transparent" points="826.5,-231.3909 826.5,-250.3909 883.5,-250.3909 883.5,-231.3909 826.5,-231.3909"/>
<polygon fill="none" stroke="#000000" points="826.5,-231.3909 826.5,-250.3909 883.5,-250.3909 883.5,-231.3909 826.5,-231.3909"/>
<text text-anchor="start" x="864.9053" y="-237.4909" font-family="Helvetica,sans-Serif" font-size="11.00" fill="#000000">1 &gt;</text>
</a>
</g>
</g>
<!-- QuestionResponses&#45;&gt;StudentCompetencyEvaluations -->
<g id="edge30" class="edge">
<title>QuestionResponses:w&#45;&gt;StudentCompetencyEvaluations:e</title>
<path fill="none" stroke="#000000" d="M918.0737,-231.7694C909.1197,-232.2242 900.0424,-233.0693 891.022,-234.1966"/>
<polygon fill="#000000" stroke="#000000" points="924.5028,-231.6008 932.5944,-234.9896 928.5014,-231.4958 932.5,-231.3909 932.5,-231.3909 932.5,-231.3909 928.5014,-231.4958 932.4056,-227.7921 924.5028,-231.6008 924.5028,-231.6008"/>
<ellipse fill="none" stroke="#000000" cx="921.3039" cy="-231.6847" rx="3.2" ry="3.2"/>
</g>
<!-- StudentCompetencyEvaluations&#45;&gt;AspNetUsers -->
<g id="edge32" class="edge">
<title>StudentCompetencyEvaluations:w&#45;&gt;AspNetUsers:e</title>
<path fill="none" stroke="#000000" d="M637.4295,-249.282C479.8522,-240.0594 231.1509,-238.757 163,-298.3909 92.2098,-360.3342 72.5083,-477.9384 67.0609,-536.536"/>
<polygon fill="#000000" stroke="#000000" points="643.9277,-249.6792 651.6931,-253.7606 647.9202,-249.9232 651.9128,-250.1673 651.9128,-250.1673 651.9128,-250.1673 647.9202,-249.9232 652.1324,-246.574 643.9277,-249.6792 643.9277,-249.6792"/>
<ellipse fill="none" stroke="#000000" cx="640.7336" cy="-249.4839" rx="3.2" ry="3.2"/>
</g>
<!-- StudentCompetencyEvaluations&#45;&gt;AspNetUsers -->
<g id="edge35" class="edge">
<title>StudentCompetencyEvaluations:w&#45;&gt;AspNetUsers:e</title>
<path fill="none" stroke="#000000" d="M637.4295,-258.4051C479.8522,-253.0594 231.1509,-251.757 163,-311.3909 95.3684,-370.5703 74.3682,-480.5544 67.8785,-536.6787"/>
<polygon fill="#000000" stroke="#000000" points="643.9177,-258.6339 651.7859,-262.5137 647.9153,-258.7749 651.9128,-258.9159 651.9128,-258.9159 651.9128,-258.9159 647.9153,-258.7749 652.0397,-255.3181 643.9177,-258.6339 643.9177,-258.6339"/>
<ellipse fill="none" stroke="#000000" cx="640.7197" cy="-258.5211" rx="3.2" ry="3.2"/>
</g>
<!-- StudentCompetencyEvaluations&#45;&gt;ProfessorCompetencyAssignments -->
<g id="edge33" class="edge">
<title>StudentCompetencyEvaluations:w&#45;&gt;ProfessorCompetencyAssignments:e</title>
<path fill="none" stroke="#000000" d="M750.9585,-310.1357C725.8611,-360.1112 678.2732,-431.3909 611,-431.3909"/>
<polygon fill="#000000" stroke="#000000" points="753.818,-304.2046 760.5351,-298.5618 755.5552,-300.6015 757.2923,-296.9984 757.2923,-296.9984 757.2923,-296.9984 755.5552,-300.6015 754.0495,-295.4349 753.818,-304.2046 753.818,-304.2046"/>
<ellipse fill="none" stroke="#000000" cx="752.4283" cy="-307.0871" rx="3.2" ry="3.2"/>
</g>
<!-- Students -->
<g id="node18" class="node">
<title>Students</title>
<g id="a_node18"><a xlink:href="../../tables/Students.html" xlink:title="Students" target="_top">
<polygon fill="#ffffff" stroke="transparent" points="378.5,-270.3909 378.5,-382.3909 601.5,-382.3909 601.5,-270.3909 378.5,-270.3909"/>
<polygon fill="#f5f5f5" stroke="transparent" points="381,-357.3909 381,-380.3909 600,-380.3909 600,-357.3909 381,-357.3909"/>
<polygon fill="none" stroke="#000000" points="381,-357.3909 381,-380.3909 600,-380.3909 600,-357.3909 381,-357.3909"/>
<text text-anchor="start" x="386" y="-365.9909" font-family="Helvetica,sans-Serif" font-weight="bold" font-size="11.00" fill="#000000">Students</text>
<text text-anchor="start" x="565.0437" y="-365.4909" font-family="Helvetica,sans-Serif" font-size="11.00" fill="#000000">[table]</text>
<polygon fill="none" stroke="#000000" points="381,-335.3909 381,-357.3909 506,-357.3909 506,-335.3909 381,-335.3909"/>
<image xlink:href="../../images/primaryKeys.png" width="11px" height="12px" preserveAspectRatio="xMinYMin meet" x="386" y="-352.391"/>
<text text-anchor="start" x="401" y="-342.4909" font-family="Helvetica,sans-Serif" font-size="11.00" fill="#000000">UserId</text>
<polygon fill="none" stroke="#000000" points="506,-335.3909 506,-357.3909 600,-357.3909 600,-335.3909 506,-335.3909"/>
<text text-anchor="start" x="509" y="-343.0909" font-family="Helvetica,sans-Serif" font-size="11.00" fill="#000000">text[2147483647]</text>
<polygon fill="none" stroke="#000000" points="381,-313.3909 381,-335.3909 506,-335.3909 506,-313.3909 381,-313.3909"/>
<text text-anchor="start" x="401" y="-320.4909" font-family="Helvetica,sans-Serif" font-size="11.00" fill="#000000">CurrentYear</text>
<polygon fill="none" stroke="#000000" points="506,-313.3909 506,-335.3909 600,-335.3909 600,-313.3909 506,-313.3909"/>
<text text-anchor="start" x="509" y="-321.0909" font-family="Helvetica,sans-Serif" font-size="11.00" fill="#000000">int4[10]</text>
<polygon fill="#ffffff" stroke="transparent" points="381,-291.3909 381,-313.3909 506,-313.3909 506,-291.3909 381,-291.3909"/>
<polygon fill="none" stroke="#000000" points="381,-291.3909 381,-313.3909 506,-313.3909 506,-291.3909 381,-291.3909"/>
<image xlink:href="../../images/foreignKeys.png" width="11px" height="12px" preserveAspectRatio="xMinYMin meet" x="386" y="-308.391"/>
<text text-anchor="start" x="401" y="-298.4909" font-family="Helvetica,sans-Serif" font-size="11.00" fill="#000000">TechnicalCareerId</text>
<polygon fill="none" stroke="#000000" points="506,-291.3909 506,-313.3909 600,-313.3909 600,-291.3909 506,-291.3909"/>
<text text-anchor="start" x="508.9758" y="-299.0909" font-family="Helvetica,sans-Serif" font-size="11.00" fill="#000000">uuid[2147483647]</text>
<polygon fill="#ffffff" stroke="transparent" points="381,-272.3909 381,-291.3909 435,-291.3909 435,-272.3909 381,-272.3909"/>
<polygon fill="none" stroke="#000000" points="381,-272.3909 381,-291.3909 435,-291.3909 435,-272.3909 381,-272.3909"/>
<text text-anchor="start" x="384" y="-278.4909" font-family="Helvetica,sans-Serif" font-size="11.00" fill="#000000">&lt; 2</text>
<polygon fill="#ffffff" stroke="transparent" points="435,-272.3909 435,-291.3909 506,-291.3909 506,-272.3909 435,-272.3909"/>
<polygon fill="none" stroke="#000000" points="435,-272.3909 435,-291.3909 506,-291.3909 506,-272.3909 435,-272.3909"/>
<text text-anchor="start" x="470.6105" y="-278.4909" font-family="Helvetica,sans-Serif" font-size="11.00" fill="#000000">0 rows</text>
<polygon fill="#ffffff" stroke="transparent" points="506,-272.3909 506,-291.3909 600,-291.3909 600,-272.3909 506,-272.3909"/>
<polygon fill="none" stroke="#000000" points="506,-272.3909 506,-291.3909 600,-291.3909 600,-272.3909 506,-272.3909"/>
<text text-anchor="start" x="581.4053" y="-278.4909" font-family="Helvetica,sans-Serif" font-size="11.00" fill="#000000">3 &gt;</text>
<polygon fill="none" stroke="#000000" stroke-width="2" points="379.5,-271.3909 379.5,-381.3909 600.5,-381.3909 600.5,-271.3909 379.5,-271.3909"/>
</a>
</g>
</g>
<!-- StudentCompetencyEvaluations&#45;&gt;Students -->
<g id="edge34" class="edge">
<title>StudentCompetencyEvaluations:w&#45;&gt;Students:e</title>
<path fill="none" stroke="#000000" d="M716.2425,-305.256C684.1345,-325.9637 641.8542,-346.3909 600,-346.3909"/>
<polygon fill="#000000" stroke="#000000" points="721.8262,-301.5039 730.4742,-300.0299 725.1463,-299.2729 728.4663,-297.0419 728.4663,-297.0419 728.4663,-297.0419 725.1463,-299.2729 726.4584,-294.0538 721.8262,-301.5039 721.8262,-301.5039"/>
<ellipse fill="none" stroke="#000000" cx="719.1702" cy="-303.2887" rx="3.2" ry="3.2"/>
</g>
<!-- Students&#45;&gt;AspNetUsers -->
<g id="edge41" class="edge">
<title>Students:w&#45;&gt;AspNetUsers:e</title>
<path fill="none" stroke="#000000" d="M370.33,-345.4264C354.4533,-342.3191 348.4306,-332.5873 328,-329.3909 255.548,-318.0556 223.8125,-288.4078 163,-329.3909 93.4606,-376.2553 73.2486,-481.7661 67.3862,-536.6869"/>
<polygon fill="#000000" stroke="#000000" points="380.5634,-342.3351 379.8431,-350.3026 378.2496,-350.1586 378.9699,-342.191 380.5634,-342.3351"/>
<polyline fill="none" stroke="#000000" points="381,-346.3909 377.0162,-346.0307 "/>
<ellipse fill="none" stroke="#000000" cx="373.8292" cy="-345.7426" rx="3.2" ry="3.2"/>
</g>
<!-- Students&#45;&gt;TechnicalCareers -->
<g id="edge40" class="edge">
<title>Students:w&#45;&gt;TechnicalCareers:e</title>
<path fill="none" stroke="#000000" d="M366.6563,-304.4672C333.241,-315.9192 356.138,-372.2734 328,-411.3909 316.0445,-428.0114 300.519,-444.2464 286.1662,-457.7646"/>
<polygon fill="#000000" stroke="#000000" points="373.0825,-303.537 381.5158,-305.9537 377.0413,-302.9639 381,-302.3909 381,-302.3909 381,-302.3909 377.0413,-302.9639 380.4842,-298.828 373.0825,-303.537 373.0825,-303.537"/>
<ellipse fill="none" stroke="#000000" cx="369.9155" cy="-303.9954" rx="3.2" ry="3.2"/>
</g>
<!-- StudentEvaluationReport -->
<g id="node19" class="node">
<title>StudentEvaluationReport</title>
<g id="a_node19"><a xlink:href="../../tables/StudentEvaluationReport.html" xlink:title="StudentEvaluationReport" target="_top">
<polygon fill="#ffffff" stroke="transparent" points="680,-713.8909 680,-774.8909 863,-774.8909 863,-713.8909 680,-713.8909"/>
<polygon fill="#f5f5f5" stroke="transparent" points="680.5,-751.3909 680.5,-774.3909 863.5,-774.3909 863.5,-751.3909 680.5,-751.3909"/>
<polygon fill="none" stroke="#000000" points="680.5,-751.3909 680.5,-774.3909 863.5,-774.3909 863.5,-751.3909 680.5,-751.3909"/>
<text text-anchor="start" x="685.5" y="-759.9909" font-family="Helvetica,sans-Serif" font-weight="bold" font-size="11.00" fill="#000000">StudentEvaluationReport</text>
<text text-anchor="start" x="829.0219" y="-759.4909" font-family="Helvetica,sans-Serif" font-size="11.00" fill="#000000">[table]</text>
<polygon fill="none" stroke="#000000" points="680.5,-732.3909 680.5,-751.3909 863.5,-751.3909 863.5,-732.3909 680.5,-732.3909"/>
<text text-anchor="start" x="683.5" y="-738.4909" font-family="Helvetica,sans-Serif" font-size="11.00" fill="#000000">...</text>
<polygon fill="#ffffff" stroke="transparent" points="680.5,-713.3909 680.5,-732.3909 757.5,-732.3909 757.5,-713.3909 680.5,-713.3909"/>
<polygon fill="none" stroke="#000000" points="680.5,-713.3909 680.5,-732.3909 757.5,-732.3909 757.5,-713.3909 680.5,-713.3909"/>
<text text-anchor="start" x="683.5" y="-719.4909" font-family="Helvetica,sans-Serif" font-size="11.00" fill="#000000">&lt; 4</text>
<polygon fill="#ffffff" stroke="transparent" points="757.5,-713.3909 757.5,-732.3909 823.5,-732.3909 823.5,-713.3909 757.5,-713.3909"/>
<polygon fill="none" stroke="#000000" points="757.5,-713.3909 757.5,-732.3909 823.5,-732.3909 823.5,-713.3909 757.5,-713.3909"/>
<text text-anchor="start" x="788.1105" y="-719.4909" font-family="Helvetica,sans-Serif" font-size="11.00" fill="#000000">0 rows</text>
<polygon fill="#ffffff" stroke="transparent" points="823.5,-713.3909 823.5,-732.3909 863.5,-732.3909 863.5,-713.3909 823.5,-713.3909"/>
<polygon fill="none" stroke="#000000" points="823.5,-713.3909 823.5,-732.3909 863.5,-732.3909 863.5,-713.3909 823.5,-713.3909"/>
<text text-anchor="start" x="854.3862" y="-719.4909" font-family="Helvetica,sans-Serif" font-size="11.00" fill="#000000"> &#160;</text>
</a>
</g>
</g>
<!-- StudentEvaluationReport&#45;&gt;AspNetUsers -->
<g id="edge36" class="edge">
<title>StudentEvaluationReport:w&#45;&gt;AspNetUsers:e</title>
<path fill="none" stroke="#000000" d="M657.3174,-749.8553C504.4448,-758.3521 243.1765,-767.982 163,-719.3909 120.3147,-693.5213 93.058,-641.1924 78.4025,-606.1507"/>
<polygon fill="#000000" stroke="#000000" points="663.7762,-749.4902 671.9667,-752.6328 667.7698,-749.2644 671.7635,-749.0386 671.7635,-749.0386 671.7635,-749.0386 667.7698,-749.2644 671.5602,-745.4443 663.7762,-749.4902 663.7762,-749.4902"/>
<ellipse fill="none" stroke="#000000" cx="660.5813" cy="-749.6709" rx="3.2" ry="3.2"/>
</g>
<!-- StudentEvaluationReport&#45;&gt;AspNetUsers -->
<g id="edge39" class="edge">
<title>StudentEvaluationReport:w&#45;&gt;AspNetUsers:e</title>
<path fill="none" stroke="#000000" d="M657.3174,-758.5292C504.4448,-771.3521 243.1765,-780.982 163,-732.3909 116.3849,-704.1397 88.1701,-644.333 74.673,-606.0034"/>
<polygon fill="#000000" stroke="#000000" points="663.7932,-757.9693 672.0736,-760.8667 667.7783,-757.6247 671.7635,-757.2801 671.7635,-757.2801 671.7635,-757.2801 667.7783,-757.6247 671.4533,-753.6935 663.7932,-757.9693 663.7932,-757.9693"/>
<ellipse fill="none" stroke="#000000" cx="660.6051" cy="-758.245" rx="3.2" ry="3.2"/>
</g>
<!-- StudentEvaluationReport&#45;&gt;EvaluationPeriods -->
<g id="edge37" class="edge">
<title>StudentEvaluationReport:w&#45;&gt;EvaluationPeriods:e</title>
<path fill="none" stroke="#000000" d="M657.3074,-744.6615C543.9192,-743.8752 383.7556,-739.5028 361,-721.3909 306.6896,-678.1635 386.9134,-571.3909 317.5,-571.3909"/>
<polygon fill="#000000" stroke="#000000" points="663.9328,-744.6993 671.9121,-748.345 667.9327,-744.7222 671.9327,-744.7451 671.9327,-744.7451 671.9327,-744.7451 667.9327,-744.7222 671.9533,-741.1452 663.9328,-744.6993 663.9328,-744.6993"/>
<ellipse fill="none" stroke="#000000" cx="660.7328" cy="-744.681" rx="3.2" ry="3.2"/>
</g>
<!-- StudentEvaluationReport&#45;&gt;Students -->
<g id="edge38" class="edge">
<title>StudentEvaluationReport:w&#45;&gt;Students:e</title>
<path fill="none" stroke="#000000" d="M761.2305,-695.4036C737.5203,-589.0298 675.1957,-346.3909 600,-346.3909"/>
<polygon fill="#000000" stroke="#000000" points="762.6672,-701.953 760.865,-710.5386 763.5243,-705.8601 764.3814,-709.7672 764.3814,-709.7672 764.3814,-709.7672 763.5243,-705.8601 767.8978,-708.9958 762.6672,-701.953 762.6672,-701.953"/>
<ellipse fill="none" stroke="#000000" cx="761.9815" cy="-698.8274" rx="3.2" ry="3.2"/>
</g>
<!-- StudentSubjects -->
<g id="node20" class="node">
<title>StudentSubjects</title>
<g id="a_node20"><a xlink:href="../../tables/StudentSubjects.html" xlink:title="StudentSubjects" target="_top">
<polygon fill="#ffffff" stroke="transparent" points="705,-77.8909 705,-138.8909 838,-138.8909 838,-77.8909 705,-77.8909"/>
<polygon fill="#f5f5f5" stroke="transparent" points="705.5,-115.3909 705.5,-138.3909 838.5,-138.3909 838.5,-115.3909 705.5,-115.3909"/>
<polygon fill="none" stroke="#000000" points="705.5,-115.3909 705.5,-138.3909 838.5,-138.3909 838.5,-115.3909 705.5,-115.3909"/>
<text text-anchor="start" x="710.5" y="-123.9909" font-family="Helvetica,sans-Serif" font-weight="bold" font-size="11.00" fill="#000000">StudentSubjects</text>
<text text-anchor="start" x="804.0219" y="-123.4909" font-family="Helvetica,sans-Serif" font-size="11.00" fill="#000000">[table]</text>
<polygon fill="none" stroke="#000000" points="705.5,-96.3909 705.5,-115.3909 838.5,-115.3909 838.5,-96.3909 705.5,-96.3909"/>
<text text-anchor="start" x="708.5" y="-102.4909" font-family="Helvetica,sans-Serif" font-size="11.00" fill="#000000">...</text>
<polygon fill="#ffffff" stroke="transparent" points="705.5,-77.3909 705.5,-96.3909 757.5,-96.3909 757.5,-77.3909 705.5,-77.3909"/>
<polygon fill="none" stroke="#000000" points="705.5,-77.3909 705.5,-96.3909 757.5,-96.3909 757.5,-77.3909 705.5,-77.3909"/>
<text text-anchor="start" x="708.5" y="-83.4909" font-family="Helvetica,sans-Serif" font-size="11.00" fill="#000000">&lt; 4</text>
<polygon fill="#ffffff" stroke="transparent" points="757.5,-77.3909 757.5,-96.3909 810.5,-96.3909 810.5,-77.3909 757.5,-77.3909"/>
<polygon fill="none" stroke="#000000" points="757.5,-77.3909 757.5,-96.3909 810.5,-96.3909 810.5,-77.3909 757.5,-77.3909"/>
<text text-anchor="start" x="775.1105" y="-83.4909" font-family="Helvetica,sans-Serif" font-size="11.00" fill="#000000">0 rows</text>
<polygon fill="#ffffff" stroke="transparent" points="810.5,-77.3909 810.5,-96.3909 838.5,-96.3909 838.5,-77.3909 810.5,-77.3909"/>
<polygon fill="none" stroke="#000000" points="810.5,-77.3909 810.5,-96.3909 838.5,-96.3909 838.5,-77.3909 810.5,-77.3909"/>
<text text-anchor="start" x="829.3862" y="-83.4909" font-family="Helvetica,sans-Serif" font-size="11.00" fill="#000000"> &#160;</text>
</a>
</g>
</g>
<!-- StudentSubjects&#45;&gt;AspNetUsers -->
<g id="edge42" class="edge">
<title>StudentSubjects:w&#45;&gt;AspNetUsers:e</title>
<path fill="none" stroke="#000000" d="M683.0128,-75.2668C551.3144,-35.7328 304.1391,9.7243 163,-120.3909 101.8558,-176.7592 75.0432,-440.6977 67.4126,-536.5586"/>
<polygon fill="#000000" stroke="#000000" points="689.2927,-77.2011 695.8786,-82.9965 693.1155,-78.3785 696.9383,-79.556 696.9383,-79.556 696.9383,-79.556 693.1155,-78.3785 697.998,-76.1155 689.2927,-77.2011 689.2927,-77.2011"/>
<ellipse fill="none" stroke="#000000" cx="686.2345" cy="-76.2591" rx="3.2" ry="3.2"/>
</g>
<!-- StudentSubjects&#45;&gt;AspNetUsers -->
<g id="edge45" class="edge">
<title>StudentSubjects:w&#45;&gt;AspNetUsers:e</title>
<path fill="none" stroke="#000000" d="M683.0128,-83.6238C551.3144,-48.7328 304.1391,-3.2757 163,-133.3909 103.0918,-188.6198 76.1412,-443.112 67.8989,-536.7688"/>
<polygon fill="#000000" stroke="#000000" points="689.2153,-85.2998 695.9992,-90.8621 693.0768,-86.3433 696.9383,-87.3867 696.9383,-87.3867 696.9383,-87.3867 693.0768,-86.3433 697.8774,-83.9114 689.2153,-85.2998 689.2153,-85.2998"/>
<ellipse fill="none" stroke="#000000" cx="686.1261" cy="-84.465" rx="3.2" ry="3.2"/>
</g>
<!-- StudentSubjects&#45;&gt;Students -->
<g id="edge43" class="edge">
<title>StudentSubjects:w&#45;&gt;Students:e</title>
<path fill="none" stroke="#000000" d="M715.2467,-152.7212C693.3892,-172.0514 669.4634,-196.0709 652,-221.3909 617.8372,-270.9231 660.1709,-346.3909 600,-346.3909"/>
<polygon fill="#000000" stroke="#000000" points="720.3866,-148.2851 728.7951,-145.7834 723.4148,-145.6716 726.443,-143.0581 726.443,-143.0581 726.443,-143.0581 723.4148,-145.6716 724.0908,-140.3327 720.3866,-148.2851 720.3866,-148.2851"/>
<ellipse fill="none" stroke="#000000" cx="717.9641" cy="-150.3759" rx="3.2" ry="3.2"/>
</g>
<!-- Subjects -->
<g id="node21" class="node">
<title>Subjects</title>
<g id="a_node21"><a xlink:href="../../tables/Subjects.html" xlink:title="Subjects" target="_top">
<polygon fill="#ffffff" stroke="transparent" points="445.5,-109.8909 445.5,-170.8909 534.5,-170.8909 534.5,-109.8909 445.5,-109.8909"/>
<polygon fill="#f5f5f5" stroke="transparent" points="446,-147.3909 446,-170.3909 535,-170.3909 535,-147.3909 446,-147.3909"/>
<polygon fill="none" stroke="#000000" points="446,-147.3909 446,-170.3909 535,-170.3909 535,-147.3909 446,-147.3909"/>
<text text-anchor="start" x="451" y="-155.9909" font-family="Helvetica,sans-Serif" font-weight="bold" font-size="11.00" fill="#000000">Subjects</text>
<text text-anchor="start" x="500.5219" y="-155.4909" font-family="Helvetica,sans-Serif" font-size="11.00" fill="#000000">[table]</text>
<polygon fill="none" stroke="#000000" points="446,-128.3909 446,-147.3909 535,-147.3909 535,-128.3909 446,-128.3909"/>
<text text-anchor="start" x="449" y="-134.4909" font-family="Helvetica,sans-Serif" font-size="11.00" fill="#000000">...</text>
<polygon fill="#ffffff" stroke="transparent" points="446,-109.3909 446,-128.3909 471,-128.3909 471,-109.3909 446,-109.3909"/>
<polygon fill="none" stroke="#000000" points="446,-109.3909 446,-128.3909 471,-128.3909 471,-109.3909 446,-109.3909"/>
<text text-anchor="start" x="449" y="-115.4909" font-family="Helvetica,sans-Serif" font-size="11.00" fill="#000000">&lt; 4</text>
<polygon fill="#ffffff" stroke="transparent" points="471,-109.3909 471,-128.3909 511,-128.3909 511,-109.3909 471,-109.3909"/>
<polygon fill="none" stroke="#000000" points="471,-109.3909 471,-128.3909 511,-128.3909 511,-109.3909 471,-109.3909"/>
<text text-anchor="start" x="475.6105" y="-115.4909" font-family="Helvetica,sans-Serif" font-size="11.00" fill="#000000">0 rows</text>
<polygon fill="#ffffff" stroke="transparent" points="511,-109.3909 511,-128.3909 535,-128.3909 535,-109.3909 511,-109.3909"/>
<polygon fill="none" stroke="#000000" points="511,-109.3909 511,-128.3909 535,-128.3909 535,-109.3909 511,-109.3909"/>
<text text-anchor="start" x="516.4053" y="-115.4909" font-family="Helvetica,sans-Serif" font-size="11.00" fill="#000000">1 &gt;</text>
</a>
</g>
</g>
<!-- StudentSubjects&#45;&gt;Subjects -->
<g id="edge44" class="edge">
<title>StudentSubjects:w&#45;&gt;Subjects:e</title>
<path fill="none" stroke="#000000" d="M682.6754,-124.4808C638.4478,-131.1638 584.0717,-137.3909 535,-137.3909"/>
<polygon fill="#000000" stroke="#000000" points="689.0559,-123.4862 697.515,-125.8109 693.0082,-122.87 696.9604,-122.2538 696.9604,-122.2538 696.9604,-122.2538 693.0082,-122.87 696.4059,-118.6968 689.0559,-123.4862 689.0559,-123.4862"/>
<ellipse fill="none" stroke="#000000" cx="685.8941" cy="-123.9791" rx="3.2" ry="3.2"/>
</g>
<!-- Subjects&#45;&gt;AspNetUsers -->
<g id="edge46" class="edge">
<title>Subjects:w&#45;&gt;AspNetUsers:e</title>
<path fill="none" stroke="#000000" d="M431.3458,-136.5484C313.56,-128.5738 253.1077,-96.2699 163,-179.3909 110.4015,-227.9111 78.7899,-450.341 68.6156,-536.8844"/>
<polygon fill="#000000" stroke="#000000" points="438.0132,-136.9316 445.7933,-140.9849 442.0066,-137.1613 446,-137.3909 446,-137.3909 446,-137.3909 442.0066,-137.1613 446.2067,-133.7968 438.0132,-136.9316 438.0132,-136.9316"/>
<ellipse fill="none" stroke="#000000" cx="434.8185" cy="-136.7479" rx="3.2" ry="3.2"/>
</g>
<!-- Subjects&#45;&gt;AspNetUsers -->
<g id="edge49" class="edge">
<title>Subjects:w&#45;&gt;AspNetUsers:e</title>
<path fill="none" stroke="#000000" d="M431.3458,-138.0131C313.56,-141.5738 253.1077,-109.2699 163,-192.3909 111.7355,-239.6805 80.4069,-452.1702 69.4311,-536.6794"/>
<polygon fill="#000000" stroke="#000000" points="438.0072,-137.7303 446.1527,-140.9876 442.0036,-137.5606 446,-137.3909 446,-137.3909 446,-137.3909 442.0036,-137.5606 445.8473,-133.7941 438.0072,-137.7303 438.0072,-137.7303"/>
<ellipse fill="none" stroke="#000000" cx="434.8101" cy="-137.8661" rx="3.2" ry="3.2"/>
</g>
<!-- Subjects&#45;&gt;TechnicalCareers -->
<g id="edge48" class="edge">
<title>Subjects:w&#45;&gt;TechnicalCareers:e</title>
<path fill="none" stroke="#000000" d="M431.4083,-138.102C319.3418,-149.6669 389.6276,-299.8756 328,-411.3909 318.4854,-428.6076 304.1654,-444.513 290.1135,-457.5879"/>
<polygon fill="#000000" stroke="#000000" points="438.0095,-137.7803 446.1753,-140.9866 442.0047,-137.5856 446,-137.3909 446,-137.3909 446,-137.3909 442.0047,-137.5856 445.8247,-133.7951 438.0095,-137.7803 438.0095,-137.7803"/>
<ellipse fill="none" stroke="#000000" cx="434.8133" cy="-137.9361" rx="3.2" ry="3.2"/>
</g>
<!-- Subjects&#45;&gt;Professors -->
<g id="edge47" class="edge">
<title>Subjects:w&#45;&gt;Professors:e</title>
<path fill="none" stroke="#000000" d="M431.581,-138.643C382.0107,-148.078 394.1715,-209.0452 361,-260.3909 330.868,-307.0317 352.0275,-367.3909 296.5,-367.3909"/>
<polygon fill="#000000" stroke="#000000" points="438.03,-138.083 446.3115,-140.9774 442.015,-137.737 446,-137.3909 446,-137.3909 446,-137.3909 442.015,-137.737 445.6885,-133.8044 438.03,-138.083 438.03,-138.083"/>
<ellipse fill="none" stroke="#000000" cx="434.842" cy="-138.3599" rx="3.2" ry="3.2"/>
</g>
</g>
</svg>
