<?xml version="1.0" encoding="UTF-8" standalone="no"?>
<!DOCTYPE svg PUBLIC "-//W3C//DTD SVG 1.1//EN"
 "http://www.w3.org/Graphics/SVG/1.1/DTD/svg11.dtd">
<!-- Generated by graphviz version 2.40.1 (20161225.0304)
 -->
<!-- Title: twoDegreesRelationshipsDiagram Pages: 1 -->
<svg width="1103pt" height="1113pt"
 viewBox="0.00 0.00 1103.00 1112.61" xmlns="http://www.w3.org/2000/svg" xmlns:xlink="http://www.w3.org/1999/xlink">
<g id="graph0" class="graph" transform="scale(1 1) rotate(0) translate(4 1108.6132)">
<title>twoDegreesRelationshipsDiagram</title>
<polygon fill="#ffffff" stroke="transparent" points="-4,4 -4,-1108.6132 1099,-1108.6132 1099,4 -4,4"/>
<text text-anchor="middle" x="72.4936" y="-7.3" font-family="Helvetica,sans-Serif" font-size="11.00" fill="#000000">Generated by SchemaSpy</text>
<!-- AspNetUserClaims -->
<g id="node1" class="node">
<title>AspNetUserClaims</title>
<g id="a_node1"><a xlink:href="../../tables/AspNetUserClaims.html" xlink:title="AspNetUserClaims" target="_top">
<polygon fill="#ffffff" stroke="transparent" points="172,-1039.6132 172,-1100.6132 319,-1100.6132 319,-1039.6132 172,-1039.6132"/>
<polygon fill="#f5f5f5" stroke="transparent" points="172.5,-1077.1132 172.5,-1100.1132 319.5,-1100.1132 319.5,-1077.1132 172.5,-1077.1132"/>
<polygon fill="none" stroke="#000000" points="172.5,-1077.1132 172.5,-1100.1132 319.5,-1100.1132 319.5,-1077.1132 172.5,-1077.1132"/>
<text text-anchor="start" x="177.5" y="-1085.7132" font-family="Helvetica,sans-Serif" font-weight="bold" font-size="11.00" fill="#000000">AspNetUserClaims</text>
<text text-anchor="start" x="285.0219" y="-1085.2132" font-family="Helvetica,sans-Serif" font-size="11.00" fill="#000000">[table]</text>
<polygon fill="none" stroke="#000000" points="172.5,-1058.1132 172.5,-1077.1132 319.5,-1077.1132 319.5,-1058.1132 172.5,-1058.1132"/>
<text text-anchor="start" x="175.5" y="-1064.2132" font-family="Helvetica,sans-Serif" font-size="11.00" fill="#000000">...</text>
<polygon fill="#ffffff" stroke="transparent" points="172.5,-1039.1132 172.5,-1058.1132 231.5,-1058.1132 231.5,-1039.1132 172.5,-1039.1132"/>
<polygon fill="none" stroke="#000000" points="172.5,-1039.1132 172.5,-1058.1132 231.5,-1058.1132 231.5,-1039.1132 172.5,-1039.1132"/>
<text text-anchor="start" x="175.5" y="-1045.2132" font-family="Helvetica,sans-Serif" font-size="11.00" fill="#000000">&lt; 1</text>
<polygon fill="#ffffff" stroke="transparent" points="231.5,-1039.1132 231.5,-1058.1132 288.5,-1058.1132 288.5,-1039.1132 231.5,-1039.1132"/>
<polygon fill="none" stroke="#000000" points="231.5,-1039.1132 231.5,-1058.1132 288.5,-1058.1132 288.5,-1039.1132 231.5,-1039.1132"/>
<text text-anchor="start" x="253.1105" y="-1045.2132" font-family="Helvetica,sans-Serif" font-size="11.00" fill="#000000">0 rows</text>
<polygon fill="#ffffff" stroke="transparent" points="288.5,-1039.1132 288.5,-1058.1132 319.5,-1058.1132 319.5,-1039.1132 288.5,-1039.1132"/>
<polygon fill="none" stroke="#000000" points="288.5,-1039.1132 288.5,-1058.1132 319.5,-1058.1132 319.5,-1039.1132 288.5,-1039.1132"/>
<text text-anchor="start" x="310.3862" y="-1045.2132" font-family="Helvetica,sans-Serif" font-size="11.00" fill="#000000"> &#160;</text>
</a>
</g>
</g>
<!-- AspNetUsers -->
<g id="node2" class="node">
<title>AspNetUsers</title>
<g id="a_node2"><a xlink:href="../../tables/AspNetUsers.html" xlink:title="AspNetUsers" target="_top">
<polygon fill="#ffffff" stroke="transparent" points="8,-493.6132 8,-554.6132 122,-554.6132 122,-493.6132 8,-493.6132"/>
<polygon fill="#f5f5f5" stroke="transparent" points="8,-531.1132 8,-554.1132 122,-554.1132 122,-531.1132 8,-531.1132"/>
<polygon fill="none" stroke="#000000" points="8,-531.1132 8,-554.1132 122,-554.1132 122,-531.1132 8,-531.1132"/>
<text text-anchor="start" x="13" y="-539.7132" font-family="Helvetica,sans-Serif" font-weight="bold" font-size="11.00" fill="#000000">AspNetUsers</text>
<text text-anchor="start" x="87.5219" y="-539.2132" font-family="Helvetica,sans-Serif" font-size="11.00" fill="#000000">[table]</text>
<polygon fill="none" stroke="#000000" points="8,-512.1132 8,-531.1132 122,-531.1132 122,-512.1132 8,-512.1132"/>
<text text-anchor="start" x="11" y="-518.2132" font-family="Helvetica,sans-Serif" font-size="11.00" fill="#000000">...</text>
<polygon fill="#ffffff" stroke="transparent" points="8,-493.1132 8,-512.1132 38,-512.1132 38,-493.1132 8,-493.1132"/>
<polygon fill="none" stroke="#000000" points="8,-493.1132 8,-512.1132 38,-512.1132 38,-493.1132 8,-493.1132"/>
<text text-anchor="start" x="11" y="-499.2132" font-family="Helvetica,sans-Serif" font-size="11.00" fill="#000000"> &#160;</text>
<polygon fill="#ffffff" stroke="transparent" points="38,-493.1132 38,-512.1132 85,-512.1132 85,-493.1132 38,-493.1132"/>
<polygon fill="none" stroke="#000000" points="38,-493.1132 38,-512.1132 85,-512.1132 85,-493.1132 38,-493.1132"/>
<text text-anchor="start" x="49.6105" y="-499.2132" font-family="Helvetica,sans-Serif" font-size="11.00" fill="#000000">0 rows</text>
<polygon fill="#ffffff" stroke="transparent" points="85,-493.1132 85,-512.1132 122,-512.1132 122,-493.1132 85,-493.1132"/>
<polygon fill="none" stroke="#000000" points="85,-493.1132 85,-512.1132 122,-512.1132 122,-493.1132 85,-493.1132"/>
<text text-anchor="start" x="97.2904" y="-499.2132" font-family="Helvetica,sans-Serif" font-size="11.00" fill="#000000">29 &gt;</text>
</a>
</g>
</g>
<!-- AspNetUserClaims&#45;&gt;AspNetUsers -->
<g id="edge1" class="edge">
<title>AspNetUserClaims:w&#45;&gt;AspNetUsers:e</title>
<path fill="none" stroke="#000000" d="M159.9337,-1059.6358C113.9705,-1005.2045 78.6289,-668.921 68.1731,-558.9063"/>
<polygon fill="#000000" stroke="#000000" points="165.625,-1063.0223 170.6591,-1070.2069 169.0625,-1065.0677 172.5,-1067.1132 172.5,-1067.1132 172.5,-1067.1132 169.0625,-1065.0677 174.3409,-1064.0194 165.625,-1063.0223 165.625,-1063.0223"/>
<ellipse fill="none" stroke="#000000" cx="162.875" cy="-1061.3859" rx="3.2" ry="3.2"/>
</g>
<!-- AspNetUserLogins -->
<g id="node3" class="node">
<title>AspNetUserLogins</title>
<g id="a_node3"><a xlink:href="../../tables/AspNetUserLogins.html" xlink:title="AspNetUserLogins" target="_top">
<polygon fill="#ffffff" stroke="transparent" points="172,-957.6132 172,-1018.6132 319,-1018.6132 319,-957.6132 172,-957.6132"/>
<polygon fill="#f5f5f5" stroke="transparent" points="172.5,-995.1132 172.5,-1018.1132 319.5,-1018.1132 319.5,-995.1132 172.5,-995.1132"/>
<polygon fill="none" stroke="#000000" points="172.5,-995.1132 172.5,-1018.1132 319.5,-1018.1132 319.5,-995.1132 172.5,-995.1132"/>
<text text-anchor="start" x="177.5" y="-1003.7132" font-family="Helvetica,sans-Serif" font-weight="bold" font-size="11.00" fill="#000000">AspNetUserLogins</text>
<text text-anchor="start" x="285.0219" y="-1003.2132" font-family="Helvetica,sans-Serif" font-size="11.00" fill="#000000">[table]</text>
<polygon fill="none" stroke="#000000" points="172.5,-976.1132 172.5,-995.1132 319.5,-995.1132 319.5,-976.1132 172.5,-976.1132"/>
<text text-anchor="start" x="175.5" y="-982.2132" font-family="Helvetica,sans-Serif" font-size="11.00" fill="#000000">...</text>
<polygon fill="#ffffff" stroke="transparent" points="172.5,-957.1132 172.5,-976.1132 231.5,-976.1132 231.5,-957.1132 172.5,-957.1132"/>
<polygon fill="none" stroke="#000000" points="172.5,-957.1132 172.5,-976.1132 231.5,-976.1132 231.5,-957.1132 172.5,-957.1132"/>
<text text-anchor="start" x="175.5" y="-963.2132" font-family="Helvetica,sans-Serif" font-size="11.00" fill="#000000">&lt; 1</text>
<polygon fill="#ffffff" stroke="transparent" points="231.5,-957.1132 231.5,-976.1132 288.5,-976.1132 288.5,-957.1132 231.5,-957.1132"/>
<polygon fill="none" stroke="#000000" points="231.5,-957.1132 231.5,-976.1132 288.5,-976.1132 288.5,-957.1132 231.5,-957.1132"/>
<text text-anchor="start" x="253.1105" y="-963.2132" font-family="Helvetica,sans-Serif" font-size="11.00" fill="#000000">0 rows</text>
<polygon fill="#ffffff" stroke="transparent" points="288.5,-957.1132 288.5,-976.1132 319.5,-976.1132 319.5,-957.1132 288.5,-957.1132"/>
<polygon fill="none" stroke="#000000" points="288.5,-957.1132 288.5,-976.1132 319.5,-976.1132 319.5,-957.1132 288.5,-957.1132"/>
<text text-anchor="start" x="310.3862" y="-963.2132" font-family="Helvetica,sans-Serif" font-size="11.00" fill="#000000"> &#160;</text>
</a>
</g>
</g>
<!-- AspNetUserLogins&#45;&gt;AspNetUsers -->
<g id="edge2" class="edge">
<title>AspNetUserLogins:w&#45;&gt;AspNetUsers:e</title>
<path fill="none" stroke="#000000" d="M158.3028,-982.1381C83.1726,-949.6406 68.5076,-659.9014 65.6719,-558.7631"/>
<polygon fill="#000000" stroke="#000000" points="164.6701,-983.4723 171.7616,-988.6366 168.585,-984.2927 172.5,-985.1132 172.5,-985.1132 172.5,-985.1132 168.585,-984.2927 173.2384,-981.5897 164.6701,-983.4723 164.6701,-983.4723"/>
<ellipse fill="none" stroke="#000000" cx="161.5381" cy="-982.816" rx="3.2" ry="3.2"/>
</g>
<!-- AspNetUserRoles -->
<g id="node4" class="node">
<title>AspNetUserRoles</title>
<g id="a_node4"><a xlink:href="../../tables/AspNetUserRoles.html" xlink:title="AspNetUserRoles" target="_top">
<polygon fill="#ffffff" stroke="transparent" points="175.5,-875.6132 175.5,-936.6132 315.5,-936.6132 315.5,-875.6132 175.5,-875.6132"/>
<polygon fill="#f5f5f5" stroke="transparent" points="175.5,-913.1132 175.5,-936.1132 315.5,-936.1132 315.5,-913.1132 175.5,-913.1132"/>
<polygon fill="none" stroke="#000000" points="175.5,-913.1132 175.5,-936.1132 315.5,-936.1132 315.5,-913.1132 175.5,-913.1132"/>
<text text-anchor="start" x="180.5" y="-921.7132" font-family="Helvetica,sans-Serif" font-weight="bold" font-size="11.00" fill="#000000">AspNetUserRoles</text>
<text text-anchor="start" x="281.0219" y="-921.2132" font-family="Helvetica,sans-Serif" font-size="11.00" fill="#000000">[table]</text>
<polygon fill="none" stroke="#000000" points="175.5,-894.1132 175.5,-913.1132 315.5,-913.1132 315.5,-894.1132 175.5,-894.1132"/>
<text text-anchor="start" x="178.5" y="-900.2132" font-family="Helvetica,sans-Serif" font-size="11.00" fill="#000000">...</text>
<polygon fill="#ffffff" stroke="transparent" points="175.5,-875.1132 175.5,-894.1132 230.5,-894.1132 230.5,-875.1132 175.5,-875.1132"/>
<polygon fill="none" stroke="#000000" points="175.5,-875.1132 175.5,-894.1132 230.5,-894.1132 230.5,-875.1132 175.5,-875.1132"/>
<text text-anchor="start" x="178.5" y="-881.2132" font-family="Helvetica,sans-Serif" font-size="11.00" fill="#000000">&lt; 2</text>
<polygon fill="#ffffff" stroke="transparent" points="230.5,-875.1132 230.5,-894.1132 285.5,-894.1132 285.5,-875.1132 230.5,-875.1132"/>
<polygon fill="none" stroke="#000000" points="230.5,-875.1132 230.5,-894.1132 285.5,-894.1132 285.5,-875.1132 230.5,-875.1132"/>
<text text-anchor="start" x="250.1105" y="-881.2132" font-family="Helvetica,sans-Serif" font-size="11.00" fill="#000000">0 rows</text>
<polygon fill="#ffffff" stroke="transparent" points="285.5,-875.1132 285.5,-894.1132 315.5,-894.1132 315.5,-875.1132 285.5,-875.1132"/>
<polygon fill="none" stroke="#000000" points="285.5,-875.1132 285.5,-894.1132 315.5,-894.1132 315.5,-875.1132 285.5,-875.1132"/>
<text text-anchor="start" x="306.3862" y="-881.2132" font-family="Helvetica,sans-Serif" font-size="11.00" fill="#000000"> &#160;</text>
</a>
</g>
</g>
<!-- AspNetUserRoles&#45;&gt;AspNetUsers -->
<g id="edge3" class="edge">
<title>AspNetUserRoles:w&#45;&gt;AspNetUsers:e</title>
<path fill="none" stroke="#000000" d="M161.4599,-899.7275C100.3493,-869.5587 75.2006,-645.9164 67.6505,-558.7516"/>
<polygon fill="#000000" stroke="#000000" points="167.7229,-901.2377 174.6561,-906.6128 171.6115,-902.1755 175.5,-903.1132 175.5,-903.1132 175.5,-903.1132 171.6115,-902.1755 176.3439,-899.6135 167.7229,-901.2377 167.7229,-901.2377"/>
<ellipse fill="none" stroke="#000000" cx="164.6121" cy="-900.4876" rx="3.2" ry="3.2"/>
</g>
<!-- AspNetUserTokens -->
<g id="node5" class="node">
<title>AspNetUserTokens</title>
<g id="a_node5"><a xlink:href="../../tables/AspNetUserTokens.html" xlink:title="AspNetUserTokens" target="_top">
<polygon fill="#ffffff" stroke="transparent" points="171,-793.6132 171,-854.6132 320,-854.6132 320,-793.6132 171,-793.6132"/>
<polygon fill="#f5f5f5" stroke="transparent" points="171.5,-831.1132 171.5,-854.1132 320.5,-854.1132 320.5,-831.1132 171.5,-831.1132"/>
<polygon fill="none" stroke="#000000" points="171.5,-831.1132 171.5,-854.1132 320.5,-854.1132 320.5,-831.1132 171.5,-831.1132"/>
<text text-anchor="start" x="176.5" y="-839.7132" font-family="Helvetica,sans-Serif" font-weight="bold" font-size="11.00" fill="#000000">AspNetUserTokens</text>
<text text-anchor="start" x="286.0219" y="-839.2132" font-family="Helvetica,sans-Serif" font-size="11.00" fill="#000000">[table]</text>
<polygon fill="none" stroke="#000000" points="171.5,-812.1132 171.5,-831.1132 320.5,-831.1132 320.5,-812.1132 171.5,-812.1132"/>
<text text-anchor="start" x="174.5" y="-818.2132" font-family="Helvetica,sans-Serif" font-size="11.00" fill="#000000">...</text>
<polygon fill="#ffffff" stroke="transparent" points="171.5,-793.1132 171.5,-812.1132 231.5,-812.1132 231.5,-793.1132 171.5,-793.1132"/>
<polygon fill="none" stroke="#000000" points="171.5,-793.1132 171.5,-812.1132 231.5,-812.1132 231.5,-793.1132 171.5,-793.1132"/>
<text text-anchor="start" x="174.5" y="-799.2132" font-family="Helvetica,sans-Serif" font-size="11.00" fill="#000000">&lt; 1</text>
<polygon fill="#ffffff" stroke="transparent" points="231.5,-793.1132 231.5,-812.1132 288.5,-812.1132 288.5,-793.1132 231.5,-793.1132"/>
<polygon fill="none" stroke="#000000" points="231.5,-793.1132 231.5,-812.1132 288.5,-812.1132 288.5,-793.1132 231.5,-793.1132"/>
<text text-anchor="start" x="253.1105" y="-799.2132" font-family="Helvetica,sans-Serif" font-size="11.00" fill="#000000">0 rows</text>
<polygon fill="#ffffff" stroke="transparent" points="288.5,-793.1132 288.5,-812.1132 320.5,-812.1132 320.5,-793.1132 288.5,-793.1132"/>
<polygon fill="none" stroke="#000000" points="288.5,-793.1132 288.5,-812.1132 320.5,-812.1132 320.5,-793.1132 288.5,-793.1132"/>
<text text-anchor="start" x="311.3862" y="-799.2132" font-family="Helvetica,sans-Serif" font-size="11.00" fill="#000000"> &#160;</text>
</a>
</g>
</g>
<!-- AspNetUserTokens&#45;&gt;AspNetUsers -->
<g id="edge4" class="edge">
<title>AspNetUserTokens:w&#45;&gt;AspNetUsers:e</title>
<path fill="none" stroke="#000000" d="M157.4336,-817.0457C110.4555,-789.5849 80.9574,-630.2236 69.9216,-558.7641"/>
<polygon fill="#000000" stroke="#000000" points="163.8148,-818.8909 170.5,-824.5715 167.6574,-820.002 171.5,-821.1132 171.5,-821.1132 171.5,-821.1132 167.6574,-820.002 172.5,-817.6548 163.8148,-818.8909 163.8148,-818.8909"/>
<ellipse fill="none" stroke="#000000" cx="160.7408" cy="-818.0019" rx="3.2" ry="3.2"/>
</g>
<!-- Competencies -->
<g id="node6" class="node">
<title>Competencies</title>
<g id="a_node6"><a xlink:href="../../tables/Competencies.html" xlink:title="Competencies" target="_top">
<polygon fill="#ffffff" stroke="transparent" points="185,-593.6132 185,-654.6132 306,-654.6132 306,-593.6132 185,-593.6132"/>
<polygon fill="#f5f5f5" stroke="transparent" points="185.5,-631.1132 185.5,-654.1132 306.5,-654.1132 306.5,-631.1132 185.5,-631.1132"/>
<polygon fill="none" stroke="#000000" points="185.5,-631.1132 185.5,-654.1132 306.5,-654.1132 306.5,-631.1132 185.5,-631.1132"/>
<text text-anchor="start" x="190.5" y="-639.7132" font-family="Helvetica,sans-Serif" font-weight="bold" font-size="11.00" fill="#000000">Competencies</text>
<text text-anchor="start" x="272.0219" y="-639.2132" font-family="Helvetica,sans-Serif" font-size="11.00" fill="#000000">[table]</text>
<polygon fill="none" stroke="#000000" points="185.5,-612.1132 185.5,-631.1132 306.5,-631.1132 306.5,-612.1132 185.5,-612.1132"/>
<text text-anchor="start" x="188.5" y="-618.2132" font-family="Helvetica,sans-Serif" font-size="11.00" fill="#000000">...</text>
<polygon fill="#ffffff" stroke="transparent" points="185.5,-593.1132 185.5,-612.1132 226.5,-612.1132 226.5,-593.1132 185.5,-593.1132"/>
<polygon fill="none" stroke="#000000" points="185.5,-593.1132 185.5,-612.1132 226.5,-612.1132 226.5,-593.1132 185.5,-593.1132"/>
<text text-anchor="start" x="188.5" y="-599.2132" font-family="Helvetica,sans-Serif" font-size="11.00" fill="#000000">&lt; 2</text>
<polygon fill="#ffffff" stroke="transparent" points="226.5,-593.1132 226.5,-612.1132 274.5,-612.1132 274.5,-593.1132 226.5,-593.1132"/>
<polygon fill="none" stroke="#000000" points="226.5,-593.1132 226.5,-612.1132 274.5,-612.1132 274.5,-593.1132 226.5,-593.1132"/>
<text text-anchor="start" x="239.1105" y="-599.2132" font-family="Helvetica,sans-Serif" font-size="11.00" fill="#000000">0 rows</text>
<polygon fill="#ffffff" stroke="transparent" points="274.5,-593.1132 274.5,-612.1132 306.5,-612.1132 306.5,-593.1132 274.5,-593.1132"/>
<polygon fill="none" stroke="#000000" points="274.5,-593.1132 274.5,-612.1132 306.5,-612.1132 306.5,-593.1132 274.5,-593.1132"/>
<text text-anchor="start" x="287.9053" y="-599.2132" font-family="Helvetica,sans-Serif" font-size="11.00" fill="#000000">4 &gt;</text>
</a>
</g>
</g>
<!-- Competencies&#45;&gt;AspNetUsers -->
<g id="edge5" class="edge">
<title>Competencies:w&#45;&gt;AspNetUsers:e</title>
<path fill="none" stroke="#000000" d="M171.2135,-618.5522C138.5279,-609.7236 110.5878,-582.0359 91.5794,-558.8619"/>
<polygon fill="#000000" stroke="#000000" points="177.6255,-619.7016 184.8648,-624.6567 181.5628,-620.4074 185.5,-621.1132 185.5,-621.1132 185.5,-621.1132 181.5628,-620.4074 186.1352,-617.5696 177.6255,-619.7016 177.6255,-619.7016"/>
<ellipse fill="none" stroke="#000000" cx="174.4757" cy="-619.1369" rx="3.2" ry="3.2"/>
</g>
<!-- Competencies&#45;&gt;AspNetUsers -->
<g id="edge6" class="edge">
<title>Competencies:w&#45;&gt;AspNetUsers:e</title>
<path fill="none" stroke="#000000" d="M170.9894,-621.0867C133.8792,-617.2072 102.9068,-584.9608 84.2111,-558.623"/>
<polygon fill="#000000" stroke="#000000" points="177.5,-621.0985 185.4934,-624.7132 181.5,-621.1058 185.5,-621.1132 185.5,-621.1132 185.5,-621.1132 181.5,-621.1058 185.5066,-617.5132 177.5,-621.0985 177.5,-621.0985"/>
<ellipse fill="none" stroke="#000000" cx="174.3" cy="-621.0927" rx="3.2" ry="3.2"/>
</g>
<!-- CompetencyLevelDescriptions -->
<g id="node7" class="node">
<title>CompetencyLevelDescriptions</title>
<g id="a_node7"><a xlink:href="../../tables/CompetencyLevelDescriptions.html" xlink:title="CompetencyLevelDescriptions" target="_top">
<polygon fill="#ffffff" stroke="transparent" points="383,-754.6132 383,-815.6132 597,-815.6132 597,-754.6132 383,-754.6132"/>
<polygon fill="#f5f5f5" stroke="transparent" points="383,-792.1132 383,-815.1132 597,-815.1132 597,-792.1132 383,-792.1132"/>
<polygon fill="none" stroke="#000000" points="383,-792.1132 383,-815.1132 597,-815.1132 597,-792.1132 383,-792.1132"/>
<text text-anchor="start" x="388" y="-800.7132" font-family="Helvetica,sans-Serif" font-weight="bold" font-size="11.00" fill="#000000">CompetencyLevelDescriptions</text>
<text text-anchor="start" x="562.5219" y="-800.2132" font-family="Helvetica,sans-Serif" font-size="11.00" fill="#000000">[table]</text>
<polygon fill="none" stroke="#000000" points="383,-773.1132 383,-792.1132 597,-792.1132 597,-773.1132 383,-773.1132"/>
<text text-anchor="start" x="386" y="-779.2132" font-family="Helvetica,sans-Serif" font-size="11.00" fill="#000000">...</text>
<polygon fill="#ffffff" stroke="transparent" points="383,-754.1132 383,-773.1132 475,-773.1132 475,-754.1132 383,-754.1132"/>
<polygon fill="none" stroke="#000000" points="383,-754.1132 383,-773.1132 475,-773.1132 475,-754.1132 383,-754.1132"/>
<text text-anchor="start" x="386" y="-760.2132" font-family="Helvetica,sans-Serif" font-size="11.00" fill="#000000">&lt; 3</text>
<polygon fill="#ffffff" stroke="transparent" points="475,-754.1132 475,-773.1132 549,-773.1132 549,-754.1132 475,-754.1132"/>
<polygon fill="none" stroke="#000000" points="475,-754.1132 475,-773.1132 549,-773.1132 549,-754.1132 475,-754.1132"/>
<text text-anchor="start" x="513.6105" y="-760.2132" font-family="Helvetica,sans-Serif" font-size="11.00" fill="#000000">0 rows</text>
<polygon fill="#ffffff" stroke="transparent" points="549,-754.1132 549,-773.1132 597,-773.1132 597,-754.1132 549,-754.1132"/>
<polygon fill="none" stroke="#000000" points="549,-754.1132 549,-773.1132 597,-773.1132 597,-754.1132 549,-754.1132"/>
<text text-anchor="start" x="587.8862" y="-760.2132" font-family="Helvetica,sans-Serif" font-size="11.00" fill="#000000"> &#160;</text>
</a>
</g>
</g>
<!-- CompetencyLevelDescriptions&#45;&gt;AspNetUsers -->
<g id="edge8" class="edge">
<title>CompetencyLevelDescriptions:w&#45;&gt;AspNetUsers:e</title>
<path fill="none" stroke="#000000" d="M368.476,-780.4415C311.3721,-774.0404 198.7512,-762.2487 163,-734.1132 106.6936,-689.801 81.6552,-605.9391 71.392,-558.6454"/>
<polygon fill="#000000" stroke="#000000" points="375.0525,-781.1984 382.5884,-785.6895 379.0262,-781.6558 383,-782.1132 383,-782.1132 383,-782.1132 379.0262,-781.6558 383.4116,-778.5368 375.0525,-781.1984 375.0525,-781.1984"/>
<ellipse fill="none" stroke="#000000" cx="371.8735" cy="-780.8325" rx="3.2" ry="3.2"/>
</g>
<!-- CompetencyLevelDescriptions&#45;&gt;AspNetUsers -->
<g id="edge9" class="edge">
<title>CompetencyLevelDescriptions:w&#45;&gt;AspNetUsers:e</title>
<path fill="none" stroke="#000000" d="M368.476,-783.5133C311.3721,-787.0404 198.7512,-775.2487 163,-747.1132 103.2959,-700.127 78.7472,-608.6738 69.6917,-558.6334"/>
<polygon fill="#000000" stroke="#000000" points="375.0369,-782.8809 383.3455,-785.6965 379.0185,-782.497 383,-782.1132 383,-782.1132 383,-782.1132 379.0185,-782.497 382.6545,-778.5298 375.0369,-782.8809 375.0369,-782.8809"/>
<ellipse fill="none" stroke="#000000" cx="371.8517" cy="-783.188" rx="3.2" ry="3.2"/>
</g>
<!-- CompetencyLevelDescriptions&#45;&gt;Competencies -->
<g id="edge7" class="edge">
<title>CompetencyLevelDescriptions:w&#45;&gt;Competencies:e</title>
<path fill="none" stroke="#000000" d="M368.5673,-779.8372C314.5043,-760.2685 380.1521,-621.1132 306.5,-621.1132"/>
<polygon fill="#000000" stroke="#000000" points="375.0977,-780.867 382.4392,-785.6692 379.0488,-781.4901 383,-782.1132 383,-782.1132 383,-782.1132 379.0488,-781.4901 383.5608,-778.5571 375.0977,-780.867 375.0977,-780.867"/>
<ellipse fill="none" stroke="#000000" cx="371.9367" cy="-780.3685" rx="3.2" ry="3.2"/>
</g>
<!-- Coordinators -->
<g id="node8" class="node">
<title>Coordinators</title>
<g id="a_node8"><a xlink:href="../../tables/Coordinators.html" xlink:title="Coordinators" target="_top">
<polygon fill="#ffffff" stroke="transparent" points="433,-256.6132 433,-317.6132 547,-317.6132 547,-256.6132 433,-256.6132"/>
<polygon fill="#f5f5f5" stroke="transparent" points="433,-294.1132 433,-317.1132 547,-317.1132 547,-294.1132 433,-294.1132"/>
<polygon fill="none" stroke="#000000" points="433,-294.1132 433,-317.1132 547,-317.1132 547,-294.1132 433,-294.1132"/>
<text text-anchor="start" x="438" y="-302.7132" font-family="Helvetica,sans-Serif" font-weight="bold" font-size="11.00" fill="#000000">Coordinators</text>
<text text-anchor="start" x="512.5219" y="-302.2132" font-family="Helvetica,sans-Serif" font-size="11.00" fill="#000000">[table]</text>
<polygon fill="none" stroke="#000000" points="433,-275.1132 433,-294.1132 547,-294.1132 547,-275.1132 433,-275.1132"/>
<text text-anchor="start" x="436" y="-281.2132" font-family="Helvetica,sans-Serif" font-size="11.00" fill="#000000">...</text>
<polygon fill="#ffffff" stroke="transparent" points="433,-256.1132 433,-275.1132 475,-275.1132 475,-256.1132 433,-256.1132"/>
<polygon fill="none" stroke="#000000" points="433,-256.1132 433,-275.1132 475,-275.1132 475,-256.1132 433,-256.1132"/>
<text text-anchor="start" x="436" y="-262.2132" font-family="Helvetica,sans-Serif" font-size="11.00" fill="#000000">&lt; 2</text>
<polygon fill="#ffffff" stroke="transparent" points="475,-256.1132 475,-275.1132 524,-275.1132 524,-256.1132 475,-256.1132"/>
<polygon fill="none" stroke="#000000" points="475,-256.1132 475,-275.1132 524,-275.1132 524,-256.1132 475,-256.1132"/>
<text text-anchor="start" x="488.6105" y="-262.2132" font-family="Helvetica,sans-Serif" font-size="11.00" fill="#000000">0 rows</text>
<polygon fill="#ffffff" stroke="transparent" points="524,-256.1132 524,-275.1132 547,-275.1132 547,-256.1132 524,-256.1132"/>
<polygon fill="none" stroke="#000000" points="524,-256.1132 524,-275.1132 547,-275.1132 547,-256.1132 524,-256.1132"/>
<text text-anchor="start" x="537.8862" y="-262.2132" font-family="Helvetica,sans-Serif" font-size="11.00" fill="#000000"> &#160;</text>
</a>
</g>
</g>
<!-- Coordinators&#45;&gt;AspNetUsers -->
<g id="edge11" class="edge">
<title>Coordinators:w&#45;&gt;AspNetUsers:e</title>
<path fill="none" stroke="#000000" d="M422.7505,-282.2868C394.6601,-273.4758 350.5132,-235.563 328,-230.1132 256.7253,-212.8594 222.4911,-187.2344 163,-230.1132 120.0077,-261.1002 85.1498,-418.4967 71.366,-489.4007"/>
<polygon fill="#000000" stroke="#000000" points="432.9142,-280.0348 431.5107,-287.9108 429.9355,-287.6301 431.339,-279.7541 432.9142,-280.0348"/>
<polyline fill="none" stroke="#000000" points="433,-284.1132 429.062,-283.4114 "/>
<ellipse fill="none" stroke="#000000" cx="425.9117" cy="-282.85" rx="3.2" ry="3.2"/>
</g>
<!-- TechnicalCareers -->
<g id="node9" class="node">
<title>TechnicalCareers</title>
<g id="a_node9"><a xlink:href="../../tables/TechnicalCareers.html" xlink:title="TechnicalCareers" target="_top">
<polygon fill="#ffffff" stroke="transparent" points="176,-240.6132 176,-301.6132 315,-301.6132 315,-240.6132 176,-240.6132"/>
<polygon fill="#f5f5f5" stroke="transparent" points="176.5,-278.1132 176.5,-301.1132 315.5,-301.1132 315.5,-278.1132 176.5,-278.1132"/>
<polygon fill="none" stroke="#000000" points="176.5,-278.1132 176.5,-301.1132 315.5,-301.1132 315.5,-278.1132 176.5,-278.1132"/>
<text text-anchor="start" x="181.5" y="-286.7132" font-family="Helvetica,sans-Serif" font-weight="bold" font-size="11.00" fill="#000000">TechnicalCareers</text>
<text text-anchor="start" x="281.0219" y="-286.2132" font-family="Helvetica,sans-Serif" font-size="11.00" fill="#000000">[table]</text>
<polygon fill="none" stroke="#000000" points="176.5,-259.1132 176.5,-278.1132 315.5,-278.1132 315.5,-259.1132 176.5,-259.1132"/>
<text text-anchor="start" x="179.5" y="-265.2132" font-family="Helvetica,sans-Serif" font-size="11.00" fill="#000000">...</text>
<polygon fill="#ffffff" stroke="transparent" points="176.5,-240.1132 176.5,-259.1132 226.5,-259.1132 226.5,-240.1132 176.5,-240.1132"/>
<polygon fill="none" stroke="#000000" points="176.5,-240.1132 176.5,-259.1132 226.5,-259.1132 226.5,-240.1132 176.5,-240.1132"/>
<text text-anchor="start" x="179.5" y="-246.2132" font-family="Helvetica,sans-Serif" font-size="11.00" fill="#000000">&lt; 2</text>
<polygon fill="#ffffff" stroke="transparent" points="226.5,-240.1132 226.5,-259.1132 279.5,-259.1132 279.5,-240.1132 226.5,-240.1132"/>
<polygon fill="none" stroke="#000000" points="226.5,-240.1132 226.5,-259.1132 279.5,-259.1132 279.5,-240.1132 226.5,-240.1132"/>
<text text-anchor="start" x="244.1105" y="-246.2132" font-family="Helvetica,sans-Serif" font-size="11.00" fill="#000000">0 rows</text>
<polygon fill="#ffffff" stroke="transparent" points="279.5,-240.1132 279.5,-259.1132 315.5,-259.1132 315.5,-240.1132 279.5,-240.1132"/>
<polygon fill="none" stroke="#000000" points="279.5,-240.1132 279.5,-259.1132 315.5,-259.1132 315.5,-240.1132 279.5,-240.1132"/>
<text text-anchor="start" x="296.9053" y="-246.2132" font-family="Helvetica,sans-Serif" font-size="11.00" fill="#000000">6 &gt;</text>
</a>
</g>
</g>
<!-- Coordinators&#45;&gt;TechnicalCareers -->
<g id="edge10" class="edge">
<title>Coordinators:w&#45;&gt;TechnicalCareers:e</title>
<path fill="none" stroke="#000000" d="M418.3791,-283.6685C377.484,-281.0844 362.9543,-268.1132 315.5,-268.1132"/>
<polygon fill="#000000" stroke="#000000" points="425.0037,-283.8699 432.8905,-287.7115 429.0018,-283.9915 433,-284.1132 433,-284.1132 433,-284.1132 429.0018,-283.9915 433.1095,-280.5148 425.0037,-283.8699 425.0037,-283.8699"/>
<ellipse fill="none" stroke="#000000" cx="421.8052" cy="-283.7726" rx="3.2" ry="3.2"/>
</g>
<!-- TechnicalCareers&#45;&gt;AspNetUsers -->
<g id="edge46" class="edge">
<title>TechnicalCareers:w&#45;&gt;AspNetUsers:e</title>
<path fill="none" stroke="#000000" d="M162.2775,-271.2218C120.2163,-293.4461 85.7884,-425.3464 71.7713,-489.3797"/>
<polygon fill="#000000" stroke="#000000" points="168.6845,-269.8215 177.2687,-271.6301 172.5923,-268.9673 176.5,-268.1132 176.5,-268.1132 176.5,-268.1132 172.5923,-268.9673 175.7313,-264.5962 168.6845,-269.8215 168.6845,-269.8215"/>
<ellipse fill="none" stroke="#000000" cx="165.5583" cy="-270.5048" rx="3.2" ry="3.2"/>
</g>
<!-- TechnicalCareers&#45;&gt;AspNetUsers -->
<g id="edge47" class="edge">
<title>TechnicalCareers:w&#45;&gt;AspNetUsers:e</title>
<path fill="none" stroke="#000000" d="M162.9973,-273.5157C122.1326,-301.3955 88.375,-427.2946 73.3704,-489.3959"/>
<polygon fill="#000000" stroke="#000000" points="169.0725,-271.085 177.8373,-271.4556 172.7862,-269.5991 176.5,-268.1132 176.5,-268.1132 176.5,-268.1132 172.7862,-269.5991 175.1627,-264.7708 169.0725,-271.085 169.0725,-271.085"/>
<ellipse fill="none" stroke="#000000" cx="166.1014" cy="-272.2737" rx="3.2" ry="3.2"/>
</g>
<!-- EvaluationPeriods -->
<g id="node10" class="node">
<title>EvaluationPeriods</title>
<g id="a_node10"><a xlink:href="../../tables/EvaluationPeriods.html" xlink:title="EvaluationPeriods" target="_top">
<polygon fill="#ffffff" stroke="transparent" points="174,-432.6132 174,-493.6132 317,-493.6132 317,-432.6132 174,-432.6132"/>
<polygon fill="#f5f5f5" stroke="transparent" points="174.5,-470.1132 174.5,-493.1132 317.5,-493.1132 317.5,-470.1132 174.5,-470.1132"/>
<polygon fill="none" stroke="#000000" points="174.5,-470.1132 174.5,-493.1132 317.5,-493.1132 317.5,-470.1132 174.5,-470.1132"/>
<text text-anchor="start" x="179.5" y="-478.7132" font-family="Helvetica,sans-Serif" font-weight="bold" font-size="11.00" fill="#000000">EvaluationPeriods</text>
<text text-anchor="start" x="283.0219" y="-478.2132" font-family="Helvetica,sans-Serif" font-size="11.00" fill="#000000">[table]</text>
<polygon fill="none" stroke="#000000" points="174.5,-451.1132 174.5,-470.1132 317.5,-470.1132 317.5,-451.1132 174.5,-451.1132"/>
<text text-anchor="start" x="177.5" y="-457.2132" font-family="Helvetica,sans-Serif" font-size="11.00" fill="#000000">...</text>
<polygon fill="#ffffff" stroke="transparent" points="174.5,-432.1132 174.5,-451.1132 226.5,-451.1132 226.5,-432.1132 174.5,-432.1132"/>
<polygon fill="none" stroke="#000000" points="174.5,-432.1132 174.5,-451.1132 226.5,-451.1132 226.5,-432.1132 174.5,-432.1132"/>
<text text-anchor="start" x="177.5" y="-438.2132" font-family="Helvetica,sans-Serif" font-size="11.00" fill="#000000">&lt; 2</text>
<polygon fill="#ffffff" stroke="transparent" points="226.5,-432.1132 226.5,-451.1132 280.5,-451.1132 280.5,-432.1132 226.5,-432.1132"/>
<polygon fill="none" stroke="#000000" points="226.5,-432.1132 226.5,-451.1132 280.5,-451.1132 280.5,-432.1132 226.5,-432.1132"/>
<text text-anchor="start" x="245.1105" y="-438.2132" font-family="Helvetica,sans-Serif" font-size="11.00" fill="#000000">0 rows</text>
<polygon fill="#ffffff" stroke="transparent" points="280.5,-432.1132 280.5,-451.1132 317.5,-451.1132 317.5,-432.1132 280.5,-432.1132"/>
<polygon fill="none" stroke="#000000" points="280.5,-432.1132 280.5,-451.1132 317.5,-451.1132 317.5,-432.1132 280.5,-432.1132"/>
<text text-anchor="start" x="298.9053" y="-438.2132" font-family="Helvetica,sans-Serif" font-size="11.00" fill="#000000">3 &gt;</text>
</a>
</g>
</g>
<!-- EvaluationPeriods&#45;&gt;AspNetUsers -->
<g id="edge12" class="edge">
<title>EvaluationPeriods:w&#45;&gt;AspNetUsers:e</title>
<path fill="none" stroke="#000000" d="M159.8499,-460.0565C135.8918,-462.3226 113.3525,-475.5813 96.2617,-489.4941"/>
<polygon fill="#000000" stroke="#000000" points="166.5001,-460.0822 174.4861,-463.7131 170.5,-460.0977 174.5,-460.1132 174.5,-460.1132 174.5,-460.1132 170.5,-460.0977 174.5139,-456.5132 166.5001,-460.0822 166.5001,-460.0822"/>
<ellipse fill="none" stroke="#000000" cx="163.3001" cy="-460.0698" rx="3.2" ry="3.2"/>
</g>
<!-- EvaluationPeriods&#45;&gt;AspNetUsers -->
<g id="edge13" class="edge">
<title>EvaluationPeriods:w&#45;&gt;AspNetUsers:e</title>
<path fill="none" stroke="#000000" d="M160.1773,-463.0691C141.6209,-468.3537 123.9038,-478.7982 108.8953,-489.6067"/>
<polygon fill="#000000" stroke="#000000" points="166.6651,-461.7302 175.2276,-463.6389 170.5826,-460.9217 174.5,-460.1132 174.5,-460.1132 174.5,-460.1132 170.5826,-460.9217 173.7724,-456.5875 166.6651,-461.7302 166.6651,-461.7302"/>
<ellipse fill="none" stroke="#000000" cx="163.5312" cy="-462.377" rx="3.2" ry="3.2"/>
</g>
<!-- FormQuestions -->
<g id="node11" class="node">
<title>FormQuestions</title>
<g id="a_node11"><a xlink:href="../../tables/FormQuestions.html" xlink:title="FormQuestions" target="_top">
<polygon fill="#ffffff" stroke="transparent" points="426.5,-632.6132 426.5,-693.6132 553.5,-693.6132 553.5,-632.6132 426.5,-632.6132"/>
<polygon fill="#f5f5f5" stroke="transparent" points="427,-670.1132 427,-693.1132 554,-693.1132 554,-670.1132 427,-670.1132"/>
<polygon fill="none" stroke="#000000" points="427,-670.1132 427,-693.1132 554,-693.1132 554,-670.1132 427,-670.1132"/>
<text text-anchor="start" x="432" y="-678.7132" font-family="Helvetica,sans-Serif" font-weight="bold" font-size="11.00" fill="#000000">FormQuestions</text>
<text text-anchor="start" x="519.5219" y="-678.2132" font-family="Helvetica,sans-Serif" font-size="11.00" fill="#000000">[table]</text>
<polygon fill="none" stroke="#000000" points="427,-651.1132 427,-670.1132 554,-670.1132 554,-651.1132 427,-651.1132"/>
<text text-anchor="start" x="430" y="-657.2132" font-family="Helvetica,sans-Serif" font-size="11.00" fill="#000000">...</text>
<polygon fill="#ffffff" stroke="transparent" points="427,-632.1132 427,-651.1132 471,-651.1132 471,-632.1132 427,-632.1132"/>
<polygon fill="none" stroke="#000000" points="427,-632.1132 427,-651.1132 471,-651.1132 471,-632.1132 427,-632.1132"/>
<text text-anchor="start" x="430" y="-638.2132" font-family="Helvetica,sans-Serif" font-size="11.00" fill="#000000">&lt; 3</text>
<polygon fill="#ffffff" stroke="transparent" points="471,-632.1132 471,-651.1132 521,-651.1132 521,-632.1132 471,-632.1132"/>
<polygon fill="none" stroke="#000000" points="471,-632.1132 471,-651.1132 521,-651.1132 521,-632.1132 471,-632.1132"/>
<text text-anchor="start" x="485.6105" y="-638.2132" font-family="Helvetica,sans-Serif" font-size="11.00" fill="#000000">0 rows</text>
<polygon fill="#ffffff" stroke="transparent" points="521,-632.1132 521,-651.1132 554,-651.1132 554,-632.1132 521,-632.1132"/>
<polygon fill="none" stroke="#000000" points="521,-632.1132 521,-651.1132 554,-651.1132 554,-632.1132 521,-632.1132"/>
<text text-anchor="start" x="535.4053" y="-638.2132" font-family="Helvetica,sans-Serif" font-size="11.00" fill="#000000">1 &gt;</text>
</a>
</g>
</g>
<!-- FormQuestions&#45;&gt;AspNetUsers -->
<g id="edge15" class="edge">
<title>FormQuestions:w&#45;&gt;AspNetUsers:e</title>
<path fill="none" stroke="#000000" d="M412.6012,-659.6898C305.9559,-658.8987 262.633,-711.1993 163,-659.1132 122.4472,-637.9129 95.292,-591.4425 80.0477,-558.922"/>
<polygon fill="#000000" stroke="#000000" points="419.0035,-659.878 426.8942,-663.7116 423.0017,-659.9956 427,-660.1132 427,-660.1132 427,-660.1132 423.0017,-659.9956 427.1058,-656.5147 419.0035,-659.878 419.0035,-659.878"/>
<ellipse fill="none" stroke="#000000" cx="415.8048" cy="-659.7839" rx="3.2" ry="3.2"/>
</g>
<!-- FormQuestions&#45;&gt;AspNetUsers -->
<g id="edge16" class="edge">
<title>FormQuestions:w&#45;&gt;AspNetUsers:e</title>
<path fill="none" stroke="#000000" d="M412.6012,-661.2597C305.9559,-671.8987 262.633,-724.1993 163,-672.1132 118.3522,-648.7722 89.9445,-594.7999 75.7926,-558.7975"/>
<polygon fill="#000000" stroke="#000000" points="419.0252,-660.7482 427.2858,-663.7018 423.0126,-660.4307 427,-660.1132 427,-660.1132 427,-660.1132 423.0126,-660.4307 426.7142,-656.5245 419.0252,-660.7482 419.0252,-660.7482"/>
<ellipse fill="none" stroke="#000000" cx="415.8353" cy="-661.0023" rx="3.2" ry="3.2"/>
</g>
<!-- FormQuestions&#45;&gt;Competencies -->
<g id="edge14" class="edge">
<title>FormQuestions:w&#45;&gt;Competencies:e</title>
<path fill="none" stroke="#000000" d="M412.364,-659.1491C368.7994,-653.1434 357.5134,-621.1132 306.5,-621.1132"/>
<polygon fill="#000000" stroke="#000000" points="419.0173,-659.5873 426.7634,-663.7054 423.0086,-659.8502 427,-660.1132 427,-660.1132 427,-660.1132 423.0086,-659.8502 427.2366,-656.5209 419.0173,-659.5873 419.0173,-659.5873"/>
<ellipse fill="none" stroke="#000000" cx="415.8242" cy="-659.377" rx="3.2" ry="3.2"/>
</g>
<!-- ProfessorCompetencyAssignments -->
<g id="node12" class="node">
<title>ProfessorCompetencyAssignments</title>
<g id="a_node12"><a xlink:href="../../tables/ProfessorCompetencyAssignments.html" xlink:title="ProfessorCompetencyAssignments" target="_top">
<polygon fill="#ffffff" stroke="transparent" points="369,-471.6132 369,-532.6132 611,-532.6132 611,-471.6132 369,-471.6132"/>
<polygon fill="#f5f5f5" stroke="transparent" points="369,-509.1132 369,-532.1132 611,-532.1132 611,-509.1132 369,-509.1132"/>
<polygon fill="none" stroke="#000000" points="369,-509.1132 369,-532.1132 611,-532.1132 611,-509.1132 369,-509.1132"/>
<text text-anchor="start" x="374" y="-517.7132" font-family="Helvetica,sans-Serif" font-weight="bold" font-size="11.00" fill="#000000">ProfessorCompetencyAssignments</text>
<text text-anchor="start" x="576.5219" y="-517.2132" font-family="Helvetica,sans-Serif" font-size="11.00" fill="#000000">[table]</text>
<polygon fill="none" stroke="#000000" points="369,-490.1132 369,-509.1132 611,-509.1132 611,-490.1132 369,-490.1132"/>
<text text-anchor="start" x="372" y="-496.2132" font-family="Helvetica,sans-Serif" font-size="11.00" fill="#000000">...</text>
<polygon fill="#ffffff" stroke="transparent" points="369,-471.1132 369,-490.1132 471,-490.1132 471,-471.1132 369,-471.1132"/>
<polygon fill="none" stroke="#000000" points="369,-471.1132 369,-490.1132 471,-490.1132 471,-471.1132 369,-471.1132"/>
<text text-anchor="start" x="372" y="-477.2132" font-family="Helvetica,sans-Serif" font-size="11.00" fill="#000000">&lt; 6</text>
<polygon fill="#ffffff" stroke="transparent" points="471,-471.1132 471,-490.1132 549,-490.1132 549,-471.1132 471,-471.1132"/>
<polygon fill="none" stroke="#000000" points="471,-471.1132 471,-490.1132 549,-490.1132 549,-471.1132 471,-471.1132"/>
<text text-anchor="start" x="513.6105" y="-477.2132" font-family="Helvetica,sans-Serif" font-size="11.00" fill="#000000">0 rows</text>
<polygon fill="#ffffff" stroke="transparent" points="549,-471.1132 549,-490.1132 611,-490.1132 611,-471.1132 549,-471.1132"/>
<polygon fill="none" stroke="#000000" points="549,-471.1132 549,-490.1132 611,-490.1132 611,-471.1132 549,-471.1132"/>
<text text-anchor="start" x="592.4053" y="-477.2132" font-family="Helvetica,sans-Serif" font-size="11.00" fill="#000000">1 &gt;</text>
</a>
</g>
</g>
<!-- ProfessorCompetencyAssignments&#45;&gt;AspNetUsers -->
<g id="edge18" class="edge">
<title>ProfessorCompetencyAssignments:w&#45;&gt;AspNetUsers:e</title>
<path fill="none" stroke="#000000" d="M354.7476,-495.8294C346.4147,-495.0162 340.4165,-496.8846 328,-498.1132 260.6718,-504.7751 183.4549,-510.4092 130.1909,-515.1363"/>
<polygon fill="#000000" stroke="#000000" points="361.2042,-497.317 368.1917,-502.6212 365.1021,-498.2151 369,-499.1132 369,-499.1132 369,-499.1132 365.1021,-498.2151 369.8083,-495.6051 361.2042,-497.317 361.2042,-497.317"/>
<ellipse fill="none" stroke="#000000" cx="358.0859" cy="-496.5985" rx="3.2" ry="3.2"/>
</g>
<!-- ProfessorCompetencyAssignments&#45;&gt;AspNetUsers -->
<g id="edge22" class="edge">
<title>ProfessorCompetencyAssignments:w&#45;&gt;AspNetUsers:e</title>
<path fill="none" stroke="#000000" d="M355.326,-504.5197C346.6871,-507.93 340.702,-509.8563 328,-511.1132 260.6718,-517.7751 183.4549,-523.4092 130.1909,-525.637"/>
<polygon fill="#000000" stroke="#000000" points="361.5604,-502.0547 370.3237,-502.461 365.2802,-500.5839 369,-499.1132 369,-499.1132 369,-499.1132 365.2802,-500.5839 367.6763,-495.7653 361.5604,-502.0547 361.5604,-502.0547"/>
<ellipse fill="none" stroke="#000000" cx="358.5846" cy="-503.2314" rx="3.2" ry="3.2"/>
</g>
<!-- ProfessorCompetencyAssignments&#45;&gt;Competencies -->
<g id="edge17" class="edge">
<title>ProfessorCompetencyAssignments:w&#45;&gt;Competencies:e</title>
<path fill="none" stroke="#000000" d="M354.8383,-502.1289C318.1471,-520.9159 361.7118,-621.1132 306.5,-621.1132"/>
<polygon fill="#000000" stroke="#000000" points="361.1754,-500.7794 369.7498,-502.6342 365.0877,-499.9463 369,-499.1132 369,-499.1132 369,-499.1132 365.0877,-499.9463 368.2502,-495.5921 361.1754,-500.7794 361.1754,-500.7794"/>
<ellipse fill="none" stroke="#000000" cx="358.0456" cy="-501.446" rx="3.2" ry="3.2"/>
</g>
<!-- ProfessorCompetencyAssignments&#45;&gt;TechnicalCareers -->
<g id="edge21" class="edge">
<title>ProfessorCompetencyAssignments:w&#45;&gt;TechnicalCareers:e</title>
<path fill="none" stroke="#000000" d="M354.4421,-497.2537C279.4723,-475.3923 415.3268,-268.1132 315.5,-268.1132"/>
<polygon fill="#000000" stroke="#000000" points="361.0645,-498.0995 368.5439,-502.6841 365.0322,-498.6063 369,-499.1132 369,-499.1132 369,-499.1132 365.0322,-498.6063 369.4561,-495.5422 361.0645,-498.0995 361.0645,-498.0995"/>
<ellipse fill="none" stroke="#000000" cx="357.8903" cy="-497.6941" rx="3.2" ry="3.2"/>
</g>
<!-- ProfessorCompetencyAssignments&#45;&gt;EvaluationPeriods -->
<g id="edge19" class="edge">
<title>ProfessorCompetencyAssignments:w&#45;&gt;EvaluationPeriods:e</title>
<path fill="none" stroke="#000000" d="M355.2105,-494.9395C341.2657,-484.8785 340.3794,-460.1132 317.5,-460.1132"/>
<polygon fill="#000000" stroke="#000000" points="361.343,-496.7956 367.9571,-502.5588 365.1715,-497.9544 369,-499.1132 369,-499.1132 369,-499.1132 365.1715,-497.9544 370.0429,-495.6675 361.343,-496.7956 361.343,-496.7956"/>
<ellipse fill="none" stroke="#000000" cx="358.2803" cy="-495.8686" rx="3.2" ry="3.2"/>
</g>
<!-- Professors -->
<g id="node13" class="node">
<title>Professors</title>
<g id="a_node13"><a xlink:href="../../tables/Professors.html" xlink:title="Professors" target="_top">
<polygon fill="#ffffff" stroke="transparent" points="195,-350.6132 195,-411.6132 296,-411.6132 296,-350.6132 195,-350.6132"/>
<polygon fill="#f5f5f5" stroke="transparent" points="195.5,-388.1132 195.5,-411.1132 296.5,-411.1132 296.5,-388.1132 195.5,-388.1132"/>
<polygon fill="none" stroke="#000000" points="195.5,-388.1132 195.5,-411.1132 296.5,-411.1132 296.5,-388.1132 195.5,-388.1132"/>
<text text-anchor="start" x="200.5" y="-396.7132" font-family="Helvetica,sans-Serif" font-weight="bold" font-size="11.00" fill="#000000">Professors</text>
<text text-anchor="start" x="262.0219" y="-396.2132" font-family="Helvetica,sans-Serif" font-size="11.00" fill="#000000">[table]</text>
<polygon fill="none" stroke="#000000" points="195.5,-369.1132 195.5,-388.1132 296.5,-388.1132 296.5,-369.1132 195.5,-369.1132"/>
<text text-anchor="start" x="198.5" y="-375.2132" font-family="Helvetica,sans-Serif" font-size="11.00" fill="#000000">...</text>
<polygon fill="#ffffff" stroke="transparent" points="195.5,-350.1132 195.5,-369.1132 226.5,-369.1132 226.5,-350.1132 195.5,-350.1132"/>
<polygon fill="none" stroke="#000000" points="195.5,-350.1132 195.5,-369.1132 226.5,-369.1132 226.5,-350.1132 195.5,-350.1132"/>
<text text-anchor="start" x="198.5" y="-356.2132" font-family="Helvetica,sans-Serif" font-size="11.00" fill="#000000">&lt; 1</text>
<polygon fill="#ffffff" stroke="transparent" points="226.5,-350.1132 226.5,-369.1132 269.5,-369.1132 269.5,-350.1132 226.5,-350.1132"/>
<polygon fill="none" stroke="#000000" points="226.5,-350.1132 226.5,-369.1132 269.5,-369.1132 269.5,-350.1132 226.5,-350.1132"/>
<text text-anchor="start" x="234.1105" y="-356.2132" font-family="Helvetica,sans-Serif" font-size="11.00" fill="#000000">0 rows</text>
<polygon fill="#ffffff" stroke="transparent" points="269.5,-350.1132 269.5,-369.1132 296.5,-369.1132 296.5,-350.1132 269.5,-350.1132"/>
<polygon fill="none" stroke="#000000" points="269.5,-350.1132 269.5,-369.1132 296.5,-369.1132 296.5,-350.1132 269.5,-350.1132"/>
<text text-anchor="start" x="277.9053" y="-356.2132" font-family="Helvetica,sans-Serif" font-size="11.00" fill="#000000">2 &gt;</text>
</a>
</g>
</g>
<!-- ProfessorCompetencyAssignments&#45;&gt;Professors -->
<g id="edge20" class="edge">
<title>ProfessorCompetencyAssignments:w&#45;&gt;Professors:e</title>
<path fill="none" stroke="#000000" d="M354.7336,-496.3586C314.8775,-478.3477 353.5598,-378.1132 296.5,-378.1132"/>
<polygon fill="#000000" stroke="#000000" points="361.1451,-497.5965 368.3175,-502.6479 365.0725,-498.3548 369,-499.1132 369,-499.1132 369,-499.1132 365.0725,-498.3548 369.6825,-495.5784 361.1451,-497.5965 361.1451,-497.5965"/>
<ellipse fill="none" stroke="#000000" cx="358.0031" cy="-496.9898" rx="3.2" ry="3.2"/>
</g>
<!-- Professors&#45;&gt;AspNetUsers -->
<g id="edge23" class="edge">
<title>Professors:w&#45;&gt;AspNetUsers:e</title>
<path fill="none" stroke="#000000" d="M185.0647,-380.4396C155.0577,-392.7379 112.5537,-451.0612 86.9924,-489.5132"/>
<polygon fill="#000000" stroke="#000000" points="193.8487,-374.3831 195.5896,-382.1914 194.0279,-382.5396 192.2871,-374.7313 193.8487,-374.3831"/>
<polyline fill="none" stroke="#000000" points="195.5,-378.1132 191.5958,-378.9836 "/>
<ellipse fill="none" stroke="#000000" cx="188.4725" cy="-379.6799" rx="3.2" ry="3.2"/>
</g>
<!-- QuestionResponses -->
<g id="node14" class="node">
<title>QuestionResponses</title>
<g id="a_node14"><a xlink:href="../../tables/QuestionResponses.html" xlink:title="QuestionResponses" target="_top">
<polygon fill="#ffffff" stroke="transparent" points="932,-679.6132 932,-740.6132 1087,-740.6132 1087,-679.6132 932,-679.6132"/>
<polygon fill="#f5f5f5" stroke="transparent" points="932.5,-717.1132 932.5,-740.1132 1087.5,-740.1132 1087.5,-717.1132 932.5,-717.1132"/>
<polygon fill="none" stroke="#000000" points="932.5,-717.1132 932.5,-740.1132 1087.5,-740.1132 1087.5,-717.1132 932.5,-717.1132"/>
<text text-anchor="start" x="937.5" y="-725.7132" font-family="Helvetica,sans-Serif" font-weight="bold" font-size="11.00" fill="#000000">QuestionResponses</text>
<text text-anchor="start" x="1053.0219" y="-725.2132" font-family="Helvetica,sans-Serif" font-size="11.00" fill="#000000">[table]</text>
<polygon fill="none" stroke="#000000" points="932.5,-698.1132 932.5,-717.1132 1087.5,-717.1132 1087.5,-698.1132 932.5,-698.1132"/>
<text text-anchor="start" x="935.5" y="-704.2132" font-family="Helvetica,sans-Serif" font-size="11.00" fill="#000000">...</text>
<polygon fill="#ffffff" stroke="transparent" points="932.5,-679.1132 932.5,-698.1132 995.5,-698.1132 995.5,-679.1132 932.5,-679.1132"/>
<polygon fill="none" stroke="#000000" points="932.5,-679.1132 932.5,-698.1132 995.5,-698.1132 995.5,-679.1132 932.5,-679.1132"/>
<text text-anchor="start" x="935.5" y="-685.2132" font-family="Helvetica,sans-Serif" font-size="11.00" fill="#000000">&lt; 4</text>
<polygon fill="#ffffff" stroke="transparent" points="995.5,-679.1132 995.5,-698.1132 1054.5,-698.1132 1054.5,-679.1132 995.5,-679.1132"/>
<polygon fill="none" stroke="#000000" points="995.5,-679.1132 995.5,-698.1132 1054.5,-698.1132 1054.5,-679.1132 995.5,-679.1132"/>
<text text-anchor="start" x="1019.1105" y="-685.2132" font-family="Helvetica,sans-Serif" font-size="11.00" fill="#000000">0 rows</text>
<polygon fill="#ffffff" stroke="transparent" points="1054.5,-679.1132 1054.5,-698.1132 1087.5,-698.1132 1087.5,-679.1132 1054.5,-679.1132"/>
<polygon fill="none" stroke="#000000" points="1054.5,-679.1132 1054.5,-698.1132 1087.5,-698.1132 1087.5,-679.1132 1054.5,-679.1132"/>
<text text-anchor="start" x="1078.3862" y="-685.2132" font-family="Helvetica,sans-Serif" font-size="11.00" fill="#000000"> &#160;</text>
</a>
</g>
</g>
<!-- QuestionResponses&#45;&gt;AspNetUsers -->
<g id="edge24" class="edge">
<title>QuestionResponses:w&#45;&gt;AspNetUsers:e</title>
<path fill="none" stroke="#000000" d="M917.85,-706.7968C736.9345,-705.0719 304.6808,-773.2958 163,-686.1132 116.1246,-657.2686 89.2119,-597.0468 75.8443,-558.6474"/>
<polygon fill="#000000" stroke="#000000" points="924.5019,-706.9404 932.4223,-710.7123 928.5009,-707.0268 932.5,-707.1132 932.5,-707.1132 932.5,-707.1132 928.5009,-707.0268 932.5777,-703.514 924.5019,-706.9404 924.5019,-706.9404"/>
<ellipse fill="none" stroke="#000000" cx="921.3026" cy="-706.8713" rx="3.2" ry="3.2"/>
</g>
<!-- QuestionResponses&#45;&gt;AspNetUsers -->
<g id="edge27" class="edge">
<title>QuestionResponses:w&#45;&gt;AspNetUsers:e</title>
<path fill="none" stroke="#000000" d="M917.85,-707.8343C736.9345,-718.0719 304.6808,-786.2958 163,-699.1132 112.3861,-667.9681 85.046,-600.2412 72.9012,-558.6788"/>
<polygon fill="#000000" stroke="#000000" points="924.5097,-707.5066 932.677,-710.7088 928.5048,-707.3099 932.5,-707.1132 932.5,-707.1132 932.5,-707.1132 928.5048,-707.3099 932.323,-703.5175 924.5097,-707.5066 924.5097,-707.5066"/>
<ellipse fill="none" stroke="#000000" cx="921.3135" cy="-707.6639" rx="3.2" ry="3.2"/>
</g>
<!-- QuestionResponses&#45;&gt;FormQuestions -->
<g id="edge25" class="edge">
<title>QuestionResponses:w&#45;&gt;FormQuestions:e</title>
<path fill="none" stroke="#000000" d="M917.9296,-706.9945C760.5614,-704.3996 718.548,-660.1132 554,-660.1132"/>
<polygon fill="#000000" stroke="#000000" points="924.5003,-707.048 932.4707,-710.713 928.5001,-707.0806 932.5,-707.1132 932.5,-707.1132 932.5,-707.1132 928.5001,-707.0806 932.5293,-703.5133 924.5003,-707.048 924.5003,-707.048"/>
<ellipse fill="none" stroke="#000000" cx="921.3004" cy="-707.0219" rx="3.2" ry="3.2"/>
</g>
<!-- StudentCompetencyEvaluations -->
<g id="node15" class="node">
<title>StudentCompetencyEvaluations</title>
<g id="a_node15"><a xlink:href="../../tables/StudentCompetencyEvaluations.html" xlink:title="StudentCompetencyEvaluations" target="_top">
<polygon fill="#ffffff" stroke="transparent" points="660,-535.6132 660,-596.6132 883,-596.6132 883,-535.6132 660,-535.6132"/>
<polygon fill="#f5f5f5" stroke="transparent" points="660.5,-573.1132 660.5,-596.1132 883.5,-596.1132 883.5,-573.1132 660.5,-573.1132"/>
<polygon fill="none" stroke="#000000" points="660.5,-573.1132 660.5,-596.1132 883.5,-596.1132 883.5,-573.1132 660.5,-573.1132"/>
<text text-anchor="start" x="665.5" y="-581.7132" font-family="Helvetica,sans-Serif" font-weight="bold" font-size="11.00" fill="#000000">StudentCompetencyEvaluations</text>
<text text-anchor="start" x="849.0219" y="-581.2132" font-family="Helvetica,sans-Serif" font-size="11.00" fill="#000000">[table]</text>
<polygon fill="none" stroke="#000000" points="660.5,-554.1132 660.5,-573.1132 883.5,-573.1132 883.5,-554.1132 660.5,-554.1132"/>
<text text-anchor="start" x="663.5" y="-560.2132" font-family="Helvetica,sans-Serif" font-size="11.00" fill="#000000">...</text>
<polygon fill="#ffffff" stroke="transparent" points="660.5,-535.1132 660.5,-554.1132 752.5,-554.1132 752.5,-535.1132 660.5,-535.1132"/>
<polygon fill="none" stroke="#000000" points="660.5,-535.1132 660.5,-554.1132 752.5,-554.1132 752.5,-535.1132 660.5,-535.1132"/>
<text text-anchor="start" x="663.5" y="-541.2132" font-family="Helvetica,sans-Serif" font-size="11.00" fill="#000000">&lt; 4</text>
<polygon fill="#ffffff" stroke="transparent" points="752.5,-535.1132 752.5,-554.1132 826.5,-554.1132 826.5,-535.1132 752.5,-535.1132"/>
<polygon fill="none" stroke="#000000" points="752.5,-535.1132 752.5,-554.1132 826.5,-554.1132 826.5,-535.1132 752.5,-535.1132"/>
<text text-anchor="start" x="791.1105" y="-541.2132" font-family="Helvetica,sans-Serif" font-size="11.00" fill="#000000">0 rows</text>
<polygon fill="#ffffff" stroke="transparent" points="826.5,-535.1132 826.5,-554.1132 883.5,-554.1132 883.5,-535.1132 826.5,-535.1132"/>
<polygon fill="none" stroke="#000000" points="826.5,-535.1132 826.5,-554.1132 883.5,-554.1132 883.5,-535.1132 826.5,-535.1132"/>
<text text-anchor="start" x="864.9053" y="-541.2132" font-family="Helvetica,sans-Serif" font-size="11.00" fill="#000000">1 &gt;</text>
</a>
</g>
</g>
<!-- QuestionResponses&#45;&gt;StudentCompetencyEvaluations -->
<g id="edge26" class="edge">
<title>QuestionResponses:w&#45;&gt;StudentCompetencyEvaluations:e</title>
<path fill="none" stroke="#000000" d="M918.2835,-704.1055C878.5772,-683.4266 945.2941,-563.1132 883.5,-563.1132"/>
<polygon fill="#000000" stroke="#000000" points="924.6732,-705.4573 931.7549,-710.6352 928.5866,-706.2852 932.5,-707.1132 932.5,-707.1132 932.5,-707.1132 928.5866,-706.2852 933.2451,-703.5911 924.6732,-705.4573 924.6732,-705.4573"/>
<ellipse fill="none" stroke="#000000" cx="921.5425" cy="-704.7949" rx="3.2" ry="3.2"/>
</g>
<!-- StudentCompetencyEvaluations&#45;&gt;AspNetUsers -->
<g id="edge28" class="edge">
<title>StudentCompetencyEvaluations:w&#45;&gt;AspNetUsers:e</title>
<path fill="none" stroke="#000000" d="M646.0027,-562.7545C456.0039,-557.6599 236.8065,-536.6266 130.1159,-527.6157"/>
<polygon fill="#000000" stroke="#000000" points="652.5024,-562.9152 660.4109,-566.7121 656.5012,-563.0142 660.5,-563.1132 660.5,-563.1132 660.5,-563.1132 656.5012,-563.0142 660.5891,-559.5143 652.5024,-562.9152 652.5024,-562.9152"/>
<ellipse fill="none" stroke="#000000" cx="649.3034" cy="-562.8361" rx="3.2" ry="3.2"/>
</g>
<!-- StudentCompetencyEvaluations&#45;&gt;AspNetUsers -->
<g id="edge31" class="edge">
<title>StudentCompetencyEvaluations:w&#45;&gt;AspNetUsers:e</title>
<path fill="none" stroke="#000000" d="M646.0027,-563.4492C456.0039,-567.2544 236.8065,-548.5607 130.1159,-535.3292"/>
<polygon fill="#000000" stroke="#000000" points="652.5021,-563.2986 660.5834,-566.7122 656.5011,-563.2059 660.5,-563.1132 660.5,-563.1132 660.5,-563.1132 656.5011,-563.2059 660.4166,-559.5141 652.5021,-563.2986 652.5021,-563.2986"/>
<ellipse fill="none" stroke="#000000" cx="649.303" cy="-563.3728" rx="3.2" ry="3.2"/>
</g>
<!-- StudentCompetencyEvaluations&#45;&gt;ProfessorCompetencyAssignments -->
<g id="edge29" class="edge">
<title>StudentCompetencyEvaluations:w&#45;&gt;ProfessorCompetencyAssignments:e</title>
<path fill="none" stroke="#000000" d="M646.5392,-558.0912C630.5225,-543.0038 640.779,-499.1132 611,-499.1132"/>
<polygon fill="#000000" stroke="#000000" points="652.9722,-560.4052 659.2814,-566.5007 656.7361,-561.7592 660.5,-563.1132 660.5,-563.1132 660.5,-563.1132 656.7361,-561.7592 661.7186,-559.7257 652.9722,-560.4052 652.9722,-560.4052"/>
<ellipse fill="none" stroke="#000000" cx="649.9611" cy="-559.3221" rx="3.2" ry="3.2"/>
</g>
<!-- Students -->
<g id="node16" class="node">
<title>Students</title>
<g id="a_node16"><a xlink:href="../../tables/Students.html" xlink:title="Students" target="_top">
<polygon fill="#ffffff" stroke="transparent" points="445,-338.6132 445,-399.6132 535,-399.6132 535,-338.6132 445,-338.6132"/>
<polygon fill="#f5f5f5" stroke="transparent" points="445,-376.1132 445,-399.1132 535,-399.1132 535,-376.1132 445,-376.1132"/>
<polygon fill="none" stroke="#000000" points="445,-376.1132 445,-399.1132 535,-399.1132 535,-376.1132 445,-376.1132"/>
<text text-anchor="start" x="450" y="-384.7132" font-family="Helvetica,sans-Serif" font-weight="bold" font-size="11.00" fill="#000000">Students</text>
<text text-anchor="start" x="500.5219" y="-384.2132" font-family="Helvetica,sans-Serif" font-size="11.00" fill="#000000">[table]</text>
<polygon fill="none" stroke="#000000" points="445,-357.1132 445,-376.1132 535,-376.1132 535,-357.1132 445,-357.1132"/>
<text text-anchor="start" x="448" y="-363.2132" font-family="Helvetica,sans-Serif" font-size="11.00" fill="#000000">...</text>
<polygon fill="#ffffff" stroke="transparent" points="445,-338.1132 445,-357.1132 471,-357.1132 471,-338.1132 445,-338.1132"/>
<polygon fill="none" stroke="#000000" points="445,-338.1132 445,-357.1132 471,-357.1132 471,-338.1132 445,-338.1132"/>
<text text-anchor="start" x="448" y="-344.2132" font-family="Helvetica,sans-Serif" font-size="11.00" fill="#000000">&lt; 2</text>
<polygon fill="#ffffff" stroke="transparent" points="471,-338.1132 471,-357.1132 511,-357.1132 511,-338.1132 471,-338.1132"/>
<polygon fill="none" stroke="#000000" points="471,-338.1132 471,-357.1132 511,-357.1132 511,-338.1132 471,-338.1132"/>
<text text-anchor="start" x="475.6105" y="-344.2132" font-family="Helvetica,sans-Serif" font-size="11.00" fill="#000000">0 rows</text>
<polygon fill="#ffffff" stroke="transparent" points="511,-338.1132 511,-357.1132 535,-357.1132 535,-338.1132 511,-338.1132"/>
<polygon fill="none" stroke="#000000" points="511,-338.1132 511,-357.1132 535,-357.1132 535,-338.1132 511,-338.1132"/>
<text text-anchor="start" x="516.4053" y="-344.2132" font-family="Helvetica,sans-Serif" font-size="11.00" fill="#000000">3 &gt;</text>
</a>
</g>
</g>
<!-- StudentCompetencyEvaluations&#45;&gt;Students -->
<g id="edge30" class="edge">
<title>StudentCompetencyEvaluations:w&#45;&gt;Students:e</title>
<path fill="none" stroke="#000000" d="M646.2608,-560.4729C619.7112,-548.0789 645.6729,-494.8604 619,-461.1132 598.5315,-435.2159 568.9075,-413.3825 543.2087,-397.4934"/>
<polygon fill="#000000" stroke="#000000" points="652.6341,-561.6546 659.8436,-566.6528 656.567,-562.3839 660.5,-563.1132 660.5,-563.1132 660.5,-563.1132 656.567,-562.3839 661.1564,-559.5735 652.6341,-561.6546 652.6341,-561.6546"/>
<ellipse fill="none" stroke="#000000" cx="649.4877" cy="-561.0712" rx="3.2" ry="3.2"/>
</g>
<!-- Students&#45;&gt;AspNetUsers -->
<g id="edge37" class="edge">
<title>Students:w&#45;&gt;AspNetUsers:e</title>
<path fill="none" stroke="#000000" d="M426.7183,-354.816C344.392,-337.678 205.9933,-314.3007 163,-340.1132 109.0081,-372.529 83.1379,-445.883 72.1043,-489.5495"/>
<polygon fill="#000000" stroke="#000000" points="437.0047,-352.8974 435.3537,-360.7252 433.7882,-360.395 435.4391,-352.5672 437.0047,-352.8974"/>
<polyline fill="none" stroke="#000000" points="436.962,-356.9764 433.0481,-356.1509 "/>
<ellipse fill="none" stroke="#000000" cx="429.917" cy="-355.4905" rx="3.2" ry="3.2"/>
</g>
<!-- Students&#45;&gt;TechnicalCareers -->
<g id="edge36" class="edge">
<title>Students:w&#45;&gt;TechnicalCareers:e</title>
<path fill="none" stroke="#000000" d="M422.8217,-356.1633C401.755,-349.9783 379.2575,-341.0061 361,-328.1132 333.6622,-308.8079 348.9671,-268.1132 315.5,-268.1132"/>
<polygon fill="#000000" stroke="#000000" points="429.0294,-357.84 435.8139,-363.4015 432.891,-358.883 436.7526,-359.926 436.7526,-359.926 436.7526,-359.926 432.891,-358.883 437.6914,-356.4506 429.0294,-357.84 429.0294,-357.84"/>
<ellipse fill="none" stroke="#000000" cx="425.9401" cy="-357.0055" rx="3.2" ry="3.2"/>
</g>
<!-- StudentEvaluationReport -->
<g id="node17" class="node">
<title>StudentEvaluationReport</title>
<g id="a_node17"><a xlink:href="../../tables/StudentEvaluationReport.html" xlink:title="StudentEvaluationReport" target="_top">
<polygon fill="#ffffff" stroke="transparent" points="680,-321.6132 680,-382.6132 863,-382.6132 863,-321.6132 680,-321.6132"/>
<polygon fill="#f5f5f5" stroke="transparent" points="680.5,-359.1132 680.5,-382.1132 863.5,-382.1132 863.5,-359.1132 680.5,-359.1132"/>
<polygon fill="none" stroke="#000000" points="680.5,-359.1132 680.5,-382.1132 863.5,-382.1132 863.5,-359.1132 680.5,-359.1132"/>
<text text-anchor="start" x="685.5" y="-367.7132" font-family="Helvetica,sans-Serif" font-weight="bold" font-size="11.00" fill="#000000">StudentEvaluationReport</text>
<text text-anchor="start" x="829.0219" y="-367.2132" font-family="Helvetica,sans-Serif" font-size="11.00" fill="#000000">[table]</text>
<polygon fill="none" stroke="#000000" points="680.5,-340.1132 680.5,-359.1132 863.5,-359.1132 863.5,-340.1132 680.5,-340.1132"/>
<text text-anchor="start" x="683.5" y="-346.2132" font-family="Helvetica,sans-Serif" font-size="11.00" fill="#000000">...</text>
<polygon fill="#ffffff" stroke="transparent" points="680.5,-321.1132 680.5,-340.1132 757.5,-340.1132 757.5,-321.1132 680.5,-321.1132"/>
<polygon fill="none" stroke="#000000" points="680.5,-321.1132 680.5,-340.1132 757.5,-340.1132 757.5,-321.1132 680.5,-321.1132"/>
<text text-anchor="start" x="683.5" y="-327.2132" font-family="Helvetica,sans-Serif" font-size="11.00" fill="#000000">&lt; 4</text>
<polygon fill="#ffffff" stroke="transparent" points="757.5,-321.1132 757.5,-340.1132 823.5,-340.1132 823.5,-321.1132 757.5,-321.1132"/>
<polygon fill="none" stroke="#000000" points="757.5,-321.1132 757.5,-340.1132 823.5,-340.1132 823.5,-321.1132 757.5,-321.1132"/>
<text text-anchor="start" x="788.1105" y="-327.2132" font-family="Helvetica,sans-Serif" font-size="11.00" fill="#000000">0 rows</text>
<polygon fill="#ffffff" stroke="transparent" points="823.5,-321.1132 823.5,-340.1132 863.5,-340.1132 863.5,-321.1132 823.5,-321.1132"/>
<polygon fill="none" stroke="#000000" points="823.5,-321.1132 823.5,-340.1132 863.5,-340.1132 863.5,-321.1132 823.5,-321.1132"/>
<text text-anchor="start" x="854.3862" y="-327.2132" font-family="Helvetica,sans-Serif" font-size="11.00" fill="#000000"> &#160;</text>
</a>
</g>
</g>
<!-- StudentEvaluationReport&#45;&gt;AspNetUsers -->
<g id="edge32" class="edge">
<title>StudentEvaluationReport:w&#45;&gt;AspNetUsers:e</title>
<path fill="none" stroke="#000000" d="M666.2819,-346.5637C604.9142,-326.944 683.1242,-207.9787 619,-158.1132 579.0034,-127.0102 203.2472,-126.3351 163,-157.1132 109.9947,-197.6476 78.9383,-405.7273 68.7482,-489.3476"/>
<polygon fill="#000000" stroke="#000000" points="672.6256,-347.7012 679.8646,-352.6566 676.5628,-348.4072 680.5,-349.1132 680.5,-349.1132 680.5,-349.1132 676.5628,-348.4072 681.1354,-345.5697 672.6256,-347.7012 672.6256,-347.7012"/>
<ellipse fill="none" stroke="#000000" cx="669.4758" cy="-347.1364" rx="3.2" ry="3.2"/>
</g>
<!-- StudentEvaluationReport&#45;&gt;AspNetUsers -->
<g id="edge35" class="edge">
<title>StudentEvaluationReport:w&#45;&gt;AspNetUsers:e</title>
<path fill="none" stroke="#000000" d="M665.9002,-348.795C605.2394,-339.4486 682.9906,-220.8748 619,-171.1132 579.0034,-140.0102 203.2472,-139.3351 163,-170.1132 111.3488,-209.6121 80.5394,-408.2049 69.57,-489.4777"/>
<polygon fill="#000000" stroke="#000000" points="672.5019,-348.9388 680.4215,-352.7123 676.5009,-349.026 680.5,-349.1132 680.5,-349.1132 680.5,-349.1132 676.5009,-349.026 680.5785,-345.514 672.5019,-348.9388 672.5019,-348.9388"/>
<ellipse fill="none" stroke="#000000" cx="669.3027" cy="-348.869" rx="3.2" ry="3.2"/>
</g>
<!-- StudentEvaluationReport&#45;&gt;EvaluationPeriods -->
<g id="edge33" class="edge">
<title>StudentEvaluationReport:w&#45;&gt;EvaluationPeriods:e</title>
<path fill="none" stroke="#000000" d="M666.3344,-351.7594C644.3447,-361.4461 648.1868,-395.1832 619,-410.1132 498.0727,-471.9711 453.3301,-460.1132 317.5,-460.1132"/>
<polygon fill="#000000" stroke="#000000" points="672.636,-350.5823 681.1611,-352.6519 676.568,-349.8477 680.5,-349.1132 680.5,-349.1132 680.5,-349.1132 676.568,-349.8477 679.8389,-345.5744 672.636,-350.5823 672.636,-350.5823"/>
<ellipse fill="none" stroke="#000000" cx="669.4905" cy="-351.1699" rx="3.2" ry="3.2"/>
</g>
<!-- StudentEvaluationReport&#45;&gt;Students -->
<g id="edge34" class="edge">
<title>StudentEvaluationReport:w&#45;&gt;Students:e</title>
<path fill="none" stroke="#000000" d="M665.8702,-349.2982C623.2071,-350.3455 577.3891,-355.6557 543.2174,-360.5153"/>
<polygon fill="#000000" stroke="#000000" points="672.5006,-349.2144 680.5456,-352.7129 676.5003,-349.1638 680.5,-349.1132 680.5,-349.1132 680.5,-349.1132 676.5003,-349.1638 680.4544,-345.5134 672.5006,-349.2144 672.5006,-349.2144"/>
<ellipse fill="none" stroke="#000000" cx="669.3009" cy="-349.2549" rx="3.2" ry="3.2"/>
</g>
<!-- StudentSubjects -->
<g id="node18" class="node">
<title>StudentSubjects</title>
<g id="a_node18"><a xlink:href="../../tables/StudentSubjects.html" xlink:title="StudentSubjects" target="_top">
<polygon fill="#ffffff" stroke="transparent" points="662,-60.1132 662,-282.1132 881,-282.1132 881,-60.1132 662,-60.1132"/>
<polygon fill="#f5f5f5" stroke="transparent" points="664.5,-257.1132 664.5,-280.1132 879.5,-280.1132 879.5,-257.1132 664.5,-257.1132"/>
<polygon fill="none" stroke="#000000" points="664.5,-257.1132 664.5,-280.1132 879.5,-280.1132 879.5,-257.1132 664.5,-257.1132"/>
<text text-anchor="start" x="669.5" y="-265.7132" font-family="Helvetica,sans-Serif" font-weight="bold" font-size="11.00" fill="#000000">StudentSubjects</text>
<text text-anchor="start" x="844.5437" y="-265.2132" font-family="Helvetica,sans-Serif" font-size="11.00" fill="#000000">[table]</text>
<polygon fill="none" stroke="#000000" points="664.5,-235.1132 664.5,-257.1132 785.5,-257.1132 785.5,-235.1132 664.5,-235.1132"/>
<image xlink:href="../../images/primaryKeys.png" width="11px" height="12px" preserveAspectRatio="xMinYMin meet" x="669.5" y="-252.113"/>
<text text-anchor="start" x="684.5" y="-242.2132" font-family="Helvetica,sans-Serif" font-size="11.00" fill="#000000">Id</text>
<polygon fill="none" stroke="#000000" points="785.5,-235.1132 785.5,-257.1132 879.5,-257.1132 879.5,-235.1132 785.5,-235.1132"/>
<text text-anchor="start" x="788.4758" y="-242.8132" font-family="Helvetica,sans-Serif" font-size="11.00" fill="#000000">uuid[2147483647]</text>
<polygon fill="#ffffff" stroke="transparent" points="664.5,-213.1132 664.5,-235.1132 785.5,-235.1132 785.5,-213.1132 664.5,-213.1132"/>
<polygon fill="none" stroke="#000000" points="664.5,-213.1132 664.5,-235.1132 785.5,-235.1132 785.5,-213.1132 664.5,-213.1132"/>
<image xlink:href="../../images/foreignKeys.png" width="11px" height="12px" preserveAspectRatio="xMinYMin meet" x="669.5" y="-230.113"/>
<text text-anchor="start" x="684.5" y="-220.2132" font-family="Helvetica,sans-Serif" font-size="11.00" fill="#000000">StudentId</text>
<polygon fill="none" stroke="#000000" points="785.5,-213.1132 785.5,-235.1132 879.5,-235.1132 879.5,-213.1132 785.5,-213.1132"/>
<text text-anchor="start" x="788.5" y="-220.8132" font-family="Helvetica,sans-Serif" font-size="11.00" fill="#000000">text[2147483647]</text>
<polygon fill="#ffffff" stroke="transparent" points="664.5,-191.1132 664.5,-213.1132 785.5,-213.1132 785.5,-191.1132 664.5,-191.1132"/>
<polygon fill="none" stroke="#000000" points="664.5,-191.1132 664.5,-213.1132 785.5,-213.1132 785.5,-191.1132 664.5,-191.1132"/>
<image xlink:href="../../images/foreignKeys.png" width="11px" height="12px" preserveAspectRatio="xMinYMin meet" x="669.5" y="-208.113"/>
<text text-anchor="start" x="684.5" y="-198.2132" font-family="Helvetica,sans-Serif" font-size="11.00" fill="#000000">SubjectId</text>
<polygon fill="none" stroke="#000000" points="785.5,-191.1132 785.5,-213.1132 879.5,-213.1132 879.5,-191.1132 785.5,-191.1132"/>
<text text-anchor="start" x="788.4758" y="-198.8132" font-family="Helvetica,sans-Serif" font-size="11.00" fill="#000000">uuid[2147483647]</text>
<polygon fill="none" stroke="#000000" points="664.5,-169.1132 664.5,-191.1132 785.5,-191.1132 785.5,-169.1132 664.5,-169.1132"/>
<text text-anchor="start" x="684.5" y="-176.2132" font-family="Helvetica,sans-Serif" font-size="11.00" fill="#000000">IsActive</text>
<polygon fill="none" stroke="#000000" points="785.5,-169.1132 785.5,-191.1132 879.5,-191.1132 879.5,-169.1132 785.5,-169.1132"/>
<text text-anchor="start" x="788.5" y="-176.8132" font-family="Helvetica,sans-Serif" font-size="11.00" fill="#000000">bool[1]</text>
<polygon fill="none" stroke="#000000" points="664.5,-147.1132 664.5,-169.1132 785.5,-169.1132 785.5,-147.1132 664.5,-147.1132"/>
<text text-anchor="start" x="684.5" y="-154.2132" font-family="Helvetica,sans-Serif" font-size="11.00" fill="#000000">CreatedAt</text>
<polygon fill="none" stroke="#000000" points="785.5,-147.1132 785.5,-169.1132 879.5,-169.1132 879.5,-147.1132 785.5,-147.1132"/>
<text text-anchor="start" x="788.5" y="-154.8132" font-family="Helvetica,sans-Serif" font-size="11.00" fill="#000000">timestamptz[35,6]</text>
<polygon fill="none" stroke="#000000" points="664.5,-125.1132 664.5,-147.1132 785.5,-147.1132 785.5,-125.1132 664.5,-125.1132"/>
<text text-anchor="start" x="684.5" y="-132.2132" font-family="Helvetica,sans-Serif" font-size="11.00" fill="#000000">UpdatedAt</text>
<polygon fill="none" stroke="#000000" points="785.5,-125.1132 785.5,-147.1132 879.5,-147.1132 879.5,-125.1132 785.5,-125.1132"/>
<text text-anchor="start" x="788.5" y="-132.8132" font-family="Helvetica,sans-Serif" font-size="11.00" fill="#000000">timestamptz[35,6]</text>
<polygon fill="#ffffff" stroke="transparent" points="664.5,-103.1132 664.5,-125.1132 785.5,-125.1132 785.5,-103.1132 664.5,-103.1132"/>
<polygon fill="none" stroke="#000000" points="664.5,-103.1132 664.5,-125.1132 785.5,-125.1132 785.5,-103.1132 664.5,-103.1132"/>
<image xlink:href="../../images/foreignKeys.png" width="11px" height="12px" preserveAspectRatio="xMinYMin meet" x="669.5" y="-120.113"/>
<text text-anchor="start" x="684.5" y="-110.2132" font-family="Helvetica,sans-Serif" font-size="11.00" fill="#000000">CreatedByUserId</text>
<polygon fill="none" stroke="#000000" points="785.5,-103.1132 785.5,-125.1132 879.5,-125.1132 879.5,-103.1132 785.5,-103.1132"/>
<text text-anchor="start" x="788.5" y="-110.8132" font-family="Helvetica,sans-Serif" font-size="11.00" fill="#000000">text[2147483647]</text>
<polygon fill="#ffffff" stroke="transparent" points="664.5,-81.1132 664.5,-103.1132 785.5,-103.1132 785.5,-81.1132 664.5,-81.1132"/>
<polygon fill="none" stroke="#000000" points="664.5,-81.1132 664.5,-103.1132 785.5,-103.1132 785.5,-81.1132 664.5,-81.1132"/>
<image xlink:href="../../images/foreignKeys.png" width="11px" height="12px" preserveAspectRatio="xMinYMin meet" x="669.5" y="-98.1132"/>
<text text-anchor="start" x="684.5" y="-88.2132" font-family="Helvetica,sans-Serif" font-size="11.00" fill="#000000">UpdatedByUserId</text>
<polygon fill="none" stroke="#000000" points="785.5,-81.1132 785.5,-103.1132 879.5,-103.1132 879.5,-81.1132 785.5,-81.1132"/>
<text text-anchor="start" x="788.5" y="-88.8132" font-family="Helvetica,sans-Serif" font-size="11.00" fill="#000000">text[2147483647]</text>
<polygon fill="#ffffff" stroke="transparent" points="664.5,-62.1132 664.5,-81.1132 716.5,-81.1132 716.5,-62.1132 664.5,-62.1132"/>
<polygon fill="none" stroke="#000000" points="664.5,-62.1132 664.5,-81.1132 716.5,-81.1132 716.5,-62.1132 664.5,-62.1132"/>
<text text-anchor="start" x="667.5" y="-68.2132" font-family="Helvetica,sans-Serif" font-size="11.00" fill="#000000">&lt; 4</text>
<polygon fill="#ffffff" stroke="transparent" points="716.5,-62.1132 716.5,-81.1132 785.5,-81.1132 785.5,-62.1132 716.5,-62.1132"/>
<polygon fill="none" stroke="#000000" points="716.5,-62.1132 716.5,-81.1132 785.5,-81.1132 785.5,-62.1132 716.5,-62.1132"/>
<text text-anchor="start" x="750.1105" y="-68.2132" font-family="Helvetica,sans-Serif" font-size="11.00" fill="#000000">0 rows</text>
<polygon fill="#ffffff" stroke="transparent" points="785.5,-62.1132 785.5,-81.1132 879.5,-81.1132 879.5,-62.1132 785.5,-62.1132"/>
<polygon fill="none" stroke="#000000" points="785.5,-62.1132 785.5,-81.1132 879.5,-81.1132 879.5,-62.1132 785.5,-62.1132"/>
<text text-anchor="start" x="860.9053" y="-68.2132" font-family="Helvetica,sans-Serif" font-size="11.00" fill="#000000">0 &gt;</text>
<polygon fill="none" stroke="#000000" stroke-width="2" points="663,-61.1132 663,-281.1132 880,-281.1132 880,-61.1132 663,-61.1132"/>
</a>
</g>
</g>
<!-- StudentSubjects&#45;&gt;AspNetUsers -->
<g id="edge38" class="edge">
<title>StudentSubjects:w&#45;&gt;AspNetUsers:e</title>
<path fill="none" stroke="#000000" d="M649.8295,-113.8939C528.3817,-110.5638 245.8218,-71.3572 163,-139.1132 108.3487,-183.823 78.4287,-403.2943 68.6394,-489.3766"/>
<polygon fill="#000000" stroke="#000000" points="656.5009,-113.9936 664.4462,-117.7128 660.5004,-114.0534 664.5,-114.1132 664.5,-114.1132 664.5,-114.1132 660.5004,-114.0534 664.5538,-110.5136 656.5009,-113.9936 656.5009,-113.9936"/>
<ellipse fill="none" stroke="#000000" cx="653.3013" cy="-113.9457" rx="3.2" ry="3.2"/>
</g>
<!-- StudentSubjects&#45;&gt;AspNetUsers -->
<g id="edge41" class="edge">
<title>StudentSubjects:w&#45;&gt;AspNetUsers:e</title>
<path fill="none" stroke="#000000" d="M649.9753,-91.9236C436.9463,-86.3623 332.7459,38.6837 163,-98.1132 101.6941,-147.5191 75.3862,-396.7095 67.6183,-489.356"/>
<polygon fill="#000000" stroke="#000000" points="656.5007,-92.0087 664.453,-95.7129 660.5003,-92.0609 664.5,-92.1132 664.5,-92.1132 664.5,-92.1132 660.5003,-92.0609 664.547,-88.5135 656.5007,-92.0087 656.5007,-92.0087"/>
<ellipse fill="none" stroke="#000000" cx="653.301" cy="-91.9669" rx="3.2" ry="3.2"/>
</g>
<!-- StudentSubjects&#45;&gt;Students -->
<g id="edge39" class="edge">
<title>StudentSubjects:w&#45;&gt;Students:e</title>
<path fill="none" stroke="#000000" d="M650.312,-226.8352C622.898,-240.0747 652.099,-298.3095 619,-328.1132 598.1312,-346.9043 568.6364,-357.086 543.116,-362.6014"/>
<polygon fill="#000000" stroke="#000000" points="656.6433,-225.6206 665.1783,-227.6487 660.5716,-224.8669 664.5,-224.1132 664.5,-224.1132 664.5,-224.1132 660.5716,-224.8669 663.8217,-220.5776 656.6433,-225.6206 656.6433,-225.6206"/>
<ellipse fill="none" stroke="#000000" cx="653.5006" cy="-226.2235" rx="3.2" ry="3.2"/>
</g>
<!-- Subjects -->
<g id="node19" class="node">
<title>Subjects</title>
<g id="a_node19"><a xlink:href="../../tables/Subjects.html" xlink:title="Subjects" target="_top">
<polygon fill="#ffffff" stroke="transparent" points="445.5,-174.6132 445.5,-235.6132 534.5,-235.6132 534.5,-174.6132 445.5,-174.6132"/>
<polygon fill="#f5f5f5" stroke="transparent" points="446,-212.1132 446,-235.1132 535,-235.1132 535,-212.1132 446,-212.1132"/>
<polygon fill="none" stroke="#000000" points="446,-212.1132 446,-235.1132 535,-235.1132 535,-212.1132 446,-212.1132"/>
<text text-anchor="start" x="451" y="-220.7132" font-family="Helvetica,sans-Serif" font-weight="bold" font-size="11.00" fill="#000000">Subjects</text>
<text text-anchor="start" x="500.5219" y="-220.2132" font-family="Helvetica,sans-Serif" font-size="11.00" fill="#000000">[table]</text>
<polygon fill="none" stroke="#000000" points="446,-193.1132 446,-212.1132 535,-212.1132 535,-193.1132 446,-193.1132"/>
<text text-anchor="start" x="449" y="-199.2132" font-family="Helvetica,sans-Serif" font-size="11.00" fill="#000000">...</text>
<polygon fill="#ffffff" stroke="transparent" points="446,-174.1132 446,-193.1132 471,-193.1132 471,-174.1132 446,-174.1132"/>
<polygon fill="none" stroke="#000000" points="446,-174.1132 446,-193.1132 471,-193.1132 471,-174.1132 446,-174.1132"/>
<text text-anchor="start" x="449" y="-180.2132" font-family="Helvetica,sans-Serif" font-size="11.00" fill="#000000">&lt; 4</text>
<polygon fill="#ffffff" stroke="transparent" points="471,-174.1132 471,-193.1132 511,-193.1132 511,-174.1132 471,-174.1132"/>
<polygon fill="none" stroke="#000000" points="471,-174.1132 471,-193.1132 511,-193.1132 511,-174.1132 471,-174.1132"/>
<text text-anchor="start" x="475.6105" y="-180.2132" font-family="Helvetica,sans-Serif" font-size="11.00" fill="#000000">0 rows</text>
<polygon fill="#ffffff" stroke="transparent" points="511,-174.1132 511,-193.1132 535,-193.1132 535,-174.1132 511,-174.1132"/>
<polygon fill="none" stroke="#000000" points="511,-174.1132 511,-193.1132 535,-193.1132 535,-174.1132 511,-174.1132"/>
<text text-anchor="start" x="516.4053" y="-180.2132" font-family="Helvetica,sans-Serif" font-size="11.00" fill="#000000">1 &gt;</text>
</a>
</g>
</g>
<!-- StudentSubjects&#45;&gt;Subjects -->
<g id="edge40" class="edge">
<title>StudentSubjects:w&#45;&gt;Subjects:e</title>
<path fill="none" stroke="#000000" d="M649.9251,-202.1461C612.9066,-202.3081 573.2485,-203.0399 542.6852,-203.7361"/>
<polygon fill="#000000" stroke="#000000" points="656.5,-202.1313 664.5082,-205.7131 660.5,-202.1222 664.5,-202.1132 664.5,-202.1132 664.5,-202.1132 660.5,-202.1222 664.4918,-198.5132 656.5,-202.1313 656.5,-202.1313"/>
<ellipse fill="none" stroke="#000000" cx="653.3" cy="-202.1386" rx="3.2" ry="3.2"/>
</g>
<!-- Subjects&#45;&gt;AspNetUsers -->
<g id="edge42" class="edge">
<title>Subjects:w&#45;&gt;AspNetUsers:e</title>
<path fill="none" stroke="#000000" d="M423.2137,-179.1018C351.5867,-158.8142 238.0487,-142.6076 163,-198.1132 115.7018,-233.0946 81.9117,-412.9601 69.8542,-489.5802"/>
<polygon fill="#000000" stroke="#000000" points="429.7282,-181.0446 436.3657,-186.7807 433.5613,-182.1877 437.3945,-183.3309 437.3945,-183.3309 437.3945,-183.3309 433.5613,-182.1877 438.4234,-179.881 429.7282,-181.0446 429.7282,-181.0446"/>
<ellipse fill="none" stroke="#000000" cx="426.6616" cy="-180.13" rx="3.2" ry="3.2"/>
</g>
<!-- Subjects&#45;&gt;AspNetUsers -->
<g id="edge45" class="edge">
<title>Subjects:w&#45;&gt;AspNetUsers:e</title>
<path fill="none" stroke="#000000" d="M423.2137,-188.6575C351.5867,-171.8142 238.0487,-155.6076 163,-211.1132 117.1617,-245.0149 84.0104,-414.9953 71.0325,-489.3413"/>
<polygon fill="#000000" stroke="#000000" points="429.6234,-190.2245 436.5395,-195.6215 433.509,-191.1745 437.3945,-192.1245 437.3945,-192.1245 437.3945,-192.1245 433.509,-191.1745 438.2495,-188.6275 429.6234,-190.2245 429.6234,-190.2245"/>
<ellipse fill="none" stroke="#000000" cx="426.5149" cy="-189.4645" rx="3.2" ry="3.2"/>
</g>
<!-- Subjects&#45;&gt;TechnicalCareers -->
<g id="edge44" class="edge">
<title>Subjects:w&#45;&gt;TechnicalCareers:e</title>
<path fill="none" stroke="#000000" d="M423.318,-224.3148C403.0896,-230.6709 380.9478,-238.1676 361,-246.1132 340.1324,-254.425 337.962,-268.1132 315.5,-268.1132"/>
<polygon fill="#000000" stroke="#000000" points="429.662,-222.3589 438.3676,-223.4421 433.4845,-221.1804 437.3069,-220.0019 437.3069,-220.0019 437.3069,-220.0019 433.4845,-221.1804 436.2463,-216.5617 429.662,-222.3589 429.662,-222.3589"/>
<ellipse fill="none" stroke="#000000" cx="426.604" cy="-223.3017" rx="3.2" ry="3.2"/>
</g>
<!-- Subjects&#45;&gt;Professors -->
<g id="edge43" class="edge">
<title>Subjects:w&#45;&gt;Professors:e</title>
<path fill="none" stroke="#000000" d="M423.1814,-215.4885C401.4382,-221.5263 378.4396,-231.0623 361,-246.1132 311.5676,-288.7745 361.7959,-378.1132 296.5,-378.1132"/>
<polygon fill="#000000" stroke="#000000" points="429.4532,-213.9311 438.085,-215.497 433.3353,-212.9671 437.2174,-212.0031 437.2174,-212.0031 437.2174,-212.0031 433.3353,-212.9671 436.3498,-208.5092 429.4532,-213.9311 429.4532,-213.9311"/>
<ellipse fill="none" stroke="#000000" cx="426.3475" cy="-214.7023" rx="3.2" ry="3.2"/>
</g>
</g>
</svg>
