<?xml version="1.0" encoding="UTF-8" standalone="no"?>
<!DOCTYPE svg PUBLIC "-//W3C//DTD SVG 1.1//EN"
 "http://www.w3.org/Graphics/SVG/1.1/DTD/svg11.dtd">
<!-- Generated by graphviz version 2.40.1 (20161225.0304)
 -->
<!-- Title: oneDegreeRelationshipsDiagram Pages: 1 -->
<svg width="691pt" height="385pt"
 viewBox="0.00 0.00 691.00 384.70" xmlns="http://www.w3.org/2000/svg" xmlns:xlink="http://www.w3.org/1999/xlink">
<g id="graph0" class="graph" transform="scale(1 1) rotate(0) translate(4 380.7)">
<title>oneDegreeRelationshipsDiagram</title>
<polygon fill="#ffffff" stroke="transparent" points="-4,4 -4,-380.7 687,-380.7 687,4 -4,4"/>
<text text-anchor="middle" x="72.4936" y="-7.3" font-family="Helvetica,sans-Serif" font-size="11.00" fill="#000000">Generated by SchemaSpy</text>
<!-- EvaluationPeriods -->
<g id="node1" class="node">
<title>EvaluationPeriods</title>
<g id="a_node1"><a xlink:href="../../tables/EvaluationPeriods.html" xlink:title="EvaluationPeriods" target="_top">
<polygon fill="#ffffff" stroke="transparent" points="220,-119.7 220,-246.7 363,-246.7 363,-119.7 220,-119.7"/>
<polygon fill="#f5f5f5" stroke="transparent" points="220.5,-223.2 220.5,-246.2 363.5,-246.2 363.5,-223.2 220.5,-223.2"/>
<polygon fill="none" stroke="#000000" points="220.5,-223.2 220.5,-246.2 363.5,-246.2 363.5,-223.2 220.5,-223.2"/>
<text text-anchor="start" x="225.5" y="-231.8" font-family="Helvetica,sans-Serif" font-weight="bold" font-size="11.00" fill="#000000">EvaluationPeriods</text>
<text text-anchor="start" x="329.0219" y="-231.3" font-family="Helvetica,sans-Serif" font-size="11.00" fill="#000000">[table]</text>
<polygon fill="none" stroke="#000000" points="220.5,-201.2 220.5,-223.2 363.5,-223.2 363.5,-201.2 220.5,-201.2"/>
<image xlink:href="../../images/primaryKeys.png" width="11px" height="12px" preserveAspectRatio="xMinYMin meet" x="225.5" y="-218.2"/>
<text text-anchor="start" x="249.5" y="-208.3" font-family="Helvetica,sans-Serif" font-size="11.00" fill="#000000">Id</text>
<polygon fill="#ffffff" stroke="transparent" points="220.5,-179.2 220.5,-201.2 363.5,-201.2 363.5,-179.2 220.5,-179.2"/>
<polygon fill="none" stroke="#000000" points="220.5,-179.2 220.5,-201.2 363.5,-201.2 363.5,-179.2 220.5,-179.2"/>
<image xlink:href="../../images/foreignKeys.png" width="11px" height="12px" preserveAspectRatio="xMinYMin meet" x="225.5" y="-196.2"/>
<text text-anchor="start" x="249.5" y="-186.3" font-family="Helvetica,sans-Serif" font-size="11.00" fill="#000000">CreatedByUserId</text>
<polygon fill="#ffffff" stroke="transparent" points="220.5,-157.2 220.5,-179.2 363.5,-179.2 363.5,-157.2 220.5,-157.2"/>
<polygon fill="none" stroke="#000000" points="220.5,-157.2 220.5,-179.2 363.5,-179.2 363.5,-157.2 220.5,-157.2"/>
<image xlink:href="../../images/foreignKeys.png" width="11px" height="12px" preserveAspectRatio="xMinYMin meet" x="225.5" y="-174.2"/>
<text text-anchor="start" x="249.5" y="-164.3" font-family="Helvetica,sans-Serif" font-size="11.00" fill="#000000">UpdatedByUserId</text>
<polygon fill="none" stroke="#000000" points="220.5,-138.2 220.5,-157.2 363.5,-157.2 363.5,-138.2 220.5,-138.2"/>
<text text-anchor="start" x="223.5" y="-144.3" font-family="Helvetica,sans-Serif" font-size="11.00" fill="#000000">...</text>
<polygon fill="#ffffff" stroke="transparent" points="220.5,-119.2 220.5,-138.2 272.5,-138.2 272.5,-119.2 220.5,-119.2"/>
<polygon fill="none" stroke="#000000" points="220.5,-119.2 220.5,-138.2 272.5,-138.2 272.5,-119.2 220.5,-119.2"/>
<text text-anchor="start" x="223.5" y="-125.3" font-family="Helvetica,sans-Serif" font-size="11.00" fill="#000000">&lt; 2</text>
<polygon fill="#ffffff" stroke="transparent" points="272.5,-119.2 272.5,-138.2 326.5,-138.2 326.5,-119.2 272.5,-119.2"/>
<polygon fill="none" stroke="#000000" points="272.5,-119.2 272.5,-138.2 326.5,-138.2 326.5,-119.2 272.5,-119.2"/>
<text text-anchor="start" x="291.1105" y="-125.3" font-family="Helvetica,sans-Serif" font-size="11.00" fill="#000000">0 rows</text>
<polygon fill="#ffffff" stroke="transparent" points="326.5,-119.2 326.5,-138.2 363.5,-138.2 363.5,-119.2 326.5,-119.2"/>
<polygon fill="none" stroke="#000000" points="326.5,-119.2 326.5,-138.2 363.5,-138.2 363.5,-119.2 326.5,-119.2"/>
<text text-anchor="start" x="344.9053" y="-125.3" font-family="Helvetica,sans-Serif" font-size="11.00" fill="#000000">3 &gt;</text>
</a>
</g>
</g>
<!-- AspNetUsers -->
<g id="node2" class="node">
<title>AspNetUsers</title>
<g id="a_node2"><a xlink:href="../../tables/AspNetUsers.html" xlink:title="AspNetUsers" target="_top">
<polygon fill="#ffffff" stroke="transparent" points="8,-75.7 8,-202.7 171,-202.7 171,-75.7 8,-75.7"/>
<polygon fill="#f5f5f5" stroke="transparent" points="8.5,-179.2 8.5,-202.2 171.5,-202.2 171.5,-179.2 8.5,-179.2"/>
<polygon fill="none" stroke="#000000" points="8.5,-179.2 8.5,-202.2 171.5,-202.2 171.5,-179.2 8.5,-179.2"/>
<text text-anchor="start" x="13.5" y="-187.8" font-family="Helvetica,sans-Serif" font-weight="bold" font-size="11.00" fill="#000000">AspNetUsers</text>
<text text-anchor="start" x="136.5437" y="-187.3" font-family="Helvetica,sans-Serif" font-size="11.00" fill="#000000">[table]</text>
<polygon fill="none" stroke="#000000" points="8.5,-157.2 8.5,-179.2 171.5,-179.2 171.5,-157.2 8.5,-157.2"/>
<image xlink:href="../../images/primaryKeys.png" width="11px" height="12px" preserveAspectRatio="xMinYMin meet" x="13.5" y="-174.2"/>
<text text-anchor="start" x="28.5" y="-164.3" font-family="Helvetica,sans-Serif" font-size="11.00" fill="#000000">Id</text>
<polygon fill="#ffffff" stroke="transparent" points="8.5,-135.2 8.5,-157.2 171.5,-157.2 171.5,-135.2 8.5,-135.2"/>
<polygon fill="none" stroke="#000000" points="8.5,-135.2 8.5,-157.2 171.5,-157.2 171.5,-135.2 8.5,-135.2"/>
<text text-anchor="start" x="28.5" y="-142.3" font-family="Helvetica,sans-Serif" font-size="11.00" fill="#000000">NormalizedUserName</text>
<polygon fill="#ffffff" stroke="transparent" points="8.5,-113.2 8.5,-135.2 171.5,-135.2 171.5,-113.2 8.5,-113.2"/>
<polygon fill="none" stroke="#000000" points="8.5,-113.2 8.5,-135.2 171.5,-135.2 171.5,-113.2 8.5,-113.2"/>
<text text-anchor="start" x="28.5" y="-120.3" font-family="Helvetica,sans-Serif" font-size="11.00" fill="#000000">NormalizedEmail</text>
<polygon fill="none" stroke="#000000" points="8.5,-94.2 8.5,-113.2 171.5,-113.2 171.5,-94.2 8.5,-94.2"/>
<text text-anchor="start" x="11.5" y="-100.3" font-family="Helvetica,sans-Serif" font-size="11.00" fill="#000000">...</text>
<polygon fill="#ffffff" stroke="transparent" points="8.5,-75.2 8.5,-94.2 63.5,-94.2 63.5,-75.2 8.5,-75.2"/>
<polygon fill="none" stroke="#000000" points="8.5,-75.2 8.5,-94.2 63.5,-94.2 63.5,-75.2 8.5,-75.2"/>
<text text-anchor="start" x="11.5" y="-81.3" font-family="Helvetica,sans-Serif" font-size="11.00" fill="#000000"> &#160;</text>
<polygon fill="#ffffff" stroke="transparent" points="63.5,-75.2 63.5,-94.2 122.5,-94.2 122.5,-75.2 63.5,-75.2"/>
<polygon fill="none" stroke="#000000" points="63.5,-75.2 63.5,-94.2 122.5,-94.2 122.5,-75.2 63.5,-75.2"/>
<text text-anchor="start" x="87.1105" y="-81.3" font-family="Helvetica,sans-Serif" font-size="11.00" fill="#000000">0 rows</text>
<polygon fill="#ffffff" stroke="transparent" points="122.5,-75.2 122.5,-94.2 171.5,-94.2 171.5,-75.2 122.5,-75.2"/>
<polygon fill="none" stroke="#000000" points="122.5,-75.2 122.5,-94.2 171.5,-94.2 171.5,-75.2 122.5,-75.2"/>
<text text-anchor="start" x="146.7904" y="-81.3" font-family="Helvetica,sans-Serif" font-size="11.00" fill="#000000">29 &gt;</text>
</a>
</g>
</g>
<!-- EvaluationPeriods&#45;&gt;AspNetUsers -->
<g id="edge1" class="edge">
<title>EvaluationPeriods:w&#45;&gt;AspNetUsers:e</title>
<path fill="none" stroke="#000000" d="M206.1297,-186.7625C194.5865,-180.575 189.4041,-168.2 171.5,-168.2"/>
<polygon fill="#000000" stroke="#000000" points="212.7195,-188.3388 219.6625,-193.7012 216.6098,-189.2694 220.5,-190.2 220.5,-190.2 220.5,-190.2 216.6098,-189.2694 221.3375,-186.6988 212.7195,-188.3388 212.7195,-188.3388"/>
<ellipse fill="none" stroke="#000000" cx="209.6073" cy="-187.5943" rx="3.2" ry="3.2"/>
</g>
<!-- EvaluationPeriods&#45;&gt;AspNetUsers -->
<g id="edge2" class="edge">
<title>EvaluationPeriods:w&#45;&gt;AspNetUsers:e</title>
<path fill="none" stroke="#000000" d="M205.9909,-168.2C194.6774,-168.2 187.4931,-168.2 171.5,-168.2"/>
<polygon fill="#000000" stroke="#000000" points="212.5,-168.2001 220.5,-171.8 216.5,-168.2 220.5,-168.2 220.5,-168.2 220.5,-168.2 216.5,-168.2 220.5,-164.6 212.5,-168.2001 212.5,-168.2001"/>
<ellipse fill="none" stroke="#000000" cx="209.3" cy="-168.2001" rx="3.2" ry="3.2"/>
</g>
<!-- StudentEvaluationReport -->
<g id="node3" class="node">
<title>StudentEvaluationReport</title>
<g id="a_node3"><a xlink:href="../../tables/StudentEvaluationReport.html" xlink:title="StudentEvaluationReport" target="_top">
<polygon fill="#ffffff" stroke="transparent" points="412,-38.2 412,-326.2 675,-326.2 675,-38.2 412,-38.2"/>
<polygon fill="#f5f5f5" stroke="transparent" points="414.5,-301.2 414.5,-324.2 673.5,-324.2 673.5,-301.2 414.5,-301.2"/>
<polygon fill="none" stroke="#000000" points="414.5,-301.2 414.5,-324.2 673.5,-324.2 673.5,-301.2 414.5,-301.2"/>
<text text-anchor="start" x="419.5" y="-309.8" font-family="Helvetica,sans-Serif" font-weight="bold" font-size="11.00" fill="#000000">StudentEvaluationReport</text>
<text text-anchor="start" x="638.5437" y="-309.3" font-family="Helvetica,sans-Serif" font-size="11.00" fill="#000000">[table]</text>
<polygon fill="none" stroke="#000000" points="414.5,-279.2 414.5,-301.2 579.5,-301.2 579.5,-279.2 414.5,-279.2"/>
<image xlink:href="../../images/primaryKeys.png" width="11px" height="12px" preserveAspectRatio="xMinYMin meet" x="419.5" y="-296.2"/>
<text text-anchor="start" x="434.5" y="-286.3" font-family="Helvetica,sans-Serif" font-size="11.00" fill="#000000">Id</text>
<polygon fill="none" stroke="#000000" points="579.5,-279.2 579.5,-301.2 673.5,-301.2 673.5,-279.2 579.5,-279.2"/>
<text text-anchor="start" x="582.4758" y="-286.9" font-family="Helvetica,sans-Serif" font-size="11.00" fill="#000000">uuid[2147483647]</text>
<polygon fill="#ffffff" stroke="transparent" points="414.5,-257.2 414.5,-279.2 579.5,-279.2 579.5,-257.2 414.5,-257.2"/>
<polygon fill="none" stroke="#000000" points="414.5,-257.2 414.5,-279.2 579.5,-279.2 579.5,-257.2 414.5,-257.2"/>
<image xlink:href="../../images/foreignKeys.png" width="11px" height="12px" preserveAspectRatio="xMinYMin meet" x="419.5" y="-274.2"/>
<text text-anchor="start" x="434.5" y="-264.3" font-family="Helvetica,sans-Serif" font-size="11.00" fill="#000000">StudentId</text>
<polygon fill="none" stroke="#000000" points="579.5,-257.2 579.5,-279.2 673.5,-279.2 673.5,-257.2 579.5,-257.2"/>
<text text-anchor="start" x="582.5" y="-264.9" font-family="Helvetica,sans-Serif" font-size="11.00" fill="#000000">text[2147483647]</text>
<polygon fill="#ffffff" stroke="transparent" points="414.5,-235.2 414.5,-257.2 579.5,-257.2 579.5,-235.2 414.5,-235.2"/>
<polygon fill="none" stroke="#000000" points="414.5,-235.2 414.5,-257.2 579.5,-257.2 579.5,-235.2 414.5,-235.2"/>
<image xlink:href="../../images/foreignKeys.png" width="11px" height="12px" preserveAspectRatio="xMinYMin meet" x="419.5" y="-252.2"/>
<text text-anchor="start" x="434.5" y="-242.3" font-family="Helvetica,sans-Serif" font-size="11.00" fill="#000000">EvaluationPeriodId</text>
<polygon fill="none" stroke="#000000" points="579.5,-235.2 579.5,-257.2 673.5,-257.2 673.5,-235.2 579.5,-235.2"/>
<text text-anchor="start" x="582.4758" y="-242.9" font-family="Helvetica,sans-Serif" font-size="11.00" fill="#000000">uuid[2147483647]</text>
<polygon fill="none" stroke="#000000" points="414.5,-213.2 414.5,-235.2 579.5,-235.2 579.5,-213.2 414.5,-213.2"/>
<text text-anchor="start" x="434.5" y="-220.3" font-family="Helvetica,sans-Serif" font-size="11.00" fill="#000000">GeneratedAt</text>
<polygon fill="none" stroke="#000000" points="579.5,-213.2 579.5,-235.2 673.5,-235.2 673.5,-213.2 579.5,-213.2"/>
<text text-anchor="start" x="582.5" y="-220.9" font-family="Helvetica,sans-Serif" font-size="11.00" fill="#000000">timestamptz[35,6]</text>
<polygon fill="none" stroke="#000000" points="414.5,-191.2 414.5,-213.2 579.5,-213.2 579.5,-191.2 414.5,-191.2"/>
<text text-anchor="start" x="434.5" y="-198.3" font-family="Helvetica,sans-Serif" font-size="11.00" fill="#000000">ReportData</text>
<polygon fill="none" stroke="#000000" points="579.5,-191.2 579.5,-213.2 673.5,-213.2 673.5,-191.2 579.5,-191.2"/>
<text text-anchor="start" x="582.5" y="-198.9" font-family="Helvetica,sans-Serif" font-size="11.00" fill="#000000">text[2147483647]</text>
<polygon fill="none" stroke="#000000" points="414.5,-169.2 414.5,-191.2 579.5,-191.2 579.5,-169.2 414.5,-169.2"/>
<text text-anchor="start" x="434.5" y="-176.3" font-family="Helvetica,sans-Serif" font-size="11.00" fill="#000000">Status</text>
<polygon fill="none" stroke="#000000" points="579.5,-169.2 579.5,-191.2 673.5,-191.2 673.5,-169.2 579.5,-169.2"/>
<text text-anchor="start" x="582.5" y="-176.9" font-family="Helvetica,sans-Serif" font-size="11.00" fill="#000000">text[2147483647]</text>
<polygon fill="none" stroke="#000000" points="414.5,-147.2 414.5,-169.2 579.5,-169.2 579.5,-147.2 414.5,-147.2"/>
<text text-anchor="start" x="434.5" y="-154.3" font-family="Helvetica,sans-Serif" font-size="11.00" fill="#000000">IsActive</text>
<polygon fill="none" stroke="#000000" points="579.5,-147.2 579.5,-169.2 673.5,-169.2 673.5,-147.2 579.5,-147.2"/>
<text text-anchor="start" x="582.5" y="-154.9" font-family="Helvetica,sans-Serif" font-size="11.00" fill="#000000">bool[1]</text>
<polygon fill="none" stroke="#000000" points="414.5,-125.2 414.5,-147.2 579.5,-147.2 579.5,-125.2 414.5,-125.2"/>
<text text-anchor="start" x="434.5" y="-132.3" font-family="Helvetica,sans-Serif" font-size="11.00" fill="#000000">CreatedAt</text>
<polygon fill="none" stroke="#000000" points="579.5,-125.2 579.5,-147.2 673.5,-147.2 673.5,-125.2 579.5,-125.2"/>
<text text-anchor="start" x="582.5" y="-132.9" font-family="Helvetica,sans-Serif" font-size="11.00" fill="#000000">timestamptz[35,6]</text>
<polygon fill="none" stroke="#000000" points="414.5,-103.2 414.5,-125.2 579.5,-125.2 579.5,-103.2 414.5,-103.2"/>
<text text-anchor="start" x="434.5" y="-110.3" font-family="Helvetica,sans-Serif" font-size="11.00" fill="#000000">UpdatedAt</text>
<polygon fill="none" stroke="#000000" points="579.5,-103.2 579.5,-125.2 673.5,-125.2 673.5,-103.2 579.5,-103.2"/>
<text text-anchor="start" x="582.5" y="-110.9" font-family="Helvetica,sans-Serif" font-size="11.00" fill="#000000">timestamptz[35,6]</text>
<polygon fill="#ffffff" stroke="transparent" points="414.5,-81.2 414.5,-103.2 579.5,-103.2 579.5,-81.2 414.5,-81.2"/>
<polygon fill="none" stroke="#000000" points="414.5,-81.2 414.5,-103.2 579.5,-103.2 579.5,-81.2 414.5,-81.2"/>
<image xlink:href="../../images/foreignKeys.png" width="11px" height="12px" preserveAspectRatio="xMinYMin meet" x="419.5" y="-98.2"/>
<text text-anchor="start" x="434.5" y="-88.3" font-family="Helvetica,sans-Serif" font-size="11.00" fill="#000000">CreatedByUserId</text>
<polygon fill="none" stroke="#000000" points="579.5,-81.2 579.5,-103.2 673.5,-103.2 673.5,-81.2 579.5,-81.2"/>
<text text-anchor="start" x="582.5" y="-88.9" font-family="Helvetica,sans-Serif" font-size="11.00" fill="#000000">text[2147483647]</text>
<polygon fill="#ffffff" stroke="transparent" points="414.5,-59.2 414.5,-81.2 579.5,-81.2 579.5,-59.2 414.5,-59.2"/>
<polygon fill="none" stroke="#000000" points="414.5,-59.2 414.5,-81.2 579.5,-81.2 579.5,-59.2 414.5,-59.2"/>
<image xlink:href="../../images/foreignKeys.png" width="11px" height="12px" preserveAspectRatio="xMinYMin meet" x="419.5" y="-76.2"/>
<text text-anchor="start" x="434.5" y="-66.3" font-family="Helvetica,sans-Serif" font-size="11.00" fill="#000000">UpdatedByUserId</text>
<polygon fill="none" stroke="#000000" points="579.5,-59.2 579.5,-81.2 673.5,-81.2 673.5,-59.2 579.5,-59.2"/>
<text text-anchor="start" x="582.5" y="-66.9" font-family="Helvetica,sans-Serif" font-size="11.00" fill="#000000">text[2147483647]</text>
<polygon fill="#ffffff" stroke="transparent" points="414.5,-40.2 414.5,-59.2 488.5,-59.2 488.5,-40.2 414.5,-40.2"/>
<polygon fill="none" stroke="#000000" points="414.5,-40.2 414.5,-59.2 488.5,-59.2 488.5,-40.2 414.5,-40.2"/>
<text text-anchor="start" x="417.5" y="-46.3" font-family="Helvetica,sans-Serif" font-size="11.00" fill="#000000">&lt; 4</text>
<polygon fill="#ffffff" stroke="transparent" points="488.5,-40.2 488.5,-59.2 579.5,-59.2 579.5,-40.2 488.5,-40.2"/>
<polygon fill="none" stroke="#000000" points="488.5,-40.2 488.5,-59.2 579.5,-59.2 579.5,-40.2 488.5,-40.2"/>
<text text-anchor="start" x="544.1105" y="-46.3" font-family="Helvetica,sans-Serif" font-size="11.00" fill="#000000">0 rows</text>
<polygon fill="#ffffff" stroke="transparent" points="579.5,-40.2 579.5,-59.2 673.5,-59.2 673.5,-40.2 579.5,-40.2"/>
<polygon fill="none" stroke="#000000" points="579.5,-40.2 579.5,-59.2 673.5,-59.2 673.5,-40.2 579.5,-40.2"/>
<text text-anchor="start" x="654.9053" y="-46.3" font-family="Helvetica,sans-Serif" font-size="11.00" fill="#000000">0 &gt;</text>
<polygon fill="none" stroke="#000000" stroke-width="2" points="413,-39.2 413,-325.2 674,-325.2 674,-39.2 413,-39.2"/>
</a>
</g>
</g>
<!-- StudentEvaluationReport&#45;&gt;EvaluationPeriods -->
<g id="edge4" class="edge">
<title>StudentEvaluationReport:w&#45;&gt;EvaluationPeriods:e</title>
<path fill="none" stroke="#000000" d="M400.3901,-242.0309C387.312,-232.952 384.7828,-212.2 363.5,-212.2"/>
<polygon fill="#000000" stroke="#000000" points="406.8279,-243.9331 413.4799,-249.6524 410.6639,-245.0665 414.5,-246.2 414.5,-246.2 414.5,-246.2 410.6639,-245.0665 415.5201,-242.7476 406.8279,-243.9331 406.8279,-243.9331"/>
<ellipse fill="none" stroke="#000000" cx="403.759" cy="-243.0263" rx="3.2" ry="3.2"/>
</g>
<!-- StudentEvaluationReport&#45;&gt;AspNetUsers -->
<g id="edge3" class="edge">
<title>StudentEvaluationReport:w&#45;&gt;AspNetUsers:e</title>
<path fill="none" stroke="#000000" d="M399.6761,-91.9454C320.1796,-89.2212 285.6627,-66.3862 212,-109.2 184.5015,-125.1825 203.3057,-168.2 171.5,-168.2"/>
<polygon fill="#000000" stroke="#000000" points="406.5012,-92.0626 414.4381,-95.7995 410.5006,-92.1313 414.5,-92.2 414.5,-92.2 414.5,-92.2 410.5006,-92.1313 414.5619,-88.6005 406.5012,-92.0626 406.5012,-92.0626"/>
<ellipse fill="none" stroke="#000000" cx="403.3017" cy="-92.0076" rx="3.2" ry="3.2"/>
</g>
<!-- StudentEvaluationReport&#45;&gt;AspNetUsers -->
<g id="edge6" class="edge">
<title>StudentEvaluationReport:w&#45;&gt;AspNetUsers:e</title>
<path fill="none" stroke="#000000" d="M399.6728,-69.8434C319.9771,-66.0144 282.4302,-33.5631 212,-81.2 176.6712,-105.0953 214.151,-168.2 171.5,-168.2"/>
<polygon fill="#000000" stroke="#000000" points="406.5023,-70.0076 414.4134,-73.799 410.5012,-70.1038 414.5,-70.2 414.5,-70.2 414.5,-70.2 410.5012,-70.1038 414.5866,-66.601 406.5023,-70.0076 406.5023,-70.0076"/>
<ellipse fill="none" stroke="#000000" cx="403.3032" cy="-69.9306" rx="3.2" ry="3.2"/>
</g>
<!-- Students -->
<g id="node4" class="node">
<title>Students</title>
<g id="a_node4"><a xlink:href="../../tables/Students.html" xlink:title="Students" target="_top">
<polygon fill="#ffffff" stroke="transparent" points="229,-267.7 229,-372.7 354,-372.7 354,-267.7 229,-267.7"/>
<polygon fill="#f5f5f5" stroke="transparent" points="229.5,-349.2 229.5,-372.2 354.5,-372.2 354.5,-349.2 229.5,-349.2"/>
<polygon fill="none" stroke="#000000" points="229.5,-349.2 229.5,-372.2 354.5,-372.2 354.5,-349.2 229.5,-349.2"/>
<text text-anchor="start" x="234.5" y="-357.8" font-family="Helvetica,sans-Serif" font-weight="bold" font-size="11.00" fill="#000000">Students</text>
<text text-anchor="start" x="319.5437" y="-357.3" font-family="Helvetica,sans-Serif" font-size="11.00" fill="#000000">[table]</text>
<polygon fill="none" stroke="#000000" points="229.5,-327.2 229.5,-349.2 354.5,-349.2 354.5,-327.2 229.5,-327.2"/>
<image xlink:href="../../images/primaryKeys.png" width="11px" height="12px" preserveAspectRatio="xMinYMin meet" x="234.5" y="-344.2"/>
<text text-anchor="start" x="249.5" y="-334.3" font-family="Helvetica,sans-Serif" font-size="11.00" fill="#000000">UserId</text>
<polygon fill="#ffffff" stroke="transparent" points="229.5,-305.2 229.5,-327.2 354.5,-327.2 354.5,-305.2 229.5,-305.2"/>
<polygon fill="none" stroke="#000000" points="229.5,-305.2 229.5,-327.2 354.5,-327.2 354.5,-305.2 229.5,-305.2"/>
<image xlink:href="../../images/foreignKeys.png" width="11px" height="12px" preserveAspectRatio="xMinYMin meet" x="234.5" y="-322.2"/>
<text text-anchor="start" x="249.5" y="-312.3" font-family="Helvetica,sans-Serif" font-size="11.00" fill="#000000">TechnicalCareerId</text>
<polygon fill="none" stroke="#000000" points="229.5,-286.2 229.5,-305.2 354.5,-305.2 354.5,-286.2 229.5,-286.2"/>
<text text-anchor="start" x="232.5" y="-292.3" font-family="Helvetica,sans-Serif" font-size="11.00" fill="#000000">...</text>
<polygon fill="#ffffff" stroke="transparent" points="229.5,-267.2 229.5,-286.2 272.5,-286.2 272.5,-267.2 229.5,-267.2"/>
<polygon fill="none" stroke="#000000" points="229.5,-267.2 229.5,-286.2 272.5,-286.2 272.5,-267.2 229.5,-267.2"/>
<text text-anchor="start" x="232.5" y="-273.3" font-family="Helvetica,sans-Serif" font-size="11.00" fill="#000000">&lt; 2</text>
<polygon fill="#ffffff" stroke="transparent" points="272.5,-267.2 272.5,-286.2 321.5,-286.2 321.5,-267.2 272.5,-267.2"/>
<polygon fill="none" stroke="#000000" points="272.5,-267.2 272.5,-286.2 321.5,-286.2 321.5,-267.2 272.5,-267.2"/>
<text text-anchor="start" x="286.1105" y="-273.3" font-family="Helvetica,sans-Serif" font-size="11.00" fill="#000000">0 rows</text>
<polygon fill="#ffffff" stroke="transparent" points="321.5,-267.2 321.5,-286.2 354.5,-286.2 354.5,-267.2 321.5,-267.2"/>
<polygon fill="none" stroke="#000000" points="321.5,-267.2 321.5,-286.2 354.5,-286.2 354.5,-267.2 321.5,-267.2"/>
<text text-anchor="start" x="335.9053" y="-273.3" font-family="Helvetica,sans-Serif" font-size="11.00" fill="#000000">3 &gt;</text>
</a>
</g>
</g>
<!-- StudentEvaluationReport&#45;&gt;Students -->
<g id="edge5" class="edge">
<title>StudentEvaluationReport:w&#45;&gt;Students:e</title>
<path fill="none" stroke="#000000" d="M400.5966,-271.9635C378.4537,-286.5032 389.7135,-338.2 354.5,-338.2"/>
<polygon fill="#000000" stroke="#000000" points="406.7779,-270.2903 415.4406,-271.6749 410.639,-269.2452 414.5,-268.2 414.5,-268.2 414.5,-268.2 410.639,-269.2452 413.5594,-264.7251 406.7779,-270.2903 406.7779,-270.2903"/>
<ellipse fill="none" stroke="#000000" cx="403.6891" cy="-271.1265" rx="3.2" ry="3.2"/>
</g>
<!-- Students&#45;&gt;AspNetUsers -->
<g id="edge7" class="edge">
<title>Students:w&#45;&gt;AspNetUsers:e</title>
<path fill="none" stroke="#000000" d="M219.0618,-337.0236C159.1635,-322.0037 247.4339,-168.2 171.5,-168.2"/>
<polygon fill="#000000" stroke="#000000" points="229.153,-334.1356 228.257,-342.0852 226.6671,-341.906 227.5631,-333.9564 229.153,-334.1356"/>
<polyline fill="none" stroke="#000000" points="229.5,-338.2 225.5252,-337.752 "/>
<ellipse fill="none" stroke="#000000" cx="222.3453" cy="-337.3936" rx="3.2" ry="3.2"/>
</g>
</g>
</svg>
