<?xml version="1.0" encoding="UTF-8" standalone="no"?>
<!DOCTYPE svg PUBLIC "-//W3C//DTD SVG 1.1//EN"
 "http://www.w3.org/Graphics/SVG/1.1/DTD/svg11.dtd">
<!-- Generated by graphviz version 2.40.1 (20161225.0304)
 -->
<!-- Title: twoDegreesRelationshipsDiagram Pages: 1 -->
<svg width="1143pt" height="1137pt"
 viewBox="0.00 0.00 1143.00 1137.06" xmlns="http://www.w3.org/2000/svg" xmlns:xlink="http://www.w3.org/1999/xlink">
<g id="graph0" class="graph" transform="scale(1 1) rotate(0) translate(4 1133.0612)">
<title>twoDegreesRelationshipsDiagram</title>
<polygon fill="#ffffff" stroke="transparent" points="-4,4 -4,-1133.0612 1139,-1133.0612 1139,4 -4,4"/>
<text text-anchor="middle" x="72.4936" y="-7.3" font-family="Helvetica,sans-Serif" font-size="11.00" fill="#000000">Generated by SchemaSpy</text>
<!-- AspNetUserClaims -->
<g id="node1" class="node">
<title>AspNetUserClaims</title>
<g id="a_node1"><a xlink:href="../../tables/AspNetUserClaims.html" xlink:title="AspNetUserClaims" target="_top">
<polygon fill="#ffffff" stroke="transparent" points="172,-1064.0612 172,-1125.0612 319,-1125.0612 319,-1064.0612 172,-1064.0612"/>
<polygon fill="#f5f5f5" stroke="transparent" points="172.5,-1101.5612 172.5,-1124.5612 319.5,-1124.5612 319.5,-1101.5612 172.5,-1101.5612"/>
<polygon fill="none" stroke="#000000" points="172.5,-1101.5612 172.5,-1124.5612 319.5,-1124.5612 319.5,-1101.5612 172.5,-1101.5612"/>
<text text-anchor="start" x="177.5" y="-1110.1612" font-family="Helvetica,sans-Serif" font-weight="bold" font-size="11.00" fill="#000000">AspNetUserClaims</text>
<text text-anchor="start" x="285.0219" y="-1109.6612" font-family="Helvetica,sans-Serif" font-size="11.00" fill="#000000">[table]</text>
<polygon fill="none" stroke="#000000" points="172.5,-1082.5612 172.5,-1101.5612 319.5,-1101.5612 319.5,-1082.5612 172.5,-1082.5612"/>
<text text-anchor="start" x="175.5" y="-1088.6612" font-family="Helvetica,sans-Serif" font-size="11.00" fill="#000000">...</text>
<polygon fill="#ffffff" stroke="transparent" points="172.5,-1063.5612 172.5,-1082.5612 231.5,-1082.5612 231.5,-1063.5612 172.5,-1063.5612"/>
<polygon fill="none" stroke="#000000" points="172.5,-1063.5612 172.5,-1082.5612 231.5,-1082.5612 231.5,-1063.5612 172.5,-1063.5612"/>
<text text-anchor="start" x="175.5" y="-1069.6612" font-family="Helvetica,sans-Serif" font-size="11.00" fill="#000000">&lt; 1</text>
<polygon fill="#ffffff" stroke="transparent" points="231.5,-1063.5612 231.5,-1082.5612 288.5,-1082.5612 288.5,-1063.5612 231.5,-1063.5612"/>
<polygon fill="none" stroke="#000000" points="231.5,-1063.5612 231.5,-1082.5612 288.5,-1082.5612 288.5,-1063.5612 231.5,-1063.5612"/>
<text text-anchor="start" x="253.1105" y="-1069.6612" font-family="Helvetica,sans-Serif" font-size="11.00" fill="#000000">0 rows</text>
<polygon fill="#ffffff" stroke="transparent" points="288.5,-1063.5612 288.5,-1082.5612 319.5,-1082.5612 319.5,-1063.5612 288.5,-1063.5612"/>
<polygon fill="none" stroke="#000000" points="288.5,-1063.5612 288.5,-1082.5612 319.5,-1082.5612 319.5,-1063.5612 288.5,-1063.5612"/>
<text text-anchor="start" x="310.3862" y="-1069.6612" font-family="Helvetica,sans-Serif" font-size="11.00" fill="#000000"> &#160;</text>
</a>
</g>
</g>
<!-- AspNetUsers -->
<g id="node2" class="node">
<title>AspNetUsers</title>
<g id="a_node2"><a xlink:href="../../tables/AspNetUsers.html" xlink:title="AspNetUsers" target="_top">
<polygon fill="#ffffff" stroke="transparent" points="8,-518.0612 8,-579.0612 122,-579.0612 122,-518.0612 8,-518.0612"/>
<polygon fill="#f5f5f5" stroke="transparent" points="8,-555.5612 8,-578.5612 122,-578.5612 122,-555.5612 8,-555.5612"/>
<polygon fill="none" stroke="#000000" points="8,-555.5612 8,-578.5612 122,-578.5612 122,-555.5612 8,-555.5612"/>
<text text-anchor="start" x="13" y="-564.1612" font-family="Helvetica,sans-Serif" font-weight="bold" font-size="11.00" fill="#000000">AspNetUsers</text>
<text text-anchor="start" x="87.5219" y="-563.6612" font-family="Helvetica,sans-Serif" font-size="11.00" fill="#000000">[table]</text>
<polygon fill="none" stroke="#000000" points="8,-536.5612 8,-555.5612 122,-555.5612 122,-536.5612 8,-536.5612"/>
<text text-anchor="start" x="11" y="-542.6612" font-family="Helvetica,sans-Serif" font-size="11.00" fill="#000000">...</text>
<polygon fill="#ffffff" stroke="transparent" points="8,-517.5612 8,-536.5612 38,-536.5612 38,-517.5612 8,-517.5612"/>
<polygon fill="none" stroke="#000000" points="8,-517.5612 8,-536.5612 38,-536.5612 38,-517.5612 8,-517.5612"/>
<text text-anchor="start" x="11" y="-523.6612" font-family="Helvetica,sans-Serif" font-size="11.00" fill="#000000"> &#160;</text>
<polygon fill="#ffffff" stroke="transparent" points="38,-517.5612 38,-536.5612 85,-536.5612 85,-517.5612 38,-517.5612"/>
<polygon fill="none" stroke="#000000" points="38,-517.5612 38,-536.5612 85,-536.5612 85,-517.5612 38,-517.5612"/>
<text text-anchor="start" x="49.6105" y="-523.6612" font-family="Helvetica,sans-Serif" font-size="11.00" fill="#000000">0 rows</text>
<polygon fill="#ffffff" stroke="transparent" points="85,-517.5612 85,-536.5612 122,-536.5612 122,-517.5612 85,-517.5612"/>
<polygon fill="none" stroke="#000000" points="85,-517.5612 85,-536.5612 122,-536.5612 122,-517.5612 85,-517.5612"/>
<text text-anchor="start" x="97.2904" y="-523.6612" font-family="Helvetica,sans-Serif" font-size="11.00" fill="#000000">29 &gt;</text>
</a>
</g>
</g>
<!-- AspNetUserClaims&#45;&gt;AspNetUsers -->
<g id="edge1" class="edge">
<title>AspNetUserClaims:w&#45;&gt;AspNetUsers:e</title>
<path fill="none" stroke="#000000" d="M159.9337,-1084.0838C113.9705,-1029.6526 78.6289,-693.369 68.1731,-583.3543"/>
<polygon fill="#000000" stroke="#000000" points="165.625,-1087.4704 170.6591,-1094.655 169.0625,-1089.5158 172.5,-1091.5612 172.5,-1091.5612 172.5,-1091.5612 169.0625,-1089.5158 174.3409,-1088.4675 165.625,-1087.4704 165.625,-1087.4704"/>
<ellipse fill="none" stroke="#000000" cx="162.875" cy="-1085.834" rx="3.2" ry="3.2"/>
</g>
<!-- AspNetUserLogins -->
<g id="node3" class="node">
<title>AspNetUserLogins</title>
<g id="a_node3"><a xlink:href="../../tables/AspNetUserLogins.html" xlink:title="AspNetUserLogins" target="_top">
<polygon fill="#ffffff" stroke="transparent" points="172,-982.0612 172,-1043.0612 319,-1043.0612 319,-982.0612 172,-982.0612"/>
<polygon fill="#f5f5f5" stroke="transparent" points="172.5,-1019.5612 172.5,-1042.5612 319.5,-1042.5612 319.5,-1019.5612 172.5,-1019.5612"/>
<polygon fill="none" stroke="#000000" points="172.5,-1019.5612 172.5,-1042.5612 319.5,-1042.5612 319.5,-1019.5612 172.5,-1019.5612"/>
<text text-anchor="start" x="177.5" y="-1028.1612" font-family="Helvetica,sans-Serif" font-weight="bold" font-size="11.00" fill="#000000">AspNetUserLogins</text>
<text text-anchor="start" x="285.0219" y="-1027.6612" font-family="Helvetica,sans-Serif" font-size="11.00" fill="#000000">[table]</text>
<polygon fill="none" stroke="#000000" points="172.5,-1000.5612 172.5,-1019.5612 319.5,-1019.5612 319.5,-1000.5612 172.5,-1000.5612"/>
<text text-anchor="start" x="175.5" y="-1006.6612" font-family="Helvetica,sans-Serif" font-size="11.00" fill="#000000">...</text>
<polygon fill="#ffffff" stroke="transparent" points="172.5,-981.5612 172.5,-1000.5612 231.5,-1000.5612 231.5,-981.5612 172.5,-981.5612"/>
<polygon fill="none" stroke="#000000" points="172.5,-981.5612 172.5,-1000.5612 231.5,-1000.5612 231.5,-981.5612 172.5,-981.5612"/>
<text text-anchor="start" x="175.5" y="-987.6612" font-family="Helvetica,sans-Serif" font-size="11.00" fill="#000000">&lt; 1</text>
<polygon fill="#ffffff" stroke="transparent" points="231.5,-981.5612 231.5,-1000.5612 288.5,-1000.5612 288.5,-981.5612 231.5,-981.5612"/>
<polygon fill="none" stroke="#000000" points="231.5,-981.5612 231.5,-1000.5612 288.5,-1000.5612 288.5,-981.5612 231.5,-981.5612"/>
<text text-anchor="start" x="253.1105" y="-987.6612" font-family="Helvetica,sans-Serif" font-size="11.00" fill="#000000">0 rows</text>
<polygon fill="#ffffff" stroke="transparent" points="288.5,-981.5612 288.5,-1000.5612 319.5,-1000.5612 319.5,-981.5612 288.5,-981.5612"/>
<polygon fill="none" stroke="#000000" points="288.5,-981.5612 288.5,-1000.5612 319.5,-1000.5612 319.5,-981.5612 288.5,-981.5612"/>
<text text-anchor="start" x="310.3862" y="-987.6612" font-family="Helvetica,sans-Serif" font-size="11.00" fill="#000000"> &#160;</text>
</a>
</g>
</g>
<!-- AspNetUserLogins&#45;&gt;AspNetUsers -->
<g id="edge2" class="edge">
<title>AspNetUserLogins:w&#45;&gt;AspNetUsers:e</title>
<path fill="none" stroke="#000000" d="M158.3028,-1006.5862C83.1726,-974.0886 68.5076,-684.3495 65.6719,-583.2111"/>
<polygon fill="#000000" stroke="#000000" points="164.6701,-1007.9204 171.7616,-1013.0847 168.585,-1008.7408 172.5,-1009.5612 172.5,-1009.5612 172.5,-1009.5612 168.585,-1008.7408 173.2384,-1006.0377 164.6701,-1007.9204 164.6701,-1007.9204"/>
<ellipse fill="none" stroke="#000000" cx="161.5381" cy="-1007.2641" rx="3.2" ry="3.2"/>
</g>
<!-- AspNetUserRoles -->
<g id="node4" class="node">
<title>AspNetUserRoles</title>
<g id="a_node4"><a xlink:href="../../tables/AspNetUserRoles.html" xlink:title="AspNetUserRoles" target="_top">
<polygon fill="#ffffff" stroke="transparent" points="175.5,-900.0612 175.5,-961.0612 315.5,-961.0612 315.5,-900.0612 175.5,-900.0612"/>
<polygon fill="#f5f5f5" stroke="transparent" points="175.5,-937.5612 175.5,-960.5612 315.5,-960.5612 315.5,-937.5612 175.5,-937.5612"/>
<polygon fill="none" stroke="#000000" points="175.5,-937.5612 175.5,-960.5612 315.5,-960.5612 315.5,-937.5612 175.5,-937.5612"/>
<text text-anchor="start" x="180.5" y="-946.1612" font-family="Helvetica,sans-Serif" font-weight="bold" font-size="11.00" fill="#000000">AspNetUserRoles</text>
<text text-anchor="start" x="281.0219" y="-945.6612" font-family="Helvetica,sans-Serif" font-size="11.00" fill="#000000">[table]</text>
<polygon fill="none" stroke="#000000" points="175.5,-918.5612 175.5,-937.5612 315.5,-937.5612 315.5,-918.5612 175.5,-918.5612"/>
<text text-anchor="start" x="178.5" y="-924.6612" font-family="Helvetica,sans-Serif" font-size="11.00" fill="#000000">...</text>
<polygon fill="#ffffff" stroke="transparent" points="175.5,-899.5612 175.5,-918.5612 230.5,-918.5612 230.5,-899.5612 175.5,-899.5612"/>
<polygon fill="none" stroke="#000000" points="175.5,-899.5612 175.5,-918.5612 230.5,-918.5612 230.5,-899.5612 175.5,-899.5612"/>
<text text-anchor="start" x="178.5" y="-905.6612" font-family="Helvetica,sans-Serif" font-size="11.00" fill="#000000">&lt; 2</text>
<polygon fill="#ffffff" stroke="transparent" points="230.5,-899.5612 230.5,-918.5612 285.5,-918.5612 285.5,-899.5612 230.5,-899.5612"/>
<polygon fill="none" stroke="#000000" points="230.5,-899.5612 230.5,-918.5612 285.5,-918.5612 285.5,-899.5612 230.5,-899.5612"/>
<text text-anchor="start" x="250.1105" y="-905.6612" font-family="Helvetica,sans-Serif" font-size="11.00" fill="#000000">0 rows</text>
<polygon fill="#ffffff" stroke="transparent" points="285.5,-899.5612 285.5,-918.5612 315.5,-918.5612 315.5,-899.5612 285.5,-899.5612"/>
<polygon fill="none" stroke="#000000" points="285.5,-899.5612 285.5,-918.5612 315.5,-918.5612 315.5,-899.5612 285.5,-899.5612"/>
<text text-anchor="start" x="306.3862" y="-905.6612" font-family="Helvetica,sans-Serif" font-size="11.00" fill="#000000"> &#160;</text>
</a>
</g>
</g>
<!-- AspNetUserRoles&#45;&gt;AspNetUsers -->
<g id="edge3" class="edge">
<title>AspNetUserRoles:w&#45;&gt;AspNetUsers:e</title>
<path fill="none" stroke="#000000" d="M161.4599,-924.1756C100.3493,-894.0068 75.2006,-670.3645 67.6505,-583.1997"/>
<polygon fill="#000000" stroke="#000000" points="167.7229,-925.6858 174.6561,-931.0609 171.6115,-926.6235 175.5,-927.5612 175.5,-927.5612 175.5,-927.5612 171.6115,-926.6235 176.3439,-924.0615 167.7229,-925.6858 167.7229,-925.6858"/>
<ellipse fill="none" stroke="#000000" cx="164.6121" cy="-924.9356" rx="3.2" ry="3.2"/>
</g>
<!-- AspNetUserTokens -->
<g id="node5" class="node">
<title>AspNetUserTokens</title>
<g id="a_node5"><a xlink:href="../../tables/AspNetUserTokens.html" xlink:title="AspNetUserTokens" target="_top">
<polygon fill="#ffffff" stroke="transparent" points="171,-818.0612 171,-879.0612 320,-879.0612 320,-818.0612 171,-818.0612"/>
<polygon fill="#f5f5f5" stroke="transparent" points="171.5,-855.5612 171.5,-878.5612 320.5,-878.5612 320.5,-855.5612 171.5,-855.5612"/>
<polygon fill="none" stroke="#000000" points="171.5,-855.5612 171.5,-878.5612 320.5,-878.5612 320.5,-855.5612 171.5,-855.5612"/>
<text text-anchor="start" x="176.5" y="-864.1612" font-family="Helvetica,sans-Serif" font-weight="bold" font-size="11.00" fill="#000000">AspNetUserTokens</text>
<text text-anchor="start" x="286.0219" y="-863.6612" font-family="Helvetica,sans-Serif" font-size="11.00" fill="#000000">[table]</text>
<polygon fill="none" stroke="#000000" points="171.5,-836.5612 171.5,-855.5612 320.5,-855.5612 320.5,-836.5612 171.5,-836.5612"/>
<text text-anchor="start" x="174.5" y="-842.6612" font-family="Helvetica,sans-Serif" font-size="11.00" fill="#000000">...</text>
<polygon fill="#ffffff" stroke="transparent" points="171.5,-817.5612 171.5,-836.5612 231.5,-836.5612 231.5,-817.5612 171.5,-817.5612"/>
<polygon fill="none" stroke="#000000" points="171.5,-817.5612 171.5,-836.5612 231.5,-836.5612 231.5,-817.5612 171.5,-817.5612"/>
<text text-anchor="start" x="174.5" y="-823.6612" font-family="Helvetica,sans-Serif" font-size="11.00" fill="#000000">&lt; 1</text>
<polygon fill="#ffffff" stroke="transparent" points="231.5,-817.5612 231.5,-836.5612 288.5,-836.5612 288.5,-817.5612 231.5,-817.5612"/>
<polygon fill="none" stroke="#000000" points="231.5,-817.5612 231.5,-836.5612 288.5,-836.5612 288.5,-817.5612 231.5,-817.5612"/>
<text text-anchor="start" x="253.1105" y="-823.6612" font-family="Helvetica,sans-Serif" font-size="11.00" fill="#000000">0 rows</text>
<polygon fill="#ffffff" stroke="transparent" points="288.5,-817.5612 288.5,-836.5612 320.5,-836.5612 320.5,-817.5612 288.5,-817.5612"/>
<polygon fill="none" stroke="#000000" points="288.5,-817.5612 288.5,-836.5612 320.5,-836.5612 320.5,-817.5612 288.5,-817.5612"/>
<text text-anchor="start" x="311.3862" y="-823.6612" font-family="Helvetica,sans-Serif" font-size="11.00" fill="#000000"> &#160;</text>
</a>
</g>
</g>
<!-- AspNetUserTokens&#45;&gt;AspNetUsers -->
<g id="edge4" class="edge">
<title>AspNetUserTokens:w&#45;&gt;AspNetUsers:e</title>
<path fill="none" stroke="#000000" d="M157.4336,-841.4937C110.4555,-814.033 80.9574,-654.6717 69.9216,-583.2122"/>
<polygon fill="#000000" stroke="#000000" points="163.8148,-843.3389 170.5,-849.0195 167.6574,-844.4501 171.5,-845.5612 171.5,-845.5612 171.5,-845.5612 167.6574,-844.4501 172.5,-842.1029 163.8148,-843.3389 163.8148,-843.3389"/>
<ellipse fill="none" stroke="#000000" cx="160.7408" cy="-842.45" rx="3.2" ry="3.2"/>
</g>
<!-- Competencies -->
<g id="node6" class="node">
<title>Competencies</title>
<g id="a_node6"><a xlink:href="../../tables/Competencies.html" xlink:title="Competencies" target="_top">
<polygon fill="#ffffff" stroke="transparent" points="185,-657.0612 185,-718.0612 306,-718.0612 306,-657.0612 185,-657.0612"/>
<polygon fill="#f5f5f5" stroke="transparent" points="185.5,-694.5612 185.5,-717.5612 306.5,-717.5612 306.5,-694.5612 185.5,-694.5612"/>
<polygon fill="none" stroke="#000000" points="185.5,-694.5612 185.5,-717.5612 306.5,-717.5612 306.5,-694.5612 185.5,-694.5612"/>
<text text-anchor="start" x="190.5" y="-703.1612" font-family="Helvetica,sans-Serif" font-weight="bold" font-size="11.00" fill="#000000">Competencies</text>
<text text-anchor="start" x="272.0219" y="-702.6612" font-family="Helvetica,sans-Serif" font-size="11.00" fill="#000000">[table]</text>
<polygon fill="none" stroke="#000000" points="185.5,-675.5612 185.5,-694.5612 306.5,-694.5612 306.5,-675.5612 185.5,-675.5612"/>
<text text-anchor="start" x="188.5" y="-681.6612" font-family="Helvetica,sans-Serif" font-size="11.00" fill="#000000">...</text>
<polygon fill="#ffffff" stroke="transparent" points="185.5,-656.5612 185.5,-675.5612 226.5,-675.5612 226.5,-656.5612 185.5,-656.5612"/>
<polygon fill="none" stroke="#000000" points="185.5,-656.5612 185.5,-675.5612 226.5,-675.5612 226.5,-656.5612 185.5,-656.5612"/>
<text text-anchor="start" x="188.5" y="-662.6612" font-family="Helvetica,sans-Serif" font-size="11.00" fill="#000000">&lt; 2</text>
<polygon fill="#ffffff" stroke="transparent" points="226.5,-656.5612 226.5,-675.5612 274.5,-675.5612 274.5,-656.5612 226.5,-656.5612"/>
<polygon fill="none" stroke="#000000" points="226.5,-656.5612 226.5,-675.5612 274.5,-675.5612 274.5,-656.5612 226.5,-656.5612"/>
<text text-anchor="start" x="239.1105" y="-662.6612" font-family="Helvetica,sans-Serif" font-size="11.00" fill="#000000">0 rows</text>
<polygon fill="#ffffff" stroke="transparent" points="274.5,-656.5612 274.5,-675.5612 306.5,-675.5612 306.5,-656.5612 274.5,-656.5612"/>
<polygon fill="none" stroke="#000000" points="274.5,-656.5612 274.5,-675.5612 306.5,-675.5612 306.5,-656.5612 274.5,-656.5612"/>
<text text-anchor="start" x="287.9053" y="-662.6612" font-family="Helvetica,sans-Serif" font-size="11.00" fill="#000000">4 &gt;</text>
</a>
</g>
</g>
<!-- Competencies&#45;&gt;AspNetUsers -->
<g id="edge5" class="edge">
<title>Competencies:w&#45;&gt;AspNetUsers:e</title>
<path fill="none" stroke="#000000" d="M171.2265,-682.0868C126.6974,-669.8635 96.3051,-618.4575 79.7914,-583.0662"/>
<polygon fill="#000000" stroke="#000000" points="177.6176,-683.1947 184.8851,-688.1083 181.5588,-683.878 185.5,-684.5612 185.5,-684.5612 185.5,-684.5612 181.5588,-683.878 186.1149,-681.0141 177.6176,-683.1947 177.6176,-683.1947"/>
<ellipse fill="none" stroke="#000000" cx="174.4646" cy="-682.6481" rx="3.2" ry="3.2"/>
</g>
<!-- Competencies&#45;&gt;AspNetUsers -->
<g id="edge6" class="edge">
<title>Competencies:w&#45;&gt;AspNetUsers:e</title>
<path fill="none" stroke="#000000" d="M170.8453,-684.2652C122.9784,-678.0603 91.5055,-621.3903 76.1045,-583.1929"/>
<polygon fill="#000000" stroke="#000000" points="177.5016,-684.3996 185.4273,-688.1605 181.5008,-684.4804 185.5,-684.5612 185.5,-684.5612 185.5,-684.5612 181.5008,-684.4804 185.5727,-680.962 177.5016,-684.3996 177.5016,-684.3996"/>
<ellipse fill="none" stroke="#000000" cx="174.3023" cy="-684.335" rx="3.2" ry="3.2"/>
</g>
<!-- CompetencyLevelDescriptions -->
<g id="node7" class="node">
<title>CompetencyLevelDescriptions</title>
<g id="a_node7"><a xlink:href="../../tables/CompetencyLevelDescriptions.html" xlink:title="CompetencyLevelDescriptions" target="_top">
<polygon fill="#ffffff" stroke="transparent" points="383,-779.0612 383,-840.0612 597,-840.0612 597,-779.0612 383,-779.0612"/>
<polygon fill="#f5f5f5" stroke="transparent" points="383,-816.5612 383,-839.5612 597,-839.5612 597,-816.5612 383,-816.5612"/>
<polygon fill="none" stroke="#000000" points="383,-816.5612 383,-839.5612 597,-839.5612 597,-816.5612 383,-816.5612"/>
<text text-anchor="start" x="388" y="-825.1612" font-family="Helvetica,sans-Serif" font-weight="bold" font-size="11.00" fill="#000000">CompetencyLevelDescriptions</text>
<text text-anchor="start" x="562.5219" y="-824.6612" font-family="Helvetica,sans-Serif" font-size="11.00" fill="#000000">[table]</text>
<polygon fill="none" stroke="#000000" points="383,-797.5612 383,-816.5612 597,-816.5612 597,-797.5612 383,-797.5612"/>
<text text-anchor="start" x="386" y="-803.6612" font-family="Helvetica,sans-Serif" font-size="11.00" fill="#000000">...</text>
<polygon fill="#ffffff" stroke="transparent" points="383,-778.5612 383,-797.5612 475,-797.5612 475,-778.5612 383,-778.5612"/>
<polygon fill="none" stroke="#000000" points="383,-778.5612 383,-797.5612 475,-797.5612 475,-778.5612 383,-778.5612"/>
<text text-anchor="start" x="386" y="-784.6612" font-family="Helvetica,sans-Serif" font-size="11.00" fill="#000000">&lt; 3</text>
<polygon fill="#ffffff" stroke="transparent" points="475,-778.5612 475,-797.5612 549,-797.5612 549,-778.5612 475,-778.5612"/>
<polygon fill="none" stroke="#000000" points="475,-778.5612 475,-797.5612 549,-797.5612 549,-778.5612 475,-778.5612"/>
<text text-anchor="start" x="513.6105" y="-784.6612" font-family="Helvetica,sans-Serif" font-size="11.00" fill="#000000">0 rows</text>
<polygon fill="#ffffff" stroke="transparent" points="549,-778.5612 549,-797.5612 597,-797.5612 597,-778.5612 549,-778.5612"/>
<polygon fill="none" stroke="#000000" points="549,-778.5612 549,-797.5612 597,-797.5612 597,-778.5612 549,-778.5612"/>
<text text-anchor="start" x="587.8862" y="-784.6612" font-family="Helvetica,sans-Serif" font-size="11.00" fill="#000000"> &#160;</text>
</a>
</g>
</g>
<!-- CompetencyLevelDescriptions&#45;&gt;AspNetUsers -->
<g id="edge8" class="edge">
<title>CompetencyLevelDescriptions:w&#45;&gt;AspNetUsers:e</title>
<path fill="none" stroke="#000000" d="M368.476,-804.8896C311.3721,-798.4884 198.7512,-786.6968 163,-758.5612 106.6936,-714.2491 81.6552,-630.3871 71.392,-583.0935"/>
<polygon fill="#000000" stroke="#000000" points="375.0525,-805.6465 382.5884,-810.1376 379.0262,-806.1038 383,-806.5612 383,-806.5612 383,-806.5612 379.0262,-806.1038 383.4116,-802.9848 375.0525,-805.6465 375.0525,-805.6465"/>
<ellipse fill="none" stroke="#000000" cx="371.8735" cy="-805.2806" rx="3.2" ry="3.2"/>
</g>
<!-- CompetencyLevelDescriptions&#45;&gt;AspNetUsers -->
<g id="edge9" class="edge">
<title>CompetencyLevelDescriptions:w&#45;&gt;AspNetUsers:e</title>
<path fill="none" stroke="#000000" d="M368.476,-807.9614C311.3721,-811.4884 198.7512,-799.6968 163,-771.5612 103.2959,-724.5751 78.7472,-633.1219 69.6917,-583.0815"/>
<polygon fill="#000000" stroke="#000000" points="375.0369,-807.3289 383.3455,-810.1446 379.0185,-806.9451 383,-806.5612 383,-806.5612 383,-806.5612 379.0185,-806.9451 382.6545,-802.9778 375.0369,-807.3289 375.0369,-807.3289"/>
<ellipse fill="none" stroke="#000000" cx="371.8517" cy="-807.636" rx="3.2" ry="3.2"/>
</g>
<!-- CompetencyLevelDescriptions&#45;&gt;Competencies -->
<g id="edge7" class="edge">
<title>CompetencyLevelDescriptions:w&#45;&gt;Competencies:e</title>
<path fill="none" stroke="#000000" d="M368.6447,-803.8996C327.1603,-786.0583 364.8754,-684.5612 306.5,-684.5612"/>
<polygon fill="#000000" stroke="#000000" points="375.1341,-805.1028 382.3437,-810.1009 379.067,-805.832 383,-806.5612 383,-806.5612 383,-806.5612 379.067,-805.832 383.6563,-803.0215 375.1341,-805.1028 375.1341,-805.1028"/>
<ellipse fill="none" stroke="#000000" cx="371.9877" cy="-804.5194" rx="3.2" ry="3.2"/>
</g>
<!-- Coordinators -->
<g id="node8" class="node">
<title>Coordinators</title>
<g id="a_node8"><a xlink:href="../../tables/Coordinators.html" xlink:title="Coordinators" target="_top">
<polygon fill="#ffffff" stroke="transparent" points="433,-261.0612 433,-322.0612 547,-322.0612 547,-261.0612 433,-261.0612"/>
<polygon fill="#f5f5f5" stroke="transparent" points="433,-298.5612 433,-321.5612 547,-321.5612 547,-298.5612 433,-298.5612"/>
<polygon fill="none" stroke="#000000" points="433,-298.5612 433,-321.5612 547,-321.5612 547,-298.5612 433,-298.5612"/>
<text text-anchor="start" x="438" y="-307.1612" font-family="Helvetica,sans-Serif" font-weight="bold" font-size="11.00" fill="#000000">Coordinators</text>
<text text-anchor="start" x="512.5219" y="-306.6612" font-family="Helvetica,sans-Serif" font-size="11.00" fill="#000000">[table]</text>
<polygon fill="none" stroke="#000000" points="433,-279.5612 433,-298.5612 547,-298.5612 547,-279.5612 433,-279.5612"/>
<text text-anchor="start" x="436" y="-285.6612" font-family="Helvetica,sans-Serif" font-size="11.00" fill="#000000">...</text>
<polygon fill="#ffffff" stroke="transparent" points="433,-260.5612 433,-279.5612 475,-279.5612 475,-260.5612 433,-260.5612"/>
<polygon fill="none" stroke="#000000" points="433,-260.5612 433,-279.5612 475,-279.5612 475,-260.5612 433,-260.5612"/>
<text text-anchor="start" x="436" y="-266.6612" font-family="Helvetica,sans-Serif" font-size="11.00" fill="#000000">&lt; 2</text>
<polygon fill="#ffffff" stroke="transparent" points="475,-260.5612 475,-279.5612 524,-279.5612 524,-260.5612 475,-260.5612"/>
<polygon fill="none" stroke="#000000" points="475,-260.5612 475,-279.5612 524,-279.5612 524,-260.5612 475,-260.5612"/>
<text text-anchor="start" x="488.6105" y="-266.6612" font-family="Helvetica,sans-Serif" font-size="11.00" fill="#000000">0 rows</text>
<polygon fill="#ffffff" stroke="transparent" points="524,-260.5612 524,-279.5612 547,-279.5612 547,-260.5612 524,-260.5612"/>
<polygon fill="none" stroke="#000000" points="524,-260.5612 524,-279.5612 547,-279.5612 547,-260.5612 524,-260.5612"/>
<text text-anchor="start" x="537.8862" y="-266.6612" font-family="Helvetica,sans-Serif" font-size="11.00" fill="#000000"> &#160;</text>
</a>
</g>
</g>
<!-- Coordinators&#45;&gt;AspNetUsers -->
<g id="edge11" class="edge">
<title>Coordinators:w&#45;&gt;AspNetUsers:e</title>
<path fill="none" stroke="#000000" d="M422.4777,-288.1225C382.5682,-284.6553 372.7615,-261.6277 328,-254.5612 255.5638,-243.1257 222.4911,-211.6825 163,-254.5612 120.0077,-285.5483 85.1498,-442.9448 71.366,-513.8488"/>
<polygon fill="#000000" stroke="#000000" points="432.3674,-284.5314 432.034,-292.5244 430.4354,-292.4577 430.7688,-284.4647 432.3674,-284.5314"/>
<polyline fill="none" stroke="#000000" points="433,-288.5612 429.0035,-288.3945 "/>
<ellipse fill="none" stroke="#000000" cx="425.8063" cy="-288.2612" rx="3.2" ry="3.2"/>
</g>
<!-- TechnicalCareers -->
<g id="node9" class="node">
<title>TechnicalCareers</title>
<g id="a_node9"><a xlink:href="../../tables/TechnicalCareers.html" xlink:title="TechnicalCareers" target="_top">
<polygon fill="#ffffff" stroke="transparent" points="176,-347.0612 176,-408.0612 315,-408.0612 315,-347.0612 176,-347.0612"/>
<polygon fill="#f5f5f5" stroke="transparent" points="176.5,-384.5612 176.5,-407.5612 315.5,-407.5612 315.5,-384.5612 176.5,-384.5612"/>
<polygon fill="none" stroke="#000000" points="176.5,-384.5612 176.5,-407.5612 315.5,-407.5612 315.5,-384.5612 176.5,-384.5612"/>
<text text-anchor="start" x="181.5" y="-393.1612" font-family="Helvetica,sans-Serif" font-weight="bold" font-size="11.00" fill="#000000">TechnicalCareers</text>
<text text-anchor="start" x="281.0219" y="-392.6612" font-family="Helvetica,sans-Serif" font-size="11.00" fill="#000000">[table]</text>
<polygon fill="none" stroke="#000000" points="176.5,-365.5612 176.5,-384.5612 315.5,-384.5612 315.5,-365.5612 176.5,-365.5612"/>
<text text-anchor="start" x="179.5" y="-371.6612" font-family="Helvetica,sans-Serif" font-size="11.00" fill="#000000">...</text>
<polygon fill="#ffffff" stroke="transparent" points="176.5,-346.5612 176.5,-365.5612 226.5,-365.5612 226.5,-346.5612 176.5,-346.5612"/>
<polygon fill="none" stroke="#000000" points="176.5,-346.5612 176.5,-365.5612 226.5,-365.5612 226.5,-346.5612 176.5,-346.5612"/>
<text text-anchor="start" x="179.5" y="-352.6612" font-family="Helvetica,sans-Serif" font-size="11.00" fill="#000000">&lt; 2</text>
<polygon fill="#ffffff" stroke="transparent" points="226.5,-346.5612 226.5,-365.5612 279.5,-365.5612 279.5,-346.5612 226.5,-346.5612"/>
<polygon fill="none" stroke="#000000" points="226.5,-346.5612 226.5,-365.5612 279.5,-365.5612 279.5,-346.5612 226.5,-346.5612"/>
<text text-anchor="start" x="244.1105" y="-352.6612" font-family="Helvetica,sans-Serif" font-size="11.00" fill="#000000">0 rows</text>
<polygon fill="#ffffff" stroke="transparent" points="279.5,-346.5612 279.5,-365.5612 315.5,-365.5612 315.5,-346.5612 279.5,-346.5612"/>
<polygon fill="none" stroke="#000000" points="279.5,-346.5612 279.5,-365.5612 315.5,-365.5612 315.5,-346.5612 279.5,-346.5612"/>
<text text-anchor="start" x="296.9053" y="-352.6612" font-family="Helvetica,sans-Serif" font-size="11.00" fill="#000000">6 &gt;</text>
</a>
</g>
</g>
<!-- Coordinators&#45;&gt;TechnicalCareers -->
<g id="edge10" class="edge">
<title>Coordinators:w&#45;&gt;TechnicalCareers:e</title>
<path fill="none" stroke="#000000" d="M418.6268,-289.841C393.6459,-294.7708 386.5984,-313.2227 361,-332.5612 339.0412,-349.1502 343.0206,-374.5612 315.5,-374.5612"/>
<polygon fill="#000000" stroke="#000000" points="425.0315,-289.2708 433.3193,-292.147 429.0158,-288.916 433,-288.5612 433,-288.5612 433,-288.5612 429.0158,-288.916 432.6807,-284.9754 425.0315,-289.2708 425.0315,-289.2708"/>
<ellipse fill="none" stroke="#000000" cx="421.8441" cy="-289.5546" rx="3.2" ry="3.2"/>
</g>
<!-- TechnicalCareers&#45;&gt;AspNetUsers -->
<g id="edge48" class="edge">
<title>TechnicalCareers:w&#45;&gt;AspNetUsers:e</title>
<path fill="none" stroke="#000000" d="M161.8298,-375.1715C105.1597,-383.9129 80.0364,-465.807 70.3117,-513.9096"/>
<polygon fill="#000000" stroke="#000000" points="168.5069,-374.8938 176.6497,-378.1581 172.5035,-374.7275 176.5,-374.5612 176.5,-374.5612 176.5,-374.5612 172.5035,-374.7275 176.3503,-370.9643 168.5069,-374.8938 168.5069,-374.8938"/>
<ellipse fill="none" stroke="#000000" cx="165.3097" cy="-375.0268" rx="3.2" ry="3.2"/>
</g>
<!-- TechnicalCareers&#45;&gt;AspNetUsers -->
<g id="edge49" class="edge">
<title>TechnicalCareers:w&#45;&gt;AspNetUsers:e</title>
<path fill="none" stroke="#000000" d="M162.2012,-377.1135C108.3933,-392.4996 82.9199,-468.4143 72.0584,-513.9771"/>
<polygon fill="#000000" stroke="#000000" points="168.6245,-375.967 177.1326,-378.1052 172.5622,-375.2641 176.5,-374.5612 176.5,-374.5612 176.5,-374.5612 172.5622,-375.2641 175.8674,-371.0172 168.6245,-375.967 168.6245,-375.967"/>
<ellipse fill="none" stroke="#000000" cx="165.4743" cy="-376.5293" rx="3.2" ry="3.2"/>
</g>
<!-- EvaluationPeriods -->
<g id="node10" class="node">
<title>EvaluationPeriods</title>
<g id="a_node10"><a xlink:href="../../tables/EvaluationPeriods.html" xlink:title="EvaluationPeriods" target="_top">
<polygon fill="#ffffff" stroke="transparent" points="174,-457.0612 174,-518.0612 317,-518.0612 317,-457.0612 174,-457.0612"/>
<polygon fill="#f5f5f5" stroke="transparent" points="174.5,-494.5612 174.5,-517.5612 317.5,-517.5612 317.5,-494.5612 174.5,-494.5612"/>
<polygon fill="none" stroke="#000000" points="174.5,-494.5612 174.5,-517.5612 317.5,-517.5612 317.5,-494.5612 174.5,-494.5612"/>
<text text-anchor="start" x="179.5" y="-503.1612" font-family="Helvetica,sans-Serif" font-weight="bold" font-size="11.00" fill="#000000">EvaluationPeriods</text>
<text text-anchor="start" x="283.0219" y="-502.6612" font-family="Helvetica,sans-Serif" font-size="11.00" fill="#000000">[table]</text>
<polygon fill="none" stroke="#000000" points="174.5,-475.5612 174.5,-494.5612 317.5,-494.5612 317.5,-475.5612 174.5,-475.5612"/>
<text text-anchor="start" x="177.5" y="-481.6612" font-family="Helvetica,sans-Serif" font-size="11.00" fill="#000000">...</text>
<polygon fill="#ffffff" stroke="transparent" points="174.5,-456.5612 174.5,-475.5612 226.5,-475.5612 226.5,-456.5612 174.5,-456.5612"/>
<polygon fill="none" stroke="#000000" points="174.5,-456.5612 174.5,-475.5612 226.5,-475.5612 226.5,-456.5612 174.5,-456.5612"/>
<text text-anchor="start" x="177.5" y="-462.6612" font-family="Helvetica,sans-Serif" font-size="11.00" fill="#000000">&lt; 2</text>
<polygon fill="#ffffff" stroke="transparent" points="226.5,-456.5612 226.5,-475.5612 280.5,-475.5612 280.5,-456.5612 226.5,-456.5612"/>
<polygon fill="none" stroke="#000000" points="226.5,-456.5612 226.5,-475.5612 280.5,-475.5612 280.5,-456.5612 226.5,-456.5612"/>
<text text-anchor="start" x="245.1105" y="-462.6612" font-family="Helvetica,sans-Serif" font-size="11.00" fill="#000000">0 rows</text>
<polygon fill="#ffffff" stroke="transparent" points="280.5,-456.5612 280.5,-475.5612 317.5,-475.5612 317.5,-456.5612 280.5,-456.5612"/>
<polygon fill="none" stroke="#000000" points="280.5,-456.5612 280.5,-475.5612 317.5,-475.5612 317.5,-456.5612 280.5,-456.5612"/>
<text text-anchor="start" x="298.9053" y="-462.6612" font-family="Helvetica,sans-Serif" font-size="11.00" fill="#000000">3 &gt;</text>
</a>
</g>
</g>
<!-- EvaluationPeriods&#45;&gt;AspNetUsers -->
<g id="edge12" class="edge">
<title>EvaluationPeriods:w&#45;&gt;AspNetUsers:e</title>
<path fill="none" stroke="#000000" d="M152.077,-514.636C144.6918,-517.1434 137.3349,-519.6814 130.2045,-522.183"/>
<polygon fill="#000000" stroke="#000000" points="158.2216,-512.5707 166.9517,-513.4341 162.0131,-511.2962 165.8047,-510.0217 165.8047,-510.0217 165.8047,-510.0217 162.0131,-511.2962 164.6576,-506.6094 158.2216,-512.5707 158.2216,-512.5707"/>
<ellipse fill="none" stroke="#000000" cx="155.1883" cy="-513.5902" rx="3.2" ry="3.2"/>
</g>
<!-- EvaluationPeriods&#45;&gt;AspNetUsers -->
<g id="edge13" class="edge">
<title>EvaluationPeriods:w&#45;&gt;AspNetUsers:e</title>
<path fill="none" stroke="#000000" d="M152.077,-524.3806C144.6918,-526.8631 137.3349,-529.289 130.2045,-531.5914"/>
<polygon fill="#000000" stroke="#000000" points="158.2306,-522.288 166.9637,-523.1205 162.0176,-521.0001 165.8047,-519.7122 165.8047,-519.7122 165.8047,-519.7122 162.0176,-521.0001 164.6456,-516.3039 158.2306,-522.288 158.2306,-522.288"/>
<ellipse fill="none" stroke="#000000" cx="155.201" cy="-523.3183" rx="3.2" ry="3.2"/>
</g>
<!-- EvaluationPeriodTechnicalCareer -->
<g id="node11" class="node">
<title>EvaluationPeriodTechnicalCareer</title>
<g id="a_node11"><a xlink:href="../../tables/EvaluationPeriodTechnicalCareer.html" xlink:title="EvaluationPeriodTechnicalCareer" target="_top">
<polygon fill="#ffffff" stroke="transparent" points="375,-425.0612 375,-486.0612 605,-486.0612 605,-425.0612 375,-425.0612"/>
<polygon fill="#f5f5f5" stroke="transparent" points="375,-462.5612 375,-485.5612 605,-485.5612 605,-462.5612 375,-462.5612"/>
<polygon fill="none" stroke="#000000" points="375,-462.5612 375,-485.5612 605,-485.5612 605,-462.5612 375,-462.5612"/>
<text text-anchor="start" x="380" y="-471.1612" font-family="Helvetica,sans-Serif" font-weight="bold" font-size="11.00" fill="#000000">EvaluationPeriodTechnicalCareer</text>
<text text-anchor="start" x="570.5219" y="-470.6612" font-family="Helvetica,sans-Serif" font-size="11.00" fill="#000000">[table]</text>
<polygon fill="none" stroke="#000000" points="375,-443.5612 375,-462.5612 605,-462.5612 605,-443.5612 375,-443.5612"/>
<text text-anchor="start" x="378" y="-449.6612" font-family="Helvetica,sans-Serif" font-size="11.00" fill="#000000">...</text>
<polygon fill="#ffffff" stroke="transparent" points="375,-424.5612 375,-443.5612 475,-443.5612 475,-424.5612 375,-424.5612"/>
<polygon fill="none" stroke="#000000" points="375,-424.5612 375,-443.5612 475,-443.5612 475,-424.5612 375,-424.5612"/>
<text text-anchor="start" x="378" y="-430.6612" font-family="Helvetica,sans-Serif" font-size="11.00" fill="#000000">&lt; 2</text>
<polygon fill="#ffffff" stroke="transparent" points="475,-424.5612 475,-443.5612 553,-443.5612 553,-424.5612 475,-424.5612"/>
<polygon fill="none" stroke="#000000" points="475,-424.5612 475,-443.5612 553,-443.5612 553,-424.5612 475,-424.5612"/>
<text text-anchor="start" x="517.6105" y="-430.6612" font-family="Helvetica,sans-Serif" font-size="11.00" fill="#000000">0 rows</text>
<polygon fill="#ffffff" stroke="transparent" points="553,-424.5612 553,-443.5612 605,-443.5612 605,-424.5612 553,-424.5612"/>
<polygon fill="none" stroke="#000000" points="553,-424.5612 553,-443.5612 605,-443.5612 605,-424.5612 553,-424.5612"/>
<text text-anchor="start" x="595.8862" y="-430.6612" font-family="Helvetica,sans-Serif" font-size="11.00" fill="#000000"> &#160;</text>
</a>
</g>
</g>
<!-- EvaluationPeriodTechnicalCareer&#45;&gt;TechnicalCareers -->
<g id="edge15" class="edge">
<title>EvaluationPeriodTechnicalCareer:w&#45;&gt;TechnicalCareers:e</title>
<path fill="none" stroke="#000000" d="M361.0667,-448.7991C337.4994,-433.2183 353.3106,-374.5612 315.5,-374.5612"/>
<polygon fill="#000000" stroke="#000000" points="367.2766,-450.4758 374.0616,-456.0368 371.1383,-451.5185 375,-452.5612 375,-452.5612 375,-452.5612 371.1383,-451.5185 375.9384,-449.0857 367.2766,-450.4758 367.2766,-450.4758"/>
<ellipse fill="none" stroke="#000000" cx="364.1872" cy="-449.6416" rx="3.2" ry="3.2"/>
</g>
<!-- EvaluationPeriodTechnicalCareer&#45;&gt;EvaluationPeriods -->
<g id="edge14" class="edge">
<title>EvaluationPeriodTechnicalCareer:w&#45;&gt;EvaluationPeriods:e</title>
<path fill="none" stroke="#000000" d="M360.6071,-453.1913C348.7139,-454.1954 336.672,-456.3276 325.0828,-459.0624"/>
<polygon fill="#000000" stroke="#000000" points="367.0077,-452.9111 375.1575,-456.1578 371.0038,-452.7362 375,-452.5612 375,-452.5612 375,-452.5612 371.0038,-452.7362 374.8425,-448.9647 367.0077,-452.9111 367.0077,-452.9111"/>
<ellipse fill="none" stroke="#000000" cx="363.8107" cy="-453.0511" rx="3.2" ry="3.2"/>
</g>
<!-- FormQuestions -->
<g id="node12" class="node">
<title>FormQuestions</title>
<g id="a_node12"><a xlink:href="../../tables/FormQuestions.html" xlink:title="FormQuestions" target="_top">
<polygon fill="#ffffff" stroke="transparent" points="426.5,-657.0612 426.5,-718.0612 553.5,-718.0612 553.5,-657.0612 426.5,-657.0612"/>
<polygon fill="#f5f5f5" stroke="transparent" points="427,-694.5612 427,-717.5612 554,-717.5612 554,-694.5612 427,-694.5612"/>
<polygon fill="none" stroke="#000000" points="427,-694.5612 427,-717.5612 554,-717.5612 554,-694.5612 427,-694.5612"/>
<text text-anchor="start" x="432" y="-703.1612" font-family="Helvetica,sans-Serif" font-weight="bold" font-size="11.00" fill="#000000">FormQuestions</text>
<text text-anchor="start" x="519.5219" y="-702.6612" font-family="Helvetica,sans-Serif" font-size="11.00" fill="#000000">[table]</text>
<polygon fill="none" stroke="#000000" points="427,-675.5612 427,-694.5612 554,-694.5612 554,-675.5612 427,-675.5612"/>
<text text-anchor="start" x="430" y="-681.6612" font-family="Helvetica,sans-Serif" font-size="11.00" fill="#000000">...</text>
<polygon fill="#ffffff" stroke="transparent" points="427,-656.5612 427,-675.5612 471,-675.5612 471,-656.5612 427,-656.5612"/>
<polygon fill="none" stroke="#000000" points="427,-656.5612 427,-675.5612 471,-675.5612 471,-656.5612 427,-656.5612"/>
<text text-anchor="start" x="430" y="-662.6612" font-family="Helvetica,sans-Serif" font-size="11.00" fill="#000000">&lt; 3</text>
<polygon fill="#ffffff" stroke="transparent" points="471,-656.5612 471,-675.5612 521,-675.5612 521,-656.5612 471,-656.5612"/>
<polygon fill="none" stroke="#000000" points="471,-656.5612 471,-675.5612 521,-675.5612 521,-656.5612 471,-656.5612"/>
<text text-anchor="start" x="485.6105" y="-662.6612" font-family="Helvetica,sans-Serif" font-size="11.00" fill="#000000">0 rows</text>
<polygon fill="#ffffff" stroke="transparent" points="521,-656.5612 521,-675.5612 554,-675.5612 554,-656.5612 521,-656.5612"/>
<polygon fill="none" stroke="#000000" points="521,-656.5612 521,-675.5612 554,-675.5612 554,-656.5612 521,-656.5612"/>
<text text-anchor="start" x="535.4053" y="-662.6612" font-family="Helvetica,sans-Serif" font-size="11.00" fill="#000000">1 &gt;</text>
</a>
</g>
</g>
<!-- FormQuestions&#45;&gt;AspNetUsers -->
<g id="edge17" class="edge">
<title>FormQuestions:w&#45;&gt;AspNetUsers:e</title>
<path fill="none" stroke="#000000" d="M412.4148,-681.8839C377.7987,-673.3343 367.7899,-653.3384 328,-640.5612 255.8462,-617.3914 233.287,-625.8941 163,-597.5612 152.0523,-593.1482 140.8057,-587.7492 130.0129,-582.1559"/>
<polygon fill="#000000" stroke="#000000" points="419.1315,-683.1168 426.35,-688.1021 423.0657,-683.839 427,-684.5612 427,-684.5612 427,-684.5612 423.0657,-683.839 427.65,-681.0204 419.1315,-683.1168 419.1315,-683.1168"/>
<ellipse fill="none" stroke="#000000" cx="415.9841" cy="-682.539" rx="3.2" ry="3.2"/>
</g>
<!-- FormQuestions&#45;&gt;AspNetUsers -->
<g id="edge18" class="edge">
<title>FormQuestions:w&#45;&gt;AspNetUsers:e</title>
<path fill="none" stroke="#000000" d="M412.4148,-685.8203C377.7987,-686.3343 367.7899,-666.3384 328,-653.5612 255.8462,-630.3914 233.287,-638.8941 163,-610.5612 144.7237,-603.194 125.6144,-593.079 109.1741,-583.1012"/>
<polygon fill="#000000" stroke="#000000" points="419.0296,-685.2493 427.3096,-688.1479 423.0148,-684.9053 427,-684.5612 427,-684.5612 427,-684.5612 423.0148,-684.9053 426.6904,-680.9746 419.0296,-685.2493 419.0296,-685.2493"/>
<ellipse fill="none" stroke="#000000" cx="415.8415" cy="-685.5245" rx="3.2" ry="3.2"/>
</g>
<!-- FormQuestions&#45;&gt;Competencies -->
<g id="edge16" class="edge">
<title>FormQuestions:w&#45;&gt;Competencies:e</title>
<path fill="none" stroke="#000000" d="M412.3843,-684.5612C370.4464,-684.5612 354.8255,-684.5612 306.5,-684.5612"/>
<polygon fill="#000000" stroke="#000000" points="419,-684.5613 427,-688.1612 423,-684.5612 427,-684.5612 427,-684.5612 427,-684.5612 423,-684.5612 427,-680.9612 419,-684.5613 419,-684.5613"/>
<ellipse fill="none" stroke="#000000" cx="415.8" cy="-684.5613" rx="3.2" ry="3.2"/>
</g>
<!-- ProfessorCompetencyAssignments -->
<g id="node13" class="node">
<title>ProfessorCompetencyAssignments</title>
<g id="a_node13"><a xlink:href="../../tables/ProfessorCompetencyAssignments.html" xlink:title="ProfessorCompetencyAssignments" target="_top">
<polygon fill="#ffffff" stroke="transparent" points="369,-535.0612 369,-596.0612 611,-596.0612 611,-535.0612 369,-535.0612"/>
<polygon fill="#f5f5f5" stroke="transparent" points="369,-572.5612 369,-595.5612 611,-595.5612 611,-572.5612 369,-572.5612"/>
<polygon fill="none" stroke="#000000" points="369,-572.5612 369,-595.5612 611,-595.5612 611,-572.5612 369,-572.5612"/>
<text text-anchor="start" x="374" y="-581.1612" font-family="Helvetica,sans-Serif" font-weight="bold" font-size="11.00" fill="#000000">ProfessorCompetencyAssignments</text>
<text text-anchor="start" x="576.5219" y="-580.6612" font-family="Helvetica,sans-Serif" font-size="11.00" fill="#000000">[table]</text>
<polygon fill="none" stroke="#000000" points="369,-553.5612 369,-572.5612 611,-572.5612 611,-553.5612 369,-553.5612"/>
<text text-anchor="start" x="372" y="-559.6612" font-family="Helvetica,sans-Serif" font-size="11.00" fill="#000000">...</text>
<polygon fill="#ffffff" stroke="transparent" points="369,-534.5612 369,-553.5612 471,-553.5612 471,-534.5612 369,-534.5612"/>
<polygon fill="none" stroke="#000000" points="369,-534.5612 369,-553.5612 471,-553.5612 471,-534.5612 369,-534.5612"/>
<text text-anchor="start" x="372" y="-540.6612" font-family="Helvetica,sans-Serif" font-size="11.00" fill="#000000">&lt; 6</text>
<polygon fill="#ffffff" stroke="transparent" points="471,-534.5612 471,-553.5612 549,-553.5612 549,-534.5612 471,-534.5612"/>
<polygon fill="none" stroke="#000000" points="471,-534.5612 471,-553.5612 549,-553.5612 549,-534.5612 471,-534.5612"/>
<text text-anchor="start" x="513.6105" y="-540.6612" font-family="Helvetica,sans-Serif" font-size="11.00" fill="#000000">0 rows</text>
<polygon fill="#ffffff" stroke="transparent" points="549,-534.5612 549,-553.5612 611,-553.5612 611,-534.5612 549,-534.5612"/>
<polygon fill="none" stroke="#000000" points="549,-534.5612 549,-553.5612 611,-553.5612 611,-534.5612 549,-534.5612"/>
<text text-anchor="start" x="592.4053" y="-540.6612" font-family="Helvetica,sans-Serif" font-size="11.00" fill="#000000">1 &gt;</text>
</a>
</g>
</g>
<!-- ProfessorCompetencyAssignments&#45;&gt;AspNetUsers -->
<g id="edge20" class="edge">
<title>ProfessorCompetencyAssignments:w&#45;&gt;AspNetUsers:e</title>
<path fill="none" stroke="#000000" d="M354.3931,-561.8892C275.5777,-558.1399 188.1169,-552.0869 130.1914,-549.0163"/>
<polygon fill="#000000" stroke="#000000" points="361.0085,-562.1935 368.8345,-566.1574 365.0042,-562.3774 369,-562.5612 369,-562.5612 369,-562.5612 365.0042,-562.3774 369.1655,-558.965 361.0085,-562.1935 361.0085,-562.1935"/>
<ellipse fill="none" stroke="#000000" cx="357.8118" cy="-562.0464" rx="3.2" ry="3.2"/>
</g>
<!-- ProfessorCompetencyAssignments&#45;&gt;AspNetUsers -->
<g id="edge24" class="edge">
<title>ProfessorCompetencyAssignments:w&#45;&gt;AspNetUsers:e</title>
<path fill="none" stroke="#000000" d="M354.3931,-563.232C275.5777,-566.4079 188.1169,-563.0017 130.1914,-558.2998"/>
<polygon fill="#000000" stroke="#000000" points="361.0084,-562.9283 369.1652,-566.1574 365.0042,-562.7447 369,-562.5612 369,-562.5612 369,-562.5612 365.0042,-562.7447 368.8348,-558.965 361.0084,-562.9283 361.0084,-562.9283"/>
<ellipse fill="none" stroke="#000000" cx="357.8118" cy="-563.0751" rx="3.2" ry="3.2"/>
</g>
<!-- ProfessorCompetencyAssignments&#45;&gt;Competencies -->
<g id="edge19" class="edge">
<title>ProfessorCompetencyAssignments:w&#45;&gt;Competencies:e</title>
<path fill="none" stroke="#000000" d="M354.8383,-565.577C318.1471,-584.364 361.7118,-684.5612 306.5,-684.5612"/>
<polygon fill="#000000" stroke="#000000" points="361.1754,-564.2275 369.7498,-566.0823 365.0877,-563.3944 369,-562.5612 369,-562.5612 369,-562.5612 365.0877,-563.3944 368.2502,-559.0402 361.1754,-564.2275 361.1754,-564.2275"/>
<ellipse fill="none" stroke="#000000" cx="358.0456" cy="-564.894" rx="3.2" ry="3.2"/>
</g>
<!-- ProfessorCompetencyAssignments&#45;&gt;TechnicalCareers -->
<g id="edge23" class="edge">
<title>ProfessorCompetencyAssignments:w&#45;&gt;TechnicalCareers:e</title>
<path fill="none" stroke="#000000" d="M354.6726,-560.3189C296.7671,-539.1078 396.7737,-374.5612 315.5,-374.5612"/>
<polygon fill="#000000" stroke="#000000" points="361.0962,-561.3242 368.4433,-566.1179 365.0481,-561.9427 369,-562.5612 369,-562.5612 369,-562.5612 365.0481,-561.9427 369.5567,-559.0045 361.0962,-561.3242 361.0962,-561.3242"/>
<ellipse fill="none" stroke="#000000" cx="357.9347" cy="-560.8294" rx="3.2" ry="3.2"/>
</g>
<!-- ProfessorCompetencyAssignments&#45;&gt;EvaluationPeriods -->
<g id="edge21" class="edge">
<title>ProfessorCompetencyAssignments:w&#45;&gt;EvaluationPeriods:e</title>
<path fill="none" stroke="#000000" d="M354.8091,-559.0306C345.299,-553.2055 341.8512,-541.3521 328,-532.5612 322.49,-529.0642 316.6877,-525.5614 310.819,-522.14"/>
<polygon fill="#000000" stroke="#000000" points="361.2367,-560.6297 368.1308,-566.0547 365.1183,-561.5955 369,-562.5612 369,-562.5612 369,-562.5612 365.1183,-561.5955 369.8692,-559.0677 361.2367,-560.6297 361.2367,-560.6297"/>
<ellipse fill="none" stroke="#000000" cx="358.1313" cy="-559.8571" rx="3.2" ry="3.2"/>
</g>
<!-- Professors -->
<g id="node14" class="node">
<title>Professors</title>
<g id="a_node14"><a xlink:href="../../tables/Professors.html" xlink:title="Professors" target="_top">
<polygon fill="#ffffff" stroke="transparent" points="195,-265.0612 195,-326.0612 296,-326.0612 296,-265.0612 195,-265.0612"/>
<polygon fill="#f5f5f5" stroke="transparent" points="195.5,-302.5612 195.5,-325.5612 296.5,-325.5612 296.5,-302.5612 195.5,-302.5612"/>
<polygon fill="none" stroke="#000000" points="195.5,-302.5612 195.5,-325.5612 296.5,-325.5612 296.5,-302.5612 195.5,-302.5612"/>
<text text-anchor="start" x="200.5" y="-311.1612" font-family="Helvetica,sans-Serif" font-weight="bold" font-size="11.00" fill="#000000">Professors</text>
<text text-anchor="start" x="262.0219" y="-310.6612" font-family="Helvetica,sans-Serif" font-size="11.00" fill="#000000">[table]</text>
<polygon fill="none" stroke="#000000" points="195.5,-283.5612 195.5,-302.5612 296.5,-302.5612 296.5,-283.5612 195.5,-283.5612"/>
<text text-anchor="start" x="198.5" y="-289.6612" font-family="Helvetica,sans-Serif" font-size="11.00" fill="#000000">...</text>
<polygon fill="#ffffff" stroke="transparent" points="195.5,-264.5612 195.5,-283.5612 226.5,-283.5612 226.5,-264.5612 195.5,-264.5612"/>
<polygon fill="none" stroke="#000000" points="195.5,-264.5612 195.5,-283.5612 226.5,-283.5612 226.5,-264.5612 195.5,-264.5612"/>
<text text-anchor="start" x="198.5" y="-270.6612" font-family="Helvetica,sans-Serif" font-size="11.00" fill="#000000">&lt; 1</text>
<polygon fill="#ffffff" stroke="transparent" points="226.5,-264.5612 226.5,-283.5612 269.5,-283.5612 269.5,-264.5612 226.5,-264.5612"/>
<polygon fill="none" stroke="#000000" points="226.5,-264.5612 226.5,-283.5612 269.5,-283.5612 269.5,-264.5612 226.5,-264.5612"/>
<text text-anchor="start" x="234.1105" y="-270.6612" font-family="Helvetica,sans-Serif" font-size="11.00" fill="#000000">0 rows</text>
<polygon fill="#ffffff" stroke="transparent" points="269.5,-264.5612 269.5,-283.5612 296.5,-283.5612 296.5,-264.5612 269.5,-264.5612"/>
<polygon fill="none" stroke="#000000" points="269.5,-264.5612 269.5,-283.5612 296.5,-283.5612 296.5,-264.5612 269.5,-264.5612"/>
<text text-anchor="start" x="277.9053" y="-270.6612" font-family="Helvetica,sans-Serif" font-size="11.00" fill="#000000">2 &gt;</text>
</a>
</g>
</g>
<!-- ProfessorCompetencyAssignments&#45;&gt;Professors -->
<g id="edge22" class="edge">
<title>ProfessorCompetencyAssignments:w&#45;&gt;Professors:e</title>
<path fill="none" stroke="#000000" d="M355.3989,-556.9528C323.7186,-526.2727 345.7969,-378.6086 328,-336.5612 318.6256,-314.4131 320.5504,-292.5612 296.5,-292.5612"/>
<polygon fill="#000000" stroke="#000000" points="361.6041,-559.5115 367.6276,-565.8894 365.302,-561.0364 369,-562.5612 369,-562.5612 369,-562.5612 365.302,-561.0364 370.3724,-559.2331 361.6041,-559.5115 361.6041,-559.5115"/>
<ellipse fill="none" stroke="#000000" cx="358.6457" cy="-558.2916" rx="3.2" ry="3.2"/>
</g>
<!-- Professors&#45;&gt;AspNetUsers -->
<g id="edge25" class="edge">
<title>Professors:w&#45;&gt;AspNetUsers:e</title>
<path fill="none" stroke="#000000" d="M184.8619,-293.1756C95.4461,-303.7001 72.6999,-446.752 66.9399,-514.0359"/>
<polygon fill="#000000" stroke="#000000" points="194.4707,-288.614 194.932,-296.6007 193.3347,-296.693 192.8733,-288.7063 194.4707,-288.614"/>
<polyline fill="none" stroke="#000000" points="195.5,-292.5612 191.5067,-292.7919 "/>
<ellipse fill="none" stroke="#000000" cx="188.312" cy="-292.9764" rx="3.2" ry="3.2"/>
</g>
<!-- QuestionResponses -->
<g id="node15" class="node">
<title>QuestionResponses</title>
<g id="a_node15"><a xlink:href="../../tables/QuestionResponses.html" xlink:title="QuestionResponses" target="_top">
<polygon fill="#ffffff" stroke="transparent" points="972,-696.0612 972,-757.0612 1127,-757.0612 1127,-696.0612 972,-696.0612"/>
<polygon fill="#f5f5f5" stroke="transparent" points="972.5,-733.5612 972.5,-756.5612 1127.5,-756.5612 1127.5,-733.5612 972.5,-733.5612"/>
<polygon fill="none" stroke="#000000" points="972.5,-733.5612 972.5,-756.5612 1127.5,-756.5612 1127.5,-733.5612 972.5,-733.5612"/>
<text text-anchor="start" x="977.5" y="-742.1612" font-family="Helvetica,sans-Serif" font-weight="bold" font-size="11.00" fill="#000000">QuestionResponses</text>
<text text-anchor="start" x="1093.0219" y="-741.6612" font-family="Helvetica,sans-Serif" font-size="11.00" fill="#000000">[table]</text>
<polygon fill="none" stroke="#000000" points="972.5,-714.5612 972.5,-733.5612 1127.5,-733.5612 1127.5,-714.5612 972.5,-714.5612"/>
<text text-anchor="start" x="975.5" y="-720.6612" font-family="Helvetica,sans-Serif" font-size="11.00" fill="#000000">...</text>
<polygon fill="#ffffff" stroke="transparent" points="972.5,-695.5612 972.5,-714.5612 1035.5,-714.5612 1035.5,-695.5612 972.5,-695.5612"/>
<polygon fill="none" stroke="#000000" points="972.5,-695.5612 972.5,-714.5612 1035.5,-714.5612 1035.5,-695.5612 972.5,-695.5612"/>
<text text-anchor="start" x="975.5" y="-701.6612" font-family="Helvetica,sans-Serif" font-size="11.00" fill="#000000">&lt; 4</text>
<polygon fill="#ffffff" stroke="transparent" points="1035.5,-695.5612 1035.5,-714.5612 1094.5,-714.5612 1094.5,-695.5612 1035.5,-695.5612"/>
<polygon fill="none" stroke="#000000" points="1035.5,-695.5612 1035.5,-714.5612 1094.5,-714.5612 1094.5,-695.5612 1035.5,-695.5612"/>
<text text-anchor="start" x="1059.1105" y="-701.6612" font-family="Helvetica,sans-Serif" font-size="11.00" fill="#000000">0 rows</text>
<polygon fill="#ffffff" stroke="transparent" points="1094.5,-695.5612 1094.5,-714.5612 1127.5,-714.5612 1127.5,-695.5612 1094.5,-695.5612"/>
<polygon fill="none" stroke="#000000" points="1094.5,-695.5612 1094.5,-714.5612 1127.5,-714.5612 1127.5,-695.5612 1094.5,-695.5612"/>
<text text-anchor="start" x="1118.3862" y="-701.6612" font-family="Helvetica,sans-Serif" font-size="11.00" fill="#000000"> &#160;</text>
</a>
</g>
</g>
<!-- QuestionResponses&#45;&gt;AspNetUsers -->
<g id="edge26" class="edge">
<title>QuestionResponses:w&#45;&gt;AspNetUsers:e</title>
<path fill="none" stroke="#000000" d="M957.935,-723.091C828.4054,-721.7604 237.0041,-766.5315 163,-722.5612 111.9158,-692.2091 85.7764,-624.8576 73.7756,-583.3614"/>
<polygon fill="#000000" stroke="#000000" points="964.5042,-723.303 972.3838,-727.1593 968.5021,-723.4321 972.5,-723.5612 972.5,-723.5612 972.5,-723.5612 968.5021,-723.4321 972.6162,-719.9631 964.5042,-723.303 964.5042,-723.303"/>
<ellipse fill="none" stroke="#000000" cx="961.3058" cy="-723.1997" rx="3.2" ry="3.2"/>
</g>
<!-- QuestionResponses&#45;&gt;AspNetUsers -->
<g id="edge29" class="edge">
<title>QuestionResponses:w&#45;&gt;AspNetUsers:e</title>
<path fill="none" stroke="#000000" d="M957.935,-724.6958C828.4054,-734.7604 237.0041,-779.5315 163,-735.5612 108.2451,-703.0281 82.1486,-627.9873 71.4036,-583.3958"/>
<polygon fill="#000000" stroke="#000000" points="964.5242,-724.1826 972.7796,-727.1503 968.5121,-723.8719 972.5,-723.5612 972.5,-723.5612 972.5,-723.5612 968.5121,-723.8719 972.2204,-719.9721 964.5242,-724.1826 964.5242,-724.1826"/>
<ellipse fill="none" stroke="#000000" cx="961.3338" cy="-724.4311" rx="3.2" ry="3.2"/>
</g>
<!-- QuestionResponses&#45;&gt;FormQuestions -->
<g id="edge27" class="edge">
<title>QuestionResponses:w&#45;&gt;FormQuestions:e</title>
<path fill="none" stroke="#000000" d="M958.0142,-723.4813C783.2283,-721.5317 735.8804,-684.5612 554,-684.5612"/>
<polygon fill="#000000" stroke="#000000" points="964.5001,-723.517 972.4801,-727.1612 968.5001,-723.5391 972.5,-723.5612 972.5,-723.5612 972.5,-723.5612 968.5001,-723.5391 972.5199,-719.9613 964.5001,-723.517 964.5001,-723.517"/>
<ellipse fill="none" stroke="#000000" cx="961.3002" cy="-723.4994" rx="3.2" ry="3.2"/>
</g>
<!-- StudentCompetencyEvaluations -->
<g id="node16" class="node">
<title>StudentCompetencyEvaluations</title>
<g id="a_node16"><a xlink:href="../../tables/StudentCompetencyEvaluations.html" xlink:title="StudentCompetencyEvaluations" target="_top">
<polygon fill="#ffffff" stroke="transparent" points="680,-599.0612 680,-660.0612 903,-660.0612 903,-599.0612 680,-599.0612"/>
<polygon fill="#f5f5f5" stroke="transparent" points="680.5,-636.5612 680.5,-659.5612 903.5,-659.5612 903.5,-636.5612 680.5,-636.5612"/>
<polygon fill="none" stroke="#000000" points="680.5,-636.5612 680.5,-659.5612 903.5,-659.5612 903.5,-636.5612 680.5,-636.5612"/>
<text text-anchor="start" x="685.5" y="-645.1612" font-family="Helvetica,sans-Serif" font-weight="bold" font-size="11.00" fill="#000000">StudentCompetencyEvaluations</text>
<text text-anchor="start" x="869.0219" y="-644.6612" font-family="Helvetica,sans-Serif" font-size="11.00" fill="#000000">[table]</text>
<polygon fill="none" stroke="#000000" points="680.5,-617.5612 680.5,-636.5612 903.5,-636.5612 903.5,-617.5612 680.5,-617.5612"/>
<text text-anchor="start" x="683.5" y="-623.6612" font-family="Helvetica,sans-Serif" font-size="11.00" fill="#000000">...</text>
<polygon fill="#ffffff" stroke="transparent" points="680.5,-598.5612 680.5,-617.5612 772.5,-617.5612 772.5,-598.5612 680.5,-598.5612"/>
<polygon fill="none" stroke="#000000" points="680.5,-598.5612 680.5,-617.5612 772.5,-617.5612 772.5,-598.5612 680.5,-598.5612"/>
<text text-anchor="start" x="683.5" y="-604.6612" font-family="Helvetica,sans-Serif" font-size="11.00" fill="#000000">&lt; 4</text>
<polygon fill="#ffffff" stroke="transparent" points="772.5,-598.5612 772.5,-617.5612 846.5,-617.5612 846.5,-598.5612 772.5,-598.5612"/>
<polygon fill="none" stroke="#000000" points="772.5,-598.5612 772.5,-617.5612 846.5,-617.5612 846.5,-598.5612 772.5,-598.5612"/>
<text text-anchor="start" x="811.1105" y="-604.6612" font-family="Helvetica,sans-Serif" font-size="11.00" fill="#000000">0 rows</text>
<polygon fill="#ffffff" stroke="transparent" points="846.5,-598.5612 846.5,-617.5612 903.5,-617.5612 903.5,-598.5612 846.5,-598.5612"/>
<polygon fill="none" stroke="#000000" points="846.5,-598.5612 846.5,-617.5612 903.5,-617.5612 903.5,-598.5612 846.5,-598.5612"/>
<text text-anchor="start" x="884.9053" y="-604.6612" font-family="Helvetica,sans-Serif" font-size="11.00" fill="#000000">1 &gt;</text>
</a>
</g>
</g>
<!-- QuestionResponses&#45;&gt;StudentCompetencyEvaluations -->
<g id="edge28" class="edge">
<title>QuestionResponses:w&#45;&gt;StudentCompetencyEvaluations:e</title>
<path fill="none" stroke="#000000" d="M958.1254,-720.3339C926.5735,-703.5029 950.6191,-626.5612 903.5,-626.5612"/>
<polygon fill="#000000" stroke="#000000" points="964.6943,-721.8087 971.7113,-727.0738 968.5972,-722.6849 972.5,-723.5612 972.5,-723.5612 972.5,-723.5612 968.5972,-722.6849 973.2887,-720.0487 964.6943,-721.8087 964.6943,-721.8087"/>
<ellipse fill="none" stroke="#000000" cx="961.572" cy="-721.1076" rx="3.2" ry="3.2"/>
</g>
<!-- StudentCompetencyEvaluations&#45;&gt;AspNetUsers -->
<g id="edge30" class="edge">
<title>StudentCompetencyEvaluations:w&#45;&gt;AspNetUsers:e</title>
<path fill="none" stroke="#000000" d="M665.8239,-626.1687C446.5259,-620.1165 384.8447,-609.6102 163,-564.5612 152.3196,-562.3924 141.0131,-559.9713 130.0226,-557.6376"/>
<polygon fill="#000000" stroke="#000000" points="672.5029,-626.3473 680.4037,-630.1599 676.5014,-626.4542 680.5,-626.5612 680.5,-626.5612 680.5,-626.5612 676.5014,-626.4542 680.5963,-622.9625 672.5029,-626.3473 672.5029,-626.3473"/>
<ellipse fill="none" stroke="#000000" cx="669.304" cy="-626.2617" rx="3.2" ry="3.2"/>
</g>
<!-- StudentCompetencyEvaluations&#45;&gt;AspNetUsers -->
<g id="edge33" class="edge">
<title>StudentCompetencyEvaluations:w&#45;&gt;AspNetUsers:e</title>
<path fill="none" stroke="#000000" d="M665.8239,-626.9887C446.5259,-633.1165 384.8447,-622.6102 163,-577.5612 152.3196,-575.3924 141.0131,-572.9713 130.0226,-570.4485"/>
<polygon fill="#000000" stroke="#000000" points="672.5034,-626.7942 680.6048,-630.1597 676.5017,-626.6777 680.5,-626.5612 680.5,-626.5612 680.5,-626.5612 676.5017,-626.6777 680.3952,-622.9627 672.5034,-626.7942 672.5034,-626.7942"/>
<ellipse fill="none" stroke="#000000" cx="669.3047" cy="-626.8874" rx="3.2" ry="3.2"/>
</g>
<!-- StudentCompetencyEvaluations&#45;&gt;ProfessorCompetencyAssignments -->
<g id="edge31" class="edge">
<title>StudentCompetencyEvaluations:w&#45;&gt;ProfessorCompetencyAssignments:e</title>
<path fill="none" stroke="#000000" d="M666.1554,-623.2995C641.4135,-610.2575 647.2497,-562.5612 611,-562.5612"/>
<polygon fill="#000000" stroke="#000000" points="672.6991,-624.7874 679.7018,-630.0716 676.5996,-625.6743 680.5,-626.5612 680.5,-626.5612 680.5,-626.5612 676.5996,-625.6743 681.2982,-623.0508 672.6991,-624.7874 672.6991,-624.7874"/>
<ellipse fill="none" stroke="#000000" cx="669.5788" cy="-624.0778" rx="3.2" ry="3.2"/>
</g>
<!-- Students -->
<g id="node17" class="node">
<title>Students</title>
<g id="a_node17"><a xlink:href="../../tables/Students.html" xlink:title="Students" target="_top">
<polygon fill="#ffffff" stroke="transparent" points="445,-343.0612 445,-404.0612 535,-404.0612 535,-343.0612 445,-343.0612"/>
<polygon fill="#f5f5f5" stroke="transparent" points="445,-380.5612 445,-403.5612 535,-403.5612 535,-380.5612 445,-380.5612"/>
<polygon fill="none" stroke="#000000" points="445,-380.5612 445,-403.5612 535,-403.5612 535,-380.5612 445,-380.5612"/>
<text text-anchor="start" x="450" y="-389.1612" font-family="Helvetica,sans-Serif" font-weight="bold" font-size="11.00" fill="#000000">Students</text>
<text text-anchor="start" x="500.5219" y="-388.6612" font-family="Helvetica,sans-Serif" font-size="11.00" fill="#000000">[table]</text>
<polygon fill="none" stroke="#000000" points="445,-361.5612 445,-380.5612 535,-380.5612 535,-361.5612 445,-361.5612"/>
<text text-anchor="start" x="448" y="-367.6612" font-family="Helvetica,sans-Serif" font-size="11.00" fill="#000000">...</text>
<polygon fill="#ffffff" stroke="transparent" points="445,-342.5612 445,-361.5612 471,-361.5612 471,-342.5612 445,-342.5612"/>
<polygon fill="none" stroke="#000000" points="445,-342.5612 445,-361.5612 471,-361.5612 471,-342.5612 445,-342.5612"/>
<text text-anchor="start" x="448" y="-348.6612" font-family="Helvetica,sans-Serif" font-size="11.00" fill="#000000">&lt; 2</text>
<polygon fill="#ffffff" stroke="transparent" points="471,-342.5612 471,-361.5612 511,-361.5612 511,-342.5612 471,-342.5612"/>
<polygon fill="none" stroke="#000000" points="471,-342.5612 471,-361.5612 511,-361.5612 511,-342.5612 471,-342.5612"/>
<text text-anchor="start" x="475.6105" y="-348.6612" font-family="Helvetica,sans-Serif" font-size="11.00" fill="#000000">0 rows</text>
<polygon fill="#ffffff" stroke="transparent" points="511,-342.5612 511,-361.5612 535,-361.5612 535,-342.5612 511,-342.5612"/>
<polygon fill="none" stroke="#000000" points="511,-342.5612 511,-361.5612 535,-361.5612 535,-342.5612 511,-342.5612"/>
<text text-anchor="start" x="516.4053" y="-348.6612" font-family="Helvetica,sans-Serif" font-size="11.00" fill="#000000">3 &gt;</text>
</a>
</g>
</g>
<!-- StudentCompetencyEvaluations&#45;&gt;Students -->
<g id="edge32" class="edge">
<title>StudentCompetencyEvaluations:w&#45;&gt;Students:e</title>
<path fill="none" stroke="#000000" d="M665.7167,-625.2357C593.7414,-610.7327 683.6067,-480.8294 619,-414.5612 599.1504,-394.2012 569.2458,-383.9282 543.2258,-378.7554"/>
<polygon fill="#000000" stroke="#000000" points="672.532,-625.8467 680.1785,-630.1468 676.516,-626.204 680.5,-626.5612 680.5,-626.5612 680.5,-626.5612 676.516,-626.204 680.8215,-622.9756 672.532,-625.8467 672.532,-625.8467"/>
<ellipse fill="none" stroke="#000000" cx="669.3448" cy="-625.5609" rx="3.2" ry="3.2"/>
</g>
<!-- Students&#45;&gt;AspNetUsers -->
<g id="edge39" class="edge">
<title>Students:w&#45;&gt;AspNetUsers:e</title>
<path fill="none" stroke="#000000" d="M426.4785,-392.8364C396.7484,-401.437 360.7478,-411.2546 328,-418.5612 255.4033,-434.7588 228.743,-411.769 163,-446.5612 133.0469,-462.4129 106.9093,-490.8145 89.1777,-513.6293"/>
<polygon fill="#000000" stroke="#000000" points="434.8295,-386.2349 437.0688,-393.9151 435.5328,-394.363 433.2934,-386.6828 434.8295,-386.2349"/>
<polyline fill="none" stroke="#000000" points="436.7172,-389.8511 432.8771,-390.9708 "/>
<ellipse fill="none" stroke="#000000" cx="429.805" cy="-391.8665" rx="3.2" ry="3.2"/>
</g>
<!-- Students&#45;&gt;TechnicalCareers -->
<g id="edge38" class="edge">
<title>Students:w&#45;&gt;TechnicalCareers:e</title>
<path fill="none" stroke="#000000" d="M422.1402,-374.1307C389.8414,-374.3555 350.6767,-374.5612 315.5,-374.5612"/>
<polygon fill="#000000" stroke="#000000" points="428.9262,-374.0814 436.9522,-377.6231 432.9261,-374.0523 436.926,-374.0232 436.926,-374.0232 436.926,-374.0232 432.9261,-374.0523 436.8998,-370.4233 428.9262,-374.0814 428.9262,-374.0814"/>
<ellipse fill="none" stroke="#000000" cx="425.7263" cy="-374.1047" rx="3.2" ry="3.2"/>
</g>
<!-- StudentEvaluationReport -->
<g id="node18" class="node">
<title>StudentEvaluationReport</title>
<g id="a_node18"><a xlink:href="../../tables/StudentEvaluationReport.html" xlink:title="StudentEvaluationReport" target="_top">
<polygon fill="#ffffff" stroke="transparent" points="660,-149.5612 660,-437.5612 923,-437.5612 923,-149.5612 660,-149.5612"/>
<polygon fill="#f5f5f5" stroke="transparent" points="662.5,-412.5612 662.5,-435.5612 921.5,-435.5612 921.5,-412.5612 662.5,-412.5612"/>
<polygon fill="none" stroke="#000000" points="662.5,-412.5612 662.5,-435.5612 921.5,-435.5612 921.5,-412.5612 662.5,-412.5612"/>
<text text-anchor="start" x="667.5" y="-421.1612" font-family="Helvetica,sans-Serif" font-weight="bold" font-size="11.00" fill="#000000">StudentEvaluationReport</text>
<text text-anchor="start" x="886.5437" y="-420.6612" font-family="Helvetica,sans-Serif" font-size="11.00" fill="#000000">[table]</text>
<polygon fill="none" stroke="#000000" points="662.5,-390.5612 662.5,-412.5612 827.5,-412.5612 827.5,-390.5612 662.5,-390.5612"/>
<image xlink:href="../../images/primaryKeys.png" width="11px" height="12px" preserveAspectRatio="xMinYMin meet" x="667.5" y="-407.561"/>
<text text-anchor="start" x="682.5" y="-397.6612" font-family="Helvetica,sans-Serif" font-size="11.00" fill="#000000">Id</text>
<polygon fill="none" stroke="#000000" points="827.5,-390.5612 827.5,-412.5612 921.5,-412.5612 921.5,-390.5612 827.5,-390.5612"/>
<text text-anchor="start" x="830.4758" y="-398.2612" font-family="Helvetica,sans-Serif" font-size="11.00" fill="#000000">uuid[2147483647]</text>
<polygon fill="#ffffff" stroke="transparent" points="662.5,-368.5612 662.5,-390.5612 827.5,-390.5612 827.5,-368.5612 662.5,-368.5612"/>
<polygon fill="none" stroke="#000000" points="662.5,-368.5612 662.5,-390.5612 827.5,-390.5612 827.5,-368.5612 662.5,-368.5612"/>
<image xlink:href="../../images/foreignKeys.png" width="11px" height="12px" preserveAspectRatio="xMinYMin meet" x="667.5" y="-385.561"/>
<text text-anchor="start" x="682.5" y="-375.6612" font-family="Helvetica,sans-Serif" font-size="11.00" fill="#000000">StudentId</text>
<polygon fill="none" stroke="#000000" points="827.5,-368.5612 827.5,-390.5612 921.5,-390.5612 921.5,-368.5612 827.5,-368.5612"/>
<text text-anchor="start" x="830.5" y="-376.2612" font-family="Helvetica,sans-Serif" font-size="11.00" fill="#000000">text[2147483647]</text>
<polygon fill="#ffffff" stroke="transparent" points="662.5,-346.5612 662.5,-368.5612 827.5,-368.5612 827.5,-346.5612 662.5,-346.5612"/>
<polygon fill="none" stroke="#000000" points="662.5,-346.5612 662.5,-368.5612 827.5,-368.5612 827.5,-346.5612 662.5,-346.5612"/>
<image xlink:href="../../images/foreignKeys.png" width="11px" height="12px" preserveAspectRatio="xMinYMin meet" x="667.5" y="-363.561"/>
<text text-anchor="start" x="682.5" y="-353.6612" font-family="Helvetica,sans-Serif" font-size="11.00" fill="#000000">EvaluationPeriodId</text>
<polygon fill="none" stroke="#000000" points="827.5,-346.5612 827.5,-368.5612 921.5,-368.5612 921.5,-346.5612 827.5,-346.5612"/>
<text text-anchor="start" x="830.4758" y="-354.2612" font-family="Helvetica,sans-Serif" font-size="11.00" fill="#000000">uuid[2147483647]</text>
<polygon fill="none" stroke="#000000" points="662.5,-324.5612 662.5,-346.5612 827.5,-346.5612 827.5,-324.5612 662.5,-324.5612"/>
<text text-anchor="start" x="682.5" y="-331.6612" font-family="Helvetica,sans-Serif" font-size="11.00" fill="#000000">GeneratedAt</text>
<polygon fill="none" stroke="#000000" points="827.5,-324.5612 827.5,-346.5612 921.5,-346.5612 921.5,-324.5612 827.5,-324.5612"/>
<text text-anchor="start" x="830.5" y="-332.2612" font-family="Helvetica,sans-Serif" font-size="11.00" fill="#000000">timestamptz[35,6]</text>
<polygon fill="none" stroke="#000000" points="662.5,-302.5612 662.5,-324.5612 827.5,-324.5612 827.5,-302.5612 662.5,-302.5612"/>
<text text-anchor="start" x="682.5" y="-309.6612" font-family="Helvetica,sans-Serif" font-size="11.00" fill="#000000">ReportData</text>
<polygon fill="none" stroke="#000000" points="827.5,-302.5612 827.5,-324.5612 921.5,-324.5612 921.5,-302.5612 827.5,-302.5612"/>
<text text-anchor="start" x="830.5" y="-310.2612" font-family="Helvetica,sans-Serif" font-size="11.00" fill="#000000">text[2147483647]</text>
<polygon fill="none" stroke="#000000" points="662.5,-280.5612 662.5,-302.5612 827.5,-302.5612 827.5,-280.5612 662.5,-280.5612"/>
<text text-anchor="start" x="682.5" y="-287.6612" font-family="Helvetica,sans-Serif" font-size="11.00" fill="#000000">Status</text>
<polygon fill="none" stroke="#000000" points="827.5,-280.5612 827.5,-302.5612 921.5,-302.5612 921.5,-280.5612 827.5,-280.5612"/>
<text text-anchor="start" x="830.5" y="-288.2612" font-family="Helvetica,sans-Serif" font-size="11.00" fill="#000000">text[2147483647]</text>
<polygon fill="none" stroke="#000000" points="662.5,-258.5612 662.5,-280.5612 827.5,-280.5612 827.5,-258.5612 662.5,-258.5612"/>
<text text-anchor="start" x="682.5" y="-265.6612" font-family="Helvetica,sans-Serif" font-size="11.00" fill="#000000">IsActive</text>
<polygon fill="none" stroke="#000000" points="827.5,-258.5612 827.5,-280.5612 921.5,-280.5612 921.5,-258.5612 827.5,-258.5612"/>
<text text-anchor="start" x="830.5" y="-266.2612" font-family="Helvetica,sans-Serif" font-size="11.00" fill="#000000">bool[1]</text>
<polygon fill="none" stroke="#000000" points="662.5,-236.5612 662.5,-258.5612 827.5,-258.5612 827.5,-236.5612 662.5,-236.5612"/>
<text text-anchor="start" x="682.5" y="-243.6612" font-family="Helvetica,sans-Serif" font-size="11.00" fill="#000000">CreatedAt</text>
<polygon fill="none" stroke="#000000" points="827.5,-236.5612 827.5,-258.5612 921.5,-258.5612 921.5,-236.5612 827.5,-236.5612"/>
<text text-anchor="start" x="830.5" y="-244.2612" font-family="Helvetica,sans-Serif" font-size="11.00" fill="#000000">timestamptz[35,6]</text>
<polygon fill="none" stroke="#000000" points="662.5,-214.5612 662.5,-236.5612 827.5,-236.5612 827.5,-214.5612 662.5,-214.5612"/>
<text text-anchor="start" x="682.5" y="-221.6612" font-family="Helvetica,sans-Serif" font-size="11.00" fill="#000000">UpdatedAt</text>
<polygon fill="none" stroke="#000000" points="827.5,-214.5612 827.5,-236.5612 921.5,-236.5612 921.5,-214.5612 827.5,-214.5612"/>
<text text-anchor="start" x="830.5" y="-222.2612" font-family="Helvetica,sans-Serif" font-size="11.00" fill="#000000">timestamptz[35,6]</text>
<polygon fill="#ffffff" stroke="transparent" points="662.5,-192.5612 662.5,-214.5612 827.5,-214.5612 827.5,-192.5612 662.5,-192.5612"/>
<polygon fill="none" stroke="#000000" points="662.5,-192.5612 662.5,-214.5612 827.5,-214.5612 827.5,-192.5612 662.5,-192.5612"/>
<image xlink:href="../../images/foreignKeys.png" width="11px" height="12px" preserveAspectRatio="xMinYMin meet" x="667.5" y="-209.561"/>
<text text-anchor="start" x="682.5" y="-199.6612" font-family="Helvetica,sans-Serif" font-size="11.00" fill="#000000">CreatedByUserId</text>
<polygon fill="none" stroke="#000000" points="827.5,-192.5612 827.5,-214.5612 921.5,-214.5612 921.5,-192.5612 827.5,-192.5612"/>
<text text-anchor="start" x="830.5" y="-200.2612" font-family="Helvetica,sans-Serif" font-size="11.00" fill="#000000">text[2147483647]</text>
<polygon fill="#ffffff" stroke="transparent" points="662.5,-170.5612 662.5,-192.5612 827.5,-192.5612 827.5,-170.5612 662.5,-170.5612"/>
<polygon fill="none" stroke="#000000" points="662.5,-170.5612 662.5,-192.5612 827.5,-192.5612 827.5,-170.5612 662.5,-170.5612"/>
<image xlink:href="../../images/foreignKeys.png" width="11px" height="12px" preserveAspectRatio="xMinYMin meet" x="667.5" y="-187.561"/>
<text text-anchor="start" x="682.5" y="-177.6612" font-family="Helvetica,sans-Serif" font-size="11.00" fill="#000000">UpdatedByUserId</text>
<polygon fill="none" stroke="#000000" points="827.5,-170.5612 827.5,-192.5612 921.5,-192.5612 921.5,-170.5612 827.5,-170.5612"/>
<text text-anchor="start" x="830.5" y="-178.2612" font-family="Helvetica,sans-Serif" font-size="11.00" fill="#000000">text[2147483647]</text>
<polygon fill="#ffffff" stroke="transparent" points="662.5,-151.5612 662.5,-170.5612 736.5,-170.5612 736.5,-151.5612 662.5,-151.5612"/>
<polygon fill="none" stroke="#000000" points="662.5,-151.5612 662.5,-170.5612 736.5,-170.5612 736.5,-151.5612 662.5,-151.5612"/>
<text text-anchor="start" x="665.5" y="-157.6612" font-family="Helvetica,sans-Serif" font-size="11.00" fill="#000000">&lt; 4</text>
<polygon fill="#ffffff" stroke="transparent" points="736.5,-151.5612 736.5,-170.5612 827.5,-170.5612 827.5,-151.5612 736.5,-151.5612"/>
<polygon fill="none" stroke="#000000" points="736.5,-151.5612 736.5,-170.5612 827.5,-170.5612 827.5,-151.5612 736.5,-151.5612"/>
<text text-anchor="start" x="792.1105" y="-157.6612" font-family="Helvetica,sans-Serif" font-size="11.00" fill="#000000">0 rows</text>
<polygon fill="#ffffff" stroke="transparent" points="827.5,-151.5612 827.5,-170.5612 921.5,-170.5612 921.5,-151.5612 827.5,-151.5612"/>
<polygon fill="none" stroke="#000000" points="827.5,-151.5612 827.5,-170.5612 921.5,-170.5612 921.5,-151.5612 827.5,-151.5612"/>
<text text-anchor="start" x="902.9053" y="-157.6612" font-family="Helvetica,sans-Serif" font-size="11.00" fill="#000000">0 &gt;</text>
<polygon fill="none" stroke="#000000" stroke-width="2" points="661,-150.5612 661,-436.5612 922,-436.5612 922,-150.5612 661,-150.5612"/>
</a>
</g>
</g>
<!-- StudentEvaluationReport&#45;&gt;AspNetUsers -->
<g id="edge34" class="edge">
<title>StudentEvaluationReport:w&#45;&gt;AspNetUsers:e</title>
<path fill="none" stroke="#000000" d="M648.5258,-199.2521C638.2872,-191.3411 636.553,-174.7461 619,-168.5612 523.3596,-134.8621 240.7939,-120.5164 163,-185.5612 112.1702,-228.0609 80.331,-431.4129 69.3262,-513.7918"/>
<polygon fill="#000000" stroke="#000000" points="654.8552,-201.2038 661.4392,-207.0014 658.6776,-202.3825 662.5,-203.5612 662.5,-203.5612 662.5,-203.5612 658.6776,-202.3825 663.5608,-200.1211 654.8552,-201.2038 654.8552,-201.2038"/>
<ellipse fill="none" stroke="#000000" cx="651.7973" cy="-200.2609" rx="3.2" ry="3.2"/>
</g>
<!-- StudentEvaluationReport&#45;&gt;AspNetUsers -->
<g id="edge37" class="edge">
<title>StudentEvaluationReport:w&#45;&gt;AspNetUsers:e</title>
<path fill="none" stroke="#000000" d="M648.7549,-177.1701C637.5724,-167.9045 638.4484,-146.5512 619,-138.5612 572.1341,-119.3072 202.7032,-108.0845 163,-139.5612 103.9235,-186.3971 76.3884,-423.7972 67.9489,-513.8532"/>
<polygon fill="#000000" stroke="#000000" points="654.8794,-179.1267 661.4044,-184.9905 658.6897,-180.3439 662.5,-181.5612 662.5,-181.5612 662.5,-181.5612 658.6897,-180.3439 663.5956,-178.132 654.8794,-179.1267 654.8794,-179.1267"/>
<ellipse fill="none" stroke="#000000" cx="651.8312" cy="-178.1528" rx="3.2" ry="3.2"/>
</g>
<!-- StudentEvaluationReport&#45;&gt;EvaluationPeriods -->
<g id="edge35" class="edge">
<title>StudentEvaluationReport:w&#45;&gt;EvaluationPeriods:e</title>
<path fill="none" stroke="#000000" d="M648.2062,-359.8807C609.9423,-375.1467 666.4756,-461.6725 619,-496.5612 574.0503,-529.5936 420.8979,-514.176 325.2312,-500.5017"/>
<polygon fill="#000000" stroke="#000000" points="654.6033,-358.8427 663.0767,-361.1147 658.5516,-358.202 662.5,-357.5612 662.5,-357.5612 662.5,-357.5612 658.5516,-358.202 661.9233,-354.0077 654.6033,-358.8427 654.6033,-358.8427"/>
<ellipse fill="none" stroke="#000000" cx="651.4446" cy="-359.3553" rx="3.2" ry="3.2"/>
</g>
<!-- StudentEvaluationReport&#45;&gt;Students -->
<g id="edge36" class="edge">
<title>StudentEvaluationReport:w&#45;&gt;Students:e</title>
<path fill="none" stroke="#000000" d="M647.7678,-379.4925C611.7133,-379.1671 573.1756,-377.7404 543.2139,-376.368"/>
<polygon fill="#000000" stroke="#000000" points="654.5001,-379.5238 662.4832,-383.1612 658.5,-379.5425 662.5,-379.5612 662.5,-379.5612 662.5,-379.5612 658.5,-379.5425 662.5168,-375.9613 654.5001,-379.5238 654.5001,-379.5238"/>
<ellipse fill="none" stroke="#000000" cx="651.3001" cy="-379.5089" rx="3.2" ry="3.2"/>
</g>
<!-- StudentSubjects -->
<g id="node19" class="node">
<title>StudentSubjects</title>
<g id="a_node19"><a xlink:href="../../tables/StudentSubjects.html" xlink:title="StudentSubjects" target="_top">
<polygon fill="#ffffff" stroke="transparent" points="725,-67.0612 725,-128.0612 858,-128.0612 858,-67.0612 725,-67.0612"/>
<polygon fill="#f5f5f5" stroke="transparent" points="725.5,-104.5612 725.5,-127.5612 858.5,-127.5612 858.5,-104.5612 725.5,-104.5612"/>
<polygon fill="none" stroke="#000000" points="725.5,-104.5612 725.5,-127.5612 858.5,-127.5612 858.5,-104.5612 725.5,-104.5612"/>
<text text-anchor="start" x="730.5" y="-113.1612" font-family="Helvetica,sans-Serif" font-weight="bold" font-size="11.00" fill="#000000">StudentSubjects</text>
<text text-anchor="start" x="824.0219" y="-112.6612" font-family="Helvetica,sans-Serif" font-size="11.00" fill="#000000">[table]</text>
<polygon fill="none" stroke="#000000" points="725.5,-85.5612 725.5,-104.5612 858.5,-104.5612 858.5,-85.5612 725.5,-85.5612"/>
<text text-anchor="start" x="728.5" y="-91.6612" font-family="Helvetica,sans-Serif" font-size="11.00" fill="#000000">...</text>
<polygon fill="#ffffff" stroke="transparent" points="725.5,-66.5612 725.5,-85.5612 777.5,-85.5612 777.5,-66.5612 725.5,-66.5612"/>
<polygon fill="none" stroke="#000000" points="725.5,-66.5612 725.5,-85.5612 777.5,-85.5612 777.5,-66.5612 725.5,-66.5612"/>
<text text-anchor="start" x="728.5" y="-72.6612" font-family="Helvetica,sans-Serif" font-size="11.00" fill="#000000">&lt; 4</text>
<polygon fill="#ffffff" stroke="transparent" points="777.5,-66.5612 777.5,-85.5612 830.5,-85.5612 830.5,-66.5612 777.5,-66.5612"/>
<polygon fill="none" stroke="#000000" points="777.5,-66.5612 777.5,-85.5612 830.5,-85.5612 830.5,-66.5612 777.5,-66.5612"/>
<text text-anchor="start" x="795.1105" y="-72.6612" font-family="Helvetica,sans-Serif" font-size="11.00" fill="#000000">0 rows</text>
<polygon fill="#ffffff" stroke="transparent" points="830.5,-66.5612 830.5,-85.5612 858.5,-85.5612 858.5,-66.5612 830.5,-66.5612"/>
<polygon fill="none" stroke="#000000" points="830.5,-66.5612 830.5,-85.5612 858.5,-85.5612 858.5,-66.5612 830.5,-66.5612"/>
<text text-anchor="start" x="849.3862" y="-72.6612" font-family="Helvetica,sans-Serif" font-size="11.00" fill="#000000"> &#160;</text>
</a>
</g>
</g>
<!-- StudentSubjects&#45;&gt;AspNetUsers -->
<g id="edge40" class="edge">
<title>StudentSubjects:w&#45;&gt;AspNetUsers:e</title>
<path fill="none" stroke="#000000" d="M710.9869,-94.0629C470.5774,-83.3212 351.5708,45.359 163,-111.5612 101.1399,-163.0385 74.8597,-419.4966 67.383,-513.7821"/>
<polygon fill="#000000" stroke="#000000" points="717.5047,-94.2866 725.3764,-98.1591 721.5024,-94.4239 725.5,-94.5612 725.5,-94.5612 725.5,-94.5612 721.5024,-94.4239 725.6236,-90.9633 717.5047,-94.2866 717.5047,-94.2866"/>
<ellipse fill="none" stroke="#000000" cx="714.3066" cy="-94.1768" rx="3.2" ry="3.2"/>
</g>
<!-- StudentSubjects&#45;&gt;AspNetUsers -->
<g id="edge43" class="edge">
<title>StudentSubjects:w&#45;&gt;AspNetUsers:e</title>
<path fill="none" stroke="#000000" d="M710.9869,-94.8098C470.5774,-96.3212 351.5708,32.359 163,-124.5612 102.467,-174.9341 76.0037,-421.5868 67.8903,-513.7934"/>
<polygon fill="#000000" stroke="#000000" points="717.5012,-94.6983 725.5617,-98.1607 721.5006,-94.6298 725.5,-94.5612 725.5,-94.5612 725.5,-94.5612 721.5006,-94.6298 725.4383,-90.9617 717.5012,-94.6983 717.5012,-94.6983"/>
<ellipse fill="none" stroke="#000000" cx="714.3016" cy="-94.7531" rx="3.2" ry="3.2"/>
</g>
<!-- StudentSubjects&#45;&gt;Students -->
<g id="edge41" class="edge">
<title>StudentSubjects:w&#45;&gt;Students:e</title>
<path fill="none" stroke="#000000" d="M710.7821,-95.3247C683.3594,-98.4709 670.4726,-111.5561 652,-138.5612 602.6207,-210.7489 676.3921,-266.5648 619,-332.5612 600.1097,-354.2836 569.7599,-364.605 543.2432,-369.4627"/>
<polygon fill="#000000" stroke="#000000" points="717.5107,-94.9757 725.6865,-98.1564 721.5054,-94.7685 725.5,-94.5612 725.5,-94.5612 725.5,-94.5612 721.5054,-94.7685 725.3135,-90.9661 717.5107,-94.9757 717.5107,-94.9757"/>
<ellipse fill="none" stroke="#000000" cx="714.315" cy="-95.1415" rx="3.2" ry="3.2"/>
</g>
<!-- Subjects -->
<g id="node20" class="node">
<title>Subjects</title>
<g id="a_node20"><a xlink:href="../../tables/Subjects.html" xlink:title="Subjects" target="_top">
<polygon fill="#ffffff" stroke="transparent" points="445.5,-179.0612 445.5,-240.0612 534.5,-240.0612 534.5,-179.0612 445.5,-179.0612"/>
<polygon fill="#f5f5f5" stroke="transparent" points="446,-216.5612 446,-239.5612 535,-239.5612 535,-216.5612 446,-216.5612"/>
<polygon fill="none" stroke="#000000" points="446,-216.5612 446,-239.5612 535,-239.5612 535,-216.5612 446,-216.5612"/>
<text text-anchor="start" x="451" y="-225.1612" font-family="Helvetica,sans-Serif" font-weight="bold" font-size="11.00" fill="#000000">Subjects</text>
<text text-anchor="start" x="500.5219" y="-224.6612" font-family="Helvetica,sans-Serif" font-size="11.00" fill="#000000">[table]</text>
<polygon fill="none" stroke="#000000" points="446,-197.5612 446,-216.5612 535,-216.5612 535,-197.5612 446,-197.5612"/>
<text text-anchor="start" x="449" y="-203.6612" font-family="Helvetica,sans-Serif" font-size="11.00" fill="#000000">...</text>
<polygon fill="#ffffff" stroke="transparent" points="446,-178.5612 446,-197.5612 471,-197.5612 471,-178.5612 446,-178.5612"/>
<polygon fill="none" stroke="#000000" points="446,-178.5612 446,-197.5612 471,-197.5612 471,-178.5612 446,-178.5612"/>
<text text-anchor="start" x="449" y="-184.6612" font-family="Helvetica,sans-Serif" font-size="11.00" fill="#000000">&lt; 4</text>
<polygon fill="#ffffff" stroke="transparent" points="471,-178.5612 471,-197.5612 511,-197.5612 511,-178.5612 471,-178.5612"/>
<polygon fill="none" stroke="#000000" points="471,-178.5612 471,-197.5612 511,-197.5612 511,-178.5612 471,-178.5612"/>
<text text-anchor="start" x="475.6105" y="-184.6612" font-family="Helvetica,sans-Serif" font-size="11.00" fill="#000000">0 rows</text>
<polygon fill="#ffffff" stroke="transparent" points="511,-178.5612 511,-197.5612 535,-197.5612 535,-178.5612 511,-178.5612"/>
<polygon fill="none" stroke="#000000" points="511,-178.5612 511,-197.5612 535,-197.5612 535,-178.5612 511,-178.5612"/>
<text text-anchor="start" x="516.4053" y="-184.6612" font-family="Helvetica,sans-Serif" font-size="11.00" fill="#000000">1 &gt;</text>
</a>
</g>
</g>
<!-- StudentSubjects&#45;&gt;Subjects -->
<g id="edge42" class="edge">
<title>StudentSubjects:w&#45;&gt;Subjects:e</title>
<path fill="none" stroke="#000000" d="M711.0579,-95.4303C627.6195,-105.8549 628.132,-206.5612 535,-206.5612"/>
<polygon fill="#000000" stroke="#000000" points="717.5144,-95.0418 725.7163,-98.1547 721.5072,-94.8015 725.5,-94.5612 725.5,-94.5612 725.5,-94.5612 721.5072,-94.8015 725.2837,-90.9677 717.5144,-95.0418 717.5144,-95.0418"/>
<ellipse fill="none" stroke="#000000" cx="714.3202" cy="-95.234" rx="3.2" ry="3.2"/>
</g>
<!-- Subjects&#45;&gt;AspNetUsers -->
<g id="edge44" class="edge">
<title>Subjects:w&#45;&gt;AspNetUsers:e</title>
<path fill="none" stroke="#000000" d="M431.5112,-205.6438C315.1414,-196.4539 257.4533,-148.4567 163,-224.5612 117.5651,-261.1698 82.8154,-437.9985 70.177,-513.9169"/>
<polygon fill="#000000" stroke="#000000" points="438.016,-206.0556 445.7725,-210.154 442.008,-206.3084 446,-206.5612 446,-206.5612 446,-206.5612 442.008,-206.3084 446.2275,-202.9684 438.016,-206.0556 438.016,-206.0556"/>
<ellipse fill="none" stroke="#000000" cx="434.8224" cy="-205.8534" rx="3.2" ry="3.2"/>
</g>
<!-- Subjects&#45;&gt;AspNetUsers -->
<g id="edge47" class="edge">
<title>Subjects:w&#45;&gt;AspNetUsers:e</title>
<path fill="none" stroke="#000000" d="M431.5112,-207.1085C315.1414,-209.4539 257.4533,-161.4567 163,-237.5612 118.9147,-273.0824 84.8892,-440.6175 71.3614,-514.0568"/>
<polygon fill="#000000" stroke="#000000" points="438.0057,-206.8633 446.1359,-210.1587 442.0029,-206.7122 446,-206.5612 446,-206.5612 446,-206.5612 442.0029,-206.7122 445.8641,-202.9638 438.0057,-206.8633 438.0057,-206.8633"/>
<ellipse fill="none" stroke="#000000" cx="434.808" cy="-206.9841" rx="3.2" ry="3.2"/>
</g>
<!-- Subjects&#45;&gt;TechnicalCareers -->
<g id="edge46" class="edge">
<title>Subjects:w&#45;&gt;TechnicalCareers:e</title>
<path fill="none" stroke="#000000" d="M431.2879,-207.1429C399.6618,-209.8926 385.6107,-222.6368 361,-250.5612 322.1853,-294.602 374.2041,-374.5612 315.5,-374.5612"/>
<polygon fill="#000000" stroke="#000000" points="438.0062,-206.8773 446.1422,-210.1584 442.0031,-206.7193 446,-206.5612 446,-206.5612 446,-206.5612 442.0031,-206.7193 445.8578,-202.964 438.0062,-206.8773 438.0062,-206.8773"/>
<ellipse fill="none" stroke="#000000" cx="434.8087" cy="-207.0038" rx="3.2" ry="3.2"/>
</g>
<!-- Subjects&#45;&gt;Professors -->
<g id="edge45" class="edge">
<title>Subjects:w&#45;&gt;Professors:e</title>
<path fill="none" stroke="#000000" d="M431.2402,-207.6364C401.4746,-212.3655 393.0199,-231.9106 361,-250.5612 331.4403,-267.7788 330.7085,-292.5612 296.5,-292.5612"/>
<polygon fill="#000000" stroke="#000000" points="438.0211,-207.1425 446.2616,-210.1517 442.0106,-206.8519 446,-206.5612 446,-206.5612 446,-206.5612 442.0106,-206.8519 445.7384,-202.9707 438.0211,-207.1425 438.0211,-207.1425"/>
<ellipse fill="none" stroke="#000000" cx="434.8296" cy="-207.375" rx="3.2" ry="3.2"/>
</g>
</g>
</svg>
