<?xml version="1.0" encoding="UTF-8" standalone="no"?>
<!DOCTYPE svg PUBLIC "-//W3C//DTD SVG 1.1//EN"
 "http://www.w3.org/Graphics/SVG/1.1/DTD/svg11.dtd">
<!-- Generated by graphviz version 2.40.1 (20161225.0304)
 -->
<!-- Title: twoDegreesRelationshipsDiagram Pages: 1 -->
<svg width="1403pt" height="1203pt"
 viewBox="0.00 0.00 1403.00 1203.19" xmlns="http://www.w3.org/2000/svg" xmlns:xlink="http://www.w3.org/1999/xlink">
<g id="graph0" class="graph" transform="scale(1 1) rotate(0) translate(4 1199.1859)">
<title>twoDegreesRelationshipsDiagram</title>
<polygon fill="#ffffff" stroke="transparent" points="-4,4 -4,-1199.1859 1399,-1199.1859 1399,4 -4,4"/>
<text text-anchor="middle" x="72.4936" y="-7.3" font-family="Helvetica,sans-Serif" font-size="11.00" fill="#000000">Generated by SchemaSpy</text>
<!-- AspNetUserClaims -->
<g id="node1" class="node">
<title>AspNetUserClaims</title>
<g id="a_node1"><a xlink:href="../../tables/AspNetUserClaims.html" xlink:title="AspNetUserClaims" target="_top">
<polygon fill="#ffffff" stroke="transparent" points="172,-1130.1859 172,-1191.1859 319,-1191.1859 319,-1130.1859 172,-1130.1859"/>
<polygon fill="#f5f5f5" stroke="transparent" points="172.5,-1167.6859 172.5,-1190.6859 319.5,-1190.6859 319.5,-1167.6859 172.5,-1167.6859"/>
<polygon fill="none" stroke="#000000" points="172.5,-1167.6859 172.5,-1190.6859 319.5,-1190.6859 319.5,-1167.6859 172.5,-1167.6859"/>
<text text-anchor="start" x="177.5" y="-1176.2859" font-family="Helvetica,sans-Serif" font-weight="bold" font-size="11.00" fill="#000000">AspNetUserClaims</text>
<text text-anchor="start" x="285.0219" y="-1175.7859" font-family="Helvetica,sans-Serif" font-size="11.00" fill="#000000">[table]</text>
<polygon fill="none" stroke="#000000" points="172.5,-1148.6859 172.5,-1167.6859 319.5,-1167.6859 319.5,-1148.6859 172.5,-1148.6859"/>
<text text-anchor="start" x="175.5" y="-1154.7859" font-family="Helvetica,sans-Serif" font-size="11.00" fill="#000000">...</text>
<polygon fill="#ffffff" stroke="transparent" points="172.5,-1129.6859 172.5,-1148.6859 231.5,-1148.6859 231.5,-1129.6859 172.5,-1129.6859"/>
<polygon fill="none" stroke="#000000" points="172.5,-1129.6859 172.5,-1148.6859 231.5,-1148.6859 231.5,-1129.6859 172.5,-1129.6859"/>
<text text-anchor="start" x="175.5" y="-1135.7859" font-family="Helvetica,sans-Serif" font-size="11.00" fill="#000000">&lt; 1</text>
<polygon fill="#ffffff" stroke="transparent" points="231.5,-1129.6859 231.5,-1148.6859 288.5,-1148.6859 288.5,-1129.6859 231.5,-1129.6859"/>
<polygon fill="none" stroke="#000000" points="231.5,-1129.6859 231.5,-1148.6859 288.5,-1148.6859 288.5,-1129.6859 231.5,-1129.6859"/>
<text text-anchor="start" x="253.1105" y="-1135.7859" font-family="Helvetica,sans-Serif" font-size="11.00" fill="#000000">0 rows</text>
<polygon fill="#ffffff" stroke="transparent" points="288.5,-1129.6859 288.5,-1148.6859 319.5,-1148.6859 319.5,-1129.6859 288.5,-1129.6859"/>
<polygon fill="none" stroke="#000000" points="288.5,-1129.6859 288.5,-1148.6859 319.5,-1148.6859 319.5,-1129.6859 288.5,-1129.6859"/>
<text text-anchor="start" x="310.3862" y="-1135.7859" font-family="Helvetica,sans-Serif" font-size="11.00" fill="#000000"> &#160;</text>
</a>
</g>
</g>
<!-- AspNetUsers -->
<g id="node2" class="node">
<title>AspNetUsers</title>
<g id="a_node2"><a xlink:href="../../tables/AspNetUsers.html" xlink:title="AspNetUsers" target="_top">
<polygon fill="#ffffff" stroke="transparent" points="8,-584.1859 8,-645.1859 122,-645.1859 122,-584.1859 8,-584.1859"/>
<polygon fill="#f5f5f5" stroke="transparent" points="8,-621.6859 8,-644.6859 122,-644.6859 122,-621.6859 8,-621.6859"/>
<polygon fill="none" stroke="#000000" points="8,-621.6859 8,-644.6859 122,-644.6859 122,-621.6859 8,-621.6859"/>
<text text-anchor="start" x="13" y="-630.2859" font-family="Helvetica,sans-Serif" font-weight="bold" font-size="11.00" fill="#000000">AspNetUsers</text>
<text text-anchor="start" x="87.5219" y="-629.7859" font-family="Helvetica,sans-Serif" font-size="11.00" fill="#000000">[table]</text>
<polygon fill="none" stroke="#000000" points="8,-602.6859 8,-621.6859 122,-621.6859 122,-602.6859 8,-602.6859"/>
<text text-anchor="start" x="11" y="-608.7859" font-family="Helvetica,sans-Serif" font-size="11.00" fill="#000000">...</text>
<polygon fill="#ffffff" stroke="transparent" points="8,-583.6859 8,-602.6859 41,-602.6859 41,-583.6859 8,-583.6859"/>
<polygon fill="none" stroke="#000000" points="8,-583.6859 8,-602.6859 41,-602.6859 41,-583.6859 8,-583.6859"/>
<text text-anchor="start" x="11" y="-589.7859" font-family="Helvetica,sans-Serif" font-size="11.00" fill="#000000"> &#160;</text>
<polygon fill="#ffffff" stroke="transparent" points="41,-583.6859 41,-602.6859 84,-602.6859 84,-583.6859 41,-583.6859"/>
<polygon fill="none" stroke="#000000" points="41,-583.6859 41,-602.6859 84,-602.6859 84,-583.6859 41,-583.6859"/>
<text text-anchor="start" x="54.1105" y="-589.7859" font-family="Helvetica,sans-Serif" font-size="11.00" fill="#000000">1 row</text>
<polygon fill="#ffffff" stroke="transparent" points="84,-583.6859 84,-602.6859 122,-602.6859 122,-583.6859 84,-583.6859"/>
<polygon fill="none" stroke="#000000" points="84,-583.6859 84,-602.6859 122,-602.6859 122,-583.6859 84,-583.6859"/>
<text text-anchor="start" x="97.2904" y="-589.7859" font-family="Helvetica,sans-Serif" font-size="11.00" fill="#000000">29 &gt;</text>
</a>
</g>
</g>
<!-- AspNetUserClaims&#45;&gt;AspNetUsers -->
<g id="edge1" class="edge">
<title>AspNetUserClaims:w&#45;&gt;AspNetUsers:e</title>
<path fill="none" stroke="#000000" d="M159.9337,-1150.2085C113.9705,-1095.7773 78.6289,-759.4937 68.1731,-649.479"/>
<polygon fill="#000000" stroke="#000000" points="165.625,-1153.5951 170.6591,-1160.7797 169.0625,-1155.6405 172.5,-1157.6859 172.5,-1157.6859 172.5,-1157.6859 169.0625,-1155.6405 174.3409,-1154.5922 165.625,-1153.5951 165.625,-1153.5951"/>
<ellipse fill="none" stroke="#000000" cx="162.875" cy="-1151.9587" rx="3.2" ry="3.2"/>
</g>
<!-- AspNetUserLogins -->
<g id="node3" class="node">
<title>AspNetUserLogins</title>
<g id="a_node3"><a xlink:href="../../tables/AspNetUserLogins.html" xlink:title="AspNetUserLogins" target="_top">
<polygon fill="#ffffff" stroke="transparent" points="172,-1048.1859 172,-1109.1859 319,-1109.1859 319,-1048.1859 172,-1048.1859"/>
<polygon fill="#f5f5f5" stroke="transparent" points="172.5,-1085.6859 172.5,-1108.6859 319.5,-1108.6859 319.5,-1085.6859 172.5,-1085.6859"/>
<polygon fill="none" stroke="#000000" points="172.5,-1085.6859 172.5,-1108.6859 319.5,-1108.6859 319.5,-1085.6859 172.5,-1085.6859"/>
<text text-anchor="start" x="177.5" y="-1094.2859" font-family="Helvetica,sans-Serif" font-weight="bold" font-size="11.00" fill="#000000">AspNetUserLogins</text>
<text text-anchor="start" x="285.0219" y="-1093.7859" font-family="Helvetica,sans-Serif" font-size="11.00" fill="#000000">[table]</text>
<polygon fill="none" stroke="#000000" points="172.5,-1066.6859 172.5,-1085.6859 319.5,-1085.6859 319.5,-1066.6859 172.5,-1066.6859"/>
<text text-anchor="start" x="175.5" y="-1072.7859" font-family="Helvetica,sans-Serif" font-size="11.00" fill="#000000">...</text>
<polygon fill="#ffffff" stroke="transparent" points="172.5,-1047.6859 172.5,-1066.6859 231.5,-1066.6859 231.5,-1047.6859 172.5,-1047.6859"/>
<polygon fill="none" stroke="#000000" points="172.5,-1047.6859 172.5,-1066.6859 231.5,-1066.6859 231.5,-1047.6859 172.5,-1047.6859"/>
<text text-anchor="start" x="175.5" y="-1053.7859" font-family="Helvetica,sans-Serif" font-size="11.00" fill="#000000">&lt; 1</text>
<polygon fill="#ffffff" stroke="transparent" points="231.5,-1047.6859 231.5,-1066.6859 288.5,-1066.6859 288.5,-1047.6859 231.5,-1047.6859"/>
<polygon fill="none" stroke="#000000" points="231.5,-1047.6859 231.5,-1066.6859 288.5,-1066.6859 288.5,-1047.6859 231.5,-1047.6859"/>
<text text-anchor="start" x="253.1105" y="-1053.7859" font-family="Helvetica,sans-Serif" font-size="11.00" fill="#000000">0 rows</text>
<polygon fill="#ffffff" stroke="transparent" points="288.5,-1047.6859 288.5,-1066.6859 319.5,-1066.6859 319.5,-1047.6859 288.5,-1047.6859"/>
<polygon fill="none" stroke="#000000" points="288.5,-1047.6859 288.5,-1066.6859 319.5,-1066.6859 319.5,-1047.6859 288.5,-1047.6859"/>
<text text-anchor="start" x="310.3862" y="-1053.7859" font-family="Helvetica,sans-Serif" font-size="11.00" fill="#000000"> &#160;</text>
</a>
</g>
</g>
<!-- AspNetUserLogins&#45;&gt;AspNetUsers -->
<g id="edge2" class="edge">
<title>AspNetUserLogins:w&#45;&gt;AspNetUsers:e</title>
<path fill="none" stroke="#000000" d="M158.3028,-1072.7109C83.1726,-1040.2133 68.5076,-750.4742 65.6719,-649.3358"/>
<polygon fill="#000000" stroke="#000000" points="164.6701,-1074.0451 171.7616,-1079.2094 168.585,-1074.8655 172.5,-1075.6859 172.5,-1075.6859 172.5,-1075.6859 168.585,-1074.8655 173.2384,-1072.1624 164.6701,-1074.0451 164.6701,-1074.0451"/>
<ellipse fill="none" stroke="#000000" cx="161.5381" cy="-1073.3888" rx="3.2" ry="3.2"/>
</g>
<!-- AspNetUserRoles -->
<g id="node4" class="node">
<title>AspNetUserRoles</title>
<g id="a_node4"><a xlink:href="../../tables/AspNetUserRoles.html" xlink:title="AspNetUserRoles" target="_top">
<polygon fill="#ffffff" stroke="transparent" points="175.5,-966.1859 175.5,-1027.1859 315.5,-1027.1859 315.5,-966.1859 175.5,-966.1859"/>
<polygon fill="#f5f5f5" stroke="transparent" points="175.5,-1003.6859 175.5,-1026.6859 315.5,-1026.6859 315.5,-1003.6859 175.5,-1003.6859"/>
<polygon fill="none" stroke="#000000" points="175.5,-1003.6859 175.5,-1026.6859 315.5,-1026.6859 315.5,-1003.6859 175.5,-1003.6859"/>
<text text-anchor="start" x="180.5" y="-1012.2859" font-family="Helvetica,sans-Serif" font-weight="bold" font-size="11.00" fill="#000000">AspNetUserRoles</text>
<text text-anchor="start" x="281.0219" y="-1011.7859" font-family="Helvetica,sans-Serif" font-size="11.00" fill="#000000">[table]</text>
<polygon fill="none" stroke="#000000" points="175.5,-984.6859 175.5,-1003.6859 315.5,-1003.6859 315.5,-984.6859 175.5,-984.6859"/>
<text text-anchor="start" x="178.5" y="-990.7859" font-family="Helvetica,sans-Serif" font-size="11.00" fill="#000000">...</text>
<polygon fill="#ffffff" stroke="transparent" points="175.5,-965.6859 175.5,-984.6859 233.5,-984.6859 233.5,-965.6859 175.5,-965.6859"/>
<polygon fill="none" stroke="#000000" points="175.5,-965.6859 175.5,-984.6859 233.5,-984.6859 233.5,-965.6859 175.5,-965.6859"/>
<text text-anchor="start" x="178.5" y="-971.7859" font-family="Helvetica,sans-Serif" font-size="11.00" fill="#000000">&lt; 2</text>
<polygon fill="#ffffff" stroke="transparent" points="233.5,-965.6859 233.5,-984.6859 284.5,-984.6859 284.5,-965.6859 233.5,-965.6859"/>
<polygon fill="none" stroke="#000000" points="233.5,-965.6859 233.5,-984.6859 284.5,-984.6859 284.5,-965.6859 233.5,-965.6859"/>
<text text-anchor="start" x="254.6105" y="-971.7859" font-family="Helvetica,sans-Serif" font-size="11.00" fill="#000000">1 row</text>
<polygon fill="#ffffff" stroke="transparent" points="284.5,-965.6859 284.5,-984.6859 315.5,-984.6859 315.5,-965.6859 284.5,-965.6859"/>
<polygon fill="none" stroke="#000000" points="284.5,-965.6859 284.5,-984.6859 315.5,-984.6859 315.5,-965.6859 284.5,-965.6859"/>
<text text-anchor="start" x="306.3862" y="-971.7859" font-family="Helvetica,sans-Serif" font-size="11.00" fill="#000000"> &#160;</text>
</a>
</g>
</g>
<!-- AspNetUserRoles&#45;&gt;AspNetUsers -->
<g id="edge3" class="edge">
<title>AspNetUserRoles:w&#45;&gt;AspNetUsers:e</title>
<path fill="none" stroke="#000000" d="M161.4599,-990.3003C100.3493,-960.1315 75.2006,-736.4892 67.6505,-649.3244"/>
<polygon fill="#000000" stroke="#000000" points="167.7229,-991.8105 174.6561,-997.1856 171.6115,-992.7482 175.5,-993.6859 175.5,-993.6859 175.5,-993.6859 171.6115,-992.7482 176.3439,-990.1862 167.7229,-991.8105 167.7229,-991.8105"/>
<ellipse fill="none" stroke="#000000" cx="164.6121" cy="-991.0603" rx="3.2" ry="3.2"/>
</g>
<!-- AspNetUserTokens -->
<g id="node5" class="node">
<title>AspNetUserTokens</title>
<g id="a_node5"><a xlink:href="../../tables/AspNetUserTokens.html" xlink:title="AspNetUserTokens" target="_top">
<polygon fill="#ffffff" stroke="transparent" points="171,-884.1859 171,-945.1859 320,-945.1859 320,-884.1859 171,-884.1859"/>
<polygon fill="#f5f5f5" stroke="transparent" points="171.5,-921.6859 171.5,-944.6859 320.5,-944.6859 320.5,-921.6859 171.5,-921.6859"/>
<polygon fill="none" stroke="#000000" points="171.5,-921.6859 171.5,-944.6859 320.5,-944.6859 320.5,-921.6859 171.5,-921.6859"/>
<text text-anchor="start" x="176.5" y="-930.2859" font-family="Helvetica,sans-Serif" font-weight="bold" font-size="11.00" fill="#000000">AspNetUserTokens</text>
<text text-anchor="start" x="286.0219" y="-929.7859" font-family="Helvetica,sans-Serif" font-size="11.00" fill="#000000">[table]</text>
<polygon fill="none" stroke="#000000" points="171.5,-902.6859 171.5,-921.6859 320.5,-921.6859 320.5,-902.6859 171.5,-902.6859"/>
<text text-anchor="start" x="174.5" y="-908.7859" font-family="Helvetica,sans-Serif" font-size="11.00" fill="#000000">...</text>
<polygon fill="#ffffff" stroke="transparent" points="171.5,-883.6859 171.5,-902.6859 231.5,-902.6859 231.5,-883.6859 171.5,-883.6859"/>
<polygon fill="none" stroke="#000000" points="171.5,-883.6859 171.5,-902.6859 231.5,-902.6859 231.5,-883.6859 171.5,-883.6859"/>
<text text-anchor="start" x="174.5" y="-889.7859" font-family="Helvetica,sans-Serif" font-size="11.00" fill="#000000">&lt; 1</text>
<polygon fill="#ffffff" stroke="transparent" points="231.5,-883.6859 231.5,-902.6859 288.5,-902.6859 288.5,-883.6859 231.5,-883.6859"/>
<polygon fill="none" stroke="#000000" points="231.5,-883.6859 231.5,-902.6859 288.5,-902.6859 288.5,-883.6859 231.5,-883.6859"/>
<text text-anchor="start" x="253.1105" y="-889.7859" font-family="Helvetica,sans-Serif" font-size="11.00" fill="#000000">0 rows</text>
<polygon fill="#ffffff" stroke="transparent" points="288.5,-883.6859 288.5,-902.6859 320.5,-902.6859 320.5,-883.6859 288.5,-883.6859"/>
<polygon fill="none" stroke="#000000" points="288.5,-883.6859 288.5,-902.6859 320.5,-902.6859 320.5,-883.6859 288.5,-883.6859"/>
<text text-anchor="start" x="311.3862" y="-889.7859" font-family="Helvetica,sans-Serif" font-size="11.00" fill="#000000"> &#160;</text>
</a>
</g>
</g>
<!-- AspNetUserTokens&#45;&gt;AspNetUsers -->
<g id="edge4" class="edge">
<title>AspNetUserTokens:w&#45;&gt;AspNetUsers:e</title>
<path fill="none" stroke="#000000" d="M157.4336,-907.6184C110.4555,-880.1577 80.9574,-720.7964 69.9216,-649.3369"/>
<polygon fill="#000000" stroke="#000000" points="163.8148,-909.4636 170.5,-915.1442 167.6574,-910.5748 171.5,-911.6859 171.5,-911.6859 171.5,-911.6859 167.6574,-910.5748 172.5,-908.2276 163.8148,-909.4636 163.8148,-909.4636"/>
<ellipse fill="none" stroke="#000000" cx="160.7408" cy="-908.5747" rx="3.2" ry="3.2"/>
</g>
<!-- Competencies -->
<g id="node6" class="node">
<title>Competencies</title>
<g id="a_node6"><a xlink:href="../../tables/Competencies.html" xlink:title="Competencies" target="_top">
<polygon fill="#ffffff" stroke="transparent" points="185,-723.1859 185,-784.1859 306,-784.1859 306,-723.1859 185,-723.1859"/>
<polygon fill="#f5f5f5" stroke="transparent" points="185.5,-760.6859 185.5,-783.6859 306.5,-783.6859 306.5,-760.6859 185.5,-760.6859"/>
<polygon fill="none" stroke="#000000" points="185.5,-760.6859 185.5,-783.6859 306.5,-783.6859 306.5,-760.6859 185.5,-760.6859"/>
<text text-anchor="start" x="190.5" y="-769.2859" font-family="Helvetica,sans-Serif" font-weight="bold" font-size="11.00" fill="#000000">Competencies</text>
<text text-anchor="start" x="272.0219" y="-768.7859" font-family="Helvetica,sans-Serif" font-size="11.00" fill="#000000">[table]</text>
<polygon fill="none" stroke="#000000" points="185.5,-741.6859 185.5,-760.6859 306.5,-760.6859 306.5,-741.6859 185.5,-741.6859"/>
<text text-anchor="start" x="188.5" y="-747.7859" font-family="Helvetica,sans-Serif" font-size="11.00" fill="#000000">...</text>
<polygon fill="#ffffff" stroke="transparent" points="185.5,-722.6859 185.5,-741.6859 226.5,-741.6859 226.5,-722.6859 185.5,-722.6859"/>
<polygon fill="none" stroke="#000000" points="185.5,-722.6859 185.5,-741.6859 226.5,-741.6859 226.5,-722.6859 185.5,-722.6859"/>
<text text-anchor="start" x="188.5" y="-728.7859" font-family="Helvetica,sans-Serif" font-size="11.00" fill="#000000">&lt; 2</text>
<polygon fill="#ffffff" stroke="transparent" points="226.5,-722.6859 226.5,-741.6859 274.5,-741.6859 274.5,-722.6859 226.5,-722.6859"/>
<polygon fill="none" stroke="#000000" points="226.5,-722.6859 226.5,-741.6859 274.5,-741.6859 274.5,-722.6859 226.5,-722.6859"/>
<text text-anchor="start" x="239.1105" y="-728.7859" font-family="Helvetica,sans-Serif" font-size="11.00" fill="#000000">5 rows</text>
<polygon fill="#ffffff" stroke="transparent" points="274.5,-722.6859 274.5,-741.6859 306.5,-741.6859 306.5,-722.6859 274.5,-722.6859"/>
<polygon fill="none" stroke="#000000" points="274.5,-722.6859 274.5,-741.6859 306.5,-741.6859 306.5,-722.6859 274.5,-722.6859"/>
<text text-anchor="start" x="287.9053" y="-728.7859" font-family="Helvetica,sans-Serif" font-size="11.00" fill="#000000">4 &gt;</text>
</a>
</g>
</g>
<!-- Competencies&#45;&gt;AspNetUsers -->
<g id="edge5" class="edge">
<title>Competencies:w&#45;&gt;AspNetUsers:e</title>
<path fill="none" stroke="#000000" d="M171.2265,-748.2115C126.6974,-735.9882 96.3051,-684.5822 79.7914,-649.1909"/>
<polygon fill="#000000" stroke="#000000" points="177.6176,-749.3194 184.8851,-754.233 181.5588,-750.0027 185.5,-750.6859 185.5,-750.6859 185.5,-750.6859 181.5588,-750.0027 186.1149,-747.1388 177.6176,-749.3194 177.6176,-749.3194"/>
<ellipse fill="none" stroke="#000000" cx="174.4646" cy="-748.7728" rx="3.2" ry="3.2"/>
</g>
<!-- Competencies&#45;&gt;AspNetUsers -->
<g id="edge6" class="edge">
<title>Competencies:w&#45;&gt;AspNetUsers:e</title>
<path fill="none" stroke="#000000" d="M170.8453,-750.3899C122.9784,-744.185 91.5055,-687.515 76.1045,-649.3176"/>
<polygon fill="#000000" stroke="#000000" points="177.5016,-750.5243 185.4273,-754.2852 181.5008,-750.6051 185.5,-750.6859 185.5,-750.6859 185.5,-750.6859 181.5008,-750.6051 185.5727,-747.0867 177.5016,-750.5243 177.5016,-750.5243"/>
<ellipse fill="none" stroke="#000000" cx="174.3023" cy="-750.4597" rx="3.2" ry="3.2"/>
</g>
<!-- CompetencyLevelDescriptions -->
<g id="node7" class="node">
<title>CompetencyLevelDescriptions</title>
<g id="a_node7"><a xlink:href="../../tables/CompetencyLevelDescriptions.html" xlink:title="CompetencyLevelDescriptions" target="_top">
<polygon fill="#ffffff" stroke="transparent" points="377,-845.1859 377,-906.1859 591,-906.1859 591,-845.1859 377,-845.1859"/>
<polygon fill="#f5f5f5" stroke="transparent" points="377,-882.6859 377,-905.6859 591,-905.6859 591,-882.6859 377,-882.6859"/>
<polygon fill="none" stroke="#000000" points="377,-882.6859 377,-905.6859 591,-905.6859 591,-882.6859 377,-882.6859"/>
<text text-anchor="start" x="382" y="-891.2859" font-family="Helvetica,sans-Serif" font-weight="bold" font-size="11.00" fill="#000000">CompetencyLevelDescriptions</text>
<text text-anchor="start" x="556.5219" y="-890.7859" font-family="Helvetica,sans-Serif" font-size="11.00" fill="#000000">[table]</text>
<polygon fill="none" stroke="#000000" points="377,-863.6859 377,-882.6859 591,-882.6859 591,-863.6859 377,-863.6859"/>
<text text-anchor="start" x="380" y="-869.7859" font-family="Helvetica,sans-Serif" font-size="11.00" fill="#000000">...</text>
<polygon fill="#ffffff" stroke="transparent" points="377,-844.6859 377,-863.6859 466,-863.6859 466,-844.6859 377,-844.6859"/>
<polygon fill="none" stroke="#000000" points="377,-844.6859 377,-863.6859 466,-863.6859 466,-844.6859 377,-844.6859"/>
<text text-anchor="start" x="380" y="-850.7859" font-family="Helvetica,sans-Serif" font-size="11.00" fill="#000000">&lt; 3</text>
<polygon fill="#ffffff" stroke="transparent" points="466,-844.6859 466,-863.6859 544,-863.6859 544,-844.6859 466,-844.6859"/>
<polygon fill="none" stroke="#000000" points="466,-844.6859 466,-863.6859 544,-863.6859 544,-844.6859 466,-844.6859"/>
<text text-anchor="start" x="502.4956" y="-850.7859" font-family="Helvetica,sans-Serif" font-size="11.00" fill="#000000">20 rows</text>
<polygon fill="#ffffff" stroke="transparent" points="544,-844.6859 544,-863.6859 591,-863.6859 591,-844.6859 544,-844.6859"/>
<polygon fill="none" stroke="#000000" points="544,-844.6859 544,-863.6859 591,-863.6859 591,-844.6859 544,-844.6859"/>
<text text-anchor="start" x="581.8862" y="-850.7859" font-family="Helvetica,sans-Serif" font-size="11.00" fill="#000000"> &#160;</text>
</a>
</g>
</g>
<!-- CompetencyLevelDescriptions&#45;&gt;AspNetUsers -->
<g id="edge8" class="edge">
<title>CompetencyLevelDescriptions:w&#45;&gt;AspNetUsers:e</title>
<path fill="none" stroke="#000000" d="M362.5038,-870.9582C306.8112,-864.4486 197.6659,-852.1125 163,-824.6859 106.9696,-780.3564 81.8729,-696.9002 71.5164,-649.5817"/>
<polygon fill="#000000" stroke="#000000" points="369.0562,-871.7391 376.5739,-876.2606 373.0281,-872.2125 377,-872.6859 377,-872.6859 377,-872.6859 373.0281,-872.2125 377.4261,-869.1112 369.0562,-871.7391 369.0562,-871.7391"/>
<ellipse fill="none" stroke="#000000" cx="365.8787" cy="-871.3603" rx="3.2" ry="3.2"/>
</g>
<!-- CompetencyLevelDescriptions&#45;&gt;AspNetUsers -->
<g id="edge9" class="edge">
<title>CompetencyLevelDescriptions:w&#45;&gt;AspNetUsers:e</title>
<path fill="none" stroke="#000000" d="M362.5038,-874.0935C306.8112,-877.4486 197.6659,-865.1125 163,-837.6859 103.5787,-790.6737 78.9486,-699.6556 69.7944,-649.5775"/>
<polygon fill="#000000" stroke="#000000" points="369.0374,-873.4591 377.3479,-876.2691 373.0187,-873.0725 377,-872.6859 377,-872.6859 377,-872.6859 373.0187,-873.0725 376.6521,-869.1028 369.0374,-873.4591 369.0374,-873.4591"/>
<ellipse fill="none" stroke="#000000" cx="365.8524" cy="-873.7684" rx="3.2" ry="3.2"/>
</g>
<!-- CompetencyLevelDescriptions&#45;&gt;Competencies -->
<g id="edge7" class="edge">
<title>CompetencyLevelDescriptions:w&#45;&gt;Competencies:e</title>
<path fill="none" stroke="#000000" d="M362.7928,-869.9086C323.2658,-851.7488 363.4981,-750.6859 306.5,-750.6859"/>
<polygon fill="#000000" stroke="#000000" points="369.1486,-871.151 376.3093,-876.219 373.0743,-871.9185 377,-872.6859 377,-872.6859 377,-872.6859 373.0743,-871.9185 377.6907,-869.1528 369.1486,-871.151 369.1486,-871.151"/>
<ellipse fill="none" stroke="#000000" cx="366.0081" cy="-870.537" rx="3.2" ry="3.2"/>
</g>
<!-- Coordinators -->
<g id="node8" class="node">
<title>Coordinators</title>
<g id="a_node8"><a xlink:href="../../tables/Coordinators.html" xlink:title="Coordinators" target="_top">
<polygon fill="#ffffff" stroke="transparent" points="427,-174.1859 427,-235.1859 541,-235.1859 541,-174.1859 427,-174.1859"/>
<polygon fill="#f5f5f5" stroke="transparent" points="427,-211.6859 427,-234.6859 541,-234.6859 541,-211.6859 427,-211.6859"/>
<polygon fill="none" stroke="#000000" points="427,-211.6859 427,-234.6859 541,-234.6859 541,-211.6859 427,-211.6859"/>
<text text-anchor="start" x="432" y="-220.2859" font-family="Helvetica,sans-Serif" font-weight="bold" font-size="11.00" fill="#000000">Coordinators</text>
<text text-anchor="start" x="506.5219" y="-219.7859" font-family="Helvetica,sans-Serif" font-size="11.00" fill="#000000">[table]</text>
<polygon fill="none" stroke="#000000" points="427,-192.6859 427,-211.6859 541,-211.6859 541,-192.6859 427,-192.6859"/>
<text text-anchor="start" x="430" y="-198.7859" font-family="Helvetica,sans-Serif" font-size="11.00" fill="#000000">...</text>
<polygon fill="#ffffff" stroke="transparent" points="427,-173.6859 427,-192.6859 469,-192.6859 469,-173.6859 427,-173.6859"/>
<polygon fill="none" stroke="#000000" points="427,-173.6859 427,-192.6859 469,-192.6859 469,-173.6859 427,-173.6859"/>
<text text-anchor="start" x="430" y="-179.7859" font-family="Helvetica,sans-Serif" font-size="11.00" fill="#000000">&lt; 2</text>
<polygon fill="#ffffff" stroke="transparent" points="469,-173.6859 469,-192.6859 518,-192.6859 518,-173.6859 469,-173.6859"/>
<polygon fill="none" stroke="#000000" points="469,-173.6859 469,-192.6859 518,-192.6859 518,-173.6859 469,-173.6859"/>
<text text-anchor="start" x="482.6105" y="-179.7859" font-family="Helvetica,sans-Serif" font-size="11.00" fill="#000000">0 rows</text>
<polygon fill="#ffffff" stroke="transparent" points="518,-173.6859 518,-192.6859 541,-192.6859 541,-173.6859 518,-173.6859"/>
<polygon fill="none" stroke="#000000" points="518,-173.6859 518,-192.6859 541,-192.6859 541,-173.6859 518,-173.6859"/>
<text text-anchor="start" x="531.8862" y="-179.7859" font-family="Helvetica,sans-Serif" font-size="11.00" fill="#000000"> &#160;</text>
</a>
</g>
</g>
<!-- Coordinators&#45;&gt;AspNetUsers -->
<g id="edge11" class="edge">
<title>Coordinators:w&#45;&gt;AspNetUsers:e</title>
<path fill="none" stroke="#000000" d="M416.5944,-201.6278C303.4267,-200.3798 247.5684,-180.2598 163,-260.6859 116.3283,-305.0716 82.2936,-499.8185 70.0119,-580.0024"/>
<polygon fill="#000000" stroke="#000000" points="426.2224,-197.6815 426.1776,-205.6814 424.5777,-205.6724 424.6224,-197.6725 426.2224,-197.6815"/>
<polyline fill="none" stroke="#000000" points="427,-201.6859 423.0001,-201.6635 "/>
<ellipse fill="none" stroke="#000000" cx="419.8001" cy="-201.6456" rx="3.2" ry="3.2"/>
</g>
<!-- TechnicalCareers -->
<g id="node9" class="node">
<title>TechnicalCareers</title>
<g id="a_node9"><a xlink:href="../../tables/TechnicalCareers.html" xlink:title="TechnicalCareers" target="_top">
<polygon fill="#ffffff" stroke="transparent" points="176,-319.1859 176,-380.1859 315,-380.1859 315,-319.1859 176,-319.1859"/>
<polygon fill="#f5f5f5" stroke="transparent" points="176.5,-356.6859 176.5,-379.6859 315.5,-379.6859 315.5,-356.6859 176.5,-356.6859"/>
<polygon fill="none" stroke="#000000" points="176.5,-356.6859 176.5,-379.6859 315.5,-379.6859 315.5,-356.6859 176.5,-356.6859"/>
<text text-anchor="start" x="181.5" y="-365.2859" font-family="Helvetica,sans-Serif" font-weight="bold" font-size="11.00" fill="#000000">TechnicalCareers</text>
<text text-anchor="start" x="281.0219" y="-364.7859" font-family="Helvetica,sans-Serif" font-size="11.00" fill="#000000">[table]</text>
<polygon fill="none" stroke="#000000" points="176.5,-337.6859 176.5,-356.6859 315.5,-356.6859 315.5,-337.6859 176.5,-337.6859"/>
<text text-anchor="start" x="179.5" y="-343.7859" font-family="Helvetica,sans-Serif" font-size="11.00" fill="#000000">...</text>
<polygon fill="#ffffff" stroke="transparent" points="176.5,-318.6859 176.5,-337.6859 226.5,-337.6859 226.5,-318.6859 176.5,-318.6859"/>
<polygon fill="none" stroke="#000000" points="176.5,-318.6859 176.5,-337.6859 226.5,-337.6859 226.5,-318.6859 176.5,-318.6859"/>
<text text-anchor="start" x="179.5" y="-324.7859" font-family="Helvetica,sans-Serif" font-size="11.00" fill="#000000">&lt; 2</text>
<polygon fill="#ffffff" stroke="transparent" points="226.5,-318.6859 226.5,-337.6859 279.5,-337.6859 279.5,-318.6859 226.5,-318.6859"/>
<polygon fill="none" stroke="#000000" points="226.5,-318.6859 226.5,-337.6859 279.5,-337.6859 279.5,-318.6859 226.5,-318.6859"/>
<text text-anchor="start" x="244.1105" y="-324.7859" font-family="Helvetica,sans-Serif" font-size="11.00" fill="#000000">6 rows</text>
<polygon fill="#ffffff" stroke="transparent" points="279.5,-318.6859 279.5,-337.6859 315.5,-337.6859 315.5,-318.6859 279.5,-318.6859"/>
<polygon fill="none" stroke="#000000" points="279.5,-318.6859 279.5,-337.6859 315.5,-337.6859 315.5,-318.6859 279.5,-318.6859"/>
<text text-anchor="start" x="296.9053" y="-324.7859" font-family="Helvetica,sans-Serif" font-size="11.00" fill="#000000">6 &gt;</text>
</a>
</g>
</g>
<!-- Coordinators&#45;&gt;TechnicalCareers -->
<g id="edge10" class="edge">
<title>Coordinators:w&#45;&gt;TechnicalCareers:e</title>
<path fill="none" stroke="#000000" d="M412.6396,-202.851C388.9782,-207.1248 380.3206,-222.8882 361,-245.6859 329.1689,-283.2456 364.7336,-346.6859 315.5,-346.6859"/>
<polygon fill="#000000" stroke="#000000" points="419.0262,-202.3329 427.2911,-205.2741 423.0131,-202.0094 427,-201.6859 427,-201.6859 427,-201.6859 423.0131,-202.0094 426.7089,-198.0977 419.0262,-202.3329 419.0262,-202.3329"/>
<ellipse fill="none" stroke="#000000" cx="415.8367" cy="-202.5917" rx="3.2" ry="3.2"/>
</g>
<!-- TechnicalCareers&#45;&gt;AspNetUsers -->
<g id="edge50" class="edge">
<title>TechnicalCareers:w&#45;&gt;AspNetUsers:e</title>
<path fill="none" stroke="#000000" d="M162.2509,-349.7562C118.3865,-372.6436 84.4916,-513.6239 71.1602,-580.1285"/>
<polygon fill="#000000" stroke="#000000" points="168.6795,-348.3711 177.2583,-350.2051 172.5897,-347.5285 176.5,-346.6859 176.5,-346.6859 176.5,-346.6859 172.5897,-347.5285 175.7417,-343.1667 168.6795,-348.3711 168.6795,-348.3711"/>
<ellipse fill="none" stroke="#000000" cx="165.5513" cy="-349.0451" rx="3.2" ry="3.2"/>
</g>
<!-- TechnicalCareers&#45;&gt;AspNetUsers -->
<g id="edge51" class="edge">
<title>TechnicalCareers:w&#45;&gt;AspNetUsers:e</title>
<path fill="none" stroke="#000000" d="M162.9596,-351.9833C120.2618,-380.6609 86.9107,-515.4718 72.606,-580.0996"/>
<polygon fill="#000000" stroke="#000000" points="169.0499,-349.6007 177.8116,-350.0385 172.7749,-348.1433 176.5,-346.6859 176.5,-346.6859 176.5,-346.6859 172.7749,-348.1433 175.1884,-343.3334 169.0499,-349.6007 169.0499,-349.6007"/>
<ellipse fill="none" stroke="#000000" cx="166.0698" cy="-350.7666" rx="3.2" ry="3.2"/>
</g>
<!-- EvaluationPeriods -->
<g id="node10" class="node">
<title>EvaluationPeriods</title>
<g id="a_node10"><a xlink:href="../../tables/EvaluationPeriods.html" xlink:title="EvaluationPeriods" target="_top">
<polygon fill="#ffffff" stroke="transparent" points="174,-523.1859 174,-584.1859 317,-584.1859 317,-523.1859 174,-523.1859"/>
<polygon fill="#f5f5f5" stroke="transparent" points="174.5,-560.6859 174.5,-583.6859 317.5,-583.6859 317.5,-560.6859 174.5,-560.6859"/>
<polygon fill="none" stroke="#000000" points="174.5,-560.6859 174.5,-583.6859 317.5,-583.6859 317.5,-560.6859 174.5,-560.6859"/>
<text text-anchor="start" x="179.5" y="-569.2859" font-family="Helvetica,sans-Serif" font-weight="bold" font-size="11.00" fill="#000000">EvaluationPeriods</text>
<text text-anchor="start" x="283.0219" y="-568.7859" font-family="Helvetica,sans-Serif" font-size="11.00" fill="#000000">[table]</text>
<polygon fill="none" stroke="#000000" points="174.5,-541.6859 174.5,-560.6859 317.5,-560.6859 317.5,-541.6859 174.5,-541.6859"/>
<text text-anchor="start" x="177.5" y="-547.7859" font-family="Helvetica,sans-Serif" font-size="11.00" fill="#000000">...</text>
<polygon fill="#ffffff" stroke="transparent" points="174.5,-522.6859 174.5,-541.6859 226.5,-541.6859 226.5,-522.6859 174.5,-522.6859"/>
<polygon fill="none" stroke="#000000" points="174.5,-522.6859 174.5,-541.6859 226.5,-541.6859 226.5,-522.6859 174.5,-522.6859"/>
<text text-anchor="start" x="177.5" y="-528.7859" font-family="Helvetica,sans-Serif" font-size="11.00" fill="#000000">&lt; 2</text>
<polygon fill="#ffffff" stroke="transparent" points="226.5,-522.6859 226.5,-541.6859 280.5,-541.6859 280.5,-522.6859 226.5,-522.6859"/>
<polygon fill="none" stroke="#000000" points="226.5,-522.6859 226.5,-541.6859 280.5,-541.6859 280.5,-522.6859 226.5,-522.6859"/>
<text text-anchor="start" x="245.1105" y="-528.7859" font-family="Helvetica,sans-Serif" font-size="11.00" fill="#000000">0 rows</text>
<polygon fill="#ffffff" stroke="transparent" points="280.5,-522.6859 280.5,-541.6859 317.5,-541.6859 317.5,-522.6859 280.5,-522.6859"/>
<polygon fill="none" stroke="#000000" points="280.5,-522.6859 280.5,-541.6859 317.5,-541.6859 317.5,-522.6859 280.5,-522.6859"/>
<text text-anchor="start" x="298.9053" y="-528.7859" font-family="Helvetica,sans-Serif" font-size="11.00" fill="#000000">3 &gt;</text>
</a>
</g>
</g>
<!-- EvaluationPeriods&#45;&gt;AspNetUsers -->
<g id="edge12" class="edge">
<title>EvaluationPeriods:w&#45;&gt;AspNetUsers:e</title>
<path fill="none" stroke="#000000" d="M152.077,-580.7607C144.6918,-583.2681 137.3349,-585.8061 130.2045,-588.3077"/>
<polygon fill="#000000" stroke="#000000" points="158.2216,-578.6954 166.9517,-579.5588 162.0131,-577.4209 165.8047,-576.1464 165.8047,-576.1464 165.8047,-576.1464 162.0131,-577.4209 164.6576,-572.734 158.2216,-578.6954 158.2216,-578.6954"/>
<ellipse fill="none" stroke="#000000" cx="155.1883" cy="-579.7149" rx="3.2" ry="3.2"/>
</g>
<!-- EvaluationPeriods&#45;&gt;AspNetUsers -->
<g id="edge13" class="edge">
<title>EvaluationPeriods:w&#45;&gt;AspNetUsers:e</title>
<path fill="none" stroke="#000000" d="M152.077,-590.5053C144.6918,-592.9878 137.3349,-595.4137 130.2045,-597.7161"/>
<polygon fill="#000000" stroke="#000000" points="158.2306,-588.4127 166.9637,-589.2452 162.0176,-587.1248 165.8047,-585.8369 165.8047,-585.8369 165.8047,-585.8369 162.0176,-587.1248 164.6456,-582.4286 158.2306,-588.4127 158.2306,-588.4127"/>
<ellipse fill="none" stroke="#000000" cx="155.201" cy="-589.443" rx="3.2" ry="3.2"/>
</g>
<!-- EvaluationPeriodTechnicalCareer -->
<g id="node11" class="node">
<title>EvaluationPeriodTechnicalCareer</title>
<g id="a_node11"><a xlink:href="../../tables/EvaluationPeriodTechnicalCareer.html" xlink:title="EvaluationPeriodTechnicalCareer" target="_top">
<polygon fill="#ffffff" stroke="transparent" points="369,-448.1859 369,-509.1859 599,-509.1859 599,-448.1859 369,-448.1859"/>
<polygon fill="#f5f5f5" stroke="transparent" points="369,-485.6859 369,-508.6859 599,-508.6859 599,-485.6859 369,-485.6859"/>
<polygon fill="none" stroke="#000000" points="369,-485.6859 369,-508.6859 599,-508.6859 599,-485.6859 369,-485.6859"/>
<text text-anchor="start" x="374" y="-494.2859" font-family="Helvetica,sans-Serif" font-weight="bold" font-size="11.00" fill="#000000">EvaluationPeriodTechnicalCareer</text>
<text text-anchor="start" x="564.5219" y="-493.7859" font-family="Helvetica,sans-Serif" font-size="11.00" fill="#000000">[table]</text>
<polygon fill="none" stroke="#000000" points="369,-466.6859 369,-485.6859 599,-485.6859 599,-466.6859 369,-466.6859"/>
<text text-anchor="start" x="372" y="-472.7859" font-family="Helvetica,sans-Serif" font-size="11.00" fill="#000000">...</text>
<polygon fill="#ffffff" stroke="transparent" points="369,-447.6859 369,-466.6859 469,-466.6859 469,-447.6859 369,-447.6859"/>
<polygon fill="none" stroke="#000000" points="369,-447.6859 369,-466.6859 469,-466.6859 469,-447.6859 369,-447.6859"/>
<text text-anchor="start" x="372" y="-453.7859" font-family="Helvetica,sans-Serif" font-size="11.00" fill="#000000">&lt; 2</text>
<polygon fill="#ffffff" stroke="transparent" points="469,-447.6859 469,-466.6859 547,-466.6859 547,-447.6859 469,-447.6859"/>
<polygon fill="none" stroke="#000000" points="469,-447.6859 469,-466.6859 547,-466.6859 547,-447.6859 469,-447.6859"/>
<text text-anchor="start" x="511.6105" y="-453.7859" font-family="Helvetica,sans-Serif" font-size="11.00" fill="#000000">0 rows</text>
<polygon fill="#ffffff" stroke="transparent" points="547,-447.6859 547,-466.6859 599,-466.6859 599,-447.6859 547,-447.6859"/>
<polygon fill="none" stroke="#000000" points="547,-447.6859 547,-466.6859 599,-466.6859 599,-447.6859 547,-447.6859"/>
<text text-anchor="start" x="589.8862" y="-453.7859" font-family="Helvetica,sans-Serif" font-size="11.00" fill="#000000"> &#160;</text>
</a>
</g>
</g>
<!-- EvaluationPeriodTechnicalCareer&#45;&gt;TechnicalCareers -->
<g id="edge15" class="edge">
<title>EvaluationPeriodTechnicalCareer:w&#45;&gt;TechnicalCareers:e</title>
<path fill="none" stroke="#000000" d="M354.8236,-472.4971C319.0096,-452.6322 371.7495,-346.6859 315.5,-346.6859"/>
<polygon fill="#000000" stroke="#000000" points="361.195,-473.9302 368.2099,-479.1982 365.0975,-474.8081 369,-475.6859 369,-475.6859 369,-475.6859 365.0975,-474.8081 369.7901,-472.1737 361.195,-473.9302 361.195,-473.9302"/>
<ellipse fill="none" stroke="#000000" cx="358.073" cy="-473.228" rx="3.2" ry="3.2"/>
</g>
<!-- EvaluationPeriodTechnicalCareer&#45;&gt;EvaluationPeriods -->
<g id="edge14" class="edge">
<title>EvaluationPeriodTechnicalCareer:w&#45;&gt;EvaluationPeriods:e</title>
<path fill="none" stroke="#000000" d="M355.092,-479.5248C344.8646,-486.6937 343.2175,-502.3266 328,-512.6859 324.8269,-514.846 321.5236,-516.9615 318.1425,-519.0216"/>
<polygon fill="#000000" stroke="#000000" points="361.2884,-477.8145 369.9579,-479.1562 365.1442,-476.7502 369,-475.6859 369,-475.6859 369,-475.6859 365.1442,-476.7502 368.0421,-472.2157 361.2884,-477.8145 361.2884,-477.8145"/>
<ellipse fill="none" stroke="#000000" cx="358.2037" cy="-478.666" rx="3.2" ry="3.2"/>
</g>
<!-- FormQuestions -->
<g id="node12" class="node">
<title>FormQuestions</title>
<g id="a_node12"><a xlink:href="../../tables/FormQuestions.html" xlink:title="FormQuestions" target="_top">
<polygon fill="#ffffff" stroke="transparent" points="420.5,-690.1859 420.5,-751.1859 547.5,-751.1859 547.5,-690.1859 420.5,-690.1859"/>
<polygon fill="#f5f5f5" stroke="transparent" points="421,-727.6859 421,-750.6859 548,-750.6859 548,-727.6859 421,-727.6859"/>
<polygon fill="none" stroke="#000000" points="421,-727.6859 421,-750.6859 548,-750.6859 548,-727.6859 421,-727.6859"/>
<text text-anchor="start" x="426" y="-736.2859" font-family="Helvetica,sans-Serif" font-weight="bold" font-size="11.00" fill="#000000">FormQuestions</text>
<text text-anchor="start" x="513.5219" y="-735.7859" font-family="Helvetica,sans-Serif" font-size="11.00" fill="#000000">[table]</text>
<polygon fill="none" stroke="#000000" points="421,-708.6859 421,-727.6859 548,-727.6859 548,-708.6859 421,-708.6859"/>
<text text-anchor="start" x="424" y="-714.7859" font-family="Helvetica,sans-Serif" font-size="11.00" fill="#000000">...</text>
<polygon fill="#ffffff" stroke="transparent" points="421,-689.6859 421,-708.6859 465,-708.6859 465,-689.6859 421,-689.6859"/>
<polygon fill="none" stroke="#000000" points="421,-689.6859 421,-708.6859 465,-708.6859 465,-689.6859 421,-689.6859"/>
<text text-anchor="start" x="424" y="-695.7859" font-family="Helvetica,sans-Serif" font-size="11.00" fill="#000000">&lt; 3</text>
<polygon fill="#ffffff" stroke="transparent" points="465,-689.6859 465,-708.6859 515,-708.6859 515,-689.6859 465,-689.6859"/>
<polygon fill="none" stroke="#000000" points="465,-689.6859 465,-708.6859 515,-708.6859 515,-689.6859 465,-689.6859"/>
<text text-anchor="start" x="479.6105" y="-695.7859" font-family="Helvetica,sans-Serif" font-size="11.00" fill="#000000">0 rows</text>
<polygon fill="#ffffff" stroke="transparent" points="515,-689.6859 515,-708.6859 548,-708.6859 548,-689.6859 515,-689.6859"/>
<polygon fill="none" stroke="#000000" points="515,-689.6859 515,-708.6859 548,-708.6859 548,-689.6859 515,-689.6859"/>
<text text-anchor="start" x="529.4053" y="-695.7859" font-family="Helvetica,sans-Serif" font-size="11.00" fill="#000000">1 &gt;</text>
</a>
</g>
</g>
<!-- FormQuestions&#45;&gt;AspNetUsers -->
<g id="edge17" class="edge">
<title>FormQuestions:w&#45;&gt;AspNetUsers:e</title>
<path fill="none" stroke="#000000" d="M406.6574,-715.9967C341.6768,-707.5558 213.7585,-682.081 163,-663.6859 151.9943,-659.6974 140.7642,-654.5573 130.0195,-649.1017"/>
<polygon fill="#000000" stroke="#000000" points="413.0549,-716.7501 420.5789,-721.2612 417.0275,-717.218 421,-717.6859 421,-717.6859 421,-717.6859 417.0275,-717.218 421.4211,-714.1106 413.0549,-716.7501 413.0549,-716.7501"/>
<ellipse fill="none" stroke="#000000" cx="409.8769" cy="-716.3758" rx="3.2" ry="3.2"/>
</g>
<!-- FormQuestions&#45;&gt;AspNetUsers -->
<g id="edge18" class="edge">
<title>FormQuestions:w&#45;&gt;AspNetUsers:e</title>
<path fill="none" stroke="#000000" d="M406.2453,-718.6932C341.1374,-720.4484 213.6514,-695.0422 163,-676.6859 144.1069,-669.839 124.5525,-659.5983 107.9275,-649.3472"/>
<polygon fill="#000000" stroke="#000000" points="413.0186,-718.2309 421.2452,-721.2776 417.0093,-717.9584 421,-717.6859 421,-717.6859 421,-717.6859 417.0093,-717.9584 420.7548,-714.0943 413.0186,-718.2309 413.0186,-718.2309"/>
<ellipse fill="none" stroke="#000000" cx="409.826" cy="-718.4488" rx="3.2" ry="3.2"/>
</g>
<!-- FormQuestions&#45;&gt;Competencies -->
<g id="edge16" class="edge">
<title>FormQuestions:w&#45;&gt;Competencies:e</title>
<path fill="none" stroke="#000000" d="M406.4073,-718.603C365.8902,-723.9327 354.1849,-750.6859 306.5,-750.6859"/>
<polygon fill="#000000" stroke="#000000" points="413.0158,-718.1877 421.2258,-721.2788 417.0079,-717.9368 421,-717.6859 421,-717.6859 421,-717.6859 417.0079,-717.9368 420.7742,-714.093 413.0158,-718.1877 413.0158,-718.1877"/>
<ellipse fill="none" stroke="#000000" cx="409.8221" cy="-718.3884" rx="3.2" ry="3.2"/>
</g>
<!-- ProfessorCompetencyAssignments -->
<g id="node13" class="node">
<title>ProfessorCompetencyAssignments</title>
<g id="a_node13"><a xlink:href="../../tables/ProfessorCompetencyAssignments.html" xlink:title="ProfessorCompetencyAssignments" target="_top">
<polygon fill="#ffffff" stroke="transparent" points="658.5,-564.1859 658.5,-625.1859 900.5,-625.1859 900.5,-564.1859 658.5,-564.1859"/>
<polygon fill="#f5f5f5" stroke="transparent" points="658.5,-601.6859 658.5,-624.6859 900.5,-624.6859 900.5,-601.6859 658.5,-601.6859"/>
<polygon fill="none" stroke="#000000" points="658.5,-601.6859 658.5,-624.6859 900.5,-624.6859 900.5,-601.6859 658.5,-601.6859"/>
<text text-anchor="start" x="663.5" y="-610.2859" font-family="Helvetica,sans-Serif" font-weight="bold" font-size="11.00" fill="#000000">ProfessorCompetencyAssignments</text>
<text text-anchor="start" x="866.0219" y="-609.7859" font-family="Helvetica,sans-Serif" font-size="11.00" fill="#000000">[table]</text>
<polygon fill="none" stroke="#000000" points="658.5,-582.6859 658.5,-601.6859 900.5,-601.6859 900.5,-582.6859 658.5,-582.6859"/>
<text text-anchor="start" x="661.5" y="-588.7859" font-family="Helvetica,sans-Serif" font-size="11.00" fill="#000000">...</text>
<polygon fill="#ffffff" stroke="transparent" points="658.5,-563.6859 658.5,-582.6859 760.5,-582.6859 760.5,-563.6859 658.5,-563.6859"/>
<polygon fill="none" stroke="#000000" points="658.5,-563.6859 658.5,-582.6859 760.5,-582.6859 760.5,-563.6859 658.5,-563.6859"/>
<text text-anchor="start" x="661.5" y="-569.7859" font-family="Helvetica,sans-Serif" font-size="11.00" fill="#000000">&lt; 7</text>
<polygon fill="#ffffff" stroke="transparent" points="760.5,-563.6859 760.5,-582.6859 838.5,-582.6859 838.5,-563.6859 760.5,-563.6859"/>
<polygon fill="none" stroke="#000000" points="760.5,-563.6859 760.5,-582.6859 838.5,-582.6859 838.5,-563.6859 760.5,-563.6859"/>
<text text-anchor="start" x="803.1105" y="-569.7859" font-family="Helvetica,sans-Serif" font-size="11.00" fill="#000000">0 rows</text>
<polygon fill="#ffffff" stroke="transparent" points="838.5,-563.6859 838.5,-582.6859 900.5,-582.6859 900.5,-563.6859 838.5,-563.6859"/>
<polygon fill="none" stroke="#000000" points="838.5,-563.6859 838.5,-582.6859 900.5,-582.6859 900.5,-563.6859 838.5,-563.6859"/>
<text text-anchor="start" x="881.9053" y="-569.7859" font-family="Helvetica,sans-Serif" font-size="11.00" fill="#000000">1 &gt;</text>
</a>
</g>
</g>
<!-- ProfessorCompetencyAssignments&#45;&gt;AspNetUsers -->
<g id="edge20" class="edge">
<title>ProfessorCompetencyAssignments:w&#45;&gt;AspNetUsers:e</title>
<path fill="none" stroke="#000000" d="M644.0901,-591.3881C455.227,-587.8663 236.9771,-598.5202 130.3959,-606.926"/>
<polygon fill="#000000" stroke="#000000" points="650.5017,-591.5206 658.4256,-595.2851 654.5009,-591.6032 658.5,-591.6859 658.5,-591.6859 658.5,-591.6859 654.5009,-591.6032 658.5744,-588.0867 650.5017,-591.5206 650.5017,-591.5206"/>
<ellipse fill="none" stroke="#000000" cx="647.3024" cy="-591.4544" rx="3.2" ry="3.2"/>
</g>
<!-- ProfessorCompetencyAssignments&#45;&gt;AspNetUsers -->
<g id="edge25" class="edge">
<title>ProfessorCompetencyAssignments:w&#45;&gt;AspNetUsers:e</title>
<path fill="none" stroke="#000000" d="M644.0901,-592.0819C455.227,-597.4484 236.9771,-610.448 130.3959,-614.6569"/>
<polygon fill="#000000" stroke="#000000" points="650.503,-591.9057 658.5989,-595.2846 654.5015,-591.7958 658.5,-591.6859 658.5,-591.6859 658.5,-591.6859 654.5015,-591.7958 658.4011,-588.0873 650.503,-591.9057 650.503,-591.9057"/>
<ellipse fill="none" stroke="#000000" cx="647.3042" cy="-591.9936" rx="3.2" ry="3.2"/>
</g>
<!-- ProfessorCompetencyAssignments&#45;&gt;Competencies -->
<g id="edge19" class="edge">
<title>ProfessorCompetencyAssignments:w&#45;&gt;Competencies:e</title>
<path fill="none" stroke="#000000" d="M643.9225,-593.5373C591.8784,-609.061 665.8199,-718.0452 607,-761.6859 519.1947,-826.832 469.7917,-772.5553 361,-761.6859 336.4117,-759.2293 331.2107,-750.6859 306.5,-750.6859"/>
<polygon fill="#000000" stroke="#000000" points="650.5637,-592.6939 658.9536,-595.2572 654.5319,-592.1899 658.5,-591.6859 658.5,-591.6859 658.5,-591.6859 654.5319,-592.1899 658.0464,-588.1146 650.5637,-592.6939 650.5637,-592.6939"/>
<ellipse fill="none" stroke="#000000" cx="647.3892" cy="-593.0971" rx="3.2" ry="3.2"/>
</g>
<!-- ProfessorCompetencyAssignments&#45;&gt;TechnicalCareers -->
<g id="edge24" class="edge">
<title>ProfessorCompetencyAssignments:w&#45;&gt;TechnicalCareers:e</title>
<path fill="none" stroke="#000000" d="M643.9851,-590.4259C564.6315,-574.9409 685.3729,-420.8198 607,-355.6859 557.1573,-314.2629 380.3086,-346.6859 315.5,-346.6859"/>
<polygon fill="#000000" stroke="#000000" points="650.53,-590.994 658.1886,-595.2724 654.515,-591.34 658.5,-591.6859 658.5,-591.6859 658.5,-591.6859 654.515,-591.34 658.8114,-588.0994 650.53,-590.994 650.53,-590.994"/>
<ellipse fill="none" stroke="#000000" cx="647.342" cy="-590.7172" rx="3.2" ry="3.2"/>
</g>
<!-- ProfessorCompetencyAssignments&#45;&gt;EvaluationPeriods -->
<g id="edge21" class="edge">
<title>ProfessorCompetencyAssignments:w&#45;&gt;EvaluationPeriods:e</title>
<path fill="none" stroke="#000000" d="M643.7765,-591.6568C523.2788,-591.1666 487.7558,-584.468 361,-570.6859 349.4141,-569.4262 337.2059,-567.8747 325.2395,-566.2261"/>
<polygon fill="#000000" stroke="#000000" points="650.5,-591.6701 658.4929,-595.2859 654.5,-591.678 658.5,-591.6859 658.5,-591.6859 658.5,-591.6859 654.5,-591.678 658.5071,-588.0859 650.5,-591.6701 650.5,-591.6701"/>
<ellipse fill="none" stroke="#000000" cx="647.3" cy="-591.6637" rx="3.2" ry="3.2"/>
</g>
<!-- Professors -->
<g id="node14" class="node">
<title>Professors</title>
<g id="a_node14"><a xlink:href="../../tables/Professors.html" xlink:title="Professors" target="_top">
<polygon fill="#ffffff" stroke="transparent" points="195,-441.1859 195,-502.1859 296,-502.1859 296,-441.1859 195,-441.1859"/>
<polygon fill="#f5f5f5" stroke="transparent" points="195.5,-478.6859 195.5,-501.6859 296.5,-501.6859 296.5,-478.6859 195.5,-478.6859"/>
<polygon fill="none" stroke="#000000" points="195.5,-478.6859 195.5,-501.6859 296.5,-501.6859 296.5,-478.6859 195.5,-478.6859"/>
<text text-anchor="start" x="200.5" y="-487.2859" font-family="Helvetica,sans-Serif" font-weight="bold" font-size="11.00" fill="#000000">Professors</text>
<text text-anchor="start" x="262.0219" y="-486.7859" font-family="Helvetica,sans-Serif" font-size="11.00" fill="#000000">[table]</text>
<polygon fill="none" stroke="#000000" points="195.5,-459.6859 195.5,-478.6859 296.5,-478.6859 296.5,-459.6859 195.5,-459.6859"/>
<text text-anchor="start" x="198.5" y="-465.7859" font-family="Helvetica,sans-Serif" font-size="11.00" fill="#000000">...</text>
<polygon fill="#ffffff" stroke="transparent" points="195.5,-440.6859 195.5,-459.6859 226.5,-459.6859 226.5,-440.6859 195.5,-440.6859"/>
<polygon fill="none" stroke="#000000" points="195.5,-440.6859 195.5,-459.6859 226.5,-459.6859 226.5,-440.6859 195.5,-440.6859"/>
<text text-anchor="start" x="198.5" y="-446.7859" font-family="Helvetica,sans-Serif" font-size="11.00" fill="#000000">&lt; 1</text>
<polygon fill="#ffffff" stroke="transparent" points="226.5,-440.6859 226.5,-459.6859 269.5,-459.6859 269.5,-440.6859 226.5,-440.6859"/>
<polygon fill="none" stroke="#000000" points="226.5,-440.6859 226.5,-459.6859 269.5,-459.6859 269.5,-440.6859 226.5,-440.6859"/>
<text text-anchor="start" x="234.1105" y="-446.7859" font-family="Helvetica,sans-Serif" font-size="11.00" fill="#000000">0 rows</text>
<polygon fill="#ffffff" stroke="transparent" points="269.5,-440.6859 269.5,-459.6859 296.5,-459.6859 296.5,-440.6859 269.5,-440.6859"/>
<polygon fill="none" stroke="#000000" points="269.5,-440.6859 269.5,-459.6859 296.5,-459.6859 296.5,-440.6859 269.5,-440.6859"/>
<text text-anchor="start" x="277.9053" y="-446.7859" font-family="Helvetica,sans-Serif" font-size="11.00" fill="#000000">2 &gt;</text>
</a>
</g>
</g>
<!-- ProfessorCompetencyAssignments&#45;&gt;Professors -->
<g id="edge22" class="edge">
<title>ProfessorCompetencyAssignments:w&#45;&gt;Professors:e</title>
<path fill="none" stroke="#000000" d="M644.1881,-589.789C631.2409,-585.9241 625.0178,-577.0503 607,-571.6859 499.8968,-539.7985 462.1681,-567.1508 361,-519.6859 327.9151,-504.1635 333.0453,-468.6859 296.5,-468.6859"/>
<polygon fill="#000000" stroke="#000000" points="650.5694,-590.6347 658.027,-595.2547 654.5347,-591.1603 658.5,-591.6859 658.5,-591.6859 658.5,-591.6859 654.5347,-591.1603 658.973,-588.1171 650.5694,-590.6347 650.5694,-590.6347"/>
<ellipse fill="none" stroke="#000000" cx="647.3971" cy="-590.2143" rx="3.2" ry="3.2"/>
</g>
<!-- Subjects -->
<g id="node15" class="node">
<title>Subjects</title>
<g id="a_node15"><a xlink:href="../../tables/Subjects.html" xlink:title="Subjects" target="_top">
<polygon fill="#ffffff" stroke="transparent" points="439.5,-366.1859 439.5,-427.1859 528.5,-427.1859 528.5,-366.1859 439.5,-366.1859"/>
<polygon fill="#f5f5f5" stroke="transparent" points="440,-403.6859 440,-426.6859 529,-426.6859 529,-403.6859 440,-403.6859"/>
<polygon fill="none" stroke="#000000" points="440,-403.6859 440,-426.6859 529,-426.6859 529,-403.6859 440,-403.6859"/>
<text text-anchor="start" x="445" y="-412.2859" font-family="Helvetica,sans-Serif" font-weight="bold" font-size="11.00" fill="#000000">Subjects</text>
<text text-anchor="start" x="494.5219" y="-411.7859" font-family="Helvetica,sans-Serif" font-size="11.00" fill="#000000">[table]</text>
<polygon fill="none" stroke="#000000" points="440,-384.6859 440,-403.6859 529,-403.6859 529,-384.6859 440,-384.6859"/>
<text text-anchor="start" x="443" y="-390.7859" font-family="Helvetica,sans-Serif" font-size="11.00" fill="#000000">...</text>
<polygon fill="#ffffff" stroke="transparent" points="440,-365.6859 440,-384.6859 465,-384.6859 465,-365.6859 440,-365.6859"/>
<polygon fill="none" stroke="#000000" points="440,-365.6859 440,-384.6859 465,-384.6859 465,-365.6859 440,-365.6859"/>
<text text-anchor="start" x="443" y="-371.7859" font-family="Helvetica,sans-Serif" font-size="11.00" fill="#000000">&lt; 4</text>
<polygon fill="#ffffff" stroke="transparent" points="465,-365.6859 465,-384.6859 505,-384.6859 505,-365.6859 465,-365.6859"/>
<polygon fill="none" stroke="#000000" points="465,-365.6859 465,-384.6859 505,-384.6859 505,-365.6859 465,-365.6859"/>
<text text-anchor="start" x="469.6105" y="-371.7859" font-family="Helvetica,sans-Serif" font-size="11.00" fill="#000000">0 rows</text>
<polygon fill="#ffffff" stroke="transparent" points="505,-365.6859 505,-384.6859 529,-384.6859 529,-365.6859 505,-365.6859"/>
<polygon fill="none" stroke="#000000" points="505,-365.6859 505,-384.6859 529,-384.6859 529,-365.6859 505,-365.6859"/>
<text text-anchor="start" x="510.4053" y="-371.7859" font-family="Helvetica,sans-Serif" font-size="11.00" fill="#000000">3 &gt;</text>
</a>
</g>
</g>
<!-- ProfessorCompetencyAssignments&#45;&gt;Subjects -->
<g id="edge23" class="edge">
<title>ProfessorCompetencyAssignments:w&#45;&gt;Subjects:e</title>
<path fill="none" stroke="#000000" d="M644.0059,-589.9529C596.0463,-576.5844 649.3229,-489.0208 607,-437.6859 581.6808,-406.9754 568.802,-393.6859 529,-393.6859"/>
<polygon fill="#000000" stroke="#000000" points="650.5566,-590.7361 658.0726,-595.2605 654.5283,-591.211 658.5,-591.6859 658.5,-591.6859 658.5,-591.6859 654.5283,-591.211 658.9274,-588.1114 650.5566,-590.7361 650.5566,-590.7361"/>
<ellipse fill="none" stroke="#000000" cx="647.3792" cy="-590.3562" rx="3.2" ry="3.2"/>
</g>
<!-- Professors&#45;&gt;AspNetUsers -->
<g id="edge26" class="edge">
<title>Professors:w&#45;&gt;AspNetUsers:e</title>
<path fill="none" stroke="#000000" d="M185.0647,-471.0124C155.0577,-483.3106 112.5537,-541.634 86.9924,-580.086"/>
<polygon fill="#000000" stroke="#000000" points="193.8487,-464.9559 195.5896,-472.7642 194.0279,-473.1123 192.2871,-465.304 193.8487,-464.9559"/>
<polyline fill="none" stroke="#000000" points="195.5,-468.6859 191.5958,-469.5564 "/>
<ellipse fill="none" stroke="#000000" cx="188.4725" cy="-470.2527" rx="3.2" ry="3.2"/>
</g>
<!-- Subjects&#45;&gt;AspNetUsers -->
<g id="edge46" class="edge">
<title>Subjects:w&#45;&gt;AspNetUsers:e</title>
<path fill="none" stroke="#000000" d="M425.4652,-392.5417C355.4084,-388.0743 210.4188,-391.7486 163,-424.6859 110.0887,-461.4384 83.3781,-536.0385 72.0134,-580.103"/>
<polygon fill="#000000" stroke="#000000" points="432.0247,-393.058 439.7175,-397.2748 436.0123,-393.372 440,-393.6859 440,-393.6859 440,-393.6859 436.0123,-393.372 440.2825,-390.097 432.0247,-393.058 432.0247,-393.058"/>
<ellipse fill="none" stroke="#000000" cx="428.8345" cy="-392.8069" rx="3.2" ry="3.2"/>
</g>
<!-- Subjects&#45;&gt;AspNetUsers -->
<g id="edge49" class="edge">
<title>Subjects:w&#45;&gt;AspNetUsers:e</title>
<path fill="none" stroke="#000000" d="M425.4652,-395.0956C355.4084,-401.0743 210.4188,-404.7486 163,-437.6859 113.8044,-471.8574 87.2588,-538.7476 74.6384,-579.8791"/>
<polygon fill="#000000" stroke="#000000" points="432.0374,-394.4583 440.3476,-397.2691 436.0187,-394.0721 440,-393.6859 440,-393.6859 440,-393.6859 436.0187,-394.0721 439.6524,-390.1027 432.0374,-394.4583 432.0374,-394.4583"/>
<ellipse fill="none" stroke="#000000" cx="428.8523" cy="-394.7672" rx="3.2" ry="3.2"/>
</g>
<!-- Subjects&#45;&gt;TechnicalCareers -->
<g id="edge48" class="edge">
<title>Subjects:w&#45;&gt;TechnicalCareers:e</title>
<path fill="none" stroke="#000000" d="M425.56,-392.6605C379.3545,-385.7873 369.4467,-346.6859 315.5,-346.6859"/>
<polygon fill="#000000" stroke="#000000" points="432.0201,-393.1192 439.745,-397.2769 436.01,-393.4026 440,-393.6859 440,-393.6859 440,-393.6859 436.01,-393.4026 440.255,-390.095 432.0201,-393.1192 432.0201,-393.1192"/>
<ellipse fill="none" stroke="#000000" cx="428.8281" cy="-392.8925" rx="3.2" ry="3.2"/>
</g>
<!-- Subjects&#45;&gt;Professors -->
<g id="edge47" class="edge">
<title>Subjects:w&#45;&gt;Professors:e</title>
<path fill="none" stroke="#000000" d="M425.7456,-396.626C387.4772,-410.4924 328.1948,-468.6859 296.5,-468.6859"/>
<polygon fill="#000000" stroke="#000000" points="432.1649,-395.302 440.7272,-397.2117 436.0825,-394.494 440,-393.6859 440,-393.6859 440,-393.6859 436.0825,-394.494 439.2728,-390.1601 432.1649,-395.302 432.1649,-395.302"/>
<ellipse fill="none" stroke="#000000" cx="429.0309" cy="-395.9484" rx="3.2" ry="3.2"/>
</g>
<!-- QuestionResponses -->
<g id="node16" class="node">
<title>QuestionResponses</title>
<g id="a_node16"><a xlink:href="../../tables/QuestionResponses.html" xlink:title="QuestionResponses" target="_top">
<polygon fill="#ffffff" stroke="transparent" points="1232,-754.1859 1232,-815.1859 1387,-815.1859 1387,-754.1859 1232,-754.1859"/>
<polygon fill="#f5f5f5" stroke="transparent" points="1232.5,-791.6859 1232.5,-814.6859 1387.5,-814.6859 1387.5,-791.6859 1232.5,-791.6859"/>
<polygon fill="none" stroke="#000000" points="1232.5,-791.6859 1232.5,-814.6859 1387.5,-814.6859 1387.5,-791.6859 1232.5,-791.6859"/>
<text text-anchor="start" x="1237.5" y="-800.2859" font-family="Helvetica,sans-Serif" font-weight="bold" font-size="11.00" fill="#000000">QuestionResponses</text>
<text text-anchor="start" x="1353.0219" y="-799.7859" font-family="Helvetica,sans-Serif" font-size="11.00" fill="#000000">[table]</text>
<polygon fill="none" stroke="#000000" points="1232.5,-772.6859 1232.5,-791.6859 1387.5,-791.6859 1387.5,-772.6859 1232.5,-772.6859"/>
<text text-anchor="start" x="1235.5" y="-778.7859" font-family="Helvetica,sans-Serif" font-size="11.00" fill="#000000">...</text>
<polygon fill="#ffffff" stroke="transparent" points="1232.5,-753.6859 1232.5,-772.6859 1295.5,-772.6859 1295.5,-753.6859 1232.5,-753.6859"/>
<polygon fill="none" stroke="#000000" points="1232.5,-753.6859 1232.5,-772.6859 1295.5,-772.6859 1295.5,-753.6859 1232.5,-753.6859"/>
<text text-anchor="start" x="1235.5" y="-759.7859" font-family="Helvetica,sans-Serif" font-size="11.00" fill="#000000">&lt; 4</text>
<polygon fill="#ffffff" stroke="transparent" points="1295.5,-753.6859 1295.5,-772.6859 1354.5,-772.6859 1354.5,-753.6859 1295.5,-753.6859"/>
<polygon fill="none" stroke="#000000" points="1295.5,-753.6859 1295.5,-772.6859 1354.5,-772.6859 1354.5,-753.6859 1295.5,-753.6859"/>
<text text-anchor="start" x="1319.1105" y="-759.7859" font-family="Helvetica,sans-Serif" font-size="11.00" fill="#000000">0 rows</text>
<polygon fill="#ffffff" stroke="transparent" points="1354.5,-753.6859 1354.5,-772.6859 1387.5,-772.6859 1387.5,-753.6859 1354.5,-753.6859"/>
<polygon fill="none" stroke="#000000" points="1354.5,-753.6859 1354.5,-772.6859 1387.5,-772.6859 1387.5,-753.6859 1354.5,-753.6859"/>
<text text-anchor="start" x="1378.3862" y="-759.7859" font-family="Helvetica,sans-Serif" font-size="11.00" fill="#000000"> &#160;</text>
</a>
</g>
</g>
<!-- QuestionResponses&#45;&gt;AspNetUsers -->
<g id="edge27" class="edge">
<title>QuestionResponses:w&#45;&gt;AspNetUsers:e</title>
<path fill="none" stroke="#000000" d="M1217.9833,-781.3152C1028.1366,-777.2776 976.4385,-808.6859 779.5,-808.6859 779.5,-808.6859 779.5,-808.6859 484,-808.6859 412.5283,-808.6859 223.2788,-827.0873 163,-788.6859 113.0348,-756.8549 86.6086,-690.2877 74.238,-649.2839"/>
<polygon fill="#000000" stroke="#000000" points="1224.5026,-781.4816 1232.4081,-785.2847 1228.5013,-781.5838 1232.5,-781.6859 1232.5,-781.6859 1232.5,-781.6859 1228.5013,-781.5838 1232.5919,-778.0871 1224.5026,-781.4816 1224.5026,-781.4816"/>
<ellipse fill="none" stroke="#000000" cx="1221.3037" cy="-781.3999" rx="3.2" ry="3.2"/>
</g>
<!-- QuestionResponses&#45;&gt;AspNetUsers -->
<g id="edge30" class="edge">
<title>QuestionResponses:w&#45;&gt;AspNetUsers:e</title>
<path fill="none" stroke="#000000" d="M1217.9833,-782.2442C1028.1366,-790.2776 976.4385,-821.6859 779.5,-821.6859 779.5,-821.6859 779.5,-821.6859 484,-821.6859 412.5283,-821.6859 223.2788,-840.0873 163,-801.6859 109.4337,-767.5608 82.9217,-693.512 71.7788,-649.4322"/>
<polygon fill="#000000" stroke="#000000" points="1224.5059,-781.9934 1232.6384,-785.2833 1228.503,-781.8397 1232.5,-781.6859 1232.5,-781.6859 1232.5,-781.6859 1228.503,-781.8397 1232.3616,-778.0886 1224.5059,-781.9934 1224.5059,-781.9934"/>
<ellipse fill="none" stroke="#000000" cx="1221.3083" cy="-782.1164" rx="3.2" ry="3.2"/>
</g>
<!-- QuestionResponses&#45;&gt;FormQuestions -->
<g id="edge28" class="edge">
<title>QuestionResponses:w&#45;&gt;FormQuestions:e</title>
<path fill="none" stroke="#000000" d="M1217.9087,-781.6366C924.5251,-779.64 848.6257,-717.6859 548,-717.6859"/>
<polygon fill="#000000" stroke="#000000" points="1224.5,-781.6588 1232.4878,-785.2859 1228.5,-781.6724 1232.5,-781.6859 1232.5,-781.6859 1232.5,-781.6859 1228.5,-781.6724 1232.5122,-778.0859 1224.5,-781.6588 1224.5,-781.6588"/>
<ellipse fill="none" stroke="#000000" cx="1221.3001" cy="-781.648" rx="3.2" ry="3.2"/>
</g>
<!-- StudentCompetencyEvaluations -->
<g id="node17" class="node">
<title>StudentCompetencyEvaluations</title>
<g id="a_node17"><a xlink:href="../../tables/StudentCompetencyEvaluations.html" xlink:title="StudentCompetencyEvaluations" target="_top">
<polygon fill="#ffffff" stroke="transparent" points="960,-614.1859 960,-675.1859 1183,-675.1859 1183,-614.1859 960,-614.1859"/>
<polygon fill="#f5f5f5" stroke="transparent" points="960.5,-651.6859 960.5,-674.6859 1183.5,-674.6859 1183.5,-651.6859 960.5,-651.6859"/>
<polygon fill="none" stroke="#000000" points="960.5,-651.6859 960.5,-674.6859 1183.5,-674.6859 1183.5,-651.6859 960.5,-651.6859"/>
<text text-anchor="start" x="965.5" y="-660.2859" font-family="Helvetica,sans-Serif" font-weight="bold" font-size="11.00" fill="#000000">StudentCompetencyEvaluations</text>
<text text-anchor="start" x="1149.0219" y="-659.7859" font-family="Helvetica,sans-Serif" font-size="11.00" fill="#000000">[table]</text>
<polygon fill="none" stroke="#000000" points="960.5,-632.6859 960.5,-651.6859 1183.5,-651.6859 1183.5,-632.6859 960.5,-632.6859"/>
<text text-anchor="start" x="963.5" y="-638.7859" font-family="Helvetica,sans-Serif" font-size="11.00" fill="#000000">...</text>
<polygon fill="#ffffff" stroke="transparent" points="960.5,-613.6859 960.5,-632.6859 1052.5,-632.6859 1052.5,-613.6859 960.5,-613.6859"/>
<polygon fill="none" stroke="#000000" points="960.5,-613.6859 960.5,-632.6859 1052.5,-632.6859 1052.5,-613.6859 960.5,-613.6859"/>
<text text-anchor="start" x="963.5" y="-619.7859" font-family="Helvetica,sans-Serif" font-size="11.00" fill="#000000">&lt; 5</text>
<polygon fill="#ffffff" stroke="transparent" points="1052.5,-613.6859 1052.5,-632.6859 1126.5,-632.6859 1126.5,-613.6859 1052.5,-613.6859"/>
<polygon fill="none" stroke="#000000" points="1052.5,-613.6859 1052.5,-632.6859 1126.5,-632.6859 1126.5,-613.6859 1052.5,-613.6859"/>
<text text-anchor="start" x="1091.1105" y="-619.7859" font-family="Helvetica,sans-Serif" font-size="11.00" fill="#000000">0 rows</text>
<polygon fill="#ffffff" stroke="transparent" points="1126.5,-613.6859 1126.5,-632.6859 1183.5,-632.6859 1183.5,-613.6859 1126.5,-613.6859"/>
<polygon fill="none" stroke="#000000" points="1126.5,-613.6859 1126.5,-632.6859 1183.5,-632.6859 1183.5,-613.6859 1126.5,-613.6859"/>
<text text-anchor="start" x="1164.9053" y="-619.7859" font-family="Helvetica,sans-Serif" font-size="11.00" fill="#000000">1 &gt;</text>
</a>
</g>
</g>
<!-- QuestionResponses&#45;&gt;StudentCompetencyEvaluations -->
<g id="edge29" class="edge">
<title>QuestionResponses:w&#45;&gt;StudentCompetencyEvaluations:e</title>
<path fill="none" stroke="#000000" d="M1218.1184,-778.4988C1180.2624,-757.6597 1243.5005,-641.6859 1183.5,-641.6859"/>
<polygon fill="#000000" stroke="#000000" points="1224.6895,-779.955 1231.7211,-785.2006 1228.5947,-780.8204 1232.5,-781.6859 1232.5,-781.6859 1232.5,-781.6859 1228.5947,-780.8204 1233.2789,-778.1712 1224.6895,-779.955 1224.6895,-779.955"/>
<ellipse fill="none" stroke="#000000" cx="1221.5653" cy="-779.2626" rx="3.2" ry="3.2"/>
</g>
<!-- StudentCompetencyEvaluations&#45;&gt;AspNetUsers -->
<g id="edge31" class="edge">
<title>StudentCompetencyEvaluations:w&#45;&gt;AspNetUsers:e</title>
<path fill="none" stroke="#000000" d="M945.8501,-641.4348C603.4017,-635.4889 512.3329,-628.4552 163,-613.6859 152.362,-613.2362 141.0771,-612.708 130.0952,-612.2538"/>
<polygon fill="#000000" stroke="#000000" points="952.5012,-641.5488 960.4383,-645.2854 956.5006,-641.6173 960.5,-641.6859 960.5,-641.6859 960.5,-641.6859 956.5006,-641.6173 960.5617,-638.0864 952.5012,-641.5488 952.5012,-641.5488"/>
<ellipse fill="none" stroke="#000000" cx="949.3016" cy="-641.4939" rx="3.2" ry="3.2"/>
</g>
<!-- StudentCompetencyEvaluations&#45;&gt;AspNetUsers -->
<g id="edge35" class="edge">
<title>StudentCompetencyEvaluations:w&#45;&gt;AspNetUsers:e</title>
<path fill="none" stroke="#000000" d="M945.8501,-641.97C603.4017,-648.4889 512.3329,-641.4552 163,-626.6859 152.362,-626.2362 141.0771,-625.708 130.0952,-625.0646"/>
<polygon fill="#000000" stroke="#000000" points="952.5015,-641.8411 960.5698,-645.2852 956.5008,-641.7635 960.5,-641.6859 960.5,-641.6859 960.5,-641.6859 956.5008,-641.7635 960.4302,-638.0866 952.5015,-641.8411 952.5015,-641.8411"/>
<ellipse fill="none" stroke="#000000" cx="949.3021" cy="-641.9032" rx="3.2" ry="3.2"/>
</g>
<!-- StudentCompetencyEvaluations&#45;&gt;ProfessorCompetencyAssignments -->
<g id="edge32" class="edge">
<title>StudentCompetencyEvaluations:w&#45;&gt;ProfessorCompetencyAssignments:e</title>
<path fill="none" stroke="#000000" d="M946.3257,-637.9278C927.7086,-626.2997 929.3817,-591.6859 900.5,-591.6859"/>
<polygon fill="#000000" stroke="#000000" points="952.7672,-639.6356 959.5774,-645.1657 956.6336,-640.6608 960.5,-641.6859 960.5,-641.6859 960.5,-641.6859 956.6336,-640.6608 961.4226,-638.2061 952.7672,-639.6356 952.7672,-639.6356"/>
<ellipse fill="none" stroke="#000000" cx="949.6741" cy="-638.8155" rx="3.2" ry="3.2"/>
</g>
<!-- StudentCompetencyEvaluations&#45;&gt;Subjects -->
<g id="edge34" class="edge">
<title>StudentCompetencyEvaluations:w&#45;&gt;Subjects:e</title>
<path fill="none" stroke="#000000" d="M946.2194,-638.1745C925.9858,-624.8765 947.5777,-577.1751 919,-553.6859 820.237,-472.5085 745.7184,-555.5715 640,-483.6859 619.1933,-469.5379 625.7319,-454.4848 607,-437.6859 577.3685,-411.1121 568.802,-393.6859 529,-393.6859"/>
<polygon fill="#000000" stroke="#000000" points="952.7314,-639.7757 959.6404,-645.1818 956.6157,-640.7308 960.5,-641.6859 960.5,-641.6859 960.5,-641.6859 956.6157,-640.7308 961.3596,-638.19 952.7314,-639.7757 952.7314,-639.7757"/>
<ellipse fill="none" stroke="#000000" cx="949.624" cy="-639.0116" rx="3.2" ry="3.2"/>
</g>
<!-- Students -->
<g id="node18" class="node">
<title>Students</title>
<g id="a_node18"><a xlink:href="../../tables/Students.html" xlink:title="Students" target="_top">
<polygon fill="#ffffff" stroke="transparent" points="439,-256.1859 439,-317.1859 529,-317.1859 529,-256.1859 439,-256.1859"/>
<polygon fill="#f5f5f5" stroke="transparent" points="439,-293.6859 439,-316.6859 529,-316.6859 529,-293.6859 439,-293.6859"/>
<polygon fill="none" stroke="#000000" points="439,-293.6859 439,-316.6859 529,-316.6859 529,-293.6859 439,-293.6859"/>
<text text-anchor="start" x="444" y="-302.2859" font-family="Helvetica,sans-Serif" font-weight="bold" font-size="11.00" fill="#000000">Students</text>
<text text-anchor="start" x="494.5219" y="-301.7859" font-family="Helvetica,sans-Serif" font-size="11.00" fill="#000000">[table]</text>
<polygon fill="none" stroke="#000000" points="439,-274.6859 439,-293.6859 529,-293.6859 529,-274.6859 439,-274.6859"/>
<text text-anchor="start" x="442" y="-280.7859" font-family="Helvetica,sans-Serif" font-size="11.00" fill="#000000">...</text>
<polygon fill="#ffffff" stroke="transparent" points="439,-255.6859 439,-274.6859 465,-274.6859 465,-255.6859 439,-255.6859"/>
<polygon fill="none" stroke="#000000" points="439,-255.6859 439,-274.6859 465,-274.6859 465,-255.6859 439,-255.6859"/>
<text text-anchor="start" x="442" y="-261.7859" font-family="Helvetica,sans-Serif" font-size="11.00" fill="#000000">&lt; 2</text>
<polygon fill="#ffffff" stroke="transparent" points="465,-255.6859 465,-274.6859 505,-274.6859 505,-255.6859 465,-255.6859"/>
<polygon fill="none" stroke="#000000" points="465,-255.6859 465,-274.6859 505,-274.6859 505,-255.6859 465,-255.6859"/>
<text text-anchor="start" x="469.6105" y="-261.7859" font-family="Helvetica,sans-Serif" font-size="11.00" fill="#000000">0 rows</text>
<polygon fill="#ffffff" stroke="transparent" points="505,-255.6859 505,-274.6859 529,-274.6859 529,-255.6859 505,-255.6859"/>
<polygon fill="none" stroke="#000000" points="505,-255.6859 505,-274.6859 529,-274.6859 529,-255.6859 505,-255.6859"/>
<text text-anchor="start" x="510.4053" y="-261.7859" font-family="Helvetica,sans-Serif" font-size="11.00" fill="#000000">3 &gt;</text>
</a>
</g>
</g>
<!-- StudentCompetencyEvaluations&#45;&gt;Students -->
<g id="edge33" class="edge">
<title>StudentCompetencyEvaluations:w&#45;&gt;Students:e</title>
<path fill="none" stroke="#000000" d="M946.0238,-639.6778C900.9716,-624.6325 968.5136,-528.9201 919,-484.6859 825.5343,-401.1861 734.6302,-525.8637 640,-443.6859 600.8185,-409.6603 642.4978,-369.5388 607,-331.6859 588.7238,-312.1972 561.3126,-301.1185 537.0022,-294.8353"/>
<polygon fill="#000000" stroke="#000000" points="952.5759,-640.5867 960.0053,-645.2518 956.5379,-641.1363 960.5,-641.6859 960.5,-641.6859 960.5,-641.6859 956.5379,-641.1363 960.9947,-638.1201 952.5759,-640.5867 952.5759,-640.5867"/>
<ellipse fill="none" stroke="#000000" cx="949.4062" cy="-640.147" rx="3.2" ry="3.2"/>
</g>
<!-- Students&#45;&gt;AspNetUsers -->
<g id="edge41" class="edge">
<title>Students:w&#45;&gt;AspNetUsers:e</title>
<path fill="none" stroke="#000000" d="M420.2137,-271.7743C349.5885,-259.2426 236.0848,-251.4188 163,-308.6859 119.5302,-342.7475 84.6786,-507.171 71.1178,-579.927"/>
<polygon fill="#000000" stroke="#000000" points="430.6854,-269.6544 429.2216,-277.5194 427.6486,-277.2266 429.1124,-269.3617 430.6854,-269.6544"/>
<polyline fill="none" stroke="#000000" points="430.74,-273.7333 426.8075,-273.0014 "/>
<ellipse fill="none" stroke="#000000" cx="423.6615" cy="-272.4159" rx="3.2" ry="3.2"/>
</g>
<!-- Students&#45;&gt;TechnicalCareers -->
<g id="edge40" class="edge">
<title>Students:w&#45;&gt;TechnicalCareers:e</title>
<path fill="none" stroke="#000000" d="M417.0219,-311.1075C371.2232,-327.7147 318.2938,-346.6859 315.5,-346.6859"/>
<polygon fill="#000000" stroke="#000000" points="423.1118,-308.8964 431.8601,-309.5501 426.8716,-307.5313 430.6315,-306.1662 430.6315,-306.1662 430.6315,-306.1662 426.8716,-307.5313 429.4029,-302.7823 423.1118,-308.8964 423.1118,-308.8964"/>
<ellipse fill="none" stroke="#000000" cx="420.1039" cy="-309.9885" rx="3.2" ry="3.2"/>
</g>
<!-- StudentEvaluationReport -->
<g id="node19" class="node">
<title>StudentEvaluationReport</title>
<g id="a_node19"><a xlink:href="../../tables/StudentEvaluationReport.html" xlink:title="StudentEvaluationReport" target="_top">
<polygon fill="#ffffff" stroke="transparent" points="648,-144.6859 648,-432.6859 911,-432.6859 911,-144.6859 648,-144.6859"/>
<polygon fill="#f5f5f5" stroke="transparent" points="650.5,-407.6859 650.5,-430.6859 909.5,-430.6859 909.5,-407.6859 650.5,-407.6859"/>
<polygon fill="none" stroke="#000000" points="650.5,-407.6859 650.5,-430.6859 909.5,-430.6859 909.5,-407.6859 650.5,-407.6859"/>
<text text-anchor="start" x="655.5" y="-416.2859" font-family="Helvetica,sans-Serif" font-weight="bold" font-size="11.00" fill="#000000">StudentEvaluationReport</text>
<text text-anchor="start" x="874.5437" y="-415.7859" font-family="Helvetica,sans-Serif" font-size="11.00" fill="#000000">[table]</text>
<polygon fill="none" stroke="#000000" points="650.5,-385.6859 650.5,-407.6859 815.5,-407.6859 815.5,-385.6859 650.5,-385.6859"/>
<image xlink:href="../../images/primaryKeys.png" width="11px" height="12px" preserveAspectRatio="xMinYMin meet" x="655.5" y="-402.686"/>
<text text-anchor="start" x="670.5" y="-392.7859" font-family="Helvetica,sans-Serif" font-size="11.00" fill="#000000">Id</text>
<polygon fill="none" stroke="#000000" points="815.5,-385.6859 815.5,-407.6859 909.5,-407.6859 909.5,-385.6859 815.5,-385.6859"/>
<text text-anchor="start" x="818.4758" y="-393.3859" font-family="Helvetica,sans-Serif" font-size="11.00" fill="#000000">uuid[2147483647]</text>
<polygon fill="#ffffff" stroke="transparent" points="650.5,-363.6859 650.5,-385.6859 815.5,-385.6859 815.5,-363.6859 650.5,-363.6859"/>
<polygon fill="none" stroke="#000000" points="650.5,-363.6859 650.5,-385.6859 815.5,-385.6859 815.5,-363.6859 650.5,-363.6859"/>
<image xlink:href="../../images/foreignKeys.png" width="11px" height="12px" preserveAspectRatio="xMinYMin meet" x="655.5" y="-380.686"/>
<text text-anchor="start" x="670.5" y="-370.7859" font-family="Helvetica,sans-Serif" font-size="11.00" fill="#000000">StudentId</text>
<polygon fill="none" stroke="#000000" points="815.5,-363.6859 815.5,-385.6859 909.5,-385.6859 909.5,-363.6859 815.5,-363.6859"/>
<text text-anchor="start" x="818.5" y="-371.3859" font-family="Helvetica,sans-Serif" font-size="11.00" fill="#000000">text[2147483647]</text>
<polygon fill="#ffffff" stroke="transparent" points="650.5,-341.6859 650.5,-363.6859 815.5,-363.6859 815.5,-341.6859 650.5,-341.6859"/>
<polygon fill="none" stroke="#000000" points="650.5,-341.6859 650.5,-363.6859 815.5,-363.6859 815.5,-341.6859 650.5,-341.6859"/>
<image xlink:href="../../images/foreignKeys.png" width="11px" height="12px" preserveAspectRatio="xMinYMin meet" x="655.5" y="-358.686"/>
<text text-anchor="start" x="670.5" y="-348.7859" font-family="Helvetica,sans-Serif" font-size="11.00" fill="#000000">EvaluationPeriodId</text>
<polygon fill="none" stroke="#000000" points="815.5,-341.6859 815.5,-363.6859 909.5,-363.6859 909.5,-341.6859 815.5,-341.6859"/>
<text text-anchor="start" x="818.4758" y="-349.3859" font-family="Helvetica,sans-Serif" font-size="11.00" fill="#000000">uuid[2147483647]</text>
<polygon fill="none" stroke="#000000" points="650.5,-319.6859 650.5,-341.6859 815.5,-341.6859 815.5,-319.6859 650.5,-319.6859"/>
<text text-anchor="start" x="670.5" y="-326.7859" font-family="Helvetica,sans-Serif" font-size="11.00" fill="#000000">GeneratedAt</text>
<polygon fill="none" stroke="#000000" points="815.5,-319.6859 815.5,-341.6859 909.5,-341.6859 909.5,-319.6859 815.5,-319.6859"/>
<text text-anchor="start" x="818.5" y="-327.3859" font-family="Helvetica,sans-Serif" font-size="11.00" fill="#000000">timestamptz[35,6]</text>
<polygon fill="none" stroke="#000000" points="650.5,-297.6859 650.5,-319.6859 815.5,-319.6859 815.5,-297.6859 650.5,-297.6859"/>
<text text-anchor="start" x="670.5" y="-304.7859" font-family="Helvetica,sans-Serif" font-size="11.00" fill="#000000">ReportData</text>
<polygon fill="none" stroke="#000000" points="815.5,-297.6859 815.5,-319.6859 909.5,-319.6859 909.5,-297.6859 815.5,-297.6859"/>
<text text-anchor="start" x="818.5" y="-305.3859" font-family="Helvetica,sans-Serif" font-size="11.00" fill="#000000">text[2147483647]</text>
<polygon fill="none" stroke="#000000" points="650.5,-275.6859 650.5,-297.6859 815.5,-297.6859 815.5,-275.6859 650.5,-275.6859"/>
<text text-anchor="start" x="670.5" y="-282.7859" font-family="Helvetica,sans-Serif" font-size="11.00" fill="#000000">Status</text>
<polygon fill="none" stroke="#000000" points="815.5,-275.6859 815.5,-297.6859 909.5,-297.6859 909.5,-275.6859 815.5,-275.6859"/>
<text text-anchor="start" x="818.5" y="-283.3859" font-family="Helvetica,sans-Serif" font-size="11.00" fill="#000000">text[2147483647]</text>
<polygon fill="none" stroke="#000000" points="650.5,-253.6859 650.5,-275.6859 815.5,-275.6859 815.5,-253.6859 650.5,-253.6859"/>
<text text-anchor="start" x="670.5" y="-260.7859" font-family="Helvetica,sans-Serif" font-size="11.00" fill="#000000">IsActive</text>
<polygon fill="none" stroke="#000000" points="815.5,-253.6859 815.5,-275.6859 909.5,-275.6859 909.5,-253.6859 815.5,-253.6859"/>
<text text-anchor="start" x="818.5" y="-261.3859" font-family="Helvetica,sans-Serif" font-size="11.00" fill="#000000">bool[1]</text>
<polygon fill="none" stroke="#000000" points="650.5,-231.6859 650.5,-253.6859 815.5,-253.6859 815.5,-231.6859 650.5,-231.6859"/>
<text text-anchor="start" x="670.5" y="-238.7859" font-family="Helvetica,sans-Serif" font-size="11.00" fill="#000000">CreatedAt</text>
<polygon fill="none" stroke="#000000" points="815.5,-231.6859 815.5,-253.6859 909.5,-253.6859 909.5,-231.6859 815.5,-231.6859"/>
<text text-anchor="start" x="818.5" y="-239.3859" font-family="Helvetica,sans-Serif" font-size="11.00" fill="#000000">timestamptz[35,6]</text>
<polygon fill="none" stroke="#000000" points="650.5,-209.6859 650.5,-231.6859 815.5,-231.6859 815.5,-209.6859 650.5,-209.6859"/>
<text text-anchor="start" x="670.5" y="-216.7859" font-family="Helvetica,sans-Serif" font-size="11.00" fill="#000000">UpdatedAt</text>
<polygon fill="none" stroke="#000000" points="815.5,-209.6859 815.5,-231.6859 909.5,-231.6859 909.5,-209.6859 815.5,-209.6859"/>
<text text-anchor="start" x="818.5" y="-217.3859" font-family="Helvetica,sans-Serif" font-size="11.00" fill="#000000">timestamptz[35,6]</text>
<polygon fill="#ffffff" stroke="transparent" points="650.5,-187.6859 650.5,-209.6859 815.5,-209.6859 815.5,-187.6859 650.5,-187.6859"/>
<polygon fill="none" stroke="#000000" points="650.5,-187.6859 650.5,-209.6859 815.5,-209.6859 815.5,-187.6859 650.5,-187.6859"/>
<image xlink:href="../../images/foreignKeys.png" width="11px" height="12px" preserveAspectRatio="xMinYMin meet" x="655.5" y="-204.686"/>
<text text-anchor="start" x="670.5" y="-194.7859" font-family="Helvetica,sans-Serif" font-size="11.00" fill="#000000">CreatedByUserId</text>
<polygon fill="none" stroke="#000000" points="815.5,-187.6859 815.5,-209.6859 909.5,-209.6859 909.5,-187.6859 815.5,-187.6859"/>
<text text-anchor="start" x="818.5" y="-195.3859" font-family="Helvetica,sans-Serif" font-size="11.00" fill="#000000">text[2147483647]</text>
<polygon fill="#ffffff" stroke="transparent" points="650.5,-165.6859 650.5,-187.6859 815.5,-187.6859 815.5,-165.6859 650.5,-165.6859"/>
<polygon fill="none" stroke="#000000" points="650.5,-165.6859 650.5,-187.6859 815.5,-187.6859 815.5,-165.6859 650.5,-165.6859"/>
<image xlink:href="../../images/foreignKeys.png" width="11px" height="12px" preserveAspectRatio="xMinYMin meet" x="655.5" y="-182.686"/>
<text text-anchor="start" x="670.5" y="-172.7859" font-family="Helvetica,sans-Serif" font-size="11.00" fill="#000000">UpdatedByUserId</text>
<polygon fill="none" stroke="#000000" points="815.5,-165.6859 815.5,-187.6859 909.5,-187.6859 909.5,-165.6859 815.5,-165.6859"/>
<text text-anchor="start" x="818.5" y="-173.3859" font-family="Helvetica,sans-Serif" font-size="11.00" fill="#000000">text[2147483647]</text>
<polygon fill="#ffffff" stroke="transparent" points="650.5,-146.6859 650.5,-165.6859 724.5,-165.6859 724.5,-146.6859 650.5,-146.6859"/>
<polygon fill="none" stroke="#000000" points="650.5,-146.6859 650.5,-165.6859 724.5,-165.6859 724.5,-146.6859 650.5,-146.6859"/>
<text text-anchor="start" x="653.5" y="-152.7859" font-family="Helvetica,sans-Serif" font-size="11.00" fill="#000000">&lt; 4</text>
<polygon fill="#ffffff" stroke="transparent" points="724.5,-146.6859 724.5,-165.6859 815.5,-165.6859 815.5,-146.6859 724.5,-146.6859"/>
<polygon fill="none" stroke="#000000" points="724.5,-146.6859 724.5,-165.6859 815.5,-165.6859 815.5,-146.6859 724.5,-146.6859"/>
<text text-anchor="start" x="780.1105" y="-152.7859" font-family="Helvetica,sans-Serif" font-size="11.00" fill="#000000">0 rows</text>
<polygon fill="#ffffff" stroke="transparent" points="815.5,-146.6859 815.5,-165.6859 909.5,-165.6859 909.5,-146.6859 815.5,-146.6859"/>
<polygon fill="none" stroke="#000000" points="815.5,-146.6859 815.5,-165.6859 909.5,-165.6859 909.5,-146.6859 815.5,-146.6859"/>
<text text-anchor="start" x="890.9053" y="-152.7859" font-family="Helvetica,sans-Serif" font-size="11.00" fill="#000000">0 &gt;</text>
<polygon fill="none" stroke="#000000" stroke-width="2" points="649,-145.6859 649,-431.6859 910,-431.6859 910,-145.6859 649,-145.6859"/>
</a>
</g>
</g>
<!-- StudentEvaluationReport&#45;&gt;AspNetUsers -->
<g id="edge36" class="edge">
<title>StudentEvaluationReport:w&#45;&gt;AspNetUsers:e</title>
<path fill="none" stroke="#000000" d="M636.5258,-194.3768C626.2872,-186.4658 624.553,-169.8708 607,-163.6859 513.6997,-130.8113 235.3378,-128.2106 163,-195.6859 106.5268,-248.363 77.351,-489.2451 68.2153,-579.9786"/>
<polygon fill="#000000" stroke="#000000" points="642.8552,-196.3285 649.4392,-202.1261 646.6776,-197.5072 650.5,-198.6859 650.5,-198.6859 650.5,-198.6859 646.6776,-197.5072 651.5608,-195.2458 642.8552,-196.3285 642.8552,-196.3285"/>
<ellipse fill="none" stroke="#000000" cx="639.7973" cy="-195.3856" rx="3.2" ry="3.2"/>
</g>
<!-- StudentEvaluationReport&#45;&gt;AspNetUsers -->
<g id="edge39" class="edge">
<title>StudentEvaluationReport:w&#45;&gt;AspNetUsers:e</title>
<path fill="none" stroke="#000000" d="M636.5751,-172.2816C626.061,-163.8193 625.2137,-145.521 607,-138.6859 560.8089,-121.3518 200.8788,-112.0745 163,-143.6859 95.6684,-199.877 72.8573,-480.8214 66.8335,-579.9715"/>
<polygon fill="#000000" stroke="#000000" points="642.8724,-174.2734 649.4144,-180.1183 646.6862,-175.4796 650.5,-176.6859 650.5,-176.6859 650.5,-176.6859 646.6862,-175.4796 651.5856,-173.2535 642.8724,-174.2734 642.8724,-174.2734"/>
<ellipse fill="none" stroke="#000000" cx="639.8214" cy="-173.3083" rx="3.2" ry="3.2"/>
</g>
<!-- StudentEvaluationReport&#45;&gt;EvaluationPeriods -->
<g id="edge37" class="edge">
<title>StudentEvaluationReport:w&#45;&gt;EvaluationPeriods:e</title>
<path fill="none" stroke="#000000" d="M636.0739,-354.5488C586.5744,-369.7258 661.0849,-473.678 607,-519.6859 565.9472,-554.608 418.4435,-558.0465 325.0177,-556.48"/>
<polygon fill="#000000" stroke="#000000" points="642.5659,-353.7105 650.9611,-356.2563 646.5329,-353.1982 650.5,-352.6859 650.5,-352.6859 650.5,-352.6859 646.5329,-353.1982 650.0389,-349.1156 642.5659,-353.7105 642.5659,-353.7105"/>
<ellipse fill="none" stroke="#000000" cx="639.3922" cy="-354.1204" rx="3.2" ry="3.2"/>
</g>
<!-- StudentEvaluationReport&#45;&gt;Students -->
<g id="edge38" class="edge">
<title>StudentEvaluationReport:w&#45;&gt;Students:e</title>
<path fill="none" stroke="#000000" d="M636.4943,-370.7985C624.8056,-362.5112 624.7561,-342.9465 607,-331.6859 585.6852,-318.1685 559.7299,-307.9131 537.1655,-300.6322"/>
<polygon fill="#000000" stroke="#000000" points="642.7914,-372.5463 649.5372,-378.1548 646.6457,-373.6161 650.5,-374.6859 650.5,-374.6859 650.5,-374.6859 646.6457,-373.6161 651.4628,-371.2171 642.7914,-372.5463 642.7914,-372.5463"/>
<ellipse fill="none" stroke="#000000" cx="639.708" cy="-371.6904" rx="3.2" ry="3.2"/>
</g>
<!-- StudentSubjects -->
<g id="node20" class="node">
<title>StudentSubjects</title>
<g id="a_node20"><a xlink:href="../../tables/StudentSubjects.html" xlink:title="StudentSubjects" target="_top">
<polygon fill="#ffffff" stroke="transparent" points="713,-62.1859 713,-123.1859 846,-123.1859 846,-62.1859 713,-62.1859"/>
<polygon fill="#f5f5f5" stroke="transparent" points="713.5,-99.6859 713.5,-122.6859 846.5,-122.6859 846.5,-99.6859 713.5,-99.6859"/>
<polygon fill="none" stroke="#000000" points="713.5,-99.6859 713.5,-122.6859 846.5,-122.6859 846.5,-99.6859 713.5,-99.6859"/>
<text text-anchor="start" x="718.5" y="-108.2859" font-family="Helvetica,sans-Serif" font-weight="bold" font-size="11.00" fill="#000000">StudentSubjects</text>
<text text-anchor="start" x="812.0219" y="-107.7859" font-family="Helvetica,sans-Serif" font-size="11.00" fill="#000000">[table]</text>
<polygon fill="none" stroke="#000000" points="713.5,-80.6859 713.5,-99.6859 846.5,-99.6859 846.5,-80.6859 713.5,-80.6859"/>
<text text-anchor="start" x="716.5" y="-86.7859" font-family="Helvetica,sans-Serif" font-size="11.00" fill="#000000">...</text>
<polygon fill="#ffffff" stroke="transparent" points="713.5,-61.6859 713.5,-80.6859 765.5,-80.6859 765.5,-61.6859 713.5,-61.6859"/>
<polygon fill="none" stroke="#000000" points="713.5,-61.6859 713.5,-80.6859 765.5,-80.6859 765.5,-61.6859 713.5,-61.6859"/>
<text text-anchor="start" x="716.5" y="-67.7859" font-family="Helvetica,sans-Serif" font-size="11.00" fill="#000000">&lt; 4</text>
<polygon fill="#ffffff" stroke="transparent" points="765.5,-61.6859 765.5,-80.6859 818.5,-80.6859 818.5,-61.6859 765.5,-61.6859"/>
<polygon fill="none" stroke="#000000" points="765.5,-61.6859 765.5,-80.6859 818.5,-80.6859 818.5,-61.6859 765.5,-61.6859"/>
<text text-anchor="start" x="783.1105" y="-67.7859" font-family="Helvetica,sans-Serif" font-size="11.00" fill="#000000">0 rows</text>
<polygon fill="#ffffff" stroke="transparent" points="818.5,-61.6859 818.5,-80.6859 846.5,-80.6859 846.5,-61.6859 818.5,-61.6859"/>
<polygon fill="none" stroke="#000000" points="818.5,-61.6859 818.5,-80.6859 846.5,-80.6859 846.5,-61.6859 818.5,-61.6859"/>
<text text-anchor="start" x="837.3862" y="-67.7859" font-family="Helvetica,sans-Serif" font-size="11.00" fill="#000000"> &#160;</text>
</a>
</g>
</g>
<!-- StudentSubjects&#45;&gt;AspNetUsers -->
<g id="edge42" class="edge">
<title>StudentSubjects:w&#45;&gt;AspNetUsers:e</title>
<path fill="none" stroke="#000000" d="M698.9306,-89.1801C463.595,-78.6063 344.239,42.8694 163,-114.6859 92.7238,-175.7786 71.5486,-477.1936 66.4177,-580.1825"/>
<polygon fill="#000000" stroke="#000000" points="705.5048,-89.4083 713.3751,-93.2837 709.5024,-89.5471 713.5,-89.6859 713.5,-89.6859 713.5,-89.6859 709.5024,-89.5471 713.6249,-86.0881 705.5048,-89.4083 705.5048,-89.4083"/>
<ellipse fill="none" stroke="#000000" cx="702.3067" cy="-89.2972" rx="3.2" ry="3.2"/>
</g>
<!-- StudentSubjects&#45;&gt;AspNetUsers -->
<g id="edge45" class="edge">
<title>StudentSubjects:w&#45;&gt;AspNetUsers:e</title>
<path fill="none" stroke="#000000" d="M698.9306,-89.9453C463.595,-91.6063 344.239,29.8694 163,-127.6859 94.0436,-187.6313 72.3612,-478.9576 66.724,-580.0993"/>
<polygon fill="#000000" stroke="#000000" points="705.5013,-89.8284 713.5641,-93.2853 709.5006,-89.7571 713.5,-89.6859 713.5,-89.6859 713.5,-89.6859 709.5006,-89.7571 713.4359,-86.0865 705.5013,-89.8284 705.5013,-89.8284"/>
<ellipse fill="none" stroke="#000000" cx="702.3018" cy="-89.8854" rx="3.2" ry="3.2"/>
</g>
<!-- StudentSubjects&#45;&gt;Subjects -->
<g id="edge44" class="edge">
<title>StudentSubjects:w&#45;&gt;Subjects:e</title>
<path fill="none" stroke="#000000" d="M698.7821,-90.4494C671.3594,-93.5956 658.4726,-106.6808 640,-133.6859 590.6207,-205.8736 650.3447,-251.7213 607,-327.6859 584.4944,-367.1285 574.4117,-393.6859 529,-393.6859"/>
<polygon fill="#000000" stroke="#000000" points="705.5107,-90.1004 713.6865,-93.2811 709.5054,-89.8932 713.5,-89.6859 713.5,-89.6859 713.5,-89.6859 709.5054,-89.8932 713.3135,-86.0908 705.5107,-90.1004 705.5107,-90.1004"/>
<ellipse fill="none" stroke="#000000" cx="702.315" cy="-90.2662" rx="3.2" ry="3.2"/>
</g>
<!-- StudentSubjects&#45;&gt;Students -->
<g id="edge43" class="edge">
<title>StudentSubjects:w&#45;&gt;Students:e</title>
<path fill="none" stroke="#000000" d="M698.8747,-90.5169C671.7984,-93.9153 660.0334,-107.8175 640,-133.6859 608.226,-174.7146 643.0425,-208.3513 607,-245.6859 588.7085,-264.6332 561.4447,-274.8254 537.2304,-280.3076"/>
<polygon fill="#000000" stroke="#000000" points="705.5129,-90.1398 713.7042,-93.2801 709.5064,-89.9128 713.5,-89.6859 713.5,-89.6859 713.5,-89.6859 709.5064,-89.9128 713.2958,-86.0917 705.5129,-90.1398 705.5129,-90.1398"/>
<ellipse fill="none" stroke="#000000" cx="702.318" cy="-90.3213" rx="3.2" ry="3.2"/>
</g>
</g>
</svg>
