<?xml version="1.0" encoding="UTF-8" standalone="no"?>
<!DOCTYPE svg PUBLIC "-//W3C//DTD SVG 1.1//EN"
 "http://www.w3.org/Graphics/SVG/1.1/DTD/svg11.dtd">
<!-- Generated by graphviz version 2.40.1 (20161225.0304)
 -->
<!-- Title: oneDegreeRelationshipsDiagram Pages: 1 -->
<svg width="924pt" height="605pt"
 viewBox="0.00 0.00 924.00 605.20" xmlns="http://www.w3.org/2000/svg" xmlns:xlink="http://www.w3.org/1999/xlink">
<g id="graph0" class="graph" transform="scale(1 1) rotate(0) translate(4 601.2)">
<title>oneDegreeRelationshipsDiagram</title>
<polygon fill="#ffffff" stroke="transparent" points="-4,4 -4,-601.2 920,-601.2 920,4 -4,4"/>
<text text-anchor="middle" x="72.4936" y="-7.3" font-family="Helvetica,sans-Serif" font-size="11.00" fill="#000000">Generated by SchemaSpy</text>
<!-- StudentCompetencyEvaluations -->
<g id="node1" class="node">
<title>StudentCompetencyEvaluations</title>
<g id="a_node1"><a xlink:href="../../tables/StudentCompetencyEvaluations.html" xlink:title="StudentCompetencyEvaluations" target="_top">
<polygon fill="#ffffff" stroke="transparent" points="680,-422.2 680,-593.2 908,-593.2 908,-422.2 680,-422.2"/>
<polygon fill="#f5f5f5" stroke="transparent" points="680,-569.7 680,-592.7 908,-592.7 908,-569.7 680,-569.7"/>
<polygon fill="none" stroke="#000000" points="680,-569.7 680,-592.7 908,-592.7 908,-569.7 680,-569.7"/>
<text text-anchor="start" x="685" y="-578.3" font-family="Helvetica,sans-Serif" font-weight="bold" font-size="11.00" fill="#000000">StudentCompetencyEvaluations</text>
<text text-anchor="start" x="873.0437" y="-577.8" font-family="Helvetica,sans-Serif" font-size="11.00" fill="#000000">[table]</text>
<polygon fill="none" stroke="#000000" points="680,-547.7 680,-569.7 908,-569.7 908,-547.7 680,-547.7"/>
<image xlink:href="../../images/primaryKeys.png" width="11px" height="12px" preserveAspectRatio="xMinYMin meet" x="685" y="-564.7"/>
<text text-anchor="start" x="700" y="-554.8" font-family="Helvetica,sans-Serif" font-size="11.00" fill="#000000">Id</text>
<polygon fill="#ffffff" stroke="transparent" points="680,-525.7 680,-547.7 908,-547.7 908,-525.7 680,-525.7"/>
<polygon fill="none" stroke="#000000" points="680,-525.7 680,-547.7 908,-547.7 908,-525.7 680,-525.7"/>
<image xlink:href="../../images/foreignKeys.png" width="11px" height="12px" preserveAspectRatio="xMinYMin meet" x="685" y="-542.7"/>
<text text-anchor="start" x="700" y="-532.8" font-family="Helvetica,sans-Serif" font-size="11.00" fill="#000000">ProfessorCompetencyAssignmentId</text>
<polygon fill="#ffffff" stroke="transparent" points="680,-503.7 680,-525.7 908,-525.7 908,-503.7 680,-503.7"/>
<polygon fill="none" stroke="#000000" points="680,-503.7 680,-525.7 908,-525.7 908,-503.7 680,-503.7"/>
<image xlink:href="../../images/foreignKeys.png" width="11px" height="12px" preserveAspectRatio="xMinYMin meet" x="685" y="-520.7"/>
<text text-anchor="start" x="700" y="-510.8" font-family="Helvetica,sans-Serif" font-size="11.00" fill="#000000">StudentId</text>
<polygon fill="#ffffff" stroke="transparent" points="680,-481.7 680,-503.7 908,-503.7 908,-481.7 680,-481.7"/>
<polygon fill="none" stroke="#000000" points="680,-481.7 680,-503.7 908,-503.7 908,-481.7 680,-481.7"/>
<image xlink:href="../../images/foreignKeys.png" width="11px" height="12px" preserveAspectRatio="xMinYMin meet" x="685" y="-498.7"/>
<text text-anchor="start" x="700" y="-488.8" font-family="Helvetica,sans-Serif" font-size="11.00" fill="#000000">CreatedByUserId</text>
<polygon fill="#ffffff" stroke="transparent" points="680,-459.7 680,-481.7 908,-481.7 908,-459.7 680,-459.7"/>
<polygon fill="none" stroke="#000000" points="680,-459.7 680,-481.7 908,-481.7 908,-459.7 680,-459.7"/>
<image xlink:href="../../images/foreignKeys.png" width="11px" height="12px" preserveAspectRatio="xMinYMin meet" x="685" y="-476.7"/>
<text text-anchor="start" x="700" y="-466.8" font-family="Helvetica,sans-Serif" font-size="11.00" fill="#000000">UpdatedByUserId</text>
<polygon fill="none" stroke="#000000" points="680,-440.7 680,-459.7 908,-459.7 908,-440.7 680,-440.7"/>
<text text-anchor="start" x="683" y="-446.8" font-family="Helvetica,sans-Serif" font-size="11.00" fill="#000000">...</text>
<polygon fill="#ffffff" stroke="transparent" points="680,-421.7 680,-440.7 775,-440.7 775,-421.7 680,-421.7"/>
<polygon fill="none" stroke="#000000" points="680,-421.7 680,-440.7 775,-440.7 775,-421.7 680,-421.7"/>
<text text-anchor="start" x="683" y="-427.8" font-family="Helvetica,sans-Serif" font-size="11.00" fill="#000000">&lt; 4</text>
<polygon fill="#ffffff" stroke="transparent" points="775,-421.7 775,-440.7 850,-440.7 850,-421.7 775,-421.7"/>
<polygon fill="none" stroke="#000000" points="775,-421.7 775,-440.7 850,-440.7 850,-421.7 775,-421.7"/>
<text text-anchor="start" x="814.6105" y="-427.8" font-family="Helvetica,sans-Serif" font-size="11.00" fill="#000000">0 rows</text>
<polygon fill="#ffffff" stroke="transparent" points="850,-421.7 850,-440.7 908,-440.7 908,-421.7 850,-421.7"/>
<polygon fill="none" stroke="#000000" points="850,-421.7 850,-440.7 908,-440.7 908,-421.7 850,-421.7"/>
<text text-anchor="start" x="889.4053" y="-427.8" font-family="Helvetica,sans-Serif" font-size="11.00" fill="#000000">1 &gt;</text>
</a>
</g>
</g>
<!-- AspNetUsers -->
<g id="node2" class="node">
<title>AspNetUsers</title>
<g id="a_node2"><a xlink:href="../../tables/AspNetUsers.html" xlink:title="AspNetUsers" target="_top">
<polygon fill="#ffffff" stroke="transparent" points="8,-234.2 8,-361.2 171,-361.2 171,-234.2 8,-234.2"/>
<polygon fill="#f5f5f5" stroke="transparent" points="8.5,-337.7 8.5,-360.7 171.5,-360.7 171.5,-337.7 8.5,-337.7"/>
<polygon fill="none" stroke="#000000" points="8.5,-337.7 8.5,-360.7 171.5,-360.7 171.5,-337.7 8.5,-337.7"/>
<text text-anchor="start" x="13.5" y="-346.3" font-family="Helvetica,sans-Serif" font-weight="bold" font-size="11.00" fill="#000000">AspNetUsers</text>
<text text-anchor="start" x="136.5437" y="-345.8" font-family="Helvetica,sans-Serif" font-size="11.00" fill="#000000">[table]</text>
<polygon fill="none" stroke="#000000" points="8.5,-315.7 8.5,-337.7 171.5,-337.7 171.5,-315.7 8.5,-315.7"/>
<image xlink:href="../../images/primaryKeys.png" width="11px" height="12px" preserveAspectRatio="xMinYMin meet" x="13.5" y="-332.7"/>
<text text-anchor="start" x="28.5" y="-322.8" font-family="Helvetica,sans-Serif" font-size="11.00" fill="#000000">Id</text>
<polygon fill="#ffffff" stroke="transparent" points="8.5,-293.7 8.5,-315.7 171.5,-315.7 171.5,-293.7 8.5,-293.7"/>
<polygon fill="none" stroke="#000000" points="8.5,-293.7 8.5,-315.7 171.5,-315.7 171.5,-293.7 8.5,-293.7"/>
<text text-anchor="start" x="28.5" y="-300.8" font-family="Helvetica,sans-Serif" font-size="11.00" fill="#000000">NormalizedUserName</text>
<polygon fill="#ffffff" stroke="transparent" points="8.5,-271.7 8.5,-293.7 171.5,-293.7 171.5,-271.7 8.5,-271.7"/>
<polygon fill="none" stroke="#000000" points="8.5,-271.7 8.5,-293.7 171.5,-293.7 171.5,-271.7 8.5,-271.7"/>
<text text-anchor="start" x="28.5" y="-278.8" font-family="Helvetica,sans-Serif" font-size="11.00" fill="#000000">NormalizedEmail</text>
<polygon fill="none" stroke="#000000" points="8.5,-252.7 8.5,-271.7 171.5,-271.7 171.5,-252.7 8.5,-252.7"/>
<text text-anchor="start" x="11.5" y="-258.8" font-family="Helvetica,sans-Serif" font-size="11.00" fill="#000000">...</text>
<polygon fill="#ffffff" stroke="transparent" points="8.5,-233.7 8.5,-252.7 63.5,-252.7 63.5,-233.7 8.5,-233.7"/>
<polygon fill="none" stroke="#000000" points="8.5,-233.7 8.5,-252.7 63.5,-252.7 63.5,-233.7 8.5,-233.7"/>
<text text-anchor="start" x="11.5" y="-239.8" font-family="Helvetica,sans-Serif" font-size="11.00" fill="#000000"> &#160;</text>
<polygon fill="#ffffff" stroke="transparent" points="63.5,-233.7 63.5,-252.7 122.5,-252.7 122.5,-233.7 63.5,-233.7"/>
<polygon fill="none" stroke="#000000" points="63.5,-233.7 63.5,-252.7 122.5,-252.7 122.5,-233.7 63.5,-233.7"/>
<text text-anchor="start" x="87.1105" y="-239.8" font-family="Helvetica,sans-Serif" font-size="11.00" fill="#000000">0 rows</text>
<polygon fill="#ffffff" stroke="transparent" points="122.5,-233.7 122.5,-252.7 171.5,-252.7 171.5,-233.7 122.5,-233.7"/>
<polygon fill="none" stroke="#000000" points="122.5,-233.7 122.5,-252.7 171.5,-252.7 171.5,-233.7 122.5,-233.7"/>
<text text-anchor="start" x="146.7904" y="-239.8" font-family="Helvetica,sans-Serif" font-size="11.00" fill="#000000">29 &gt;</text>
</a>
</g>
</g>
<!-- StudentCompetencyEvaluations&#45;&gt;AspNetUsers -->
<g id="edge1" class="edge">
<title>StudentCompetencyEvaluations:w&#45;&gt;AspNetUsers:e</title>
<path fill="none" stroke="#000000" d="M665.5465,-492.8807C467.2875,-497.8354 371.2111,-602.0568 212,-475.7 158.2466,-433.039 240.1249,-326.7 171.5,-326.7"/>
<polygon fill="#000000" stroke="#000000" points="672.0006,-492.8 680.045,-496.2997 676.0003,-492.75 680,-492.7 680,-492.7 680,-492.7 676.0003,-492.75 679.955,-489.1003 672.0006,-492.8 672.0006,-492.8"/>
<ellipse fill="none" stroke="#000000" cx="668.8009" cy="-492.8401" rx="3.2" ry="3.2"/>
</g>
<!-- StudentCompetencyEvaluations&#45;&gt;AspNetUsers -->
<g id="edge3" class="edge">
<title>StudentCompetencyEvaluations:w&#45;&gt;AspNetUsers:e</title>
<path fill="none" stroke="#000000" d="M665.2573,-470.8489C551.3875,-472.9358 291.162,-495.3477 212,-434.7 171.3058,-403.5233 222.764,-326.7 171.5,-326.7"/>
<polygon fill="#000000" stroke="#000000" points="672.0004,-470.7809 680.0364,-474.2998 676.0002,-470.7404 680,-470.7 680,-470.7 680,-470.7 676.0002,-470.7404 679.9636,-467.1002 672.0004,-470.7809 672.0004,-470.7809"/>
<ellipse fill="none" stroke="#000000" cx="668.8006" cy="-470.8132" rx="3.2" ry="3.2"/>
</g>
<!-- Students -->
<g id="node3" class="node">
<title>Students</title>
<g id="a_node3"><a xlink:href="../../tables/Students.html" xlink:title="Students" target="_top">
<polygon fill="#ffffff" stroke="transparent" points="408,-329.7 408,-441.7 631,-441.7 631,-329.7 408,-329.7"/>
<polygon fill="#f5f5f5" stroke="transparent" points="410.5,-416.7 410.5,-439.7 629.5,-439.7 629.5,-416.7 410.5,-416.7"/>
<polygon fill="none" stroke="#000000" points="410.5,-416.7 410.5,-439.7 629.5,-439.7 629.5,-416.7 410.5,-416.7"/>
<text text-anchor="start" x="415.5" y="-425.3" font-family="Helvetica,sans-Serif" font-weight="bold" font-size="11.00" fill="#000000">Students</text>
<text text-anchor="start" x="594.5437" y="-424.8" font-family="Helvetica,sans-Serif" font-size="11.00" fill="#000000">[table]</text>
<polygon fill="none" stroke="#000000" points="410.5,-394.7 410.5,-416.7 535.5,-416.7 535.5,-394.7 410.5,-394.7"/>
<image xlink:href="../../images/primaryKeys.png" width="11px" height="12px" preserveAspectRatio="xMinYMin meet" x="415.5" y="-411.7"/>
<text text-anchor="start" x="430.5" y="-401.8" font-family="Helvetica,sans-Serif" font-size="11.00" fill="#000000">UserId</text>
<polygon fill="none" stroke="#000000" points="535.5,-394.7 535.5,-416.7 629.5,-416.7 629.5,-394.7 535.5,-394.7"/>
<text text-anchor="start" x="538.5" y="-402.4" font-family="Helvetica,sans-Serif" font-size="11.00" fill="#000000">text[2147483647]</text>
<polygon fill="none" stroke="#000000" points="410.5,-372.7 410.5,-394.7 535.5,-394.7 535.5,-372.7 410.5,-372.7"/>
<text text-anchor="start" x="430.5" y="-379.8" font-family="Helvetica,sans-Serif" font-size="11.00" fill="#000000">CurrentYear</text>
<polygon fill="none" stroke="#000000" points="535.5,-372.7 535.5,-394.7 629.5,-394.7 629.5,-372.7 535.5,-372.7"/>
<text text-anchor="start" x="538.5" y="-380.4" font-family="Helvetica,sans-Serif" font-size="11.00" fill="#000000">int4[10]</text>
<polygon fill="#ffffff" stroke="transparent" points="410.5,-350.7 410.5,-372.7 535.5,-372.7 535.5,-350.7 410.5,-350.7"/>
<polygon fill="none" stroke="#000000" points="410.5,-350.7 410.5,-372.7 535.5,-372.7 535.5,-350.7 410.5,-350.7"/>
<image xlink:href="../../images/foreignKeys.png" width="11px" height="12px" preserveAspectRatio="xMinYMin meet" x="415.5" y="-367.7"/>
<text text-anchor="start" x="430.5" y="-357.8" font-family="Helvetica,sans-Serif" font-size="11.00" fill="#000000">TechnicalCareerId</text>
<polygon fill="none" stroke="#000000" points="535.5,-350.7 535.5,-372.7 629.5,-372.7 629.5,-350.7 535.5,-350.7"/>
<text text-anchor="start" x="538.4758" y="-358.4" font-family="Helvetica,sans-Serif" font-size="11.00" fill="#000000">uuid[2147483647]</text>
<polygon fill="#ffffff" stroke="transparent" points="410.5,-331.7 410.5,-350.7 464.5,-350.7 464.5,-331.7 410.5,-331.7"/>
<polygon fill="none" stroke="#000000" points="410.5,-331.7 410.5,-350.7 464.5,-350.7 464.5,-331.7 410.5,-331.7"/>
<text text-anchor="start" x="413.5" y="-337.8" font-family="Helvetica,sans-Serif" font-size="11.00" fill="#000000">&lt; 2</text>
<polygon fill="#ffffff" stroke="transparent" points="464.5,-331.7 464.5,-350.7 535.5,-350.7 535.5,-331.7 464.5,-331.7"/>
<polygon fill="none" stroke="#000000" points="464.5,-331.7 464.5,-350.7 535.5,-350.7 535.5,-331.7 464.5,-331.7"/>
<text text-anchor="start" x="500.1105" y="-337.8" font-family="Helvetica,sans-Serif" font-size="11.00" fill="#000000">0 rows</text>
<polygon fill="#ffffff" stroke="transparent" points="535.5,-331.7 535.5,-350.7 629.5,-350.7 629.5,-331.7 535.5,-331.7"/>
<polygon fill="none" stroke="#000000" points="535.5,-331.7 535.5,-350.7 629.5,-350.7 629.5,-331.7 535.5,-331.7"/>
<text text-anchor="start" x="610.9053" y="-337.8" font-family="Helvetica,sans-Serif" font-size="11.00" fill="#000000">3 &gt;</text>
<polygon fill="none" stroke="#000000" stroke-width="2" points="409,-330.7 409,-440.7 630,-440.7 630,-330.7 409,-330.7"/>
</a>
</g>
</g>
<!-- StudentCompetencyEvaluations&#45;&gt;Students -->
<g id="edge2" class="edge">
<title>StudentCompetencyEvaluations:w&#45;&gt;Students:e</title>
<path fill="none" stroke="#000000" d="M665.7587,-510.8206C637.9529,-491.4034 676.843,-405.7 629.5,-405.7"/>
<polygon fill="#000000" stroke="#000000" points="672.2813,-512.5974 679.0538,-518.1734 676.1406,-513.6487 680,-514.7 680,-514.7 680,-514.7 676.1406,-513.6487 680.9462,-511.2266 672.2813,-512.5974 672.2813,-512.5974"/>
<ellipse fill="none" stroke="#000000" cx="669.1938" cy="-511.7563" rx="3.2" ry="3.2"/>
</g>
<!-- Students&#45;&gt;AspNetUsers -->
<g id="edge8" class="edge">
<title>Students:w&#45;&gt;AspNetUsers:e</title>
<path fill="none" stroke="#000000" d="M400.1126,-406.5496C388.4069,-408.6259 382.7073,-413.9178 367,-415.7 298.5503,-423.4665 269.9279,-452.9832 212,-415.7 175.4562,-392.1799 214.9585,-326.7 171.5,-326.7"/>
<polygon fill="#000000" stroke="#000000" points="409.3766,-401.7785 410.0288,-409.7519 408.4341,-409.8824 407.7819,-401.909 409.3766,-401.7785"/>
<polyline fill="none" stroke="#000000" points="410.5,-405.7 406.5133,-406.0261 "/>
<ellipse fill="none" stroke="#000000" cx="403.324" cy="-406.287" rx="3.2" ry="3.2"/>
</g>
<!-- TechnicalCareers -->
<g id="node5" class="node">
<title>TechnicalCareers</title>
<g id="a_node5"><a xlink:href="../../tables/TechnicalCareers.html" xlink:title="TechnicalCareers" target="_top">
<polygon fill="#ffffff" stroke="transparent" points="220,-278.2 220,-405.2 359,-405.2 359,-278.2 220,-278.2"/>
<polygon fill="#f5f5f5" stroke="transparent" points="220.5,-381.7 220.5,-404.7 359.5,-404.7 359.5,-381.7 220.5,-381.7"/>
<polygon fill="none" stroke="#000000" points="220.5,-381.7 220.5,-404.7 359.5,-404.7 359.5,-381.7 220.5,-381.7"/>
<text text-anchor="start" x="225.5" y="-390.3" font-family="Helvetica,sans-Serif" font-weight="bold" font-size="11.00" fill="#000000">TechnicalCareers</text>
<text text-anchor="start" x="325.0219" y="-389.8" font-family="Helvetica,sans-Serif" font-size="11.00" fill="#000000">[table]</text>
<polygon fill="none" stroke="#000000" points="220.5,-359.7 220.5,-381.7 359.5,-381.7 359.5,-359.7 220.5,-359.7"/>
<image xlink:href="../../images/primaryKeys.png" width="11px" height="12px" preserveAspectRatio="xMinYMin meet" x="225.5" y="-376.7"/>
<text text-anchor="start" x="249.5" y="-366.8" font-family="Helvetica,sans-Serif" font-size="11.00" fill="#000000">Id</text>
<polygon fill="#ffffff" stroke="transparent" points="220.5,-337.7 220.5,-359.7 359.5,-359.7 359.5,-337.7 220.5,-337.7"/>
<polygon fill="none" stroke="#000000" points="220.5,-337.7 220.5,-359.7 359.5,-359.7 359.5,-337.7 220.5,-337.7"/>
<image xlink:href="../../images/foreignKeys.png" width="11px" height="12px" preserveAspectRatio="xMinYMin meet" x="225.5" y="-354.7"/>
<text text-anchor="start" x="249.5" y="-344.8" font-family="Helvetica,sans-Serif" font-size="11.00" fill="#000000">CreatedByUserId</text>
<polygon fill="#ffffff" stroke="transparent" points="220.5,-315.7 220.5,-337.7 359.5,-337.7 359.5,-315.7 220.5,-315.7"/>
<polygon fill="none" stroke="#000000" points="220.5,-315.7 220.5,-337.7 359.5,-337.7 359.5,-315.7 220.5,-315.7"/>
<image xlink:href="../../images/foreignKeys.png" width="11px" height="12px" preserveAspectRatio="xMinYMin meet" x="225.5" y="-332.7"/>
<text text-anchor="start" x="249.5" y="-322.8" font-family="Helvetica,sans-Serif" font-size="11.00" fill="#000000">UpdatedByUserId</text>
<polygon fill="none" stroke="#000000" points="220.5,-296.7 220.5,-315.7 359.5,-315.7 359.5,-296.7 220.5,-296.7"/>
<text text-anchor="start" x="223.5" y="-302.8" font-family="Helvetica,sans-Serif" font-size="11.00" fill="#000000">...</text>
<polygon fill="#ffffff" stroke="transparent" points="220.5,-277.7 220.5,-296.7 270.5,-296.7 270.5,-277.7 220.5,-277.7"/>
<polygon fill="none" stroke="#000000" points="220.5,-277.7 220.5,-296.7 270.5,-296.7 270.5,-277.7 220.5,-277.7"/>
<text text-anchor="start" x="223.5" y="-283.8" font-family="Helvetica,sans-Serif" font-size="11.00" fill="#000000">&lt; 2</text>
<polygon fill="#ffffff" stroke="transparent" points="270.5,-277.7 270.5,-296.7 323.5,-296.7 323.5,-277.7 270.5,-277.7"/>
<polygon fill="none" stroke="#000000" points="270.5,-277.7 270.5,-296.7 323.5,-296.7 323.5,-277.7 270.5,-277.7"/>
<text text-anchor="start" x="288.1105" y="-283.8" font-family="Helvetica,sans-Serif" font-size="11.00" fill="#000000">0 rows</text>
<polygon fill="#ffffff" stroke="transparent" points="323.5,-277.7 323.5,-296.7 359.5,-296.7 359.5,-277.7 323.5,-277.7"/>
<polygon fill="none" stroke="#000000" points="323.5,-277.7 323.5,-296.7 359.5,-296.7 359.5,-277.7 323.5,-277.7"/>
<text text-anchor="start" x="340.9053" y="-283.8" font-family="Helvetica,sans-Serif" font-size="11.00" fill="#000000">6 &gt;</text>
</a>
</g>
</g>
<!-- Students&#45;&gt;TechnicalCareers -->
<g id="edge7" class="edge">
<title>Students:w&#45;&gt;TechnicalCareers:e</title>
<path fill="none" stroke="#000000" d="M396.0577,-363.1063C383.8718,-365.6375 376.7627,-370.7 359.5,-370.7"/>
<polygon fill="#000000" stroke="#000000" points="402.5377,-362.4753 410.8489,-365.2831 406.5188,-362.0877 410.5,-361.7 410.5,-361.7 410.5,-361.7 406.5188,-362.0877 410.1511,-358.1169 402.5377,-362.4753 402.5377,-362.4753"/>
<ellipse fill="none" stroke="#000000" cx="399.3527" cy="-362.7855" rx="3.2" ry="3.2"/>
</g>
<!-- StudentEvaluationReport -->
<g id="node4" class="node">
<title>StudentEvaluationReport</title>
<g id="a_node4"><a xlink:href="../../tables/StudentEvaluationReport.html" xlink:title="StudentEvaluationReport" target="_top">
<polygon fill="#ffffff" stroke="transparent" points="702.5,-230.2 702.5,-401.2 885.5,-401.2 885.5,-230.2 702.5,-230.2"/>
<polygon fill="#f5f5f5" stroke="transparent" points="703,-377.7 703,-400.7 886,-400.7 886,-377.7 703,-377.7"/>
<polygon fill="none" stroke="#000000" points="703,-377.7 703,-400.7 886,-400.7 886,-377.7 703,-377.7"/>
<text text-anchor="start" x="708" y="-386.3" font-family="Helvetica,sans-Serif" font-weight="bold" font-size="11.00" fill="#000000">StudentEvaluationReport</text>
<text text-anchor="start" x="851.5219" y="-385.8" font-family="Helvetica,sans-Serif" font-size="11.00" fill="#000000">[table]</text>
<polygon fill="none" stroke="#000000" points="703,-355.7 703,-377.7 886,-377.7 886,-355.7 703,-355.7"/>
<image xlink:href="../../images/primaryKeys.png" width="11px" height="12px" preserveAspectRatio="xMinYMin meet" x="708" y="-372.7"/>
<text text-anchor="start" x="732" y="-362.8" font-family="Helvetica,sans-Serif" font-size="11.00" fill="#000000">Id</text>
<polygon fill="#ffffff" stroke="transparent" points="703,-333.7 703,-355.7 886,-355.7 886,-333.7 703,-333.7"/>
<polygon fill="none" stroke="#000000" points="703,-333.7 703,-355.7 886,-355.7 886,-333.7 703,-333.7"/>
<image xlink:href="../../images/foreignKeys.png" width="11px" height="12px" preserveAspectRatio="xMinYMin meet" x="708" y="-350.7"/>
<text text-anchor="start" x="732" y="-340.8" font-family="Helvetica,sans-Serif" font-size="11.00" fill="#000000">StudentId</text>
<polygon fill="#ffffff" stroke="transparent" points="703,-311.7 703,-333.7 886,-333.7 886,-311.7 703,-311.7"/>
<polygon fill="none" stroke="#000000" points="703,-311.7 703,-333.7 886,-333.7 886,-311.7 703,-311.7"/>
<image xlink:href="../../images/foreignKeys.png" width="11px" height="12px" preserveAspectRatio="xMinYMin meet" x="708" y="-328.7"/>
<text text-anchor="start" x="732" y="-318.8" font-family="Helvetica,sans-Serif" font-size="11.00" fill="#000000">EvaluationPeriodId</text>
<polygon fill="#ffffff" stroke="transparent" points="703,-289.7 703,-311.7 886,-311.7 886,-289.7 703,-289.7"/>
<polygon fill="none" stroke="#000000" points="703,-289.7 703,-311.7 886,-311.7 886,-289.7 703,-289.7"/>
<image xlink:href="../../images/foreignKeys.png" width="11px" height="12px" preserveAspectRatio="xMinYMin meet" x="708" y="-306.7"/>
<text text-anchor="start" x="732" y="-296.8" font-family="Helvetica,sans-Serif" font-size="11.00" fill="#000000">CreatedByUserId</text>
<polygon fill="#ffffff" stroke="transparent" points="703,-267.7 703,-289.7 886,-289.7 886,-267.7 703,-267.7"/>
<polygon fill="none" stroke="#000000" points="703,-267.7 703,-289.7 886,-289.7 886,-267.7 703,-267.7"/>
<image xlink:href="../../images/foreignKeys.png" width="11px" height="12px" preserveAspectRatio="xMinYMin meet" x="708" y="-284.7"/>
<text text-anchor="start" x="732" y="-274.8" font-family="Helvetica,sans-Serif" font-size="11.00" fill="#000000">UpdatedByUserId</text>
<polygon fill="none" stroke="#000000" points="703,-248.7 703,-267.7 886,-267.7 886,-248.7 703,-248.7"/>
<text text-anchor="start" x="706" y="-254.8" font-family="Helvetica,sans-Serif" font-size="11.00" fill="#000000">...</text>
<polygon fill="#ffffff" stroke="transparent" points="703,-229.7 703,-248.7 780,-248.7 780,-229.7 703,-229.7"/>
<polygon fill="none" stroke="#000000" points="703,-229.7 703,-248.7 780,-248.7 780,-229.7 703,-229.7"/>
<text text-anchor="start" x="706" y="-235.8" font-family="Helvetica,sans-Serif" font-size="11.00" fill="#000000">&lt; 4</text>
<polygon fill="#ffffff" stroke="transparent" points="780,-229.7 780,-248.7 846,-248.7 846,-229.7 780,-229.7"/>
<polygon fill="none" stroke="#000000" points="780,-229.7 780,-248.7 846,-248.7 846,-229.7 780,-229.7"/>
<text text-anchor="start" x="810.6105" y="-235.8" font-family="Helvetica,sans-Serif" font-size="11.00" fill="#000000">0 rows</text>
<polygon fill="#ffffff" stroke="transparent" points="846,-229.7 846,-248.7 886,-248.7 886,-229.7 846,-229.7"/>
<polygon fill="none" stroke="#000000" points="846,-229.7 846,-248.7 886,-248.7 886,-229.7 846,-229.7"/>
<text text-anchor="start" x="876.8862" y="-235.8" font-family="Helvetica,sans-Serif" font-size="11.00" fill="#000000"> &#160;</text>
</a>
</g>
</g>
<!-- StudentEvaluationReport&#45;&gt;AspNetUsers -->
<g id="edge4" class="edge">
<title>StudentEvaluationReport:w&#45;&gt;AspNetUsers:e</title>
<path fill="none" stroke="#000000" d="M688.322,-300.2721C570.0492,-293.8877 304.7019,-218.8934 212,-267.7 183.8565,-282.5172 203.3057,-326.7 171.5,-326.7"/>
<polygon fill="#000000" stroke="#000000" points="695.0034,-300.4668 702.8951,-304.2985 699.0017,-300.5834 703,-300.7 703,-300.7 703,-300.7 699.0017,-300.5834 703.1049,-297.1015 695.0034,-300.4668 695.0034,-300.4668"/>
<ellipse fill="none" stroke="#000000" cx="691.8048" cy="-300.3736" rx="3.2" ry="3.2"/>
</g>
<!-- StudentEvaluationReport&#45;&gt;AspNetUsers -->
<g id="edge6" class="edge">
<title>StudentEvaluationReport:w&#45;&gt;AspNetUsers:e</title>
<path fill="none" stroke="#000000" d="M688.6299,-277.0493C670.3482,-272.4365 663.3444,-259.4387 639,-254.7 452.6935,-218.4347 373.9569,-148.7291 212,-247.7 178.3325,-268.274 210.9562,-326.7 171.5,-326.7"/>
<polygon fill="#000000" stroke="#000000" points="695.0523,-277.787 702.5892,-282.2765 699.0261,-278.2435 703,-278.7 703,-278.7 703,-278.7 699.0261,-278.2435 703.4108,-275.1235 695.0523,-277.787 695.0523,-277.787"/>
<ellipse fill="none" stroke="#000000" cx="691.8732" cy="-277.4218" rx="3.2" ry="3.2"/>
</g>
<!-- StudentEvaluationReport&#45;&gt;Students -->
<g id="edge5" class="edge">
<title>StudentEvaluationReport:w&#45;&gt;Students:e</title>
<path fill="none" stroke="#000000" d="M688.6833,-347.6422C662.6275,-359.8271 666.3133,-405.7 629.5,-405.7"/>
<polygon fill="#000000" stroke="#000000" points="695.1638,-346.3104 703.7247,-348.2263 699.0819,-345.5052 703,-344.7 703,-344.7 703,-344.7 699.0819,-345.5052 702.2753,-341.1737 695.1638,-346.3104 695.1638,-346.3104"/>
<ellipse fill="none" stroke="#000000" cx="692.0293" cy="-346.9546" rx="3.2" ry="3.2"/>
</g>
<!-- TechnicalCareers&#45;&gt;AspNetUsers -->
<g id="edge12" class="edge">
<title>TechnicalCareers:w&#45;&gt;AspNetUsers:e</title>
<path fill="none" stroke="#000000" d="M206.1297,-345.2625C194.5865,-339.075 189.4041,-326.7 171.5,-326.7"/>
<polygon fill="#000000" stroke="#000000" points="212.7195,-346.8388 219.6625,-352.2012 216.6098,-347.7694 220.5,-348.7 220.5,-348.7 220.5,-348.7 216.6098,-347.7694 221.3375,-345.1988 212.7195,-346.8388 212.7195,-346.8388"/>
<ellipse fill="none" stroke="#000000" cx="209.6073" cy="-346.0943" rx="3.2" ry="3.2"/>
</g>
<!-- TechnicalCareers&#45;&gt;AspNetUsers -->
<g id="edge13" class="edge">
<title>TechnicalCareers:w&#45;&gt;AspNetUsers:e</title>
<path fill="none" stroke="#000000" d="M205.9909,-326.7C194.6774,-326.7 187.4931,-326.7 171.5,-326.7"/>
<polygon fill="#000000" stroke="#000000" points="212.5,-326.7001 220.5,-330.3 216.5,-326.7 220.5,-326.7 220.5,-326.7 220.5,-326.7 216.5,-326.7 220.5,-323.1 212.5,-326.7001 212.5,-326.7001"/>
<ellipse fill="none" stroke="#000000" cx="209.3" cy="-326.7001" rx="3.2" ry="3.2"/>
</g>
<!-- StudentSubjects -->
<g id="node6" class="node">
<title>StudentSubjects</title>
<g id="a_node6"><a xlink:href="../../tables/StudentSubjects.html" xlink:title="StudentSubjects" target="_top">
<polygon fill="#ffffff" stroke="transparent" points="727.5,-38.2 727.5,-209.2 860.5,-209.2 860.5,-38.2 727.5,-38.2"/>
<polygon fill="#f5f5f5" stroke="transparent" points="728,-185.7 728,-208.7 861,-208.7 861,-185.7 728,-185.7"/>
<polygon fill="none" stroke="#000000" points="728,-185.7 728,-208.7 861,-208.7 861,-185.7 728,-185.7"/>
<text text-anchor="start" x="733" y="-194.3" font-family="Helvetica,sans-Serif" font-weight="bold" font-size="11.00" fill="#000000">StudentSubjects</text>
<text text-anchor="start" x="826.5219" y="-193.8" font-family="Helvetica,sans-Serif" font-size="11.00" fill="#000000">[table]</text>
<polygon fill="none" stroke="#000000" points="728,-163.7 728,-185.7 861,-185.7 861,-163.7 728,-163.7"/>
<image xlink:href="../../images/primaryKeys.png" width="11px" height="12px" preserveAspectRatio="xMinYMin meet" x="733" y="-180.7"/>
<text text-anchor="start" x="754" y="-170.8" font-family="Helvetica,sans-Serif" font-size="11.00" fill="#000000">Id</text>
<polygon fill="#ffffff" stroke="transparent" points="728,-141.7 728,-163.7 861,-163.7 861,-141.7 728,-141.7"/>
<polygon fill="none" stroke="#000000" points="728,-141.7 728,-163.7 861,-163.7 861,-141.7 728,-141.7"/>
<image xlink:href="../../images/foreignKeys.png" width="11px" height="12px" preserveAspectRatio="xMinYMin meet" x="733" y="-158.7"/>
<text text-anchor="start" x="754" y="-148.8" font-family="Helvetica,sans-Serif" font-size="11.00" fill="#000000">StudentId</text>
<polygon fill="#ffffff" stroke="transparent" points="728,-119.7 728,-141.7 861,-141.7 861,-119.7 728,-119.7"/>
<polygon fill="none" stroke="#000000" points="728,-119.7 728,-141.7 861,-141.7 861,-119.7 728,-119.7"/>
<image xlink:href="../../images/foreignKeys.png" width="11px" height="12px" preserveAspectRatio="xMinYMin meet" x="733" y="-136.7"/>
<text text-anchor="start" x="754" y="-126.8" font-family="Helvetica,sans-Serif" font-size="11.00" fill="#000000">SubjectId</text>
<polygon fill="#ffffff" stroke="transparent" points="728,-97.7 728,-119.7 861,-119.7 861,-97.7 728,-97.7"/>
<polygon fill="none" stroke="#000000" points="728,-97.7 728,-119.7 861,-119.7 861,-97.7 728,-97.7"/>
<image xlink:href="../../images/foreignKeys.png" width="11px" height="12px" preserveAspectRatio="xMinYMin meet" x="733" y="-114.7"/>
<text text-anchor="start" x="754" y="-104.8" font-family="Helvetica,sans-Serif" font-size="11.00" fill="#000000">CreatedByUserId</text>
<polygon fill="#ffffff" stroke="transparent" points="728,-75.7 728,-97.7 861,-97.7 861,-75.7 728,-75.7"/>
<polygon fill="none" stroke="#000000" points="728,-75.7 728,-97.7 861,-97.7 861,-75.7 728,-75.7"/>
<image xlink:href="../../images/foreignKeys.png" width="11px" height="12px" preserveAspectRatio="xMinYMin meet" x="733" y="-92.7"/>
<text text-anchor="start" x="754" y="-82.8" font-family="Helvetica,sans-Serif" font-size="11.00" fill="#000000">UpdatedByUserId</text>
<polygon fill="none" stroke="#000000" points="728,-56.7 728,-75.7 861,-75.7 861,-56.7 728,-56.7"/>
<text text-anchor="start" x="731" y="-62.8" font-family="Helvetica,sans-Serif" font-size="11.00" fill="#000000">...</text>
<polygon fill="#ffffff" stroke="transparent" points="728,-37.7 728,-56.7 780,-56.7 780,-37.7 728,-37.7"/>
<polygon fill="none" stroke="#000000" points="728,-37.7 728,-56.7 780,-56.7 780,-37.7 728,-37.7"/>
<text text-anchor="start" x="731" y="-43.8" font-family="Helvetica,sans-Serif" font-size="11.00" fill="#000000">&lt; 4</text>
<polygon fill="#ffffff" stroke="transparent" points="780,-37.7 780,-56.7 833,-56.7 833,-37.7 780,-37.7"/>
<polygon fill="none" stroke="#000000" points="780,-37.7 780,-56.7 833,-56.7 833,-37.7 780,-37.7"/>
<text text-anchor="start" x="797.6105" y="-43.8" font-family="Helvetica,sans-Serif" font-size="11.00" fill="#000000">0 rows</text>
<polygon fill="#ffffff" stroke="transparent" points="833,-37.7 833,-56.7 861,-56.7 861,-37.7 833,-37.7"/>
<polygon fill="none" stroke="#000000" points="833,-37.7 833,-56.7 861,-56.7 861,-37.7 833,-37.7"/>
<text text-anchor="start" x="851.8862" y="-43.8" font-family="Helvetica,sans-Serif" font-size="11.00" fill="#000000"> &#160;</text>
</a>
</g>
</g>
<!-- StudentSubjects&#45;&gt;AspNetUsers -->
<g id="edge9" class="edge">
<title>StudentSubjects:w&#45;&gt;AspNetUsers:e</title>
<path fill="none" stroke="#000000" d="M713.4241,-109.697C683.9081,-114.0281 674.5221,-131.3646 639,-139.7 545.8846,-161.5499 285.1222,-132.0474 212,-193.7 164.7596,-233.5305 233.291,-326.7 171.5,-326.7"/>
<polygon fill="#000000" stroke="#000000" points="720.0187,-109.246 728.2457,-112.2916 724.0093,-108.973 728,-108.7 728,-108.7 728,-108.7 724.0093,-108.973 727.7543,-105.1084 720.0187,-109.246 720.0187,-109.246"/>
<ellipse fill="none" stroke="#000000" cx="716.8261" cy="-109.4644" rx="3.2" ry="3.2"/>
</g>
<!-- StudentSubjects&#45;&gt;AspNetUsers -->
<g id="edge11" class="edge">
<title>StudentSubjects:w&#45;&gt;AspNetUsers:e</title>
<path fill="none" stroke="#000000" d="M713.5948,-86.5842C492.0717,-83.0332 379.9709,-.0619 212,-151.7 152.7418,-205.1962 251.3335,-326.7 171.5,-326.7"/>
<polygon fill="#000000" stroke="#000000" points="720.0003,-86.6356 727.971,-90.2999 724.0001,-86.6678 728,-86.7 728,-86.7 728,-86.7 724.0001,-86.6678 728.029,-83.1001 720.0003,-86.6356 720.0003,-86.6356"/>
<ellipse fill="none" stroke="#000000" cx="716.8004" cy="-86.6099" rx="3.2" ry="3.2"/>
</g>
<!-- StudentSubjects&#45;&gt;Students -->
<g id="edge10" class="edge">
<title>StudentSubjects:w&#45;&gt;Students:e</title>
<path fill="none" stroke="#000000" d="M713.4384,-154.6303C688.8447,-162.07 686.7517,-189.957 672,-219.7 634.3224,-295.6669 714.2972,-405.7 629.5,-405.7"/>
<polygon fill="#000000" stroke="#000000" points="720.0694,-153.7513 728.4731,-156.2688 724.0347,-153.2257 728,-152.7 728,-152.7 728,-152.7 724.0347,-153.2257 727.5269,-149.1312 720.0694,-153.7513 720.0694,-153.7513"/>
<ellipse fill="none" stroke="#000000" cx="716.8971" cy="-154.1718" rx="3.2" ry="3.2"/>
</g>
</g>
</svg>
