<?xml version="1.0" encoding="UTF-8" standalone="no"?>
<!DOCTYPE svg PUBLIC "-//W3C//DTD SVG 1.1//EN"
 "http://www.w3.org/Graphics/SVG/1.1/DTD/svg11.dtd">
<!-- Generated by graphviz version 2.40.1 (20161225.0304)
 -->
<!-- Title: twoDegreesRelationshipsDiagram Pages: 1 -->
<svg width="1366pt" height="1155pt"
 viewBox="0.00 0.00 1366.00 1154.61" xmlns="http://www.w3.org/2000/svg" xmlns:xlink="http://www.w3.org/1999/xlink">
<g id="graph0" class="graph" transform="scale(1 1) rotate(0) translate(4 1150.6102)">
<title>twoDegreesRelationshipsDiagram</title>
<polygon fill="#ffffff" stroke="transparent" points="-4,4 -4,-1150.6102 1362,-1150.6102 1362,4 -4,4"/>
<text text-anchor="middle" x="72.4936" y="-7.3" font-family="Helvetica,sans-Serif" font-size="11.00" fill="#000000">Generated by SchemaSpy</text>
<!-- AspNetUserClaims -->
<g id="node1" class="node">
<title>AspNetUserClaims</title>
<g id="a_node1"><a xlink:href="../../tables/AspNetUserClaims.html" xlink:title="AspNetUserClaims" target="_top">
<polygon fill="#ffffff" stroke="transparent" points="172,-1081.6102 172,-1142.6102 319,-1142.6102 319,-1081.6102 172,-1081.6102"/>
<polygon fill="#f5f5f5" stroke="transparent" points="172.5,-1119.1102 172.5,-1142.1102 319.5,-1142.1102 319.5,-1119.1102 172.5,-1119.1102"/>
<polygon fill="none" stroke="#000000" points="172.5,-1119.1102 172.5,-1142.1102 319.5,-1142.1102 319.5,-1119.1102 172.5,-1119.1102"/>
<text text-anchor="start" x="177.5" y="-1127.7102" font-family="Helvetica,sans-Serif" font-weight="bold" font-size="11.00" fill="#000000">AspNetUserClaims</text>
<text text-anchor="start" x="285.0219" y="-1127.2102" font-family="Helvetica,sans-Serif" font-size="11.00" fill="#000000">[table]</text>
<polygon fill="none" stroke="#000000" points="172.5,-1100.1102 172.5,-1119.1102 319.5,-1119.1102 319.5,-1100.1102 172.5,-1100.1102"/>
<text text-anchor="start" x="175.5" y="-1106.2102" font-family="Helvetica,sans-Serif" font-size="11.00" fill="#000000">...</text>
<polygon fill="#ffffff" stroke="transparent" points="172.5,-1081.1102 172.5,-1100.1102 231.5,-1100.1102 231.5,-1081.1102 172.5,-1081.1102"/>
<polygon fill="none" stroke="#000000" points="172.5,-1081.1102 172.5,-1100.1102 231.5,-1100.1102 231.5,-1081.1102 172.5,-1081.1102"/>
<text text-anchor="start" x="175.5" y="-1087.2102" font-family="Helvetica,sans-Serif" font-size="11.00" fill="#000000">&lt; 1</text>
<polygon fill="#ffffff" stroke="transparent" points="231.5,-1081.1102 231.5,-1100.1102 288.5,-1100.1102 288.5,-1081.1102 231.5,-1081.1102"/>
<polygon fill="none" stroke="#000000" points="231.5,-1081.1102 231.5,-1100.1102 288.5,-1100.1102 288.5,-1081.1102 231.5,-1081.1102"/>
<text text-anchor="start" x="253.1105" y="-1087.2102" font-family="Helvetica,sans-Serif" font-size="11.00" fill="#000000">0 rows</text>
<polygon fill="#ffffff" stroke="transparent" points="288.5,-1081.1102 288.5,-1100.1102 319.5,-1100.1102 319.5,-1081.1102 288.5,-1081.1102"/>
<polygon fill="none" stroke="#000000" points="288.5,-1081.1102 288.5,-1100.1102 319.5,-1100.1102 319.5,-1081.1102 288.5,-1081.1102"/>
<text text-anchor="start" x="310.3862" y="-1087.2102" font-family="Helvetica,sans-Serif" font-size="11.00" fill="#000000"> &#160;</text>
</a>
</g>
</g>
<!-- AspNetUsers -->
<g id="node2" class="node">
<title>AspNetUsers</title>
<g id="a_node2"><a xlink:href="../../tables/AspNetUsers.html" xlink:title="AspNetUsers" target="_top">
<polygon fill="#ffffff" stroke="transparent" points="8,-535.6102 8,-596.6102 122,-596.6102 122,-535.6102 8,-535.6102"/>
<polygon fill="#f5f5f5" stroke="transparent" points="8,-573.1102 8,-596.1102 122,-596.1102 122,-573.1102 8,-573.1102"/>
<polygon fill="none" stroke="#000000" points="8,-573.1102 8,-596.1102 122,-596.1102 122,-573.1102 8,-573.1102"/>
<text text-anchor="start" x="13" y="-581.7102" font-family="Helvetica,sans-Serif" font-weight="bold" font-size="11.00" fill="#000000">AspNetUsers</text>
<text text-anchor="start" x="87.5219" y="-581.2102" font-family="Helvetica,sans-Serif" font-size="11.00" fill="#000000">[table]</text>
<polygon fill="none" stroke="#000000" points="8,-554.1102 8,-573.1102 122,-573.1102 122,-554.1102 8,-554.1102"/>
<text text-anchor="start" x="11" y="-560.2102" font-family="Helvetica,sans-Serif" font-size="11.00" fill="#000000">...</text>
<polygon fill="#ffffff" stroke="transparent" points="8,-535.1102 8,-554.1102 41,-554.1102 41,-535.1102 8,-535.1102"/>
<polygon fill="none" stroke="#000000" points="8,-535.1102 8,-554.1102 41,-554.1102 41,-535.1102 8,-535.1102"/>
<text text-anchor="start" x="11" y="-541.2102" font-family="Helvetica,sans-Serif" font-size="11.00" fill="#000000"> &#160;</text>
<polygon fill="#ffffff" stroke="transparent" points="41,-535.1102 41,-554.1102 84,-554.1102 84,-535.1102 41,-535.1102"/>
<polygon fill="none" stroke="#000000" points="41,-535.1102 41,-554.1102 84,-554.1102 84,-535.1102 41,-535.1102"/>
<text text-anchor="start" x="54.1105" y="-541.2102" font-family="Helvetica,sans-Serif" font-size="11.00" fill="#000000">1 row</text>
<polygon fill="#ffffff" stroke="transparent" points="84,-535.1102 84,-554.1102 122,-554.1102 122,-535.1102 84,-535.1102"/>
<polygon fill="none" stroke="#000000" points="84,-535.1102 84,-554.1102 122,-554.1102 122,-535.1102 84,-535.1102"/>
<text text-anchor="start" x="97.2904" y="-541.2102" font-family="Helvetica,sans-Serif" font-size="11.00" fill="#000000">29 &gt;</text>
</a>
</g>
</g>
<!-- AspNetUserClaims&#45;&gt;AspNetUsers -->
<g id="edge1" class="edge">
<title>AspNetUserClaims:w&#45;&gt;AspNetUsers:e</title>
<path fill="none" stroke="#000000" d="M159.9337,-1101.6328C113.9705,-1047.2015 78.6289,-710.918 68.1731,-600.9033"/>
<polygon fill="#000000" stroke="#000000" points="165.625,-1105.0193 170.6591,-1112.2039 169.0625,-1107.0647 172.5,-1109.1102 172.5,-1109.1102 172.5,-1109.1102 169.0625,-1107.0647 174.3409,-1106.0164 165.625,-1105.0193 165.625,-1105.0193"/>
<ellipse fill="none" stroke="#000000" cx="162.875" cy="-1103.3829" rx="3.2" ry="3.2"/>
</g>
<!-- AspNetUserLogins -->
<g id="node3" class="node">
<title>AspNetUserLogins</title>
<g id="a_node3"><a xlink:href="../../tables/AspNetUserLogins.html" xlink:title="AspNetUserLogins" target="_top">
<polygon fill="#ffffff" stroke="transparent" points="172,-999.6102 172,-1060.6102 319,-1060.6102 319,-999.6102 172,-999.6102"/>
<polygon fill="#f5f5f5" stroke="transparent" points="172.5,-1037.1102 172.5,-1060.1102 319.5,-1060.1102 319.5,-1037.1102 172.5,-1037.1102"/>
<polygon fill="none" stroke="#000000" points="172.5,-1037.1102 172.5,-1060.1102 319.5,-1060.1102 319.5,-1037.1102 172.5,-1037.1102"/>
<text text-anchor="start" x="177.5" y="-1045.7102" font-family="Helvetica,sans-Serif" font-weight="bold" font-size="11.00" fill="#000000">AspNetUserLogins</text>
<text text-anchor="start" x="285.0219" y="-1045.2102" font-family="Helvetica,sans-Serif" font-size="11.00" fill="#000000">[table]</text>
<polygon fill="none" stroke="#000000" points="172.5,-1018.1102 172.5,-1037.1102 319.5,-1037.1102 319.5,-1018.1102 172.5,-1018.1102"/>
<text text-anchor="start" x="175.5" y="-1024.2102" font-family="Helvetica,sans-Serif" font-size="11.00" fill="#000000">...</text>
<polygon fill="#ffffff" stroke="transparent" points="172.5,-999.1102 172.5,-1018.1102 231.5,-1018.1102 231.5,-999.1102 172.5,-999.1102"/>
<polygon fill="none" stroke="#000000" points="172.5,-999.1102 172.5,-1018.1102 231.5,-1018.1102 231.5,-999.1102 172.5,-999.1102"/>
<text text-anchor="start" x="175.5" y="-1005.2102" font-family="Helvetica,sans-Serif" font-size="11.00" fill="#000000">&lt; 1</text>
<polygon fill="#ffffff" stroke="transparent" points="231.5,-999.1102 231.5,-1018.1102 288.5,-1018.1102 288.5,-999.1102 231.5,-999.1102"/>
<polygon fill="none" stroke="#000000" points="231.5,-999.1102 231.5,-1018.1102 288.5,-1018.1102 288.5,-999.1102 231.5,-999.1102"/>
<text text-anchor="start" x="253.1105" y="-1005.2102" font-family="Helvetica,sans-Serif" font-size="11.00" fill="#000000">0 rows</text>
<polygon fill="#ffffff" stroke="transparent" points="288.5,-999.1102 288.5,-1018.1102 319.5,-1018.1102 319.5,-999.1102 288.5,-999.1102"/>
<polygon fill="none" stroke="#000000" points="288.5,-999.1102 288.5,-1018.1102 319.5,-1018.1102 319.5,-999.1102 288.5,-999.1102"/>
<text text-anchor="start" x="310.3862" y="-1005.2102" font-family="Helvetica,sans-Serif" font-size="11.00" fill="#000000"> &#160;</text>
</a>
</g>
</g>
<!-- AspNetUserLogins&#45;&gt;AspNetUsers -->
<g id="edge2" class="edge">
<title>AspNetUserLogins:w&#45;&gt;AspNetUsers:e</title>
<path fill="none" stroke="#000000" d="M158.3028,-1024.1351C83.1726,-991.6376 68.5076,-701.8984 65.6719,-600.7601"/>
<polygon fill="#000000" stroke="#000000" points="164.6701,-1025.4693 171.7616,-1030.6336 168.585,-1026.2897 172.5,-1027.1102 172.5,-1027.1102 172.5,-1027.1102 168.585,-1026.2897 173.2384,-1023.5867 164.6701,-1025.4693 164.6701,-1025.4693"/>
<ellipse fill="none" stroke="#000000" cx="161.5381" cy="-1024.813" rx="3.2" ry="3.2"/>
</g>
<!-- AspNetUserRoles -->
<g id="node4" class="node">
<title>AspNetUserRoles</title>
<g id="a_node4"><a xlink:href="../../tables/AspNetUserRoles.html" xlink:title="AspNetUserRoles" target="_top">
<polygon fill="#ffffff" stroke="transparent" points="175.5,-917.6102 175.5,-978.6102 315.5,-978.6102 315.5,-917.6102 175.5,-917.6102"/>
<polygon fill="#f5f5f5" stroke="transparent" points="175.5,-955.1102 175.5,-978.1102 315.5,-978.1102 315.5,-955.1102 175.5,-955.1102"/>
<polygon fill="none" stroke="#000000" points="175.5,-955.1102 175.5,-978.1102 315.5,-978.1102 315.5,-955.1102 175.5,-955.1102"/>
<text text-anchor="start" x="180.5" y="-963.7102" font-family="Helvetica,sans-Serif" font-weight="bold" font-size="11.00" fill="#000000">AspNetUserRoles</text>
<text text-anchor="start" x="281.0219" y="-963.2102" font-family="Helvetica,sans-Serif" font-size="11.00" fill="#000000">[table]</text>
<polygon fill="none" stroke="#000000" points="175.5,-936.1102 175.5,-955.1102 315.5,-955.1102 315.5,-936.1102 175.5,-936.1102"/>
<text text-anchor="start" x="178.5" y="-942.2102" font-family="Helvetica,sans-Serif" font-size="11.00" fill="#000000">...</text>
<polygon fill="#ffffff" stroke="transparent" points="175.5,-917.1102 175.5,-936.1102 233.5,-936.1102 233.5,-917.1102 175.5,-917.1102"/>
<polygon fill="none" stroke="#000000" points="175.5,-917.1102 175.5,-936.1102 233.5,-936.1102 233.5,-917.1102 175.5,-917.1102"/>
<text text-anchor="start" x="178.5" y="-923.2102" font-family="Helvetica,sans-Serif" font-size="11.00" fill="#000000">&lt; 2</text>
<polygon fill="#ffffff" stroke="transparent" points="233.5,-917.1102 233.5,-936.1102 284.5,-936.1102 284.5,-917.1102 233.5,-917.1102"/>
<polygon fill="none" stroke="#000000" points="233.5,-917.1102 233.5,-936.1102 284.5,-936.1102 284.5,-917.1102 233.5,-917.1102"/>
<text text-anchor="start" x="254.6105" y="-923.2102" font-family="Helvetica,sans-Serif" font-size="11.00" fill="#000000">1 row</text>
<polygon fill="#ffffff" stroke="transparent" points="284.5,-917.1102 284.5,-936.1102 315.5,-936.1102 315.5,-917.1102 284.5,-917.1102"/>
<polygon fill="none" stroke="#000000" points="284.5,-917.1102 284.5,-936.1102 315.5,-936.1102 315.5,-917.1102 284.5,-917.1102"/>
<text text-anchor="start" x="306.3862" y="-923.2102" font-family="Helvetica,sans-Serif" font-size="11.00" fill="#000000"> &#160;</text>
</a>
</g>
</g>
<!-- AspNetUserRoles&#45;&gt;AspNetUsers -->
<g id="edge3" class="edge">
<title>AspNetUserRoles:w&#45;&gt;AspNetUsers:e</title>
<path fill="none" stroke="#000000" d="M161.4599,-941.7245C100.3493,-911.5557 75.2006,-687.9134 67.6505,-600.7486"/>
<polygon fill="#000000" stroke="#000000" points="167.7229,-943.2347 174.6561,-948.6098 171.6115,-944.1725 175.5,-945.1102 175.5,-945.1102 175.5,-945.1102 171.6115,-944.1725 176.3439,-941.6105 167.7229,-943.2347 167.7229,-943.2347"/>
<ellipse fill="none" stroke="#000000" cx="164.6121" cy="-942.4846" rx="3.2" ry="3.2"/>
</g>
<!-- AspNetUserTokens -->
<g id="node5" class="node">
<title>AspNetUserTokens</title>
<g id="a_node5"><a xlink:href="../../tables/AspNetUserTokens.html" xlink:title="AspNetUserTokens" target="_top">
<polygon fill="#ffffff" stroke="transparent" points="171,-835.6102 171,-896.6102 320,-896.6102 320,-835.6102 171,-835.6102"/>
<polygon fill="#f5f5f5" stroke="transparent" points="171.5,-873.1102 171.5,-896.1102 320.5,-896.1102 320.5,-873.1102 171.5,-873.1102"/>
<polygon fill="none" stroke="#000000" points="171.5,-873.1102 171.5,-896.1102 320.5,-896.1102 320.5,-873.1102 171.5,-873.1102"/>
<text text-anchor="start" x="176.5" y="-881.7102" font-family="Helvetica,sans-Serif" font-weight="bold" font-size="11.00" fill="#000000">AspNetUserTokens</text>
<text text-anchor="start" x="286.0219" y="-881.2102" font-family="Helvetica,sans-Serif" font-size="11.00" fill="#000000">[table]</text>
<polygon fill="none" stroke="#000000" points="171.5,-854.1102 171.5,-873.1102 320.5,-873.1102 320.5,-854.1102 171.5,-854.1102"/>
<text text-anchor="start" x="174.5" y="-860.2102" font-family="Helvetica,sans-Serif" font-size="11.00" fill="#000000">...</text>
<polygon fill="#ffffff" stroke="transparent" points="171.5,-835.1102 171.5,-854.1102 231.5,-854.1102 231.5,-835.1102 171.5,-835.1102"/>
<polygon fill="none" stroke="#000000" points="171.5,-835.1102 171.5,-854.1102 231.5,-854.1102 231.5,-835.1102 171.5,-835.1102"/>
<text text-anchor="start" x="174.5" y="-841.2102" font-family="Helvetica,sans-Serif" font-size="11.00" fill="#000000">&lt; 1</text>
<polygon fill="#ffffff" stroke="transparent" points="231.5,-835.1102 231.5,-854.1102 288.5,-854.1102 288.5,-835.1102 231.5,-835.1102"/>
<polygon fill="none" stroke="#000000" points="231.5,-835.1102 231.5,-854.1102 288.5,-854.1102 288.5,-835.1102 231.5,-835.1102"/>
<text text-anchor="start" x="253.1105" y="-841.2102" font-family="Helvetica,sans-Serif" font-size="11.00" fill="#000000">0 rows</text>
<polygon fill="#ffffff" stroke="transparent" points="288.5,-835.1102 288.5,-854.1102 320.5,-854.1102 320.5,-835.1102 288.5,-835.1102"/>
<polygon fill="none" stroke="#000000" points="288.5,-835.1102 288.5,-854.1102 320.5,-854.1102 320.5,-835.1102 288.5,-835.1102"/>
<text text-anchor="start" x="311.3862" y="-841.2102" font-family="Helvetica,sans-Serif" font-size="11.00" fill="#000000"> &#160;</text>
</a>
</g>
</g>
<!-- AspNetUserTokens&#45;&gt;AspNetUsers -->
<g id="edge4" class="edge">
<title>AspNetUserTokens:w&#45;&gt;AspNetUsers:e</title>
<path fill="none" stroke="#000000" d="M157.4336,-859.0427C110.4555,-831.5819 80.9574,-672.2206 69.9216,-600.7611"/>
<polygon fill="#000000" stroke="#000000" points="163.8148,-860.8879 170.5,-866.5685 167.6574,-861.999 171.5,-863.1102 171.5,-863.1102 171.5,-863.1102 167.6574,-861.999 172.5,-859.6518 163.8148,-860.8879 163.8148,-860.8879"/>
<ellipse fill="none" stroke="#000000" cx="160.7408" cy="-859.9989" rx="3.2" ry="3.2"/>
</g>
<!-- Competencies -->
<g id="node6" class="node">
<title>Competencies</title>
<g id="a_node6"><a xlink:href="../../tables/Competencies.html" xlink:title="Competencies" target="_top">
<polygon fill="#ffffff" stroke="transparent" points="185,-674.6102 185,-735.6102 306,-735.6102 306,-674.6102 185,-674.6102"/>
<polygon fill="#f5f5f5" stroke="transparent" points="185.5,-712.1102 185.5,-735.1102 306.5,-735.1102 306.5,-712.1102 185.5,-712.1102"/>
<polygon fill="none" stroke="#000000" points="185.5,-712.1102 185.5,-735.1102 306.5,-735.1102 306.5,-712.1102 185.5,-712.1102"/>
<text text-anchor="start" x="190.5" y="-720.7102" font-family="Helvetica,sans-Serif" font-weight="bold" font-size="11.00" fill="#000000">Competencies</text>
<text text-anchor="start" x="272.0219" y="-720.2102" font-family="Helvetica,sans-Serif" font-size="11.00" fill="#000000">[table]</text>
<polygon fill="none" stroke="#000000" points="185.5,-693.1102 185.5,-712.1102 306.5,-712.1102 306.5,-693.1102 185.5,-693.1102"/>
<text text-anchor="start" x="188.5" y="-699.2102" font-family="Helvetica,sans-Serif" font-size="11.00" fill="#000000">...</text>
<polygon fill="#ffffff" stroke="transparent" points="185.5,-674.1102 185.5,-693.1102 226.5,-693.1102 226.5,-674.1102 185.5,-674.1102"/>
<polygon fill="none" stroke="#000000" points="185.5,-674.1102 185.5,-693.1102 226.5,-693.1102 226.5,-674.1102 185.5,-674.1102"/>
<text text-anchor="start" x="188.5" y="-680.2102" font-family="Helvetica,sans-Serif" font-size="11.00" fill="#000000">&lt; 2</text>
<polygon fill="#ffffff" stroke="transparent" points="226.5,-674.1102 226.5,-693.1102 274.5,-693.1102 274.5,-674.1102 226.5,-674.1102"/>
<polygon fill="none" stroke="#000000" points="226.5,-674.1102 226.5,-693.1102 274.5,-693.1102 274.5,-674.1102 226.5,-674.1102"/>
<text text-anchor="start" x="239.1105" y="-680.2102" font-family="Helvetica,sans-Serif" font-size="11.00" fill="#000000">5 rows</text>
<polygon fill="#ffffff" stroke="transparent" points="274.5,-674.1102 274.5,-693.1102 306.5,-693.1102 306.5,-674.1102 274.5,-674.1102"/>
<polygon fill="none" stroke="#000000" points="274.5,-674.1102 274.5,-693.1102 306.5,-693.1102 306.5,-674.1102 274.5,-674.1102"/>
<text text-anchor="start" x="287.9053" y="-680.2102" font-family="Helvetica,sans-Serif" font-size="11.00" fill="#000000">4 &gt;</text>
</a>
</g>
</g>
<!-- Competencies&#45;&gt;AspNetUsers -->
<g id="edge5" class="edge">
<title>Competencies:w&#45;&gt;AspNetUsers:e</title>
<path fill="none" stroke="#000000" d="M171.2265,-699.6358C126.6974,-687.4124 96.3051,-636.0065 79.7914,-600.6151"/>
<polygon fill="#000000" stroke="#000000" points="177.6176,-700.7436 184.8851,-705.6573 181.5588,-701.4269 185.5,-702.1102 185.5,-702.1102 185.5,-702.1102 181.5588,-701.4269 186.1149,-698.5631 177.6176,-700.7436 177.6176,-700.7436"/>
<ellipse fill="none" stroke="#000000" cx="174.4646" cy="-700.197" rx="3.2" ry="3.2"/>
</g>
<!-- Competencies&#45;&gt;AspNetUsers -->
<g id="edge6" class="edge">
<title>Competencies:w&#45;&gt;AspNetUsers:e</title>
<path fill="none" stroke="#000000" d="M170.8453,-701.8142C122.9784,-695.6093 91.5055,-638.9393 76.1045,-600.7419"/>
<polygon fill="#000000" stroke="#000000" points="177.5016,-701.9486 185.4273,-705.7094 181.5008,-702.0294 185.5,-702.1102 185.5,-702.1102 185.5,-702.1102 181.5008,-702.0294 185.5727,-698.5109 177.5016,-701.9486 177.5016,-701.9486"/>
<ellipse fill="none" stroke="#000000" cx="174.3023" cy="-701.8839" rx="3.2" ry="3.2"/>
</g>
<!-- CompetencyLevelDescriptions -->
<g id="node7" class="node">
<title>CompetencyLevelDescriptions</title>
<g id="a_node7"><a xlink:href="../../tables/CompetencyLevelDescriptions.html" xlink:title="CompetencyLevelDescriptions" target="_top">
<polygon fill="#ffffff" stroke="transparent" points="369,-790.6102 369,-851.6102 583,-851.6102 583,-790.6102 369,-790.6102"/>
<polygon fill="#f5f5f5" stroke="transparent" points="369,-828.1102 369,-851.1102 583,-851.1102 583,-828.1102 369,-828.1102"/>
<polygon fill="none" stroke="#000000" points="369,-828.1102 369,-851.1102 583,-851.1102 583,-828.1102 369,-828.1102"/>
<text text-anchor="start" x="374" y="-836.7102" font-family="Helvetica,sans-Serif" font-weight="bold" font-size="11.00" fill="#000000">CompetencyLevelDescriptions</text>
<text text-anchor="start" x="548.5219" y="-836.2102" font-family="Helvetica,sans-Serif" font-size="11.00" fill="#000000">[table]</text>
<polygon fill="none" stroke="#000000" points="369,-809.1102 369,-828.1102 583,-828.1102 583,-809.1102 369,-809.1102"/>
<text text-anchor="start" x="372" y="-815.2102" font-family="Helvetica,sans-Serif" font-size="11.00" fill="#000000">...</text>
<polygon fill="#ffffff" stroke="transparent" points="369,-790.1102 369,-809.1102 458,-809.1102 458,-790.1102 369,-790.1102"/>
<polygon fill="none" stroke="#000000" points="369,-790.1102 369,-809.1102 458,-809.1102 458,-790.1102 369,-790.1102"/>
<text text-anchor="start" x="372" y="-796.2102" font-family="Helvetica,sans-Serif" font-size="11.00" fill="#000000">&lt; 3</text>
<polygon fill="#ffffff" stroke="transparent" points="458,-790.1102 458,-809.1102 536,-809.1102 536,-790.1102 458,-790.1102"/>
<polygon fill="none" stroke="#000000" points="458,-790.1102 458,-809.1102 536,-809.1102 536,-790.1102 458,-790.1102"/>
<text text-anchor="start" x="494.4956" y="-796.2102" font-family="Helvetica,sans-Serif" font-size="11.00" fill="#000000">20 rows</text>
<polygon fill="#ffffff" stroke="transparent" points="536,-790.1102 536,-809.1102 583,-809.1102 583,-790.1102 536,-790.1102"/>
<polygon fill="none" stroke="#000000" points="536,-790.1102 536,-809.1102 583,-809.1102 583,-790.1102 536,-790.1102"/>
<text text-anchor="start" x="573.8862" y="-796.2102" font-family="Helvetica,sans-Serif" font-size="11.00" fill="#000000"> &#160;</text>
</a>
</g>
</g>
<!-- CompetencyLevelDescriptions&#45;&gt;AspNetUsers -->
<g id="edge8" class="edge">
<title>CompetencyLevelDescriptions:w&#45;&gt;AspNetUsers:e</title>
<path fill="none" stroke="#000000" d="M354.4722,-817.36C271.7082,-814.1315 232.5378,-829.9606 163,-776.1102 106.3491,-732.2394 81.4345,-648.2188 71.2859,-600.7783"/>
<polygon fill="#000000" stroke="#000000" points="361.0106,-817.6976 368.8143,-821.7054 365.0053,-817.9039 369,-818.1102 369,-818.1102 369,-818.1102 365.0053,-817.9039 369.1857,-814.5149 361.0106,-817.6976 361.0106,-817.6976"/>
<ellipse fill="none" stroke="#000000" cx="357.8149" cy="-817.5325" rx="3.2" ry="3.2"/>
</g>
<!-- CompetencyLevelDescriptions&#45;&gt;AspNetUsers -->
<g id="edge9" class="edge">
<title>CompetencyLevelDescriptions:w&#45;&gt;AspNetUsers:e</title>
<path fill="none" stroke="#000000" d="M354.4722,-819.3442C271.7082,-827.1315 232.5378,-842.9606 163,-789.1102 102.9305,-742.592 78.5431,-650.9322 69.6062,-600.7399"/>
<polygon fill="#000000" stroke="#000000" points="361.0287,-818.7873 369.3047,-821.6972 365.0144,-818.4487 369,-818.1102 369,-818.1102 369,-818.1102 365.0144,-818.4487 368.6953,-814.5231 361.0287,-818.7873 361.0287,-818.7873"/>
<ellipse fill="none" stroke="#000000" cx="357.8402" cy="-819.0582" rx="3.2" ry="3.2"/>
</g>
<!-- CompetencyLevelDescriptions&#45;&gt;Competencies -->
<g id="edge7" class="edge">
<title>CompetencyLevelDescriptions:w&#45;&gt;Competencies:e</title>
<path fill="none" stroke="#000000" d="M354.8705,-815.0074C320.0269,-796.5602 359.3436,-702.1102 306.5,-702.1102"/>
<polygon fill="#000000" stroke="#000000" points="361.1862,-816.3943 368.2278,-821.6264 365.0931,-817.2522 369,-818.1102 369,-818.1102 369,-818.1102 365.0931,-817.2522 369.7722,-814.5939 361.1862,-816.3943 361.1862,-816.3943"/>
<ellipse fill="none" stroke="#000000" cx="358.0606" cy="-815.7079" rx="3.2" ry="3.2"/>
</g>
<!-- Coordinators -->
<g id="node8" class="node">
<title>Coordinators</title>
<g id="a_node8"><a xlink:href="../../tables/Coordinators.html" xlink:title="Coordinators" target="_top">
<polygon fill="#ffffff" stroke="transparent" points="419,-173.6102 419,-234.6102 533,-234.6102 533,-173.6102 419,-173.6102"/>
<polygon fill="#f5f5f5" stroke="transparent" points="419,-211.1102 419,-234.1102 533,-234.1102 533,-211.1102 419,-211.1102"/>
<polygon fill="none" stroke="#000000" points="419,-211.1102 419,-234.1102 533,-234.1102 533,-211.1102 419,-211.1102"/>
<text text-anchor="start" x="424" y="-219.7102" font-family="Helvetica,sans-Serif" font-weight="bold" font-size="11.00" fill="#000000">Coordinators</text>
<text text-anchor="start" x="498.5219" y="-219.2102" font-family="Helvetica,sans-Serif" font-size="11.00" fill="#000000">[table]</text>
<polygon fill="none" stroke="#000000" points="419,-192.1102 419,-211.1102 533,-211.1102 533,-192.1102 419,-192.1102"/>
<text text-anchor="start" x="422" y="-198.2102" font-family="Helvetica,sans-Serif" font-size="11.00" fill="#000000">...</text>
<polygon fill="#ffffff" stroke="transparent" points="419,-173.1102 419,-192.1102 461,-192.1102 461,-173.1102 419,-173.1102"/>
<polygon fill="none" stroke="#000000" points="419,-173.1102 419,-192.1102 461,-192.1102 461,-173.1102 419,-173.1102"/>
<text text-anchor="start" x="422" y="-179.2102" font-family="Helvetica,sans-Serif" font-size="11.00" fill="#000000">&lt; 2</text>
<polygon fill="#ffffff" stroke="transparent" points="461,-173.1102 461,-192.1102 510,-192.1102 510,-173.1102 461,-173.1102"/>
<polygon fill="none" stroke="#000000" points="461,-173.1102 461,-192.1102 510,-192.1102 510,-173.1102 461,-173.1102"/>
<text text-anchor="start" x="474.6105" y="-179.2102" font-family="Helvetica,sans-Serif" font-size="11.00" fill="#000000">0 rows</text>
<polygon fill="#ffffff" stroke="transparent" points="510,-173.1102 510,-192.1102 533,-192.1102 533,-173.1102 510,-173.1102"/>
<polygon fill="none" stroke="#000000" points="510,-173.1102 510,-192.1102 533,-192.1102 533,-173.1102 510,-173.1102"/>
<text text-anchor="start" x="523.8862" y="-179.2102" font-family="Helvetica,sans-Serif" font-size="11.00" fill="#000000"> &#160;</text>
</a>
</g>
</g>
<!-- Coordinators&#45;&gt;AspNetUsers -->
<g id="edge11" class="edge">
<title>Coordinators:w&#45;&gt;AspNetUsers:e</title>
<path fill="none" stroke="#000000" d="M408.5761,-201.0561C299.0774,-199.9385 246.3669,-182.6361 163,-259.1102 122.2347,-296.505 85.9724,-459.3134 71.5808,-531.4678"/>
<polygon fill="#000000" stroke="#000000" points="418.2208,-197.1061 418.1792,-205.1059 416.5793,-205.0976 416.6208,-197.0978 418.2208,-197.1061"/>
<polyline fill="none" stroke="#000000" points="419,-201.1102 415.0001,-201.0894 "/>
<ellipse fill="none" stroke="#000000" cx="411.8001" cy="-201.0728" rx="3.2" ry="3.2"/>
</g>
<!-- TechnicalCareers -->
<g id="node9" class="node">
<title>TechnicalCareers</title>
<g id="a_node9"><a xlink:href="../../tables/TechnicalCareers.html" xlink:title="TechnicalCareers" target="_top">
<polygon fill="#ffffff" stroke="transparent" points="176,-313.6102 176,-374.6102 315,-374.6102 315,-313.6102 176,-313.6102"/>
<polygon fill="#f5f5f5" stroke="transparent" points="176.5,-351.1102 176.5,-374.1102 315.5,-374.1102 315.5,-351.1102 176.5,-351.1102"/>
<polygon fill="none" stroke="#000000" points="176.5,-351.1102 176.5,-374.1102 315.5,-374.1102 315.5,-351.1102 176.5,-351.1102"/>
<text text-anchor="start" x="181.5" y="-359.7102" font-family="Helvetica,sans-Serif" font-weight="bold" font-size="11.00" fill="#000000">TechnicalCareers</text>
<text text-anchor="start" x="281.0219" y="-359.2102" font-family="Helvetica,sans-Serif" font-size="11.00" fill="#000000">[table]</text>
<polygon fill="none" stroke="#000000" points="176.5,-332.1102 176.5,-351.1102 315.5,-351.1102 315.5,-332.1102 176.5,-332.1102"/>
<text text-anchor="start" x="179.5" y="-338.2102" font-family="Helvetica,sans-Serif" font-size="11.00" fill="#000000">...</text>
<polygon fill="#ffffff" stroke="transparent" points="176.5,-313.1102 176.5,-332.1102 226.5,-332.1102 226.5,-313.1102 176.5,-313.1102"/>
<polygon fill="none" stroke="#000000" points="176.5,-313.1102 176.5,-332.1102 226.5,-332.1102 226.5,-313.1102 176.5,-313.1102"/>
<text text-anchor="start" x="179.5" y="-319.2102" font-family="Helvetica,sans-Serif" font-size="11.00" fill="#000000">&lt; 2</text>
<polygon fill="#ffffff" stroke="transparent" points="226.5,-313.1102 226.5,-332.1102 279.5,-332.1102 279.5,-313.1102 226.5,-313.1102"/>
<polygon fill="none" stroke="#000000" points="226.5,-313.1102 226.5,-332.1102 279.5,-332.1102 279.5,-313.1102 226.5,-313.1102"/>
<text text-anchor="start" x="244.1105" y="-319.2102" font-family="Helvetica,sans-Serif" font-size="11.00" fill="#000000">6 rows</text>
<polygon fill="#ffffff" stroke="transparent" points="279.5,-313.1102 279.5,-332.1102 315.5,-332.1102 315.5,-313.1102 279.5,-313.1102"/>
<polygon fill="none" stroke="#000000" points="279.5,-313.1102 279.5,-332.1102 315.5,-332.1102 315.5,-313.1102 279.5,-313.1102"/>
<text text-anchor="start" x="296.9053" y="-319.2102" font-family="Helvetica,sans-Serif" font-size="11.00" fill="#000000">6 &gt;</text>
</a>
</g>
</g>
<!-- Coordinators&#45;&gt;TechnicalCareers -->
<g id="edge10" class="edge">
<title>Coordinators:w&#45;&gt;TechnicalCareers:e</title>
<path fill="none" stroke="#000000" d="M404.5046,-202.7196C384.3938,-207.7861 377.8942,-224.3123 361,-245.1102 331.23,-281.7589 362.7163,-341.1102 315.5,-341.1102"/>
<polygon fill="#000000" stroke="#000000" points="411.0489,-201.993 419.3973,-204.6882 415.0244,-201.5516 419,-201.1102 419,-201.1102 419,-201.1102 415.0244,-201.5516 418.6027,-197.5321 411.0489,-201.993 411.0489,-201.993"/>
<ellipse fill="none" stroke="#000000" cx="407.8684" cy="-202.3462" rx="3.2" ry="3.2"/>
</g>
<!-- TechnicalCareers&#45;&gt;AspNetUsers -->
<g id="edge48" class="edge">
<title>TechnicalCareers:w&#45;&gt;AspNetUsers:e</title>
<path fill="none" stroke="#000000" d="M162.0192,-344.4683C124.4314,-365.3 89.1144,-474.6106 73.4629,-531.5949"/>
<polygon fill="#000000" stroke="#000000" points="168.7068,-342.9175 177.3133,-344.6171 172.6034,-342.0138 176.5,-341.1102 176.5,-341.1102 176.5,-341.1102 172.6034,-342.0138 175.6867,-337.6032 168.7068,-342.9175 168.7068,-342.9175"/>
<ellipse fill="none" stroke="#000000" cx="165.5895" cy="-343.6404" rx="3.2" ry="3.2"/>
</g>
<!-- TechnicalCareers&#45;&gt;AspNetUsers -->
<g id="edge49" class="edge">
<title>TechnicalCareers:w&#45;&gt;AspNetUsers:e</title>
<path fill="none" stroke="#000000" d="M163.0487,-346.8082C126.7014,-372.5119 92.3248,-476.3835 75.5976,-531.5084"/>
<polygon fill="#000000" stroke="#000000" points="169.1337,-344.2306 177.9042,-344.425 172.8168,-342.6704 176.5,-341.1102 176.5,-341.1102 176.5,-341.1102 172.8168,-342.6704 175.0958,-337.7953 169.1337,-344.2306 169.1337,-344.2306"/>
<ellipse fill="none" stroke="#000000" cx="166.1871" cy="-345.4788" rx="3.2" ry="3.2"/>
</g>
<!-- EvaluationPeriods -->
<g id="node10" class="node">
<title>EvaluationPeriods</title>
<g id="a_node10"><a xlink:href="../../tables/EvaluationPeriods.html" xlink:title="EvaluationPeriods" target="_top">
<polygon fill="#ffffff" stroke="transparent" points="404.5,-365.6102 404.5,-426.6102 547.5,-426.6102 547.5,-365.6102 404.5,-365.6102"/>
<polygon fill="#f5f5f5" stroke="transparent" points="405,-403.1102 405,-426.1102 548,-426.1102 548,-403.1102 405,-403.1102"/>
<polygon fill="none" stroke="#000000" points="405,-403.1102 405,-426.1102 548,-426.1102 548,-403.1102 405,-403.1102"/>
<text text-anchor="start" x="410" y="-411.7102" font-family="Helvetica,sans-Serif" font-weight="bold" font-size="11.00" fill="#000000">EvaluationPeriods</text>
<text text-anchor="start" x="513.5219" y="-411.2102" font-family="Helvetica,sans-Serif" font-size="11.00" fill="#000000">[table]</text>
<polygon fill="none" stroke="#000000" points="405,-384.1102 405,-403.1102 548,-403.1102 548,-384.1102 405,-384.1102"/>
<text text-anchor="start" x="408" y="-390.2102" font-family="Helvetica,sans-Serif" font-size="11.00" fill="#000000">...</text>
<polygon fill="#ffffff" stroke="transparent" points="405,-365.1102 405,-384.1102 457,-384.1102 457,-365.1102 405,-365.1102"/>
<polygon fill="none" stroke="#000000" points="405,-365.1102 405,-384.1102 457,-384.1102 457,-365.1102 405,-365.1102"/>
<text text-anchor="start" x="408" y="-371.2102" font-family="Helvetica,sans-Serif" font-size="11.00" fill="#000000">&lt; 2</text>
<polygon fill="#ffffff" stroke="transparent" points="457,-365.1102 457,-384.1102 511,-384.1102 511,-365.1102 457,-365.1102"/>
<polygon fill="none" stroke="#000000" points="457,-365.1102 457,-384.1102 511,-384.1102 511,-365.1102 457,-365.1102"/>
<text text-anchor="start" x="475.6105" y="-371.2102" font-family="Helvetica,sans-Serif" font-size="11.00" fill="#000000">0 rows</text>
<polygon fill="#ffffff" stroke="transparent" points="511,-365.1102 511,-384.1102 548,-384.1102 548,-365.1102 511,-365.1102"/>
<polygon fill="none" stroke="#000000" points="511,-365.1102 511,-384.1102 548,-384.1102 548,-365.1102 511,-365.1102"/>
<text text-anchor="start" x="529.4053" y="-371.2102" font-family="Helvetica,sans-Serif" font-size="11.00" fill="#000000">3 &gt;</text>
</a>
</g>
</g>
<!-- EvaluationPeriods&#45;&gt;AspNetUsers -->
<g id="edge12" class="edge">
<title>EvaluationPeriods:w&#45;&gt;AspNetUsers:e</title>
<path fill="none" stroke="#000000" d="M390.3468,-392.2635C291.7336,-386.3034 252.0766,-379.3999 163,-434.1102 125.2173,-457.316 96.3817,-500.7333 80.0682,-531.4978"/>
<polygon fill="#000000" stroke="#000000" points="397.0133,-392.6486 404.7923,-396.7042 401.0067,-392.8794 405,-393.1102 405,-393.1102 405,-393.1102 401.0067,-392.8794 405.2077,-389.5162 397.0133,-392.6486 397.0133,-392.6486"/>
<ellipse fill="none" stroke="#000000" cx="393.8186" cy="-392.464" rx="3.2" ry="3.2"/>
</g>
<!-- EvaluationPeriods&#45;&gt;AspNetUsers -->
<g id="edge13" class="edge">
<title>EvaluationPeriods:w&#45;&gt;AspNetUsers:e</title>
<path fill="none" stroke="#000000" d="M390.3468,-393.9726C291.7336,-399.3034 252.0766,-392.3999 163,-447.1102 129.4678,-467.7054 102.9829,-504.2202 86.0444,-531.4625"/>
<polygon fill="#000000" stroke="#000000" points="397.0138,-393.5803 405.2116,-396.7039 401.0069,-393.3452 405,-393.1102 405,-393.1102 405,-393.1102 401.0069,-393.3452 404.7884,-389.5164 397.0138,-393.5803 397.0138,-393.5803"/>
<ellipse fill="none" stroke="#000000" cx="393.8194" cy="-393.7683" rx="3.2" ry="3.2"/>
</g>
<!-- FormQuestions -->
<g id="node11" class="node">
<title>FormQuestions</title>
<g id="a_node11"><a xlink:href="../../tables/FormQuestions.html" xlink:title="FormQuestions" target="_top">
<polygon fill="#ffffff" stroke="transparent" points="412.5,-635.6102 412.5,-696.6102 539.5,-696.6102 539.5,-635.6102 412.5,-635.6102"/>
<polygon fill="#f5f5f5" stroke="transparent" points="413,-673.1102 413,-696.1102 540,-696.1102 540,-673.1102 413,-673.1102"/>
<polygon fill="none" stroke="#000000" points="413,-673.1102 413,-696.1102 540,-696.1102 540,-673.1102 413,-673.1102"/>
<text text-anchor="start" x="418" y="-681.7102" font-family="Helvetica,sans-Serif" font-weight="bold" font-size="11.00" fill="#000000">FormQuestions</text>
<text text-anchor="start" x="505.5219" y="-681.2102" font-family="Helvetica,sans-Serif" font-size="11.00" fill="#000000">[table]</text>
<polygon fill="none" stroke="#000000" points="413,-654.1102 413,-673.1102 540,-673.1102 540,-654.1102 413,-654.1102"/>
<text text-anchor="start" x="416" y="-660.2102" font-family="Helvetica,sans-Serif" font-size="11.00" fill="#000000">...</text>
<polygon fill="#ffffff" stroke="transparent" points="413,-635.1102 413,-654.1102 457,-654.1102 457,-635.1102 413,-635.1102"/>
<polygon fill="none" stroke="#000000" points="413,-635.1102 413,-654.1102 457,-654.1102 457,-635.1102 413,-635.1102"/>
<text text-anchor="start" x="416" y="-641.2102" font-family="Helvetica,sans-Serif" font-size="11.00" fill="#000000">&lt; 3</text>
<polygon fill="#ffffff" stroke="transparent" points="457,-635.1102 457,-654.1102 507,-654.1102 507,-635.1102 457,-635.1102"/>
<polygon fill="none" stroke="#000000" points="457,-635.1102 457,-654.1102 507,-654.1102 507,-635.1102 457,-635.1102"/>
<text text-anchor="start" x="471.6105" y="-641.2102" font-family="Helvetica,sans-Serif" font-size="11.00" fill="#000000">0 rows</text>
<polygon fill="#ffffff" stroke="transparent" points="507,-635.1102 507,-654.1102 540,-654.1102 540,-635.1102 507,-635.1102"/>
<polygon fill="none" stroke="#000000" points="507,-635.1102 507,-654.1102 540,-654.1102 540,-635.1102 507,-635.1102"/>
<text text-anchor="start" x="521.4053" y="-641.2102" font-family="Helvetica,sans-Serif" font-size="11.00" fill="#000000">1 &gt;</text>
</a>
</g>
</g>
<!-- FormQuestions&#45;&gt;AspNetUsers -->
<g id="edge15" class="edge">
<title>FormQuestions:w&#45;&gt;AspNetUsers:e</title>
<path fill="none" stroke="#000000" d="M398.6057,-662.3247C297.4556,-656.6476 264.5889,-650.924 163,-615.1102 151.9598,-611.2181 140.7114,-606.1292 129.9589,-600.6955"/>
<polygon fill="#000000" stroke="#000000" points="405.0119,-662.6742 412.8038,-666.7048 409.0059,-662.8922 413,-663.1102 413,-663.1102 413,-663.1102 409.0059,-662.8922 413.1962,-659.5155 405.0119,-662.6742 405.0119,-662.6742"/>
<ellipse fill="none" stroke="#000000" cx="401.8166" cy="-662.4998" rx="3.2" ry="3.2"/>
</g>
<!-- FormQuestions&#45;&gt;AspNetUsers -->
<g id="edge16" class="edge">
<title>FormQuestions:w&#45;&gt;AspNetUsers:e</title>
<path fill="none" stroke="#000000" d="M398.6057,-663.9643C297.4556,-669.6476 264.5889,-663.924 163,-628.1102 143.8637,-621.3639 124.1018,-611.0218 107.3809,-600.6496"/>
<polygon fill="#000000" stroke="#000000" points="405.014,-663.5841 413.2133,-666.7038 409.007,-663.3471 413,-663.1102 413,-663.1102 413,-663.1102 409.007,-663.3471 412.7867,-659.5165 405.014,-663.5841 405.014,-663.5841"/>
<ellipse fill="none" stroke="#000000" cx="401.8197" cy="-663.7737" rx="3.2" ry="3.2"/>
</g>
<!-- FormQuestions&#45;&gt;Competencies -->
<g id="edge14" class="edge">
<title>FormQuestions:w&#45;&gt;Competencies:e</title>
<path fill="none" stroke="#000000" d="M398.4383,-664.3201C360.896,-670.9029 351.5908,-702.1102 306.5,-702.1102"/>
<polygon fill="#000000" stroke="#000000" points="405.0275,-663.7727 413.2981,-666.6978 409.0137,-663.4414 413,-663.1102 413,-663.1102 413,-663.1102 409.0137,-663.4414 412.7019,-659.5225 405.0275,-663.7727 405.0275,-663.7727"/>
<ellipse fill="none" stroke="#000000" cx="401.8385" cy="-664.0377" rx="3.2" ry="3.2"/>
</g>
<!-- ProfessorCompetencyAssignments -->
<g id="node12" class="node">
<title>ProfessorCompetencyAssignments</title>
<g id="a_node12"><a xlink:href="../../tables/ProfessorCompetencyAssignments.html" xlink:title="ProfessorCompetencyAssignments" target="_top">
<polygon fill="#ffffff" stroke="transparent" points="632,-509.6102 632,-570.6102 874,-570.6102 874,-509.6102 632,-509.6102"/>
<polygon fill="#f5f5f5" stroke="transparent" points="632,-547.1102 632,-570.1102 874,-570.1102 874,-547.1102 632,-547.1102"/>
<polygon fill="none" stroke="#000000" points="632,-547.1102 632,-570.1102 874,-570.1102 874,-547.1102 632,-547.1102"/>
<text text-anchor="start" x="637" y="-555.7102" font-family="Helvetica,sans-Serif" font-weight="bold" font-size="11.00" fill="#000000">ProfessorCompetencyAssignments</text>
<text text-anchor="start" x="839.5219" y="-555.2102" font-family="Helvetica,sans-Serif" font-size="11.00" fill="#000000">[table]</text>
<polygon fill="none" stroke="#000000" points="632,-528.1102 632,-547.1102 874,-547.1102 874,-528.1102 632,-528.1102"/>
<text text-anchor="start" x="635" y="-534.2102" font-family="Helvetica,sans-Serif" font-size="11.00" fill="#000000">...</text>
<polygon fill="#ffffff" stroke="transparent" points="632,-509.1102 632,-528.1102 734,-528.1102 734,-509.1102 632,-509.1102"/>
<polygon fill="none" stroke="#000000" points="632,-509.1102 632,-528.1102 734,-528.1102 734,-509.1102 632,-509.1102"/>
<text text-anchor="start" x="635" y="-515.2102" font-family="Helvetica,sans-Serif" font-size="11.00" fill="#000000">&lt; 7</text>
<polygon fill="#ffffff" stroke="transparent" points="734,-509.1102 734,-528.1102 812,-528.1102 812,-509.1102 734,-509.1102"/>
<polygon fill="none" stroke="#000000" points="734,-509.1102 734,-528.1102 812,-528.1102 812,-509.1102 734,-509.1102"/>
<text text-anchor="start" x="776.6105" y="-515.2102" font-family="Helvetica,sans-Serif" font-size="11.00" fill="#000000">0 rows</text>
<polygon fill="#ffffff" stroke="transparent" points="812,-509.1102 812,-528.1102 874,-528.1102 874,-509.1102 812,-509.1102"/>
<polygon fill="none" stroke="#000000" points="812,-509.1102 812,-528.1102 874,-528.1102 874,-509.1102 812,-509.1102"/>
<text text-anchor="start" x="855.4053" y="-515.2102" font-family="Helvetica,sans-Serif" font-size="11.00" fill="#000000">1 &gt;</text>
</a>
</g>
</g>
<!-- ProfessorCompetencyAssignments&#45;&gt;AspNetUsers -->
<g id="edge18" class="edge">
<title>ProfessorCompetencyAssignments:w&#45;&gt;AspNetUsers:e</title>
<path fill="none" stroke="#000000" d="M617.4851,-536.2977C549.551,-536.2768 261.1459,-550.6047 130.1774,-559.749"/>
<polygon fill="#000000" stroke="#000000" points="624.0125,-536.663 631.7988,-540.7045 628.0063,-536.8866 632,-537.1102 632,-537.1102 632,-537.1102 628.0063,-536.8866 632.2012,-533.5158 624.0125,-536.663 624.0125,-536.663"/>
<ellipse fill="none" stroke="#000000" cx="620.8175" cy="-536.4841" rx="3.2" ry="3.2"/>
</g>
<!-- ProfessorCompetencyAssignments&#45;&gt;AspNetUsers -->
<g id="edge23" class="edge">
<title>ProfessorCompetencyAssignments:w&#45;&gt;AspNetUsers:e</title>
<path fill="none" stroke="#000000" d="M617.4851,-539.5668C549.551,-546.9199 261.1459,-562.3292 130.1774,-566.2623"/>
<polygon fill="#000000" stroke="#000000" points="624.1122,-538.4452 632.6008,-540.6597 628.0561,-537.7777 632,-537.1102 632,-537.1102 632,-537.1102 628.0561,-537.7777 631.3992,-533.5606 624.1122,-538.4452 624.1122,-538.4452"/>
<ellipse fill="none" stroke="#000000" cx="620.9571" cy="-538.9793" rx="3.2" ry="3.2"/>
</g>
<!-- ProfessorCompetencyAssignments&#45;&gt;Competencies -->
<g id="edge17" class="edge">
<title>ProfessorCompetencyAssignments:w&#45;&gt;Competencies:e</title>
<path fill="none" stroke="#000000" d="M617.4583,-539.0448C567.9178,-554.8002 647.5294,-662.5935 591,-707.1102 491.6451,-785.3517 432.964,-702.1102 306.5,-702.1102"/>
<polygon fill="#000000" stroke="#000000" points="624.0699,-538.1652 632.4748,-540.6787 628.0349,-537.6377 632,-537.1102 632,-537.1102 632,-537.1102 628.0349,-537.6377 631.5252,-533.5416 624.0699,-538.1652 624.0699,-538.1652"/>
<ellipse fill="none" stroke="#000000" cx="620.8978" cy="-538.5873" rx="3.2" ry="3.2"/>
</g>
<!-- ProfessorCompetencyAssignments&#45;&gt;TechnicalCareers -->
<g id="edge22" class="edge">
<title>ProfessorCompetencyAssignments:w&#45;&gt;TechnicalCareers:e</title>
<path fill="none" stroke="#000000" d="M617.5208,-535.3726C562.6965,-519.8815 650.0826,-404.8744 591,-355.1102 544.1141,-315.619 376.8012,-341.1102 315.5,-341.1102"/>
<polygon fill="#000000" stroke="#000000" points="624.057,-536.1569 631.571,-540.6845 628.0285,-536.6335 632,-537.1102 632,-537.1102 632,-537.1102 628.0285,-536.6335 632.429,-533.5358 624.057,-536.1569 624.057,-536.1569"/>
<ellipse fill="none" stroke="#000000" cx="620.8798" cy="-535.7756" rx="3.2" ry="3.2"/>
</g>
<!-- ProfessorCompetencyAssignments&#45;&gt;EvaluationPeriods -->
<g id="edge19" class="edge">
<title>ProfessorCompetencyAssignments:w&#45;&gt;EvaluationPeriods:e</title>
<path fill="none" stroke="#000000" d="M617.5292,-534.4596C591.3855,-522.4533 614.0865,-472.2326 591,-437.1102 575.9809,-414.261 575.3433,-393.1102 548,-393.1102"/>
<polygon fill="#000000" stroke="#000000" points="624.1309,-535.6688 631.3514,-540.6512 628.0655,-536.3895 632,-537.1102 632,-537.1102 632,-537.1102 628.0655,-536.3895 632.6486,-533.5691 624.1309,-535.6688 624.1309,-535.6688"/>
<ellipse fill="none" stroke="#000000" cx="620.9833" cy="-535.0922" rx="3.2" ry="3.2"/>
</g>
<!-- Professors -->
<g id="node13" class="node">
<title>Professors</title>
<g id="a_node13"><a xlink:href="../../tables/Professors.html" xlink:title="Professors" target="_top">
<polygon fill="#ffffff" stroke="transparent" points="195,-474.6102 195,-535.6102 296,-535.6102 296,-474.6102 195,-474.6102"/>
<polygon fill="#f5f5f5" stroke="transparent" points="195.5,-512.1102 195.5,-535.1102 296.5,-535.1102 296.5,-512.1102 195.5,-512.1102"/>
<polygon fill="none" stroke="#000000" points="195.5,-512.1102 195.5,-535.1102 296.5,-535.1102 296.5,-512.1102 195.5,-512.1102"/>
<text text-anchor="start" x="200.5" y="-520.7102" font-family="Helvetica,sans-Serif" font-weight="bold" font-size="11.00" fill="#000000">Professors</text>
<text text-anchor="start" x="262.0219" y="-520.2102" font-family="Helvetica,sans-Serif" font-size="11.00" fill="#000000">[table]</text>
<polygon fill="none" stroke="#000000" points="195.5,-493.1102 195.5,-512.1102 296.5,-512.1102 296.5,-493.1102 195.5,-493.1102"/>
<text text-anchor="start" x="198.5" y="-499.2102" font-family="Helvetica,sans-Serif" font-size="11.00" fill="#000000">...</text>
<polygon fill="#ffffff" stroke="transparent" points="195.5,-474.1102 195.5,-493.1102 226.5,-493.1102 226.5,-474.1102 195.5,-474.1102"/>
<polygon fill="none" stroke="#000000" points="195.5,-474.1102 195.5,-493.1102 226.5,-493.1102 226.5,-474.1102 195.5,-474.1102"/>
<text text-anchor="start" x="198.5" y="-480.2102" font-family="Helvetica,sans-Serif" font-size="11.00" fill="#000000">&lt; 1</text>
<polygon fill="#ffffff" stroke="transparent" points="226.5,-474.1102 226.5,-493.1102 269.5,-493.1102 269.5,-474.1102 226.5,-474.1102"/>
<polygon fill="none" stroke="#000000" points="226.5,-474.1102 226.5,-493.1102 269.5,-493.1102 269.5,-474.1102 226.5,-474.1102"/>
<text text-anchor="start" x="234.1105" y="-480.2102" font-family="Helvetica,sans-Serif" font-size="11.00" fill="#000000">0 rows</text>
<polygon fill="#ffffff" stroke="transparent" points="269.5,-474.1102 269.5,-493.1102 296.5,-493.1102 296.5,-474.1102 269.5,-474.1102"/>
<polygon fill="none" stroke="#000000" points="269.5,-474.1102 269.5,-493.1102 296.5,-493.1102 296.5,-474.1102 269.5,-474.1102"/>
<text text-anchor="start" x="277.9053" y="-480.2102" font-family="Helvetica,sans-Serif" font-size="11.00" fill="#000000">2 &gt;</text>
</a>
</g>
</g>
<!-- ProfessorCompetencyAssignments&#45;&gt;Professors -->
<g id="edge20" class="edge">
<title>ProfessorCompetencyAssignments:w&#45;&gt;Professors:e</title>
<path fill="none" stroke="#000000" d="M617.5867,-537.116C508.586,-537.1956 475.2429,-537.7828 361,-519.1102 331.7426,-514.3281 326.1456,-502.1102 296.5,-502.1102"/>
<polygon fill="#000000" stroke="#000000" points="624,-537.1135 632.0015,-540.7102 628,-537.1118 632,-537.1102 632,-537.1102 632,-537.1102 628,-537.1118 631.9985,-533.5102 624,-537.1135 624,-537.1135"/>
<ellipse fill="none" stroke="#000000" cx="620.8" cy="-537.1148" rx="3.2" ry="3.2"/>
</g>
<!-- Subjects -->
<g id="node14" class="node">
<title>Subjects</title>
<g id="a_node14"><a xlink:href="../../tables/Subjects.html" xlink:title="Subjects" target="_top">
<polygon fill="#ffffff" stroke="transparent" points="431.5,-447.6102 431.5,-508.6102 520.5,-508.6102 520.5,-447.6102 431.5,-447.6102"/>
<polygon fill="#f5f5f5" stroke="transparent" points="432,-485.1102 432,-508.1102 521,-508.1102 521,-485.1102 432,-485.1102"/>
<polygon fill="none" stroke="#000000" points="432,-485.1102 432,-508.1102 521,-508.1102 521,-485.1102 432,-485.1102"/>
<text text-anchor="start" x="437" y="-493.7102" font-family="Helvetica,sans-Serif" font-weight="bold" font-size="11.00" fill="#000000">Subjects</text>
<text text-anchor="start" x="486.5219" y="-493.2102" font-family="Helvetica,sans-Serif" font-size="11.00" fill="#000000">[table]</text>
<polygon fill="none" stroke="#000000" points="432,-466.1102 432,-485.1102 521,-485.1102 521,-466.1102 432,-466.1102"/>
<text text-anchor="start" x="435" y="-472.2102" font-family="Helvetica,sans-Serif" font-size="11.00" fill="#000000">...</text>
<polygon fill="#ffffff" stroke="transparent" points="432,-447.1102 432,-466.1102 457,-466.1102 457,-447.1102 432,-447.1102"/>
<polygon fill="none" stroke="#000000" points="432,-447.1102 432,-466.1102 457,-466.1102 457,-447.1102 432,-447.1102"/>
<text text-anchor="start" x="435" y="-453.2102" font-family="Helvetica,sans-Serif" font-size="11.00" fill="#000000">&lt; 4</text>
<polygon fill="#ffffff" stroke="transparent" points="457,-447.1102 457,-466.1102 497,-466.1102 497,-447.1102 457,-447.1102"/>
<polygon fill="none" stroke="#000000" points="457,-447.1102 457,-466.1102 497,-466.1102 497,-447.1102 457,-447.1102"/>
<text text-anchor="start" x="461.6105" y="-453.2102" font-family="Helvetica,sans-Serif" font-size="11.00" fill="#000000">0 rows</text>
<polygon fill="#ffffff" stroke="transparent" points="497,-447.1102 497,-466.1102 521,-466.1102 521,-447.1102 497,-447.1102"/>
<polygon fill="none" stroke="#000000" points="497,-447.1102 497,-466.1102 521,-466.1102 521,-447.1102 497,-447.1102"/>
<text text-anchor="start" x="502.4053" y="-453.2102" font-family="Helvetica,sans-Serif" font-size="11.00" fill="#000000">3 &gt;</text>
</a>
</g>
</g>
<!-- ProfessorCompetencyAssignments&#45;&gt;Subjects -->
<g id="edge21" class="edge">
<title>ProfessorCompetencyAssignments:w&#45;&gt;Subjects:e</title>
<path fill="none" stroke="#000000" d="M618.09,-532.4694C598.1115,-525.2161 560.3709,-510.7613 528.8048,-498.5799"/>
<polygon fill="#000000" stroke="#000000" points="624.4112,-534.5783 630.8607,-540.5251 628.2056,-535.8442 632,-537.1102 632,-537.1102 632,-537.1102 628.2056,-535.8442 633.1393,-533.6952 624.4112,-534.5783 624.4112,-534.5783"/>
<ellipse fill="none" stroke="#000000" cx="621.3757" cy="-533.5655" rx="3.2" ry="3.2"/>
</g>
<!-- Professors&#45;&gt;AspNetUsers -->
<g id="edge24" class="edge">
<title>Professors:w&#45;&gt;AspNetUsers:e</title>
<path fill="none" stroke="#000000" d="M184.7651,-502.6775C157.8358,-505.472 131.328,-518.1752 110.124,-531.4878"/>
<polygon fill="#000000" stroke="#000000" points="194.49,-498.158 194.9122,-506.1468 193.3145,-506.2313 192.8922,-498.2424 194.49,-498.158"/>
<polyline fill="none" stroke="#000000" points="195.5,-502.1102 191.5056,-502.3213 "/>
<ellipse fill="none" stroke="#000000" cx="188.31" cy="-502.4902" rx="3.2" ry="3.2"/>
</g>
<!-- Subjects&#45;&gt;AspNetUsers -->
<g id="edge44" class="edge">
<title>Subjects:w&#45;&gt;AspNetUsers:e</title>
<path fill="none" stroke="#000000" d="M409.1968,-454.362C343.714,-437.7814 242.441,-424.2701 163,-458.1102 128.7719,-472.6905 100.734,-505.7365 83.5472,-531.5294"/>
<polygon fill="#000000" stroke="#000000" points="415.6858,-456.0942 422.4866,-461.6358 419.5504,-457.1259 423.4151,-458.1576 423.4151,-458.1576 423.4151,-458.1576 419.5504,-457.1259 424.3436,-454.6793 415.6858,-456.0942 415.6858,-456.0942"/>
<ellipse fill="none" stroke="#000000" cx="412.594" cy="-455.2689" rx="3.2" ry="3.2"/>
</g>
<!-- Subjects&#45;&gt;AspNetUsers -->
<g id="edge47" class="edge">
<title>Subjects:w&#45;&gt;AspNetUsers:e</title>
<path fill="none" stroke="#000000" d="M409.1968,-464.2624C343.714,-450.7814 242.441,-437.2701 163,-471.1102 133.6293,-483.6214 108.8166,-509.729 91.5066,-531.4812"/>
<polygon fill="#000000" stroke="#000000" points="415.5917,-465.6286 422.6629,-470.8206 419.5034,-466.4643 423.4151,-467.3001 423.4151,-467.3001 423.4151,-467.3001 419.5034,-466.4643 424.1673,-463.7795 415.5917,-465.6286 415.5917,-465.6286"/>
<ellipse fill="none" stroke="#000000" cx="412.4623" cy="-464.96" rx="3.2" ry="3.2"/>
</g>
<!-- Subjects&#45;&gt;TechnicalCareers -->
<g id="edge46" class="edge">
<title>Subjects:w&#45;&gt;TechnicalCareers:e</title>
<path fill="none" stroke="#000000" d="M409.5762,-464.2284C392.2556,-458.1379 374.6438,-449.452 361,-437.1102 325.9841,-405.4357 362.7163,-341.1102 315.5,-341.1102"/>
<polygon fill="#000000" stroke="#000000" points="415.6957,-466.1639 422.2375,-472.0089 419.5094,-467.3702 423.3232,-468.5765 423.3232,-468.5765 423.3232,-468.5765 419.5094,-467.3702 424.4089,-465.1441 415.6957,-466.1639 415.6957,-466.1639"/>
<ellipse fill="none" stroke="#000000" cx="412.6446" cy="-465.1989" rx="3.2" ry="3.2"/>
</g>
<!-- Subjects&#45;&gt;Professors -->
<g id="edge45" class="edge">
<title>Subjects:w&#45;&gt;Professors:e</title>
<path fill="none" stroke="#000000" d="M408.8641,-491.3871C375.2646,-496.9326 333.8841,-502.1102 296.5,-502.1102"/>
<polygon fill="#000000" stroke="#000000" points="415.3468,-490.2724 423.8412,-492.4645 419.289,-489.5945 423.2311,-488.9166 423.2311,-488.9166 423.2311,-488.9166 419.289,-489.5945 422.621,-485.3687 415.3468,-490.2724 415.3468,-490.2724"/>
<ellipse fill="none" stroke="#000000" cx="412.1931" cy="-490.8147" rx="3.2" ry="3.2"/>
</g>
<!-- QuestionResponses -->
<g id="node15" class="node">
<title>QuestionResponses</title>
<g id="a_node15"><a xlink:href="../../tables/QuestionResponses.html" xlink:title="QuestionResponses" target="_top">
<polygon fill="#ffffff" stroke="transparent" points="1195,-701.6102 1195,-762.6102 1350,-762.6102 1350,-701.6102 1195,-701.6102"/>
<polygon fill="#f5f5f5" stroke="transparent" points="1195.5,-739.1102 1195.5,-762.1102 1350.5,-762.1102 1350.5,-739.1102 1195.5,-739.1102"/>
<polygon fill="none" stroke="#000000" points="1195.5,-739.1102 1195.5,-762.1102 1350.5,-762.1102 1350.5,-739.1102 1195.5,-739.1102"/>
<text text-anchor="start" x="1200.5" y="-747.7102" font-family="Helvetica,sans-Serif" font-weight="bold" font-size="11.00" fill="#000000">QuestionResponses</text>
<text text-anchor="start" x="1316.0219" y="-747.2102" font-family="Helvetica,sans-Serif" font-size="11.00" fill="#000000">[table]</text>
<polygon fill="none" stroke="#000000" points="1195.5,-720.1102 1195.5,-739.1102 1350.5,-739.1102 1350.5,-720.1102 1195.5,-720.1102"/>
<text text-anchor="start" x="1198.5" y="-726.2102" font-family="Helvetica,sans-Serif" font-size="11.00" fill="#000000">...</text>
<polygon fill="#ffffff" stroke="transparent" points="1195.5,-701.1102 1195.5,-720.1102 1258.5,-720.1102 1258.5,-701.1102 1195.5,-701.1102"/>
<polygon fill="none" stroke="#000000" points="1195.5,-701.1102 1195.5,-720.1102 1258.5,-720.1102 1258.5,-701.1102 1195.5,-701.1102"/>
<text text-anchor="start" x="1198.5" y="-707.2102" font-family="Helvetica,sans-Serif" font-size="11.00" fill="#000000">&lt; 4</text>
<polygon fill="#ffffff" stroke="transparent" points="1258.5,-701.1102 1258.5,-720.1102 1317.5,-720.1102 1317.5,-701.1102 1258.5,-701.1102"/>
<polygon fill="none" stroke="#000000" points="1258.5,-701.1102 1258.5,-720.1102 1317.5,-720.1102 1317.5,-701.1102 1258.5,-701.1102"/>
<text text-anchor="start" x="1282.1105" y="-707.2102" font-family="Helvetica,sans-Serif" font-size="11.00" fill="#000000">0 rows</text>
<polygon fill="#ffffff" stroke="transparent" points="1317.5,-701.1102 1317.5,-720.1102 1350.5,-720.1102 1350.5,-701.1102 1317.5,-701.1102"/>
<polygon fill="none" stroke="#000000" points="1317.5,-701.1102 1317.5,-720.1102 1350.5,-720.1102 1350.5,-701.1102 1317.5,-701.1102"/>
<text text-anchor="start" x="1341.3862" y="-707.2102" font-family="Helvetica,sans-Serif" font-size="11.00" fill="#000000"> &#160;</text>
</a>
</g>
</g>
<!-- QuestionResponses&#45;&gt;AspNetUsers -->
<g id="edge25" class="edge">
<title>QuestionResponses:w&#45;&gt;AspNetUsers:e</title>
<path fill="none" stroke="#000000" d="M1180.8489,-728.7706C1024.0582,-728.2605 258.1723,-796.6577 163,-740.1102 111.9158,-709.758 85.7764,-642.4065 73.7756,-600.9103"/>
<polygon fill="#000000" stroke="#000000" points="1187.5021,-728.9247 1195.4166,-732.7092 1191.5011,-729.0174 1195.5,-729.1102 1195.5,-729.1102 1195.5,-729.1102 1191.5011,-729.0174 1195.5834,-725.5111 1187.5021,-728.9247 1187.5021,-728.9247"/>
<ellipse fill="none" stroke="#000000" cx="1184.303" cy="-728.8505" rx="3.2" ry="3.2"/>
</g>
<!-- QuestionResponses&#45;&gt;AspNetUsers -->
<g id="edge28" class="edge">
<title>QuestionResponses:w&#45;&gt;AspNetUsers:e</title>
<path fill="none" stroke="#000000" d="M1180.8489,-730.094C1024.0582,-741.2605 258.1723,-809.6577 163,-753.1102 108.2451,-720.577 82.1486,-645.5362 71.4036,-600.9447"/>
<polygon fill="#000000" stroke="#000000" points="1187.518,-729.6462 1195.7412,-732.7021 1191.509,-729.3782 1195.5,-729.1102 1195.5,-729.1102 1195.5,-729.1102 1191.509,-729.3782 1195.2588,-725.5182 1187.518,-729.6462 1187.518,-729.6462"/>
<ellipse fill="none" stroke="#000000" cx="1184.3252" cy="-729.8606" rx="3.2" ry="3.2"/>
</g>
<!-- QuestionResponses&#45;&gt;FormQuestions -->
<g id="edge26" class="edge">
<title>QuestionResponses:w&#45;&gt;FormQuestions:e</title>
<path fill="none" stroke="#000000" d="M1181.0991,-729.0562C900.3117,-726.9369 827.9453,-663.1102 540,-663.1102"/>
<polygon fill="#000000" stroke="#000000" points="1187.5001,-729.0801 1195.4865,-732.7101 1191.5,-729.0951 1195.5,-729.1102 1195.5,-729.1102 1195.5,-729.1102 1191.5,-729.0951 1195.5135,-725.5102 1187.5001,-729.0801 1187.5001,-729.0801"/>
<ellipse fill="none" stroke="#000000" cx="1184.3001" cy="-729.0681" rx="3.2" ry="3.2"/>
</g>
<!-- StudentCompetencyEvaluations -->
<g id="node16" class="node">
<title>StudentCompetencyEvaluations</title>
<g id="a_node16"><a xlink:href="../../tables/StudentCompetencyEvaluations.html" xlink:title="StudentCompetencyEvaluations" target="_top">
<polygon fill="#ffffff" stroke="transparent" points="923,-559.6102 923,-620.6102 1146,-620.6102 1146,-559.6102 923,-559.6102"/>
<polygon fill="#f5f5f5" stroke="transparent" points="923.5,-597.1102 923.5,-620.1102 1146.5,-620.1102 1146.5,-597.1102 923.5,-597.1102"/>
<polygon fill="none" stroke="#000000" points="923.5,-597.1102 923.5,-620.1102 1146.5,-620.1102 1146.5,-597.1102 923.5,-597.1102"/>
<text text-anchor="start" x="928.5" y="-605.7102" font-family="Helvetica,sans-Serif" font-weight="bold" font-size="11.00" fill="#000000">StudentCompetencyEvaluations</text>
<text text-anchor="start" x="1112.0219" y="-605.2102" font-family="Helvetica,sans-Serif" font-size="11.00" fill="#000000">[table]</text>
<polygon fill="none" stroke="#000000" points="923.5,-578.1102 923.5,-597.1102 1146.5,-597.1102 1146.5,-578.1102 923.5,-578.1102"/>
<text text-anchor="start" x="926.5" y="-584.2102" font-family="Helvetica,sans-Serif" font-size="11.00" fill="#000000">...</text>
<polygon fill="#ffffff" stroke="transparent" points="923.5,-559.1102 923.5,-578.1102 1015.5,-578.1102 1015.5,-559.1102 923.5,-559.1102"/>
<polygon fill="none" stroke="#000000" points="923.5,-559.1102 923.5,-578.1102 1015.5,-578.1102 1015.5,-559.1102 923.5,-559.1102"/>
<text text-anchor="start" x="926.5" y="-565.2102" font-family="Helvetica,sans-Serif" font-size="11.00" fill="#000000">&lt; 5</text>
<polygon fill="#ffffff" stroke="transparent" points="1015.5,-559.1102 1015.5,-578.1102 1089.5,-578.1102 1089.5,-559.1102 1015.5,-559.1102"/>
<polygon fill="none" stroke="#000000" points="1015.5,-559.1102 1015.5,-578.1102 1089.5,-578.1102 1089.5,-559.1102 1015.5,-559.1102"/>
<text text-anchor="start" x="1054.1105" y="-565.2102" font-family="Helvetica,sans-Serif" font-size="11.00" fill="#000000">0 rows</text>
<polygon fill="#ffffff" stroke="transparent" points="1089.5,-559.1102 1089.5,-578.1102 1146.5,-578.1102 1146.5,-559.1102 1089.5,-559.1102"/>
<polygon fill="none" stroke="#000000" points="1089.5,-559.1102 1089.5,-578.1102 1146.5,-578.1102 1146.5,-559.1102 1089.5,-559.1102"/>
<text text-anchor="start" x="1127.9053" y="-565.2102" font-family="Helvetica,sans-Serif" font-size="11.00" fill="#000000">1 &gt;</text>
</a>
</g>
</g>
<!-- QuestionResponses&#45;&gt;StudentCompetencyEvaluations -->
<g id="edge27" class="edge">
<title>QuestionResponses:w&#45;&gt;StudentCompetencyEvaluations:e</title>
<path fill="none" stroke="#000000" d="M1180.9494,-725.8775C1142.7041,-704.7407 1207.2647,-587.1102 1146.5,-587.1102"/>
<polygon fill="#000000" stroke="#000000" points="1187.6904,-727.3751 1194.7192,-732.6245 1191.5952,-728.2426 1195.5,-729.1102 1195.5,-729.1102 1195.5,-729.1102 1191.5952,-728.2426 1196.2808,-725.5958 1187.6904,-727.3751 1187.6904,-727.3751"/>
<ellipse fill="none" stroke="#000000" cx="1184.5666" cy="-726.681" rx="3.2" ry="3.2"/>
</g>
<!-- StudentCompetencyEvaluations&#45;&gt;AspNetUsers -->
<g id="edge29" class="edge">
<title>StudentCompetencyEvaluations:w&#45;&gt;AspNetUsers:e</title>
<path fill="none" stroke="#000000" d="M908.8055,-586.851C582.9063,-581.1406 495.7702,-582.0473 163,-567.1102 152.35,-566.6321 141.0589,-565.9702 130.0745,-565.3301"/>
<polygon fill="#000000" stroke="#000000" points="915.5012,-586.969 923.4365,-590.7096 919.5006,-587.0396 923.5,-587.1102 923.5,-587.1102 923.5,-587.1102 919.5006,-587.0396 923.5635,-583.5107 915.5012,-586.969 915.5012,-586.969"/>
<ellipse fill="none" stroke="#000000" cx="912.3017" cy="-586.9126" rx="3.2" ry="3.2"/>
</g>
<!-- StudentCompetencyEvaluations&#45;&gt;AspNetUsers -->
<g id="edge33" class="edge">
<title>StudentCompetencyEvaluations:w&#45;&gt;AspNetUsers:e</title>
<path fill="none" stroke="#000000" d="M908.8055,-587.414C582.9063,-594.1406 495.7702,-595.0473 163,-580.1102 152.35,-579.6321 141.0589,-578.9702 130.0745,-578.141"/>
<polygon fill="#000000" stroke="#000000" points="915.5017,-587.2756 923.5744,-590.7094 919.5009,-587.1929 923.5,-587.1102 923.5,-587.1102 923.5,-587.1102 919.5009,-587.1929 923.4256,-583.5109 915.5017,-587.2756 915.5017,-587.2756"/>
<ellipse fill="none" stroke="#000000" cx="912.3024" cy="-587.3418" rx="3.2" ry="3.2"/>
</g>
<!-- StudentCompetencyEvaluations&#45;&gt;ProfessorCompetencyAssignments -->
<g id="edge30" class="edge">
<title>StudentCompetencyEvaluations:w&#45;&gt;ProfessorCompetencyAssignments:e</title>
<path fill="none" stroke="#000000" d="M909.5883,-582.1332C895.6334,-569.4863 899.1628,-537.1102 874,-537.1102"/>
<polygon fill="#000000" stroke="#000000" points="915.9675,-584.4153 922.2873,-590.4998 919.7338,-585.7627 923.5,-587.1102 923.5,-587.1102 923.5,-587.1102 919.7338,-585.7627 924.7127,-583.7205 915.9675,-584.4153 915.9675,-584.4153"/>
<ellipse fill="none" stroke="#000000" cx="912.9545" cy="-583.3374" rx="3.2" ry="3.2"/>
</g>
<!-- StudentCompetencyEvaluations&#45;&gt;Subjects -->
<g id="edge32" class="edge">
<title>StudentCompetencyEvaluations:w&#45;&gt;Subjects:e</title>
<path fill="none" stroke="#000000" d="M909.3536,-583.4183C889.605,-569.4682 912.7197,-519.719 882,-499.1102 774.153,-426.7591 611.5958,-447.564 528.6883,-464.9899"/>
<polygon fill="#000000" stroke="#000000" points="915.7593,-585.09 922.5909,-590.5935 919.6296,-586.1001 923.5,-587.1102 923.5,-587.1102 923.5,-587.1102 919.6296,-586.1001 924.4091,-583.6268 915.7593,-585.09 915.7593,-585.09"/>
<ellipse fill="none" stroke="#000000" cx="912.663" cy="-584.2819" rx="3.2" ry="3.2"/>
</g>
<!-- Students -->
<g id="node17" class="node">
<title>Students</title>
<g id="a_node17"><a xlink:href="../../tables/Students.html" xlink:title="Students" target="_top">
<polygon fill="#ffffff" stroke="transparent" points="431,-255.6102 431,-316.6102 521,-316.6102 521,-255.6102 431,-255.6102"/>
<polygon fill="#f5f5f5" stroke="transparent" points="431,-293.1102 431,-316.1102 521,-316.1102 521,-293.1102 431,-293.1102"/>
<polygon fill="none" stroke="#000000" points="431,-293.1102 431,-316.1102 521,-316.1102 521,-293.1102 431,-293.1102"/>
<text text-anchor="start" x="436" y="-301.7102" font-family="Helvetica,sans-Serif" font-weight="bold" font-size="11.00" fill="#000000">Students</text>
<text text-anchor="start" x="486.5219" y="-301.2102" font-family="Helvetica,sans-Serif" font-size="11.00" fill="#000000">[table]</text>
<polygon fill="none" stroke="#000000" points="431,-274.1102 431,-293.1102 521,-293.1102 521,-274.1102 431,-274.1102"/>
<text text-anchor="start" x="434" y="-280.2102" font-family="Helvetica,sans-Serif" font-size="11.00" fill="#000000">...</text>
<polygon fill="#ffffff" stroke="transparent" points="431,-255.1102 431,-274.1102 457,-274.1102 457,-255.1102 431,-255.1102"/>
<polygon fill="none" stroke="#000000" points="431,-255.1102 431,-274.1102 457,-274.1102 457,-255.1102 431,-255.1102"/>
<text text-anchor="start" x="434" y="-261.2102" font-family="Helvetica,sans-Serif" font-size="11.00" fill="#000000">&lt; 2</text>
<polygon fill="#ffffff" stroke="transparent" points="457,-255.1102 457,-274.1102 497,-274.1102 497,-255.1102 457,-255.1102"/>
<polygon fill="none" stroke="#000000" points="457,-255.1102 457,-274.1102 497,-274.1102 497,-255.1102 457,-255.1102"/>
<text text-anchor="start" x="461.6105" y="-261.2102" font-family="Helvetica,sans-Serif" font-size="11.00" fill="#000000">0 rows</text>
<polygon fill="#ffffff" stroke="transparent" points="497,-255.1102 497,-274.1102 521,-274.1102 521,-255.1102 497,-255.1102"/>
<polygon fill="none" stroke="#000000" points="497,-255.1102 497,-274.1102 521,-274.1102 521,-255.1102 497,-255.1102"/>
<text text-anchor="start" x="502.4053" y="-261.2102" font-family="Helvetica,sans-Serif" font-size="11.00" fill="#000000">3 &gt;</text>
</a>
</g>
</g>
<!-- StudentCompetencyEvaluations&#45;&gt;Students -->
<g id="edge31" class="edge">
<title>StudentCompetencyEvaluations:w&#45;&gt;Students:e</title>
<path fill="none" stroke="#000000" d="M909.2517,-585C869.6637,-570.7408 924.5781,-487.7907 882,-446.1102 797.097,-362.9969 721.6072,-443.8537 624,-376.1102 603.3294,-361.7639 610.924,-345.4764 591,-330.1102 572.8879,-316.1413 549.8261,-306.1628 529.1164,-299.2793"/>
<polygon fill="#000000" stroke="#000000" points="915.5863,-585.9381 922.9726,-590.6713 919.5432,-586.5241 923.5,-587.1102 923.5,-587.1102 923.5,-587.1102 919.5432,-586.5241 924.0274,-583.549 915.5863,-585.9381 915.5863,-585.9381"/>
<ellipse fill="none" stroke="#000000" cx="912.4208" cy="-585.4692" rx="3.2" ry="3.2"/>
</g>
<!-- Students&#45;&gt;AspNetUsers -->
<g id="edge39" class="edge">
<title>Students:w&#45;&gt;AspNetUsers:e</title>
<path fill="none" stroke="#000000" d="M412.2042,-270.733C343.7271,-258.1683 235.0935,-250.0822 163,-303.1102 125.0728,-331.0073 88.5617,-466.6563 72.9414,-531.48"/>
<polygon fill="#000000" stroke="#000000" points="422.8082,-268.7003 421.2963,-276.5561 419.7252,-276.2538 421.237,-268.3979 422.8082,-268.7003"/>
<polyline fill="none" stroke="#000000" points="422.8378,-272.7794 418.9099,-272.0235 "/>
<ellipse fill="none" stroke="#000000" cx="415.7676" cy="-271.4187" rx="3.2" ry="3.2"/>
</g>
<!-- Students&#45;&gt;TechnicalCareers -->
<g id="edge38" class="edge">
<title>Students:w&#45;&gt;TechnicalCareers:e</title>
<path fill="none" stroke="#000000" d="M409.1616,-313.8921C373.9288,-327.5475 334.2225,-341.1102 315.5,-341.1102"/>
<polygon fill="#000000" stroke="#000000" points="415.4533,-311.4133 424.2161,-311.8302 419.1748,-309.947 422.8964,-308.4808 422.8964,-308.4808 422.8964,-308.4808 419.1748,-309.947 421.5768,-305.1313 415.4533,-311.4133 415.4533,-311.4133"/>
<ellipse fill="none" stroke="#000000" cx="412.476" cy="-312.5863" rx="3.2" ry="3.2"/>
</g>
<!-- StudentEvaluationReport -->
<g id="node18" class="node">
<title>StudentEvaluationReport</title>
<g id="a_node18"><a xlink:href="../../tables/StudentEvaluationReport.html" xlink:title="StudentEvaluationReport" target="_top">
<polygon fill="#ffffff" stroke="transparent" points="661.5,-61.6102 661.5,-122.6102 844.5,-122.6102 844.5,-61.6102 661.5,-61.6102"/>
<polygon fill="#f5f5f5" stroke="transparent" points="662,-99.1102 662,-122.1102 845,-122.1102 845,-99.1102 662,-99.1102"/>
<polygon fill="none" stroke="#000000" points="662,-99.1102 662,-122.1102 845,-122.1102 845,-99.1102 662,-99.1102"/>
<text text-anchor="start" x="667" y="-107.7102" font-family="Helvetica,sans-Serif" font-weight="bold" font-size="11.00" fill="#000000">StudentEvaluationReport</text>
<text text-anchor="start" x="810.5219" y="-107.2102" font-family="Helvetica,sans-Serif" font-size="11.00" fill="#000000">[table]</text>
<polygon fill="none" stroke="#000000" points="662,-80.1102 662,-99.1102 845,-99.1102 845,-80.1102 662,-80.1102"/>
<text text-anchor="start" x="665" y="-86.2102" font-family="Helvetica,sans-Serif" font-size="11.00" fill="#000000">...</text>
<polygon fill="#ffffff" stroke="transparent" points="662,-61.1102 662,-80.1102 739,-80.1102 739,-61.1102 662,-61.1102"/>
<polygon fill="none" stroke="#000000" points="662,-61.1102 662,-80.1102 739,-80.1102 739,-61.1102 662,-61.1102"/>
<text text-anchor="start" x="665" y="-67.2102" font-family="Helvetica,sans-Serif" font-size="11.00" fill="#000000">&lt; 4</text>
<polygon fill="#ffffff" stroke="transparent" points="739,-61.1102 739,-80.1102 805,-80.1102 805,-61.1102 739,-61.1102"/>
<polygon fill="none" stroke="#000000" points="739,-61.1102 739,-80.1102 805,-80.1102 805,-61.1102 739,-61.1102"/>
<text text-anchor="start" x="769.6105" y="-67.2102" font-family="Helvetica,sans-Serif" font-size="11.00" fill="#000000">0 rows</text>
<polygon fill="#ffffff" stroke="transparent" points="805,-61.1102 805,-80.1102 845,-80.1102 845,-61.1102 805,-61.1102"/>
<polygon fill="none" stroke="#000000" points="805,-61.1102 805,-80.1102 845,-80.1102 845,-61.1102 805,-61.1102"/>
<text text-anchor="start" x="835.8862" y="-67.2102" font-family="Helvetica,sans-Serif" font-size="11.00" fill="#000000"> &#160;</text>
</a>
</g>
</g>
<!-- StudentEvaluationReport&#45;&gt;AspNetUsers -->
<g id="edge34" class="edge">
<title>StudentEvaluationReport:w&#45;&gt;AspNetUsers:e</title>
<path fill="none" stroke="#000000" d="M647.5334,-88.5493C435.3006,-77.8352 329.0582,36.7037 163,-103.1102 97.4359,-158.3123 73.3453,-433.6023 66.9265,-531.5309"/>
<polygon fill="#000000" stroke="#000000" points="654.006,-88.8002 661.8605,-92.7075 658.003,-88.9552 662,-89.1102 662,-89.1102 662,-89.1102 658.003,-88.9552 662.1395,-85.5129 654.006,-88.8002 654.006,-88.8002"/>
<ellipse fill="none" stroke="#000000" cx="650.8084" cy="-88.6762" rx="3.2" ry="3.2"/>
</g>
<!-- StudentEvaluationReport&#45;&gt;AspNetUsers -->
<g id="edge37" class="edge">
<title>StudentEvaluationReport:w&#45;&gt;AspNetUsers:e</title>
<path fill="none" stroke="#000000" d="M647.5334,-89.3876C435.3006,-90.8352 329.0582,23.7037 163,-116.1102 98.755,-170.2017 74.3315,-435.6146 67.3355,-531.5355"/>
<polygon fill="#000000" stroke="#000000" points="654.0015,-89.2636 662.069,-92.7095 658.0007,-89.1869 662,-89.1102 662,-89.1102 662,-89.1102 658.0007,-89.1869 661.931,-85.5108 654.0015,-89.2636 654.0015,-89.2636"/>
<ellipse fill="none" stroke="#000000" cx="650.8021" cy="-89.325" rx="3.2" ry="3.2"/>
</g>
<!-- StudentEvaluationReport&#45;&gt;EvaluationPeriods -->
<g id="edge35" class="edge">
<title>StudentEvaluationReport:w&#45;&gt;EvaluationPeriods:e</title>
<path fill="none" stroke="#000000" d="M647.5772,-90.2722C529.9023,-110.682 687.0848,-393.1102 548,-393.1102"/>
<polygon fill="#000000" stroke="#000000" points="654.0258,-89.7527 662.2891,-92.6985 658.0129,-89.4314 662,-89.1102 662,-89.1102 662,-89.1102 658.0129,-89.4314 661.7109,-85.5218 654.0258,-89.7527 654.0258,-89.7527"/>
<ellipse fill="none" stroke="#000000" cx="650.8362" cy="-90.0097" rx="3.2" ry="3.2"/>
</g>
<!-- StudentEvaluationReport&#45;&gt;Students -->
<g id="edge36" class="edge">
<title>StudentEvaluationReport:w&#45;&gt;Students:e</title>
<path fill="none" stroke="#000000" d="M648.1781,-93.276C613.1054,-116.0205 610.0989,-224.9118 591,-245.1102 574.7623,-262.2826 550.8535,-272.2739 529.0362,-278.082"/>
<polygon fill="#000000" stroke="#000000" points="654.3403,-91.4188 663.0389,-92.557 658.1702,-90.2645 662,-89.1102 662,-89.1102 662,-89.1102 658.1702,-90.2645 660.9611,-85.6633 654.3403,-91.4188 654.3403,-91.4188"/>
<ellipse fill="none" stroke="#000000" cx="651.2765" cy="-92.3422" rx="3.2" ry="3.2"/>
</g>
<!-- StudentSubjects -->
<g id="node19" class="node">
<title>StudentSubjects</title>
<g id="a_node19"><a xlink:href="../../tables/StudentSubjects.html" xlink:title="StudentSubjects" target="_top">
<polygon fill="#ffffff" stroke="transparent" points="643.5,-144.1102 643.5,-366.1102 862.5,-366.1102 862.5,-144.1102 643.5,-144.1102"/>
<polygon fill="#f5f5f5" stroke="transparent" points="646,-341.1102 646,-364.1102 861,-364.1102 861,-341.1102 646,-341.1102"/>
<polygon fill="none" stroke="#000000" points="646,-341.1102 646,-364.1102 861,-364.1102 861,-341.1102 646,-341.1102"/>
<text text-anchor="start" x="651" y="-349.7102" font-family="Helvetica,sans-Serif" font-weight="bold" font-size="11.00" fill="#000000">StudentSubjects</text>
<text text-anchor="start" x="826.0437" y="-349.2102" font-family="Helvetica,sans-Serif" font-size="11.00" fill="#000000">[table]</text>
<polygon fill="none" stroke="#000000" points="646,-319.1102 646,-341.1102 767,-341.1102 767,-319.1102 646,-319.1102"/>
<image xlink:href="../../images/primaryKeys.png" width="11px" height="12px" preserveAspectRatio="xMinYMin meet" x="651" y="-336.11"/>
<text text-anchor="start" x="666" y="-326.2102" font-family="Helvetica,sans-Serif" font-size="11.00" fill="#000000">Id</text>
<polygon fill="none" stroke="#000000" points="767,-319.1102 767,-341.1102 861,-341.1102 861,-319.1102 767,-319.1102"/>
<text text-anchor="start" x="769.9758" y="-326.8102" font-family="Helvetica,sans-Serif" font-size="11.00" fill="#000000">uuid[2147483647]</text>
<polygon fill="#ffffff" stroke="transparent" points="646,-297.1102 646,-319.1102 767,-319.1102 767,-297.1102 646,-297.1102"/>
<polygon fill="none" stroke="#000000" points="646,-297.1102 646,-319.1102 767,-319.1102 767,-297.1102 646,-297.1102"/>
<image xlink:href="../../images/foreignKeys.png" width="11px" height="12px" preserveAspectRatio="xMinYMin meet" x="651" y="-314.11"/>
<text text-anchor="start" x="666" y="-304.2102" font-family="Helvetica,sans-Serif" font-size="11.00" fill="#000000">StudentId</text>
<polygon fill="none" stroke="#000000" points="767,-297.1102 767,-319.1102 861,-319.1102 861,-297.1102 767,-297.1102"/>
<text text-anchor="start" x="770" y="-304.8102" font-family="Helvetica,sans-Serif" font-size="11.00" fill="#000000">text[2147483647]</text>
<polygon fill="#ffffff" stroke="transparent" points="646,-275.1102 646,-297.1102 767,-297.1102 767,-275.1102 646,-275.1102"/>
<polygon fill="none" stroke="#000000" points="646,-275.1102 646,-297.1102 767,-297.1102 767,-275.1102 646,-275.1102"/>
<image xlink:href="../../images/foreignKeys.png" width="11px" height="12px" preserveAspectRatio="xMinYMin meet" x="651" y="-292.11"/>
<text text-anchor="start" x="666" y="-282.2102" font-family="Helvetica,sans-Serif" font-size="11.00" fill="#000000">SubjectId</text>
<polygon fill="none" stroke="#000000" points="767,-275.1102 767,-297.1102 861,-297.1102 861,-275.1102 767,-275.1102"/>
<text text-anchor="start" x="769.9758" y="-282.8102" font-family="Helvetica,sans-Serif" font-size="11.00" fill="#000000">uuid[2147483647]</text>
<polygon fill="none" stroke="#000000" points="646,-253.1102 646,-275.1102 767,-275.1102 767,-253.1102 646,-253.1102"/>
<text text-anchor="start" x="666" y="-260.2102" font-family="Helvetica,sans-Serif" font-size="11.00" fill="#000000">IsActive</text>
<polygon fill="none" stroke="#000000" points="767,-253.1102 767,-275.1102 861,-275.1102 861,-253.1102 767,-253.1102"/>
<text text-anchor="start" x="770" y="-260.8102" font-family="Helvetica,sans-Serif" font-size="11.00" fill="#000000">bool[1]</text>
<polygon fill="none" stroke="#000000" points="646,-231.1102 646,-253.1102 767,-253.1102 767,-231.1102 646,-231.1102"/>
<text text-anchor="start" x="666" y="-238.2102" font-family="Helvetica,sans-Serif" font-size="11.00" fill="#000000">CreatedAt</text>
<polygon fill="none" stroke="#000000" points="767,-231.1102 767,-253.1102 861,-253.1102 861,-231.1102 767,-231.1102"/>
<text text-anchor="start" x="770" y="-238.8102" font-family="Helvetica,sans-Serif" font-size="11.00" fill="#000000">timestamptz[35,6]</text>
<polygon fill="none" stroke="#000000" points="646,-209.1102 646,-231.1102 767,-231.1102 767,-209.1102 646,-209.1102"/>
<text text-anchor="start" x="666" y="-216.2102" font-family="Helvetica,sans-Serif" font-size="11.00" fill="#000000">UpdatedAt</text>
<polygon fill="none" stroke="#000000" points="767,-209.1102 767,-231.1102 861,-231.1102 861,-209.1102 767,-209.1102"/>
<text text-anchor="start" x="770" y="-216.8102" font-family="Helvetica,sans-Serif" font-size="11.00" fill="#000000">timestamptz[35,6]</text>
<polygon fill="#ffffff" stroke="transparent" points="646,-187.1102 646,-209.1102 767,-209.1102 767,-187.1102 646,-187.1102"/>
<polygon fill="none" stroke="#000000" points="646,-187.1102 646,-209.1102 767,-209.1102 767,-187.1102 646,-187.1102"/>
<image xlink:href="../../images/foreignKeys.png" width="11px" height="12px" preserveAspectRatio="xMinYMin meet" x="651" y="-204.11"/>
<text text-anchor="start" x="666" y="-194.2102" font-family="Helvetica,sans-Serif" font-size="11.00" fill="#000000">CreatedByUserId</text>
<polygon fill="none" stroke="#000000" points="767,-187.1102 767,-209.1102 861,-209.1102 861,-187.1102 767,-187.1102"/>
<text text-anchor="start" x="770" y="-194.8102" font-family="Helvetica,sans-Serif" font-size="11.00" fill="#000000">text[2147483647]</text>
<polygon fill="#ffffff" stroke="transparent" points="646,-165.1102 646,-187.1102 767,-187.1102 767,-165.1102 646,-165.1102"/>
<polygon fill="none" stroke="#000000" points="646,-165.1102 646,-187.1102 767,-187.1102 767,-165.1102 646,-165.1102"/>
<image xlink:href="../../images/foreignKeys.png" width="11px" height="12px" preserveAspectRatio="xMinYMin meet" x="651" y="-182.11"/>
<text text-anchor="start" x="666" y="-172.2102" font-family="Helvetica,sans-Serif" font-size="11.00" fill="#000000">UpdatedByUserId</text>
<polygon fill="none" stroke="#000000" points="767,-165.1102 767,-187.1102 861,-187.1102 861,-165.1102 767,-165.1102"/>
<text text-anchor="start" x="770" y="-172.8102" font-family="Helvetica,sans-Serif" font-size="11.00" fill="#000000">text[2147483647]</text>
<polygon fill="#ffffff" stroke="transparent" points="646,-146.1102 646,-165.1102 698,-165.1102 698,-146.1102 646,-146.1102"/>
<polygon fill="none" stroke="#000000" points="646,-146.1102 646,-165.1102 698,-165.1102 698,-146.1102 646,-146.1102"/>
<text text-anchor="start" x="649" y="-152.2102" font-family="Helvetica,sans-Serif" font-size="11.00" fill="#000000">&lt; 4</text>
<polygon fill="#ffffff" stroke="transparent" points="698,-146.1102 698,-165.1102 767,-165.1102 767,-146.1102 698,-146.1102"/>
<polygon fill="none" stroke="#000000" points="698,-146.1102 698,-165.1102 767,-165.1102 767,-146.1102 698,-146.1102"/>
<text text-anchor="start" x="731.6105" y="-152.2102" font-family="Helvetica,sans-Serif" font-size="11.00" fill="#000000">0 rows</text>
<polygon fill="#ffffff" stroke="transparent" points="767,-146.1102 767,-165.1102 861,-165.1102 861,-146.1102 767,-146.1102"/>
<polygon fill="none" stroke="#000000" points="767,-146.1102 767,-165.1102 861,-165.1102 861,-146.1102 767,-146.1102"/>
<text text-anchor="start" x="842.4053" y="-152.2102" font-family="Helvetica,sans-Serif" font-size="11.00" fill="#000000">0 &gt;</text>
<polygon fill="none" stroke="#000000" stroke-width="2" points="644.5,-145.1102 644.5,-365.1102 861.5,-365.1102 861.5,-145.1102 644.5,-145.1102"/>
</a>
</g>
</g>
<!-- StudentSubjects&#45;&gt;AspNetUsers -->
<g id="edge40" class="edge">
<title>StudentSubjects:w&#45;&gt;AspNetUsers:e</title>
<path fill="none" stroke="#000000" d="M631.6461,-195.1636C616.5324,-187.958 613.1681,-169.5655 591,-163.1102 499.4109,-136.4393 233.5406,-131.8924 163,-196.1102 113.0014,-241.6272 80.5665,-448.5825 69.3659,-531.5523"/>
<polygon fill="#000000" stroke="#000000" points="638.1634,-196.5014 645.2761,-201.6366 642.0817,-197.3058 646,-198.1102 646,-198.1102 646,-198.1102 642.0817,-197.3058 646.7239,-194.5837 638.1634,-196.5014 638.1634,-196.5014"/>
<ellipse fill="none" stroke="#000000" cx="635.0288" cy="-195.8579" rx="3.2" ry="3.2"/>
</g>
<!-- StudentSubjects&#45;&gt;AspNetUsers -->
<g id="edge43" class="edge">
<title>StudentSubjects:w&#45;&gt;AspNetUsers:e</title>
<path fill="none" stroke="#000000" d="M631.7203,-173.2463C616.6257,-166.2433 613.0287,-148.3693 591,-142.1102 499.5064,-116.1134 236.9063,-86.2371 163,-146.1102 102.7115,-194.9511 75.809,-439.9814 67.7491,-531.5324"/>
<polygon fill="#000000" stroke="#000000" points="638.1562,-174.537 645.2921,-179.6399 642.0781,-175.3236 646,-176.1102 646,-176.1102 646,-176.1102 642.0781,-175.3236 646.7079,-172.5804 638.1562,-174.537 638.1562,-174.537"/>
<ellipse fill="none" stroke="#000000" cx="635.0187" cy="-173.9078" rx="3.2" ry="3.2"/>
</g>
<!-- StudentSubjects&#45;&gt;Subjects -->
<g id="edge42" class="edge">
<title>StudentSubjects:w&#45;&gt;Subjects:e</title>
<path fill="none" stroke="#000000" d="M631.6742,-287.8814C584.3414,-301.5323 637.7177,-390.7105 591,-437.1102 574.2314,-453.7646 550.2542,-463.6892 528.5288,-469.5869"/>
<polygon fill="#000000" stroke="#000000" points="638.0605,-287.0919 646.4418,-289.683 642.0302,-286.601 646,-286.1102 646,-286.1102 646,-286.1102 642.0302,-286.601 645.5582,-282.5374 638.0605,-287.0919 638.0605,-287.0919"/>
<ellipse fill="none" stroke="#000000" cx="634.8846" cy="-287.4846" rx="3.2" ry="3.2"/>
</g>
<!-- StudentSubjects&#45;&gt;Students -->
<g id="edge41" class="edge">
<title>StudentSubjects:w&#45;&gt;Students:e</title>
<path fill="none" stroke="#000000" d="M631.5501,-307.8636C596.2231,-306.6963 558.7046,-301.5749 529.3671,-296.5947"/>
<polygon fill="#000000" stroke="#000000" points="638.0012,-307.9736 645.9385,-311.7096 642.0006,-308.0419 646,-308.1102 646,-308.1102 646,-308.1102 642.0006,-308.0419 646.0615,-304.5107 638.0012,-307.9736 638.0012,-307.9736"/>
<ellipse fill="none" stroke="#000000" cx="634.8016" cy="-307.919" rx="3.2" ry="3.2"/>
</g>
</g>
</svg>
