<?xml version="1.0" encoding="UTF-8" standalone="no"?>
<!DOCTYPE svg PUBLIC "-//W3C//DTD SVG 1.1//EN"
 "http://www.w3.org/Graphics/SVG/1.1/DTD/svg11.dtd">
<!-- Generated by graphviz version 2.40.1 (20161225.0304)
 -->
<!-- Title: twoDegreesRelationshipsDiagram Pages: 1 -->
<svg width="1382pt" height="1225pt"
 viewBox="0.00 0.00 1382.00 1225.35" xmlns="http://www.w3.org/2000/svg" xmlns:xlink="http://www.w3.org/1999/xlink">
<g id="graph0" class="graph" transform="scale(1 1) rotate(0) translate(4 1221.3519)">
<title>twoDegreesRelationshipsDiagram</title>
<polygon fill="#ffffff" stroke="transparent" points="-4,4 -4,-1221.3519 1378,-1221.3519 1378,4 -4,4"/>
<text text-anchor="middle" x="72.4936" y="-7.3" font-family="Helvetica,sans-Serif" font-size="11.00" fill="#000000">Generated by SchemaSpy</text>
<!-- AspNetUserClaims -->
<g id="node1" class="node">
<title>AspNetUserClaims</title>
<g id="a_node1"><a xlink:href="../../tables/AspNetUserClaims.html" xlink:title="AspNetUserClaims" target="_top">
<polygon fill="#ffffff" stroke="transparent" points="172,-1152.3519 172,-1213.3519 319,-1213.3519 319,-1152.3519 172,-1152.3519"/>
<polygon fill="#f5f5f5" stroke="transparent" points="172.5,-1189.8519 172.5,-1212.8519 319.5,-1212.8519 319.5,-1189.8519 172.5,-1189.8519"/>
<polygon fill="none" stroke="#000000" points="172.5,-1189.8519 172.5,-1212.8519 319.5,-1212.8519 319.5,-1189.8519 172.5,-1189.8519"/>
<text text-anchor="start" x="177.5" y="-1198.4519" font-family="Helvetica,sans-Serif" font-weight="bold" font-size="11.00" fill="#000000">AspNetUserClaims</text>
<text text-anchor="start" x="285.0219" y="-1197.9519" font-family="Helvetica,sans-Serif" font-size="11.00" fill="#000000">[table]</text>
<polygon fill="none" stroke="#000000" points="172.5,-1170.8519 172.5,-1189.8519 319.5,-1189.8519 319.5,-1170.8519 172.5,-1170.8519"/>
<text text-anchor="start" x="175.5" y="-1176.9519" font-family="Helvetica,sans-Serif" font-size="11.00" fill="#000000">...</text>
<polygon fill="#ffffff" stroke="transparent" points="172.5,-1151.8519 172.5,-1170.8519 231.5,-1170.8519 231.5,-1151.8519 172.5,-1151.8519"/>
<polygon fill="none" stroke="#000000" points="172.5,-1151.8519 172.5,-1170.8519 231.5,-1170.8519 231.5,-1151.8519 172.5,-1151.8519"/>
<text text-anchor="start" x="175.5" y="-1157.9519" font-family="Helvetica,sans-Serif" font-size="11.00" fill="#000000">&lt; 1</text>
<polygon fill="#ffffff" stroke="transparent" points="231.5,-1151.8519 231.5,-1170.8519 288.5,-1170.8519 288.5,-1151.8519 231.5,-1151.8519"/>
<polygon fill="none" stroke="#000000" points="231.5,-1151.8519 231.5,-1170.8519 288.5,-1170.8519 288.5,-1151.8519 231.5,-1151.8519"/>
<text text-anchor="start" x="253.1105" y="-1157.9519" font-family="Helvetica,sans-Serif" font-size="11.00" fill="#000000">0 rows</text>
<polygon fill="#ffffff" stroke="transparent" points="288.5,-1151.8519 288.5,-1170.8519 319.5,-1170.8519 319.5,-1151.8519 288.5,-1151.8519"/>
<polygon fill="none" stroke="#000000" points="288.5,-1151.8519 288.5,-1170.8519 319.5,-1170.8519 319.5,-1151.8519 288.5,-1151.8519"/>
<text text-anchor="start" x="310.3862" y="-1157.9519" font-family="Helvetica,sans-Serif" font-size="11.00" fill="#000000"> &#160;</text>
</a>
</g>
</g>
<!-- AspNetUsers -->
<g id="node2" class="node">
<title>AspNetUsers</title>
<g id="a_node2"><a xlink:href="../../tables/AspNetUsers.html" xlink:title="AspNetUsers" target="_top">
<polygon fill="#ffffff" stroke="transparent" points="8,-596.3519 8,-657.3519 122,-657.3519 122,-596.3519 8,-596.3519"/>
<polygon fill="#f5f5f5" stroke="transparent" points="8,-633.8519 8,-656.8519 122,-656.8519 122,-633.8519 8,-633.8519"/>
<polygon fill="none" stroke="#000000" points="8,-633.8519 8,-656.8519 122,-656.8519 122,-633.8519 8,-633.8519"/>
<text text-anchor="start" x="13" y="-642.4519" font-family="Helvetica,sans-Serif" font-weight="bold" font-size="11.00" fill="#000000">AspNetUsers</text>
<text text-anchor="start" x="87.5219" y="-641.9519" font-family="Helvetica,sans-Serif" font-size="11.00" fill="#000000">[table]</text>
<polygon fill="none" stroke="#000000" points="8,-614.8519 8,-633.8519 122,-633.8519 122,-614.8519 8,-614.8519"/>
<text text-anchor="start" x="11" y="-620.9519" font-family="Helvetica,sans-Serif" font-size="11.00" fill="#000000">...</text>
<polygon fill="#ffffff" stroke="transparent" points="8,-595.8519 8,-614.8519 41,-614.8519 41,-595.8519 8,-595.8519"/>
<polygon fill="none" stroke="#000000" points="8,-595.8519 8,-614.8519 41,-614.8519 41,-595.8519 8,-595.8519"/>
<text text-anchor="start" x="11" y="-601.9519" font-family="Helvetica,sans-Serif" font-size="11.00" fill="#000000"> &#160;</text>
<polygon fill="#ffffff" stroke="transparent" points="41,-595.8519 41,-614.8519 84,-614.8519 84,-595.8519 41,-595.8519"/>
<polygon fill="none" stroke="#000000" points="41,-595.8519 41,-614.8519 84,-614.8519 84,-595.8519 41,-595.8519"/>
<text text-anchor="start" x="54.1105" y="-601.9519" font-family="Helvetica,sans-Serif" font-size="11.00" fill="#000000">1 row</text>
<polygon fill="#ffffff" stroke="transparent" points="84,-595.8519 84,-614.8519 122,-614.8519 122,-595.8519 84,-595.8519"/>
<polygon fill="none" stroke="#000000" points="84,-595.8519 84,-614.8519 122,-614.8519 122,-595.8519 84,-595.8519"/>
<text text-anchor="start" x="97.2904" y="-601.9519" font-family="Helvetica,sans-Serif" font-size="11.00" fill="#000000">29 &gt;</text>
</a>
</g>
</g>
<!-- AspNetUserClaims&#45;&gt;AspNetUsers -->
<g id="edge1" class="edge">
<title>AspNetUserClaims:w&#45;&gt;AspNetUsers:e</title>
<path fill="none" stroke="#000000" d="M160.0065,-1172.5539C113.167,-1117.9867 78.2068,-772.815 68.0303,-661.4445"/>
<polygon fill="#000000" stroke="#000000" points="165.5922,-1175.8167 170.6842,-1182.9604 169.0461,-1177.8343 172.5,-1179.8519 172.5,-1179.8519 172.5,-1179.8519 169.0461,-1177.8343 174.3158,-1176.7434 165.5922,-1175.8167 165.5922,-1175.8167"/>
<ellipse fill="none" stroke="#000000" cx="162.8291" cy="-1174.2027" rx="3.2" ry="3.2"/>
</g>
<!-- AspNetUserLogins -->
<g id="node3" class="node">
<title>AspNetUserLogins</title>
<g id="a_node3"><a xlink:href="../../tables/AspNetUserLogins.html" xlink:title="AspNetUserLogins" target="_top">
<polygon fill="#ffffff" stroke="transparent" points="172,-1070.3519 172,-1131.3519 319,-1131.3519 319,-1070.3519 172,-1070.3519"/>
<polygon fill="#f5f5f5" stroke="transparent" points="172.5,-1107.8519 172.5,-1130.8519 319.5,-1130.8519 319.5,-1107.8519 172.5,-1107.8519"/>
<polygon fill="none" stroke="#000000" points="172.5,-1107.8519 172.5,-1130.8519 319.5,-1130.8519 319.5,-1107.8519 172.5,-1107.8519"/>
<text text-anchor="start" x="177.5" y="-1116.4519" font-family="Helvetica,sans-Serif" font-weight="bold" font-size="11.00" fill="#000000">AspNetUserLogins</text>
<text text-anchor="start" x="285.0219" y="-1115.9519" font-family="Helvetica,sans-Serif" font-size="11.00" fill="#000000">[table]</text>
<polygon fill="none" stroke="#000000" points="172.5,-1088.8519 172.5,-1107.8519 319.5,-1107.8519 319.5,-1088.8519 172.5,-1088.8519"/>
<text text-anchor="start" x="175.5" y="-1094.9519" font-family="Helvetica,sans-Serif" font-size="11.00" fill="#000000">...</text>
<polygon fill="#ffffff" stroke="transparent" points="172.5,-1069.8519 172.5,-1088.8519 231.5,-1088.8519 231.5,-1069.8519 172.5,-1069.8519"/>
<polygon fill="none" stroke="#000000" points="172.5,-1069.8519 172.5,-1088.8519 231.5,-1088.8519 231.5,-1069.8519 172.5,-1069.8519"/>
<text text-anchor="start" x="175.5" y="-1075.9519" font-family="Helvetica,sans-Serif" font-size="11.00" fill="#000000">&lt; 1</text>
<polygon fill="#ffffff" stroke="transparent" points="231.5,-1069.8519 231.5,-1088.8519 288.5,-1088.8519 288.5,-1069.8519 231.5,-1069.8519"/>
<polygon fill="none" stroke="#000000" points="231.5,-1069.8519 231.5,-1088.8519 288.5,-1088.8519 288.5,-1069.8519 231.5,-1069.8519"/>
<text text-anchor="start" x="253.1105" y="-1075.9519" font-family="Helvetica,sans-Serif" font-size="11.00" fill="#000000">0 rows</text>
<polygon fill="#ffffff" stroke="transparent" points="288.5,-1069.8519 288.5,-1088.8519 319.5,-1088.8519 319.5,-1069.8519 288.5,-1069.8519"/>
<polygon fill="none" stroke="#000000" points="288.5,-1069.8519 288.5,-1088.8519 319.5,-1088.8519 319.5,-1069.8519 288.5,-1069.8519"/>
<text text-anchor="start" x="310.3862" y="-1075.9519" font-family="Helvetica,sans-Serif" font-size="11.00" fill="#000000"> &#160;</text>
</a>
</g>
</g>
<!-- AspNetUserLogins&#45;&gt;AspNetUsers -->
<g id="edge2" class="edge">
<title>AspNetUserLogins:w&#45;&gt;AspNetUsers:e</title>
<path fill="none" stroke="#000000" d="M157.9925,-1094.7982C81.3099,-1061.4436 67.8605,-764.0964 65.5017,-661.4856"/>
<polygon fill="#000000" stroke="#000000" points="164.6715,-1096.204 171.7585,-1101.3747 168.5858,-1097.028 172.5,-1097.8519 172.5,-1097.8519 172.5,-1097.8519 168.5858,-1097.028 173.2415,-1094.3291 164.6715,-1096.204 164.6715,-1096.204"/>
<ellipse fill="none" stroke="#000000" cx="161.5402" cy="-1095.5449" rx="3.2" ry="3.2"/>
</g>
<!-- AspNetUserRoles -->
<g id="node4" class="node">
<title>AspNetUserRoles</title>
<g id="a_node4"><a xlink:href="../../tables/AspNetUserRoles.html" xlink:title="AspNetUserRoles" target="_top">
<polygon fill="#ffffff" stroke="transparent" points="175.5,-988.3519 175.5,-1049.3519 315.5,-1049.3519 315.5,-988.3519 175.5,-988.3519"/>
<polygon fill="#f5f5f5" stroke="transparent" points="175.5,-1025.8519 175.5,-1048.8519 315.5,-1048.8519 315.5,-1025.8519 175.5,-1025.8519"/>
<polygon fill="none" stroke="#000000" points="175.5,-1025.8519 175.5,-1048.8519 315.5,-1048.8519 315.5,-1025.8519 175.5,-1025.8519"/>
<text text-anchor="start" x="180.5" y="-1034.4519" font-family="Helvetica,sans-Serif" font-weight="bold" font-size="11.00" fill="#000000">AspNetUserRoles</text>
<text text-anchor="start" x="281.0219" y="-1033.9519" font-family="Helvetica,sans-Serif" font-size="11.00" fill="#000000">[table]</text>
<polygon fill="none" stroke="#000000" points="175.5,-1006.8519 175.5,-1025.8519 315.5,-1025.8519 315.5,-1006.8519 175.5,-1006.8519"/>
<text text-anchor="start" x="178.5" y="-1012.9519" font-family="Helvetica,sans-Serif" font-size="11.00" fill="#000000">...</text>
<polygon fill="#ffffff" stroke="transparent" points="175.5,-987.8519 175.5,-1006.8519 233.5,-1006.8519 233.5,-987.8519 175.5,-987.8519"/>
<polygon fill="none" stroke="#000000" points="175.5,-987.8519 175.5,-1006.8519 233.5,-1006.8519 233.5,-987.8519 175.5,-987.8519"/>
<text text-anchor="start" x="178.5" y="-993.9519" font-family="Helvetica,sans-Serif" font-size="11.00" fill="#000000">&lt; 2</text>
<polygon fill="#ffffff" stroke="transparent" points="233.5,-987.8519 233.5,-1006.8519 284.5,-1006.8519 284.5,-987.8519 233.5,-987.8519"/>
<polygon fill="none" stroke="#000000" points="233.5,-987.8519 233.5,-1006.8519 284.5,-1006.8519 284.5,-987.8519 233.5,-987.8519"/>
<text text-anchor="start" x="254.6105" y="-993.9519" font-family="Helvetica,sans-Serif" font-size="11.00" fill="#000000">1 row</text>
<polygon fill="#ffffff" stroke="transparent" points="284.5,-987.8519 284.5,-1006.8519 315.5,-1006.8519 315.5,-987.8519 284.5,-987.8519"/>
<polygon fill="none" stroke="#000000" points="284.5,-987.8519 284.5,-1006.8519 315.5,-1006.8519 315.5,-987.8519 284.5,-987.8519"/>
<text text-anchor="start" x="306.3862" y="-993.9519" font-family="Helvetica,sans-Serif" font-size="11.00" fill="#000000"> &#160;</text>
</a>
</g>
</g>
<!-- AspNetUserRoles&#45;&gt;AspNetUsers -->
<g id="edge3" class="edge">
<title>AspNetUserRoles:w&#45;&gt;AspNetUsers:e</title>
<path fill="none" stroke="#000000" d="M161.0927,-1012.3523C98.5042,-981.1707 74.3963,-750.0679 67.3874,-661.373"/>
<polygon fill="#000000" stroke="#000000" points="167.726,-1013.9635 174.6502,-1019.3502 171.613,-1014.9077 175.5,-1015.8519 175.5,-1015.8519 175.5,-1015.8519 171.613,-1014.9077 176.3498,-1012.3536 167.726,-1013.9635 167.726,-1013.9635"/>
<ellipse fill="none" stroke="#000000" cx="164.6165" cy="-1013.2082" rx="3.2" ry="3.2"/>
</g>
<!-- AspNetUserTokens -->
<g id="node5" class="node">
<title>AspNetUserTokens</title>
<g id="a_node5"><a xlink:href="../../tables/AspNetUserTokens.html" xlink:title="AspNetUserTokens" target="_top">
<polygon fill="#ffffff" stroke="transparent" points="171,-906.3519 171,-967.3519 320,-967.3519 320,-906.3519 171,-906.3519"/>
<polygon fill="#f5f5f5" stroke="transparent" points="171.5,-943.8519 171.5,-966.8519 320.5,-966.8519 320.5,-943.8519 171.5,-943.8519"/>
<polygon fill="none" stroke="#000000" points="171.5,-943.8519 171.5,-966.8519 320.5,-966.8519 320.5,-943.8519 171.5,-943.8519"/>
<text text-anchor="start" x="176.5" y="-952.4519" font-family="Helvetica,sans-Serif" font-weight="bold" font-size="11.00" fill="#000000">AspNetUserTokens</text>
<text text-anchor="start" x="286.0219" y="-951.9519" font-family="Helvetica,sans-Serif" font-size="11.00" fill="#000000">[table]</text>
<polygon fill="none" stroke="#000000" points="171.5,-924.8519 171.5,-943.8519 320.5,-943.8519 320.5,-924.8519 171.5,-924.8519"/>
<text text-anchor="start" x="174.5" y="-930.9519" font-family="Helvetica,sans-Serif" font-size="11.00" fill="#000000">...</text>
<polygon fill="#ffffff" stroke="transparent" points="171.5,-905.8519 171.5,-924.8519 231.5,-924.8519 231.5,-905.8519 171.5,-905.8519"/>
<polygon fill="none" stroke="#000000" points="171.5,-905.8519 171.5,-924.8519 231.5,-924.8519 231.5,-905.8519 171.5,-905.8519"/>
<text text-anchor="start" x="174.5" y="-911.9519" font-family="Helvetica,sans-Serif" font-size="11.00" fill="#000000">&lt; 1</text>
<polygon fill="#ffffff" stroke="transparent" points="231.5,-905.8519 231.5,-924.8519 288.5,-924.8519 288.5,-905.8519 231.5,-905.8519"/>
<polygon fill="none" stroke="#000000" points="231.5,-905.8519 231.5,-924.8519 288.5,-924.8519 288.5,-905.8519 231.5,-905.8519"/>
<text text-anchor="start" x="253.1105" y="-911.9519" font-family="Helvetica,sans-Serif" font-size="11.00" fill="#000000">0 rows</text>
<polygon fill="#ffffff" stroke="transparent" points="288.5,-905.8519 288.5,-924.8519 320.5,-924.8519 320.5,-905.8519 288.5,-905.8519"/>
<polygon fill="none" stroke="#000000" points="288.5,-905.8519 288.5,-924.8519 320.5,-924.8519 320.5,-905.8519 288.5,-905.8519"/>
<text text-anchor="start" x="311.3862" y="-911.9519" font-family="Helvetica,sans-Serif" font-size="11.00" fill="#000000"> &#160;</text>
</a>
</g>
</g>
<!-- AspNetUserTokens&#45;&gt;AspNetUsers -->
<g id="edge4" class="edge">
<title>AspNetUserTokens:w&#45;&gt;AspNetUsers:e</title>
<path fill="none" stroke="#000000" d="M157.6095,-929.9672C108.9261,-902.3751 80.0254,-735.0173 69.5259,-661.4719"/>
<polygon fill="#000000" stroke="#000000" points="163.7956,-931.6972 170.5304,-937.3188 167.6478,-932.7745 171.5,-933.8519 171.5,-933.8519 171.5,-933.8519 167.6478,-932.7745 172.4696,-930.3849 163.7956,-931.6972 163.7956,-931.6972"/>
<ellipse fill="none" stroke="#000000" cx="160.7139" cy="-930.8353" rx="3.2" ry="3.2"/>
</g>
<!-- Competencies -->
<g id="node6" class="node">
<title>Competencies</title>
<g id="a_node6"><a xlink:href="../../tables/Competencies.html" xlink:title="Competencies" target="_top">
<polygon fill="#ffffff" stroke="transparent" points="185,-745.3519 185,-806.3519 306,-806.3519 306,-745.3519 185,-745.3519"/>
<polygon fill="#f5f5f5" stroke="transparent" points="185.5,-782.8519 185.5,-805.8519 306.5,-805.8519 306.5,-782.8519 185.5,-782.8519"/>
<polygon fill="none" stroke="#000000" points="185.5,-782.8519 185.5,-805.8519 306.5,-805.8519 306.5,-782.8519 185.5,-782.8519"/>
<text text-anchor="start" x="190.5" y="-791.4519" font-family="Helvetica,sans-Serif" font-weight="bold" font-size="11.00" fill="#000000">Competencies</text>
<text text-anchor="start" x="272.0219" y="-790.9519" font-family="Helvetica,sans-Serif" font-size="11.00" fill="#000000">[table]</text>
<polygon fill="none" stroke="#000000" points="185.5,-763.8519 185.5,-782.8519 306.5,-782.8519 306.5,-763.8519 185.5,-763.8519"/>
<text text-anchor="start" x="188.5" y="-769.9519" font-family="Helvetica,sans-Serif" font-size="11.00" fill="#000000">...</text>
<polygon fill="#ffffff" stroke="transparent" points="185.5,-744.8519 185.5,-763.8519 226.5,-763.8519 226.5,-744.8519 185.5,-744.8519"/>
<polygon fill="none" stroke="#000000" points="185.5,-744.8519 185.5,-763.8519 226.5,-763.8519 226.5,-744.8519 185.5,-744.8519"/>
<text text-anchor="start" x="188.5" y="-750.9519" font-family="Helvetica,sans-Serif" font-size="11.00" fill="#000000">&lt; 2</text>
<polygon fill="#ffffff" stroke="transparent" points="226.5,-744.8519 226.5,-763.8519 274.5,-763.8519 274.5,-744.8519 226.5,-744.8519"/>
<polygon fill="none" stroke="#000000" points="226.5,-744.8519 226.5,-763.8519 274.5,-763.8519 274.5,-744.8519 226.5,-744.8519"/>
<text text-anchor="start" x="239.1105" y="-750.9519" font-family="Helvetica,sans-Serif" font-size="11.00" fill="#000000">5 rows</text>
<polygon fill="#ffffff" stroke="transparent" points="274.5,-744.8519 274.5,-763.8519 306.5,-763.8519 306.5,-744.8519 274.5,-744.8519"/>
<polygon fill="none" stroke="#000000" points="274.5,-744.8519 274.5,-763.8519 306.5,-763.8519 306.5,-744.8519 274.5,-744.8519"/>
<text text-anchor="start" x="287.9053" y="-750.9519" font-family="Helvetica,sans-Serif" font-size="11.00" fill="#000000">4 &gt;</text>
</a>
</g>
</g>
<!-- Competencies&#45;&gt;AspNetUsers -->
<g id="edge5" class="edge">
<title>Competencies:w&#45;&gt;AspNetUsers:e</title>
<path fill="none" stroke="#000000" d="M171.2947,-770.4396C123.8184,-757.573 93.5227,-699.8438 77.8953,-661.5669"/>
<polygon fill="#000000" stroke="#000000" points="177.6129,-771.5125 184.8973,-776.4011 181.5565,-772.1822 185.5,-772.8519 185.5,-772.8519 185.5,-772.8519 181.5565,-772.1822 186.1027,-769.3027 177.6129,-771.5125 177.6129,-771.5125"/>
<ellipse fill="none" stroke="#000000" cx="174.4581" cy="-770.9767" rx="3.2" ry="3.2"/>
</g>
<!-- Competencies&#45;&gt;AspNetUsers -->
<g id="edge6" class="edge">
<title>Competencies:w&#45;&gt;AspNetUsers:e</title>
<path fill="none" stroke="#000000" d="M171.0151,-772.5416C120.1729,-765.974 89.0842,-702.503 74.6504,-661.4531"/>
<polygon fill="#000000" stroke="#000000" points="177.5018,-772.6805 185.4229,-776.451 181.5009,-772.7662 185.5,-772.8519 185.5,-772.8519 185.5,-772.8519 181.5009,-772.7662 185.5771,-769.2527 177.5018,-772.6805 177.5018,-772.6805"/>
<ellipse fill="none" stroke="#000000" cx="174.3026" cy="-772.6119" rx="3.2" ry="3.2"/>
</g>
<!-- CompetencyLevelDescriptions -->
<g id="node7" class="node">
<title>CompetencyLevelDescriptions</title>
<g id="a_node7"><a xlink:href="../../tables/CompetencyLevelDescriptions.html" xlink:title="CompetencyLevelDescriptions" target="_top">
<polygon fill="#ffffff" stroke="transparent" points="377,-934.3519 377,-995.3519 591,-995.3519 591,-934.3519 377,-934.3519"/>
<polygon fill="#f5f5f5" stroke="transparent" points="377,-971.8519 377,-994.8519 591,-994.8519 591,-971.8519 377,-971.8519"/>
<polygon fill="none" stroke="#000000" points="377,-971.8519 377,-994.8519 591,-994.8519 591,-971.8519 377,-971.8519"/>
<text text-anchor="start" x="382" y="-980.4519" font-family="Helvetica,sans-Serif" font-weight="bold" font-size="11.00" fill="#000000">CompetencyLevelDescriptions</text>
<text text-anchor="start" x="556.5219" y="-979.9519" font-family="Helvetica,sans-Serif" font-size="11.00" fill="#000000">[table]</text>
<polygon fill="none" stroke="#000000" points="377,-952.8519 377,-971.8519 591,-971.8519 591,-952.8519 377,-952.8519"/>
<text text-anchor="start" x="380" y="-958.9519" font-family="Helvetica,sans-Serif" font-size="11.00" fill="#000000">...</text>
<polygon fill="#ffffff" stroke="transparent" points="377,-933.8519 377,-952.8519 466,-952.8519 466,-933.8519 377,-933.8519"/>
<polygon fill="none" stroke="#000000" points="377,-933.8519 377,-952.8519 466,-952.8519 466,-933.8519 377,-933.8519"/>
<text text-anchor="start" x="380" y="-939.9519" font-family="Helvetica,sans-Serif" font-size="11.00" fill="#000000">&lt; 3</text>
<polygon fill="#ffffff" stroke="transparent" points="466,-933.8519 466,-952.8519 544,-952.8519 544,-933.8519 466,-933.8519"/>
<polygon fill="none" stroke="#000000" points="466,-933.8519 466,-952.8519 544,-952.8519 544,-933.8519 466,-933.8519"/>
<text text-anchor="start" x="502.4956" y="-939.9519" font-family="Helvetica,sans-Serif" font-size="11.00" fill="#000000">20 rows</text>
<polygon fill="#ffffff" stroke="transparent" points="544,-933.8519 544,-952.8519 591,-952.8519 591,-933.8519 544,-933.8519"/>
<polygon fill="none" stroke="#000000" points="544,-933.8519 544,-952.8519 591,-952.8519 591,-933.8519 544,-933.8519"/>
<text text-anchor="start" x="581.8862" y="-939.9519" font-family="Helvetica,sans-Serif" font-size="11.00" fill="#000000"> &#160;</text>
</a>
</g>
</g>
<!-- CompetencyLevelDescriptions&#45;&gt;AspNetUsers -->
<g id="edge8" class="edge">
<title>CompetencyLevelDescriptions:w&#45;&gt;AspNetUsers:e</title>
<path fill="none" stroke="#000000" d="M363.4684,-956.3829C344.8755,-942.2032 353.6019,-907.02 328,-889.8519 265.151,-847.7066 220.5711,-896.9618 163,-847.8519 105.6857,-798.961 80.8972,-710.4199 70.9748,-661.5033"/>
<polygon fill="#000000" stroke="#000000" points="369.5829,-958.8541 375.651,-965.1896 373.2914,-960.353 377,-961.8519 377,-961.8519 377,-961.8519 373.2914,-960.353 378.349,-958.5142 369.5829,-958.8541 369.5829,-958.8541"/>
<ellipse fill="none" stroke="#000000" cx="366.616" cy="-957.655" rx="3.2" ry="3.2"/>
</g>
<!-- CompetencyLevelDescriptions&#45;&gt;AspNetUsers -->
<g id="edge9" class="edge">
<title>CompetencyLevelDescriptions:w&#45;&gt;AspNetUsers:e</title>
<path fill="none" stroke="#000000" d="M362.4632,-961.1908C345.1869,-953.9063 353.1278,-919.7021 328,-902.8519 265.151,-860.7066 220.5711,-909.9618 163,-860.8519 102.4199,-809.1752 78.1779,-713.201 69.4202,-661.5961"/>
<polygon fill="#000000" stroke="#000000" points="369.0083,-961.4884 376.8364,-965.4482 373.0041,-961.6701 377,-961.8519 377,-961.8519 377,-961.8519 373.0041,-961.6701 377.1636,-958.2556 369.0083,-961.4884 369.0083,-961.4884"/>
<ellipse fill="none" stroke="#000000" cx="365.8116" cy="-961.343" rx="3.2" ry="3.2"/>
</g>
<!-- CompetencyLevelDescriptions&#45;&gt;Competencies -->
<g id="edge7" class="edge">
<title>CompetencyLevelDescriptions:w&#45;&gt;Competencies:e</title>
<path fill="none" stroke="#000000" d="M362.4187,-959.7293C300.172,-938.9652 390.5503,-772.8519 306.5,-772.8519"/>
<polygon fill="#000000" stroke="#000000" points="369.0834,-960.6994 376.4814,-965.4143 373.0417,-961.2757 377,-961.8519 377,-961.8519 377,-961.8519 373.0417,-961.2757 377.5186,-958.2894 369.0834,-960.6994 369.0834,-960.6994"/>
<ellipse fill="none" stroke="#000000" cx="365.9168" cy="-960.2385" rx="3.2" ry="3.2"/>
</g>
<!-- CompetencyTechnicalCareer -->
<g id="node8" class="node">
<title>CompetencyTechnicalCareer</title>
<g id="a_node8"><a xlink:href="../../tables/CompetencyTechnicalCareer.html" xlink:title="CompetencyTechnicalCareer" target="_top">
<polygon fill="#ffffff" stroke="transparent" points="382,-703.3519 382,-764.3519 586,-764.3519 586,-703.3519 382,-703.3519"/>
<polygon fill="#f5f5f5" stroke="transparent" points="382,-740.8519 382,-763.8519 586,-763.8519 586,-740.8519 382,-740.8519"/>
<polygon fill="none" stroke="#000000" points="382,-740.8519 382,-763.8519 586,-763.8519 586,-740.8519 382,-740.8519"/>
<text text-anchor="start" x="387" y="-749.4519" font-family="Helvetica,sans-Serif" font-weight="bold" font-size="11.00" fill="#000000">CompetencyTechnicalCareer</text>
<text text-anchor="start" x="551.5219" y="-748.9519" font-family="Helvetica,sans-Serif" font-size="11.00" fill="#000000">[table]</text>
<polygon fill="none" stroke="#000000" points="382,-721.8519 382,-740.8519 586,-740.8519 586,-721.8519 382,-721.8519"/>
<text text-anchor="start" x="385" y="-727.9519" font-family="Helvetica,sans-Serif" font-size="11.00" fill="#000000">...</text>
<polygon fill="#ffffff" stroke="transparent" points="382,-702.8519 382,-721.8519 469,-721.8519 469,-702.8519 382,-702.8519"/>
<polygon fill="none" stroke="#000000" points="382,-702.8519 382,-721.8519 469,-721.8519 469,-702.8519 382,-702.8519"/>
<text text-anchor="start" x="385" y="-708.9519" font-family="Helvetica,sans-Serif" font-size="11.00" fill="#000000">&lt; 2</text>
<polygon fill="#ffffff" stroke="transparent" points="469,-702.8519 469,-721.8519 540,-721.8519 540,-702.8519 469,-702.8519"/>
<polygon fill="none" stroke="#000000" points="469,-702.8519 469,-721.8519 540,-721.8519 540,-702.8519 469,-702.8519"/>
<text text-anchor="start" x="504.6105" y="-708.9519" font-family="Helvetica,sans-Serif" font-size="11.00" fill="#000000">0 rows</text>
<polygon fill="#ffffff" stroke="transparent" points="540,-702.8519 540,-721.8519 586,-721.8519 586,-702.8519 540,-702.8519"/>
<polygon fill="none" stroke="#000000" points="540,-702.8519 540,-721.8519 586,-721.8519 586,-702.8519 540,-702.8519"/>
<text text-anchor="start" x="576.8862" y="-708.9519" font-family="Helvetica,sans-Serif" font-size="11.00" fill="#000000"> &#160;</text>
</a>
</g>
</g>
<!-- CompetencyTechnicalCareer&#45;&gt;Competencies -->
<g id="edge10" class="edge">
<title>CompetencyTechnicalCareer:w&#45;&gt;Competencies:e</title>
<path fill="none" stroke="#000000" d="M367.5987,-733.2303C343.1474,-742.1152 339.3484,-772.8519 306.5,-772.8519"/>
<polygon fill="#000000" stroke="#000000" points="374.1069,-732.1555 382.5866,-734.4038 378.0535,-731.5037 382,-730.8519 382,-730.8519 382,-730.8519 378.0535,-731.5037 381.4134,-727.3 374.1069,-732.1555 374.1069,-732.1555"/>
<ellipse fill="none" stroke="#000000" cx="370.9497" cy="-732.6769" rx="3.2" ry="3.2"/>
</g>
<!-- TechnicalCareers -->
<g id="node9" class="node">
<title>TechnicalCareers</title>
<g id="a_node9"><a xlink:href="../../tables/TechnicalCareers.html" xlink:title="TechnicalCareers" target="_top">
<polygon fill="#ffffff" stroke="transparent" points="176,-596.3519 176,-657.3519 315,-657.3519 315,-596.3519 176,-596.3519"/>
<polygon fill="#f5f5f5" stroke="transparent" points="176.5,-633.8519 176.5,-656.8519 315.5,-656.8519 315.5,-633.8519 176.5,-633.8519"/>
<polygon fill="none" stroke="#000000" points="176.5,-633.8519 176.5,-656.8519 315.5,-656.8519 315.5,-633.8519 176.5,-633.8519"/>
<text text-anchor="start" x="181.5" y="-642.4519" font-family="Helvetica,sans-Serif" font-weight="bold" font-size="11.00" fill="#000000">TechnicalCareers</text>
<text text-anchor="start" x="281.0219" y="-641.9519" font-family="Helvetica,sans-Serif" font-size="11.00" fill="#000000">[table]</text>
<polygon fill="none" stroke="#000000" points="176.5,-614.8519 176.5,-633.8519 315.5,-633.8519 315.5,-614.8519 176.5,-614.8519"/>
<text text-anchor="start" x="179.5" y="-620.9519" font-family="Helvetica,sans-Serif" font-size="11.00" fill="#000000">...</text>
<polygon fill="#ffffff" stroke="transparent" points="176.5,-595.8519 176.5,-614.8519 226.5,-614.8519 226.5,-595.8519 176.5,-595.8519"/>
<polygon fill="none" stroke="#000000" points="176.5,-595.8519 176.5,-614.8519 226.5,-614.8519 226.5,-595.8519 176.5,-595.8519"/>
<text text-anchor="start" x="179.5" y="-601.9519" font-family="Helvetica,sans-Serif" font-size="11.00" fill="#000000">&lt; 2</text>
<polygon fill="#ffffff" stroke="transparent" points="226.5,-595.8519 226.5,-614.8519 279.5,-614.8519 279.5,-595.8519 226.5,-595.8519"/>
<polygon fill="none" stroke="#000000" points="226.5,-595.8519 226.5,-614.8519 279.5,-614.8519 279.5,-595.8519 226.5,-595.8519"/>
<text text-anchor="start" x="244.1105" y="-601.9519" font-family="Helvetica,sans-Serif" font-size="11.00" fill="#000000">6 rows</text>
<polygon fill="#ffffff" stroke="transparent" points="279.5,-595.8519 279.5,-614.8519 315.5,-614.8519 315.5,-595.8519 279.5,-595.8519"/>
<polygon fill="none" stroke="#000000" points="279.5,-595.8519 279.5,-614.8519 315.5,-614.8519 315.5,-595.8519 279.5,-595.8519"/>
<text text-anchor="start" x="296.9053" y="-601.9519" font-family="Helvetica,sans-Serif" font-size="11.00" fill="#000000">6 &gt;</text>
</a>
</g>
</g>
<!-- CompetencyTechnicalCareer&#45;&gt;TechnicalCareers -->
<g id="edge11" class="edge">
<title>CompetencyTechnicalCareer:w&#45;&gt;TechnicalCareers:e</title>
<path fill="none" stroke="#000000" d="M368.629,-725.2062C348.5421,-713.2926 313.3401,-684.7635 285.7062,-661.4824"/>
<polygon fill="#000000" stroke="#000000" points="374.63,-727.74 380.5997,-734.1684 378.315,-729.2959 382,-730.8519 382,-730.8519 382,-730.8519 378.315,-729.2959 383.4003,-727.5354 374.63,-727.74 374.63,-727.74"/>
<ellipse fill="none" stroke="#000000" cx="371.682" cy="-726.4952" rx="3.2" ry="3.2"/>
</g>
<!-- TechnicalCareers&#45;&gt;AspNetUsers -->
<g id="edge52" class="edge">
<title>TechnicalCareers:w&#45;&gt;AspNetUsers:e</title>
<path fill="none" stroke="#000000" d="M153.3283,-622.3528C145.4765,-622.3602 137.6441,-622.413 130.069,-622.5113"/>
<polygon fill="#000000" stroke="#000000" points="159.9043,-622.3702 167.8947,-625.9914 163.9042,-622.3808 167.9042,-622.3914 167.9042,-622.3914 167.9042,-622.3914 163.9042,-622.3808 167.9138,-618.7914 159.9043,-622.3702 159.9043,-622.3702"/>
<ellipse fill="none" stroke="#000000" cx="156.7043" cy="-622.3617" rx="3.2" ry="3.2"/>
</g>
<!-- TechnicalCareers&#45;&gt;AspNetUsers -->
<g id="edge53" class="edge">
<title>TechnicalCareers:w&#45;&gt;AspNetUsers:e</title>
<path fill="none" stroke="#000000" d="M153.3283,-632.1008C145.4765,-632.0922 137.6441,-632.0305 130.069,-631.9159"/>
<polygon fill="#000000" stroke="#000000" points="159.9043,-632.0805 167.9154,-635.6557 163.9042,-632.0681 167.9042,-632.0557 167.9042,-632.0557 167.9042,-632.0557 163.9042,-632.0681 167.8931,-628.4557 159.9043,-632.0805 159.9043,-632.0805"/>
<ellipse fill="none" stroke="#000000" cx="156.7043" cy="-632.0905" rx="3.2" ry="3.2"/>
</g>
<!-- Coordinators -->
<g id="node10" class="node">
<title>Coordinators</title>
<g id="a_node10"><a xlink:href="../../tables/Coordinators.html" xlink:title="Coordinators" target="_top">
<polygon fill="#ffffff" stroke="transparent" points="427,-621.3519 427,-682.3519 541,-682.3519 541,-621.3519 427,-621.3519"/>
<polygon fill="#f5f5f5" stroke="transparent" points="427,-658.8519 427,-681.8519 541,-681.8519 541,-658.8519 427,-658.8519"/>
<polygon fill="none" stroke="#000000" points="427,-658.8519 427,-681.8519 541,-681.8519 541,-658.8519 427,-658.8519"/>
<text text-anchor="start" x="432" y="-667.4519" font-family="Helvetica,sans-Serif" font-weight="bold" font-size="11.00" fill="#000000">Coordinators</text>
<text text-anchor="start" x="506.5219" y="-666.9519" font-family="Helvetica,sans-Serif" font-size="11.00" fill="#000000">[table]</text>
<polygon fill="none" stroke="#000000" points="427,-639.8519 427,-658.8519 541,-658.8519 541,-639.8519 427,-639.8519"/>
<text text-anchor="start" x="430" y="-645.9519" font-family="Helvetica,sans-Serif" font-size="11.00" fill="#000000">...</text>
<polygon fill="#ffffff" stroke="transparent" points="427,-620.8519 427,-639.8519 469,-639.8519 469,-620.8519 427,-620.8519"/>
<polygon fill="none" stroke="#000000" points="427,-620.8519 427,-639.8519 469,-639.8519 469,-620.8519 427,-620.8519"/>
<text text-anchor="start" x="430" y="-626.9519" font-family="Helvetica,sans-Serif" font-size="11.00" fill="#000000">&lt; 2</text>
<polygon fill="#ffffff" stroke="transparent" points="469,-620.8519 469,-639.8519 518,-639.8519 518,-620.8519 469,-620.8519"/>
<polygon fill="none" stroke="#000000" points="469,-620.8519 469,-639.8519 518,-639.8519 518,-620.8519 469,-620.8519"/>
<text text-anchor="start" x="482.6105" y="-626.9519" font-family="Helvetica,sans-Serif" font-size="11.00" fill="#000000">0 rows</text>
<polygon fill="#ffffff" stroke="transparent" points="518,-620.8519 518,-639.8519 541,-639.8519 541,-620.8519 518,-620.8519"/>
<polygon fill="none" stroke="#000000" points="518,-620.8519 518,-639.8519 541,-639.8519 541,-620.8519 518,-620.8519"/>
<text text-anchor="start" x="531.8862" y="-626.9519" font-family="Helvetica,sans-Serif" font-size="11.00" fill="#000000"> &#160;</text>
</a>
</g>
</g>
<!-- Coordinators&#45;&gt;AspNetUsers -->
<g id="edge13" class="edge">
<title>Coordinators:w&#45;&gt;AspNetUsers:e</title>
<path fill="none" stroke="#000000" d="M416.1847,-649.1628C380.2893,-651.3109 368.7688,-663.9751 328,-667.8519 254.996,-674.794 234.8988,-682.2858 163,-667.8519 152.0603,-665.6557 140.818,-662.2077 130.027,-658.2221"/>
<polygon fill="#000000" stroke="#000000" points="426.0853,-644.8765 426.3153,-652.8732 424.716,-652.9192 424.486,-644.9225 426.0853,-644.8765"/>
<polyline fill="none" stroke="#000000" points="427,-648.8519 423.0017,-648.9669 "/>
<ellipse fill="none" stroke="#000000" cx="419.803" cy="-649.0589" rx="3.2" ry="3.2"/>
</g>
<!-- Coordinators&#45;&gt;TechnicalCareers -->
<g id="edge12" class="edge">
<title>Coordinators:w&#45;&gt;TechnicalCareers:e</title>
<path fill="none" stroke="#000000" d="M412.4309,-648.6308C382.4485,-647.7485 350.9105,-644.3396 323.42,-640.4719"/>
<polygon fill="#000000" stroke="#000000" points="419.0009,-648.7304 426.9454,-652.4515 423.0005,-648.7912 427,-648.8519 427,-648.8519 427,-648.8519 423.0005,-648.7912 427.0546,-645.2523 419.0009,-648.7304 419.0009,-648.7304"/>
<ellipse fill="none" stroke="#000000" cx="415.8013" cy="-648.6819" rx="3.2" ry="3.2"/>
</g>
<!-- EvaluationPeriods -->
<g id="node11" class="node">
<title>EvaluationPeriods</title>
<g id="a_node11"><a xlink:href="../../tables/EvaluationPeriods.html" xlink:title="EvaluationPeriods" target="_top">
<polygon fill="#ffffff" stroke="transparent" points="174,-432.3519 174,-493.3519 317,-493.3519 317,-432.3519 174,-432.3519"/>
<polygon fill="#f5f5f5" stroke="transparent" points="174.5,-469.8519 174.5,-492.8519 317.5,-492.8519 317.5,-469.8519 174.5,-469.8519"/>
<polygon fill="none" stroke="#000000" points="174.5,-469.8519 174.5,-492.8519 317.5,-492.8519 317.5,-469.8519 174.5,-469.8519"/>
<text text-anchor="start" x="179.5" y="-478.4519" font-family="Helvetica,sans-Serif" font-weight="bold" font-size="11.00" fill="#000000">EvaluationPeriods</text>
<text text-anchor="start" x="283.0219" y="-477.9519" font-family="Helvetica,sans-Serif" font-size="11.00" fill="#000000">[table]</text>
<polygon fill="none" stroke="#000000" points="174.5,-450.8519 174.5,-469.8519 317.5,-469.8519 317.5,-450.8519 174.5,-450.8519"/>
<text text-anchor="start" x="177.5" y="-456.9519" font-family="Helvetica,sans-Serif" font-size="11.00" fill="#000000">...</text>
<polygon fill="#ffffff" stroke="transparent" points="174.5,-431.8519 174.5,-450.8519 226.5,-450.8519 226.5,-431.8519 174.5,-431.8519"/>
<polygon fill="none" stroke="#000000" points="174.5,-431.8519 174.5,-450.8519 226.5,-450.8519 226.5,-431.8519 174.5,-431.8519"/>
<text text-anchor="start" x="177.5" y="-437.9519" font-family="Helvetica,sans-Serif" font-size="11.00" fill="#000000">&lt; 2</text>
<polygon fill="#ffffff" stroke="transparent" points="226.5,-431.8519 226.5,-450.8519 280.5,-450.8519 280.5,-431.8519 226.5,-431.8519"/>
<polygon fill="none" stroke="#000000" points="226.5,-431.8519 226.5,-450.8519 280.5,-450.8519 280.5,-431.8519 226.5,-431.8519"/>
<text text-anchor="start" x="245.1105" y="-437.9519" font-family="Helvetica,sans-Serif" font-size="11.00" fill="#000000">0 rows</text>
<polygon fill="#ffffff" stroke="transparent" points="280.5,-431.8519 280.5,-450.8519 317.5,-450.8519 317.5,-431.8519 280.5,-431.8519"/>
<polygon fill="none" stroke="#000000" points="280.5,-431.8519 280.5,-450.8519 317.5,-450.8519 317.5,-431.8519 280.5,-431.8519"/>
<text text-anchor="start" x="298.9053" y="-437.9519" font-family="Helvetica,sans-Serif" font-size="11.00" fill="#000000">3 &gt;</text>
</a>
</g>
</g>
<!-- EvaluationPeriods&#45;&gt;AspNetUsers -->
<g id="edge14" class="edge">
<title>EvaluationPeriods:w&#45;&gt;AspNetUsers:e</title>
<path fill="none" stroke="#000000" d="M160.072,-460.4355C105.8265,-468.7967 80.7342,-545.9174 70.7071,-592.2399"/>
<polygon fill="#000000" stroke="#000000" points="166.5065,-460.1753 174.6455,-463.4489 170.5033,-460.0136 174.5,-459.8519 174.5,-459.8519 174.5,-459.8519 170.5033,-460.0136 174.3545,-456.2548 166.5065,-460.1753 166.5065,-460.1753"/>
<ellipse fill="none" stroke="#000000" cx="163.3092" cy="-460.3047" rx="3.2" ry="3.2"/>
</g>
<!-- EvaluationPeriods&#45;&gt;AspNetUsers -->
<g id="edge15" class="edge">
<title>EvaluationPeriods:w&#45;&gt;AspNetUsers:e</title>
<path fill="none" stroke="#000000" d="M160.1631,-462.4914C109.0286,-477.5567 83.7752,-548.5484 72.6235,-592.2248"/>
<polygon fill="#000000" stroke="#000000" points="166.6322,-461.3005 175.1519,-463.3924 170.5661,-460.5762 174.5,-459.8519 174.5,-459.8519 174.5,-459.8519 170.5661,-460.5762 173.8481,-456.3114 166.6322,-461.3005 166.6322,-461.3005"/>
<ellipse fill="none" stroke="#000000" cx="163.4851" cy="-461.8799" rx="3.2" ry="3.2"/>
</g>
<!-- EvaluationPeriodTechnicalCareer -->
<g id="node12" class="node">
<title>EvaluationPeriodTechnicalCareer</title>
<g id="a_node12"><a xlink:href="../../tables/EvaluationPeriodTechnicalCareer.html" xlink:title="EvaluationPeriodTechnicalCareer" target="_top">
<polygon fill="#ffffff" stroke="transparent" points="369,-484.3519 369,-545.3519 599,-545.3519 599,-484.3519 369,-484.3519"/>
<polygon fill="#f5f5f5" stroke="transparent" points="369,-521.8519 369,-544.8519 599,-544.8519 599,-521.8519 369,-521.8519"/>
<polygon fill="none" stroke="#000000" points="369,-521.8519 369,-544.8519 599,-544.8519 599,-521.8519 369,-521.8519"/>
<text text-anchor="start" x="374" y="-530.4519" font-family="Helvetica,sans-Serif" font-weight="bold" font-size="11.00" fill="#000000">EvaluationPeriodTechnicalCareer</text>
<text text-anchor="start" x="564.5219" y="-529.9519" font-family="Helvetica,sans-Serif" font-size="11.00" fill="#000000">[table]</text>
<polygon fill="none" stroke="#000000" points="369,-502.8519 369,-521.8519 599,-521.8519 599,-502.8519 369,-502.8519"/>
<text text-anchor="start" x="372" y="-508.9519" font-family="Helvetica,sans-Serif" font-size="11.00" fill="#000000">...</text>
<polygon fill="#ffffff" stroke="transparent" points="369,-483.8519 369,-502.8519 469,-502.8519 469,-483.8519 369,-483.8519"/>
<polygon fill="none" stroke="#000000" points="369,-483.8519 369,-502.8519 469,-502.8519 469,-483.8519 369,-483.8519"/>
<text text-anchor="start" x="372" y="-489.9519" font-family="Helvetica,sans-Serif" font-size="11.00" fill="#000000">&lt; 2</text>
<polygon fill="#ffffff" stroke="transparent" points="469,-483.8519 469,-502.8519 547,-502.8519 547,-483.8519 469,-483.8519"/>
<polygon fill="none" stroke="#000000" points="469,-483.8519 469,-502.8519 547,-502.8519 547,-483.8519 469,-483.8519"/>
<text text-anchor="start" x="511.6105" y="-489.9519" font-family="Helvetica,sans-Serif" font-size="11.00" fill="#000000">0 rows</text>
<polygon fill="#ffffff" stroke="transparent" points="547,-483.8519 547,-502.8519 599,-502.8519 599,-483.8519 547,-483.8519"/>
<polygon fill="none" stroke="#000000" points="547,-483.8519 547,-502.8519 599,-502.8519 599,-483.8519 547,-483.8519"/>
<text text-anchor="start" x="589.8862" y="-489.9519" font-family="Helvetica,sans-Serif" font-size="11.00" fill="#000000"> &#160;</text>
</a>
</g>
</g>
<!-- EvaluationPeriodTechnicalCareer&#45;&gt;TechnicalCareers -->
<g id="edge17" class="edge">
<title>EvaluationPeriodTechnicalCareer:w&#45;&gt;TechnicalCareers:e</title>
<path fill="none" stroke="#000000" d="M354.9539,-515.4197C337.83,-527.0136 350.7165,-564.1295 328,-585.8519 325.6881,-588.0626 323.2338,-590.1782 320.6736,-592.2"/>
<polygon fill="#000000" stroke="#000000" points="361.2462,-513.8214 369.8863,-515.3411 365.1231,-512.8367 369,-511.8519 369,-511.8519 369,-511.8519 365.1231,-512.8367 368.1137,-508.3627 361.2462,-513.8214 361.2462,-513.8214"/>
<ellipse fill="none" stroke="#000000" cx="358.1447" cy="-514.6093" rx="3.2" ry="3.2"/>
</g>
<!-- EvaluationPeriodTechnicalCareer&#45;&gt;EvaluationPeriods -->
<g id="edge16" class="edge">
<title>EvaluationPeriodTechnicalCareer:w&#45;&gt;EvaluationPeriods:e</title>
<path fill="none" stroke="#000000" d="M354.9561,-507.053C339.9356,-494.18 343.9284,-459.8519 317.5,-459.8519"/>
<polygon fill="#000000" stroke="#000000" points="361.4297,-509.2651 367.8359,-515.2585 365.2149,-510.5585 369,-511.8519 369,-511.8519 369,-511.8519 365.2149,-510.5585 370.1641,-508.4453 361.4297,-509.2651 361.4297,-509.2651"/>
<ellipse fill="none" stroke="#000000" cx="358.4016" cy="-508.2304" rx="3.2" ry="3.2"/>
</g>
<!-- FormQuestions -->
<g id="node13" class="node">
<title>FormQuestions</title>
<g id="a_node13"><a xlink:href="../../tables/FormQuestions.html" xlink:title="FormQuestions" target="_top">
<polygon fill="#ffffff" stroke="transparent" points="420.5,-852.3519 420.5,-913.3519 547.5,-913.3519 547.5,-852.3519 420.5,-852.3519"/>
<polygon fill="#f5f5f5" stroke="transparent" points="421,-889.8519 421,-912.8519 548,-912.8519 548,-889.8519 421,-889.8519"/>
<polygon fill="none" stroke="#000000" points="421,-889.8519 421,-912.8519 548,-912.8519 548,-889.8519 421,-889.8519"/>
<text text-anchor="start" x="426" y="-898.4519" font-family="Helvetica,sans-Serif" font-weight="bold" font-size="11.00" fill="#000000">FormQuestions</text>
<text text-anchor="start" x="513.5219" y="-897.9519" font-family="Helvetica,sans-Serif" font-size="11.00" fill="#000000">[table]</text>
<polygon fill="none" stroke="#000000" points="421,-870.8519 421,-889.8519 548,-889.8519 548,-870.8519 421,-870.8519"/>
<text text-anchor="start" x="424" y="-876.9519" font-family="Helvetica,sans-Serif" font-size="11.00" fill="#000000">...</text>
<polygon fill="#ffffff" stroke="transparent" points="421,-851.8519 421,-870.8519 465,-870.8519 465,-851.8519 421,-851.8519"/>
<polygon fill="none" stroke="#000000" points="421,-851.8519 421,-870.8519 465,-870.8519 465,-851.8519 421,-851.8519"/>
<text text-anchor="start" x="424" y="-857.9519" font-family="Helvetica,sans-Serif" font-size="11.00" fill="#000000">&lt; 3</text>
<polygon fill="#ffffff" stroke="transparent" points="465,-851.8519 465,-870.8519 515,-870.8519 515,-851.8519 465,-851.8519"/>
<polygon fill="none" stroke="#000000" points="465,-851.8519 465,-870.8519 515,-870.8519 515,-851.8519 465,-851.8519"/>
<text text-anchor="start" x="479.6105" y="-857.9519" font-family="Helvetica,sans-Serif" font-size="11.00" fill="#000000">0 rows</text>
<polygon fill="#ffffff" stroke="transparent" points="515,-851.8519 515,-870.8519 548,-870.8519 548,-851.8519 515,-851.8519"/>
<polygon fill="none" stroke="#000000" points="515,-851.8519 515,-870.8519 548,-870.8519 548,-851.8519 515,-851.8519"/>
<text text-anchor="start" x="529.4053" y="-857.9519" font-family="Helvetica,sans-Serif" font-size="11.00" fill="#000000">1 &gt;</text>
</a>
</g>
</g>
<!-- FormQuestions&#45;&gt;AspNetUsers -->
<g id="edge19" class="edge">
<title>FormQuestions:w&#45;&gt;AspNetUsers:e</title>
<path fill="none" stroke="#000000" d="M407.3307,-875.1453C354.4753,-859.6815 168.0488,-814.8276 163,-810.8519 114.3031,-772.505 87.4363,-703.3339 74.6412,-661.5387"/>
<polygon fill="#000000" stroke="#000000" points="413.4358,-877.2474 419.828,-883.2558 417.2179,-878.5496 421,-879.8519 421,-879.8519 421,-879.8519 417.2179,-878.5496 422.172,-876.448 413.4358,-877.2474 413.4358,-877.2474"/>
<ellipse fill="none" stroke="#000000" cx="410.4102" cy="-876.2056" rx="3.2" ry="3.2"/>
</g>
<!-- FormQuestions&#45;&gt;AspNetUsers -->
<g id="edge20" class="edge">
<title>FormQuestions:w&#45;&gt;AspNetUsers:e</title>
<path fill="none" stroke="#000000" d="M406.2461,-879.4087C351.9755,-872.08 168.0148,-827.8009 163,-823.8519 110.804,-782.7495 83.688,-706.234 72.0981,-661.5306"/>
<polygon fill="#000000" stroke="#000000" points="413.0036,-879.6116 420.8919,-883.4503 417.0018,-879.7317 421,-879.8519 421,-879.8519 421,-879.8519 417.0018,-879.7317 421.1081,-876.2535 413.0036,-879.6116 413.0036,-879.6116"/>
<ellipse fill="none" stroke="#000000" cx="409.805" cy="-879.5155" rx="3.2" ry="3.2"/>
</g>
<!-- FormQuestions&#45;&gt;Competencies -->
<g id="edge18" class="edge">
<title>FormQuestions:w&#45;&gt;Competencies:e</title>
<path fill="none" stroke="#000000" d="M406.5427,-878.1704C386.6554,-872.916 380.872,-856.0655 361,-837.8519 333.2077,-812.3789 344.1999,-772.8519 306.5,-772.8519"/>
<polygon fill="#000000" stroke="#000000" points="413.0536,-878.9276 420.5841,-883.4278 417.0268,-879.3897 421,-879.8519 421,-879.8519 421,-879.8519 417.0268,-879.3897 421.4159,-876.276 413.0536,-878.9276 413.0536,-878.9276"/>
<ellipse fill="none" stroke="#000000" cx="409.875" cy="-878.5579" rx="3.2" ry="3.2"/>
</g>
<!-- ProfessorCompetencyAssignments -->
<g id="node14" class="node">
<title>ProfessorCompetencyAssignments</title>
<g id="a_node14"><a xlink:href="../../tables/ProfessorCompetencyAssignments.html" xlink:title="ProfessorCompetencyAssignments" target="_top">
<polygon fill="#ffffff" stroke="transparent" points="648,-555.3519 648,-616.3519 890,-616.3519 890,-555.3519 648,-555.3519"/>
<polygon fill="#f5f5f5" stroke="transparent" points="648,-592.8519 648,-615.8519 890,-615.8519 890,-592.8519 648,-592.8519"/>
<polygon fill="none" stroke="#000000" points="648,-592.8519 648,-615.8519 890,-615.8519 890,-592.8519 648,-592.8519"/>
<text text-anchor="start" x="653" y="-601.4519" font-family="Helvetica,sans-Serif" font-weight="bold" font-size="11.00" fill="#000000">ProfessorCompetencyAssignments</text>
<text text-anchor="start" x="855.5219" y="-600.9519" font-family="Helvetica,sans-Serif" font-size="11.00" fill="#000000">[table]</text>
<polygon fill="none" stroke="#000000" points="648,-573.8519 648,-592.8519 890,-592.8519 890,-573.8519 648,-573.8519"/>
<text text-anchor="start" x="651" y="-579.9519" font-family="Helvetica,sans-Serif" font-size="11.00" fill="#000000">...</text>
<polygon fill="#ffffff" stroke="transparent" points="648,-554.8519 648,-573.8519 750,-573.8519 750,-554.8519 648,-554.8519"/>
<polygon fill="none" stroke="#000000" points="648,-554.8519 648,-573.8519 750,-573.8519 750,-554.8519 648,-554.8519"/>
<text text-anchor="start" x="651" y="-560.9519" font-family="Helvetica,sans-Serif" font-size="11.00" fill="#000000">&lt; 7</text>
<polygon fill="#ffffff" stroke="transparent" points="750,-554.8519 750,-573.8519 828,-573.8519 828,-554.8519 750,-554.8519"/>
<polygon fill="none" stroke="#000000" points="750,-554.8519 750,-573.8519 828,-573.8519 828,-554.8519 750,-554.8519"/>
<text text-anchor="start" x="792.6105" y="-560.9519" font-family="Helvetica,sans-Serif" font-size="11.00" fill="#000000">0 rows</text>
<polygon fill="#ffffff" stroke="transparent" points="828,-554.8519 828,-573.8519 890,-573.8519 890,-554.8519 828,-554.8519"/>
<polygon fill="none" stroke="#000000" points="828,-554.8519 828,-573.8519 890,-573.8519 890,-554.8519 828,-554.8519"/>
<text text-anchor="start" x="871.4053" y="-560.9519" font-family="Helvetica,sans-Serif" font-size="11.00" fill="#000000">1 &gt;</text>
</a>
</g>
</g>
<!-- ProfessorCompetencyAssignments&#45;&gt;AspNetUsers -->
<g id="edge22" class="edge">
<title>ProfessorCompetencyAssignments:w&#45;&gt;AspNetUsers:e</title>
<path fill="none" stroke="#000000" d="M633.5347,-583.415C574.6945,-594.1858 670.4651,-717.5083 607,-768.8519 564.4998,-803.2347 410.4482,-792.1612 361,-768.8519 340.1532,-759.0249 347.1102,-741.7345 328,-728.8519 264.2449,-685.873 233.4481,-707.6571 163,-676.8519 152.1377,-672.102 140.9361,-666.4696 130.1623,-660.7162"/>
<polygon fill="#000000" stroke="#000000" points="640.0061,-583.1631 648.1401,-586.4491 644.003,-583.0075 648,-582.8519 648,-582.8519 648,-582.8519 644.003,-583.0075 647.8599,-579.2546 640.0061,-583.1631 640.0061,-583.1631"/>
<ellipse fill="none" stroke="#000000" cx="636.8085" cy="-583.2876" rx="3.2" ry="3.2"/>
</g>
<!-- ProfessorCompetencyAssignments&#45;&gt;AspNetUsers -->
<g id="edge27" class="edge">
<title>ProfessorCompetencyAssignments:w&#45;&gt;AspNetUsers:e</title>
<path fill="none" stroke="#000000" d="M633.5347,-585.7702C574.6945,-607.1858 670.4651,-730.5083 607,-781.8519 564.4998,-816.2347 410.4482,-805.1612 361,-781.8519 340.1532,-772.0249 347.1102,-754.7345 328,-741.8519 264.2449,-698.873 233.4481,-720.6571 163,-689.8519 144.8662,-681.9224 125.7869,-671.5331 109.3308,-661.4293"/>
<polygon fill="#000000" stroke="#000000" points="640.158,-584.434 648.712,-586.3808 644.079,-583.6429 648,-582.8519 648,-582.8519 648,-582.8519 644.079,-583.6429 647.288,-579.323 640.158,-584.434 640.158,-584.434"/>
<ellipse fill="none" stroke="#000000" cx="637.0212" cy="-585.0668" rx="3.2" ry="3.2"/>
</g>
<!-- ProfessorCompetencyAssignments&#45;&gt;Competencies -->
<g id="edge21" class="edge">
<title>ProfessorCompetencyAssignments:w&#45;&gt;Competencies:e</title>
<path fill="none" stroke="#000000" d="M633.2208,-584.2628C559.7991,-600.2787 681.6636,-748.417 607,-810.8519 565.0634,-845.9199 413.1528,-827.2386 361,-810.8519 332.8291,-802.0004 336.0288,-772.8519 306.5,-772.8519"/>
<polygon fill="#000000" stroke="#000000" points="640.0362,-583.6122 648.3421,-586.4356 644.0181,-583.232 648,-582.8519 648,-582.8519 648,-582.8519 644.0181,-583.232 647.6579,-579.2682 640.0362,-583.6122 640.0362,-583.6122"/>
<ellipse fill="none" stroke="#000000" cx="636.8507" cy="-583.9163" rx="3.2" ry="3.2"/>
</g>
<!-- ProfessorCompetencyAssignments&#45;&gt;TechnicalCareers -->
<g id="edge26" class="edge">
<title>ProfessorCompetencyAssignments:w&#45;&gt;TechnicalCareers:e</title>
<path fill="none" stroke="#000000" d="M633.2772,-582.9471C523.3527,-584.3483 400.5231,-600.9187 323.1387,-613.2914"/>
<polygon fill="#000000" stroke="#000000" points="640.0002,-582.9037 648.0233,-586.4518 644.0001,-582.8778 648,-582.8519 648,-582.8519 648,-582.8519 644.0001,-582.8778 647.9767,-579.252 640.0002,-582.9037 640.0002,-582.9037"/>
<ellipse fill="none" stroke="#000000" cx="636.8002" cy="-582.9244" rx="3.2" ry="3.2"/>
</g>
<!-- ProfessorCompetencyAssignments&#45;&gt;EvaluationPeriods -->
<g id="edge23" class="edge">
<title>ProfessorCompetencyAssignments:w&#45;&gt;EvaluationPeriods:e</title>
<path fill="none" stroke="#000000" d="M633.7829,-579.8206C607.2709,-565.1083 643.9299,-500.7594 607,-473.8519 554.9437,-435.9231 381.9085,-459.8519 317.5,-459.8519"/>
<polygon fill="#000000" stroke="#000000" points="640.1759,-581.1836 647.2493,-586.3727 644.0879,-582.0177 648,-582.8519 648,-582.8519 648,-582.8519 644.0879,-582.0177 648.7507,-579.331 640.1759,-581.1836 640.1759,-581.1836"/>
<ellipse fill="none" stroke="#000000" cx="637.0462" cy="-580.5163" rx="3.2" ry="3.2"/>
</g>
<!-- Professors -->
<g id="node15" class="node">
<title>Professors</title>
<g id="a_node15"><a xlink:href="../../tables/Professors.html" xlink:title="Professors" target="_top">
<polygon fill="#ffffff" stroke="transparent" points="195,-514.3519 195,-575.3519 296,-575.3519 296,-514.3519 195,-514.3519"/>
<polygon fill="#f5f5f5" stroke="transparent" points="195.5,-551.8519 195.5,-574.8519 296.5,-574.8519 296.5,-551.8519 195.5,-551.8519"/>
<polygon fill="none" stroke="#000000" points="195.5,-551.8519 195.5,-574.8519 296.5,-574.8519 296.5,-551.8519 195.5,-551.8519"/>
<text text-anchor="start" x="200.5" y="-560.4519" font-family="Helvetica,sans-Serif" font-weight="bold" font-size="11.00" fill="#000000">Professors</text>
<text text-anchor="start" x="262.0219" y="-559.9519" font-family="Helvetica,sans-Serif" font-size="11.00" fill="#000000">[table]</text>
<polygon fill="none" stroke="#000000" points="195.5,-532.8519 195.5,-551.8519 296.5,-551.8519 296.5,-532.8519 195.5,-532.8519"/>
<text text-anchor="start" x="198.5" y="-538.9519" font-family="Helvetica,sans-Serif" font-size="11.00" fill="#000000">...</text>
<polygon fill="#ffffff" stroke="transparent" points="195.5,-513.8519 195.5,-532.8519 226.5,-532.8519 226.5,-513.8519 195.5,-513.8519"/>
<polygon fill="none" stroke="#000000" points="195.5,-513.8519 195.5,-532.8519 226.5,-532.8519 226.5,-513.8519 195.5,-513.8519"/>
<text text-anchor="start" x="198.5" y="-519.9519" font-family="Helvetica,sans-Serif" font-size="11.00" fill="#000000">&lt; 1</text>
<polygon fill="#ffffff" stroke="transparent" points="226.5,-513.8519 226.5,-532.8519 269.5,-532.8519 269.5,-513.8519 226.5,-513.8519"/>
<polygon fill="none" stroke="#000000" points="226.5,-513.8519 226.5,-532.8519 269.5,-532.8519 269.5,-513.8519 226.5,-513.8519"/>
<text text-anchor="start" x="234.1105" y="-519.9519" font-family="Helvetica,sans-Serif" font-size="11.00" fill="#000000">0 rows</text>
<polygon fill="#ffffff" stroke="transparent" points="269.5,-513.8519 269.5,-532.8519 296.5,-532.8519 296.5,-513.8519 269.5,-513.8519"/>
<polygon fill="none" stroke="#000000" points="269.5,-513.8519 269.5,-532.8519 296.5,-532.8519 296.5,-513.8519 269.5,-513.8519"/>
<text text-anchor="start" x="277.9053" y="-519.9519" font-family="Helvetica,sans-Serif" font-size="11.00" fill="#000000">2 &gt;</text>
</a>
</g>
</g>
<!-- ProfessorCompetencyAssignments&#45;&gt;Professors -->
<g id="edge24" class="edge">
<title>ProfessorCompetencyAssignments:w&#45;&gt;Professors:e</title>
<path fill="none" stroke="#000000" d="M633.4135,-582.8178C517.2159,-582.2569 482.6615,-574.7086 361,-555.8519 332.0119,-551.3589 325.8342,-541.8519 296.5,-541.8519"/>
<polygon fill="#000000" stroke="#000000" points="640,-582.8331 647.9916,-586.4519 644,-582.8425 648,-582.8519 648,-582.8519 648,-582.8519 644,-582.8425 648.0084,-579.2519 640,-582.8331 640,-582.8331"/>
<ellipse fill="none" stroke="#000000" cx="636.8" cy="-582.8256" rx="3.2" ry="3.2"/>
</g>
<!-- Subjects -->
<g id="node16" class="node">
<title>Subjects</title>
<g id="a_node16"><a xlink:href="../../tables/Subjects.html" xlink:title="Subjects" target="_top">
<polygon fill="#ffffff" stroke="transparent" points="439.5,-374.3519 439.5,-435.3519 528.5,-435.3519 528.5,-374.3519 439.5,-374.3519"/>
<polygon fill="#f5f5f5" stroke="transparent" points="440,-411.8519 440,-434.8519 529,-434.8519 529,-411.8519 440,-411.8519"/>
<polygon fill="none" stroke="#000000" points="440,-411.8519 440,-434.8519 529,-434.8519 529,-411.8519 440,-411.8519"/>
<text text-anchor="start" x="445" y="-420.4519" font-family="Helvetica,sans-Serif" font-weight="bold" font-size="11.00" fill="#000000">Subjects</text>
<text text-anchor="start" x="494.5219" y="-419.9519" font-family="Helvetica,sans-Serif" font-size="11.00" fill="#000000">[table]</text>
<polygon fill="none" stroke="#000000" points="440,-392.8519 440,-411.8519 529,-411.8519 529,-392.8519 440,-392.8519"/>
<text text-anchor="start" x="443" y="-398.9519" font-family="Helvetica,sans-Serif" font-size="11.00" fill="#000000">...</text>
<polygon fill="#ffffff" stroke="transparent" points="440,-373.8519 440,-392.8519 465,-392.8519 465,-373.8519 440,-373.8519"/>
<polygon fill="none" stroke="#000000" points="440,-373.8519 440,-392.8519 465,-392.8519 465,-373.8519 440,-373.8519"/>
<text text-anchor="start" x="443" y="-379.9519" font-family="Helvetica,sans-Serif" font-size="11.00" fill="#000000">&lt; 4</text>
<polygon fill="#ffffff" stroke="transparent" points="465,-373.8519 465,-392.8519 505,-392.8519 505,-373.8519 465,-373.8519"/>
<polygon fill="none" stroke="#000000" points="465,-373.8519 465,-392.8519 505,-392.8519 505,-373.8519 465,-373.8519"/>
<text text-anchor="start" x="469.6105" y="-379.9519" font-family="Helvetica,sans-Serif" font-size="11.00" fill="#000000">0 rows</text>
<polygon fill="#ffffff" stroke="transparent" points="505,-373.8519 505,-392.8519 529,-392.8519 529,-373.8519 505,-373.8519"/>
<polygon fill="none" stroke="#000000" points="505,-373.8519 505,-392.8519 529,-392.8519 529,-373.8519 505,-373.8519"/>
<text text-anchor="start" x="510.4053" y="-379.9519" font-family="Helvetica,sans-Serif" font-size="11.00" fill="#000000">3 &gt;</text>
</a>
</g>
</g>
<!-- ProfessorCompetencyAssignments&#45;&gt;Subjects -->
<g id="edge25" class="edge">
<title>ProfessorCompetencyAssignments:w&#45;&gt;Subjects:e</title>
<path fill="none" stroke="#000000" d="M633.6037,-580.7327C596.3078,-567.3926 641.329,-494.168 607,-449.8519 582.0726,-417.6725 569.7049,-401.8519 529,-401.8519"/>
<polygon fill="#000000" stroke="#000000" points="640.0853,-581.6868 647.4757,-586.4135 644.0426,-582.2693 648,-582.8519 648,-582.8519 648,-582.8519 644.0426,-582.2693 648.5243,-579.2903 640.0853,-581.6868 640.0853,-581.6868"/>
<ellipse fill="none" stroke="#000000" cx="636.9194" cy="-581.2207" rx="3.2" ry="3.2"/>
</g>
<!-- Professors&#45;&gt;AspNetUsers -->
<g id="edge28" class="edge">
<title>Professors:w&#45;&gt;AspNetUsers:e</title>
<path fill="none" stroke="#000000" d="M185.0734,-542.4812C150.1167,-546.6573 117.9468,-570.8607 95.722,-592.2791"/>
<polygon fill="#000000" stroke="#000000" points="194.4604,-537.9073 194.9425,-545.8928 193.3454,-545.9892 192.8633,-538.0038 194.4604,-537.9073"/>
<polyline fill="none" stroke="#000000" points="195.5,-541.8519 191.5073,-542.0929 "/>
<ellipse fill="none" stroke="#000000" cx="188.3131" cy="-542.2857" rx="3.2" ry="3.2"/>
</g>
<!-- Subjects&#45;&gt;AspNetUsers -->
<g id="edge48" class="edge">
<title>Subjects:w&#45;&gt;AspNetUsers:e</title>
<path fill="none" stroke="#000000" d="M425.5114,-400.9322C312.3564,-392.0758 260.8958,-349.0973 163,-415.8519 103.5199,-456.411 79.0405,-543.3253 69.8871,-592.0636"/>
<polygon fill="#000000" stroke="#000000" points="432.0161,-401.345 439.7719,-405.4446 436.008,-401.5985 440,-401.8519 440,-401.8519 440,-401.8519 436.008,-401.5985 440.2281,-398.2591 432.0161,-401.345 432.0161,-401.345"/>
<ellipse fill="none" stroke="#000000" cx="428.8225" cy="-401.1423" rx="3.2" ry="3.2"/>
</g>
<!-- Subjects&#45;&gt;AspNetUsers -->
<g id="edge51" class="edge">
<title>Subjects:w&#45;&gt;AspNetUsers:e</title>
<path fill="none" stroke="#000000" d="M425.5114,-402.4321C312.3564,-405.0758 260.8958,-362.0973 163,-428.8519 106.9421,-467.0774 81.9732,-546.4777 71.6229,-592.3454"/>
<polygon fill="#000000" stroke="#000000" points="432.0064,-402.172 440.1441,-405.449 436.0032,-402.0119 440,-401.8519 440,-401.8519 440,-401.8519 436.0032,-402.0119 439.8559,-398.2548 432.0064,-402.172 432.0064,-402.172"/>
<ellipse fill="none" stroke="#000000" cx="428.809" cy="-402.3001" rx="3.2" ry="3.2"/>
</g>
<!-- Subjects&#45;&gt;TechnicalCareers -->
<g id="edge50" class="edge">
<title>Subjects:w&#45;&gt;TechnicalCareers:e</title>
<path fill="none" stroke="#000000" d="M425.3546,-403.0397C390.8255,-409.15 383.3447,-438.1425 361,-473.8519 333.4732,-517.8429 361.3535,-546.0966 328,-585.8519 326.1496,-588.0574 324.1516,-590.1555 322.0358,-592.1503"/>
<polygon fill="#000000" stroke="#000000" points="432.0262,-402.4986 440.291,-405.4401 436.0131,-402.1752 440,-401.8519 440,-401.8519 440,-401.8519 436.0131,-402.1752 439.709,-398.2637 432.0262,-402.4986 432.0262,-402.4986"/>
<ellipse fill="none" stroke="#000000" cx="428.8367" cy="-402.7573" rx="3.2" ry="3.2"/>
</g>
<!-- Subjects&#45;&gt;Professors -->
<g id="edge49" class="edge">
<title>Subjects:w&#45;&gt;Professors:e</title>
<path fill="none" stroke="#000000" d="M425.6525,-403.2792C392.5784,-410.5595 391.0814,-444.3637 361,-473.8519 331.2534,-503.0118 338.1553,-541.8519 296.5,-541.8519"/>
<polygon fill="#000000" stroke="#000000" points="432.0393,-402.6439 440.3564,-405.4342 436.0196,-402.2479 440,-401.8519 440,-401.8519 440,-401.8519 436.0196,-402.2479 439.6436,-398.2696 432.0393,-402.6439 432.0393,-402.6439"/>
<ellipse fill="none" stroke="#000000" cx="428.855" cy="-402.9606" rx="3.2" ry="3.2"/>
</g>
<!-- QuestionResponses -->
<g id="node17" class="node">
<title>QuestionResponses</title>
<g id="a_node17"><a xlink:href="../../tables/QuestionResponses.html" xlink:title="QuestionResponses" target="_top">
<polygon fill="#ffffff" stroke="transparent" points="1211,-131.3519 1211,-192.3519 1366,-192.3519 1366,-131.3519 1211,-131.3519"/>
<polygon fill="#f5f5f5" stroke="transparent" points="1211.5,-168.8519 1211.5,-191.8519 1366.5,-191.8519 1366.5,-168.8519 1211.5,-168.8519"/>
<polygon fill="none" stroke="#000000" points="1211.5,-168.8519 1211.5,-191.8519 1366.5,-191.8519 1366.5,-168.8519 1211.5,-168.8519"/>
<text text-anchor="start" x="1216.5" y="-177.4519" font-family="Helvetica,sans-Serif" font-weight="bold" font-size="11.00" fill="#000000">QuestionResponses</text>
<text text-anchor="start" x="1332.0219" y="-176.9519" font-family="Helvetica,sans-Serif" font-size="11.00" fill="#000000">[table]</text>
<polygon fill="none" stroke="#000000" points="1211.5,-149.8519 1211.5,-168.8519 1366.5,-168.8519 1366.5,-149.8519 1211.5,-149.8519"/>
<text text-anchor="start" x="1214.5" y="-155.9519" font-family="Helvetica,sans-Serif" font-size="11.00" fill="#000000">...</text>
<polygon fill="#ffffff" stroke="transparent" points="1211.5,-130.8519 1211.5,-149.8519 1274.5,-149.8519 1274.5,-130.8519 1211.5,-130.8519"/>
<polygon fill="none" stroke="#000000" points="1211.5,-130.8519 1211.5,-149.8519 1274.5,-149.8519 1274.5,-130.8519 1211.5,-130.8519"/>
<text text-anchor="start" x="1214.5" y="-136.9519" font-family="Helvetica,sans-Serif" font-size="11.00" fill="#000000">&lt; 4</text>
<polygon fill="#ffffff" stroke="transparent" points="1274.5,-130.8519 1274.5,-149.8519 1333.5,-149.8519 1333.5,-130.8519 1274.5,-130.8519"/>
<polygon fill="none" stroke="#000000" points="1274.5,-130.8519 1274.5,-149.8519 1333.5,-149.8519 1333.5,-130.8519 1274.5,-130.8519"/>
<text text-anchor="start" x="1298.1105" y="-136.9519" font-family="Helvetica,sans-Serif" font-size="11.00" fill="#000000">0 rows</text>
<polygon fill="#ffffff" stroke="transparent" points="1333.5,-130.8519 1333.5,-149.8519 1366.5,-149.8519 1366.5,-130.8519 1333.5,-130.8519"/>
<polygon fill="none" stroke="#000000" points="1333.5,-130.8519 1333.5,-149.8519 1366.5,-149.8519 1366.5,-130.8519 1333.5,-130.8519"/>
<text text-anchor="start" x="1357.3862" y="-136.9519" font-family="Helvetica,sans-Serif" font-size="11.00" fill="#000000"> &#160;</text>
</a>
</g>
</g>
<!-- QuestionResponses&#45;&gt;AspNetUsers -->
<g id="edge29" class="edge">
<title>QuestionResponses:w&#45;&gt;AspNetUsers:e</title>
<path fill="none" stroke="#000000" d="M1197.1355,-157.5388C1089.64,-144.7719 864.9244,-60.8519 769,-60.8519 769,-60.8519 769,-60.8519 484,-60.8519 340.9676,-60.8519 269.4974,11.6289 163,-83.8519 87.2341,-151.7801 69.6208,-483.6287 65.9119,-592.3503"/>
<polygon fill="#000000" stroke="#000000" points="1203.5332,-158.1236 1211.1723,-162.4369 1207.5166,-158.4877 1211.5,-158.8519 1211.5,-158.8519 1211.5,-158.8519 1207.5166,-158.4877 1211.8277,-155.2668 1203.5332,-158.1236 1203.5332,-158.1236"/>
<ellipse fill="none" stroke="#000000" cx="1200.3465" cy="-157.8322" rx="3.2" ry="3.2"/>
</g>
<!-- QuestionResponses&#45;&gt;AspNetUsers -->
<g id="edge32" class="edge">
<title>QuestionResponses:w&#45;&gt;AspNetUsers:e</title>
<path fill="none" stroke="#000000" d="M1196.8054,-159.2085C1089.1806,-157.6004 864.8263,-73.8519 769,-73.8519 769,-73.8519 769,-73.8519 484,-73.8519 340.9676,-73.8519 269.4974,-1.3711 163,-96.8519 88.5571,-163.5939 70.2537,-485.1196 66.1191,-592.1743"/>
<polygon fill="#000000" stroke="#000000" points="1203.5024,-159.046 1211.5874,-162.4508 1207.5012,-158.949 1211.5,-158.8519 1211.5,-158.8519 1211.5,-158.8519 1207.5012,-158.949 1211.4126,-155.2529 1203.5024,-159.046 1203.5024,-159.046"/>
<ellipse fill="none" stroke="#000000" cx="1200.3033" cy="-159.1237" rx="3.2" ry="3.2"/>
</g>
<!-- QuestionResponses&#45;&gt;FormQuestions -->
<g id="edge30" class="edge">
<title>QuestionResponses:w&#45;&gt;FormQuestions:e</title>
<path fill="none" stroke="#000000" d="M1197.2625,-161.6886C1176.2973,-172.1799 1187.6822,-209.6837 1170,-238.8519 1060.8269,-418.9419 1045.8324,-476.8625 898,-626.8519 763.2638,-763.5539 739.9408,-879.8519 548,-879.8519"/>
<polygon fill="#000000" stroke="#000000" points="1203.6542,-160.4151 1212.2035,-162.3825 1207.5771,-159.6335 1211.5,-158.8519 1211.5,-158.8519 1211.5,-158.8519 1207.5771,-159.6335 1210.7965,-155.3213 1203.6542,-160.4151 1203.6542,-160.4151"/>
<ellipse fill="none" stroke="#000000" cx="1200.5159" cy="-161.0404" rx="3.2" ry="3.2"/>
</g>
<!-- StudentCompetencyEvaluations -->
<g id="node18" class="node">
<title>StudentCompetencyEvaluations</title>
<g id="a_node18"><a xlink:href="../../tables/StudentCompetencyEvaluations.html" xlink:title="StudentCompetencyEvaluations" target="_top">
<polygon fill="#ffffff" stroke="transparent" points="939,-167.3519 939,-228.3519 1162,-228.3519 1162,-167.3519 939,-167.3519"/>
<polygon fill="#f5f5f5" stroke="transparent" points="939.5,-204.8519 939.5,-227.8519 1162.5,-227.8519 1162.5,-204.8519 939.5,-204.8519"/>
<polygon fill="none" stroke="#000000" points="939.5,-204.8519 939.5,-227.8519 1162.5,-227.8519 1162.5,-204.8519 939.5,-204.8519"/>
<text text-anchor="start" x="944.5" y="-213.4519" font-family="Helvetica,sans-Serif" font-weight="bold" font-size="11.00" fill="#000000">StudentCompetencyEvaluations</text>
<text text-anchor="start" x="1128.0219" y="-212.9519" font-family="Helvetica,sans-Serif" font-size="11.00" fill="#000000">[table]</text>
<polygon fill="none" stroke="#000000" points="939.5,-185.8519 939.5,-204.8519 1162.5,-204.8519 1162.5,-185.8519 939.5,-185.8519"/>
<text text-anchor="start" x="942.5" y="-191.9519" font-family="Helvetica,sans-Serif" font-size="11.00" fill="#000000">...</text>
<polygon fill="#ffffff" stroke="transparent" points="939.5,-166.8519 939.5,-185.8519 1031.5,-185.8519 1031.5,-166.8519 939.5,-166.8519"/>
<polygon fill="none" stroke="#000000" points="939.5,-166.8519 939.5,-185.8519 1031.5,-185.8519 1031.5,-166.8519 939.5,-166.8519"/>
<text text-anchor="start" x="942.5" y="-172.9519" font-family="Helvetica,sans-Serif" font-size="11.00" fill="#000000">&lt; 5</text>
<polygon fill="#ffffff" stroke="transparent" points="1031.5,-166.8519 1031.5,-185.8519 1105.5,-185.8519 1105.5,-166.8519 1031.5,-166.8519"/>
<polygon fill="none" stroke="#000000" points="1031.5,-166.8519 1031.5,-185.8519 1105.5,-185.8519 1105.5,-166.8519 1031.5,-166.8519"/>
<text text-anchor="start" x="1070.1105" y="-172.9519" font-family="Helvetica,sans-Serif" font-size="11.00" fill="#000000">0 rows</text>
<polygon fill="#ffffff" stroke="transparent" points="1105.5,-166.8519 1105.5,-185.8519 1162.5,-185.8519 1162.5,-166.8519 1105.5,-166.8519"/>
<polygon fill="none" stroke="#000000" points="1105.5,-166.8519 1105.5,-185.8519 1162.5,-185.8519 1162.5,-166.8519 1105.5,-166.8519"/>
<text text-anchor="start" x="1143.9053" y="-172.9519" font-family="Helvetica,sans-Serif" font-size="11.00" fill="#000000">1 &gt;</text>
</a>
</g>
</g>
<!-- QuestionResponses&#45;&gt;StudentCompetencyEvaluations -->
<g id="edge31" class="edge">
<title>QuestionResponses:w&#45;&gt;StudentCompetencyEvaluations:e</title>
<path fill="none" stroke="#000000" d="M1196.7901,-159.3379C1185.9139,-160.0344 1174.8887,-161.4429 1164.0229,-163.3257"/>
<polygon fill="#000000" stroke="#000000" points="1203.5044,-159.1161 1211.6189,-162.4499 1207.5022,-158.984 1211.5,-158.8519 1211.5,-158.8519 1211.5,-158.8519 1207.5022,-158.984 1211.3811,-155.2538 1203.5044,-159.1161 1203.5044,-159.1161"/>
<ellipse fill="none" stroke="#000000" cx="1200.3061" cy="-159.2218" rx="3.2" ry="3.2"/>
</g>
<!-- StudentCompetencyEvaluations&#45;&gt;AspNetUsers -->
<g id="edge33" class="edge">
<title>StudentCompetencyEvaluations:w&#45;&gt;AspNetUsers:e</title>
<path fill="none" stroke="#000000" d="M982.2821,-157.0215C956.5636,-145.1507 926.6035,-133.8155 898,-127.8519 738.0759,-94.5091 284.7531,-32.9315 163,-141.8519 95.8631,-201.9126 72.6867,-491.6495 66.7259,-592.3462"/>
<polygon fill="#000000" stroke="#000000" points="988.0974,-159.8017 993.7621,-166.5003 991.7061,-161.5271 995.3149,-163.2524 995.3149,-163.2524 995.3149,-163.2524 991.7061,-161.5271 996.8677,-160.0045 988.0974,-159.8017 988.0974,-159.8017"/>
<ellipse fill="none" stroke="#000000" cx="985.2103" cy="-158.4215" rx="3.2" ry="3.2"/>
</g>
<!-- StudentCompetencyEvaluations&#45;&gt;AspNetUsers -->
<g id="edge37" class="edge">
<title>StudentCompetencyEvaluations:w&#45;&gt;AspNetUsers:e</title>
<path fill="none" stroke="#000000" d="M954.553,-157.9615C936.1751,-151.0081 916.7947,-144.7704 898,-140.8519 738.0759,-107.5091 284.7531,-45.9315 163,-154.8519 97.2074,-213.71 73.6325,-493.1385 67.1049,-592.1003"/>
<polygon fill="#000000" stroke="#000000" points="960.6111,-160.3378 966.744,-166.6106 964.3349,-161.7985 968.0586,-163.2592 968.0586,-163.2592 968.0586,-163.2592 964.3349,-161.7985 969.3733,-159.9078 960.6111,-160.3378 960.6111,-160.3378"/>
<ellipse fill="none" stroke="#000000" cx="957.6321" cy="-159.1692" rx="3.2" ry="3.2"/>
</g>
<!-- StudentCompetencyEvaluations&#45;&gt;ProfessorCompetencyAssignments -->
<g id="edge34" class="edge">
<title>StudentCompetencyEvaluations:w&#45;&gt;ProfessorCompetencyAssignments:e</title>
<path fill="none" stroke="#000000" d="M1040.8774,-246.6673C1019.0506,-350.2927 962.0411,-582.8519 890,-582.8519"/>
<polygon fill="#000000" stroke="#000000" points="1042.2182,-240.1908 1047.3653,-233.0867 1043.0291,-236.2738 1043.84,-232.3569 1043.84,-232.3569 1043.84,-232.3569 1043.0291,-236.2738 1040.3148,-231.627 1042.2182,-240.1908 1042.2182,-240.1908"/>
<ellipse fill="none" stroke="#000000" cx="1041.5694" cy="-243.3243" rx="3.2" ry="3.2"/>
</g>
<!-- StudentCompetencyEvaluations&#45;&gt;Subjects -->
<g id="edge36" class="edge">
<title>StudentCompetencyEvaluations:w&#45;&gt;Subjects:e</title>
<path fill="none" stroke="#000000" d="M1019.9665,-244.4865C992.7457,-281.862 949.3334,-332.1602 898,-357.8519 750.3036,-431.772 694.1618,-401.8519 529,-401.8519"/>
<polygon fill="#000000" stroke="#000000" points="1023.9375,-238.8867 1031.5017,-234.4435 1026.2513,-235.6239 1028.5652,-232.361 1028.5652,-232.361 1028.5652,-232.361 1026.2513,-235.6239 1025.6286,-230.2786 1023.9375,-238.8867 1023.9375,-238.8867"/>
<ellipse fill="none" stroke="#000000" cx="1022.0864" cy="-241.497" rx="3.2" ry="3.2"/>
</g>
<!-- Students -->
<g id="node19" class="node">
<title>Students</title>
<g id="a_node19"><a xlink:href="../../tables/Students.html" xlink:title="Students" target="_top">
<polygon fill="#ffffff" stroke="transparent" points="372.5,-174.8519 372.5,-286.8519 595.5,-286.8519 595.5,-174.8519 372.5,-174.8519"/>
<polygon fill="#f5f5f5" stroke="transparent" points="375,-261.8519 375,-284.8519 594,-284.8519 594,-261.8519 375,-261.8519"/>
<polygon fill="none" stroke="#000000" points="375,-261.8519 375,-284.8519 594,-284.8519 594,-261.8519 375,-261.8519"/>
<text text-anchor="start" x="380" y="-270.4519" font-family="Helvetica,sans-Serif" font-weight="bold" font-size="11.00" fill="#000000">Students</text>
<text text-anchor="start" x="559.0437" y="-269.9519" font-family="Helvetica,sans-Serif" font-size="11.00" fill="#000000">[table]</text>
<polygon fill="none" stroke="#000000" points="375,-239.8519 375,-261.8519 500,-261.8519 500,-239.8519 375,-239.8519"/>
<image xlink:href="../../images/primaryKeys.png" width="11px" height="12px" preserveAspectRatio="xMinYMin meet" x="380" y="-256.852"/>
<text text-anchor="start" x="395" y="-246.9519" font-family="Helvetica,sans-Serif" font-size="11.00" fill="#000000">UserId</text>
<polygon fill="none" stroke="#000000" points="500,-239.8519 500,-261.8519 594,-261.8519 594,-239.8519 500,-239.8519"/>
<text text-anchor="start" x="503" y="-247.5519" font-family="Helvetica,sans-Serif" font-size="11.00" fill="#000000">text[2147483647]</text>
<polygon fill="none" stroke="#000000" points="375,-217.8519 375,-239.8519 500,-239.8519 500,-217.8519 375,-217.8519"/>
<text text-anchor="start" x="395" y="-224.9519" font-family="Helvetica,sans-Serif" font-size="11.00" fill="#000000">CurrentYear</text>
<polygon fill="none" stroke="#000000" points="500,-217.8519 500,-239.8519 594,-239.8519 594,-217.8519 500,-217.8519"/>
<text text-anchor="start" x="503" y="-225.5519" font-family="Helvetica,sans-Serif" font-size="11.00" fill="#000000">int4[10]</text>
<polygon fill="#ffffff" stroke="transparent" points="375,-195.8519 375,-217.8519 500,-217.8519 500,-195.8519 375,-195.8519"/>
<polygon fill="none" stroke="#000000" points="375,-195.8519 375,-217.8519 500,-217.8519 500,-195.8519 375,-195.8519"/>
<image xlink:href="../../images/foreignKeys.png" width="11px" height="12px" preserveAspectRatio="xMinYMin meet" x="380" y="-212.852"/>
<text text-anchor="start" x="395" y="-202.9519" font-family="Helvetica,sans-Serif" font-size="11.00" fill="#000000">TechnicalCareerId</text>
<polygon fill="none" stroke="#000000" points="500,-195.8519 500,-217.8519 594,-217.8519 594,-195.8519 500,-195.8519"/>
<text text-anchor="start" x="502.9758" y="-203.5519" font-family="Helvetica,sans-Serif" font-size="11.00" fill="#000000">uuid[2147483647]</text>
<polygon fill="#ffffff" stroke="transparent" points="375,-176.8519 375,-195.8519 429,-195.8519 429,-176.8519 375,-176.8519"/>
<polygon fill="none" stroke="#000000" points="375,-176.8519 375,-195.8519 429,-195.8519 429,-176.8519 375,-176.8519"/>
<text text-anchor="start" x="378" y="-182.9519" font-family="Helvetica,sans-Serif" font-size="11.00" fill="#000000">&lt; 2</text>
<polygon fill="#ffffff" stroke="transparent" points="429,-176.8519 429,-195.8519 500,-195.8519 500,-176.8519 429,-176.8519"/>
<polygon fill="none" stroke="#000000" points="429,-176.8519 429,-195.8519 500,-195.8519 500,-176.8519 429,-176.8519"/>
<text text-anchor="start" x="464.6105" y="-182.9519" font-family="Helvetica,sans-Serif" font-size="11.00" fill="#000000">0 rows</text>
<polygon fill="#ffffff" stroke="transparent" points="500,-176.8519 500,-195.8519 594,-195.8519 594,-176.8519 500,-176.8519"/>
<polygon fill="none" stroke="#000000" points="500,-176.8519 500,-195.8519 594,-195.8519 594,-176.8519 500,-176.8519"/>
<text text-anchor="start" x="575.4053" y="-182.9519" font-family="Helvetica,sans-Serif" font-size="11.00" fill="#000000">3 &gt;</text>
<polygon fill="none" stroke="#000000" stroke-width="2" points="373.5,-175.8519 373.5,-285.8519 594.5,-285.8519 594.5,-175.8519 373.5,-175.8519"/>
</a>
</g>
</g>
<!-- StudentCompetencyEvaluations&#45;&gt;Students -->
<g id="edge35" class="edge">
<title>StudentCompetencyEvaluations:w&#45;&gt;Students:e</title>
<path fill="none" stroke="#000000" d="M916.5187,-221.6581C825.7977,-235.7423 703.0573,-250.8519 594,-250.8519"/>
<polygon fill="#000000" stroke="#000000" points="922.8943,-220.6539 931.3571,-222.9652 926.8456,-220.0314 930.7969,-219.409 930.7969,-219.409 930.7969,-219.409 926.8456,-220.0314 930.2367,-215.8529 922.8943,-220.6539 922.8943,-220.6539"/>
<ellipse fill="none" stroke="#000000" cx="919.7333" cy="-221.1518" rx="3.2" ry="3.2"/>
</g>
<!-- Students&#45;&gt;AspNetUsers -->
<g id="edge43" class="edge">
<title>Students:w&#45;&gt;AspNetUsers:e</title>
<path fill="none" stroke="#000000" d="M364.4339,-250.7894C274.8393,-249.7519 230.8732,-236.9595 163,-300.8519 120.0753,-341.2591 84.537,-516.6689 70.941,-592.1276"/>
<polygon fill="#000000" stroke="#000000" points="374.2237,-246.8472 374.1763,-254.8471 372.5763,-254.8376 372.6237,-246.8377 374.2237,-246.8472"/>
<polyline fill="none" stroke="#000000" points="375,-250.8519 371.0001,-250.8282 "/>
<ellipse fill="none" stroke="#000000" cx="367.8001" cy="-250.8092" rx="3.2" ry="3.2"/>
</g>
<!-- Students&#45;&gt;TechnicalCareers -->
<g id="edge42" class="edge">
<title>Students:w&#45;&gt;TechnicalCareers:e</title>
<path fill="none" stroke="#000000" d="M361.0255,-210.3475C300.4682,-244.6318 374.0007,-520.9347 328,-585.8519 326.428,-588.0704 324.7009,-590.175 322.8464,-592.1712"/>
<polygon fill="#000000" stroke="#000000" points="367.2391,-208.7932 375.8736,-210.3443 371.1196,-207.8226 375,-206.8519 375,-206.8519 375,-206.8519 371.1196,-207.8226 374.1264,-203.3595 367.2391,-208.7932 367.2391,-208.7932"/>
<ellipse fill="none" stroke="#000000" cx="364.1348" cy="-209.5698" rx="3.2" ry="3.2"/>
</g>
<!-- StudentEvaluationReport -->
<g id="node20" class="node">
<title>StudentEvaluationReport</title>
<g id="a_node20"><a xlink:href="../../tables/StudentEvaluationReport.html" xlink:title="StudentEvaluationReport" target="_top">
<polygon fill="#ffffff" stroke="transparent" points="677.5,-286.3519 677.5,-347.3519 860.5,-347.3519 860.5,-286.3519 677.5,-286.3519"/>
<polygon fill="#f5f5f5" stroke="transparent" points="678,-323.8519 678,-346.8519 861,-346.8519 861,-323.8519 678,-323.8519"/>
<polygon fill="none" stroke="#000000" points="678,-323.8519 678,-346.8519 861,-346.8519 861,-323.8519 678,-323.8519"/>
<text text-anchor="start" x="683" y="-332.4519" font-family="Helvetica,sans-Serif" font-weight="bold" font-size="11.00" fill="#000000">StudentEvaluationReport</text>
<text text-anchor="start" x="826.5219" y="-331.9519" font-family="Helvetica,sans-Serif" font-size="11.00" fill="#000000">[table]</text>
<polygon fill="none" stroke="#000000" points="678,-304.8519 678,-323.8519 861,-323.8519 861,-304.8519 678,-304.8519"/>
<text text-anchor="start" x="681" y="-310.9519" font-family="Helvetica,sans-Serif" font-size="11.00" fill="#000000">...</text>
<polygon fill="#ffffff" stroke="transparent" points="678,-285.8519 678,-304.8519 755,-304.8519 755,-285.8519 678,-285.8519"/>
<polygon fill="none" stroke="#000000" points="678,-285.8519 678,-304.8519 755,-304.8519 755,-285.8519 678,-285.8519"/>
<text text-anchor="start" x="681" y="-291.9519" font-family="Helvetica,sans-Serif" font-size="11.00" fill="#000000">&lt; 4</text>
<polygon fill="#ffffff" stroke="transparent" points="755,-285.8519 755,-304.8519 821,-304.8519 821,-285.8519 755,-285.8519"/>
<polygon fill="none" stroke="#000000" points="755,-285.8519 755,-304.8519 821,-304.8519 821,-285.8519 755,-285.8519"/>
<text text-anchor="start" x="785.6105" y="-291.9519" font-family="Helvetica,sans-Serif" font-size="11.00" fill="#000000">0 rows</text>
<polygon fill="#ffffff" stroke="transparent" points="821,-285.8519 821,-304.8519 861,-304.8519 861,-285.8519 821,-285.8519"/>
<polygon fill="none" stroke="#000000" points="821,-285.8519 821,-304.8519 861,-304.8519 861,-285.8519 821,-285.8519"/>
<text text-anchor="start" x="851.8862" y="-291.9519" font-family="Helvetica,sans-Serif" font-size="11.00" fill="#000000"> &#160;</text>
</a>
</g>
</g>
<!-- StudentEvaluationReport&#45;&gt;AspNetUsers -->
<g id="edge38" class="edge">
<title>StudentEvaluationReport:w&#45;&gt;AspNetUsers:e</title>
<path fill="none" stroke="#000000" d="M654.6657,-310.125C499.7279,-306.8335 234.2184,-314.1327 163,-375.8519 98.0876,-432.1061 75.6904,-537.3849 68.352,-592.0553"/>
<polygon fill="#000000" stroke="#000000" points="661.3066,-310.2838 669.2182,-314.0741 665.3054,-310.3794 669.3043,-310.4751 669.3043,-310.4751 669.3043,-310.4751 665.3054,-310.3794 669.3904,-306.8761 661.3066,-310.2838 661.3066,-310.2838"/>
<ellipse fill="none" stroke="#000000" cx="658.1075" cy="-310.2072" rx="3.2" ry="3.2"/>
</g>
<!-- StudentEvaluationReport&#45;&gt;AspNetUsers -->
<g id="edge41" class="edge">
<title>StudentEvaluationReport:w&#45;&gt;AspNetUsers:e</title>
<path fill="none" stroke="#000000" d="M654.6657,-318.7455C499.7279,-319.8335 234.2184,-327.1327 163,-388.8519 101.3765,-442.2559 78.0692,-539.8425 69.587,-591.9985"/>
<polygon fill="#000000" stroke="#000000" points="661.3044,-318.7058 669.3258,-322.2579 665.3044,-318.6819 669.3043,-318.6579 669.3043,-318.6579 669.3043,-318.6579 665.3044,-318.6819 669.2827,-315.058 661.3044,-318.7058 661.3044,-318.7058"/>
<ellipse fill="none" stroke="#000000" cx="658.1045" cy="-318.725" rx="3.2" ry="3.2"/>
</g>
<!-- StudentEvaluationReport&#45;&gt;EvaluationPeriods -->
<g id="edge39" class="edge">
<title>StudentEvaluationReport:w&#45;&gt;EvaluationPeriods:e</title>
<path fill="none" stroke="#000000" d="M654.776,-328.643C536.169,-341.089 366.967,-359.5011 361,-363.8519 323.1505,-391.4496 364.3425,-459.8519 317.5,-459.8519"/>
<polygon fill="#000000" stroke="#000000" points="661.3809,-327.9514 669.7123,-330.6987 665.3591,-327.5348 669.3374,-327.1183 669.3374,-327.1183 669.3374,-327.1183 665.3591,-327.5348 668.9625,-323.5378 661.3809,-327.9514 661.3809,-327.9514"/>
<ellipse fill="none" stroke="#000000" cx="658.1983" cy="-328.2847" rx="3.2" ry="3.2"/>
</g>
<!-- StudentEvaluationReport&#45;&gt;Students -->
<g id="edge40" class="edge">
<title>StudentEvaluationReport:w&#45;&gt;Students:e</title>
<path fill="none" stroke="#000000" d="M696.3351,-276.1863C665.7048,-262.6019 629.0736,-250.8519 594,-250.8519"/>
<polygon fill="#000000" stroke="#000000" points="702.2585,-278.9365 707.9985,-285.5707 705.8865,-280.621 709.5145,-282.3055 709.5145,-282.3055 709.5145,-282.3055 705.8865,-280.621 711.0306,-279.0403 702.2585,-278.9365 702.2585,-278.9365"/>
<ellipse fill="none" stroke="#000000" cx="699.3561" cy="-277.5889" rx="3.2" ry="3.2"/>
</g>
<!-- StudentSubjects -->
<g id="node21" class="node">
<title>StudentSubjects</title>
<g id="a_node21"><a xlink:href="../../tables/StudentSubjects.html" xlink:title="StudentSubjects" target="_top">
<polygon fill="#ffffff" stroke="transparent" points="702.5,-144.3519 702.5,-205.3519 835.5,-205.3519 835.5,-144.3519 702.5,-144.3519"/>
<polygon fill="#f5f5f5" stroke="transparent" points="703,-181.8519 703,-204.8519 836,-204.8519 836,-181.8519 703,-181.8519"/>
<polygon fill="none" stroke="#000000" points="703,-181.8519 703,-204.8519 836,-204.8519 836,-181.8519 703,-181.8519"/>
<text text-anchor="start" x="708" y="-190.4519" font-family="Helvetica,sans-Serif" font-weight="bold" font-size="11.00" fill="#000000">StudentSubjects</text>
<text text-anchor="start" x="801.5219" y="-189.9519" font-family="Helvetica,sans-Serif" font-size="11.00" fill="#000000">[table]</text>
<polygon fill="none" stroke="#000000" points="703,-162.8519 703,-181.8519 836,-181.8519 836,-162.8519 703,-162.8519"/>
<text text-anchor="start" x="706" y="-168.9519" font-family="Helvetica,sans-Serif" font-size="11.00" fill="#000000">...</text>
<polygon fill="#ffffff" stroke="transparent" points="703,-143.8519 703,-162.8519 755,-162.8519 755,-143.8519 703,-143.8519"/>
<polygon fill="none" stroke="#000000" points="703,-143.8519 703,-162.8519 755,-162.8519 755,-143.8519 703,-143.8519"/>
<text text-anchor="start" x="706" y="-149.9519" font-family="Helvetica,sans-Serif" font-size="11.00" fill="#000000">&lt; 4</text>
<polygon fill="#ffffff" stroke="transparent" points="755,-143.8519 755,-162.8519 808,-162.8519 808,-143.8519 755,-143.8519"/>
<polygon fill="none" stroke="#000000" points="755,-143.8519 755,-162.8519 808,-162.8519 808,-143.8519 755,-143.8519"/>
<text text-anchor="start" x="772.6105" y="-149.9519" font-family="Helvetica,sans-Serif" font-size="11.00" fill="#000000">0 rows</text>
<polygon fill="#ffffff" stroke="transparent" points="808,-143.8519 808,-162.8519 836,-162.8519 836,-143.8519 808,-143.8519"/>
<polygon fill="none" stroke="#000000" points="808,-143.8519 808,-162.8519 836,-162.8519 836,-143.8519 808,-143.8519"/>
<text text-anchor="start" x="826.8862" y="-149.9519" font-family="Helvetica,sans-Serif" font-size="11.00" fill="#000000"> &#160;</text>
</a>
</g>
</g>
<!-- StudentSubjects&#45;&gt;AspNetUsers -->
<g id="edge44" class="edge">
<title>StudentSubjects:w&#45;&gt;AspNetUsers:e</title>
<path fill="none" stroke="#000000" d="M680.1235,-149.4771C544.8896,-120.4175 289.8112,-94.2455 163,-240.8519 117.0916,-293.9265 81.6099,-507.6425 69.5011,-592.227"/>
<polygon fill="#000000" stroke="#000000" points="686.6077,-150.9196 693.635,-156.171 690.5123,-151.7883 694.4168,-152.6569 694.4168,-152.6569 694.4168,-152.6569 690.5123,-151.7883 695.1986,-149.1429 686.6077,-150.9196 686.6077,-150.9196"/>
<ellipse fill="none" stroke="#000000" cx="683.4841" cy="-150.2247" rx="3.2" ry="3.2"/>
</g>
<!-- StudentSubjects&#45;&gt;AspNetUsers -->
<g id="edge47" class="edge">
<title>StudentSubjects:w&#45;&gt;AspNetUsers:e</title>
<path fill="none" stroke="#000000" d="M680.1235,-157.7316C544.8896,-133.4175 289.8112,-107.2455 163,-253.8519 118.2616,-305.5739 83.4252,-509.8535 70.4722,-592.2443"/>
<polygon fill="#000000" stroke="#000000" points="686.5501,-158.9195 693.7625,-163.9136 690.4834,-159.6465 694.4168,-160.3736 694.4168,-160.3736 694.4168,-160.3736 690.4834,-159.6465 695.0712,-156.8335 686.5501,-158.9195 686.5501,-158.9195"/>
<ellipse fill="none" stroke="#000000" cx="683.4034" cy="-158.3378" rx="3.2" ry="3.2"/>
</g>
<!-- StudentSubjects&#45;&gt;Subjects -->
<g id="edge46" class="edge">
<title>StudentSubjects:w&#45;&gt;Subjects:e</title>
<path fill="none" stroke="#000000" d="M708.67,-218.4169C686.3468,-235.4712 661.3054,-255.7464 640,-275.8519 585.7216,-327.0733 603.6309,-401.8519 529,-401.8519"/>
<polygon fill="#000000" stroke="#000000" points="714.0213,-214.3751 722.5748,-212.4262 717.2132,-211.9643 720.4051,-209.5535 720.4051,-209.5535 720.4051,-209.5535 717.2132,-211.9643 718.2354,-206.6808 714.0213,-214.3751 714.0213,-214.3751"/>
<ellipse fill="none" stroke="#000000" cx="711.4678" cy="-216.3038" rx="3.2" ry="3.2"/>
</g>
<!-- StudentSubjects&#45;&gt;Students -->
<g id="edge45" class="edge">
<title>StudentSubjects:w&#45;&gt;Students:e</title>
<path fill="none" stroke="#000000" d="M681.1176,-214.8011C640.1013,-233.1296 599.1184,-250.8519 594,-250.8519"/>
<polygon fill="#000000" stroke="#000000" points="687.0904,-212.1234 695.8631,-212.1356 690.7404,-210.487 694.3904,-208.8507 694.3904,-208.8507 694.3904,-208.8507 690.7404,-210.487 692.9176,-205.5657 687.0904,-212.1234 687.0904,-212.1234"/>
<ellipse fill="none" stroke="#000000" cx="684.1704" cy="-213.4325" rx="3.2" ry="3.2"/>
</g>
</g>
</svg>
