<?xml version="1.0" encoding="UTF-8" standalone="no"?>
<!DOCTYPE svg PUBLIC "-//W3C//DTD SVG 1.1//EN"
 "http://www.w3.org/Graphics/SVG/1.1/DTD/svg11.dtd">
<!-- Generated by graphviz version 2.40.1 (20161225.0304)
 -->
<!-- Title: oneDegreeRelationshipsDiagram Pages: 1 -->
<svg width="629pt" height="391pt"
 viewBox="0.00 0.00 629.00 391.20" xmlns="http://www.w3.org/2000/svg" xmlns:xlink="http://www.w3.org/1999/xlink">
<g id="graph0" class="graph" transform="scale(1 1) rotate(0) translate(4 387.2)">
<title>oneDegreeRelationshipsDiagram</title>
<polygon fill="#ffffff" stroke="transparent" points="-4,4 -4,-387.2 625,-387.2 625,4 -4,4"/>
<text text-anchor="middle" x="72.4936" y="-7.3" font-family="Helvetica,sans-Serif" font-size="11.00" fill="#000000">Generated by SchemaSpy</text>
<!-- Students -->
<g id="node1" class="node">
<title>Students</title>
<g id="a_node1"><a xlink:href="../../tables/Students.html" xlink:title="Students" target="_top">
<polygon fill="#ffffff" stroke="transparent" points="220,-274.2 220,-379.2 345,-379.2 345,-274.2 220,-274.2"/>
<polygon fill="#f5f5f5" stroke="transparent" points="220.5,-355.7 220.5,-378.7 345.5,-378.7 345.5,-355.7 220.5,-355.7"/>
<polygon fill="none" stroke="#000000" points="220.5,-355.7 220.5,-378.7 345.5,-378.7 345.5,-355.7 220.5,-355.7"/>
<text text-anchor="start" x="225.5" y="-364.3" font-family="Helvetica,sans-Serif" font-weight="bold" font-size="11.00" fill="#000000">Students</text>
<text text-anchor="start" x="310.5437" y="-363.8" font-family="Helvetica,sans-Serif" font-size="11.00" fill="#000000">[table]</text>
<polygon fill="none" stroke="#000000" points="220.5,-333.7 220.5,-355.7 345.5,-355.7 345.5,-333.7 220.5,-333.7"/>
<image xlink:href="../../images/primaryKeys.png" width="11px" height="12px" preserveAspectRatio="xMinYMin meet" x="225.5" y="-350.7"/>
<text text-anchor="start" x="240.5" y="-340.8" font-family="Helvetica,sans-Serif" font-size="11.00" fill="#000000">UserId</text>
<polygon fill="#ffffff" stroke="transparent" points="220.5,-311.7 220.5,-333.7 345.5,-333.7 345.5,-311.7 220.5,-311.7"/>
<polygon fill="none" stroke="#000000" points="220.5,-311.7 220.5,-333.7 345.5,-333.7 345.5,-311.7 220.5,-311.7"/>
<image xlink:href="../../images/foreignKeys.png" width="11px" height="12px" preserveAspectRatio="xMinYMin meet" x="225.5" y="-328.7"/>
<text text-anchor="start" x="240.5" y="-318.8" font-family="Helvetica,sans-Serif" font-size="11.00" fill="#000000">TechnicalCareerId</text>
<polygon fill="none" stroke="#000000" points="220.5,-292.7 220.5,-311.7 345.5,-311.7 345.5,-292.7 220.5,-292.7"/>
<text text-anchor="start" x="223.5" y="-298.8" font-family="Helvetica,sans-Serif" font-size="11.00" fill="#000000">...</text>
<polygon fill="#ffffff" stroke="transparent" points="220.5,-273.7 220.5,-292.7 263.5,-292.7 263.5,-273.7 220.5,-273.7"/>
<polygon fill="none" stroke="#000000" points="220.5,-273.7 220.5,-292.7 263.5,-292.7 263.5,-273.7 220.5,-273.7"/>
<text text-anchor="start" x="223.5" y="-279.8" font-family="Helvetica,sans-Serif" font-size="11.00" fill="#000000">&lt; 2</text>
<polygon fill="#ffffff" stroke="transparent" points="263.5,-273.7 263.5,-292.7 312.5,-292.7 312.5,-273.7 263.5,-273.7"/>
<polygon fill="none" stroke="#000000" points="263.5,-273.7 263.5,-292.7 312.5,-292.7 312.5,-273.7 263.5,-273.7"/>
<text text-anchor="start" x="277.1105" y="-279.8" font-family="Helvetica,sans-Serif" font-size="11.00" fill="#000000">0 rows</text>
<polygon fill="#ffffff" stroke="transparent" points="312.5,-273.7 312.5,-292.7 345.5,-292.7 345.5,-273.7 312.5,-273.7"/>
<polygon fill="none" stroke="#000000" points="312.5,-273.7 312.5,-292.7 345.5,-292.7 345.5,-273.7 312.5,-273.7"/>
<text text-anchor="start" x="326.9053" y="-279.8" font-family="Helvetica,sans-Serif" font-size="11.00" fill="#000000">3 &gt;</text>
</a>
</g>
</g>
<!-- AspNetUsers -->
<g id="node2" class="node">
<title>AspNetUsers</title>
<g id="a_node2"><a xlink:href="../../tables/AspNetUsers.html" xlink:title="AspNetUsers" target="_top">
<polygon fill="#ffffff" stroke="transparent" points="8,-38.2 8,-165.2 171,-165.2 171,-38.2 8,-38.2"/>
<polygon fill="#f5f5f5" stroke="transparent" points="8.5,-141.7 8.5,-164.7 171.5,-164.7 171.5,-141.7 8.5,-141.7"/>
<polygon fill="none" stroke="#000000" points="8.5,-141.7 8.5,-164.7 171.5,-164.7 171.5,-141.7 8.5,-141.7"/>
<text text-anchor="start" x="13.5" y="-150.3" font-family="Helvetica,sans-Serif" font-weight="bold" font-size="11.00" fill="#000000">AspNetUsers</text>
<text text-anchor="start" x="136.5437" y="-149.8" font-family="Helvetica,sans-Serif" font-size="11.00" fill="#000000">[table]</text>
<polygon fill="none" stroke="#000000" points="8.5,-119.7 8.5,-141.7 171.5,-141.7 171.5,-119.7 8.5,-119.7"/>
<image xlink:href="../../images/primaryKeys.png" width="11px" height="12px" preserveAspectRatio="xMinYMin meet" x="13.5" y="-136.7"/>
<text text-anchor="start" x="28.5" y="-126.8" font-family="Helvetica,sans-Serif" font-size="11.00" fill="#000000">Id</text>
<polygon fill="#ffffff" stroke="transparent" points="8.5,-97.7 8.5,-119.7 171.5,-119.7 171.5,-97.7 8.5,-97.7"/>
<polygon fill="none" stroke="#000000" points="8.5,-97.7 8.5,-119.7 171.5,-119.7 171.5,-97.7 8.5,-97.7"/>
<text text-anchor="start" x="28.5" y="-104.8" font-family="Helvetica,sans-Serif" font-size="11.00" fill="#000000">NormalizedUserName</text>
<polygon fill="#ffffff" stroke="transparent" points="8.5,-75.7 8.5,-97.7 171.5,-97.7 171.5,-75.7 8.5,-75.7"/>
<polygon fill="none" stroke="#000000" points="8.5,-75.7 8.5,-97.7 171.5,-97.7 171.5,-75.7 8.5,-75.7"/>
<text text-anchor="start" x="28.5" y="-82.8" font-family="Helvetica,sans-Serif" font-size="11.00" fill="#000000">NormalizedEmail</text>
<polygon fill="none" stroke="#000000" points="8.5,-56.7 8.5,-75.7 171.5,-75.7 171.5,-56.7 8.5,-56.7"/>
<text text-anchor="start" x="11.5" y="-62.8" font-family="Helvetica,sans-Serif" font-size="11.00" fill="#000000">...</text>
<polygon fill="#ffffff" stroke="transparent" points="8.5,-37.7 8.5,-56.7 66.5,-56.7 66.5,-37.7 8.5,-37.7"/>
<polygon fill="none" stroke="#000000" points="8.5,-37.7 8.5,-56.7 66.5,-56.7 66.5,-37.7 8.5,-37.7"/>
<text text-anchor="start" x="11.5" y="-43.8" font-family="Helvetica,sans-Serif" font-size="11.00" fill="#000000"> &#160;</text>
<polygon fill="#ffffff" stroke="transparent" points="66.5,-37.7 66.5,-56.7 121.5,-56.7 121.5,-37.7 66.5,-37.7"/>
<polygon fill="none" stroke="#000000" points="66.5,-37.7 66.5,-56.7 121.5,-56.7 121.5,-37.7 66.5,-37.7"/>
<text text-anchor="start" x="91.6105" y="-43.8" font-family="Helvetica,sans-Serif" font-size="11.00" fill="#000000">1 row</text>
<polygon fill="#ffffff" stroke="transparent" points="121.5,-37.7 121.5,-56.7 171.5,-56.7 171.5,-37.7 121.5,-37.7"/>
<polygon fill="none" stroke="#000000" points="121.5,-37.7 121.5,-56.7 171.5,-56.7 171.5,-37.7 121.5,-37.7"/>
<text text-anchor="start" x="146.7904" y="-43.8" font-family="Helvetica,sans-Serif" font-size="11.00" fill="#000000">29 &gt;</text>
</a>
</g>
</g>
<!-- Students&#45;&gt;AspNetUsers -->
<g id="edge1" class="edge">
<title>Students:w&#45;&gt;AspNetUsers:e</title>
<path fill="none" stroke="#000000" d="M209.6904,-343.6495C134.5059,-327.5053 265.0705,-130.7 171.5,-130.7"/>
<polygon fill="#000000" stroke="#000000" points="220.0907,-340.6414 219.3168,-348.6039 217.7243,-348.4491 218.4982,-340.4866 220.0907,-340.6414"/>
<polyline fill="none" stroke="#000000" points="220.5,-344.7 216.5188,-344.3131 "/>
<ellipse fill="none" stroke="#000000" cx="213.3338" cy="-344.0035" rx="3.2" ry="3.2"/>
</g>
<!-- StudentSubjects -->
<g id="node3" class="node">
<title>StudentSubjects</title>
<g id="a_node3"><a xlink:href="../../tables/StudentSubjects.html" xlink:title="StudentSubjects" target="_top">
<polygon fill="#ffffff" stroke="transparent" points="394,-39.7 394,-261.7 613,-261.7 613,-39.7 394,-39.7"/>
<polygon fill="#f5f5f5" stroke="transparent" points="396.5,-236.7 396.5,-259.7 611.5,-259.7 611.5,-236.7 396.5,-236.7"/>
<polygon fill="none" stroke="#000000" points="396.5,-236.7 396.5,-259.7 611.5,-259.7 611.5,-236.7 396.5,-236.7"/>
<text text-anchor="start" x="401.5" y="-245.3" font-family="Helvetica,sans-Serif" font-weight="bold" font-size="11.00" fill="#000000">StudentSubjects</text>
<text text-anchor="start" x="576.5437" y="-244.8" font-family="Helvetica,sans-Serif" font-size="11.00" fill="#000000">[table]</text>
<polygon fill="none" stroke="#000000" points="396.5,-214.7 396.5,-236.7 517.5,-236.7 517.5,-214.7 396.5,-214.7"/>
<image xlink:href="../../images/primaryKeys.png" width="11px" height="12px" preserveAspectRatio="xMinYMin meet" x="401.5" y="-231.7"/>
<text text-anchor="start" x="416.5" y="-221.8" font-family="Helvetica,sans-Serif" font-size="11.00" fill="#000000">Id</text>
<polygon fill="none" stroke="#000000" points="517.5,-214.7 517.5,-236.7 611.5,-236.7 611.5,-214.7 517.5,-214.7"/>
<text text-anchor="start" x="520.4758" y="-222.4" font-family="Helvetica,sans-Serif" font-size="11.00" fill="#000000">uuid[2147483647]</text>
<polygon fill="#ffffff" stroke="transparent" points="396.5,-192.7 396.5,-214.7 517.5,-214.7 517.5,-192.7 396.5,-192.7"/>
<polygon fill="none" stroke="#000000" points="396.5,-192.7 396.5,-214.7 517.5,-214.7 517.5,-192.7 396.5,-192.7"/>
<image xlink:href="../../images/foreignKeys.png" width="11px" height="12px" preserveAspectRatio="xMinYMin meet" x="401.5" y="-209.7"/>
<text text-anchor="start" x="416.5" y="-199.8" font-family="Helvetica,sans-Serif" font-size="11.00" fill="#000000">StudentId</text>
<polygon fill="none" stroke="#000000" points="517.5,-192.7 517.5,-214.7 611.5,-214.7 611.5,-192.7 517.5,-192.7"/>
<text text-anchor="start" x="520.5" y="-200.4" font-family="Helvetica,sans-Serif" font-size="11.00" fill="#000000">text[2147483647]</text>
<polygon fill="#ffffff" stroke="transparent" points="396.5,-170.7 396.5,-192.7 517.5,-192.7 517.5,-170.7 396.5,-170.7"/>
<polygon fill="none" stroke="#000000" points="396.5,-170.7 396.5,-192.7 517.5,-192.7 517.5,-170.7 396.5,-170.7"/>
<image xlink:href="../../images/foreignKeys.png" width="11px" height="12px" preserveAspectRatio="xMinYMin meet" x="401.5" y="-187.7"/>
<text text-anchor="start" x="416.5" y="-177.8" font-family="Helvetica,sans-Serif" font-size="11.00" fill="#000000">SubjectId</text>
<polygon fill="none" stroke="#000000" points="517.5,-170.7 517.5,-192.7 611.5,-192.7 611.5,-170.7 517.5,-170.7"/>
<text text-anchor="start" x="520.4758" y="-178.4" font-family="Helvetica,sans-Serif" font-size="11.00" fill="#000000">uuid[2147483647]</text>
<polygon fill="none" stroke="#000000" points="396.5,-148.7 396.5,-170.7 517.5,-170.7 517.5,-148.7 396.5,-148.7"/>
<text text-anchor="start" x="416.5" y="-155.8" font-family="Helvetica,sans-Serif" font-size="11.00" fill="#000000">IsActive</text>
<polygon fill="none" stroke="#000000" points="517.5,-148.7 517.5,-170.7 611.5,-170.7 611.5,-148.7 517.5,-148.7"/>
<text text-anchor="start" x="520.5" y="-156.4" font-family="Helvetica,sans-Serif" font-size="11.00" fill="#000000">bool[1]</text>
<polygon fill="none" stroke="#000000" points="396.5,-126.7 396.5,-148.7 517.5,-148.7 517.5,-126.7 396.5,-126.7"/>
<text text-anchor="start" x="416.5" y="-133.8" font-family="Helvetica,sans-Serif" font-size="11.00" fill="#000000">CreatedAt</text>
<polygon fill="none" stroke="#000000" points="517.5,-126.7 517.5,-148.7 611.5,-148.7 611.5,-126.7 517.5,-126.7"/>
<text text-anchor="start" x="520.5" y="-134.4" font-family="Helvetica,sans-Serif" font-size="11.00" fill="#000000">timestamptz[35,6]</text>
<polygon fill="none" stroke="#000000" points="396.5,-104.7 396.5,-126.7 517.5,-126.7 517.5,-104.7 396.5,-104.7"/>
<text text-anchor="start" x="416.5" y="-111.8" font-family="Helvetica,sans-Serif" font-size="11.00" fill="#000000">UpdatedAt</text>
<polygon fill="none" stroke="#000000" points="517.5,-104.7 517.5,-126.7 611.5,-126.7 611.5,-104.7 517.5,-104.7"/>
<text text-anchor="start" x="520.5" y="-112.4" font-family="Helvetica,sans-Serif" font-size="11.00" fill="#000000">timestamptz[35,6]</text>
<polygon fill="#ffffff" stroke="transparent" points="396.5,-82.7 396.5,-104.7 517.5,-104.7 517.5,-82.7 396.5,-82.7"/>
<polygon fill="none" stroke="#000000" points="396.5,-82.7 396.5,-104.7 517.5,-104.7 517.5,-82.7 396.5,-82.7"/>
<image xlink:href="../../images/foreignKeys.png" width="11px" height="12px" preserveAspectRatio="xMinYMin meet" x="401.5" y="-99.7"/>
<text text-anchor="start" x="416.5" y="-89.8" font-family="Helvetica,sans-Serif" font-size="11.00" fill="#000000">CreatedByUserId</text>
<polygon fill="none" stroke="#000000" points="517.5,-82.7 517.5,-104.7 611.5,-104.7 611.5,-82.7 517.5,-82.7"/>
<text text-anchor="start" x="520.5" y="-90.4" font-family="Helvetica,sans-Serif" font-size="11.00" fill="#000000">text[2147483647]</text>
<polygon fill="#ffffff" stroke="transparent" points="396.5,-60.7 396.5,-82.7 517.5,-82.7 517.5,-60.7 396.5,-60.7"/>
<polygon fill="none" stroke="#000000" points="396.5,-60.7 396.5,-82.7 517.5,-82.7 517.5,-60.7 396.5,-60.7"/>
<image xlink:href="../../images/foreignKeys.png" width="11px" height="12px" preserveAspectRatio="xMinYMin meet" x="401.5" y="-77.7"/>
<text text-anchor="start" x="416.5" y="-67.8" font-family="Helvetica,sans-Serif" font-size="11.00" fill="#000000">UpdatedByUserId</text>
<polygon fill="none" stroke="#000000" points="517.5,-60.7 517.5,-82.7 611.5,-82.7 611.5,-60.7 517.5,-60.7"/>
<text text-anchor="start" x="520.5" y="-68.4" font-family="Helvetica,sans-Serif" font-size="11.00" fill="#000000">text[2147483647]</text>
<polygon fill="#ffffff" stroke="transparent" points="396.5,-41.7 396.5,-60.7 448.5,-60.7 448.5,-41.7 396.5,-41.7"/>
<polygon fill="none" stroke="#000000" points="396.5,-41.7 396.5,-60.7 448.5,-60.7 448.5,-41.7 396.5,-41.7"/>
<text text-anchor="start" x="399.5" y="-47.8" font-family="Helvetica,sans-Serif" font-size="11.00" fill="#000000">&lt; 4</text>
<polygon fill="#ffffff" stroke="transparent" points="448.5,-41.7 448.5,-60.7 517.5,-60.7 517.5,-41.7 448.5,-41.7"/>
<polygon fill="none" stroke="#000000" points="448.5,-41.7 448.5,-60.7 517.5,-60.7 517.5,-41.7 448.5,-41.7"/>
<text text-anchor="start" x="482.1105" y="-47.8" font-family="Helvetica,sans-Serif" font-size="11.00" fill="#000000">0 rows</text>
<polygon fill="#ffffff" stroke="transparent" points="517.5,-41.7 517.5,-60.7 611.5,-60.7 611.5,-41.7 517.5,-41.7"/>
<polygon fill="none" stroke="#000000" points="517.5,-41.7 517.5,-60.7 611.5,-60.7 611.5,-41.7 517.5,-41.7"/>
<text text-anchor="start" x="592.9053" y="-47.8" font-family="Helvetica,sans-Serif" font-size="11.00" fill="#000000">0 &gt;</text>
<polygon fill="none" stroke="#000000" stroke-width="2" points="395,-40.7 395,-260.7 612,-260.7 612,-40.7 395,-40.7"/>
</a>
</g>
</g>
<!-- StudentSubjects&#45;&gt;Students -->
<g id="edge3" class="edge">
<title>StudentSubjects:w&#45;&gt;Students:e</title>
<path fill="none" stroke="#000000" d="M382.1778,-206.7761C343.1729,-227.396 406.283,-344.7 345.5,-344.7"/>
<polygon fill="#000000" stroke="#000000" points="388.6784,-205.38 397.256,-207.2197 392.5892,-204.54 396.5,-203.7 396.5,-203.7 396.5,-203.7 392.5892,-204.54 395.744,-200.1803 388.6784,-205.38 388.6784,-205.38"/>
<ellipse fill="none" stroke="#000000" cx="385.5497" cy="-206.052" rx="3.2" ry="3.2"/>
</g>
<!-- StudentSubjects&#45;&gt;AspNetUsers -->
<g id="edge2" class="edge">
<title>StudentSubjects:w&#45;&gt;AspNetUsers:e</title>
<path fill="none" stroke="#000000" d="M382.2637,-90.3154C372.8001,-85.0972 368.1471,-75.3124 353,-71.7 292.0429,-57.1623 267.4509,-42.5057 212,-71.7 183.8565,-86.5172 203.3057,-130.7 171.5,-130.7"/>
<polygon fill="#000000" stroke="#000000" points="388.7169,-91.8496 395.6673,-97.2024 392.6085,-92.7748 396.5,-93.7 396.5,-93.7 396.5,-93.7 392.6085,-92.7748 397.3327,-90.1976 388.7169,-91.8496 388.7169,-91.8496"/>
<ellipse fill="none" stroke="#000000" cx="385.6037" cy="-91.1094" rx="3.2" ry="3.2"/>
</g>
<!-- StudentSubjects&#45;&gt;AspNetUsers -->
<g id="edge5" class="edge">
<title>StudentSubjects:w&#45;&gt;AspNetUsers:e</title>
<path fill="none" stroke="#000000" d="M382.1305,-68.6238C372.8111,-64.076 367.6819,-55.7665 353,-52.7 291.6571,-39.8877 265.5574,-20.162 212,-52.7 178.6168,-72.9815 210.5612,-130.7 171.5,-130.7"/>
<polygon fill="#000000" stroke="#000000" points="388.6773,-70.0252 395.7464,-75.2202 392.5886,-70.8626 396.5,-71.7 396.5,-71.7 396.5,-71.7 392.5886,-70.8626 397.2536,-68.1798 388.6773,-70.0252 388.6773,-70.0252"/>
<ellipse fill="none" stroke="#000000" cx="385.5482" cy="-69.3553" rx="3.2" ry="3.2"/>
</g>
<!-- Subjects -->
<g id="node4" class="node">
<title>Subjects</title>
<g id="a_node4"><a xlink:href="../../tables/Subjects.html" xlink:title="Subjects" target="_top">
<polygon fill="#ffffff" stroke="transparent" points="220,-82.2 220,-253.2 345,-253.2 345,-82.2 220,-82.2"/>
<polygon fill="#f5f5f5" stroke="transparent" points="220.5,-229.7 220.5,-252.7 345.5,-252.7 345.5,-229.7 220.5,-229.7"/>
<polygon fill="none" stroke="#000000" points="220.5,-229.7 220.5,-252.7 345.5,-252.7 345.5,-229.7 220.5,-229.7"/>
<text text-anchor="start" x="225.5" y="-238.3" font-family="Helvetica,sans-Serif" font-weight="bold" font-size="11.00" fill="#000000">Subjects</text>
<text text-anchor="start" x="310.5437" y="-237.8" font-family="Helvetica,sans-Serif" font-size="11.00" fill="#000000">[table]</text>
<polygon fill="none" stroke="#000000" points="220.5,-207.7 220.5,-229.7 345.5,-229.7 345.5,-207.7 220.5,-207.7"/>
<image xlink:href="../../images/primaryKeys.png" width="11px" height="12px" preserveAspectRatio="xMinYMin meet" x="225.5" y="-224.7"/>
<text text-anchor="start" x="240.5" y="-214.8" font-family="Helvetica,sans-Serif" font-size="11.00" fill="#000000">Id</text>
<polygon fill="#ffffff" stroke="transparent" points="220.5,-185.7 220.5,-207.7 345.5,-207.7 345.5,-185.7 220.5,-185.7"/>
<polygon fill="none" stroke="#000000" points="220.5,-185.7 220.5,-207.7 345.5,-207.7 345.5,-185.7 220.5,-185.7"/>
<image xlink:href="../../images/foreignKeys.png" width="11px" height="12px" preserveAspectRatio="xMinYMin meet" x="225.5" y="-202.7"/>
<text text-anchor="start" x="240.5" y="-192.8" font-family="Helvetica,sans-Serif" font-size="11.00" fill="#000000">TechnicalCareerId</text>
<polygon fill="#ffffff" stroke="transparent" points="220.5,-163.7 220.5,-185.7 345.5,-185.7 345.5,-163.7 220.5,-163.7"/>
<polygon fill="none" stroke="#000000" points="220.5,-163.7 220.5,-185.7 345.5,-185.7 345.5,-163.7 220.5,-163.7"/>
<image xlink:href="../../images/foreignKeys.png" width="11px" height="12px" preserveAspectRatio="xMinYMin meet" x="225.5" y="-180.7"/>
<text text-anchor="start" x="240.5" y="-170.8" font-family="Helvetica,sans-Serif" font-size="11.00" fill="#000000">ProfessorId</text>
<polygon fill="#ffffff" stroke="transparent" points="220.5,-141.7 220.5,-163.7 345.5,-163.7 345.5,-141.7 220.5,-141.7"/>
<polygon fill="none" stroke="#000000" points="220.5,-141.7 220.5,-163.7 345.5,-163.7 345.5,-141.7 220.5,-141.7"/>
<image xlink:href="../../images/foreignKeys.png" width="11px" height="12px" preserveAspectRatio="xMinYMin meet" x="225.5" y="-158.7"/>
<text text-anchor="start" x="240.5" y="-148.8" font-family="Helvetica,sans-Serif" font-size="11.00" fill="#000000">CreatedByUserId</text>
<polygon fill="#ffffff" stroke="transparent" points="220.5,-119.7 220.5,-141.7 345.5,-141.7 345.5,-119.7 220.5,-119.7"/>
<polygon fill="none" stroke="#000000" points="220.5,-119.7 220.5,-141.7 345.5,-141.7 345.5,-119.7 220.5,-119.7"/>
<image xlink:href="../../images/foreignKeys.png" width="11px" height="12px" preserveAspectRatio="xMinYMin meet" x="225.5" y="-136.7"/>
<text text-anchor="start" x="240.5" y="-126.8" font-family="Helvetica,sans-Serif" font-size="11.00" fill="#000000">UpdatedByUserId</text>
<polygon fill="none" stroke="#000000" points="220.5,-100.7 220.5,-119.7 345.5,-119.7 345.5,-100.7 220.5,-100.7"/>
<text text-anchor="start" x="223.5" y="-106.8" font-family="Helvetica,sans-Serif" font-size="11.00" fill="#000000">...</text>
<polygon fill="#ffffff" stroke="transparent" points="220.5,-81.7 220.5,-100.7 263.5,-100.7 263.5,-81.7 220.5,-81.7"/>
<polygon fill="none" stroke="#000000" points="220.5,-81.7 220.5,-100.7 263.5,-100.7 263.5,-81.7 220.5,-81.7"/>
<text text-anchor="start" x="223.5" y="-87.8" font-family="Helvetica,sans-Serif" font-size="11.00" fill="#000000">&lt; 4</text>
<polygon fill="#ffffff" stroke="transparent" points="263.5,-81.7 263.5,-100.7 312.5,-100.7 312.5,-81.7 263.5,-81.7"/>
<polygon fill="none" stroke="#000000" points="263.5,-81.7 263.5,-100.7 312.5,-100.7 312.5,-81.7 263.5,-81.7"/>
<text text-anchor="start" x="277.1105" y="-87.8" font-family="Helvetica,sans-Serif" font-size="11.00" fill="#000000">0 rows</text>
<polygon fill="#ffffff" stroke="transparent" points="312.5,-81.7 312.5,-100.7 345.5,-100.7 345.5,-81.7 312.5,-81.7"/>
<polygon fill="none" stroke="#000000" points="312.5,-81.7 312.5,-100.7 345.5,-100.7 345.5,-81.7 312.5,-81.7"/>
<text text-anchor="start" x="326.9053" y="-87.8" font-family="Helvetica,sans-Serif" font-size="11.00" fill="#000000">3 &gt;</text>
</a>
</g>
</g>
<!-- StudentSubjects&#45;&gt;Subjects -->
<g id="edge4" class="edge">
<title>StudentSubjects:w&#45;&gt;Subjects:e</title>
<path fill="none" stroke="#000000" d="M382.5658,-185.9444C369.14,-195.6631 367.5965,-218.7 345.5,-218.7"/>
<polygon fill="#000000" stroke="#000000" points="388.8471,-184.0311 397.549,-185.1438 392.6736,-182.8655 396.5,-181.7 396.5,-181.7 396.5,-181.7 392.6736,-182.8655 395.451,-178.2562 388.8471,-184.0311 388.8471,-184.0311"/>
<ellipse fill="none" stroke="#000000" cx="385.786" cy="-184.9635" rx="3.2" ry="3.2"/>
</g>
<!-- Subjects&#45;&gt;AspNetUsers -->
<g id="edge6" class="edge">
<title>Subjects:w&#45;&gt;AspNetUsers:e</title>
<path fill="none" stroke="#000000" d="M206.1297,-149.2625C194.5865,-143.075 189.4041,-130.7 171.5,-130.7"/>
<polygon fill="#000000" stroke="#000000" points="212.7195,-150.8388 219.6625,-156.2012 216.6098,-151.7694 220.5,-152.7 220.5,-152.7 220.5,-152.7 216.6098,-151.7694 221.3375,-149.1988 212.7195,-150.8388 212.7195,-150.8388"/>
<ellipse fill="none" stroke="#000000" cx="209.6073" cy="-150.0943" rx="3.2" ry="3.2"/>
</g>
<!-- Subjects&#45;&gt;AspNetUsers -->
<g id="edge7" class="edge">
<title>Subjects:w&#45;&gt;AspNetUsers:e</title>
<path fill="none" stroke="#000000" d="M205.9909,-130.7C194.6774,-130.7 187.4931,-130.7 171.5,-130.7"/>
<polygon fill="#000000" stroke="#000000" points="212.5,-130.7001 220.5,-134.3 216.5,-130.7 220.5,-130.7 220.5,-130.7 220.5,-130.7 216.5,-130.7 220.5,-127.1 212.5,-130.7001 212.5,-130.7001"/>
<ellipse fill="none" stroke="#000000" cx="209.3" cy="-130.7001" rx="3.2" ry="3.2"/>
</g>
</g>
</svg>
