<?xml version="1.0" encoding="UTF-8" standalone="no"?>
<!DOCTYPE svg PUBLIC "-//W3C//DTD SVG 1.1//EN"
 "http://www.w3.org/Graphics/SVG/1.1/DTD/svg11.dtd">
<!-- Generated by graphviz version 2.40.1 (20161225.0304)
 -->
<!-- Title: oneDegreeRelationshipsDiagram Pages: 1 -->
<svg width="1111pt" height="574pt"
 viewBox="0.00 0.00 1111.00 574.20" xmlns="http://www.w3.org/2000/svg" xmlns:xlink="http://www.w3.org/1999/xlink">
<g id="graph0" class="graph" transform="scale(1 1) rotate(0) translate(4 570.2)">
<title>oneDegreeRelationshipsDiagram</title>
<polygon fill="#ffffff" stroke="transparent" points="-4,4 -4,-570.2 1107,-570.2 1107,4 -4,4"/>
<text text-anchor="middle" x="72.4936" y="-7.3" font-family="Helvetica,sans-Serif" font-size="11.00" fill="#000000">Generated by SchemaSpy</text>
<!-- ProfessorCompetencyAssignments -->
<g id="node1" class="node">
<title>ProfessorCompetencyAssignments</title>
<g id="a_node1"><a xlink:href="../../tables/ProfessorCompetencyAssignments.html" xlink:title="ProfessorCompetencyAssignments" target="_top">
<polygon fill="#ffffff" stroke="transparent" points="220,-347.2 220,-562.2 462,-562.2 462,-347.2 220,-347.2"/>
<polygon fill="#f5f5f5" stroke="transparent" points="220,-538.7 220,-561.7 462,-561.7 462,-538.7 220,-538.7"/>
<polygon fill="none" stroke="#000000" points="220,-538.7 220,-561.7 462,-561.7 462,-538.7 220,-538.7"/>
<text text-anchor="start" x="225" y="-547.3" font-family="Helvetica,sans-Serif" font-weight="bold" font-size="11.00" fill="#000000">ProfessorCompetencyAssignments</text>
<text text-anchor="start" x="427.5219" y="-546.8" font-family="Helvetica,sans-Serif" font-size="11.00" fill="#000000">[table]</text>
<polygon fill="none" stroke="#000000" points="220,-516.7 220,-538.7 462,-538.7 462,-516.7 220,-516.7"/>
<image xlink:href="../../images/primaryKeys.png" width="11px" height="12px" preserveAspectRatio="xMinYMin meet" x="225" y="-533.7"/>
<text text-anchor="start" x="249" y="-523.8" font-family="Helvetica,sans-Serif" font-size="11.00" fill="#000000">Id</text>
<polygon fill="#ffffff" stroke="transparent" points="220,-494.7 220,-516.7 462,-516.7 462,-494.7 220,-494.7"/>
<polygon fill="none" stroke="#000000" points="220,-494.7 220,-516.7 462,-516.7 462,-494.7 220,-494.7"/>
<image xlink:href="../../images/foreignKeys.png" width="11px" height="12px" preserveAspectRatio="xMinYMin meet" x="225" y="-511.7"/>
<text text-anchor="start" x="249" y="-501.8" font-family="Helvetica,sans-Serif" font-size="11.00" fill="#000000">ProfessorId</text>
<polygon fill="#ffffff" stroke="transparent" points="220,-472.7 220,-494.7 462,-494.7 462,-472.7 220,-472.7"/>
<polygon fill="none" stroke="#000000" points="220,-472.7 220,-494.7 462,-494.7 462,-472.7 220,-472.7"/>
<image xlink:href="../../images/foreignKeys.png" width="11px" height="12px" preserveAspectRatio="xMinYMin meet" x="225" y="-489.7"/>
<text text-anchor="start" x="249" y="-479.8" font-family="Helvetica,sans-Serif" font-size="11.00" fill="#000000">TechnicalCareerId</text>
<polygon fill="#ffffff" stroke="transparent" points="220,-450.7 220,-472.7 462,-472.7 462,-450.7 220,-450.7"/>
<polygon fill="none" stroke="#000000" points="220,-450.7 220,-472.7 462,-472.7 462,-450.7 220,-450.7"/>
<image xlink:href="../../images/foreignKeys.png" width="11px" height="12px" preserveAspectRatio="xMinYMin meet" x="225" y="-467.7"/>
<text text-anchor="start" x="249" y="-457.8" font-family="Helvetica,sans-Serif" font-size="11.00" fill="#000000">CompetencyId</text>
<polygon fill="#ffffff" stroke="transparent" points="220,-428.7 220,-450.7 462,-450.7 462,-428.7 220,-428.7"/>
<polygon fill="none" stroke="#000000" points="220,-428.7 220,-450.7 462,-450.7 462,-428.7 220,-428.7"/>
<image xlink:href="../../images/foreignKeys.png" width="11px" height="12px" preserveAspectRatio="xMinYMin meet" x="225" y="-445.7"/>
<text text-anchor="start" x="249" y="-435.8" font-family="Helvetica,sans-Serif" font-size="11.00" fill="#000000">EvaluationPeriodId</text>
<polygon fill="#ffffff" stroke="transparent" points="220,-406.7 220,-428.7 462,-428.7 462,-406.7 220,-406.7"/>
<polygon fill="none" stroke="#000000" points="220,-406.7 220,-428.7 462,-428.7 462,-406.7 220,-406.7"/>
<image xlink:href="../../images/foreignKeys.png" width="11px" height="12px" preserveAspectRatio="xMinYMin meet" x="225" y="-423.7"/>
<text text-anchor="start" x="249" y="-413.8" font-family="Helvetica,sans-Serif" font-size="11.00" fill="#000000">CreatedByUserId</text>
<polygon fill="#ffffff" stroke="transparent" points="220,-384.7 220,-406.7 462,-406.7 462,-384.7 220,-384.7"/>
<polygon fill="none" stroke="#000000" points="220,-384.7 220,-406.7 462,-406.7 462,-384.7 220,-384.7"/>
<image xlink:href="../../images/foreignKeys.png" width="11px" height="12px" preserveAspectRatio="xMinYMin meet" x="225" y="-401.7"/>
<text text-anchor="start" x="249" y="-391.8" font-family="Helvetica,sans-Serif" font-size="11.00" fill="#000000">UpdatedByUserId</text>
<polygon fill="none" stroke="#000000" points="220,-365.7 220,-384.7 462,-384.7 462,-365.7 220,-365.7"/>
<text text-anchor="start" x="223" y="-371.8" font-family="Helvetica,sans-Serif" font-size="11.00" fill="#000000">...</text>
<polygon fill="#ffffff" stroke="transparent" points="220,-346.7 220,-365.7 322,-365.7 322,-346.7 220,-346.7"/>
<polygon fill="none" stroke="#000000" points="220,-346.7 220,-365.7 322,-365.7 322,-346.7 220,-346.7"/>
<text text-anchor="start" x="223" y="-352.8" font-family="Helvetica,sans-Serif" font-size="11.00" fill="#000000">&lt; 6</text>
<polygon fill="#ffffff" stroke="transparent" points="322,-346.7 322,-365.7 400,-365.7 400,-346.7 322,-346.7"/>
<polygon fill="none" stroke="#000000" points="322,-346.7 322,-365.7 400,-365.7 400,-346.7 322,-346.7"/>
<text text-anchor="start" x="364.6105" y="-352.8" font-family="Helvetica,sans-Serif" font-size="11.00" fill="#000000">0 rows</text>
<polygon fill="#ffffff" stroke="transparent" points="400,-346.7 400,-365.7 462,-365.7 462,-346.7 400,-346.7"/>
<polygon fill="none" stroke="#000000" points="400,-346.7 400,-365.7 462,-365.7 462,-346.7 400,-346.7"/>
<text text-anchor="start" x="443.4053" y="-352.8" font-family="Helvetica,sans-Serif" font-size="11.00" fill="#000000">1 &gt;</text>
</a>
</g>
</g>
<!-- AspNetUsers -->
<g id="node2" class="node">
<title>AspNetUsers</title>
<g id="a_node2"><a xlink:href="../../tables/AspNetUsers.html" xlink:title="AspNetUsers" target="_top">
<polygon fill="#ffffff" stroke="transparent" points="8,-104.2 8,-231.2 171,-231.2 171,-104.2 8,-104.2"/>
<polygon fill="#f5f5f5" stroke="transparent" points="8.5,-207.7 8.5,-230.7 171.5,-230.7 171.5,-207.7 8.5,-207.7"/>
<polygon fill="none" stroke="#000000" points="8.5,-207.7 8.5,-230.7 171.5,-230.7 171.5,-207.7 8.5,-207.7"/>
<text text-anchor="start" x="13.5" y="-216.3" font-family="Helvetica,sans-Serif" font-weight="bold" font-size="11.00" fill="#000000">AspNetUsers</text>
<text text-anchor="start" x="136.5437" y="-215.8" font-family="Helvetica,sans-Serif" font-size="11.00" fill="#000000">[table]</text>
<polygon fill="none" stroke="#000000" points="8.5,-185.7 8.5,-207.7 171.5,-207.7 171.5,-185.7 8.5,-185.7"/>
<image xlink:href="../../images/primaryKeys.png" width="11px" height="12px" preserveAspectRatio="xMinYMin meet" x="13.5" y="-202.7"/>
<text text-anchor="start" x="28.5" y="-192.8" font-family="Helvetica,sans-Serif" font-size="11.00" fill="#000000">Id</text>
<polygon fill="#ffffff" stroke="transparent" points="8.5,-163.7 8.5,-185.7 171.5,-185.7 171.5,-163.7 8.5,-163.7"/>
<polygon fill="none" stroke="#000000" points="8.5,-163.7 8.5,-185.7 171.5,-185.7 171.5,-163.7 8.5,-163.7"/>
<text text-anchor="start" x="28.5" y="-170.8" font-family="Helvetica,sans-Serif" font-size="11.00" fill="#000000">NormalizedUserName</text>
<polygon fill="#ffffff" stroke="transparent" points="8.5,-141.7 8.5,-163.7 171.5,-163.7 171.5,-141.7 8.5,-141.7"/>
<polygon fill="none" stroke="#000000" points="8.5,-141.7 8.5,-163.7 171.5,-163.7 171.5,-141.7 8.5,-141.7"/>
<text text-anchor="start" x="28.5" y="-148.8" font-family="Helvetica,sans-Serif" font-size="11.00" fill="#000000">NormalizedEmail</text>
<polygon fill="none" stroke="#000000" points="8.5,-122.7 8.5,-141.7 171.5,-141.7 171.5,-122.7 8.5,-122.7"/>
<text text-anchor="start" x="11.5" y="-128.8" font-family="Helvetica,sans-Serif" font-size="11.00" fill="#000000">...</text>
<polygon fill="#ffffff" stroke="transparent" points="8.5,-103.7 8.5,-122.7 63.5,-122.7 63.5,-103.7 8.5,-103.7"/>
<polygon fill="none" stroke="#000000" points="8.5,-103.7 8.5,-122.7 63.5,-122.7 63.5,-103.7 8.5,-103.7"/>
<text text-anchor="start" x="11.5" y="-109.8" font-family="Helvetica,sans-Serif" font-size="11.00" fill="#000000"> &#160;</text>
<polygon fill="#ffffff" stroke="transparent" points="63.5,-103.7 63.5,-122.7 122.5,-122.7 122.5,-103.7 63.5,-103.7"/>
<polygon fill="none" stroke="#000000" points="63.5,-103.7 63.5,-122.7 122.5,-122.7 122.5,-103.7 63.5,-103.7"/>
<text text-anchor="start" x="87.1105" y="-109.8" font-family="Helvetica,sans-Serif" font-size="11.00" fill="#000000">0 rows</text>
<polygon fill="#ffffff" stroke="transparent" points="122.5,-103.7 122.5,-122.7 171.5,-122.7 171.5,-103.7 122.5,-103.7"/>
<polygon fill="none" stroke="#000000" points="122.5,-103.7 122.5,-122.7 171.5,-122.7 171.5,-103.7 122.5,-103.7"/>
<text text-anchor="start" x="146.7904" y="-109.8" font-family="Helvetica,sans-Serif" font-size="11.00" fill="#000000">29 &gt;</text>
</a>
</g>
</g>
<!-- ProfessorCompetencyAssignments&#45;&gt;AspNetUsers -->
<g id="edge1" class="edge">
<title>ProfessorCompetencyAssignments:w&#45;&gt;AspNetUsers:e</title>
<path fill="none" stroke="#000000" d="M205.6907,-415.7894C135.3759,-394.1891 266.5603,-196.7 171.5,-196.7"/>
<polygon fill="#000000" stroke="#000000" points="212.0704,-416.6412 219.5235,-421.2683 216.0352,-417.1706 220,-417.7 220,-417.7 220,-417.7 216.0352,-417.1706 220.4765,-414.1317 212.0704,-416.6412 212.0704,-416.6412"/>
<ellipse fill="none" stroke="#000000" cx="208.8985" cy="-416.2177" rx="3.2" ry="3.2"/>
</g>
<!-- ProfessorCompetencyAssignments&#45;&gt;AspNetUsers -->
<g id="edge2" class="edge">
<title>ProfessorCompetencyAssignments:w&#45;&gt;AspNetUsers:e</title>
<path fill="none" stroke="#000000" d="M205.4536,-393.4651C144.7852,-371.6023 256.8437,-196.7 171.5,-196.7"/>
<polygon fill="#000000" stroke="#000000" points="212.0928,-394.4851 219.4533,-399.2583 216.0464,-395.0926 220,-395.7 220,-395.7 220,-395.7 216.0464,-395.0926 220.5467,-392.1417 212.0928,-394.4851 212.0928,-394.4851"/>
<ellipse fill="none" stroke="#000000" cx="208.9299" cy="-393.9992" rx="3.2" ry="3.2"/>
</g>
<!-- QuestionResponses -->
<g id="node3" class="node">
<title>QuestionResponses</title>
<g id="a_node3"><a xlink:href="../../tables/QuestionResponses.html" xlink:title="QuestionResponses" target="_top">
<polygon fill="#ffffff" stroke="transparent" points="886,-38.2 886,-209.2 1095,-209.2 1095,-38.2 886,-38.2"/>
<polygon fill="#f5f5f5" stroke="transparent" points="886.5,-185.7 886.5,-208.7 1095.5,-208.7 1095.5,-185.7 886.5,-185.7"/>
<polygon fill="none" stroke="#000000" points="886.5,-185.7 886.5,-208.7 1095.5,-208.7 1095.5,-185.7 886.5,-185.7"/>
<text text-anchor="start" x="891.5" y="-194.3" font-family="Helvetica,sans-Serif" font-weight="bold" font-size="11.00" fill="#000000">QuestionResponses</text>
<text text-anchor="start" x="1060.5437" y="-193.8" font-family="Helvetica,sans-Serif" font-size="11.00" fill="#000000">[table]</text>
<polygon fill="none" stroke="#000000" points="886.5,-163.7 886.5,-185.7 1095.5,-185.7 1095.5,-163.7 886.5,-163.7"/>
<image xlink:href="../../images/primaryKeys.png" width="11px" height="12px" preserveAspectRatio="xMinYMin meet" x="891.5" y="-180.7"/>
<text text-anchor="start" x="906.5" y="-170.8" font-family="Helvetica,sans-Serif" font-size="11.00" fill="#000000">Id</text>
<polygon fill="#ffffff" stroke="transparent" points="886.5,-141.7 886.5,-163.7 1095.5,-163.7 1095.5,-141.7 886.5,-141.7"/>
<polygon fill="none" stroke="#000000" points="886.5,-141.7 886.5,-163.7 1095.5,-163.7 1095.5,-141.7 886.5,-141.7"/>
<image xlink:href="../../images/foreignKeys.png" width="11px" height="12px" preserveAspectRatio="xMinYMin meet" x="891.5" y="-158.7"/>
<text text-anchor="start" x="906.5" y="-148.8" font-family="Helvetica,sans-Serif" font-size="11.00" fill="#000000">FormQuestionId</text>
<polygon fill="#ffffff" stroke="transparent" points="886.5,-119.7 886.5,-141.7 1095.5,-141.7 1095.5,-119.7 886.5,-119.7"/>
<polygon fill="none" stroke="#000000" points="886.5,-119.7 886.5,-141.7 1095.5,-141.7 1095.5,-119.7 886.5,-119.7"/>
<image xlink:href="../../images/foreignKeys.png" width="11px" height="12px" preserveAspectRatio="xMinYMin meet" x="891.5" y="-136.7"/>
<text text-anchor="start" x="906.5" y="-126.8" font-family="Helvetica,sans-Serif" font-size="11.00" fill="#000000">StudentCompetencyEvaluationId</text>
<polygon fill="#ffffff" stroke="transparent" points="886.5,-97.7 886.5,-119.7 1095.5,-119.7 1095.5,-97.7 886.5,-97.7"/>
<polygon fill="none" stroke="#000000" points="886.5,-97.7 886.5,-119.7 1095.5,-119.7 1095.5,-97.7 886.5,-97.7"/>
<image xlink:href="../../images/foreignKeys.png" width="11px" height="12px" preserveAspectRatio="xMinYMin meet" x="891.5" y="-114.7"/>
<text text-anchor="start" x="906.5" y="-104.8" font-family="Helvetica,sans-Serif" font-size="11.00" fill="#000000">CreatedByUserId</text>
<polygon fill="#ffffff" stroke="transparent" points="886.5,-75.7 886.5,-97.7 1095.5,-97.7 1095.5,-75.7 886.5,-75.7"/>
<polygon fill="none" stroke="#000000" points="886.5,-75.7 886.5,-97.7 1095.5,-97.7 1095.5,-75.7 886.5,-75.7"/>
<image xlink:href="../../images/foreignKeys.png" width="11px" height="12px" preserveAspectRatio="xMinYMin meet" x="891.5" y="-92.7"/>
<text text-anchor="start" x="906.5" y="-82.8" font-family="Helvetica,sans-Serif" font-size="11.00" fill="#000000">UpdatedByUserId</text>
<polygon fill="none" stroke="#000000" points="886.5,-56.7 886.5,-75.7 1095.5,-75.7 1095.5,-56.7 886.5,-56.7"/>
<text text-anchor="start" x="889.5" y="-62.8" font-family="Helvetica,sans-Serif" font-size="11.00" fill="#000000">...</text>
<polygon fill="#ffffff" stroke="transparent" points="886.5,-37.7 886.5,-56.7 976.5,-56.7 976.5,-37.7 886.5,-37.7"/>
<polygon fill="none" stroke="#000000" points="886.5,-37.7 886.5,-56.7 976.5,-56.7 976.5,-37.7 886.5,-37.7"/>
<text text-anchor="start" x="889.5" y="-43.8" font-family="Helvetica,sans-Serif" font-size="11.00" fill="#000000">&lt; 4</text>
<polygon fill="#ffffff" stroke="transparent" points="976.5,-37.7 976.5,-56.7 1048.5,-56.7 1048.5,-37.7 976.5,-37.7"/>
<polygon fill="none" stroke="#000000" points="976.5,-37.7 976.5,-56.7 1048.5,-56.7 1048.5,-37.7 976.5,-37.7"/>
<text text-anchor="start" x="1013.1105" y="-43.8" font-family="Helvetica,sans-Serif" font-size="11.00" fill="#000000">0 rows</text>
<polygon fill="#ffffff" stroke="transparent" points="1048.5,-37.7 1048.5,-56.7 1095.5,-56.7 1095.5,-37.7 1048.5,-37.7"/>
<polygon fill="none" stroke="#000000" points="1048.5,-37.7 1048.5,-56.7 1095.5,-56.7 1095.5,-37.7 1048.5,-37.7"/>
<text text-anchor="start" x="1086.3862" y="-43.8" font-family="Helvetica,sans-Serif" font-size="11.00" fill="#000000"> &#160;</text>
</a>
</g>
</g>
<!-- QuestionResponses&#45;&gt;AspNetUsers -->
<g id="edge3" class="edge">
<title>QuestionResponses:w&#45;&gt;AspNetUsers:e</title>
<path fill="none" stroke="#000000" d="M871.832,-108.688C713.3086,-108.4305 667.6281,-104.2909 503,-121.7 372.3465,-135.5164 335.5667,-129.0624 212,-173.7 192.5313,-180.7329 192.2001,-196.7 171.5,-196.7"/>
<polygon fill="#000000" stroke="#000000" points="878.5,-108.6934 886.497,-112.3 882.5,-108.6967 886.5,-108.7 886.5,-108.7 886.5,-108.7 882.5,-108.6967 886.503,-105.1 878.5,-108.6934 878.5,-108.6934"/>
<ellipse fill="none" stroke="#000000" cx="875.3" cy="-108.6908" rx="3.2" ry="3.2"/>
</g>
<!-- QuestionResponses&#45;&gt;AspNetUsers -->
<g id="edge5" class="edge">
<title>QuestionResponses:w&#45;&gt;AspNetUsers:e</title>
<path fill="none" stroke="#000000" d="M871.6955,-86.5989C582.254,-82.6438 461.4676,35.1642 212,-122.7 180.3181,-142.7484 208.9924,-196.7 171.5,-196.7"/>
<polygon fill="#000000" stroke="#000000" points="878.5002,-86.6453 886.4754,-90.2999 882.5001,-86.6727 886.5,-86.7 886.5,-86.7 886.5,-86.7 882.5001,-86.6727 886.5246,-83.1001 878.5002,-86.6453 878.5002,-86.6453"/>
<ellipse fill="none" stroke="#000000" cx="875.3003" cy="-86.6234" rx="3.2" ry="3.2"/>
</g>
<!-- StudentCompetencyEvaluations -->
<g id="node4" class="node">
<title>StudentCompetencyEvaluations</title>
<g id="a_node4"><a xlink:href="../../tables/StudentCompetencyEvaluations.html" xlink:title="StudentCompetencyEvaluations" target="_top">
<polygon fill="#ffffff" stroke="transparent" points="511,-132.7 511,-486.7 837,-486.7 837,-132.7 511,-132.7"/>
<polygon fill="#f5f5f5" stroke="transparent" points="513,-461.7 513,-484.7 835,-484.7 835,-461.7 513,-461.7"/>
<polygon fill="none" stroke="#000000" points="513,-461.7 513,-484.7 835,-484.7 835,-461.7 513,-461.7"/>
<text text-anchor="start" x="518" y="-470.3" font-family="Helvetica,sans-Serif" font-weight="bold" font-size="11.00" fill="#000000">StudentCompetencyEvaluations</text>
<text text-anchor="start" x="800.0437" y="-469.8" font-family="Helvetica,sans-Serif" font-size="11.00" fill="#000000">[table]</text>
<polygon fill="none" stroke="#000000" points="513,-439.7 513,-461.7 741,-461.7 741,-439.7 513,-439.7"/>
<image xlink:href="../../images/primaryKeys.png" width="11px" height="12px" preserveAspectRatio="xMinYMin meet" x="518" y="-456.7"/>
<text text-anchor="start" x="533" y="-446.8" font-family="Helvetica,sans-Serif" font-size="11.00" fill="#000000">Id</text>
<polygon fill="none" stroke="#000000" points="741,-439.7 741,-461.7 835,-461.7 835,-439.7 741,-439.7"/>
<text text-anchor="start" x="743.9758" y="-447.4" font-family="Helvetica,sans-Serif" font-size="11.00" fill="#000000">uuid[2147483647]</text>
<polygon fill="#ffffff" stroke="transparent" points="513,-417.7 513,-439.7 741,-439.7 741,-417.7 513,-417.7"/>
<polygon fill="none" stroke="#000000" points="513,-417.7 513,-439.7 741,-439.7 741,-417.7 513,-417.7"/>
<image xlink:href="../../images/foreignKeys.png" width="11px" height="12px" preserveAspectRatio="xMinYMin meet" x="518" y="-434.7"/>
<text text-anchor="start" x="533" y="-424.8" font-family="Helvetica,sans-Serif" font-size="11.00" fill="#000000">ProfessorCompetencyAssignmentId</text>
<polygon fill="none" stroke="#000000" points="741,-417.7 741,-439.7 835,-439.7 835,-417.7 741,-417.7"/>
<text text-anchor="start" x="743.9758" y="-425.4" font-family="Helvetica,sans-Serif" font-size="11.00" fill="#000000">uuid[2147483647]</text>
<polygon fill="#ffffff" stroke="transparent" points="513,-395.7 513,-417.7 741,-417.7 741,-395.7 513,-395.7"/>
<polygon fill="none" stroke="#000000" points="513,-395.7 513,-417.7 741,-417.7 741,-395.7 513,-395.7"/>
<image xlink:href="../../images/foreignKeys.png" width="11px" height="12px" preserveAspectRatio="xMinYMin meet" x="518" y="-412.7"/>
<text text-anchor="start" x="533" y="-402.8" font-family="Helvetica,sans-Serif" font-size="11.00" fill="#000000">StudentId</text>
<polygon fill="none" stroke="#000000" points="741,-395.7 741,-417.7 835,-417.7 835,-395.7 741,-395.7"/>
<text text-anchor="start" x="744" y="-403.4" font-family="Helvetica,sans-Serif" font-size="11.00" fill="#000000">text[2147483647]</text>
<polygon fill="none" stroke="#000000" points="513,-373.7 513,-395.7 741,-395.7 741,-373.7 513,-373.7"/>
<text text-anchor="start" x="533" y="-380.8" font-family="Helvetica,sans-Serif" font-size="11.00" fill="#000000">Status</text>
<polygon fill="none" stroke="#000000" points="741,-373.7 741,-395.7 835,-395.7 835,-373.7 741,-373.7"/>
<text text-anchor="start" x="744" y="-381.4" font-family="Helvetica,sans-Serif" font-size="11.00" fill="#000000">text[2147483647]</text>
<polygon fill="none" stroke="#000000" points="513,-351.7 513,-373.7 741,-373.7 741,-351.7 513,-351.7"/>
<text text-anchor="start" x="533" y="-358.8" font-family="Helvetica,sans-Serif" font-size="11.00" fill="#000000">CompletedAt</text>
<polygon fill="none" stroke="#000000" points="741,-351.7 741,-373.7 835,-373.7 835,-351.7 741,-351.7"/>
<text text-anchor="start" x="744" y="-359.4" font-family="Helvetica,sans-Serif" font-size="11.00" fill="#000000">timestamptz[35,6]</text>
<polygon fill="none" stroke="#000000" points="513,-329.7 513,-351.7 741,-351.7 741,-329.7 513,-329.7"/>
<text text-anchor="start" x="533" y="-336.8" font-family="Helvetica,sans-Serif" font-size="11.00" fill="#000000">Comments</text>
<polygon fill="none" stroke="#000000" points="741,-329.7 741,-351.7 835,-351.7 835,-329.7 741,-329.7"/>
<text text-anchor="start" x="744" y="-337.4" font-family="Helvetica,sans-Serif" font-size="11.00" fill="#000000">text[2147483647]</text>
<polygon fill="none" stroke="#000000" points="513,-307.7 513,-329.7 741,-329.7 741,-307.7 513,-307.7"/>
<text text-anchor="start" x="533" y="-314.8" font-family="Helvetica,sans-Serif" font-size="11.00" fill="#000000">FinalScore</text>
<polygon fill="none" stroke="#000000" points="741,-307.7 741,-329.7 835,-329.7 835,-307.7 741,-307.7"/>
<text text-anchor="start" x="744" y="-315.4" font-family="Helvetica,sans-Serif" font-size="11.00" fill="#000000">numeric[0]</text>
<polygon fill="none" stroke="#000000" points="513,-285.7 513,-307.7 741,-307.7 741,-285.7 513,-285.7"/>
<text text-anchor="start" x="533" y="-292.8" font-family="Helvetica,sans-Serif" font-size="11.00" fill="#000000">IsActive</text>
<polygon fill="none" stroke="#000000" points="741,-285.7 741,-307.7 835,-307.7 835,-285.7 741,-285.7"/>
<text text-anchor="start" x="744" y="-293.4" font-family="Helvetica,sans-Serif" font-size="11.00" fill="#000000">bool[1]</text>
<polygon fill="none" stroke="#000000" points="513,-263.7 513,-285.7 741,-285.7 741,-263.7 513,-263.7"/>
<text text-anchor="start" x="533" y="-270.8" font-family="Helvetica,sans-Serif" font-size="11.00" fill="#000000">CreatedAt</text>
<polygon fill="none" stroke="#000000" points="741,-263.7 741,-285.7 835,-285.7 835,-263.7 741,-263.7"/>
<text text-anchor="start" x="744" y="-271.4" font-family="Helvetica,sans-Serif" font-size="11.00" fill="#000000">timestamptz[35,6]</text>
<polygon fill="none" stroke="#000000" points="513,-241.7 513,-263.7 741,-263.7 741,-241.7 513,-241.7"/>
<text text-anchor="start" x="533" y="-248.8" font-family="Helvetica,sans-Serif" font-size="11.00" fill="#000000">UpdatedAt</text>
<polygon fill="none" stroke="#000000" points="741,-241.7 741,-263.7 835,-263.7 835,-241.7 741,-241.7"/>
<text text-anchor="start" x="744" y="-249.4" font-family="Helvetica,sans-Serif" font-size="11.00" fill="#000000">timestamptz[35,6]</text>
<polygon fill="#ffffff" stroke="transparent" points="513,-219.7 513,-241.7 741,-241.7 741,-219.7 513,-219.7"/>
<polygon fill="none" stroke="#000000" points="513,-219.7 513,-241.7 741,-241.7 741,-219.7 513,-219.7"/>
<image xlink:href="../../images/foreignKeys.png" width="11px" height="12px" preserveAspectRatio="xMinYMin meet" x="518" y="-236.7"/>
<text text-anchor="start" x="533" y="-226.8" font-family="Helvetica,sans-Serif" font-size="11.00" fill="#000000">CreatedByUserId</text>
<polygon fill="none" stroke="#000000" points="741,-219.7 741,-241.7 835,-241.7 835,-219.7 741,-219.7"/>
<text text-anchor="start" x="744" y="-227.4" font-family="Helvetica,sans-Serif" font-size="11.00" fill="#000000">text[2147483647]</text>
<polygon fill="#ffffff" stroke="transparent" points="513,-197.7 513,-219.7 741,-219.7 741,-197.7 513,-197.7"/>
<polygon fill="none" stroke="#000000" points="513,-197.7 513,-219.7 741,-219.7 741,-197.7 513,-197.7"/>
<image xlink:href="../../images/foreignKeys.png" width="11px" height="12px" preserveAspectRatio="xMinYMin meet" x="518" y="-214.7"/>
<text text-anchor="start" x="533" y="-204.8" font-family="Helvetica,sans-Serif" font-size="11.00" fill="#000000">UpdatedByUserId</text>
<polygon fill="none" stroke="#000000" points="741,-197.7 741,-219.7 835,-219.7 835,-197.7 741,-197.7"/>
<text text-anchor="start" x="744" y="-205.4" font-family="Helvetica,sans-Serif" font-size="11.00" fill="#000000">text[2147483647]</text>
<polygon fill="none" stroke="#000000" points="513,-175.7 513,-197.7 741,-197.7 741,-175.7 513,-175.7"/>
<text text-anchor="start" x="533" y="-182.8" font-family="Helvetica,sans-Serif" font-size="11.00" fill="#000000">CareerYear</text>
<polygon fill="none" stroke="#000000" points="741,-175.7 741,-197.7 835,-197.7 835,-175.7 741,-175.7"/>
<text text-anchor="start" x="744" y="-183.4" font-family="Helvetica,sans-Serif" font-size="11.00" fill="#000000">int4[10]</text>
<polygon fill="none" stroke="#000000" points="513,-153.7 513,-175.7 741,-175.7 741,-153.7 513,-153.7"/>
<text text-anchor="start" x="533" y="-160.8" font-family="Helvetica,sans-Serif" font-size="11.00" fill="#000000">CompetencyLevel</text>
<polygon fill="none" stroke="#000000" points="741,-153.7 741,-175.7 835,-175.7 835,-153.7 741,-153.7"/>
<text text-anchor="start" x="744" y="-161.4" font-family="Helvetica,sans-Serif" font-size="11.00" fill="#000000">int4[10]</text>
<polygon fill="#ffffff" stroke="transparent" points="513,-134.7 513,-153.7 618,-153.7 618,-134.7 513,-134.7"/>
<polygon fill="none" stroke="#000000" points="513,-134.7 513,-153.7 618,-153.7 618,-134.7 513,-134.7"/>
<text text-anchor="start" x="516" y="-140.8" font-family="Helvetica,sans-Serif" font-size="11.00" fill="#000000">&lt; 4</text>
<polygon fill="#ffffff" stroke="transparent" points="618,-134.7 618,-153.7 741,-153.7 741,-134.7 618,-134.7"/>
<polygon fill="none" stroke="#000000" points="618,-134.7 618,-153.7 741,-153.7 741,-134.7 618,-134.7"/>
<text text-anchor="start" x="705.6105" y="-140.8" font-family="Helvetica,sans-Serif" font-size="11.00" fill="#000000">0 rows</text>
<polygon fill="#ffffff" stroke="transparent" points="741,-134.7 741,-153.7 835,-153.7 835,-134.7 741,-134.7"/>
<polygon fill="none" stroke="#000000" points="741,-134.7 741,-153.7 835,-153.7 835,-134.7 741,-134.7"/>
<text text-anchor="start" x="816.4053" y="-140.8" font-family="Helvetica,sans-Serif" font-size="11.00" fill="#000000">1 &gt;</text>
<polygon fill="none" stroke="#000000" stroke-width="2" points="512,-133.7 512,-485.7 836,-485.7 836,-133.7 512,-133.7"/>
</a>
</g>
</g>
<!-- QuestionResponses&#45;&gt;StudentCompetencyEvaluations -->
<g id="edge4" class="edge">
<title>QuestionResponses:w&#45;&gt;StudentCompetencyEvaluations:e</title>
<path fill="none" stroke="#000000" d="M871.9966,-131.9893C759.484,-154.0093 973.7066,-450.7 835,-450.7"/>
<polygon fill="#000000" stroke="#000000" points="878.5314,-131.4084 886.8188,-134.2859 882.5157,-131.0542 886.5,-130.7 886.5,-130.7 886.5,-130.7 882.5157,-131.0542 886.1812,-127.1141 878.5314,-131.4084 878.5314,-131.4084"/>
<ellipse fill="none" stroke="#000000" cx="875.344" cy="-131.6918" rx="3.2" ry="3.2"/>
</g>
<!-- StudentCompetencyEvaluations&#45;&gt;ProfessorCompetencyAssignments -->
<g id="edge7" class="edge">
<title>StudentCompetencyEvaluations:w&#45;&gt;ProfessorCompetencyAssignments:e</title>
<path fill="none" stroke="#000000" d="M498.9616,-432.7035C473.698,-451.2249 505.5017,-527.7 462,-527.7"/>
<polygon fill="#000000" stroke="#000000" points="505.3067,-430.894 513.9873,-432.162 509.1534,-429.797 513,-428.7 513,-428.7 513,-428.7 509.1534,-429.797 512.0127,-425.238 505.3067,-430.894 505.3067,-430.894"/>
<ellipse fill="none" stroke="#000000" cx="502.2294" cy="-431.7717" rx="3.2" ry="3.2"/>
</g>
<!-- StudentCompetencyEvaluations&#45;&gt;AspNetUsers -->
<g id="edge6" class="edge">
<title>StudentCompetencyEvaluations:w&#45;&gt;AspNetUsers:e</title>
<path fill="none" stroke="#000000" d="M498.7076,-227.5496C489.4929,-222.8772 484.5511,-214.278 470,-210.7 341.0293,-178.9869 304.3125,-196.7 171.5,-196.7"/>
<polygon fill="#000000" stroke="#000000" points="505.1875,-228.9779 512.2251,-234.2156 509.0938,-229.8389 513,-230.7 513,-230.7 513,-230.7 509.0938,-229.8389 513.7749,-227.1844 505.1875,-228.9779 505.1875,-228.9779"/>
<ellipse fill="none" stroke="#000000" cx="502.0626" cy="-228.2891" rx="3.2" ry="3.2"/>
</g>
<!-- StudentCompetencyEvaluations&#45;&gt;AspNetUsers -->
<g id="edge9" class="edge">
<title>StudentCompetencyEvaluations:w&#45;&gt;AspNetUsers:e</title>
<path fill="none" stroke="#000000" d="M498.7837,-205.6241C489.5756,-201.0768 484.5338,-192.7679 470,-189.7 357.8056,-166.0173 326.2471,-179.8995 212,-189.7 193.8,-191.2613 189.7669,-196.7 171.5,-196.7"/>
<polygon fill="#000000" stroke="#000000" points="505.1809,-207.0082 512.2387,-212.2186 509.0905,-207.8541 513,-208.7 513,-208.7 513,-208.7 509.0905,-207.8541 513.7613,-205.1814 505.1809,-207.0082 505.1809,-207.0082"/>
<ellipse fill="none" stroke="#000000" cx="502.0533" cy="-206.3315" rx="3.2" ry="3.2"/>
</g>
<!-- Students -->
<g id="node5" class="node">
<title>Students</title>
<g id="a_node5"><a xlink:href="../../tables/Students.html" xlink:title="Students" target="_top">
<polygon fill="#ffffff" stroke="transparent" points="278.5,-221.2 278.5,-326.2 403.5,-326.2 403.5,-221.2 278.5,-221.2"/>
<polygon fill="#f5f5f5" stroke="transparent" points="279,-302.7 279,-325.7 404,-325.7 404,-302.7 279,-302.7"/>
<polygon fill="none" stroke="#000000" points="279,-302.7 279,-325.7 404,-325.7 404,-302.7 279,-302.7"/>
<text text-anchor="start" x="284" y="-311.3" font-family="Helvetica,sans-Serif" font-weight="bold" font-size="11.00" fill="#000000">Students</text>
<text text-anchor="start" x="369.0437" y="-310.8" font-family="Helvetica,sans-Serif" font-size="11.00" fill="#000000">[table]</text>
<polygon fill="none" stroke="#000000" points="279,-280.7 279,-302.7 404,-302.7 404,-280.7 279,-280.7"/>
<image xlink:href="../../images/primaryKeys.png" width="11px" height="12px" preserveAspectRatio="xMinYMin meet" x="284" y="-297.7"/>
<text text-anchor="start" x="299" y="-287.8" font-family="Helvetica,sans-Serif" font-size="11.00" fill="#000000">UserId</text>
<polygon fill="#ffffff" stroke="transparent" points="279,-258.7 279,-280.7 404,-280.7 404,-258.7 279,-258.7"/>
<polygon fill="none" stroke="#000000" points="279,-258.7 279,-280.7 404,-280.7 404,-258.7 279,-258.7"/>
<image xlink:href="../../images/foreignKeys.png" width="11px" height="12px" preserveAspectRatio="xMinYMin meet" x="284" y="-275.7"/>
<text text-anchor="start" x="299" y="-265.8" font-family="Helvetica,sans-Serif" font-size="11.00" fill="#000000">TechnicalCareerId</text>
<polygon fill="none" stroke="#000000" points="279,-239.7 279,-258.7 404,-258.7 404,-239.7 279,-239.7"/>
<text text-anchor="start" x="282" y="-245.8" font-family="Helvetica,sans-Serif" font-size="11.00" fill="#000000">...</text>
<polygon fill="#ffffff" stroke="transparent" points="279,-220.7 279,-239.7 322,-239.7 322,-220.7 279,-220.7"/>
<polygon fill="none" stroke="#000000" points="279,-220.7 279,-239.7 322,-239.7 322,-220.7 279,-220.7"/>
<text text-anchor="start" x="282" y="-226.8" font-family="Helvetica,sans-Serif" font-size="11.00" fill="#000000">&lt; 2</text>
<polygon fill="#ffffff" stroke="transparent" points="322,-220.7 322,-239.7 371,-239.7 371,-220.7 322,-220.7"/>
<polygon fill="none" stroke="#000000" points="322,-220.7 322,-239.7 371,-239.7 371,-220.7 322,-220.7"/>
<text text-anchor="start" x="335.6105" y="-226.8" font-family="Helvetica,sans-Serif" font-size="11.00" fill="#000000">0 rows</text>
<polygon fill="#ffffff" stroke="transparent" points="371,-220.7 371,-239.7 404,-239.7 404,-220.7 371,-220.7"/>
<polygon fill="none" stroke="#000000" points="371,-220.7 371,-239.7 404,-239.7 404,-220.7 371,-220.7"/>
<text text-anchor="start" x="385.4053" y="-226.8" font-family="Helvetica,sans-Serif" font-size="11.00" fill="#000000">3 &gt;</text>
</a>
</g>
</g>
<!-- StudentCompetencyEvaluations&#45;&gt;Students -->
<g id="edge8" class="edge">
<title>StudentCompetencyEvaluations:w&#45;&gt;Students:e</title>
<path fill="none" stroke="#000000" d="M498.564,-403.1465C481.622,-392.2276 490.8661,-358.5829 470,-336.7 445.4998,-311.0059 439.5027,-291.7 404,-291.7"/>
<polygon fill="#000000" stroke="#000000" points="505.2319,-404.7878 512.1395,-410.1957 509.1159,-405.7439 513,-406.7 513,-406.7 513,-406.7 509.1159,-405.7439 513.8605,-403.2043 505.2319,-404.7878 505.2319,-404.7878"/>
<ellipse fill="none" stroke="#000000" cx="502.1246" cy="-404.0229" rx="3.2" ry="3.2"/>
</g>
<!-- Students&#45;&gt;AspNetUsers -->
<g id="edge10" class="edge">
<title>Students:w&#45;&gt;AspNetUsers:e</title>
<path fill="none" stroke="#000000" d="M268.6213,-290.7598C217.2979,-280.8933 231.5248,-196.7 171.5,-196.7"/>
<polygon fill="#000000" stroke="#000000" points="278.5642,-287.6441 277.8423,-295.6115 276.2489,-295.4671 276.9707,-287.4998 278.5642,-287.6441"/>
<polyline fill="none" stroke="#000000" points="279,-291.7 275.0163,-291.3391 "/>
<ellipse fill="none" stroke="#000000" cx="271.8294" cy="-291.0503" rx="3.2" ry="3.2"/>
</g>
</g>
</svg>
