<?xml version="1.0" encoding="UTF-8" standalone="no"?>
<!DOCTYPE svg PUBLIC "-//W3C//DTD SVG 1.1//EN"
 "http://www.w3.org/Graphics/SVG/1.1/DTD/svg11.dtd">
<!-- Generated by graphviz version 2.40.1 (20161225.0304)
 -->
<!-- Title: oneDegreeRelationshipsDiagram Pages: 1 -->
<svg width="1285pt" height="704pt"
 viewBox="0.00 0.00 1285.00 704.04" xmlns="http://www.w3.org/2000/svg" xmlns:xlink="http://www.w3.org/1999/xlink">
<g id="graph0" class="graph" transform="scale(1 1) rotate(0) translate(4 700.0398)">
<title>oneDegreeRelationshipsDiagram</title>
<polygon fill="#ffffff" stroke="transparent" points="-4,4 -4,-700.0398 1281,-700.0398 1281,4 -4,4"/>
<text text-anchor="middle" x="72.4936" y="-7.3" font-family="Helvetica,sans-Serif" font-size="11.00" fill="#000000">Generated by SchemaSpy</text>
<!-- ProfessorCompetencyAssignments -->
<g id="node1" class="node">
<title>ProfessorCompetencyAssignments</title>
<g id="a_node1"><a xlink:href="../../tables/ProfessorCompetencyAssignments.html" xlink:title="ProfessorCompetencyAssignments" target="_top">
<polygon fill="#ffffff" stroke="transparent" points="394,-455.0398 394,-692.0398 636,-692.0398 636,-455.0398 394,-455.0398"/>
<polygon fill="#f5f5f5" stroke="transparent" points="394,-668.5398 394,-691.5398 636,-691.5398 636,-668.5398 394,-668.5398"/>
<polygon fill="none" stroke="#000000" points="394,-668.5398 394,-691.5398 636,-691.5398 636,-668.5398 394,-668.5398"/>
<text text-anchor="start" x="399" y="-677.1398" font-family="Helvetica,sans-Serif" font-weight="bold" font-size="11.00" fill="#000000">ProfessorCompetencyAssignments</text>
<text text-anchor="start" x="601.5219" y="-676.6398" font-family="Helvetica,sans-Serif" font-size="11.00" fill="#000000">[table]</text>
<polygon fill="none" stroke="#000000" points="394,-646.5398 394,-668.5398 636,-668.5398 636,-646.5398 394,-646.5398"/>
<image xlink:href="../../images/primaryKeys.png" width="11px" height="12px" preserveAspectRatio="xMinYMin meet" x="399" y="-663.54"/>
<text text-anchor="start" x="423" y="-653.6398" font-family="Helvetica,sans-Serif" font-size="11.00" fill="#000000">Id</text>
<polygon fill="#ffffff" stroke="transparent" points="394,-624.5398 394,-646.5398 636,-646.5398 636,-624.5398 394,-624.5398"/>
<polygon fill="none" stroke="#000000" points="394,-624.5398 394,-646.5398 636,-646.5398 636,-624.5398 394,-624.5398"/>
<image xlink:href="../../images/foreignKeys.png" width="11px" height="12px" preserveAspectRatio="xMinYMin meet" x="399" y="-641.54"/>
<text text-anchor="start" x="423" y="-631.6398" font-family="Helvetica,sans-Serif" font-size="11.00" fill="#000000">TechnicalCareerId</text>
<polygon fill="#ffffff" stroke="transparent" points="394,-602.5398 394,-624.5398 636,-624.5398 636,-602.5398 394,-602.5398"/>
<polygon fill="none" stroke="#000000" points="394,-602.5398 394,-624.5398 636,-624.5398 636,-602.5398 394,-602.5398"/>
<image xlink:href="../../images/foreignKeys.png" width="11px" height="12px" preserveAspectRatio="xMinYMin meet" x="399" y="-619.54"/>
<text text-anchor="start" x="423" y="-609.6398" font-family="Helvetica,sans-Serif" font-size="11.00" fill="#000000">CompetencyId</text>
<polygon fill="#ffffff" stroke="transparent" points="394,-580.5398 394,-602.5398 636,-602.5398 636,-580.5398 394,-580.5398"/>
<polygon fill="none" stroke="#000000" points="394,-580.5398 394,-602.5398 636,-602.5398 636,-580.5398 394,-580.5398"/>
<image xlink:href="../../images/foreignKeys.png" width="11px" height="12px" preserveAspectRatio="xMinYMin meet" x="399" y="-597.54"/>
<text text-anchor="start" x="423" y="-587.6398" font-family="Helvetica,sans-Serif" font-size="11.00" fill="#000000">EvaluationPeriodId</text>
<polygon fill="#ffffff" stroke="transparent" points="394,-558.5398 394,-580.5398 636,-580.5398 636,-558.5398 394,-558.5398"/>
<polygon fill="none" stroke="#000000" points="394,-558.5398 394,-580.5398 636,-580.5398 636,-558.5398 394,-558.5398"/>
<image xlink:href="../../images/foreignKeys.png" width="11px" height="12px" preserveAspectRatio="xMinYMin meet" x="399" y="-575.54"/>
<text text-anchor="start" x="423" y="-565.6398" font-family="Helvetica,sans-Serif" font-size="11.00" fill="#000000">CreatedByUserId</text>
<polygon fill="#ffffff" stroke="transparent" points="394,-536.5398 394,-558.5398 636,-558.5398 636,-536.5398 394,-536.5398"/>
<polygon fill="none" stroke="#000000" points="394,-536.5398 394,-558.5398 636,-558.5398 636,-536.5398 394,-536.5398"/>
<image xlink:href="../../images/foreignKeys.png" width="11px" height="12px" preserveAspectRatio="xMinYMin meet" x="399" y="-553.54"/>
<text text-anchor="start" x="423" y="-543.6398" font-family="Helvetica,sans-Serif" font-size="11.00" fill="#000000">UpdatedByUserId</text>
<polygon fill="#ffffff" stroke="transparent" points="394,-514.5398 394,-536.5398 636,-536.5398 636,-514.5398 394,-514.5398"/>
<polygon fill="none" stroke="#000000" points="394,-514.5398 394,-536.5398 636,-536.5398 636,-514.5398 394,-514.5398"/>
<image xlink:href="../../images/foreignKeys.png" width="11px" height="12px" preserveAspectRatio="xMinYMin meet" x="399" y="-531.54"/>
<text text-anchor="start" x="423" y="-521.6398" font-family="Helvetica,sans-Serif" font-size="11.00" fill="#000000">ProfessorUserId</text>
<polygon fill="#ffffff" stroke="transparent" points="394,-492.5398 394,-514.5398 636,-514.5398 636,-492.5398 394,-492.5398"/>
<polygon fill="none" stroke="#000000" points="394,-492.5398 394,-514.5398 636,-514.5398 636,-492.5398 394,-492.5398"/>
<image xlink:href="../../images/foreignKeys.png" width="11px" height="12px" preserveAspectRatio="xMinYMin meet" x="399" y="-509.54"/>
<text text-anchor="start" x="423" y="-499.6398" font-family="Helvetica,sans-Serif" font-size="11.00" fill="#000000">SubjectId</text>
<polygon fill="none" stroke="#000000" points="394,-473.5398 394,-492.5398 636,-492.5398 636,-473.5398 394,-473.5398"/>
<text text-anchor="start" x="397" y="-479.6398" font-family="Helvetica,sans-Serif" font-size="11.00" fill="#000000">...</text>
<polygon fill="#ffffff" stroke="transparent" points="394,-454.5398 394,-473.5398 496,-473.5398 496,-454.5398 394,-454.5398"/>
<polygon fill="none" stroke="#000000" points="394,-454.5398 394,-473.5398 496,-473.5398 496,-454.5398 394,-454.5398"/>
<text text-anchor="start" x="397" y="-460.6398" font-family="Helvetica,sans-Serif" font-size="11.00" fill="#000000">&lt; 7</text>
<polygon fill="#ffffff" stroke="transparent" points="496,-454.5398 496,-473.5398 574,-473.5398 574,-454.5398 496,-454.5398"/>
<polygon fill="none" stroke="#000000" points="496,-454.5398 496,-473.5398 574,-473.5398 574,-454.5398 496,-454.5398"/>
<text text-anchor="start" x="538.6105" y="-460.6398" font-family="Helvetica,sans-Serif" font-size="11.00" fill="#000000">0 rows</text>
<polygon fill="#ffffff" stroke="transparent" points="574,-454.5398 574,-473.5398 636,-473.5398 636,-454.5398 574,-454.5398"/>
<polygon fill="none" stroke="#000000" points="574,-454.5398 574,-473.5398 636,-473.5398 636,-454.5398 574,-454.5398"/>
<text text-anchor="start" x="617.4053" y="-460.6398" font-family="Helvetica,sans-Serif" font-size="11.00" fill="#000000">1 &gt;</text>
</a>
</g>
</g>
<!-- AspNetUsers -->
<g id="node2" class="node">
<title>AspNetUsers</title>
<g id="a_node2"><a xlink:href="../../tables/AspNetUsers.html" xlink:title="AspNetUsers" target="_top">
<polygon fill="#ffffff" stroke="transparent" points="8,-180.0398 8,-307.0398 171,-307.0398 171,-180.0398 8,-180.0398"/>
<polygon fill="#f5f5f5" stroke="transparent" points="8.5,-283.5398 8.5,-306.5398 171.5,-306.5398 171.5,-283.5398 8.5,-283.5398"/>
<polygon fill="none" stroke="#000000" points="8.5,-283.5398 8.5,-306.5398 171.5,-306.5398 171.5,-283.5398 8.5,-283.5398"/>
<text text-anchor="start" x="13.5" y="-292.1398" font-family="Helvetica,sans-Serif" font-weight="bold" font-size="11.00" fill="#000000">AspNetUsers</text>
<text text-anchor="start" x="136.5437" y="-291.6398" font-family="Helvetica,sans-Serif" font-size="11.00" fill="#000000">[table]</text>
<polygon fill="none" stroke="#000000" points="8.5,-261.5398 8.5,-283.5398 171.5,-283.5398 171.5,-261.5398 8.5,-261.5398"/>
<image xlink:href="../../images/primaryKeys.png" width="11px" height="12px" preserveAspectRatio="xMinYMin meet" x="13.5" y="-278.54"/>
<text text-anchor="start" x="28.5" y="-268.6398" font-family="Helvetica,sans-Serif" font-size="11.00" fill="#000000">Id</text>
<polygon fill="#ffffff" stroke="transparent" points="8.5,-239.5398 8.5,-261.5398 171.5,-261.5398 171.5,-239.5398 8.5,-239.5398"/>
<polygon fill="none" stroke="#000000" points="8.5,-239.5398 8.5,-261.5398 171.5,-261.5398 171.5,-239.5398 8.5,-239.5398"/>
<text text-anchor="start" x="28.5" y="-246.6398" font-family="Helvetica,sans-Serif" font-size="11.00" fill="#000000">NormalizedUserName</text>
<polygon fill="#ffffff" stroke="transparent" points="8.5,-217.5398 8.5,-239.5398 171.5,-239.5398 171.5,-217.5398 8.5,-217.5398"/>
<polygon fill="none" stroke="#000000" points="8.5,-217.5398 8.5,-239.5398 171.5,-239.5398 171.5,-217.5398 8.5,-217.5398"/>
<text text-anchor="start" x="28.5" y="-224.6398" font-family="Helvetica,sans-Serif" font-size="11.00" fill="#000000">NormalizedEmail</text>
<polygon fill="none" stroke="#000000" points="8.5,-198.5398 8.5,-217.5398 171.5,-217.5398 171.5,-198.5398 8.5,-198.5398"/>
<text text-anchor="start" x="11.5" y="-204.6398" font-family="Helvetica,sans-Serif" font-size="11.00" fill="#000000">...</text>
<polygon fill="#ffffff" stroke="transparent" points="8.5,-179.5398 8.5,-198.5398 66.5,-198.5398 66.5,-179.5398 8.5,-179.5398"/>
<polygon fill="none" stroke="#000000" points="8.5,-179.5398 8.5,-198.5398 66.5,-198.5398 66.5,-179.5398 8.5,-179.5398"/>
<text text-anchor="start" x="11.5" y="-185.6398" font-family="Helvetica,sans-Serif" font-size="11.00" fill="#000000"> &#160;</text>
<polygon fill="#ffffff" stroke="transparent" points="66.5,-179.5398 66.5,-198.5398 121.5,-198.5398 121.5,-179.5398 66.5,-179.5398"/>
<polygon fill="none" stroke="#000000" points="66.5,-179.5398 66.5,-198.5398 121.5,-198.5398 121.5,-179.5398 66.5,-179.5398"/>
<text text-anchor="start" x="91.6105" y="-185.6398" font-family="Helvetica,sans-Serif" font-size="11.00" fill="#000000">1 row</text>
<polygon fill="#ffffff" stroke="transparent" points="121.5,-179.5398 121.5,-198.5398 171.5,-198.5398 171.5,-179.5398 121.5,-179.5398"/>
<polygon fill="none" stroke="#000000" points="121.5,-179.5398 121.5,-198.5398 171.5,-198.5398 171.5,-179.5398 121.5,-179.5398"/>
<text text-anchor="start" x="146.7904" y="-185.6398" font-family="Helvetica,sans-Serif" font-size="11.00" fill="#000000">29 &gt;</text>
</a>
</g>
</g>
<!-- ProfessorCompetencyAssignments&#45;&gt;AspNetUsers -->
<g id="edge1" class="edge">
<title>ProfessorCompetencyAssignments:w&#45;&gt;AspNetUsers:e</title>
<path fill="none" stroke="#000000" d="M379.2371,-569.9919C307.5959,-574.3438 267.5095,-607.5342 212,-555.5398 165.6337,-512.1097 235.0296,-272.5398 171.5,-272.5398"/>
<polygon fill="#000000" stroke="#000000" points="386.0037,-569.7847 394.1102,-573.1381 390.0019,-569.6623 394,-569.5398 394,-569.5398 394,-569.5398 390.0019,-569.6623 393.8898,-565.9415 386.0037,-569.7847 386.0037,-569.7847"/>
<ellipse fill="none" stroke="#000000" cx="382.8052" cy="-569.8827" rx="3.2" ry="3.2"/>
</g>
<!-- ProfessorCompetencyAssignments&#45;&gt;AspNetUsers -->
<g id="edge3" class="edge">
<title>ProfessorCompetencyAssignments:w&#45;&gt;AspNetUsers:e</title>
<path fill="none" stroke="#000000" d="M379.5887,-547.849C331.5492,-549.5145 238.6479,-556.4488 212,-531.5398 169.4424,-491.7592 229.755,-272.5398 171.5,-272.5398"/>
<polygon fill="#000000" stroke="#000000" points="386.0018,-547.7115 394.0772,-551.139 390.0009,-547.6256 394,-547.5398 394,-547.5398 394,-547.5398 390.0009,-547.6256 393.9228,-543.9406 386.0018,-547.7115 386.0018,-547.7115"/>
<ellipse fill="none" stroke="#000000" cx="382.8026" cy="-547.7801" rx="3.2" ry="3.2"/>
</g>
<!-- Subjects -->
<g id="node3" class="node">
<title>Subjects</title>
<g id="a_node3"><a xlink:href="../../tables/Subjects.html" xlink:title="Subjects" target="_top">
<polygon fill="#ffffff" stroke="transparent" points="220,-224.0398 220,-395.0398 345,-395.0398 345,-224.0398 220,-224.0398"/>
<polygon fill="#f5f5f5" stroke="transparent" points="220.5,-371.5398 220.5,-394.5398 345.5,-394.5398 345.5,-371.5398 220.5,-371.5398"/>
<polygon fill="none" stroke="#000000" points="220.5,-371.5398 220.5,-394.5398 345.5,-394.5398 345.5,-371.5398 220.5,-371.5398"/>
<text text-anchor="start" x="225.5" y="-380.1398" font-family="Helvetica,sans-Serif" font-weight="bold" font-size="11.00" fill="#000000">Subjects</text>
<text text-anchor="start" x="310.5437" y="-379.6398" font-family="Helvetica,sans-Serif" font-size="11.00" fill="#000000">[table]</text>
<polygon fill="none" stroke="#000000" points="220.5,-349.5398 220.5,-371.5398 345.5,-371.5398 345.5,-349.5398 220.5,-349.5398"/>
<image xlink:href="../../images/primaryKeys.png" width="11px" height="12px" preserveAspectRatio="xMinYMin meet" x="225.5" y="-366.54"/>
<text text-anchor="start" x="240.5" y="-356.6398" font-family="Helvetica,sans-Serif" font-size="11.00" fill="#000000">Id</text>
<polygon fill="#ffffff" stroke="transparent" points="220.5,-327.5398 220.5,-349.5398 345.5,-349.5398 345.5,-327.5398 220.5,-327.5398"/>
<polygon fill="none" stroke="#000000" points="220.5,-327.5398 220.5,-349.5398 345.5,-349.5398 345.5,-327.5398 220.5,-327.5398"/>
<image xlink:href="../../images/foreignKeys.png" width="11px" height="12px" preserveAspectRatio="xMinYMin meet" x="225.5" y="-344.54"/>
<text text-anchor="start" x="240.5" y="-334.6398" font-family="Helvetica,sans-Serif" font-size="11.00" fill="#000000">TechnicalCareerId</text>
<polygon fill="#ffffff" stroke="transparent" points="220.5,-305.5398 220.5,-327.5398 345.5,-327.5398 345.5,-305.5398 220.5,-305.5398"/>
<polygon fill="none" stroke="#000000" points="220.5,-305.5398 220.5,-327.5398 345.5,-327.5398 345.5,-305.5398 220.5,-305.5398"/>
<image xlink:href="../../images/foreignKeys.png" width="11px" height="12px" preserveAspectRatio="xMinYMin meet" x="225.5" y="-322.54"/>
<text text-anchor="start" x="240.5" y="-312.6398" font-family="Helvetica,sans-Serif" font-size="11.00" fill="#000000">ProfessorId</text>
<polygon fill="#ffffff" stroke="transparent" points="220.5,-283.5398 220.5,-305.5398 345.5,-305.5398 345.5,-283.5398 220.5,-283.5398"/>
<polygon fill="none" stroke="#000000" points="220.5,-283.5398 220.5,-305.5398 345.5,-305.5398 345.5,-283.5398 220.5,-283.5398"/>
<image xlink:href="../../images/foreignKeys.png" width="11px" height="12px" preserveAspectRatio="xMinYMin meet" x="225.5" y="-300.54"/>
<text text-anchor="start" x="240.5" y="-290.6398" font-family="Helvetica,sans-Serif" font-size="11.00" fill="#000000">CreatedByUserId</text>
<polygon fill="#ffffff" stroke="transparent" points="220.5,-261.5398 220.5,-283.5398 345.5,-283.5398 345.5,-261.5398 220.5,-261.5398"/>
<polygon fill="none" stroke="#000000" points="220.5,-261.5398 220.5,-283.5398 345.5,-283.5398 345.5,-261.5398 220.5,-261.5398"/>
<image xlink:href="../../images/foreignKeys.png" width="11px" height="12px" preserveAspectRatio="xMinYMin meet" x="225.5" y="-278.54"/>
<text text-anchor="start" x="240.5" y="-268.6398" font-family="Helvetica,sans-Serif" font-size="11.00" fill="#000000">UpdatedByUserId</text>
<polygon fill="none" stroke="#000000" points="220.5,-242.5398 220.5,-261.5398 345.5,-261.5398 345.5,-242.5398 220.5,-242.5398"/>
<text text-anchor="start" x="223.5" y="-248.6398" font-family="Helvetica,sans-Serif" font-size="11.00" fill="#000000">...</text>
<polygon fill="#ffffff" stroke="transparent" points="220.5,-223.5398 220.5,-242.5398 263.5,-242.5398 263.5,-223.5398 220.5,-223.5398"/>
<polygon fill="none" stroke="#000000" points="220.5,-223.5398 220.5,-242.5398 263.5,-242.5398 263.5,-223.5398 220.5,-223.5398"/>
<text text-anchor="start" x="223.5" y="-229.6398" font-family="Helvetica,sans-Serif" font-size="11.00" fill="#000000">&lt; 4</text>
<polygon fill="#ffffff" stroke="transparent" points="263.5,-223.5398 263.5,-242.5398 312.5,-242.5398 312.5,-223.5398 263.5,-223.5398"/>
<polygon fill="none" stroke="#000000" points="263.5,-223.5398 263.5,-242.5398 312.5,-242.5398 312.5,-223.5398 263.5,-223.5398"/>
<text text-anchor="start" x="277.1105" y="-229.6398" font-family="Helvetica,sans-Serif" font-size="11.00" fill="#000000">0 rows</text>
<polygon fill="#ffffff" stroke="transparent" points="312.5,-223.5398 312.5,-242.5398 345.5,-242.5398 345.5,-223.5398 312.5,-223.5398"/>
<polygon fill="none" stroke="#000000" points="312.5,-223.5398 312.5,-242.5398 345.5,-242.5398 345.5,-223.5398 312.5,-223.5398"/>
<text text-anchor="start" x="326.9053" y="-229.6398" font-family="Helvetica,sans-Serif" font-size="11.00" fill="#000000">3 &gt;</text>
</a>
</g>
</g>
<!-- ProfessorCompetencyAssignments&#45;&gt;Subjects -->
<g id="edge2" class="edge">
<title>ProfessorCompetencyAssignments:w&#45;&gt;Subjects:e</title>
<path fill="none" stroke="#000000" d="M379.89,-500.5531C340.4934,-480.0178 406.8441,-360.5398 345.5,-360.5398"/>
<polygon fill="#000000" stroke="#000000" points="386.1734,-501.8831 393.2545,-507.0618 390.0867,-502.7114 394,-503.5398 394,-503.5398 394,-503.5398 390.0867,-502.7114 394.7455,-500.0179 386.1734,-501.8831 386.1734,-501.8831"/>
<ellipse fill="none" stroke="#000000" cx="383.0428" cy="-501.2204" rx="3.2" ry="3.2"/>
</g>
<!-- Subjects&#45;&gt;AspNetUsers -->
<g id="edge13" class="edge">
<title>Subjects:w&#45;&gt;AspNetUsers:e</title>
<path fill="none" stroke="#000000" d="M206.1297,-291.1023C194.5865,-284.9148 189.4041,-272.5398 171.5,-272.5398"/>
<polygon fill="#000000" stroke="#000000" points="212.7195,-292.6786 219.6625,-298.041 216.6098,-293.6092 220.5,-294.5398 220.5,-294.5398 220.5,-294.5398 216.6098,-293.6092 221.3375,-291.0386 212.7195,-292.6786 212.7195,-292.6786"/>
<ellipse fill="none" stroke="#000000" cx="209.6073" cy="-291.9341" rx="3.2" ry="3.2"/>
</g>
<!-- Subjects&#45;&gt;AspNetUsers -->
<g id="edge14" class="edge">
<title>Subjects:w&#45;&gt;AspNetUsers:e</title>
<path fill="none" stroke="#000000" d="M205.9909,-272.5398C194.6774,-272.5398 187.4931,-272.5398 171.5,-272.5398"/>
<polygon fill="#000000" stroke="#000000" points="212.5,-272.5399 220.5,-276.1398 216.5,-272.5398 220.5,-272.5398 220.5,-272.5398 220.5,-272.5398 216.5,-272.5398 220.5,-268.9398 212.5,-272.5399 212.5,-272.5399"/>
<ellipse fill="none" stroke="#000000" cx="209.3" cy="-272.5399" rx="3.2" ry="3.2"/>
</g>
<!-- QuestionResponses -->
<g id="node4" class="node">
<title>QuestionResponses</title>
<g id="a_node4"><a xlink:href="../../tables/QuestionResponses.html" xlink:title="QuestionResponses" target="_top">
<polygon fill="#ffffff" stroke="transparent" points="1060,-75.0398 1060,-246.0398 1269,-246.0398 1269,-75.0398 1060,-75.0398"/>
<polygon fill="#f5f5f5" stroke="transparent" points="1060.5,-222.5398 1060.5,-245.5398 1269.5,-245.5398 1269.5,-222.5398 1060.5,-222.5398"/>
<polygon fill="none" stroke="#000000" points="1060.5,-222.5398 1060.5,-245.5398 1269.5,-245.5398 1269.5,-222.5398 1060.5,-222.5398"/>
<text text-anchor="start" x="1065.5" y="-231.1398" font-family="Helvetica,sans-Serif" font-weight="bold" font-size="11.00" fill="#000000">QuestionResponses</text>
<text text-anchor="start" x="1234.5437" y="-230.6398" font-family="Helvetica,sans-Serif" font-size="11.00" fill="#000000">[table]</text>
<polygon fill="none" stroke="#000000" points="1060.5,-200.5398 1060.5,-222.5398 1269.5,-222.5398 1269.5,-200.5398 1060.5,-200.5398"/>
<image xlink:href="../../images/primaryKeys.png" width="11px" height="12px" preserveAspectRatio="xMinYMin meet" x="1065.5" y="-217.54"/>
<text text-anchor="start" x="1080.5" y="-207.6398" font-family="Helvetica,sans-Serif" font-size="11.00" fill="#000000">Id</text>
<polygon fill="#ffffff" stroke="transparent" points="1060.5,-178.5398 1060.5,-200.5398 1269.5,-200.5398 1269.5,-178.5398 1060.5,-178.5398"/>
<polygon fill="none" stroke="#000000" points="1060.5,-178.5398 1060.5,-200.5398 1269.5,-200.5398 1269.5,-178.5398 1060.5,-178.5398"/>
<image xlink:href="../../images/foreignKeys.png" width="11px" height="12px" preserveAspectRatio="xMinYMin meet" x="1065.5" y="-195.54"/>
<text text-anchor="start" x="1080.5" y="-185.6398" font-family="Helvetica,sans-Serif" font-size="11.00" fill="#000000">FormQuestionId</text>
<polygon fill="#ffffff" stroke="transparent" points="1060.5,-156.5398 1060.5,-178.5398 1269.5,-178.5398 1269.5,-156.5398 1060.5,-156.5398"/>
<polygon fill="none" stroke="#000000" points="1060.5,-156.5398 1060.5,-178.5398 1269.5,-178.5398 1269.5,-156.5398 1060.5,-156.5398"/>
<image xlink:href="../../images/foreignKeys.png" width="11px" height="12px" preserveAspectRatio="xMinYMin meet" x="1065.5" y="-173.54"/>
<text text-anchor="start" x="1080.5" y="-163.6398" font-family="Helvetica,sans-Serif" font-size="11.00" fill="#000000">StudentCompetencyEvaluationId</text>
<polygon fill="#ffffff" stroke="transparent" points="1060.5,-134.5398 1060.5,-156.5398 1269.5,-156.5398 1269.5,-134.5398 1060.5,-134.5398"/>
<polygon fill="none" stroke="#000000" points="1060.5,-134.5398 1060.5,-156.5398 1269.5,-156.5398 1269.5,-134.5398 1060.5,-134.5398"/>
<image xlink:href="../../images/foreignKeys.png" width="11px" height="12px" preserveAspectRatio="xMinYMin meet" x="1065.5" y="-151.54"/>
<text text-anchor="start" x="1080.5" y="-141.6398" font-family="Helvetica,sans-Serif" font-size="11.00" fill="#000000">CreatedByUserId</text>
<polygon fill="#ffffff" stroke="transparent" points="1060.5,-112.5398 1060.5,-134.5398 1269.5,-134.5398 1269.5,-112.5398 1060.5,-112.5398"/>
<polygon fill="none" stroke="#000000" points="1060.5,-112.5398 1060.5,-134.5398 1269.5,-134.5398 1269.5,-112.5398 1060.5,-112.5398"/>
<image xlink:href="../../images/foreignKeys.png" width="11px" height="12px" preserveAspectRatio="xMinYMin meet" x="1065.5" y="-129.54"/>
<text text-anchor="start" x="1080.5" y="-119.6398" font-family="Helvetica,sans-Serif" font-size="11.00" fill="#000000">UpdatedByUserId</text>
<polygon fill="none" stroke="#000000" points="1060.5,-93.5398 1060.5,-112.5398 1269.5,-112.5398 1269.5,-93.5398 1060.5,-93.5398"/>
<text text-anchor="start" x="1063.5" y="-99.6398" font-family="Helvetica,sans-Serif" font-size="11.00" fill="#000000">...</text>
<polygon fill="#ffffff" stroke="transparent" points="1060.5,-74.5398 1060.5,-93.5398 1150.5,-93.5398 1150.5,-74.5398 1060.5,-74.5398"/>
<polygon fill="none" stroke="#000000" points="1060.5,-74.5398 1060.5,-93.5398 1150.5,-93.5398 1150.5,-74.5398 1060.5,-74.5398"/>
<text text-anchor="start" x="1063.5" y="-80.6398" font-family="Helvetica,sans-Serif" font-size="11.00" fill="#000000">&lt; 4</text>
<polygon fill="#ffffff" stroke="transparent" points="1150.5,-74.5398 1150.5,-93.5398 1222.5,-93.5398 1222.5,-74.5398 1150.5,-74.5398"/>
<polygon fill="none" stroke="#000000" points="1150.5,-74.5398 1150.5,-93.5398 1222.5,-93.5398 1222.5,-74.5398 1150.5,-74.5398"/>
<text text-anchor="start" x="1187.1105" y="-80.6398" font-family="Helvetica,sans-Serif" font-size="11.00" fill="#000000">0 rows</text>
<polygon fill="#ffffff" stroke="transparent" points="1222.5,-74.5398 1222.5,-93.5398 1269.5,-93.5398 1269.5,-74.5398 1222.5,-74.5398"/>
<polygon fill="none" stroke="#000000" points="1222.5,-74.5398 1222.5,-93.5398 1269.5,-93.5398 1269.5,-74.5398 1222.5,-74.5398"/>
<text text-anchor="start" x="1260.3862" y="-80.6398" font-family="Helvetica,sans-Serif" font-size="11.00" fill="#000000"> &#160;</text>
</a>
</g>
</g>
<!-- QuestionResponses&#45;&gt;AspNetUsers -->
<g id="edge4" class="edge">
<title>QuestionResponses:w&#45;&gt;AspNetUsers:e</title>
<path fill="none" stroke="#000000" d="M1046.0356,-145.4006C911.6603,-143.2911 286.0781,-118.6393 212,-170.5398 172.0527,-198.5277 220.2761,-272.5398 171.5,-272.5398"/>
<polygon fill="#000000" stroke="#000000" points="1052.5004,-145.4628 1060.4653,-149.1397 1056.5002,-145.5013 1060.5,-145.5398 1060.5,-145.5398 1060.5,-145.5398 1056.5002,-145.5013 1060.5347,-141.94 1052.5004,-145.4628 1052.5004,-145.4628"/>
<ellipse fill="none" stroke="#000000" cx="1049.3005" cy="-145.432" rx="3.2" ry="3.2"/>
</g>
<!-- QuestionResponses&#45;&gt;AspNetUsers -->
<g id="edge6" class="edge">
<title>QuestionResponses:w&#45;&gt;AspNetUsers:e</title>
<path fill="none" stroke="#000000" d="M1045.9601,-123.4348C678.8238,-118.1289 507.1317,85.4314 212,-141.5398 163.6924,-178.6908 232.4412,-272.5398 171.5,-272.5398"/>
<polygon fill="#000000" stroke="#000000" points="1052.5002,-123.482 1060.474,-127.1397 1056.5001,-123.5109 1060.5,-123.5398 1060.5,-123.5398 1060.5,-123.5398 1056.5001,-123.5109 1060.526,-119.9399 1052.5002,-123.482 1052.5002,-123.482"/>
<ellipse fill="none" stroke="#000000" cx="1049.3003" cy="-123.4588" rx="3.2" ry="3.2"/>
</g>
<!-- StudentCompetencyEvaluations -->
<g id="node5" class="node">
<title>StudentCompetencyEvaluations</title>
<g id="a_node5"><a xlink:href="../../tables/StudentCompetencyEvaluations.html" xlink:title="StudentCompetencyEvaluations" target="_top">
<polygon fill="#ffffff" stroke="transparent" points="685,-169.5398 685,-523.5398 1011,-523.5398 1011,-169.5398 685,-169.5398"/>
<polygon fill="#f5f5f5" stroke="transparent" points="687,-498.5398 687,-521.5398 1009,-521.5398 1009,-498.5398 687,-498.5398"/>
<polygon fill="none" stroke="#000000" points="687,-498.5398 687,-521.5398 1009,-521.5398 1009,-498.5398 687,-498.5398"/>
<text text-anchor="start" x="692" y="-507.1398" font-family="Helvetica,sans-Serif" font-weight="bold" font-size="11.00" fill="#000000">StudentCompetencyEvaluations</text>
<text text-anchor="start" x="974.0437" y="-506.6398" font-family="Helvetica,sans-Serif" font-size="11.00" fill="#000000">[table]</text>
<polygon fill="none" stroke="#000000" points="687,-476.5398 687,-498.5398 915,-498.5398 915,-476.5398 687,-476.5398"/>
<image xlink:href="../../images/primaryKeys.png" width="11px" height="12px" preserveAspectRatio="xMinYMin meet" x="692" y="-493.54"/>
<text text-anchor="start" x="707" y="-483.6398" font-family="Helvetica,sans-Serif" font-size="11.00" fill="#000000">Id</text>
<polygon fill="none" stroke="#000000" points="915,-476.5398 915,-498.5398 1009,-498.5398 1009,-476.5398 915,-476.5398"/>
<text text-anchor="start" x="917.9758" y="-484.2398" font-family="Helvetica,sans-Serif" font-size="11.00" fill="#000000">uuid[2147483647]</text>
<polygon fill="#ffffff" stroke="transparent" points="687,-454.5398 687,-476.5398 915,-476.5398 915,-454.5398 687,-454.5398"/>
<polygon fill="none" stroke="#000000" points="687,-454.5398 687,-476.5398 915,-476.5398 915,-454.5398 687,-454.5398"/>
<image xlink:href="../../images/foreignKeys.png" width="11px" height="12px" preserveAspectRatio="xMinYMin meet" x="692" y="-471.54"/>
<text text-anchor="start" x="707" y="-461.6398" font-family="Helvetica,sans-Serif" font-size="11.00" fill="#000000">ProfessorCompetencyAssignmentId</text>
<polygon fill="none" stroke="#000000" points="915,-454.5398 915,-476.5398 1009,-476.5398 1009,-454.5398 915,-454.5398"/>
<text text-anchor="start" x="917.9758" y="-462.2398" font-family="Helvetica,sans-Serif" font-size="11.00" fill="#000000">uuid[2147483647]</text>
<polygon fill="#ffffff" stroke="transparent" points="687,-432.5398 687,-454.5398 915,-454.5398 915,-432.5398 687,-432.5398"/>
<polygon fill="none" stroke="#000000" points="687,-432.5398 687,-454.5398 915,-454.5398 915,-432.5398 687,-432.5398"/>
<image xlink:href="../../images/foreignKeys.png" width="11px" height="12px" preserveAspectRatio="xMinYMin meet" x="692" y="-449.54"/>
<text text-anchor="start" x="707" y="-439.6398" font-family="Helvetica,sans-Serif" font-size="11.00" fill="#000000">StudentId</text>
<polygon fill="none" stroke="#000000" points="915,-432.5398 915,-454.5398 1009,-454.5398 1009,-432.5398 915,-432.5398"/>
<text text-anchor="start" x="918" y="-440.2398" font-family="Helvetica,sans-Serif" font-size="11.00" fill="#000000">text[2147483647]</text>
<polygon fill="none" stroke="#000000" points="687,-410.5398 687,-432.5398 915,-432.5398 915,-410.5398 687,-410.5398"/>
<text text-anchor="start" x="707" y="-417.6398" font-family="Helvetica,sans-Serif" font-size="11.00" fill="#000000">Status</text>
<polygon fill="none" stroke="#000000" points="915,-410.5398 915,-432.5398 1009,-432.5398 1009,-410.5398 915,-410.5398"/>
<text text-anchor="start" x="918" y="-418.2398" font-family="Helvetica,sans-Serif" font-size="11.00" fill="#000000">text[2147483647]</text>
<polygon fill="none" stroke="#000000" points="687,-388.5398 687,-410.5398 915,-410.5398 915,-388.5398 687,-388.5398"/>
<text text-anchor="start" x="707" y="-395.6398" font-family="Helvetica,sans-Serif" font-size="11.00" fill="#000000">CompletedAt</text>
<polygon fill="none" stroke="#000000" points="915,-388.5398 915,-410.5398 1009,-410.5398 1009,-388.5398 915,-388.5398"/>
<text text-anchor="start" x="918" y="-396.2398" font-family="Helvetica,sans-Serif" font-size="11.00" fill="#000000">timestamptz[35,6]</text>
<polygon fill="none" stroke="#000000" points="687,-366.5398 687,-388.5398 915,-388.5398 915,-366.5398 687,-366.5398"/>
<text text-anchor="start" x="707" y="-373.6398" font-family="Helvetica,sans-Serif" font-size="11.00" fill="#000000">Comments</text>
<polygon fill="none" stroke="#000000" points="915,-366.5398 915,-388.5398 1009,-388.5398 1009,-366.5398 915,-366.5398"/>
<text text-anchor="start" x="918" y="-374.2398" font-family="Helvetica,sans-Serif" font-size="11.00" fill="#000000">text[2147483647]</text>
<polygon fill="none" stroke="#000000" points="687,-344.5398 687,-366.5398 915,-366.5398 915,-344.5398 687,-344.5398"/>
<text text-anchor="start" x="707" y="-351.6398" font-family="Helvetica,sans-Serif" font-size="11.00" fill="#000000">FinalScore</text>
<polygon fill="none" stroke="#000000" points="915,-344.5398 915,-366.5398 1009,-366.5398 1009,-344.5398 915,-344.5398"/>
<text text-anchor="start" x="918" y="-352.2398" font-family="Helvetica,sans-Serif" font-size="11.00" fill="#000000">numeric[0]</text>
<polygon fill="none" stroke="#000000" points="687,-322.5398 687,-344.5398 915,-344.5398 915,-322.5398 687,-322.5398"/>
<text text-anchor="start" x="707" y="-329.6398" font-family="Helvetica,sans-Serif" font-size="11.00" fill="#000000">IsActive</text>
<polygon fill="none" stroke="#000000" points="915,-322.5398 915,-344.5398 1009,-344.5398 1009,-322.5398 915,-322.5398"/>
<text text-anchor="start" x="918" y="-330.2398" font-family="Helvetica,sans-Serif" font-size="11.00" fill="#000000">bool[1]</text>
<polygon fill="none" stroke="#000000" points="687,-300.5398 687,-322.5398 915,-322.5398 915,-300.5398 687,-300.5398"/>
<text text-anchor="start" x="707" y="-307.6398" font-family="Helvetica,sans-Serif" font-size="11.00" fill="#000000">CreatedAt</text>
<polygon fill="none" stroke="#000000" points="915,-300.5398 915,-322.5398 1009,-322.5398 1009,-300.5398 915,-300.5398"/>
<text text-anchor="start" x="918" y="-308.2398" font-family="Helvetica,sans-Serif" font-size="11.00" fill="#000000">timestamptz[35,6]</text>
<polygon fill="none" stroke="#000000" points="687,-278.5398 687,-300.5398 915,-300.5398 915,-278.5398 687,-278.5398"/>
<text text-anchor="start" x="707" y="-285.6398" font-family="Helvetica,sans-Serif" font-size="11.00" fill="#000000">UpdatedAt</text>
<polygon fill="none" stroke="#000000" points="915,-278.5398 915,-300.5398 1009,-300.5398 1009,-278.5398 915,-278.5398"/>
<text text-anchor="start" x="918" y="-286.2398" font-family="Helvetica,sans-Serif" font-size="11.00" fill="#000000">timestamptz[35,6]</text>
<polygon fill="#ffffff" stroke="transparent" points="687,-256.5398 687,-278.5398 915,-278.5398 915,-256.5398 687,-256.5398"/>
<polygon fill="none" stroke="#000000" points="687,-256.5398 687,-278.5398 915,-278.5398 915,-256.5398 687,-256.5398"/>
<image xlink:href="../../images/foreignKeys.png" width="11px" height="12px" preserveAspectRatio="xMinYMin meet" x="692" y="-273.54"/>
<text text-anchor="start" x="707" y="-263.6398" font-family="Helvetica,sans-Serif" font-size="11.00" fill="#000000">CreatedByUserId</text>
<polygon fill="none" stroke="#000000" points="915,-256.5398 915,-278.5398 1009,-278.5398 1009,-256.5398 915,-256.5398"/>
<text text-anchor="start" x="918" y="-264.2398" font-family="Helvetica,sans-Serif" font-size="11.00" fill="#000000">text[2147483647]</text>
<polygon fill="#ffffff" stroke="transparent" points="687,-234.5398 687,-256.5398 915,-256.5398 915,-234.5398 687,-234.5398"/>
<polygon fill="none" stroke="#000000" points="687,-234.5398 687,-256.5398 915,-256.5398 915,-234.5398 687,-234.5398"/>
<image xlink:href="../../images/foreignKeys.png" width="11px" height="12px" preserveAspectRatio="xMinYMin meet" x="692" y="-251.54"/>
<text text-anchor="start" x="707" y="-241.6398" font-family="Helvetica,sans-Serif" font-size="11.00" fill="#000000">UpdatedByUserId</text>
<polygon fill="none" stroke="#000000" points="915,-234.5398 915,-256.5398 1009,-256.5398 1009,-234.5398 915,-234.5398"/>
<text text-anchor="start" x="918" y="-242.2398" font-family="Helvetica,sans-Serif" font-size="11.00" fill="#000000">text[2147483647]</text>
<polygon fill="none" stroke="#000000" points="687,-212.5398 687,-234.5398 915,-234.5398 915,-212.5398 687,-212.5398"/>
<text text-anchor="start" x="707" y="-219.6398" font-family="Helvetica,sans-Serif" font-size="11.00" fill="#000000">CompetencyLevel</text>
<polygon fill="none" stroke="#000000" points="915,-212.5398 915,-234.5398 1009,-234.5398 1009,-212.5398 915,-212.5398"/>
<text text-anchor="start" x="918" y="-220.2398" font-family="Helvetica,sans-Serif" font-size="11.00" fill="#000000">int4[10]</text>
<polygon fill="#ffffff" stroke="transparent" points="687,-190.5398 687,-212.5398 915,-212.5398 915,-190.5398 687,-190.5398"/>
<polygon fill="none" stroke="#000000" points="687,-190.5398 687,-212.5398 915,-212.5398 915,-190.5398 687,-190.5398"/>
<image xlink:href="../../images/foreignKeys.png" width="11px" height="12px" preserveAspectRatio="xMinYMin meet" x="692" y="-207.54"/>
<text text-anchor="start" x="707" y="-197.6398" font-family="Helvetica,sans-Serif" font-size="11.00" fill="#000000">SubjectId</text>
<polygon fill="none" stroke="#000000" points="915,-190.5398 915,-212.5398 1009,-212.5398 1009,-190.5398 915,-190.5398"/>
<text text-anchor="start" x="917.9758" y="-198.2398" font-family="Helvetica,sans-Serif" font-size="11.00" fill="#000000">uuid[2147483647]</text>
<polygon fill="#ffffff" stroke="transparent" points="687,-171.5398 687,-190.5398 792,-190.5398 792,-171.5398 687,-171.5398"/>
<polygon fill="none" stroke="#000000" points="687,-171.5398 687,-190.5398 792,-190.5398 792,-171.5398 687,-171.5398"/>
<text text-anchor="start" x="690" y="-177.6398" font-family="Helvetica,sans-Serif" font-size="11.00" fill="#000000">&lt; 5</text>
<polygon fill="#ffffff" stroke="transparent" points="792,-171.5398 792,-190.5398 915,-190.5398 915,-171.5398 792,-171.5398"/>
<polygon fill="none" stroke="#000000" points="792,-171.5398 792,-190.5398 915,-190.5398 915,-171.5398 792,-171.5398"/>
<text text-anchor="start" x="879.6105" y="-177.6398" font-family="Helvetica,sans-Serif" font-size="11.00" fill="#000000">0 rows</text>
<polygon fill="#ffffff" stroke="transparent" points="915,-171.5398 915,-190.5398 1009,-190.5398 1009,-171.5398 915,-171.5398"/>
<polygon fill="none" stroke="#000000" points="915,-171.5398 915,-190.5398 1009,-190.5398 1009,-171.5398 915,-171.5398"/>
<text text-anchor="start" x="990.4053" y="-177.6398" font-family="Helvetica,sans-Serif" font-size="11.00" fill="#000000">1 &gt;</text>
<polygon fill="none" stroke="#000000" stroke-width="2" points="686,-170.5398 686,-522.5398 1010,-522.5398 1010,-170.5398 686,-170.5398"/>
</a>
</g>
</g>
<!-- QuestionResponses&#45;&gt;StudentCompetencyEvaluations -->
<g id="edge5" class="edge">
<title>QuestionResponses:w&#45;&gt;StudentCompetencyEvaluations:e</title>
<path fill="none" stroke="#000000" d="M1045.9966,-168.8291C933.484,-190.8491 1147.7066,-487.5398 1009,-487.5398"/>
<polygon fill="#000000" stroke="#000000" points="1052.5314,-168.2483 1060.8188,-171.1257 1056.5157,-167.894 1060.5,-167.5398 1060.5,-167.5398 1060.5,-167.5398 1056.5157,-167.894 1060.1812,-163.954 1052.5314,-168.2483 1052.5314,-168.2483"/>
<ellipse fill="none" stroke="#000000" cx="1049.344" cy="-168.5316" rx="3.2" ry="3.2"/>
</g>
<!-- StudentCompetencyEvaluations&#45;&gt;ProfessorCompetencyAssignments -->
<g id="edge8" class="edge">
<title>StudentCompetencyEvaluations:w&#45;&gt;ProfessorCompetencyAssignments:e</title>
<path fill="none" stroke="#000000" d="M672.4788,-467.8298C614.0077,-489.4922 718.6017,-657.5398 636,-657.5398"/>
<polygon fill="#000000" stroke="#000000" points="679.0977,-466.7861 687.5608,-469.0959 683.0488,-466.1629 687,-465.5398 687,-465.5398 687,-465.5398 683.0488,-466.1629 686.4392,-461.9838 679.0977,-466.7861 679.0977,-466.7861"/>
<ellipse fill="none" stroke="#000000" cx="675.9367" cy="-467.2846" rx="3.2" ry="3.2"/>
</g>
<!-- StudentCompetencyEvaluations&#45;&gt;AspNetUsers -->
<g id="edge7" class="edge">
<title>StudentCompetencyEvaluations:w&#45;&gt;AspNetUsers:e</title>
<path fill="none" stroke="#000000" d="M672.9203,-262.8357C660.3493,-251.3168 666.6337,-221.8171 644,-210.5398 541.3673,-159.403 500.6624,-209.5514 386,-210.5398 308.658,-211.2065 280.1258,-176.9188 212,-213.5398 183.9853,-228.5991 203.3057,-272.5398 171.5,-272.5398"/>
<polygon fill="#000000" stroke="#000000" points="679.4123,-265.0047 685.8592,-270.9543 683.2061,-266.2723 687,-267.5398 687,-267.5398 687,-267.5398 683.2061,-266.2723 688.1408,-264.1253 679.4123,-265.0047 679.4123,-265.0047"/>
<ellipse fill="none" stroke="#000000" cx="676.3772" cy="-263.9906" rx="3.2" ry="3.2"/>
</g>
<!-- StudentCompetencyEvaluations&#45;&gt;AspNetUsers -->
<g id="edge11" class="edge">
<title>StudentCompetencyEvaluations:w&#45;&gt;AspNetUsers:e</title>
<path fill="none" stroke="#000000" d="M673.2378,-241.2189C659.4613,-229.4619 667.9251,-196.9465 644,-184.5398 601.3793,-162.4383 252.3063,-167.4552 212,-193.5398 178.8753,-214.9768 210.9562,-272.5398 171.5,-272.5398"/>
<polygon fill="#000000" stroke="#000000" points="679.3674,-243.1434 685.9216,-248.9745 683.1837,-244.3416 687,-245.5398 687,-245.5398 687,-245.5398 683.1837,-244.3416 688.0784,-242.1051 679.3674,-243.1434 679.3674,-243.1434"/>
<ellipse fill="none" stroke="#000000" cx="676.3143" cy="-242.1848" rx="3.2" ry="3.2"/>
</g>
<!-- StudentCompetencyEvaluations&#45;&gt;Subjects -->
<g id="edge10" class="edge">
<title>StudentCompetencyEvaluations:w&#45;&gt;Subjects:e</title>
<path fill="none" stroke="#000000" d="M672.4849,-202.9144C584.5193,-218.4549 424.6333,-360.5398 345.5,-360.5398"/>
<polygon fill="#000000" stroke="#000000" points="679.0356,-202.2941 687.3394,-205.1238 683.0178,-201.917 687,-201.5398 687,-201.5398 687,-201.5398 683.0178,-201.917 686.6606,-197.9559 679.0356,-202.2941 679.0356,-202.2941"/>
<ellipse fill="none" stroke="#000000" cx="675.8499" cy="-202.5958" rx="3.2" ry="3.2"/>
</g>
<!-- Students -->
<g id="node6" class="node">
<title>Students</title>
<g id="a_node6"><a xlink:href="../../tables/Students.html" xlink:title="Students" target="_top">
<polygon fill="#ffffff" stroke="transparent" points="220,-416.0398 220,-521.0398 345,-521.0398 345,-416.0398 220,-416.0398"/>
<polygon fill="#f5f5f5" stroke="transparent" points="220.5,-497.5398 220.5,-520.5398 345.5,-520.5398 345.5,-497.5398 220.5,-497.5398"/>
<polygon fill="none" stroke="#000000" points="220.5,-497.5398 220.5,-520.5398 345.5,-520.5398 345.5,-497.5398 220.5,-497.5398"/>
<text text-anchor="start" x="225.5" y="-506.1398" font-family="Helvetica,sans-Serif" font-weight="bold" font-size="11.00" fill="#000000">Students</text>
<text text-anchor="start" x="310.5437" y="-505.6398" font-family="Helvetica,sans-Serif" font-size="11.00" fill="#000000">[table]</text>
<polygon fill="none" stroke="#000000" points="220.5,-475.5398 220.5,-497.5398 345.5,-497.5398 345.5,-475.5398 220.5,-475.5398"/>
<image xlink:href="../../images/primaryKeys.png" width="11px" height="12px" preserveAspectRatio="xMinYMin meet" x="225.5" y="-492.54"/>
<text text-anchor="start" x="240.5" y="-482.6398" font-family="Helvetica,sans-Serif" font-size="11.00" fill="#000000">UserId</text>
<polygon fill="#ffffff" stroke="transparent" points="220.5,-453.5398 220.5,-475.5398 345.5,-475.5398 345.5,-453.5398 220.5,-453.5398"/>
<polygon fill="none" stroke="#000000" points="220.5,-453.5398 220.5,-475.5398 345.5,-475.5398 345.5,-453.5398 220.5,-453.5398"/>
<image xlink:href="../../images/foreignKeys.png" width="11px" height="12px" preserveAspectRatio="xMinYMin meet" x="225.5" y="-470.54"/>
<text text-anchor="start" x="240.5" y="-460.6398" font-family="Helvetica,sans-Serif" font-size="11.00" fill="#000000">TechnicalCareerId</text>
<polygon fill="none" stroke="#000000" points="220.5,-434.5398 220.5,-453.5398 345.5,-453.5398 345.5,-434.5398 220.5,-434.5398"/>
<text text-anchor="start" x="223.5" y="-440.6398" font-family="Helvetica,sans-Serif" font-size="11.00" fill="#000000">...</text>
<polygon fill="#ffffff" stroke="transparent" points="220.5,-415.5398 220.5,-434.5398 263.5,-434.5398 263.5,-415.5398 220.5,-415.5398"/>
<polygon fill="none" stroke="#000000" points="220.5,-415.5398 220.5,-434.5398 263.5,-434.5398 263.5,-415.5398 220.5,-415.5398"/>
<text text-anchor="start" x="223.5" y="-421.6398" font-family="Helvetica,sans-Serif" font-size="11.00" fill="#000000">&lt; 2</text>
<polygon fill="#ffffff" stroke="transparent" points="263.5,-415.5398 263.5,-434.5398 312.5,-434.5398 312.5,-415.5398 263.5,-415.5398"/>
<polygon fill="none" stroke="#000000" points="263.5,-415.5398 263.5,-434.5398 312.5,-434.5398 312.5,-415.5398 263.5,-415.5398"/>
<text text-anchor="start" x="277.1105" y="-421.6398" font-family="Helvetica,sans-Serif" font-size="11.00" fill="#000000">0 rows</text>
<polygon fill="#ffffff" stroke="transparent" points="312.5,-415.5398 312.5,-434.5398 345.5,-434.5398 345.5,-415.5398 312.5,-415.5398"/>
<polygon fill="none" stroke="#000000" points="312.5,-415.5398 312.5,-434.5398 345.5,-434.5398 345.5,-415.5398 312.5,-415.5398"/>
<text text-anchor="start" x="326.9053" y="-421.6398" font-family="Helvetica,sans-Serif" font-size="11.00" fill="#000000">3 &gt;</text>
</a>
</g>
</g>
<!-- StudentCompetencyEvaluations&#45;&gt;Students -->
<g id="edge9" class="edge">
<title>StudentCompetencyEvaluations:w&#45;&gt;Students:e</title>
<path fill="none" stroke="#000000" d="M672.4682,-443.3349C549.8336,-439.8593 504.4719,-393.9682 386,-444.5398 362.1505,-454.7204 371.4315,-486.5398 345.5,-486.5398"/>
<polygon fill="#000000" stroke="#000000" points="679.0008,-443.427 686.9492,-447.1395 683.0004,-443.4834 687,-443.5398 687,-443.5398 687,-443.5398 683.0004,-443.4834 687.0508,-439.9402 679.0008,-443.427 679.0008,-443.427"/>
<ellipse fill="none" stroke="#000000" cx="675.8011" cy="-443.3818" rx="3.2" ry="3.2"/>
</g>
<!-- Students&#45;&gt;AspNetUsers -->
<g id="edge12" class="edge">
<title>Students:w&#45;&gt;AspNetUsers:e</title>
<path fill="none" stroke="#000000" d="M209.6904,-485.4893C134.5059,-469.3451 265.0705,-272.5398 171.5,-272.5398"/>
<polygon fill="#000000" stroke="#000000" points="220.0907,-482.4812 219.3168,-490.4437 217.7243,-490.2889 218.4982,-482.3264 220.0907,-482.4812"/>
<polyline fill="none" stroke="#000000" points="220.5,-486.5398 216.5188,-486.1529 "/>
<ellipse fill="none" stroke="#000000" cx="213.3338" cy="-485.8433" rx="3.2" ry="3.2"/>
</g>
</g>
</svg>
