<?xml version="1.0" encoding="UTF-8" standalone="no"?>
<!DOCTYPE svg PUBLIC "-//W3C//DTD SVG 1.1//EN"
 "http://www.w3.org/Graphics/SVG/1.1/DTD/svg11.dtd">
<!-- Generated by graphviz version 2.40.1 (20161225.0304)
 -->
<!-- Title: oneDegreeRelationshipsDiagram Pages: 1 -->
<svg width="924pt" height="627pt"
 viewBox="0.00 0.00 924.00 627.20" xmlns="http://www.w3.org/2000/svg" xmlns:xlink="http://www.w3.org/1999/xlink">
<g id="graph0" class="graph" transform="scale(1 1) rotate(0) translate(4 623.2)">
<title>oneDegreeRelationshipsDiagram</title>
<polygon fill="#ffffff" stroke="transparent" points="-4,4 -4,-623.2 920,-623.2 920,4 -4,4"/>
<text text-anchor="middle" x="72.4936" y="-7.3" font-family="Helvetica,sans-Serif" font-size="11.00" fill="#000000">Generated by SchemaSpy</text>
<!-- StudentCompetencyEvaluations -->
<g id="node1" class="node">
<title>StudentCompetencyEvaluations</title>
<g id="a_node1"><a xlink:href="../../tables/StudentCompetencyEvaluations.html" xlink:title="StudentCompetencyEvaluations" target="_top">
<polygon fill="#ffffff" stroke="transparent" points="680,-422.2 680,-615.2 908,-615.2 908,-422.2 680,-422.2"/>
<polygon fill="#f5f5f5" stroke="transparent" points="680,-591.7 680,-614.7 908,-614.7 908,-591.7 680,-591.7"/>
<polygon fill="none" stroke="#000000" points="680,-591.7 680,-614.7 908,-614.7 908,-591.7 680,-591.7"/>
<text text-anchor="start" x="685" y="-600.3" font-family="Helvetica,sans-Serif" font-weight="bold" font-size="11.00" fill="#000000">StudentCompetencyEvaluations</text>
<text text-anchor="start" x="873.0437" y="-599.8" font-family="Helvetica,sans-Serif" font-size="11.00" fill="#000000">[table]</text>
<polygon fill="none" stroke="#000000" points="680,-569.7 680,-591.7 908,-591.7 908,-569.7 680,-569.7"/>
<image xlink:href="../../images/primaryKeys.png" width="11px" height="12px" preserveAspectRatio="xMinYMin meet" x="685" y="-586.7"/>
<text text-anchor="start" x="700" y="-576.8" font-family="Helvetica,sans-Serif" font-size="11.00" fill="#000000">Id</text>
<polygon fill="#ffffff" stroke="transparent" points="680,-547.7 680,-569.7 908,-569.7 908,-547.7 680,-547.7"/>
<polygon fill="none" stroke="#000000" points="680,-547.7 680,-569.7 908,-569.7 908,-547.7 680,-547.7"/>
<image xlink:href="../../images/foreignKeys.png" width="11px" height="12px" preserveAspectRatio="xMinYMin meet" x="685" y="-564.7"/>
<text text-anchor="start" x="700" y="-554.8" font-family="Helvetica,sans-Serif" font-size="11.00" fill="#000000">ProfessorCompetencyAssignmentId</text>
<polygon fill="#ffffff" stroke="transparent" points="680,-525.7 680,-547.7 908,-547.7 908,-525.7 680,-525.7"/>
<polygon fill="none" stroke="#000000" points="680,-525.7 680,-547.7 908,-547.7 908,-525.7 680,-525.7"/>
<image xlink:href="../../images/foreignKeys.png" width="11px" height="12px" preserveAspectRatio="xMinYMin meet" x="685" y="-542.7"/>
<text text-anchor="start" x="700" y="-532.8" font-family="Helvetica,sans-Serif" font-size="11.00" fill="#000000">StudentId</text>
<polygon fill="#ffffff" stroke="transparent" points="680,-503.7 680,-525.7 908,-525.7 908,-503.7 680,-503.7"/>
<polygon fill="none" stroke="#000000" points="680,-503.7 680,-525.7 908,-525.7 908,-503.7 680,-503.7"/>
<image xlink:href="../../images/foreignKeys.png" width="11px" height="12px" preserveAspectRatio="xMinYMin meet" x="685" y="-520.7"/>
<text text-anchor="start" x="700" y="-510.8" font-family="Helvetica,sans-Serif" font-size="11.00" fill="#000000">CreatedByUserId</text>
<polygon fill="#ffffff" stroke="transparent" points="680,-481.7 680,-503.7 908,-503.7 908,-481.7 680,-481.7"/>
<polygon fill="none" stroke="#000000" points="680,-481.7 680,-503.7 908,-503.7 908,-481.7 680,-481.7"/>
<image xlink:href="../../images/foreignKeys.png" width="11px" height="12px" preserveAspectRatio="xMinYMin meet" x="685" y="-498.7"/>
<text text-anchor="start" x="700" y="-488.8" font-family="Helvetica,sans-Serif" font-size="11.00" fill="#000000">UpdatedByUserId</text>
<polygon fill="#ffffff" stroke="transparent" points="680,-459.7 680,-481.7 908,-481.7 908,-459.7 680,-459.7"/>
<polygon fill="none" stroke="#000000" points="680,-459.7 680,-481.7 908,-481.7 908,-459.7 680,-459.7"/>
<image xlink:href="../../images/foreignKeys.png" width="11px" height="12px" preserveAspectRatio="xMinYMin meet" x="685" y="-476.7"/>
<text text-anchor="start" x="700" y="-466.8" font-family="Helvetica,sans-Serif" font-size="11.00" fill="#000000">SubjectId</text>
<polygon fill="none" stroke="#000000" points="680,-440.7 680,-459.7 908,-459.7 908,-440.7 680,-440.7"/>
<text text-anchor="start" x="683" y="-446.8" font-family="Helvetica,sans-Serif" font-size="11.00" fill="#000000">...</text>
<polygon fill="#ffffff" stroke="transparent" points="680,-421.7 680,-440.7 775,-440.7 775,-421.7 680,-421.7"/>
<polygon fill="none" stroke="#000000" points="680,-421.7 680,-440.7 775,-440.7 775,-421.7 680,-421.7"/>
<text text-anchor="start" x="683" y="-427.8" font-family="Helvetica,sans-Serif" font-size="11.00" fill="#000000">&lt; 5</text>
<polygon fill="#ffffff" stroke="transparent" points="775,-421.7 775,-440.7 850,-440.7 850,-421.7 775,-421.7"/>
<polygon fill="none" stroke="#000000" points="775,-421.7 775,-440.7 850,-440.7 850,-421.7 775,-421.7"/>
<text text-anchor="start" x="814.6105" y="-427.8" font-family="Helvetica,sans-Serif" font-size="11.00" fill="#000000">0 rows</text>
<polygon fill="#ffffff" stroke="transparent" points="850,-421.7 850,-440.7 908,-440.7 908,-421.7 850,-421.7"/>
<polygon fill="none" stroke="#000000" points="850,-421.7 850,-440.7 908,-440.7 908,-421.7 850,-421.7"/>
<text text-anchor="start" x="889.4053" y="-427.8" font-family="Helvetica,sans-Serif" font-size="11.00" fill="#000000">1 &gt;</text>
</a>
</g>
</g>
<!-- AspNetUsers -->
<g id="node2" class="node">
<title>AspNetUsers</title>
<g id="a_node2"><a xlink:href="../../tables/AspNetUsers.html" xlink:title="AspNetUsers" target="_top">
<polygon fill="#ffffff" stroke="transparent" points="8,-256.2 8,-383.2 171,-383.2 171,-256.2 8,-256.2"/>
<polygon fill="#f5f5f5" stroke="transparent" points="8.5,-359.7 8.5,-382.7 171.5,-382.7 171.5,-359.7 8.5,-359.7"/>
<polygon fill="none" stroke="#000000" points="8.5,-359.7 8.5,-382.7 171.5,-382.7 171.5,-359.7 8.5,-359.7"/>
<text text-anchor="start" x="13.5" y="-368.3" font-family="Helvetica,sans-Serif" font-weight="bold" font-size="11.00" fill="#000000">AspNetUsers</text>
<text text-anchor="start" x="136.5437" y="-367.8" font-family="Helvetica,sans-Serif" font-size="11.00" fill="#000000">[table]</text>
<polygon fill="none" stroke="#000000" points="8.5,-337.7 8.5,-359.7 171.5,-359.7 171.5,-337.7 8.5,-337.7"/>
<image xlink:href="../../images/primaryKeys.png" width="11px" height="12px" preserveAspectRatio="xMinYMin meet" x="13.5" y="-354.7"/>
<text text-anchor="start" x="28.5" y="-344.8" font-family="Helvetica,sans-Serif" font-size="11.00" fill="#000000">Id</text>
<polygon fill="#ffffff" stroke="transparent" points="8.5,-315.7 8.5,-337.7 171.5,-337.7 171.5,-315.7 8.5,-315.7"/>
<polygon fill="none" stroke="#000000" points="8.5,-315.7 8.5,-337.7 171.5,-337.7 171.5,-315.7 8.5,-315.7"/>
<text text-anchor="start" x="28.5" y="-322.8" font-family="Helvetica,sans-Serif" font-size="11.00" fill="#000000">NormalizedUserName</text>
<polygon fill="#ffffff" stroke="transparent" points="8.5,-293.7 8.5,-315.7 171.5,-315.7 171.5,-293.7 8.5,-293.7"/>
<polygon fill="none" stroke="#000000" points="8.5,-293.7 8.5,-315.7 171.5,-315.7 171.5,-293.7 8.5,-293.7"/>
<text text-anchor="start" x="28.5" y="-300.8" font-family="Helvetica,sans-Serif" font-size="11.00" fill="#000000">NormalizedEmail</text>
<polygon fill="none" stroke="#000000" points="8.5,-274.7 8.5,-293.7 171.5,-293.7 171.5,-274.7 8.5,-274.7"/>
<text text-anchor="start" x="11.5" y="-280.8" font-family="Helvetica,sans-Serif" font-size="11.00" fill="#000000">...</text>
<polygon fill="#ffffff" stroke="transparent" points="8.5,-255.7 8.5,-274.7 66.5,-274.7 66.5,-255.7 8.5,-255.7"/>
<polygon fill="none" stroke="#000000" points="8.5,-255.7 8.5,-274.7 66.5,-274.7 66.5,-255.7 8.5,-255.7"/>
<text text-anchor="start" x="11.5" y="-261.8" font-family="Helvetica,sans-Serif" font-size="11.00" fill="#000000"> &#160;</text>
<polygon fill="#ffffff" stroke="transparent" points="66.5,-255.7 66.5,-274.7 121.5,-274.7 121.5,-255.7 66.5,-255.7"/>
<polygon fill="none" stroke="#000000" points="66.5,-255.7 66.5,-274.7 121.5,-274.7 121.5,-255.7 66.5,-255.7"/>
<text text-anchor="start" x="91.6105" y="-261.8" font-family="Helvetica,sans-Serif" font-size="11.00" fill="#000000">1 row</text>
<polygon fill="#ffffff" stroke="transparent" points="121.5,-255.7 121.5,-274.7 171.5,-274.7 171.5,-255.7 121.5,-255.7"/>
<polygon fill="none" stroke="#000000" points="121.5,-255.7 121.5,-274.7 171.5,-274.7 171.5,-255.7 121.5,-255.7"/>
<text text-anchor="start" x="146.7904" y="-261.8" font-family="Helvetica,sans-Serif" font-size="11.00" fill="#000000">29 &gt;</text>
</a>
</g>
</g>
<!-- StudentCompetencyEvaluations&#45;&gt;AspNetUsers -->
<g id="edge1" class="edge">
<title>StudentCompetencyEvaluations:w&#45;&gt;AspNetUsers:e</title>
<path fill="none" stroke="#000000" d="M665.5465,-514.8807C467.2875,-519.8354 371.2111,-624.0568 212,-497.7 158.2466,-455.039 240.1249,-348.7 171.5,-348.7"/>
<polygon fill="#000000" stroke="#000000" points="672.0006,-514.8 680.045,-518.2997 676.0003,-514.75 680,-514.7 680,-514.7 680,-514.7 676.0003,-514.75 679.955,-511.1003 672.0006,-514.8 672.0006,-514.8"/>
<ellipse fill="none" stroke="#000000" cx="668.8009" cy="-514.8401" rx="3.2" ry="3.2"/>
</g>
<!-- StudentCompetencyEvaluations&#45;&gt;AspNetUsers -->
<g id="edge3" class="edge">
<title>StudentCompetencyEvaluations:w&#45;&gt;AspNetUsers:e</title>
<path fill="none" stroke="#000000" d="M665.2573,-492.8489C551.3875,-494.9358 291.162,-517.3477 212,-456.7 171.3058,-425.5233 222.764,-348.7 171.5,-348.7"/>
<polygon fill="#000000" stroke="#000000" points="672.0004,-492.7809 680.0364,-496.2998 676.0002,-492.7404 680,-492.7 680,-492.7 680,-492.7 676.0002,-492.7404 679.9636,-489.1002 672.0004,-492.7809 672.0004,-492.7809"/>
<ellipse fill="none" stroke="#000000" cx="668.8006" cy="-492.8132" rx="3.2" ry="3.2"/>
</g>
<!-- Students -->
<g id="node3" class="node">
<title>Students</title>
<g id="a_node3"><a xlink:href="../../tables/Students.html" xlink:title="Students" target="_top">
<polygon fill="#ffffff" stroke="transparent" points="408,-351.7 408,-463.7 631,-463.7 631,-351.7 408,-351.7"/>
<polygon fill="#f5f5f5" stroke="transparent" points="410.5,-438.7 410.5,-461.7 629.5,-461.7 629.5,-438.7 410.5,-438.7"/>
<polygon fill="none" stroke="#000000" points="410.5,-438.7 410.5,-461.7 629.5,-461.7 629.5,-438.7 410.5,-438.7"/>
<text text-anchor="start" x="415.5" y="-447.3" font-family="Helvetica,sans-Serif" font-weight="bold" font-size="11.00" fill="#000000">Students</text>
<text text-anchor="start" x="594.5437" y="-446.8" font-family="Helvetica,sans-Serif" font-size="11.00" fill="#000000">[table]</text>
<polygon fill="none" stroke="#000000" points="410.5,-416.7 410.5,-438.7 535.5,-438.7 535.5,-416.7 410.5,-416.7"/>
<image xlink:href="../../images/primaryKeys.png" width="11px" height="12px" preserveAspectRatio="xMinYMin meet" x="415.5" y="-433.7"/>
<text text-anchor="start" x="430.5" y="-423.8" font-family="Helvetica,sans-Serif" font-size="11.00" fill="#000000">UserId</text>
<polygon fill="none" stroke="#000000" points="535.5,-416.7 535.5,-438.7 629.5,-438.7 629.5,-416.7 535.5,-416.7"/>
<text text-anchor="start" x="538.5" y="-424.4" font-family="Helvetica,sans-Serif" font-size="11.00" fill="#000000">text[2147483647]</text>
<polygon fill="none" stroke="#000000" points="410.5,-394.7 410.5,-416.7 535.5,-416.7 535.5,-394.7 410.5,-394.7"/>
<text text-anchor="start" x="430.5" y="-401.8" font-family="Helvetica,sans-Serif" font-size="11.00" fill="#000000">CurrentYear</text>
<polygon fill="none" stroke="#000000" points="535.5,-394.7 535.5,-416.7 629.5,-416.7 629.5,-394.7 535.5,-394.7"/>
<text text-anchor="start" x="538.5" y="-402.4" font-family="Helvetica,sans-Serif" font-size="11.00" fill="#000000">int4[10]</text>
<polygon fill="#ffffff" stroke="transparent" points="410.5,-372.7 410.5,-394.7 535.5,-394.7 535.5,-372.7 410.5,-372.7"/>
<polygon fill="none" stroke="#000000" points="410.5,-372.7 410.5,-394.7 535.5,-394.7 535.5,-372.7 410.5,-372.7"/>
<image xlink:href="../../images/foreignKeys.png" width="11px" height="12px" preserveAspectRatio="xMinYMin meet" x="415.5" y="-389.7"/>
<text text-anchor="start" x="430.5" y="-379.8" font-family="Helvetica,sans-Serif" font-size="11.00" fill="#000000">TechnicalCareerId</text>
<polygon fill="none" stroke="#000000" points="535.5,-372.7 535.5,-394.7 629.5,-394.7 629.5,-372.7 535.5,-372.7"/>
<text text-anchor="start" x="538.4758" y="-380.4" font-family="Helvetica,sans-Serif" font-size="11.00" fill="#000000">uuid[2147483647]</text>
<polygon fill="#ffffff" stroke="transparent" points="410.5,-353.7 410.5,-372.7 464.5,-372.7 464.5,-353.7 410.5,-353.7"/>
<polygon fill="none" stroke="#000000" points="410.5,-353.7 410.5,-372.7 464.5,-372.7 464.5,-353.7 410.5,-353.7"/>
<text text-anchor="start" x="413.5" y="-359.8" font-family="Helvetica,sans-Serif" font-size="11.00" fill="#000000">&lt; 2</text>
<polygon fill="#ffffff" stroke="transparent" points="464.5,-353.7 464.5,-372.7 535.5,-372.7 535.5,-353.7 464.5,-353.7"/>
<polygon fill="none" stroke="#000000" points="464.5,-353.7 464.5,-372.7 535.5,-372.7 535.5,-353.7 464.5,-353.7"/>
<text text-anchor="start" x="500.1105" y="-359.8" font-family="Helvetica,sans-Serif" font-size="11.00" fill="#000000">0 rows</text>
<polygon fill="#ffffff" stroke="transparent" points="535.5,-353.7 535.5,-372.7 629.5,-372.7 629.5,-353.7 535.5,-353.7"/>
<polygon fill="none" stroke="#000000" points="535.5,-353.7 535.5,-372.7 629.5,-372.7 629.5,-353.7 535.5,-353.7"/>
<text text-anchor="start" x="610.9053" y="-359.8" font-family="Helvetica,sans-Serif" font-size="11.00" fill="#000000">3 &gt;</text>
<polygon fill="none" stroke="#000000" stroke-width="2" points="409,-352.7 409,-462.7 630,-462.7 630,-352.7 409,-352.7"/>
</a>
</g>
</g>
<!-- StudentCompetencyEvaluations&#45;&gt;Students -->
<g id="edge2" class="edge">
<title>StudentCompetencyEvaluations:w&#45;&gt;Students:e</title>
<path fill="none" stroke="#000000" d="M665.7587,-532.8206C637.9529,-513.4034 676.843,-427.7 629.5,-427.7"/>
<polygon fill="#000000" stroke="#000000" points="672.2813,-534.5974 679.0538,-540.1734 676.1406,-535.6487 680,-536.7 680,-536.7 680,-536.7 676.1406,-535.6487 680.9462,-533.2266 672.2813,-534.5974 672.2813,-534.5974"/>
<ellipse fill="none" stroke="#000000" cx="669.1938" cy="-533.7563" rx="3.2" ry="3.2"/>
</g>
<!-- Students&#45;&gt;AspNetUsers -->
<g id="edge8" class="edge">
<title>Students:w&#45;&gt;AspNetUsers:e</title>
<path fill="none" stroke="#000000" d="M400.1126,-428.5496C388.4069,-430.6259 382.7073,-435.9178 367,-437.7 298.5503,-445.4665 269.9279,-474.9832 212,-437.7 175.4562,-414.1799 214.9585,-348.7 171.5,-348.7"/>
<polygon fill="#000000" stroke="#000000" points="409.3766,-423.7785 410.0288,-431.7519 408.4341,-431.8824 407.7819,-423.909 409.3766,-423.7785"/>
<polyline fill="none" stroke="#000000" points="410.5,-427.7 406.5133,-428.0261 "/>
<ellipse fill="none" stroke="#000000" cx="403.324" cy="-428.287" rx="3.2" ry="3.2"/>
</g>
<!-- TechnicalCareers -->
<g id="node5" class="node">
<title>TechnicalCareers</title>
<g id="a_node5"><a xlink:href="../../tables/TechnicalCareers.html" xlink:title="TechnicalCareers" target="_top">
<polygon fill="#ffffff" stroke="transparent" points="220,-300.2 220,-427.2 359,-427.2 359,-300.2 220,-300.2"/>
<polygon fill="#f5f5f5" stroke="transparent" points="220.5,-403.7 220.5,-426.7 359.5,-426.7 359.5,-403.7 220.5,-403.7"/>
<polygon fill="none" stroke="#000000" points="220.5,-403.7 220.5,-426.7 359.5,-426.7 359.5,-403.7 220.5,-403.7"/>
<text text-anchor="start" x="225.5" y="-412.3" font-family="Helvetica,sans-Serif" font-weight="bold" font-size="11.00" fill="#000000">TechnicalCareers</text>
<text text-anchor="start" x="325.0219" y="-411.8" font-family="Helvetica,sans-Serif" font-size="11.00" fill="#000000">[table]</text>
<polygon fill="none" stroke="#000000" points="220.5,-381.7 220.5,-403.7 359.5,-403.7 359.5,-381.7 220.5,-381.7"/>
<image xlink:href="../../images/primaryKeys.png" width="11px" height="12px" preserveAspectRatio="xMinYMin meet" x="225.5" y="-398.7"/>
<text text-anchor="start" x="249.5" y="-388.8" font-family="Helvetica,sans-Serif" font-size="11.00" fill="#000000">Id</text>
<polygon fill="#ffffff" stroke="transparent" points="220.5,-359.7 220.5,-381.7 359.5,-381.7 359.5,-359.7 220.5,-359.7"/>
<polygon fill="none" stroke="#000000" points="220.5,-359.7 220.5,-381.7 359.5,-381.7 359.5,-359.7 220.5,-359.7"/>
<image xlink:href="../../images/foreignKeys.png" width="11px" height="12px" preserveAspectRatio="xMinYMin meet" x="225.5" y="-376.7"/>
<text text-anchor="start" x="249.5" y="-366.8" font-family="Helvetica,sans-Serif" font-size="11.00" fill="#000000">CreatedByUserId</text>
<polygon fill="#ffffff" stroke="transparent" points="220.5,-337.7 220.5,-359.7 359.5,-359.7 359.5,-337.7 220.5,-337.7"/>
<polygon fill="none" stroke="#000000" points="220.5,-337.7 220.5,-359.7 359.5,-359.7 359.5,-337.7 220.5,-337.7"/>
<image xlink:href="../../images/foreignKeys.png" width="11px" height="12px" preserveAspectRatio="xMinYMin meet" x="225.5" y="-354.7"/>
<text text-anchor="start" x="249.5" y="-344.8" font-family="Helvetica,sans-Serif" font-size="11.00" fill="#000000">UpdatedByUserId</text>
<polygon fill="none" stroke="#000000" points="220.5,-318.7 220.5,-337.7 359.5,-337.7 359.5,-318.7 220.5,-318.7"/>
<text text-anchor="start" x="223.5" y="-324.8" font-family="Helvetica,sans-Serif" font-size="11.00" fill="#000000">...</text>
<polygon fill="#ffffff" stroke="transparent" points="220.5,-299.7 220.5,-318.7 270.5,-318.7 270.5,-299.7 220.5,-299.7"/>
<polygon fill="none" stroke="#000000" points="220.5,-299.7 220.5,-318.7 270.5,-318.7 270.5,-299.7 220.5,-299.7"/>
<text text-anchor="start" x="223.5" y="-305.8" font-family="Helvetica,sans-Serif" font-size="11.00" fill="#000000">&lt; 2</text>
<polygon fill="#ffffff" stroke="transparent" points="270.5,-299.7 270.5,-318.7 323.5,-318.7 323.5,-299.7 270.5,-299.7"/>
<polygon fill="none" stroke="#000000" points="270.5,-299.7 270.5,-318.7 323.5,-318.7 323.5,-299.7 270.5,-299.7"/>
<text text-anchor="start" x="288.1105" y="-305.8" font-family="Helvetica,sans-Serif" font-size="11.00" fill="#000000">6 rows</text>
<polygon fill="#ffffff" stroke="transparent" points="323.5,-299.7 323.5,-318.7 359.5,-318.7 359.5,-299.7 323.5,-299.7"/>
<polygon fill="none" stroke="#000000" points="323.5,-299.7 323.5,-318.7 359.5,-318.7 359.5,-299.7 323.5,-299.7"/>
<text text-anchor="start" x="340.9053" y="-305.8" font-family="Helvetica,sans-Serif" font-size="11.00" fill="#000000">6 &gt;</text>
</a>
</g>
</g>
<!-- Students&#45;&gt;TechnicalCareers -->
<g id="edge7" class="edge">
<title>Students:w&#45;&gt;TechnicalCareers:e</title>
<path fill="none" stroke="#000000" d="M396.0577,-385.1063C383.8718,-387.6375 376.7627,-392.7 359.5,-392.7"/>
<polygon fill="#000000" stroke="#000000" points="402.5377,-384.4753 410.8489,-387.2831 406.5188,-384.0877 410.5,-383.7 410.5,-383.7 410.5,-383.7 406.5188,-384.0877 410.1511,-380.1169 402.5377,-384.4753 402.5377,-384.4753"/>
<ellipse fill="none" stroke="#000000" cx="399.3527" cy="-384.7855" rx="3.2" ry="3.2"/>
</g>
<!-- StudentEvaluationReport -->
<g id="node4" class="node">
<title>StudentEvaluationReport</title>
<g id="a_node4"><a xlink:href="../../tables/StudentEvaluationReport.html" xlink:title="StudentEvaluationReport" target="_top">
<polygon fill="#ffffff" stroke="transparent" points="702.5,-230.2 702.5,-401.2 885.5,-401.2 885.5,-230.2 702.5,-230.2"/>
<polygon fill="#f5f5f5" stroke="transparent" points="703,-377.7 703,-400.7 886,-400.7 886,-377.7 703,-377.7"/>
<polygon fill="none" stroke="#000000" points="703,-377.7 703,-400.7 886,-400.7 886,-377.7 703,-377.7"/>
<text text-anchor="start" x="708" y="-386.3" font-family="Helvetica,sans-Serif" font-weight="bold" font-size="11.00" fill="#000000">StudentEvaluationReport</text>
<text text-anchor="start" x="851.5219" y="-385.8" font-family="Helvetica,sans-Serif" font-size="11.00" fill="#000000">[table]</text>
<polygon fill="none" stroke="#000000" points="703,-355.7 703,-377.7 886,-377.7 886,-355.7 703,-355.7"/>
<image xlink:href="../../images/primaryKeys.png" width="11px" height="12px" preserveAspectRatio="xMinYMin meet" x="708" y="-372.7"/>
<text text-anchor="start" x="732" y="-362.8" font-family="Helvetica,sans-Serif" font-size="11.00" fill="#000000">Id</text>
<polygon fill="#ffffff" stroke="transparent" points="703,-333.7 703,-355.7 886,-355.7 886,-333.7 703,-333.7"/>
<polygon fill="none" stroke="#000000" points="703,-333.7 703,-355.7 886,-355.7 886,-333.7 703,-333.7"/>
<image xlink:href="../../images/foreignKeys.png" width="11px" height="12px" preserveAspectRatio="xMinYMin meet" x="708" y="-350.7"/>
<text text-anchor="start" x="732" y="-340.8" font-family="Helvetica,sans-Serif" font-size="11.00" fill="#000000">StudentId</text>
<polygon fill="#ffffff" stroke="transparent" points="703,-311.7 703,-333.7 886,-333.7 886,-311.7 703,-311.7"/>
<polygon fill="none" stroke="#000000" points="703,-311.7 703,-333.7 886,-333.7 886,-311.7 703,-311.7"/>
<image xlink:href="../../images/foreignKeys.png" width="11px" height="12px" preserveAspectRatio="xMinYMin meet" x="708" y="-328.7"/>
<text text-anchor="start" x="732" y="-318.8" font-family="Helvetica,sans-Serif" font-size="11.00" fill="#000000">EvaluationPeriodId</text>
<polygon fill="#ffffff" stroke="transparent" points="703,-289.7 703,-311.7 886,-311.7 886,-289.7 703,-289.7"/>
<polygon fill="none" stroke="#000000" points="703,-289.7 703,-311.7 886,-311.7 886,-289.7 703,-289.7"/>
<image xlink:href="../../images/foreignKeys.png" width="11px" height="12px" preserveAspectRatio="xMinYMin meet" x="708" y="-306.7"/>
<text text-anchor="start" x="732" y="-296.8" font-family="Helvetica,sans-Serif" font-size="11.00" fill="#000000">CreatedByUserId</text>
<polygon fill="#ffffff" stroke="transparent" points="703,-267.7 703,-289.7 886,-289.7 886,-267.7 703,-267.7"/>
<polygon fill="none" stroke="#000000" points="703,-267.7 703,-289.7 886,-289.7 886,-267.7 703,-267.7"/>
<image xlink:href="../../images/foreignKeys.png" width="11px" height="12px" preserveAspectRatio="xMinYMin meet" x="708" y="-284.7"/>
<text text-anchor="start" x="732" y="-274.8" font-family="Helvetica,sans-Serif" font-size="11.00" fill="#000000">UpdatedByUserId</text>
<polygon fill="none" stroke="#000000" points="703,-248.7 703,-267.7 886,-267.7 886,-248.7 703,-248.7"/>
<text text-anchor="start" x="706" y="-254.8" font-family="Helvetica,sans-Serif" font-size="11.00" fill="#000000">...</text>
<polygon fill="#ffffff" stroke="transparent" points="703,-229.7 703,-248.7 780,-248.7 780,-229.7 703,-229.7"/>
<polygon fill="none" stroke="#000000" points="703,-229.7 703,-248.7 780,-248.7 780,-229.7 703,-229.7"/>
<text text-anchor="start" x="706" y="-235.8" font-family="Helvetica,sans-Serif" font-size="11.00" fill="#000000">&lt; 4</text>
<polygon fill="#ffffff" stroke="transparent" points="780,-229.7 780,-248.7 846,-248.7 846,-229.7 780,-229.7"/>
<polygon fill="none" stroke="#000000" points="780,-229.7 780,-248.7 846,-248.7 846,-229.7 780,-229.7"/>
<text text-anchor="start" x="810.6105" y="-235.8" font-family="Helvetica,sans-Serif" font-size="11.00" fill="#000000">0 rows</text>
<polygon fill="#ffffff" stroke="transparent" points="846,-229.7 846,-248.7 886,-248.7 886,-229.7 846,-229.7"/>
<polygon fill="none" stroke="#000000" points="846,-229.7 846,-248.7 886,-248.7 886,-229.7 846,-229.7"/>
<text text-anchor="start" x="876.8862" y="-235.8" font-family="Helvetica,sans-Serif" font-size="11.00" fill="#000000"> &#160;</text>
</a>
</g>
</g>
<!-- StudentEvaluationReport&#45;&gt;AspNetUsers -->
<g id="edge4" class="edge">
<title>StudentEvaluationReport:w&#45;&gt;AspNetUsers:e</title>
<path fill="none" stroke="#000000" d="M688.3463,-300.3858C570.2344,-295.7048 304.5164,-240.991 212,-289.7 183.8565,-304.5172 203.3057,-348.7 171.5,-348.7"/>
<polygon fill="#000000" stroke="#000000" points="695.0018,-300.5284 702.9228,-304.2992 699.0009,-300.6142 703,-300.7 703,-300.7 703,-300.7 699.0009,-300.6142 703.0772,-297.1008 695.0018,-300.5284 695.0018,-300.5284"/>
<ellipse fill="none" stroke="#000000" cx="691.8026" cy="-300.4598" rx="3.2" ry="3.2"/>
</g>
<!-- StudentEvaluationReport&#45;&gt;AspNetUsers -->
<g id="edge6" class="edge">
<title>StudentEvaluationReport:w&#45;&gt;AspNetUsers:e</title>
<path fill="none" stroke="#000000" d="M688.6045,-277.9533C670.9022,-275.9772 662.1989,-270.6302 639,-268.7 518.5201,-258.6756 487.8944,-266.3667 367,-265.7 298.1122,-265.3201 270.4243,-229.1996 212,-265.7 177.1889,-287.4481 212.5462,-348.7 171.5,-348.7"/>
<polygon fill="#000000" stroke="#000000" points="695.0107,-278.2855 702.8135,-282.2952 699.0054,-278.4928 703,-278.7 703,-278.7 703,-278.7 699.0054,-278.4928 703.1865,-275.1048 695.0107,-278.2855 695.0107,-278.2855"/>
<ellipse fill="none" stroke="#000000" cx="691.815" cy="-278.1198" rx="3.2" ry="3.2"/>
</g>
<!-- StudentEvaluationReport&#45;&gt;Students -->
<g id="edge5" class="edge">
<title>StudentEvaluationReport:w&#45;&gt;Students:e</title>
<path fill="none" stroke="#000000" d="M688.8998,-347.654C658.4473,-362.4396 673.1919,-427.7 629.5,-427.7"/>
<polygon fill="#000000" stroke="#000000" points="695.17,-346.3404 703.7382,-348.2235 699.085,-345.5202 703,-344.7 703,-344.7 703,-344.7 699.085,-345.5202 702.2618,-341.1765 695.17,-346.3404 695.17,-346.3404"/>
<ellipse fill="none" stroke="#000000" cx="692.038" cy="-346.9966" rx="3.2" ry="3.2"/>
</g>
<!-- TechnicalCareers&#45;&gt;AspNetUsers -->
<g id="edge12" class="edge">
<title>TechnicalCareers:w&#45;&gt;AspNetUsers:e</title>
<path fill="none" stroke="#000000" d="M206.1297,-367.2625C194.5865,-361.075 189.4041,-348.7 171.5,-348.7"/>
<polygon fill="#000000" stroke="#000000" points="212.7195,-368.8388 219.6625,-374.2012 216.6098,-369.7694 220.5,-370.7 220.5,-370.7 220.5,-370.7 216.6098,-369.7694 221.3375,-367.1988 212.7195,-368.8388 212.7195,-368.8388"/>
<ellipse fill="none" stroke="#000000" cx="209.6073" cy="-368.0943" rx="3.2" ry="3.2"/>
</g>
<!-- TechnicalCareers&#45;&gt;AspNetUsers -->
<g id="edge13" class="edge">
<title>TechnicalCareers:w&#45;&gt;AspNetUsers:e</title>
<path fill="none" stroke="#000000" d="M205.9909,-348.7C194.6774,-348.7 187.4931,-348.7 171.5,-348.7"/>
<polygon fill="#000000" stroke="#000000" points="212.5,-348.7001 220.5,-352.3 216.5,-348.7 220.5,-348.7 220.5,-348.7 220.5,-348.7 216.5,-348.7 220.5,-345.1 212.5,-348.7001 212.5,-348.7001"/>
<ellipse fill="none" stroke="#000000" cx="209.3" cy="-348.7001" rx="3.2" ry="3.2"/>
</g>
<!-- StudentSubjects -->
<g id="node6" class="node">
<title>StudentSubjects</title>
<g id="a_node6"><a xlink:href="../../tables/StudentSubjects.html" xlink:title="StudentSubjects" target="_top">
<polygon fill="#ffffff" stroke="transparent" points="727.5,-38.2 727.5,-209.2 860.5,-209.2 860.5,-38.2 727.5,-38.2"/>
<polygon fill="#f5f5f5" stroke="transparent" points="728,-185.7 728,-208.7 861,-208.7 861,-185.7 728,-185.7"/>
<polygon fill="none" stroke="#000000" points="728,-185.7 728,-208.7 861,-208.7 861,-185.7 728,-185.7"/>
<text text-anchor="start" x="733" y="-194.3" font-family="Helvetica,sans-Serif" font-weight="bold" font-size="11.00" fill="#000000">StudentSubjects</text>
<text text-anchor="start" x="826.5219" y="-193.8" font-family="Helvetica,sans-Serif" font-size="11.00" fill="#000000">[table]</text>
<polygon fill="none" stroke="#000000" points="728,-163.7 728,-185.7 861,-185.7 861,-163.7 728,-163.7"/>
<image xlink:href="../../images/primaryKeys.png" width="11px" height="12px" preserveAspectRatio="xMinYMin meet" x="733" y="-180.7"/>
<text text-anchor="start" x="754" y="-170.8" font-family="Helvetica,sans-Serif" font-size="11.00" fill="#000000">Id</text>
<polygon fill="#ffffff" stroke="transparent" points="728,-141.7 728,-163.7 861,-163.7 861,-141.7 728,-141.7"/>
<polygon fill="none" stroke="#000000" points="728,-141.7 728,-163.7 861,-163.7 861,-141.7 728,-141.7"/>
<image xlink:href="../../images/foreignKeys.png" width="11px" height="12px" preserveAspectRatio="xMinYMin meet" x="733" y="-158.7"/>
<text text-anchor="start" x="754" y="-148.8" font-family="Helvetica,sans-Serif" font-size="11.00" fill="#000000">StudentId</text>
<polygon fill="#ffffff" stroke="transparent" points="728,-119.7 728,-141.7 861,-141.7 861,-119.7 728,-119.7"/>
<polygon fill="none" stroke="#000000" points="728,-119.7 728,-141.7 861,-141.7 861,-119.7 728,-119.7"/>
<image xlink:href="../../images/foreignKeys.png" width="11px" height="12px" preserveAspectRatio="xMinYMin meet" x="733" y="-136.7"/>
<text text-anchor="start" x="754" y="-126.8" font-family="Helvetica,sans-Serif" font-size="11.00" fill="#000000">SubjectId</text>
<polygon fill="#ffffff" stroke="transparent" points="728,-97.7 728,-119.7 861,-119.7 861,-97.7 728,-97.7"/>
<polygon fill="none" stroke="#000000" points="728,-97.7 728,-119.7 861,-119.7 861,-97.7 728,-97.7"/>
<image xlink:href="../../images/foreignKeys.png" width="11px" height="12px" preserveAspectRatio="xMinYMin meet" x="733" y="-114.7"/>
<text text-anchor="start" x="754" y="-104.8" font-family="Helvetica,sans-Serif" font-size="11.00" fill="#000000">CreatedByUserId</text>
<polygon fill="#ffffff" stroke="transparent" points="728,-75.7 728,-97.7 861,-97.7 861,-75.7 728,-75.7"/>
<polygon fill="none" stroke="#000000" points="728,-75.7 728,-97.7 861,-97.7 861,-75.7 728,-75.7"/>
<image xlink:href="../../images/foreignKeys.png" width="11px" height="12px" preserveAspectRatio="xMinYMin meet" x="733" y="-92.7"/>
<text text-anchor="start" x="754" y="-82.8" font-family="Helvetica,sans-Serif" font-size="11.00" fill="#000000">UpdatedByUserId</text>
<polygon fill="none" stroke="#000000" points="728,-56.7 728,-75.7 861,-75.7 861,-56.7 728,-56.7"/>
<text text-anchor="start" x="731" y="-62.8" font-family="Helvetica,sans-Serif" font-size="11.00" fill="#000000">...</text>
<polygon fill="#ffffff" stroke="transparent" points="728,-37.7 728,-56.7 780,-56.7 780,-37.7 728,-37.7"/>
<polygon fill="none" stroke="#000000" points="728,-37.7 728,-56.7 780,-56.7 780,-37.7 728,-37.7"/>
<text text-anchor="start" x="731" y="-43.8" font-family="Helvetica,sans-Serif" font-size="11.00" fill="#000000">&lt; 4</text>
<polygon fill="#ffffff" stroke="transparent" points="780,-37.7 780,-56.7 833,-56.7 833,-37.7 780,-37.7"/>
<polygon fill="none" stroke="#000000" points="780,-37.7 780,-56.7 833,-56.7 833,-37.7 780,-37.7"/>
<text text-anchor="start" x="797.6105" y="-43.8" font-family="Helvetica,sans-Serif" font-size="11.00" fill="#000000">0 rows</text>
<polygon fill="#ffffff" stroke="transparent" points="833,-37.7 833,-56.7 861,-56.7 861,-37.7 833,-37.7"/>
<polygon fill="none" stroke="#000000" points="833,-37.7 833,-56.7 861,-56.7 861,-37.7 833,-37.7"/>
<text text-anchor="start" x="851.8862" y="-43.8" font-family="Helvetica,sans-Serif" font-size="11.00" fill="#000000"> &#160;</text>
</a>
</g>
</g>
<!-- StudentSubjects&#45;&gt;AspNetUsers -->
<g id="edge9" class="edge">
<title>StudentSubjects:w&#45;&gt;AspNetUsers:e</title>
<path fill="none" stroke="#000000" d="M713.3152,-109.9235C682.7049,-115.4441 675.2074,-138.3013 639,-150.7 455.0674,-213.6852 359.7505,-119.335 212,-245.7 174.6178,-277.6715 220.6895,-348.7 171.5,-348.7"/>
<polygon fill="#000000" stroke="#000000" points="720.0276,-109.3643 728.2989,-112.2876 724.0138,-109.0321 728,-108.7 728,-108.7 728,-108.7 724.0138,-109.0321 727.7011,-105.1124 720.0276,-109.3643 720.0276,-109.3643"/>
<ellipse fill="none" stroke="#000000" cx="716.8387" cy="-109.63" rx="3.2" ry="3.2"/>
</g>
<!-- StudentSubjects&#45;&gt;AspNetUsers -->
<g id="edge11" class="edge">
<title>StudentSubjects:w&#45;&gt;AspNetUsers:e</title>
<path fill="none" stroke="#000000" d="M713.5059,-86.6071C490.6147,-83.7615 377.7864,-17.635 212,-173.7 153.8706,-228.4208 251.3335,-348.7 171.5,-348.7"/>
<polygon fill="#000000" stroke="#000000" points="720.0002,-86.6486 727.9769,-90.2999 724.0001,-86.6743 728,-86.7 728,-86.7 728,-86.7 724.0001,-86.6743 728.0231,-83.1001 720.0002,-86.6486 720.0002,-86.6486"/>
<ellipse fill="none" stroke="#000000" cx="716.8002" cy="-86.6281" rx="3.2" ry="3.2"/>
</g>
<!-- StudentSubjects&#45;&gt;Students -->
<g id="edge10" class="edge">
<title>StudentSubjects:w&#45;&gt;Students:e</title>
<path fill="none" stroke="#000000" d="M713.4168,-154.6197C688.7452,-162.0214 686.4074,-189.7887 672,-219.7 651.5272,-262.2036 676.6772,-427.7 629.5,-427.7"/>
<polygon fill="#000000" stroke="#000000" points="720.0684,-153.7441 728.4699,-156.2692 724.0342,-153.2221 728,-152.7 728,-152.7 728,-152.7 724.0342,-153.2221 727.5301,-149.1308 720.0684,-153.7441 720.0684,-153.7441"/>
<ellipse fill="none" stroke="#000000" cx="716.8958" cy="-154.1618" rx="3.2" ry="3.2"/>
</g>
</g>
</svg>
