<?xml version="1.0" encoding="UTF-8" standalone="no"?>
<!DOCTYPE svg PUBLIC "-//W3C//DTD SVG 1.1//EN"
 "http://www.w3.org/Graphics/SVG/1.1/DTD/svg11.dtd">
<!-- Generated by graphviz version 2.40.1 (20161225.0304)
 -->
<!-- Title: twoDegreesRelationshipsDiagram Pages: 1 -->
<svg width="1469pt" height="1102pt"
 viewBox="0.00 0.00 1469.00 1101.70" xmlns="http://www.w3.org/2000/svg" xmlns:xlink="http://www.w3.org/1999/xlink">
<g id="graph0" class="graph" transform="scale(1 1) rotate(0) translate(4 1097.6964)">
<title>twoDegreesRelationshipsDiagram</title>
<polygon fill="#ffffff" stroke="transparent" points="-4,4 -4,-1097.6964 1465,-1097.6964 1465,4 -4,4"/>
<text text-anchor="middle" x="72.4936" y="-7.3" font-family="Helvetica,sans-Serif" font-size="11.00" fill="#000000">Generated by SchemaSpy</text>
<!-- AspNetUserClaims -->
<g id="node1" class="node">
<title>AspNetUserClaims</title>
<g id="a_node1"><a xlink:href="../../tables/AspNetUserClaims.html" xlink:title="AspNetUserClaims" target="_top">
<polygon fill="#ffffff" stroke="transparent" points="172,-1028.6964 172,-1089.6964 319,-1089.6964 319,-1028.6964 172,-1028.6964"/>
<polygon fill="#f5f5f5" stroke="transparent" points="172.5,-1066.1964 172.5,-1089.1964 319.5,-1089.1964 319.5,-1066.1964 172.5,-1066.1964"/>
<polygon fill="none" stroke="#000000" points="172.5,-1066.1964 172.5,-1089.1964 319.5,-1089.1964 319.5,-1066.1964 172.5,-1066.1964"/>
<text text-anchor="start" x="177.5" y="-1074.7964" font-family="Helvetica,sans-Serif" font-weight="bold" font-size="11.00" fill="#000000">AspNetUserClaims</text>
<text text-anchor="start" x="285.0219" y="-1074.2964" font-family="Helvetica,sans-Serif" font-size="11.00" fill="#000000">[table]</text>
<polygon fill="none" stroke="#000000" points="172.5,-1047.1964 172.5,-1066.1964 319.5,-1066.1964 319.5,-1047.1964 172.5,-1047.1964"/>
<text text-anchor="start" x="175.5" y="-1053.2964" font-family="Helvetica,sans-Serif" font-size="11.00" fill="#000000">...</text>
<polygon fill="#ffffff" stroke="transparent" points="172.5,-1028.1964 172.5,-1047.1964 231.5,-1047.1964 231.5,-1028.1964 172.5,-1028.1964"/>
<polygon fill="none" stroke="#000000" points="172.5,-1028.1964 172.5,-1047.1964 231.5,-1047.1964 231.5,-1028.1964 172.5,-1028.1964"/>
<text text-anchor="start" x="175.5" y="-1034.2964" font-family="Helvetica,sans-Serif" font-size="11.00" fill="#000000">&lt; 1</text>
<polygon fill="#ffffff" stroke="transparent" points="231.5,-1028.1964 231.5,-1047.1964 288.5,-1047.1964 288.5,-1028.1964 231.5,-1028.1964"/>
<polygon fill="none" stroke="#000000" points="231.5,-1028.1964 231.5,-1047.1964 288.5,-1047.1964 288.5,-1028.1964 231.5,-1028.1964"/>
<text text-anchor="start" x="253.1105" y="-1034.2964" font-family="Helvetica,sans-Serif" font-size="11.00" fill="#000000">0 rows</text>
<polygon fill="#ffffff" stroke="transparent" points="288.5,-1028.1964 288.5,-1047.1964 319.5,-1047.1964 319.5,-1028.1964 288.5,-1028.1964"/>
<polygon fill="none" stroke="#000000" points="288.5,-1028.1964 288.5,-1047.1964 319.5,-1047.1964 319.5,-1028.1964 288.5,-1028.1964"/>
<text text-anchor="start" x="310.3862" y="-1034.2964" font-family="Helvetica,sans-Serif" font-size="11.00" fill="#000000"> &#160;</text>
</a>
</g>
</g>
<!-- AspNetUsers -->
<g id="node2" class="node">
<title>AspNetUsers</title>
<g id="a_node2"><a xlink:href="../../tables/AspNetUsers.html" xlink:title="AspNetUsers" target="_top">
<polygon fill="#ffffff" stroke="transparent" points="8,-488.6964 8,-549.6964 122,-549.6964 122,-488.6964 8,-488.6964"/>
<polygon fill="#f5f5f5" stroke="transparent" points="8,-526.1964 8,-549.1964 122,-549.1964 122,-526.1964 8,-526.1964"/>
<polygon fill="none" stroke="#000000" points="8,-526.1964 8,-549.1964 122,-549.1964 122,-526.1964 8,-526.1964"/>
<text text-anchor="start" x="13" y="-534.7964" font-family="Helvetica,sans-Serif" font-weight="bold" font-size="11.00" fill="#000000">AspNetUsers</text>
<text text-anchor="start" x="87.5219" y="-534.2964" font-family="Helvetica,sans-Serif" font-size="11.00" fill="#000000">[table]</text>
<polygon fill="none" stroke="#000000" points="8,-507.1964 8,-526.1964 122,-526.1964 122,-507.1964 8,-507.1964"/>
<text text-anchor="start" x="11" y="-513.2964" font-family="Helvetica,sans-Serif" font-size="11.00" fill="#000000">...</text>
<polygon fill="#ffffff" stroke="transparent" points="8,-488.1964 8,-507.1964 41,-507.1964 41,-488.1964 8,-488.1964"/>
<polygon fill="none" stroke="#000000" points="8,-488.1964 8,-507.1964 41,-507.1964 41,-488.1964 8,-488.1964"/>
<text text-anchor="start" x="11" y="-494.2964" font-family="Helvetica,sans-Serif" font-size="11.00" fill="#000000"> &#160;</text>
<polygon fill="#ffffff" stroke="transparent" points="41,-488.1964 41,-507.1964 84,-507.1964 84,-488.1964 41,-488.1964"/>
<polygon fill="none" stroke="#000000" points="41,-488.1964 41,-507.1964 84,-507.1964 84,-488.1964 41,-488.1964"/>
<text text-anchor="start" x="54.1105" y="-494.2964" font-family="Helvetica,sans-Serif" font-size="11.00" fill="#000000">1 row</text>
<polygon fill="#ffffff" stroke="transparent" points="84,-488.1964 84,-507.1964 122,-507.1964 122,-488.1964 84,-488.1964"/>
<polygon fill="none" stroke="#000000" points="84,-488.1964 84,-507.1964 122,-507.1964 122,-488.1964 84,-488.1964"/>
<text text-anchor="start" x="97.2904" y="-494.2964" font-family="Helvetica,sans-Serif" font-size="11.00" fill="#000000">29 &gt;</text>
</a>
</g>
</g>
<!-- AspNetUserClaims&#45;&gt;AspNetUsers -->
<g id="edge1" class="edge">
<title>AspNetUserClaims:w&#45;&gt;AspNetUsers:e</title>
<path fill="none" stroke="#000000" d="M160.0656,-1048.8183C114.5271,-995.1081 78.8796,-663.2517 68.2527,-554.0167"/>
<polygon fill="#000000" stroke="#000000" points="165.62,-1052.114 170.6629,-1059.2924 169.06,-1054.1552 172.5,-1056.1964 172.5,-1056.1964 172.5,-1056.1964 169.06,-1054.1552 174.3371,-1053.1004 165.62,-1052.114 165.62,-1052.114"/>
<ellipse fill="none" stroke="#000000" cx="162.868" cy="-1050.4811" rx="3.2" ry="3.2"/>
</g>
<!-- AspNetUserLogins -->
<g id="node3" class="node">
<title>AspNetUserLogins</title>
<g id="a_node3"><a xlink:href="../../tables/AspNetUserLogins.html" xlink:title="AspNetUserLogins" target="_top">
<polygon fill="#ffffff" stroke="transparent" points="172,-946.6964 172,-1007.6964 319,-1007.6964 319,-946.6964 172,-946.6964"/>
<polygon fill="#f5f5f5" stroke="transparent" points="172.5,-984.1964 172.5,-1007.1964 319.5,-1007.1964 319.5,-984.1964 172.5,-984.1964"/>
<polygon fill="none" stroke="#000000" points="172.5,-984.1964 172.5,-1007.1964 319.5,-1007.1964 319.5,-984.1964 172.5,-984.1964"/>
<text text-anchor="start" x="177.5" y="-992.7964" font-family="Helvetica,sans-Serif" font-weight="bold" font-size="11.00" fill="#000000">AspNetUserLogins</text>
<text text-anchor="start" x="285.0219" y="-992.2964" font-family="Helvetica,sans-Serif" font-size="11.00" fill="#000000">[table]</text>
<polygon fill="none" stroke="#000000" points="172.5,-965.1964 172.5,-984.1964 319.5,-984.1964 319.5,-965.1964 172.5,-965.1964"/>
<text text-anchor="start" x="175.5" y="-971.2964" font-family="Helvetica,sans-Serif" font-size="11.00" fill="#000000">...</text>
<polygon fill="#ffffff" stroke="transparent" points="172.5,-946.1964 172.5,-965.1964 231.5,-965.1964 231.5,-946.1964 172.5,-946.1964"/>
<polygon fill="none" stroke="#000000" points="172.5,-946.1964 172.5,-965.1964 231.5,-965.1964 231.5,-946.1964 172.5,-946.1964"/>
<text text-anchor="start" x="175.5" y="-952.2964" font-family="Helvetica,sans-Serif" font-size="11.00" fill="#000000">&lt; 1</text>
<polygon fill="#ffffff" stroke="transparent" points="231.5,-946.1964 231.5,-965.1964 288.5,-965.1964 288.5,-946.1964 231.5,-946.1964"/>
<polygon fill="none" stroke="#000000" points="231.5,-946.1964 231.5,-965.1964 288.5,-965.1964 288.5,-946.1964 231.5,-946.1964"/>
<text text-anchor="start" x="253.1105" y="-952.2964" font-family="Helvetica,sans-Serif" font-size="11.00" fill="#000000">0 rows</text>
<polygon fill="#ffffff" stroke="transparent" points="288.5,-946.1964 288.5,-965.1964 319.5,-965.1964 319.5,-946.1964 288.5,-946.1964"/>
<polygon fill="none" stroke="#000000" points="288.5,-946.1964 288.5,-965.1964 319.5,-965.1964 319.5,-946.1964 288.5,-946.1964"/>
<text text-anchor="start" x="310.3862" y="-952.2964" font-family="Helvetica,sans-Serif" font-size="11.00" fill="#000000"> &#160;</text>
</a>
</g>
</g>
<!-- AspNetUserLogins&#45;&gt;AspNetUsers -->
<g id="edge2" class="edge">
<title>AspNetUserLogins:w&#45;&gt;AspNetUsers:e</title>
<path fill="none" stroke="#000000" d="M158.0249,-971.0648C84.2038,-938.085 68.887,-653.7282 65.7749,-553.7688"/>
<polygon fill="#000000" stroke="#000000" points="164.6809,-972.5048 171.7388,-977.715 168.5904,-973.3506 172.5,-974.1964 172.5,-974.1964 172.5,-974.1964 168.5904,-973.3506 173.2612,-970.6778 164.6809,-972.5048 164.6809,-972.5048"/>
<ellipse fill="none" stroke="#000000" cx="161.5532" cy="-971.8281" rx="3.2" ry="3.2"/>
</g>
<!-- AspNetUserRoles -->
<g id="node4" class="node">
<title>AspNetUserRoles</title>
<g id="a_node4"><a xlink:href="../../tables/AspNetUserRoles.html" xlink:title="AspNetUserRoles" target="_top">
<polygon fill="#ffffff" stroke="transparent" points="175.5,-864.6964 175.5,-925.6964 315.5,-925.6964 315.5,-864.6964 175.5,-864.6964"/>
<polygon fill="#f5f5f5" stroke="transparent" points="175.5,-902.1964 175.5,-925.1964 315.5,-925.1964 315.5,-902.1964 175.5,-902.1964"/>
<polygon fill="none" stroke="#000000" points="175.5,-902.1964 175.5,-925.1964 315.5,-925.1964 315.5,-902.1964 175.5,-902.1964"/>
<text text-anchor="start" x="180.5" y="-910.7964" font-family="Helvetica,sans-Serif" font-weight="bold" font-size="11.00" fill="#000000">AspNetUserRoles</text>
<text text-anchor="start" x="281.0219" y="-910.2964" font-family="Helvetica,sans-Serif" font-size="11.00" fill="#000000">[table]</text>
<polygon fill="none" stroke="#000000" points="175.5,-883.1964 175.5,-902.1964 315.5,-902.1964 315.5,-883.1964 175.5,-883.1964"/>
<text text-anchor="start" x="178.5" y="-889.2964" font-family="Helvetica,sans-Serif" font-size="11.00" fill="#000000">...</text>
<polygon fill="#ffffff" stroke="transparent" points="175.5,-864.1964 175.5,-883.1964 233.5,-883.1964 233.5,-864.1964 175.5,-864.1964"/>
<polygon fill="none" stroke="#000000" points="175.5,-864.1964 175.5,-883.1964 233.5,-883.1964 233.5,-864.1964 175.5,-864.1964"/>
<text text-anchor="start" x="178.5" y="-870.2964" font-family="Helvetica,sans-Serif" font-size="11.00" fill="#000000">&lt; 2</text>
<polygon fill="#ffffff" stroke="transparent" points="233.5,-864.1964 233.5,-883.1964 284.5,-883.1964 284.5,-864.1964 233.5,-864.1964"/>
<polygon fill="none" stroke="#000000" points="233.5,-864.1964 233.5,-883.1964 284.5,-883.1964 284.5,-864.1964 233.5,-864.1964"/>
<text text-anchor="start" x="254.6105" y="-870.2964" font-family="Helvetica,sans-Serif" font-size="11.00" fill="#000000">1 row</text>
<polygon fill="#ffffff" stroke="transparent" points="284.5,-864.1964 284.5,-883.1964 315.5,-883.1964 315.5,-864.1964 284.5,-864.1964"/>
<polygon fill="none" stroke="#000000" points="284.5,-864.1964 284.5,-883.1964 315.5,-883.1964 315.5,-864.1964 284.5,-864.1964"/>
<text text-anchor="start" x="306.3862" y="-870.2964" font-family="Helvetica,sans-Serif" font-size="11.00" fill="#000000"> &#160;</text>
</a>
</g>
</g>
<!-- AspNetUserRoles&#45;&gt;AspNetUsers -->
<g id="edge3" class="edge">
<title>AspNetUserRoles:w&#45;&gt;AspNetUsers:e</title>
<path fill="none" stroke="#000000" d="M161.3039,-888.6917C101.3591,-858.409 75.6875,-640.0389 67.8198,-553.9524"/>
<polygon fill="#000000" stroke="#000000" points="167.7332,-890.2789 174.6371,-895.6915 171.6166,-891.2376 175.5,-892.1964 175.5,-892.1964 175.5,-892.1964 171.6166,-891.2376 176.3629,-888.7013 167.7332,-890.2789 167.7332,-890.2789"/>
<ellipse fill="none" stroke="#000000" cx="164.6265" cy="-889.5119" rx="3.2" ry="3.2"/>
</g>
<!-- AspNetUserTokens -->
<g id="node5" class="node">
<title>AspNetUserTokens</title>
<g id="a_node5"><a xlink:href="../../tables/AspNetUserTokens.html" xlink:title="AspNetUserTokens" target="_top">
<polygon fill="#ffffff" stroke="transparent" points="171,-782.6964 171,-843.6964 320,-843.6964 320,-782.6964 171,-782.6964"/>
<polygon fill="#f5f5f5" stroke="transparent" points="171.5,-820.1964 171.5,-843.1964 320.5,-843.1964 320.5,-820.1964 171.5,-820.1964"/>
<polygon fill="none" stroke="#000000" points="171.5,-820.1964 171.5,-843.1964 320.5,-843.1964 320.5,-820.1964 171.5,-820.1964"/>
<text text-anchor="start" x="176.5" y="-828.7964" font-family="Helvetica,sans-Serif" font-weight="bold" font-size="11.00" fill="#000000">AspNetUserTokens</text>
<text text-anchor="start" x="286.0219" y="-828.2964" font-family="Helvetica,sans-Serif" font-size="11.00" fill="#000000">[table]</text>
<polygon fill="none" stroke="#000000" points="171.5,-801.1964 171.5,-820.1964 320.5,-820.1964 320.5,-801.1964 171.5,-801.1964"/>
<text text-anchor="start" x="174.5" y="-807.2964" font-family="Helvetica,sans-Serif" font-size="11.00" fill="#000000">...</text>
<polygon fill="#ffffff" stroke="transparent" points="171.5,-782.1964 171.5,-801.1964 231.5,-801.1964 231.5,-782.1964 171.5,-782.1964"/>
<polygon fill="none" stroke="#000000" points="171.5,-782.1964 171.5,-801.1964 231.5,-801.1964 231.5,-782.1964 171.5,-782.1964"/>
<text text-anchor="start" x="174.5" y="-788.2964" font-family="Helvetica,sans-Serif" font-size="11.00" fill="#000000">&lt; 1</text>
<polygon fill="#ffffff" stroke="transparent" points="231.5,-782.1964 231.5,-801.1964 288.5,-801.1964 288.5,-782.1964 231.5,-782.1964"/>
<polygon fill="none" stroke="#000000" points="231.5,-782.1964 231.5,-801.1964 288.5,-801.1964 288.5,-782.1964 231.5,-782.1964"/>
<text text-anchor="start" x="253.1105" y="-788.2964" font-family="Helvetica,sans-Serif" font-size="11.00" fill="#000000">0 rows</text>
<polygon fill="#ffffff" stroke="transparent" points="288.5,-782.1964 288.5,-801.1964 320.5,-801.1964 320.5,-782.1964 288.5,-782.1964"/>
<polygon fill="none" stroke="#000000" points="288.5,-782.1964 288.5,-801.1964 320.5,-801.1964 320.5,-782.1964 288.5,-782.1964"/>
<text text-anchor="start" x="311.3862" y="-788.2964" font-family="Helvetica,sans-Serif" font-size="11.00" fill="#000000"> &#160;</text>
</a>
</g>
</g>
<!-- AspNetUserTokens&#45;&gt;AspNetUsers -->
<g id="edge4" class="edge">
<title>AspNetUserTokens:w&#45;&gt;AspNetUsers:e</title>
<path fill="none" stroke="#000000" d="M157.3956,-806.0566C111.3569,-778.7876 81.4941,-623.8781 70.1483,-553.7207"/>
<polygon fill="#000000" stroke="#000000" points="163.8238,-807.9433 170.4861,-813.6507 167.6619,-809.0698 171.5,-810.1964 171.5,-810.1964 171.5,-810.1964 167.6619,-809.0698 172.5139,-806.7421 163.8238,-807.9433 163.8238,-807.9433"/>
<ellipse fill="none" stroke="#000000" cx="160.7533" cy="-807.0421" rx="3.2" ry="3.2"/>
</g>
<!-- Competencies -->
<g id="node6" class="node">
<title>Competencies</title>
<g id="a_node6"><a xlink:href="../../tables/Competencies.html" xlink:title="Competencies" target="_top">
<polygon fill="#ffffff" stroke="transparent" points="185,-660.6964 185,-721.6964 306,-721.6964 306,-660.6964 185,-660.6964"/>
<polygon fill="#f5f5f5" stroke="transparent" points="185.5,-698.1964 185.5,-721.1964 306.5,-721.1964 306.5,-698.1964 185.5,-698.1964"/>
<polygon fill="none" stroke="#000000" points="185.5,-698.1964 185.5,-721.1964 306.5,-721.1964 306.5,-698.1964 185.5,-698.1964"/>
<text text-anchor="start" x="190.5" y="-706.7964" font-family="Helvetica,sans-Serif" font-weight="bold" font-size="11.00" fill="#000000">Competencies</text>
<text text-anchor="start" x="272.0219" y="-706.2964" font-family="Helvetica,sans-Serif" font-size="11.00" fill="#000000">[table]</text>
<polygon fill="none" stroke="#000000" points="185.5,-679.1964 185.5,-698.1964 306.5,-698.1964 306.5,-679.1964 185.5,-679.1964"/>
<text text-anchor="start" x="188.5" y="-685.2964" font-family="Helvetica,sans-Serif" font-size="11.00" fill="#000000">...</text>
<polygon fill="#ffffff" stroke="transparent" points="185.5,-660.1964 185.5,-679.1964 226.5,-679.1964 226.5,-660.1964 185.5,-660.1964"/>
<polygon fill="none" stroke="#000000" points="185.5,-660.1964 185.5,-679.1964 226.5,-679.1964 226.5,-660.1964 185.5,-660.1964"/>
<text text-anchor="start" x="188.5" y="-666.2964" font-family="Helvetica,sans-Serif" font-size="11.00" fill="#000000">&lt; 2</text>
<polygon fill="#ffffff" stroke="transparent" points="226.5,-660.1964 226.5,-679.1964 274.5,-679.1964 274.5,-660.1964 226.5,-660.1964"/>
<polygon fill="none" stroke="#000000" points="226.5,-660.1964 226.5,-679.1964 274.5,-679.1964 274.5,-660.1964 226.5,-660.1964"/>
<text text-anchor="start" x="239.1105" y="-666.2964" font-family="Helvetica,sans-Serif" font-size="11.00" fill="#000000">5 rows</text>
<polygon fill="#ffffff" stroke="transparent" points="274.5,-660.1964 274.5,-679.1964 306.5,-679.1964 306.5,-660.1964 274.5,-660.1964"/>
<polygon fill="none" stroke="#000000" points="274.5,-660.1964 274.5,-679.1964 306.5,-679.1964 306.5,-660.1964 274.5,-660.1964"/>
<text text-anchor="start" x="287.9053" y="-666.2964" font-family="Helvetica,sans-Serif" font-size="11.00" fill="#000000">4 &gt;</text>
</a>
</g>
</g>
<!-- Competencies&#45;&gt;AspNetUsers -->
<g id="edge5" class="edge">
<title>Competencies:w&#45;&gt;AspNetUsers:e</title>
<path fill="none" stroke="#000000" d="M171.1058,-685.8506C116.6475,-671.4309 87.405,-598.2072 74.1216,-553.7046"/>
<polygon fill="#000000" stroke="#000000" points="177.6042,-686.9096 184.9209,-691.7495 181.5521,-687.553 185.5,-688.1964 185.5,-688.1964 185.5,-688.1964 181.5521,-687.553 186.0791,-684.6433 177.6042,-686.9096 177.6042,-686.9096"/>
<ellipse fill="none" stroke="#000000" cx="174.4458" cy="-686.3949" rx="3.2" ry="3.2"/>
</g>
<!-- Competencies&#45;&gt;AspNetUsers -->
<g id="edge6" class="edge">
<title>Competencies:w&#45;&gt;AspNetUsers:e</title>
<path fill="none" stroke="#000000" d="M171.0921,-687.8417C113.4722,-680.3929 84.0845,-601.1987 71.9619,-553.9544"/>
<polygon fill="#000000" stroke="#000000" points="177.5024,-687.9994 185.4114,-691.7953 181.5012,-688.0979 185.5,-688.1964 185.5,-688.1964 185.5,-688.1964 181.5012,-688.0979 185.5886,-684.5975 177.5024,-687.9994 177.5024,-687.9994"/>
<ellipse fill="none" stroke="#000000" cx="174.3034" cy="-687.9207" rx="3.2" ry="3.2"/>
</g>
<!-- CompetencyLevelDescriptions -->
<g id="node7" class="node">
<title>CompetencyLevelDescriptions</title>
<g id="a_node7"><a xlink:href="../../tables/CompetencyLevelDescriptions.html" xlink:title="CompetencyLevelDescriptions" target="_top">
<polygon fill="#ffffff" stroke="transparent" points="369,-653.6964 369,-714.6964 583,-714.6964 583,-653.6964 369,-653.6964"/>
<polygon fill="#f5f5f5" stroke="transparent" points="369,-691.1964 369,-714.1964 583,-714.1964 583,-691.1964 369,-691.1964"/>
<polygon fill="none" stroke="#000000" points="369,-691.1964 369,-714.1964 583,-714.1964 583,-691.1964 369,-691.1964"/>
<text text-anchor="start" x="374" y="-699.7964" font-family="Helvetica,sans-Serif" font-weight="bold" font-size="11.00" fill="#000000">CompetencyLevelDescriptions</text>
<text text-anchor="start" x="548.5219" y="-699.2964" font-family="Helvetica,sans-Serif" font-size="11.00" fill="#000000">[table]</text>
<polygon fill="none" stroke="#000000" points="369,-672.1964 369,-691.1964 583,-691.1964 583,-672.1964 369,-672.1964"/>
<text text-anchor="start" x="372" y="-678.2964" font-family="Helvetica,sans-Serif" font-size="11.00" fill="#000000">...</text>
<polygon fill="#ffffff" stroke="transparent" points="369,-653.1964 369,-672.1964 458,-672.1964 458,-653.1964 369,-653.1964"/>
<polygon fill="none" stroke="#000000" points="369,-653.1964 369,-672.1964 458,-672.1964 458,-653.1964 369,-653.1964"/>
<text text-anchor="start" x="372" y="-659.2964" font-family="Helvetica,sans-Serif" font-size="11.00" fill="#000000">&lt; 3</text>
<polygon fill="#ffffff" stroke="transparent" points="458,-653.1964 458,-672.1964 536,-672.1964 536,-653.1964 458,-653.1964"/>
<polygon fill="none" stroke="#000000" points="458,-653.1964 458,-672.1964 536,-672.1964 536,-653.1964 458,-653.1964"/>
<text text-anchor="start" x="494.4956" y="-659.2964" font-family="Helvetica,sans-Serif" font-size="11.00" fill="#000000">20 rows</text>
<polygon fill="#ffffff" stroke="transparent" points="536,-653.1964 536,-672.1964 583,-672.1964 583,-653.1964 536,-653.1964"/>
<polygon fill="none" stroke="#000000" points="536,-653.1964 536,-672.1964 583,-672.1964 583,-653.1964 536,-653.1964"/>
<text text-anchor="start" x="573.8862" y="-659.2964" font-family="Helvetica,sans-Serif" font-size="11.00" fill="#000000"> &#160;</text>
</a>
</g>
</g>
<!-- CompetencyLevelDescriptions&#45;&gt;AspNetUsers -->
<g id="edge8" class="edge">
<title>CompetencyLevelDescriptions:w&#45;&gt;AspNetUsers:e</title>
<path fill="none" stroke="#000000" d="M356.1599,-674.5616C345.9727,-665.6552 343.5797,-651.7446 328,-644.1964 259.8001,-611.1542 229.7471,-637.0829 163,-601.1964 140.2415,-588.9603 118.4803,-570.3805 101.2701,-553.9574"/>
<polygon fill="#000000" stroke="#000000" points="361.8927,-677.5239 367.3474,-684.3947 365.4464,-679.3602 369,-681.1964 369,-681.1964 369,-681.1964 365.4464,-679.3602 370.6526,-677.9981 361.8927,-677.5239 361.8927,-677.5239"/>
<ellipse fill="none" stroke="#000000" cx="359.0498" cy="-676.0549" rx="3.2" ry="3.2"/>
</g>
<!-- CompetencyLevelDescriptions&#45;&gt;AspNetUsers -->
<g id="edge9" class="edge">
<title>CompetencyLevelDescriptions:w&#45;&gt;AspNetUsers:e</title>
<path fill="none" stroke="#000000" d="M354.354,-681.1829C345.6262,-676.9587 342.616,-664.2777 328,-657.1964 259.8001,-624.1542 229.7471,-650.0829 163,-614.1964 135.0051,-599.145 108.519,-574.4947 90.1566,-553.9862"/>
<polygon fill="#000000" stroke="#000000" points="361,-681.1889 368.9966,-684.7964 365,-681.1927 369,-681.1964 369,-681.1964 369,-681.1964 365,-681.1927 369.0034,-677.5964 361,-681.1889 361,-681.1889"/>
<ellipse fill="none" stroke="#000000" cx="357.8" cy="-681.186" rx="3.2" ry="3.2"/>
</g>
<!-- CompetencyLevelDescriptions&#45;&gt;Competencies -->
<g id="edge7" class="edge">
<title>CompetencyLevelDescriptions:w&#45;&gt;Competencies:e</title>
<path fill="none" stroke="#000000" d="M354.2524,-681.9455C337.4874,-683.7513 328.7738,-688.1964 306.5,-688.1964"/>
<polygon fill="#000000" stroke="#000000" points="361.0103,-681.6023 369.1827,-684.7918 365.0052,-681.3993 369,-681.1964 369,-681.1964 369,-681.1964 365.0052,-681.3993 368.8173,-677.601 361.0103,-681.6023 361.0103,-681.6023"/>
<ellipse fill="none" stroke="#000000" cx="357.8144" cy="-681.7647" rx="3.2" ry="3.2"/>
</g>
<!-- Coordinators -->
<g id="node8" class="node">
<title>Coordinators</title>
<g id="a_node8"><a xlink:href="../../tables/Coordinators.html" xlink:title="Coordinators" target="_top">
<polygon fill="#ffffff" stroke="transparent" points="419,-449.6964 419,-510.6964 533,-510.6964 533,-449.6964 419,-449.6964"/>
<polygon fill="#f5f5f5" stroke="transparent" points="419,-487.1964 419,-510.1964 533,-510.1964 533,-487.1964 419,-487.1964"/>
<polygon fill="none" stroke="#000000" points="419,-487.1964 419,-510.1964 533,-510.1964 533,-487.1964 419,-487.1964"/>
<text text-anchor="start" x="424" y="-495.7964" font-family="Helvetica,sans-Serif" font-weight="bold" font-size="11.00" fill="#000000">Coordinators</text>
<text text-anchor="start" x="498.5219" y="-495.2964" font-family="Helvetica,sans-Serif" font-size="11.00" fill="#000000">[table]</text>
<polygon fill="none" stroke="#000000" points="419,-468.1964 419,-487.1964 533,-487.1964 533,-468.1964 419,-468.1964"/>
<text text-anchor="start" x="422" y="-474.2964" font-family="Helvetica,sans-Serif" font-size="11.00" fill="#000000">...</text>
<polygon fill="#ffffff" stroke="transparent" points="419,-449.1964 419,-468.1964 461,-468.1964 461,-449.1964 419,-449.1964"/>
<polygon fill="none" stroke="#000000" points="419,-449.1964 419,-468.1964 461,-468.1964 461,-449.1964 419,-449.1964"/>
<text text-anchor="start" x="422" y="-455.2964" font-family="Helvetica,sans-Serif" font-size="11.00" fill="#000000">&lt; 2</text>
<polygon fill="#ffffff" stroke="transparent" points="461,-449.1964 461,-468.1964 510,-468.1964 510,-449.1964 461,-449.1964"/>
<polygon fill="none" stroke="#000000" points="461,-449.1964 461,-468.1964 510,-468.1964 510,-449.1964 461,-449.1964"/>
<text text-anchor="start" x="474.6105" y="-455.2964" font-family="Helvetica,sans-Serif" font-size="11.00" fill="#000000">0 rows</text>
<polygon fill="#ffffff" stroke="transparent" points="510,-449.1964 510,-468.1964 533,-468.1964 533,-449.1964 510,-449.1964"/>
<polygon fill="none" stroke="#000000" points="510,-449.1964 510,-468.1964 533,-468.1964 533,-449.1964 510,-449.1964"/>
<text text-anchor="start" x="523.8862" y="-455.2964" font-family="Helvetica,sans-Serif" font-size="11.00" fill="#000000"> &#160;</text>
</a>
</g>
</g>
<!-- Coordinators&#45;&gt;AspNetUsers -->
<g id="edge11" class="edge">
<title>Coordinators:w&#45;&gt;AspNetUsers:e</title>
<path fill="none" stroke="#000000" d="M408.3986,-477.6707C375.1431,-480.791 365.92,-498.459 328,-505.1964 261.2589,-517.0546 183.6182,-519.8737 130.0841,-520.1459"/>
<polygon fill="#000000" stroke="#000000" points="418.022,-473.2362 418.3796,-481.2282 416.7812,-481.2997 416.4236,-473.3077 418.022,-473.2362"/>
<polyline fill="none" stroke="#000000" points="419,-477.1964 415.004,-477.3752 "/>
<ellipse fill="none" stroke="#000000" cx="411.8072" cy="-477.5182" rx="3.2" ry="3.2"/>
</g>
<!-- TechnicalCareers -->
<g id="node9" class="node">
<title>TechnicalCareers</title>
<g id="a_node9"><a xlink:href="../../tables/TechnicalCareers.html" xlink:title="TechnicalCareers" target="_top">
<polygon fill="#ffffff" stroke="transparent" points="176,-433.6964 176,-494.6964 315,-494.6964 315,-433.6964 176,-433.6964"/>
<polygon fill="#f5f5f5" stroke="transparent" points="176.5,-471.1964 176.5,-494.1964 315.5,-494.1964 315.5,-471.1964 176.5,-471.1964"/>
<polygon fill="none" stroke="#000000" points="176.5,-471.1964 176.5,-494.1964 315.5,-494.1964 315.5,-471.1964 176.5,-471.1964"/>
<text text-anchor="start" x="181.5" y="-479.7964" font-family="Helvetica,sans-Serif" font-weight="bold" font-size="11.00" fill="#000000">TechnicalCareers</text>
<text text-anchor="start" x="281.0219" y="-479.2964" font-family="Helvetica,sans-Serif" font-size="11.00" fill="#000000">[table]</text>
<polygon fill="none" stroke="#000000" points="176.5,-452.1964 176.5,-471.1964 315.5,-471.1964 315.5,-452.1964 176.5,-452.1964"/>
<text text-anchor="start" x="179.5" y="-458.2964" font-family="Helvetica,sans-Serif" font-size="11.00" fill="#000000">...</text>
<polygon fill="#ffffff" stroke="transparent" points="176.5,-433.1964 176.5,-452.1964 226.5,-452.1964 226.5,-433.1964 176.5,-433.1964"/>
<polygon fill="none" stroke="#000000" points="176.5,-433.1964 176.5,-452.1964 226.5,-452.1964 226.5,-433.1964 176.5,-433.1964"/>
<text text-anchor="start" x="179.5" y="-439.2964" font-family="Helvetica,sans-Serif" font-size="11.00" fill="#000000">&lt; 2</text>
<polygon fill="#ffffff" stroke="transparent" points="226.5,-433.1964 226.5,-452.1964 279.5,-452.1964 279.5,-433.1964 226.5,-433.1964"/>
<polygon fill="none" stroke="#000000" points="226.5,-433.1964 226.5,-452.1964 279.5,-452.1964 279.5,-433.1964 226.5,-433.1964"/>
<text text-anchor="start" x="244.1105" y="-439.2964" font-family="Helvetica,sans-Serif" font-size="11.00" fill="#000000">6 rows</text>
<polygon fill="#ffffff" stroke="transparent" points="279.5,-433.1964 279.5,-452.1964 315.5,-452.1964 315.5,-433.1964 279.5,-433.1964"/>
<polygon fill="none" stroke="#000000" points="279.5,-433.1964 279.5,-452.1964 315.5,-452.1964 315.5,-433.1964 279.5,-433.1964"/>
<text text-anchor="start" x="296.9053" y="-439.2964" font-family="Helvetica,sans-Serif" font-size="11.00" fill="#000000">6 &gt;</text>
</a>
</g>
</g>
<!-- Coordinators&#45;&gt;TechnicalCareers -->
<g id="edge10" class="edge">
<title>Coordinators:w&#45;&gt;TechnicalCareers:e</title>
<path fill="none" stroke="#000000" d="M404.4677,-476.627C369.632,-473.7767 356.7736,-461.1964 315.5,-461.1964"/>
<polygon fill="#000000" stroke="#000000" points="411.0061,-476.8831 418.859,-480.7936 415.0031,-477.0398 419,-477.1964 419,-477.1964 419,-477.1964 415.0031,-477.0398 419.141,-473.5992 411.0061,-476.8831 411.0061,-476.8831"/>
<ellipse fill="none" stroke="#000000" cx="407.8086" cy="-476.7578" rx="3.2" ry="3.2"/>
</g>
<!-- TechnicalCareers&#45;&gt;AspNetUsers -->
<g id="edge48" class="edge">
<title>TechnicalCareers:w&#45;&gt;AspNetUsers:e</title>
<path fill="none" stroke="#000000" d="M161.8396,-461.0168C139.6518,-462.7541 118.2792,-473.1265 101.2832,-484.6795"/>
<polygon fill="#000000" stroke="#000000" points="168.5006,-461.0983 176.4559,-464.7961 172.5003,-461.1474 176.5,-461.1964 176.5,-461.1964 176.5,-461.1964 172.5003,-461.1474 176.5441,-457.5967 168.5006,-461.0983 168.5006,-461.0983"/>
<ellipse fill="none" stroke="#000000" cx="165.3008" cy="-461.0591" rx="3.2" ry="3.2"/>
</g>
<!-- TechnicalCareers&#45;&gt;AspNetUsers -->
<g id="edge49" class="edge">
<title>TechnicalCareers:w&#45;&gt;AspNetUsers:e</title>
<path fill="none" stroke="#000000" d="M162.2276,-464.0336C146.0706,-468.3675 130.3345,-476.1943 116.3928,-484.6395"/>
<polygon fill="#000000" stroke="#000000" points="168.6535,-462.7562 177.2019,-464.7273 172.5768,-461.9763 176.5,-461.1964 176.5,-461.1964 176.5,-461.1964 172.5768,-461.9763 175.7981,-457.6655 168.6535,-462.7562 168.6535,-462.7562"/>
<ellipse fill="none" stroke="#000000" cx="165.5149" cy="-463.3801" rx="3.2" ry="3.2"/>
</g>
<!-- EvaluationPeriods -->
<g id="node10" class="node">
<title>EvaluationPeriods</title>
<g id="a_node10"><a xlink:href="../../tables/EvaluationPeriods.html" xlink:title="EvaluationPeriods" target="_top">
<polygon fill="#ffffff" stroke="transparent" points="404.5,-531.6964 404.5,-592.6964 547.5,-592.6964 547.5,-531.6964 404.5,-531.6964"/>
<polygon fill="#f5f5f5" stroke="transparent" points="405,-569.1964 405,-592.1964 548,-592.1964 548,-569.1964 405,-569.1964"/>
<polygon fill="none" stroke="#000000" points="405,-569.1964 405,-592.1964 548,-592.1964 548,-569.1964 405,-569.1964"/>
<text text-anchor="start" x="410" y="-577.7964" font-family="Helvetica,sans-Serif" font-weight="bold" font-size="11.00" fill="#000000">EvaluationPeriods</text>
<text text-anchor="start" x="513.5219" y="-577.2964" font-family="Helvetica,sans-Serif" font-size="11.00" fill="#000000">[table]</text>
<polygon fill="none" stroke="#000000" points="405,-550.1964 405,-569.1964 548,-569.1964 548,-550.1964 405,-550.1964"/>
<text text-anchor="start" x="408" y="-556.2964" font-family="Helvetica,sans-Serif" font-size="11.00" fill="#000000">...</text>
<polygon fill="#ffffff" stroke="transparent" points="405,-531.1964 405,-550.1964 457,-550.1964 457,-531.1964 405,-531.1964"/>
<polygon fill="none" stroke="#000000" points="405,-531.1964 405,-550.1964 457,-550.1964 457,-531.1964 405,-531.1964"/>
<text text-anchor="start" x="408" y="-537.2964" font-family="Helvetica,sans-Serif" font-size="11.00" fill="#000000">&lt; 2</text>
<polygon fill="#ffffff" stroke="transparent" points="457,-531.1964 457,-550.1964 511,-550.1964 511,-531.1964 457,-531.1964"/>
<polygon fill="none" stroke="#000000" points="457,-531.1964 457,-550.1964 511,-550.1964 511,-531.1964 457,-531.1964"/>
<text text-anchor="start" x="475.6105" y="-537.2964" font-family="Helvetica,sans-Serif" font-size="11.00" fill="#000000">0 rows</text>
<polygon fill="#ffffff" stroke="transparent" points="511,-531.1964 511,-550.1964 548,-550.1964 548,-531.1964 511,-531.1964"/>
<polygon fill="none" stroke="#000000" points="511,-531.1964 511,-550.1964 548,-550.1964 548,-531.1964 511,-531.1964"/>
<text text-anchor="start" x="529.4053" y="-537.2964" font-family="Helvetica,sans-Serif" font-size="11.00" fill="#000000">3 &gt;</text>
</a>
</g>
</g>
<!-- EvaluationPeriods&#45;&gt;AspNetUsers -->
<g id="edge12" class="edge">
<title>EvaluationPeriods:w&#45;&gt;AspNetUsers:e</title>
<path fill="none" stroke="#000000" d="M390.5369,-558.5315C297.9732,-553.6921 195.0796,-537.5052 130.2297,-527.2824"/>
<polygon fill="#000000" stroke="#000000" points="397.0084,-558.8289 404.8346,-562.7926 401.0042,-559.0127 405,-559.1964 405,-559.1964 405,-559.1964 401.0042,-559.0127 405.1654,-555.6002 397.0084,-558.8289 397.0084,-558.8289"/>
<ellipse fill="none" stroke="#000000" cx="393.8118" cy="-558.6819" rx="3.2" ry="3.2"/>
</g>
<!-- EvaluationPeriods&#45;&gt;AspNetUsers -->
<g id="edge13" class="edge">
<title>EvaluationPeriods:w&#45;&gt;AspNetUsers:e</title>
<path fill="none" stroke="#000000" d="M390.5369,-559.7201C297.9732,-562.1943 195.0796,-548.6352 130.2297,-536.3546"/>
<polygon fill="#000000" stroke="#000000" points="397.0052,-559.4859 405.1303,-562.794 401.0026,-559.3412 405,-559.1964 405,-559.1964 405,-559.1964 401.0026,-559.3412 404.8697,-555.5988 397.0052,-559.4859 397.0052,-559.4859"/>
<ellipse fill="none" stroke="#000000" cx="393.8073" cy="-559.6018" rx="3.2" ry="3.2"/>
</g>
<!-- FormQuestions -->
<g id="node11" class="node">
<title>FormQuestions</title>
<g id="a_node11"><a xlink:href="../../tables/FormQuestions.html" xlink:title="FormQuestions" target="_top">
<polygon fill="#ffffff" stroke="transparent" points="412.5,-763.6964 412.5,-824.6964 539.5,-824.6964 539.5,-763.6964 412.5,-763.6964"/>
<polygon fill="#f5f5f5" stroke="transparent" points="413,-801.1964 413,-824.1964 540,-824.1964 540,-801.1964 413,-801.1964"/>
<polygon fill="none" stroke="#000000" points="413,-801.1964 413,-824.1964 540,-824.1964 540,-801.1964 413,-801.1964"/>
<text text-anchor="start" x="418" y="-809.7964" font-family="Helvetica,sans-Serif" font-weight="bold" font-size="11.00" fill="#000000">FormQuestions</text>
<text text-anchor="start" x="505.5219" y="-809.2964" font-family="Helvetica,sans-Serif" font-size="11.00" fill="#000000">[table]</text>
<polygon fill="none" stroke="#000000" points="413,-782.1964 413,-801.1964 540,-801.1964 540,-782.1964 413,-782.1964"/>
<text text-anchor="start" x="416" y="-788.2964" font-family="Helvetica,sans-Serif" font-size="11.00" fill="#000000">...</text>
<polygon fill="#ffffff" stroke="transparent" points="413,-763.1964 413,-782.1964 457,-782.1964 457,-763.1964 413,-763.1964"/>
<polygon fill="none" stroke="#000000" points="413,-763.1964 413,-782.1964 457,-782.1964 457,-763.1964 413,-763.1964"/>
<text text-anchor="start" x="416" y="-769.2964" font-family="Helvetica,sans-Serif" font-size="11.00" fill="#000000">&lt; 3</text>
<polygon fill="#ffffff" stroke="transparent" points="457,-763.1964 457,-782.1964 507,-782.1964 507,-763.1964 457,-763.1964"/>
<polygon fill="none" stroke="#000000" points="457,-763.1964 457,-782.1964 507,-782.1964 507,-763.1964 457,-763.1964"/>
<text text-anchor="start" x="471.6105" y="-769.2964" font-family="Helvetica,sans-Serif" font-size="11.00" fill="#000000">0 rows</text>
<polygon fill="#ffffff" stroke="transparent" points="507,-763.1964 507,-782.1964 540,-782.1964 540,-763.1964 507,-763.1964"/>
<polygon fill="none" stroke="#000000" points="507,-763.1964 507,-782.1964 540,-782.1964 540,-763.1964 507,-763.1964"/>
<text text-anchor="start" x="521.4053" y="-769.2964" font-family="Helvetica,sans-Serif" font-size="11.00" fill="#000000">1 &gt;</text>
</a>
</g>
</g>
<!-- FormQuestions&#45;&gt;AspNetUsers -->
<g id="edge15" class="edge">
<title>FormQuestions:w&#45;&gt;AspNetUsers:e</title>
<path fill="none" stroke="#000000" d="M399.3019,-786.159C347.3067,-770.6997 165.3838,-728.1465 163,-726.1964 108.6525,-681.7357 83.0504,-600.4813 72.131,-554.0413"/>
<polygon fill="#000000" stroke="#000000" points="405.4916,-788.4352 411.7575,-794.5752 409.2458,-789.8158 413,-791.1964 413,-791.1964 413,-791.1964 409.2458,-789.8158 414.2425,-787.8176 405.4916,-788.4352 405.4916,-788.4352"/>
<ellipse fill="none" stroke="#000000" cx="402.4882" cy="-787.3307" rx="3.2" ry="3.2"/>
</g>
<!-- FormQuestions&#45;&gt;AspNetUsers -->
<g id="edge16" class="edge">
<title>FormQuestions:w&#45;&gt;AspNetUsers:e</title>
<path fill="none" stroke="#000000" d="M398.5882,-790.6968C345.664,-783.3154 165.373,-741.1377 163,-739.1964 105.1869,-691.9005 79.9021,-602.9688 70.2175,-553.8126"/>
<polygon fill="#000000" stroke="#000000" points="405.0048,-790.9192 412.8752,-794.7942 409.0024,-791.0578 413,-791.1964 413,-791.1964 413,-791.1964 409.0024,-791.0578 413.1248,-787.5986 405.0048,-790.9192 405.0048,-790.9192"/>
<ellipse fill="none" stroke="#000000" cx="401.8067" cy="-790.8083" rx="3.2" ry="3.2"/>
</g>
<!-- FormQuestions&#45;&gt;Competencies -->
<g id="edge14" class="edge">
<title>FormQuestions:w&#45;&gt;Competencies:e</title>
<path fill="none" stroke="#000000" d="M398.5345,-788.9015C382.1999,-782.8291 378.3192,-765.6745 361,-749.1964 334.6611,-724.1367 342.8556,-688.1964 306.5,-688.1964"/>
<polygon fill="#000000" stroke="#000000" points="405.0988,-789.9429 412.4359,-794.7519 409.0494,-790.5696 413,-791.1964 413,-791.1964 413,-791.1964 409.0494,-790.5696 413.5641,-787.6409 405.0988,-789.9429 405.0988,-789.9429"/>
<ellipse fill="none" stroke="#000000" cx="401.9383" cy="-789.4414" rx="3.2" ry="3.2"/>
</g>
<!-- ProfessorCompetencyAssignments -->
<g id="node12" class="node">
<title>ProfessorCompetencyAssignments</title>
<g id="a_node12"><a xlink:href="../../tables/ProfessorCompetencyAssignments.html" xlink:title="ProfessorCompetencyAssignments" target="_top">
<polygon fill="#ffffff" stroke="transparent" points="632,-469.6964 632,-530.6964 874,-530.6964 874,-469.6964 632,-469.6964"/>
<polygon fill="#f5f5f5" stroke="transparent" points="632,-507.1964 632,-530.1964 874,-530.1964 874,-507.1964 632,-507.1964"/>
<polygon fill="none" stroke="#000000" points="632,-507.1964 632,-530.1964 874,-530.1964 874,-507.1964 632,-507.1964"/>
<text text-anchor="start" x="637" y="-515.7964" font-family="Helvetica,sans-Serif" font-weight="bold" font-size="11.00" fill="#000000">ProfessorCompetencyAssignments</text>
<text text-anchor="start" x="839.5219" y="-515.2964" font-family="Helvetica,sans-Serif" font-size="11.00" fill="#000000">[table]</text>
<polygon fill="none" stroke="#000000" points="632,-488.1964 632,-507.1964 874,-507.1964 874,-488.1964 632,-488.1964"/>
<text text-anchor="start" x="635" y="-494.2964" font-family="Helvetica,sans-Serif" font-size="11.00" fill="#000000">...</text>
<polygon fill="#ffffff" stroke="transparent" points="632,-469.1964 632,-488.1964 734,-488.1964 734,-469.1964 632,-469.1964"/>
<polygon fill="none" stroke="#000000" points="632,-469.1964 632,-488.1964 734,-488.1964 734,-469.1964 632,-469.1964"/>
<text text-anchor="start" x="635" y="-475.2964" font-family="Helvetica,sans-Serif" font-size="11.00" fill="#000000">&lt; 7</text>
<polygon fill="#ffffff" stroke="transparent" points="734,-469.1964 734,-488.1964 812,-488.1964 812,-469.1964 734,-469.1964"/>
<polygon fill="none" stroke="#000000" points="734,-469.1964 734,-488.1964 812,-488.1964 812,-469.1964 734,-469.1964"/>
<text text-anchor="start" x="776.6105" y="-475.2964" font-family="Helvetica,sans-Serif" font-size="11.00" fill="#000000">0 rows</text>
<polygon fill="#ffffff" stroke="transparent" points="812,-469.1964 812,-488.1964 874,-488.1964 874,-469.1964 812,-469.1964"/>
<polygon fill="none" stroke="#000000" points="812,-469.1964 812,-488.1964 874,-488.1964 874,-469.1964 812,-469.1964"/>
<text text-anchor="start" x="855.4053" y="-475.2964" font-family="Helvetica,sans-Serif" font-size="11.00" fill="#000000">1 &gt;</text>
</a>
</g>
</g>
<!-- ProfessorCompetencyAssignments&#45;&gt;AspNetUsers -->
<g id="edge18" class="edge">
<title>ProfessorCompetencyAssignments:w&#45;&gt;AspNetUsers:e</title>
<path fill="none" stroke="#000000" d="M694.2304,-543.5859C665.1011,-564.0905 628.2413,-586.3598 591,-597.1964 492.8487,-625.7569 462.7149,-607.3679 361,-597.1964 271.6678,-588.2632 248.48,-584.6413 163,-557.1964 152.1681,-553.7186 140.934,-549.4 130.1044,-544.9199"/>
<polygon fill="#000000" stroke="#000000" points="699.7296,-539.6223 708.3246,-537.8652 702.9746,-537.2835 706.2196,-534.9447 706.2196,-534.9447 706.2196,-534.9447 702.9746,-537.2835 704.1147,-532.0242 699.7296,-539.6223 699.7296,-539.6223"/>
<ellipse fill="none" stroke="#000000" cx="697.1336" cy="-541.4934" rx="3.2" ry="3.2"/>
</g>
<!-- ProfessorCompetencyAssignments&#45;&gt;AspNetUsers -->
<g id="edge23" class="edge">
<title>ProfessorCompetencyAssignments:w&#45;&gt;AspNetUsers:e</title>
<path fill="none" stroke="#000000" d="M708.648,-544.1741C677.8728,-569.0236 634.699,-597.4807 591,-610.1964 492.8487,-638.7569 462.7149,-620.3679 361,-610.1964 271.6678,-601.2632 248.48,-597.6413 163,-570.1964 149.1493,-565.7494 134.6411,-559.9276 121.1619,-553.7835"/>
<polygon fill="#000000" stroke="#000000" points="713.6664,-539.9902 722.1163,-537.6324 716.7387,-537.4288 719.811,-534.8673 719.811,-534.8673 719.811,-534.8673 716.7387,-537.4288 717.5057,-532.1023 713.6664,-539.9902 713.6664,-539.9902"/>
<ellipse fill="none" stroke="#000000" cx="711.2085" cy="-542.0394" rx="3.2" ry="3.2"/>
</g>
<!-- ProfessorCompetencyAssignments&#45;&gt;Competencies -->
<g id="edge17" class="edge">
<title>ProfessorCompetencyAssignments:w&#45;&gt;Competencies:e</title>
<path fill="none" stroke="#000000" d="M713.1885,-545.8765C686.4155,-577.6644 651.185,-621.64 624,-663.1964 606.9113,-689.3191 617.7605,-709.1248 591,-725.1964 547.1836,-751.5112 409.8552,-740.2134 361,-725.1964 333.0153,-716.5945 335.7769,-688.1964 306.5,-688.1964"/>
<polygon fill="#000000" stroke="#000000" points="717.4617,-540.8425 725.3834,-537.0734 720.0503,-537.7931 722.6389,-534.7437 722.6389,-534.7437 722.6389,-534.7437 720.0503,-537.7931 719.8944,-532.4139 717.4617,-540.8425 717.4617,-540.8425"/>
<ellipse fill="none" stroke="#000000" cx="715.3908" cy="-543.2821" rx="3.2" ry="3.2"/>
</g>
<!-- ProfessorCompetencyAssignments&#45;&gt;TechnicalCareers -->
<g id="edge22" class="edge">
<title>ProfessorCompetencyAssignments:w&#45;&gt;TechnicalCareers:e</title>
<path fill="none" stroke="#000000" d="M664.8156,-460.4509C641.3058,-451.6801 615.5925,-443.673 591,-439.1964 490.4304,-420.8894 460.6414,-416.3713 361,-439.1964 339.1051,-444.2119 337.962,-461.1964 315.5,-461.1964"/>
<polygon fill="#000000" stroke="#000000" points="670.914,-462.8032 677.0824,-469.0411 674.646,-464.2428 678.378,-465.6823 678.378,-465.6823 678.378,-465.6823 674.646,-464.2428 679.6736,-462.3235 670.914,-462.8032 670.914,-462.8032"/>
<ellipse fill="none" stroke="#000000" cx="667.9284" cy="-461.6516" rx="3.2" ry="3.2"/>
</g>
<!-- ProfessorCompetencyAssignments&#45;&gt;EvaluationPeriods -->
<g id="edge19" class="edge">
<title>ProfessorCompetencyAssignments:w&#45;&gt;EvaluationPeriods:e</title>
<path fill="none" stroke="#000000" d="M657.9581,-539.4464C623.8786,-550.3164 584.7818,-559.1964 548,-559.1964"/>
<polygon fill="#000000" stroke="#000000" points="664.149,-537.3853 672.8766,-538.2739 667.9442,-536.1218 671.7394,-534.8582 671.7394,-534.8582 671.7394,-534.8582 667.9442,-536.1218 670.6022,-531.4425 664.149,-537.3853 664.149,-537.3853"/>
<ellipse fill="none" stroke="#000000" cx="661.1129" cy="-538.3962" rx="3.2" ry="3.2"/>
</g>
<!-- Professors -->
<g id="node13" class="node">
<title>Professors</title>
<g id="a_node13"><a xlink:href="../../tables/Professors.html" xlink:title="Professors" target="_top">
<polygon fill="#ffffff" stroke="transparent" points="195,-351.6964 195,-412.6964 296,-412.6964 296,-351.6964 195,-351.6964"/>
<polygon fill="#f5f5f5" stroke="transparent" points="195.5,-389.1964 195.5,-412.1964 296.5,-412.1964 296.5,-389.1964 195.5,-389.1964"/>
<polygon fill="none" stroke="#000000" points="195.5,-389.1964 195.5,-412.1964 296.5,-412.1964 296.5,-389.1964 195.5,-389.1964"/>
<text text-anchor="start" x="200.5" y="-397.7964" font-family="Helvetica,sans-Serif" font-weight="bold" font-size="11.00" fill="#000000">Professors</text>
<text text-anchor="start" x="262.0219" y="-397.2964" font-family="Helvetica,sans-Serif" font-size="11.00" fill="#000000">[table]</text>
<polygon fill="none" stroke="#000000" points="195.5,-370.1964 195.5,-389.1964 296.5,-389.1964 296.5,-370.1964 195.5,-370.1964"/>
<text text-anchor="start" x="198.5" y="-376.2964" font-family="Helvetica,sans-Serif" font-size="11.00" fill="#000000">...</text>
<polygon fill="#ffffff" stroke="transparent" points="195.5,-351.1964 195.5,-370.1964 226.5,-370.1964 226.5,-351.1964 195.5,-351.1964"/>
<polygon fill="none" stroke="#000000" points="195.5,-351.1964 195.5,-370.1964 226.5,-370.1964 226.5,-351.1964 195.5,-351.1964"/>
<text text-anchor="start" x="198.5" y="-357.2964" font-family="Helvetica,sans-Serif" font-size="11.00" fill="#000000">&lt; 1</text>
<polygon fill="#ffffff" stroke="transparent" points="226.5,-351.1964 226.5,-370.1964 269.5,-370.1964 269.5,-351.1964 226.5,-351.1964"/>
<polygon fill="none" stroke="#000000" points="226.5,-351.1964 226.5,-370.1964 269.5,-370.1964 269.5,-351.1964 226.5,-351.1964"/>
<text text-anchor="start" x="234.1105" y="-357.2964" font-family="Helvetica,sans-Serif" font-size="11.00" fill="#000000">0 rows</text>
<polygon fill="#ffffff" stroke="transparent" points="269.5,-351.1964 269.5,-370.1964 296.5,-370.1964 296.5,-351.1964 269.5,-351.1964"/>
<polygon fill="none" stroke="#000000" points="269.5,-351.1964 269.5,-370.1964 296.5,-370.1964 296.5,-351.1964 269.5,-351.1964"/>
<text text-anchor="start" x="277.9053" y="-357.2964" font-family="Helvetica,sans-Serif" font-size="11.00" fill="#000000">2 &gt;</text>
</a>
</g>
</g>
<!-- ProfessorCompetencyAssignments&#45;&gt;Professors -->
<g id="edge20" class="edge">
<title>ProfessorCompetencyAssignments:w&#45;&gt;Professors:e</title>
<path fill="none" stroke="#000000" d="M680.3074,-458.7457C653.0573,-444.8331 621.3353,-430.5035 591,-421.1964 559.4005,-411.5014 329.5533,-379.1964 296.5,-379.1964"/>
<polygon fill="#000000" stroke="#000000" points="686.2058,-461.8203 691.6358,-468.7106 689.7528,-463.6693 693.2998,-465.5182 693.2998,-465.5182 693.2998,-465.5182 689.7528,-463.6693 694.9639,-462.3259 686.2058,-461.8203 686.2058,-461.8203"/>
<ellipse fill="none" stroke="#000000" cx="683.3682" cy="-460.3411" rx="3.2" ry="3.2"/>
</g>
<!-- Subjects -->
<g id="node14" class="node">
<title>Subjects</title>
<g id="a_node14"><a xlink:href="../../tables/Subjects.html" xlink:title="Subjects" target="_top">
<polygon fill="#ffffff" stroke="transparent" points="431.5,-230.6964 431.5,-291.6964 520.5,-291.6964 520.5,-230.6964 431.5,-230.6964"/>
<polygon fill="#f5f5f5" stroke="transparent" points="432,-268.1964 432,-291.1964 521,-291.1964 521,-268.1964 432,-268.1964"/>
<polygon fill="none" stroke="#000000" points="432,-268.1964 432,-291.1964 521,-291.1964 521,-268.1964 432,-268.1964"/>
<text text-anchor="start" x="437" y="-276.7964" font-family="Helvetica,sans-Serif" font-weight="bold" font-size="11.00" fill="#000000">Subjects</text>
<text text-anchor="start" x="486.5219" y="-276.2964" font-family="Helvetica,sans-Serif" font-size="11.00" fill="#000000">[table]</text>
<polygon fill="none" stroke="#000000" points="432,-249.1964 432,-268.1964 521,-268.1964 521,-249.1964 432,-249.1964"/>
<text text-anchor="start" x="435" y="-255.2964" font-family="Helvetica,sans-Serif" font-size="11.00" fill="#000000">...</text>
<polygon fill="#ffffff" stroke="transparent" points="432,-230.1964 432,-249.1964 457,-249.1964 457,-230.1964 432,-230.1964"/>
<polygon fill="none" stroke="#000000" points="432,-230.1964 432,-249.1964 457,-249.1964 457,-230.1964 432,-230.1964"/>
<text text-anchor="start" x="435" y="-236.2964" font-family="Helvetica,sans-Serif" font-size="11.00" fill="#000000">&lt; 4</text>
<polygon fill="#ffffff" stroke="transparent" points="457,-230.1964 457,-249.1964 497,-249.1964 497,-230.1964 457,-230.1964"/>
<polygon fill="none" stroke="#000000" points="457,-230.1964 457,-249.1964 497,-249.1964 497,-230.1964 457,-230.1964"/>
<text text-anchor="start" x="461.6105" y="-236.2964" font-family="Helvetica,sans-Serif" font-size="11.00" fill="#000000">0 rows</text>
<polygon fill="#ffffff" stroke="transparent" points="497,-230.1964 497,-249.1964 521,-249.1964 521,-230.1964 497,-230.1964"/>
<polygon fill="none" stroke="#000000" points="497,-230.1964 497,-249.1964 521,-249.1964 521,-230.1964 497,-230.1964"/>
<text text-anchor="start" x="502.4053" y="-236.2964" font-family="Helvetica,sans-Serif" font-size="11.00" fill="#000000">3 &gt;</text>
</a>
</g>
</g>
<!-- ProfessorCompetencyAssignments&#45;&gt;Subjects -->
<g id="edge21" class="edge">
<title>ProfessorCompetencyAssignments:w&#45;&gt;Subjects:e</title>
<path fill="none" stroke="#000000" d="M699.8864,-455.9636C674.6791,-433.0885 645.4555,-403.625 624,-373.1964 603.9475,-344.7576 616.7181,-325.6366 591,-302.1964 573.7677,-286.4905 550.1118,-276.7119 528.7342,-270.6667"/>
<polygon fill="#000000" stroke="#000000" points="704.8026,-460.3452 708.3797,-468.3555 707.7888,-463.0066 710.775,-465.6679 710.775,-465.6679 710.775,-465.6679 707.7888,-463.0066 713.1702,-462.9804 704.8026,-460.3452 704.8026,-460.3452"/>
<ellipse fill="none" stroke="#000000" cx="702.4137" cy="-458.2161" rx="3.2" ry="3.2"/>
</g>
<!-- Professors&#45;&gt;AspNetUsers -->
<g id="edge24" class="edge">
<title>Professors:w&#45;&gt;AspNetUsers:e</title>
<path fill="none" stroke="#000000" d="M184.9343,-379.9245C133.1707,-387.1005 97.4101,-445.7228 79.1308,-484.5896"/>
<polygon fill="#000000" stroke="#000000" points="194.4268,-375.2609 194.9769,-383.2419 193.3807,-383.352 192.8306,-375.3709 194.4268,-375.2609"/>
<polyline fill="none" stroke="#000000" points="195.5,-379.1964 191.5095,-379.4714 "/>
<ellipse fill="none" stroke="#000000" cx="188.317" cy="-379.6915" rx="3.2" ry="3.2"/>
</g>
<!-- Subjects&#45;&gt;AspNetUsers -->
<g id="edge44" class="edge">
<title>Subjects:w&#45;&gt;AspNetUsers:e</title>
<path fill="none" stroke="#000000" d="M408.7571,-249.4633C340.2049,-244.224 234.1086,-248.9743 163,-302.1964 103.825,-346.4866 79.1736,-435.277 69.9264,-484.5056"/>
<polygon fill="#000000" stroke="#000000" points="415.2443,-250.0465 422.8898,-254.3483 419.2282,-250.4046 423.2122,-250.7628 423.2122,-250.7628 423.2122,-250.7628 419.2282,-250.4046 423.5345,-247.1773 415.2443,-250.0465 415.2443,-250.0465"/>
<ellipse fill="none" stroke="#000000" cx="412.0572" cy="-249.7599" rx="3.2" ry="3.2"/>
</g>
<!-- Subjects&#45;&gt;AspNetUsers -->
<g id="edge47" class="edge">
<title>Subjects:w&#45;&gt;AspNetUsers:e</title>
<path fill="none" stroke="#000000" d="M408.7571,-259.1909C340.2049,-257.224 234.1086,-261.9743 163,-315.1964 107.2203,-356.9454 82.1161,-438.2345 71.6739,-484.6796"/>
<polygon fill="#000000" stroke="#000000" points="415.2175,-259.4255 423.0815,-263.3135 419.2148,-259.5707 423.2122,-259.7159 423.2122,-259.7159 423.2122,-259.7159 419.2148,-259.5707 423.3429,-256.1183 415.2175,-259.4255 415.2175,-259.4255"/>
<ellipse fill="none" stroke="#000000" cx="412.0196" cy="-259.3093" rx="3.2" ry="3.2"/>
</g>
<!-- Subjects&#45;&gt;TechnicalCareers -->
<g id="edge46" class="edge">
<title>Subjects:w&#45;&gt;TechnicalCareers:e</title>
<path fill="none" stroke="#000000" d="M409.5276,-273.0667C391.711,-279.1438 373.8515,-288.326 361,-302.1964 311.0434,-356.1135 389.0032,-461.1964 315.5,-461.1964"/>
<polygon fill="#000000" stroke="#000000" points="415.7207,-271.2104 424.4175,-272.3619 419.5523,-270.062 423.3839,-268.9135 423.3839,-268.9135 423.3839,-268.9135 419.5523,-270.062 422.3502,-265.4651 415.7207,-271.2104 415.7207,-271.2104"/>
<ellipse fill="none" stroke="#000000" cx="412.6554" cy="-272.1292" rx="3.2" ry="3.2"/>
</g>
<!-- Subjects&#45;&gt;Professors -->
<g id="edge45" class="edge">
<title>Subjects:w&#45;&gt;Professors:e</title>
<path fill="none" stroke="#000000" d="M409.5669,-278.1648C392.8511,-284.1921 375.5435,-292.0751 361,-302.1964 324.3577,-327.697 341.1423,-379.1964 296.5,-379.1964"/>
<polygon fill="#000000" stroke="#000000" points="415.81,-276.0723 424.5394,-276.9433 419.6026,-274.8011 423.3953,-273.5299 423.3953,-273.5299 423.3953,-273.5299 419.6026,-274.8011 422.2512,-270.1165 415.81,-276.0723 415.81,-276.0723"/>
<ellipse fill="none" stroke="#000000" cx="412.7759" cy="-277.0893" rx="3.2" ry="3.2"/>
</g>
<!-- QuestionResponses -->
<g id="node15" class="node">
<title>QuestionResponses</title>
<g id="a_node15"><a xlink:href="../../tables/QuestionResponses.html" xlink:title="QuestionResponses" target="_top">
<polygon fill="#ffffff" stroke="transparent" points="1298,-218.6964 1298,-279.6964 1453,-279.6964 1453,-218.6964 1298,-218.6964"/>
<polygon fill="#f5f5f5" stroke="transparent" points="1298.5,-256.1964 1298.5,-279.1964 1453.5,-279.1964 1453.5,-256.1964 1298.5,-256.1964"/>
<polygon fill="none" stroke="#000000" points="1298.5,-256.1964 1298.5,-279.1964 1453.5,-279.1964 1453.5,-256.1964 1298.5,-256.1964"/>
<text text-anchor="start" x="1303.5" y="-264.7964" font-family="Helvetica,sans-Serif" font-weight="bold" font-size="11.00" fill="#000000">QuestionResponses</text>
<text text-anchor="start" x="1419.0219" y="-264.2964" font-family="Helvetica,sans-Serif" font-size="11.00" fill="#000000">[table]</text>
<polygon fill="none" stroke="#000000" points="1298.5,-237.1964 1298.5,-256.1964 1453.5,-256.1964 1453.5,-237.1964 1298.5,-237.1964"/>
<text text-anchor="start" x="1301.5" y="-243.2964" font-family="Helvetica,sans-Serif" font-size="11.00" fill="#000000">...</text>
<polygon fill="#ffffff" stroke="transparent" points="1298.5,-218.1964 1298.5,-237.1964 1361.5,-237.1964 1361.5,-218.1964 1298.5,-218.1964"/>
<polygon fill="none" stroke="#000000" points="1298.5,-218.1964 1298.5,-237.1964 1361.5,-237.1964 1361.5,-218.1964 1298.5,-218.1964"/>
<text text-anchor="start" x="1301.5" y="-224.2964" font-family="Helvetica,sans-Serif" font-size="11.00" fill="#000000">&lt; 4</text>
<polygon fill="#ffffff" stroke="transparent" points="1361.5,-218.1964 1361.5,-237.1964 1420.5,-237.1964 1420.5,-218.1964 1361.5,-218.1964"/>
<polygon fill="none" stroke="#000000" points="1361.5,-218.1964 1361.5,-237.1964 1420.5,-237.1964 1420.5,-218.1964 1361.5,-218.1964"/>
<text text-anchor="start" x="1385.1105" y="-224.2964" font-family="Helvetica,sans-Serif" font-size="11.00" fill="#000000">0 rows</text>
<polygon fill="#ffffff" stroke="transparent" points="1420.5,-218.1964 1420.5,-237.1964 1453.5,-237.1964 1453.5,-218.1964 1420.5,-218.1964"/>
<polygon fill="none" stroke="#000000" points="1420.5,-218.1964 1420.5,-237.1964 1453.5,-237.1964 1453.5,-218.1964 1420.5,-218.1964"/>
<text text-anchor="start" x="1444.3862" y="-224.2964" font-family="Helvetica,sans-Serif" font-size="11.00" fill="#000000"> &#160;</text>
</a>
</g>
</g>
<!-- QuestionResponses&#45;&gt;AspNetUsers -->
<g id="edge25" class="edge">
<title>QuestionResponses:w&#45;&gt;AspNetUsers:e</title>
<path fill="none" stroke="#000000" d="M1355.4736,-201.2265C1335.9736,-163.3698 1302.6039,-113.1841 1257,-89.1964 1058.4684,15.2316 977.3212,-62.1964 753,-62.1964 753,-62.1964 753,-62.1964 476,-62.1964 333.5488,-62.1964 265.4335,-32.2028 163,-131.1964 112.1668,-180.3226 79.5763,-398.75 68.8735,-484.5324"/>
<polygon fill="#000000" stroke="#000000" points="1358.495,-207.3666 1358.7971,-216.1341 1360.2611,-210.9556 1362.0272,-214.5445 1362.0272,-214.5445 1362.0272,-214.5445 1360.2611,-210.9556 1365.2573,-212.955 1358.495,-207.3666 1358.495,-207.3666"/>
<ellipse fill="none" stroke="#000000" cx="1357.0821" cy="-204.4954" rx="3.2" ry="3.2"/>
</g>
<!-- QuestionResponses&#45;&gt;AspNetUsers -->
<g id="edge28" class="edge">
<title>QuestionResponses:w&#45;&gt;AspNetUsers:e</title>
<path fill="none" stroke="#000000" d="M1349.9674,-201.8144C1329.967,-167.6861 1298.5651,-124.0597 1257,-102.1964 1058.4684,2.2316 977.3212,-75.1964 753,-75.1964 753,-75.1964 753,-75.1964 476,-75.1964 333.5488,-75.1964 265.4335,-45.2028 163,-144.1964 113.4592,-192.0736 81.2452,-400.753 69.7322,-484.4216"/>
<polygon fill="#000000" stroke="#000000" points="1353.1307,-207.4023 1353.9391,-216.1377 1355.1013,-210.8833 1357.0719,-214.3642 1357.0719,-214.3642 1357.0719,-214.3642 1355.1013,-210.8833 1360.2048,-212.5906 1353.1307,-207.4023 1353.1307,-207.4023"/>
<ellipse fill="none" stroke="#000000" cx="1351.5543" cy="-204.6176" rx="3.2" ry="3.2"/>
</g>
<!-- QuestionResponses&#45;&gt;FormQuestions -->
<g id="edge26" class="edge">
<title>QuestionResponses:w&#45;&gt;FormQuestions:e</title>
<path fill="none" stroke="#000000" d="M1360.0315,-297.6717C1342.172,-346.8184 1308.4727,-422.2663 1257,-470.1964 1001.4808,-708.1296 889.145,-791.1964 540,-791.1964"/>
<polygon fill="#000000" stroke="#000000" points="1362.2062,-291.4854 1368.2555,-285.132 1363.5327,-287.7117 1364.8593,-283.9381 1364.8593,-283.9381 1364.8593,-283.9381 1363.5327,-287.7117 1361.463,-282.7442 1362.2062,-291.4854 1362.2062,-291.4854"/>
<ellipse fill="none" stroke="#000000" cx="1361.1449" cy="-294.5043" rx="3.2" ry="3.2"/>
</g>
<!-- StudentCompetencyEvaluations -->
<g id="node16" class="node">
<title>StudentCompetencyEvaluations</title>
<g id="a_node16"><a xlink:href="../../tables/StudentCompetencyEvaluations.html" xlink:title="StudentCompetencyEvaluations" target="_top">
<polygon fill="#ffffff" stroke="transparent" points="923,-106.1964 923,-460.1964 1249,-460.1964 1249,-106.1964 923,-106.1964"/>
<polygon fill="#f5f5f5" stroke="transparent" points="925,-435.1964 925,-458.1964 1247,-458.1964 1247,-435.1964 925,-435.1964"/>
<polygon fill="none" stroke="#000000" points="925,-435.1964 925,-458.1964 1247,-458.1964 1247,-435.1964 925,-435.1964"/>
<text text-anchor="start" x="930" y="-443.7964" font-family="Helvetica,sans-Serif" font-weight="bold" font-size="11.00" fill="#000000">StudentCompetencyEvaluations</text>
<text text-anchor="start" x="1212.0437" y="-443.2964" font-family="Helvetica,sans-Serif" font-size="11.00" fill="#000000">[table]</text>
<polygon fill="none" stroke="#000000" points="925,-413.1964 925,-435.1964 1153,-435.1964 1153,-413.1964 925,-413.1964"/>
<image xlink:href="../../images/primaryKeys.png" width="11px" height="12px" preserveAspectRatio="xMinYMin meet" x="930" y="-430.196"/>
<text text-anchor="start" x="945" y="-420.2964" font-family="Helvetica,sans-Serif" font-size="11.00" fill="#000000">Id</text>
<polygon fill="none" stroke="#000000" points="1153,-413.1964 1153,-435.1964 1247,-435.1964 1247,-413.1964 1153,-413.1964"/>
<text text-anchor="start" x="1155.9758" y="-420.8964" font-family="Helvetica,sans-Serif" font-size="11.00" fill="#000000">uuid[2147483647]</text>
<polygon fill="#ffffff" stroke="transparent" points="925,-391.1964 925,-413.1964 1153,-413.1964 1153,-391.1964 925,-391.1964"/>
<polygon fill="none" stroke="#000000" points="925,-391.1964 925,-413.1964 1153,-413.1964 1153,-391.1964 925,-391.1964"/>
<image xlink:href="../../images/foreignKeys.png" width="11px" height="12px" preserveAspectRatio="xMinYMin meet" x="930" y="-408.196"/>
<text text-anchor="start" x="945" y="-398.2964" font-family="Helvetica,sans-Serif" font-size="11.00" fill="#000000">ProfessorCompetencyAssignmentId</text>
<polygon fill="none" stroke="#000000" points="1153,-391.1964 1153,-413.1964 1247,-413.1964 1247,-391.1964 1153,-391.1964"/>
<text text-anchor="start" x="1155.9758" y="-398.8964" font-family="Helvetica,sans-Serif" font-size="11.00" fill="#000000">uuid[2147483647]</text>
<polygon fill="#ffffff" stroke="transparent" points="925,-369.1964 925,-391.1964 1153,-391.1964 1153,-369.1964 925,-369.1964"/>
<polygon fill="none" stroke="#000000" points="925,-369.1964 925,-391.1964 1153,-391.1964 1153,-369.1964 925,-369.1964"/>
<image xlink:href="../../images/foreignKeys.png" width="11px" height="12px" preserveAspectRatio="xMinYMin meet" x="930" y="-386.196"/>
<text text-anchor="start" x="945" y="-376.2964" font-family="Helvetica,sans-Serif" font-size="11.00" fill="#000000">StudentId</text>
<polygon fill="none" stroke="#000000" points="1153,-369.1964 1153,-391.1964 1247,-391.1964 1247,-369.1964 1153,-369.1964"/>
<text text-anchor="start" x="1156" y="-376.8964" font-family="Helvetica,sans-Serif" font-size="11.00" fill="#000000">text[2147483647]</text>
<polygon fill="none" stroke="#000000" points="925,-347.1964 925,-369.1964 1153,-369.1964 1153,-347.1964 925,-347.1964"/>
<text text-anchor="start" x="945" y="-354.2964" font-family="Helvetica,sans-Serif" font-size="11.00" fill="#000000">Status</text>
<polygon fill="none" stroke="#000000" points="1153,-347.1964 1153,-369.1964 1247,-369.1964 1247,-347.1964 1153,-347.1964"/>
<text text-anchor="start" x="1156" y="-354.8964" font-family="Helvetica,sans-Serif" font-size="11.00" fill="#000000">text[2147483647]</text>
<polygon fill="none" stroke="#000000" points="925,-325.1964 925,-347.1964 1153,-347.1964 1153,-325.1964 925,-325.1964"/>
<text text-anchor="start" x="945" y="-332.2964" font-family="Helvetica,sans-Serif" font-size="11.00" fill="#000000">CompletedAt</text>
<polygon fill="none" stroke="#000000" points="1153,-325.1964 1153,-347.1964 1247,-347.1964 1247,-325.1964 1153,-325.1964"/>
<text text-anchor="start" x="1156" y="-332.8964" font-family="Helvetica,sans-Serif" font-size="11.00" fill="#000000">timestamptz[35,6]</text>
<polygon fill="none" stroke="#000000" points="925,-303.1964 925,-325.1964 1153,-325.1964 1153,-303.1964 925,-303.1964"/>
<text text-anchor="start" x="945" y="-310.2964" font-family="Helvetica,sans-Serif" font-size="11.00" fill="#000000">Comments</text>
<polygon fill="none" stroke="#000000" points="1153,-303.1964 1153,-325.1964 1247,-325.1964 1247,-303.1964 1153,-303.1964"/>
<text text-anchor="start" x="1156" y="-310.8964" font-family="Helvetica,sans-Serif" font-size="11.00" fill="#000000">text[2147483647]</text>
<polygon fill="none" stroke="#000000" points="925,-281.1964 925,-303.1964 1153,-303.1964 1153,-281.1964 925,-281.1964"/>
<text text-anchor="start" x="945" y="-288.2964" font-family="Helvetica,sans-Serif" font-size="11.00" fill="#000000">FinalScore</text>
<polygon fill="none" stroke="#000000" points="1153,-281.1964 1153,-303.1964 1247,-303.1964 1247,-281.1964 1153,-281.1964"/>
<text text-anchor="start" x="1156" y="-288.8964" font-family="Helvetica,sans-Serif" font-size="11.00" fill="#000000">numeric[0]</text>
<polygon fill="none" stroke="#000000" points="925,-259.1964 925,-281.1964 1153,-281.1964 1153,-259.1964 925,-259.1964"/>
<text text-anchor="start" x="945" y="-266.2964" font-family="Helvetica,sans-Serif" font-size="11.00" fill="#000000">IsActive</text>
<polygon fill="none" stroke="#000000" points="1153,-259.1964 1153,-281.1964 1247,-281.1964 1247,-259.1964 1153,-259.1964"/>
<text text-anchor="start" x="1156" y="-266.8964" font-family="Helvetica,sans-Serif" font-size="11.00" fill="#000000">bool[1]</text>
<polygon fill="none" stroke="#000000" points="925,-237.1964 925,-259.1964 1153,-259.1964 1153,-237.1964 925,-237.1964"/>
<text text-anchor="start" x="945" y="-244.2964" font-family="Helvetica,sans-Serif" font-size="11.00" fill="#000000">CreatedAt</text>
<polygon fill="none" stroke="#000000" points="1153,-237.1964 1153,-259.1964 1247,-259.1964 1247,-237.1964 1153,-237.1964"/>
<text text-anchor="start" x="1156" y="-244.8964" font-family="Helvetica,sans-Serif" font-size="11.00" fill="#000000">timestamptz[35,6]</text>
<polygon fill="none" stroke="#000000" points="925,-215.1964 925,-237.1964 1153,-237.1964 1153,-215.1964 925,-215.1964"/>
<text text-anchor="start" x="945" y="-222.2964" font-family="Helvetica,sans-Serif" font-size="11.00" fill="#000000">UpdatedAt</text>
<polygon fill="none" stroke="#000000" points="1153,-215.1964 1153,-237.1964 1247,-237.1964 1247,-215.1964 1153,-215.1964"/>
<text text-anchor="start" x="1156" y="-222.8964" font-family="Helvetica,sans-Serif" font-size="11.00" fill="#000000">timestamptz[35,6]</text>
<polygon fill="#ffffff" stroke="transparent" points="925,-193.1964 925,-215.1964 1153,-215.1964 1153,-193.1964 925,-193.1964"/>
<polygon fill="none" stroke="#000000" points="925,-193.1964 925,-215.1964 1153,-215.1964 1153,-193.1964 925,-193.1964"/>
<image xlink:href="../../images/foreignKeys.png" width="11px" height="12px" preserveAspectRatio="xMinYMin meet" x="930" y="-210.196"/>
<text text-anchor="start" x="945" y="-200.2964" font-family="Helvetica,sans-Serif" font-size="11.00" fill="#000000">CreatedByUserId</text>
<polygon fill="none" stroke="#000000" points="1153,-193.1964 1153,-215.1964 1247,-215.1964 1247,-193.1964 1153,-193.1964"/>
<text text-anchor="start" x="1156" y="-200.8964" font-family="Helvetica,sans-Serif" font-size="11.00" fill="#000000">text[2147483647]</text>
<polygon fill="#ffffff" stroke="transparent" points="925,-171.1964 925,-193.1964 1153,-193.1964 1153,-171.1964 925,-171.1964"/>
<polygon fill="none" stroke="#000000" points="925,-171.1964 925,-193.1964 1153,-193.1964 1153,-171.1964 925,-171.1964"/>
<image xlink:href="../../images/foreignKeys.png" width="11px" height="12px" preserveAspectRatio="xMinYMin meet" x="930" y="-188.196"/>
<text text-anchor="start" x="945" y="-178.2964" font-family="Helvetica,sans-Serif" font-size="11.00" fill="#000000">UpdatedByUserId</text>
<polygon fill="none" stroke="#000000" points="1153,-171.1964 1153,-193.1964 1247,-193.1964 1247,-171.1964 1153,-171.1964"/>
<text text-anchor="start" x="1156" y="-178.8964" font-family="Helvetica,sans-Serif" font-size="11.00" fill="#000000">text[2147483647]</text>
<polygon fill="none" stroke="#000000" points="925,-149.1964 925,-171.1964 1153,-171.1964 1153,-149.1964 925,-149.1964"/>
<text text-anchor="start" x="945" y="-156.2964" font-family="Helvetica,sans-Serif" font-size="11.00" fill="#000000">CompetencyLevel</text>
<polygon fill="none" stroke="#000000" points="1153,-149.1964 1153,-171.1964 1247,-171.1964 1247,-149.1964 1153,-149.1964"/>
<text text-anchor="start" x="1156" y="-156.8964" font-family="Helvetica,sans-Serif" font-size="11.00" fill="#000000">int4[10]</text>
<polygon fill="#ffffff" stroke="transparent" points="925,-127.1964 925,-149.1964 1153,-149.1964 1153,-127.1964 925,-127.1964"/>
<polygon fill="none" stroke="#000000" points="925,-127.1964 925,-149.1964 1153,-149.1964 1153,-127.1964 925,-127.1964"/>
<image xlink:href="../../images/foreignKeys.png" width="11px" height="12px" preserveAspectRatio="xMinYMin meet" x="930" y="-144.196"/>
<text text-anchor="start" x="945" y="-134.2964" font-family="Helvetica,sans-Serif" font-size="11.00" fill="#000000">SubjectId</text>
<polygon fill="none" stroke="#000000" points="1153,-127.1964 1153,-149.1964 1247,-149.1964 1247,-127.1964 1153,-127.1964"/>
<text text-anchor="start" x="1155.9758" y="-134.8964" font-family="Helvetica,sans-Serif" font-size="11.00" fill="#000000">uuid[2147483647]</text>
<polygon fill="#ffffff" stroke="transparent" points="925,-108.1964 925,-127.1964 1030,-127.1964 1030,-108.1964 925,-108.1964"/>
<polygon fill="none" stroke="#000000" points="925,-108.1964 925,-127.1964 1030,-127.1964 1030,-108.1964 925,-108.1964"/>
<text text-anchor="start" x="928" y="-114.2964" font-family="Helvetica,sans-Serif" font-size="11.00" fill="#000000">&lt; 5</text>
<polygon fill="#ffffff" stroke="transparent" points="1030,-108.1964 1030,-127.1964 1153,-127.1964 1153,-108.1964 1030,-108.1964"/>
<polygon fill="none" stroke="#000000" points="1030,-108.1964 1030,-127.1964 1153,-127.1964 1153,-108.1964 1030,-108.1964"/>
<text text-anchor="start" x="1117.6105" y="-114.2964" font-family="Helvetica,sans-Serif" font-size="11.00" fill="#000000">0 rows</text>
<polygon fill="#ffffff" stroke="transparent" points="1153,-108.1964 1153,-127.1964 1247,-127.1964 1247,-108.1964 1153,-108.1964"/>
<polygon fill="none" stroke="#000000" points="1153,-108.1964 1153,-127.1964 1247,-127.1964 1247,-108.1964 1153,-108.1964"/>
<text text-anchor="start" x="1228.4053" y="-114.2964" font-family="Helvetica,sans-Serif" font-size="11.00" fill="#000000">1 &gt;</text>
<polygon fill="none" stroke="#000000" stroke-width="2" points="924,-107.1964 924,-459.1964 1248,-459.1964 1248,-107.1964 924,-107.1964"/>
</a>
</g>
</g>
<!-- QuestionResponses&#45;&gt;StudentCompetencyEvaluations -->
<g id="edge27" class="edge">
<title>QuestionResponses:w&#45;&gt;StudentCompetencyEvaluations:e</title>
<path fill="none" stroke="#000000" d="M1362.6136,-297.6895C1345.5676,-349.4807 1310.0502,-424.1964 1247,-424.1964"/>
<polygon fill="#000000" stroke="#000000" points="1364.565,-291.4104 1370.377,-284.8392 1365.7521,-287.5906 1366.9392,-283.7708 1366.9392,-283.7708 1366.9392,-283.7708 1365.7521,-287.5906 1363.5014,-282.7024 1364.565,-291.4104 1364.565,-291.4104"/>
<ellipse fill="none" stroke="#000000" cx="1363.6153" cy="-294.4662" rx="3.2" ry="3.2"/>
</g>
<!-- StudentCompetencyEvaluations&#45;&gt;AspNetUsers -->
<g id="edge29" class="edge">
<title>StudentCompetencyEvaluations:w&#45;&gt;AspNetUsers:e</title>
<path fill="none" stroke="#000000" d="M910.8479,-200.6605C901.517,-195.2086 897.1102,-184.9836 882,-181.1964 758.9182,-150.3471 195.5623,-175.0826 163,-200.1964 117.2377,-235.4907 83.2845,-409.5054 70.5264,-484.5974"/>
<polygon fill="#000000" stroke="#000000" points="917.2386,-202.2572 924.1273,-207.689 921.1193,-203.2268 925,-204.1964 925,-204.1964 925,-204.1964 921.1193,-203.2268 925.8727,-200.7038 917.2386,-202.2572 917.2386,-202.2572"/>
<ellipse fill="none" stroke="#000000" cx="914.134" cy="-201.4815" rx="3.2" ry="3.2"/>
</g>
<!-- StudentCompetencyEvaluations&#45;&gt;AspNetUsers -->
<g id="edge33" class="edge">
<title>StudentCompetencyEvaluations:w&#45;&gt;AspNetUsers:e</title>
<path fill="none" stroke="#000000" d="M910.8374,-179.2809C901.6106,-174.9711 896.4408,-167.0969 882,-164.1964 654.9782,-118.5972 592.4708,-158.9145 361,-165.1964 272.9203,-167.5868 231.9621,-120.3514 163,-175.1964 113.9726,-214.1875 81.355,-405.3733 69.7325,-484.6522"/>
<polygon fill="#000000" stroke="#000000" points="917.1643,-180.5833 924.2741,-185.7225 921.0822,-181.3899 925,-182.1964 925,-182.1964 925,-182.1964 921.0822,-181.3899 925.7259,-178.6703 917.1643,-180.5833 917.1643,-180.5833"/>
<ellipse fill="none" stroke="#000000" cx="914.03" cy="-179.9381" rx="3.2" ry="3.2"/>
</g>
<!-- StudentCompetencyEvaluations&#45;&gt;ProfessorCompetencyAssignments -->
<g id="edge30" class="edge">
<title>StudentCompetencyEvaluations:w&#45;&gt;ProfessorCompetencyAssignments:e</title>
<path fill="none" stroke="#000000" d="M910.5212,-403.0544C862.9788,-408.606 817.9186,-440.0205 788.269,-465.6453"/>
<polygon fill="#000000" stroke="#000000" points="917.014,-402.6697 925.213,-405.7901 921.007,-402.4331 925,-402.1964 925,-402.1964 925,-402.1964 921.007,-402.4331 924.787,-398.6027 917.014,-402.6697 917.014,-402.6697"/>
<ellipse fill="none" stroke="#000000" cx="913.8196" cy="-402.859" rx="3.2" ry="3.2"/>
</g>
<!-- StudentCompetencyEvaluations&#45;&gt;Subjects -->
<g id="edge32" class="edge">
<title>StudentCompetencyEvaluations:w&#45;&gt;Subjects:e</title>
<path fill="none" stroke="#000000" d="M910.6399,-140.8539C878.0139,-156.0702 924.9677,-232.5383 882,-263.1964 826.8449,-302.5504 625.5601,-281.6686 528.7311,-268.828"/>
<polygon fill="#000000" stroke="#000000" points="917.1336,-139.6522 925.6551,-141.7363 921.0668,-138.9243 925,-138.1964 925,-138.1964 925,-138.1964 921.0668,-138.9243 924.3449,-134.6565 917.1336,-139.6522 917.1336,-139.6522"/>
<ellipse fill="none" stroke="#000000" cx="913.987" cy="-140.2345" rx="3.2" ry="3.2"/>
</g>
<!-- Students -->
<g id="node17" class="node">
<title>Students</title>
<g id="a_node17"><a xlink:href="../../tables/Students.html" xlink:title="Students" target="_top">
<polygon fill="#ffffff" stroke="transparent" points="431,-312.6964 431,-373.6964 521,-373.6964 521,-312.6964 431,-312.6964"/>
<polygon fill="#f5f5f5" stroke="transparent" points="431,-350.1964 431,-373.1964 521,-373.1964 521,-350.1964 431,-350.1964"/>
<polygon fill="none" stroke="#000000" points="431,-350.1964 431,-373.1964 521,-373.1964 521,-350.1964 431,-350.1964"/>
<text text-anchor="start" x="436" y="-358.7964" font-family="Helvetica,sans-Serif" font-weight="bold" font-size="11.00" fill="#000000">Students</text>
<text text-anchor="start" x="486.5219" y="-358.2964" font-family="Helvetica,sans-Serif" font-size="11.00" fill="#000000">[table]</text>
<polygon fill="none" stroke="#000000" points="431,-331.1964 431,-350.1964 521,-350.1964 521,-331.1964 431,-331.1964"/>
<text text-anchor="start" x="434" y="-337.2964" font-family="Helvetica,sans-Serif" font-size="11.00" fill="#000000">...</text>
<polygon fill="#ffffff" stroke="transparent" points="431,-312.1964 431,-331.1964 457,-331.1964 457,-312.1964 431,-312.1964"/>
<polygon fill="none" stroke="#000000" points="431,-312.1964 431,-331.1964 457,-331.1964 457,-312.1964 431,-312.1964"/>
<text text-anchor="start" x="434" y="-318.2964" font-family="Helvetica,sans-Serif" font-size="11.00" fill="#000000">&lt; 2</text>
<polygon fill="#ffffff" stroke="transparent" points="457,-312.1964 457,-331.1964 497,-331.1964 497,-312.1964 457,-312.1964"/>
<polygon fill="none" stroke="#000000" points="457,-312.1964 457,-331.1964 497,-331.1964 497,-312.1964 457,-312.1964"/>
<text text-anchor="start" x="461.6105" y="-318.2964" font-family="Helvetica,sans-Serif" font-size="11.00" fill="#000000">0 rows</text>
<polygon fill="#ffffff" stroke="transparent" points="497,-312.1964 497,-331.1964 521,-331.1964 521,-312.1964 497,-312.1964"/>
<polygon fill="none" stroke="#000000" points="497,-312.1964 497,-331.1964 521,-331.1964 521,-312.1964 497,-312.1964"/>
<text text-anchor="start" x="502.4053" y="-318.2964" font-family="Helvetica,sans-Serif" font-size="11.00" fill="#000000">3 &gt;</text>
</a>
</g>
</g>
<!-- StudentCompetencyEvaluations&#45;&gt;Students -->
<g id="edge31" class="edge">
<title>StudentCompetencyEvaluations:w&#45;&gt;Students:e</title>
<path fill="none" stroke="#000000" d="M910.5041,-380.2275C788.5114,-380.7517 752.0463,-387.5489 624,-373.1964 592.2143,-369.6336 557.1118,-362.6532 529.0727,-356.3218"/>
<polygon fill="#000000" stroke="#000000" points="917,-380.2136 925.0077,-383.7964 921,-380.205 925,-380.1964 925,-380.1964 925,-380.1964 921,-380.205 924.9923,-376.5964 917,-380.2136 917,-380.2136"/>
<ellipse fill="none" stroke="#000000" cx="913.8" cy="-380.2205" rx="3.2" ry="3.2"/>
</g>
<!-- Students&#45;&gt;AspNetUsers -->
<g id="edge39" class="edge">
<title>Students:w&#45;&gt;AspNetUsers:e</title>
<path fill="none" stroke="#000000" d="M412.3156,-324.7621C345.3348,-309.2689 239.2687,-296.1231 163,-341.1964 110.6121,-372.1566 84.3287,-442.213 72.7564,-484.62"/>
<polygon fill="#000000" stroke="#000000" points="422.8756,-323.184 421.0077,-330.9629 419.4519,-330.5893 421.3198,-322.8104 422.8756,-323.184"/>
<polyline fill="none" stroke="#000000" points="422.7195,-327.2603 418.8301,-326.3263 "/>
<ellipse fill="none" stroke="#000000" cx="415.7185" cy="-325.5791" rx="3.2" ry="3.2"/>
</g>
<!-- Students&#45;&gt;TechnicalCareers -->
<g id="edge38" class="edge">
<title>Students:w&#45;&gt;TechnicalCareers:e</title>
<path fill="none" stroke="#000000" d="M410.2617,-380.705C393.6638,-391.1485 376.2392,-402.9955 361,-415.1964 338.5521,-433.1687 344.2561,-461.1964 315.5,-461.1964"/>
<polygon fill="#000000" stroke="#000000" points="415.9334,-377.2082 424.6325,-376.0741 419.3383,-375.1089 422.7432,-373.0097 422.7432,-373.0097 422.7432,-373.0097 419.3383,-375.1089 420.8539,-369.9453 415.9334,-377.2082 415.9334,-377.2082"/>
<ellipse fill="none" stroke="#000000" cx="413.2095" cy="-378.8876" rx="3.2" ry="3.2"/>
</g>
<!-- StudentEvaluationReport -->
<g id="node18" class="node">
<title>StudentEvaluationReport</title>
<g id="a_node18"><a xlink:href="../../tables/StudentEvaluationReport.html" xlink:title="StudentEvaluationReport" target="_top">
<polygon fill="#ffffff" stroke="transparent" points="661.5,-301.6964 661.5,-362.6964 844.5,-362.6964 844.5,-301.6964 661.5,-301.6964"/>
<polygon fill="#f5f5f5" stroke="transparent" points="662,-339.1964 662,-362.1964 845,-362.1964 845,-339.1964 662,-339.1964"/>
<polygon fill="none" stroke="#000000" points="662,-339.1964 662,-362.1964 845,-362.1964 845,-339.1964 662,-339.1964"/>
<text text-anchor="start" x="667" y="-347.7964" font-family="Helvetica,sans-Serif" font-weight="bold" font-size="11.00" fill="#000000">StudentEvaluationReport</text>
<text text-anchor="start" x="810.5219" y="-347.2964" font-family="Helvetica,sans-Serif" font-size="11.00" fill="#000000">[table]</text>
<polygon fill="none" stroke="#000000" points="662,-320.1964 662,-339.1964 845,-339.1964 845,-320.1964 662,-320.1964"/>
<text text-anchor="start" x="665" y="-326.2964" font-family="Helvetica,sans-Serif" font-size="11.00" fill="#000000">...</text>
<polygon fill="#ffffff" stroke="transparent" points="662,-301.1964 662,-320.1964 739,-320.1964 739,-301.1964 662,-301.1964"/>
<polygon fill="none" stroke="#000000" points="662,-301.1964 662,-320.1964 739,-320.1964 739,-301.1964 662,-301.1964"/>
<text text-anchor="start" x="665" y="-307.2964" font-family="Helvetica,sans-Serif" font-size="11.00" fill="#000000">&lt; 4</text>
<polygon fill="#ffffff" stroke="transparent" points="739,-301.1964 739,-320.1964 805,-320.1964 805,-301.1964 739,-301.1964"/>
<polygon fill="none" stroke="#000000" points="739,-301.1964 739,-320.1964 805,-320.1964 805,-301.1964 739,-301.1964"/>
<text text-anchor="start" x="769.6105" y="-307.2964" font-family="Helvetica,sans-Serif" font-size="11.00" fill="#000000">0 rows</text>
<polygon fill="#ffffff" stroke="transparent" points="805,-301.1964 805,-320.1964 845,-320.1964 845,-301.1964 805,-301.1964"/>
<polygon fill="none" stroke="#000000" points="805,-301.1964 805,-320.1964 845,-320.1964 845,-301.1964 805,-301.1964"/>
<text text-anchor="start" x="835.8862" y="-307.2964" font-family="Helvetica,sans-Serif" font-size="11.00" fill="#000000"> &#160;</text>
</a>
</g>
</g>
<!-- StudentEvaluationReport&#45;&gt;AspNetUsers -->
<g id="edge34" class="edge">
<title>StudentEvaluationReport:w&#45;&gt;AspNetUsers:e</title>
<path fill="none" stroke="#000000" d="M647.6217,-325.4005C610.6932,-307.8026 636.8645,-239.0577 591,-214.1964 507.1352,-168.7366 236.482,-186.3663 163,-247.1964 90.5908,-307.1383 71.6775,-425.7061 66.7411,-484.5439"/>
<polygon fill="#000000" stroke="#000000" points="654.265,-327.1543 661.081,-332.6771 658.1325,-328.1753 662,-329.1964 662,-329.1964 662,-329.1964 658.1325,-328.1753 662.919,-325.7157 654.265,-327.1543 654.265,-327.1543"/>
<ellipse fill="none" stroke="#000000" cx="651.171" cy="-326.3374" rx="3.2" ry="3.2"/>
</g>
<!-- StudentEvaluationReport&#45;&gt;AspNetUsers -->
<g id="edge37" class="edge">
<title>StudentEvaluationReport:w&#45;&gt;AspNetUsers:e</title>
<path fill="none" stroke="#000000" d="M647.1457,-328.7413C610.9184,-320.2082 636.666,-251.9501 591,-227.1964 507.1352,-181.7366 236.482,-199.3663 163,-260.1964 93.8132,-317.4708 73.4668,-428.2691 67.4867,-484.6342"/>
<polygon fill="#000000" stroke="#000000" points="654.0038,-328.9514 661.8897,-332.7947 658.0019,-329.0739 662,-329.1964 662,-329.1964 662,-329.1964 658.0019,-329.0739 662.1103,-325.5981 654.0038,-328.9514 654.0038,-328.9514"/>
<ellipse fill="none" stroke="#000000" cx="650.8053" cy="-328.8534" rx="3.2" ry="3.2"/>
</g>
<!-- StudentEvaluationReport&#45;&gt;EvaluationPeriods -->
<g id="edge35" class="edge">
<title>StudentEvaluationReport:w&#45;&gt;EvaluationPeriods:e</title>
<path fill="none" stroke="#000000" d="M647.4138,-330.6651C558.1129,-350.2535 656.7419,-559.1964 548,-559.1964"/>
<polygon fill="#000000" stroke="#000000" points="654.0403,-329.9979 662.3607,-332.7783 658.0201,-329.5972 662,-329.1964 662,-329.1964 662,-329.1964 658.0201,-329.5972 661.6393,-325.6145 654.0403,-329.9979 654.0403,-329.9979"/>
<ellipse fill="none" stroke="#000000" cx="650.8564" cy="-330.3186" rx="3.2" ry="3.2"/>
</g>
<!-- StudentEvaluationReport&#45;&gt;Students -->
<g id="edge36" class="edge">
<title>StudentEvaluationReport:w&#45;&gt;Students:e</title>
<path fill="none" stroke="#000000" d="M647.3658,-329.3328C606.4006,-330.0729 562.3961,-333.6983 529.2368,-337.0558"/>
<polygon fill="#000000" stroke="#000000" points="654.0003,-329.271 662.0336,-332.7962 658.0002,-329.2337 662,-329.1964 662,-329.1964 662,-329.1964 658.0002,-329.2337 661.9664,-325.5966 654.0003,-329.271 654.0003,-329.271"/>
<ellipse fill="none" stroke="#000000" cx="650.8005" cy="-329.3008" rx="3.2" ry="3.2"/>
</g>
<!-- StudentSubjects -->
<g id="node19" class="node">
<title>StudentSubjects</title>
<g id="a_node19"><a xlink:href="../../tables/StudentSubjects.html" xlink:title="StudentSubjects" target="_top">
<polygon fill="#ffffff" stroke="transparent" points="686.5,-191.6964 686.5,-252.6964 819.5,-252.6964 819.5,-191.6964 686.5,-191.6964"/>
<polygon fill="#f5f5f5" stroke="transparent" points="687,-229.1964 687,-252.1964 820,-252.1964 820,-229.1964 687,-229.1964"/>
<polygon fill="none" stroke="#000000" points="687,-229.1964 687,-252.1964 820,-252.1964 820,-229.1964 687,-229.1964"/>
<text text-anchor="start" x="692" y="-237.7964" font-family="Helvetica,sans-Serif" font-weight="bold" font-size="11.00" fill="#000000">StudentSubjects</text>
<text text-anchor="start" x="785.5219" y="-237.2964" font-family="Helvetica,sans-Serif" font-size="11.00" fill="#000000">[table]</text>
<polygon fill="none" stroke="#000000" points="687,-210.1964 687,-229.1964 820,-229.1964 820,-210.1964 687,-210.1964"/>
<text text-anchor="start" x="690" y="-216.2964" font-family="Helvetica,sans-Serif" font-size="11.00" fill="#000000">...</text>
<polygon fill="#ffffff" stroke="transparent" points="687,-191.1964 687,-210.1964 739,-210.1964 739,-191.1964 687,-191.1964"/>
<polygon fill="none" stroke="#000000" points="687,-191.1964 687,-210.1964 739,-210.1964 739,-191.1964 687,-191.1964"/>
<text text-anchor="start" x="690" y="-197.2964" font-family="Helvetica,sans-Serif" font-size="11.00" fill="#000000">&lt; 4</text>
<polygon fill="#ffffff" stroke="transparent" points="739,-191.1964 739,-210.1964 792,-210.1964 792,-191.1964 739,-191.1964"/>
<polygon fill="none" stroke="#000000" points="739,-191.1964 739,-210.1964 792,-210.1964 792,-191.1964 739,-191.1964"/>
<text text-anchor="start" x="756.6105" y="-197.2964" font-family="Helvetica,sans-Serif" font-size="11.00" fill="#000000">0 rows</text>
<polygon fill="#ffffff" stroke="transparent" points="792,-191.1964 792,-210.1964 820,-210.1964 820,-191.1964 792,-191.1964"/>
<polygon fill="none" stroke="#000000" points="792,-191.1964 792,-210.1964 820,-210.1964 820,-191.1964 792,-191.1964"/>
<text text-anchor="start" x="810.8862" y="-197.2964" font-family="Helvetica,sans-Serif" font-size="11.00" fill="#000000"> &#160;</text>
</a>
</g>
</g>
<!-- StudentSubjects&#45;&gt;AspNetUsers -->
<g id="edge40" class="edge">
<title>StudentSubjects:w&#45;&gt;AspNetUsers:e</title>
<path fill="none" stroke="#000000" d="M672.8069,-216.5194C640.3602,-208.4923 629.761,-191.5434 591,-186.1964 402.5294,-160.1971 313.7007,-78.0653 163,-194.1964 116.5925,-229.9584 82.3446,-408.3212 70.009,-484.6018"/>
<polygon fill="#000000" stroke="#000000" points="679.1386,-217.7136 686.3327,-222.734 683.0693,-218.455 687,-219.1964 687,-219.1964 687,-219.1964 683.0693,-218.455 687.6673,-215.6588 679.1386,-217.7136 679.1386,-217.7136"/>
<ellipse fill="none" stroke="#000000" cx="675.9941" cy="-217.1205" rx="3.2" ry="3.2"/>
</g>
<!-- StudentSubjects&#45;&gt;AspNetUsers -->
<g id="edge43" class="edge">
<title>StudentSubjects:w&#45;&gt;AspNetUsers:e</title>
<path fill="none" stroke="#000000" d="M672.3775,-220.5862C640.2659,-221.3425 629.5895,-204.5198 591,-199.1964 402.5294,-173.1971 313.7007,-91.0653 163,-207.1964 117.9692,-241.8975 84.3873,-410.864 71.1645,-484.6931"/>
<polygon fill="#000000" stroke="#000000" points="679.0359,-219.9534 687.3406,-222.7802 683.0179,-219.5749 687,-219.1964 687,-219.1964 687,-219.1964 683.0179,-219.5749 686.6594,-215.6125 679.0359,-219.9534 679.0359,-219.9534"/>
<ellipse fill="none" stroke="#000000" cx="675.8502" cy="-220.2562" rx="3.2" ry="3.2"/>
</g>
<!-- StudentSubjects&#45;&gt;Subjects -->
<g id="edge42" class="edge">
<title>StudentSubjects:w&#45;&gt;Subjects:e</title>
<path fill="none" stroke="#000000" d="M672.4394,-219.5045C621.6707,-221.5988 567.369,-233.9851 528.7538,-244.7174"/>
<polygon fill="#000000" stroke="#000000" points="679.0018,-219.3657 687.0762,-222.7956 683.0009,-219.281 687,-219.1964 687,-219.1964 687,-219.1964 683.0009,-219.281 686.9238,-215.5972 679.0018,-219.3657 679.0018,-219.3657"/>
<ellipse fill="none" stroke="#000000" cx="675.8025" cy="-219.4334" rx="3.2" ry="3.2"/>
</g>
<!-- StudentSubjects&#45;&gt;Students -->
<g id="edge41" class="edge">
<title>StudentSubjects:w&#45;&gt;Students:e</title>
<path fill="none" stroke="#000000" d="M672.4989,-220.6258C631.8156,-229.4071 635.0666,-276.5138 591,-302.1964 571.8629,-313.3497 549.1871,-322.2292 529.0503,-328.8328"/>
<polygon fill="#000000" stroke="#000000" points="679.0386,-219.9812 687.3532,-222.779 683.0193,-219.5888 687,-219.1964 687,-219.1964 687,-219.1964 683.0193,-219.5888 686.6468,-215.6138 679.0386,-219.9812 679.0386,-219.9812"/>
<ellipse fill="none" stroke="#000000" cx="675.854" cy="-220.2952" rx="3.2" ry="3.2"/>
</g>
</g>
</svg>
