<?xml version="1.0" encoding="UTF-8" standalone="no"?>
<!DOCTYPE svg PUBLIC "-//W3C//DTD SVG 1.1//EN"
 "http://www.w3.org/Graphics/SVG/1.1/DTD/svg11.dtd">
<!-- Generated by graphviz version 2.40.1 (20161225.0304)
 -->
<!-- Title: twoDegreesRelationshipsDiagram Pages: 1 -->
<svg width="1382pt" height="1369pt"
 viewBox="0.00 0.00 1382.00 1368.92" xmlns="http://www.w3.org/2000/svg" xmlns:xlink="http://www.w3.org/1999/xlink">
<g id="graph0" class="graph" transform="scale(1 1) rotate(0) translate(4 1364.9229)">
<title>twoDegreesRelationshipsDiagram</title>
<polygon fill="#ffffff" stroke="transparent" points="-4,4 -4,-1364.9229 1378,-1364.9229 1378,4 -4,4"/>
<text text-anchor="middle" x="72.4936" y="-7.3" font-family="Helvetica,sans-Serif" font-size="11.00" fill="#000000">Generated by SchemaSpy</text>
<!-- AspNetUserClaims -->
<g id="node1" class="node">
<title>AspNetUserClaims</title>
<g id="a_node1"><a xlink:href="../../tables/AspNetUserClaims.html" xlink:title="AspNetUserClaims" target="_top">
<polygon fill="#ffffff" stroke="transparent" points="172,-1295.9229 172,-1356.9229 319,-1356.9229 319,-1295.9229 172,-1295.9229"/>
<polygon fill="#f5f5f5" stroke="transparent" points="172.5,-1333.4229 172.5,-1356.4229 319.5,-1356.4229 319.5,-1333.4229 172.5,-1333.4229"/>
<polygon fill="none" stroke="#000000" points="172.5,-1333.4229 172.5,-1356.4229 319.5,-1356.4229 319.5,-1333.4229 172.5,-1333.4229"/>
<text text-anchor="start" x="177.5" y="-1342.0229" font-family="Helvetica,sans-Serif" font-weight="bold" font-size="11.00" fill="#000000">AspNetUserClaims</text>
<text text-anchor="start" x="285.0219" y="-1341.5229" font-family="Helvetica,sans-Serif" font-size="11.00" fill="#000000">[table]</text>
<polygon fill="none" stroke="#000000" points="172.5,-1314.4229 172.5,-1333.4229 319.5,-1333.4229 319.5,-1314.4229 172.5,-1314.4229"/>
<text text-anchor="start" x="175.5" y="-1320.5229" font-family="Helvetica,sans-Serif" font-size="11.00" fill="#000000">...</text>
<polygon fill="#ffffff" stroke="transparent" points="172.5,-1295.4229 172.5,-1314.4229 231.5,-1314.4229 231.5,-1295.4229 172.5,-1295.4229"/>
<polygon fill="none" stroke="#000000" points="172.5,-1295.4229 172.5,-1314.4229 231.5,-1314.4229 231.5,-1295.4229 172.5,-1295.4229"/>
<text text-anchor="start" x="175.5" y="-1301.5229" font-family="Helvetica,sans-Serif" font-size="11.00" fill="#000000">&lt; 1</text>
<polygon fill="#ffffff" stroke="transparent" points="231.5,-1295.4229 231.5,-1314.4229 288.5,-1314.4229 288.5,-1295.4229 231.5,-1295.4229"/>
<polygon fill="none" stroke="#000000" points="231.5,-1295.4229 231.5,-1314.4229 288.5,-1314.4229 288.5,-1295.4229 231.5,-1295.4229"/>
<text text-anchor="start" x="253.1105" y="-1301.5229" font-family="Helvetica,sans-Serif" font-size="11.00" fill="#000000">0 rows</text>
<polygon fill="#ffffff" stroke="transparent" points="288.5,-1295.4229 288.5,-1314.4229 319.5,-1314.4229 319.5,-1295.4229 288.5,-1295.4229"/>
<polygon fill="none" stroke="#000000" points="288.5,-1295.4229 288.5,-1314.4229 319.5,-1314.4229 319.5,-1295.4229 288.5,-1295.4229"/>
<text text-anchor="start" x="310.3862" y="-1301.5229" font-family="Helvetica,sans-Serif" font-size="11.00" fill="#000000"> &#160;</text>
</a>
</g>
</g>
<!-- AspNetUsers -->
<g id="node2" class="node">
<title>AspNetUsers</title>
<g id="a_node2"><a xlink:href="../../tables/AspNetUsers.html" xlink:title="AspNetUsers" target="_top">
<polygon fill="#ffffff" stroke="transparent" points="8,-708.9229 8,-769.9229 122,-769.9229 122,-708.9229 8,-708.9229"/>
<polygon fill="#f5f5f5" stroke="transparent" points="8,-746.4229 8,-769.4229 122,-769.4229 122,-746.4229 8,-746.4229"/>
<polygon fill="none" stroke="#000000" points="8,-746.4229 8,-769.4229 122,-769.4229 122,-746.4229 8,-746.4229"/>
<text text-anchor="start" x="13" y="-755.0229" font-family="Helvetica,sans-Serif" font-weight="bold" font-size="11.00" fill="#000000">AspNetUsers</text>
<text text-anchor="start" x="87.5219" y="-754.5229" font-family="Helvetica,sans-Serif" font-size="11.00" fill="#000000">[table]</text>
<polygon fill="none" stroke="#000000" points="8,-727.4229 8,-746.4229 122,-746.4229 122,-727.4229 8,-727.4229"/>
<text text-anchor="start" x="11" y="-733.5229" font-family="Helvetica,sans-Serif" font-size="11.00" fill="#000000">...</text>
<polygon fill="#ffffff" stroke="transparent" points="8,-708.4229 8,-727.4229 41,-727.4229 41,-708.4229 8,-708.4229"/>
<polygon fill="none" stroke="#000000" points="8,-708.4229 8,-727.4229 41,-727.4229 41,-708.4229 8,-708.4229"/>
<text text-anchor="start" x="11" y="-714.5229" font-family="Helvetica,sans-Serif" font-size="11.00" fill="#000000"> &#160;</text>
<polygon fill="#ffffff" stroke="transparent" points="41,-708.4229 41,-727.4229 84,-727.4229 84,-708.4229 41,-708.4229"/>
<polygon fill="none" stroke="#000000" points="41,-708.4229 41,-727.4229 84,-727.4229 84,-708.4229 41,-708.4229"/>
<text text-anchor="start" x="54.1105" y="-714.5229" font-family="Helvetica,sans-Serif" font-size="11.00" fill="#000000">1 row</text>
<polygon fill="#ffffff" stroke="transparent" points="84,-708.4229 84,-727.4229 122,-727.4229 122,-708.4229 84,-708.4229"/>
<polygon fill="none" stroke="#000000" points="84,-708.4229 84,-727.4229 122,-727.4229 122,-708.4229 84,-708.4229"/>
<text text-anchor="start" x="97.2904" y="-714.5229" font-family="Helvetica,sans-Serif" font-size="11.00" fill="#000000">29 &gt;</text>
</a>
</g>
</g>
<!-- AspNetUserClaims&#45;&gt;AspNetUsers -->
<g id="edge1" class="edge">
<title>AspNetUserClaims:w&#45;&gt;AspNetUsers:e</title>
<path fill="none" stroke="#000000" d="M159.6614,-1316.0125C110.4796,-1259.0696 77.0704,-890.108 67.6888,-774.2059"/>
<polygon fill="#000000" stroke="#000000" points="165.5713,-1319.4237 170.7003,-1326.5408 169.0357,-1321.4233 172.5,-1323.4229 172.5,-1323.4229 172.5,-1323.4229 169.0357,-1321.4233 174.2997,-1320.305 165.5713,-1319.4237 165.5713,-1319.4237"/>
<ellipse fill="none" stroke="#000000" cx="162.7999" cy="-1317.824" rx="3.2" ry="3.2"/>
</g>
<!-- AspNetUserLogins -->
<g id="node3" class="node">
<title>AspNetUserLogins</title>
<g id="a_node3"><a xlink:href="../../tables/AspNetUserLogins.html" xlink:title="AspNetUserLogins" target="_top">
<polygon fill="#ffffff" stroke="transparent" points="172,-1213.9229 172,-1274.9229 319,-1274.9229 319,-1213.9229 172,-1213.9229"/>
<polygon fill="#f5f5f5" stroke="transparent" points="172.5,-1251.4229 172.5,-1274.4229 319.5,-1274.4229 319.5,-1251.4229 172.5,-1251.4229"/>
<polygon fill="none" stroke="#000000" points="172.5,-1251.4229 172.5,-1274.4229 319.5,-1274.4229 319.5,-1251.4229 172.5,-1251.4229"/>
<text text-anchor="start" x="177.5" y="-1260.0229" font-family="Helvetica,sans-Serif" font-weight="bold" font-size="11.00" fill="#000000">AspNetUserLogins</text>
<text text-anchor="start" x="285.0219" y="-1259.5229" font-family="Helvetica,sans-Serif" font-size="11.00" fill="#000000">[table]</text>
<polygon fill="none" stroke="#000000" points="172.5,-1232.4229 172.5,-1251.4229 319.5,-1251.4229 319.5,-1232.4229 172.5,-1232.4229"/>
<text text-anchor="start" x="175.5" y="-1238.5229" font-family="Helvetica,sans-Serif" font-size="11.00" fill="#000000">...</text>
<polygon fill="#ffffff" stroke="transparent" points="172.5,-1213.4229 172.5,-1232.4229 231.5,-1232.4229 231.5,-1213.4229 172.5,-1213.4229"/>
<polygon fill="none" stroke="#000000" points="172.5,-1213.4229 172.5,-1232.4229 231.5,-1232.4229 231.5,-1213.4229 172.5,-1213.4229"/>
<text text-anchor="start" x="175.5" y="-1219.5229" font-family="Helvetica,sans-Serif" font-size="11.00" fill="#000000">&lt; 1</text>
<polygon fill="#ffffff" stroke="transparent" points="231.5,-1213.4229 231.5,-1232.4229 288.5,-1232.4229 288.5,-1213.4229 231.5,-1213.4229"/>
<polygon fill="none" stroke="#000000" points="231.5,-1213.4229 231.5,-1232.4229 288.5,-1232.4229 288.5,-1213.4229 231.5,-1213.4229"/>
<text text-anchor="start" x="253.1105" y="-1219.5229" font-family="Helvetica,sans-Serif" font-size="11.00" fill="#000000">0 rows</text>
<polygon fill="#ffffff" stroke="transparent" points="288.5,-1213.4229 288.5,-1232.4229 319.5,-1232.4229 319.5,-1213.4229 288.5,-1213.4229"/>
<polygon fill="none" stroke="#000000" points="288.5,-1213.4229 288.5,-1232.4229 319.5,-1232.4229 319.5,-1213.4229 288.5,-1213.4229"/>
<text text-anchor="start" x="310.3862" y="-1219.5229" font-family="Helvetica,sans-Serif" font-size="11.00" fill="#000000"> &#160;</text>
</a>
</g>
</g>
<!-- AspNetUserLogins&#45;&gt;AspNetUsers -->
<g id="edge2" class="edge">
<title>AspNetUserLogins:w&#45;&gt;AspNetUsers:e</title>
<path fill="none" stroke="#000000" d="M159.9936,-1233.6212C117.2253,-1181.0415 80.2212,-877.3753 68.7025,-773.9274"/>
<polygon fill="#000000" stroke="#000000" points="165.7124,-1237.1886 170.5946,-1244.4773 169.1062,-1239.3058 172.5,-1241.4229 172.5,-1241.4229 172.5,-1241.4229 169.1062,-1239.3058 174.4054,-1238.3685 165.7124,-1237.1886 165.7124,-1237.1886"/>
<ellipse fill="none" stroke="#000000" cx="162.9974" cy="-1235.4949" rx="3.2" ry="3.2"/>
</g>
<!-- AspNetUserRoles -->
<g id="node4" class="node">
<title>AspNetUserRoles</title>
<g id="a_node4"><a xlink:href="../../tables/AspNetUserRoles.html" xlink:title="AspNetUserRoles" target="_top">
<polygon fill="#ffffff" stroke="transparent" points="175.5,-1131.9229 175.5,-1192.9229 315.5,-1192.9229 315.5,-1131.9229 175.5,-1131.9229"/>
<polygon fill="#f5f5f5" stroke="transparent" points="175.5,-1169.4229 175.5,-1192.4229 315.5,-1192.4229 315.5,-1169.4229 175.5,-1169.4229"/>
<polygon fill="none" stroke="#000000" points="175.5,-1169.4229 175.5,-1192.4229 315.5,-1192.4229 315.5,-1169.4229 175.5,-1169.4229"/>
<text text-anchor="start" x="180.5" y="-1178.0229" font-family="Helvetica,sans-Serif" font-weight="bold" font-size="11.00" fill="#000000">AspNetUserRoles</text>
<text text-anchor="start" x="281.0219" y="-1177.5229" font-family="Helvetica,sans-Serif" font-size="11.00" fill="#000000">[table]</text>
<polygon fill="none" stroke="#000000" points="175.5,-1150.4229 175.5,-1169.4229 315.5,-1169.4229 315.5,-1150.4229 175.5,-1150.4229"/>
<text text-anchor="start" x="178.5" y="-1156.5229" font-family="Helvetica,sans-Serif" font-size="11.00" fill="#000000">...</text>
<polygon fill="#ffffff" stroke="transparent" points="175.5,-1131.4229 175.5,-1150.4229 233.5,-1150.4229 233.5,-1131.4229 175.5,-1131.4229"/>
<polygon fill="none" stroke="#000000" points="175.5,-1131.4229 175.5,-1150.4229 233.5,-1150.4229 233.5,-1131.4229 175.5,-1131.4229"/>
<text text-anchor="start" x="178.5" y="-1137.5229" font-family="Helvetica,sans-Serif" font-size="11.00" fill="#000000">&lt; 2</text>
<polygon fill="#ffffff" stroke="transparent" points="233.5,-1131.4229 233.5,-1150.4229 284.5,-1150.4229 284.5,-1131.4229 233.5,-1131.4229"/>
<polygon fill="none" stroke="#000000" points="233.5,-1131.4229 233.5,-1150.4229 284.5,-1150.4229 284.5,-1131.4229 233.5,-1131.4229"/>
<text text-anchor="start" x="254.6105" y="-1137.5229" font-family="Helvetica,sans-Serif" font-size="11.00" fill="#000000">1 row</text>
<polygon fill="#ffffff" stroke="transparent" points="284.5,-1131.4229 284.5,-1150.4229 315.5,-1150.4229 315.5,-1131.4229 284.5,-1131.4229"/>
<polygon fill="none" stroke="#000000" points="284.5,-1131.4229 284.5,-1150.4229 315.5,-1150.4229 315.5,-1131.4229 284.5,-1131.4229"/>
<text text-anchor="start" x="306.3862" y="-1137.5229" font-family="Helvetica,sans-Serif" font-size="11.00" fill="#000000"> &#160;</text>
</a>
</g>
</g>
<!-- AspNetUserRoles&#45;&gt;AspNetUsers -->
<g id="edge3" class="edge">
<title>AspNetUserRoles:w&#45;&gt;AspNetUsers:e</title>
<path fill="none" stroke="#000000" d="M161.249,-1156.2016C93.1777,-1124.561 72.1594,-868.4881 66.6898,-774.1506"/>
<polygon fill="#000000" stroke="#000000" points="167.6969,-1157.6591 174.7063,-1162.9343 171.5984,-1158.541 175.5,-1159.4229 175.5,-1159.4229 175.5,-1159.4229 171.5984,-1158.541 176.2937,-1155.9115 167.6969,-1157.6591 167.6969,-1157.6591"/>
<ellipse fill="none" stroke="#000000" cx="164.5756" cy="-1156.9535" rx="3.2" ry="3.2"/>
</g>
<!-- AspNetUserTokens -->
<g id="node5" class="node">
<title>AspNetUserTokens</title>
<g id="a_node5"><a xlink:href="../../tables/AspNetUserTokens.html" xlink:title="AspNetUserTokens" target="_top">
<polygon fill="#ffffff" stroke="transparent" points="171,-1049.9229 171,-1110.9229 320,-1110.9229 320,-1049.9229 171,-1049.9229"/>
<polygon fill="#f5f5f5" stroke="transparent" points="171.5,-1087.4229 171.5,-1110.4229 320.5,-1110.4229 320.5,-1087.4229 171.5,-1087.4229"/>
<polygon fill="none" stroke="#000000" points="171.5,-1087.4229 171.5,-1110.4229 320.5,-1110.4229 320.5,-1087.4229 171.5,-1087.4229"/>
<text text-anchor="start" x="176.5" y="-1096.0229" font-family="Helvetica,sans-Serif" font-weight="bold" font-size="11.00" fill="#000000">AspNetUserTokens</text>
<text text-anchor="start" x="286.0219" y="-1095.5229" font-family="Helvetica,sans-Serif" font-size="11.00" fill="#000000">[table]</text>
<polygon fill="none" stroke="#000000" points="171.5,-1068.4229 171.5,-1087.4229 320.5,-1087.4229 320.5,-1068.4229 171.5,-1068.4229"/>
<text text-anchor="start" x="174.5" y="-1074.5229" font-family="Helvetica,sans-Serif" font-size="11.00" fill="#000000">...</text>
<polygon fill="#ffffff" stroke="transparent" points="171.5,-1049.4229 171.5,-1068.4229 231.5,-1068.4229 231.5,-1049.4229 171.5,-1049.4229"/>
<polygon fill="none" stroke="#000000" points="171.5,-1049.4229 171.5,-1068.4229 231.5,-1068.4229 231.5,-1049.4229 171.5,-1049.4229"/>
<text text-anchor="start" x="174.5" y="-1055.5229" font-family="Helvetica,sans-Serif" font-size="11.00" fill="#000000">&lt; 1</text>
<polygon fill="#ffffff" stroke="transparent" points="231.5,-1049.4229 231.5,-1068.4229 288.5,-1068.4229 288.5,-1049.4229 231.5,-1049.4229"/>
<polygon fill="none" stroke="#000000" points="231.5,-1049.4229 231.5,-1068.4229 288.5,-1068.4229 288.5,-1049.4229 231.5,-1049.4229"/>
<text text-anchor="start" x="253.1105" y="-1055.5229" font-family="Helvetica,sans-Serif" font-size="11.00" fill="#000000">0 rows</text>
<polygon fill="#ffffff" stroke="transparent" points="288.5,-1049.4229 288.5,-1068.4229 320.5,-1068.4229 320.5,-1049.4229 288.5,-1049.4229"/>
<polygon fill="none" stroke="#000000" points="288.5,-1049.4229 288.5,-1068.4229 320.5,-1068.4229 320.5,-1049.4229 288.5,-1049.4229"/>
<text text-anchor="start" x="311.3862" y="-1055.5229" font-family="Helvetica,sans-Serif" font-size="11.00" fill="#000000"> &#160;</text>
</a>
</g>
</g>
<!-- AspNetUserTokens&#45;&gt;AspNetUsers -->
<g id="edge4" class="edge">
<title>AspNetUserTokens:w&#45;&gt;AspNetUsers:e</title>
<path fill="none" stroke="#000000" d="M157.2963,-1073.6107C103.7445,-1044.2746 77.2599,-853.4212 68.4527,-774.0064"/>
<polygon fill="#000000" stroke="#000000" points="163.7735,-1075.3491 170.5668,-1080.8999 167.6367,-1076.386 171.5,-1077.4229 171.5,-1077.4229 171.5,-1077.4229 167.6367,-1076.386 172.4332,-1073.946 163.7735,-1075.3491 163.7735,-1075.3491"/>
<ellipse fill="none" stroke="#000000" cx="160.6828" cy="-1074.5196" rx="3.2" ry="3.2"/>
</g>
<!-- Competencies -->
<g id="node6" class="node">
<title>Competencies</title>
<g id="a_node6"><a xlink:href="../../tables/Competencies.html" xlink:title="Competencies" target="_top">
<polygon fill="#ffffff" stroke="transparent" points="185,-888.9229 185,-949.9229 306,-949.9229 306,-888.9229 185,-888.9229"/>
<polygon fill="#f5f5f5" stroke="transparent" points="185.5,-926.4229 185.5,-949.4229 306.5,-949.4229 306.5,-926.4229 185.5,-926.4229"/>
<polygon fill="none" stroke="#000000" points="185.5,-926.4229 185.5,-949.4229 306.5,-949.4229 306.5,-926.4229 185.5,-926.4229"/>
<text text-anchor="start" x="190.5" y="-935.0229" font-family="Helvetica,sans-Serif" font-weight="bold" font-size="11.00" fill="#000000">Competencies</text>
<text text-anchor="start" x="272.0219" y="-934.5229" font-family="Helvetica,sans-Serif" font-size="11.00" fill="#000000">[table]</text>
<polygon fill="none" stroke="#000000" points="185.5,-907.4229 185.5,-926.4229 306.5,-926.4229 306.5,-907.4229 185.5,-907.4229"/>
<text text-anchor="start" x="188.5" y="-913.5229" font-family="Helvetica,sans-Serif" font-size="11.00" fill="#000000">...</text>
<polygon fill="#ffffff" stroke="transparent" points="185.5,-888.4229 185.5,-907.4229 226.5,-907.4229 226.5,-888.4229 185.5,-888.4229"/>
<polygon fill="none" stroke="#000000" points="185.5,-888.4229 185.5,-907.4229 226.5,-907.4229 226.5,-888.4229 185.5,-888.4229"/>
<text text-anchor="start" x="188.5" y="-894.5229" font-family="Helvetica,sans-Serif" font-size="11.00" fill="#000000">&lt; 2</text>
<polygon fill="#ffffff" stroke="transparent" points="226.5,-888.4229 226.5,-907.4229 274.5,-907.4229 274.5,-888.4229 226.5,-888.4229"/>
<polygon fill="none" stroke="#000000" points="226.5,-888.4229 226.5,-907.4229 274.5,-907.4229 274.5,-888.4229 226.5,-888.4229"/>
<text text-anchor="start" x="239.1105" y="-894.5229" font-family="Helvetica,sans-Serif" font-size="11.00" fill="#000000">5 rows</text>
<polygon fill="#ffffff" stroke="transparent" points="274.5,-888.4229 274.5,-907.4229 306.5,-907.4229 306.5,-888.4229 274.5,-888.4229"/>
<polygon fill="none" stroke="#000000" points="274.5,-888.4229 274.5,-907.4229 306.5,-907.4229 306.5,-888.4229 274.5,-888.4229"/>
<text text-anchor="start" x="287.9053" y="-894.5229" font-family="Helvetica,sans-Serif" font-size="11.00" fill="#000000">4 &gt;</text>
</a>
</g>
</g>
<!-- Competencies&#45;&gt;AspNetUsers -->
<g id="edge5" class="edge">
<title>Competencies:w&#45;&gt;AspNetUsers:e</title>
<path fill="none" stroke="#000000" d="M171.242,-914.1567C114.2527,-899.4011 85.5577,-820.6897 73.0866,-774.0437"/>
<polygon fill="#000000" stroke="#000000" points="177.5992,-915.1671 184.9349,-919.9783 181.5496,-915.795 185.5,-916.4229 185.5,-916.4229 185.5,-916.4229 181.5496,-915.795 186.0651,-912.8675 177.5992,-915.1671 177.5992,-915.1671"/>
<ellipse fill="none" stroke="#000000" cx="174.4388" cy="-914.6648" rx="3.2" ry="3.2"/>
</g>
<!-- Competencies&#45;&gt;AspNetUsers -->
<g id="edge6" class="edge">
<title>Competencies:w&#45;&gt;AspNetUsers:e</title>
<path fill="none" stroke="#000000" d="M170.8947,-916.0307C110.8756,-908.1207 82.339,-823.1374 71.0995,-773.9274"/>
<polygon fill="#000000" stroke="#000000" points="177.5029,-916.2081 185.4033,-920.0216 181.5014,-916.3155 185.5,-916.4229 185.5,-916.4229 185.5,-916.4229 181.5014,-916.3155 185.5967,-912.8242 177.5029,-916.2081 177.5029,-916.2081"/>
<ellipse fill="none" stroke="#000000" cx="174.304" cy="-916.1222" rx="3.2" ry="3.2"/>
</g>
<!-- CompetencyLevelDescriptions -->
<g id="node7" class="node">
<title>CompetencyLevelDescriptions</title>
<g id="a_node7"><a xlink:href="../../tables/CompetencyLevelDescriptions.html" xlink:title="CompetencyLevelDescriptions" target="_top">
<polygon fill="#ffffff" stroke="transparent" points="377,-1080.9229 377,-1141.9229 591,-1141.9229 591,-1080.9229 377,-1080.9229"/>
<polygon fill="#f5f5f5" stroke="transparent" points="377,-1118.4229 377,-1141.4229 591,-1141.4229 591,-1118.4229 377,-1118.4229"/>
<polygon fill="none" stroke="#000000" points="377,-1118.4229 377,-1141.4229 591,-1141.4229 591,-1118.4229 377,-1118.4229"/>
<text text-anchor="start" x="382" y="-1127.0229" font-family="Helvetica,sans-Serif" font-weight="bold" font-size="11.00" fill="#000000">CompetencyLevelDescriptions</text>
<text text-anchor="start" x="556.5219" y="-1126.5229" font-family="Helvetica,sans-Serif" font-size="11.00" fill="#000000">[table]</text>
<polygon fill="none" stroke="#000000" points="377,-1099.4229 377,-1118.4229 591,-1118.4229 591,-1099.4229 377,-1099.4229"/>
<text text-anchor="start" x="380" y="-1105.5229" font-family="Helvetica,sans-Serif" font-size="11.00" fill="#000000">...</text>
<polygon fill="#ffffff" stroke="transparent" points="377,-1080.4229 377,-1099.4229 466,-1099.4229 466,-1080.4229 377,-1080.4229"/>
<polygon fill="none" stroke="#000000" points="377,-1080.4229 377,-1099.4229 466,-1099.4229 466,-1080.4229 377,-1080.4229"/>
<text text-anchor="start" x="380" y="-1086.5229" font-family="Helvetica,sans-Serif" font-size="11.00" fill="#000000">&lt; 3</text>
<polygon fill="#ffffff" stroke="transparent" points="466,-1080.4229 466,-1099.4229 544,-1099.4229 544,-1080.4229 466,-1080.4229"/>
<polygon fill="none" stroke="#000000" points="466,-1080.4229 466,-1099.4229 544,-1099.4229 544,-1080.4229 466,-1080.4229"/>
<text text-anchor="start" x="502.4956" y="-1086.5229" font-family="Helvetica,sans-Serif" font-size="11.00" fill="#000000">20 rows</text>
<polygon fill="#ffffff" stroke="transparent" points="544,-1080.4229 544,-1099.4229 591,-1099.4229 591,-1080.4229 544,-1080.4229"/>
<polygon fill="none" stroke="#000000" points="544,-1080.4229 544,-1099.4229 591,-1099.4229 591,-1080.4229 544,-1080.4229"/>
<text text-anchor="start" x="581.8862" y="-1086.5229" font-family="Helvetica,sans-Serif" font-size="11.00" fill="#000000"> &#160;</text>
</a>
</g>
</g>
<!-- CompetencyLevelDescriptions&#45;&gt;AspNetUsers -->
<g id="edge8" class="edge">
<title>CompetencyLevelDescriptions:w&#45;&gt;AspNetUsers:e</title>
<path fill="none" stroke="#000000" d="M363.4138,-1103.0168C344.1925,-1088.4961 354.2909,-1051.4587 328,-1033.4229 265.5998,-990.6159 219.4634,-1041.8025 163,-991.4229 98.2894,-933.6847 76.0941,-828.6195 68.6432,-774.1342"/>
<polygon fill="#000000" stroke="#000000" points="369.5669,-1105.4651 375.669,-1111.7678 373.2834,-1106.944 377,-1108.4229 377,-1108.4229 377,-1108.4229 373.2834,-1106.944 378.331,-1105.078 369.5669,-1105.4651 369.5669,-1105.4651"/>
<ellipse fill="none" stroke="#000000" cx="366.5936" cy="-1104.282" rx="3.2" ry="3.2"/>
</g>
<!-- CompetencyLevelDescriptions&#45;&gt;AspNetUsers -->
<g id="edge9" class="edge">
<title>CompetencyLevelDescriptions:w&#45;&gt;AspNetUsers:e</title>
<path fill="none" stroke="#000000" d="M362.3804,-1107.7032C344.5525,-1100.1372 353.8063,-1064.1262 328,-1046.4229 265.5998,-1003.6159 219.4634,-1054.8025 163,-1004.4229 95.0718,-943.8138 73.992,-831.054 67.6377,-774.079"/>
<polygon fill="#000000" stroke="#000000" points="369.0097,-1108.0295 376.823,-1112.0186 373.0048,-1108.2262 377,-1108.4229 377,-1108.4229 377,-1108.4229 373.0048,-1108.2262 377.177,-1104.8273 369.0097,-1108.0295 369.0097,-1108.0295"/>
<ellipse fill="none" stroke="#000000" cx="365.8135" cy="-1107.8721" rx="3.2" ry="3.2"/>
</g>
<!-- CompetencyLevelDescriptions&#45;&gt;Competencies -->
<g id="edge7" class="edge">
<title>CompetencyLevelDescriptions:w&#45;&gt;Competencies:e</title>
<path fill="none" stroke="#000000" d="M362.6222,-1106.3966C298.8333,-1085.8768 391.9001,-916.4229 306.5,-916.4229"/>
<polygon fill="#000000" stroke="#000000" points="369.0783,-1107.3064 376.4976,-1111.9877 373.0391,-1107.8647 377,-1108.4229 377,-1108.4229 377,-1108.4229 373.0391,-1107.8647 377.5024,-1104.8581 369.0783,-1107.3064 369.0783,-1107.3064"/>
<ellipse fill="none" stroke="#000000" cx="365.9096" cy="-1106.8598" rx="3.2" ry="3.2"/>
</g>
<!-- CompetencyTechnicalCareer -->
<g id="node8" class="node">
<title>CompetencyTechnicalCareer</title>
<g id="a_node8"><a xlink:href="../../tables/CompetencyTechnicalCareer.html" xlink:title="CompetencyTechnicalCareer" target="_top">
<polygon fill="#ffffff" stroke="transparent" points="382,-888.9229 382,-949.9229 586,-949.9229 586,-888.9229 382,-888.9229"/>
<polygon fill="#f5f5f5" stroke="transparent" points="382,-926.4229 382,-949.4229 586,-949.4229 586,-926.4229 382,-926.4229"/>
<polygon fill="none" stroke="#000000" points="382,-926.4229 382,-949.4229 586,-949.4229 586,-926.4229 382,-926.4229"/>
<text text-anchor="start" x="387" y="-935.0229" font-family="Helvetica,sans-Serif" font-weight="bold" font-size="11.00" fill="#000000">CompetencyTechnicalCareer</text>
<text text-anchor="start" x="551.5219" y="-934.5229" font-family="Helvetica,sans-Serif" font-size="11.00" fill="#000000">[table]</text>
<polygon fill="none" stroke="#000000" points="382,-907.4229 382,-926.4229 586,-926.4229 586,-907.4229 382,-907.4229"/>
<text text-anchor="start" x="385" y="-913.5229" font-family="Helvetica,sans-Serif" font-size="11.00" fill="#000000">...</text>
<polygon fill="#ffffff" stroke="transparent" points="382,-888.4229 382,-907.4229 469,-907.4229 469,-888.4229 382,-888.4229"/>
<polygon fill="none" stroke="#000000" points="382,-888.4229 382,-907.4229 469,-907.4229 469,-888.4229 382,-888.4229"/>
<text text-anchor="start" x="385" y="-894.5229" font-family="Helvetica,sans-Serif" font-size="11.00" fill="#000000">&lt; 2</text>
<polygon fill="#ffffff" stroke="transparent" points="469,-888.4229 469,-907.4229 540,-907.4229 540,-888.4229 469,-888.4229"/>
<polygon fill="none" stroke="#000000" points="469,-888.4229 469,-907.4229 540,-907.4229 540,-888.4229 469,-888.4229"/>
<text text-anchor="start" x="504.6105" y="-894.5229" font-family="Helvetica,sans-Serif" font-size="11.00" fill="#000000">0 rows</text>
<polygon fill="#ffffff" stroke="transparent" points="540,-888.4229 540,-907.4229 586,-907.4229 586,-888.4229 540,-888.4229"/>
<polygon fill="none" stroke="#000000" points="540,-888.4229 540,-907.4229 586,-907.4229 586,-888.4229 540,-888.4229"/>
<text text-anchor="start" x="576.8862" y="-894.5229" font-family="Helvetica,sans-Serif" font-size="11.00" fill="#000000"> &#160;</text>
</a>
</g>
</g>
<!-- CompetencyTechnicalCareer&#45;&gt;Competencies -->
<g id="edge10" class="edge">
<title>CompetencyTechnicalCareer:w&#45;&gt;Competencies:e</title>
<path fill="none" stroke="#000000" d="M367.2943,-916.4229C345.0144,-916.4229 334.5503,-916.4229 306.5,-916.4229"/>
<polygon fill="#000000" stroke="#000000" points="374,-916.423 382,-920.0229 378,-916.4229 382,-916.4229 382,-916.4229 382,-916.4229 378,-916.4229 382,-912.8229 374,-916.423 374,-916.423"/>
<ellipse fill="none" stroke="#000000" cx="370.8" cy="-916.423" rx="3.2" ry="3.2"/>
</g>
<!-- TechnicalCareers -->
<g id="node9" class="node">
<title>TechnicalCareers</title>
<g id="a_node9"><a xlink:href="../../tables/TechnicalCareers.html" xlink:title="TechnicalCareers" target="_top">
<polygon fill="#ffffff" stroke="transparent" points="176,-708.9229 176,-769.9229 315,-769.9229 315,-708.9229 176,-708.9229"/>
<polygon fill="#f5f5f5" stroke="transparent" points="176.5,-746.4229 176.5,-769.4229 315.5,-769.4229 315.5,-746.4229 176.5,-746.4229"/>
<polygon fill="none" stroke="#000000" points="176.5,-746.4229 176.5,-769.4229 315.5,-769.4229 315.5,-746.4229 176.5,-746.4229"/>
<text text-anchor="start" x="181.5" y="-755.0229" font-family="Helvetica,sans-Serif" font-weight="bold" font-size="11.00" fill="#000000">TechnicalCareers</text>
<text text-anchor="start" x="281.0219" y="-754.5229" font-family="Helvetica,sans-Serif" font-size="11.00" fill="#000000">[table]</text>
<polygon fill="none" stroke="#000000" points="176.5,-727.4229 176.5,-746.4229 315.5,-746.4229 315.5,-727.4229 176.5,-727.4229"/>
<text text-anchor="start" x="179.5" y="-733.5229" font-family="Helvetica,sans-Serif" font-size="11.00" fill="#000000">...</text>
<polygon fill="#ffffff" stroke="transparent" points="176.5,-708.4229 176.5,-727.4229 226.5,-727.4229 226.5,-708.4229 176.5,-708.4229"/>
<polygon fill="none" stroke="#000000" points="176.5,-708.4229 176.5,-727.4229 226.5,-727.4229 226.5,-708.4229 176.5,-708.4229"/>
<text text-anchor="start" x="179.5" y="-714.5229" font-family="Helvetica,sans-Serif" font-size="11.00" fill="#000000">&lt; 2</text>
<polygon fill="#ffffff" stroke="transparent" points="226.5,-708.4229 226.5,-727.4229 279.5,-727.4229 279.5,-708.4229 226.5,-708.4229"/>
<polygon fill="none" stroke="#000000" points="226.5,-708.4229 226.5,-727.4229 279.5,-727.4229 279.5,-708.4229 226.5,-708.4229"/>
<text text-anchor="start" x="244.1105" y="-714.5229" font-family="Helvetica,sans-Serif" font-size="11.00" fill="#000000">6 rows</text>
<polygon fill="#ffffff" stroke="transparent" points="279.5,-708.4229 279.5,-727.4229 315.5,-727.4229 315.5,-708.4229 279.5,-708.4229"/>
<polygon fill="none" stroke="#000000" points="279.5,-708.4229 279.5,-727.4229 315.5,-727.4229 315.5,-708.4229 279.5,-708.4229"/>
<text text-anchor="start" x="296.9053" y="-714.5229" font-family="Helvetica,sans-Serif" font-size="11.00" fill="#000000">6 &gt;</text>
</a>
</g>
</g>
<!-- CompetencyTechnicalCareer&#45;&gt;TechnicalCareers -->
<g id="edge11" class="edge">
<title>CompetencyTechnicalCareer:w&#45;&gt;TechnicalCareers:e</title>
<path fill="none" stroke="#000000" d="M367.8427,-912.4146C333.1371,-894.3035 288.1847,-819.0419 263.5758,-773.9705"/>
<polygon fill="#000000" stroke="#000000" points="374.3026,-914.2435 381.0193,-919.8868 378.1513,-915.3332 382,-916.4229 382,-916.4229 382,-916.4229 378.1513,-915.3332 382.9807,-912.9591 374.3026,-914.2435 374.3026,-914.2435"/>
<ellipse fill="none" stroke="#000000" cx="371.2236" cy="-913.3718" rx="3.2" ry="3.2"/>
</g>
<!-- TechnicalCareers&#45;&gt;AspNetUsers -->
<g id="edge52" class="edge">
<title>TechnicalCareers:w&#45;&gt;AspNetUsers:e</title>
<path fill="none" stroke="#000000" d="M153.3283,-734.9238C145.4765,-734.9312 137.6441,-734.9841 130.069,-735.0824"/>
<polygon fill="#000000" stroke="#000000" points="159.9043,-734.9412 167.8947,-738.5625 163.9042,-734.9518 167.9042,-734.9625 167.9042,-734.9625 167.9042,-734.9625 163.9042,-734.9518 167.9138,-731.3625 159.9043,-734.9412 159.9043,-734.9412"/>
<ellipse fill="none" stroke="#000000" cx="156.7043" cy="-734.9327" rx="3.2" ry="3.2"/>
</g>
<!-- TechnicalCareers&#45;&gt;AspNetUsers -->
<g id="edge53" class="edge">
<title>TechnicalCareers:w&#45;&gt;AspNetUsers:e</title>
<path fill="none" stroke="#000000" d="M153.3283,-744.6719C145.4765,-744.6632 137.6441,-744.6016 130.069,-744.4869"/>
<polygon fill="#000000" stroke="#000000" points="159.9043,-744.6516 167.9154,-748.2268 163.9042,-744.6392 167.9042,-744.6268 167.9042,-744.6268 167.9042,-744.6268 163.9042,-744.6392 167.8931,-741.0268 159.9043,-744.6516 159.9043,-744.6516"/>
<ellipse fill="none" stroke="#000000" cx="156.7043" cy="-744.6615" rx="3.2" ry="3.2"/>
</g>
<!-- Coordinators -->
<g id="node10" class="node">
<title>Coordinators</title>
<g id="a_node10"><a xlink:href="../../tables/Coordinators.html" xlink:title="Coordinators" target="_top">
<polygon fill="#ffffff" stroke="transparent" points="427,-766.9229 427,-827.9229 541,-827.9229 541,-766.9229 427,-766.9229"/>
<polygon fill="#f5f5f5" stroke="transparent" points="427,-804.4229 427,-827.4229 541,-827.4229 541,-804.4229 427,-804.4229"/>
<polygon fill="none" stroke="#000000" points="427,-804.4229 427,-827.4229 541,-827.4229 541,-804.4229 427,-804.4229"/>
<text text-anchor="start" x="432" y="-813.0229" font-family="Helvetica,sans-Serif" font-weight="bold" font-size="11.00" fill="#000000">Coordinators</text>
<text text-anchor="start" x="506.5219" y="-812.5229" font-family="Helvetica,sans-Serif" font-size="11.00" fill="#000000">[table]</text>
<polygon fill="none" stroke="#000000" points="427,-785.4229 427,-804.4229 541,-804.4229 541,-785.4229 427,-785.4229"/>
<text text-anchor="start" x="430" y="-791.5229" font-family="Helvetica,sans-Serif" font-size="11.00" fill="#000000">...</text>
<polygon fill="#ffffff" stroke="transparent" points="427,-766.4229 427,-785.4229 469,-785.4229 469,-766.4229 427,-766.4229"/>
<polygon fill="none" stroke="#000000" points="427,-766.4229 427,-785.4229 469,-785.4229 469,-766.4229 427,-766.4229"/>
<text text-anchor="start" x="430" y="-772.5229" font-family="Helvetica,sans-Serif" font-size="11.00" fill="#000000">&lt; 2</text>
<polygon fill="#ffffff" stroke="transparent" points="469,-766.4229 469,-785.4229 518,-785.4229 518,-766.4229 469,-766.4229"/>
<polygon fill="none" stroke="#000000" points="469,-766.4229 469,-785.4229 518,-785.4229 518,-766.4229 469,-766.4229"/>
<text text-anchor="start" x="482.6105" y="-772.5229" font-family="Helvetica,sans-Serif" font-size="11.00" fill="#000000">0 rows</text>
<polygon fill="#ffffff" stroke="transparent" points="518,-766.4229 518,-785.4229 541,-785.4229 541,-766.4229 518,-766.4229"/>
<polygon fill="none" stroke="#000000" points="518,-766.4229 518,-785.4229 541,-785.4229 541,-766.4229 518,-766.4229"/>
<text text-anchor="start" x="531.8862" y="-772.5229" font-family="Helvetica,sans-Serif" font-size="11.00" fill="#000000"> &#160;</text>
</a>
</g>
</g>
<!-- Coordinators&#45;&gt;AspNetUsers -->
<g id="edge13" class="edge">
<title>Coordinators:w&#45;&gt;AspNetUsers:e</title>
<path fill="none" stroke="#000000" d="M416.5593,-794.455C307.4913,-795.1246 274.079,-805.8006 163,-780.4229 152.1223,-777.9378 140.9127,-774.3373 130.1355,-770.2876"/>
<polygon fill="#000000" stroke="#000000" points="426.1877,-790.4254 426.2123,-798.4254 424.6123,-798.4303 424.5877,-790.4303 426.1877,-790.4254"/>
<polyline fill="none" stroke="#000000" points="427,-794.4229 423,-794.4352 "/>
<ellipse fill="none" stroke="#000000" cx="419.8" cy="-794.4451" rx="3.2" ry="3.2"/>
</g>
<!-- Coordinators&#45;&gt;TechnicalCareers -->
<g id="edge12" class="edge">
<title>Coordinators:w&#45;&gt;TechnicalCareers:e</title>
<path fill="none" stroke="#000000" d="M412.5125,-793.9094C381.8411,-791.7902 350.311,-783.3841 323.0237,-773.7865"/>
<polygon fill="#000000" stroke="#000000" points="419.005,-794.1395 426.8724,-798.0207 423.0025,-794.2812 427,-794.4229 427,-794.4229 427,-794.4229 423.0025,-794.2812 427.1276,-790.8252 419.005,-794.1395 419.005,-794.1395"/>
<ellipse fill="none" stroke="#000000" cx="415.807" cy="-794.0261" rx="3.2" ry="3.2"/>
</g>
<!-- EvaluationPeriods -->
<g id="node11" class="node">
<title>EvaluationPeriods</title>
<g id="a_node11"><a xlink:href="../../tables/EvaluationPeriods.html" xlink:title="EvaluationPeriods" target="_top">
<polygon fill="#ffffff" stroke="transparent" points="174,-626.9229 174,-687.9229 317,-687.9229 317,-626.9229 174,-626.9229"/>
<polygon fill="#f5f5f5" stroke="transparent" points="174.5,-664.4229 174.5,-687.4229 317.5,-687.4229 317.5,-664.4229 174.5,-664.4229"/>
<polygon fill="none" stroke="#000000" points="174.5,-664.4229 174.5,-687.4229 317.5,-687.4229 317.5,-664.4229 174.5,-664.4229"/>
<text text-anchor="start" x="179.5" y="-673.0229" font-family="Helvetica,sans-Serif" font-weight="bold" font-size="11.00" fill="#000000">EvaluationPeriods</text>
<text text-anchor="start" x="283.0219" y="-672.5229" font-family="Helvetica,sans-Serif" font-size="11.00" fill="#000000">[table]</text>
<polygon fill="none" stroke="#000000" points="174.5,-645.4229 174.5,-664.4229 317.5,-664.4229 317.5,-645.4229 174.5,-645.4229"/>
<text text-anchor="start" x="177.5" y="-651.5229" font-family="Helvetica,sans-Serif" font-size="11.00" fill="#000000">...</text>
<polygon fill="#ffffff" stroke="transparent" points="174.5,-626.4229 174.5,-645.4229 226.5,-645.4229 226.5,-626.4229 174.5,-626.4229"/>
<polygon fill="none" stroke="#000000" points="174.5,-626.4229 174.5,-645.4229 226.5,-645.4229 226.5,-626.4229 174.5,-626.4229"/>
<text text-anchor="start" x="177.5" y="-632.5229" font-family="Helvetica,sans-Serif" font-size="11.00" fill="#000000">&lt; 2</text>
<polygon fill="#ffffff" stroke="transparent" points="226.5,-626.4229 226.5,-645.4229 280.5,-645.4229 280.5,-626.4229 226.5,-626.4229"/>
<polygon fill="none" stroke="#000000" points="226.5,-626.4229 226.5,-645.4229 280.5,-645.4229 280.5,-626.4229 226.5,-626.4229"/>
<text text-anchor="start" x="245.1105" y="-632.5229" font-family="Helvetica,sans-Serif" font-size="11.00" fill="#000000">0 rows</text>
<polygon fill="#ffffff" stroke="transparent" points="280.5,-626.4229 280.5,-645.4229 317.5,-645.4229 317.5,-626.4229 280.5,-626.4229"/>
<polygon fill="none" stroke="#000000" points="280.5,-626.4229 280.5,-645.4229 317.5,-645.4229 317.5,-626.4229 280.5,-626.4229"/>
<text text-anchor="start" x="298.9053" y="-632.5229" font-family="Helvetica,sans-Serif" font-size="11.00" fill="#000000">3 &gt;</text>
</a>
</g>
</g>
<!-- EvaluationPeriods&#45;&gt;AspNetUsers -->
<g id="edge14" class="edge">
<title>EvaluationPeriods:w&#45;&gt;AspNetUsers:e</title>
<path fill="none" stroke="#000000" d="M159.6912,-654.6821C129.1788,-658.6736 103.0613,-683.1916 86.0323,-704.8874"/>
<polygon fill="#000000" stroke="#000000" points="166.5012,-654.563 174.563,-658.0224 170.5006,-654.4929 174.5,-654.4229 174.5,-654.4229 174.5,-654.4229 170.5006,-654.4929 174.437,-650.8235 166.5012,-654.563 166.5012,-654.563"/>
<ellipse fill="none" stroke="#000000" cx="163.3017" cy="-654.619" rx="3.2" ry="3.2"/>
</g>
<!-- EvaluationPeriods&#45;&gt;AspNetUsers -->
<g id="edge15" class="edge">
<title>EvaluationPeriods:w&#45;&gt;AspNetUsers:e</title>
<path fill="none" stroke="#000000" d="M160.1463,-657.4666C134.0654,-665.5177 111.1693,-686.0865 94.3768,-704.6539"/>
<polygon fill="#000000" stroke="#000000" points="166.674,-656.0824 175.2468,-657.9446 170.587,-655.2527 174.5,-654.4229 174.5,-654.4229 174.5,-654.4229 170.587,-655.2527 173.7532,-650.9012 166.674,-656.0824 166.674,-656.0824"/>
<ellipse fill="none" stroke="#000000" cx="163.5436" cy="-656.7462" rx="3.2" ry="3.2"/>
</g>
<!-- EvaluationPeriodTechnicalCareer -->
<g id="node12" class="node">
<title>EvaluationPeriodTechnicalCareer</title>
<g id="a_node12"><a xlink:href="../../tables/EvaluationPeriodTechnicalCareer.html" xlink:title="EvaluationPeriodTechnicalCareer" target="_top">
<polygon fill="#ffffff" stroke="transparent" points="369,-656.9229 369,-717.9229 599,-717.9229 599,-656.9229 369,-656.9229"/>
<polygon fill="#f5f5f5" stroke="transparent" points="369,-694.4229 369,-717.4229 599,-717.4229 599,-694.4229 369,-694.4229"/>
<polygon fill="none" stroke="#000000" points="369,-694.4229 369,-717.4229 599,-717.4229 599,-694.4229 369,-694.4229"/>
<text text-anchor="start" x="374" y="-703.0229" font-family="Helvetica,sans-Serif" font-weight="bold" font-size="11.00" fill="#000000">EvaluationPeriodTechnicalCareer</text>
<text text-anchor="start" x="564.5219" y="-702.5229" font-family="Helvetica,sans-Serif" font-size="11.00" fill="#000000">[table]</text>
<polygon fill="none" stroke="#000000" points="369,-675.4229 369,-694.4229 599,-694.4229 599,-675.4229 369,-675.4229"/>
<text text-anchor="start" x="372" y="-681.5229" font-family="Helvetica,sans-Serif" font-size="11.00" fill="#000000">...</text>
<polygon fill="#ffffff" stroke="transparent" points="369,-656.4229 369,-675.4229 469,-675.4229 469,-656.4229 369,-656.4229"/>
<polygon fill="none" stroke="#000000" points="369,-656.4229 369,-675.4229 469,-675.4229 469,-656.4229 369,-656.4229"/>
<text text-anchor="start" x="372" y="-662.5229" font-family="Helvetica,sans-Serif" font-size="11.00" fill="#000000">&lt; 2</text>
<polygon fill="#ffffff" stroke="transparent" points="469,-656.4229 469,-675.4229 547,-675.4229 547,-656.4229 469,-656.4229"/>
<polygon fill="none" stroke="#000000" points="469,-656.4229 469,-675.4229 547,-675.4229 547,-656.4229 469,-656.4229"/>
<text text-anchor="start" x="511.6105" y="-662.5229" font-family="Helvetica,sans-Serif" font-size="11.00" fill="#000000">0 rows</text>
<polygon fill="#ffffff" stroke="transparent" points="547,-656.4229 547,-675.4229 599,-675.4229 599,-656.4229 547,-656.4229"/>
<polygon fill="none" stroke="#000000" points="547,-656.4229 547,-675.4229 599,-675.4229 599,-656.4229 547,-656.4229"/>
<text text-anchor="start" x="589.8862" y="-662.5229" font-family="Helvetica,sans-Serif" font-size="11.00" fill="#000000"> &#160;</text>
</a>
</g>
</g>
<!-- EvaluationPeriodTechnicalCareer&#45;&gt;TechnicalCareers -->
<g id="edge17" class="edge">
<title>EvaluationPeriodTechnicalCareer:w&#45;&gt;TechnicalCareers:e</title>
<path fill="none" stroke="#000000" d="M354.841,-688.4199C344.7875,-692.1944 331.0026,-698.2554 316.6069,-704.9029"/>
<polygon fill="#000000" stroke="#000000" points="361.3009,-686.5964 369.9781,-687.8875 365.1504,-685.5096 369,-684.4229 369,-684.4229 369,-684.4229 365.1504,-685.5096 368.0219,-680.9583 361.3009,-686.5964 361.3009,-686.5964"/>
<ellipse fill="none" stroke="#000000" cx="358.2212" cy="-687.4657" rx="3.2" ry="3.2"/>
</g>
<!-- EvaluationPeriodTechnicalCareer&#45;&gt;EvaluationPeriods -->
<g id="edge16" class="edge">
<title>EvaluationPeriodTechnicalCareer:w&#45;&gt;EvaluationPeriods:e</title>
<path fill="none" stroke="#000000" d="M355.0458,-680.7443C341.8193,-672.7335 338.1947,-654.4229 317.5,-654.4229"/>
<polygon fill="#000000" stroke="#000000" points="361.2643,-682.3836 368.0823,-687.904 365.1321,-683.4033 369,-684.4229 369,-684.4229 369,-684.4229 365.1321,-683.4033 369.9177,-680.9418 361.2643,-682.3836 361.2643,-682.3836"/>
<ellipse fill="none" stroke="#000000" cx="358.17" cy="-681.5679" rx="3.2" ry="3.2"/>
</g>
<!-- FormQuestions -->
<g id="node13" class="node">
<title>FormQuestions</title>
<g id="a_node13"><a xlink:href="../../tables/FormQuestions.html" xlink:title="FormQuestions" target="_top">
<polygon fill="#ffffff" stroke="transparent" points="420.5,-998.9229 420.5,-1059.9229 547.5,-1059.9229 547.5,-998.9229 420.5,-998.9229"/>
<polygon fill="#f5f5f5" stroke="transparent" points="421,-1036.4229 421,-1059.4229 548,-1059.4229 548,-1036.4229 421,-1036.4229"/>
<polygon fill="none" stroke="#000000" points="421,-1036.4229 421,-1059.4229 548,-1059.4229 548,-1036.4229 421,-1036.4229"/>
<text text-anchor="start" x="426" y="-1045.0229" font-family="Helvetica,sans-Serif" font-weight="bold" font-size="11.00" fill="#000000">FormQuestions</text>
<text text-anchor="start" x="513.5219" y="-1044.5229" font-family="Helvetica,sans-Serif" font-size="11.00" fill="#000000">[table]</text>
<polygon fill="none" stroke="#000000" points="421,-1017.4229 421,-1036.4229 548,-1036.4229 548,-1017.4229 421,-1017.4229"/>
<text text-anchor="start" x="424" y="-1023.5229" font-family="Helvetica,sans-Serif" font-size="11.00" fill="#000000">...</text>
<polygon fill="#ffffff" stroke="transparent" points="421,-998.4229 421,-1017.4229 465,-1017.4229 465,-998.4229 421,-998.4229"/>
<polygon fill="none" stroke="#000000" points="421,-998.4229 421,-1017.4229 465,-1017.4229 465,-998.4229 421,-998.4229"/>
<text text-anchor="start" x="424" y="-1004.5229" font-family="Helvetica,sans-Serif" font-size="11.00" fill="#000000">&lt; 3</text>
<polygon fill="#ffffff" stroke="transparent" points="465,-998.4229 465,-1017.4229 515,-1017.4229 515,-998.4229 465,-998.4229"/>
<polygon fill="none" stroke="#000000" points="465,-998.4229 465,-1017.4229 515,-1017.4229 515,-998.4229 465,-998.4229"/>
<text text-anchor="start" x="479.6105" y="-1004.5229" font-family="Helvetica,sans-Serif" font-size="11.00" fill="#000000">0 rows</text>
<polygon fill="#ffffff" stroke="transparent" points="515,-998.4229 515,-1017.4229 548,-1017.4229 548,-998.4229 515,-998.4229"/>
<polygon fill="none" stroke="#000000" points="515,-998.4229 515,-1017.4229 548,-1017.4229 548,-998.4229 515,-998.4229"/>
<text text-anchor="start" x="529.4053" y="-1004.5229" font-family="Helvetica,sans-Serif" font-size="11.00" fill="#000000">1 &gt;</text>
</a>
</g>
</g>
<!-- FormQuestions&#45;&gt;AspNetUsers -->
<g id="edge19" class="edge">
<title>FormQuestions:w&#45;&gt;AspNetUsers:e</title>
<path fill="none" stroke="#000000" d="M407.3541,-1020.9772C354.2308,-1003.8916 164.2191,-955.4538 163,-954.4229 107.2345,-907.2682 82.0017,-822.1179 71.5584,-774.2906"/>
<polygon fill="#000000" stroke="#000000" points="413.5698,-1023.4577 419.6657,-1029.7665 417.2849,-1024.9403 421,-1026.4229 421,-1026.4229 421,-1026.4229 417.2849,-1024.9403 422.3343,-1023.0793 413.5698,-1023.4577 413.5698,-1023.4577"/>
<ellipse fill="none" stroke="#000000" cx="410.5977" cy="-1022.2716" rx="3.2" ry="3.2"/>
</g>
<!-- FormQuestions&#45;&gt;AspNetUsers -->
<g id="edge20" class="edge">
<title>FormQuestions:w&#45;&gt;AspNetUsers:e</title>
<path fill="none" stroke="#000000" d="M406.6246,-1025.4927C352.5151,-1016.4542 164.2136,-968.4491 163,-967.4229 103.8693,-917.4227 79.0675,-824.7028 69.8259,-774.19"/>
<polygon fill="#000000" stroke="#000000" points="413.0167,-1025.9062 420.7675,-1030.0154 417.0083,-1026.1646 421,-1026.4229 421,-1026.4229 421,-1026.4229 417.0083,-1026.1646 421.2325,-1022.8304 413.0167,-1025.9062 413.0167,-1025.9062"/>
<ellipse fill="none" stroke="#000000" cx="409.8234" cy="-1025.6996" rx="3.2" ry="3.2"/>
</g>
<!-- FormQuestions&#45;&gt;Competencies -->
<g id="edge18" class="edge">
<title>FormQuestions:w&#45;&gt;Competencies:e</title>
<path fill="none" stroke="#000000" d="M406.5247,-1024.7608C386.5857,-1019.5622 380.6694,-1002.8552 361,-984.4229 332.7387,-957.939 345.2311,-916.4229 306.5,-916.4229"/>
<polygon fill="#000000" stroke="#000000" points="413.0522,-1025.5103 420.5893,-1029.9994 417.0261,-1025.9666 421,-1026.4229 421,-1026.4229 421,-1026.4229 417.0261,-1025.9666 421.4107,-1022.8464 413.0522,-1025.5103 413.0522,-1025.5103"/>
<ellipse fill="none" stroke="#000000" cx="409.8731" cy="-1025.1452" rx="3.2" ry="3.2"/>
</g>
<!-- ProfessorCompetencyAssignments -->
<g id="node14" class="node">
<title>ProfessorCompetencyAssignments</title>
<g id="a_node14"><a xlink:href="../../tables/ProfessorCompetencyAssignments.html" xlink:title="ProfessorCompetencyAssignments" target="_top">
<polygon fill="#ffffff" stroke="transparent" points="648,-656.9229 648,-717.9229 890,-717.9229 890,-656.9229 648,-656.9229"/>
<polygon fill="#f5f5f5" stroke="transparent" points="648,-694.4229 648,-717.4229 890,-717.4229 890,-694.4229 648,-694.4229"/>
<polygon fill="none" stroke="#000000" points="648,-694.4229 648,-717.4229 890,-717.4229 890,-694.4229 648,-694.4229"/>
<text text-anchor="start" x="653" y="-703.0229" font-family="Helvetica,sans-Serif" font-weight="bold" font-size="11.00" fill="#000000">ProfessorCompetencyAssignments</text>
<text text-anchor="start" x="855.5219" y="-702.5229" font-family="Helvetica,sans-Serif" font-size="11.00" fill="#000000">[table]</text>
<polygon fill="none" stroke="#000000" points="648,-675.4229 648,-694.4229 890,-694.4229 890,-675.4229 648,-675.4229"/>
<text text-anchor="start" x="651" y="-681.5229" font-family="Helvetica,sans-Serif" font-size="11.00" fill="#000000">...</text>
<polygon fill="#ffffff" stroke="transparent" points="648,-656.4229 648,-675.4229 750,-675.4229 750,-656.4229 648,-656.4229"/>
<polygon fill="none" stroke="#000000" points="648,-656.4229 648,-675.4229 750,-675.4229 750,-656.4229 648,-656.4229"/>
<text text-anchor="start" x="651" y="-662.5229" font-family="Helvetica,sans-Serif" font-size="11.00" fill="#000000">&lt; 7</text>
<polygon fill="#ffffff" stroke="transparent" points="750,-656.4229 750,-675.4229 828,-675.4229 828,-656.4229 750,-656.4229"/>
<polygon fill="none" stroke="#000000" points="750,-656.4229 750,-675.4229 828,-675.4229 828,-656.4229 750,-656.4229"/>
<text text-anchor="start" x="792.6105" y="-662.5229" font-family="Helvetica,sans-Serif" font-size="11.00" fill="#000000">0 rows</text>
<polygon fill="#ffffff" stroke="transparent" points="828,-656.4229 828,-675.4229 890,-675.4229 890,-656.4229 828,-656.4229"/>
<polygon fill="none" stroke="#000000" points="828,-656.4229 828,-675.4229 890,-675.4229 890,-656.4229 828,-656.4229"/>
<text text-anchor="start" x="871.4053" y="-662.5229" font-family="Helvetica,sans-Serif" font-size="11.00" fill="#000000">1 &gt;</text>
</a>
</g>
</g>
<!-- ProfessorCompetencyAssignments&#45;&gt;AspNetUsers -->
<g id="edge22" class="edge">
<title>ProfessorCompetencyAssignments:w&#45;&gt;AspNetUsers:e</title>
<path fill="none" stroke="#000000" d="M731.7065,-733.4165C702.3382,-767.8964 657.9435,-812.3623 607,-832.4229 422.6826,-905.0038 347.5492,-865.4123 163,-793.4229 149.7114,-788.2393 136.2011,-781.2708 123.6295,-774.0495"/>
<polygon fill="#000000" stroke="#000000" points="735.9605,-728.305 743.845,-724.4587 738.5192,-725.2304 741.0779,-722.1559 741.0779,-722.1559 741.0779,-722.1559 738.5192,-725.2304 738.3108,-719.853 735.9605,-728.305 735.9605,-728.305"/>
<ellipse fill="none" stroke="#000000" cx="733.9135" cy="-730.7647" rx="3.2" ry="3.2"/>
</g>
<!-- ProfessorCompetencyAssignments&#45;&gt;AspNetUsers -->
<g id="edge27" class="edge">
<title>ProfessorCompetencyAssignments:w&#45;&gt;AspNetUsers:e</title>
<path fill="none" stroke="#000000" d="M739.5084,-734.1554C710.5442,-772.4091 662.6843,-823.4954 607,-845.4229 422.6826,-918.0038 347.5492,-878.4123 163,-806.4229 142.3701,-798.3756 121.2059,-786.0266 103.8492,-774.0486"/>
<polygon fill="#000000" stroke="#000000" points="743.5077,-728.694 751.1388,-724.3665 745.871,-725.4668 748.2343,-722.2396 748.2343,-722.2396 748.2343,-722.2396 745.871,-725.4668 745.3298,-720.1126 743.5077,-728.694 743.5077,-728.694"/>
<ellipse fill="none" stroke="#000000" cx="741.6171" cy="-731.2758" rx="3.2" ry="3.2"/>
</g>
<!-- ProfessorCompetencyAssignments&#45;&gt;Competencies -->
<g id="edge21" class="edge">
<title>ProfessorCompetencyAssignments:w&#45;&gt;Competencies:e</title>
<path fill="none" stroke="#000000" d="M740.0659,-734.4257C713.6257,-777.6103 673.6411,-843.5067 640,-901.4229 624.9091,-927.4033 632.917,-945.2234 607,-960.4229 559.8446,-988.0782 412.5445,-978.6329 361,-960.4229 331.647,-950.0529 337.6309,-916.4229 306.5,-916.4229"/>
<polygon fill="#000000" stroke="#000000" points="743.4663,-728.8791 750.7167,-723.9403 745.5569,-725.4689 747.6476,-722.0587 747.6476,-722.0587 747.6476,-722.0587 745.5569,-725.4689 744.5784,-720.1772 743.4663,-728.8791 743.4663,-728.8791"/>
<ellipse fill="none" stroke="#000000" cx="741.7937" cy="-731.6072" rx="3.2" ry="3.2"/>
</g>
<!-- ProfessorCompetencyAssignments&#45;&gt;TechnicalCareers -->
<g id="edge26" class="edge">
<title>ProfessorCompetencyAssignments:w&#45;&gt;TechnicalCareers:e</title>
<path fill="none" stroke="#000000" d="M629.694,-724.7193C622.0481,-726.1276 614.4477,-727.3798 607,-728.4229 509.8398,-742.0307 396.6141,-743.1253 323.1291,-741.9122"/>
<polygon fill="#000000" stroke="#000000" points="636.0967,-723.467 644.639,-725.4643 640.0223,-722.6991 643.9479,-721.9313 643.9479,-721.9313 643.9479,-721.9313 640.0223,-722.6991 643.2569,-718.3982 636.0967,-723.467 636.0967,-723.467"/>
<ellipse fill="none" stroke="#000000" cx="632.9562" cy="-724.0813" rx="3.2" ry="3.2"/>
</g>
<!-- ProfessorCompetencyAssignments&#45;&gt;EvaluationPeriods -->
<g id="edge23" class="edge">
<title>ProfessorCompetencyAssignments:w&#45;&gt;EvaluationPeriods:e</title>
<path fill="none" stroke="#000000" d="M631.4337,-650.1521C623.2047,-648.688 615.016,-647.4215 607,-646.4229 498.5053,-632.9067 469.8816,-636.4941 361,-646.4229 341.4237,-648.2081 337.1576,-654.4229 317.5,-654.4229"/>
<polygon fill="#000000" stroke="#000000" points="637.9148,-651.3881 645.0987,-656.4231 641.844,-652.1374 645.7731,-652.8868 645.7731,-652.8868 645.7731,-652.8868 641.844,-652.1374 646.4476,-649.3505 637.9148,-651.3881 637.9148,-651.3881"/>
<ellipse fill="none" stroke="#000000" cx="634.7714" cy="-650.7886" rx="3.2" ry="3.2"/>
</g>
<!-- Professors -->
<g id="node15" class="node">
<title>Professors</title>
<g id="a_node15"><a xlink:href="../../tables/Professors.html" xlink:title="Professors" target="_top">
<polygon fill="#ffffff" stroke="transparent" points="195,-544.9229 195,-605.9229 296,-605.9229 296,-544.9229 195,-544.9229"/>
<polygon fill="#f5f5f5" stroke="transparent" points="195.5,-582.4229 195.5,-605.4229 296.5,-605.4229 296.5,-582.4229 195.5,-582.4229"/>
<polygon fill="none" stroke="#000000" points="195.5,-582.4229 195.5,-605.4229 296.5,-605.4229 296.5,-582.4229 195.5,-582.4229"/>
<text text-anchor="start" x="200.5" y="-591.0229" font-family="Helvetica,sans-Serif" font-weight="bold" font-size="11.00" fill="#000000">Professors</text>
<text text-anchor="start" x="262.0219" y="-590.5229" font-family="Helvetica,sans-Serif" font-size="11.00" fill="#000000">[table]</text>
<polygon fill="none" stroke="#000000" points="195.5,-563.4229 195.5,-582.4229 296.5,-582.4229 296.5,-563.4229 195.5,-563.4229"/>
<text text-anchor="start" x="198.5" y="-569.5229" font-family="Helvetica,sans-Serif" font-size="11.00" fill="#000000">...</text>
<polygon fill="#ffffff" stroke="transparent" points="195.5,-544.4229 195.5,-563.4229 226.5,-563.4229 226.5,-544.4229 195.5,-544.4229"/>
<polygon fill="none" stroke="#000000" points="195.5,-544.4229 195.5,-563.4229 226.5,-563.4229 226.5,-544.4229 195.5,-544.4229"/>
<text text-anchor="start" x="198.5" y="-550.5229" font-family="Helvetica,sans-Serif" font-size="11.00" fill="#000000">&lt; 1</text>
<polygon fill="#ffffff" stroke="transparent" points="226.5,-544.4229 226.5,-563.4229 269.5,-563.4229 269.5,-544.4229 226.5,-544.4229"/>
<polygon fill="none" stroke="#000000" points="226.5,-544.4229 226.5,-563.4229 269.5,-563.4229 269.5,-544.4229 226.5,-544.4229"/>
<text text-anchor="start" x="234.1105" y="-550.5229" font-family="Helvetica,sans-Serif" font-size="11.00" fill="#000000">0 rows</text>
<polygon fill="#ffffff" stroke="transparent" points="269.5,-544.4229 269.5,-563.4229 296.5,-563.4229 296.5,-544.4229 269.5,-544.4229"/>
<polygon fill="none" stroke="#000000" points="269.5,-544.4229 269.5,-563.4229 296.5,-563.4229 296.5,-544.4229 269.5,-544.4229"/>
<text text-anchor="start" x="277.9053" y="-550.5229" font-family="Helvetica,sans-Serif" font-size="11.00" fill="#000000">2 &gt;</text>
</a>
</g>
</g>
<!-- ProfessorCompetencyAssignments&#45;&gt;Professors -->
<g id="edge24" class="edge">
<title>ProfessorCompetencyAssignments:w&#45;&gt;Professors:e</title>
<path fill="none" stroke="#000000" d="M655.0053,-648.5376C638.9894,-643.7475 622.6542,-639.2129 607,-635.4229 501.5754,-609.8988 376.2266,-591.759 304.2572,-582.4893"/>
<polygon fill="#000000" stroke="#000000" points="661.321,-650.4652 667.9217,-656.2438 665.1468,-651.6329 668.9726,-652.8006 668.9726,-652.8006 668.9726,-652.8006 665.1468,-651.6329 670.0235,-649.3574 661.321,-650.4652 661.321,-650.4652"/>
<ellipse fill="none" stroke="#000000" cx="658.2604" cy="-649.531" rx="3.2" ry="3.2"/>
</g>
<!-- Subjects -->
<g id="node16" class="node">
<title>Subjects</title>
<g id="a_node16"><a xlink:href="../../tables/Subjects.html" xlink:title="Subjects" target="_top">
<polygon fill="#ffffff" stroke="transparent" points="372.5,-288.4229 372.5,-554.4229 595.5,-554.4229 595.5,-288.4229 372.5,-288.4229"/>
<polygon fill="#f5f5f5" stroke="transparent" points="375,-529.4229 375,-552.4229 594,-552.4229 594,-529.4229 375,-529.4229"/>
<polygon fill="none" stroke="#000000" points="375,-529.4229 375,-552.4229 594,-552.4229 594,-529.4229 375,-529.4229"/>
<text text-anchor="start" x="380" y="-538.0229" font-family="Helvetica,sans-Serif" font-weight="bold" font-size="11.00" fill="#000000">Subjects</text>
<text text-anchor="start" x="559.0437" y="-537.5229" font-family="Helvetica,sans-Serif" font-size="11.00" fill="#000000">[table]</text>
<polygon fill="none" stroke="#000000" points="375,-507.4229 375,-529.4229 500,-529.4229 500,-507.4229 375,-507.4229"/>
<image xlink:href="../../images/primaryKeys.png" width="11px" height="12px" preserveAspectRatio="xMinYMin meet" x="380" y="-524.423"/>
<text text-anchor="start" x="395" y="-514.5229" font-family="Helvetica,sans-Serif" font-size="11.00" fill="#000000">Id</text>
<polygon fill="none" stroke="#000000" points="500,-507.4229 500,-529.4229 594,-529.4229 594,-507.4229 500,-507.4229"/>
<text text-anchor="start" x="502.9758" y="-515.1229" font-family="Helvetica,sans-Serif" font-size="11.00" fill="#000000">uuid[2147483647]</text>
<polygon fill="none" stroke="#000000" points="375,-485.4229 375,-507.4229 500,-507.4229 500,-485.4229 375,-485.4229"/>
<text text-anchor="start" x="395" y="-492.5229" font-family="Helvetica,sans-Serif" font-size="11.00" fill="#000000">Name</text>
<polygon fill="none" stroke="#000000" points="500,-485.4229 500,-507.4229 594,-507.4229 594,-485.4229 500,-485.4229"/>
<text text-anchor="start" x="503" y="-493.1229" font-family="Helvetica,sans-Serif" font-size="11.00" fill="#000000">text[2147483647]</text>
<polygon fill="#ffffff" stroke="transparent" points="375,-463.4229 375,-485.4229 500,-485.4229 500,-463.4229 375,-463.4229"/>
<polygon fill="none" stroke="#000000" points="375,-463.4229 375,-485.4229 500,-485.4229 500,-463.4229 375,-463.4229"/>
<image xlink:href="../../images/foreignKeys.png" width="11px" height="12px" preserveAspectRatio="xMinYMin meet" x="380" y="-480.423"/>
<text text-anchor="start" x="395" y="-470.5229" font-family="Helvetica,sans-Serif" font-size="11.00" fill="#000000">TechnicalCareerId</text>
<polygon fill="none" stroke="#000000" points="500,-463.4229 500,-485.4229 594,-485.4229 594,-463.4229 500,-463.4229"/>
<text text-anchor="start" x="502.9758" y="-471.1229" font-family="Helvetica,sans-Serif" font-size="11.00" fill="#000000">uuid[2147483647]</text>
<polygon fill="none" stroke="#000000" points="375,-441.4229 375,-463.4229 500,-463.4229 500,-441.4229 375,-441.4229"/>
<text text-anchor="start" x="395" y="-448.5229" font-family="Helvetica,sans-Serif" font-size="11.00" fill="#000000">Year</text>
<polygon fill="none" stroke="#000000" points="500,-441.4229 500,-463.4229 594,-463.4229 594,-441.4229 500,-441.4229"/>
<text text-anchor="start" x="503" y="-449.1229" font-family="Helvetica,sans-Serif" font-size="11.00" fill="#000000">int4[10]</text>
<polygon fill="#ffffff" stroke="transparent" points="375,-419.4229 375,-441.4229 500,-441.4229 500,-419.4229 375,-419.4229"/>
<polygon fill="none" stroke="#000000" points="375,-419.4229 375,-441.4229 500,-441.4229 500,-419.4229 375,-419.4229"/>
<image xlink:href="../../images/foreignKeys.png" width="11px" height="12px" preserveAspectRatio="xMinYMin meet" x="380" y="-436.423"/>
<text text-anchor="start" x="395" y="-426.5229" font-family="Helvetica,sans-Serif" font-size="11.00" fill="#000000">ProfessorId</text>
<polygon fill="none" stroke="#000000" points="500,-419.4229 500,-441.4229 594,-441.4229 594,-419.4229 500,-419.4229"/>
<text text-anchor="start" x="503" y="-427.1229" font-family="Helvetica,sans-Serif" font-size="11.00" fill="#000000">text[2147483647]</text>
<polygon fill="none" stroke="#000000" points="375,-397.4229 375,-419.4229 500,-419.4229 500,-397.4229 375,-397.4229"/>
<text text-anchor="start" x="395" y="-404.5229" font-family="Helvetica,sans-Serif" font-size="11.00" fill="#000000">IsActive</text>
<polygon fill="none" stroke="#000000" points="500,-397.4229 500,-419.4229 594,-419.4229 594,-397.4229 500,-397.4229"/>
<text text-anchor="start" x="503" y="-405.1229" font-family="Helvetica,sans-Serif" font-size="11.00" fill="#000000">bool[1]</text>
<polygon fill="none" stroke="#000000" points="375,-375.4229 375,-397.4229 500,-397.4229 500,-375.4229 375,-375.4229"/>
<text text-anchor="start" x="395" y="-382.5229" font-family="Helvetica,sans-Serif" font-size="11.00" fill="#000000">CreatedAt</text>
<polygon fill="none" stroke="#000000" points="500,-375.4229 500,-397.4229 594,-397.4229 594,-375.4229 500,-375.4229"/>
<text text-anchor="start" x="503" y="-383.1229" font-family="Helvetica,sans-Serif" font-size="11.00" fill="#000000">timestamptz[35,6]</text>
<polygon fill="none" stroke="#000000" points="375,-353.4229 375,-375.4229 500,-375.4229 500,-353.4229 375,-353.4229"/>
<text text-anchor="start" x="395" y="-360.5229" font-family="Helvetica,sans-Serif" font-size="11.00" fill="#000000">UpdatedAt</text>
<polygon fill="none" stroke="#000000" points="500,-353.4229 500,-375.4229 594,-375.4229 594,-353.4229 500,-353.4229"/>
<text text-anchor="start" x="503" y="-361.1229" font-family="Helvetica,sans-Serif" font-size="11.00" fill="#000000">timestamptz[35,6]</text>
<polygon fill="#ffffff" stroke="transparent" points="375,-331.4229 375,-353.4229 500,-353.4229 500,-331.4229 375,-331.4229"/>
<polygon fill="none" stroke="#000000" points="375,-331.4229 375,-353.4229 500,-353.4229 500,-331.4229 375,-331.4229"/>
<image xlink:href="../../images/foreignKeys.png" width="11px" height="12px" preserveAspectRatio="xMinYMin meet" x="380" y="-348.423"/>
<text text-anchor="start" x="395" y="-338.5229" font-family="Helvetica,sans-Serif" font-size="11.00" fill="#000000">CreatedByUserId</text>
<polygon fill="none" stroke="#000000" points="500,-331.4229 500,-353.4229 594,-353.4229 594,-331.4229 500,-331.4229"/>
<text text-anchor="start" x="503" y="-339.1229" font-family="Helvetica,sans-Serif" font-size="11.00" fill="#000000">text[2147483647]</text>
<polygon fill="#ffffff" stroke="transparent" points="375,-309.4229 375,-331.4229 500,-331.4229 500,-309.4229 375,-309.4229"/>
<polygon fill="none" stroke="#000000" points="375,-309.4229 375,-331.4229 500,-331.4229 500,-309.4229 375,-309.4229"/>
<image xlink:href="../../images/foreignKeys.png" width="11px" height="12px" preserveAspectRatio="xMinYMin meet" x="380" y="-326.423"/>
<text text-anchor="start" x="395" y="-316.5229" font-family="Helvetica,sans-Serif" font-size="11.00" fill="#000000">UpdatedByUserId</text>
<polygon fill="none" stroke="#000000" points="500,-309.4229 500,-331.4229 594,-331.4229 594,-309.4229 500,-309.4229"/>
<text text-anchor="start" x="503" y="-317.1229" font-family="Helvetica,sans-Serif" font-size="11.00" fill="#000000">text[2147483647]</text>
<polygon fill="#ffffff" stroke="transparent" points="375,-290.4229 375,-309.4229 429,-309.4229 429,-290.4229 375,-290.4229"/>
<polygon fill="none" stroke="#000000" points="375,-290.4229 375,-309.4229 429,-309.4229 429,-290.4229 375,-290.4229"/>
<text text-anchor="start" x="378" y="-296.5229" font-family="Helvetica,sans-Serif" font-size="11.00" fill="#000000">&lt; 4</text>
<polygon fill="#ffffff" stroke="transparent" points="429,-290.4229 429,-309.4229 500,-309.4229 500,-290.4229 429,-290.4229"/>
<polygon fill="none" stroke="#000000" points="429,-290.4229 429,-309.4229 500,-309.4229 500,-290.4229 429,-290.4229"/>
<text text-anchor="start" x="464.6105" y="-296.5229" font-family="Helvetica,sans-Serif" font-size="11.00" fill="#000000">0 rows</text>
<polygon fill="#ffffff" stroke="transparent" points="500,-290.4229 500,-309.4229 594,-309.4229 594,-290.4229 500,-290.4229"/>
<polygon fill="none" stroke="#000000" points="500,-290.4229 500,-309.4229 594,-309.4229 594,-290.4229 500,-290.4229"/>
<text text-anchor="start" x="575.4053" y="-296.5229" font-family="Helvetica,sans-Serif" font-size="11.00" fill="#000000">3 &gt;</text>
<polygon fill="none" stroke="#000000" stroke-width="2" points="373.5,-289.4229 373.5,-553.4229 594.5,-553.4229 594.5,-289.4229 373.5,-289.4229"/>
</a>
</g>
</g>
<!-- ProfessorCompetencyAssignments&#45;&gt;Subjects -->
<g id="edge25" class="edge">
<title>ProfessorCompetencyAssignments:w&#45;&gt;Subjects:e</title>
<path fill="none" stroke="#000000" d="M745.6302,-639.9975C717.2687,-590.0069 664.3706,-518.4229 594,-518.4229"/>
<polygon fill="#000000" stroke="#000000" points="748.8019,-645.7966 749.4822,-654.5429 750.7212,-649.306 752.6406,-652.8154 752.6406,-652.8154 752.6406,-652.8154 750.7212,-649.306 755.7991,-651.088 748.8019,-645.7966 748.8019,-645.7966"/>
<ellipse fill="none" stroke="#000000" cx="747.2663" cy="-642.9891" rx="3.2" ry="3.2"/>
</g>
<!-- Professors&#45;&gt;AspNetUsers -->
<g id="edge28" class="edge">
<title>Professors:w&#45;&gt;AspNetUsers:e</title>
<path fill="none" stroke="#000000" d="M177.4629,-606.1342C172.3963,-609.3448 167.5096,-612.7789 163,-616.4229 131.9945,-641.477 104.4795,-677.9603 86.5584,-704.6874"/>
<polygon fill="#000000" stroke="#000000" points="183.997,-597.575 188.0977,-604.4442 186.7239,-605.2643 182.6232,-598.3952 183.997,-597.575"/>
<polyline fill="none" stroke="#000000" points="186.7343,-600.5995 183.2997,-602.6499 "/>
<ellipse fill="none" stroke="#000000" cx="180.5521" cy="-604.2901" rx="3.2" ry="3.2"/>
</g>
<!-- Subjects&#45;&gt;AspNetUsers -->
<g id="edge48" class="edge">
<title>Subjects:w&#45;&gt;AspNetUsers:e</title>
<path fill="none" stroke="#000000" d="M360.8461,-345.3819C340.6928,-355.9441 350.7025,-392.4369 328,-416.4229 266.0257,-481.901 220.9392,-465.3487 163,-534.4229 119.2691,-586.5583 89.9761,-661.5122 75.5194,-704.8613"/>
<polygon fill="#000000" stroke="#000000" points="367.1693,-344.06 375.7367,-345.9467 371.0846,-343.2415 375,-342.4229 375,-342.4229 375,-342.4229 371.0846,-343.2415 374.2633,-338.8991 367.1693,-344.06 367.1693,-344.06"/>
<ellipse fill="none" stroke="#000000" cx="364.037" cy="-344.7149" rx="3.2" ry="3.2"/>
</g>
<!-- Subjects&#45;&gt;AspNetUsers -->
<g id="edge51" class="edge">
<title>Subjects:w&#45;&gt;AspNetUsers:e</title>
<path fill="none" stroke="#000000" d="M360.5511,-320.5578C267.4746,-322.3766 227.9471,-343.1575 163,-417.4229 124.7728,-461.1348 86.8332,-631.0579 71.7759,-704.8726"/>
<polygon fill="#000000" stroke="#000000" points="367.0003,-320.4977 375.0336,-324.0228 371.0002,-320.4603 375,-320.4229 375,-320.4229 375,-320.4229 371.0002,-320.4603 374.9664,-316.8231 367.0003,-320.4977 367.0003,-320.4977"/>
<ellipse fill="none" stroke="#000000" cx="363.8005" cy="-320.5276" rx="3.2" ry="3.2"/>
</g>
<!-- Subjects&#45;&gt;TechnicalCareers -->
<g id="edge50" class="edge">
<title>Subjects:w&#45;&gt;TechnicalCareers:e</title>
<path fill="none" stroke="#000000" d="M360.2079,-475.6769C285.5318,-489.9326 386.8206,-622.3508 328,-698.4229 326.239,-700.7004 324.3177,-702.8604 322.2675,-704.908"/>
<polygon fill="#000000" stroke="#000000" points="367.0286,-475.0987 375.3041,-478.01 371.0143,-474.7608 375,-474.4229 375,-474.4229 375,-474.4229 371.0143,-474.7608 374.6959,-470.8358 367.0286,-475.0987 367.0286,-475.0987"/>
<ellipse fill="none" stroke="#000000" cx="363.84" cy="-475.369" rx="3.2" ry="3.2"/>
</g>
<!-- Subjects&#45;&gt;Professors -->
<g id="edge49" class="edge">
<title>Subjects:w&#45;&gt;Professors:e</title>
<path fill="none" stroke="#000000" d="M360.8159,-433.3113C341.0397,-443.3243 348.8664,-477.2542 328,-501.4229 316.055,-515.2584 301.6143,-529.0159 288.1751,-540.848"/>
<polygon fill="#000000" stroke="#000000" points="367.1609,-432.0193 375.7184,-433.9505 371.0804,-431.2211 375,-430.4229 375,-430.4229 375,-430.4229 371.0804,-431.2211 374.2816,-426.8953 367.1609,-432.0193 367.1609,-432.0193"/>
<ellipse fill="none" stroke="#000000" cx="364.0252" cy="-432.6578" rx="3.2" ry="3.2"/>
</g>
<!-- QuestionResponses -->
<g id="node17" class="node">
<title>QuestionResponses</title>
<g id="a_node17"><a xlink:href="../../tables/QuestionResponses.html" xlink:title="QuestionResponses" target="_top">
<polygon fill="#ffffff" stroke="transparent" points="1211,-148.9229 1211,-209.9229 1366,-209.9229 1366,-148.9229 1211,-148.9229"/>
<polygon fill="#f5f5f5" stroke="transparent" points="1211.5,-186.4229 1211.5,-209.4229 1366.5,-209.4229 1366.5,-186.4229 1211.5,-186.4229"/>
<polygon fill="none" stroke="#000000" points="1211.5,-186.4229 1211.5,-209.4229 1366.5,-209.4229 1366.5,-186.4229 1211.5,-186.4229"/>
<text text-anchor="start" x="1216.5" y="-195.0229" font-family="Helvetica,sans-Serif" font-weight="bold" font-size="11.00" fill="#000000">QuestionResponses</text>
<text text-anchor="start" x="1332.0219" y="-194.5229" font-family="Helvetica,sans-Serif" font-size="11.00" fill="#000000">[table]</text>
<polygon fill="none" stroke="#000000" points="1211.5,-167.4229 1211.5,-186.4229 1366.5,-186.4229 1366.5,-167.4229 1211.5,-167.4229"/>
<text text-anchor="start" x="1214.5" y="-173.5229" font-family="Helvetica,sans-Serif" font-size="11.00" fill="#000000">...</text>
<polygon fill="#ffffff" stroke="transparent" points="1211.5,-148.4229 1211.5,-167.4229 1274.5,-167.4229 1274.5,-148.4229 1211.5,-148.4229"/>
<polygon fill="none" stroke="#000000" points="1211.5,-148.4229 1211.5,-167.4229 1274.5,-167.4229 1274.5,-148.4229 1211.5,-148.4229"/>
<text text-anchor="start" x="1214.5" y="-154.5229" font-family="Helvetica,sans-Serif" font-size="11.00" fill="#000000">&lt; 4</text>
<polygon fill="#ffffff" stroke="transparent" points="1274.5,-148.4229 1274.5,-167.4229 1333.5,-167.4229 1333.5,-148.4229 1274.5,-148.4229"/>
<polygon fill="none" stroke="#000000" points="1274.5,-148.4229 1274.5,-167.4229 1333.5,-167.4229 1333.5,-148.4229 1274.5,-148.4229"/>
<text text-anchor="start" x="1298.1105" y="-154.5229" font-family="Helvetica,sans-Serif" font-size="11.00" fill="#000000">0 rows</text>
<polygon fill="#ffffff" stroke="transparent" points="1333.5,-148.4229 1333.5,-167.4229 1366.5,-167.4229 1366.5,-148.4229 1333.5,-148.4229"/>
<polygon fill="none" stroke="#000000" points="1333.5,-148.4229 1333.5,-167.4229 1366.5,-167.4229 1366.5,-148.4229 1333.5,-148.4229"/>
<text text-anchor="start" x="1357.3862" y="-154.5229" font-family="Helvetica,sans-Serif" font-size="11.00" fill="#000000"> &#160;</text>
</a>
</g>
</g>
<!-- QuestionResponses&#45;&gt;AspNetUsers -->
<g id="edge29" class="edge">
<title>QuestionResponses:w&#45;&gt;AspNetUsers:e</title>
<path fill="none" stroke="#000000" d="M1196.8881,-175.7865C1006.131,-164.7315 967.57,-52.4229 769,-52.4229 769,-52.4229 769,-52.4229 484,-52.4229 340.23,-52.4229 266.061,7.8181 163,-92.4229 118.6649,-135.5449 78.2331,-576.9547 67.6716,-704.8937"/>
<polygon fill="#000000" stroke="#000000" points="1203.5076,-176.0748 1211.3433,-180.0195 1207.5038,-176.2488 1211.5,-176.4229 1211.5,-176.4229 1211.5,-176.4229 1207.5038,-176.2488 1211.6567,-172.8263 1203.5076,-176.0748 1203.5076,-176.0748"/>
<ellipse fill="none" stroke="#000000" cx="1200.3106" cy="-175.9355" rx="3.2" ry="3.2"/>
</g>
<!-- QuestionResponses&#45;&gt;AspNetUsers -->
<g id="edge32" class="edge">
<title>QuestionResponses:w&#45;&gt;AspNetUsers:e</title>
<path fill="none" stroke="#000000" d="M1196.8881,-176.7156C1006.131,-177.7315 967.57,-65.4229 769,-65.4229 769,-65.4229 769,-65.4229 484,-65.4229 340.23,-65.4229 266.061,-5.1819 163,-105.4229 119.2702,-147.9562 79.3377,-577.9768 68.1208,-704.59"/>
<polygon fill="#000000" stroke="#000000" points="1203.5016,-176.5832 1211.5721,-180.0222 1207.5008,-176.5031 1211.5,-176.4229 1211.5,-176.4229 1211.5,-176.4229 1207.5008,-176.5031 1211.4279,-172.8236 1203.5016,-176.5832 1203.5016,-176.5832"/>
<ellipse fill="none" stroke="#000000" cx="1200.3022" cy="-176.6473" rx="3.2" ry="3.2"/>
</g>
<!-- QuestionResponses&#45;&gt;FormQuestions -->
<g id="edge30" class="edge">
<title>QuestionResponses:w&#45;&gt;FormQuestions:e</title>
<path fill="none" stroke="#000000" d="M1197.0464,-178.8313C1169.2132,-190.1754 1189.1757,-239.3226 1170,-277.4229 1064.7669,-486.5116 1048.9545,-549.5239 898,-728.4229 766.2476,-884.5651 752.3014,-1026.4229 548,-1026.4229"/>
<polygon fill="#000000" stroke="#000000" points="1203.6088,-177.7378 1212.0917,-179.974 1207.5544,-177.0804 1211.5,-176.4229 1211.5,-176.4229 1211.5,-176.4229 1207.5544,-177.0804 1210.9083,-172.8719 1203.6088,-177.7378 1203.6088,-177.7378"/>
<ellipse fill="none" stroke="#000000" cx="1200.4523" cy="-178.2638" rx="3.2" ry="3.2"/>
</g>
<!-- StudentCompetencyEvaluations -->
<g id="node18" class="node">
<title>StudentCompetencyEvaluations</title>
<g id="a_node18"><a xlink:href="../../tables/StudentCompetencyEvaluations.html" xlink:title="StudentCompetencyEvaluations" target="_top">
<polygon fill="#ffffff" stroke="transparent" points="939,-205.9229 939,-266.9229 1162,-266.9229 1162,-205.9229 939,-205.9229"/>
<polygon fill="#f5f5f5" stroke="transparent" points="939.5,-243.4229 939.5,-266.4229 1162.5,-266.4229 1162.5,-243.4229 939.5,-243.4229"/>
<polygon fill="none" stroke="#000000" points="939.5,-243.4229 939.5,-266.4229 1162.5,-266.4229 1162.5,-243.4229 939.5,-243.4229"/>
<text text-anchor="start" x="944.5" y="-252.0229" font-family="Helvetica,sans-Serif" font-weight="bold" font-size="11.00" fill="#000000">StudentCompetencyEvaluations</text>
<text text-anchor="start" x="1128.0219" y="-251.5229" font-family="Helvetica,sans-Serif" font-size="11.00" fill="#000000">[table]</text>
<polygon fill="none" stroke="#000000" points="939.5,-224.4229 939.5,-243.4229 1162.5,-243.4229 1162.5,-224.4229 939.5,-224.4229"/>
<text text-anchor="start" x="942.5" y="-230.5229" font-family="Helvetica,sans-Serif" font-size="11.00" fill="#000000">...</text>
<polygon fill="#ffffff" stroke="transparent" points="939.5,-205.4229 939.5,-224.4229 1031.5,-224.4229 1031.5,-205.4229 939.5,-205.4229"/>
<polygon fill="none" stroke="#000000" points="939.5,-205.4229 939.5,-224.4229 1031.5,-224.4229 1031.5,-205.4229 939.5,-205.4229"/>
<text text-anchor="start" x="942.5" y="-211.5229" font-family="Helvetica,sans-Serif" font-size="11.00" fill="#000000">&lt; 5</text>
<polygon fill="#ffffff" stroke="transparent" points="1031.5,-205.4229 1031.5,-224.4229 1105.5,-224.4229 1105.5,-205.4229 1031.5,-205.4229"/>
<polygon fill="none" stroke="#000000" points="1031.5,-205.4229 1031.5,-224.4229 1105.5,-224.4229 1105.5,-205.4229 1031.5,-205.4229"/>
<text text-anchor="start" x="1070.1105" y="-211.5229" font-family="Helvetica,sans-Serif" font-size="11.00" fill="#000000">0 rows</text>
<polygon fill="#ffffff" stroke="transparent" points="1105.5,-205.4229 1105.5,-224.4229 1162.5,-224.4229 1162.5,-205.4229 1105.5,-205.4229"/>
<polygon fill="none" stroke="#000000" points="1105.5,-205.4229 1105.5,-224.4229 1162.5,-224.4229 1162.5,-205.4229 1105.5,-205.4229"/>
<text text-anchor="start" x="1143.9053" y="-211.5229" font-family="Helvetica,sans-Serif" font-size="11.00" fill="#000000">1 &gt;</text>
</a>
</g>
</g>
<!-- QuestionResponses&#45;&gt;StudentCompetencyEvaluations -->
<g id="edge31" class="edge">
<title>QuestionResponses:w&#45;&gt;StudentCompetencyEvaluations:e</title>
<path fill="none" stroke="#000000" d="M1196.9525,-177.111C1167.2123,-179.8526 1137.1138,-190.4064 1112.0024,-201.8683"/>
<polygon fill="#000000" stroke="#000000" points="1203.5089,-176.8009 1211.6701,-180.0189 1207.5045,-176.6119 1211.5,-176.4229 1211.5,-176.4229 1211.5,-176.4229 1207.5045,-176.6119 1211.3299,-172.8269 1203.5089,-176.8009 1203.5089,-176.8009"/>
<ellipse fill="none" stroke="#000000" cx="1200.3125" cy="-176.9521" rx="3.2" ry="3.2"/>
</g>
<!-- StudentCompetencyEvaluations&#45;&gt;AspNetUsers -->
<g id="edge33" class="edge">
<title>StudentCompetencyEvaluations:w&#45;&gt;AspNetUsers:e</title>
<path fill="none" stroke="#000000" d="M1013.7278,-191.0932C985.2708,-162.0087 943.1948,-126.9697 898,-111.4229 777.992,-70.1408 219.2451,-78.8012 163,-128.4229 119.3648,-166.9196 78.7461,-581.371 67.8493,-704.9112"/>
<polygon fill="#000000" stroke="#000000" points="1018.448,-196.0836 1021.3301,-204.3694 1021.1968,-198.9896 1023.9455,-201.8956 1023.9455,-201.8956 1023.9455,-201.8956 1021.1968,-198.9896 1026.5608,-199.4217 1018.448,-196.0836 1018.448,-196.0836"/>
<ellipse fill="none" stroke="#000000" cx="1016.2491" cy="-193.7588" rx="3.2" ry="3.2"/>
</g>
<!-- StudentCompetencyEvaluations&#45;&gt;AspNetUsers -->
<g id="edge37" class="edge">
<title>StudentCompetencyEvaluations:w&#45;&gt;AspNetUsers:e</title>
<path fill="none" stroke="#000000" d="M1002.6229,-191.6264C974.8679,-166.6801 937.6332,-138.0565 898,-124.4229 777.992,-83.1408 219.2451,-91.8012 163,-141.4229 119.9632,-179.3917 79.8608,-583.0739 68.3143,-704.8843"/>
<polygon fill="#000000" stroke="#000000" points="1007.6524,-196.2592 1011.0976,-204.3272 1010.5945,-198.9693 1013.5366,-201.6793 1013.5366,-201.6793 1013.5366,-201.6793 1010.5945,-198.9693 1015.9756,-199.0314 1007.6524,-196.2592 1007.6524,-196.2592"/>
<ellipse fill="none" stroke="#000000" cx="1005.2988" cy="-194.0912" rx="3.2" ry="3.2"/>
</g>
<!-- StudentCompetencyEvaluations&#45;&gt;ProfessorCompetencyAssignments -->
<g id="edge34" class="edge">
<title>StudentCompetencyEvaluations:w&#45;&gt;ProfessorCompetencyAssignments:e</title>
<path fill="none" stroke="#000000" d="M1021.1678,-283.4169C964.4127,-374.346 840.761,-572.4524 790.6951,-652.6645"/>
<polygon fill="#000000" stroke="#000000" points="1024.6426,-277.8498 1031.9325,-272.9694 1026.7606,-274.4565 1028.8786,-271.0633 1028.8786,-271.0633 1028.8786,-271.0633 1026.7606,-274.4565 1025.8246,-269.1571 1024.6426,-277.8498 1024.6426,-277.8498"/>
<ellipse fill="none" stroke="#000000" cx="1022.9482" cy="-280.5644" rx="3.2" ry="3.2"/>
</g>
<!-- StudentCompetencyEvaluations&#45;&gt;Subjects -->
<g id="edge36" class="edge">
<title>StudentCompetencyEvaluations:w&#45;&gt;Subjects:e</title>
<path fill="none" stroke="#000000" d="M1011.5855,-281.7115C938.4947,-361.4203 771.9424,-518.4229 594,-518.4229"/>
<polygon fill="#000000" stroke="#000000" points="1015.9044,-276.9354 1023.9403,-273.4162 1018.5872,-273.9685 1021.2701,-271.0016 1021.2701,-271.0016 1021.2701,-271.0016 1018.5872,-273.9685 1018.5999,-268.5871 1015.9044,-276.9354 1015.9044,-276.9354"/>
<ellipse fill="none" stroke="#000000" cx="1013.7581" cy="-279.3089" rx="3.2" ry="3.2"/>
</g>
<!-- Students -->
<g id="node19" class="node">
<title>Students</title>
<g id="a_node19"><a xlink:href="../../tables/Students.html" xlink:title="Students" target="_top">
<polygon fill="#ffffff" stroke="transparent" points="439,-205.9229 439,-266.9229 529,-266.9229 529,-205.9229 439,-205.9229"/>
<polygon fill="#f5f5f5" stroke="transparent" points="439,-243.4229 439,-266.4229 529,-266.4229 529,-243.4229 439,-243.4229"/>
<polygon fill="none" stroke="#000000" points="439,-243.4229 439,-266.4229 529,-266.4229 529,-243.4229 439,-243.4229"/>
<text text-anchor="start" x="444" y="-252.0229" font-family="Helvetica,sans-Serif" font-weight="bold" font-size="11.00" fill="#000000">Students</text>
<text text-anchor="start" x="494.5219" y="-251.5229" font-family="Helvetica,sans-Serif" font-size="11.00" fill="#000000">[table]</text>
<polygon fill="none" stroke="#000000" points="439,-224.4229 439,-243.4229 529,-243.4229 529,-224.4229 439,-224.4229"/>
<text text-anchor="start" x="442" y="-230.5229" font-family="Helvetica,sans-Serif" font-size="11.00" fill="#000000">...</text>
<polygon fill="#ffffff" stroke="transparent" points="439,-205.4229 439,-224.4229 465,-224.4229 465,-205.4229 439,-205.4229"/>
<polygon fill="none" stroke="#000000" points="439,-205.4229 439,-224.4229 465,-224.4229 465,-205.4229 439,-205.4229"/>
<text text-anchor="start" x="442" y="-211.5229" font-family="Helvetica,sans-Serif" font-size="11.00" fill="#000000">&lt; 2</text>
<polygon fill="#ffffff" stroke="transparent" points="465,-205.4229 465,-224.4229 505,-224.4229 505,-205.4229 465,-205.4229"/>
<polygon fill="none" stroke="#000000" points="465,-205.4229 465,-224.4229 505,-224.4229 505,-205.4229 465,-205.4229"/>
<text text-anchor="start" x="469.6105" y="-211.5229" font-family="Helvetica,sans-Serif" font-size="11.00" fill="#000000">0 rows</text>
<polygon fill="#ffffff" stroke="transparent" points="505,-205.4229 505,-224.4229 529,-224.4229 529,-205.4229 505,-205.4229"/>
<polygon fill="none" stroke="#000000" points="505,-205.4229 505,-224.4229 529,-224.4229 529,-205.4229 505,-205.4229"/>
<text text-anchor="start" x="510.4053" y="-211.5229" font-family="Helvetica,sans-Serif" font-size="11.00" fill="#000000">3 &gt;</text>
</a>
</g>
</g>
<!-- StudentCompetencyEvaluations&#45;&gt;Students -->
<g id="edge35" class="edge">
<title>StudentCompetencyEvaluations:w&#45;&gt;Students:e</title>
<path fill="none" stroke="#000000" d="M933.9654,-274.4914C921.9222,-277.3152 909.782,-279.7209 898,-281.4229 784.5114,-297.8177 752.2872,-304.6614 640,-281.4229 587.367,-270.5302 582.7484,-233.4229 529,-233.4229"/>
<polygon fill="#000000" stroke="#000000" points="940.2667,-272.928 948.8982,-274.4955 944.149,-271.9648 948.0313,-271.0015 948.0313,-271.0015 948.0313,-271.0015 944.149,-271.9648 947.1643,-267.5074 940.2667,-272.928 940.2667,-272.928"/>
<ellipse fill="none" stroke="#000000" cx="937.1609" cy="-273.6986" rx="3.2" ry="3.2"/>
</g>
<!-- Students&#45;&gt;AspNetUsers -->
<g id="edge43" class="edge">
<title>Students:w&#45;&gt;AspNetUsers:e</title>
<path fill="none" stroke="#000000" d="M428.2357,-233.4078C306.9664,-233.09 247.9674,-228.7765 163,-320.4229 110.558,-376.9872 78.9541,-614.9278 68.693,-704.829"/>
<polygon fill="#000000" stroke="#000000" points="438.2057,-229.4218 438.1943,-237.4218 436.5943,-237.4195 436.6057,-229.4195 438.2057,-229.4218"/>
<polyline fill="none" stroke="#000000" points="439,-233.4229 435,-233.4173 "/>
<ellipse fill="none" stroke="#000000" cx="431.8" cy="-233.4127" rx="3.2" ry="3.2"/>
</g>
<!-- Students&#45;&gt;TechnicalCareers -->
<g id="edge42" class="edge">
<title>Students:w&#45;&gt;TechnicalCareers:e</title>
<path fill="none" stroke="#000000" d="M424.2941,-234.0051C394.6552,-236.6042 379.5592,-248.3214 361,-277.4229 310.5408,-356.5449 380.5141,-620.6496 328,-698.4229 326.4785,-700.6763 324.7952,-702.8113 322.9784,-704.8335"/>
<polygon fill="#000000" stroke="#000000" points="431.0063,-233.7395 439.1424,-237.0201 435.0031,-233.5812 439,-233.4229 439,-233.4229 439,-233.4229 435.0031,-233.5812 438.8576,-229.8257 431.0063,-233.7395 431.0063,-233.7395"/>
<ellipse fill="none" stroke="#000000" cx="427.8088" cy="-233.8661" rx="3.2" ry="3.2"/>
</g>
<!-- StudentEvaluationReport -->
<g id="node20" class="node">
<title>StudentEvaluationReport</title>
<g id="a_node20"><a xlink:href="../../tables/StudentEvaluationReport.html" xlink:title="StudentEvaluationReport" target="_top">
<polygon fill="#ffffff" stroke="transparent" points="677.5,-209.9229 677.5,-270.9229 860.5,-270.9229 860.5,-209.9229 677.5,-209.9229"/>
<polygon fill="#f5f5f5" stroke="transparent" points="678,-247.4229 678,-270.4229 861,-270.4229 861,-247.4229 678,-247.4229"/>
<polygon fill="none" stroke="#000000" points="678,-247.4229 678,-270.4229 861,-270.4229 861,-247.4229 678,-247.4229"/>
<text text-anchor="start" x="683" y="-256.0229" font-family="Helvetica,sans-Serif" font-weight="bold" font-size="11.00" fill="#000000">StudentEvaluationReport</text>
<text text-anchor="start" x="826.5219" y="-255.5229" font-family="Helvetica,sans-Serif" font-size="11.00" fill="#000000">[table]</text>
<polygon fill="none" stroke="#000000" points="678,-228.4229 678,-247.4229 861,-247.4229 861,-228.4229 678,-228.4229"/>
<text text-anchor="start" x="681" y="-234.5229" font-family="Helvetica,sans-Serif" font-size="11.00" fill="#000000">...</text>
<polygon fill="#ffffff" stroke="transparent" points="678,-209.4229 678,-228.4229 755,-228.4229 755,-209.4229 678,-209.4229"/>
<polygon fill="none" stroke="#000000" points="678,-209.4229 678,-228.4229 755,-228.4229 755,-209.4229 678,-209.4229"/>
<text text-anchor="start" x="681" y="-215.5229" font-family="Helvetica,sans-Serif" font-size="11.00" fill="#000000">&lt; 4</text>
<polygon fill="#ffffff" stroke="transparent" points="755,-209.4229 755,-228.4229 821,-228.4229 821,-209.4229 755,-209.4229"/>
<polygon fill="none" stroke="#000000" points="755,-209.4229 755,-228.4229 821,-228.4229 821,-209.4229 755,-209.4229"/>
<text text-anchor="start" x="785.6105" y="-215.5229" font-family="Helvetica,sans-Serif" font-size="11.00" fill="#000000">0 rows</text>
<polygon fill="#ffffff" stroke="transparent" points="821,-209.4229 821,-228.4229 861,-228.4229 861,-209.4229 821,-209.4229"/>
<polygon fill="none" stroke="#000000" points="821,-209.4229 821,-228.4229 861,-228.4229 861,-209.4229 821,-209.4229"/>
<text text-anchor="start" x="851.8862" y="-215.5229" font-family="Helvetica,sans-Serif" font-size="11.00" fill="#000000"> &#160;</text>
</a>
</g>
</g>
<!-- StudentEvaluationReport&#45;&gt;AspNetUsers -->
<g id="edge38" class="edge">
<title>StudentEvaluationReport:w&#45;&gt;AspNetUsers:e</title>
<path fill="none" stroke="#000000" d="M663.9224,-233.1712C640.8397,-222.3259 637.1141,-197.663 607,-189.4229 511.5019,-163.2919 233.2264,-156.6306 163,-226.4229 95.1988,-293.8049 72.3531,-600.7358 66.6137,-704.835"/>
<polygon fill="#000000" stroke="#000000" points="670.3417,-235.1099 676.9591,-240.8692 674.1708,-236.2664 678,-237.4229 678,-237.4229 678,-237.4229 674.1708,-236.2664 679.0409,-233.9767 670.3417,-235.1099 670.3417,-235.1099"/>
<ellipse fill="none" stroke="#000000" cx="667.2783" cy="-234.1847" rx="3.2" ry="3.2"/>
</g>
<!-- StudentEvaluationReport&#45;&gt;AspNetUsers -->
<g id="edge41" class="edge">
<title>StudentEvaluationReport:w&#45;&gt;AspNetUsers:e</title>
<path fill="none" stroke="#000000" d="M663.606,-238.1033C640.8049,-235.0999 636.9759,-210.6252 607,-202.4229 511.5019,-176.2919 233.2264,-169.6306 163,-239.4229 96.4706,-305.541 73.2259,-602.3057 66.9549,-704.6666"/>
<polygon fill="#000000" stroke="#000000" points="670.0089,-237.8007 678.17,-241.0189 674.0045,-237.6118 678,-237.4229 678,-237.4229 678,-237.4229 674.0045,-237.6118 677.83,-233.8269 670.0089,-237.8007 670.0089,-237.8007"/>
<ellipse fill="none" stroke="#000000" cx="666.8125" cy="-237.9518" rx="3.2" ry="3.2"/>
</g>
<!-- StudentEvaluationReport&#45;&gt;EvaluationPeriods -->
<g id="edge39" class="edge">
<title>StudentEvaluationReport:w&#45;&gt;EvaluationPeriods:e</title>
<path fill="none" stroke="#000000" d="M663.5045,-238.2183C541.5395,-252.6412 704.9991,-459.6092 607,-564.4229 529.2816,-647.5456 468.0368,-596.7882 361,-635.4229 341.156,-642.5856 338.5971,-654.4229 317.5,-654.4229"/>
<polygon fill="#000000" stroke="#000000" points="670.012,-237.8613 678.1973,-241.0175 674.006,-237.6421 678,-237.4229 678,-237.4229 678,-237.4229 674.006,-237.6421 677.8027,-233.8283 670.012,-237.8613 670.012,-237.8613"/>
<ellipse fill="none" stroke="#000000" cx="666.8168" cy="-238.0367" rx="3.2" ry="3.2"/>
</g>
<!-- StudentEvaluationReport&#45;&gt;Students -->
<g id="edge40" class="edge">
<title>StudentEvaluationReport:w&#45;&gt;Students:e</title>
<path fill="none" stroke="#000000" d="M663.3369,-237.3535C608.871,-236.8223 590.0706,-233.4229 529,-233.4229"/>
<polygon fill="#000000" stroke="#000000" points="670.0001,-237.385 677.9829,-241.0229 674,-237.4039 678,-237.4229 678,-237.4229 678,-237.4229 674,-237.4039 678.0171,-233.823 670.0001,-237.385 670.0001,-237.385"/>
<ellipse fill="none" stroke="#000000" cx="666.8001" cy="-237.3698" rx="3.2" ry="3.2"/>
</g>
<!-- StudentSubjects -->
<g id="node21" class="node">
<title>StudentSubjects</title>
<g id="a_node21"><a xlink:href="../../tables/StudentSubjects.html" xlink:title="StudentSubjects" target="_top">
<polygon fill="#ffffff" stroke="transparent" points="702.5,-127.9229 702.5,-188.9229 835.5,-188.9229 835.5,-127.9229 702.5,-127.9229"/>
<polygon fill="#f5f5f5" stroke="transparent" points="703,-165.4229 703,-188.4229 836,-188.4229 836,-165.4229 703,-165.4229"/>
<polygon fill="none" stroke="#000000" points="703,-165.4229 703,-188.4229 836,-188.4229 836,-165.4229 703,-165.4229"/>
<text text-anchor="start" x="708" y="-174.0229" font-family="Helvetica,sans-Serif" font-weight="bold" font-size="11.00" fill="#000000">StudentSubjects</text>
<text text-anchor="start" x="801.5219" y="-173.5229" font-family="Helvetica,sans-Serif" font-size="11.00" fill="#000000">[table]</text>
<polygon fill="none" stroke="#000000" points="703,-146.4229 703,-165.4229 836,-165.4229 836,-146.4229 703,-146.4229"/>
<text text-anchor="start" x="706" y="-152.5229" font-family="Helvetica,sans-Serif" font-size="11.00" fill="#000000">...</text>
<polygon fill="#ffffff" stroke="transparent" points="703,-127.4229 703,-146.4229 755,-146.4229 755,-127.4229 703,-127.4229"/>
<polygon fill="none" stroke="#000000" points="703,-127.4229 703,-146.4229 755,-146.4229 755,-127.4229 703,-127.4229"/>
<text text-anchor="start" x="706" y="-133.5229" font-family="Helvetica,sans-Serif" font-size="11.00" fill="#000000">&lt; 4</text>
<polygon fill="#ffffff" stroke="transparent" points="755,-127.4229 755,-146.4229 808,-146.4229 808,-127.4229 755,-127.4229"/>
<polygon fill="none" stroke="#000000" points="755,-127.4229 755,-146.4229 808,-146.4229 808,-127.4229 755,-127.4229"/>
<text text-anchor="start" x="772.6105" y="-133.5229" font-family="Helvetica,sans-Serif" font-size="11.00" fill="#000000">0 rows</text>
<polygon fill="#ffffff" stroke="transparent" points="808,-127.4229 808,-146.4229 836,-146.4229 836,-127.4229 808,-127.4229"/>
<polygon fill="none" stroke="#000000" points="808,-127.4229 808,-146.4229 836,-146.4229 836,-127.4229 808,-127.4229"/>
<text text-anchor="start" x="826.8862" y="-133.5229" font-family="Helvetica,sans-Serif" font-size="11.00" fill="#000000"> &#160;</text>
</a>
</g>
</g>
<!-- StudentSubjects&#45;&gt;AspNetUsers -->
<g id="edge44" class="edge">
<title>StudentSubjects:w&#45;&gt;AspNetUsers:e</title>
<path fill="none" stroke="#000000" d="M679.7975,-144.7707C530.1976,-127.6356 237.7414,-108.3842 163,-173.4229 82.773,-243.235 68.1707,-592.3402 65.5584,-704.6311"/>
<polygon fill="#000000" stroke="#000000" points="686.3087,-145.5371 693.833,-150.0476 690.2813,-146.0047 694.2539,-146.4723 694.2539,-146.4723 694.2539,-146.4723 690.2813,-146.0047 694.6747,-142.897 686.3087,-145.5371 686.3087,-145.5371"/>
<ellipse fill="none" stroke="#000000" cx="683.1307" cy="-145.163" rx="3.2" ry="3.2"/>
</g>
<!-- StudentSubjects&#45;&gt;AspNetUsers -->
<g id="edge47" class="edge">
<title>StudentSubjects:w&#45;&gt;AspNetUsers:e</title>
<path fill="none" stroke="#000000" d="M679.7975,-152.603C530.1976,-140.6356 237.7414,-121.3842 163,-186.4229 84.076,-255.1012 68.6624,-594.074 65.6954,-704.5917"/>
<polygon fill="#000000" stroke="#000000" points="686.2798,-153.1266 693.9639,-157.3592 690.2669,-153.4487 694.2539,-153.7709 694.2539,-153.7709 694.2539,-153.7709 690.2669,-153.4487 694.5438,-150.1826 686.2798,-153.1266 686.2798,-153.1266"/>
<ellipse fill="none" stroke="#000000" cx="683.0902" cy="-152.8689" rx="3.2" ry="3.2"/>
</g>
<!-- StudentSubjects&#45;&gt;Subjects -->
<g id="edge46" class="edge">
<title>StudentSubjects:w&#45;&gt;Subjects:e</title>
<path fill="none" stroke="#000000" d="M680.5032,-172.0315C665.1,-178.1243 650.6361,-186.8754 640,-199.4229 593.6881,-254.0575 665.6221,-518.4229 594,-518.4229"/>
<polygon fill="#000000" stroke="#000000" points="686.6409,-169.9275 695.376,-170.7385 690.4247,-168.6303 694.2085,-167.3331 694.2085,-167.3331 694.2085,-167.3331 690.4247,-168.6303 693.0411,-163.9276 686.6409,-169.9275 686.6409,-169.9275"/>
<ellipse fill="none" stroke="#000000" cx="683.6138" cy="-170.9652" rx="3.2" ry="3.2"/>
</g>
<!-- StudentSubjects&#45;&gt;Students -->
<g id="edge45" class="edge">
<title>StudentSubjects:w&#45;&gt;Students:e</title>
<path fill="none" stroke="#000000" d="M680.1557,-186.5172C612.6642,-207.808 531.0409,-233.4229 529,-233.4229"/>
<polygon fill="#000000" stroke="#000000" points="686.6803,-184.4582 695.3929,-185.4835 690.4948,-183.2543 694.3094,-182.0504 694.3094,-182.0504 694.3094,-182.0504 690.4948,-183.2543 693.2259,-178.6173 686.6803,-184.4582 686.6803,-184.4582"/>
<ellipse fill="none" stroke="#000000" cx="683.6286" cy="-185.4212" rx="3.2" ry="3.2"/>
</g>
</g>
</svg>
