<?xml version="1.0" encoding="UTF-8" standalone="no"?>
<!DOCTYPE svg PUBLIC "-//W3C//DTD SVG 1.1//EN"
 "http://www.w3.org/Graphics/SVG/1.1/DTD/svg11.dtd">
<!-- Generated by graphviz version 2.40.1 (20161225.0304)
 -->
<!-- Title: oneDegreeRelationshipsDiagram Pages: 1 -->
<svg width="829pt" height="442pt"
 viewBox="0.00 0.00 829.00 442.20" xmlns="http://www.w3.org/2000/svg" xmlns:xlink="http://www.w3.org/1999/xlink">
<g id="graph0" class="graph" transform="scale(1 1) rotate(0) translate(4 438.2)">
<title>oneDegreeRelationshipsDiagram</title>
<polygon fill="#ffffff" stroke="transparent" points="-4,4 -4,-438.2 825,-438.2 825,4 -4,4"/>
<text text-anchor="middle" x="72.4936" y="-7.3" font-family="Helvetica,sans-Serif" font-size="11.00" fill="#000000">Generated by SchemaSpy</text>
<!-- Professors -->
<g id="node1" class="node">
<title>Professors</title>
<g id="a_node1"><a xlink:href="../../tables/Professors.html" xlink:title="Professors" target="_top">
<polygon fill="#ffffff" stroke="transparent" points="239,-199.2 239,-282.2 340,-282.2 340,-199.2 239,-199.2"/>
<polygon fill="#f5f5f5" stroke="transparent" points="239.5,-258.7 239.5,-281.7 340.5,-281.7 340.5,-258.7 239.5,-258.7"/>
<polygon fill="none" stroke="#000000" points="239.5,-258.7 239.5,-281.7 340.5,-281.7 340.5,-258.7 239.5,-258.7"/>
<text text-anchor="start" x="244.5" y="-267.3" font-family="Helvetica,sans-Serif" font-weight="bold" font-size="11.00" fill="#000000">Professors</text>
<text text-anchor="start" x="306.0219" y="-266.8" font-family="Helvetica,sans-Serif" font-size="11.00" fill="#000000">[table]</text>
<polygon fill="none" stroke="#000000" points="239.5,-236.7 239.5,-258.7 340.5,-258.7 340.5,-236.7 239.5,-236.7"/>
<image xlink:href="../../images/primaryKeys.png" width="11px" height="12px" preserveAspectRatio="xMinYMin meet" x="244.5" y="-253.7"/>
<text text-anchor="start" x="268.5" y="-243.8" font-family="Helvetica,sans-Serif" font-size="11.00" fill="#000000">UserId</text>
<polygon fill="none" stroke="#000000" points="239.5,-217.7 239.5,-236.7 340.5,-236.7 340.5,-217.7 239.5,-217.7"/>
<text text-anchor="start" x="242.5" y="-223.8" font-family="Helvetica,sans-Serif" font-size="11.00" fill="#000000">...</text>
<polygon fill="#ffffff" stroke="transparent" points="239.5,-198.7 239.5,-217.7 270.5,-217.7 270.5,-198.7 239.5,-198.7"/>
<polygon fill="none" stroke="#000000" points="239.5,-198.7 239.5,-217.7 270.5,-217.7 270.5,-198.7 239.5,-198.7"/>
<text text-anchor="start" x="242.5" y="-204.8" font-family="Helvetica,sans-Serif" font-size="11.00" fill="#000000">&lt; 1</text>
<polygon fill="#ffffff" stroke="transparent" points="270.5,-198.7 270.5,-217.7 313.5,-217.7 313.5,-198.7 270.5,-198.7"/>
<polygon fill="none" stroke="#000000" points="270.5,-198.7 270.5,-217.7 313.5,-217.7 313.5,-198.7 270.5,-198.7"/>
<text text-anchor="start" x="278.1105" y="-204.8" font-family="Helvetica,sans-Serif" font-size="11.00" fill="#000000">0 rows</text>
<polygon fill="#ffffff" stroke="transparent" points="313.5,-198.7 313.5,-217.7 340.5,-217.7 340.5,-198.7 313.5,-198.7"/>
<polygon fill="none" stroke="#000000" points="313.5,-198.7 313.5,-217.7 340.5,-217.7 340.5,-198.7 313.5,-198.7"/>
<text text-anchor="start" x="321.9053" y="-204.8" font-family="Helvetica,sans-Serif" font-size="11.00" fill="#000000">2 &gt;</text>
</a>
</g>
</g>
<!-- AspNetUsers -->
<g id="node2" class="node">
<title>AspNetUsers</title>
<g id="a_node2"><a xlink:href="../../tables/AspNetUsers.html" xlink:title="AspNetUsers" target="_top">
<polygon fill="#ffffff" stroke="transparent" points="8,-82.2 8,-209.2 171,-209.2 171,-82.2 8,-82.2"/>
<polygon fill="#f5f5f5" stroke="transparent" points="8.5,-185.7 8.5,-208.7 171.5,-208.7 171.5,-185.7 8.5,-185.7"/>
<polygon fill="none" stroke="#000000" points="8.5,-185.7 8.5,-208.7 171.5,-208.7 171.5,-185.7 8.5,-185.7"/>
<text text-anchor="start" x="13.5" y="-194.3" font-family="Helvetica,sans-Serif" font-weight="bold" font-size="11.00" fill="#000000">AspNetUsers</text>
<text text-anchor="start" x="136.5437" y="-193.8" font-family="Helvetica,sans-Serif" font-size="11.00" fill="#000000">[table]</text>
<polygon fill="none" stroke="#000000" points="8.5,-163.7 8.5,-185.7 171.5,-185.7 171.5,-163.7 8.5,-163.7"/>
<image xlink:href="../../images/primaryKeys.png" width="11px" height="12px" preserveAspectRatio="xMinYMin meet" x="13.5" y="-180.7"/>
<text text-anchor="start" x="28.5" y="-170.8" font-family="Helvetica,sans-Serif" font-size="11.00" fill="#000000">Id</text>
<polygon fill="#ffffff" stroke="transparent" points="8.5,-141.7 8.5,-163.7 171.5,-163.7 171.5,-141.7 8.5,-141.7"/>
<polygon fill="none" stroke="#000000" points="8.5,-141.7 8.5,-163.7 171.5,-163.7 171.5,-141.7 8.5,-141.7"/>
<text text-anchor="start" x="28.5" y="-148.8" font-family="Helvetica,sans-Serif" font-size="11.00" fill="#000000">NormalizedUserName</text>
<polygon fill="#ffffff" stroke="transparent" points="8.5,-119.7 8.5,-141.7 171.5,-141.7 171.5,-119.7 8.5,-119.7"/>
<polygon fill="none" stroke="#000000" points="8.5,-119.7 8.5,-141.7 171.5,-141.7 171.5,-119.7 8.5,-119.7"/>
<text text-anchor="start" x="28.5" y="-126.8" font-family="Helvetica,sans-Serif" font-size="11.00" fill="#000000">NormalizedEmail</text>
<polygon fill="none" stroke="#000000" points="8.5,-100.7 8.5,-119.7 171.5,-119.7 171.5,-100.7 8.5,-100.7"/>
<text text-anchor="start" x="11.5" y="-106.8" font-family="Helvetica,sans-Serif" font-size="11.00" fill="#000000">...</text>
<polygon fill="#ffffff" stroke="transparent" points="8.5,-81.7 8.5,-100.7 63.5,-100.7 63.5,-81.7 8.5,-81.7"/>
<polygon fill="none" stroke="#000000" points="8.5,-81.7 8.5,-100.7 63.5,-100.7 63.5,-81.7 8.5,-81.7"/>
<text text-anchor="start" x="11.5" y="-87.8" font-family="Helvetica,sans-Serif" font-size="11.00" fill="#000000"> &#160;</text>
<polygon fill="#ffffff" stroke="transparent" points="63.5,-81.7 63.5,-100.7 122.5,-100.7 122.5,-81.7 63.5,-81.7"/>
<polygon fill="none" stroke="#000000" points="63.5,-81.7 63.5,-100.7 122.5,-100.7 122.5,-81.7 63.5,-81.7"/>
<text text-anchor="start" x="87.1105" y="-87.8" font-family="Helvetica,sans-Serif" font-size="11.00" fill="#000000">0 rows</text>
<polygon fill="#ffffff" stroke="transparent" points="122.5,-81.7 122.5,-100.7 171.5,-100.7 171.5,-81.7 122.5,-81.7"/>
<polygon fill="none" stroke="#000000" points="122.5,-81.7 122.5,-100.7 171.5,-100.7 171.5,-81.7 122.5,-81.7"/>
<text text-anchor="start" x="146.7904" y="-87.8" font-family="Helvetica,sans-Serif" font-size="11.00" fill="#000000">29 &gt;</text>
</a>
</g>
</g>
<!-- Professors&#45;&gt;AspNetUsers -->
<g id="edge1" class="edge">
<title>Professors:w&#45;&gt;AspNetUsers:e</title>
<path fill="none" stroke="#000000" d="M229.0292,-246.0381C198.3512,-235.1721 211.8562,-174.7 171.5,-174.7"/>
<polygon fill="#000000" stroke="#000000" points="239.3369,-243.624 238.0828,-251.5251 236.5026,-251.2743 237.7567,-243.3732 239.3369,-243.624"/>
<polyline fill="none" stroke="#000000" points="239.5,-247.7 235.5494,-247.073 "/>
<ellipse fill="none" stroke="#000000" cx="232.389" cy="-246.5713" rx="3.2" ry="3.2"/>
</g>
<!-- StudentSubjects -->
<g id="node3" class="node">
<title>StudentSubjects</title>
<g id="a_node3"><a xlink:href="../../tables/StudentSubjects.html" xlink:title="StudentSubjects" target="_top">
<polygon fill="#ffffff" stroke="transparent" points="680,-38.2 680,-209.2 813,-209.2 813,-38.2 680,-38.2"/>
<polygon fill="#f5f5f5" stroke="transparent" points="680.5,-185.7 680.5,-208.7 813.5,-208.7 813.5,-185.7 680.5,-185.7"/>
<polygon fill="none" stroke="#000000" points="680.5,-185.7 680.5,-208.7 813.5,-208.7 813.5,-185.7 680.5,-185.7"/>
<text text-anchor="start" x="685.5" y="-194.3" font-family="Helvetica,sans-Serif" font-weight="bold" font-size="11.00" fill="#000000">StudentSubjects</text>
<text text-anchor="start" x="779.0219" y="-193.8" font-family="Helvetica,sans-Serif" font-size="11.00" fill="#000000">[table]</text>
<polygon fill="none" stroke="#000000" points="680.5,-163.7 680.5,-185.7 813.5,-185.7 813.5,-163.7 680.5,-163.7"/>
<image xlink:href="../../images/primaryKeys.png" width="11px" height="12px" preserveAspectRatio="xMinYMin meet" x="685.5" y="-180.7"/>
<text text-anchor="start" x="706.5" y="-170.8" font-family="Helvetica,sans-Serif" font-size="11.00" fill="#000000">Id</text>
<polygon fill="#ffffff" stroke="transparent" points="680.5,-141.7 680.5,-163.7 813.5,-163.7 813.5,-141.7 680.5,-141.7"/>
<polygon fill="none" stroke="#000000" points="680.5,-141.7 680.5,-163.7 813.5,-163.7 813.5,-141.7 680.5,-141.7"/>
<image xlink:href="../../images/foreignKeys.png" width="11px" height="12px" preserveAspectRatio="xMinYMin meet" x="685.5" y="-158.7"/>
<text text-anchor="start" x="706.5" y="-148.8" font-family="Helvetica,sans-Serif" font-size="11.00" fill="#000000">StudentId</text>
<polygon fill="#ffffff" stroke="transparent" points="680.5,-119.7 680.5,-141.7 813.5,-141.7 813.5,-119.7 680.5,-119.7"/>
<polygon fill="none" stroke="#000000" points="680.5,-119.7 680.5,-141.7 813.5,-141.7 813.5,-119.7 680.5,-119.7"/>
<image xlink:href="../../images/foreignKeys.png" width="11px" height="12px" preserveAspectRatio="xMinYMin meet" x="685.5" y="-136.7"/>
<text text-anchor="start" x="706.5" y="-126.8" font-family="Helvetica,sans-Serif" font-size="11.00" fill="#000000">SubjectId</text>
<polygon fill="#ffffff" stroke="transparent" points="680.5,-97.7 680.5,-119.7 813.5,-119.7 813.5,-97.7 680.5,-97.7"/>
<polygon fill="none" stroke="#000000" points="680.5,-97.7 680.5,-119.7 813.5,-119.7 813.5,-97.7 680.5,-97.7"/>
<image xlink:href="../../images/foreignKeys.png" width="11px" height="12px" preserveAspectRatio="xMinYMin meet" x="685.5" y="-114.7"/>
<text text-anchor="start" x="706.5" y="-104.8" font-family="Helvetica,sans-Serif" font-size="11.00" fill="#000000">CreatedByUserId</text>
<polygon fill="#ffffff" stroke="transparent" points="680.5,-75.7 680.5,-97.7 813.5,-97.7 813.5,-75.7 680.5,-75.7"/>
<polygon fill="none" stroke="#000000" points="680.5,-75.7 680.5,-97.7 813.5,-97.7 813.5,-75.7 680.5,-75.7"/>
<image xlink:href="../../images/foreignKeys.png" width="11px" height="12px" preserveAspectRatio="xMinYMin meet" x="685.5" y="-92.7"/>
<text text-anchor="start" x="706.5" y="-82.8" font-family="Helvetica,sans-Serif" font-size="11.00" fill="#000000">UpdatedByUserId</text>
<polygon fill="none" stroke="#000000" points="680.5,-56.7 680.5,-75.7 813.5,-75.7 813.5,-56.7 680.5,-56.7"/>
<text text-anchor="start" x="683.5" y="-62.8" font-family="Helvetica,sans-Serif" font-size="11.00" fill="#000000">...</text>
<polygon fill="#ffffff" stroke="transparent" points="680.5,-37.7 680.5,-56.7 732.5,-56.7 732.5,-37.7 680.5,-37.7"/>
<polygon fill="none" stroke="#000000" points="680.5,-37.7 680.5,-56.7 732.5,-56.7 732.5,-37.7 680.5,-37.7"/>
<text text-anchor="start" x="683.5" y="-43.8" font-family="Helvetica,sans-Serif" font-size="11.00" fill="#000000">&lt; 4</text>
<polygon fill="#ffffff" stroke="transparent" points="732.5,-37.7 732.5,-56.7 785.5,-56.7 785.5,-37.7 732.5,-37.7"/>
<polygon fill="none" stroke="#000000" points="732.5,-37.7 732.5,-56.7 785.5,-56.7 785.5,-37.7 732.5,-37.7"/>
<text text-anchor="start" x="750.1105" y="-43.8" font-family="Helvetica,sans-Serif" font-size="11.00" fill="#000000">0 rows</text>
<polygon fill="#ffffff" stroke="transparent" points="785.5,-37.7 785.5,-56.7 813.5,-56.7 813.5,-37.7 785.5,-37.7"/>
<polygon fill="none" stroke="#000000" points="785.5,-37.7 785.5,-56.7 813.5,-56.7 813.5,-37.7 785.5,-37.7"/>
<text text-anchor="start" x="804.3862" y="-43.8" font-family="Helvetica,sans-Serif" font-size="11.00" fill="#000000"> &#160;</text>
</a>
</g>
</g>
<!-- StudentSubjects&#45;&gt;AspNetUsers -->
<g id="edge2" class="edge">
<title>StudentSubjects:w&#45;&gt;AspNetUsers:e</title>
<path fill="none" stroke="#000000" d="M665.944,-108.6859C552.993,-108.4716 518.7846,-106.1078 400,-121.7 315.2079,-132.8302 294.8314,-141.427 212,-162.7 193.8166,-167.3699 190.2735,-174.7 171.5,-174.7"/>
<polygon fill="#000000" stroke="#000000" points="672.5,-108.6922 680.4965,-112.3 676.5,-108.6961 680.5,-108.7 680.5,-108.7 680.5,-108.7 676.5,-108.6961 680.5035,-105.1 672.5,-108.6922 672.5,-108.6922"/>
<ellipse fill="none" stroke="#000000" cx="669.3" cy="-108.689" rx="3.2" ry="3.2"/>
</g>
<!-- StudentSubjects&#45;&gt;AspNetUsers -->
<g id="edge4" class="edge">
<title>StudentSubjects:w&#45;&gt;AspNetUsers:e</title>
<path fill="none" stroke="#000000" d="M666.0275,-86.6018C467.9816,-83.9147 391.4879,-27.7252 212,-124.7 186.8398,-138.2937 200.0977,-174.7 171.5,-174.7"/>
<polygon fill="#000000" stroke="#000000" points="672.5002,-86.6457 680.4756,-90.2999 676.5001,-86.6728 680.5,-86.7 680.5,-86.7 680.5,-86.7 676.5001,-86.6728 680.5244,-83.1001 672.5002,-86.6457 672.5002,-86.6457"/>
<ellipse fill="none" stroke="#000000" cx="669.3003" cy="-86.624" rx="3.2" ry="3.2"/>
</g>
<!-- Subjects -->
<g id="node4" class="node">
<title>Subjects</title>
<g id="a_node4"><a xlink:href="../../tables/Subjects.html" xlink:title="Subjects" target="_top">
<polygon fill="#ffffff" stroke="transparent" points="408,-132.7 408,-398.7 631,-398.7 631,-132.7 408,-132.7"/>
<polygon fill="#f5f5f5" stroke="transparent" points="410.5,-373.7 410.5,-396.7 629.5,-396.7 629.5,-373.7 410.5,-373.7"/>
<polygon fill="none" stroke="#000000" points="410.5,-373.7 410.5,-396.7 629.5,-396.7 629.5,-373.7 410.5,-373.7"/>
<text text-anchor="start" x="415.5" y="-382.3" font-family="Helvetica,sans-Serif" font-weight="bold" font-size="11.00" fill="#000000">Subjects</text>
<text text-anchor="start" x="594.5437" y="-381.8" font-family="Helvetica,sans-Serif" font-size="11.00" fill="#000000">[table]</text>
<polygon fill="none" stroke="#000000" points="410.5,-351.7 410.5,-373.7 535.5,-373.7 535.5,-351.7 410.5,-351.7"/>
<image xlink:href="../../images/primaryKeys.png" width="11px" height="12px" preserveAspectRatio="xMinYMin meet" x="415.5" y="-368.7"/>
<text text-anchor="start" x="430.5" y="-358.8" font-family="Helvetica,sans-Serif" font-size="11.00" fill="#000000">Id</text>
<polygon fill="none" stroke="#000000" points="535.5,-351.7 535.5,-373.7 629.5,-373.7 629.5,-351.7 535.5,-351.7"/>
<text text-anchor="start" x="538.4758" y="-359.4" font-family="Helvetica,sans-Serif" font-size="11.00" fill="#000000">uuid[2147483647]</text>
<polygon fill="none" stroke="#000000" points="410.5,-329.7 410.5,-351.7 535.5,-351.7 535.5,-329.7 410.5,-329.7"/>
<text text-anchor="start" x="430.5" y="-336.8" font-family="Helvetica,sans-Serif" font-size="11.00" fill="#000000">Name</text>
<polygon fill="none" stroke="#000000" points="535.5,-329.7 535.5,-351.7 629.5,-351.7 629.5,-329.7 535.5,-329.7"/>
<text text-anchor="start" x="538.5" y="-337.4" font-family="Helvetica,sans-Serif" font-size="11.00" fill="#000000">text[2147483647]</text>
<polygon fill="#ffffff" stroke="transparent" points="410.5,-307.7 410.5,-329.7 535.5,-329.7 535.5,-307.7 410.5,-307.7"/>
<polygon fill="none" stroke="#000000" points="410.5,-307.7 410.5,-329.7 535.5,-329.7 535.5,-307.7 410.5,-307.7"/>
<image xlink:href="../../images/foreignKeys.png" width="11px" height="12px" preserveAspectRatio="xMinYMin meet" x="415.5" y="-324.7"/>
<text text-anchor="start" x="430.5" y="-314.8" font-family="Helvetica,sans-Serif" font-size="11.00" fill="#000000">TechnicalCareerId</text>
<polygon fill="none" stroke="#000000" points="535.5,-307.7 535.5,-329.7 629.5,-329.7 629.5,-307.7 535.5,-307.7"/>
<text text-anchor="start" x="538.4758" y="-315.4" font-family="Helvetica,sans-Serif" font-size="11.00" fill="#000000">uuid[2147483647]</text>
<polygon fill="none" stroke="#000000" points="410.5,-285.7 410.5,-307.7 535.5,-307.7 535.5,-285.7 410.5,-285.7"/>
<text text-anchor="start" x="430.5" y="-292.8" font-family="Helvetica,sans-Serif" font-size="11.00" fill="#000000">Year</text>
<polygon fill="none" stroke="#000000" points="535.5,-285.7 535.5,-307.7 629.5,-307.7 629.5,-285.7 535.5,-285.7"/>
<text text-anchor="start" x="538.5" y="-293.4" font-family="Helvetica,sans-Serif" font-size="11.00" fill="#000000">int4[10]</text>
<polygon fill="#ffffff" stroke="transparent" points="410.5,-263.7 410.5,-285.7 535.5,-285.7 535.5,-263.7 410.5,-263.7"/>
<polygon fill="none" stroke="#000000" points="410.5,-263.7 410.5,-285.7 535.5,-285.7 535.5,-263.7 410.5,-263.7"/>
<image xlink:href="../../images/foreignKeys.png" width="11px" height="12px" preserveAspectRatio="xMinYMin meet" x="415.5" y="-280.7"/>
<text text-anchor="start" x="430.5" y="-270.8" font-family="Helvetica,sans-Serif" font-size="11.00" fill="#000000">ProfessorId</text>
<polygon fill="none" stroke="#000000" points="535.5,-263.7 535.5,-285.7 629.5,-285.7 629.5,-263.7 535.5,-263.7"/>
<text text-anchor="start" x="538.5" y="-271.4" font-family="Helvetica,sans-Serif" font-size="11.00" fill="#000000">text[2147483647]</text>
<polygon fill="none" stroke="#000000" points="410.5,-241.7 410.5,-263.7 535.5,-263.7 535.5,-241.7 410.5,-241.7"/>
<text text-anchor="start" x="430.5" y="-248.8" font-family="Helvetica,sans-Serif" font-size="11.00" fill="#000000">IsActive</text>
<polygon fill="none" stroke="#000000" points="535.5,-241.7 535.5,-263.7 629.5,-263.7 629.5,-241.7 535.5,-241.7"/>
<text text-anchor="start" x="538.5" y="-249.4" font-family="Helvetica,sans-Serif" font-size="11.00" fill="#000000">bool[1]</text>
<polygon fill="none" stroke="#000000" points="410.5,-219.7 410.5,-241.7 535.5,-241.7 535.5,-219.7 410.5,-219.7"/>
<text text-anchor="start" x="430.5" y="-226.8" font-family="Helvetica,sans-Serif" font-size="11.00" fill="#000000">CreatedAt</text>
<polygon fill="none" stroke="#000000" points="535.5,-219.7 535.5,-241.7 629.5,-241.7 629.5,-219.7 535.5,-219.7"/>
<text text-anchor="start" x="538.5" y="-227.4" font-family="Helvetica,sans-Serif" font-size="11.00" fill="#000000">timestamptz[35,6]</text>
<polygon fill="none" stroke="#000000" points="410.5,-197.7 410.5,-219.7 535.5,-219.7 535.5,-197.7 410.5,-197.7"/>
<text text-anchor="start" x="430.5" y="-204.8" font-family="Helvetica,sans-Serif" font-size="11.00" fill="#000000">UpdatedAt</text>
<polygon fill="none" stroke="#000000" points="535.5,-197.7 535.5,-219.7 629.5,-219.7 629.5,-197.7 535.5,-197.7"/>
<text text-anchor="start" x="538.5" y="-205.4" font-family="Helvetica,sans-Serif" font-size="11.00" fill="#000000">timestamptz[35,6]</text>
<polygon fill="#ffffff" stroke="transparent" points="410.5,-175.7 410.5,-197.7 535.5,-197.7 535.5,-175.7 410.5,-175.7"/>
<polygon fill="none" stroke="#000000" points="410.5,-175.7 410.5,-197.7 535.5,-197.7 535.5,-175.7 410.5,-175.7"/>
<image xlink:href="../../images/foreignKeys.png" width="11px" height="12px" preserveAspectRatio="xMinYMin meet" x="415.5" y="-192.7"/>
<text text-anchor="start" x="430.5" y="-182.8" font-family="Helvetica,sans-Serif" font-size="11.00" fill="#000000">CreatedByUserId</text>
<polygon fill="none" stroke="#000000" points="535.5,-175.7 535.5,-197.7 629.5,-197.7 629.5,-175.7 535.5,-175.7"/>
<text text-anchor="start" x="538.5" y="-183.4" font-family="Helvetica,sans-Serif" font-size="11.00" fill="#000000">text[2147483647]</text>
<polygon fill="#ffffff" stroke="transparent" points="410.5,-153.7 410.5,-175.7 535.5,-175.7 535.5,-153.7 410.5,-153.7"/>
<polygon fill="none" stroke="#000000" points="410.5,-153.7 410.5,-175.7 535.5,-175.7 535.5,-153.7 410.5,-153.7"/>
<image xlink:href="../../images/foreignKeys.png" width="11px" height="12px" preserveAspectRatio="xMinYMin meet" x="415.5" y="-170.7"/>
<text text-anchor="start" x="430.5" y="-160.8" font-family="Helvetica,sans-Serif" font-size="11.00" fill="#000000">UpdatedByUserId</text>
<polygon fill="none" stroke="#000000" points="535.5,-153.7 535.5,-175.7 629.5,-175.7 629.5,-153.7 535.5,-153.7"/>
<text text-anchor="start" x="538.5" y="-161.4" font-family="Helvetica,sans-Serif" font-size="11.00" fill="#000000">text[2147483647]</text>
<polygon fill="#ffffff" stroke="transparent" points="410.5,-134.7 410.5,-153.7 464.5,-153.7 464.5,-134.7 410.5,-134.7"/>
<polygon fill="none" stroke="#000000" points="410.5,-134.7 410.5,-153.7 464.5,-153.7 464.5,-134.7 410.5,-134.7"/>
<text text-anchor="start" x="413.5" y="-140.8" font-family="Helvetica,sans-Serif" font-size="11.00" fill="#000000">&lt; 4</text>
<polygon fill="#ffffff" stroke="transparent" points="464.5,-134.7 464.5,-153.7 535.5,-153.7 535.5,-134.7 464.5,-134.7"/>
<polygon fill="none" stroke="#000000" points="464.5,-134.7 464.5,-153.7 535.5,-153.7 535.5,-134.7 464.5,-134.7"/>
<text text-anchor="start" x="500.1105" y="-140.8" font-family="Helvetica,sans-Serif" font-size="11.00" fill="#000000">0 rows</text>
<polygon fill="#ffffff" stroke="transparent" points="535.5,-134.7 535.5,-153.7 629.5,-153.7 629.5,-134.7 535.5,-134.7"/>
<polygon fill="none" stroke="#000000" points="535.5,-134.7 535.5,-153.7 629.5,-153.7 629.5,-134.7 535.5,-134.7"/>
<text text-anchor="start" x="610.9053" y="-140.8" font-family="Helvetica,sans-Serif" font-size="11.00" fill="#000000">1 &gt;</text>
<polygon fill="none" stroke="#000000" stroke-width="2" points="409,-133.7 409,-397.7 630,-397.7 630,-133.7 409,-133.7"/>
</a>
</g>
</g>
<!-- StudentSubjects&#45;&gt;Subjects -->
<g id="edge3" class="edge">
<title>StudentSubjects:w&#45;&gt;Subjects:e</title>
<path fill="none" stroke="#000000" d="M665.9369,-132.5675C591.0784,-154.5236 729.5058,-362.7 629.5,-362.7"/>
<polygon fill="#000000" stroke="#000000" points="672.565,-131.7176 680.9579,-134.2708 676.5325,-131.2088 680.5,-130.7 680.5,-130.7 680.5,-130.7 676.5325,-131.2088 680.0421,-127.1292 672.565,-131.7176 672.565,-131.7176"/>
<ellipse fill="none" stroke="#000000" cx="669.391" cy="-132.1246" rx="3.2" ry="3.2"/>
</g>
<!-- Subjects&#45;&gt;Professors -->
<g id="edge6" class="edge">
<title>Subjects:w&#45;&gt;Professors:e</title>
<path fill="none" stroke="#000000" d="M395.9547,-272.6706C375.1956,-266.3915 368.2442,-247.7 340.5,-247.7"/>
<polygon fill="#000000" stroke="#000000" points="402.5767,-273.5945 410.0025,-278.2655 406.5384,-274.1472 410.5,-274.7 410.5,-274.7 410.5,-274.7 406.5384,-274.1472 410.9975,-271.1345 402.5767,-273.5945 402.5767,-273.5945"/>
<ellipse fill="none" stroke="#000000" cx="399.4074" cy="-273.1523" rx="3.2" ry="3.2"/>
</g>
<!-- Subjects&#45;&gt;AspNetUsers -->
<g id="edge5" class="edge">
<title>Subjects:w&#45;&gt;AspNetUsers:e</title>
<path fill="none" stroke="#000000" d="M396.055,-186.6234C301.5035,-185.6014 272.8706,-174.7 171.5,-174.7"/>
<polygon fill="#000000" stroke="#000000" points="402.5001,-186.6575 410.4809,-190.2999 406.5001,-186.6788 410.5,-186.7 410.5,-186.7 410.5,-186.7 406.5001,-186.6788 410.5191,-183.1001 402.5001,-186.6575 402.5001,-186.6575"/>
<ellipse fill="none" stroke="#000000" cx="399.3002" cy="-186.6405" rx="3.2" ry="3.2"/>
</g>
<!-- Subjects&#45;&gt;AspNetUsers -->
<g id="edge8" class="edge">
<title>Subjects:w&#45;&gt;AspNetUsers:e</title>
<path fill="none" stroke="#000000" d="M395.6357,-164.7408C319.4006,-165.1737 295.0369,-168.9765 212,-172.7 193.9962,-173.5073 189.5219,-174.7 171.5,-174.7"/>
<polygon fill="#000000" stroke="#000000" points="402.5,-164.722 410.5099,-168.3 406.5,-164.711 410.5,-164.7 410.5,-164.7 410.5,-164.7 406.5,-164.711 410.4901,-161.1 402.5,-164.722 402.5,-164.722"/>
<ellipse fill="none" stroke="#000000" cx="399.3" cy="-164.7308" rx="3.2" ry="3.2"/>
</g>
<!-- TechnicalCareers -->
<g id="node5" class="node">
<title>TechnicalCareers</title>
<g id="a_node5"><a xlink:href="../../tables/TechnicalCareers.html" xlink:title="TechnicalCareers" target="_top">
<polygon fill="#ffffff" stroke="transparent" points="220,-303.2 220,-430.2 359,-430.2 359,-303.2 220,-303.2"/>
<polygon fill="#f5f5f5" stroke="transparent" points="220.5,-406.7 220.5,-429.7 359.5,-429.7 359.5,-406.7 220.5,-406.7"/>
<polygon fill="none" stroke="#000000" points="220.5,-406.7 220.5,-429.7 359.5,-429.7 359.5,-406.7 220.5,-406.7"/>
<text text-anchor="start" x="225.5" y="-415.3" font-family="Helvetica,sans-Serif" font-weight="bold" font-size="11.00" fill="#000000">TechnicalCareers</text>
<text text-anchor="start" x="325.0219" y="-414.8" font-family="Helvetica,sans-Serif" font-size="11.00" fill="#000000">[table]</text>
<polygon fill="none" stroke="#000000" points="220.5,-384.7 220.5,-406.7 359.5,-406.7 359.5,-384.7 220.5,-384.7"/>
<image xlink:href="../../images/primaryKeys.png" width="11px" height="12px" preserveAspectRatio="xMinYMin meet" x="225.5" y="-401.7"/>
<text text-anchor="start" x="249.5" y="-391.8" font-family="Helvetica,sans-Serif" font-size="11.00" fill="#000000">Id</text>
<polygon fill="#ffffff" stroke="transparent" points="220.5,-362.7 220.5,-384.7 359.5,-384.7 359.5,-362.7 220.5,-362.7"/>
<polygon fill="none" stroke="#000000" points="220.5,-362.7 220.5,-384.7 359.5,-384.7 359.5,-362.7 220.5,-362.7"/>
<image xlink:href="../../images/foreignKeys.png" width="11px" height="12px" preserveAspectRatio="xMinYMin meet" x="225.5" y="-379.7"/>
<text text-anchor="start" x="249.5" y="-369.8" font-family="Helvetica,sans-Serif" font-size="11.00" fill="#000000">CreatedByUserId</text>
<polygon fill="#ffffff" stroke="transparent" points="220.5,-340.7 220.5,-362.7 359.5,-362.7 359.5,-340.7 220.5,-340.7"/>
<polygon fill="none" stroke="#000000" points="220.5,-340.7 220.5,-362.7 359.5,-362.7 359.5,-340.7 220.5,-340.7"/>
<image xlink:href="../../images/foreignKeys.png" width="11px" height="12px" preserveAspectRatio="xMinYMin meet" x="225.5" y="-357.7"/>
<text text-anchor="start" x="249.5" y="-347.8" font-family="Helvetica,sans-Serif" font-size="11.00" fill="#000000">UpdatedByUserId</text>
<polygon fill="none" stroke="#000000" points="220.5,-321.7 220.5,-340.7 359.5,-340.7 359.5,-321.7 220.5,-321.7"/>
<text text-anchor="start" x="223.5" y="-327.8" font-family="Helvetica,sans-Serif" font-size="11.00" fill="#000000">...</text>
<polygon fill="#ffffff" stroke="transparent" points="220.5,-302.7 220.5,-321.7 270.5,-321.7 270.5,-302.7 220.5,-302.7"/>
<polygon fill="none" stroke="#000000" points="220.5,-302.7 220.5,-321.7 270.5,-321.7 270.5,-302.7 220.5,-302.7"/>
<text text-anchor="start" x="223.5" y="-308.8" font-family="Helvetica,sans-Serif" font-size="11.00" fill="#000000">&lt; 2</text>
<polygon fill="#ffffff" stroke="transparent" points="270.5,-302.7 270.5,-321.7 323.5,-321.7 323.5,-302.7 270.5,-302.7"/>
<polygon fill="none" stroke="#000000" points="270.5,-302.7 270.5,-321.7 323.5,-321.7 323.5,-302.7 270.5,-302.7"/>
<text text-anchor="start" x="288.1105" y="-308.8" font-family="Helvetica,sans-Serif" font-size="11.00" fill="#000000">0 rows</text>
<polygon fill="#ffffff" stroke="transparent" points="323.5,-302.7 323.5,-321.7 359.5,-321.7 359.5,-302.7 323.5,-302.7"/>
<polygon fill="none" stroke="#000000" points="323.5,-302.7 323.5,-321.7 359.5,-321.7 359.5,-302.7 323.5,-302.7"/>
<text text-anchor="start" x="340.9053" y="-308.8" font-family="Helvetica,sans-Serif" font-size="11.00" fill="#000000">6 &gt;</text>
</a>
</g>
</g>
<!-- Subjects&#45;&gt;TechnicalCareers -->
<g id="edge7" class="edge">
<title>Subjects:w&#45;&gt;TechnicalCareers:e</title>
<path fill="none" stroke="#000000" d="M396.5177,-323.2861C377.094,-339.8628 394.4549,-395.7 359.5,-395.7"/>
<polygon fill="#000000" stroke="#000000" points="402.8984,-321.1933 411.622,-322.1207 406.6992,-319.9466 410.5,-318.7 410.5,-318.7 410.5,-318.7 406.6992,-319.9466 409.378,-315.2793 402.8984,-321.1933 402.8984,-321.1933"/>
<ellipse fill="none" stroke="#000000" cx="399.8578" cy="-322.1906" rx="3.2" ry="3.2"/>
</g>
<!-- TechnicalCareers&#45;&gt;AspNetUsers -->
<g id="edge9" class="edge">
<title>TechnicalCareers:w&#45;&gt;AspNetUsers:e</title>
<path fill="none" stroke="#000000" d="M205.9399,-371.4651C145.1844,-349.6023 256.8933,-174.7 171.5,-174.7"/>
<polygon fill="#000000" stroke="#000000" points="212.5926,-372.4862 219.9538,-377.2583 216.5463,-373.0931 220.5,-373.7 220.5,-373.7 220.5,-373.7 216.5463,-373.0931 221.0462,-370.1417 212.5926,-372.4862 212.5926,-372.4862"/>
<ellipse fill="none" stroke="#000000" cx="209.4296" cy="-372.0007" rx="3.2" ry="3.2"/>
</g>
<!-- TechnicalCareers&#45;&gt;AspNetUsers -->
<g id="edge10" class="edge">
<title>TechnicalCareers:w&#45;&gt;AspNetUsers:e</title>
<path fill="none" stroke="#000000" d="M206.0511,-349.1979C153.9727,-327.6844 247.3862,-174.7 171.5,-174.7"/>
<polygon fill="#000000" stroke="#000000" points="212.6173,-350.3349 219.8857,-355.2472 216.5587,-351.0175 220.5,-351.7 220.5,-351.7 220.5,-351.7 216.5587,-351.0175 221.1143,-348.1528 212.6173,-350.3349 212.6173,-350.3349"/>
<ellipse fill="none" stroke="#000000" cx="209.4642" cy="-349.7889" rx="3.2" ry="3.2"/>
</g>
</g>
</svg>
