<?xml version="1.0" encoding="UTF-8" standalone="no"?>
<!DOCTYPE svg PUBLIC "-//W3C//DTD SVG 1.1//EN"
 "http://www.w3.org/Graphics/SVG/1.1/DTD/svg11.dtd">
<!-- Generated by graphviz version 2.40.1 (20161225.0304)
 -->
<!-- Title: oneDegreeRelationshipsDiagram Pages: 1 -->
<svg width="1215pt" height="789pt"
 viewBox="0.00 0.00 1215.00 789.20" xmlns="http://www.w3.org/2000/svg" xmlns:xlink="http://www.w3.org/1999/xlink">
<g id="graph0" class="graph" transform="scale(1 1) rotate(0) translate(4 785.2)">
<title>oneDegreeRelationshipsDiagram</title>
<polygon fill="#ffffff" stroke="transparent" points="-4,4 -4,-785.2 1211,-785.2 1211,4 -4,4"/>
<text text-anchor="middle" x="72.4936" y="-7.3" font-family="Helvetica,sans-Serif" font-size="11.00" fill="#000000">Generated by SchemaSpy</text>
<!-- ProfessorCompetencyAssignments -->
<g id="node1" class="node">
<title>ProfessorCompetencyAssignments</title>
<g id="a_node1"><a xlink:href="../../tables/ProfessorCompetencyAssignments.html" xlink:title="ProfessorCompetencyAssignments" target="_top">
<polygon fill="#ffffff" stroke="transparent" points="680,-540.2 680,-777.2 922,-777.2 922,-540.2 680,-540.2"/>
<polygon fill="#f5f5f5" stroke="transparent" points="680,-753.7 680,-776.7 922,-776.7 922,-753.7 680,-753.7"/>
<polygon fill="none" stroke="#000000" points="680,-753.7 680,-776.7 922,-776.7 922,-753.7 680,-753.7"/>
<text text-anchor="start" x="685" y="-762.3" font-family="Helvetica,sans-Serif" font-weight="bold" font-size="11.00" fill="#000000">ProfessorCompetencyAssignments</text>
<text text-anchor="start" x="887.5219" y="-761.8" font-family="Helvetica,sans-Serif" font-size="11.00" fill="#000000">[table]</text>
<polygon fill="none" stroke="#000000" points="680,-731.7 680,-753.7 922,-753.7 922,-731.7 680,-731.7"/>
<image xlink:href="../../images/primaryKeys.png" width="11px" height="12px" preserveAspectRatio="xMinYMin meet" x="685" y="-748.7"/>
<text text-anchor="start" x="709" y="-738.8" font-family="Helvetica,sans-Serif" font-size="11.00" fill="#000000">Id</text>
<polygon fill="#ffffff" stroke="transparent" points="680,-709.7 680,-731.7 922,-731.7 922,-709.7 680,-709.7"/>
<polygon fill="none" stroke="#000000" points="680,-709.7 680,-731.7 922,-731.7 922,-709.7 680,-709.7"/>
<image xlink:href="../../images/foreignKeys.png" width="11px" height="12px" preserveAspectRatio="xMinYMin meet" x="685" y="-726.7"/>
<text text-anchor="start" x="709" y="-716.8" font-family="Helvetica,sans-Serif" font-size="11.00" fill="#000000">TechnicalCareerId</text>
<polygon fill="#ffffff" stroke="transparent" points="680,-687.7 680,-709.7 922,-709.7 922,-687.7 680,-687.7"/>
<polygon fill="none" stroke="#000000" points="680,-687.7 680,-709.7 922,-709.7 922,-687.7 680,-687.7"/>
<image xlink:href="../../images/foreignKeys.png" width="11px" height="12px" preserveAspectRatio="xMinYMin meet" x="685" y="-704.7"/>
<text text-anchor="start" x="709" y="-694.8" font-family="Helvetica,sans-Serif" font-size="11.00" fill="#000000">CompetencyId</text>
<polygon fill="#ffffff" stroke="transparent" points="680,-665.7 680,-687.7 922,-687.7 922,-665.7 680,-665.7"/>
<polygon fill="none" stroke="#000000" points="680,-665.7 680,-687.7 922,-687.7 922,-665.7 680,-665.7"/>
<image xlink:href="../../images/foreignKeys.png" width="11px" height="12px" preserveAspectRatio="xMinYMin meet" x="685" y="-682.7"/>
<text text-anchor="start" x="709" y="-672.8" font-family="Helvetica,sans-Serif" font-size="11.00" fill="#000000">EvaluationPeriodId</text>
<polygon fill="#ffffff" stroke="transparent" points="680,-643.7 680,-665.7 922,-665.7 922,-643.7 680,-643.7"/>
<polygon fill="none" stroke="#000000" points="680,-643.7 680,-665.7 922,-665.7 922,-643.7 680,-643.7"/>
<image xlink:href="../../images/foreignKeys.png" width="11px" height="12px" preserveAspectRatio="xMinYMin meet" x="685" y="-660.7"/>
<text text-anchor="start" x="709" y="-650.8" font-family="Helvetica,sans-Serif" font-size="11.00" fill="#000000">CreatedByUserId</text>
<polygon fill="#ffffff" stroke="transparent" points="680,-621.7 680,-643.7 922,-643.7 922,-621.7 680,-621.7"/>
<polygon fill="none" stroke="#000000" points="680,-621.7 680,-643.7 922,-643.7 922,-621.7 680,-621.7"/>
<image xlink:href="../../images/foreignKeys.png" width="11px" height="12px" preserveAspectRatio="xMinYMin meet" x="685" y="-638.7"/>
<text text-anchor="start" x="709" y="-628.8" font-family="Helvetica,sans-Serif" font-size="11.00" fill="#000000">UpdatedByUserId</text>
<polygon fill="#ffffff" stroke="transparent" points="680,-599.7 680,-621.7 922,-621.7 922,-599.7 680,-599.7"/>
<polygon fill="none" stroke="#000000" points="680,-599.7 680,-621.7 922,-621.7 922,-599.7 680,-599.7"/>
<image xlink:href="../../images/foreignKeys.png" width="11px" height="12px" preserveAspectRatio="xMinYMin meet" x="685" y="-616.7"/>
<text text-anchor="start" x="709" y="-606.8" font-family="Helvetica,sans-Serif" font-size="11.00" fill="#000000">ProfessorUserId</text>
<polygon fill="#ffffff" stroke="transparent" points="680,-577.7 680,-599.7 922,-599.7 922,-577.7 680,-577.7"/>
<polygon fill="none" stroke="#000000" points="680,-577.7 680,-599.7 922,-599.7 922,-577.7 680,-577.7"/>
<image xlink:href="../../images/foreignKeys.png" width="11px" height="12px" preserveAspectRatio="xMinYMin meet" x="685" y="-594.7"/>
<text text-anchor="start" x="709" y="-584.8" font-family="Helvetica,sans-Serif" font-size="11.00" fill="#000000">SubjectId</text>
<polygon fill="none" stroke="#000000" points="680,-558.7 680,-577.7 922,-577.7 922,-558.7 680,-558.7"/>
<text text-anchor="start" x="683" y="-564.8" font-family="Helvetica,sans-Serif" font-size="11.00" fill="#000000">...</text>
<polygon fill="#ffffff" stroke="transparent" points="680,-539.7 680,-558.7 782,-558.7 782,-539.7 680,-539.7"/>
<polygon fill="none" stroke="#000000" points="680,-539.7 680,-558.7 782,-558.7 782,-539.7 680,-539.7"/>
<text text-anchor="start" x="683" y="-545.8" font-family="Helvetica,sans-Serif" font-size="11.00" fill="#000000">&lt; 7</text>
<polygon fill="#ffffff" stroke="transparent" points="782,-539.7 782,-558.7 860,-558.7 860,-539.7 782,-539.7"/>
<polygon fill="none" stroke="#000000" points="782,-539.7 782,-558.7 860,-558.7 860,-539.7 782,-539.7"/>
<text text-anchor="start" x="824.6105" y="-545.8" font-family="Helvetica,sans-Serif" font-size="11.00" fill="#000000">0 rows</text>
<polygon fill="#ffffff" stroke="transparent" points="860,-539.7 860,-558.7 922,-558.7 922,-539.7 860,-539.7"/>
<polygon fill="none" stroke="#000000" points="860,-539.7 860,-558.7 922,-558.7 922,-539.7 860,-539.7"/>
<text text-anchor="start" x="903.4053" y="-545.8" font-family="Helvetica,sans-Serif" font-size="11.00" fill="#000000">1 &gt;</text>
</a>
</g>
</g>
<!-- AspNetUsers -->
<g id="node2" class="node">
<title>AspNetUsers</title>
<g id="a_node2"><a xlink:href="../../tables/AspNetUsers.html" xlink:title="AspNetUsers" target="_top">
<polygon fill="#ffffff" stroke="transparent" points="8,-296.2 8,-423.2 171,-423.2 171,-296.2 8,-296.2"/>
<polygon fill="#f5f5f5" stroke="transparent" points="8.5,-399.7 8.5,-422.7 171.5,-422.7 171.5,-399.7 8.5,-399.7"/>
<polygon fill="none" stroke="#000000" points="8.5,-399.7 8.5,-422.7 171.5,-422.7 171.5,-399.7 8.5,-399.7"/>
<text text-anchor="start" x="13.5" y="-408.3" font-family="Helvetica,sans-Serif" font-weight="bold" font-size="11.00" fill="#000000">AspNetUsers</text>
<text text-anchor="start" x="136.5437" y="-407.8" font-family="Helvetica,sans-Serif" font-size="11.00" fill="#000000">[table]</text>
<polygon fill="none" stroke="#000000" points="8.5,-377.7 8.5,-399.7 171.5,-399.7 171.5,-377.7 8.5,-377.7"/>
<image xlink:href="../../images/primaryKeys.png" width="11px" height="12px" preserveAspectRatio="xMinYMin meet" x="13.5" y="-394.7"/>
<text text-anchor="start" x="28.5" y="-384.8" font-family="Helvetica,sans-Serif" font-size="11.00" fill="#000000">Id</text>
<polygon fill="#ffffff" stroke="transparent" points="8.5,-355.7 8.5,-377.7 171.5,-377.7 171.5,-355.7 8.5,-355.7"/>
<polygon fill="none" stroke="#000000" points="8.5,-355.7 8.5,-377.7 171.5,-377.7 171.5,-355.7 8.5,-355.7"/>
<text text-anchor="start" x="28.5" y="-362.8" font-family="Helvetica,sans-Serif" font-size="11.00" fill="#000000">NormalizedUserName</text>
<polygon fill="#ffffff" stroke="transparent" points="8.5,-333.7 8.5,-355.7 171.5,-355.7 171.5,-333.7 8.5,-333.7"/>
<polygon fill="none" stroke="#000000" points="8.5,-333.7 8.5,-355.7 171.5,-355.7 171.5,-333.7 8.5,-333.7"/>
<text text-anchor="start" x="28.5" y="-340.8" font-family="Helvetica,sans-Serif" font-size="11.00" fill="#000000">NormalizedEmail</text>
<polygon fill="none" stroke="#000000" points="8.5,-314.7 8.5,-333.7 171.5,-333.7 171.5,-314.7 8.5,-314.7"/>
<text text-anchor="start" x="11.5" y="-320.8" font-family="Helvetica,sans-Serif" font-size="11.00" fill="#000000">...</text>
<polygon fill="#ffffff" stroke="transparent" points="8.5,-295.7 8.5,-314.7 66.5,-314.7 66.5,-295.7 8.5,-295.7"/>
<polygon fill="none" stroke="#000000" points="8.5,-295.7 8.5,-314.7 66.5,-314.7 66.5,-295.7 8.5,-295.7"/>
<text text-anchor="start" x="11.5" y="-301.8" font-family="Helvetica,sans-Serif" font-size="11.00" fill="#000000"> &#160;</text>
<polygon fill="#ffffff" stroke="transparent" points="66.5,-295.7 66.5,-314.7 121.5,-314.7 121.5,-295.7 66.5,-295.7"/>
<polygon fill="none" stroke="#000000" points="66.5,-295.7 66.5,-314.7 121.5,-314.7 121.5,-295.7 66.5,-295.7"/>
<text text-anchor="start" x="91.6105" y="-301.8" font-family="Helvetica,sans-Serif" font-size="11.00" fill="#000000">1 row</text>
<polygon fill="#ffffff" stroke="transparent" points="121.5,-295.7 121.5,-314.7 171.5,-314.7 171.5,-295.7 121.5,-295.7"/>
<polygon fill="none" stroke="#000000" points="121.5,-295.7 121.5,-314.7 171.5,-314.7 171.5,-295.7 121.5,-295.7"/>
<text text-anchor="start" x="146.7904" y="-301.8" font-family="Helvetica,sans-Serif" font-size="11.00" fill="#000000">29 &gt;</text>
</a>
</g>
</g>
<!-- ProfessorCompetencyAssignments&#45;&gt;AspNetUsers -->
<g id="edge1" class="edge">
<title>ProfessorCompetencyAssignments:w&#45;&gt;AspNetUsers:e</title>
<path fill="none" stroke="#000000" d="M665.5353,-654.894C466.9691,-660.2159 364.4175,-772.1735 212,-637.7 169.962,-600.6111 227.5605,-388.7 171.5,-388.7"/>
<polygon fill="#000000" stroke="#000000" points="672.0007,-654.8074 680.0483,-658.2997 676.0004,-654.7537 680,-654.7 680,-654.7 680,-654.7 676.0004,-654.7537 679.9517,-651.1003 672.0007,-654.8074 672.0007,-654.8074"/>
<ellipse fill="none" stroke="#000000" cx="668.801" cy="-654.8503" rx="3.2" ry="3.2"/>
</g>
<!-- ProfessorCompetencyAssignments&#45;&gt;AspNetUsers -->
<g id="edge5" class="edge">
<title>ProfessorCompetencyAssignments:w&#45;&gt;AspNetUsers:e</title>
<path fill="none" stroke="#000000" d="M665.5308,-632.882C579.4128,-634.499 248.6353,-645.6145 212,-613.7 135.3865,-546.9589 273.1071,-388.7 171.5,-388.7"/>
<polygon fill="#000000" stroke="#000000" points="672.0006,-632.8007 680.0453,-636.2997 676.0003,-632.7503 680,-632.7 680,-632.7 680,-632.7 676.0003,-632.7503 679.9547,-629.1003 672.0006,-632.8007 672.0006,-632.8007"/>
<ellipse fill="none" stroke="#000000" cx="668.8009" cy="-632.8409" rx="3.2" ry="3.2"/>
</g>
<!-- Professors -->
<g id="node3" class="node">
<title>Professors</title>
<g id="a_node3"><a xlink:href="../../tables/Professors.html" xlink:title="Professors" target="_top">
<polygon fill="#ffffff" stroke="transparent" points="239,-340.2 239,-423.2 340,-423.2 340,-340.2 239,-340.2"/>
<polygon fill="#f5f5f5" stroke="transparent" points="239.5,-399.7 239.5,-422.7 340.5,-422.7 340.5,-399.7 239.5,-399.7"/>
<polygon fill="none" stroke="#000000" points="239.5,-399.7 239.5,-422.7 340.5,-422.7 340.5,-399.7 239.5,-399.7"/>
<text text-anchor="start" x="244.5" y="-408.3" font-family="Helvetica,sans-Serif" font-weight="bold" font-size="11.00" fill="#000000">Professors</text>
<text text-anchor="start" x="306.0219" y="-407.8" font-family="Helvetica,sans-Serif" font-size="11.00" fill="#000000">[table]</text>
<polygon fill="none" stroke="#000000" points="239.5,-377.7 239.5,-399.7 340.5,-399.7 340.5,-377.7 239.5,-377.7"/>
<image xlink:href="../../images/primaryKeys.png" width="11px" height="12px" preserveAspectRatio="xMinYMin meet" x="244.5" y="-394.7"/>
<text text-anchor="start" x="268.5" y="-384.8" font-family="Helvetica,sans-Serif" font-size="11.00" fill="#000000">UserId</text>
<polygon fill="none" stroke="#000000" points="239.5,-358.7 239.5,-377.7 340.5,-377.7 340.5,-358.7 239.5,-358.7"/>
<text text-anchor="start" x="242.5" y="-364.8" font-family="Helvetica,sans-Serif" font-size="11.00" fill="#000000">...</text>
<polygon fill="#ffffff" stroke="transparent" points="239.5,-339.7 239.5,-358.7 270.5,-358.7 270.5,-339.7 239.5,-339.7"/>
<polygon fill="none" stroke="#000000" points="239.5,-339.7 239.5,-358.7 270.5,-358.7 270.5,-339.7 239.5,-339.7"/>
<text text-anchor="start" x="242.5" y="-345.8" font-family="Helvetica,sans-Serif" font-size="11.00" fill="#000000">&lt; 1</text>
<polygon fill="#ffffff" stroke="transparent" points="270.5,-339.7 270.5,-358.7 313.5,-358.7 313.5,-339.7 270.5,-339.7"/>
<polygon fill="none" stroke="#000000" points="270.5,-339.7 270.5,-358.7 313.5,-358.7 313.5,-339.7 270.5,-339.7"/>
<text text-anchor="start" x="278.1105" y="-345.8" font-family="Helvetica,sans-Serif" font-size="11.00" fill="#000000">0 rows</text>
<polygon fill="#ffffff" stroke="transparent" points="313.5,-339.7 313.5,-358.7 340.5,-358.7 340.5,-339.7 313.5,-339.7"/>
<polygon fill="none" stroke="#000000" points="313.5,-339.7 313.5,-358.7 340.5,-358.7 340.5,-339.7 313.5,-339.7"/>
<text text-anchor="start" x="321.9053" y="-345.8" font-family="Helvetica,sans-Serif" font-size="11.00" fill="#000000">2 &gt;</text>
</a>
</g>
</g>
<!-- ProfessorCompetencyAssignments&#45;&gt;Professors -->
<g id="edge2" class="edge">
<title>ProfessorCompetencyAssignments:w&#45;&gt;Professors:e</title>
<path fill="none" stroke="#000000" d="M666.0198,-606.121C656.1854,-597.656 655.8858,-579.6121 639,-570.7 543.1831,-520.1294 484.5465,-590.4507 400,-522.7 349.1498,-481.9516 405.6627,-388.7 340.5,-388.7"/>
<polygon fill="#000000" stroke="#000000" points="672.3974,-608.2099 678.8794,-614.1212 676.1987,-609.4549 680,-610.7 680,-610.7 680,-610.7 676.1987,-609.4549 681.1206,-607.2788 672.3974,-608.2099 672.3974,-608.2099"/>
<ellipse fill="none" stroke="#000000" cx="669.3564" cy="-607.2138" rx="3.2" ry="3.2"/>
</g>
<!-- Subjects -->
<g id="node4" class="node">
<title>Subjects</title>
<g id="a_node4"><a xlink:href="../../tables/Subjects.html" xlink:title="Subjects" target="_top">
<polygon fill="#ffffff" stroke="transparent" points="408,-245.7 408,-511.7 631,-511.7 631,-245.7 408,-245.7"/>
<polygon fill="#f5f5f5" stroke="transparent" points="410.5,-486.7 410.5,-509.7 629.5,-509.7 629.5,-486.7 410.5,-486.7"/>
<polygon fill="none" stroke="#000000" points="410.5,-486.7 410.5,-509.7 629.5,-509.7 629.5,-486.7 410.5,-486.7"/>
<text text-anchor="start" x="415.5" y="-495.3" font-family="Helvetica,sans-Serif" font-weight="bold" font-size="11.00" fill="#000000">Subjects</text>
<text text-anchor="start" x="594.5437" y="-494.8" font-family="Helvetica,sans-Serif" font-size="11.00" fill="#000000">[table]</text>
<polygon fill="none" stroke="#000000" points="410.5,-464.7 410.5,-486.7 535.5,-486.7 535.5,-464.7 410.5,-464.7"/>
<image xlink:href="../../images/primaryKeys.png" width="11px" height="12px" preserveAspectRatio="xMinYMin meet" x="415.5" y="-481.7"/>
<text text-anchor="start" x="430.5" y="-471.8" font-family="Helvetica,sans-Serif" font-size="11.00" fill="#000000">Id</text>
<polygon fill="none" stroke="#000000" points="535.5,-464.7 535.5,-486.7 629.5,-486.7 629.5,-464.7 535.5,-464.7"/>
<text text-anchor="start" x="538.4758" y="-472.4" font-family="Helvetica,sans-Serif" font-size="11.00" fill="#000000">uuid[2147483647]</text>
<polygon fill="none" stroke="#000000" points="410.5,-442.7 410.5,-464.7 535.5,-464.7 535.5,-442.7 410.5,-442.7"/>
<text text-anchor="start" x="430.5" y="-449.8" font-family="Helvetica,sans-Serif" font-size="11.00" fill="#000000">Name</text>
<polygon fill="none" stroke="#000000" points="535.5,-442.7 535.5,-464.7 629.5,-464.7 629.5,-442.7 535.5,-442.7"/>
<text text-anchor="start" x="538.5" y="-450.4" font-family="Helvetica,sans-Serif" font-size="11.00" fill="#000000">text[2147483647]</text>
<polygon fill="#ffffff" stroke="transparent" points="410.5,-420.7 410.5,-442.7 535.5,-442.7 535.5,-420.7 410.5,-420.7"/>
<polygon fill="none" stroke="#000000" points="410.5,-420.7 410.5,-442.7 535.5,-442.7 535.5,-420.7 410.5,-420.7"/>
<image xlink:href="../../images/foreignKeys.png" width="11px" height="12px" preserveAspectRatio="xMinYMin meet" x="415.5" y="-437.7"/>
<text text-anchor="start" x="430.5" y="-427.8" font-family="Helvetica,sans-Serif" font-size="11.00" fill="#000000">TechnicalCareerId</text>
<polygon fill="none" stroke="#000000" points="535.5,-420.7 535.5,-442.7 629.5,-442.7 629.5,-420.7 535.5,-420.7"/>
<text text-anchor="start" x="538.4758" y="-428.4" font-family="Helvetica,sans-Serif" font-size="11.00" fill="#000000">uuid[2147483647]</text>
<polygon fill="none" stroke="#000000" points="410.5,-398.7 410.5,-420.7 535.5,-420.7 535.5,-398.7 410.5,-398.7"/>
<text text-anchor="start" x="430.5" y="-405.8" font-family="Helvetica,sans-Serif" font-size="11.00" fill="#000000">Year</text>
<polygon fill="none" stroke="#000000" points="535.5,-398.7 535.5,-420.7 629.5,-420.7 629.5,-398.7 535.5,-398.7"/>
<text text-anchor="start" x="538.5" y="-406.4" font-family="Helvetica,sans-Serif" font-size="11.00" fill="#000000">int4[10]</text>
<polygon fill="#ffffff" stroke="transparent" points="410.5,-376.7 410.5,-398.7 535.5,-398.7 535.5,-376.7 410.5,-376.7"/>
<polygon fill="none" stroke="#000000" points="410.5,-376.7 410.5,-398.7 535.5,-398.7 535.5,-376.7 410.5,-376.7"/>
<image xlink:href="../../images/foreignKeys.png" width="11px" height="12px" preserveAspectRatio="xMinYMin meet" x="415.5" y="-393.7"/>
<text text-anchor="start" x="430.5" y="-383.8" font-family="Helvetica,sans-Serif" font-size="11.00" fill="#000000">ProfessorId</text>
<polygon fill="none" stroke="#000000" points="535.5,-376.7 535.5,-398.7 629.5,-398.7 629.5,-376.7 535.5,-376.7"/>
<text text-anchor="start" x="538.5" y="-384.4" font-family="Helvetica,sans-Serif" font-size="11.00" fill="#000000">text[2147483647]</text>
<polygon fill="none" stroke="#000000" points="410.5,-354.7 410.5,-376.7 535.5,-376.7 535.5,-354.7 410.5,-354.7"/>
<text text-anchor="start" x="430.5" y="-361.8" font-family="Helvetica,sans-Serif" font-size="11.00" fill="#000000">IsActive</text>
<polygon fill="none" stroke="#000000" points="535.5,-354.7 535.5,-376.7 629.5,-376.7 629.5,-354.7 535.5,-354.7"/>
<text text-anchor="start" x="538.5" y="-362.4" font-family="Helvetica,sans-Serif" font-size="11.00" fill="#000000">bool[1]</text>
<polygon fill="none" stroke="#000000" points="410.5,-332.7 410.5,-354.7 535.5,-354.7 535.5,-332.7 410.5,-332.7"/>
<text text-anchor="start" x="430.5" y="-339.8" font-family="Helvetica,sans-Serif" font-size="11.00" fill="#000000">CreatedAt</text>
<polygon fill="none" stroke="#000000" points="535.5,-332.7 535.5,-354.7 629.5,-354.7 629.5,-332.7 535.5,-332.7"/>
<text text-anchor="start" x="538.5" y="-340.4" font-family="Helvetica,sans-Serif" font-size="11.00" fill="#000000">timestamptz[35,6]</text>
<polygon fill="none" stroke="#000000" points="410.5,-310.7 410.5,-332.7 535.5,-332.7 535.5,-310.7 410.5,-310.7"/>
<text text-anchor="start" x="430.5" y="-317.8" font-family="Helvetica,sans-Serif" font-size="11.00" fill="#000000">UpdatedAt</text>
<polygon fill="none" stroke="#000000" points="535.5,-310.7 535.5,-332.7 629.5,-332.7 629.5,-310.7 535.5,-310.7"/>
<text text-anchor="start" x="538.5" y="-318.4" font-family="Helvetica,sans-Serif" font-size="11.00" fill="#000000">timestamptz[35,6]</text>
<polygon fill="#ffffff" stroke="transparent" points="410.5,-288.7 410.5,-310.7 535.5,-310.7 535.5,-288.7 410.5,-288.7"/>
<polygon fill="none" stroke="#000000" points="410.5,-288.7 410.5,-310.7 535.5,-310.7 535.5,-288.7 410.5,-288.7"/>
<image xlink:href="../../images/foreignKeys.png" width="11px" height="12px" preserveAspectRatio="xMinYMin meet" x="415.5" y="-305.7"/>
<text text-anchor="start" x="430.5" y="-295.8" font-family="Helvetica,sans-Serif" font-size="11.00" fill="#000000">CreatedByUserId</text>
<polygon fill="none" stroke="#000000" points="535.5,-288.7 535.5,-310.7 629.5,-310.7 629.5,-288.7 535.5,-288.7"/>
<text text-anchor="start" x="538.5" y="-296.4" font-family="Helvetica,sans-Serif" font-size="11.00" fill="#000000">text[2147483647]</text>
<polygon fill="#ffffff" stroke="transparent" points="410.5,-266.7 410.5,-288.7 535.5,-288.7 535.5,-266.7 410.5,-266.7"/>
<polygon fill="none" stroke="#000000" points="410.5,-266.7 410.5,-288.7 535.5,-288.7 535.5,-266.7 410.5,-266.7"/>
<image xlink:href="../../images/foreignKeys.png" width="11px" height="12px" preserveAspectRatio="xMinYMin meet" x="415.5" y="-283.7"/>
<text text-anchor="start" x="430.5" y="-273.8" font-family="Helvetica,sans-Serif" font-size="11.00" fill="#000000">UpdatedByUserId</text>
<polygon fill="none" stroke="#000000" points="535.5,-266.7 535.5,-288.7 629.5,-288.7 629.5,-266.7 535.5,-266.7"/>
<text text-anchor="start" x="538.5" y="-274.4" font-family="Helvetica,sans-Serif" font-size="11.00" fill="#000000">text[2147483647]</text>
<polygon fill="#ffffff" stroke="transparent" points="410.5,-247.7 410.5,-266.7 464.5,-266.7 464.5,-247.7 410.5,-247.7"/>
<polygon fill="none" stroke="#000000" points="410.5,-247.7 410.5,-266.7 464.5,-266.7 464.5,-247.7 410.5,-247.7"/>
<text text-anchor="start" x="413.5" y="-253.8" font-family="Helvetica,sans-Serif" font-size="11.00" fill="#000000">&lt; 4</text>
<polygon fill="#ffffff" stroke="transparent" points="464.5,-247.7 464.5,-266.7 535.5,-266.7 535.5,-247.7 464.5,-247.7"/>
<polygon fill="none" stroke="#000000" points="464.5,-247.7 464.5,-266.7 535.5,-266.7 535.5,-247.7 464.5,-247.7"/>
<text text-anchor="start" x="500.1105" y="-253.8" font-family="Helvetica,sans-Serif" font-size="11.00" fill="#000000">0 rows</text>
<polygon fill="#ffffff" stroke="transparent" points="535.5,-247.7 535.5,-266.7 629.5,-266.7 629.5,-247.7 535.5,-247.7"/>
<polygon fill="none" stroke="#000000" points="535.5,-247.7 535.5,-266.7 629.5,-266.7 629.5,-247.7 535.5,-247.7"/>
<text text-anchor="start" x="610.9053" y="-253.8" font-family="Helvetica,sans-Serif" font-size="11.00" fill="#000000">3 &gt;</text>
<polygon fill="none" stroke="#000000" stroke-width="2" points="409,-246.7 409,-510.7 630,-510.7 630,-246.7 409,-246.7"/>
</a>
</g>
</g>
<!-- ProfessorCompetencyAssignments&#45;&gt;Subjects -->
<g id="edge3" class="edge">
<title>ProfessorCompetencyAssignments:w&#45;&gt;Subjects:e</title>
<path fill="none" stroke="#000000" d="M665.7606,-584.9403C636.6403,-565.3331 678.4927,-475.7 629.5,-475.7"/>
<polygon fill="#000000" stroke="#000000" points="672.2651,-586.6577 679.0809,-592.1807 676.1325,-587.6788 680,-588.7 680,-588.7 680,-588.7 676.1325,-587.6788 680.9191,-585.2193 672.2651,-586.6577 672.2651,-586.6577"/>
<ellipse fill="none" stroke="#000000" cx="669.1711" cy="-585.8407" rx="3.2" ry="3.2"/>
</g>
<!-- TechnicalCareers -->
<g id="node5" class="node">
<title>TechnicalCareers</title>
<g id="a_node5"><a xlink:href="../../tables/TechnicalCareers.html" xlink:title="TechnicalCareers" target="_top">
<polygon fill="#ffffff" stroke="transparent" points="220,-476.2 220,-603.2 359,-603.2 359,-476.2 220,-476.2"/>
<polygon fill="#f5f5f5" stroke="transparent" points="220.5,-579.7 220.5,-602.7 359.5,-602.7 359.5,-579.7 220.5,-579.7"/>
<polygon fill="none" stroke="#000000" points="220.5,-579.7 220.5,-602.7 359.5,-602.7 359.5,-579.7 220.5,-579.7"/>
<text text-anchor="start" x="225.5" y="-588.3" font-family="Helvetica,sans-Serif" font-weight="bold" font-size="11.00" fill="#000000">TechnicalCareers</text>
<text text-anchor="start" x="325.0219" y="-587.8" font-family="Helvetica,sans-Serif" font-size="11.00" fill="#000000">[table]</text>
<polygon fill="none" stroke="#000000" points="220.5,-557.7 220.5,-579.7 359.5,-579.7 359.5,-557.7 220.5,-557.7"/>
<image xlink:href="../../images/primaryKeys.png" width="11px" height="12px" preserveAspectRatio="xMinYMin meet" x="225.5" y="-574.7"/>
<text text-anchor="start" x="249.5" y="-564.8" font-family="Helvetica,sans-Serif" font-size="11.00" fill="#000000">Id</text>
<polygon fill="#ffffff" stroke="transparent" points="220.5,-535.7 220.5,-557.7 359.5,-557.7 359.5,-535.7 220.5,-535.7"/>
<polygon fill="none" stroke="#000000" points="220.5,-535.7 220.5,-557.7 359.5,-557.7 359.5,-535.7 220.5,-535.7"/>
<image xlink:href="../../images/foreignKeys.png" width="11px" height="12px" preserveAspectRatio="xMinYMin meet" x="225.5" y="-552.7"/>
<text text-anchor="start" x="249.5" y="-542.8" font-family="Helvetica,sans-Serif" font-size="11.00" fill="#000000">CreatedByUserId</text>
<polygon fill="#ffffff" stroke="transparent" points="220.5,-513.7 220.5,-535.7 359.5,-535.7 359.5,-513.7 220.5,-513.7"/>
<polygon fill="none" stroke="#000000" points="220.5,-513.7 220.5,-535.7 359.5,-535.7 359.5,-513.7 220.5,-513.7"/>
<image xlink:href="../../images/foreignKeys.png" width="11px" height="12px" preserveAspectRatio="xMinYMin meet" x="225.5" y="-530.7"/>
<text text-anchor="start" x="249.5" y="-520.8" font-family="Helvetica,sans-Serif" font-size="11.00" fill="#000000">UpdatedByUserId</text>
<polygon fill="none" stroke="#000000" points="220.5,-494.7 220.5,-513.7 359.5,-513.7 359.5,-494.7 220.5,-494.7"/>
<text text-anchor="start" x="223.5" y="-500.8" font-family="Helvetica,sans-Serif" font-size="11.00" fill="#000000">...</text>
<polygon fill="#ffffff" stroke="transparent" points="220.5,-475.7 220.5,-494.7 270.5,-494.7 270.5,-475.7 220.5,-475.7"/>
<polygon fill="none" stroke="#000000" points="220.5,-475.7 220.5,-494.7 270.5,-494.7 270.5,-475.7 220.5,-475.7"/>
<text text-anchor="start" x="223.5" y="-481.8" font-family="Helvetica,sans-Serif" font-size="11.00" fill="#000000">&lt; 2</text>
<polygon fill="#ffffff" stroke="transparent" points="270.5,-475.7 270.5,-494.7 323.5,-494.7 323.5,-475.7 270.5,-475.7"/>
<polygon fill="none" stroke="#000000" points="270.5,-475.7 270.5,-494.7 323.5,-494.7 323.5,-475.7 270.5,-475.7"/>
<text text-anchor="start" x="288.1105" y="-481.8" font-family="Helvetica,sans-Serif" font-size="11.00" fill="#000000">6 rows</text>
<polygon fill="#ffffff" stroke="transparent" points="323.5,-475.7 323.5,-494.7 359.5,-494.7 359.5,-475.7 323.5,-475.7"/>
<polygon fill="none" stroke="#000000" points="323.5,-475.7 323.5,-494.7 359.5,-494.7 359.5,-475.7 323.5,-475.7"/>
<text text-anchor="start" x="340.9053" y="-481.8" font-family="Helvetica,sans-Serif" font-size="11.00" fill="#000000">6 &gt;</text>
</a>
</g>
</g>
<!-- ProfessorCompetencyAssignments&#45;&gt;TechnicalCareers -->
<g id="edge4" class="edge">
<title>ProfessorCompetencyAssignments:w&#45;&gt;TechnicalCareers:e</title>
<path fill="none" stroke="#000000" d="M665.6599,-717.5493C641.0294,-703.3596 672.4481,-644.9011 639,-617.7 626.7693,-607.7536 375.2646,-568.7 359.5,-568.7"/>
<polygon fill="#000000" stroke="#000000" points="672.1864,-718.9832 679.2274,-724.2161 676.0932,-719.8416 680,-720.7 680,-720.7 680,-720.7 676.0932,-719.8416 680.7726,-717.1839 672.1864,-718.9832 672.1864,-718.9832"/>
<ellipse fill="none" stroke="#000000" cx="669.0609" cy="-718.2965" rx="3.2" ry="3.2"/>
</g>
<!-- Professors&#45;&gt;AspNetUsers -->
<g id="edge6" class="edge">
<title>Professors:w&#45;&gt;AspNetUsers:e</title>
<path fill="none" stroke="#000000" d="M228.8453,-388.7C206.9532,-388.7 197.8264,-388.7 171.5,-388.7"/>
<polygon fill="#000000" stroke="#000000" points="238.7,-384.7 238.7,-392.7 237.1,-392.7 237.1,-384.7 238.7,-384.7"/>
<polyline fill="none" stroke="#000000" points="239.5,-388.7 235.5,-388.7 "/>
<ellipse fill="none" stroke="#000000" cx="232.3" cy="-388.7001" rx="3.2" ry="3.2"/>
</g>
<!-- Subjects&#45;&gt;AspNetUsers -->
<g id="edge14" class="edge">
<title>Subjects:w&#45;&gt;AspNetUsers:e</title>
<path fill="none" stroke="#000000" d="M395.8559,-299.5478C317.328,-297.9405 283.3311,-285.0174 212,-329.7 185.0459,-346.5844 203.3057,-388.7 171.5,-388.7"/>
<polygon fill="#000000" stroke="#000000" points="402.5004,-299.6168 410.4626,-303.2998 406.5002,-299.6584 410.5,-299.7 410.5,-299.7 410.5,-299.7 406.5002,-299.6584 410.5374,-296.1002 402.5004,-299.6168 402.5004,-299.6168"/>
<ellipse fill="none" stroke="#000000" cx="399.3006" cy="-299.5835" rx="3.2" ry="3.2"/>
</g>
<!-- Subjects&#45;&gt;AspNetUsers -->
<g id="edge17" class="edge">
<title>Subjects:w&#45;&gt;AspNetUsers:e</title>
<path fill="none" stroke="#000000" d="M395.935,-277.3699C317.5911,-273.8307 279.7582,-243.9679 212,-292.7 174.4052,-319.7384 217.8081,-388.7 171.5,-388.7"/>
<polygon fill="#000000" stroke="#000000" points="402.5021,-277.5187 410.4184,-281.2991 406.501,-277.6093 410.5,-277.7 410.5,-277.7 410.5,-277.7 406.501,-277.6093 410.5816,-274.1009 402.5021,-277.5187 402.5021,-277.5187"/>
<ellipse fill="none" stroke="#000000" cx="399.3029" cy="-277.4462" rx="3.2" ry="3.2"/>
</g>
<!-- Subjects&#45;&gt;Professors -->
<g id="edge15" class="edge">
<title>Subjects:w&#45;&gt;Professors:e</title>
<path fill="none" stroke="#000000" d="M396.0023,-387.7818C375.9323,-388.0207 366.145,-388.7 340.5,-388.7"/>
<polygon fill="#000000" stroke="#000000" points="402.5001,-387.7452 410.5203,-391.2999 406.5001,-387.7226 410.5,-387.7 410.5,-387.7 410.5,-387.7 406.5001,-387.7226 410.4797,-384.1001 402.5001,-387.7452 402.5001,-387.7452"/>
<ellipse fill="none" stroke="#000000" cx="399.3002" cy="-387.7633" rx="3.2" ry="3.2"/>
</g>
<!-- Subjects&#45;&gt;TechnicalCareers -->
<g id="edge16" class="edge">
<title>Subjects:w&#45;&gt;TechnicalCareers:e</title>
<path fill="none" stroke="#000000" d="M396.2645,-434.8188C358.5522,-455.2113 418.6338,-568.7 359.5,-568.7"/>
<polygon fill="#000000" stroke="#000000" points="402.6854,-433.4121 411.2705,-435.2166 406.5927,-432.5561 410.5,-431.7 410.5,-431.7 410.5,-431.7 406.5927,-432.5561 409.7295,-428.1834 402.6854,-433.4121 402.6854,-433.4121"/>
<ellipse fill="none" stroke="#000000" cx="399.5595" cy="-434.097" rx="3.2" ry="3.2"/>
</g>
<!-- TechnicalCareers&#45;&gt;AspNetUsers -->
<g id="edge18" class="edge">
<title>TechnicalCareers:w&#45;&gt;AspNetUsers:e</title>
<path fill="none" stroke="#000000" d="M206.2462,-543.9576C161.2505,-522.9769 239.2778,-388.7 171.5,-388.7"/>
<polygon fill="#000000" stroke="#000000" points="212.6441,-545.1885 219.8198,-550.2352 216.572,-545.9443 220.5,-546.7 220.5,-546.7 220.5,-546.7 216.572,-545.9443 221.1802,-543.1648 212.6441,-545.1885 212.6441,-545.1885"/>
<ellipse fill="none" stroke="#000000" cx="209.5017" cy="-544.5839" rx="3.2" ry="3.2"/>
</g>
<!-- TechnicalCareers&#45;&gt;AspNetUsers -->
<g id="edge19" class="edge">
<title>TechnicalCareers:w&#45;&gt;AspNetUsers:e</title>
<path fill="none" stroke="#000000" d="M205.9835,-521.3382C169.8941,-500.3953 229.7247,-388.7 171.5,-388.7"/>
<polygon fill="#000000" stroke="#000000" points="212.7063,-522.895 219.6878,-528.2072 216.6031,-523.7975 220.5,-524.7 220.5,-524.7 220.5,-524.7 216.6031,-523.7975 221.3122,-521.1928 212.7063,-522.895 212.7063,-522.895"/>
<ellipse fill="none" stroke="#000000" cx="209.5888" cy="-522.1731" rx="3.2" ry="3.2"/>
</g>
<!-- StudentCompetencyEvaluations -->
<g id="node6" class="node">
<title>StudentCompetencyEvaluations</title>
<g id="a_node6"><a xlink:href="../../tables/StudentCompetencyEvaluations.html" xlink:title="StudentCompetencyEvaluations" target="_top">
<polygon fill="#ffffff" stroke="transparent" points="971,-424.2 971,-617.2 1199,-617.2 1199,-424.2 971,-424.2"/>
<polygon fill="#f5f5f5" stroke="transparent" points="971,-593.7 971,-616.7 1199,-616.7 1199,-593.7 971,-593.7"/>
<polygon fill="none" stroke="#000000" points="971,-593.7 971,-616.7 1199,-616.7 1199,-593.7 971,-593.7"/>
<text text-anchor="start" x="976" y="-602.3" font-family="Helvetica,sans-Serif" font-weight="bold" font-size="11.00" fill="#000000">StudentCompetencyEvaluations</text>
<text text-anchor="start" x="1164.0437" y="-601.8" font-family="Helvetica,sans-Serif" font-size="11.00" fill="#000000">[table]</text>
<polygon fill="none" stroke="#000000" points="971,-571.7 971,-593.7 1199,-593.7 1199,-571.7 971,-571.7"/>
<image xlink:href="../../images/primaryKeys.png" width="11px" height="12px" preserveAspectRatio="xMinYMin meet" x="976" y="-588.7"/>
<text text-anchor="start" x="991" y="-578.8" font-family="Helvetica,sans-Serif" font-size="11.00" fill="#000000">Id</text>
<polygon fill="#ffffff" stroke="transparent" points="971,-549.7 971,-571.7 1199,-571.7 1199,-549.7 971,-549.7"/>
<polygon fill="none" stroke="#000000" points="971,-549.7 971,-571.7 1199,-571.7 1199,-549.7 971,-549.7"/>
<image xlink:href="../../images/foreignKeys.png" width="11px" height="12px" preserveAspectRatio="xMinYMin meet" x="976" y="-566.7"/>
<text text-anchor="start" x="991" y="-556.8" font-family="Helvetica,sans-Serif" font-size="11.00" fill="#000000">ProfessorCompetencyAssignmentId</text>
<polygon fill="#ffffff" stroke="transparent" points="971,-527.7 971,-549.7 1199,-549.7 1199,-527.7 971,-527.7"/>
<polygon fill="none" stroke="#000000" points="971,-527.7 971,-549.7 1199,-549.7 1199,-527.7 971,-527.7"/>
<image xlink:href="../../images/foreignKeys.png" width="11px" height="12px" preserveAspectRatio="xMinYMin meet" x="976" y="-544.7"/>
<text text-anchor="start" x="991" y="-534.8" font-family="Helvetica,sans-Serif" font-size="11.00" fill="#000000">StudentId</text>
<polygon fill="#ffffff" stroke="transparent" points="971,-505.7 971,-527.7 1199,-527.7 1199,-505.7 971,-505.7"/>
<polygon fill="none" stroke="#000000" points="971,-505.7 971,-527.7 1199,-527.7 1199,-505.7 971,-505.7"/>
<image xlink:href="../../images/foreignKeys.png" width="11px" height="12px" preserveAspectRatio="xMinYMin meet" x="976" y="-522.7"/>
<text text-anchor="start" x="991" y="-512.8" font-family="Helvetica,sans-Serif" font-size="11.00" fill="#000000">CreatedByUserId</text>
<polygon fill="#ffffff" stroke="transparent" points="971,-483.7 971,-505.7 1199,-505.7 1199,-483.7 971,-483.7"/>
<polygon fill="none" stroke="#000000" points="971,-483.7 971,-505.7 1199,-505.7 1199,-483.7 971,-483.7"/>
<image xlink:href="../../images/foreignKeys.png" width="11px" height="12px" preserveAspectRatio="xMinYMin meet" x="976" y="-500.7"/>
<text text-anchor="start" x="991" y="-490.8" font-family="Helvetica,sans-Serif" font-size="11.00" fill="#000000">UpdatedByUserId</text>
<polygon fill="#ffffff" stroke="transparent" points="971,-461.7 971,-483.7 1199,-483.7 1199,-461.7 971,-461.7"/>
<polygon fill="none" stroke="#000000" points="971,-461.7 971,-483.7 1199,-483.7 1199,-461.7 971,-461.7"/>
<image xlink:href="../../images/foreignKeys.png" width="11px" height="12px" preserveAspectRatio="xMinYMin meet" x="976" y="-478.7"/>
<text text-anchor="start" x="991" y="-468.8" font-family="Helvetica,sans-Serif" font-size="11.00" fill="#000000">SubjectId</text>
<polygon fill="none" stroke="#000000" points="971,-442.7 971,-461.7 1199,-461.7 1199,-442.7 971,-442.7"/>
<text text-anchor="start" x="974" y="-448.8" font-family="Helvetica,sans-Serif" font-size="11.00" fill="#000000">...</text>
<polygon fill="#ffffff" stroke="transparent" points="971,-423.7 971,-442.7 1066,-442.7 1066,-423.7 971,-423.7"/>
<polygon fill="none" stroke="#000000" points="971,-423.7 971,-442.7 1066,-442.7 1066,-423.7 971,-423.7"/>
<text text-anchor="start" x="974" y="-429.8" font-family="Helvetica,sans-Serif" font-size="11.00" fill="#000000">&lt; 5</text>
<polygon fill="#ffffff" stroke="transparent" points="1066,-423.7 1066,-442.7 1141,-442.7 1141,-423.7 1066,-423.7"/>
<polygon fill="none" stroke="#000000" points="1066,-423.7 1066,-442.7 1141,-442.7 1141,-423.7 1066,-423.7"/>
<text text-anchor="start" x="1105.6105" y="-429.8" font-family="Helvetica,sans-Serif" font-size="11.00" fill="#000000">0 rows</text>
<polygon fill="#ffffff" stroke="transparent" points="1141,-423.7 1141,-442.7 1199,-442.7 1199,-423.7 1141,-423.7"/>
<polygon fill="none" stroke="#000000" points="1141,-423.7 1141,-442.7 1199,-442.7 1199,-423.7 1141,-423.7"/>
<text text-anchor="start" x="1180.4053" y="-429.8" font-family="Helvetica,sans-Serif" font-size="11.00" fill="#000000">1 &gt;</text>
</a>
</g>
</g>
<!-- StudentCompetencyEvaluations&#45;&gt;ProfessorCompetencyAssignments -->
<g id="edge8" class="edge">
<title>StudentCompetencyEvaluations:w&#45;&gt;ProfessorCompetencyAssignments:e</title>
<path fill="none" stroke="#000000" d="M956.5277,-563.1352C902.4918,-584.7323 1000.0428,-742.7 922,-742.7"/>
<polygon fill="#000000" stroke="#000000" points="963.1109,-562.0275 971.5974,-564.2501 967.0555,-561.3638 971,-560.7 971,-560.7 971,-560.7 967.0555,-561.3638 970.4026,-557.1499 963.1109,-562.0275 963.1109,-562.0275"/>
<ellipse fill="none" stroke="#000000" cx="959.9553" cy="-562.5585" rx="3.2" ry="3.2"/>
</g>
<!-- StudentCompetencyEvaluations&#45;&gt;AspNetUsers -->
<g id="edge7" class="edge">
<title>StudentCompetencyEvaluations:w&#45;&gt;AspNetUsers:e</title>
<path fill="none" stroke="#000000" d="M956.3975,-517.0367C865.9746,-519.7351 425.4435,-537.3695 400,-522.7 374.6404,-508.0788 390.7425,-482.8225 367,-465.7 309.9471,-424.5549 273.0164,-468.6994 212,-433.7 188.6599,-420.312 198.4072,-388.7 171.5,-388.7"/>
<polygon fill="#000000" stroke="#000000" points="963.0021,-516.8844 971.083,-520.299 967.0011,-516.7922 971,-516.7 971,-516.7 971,-516.7 967.0011,-516.7922 970.917,-513.101 963.0021,-516.8844 963.0021,-516.8844"/>
<ellipse fill="none" stroke="#000000" cx="959.803" cy="-516.9582" rx="3.2" ry="3.2"/>
</g>
<!-- StudentCompetencyEvaluations&#45;&gt;AspNetUsers -->
<g id="edge10" class="edge">
<title>StudentCompetencyEvaluations:w&#45;&gt;AspNetUsers:e</title>
<path fill="none" stroke="#000000" d="M957.9183,-488.4795C896.2144,-449.7066 659.0475,-242.5948 639,-235.7 549.1034,-204.7825 284.7241,-200.4751 212,-261.7 166.6777,-299.8558 230.745,-388.7 171.5,-388.7"/>
<polygon fill="#000000" stroke="#000000" points="963.7752,-491.2645 969.454,-497.9512 967.3876,-492.9823 971,-494.7 971,-494.7 971,-494.7 967.3876,-492.9823 972.546,-491.4488 963.7752,-491.2645 963.7752,-491.2645"/>
<ellipse fill="none" stroke="#000000" cx="960.8853" cy="-489.8903" rx="3.2" ry="3.2"/>
</g>
<!-- StudentCompetencyEvaluations&#45;&gt;Subjects -->
<g id="edge9" class="edge">
<title>StudentCompetencyEvaluations:w&#45;&gt;Subjects:e</title>
<path fill="none" stroke="#000000" d="M956.2491,-472.7097C816.5719,-472.8959 776.2439,-475.7 629.5,-475.7"/>
<polygon fill="#000000" stroke="#000000" points="963,-472.7053 971.0024,-476.3 967,-472.7027 971,-472.7 971,-472.7 971,-472.7 967,-472.7027 970.9976,-469.1 963,-472.7053 963,-472.7053"/>
<ellipse fill="none" stroke="#000000" cx="959.8" cy="-472.7074" rx="3.2" ry="3.2"/>
</g>
<!-- StudentSubjects -->
<g id="node7" class="node">
<title>StudentSubjects</title>
<g id="a_node7"><a xlink:href="../../tables/StudentSubjects.html" xlink:title="StudentSubjects" target="_top">
<polygon fill="#ffffff" stroke="transparent" points="734.5,-38.2 734.5,-209.2 867.5,-209.2 867.5,-38.2 734.5,-38.2"/>
<polygon fill="#f5f5f5" stroke="transparent" points="735,-185.7 735,-208.7 868,-208.7 868,-185.7 735,-185.7"/>
<polygon fill="none" stroke="#000000" points="735,-185.7 735,-208.7 868,-208.7 868,-185.7 735,-185.7"/>
<text text-anchor="start" x="740" y="-194.3" font-family="Helvetica,sans-Serif" font-weight="bold" font-size="11.00" fill="#000000">StudentSubjects</text>
<text text-anchor="start" x="833.5219" y="-193.8" font-family="Helvetica,sans-Serif" font-size="11.00" fill="#000000">[table]</text>
<polygon fill="none" stroke="#000000" points="735,-163.7 735,-185.7 868,-185.7 868,-163.7 735,-163.7"/>
<image xlink:href="../../images/primaryKeys.png" width="11px" height="12px" preserveAspectRatio="xMinYMin meet" x="740" y="-180.7"/>
<text text-anchor="start" x="761" y="-170.8" font-family="Helvetica,sans-Serif" font-size="11.00" fill="#000000">Id</text>
<polygon fill="#ffffff" stroke="transparent" points="735,-141.7 735,-163.7 868,-163.7 868,-141.7 735,-141.7"/>
<polygon fill="none" stroke="#000000" points="735,-141.7 735,-163.7 868,-163.7 868,-141.7 735,-141.7"/>
<image xlink:href="../../images/foreignKeys.png" width="11px" height="12px" preserveAspectRatio="xMinYMin meet" x="740" y="-158.7"/>
<text text-anchor="start" x="761" y="-148.8" font-family="Helvetica,sans-Serif" font-size="11.00" fill="#000000">StudentId</text>
<polygon fill="#ffffff" stroke="transparent" points="735,-119.7 735,-141.7 868,-141.7 868,-119.7 735,-119.7"/>
<polygon fill="none" stroke="#000000" points="735,-119.7 735,-141.7 868,-141.7 868,-119.7 735,-119.7"/>
<image xlink:href="../../images/foreignKeys.png" width="11px" height="12px" preserveAspectRatio="xMinYMin meet" x="740" y="-136.7"/>
<text text-anchor="start" x="761" y="-126.8" font-family="Helvetica,sans-Serif" font-size="11.00" fill="#000000">SubjectId</text>
<polygon fill="#ffffff" stroke="transparent" points="735,-97.7 735,-119.7 868,-119.7 868,-97.7 735,-97.7"/>
<polygon fill="none" stroke="#000000" points="735,-97.7 735,-119.7 868,-119.7 868,-97.7 735,-97.7"/>
<image xlink:href="../../images/foreignKeys.png" width="11px" height="12px" preserveAspectRatio="xMinYMin meet" x="740" y="-114.7"/>
<text text-anchor="start" x="761" y="-104.8" font-family="Helvetica,sans-Serif" font-size="11.00" fill="#000000">CreatedByUserId</text>
<polygon fill="#ffffff" stroke="transparent" points="735,-75.7 735,-97.7 868,-97.7 868,-75.7 735,-75.7"/>
<polygon fill="none" stroke="#000000" points="735,-75.7 735,-97.7 868,-97.7 868,-75.7 735,-75.7"/>
<image xlink:href="../../images/foreignKeys.png" width="11px" height="12px" preserveAspectRatio="xMinYMin meet" x="740" y="-92.7"/>
<text text-anchor="start" x="761" y="-82.8" font-family="Helvetica,sans-Serif" font-size="11.00" fill="#000000">UpdatedByUserId</text>
<polygon fill="none" stroke="#000000" points="735,-56.7 735,-75.7 868,-75.7 868,-56.7 735,-56.7"/>
<text text-anchor="start" x="738" y="-62.8" font-family="Helvetica,sans-Serif" font-size="11.00" fill="#000000">...</text>
<polygon fill="#ffffff" stroke="transparent" points="735,-37.7 735,-56.7 787,-56.7 787,-37.7 735,-37.7"/>
<polygon fill="none" stroke="#000000" points="735,-37.7 735,-56.7 787,-56.7 787,-37.7 735,-37.7"/>
<text text-anchor="start" x="738" y="-43.8" font-family="Helvetica,sans-Serif" font-size="11.00" fill="#000000">&lt; 4</text>
<polygon fill="#ffffff" stroke="transparent" points="787,-37.7 787,-56.7 840,-56.7 840,-37.7 787,-37.7"/>
<polygon fill="none" stroke="#000000" points="787,-37.7 787,-56.7 840,-56.7 840,-37.7 787,-37.7"/>
<text text-anchor="start" x="804.6105" y="-43.8" font-family="Helvetica,sans-Serif" font-size="11.00" fill="#000000">0 rows</text>
<polygon fill="#ffffff" stroke="transparent" points="840,-37.7 840,-56.7 868,-56.7 868,-37.7 840,-37.7"/>
<polygon fill="none" stroke="#000000" points="840,-37.7 840,-56.7 868,-56.7 868,-37.7 840,-37.7"/>
<text text-anchor="start" x="858.8862" y="-43.8" font-family="Helvetica,sans-Serif" font-size="11.00" fill="#000000"> &#160;</text>
</a>
</g>
</g>
<!-- StudentSubjects&#45;&gt;AspNetUsers -->
<g id="edge11" class="edge">
<title>StudentSubjects:w&#45;&gt;AspNetUsers:e</title>
<path fill="none" stroke="#000000" d="M720.6549,-110.1048C635.2218,-121.0436 231.6169,-192.6723 212,-211.7 154.0734,-267.8868 252.1997,-388.7 171.5,-388.7"/>
<polygon fill="#000000" stroke="#000000" points="727.0381,-109.4797 735.3509,-112.2829 731.019,-109.0899 735,-108.7 735,-108.7 735,-108.7 731.019,-109.0899 734.6491,-105.1171 727.0381,-109.4797 727.0381,-109.4797"/>
<ellipse fill="none" stroke="#000000" cx="723.8533" cy="-109.7916" rx="3.2" ry="3.2"/>
</g>
<!-- StudentSubjects&#45;&gt;AspNetUsers -->
<g id="edge13" class="edge">
<title>StudentSubjects:w&#45;&gt;AspNetUsers:e</title>
<path fill="none" stroke="#000000" d="M720.3222,-86.5849C494.3819,-83.0558 369.6735,-.779 212,-168.7 143.9452,-241.1778 270.9208,-388.7 171.5,-388.7"/>
<polygon fill="#000000" stroke="#000000" points="727.0002,-86.6372 734.9717,-90.2999 731.0001,-86.6686 735,-86.7 735,-86.7 735,-86.7 731.0001,-86.6686 735.0283,-83.1001 727.0002,-86.6372 727.0002,-86.6372"/>
<ellipse fill="none" stroke="#000000" cx="723.8003" cy="-86.6121" rx="3.2" ry="3.2"/>
</g>
<!-- StudentSubjects&#45;&gt;Subjects -->
<g id="edge12" class="edge">
<title>StudentSubjects:w&#45;&gt;Subjects:e</title>
<path fill="none" stroke="#000000" d="M720.2429,-131.8158C588.5332,-153.2298 784.5185,-475.7 629.5,-475.7"/>
<polygon fill="#000000" stroke="#000000" points="727.0228,-131.3032 735.2714,-134.2898 731.0114,-131.0016 735,-130.7 735,-130.7 735,-130.7 731.0114,-131.0016 734.7286,-127.1102 727.0228,-131.3032 727.0228,-131.3032"/>
<ellipse fill="none" stroke="#000000" cx="723.8319" cy="-131.5445" rx="3.2" ry="3.2"/>
</g>
</g>
</svg>
