<?xml version="1.0" encoding="UTF-8" standalone="no"?>
<!DOCTYPE svg PUBLIC "-//W3C//DTD SVG 1.1//EN"
 "http://www.w3.org/Graphics/SVG/1.1/DTD/svg11.dtd">
<!-- Generated by graphviz version 2.40.1 (20161225.0304)
 -->
<!-- Title: twoDegreesRelationshipsDiagram Pages: 1 -->
<svg width="1103pt" height="1249pt"
 viewBox="0.00 0.00 1103.00 1249.26" xmlns="http://www.w3.org/2000/svg" xmlns:xlink="http://www.w3.org/1999/xlink">
<g id="graph0" class="graph" transform="scale(1 1) rotate(0) translate(4 1245.2592)">
<title>twoDegreesRelationshipsDiagram</title>
<polygon fill="#ffffff" stroke="transparent" points="-4,4 -4,-1245.2592 1099,-1245.2592 1099,4 -4,4"/>
<text text-anchor="middle" x="72.4936" y="-7.3" font-family="Helvetica,sans-Serif" font-size="11.00" fill="#000000">Generated by SchemaSpy</text>
<!-- AspNetUserClaims -->
<g id="node1" class="node">
<title>AspNetUserClaims</title>
<g id="a_node1"><a xlink:href="../../tables/AspNetUserClaims.html" xlink:title="AspNetUserClaims" target="_top">
<polygon fill="#ffffff" stroke="transparent" points="172,-1176.2592 172,-1237.2592 319,-1237.2592 319,-1176.2592 172,-1176.2592"/>
<polygon fill="#f5f5f5" stroke="transparent" points="172.5,-1213.7592 172.5,-1236.7592 319.5,-1236.7592 319.5,-1213.7592 172.5,-1213.7592"/>
<polygon fill="none" stroke="#000000" points="172.5,-1213.7592 172.5,-1236.7592 319.5,-1236.7592 319.5,-1213.7592 172.5,-1213.7592"/>
<text text-anchor="start" x="177.5" y="-1222.3592" font-family="Helvetica,sans-Serif" font-weight="bold" font-size="11.00" fill="#000000">AspNetUserClaims</text>
<text text-anchor="start" x="285.0219" y="-1221.8592" font-family="Helvetica,sans-Serif" font-size="11.00" fill="#000000">[table]</text>
<polygon fill="none" stroke="#000000" points="172.5,-1194.7592 172.5,-1213.7592 319.5,-1213.7592 319.5,-1194.7592 172.5,-1194.7592"/>
<text text-anchor="start" x="175.5" y="-1200.8592" font-family="Helvetica,sans-Serif" font-size="11.00" fill="#000000">...</text>
<polygon fill="#ffffff" stroke="transparent" points="172.5,-1175.7592 172.5,-1194.7592 231.5,-1194.7592 231.5,-1175.7592 172.5,-1175.7592"/>
<polygon fill="none" stroke="#000000" points="172.5,-1175.7592 172.5,-1194.7592 231.5,-1194.7592 231.5,-1175.7592 172.5,-1175.7592"/>
<text text-anchor="start" x="175.5" y="-1181.8592" font-family="Helvetica,sans-Serif" font-size="11.00" fill="#000000">&lt; 1</text>
<polygon fill="#ffffff" stroke="transparent" points="231.5,-1175.7592 231.5,-1194.7592 288.5,-1194.7592 288.5,-1175.7592 231.5,-1175.7592"/>
<polygon fill="none" stroke="#000000" points="231.5,-1175.7592 231.5,-1194.7592 288.5,-1194.7592 288.5,-1175.7592 231.5,-1175.7592"/>
<text text-anchor="start" x="253.1105" y="-1181.8592" font-family="Helvetica,sans-Serif" font-size="11.00" fill="#000000">0 rows</text>
<polygon fill="#ffffff" stroke="transparent" points="288.5,-1175.7592 288.5,-1194.7592 319.5,-1194.7592 319.5,-1175.7592 288.5,-1175.7592"/>
<polygon fill="none" stroke="#000000" points="288.5,-1175.7592 288.5,-1194.7592 319.5,-1194.7592 319.5,-1175.7592 288.5,-1175.7592"/>
<text text-anchor="start" x="310.3862" y="-1181.8592" font-family="Helvetica,sans-Serif" font-size="11.00" fill="#000000"> &#160;</text>
</a>
</g>
</g>
<!-- AspNetUsers -->
<g id="node2" class="node">
<title>AspNetUsers</title>
<g id="a_node2"><a xlink:href="../../tables/AspNetUsers.html" xlink:title="AspNetUsers" target="_top">
<polygon fill="#ffffff" stroke="transparent" points="8,-593.2592 8,-654.2592 122,-654.2592 122,-593.2592 8,-593.2592"/>
<polygon fill="#f5f5f5" stroke="transparent" points="8,-630.7592 8,-653.7592 122,-653.7592 122,-630.7592 8,-630.7592"/>
<polygon fill="none" stroke="#000000" points="8,-630.7592 8,-653.7592 122,-653.7592 122,-630.7592 8,-630.7592"/>
<text text-anchor="start" x="13" y="-639.3592" font-family="Helvetica,sans-Serif" font-weight="bold" font-size="11.00" fill="#000000">AspNetUsers</text>
<text text-anchor="start" x="87.5219" y="-638.8592" font-family="Helvetica,sans-Serif" font-size="11.00" fill="#000000">[table]</text>
<polygon fill="none" stroke="#000000" points="8,-611.7592 8,-630.7592 122,-630.7592 122,-611.7592 8,-611.7592"/>
<text text-anchor="start" x="11" y="-617.8592" font-family="Helvetica,sans-Serif" font-size="11.00" fill="#000000">...</text>
<polygon fill="#ffffff" stroke="transparent" points="8,-592.7592 8,-611.7592 38,-611.7592 38,-592.7592 8,-592.7592"/>
<polygon fill="none" stroke="#000000" points="8,-592.7592 8,-611.7592 38,-611.7592 38,-592.7592 8,-592.7592"/>
<text text-anchor="start" x="11" y="-598.8592" font-family="Helvetica,sans-Serif" font-size="11.00" fill="#000000"> &#160;</text>
<polygon fill="#ffffff" stroke="transparent" points="38,-592.7592 38,-611.7592 85,-611.7592 85,-592.7592 38,-592.7592"/>
<polygon fill="none" stroke="#000000" points="38,-592.7592 38,-611.7592 85,-611.7592 85,-592.7592 38,-592.7592"/>
<text text-anchor="start" x="49.6105" y="-598.8592" font-family="Helvetica,sans-Serif" font-size="11.00" fill="#000000">0 rows</text>
<polygon fill="#ffffff" stroke="transparent" points="85,-592.7592 85,-611.7592 122,-611.7592 122,-592.7592 85,-592.7592"/>
<polygon fill="none" stroke="#000000" points="85,-592.7592 85,-611.7592 122,-611.7592 122,-592.7592 85,-592.7592"/>
<text text-anchor="start" x="97.2904" y="-598.8592" font-family="Helvetica,sans-Serif" font-size="11.00" fill="#000000">29 &gt;</text>
</a>
</g>
</g>
<!-- AspNetUserClaims&#45;&gt;AspNetUsers -->
<g id="edge1" class="edge">
<title>AspNetUserClaims:w&#45;&gt;AspNetUsers:e</title>
<path fill="none" stroke="#000000" d="M159.7374,-1196.3995C110.8119,-1139.8466 77.1742,-773.4122 67.7134,-658.3039"/>
<polygon fill="#000000" stroke="#000000" points="165.5697,-1199.7627 170.7016,-1206.8778 169.0349,-1201.7609 172.5,-1203.7592 172.5,-1203.7592 172.5,-1203.7592 169.0349,-1201.7609 174.2984,-1200.6405 165.5697,-1199.7627 165.5697,-1199.7627"/>
<ellipse fill="none" stroke="#000000" cx="162.7976" cy="-1198.1642" rx="3.2" ry="3.2"/>
</g>
<!-- AspNetUserLogins -->
<g id="node3" class="node">
<title>AspNetUserLogins</title>
<g id="a_node3"><a xlink:href="../../tables/AspNetUserLogins.html" xlink:title="AspNetUserLogins" target="_top">
<polygon fill="#ffffff" stroke="transparent" points="172,-1094.2592 172,-1155.2592 319,-1155.2592 319,-1094.2592 172,-1094.2592"/>
<polygon fill="#f5f5f5" stroke="transparent" points="172.5,-1131.7592 172.5,-1154.7592 319.5,-1154.7592 319.5,-1131.7592 172.5,-1131.7592"/>
<polygon fill="none" stroke="#000000" points="172.5,-1131.7592 172.5,-1154.7592 319.5,-1154.7592 319.5,-1131.7592 172.5,-1131.7592"/>
<text text-anchor="start" x="177.5" y="-1140.3592" font-family="Helvetica,sans-Serif" font-weight="bold" font-size="11.00" fill="#000000">AspNetUserLogins</text>
<text text-anchor="start" x="285.0219" y="-1139.8592" font-family="Helvetica,sans-Serif" font-size="11.00" fill="#000000">[table]</text>
<polygon fill="none" stroke="#000000" points="172.5,-1112.7592 172.5,-1131.7592 319.5,-1131.7592 319.5,-1112.7592 172.5,-1112.7592"/>
<text text-anchor="start" x="175.5" y="-1118.8592" font-family="Helvetica,sans-Serif" font-size="11.00" fill="#000000">...</text>
<polygon fill="#ffffff" stroke="transparent" points="172.5,-1093.7592 172.5,-1112.7592 231.5,-1112.7592 231.5,-1093.7592 172.5,-1093.7592"/>
<polygon fill="none" stroke="#000000" points="172.5,-1093.7592 172.5,-1112.7592 231.5,-1112.7592 231.5,-1093.7592 172.5,-1093.7592"/>
<text text-anchor="start" x="175.5" y="-1099.8592" font-family="Helvetica,sans-Serif" font-size="11.00" fill="#000000">&lt; 1</text>
<polygon fill="#ffffff" stroke="transparent" points="231.5,-1093.7592 231.5,-1112.7592 288.5,-1112.7592 288.5,-1093.7592 231.5,-1093.7592"/>
<polygon fill="none" stroke="#000000" points="231.5,-1093.7592 231.5,-1112.7592 288.5,-1112.7592 288.5,-1093.7592 231.5,-1093.7592"/>
<text text-anchor="start" x="253.1105" y="-1099.8592" font-family="Helvetica,sans-Serif" font-size="11.00" fill="#000000">0 rows</text>
<polygon fill="#ffffff" stroke="transparent" points="288.5,-1093.7592 288.5,-1112.7592 319.5,-1112.7592 319.5,-1093.7592 288.5,-1093.7592"/>
<polygon fill="none" stroke="#000000" points="288.5,-1093.7592 288.5,-1112.7592 319.5,-1112.7592 319.5,-1093.7592 288.5,-1093.7592"/>
<text text-anchor="start" x="310.3862" y="-1099.8592" font-family="Helvetica,sans-Serif" font-size="11.00" fill="#000000"> &#160;</text>
</a>
</g>
</g>
<!-- AspNetUserLogins&#45;&gt;AspNetUsers -->
<g id="edge2" class="edge">
<title>AspNetUserLogins:w&#45;&gt;AspNetUsers:e</title>
<path fill="none" stroke="#000000" d="M160.0905,-1114.0371C117.6104,-1061.9928 80.4265,-761.3915 68.7751,-658.3822"/>
<polygon fill="#000000" stroke="#000000" points="165.7077,-1117.5325 170.598,-1124.8157 169.1038,-1119.6458 172.5,-1121.7592 172.5,-1121.7592 172.5,-1121.7592 169.1038,-1119.6458 174.402,-1118.7026 165.7077,-1117.5325 165.7077,-1117.5325"/>
<ellipse fill="none" stroke="#000000" cx="162.9908" cy="-1115.8418" rx="3.2" ry="3.2"/>
</g>
<!-- AspNetUserRoles -->
<g id="node4" class="node">
<title>AspNetUserRoles</title>
<g id="a_node4"><a xlink:href="../../tables/AspNetUserRoles.html" xlink:title="AspNetUserRoles" target="_top">
<polygon fill="#ffffff" stroke="transparent" points="175.5,-1012.2592 175.5,-1073.2592 315.5,-1073.2592 315.5,-1012.2592 175.5,-1012.2592"/>
<polygon fill="#f5f5f5" stroke="transparent" points="175.5,-1049.7592 175.5,-1072.7592 315.5,-1072.7592 315.5,-1049.7592 175.5,-1049.7592"/>
<polygon fill="none" stroke="#000000" points="175.5,-1049.7592 175.5,-1072.7592 315.5,-1072.7592 315.5,-1049.7592 175.5,-1049.7592"/>
<text text-anchor="start" x="180.5" y="-1058.3592" font-family="Helvetica,sans-Serif" font-weight="bold" font-size="11.00" fill="#000000">AspNetUserRoles</text>
<text text-anchor="start" x="281.0219" y="-1057.8592" font-family="Helvetica,sans-Serif" font-size="11.00" fill="#000000">[table]</text>
<polygon fill="none" stroke="#000000" points="175.5,-1030.7592 175.5,-1049.7592 315.5,-1049.7592 315.5,-1030.7592 175.5,-1030.7592"/>
<text text-anchor="start" x="178.5" y="-1036.8592" font-family="Helvetica,sans-Serif" font-size="11.00" fill="#000000">...</text>
<polygon fill="#ffffff" stroke="transparent" points="175.5,-1011.7592 175.5,-1030.7592 230.5,-1030.7592 230.5,-1011.7592 175.5,-1011.7592"/>
<polygon fill="none" stroke="#000000" points="175.5,-1011.7592 175.5,-1030.7592 230.5,-1030.7592 230.5,-1011.7592 175.5,-1011.7592"/>
<text text-anchor="start" x="178.5" y="-1017.8592" font-family="Helvetica,sans-Serif" font-size="11.00" fill="#000000">&lt; 2</text>
<polygon fill="#ffffff" stroke="transparent" points="230.5,-1011.7592 230.5,-1030.7592 285.5,-1030.7592 285.5,-1011.7592 230.5,-1011.7592"/>
<polygon fill="none" stroke="#000000" points="230.5,-1011.7592 230.5,-1030.7592 285.5,-1030.7592 285.5,-1011.7592 230.5,-1011.7592"/>
<text text-anchor="start" x="250.1105" y="-1017.8592" font-family="Helvetica,sans-Serif" font-size="11.00" fill="#000000">0 rows</text>
<polygon fill="#ffffff" stroke="transparent" points="285.5,-1011.7592 285.5,-1030.7592 315.5,-1030.7592 315.5,-1011.7592 285.5,-1011.7592"/>
<polygon fill="none" stroke="#000000" points="285.5,-1011.7592 285.5,-1030.7592 315.5,-1030.7592 315.5,-1011.7592 285.5,-1011.7592"/>
<text text-anchor="start" x="306.3862" y="-1017.8592" font-family="Helvetica,sans-Serif" font-size="11.00" fill="#000000"> &#160;</text>
</a>
</g>
</g>
<!-- AspNetUserRoles&#45;&gt;AspNetUsers -->
<g id="edge3" class="edge">
<title>AspNetUserRoles:w&#45;&gt;AspNetUsers:e</title>
<path fill="none" stroke="#000000" d="M161.3844,-1036.576C93.918,-1005.309 72.4528,-752.2441 66.7776,-658.5116"/>
<polygon fill="#000000" stroke="#000000" points="167.696,-1037.9993 174.708,-1043.271 171.598,-1038.8792 175.5,-1039.7592 175.5,-1039.7592 175.5,-1039.7592 171.598,-1038.8792 176.292,-1036.2474 167.696,-1037.9993 167.696,-1037.9993"/>
<ellipse fill="none" stroke="#000000" cx="164.5744" cy="-1037.2953" rx="3.2" ry="3.2"/>
</g>
<!-- AspNetUserTokens -->
<g id="node5" class="node">
<title>AspNetUserTokens</title>
<g id="a_node5"><a xlink:href="../../tables/AspNetUserTokens.html" xlink:title="AspNetUserTokens" target="_top">
<polygon fill="#ffffff" stroke="transparent" points="171,-930.2592 171,-991.2592 320,-991.2592 320,-930.2592 171,-930.2592"/>
<polygon fill="#f5f5f5" stroke="transparent" points="171.5,-967.7592 171.5,-990.7592 320.5,-990.7592 320.5,-967.7592 171.5,-967.7592"/>
<polygon fill="none" stroke="#000000" points="171.5,-967.7592 171.5,-990.7592 320.5,-990.7592 320.5,-967.7592 171.5,-967.7592"/>
<text text-anchor="start" x="176.5" y="-976.3592" font-family="Helvetica,sans-Serif" font-weight="bold" font-size="11.00" fill="#000000">AspNetUserTokens</text>
<text text-anchor="start" x="286.0219" y="-975.8592" font-family="Helvetica,sans-Serif" font-size="11.00" fill="#000000">[table]</text>
<polygon fill="none" stroke="#000000" points="171.5,-948.7592 171.5,-967.7592 320.5,-967.7592 320.5,-948.7592 171.5,-948.7592"/>
<text text-anchor="start" x="174.5" y="-954.8592" font-family="Helvetica,sans-Serif" font-size="11.00" fill="#000000">...</text>
<polygon fill="#ffffff" stroke="transparent" points="171.5,-929.7592 171.5,-948.7592 231.5,-948.7592 231.5,-929.7592 171.5,-929.7592"/>
<polygon fill="none" stroke="#000000" points="171.5,-929.7592 171.5,-948.7592 231.5,-948.7592 231.5,-929.7592 171.5,-929.7592"/>
<text text-anchor="start" x="174.5" y="-935.8592" font-family="Helvetica,sans-Serif" font-size="11.00" fill="#000000">&lt; 1</text>
<polygon fill="#ffffff" stroke="transparent" points="231.5,-929.7592 231.5,-948.7592 288.5,-948.7592 288.5,-929.7592 231.5,-929.7592"/>
<polygon fill="none" stroke="#000000" points="231.5,-929.7592 231.5,-948.7592 288.5,-948.7592 288.5,-929.7592 231.5,-929.7592"/>
<text text-anchor="start" x="253.1105" y="-935.8592" font-family="Helvetica,sans-Serif" font-size="11.00" fill="#000000">0 rows</text>
<polygon fill="#ffffff" stroke="transparent" points="288.5,-929.7592 288.5,-948.7592 320.5,-948.7592 320.5,-929.7592 288.5,-929.7592"/>
<polygon fill="none" stroke="#000000" points="288.5,-929.7592 288.5,-948.7592 320.5,-948.7592 320.5,-929.7592 288.5,-929.7592"/>
<text text-anchor="start" x="311.3862" y="-935.8592" font-family="Helvetica,sans-Serif" font-size="11.00" fill="#000000"> &#160;</text>
</a>
</g>
</g>
<!-- AspNetUserTokens&#45;&gt;AspNetUsers -->
<g id="edge4" class="edge">
<title>AspNetUserTokens:w&#45;&gt;AspNetUsers:e</title>
<path fill="none" stroke="#000000" d="M157.469,-954.01C104.5125,-925.1574 77.6584,-737.4203 68.6044,-658.5578"/>
<polygon fill="#000000" stroke="#000000" points="163.7712,-955.6939 170.5706,-961.2371 167.6356,-956.7265 171.5,-957.7592 171.5,-957.7592 171.5,-957.7592 167.6356,-956.7265 172.4294,-954.2812 163.7712,-955.6939 163.7712,-955.6939"/>
<ellipse fill="none" stroke="#000000" cx="160.6796" cy="-954.8678" rx="3.2" ry="3.2"/>
</g>
<!-- Competencies -->
<g id="node6" class="node">
<title>Competencies</title>
<g id="a_node6"><a xlink:href="../../tables/Competencies.html" xlink:title="Competencies" target="_top">
<polygon fill="#ffffff" stroke="transparent" points="185,-730.2592 185,-791.2592 306,-791.2592 306,-730.2592 185,-730.2592"/>
<polygon fill="#f5f5f5" stroke="transparent" points="185.5,-767.7592 185.5,-790.7592 306.5,-790.7592 306.5,-767.7592 185.5,-767.7592"/>
<polygon fill="none" stroke="#000000" points="185.5,-767.7592 185.5,-790.7592 306.5,-790.7592 306.5,-767.7592 185.5,-767.7592"/>
<text text-anchor="start" x="190.5" y="-776.3592" font-family="Helvetica,sans-Serif" font-weight="bold" font-size="11.00" fill="#000000">Competencies</text>
<text text-anchor="start" x="272.0219" y="-775.8592" font-family="Helvetica,sans-Serif" font-size="11.00" fill="#000000">[table]</text>
<polygon fill="none" stroke="#000000" points="185.5,-748.7592 185.5,-767.7592 306.5,-767.7592 306.5,-748.7592 185.5,-748.7592"/>
<text text-anchor="start" x="188.5" y="-754.8592" font-family="Helvetica,sans-Serif" font-size="11.00" fill="#000000">...</text>
<polygon fill="#ffffff" stroke="transparent" points="185.5,-729.7592 185.5,-748.7592 226.5,-748.7592 226.5,-729.7592 185.5,-729.7592"/>
<polygon fill="none" stroke="#000000" points="185.5,-729.7592 185.5,-748.7592 226.5,-748.7592 226.5,-729.7592 185.5,-729.7592"/>
<text text-anchor="start" x="188.5" y="-735.8592" font-family="Helvetica,sans-Serif" font-size="11.00" fill="#000000">&lt; 2</text>
<polygon fill="#ffffff" stroke="transparent" points="226.5,-729.7592 226.5,-748.7592 274.5,-748.7592 274.5,-729.7592 226.5,-729.7592"/>
<polygon fill="none" stroke="#000000" points="226.5,-729.7592 226.5,-748.7592 274.5,-748.7592 274.5,-729.7592 226.5,-729.7592"/>
<text text-anchor="start" x="239.1105" y="-735.8592" font-family="Helvetica,sans-Serif" font-size="11.00" fill="#000000">0 rows</text>
<polygon fill="#ffffff" stroke="transparent" points="274.5,-729.7592 274.5,-748.7592 306.5,-748.7592 306.5,-729.7592 274.5,-729.7592"/>
<polygon fill="none" stroke="#000000" points="274.5,-729.7592 274.5,-748.7592 306.5,-748.7592 306.5,-729.7592 274.5,-729.7592"/>
<text text-anchor="start" x="287.9053" y="-735.8592" font-family="Helvetica,sans-Serif" font-size="11.00" fill="#000000">4 &gt;</text>
</a>
</g>
</g>
<!-- Competencies&#45;&gt;AspNetUsers -->
<g id="edge5" class="edge">
<title>Competencies:w&#45;&gt;AspNetUsers:e</title>
<path fill="none" stroke="#000000" d="M171.1317,-755.2507C127.3044,-743.1442 96.9747,-693.1705 80.2846,-658.3935"/>
<polygon fill="#000000" stroke="#000000" points="177.6192,-756.3833 184.8808,-761.3055 181.5596,-757.0712 185.5,-757.7592 185.5,-757.7592 185.5,-757.7592 181.5596,-757.0712 186.1192,-754.2128 177.6192,-756.3833 177.6192,-756.3833"/>
<ellipse fill="none" stroke="#000000" cx="174.4669" cy="-755.8329" rx="3.2" ry="3.2"/>
</g>
<!-- Competencies&#45;&gt;AspNetUsers -->
<g id="edge6" class="edge">
<title>Competencies:w&#45;&gt;AspNetUsers:e</title>
<path fill="none" stroke="#000000" d="M170.9941,-757.4907C123.5716,-751.4785 91.9726,-695.9627 76.3772,-658.2962"/>
<polygon fill="#000000" stroke="#000000" points="177.5014,-757.6111 185.4333,-761.3585 181.5007,-757.6851 185.5,-757.7592 185.5,-757.7592 185.5,-757.7592 181.5007,-757.6851 185.5667,-754.1598 177.5014,-757.6111 177.5014,-757.6111"/>
<ellipse fill="none" stroke="#000000" cx="174.3019" cy="-757.5518" rx="3.2" ry="3.2"/>
</g>
<!-- CompetencyLevelDescriptions -->
<g id="node7" class="node">
<title>CompetencyLevelDescriptions</title>
<g id="a_node7"><a xlink:href="../../tables/CompetencyLevelDescriptions.html" xlink:title="CompetencyLevelDescriptions" target="_top">
<polygon fill="#ffffff" stroke="transparent" points="383,-1023.2592 383,-1084.2592 597,-1084.2592 597,-1023.2592 383,-1023.2592"/>
<polygon fill="#f5f5f5" stroke="transparent" points="383,-1060.7592 383,-1083.7592 597,-1083.7592 597,-1060.7592 383,-1060.7592"/>
<polygon fill="none" stroke="#000000" points="383,-1060.7592 383,-1083.7592 597,-1083.7592 597,-1060.7592 383,-1060.7592"/>
<text text-anchor="start" x="388" y="-1069.3592" font-family="Helvetica,sans-Serif" font-weight="bold" font-size="11.00" fill="#000000">CompetencyLevelDescriptions</text>
<text text-anchor="start" x="562.5219" y="-1068.8592" font-family="Helvetica,sans-Serif" font-size="11.00" fill="#000000">[table]</text>
<polygon fill="none" stroke="#000000" points="383,-1041.7592 383,-1060.7592 597,-1060.7592 597,-1041.7592 383,-1041.7592"/>
<text text-anchor="start" x="386" y="-1047.8592" font-family="Helvetica,sans-Serif" font-size="11.00" fill="#000000">...</text>
<polygon fill="#ffffff" stroke="transparent" points="383,-1022.7592 383,-1041.7592 475,-1041.7592 475,-1022.7592 383,-1022.7592"/>
<polygon fill="none" stroke="#000000" points="383,-1022.7592 383,-1041.7592 475,-1041.7592 475,-1022.7592 383,-1022.7592"/>
<text text-anchor="start" x="386" y="-1028.8592" font-family="Helvetica,sans-Serif" font-size="11.00" fill="#000000">&lt; 3</text>
<polygon fill="#ffffff" stroke="transparent" points="475,-1022.7592 475,-1041.7592 549,-1041.7592 549,-1022.7592 475,-1022.7592"/>
<polygon fill="none" stroke="#000000" points="475,-1022.7592 475,-1041.7592 549,-1041.7592 549,-1022.7592 475,-1022.7592"/>
<text text-anchor="start" x="513.6105" y="-1028.8592" font-family="Helvetica,sans-Serif" font-size="11.00" fill="#000000">0 rows</text>
<polygon fill="#ffffff" stroke="transparent" points="549,-1022.7592 549,-1041.7592 597,-1041.7592 597,-1022.7592 549,-1022.7592"/>
<polygon fill="none" stroke="#000000" points="549,-1022.7592 549,-1041.7592 597,-1041.7592 597,-1022.7592 549,-1022.7592"/>
<text text-anchor="start" x="587.8862" y="-1028.8592" font-family="Helvetica,sans-Serif" font-size="11.00" fill="#000000"> &#160;</text>
</a>
</g>
</g>
<!-- CompetencyLevelDescriptions&#45;&gt;AspNetUsers -->
<g id="edge8" class="edge">
<title>CompetencyLevelDescriptions:w&#45;&gt;AspNetUsers:e</title>
<path fill="none" stroke="#000000" d="M371.2636,-1042.0794C365.6462,-1032.9415 366.7561,-1019.215 361,-1006.7592 342.6017,-966.9464 360.3176,-943.4092 328,-913.7592 272.1585,-862.527 219.5678,-921.1883 163,-870.7592 99.7112,-814.3384 76.9726,-712.18 69.0495,-658.5818"/>
<polygon fill="#000000" stroke="#000000" points="376.5679,-1046.0022 380.8594,-1053.6536 379.7839,-1048.3807 383,-1050.7592 383,-1050.7592 383,-1050.7592 379.7839,-1048.3807 385.1406,-1047.8647 376.5679,-1046.0022 376.5679,-1046.0022"/>
<ellipse fill="none" stroke="#000000" cx="373.995" cy="-1044.0995" rx="3.2" ry="3.2"/>
</g>
<!-- CompetencyLevelDescriptions&#45;&gt;AspNetUsers -->
<g id="edge9" class="edge">
<title>CompetencyLevelDescriptions:w&#45;&gt;AspNetUsers:e</title>
<path fill="none" stroke="#000000" d="M368.8291,-1047.2918C365.8238,-1041.1011 365.7328,-1030.0007 361,-1019.7592 342.6017,-979.9464 360.3176,-956.4092 328,-926.7592 272.1585,-875.527 219.5678,-934.1883 163,-883.7592 96.5468,-824.5174 74.8001,-714.8498 67.9689,-658.6867"/>
<polygon fill="#000000" stroke="#000000" points="375.2292,-1048.8577 382.1444,-1054.256 379.1146,-1049.8084 383,-1050.7592 383,-1050.7592 383,-1050.7592 379.1146,-1049.8084 383.8556,-1047.2623 375.2292,-1048.8577 375.2292,-1048.8577"/>
<ellipse fill="none" stroke="#000000" cx="372.1209" cy="-1048.0972" rx="3.2" ry="3.2"/>
</g>
<!-- CompetencyLevelDescriptions&#45;&gt;Competencies -->
<g id="edge7" class="edge">
<title>CompetencyLevelDescriptions:w&#45;&gt;Competencies:e</title>
<path fill="none" stroke="#000000" d="M368.3656,-1049.3876C263.3168,-1027.766 435.6989,-757.7592 306.5,-757.7592"/>
<polygon fill="#000000" stroke="#000000" points="375.0349,-1050.0126 382.6641,-1054.3435 379.0175,-1050.3859 383,-1050.7592 383,-1050.7592 383,-1050.7592 379.0175,-1050.3859 383.3359,-1047.1749 375.0349,-1050.0126 375.0349,-1050.0126"/>
<ellipse fill="none" stroke="#000000" cx="371.8489" cy="-1049.714" rx="3.2" ry="3.2"/>
</g>
<!-- CompetencyTechnicalCareer -->
<g id="node8" class="node">
<title>CompetencyTechnicalCareer</title>
<g id="a_node8"><a xlink:href="../../tables/CompetencyTechnicalCareer.html" xlink:title="CompetencyTechnicalCareer" target="_top">
<polygon fill="#ffffff" stroke="transparent" points="388,-819.2592 388,-880.2592 592,-880.2592 592,-819.2592 388,-819.2592"/>
<polygon fill="#f5f5f5" stroke="transparent" points="388,-856.7592 388,-879.7592 592,-879.7592 592,-856.7592 388,-856.7592"/>
<polygon fill="none" stroke="#000000" points="388,-856.7592 388,-879.7592 592,-879.7592 592,-856.7592 388,-856.7592"/>
<text text-anchor="start" x="393" y="-865.3592" font-family="Helvetica,sans-Serif" font-weight="bold" font-size="11.00" fill="#000000">CompetencyTechnicalCareer</text>
<text text-anchor="start" x="557.5219" y="-864.8592" font-family="Helvetica,sans-Serif" font-size="11.00" fill="#000000">[table]</text>
<polygon fill="none" stroke="#000000" points="388,-837.7592 388,-856.7592 592,-856.7592 592,-837.7592 388,-837.7592"/>
<text text-anchor="start" x="391" y="-843.8592" font-family="Helvetica,sans-Serif" font-size="11.00" fill="#000000">...</text>
<polygon fill="#ffffff" stroke="transparent" points="388,-818.7592 388,-837.7592 475,-837.7592 475,-818.7592 388,-818.7592"/>
<polygon fill="none" stroke="#000000" points="388,-818.7592 388,-837.7592 475,-837.7592 475,-818.7592 388,-818.7592"/>
<text text-anchor="start" x="391" y="-824.8592" font-family="Helvetica,sans-Serif" font-size="11.00" fill="#000000">&lt; 2</text>
<polygon fill="#ffffff" stroke="transparent" points="475,-818.7592 475,-837.7592 546,-837.7592 546,-818.7592 475,-818.7592"/>
<polygon fill="none" stroke="#000000" points="475,-818.7592 475,-837.7592 546,-837.7592 546,-818.7592 475,-818.7592"/>
<text text-anchor="start" x="510.6105" y="-824.8592" font-family="Helvetica,sans-Serif" font-size="11.00" fill="#000000">0 rows</text>
<polygon fill="#ffffff" stroke="transparent" points="546,-818.7592 546,-837.7592 592,-837.7592 592,-818.7592 546,-818.7592"/>
<polygon fill="none" stroke="#000000" points="546,-818.7592 546,-837.7592 592,-837.7592 592,-818.7592 546,-818.7592"/>
<text text-anchor="start" x="582.8862" y="-824.8592" font-family="Helvetica,sans-Serif" font-size="11.00" fill="#000000"> &#160;</text>
</a>
</g>
</g>
<!-- CompetencyTechnicalCareer&#45;&gt;Competencies -->
<g id="edge10" class="edge">
<title>CompetencyTechnicalCareer:w&#45;&gt;Competencies:e</title>
<path fill="none" stroke="#000000" d="M373.4931,-843.998C338.9177,-828.9757 354.478,-757.7592 306.5,-757.7592"/>
<polygon fill="#000000" stroke="#000000" points="380.1411,-845.2633 387.3269,-850.2957 384.0705,-846.0112 388,-846.7592 388,-846.7592 388,-846.7592 384.0705,-846.0112 388.6731,-843.2227 380.1411,-845.2633 380.1411,-845.2633"/>
<ellipse fill="none" stroke="#000000" cx="376.9975" cy="-844.6649" rx="3.2" ry="3.2"/>
</g>
<!-- TechnicalCareers -->
<g id="node9" class="node">
<title>TechnicalCareers</title>
<g id="a_node9"><a xlink:href="../../tables/TechnicalCareers.html" xlink:title="TechnicalCareers" target="_top">
<polygon fill="#ffffff" stroke="transparent" points="176,-593.2592 176,-654.2592 315,-654.2592 315,-593.2592 176,-593.2592"/>
<polygon fill="#f5f5f5" stroke="transparent" points="176.5,-630.7592 176.5,-653.7592 315.5,-653.7592 315.5,-630.7592 176.5,-630.7592"/>
<polygon fill="none" stroke="#000000" points="176.5,-630.7592 176.5,-653.7592 315.5,-653.7592 315.5,-630.7592 176.5,-630.7592"/>
<text text-anchor="start" x="181.5" y="-639.3592" font-family="Helvetica,sans-Serif" font-weight="bold" font-size="11.00" fill="#000000">TechnicalCareers</text>
<text text-anchor="start" x="281.0219" y="-638.8592" font-family="Helvetica,sans-Serif" font-size="11.00" fill="#000000">[table]</text>
<polygon fill="none" stroke="#000000" points="176.5,-611.7592 176.5,-630.7592 315.5,-630.7592 315.5,-611.7592 176.5,-611.7592"/>
<text text-anchor="start" x="179.5" y="-617.8592" font-family="Helvetica,sans-Serif" font-size="11.00" fill="#000000">...</text>
<polygon fill="#ffffff" stroke="transparent" points="176.5,-592.7592 176.5,-611.7592 226.5,-611.7592 226.5,-592.7592 176.5,-592.7592"/>
<polygon fill="none" stroke="#000000" points="176.5,-592.7592 176.5,-611.7592 226.5,-611.7592 226.5,-592.7592 176.5,-592.7592"/>
<text text-anchor="start" x="179.5" y="-598.8592" font-family="Helvetica,sans-Serif" font-size="11.00" fill="#000000">&lt; 2</text>
<polygon fill="#ffffff" stroke="transparent" points="226.5,-592.7592 226.5,-611.7592 279.5,-611.7592 279.5,-592.7592 226.5,-592.7592"/>
<polygon fill="none" stroke="#000000" points="226.5,-592.7592 226.5,-611.7592 279.5,-611.7592 279.5,-592.7592 226.5,-592.7592"/>
<text text-anchor="start" x="244.1105" y="-598.8592" font-family="Helvetica,sans-Serif" font-size="11.00" fill="#000000">0 rows</text>
<polygon fill="#ffffff" stroke="transparent" points="279.5,-592.7592 279.5,-611.7592 315.5,-611.7592 315.5,-592.7592 279.5,-592.7592"/>
<polygon fill="none" stroke="#000000" points="279.5,-592.7592 279.5,-611.7592 315.5,-611.7592 315.5,-592.7592 279.5,-592.7592"/>
<text text-anchor="start" x="296.9053" y="-598.8592" font-family="Helvetica,sans-Serif" font-size="11.00" fill="#000000">6 &gt;</text>
</a>
</g>
</g>
<!-- CompetencyTechnicalCareer&#45;&gt;TechnicalCareers -->
<g id="edge11" class="edge">
<title>CompetencyTechnicalCareer:w&#45;&gt;TechnicalCareers:e</title>
<path fill="none" stroke="#000000" d="M375.6676,-839.0484C357.6823,-816.2071 345.0501,-748.6935 328,-719.7592 314.9468,-697.6077 296.5927,-675.6518 280.5095,-658.3397"/>
<polygon fill="#000000" stroke="#000000" points="381.2168,-842.5179 386.0914,-849.8116 384.6084,-844.6386 388,-846.7592 388,-846.7592 388,-846.7592 384.6084,-844.6386 389.9086,-843.7067 381.2168,-842.5179 381.2168,-842.5179"/>
<ellipse fill="none" stroke="#000000" cx="378.5035" cy="-840.8214" rx="3.2" ry="3.2"/>
</g>
<!-- TechnicalCareers&#45;&gt;AspNetUsers -->
<g id="edge50" class="edge">
<title>TechnicalCareers:w&#45;&gt;AspNetUsers:e</title>
<path fill="none" stroke="#000000" d="M153.3283,-619.2601C145.4765,-619.2675 137.6441,-619.3203 130.069,-619.4186"/>
<polygon fill="#000000" stroke="#000000" points="159.9043,-619.2775 167.8947,-622.8987 163.9042,-619.2881 167.9042,-619.2987 167.9042,-619.2987 167.9042,-619.2987 163.9042,-619.2881 167.9138,-615.6987 159.9043,-619.2775 159.9043,-619.2775"/>
<ellipse fill="none" stroke="#000000" cx="156.7043" cy="-619.2689" rx="3.2" ry="3.2"/>
</g>
<!-- TechnicalCareers&#45;&gt;AspNetUsers -->
<g id="edge51" class="edge">
<title>TechnicalCareers:w&#45;&gt;AspNetUsers:e</title>
<path fill="none" stroke="#000000" d="M153.3283,-629.0081C145.4765,-628.9995 137.6441,-628.9378 130.069,-628.8231"/>
<polygon fill="#000000" stroke="#000000" points="159.9043,-628.9878 167.9154,-632.563 163.9042,-628.9754 167.9042,-628.963 167.9042,-628.963 167.9042,-628.963 163.9042,-628.9754 167.8931,-625.363 159.9043,-628.9878 159.9043,-628.9878"/>
<ellipse fill="none" stroke="#000000" cx="156.7043" cy="-628.9977" rx="3.2" ry="3.2"/>
</g>
<!-- Coordinators -->
<g id="node10" class="node">
<title>Coordinators</title>
<g id="a_node10"><a xlink:href="../../tables/Coordinators.html" xlink:title="Coordinators" target="_top">
<polygon fill="#ffffff" stroke="transparent" points="433,-737.2592 433,-798.2592 547,-798.2592 547,-737.2592 433,-737.2592"/>
<polygon fill="#f5f5f5" stroke="transparent" points="433,-774.7592 433,-797.7592 547,-797.7592 547,-774.7592 433,-774.7592"/>
<polygon fill="none" stroke="#000000" points="433,-774.7592 433,-797.7592 547,-797.7592 547,-774.7592 433,-774.7592"/>
<text text-anchor="start" x="438" y="-783.3592" font-family="Helvetica,sans-Serif" font-weight="bold" font-size="11.00" fill="#000000">Coordinators</text>
<text text-anchor="start" x="512.5219" y="-782.8592" font-family="Helvetica,sans-Serif" font-size="11.00" fill="#000000">[table]</text>
<polygon fill="none" stroke="#000000" points="433,-755.7592 433,-774.7592 547,-774.7592 547,-755.7592 433,-755.7592"/>
<text text-anchor="start" x="436" y="-761.8592" font-family="Helvetica,sans-Serif" font-size="11.00" fill="#000000">...</text>
<polygon fill="#ffffff" stroke="transparent" points="433,-736.7592 433,-755.7592 475,-755.7592 475,-736.7592 433,-736.7592"/>
<polygon fill="none" stroke="#000000" points="433,-736.7592 433,-755.7592 475,-755.7592 475,-736.7592 433,-736.7592"/>
<text text-anchor="start" x="436" y="-742.8592" font-family="Helvetica,sans-Serif" font-size="11.00" fill="#000000">&lt; 2</text>
<polygon fill="#ffffff" stroke="transparent" points="475,-736.7592 475,-755.7592 524,-755.7592 524,-736.7592 475,-736.7592"/>
<polygon fill="none" stroke="#000000" points="475,-736.7592 475,-755.7592 524,-755.7592 524,-736.7592 475,-736.7592"/>
<text text-anchor="start" x="488.6105" y="-742.8592" font-family="Helvetica,sans-Serif" font-size="11.00" fill="#000000">0 rows</text>
<polygon fill="#ffffff" stroke="transparent" points="524,-736.7592 524,-755.7592 547,-755.7592 547,-736.7592 524,-736.7592"/>
<polygon fill="none" stroke="#000000" points="524,-736.7592 524,-755.7592 547,-755.7592 547,-736.7592 524,-736.7592"/>
<text text-anchor="start" x="537.8862" y="-742.8592" font-family="Helvetica,sans-Serif" font-size="11.00" fill="#000000"> &#160;</text>
</a>
</g>
</g>
<!-- Coordinators&#45;&gt;AspNetUsers -->
<g id="edge13" class="edge">
<title>Coordinators:w&#45;&gt;AspNetUsers:e</title>
<path fill="none" stroke="#000000" d="M422.4029,-764.2849C381.1345,-760.4162 372.8476,-733.8316 328,-719.7592 256.5604,-697.3426 232.4311,-713.7851 163,-685.7592 145.4508,-678.6754 127.5763,-668.4345 111.9815,-658.3101"/>
<polygon fill="#000000" stroke="#000000" points="432.3797,-760.7274 432.0219,-768.7194 430.4235,-768.6478 430.7813,-760.6558 432.3797,-760.7274"/>
<polyline fill="none" stroke="#000000" points="433,-764.7592 429.004,-764.5803 "/>
<ellipse fill="none" stroke="#000000" cx="425.8072" cy="-764.4372" rx="3.2" ry="3.2"/>
</g>
<!-- Coordinators&#45;&gt;TechnicalCareers -->
<g id="edge12" class="edge">
<title>Coordinators:w&#45;&gt;TechnicalCareers:e</title>
<path fill="none" stroke="#000000" d="M418.495,-763.9492C375.4072,-758.797 365.5122,-729.7268 328,-695.7592 314.472,-683.5094 299.4884,-670.322 286.0434,-658.6228"/>
<polygon fill="#000000" stroke="#000000" points="425.0124,-764.3131 432.7993,-768.3536 429.0062,-764.5361 433,-764.7592 433,-764.7592 433,-764.7592 429.0062,-764.5361 433.2007,-761.1648 425.0124,-764.3131 425.0124,-764.3131"/>
<ellipse fill="none" stroke="#000000" cx="421.8174" cy="-764.1346" rx="3.2" ry="3.2"/>
</g>
<!-- EvaluationPeriods -->
<g id="node11" class="node">
<title>EvaluationPeriods</title>
<g id="a_node11"><a xlink:href="../../tables/EvaluationPeriods.html" xlink:title="EvaluationPeriods" target="_top">
<polygon fill="#ffffff" stroke="transparent" points="174,-362.2592 174,-423.2592 317,-423.2592 317,-362.2592 174,-362.2592"/>
<polygon fill="#f5f5f5" stroke="transparent" points="174.5,-399.7592 174.5,-422.7592 317.5,-422.7592 317.5,-399.7592 174.5,-399.7592"/>
<polygon fill="none" stroke="#000000" points="174.5,-399.7592 174.5,-422.7592 317.5,-422.7592 317.5,-399.7592 174.5,-399.7592"/>
<text text-anchor="start" x="179.5" y="-408.3592" font-family="Helvetica,sans-Serif" font-weight="bold" font-size="11.00" fill="#000000">EvaluationPeriods</text>
<text text-anchor="start" x="283.0219" y="-407.8592" font-family="Helvetica,sans-Serif" font-size="11.00" fill="#000000">[table]</text>
<polygon fill="none" stroke="#000000" points="174.5,-380.7592 174.5,-399.7592 317.5,-399.7592 317.5,-380.7592 174.5,-380.7592"/>
<text text-anchor="start" x="177.5" y="-386.8592" font-family="Helvetica,sans-Serif" font-size="11.00" fill="#000000">...</text>
<polygon fill="#ffffff" stroke="transparent" points="174.5,-361.7592 174.5,-380.7592 226.5,-380.7592 226.5,-361.7592 174.5,-361.7592"/>
<polygon fill="none" stroke="#000000" points="174.5,-361.7592 174.5,-380.7592 226.5,-380.7592 226.5,-361.7592 174.5,-361.7592"/>
<text text-anchor="start" x="177.5" y="-367.8592" font-family="Helvetica,sans-Serif" font-size="11.00" fill="#000000">&lt; 2</text>
<polygon fill="#ffffff" stroke="transparent" points="226.5,-361.7592 226.5,-380.7592 280.5,-380.7592 280.5,-361.7592 226.5,-361.7592"/>
<polygon fill="none" stroke="#000000" points="226.5,-361.7592 226.5,-380.7592 280.5,-380.7592 280.5,-361.7592 226.5,-361.7592"/>
<text text-anchor="start" x="245.1105" y="-367.8592" font-family="Helvetica,sans-Serif" font-size="11.00" fill="#000000">0 rows</text>
<polygon fill="#ffffff" stroke="transparent" points="280.5,-361.7592 280.5,-380.7592 317.5,-380.7592 317.5,-361.7592 280.5,-361.7592"/>
<polygon fill="none" stroke="#000000" points="280.5,-361.7592 280.5,-380.7592 317.5,-380.7592 317.5,-361.7592 280.5,-361.7592"/>
<text text-anchor="start" x="298.9053" y="-367.8592" font-family="Helvetica,sans-Serif" font-size="11.00" fill="#000000">3 &gt;</text>
</a>
</g>
</g>
<!-- EvaluationPeriods&#45;&gt;AspNetUsers -->
<g id="edge14" class="edge">
<title>EvaluationPeriods:w&#45;&gt;AspNetUsers:e</title>
<path fill="none" stroke="#000000" d="M160.3978,-392.9269C121.7876,-413.8632 87.5128,-529.7762 72.7277,-589.0085"/>
<polygon fill="#000000" stroke="#000000" points="166.6945,-391.5125 175.289,-393.2716 170.5972,-390.6358 174.5,-389.7592 174.5,-389.7592 174.5,-389.7592 170.5972,-390.6358 173.711,-386.2467 166.6945,-391.5125 166.6945,-391.5125"/>
<ellipse fill="none" stroke="#000000" cx="163.5723" cy="-392.2139" rx="3.2" ry="3.2"/>
</g>
<!-- EvaluationPeriods&#45;&gt;AspNetUsers -->
<g id="edge15" class="edge">
<title>EvaluationPeriods:w&#45;&gt;AspNetUsers:e</title>
<path fill="none" stroke="#000000" d="M161.1381,-395.3513C123.7654,-421.6888 90.3528,-531.9353 74.5851,-589.1371"/>
<polygon fill="#000000" stroke="#000000" points="167.1202,-392.8477 175.8899,-393.0801 170.8101,-391.3034 174.5,-389.7592 174.5,-389.7592 174.5,-389.7592 170.8101,-391.3034 173.1101,-386.4383 167.1202,-392.8477 167.1202,-392.8477"/>
<ellipse fill="none" stroke="#000000" cx="164.1683" cy="-394.0831" rx="3.2" ry="3.2"/>
</g>
<!-- EvaluationPeriodTechnicalCareer -->
<g id="node12" class="node">
<title>EvaluationPeriodTechnicalCareer</title>
<g id="a_node12"><a xlink:href="../../tables/EvaluationPeriodTechnicalCareer.html" xlink:title="EvaluationPeriodTechnicalCareer" target="_top">
<polygon fill="#ffffff" stroke="transparent" points="375,-285.2592 375,-346.2592 605,-346.2592 605,-285.2592 375,-285.2592"/>
<polygon fill="#f5f5f5" stroke="transparent" points="375,-322.7592 375,-345.7592 605,-345.7592 605,-322.7592 375,-322.7592"/>
<polygon fill="none" stroke="#000000" points="375,-322.7592 375,-345.7592 605,-345.7592 605,-322.7592 375,-322.7592"/>
<text text-anchor="start" x="380" y="-331.3592" font-family="Helvetica,sans-Serif" font-weight="bold" font-size="11.00" fill="#000000">EvaluationPeriodTechnicalCareer</text>
<text text-anchor="start" x="570.5219" y="-330.8592" font-family="Helvetica,sans-Serif" font-size="11.00" fill="#000000">[table]</text>
<polygon fill="none" stroke="#000000" points="375,-303.7592 375,-322.7592 605,-322.7592 605,-303.7592 375,-303.7592"/>
<text text-anchor="start" x="378" y="-309.8592" font-family="Helvetica,sans-Serif" font-size="11.00" fill="#000000">...</text>
<polygon fill="#ffffff" stroke="transparent" points="375,-284.7592 375,-303.7592 475,-303.7592 475,-284.7592 375,-284.7592"/>
<polygon fill="none" stroke="#000000" points="375,-284.7592 375,-303.7592 475,-303.7592 475,-284.7592 375,-284.7592"/>
<text text-anchor="start" x="378" y="-290.8592" font-family="Helvetica,sans-Serif" font-size="11.00" fill="#000000">&lt; 2</text>
<polygon fill="#ffffff" stroke="transparent" points="475,-284.7592 475,-303.7592 553,-303.7592 553,-284.7592 475,-284.7592"/>
<polygon fill="none" stroke="#000000" points="475,-284.7592 475,-303.7592 553,-303.7592 553,-284.7592 475,-284.7592"/>
<text text-anchor="start" x="517.6105" y="-290.8592" font-family="Helvetica,sans-Serif" font-size="11.00" fill="#000000">0 rows</text>
<polygon fill="#ffffff" stroke="transparent" points="553,-284.7592 553,-303.7592 605,-303.7592 605,-284.7592 553,-284.7592"/>
<polygon fill="none" stroke="#000000" points="553,-284.7592 553,-303.7592 605,-303.7592 605,-284.7592 553,-284.7592"/>
<text text-anchor="start" x="595.8862" y="-290.8592" font-family="Helvetica,sans-Serif" font-size="11.00" fill="#000000"> &#160;</text>
</a>
</g>
</g>
<!-- EvaluationPeriodTechnicalCareer&#45;&gt;TechnicalCareers -->
<g id="edge17" class="edge">
<title>EvaluationPeriodTechnicalCareer:w&#45;&gt;TechnicalCareers:e</title>
<path fill="none" stroke="#000000" d="M361.3707,-317.6074C322.1654,-350.2288 360.6047,-537.7849 328,-582.7592 326.4041,-584.9605 324.6563,-587.0503 322.7839,-589.0337"/>
<polygon fill="#000000" stroke="#000000" points="367.4627,-315.4404 376.2065,-316.151 371.2313,-314.0998 375,-312.7592 375,-312.7592 375,-312.7592 371.2313,-314.0998 373.7935,-309.3674 367.4627,-315.4404 367.4627,-315.4404"/>
<ellipse fill="none" stroke="#000000" cx="364.4477" cy="-316.5128" rx="3.2" ry="3.2"/>
</g>
<!-- EvaluationPeriodTechnicalCareer&#45;&gt;EvaluationPeriods -->
<g id="edge16" class="edge">
<title>EvaluationPeriodTechnicalCareer:w&#45;&gt;EvaluationPeriods:e</title>
<path fill="none" stroke="#000000" d="M361.0816,-316.6835C338.6035,-332.3746 354.3718,-389.7592 317.5,-389.7592"/>
<polygon fill="#000000" stroke="#000000" points="367.3002,-314.9302 375.9769,-316.2241 371.1501,-313.8447 375,-312.7592 375,-312.7592 375,-312.7592 371.1501,-313.8447 374.0231,-309.2943 367.3002,-314.9302 367.3002,-314.9302"/>
<ellipse fill="none" stroke="#000000" cx="364.2203" cy="-315.7986" rx="3.2" ry="3.2"/>
</g>
<!-- FormQuestions -->
<g id="node13" class="node">
<title>FormQuestions</title>
<g id="a_node13"><a xlink:href="../../tables/FormQuestions.html" xlink:title="FormQuestions" target="_top">
<polygon fill="#ffffff" stroke="transparent" points="426.5,-941.2592 426.5,-1002.2592 553.5,-1002.2592 553.5,-941.2592 426.5,-941.2592"/>
<polygon fill="#f5f5f5" stroke="transparent" points="427,-978.7592 427,-1001.7592 554,-1001.7592 554,-978.7592 427,-978.7592"/>
<polygon fill="none" stroke="#000000" points="427,-978.7592 427,-1001.7592 554,-1001.7592 554,-978.7592 427,-978.7592"/>
<text text-anchor="start" x="432" y="-987.3592" font-family="Helvetica,sans-Serif" font-weight="bold" font-size="11.00" fill="#000000">FormQuestions</text>
<text text-anchor="start" x="519.5219" y="-986.8592" font-family="Helvetica,sans-Serif" font-size="11.00" fill="#000000">[table]</text>
<polygon fill="none" stroke="#000000" points="427,-959.7592 427,-978.7592 554,-978.7592 554,-959.7592 427,-959.7592"/>
<text text-anchor="start" x="430" y="-965.8592" font-family="Helvetica,sans-Serif" font-size="11.00" fill="#000000">...</text>
<polygon fill="#ffffff" stroke="transparent" points="427,-940.7592 427,-959.7592 471,-959.7592 471,-940.7592 427,-940.7592"/>
<polygon fill="none" stroke="#000000" points="427,-940.7592 427,-959.7592 471,-959.7592 471,-940.7592 427,-940.7592"/>
<text text-anchor="start" x="430" y="-946.8592" font-family="Helvetica,sans-Serif" font-size="11.00" fill="#000000">&lt; 3</text>
<polygon fill="#ffffff" stroke="transparent" points="471,-940.7592 471,-959.7592 521,-959.7592 521,-940.7592 471,-940.7592"/>
<polygon fill="none" stroke="#000000" points="471,-940.7592 471,-959.7592 521,-959.7592 521,-940.7592 471,-940.7592"/>
<text text-anchor="start" x="485.6105" y="-946.8592" font-family="Helvetica,sans-Serif" font-size="11.00" fill="#000000">0 rows</text>
<polygon fill="#ffffff" stroke="transparent" points="521,-940.7592 521,-959.7592 554,-959.7592 554,-940.7592 521,-940.7592"/>
<polygon fill="none" stroke="#000000" points="521,-940.7592 521,-959.7592 554,-959.7592 554,-940.7592 521,-940.7592"/>
<text text-anchor="start" x="535.4053" y="-946.8592" font-family="Helvetica,sans-Serif" font-size="11.00" fill="#000000">1 &gt;</text>
</a>
</g>
</g>
<!-- FormQuestions&#45;&gt;AspNetUsers -->
<g id="edge19" class="edge">
<title>FormQuestions:w&#45;&gt;AspNetUsers:e</title>
<path fill="none" stroke="#000000" d="M412.967,-965.1721C390.0624,-957.0018 382.7349,-940.6641 361,-920.7592 343.234,-904.4891 347.9632,-891.2432 328,-877.7592 264.9129,-835.1473 220.9014,-881.1878 163,-831.7592 109.3888,-785.993 83.5307,-704.7384 72.366,-658.4371"/>
<polygon fill="#000000" stroke="#000000" points="419.2492,-966.7779 426.1084,-972.247 423.1246,-967.7685 427,-968.7592 427,-968.7592 427,-968.7592 423.1246,-967.7685 427.8916,-965.2713 419.2492,-966.7779 419.2492,-966.7779"/>
<ellipse fill="none" stroke="#000000" cx="416.1489" cy="-965.9854" rx="3.2" ry="3.2"/>
</g>
<!-- FormQuestions&#45;&gt;AspNetUsers -->
<g id="edge20" class="edge">
<title>FormQuestions:w&#45;&gt;AspNetUsers:e</title>
<path fill="none" stroke="#000000" d="M412.6514,-970.2498C389.9946,-969.8512 382.6348,-953.5723 361,-933.7592 343.234,-917.4891 347.9632,-904.2432 328,-890.7592 264.9129,-848.1473 220.9014,-894.1878 163,-844.7592 106.1255,-796.2072 80.4856,-707.715 70.4876,-658.6378"/>
<polygon fill="#000000" stroke="#000000" points="419.0428,-969.5859 427.372,-972.3399 423.0214,-969.1725 427,-968.7592 427,-968.7592 427,-968.7592 423.0214,-969.1725 426.628,-965.1784 419.0428,-969.5859 419.0428,-969.5859"/>
<ellipse fill="none" stroke="#000000" cx="415.86" cy="-969.9166" rx="3.2" ry="3.2"/>
</g>
<!-- FormQuestions&#45;&gt;Competencies -->
<g id="edge18" class="edge">
<title>FormQuestions:w&#45;&gt;Competencies:e</title>
<path fill="none" stroke="#000000" d="M412.4984,-967.1058C381.92,-959.2753 381.7112,-924.8775 361,-890.7592 327.851,-836.1516 370.3814,-757.7592 306.5,-757.7592"/>
<polygon fill="#000000" stroke="#000000" points="419.0515,-967.8529 426.5922,-972.336 423.0257,-968.306 427,-968.7592 427,-968.7592 427,-968.7592 423.0257,-968.306 427.4078,-965.1823 419.0515,-967.8529 419.0515,-967.8529"/>
<ellipse fill="none" stroke="#000000" cx="415.8721" cy="-967.4904" rx="3.2" ry="3.2"/>
</g>
<!-- ProfessorCompetencyAssignments -->
<g id="node14" class="node">
<title>ProfessorCompetencyAssignments</title>
<g id="a_node14"><a xlink:href="../../tables/ProfessorCompetencyAssignments.html" xlink:title="ProfessorCompetencyAssignments" target="_top">
<polygon fill="#ffffff" stroke="transparent" points="369,-367.2592 369,-428.2592 611,-428.2592 611,-367.2592 369,-367.2592"/>
<polygon fill="#f5f5f5" stroke="transparent" points="369,-404.7592 369,-427.7592 611,-427.7592 611,-404.7592 369,-404.7592"/>
<polygon fill="none" stroke="#000000" points="369,-404.7592 369,-427.7592 611,-427.7592 611,-404.7592 369,-404.7592"/>
<text text-anchor="start" x="374" y="-413.3592" font-family="Helvetica,sans-Serif" font-weight="bold" font-size="11.00" fill="#000000">ProfessorCompetencyAssignments</text>
<text text-anchor="start" x="576.5219" y="-412.8592" font-family="Helvetica,sans-Serif" font-size="11.00" fill="#000000">[table]</text>
<polygon fill="none" stroke="#000000" points="369,-385.7592 369,-404.7592 611,-404.7592 611,-385.7592 369,-385.7592"/>
<text text-anchor="start" x="372" y="-391.8592" font-family="Helvetica,sans-Serif" font-size="11.00" fill="#000000">...</text>
<polygon fill="#ffffff" stroke="transparent" points="369,-366.7592 369,-385.7592 471,-385.7592 471,-366.7592 369,-366.7592"/>
<polygon fill="none" stroke="#000000" points="369,-366.7592 369,-385.7592 471,-385.7592 471,-366.7592 369,-366.7592"/>
<text text-anchor="start" x="372" y="-372.8592" font-family="Helvetica,sans-Serif" font-size="11.00" fill="#000000">&lt; 6</text>
<polygon fill="#ffffff" stroke="transparent" points="471,-366.7592 471,-385.7592 549,-385.7592 549,-366.7592 471,-366.7592"/>
<polygon fill="none" stroke="#000000" points="471,-366.7592 471,-385.7592 549,-385.7592 549,-366.7592 471,-366.7592"/>
<text text-anchor="start" x="513.6105" y="-372.8592" font-family="Helvetica,sans-Serif" font-size="11.00" fill="#000000">0 rows</text>
<polygon fill="#ffffff" stroke="transparent" points="549,-366.7592 549,-385.7592 611,-385.7592 611,-366.7592 549,-366.7592"/>
<polygon fill="none" stroke="#000000" points="549,-366.7592 549,-385.7592 611,-385.7592 611,-366.7592 549,-366.7592"/>
<text text-anchor="start" x="592.4053" y="-372.8592" font-family="Helvetica,sans-Serif" font-size="11.00" fill="#000000">1 &gt;</text>
</a>
</g>
</g>
<!-- ProfessorCompetencyAssignments&#45;&gt;AspNetUsers -->
<g id="edge22" class="edge">
<title>ProfessorCompetencyAssignments:w&#45;&gt;AspNetUsers:e</title>
<path fill="none" stroke="#000000" d="M354.4986,-396.0872C345.2032,-402.1042 344.2916,-419.059 328,-427.7592 261.7064,-463.1619 224.5635,-421.6531 163,-464.7592 119.3308,-495.3358 90.6096,-552.2201 76.1316,-589.0784"/>
<polygon fill="#000000" stroke="#000000" points="361.0333,-395.4888 369.3283,-398.3442 365.0167,-395.124 369,-394.7592 369,-394.7592 369,-394.7592 365.0167,-395.124 368.6717,-391.1742 361.0333,-395.4888 361.0333,-395.4888"/>
<ellipse fill="none" stroke="#000000" cx="357.8467" cy="-395.7807" rx="3.2" ry="3.2"/>
</g>
<!-- ProfessorCompetencyAssignments&#45;&gt;AspNetUsers -->
<g id="edge26" class="edge">
<title>ProfessorCompetencyAssignments:w&#45;&gt;AspNetUsers:e</title>
<path fill="none" stroke="#000000" d="M356.3872,-401.8748C345.2569,-412.9062 345.3315,-431.5037 328,-440.7592 261.7064,-476.1619 224.5635,-434.6531 163,-477.7592 123.2068,-505.6219 95.8258,-555.3296 80.3238,-588.9932"/>
<polygon fill="#000000" stroke="#000000" points="362.0323,-398.6901 370.7689,-397.8946 365.5162,-396.7246 369,-394.7592 369,-394.7592 369,-394.7592 365.5162,-396.7246 367.2311,-391.6237 362.0323,-398.6901 362.0323,-398.6901"/>
<ellipse fill="none" stroke="#000000" cx="359.2453" cy="-400.2624" rx="3.2" ry="3.2"/>
</g>
<!-- ProfessorCompetencyAssignments&#45;&gt;Competencies -->
<g id="edge21" class="edge">
<title>ProfessorCompetencyAssignments:w&#45;&gt;Competencies:e</title>
<path fill="none" stroke="#000000" d="M355.0078,-399.3488C299.7807,-441.3693 382.918,-757.7592 306.5,-757.7592"/>
<polygon fill="#000000" stroke="#000000" points="361.3985,-397.2526 370.1221,-398.1798 365.1992,-396.0059 369,-394.7592 369,-394.7592 369,-394.7592 365.1992,-396.0059 367.8779,-391.3385 361.3985,-397.2526 361.3985,-397.2526"/>
<ellipse fill="none" stroke="#000000" cx="358.3579" cy="-398.25" rx="3.2" ry="3.2"/>
</g>
<!-- ProfessorCompetencyAssignments&#45;&gt;TechnicalCareers -->
<g id="edge25" class="edge">
<title>ProfessorCompetencyAssignments:w&#45;&gt;TechnicalCareers:e</title>
<path fill="none" stroke="#000000" d="M354.6509,-396.2151C295.3753,-410.0786 377.1897,-519.6595 328,-582.7592 326.23,-585.0297 324.301,-587.1837 322.2442,-589.2262"/>
<polygon fill="#000000" stroke="#000000" points="361.0409,-395.5668 369.3634,-398.3408 365.0204,-395.163 369,-394.7592 369,-394.7592 369,-394.7592 365.0204,-395.163 368.6366,-391.1776 361.0409,-395.5668 361.0409,-395.5668"/>
<ellipse fill="none" stroke="#000000" cx="357.8572" cy="-395.8898" rx="3.2" ry="3.2"/>
</g>
<!-- ProfessorCompetencyAssignments&#45;&gt;EvaluationPeriods -->
<g id="edge23" class="edge">
<title>ProfessorCompetencyAssignments:w&#45;&gt;EvaluationPeriods:e</title>
<path fill="none" stroke="#000000" d="M354.4854,-393.9779C342.1569,-392.5717 334.7474,-389.7592 317.5,-389.7592"/>
<polygon fill="#000000" stroke="#000000" points="361.0116,-394.3291 368.8065,-398.354 365.0058,-394.5441 369,-394.7592 369,-394.7592 369,-394.7592 365.0058,-394.5441 369.1935,-391.1644 361.0116,-394.3291 361.0116,-394.3291"/>
<ellipse fill="none" stroke="#000000" cx="357.8162" cy="-394.1571" rx="3.2" ry="3.2"/>
</g>
<!-- Professors -->
<g id="node15" class="node">
<title>Professors</title>
<g id="a_node15"><a xlink:href="../../tables/Professors.html" xlink:title="Professors" target="_top">
<polygon fill="#ffffff" stroke="transparent" points="195,-511.2592 195,-572.2592 296,-572.2592 296,-511.2592 195,-511.2592"/>
<polygon fill="#f5f5f5" stroke="transparent" points="195.5,-548.7592 195.5,-571.7592 296.5,-571.7592 296.5,-548.7592 195.5,-548.7592"/>
<polygon fill="none" stroke="#000000" points="195.5,-548.7592 195.5,-571.7592 296.5,-571.7592 296.5,-548.7592 195.5,-548.7592"/>
<text text-anchor="start" x="200.5" y="-557.3592" font-family="Helvetica,sans-Serif" font-weight="bold" font-size="11.00" fill="#000000">Professors</text>
<text text-anchor="start" x="262.0219" y="-556.8592" font-family="Helvetica,sans-Serif" font-size="11.00" fill="#000000">[table]</text>
<polygon fill="none" stroke="#000000" points="195.5,-529.7592 195.5,-548.7592 296.5,-548.7592 296.5,-529.7592 195.5,-529.7592"/>
<text text-anchor="start" x="198.5" y="-535.8592" font-family="Helvetica,sans-Serif" font-size="11.00" fill="#000000">...</text>
<polygon fill="#ffffff" stroke="transparent" points="195.5,-510.7592 195.5,-529.7592 226.5,-529.7592 226.5,-510.7592 195.5,-510.7592"/>
<polygon fill="none" stroke="#000000" points="195.5,-510.7592 195.5,-529.7592 226.5,-529.7592 226.5,-510.7592 195.5,-510.7592"/>
<text text-anchor="start" x="198.5" y="-516.8592" font-family="Helvetica,sans-Serif" font-size="11.00" fill="#000000">&lt; 1</text>
<polygon fill="#ffffff" stroke="transparent" points="226.5,-510.7592 226.5,-529.7592 269.5,-529.7592 269.5,-510.7592 226.5,-510.7592"/>
<polygon fill="none" stroke="#000000" points="226.5,-510.7592 226.5,-529.7592 269.5,-529.7592 269.5,-510.7592 226.5,-510.7592"/>
<text text-anchor="start" x="234.1105" y="-516.8592" font-family="Helvetica,sans-Serif" font-size="11.00" fill="#000000">0 rows</text>
<polygon fill="#ffffff" stroke="transparent" points="269.5,-510.7592 269.5,-529.7592 296.5,-529.7592 296.5,-510.7592 269.5,-510.7592"/>
<polygon fill="none" stroke="#000000" points="269.5,-510.7592 269.5,-529.7592 296.5,-529.7592 296.5,-510.7592 269.5,-510.7592"/>
<text text-anchor="start" x="277.9053" y="-516.8592" font-family="Helvetica,sans-Serif" font-size="11.00" fill="#000000">2 &gt;</text>
</a>
</g>
</g>
<!-- ProfessorCompetencyAssignments&#45;&gt;Professors -->
<g id="edge24" class="edge">
<title>ProfessorCompetencyAssignments:w&#45;&gt;Professors:e</title>
<path fill="none" stroke="#000000" d="M354.5916,-398.1538C336.6299,-409.2263 347.8883,-445.0018 328,-469.7592 317.2848,-483.0977 303.907,-495.9564 291.0632,-507.0242"/>
<polygon fill="#000000" stroke="#000000" points="361.2132,-396.5938 369.8256,-398.2632 365.1066,-395.6765 369,-394.7592 369,-394.7592 369,-394.7592 365.1066,-395.6765 368.1744,-391.2551 361.2132,-396.5938 361.2132,-396.5938"/>
<ellipse fill="none" stroke="#000000" cx="358.0985" cy="-397.3277" rx="3.2" ry="3.2"/>
</g>
<!-- Professors&#45;&gt;AspNetUsers -->
<g id="edge27" class="edge">
<title>Professors:w&#45;&gt;AspNetUsers:e</title>
<path fill="none" stroke="#000000" d="M177.4001,-572.6965C161.9273,-579.7257 145.5286,-587.1755 130.1806,-594.148"/>
<polygon fill="#000000" stroke="#000000" points="184.514,-565.0713 187.8229,-572.3549 186.3662,-573.0167 183.0573,-565.7331 184.514,-565.0713"/>
<polyline fill="none" stroke="#000000" points="186.8968,-568.3822 183.255,-570.0367 "/>
<ellipse fill="none" stroke="#000000" cx="180.3416" cy="-571.3603" rx="3.2" ry="3.2"/>
</g>
<!-- QuestionResponses -->
<g id="node16" class="node">
<title>QuestionResponses</title>
<g id="a_node16"><a xlink:href="../../tables/QuestionResponses.html" xlink:title="QuestionResponses" target="_top">
<polygon fill="#ffffff" stroke="transparent" points="932,-110.2592 932,-171.2592 1087,-171.2592 1087,-110.2592 932,-110.2592"/>
<polygon fill="#f5f5f5" stroke="transparent" points="932.5,-147.7592 932.5,-170.7592 1087.5,-170.7592 1087.5,-147.7592 932.5,-147.7592"/>
<polygon fill="none" stroke="#000000" points="932.5,-147.7592 932.5,-170.7592 1087.5,-170.7592 1087.5,-147.7592 932.5,-147.7592"/>
<text text-anchor="start" x="937.5" y="-156.3592" font-family="Helvetica,sans-Serif" font-weight="bold" font-size="11.00" fill="#000000">QuestionResponses</text>
<text text-anchor="start" x="1053.0219" y="-155.8592" font-family="Helvetica,sans-Serif" font-size="11.00" fill="#000000">[table]</text>
<polygon fill="none" stroke="#000000" points="932.5,-128.7592 932.5,-147.7592 1087.5,-147.7592 1087.5,-128.7592 932.5,-128.7592"/>
<text text-anchor="start" x="935.5" y="-134.8592" font-family="Helvetica,sans-Serif" font-size="11.00" fill="#000000">...</text>
<polygon fill="#ffffff" stroke="transparent" points="932.5,-109.7592 932.5,-128.7592 995.5,-128.7592 995.5,-109.7592 932.5,-109.7592"/>
<polygon fill="none" stroke="#000000" points="932.5,-109.7592 932.5,-128.7592 995.5,-128.7592 995.5,-109.7592 932.5,-109.7592"/>
<text text-anchor="start" x="935.5" y="-115.8592" font-family="Helvetica,sans-Serif" font-size="11.00" fill="#000000">&lt; 4</text>
<polygon fill="#ffffff" stroke="transparent" points="995.5,-109.7592 995.5,-128.7592 1054.5,-128.7592 1054.5,-109.7592 995.5,-109.7592"/>
<polygon fill="none" stroke="#000000" points="995.5,-109.7592 995.5,-128.7592 1054.5,-128.7592 1054.5,-109.7592 995.5,-109.7592"/>
<text text-anchor="start" x="1019.1105" y="-115.8592" font-family="Helvetica,sans-Serif" font-size="11.00" fill="#000000">0 rows</text>
<polygon fill="#ffffff" stroke="transparent" points="1054.5,-109.7592 1054.5,-128.7592 1087.5,-128.7592 1087.5,-109.7592 1054.5,-109.7592"/>
<polygon fill="none" stroke="#000000" points="1054.5,-109.7592 1054.5,-128.7592 1087.5,-128.7592 1087.5,-109.7592 1054.5,-109.7592"/>
<text text-anchor="start" x="1078.3862" y="-115.8592" font-family="Helvetica,sans-Serif" font-size="11.00" fill="#000000"> &#160;</text>
</a>
</g>
</g>
<!-- QuestionResponses&#45;&gt;AspNetUsers -->
<g id="edge28" class="edge">
<title>QuestionResponses:w&#45;&gt;AspNetUsers:e</title>
<path fill="none" stroke="#000000" d="M919.462,-130.6552C907.4767,-117.4835 911.831,-91.5409 891,-81.7592 776.7329,-28.102 268.1535,-5.0927 163,-94.7592 87.699,-158.9699 69.7973,-482.0252 65.961,-589.2062"/>
<polygon fill="#000000" stroke="#000000" points="925.4751,-133.9315 930.7776,-140.9204 928.9875,-135.8453 932.5,-137.7592 932.5,-137.7592 932.5,-137.7592 928.9875,-135.8453 934.2224,-134.598 925.4751,-133.9315 925.4751,-133.9315"/>
<ellipse fill="none" stroke="#000000" cx="922.6651" cy="-132.4004" rx="3.2" ry="3.2"/>
</g>
<!-- QuestionResponses&#45;&gt;AspNetUsers -->
<g id="edge31" class="edge">
<title>QuestionResponses:w&#45;&gt;AspNetUsers:e</title>
<path fill="none" stroke="#000000" d="M918.1249,-136.2141C907.7795,-128.4736 911.0141,-104.1573 891,-94.7592 776.7329,-41.102 268.1535,-18.0927 163,-107.7592 89.017,-170.846 70.4415,-483.7957 66.1756,-589.155"/>
<polygon fill="#000000" stroke="#000000" points="924.5458,-136.9042 932.1153,-141.3385 928.5229,-137.3317 932.5,-137.7592 932.5,-137.7592 932.5,-137.7592 928.5229,-137.3317 932.8847,-134.1798 924.5458,-136.9042 924.5458,-136.9042"/>
<ellipse fill="none" stroke="#000000" cx="921.3641" cy="-136.5622" rx="3.2" ry="3.2"/>
</g>
<!-- QuestionResponses&#45;&gt;FormQuestions -->
<g id="edge29" class="edge">
<title>QuestionResponses:w&#45;&gt;FormQuestions:e</title>
<path fill="none" stroke="#000000" d="M920.0515,-145.1174C869.6728,-212.5724 926.4524,-722.3417 891,-778.7592 799.5155,-924.3436 725.9426,-968.7592 554,-968.7592"/>
<polygon fill="#000000" stroke="#000000" points="925.6131,-141.83 934.3319,-140.8583 929.0566,-139.7946 932.5,-137.7592 932.5,-137.7592 932.5,-137.7592 929.0566,-139.7946 930.6681,-134.6601 925.6131,-141.83 925.6131,-141.83"/>
<ellipse fill="none" stroke="#000000" cx="922.8584" cy="-143.4583" rx="3.2" ry="3.2"/>
</g>
<!-- StudentCompetencyEvaluations -->
<g id="node17" class="node">
<title>StudentCompetencyEvaluations</title>
<g id="a_node17"><a xlink:href="../../tables/StudentCompetencyEvaluations.html" xlink:title="StudentCompetencyEvaluations" target="_top">
<polygon fill="#ffffff" stroke="transparent" points="660,-180.2592 660,-241.2592 883,-241.2592 883,-180.2592 660,-180.2592"/>
<polygon fill="#f5f5f5" stroke="transparent" points="660.5,-217.7592 660.5,-240.7592 883.5,-240.7592 883.5,-217.7592 660.5,-217.7592"/>
<polygon fill="none" stroke="#000000" points="660.5,-217.7592 660.5,-240.7592 883.5,-240.7592 883.5,-217.7592 660.5,-217.7592"/>
<text text-anchor="start" x="665.5" y="-226.3592" font-family="Helvetica,sans-Serif" font-weight="bold" font-size="11.00" fill="#000000">StudentCompetencyEvaluations</text>
<text text-anchor="start" x="849.0219" y="-225.8592" font-family="Helvetica,sans-Serif" font-size="11.00" fill="#000000">[table]</text>
<polygon fill="none" stroke="#000000" points="660.5,-198.7592 660.5,-217.7592 883.5,-217.7592 883.5,-198.7592 660.5,-198.7592"/>
<text text-anchor="start" x="663.5" y="-204.8592" font-family="Helvetica,sans-Serif" font-size="11.00" fill="#000000">...</text>
<polygon fill="#ffffff" stroke="transparent" points="660.5,-179.7592 660.5,-198.7592 752.5,-198.7592 752.5,-179.7592 660.5,-179.7592"/>
<polygon fill="none" stroke="#000000" points="660.5,-179.7592 660.5,-198.7592 752.5,-198.7592 752.5,-179.7592 660.5,-179.7592"/>
<text text-anchor="start" x="663.5" y="-185.8592" font-family="Helvetica,sans-Serif" font-size="11.00" fill="#000000">&lt; 4</text>
<polygon fill="#ffffff" stroke="transparent" points="752.5,-179.7592 752.5,-198.7592 826.5,-198.7592 826.5,-179.7592 752.5,-179.7592"/>
<polygon fill="none" stroke="#000000" points="752.5,-179.7592 752.5,-198.7592 826.5,-198.7592 826.5,-179.7592 752.5,-179.7592"/>
<text text-anchor="start" x="791.1105" y="-185.8592" font-family="Helvetica,sans-Serif" font-size="11.00" fill="#000000">0 rows</text>
<polygon fill="#ffffff" stroke="transparent" points="826.5,-179.7592 826.5,-198.7592 883.5,-198.7592 883.5,-179.7592 826.5,-179.7592"/>
<polygon fill="none" stroke="#000000" points="826.5,-179.7592 826.5,-198.7592 883.5,-198.7592 883.5,-179.7592 826.5,-179.7592"/>
<text text-anchor="start" x="864.9053" y="-185.8592" font-family="Helvetica,sans-Serif" font-size="11.00" fill="#000000">1 &gt;</text>
</a>
</g>
</g>
<!-- QuestionResponses&#45;&gt;StudentCompetencyEvaluations -->
<g id="edge30" class="edge">
<title>QuestionResponses:w&#45;&gt;StudentCompetencyEvaluations:e</title>
<path fill="none" stroke="#000000" d="M918.4782,-142.7934C901.62,-158.8438 915.2455,-207.7592 883.5,-207.7592"/>
<polygon fill="#000000" stroke="#000000" points="924.9706,-140.4625 933.7165,-141.1474 928.7353,-139.1108 932.5,-137.7592 932.5,-137.7592 932.5,-137.7592 928.7353,-139.1108 931.2835,-134.3709 924.9706,-140.4625 924.9706,-140.4625"/>
<ellipse fill="none" stroke="#000000" cx="921.9588" cy="-141.5438" rx="3.2" ry="3.2"/>
</g>
<!-- StudentCompetencyEvaluations&#45;&gt;AspNetUsers -->
<g id="edge32" class="edge">
<title>StudentCompetencyEvaluations:w&#45;&gt;AspNetUsers:e</title>
<path fill="none" stroke="#000000" d="M647.2447,-201.6721C638.1175,-195.8764 632.8849,-189.1915 619,-186.7592 506.0532,-166.9735 474.9206,-173.6999 361,-186.7592 271.2442,-197.0483 227.5492,-169.5501 163,-232.7592 112.0576,-282.6439 79.4791,-503.0676 68.8294,-589.1934"/>
<polygon fill="#000000" stroke="#000000" points="653.2299,-204.4206 658.9976,-211.0307 656.865,-206.0899 660.5,-207.7592 660.5,-207.7592 660.5,-207.7592 656.865,-206.0899 662.0024,-204.4876 653.2299,-204.4206 653.2299,-204.4206"/>
<ellipse fill="none" stroke="#000000" cx="650.3219" cy="-203.0851" rx="3.2" ry="3.2"/>
</g>
<!-- StudentCompetencyEvaluations&#45;&gt;AspNetUsers -->
<g id="edge35" class="edge">
<title>StudentCompetencyEvaluations:w&#45;&gt;AspNetUsers:e</title>
<path fill="none" stroke="#000000" d="M646.0752,-209.6871C637.6461,-208.3031 632.2812,-202.0857 619,-199.7592 506.0532,-179.9735 474.9206,-186.6999 361,-199.7592 271.2442,-210.0483 227.5492,-182.5501 163,-245.7592 113.3512,-294.3772 81.1454,-504.9832 69.683,-589.0382"/>
<polygon fill="#000000" stroke="#000000" points="652.5705,-208.819 660.9769,-211.3274 656.5353,-208.2891 660.5,-207.7592 660.5,-207.7592 660.5,-207.7592 656.5353,-208.2891 660.0231,-204.1909 652.5705,-208.819 652.5705,-208.819"/>
<ellipse fill="none" stroke="#000000" cx="649.3987" cy="-209.243" rx="3.2" ry="3.2"/>
</g>
<!-- StudentCompetencyEvaluations&#45;&gt;ProfessorCompetencyAssignments -->
<g id="edge33" class="edge">
<title>StudentCompetencyEvaluations:w&#45;&gt;ProfessorCompetencyAssignments:e</title>
<path fill="none" stroke="#000000" d="M646.0077,-210.1235C589.8698,-231.7705 691.2644,-394.7592 611,-394.7592"/>
<polygon fill="#000000" stroke="#000000" points="652.6044,-209.0473 661.0797,-211.3122 656.5522,-208.4033 660.5,-207.7592 660.5,-207.7592 660.5,-207.7592 656.5522,-208.4033 659.9203,-204.2061 652.6044,-209.0473 652.6044,-209.0473"/>
<ellipse fill="none" stroke="#000000" cx="649.4461" cy="-209.5626" rx="3.2" ry="3.2"/>
</g>
<!-- Students -->
<g id="node18" class="node">
<title>Students</title>
<g id="a_node18"><a xlink:href="../../tables/Students.html" xlink:title="Students" target="_top">
<polygon fill="#ffffff" stroke="transparent" points="445,-203.2592 445,-264.2592 535,-264.2592 535,-203.2592 445,-203.2592"/>
<polygon fill="#f5f5f5" stroke="transparent" points="445,-240.7592 445,-263.7592 535,-263.7592 535,-240.7592 445,-240.7592"/>
<polygon fill="none" stroke="#000000" points="445,-240.7592 445,-263.7592 535,-263.7592 535,-240.7592 445,-240.7592"/>
<text text-anchor="start" x="450" y="-249.3592" font-family="Helvetica,sans-Serif" font-weight="bold" font-size="11.00" fill="#000000">Students</text>
<text text-anchor="start" x="500.5219" y="-248.8592" font-family="Helvetica,sans-Serif" font-size="11.00" fill="#000000">[table]</text>
<polygon fill="none" stroke="#000000" points="445,-221.7592 445,-240.7592 535,-240.7592 535,-221.7592 445,-221.7592"/>
<text text-anchor="start" x="448" y="-227.8592" font-family="Helvetica,sans-Serif" font-size="11.00" fill="#000000">...</text>
<polygon fill="#ffffff" stroke="transparent" points="445,-202.7592 445,-221.7592 471,-221.7592 471,-202.7592 445,-202.7592"/>
<polygon fill="none" stroke="#000000" points="445,-202.7592 445,-221.7592 471,-221.7592 471,-202.7592 445,-202.7592"/>
<text text-anchor="start" x="448" y="-208.8592" font-family="Helvetica,sans-Serif" font-size="11.00" fill="#000000">&lt; 2</text>
<polygon fill="#ffffff" stroke="transparent" points="471,-202.7592 471,-221.7592 511,-221.7592 511,-202.7592 471,-202.7592"/>
<polygon fill="none" stroke="#000000" points="471,-202.7592 471,-221.7592 511,-221.7592 511,-202.7592 471,-202.7592"/>
<text text-anchor="start" x="475.6105" y="-208.8592" font-family="Helvetica,sans-Serif" font-size="11.00" fill="#000000">0 rows</text>
<polygon fill="#ffffff" stroke="transparent" points="511,-202.7592 511,-221.7592 535,-221.7592 535,-202.7592 511,-202.7592"/>
<polygon fill="none" stroke="#000000" points="511,-202.7592 511,-221.7592 535,-221.7592 535,-202.7592 511,-202.7592"/>
<text text-anchor="start" x="516.4053" y="-208.8592" font-family="Helvetica,sans-Serif" font-size="11.00" fill="#000000">3 &gt;</text>
</a>
</g>
</g>
<!-- StudentCompetencyEvaluations&#45;&gt;Students -->
<g id="edge34" class="edge">
<title>StudentCompetencyEvaluations:w&#45;&gt;Students:e</title>
<path fill="none" stroke="#000000" d="M645.9425,-208.305C601.1983,-211.788 586.5012,-230.7592 535,-230.7592"/>
<polygon fill="#000000" stroke="#000000" points="652.5056,-208.059 660.6349,-211.3566 656.5028,-207.9091 660.5,-207.7592 660.5,-207.7592 660.5,-207.7592 656.5028,-207.9091 660.3651,-204.1617 652.5056,-208.059 652.5056,-208.059"/>
<ellipse fill="none" stroke="#000000" cx="649.3079" cy="-208.1789" rx="3.2" ry="3.2"/>
</g>
<!-- Students&#45;&gt;AspNetUsers -->
<g id="edge41" class="edge">
<title>Students:w&#45;&gt;AspNetUsers:e</title>
<path fill="none" stroke="#000000" d="M434.3853,-230.8055C305.8406,-231.9593 254.0603,-255.1126 163,-351.7592 98.9773,-419.7095 76.2541,-532.5064 68.6141,-589.1117"/>
<polygon fill="#000000" stroke="#000000" points="444.1825,-226.7627 444.2175,-234.7626 442.6175,-234.7696 442.5825,-226.7697 444.1825,-226.7627"/>
<polyline fill="none" stroke="#000000" points="445,-230.7592 441,-230.7767 "/>
<ellipse fill="none" stroke="#000000" cx="437.8001" cy="-230.7907" rx="3.2" ry="3.2"/>
</g>
<!-- Students&#45;&gt;TechnicalCareers -->
<g id="edge40" class="edge">
<title>Students:w&#45;&gt;TechnicalCareers:e</title>
<path fill="none" stroke="#000000" d="M430.2629,-231.2207C398.2319,-233.4498 381.7464,-244.2716 361,-274.7592 283.5476,-388.5783 406.6598,-469.771 328,-582.7592 326.4465,-584.9907 324.7355,-587.1066 322.8948,-589.1125"/>
<polygon fill="#000000" stroke="#000000" points="437.0039,-231.0096 445.1127,-234.3574 441.002,-230.8844 445,-230.7592 445,-230.7592 445,-230.7592 441.002,-230.8844 444.8873,-227.1609 437.0039,-231.0096 437.0039,-231.0096"/>
<ellipse fill="none" stroke="#000000" cx="433.8055" cy="-231.1098" rx="3.2" ry="3.2"/>
</g>
<!-- StudentEvaluationReport -->
<g id="node19" class="node">
<title>StudentEvaluationReport</title>
<g id="a_node19"><a xlink:href="../../tables/StudentEvaluationReport.html" xlink:title="StudentEvaluationReport" target="_top">
<polygon fill="#ffffff" stroke="transparent" points="680,-98.2592 680,-159.2592 863,-159.2592 863,-98.2592 680,-98.2592"/>
<polygon fill="#f5f5f5" stroke="transparent" points="680.5,-135.7592 680.5,-158.7592 863.5,-158.7592 863.5,-135.7592 680.5,-135.7592"/>
<polygon fill="none" stroke="#000000" points="680.5,-135.7592 680.5,-158.7592 863.5,-158.7592 863.5,-135.7592 680.5,-135.7592"/>
<text text-anchor="start" x="685.5" y="-144.3592" font-family="Helvetica,sans-Serif" font-weight="bold" font-size="11.00" fill="#000000">StudentEvaluationReport</text>
<text text-anchor="start" x="829.0219" y="-143.8592" font-family="Helvetica,sans-Serif" font-size="11.00" fill="#000000">[table]</text>
<polygon fill="none" stroke="#000000" points="680.5,-116.7592 680.5,-135.7592 863.5,-135.7592 863.5,-116.7592 680.5,-116.7592"/>
<text text-anchor="start" x="683.5" y="-122.8592" font-family="Helvetica,sans-Serif" font-size="11.00" fill="#000000">...</text>
<polygon fill="#ffffff" stroke="transparent" points="680.5,-97.7592 680.5,-116.7592 757.5,-116.7592 757.5,-97.7592 680.5,-97.7592"/>
<polygon fill="none" stroke="#000000" points="680.5,-97.7592 680.5,-116.7592 757.5,-116.7592 757.5,-97.7592 680.5,-97.7592"/>
<text text-anchor="start" x="683.5" y="-103.8592" font-family="Helvetica,sans-Serif" font-size="11.00" fill="#000000">&lt; 4</text>
<polygon fill="#ffffff" stroke="transparent" points="757.5,-97.7592 757.5,-116.7592 823.5,-116.7592 823.5,-97.7592 757.5,-97.7592"/>
<polygon fill="none" stroke="#000000" points="757.5,-97.7592 757.5,-116.7592 823.5,-116.7592 823.5,-97.7592 757.5,-97.7592"/>
<text text-anchor="start" x="788.1105" y="-103.8592" font-family="Helvetica,sans-Serif" font-size="11.00" fill="#000000">0 rows</text>
<polygon fill="#ffffff" stroke="transparent" points="823.5,-97.7592 823.5,-116.7592 863.5,-116.7592 863.5,-97.7592 823.5,-97.7592"/>
<polygon fill="none" stroke="#000000" points="823.5,-97.7592 823.5,-116.7592 863.5,-116.7592 863.5,-97.7592 823.5,-97.7592"/>
<text text-anchor="start" x="854.3862" y="-103.8592" font-family="Helvetica,sans-Serif" font-size="11.00" fill="#000000"> &#160;</text>
</a>
</g>
</g>
<!-- StudentEvaluationReport&#45;&gt;AspNetUsers -->
<g id="edge36" class="edge">
<title>StudentEvaluationReport:w&#45;&gt;AspNetUsers:e</title>
<path fill="none" stroke="#000000" d="M666.0496,-125.2734C443.8249,-116.0934 331.0433,-33.1549 163,-185.7592 103.2916,-239.9818 75.6372,-495.3579 67.5937,-589.1628"/>
<polygon fill="#000000" stroke="#000000" points="672.5045,-125.4903 680.379,-129.3571 676.5023,-125.6247 680.5,-125.7592 680.5,-125.7592 680.5,-125.7592 676.5023,-125.6247 680.621,-122.1612 672.5045,-125.4903 672.5045,-125.4903"/>
<ellipse fill="none" stroke="#000000" cx="669.3063" cy="-125.3828" rx="3.2" ry="3.2"/>
</g>
<!-- StudentEvaluationReport&#45;&gt;AspNetUsers -->
<g id="edge39" class="edge">
<title>StudentEvaluationReport:w&#45;&gt;AspNetUsers:e</title>
<path fill="none" stroke="#000000" d="M666.0496,-126.0751C443.8249,-129.0934 331.0433,-46.1549 163,-198.7592 104.5726,-251.8185 76.8385,-497.4927 68.1386,-589.2058"/>
<polygon fill="#000000" stroke="#000000" points="672.5019,-125.9341 680.5787,-129.3583 676.501,-125.8466 680.5,-125.7592 680.5,-125.7592 680.5,-125.7592 676.501,-125.8466 680.4213,-122.16 672.5019,-125.9341 672.5019,-125.9341"/>
<ellipse fill="none" stroke="#000000" cx="669.3027" cy="-126.0041" rx="3.2" ry="3.2"/>
</g>
<!-- StudentEvaluationReport&#45;&gt;EvaluationPeriods -->
<g id="edge37" class="edge">
<title>StudentEvaluationReport:w&#45;&gt;EvaluationPeriods:e</title>
<path fill="none" stroke="#000000" d="M666.0312,-125.9391C584.8227,-127.8223 409.4459,-144.8249 361,-192.7592 297.2618,-255.8242 407.1647,-389.7592 317.5,-389.7592"/>
<polygon fill="#000000" stroke="#000000" points="672.5006,-125.8587 680.5448,-129.3589 676.5003,-125.8089 680.5,-125.7592 680.5,-125.7592 680.5,-125.7592 676.5003,-125.8089 680.4552,-122.1594 672.5006,-125.8587 672.5006,-125.8587"/>
<ellipse fill="none" stroke="#000000" cx="669.3009" cy="-125.8985" rx="3.2" ry="3.2"/>
</g>
<!-- StudentEvaluationReport&#45;&gt;Students -->
<g id="edge38" class="edge">
<title>StudentEvaluationReport:w&#45;&gt;Students:e</title>
<path fill="none" stroke="#000000" d="M665.9803,-128.2128C643.2122,-137.2419 645.9137,-169.1135 619,-188.7592 585.2864,-213.3685 576.7399,-230.7592 535,-230.7592"/>
<polygon fill="#000000" stroke="#000000" points="672.6118,-127.0922 681.0999,-129.3088 676.5559,-126.4257 680.5,-125.7592 680.5,-125.7592 680.5,-125.7592 676.5559,-126.4257 679.9001,-122.2095 672.6118,-127.0922 672.6118,-127.0922"/>
<ellipse fill="none" stroke="#000000" cx="669.4566" cy="-127.6254" rx="3.2" ry="3.2"/>
</g>
<!-- StudentSubjects -->
<g id="node20" class="node">
<title>StudentSubjects</title>
<g id="a_node20"><a xlink:href="../../tables/StudentSubjects.html" xlink:title="StudentSubjects" target="_top">
<polygon fill="#ffffff" stroke="transparent" points="705,-707.2592 705,-768.2592 838,-768.2592 838,-707.2592 705,-707.2592"/>
<polygon fill="#f5f5f5" stroke="transparent" points="705.5,-744.7592 705.5,-767.7592 838.5,-767.7592 838.5,-744.7592 705.5,-744.7592"/>
<polygon fill="none" stroke="#000000" points="705.5,-744.7592 705.5,-767.7592 838.5,-767.7592 838.5,-744.7592 705.5,-744.7592"/>
<text text-anchor="start" x="710.5" y="-753.3592" font-family="Helvetica,sans-Serif" font-weight="bold" font-size="11.00" fill="#000000">StudentSubjects</text>
<text text-anchor="start" x="804.0219" y="-752.8592" font-family="Helvetica,sans-Serif" font-size="11.00" fill="#000000">[table]</text>
<polygon fill="none" stroke="#000000" points="705.5,-725.7592 705.5,-744.7592 838.5,-744.7592 838.5,-725.7592 705.5,-725.7592"/>
<text text-anchor="start" x="708.5" y="-731.8592" font-family="Helvetica,sans-Serif" font-size="11.00" fill="#000000">...</text>
<polygon fill="#ffffff" stroke="transparent" points="705.5,-706.7592 705.5,-725.7592 757.5,-725.7592 757.5,-706.7592 705.5,-706.7592"/>
<polygon fill="none" stroke="#000000" points="705.5,-706.7592 705.5,-725.7592 757.5,-725.7592 757.5,-706.7592 705.5,-706.7592"/>
<text text-anchor="start" x="708.5" y="-712.8592" font-family="Helvetica,sans-Serif" font-size="11.00" fill="#000000">&lt; 4</text>
<polygon fill="#ffffff" stroke="transparent" points="757.5,-706.7592 757.5,-725.7592 810.5,-725.7592 810.5,-706.7592 757.5,-706.7592"/>
<polygon fill="none" stroke="#000000" points="757.5,-706.7592 757.5,-725.7592 810.5,-725.7592 810.5,-706.7592 757.5,-706.7592"/>
<text text-anchor="start" x="775.1105" y="-712.8592" font-family="Helvetica,sans-Serif" font-size="11.00" fill="#000000">0 rows</text>
<polygon fill="#ffffff" stroke="transparent" points="810.5,-706.7592 810.5,-725.7592 838.5,-725.7592 838.5,-706.7592 810.5,-706.7592"/>
<polygon fill="none" stroke="#000000" points="810.5,-706.7592 810.5,-725.7592 838.5,-725.7592 838.5,-706.7592 810.5,-706.7592"/>
<text text-anchor="start" x="829.3862" y="-712.8592" font-family="Helvetica,sans-Serif" font-size="11.00" fill="#000000"> &#160;</text>
</a>
</g>
</g>
<!-- StudentSubjects&#45;&gt;AspNetUsers -->
<g id="edge42" class="edge">
<title>StudentSubjects:w&#45;&gt;AspNetUsers:e</title>
<path fill="none" stroke="#000000" d="M683.4875,-749.3657C671.791,-754.651 660.8172,-761.6398 652,-770.7592 615.3359,-808.6797 661.1654,-853.0684 619,-884.7592 573.1681,-919.2055 411.2415,-912.3798 361,-884.7592 337.0136,-871.5725 350.3891,-848.506 328,-832.7592 266.5272,-789.5239 223.0985,-840.8853 163,-795.7592 116.7361,-761.021 89.5286,-697.7399 75.9482,-658.3204"/>
<polygon fill="#000000" stroke="#000000" points="689.4755,-747.0187 698.2375,-747.4511 693.1997,-745.5591 696.9238,-744.0994 696.9238,-744.0994 696.9238,-744.0994 693.1997,-745.5591 695.6101,-740.7476 689.4755,-747.0187 689.4755,-747.0187"/>
<ellipse fill="none" stroke="#000000" cx="686.4962" cy="-748.1865" rx="3.2" ry="3.2"/>
</g>
<!-- StudentSubjects&#45;&gt;AspNetUsers -->
<g id="edge45" class="edge">
<title>StudentSubjects:w&#45;&gt;AspNetUsers:e</title>
<path fill="none" stroke="#000000" d="M683.4875,-762.2135C671.791,-767.651 660.8172,-774.6398 652,-783.7592 615.3359,-821.6797 661.1654,-866.0684 619,-897.7592 573.1681,-932.2055 411.2415,-925.3798 361,-897.7592 337.0136,-884.5725 350.3891,-861.506 328,-845.7592 266.5272,-802.5239 223.0985,-853.8853 163,-808.7592 113.2099,-771.3733 85.4918,-700.9275 73.078,-658.4855"/>
<polygon fill="#000000" stroke="#000000" points="689.5222,-759.7384 698.2899,-760.0334 693.223,-758.2205 696.9238,-756.7026 696.9238,-756.7026 696.9238,-756.7026 693.223,-758.2205 695.5577,-753.3719 689.5222,-759.7384 689.5222,-759.7384"/>
<ellipse fill="none" stroke="#000000" cx="686.5615" cy="-760.9527" rx="3.2" ry="3.2"/>
</g>
<!-- StudentSubjects&#45;&gt;Students -->
<g id="edge43" class="edge">
<title>StudentSubjects:w&#45;&gt;Students:e</title>
<path fill="none" stroke="#000000" d="M767.3523,-688.454C757.2727,-596.8773 724.0032,-398.6086 619,-274.7592 591.7454,-242.6129 577.145,-230.7592 535,-230.7592"/>
<polygon fill="#000000" stroke="#000000" points="768.0312,-695.0256 765.2725,-703.3532 768.4423,-699.0044 768.8534,-702.9832 768.8534,-702.9832 768.8534,-702.9832 768.4423,-699.0044 772.4344,-702.6132 768.0312,-695.0256 768.0312,-695.0256"/>
<ellipse fill="none" stroke="#000000" cx="767.7023" cy="-691.8425" rx="3.2" ry="3.2"/>
</g>
<!-- Subjects -->
<g id="node21" class="node">
<title>Subjects</title>
<g id="a_node21"><a xlink:href="../../tables/Subjects.html" xlink:title="Subjects" target="_top">
<polygon fill="#ffffff" stroke="transparent" points="378.5,-449.7592 378.5,-715.7592 601.5,-715.7592 601.5,-449.7592 378.5,-449.7592"/>
<polygon fill="#f5f5f5" stroke="transparent" points="381,-690.7592 381,-713.7592 600,-713.7592 600,-690.7592 381,-690.7592"/>
<polygon fill="none" stroke="#000000" points="381,-690.7592 381,-713.7592 600,-713.7592 600,-690.7592 381,-690.7592"/>
<text text-anchor="start" x="386" y="-699.3592" font-family="Helvetica,sans-Serif" font-weight="bold" font-size="11.00" fill="#000000">Subjects</text>
<text text-anchor="start" x="565.0437" y="-698.8592" font-family="Helvetica,sans-Serif" font-size="11.00" fill="#000000">[table]</text>
<polygon fill="none" stroke="#000000" points="381,-668.7592 381,-690.7592 506,-690.7592 506,-668.7592 381,-668.7592"/>
<image xlink:href="../../images/primaryKeys.png" width="11px" height="12px" preserveAspectRatio="xMinYMin meet" x="386" y="-685.759"/>
<text text-anchor="start" x="401" y="-675.8592" font-family="Helvetica,sans-Serif" font-size="11.00" fill="#000000">Id</text>
<polygon fill="none" stroke="#000000" points="506,-668.7592 506,-690.7592 600,-690.7592 600,-668.7592 506,-668.7592"/>
<text text-anchor="start" x="508.9758" y="-676.4592" font-family="Helvetica,sans-Serif" font-size="11.00" fill="#000000">uuid[2147483647]</text>
<polygon fill="none" stroke="#000000" points="381,-646.7592 381,-668.7592 506,-668.7592 506,-646.7592 381,-646.7592"/>
<text text-anchor="start" x="401" y="-653.8592" font-family="Helvetica,sans-Serif" font-size="11.00" fill="#000000">Name</text>
<polygon fill="none" stroke="#000000" points="506,-646.7592 506,-668.7592 600,-668.7592 600,-646.7592 506,-646.7592"/>
<text text-anchor="start" x="509" y="-654.4592" font-family="Helvetica,sans-Serif" font-size="11.00" fill="#000000">text[2147483647]</text>
<polygon fill="#ffffff" stroke="transparent" points="381,-624.7592 381,-646.7592 506,-646.7592 506,-624.7592 381,-624.7592"/>
<polygon fill="none" stroke="#000000" points="381,-624.7592 381,-646.7592 506,-646.7592 506,-624.7592 381,-624.7592"/>
<image xlink:href="../../images/foreignKeys.png" width="11px" height="12px" preserveAspectRatio="xMinYMin meet" x="386" y="-641.759"/>
<text text-anchor="start" x="401" y="-631.8592" font-family="Helvetica,sans-Serif" font-size="11.00" fill="#000000">TechnicalCareerId</text>
<polygon fill="none" stroke="#000000" points="506,-624.7592 506,-646.7592 600,-646.7592 600,-624.7592 506,-624.7592"/>
<text text-anchor="start" x="508.9758" y="-632.4592" font-family="Helvetica,sans-Serif" font-size="11.00" fill="#000000">uuid[2147483647]</text>
<polygon fill="none" stroke="#000000" points="381,-602.7592 381,-624.7592 506,-624.7592 506,-602.7592 381,-602.7592"/>
<text text-anchor="start" x="401" y="-609.8592" font-family="Helvetica,sans-Serif" font-size="11.00" fill="#000000">Year</text>
<polygon fill="none" stroke="#000000" points="506,-602.7592 506,-624.7592 600,-624.7592 600,-602.7592 506,-602.7592"/>
<text text-anchor="start" x="509" y="-610.4592" font-family="Helvetica,sans-Serif" font-size="11.00" fill="#000000">int4[10]</text>
<polygon fill="#ffffff" stroke="transparent" points="381,-580.7592 381,-602.7592 506,-602.7592 506,-580.7592 381,-580.7592"/>
<polygon fill="none" stroke="#000000" points="381,-580.7592 381,-602.7592 506,-602.7592 506,-580.7592 381,-580.7592"/>
<image xlink:href="../../images/foreignKeys.png" width="11px" height="12px" preserveAspectRatio="xMinYMin meet" x="386" y="-597.759"/>
<text text-anchor="start" x="401" y="-587.8592" font-family="Helvetica,sans-Serif" font-size="11.00" fill="#000000">ProfessorId</text>
<polygon fill="none" stroke="#000000" points="506,-580.7592 506,-602.7592 600,-602.7592 600,-580.7592 506,-580.7592"/>
<text text-anchor="start" x="509" y="-588.4592" font-family="Helvetica,sans-Serif" font-size="11.00" fill="#000000">text[2147483647]</text>
<polygon fill="none" stroke="#000000" points="381,-558.7592 381,-580.7592 506,-580.7592 506,-558.7592 381,-558.7592"/>
<text text-anchor="start" x="401" y="-565.8592" font-family="Helvetica,sans-Serif" font-size="11.00" fill="#000000">IsActive</text>
<polygon fill="none" stroke="#000000" points="506,-558.7592 506,-580.7592 600,-580.7592 600,-558.7592 506,-558.7592"/>
<text text-anchor="start" x="509" y="-566.4592" font-family="Helvetica,sans-Serif" font-size="11.00" fill="#000000">bool[1]</text>
<polygon fill="none" stroke="#000000" points="381,-536.7592 381,-558.7592 506,-558.7592 506,-536.7592 381,-536.7592"/>
<text text-anchor="start" x="401" y="-543.8592" font-family="Helvetica,sans-Serif" font-size="11.00" fill="#000000">CreatedAt</text>
<polygon fill="none" stroke="#000000" points="506,-536.7592 506,-558.7592 600,-558.7592 600,-536.7592 506,-536.7592"/>
<text text-anchor="start" x="509" y="-544.4592" font-family="Helvetica,sans-Serif" font-size="11.00" fill="#000000">timestamptz[35,6]</text>
<polygon fill="none" stroke="#000000" points="381,-514.7592 381,-536.7592 506,-536.7592 506,-514.7592 381,-514.7592"/>
<text text-anchor="start" x="401" y="-521.8592" font-family="Helvetica,sans-Serif" font-size="11.00" fill="#000000">UpdatedAt</text>
<polygon fill="none" stroke="#000000" points="506,-514.7592 506,-536.7592 600,-536.7592 600,-514.7592 506,-514.7592"/>
<text text-anchor="start" x="509" y="-522.4592" font-family="Helvetica,sans-Serif" font-size="11.00" fill="#000000">timestamptz[35,6]</text>
<polygon fill="#ffffff" stroke="transparent" points="381,-492.7592 381,-514.7592 506,-514.7592 506,-492.7592 381,-492.7592"/>
<polygon fill="none" stroke="#000000" points="381,-492.7592 381,-514.7592 506,-514.7592 506,-492.7592 381,-492.7592"/>
<image xlink:href="../../images/foreignKeys.png" width="11px" height="12px" preserveAspectRatio="xMinYMin meet" x="386" y="-509.759"/>
<text text-anchor="start" x="401" y="-499.8592" font-family="Helvetica,sans-Serif" font-size="11.00" fill="#000000">CreatedByUserId</text>
<polygon fill="none" stroke="#000000" points="506,-492.7592 506,-514.7592 600,-514.7592 600,-492.7592 506,-492.7592"/>
<text text-anchor="start" x="509" y="-500.4592" font-family="Helvetica,sans-Serif" font-size="11.00" fill="#000000">text[2147483647]</text>
<polygon fill="#ffffff" stroke="transparent" points="381,-470.7592 381,-492.7592 506,-492.7592 506,-470.7592 381,-470.7592"/>
<polygon fill="none" stroke="#000000" points="381,-470.7592 381,-492.7592 506,-492.7592 506,-470.7592 381,-470.7592"/>
<image xlink:href="../../images/foreignKeys.png" width="11px" height="12px" preserveAspectRatio="xMinYMin meet" x="386" y="-487.759"/>
<text text-anchor="start" x="401" y="-477.8592" font-family="Helvetica,sans-Serif" font-size="11.00" fill="#000000">UpdatedByUserId</text>
<polygon fill="none" stroke="#000000" points="506,-470.7592 506,-492.7592 600,-492.7592 600,-470.7592 506,-470.7592"/>
<text text-anchor="start" x="509" y="-478.4592" font-family="Helvetica,sans-Serif" font-size="11.00" fill="#000000">text[2147483647]</text>
<polygon fill="#ffffff" stroke="transparent" points="381,-451.7592 381,-470.7592 435,-470.7592 435,-451.7592 381,-451.7592"/>
<polygon fill="none" stroke="#000000" points="381,-451.7592 381,-470.7592 435,-470.7592 435,-451.7592 381,-451.7592"/>
<text text-anchor="start" x="384" y="-457.8592" font-family="Helvetica,sans-Serif" font-size="11.00" fill="#000000">&lt; 4</text>
<polygon fill="#ffffff" stroke="transparent" points="435,-451.7592 435,-470.7592 506,-470.7592 506,-451.7592 435,-451.7592"/>
<polygon fill="none" stroke="#000000" points="435,-451.7592 435,-470.7592 506,-470.7592 506,-451.7592 435,-451.7592"/>
<text text-anchor="start" x="470.6105" y="-457.8592" font-family="Helvetica,sans-Serif" font-size="11.00" fill="#000000">0 rows</text>
<polygon fill="#ffffff" stroke="transparent" points="506,-451.7592 506,-470.7592 600,-470.7592 600,-451.7592 506,-451.7592"/>
<polygon fill="none" stroke="#000000" points="506,-451.7592 506,-470.7592 600,-470.7592 600,-451.7592 506,-451.7592"/>
<text text-anchor="start" x="581.4053" y="-457.8592" font-family="Helvetica,sans-Serif" font-size="11.00" fill="#000000">1 &gt;</text>
<polygon fill="none" stroke="#000000" stroke-width="2" points="379.5,-450.7592 379.5,-714.7592 600.5,-714.7592 600.5,-450.7592 379.5,-450.7592"/>
</a>
</g>
</g>
<!-- StudentSubjects&#45;&gt;Subjects -->
<g id="edge44" class="edge">
<title>StudentSubjects:w&#45;&gt;Subjects:e</title>
<path fill="none" stroke="#000000" d="M689.0887,-697.915C661.4286,-687.8112 629.9803,-679.7592 600,-679.7592"/>
<polygon fill="#000000" stroke="#000000" points="695.2936,-700.3061 701.464,-706.542 699.0261,-701.7444 702.7585,-703.1828 702.7585,-703.1828 702.7585,-703.1828 699.0261,-701.7444 704.053,-699.8236 695.2936,-700.3061 695.2936,-700.3061"/>
<ellipse fill="none" stroke="#000000" cx="692.3077" cy="-699.1554" rx="3.2" ry="3.2"/>
</g>
<!-- Subjects&#45;&gt;AspNetUsers -->
<g id="edge46" class="edge">
<title>Subjects:w&#45;&gt;AspNetUsers:e</title>
<path fill="none" stroke="#000000" d="M366.4136,-505.7091C317.5292,-521.137 384.3822,-623.9611 328,-664.7592 270.5326,-706.3424 187.4245,-683.3175 130.0857,-658.2132"/>
<polygon fill="#000000" stroke="#000000" points="373.0705,-504.8193 381.477,-507.3274 377.0353,-504.2892 381,-503.7592 381,-503.7592 381,-503.7592 377.0353,-504.2892 380.523,-500.1909 373.0705,-504.8193 373.0705,-504.8193"/>
<ellipse fill="none" stroke="#000000" cx="369.8988" cy="-505.2433" rx="3.2" ry="3.2"/>
</g>
<!-- Subjects&#45;&gt;AspNetUsers -->
<g id="edge49" class="edge">
<title>Subjects:w&#45;&gt;AspNetUsers:e</title>
<path fill="none" stroke="#000000" d="M366.383,-481.5562C279.9803,-479.1613 244.2626,-457.1545 163,-500.7592 126.4309,-520.3817 98.7388,-560.0648 82.2743,-589.0688"/>
<polygon fill="#000000" stroke="#000000" points="373.0008,-481.648 380.95,-485.3588 377.0004,-481.7036 381,-481.7592 381,-481.7592 381,-481.7592 377.0004,-481.7036 381.05,-478.1595 373.0008,-481.648 373.0008,-481.648"/>
<ellipse fill="none" stroke="#000000" cx="369.8011" cy="-481.6036" rx="3.2" ry="3.2"/>
</g>
<!-- Subjects&#45;&gt;TechnicalCareers -->
<g id="edge48" class="edge">
<title>Subjects:w&#45;&gt;TechnicalCareers:e</title>
<path fill="none" stroke="#000000" d="M366.2442,-635.5407C351.9038,-635.1333 337.1698,-634.1905 323.1397,-633.0061"/>
<polygon fill="#000000" stroke="#000000" points="373.0009,-635.6407 380.9467,-639.3588 377.0004,-635.6999 381,-635.7592 381,-635.7592 381,-635.7592 377.0004,-635.6999 381.0533,-632.1596 373.0009,-635.6407 373.0009,-635.6407"/>
<ellipse fill="none" stroke="#000000" cx="369.8012" cy="-635.5933" rx="3.2" ry="3.2"/>
</g>
<!-- Subjects&#45;&gt;Professors -->
<g id="edge47" class="edge">
<title>Subjects:w&#45;&gt;Professors:e</title>
<path fill="none" stroke="#000000" d="M366.4809,-590.9588C344.8798,-588.6484 323.141,-581.6172 304.1672,-573.5666"/>
<polygon fill="#000000" stroke="#000000" points="373.0121,-591.3188 380.8018,-595.3537 377.0061,-591.539 381,-591.7592 381,-591.7592 381,-591.7592 377.0061,-591.539 381.1982,-588.1646 373.0121,-591.3188 373.0121,-591.3188"/>
<ellipse fill="none" stroke="#000000" cx="369.817" cy="-591.1426" rx="3.2" ry="3.2"/>
</g>
</g>
</svg>
