<?xml version="1.0" encoding="UTF-8" standalone="no"?>
<!DOCTYPE svg PUBLIC "-//W3C//DTD SVG 1.1//EN"
 "http://www.w3.org/Graphics/SVG/1.1/DTD/svg11.dtd">
<!-- Generated by graphviz version 2.40.1 (20161225.0304)
 -->
<!-- Title: twoDegreesRelationshipsDiagram Pages: 1 -->
<svg width="1452pt" height="1270pt"
 viewBox="0.00 0.00 1452.00 1270.27" xmlns="http://www.w3.org/2000/svg" xmlns:xlink="http://www.w3.org/1999/xlink">
<g id="graph0" class="graph" transform="scale(1 1) rotate(0) translate(4 1266.2725)">
<title>twoDegreesRelationshipsDiagram</title>
<polygon fill="#ffffff" stroke="transparent" points="-4,4 -4,-1266.2725 1448,-1266.2725 1448,4 -4,4"/>
<text text-anchor="middle" x="72.4936" y="-7.3" font-family="Helvetica,sans-Serif" font-size="11.00" fill="#000000">Generated by SchemaSpy</text>
<!-- AspNetUserClaims -->
<g id="node1" class="node">
<title>AspNetUserClaims</title>
<g id="a_node1"><a xlink:href="../../tables/AspNetUserClaims.html" xlink:title="AspNetUserClaims" target="_top">
<polygon fill="#ffffff" stroke="transparent" points="207,-1197.2725 207,-1258.2725 354,-1258.2725 354,-1197.2725 207,-1197.2725"/>
<polygon fill="#f5f5f5" stroke="transparent" points="207.5,-1234.7725 207.5,-1257.7725 354.5,-1257.7725 354.5,-1234.7725 207.5,-1234.7725"/>
<polygon fill="none" stroke="#000000" points="207.5,-1234.7725 207.5,-1257.7725 354.5,-1257.7725 354.5,-1234.7725 207.5,-1234.7725"/>
<text text-anchor="start" x="212.5" y="-1243.3725" font-family="Helvetica,sans-Serif" font-weight="bold" font-size="11.00" fill="#000000">AspNetUserClaims</text>
<text text-anchor="start" x="320.0219" y="-1242.8725" font-family="Helvetica,sans-Serif" font-size="11.00" fill="#000000">[table]</text>
<polygon fill="none" stroke="#000000" points="207.5,-1215.7725 207.5,-1234.7725 354.5,-1234.7725 354.5,-1215.7725 207.5,-1215.7725"/>
<text text-anchor="start" x="210.5" y="-1221.8725" font-family="Helvetica,sans-Serif" font-size="11.00" fill="#000000">...</text>
<polygon fill="#ffffff" stroke="transparent" points="207.5,-1196.7725 207.5,-1215.7725 266.5,-1215.7725 266.5,-1196.7725 207.5,-1196.7725"/>
<polygon fill="none" stroke="#000000" points="207.5,-1196.7725 207.5,-1215.7725 266.5,-1215.7725 266.5,-1196.7725 207.5,-1196.7725"/>
<text text-anchor="start" x="210.5" y="-1202.8725" font-family="Helvetica,sans-Serif" font-size="11.00" fill="#000000">&lt; 1</text>
<polygon fill="#ffffff" stroke="transparent" points="266.5,-1196.7725 266.5,-1215.7725 323.5,-1215.7725 323.5,-1196.7725 266.5,-1196.7725"/>
<polygon fill="none" stroke="#000000" points="266.5,-1196.7725 266.5,-1215.7725 323.5,-1215.7725 323.5,-1196.7725 266.5,-1196.7725"/>
<text text-anchor="start" x="288.1105" y="-1202.8725" font-family="Helvetica,sans-Serif" font-size="11.00" fill="#000000">0 rows</text>
<polygon fill="#ffffff" stroke="transparent" points="323.5,-1196.7725 323.5,-1215.7725 354.5,-1215.7725 354.5,-1196.7725 323.5,-1196.7725"/>
<polygon fill="none" stroke="#000000" points="323.5,-1196.7725 323.5,-1215.7725 354.5,-1215.7725 354.5,-1196.7725 323.5,-1196.7725"/>
<text text-anchor="start" x="345.3862" y="-1202.8725" font-family="Helvetica,sans-Serif" font-size="11.00" fill="#000000"> &#160;</text>
</a>
</g>
</g>
<!-- AspNetUsers -->
<g id="node2" class="node">
<title>AspNetUsers</title>
<g id="a_node2"><a xlink:href="../../tables/AspNetUsers.html" xlink:title="AspNetUsers" target="_top">
<polygon fill="#ffffff" stroke="transparent" points="8,-504.2725 8,-565.2725 122,-565.2725 122,-504.2725 8,-504.2725"/>
<polygon fill="#f5f5f5" stroke="transparent" points="8,-541.7725 8,-564.7725 122,-564.7725 122,-541.7725 8,-541.7725"/>
<polygon fill="none" stroke="#000000" points="8,-541.7725 8,-564.7725 122,-564.7725 122,-541.7725 8,-541.7725"/>
<text text-anchor="start" x="13" y="-550.3725" font-family="Helvetica,sans-Serif" font-weight="bold" font-size="11.00" fill="#000000">AspNetUsers</text>
<text text-anchor="start" x="87.5219" y="-549.8725" font-family="Helvetica,sans-Serif" font-size="11.00" fill="#000000">[table]</text>
<polygon fill="none" stroke="#000000" points="8,-522.7725 8,-541.7725 122,-541.7725 122,-522.7725 8,-522.7725"/>
<text text-anchor="start" x="11" y="-528.8725" font-family="Helvetica,sans-Serif" font-size="11.00" fill="#000000">...</text>
<polygon fill="#ffffff" stroke="transparent" points="8,-503.7725 8,-522.7725 41,-522.7725 41,-503.7725 8,-503.7725"/>
<polygon fill="none" stroke="#000000" points="8,-503.7725 8,-522.7725 41,-522.7725 41,-503.7725 8,-503.7725"/>
<text text-anchor="start" x="11" y="-509.8725" font-family="Helvetica,sans-Serif" font-size="11.00" fill="#000000"> &#160;</text>
<polygon fill="#ffffff" stroke="transparent" points="41,-503.7725 41,-522.7725 84,-522.7725 84,-503.7725 41,-503.7725"/>
<polygon fill="none" stroke="#000000" points="41,-503.7725 41,-522.7725 84,-522.7725 84,-503.7725 41,-503.7725"/>
<text text-anchor="start" x="54.1105" y="-509.8725" font-family="Helvetica,sans-Serif" font-size="11.00" fill="#000000">1 row</text>
<polygon fill="#ffffff" stroke="transparent" points="84,-503.7725 84,-522.7725 122,-522.7725 122,-503.7725 84,-503.7725"/>
<polygon fill="none" stroke="#000000" points="84,-503.7725 84,-522.7725 122,-522.7725 122,-503.7725 84,-503.7725"/>
<text text-anchor="start" x="97.2904" y="-509.8725" font-family="Helvetica,sans-Serif" font-size="11.00" fill="#000000">29 &gt;</text>
</a>
</g>
</g>
<!-- AspNetUserClaims&#45;&gt;AspNetUsers -->
<g id="edge1" class="edge">
<title>AspNetUserClaims:w&#45;&gt;AspNetUsers:e</title>
<path fill="none" stroke="#000000" d="M193.0415,-1222.6634C178.6001,-1217.7386 172.8588,-1204.5388 163,-1186.7725 103.0164,-1078.6768 74.4875,-688.8246 67.0367,-569.6348"/>
<polygon fill="#000000" stroke="#000000" points="199.5838,-1223.6176 206.9803,-1228.3348 203.5419,-1224.1951 207.5,-1224.7725 207.5,-1224.7725 207.5,-1224.7725 203.5419,-1224.1951 208.0197,-1221.2102 199.5838,-1223.6176 199.5838,-1223.6176"/>
<ellipse fill="none" stroke="#000000" cx="196.4173" cy="-1223.1557" rx="3.2" ry="3.2"/>
</g>
<!-- AspNetUserLogins -->
<g id="node3" class="node">
<title>AspNetUserLogins</title>
<g id="a_node3"><a xlink:href="../../tables/AspNetUserLogins.html" xlink:title="AspNetUserLogins" target="_top">
<polygon fill="#ffffff" stroke="transparent" points="207,-1115.2725 207,-1176.2725 354,-1176.2725 354,-1115.2725 207,-1115.2725"/>
<polygon fill="#f5f5f5" stroke="transparent" points="207.5,-1152.7725 207.5,-1175.7725 354.5,-1175.7725 354.5,-1152.7725 207.5,-1152.7725"/>
<polygon fill="none" stroke="#000000" points="207.5,-1152.7725 207.5,-1175.7725 354.5,-1175.7725 354.5,-1152.7725 207.5,-1152.7725"/>
<text text-anchor="start" x="212.5" y="-1161.3725" font-family="Helvetica,sans-Serif" font-weight="bold" font-size="11.00" fill="#000000">AspNetUserLogins</text>
<text text-anchor="start" x="320.0219" y="-1160.8725" font-family="Helvetica,sans-Serif" font-size="11.00" fill="#000000">[table]</text>
<polygon fill="none" stroke="#000000" points="207.5,-1133.7725 207.5,-1152.7725 354.5,-1152.7725 354.5,-1133.7725 207.5,-1133.7725"/>
<text text-anchor="start" x="210.5" y="-1139.8725" font-family="Helvetica,sans-Serif" font-size="11.00" fill="#000000">...</text>
<polygon fill="#ffffff" stroke="transparent" points="207.5,-1114.7725 207.5,-1133.7725 266.5,-1133.7725 266.5,-1114.7725 207.5,-1114.7725"/>
<polygon fill="none" stroke="#000000" points="207.5,-1114.7725 207.5,-1133.7725 266.5,-1133.7725 266.5,-1114.7725 207.5,-1114.7725"/>
<text text-anchor="start" x="210.5" y="-1120.8725" font-family="Helvetica,sans-Serif" font-size="11.00" fill="#000000">&lt; 1</text>
<polygon fill="#ffffff" stroke="transparent" points="266.5,-1114.7725 266.5,-1133.7725 323.5,-1133.7725 323.5,-1114.7725 266.5,-1114.7725"/>
<polygon fill="none" stroke="#000000" points="266.5,-1114.7725 266.5,-1133.7725 323.5,-1133.7725 323.5,-1114.7725 266.5,-1114.7725"/>
<text text-anchor="start" x="288.1105" y="-1120.8725" font-family="Helvetica,sans-Serif" font-size="11.00" fill="#000000">0 rows</text>
<polygon fill="#ffffff" stroke="transparent" points="323.5,-1114.7725 323.5,-1133.7725 354.5,-1133.7725 354.5,-1114.7725 323.5,-1114.7725"/>
<polygon fill="none" stroke="#000000" points="323.5,-1114.7725 323.5,-1133.7725 354.5,-1133.7725 354.5,-1114.7725 323.5,-1114.7725"/>
<text text-anchor="start" x="345.3862" y="-1120.8725" font-family="Helvetica,sans-Serif" font-size="11.00" fill="#000000"> &#160;</text>
</a>
</g>
</g>
<!-- AspNetUserLogins&#45;&gt;AspNetUsers -->
<g id="edge2" class="edge">
<title>AspNetUserLogins:w&#45;&gt;AspNetUsers:e</title>
<path fill="none" stroke="#000000" d="M193.0773,-1140.4802C87.2718,-1106.0438 68.8053,-693.412 65.6413,-569.6449"/>
<polygon fill="#000000" stroke="#000000" points="199.5992,-1141.5167 206.9349,-1146.3278 203.5496,-1142.1446 207.5,-1142.7725 207.5,-1142.7725 207.5,-1142.7725 203.5496,-1142.1446 208.0651,-1139.2171 199.5992,-1141.5167 199.5992,-1141.5167"/>
<ellipse fill="none" stroke="#000000" cx="196.4388" cy="-1141.0144" rx="3.2" ry="3.2"/>
</g>
<!-- AspNetUserRoles -->
<g id="node4" class="node">
<title>AspNetUserRoles</title>
<g id="a_node4"><a xlink:href="../../tables/AspNetUserRoles.html" xlink:title="AspNetUserRoles" target="_top">
<polygon fill="#ffffff" stroke="transparent" points="210.5,-1033.2725 210.5,-1094.2725 350.5,-1094.2725 350.5,-1033.2725 210.5,-1033.2725"/>
<polygon fill="#f5f5f5" stroke="transparent" points="210.5,-1070.7725 210.5,-1093.7725 350.5,-1093.7725 350.5,-1070.7725 210.5,-1070.7725"/>
<polygon fill="none" stroke="#000000" points="210.5,-1070.7725 210.5,-1093.7725 350.5,-1093.7725 350.5,-1070.7725 210.5,-1070.7725"/>
<text text-anchor="start" x="215.5" y="-1079.3725" font-family="Helvetica,sans-Serif" font-weight="bold" font-size="11.00" fill="#000000">AspNetUserRoles</text>
<text text-anchor="start" x="316.0219" y="-1078.8725" font-family="Helvetica,sans-Serif" font-size="11.00" fill="#000000">[table]</text>
<polygon fill="none" stroke="#000000" points="210.5,-1051.7725 210.5,-1070.7725 350.5,-1070.7725 350.5,-1051.7725 210.5,-1051.7725"/>
<text text-anchor="start" x="213.5" y="-1057.8725" font-family="Helvetica,sans-Serif" font-size="11.00" fill="#000000">...</text>
<polygon fill="#ffffff" stroke="transparent" points="210.5,-1032.7725 210.5,-1051.7725 268.5,-1051.7725 268.5,-1032.7725 210.5,-1032.7725"/>
<polygon fill="none" stroke="#000000" points="210.5,-1032.7725 210.5,-1051.7725 268.5,-1051.7725 268.5,-1032.7725 210.5,-1032.7725"/>
<text text-anchor="start" x="213.5" y="-1038.8725" font-family="Helvetica,sans-Serif" font-size="11.00" fill="#000000">&lt; 2</text>
<polygon fill="#ffffff" stroke="transparent" points="268.5,-1032.7725 268.5,-1051.7725 319.5,-1051.7725 319.5,-1032.7725 268.5,-1032.7725"/>
<polygon fill="none" stroke="#000000" points="268.5,-1032.7725 268.5,-1051.7725 319.5,-1051.7725 319.5,-1032.7725 268.5,-1032.7725"/>
<text text-anchor="start" x="289.6105" y="-1038.8725" font-family="Helvetica,sans-Serif" font-size="11.00" fill="#000000">1 row</text>
<polygon fill="#ffffff" stroke="transparent" points="319.5,-1032.7725 319.5,-1051.7725 350.5,-1051.7725 350.5,-1032.7725 319.5,-1032.7725"/>
<polygon fill="none" stroke="#000000" points="319.5,-1032.7725 319.5,-1051.7725 350.5,-1051.7725 350.5,-1032.7725 319.5,-1032.7725"/>
<text text-anchor="start" x="341.3862" y="-1038.8725" font-family="Helvetica,sans-Serif" font-size="11.00" fill="#000000"> &#160;</text>
</a>
</g>
</g>
<!-- AspNetUserRoles&#45;&gt;AspNetUsers -->
<g id="edge3" class="edge">
<title>AspNetUserRoles:w&#45;&gt;AspNetUsers:e</title>
<path fill="none" stroke="#000000" d="M196.2801,-1058.2694C105.0489,-1025.5243 74.5614,-680.706 67.0519,-569.2848"/>
<polygon fill="#000000" stroke="#000000" points="202.6211,-1059.3855 209.8759,-1064.3179 206.5606,-1060.079 210.5,-1060.7725 210.5,-1060.7725 210.5,-1060.7725 206.5606,-1060.079 211.1241,-1057.227 202.6211,-1059.3855 202.6211,-1059.3855"/>
<ellipse fill="none" stroke="#000000" cx="199.4696" cy="-1058.8307" rx="3.2" ry="3.2"/>
</g>
<!-- AspNetUserTokens -->
<g id="node5" class="node">
<title>AspNetUserTokens</title>
<g id="a_node5"><a xlink:href="../../tables/AspNetUserTokens.html" xlink:title="AspNetUserTokens" target="_top">
<polygon fill="#ffffff" stroke="transparent" points="206,-951.2725 206,-1012.2725 355,-1012.2725 355,-951.2725 206,-951.2725"/>
<polygon fill="#f5f5f5" stroke="transparent" points="206.5,-988.7725 206.5,-1011.7725 355.5,-1011.7725 355.5,-988.7725 206.5,-988.7725"/>
<polygon fill="none" stroke="#000000" points="206.5,-988.7725 206.5,-1011.7725 355.5,-1011.7725 355.5,-988.7725 206.5,-988.7725"/>
<text text-anchor="start" x="211.5" y="-997.3725" font-family="Helvetica,sans-Serif" font-weight="bold" font-size="11.00" fill="#000000">AspNetUserTokens</text>
<text text-anchor="start" x="321.0219" y="-996.8725" font-family="Helvetica,sans-Serif" font-size="11.00" fill="#000000">[table]</text>
<polygon fill="none" stroke="#000000" points="206.5,-969.7725 206.5,-988.7725 355.5,-988.7725 355.5,-969.7725 206.5,-969.7725"/>
<text text-anchor="start" x="209.5" y="-975.8725" font-family="Helvetica,sans-Serif" font-size="11.00" fill="#000000">...</text>
<polygon fill="#ffffff" stroke="transparent" points="206.5,-950.7725 206.5,-969.7725 266.5,-969.7725 266.5,-950.7725 206.5,-950.7725"/>
<polygon fill="none" stroke="#000000" points="206.5,-950.7725 206.5,-969.7725 266.5,-969.7725 266.5,-950.7725 206.5,-950.7725"/>
<text text-anchor="start" x="209.5" y="-956.8725" font-family="Helvetica,sans-Serif" font-size="11.00" fill="#000000">&lt; 1</text>
<polygon fill="#ffffff" stroke="transparent" points="266.5,-950.7725 266.5,-969.7725 323.5,-969.7725 323.5,-950.7725 266.5,-950.7725"/>
<polygon fill="none" stroke="#000000" points="266.5,-950.7725 266.5,-969.7725 323.5,-969.7725 323.5,-950.7725 266.5,-950.7725"/>
<text text-anchor="start" x="288.1105" y="-956.8725" font-family="Helvetica,sans-Serif" font-size="11.00" fill="#000000">0 rows</text>
<polygon fill="#ffffff" stroke="transparent" points="323.5,-950.7725 323.5,-969.7725 355.5,-969.7725 355.5,-950.7725 323.5,-950.7725"/>
<polygon fill="none" stroke="#000000" points="323.5,-950.7725 323.5,-969.7725 355.5,-969.7725 355.5,-950.7725 323.5,-950.7725"/>
<text text-anchor="start" x="346.3862" y="-956.8725" font-family="Helvetica,sans-Serif" font-size="11.00" fill="#000000"> &#160;</text>
</a>
</g>
</g>
<!-- AspNetUserTokens&#45;&gt;AspNetUsers -->
<g id="edge4" class="edge">
<title>AspNetUserTokens:w&#45;&gt;AspNetUsers:e</title>
<path fill="none" stroke="#000000" d="M192.3582,-975.9335C116.2191,-944.9204 79.3313,-668.3527 68.5032,-569.6124"/>
<polygon fill="#000000" stroke="#000000" points="198.6565,-977.1979 205.7914,-982.302 202.5782,-977.9852 206.5,-978.7725 206.5,-978.7725 206.5,-978.7725 202.5782,-977.9852 207.2086,-975.2429 198.6565,-977.1979 198.6565,-977.1979"/>
<ellipse fill="none" stroke="#000000" cx="195.5191" cy="-976.568" rx="3.2" ry="3.2"/>
</g>
<!-- Competencies -->
<g id="node6" class="node">
<title>Competencies</title>
<g id="a_node6"><a xlink:href="../../tables/Competencies.html" xlink:title="Competencies" target="_top">
<polygon fill="#ffffff" stroke="transparent" points="220,-790.2725 220,-851.2725 341,-851.2725 341,-790.2725 220,-790.2725"/>
<polygon fill="#f5f5f5" stroke="transparent" points="220.5,-827.7725 220.5,-850.7725 341.5,-850.7725 341.5,-827.7725 220.5,-827.7725"/>
<polygon fill="none" stroke="#000000" points="220.5,-827.7725 220.5,-850.7725 341.5,-850.7725 341.5,-827.7725 220.5,-827.7725"/>
<text text-anchor="start" x="225.5" y="-836.3725" font-family="Helvetica,sans-Serif" font-weight="bold" font-size="11.00" fill="#000000">Competencies</text>
<text text-anchor="start" x="307.0219" y="-835.8725" font-family="Helvetica,sans-Serif" font-size="11.00" fill="#000000">[table]</text>
<polygon fill="none" stroke="#000000" points="220.5,-808.7725 220.5,-827.7725 341.5,-827.7725 341.5,-808.7725 220.5,-808.7725"/>
<text text-anchor="start" x="223.5" y="-814.8725" font-family="Helvetica,sans-Serif" font-size="11.00" fill="#000000">...</text>
<polygon fill="#ffffff" stroke="transparent" points="220.5,-789.7725 220.5,-808.7725 261.5,-808.7725 261.5,-789.7725 220.5,-789.7725"/>
<polygon fill="none" stroke="#000000" points="220.5,-789.7725 220.5,-808.7725 261.5,-808.7725 261.5,-789.7725 220.5,-789.7725"/>
<text text-anchor="start" x="223.5" y="-795.8725" font-family="Helvetica,sans-Serif" font-size="11.00" fill="#000000">&lt; 2</text>
<polygon fill="#ffffff" stroke="transparent" points="261.5,-789.7725 261.5,-808.7725 309.5,-808.7725 309.5,-789.7725 261.5,-789.7725"/>
<polygon fill="none" stroke="#000000" points="261.5,-789.7725 261.5,-808.7725 309.5,-808.7725 309.5,-789.7725 261.5,-789.7725"/>
<text text-anchor="start" x="274.1105" y="-795.8725" font-family="Helvetica,sans-Serif" font-size="11.00" fill="#000000">5 rows</text>
<polygon fill="#ffffff" stroke="transparent" points="309.5,-789.7725 309.5,-808.7725 341.5,-808.7725 341.5,-789.7725 309.5,-789.7725"/>
<polygon fill="none" stroke="#000000" points="309.5,-789.7725 309.5,-808.7725 341.5,-808.7725 341.5,-789.7725 309.5,-789.7725"/>
<text text-anchor="start" x="322.9053" y="-795.8725" font-family="Helvetica,sans-Serif" font-size="11.00" fill="#000000">4 &gt;</text>
</a>
</g>
</g>
<!-- Competencies&#45;&gt;AspNetUsers -->
<g id="edge5" class="edge">
<title>Competencies:w&#45;&gt;AspNetUsers:e</title>
<path fill="none" stroke="#000000" d="M206.0655,-816.1773C107.049,-798.1499 77.02,-640.7246 68.3386,-569.4626"/>
<polygon fill="#000000" stroke="#000000" points="212.5484,-816.8937 220.1046,-821.3507 216.5242,-817.3331 220.5,-817.7725 220.5,-817.7725 220.5,-817.7725 216.5242,-817.3331 220.8954,-814.1942 212.5484,-816.8937 212.5484,-816.8937"/>
<ellipse fill="none" stroke="#000000" cx="209.3678" cy="-816.5422" rx="3.2" ry="3.2"/>
</g>
<!-- Competencies&#45;&gt;AspNetUsers -->
<g id="edge6" class="edge">
<title>Competencies:w&#45;&gt;AspNetUsers:e</title>
<path fill="none" stroke="#000000" d="M205.9535,-817.4701C103.8744,-807.946 75.1745,-642.7122 67.5725,-569.3035"/>
<polygon fill="#000000" stroke="#000000" points="212.5017,-817.6062 220.4252,-821.3717 216.5009,-817.6893 220.5,-817.7725 220.5,-817.7725 220.5,-817.7725 216.5009,-817.6893 220.5748,-814.1732 212.5017,-817.6062 212.5017,-817.6062"/>
<ellipse fill="none" stroke="#000000" cx="209.3024" cy="-817.5396" rx="3.2" ry="3.2"/>
</g>
<!-- CompetencyLevelDescriptions -->
<g id="node7" class="node">
<title>CompetencyLevelDescriptions</title>
<g id="a_node7"><a xlink:href="../../tables/CompetencyLevelDescriptions.html" xlink:title="CompetencyLevelDescriptions" target="_top">
<polygon fill="#ffffff" stroke="transparent" points="447,-935.2725 447,-996.2725 661,-996.2725 661,-935.2725 447,-935.2725"/>
<polygon fill="#f5f5f5" stroke="transparent" points="447,-972.7725 447,-995.7725 661,-995.7725 661,-972.7725 447,-972.7725"/>
<polygon fill="none" stroke="#000000" points="447,-972.7725 447,-995.7725 661,-995.7725 661,-972.7725 447,-972.7725"/>
<text text-anchor="start" x="452" y="-981.3725" font-family="Helvetica,sans-Serif" font-weight="bold" font-size="11.00" fill="#000000">CompetencyLevelDescriptions</text>
<text text-anchor="start" x="626.5219" y="-980.8725" font-family="Helvetica,sans-Serif" font-size="11.00" fill="#000000">[table]</text>
<polygon fill="none" stroke="#000000" points="447,-953.7725 447,-972.7725 661,-972.7725 661,-953.7725 447,-953.7725"/>
<text text-anchor="start" x="450" y="-959.8725" font-family="Helvetica,sans-Serif" font-size="11.00" fill="#000000">...</text>
<polygon fill="#ffffff" stroke="transparent" points="447,-934.7725 447,-953.7725 536,-953.7725 536,-934.7725 447,-934.7725"/>
<polygon fill="none" stroke="#000000" points="447,-934.7725 447,-953.7725 536,-953.7725 536,-934.7725 447,-934.7725"/>
<text text-anchor="start" x="450" y="-940.8725" font-family="Helvetica,sans-Serif" font-size="11.00" fill="#000000">&lt; 3</text>
<polygon fill="#ffffff" stroke="transparent" points="536,-934.7725 536,-953.7725 614,-953.7725 614,-934.7725 536,-934.7725"/>
<polygon fill="none" stroke="#000000" points="536,-934.7725 536,-953.7725 614,-953.7725 614,-934.7725 536,-934.7725"/>
<text text-anchor="start" x="572.4956" y="-940.8725" font-family="Helvetica,sans-Serif" font-size="11.00" fill="#000000">20 rows</text>
<polygon fill="#ffffff" stroke="transparent" points="614,-934.7725 614,-953.7725 661,-953.7725 661,-934.7725 614,-934.7725"/>
<polygon fill="none" stroke="#000000" points="614,-934.7725 614,-953.7725 661,-953.7725 661,-934.7725 614,-934.7725"/>
<text text-anchor="start" x="651.8862" y="-940.8725" font-family="Helvetica,sans-Serif" font-size="11.00" fill="#000000"> &#160;</text>
</a>
</g>
</g>
<!-- CompetencyLevelDescriptions&#45;&gt;AspNetUsers -->
<g id="edge8" class="edge">
<title>CompetencyLevelDescriptions:w&#45;&gt;AspNetUsers:e</title>
<path fill="none" stroke="#000000" d="M433.2126,-957.3359C420.8786,-950.3129 415.3846,-940.4139 398,-934.7725 296.5188,-901.8412 240.7564,-958.8262 163,-885.7725 116.217,-841.8189 82.7761,-649.1058 70.339,-569.3898"/>
<polygon fill="#000000" stroke="#000000" points="439.5577,-959.8378 445.6794,-966.1215 443.2788,-961.3051 447,-962.7725 447,-962.7725 447,-962.7725 443.2788,-961.3051 448.3206,-959.4234 439.5577,-959.8378 439.5577,-959.8378"/>
<ellipse fill="none" stroke="#000000" cx="436.5807" cy="-958.664" rx="3.2" ry="3.2"/>
</g>
<!-- CompetencyLevelDescriptions&#45;&gt;AspNetUsers -->
<g id="edge9" class="edge">
<title>CompetencyLevelDescriptions:w&#45;&gt;AspNetUsers:e</title>
<path fill="none" stroke="#000000" d="M432.4658,-964.418C420.6494,-962.9106 415.0298,-953.2987 398,-947.7725 296.5188,-914.8412 240.7564,-971.8262 163,-898.7725 114.9288,-853.6086 80.9446,-651.3805 69.3596,-569.3675"/>
<polygon fill="#000000" stroke="#000000" points="439.0508,-963.6725 447.405,-966.3496 443.0254,-963.2225 447,-962.7725 447,-962.7725 447,-962.7725 443.0254,-963.2225 446.595,-959.1953 439.0508,-963.6725 439.0508,-963.6725"/>
<ellipse fill="none" stroke="#000000" cx="435.8711" cy="-964.0325" rx="3.2" ry="3.2"/>
</g>
<!-- CompetencyLevelDescriptions&#45;&gt;Competencies -->
<g id="edge7" class="edge">
<title>CompetencyLevelDescriptions:w&#45;&gt;Competencies:e</title>
<path fill="none" stroke="#000000" d="M433.5242,-957.2653C400.911,-930.7794 376.6789,-817.7725 341.5,-817.7725"/>
<polygon fill="#000000" stroke="#000000" points="439.5945,-959.7461 445.6381,-966.1049 443.2973,-961.2593 447,-962.7725 447,-962.7725 447,-962.7725 443.2973,-961.2593 448.3619,-959.44 439.5945,-959.7461 439.5945,-959.7461"/>
<ellipse fill="none" stroke="#000000" cx="436.6323" cy="-958.5355" rx="3.2" ry="3.2"/>
</g>
<!-- CompetencyTechnicalCareer -->
<g id="node8" class="node">
<title>CompetencyTechnicalCareer</title>
<g id="a_node8"><a xlink:href="../../tables/CompetencyTechnicalCareer.html" xlink:title="CompetencyTechnicalCareer" target="_top">
<polygon fill="#ffffff" stroke="transparent" points="452,-679.7725 452,-765.7725 656,-765.7725 656,-679.7725 452,-679.7725"/>
<polygon fill="#f5f5f5" stroke="transparent" points="452,-742.7725 452,-765.7725 656,-765.7725 656,-742.7725 452,-742.7725"/>
<polygon fill="none" stroke="#000000" points="452,-742.7725 452,-765.7725 656,-765.7725 656,-742.7725 452,-742.7725"/>
<text text-anchor="start" x="457" y="-751.3725" font-family="Helvetica,sans-Serif" font-weight="bold" font-size="11.00" fill="#000000">CompetencyTechnicalCareer</text>
<text text-anchor="start" x="621.5219" y="-750.8725" font-family="Helvetica,sans-Serif" font-size="11.00" fill="#000000">[table]</text>
<polygon fill="none" stroke="#000000" points="452,-720.7725 452,-742.7725 656,-742.7725 656,-720.7725 452,-720.7725"/>
<image xlink:href="../../images/primaryKeys.png" width="11px" height="12px" preserveAspectRatio="xMinYMin meet" x="457" y="-737.772"/>
<text text-anchor="start" x="481" y="-727.8725" font-family="Helvetica,sans-Serif" font-size="11.00" fill="#000000">CompetenciesId</text>
<polygon fill="none" stroke="#000000" points="452,-698.7725 452,-720.7725 656,-720.7725 656,-698.7725 452,-698.7725"/>
<image xlink:href="../../images/primaryKeys.png" width="11px" height="12px" preserveAspectRatio="xMinYMin meet" x="457" y="-715.772"/>
<text text-anchor="start" x="481" y="-705.8725" font-family="Helvetica,sans-Serif" font-size="11.00" fill="#000000">TechnicalCareersId</text>
<polygon fill="#ffffff" stroke="transparent" points="452,-679.7725 452,-698.7725 539,-698.7725 539,-679.7725 452,-679.7725"/>
<polygon fill="none" stroke="#000000" points="452,-679.7725 452,-698.7725 539,-698.7725 539,-679.7725 452,-679.7725"/>
<text text-anchor="start" x="455" y="-685.8725" font-family="Helvetica,sans-Serif" font-size="11.00" fill="#000000">&lt; 2</text>
<polygon fill="#ffffff" stroke="transparent" points="539,-679.7725 539,-698.7725 610,-698.7725 610,-679.7725 539,-679.7725"/>
<polygon fill="none" stroke="#000000" points="539,-679.7725 539,-698.7725 610,-698.7725 610,-679.7725 539,-679.7725"/>
<text text-anchor="start" x="574.6105" y="-685.8725" font-family="Helvetica,sans-Serif" font-size="11.00" fill="#000000">0 rows</text>
<polygon fill="#ffffff" stroke="transparent" points="610,-679.7725 610,-698.7725 656,-698.7725 656,-679.7725 610,-679.7725"/>
<polygon fill="none" stroke="#000000" points="610,-679.7725 610,-698.7725 656,-698.7725 656,-679.7725 610,-679.7725"/>
<text text-anchor="start" x="646.8862" y="-685.8725" font-family="Helvetica,sans-Serif" font-size="11.00" fill="#000000"> &#160;</text>
</a>
</g>
</g>
<!-- CompetencyTechnicalCareer&#45;&gt;Competencies -->
<g id="edge10" class="edge">
<title>CompetencyTechnicalCareer:w&#45;&gt;Competencies:e</title>
<path fill="none" stroke="#000000" d="M437.5472,-733.5687C391.6052,-745.9186 398.3841,-817.7725 341.5,-817.7725"/>
<polygon fill="#000000" stroke="#000000" points="444.0611,-732.7592 452.444,-735.345 448.0305,-732.2658 452,-731.7725 452,-731.7725 452,-731.7725 448.0305,-732.2658 451.556,-728.1999 444.0611,-732.7592 444.0611,-732.7592"/>
<ellipse fill="none" stroke="#000000" cx="440.8855" cy="-733.1539" rx="3.2" ry="3.2"/>
</g>
<!-- TechnicalCareers -->
<g id="node9" class="node">
<title>TechnicalCareers</title>
<g id="a_node9"><a xlink:href="../../tables/TechnicalCareers.html" xlink:title="TechnicalCareers" target="_top">
<polygon fill="#ffffff" stroke="transparent" points="171,-502.7725 171,-702.7725 390,-702.7725 390,-502.7725 171,-502.7725"/>
<polygon fill="#f5f5f5" stroke="transparent" points="173.5,-677.7725 173.5,-700.7725 388.5,-700.7725 388.5,-677.7725 173.5,-677.7725"/>
<polygon fill="none" stroke="#000000" points="173.5,-677.7725 173.5,-700.7725 388.5,-700.7725 388.5,-677.7725 173.5,-677.7725"/>
<text text-anchor="start" x="178.5" y="-686.3725" font-family="Helvetica,sans-Serif" font-weight="bold" font-size="11.00" fill="#000000">TechnicalCareers</text>
<text text-anchor="start" x="353.5437" y="-685.8725" font-family="Helvetica,sans-Serif" font-size="11.00" fill="#000000">[table]</text>
<polygon fill="none" stroke="#000000" points="173.5,-655.7725 173.5,-677.7725 294.5,-677.7725 294.5,-655.7725 173.5,-655.7725"/>
<image xlink:href="../../images/primaryKeys.png" width="11px" height="12px" preserveAspectRatio="xMinYMin meet" x="178.5" y="-672.772"/>
<text text-anchor="start" x="193.5" y="-662.8725" font-family="Helvetica,sans-Serif" font-size="11.00" fill="#000000">Id</text>
<polygon fill="none" stroke="#000000" points="294.5,-655.7725 294.5,-677.7725 388.5,-677.7725 388.5,-655.7725 294.5,-655.7725"/>
<text text-anchor="start" x="297.4758" y="-663.4725" font-family="Helvetica,sans-Serif" font-size="11.00" fill="#000000">uuid[2147483647]</text>
<polygon fill="none" stroke="#000000" points="173.5,-633.7725 173.5,-655.7725 294.5,-655.7725 294.5,-633.7725 173.5,-633.7725"/>
<text text-anchor="start" x="193.5" y="-640.8725" font-family="Helvetica,sans-Serif" font-size="11.00" fill="#000000">Name</text>
<polygon fill="none" stroke="#000000" points="294.5,-633.7725 294.5,-655.7725 388.5,-655.7725 388.5,-633.7725 294.5,-633.7725"/>
<text text-anchor="start" x="297.5" y="-641.4725" font-family="Helvetica,sans-Serif" font-size="11.00" fill="#000000">text[2147483647]</text>
<polygon fill="none" stroke="#000000" points="173.5,-611.7725 173.5,-633.7725 294.5,-633.7725 294.5,-611.7725 173.5,-611.7725"/>
<text text-anchor="start" x="193.5" y="-618.8725" font-family="Helvetica,sans-Serif" font-size="11.00" fill="#000000">IsActive</text>
<polygon fill="none" stroke="#000000" points="294.5,-611.7725 294.5,-633.7725 388.5,-633.7725 388.5,-611.7725 294.5,-611.7725"/>
<text text-anchor="start" x="297.5" y="-619.4725" font-family="Helvetica,sans-Serif" font-size="11.00" fill="#000000">bool[1]</text>
<polygon fill="none" stroke="#000000" points="173.5,-589.7725 173.5,-611.7725 294.5,-611.7725 294.5,-589.7725 173.5,-589.7725"/>
<text text-anchor="start" x="193.5" y="-596.8725" font-family="Helvetica,sans-Serif" font-size="11.00" fill="#000000">CreatedAt</text>
<polygon fill="none" stroke="#000000" points="294.5,-589.7725 294.5,-611.7725 388.5,-611.7725 388.5,-589.7725 294.5,-589.7725"/>
<text text-anchor="start" x="297.5" y="-597.4725" font-family="Helvetica,sans-Serif" font-size="11.00" fill="#000000">timestamptz[35,6]</text>
<polygon fill="none" stroke="#000000" points="173.5,-567.7725 173.5,-589.7725 294.5,-589.7725 294.5,-567.7725 173.5,-567.7725"/>
<text text-anchor="start" x="193.5" y="-574.8725" font-family="Helvetica,sans-Serif" font-size="11.00" fill="#000000">UpdatedAt</text>
<polygon fill="none" stroke="#000000" points="294.5,-567.7725 294.5,-589.7725 388.5,-589.7725 388.5,-567.7725 294.5,-567.7725"/>
<text text-anchor="start" x="297.5" y="-575.4725" font-family="Helvetica,sans-Serif" font-size="11.00" fill="#000000">timestamptz[35,6]</text>
<polygon fill="#ffffff" stroke="transparent" points="173.5,-545.7725 173.5,-567.7725 294.5,-567.7725 294.5,-545.7725 173.5,-545.7725"/>
<polygon fill="none" stroke="#000000" points="173.5,-545.7725 173.5,-567.7725 294.5,-567.7725 294.5,-545.7725 173.5,-545.7725"/>
<image xlink:href="../../images/foreignKeys.png" width="11px" height="12px" preserveAspectRatio="xMinYMin meet" x="178.5" y="-562.772"/>
<text text-anchor="start" x="193.5" y="-552.8725" font-family="Helvetica,sans-Serif" font-size="11.00" fill="#000000">CreatedByUserId</text>
<polygon fill="none" stroke="#000000" points="294.5,-545.7725 294.5,-567.7725 388.5,-567.7725 388.5,-545.7725 294.5,-545.7725"/>
<text text-anchor="start" x="297.5" y="-553.4725" font-family="Helvetica,sans-Serif" font-size="11.00" fill="#000000">text[2147483647]</text>
<polygon fill="#ffffff" stroke="transparent" points="173.5,-523.7725 173.5,-545.7725 294.5,-545.7725 294.5,-523.7725 173.5,-523.7725"/>
<polygon fill="none" stroke="#000000" points="173.5,-523.7725 173.5,-545.7725 294.5,-545.7725 294.5,-523.7725 173.5,-523.7725"/>
<image xlink:href="../../images/foreignKeys.png" width="11px" height="12px" preserveAspectRatio="xMinYMin meet" x="178.5" y="-540.772"/>
<text text-anchor="start" x="193.5" y="-530.8725" font-family="Helvetica,sans-Serif" font-size="11.00" fill="#000000">UpdatedByUserId</text>
<polygon fill="none" stroke="#000000" points="294.5,-523.7725 294.5,-545.7725 388.5,-545.7725 388.5,-523.7725 294.5,-523.7725"/>
<text text-anchor="start" x="297.5" y="-531.4725" font-family="Helvetica,sans-Serif" font-size="11.00" fill="#000000">text[2147483647]</text>
<polygon fill="#ffffff" stroke="transparent" points="173.5,-504.7725 173.5,-523.7725 225.5,-523.7725 225.5,-504.7725 173.5,-504.7725"/>
<polygon fill="none" stroke="#000000" points="173.5,-504.7725 173.5,-523.7725 225.5,-523.7725 225.5,-504.7725 173.5,-504.7725"/>
<text text-anchor="start" x="176.5" y="-510.8725" font-family="Helvetica,sans-Serif" font-size="11.00" fill="#000000">&lt; 2</text>
<polygon fill="#ffffff" stroke="transparent" points="225.5,-504.7725 225.5,-523.7725 294.5,-523.7725 294.5,-504.7725 225.5,-504.7725"/>
<polygon fill="none" stroke="#000000" points="225.5,-504.7725 225.5,-523.7725 294.5,-523.7725 294.5,-504.7725 225.5,-504.7725"/>
<text text-anchor="start" x="259.1105" y="-510.8725" font-family="Helvetica,sans-Serif" font-size="11.00" fill="#000000">6 rows</text>
<polygon fill="#ffffff" stroke="transparent" points="294.5,-504.7725 294.5,-523.7725 388.5,-523.7725 388.5,-504.7725 294.5,-504.7725"/>
<polygon fill="none" stroke="#000000" points="294.5,-504.7725 294.5,-523.7725 388.5,-523.7725 388.5,-504.7725 294.5,-504.7725"/>
<text text-anchor="start" x="369.9053" y="-510.8725" font-family="Helvetica,sans-Serif" font-size="11.00" fill="#000000">6 &gt;</text>
<polygon fill="none" stroke="#000000" stroke-width="2" points="172,-503.7725 172,-701.7725 389,-701.7725 389,-503.7725 172,-503.7725"/>
</a>
</g>
</g>
<!-- CompetencyTechnicalCareer&#45;&gt;TechnicalCareers -->
<g id="edge11" class="edge">
<title>CompetencyTechnicalCareer:w&#45;&gt;TechnicalCareers:e</title>
<path fill="none" stroke="#000000" d="M437.7375,-706.5405C418.3908,-696.5403 416.8591,-666.7725 388.5,-666.7725"/>
<polygon fill="#000000" stroke="#000000" points="444.1978,-708.0044 451.2044,-713.2834 448.0989,-708.8884 452,-709.7725 452,-709.7725 452,-709.7725 448.0989,-708.8884 452.7956,-706.2615 444.1978,-708.0044 444.1978,-708.0044"/>
<ellipse fill="none" stroke="#000000" cx="441.0769" cy="-707.2971" rx="3.2" ry="3.2"/>
</g>
<!-- TechnicalCareers&#45;&gt;AspNetUsers -->
<g id="edge52" class="edge">
<title>TechnicalCareers:w&#45;&gt;AspNetUsers:e</title>
<path fill="none" stroke="#000000" d="M159.0434,-556.198C149.4142,-555.4669 139.6614,-554.0903 130.2659,-552.3733"/>
<polygon fill="#000000" stroke="#000000" points="165.5063,-556.4547 173.357,-560.3696 169.5032,-556.6136 173.5,-556.7725 173.5,-556.7725 173.5,-556.7725 169.5032,-556.6136 173.643,-553.1753 165.5063,-556.4547 165.5063,-556.4547"/>
<ellipse fill="none" stroke="#000000" cx="162.3088" cy="-556.3276" rx="3.2" ry="3.2"/>
</g>
<!-- TechnicalCareers&#45;&gt;AspNetUsers -->
<g id="edge53" class="edge">
<title>TechnicalCareers:w&#45;&gt;AspNetUsers:e</title>
<path fill="none" stroke="#000000" d="M159.0789,-534.7725C149.4379,-534.7725 139.6107,-534.7725 130.1195,-534.7725"/>
<polygon fill="#000000" stroke="#000000" points="165.5,-534.7725 173.5,-538.3725 169.5,-534.7725 173.5,-534.7725 173.5,-534.7725 173.5,-534.7725 169.5,-534.7725 173.5,-531.1725 165.5,-534.7725 165.5,-534.7725"/>
<ellipse fill="none" stroke="#000000" cx="162.3" cy="-534.7725" rx="3.2" ry="3.2"/>
</g>
<!-- Coordinators -->
<g id="node10" class="node">
<title>Coordinators</title>
<g id="a_node10"><a xlink:href="../../tables/Coordinators.html" xlink:title="Coordinators" target="_top">
<polygon fill="#ffffff" stroke="transparent" points="497,-597.2725 497,-658.2725 611,-658.2725 611,-597.2725 497,-597.2725"/>
<polygon fill="#f5f5f5" stroke="transparent" points="497,-634.7725 497,-657.7725 611,-657.7725 611,-634.7725 497,-634.7725"/>
<polygon fill="none" stroke="#000000" points="497,-634.7725 497,-657.7725 611,-657.7725 611,-634.7725 497,-634.7725"/>
<text text-anchor="start" x="502" y="-643.3725" font-family="Helvetica,sans-Serif" font-weight="bold" font-size="11.00" fill="#000000">Coordinators</text>
<text text-anchor="start" x="576.5219" y="-642.8725" font-family="Helvetica,sans-Serif" font-size="11.00" fill="#000000">[table]</text>
<polygon fill="none" stroke="#000000" points="497,-615.7725 497,-634.7725 611,-634.7725 611,-615.7725 497,-615.7725"/>
<text text-anchor="start" x="500" y="-621.8725" font-family="Helvetica,sans-Serif" font-size="11.00" fill="#000000">...</text>
<polygon fill="#ffffff" stroke="transparent" points="497,-596.7725 497,-615.7725 539,-615.7725 539,-596.7725 497,-596.7725"/>
<polygon fill="none" stroke="#000000" points="497,-596.7725 497,-615.7725 539,-615.7725 539,-596.7725 497,-596.7725"/>
<text text-anchor="start" x="500" y="-602.8725" font-family="Helvetica,sans-Serif" font-size="11.00" fill="#000000">&lt; 2</text>
<polygon fill="#ffffff" stroke="transparent" points="539,-596.7725 539,-615.7725 588,-615.7725 588,-596.7725 539,-596.7725"/>
<polygon fill="none" stroke="#000000" points="539,-596.7725 539,-615.7725 588,-615.7725 588,-596.7725 539,-596.7725"/>
<text text-anchor="start" x="552.6105" y="-602.8725" font-family="Helvetica,sans-Serif" font-size="11.00" fill="#000000">0 rows</text>
<polygon fill="#ffffff" stroke="transparent" points="588,-596.7725 588,-615.7725 611,-615.7725 611,-596.7725 588,-596.7725"/>
<polygon fill="none" stroke="#000000" points="588,-596.7725 588,-615.7725 611,-615.7725 611,-596.7725 588,-596.7725"/>
<text text-anchor="start" x="601.8862" y="-602.8725" font-family="Helvetica,sans-Serif" font-size="11.00" fill="#000000"> &#160;</text>
</a>
</g>
</g>
<!-- Coordinators&#45;&gt;AspNetUsers -->
<g id="edge13" class="edge">
<title>Coordinators:w&#45;&gt;AspNetUsers:e</title>
<path fill="none" stroke="#000000" d="M478.5886,-644.9137C461.9773,-650.8047 445.139,-658.5816 431,-668.7725 411.1696,-683.0654 419.8638,-701.8406 398,-712.7725 351.291,-736.1269 207.9581,-739.3418 163,-712.7725 110.6121,-681.8122 84.3287,-611.7559 72.7564,-569.3488"/>
<polygon fill="#000000" stroke="#000000" points="486.8522,-637.9429 489.382,-645.5324 487.8641,-646.0384 485.3343,-638.4489 486.8522,-637.9429"/>
<polyline fill="none" stroke="#000000" points="488.876,-641.4847 485.0813,-642.7496 "/>
<ellipse fill="none" stroke="#000000" cx="482.0455" cy="-643.7615" rx="3.2" ry="3.2"/>
</g>
<!-- Coordinators&#45;&gt;TechnicalCareers -->
<g id="edge12" class="edge">
<title>Coordinators:w&#45;&gt;TechnicalCareers:e</title>
<path fill="none" stroke="#000000" d="M474.6059,-654.2969C447.5973,-661.2155 417.0257,-666.7725 388.5,-666.7725"/>
<polygon fill="#000000" stroke="#000000" points="481.068,-652.5484 489.7306,-653.934 484.9291,-651.5037 488.7903,-650.4589 488.7903,-650.4589 488.7903,-650.4589 484.9291,-651.5037 487.85,-646.9839 481.068,-652.5484 481.068,-652.5484"/>
<ellipse fill="none" stroke="#000000" cx="477.979" cy="-653.3842" rx="3.2" ry="3.2"/>
</g>
<!-- EvaluationPeriods -->
<g id="node11" class="node">
<title>EvaluationPeriods</title>
<g id="a_node11"><a xlink:href="../../tables/EvaluationPeriods.html" xlink:title="EvaluationPeriods" target="_top">
<polygon fill="#ffffff" stroke="transparent" points="209,-338.2725 209,-399.2725 352,-399.2725 352,-338.2725 209,-338.2725"/>
<polygon fill="#f5f5f5" stroke="transparent" points="209.5,-375.7725 209.5,-398.7725 352.5,-398.7725 352.5,-375.7725 209.5,-375.7725"/>
<polygon fill="none" stroke="#000000" points="209.5,-375.7725 209.5,-398.7725 352.5,-398.7725 352.5,-375.7725 209.5,-375.7725"/>
<text text-anchor="start" x="214.5" y="-384.3725" font-family="Helvetica,sans-Serif" font-weight="bold" font-size="11.00" fill="#000000">EvaluationPeriods</text>
<text text-anchor="start" x="318.0219" y="-383.8725" font-family="Helvetica,sans-Serif" font-size="11.00" fill="#000000">[table]</text>
<polygon fill="none" stroke="#000000" points="209.5,-356.7725 209.5,-375.7725 352.5,-375.7725 352.5,-356.7725 209.5,-356.7725"/>
<text text-anchor="start" x="212.5" y="-362.8725" font-family="Helvetica,sans-Serif" font-size="11.00" fill="#000000">...</text>
<polygon fill="#ffffff" stroke="transparent" points="209.5,-337.7725 209.5,-356.7725 261.5,-356.7725 261.5,-337.7725 209.5,-337.7725"/>
<polygon fill="none" stroke="#000000" points="209.5,-337.7725 209.5,-356.7725 261.5,-356.7725 261.5,-337.7725 209.5,-337.7725"/>
<text text-anchor="start" x="212.5" y="-343.8725" font-family="Helvetica,sans-Serif" font-size="11.00" fill="#000000">&lt; 2</text>
<polygon fill="#ffffff" stroke="transparent" points="261.5,-337.7725 261.5,-356.7725 315.5,-356.7725 315.5,-337.7725 261.5,-337.7725"/>
<polygon fill="none" stroke="#000000" points="261.5,-337.7725 261.5,-356.7725 315.5,-356.7725 315.5,-337.7725 261.5,-337.7725"/>
<text text-anchor="start" x="280.1105" y="-343.8725" font-family="Helvetica,sans-Serif" font-size="11.00" fill="#000000">0 rows</text>
<polygon fill="#ffffff" stroke="transparent" points="315.5,-337.7725 315.5,-356.7725 352.5,-356.7725 352.5,-337.7725 315.5,-337.7725"/>
<polygon fill="none" stroke="#000000" points="315.5,-337.7725 315.5,-356.7725 352.5,-356.7725 352.5,-337.7725 315.5,-337.7725"/>
<text text-anchor="start" x="333.9053" y="-343.8725" font-family="Helvetica,sans-Serif" font-size="11.00" fill="#000000">3 &gt;</text>
</a>
</g>
</g>
<!-- EvaluationPeriods&#45;&gt;AspNetUsers -->
<g id="edge14" class="edge">
<title>EvaluationPeriods:w&#45;&gt;AspNetUsers:e</title>
<path fill="none" stroke="#000000" d="M194.7694,-366.178C131.6711,-373.607 92.6482,-453.0044 75.3981,-500.1992"/>
<polygon fill="#000000" stroke="#000000" points="201.503,-365.9927 209.5991,-369.3711 205.5015,-365.8826 209.5,-365.7725 209.5,-365.7725 209.5,-365.7725 205.5015,-365.8826 209.4009,-362.1738 201.503,-365.9927 201.503,-365.9927"/>
<ellipse fill="none" stroke="#000000" cx="198.3042" cy="-366.0808" rx="3.2" ry="3.2"/>
</g>
<!-- EvaluationPeriods&#45;&gt;AspNetUsers -->
<g id="edge15" class="edge">
<title>EvaluationPeriods:w&#45;&gt;AspNetUsers:e</title>
<path fill="none" stroke="#000000" d="M195.1632,-367.974C135.4881,-382.1736 97.2832,-455.4452 78.6097,-500.0874"/>
<polygon fill="#000000" stroke="#000000" points="201.5927,-366.9867 210.0464,-369.3308 205.5463,-366.3796 209.5,-365.7725 209.5,-365.7725 209.5,-365.7725 205.5463,-366.3796 208.9536,-362.2142 201.5927,-366.9867 201.5927,-366.9867"/>
<ellipse fill="none" stroke="#000000" cx="198.4298" cy="-367.4724" rx="3.2" ry="3.2"/>
</g>
<!-- EvaluationPeriodTechnicalCareer -->
<g id="node12" class="node">
<title>EvaluationPeriodTechnicalCareer</title>
<g id="a_node12"><a xlink:href="../../tables/EvaluationPeriodTechnicalCareer.html" xlink:title="EvaluationPeriodTechnicalCareer" target="_top">
<polygon fill="#ffffff" stroke="transparent" points="439,-435.7725 439,-521.7725 669,-521.7725 669,-435.7725 439,-435.7725"/>
<polygon fill="#f5f5f5" stroke="transparent" points="439,-498.7725 439,-521.7725 669,-521.7725 669,-498.7725 439,-498.7725"/>
<polygon fill="none" stroke="#000000" points="439,-498.7725 439,-521.7725 669,-521.7725 669,-498.7725 439,-498.7725"/>
<text text-anchor="start" x="444" y="-507.3725" font-family="Helvetica,sans-Serif" font-weight="bold" font-size="11.00" fill="#000000">EvaluationPeriodTechnicalCareer</text>
<text text-anchor="start" x="634.5219" y="-506.8725" font-family="Helvetica,sans-Serif" font-size="11.00" fill="#000000">[table]</text>
<polygon fill="none" stroke="#000000" points="439,-476.7725 439,-498.7725 669,-498.7725 669,-476.7725 439,-476.7725"/>
<image xlink:href="../../images/primaryKeys.png" width="11px" height="12px" preserveAspectRatio="xMinYMin meet" x="444" y="-493.772"/>
<text text-anchor="start" x="468" y="-483.8725" font-family="Helvetica,sans-Serif" font-size="11.00" fill="#000000">EvaluationPeriodsId</text>
<polygon fill="none" stroke="#000000" points="439,-454.7725 439,-476.7725 669,-476.7725 669,-454.7725 439,-454.7725"/>
<image xlink:href="../../images/primaryKeys.png" width="11px" height="12px" preserveAspectRatio="xMinYMin meet" x="444" y="-471.772"/>
<text text-anchor="start" x="468" y="-461.8725" font-family="Helvetica,sans-Serif" font-size="11.00" fill="#000000">TechnicalCareersId</text>
<polygon fill="#ffffff" stroke="transparent" points="439,-435.7725 439,-454.7725 539,-454.7725 539,-435.7725 439,-435.7725"/>
<polygon fill="none" stroke="#000000" points="439,-435.7725 439,-454.7725 539,-454.7725 539,-435.7725 439,-435.7725"/>
<text text-anchor="start" x="442" y="-441.8725" font-family="Helvetica,sans-Serif" font-size="11.00" fill="#000000">&lt; 2</text>
<polygon fill="#ffffff" stroke="transparent" points="539,-435.7725 539,-454.7725 617,-454.7725 617,-435.7725 539,-435.7725"/>
<polygon fill="none" stroke="#000000" points="539,-435.7725 539,-454.7725 617,-454.7725 617,-435.7725 539,-435.7725"/>
<text text-anchor="start" x="581.6105" y="-441.8725" font-family="Helvetica,sans-Serif" font-size="11.00" fill="#000000">0 rows</text>
<polygon fill="#ffffff" stroke="transparent" points="617,-435.7725 617,-454.7725 669,-454.7725 669,-435.7725 617,-435.7725"/>
<polygon fill="none" stroke="#000000" points="617,-435.7725 617,-454.7725 669,-454.7725 669,-435.7725 617,-435.7725"/>
<text text-anchor="start" x="659.8862" y="-441.8725" font-family="Helvetica,sans-Serif" font-size="11.00" fill="#000000"> &#160;</text>
</a>
</g>
</g>
<!-- EvaluationPeriodTechnicalCareer&#45;&gt;TechnicalCareers -->
<g id="edge17" class="edge">
<title>EvaluationPeriodTechnicalCareer:w&#45;&gt;TechnicalCareers:e</title>
<path fill="none" stroke="#000000" d="M424.6525,-467.8938C362.255,-489.3755 475.0327,-666.7725 388.5,-666.7725"/>
<polygon fill="#000000" stroke="#000000" points="431.086,-466.9426 439.5266,-469.3337 435.043,-466.3575 439,-465.7725 439,-465.7725 439,-465.7725 435.043,-466.3575 438.4734,-462.2112 431.086,-466.9426 431.086,-466.9426"/>
<ellipse fill="none" stroke="#000000" cx="427.9204" cy="-467.4107" rx="3.2" ry="3.2"/>
</g>
<!-- EvaluationPeriodTechnicalCareer&#45;&gt;EvaluationPeriods -->
<g id="edge16" class="edge">
<title>EvaluationPeriodTechnicalCareer:w&#45;&gt;EvaluationPeriods:e</title>
<path fill="none" stroke="#000000" d="M424.6917,-484.5915C405.4992,-473.5657 417.815,-436.2171 398,-409.7725 381.1314,-387.26 380.6311,-365.7725 352.5,-365.7725"/>
<polygon fill="#000000" stroke="#000000" points="431.1907,-486.0363 438.2187,-491.2867 435.0953,-486.9044 439,-487.7725 439,-487.7725 439,-487.7725 435.0953,-486.9044 439.7813,-484.2583 431.1907,-486.0363 431.1907,-486.0363"/>
<ellipse fill="none" stroke="#000000" cx="428.0669" cy="-485.3418" rx="3.2" ry="3.2"/>
</g>
<!-- FormQuestions -->
<g id="node13" class="node">
<title>FormQuestions</title>
<g id="a_node13"><a xlink:href="../../tables/FormQuestions.html" xlink:title="FormQuestions" target="_top">
<polygon fill="#ffffff" stroke="transparent" points="490.5,-853.2725 490.5,-914.2725 617.5,-914.2725 617.5,-853.2725 490.5,-853.2725"/>
<polygon fill="#f5f5f5" stroke="transparent" points="491,-890.7725 491,-913.7725 618,-913.7725 618,-890.7725 491,-890.7725"/>
<polygon fill="none" stroke="#000000" points="491,-890.7725 491,-913.7725 618,-913.7725 618,-890.7725 491,-890.7725"/>
<text text-anchor="start" x="496" y="-899.3725" font-family="Helvetica,sans-Serif" font-weight="bold" font-size="11.00" fill="#000000">FormQuestions</text>
<text text-anchor="start" x="583.5219" y="-898.8725" font-family="Helvetica,sans-Serif" font-size="11.00" fill="#000000">[table]</text>
<polygon fill="none" stroke="#000000" points="491,-871.7725 491,-890.7725 618,-890.7725 618,-871.7725 491,-871.7725"/>
<text text-anchor="start" x="494" y="-877.8725" font-family="Helvetica,sans-Serif" font-size="11.00" fill="#000000">...</text>
<polygon fill="#ffffff" stroke="transparent" points="491,-852.7725 491,-871.7725 535,-871.7725 535,-852.7725 491,-852.7725"/>
<polygon fill="none" stroke="#000000" points="491,-852.7725 491,-871.7725 535,-871.7725 535,-852.7725 491,-852.7725"/>
<text text-anchor="start" x="494" y="-858.8725" font-family="Helvetica,sans-Serif" font-size="11.00" fill="#000000">&lt; 3</text>
<polygon fill="#ffffff" stroke="transparent" points="535,-852.7725 535,-871.7725 585,-871.7725 585,-852.7725 535,-852.7725"/>
<polygon fill="none" stroke="#000000" points="535,-852.7725 535,-871.7725 585,-871.7725 585,-852.7725 535,-852.7725"/>
<text text-anchor="start" x="549.6105" y="-858.8725" font-family="Helvetica,sans-Serif" font-size="11.00" fill="#000000">0 rows</text>
<polygon fill="#ffffff" stroke="transparent" points="585,-852.7725 585,-871.7725 618,-871.7725 618,-852.7725 585,-852.7725"/>
<polygon fill="none" stroke="#000000" points="585,-852.7725 585,-871.7725 618,-871.7725 618,-852.7725 585,-852.7725"/>
<text text-anchor="start" x="599.4053" y="-858.8725" font-family="Helvetica,sans-Serif" font-size="11.00" fill="#000000">1 &gt;</text>
</a>
</g>
</g>
<!-- FormQuestions&#45;&gt;AspNetUsers -->
<g id="edge19" class="edge">
<title>FormQuestions:w&#45;&gt;AspNetUsers:e</title>
<path fill="none" stroke="#000000" d="M476.4257,-880.0144C394.5629,-877.691 216.8163,-898.2985 163,-855.7725 117.1395,-819.5332 83.7699,-645.0051 70.8691,-569.5526"/>
<polygon fill="#000000" stroke="#000000" points="483.0108,-880.3569 490.813,-884.3676 487.0054,-880.5647 491,-880.7725 491,-880.7725 491,-880.7725 487.0054,-880.5647 491.187,-877.1773 483.0108,-880.3569 483.0108,-880.3569"/>
<ellipse fill="none" stroke="#000000" cx="479.8151" cy="-880.1906" rx="3.2" ry="3.2"/>
</g>
<!-- FormQuestions&#45;&gt;AspNetUsers -->
<g id="edge20" class="edge">
<title>FormQuestions:w&#45;&gt;AspNetUsers:e</title>
<path fill="none" stroke="#000000" d="M476.4257,-882.2357C394.5629,-890.691 216.8163,-911.2985 163,-868.7725 115.7445,-831.4308 81.7513,-647.2594 69.7489,-569.4429"/>
<polygon fill="#000000" stroke="#000000" points="483.04,-881.5717 491.3596,-884.3545 487.02,-881.1721 491,-880.7725 491,-880.7725 491,-880.7725 487.02,-881.1721 490.6404,-877.1905 483.04,-881.5717 483.04,-881.5717"/>
<ellipse fill="none" stroke="#000000" cx="479.856" cy="-881.8914" rx="3.2" ry="3.2"/>
</g>
<!-- FormQuestions&#45;&gt;Competencies -->
<g id="edge18" class="edge">
<title>FormQuestions:w&#45;&gt;Competencies:e</title>
<path fill="none" stroke="#000000" d="M476.3645,-879.833C417.7828,-871.996 408.3926,-817.7725 341.5,-817.7725"/>
<polygon fill="#000000" stroke="#000000" points="483.0164,-880.2599 490.7694,-884.3651 487.0082,-880.5162 491,-880.7725 491,-880.7725 491,-880.7725 487.0082,-880.5162 491.2306,-877.1799 483.0164,-880.2599 483.0164,-880.2599"/>
<ellipse fill="none" stroke="#000000" cx="479.823" cy="-880.0549" rx="3.2" ry="3.2"/>
</g>
<!-- ProfessorCompetencyAssignments -->
<g id="node14" class="node">
<title>ProfessorCompetencyAssignments</title>
<g id="a_node14"><a xlink:href="../../tables/ProfessorCompetencyAssignments.html" xlink:title="ProfessorCompetencyAssignments" target="_top">
<polygon fill="#ffffff" stroke="transparent" points="718,-528.2725 718,-589.2725 960,-589.2725 960,-528.2725 718,-528.2725"/>
<polygon fill="#f5f5f5" stroke="transparent" points="718,-565.7725 718,-588.7725 960,-588.7725 960,-565.7725 718,-565.7725"/>
<polygon fill="none" stroke="#000000" points="718,-565.7725 718,-588.7725 960,-588.7725 960,-565.7725 718,-565.7725"/>
<text text-anchor="start" x="723" y="-574.3725" font-family="Helvetica,sans-Serif" font-weight="bold" font-size="11.00" fill="#000000">ProfessorCompetencyAssignments</text>
<text text-anchor="start" x="925.5219" y="-573.8725" font-family="Helvetica,sans-Serif" font-size="11.00" fill="#000000">[table]</text>
<polygon fill="none" stroke="#000000" points="718,-546.7725 718,-565.7725 960,-565.7725 960,-546.7725 718,-546.7725"/>
<text text-anchor="start" x="721" y="-552.8725" font-family="Helvetica,sans-Serif" font-size="11.00" fill="#000000">...</text>
<polygon fill="#ffffff" stroke="transparent" points="718,-527.7725 718,-546.7725 820,-546.7725 820,-527.7725 718,-527.7725"/>
<polygon fill="none" stroke="#000000" points="718,-527.7725 718,-546.7725 820,-546.7725 820,-527.7725 718,-527.7725"/>
<text text-anchor="start" x="721" y="-533.8725" font-family="Helvetica,sans-Serif" font-size="11.00" fill="#000000">&lt; 7</text>
<polygon fill="#ffffff" stroke="transparent" points="820,-527.7725 820,-546.7725 898,-546.7725 898,-527.7725 820,-527.7725"/>
<polygon fill="none" stroke="#000000" points="820,-527.7725 820,-546.7725 898,-546.7725 898,-527.7725 820,-527.7725"/>
<text text-anchor="start" x="862.6105" y="-533.8725" font-family="Helvetica,sans-Serif" font-size="11.00" fill="#000000">0 rows</text>
<polygon fill="#ffffff" stroke="transparent" points="898,-527.7725 898,-546.7725 960,-546.7725 960,-527.7725 898,-527.7725"/>
<polygon fill="none" stroke="#000000" points="898,-527.7725 898,-546.7725 960,-546.7725 960,-527.7725 898,-527.7725"/>
<text text-anchor="start" x="941.4053" y="-533.8725" font-family="Helvetica,sans-Serif" font-size="11.00" fill="#000000">1 &gt;</text>
</a>
</g>
</g>
<!-- ProfessorCompetencyAssignments&#45;&gt;AspNetUsers -->
<g id="edge22" class="edge">
<title>ProfessorCompetencyAssignments:w&#45;&gt;AspNetUsers:e</title>
<path fill="none" stroke="#000000" d="M804.4797,-605.6845C762.546,-665.0791 695.1468,-760.6739 677,-769.7725 579.2635,-818.7761 539.9876,-778.4603 431,-769.7725 310.7469,-760.1866 260.1091,-798.3442 163,-726.7725 110.512,-688.0875 84.5187,-613.4672 72.9779,-569.4544"/>
<polygon fill="#000000" stroke="#000000" points="808.3983,-600.1378 815.9547,-595.6812 810.7064,-596.8709 813.0144,-593.6039 813.0144,-593.6039 813.0144,-593.6039 810.7064,-596.8709 810.0742,-591.5267 808.3983,-600.1378 808.3983,-600.1378"/>
<ellipse fill="none" stroke="#000000" cx="806.5519" cy="-602.7514" rx="3.2" ry="3.2"/>
</g>
<!-- ProfessorCompetencyAssignments&#45;&gt;AspNetUsers -->
<g id="edge27" class="edge">
<title>ProfessorCompetencyAssignments:w&#45;&gt;AspNetUsers:e</title>
<path fill="none" stroke="#000000" d="M810.3497,-605.7762C769.1486,-668.676 696.0203,-773.2359 677,-782.7725 579.2635,-831.7761 539.9876,-791.4603 431,-782.7725 310.7469,-773.1866 260.1091,-811.3442 163,-739.7725 106.9613,-698.4706 81.1232,-616.207 70.8305,-569.3303"/>
<polygon fill="#000000" stroke="#000000" points="814.0235,-600.1222 821.4011,-595.3754 816.2029,-596.768 818.3824,-593.4139 818.3824,-593.4139 818.3824,-593.4139 816.2029,-596.768 815.3637,-591.4524 814.0235,-600.1222 814.0235,-600.1222"/>
<ellipse fill="none" stroke="#000000" cx="812.2799" cy="-602.8055" rx="3.2" ry="3.2"/>
</g>
<!-- ProfessorCompetencyAssignments&#45;&gt;Competencies -->
<g id="edge21" class="edge">
<title>ProfessorCompetencyAssignments:w&#45;&gt;Competencies:e</title>
<path fill="none" stroke="#000000" d="M803.5271,-605.2563C776.3411,-641.8792 738.7389,-694.7637 710,-743.7725 693.0071,-772.7506 705.3104,-793.6889 677,-811.7725 614.1586,-851.913 416.0675,-817.7725 341.5,-817.7725"/>
<polygon fill="#000000" stroke="#000000" points="807.531,-599.8975 815.2034,-595.6436 809.9253,-596.6932 812.3195,-593.4888 812.3195,-593.4888 812.3195,-593.4888 809.9253,-596.6932 809.4356,-591.334 807.531,-599.8975 807.531,-599.8975"/>
<ellipse fill="none" stroke="#000000" cx="805.6157" cy="-602.461" rx="3.2" ry="3.2"/>
</g>
<!-- ProfessorCompetencyAssignments&#45;&gt;TechnicalCareers -->
<g id="edge26" class="edge">
<title>ProfessorCompetencyAssignments:w&#45;&gt;TechnicalCareers:e</title>
<path fill="none" stroke="#000000" d="M695.4599,-561.8435C587.0022,-565.295 453.1248,-572.4192 431,-586.7725 397.2236,-608.6847 428.7615,-666.7725 388.5,-666.7725"/>
<polygon fill="#000000" stroke="#000000" points="701.9061,-561.6458 710.0127,-564.9988 705.9042,-561.5232 709.9023,-561.4005 709.9023,-561.4005 709.9023,-561.4005 705.9042,-561.5232 709.7919,-557.8022 701.9061,-561.6458 701.9061,-561.6458"/>
<ellipse fill="none" stroke="#000000" cx="698.7076" cy="-561.744" rx="3.2" ry="3.2"/>
</g>
<!-- ProfessorCompetencyAssignments&#45;&gt;EvaluationPeriods -->
<g id="edge23" class="edge">
<title>ProfessorCompetencyAssignments:w&#45;&gt;EvaluationPeriods:e</title>
<path fill="none" stroke="#000000" d="M798.6314,-513.7184C768.3771,-483.1314 724.2101,-444.7438 677,-424.7725 575.7012,-381.92 537.6194,-424.7923 431,-397.7725 394.4782,-388.517 390.1763,-365.7725 352.5,-365.7725"/>
<polygon fill="#000000" stroke="#000000" points="803.1742,-518.4174 806.1464,-526.6713 805.9545,-521.2932 808.7347,-524.1691 808.7347,-524.1691 808.7347,-524.1691 805.9545,-521.2932 811.3229,-521.6669 803.1742,-518.4174 803.1742,-518.4174"/>
<ellipse fill="none" stroke="#000000" cx="800.95" cy="-516.1167" rx="3.2" ry="3.2"/>
</g>
<!-- Professors -->
<g id="node15" class="node">
<title>Professors</title>
<g id="a_node15"><a xlink:href="../../tables/Professors.html" xlink:title="Professors" target="_top">
<polygon fill="#ffffff" stroke="transparent" points="230,-420.2725 230,-481.2725 331,-481.2725 331,-420.2725 230,-420.2725"/>
<polygon fill="#f5f5f5" stroke="transparent" points="230.5,-457.7725 230.5,-480.7725 331.5,-480.7725 331.5,-457.7725 230.5,-457.7725"/>
<polygon fill="none" stroke="#000000" points="230.5,-457.7725 230.5,-480.7725 331.5,-480.7725 331.5,-457.7725 230.5,-457.7725"/>
<text text-anchor="start" x="235.5" y="-466.3725" font-family="Helvetica,sans-Serif" font-weight="bold" font-size="11.00" fill="#000000">Professors</text>
<text text-anchor="start" x="297.0219" y="-465.8725" font-family="Helvetica,sans-Serif" font-size="11.00" fill="#000000">[table]</text>
<polygon fill="none" stroke="#000000" points="230.5,-438.7725 230.5,-457.7725 331.5,-457.7725 331.5,-438.7725 230.5,-438.7725"/>
<text text-anchor="start" x="233.5" y="-444.8725" font-family="Helvetica,sans-Serif" font-size="11.00" fill="#000000">...</text>
<polygon fill="#ffffff" stroke="transparent" points="230.5,-419.7725 230.5,-438.7725 261.5,-438.7725 261.5,-419.7725 230.5,-419.7725"/>
<polygon fill="none" stroke="#000000" points="230.5,-419.7725 230.5,-438.7725 261.5,-438.7725 261.5,-419.7725 230.5,-419.7725"/>
<text text-anchor="start" x="233.5" y="-425.8725" font-family="Helvetica,sans-Serif" font-size="11.00" fill="#000000">&lt; 1</text>
<polygon fill="#ffffff" stroke="transparent" points="261.5,-419.7725 261.5,-438.7725 304.5,-438.7725 304.5,-419.7725 261.5,-419.7725"/>
<polygon fill="none" stroke="#000000" points="261.5,-419.7725 261.5,-438.7725 304.5,-438.7725 304.5,-419.7725 261.5,-419.7725"/>
<text text-anchor="start" x="269.1105" y="-425.8725" font-family="Helvetica,sans-Serif" font-size="11.00" fill="#000000">0 rows</text>
<polygon fill="#ffffff" stroke="transparent" points="304.5,-419.7725 304.5,-438.7725 331.5,-438.7725 331.5,-419.7725 304.5,-419.7725"/>
<polygon fill="none" stroke="#000000" points="304.5,-419.7725 304.5,-438.7725 331.5,-438.7725 331.5,-419.7725 304.5,-419.7725"/>
<text text-anchor="start" x="312.9053" y="-425.8725" font-family="Helvetica,sans-Serif" font-size="11.00" fill="#000000">2 &gt;</text>
</a>
</g>
</g>
<!-- ProfessorCompetencyAssignments&#45;&gt;Professors -->
<g id="edge24" class="edge">
<title>ProfessorCompetencyAssignments:w&#45;&gt;Professors:e</title>
<path fill="none" stroke="#000000" d="M695.0551,-554.8118C587.2119,-550.9098 454.3863,-543.7562 431,-531.7725 410.4892,-521.2622 415.1315,-507.1891 398,-491.7725 371.6568,-468.0662 366.9394,-447.7725 331.5,-447.7725"/>
<polygon fill="#000000" stroke="#000000" points="701.7597,-555.0478 709.6281,-558.9272 705.7573,-555.1886 709.7548,-555.3294 709.7548,-555.3294 709.7548,-555.3294 705.7573,-555.1886 709.8815,-551.7316 701.7597,-555.0478 701.7597,-555.0478"/>
<ellipse fill="none" stroke="#000000" cx="698.5617" cy="-554.9352" rx="3.2" ry="3.2"/>
</g>
<!-- Subjects -->
<g id="node16" class="node">
<title>Subjects</title>
<g id="a_node16"><a xlink:href="../../tables/Subjects.html" xlink:title="Subjects" target="_top">
<polygon fill="#ffffff" stroke="transparent" points="509.5,-326.2725 509.5,-387.2725 598.5,-387.2725 598.5,-326.2725 509.5,-326.2725"/>
<polygon fill="#f5f5f5" stroke="transparent" points="510,-363.7725 510,-386.7725 599,-386.7725 599,-363.7725 510,-363.7725"/>
<polygon fill="none" stroke="#000000" points="510,-363.7725 510,-386.7725 599,-386.7725 599,-363.7725 510,-363.7725"/>
<text text-anchor="start" x="515" y="-372.3725" font-family="Helvetica,sans-Serif" font-weight="bold" font-size="11.00" fill="#000000">Subjects</text>
<text text-anchor="start" x="564.5219" y="-371.8725" font-family="Helvetica,sans-Serif" font-size="11.00" fill="#000000">[table]</text>
<polygon fill="none" stroke="#000000" points="510,-344.7725 510,-363.7725 599,-363.7725 599,-344.7725 510,-344.7725"/>
<text text-anchor="start" x="513" y="-350.8725" font-family="Helvetica,sans-Serif" font-size="11.00" fill="#000000">...</text>
<polygon fill="#ffffff" stroke="transparent" points="510,-325.7725 510,-344.7725 535,-344.7725 535,-325.7725 510,-325.7725"/>
<polygon fill="none" stroke="#000000" points="510,-325.7725 510,-344.7725 535,-344.7725 535,-325.7725 510,-325.7725"/>
<text text-anchor="start" x="513" y="-331.8725" font-family="Helvetica,sans-Serif" font-size="11.00" fill="#000000">&lt; 4</text>
<polygon fill="#ffffff" stroke="transparent" points="535,-325.7725 535,-344.7725 575,-344.7725 575,-325.7725 535,-325.7725"/>
<polygon fill="none" stroke="#000000" points="535,-325.7725 535,-344.7725 575,-344.7725 575,-325.7725 535,-325.7725"/>
<text text-anchor="start" x="539.6105" y="-331.8725" font-family="Helvetica,sans-Serif" font-size="11.00" fill="#000000">0 rows</text>
<polygon fill="#ffffff" stroke="transparent" points="575,-325.7725 575,-344.7725 599,-344.7725 599,-325.7725 575,-325.7725"/>
<polygon fill="none" stroke="#000000" points="575,-325.7725 575,-344.7725 599,-344.7725 599,-325.7725 575,-325.7725"/>
<text text-anchor="start" x="580.4053" y="-331.8725" font-family="Helvetica,sans-Serif" font-size="11.00" fill="#000000">3 &gt;</text>
</a>
</g>
</g>
<!-- ProfessorCompetencyAssignments&#45;&gt;Subjects -->
<g id="edge25" class="edge">
<title>ProfessorCompetencyAssignments:w&#45;&gt;Subjects:e</title>
<path fill="none" stroke="#000000" d="M801.2374,-512.9092C770.7532,-478.3723 725.1415,-431.9699 677,-401.7725 655.5223,-388.3002 629.4205,-378.027 606.7969,-370.7219"/>
<polygon fill="#000000" stroke="#000000" points="805.7323,-518.0857 808.2592,-526.4866 808.3549,-521.106 810.9774,-524.1262 810.9774,-524.1262 810.9774,-524.1262 808.3549,-521.106 813.6957,-521.7659 805.7323,-518.0857 805.7323,-518.0857"/>
<ellipse fill="none" stroke="#000000" cx="803.6342" cy="-515.6694" rx="3.2" ry="3.2"/>
</g>
<!-- Professors&#45;&gt;AspNetUsers -->
<g id="edge28" class="edge">
<title>Professors:w&#45;&gt;AspNetUsers:e</title>
<path fill="none" stroke="#000000" d="M219.9937,-448.2238C176.3762,-451.923 133.9065,-477.6769 104.4865,-500.1378"/>
<polygon fill="#000000" stroke="#000000" points="229.529,-443.8105 229.8725,-451.8031 228.2739,-451.8718 227.9305,-443.8792 229.529,-443.8105"/>
<polyline fill="none" stroke="#000000" points="230.5,-447.7725 226.5037,-447.9442 "/>
<ellipse fill="none" stroke="#000000" cx="223.3066" cy="-448.0816" rx="3.2" ry="3.2"/>
</g>
<!-- Subjects&#45;&gt;AspNetUsers -->
<g id="edge48" class="edge">
<title>Subjects:w&#45;&gt;AspNetUsers:e</title>
<path fill="none" stroke="#000000" d="M487.9521,-325.3005C405.1879,-293.9571 262.1906,-258.9871 163,-321.7725 101.3501,-360.7954 77.7289,-450.2314 69.2943,-499.9685"/>
<polygon fill="#000000" stroke="#000000" points="493.9948,-327.6668 500.1312,-333.9362 497.7194,-329.1254 501.444,-330.584 501.444,-330.584 501.444,-330.584 497.7194,-329.1254 502.7567,-327.2319 493.9948,-327.6668 493.9948,-327.6668"/>
<ellipse fill="none" stroke="#000000" cx="491.0151" cy="-326.4999" rx="3.2" ry="3.2"/>
</g>
<!-- Subjects&#45;&gt;AspNetUsers -->
<g id="edge51" class="edge">
<title>Subjects:w&#45;&gt;AspNetUsers:e</title>
<path fill="none" stroke="#000000" d="M487.6957,-334.2411C404.8928,-306.8851 262.0883,-272.0519 163,-334.7725 104.8777,-371.5625 80.5567,-453.1613 70.8957,-500.0455"/>
<polygon fill="#000000" stroke="#000000" points="493.8661,-336.3291 500.29,-342.3035 497.655,-337.6113 501.444,-338.8935 501.444,-338.8935 501.444,-338.8935 497.655,-337.6113 502.5979,-335.4834 493.8661,-336.3291 493.8661,-336.3291"/>
<ellipse fill="none" stroke="#000000" cx="490.8349" cy="-335.3034" rx="3.2" ry="3.2"/>
</g>
<!-- Subjects&#45;&gt;TechnicalCareers -->
<g id="edge50" class="edge">
<title>Subjects:w&#45;&gt;TechnicalCareers:e</title>
<path fill="none" stroke="#000000" d="M488.2964,-379.6917C466.9502,-390.2524 445.1437,-404.9528 431,-424.7725 399.2835,-469.2169 443.1008,-666.7725 388.5,-666.7725"/>
<polygon fill="#000000" stroke="#000000" points="494.1867,-376.9839 502.9591,-376.9133 497.821,-375.3131 501.4554,-373.6423 501.4554,-373.6423 501.4554,-373.6423 497.821,-375.3131 499.9517,-370.3714 494.1867,-376.9839 494.1867,-376.9839"/>
<ellipse fill="none" stroke="#000000" cx="491.2792" cy="-378.3205" rx="3.2" ry="3.2"/>
</g>
<!-- Subjects&#45;&gt;Professors -->
<g id="edge49" class="edge">
<title>Subjects:w&#45;&gt;Professors:e</title>
<path fill="none" stroke="#000000" d="M488.0238,-390.2819C434.4991,-416.2267 362.9524,-447.7725 331.5,-447.7725"/>
<polygon fill="#000000" stroke="#000000" points="494.0226,-387.3459 502.7907,-387.0626 497.6154,-385.5875 501.2081,-383.8291 501.2081,-383.8291 501.2081,-383.8291 497.6154,-385.5875 499.6256,-380.5956 494.0226,-387.3459 494.0226,-387.3459"/>
<ellipse fill="none" stroke="#000000" cx="491.1484" cy="-388.7527" rx="3.2" ry="3.2"/>
</g>
<!-- QuestionResponses -->
<g id="node17" class="node">
<title>QuestionResponses</title>
<g id="a_node17"><a xlink:href="../../tables/QuestionResponses.html" xlink:title="QuestionResponses" target="_top">
<polygon fill="#ffffff" stroke="transparent" points="1281,-118.2725 1281,-179.2725 1436,-179.2725 1436,-118.2725 1281,-118.2725"/>
<polygon fill="#f5f5f5" stroke="transparent" points="1281.5,-155.7725 1281.5,-178.7725 1436.5,-178.7725 1436.5,-155.7725 1281.5,-155.7725"/>
<polygon fill="none" stroke="#000000" points="1281.5,-155.7725 1281.5,-178.7725 1436.5,-178.7725 1436.5,-155.7725 1281.5,-155.7725"/>
<text text-anchor="start" x="1286.5" y="-164.3725" font-family="Helvetica,sans-Serif" font-weight="bold" font-size="11.00" fill="#000000">QuestionResponses</text>
<text text-anchor="start" x="1402.0219" y="-163.8725" font-family="Helvetica,sans-Serif" font-size="11.00" fill="#000000">[table]</text>
<polygon fill="none" stroke="#000000" points="1281.5,-136.7725 1281.5,-155.7725 1436.5,-155.7725 1436.5,-136.7725 1281.5,-136.7725"/>
<text text-anchor="start" x="1284.5" y="-142.8725" font-family="Helvetica,sans-Serif" font-size="11.00" fill="#000000">...</text>
<polygon fill="#ffffff" stroke="transparent" points="1281.5,-117.7725 1281.5,-136.7725 1344.5,-136.7725 1344.5,-117.7725 1281.5,-117.7725"/>
<polygon fill="none" stroke="#000000" points="1281.5,-117.7725 1281.5,-136.7725 1344.5,-136.7725 1344.5,-117.7725 1281.5,-117.7725"/>
<text text-anchor="start" x="1284.5" y="-123.8725" font-family="Helvetica,sans-Serif" font-size="11.00" fill="#000000">&lt; 4</text>
<polygon fill="#ffffff" stroke="transparent" points="1344.5,-117.7725 1344.5,-136.7725 1403.5,-136.7725 1403.5,-117.7725 1344.5,-117.7725"/>
<polygon fill="none" stroke="#000000" points="1344.5,-117.7725 1344.5,-136.7725 1403.5,-136.7725 1403.5,-117.7725 1344.5,-117.7725"/>
<text text-anchor="start" x="1368.1105" y="-123.8725" font-family="Helvetica,sans-Serif" font-size="11.00" fill="#000000">0 rows</text>
<polygon fill="#ffffff" stroke="transparent" points="1403.5,-117.7725 1403.5,-136.7725 1436.5,-136.7725 1436.5,-117.7725 1403.5,-117.7725"/>
<polygon fill="none" stroke="#000000" points="1403.5,-117.7725 1403.5,-136.7725 1436.5,-136.7725 1436.5,-117.7725 1403.5,-117.7725"/>
<text text-anchor="start" x="1427.3862" y="-123.8725" font-family="Helvetica,sans-Serif" font-size="11.00" fill="#000000"> &#160;</text>
</a>
</g>
</g>
<!-- QuestionResponses&#45;&gt;AspNetUsers -->
<g id="edge29" class="edge">
<title>QuestionResponses:w&#45;&gt;AspNetUsers:e</title>
<path fill="none" stroke="#000000" d="M1266.8729,-145.1944C1079.6267,-135.9852 1033.6509,-62.7725 839,-62.7725 839,-62.7725 839,-62.7725 554,-62.7725 379.6044,-62.7725 294.5466,18.7234 163,-95.7725 102.0282,-148.8413 75.1806,-405.6255 67.47,-499.977"/>
<polygon fill="#000000" stroke="#000000" points="1273.5062,-145.4565 1281.3578,-149.3696 1277.5031,-145.6145 1281.5,-145.7725 1281.5,-145.7725 1281.5,-145.7725 1277.5031,-145.6145 1281.6422,-142.1753 1273.5062,-145.4565 1273.5062,-145.4565"/>
<ellipse fill="none" stroke="#000000" cx="1270.3087" cy="-145.3301" rx="3.2" ry="3.2"/>
</g>
<!-- QuestionResponses&#45;&gt;AspNetUsers -->
<g id="edge32" class="edge">
<title>QuestionResponses:w&#45;&gt;AspNetUsers:e</title>
<path fill="none" stroke="#000000" d="M1266.8729,-146.1416C1079.6267,-148.9852 1033.6509,-75.7725 839,-75.7725 839,-75.7725 839,-75.7725 554,-75.7725 379.6044,-75.7725 294.5466,5.7234 163,-108.7725 103.3363,-160.7027 76.3483,-407.7012 67.9928,-499.9836"/>
<polygon fill="#000000" stroke="#000000" points="1273.5025,-145.9744 1281.5909,-149.3713 1277.5013,-145.8734 1281.5,-145.7725 1281.5,-145.7725 1281.5,-145.7725 1277.5013,-145.8734 1281.4091,-142.1736 1273.5025,-145.9744 1273.5025,-145.9744"/>
<ellipse fill="none" stroke="#000000" cx="1270.3036" cy="-146.0551" rx="3.2" ry="3.2"/>
</g>
<!-- QuestionResponses&#45;&gt;FormQuestions -->
<g id="edge30" class="edge">
<title>QuestionResponses:w&#45;&gt;FormQuestions:e</title>
<path fill="none" stroke="#000000" d="M1267.215,-148.5856C1245.5026,-159.3263 1258.3855,-198.6593 1240,-228.7725 1133.4576,-403.2751 1109.3684,-452.0652 968,-599.7725 830.0682,-743.889 817.4863,-880.7725 618,-880.7725"/>
<polygon fill="#000000" stroke="#000000" points="1273.6508,-147.3182 1282.1956,-149.3046 1277.5754,-146.5454 1281.5,-145.7725 1281.5,-145.7725 1281.5,-145.7725 1277.5754,-146.5454 1280.8044,-142.2403 1273.6508,-147.3182 1273.6508,-147.3182"/>
<ellipse fill="none" stroke="#000000" cx="1270.5111" cy="-147.9366" rx="3.2" ry="3.2"/>
</g>
<!-- StudentCompetencyEvaluations -->
<g id="node18" class="node">
<title>StudentCompetencyEvaluations</title>
<g id="a_node18"><a xlink:href="../../tables/StudentCompetencyEvaluations.html" xlink:title="StudentCompetencyEvaluations" target="_top">
<polygon fill="#ffffff" stroke="transparent" points="1009,-157.2725 1009,-218.2725 1232,-218.2725 1232,-157.2725 1009,-157.2725"/>
<polygon fill="#f5f5f5" stroke="transparent" points="1009.5,-194.7725 1009.5,-217.7725 1232.5,-217.7725 1232.5,-194.7725 1009.5,-194.7725"/>
<polygon fill="none" stroke="#000000" points="1009.5,-194.7725 1009.5,-217.7725 1232.5,-217.7725 1232.5,-194.7725 1009.5,-194.7725"/>
<text text-anchor="start" x="1014.5" y="-203.3725" font-family="Helvetica,sans-Serif" font-weight="bold" font-size="11.00" fill="#000000">StudentCompetencyEvaluations</text>
<text text-anchor="start" x="1198.0219" y="-202.8725" font-family="Helvetica,sans-Serif" font-size="11.00" fill="#000000">[table]</text>
<polygon fill="none" stroke="#000000" points="1009.5,-175.7725 1009.5,-194.7725 1232.5,-194.7725 1232.5,-175.7725 1009.5,-175.7725"/>
<text text-anchor="start" x="1012.5" y="-181.8725" font-family="Helvetica,sans-Serif" font-size="11.00" fill="#000000">...</text>
<polygon fill="#ffffff" stroke="transparent" points="1009.5,-156.7725 1009.5,-175.7725 1101.5,-175.7725 1101.5,-156.7725 1009.5,-156.7725"/>
<polygon fill="none" stroke="#000000" points="1009.5,-156.7725 1009.5,-175.7725 1101.5,-175.7725 1101.5,-156.7725 1009.5,-156.7725"/>
<text text-anchor="start" x="1012.5" y="-162.8725" font-family="Helvetica,sans-Serif" font-size="11.00" fill="#000000">&lt; 5</text>
<polygon fill="#ffffff" stroke="transparent" points="1101.5,-156.7725 1101.5,-175.7725 1175.5,-175.7725 1175.5,-156.7725 1101.5,-156.7725"/>
<polygon fill="none" stroke="#000000" points="1101.5,-156.7725 1101.5,-175.7725 1175.5,-175.7725 1175.5,-156.7725 1101.5,-156.7725"/>
<text text-anchor="start" x="1140.1105" y="-162.8725" font-family="Helvetica,sans-Serif" font-size="11.00" fill="#000000">0 rows</text>
<polygon fill="#ffffff" stroke="transparent" points="1175.5,-156.7725 1175.5,-175.7725 1232.5,-175.7725 1232.5,-156.7725 1175.5,-156.7725"/>
<polygon fill="none" stroke="#000000" points="1175.5,-156.7725 1175.5,-175.7725 1232.5,-175.7725 1232.5,-156.7725 1175.5,-156.7725"/>
<text text-anchor="start" x="1213.9053" y="-162.8725" font-family="Helvetica,sans-Serif" font-size="11.00" fill="#000000">1 &gt;</text>
</a>
</g>
</g>
<!-- QuestionResponses&#45;&gt;StudentCompetencyEvaluations -->
<g id="edge31" class="edge">
<title>QuestionResponses:w&#45;&gt;StudentCompetencyEvaluations:e</title>
<path fill="none" stroke="#000000" d="M1267.4646,-150.5546C1254.9324,-160.9687 1254.2451,-184.7725 1232.5,-184.7725"/>
<polygon fill="#000000" stroke="#000000" points="1273.9275,-148.3526 1282.6611,-149.1801 1277.7137,-147.0625 1281.5,-145.7725 1281.5,-145.7725 1281.5,-145.7725 1277.7137,-147.0625 1280.3389,-142.3648 1273.9275,-148.3526 1273.9275,-148.3526"/>
<ellipse fill="none" stroke="#000000" cx="1270.8985" cy="-149.3847" rx="3.2" ry="3.2"/>
</g>
<!-- StudentCompetencyEvaluations&#45;&gt;AspNetUsers -->
<g id="edge33" class="edge">
<title>StudentCompetencyEvaluations:w&#45;&gt;AspNetUsers:e</title>
<path fill="none" stroke="#000000" d="M996.427,-177.9484C983.2189,-163.7317 990.6916,-133.3201 968,-121.7725 906.8457,-90.6513 233.921,-77.0323 163,-133.7725 105.6907,-179.6226 76.8572,-411.1911 68.0241,-500.0595"/>
<polygon fill="#000000" stroke="#000000" points="1002.4081,-181.0705 1007.8341,-187.9638 1005.954,-182.9215 1009.5,-184.7725 1009.5,-184.7725 1009.5,-184.7725 1005.954,-182.9215 1011.1659,-181.5811 1002.4081,-181.0705 1002.4081,-181.0705"/>
<ellipse fill="none" stroke="#000000" cx="999.5713" cy="-179.5897" rx="3.2" ry="3.2"/>
</g>
<!-- StudentCompetencyEvaluations&#45;&gt;AspNetUsers -->
<g id="edge37" class="edge">
<title>StudentCompetencyEvaluations:w&#45;&gt;AspNetUsers:e</title>
<path fill="none" stroke="#000000" d="M994.9919,-183.0392C983.7491,-174.4203 989.8188,-145.876 968,-134.7725 906.8457,-103.6513 233.921,-90.0323 163,-146.7725 107.0011,-191.5743 78.1906,-413.699 68.6615,-500.2619"/>
<polygon fill="#000000" stroke="#000000" points="1001.5565,-183.8234 1009.0729,-188.347 1005.5282,-184.2979 1009.5,-184.7725 1009.5,-184.7725 1009.5,-184.7725 1005.5282,-184.2979 1009.9271,-181.1979 1001.5565,-183.8234 1001.5565,-183.8234"/>
<ellipse fill="none" stroke="#000000" cx="998.3791" cy="-183.4438" rx="3.2" ry="3.2"/>
</g>
<!-- StudentCompetencyEvaluations&#45;&gt;ProfessorCompetencyAssignments -->
<g id="edge34" class="edge">
<title>StudentCompetencyEvaluations:w&#45;&gt;ProfessorCompetencyAssignments:e</title>
<path fill="none" stroke="#000000" d="M995.077,-186.1974C940.2755,-198.5649 996.4534,-288.8639 968,-355.7725 941.0369,-419.1765 895.2417,-485.1791 866.0911,-524.0913"/>
<polygon fill="#000000" stroke="#000000" points="1001.5388,-185.5591 1009.854,-188.355 1005.5194,-185.1658 1009.5,-184.7725 1009.5,-184.7725 1009.5,-184.7725 1005.5194,-185.1658 1009.146,-181.1899 1001.5388,-185.5591 1001.5388,-185.5591"/>
<ellipse fill="none" stroke="#000000" cx="998.3543" cy="-185.8737" rx="3.2" ry="3.2"/>
</g>
<!-- StudentCompetencyEvaluations&#45;&gt;Subjects -->
<g id="edge36" class="edge">
<title>StudentCompetencyEvaluations:w&#45;&gt;Subjects:e</title>
<path fill="none" stroke="#000000" d="M995.1403,-187.1654C958.8184,-202.1846 1012.2029,-283.9654 968,-319.7725 863.7054,-404.2576 692.4162,-385.5073 606.5403,-368.9365"/>
<polygon fill="#000000" stroke="#000000" points="1001.6088,-186.0875 1010.0918,-188.3235 1005.5544,-185.43 1009.5,-184.7725 1009.5,-184.7725 1009.5,-184.7725 1005.5544,-185.43 1008.9082,-181.2214 1001.6088,-186.0875 1001.6088,-186.0875"/>
<ellipse fill="none" stroke="#000000" cx="998.4523" cy="-186.6136" rx="3.2" ry="3.2"/>
</g>
<!-- Students -->
<g id="node19" class="node">
<title>Students</title>
<g id="a_node19"><a xlink:href="../../tables/Students.html" xlink:title="Students" target="_top">
<polygon fill="#ffffff" stroke="transparent" points="509,-177.2725 509,-238.2725 599,-238.2725 599,-177.2725 509,-177.2725"/>
<polygon fill="#f5f5f5" stroke="transparent" points="509,-214.7725 509,-237.7725 599,-237.7725 599,-214.7725 509,-214.7725"/>
<polygon fill="none" stroke="#000000" points="509,-214.7725 509,-237.7725 599,-237.7725 599,-214.7725 509,-214.7725"/>
<text text-anchor="start" x="514" y="-223.3725" font-family="Helvetica,sans-Serif" font-weight="bold" font-size="11.00" fill="#000000">Students</text>
<text text-anchor="start" x="564.5219" y="-222.8725" font-family="Helvetica,sans-Serif" font-size="11.00" fill="#000000">[table]</text>
<polygon fill="none" stroke="#000000" points="509,-195.7725 509,-214.7725 599,-214.7725 599,-195.7725 509,-195.7725"/>
<text text-anchor="start" x="512" y="-201.8725" font-family="Helvetica,sans-Serif" font-size="11.00" fill="#000000">...</text>
<polygon fill="#ffffff" stroke="transparent" points="509,-176.7725 509,-195.7725 535,-195.7725 535,-176.7725 509,-176.7725"/>
<polygon fill="none" stroke="#000000" points="509,-176.7725 509,-195.7725 535,-195.7725 535,-176.7725 509,-176.7725"/>
<text text-anchor="start" x="512" y="-182.8725" font-family="Helvetica,sans-Serif" font-size="11.00" fill="#000000">&lt; 2</text>
<polygon fill="#ffffff" stroke="transparent" points="535,-176.7725 535,-195.7725 575,-195.7725 575,-176.7725 535,-176.7725"/>
<polygon fill="none" stroke="#000000" points="535,-176.7725 535,-195.7725 575,-195.7725 575,-176.7725 535,-176.7725"/>
<text text-anchor="start" x="539.6105" y="-182.8725" font-family="Helvetica,sans-Serif" font-size="11.00" fill="#000000">0 rows</text>
<polygon fill="#ffffff" stroke="transparent" points="575,-176.7725 575,-195.7725 599,-195.7725 599,-176.7725 575,-176.7725"/>
<polygon fill="none" stroke="#000000" points="575,-176.7725 575,-195.7725 599,-195.7725 599,-176.7725 575,-176.7725"/>
<text text-anchor="start" x="580.4053" y="-182.8725" font-family="Helvetica,sans-Serif" font-size="11.00" fill="#000000">3 &gt;</text>
</a>
</g>
</g>
<!-- StudentCompetencyEvaluations&#45;&gt;Students -->
<g id="edge35" class="edge">
<title>StudentCompetencyEvaluations:w&#45;&gt;Students:e</title>
<path fill="none" stroke="#000000" d="M995.3612,-188.804C986.6191,-194.7667 982.7493,-205.6731 968,-209.7725 857.5212,-240.4786 824.6643,-210.5075 710,-209.7725 675.7375,-209.5528 637.2447,-209.0619 607.0683,-208.6214"/>
<polygon fill="#000000" stroke="#000000" points="1001.8066,-186.9662 1010.4872,-188.2345 1005.6533,-185.8693 1009.5,-184.7725 1009.5,-184.7725 1009.5,-184.7725 1005.6533,-185.8693 1008.5128,-181.3104 1001.8066,-186.9662 1001.8066,-186.9662"/>
<ellipse fill="none" stroke="#000000" cx="998.7293" cy="-187.8437" rx="3.2" ry="3.2"/>
</g>
<!-- Students&#45;&gt;AspNetUsers -->
<g id="edge43" class="edge">
<title>Students:w&#45;&gt;AspNetUsers:e</title>
<path fill="none" stroke="#000000" d="M490.4272,-196.1271C406.015,-184.486 256.712,-177.6923 163,-252.7725 123.5112,-284.4101 87.2512,-431.8285 72.2657,-500.0131"/>
<polygon fill="#000000" stroke="#000000" points="500.6736,-193.568 499.528,-201.4855 497.9445,-201.2564 499.0901,-193.3389 500.6736,-193.568"/>
<polyline fill="none" stroke="#000000" points="500.8926,-197.6413 496.9338,-197.0685 "/>
<ellipse fill="none" stroke="#000000" cx="493.7668" cy="-196.6102" rx="3.2" ry="3.2"/>
</g>
<!-- Students&#45;&gt;TechnicalCareers -->
<g id="edge42" class="edge">
<title>Students:w&#45;&gt;TechnicalCareers:e</title>
<path fill="none" stroke="#000000" d="M489.3697,-249.6288C467.2511,-267.3262 444.6607,-289.8731 431,-315.7725 394.3445,-385.2676 467.0697,-666.7725 388.5,-666.7725"/>
<polygon fill="#000000" stroke="#000000" points="494.4968,-245.6944 503.0351,-243.6802 497.6702,-243.2593 500.8435,-240.8242 500.8435,-240.8242 500.8435,-240.8242 497.6702,-243.2593 498.6519,-237.9681 494.4968,-245.6944 494.4968,-245.6944"/>
<ellipse fill="none" stroke="#000000" cx="491.9581" cy="-247.6425" rx="3.2" ry="3.2"/>
</g>
<!-- StudentEvaluationReport -->
<g id="node20" class="node">
<title>StudentEvaluationReport</title>
<g id="a_node20"><a xlink:href="../../tables/StudentEvaluationReport.html" xlink:title="StudentEvaluationReport" target="_top">
<polygon fill="#ffffff" stroke="transparent" points="747.5,-248.2725 747.5,-309.2725 930.5,-309.2725 930.5,-248.2725 747.5,-248.2725"/>
<polygon fill="#f5f5f5" stroke="transparent" points="748,-285.7725 748,-308.7725 931,-308.7725 931,-285.7725 748,-285.7725"/>
<polygon fill="none" stroke="#000000" points="748,-285.7725 748,-308.7725 931,-308.7725 931,-285.7725 748,-285.7725"/>
<text text-anchor="start" x="753" y="-294.3725" font-family="Helvetica,sans-Serif" font-weight="bold" font-size="11.00" fill="#000000">StudentEvaluationReport</text>
<text text-anchor="start" x="896.5219" y="-293.8725" font-family="Helvetica,sans-Serif" font-size="11.00" fill="#000000">[table]</text>
<polygon fill="none" stroke="#000000" points="748,-266.7725 748,-285.7725 931,-285.7725 931,-266.7725 748,-266.7725"/>
<text text-anchor="start" x="751" y="-272.8725" font-family="Helvetica,sans-Serif" font-size="11.00" fill="#000000">...</text>
<polygon fill="#ffffff" stroke="transparent" points="748,-247.7725 748,-266.7725 825,-266.7725 825,-247.7725 748,-247.7725"/>
<polygon fill="none" stroke="#000000" points="748,-247.7725 748,-266.7725 825,-266.7725 825,-247.7725 748,-247.7725"/>
<text text-anchor="start" x="751" y="-253.8725" font-family="Helvetica,sans-Serif" font-size="11.00" fill="#000000">&lt; 4</text>
<polygon fill="#ffffff" stroke="transparent" points="825,-247.7725 825,-266.7725 891,-266.7725 891,-247.7725 825,-247.7725"/>
<polygon fill="none" stroke="#000000" points="825,-247.7725 825,-266.7725 891,-266.7725 891,-247.7725 825,-247.7725"/>
<text text-anchor="start" x="855.6105" y="-253.8725" font-family="Helvetica,sans-Serif" font-size="11.00" fill="#000000">0 rows</text>
<polygon fill="#ffffff" stroke="transparent" points="891,-247.7725 891,-266.7725 931,-266.7725 931,-247.7725 891,-247.7725"/>
<polygon fill="none" stroke="#000000" points="891,-247.7725 891,-266.7725 931,-266.7725 931,-247.7725 891,-247.7725"/>
<text text-anchor="start" x="921.8862" y="-253.8725" font-family="Helvetica,sans-Serif" font-size="11.00" fill="#000000"> &#160;</text>
</a>
</g>
</g>
<!-- StudentEvaluationReport&#45;&gt;AspNetUsers -->
<g id="edge38" class="edge">
<title>StudentEvaluationReport:w&#45;&gt;AspNetUsers:e</title>
<path fill="none" stroke="#000000" d="M733.4963,-274.9469C593.7809,-265.7067 266.045,-212.195 163,-283.7725 91.7009,-333.2985 72.2591,-443.7498 66.9696,-500.2244"/>
<polygon fill="#000000" stroke="#000000" points="740.0129,-275.3178 747.7954,-279.3666 744.0065,-275.5451 748,-275.7725 748,-275.7725 748,-275.7725 744.0065,-275.5451 748.2046,-272.1783 740.0129,-275.3178 740.0129,-275.3178"/>
<ellipse fill="none" stroke="#000000" cx="736.8181" cy="-275.1359" rx="3.2" ry="3.2"/>
</g>
<!-- StudentEvaluationReport&#45;&gt;AspNetUsers -->
<g id="edge41" class="edge">
<title>StudentEvaluationReport:w&#45;&gt;AspNetUsers:e</title>
<path fill="none" stroke="#000000" d="M733.4963,-276.2704C593.7809,-278.7067 266.045,-225.195 163,-296.7725 95.0871,-343.9463 74.2228,-446.3958 67.823,-500.2682"/>
<polygon fill="#000000" stroke="#000000" points="740.0047,-276.047 748.1235,-279.3703 744.0024,-275.9097 748,-275.7725 748,-275.7725 748,-275.7725 744.0024,-275.9097 747.8765,-272.1746 740.0047,-276.047 740.0047,-276.047"/>
<ellipse fill="none" stroke="#000000" cx="736.8066" cy="-276.1568" rx="3.2" ry="3.2"/>
</g>
<!-- StudentEvaluationReport&#45;&gt;EvaluationPeriods -->
<g id="edge39" class="edge">
<title>StudentEvaluationReport:w&#45;&gt;EvaluationPeriods:e</title>
<path fill="none" stroke="#000000" d="M733.4971,-276.186C712.8607,-277.465 703.1332,-281.4695 677,-284.7725 567.6717,-298.5903 534.6581,-278.3744 431,-315.7725 392.0899,-329.8105 393.865,-365.7725 352.5,-365.7725"/>
<polygon fill="#000000" stroke="#000000" points="740.0032,-276.0005 748.1026,-279.371 744.0016,-275.8865 748,-275.7725 748,-275.7725 748,-275.7725 744.0016,-275.8865 747.8974,-272.1739 740.0032,-276.0005 740.0032,-276.0005"/>
<ellipse fill="none" stroke="#000000" cx="736.8045" cy="-276.0917" rx="3.2" ry="3.2"/>
</g>
<!-- StudentEvaluationReport&#45;&gt;Students -->
<g id="edge40" class="edge">
<title>StudentEvaluationReport:w&#45;&gt;Students:e</title>
<path fill="none" stroke="#000000" d="M733.9536,-272.0984C707.4409,-263.8044 650.1762,-243.1307 607.3225,-227.4409"/>
<polygon fill="#000000" stroke="#000000" points="740.2604,-273.748 747.089,-279.2553 744.1302,-274.7602 748,-275.7725 748,-275.7725 748,-275.7725 744.1302,-274.7602 748.911,-272.2896 740.2604,-273.748 740.2604,-273.748"/>
<ellipse fill="none" stroke="#000000" cx="737.1645" cy="-272.9382" rx="3.2" ry="3.2"/>
</g>
<!-- StudentSubjects -->
<g id="node21" class="node">
<title>StudentSubjects</title>
<g id="a_node21"><a xlink:href="../../tables/StudentSubjects.html" xlink:title="StudentSubjects" target="_top">
<polygon fill="#ffffff" stroke="transparent" points="772.5,-138.2725 772.5,-199.2725 905.5,-199.2725 905.5,-138.2725 772.5,-138.2725"/>
<polygon fill="#f5f5f5" stroke="transparent" points="773,-175.7725 773,-198.7725 906,-198.7725 906,-175.7725 773,-175.7725"/>
<polygon fill="none" stroke="#000000" points="773,-175.7725 773,-198.7725 906,-198.7725 906,-175.7725 773,-175.7725"/>
<text text-anchor="start" x="778" y="-184.3725" font-family="Helvetica,sans-Serif" font-weight="bold" font-size="11.00" fill="#000000">StudentSubjects</text>
<text text-anchor="start" x="871.5219" y="-183.8725" font-family="Helvetica,sans-Serif" font-size="11.00" fill="#000000">[table]</text>
<polygon fill="none" stroke="#000000" points="773,-156.7725 773,-175.7725 906,-175.7725 906,-156.7725 773,-156.7725"/>
<text text-anchor="start" x="776" y="-162.8725" font-family="Helvetica,sans-Serif" font-size="11.00" fill="#000000">...</text>
<polygon fill="#ffffff" stroke="transparent" points="773,-137.7725 773,-156.7725 825,-156.7725 825,-137.7725 773,-137.7725"/>
<polygon fill="none" stroke="#000000" points="773,-137.7725 773,-156.7725 825,-156.7725 825,-137.7725 773,-137.7725"/>
<text text-anchor="start" x="776" y="-143.8725" font-family="Helvetica,sans-Serif" font-size="11.00" fill="#000000">&lt; 4</text>
<polygon fill="#ffffff" stroke="transparent" points="825,-137.7725 825,-156.7725 878,-156.7725 878,-137.7725 825,-137.7725"/>
<polygon fill="none" stroke="#000000" points="825,-137.7725 825,-156.7725 878,-156.7725 878,-137.7725 825,-137.7725"/>
<text text-anchor="start" x="842.6105" y="-143.8725" font-family="Helvetica,sans-Serif" font-size="11.00" fill="#000000">0 rows</text>
<polygon fill="#ffffff" stroke="transparent" points="878,-137.7725 878,-156.7725 906,-156.7725 906,-137.7725 878,-137.7725"/>
<polygon fill="none" stroke="#000000" points="878,-137.7725 878,-156.7725 906,-156.7725 906,-137.7725 878,-137.7725"/>
<text text-anchor="start" x="896.8862" y="-143.8725" font-family="Helvetica,sans-Serif" font-size="11.00" fill="#000000"> &#160;</text>
</a>
</g>
</g>
<!-- StudentSubjects&#45;&gt;AspNetUsers -->
<g id="edge44" class="edge">
<title>StudentSubjects:w&#45;&gt;AspNetUsers:e</title>
<path fill="none" stroke="#000000" d="M758.2928,-164.9593C612.4238,-155.5151 264.4163,-97.8526 163,-180.7725 113.3146,-221.3962 80.473,-419.1851 69.2702,-500.1788"/>
<polygon fill="#000000" stroke="#000000" points="765.0122,-165.3308 772.8012,-169.367 769.0061,-165.5516 773,-165.7725 773,-165.7725 773,-165.7725 769.0061,-165.5516 773.1988,-162.1779 765.0122,-165.3308 765.0122,-165.3308"/>
<ellipse fill="none" stroke="#000000" cx="761.8171" cy="-165.1541" rx="3.2" ry="3.2"/>
</g>
<!-- StudentSubjects&#45;&gt;AspNetUsers -->
<g id="edge47" class="edge">
<title>StudentSubjects:w&#45;&gt;AspNetUsers:e</title>
<path fill="none" stroke="#000000" d="M758.2928,-166.2473C612.4238,-168.5151 264.4163,-110.8526 163,-193.7725 114.7116,-233.254 82.3332,-421.1868 70.2664,-499.9925"/>
<polygon fill="#000000" stroke="#000000" points="765.0042,-166.0307 773.1162,-169.3706 769.0021,-165.9016 773,-165.7725 773,-165.7725 773,-165.7725 769.0021,-165.9016 772.8838,-162.1743 765.0042,-166.0307 765.0042,-166.0307"/>
<ellipse fill="none" stroke="#000000" cx="761.8058" cy="-166.1339" rx="3.2" ry="3.2"/>
</g>
<!-- StudentSubjects&#45;&gt;Subjects -->
<g id="edge46" class="edge">
<title>StudentSubjects:w&#45;&gt;Subjects:e</title>
<path fill="none" stroke="#000000" d="M761.6871,-175.109C730.8819,-201.4328 644.4711,-277.248 593.3342,-322.1838"/>
<polygon fill="#000000" stroke="#000000" points="766.8299,-170.8647 775.2915,-168.549 769.915,-168.3186 773,-165.7725 773,-165.7725 773,-165.7725 769.915,-168.3186 770.7085,-162.9959 766.8299,-170.8647 766.8299,-170.8647"/>
<ellipse fill="none" stroke="#000000" cx="764.3619" cy="-172.9015" rx="3.2" ry="3.2"/>
</g>
<!-- StudentSubjects&#45;&gt;Students -->
<g id="edge45" class="edge">
<title>StudentSubjects:w&#45;&gt;Students:e</title>
<path fill="none" stroke="#000000" d="M758.3835,-166.0618C704.8232,-168.1303 647.3291,-180.9019 607.0069,-191.7742"/>
<polygon fill="#000000" stroke="#000000" points="765.0016,-165.9308 773.0713,-169.3718 769.0008,-165.8516 773,-165.7725 773,-165.7725 773,-165.7725 769.0008,-165.8516 772.9287,-162.1732 765.0016,-165.9308 765.0016,-165.9308"/>
<ellipse fill="none" stroke="#000000" cx="761.8022" cy="-165.9942" rx="3.2" ry="3.2"/>
</g>
</g>
</svg>
