<?xml version="1.0" encoding="UTF-8" standalone="no"?>
<!DOCTYPE svg PUBLIC "-//W3C//DTD SVG 1.1//EN"
 "http://www.w3.org/Graphics/SVG/1.1/DTD/svg11.dtd">
<!-- Generated by graphviz version 2.40.1 (20161225.0304)
 -->
<!-- Title: twoDegreesRelationshipsDiagram Pages: 1 -->
<svg width="1173pt" height="1243pt"
 viewBox="0.00 0.00 1173.00 1242.99" xmlns="http://www.w3.org/2000/svg" xmlns:xlink="http://www.w3.org/1999/xlink">
<g id="graph0" class="graph" transform="scale(1 1) rotate(0) translate(4 1238.9901)">
<title>twoDegreesRelationshipsDiagram</title>
<polygon fill="#ffffff" stroke="transparent" points="-4,4 -4,-1238.9901 1169,-1238.9901 1169,4 -4,4"/>
<text text-anchor="middle" x="72.4936" y="-7.3" font-family="Helvetica,sans-Serif" font-size="11.00" fill="#000000">Generated by SchemaSpy</text>
<!-- AspNetUserClaims -->
<g id="node1" class="node">
<title>AspNetUserClaims</title>
<g id="a_node1"><a xlink:href="../../tables/AspNetUserClaims.html" xlink:title="AspNetUserClaims" target="_top">
<polygon fill="#ffffff" stroke="transparent" points="207,-1169.9901 207,-1230.9901 354,-1230.9901 354,-1169.9901 207,-1169.9901"/>
<polygon fill="#f5f5f5" stroke="transparent" points="207.5,-1207.4901 207.5,-1230.4901 354.5,-1230.4901 354.5,-1207.4901 207.5,-1207.4901"/>
<polygon fill="none" stroke="#000000" points="207.5,-1207.4901 207.5,-1230.4901 354.5,-1230.4901 354.5,-1207.4901 207.5,-1207.4901"/>
<text text-anchor="start" x="212.5" y="-1216.0901" font-family="Helvetica,sans-Serif" font-weight="bold" font-size="11.00" fill="#000000">AspNetUserClaims</text>
<text text-anchor="start" x="320.0219" y="-1215.5901" font-family="Helvetica,sans-Serif" font-size="11.00" fill="#000000">[table]</text>
<polygon fill="none" stroke="#000000" points="207.5,-1188.4901 207.5,-1207.4901 354.5,-1207.4901 354.5,-1188.4901 207.5,-1188.4901"/>
<text text-anchor="start" x="210.5" y="-1194.5901" font-family="Helvetica,sans-Serif" font-size="11.00" fill="#000000">...</text>
<polygon fill="#ffffff" stroke="transparent" points="207.5,-1169.4901 207.5,-1188.4901 266.5,-1188.4901 266.5,-1169.4901 207.5,-1169.4901"/>
<polygon fill="none" stroke="#000000" points="207.5,-1169.4901 207.5,-1188.4901 266.5,-1188.4901 266.5,-1169.4901 207.5,-1169.4901"/>
<text text-anchor="start" x="210.5" y="-1175.5901" font-family="Helvetica,sans-Serif" font-size="11.00" fill="#000000">&lt; 1</text>
<polygon fill="#ffffff" stroke="transparent" points="266.5,-1169.4901 266.5,-1188.4901 323.5,-1188.4901 323.5,-1169.4901 266.5,-1169.4901"/>
<polygon fill="none" stroke="#000000" points="266.5,-1169.4901 266.5,-1188.4901 323.5,-1188.4901 323.5,-1169.4901 266.5,-1169.4901"/>
<text text-anchor="start" x="288.1105" y="-1175.5901" font-family="Helvetica,sans-Serif" font-size="11.00" fill="#000000">0 rows</text>
<polygon fill="#ffffff" stroke="transparent" points="323.5,-1169.4901 323.5,-1188.4901 354.5,-1188.4901 354.5,-1169.4901 323.5,-1169.4901"/>
<polygon fill="none" stroke="#000000" points="323.5,-1169.4901 323.5,-1188.4901 354.5,-1188.4901 354.5,-1169.4901 323.5,-1169.4901"/>
<text text-anchor="start" x="345.3862" y="-1175.5901" font-family="Helvetica,sans-Serif" font-size="11.00" fill="#000000"> &#160;</text>
</a>
</g>
</g>
<!-- AspNetUsers -->
<g id="node2" class="node">
<title>AspNetUsers</title>
<g id="a_node2"><a xlink:href="../../tables/AspNetUsers.html" xlink:title="AspNetUsers" target="_top">
<polygon fill="#ffffff" stroke="transparent" points="8,-635.9901 8,-696.9901 122,-696.9901 122,-635.9901 8,-635.9901"/>
<polygon fill="#f5f5f5" stroke="transparent" points="8,-673.4901 8,-696.4901 122,-696.4901 122,-673.4901 8,-673.4901"/>
<polygon fill="none" stroke="#000000" points="8,-673.4901 8,-696.4901 122,-696.4901 122,-673.4901 8,-673.4901"/>
<text text-anchor="start" x="13" y="-682.0901" font-family="Helvetica,sans-Serif" font-weight="bold" font-size="11.00" fill="#000000">AspNetUsers</text>
<text text-anchor="start" x="87.5219" y="-681.5901" font-family="Helvetica,sans-Serif" font-size="11.00" fill="#000000">[table]</text>
<polygon fill="none" stroke="#000000" points="8,-654.4901 8,-673.4901 122,-673.4901 122,-654.4901 8,-654.4901"/>
<text text-anchor="start" x="11" y="-660.5901" font-family="Helvetica,sans-Serif" font-size="11.00" fill="#000000">...</text>
<polygon fill="#ffffff" stroke="transparent" points="8,-635.4901 8,-654.4901 38,-654.4901 38,-635.4901 8,-635.4901"/>
<polygon fill="none" stroke="#000000" points="8,-635.4901 8,-654.4901 38,-654.4901 38,-635.4901 8,-635.4901"/>
<text text-anchor="start" x="11" y="-641.5901" font-family="Helvetica,sans-Serif" font-size="11.00" fill="#000000"> &#160;</text>
<polygon fill="#ffffff" stroke="transparent" points="38,-635.4901 38,-654.4901 85,-654.4901 85,-635.4901 38,-635.4901"/>
<polygon fill="none" stroke="#000000" points="38,-635.4901 38,-654.4901 85,-654.4901 85,-635.4901 38,-635.4901"/>
<text text-anchor="start" x="49.6105" y="-641.5901" font-family="Helvetica,sans-Serif" font-size="11.00" fill="#000000">0 rows</text>
<polygon fill="#ffffff" stroke="transparent" points="85,-635.4901 85,-654.4901 122,-654.4901 122,-635.4901 85,-635.4901"/>
<polygon fill="none" stroke="#000000" points="85,-635.4901 85,-654.4901 122,-654.4901 122,-635.4901 85,-635.4901"/>
<text text-anchor="start" x="97.2904" y="-641.5901" font-family="Helvetica,sans-Serif" font-size="11.00" fill="#000000">29 &gt;</text>
</a>
</g>
</g>
<!-- AspNetUserClaims&#45;&gt;AspNetUsers -->
<g id="edge1" class="edge">
<title>AspNetUserClaims:w&#45;&gt;AspNetUsers:e</title>
<path fill="none" stroke="#000000" d="M193.1943,-1194.9632C101.5423,-1161.9069 73.5013,-813.8108 66.7996,-701.3305"/>
<polygon fill="#000000" stroke="#000000" points="199.622,-1196.0985 206.8738,-1201.0352 203.561,-1196.7943 207.5,-1197.4901 207.5,-1197.4901 207.5,-1197.4901 203.561,-1196.7943 208.1262,-1193.945 199.622,-1196.0985 199.622,-1196.0985"/>
<ellipse fill="none" stroke="#000000" cx="196.4707" cy="-1195.5419" rx="3.2" ry="3.2"/>
</g>
<!-- AspNetUserLogins -->
<g id="node3" class="node">
<title>AspNetUserLogins</title>
<g id="a_node3"><a xlink:href="../../tables/AspNetUserLogins.html" xlink:title="AspNetUserLogins" target="_top">
<polygon fill="#ffffff" stroke="transparent" points="207,-1087.9901 207,-1148.9901 354,-1148.9901 354,-1087.9901 207,-1087.9901"/>
<polygon fill="#f5f5f5" stroke="transparent" points="207.5,-1125.4901 207.5,-1148.4901 354.5,-1148.4901 354.5,-1125.4901 207.5,-1125.4901"/>
<polygon fill="none" stroke="#000000" points="207.5,-1125.4901 207.5,-1148.4901 354.5,-1148.4901 354.5,-1125.4901 207.5,-1125.4901"/>
<text text-anchor="start" x="212.5" y="-1134.0901" font-family="Helvetica,sans-Serif" font-weight="bold" font-size="11.00" fill="#000000">AspNetUserLogins</text>
<text text-anchor="start" x="320.0219" y="-1133.5901" font-family="Helvetica,sans-Serif" font-size="11.00" fill="#000000">[table]</text>
<polygon fill="none" stroke="#000000" points="207.5,-1106.4901 207.5,-1125.4901 354.5,-1125.4901 354.5,-1106.4901 207.5,-1106.4901"/>
<text text-anchor="start" x="210.5" y="-1112.5901" font-family="Helvetica,sans-Serif" font-size="11.00" fill="#000000">...</text>
<polygon fill="#ffffff" stroke="transparent" points="207.5,-1087.4901 207.5,-1106.4901 266.5,-1106.4901 266.5,-1087.4901 207.5,-1087.4901"/>
<polygon fill="none" stroke="#000000" points="207.5,-1087.4901 207.5,-1106.4901 266.5,-1106.4901 266.5,-1087.4901 207.5,-1087.4901"/>
<text text-anchor="start" x="210.5" y="-1093.5901" font-family="Helvetica,sans-Serif" font-size="11.00" fill="#000000">&lt; 1</text>
<polygon fill="#ffffff" stroke="transparent" points="266.5,-1087.4901 266.5,-1106.4901 323.5,-1106.4901 323.5,-1087.4901 266.5,-1087.4901"/>
<polygon fill="none" stroke="#000000" points="266.5,-1087.4901 266.5,-1106.4901 323.5,-1106.4901 323.5,-1087.4901 266.5,-1087.4901"/>
<text text-anchor="start" x="288.1105" y="-1093.5901" font-family="Helvetica,sans-Serif" font-size="11.00" fill="#000000">0 rows</text>
<polygon fill="#ffffff" stroke="transparent" points="323.5,-1087.4901 323.5,-1106.4901 354.5,-1106.4901 354.5,-1087.4901 323.5,-1087.4901"/>
<polygon fill="none" stroke="#000000" points="323.5,-1087.4901 323.5,-1106.4901 354.5,-1106.4901 354.5,-1087.4901 323.5,-1087.4901"/>
<text text-anchor="start" x="345.3862" y="-1093.5901" font-family="Helvetica,sans-Serif" font-size="11.00" fill="#000000"> &#160;</text>
</a>
</g>
</g>
<!-- AspNetUserLogins&#45;&gt;AspNetUsers -->
<g id="edge2" class="edge">
<title>AspNetUserLogins:w&#45;&gt;AspNetUsers:e</title>
<path fill="none" stroke="#000000" d="M193.1915,-1112.6125C116.1769,-1081.1779 79.232,-800.868 68.4585,-701.3487"/>
<polygon fill="#000000" stroke="#000000" points="199.657,-1113.9127 206.7902,-1119.0194 203.5785,-1114.7014 207.5,-1115.4901 207.5,-1115.4901 207.5,-1115.4901 203.5785,-1114.7014 208.2098,-1111.9607 199.657,-1113.9127 199.657,-1113.9127"/>
<ellipse fill="none" stroke="#000000" cx="196.5198" cy="-1113.2818" rx="3.2" ry="3.2"/>
</g>
<!-- AspNetUserRoles -->
<g id="node4" class="node">
<title>AspNetUserRoles</title>
<g id="a_node4"><a xlink:href="../../tables/AspNetUserRoles.html" xlink:title="AspNetUserRoles" target="_top">
<polygon fill="#ffffff" stroke="transparent" points="210.5,-1005.9901 210.5,-1066.9901 350.5,-1066.9901 350.5,-1005.9901 210.5,-1005.9901"/>
<polygon fill="#f5f5f5" stroke="transparent" points="210.5,-1043.4901 210.5,-1066.4901 350.5,-1066.4901 350.5,-1043.4901 210.5,-1043.4901"/>
<polygon fill="none" stroke="#000000" points="210.5,-1043.4901 210.5,-1066.4901 350.5,-1066.4901 350.5,-1043.4901 210.5,-1043.4901"/>
<text text-anchor="start" x="215.5" y="-1052.0901" font-family="Helvetica,sans-Serif" font-weight="bold" font-size="11.00" fill="#000000">AspNetUserRoles</text>
<text text-anchor="start" x="316.0219" y="-1051.5901" font-family="Helvetica,sans-Serif" font-size="11.00" fill="#000000">[table]</text>
<polygon fill="none" stroke="#000000" points="210.5,-1024.4901 210.5,-1043.4901 350.5,-1043.4901 350.5,-1024.4901 210.5,-1024.4901"/>
<text text-anchor="start" x="213.5" y="-1030.5901" font-family="Helvetica,sans-Serif" font-size="11.00" fill="#000000">...</text>
<polygon fill="#ffffff" stroke="transparent" points="210.5,-1005.4901 210.5,-1024.4901 265.5,-1024.4901 265.5,-1005.4901 210.5,-1005.4901"/>
<polygon fill="none" stroke="#000000" points="210.5,-1005.4901 210.5,-1024.4901 265.5,-1024.4901 265.5,-1005.4901 210.5,-1005.4901"/>
<text text-anchor="start" x="213.5" y="-1011.5901" font-family="Helvetica,sans-Serif" font-size="11.00" fill="#000000">&lt; 2</text>
<polygon fill="#ffffff" stroke="transparent" points="265.5,-1005.4901 265.5,-1024.4901 320.5,-1024.4901 320.5,-1005.4901 265.5,-1005.4901"/>
<polygon fill="none" stroke="#000000" points="265.5,-1005.4901 265.5,-1024.4901 320.5,-1024.4901 320.5,-1005.4901 265.5,-1005.4901"/>
<text text-anchor="start" x="285.1105" y="-1011.5901" font-family="Helvetica,sans-Serif" font-size="11.00" fill="#000000">0 rows</text>
<polygon fill="#ffffff" stroke="transparent" points="320.5,-1005.4901 320.5,-1024.4901 350.5,-1024.4901 350.5,-1005.4901 320.5,-1005.4901"/>
<polygon fill="none" stroke="#000000" points="320.5,-1005.4901 320.5,-1024.4901 350.5,-1024.4901 350.5,-1005.4901 320.5,-1005.4901"/>
<text text-anchor="start" x="341.3862" y="-1011.5901" font-family="Helvetica,sans-Serif" font-size="11.00" fill="#000000"> &#160;</text>
</a>
</g>
</g>
<!-- AspNetUserRoles&#45;&gt;AspNetUsers -->
<g id="edge3" class="edge">
<title>AspNetUserRoles:w&#45;&gt;AspNetUsers:e</title>
<path fill="none" stroke="#000000" d="M196.1975,-1030.2348C132.5202,-1001.2251 86.8069,-786.1308 71.0313,-701.0165"/>
<polygon fill="#000000" stroke="#000000" points="202.6995,-1031.7146 209.701,-1037.0003 206.5997,-1032.6023 210.5,-1033.4901 210.5,-1033.4901 210.5,-1033.4901 206.5997,-1032.6023 211.299,-1029.9799 202.6995,-1031.7146 202.6995,-1031.7146"/>
<ellipse fill="none" stroke="#000000" cx="199.5793" cy="-1031.0044" rx="3.2" ry="3.2"/>
</g>
<!-- AspNetUserTokens -->
<g id="node5" class="node">
<title>AspNetUserTokens</title>
<g id="a_node5"><a xlink:href="../../tables/AspNetUserTokens.html" xlink:title="AspNetUserTokens" target="_top">
<polygon fill="#ffffff" stroke="transparent" points="206,-923.9901 206,-984.9901 355,-984.9901 355,-923.9901 206,-923.9901"/>
<polygon fill="#f5f5f5" stroke="transparent" points="206.5,-961.4901 206.5,-984.4901 355.5,-984.4901 355.5,-961.4901 206.5,-961.4901"/>
<polygon fill="none" stroke="#000000" points="206.5,-961.4901 206.5,-984.4901 355.5,-984.4901 355.5,-961.4901 206.5,-961.4901"/>
<text text-anchor="start" x="211.5" y="-970.0901" font-family="Helvetica,sans-Serif" font-weight="bold" font-size="11.00" fill="#000000">AspNetUserTokens</text>
<text text-anchor="start" x="321.0219" y="-969.5901" font-family="Helvetica,sans-Serif" font-size="11.00" fill="#000000">[table]</text>
<polygon fill="none" stroke="#000000" points="206.5,-942.4901 206.5,-961.4901 355.5,-961.4901 355.5,-942.4901 206.5,-942.4901"/>
<text text-anchor="start" x="209.5" y="-948.5901" font-family="Helvetica,sans-Serif" font-size="11.00" fill="#000000">...</text>
<polygon fill="#ffffff" stroke="transparent" points="206.5,-923.4901 206.5,-942.4901 266.5,-942.4901 266.5,-923.4901 206.5,-923.4901"/>
<polygon fill="none" stroke="#000000" points="206.5,-923.4901 206.5,-942.4901 266.5,-942.4901 266.5,-923.4901 206.5,-923.4901"/>
<text text-anchor="start" x="209.5" y="-929.5901" font-family="Helvetica,sans-Serif" font-size="11.00" fill="#000000">&lt; 1</text>
<polygon fill="#ffffff" stroke="transparent" points="266.5,-923.4901 266.5,-942.4901 323.5,-942.4901 323.5,-923.4901 266.5,-923.4901"/>
<polygon fill="none" stroke="#000000" points="266.5,-923.4901 266.5,-942.4901 323.5,-942.4901 323.5,-923.4901 266.5,-923.4901"/>
<text text-anchor="start" x="288.1105" y="-929.5901" font-family="Helvetica,sans-Serif" font-size="11.00" fill="#000000">0 rows</text>
<polygon fill="#ffffff" stroke="transparent" points="323.5,-923.4901 323.5,-942.4901 355.5,-942.4901 355.5,-923.4901 323.5,-923.4901"/>
<polygon fill="none" stroke="#000000" points="323.5,-923.4901 323.5,-942.4901 355.5,-942.4901 355.5,-923.4901 323.5,-923.4901"/>
<text text-anchor="start" x="346.3862" y="-929.5901" font-family="Helvetica,sans-Serif" font-size="11.00" fill="#000000"> &#160;</text>
</a>
</g>
</g>
<!-- AspNetUserTokens&#45;&gt;AspNetUsers -->
<g id="edge4" class="edge">
<title>AspNetUserTokens:w&#45;&gt;AspNetUsers:e</title>
<path fill="none" stroke="#000000" d="M192.1094,-950.4591C93.7472,-936.0213 71.5015,-773.6928 66.4704,-701.1517"/>
<polygon fill="#000000" stroke="#000000" points="198.5205,-950.9183 206.2427,-955.0809 202.5102,-951.2042 206.5,-951.4901 206.5,-951.4901 206.5,-951.4901 202.5102,-951.2042 206.7573,-947.8993 198.5205,-950.9183 198.5205,-950.9183"/>
<ellipse fill="none" stroke="#000000" cx="195.3286" cy="-950.6897" rx="3.2" ry="3.2"/>
</g>
<!-- Competencies -->
<g id="node6" class="node">
<title>Competencies</title>
<g id="a_node6"><a xlink:href="../../tables/Competencies.html" xlink:title="Competencies" target="_top">
<polygon fill="#ffffff" stroke="transparent" points="220,-762.9901 220,-823.9901 341,-823.9901 341,-762.9901 220,-762.9901"/>
<polygon fill="#f5f5f5" stroke="transparent" points="220.5,-800.4901 220.5,-823.4901 341.5,-823.4901 341.5,-800.4901 220.5,-800.4901"/>
<polygon fill="none" stroke="#000000" points="220.5,-800.4901 220.5,-823.4901 341.5,-823.4901 341.5,-800.4901 220.5,-800.4901"/>
<text text-anchor="start" x="225.5" y="-809.0901" font-family="Helvetica,sans-Serif" font-weight="bold" font-size="11.00" fill="#000000">Competencies</text>
<text text-anchor="start" x="307.0219" y="-808.5901" font-family="Helvetica,sans-Serif" font-size="11.00" fill="#000000">[table]</text>
<polygon fill="none" stroke="#000000" points="220.5,-781.4901 220.5,-800.4901 341.5,-800.4901 341.5,-781.4901 220.5,-781.4901"/>
<text text-anchor="start" x="223.5" y="-787.5901" font-family="Helvetica,sans-Serif" font-size="11.00" fill="#000000">...</text>
<polygon fill="#ffffff" stroke="transparent" points="220.5,-762.4901 220.5,-781.4901 261.5,-781.4901 261.5,-762.4901 220.5,-762.4901"/>
<polygon fill="none" stroke="#000000" points="220.5,-762.4901 220.5,-781.4901 261.5,-781.4901 261.5,-762.4901 220.5,-762.4901"/>
<text text-anchor="start" x="223.5" y="-768.5901" font-family="Helvetica,sans-Serif" font-size="11.00" fill="#000000">&lt; 2</text>
<polygon fill="#ffffff" stroke="transparent" points="261.5,-762.4901 261.5,-781.4901 309.5,-781.4901 309.5,-762.4901 261.5,-762.4901"/>
<polygon fill="none" stroke="#000000" points="261.5,-762.4901 261.5,-781.4901 309.5,-781.4901 309.5,-762.4901 261.5,-762.4901"/>
<text text-anchor="start" x="274.1105" y="-768.5901" font-family="Helvetica,sans-Serif" font-size="11.00" fill="#000000">0 rows</text>
<polygon fill="#ffffff" stroke="transparent" points="309.5,-762.4901 309.5,-781.4901 341.5,-781.4901 341.5,-762.4901 309.5,-762.4901"/>
<polygon fill="none" stroke="#000000" points="309.5,-762.4901 309.5,-781.4901 341.5,-781.4901 341.5,-762.4901 309.5,-762.4901"/>
<text text-anchor="start" x="322.9053" y="-768.5901" font-family="Helvetica,sans-Serif" font-size="11.00" fill="#000000">4 &gt;</text>
</a>
</g>
</g>
<!-- Competencies&#45;&gt;AspNetUsers -->
<g id="edge5" class="edge">
<title>Competencies:w&#45;&gt;AspNetUsers:e</title>
<path fill="none" stroke="#000000" d="M206.0891,-788.4648C156.962,-778.0278 115.6222,-733.4721 90.6375,-701.1743"/>
<polygon fill="#000000" stroke="#000000" points="212.5778,-789.3767 219.999,-794.055 216.5389,-789.9334 220.5,-790.4901 220.5,-790.4901 220.5,-790.4901 216.5389,-789.9334 221.001,-786.9251 212.5778,-789.3767 212.5778,-789.3767"/>
<ellipse fill="none" stroke="#000000" cx="209.409" cy="-788.9313" rx="3.2" ry="3.2"/>
</g>
<!-- Competencies&#45;&gt;AspNetUsers -->
<g id="edge6" class="edge">
<title>Competencies:w&#45;&gt;AspNetUsers:e</title>
<path fill="none" stroke="#000000" d="M205.921,-790.4822C152.339,-786.2164 108.0389,-736.3363 84.1494,-701.079"/>
<polygon fill="#000000" stroke="#000000" points="212.5,-790.4857 220.498,-794.0901 216.5,-790.4879 220.5,-790.4901 220.5,-790.4901 220.5,-790.4901 216.5,-790.4879 220.502,-786.8901 212.5,-790.4857 212.5,-790.4857"/>
<ellipse fill="none" stroke="#000000" cx="209.3" cy="-790.484" rx="3.2" ry="3.2"/>
</g>
<!-- CompetencyLevelDescriptions -->
<g id="node7" class="node">
<title>CompetencyLevelDescriptions</title>
<g id="a_node7"><a xlink:href="../../tables/CompetencyLevelDescriptions.html" xlink:title="CompetencyLevelDescriptions" target="_top">
<polygon fill="#ffffff" stroke="transparent" points="453,-908.9901 453,-969.9901 667,-969.9901 667,-908.9901 453,-908.9901"/>
<polygon fill="#f5f5f5" stroke="transparent" points="453,-946.4901 453,-969.4901 667,-969.4901 667,-946.4901 453,-946.4901"/>
<polygon fill="none" stroke="#000000" points="453,-946.4901 453,-969.4901 667,-969.4901 667,-946.4901 453,-946.4901"/>
<text text-anchor="start" x="458" y="-955.0901" font-family="Helvetica,sans-Serif" font-weight="bold" font-size="11.00" fill="#000000">CompetencyLevelDescriptions</text>
<text text-anchor="start" x="632.5219" y="-954.5901" font-family="Helvetica,sans-Serif" font-size="11.00" fill="#000000">[table]</text>
<polygon fill="none" stroke="#000000" points="453,-927.4901 453,-946.4901 667,-946.4901 667,-927.4901 453,-927.4901"/>
<text text-anchor="start" x="456" y="-933.5901" font-family="Helvetica,sans-Serif" font-size="11.00" fill="#000000">...</text>
<polygon fill="#ffffff" stroke="transparent" points="453,-908.4901 453,-927.4901 545,-927.4901 545,-908.4901 453,-908.4901"/>
<polygon fill="none" stroke="#000000" points="453,-908.4901 453,-927.4901 545,-927.4901 545,-908.4901 453,-908.4901"/>
<text text-anchor="start" x="456" y="-914.5901" font-family="Helvetica,sans-Serif" font-size="11.00" fill="#000000">&lt; 3</text>
<polygon fill="#ffffff" stroke="transparent" points="545,-908.4901 545,-927.4901 619,-927.4901 619,-908.4901 545,-908.4901"/>
<polygon fill="none" stroke="#000000" points="545,-908.4901 545,-927.4901 619,-927.4901 619,-908.4901 545,-908.4901"/>
<text text-anchor="start" x="583.6105" y="-914.5901" font-family="Helvetica,sans-Serif" font-size="11.00" fill="#000000">0 rows</text>
<polygon fill="#ffffff" stroke="transparent" points="619,-908.4901 619,-927.4901 667,-927.4901 667,-908.4901 619,-908.4901"/>
<polygon fill="none" stroke="#000000" points="619,-908.4901 619,-927.4901 667,-927.4901 667,-908.4901 619,-908.4901"/>
<text text-anchor="start" x="657.8862" y="-914.5901" font-family="Helvetica,sans-Serif" font-size="11.00" fill="#000000"> &#160;</text>
</a>
</g>
</g>
<!-- CompetencyLevelDescriptions&#45;&gt;AspNetUsers -->
<g id="edge8" class="edge">
<title>CompetencyLevelDescriptions:w&#45;&gt;AspNetUsers:e</title>
<path fill="none" stroke="#000000" d="M439.3667,-931.8085C424.3234,-924.536 418.241,-913.4978 398,-907.4901 296.2105,-877.2778 247.4004,-928.914 163,-864.4901 109.5926,-823.7235 83.8083,-746.3974 72.5738,-701.3305"/>
<polygon fill="#000000" stroke="#000000" points="445.4337,-933.8918 451.8308,-939.8949 449.2168,-935.1909 453,-936.4901 453,-936.4901 453,-936.4901 449.2168,-935.1909 454.1692,-933.0852 445.4337,-933.8918 445.4337,-933.8918"/>
<ellipse fill="none" stroke="#000000" cx="442.4072" cy="-932.8525" rx="3.2" ry="3.2"/>
</g>
<!-- CompetencyLevelDescriptions&#45;&gt;AspNetUsers -->
<g id="edge9" class="edge">
<title>CompetencyLevelDescriptions:w&#45;&gt;AspNetUsers:e</title>
<path fill="none" stroke="#000000" d="M438.4919,-938.1775C424.0794,-937.105 417.8441,-926.38 398,-920.4901 296.2105,-890.2778 247.4004,-941.914 163,-877.4901 106.157,-834.1011 80.6053,-749.2977 70.5829,-701.3808"/>
<polygon fill="#000000" stroke="#000000" points="445.0536,-937.4144 453.4159,-940.066 449.0268,-936.9522 453,-936.4901 453,-936.4901 453,-936.4901 449.0268,-936.9522 452.5841,-932.9142 445.0536,-937.4144 445.0536,-937.4144"/>
<ellipse fill="none" stroke="#000000" cx="441.875" cy="-937.7841" rx="3.2" ry="3.2"/>
</g>
<!-- CompetencyLevelDescriptions&#45;&gt;Competencies -->
<g id="edge7" class="edge">
<title>CompetencyLevelDescriptions:w&#45;&gt;Competencies:e</title>
<path fill="none" stroke="#000000" d="M438.4215,-934.6441C377.643,-917.7433 417.7256,-790.4901 341.5,-790.4901"/>
<polygon fill="#000000" stroke="#000000" points="445.0634,-935.4851 452.5477,-940.0616 449.0317,-935.9876 453,-936.4901 453,-936.4901 453,-936.4901 449.0317,-935.9876 453.4523,-932.9186 445.0634,-935.4851 445.0634,-935.4851"/>
<ellipse fill="none" stroke="#000000" cx="441.8887" cy="-935.0831" rx="3.2" ry="3.2"/>
</g>
<!-- CompetencyTechnicalCareer -->
<g id="node8" class="node">
<title>CompetencyTechnicalCareer</title>
<g id="a_node8"><a xlink:href="../../tables/CompetencyTechnicalCareer.html" xlink:title="CompetencyTechnicalCareer" target="_top">
<polygon fill="#ffffff" stroke="transparent" points="458,-719.4901 458,-805.4901 662,-805.4901 662,-719.4901 458,-719.4901"/>
<polygon fill="#f5f5f5" stroke="transparent" points="458,-782.4901 458,-805.4901 662,-805.4901 662,-782.4901 458,-782.4901"/>
<polygon fill="none" stroke="#000000" points="458,-782.4901 458,-805.4901 662,-805.4901 662,-782.4901 458,-782.4901"/>
<text text-anchor="start" x="463" y="-791.0901" font-family="Helvetica,sans-Serif" font-weight="bold" font-size="11.00" fill="#000000">CompetencyTechnicalCareer</text>
<text text-anchor="start" x="627.5219" y="-790.5901" font-family="Helvetica,sans-Serif" font-size="11.00" fill="#000000">[table]</text>
<polygon fill="none" stroke="#000000" points="458,-760.4901 458,-782.4901 662,-782.4901 662,-760.4901 458,-760.4901"/>
<image xlink:href="../../images/primaryKeys.png" width="11px" height="12px" preserveAspectRatio="xMinYMin meet" x="463" y="-777.49"/>
<text text-anchor="start" x="487" y="-767.5901" font-family="Helvetica,sans-Serif" font-size="11.00" fill="#000000">CompetenciesId</text>
<polygon fill="none" stroke="#000000" points="458,-738.4901 458,-760.4901 662,-760.4901 662,-738.4901 458,-738.4901"/>
<image xlink:href="../../images/primaryKeys.png" width="11px" height="12px" preserveAspectRatio="xMinYMin meet" x="463" y="-755.49"/>
<text text-anchor="start" x="487" y="-745.5901" font-family="Helvetica,sans-Serif" font-size="11.00" fill="#000000">TechnicalCareersId</text>
<polygon fill="#ffffff" stroke="transparent" points="458,-719.4901 458,-738.4901 545,-738.4901 545,-719.4901 458,-719.4901"/>
<polygon fill="none" stroke="#000000" points="458,-719.4901 458,-738.4901 545,-738.4901 545,-719.4901 458,-719.4901"/>
<text text-anchor="start" x="461" y="-725.5901" font-family="Helvetica,sans-Serif" font-size="11.00" fill="#000000">&lt; 2</text>
<polygon fill="#ffffff" stroke="transparent" points="545,-719.4901 545,-738.4901 616,-738.4901 616,-719.4901 545,-719.4901"/>
<polygon fill="none" stroke="#000000" points="545,-719.4901 545,-738.4901 616,-738.4901 616,-719.4901 545,-719.4901"/>
<text text-anchor="start" x="580.6105" y="-725.5901" font-family="Helvetica,sans-Serif" font-size="11.00" fill="#000000">0 rows</text>
<polygon fill="#ffffff" stroke="transparent" points="616,-719.4901 616,-738.4901 662,-738.4901 662,-719.4901 616,-719.4901"/>
<polygon fill="none" stroke="#000000" points="616,-719.4901 616,-738.4901 662,-738.4901 662,-719.4901 616,-719.4901"/>
<text text-anchor="start" x="652.8862" y="-725.5901" font-family="Helvetica,sans-Serif" font-size="11.00" fill="#000000"> &#160;</text>
</a>
</g>
</g>
<!-- CompetencyTechnicalCareer&#45;&gt;Competencies -->
<g id="edge10" class="edge">
<title>CompetencyTechnicalCareer:w&#45;&gt;Competencies:e</title>
<path fill="none" stroke="#000000" d="M443.4591,-772.0181C402.8263,-775.0867 388.7362,-790.4901 341.5,-790.4901"/>
<polygon fill="#000000" stroke="#000000" points="450.0053,-771.7804 458.1307,-775.0877 454.0026,-771.6353 458,-771.4901 458,-771.4901 458,-771.4901 454.0026,-771.6353 457.8693,-767.8924 450.0053,-771.7804 450.0053,-771.7804"/>
<ellipse fill="none" stroke="#000000" cx="446.8074" cy="-771.8966" rx="3.2" ry="3.2"/>
</g>
<!-- TechnicalCareers -->
<g id="node9" class="node">
<title>TechnicalCareers</title>
<g id="a_node9"><a xlink:href="../../tables/TechnicalCareers.html" xlink:title="TechnicalCareers" target="_top">
<polygon fill="#ffffff" stroke="transparent" points="171,-353.4901 171,-553.4901 390,-553.4901 390,-353.4901 171,-353.4901"/>
<polygon fill="#f5f5f5" stroke="transparent" points="173.5,-528.4901 173.5,-551.4901 388.5,-551.4901 388.5,-528.4901 173.5,-528.4901"/>
<polygon fill="none" stroke="#000000" points="173.5,-528.4901 173.5,-551.4901 388.5,-551.4901 388.5,-528.4901 173.5,-528.4901"/>
<text text-anchor="start" x="178.5" y="-537.0901" font-family="Helvetica,sans-Serif" font-weight="bold" font-size="11.00" fill="#000000">TechnicalCareers</text>
<text text-anchor="start" x="353.5437" y="-536.5901" font-family="Helvetica,sans-Serif" font-size="11.00" fill="#000000">[table]</text>
<polygon fill="none" stroke="#000000" points="173.5,-506.4901 173.5,-528.4901 294.5,-528.4901 294.5,-506.4901 173.5,-506.4901"/>
<image xlink:href="../../images/primaryKeys.png" width="11px" height="12px" preserveAspectRatio="xMinYMin meet" x="178.5" y="-523.49"/>
<text text-anchor="start" x="193.5" y="-513.5901" font-family="Helvetica,sans-Serif" font-size="11.00" fill="#000000">Id</text>
<polygon fill="none" stroke="#000000" points="294.5,-506.4901 294.5,-528.4901 388.5,-528.4901 388.5,-506.4901 294.5,-506.4901"/>
<text text-anchor="start" x="297.4758" y="-514.1901" font-family="Helvetica,sans-Serif" font-size="11.00" fill="#000000">uuid[2147483647]</text>
<polygon fill="none" stroke="#000000" points="173.5,-484.4901 173.5,-506.4901 294.5,-506.4901 294.5,-484.4901 173.5,-484.4901"/>
<text text-anchor="start" x="193.5" y="-491.5901" font-family="Helvetica,sans-Serif" font-size="11.00" fill="#000000">Name</text>
<polygon fill="none" stroke="#000000" points="294.5,-484.4901 294.5,-506.4901 388.5,-506.4901 388.5,-484.4901 294.5,-484.4901"/>
<text text-anchor="start" x="297.5" y="-492.1901" font-family="Helvetica,sans-Serif" font-size="11.00" fill="#000000">text[2147483647]</text>
<polygon fill="none" stroke="#000000" points="173.5,-462.4901 173.5,-484.4901 294.5,-484.4901 294.5,-462.4901 173.5,-462.4901"/>
<text text-anchor="start" x="193.5" y="-469.5901" font-family="Helvetica,sans-Serif" font-size="11.00" fill="#000000">IsActive</text>
<polygon fill="none" stroke="#000000" points="294.5,-462.4901 294.5,-484.4901 388.5,-484.4901 388.5,-462.4901 294.5,-462.4901"/>
<text text-anchor="start" x="297.5" y="-470.1901" font-family="Helvetica,sans-Serif" font-size="11.00" fill="#000000">bool[1]</text>
<polygon fill="none" stroke="#000000" points="173.5,-440.4901 173.5,-462.4901 294.5,-462.4901 294.5,-440.4901 173.5,-440.4901"/>
<text text-anchor="start" x="193.5" y="-447.5901" font-family="Helvetica,sans-Serif" font-size="11.00" fill="#000000">CreatedAt</text>
<polygon fill="none" stroke="#000000" points="294.5,-440.4901 294.5,-462.4901 388.5,-462.4901 388.5,-440.4901 294.5,-440.4901"/>
<text text-anchor="start" x="297.5" y="-448.1901" font-family="Helvetica,sans-Serif" font-size="11.00" fill="#000000">timestamptz[35,6]</text>
<polygon fill="none" stroke="#000000" points="173.5,-418.4901 173.5,-440.4901 294.5,-440.4901 294.5,-418.4901 173.5,-418.4901"/>
<text text-anchor="start" x="193.5" y="-425.5901" font-family="Helvetica,sans-Serif" font-size="11.00" fill="#000000">UpdatedAt</text>
<polygon fill="none" stroke="#000000" points="294.5,-418.4901 294.5,-440.4901 388.5,-440.4901 388.5,-418.4901 294.5,-418.4901"/>
<text text-anchor="start" x="297.5" y="-426.1901" font-family="Helvetica,sans-Serif" font-size="11.00" fill="#000000">timestamptz[35,6]</text>
<polygon fill="#ffffff" stroke="transparent" points="173.5,-396.4901 173.5,-418.4901 294.5,-418.4901 294.5,-396.4901 173.5,-396.4901"/>
<polygon fill="none" stroke="#000000" points="173.5,-396.4901 173.5,-418.4901 294.5,-418.4901 294.5,-396.4901 173.5,-396.4901"/>
<image xlink:href="../../images/foreignKeys.png" width="11px" height="12px" preserveAspectRatio="xMinYMin meet" x="178.5" y="-413.49"/>
<text text-anchor="start" x="193.5" y="-403.5901" font-family="Helvetica,sans-Serif" font-size="11.00" fill="#000000">CreatedByUserId</text>
<polygon fill="none" stroke="#000000" points="294.5,-396.4901 294.5,-418.4901 388.5,-418.4901 388.5,-396.4901 294.5,-396.4901"/>
<text text-anchor="start" x="297.5" y="-404.1901" font-family="Helvetica,sans-Serif" font-size="11.00" fill="#000000">text[2147483647]</text>
<polygon fill="#ffffff" stroke="transparent" points="173.5,-374.4901 173.5,-396.4901 294.5,-396.4901 294.5,-374.4901 173.5,-374.4901"/>
<polygon fill="none" stroke="#000000" points="173.5,-374.4901 173.5,-396.4901 294.5,-396.4901 294.5,-374.4901 173.5,-374.4901"/>
<image xlink:href="../../images/foreignKeys.png" width="11px" height="12px" preserveAspectRatio="xMinYMin meet" x="178.5" y="-391.49"/>
<text text-anchor="start" x="193.5" y="-381.5901" font-family="Helvetica,sans-Serif" font-size="11.00" fill="#000000">UpdatedByUserId</text>
<polygon fill="none" stroke="#000000" points="294.5,-374.4901 294.5,-396.4901 388.5,-396.4901 388.5,-374.4901 294.5,-374.4901"/>
<text text-anchor="start" x="297.5" y="-382.1901" font-family="Helvetica,sans-Serif" font-size="11.00" fill="#000000">text[2147483647]</text>
<polygon fill="#ffffff" stroke="transparent" points="173.5,-355.4901 173.5,-374.4901 225.5,-374.4901 225.5,-355.4901 173.5,-355.4901"/>
<polygon fill="none" stroke="#000000" points="173.5,-355.4901 173.5,-374.4901 225.5,-374.4901 225.5,-355.4901 173.5,-355.4901"/>
<text text-anchor="start" x="176.5" y="-361.5901" font-family="Helvetica,sans-Serif" font-size="11.00" fill="#000000">&lt; 2</text>
<polygon fill="#ffffff" stroke="transparent" points="225.5,-355.4901 225.5,-374.4901 294.5,-374.4901 294.5,-355.4901 225.5,-355.4901"/>
<polygon fill="none" stroke="#000000" points="225.5,-355.4901 225.5,-374.4901 294.5,-374.4901 294.5,-355.4901 225.5,-355.4901"/>
<text text-anchor="start" x="259.1105" y="-361.5901" font-family="Helvetica,sans-Serif" font-size="11.00" fill="#000000">0 rows</text>
<polygon fill="#ffffff" stroke="transparent" points="294.5,-355.4901 294.5,-374.4901 388.5,-374.4901 388.5,-355.4901 294.5,-355.4901"/>
<polygon fill="none" stroke="#000000" points="294.5,-355.4901 294.5,-374.4901 388.5,-374.4901 388.5,-355.4901 294.5,-355.4901"/>
<text text-anchor="start" x="369.9053" y="-361.5901" font-family="Helvetica,sans-Serif" font-size="11.00" fill="#000000">6 &gt;</text>
<polygon fill="none" stroke="#000000" stroke-width="2" points="172,-354.4901 172,-552.4901 389,-552.4901 389,-354.4901 172,-354.4901"/>
</a>
</g>
</g>
<!-- CompetencyTechnicalCareer&#45;&gt;TechnicalCareers -->
<g id="edge11" class="edge">
<title>CompetencyTechnicalCareer:w&#45;&gt;TechnicalCareers:e</title>
<path fill="none" stroke="#000000" d="M443.4961,-747.756C364.5136,-726.5258 490.6724,-517.4901 388.5,-517.4901"/>
<polygon fill="#000000" stroke="#000000" points="450.0566,-748.5403 457.5726,-753.0646 454.0283,-749.0152 458,-749.4901 458,-749.4901 458,-749.4901 454.0283,-749.0152 458.4274,-745.9155 450.0566,-748.5403 450.0566,-748.5403"/>
<ellipse fill="none" stroke="#000000" cx="446.8792" cy="-748.1604" rx="3.2" ry="3.2"/>
</g>
<!-- TechnicalCareers&#45;&gt;AspNetUsers -->
<g id="edge50" class="edge">
<title>TechnicalCareers:w&#45;&gt;AspNetUsers:e</title>
<path fill="none" stroke="#000000" d="M159.7034,-411.6686C118.1408,-436.7287 85.543,-568.1459 71.9234,-631.8289"/>
<polygon fill="#000000" stroke="#000000" points="165.8435,-409.809 174.5435,-410.9355 169.6717,-408.6496 173.5,-407.4901 173.5,-407.4901 173.5,-407.4901 169.6717,-408.6496 172.4565,-404.0446 165.8435,-409.809 165.8435,-409.809"/>
<ellipse fill="none" stroke="#000000" cx="162.7808" cy="-410.7366" rx="3.2" ry="3.2"/>
</g>
<!-- TechnicalCareers&#45;&gt;AspNetUsers -->
<g id="edge51" class="edge">
<title>TechnicalCareers:w&#45;&gt;AspNetUsers:e</title>
<path fill="none" stroke="#000000" d="M159.5129,-389.6085C114.7126,-416.0912 83.2375,-563.4718 70.8481,-631.7521"/>
<polygon fill="#000000" stroke="#000000" points="165.8257,-387.7497 174.5168,-388.9435 169.6629,-386.6199 173.5,-385.4901 173.5,-385.4901 173.5,-385.4901 169.6629,-386.6199 172.4832,-382.0367 165.8257,-387.7497 165.8257,-387.7497"/>
<ellipse fill="none" stroke="#000000" cx="162.756" cy="-388.6536" rx="3.2" ry="3.2"/>
</g>
<!-- Coordinators -->
<g id="node10" class="node">
<title>Coordinators</title>
<g id="a_node10"><a xlink:href="../../tables/Coordinators.html" xlink:title="Coordinators" target="_top">
<polygon fill="#ffffff" stroke="transparent" points="503,-597.9901 503,-658.9901 617,-658.9901 617,-597.9901 503,-597.9901"/>
<polygon fill="#f5f5f5" stroke="transparent" points="503,-635.4901 503,-658.4901 617,-658.4901 617,-635.4901 503,-635.4901"/>
<polygon fill="none" stroke="#000000" points="503,-635.4901 503,-658.4901 617,-658.4901 617,-635.4901 503,-635.4901"/>
<text text-anchor="start" x="508" y="-644.0901" font-family="Helvetica,sans-Serif" font-weight="bold" font-size="11.00" fill="#000000">Coordinators</text>
<text text-anchor="start" x="582.5219" y="-643.5901" font-family="Helvetica,sans-Serif" font-size="11.00" fill="#000000">[table]</text>
<polygon fill="none" stroke="#000000" points="503,-616.4901 503,-635.4901 617,-635.4901 617,-616.4901 503,-616.4901"/>
<text text-anchor="start" x="506" y="-622.5901" font-family="Helvetica,sans-Serif" font-size="11.00" fill="#000000">...</text>
<polygon fill="#ffffff" stroke="transparent" points="503,-597.4901 503,-616.4901 545,-616.4901 545,-597.4901 503,-597.4901"/>
<polygon fill="none" stroke="#000000" points="503,-597.4901 503,-616.4901 545,-616.4901 545,-597.4901 503,-597.4901"/>
<text text-anchor="start" x="506" y="-603.5901" font-family="Helvetica,sans-Serif" font-size="11.00" fill="#000000">&lt; 2</text>
<polygon fill="#ffffff" stroke="transparent" points="545,-597.4901 545,-616.4901 594,-616.4901 594,-597.4901 545,-597.4901"/>
<polygon fill="none" stroke="#000000" points="545,-597.4901 545,-616.4901 594,-616.4901 594,-597.4901 545,-597.4901"/>
<text text-anchor="start" x="558.6105" y="-603.5901" font-family="Helvetica,sans-Serif" font-size="11.00" fill="#000000">0 rows</text>
<polygon fill="#ffffff" stroke="transparent" points="594,-597.4901 594,-616.4901 617,-616.4901 617,-597.4901 594,-597.4901"/>
<polygon fill="none" stroke="#000000" points="594,-597.4901 594,-616.4901 617,-616.4901 617,-597.4901 594,-597.4901"/>
<text text-anchor="start" x="607.8862" y="-603.5901" font-family="Helvetica,sans-Serif" font-size="11.00" fill="#000000"> &#160;</text>
</a>
</g>
</g>
<!-- Coordinators&#45;&gt;AspNetUsers -->
<g id="edge13" class="edge">
<title>Coordinators:w&#45;&gt;AspNetUsers:e</title>
<path fill="none" stroke="#000000" d="M484.8417,-654.7565C447.0321,-667.7477 407.2677,-680.9861 398,-682.4901 294.9042,-699.2202 267.1027,-690.9324 163,-682.4901 152.3467,-681.6261 141.1054,-680.2422 130.1858,-678.6408"/>
<polygon fill="#000000" stroke="#000000" points="492.8485,-647.767 495.4546,-655.3306 493.9419,-655.8518 491.3358,-648.2882 492.8485,-647.767"/>
<polyline fill="none" stroke="#000000" points="494.9079,-651.2882 491.1261,-652.5912 "/>
<ellipse fill="none" stroke="#000000" cx="488.1006" cy="-653.6337" rx="3.2" ry="3.2"/>
</g>
<!-- Coordinators&#45;&gt;TechnicalCareers -->
<g id="edge12" class="edge">
<title>Coordinators:w&#45;&gt;TechnicalCareers:e</title>
<path fill="none" stroke="#000000" d="M481.1325,-613.2298C463.4183,-607.2435 445.5741,-598.9522 431,-587.4901 402.3914,-564.9903 424.8963,-517.4901 388.5,-517.4901"/>
<polygon fill="#000000" stroke="#000000" points="487.2724,-615.1147 493.8635,-620.9041 491.0962,-616.2887 494.9201,-617.4626 494.9201,-617.4626 494.9201,-617.4626 491.0962,-616.2887 495.9766,-614.0212 487.2724,-615.1147 487.2724,-615.1147"/>
<ellipse fill="none" stroke="#000000" cx="484.2133" cy="-614.1756" rx="3.2" ry="3.2"/>
</g>
<!-- EvaluationPeriods -->
<g id="node11" class="node">
<title>EvaluationPeriods</title>
<g id="a_node11"><a xlink:href="../../tables/EvaluationPeriods.html" xlink:title="EvaluationPeriods" target="_top">
<polygon fill="#ffffff" stroke="transparent" points="209,-231.9901 209,-292.9901 352,-292.9901 352,-231.9901 209,-231.9901"/>
<polygon fill="#f5f5f5" stroke="transparent" points="209.5,-269.4901 209.5,-292.4901 352.5,-292.4901 352.5,-269.4901 209.5,-269.4901"/>
<polygon fill="none" stroke="#000000" points="209.5,-269.4901 209.5,-292.4901 352.5,-292.4901 352.5,-269.4901 209.5,-269.4901"/>
<text text-anchor="start" x="214.5" y="-278.0901" font-family="Helvetica,sans-Serif" font-weight="bold" font-size="11.00" fill="#000000">EvaluationPeriods</text>
<text text-anchor="start" x="318.0219" y="-277.5901" font-family="Helvetica,sans-Serif" font-size="11.00" fill="#000000">[table]</text>
<polygon fill="none" stroke="#000000" points="209.5,-250.4901 209.5,-269.4901 352.5,-269.4901 352.5,-250.4901 209.5,-250.4901"/>
<text text-anchor="start" x="212.5" y="-256.5901" font-family="Helvetica,sans-Serif" font-size="11.00" fill="#000000">...</text>
<polygon fill="#ffffff" stroke="transparent" points="209.5,-231.4901 209.5,-250.4901 261.5,-250.4901 261.5,-231.4901 209.5,-231.4901"/>
<polygon fill="none" stroke="#000000" points="209.5,-231.4901 209.5,-250.4901 261.5,-250.4901 261.5,-231.4901 209.5,-231.4901"/>
<text text-anchor="start" x="212.5" y="-237.5901" font-family="Helvetica,sans-Serif" font-size="11.00" fill="#000000">&lt; 2</text>
<polygon fill="#ffffff" stroke="transparent" points="261.5,-231.4901 261.5,-250.4901 315.5,-250.4901 315.5,-231.4901 261.5,-231.4901"/>
<polygon fill="none" stroke="#000000" points="261.5,-231.4901 261.5,-250.4901 315.5,-250.4901 315.5,-231.4901 261.5,-231.4901"/>
<text text-anchor="start" x="280.1105" y="-237.5901" font-family="Helvetica,sans-Serif" font-size="11.00" fill="#000000">0 rows</text>
<polygon fill="#ffffff" stroke="transparent" points="315.5,-231.4901 315.5,-250.4901 352.5,-250.4901 352.5,-231.4901 315.5,-231.4901"/>
<polygon fill="none" stroke="#000000" points="315.5,-231.4901 315.5,-250.4901 352.5,-250.4901 352.5,-231.4901 315.5,-231.4901"/>
<text text-anchor="start" x="333.9053" y="-237.5901" font-family="Helvetica,sans-Serif" font-size="11.00" fill="#000000">3 &gt;</text>
</a>
</g>
</g>
<!-- EvaluationPeriods&#45;&gt;AspNetUsers -->
<g id="edge14" class="edge">
<title>EvaluationPeriods:w&#45;&gt;AspNetUsers:e</title>
<path fill="none" stroke="#000000" d="M194.9957,-261.7584C124.378,-288.5317 82.3272,-538.3478 69.3438,-631.6397"/>
<polygon fill="#000000" stroke="#000000" points="201.5961,-260.7262 210.0563,-263.0468 205.548,-260.1081 209.5,-259.4901 209.5,-259.4901 209.5,-259.4901 205.548,-260.1081 208.9437,-255.9333 201.5961,-260.7262 201.5961,-260.7262"/>
<ellipse fill="none" stroke="#000000" cx="198.4345" cy="-261.2206" rx="3.2" ry="3.2"/>
</g>
<!-- EvaluationPeriods&#45;&gt;AspNetUsers -->
<g id="edge15" class="edge">
<title>EvaluationPeriods:w&#45;&gt;AspNetUsers:e</title>
<path fill="none" stroke="#000000" d="M195.2626,-263.536C125.9083,-298.139 84.0512,-540.3732 70.1641,-631.778"/>
<polygon fill="#000000" stroke="#000000" points="201.8047,-261.677 210.4841,-262.953 205.6523,-260.5835 209.5,-259.4901 209.5,-259.4901 209.5,-259.4901 205.6523,-260.5835 208.5159,-256.0272 201.8047,-261.677 201.8047,-261.677"/>
<ellipse fill="none" stroke="#000000" cx="198.7266" cy="-262.5517" rx="3.2" ry="3.2"/>
</g>
<!-- EvaluationPeriodTechnicalCareer -->
<g id="node12" class="node">
<title>EvaluationPeriodTechnicalCareer</title>
<g id="a_node12"><a xlink:href="../../tables/EvaluationPeriodTechnicalCareer.html" xlink:title="EvaluationPeriodTechnicalCareer" target="_top">
<polygon fill="#ffffff" stroke="transparent" points="445,-314.4901 445,-400.4901 675,-400.4901 675,-314.4901 445,-314.4901"/>
<polygon fill="#f5f5f5" stroke="transparent" points="445,-377.4901 445,-400.4901 675,-400.4901 675,-377.4901 445,-377.4901"/>
<polygon fill="none" stroke="#000000" points="445,-377.4901 445,-400.4901 675,-400.4901 675,-377.4901 445,-377.4901"/>
<text text-anchor="start" x="450" y="-386.0901" font-family="Helvetica,sans-Serif" font-weight="bold" font-size="11.00" fill="#000000">EvaluationPeriodTechnicalCareer</text>
<text text-anchor="start" x="640.5219" y="-385.5901" font-family="Helvetica,sans-Serif" font-size="11.00" fill="#000000">[table]</text>
<polygon fill="none" stroke="#000000" points="445,-355.4901 445,-377.4901 675,-377.4901 675,-355.4901 445,-355.4901"/>
<image xlink:href="../../images/primaryKeys.png" width="11px" height="12px" preserveAspectRatio="xMinYMin meet" x="450" y="-372.49"/>
<text text-anchor="start" x="474" y="-362.5901" font-family="Helvetica,sans-Serif" font-size="11.00" fill="#000000">EvaluationPeriodsId</text>
<polygon fill="none" stroke="#000000" points="445,-333.4901 445,-355.4901 675,-355.4901 675,-333.4901 445,-333.4901"/>
<image xlink:href="../../images/primaryKeys.png" width="11px" height="12px" preserveAspectRatio="xMinYMin meet" x="450" y="-350.49"/>
<text text-anchor="start" x="474" y="-340.5901" font-family="Helvetica,sans-Serif" font-size="11.00" fill="#000000">TechnicalCareersId</text>
<polygon fill="#ffffff" stroke="transparent" points="445,-314.4901 445,-333.4901 545,-333.4901 545,-314.4901 445,-314.4901"/>
<polygon fill="none" stroke="#000000" points="445,-314.4901 445,-333.4901 545,-333.4901 545,-314.4901 445,-314.4901"/>
<text text-anchor="start" x="448" y="-320.5901" font-family="Helvetica,sans-Serif" font-size="11.00" fill="#000000">&lt; 2</text>
<polygon fill="#ffffff" stroke="transparent" points="545,-314.4901 545,-333.4901 623,-333.4901 623,-314.4901 545,-314.4901"/>
<polygon fill="none" stroke="#000000" points="545,-314.4901 545,-333.4901 623,-333.4901 623,-314.4901 545,-314.4901"/>
<text text-anchor="start" x="587.6105" y="-320.5901" font-family="Helvetica,sans-Serif" font-size="11.00" fill="#000000">0 rows</text>
<polygon fill="#ffffff" stroke="transparent" points="623,-314.4901 623,-333.4901 675,-333.4901 675,-314.4901 623,-314.4901"/>
<polygon fill="none" stroke="#000000" points="623,-314.4901 623,-333.4901 675,-333.4901 675,-314.4901 623,-314.4901"/>
<text text-anchor="start" x="665.8862" y="-320.5901" font-family="Helvetica,sans-Serif" font-size="11.00" fill="#000000"> &#160;</text>
</a>
</g>
</g>
<!-- EvaluationPeriodTechnicalCareer&#45;&gt;TechnicalCareers -->
<g id="edge17" class="edge">
<title>EvaluationPeriodTechnicalCareer:w&#45;&gt;TechnicalCareers:e</title>
<path fill="none" stroke="#000000" d="M430.5698,-346.9357C377.9979,-367.9629 463.6983,-517.4901 388.5,-517.4901"/>
<polygon fill="#000000" stroke="#000000" points="437.1125,-345.8269 445.6016,-348.0395 441.0562,-345.1585 445,-344.4901 445,-344.4901 445,-344.4901 441.0562,-345.1585 444.3984,-340.9407 437.1125,-345.8269 437.1125,-345.8269"/>
<ellipse fill="none" stroke="#000000" cx="433.9575" cy="-346.3616" rx="3.2" ry="3.2"/>
</g>
<!-- EvaluationPeriodTechnicalCareer&#45;&gt;EvaluationPeriods -->
<g id="edge16" class="edge">
<title>EvaluationPeriodTechnicalCareer:w&#45;&gt;EvaluationPeriods:e</title>
<path fill="none" stroke="#000000" d="M430.5796,-363.4701C413.5519,-354.6504 416.0442,-328.244 398,-307.4901 378.7135,-285.3072 381.8947,-259.4901 352.5,-259.4901"/>
<polygon fill="#000000" stroke="#000000" points="437.1699,-364.8502 444.2621,-370.0136 441.0849,-365.6701 445,-366.4901 445,-366.4901 445,-366.4901 441.0849,-365.6701 445.7379,-362.9665 437.1699,-364.8502 437.1699,-364.8502"/>
<ellipse fill="none" stroke="#000000" cx="434.0378" cy="-364.1942" rx="3.2" ry="3.2"/>
</g>
<!-- FormQuestions -->
<g id="node13" class="node">
<title>FormQuestions</title>
<g id="a_node13"><a xlink:href="../../tables/FormQuestions.html" xlink:title="FormQuestions" target="_top">
<polygon fill="#ffffff" stroke="transparent" points="496.5,-826.9901 496.5,-887.9901 623.5,-887.9901 623.5,-826.9901 496.5,-826.9901"/>
<polygon fill="#f5f5f5" stroke="transparent" points="497,-864.4901 497,-887.4901 624,-887.4901 624,-864.4901 497,-864.4901"/>
<polygon fill="none" stroke="#000000" points="497,-864.4901 497,-887.4901 624,-887.4901 624,-864.4901 497,-864.4901"/>
<text text-anchor="start" x="502" y="-873.0901" font-family="Helvetica,sans-Serif" font-weight="bold" font-size="11.00" fill="#000000">FormQuestions</text>
<text text-anchor="start" x="589.5219" y="-872.5901" font-family="Helvetica,sans-Serif" font-size="11.00" fill="#000000">[table]</text>
<polygon fill="none" stroke="#000000" points="497,-845.4901 497,-864.4901 624,-864.4901 624,-845.4901 497,-845.4901"/>
<text text-anchor="start" x="500" y="-851.5901" font-family="Helvetica,sans-Serif" font-size="11.00" fill="#000000">...</text>
<polygon fill="#ffffff" stroke="transparent" points="497,-826.4901 497,-845.4901 541,-845.4901 541,-826.4901 497,-826.4901"/>
<polygon fill="none" stroke="#000000" points="497,-826.4901 497,-845.4901 541,-845.4901 541,-826.4901 497,-826.4901"/>
<text text-anchor="start" x="500" y="-832.5901" font-family="Helvetica,sans-Serif" font-size="11.00" fill="#000000">&lt; 3</text>
<polygon fill="#ffffff" stroke="transparent" points="541,-826.4901 541,-845.4901 591,-845.4901 591,-826.4901 541,-826.4901"/>
<polygon fill="none" stroke="#000000" points="541,-826.4901 541,-845.4901 591,-845.4901 591,-826.4901 541,-826.4901"/>
<text text-anchor="start" x="555.6105" y="-832.5901" font-family="Helvetica,sans-Serif" font-size="11.00" fill="#000000">0 rows</text>
<polygon fill="#ffffff" stroke="transparent" points="591,-826.4901 591,-845.4901 624,-845.4901 624,-826.4901 591,-826.4901"/>
<polygon fill="none" stroke="#000000" points="591,-826.4901 591,-845.4901 624,-845.4901 624,-826.4901 591,-826.4901"/>
<text text-anchor="start" x="605.4053" y="-832.5901" font-family="Helvetica,sans-Serif" font-size="11.00" fill="#000000">1 &gt;</text>
</a>
</g>
</g>
<!-- FormQuestions&#45;&gt;AspNetUsers -->
<g id="edge19" class="edge">
<title>FormQuestions:w&#45;&gt;AspNetUsers:e</title>
<path fill="none" stroke="#000000" d="M482.4793,-854.0964C344.3226,-852.1846 285.4746,-903.7933 163,-828.4901 116.1142,-799.6625 89.2043,-739.436 75.8402,-701.031"/>
<polygon fill="#000000" stroke="#000000" points="489.0029,-854.2732 496.9024,-858.0888 493.0015,-854.3816 497,-854.4901 497,-854.4901 497,-854.4901 493.0015,-854.3816 497.0976,-850.8914 489.0029,-854.2732 489.0029,-854.2732"/>
<ellipse fill="none" stroke="#000000" cx="485.8041" cy="-854.1865" rx="3.2" ry="3.2"/>
</g>
<!-- FormQuestions&#45;&gt;AspNetUsers -->
<g id="edge20" class="edge">
<title>FormQuestions:w&#45;&gt;AspNetUsers:e</title>
<path fill="none" stroke="#000000" d="M482.4793,-855.3488C344.3226,-865.1846 285.4746,-916.7933 163,-841.4901 112.3748,-810.3633 85.039,-742.6296 72.8979,-701.0611"/>
<polygon fill="#000000" stroke="#000000" points="489.014,-854.9624 497.2126,-858.0838 493.007,-854.7262 497,-854.4901 497,-854.4901 497,-854.4901 493.007,-854.7262 496.7874,-850.8964 489.014,-854.9624 489.014,-854.9624"/>
<ellipse fill="none" stroke="#000000" cx="485.8195" cy="-855.1513" rx="3.2" ry="3.2"/>
</g>
<!-- FormQuestions&#45;&gt;Competencies -->
<g id="edge18" class="edge">
<title>FormQuestions:w&#45;&gt;Competencies:e</title>
<path fill="none" stroke="#000000" d="M482.5926,-853.6337C421.119,-846.0391 411.1269,-790.4901 341.5,-790.4901"/>
<polygon fill="#000000" stroke="#000000" points="489.0141,-854.0154 496.7864,-858.0837 493.007,-854.2527 497,-854.4901 497,-854.4901 497,-854.4901 493.007,-854.2527 497.2136,-850.8964 489.0141,-854.0154 489.0141,-854.0154"/>
<ellipse fill="none" stroke="#000000" cx="485.8197" cy="-853.8255" rx="3.2" ry="3.2"/>
</g>
<!-- ProfessorCompetencyAssignments -->
<g id="node14" class="node">
<title>ProfessorCompetencyAssignments</title>
<g id="a_node14"><a xlink:href="../../tables/ProfessorCompetencyAssignments.html" xlink:title="ProfessorCompetencyAssignments" target="_top">
<polygon fill="#ffffff" stroke="transparent" points="439,-421.9901 439,-482.9901 681,-482.9901 681,-421.9901 439,-421.9901"/>
<polygon fill="#f5f5f5" stroke="transparent" points="439,-459.4901 439,-482.4901 681,-482.4901 681,-459.4901 439,-459.4901"/>
<polygon fill="none" stroke="#000000" points="439,-459.4901 439,-482.4901 681,-482.4901 681,-459.4901 439,-459.4901"/>
<text text-anchor="start" x="444" y="-468.0901" font-family="Helvetica,sans-Serif" font-weight="bold" font-size="11.00" fill="#000000">ProfessorCompetencyAssignments</text>
<text text-anchor="start" x="646.5219" y="-467.5901" font-family="Helvetica,sans-Serif" font-size="11.00" fill="#000000">[table]</text>
<polygon fill="none" stroke="#000000" points="439,-440.4901 439,-459.4901 681,-459.4901 681,-440.4901 439,-440.4901"/>
<text text-anchor="start" x="442" y="-446.5901" font-family="Helvetica,sans-Serif" font-size="11.00" fill="#000000">...</text>
<polygon fill="#ffffff" stroke="transparent" points="439,-421.4901 439,-440.4901 541,-440.4901 541,-421.4901 439,-421.4901"/>
<polygon fill="none" stroke="#000000" points="439,-421.4901 439,-440.4901 541,-440.4901 541,-421.4901 439,-421.4901"/>
<text text-anchor="start" x="442" y="-427.5901" font-family="Helvetica,sans-Serif" font-size="11.00" fill="#000000">&lt; 6</text>
<polygon fill="#ffffff" stroke="transparent" points="541,-421.4901 541,-440.4901 619,-440.4901 619,-421.4901 541,-421.4901"/>
<polygon fill="none" stroke="#000000" points="541,-421.4901 541,-440.4901 619,-440.4901 619,-421.4901 541,-421.4901"/>
<text text-anchor="start" x="583.6105" y="-427.5901" font-family="Helvetica,sans-Serif" font-size="11.00" fill="#000000">0 rows</text>
<polygon fill="#ffffff" stroke="transparent" points="619,-421.4901 619,-440.4901 681,-440.4901 681,-421.4901 619,-421.4901"/>
<polygon fill="none" stroke="#000000" points="619,-421.4901 619,-440.4901 681,-440.4901 681,-421.4901 619,-421.4901"/>
<text text-anchor="start" x="662.4053" y="-427.5901" font-family="Helvetica,sans-Serif" font-size="11.00" fill="#000000">1 &gt;</text>
</a>
</g>
</g>
<!-- ProfessorCompetencyAssignments&#45;&gt;AspNetUsers -->
<g id="edge22" class="edge">
<title>ProfessorCompetencyAssignments:w&#45;&gt;AspNetUsers:e</title>
<path fill="none" stroke="#000000" d="M436.1448,-409.6653C434.3828,-408.3228 432.6659,-406.9317 431,-405.4901 405.598,-383.5076 426.471,-355.3198 398,-337.4901 353.7403,-309.7729 204.9461,-306.3825 163,-337.4901 115.2834,-372.8771 81.6785,-554.8139 69.7629,-631.952"/>
<polygon fill="#000000" stroke="#000000" points="441.7152,-413.3935 446.3612,-420.8349 445.0394,-415.6183 448.3636,-417.8432 448.3636,-417.8432 448.3636,-417.8432 445.0394,-415.6183 450.3659,-414.8514 441.7152,-413.3935 441.7152,-413.3935"/>
<ellipse fill="none" stroke="#000000" cx="439.0559" cy="-411.6136" rx="3.2" ry="3.2"/>
</g>
<!-- ProfessorCompetencyAssignments&#45;&gt;AspNetUsers -->
<g id="edge26" class="edge">
<title>ProfessorCompetencyAssignments:w&#45;&gt;AspNetUsers:e</title>
<path fill="none" stroke="#000000" d="M421.5419,-406.736C411.2991,-387.1587 421.5962,-365.267 398,-350.4901 353.7403,-322.7729 204.9461,-319.3825 163,-350.4901 116.6955,-384.8299 83.6798,-557.1741 70.8775,-631.9334"/>
<polygon fill="#000000" stroke="#000000" points="425.7183,-411.9761 427.8892,-420.476 428.2114,-415.1041 430.7044,-418.2322 430.7044,-418.2322 430.7044,-418.2322 428.2114,-415.1041 433.5197,-415.9884 425.7183,-411.9761 425.7183,-411.9761"/>
<ellipse fill="none" stroke="#000000" cx="423.7238" cy="-409.4737" rx="3.2" ry="3.2"/>
</g>
<!-- ProfessorCompetencyAssignments&#45;&gt;Competencies -->
<g id="edge21" class="edge">
<title>ProfessorCompetencyAssignments:w&#45;&gt;Competencies:e</title>
<path fill="none" stroke="#000000" d="M440.0488,-496.2287C436.828,-499.1235 433.7963,-502.2066 431,-505.4901 344.9192,-606.5683 474.2656,-790.4901 341.5,-790.4901"/>
<polygon fill="#000000" stroke="#000000" points="445.373,-492.0407 453.8866,-489.9243 448.5169,-489.5677 451.6609,-487.0947 451.6609,-487.0947 451.6609,-487.0947 448.5169,-489.5677 449.4352,-484.2652 445.373,-492.0407 445.373,-492.0407"/>
<ellipse fill="none" stroke="#000000" cx="442.8578" cy="-494.0191" rx="3.2" ry="3.2"/>
</g>
<!-- ProfessorCompetencyAssignments&#45;&gt;TechnicalCareers -->
<g id="edge25" class="edge">
<title>ProfessorCompetencyAssignments:w&#45;&gt;TechnicalCareers:e</title>
<path fill="none" stroke="#000000" d="M463.0725,-492.4916C429.049,-505.8905 397.1086,-517.4901 388.5,-517.4901"/>
<polygon fill="#000000" stroke="#000000" points="469.2475,-490.0378 478.0115,-490.4291 472.9648,-488.5607 476.6821,-487.0835 476.6821,-487.0835 476.6821,-487.0835 472.9648,-488.5607 475.3526,-483.738 469.2475,-490.0378 469.2475,-490.0378"/>
<ellipse fill="none" stroke="#000000" cx="466.2737" cy="-491.2195" rx="3.2" ry="3.2"/>
</g>
<!-- ProfessorCompetencyAssignments&#45;&gt;EvaluationPeriods -->
<g id="edge23" class="edge">
<title>ProfessorCompetencyAssignments:w&#45;&gt;EvaluationPeriods:e</title>
<path fill="none" stroke="#000000" d="M428.4901,-406.9229C382.8221,-346.5406 424.0778,-259.4901 352.5,-259.4901"/>
<polygon fill="#000000" stroke="#000000" points="432.8029,-411.8439 435.3683,-420.2331 435.4393,-414.8521 438.0757,-417.8603 438.0757,-417.8603 438.0757,-417.8603 435.4393,-414.8521 440.7831,-415.4875 432.8029,-411.8439 432.8029,-411.8439"/>
<ellipse fill="none" stroke="#000000" cx="430.6937" cy="-409.4373" rx="3.2" ry="3.2"/>
</g>
<!-- Professors -->
<g id="node15" class="node">
<title>Professors</title>
<g id="a_node15"><a xlink:href="../../tables/Professors.html" xlink:title="Professors" target="_top">
<polygon fill="#ffffff" stroke="transparent" points="230,-574.9901 230,-635.9901 331,-635.9901 331,-574.9901 230,-574.9901"/>
<polygon fill="#f5f5f5" stroke="transparent" points="230.5,-612.4901 230.5,-635.4901 331.5,-635.4901 331.5,-612.4901 230.5,-612.4901"/>
<polygon fill="none" stroke="#000000" points="230.5,-612.4901 230.5,-635.4901 331.5,-635.4901 331.5,-612.4901 230.5,-612.4901"/>
<text text-anchor="start" x="235.5" y="-621.0901" font-family="Helvetica,sans-Serif" font-weight="bold" font-size="11.00" fill="#000000">Professors</text>
<text text-anchor="start" x="297.0219" y="-620.5901" font-family="Helvetica,sans-Serif" font-size="11.00" fill="#000000">[table]</text>
<polygon fill="none" stroke="#000000" points="230.5,-593.4901 230.5,-612.4901 331.5,-612.4901 331.5,-593.4901 230.5,-593.4901"/>
<text text-anchor="start" x="233.5" y="-599.5901" font-family="Helvetica,sans-Serif" font-size="11.00" fill="#000000">...</text>
<polygon fill="#ffffff" stroke="transparent" points="230.5,-574.4901 230.5,-593.4901 261.5,-593.4901 261.5,-574.4901 230.5,-574.4901"/>
<polygon fill="none" stroke="#000000" points="230.5,-574.4901 230.5,-593.4901 261.5,-593.4901 261.5,-574.4901 230.5,-574.4901"/>
<text text-anchor="start" x="233.5" y="-580.5901" font-family="Helvetica,sans-Serif" font-size="11.00" fill="#000000">&lt; 1</text>
<polygon fill="#ffffff" stroke="transparent" points="261.5,-574.4901 261.5,-593.4901 304.5,-593.4901 304.5,-574.4901 261.5,-574.4901"/>
<polygon fill="none" stroke="#000000" points="261.5,-574.4901 261.5,-593.4901 304.5,-593.4901 304.5,-574.4901 261.5,-574.4901"/>
<text text-anchor="start" x="269.1105" y="-580.5901" font-family="Helvetica,sans-Serif" font-size="11.00" fill="#000000">0 rows</text>
<polygon fill="#ffffff" stroke="transparent" points="304.5,-574.4901 304.5,-593.4901 331.5,-593.4901 331.5,-574.4901 304.5,-574.4901"/>
<polygon fill="none" stroke="#000000" points="304.5,-574.4901 304.5,-593.4901 331.5,-593.4901 331.5,-574.4901 304.5,-574.4901"/>
<text text-anchor="start" x="312.9053" y="-580.5901" font-family="Helvetica,sans-Serif" font-size="11.00" fill="#000000">2 &gt;</text>
</a>
</g>
</g>
<!-- ProfessorCompetencyAssignments&#45;&gt;Professors -->
<g id="edge24" class="edge">
<title>ProfessorCompetencyAssignments:w&#45;&gt;Professors:e</title>
<path fill="none" stroke="#000000" d="M444.6067,-494.8855C439.8268,-498.1826 435.2605,-501.713 431,-505.4901 408.5176,-525.4215 419.1475,-543.1477 398,-564.4901 374.0403,-588.6706 365.5406,-602.4901 331.5,-602.4901"/>
<polygon fill="#000000" stroke="#000000" points="450.1054,-491.4243 458.7935,-490.2092 453.4906,-489.2934 456.8757,-487.1625 456.8757,-487.1625 456.8757,-487.1625 453.4906,-489.2934 454.958,-484.1159 450.1054,-491.4243 450.1054,-491.4243"/>
<ellipse fill="none" stroke="#000000" cx="447.3972" cy="-493.129" rx="3.2" ry="3.2"/>
</g>
<!-- Professors&#45;&gt;AspNetUsers -->
<g id="edge27" class="edge">
<title>Professors:w&#45;&gt;AspNetUsers:e</title>
<path fill="none" stroke="#000000" d="M219.9787,-602.8559C185.9821,-605.1778 151.3271,-618.2017 123.4333,-631.8677"/>
<polygon fill="#000000" stroke="#000000" points="229.5614,-598.5203 229.8395,-606.5155 228.2405,-606.5711 227.9624,-598.5759 229.5614,-598.5203"/>
<polyline fill="none" stroke="#000000" points="230.5,-602.4901 226.5024,-602.6291 "/>
<ellipse fill="none" stroke="#000000" cx="223.3043" cy="-602.7404" rx="3.2" ry="3.2"/>
</g>
<!-- QuestionResponses -->
<g id="node16" class="node">
<title>QuestionResponses</title>
<g id="a_node16"><a xlink:href="../../tables/QuestionResponses.html" xlink:title="QuestionResponses" target="_top">
<polygon fill="#ffffff" stroke="transparent" points="1002,-138.9901 1002,-199.9901 1157,-199.9901 1157,-138.9901 1002,-138.9901"/>
<polygon fill="#f5f5f5" stroke="transparent" points="1002.5,-176.4901 1002.5,-199.4901 1157.5,-199.4901 1157.5,-176.4901 1002.5,-176.4901"/>
<polygon fill="none" stroke="#000000" points="1002.5,-176.4901 1002.5,-199.4901 1157.5,-199.4901 1157.5,-176.4901 1002.5,-176.4901"/>
<text text-anchor="start" x="1007.5" y="-185.0901" font-family="Helvetica,sans-Serif" font-weight="bold" font-size="11.00" fill="#000000">QuestionResponses</text>
<text text-anchor="start" x="1123.0219" y="-184.5901" font-family="Helvetica,sans-Serif" font-size="11.00" fill="#000000">[table]</text>
<polygon fill="none" stroke="#000000" points="1002.5,-157.4901 1002.5,-176.4901 1157.5,-176.4901 1157.5,-157.4901 1002.5,-157.4901"/>
<text text-anchor="start" x="1005.5" y="-163.5901" font-family="Helvetica,sans-Serif" font-size="11.00" fill="#000000">...</text>
<polygon fill="#ffffff" stroke="transparent" points="1002.5,-138.4901 1002.5,-157.4901 1065.5,-157.4901 1065.5,-138.4901 1002.5,-138.4901"/>
<polygon fill="none" stroke="#000000" points="1002.5,-138.4901 1002.5,-157.4901 1065.5,-157.4901 1065.5,-138.4901 1002.5,-138.4901"/>
<text text-anchor="start" x="1005.5" y="-144.5901" font-family="Helvetica,sans-Serif" font-size="11.00" fill="#000000">&lt; 4</text>
<polygon fill="#ffffff" stroke="transparent" points="1065.5,-138.4901 1065.5,-157.4901 1124.5,-157.4901 1124.5,-138.4901 1065.5,-138.4901"/>
<polygon fill="none" stroke="#000000" points="1065.5,-138.4901 1065.5,-157.4901 1124.5,-157.4901 1124.5,-138.4901 1065.5,-138.4901"/>
<text text-anchor="start" x="1089.1105" y="-144.5901" font-family="Helvetica,sans-Serif" font-size="11.00" fill="#000000">0 rows</text>
<polygon fill="#ffffff" stroke="transparent" points="1124.5,-138.4901 1124.5,-157.4901 1157.5,-157.4901 1157.5,-138.4901 1124.5,-138.4901"/>
<polygon fill="none" stroke="#000000" points="1124.5,-138.4901 1124.5,-157.4901 1157.5,-157.4901 1157.5,-138.4901 1124.5,-138.4901"/>
<text text-anchor="start" x="1148.3862" y="-144.5901" font-family="Helvetica,sans-Serif" font-size="11.00" fill="#000000"> &#160;</text>
</a>
</g>
</g>
<!-- QuestionResponses&#45;&gt;AspNetUsers -->
<g id="edge28" class="edge">
<title>QuestionResponses:w&#45;&gt;AspNetUsers:e</title>
<path fill="none" stroke="#000000" d="M989.462,-159.3861C977.4767,-146.2144 981.831,-120.2718 961,-110.4901 828.6312,-48.3328 328.3122,24.8007 163,-114.4901 83.8282,-181.1997 68.5172,-520.9723 65.6437,-631.6488"/>
<polygon fill="#000000" stroke="#000000" points="995.4751,-162.6624 1000.7776,-169.6513 998.9875,-164.5762 1002.5,-166.4901 1002.5,-166.4901 1002.5,-166.4901 998.9875,-164.5762 1004.2224,-163.3289 995.4751,-162.6624 995.4751,-162.6624"/>
<ellipse fill="none" stroke="#000000" cx="992.6651" cy="-161.1313" rx="3.2" ry="3.2"/>
</g>
<!-- QuestionResponses&#45;&gt;AspNetUsers -->
<g id="edge31" class="edge">
<title>QuestionResponses:w&#45;&gt;AspNetUsers:e</title>
<path fill="none" stroke="#000000" d="M988.1249,-164.945C977.7795,-157.2045 981.0141,-132.8882 961,-123.4901 828.6312,-61.3328 328.3122,11.8007 163,-127.4901 85.117,-193.1137 69.0326,-522.9823 65.7941,-631.7329"/>
<polygon fill="#000000" stroke="#000000" points="994.5458,-165.6351 1002.1153,-170.0695 998.5229,-166.0626 1002.5,-166.4901 1002.5,-166.4901 1002.5,-166.4901 998.5229,-166.0626 1002.8847,-162.9107 994.5458,-165.6351 994.5458,-165.6351"/>
<ellipse fill="none" stroke="#000000" cx="991.3641" cy="-165.2931" rx="3.2" ry="3.2"/>
</g>
<!-- QuestionResponses&#45;&gt;FormQuestions -->
<g id="edge29" class="edge">
<title>QuestionResponses:w&#45;&gt;FormQuestions:e</title>
<path fill="none" stroke="#000000" d="M990.7684,-175.3062C954.7527,-237.6153 987.2317,-610.3414 961,-652.4901 868.731,-800.7461 798.6237,-854.4901 624,-854.4901"/>
<polygon fill="#000000" stroke="#000000" points="996.1046,-171.2962 1004.6628,-169.368 999.3023,-168.8931 1002.5,-166.4901 1002.5,-166.4901 1002.5,-166.4901 999.3023,-168.8931 1000.3372,-163.6121 996.1046,-171.2962 996.1046,-171.2962"/>
<ellipse fill="none" stroke="#000000" cx="993.5464" cy="-173.2186" rx="3.2" ry="3.2"/>
</g>
<!-- StudentCompetencyEvaluations -->
<g id="node17" class="node">
<title>StudentCompetencyEvaluations</title>
<g id="a_node17"><a xlink:href="../../tables/StudentCompetencyEvaluations.html" xlink:title="StudentCompetencyEvaluations" target="_top">
<polygon fill="#ffffff" stroke="transparent" points="730,-208.9901 730,-269.9901 953,-269.9901 953,-208.9901 730,-208.9901"/>
<polygon fill="#f5f5f5" stroke="transparent" points="730.5,-246.4901 730.5,-269.4901 953.5,-269.4901 953.5,-246.4901 730.5,-246.4901"/>
<polygon fill="none" stroke="#000000" points="730.5,-246.4901 730.5,-269.4901 953.5,-269.4901 953.5,-246.4901 730.5,-246.4901"/>
<text text-anchor="start" x="735.5" y="-255.0901" font-family="Helvetica,sans-Serif" font-weight="bold" font-size="11.00" fill="#000000">StudentCompetencyEvaluations</text>
<text text-anchor="start" x="919.0219" y="-254.5901" font-family="Helvetica,sans-Serif" font-size="11.00" fill="#000000">[table]</text>
<polygon fill="none" stroke="#000000" points="730.5,-227.4901 730.5,-246.4901 953.5,-246.4901 953.5,-227.4901 730.5,-227.4901"/>
<text text-anchor="start" x="733.5" y="-233.5901" font-family="Helvetica,sans-Serif" font-size="11.00" fill="#000000">...</text>
<polygon fill="#ffffff" stroke="transparent" points="730.5,-208.4901 730.5,-227.4901 822.5,-227.4901 822.5,-208.4901 730.5,-208.4901"/>
<polygon fill="none" stroke="#000000" points="730.5,-208.4901 730.5,-227.4901 822.5,-227.4901 822.5,-208.4901 730.5,-208.4901"/>
<text text-anchor="start" x="733.5" y="-214.5901" font-family="Helvetica,sans-Serif" font-size="11.00" fill="#000000">&lt; 4</text>
<polygon fill="#ffffff" stroke="transparent" points="822.5,-208.4901 822.5,-227.4901 896.5,-227.4901 896.5,-208.4901 822.5,-208.4901"/>
<polygon fill="none" stroke="#000000" points="822.5,-208.4901 822.5,-227.4901 896.5,-227.4901 896.5,-208.4901 822.5,-208.4901"/>
<text text-anchor="start" x="861.1105" y="-214.5901" font-family="Helvetica,sans-Serif" font-size="11.00" fill="#000000">0 rows</text>
<polygon fill="#ffffff" stroke="transparent" points="896.5,-208.4901 896.5,-227.4901 953.5,-227.4901 953.5,-208.4901 896.5,-208.4901"/>
<polygon fill="none" stroke="#000000" points="896.5,-208.4901 896.5,-227.4901 953.5,-227.4901 953.5,-208.4901 896.5,-208.4901"/>
<text text-anchor="start" x="934.9053" y="-214.5901" font-family="Helvetica,sans-Serif" font-size="11.00" fill="#000000">1 &gt;</text>
</a>
</g>
</g>
<!-- QuestionResponses&#45;&gt;StudentCompetencyEvaluations -->
<g id="edge30" class="edge">
<title>QuestionResponses:w&#45;&gt;StudentCompetencyEvaluations:e</title>
<path fill="none" stroke="#000000" d="M988.4782,-171.5243C971.62,-187.5747 985.2455,-236.4901 953.5,-236.4901"/>
<polygon fill="#000000" stroke="#000000" points="994.9706,-169.1934 1003.7165,-169.8783 998.7353,-167.8417 1002.5,-166.4901 1002.5,-166.4901 1002.5,-166.4901 998.7353,-167.8417 1001.2835,-163.1018 994.9706,-169.1934 994.9706,-169.1934"/>
<ellipse fill="none" stroke="#000000" cx="991.9588" cy="-170.2747" rx="3.2" ry="3.2"/>
</g>
<!-- StudentCompetencyEvaluations&#45;&gt;AspNetUsers -->
<g id="edge32" class="edge">
<title>StudentCompetencyEvaluations:w&#45;&gt;AspNetUsers:e</title>
<path fill="none" stroke="#000000" d="M717.2229,-230.5157C708.066,-224.8744 702.7933,-218.3973 689,-215.4901 574.5413,-191.3658 253.8418,-121.7979 163,-195.4901 95.1641,-250.5195 72.4998,-532.6551 66.6915,-631.9416"/>
<polygon fill="#000000" stroke="#000000" points="723.2046,-233.2072 729.0227,-239.773 726.8523,-234.8487 730.5,-236.4901 730.5,-236.4901 730.5,-236.4901 726.8523,-234.8487 731.9773,-233.2071 723.2046,-233.2072 723.2046,-233.2072"/>
<ellipse fill="none" stroke="#000000" cx="720.2864" cy="-231.8941" rx="3.2" ry="3.2"/>
</g>
<!-- StudentCompetencyEvaluations&#45;&gt;AspNetUsers -->
<g id="edge35" class="edge">
<title>StudentCompetencyEvaluations:w&#45;&gt;AspNetUsers:e</title>
<path fill="none" stroke="#000000" d="M716.0496,-238.5511C707.5914,-237.3179 702.1936,-231.2709 689,-228.4901 574.5413,-204.3658 253.8418,-134.7979 163,-208.4901 96.5256,-262.415 73.4278,-534.4212 67.0618,-631.8229"/>
<polygon fill="#000000" stroke="#000000" points="722.5801,-237.6197 731.0083,-240.054 726.5401,-237.0549 730.5,-236.4901 730.5,-236.4901 730.5,-236.4901 726.5401,-237.0549 729.9917,-232.9261 722.5801,-237.6197 722.5801,-237.6197"/>
<ellipse fill="none" stroke="#000000" cx="719.4122" cy="-238.0716" rx="3.2" ry="3.2"/>
</g>
<!-- StudentCompetencyEvaluations&#45;&gt;ProfessorCompetencyAssignments -->
<g id="edge33" class="edge">
<title>StudentCompetencyEvaluations:w&#45;&gt;ProfessorCompetencyAssignments:e</title>
<path fill="none" stroke="#000000" d="M716.0895,-238.1559C662.8878,-252.5732 739.5442,-357.0114 689,-411.4901 686.9222,-413.7296 684.7228,-415.8474 682.4194,-417.8501"/>
<polygon fill="#000000" stroke="#000000" points="722.5529,-237.4088 730.9134,-240.0663 726.5265,-236.9494 730.5,-236.4901 730.5,-236.4901 730.5,-236.4901 726.5265,-236.9494 730.0866,-232.9139 722.5529,-237.4088 722.5529,-237.4088"/>
<ellipse fill="none" stroke="#000000" cx="719.3741" cy="-237.7763" rx="3.2" ry="3.2"/>
</g>
<!-- Students -->
<g id="node18" class="node">
<title>Students</title>
<g id="a_node18"><a xlink:href="../../tables/Students.html" xlink:title="Students" target="_top">
<polygon fill="#ffffff" stroke="transparent" points="515,-231.9901 515,-292.9901 605,-292.9901 605,-231.9901 515,-231.9901"/>
<polygon fill="#f5f5f5" stroke="transparent" points="515,-269.4901 515,-292.4901 605,-292.4901 605,-269.4901 515,-269.4901"/>
<polygon fill="none" stroke="#000000" points="515,-269.4901 515,-292.4901 605,-292.4901 605,-269.4901 515,-269.4901"/>
<text text-anchor="start" x="520" y="-278.0901" font-family="Helvetica,sans-Serif" font-weight="bold" font-size="11.00" fill="#000000">Students</text>
<text text-anchor="start" x="570.5219" y="-277.5901" font-family="Helvetica,sans-Serif" font-size="11.00" fill="#000000">[table]</text>
<polygon fill="none" stroke="#000000" points="515,-250.4901 515,-269.4901 605,-269.4901 605,-250.4901 515,-250.4901"/>
<text text-anchor="start" x="518" y="-256.5901" font-family="Helvetica,sans-Serif" font-size="11.00" fill="#000000">...</text>
<polygon fill="#ffffff" stroke="transparent" points="515,-231.4901 515,-250.4901 541,-250.4901 541,-231.4901 515,-231.4901"/>
<polygon fill="none" stroke="#000000" points="515,-231.4901 515,-250.4901 541,-250.4901 541,-231.4901 515,-231.4901"/>
<text text-anchor="start" x="518" y="-237.5901" font-family="Helvetica,sans-Serif" font-size="11.00" fill="#000000">&lt; 2</text>
<polygon fill="#ffffff" stroke="transparent" points="541,-231.4901 541,-250.4901 581,-250.4901 581,-231.4901 541,-231.4901"/>
<polygon fill="none" stroke="#000000" points="541,-231.4901 541,-250.4901 581,-250.4901 581,-231.4901 541,-231.4901"/>
<text text-anchor="start" x="545.6105" y="-237.5901" font-family="Helvetica,sans-Serif" font-size="11.00" fill="#000000">0 rows</text>
<polygon fill="#ffffff" stroke="transparent" points="581,-231.4901 581,-250.4901 605,-250.4901 605,-231.4901 581,-231.4901"/>
<polygon fill="none" stroke="#000000" points="581,-231.4901 581,-250.4901 605,-250.4901 605,-231.4901 581,-231.4901"/>
<text text-anchor="start" x="586.4053" y="-237.5901" font-family="Helvetica,sans-Serif" font-size="11.00" fill="#000000">3 &gt;</text>
</a>
</g>
</g>
<!-- StudentCompetencyEvaluations&#45;&gt;Students -->
<g id="edge34" class="edge">
<title>StudentCompetencyEvaluations:w&#45;&gt;Students:e</title>
<path fill="none" stroke="#000000" d="M715.9118,-236.7837C680.2599,-238.1733 642.4903,-244.2689 613.0559,-250.1753"/>
<polygon fill="#000000" stroke="#000000" points="722.5016,-236.6511 730.5725,-240.0893 726.5008,-236.5706 730.5,-236.4901 730.5,-236.4901 730.5,-236.4901 726.5008,-236.5706 730.4275,-232.8908 722.5016,-236.6511 722.5016,-236.6511"/>
<ellipse fill="none" stroke="#000000" cx="719.3023" cy="-236.7155" rx="3.2" ry="3.2"/>
</g>
<!-- Students&#45;&gt;AspNetUsers -->
<g id="edge41" class="edge">
<title>Students:w&#45;&gt;AspNetUsers:e</title>
<path fill="none" stroke="#000000" d="M496.4458,-242.5228C466.8478,-234.2317 430.9637,-225.5967 398,-221.4901 346.1784,-215.0342 203.7044,-188.7744 163,-221.4901 98.6418,-273.2172 74.0801,-536.4765 67.2058,-631.8941"/>
<polygon fill="#000000" stroke="#000000" points="506.9667,-241.3672 504.7701,-249.0597 503.2315,-248.6204 505.4282,-240.9279 506.9667,-241.3672"/>
<polyline fill="none" stroke="#000000" points="506.6376,-245.4332 502.7914,-244.3348 "/>
<ellipse fill="none" stroke="#000000" cx="499.7144" cy="-243.4561" rx="3.2" ry="3.2"/>
</g>
<!-- Students&#45;&gt;TechnicalCareers -->
<g id="edge40" class="edge">
<title>Students:w&#45;&gt;TechnicalCareers:e</title>
<path fill="none" stroke="#000000" d="M492.7504,-270.4855C470.1988,-276.4263 446.7963,-286.7138 431,-304.4901 366.878,-376.6492 485.0327,-517.4901 388.5,-517.4901"/>
<polygon fill="#000000" stroke="#000000" points="499.1805,-269.0224 507.7799,-270.7575 503.0808,-268.1348 506.981,-267.2472 506.981,-267.2472 506.981,-267.2472 503.0808,-268.1348 506.1822,-263.737 499.1805,-269.0224 499.1805,-269.0224"/>
<ellipse fill="none" stroke="#000000" cx="496.0602" cy="-269.7324" rx="3.2" ry="3.2"/>
</g>
<!-- StudentEvaluationReport -->
<g id="node19" class="node">
<title>StudentEvaluationReport</title>
<g id="a_node19"><a xlink:href="../../tables/StudentEvaluationReport.html" xlink:title="StudentEvaluationReport" target="_top">
<polygon fill="#ffffff" stroke="transparent" points="750,-126.9901 750,-187.9901 933,-187.9901 933,-126.9901 750,-126.9901"/>
<polygon fill="#f5f5f5" stroke="transparent" points="750.5,-164.4901 750.5,-187.4901 933.5,-187.4901 933.5,-164.4901 750.5,-164.4901"/>
<polygon fill="none" stroke="#000000" points="750.5,-164.4901 750.5,-187.4901 933.5,-187.4901 933.5,-164.4901 750.5,-164.4901"/>
<text text-anchor="start" x="755.5" y="-173.0901" font-family="Helvetica,sans-Serif" font-weight="bold" font-size="11.00" fill="#000000">StudentEvaluationReport</text>
<text text-anchor="start" x="899.0219" y="-172.5901" font-family="Helvetica,sans-Serif" font-size="11.00" fill="#000000">[table]</text>
<polygon fill="none" stroke="#000000" points="750.5,-145.4901 750.5,-164.4901 933.5,-164.4901 933.5,-145.4901 750.5,-145.4901"/>
<text text-anchor="start" x="753.5" y="-151.5901" font-family="Helvetica,sans-Serif" font-size="11.00" fill="#000000">...</text>
<polygon fill="#ffffff" stroke="transparent" points="750.5,-126.4901 750.5,-145.4901 827.5,-145.4901 827.5,-126.4901 750.5,-126.4901"/>
<polygon fill="none" stroke="#000000" points="750.5,-126.4901 750.5,-145.4901 827.5,-145.4901 827.5,-126.4901 750.5,-126.4901"/>
<text text-anchor="start" x="753.5" y="-132.5901" font-family="Helvetica,sans-Serif" font-size="11.00" fill="#000000">&lt; 4</text>
<polygon fill="#ffffff" stroke="transparent" points="827.5,-126.4901 827.5,-145.4901 893.5,-145.4901 893.5,-126.4901 827.5,-126.4901"/>
<polygon fill="none" stroke="#000000" points="827.5,-126.4901 827.5,-145.4901 893.5,-145.4901 893.5,-126.4901 827.5,-126.4901"/>
<text text-anchor="start" x="858.1105" y="-132.5901" font-family="Helvetica,sans-Serif" font-size="11.00" fill="#000000">0 rows</text>
<polygon fill="#ffffff" stroke="transparent" points="893.5,-126.4901 893.5,-145.4901 933.5,-145.4901 933.5,-126.4901 893.5,-126.4901"/>
<polygon fill="none" stroke="#000000" points="893.5,-126.4901 893.5,-145.4901 933.5,-145.4901 933.5,-126.4901 893.5,-126.4901"/>
<text text-anchor="start" x="924.3862" y="-132.5901" font-family="Helvetica,sans-Serif" font-size="11.00" fill="#000000"> &#160;</text>
</a>
</g>
</g>
<!-- StudentEvaluationReport&#45;&gt;AspNetUsers -->
<g id="edge36" class="edge">
<title>StudentEvaluationReport:w&#45;&gt;AspNetUsers:e</title>
<path fill="none" stroke="#000000" d="M735.9054,-153.6135C595.0593,-143.4552 258.2936,-77.0761 163,-159.4901 91.5235,-221.306 71.1256,-527.7805 66.3062,-631.8826"/>
<polygon fill="#000000" stroke="#000000" points="742.5144,-154.0104 750.2841,-158.0836 746.5072,-154.2502 750.5,-154.4901 750.5,-154.4901 750.5,-154.4901 746.5072,-154.2502 750.7159,-150.8966 742.5144,-154.0104 742.5144,-154.0104"/>
<ellipse fill="none" stroke="#000000" cx="739.3201" cy="-153.8185" rx="3.2" ry="3.2"/>
</g>
<!-- StudentEvaluationReport&#45;&gt;AspNetUsers -->
<g id="edge39" class="edge">
<title>StudentEvaluationReport:w&#45;&gt;AspNetUsers:e</title>
<path fill="none" stroke="#000000" d="M735.9054,-154.937C595.0593,-156.4552 258.2936,-90.0761 163,-172.4901 92.8642,-233.1465 71.9088,-529.3693 66.5941,-631.7145"/>
<polygon fill="#000000" stroke="#000000" points="742.5037,-154.735 750.6102,-158.0884 746.5019,-154.6125 750.5,-154.4901 750.5,-154.4901 750.5,-154.4901 746.5019,-154.6125 750.3898,-150.8918 742.5037,-154.735 742.5037,-154.735"/>
<ellipse fill="none" stroke="#000000" cx="739.3052" cy="-154.8329" rx="3.2" ry="3.2"/>
</g>
<!-- StudentEvaluationReport&#45;&gt;EvaluationPeriods -->
<g id="edge37" class="edge">
<title>StudentEvaluationReport:w&#45;&gt;EvaluationPeriods:e</title>
<path fill="none" stroke="#000000" d="M735.9929,-154.561C602.7586,-155.899 563.6244,-176.2455 431,-221.4901 394.3143,-234.0053 391.2617,-259.4901 352.5,-259.4901"/>
<polygon fill="#000000" stroke="#000000" points="742.5001,-154.5292 750.5176,-158.09 746.5,-154.5097 750.5,-154.4901 750.5,-154.4901 750.5,-154.4901 746.5,-154.5097 750.4824,-150.8901 742.5001,-154.5292 742.5001,-154.5292"/>
<ellipse fill="none" stroke="#000000" cx="739.3001" cy="-154.5449" rx="3.2" ry="3.2"/>
</g>
<!-- StudentEvaluationReport&#45;&gt;Students -->
<g id="edge38" class="edge">
<title>StudentEvaluationReport:w&#45;&gt;Students:e</title>
<path fill="none" stroke="#000000" d="M736.5395,-158.6165C709.3262,-170.0305 654.7034,-202.8803 613.384,-228.6145"/>
<polygon fill="#000000" stroke="#000000" points="742.8281,-156.7578 751.5205,-157.9424 746.6641,-155.6239 750.5,-154.4901 750.5,-154.4901 750.5,-154.4901 746.6641,-155.6239 749.4795,-151.0377 742.8281,-156.7578 742.8281,-156.7578"/>
<ellipse fill="none" stroke="#000000" cx="739.7594" cy="-157.6648" rx="3.2" ry="3.2"/>
</g>
<!-- StudentSubjects -->
<g id="node20" class="node">
<title>StudentSubjects</title>
<g id="a_node20"><a xlink:href="../../tables/StudentSubjects.html" xlink:title="StudentSubjects" target="_top">
<polygon fill="#ffffff" stroke="transparent" points="775,-580.9901 775,-641.9901 908,-641.9901 908,-580.9901 775,-580.9901"/>
<polygon fill="#f5f5f5" stroke="transparent" points="775.5,-618.4901 775.5,-641.4901 908.5,-641.4901 908.5,-618.4901 775.5,-618.4901"/>
<polygon fill="none" stroke="#000000" points="775.5,-618.4901 775.5,-641.4901 908.5,-641.4901 908.5,-618.4901 775.5,-618.4901"/>
<text text-anchor="start" x="780.5" y="-627.0901" font-family="Helvetica,sans-Serif" font-weight="bold" font-size="11.00" fill="#000000">StudentSubjects</text>
<text text-anchor="start" x="874.0219" y="-626.5901" font-family="Helvetica,sans-Serif" font-size="11.00" fill="#000000">[table]</text>
<polygon fill="none" stroke="#000000" points="775.5,-599.4901 775.5,-618.4901 908.5,-618.4901 908.5,-599.4901 775.5,-599.4901"/>
<text text-anchor="start" x="778.5" y="-605.5901" font-family="Helvetica,sans-Serif" font-size="11.00" fill="#000000">...</text>
<polygon fill="#ffffff" stroke="transparent" points="775.5,-580.4901 775.5,-599.4901 827.5,-599.4901 827.5,-580.4901 775.5,-580.4901"/>
<polygon fill="none" stroke="#000000" points="775.5,-580.4901 775.5,-599.4901 827.5,-599.4901 827.5,-580.4901 775.5,-580.4901"/>
<text text-anchor="start" x="778.5" y="-586.5901" font-family="Helvetica,sans-Serif" font-size="11.00" fill="#000000">&lt; 4</text>
<polygon fill="#ffffff" stroke="transparent" points="827.5,-580.4901 827.5,-599.4901 880.5,-599.4901 880.5,-580.4901 827.5,-580.4901"/>
<polygon fill="none" stroke="#000000" points="827.5,-580.4901 827.5,-599.4901 880.5,-599.4901 880.5,-580.4901 827.5,-580.4901"/>
<text text-anchor="start" x="845.1105" y="-586.5901" font-family="Helvetica,sans-Serif" font-size="11.00" fill="#000000">0 rows</text>
<polygon fill="#ffffff" stroke="transparent" points="880.5,-580.4901 880.5,-599.4901 908.5,-599.4901 908.5,-580.4901 880.5,-580.4901"/>
<polygon fill="none" stroke="#000000" points="880.5,-580.4901 880.5,-599.4901 908.5,-599.4901 908.5,-580.4901 880.5,-580.4901"/>
<text text-anchor="start" x="899.3862" y="-586.5901" font-family="Helvetica,sans-Serif" font-size="11.00" fill="#000000"> &#160;</text>
</a>
</g>
</g>
<!-- StudentSubjects&#45;&gt;AspNetUsers -->
<g id="edge42" class="edge">
<title>StudentSubjects:w&#45;&gt;AspNetUsers:e</title>
<path fill="none" stroke="#000000" d="M760.9307,-608.3429C728.8837,-612.5809 727.9637,-649.1185 689,-663.4901 567.1365,-708.4388 527.7499,-684.4837 398,-690.4901 293.6673,-695.3199 266.2944,-705.9465 163,-690.4901 152.1776,-688.8707 140.8993,-686.298 130.0086,-683.4067"/>
<polygon fill="#000000" stroke="#000000" points="767.5004,-608.4092 775.4636,-612.0899 771.5002,-608.4497 775.5,-608.4901 775.5,-608.4901 775.5,-608.4901 771.5002,-608.4497 775.5364,-604.8903 767.5004,-608.4092 767.5004,-608.4092"/>
<ellipse fill="none" stroke="#000000" cx="764.3006" cy="-608.3769" rx="3.2" ry="3.2"/>
</g>
<!-- StudentSubjects&#45;&gt;AspNetUsers -->
<g id="edge45" class="edge">
<title>StudentSubjects:w&#45;&gt;AspNetUsers:e</title>
<path fill="none" stroke="#000000" d="M761.3579,-612.225C728.8911,-625.2571 728.1361,-662.0549 689,-676.4901 567.1365,-721.4388 527.7499,-697.4837 398,-703.4901 293.6673,-708.3199 266.2944,-718.9465 163,-703.4901 152.1776,-701.8707 140.8993,-699.298 130.0086,-696.2264"/>
<polygon fill="#000000" stroke="#000000" points="767.7652,-610.5329 776.4193,-611.9707 771.6326,-609.5115 775.5,-608.4901 775.5,-608.4901 775.5,-608.4901 771.6326,-609.5115 774.5807,-605.0094 767.7652,-610.5329 767.7652,-610.5329"/>
<ellipse fill="none" stroke="#000000" cx="764.6713" cy="-611.35" rx="3.2" ry="3.2"/>
</g>
<!-- StudentSubjects&#45;&gt;Students -->
<g id="edge43" class="edge">
<title>StudentSubjects:w&#45;&gt;Students:e</title>
<path fill="none" stroke="#000000" d="M761.0396,-607.6677C645.9215,-593.5768 782.8319,-401.9127 689,-304.4901 669.2299,-283.9635 639.3297,-273.4579 613.2921,-268.0862"/>
<polygon fill="#000000" stroke="#000000" points="767.5129,-608.0358 775.2956,-612.0843 771.5065,-608.2629 775.5,-608.4901 775.5,-608.4901 775.5,-608.4901 771.5065,-608.2629 775.7044,-604.8959 767.5129,-608.0358 767.5129,-608.0358"/>
<ellipse fill="none" stroke="#000000" cx="764.3181" cy="-607.8541" rx="3.2" ry="3.2"/>
</g>
<!-- Subjects -->
<g id="node21" class="node">
<title>Subjects</title>
<g id="a_node21"><a xlink:href="../../tables/Subjects.html" xlink:title="Subjects" target="_top">
<polygon fill="#ffffff" stroke="transparent" points="515.5,-515.9901 515.5,-576.9901 604.5,-576.9901 604.5,-515.9901 515.5,-515.9901"/>
<polygon fill="#f5f5f5" stroke="transparent" points="516,-553.4901 516,-576.4901 605,-576.4901 605,-553.4901 516,-553.4901"/>
<polygon fill="none" stroke="#000000" points="516,-553.4901 516,-576.4901 605,-576.4901 605,-553.4901 516,-553.4901"/>
<text text-anchor="start" x="521" y="-562.0901" font-family="Helvetica,sans-Serif" font-weight="bold" font-size="11.00" fill="#000000">Subjects</text>
<text text-anchor="start" x="570.5219" y="-561.5901" font-family="Helvetica,sans-Serif" font-size="11.00" fill="#000000">[table]</text>
<polygon fill="none" stroke="#000000" points="516,-534.4901 516,-553.4901 605,-553.4901 605,-534.4901 516,-534.4901"/>
<text text-anchor="start" x="519" y="-540.5901" font-family="Helvetica,sans-Serif" font-size="11.00" fill="#000000">...</text>
<polygon fill="#ffffff" stroke="transparent" points="516,-515.4901 516,-534.4901 541,-534.4901 541,-515.4901 516,-515.4901"/>
<polygon fill="none" stroke="#000000" points="516,-515.4901 516,-534.4901 541,-534.4901 541,-515.4901 516,-515.4901"/>
<text text-anchor="start" x="519" y="-521.5901" font-family="Helvetica,sans-Serif" font-size="11.00" fill="#000000">&lt; 4</text>
<polygon fill="#ffffff" stroke="transparent" points="541,-515.4901 541,-534.4901 581,-534.4901 581,-515.4901 541,-515.4901"/>
<polygon fill="none" stroke="#000000" points="541,-515.4901 541,-534.4901 581,-534.4901 581,-515.4901 541,-515.4901"/>
<text text-anchor="start" x="545.6105" y="-521.5901" font-family="Helvetica,sans-Serif" font-size="11.00" fill="#000000">0 rows</text>
<polygon fill="#ffffff" stroke="transparent" points="581,-515.4901 581,-534.4901 605,-534.4901 605,-515.4901 581,-515.4901"/>
<polygon fill="none" stroke="#000000" points="581,-515.4901 581,-534.4901 605,-534.4901 605,-515.4901 581,-515.4901"/>
<text text-anchor="start" x="586.4053" y="-521.5901" font-family="Helvetica,sans-Serif" font-size="11.00" fill="#000000">1 &gt;</text>
</a>
</g>
</g>
<!-- StudentSubjects&#45;&gt;Subjects -->
<g id="edge44" class="edge">
<title>StudentSubjects:w&#45;&gt;Subjects:e</title>
<path fill="none" stroke="#000000" d="M761.199,-606.2892C729.6719,-599.5079 660.8977,-578.4738 612.5697,-563.2682"/>
<polygon fill="#000000" stroke="#000000" points="767.5931,-607.2732 774.9524,-612.0482 771.5465,-607.8816 775.5,-608.4901 775.5,-608.4901 775.5,-608.4901 771.5465,-607.8816 776.0476,-604.932 767.5931,-607.2732 767.5931,-607.2732"/>
<ellipse fill="none" stroke="#000000" cx="764.4303" cy="-606.7864" rx="3.2" ry="3.2"/>
</g>
<!-- Subjects&#45;&gt;AspNetUsers -->
<g id="edge46" class="edge">
<title>Subjects:w&#45;&gt;AspNetUsers:e</title>
<path fill="none" stroke="#000000" d="M493.0688,-551.916C471.5331,-557.6757 448.6909,-567.0585 431,-581.4901 407.7187,-600.4821 423.4495,-624.5201 398,-640.4901 354.9519,-667.5034 214.4252,-666.8784 130.3038,-665.7474"/>
<polygon fill="#000000" stroke="#000000" points="499.5385,-550.3948 508.1501,-552.0681 503.4323,-549.4793 507.3261,-548.5637 507.3261,-548.5637 507.3261,-548.5637 503.4323,-549.4793 506.5021,-545.0593 499.5385,-550.3948 499.5385,-550.3948"/>
<ellipse fill="none" stroke="#000000" cx="496.4235" cy="-551.1273" rx="3.2" ry="3.2"/>
</g>
<!-- Subjects&#45;&gt;AspNetUsers -->
<g id="edge49" class="edge">
<title>Subjects:w&#45;&gt;AspNetUsers:e</title>
<path fill="none" stroke="#000000" d="M493.3779,-564.1128C471.7518,-570.586 448.7755,-579.9895 431,-594.4901 407.7187,-613.4821 423.4495,-637.5201 398,-653.4901 354.9519,-680.5034 214.4252,-679.8784 130.3038,-674.5589"/>
<polygon fill="#000000" stroke="#000000" points="499.6152,-562.389 508.2851,-563.7279 503.4707,-561.3235 507.3261,-560.2579 507.3261,-560.2579 507.3261,-560.2579 503.4707,-561.3235 506.3671,-556.788 499.6152,-562.389 499.6152,-562.389"/>
<ellipse fill="none" stroke="#000000" cx="496.5308" cy="-563.2415" rx="3.2" ry="3.2"/>
</g>
<!-- Subjects&#45;&gt;TechnicalCareers -->
<g id="edge48" class="edge">
<title>Subjects:w&#45;&gt;TechnicalCareers:e</title>
<path fill="none" stroke="#000000" d="M493.0389,-529.8304C461.5262,-523.3675 423.3014,-517.4901 388.5,-517.4901"/>
<polygon fill="#000000" stroke="#000000" points="499.6435,-531.2467 506.7109,-536.4441 503.5546,-532.0854 507.4657,-532.9241 507.4657,-532.9241 507.4657,-532.9241 503.5546,-532.0854 508.2205,-529.4041 499.6435,-531.2467 499.6435,-531.2467"/>
<ellipse fill="none" stroke="#000000" cx="496.5147" cy="-530.5757" rx="3.2" ry="3.2"/>
</g>
<!-- Subjects&#45;&gt;Professors -->
<g id="edge47" class="edge">
<title>Subjects:w&#45;&gt;Professors:e</title>
<path fill="none" stroke="#000000" d="M493.3984,-566.5564C437.746,-582.6238 362.6389,-602.4901 331.5,-602.4901"/>
<polygon fill="#000000" stroke="#000000" points="499.7672,-564.7006 508.4549,-565.9187 503.6074,-563.5816 507.4477,-562.4625 507.4477,-562.4625 507.4477,-562.4625 503.6074,-563.5816 506.4406,-559.0062 499.7672,-564.7006 499.7672,-564.7006"/>
<ellipse fill="none" stroke="#000000" cx="496.6949" cy="-565.5959" rx="3.2" ry="3.2"/>
</g>
</g>
</svg>
