<?xml version="1.0" encoding="UTF-8" standalone="no"?>
<!DOCTYPE svg PUBLIC "-//W3C//DTD SVG 1.1//EN"
 "http://www.w3.org/Graphics/SVG/1.1/DTD/svg11.dtd">
<!-- Generated by graphviz version 2.40.1 (20161225.0304)
 -->
<!-- Title: oneDegreeRelationshipsDiagram Pages: 1 -->
<svg width="746pt" height="905pt"
 viewBox="0.00 0.00 746.00 904.70" xmlns="http://www.w3.org/2000/svg" xmlns:xlink="http://www.w3.org/1999/xlink">
<g id="graph0" class="graph" transform="scale(1 1) rotate(0) translate(4 900.7)">
<title>oneDegreeRelationshipsDiagram</title>
<polygon fill="#ffffff" stroke="transparent" points="-4,4 -4,-900.7 742,-900.7 742,4 -4,4"/>
<text text-anchor="middle" x="72.4936" y="-7.3" font-family="Helvetica,sans-Serif" font-size="11.00" fill="#000000">Generated by SchemaSpy</text>
<!-- CompetencyTechnicalCareer -->
<g id="node1" class="node">
<title>CompetencyTechnicalCareer</title>
<g id="a_node1"><a xlink:href="../../tables/CompetencyTechnicalCareer.html" xlink:title="CompetencyTechnicalCareer" target="_top">
<polygon fill="#ffffff" stroke="transparent" points="507,-699.7 507,-785.7 711,-785.7 711,-699.7 507,-699.7"/>
<polygon fill="#f5f5f5" stroke="transparent" points="507,-762.7 507,-785.7 711,-785.7 711,-762.7 507,-762.7"/>
<polygon fill="none" stroke="#000000" points="507,-762.7 507,-785.7 711,-785.7 711,-762.7 507,-762.7"/>
<text text-anchor="start" x="512" y="-771.3" font-family="Helvetica,sans-Serif" font-weight="bold" font-size="11.00" fill="#000000">CompetencyTechnicalCareer</text>
<text text-anchor="start" x="676.5219" y="-770.8" font-family="Helvetica,sans-Serif" font-size="11.00" fill="#000000">[table]</text>
<polygon fill="none" stroke="#000000" points="507,-740.7 507,-762.7 711,-762.7 711,-740.7 507,-740.7"/>
<image xlink:href="../../images/primaryKeys.png" width="11px" height="12px" preserveAspectRatio="xMinYMin meet" x="512" y="-757.7"/>
<text text-anchor="start" x="536" y="-747.8" font-family="Helvetica,sans-Serif" font-size="11.00" fill="#000000">CompetenciesId</text>
<polygon fill="none" stroke="#000000" points="507,-718.7 507,-740.7 711,-740.7 711,-718.7 507,-718.7"/>
<image xlink:href="../../images/primaryKeys.png" width="11px" height="12px" preserveAspectRatio="xMinYMin meet" x="512" y="-735.7"/>
<text text-anchor="start" x="536" y="-725.8" font-family="Helvetica,sans-Serif" font-size="11.00" fill="#000000">TechnicalCareersId</text>
<polygon fill="#ffffff" stroke="transparent" points="507,-699.7 507,-718.7 594,-718.7 594,-699.7 507,-699.7"/>
<polygon fill="none" stroke="#000000" points="507,-699.7 507,-718.7 594,-718.7 594,-699.7 507,-699.7"/>
<text text-anchor="start" x="510" y="-705.8" font-family="Helvetica,sans-Serif" font-size="11.00" fill="#000000">&lt; 2</text>
<polygon fill="#ffffff" stroke="transparent" points="594,-699.7 594,-718.7 665,-718.7 665,-699.7 594,-699.7"/>
<polygon fill="none" stroke="#000000" points="594,-699.7 594,-718.7 665,-718.7 665,-699.7 594,-699.7"/>
<text text-anchor="start" x="629.6105" y="-705.8" font-family="Helvetica,sans-Serif" font-size="11.00" fill="#000000">0 rows</text>
<polygon fill="#ffffff" stroke="transparent" points="665,-699.7 665,-718.7 711,-718.7 711,-699.7 665,-699.7"/>
<polygon fill="none" stroke="#000000" points="665,-699.7 665,-718.7 711,-718.7 711,-699.7 665,-699.7"/>
<text text-anchor="start" x="701.8862" y="-705.8" font-family="Helvetica,sans-Serif" font-size="11.00" fill="#000000"> &#160;</text>
</a>
</g>
</g>
<!-- TechnicalCareers -->
<g id="node2" class="node">
<title>TechnicalCareers</title>
<g id="a_node2"><a xlink:href="../../tables/TechnicalCareers.html" xlink:title="TechnicalCareers" target="_top">
<polygon fill="#ffffff" stroke="transparent" points="220,-432.7 220,-632.7 439,-632.7 439,-432.7 220,-432.7"/>
<polygon fill="#f5f5f5" stroke="transparent" points="222.5,-607.7 222.5,-630.7 437.5,-630.7 437.5,-607.7 222.5,-607.7"/>
<polygon fill="none" stroke="#000000" points="222.5,-607.7 222.5,-630.7 437.5,-630.7 437.5,-607.7 222.5,-607.7"/>
<text text-anchor="start" x="227.5" y="-616.3" font-family="Helvetica,sans-Serif" font-weight="bold" font-size="11.00" fill="#000000">TechnicalCareers</text>
<text text-anchor="start" x="402.5437" y="-615.8" font-family="Helvetica,sans-Serif" font-size="11.00" fill="#000000">[table]</text>
<polygon fill="none" stroke="#000000" points="222.5,-585.7 222.5,-607.7 343.5,-607.7 343.5,-585.7 222.5,-585.7"/>
<image xlink:href="../../images/primaryKeys.png" width="11px" height="12px" preserveAspectRatio="xMinYMin meet" x="227.5" y="-602.7"/>
<text text-anchor="start" x="242.5" y="-592.8" font-family="Helvetica,sans-Serif" font-size="11.00" fill="#000000">Id</text>
<polygon fill="none" stroke="#000000" points="343.5,-585.7 343.5,-607.7 437.5,-607.7 437.5,-585.7 343.5,-585.7"/>
<text text-anchor="start" x="346.4758" y="-593.4" font-family="Helvetica,sans-Serif" font-size="11.00" fill="#000000">uuid[2147483647]</text>
<polygon fill="none" stroke="#000000" points="222.5,-563.7 222.5,-585.7 343.5,-585.7 343.5,-563.7 222.5,-563.7"/>
<text text-anchor="start" x="242.5" y="-570.8" font-family="Helvetica,sans-Serif" font-size="11.00" fill="#000000">Name</text>
<polygon fill="none" stroke="#000000" points="343.5,-563.7 343.5,-585.7 437.5,-585.7 437.5,-563.7 343.5,-563.7"/>
<text text-anchor="start" x="346.5" y="-571.4" font-family="Helvetica,sans-Serif" font-size="11.00" fill="#000000">text[2147483647]</text>
<polygon fill="none" stroke="#000000" points="222.5,-541.7 222.5,-563.7 343.5,-563.7 343.5,-541.7 222.5,-541.7"/>
<text text-anchor="start" x="242.5" y="-548.8" font-family="Helvetica,sans-Serif" font-size="11.00" fill="#000000">IsActive</text>
<polygon fill="none" stroke="#000000" points="343.5,-541.7 343.5,-563.7 437.5,-563.7 437.5,-541.7 343.5,-541.7"/>
<text text-anchor="start" x="346.5" y="-549.4" font-family="Helvetica,sans-Serif" font-size="11.00" fill="#000000">bool[1]</text>
<polygon fill="none" stroke="#000000" points="222.5,-519.7 222.5,-541.7 343.5,-541.7 343.5,-519.7 222.5,-519.7"/>
<text text-anchor="start" x="242.5" y="-526.8" font-family="Helvetica,sans-Serif" font-size="11.00" fill="#000000">CreatedAt</text>
<polygon fill="none" stroke="#000000" points="343.5,-519.7 343.5,-541.7 437.5,-541.7 437.5,-519.7 343.5,-519.7"/>
<text text-anchor="start" x="346.5" y="-527.4" font-family="Helvetica,sans-Serif" font-size="11.00" fill="#000000">timestamptz[35,6]</text>
<polygon fill="none" stroke="#000000" points="222.5,-497.7 222.5,-519.7 343.5,-519.7 343.5,-497.7 222.5,-497.7"/>
<text text-anchor="start" x="242.5" y="-504.8" font-family="Helvetica,sans-Serif" font-size="11.00" fill="#000000">UpdatedAt</text>
<polygon fill="none" stroke="#000000" points="343.5,-497.7 343.5,-519.7 437.5,-519.7 437.5,-497.7 343.5,-497.7"/>
<text text-anchor="start" x="346.5" y="-505.4" font-family="Helvetica,sans-Serif" font-size="11.00" fill="#000000">timestamptz[35,6]</text>
<polygon fill="#ffffff" stroke="transparent" points="222.5,-475.7 222.5,-497.7 343.5,-497.7 343.5,-475.7 222.5,-475.7"/>
<polygon fill="none" stroke="#000000" points="222.5,-475.7 222.5,-497.7 343.5,-497.7 343.5,-475.7 222.5,-475.7"/>
<image xlink:href="../../images/foreignKeys.png" width="11px" height="12px" preserveAspectRatio="xMinYMin meet" x="227.5" y="-492.7"/>
<text text-anchor="start" x="242.5" y="-482.8" font-family="Helvetica,sans-Serif" font-size="11.00" fill="#000000">CreatedByUserId</text>
<polygon fill="none" stroke="#000000" points="343.5,-475.7 343.5,-497.7 437.5,-497.7 437.5,-475.7 343.5,-475.7"/>
<text text-anchor="start" x="346.5" y="-483.4" font-family="Helvetica,sans-Serif" font-size="11.00" fill="#000000">text[2147483647]</text>
<polygon fill="#ffffff" stroke="transparent" points="222.5,-453.7 222.5,-475.7 343.5,-475.7 343.5,-453.7 222.5,-453.7"/>
<polygon fill="none" stroke="#000000" points="222.5,-453.7 222.5,-475.7 343.5,-475.7 343.5,-453.7 222.5,-453.7"/>
<image xlink:href="../../images/foreignKeys.png" width="11px" height="12px" preserveAspectRatio="xMinYMin meet" x="227.5" y="-470.7"/>
<text text-anchor="start" x="242.5" y="-460.8" font-family="Helvetica,sans-Serif" font-size="11.00" fill="#000000">UpdatedByUserId</text>
<polygon fill="none" stroke="#000000" points="343.5,-453.7 343.5,-475.7 437.5,-475.7 437.5,-453.7 343.5,-453.7"/>
<text text-anchor="start" x="346.5" y="-461.4" font-family="Helvetica,sans-Serif" font-size="11.00" fill="#000000">text[2147483647]</text>
<polygon fill="#ffffff" stroke="transparent" points="222.5,-434.7 222.5,-453.7 274.5,-453.7 274.5,-434.7 222.5,-434.7"/>
<polygon fill="none" stroke="#000000" points="222.5,-434.7 222.5,-453.7 274.5,-453.7 274.5,-434.7 222.5,-434.7"/>
<text text-anchor="start" x="225.5" y="-440.8" font-family="Helvetica,sans-Serif" font-size="11.00" fill="#000000">&lt; 2</text>
<polygon fill="#ffffff" stroke="transparent" points="274.5,-434.7 274.5,-453.7 343.5,-453.7 343.5,-434.7 274.5,-434.7"/>
<polygon fill="none" stroke="#000000" points="274.5,-434.7 274.5,-453.7 343.5,-453.7 343.5,-434.7 274.5,-434.7"/>
<text text-anchor="start" x="308.1105" y="-440.8" font-family="Helvetica,sans-Serif" font-size="11.00" fill="#000000">0 rows</text>
<polygon fill="#ffffff" stroke="transparent" points="343.5,-434.7 343.5,-453.7 437.5,-453.7 437.5,-434.7 343.5,-434.7"/>
<polygon fill="none" stroke="#000000" points="343.5,-434.7 343.5,-453.7 437.5,-453.7 437.5,-434.7 343.5,-434.7"/>
<text text-anchor="start" x="418.9053" y="-440.8" font-family="Helvetica,sans-Serif" font-size="11.00" fill="#000000">6 &gt;</text>
<polygon fill="none" stroke="#000000" stroke-width="2" points="221,-433.7 221,-631.7 438,-631.7 438,-433.7 221,-433.7"/>
</a>
</g>
</g>
<!-- CompetencyTechnicalCareer&#45;&gt;TechnicalCareers -->
<g id="edge1" class="edge">
<title>CompetencyTechnicalCareer:w&#45;&gt;TechnicalCareers:e</title>
<path fill="none" stroke="#000000" d="M492.8044,-727.0433C450.1153,-708.2983 498.5938,-596.7 437.5,-596.7"/>
<polygon fill="#000000" stroke="#000000" points="499.1365,-728.2283 506.3377,-733.2386 503.0683,-728.9641 507,-729.7 507,-729.7 507,-729.7 503.0683,-728.9641 507.6623,-726.1614 499.1365,-728.2283 499.1365,-728.2283"/>
<ellipse fill="none" stroke="#000000" cx="495.9911" cy="-727.6396" rx="3.2" ry="3.2"/>
</g>
<!-- AspNetUsers -->
<g id="node4" class="node">
<title>AspNetUsers</title>
<g id="a_node4"><a xlink:href="../../tables/AspNetUsers.html" xlink:title="AspNetUsers" target="_top">
<polygon fill="#ffffff" stroke="transparent" points="8,-302.2 8,-429.2 171,-429.2 171,-302.2 8,-302.2"/>
<polygon fill="#f5f5f5" stroke="transparent" points="8.5,-405.7 8.5,-428.7 171.5,-428.7 171.5,-405.7 8.5,-405.7"/>
<polygon fill="none" stroke="#000000" points="8.5,-405.7 8.5,-428.7 171.5,-428.7 171.5,-405.7 8.5,-405.7"/>
<text text-anchor="start" x="13.5" y="-414.3" font-family="Helvetica,sans-Serif" font-weight="bold" font-size="11.00" fill="#000000">AspNetUsers</text>
<text text-anchor="start" x="136.5437" y="-413.8" font-family="Helvetica,sans-Serif" font-size="11.00" fill="#000000">[table]</text>
<polygon fill="none" stroke="#000000" points="8.5,-383.7 8.5,-405.7 171.5,-405.7 171.5,-383.7 8.5,-383.7"/>
<image xlink:href="../../images/primaryKeys.png" width="11px" height="12px" preserveAspectRatio="xMinYMin meet" x="13.5" y="-400.7"/>
<text text-anchor="start" x="28.5" y="-390.8" font-family="Helvetica,sans-Serif" font-size="11.00" fill="#000000">Id</text>
<polygon fill="#ffffff" stroke="transparent" points="8.5,-361.7 8.5,-383.7 171.5,-383.7 171.5,-361.7 8.5,-361.7"/>
<polygon fill="none" stroke="#000000" points="8.5,-361.7 8.5,-383.7 171.5,-383.7 171.5,-361.7 8.5,-361.7"/>
<text text-anchor="start" x="28.5" y="-368.8" font-family="Helvetica,sans-Serif" font-size="11.00" fill="#000000">NormalizedUserName</text>
<polygon fill="#ffffff" stroke="transparent" points="8.5,-339.7 8.5,-361.7 171.5,-361.7 171.5,-339.7 8.5,-339.7"/>
<polygon fill="none" stroke="#000000" points="8.5,-339.7 8.5,-361.7 171.5,-361.7 171.5,-339.7 8.5,-339.7"/>
<text text-anchor="start" x="28.5" y="-346.8" font-family="Helvetica,sans-Serif" font-size="11.00" fill="#000000">NormalizedEmail</text>
<polygon fill="none" stroke="#000000" points="8.5,-320.7 8.5,-339.7 171.5,-339.7 171.5,-320.7 8.5,-320.7"/>
<text text-anchor="start" x="11.5" y="-326.8" font-family="Helvetica,sans-Serif" font-size="11.00" fill="#000000">...</text>
<polygon fill="#ffffff" stroke="transparent" points="8.5,-301.7 8.5,-320.7 63.5,-320.7 63.5,-301.7 8.5,-301.7"/>
<polygon fill="none" stroke="#000000" points="8.5,-301.7 8.5,-320.7 63.5,-320.7 63.5,-301.7 8.5,-301.7"/>
<text text-anchor="start" x="11.5" y="-307.8" font-family="Helvetica,sans-Serif" font-size="11.00" fill="#000000"> &#160;</text>
<polygon fill="#ffffff" stroke="transparent" points="63.5,-301.7 63.5,-320.7 122.5,-320.7 122.5,-301.7 63.5,-301.7"/>
<polygon fill="none" stroke="#000000" points="63.5,-301.7 63.5,-320.7 122.5,-320.7 122.5,-301.7 63.5,-301.7"/>
<text text-anchor="start" x="87.1105" y="-307.8" font-family="Helvetica,sans-Serif" font-size="11.00" fill="#000000">0 rows</text>
<polygon fill="#ffffff" stroke="transparent" points="122.5,-301.7 122.5,-320.7 171.5,-320.7 171.5,-301.7 122.5,-301.7"/>
<polygon fill="none" stroke="#000000" points="122.5,-301.7 122.5,-320.7 171.5,-320.7 171.5,-301.7 122.5,-301.7"/>
<text text-anchor="start" x="146.7904" y="-307.8" font-family="Helvetica,sans-Serif" font-size="11.00" fill="#000000">29 &gt;</text>
</a>
</g>
</g>
<!-- TechnicalCareers&#45;&gt;AspNetUsers -->
<g id="edge13" class="edge">
<title>TechnicalCareers:w&#45;&gt;AspNetUsers:e</title>
<path fill="none" stroke="#000000" d="M208.4874,-482.5079C185.2233,-464.51 212.2247,-394.7 171.5,-394.7"/>
<polygon fill="#000000" stroke="#000000" points="214.8356,-484.407 221.4682,-490.149 218.6678,-485.5535 222.5,-486.7 222.5,-486.7 222.5,-486.7 218.6678,-485.5535 223.5318,-483.251 214.8356,-484.407 214.8356,-484.407"/>
<ellipse fill="none" stroke="#000000" cx="211.7699" cy="-483.4898" rx="3.2" ry="3.2"/>
</g>
<!-- TechnicalCareers&#45;&gt;AspNetUsers -->
<g id="edge14" class="edge">
<title>TechnicalCareers:w&#45;&gt;AspNetUsers:e</title>
<path fill="none" stroke="#000000" d="M208.6872,-460.1071C190.5536,-444.534 203.9781,-394.7 171.5,-394.7"/>
<polygon fill="#000000" stroke="#000000" points="214.9087,-462.1758 221.3641,-468.1161 218.7043,-463.4379 222.5,-464.7 222.5,-464.7 222.5,-464.7 218.7043,-463.4379 223.6359,-461.2839 214.9087,-462.1758 214.9087,-462.1758"/>
<ellipse fill="none" stroke="#000000" cx="211.8721" cy="-461.1661" rx="3.2" ry="3.2"/>
</g>
<!-- Coordinators -->
<g id="node3" class="node">
<title>Coordinators</title>
<g id="a_node3"><a xlink:href="../../tables/Coordinators.html" xlink:title="Coordinators" target="_top">
<polygon fill="#ffffff" stroke="transparent" points="546.5,-806.7 546.5,-892.7 671.5,-892.7 671.5,-806.7 546.5,-806.7"/>
<polygon fill="#f5f5f5" stroke="transparent" points="547,-869.7 547,-892.7 672,-892.7 672,-869.7 547,-869.7"/>
<polygon fill="none" stroke="#000000" points="547,-869.7 547,-892.7 672,-892.7 672,-869.7 547,-869.7"/>
<text text-anchor="start" x="552" y="-878.3" font-family="Helvetica,sans-Serif" font-weight="bold" font-size="11.00" fill="#000000">Coordinators</text>
<text text-anchor="start" x="637.0437" y="-877.8" font-family="Helvetica,sans-Serif" font-size="11.00" fill="#000000">[table]</text>
<polygon fill="none" stroke="#000000" points="547,-847.7 547,-869.7 672,-869.7 672,-847.7 547,-847.7"/>
<image xlink:href="../../images/primaryKeys.png" width="11px" height="12px" preserveAspectRatio="xMinYMin meet" x="552" y="-864.7"/>
<text text-anchor="start" x="567" y="-854.8" font-family="Helvetica,sans-Serif" font-size="11.00" fill="#000000">UserId</text>
<polygon fill="#ffffff" stroke="transparent" points="547,-825.7 547,-847.7 672,-847.7 672,-825.7 547,-825.7"/>
<polygon fill="none" stroke="#000000" points="547,-825.7 547,-847.7 672,-847.7 672,-825.7 547,-825.7"/>
<image xlink:href="../../images/foreignKeys.png" width="11px" height="12px" preserveAspectRatio="xMinYMin meet" x="552" y="-842.7"/>
<text text-anchor="start" x="567" y="-832.8" font-family="Helvetica,sans-Serif" font-size="11.00" fill="#000000">TechnicalCareerId</text>
<polygon fill="#ffffff" stroke="transparent" points="547,-806.7 547,-825.7 595,-825.7 595,-806.7 547,-806.7"/>
<polygon fill="none" stroke="#000000" points="547,-806.7 547,-825.7 595,-825.7 595,-806.7 547,-806.7"/>
<text text-anchor="start" x="550" y="-812.8" font-family="Helvetica,sans-Serif" font-size="11.00" fill="#000000">&lt; 2</text>
<polygon fill="#ffffff" stroke="transparent" points="595,-806.7 595,-825.7 646,-825.7 646,-806.7 595,-806.7"/>
<polygon fill="none" stroke="#000000" points="595,-806.7 595,-825.7 646,-825.7 646,-806.7 595,-806.7"/>
<text text-anchor="start" x="610.6105" y="-812.8" font-family="Helvetica,sans-Serif" font-size="11.00" fill="#000000">0 rows</text>
<polygon fill="#ffffff" stroke="transparent" points="646,-806.7 646,-825.7 672,-825.7 672,-806.7 646,-806.7"/>
<polygon fill="none" stroke="#000000" points="646,-806.7 646,-825.7 672,-825.7 672,-806.7 646,-806.7"/>
<text text-anchor="start" x="662.8862" y="-812.8" font-family="Helvetica,sans-Serif" font-size="11.00" fill="#000000"> &#160;</text>
</a>
</g>
</g>
<!-- Coordinators&#45;&gt;TechnicalCareers -->
<g id="edge2" class="edge">
<title>Coordinators:w&#45;&gt;TechnicalCareers:e</title>
<path fill="none" stroke="#000000" d="M532.611,-835.8625C508.4335,-832.7257 497.1044,-820.6092 480,-796.7 427.1267,-722.7917 528.3737,-596.7 437.5,-596.7"/>
<polygon fill="#000000" stroke="#000000" points="539.0135,-836.2351 546.7908,-840.2939 543.0068,-836.4676 547,-836.7 547,-836.7 547,-836.7 543.0068,-836.4676 547.2092,-833.1061 539.0135,-836.2351 539.0135,-836.2351"/>
<ellipse fill="none" stroke="#000000" cx="535.8189" cy="-836.0492" rx="3.2" ry="3.2"/>
</g>
<!-- Coordinators&#45;&gt;AspNetUsers -->
<g id="edge3" class="edge">
<title>Coordinators:w&#45;&gt;AspNetUsers:e</title>
<path fill="none" stroke="#000000" d="M536.5129,-858.6192C367.6276,-855.9815 307.1177,-788.6509 212,-643.7 181.2435,-596.8298 227.5605,-394.7 171.5,-394.7"/>
<polygon fill="#000000" stroke="#000000" points="546.2309,-854.6939 546.1692,-862.6937 544.5692,-862.6814 544.6309,-854.6816 546.2309,-854.6939"/>
<polyline fill="none" stroke="#000000" points="547,-858.7 543.0001,-858.6692 "/>
<ellipse fill="none" stroke="#000000" cx="539.8002" cy="-858.6445" rx="3.2" ry="3.2"/>
</g>
<!-- EvaluationPeriodTechnicalCareer -->
<g id="node5" class="node">
<title>EvaluationPeriodTechnicalCareer</title>
<g id="a_node5"><a xlink:href="../../tables/EvaluationPeriodTechnicalCareer.html" xlink:title="EvaluationPeriodTechnicalCareer" target="_top">
<polygon fill="#ffffff" stroke="transparent" points="494,-592.7 494,-678.7 724,-678.7 724,-592.7 494,-592.7"/>
<polygon fill="#f5f5f5" stroke="transparent" points="494,-655.7 494,-678.7 724,-678.7 724,-655.7 494,-655.7"/>
<polygon fill="none" stroke="#000000" points="494,-655.7 494,-678.7 724,-678.7 724,-655.7 494,-655.7"/>
<text text-anchor="start" x="499" y="-664.3" font-family="Helvetica,sans-Serif" font-weight="bold" font-size="11.00" fill="#000000">EvaluationPeriodTechnicalCareer</text>
<text text-anchor="start" x="689.5219" y="-663.8" font-family="Helvetica,sans-Serif" font-size="11.00" fill="#000000">[table]</text>
<polygon fill="none" stroke="#000000" points="494,-633.7 494,-655.7 724,-655.7 724,-633.7 494,-633.7"/>
<image xlink:href="../../images/primaryKeys.png" width="11px" height="12px" preserveAspectRatio="xMinYMin meet" x="499" y="-650.7"/>
<text text-anchor="start" x="523" y="-640.8" font-family="Helvetica,sans-Serif" font-size="11.00" fill="#000000">EvaluationPeriodsId</text>
<polygon fill="none" stroke="#000000" points="494,-611.7 494,-633.7 724,-633.7 724,-611.7 494,-611.7"/>
<image xlink:href="../../images/primaryKeys.png" width="11px" height="12px" preserveAspectRatio="xMinYMin meet" x="499" y="-628.7"/>
<text text-anchor="start" x="523" y="-618.8" font-family="Helvetica,sans-Serif" font-size="11.00" fill="#000000">TechnicalCareersId</text>
<polygon fill="#ffffff" stroke="transparent" points="494,-592.7 494,-611.7 594,-611.7 594,-592.7 494,-592.7"/>
<polygon fill="none" stroke="#000000" points="494,-592.7 494,-611.7 594,-611.7 594,-592.7 494,-592.7"/>
<text text-anchor="start" x="497" y="-598.8" font-family="Helvetica,sans-Serif" font-size="11.00" fill="#000000">&lt; 2</text>
<polygon fill="#ffffff" stroke="transparent" points="594,-592.7 594,-611.7 672,-611.7 672,-592.7 594,-592.7"/>
<polygon fill="none" stroke="#000000" points="594,-592.7 594,-611.7 672,-611.7 672,-592.7 594,-592.7"/>
<text text-anchor="start" x="636.6105" y="-598.8" font-family="Helvetica,sans-Serif" font-size="11.00" fill="#000000">0 rows</text>
<polygon fill="#ffffff" stroke="transparent" points="672,-592.7 672,-611.7 724,-611.7 724,-592.7 672,-592.7"/>
<polygon fill="none" stroke="#000000" points="672,-592.7 672,-611.7 724,-611.7 724,-592.7 672,-592.7"/>
<text text-anchor="start" x="714.8862" y="-598.8" font-family="Helvetica,sans-Serif" font-size="11.00" fill="#000000"> &#160;</text>
</a>
</g>
</g>
<!-- EvaluationPeriodTechnicalCareer&#45;&gt;TechnicalCareers -->
<g id="edge4" class="edge">
<title>EvaluationPeriodTechnicalCareer:w&#45;&gt;TechnicalCareers:e</title>
<path fill="none" stroke="#000000" d="M479.5391,-619.7175C464.6691,-612.8881 459.3115,-596.7 437.5,-596.7"/>
<polygon fill="#000000" stroke="#000000" points="486.1649,-621.084 493.2728,-626.2258 490.0825,-621.892 494,-622.7 494,-622.7 494,-622.7 490.0825,-621.892 494.7272,-619.1742 486.1649,-621.084 486.1649,-621.084"/>
<ellipse fill="none" stroke="#000000" cx="483.0309" cy="-620.4376" rx="3.2" ry="3.2"/>
</g>
<!-- ProfessorCompetencyAssignments -->
<g id="node6" class="node">
<title>ProfessorCompetencyAssignments</title>
<g id="a_node6"><a xlink:href="../../tables/ProfessorCompetencyAssignments.html" xlink:title="ProfessorCompetencyAssignments" target="_top">
<polygon fill="#ffffff" stroke="transparent" points="488,-356.2 488,-571.2 730,-571.2 730,-356.2 488,-356.2"/>
<polygon fill="#f5f5f5" stroke="transparent" points="488,-547.7 488,-570.7 730,-570.7 730,-547.7 488,-547.7"/>
<polygon fill="none" stroke="#000000" points="488,-547.7 488,-570.7 730,-570.7 730,-547.7 488,-547.7"/>
<text text-anchor="start" x="493" y="-556.3" font-family="Helvetica,sans-Serif" font-weight="bold" font-size="11.00" fill="#000000">ProfessorCompetencyAssignments</text>
<text text-anchor="start" x="695.5219" y="-555.8" font-family="Helvetica,sans-Serif" font-size="11.00" fill="#000000">[table]</text>
<polygon fill="none" stroke="#000000" points="488,-525.7 488,-547.7 730,-547.7 730,-525.7 488,-525.7"/>
<image xlink:href="../../images/primaryKeys.png" width="11px" height="12px" preserveAspectRatio="xMinYMin meet" x="493" y="-542.7"/>
<text text-anchor="start" x="517" y="-532.8" font-family="Helvetica,sans-Serif" font-size="11.00" fill="#000000">Id</text>
<polygon fill="#ffffff" stroke="transparent" points="488,-503.7 488,-525.7 730,-525.7 730,-503.7 488,-503.7"/>
<polygon fill="none" stroke="#000000" points="488,-503.7 488,-525.7 730,-525.7 730,-503.7 488,-503.7"/>
<image xlink:href="../../images/foreignKeys.png" width="11px" height="12px" preserveAspectRatio="xMinYMin meet" x="493" y="-520.7"/>
<text text-anchor="start" x="517" y="-510.8" font-family="Helvetica,sans-Serif" font-size="11.00" fill="#000000">ProfessorId</text>
<polygon fill="#ffffff" stroke="transparent" points="488,-481.7 488,-503.7 730,-503.7 730,-481.7 488,-481.7"/>
<polygon fill="none" stroke="#000000" points="488,-481.7 488,-503.7 730,-503.7 730,-481.7 488,-481.7"/>
<image xlink:href="../../images/foreignKeys.png" width="11px" height="12px" preserveAspectRatio="xMinYMin meet" x="493" y="-498.7"/>
<text text-anchor="start" x="517" y="-488.8" font-family="Helvetica,sans-Serif" font-size="11.00" fill="#000000">TechnicalCareerId</text>
<polygon fill="#ffffff" stroke="transparent" points="488,-459.7 488,-481.7 730,-481.7 730,-459.7 488,-459.7"/>
<polygon fill="none" stroke="#000000" points="488,-459.7 488,-481.7 730,-481.7 730,-459.7 488,-459.7"/>
<image xlink:href="../../images/foreignKeys.png" width="11px" height="12px" preserveAspectRatio="xMinYMin meet" x="493" y="-476.7"/>
<text text-anchor="start" x="517" y="-466.8" font-family="Helvetica,sans-Serif" font-size="11.00" fill="#000000">CompetencyId</text>
<polygon fill="#ffffff" stroke="transparent" points="488,-437.7 488,-459.7 730,-459.7 730,-437.7 488,-437.7"/>
<polygon fill="none" stroke="#000000" points="488,-437.7 488,-459.7 730,-459.7 730,-437.7 488,-437.7"/>
<image xlink:href="../../images/foreignKeys.png" width="11px" height="12px" preserveAspectRatio="xMinYMin meet" x="493" y="-454.7"/>
<text text-anchor="start" x="517" y="-444.8" font-family="Helvetica,sans-Serif" font-size="11.00" fill="#000000">EvaluationPeriodId</text>
<polygon fill="#ffffff" stroke="transparent" points="488,-415.7 488,-437.7 730,-437.7 730,-415.7 488,-415.7"/>
<polygon fill="none" stroke="#000000" points="488,-415.7 488,-437.7 730,-437.7 730,-415.7 488,-415.7"/>
<image xlink:href="../../images/foreignKeys.png" width="11px" height="12px" preserveAspectRatio="xMinYMin meet" x="493" y="-432.7"/>
<text text-anchor="start" x="517" y="-422.8" font-family="Helvetica,sans-Serif" font-size="11.00" fill="#000000">CreatedByUserId</text>
<polygon fill="#ffffff" stroke="transparent" points="488,-393.7 488,-415.7 730,-415.7 730,-393.7 488,-393.7"/>
<polygon fill="none" stroke="#000000" points="488,-393.7 488,-415.7 730,-415.7 730,-393.7 488,-393.7"/>
<image xlink:href="../../images/foreignKeys.png" width="11px" height="12px" preserveAspectRatio="xMinYMin meet" x="493" y="-410.7"/>
<text text-anchor="start" x="517" y="-400.8" font-family="Helvetica,sans-Serif" font-size="11.00" fill="#000000">UpdatedByUserId</text>
<polygon fill="none" stroke="#000000" points="488,-374.7 488,-393.7 730,-393.7 730,-374.7 488,-374.7"/>
<text text-anchor="start" x="491" y="-380.8" font-family="Helvetica,sans-Serif" font-size="11.00" fill="#000000">...</text>
<polygon fill="#ffffff" stroke="transparent" points="488,-355.7 488,-374.7 590,-374.7 590,-355.7 488,-355.7"/>
<polygon fill="none" stroke="#000000" points="488,-355.7 488,-374.7 590,-374.7 590,-355.7 488,-355.7"/>
<text text-anchor="start" x="491" y="-361.8" font-family="Helvetica,sans-Serif" font-size="11.00" fill="#000000">&lt; 6</text>
<polygon fill="#ffffff" stroke="transparent" points="590,-355.7 590,-374.7 668,-374.7 668,-355.7 590,-355.7"/>
<polygon fill="none" stroke="#000000" points="590,-355.7 590,-374.7 668,-374.7 668,-355.7 590,-355.7"/>
<text text-anchor="start" x="632.6105" y="-361.8" font-family="Helvetica,sans-Serif" font-size="11.00" fill="#000000">0 rows</text>
<polygon fill="#ffffff" stroke="transparent" points="668,-355.7 668,-374.7 730,-374.7 730,-355.7 668,-355.7"/>
<polygon fill="none" stroke="#000000" points="668,-355.7 668,-374.7 730,-374.7 730,-355.7 668,-355.7"/>
<text text-anchor="start" x="711.4053" y="-361.8" font-family="Helvetica,sans-Serif" font-size="11.00" fill="#000000">1 &gt;</text>
</a>
</g>
</g>
<!-- ProfessorCompetencyAssignments&#45;&gt;TechnicalCareers -->
<g id="edge6" class="edge">
<title>ProfessorCompetencyAssignments:w&#45;&gt;TechnicalCareers:e</title>
<path fill="none" stroke="#000000" d="M473.8722,-496.6499C447.4433,-515.6468 482.8618,-596.7 437.5,-596.7"/>
<polygon fill="#000000" stroke="#000000" points="480.2955,-494.8541 488.9694,-496.167 484.1477,-493.7771 488,-492.7 488,-492.7 488,-492.7 484.1477,-493.7771 487.0306,-489.233 480.2955,-494.8541 480.2955,-494.8541"/>
<ellipse fill="none" stroke="#000000" cx="477.2136" cy="-495.7158" rx="3.2" ry="3.2"/>
</g>
<!-- ProfessorCompetencyAssignments&#45;&gt;AspNetUsers -->
<g id="edge5" class="edge">
<title>ProfessorCompetencyAssignments:w&#45;&gt;AspNetUsers:e</title>
<path fill="none" stroke="#000000" d="M473.3131,-425.325C411.4041,-419.2 175.366,-394.7 171.5,-394.7"/>
<polygon fill="#000000" stroke="#000000" points="480.0348,-425.9542 487.6644,-430.2843 484.0174,-426.3271 488,-426.7 488,-426.7 488,-426.7 484.0174,-426.3271 488.3356,-423.1157 480.0348,-425.9542 480.0348,-425.9542"/>
<ellipse fill="none" stroke="#000000" cx="476.8488" cy="-425.6559" rx="3.2" ry="3.2"/>
</g>
<!-- ProfessorCompetencyAssignments&#45;&gt;AspNetUsers -->
<g id="edge7" class="edge">
<title>ProfessorCompetencyAssignments:w&#45;&gt;AspNetUsers:e</title>
<path fill="none" stroke="#000000" d="M473.6725,-402.9493C465.3967,-400.7484 459.6039,-397.0902 447,-395.7 325.2929,-382.2755 293.9453,-394.7 171.5,-394.7"/>
<polygon fill="#000000" stroke="#000000" points="480.0591,-403.7296 487.5633,-408.2734 484.0295,-404.2148 488,-404.7 488,-404.7 488,-404.7 484.0295,-404.2148 488.4367,-401.1266 480.0591,-403.7296 480.0591,-403.7296"/>
<ellipse fill="none" stroke="#000000" cx="476.8827" cy="-403.3415" rx="3.2" ry="3.2"/>
</g>
<!-- Students -->
<g id="node7" class="node">
<title>Students</title>
<g id="a_node7"><a xlink:href="../../tables/Students.html" xlink:title="Students" target="_top">
<polygon fill="#ffffff" stroke="transparent" points="546.5,-230.2 546.5,-335.2 671.5,-335.2 671.5,-230.2 546.5,-230.2"/>
<polygon fill="#f5f5f5" stroke="transparent" points="547,-311.7 547,-334.7 672,-334.7 672,-311.7 547,-311.7"/>
<polygon fill="none" stroke="#000000" points="547,-311.7 547,-334.7 672,-334.7 672,-311.7 547,-311.7"/>
<text text-anchor="start" x="552" y="-320.3" font-family="Helvetica,sans-Serif" font-weight="bold" font-size="11.00" fill="#000000">Students</text>
<text text-anchor="start" x="637.0437" y="-319.8" font-family="Helvetica,sans-Serif" font-size="11.00" fill="#000000">[table]</text>
<polygon fill="none" stroke="#000000" points="547,-289.7 547,-311.7 672,-311.7 672,-289.7 547,-289.7"/>
<image xlink:href="../../images/primaryKeys.png" width="11px" height="12px" preserveAspectRatio="xMinYMin meet" x="552" y="-306.7"/>
<text text-anchor="start" x="567" y="-296.8" font-family="Helvetica,sans-Serif" font-size="11.00" fill="#000000">UserId</text>
<polygon fill="#ffffff" stroke="transparent" points="547,-267.7 547,-289.7 672,-289.7 672,-267.7 547,-267.7"/>
<polygon fill="none" stroke="#000000" points="547,-267.7 547,-289.7 672,-289.7 672,-267.7 547,-267.7"/>
<image xlink:href="../../images/foreignKeys.png" width="11px" height="12px" preserveAspectRatio="xMinYMin meet" x="552" y="-284.7"/>
<text text-anchor="start" x="567" y="-274.8" font-family="Helvetica,sans-Serif" font-size="11.00" fill="#000000">TechnicalCareerId</text>
<polygon fill="none" stroke="#000000" points="547,-248.7 547,-267.7 672,-267.7 672,-248.7 547,-248.7"/>
<text text-anchor="start" x="550" y="-254.8" font-family="Helvetica,sans-Serif" font-size="11.00" fill="#000000">...</text>
<polygon fill="#ffffff" stroke="transparent" points="547,-229.7 547,-248.7 590,-248.7 590,-229.7 547,-229.7"/>
<polygon fill="none" stroke="#000000" points="547,-229.7 547,-248.7 590,-248.7 590,-229.7 547,-229.7"/>
<text text-anchor="start" x="550" y="-235.8" font-family="Helvetica,sans-Serif" font-size="11.00" fill="#000000">&lt; 2</text>
<polygon fill="#ffffff" stroke="transparent" points="590,-229.7 590,-248.7 639,-248.7 639,-229.7 590,-229.7"/>
<polygon fill="none" stroke="#000000" points="590,-229.7 590,-248.7 639,-248.7 639,-229.7 590,-229.7"/>
<text text-anchor="start" x="603.6105" y="-235.8" font-family="Helvetica,sans-Serif" font-size="11.00" fill="#000000">0 rows</text>
<polygon fill="#ffffff" stroke="transparent" points="639,-229.7 639,-248.7 672,-248.7 672,-229.7 639,-229.7"/>
<polygon fill="none" stroke="#000000" points="639,-229.7 639,-248.7 672,-248.7 672,-229.7 639,-229.7"/>
<text text-anchor="start" x="653.4053" y="-235.8" font-family="Helvetica,sans-Serif" font-size="11.00" fill="#000000">3 &gt;</text>
</a>
</g>
</g>
<!-- Students&#45;&gt;TechnicalCareers -->
<g id="edge8" class="edge">
<title>Students:w&#45;&gt;TechnicalCareers:e</title>
<path fill="none" stroke="#000000" d="M532.4284,-280.128C503.2235,-286.4564 496.8279,-313.1038 480,-345.7 454.0489,-395.9683 494.0717,-596.7 437.5,-596.7"/>
<polygon fill="#000000" stroke="#000000" points="539.0381,-279.4803 547.3511,-282.2828 543.0191,-279.0902 547,-278.7 547,-278.7 547,-278.7 543.0191,-279.0902 546.6489,-275.1172 539.0381,-279.4803 539.0381,-279.4803"/>
<ellipse fill="none" stroke="#000000" cx="535.8534" cy="-279.7924" rx="3.2" ry="3.2"/>
</g>
<!-- Students&#45;&gt;AspNetUsers -->
<g id="edge9" class="edge">
<title>Students:w&#45;&gt;AspNetUsers:e</title>
<path fill="none" stroke="#000000" d="M536.48,-300.7283C392.8492,-301.5175 350.9613,-318.9711 212,-371.7 192.6464,-379.0437 192.2001,-394.7 171.5,-394.7"/>
<polygon fill="#000000" stroke="#000000" points="546.1892,-296.7022 546.2108,-304.7021 544.6108,-304.7065 544.5892,-296.7065 546.1892,-296.7022"/>
<polyline fill="none" stroke="#000000" points="547,-300.7 543,-300.7108 "/>
<ellipse fill="none" stroke="#000000" cx="539.8" cy="-300.7194" rx="3.2" ry="3.2"/>
</g>
<!-- Subjects -->
<g id="node8" class="node">
<title>Subjects</title>
<g id="a_node8"><a xlink:href="../../tables/Subjects.html" xlink:title="Subjects" target="_top">
<polygon fill="#ffffff" stroke="transparent" points="546.5,-38.2 546.5,-209.2 671.5,-209.2 671.5,-38.2 546.5,-38.2"/>
<polygon fill="#f5f5f5" stroke="transparent" points="547,-185.7 547,-208.7 672,-208.7 672,-185.7 547,-185.7"/>
<polygon fill="none" stroke="#000000" points="547,-185.7 547,-208.7 672,-208.7 672,-185.7 547,-185.7"/>
<text text-anchor="start" x="552" y="-194.3" font-family="Helvetica,sans-Serif" font-weight="bold" font-size="11.00" fill="#000000">Subjects</text>
<text text-anchor="start" x="637.0437" y="-193.8" font-family="Helvetica,sans-Serif" font-size="11.00" fill="#000000">[table]</text>
<polygon fill="none" stroke="#000000" points="547,-163.7 547,-185.7 672,-185.7 672,-163.7 547,-163.7"/>
<image xlink:href="../../images/primaryKeys.png" width="11px" height="12px" preserveAspectRatio="xMinYMin meet" x="552" y="-180.7"/>
<text text-anchor="start" x="567" y="-170.8" font-family="Helvetica,sans-Serif" font-size="11.00" fill="#000000">Id</text>
<polygon fill="#ffffff" stroke="transparent" points="547,-141.7 547,-163.7 672,-163.7 672,-141.7 547,-141.7"/>
<polygon fill="none" stroke="#000000" points="547,-141.7 547,-163.7 672,-163.7 672,-141.7 547,-141.7"/>
<image xlink:href="../../images/foreignKeys.png" width="11px" height="12px" preserveAspectRatio="xMinYMin meet" x="552" y="-158.7"/>
<text text-anchor="start" x="567" y="-148.8" font-family="Helvetica,sans-Serif" font-size="11.00" fill="#000000">TechnicalCareerId</text>
<polygon fill="#ffffff" stroke="transparent" points="547,-119.7 547,-141.7 672,-141.7 672,-119.7 547,-119.7"/>
<polygon fill="none" stroke="#000000" points="547,-119.7 547,-141.7 672,-141.7 672,-119.7 547,-119.7"/>
<image xlink:href="../../images/foreignKeys.png" width="11px" height="12px" preserveAspectRatio="xMinYMin meet" x="552" y="-136.7"/>
<text text-anchor="start" x="567" y="-126.8" font-family="Helvetica,sans-Serif" font-size="11.00" fill="#000000">ProfessorId</text>
<polygon fill="#ffffff" stroke="transparent" points="547,-97.7 547,-119.7 672,-119.7 672,-97.7 547,-97.7"/>
<polygon fill="none" stroke="#000000" points="547,-97.7 547,-119.7 672,-119.7 672,-97.7 547,-97.7"/>
<image xlink:href="../../images/foreignKeys.png" width="11px" height="12px" preserveAspectRatio="xMinYMin meet" x="552" y="-114.7"/>
<text text-anchor="start" x="567" y="-104.8" font-family="Helvetica,sans-Serif" font-size="11.00" fill="#000000">CreatedByUserId</text>
<polygon fill="#ffffff" stroke="transparent" points="547,-75.7 547,-97.7 672,-97.7 672,-75.7 547,-75.7"/>
<polygon fill="none" stroke="#000000" points="547,-75.7 547,-97.7 672,-97.7 672,-75.7 547,-75.7"/>
<image xlink:href="../../images/foreignKeys.png" width="11px" height="12px" preserveAspectRatio="xMinYMin meet" x="552" y="-92.7"/>
<text text-anchor="start" x="567" y="-82.8" font-family="Helvetica,sans-Serif" font-size="11.00" fill="#000000">UpdatedByUserId</text>
<polygon fill="none" stroke="#000000" points="547,-56.7 547,-75.7 672,-75.7 672,-56.7 547,-56.7"/>
<text text-anchor="start" x="550" y="-62.8" font-family="Helvetica,sans-Serif" font-size="11.00" fill="#000000">...</text>
<polygon fill="#ffffff" stroke="transparent" points="547,-37.7 547,-56.7 590,-56.7 590,-37.7 547,-37.7"/>
<polygon fill="none" stroke="#000000" points="547,-37.7 547,-56.7 590,-56.7 590,-37.7 547,-37.7"/>
<text text-anchor="start" x="550" y="-43.8" font-family="Helvetica,sans-Serif" font-size="11.00" fill="#000000">&lt; 4</text>
<polygon fill="#ffffff" stroke="transparent" points="590,-37.7 590,-56.7 639,-56.7 639,-37.7 590,-37.7"/>
<polygon fill="none" stroke="#000000" points="590,-37.7 590,-56.7 639,-56.7 639,-37.7 590,-37.7"/>
<text text-anchor="start" x="603.6105" y="-43.8" font-family="Helvetica,sans-Serif" font-size="11.00" fill="#000000">0 rows</text>
<polygon fill="#ffffff" stroke="transparent" points="639,-37.7 639,-56.7 672,-56.7 672,-37.7 639,-37.7"/>
<polygon fill="none" stroke="#000000" points="639,-37.7 639,-56.7 672,-56.7 672,-37.7 639,-37.7"/>
<text text-anchor="start" x="653.4053" y="-43.8" font-family="Helvetica,sans-Serif" font-size="11.00" fill="#000000">1 &gt;</text>
</a>
</g>
</g>
<!-- Subjects&#45;&gt;TechnicalCareers -->
<g id="edge11" class="edge">
<title>Subjects:w&#45;&gt;TechnicalCareers:e</title>
<path fill="none" stroke="#000000" d="M532.383,-154.1054C502.9887,-160.3393 495.9174,-186.6497 480,-219.7 443.4177,-295.6582 521.8084,-596.7 437.5,-596.7"/>
<polygon fill="#000000" stroke="#000000" points="539.0367,-153.4657 547.3446,-156.2835 543.0184,-153.0828 547,-152.7 547,-152.7 547,-152.7 543.0184,-153.0828 546.6554,-149.1165 539.0367,-153.4657 539.0367,-153.4657"/>
<ellipse fill="none" stroke="#000000" cx="535.8514" cy="-153.772" rx="3.2" ry="3.2"/>
</g>
<!-- Subjects&#45;&gt;AspNetUsers -->
<g id="edge10" class="edge">
<title>Subjects:w&#45;&gt;AspNetUsers:e</title>
<path fill="none" stroke="#000000" d="M532.6728,-111.6478C463.3606,-133.6539 238.336,-272.2371 212,-301.7 181.9553,-335.3119 216.5826,-394.7 171.5,-394.7"/>
<polygon fill="#000000" stroke="#000000" points="539.1641,-110.3123 547.7255,-112.2261 543.0821,-109.5061 547,-108.7 547,-108.7 547,-108.7 543.0821,-109.5061 546.2745,-105.1739 539.1641,-110.3123 539.1641,-110.3123"/>
<ellipse fill="none" stroke="#000000" cx="536.0298" cy="-110.9572" rx="3.2" ry="3.2"/>
</g>
<!-- Subjects&#45;&gt;AspNetUsers -->
<g id="edge12" class="edge">
<title>Subjects:w&#45;&gt;AspNetUsers:e</title>
<path fill="none" stroke="#000000" d="M532.5724,-86.568C390.391,-83.9921 314.463,-45.7179 212,-150.7 173.6093,-190.0345 226.4641,-394.7 171.5,-394.7"/>
<polygon fill="#000000" stroke="#000000" points="539.0003,-86.6268 546.967,-90.2998 543.0002,-86.6634 547,-86.7 547,-86.7 547,-86.7 543.0002,-86.6634 547.033,-83.1002 539.0003,-86.6268 539.0003,-86.6268"/>
<ellipse fill="none" stroke="#000000" cx="535.8005" cy="-86.5975" rx="3.2" ry="3.2"/>
</g>
</g>
</svg>
