<?xml version="1.0" encoding="UTF-8" standalone="no"?>
<!DOCTYPE svg PUBLIC "-//W3C//DTD SVG 1.1//EN"
 "http://www.w3.org/Graphics/SVG/1.1/DTD/svg11.dtd">
<!-- Generated by graphviz version 2.40.1 (20161225.0304)
 -->
<!-- Title: orphans Pages: 1 -->
<svg width="246pt" height="106pt"
 viewBox="0.00 0.00 246.00 106.00" xmlns="http://www.w3.org/2000/svg" xmlns:xlink="http://www.w3.org/1999/xlink">
<g id="graph0" class="graph" transform="scale(1 1) rotate(0) translate(4 102)">
<title>orphans</title>
<polygon fill="#ffffff" stroke="transparent" points="-4,4 -4,-102 242,-102 242,4 -4,4"/>
<!-- __EFMigrationsHistory -->
<g id="node1" class="node">
<title>__EFMigrationsHistory</title>
<g id="a_node1"><a xlink:href="../../tables/__EFMigrationsHistory.html" xlink:title="__EFMigrationsHistory" target="_top">
<polygon fill="#ffffff" stroke="transparent" points="8,-4 8,-94 230,-94 230,-4 8,-4"/>
<polygon fill="#f5f5f5" stroke="transparent" points="10,-69 10,-92 228,-92 228,-69 10,-69"/>
<polygon fill="none" stroke="#000000" points="10,-69 10,-92 228,-92 228,-69 10,-69"/>
<text text-anchor="start" x="15" y="-77.6" font-family="Helvetica,sans-Serif" font-weight="bold" font-size="11.00" fill="#000000">__EFMigrationsHistory</text>
<text text-anchor="start" x="193.0437" y="-77.1" font-family="Helvetica,sans-Serif" font-size="11.00" fill="#000000">[table]</text>
<polygon fill="none" stroke="#000000" points="10,-47 10,-69 161,-69 161,-47 10,-47"/>
<image xlink:href="../../images/primaryKeys.png" width="11px" height="12px" preserveAspectRatio="xMinYMin meet" x="15" y="-64"/>
<text text-anchor="start" x="30" y="-54.1" font-family="Helvetica,sans-Serif" font-size="11.00" fill="#000000">MigrationId</text>
<polygon fill="none" stroke="#000000" points="161,-47 161,-69 228,-69 228,-47 161,-47"/>
<text text-anchor="start" x="163.9365" y="-54.7" font-family="Helvetica,sans-Serif" font-size="11.00" fill="#000000">varchar[150]</text>
<polygon fill="none" stroke="#000000" points="10,-25 10,-47 161,-47 161,-25 10,-25"/>
<text text-anchor="start" x="30" y="-32.1" font-family="Helvetica,sans-Serif" font-size="11.00" fill="#000000">ProductVersion</text>
<polygon fill="none" stroke="#000000" points="161,-25 161,-47 228,-47 228,-25 161,-25"/>
<text text-anchor="start" x="164" y="-32.7" font-family="Helvetica,sans-Serif" font-size="11.00" fill="#000000">varchar[32]</text>
<polygon fill="#ffffff" stroke="transparent" points="10,-6 10,-25 77,-25 77,-6 10,-6"/>
<polygon fill="none" stroke="#000000" points="10,-6 10,-25 77,-25 77,-6 10,-6"/>
<text text-anchor="start" x="13" y="-12.1" font-family="Helvetica,sans-Serif" font-size="11.00" fill="#000000">&lt; 0</text>
<polygon fill="#ffffff" stroke="transparent" points="77,-6 77,-25 161,-25 161,-6 77,-6"/>
<polygon fill="none" stroke="#000000" points="77,-6 77,-25 161,-25 161,-6 77,-6"/>
<text text-anchor="start" x="125.6105" y="-12.1" font-family="Helvetica,sans-Serif" font-size="11.00" fill="#000000">7 rows</text>
<polygon fill="#ffffff" stroke="transparent" points="161,-6 161,-25 228,-25 228,-6 161,-6"/>
<polygon fill="none" stroke="#000000" points="161,-6 161,-25 228,-25 228,-6 161,-6"/>
<text text-anchor="start" x="209.4053" y="-12.1" font-family="Helvetica,sans-Serif" font-size="11.00" fill="#000000">0 &gt;</text>
<polygon fill="none" stroke="#000000" stroke-width="2" points="9,-5 9,-93 229,-93 229,-5 9,-5"/>
</a>
</g>
</g>
</g>
</svg>
